  0
SECTION
  2
HEADER
  9
$ACADVER
  1
AC1014
  9
$HANDSEED
  5
FFFF
  9
$MEASUREMENT
 70
     1
  0
ENDSEC
  0
SECTION
  2
TABLES
  0
TABLE
  2
VPORT
  5
8
330
0
100
AcDbSymbolTable
 70
     4
  0
VPORT
  5
2E
330
8
100
AcDbSymbolTableRecord
100
AcDbViewportTableRecord
  2
*ACTIVE
 70
     0
 10
0.0
 20
0.0
 11
1.0
 21
1.0
 12
210.0
 22
148.5
 13
0.0
 23
0.0
 14
10.0
 24
10.0
 15
10.0
 25
10.0
 16
0.0
 26
0.0
 36
1.0
 17
0.0
 27
0.0
 37
0.0
 40
341.0
 41
1.24
 42
50.0
 43
0.0
 44
0.0
 50
0.0
 51
0.0
 71
     0
 72
   100
 73
     1
 74
     3
 75
     0
 76
     0
 77
     0
 78
     0
  0
ENDTAB
  0
TABLE
  2
LTYPE
  5
5
330
0
100
AcDbSymbolTable
 70
     1
  0
LTYPE
  5
14
330
5
100
AcDbSymbolTableRecord
100
AcDbLinetypeTableRecord
  2
BYBLOCK
 70
     0
  3

 72
    65
 73
     0
 40
0.0
  0
LTYPE
  5
15
330
5
100
AcDbSymbolTableRecord
100
AcDbLinetypeTableRecord
  2
BYLAYER
 70
     0
  3

 72
    65
 73
     0
 40
0.0
  0
LTYPE
  5
16
330
5
100
AcDbSymbolTableRecord
100
AcDbLinetypeTableRecord
  2
CONTINUOUS
 70
     0
  3
Solid line
 72
    65
 73
     0
 40
0.0
  0
ENDTAB
  0
TABLE
  2
LAYER
  5
2
100
AcDbSymbolTable
 70
2
  0
LAYER
  5
50
100
AcDbSymbolTableRecord
100
AcDbLayerTableRecord
  2
0
 70
0
  6
CONTINUOUS
  0
LAYER
  5
51
100
AcDbSymbolTableRecord
100
AcDbLayerTableRecord
  2
Layer_1
 70
0
  6
CONTINUOUS
  0
ENDTAB
  0
TABLE
  2
STYLE
  5
3
330
0
100
AcDbSymbolTable
 70
     1
  0
STYLE
  5
11
330
3
100
AcDbSymbolTableRecord
100
AcDbTextStyleTableRecord
  2
STANDARD
 70
     0
 40
0.0
 41
1.0
 50
0.0
 71
     0
 42
2.5
  3
txt
  4

  0
ENDTAB
  0
TABLE
  2
VIEW
  5
6
330
0
100
AcDbSymbolTable
 70
     0
  0
ENDTAB
  0
TABLE
  2
UCS
  5
7
330
0
100
AcDbSymbolTable
 70
     0
  0
ENDTAB
  0
TABLE
  2
APPID
  5
9
330
0
100
AcDbSymbolTable
 70
     2
  0
APPID
  5
12
330
9
100
AcDbSymbolTableRecord
100
AcDbRegAppTableRecord
  2
ACAD
 70
     0
  0
ENDTAB
  0
TABLE
  2
DIMSTYLE
  5
A
330
0
100
AcDbSymbolTable
 70
     1
  0
DIMSTYLE
105
27
330
A
100
AcDbSymbolTableRecord
100
AcDbDimStyleTableRecord
  2
ISO-25
 70
     0
  3

  4

  5

  6

  7

 40
1.0
 41
2.5
 42
0.625
 43
3.75
 44
1.25
 45
0.0
 46
0.0
 47
0.0
 48
0.0
140
2.5
141
2.5
142
0.0
143
0.03937007874016
144
1.0
145
0.0
146
1.0
147
0.625
 71
     0
 72
     0
 73
     0
 74
     0
 75
     0
 76
     0
 77
     1
 78
     8
170
     0
171
     3
172
     1
173
     0
174
     0
175
     0
176
     0
177
     0
178
     0
270
     2
271
     2
272
     2
273
     2
274
     3
340
11
275
     0
280
     0
281
     0
282
     0
283
     0
284
     8
285
     0
286
     0
287
     3
288
     0
  0
ENDTAB
  0
TABLE
  2
BLOCK_RECORD
  5
1
330
0
100
AcDbSymbolTable
 70
     1
  0
BLOCK_RECORD
  5
1F
330
1
100
AcDbSymbolTableRecord
100
AcDbBlockTableRecord
  2
*MODEL_SPACE
  0
BLOCK_RECORD
  5
1B
330
1
100
AcDbSymbolTableRecord
100
AcDbBlockTableRecord
  2
*PAPER_SPACE
  0
ENDTAB
  0
ENDSEC
  0
SECTION
  2
BLOCKS
  0
BLOCK
  5
20
330
1F
100
AcDbEntity
  8
0
100
AcDbBlockBegin
  2
*MODEL_SPACE
 70
     0
 10
0.0
 20
0.0
 30
0.0
  3
*MODEL_SPACE
  1

  0
ENDBLK
  5
21
330
1F
100
AcDbEntity
  8
0
100
AcDbBlockEnd
  0
BLOCK
  5
1C
330
1B
100
AcDbEntity
 67
     1
  8
0
100
AcDbBlockBegin
  2
*PAPER_SPACE
  1

  0
ENDBLK
  5
1D
330
1B
100
AcDbEntity
 67
     1
  8
0
100
AcDbBlockEnd
  0
ENDSEC
  0
SECTION
  2
ENTITIES
  0
LINE
  5
100
100
AcDbEntity
  8
Layer_1
 62
7
100
AcDbLine
 10
6.012840
 20
106.432760
 30
0.0
 11
132.987121
 21
106.432760
 31
0.0
  0
LINE
  5
101
100
AcDbEntity
  8
Layer_1
 62
7
100
AcDbLine
 10
132.987121
 20
106.432760
 30
0.0
 11
132.987121
 21
8.033467
 31
0.0
  0
LINE
  5
102
100
AcDbEntity
  8
Layer_1
 62
7
100
AcDbLine
 10
132.987121
 20
8.033467
 30
0.0
 11
6.012840
 21
8.033467
 31
0.0
  0
LINE
  5
103
100
AcDbEntity
  8
Layer_1
 62
7
100
AcDbLine
 10
6.012840
 20
8.033467
 30
0.0
 11
6.012840
 21
106.432760
 31
0.0
  0
SPLINE
  5
104
100
AcDbEntity
  8
Layer_1
 62
7
100
AcDbSpline
 70
8
 71
3
 72
8
 73
4
 74
0
 40
0
 40
0
 40
0
 40
0
 40
1
 40
1
 40
1
 40
1
 10
27.704637
 20
99.354782
 30
0.0
 10
27.768946
 20
99.354782
 30
0.0
 10
27.821771
 20
99.376601
 30
0.0
 10
27.863112
 20
99.420239
 30
0.0
  0
SPLINE
  5
105
100
AcDbEntity
  8
Layer_1
 62
7
100
AcDbSpline
 70
8
 71
3
 72
8
 73
4
 74
0
 40
0
 40
0
 40
0
 40
0
 40
1
 40
1
 40
1
 40
1
 10
27.863112
 20
99.420239
 30
0.0
 10
27.904453
 20
99.463877
 30
0.0
 10
27.925123
 20
99.515553
 30
0.0
 10
27.925123
 20
99.575268
 30
0.0
  0
LINE
  5
106
100
AcDbEntity
  8
Layer_1
 62
7
100
AcDbLine
 10
27.925123
 20
99.575268
 30
0.0
 11
27.925123
 21
100.898184
 31
0.0
  0
SPLINE
  5
107
100
AcDbEntity
  8
Layer_1
 62
7
100
AcDbSpline
 70
8
 71
3
 72
8
 73
4
 74
0
 40
0
 40
0
 40
0
 40
0
 40
1
 40
1
 40
1
 40
1
 10
27.925123
 20
100.898184
 30
0.0
 10
27.925123
 20
100.957900
 30
0.0
 10
27.903304
 20
101.009576
 30
0.0
 10
27.859667
 20
101.053214
 30
0.0
  0
SPLINE
  5
108
100
AcDbEntity
  8
Layer_1
 62
7
100
AcDbSpline
 70
8
 71
3
 72
8
 73
4
 74
0
 40
0
 40
0
 40
0
 40
0
 40
1
 40
1
 40
1
 40
1
 10
27.859667
 20
101.053214
 30
0.0
 10
27.816029
 20
101.096852
 30
0.0
 10
27.764352
 20
101.118671
 30
0.0
 10
27.704637
 20
101.118671
 30
0.0
  0
LINE
  5
109
100
AcDbEntity
  8
Layer_1
 62
7
100
AcDbLine
 10
27.704637
 20
101.118671
 30
0.0
 11
24.617832
 21
101.118671
 31
0.0
  0
SPLINE
  5
10a
100
AcDbEntity
  8
Layer_1
 62
7
100
AcDbSpline
 70
8
 71
3
 72
8
 73
4
 74
0
 40
0
 40
0
 40
0
 40
0
 40
1
 40
1
 40
1
 40
1
 10
24.617832
 20
101.118671
 30
0.0
 10
24.558117
 20
101.118671
 30
0.0
 10
24.506440
 20
101.098000
 30
0.0
 10
24.462802
 20
101.056659
 30
0.0
  0
SPLINE
  5
10b
100
AcDbEntity
  8
Layer_1
 62
7
100
AcDbSpline
 70
8
 71
3
 72
8
 73
4
 74
0
 40
0
 40
0
 40
0
 40
0
 40
1
 40
1
 40
1
 40
1
 10
24.462802
 20
101.056659
 30
0.0
 10
24.419165
 20
101.015318
 30
0.0
 10
24.397346
 20
100.962493
 30
0.0
 10
24.397346
 20
100.898184
 30
0.0
  0
LINE
  5
10c
100
AcDbEntity
  8
Layer_1
 62
7
100
AcDbLine
 10
24.397346
 20
100.898184
 30
0.0
 11
24.397346
 21
99.575268
 31
0.0
  0
SPLINE
  5
10d
100
AcDbEntity
  8
Layer_1
 62
7
100
AcDbSpline
 70
8
 71
3
 72
8
 73
4
 74
0
 40
0
 40
0
 40
0
 40
0
 40
1
 40
1
 40
1
 40
1
 10
24.397346
 20
99.575268
 30
0.0
 10
24.397346
 20
99.510959
 30
0.0
 10
24.418016
 20
99.458135
 30
0.0
 10
24.459357
 20
99.416794
 30
0.0
  0
SPLINE
  5
10e
100
AcDbEntity
  8
Layer_1
 62
7
100
AcDbSpline
 70
8
 71
3
 72
8
 73
4
 74
0
 40
0
 40
0
 40
0
 40
0
 40
1
 40
1
 40
1
 40
1
 10
24.459357
 20
99.416794
 30
0.0
 10
24.500698
 20
99.375452
 30
0.0
 10
24.553523
 20
99.354782
 30
0.0
 10
24.617832
 20
99.354782
 30
0.0
  0
LINE
  5
10f
100
AcDbEntity
  8
Layer_1
 62
7
100
AcDbLine
 10
24.617832
 20
99.354782
 30
0.0
 11
27.704637
 21
99.354782
 31
0.0
  0
LINE
  5
110
100
AcDbEntity
  8
Layer_1
 62
7
100
AcDbLine
 10
27.704637
 20
99.354782
 30
0.0
 11
27.704637
 21
99.354782
 31
0.0
  0
SPLINE
  5
111
100
AcDbEntity
  8
Layer_1
 62
7
100
AcDbSpline
 70
8
 71
3
 72
8
 73
4
 74
0
 40
0
 40
0
 40
0
 40
0
 40
1
 40
1
 40
1
 40
1
 10
27.704637
 20
102.000615
 30
0.0
 10
27.768946
 20
102.000615
 30
0.0
 10
27.821771
 20
102.022434
 30
0.0
 10
27.863112
 20
102.066072
 30
0.0
  0
SPLINE
  5
112
100
AcDbEntity
  8
Layer_1
 62
7
100
AcDbSpline
 70
8
 71
3
 72
8
 73
4
 74
0
 40
0
 40
0
 40
0
 40
0
 40
1
 40
1
 40
1
 40
1
 10
27.863112
 20
102.066072
 30
0.0
 10
27.904453
 20
102.109710
 30
0.0
 10
27.925123
 20
102.161386
 30
0.0
 10
27.925123
 20
102.221101
 30
0.0
  0
LINE
  5
113
100
AcDbEntity
  8
Layer_1
 62
7
100
AcDbLine
 10
27.925123
 20
102.221101
 30
0.0
 11
27.925123
 21
103.544018
 31
0.0
  0
SPLINE
  5
114
100
AcDbEntity
  8
Layer_1
 62
7
100
AcDbSpline
 70
8
 71
3
 72
8
 73
4
 74
0
 40
0
 40
0
 40
0
 40
0
 40
1
 40
1
 40
1
 40
1
 10
27.925123
 20
103.544018
 30
0.0
 10
27.925123
 20
103.603733
 30
0.0
 10
27.903304
 20
103.655409
 30
0.0
 10
27.859667
 20
103.699047
 30
0.0
  0
SPLINE
  5
115
100
AcDbEntity
  8
Layer_1
 62
7
100
AcDbSpline
 70
8
 71
3
 72
8
 73
4
 74
0
 40
0
 40
0
 40
0
 40
0
 40
1
 40
1
 40
1
 40
1
 10
27.859667
 20
103.699047
 30
0.0
 10
27.816029
 20
103.742685
 30
0.0
 10
27.764352
 20
103.764504
 30
0.0
 10
27.704637
 20
103.764504
 30
0.0
  0
LINE
  5
116
100
AcDbEntity
  8
Layer_1
 62
7
100
AcDbLine
 10
27.704637
 20
103.764504
 30
0.0
 11
24.617832
 21
103.764504
 31
0.0
  0
SPLINE
  5
117
100
AcDbEntity
  8
Layer_1
 62
7
100
AcDbSpline
 70
8
 71
3
 72
8
 73
4
 74
0
 40
0
 40
0
 40
0
 40
0
 40
1
 40
1
 40
1
 40
1
 10
24.617832
 20
103.764504
 30
0.0
 10
24.558117
 20
103.764504
 30
0.0
 10
24.506440
 20
103.743833
 30
0.0
 10
24.462802
 20
103.702492
 30
0.0
  0
SPLINE
  5
118
100
AcDbEntity
  8
Layer_1
 62
7
100
AcDbSpline
 70
8
 71
3
 72
8
 73
4
 74
0
 40
0
 40
0
 40
0
 40
0
 40
1
 40
1
 40
1
 40
1
 10
24.462802
 20
103.702492
 30
0.0
 10
24.419165
 20
103.661151
 30
0.0
 10
24.397346
 20
103.608326
 30
0.0
 10
24.397346
 20
103.544018
 30
0.0
  0
LINE
  5
119
100
AcDbEntity
  8
Layer_1
 62
7
100
AcDbLine
 10
24.397346
 20
103.544018
 30
0.0
 11
24.397346
 21
102.221101
 31
0.0
  0
SPLINE
  5
11a
100
AcDbEntity
  8
Layer_1
 62
7
100
AcDbSpline
 70
8
 71
3
 72
8
 73
4
 74
0
 40
0
 40
0
 40
0
 40
0
 40
1
 40
1
 40
1
 40
1
 10
24.397346
 20
102.221101
 30
0.0
 10
24.397346
 20
102.156793
 30
0.0
 10
24.418016
 20
102.103968
 30
0.0
 10
24.459357
 20
102.062627
 30
0.0
  0
SPLINE
  5
11b
100
AcDbEntity
  8
Layer_1
 62
7
100
AcDbSpline
 70
8
 71
3
 72
8
 73
4
 74
0
 40
0
 40
0
 40
0
 40
0
 40
1
 40
1
 40
1
 40
1
 10
24.459357
 20
102.062627
 30
0.0
 10
24.500698
 20
102.021286
 30
0.0
 10
24.553523
 20
102.000615
 30
0.0
 10
24.617832
 20
102.000615
 30
0.0
  0
LINE
  5
11c
100
AcDbEntity
  8
Layer_1
 62
7
100
AcDbLine
 10
24.617832
 20
102.000615
 30
0.0
 11
27.704637
 21
102.000615
 31
0.0
  0
LINE
  5
11d
100
AcDbEntity
  8
Layer_1
 62
7
100
AcDbLine
 10
27.704637
 20
102.000615
 30
0.0
 11
27.704637
 21
102.000615
 31
0.0
  0
SPLINE
  5
11e
100
AcDbEntity
  8
Layer_1
 62
7
100
AcDbSpline
 70
8
 71
3
 72
8
 73
4
 74
0
 40
0
 40
0
 40
0
 40
0
 40
1
 40
1
 40
1
 40
1
 10
23.956373
 20
98.472837
 30
0.0
 10
23.894362
 20
98.472837
 30
0.0
 10
23.835795
 20
98.484321
 30
0.0
 10
23.780674
 20
98.507288
 30
0.0
  0
SPLINE
  5
11f
100
AcDbEntity
  8
Layer_1
 62
7
100
AcDbSpline
 70
8
 71
3
 72
8
 73
4
 74
0
 40
0
 40
0
 40
0
 40
0
 40
1
 40
1
 40
1
 40
1
 10
23.780674
 20
98.507288
 30
0.0
 10
23.727849
 20
98.530256
 30
0.0
 10
23.681914
 20
98.561262
 30
0.0
 10
23.642870
 20
98.600306
 30
0.0
  0
SPLINE
  5
120
100
AcDbEntity
  8
Layer_1
 62
7
100
AcDbSpline
 70
8
 71
3
 72
8
 73
4
 74
0
 40
0
 40
0
 40
0
 40
0
 40
1
 40
1
 40
1
 40
1
 10
23.642870
 20
98.600306
 30
0.0
 10
23.603825
 20
98.639350
 30
0.0
 10
23.572819
 20
98.685285
 30
0.0
 10
23.549852
 20
98.738110
 30
0.0
  0
SPLINE
  5
121
100
AcDbEntity
  8
Layer_1
 62
7
100
AcDbSpline
 70
8
 71
3
 72
8
 73
4
 74
0
 40
0
 40
0
 40
0
 40
0
 40
1
 40
1
 40
1
 40
1
 10
23.549852
 20
98.738110
 30
0.0
 10
23.526885
 20
98.793231
 30
0.0
 10
23.515401
 20
98.851798
 30
0.0
 10
23.515401
 20
98.913809
 30
0.0
  0
LINE
  5
122
100
AcDbEntity
  8
Layer_1
 62
7
100
AcDbLine
 10
23.515401
 20
98.913809
 30
0.0
 11
23.515401
 21
104.205476
 31
0.0
  0
SPLINE
  5
123
100
AcDbEntity
  8
Layer_1
 62
7
100
AcDbSpline
 70
8
 71
3
 72
8
 73
4
 74
0
 40
0
 40
0
 40
0
 40
0
 40
1
 40
1
 40
1
 40
1
 10
23.515401
 20
104.205476
 30
0.0
 10
23.515401
 20
104.265191
 30
0.0
 10
23.526885
 20
104.321461
 30
0.0
 10
23.549852
 20
104.374286
 30
0.0
  0
SPLINE
  5
124
100
AcDbEntity
  8
Layer_1
 62
7
100
AcDbSpline
 70
8
 71
3
 72
8
 73
4
 74
0
 40
0
 40
0
 40
0
 40
0
 40
1
 40
1
 40
1
 40
1
 10
23.549852
 20
104.374286
 30
0.0
 10
23.575116
 20
104.427111
 30
0.0
 10
23.607270
 20
104.473045
 30
0.0
 10
23.646315
 20
104.512090
 30
0.0
  0
SPLINE
  5
125
100
AcDbEntity
  8
Layer_1
 62
7
100
AcDbSpline
 70
8
 71
3
 72
8
 73
4
 74
0
 40
0
 40
0
 40
0
 40
0
 40
1
 40
1
 40
1
 40
1
 10
23.646315
 20
104.512090
 30
0.0
 10
23.687656
 20
104.553431
 30
0.0
 10
23.734739
 20
104.585585
 30
0.0
 10
23.787564
 20
104.608552
 30
0.0
  0
SPLINE
  5
126
100
AcDbEntity
  8
Layer_1
 62
7
100
AcDbSpline
 70
8
 71
3
 72
8
 73
4
 74
0
 40
0
 40
0
 40
0
 40
0
 40
1
 40
1
 40
1
 40
1
 10
23.787564
 20
104.608552
 30
0.0
 10
23.840388
 20
104.633816
 30
0.0
 10
23.896658
 20
104.646448
 30
0.0
 10
23.956373
 20
104.646448
 30
0.0
  0
LINE
  5
127
100
AcDbEntity
  8
Layer_1
 62
7
100
AcDbLine
 10
23.956373
 20
104.646448
 30
0.0
 11
28.366096
 21
104.646448
 31
0.0
  0
SPLINE
  5
128
100
AcDbEntity
  8
Layer_1
 62
7
100
AcDbSpline
 70
8
 71
3
 72
8
 73
4
 74
0
 40
0
 40
0
 40
0
 40
0
 40
1
 40
1
 40
1
 40
1
 10
28.366096
 20
104.646448
 30
0.0
 10
28.425811
 20
104.646448
 30
0.0
 10
28.482081
 20
104.633816
 30
0.0
 10
28.534905
 20
104.608552
 30
0.0
  0
SPLINE
  5
129
100
AcDbEntity
  8
Layer_1
 62
7
100
AcDbSpline
 70
8
 71
3
 72
8
 73
4
 74
0
 40
0
 40
0
 40
0
 40
0
 40
1
 40
1
 40
1
 40
1
 10
28.534905
 20
104.608552
 30
0.0
 10
28.587730
 20
104.585585
 30
0.0
 10
28.633665
 20
104.553431
 30
0.0
 10
28.672709
 20
104.512090
 30
0.0
  0
SPLINE
  5
12a
100
AcDbEntity
  8
Layer_1
 62
7
100
AcDbSpline
 70
8
 71
3
 72
8
 73
4
 74
0
 40
0
 40
0
 40
0
 40
0
 40
1
 40
1
 40
1
 40
1
 10
28.672709
 20
104.512090
 30
0.0
 10
28.714050
 20
104.473045
 30
0.0
 10
28.746205
 20
104.427111
 30
0.0
 10
28.769172
 20
104.374286
 30
0.0
  0
SPLINE
  5
12b
100
AcDbEntity
  8
Layer_1
 62
7
100
AcDbSpline
 70
8
 71
3
 72
8
 73
4
 74
0
 40
0
 40
0
 40
0
 40
0
 40
1
 40
1
 40
1
 40
1
 10
28.769172
 20
104.374286
 30
0.0
 10
28.794436
 20
104.321461
 30
0.0
 10
28.807068
 20
104.265191
 30
0.0
 10
28.807068
 20
104.205476
 30
0.0
  0
LINE
  5
12c
100
AcDbEntity
  8
Layer_1
 62
7
100
AcDbLine
 10
28.807068
 20
104.205476
 30
0.0
 11
28.807068
 21
98.913809
 31
0.0
  0
SPLINE
  5
12d
100
AcDbEntity
  8
Layer_1
 62
7
100
AcDbSpline
 70
8
 71
3
 72
8
 73
4
 74
0
 40
0
 40
0
 40
0
 40
0
 40
1
 40
1
 40
1
 40
1
 10
28.807068
 20
98.913809
 30
0.0
 10
28.807068
 20
98.854095
 30
0.0
 10
28.794436
 20
98.797825
 30
0.0
 10
28.769172
 20
98.745000
 30
0.0
  0
SPLINE
  5
12e
100
AcDbEntity
  8
Layer_1
 62
7
100
AcDbSpline
 70
8
 71
3
 72
8
 73
4
 74
0
 40
0
 40
0
 40
0
 40
0
 40
1
 40
1
 40
1
 40
1
 10
28.769172
 20
98.745000
 30
0.0
 10
28.746205
 20
98.692175
 30
0.0
 10
28.714050
 20
98.645092
 30
0.0
 10
28.672709
 20
98.603751
 30
0.0
  0
SPLINE
  5
12f
100
AcDbEntity
  8
Layer_1
 62
7
100
AcDbSpline
 70
8
 71
3
 72
8
 73
4
 74
0
 40
0
 40
0
 40
0
 40
0
 40
1
 40
1
 40
1
 40
1
 10
28.672709
 20
98.603751
 30
0.0
 10
28.633665
 20
98.564707
 30
0.0
 10
28.587730
 20
98.532552
 30
0.0
 10
28.534905
 20
98.507288
 30
0.0
  0
SPLINE
  5
130
100
AcDbEntity
  8
Layer_1
 62
7
100
AcDbSpline
 70
8
 71
3
 72
8
 73
4
 74
0
 40
0
 40
0
 40
0
 40
0
 40
1
 40
1
 40
1
 40
1
 10
28.534905
 20
98.507288
 30
0.0
 10
28.482081
 20
98.484321
 30
0.0
 10
28.425811
 20
98.472837
 30
0.0
 10
28.366096
 20
98.472837
 30
0.0
  0
LINE
  5
131
100
AcDbEntity
  8
Layer_1
 62
7
100
AcDbLine
 10
28.366096
 20
98.472837
 30
0.0
 11
23.956373
 21
98.472837
 31
0.0
  0
LINE
  5
132
100
AcDbEntity
  8
Layer_1
 62
7
100
AcDbLine
 10
23.956373
 20
98.472837
 30
0.0
 11
23.956373
 21
98.472837
 31
0.0
  0
SPLINE
  5
133
100
AcDbEntity
  8
Layer_1
 62
7
100
AcDbSpline
 70
8
 71
3
 72
8
 73
4
 74
0
 40
0
 40
0
 40
0
 40
0
 40
1
 40
1
 40
1
 40
1
 10
41.015649
 20
98.472837
 30
0.0
 10
40.951340
 20
98.472837
 30
0.0
 10
40.898515
 20
98.493508
 30
0.0
 10
40.857175
 20
98.534849
 30
0.0
  0
SPLINE
  5
134
100
AcDbEntity
  8
Layer_1
 62
7
100
AcDbSpline
 70
8
 71
3
 72
8
 73
4
 74
0
 40
0
 40
0
 40
0
 40
0
 40
1
 40
1
 40
1
 40
1
 10
40.857175
 20
98.534849
 30
0.0
 10
40.815833
 20
98.576190
 30
0.0
 10
40.795163
 20
98.629015
 30
0.0
 10
40.795163
 20
98.693323
 30
0.0
  0
LINE
  5
135
100
AcDbEntity
  8
Layer_1
 62
7
100
AcDbLine
 10
40.795163
 20
98.693323
 30
0.0
 11
40.795163
 21
104.205476
 31
0.0
  0
SPLINE
  5
136
100
AcDbEntity
  8
Layer_1
 62
7
100
AcDbSpline
 70
8
 71
3
 72
8
 73
4
 74
0
 40
0
 40
0
 40
0
 40
0
 40
1
 40
1
 40
1
 40
1
 10
40.795163
 20
104.205476
 30
0.0
 10
40.795163
 20
104.265191
 30
0.0
 10
40.806646
 20
104.321461
 30
0.0
 10
40.829613
 20
104.374286
 30
0.0
  0
SPLINE
  5
137
100
AcDbEntity
  8
Layer_1
 62
7
100
AcDbSpline
 70
8
 71
3
 72
8
 73
4
 74
0
 40
0
 40
0
 40
0
 40
0
 40
1
 40
1
 40
1
 40
1
 10
40.829613
 20
104.374286
 30
0.0
 10
40.854878
 20
104.427111
 30
0.0
 10
40.887032
 20
104.473045
 30
0.0
 10
40.926077
 20
104.512090
 30
0.0
  0
SPLINE
  5
138
100
AcDbEntity
  8
Layer_1
 62
7
100
AcDbSpline
 70
8
 71
3
 72
8
 73
4
 74
0
 40
0
 40
0
 40
0
 40
0
 40
1
 40
1
 40
1
 40
1
 10
40.926077
 20
104.512090
 30
0.0
 10
40.967417
 20
104.553431
 30
0.0
 10
41.014500
 20
104.585585
 30
0.0
 10
41.067326
 20
104.608552
 30
0.0
  0
SPLINE
  5
139
100
AcDbEntity
  8
Layer_1
 62
7
100
AcDbSpline
 70
8
 71
3
 72
8
 73
4
 74
0
 40
0
 40
0
 40
0
 40
0
 40
1
 40
1
 40
1
 40
1
 10
41.067326
 20
104.608552
 30
0.0
 10
41.120151
 20
104.633816
 30
0.0
 10
41.176420
 20
104.646448
 30
0.0
 10
41.236135
 20
104.646448
 30
0.0
  0
LINE
  5
13a
100
AcDbEntity
  8
Layer_1
 62
7
100
AcDbLine
 10
41.236135
 20
104.646448
 30
0.0
 11
45.645857
 21
104.646448
 31
0.0
  0
SPLINE
  5
13b
100
AcDbEntity
  8
Layer_1
 62
7
100
AcDbSpline
 70
8
 71
3
 72
8
 73
4
 74
0
 40
0
 40
0
 40
0
 40
0
 40
1
 40
1
 40
1
 40
1
 10
45.645857
 20
104.646448
 30
0.0
 10
45.705571
 20
104.646448
 30
0.0
 10
45.761841
 20
104.633816
 30
0.0
 10
45.814665
 20
104.608552
 30
0.0
  0
SPLINE
  5
13c
100
AcDbEntity
  8
Layer_1
 62
7
100
AcDbSpline
 70
8
 71
3
 72
8
 73
4
 74
0
 40
0
 40
0
 40
0
 40
0
 40
1
 40
1
 40
1
 40
1
 10
45.814665
 20
104.608552
 30
0.0
 10
45.867492
 20
104.585585
 30
0.0
 10
45.913427
 20
104.553431
 30
0.0
 10
45.952472
 20
104.512090
 30
0.0
  0
SPLINE
  5
13d
100
AcDbEntity
  8
Layer_1
 62
7
100
AcDbSpline
 70
8
 71
3
 72
8
 73
4
 74
0
 40
0
 40
0
 40
0
 40
0
 40
1
 40
1
 40
1
 40
1
 10
45.952472
 20
104.512090
 30
0.0
 10
45.993812
 20
104.473045
 30
0.0
 10
46.025965
 20
104.427111
 30
0.0
 10
46.048932
 20
104.374286
 30
0.0
  0
SPLINE
  5
13e
100
AcDbEntity
  8
Layer_1
 62
7
100
AcDbSpline
 70
8
 71
3
 72
8
 73
4
 74
0
 40
0
 40
0
 40
0
 40
0
 40
1
 40
1
 40
1
 40
1
 10
46.048932
 20
104.374286
 30
0.0
 10
46.074197
 20
104.321461
 30
0.0
 10
46.086829
 20
104.265191
 30
0.0
 10
46.086829
 20
104.205476
 30
0.0
  0
LINE
  5
13f
100
AcDbEntity
  8
Layer_1
 62
7
100
AcDbLine
 10
46.086829
 20
104.205476
 30
0.0
 11
46.086829
 21
101.339157
 31
0.0
  0
SPLINE
  5
140
100
AcDbEntity
  8
Layer_1
 62
7
100
AcDbSpline
 70
8
 71
3
 72
8
 73
4
 74
0
 40
0
 40
0
 40
0
 40
0
 40
1
 40
1
 40
1
 40
1
 10
46.086829
 20
101.339157
 30
0.0
 10
46.086829
 20
101.279442
 30
0.0
 10
46.066158
 20
101.227765
 30
0.0
 10
46.024816
 20
101.184128
 30
0.0
  0
SPLINE
  5
141
100
AcDbEntity
  8
Layer_1
 62
7
100
AcDbSpline
 70
8
 71
3
 72
8
 73
4
 74
0
 40
0
 40
0
 40
0
 40
0
 40
1
 40
1
 40
1
 40
1
 10
46.024816
 20
101.184128
 30
0.0
 10
45.983477
 20
101.140490
 30
0.0
 10
45.930652
 20
101.118671
 30
0.0
 10
45.866343
 20
101.118671
 30
0.0
  0
LINE
  5
142
100
AcDbEntity
  8
Layer_1
 62
7
100
AcDbLine
 10
45.866343
 20
101.118671
 30
0.0
 11
45.425371
 21
101.118671
 31
0.0
  0
SPLINE
  5
143
100
AcDbEntity
  8
Layer_1
 62
7
100
AcDbSpline
 70
8
 71
3
 72
8
 73
4
 74
0
 40
0
 40
0
 40
0
 40
0
 40
1
 40
1
 40
1
 40
1
 10
45.425371
 20
101.118671
 30
0.0
 10
45.361062
 20
101.118671
 30
0.0
 10
45.308237
 20
101.139341
 30
0.0
 10
45.266897
 20
101.180682
 30
0.0
  0
SPLINE
  5
144
100
AcDbEntity
  8
Layer_1
 62
7
100
AcDbSpline
 70
8
 71
3
 72
8
 73
4
 74
0
 40
0
 40
0
 40
0
 40
0
 40
1
 40
1
 40
1
 40
1
 10
45.266897
 20
101.180682
 30
0.0
 10
45.225556
 20
101.222023
 30
0.0
 10
45.204885
 20
101.274848
 30
0.0
 10
45.204885
 20
101.339157
 30
0.0
  0
LINE
  5
145
100
AcDbEntity
  8
Layer_1
 62
7
100
AcDbLine
 10
45.204885
 20
101.339157
 30
0.0
 11
45.204885
 21
103.544018
 31
0.0
  0
SPLINE
  5
146
100
AcDbEntity
  8
Layer_1
 62
7
100
AcDbSpline
 70
8
 71
3
 72
8
 73
4
 74
0
 40
0
 40
0
 40
0
 40
0
 40
1
 40
1
 40
1
 40
1
 10
45.204885
 20
103.544018
 30
0.0
 10
45.204885
 20
103.603733
 30
0.0
 10
45.183066
 20
103.655409
 30
0.0
 10
45.139429
 20
103.699047
 30
0.0
  0
SPLINE
  5
147
100
AcDbEntity
  8
Layer_1
 62
7
100
AcDbSpline
 70
8
 71
3
 72
8
 73
4
 74
0
 40
0
 40
0
 40
0
 40
0
 40
1
 40
1
 40
1
 40
1
 10
45.139429
 20
103.699047
 30
0.0
 10
45.095790
 20
103.742685
 30
0.0
 10
45.044113
 20
103.764504
 30
0.0
 10
44.984399
 20
103.764504
 30
0.0
  0
LINE
  5
148
100
AcDbEntity
  8
Layer_1
 62
7
100
AcDbLine
 10
44.984399
 20
103.764504
 30
0.0
 11
41.897593
 21
103.764504
 31
0.0
  0
SPLINE
  5
149
100
AcDbEntity
  8
Layer_1
 62
7
100
AcDbSpline
 70
8
 71
3
 72
8
 73
4
 74
0
 40
0
 40
0
 40
0
 40
0
 40
1
 40
1
 40
1
 40
1
 10
41.897593
 20
103.764504
 30
0.0
 10
41.837879
 20
103.764504
 30
0.0
 10
41.786202
 20
103.743833
 30
0.0
 10
41.742563
 20
103.702492
 30
0.0
  0
SPLINE
  5
14a
100
AcDbEntity
  8
Layer_1
 62
7
100
AcDbSpline
 70
8
 71
3
 72
8
 73
4
 74
0
 40
0
 40
0
 40
0
 40
0
 40
1
 40
1
 40
1
 40
1
 10
41.742563
 20
103.702492
 30
0.0
 10
41.698926
 20
103.661151
 30
0.0
 10
41.677107
 20
103.608326
 30
0.0
 10
41.677107
 20
103.544018
 30
0.0
  0
LINE
  5
14b
100
AcDbEntity
  8
Layer_1
 62
7
100
AcDbLine
 10
41.677107
 20
103.544018
 30
0.0
 11
41.677107
 21
98.693323
 31
0.0
  0
SPLINE
  5
14c
100
AcDbEntity
  8
Layer_1
 62
7
100
AcDbSpline
 70
8
 71
3
 72
8
 73
4
 74
0
 40
0
 40
0
 40
0
 40
0
 40
1
 40
1
 40
1
 40
1
 10
41.677107
 20
98.693323
 30
0.0
 10
41.677107
 20
98.633609
 30
0.0
 10
41.656436
 20
98.581932
 30
0.0
 10
41.615094
 20
98.538294
 30
0.0
  0
SPLINE
  5
14d
100
AcDbEntity
  8
Layer_1
 62
7
100
AcDbSpline
 70
8
 71
3
 72
8
 73
4
 74
0
 40
0
 40
0
 40
0
 40
0
 40
1
 40
1
 40
1
 40
1
 10
41.615094
 20
98.538294
 30
0.0
 10
41.573754
 20
98.494656
 30
0.0
 10
41.520930
 20
98.472837
 30
0.0
 10
41.456621
 20
98.472837
 30
0.0
  0
LINE
  5
14e
100
AcDbEntity
  8
Layer_1
 62
7
100
AcDbLine
 10
41.456621
 20
98.472837
 30
0.0
 11
41.015649
 21
98.472837
 31
0.0
  0
LINE
  5
14f
100
AcDbEntity
  8
Layer_1
 62
7
100
AcDbLine
 10
41.015649
 20
98.472837
 30
0.0
 11
41.015649
 21
98.472837
 31
0.0
  0
SPLINE
  5
150
100
AcDbEntity
  8
Layer_1
 62
7
100
AcDbSpline
 70
8
 71
3
 72
8
 73
4
 74
0
 40
0
 40
0
 40
0
 40
0
 40
1
 40
1
 40
1
 40
1
 10
58.295410
 20
98.472837
 30
0.0
 10
58.231101
 20
98.472837
 30
0.0
 10
58.178276
 20
98.493508
 30
0.0
 10
58.136936
 20
98.534849
 30
0.0
  0
SPLINE
  5
151
100
AcDbEntity
  8
Layer_1
 62
7
100
AcDbSpline
 70
8
 71
3
 72
8
 73
4
 74
0
 40
0
 40
0
 40
0
 40
0
 40
1
 40
1
 40
1
 40
1
 10
58.136936
 20
98.534849
 30
0.0
 10
58.095595
 20
98.576190
 30
0.0
 10
58.074924
 20
98.629015
 30
0.0
 10
58.074924
 20
98.693323
 30
0.0
  0
LINE
  5
152
100
AcDbEntity
  8
Layer_1
 62
7
100
AcDbLine
 10
58.074924
 20
98.693323
 30
0.0
 11
58.074924
 21
99.134296
 31
0.0
  0
SPLINE
  5
153
100
AcDbEntity
  8
Layer_1
 62
7
100
AcDbSpline
 70
8
 71
3
 72
8
 73
4
 74
0
 40
0
 40
0
 40
0
 40
0
 40
1
 40
1
 40
1
 40
1
 10
58.074924
 20
99.134296
 30
0.0
 10
58.074924
 20
99.198604
 30
0.0
 10
58.096742
 20
99.251429
 30
0.0
 10
58.140379
 20
99.292770
 30
0.0
  0
SPLINE
  5
154
100
AcDbEntity
  8
Layer_1
 62
7
100
AcDbSpline
 70
8
 71
3
 72
8
 73
4
 74
0
 40
0
 40
0
 40
0
 40
0
 40
1
 40
1
 40
1
 40
1
 10
58.140379
 20
99.292770
 30
0.0
 10
58.184018
 20
99.334111
 30
0.0
 10
58.235695
 20
99.354782
 30
0.0
 10
58.295410
 20
99.354782
 30
0.0
  0
LINE
  5
155
100
AcDbEntity
  8
Layer_1
 62
7
100
AcDbLine
 10
58.295410
 20
99.354782
 30
0.0
 11
62.264160
 21
99.354782
 31
0.0
  0
SPLINE
  5
156
100
AcDbEntity
  8
Layer_1
 62
7
100
AcDbSpline
 70
8
 71
3
 72
8
 73
4
 74
0
 40
0
 40
0
 40
0
 40
0
 40
1
 40
1
 40
1
 40
1
 10
62.264160
 20
99.354782
 30
0.0
 10
62.328469
 20
99.354782
 30
0.0
 10
62.381293
 20
99.376601
 30
0.0
 10
62.422633
 20
99.420239
 30
0.0
  0
SPLINE
  5
157
100
AcDbEntity
  8
Layer_1
 62
7
100
AcDbSpline
 70
8
 71
3
 72
8
 73
4
 74
0
 40
0
 40
0
 40
0
 40
0
 40
1
 40
1
 40
1
 40
1
 10
62.422633
 20
99.420239
 30
0.0
 10
62.463975
 20
99.463877
 30
0.0
 10
62.484646
 20
99.515553
 30
0.0
 10
62.484646
 20
99.575268
 30
0.0
  0
LINE
  5
158
100
AcDbEntity
  8
Layer_1
 62
7
100
AcDbLine
 10
62.484646
 20
99.575268
 30
0.0
 11
62.484646
 21
100.016240
 31
0.0
  0
SPLINE
  5
159
100
AcDbEntity
  8
Layer_1
 62
7
100
AcDbSpline
 70
8
 71
3
 72
8
 73
4
 74
0
 40
0
 40
0
 40
0
 40
0
 40
1
 40
1
 40
1
 40
1
 10
62.484646
 20
100.016240
 30
0.0
 10
62.484646
 20
100.075955
 30
0.0
 10
62.462827
 20
100.127632
 30
0.0
 10
62.419190
 20
100.171270
 30
0.0
  0
SPLINE
  5
15a
100
AcDbEntity
  8
Layer_1
 62
7
100
AcDbSpline
 70
8
 71
3
 72
8
 73
4
 74
0
 40
0
 40
0
 40
0
 40
0
 40
1
 40
1
 40
1
 40
1
 10
62.419190
 20
100.171270
 30
0.0
 10
62.375551
 20
100.214907
 30
0.0
 10
62.323874
 20
100.236726
 30
0.0
 10
62.264160
 20
100.236726
 30
0.0
  0
LINE
  5
15b
100
AcDbEntity
  8
Layer_1
 62
7
100
AcDbLine
 10
62.264160
 20
100.236726
 30
0.0
 11
59.397840
 21
100.236726
 31
0.0
  0
SPLINE
  5
15c
100
AcDbEntity
  8
Layer_1
 62
7
100
AcDbSpline
 70
8
 71
3
 72
8
 73
4
 74
0
 40
0
 40
0
 40
0
 40
0
 40
1
 40
1
 40
1
 40
1
 10
59.397840
 20
100.236726
 30
0.0
 10
59.335829
 20
100.236726
 30
0.0
 10
59.277262
 20
100.248210
 30
0.0
 10
59.222140
 20
100.271177
 30
0.0
  0
SPLINE
  5
15d
100
AcDbEntity
  8
Layer_1
 62
7
100
AcDbSpline
 70
8
 71
3
 72
8
 73
4
 74
0
 40
0
 40
0
 40
0
 40
0
 40
1
 40
1
 40
1
 40
1
 10
59.222140
 20
100.271177
 30
0.0
 10
59.169316
 20
100.294145
 30
0.0
 10
59.123381
 20
100.325150
 30
0.0
 10
59.084337
 20
100.364195
 30
0.0
  0
SPLINE
  5
15e
100
AcDbEntity
  8
Layer_1
 62
7
100
AcDbSpline
 70
8
 71
3
 72
8
 73
4
 74
0
 40
0
 40
0
 40
0
 40
0
 40
1
 40
1
 40
1
 40
1
 10
59.084337
 20
100.364195
 30
0.0
 10
59.045292
 20
100.403239
 30
0.0
 10
59.014286
 20
100.449174
 30
0.0
 10
58.991319
 20
100.501999
 30
0.0
  0
SPLINE
  5
15f
100
AcDbEntity
  8
Layer_1
 62
7
100
AcDbSpline
 70
8
 71
3
 72
8
 73
4
 74
0
 40
0
 40
0
 40
0
 40
0
 40
1
 40
1
 40
1
 40
1
 10
58.991319
 20
100.501999
 30
0.0
 10
58.968352
 20
100.557120
 30
0.0
 10
58.956868
 20
100.615687
 30
0.0
 10
58.956868
 20
100.677698
 30
0.0
  0
LINE
  5
160
100
AcDbEntity
  8
Layer_1
 62
7
100
AcDbLine
 10
58.956868
 20
100.677698
 30
0.0
 11
58.956868
 21
102.441587
 31
0.0
  0
SPLINE
  5
161
100
AcDbEntity
  8
Layer_1
 62
7
100
AcDbSpline
 70
8
 71
3
 72
8
 73
4
 74
0
 40
0
 40
0
 40
0
 40
0
 40
1
 40
1
 40
1
 40
1
 10
58.956868
 20
102.441587
 30
0.0
 10
58.956868
 20
102.501302
 30
0.0
 10
58.968352
 20
102.557572
 30
0.0
 10
58.991319
 20
102.610397
 30
0.0
  0
SPLINE
  5
162
100
AcDbEntity
  8
Layer_1
 62
7
100
AcDbSpline
 70
8
 71
3
 72
8
 73
4
 74
0
 40
0
 40
0
 40
0
 40
0
 40
1
 40
1
 40
1
 40
1
 10
58.991319
 20
102.610397
 30
0.0
 10
59.016583
 20
102.663222
 30
0.0
 10
59.048738
 20
102.709157
 30
0.0
 10
59.087782
 20
102.748201
 30
0.0
  0
SPLINE
  5
163
100
AcDbEntity
  8
Layer_1
 62
7
100
AcDbSpline
 70
8
 71
3
 72
8
 73
4
 74
0
 40
0
 40
0
 40
0
 40
0
 40
1
 40
1
 40
1
 40
1
 10
59.087782
 20
102.748201
 30
0.0
 10
59.129122
 20
102.789542
 30
0.0
 10
59.176206
 20
102.821696
 30
0.0
 10
59.229032
 20
102.844664
 30
0.0
  0
SPLINE
  5
164
100
AcDbEntity
  8
Layer_1
 62
7
100
AcDbSpline
 70
8
 71
3
 72
8
 73
4
 74
0
 40
0
 40
0
 40
0
 40
0
 40
1
 40
1
 40
1
 40
1
 10
59.229032
 20
102.844664
 30
0.0
 10
59.281856
 20
102.869927
 30
0.0
 10
59.338126
 20
102.882559
 30
0.0
 10
59.397840
 20
102.882559
 30
0.0
  0
LINE
  5
165
100
AcDbEntity
  8
Layer_1
 62
7
100
AcDbLine
 10
59.397840
 20
102.882559
 30
0.0
 11
62.264160
 21
102.882559
 31
0.0
  0
SPLINE
  5
166
100
AcDbEntity
  8
Layer_1
 62
7
100
AcDbSpline
 70
8
 71
3
 72
8
 73
4
 74
0
 40
0
 40
0
 40
0
 40
0
 40
1
 40
1
 40
1
 40
1
 10
62.264160
 20
102.882559
 30
0.0
 10
62.328469
 20
102.882559
 30
0.0
 10
62.381293
 20
102.904378
 30
0.0
 10
62.422633
 20
102.948016
 30
0.0
  0
SPLINE
  5
167
100
AcDbEntity
  8
Layer_1
 62
7
100
AcDbSpline
 70
8
 71
3
 72
8
 73
4
 74
0
 40
0
 40
0
 40
0
 40
0
 40
1
 40
1
 40
1
 40
1
 10
62.422633
 20
102.948016
 30
0.0
 10
62.463975
 20
102.991654
 30
0.0
 10
62.484646
 20
103.043331
 30
0.0
 10
62.484646
 20
103.103046
 30
0.0
  0
LINE
  5
168
100
AcDbEntity
  8
Layer_1
 62
7
100
AcDbLine
 10
62.484646
 20
103.103046
 30
0.0
 11
62.484646
 21
103.544018
 31
0.0
  0
SPLINE
  5
169
100
AcDbEntity
  8
Layer_1
 62
7
100
AcDbSpline
 70
8
 71
3
 72
8
 73
4
 74
0
 40
0
 40
0
 40
0
 40
0
 40
1
 40
1
 40
1
 40
1
 10
62.484646
 20
103.544018
 30
0.0
 10
62.484646
 20
103.603733
 30
0.0
 10
62.462827
 20
103.655409
 30
0.0
 10
62.419190
 20
103.699047
 30
0.0
  0
SPLINE
  5
16a
100
AcDbEntity
  8
Layer_1
 62
7
100
AcDbSpline
 70
8
 71
3
 72
8
 73
4
 74
0
 40
0
 40
0
 40
0
 40
0
 40
1
 40
1
 40
1
 40
1
 10
62.419190
 20
103.699047
 30
0.0
 10
62.375551
 20
103.742685
 30
0.0
 10
62.323874
 20
103.764504
 30
0.0
 10
62.264160
 20
103.764504
 30
0.0
  0
LINE
  5
16b
100
AcDbEntity
  8
Layer_1
 62
7
100
AcDbLine
 10
62.264160
 20
103.764504
 30
0.0
 11
58.295410
 21
103.764504
 31
0.0
  0
SPLINE
  5
16c
100
AcDbEntity
  8
Layer_1
 62
7
100
AcDbSpline
 70
8
 71
3
 72
8
 73
4
 74
0
 40
0
 40
0
 40
0
 40
0
 40
1
 40
1
 40
1
 40
1
 10
58.295410
 20
103.764504
 30
0.0
 10
58.231101
 20
103.764504
 30
0.0
 10
58.178276
 20
103.785175
 30
0.0
 10
58.136936
 20
103.826516
 30
0.0
  0
SPLINE
  5
16d
100
AcDbEntity
  8
Layer_1
 62
7
100
AcDbSpline
 70
8
 71
3
 72
8
 73
4
 74
0
 40
0
 40
0
 40
0
 40
0
 40
1
 40
1
 40
1
 40
1
 10
58.136936
 20
103.826516
 30
0.0
 10
58.095595
 20
103.867857
 30
0.0
 10
58.074924
 20
103.920682
 30
0.0
 10
58.074924
 20
103.984990
 30
0.0
  0
LINE
  5
16e
100
AcDbEntity
  8
Layer_1
 62
7
100
AcDbLine
 10
58.074924
 20
103.984990
 30
0.0
 11
58.074924
 21
104.425962
 31
0.0
  0
SPLINE
  5
16f
100
AcDbEntity
  8
Layer_1
 62
7
100
AcDbSpline
 70
8
 71
3
 72
8
 73
4
 74
0
 40
0
 40
0
 40
0
 40
0
 40
1
 40
1
 40
1
 40
1
 10
58.074924
 20
104.425962
 30
0.0
 10
58.074924
 20
104.490271
 30
0.0
 10
58.096742
 20
104.543096
 30
0.0
 10
58.140379
 20
104.584437
 30
0.0
  0
SPLINE
  5
170
100
AcDbEntity
  8
Layer_1
 62
7
100
AcDbSpline
 70
8
 71
3
 72
8
 73
4
 74
0
 40
0
 40
0
 40
0
 40
0
 40
1
 40
1
 40
1
 40
1
 10
58.140379
 20
104.584437
 30
0.0
 10
58.184018
 20
104.625778
 30
0.0
 10
58.235695
 20
104.646448
 30
0.0
 10
58.295410
 20
104.646448
 30
0.0
  0
LINE
  5
171
100
AcDbEntity
  8
Layer_1
 62
7
100
AcDbLine
 10
58.295410
 20
104.646448
 30
0.0
 11
62.925618
 21
104.646448
 31
0.0
  0
SPLINE
  5
172
100
AcDbEntity
  8
Layer_1
 62
7
100
AcDbSpline
 70
8
 71
3
 72
8
 73
4
 74
0
 40
0
 40
0
 40
0
 40
0
 40
1
 40
1
 40
1
 40
1
 10
62.925618
 20
104.646448
 30
0.0
 10
62.985333
 20
104.646448
 30
0.0
 10
63.041603
 20
104.633816
 30
0.0
 10
63.094429
 20
104.608552
 30
0.0
  0
SPLINE
  5
173
100
AcDbEntity
  8
Layer_1
 62
7
100
AcDbSpline
 70
8
 71
3
 72
8
 73
4
 74
0
 40
0
 40
0
 40
0
 40
0
 40
1
 40
1
 40
1
 40
1
 10
63.094429
 20
104.608552
 30
0.0
 10
63.147254
 20
104.585585
 30
0.0
 10
63.193188
 20
104.553431
 30
0.0
 10
63.232233
 20
104.512090
 30
0.0
  0
SPLINE
  5
174
100
AcDbEntity
  8
Layer_1
 62
7
100
AcDbSpline
 70
8
 71
3
 72
8
 73
4
 74
0
 40
0
 40
0
 40
0
 40
0
 40
1
 40
1
 40
1
 40
1
 10
63.232233
 20
104.512090
 30
0.0
 10
63.273573
 20
104.473045
 30
0.0
 10
63.305726
 20
104.427111
 30
0.0
 10
63.328693
 20
104.374286
 30
0.0
  0
SPLINE
  5
175
100
AcDbEntity
  8
Layer_1
 62
7
100
AcDbSpline
 70
8
 71
3
 72
8
 73
4
 74
0
 40
0
 40
0
 40
0
 40
0
 40
1
 40
1
 40
1
 40
1
 10
63.328693
 20
104.374286
 30
0.0
 10
63.353958
 20
104.321461
 30
0.0
 10
63.366590
 20
104.265191
 30
0.0
 10
63.366590
 20
104.205476
 30
0.0
  0
LINE
  5
176
100
AcDbEntity
  8
Layer_1
 62
7
100
AcDbLine
 10
63.366590
 20
104.205476
 30
0.0
 11
63.366590
 21
102.441587
 31
0.0
  0
SPLINE
  5
177
100
AcDbEntity
  8
Layer_1
 62
7
100
AcDbSpline
 70
8
 71
3
 72
8
 73
4
 74
0
 40
0
 40
0
 40
0
 40
0
 40
1
 40
1
 40
1
 40
1
 10
63.366590
 20
102.441587
 30
0.0
 10
63.366590
 20
102.381872
 30
0.0
 10
63.353958
 20
102.325603
 30
0.0
 10
63.328693
 20
102.272778
 30
0.0
  0
SPLINE
  5
178
100
AcDbEntity
  8
Layer_1
 62
7
100
AcDbSpline
 70
8
 71
3
 72
8
 73
4
 74
0
 40
0
 40
0
 40
0
 40
0
 40
1
 40
1
 40
1
 40
1
 10
63.328693
 20
102.272778
 30
0.0
 10
63.305726
 20
102.219953
 30
0.0
 10
63.273573
 20
102.172870
 30
0.0
 10
63.232233
 20
102.131529
 30
0.0
  0
SPLINE
  5
179
100
AcDbEntity
  8
Layer_1
 62
7
100
AcDbSpline
 70
8
 71
3
 72
8
 73
4
 74
0
 40
0
 40
0
 40
0
 40
0
 40
1
 40
1
 40
1
 40
1
 10
63.232233
 20
102.131529
 30
0.0
 10
63.193188
 20
102.092484
 30
0.0
 10
63.147254
 20
102.060330
 30
0.0
 10
63.094429
 20
102.035066
 30
0.0
  0
SPLINE
  5
17a
100
AcDbEntity
  8
Layer_1
 62
7
100
AcDbSpline
 70
8
 71
3
 72
8
 73
4
 74
0
 40
0
 40
0
 40
0
 40
0
 40
1
 40
1
 40
1
 40
1
 10
63.094429
 20
102.035066
 30
0.0
 10
63.041603
 20
102.012099
 30
0.0
 10
62.985333
 20
102.000615
 30
0.0
 10
62.925618
 20
102.000615
 30
0.0
  0
LINE
  5
17b
100
AcDbEntity
  8
Layer_1
 62
7
100
AcDbLine
 10
62.925618
 20
102.000615
 30
0.0
 11
60.059299
 21
102.000615
 31
0.0
  0
SPLINE
  5
17c
100
AcDbEntity
  8
Layer_1
 62
7
100
AcDbSpline
 70
8
 71
3
 72
8
 73
4
 74
0
 40
0
 40
0
 40
0
 40
0
 40
1
 40
1
 40
1
 40
1
 10
60.059299
 20
102.000615
 30
0.0
 10
59.999584
 20
102.000615
 30
0.0
 10
59.947907
 20
101.979945
 30
0.0
 10
59.904268
 20
101.938603
 30
0.0
  0
SPLINE
  5
17d
100
AcDbEntity
  8
Layer_1
 62
7
100
AcDbSpline
 70
8
 71
3
 72
8
 73
4
 74
0
 40
0
 40
0
 40
0
 40
0
 40
1
 40
1
 40
1
 40
1
 10
59.904268
 20
101.938603
 30
0.0
 10
59.860631
 20
101.897262
 30
0.0
 10
59.838813
 20
101.844437
 30
0.0
 10
59.838813
 20
101.780129
 30
0.0
  0
LINE
  5
17e
100
AcDbEntity
  8
Layer_1
 62
7
100
AcDbLine
 10
59.838813
 20
101.780129
 30
0.0
 11
59.838813
 21
101.339157
 31
0.0
  0
SPLINE
  5
17f
100
AcDbEntity
  8
Layer_1
 62
7
100
AcDbSpline
 70
8
 71
3
 72
8
 73
4
 74
0
 40
0
 40
0
 40
0
 40
0
 40
1
 40
1
 40
1
 40
1
 10
59.838813
 20
101.339157
 30
0.0
 10
59.838813
 20
101.274848
 30
0.0
 10
59.859483
 20
101.222023
 30
0.0
 10
59.900825
 20
101.180682
 30
0.0
  0
SPLINE
  5
180
100
AcDbEntity
  8
Layer_1
 62
7
100
AcDbSpline
 70
8
 71
3
 72
8
 73
4
 74
0
 40
0
 40
0
 40
0
 40
0
 40
1
 40
1
 40
1
 40
1
 10
59.900825
 20
101.180682
 30
0.0
 10
59.942165
 20
101.139341
 30
0.0
 10
59.994990
 20
101.118671
 30
0.0
 10
60.059299
 20
101.118671
 30
0.0
  0
LINE
  5
181
100
AcDbEntity
  8
Layer_1
 62
7
100
AcDbLine
 10
60.059299
 20
101.118671
 30
0.0
 11
62.925618
 21
101.118671
 31
0.0
  0
SPLINE
  5
182
100
AcDbEntity
  8
Layer_1
 62
7
100
AcDbSpline
 70
8
 71
3
 72
8
 73
4
 74
0
 40
0
 40
0
 40
0
 40
0
 40
1
 40
1
 40
1
 40
1
 10
62.925618
 20
101.118671
 30
0.0
 10
62.985333
 20
101.118671
 30
0.0
 10
63.041603
 20
101.106039
 30
0.0
 10
63.094429
 20
101.080775
 30
0.0
  0
SPLINE
  5
183
100
AcDbEntity
  8
Layer_1
 62
7
100
AcDbSpline
 70
8
 71
3
 72
8
 73
4
 74
0
 40
0
 40
0
 40
0
 40
0
 40
1
 40
1
 40
1
 40
1
 10
63.094429
 20
101.080775
 30
0.0
 10
63.147254
 20
101.057807
 30
0.0
 10
63.193188
 20
101.025653
 30
0.0
 10
63.232233
 20
100.984312
 30
0.0
  0
SPLINE
  5
184
100
AcDbEntity
  8
Layer_1
 62
7
100
AcDbSpline
 70
8
 71
3
 72
8
 73
4
 74
0
 40
0
 40
0
 40
0
 40
0
 40
1
 40
1
 40
1
 40
1
 10
63.232233
 20
100.984312
 30
0.0
 10
63.273573
 20
100.945268
 30
0.0
 10
63.305726
 20
100.899333
 30
0.0
 10
63.328693
 20
100.846508
 30
0.0
  0
SPLINE
  5
185
100
AcDbEntity
  8
Layer_1
 62
7
100
AcDbSpline
 70
8
 71
3
 72
8
 73
4
 74
0
 40
0
 40
0
 40
0
 40
0
 40
1
 40
1
 40
1
 40
1
 10
63.328693
 20
100.846508
 30
0.0
 10
63.353958
 20
100.793683
 30
0.0
 10
63.366590
 20
100.737413
 30
0.0
 10
63.366590
 20
100.677698
 30
0.0
  0
LINE
  5
186
100
AcDbEntity
  8
Layer_1
 62
7
100
AcDbLine
 10
63.366590
 20
100.677698
 30
0.0
 11
63.366590
 21
98.913809
 31
0.0
  0
SPLINE
  5
187
100
AcDbEntity
  8
Layer_1
 62
7
100
AcDbSpline
 70
8
 71
3
 72
8
 73
4
 74
0
 40
0
 40
0
 40
0
 40
0
 40
1
 40
1
 40
1
 40
1
 10
63.366590
 20
98.913809
 30
0.0
 10
63.366590
 20
98.854095
 30
0.0
 10
63.353958
 20
98.797825
 30
0.0
 10
63.328693
 20
98.745000
 30
0.0
  0
SPLINE
  5
188
100
AcDbEntity
  8
Layer_1
 62
7
100
AcDbSpline
 70
8
 71
3
 72
8
 73
4
 74
0
 40
0
 40
0
 40
0
 40
0
 40
1
 40
1
 40
1
 40
1
 10
63.328693
 20
98.745000
 30
0.0
 10
63.305726
 20
98.692175
 30
0.0
 10
63.273573
 20
98.645092
 30
0.0
 10
63.232233
 20
98.603751
 30
0.0
  0
SPLINE
  5
189
100
AcDbEntity
  8
Layer_1
 62
7
100
AcDbSpline
 70
8
 71
3
 72
8
 73
4
 74
0
 40
0
 40
0
 40
0
 40
0
 40
1
 40
1
 40
1
 40
1
 10
63.232233
 20
98.603751
 30
0.0
 10
63.193188
 20
98.564707
 30
0.0
 10
63.147254
 20
98.532552
 30
0.0
 10
63.094429
 20
98.507288
 30
0.0
  0
SPLINE
  5
18a
100
AcDbEntity
  8
Layer_1
 62
7
100
AcDbSpline
 70
8
 71
3
 72
8
 73
4
 74
0
 40
0
 40
0
 40
0
 40
0
 40
1
 40
1
 40
1
 40
1
 10
63.094429
 20
98.507288
 30
0.0
 10
63.041603
 20
98.484321
 30
0.0
 10
62.985333
 20
98.472837
 30
0.0
 10
62.925618
 20
98.472837
 30
0.0
  0
LINE
  5
18b
100
AcDbEntity
  8
Layer_1
 62
7
100
AcDbLine
 10
62.925618
 20
98.472837
 30
0.0
 11
58.295410
 21
98.472837
 31
0.0
  0
LINE
  5
18c
100
AcDbEntity
  8
Layer_1
 62
7
100
AcDbLine
 10
58.295410
 20
98.472837
 30
0.0
 11
58.295410
 21
98.472837
 31
0.0
  0
SPLINE
  5
18d
100
AcDbEntity
  8
Layer_1
 62
7
100
AcDbSpline
 70
8
 71
3
 72
8
 73
4
 74
0
 40
0
 40
0
 40
0
 40
0
 40
1
 40
1
 40
1
 40
1
 10
75.795654
 20
98.472837
 30
0.0
 10
75.733642
 20
98.472837
 30
0.0
 10
75.675077
 20
98.484321
 30
0.0
 10
75.619957
 20
98.507288
 30
0.0
  0
SPLINE
  5
18e
100
AcDbEntity
  8
Layer_1
 62
7
100
AcDbSpline
 70
8
 71
3
 72
8
 73
4
 74
0
 40
0
 40
0
 40
0
 40
0
 40
1
 40
1
 40
1
 40
1
 10
75.619957
 20
98.507288
 30
0.0
 10
75.567130
 20
98.530256
 30
0.0
 10
75.521195
 20
98.561262
 30
0.0
 10
75.482150
 20
98.600306
 30
0.0
  0
SPLINE
  5
18f
100
AcDbEntity
  8
Layer_1
 62
7
100
AcDbSpline
 70
8
 71
3
 72
8
 73
4
 74
0
 40
0
 40
0
 40
0
 40
0
 40
1
 40
1
 40
1
 40
1
 10
75.482150
 20
98.600306
 30
0.0
 10
75.443106
 20
98.639350
 30
0.0
 10
75.412100
 20
98.685285
 30
0.0
 10
75.389133
 20
98.738110
 30
0.0
  0
SPLINE
  5
190
100
AcDbEntity
  8
Layer_1
 62
7
100
AcDbSpline
 70
8
 71
3
 72
8
 73
4
 74
0
 40
0
 40
0
 40
0
 40
0
 40
1
 40
1
 40
1
 40
1
 10
75.389133
 20
98.738110
 30
0.0
 10
75.366166
 20
98.793231
 30
0.0
 10
75.354682
 20
98.851798
 30
0.0
 10
75.354682
 20
98.913809
 30
0.0
  0
LINE
  5
191
100
AcDbEntity
  8
Layer_1
 62
7
100
AcDbLine
 10
75.354682
 20
98.913809
 30
0.0
 11
75.354682
 21
104.425962
 31
0.0
  0
SPLINE
  5
192
100
AcDbEntity
  8
Layer_1
 62
7
100
AcDbSpline
 70
8
 71
3
 72
8
 73
4
 74
0
 40
0
 40
0
 40
0
 40
0
 40
1
 40
1
 40
1
 40
1
 10
75.354682
 20
104.425962
 30
0.0
 10
75.354682
 20
104.490271
 30
0.0
 10
75.376501
 20
104.543096
 30
0.0
 10
75.420141
 20
104.584437
 30
0.0
  0
SPLINE
  5
193
100
AcDbEntity
  8
Layer_1
 62
7
100
AcDbSpline
 70
8
 71
3
 72
8
 73
4
 74
0
 40
0
 40
0
 40
0
 40
0
 40
1
 40
1
 40
1
 40
1
 10
75.420141
 20
104.584437
 30
0.0
 10
75.463778
 20
104.625778
 30
0.0
 10
75.515454
 20
104.646448
 30
0.0
 10
75.575168
 20
104.646448
 30
0.0
  0
LINE
  5
194
100
AcDbEntity
  8
Layer_1
 62
7
100
AcDbLine
 10
75.575168
 20
104.646448
 30
0.0
 11
76.016140
 21
104.646448
 31
0.0
  0
SPLINE
  5
195
100
AcDbEntity
  8
Layer_1
 62
7
100
AcDbSpline
 70
8
 71
3
 72
8
 73
4
 74
0
 40
0
 40
0
 40
0
 40
0
 40
1
 40
1
 40
1
 40
1
 10
76.016140
 20
104.646448
 30
0.0
 10
76.075857
 20
104.646448
 30
0.0
 10
76.127533
 20
104.624629
 30
0.0
 10
76.171171
 20
104.580992
 30
0.0
  0
SPLINE
  5
196
100
AcDbEntity
  8
Layer_1
 62
7
100
AcDbSpline
 70
8
 71
3
 72
8
 73
4
 74
0
 40
0
 40
0
 40
0
 40
0
 40
1
 40
1
 40
1
 40
1
 10
76.171171
 20
104.580992
 30
0.0
 10
76.214808
 20
104.537354
 30
0.0
 10
76.236626
 20
104.485677
 30
0.0
 10
76.236626
 20
104.425962
 30
0.0
  0
LINE
  5
197
100
AcDbEntity
  8
Layer_1
 62
7
100
AcDbLine
 10
76.236626
 20
104.425962
 30
0.0
 11
76.236626
 21
102.221101
 31
0.0
  0
SPLINE
  5
198
100
AcDbEntity
  8
Layer_1
 62
7
100
AcDbSpline
 70
8
 71
3
 72
8
 73
4
 74
0
 40
0
 40
0
 40
0
 40
0
 40
1
 40
1
 40
1
 40
1
 10
76.236626
 20
102.221101
 30
0.0
 10
76.236626
 20
102.156793
 30
0.0
 10
76.257297
 20
102.103968
 30
0.0
 10
76.298639
 20
102.062627
 30
0.0
  0
SPLINE
  5
199
100
AcDbEntity
  8
Layer_1
 62
7
100
AcDbSpline
 70
8
 71
3
 72
8
 73
4
 74
0
 40
0
 40
0
 40
0
 40
0
 40
1
 40
1
 40
1
 40
1
 10
76.298639
 20
102.062627
 30
0.0
 10
76.339981
 20
102.021286
 30
0.0
 10
76.392805
 20
102.000615
 30
0.0
 10
76.457112
 20
102.000615
 30
0.0
  0
LINE
  5
19a
100
AcDbEntity
  8
Layer_1
 62
7
100
AcDbLine
 10
76.457112
 20
102.000615
 30
0.0
 11
77.339057
 21
102.000615
 31
0.0
  0
SPLINE
  5
19b
100
AcDbEntity
  8
Layer_1
 62
7
100
AcDbSpline
 70
8
 71
3
 72
8
 73
4
 74
0
 40
0
 40
0
 40
0
 40
0
 40
1
 40
1
 40
1
 40
1
 10
77.339057
 20
102.000615
 30
0.0
 10
77.403366
 20
102.000615
 30
0.0
 10
77.456191
 20
102.022434
 30
0.0
 10
77.497533
 20
102.066072
 30
0.0
  0
SPLINE
  5
19c
100
AcDbEntity
  8
Layer_1
 62
7
100
AcDbSpline
 70
8
 71
3
 72
8
 73
4
 74
0
 40
0
 40
0
 40
0
 40
0
 40
1
 40
1
 40
1
 40
1
 10
77.497533
 20
102.066072
 30
0.0
 10
77.538873
 20
102.109710
 30
0.0
 10
77.559543
 20
102.161386
 30
0.0
 10
77.559543
 20
102.221101
 30
0.0
  0
LINE
  5
19d
100
AcDbEntity
  8
Layer_1
 62
7
100
AcDbLine
 10
77.559543
 20
102.221101
 30
0.0
 11
77.559543
 21
104.425962
 31
0.0
  0
SPLINE
  5
19e
100
AcDbEntity
  8
Layer_1
 62
7
100
AcDbSpline
 70
8
 71
3
 72
8
 73
4
 74
0
 40
0
 40
0
 40
0
 40
0
 40
1
 40
1
 40
1
 40
1
 10
77.559543
 20
104.425962
 30
0.0
 10
77.559543
 20
104.490271
 30
0.0
 10
77.581363
 20
104.543096
 30
0.0
 10
77.625002
 20
104.584437
 30
0.0
  0
SPLINE
  5
19f
100
AcDbEntity
  8
Layer_1
 62
7
100
AcDbSpline
 70
8
 71
3
 72
8
 73
4
 74
0
 40
0
 40
0
 40
0
 40
0
 40
1
 40
1
 40
1
 40
1
 10
77.625002
 20
104.584437
 30
0.0
 10
77.668639
 20
104.625778
 30
0.0
 10
77.720315
 20
104.646448
 30
0.0
 10
77.780029
 20
104.646448
 30
0.0
  0
LINE
  5
1a0
100
AcDbEntity
  8
Layer_1
 62
7
100
AcDbLine
 10
77.780029
 20
104.646448
 30
0.0
 11
78.221001
 21
104.646448
 31
0.0
  0
SPLINE
  5
1a1
100
AcDbEntity
  8
Layer_1
 62
7
100
AcDbSpline
 70
8
 71
3
 72
8
 73
4
 74
0
 40
0
 40
0
 40
0
 40
0
 40
1
 40
1
 40
1
 40
1
 10
78.221001
 20
104.646448
 30
0.0
 10
78.280718
 20
104.646448
 30
0.0
 10
78.332394
 20
104.624629
 30
0.0
 10
78.376032
 20
104.580992
 30
0.0
  0
SPLINE
  5
1a2
100
AcDbEntity
  8
Layer_1
 62
7
100
AcDbSpline
 70
8
 71
3
 72
8
 73
4
 74
0
 40
0
 40
0
 40
0
 40
0
 40
1
 40
1
 40
1
 40
1
 10
78.376032
 20
104.580992
 30
0.0
 10
78.419669
 20
104.537354
 30
0.0
 10
78.441487
 20
104.485677
 30
0.0
 10
78.441487
 20
104.425962
 30
0.0
  0
LINE
  5
1a3
100
AcDbEntity
  8
Layer_1
 62
7
100
AcDbLine
 10
78.441487
 20
104.425962
 30
0.0
 11
78.441487
 21
102.221101
 31
0.0
  0
SPLINE
  5
1a4
100
AcDbEntity
  8
Layer_1
 62
7
100
AcDbSpline
 70
8
 71
3
 72
8
 73
4
 74
0
 40
0
 40
0
 40
0
 40
0
 40
1
 40
1
 40
1
 40
1
 10
78.441487
 20
102.221101
 30
0.0
 10
78.441487
 20
102.156793
 30
0.0
 10
78.462158
 20
102.103968
 30
0.0
 10
78.503500
 20
102.062627
 30
0.0
  0
SPLINE
  5
1a5
100
AcDbEntity
  8
Layer_1
 62
7
100
AcDbSpline
 70
8
 71
3
 72
8
 73
4
 74
0
 40
0
 40
0
 40
0
 40
0
 40
1
 40
1
 40
1
 40
1
 10
78.503500
 20
102.062627
 30
0.0
 10
78.544842
 20
102.021286
 30
0.0
 10
78.597666
 20
102.000615
 30
0.0
 10
78.661974
 20
102.000615
 30
0.0
  0
LINE
  5
1a6
100
AcDbEntity
  8
Layer_1
 62
7
100
AcDbLine
 10
78.661974
 20
102.000615
 30
0.0
 11
79.543918
 21
102.000615
 31
0.0
  0
SPLINE
  5
1a7
100
AcDbEntity
  8
Layer_1
 62
7
100
AcDbSpline
 70
8
 71
3
 72
8
 73
4
 74
0
 40
0
 40
0
 40
0
 40
0
 40
1
 40
1
 40
1
 40
1
 10
79.543918
 20
102.000615
 30
0.0
 10
79.608227
 20
102.000615
 30
0.0
 10
79.661052
 20
102.022434
 30
0.0
 10
79.702394
 20
102.066072
 30
0.0
  0
SPLINE
  5
1a8
100
AcDbEntity
  8
Layer_1
 62
7
100
AcDbSpline
 70
8
 71
3
 72
8
 73
4
 74
0
 40
0
 40
0
 40
0
 40
0
 40
1
 40
1
 40
1
 40
1
 10
79.702394
 20
102.066072
 30
0.0
 10
79.743734
 20
102.109710
 30
0.0
 10
79.764404
 20
102.161386
 30
0.0
 10
79.764404
 20
102.221101
 30
0.0
  0
LINE
  5
1a9
100
AcDbEntity
  8
Layer_1
 62
7
100
AcDbLine
 10
79.764404
 20
102.221101
 30
0.0
 11
79.764404
 21
104.425962
 31
0.0
  0
SPLINE
  5
1aa
100
AcDbEntity
  8
Layer_1
 62
7
100
AcDbSpline
 70
8
 71
3
 72
8
 73
4
 74
0
 40
0
 40
0
 40
0
 40
0
 40
1
 40
1
 40
1
 40
1
 10
79.764404
 20
104.425962
 30
0.0
 10
79.764404
 20
104.490271
 30
0.0
 10
79.786224
 20
104.543096
 30
0.0
 10
79.829863
 20
104.584437
 30
0.0
  0
SPLINE
  5
1ab
100
AcDbEntity
  8
Layer_1
 62
7
100
AcDbSpline
 70
8
 71
3
 72
8
 73
4
 74
0
 40
0
 40
0
 40
0
 40
0
 40
1
 40
1
 40
1
 40
1
 10
79.829863
 20
104.584437
 30
0.0
 10
79.873500
 20
104.625778
 30
0.0
 10
79.925176
 20
104.646448
 30
0.0
 10
79.984890
 20
104.646448
 30
0.0
  0
LINE
  5
1ac
100
AcDbEntity
  8
Layer_1
 62
7
100
AcDbLine
 10
79.984890
 20
104.646448
 30
0.0
 11
80.425862
 21
104.646448
 31
0.0
  0
SPLINE
  5
1ad
100
AcDbEntity
  8
Layer_1
 62
7
100
AcDbSpline
 70
8
 71
3
 72
8
 73
4
 74
0
 40
0
 40
0
 40
0
 40
0
 40
1
 40
1
 40
1
 40
1
 10
80.425862
 20
104.646448
 30
0.0
 10
80.485579
 20
104.646448
 30
0.0
 10
80.537256
 20
104.624629
 30
0.0
 10
80.580893
 20
104.580992
 30
0.0
  0
SPLINE
  5
1ae
100
AcDbEntity
  8
Layer_1
 62
7
100
AcDbSpline
 70
8
 71
3
 72
8
 73
4
 74
0
 40
0
 40
0
 40
0
 40
0
 40
1
 40
1
 40
1
 40
1
 10
80.580893
 20
104.580992
 30
0.0
 10
80.624530
 20
104.537354
 30
0.0
 10
80.646349
 20
104.485677
 30
0.0
 10
80.646349
 20
104.425962
 30
0.0
  0
LINE
  5
1af
100
AcDbEntity
  8
Layer_1
 62
7
100
AcDbLine
 10
80.646349
 20
104.425962
 30
0.0
 11
80.646349
 21
101.559643
 31
0.0
  0
SPLINE
  5
1b0
100
AcDbEntity
  8
Layer_1
 62
7
100
AcDbSpline
 70
8
 71
3
 72
8
 73
4
 74
0
 40
0
 40
0
 40
0
 40
0
 40
1
 40
1
 40
1
 40
1
 10
80.646349
 20
101.559643
 30
0.0
 10
80.646349
 20
101.499928
 30
0.0
 10
80.633717
 20
101.443658
 30
0.0
 10
80.608455
 20
101.390833
 30
0.0
  0
SPLINE
  5
1b1
100
AcDbEntity
  8
Layer_1
 62
7
100
AcDbSpline
 70
8
 71
3
 72
8
 73
4
 74
0
 40
0
 40
0
 40
0
 40
0
 40
1
 40
1
 40
1
 40
1
 10
80.608455
 20
101.390833
 30
0.0
 10
80.585487
 20
101.338008
 30
0.0
 10
80.553333
 20
101.290925
 30
0.0
 10
80.511991
 20
101.249584
 30
0.0
  0
SPLINE
  5
1b2
100
AcDbEntity
  8
Layer_1
 62
7
100
AcDbSpline
 70
8
 71
3
 72
8
 73
4
 74
0
 40
0
 40
0
 40
0
 40
0
 40
1
 40
1
 40
1
 40
1
 10
80.511991
 20
101.249584
 30
0.0
 10
80.472947
 20
101.210540
 30
0.0
 10
80.427012
 20
101.178386
 30
0.0
 10
80.374188
 20
101.153122
 30
0.0
  0
SPLINE
  5
1b3
100
AcDbEntity
  8
Layer_1
 62
7
100
AcDbSpline
 70
8
 71
3
 72
8
 73
4
 74
0
 40
0
 40
0
 40
0
 40
0
 40
1
 40
1
 40
1
 40
1
 10
80.374188
 20
101.153122
 30
0.0
 10
80.321363
 20
101.130154
 30
0.0
 10
80.265093
 20
101.118671
 30
0.0
 10
80.205376
 20
101.118671
 30
0.0
  0
LINE
  5
1b4
100
AcDbEntity
  8
Layer_1
 62
7
100
AcDbLine
 10
80.205376
 20
101.118671
 30
0.0
 11
76.457112
 21
101.118671
 31
0.0
  0
SPLINE
  5
1b5
100
AcDbEntity
  8
Layer_1
 62
7
100
AcDbSpline
 70
8
 71
3
 72
8
 73
4
 74
0
 40
0
 40
0
 40
0
 40
0
 40
1
 40
1
 40
1
 40
1
 10
76.457112
 20
101.118671
 30
0.0
 10
76.397398
 20
101.118671
 30
0.0
 10
76.345722
 20
101.098000
 30
0.0
 10
76.302085
 20
101.056659
 30
0.0
  0
SPLINE
  5
1b6
100
AcDbEntity
  8
Layer_1
 62
7
100
AcDbSpline
 70
8
 71
3
 72
8
 73
4
 74
0
 40
0
 40
0
 40
0
 40
0
 40
1
 40
1
 40
1
 40
1
 10
76.302085
 20
101.056659
 30
0.0
 10
76.258446
 20
101.015318
 30
0.0
 10
76.236626
 20
100.962493
 30
0.0
 10
76.236626
 20
100.898184
 30
0.0
  0
LINE
  5
1b7
100
AcDbEntity
  8
Layer_1
 62
7
100
AcDbLine
 10
76.236626
 20
100.898184
 30
0.0
 11
76.236626
 21
99.575268
 31
0.0
  0
SPLINE
  5
1b8
100
AcDbEntity
  8
Layer_1
 62
7
100
AcDbSpline
 70
8
 71
3
 72
8
 73
4
 74
0
 40
0
 40
0
 40
0
 40
0
 40
1
 40
1
 40
1
 40
1
 10
76.236626
 20
99.575268
 30
0.0
 10
76.236626
 20
99.510959
 30
0.0
 10
76.257297
 20
99.458135
 30
0.0
 10
76.298639
 20
99.416794
 30
0.0
  0
SPLINE
  5
1b9
100
AcDbEntity
  8
Layer_1
 62
7
100
AcDbSpline
 70
8
 71
3
 72
8
 73
4
 74
0
 40
0
 40
0
 40
0
 40
0
 40
1
 40
1
 40
1
 40
1
 10
76.298639
 20
99.416794
 30
0.0
 10
76.339981
 20
99.375452
 30
0.0
 10
76.392805
 20
99.354782
 30
0.0
 10
76.457112
 20
99.354782
 30
0.0
  0
LINE
  5
1ba
100
AcDbEntity
  8
Layer_1
 62
7
100
AcDbLine
 10
76.457112
 20
99.354782
 30
0.0
 11
80.425862
 21
99.354782
 31
0.0
  0
SPLINE
  5
1bb
100
AcDbEntity
  8
Layer_1
 62
7
100
AcDbSpline
 70
8
 71
3
 72
8
 73
4
 74
0
 40
0
 40
0
 40
0
 40
0
 40
1
 40
1
 40
1
 40
1
 10
80.425862
 20
99.354782
 30
0.0
 10
80.485579
 20
99.354782
 30
0.0
 10
80.537256
 20
99.332963
 30
0.0
 10
80.580893
 20
99.289325
 30
0.0
  0
SPLINE
  5
1bc
100
AcDbEntity
  8
Layer_1
 62
7
100
AcDbSpline
 70
8
 71
3
 72
8
 73
4
 74
0
 40
0
 40
0
 40
0
 40
0
 40
1
 40
1
 40
1
 40
1
 10
80.580893
 20
99.289325
 30
0.0
 10
80.624530
 20
99.245687
 30
0.0
 10
80.646349
 20
99.194011
 30
0.0
 10
80.646349
 20
99.134296
 30
0.0
  0
LINE
  5
1bd
100
AcDbEntity
  8
Layer_1
 62
7
100
AcDbLine
 10
80.646349
 20
99.134296
 30
0.0
 11
80.646349
 21
98.693323
 31
0.0
  0
SPLINE
  5
1be
100
AcDbEntity
  8
Layer_1
 62
7
100
AcDbSpline
 70
8
 71
3
 72
8
 73
4
 74
0
 40
0
 40
0
 40
0
 40
0
 40
1
 40
1
 40
1
 40
1
 10
80.646349
 20
98.693323
 30
0.0
 10
80.646349
 20
98.633609
 30
0.0
 10
80.625679
 20
98.581932
 30
0.0
 10
80.584339
 20
98.538294
 30
0.0
  0
SPLINE
  5
1bf
100
AcDbEntity
  8
Layer_1
 62
7
100
AcDbSpline
 70
8
 71
3
 72
8
 73
4
 74
0
 40
0
 40
0
 40
0
 40
0
 40
1
 40
1
 40
1
 40
1
 10
80.584339
 20
98.538294
 30
0.0
 10
80.542997
 20
98.494656
 30
0.0
 10
80.490171
 20
98.472837
 30
0.0
 10
80.425862
 20
98.472837
 30
0.0
  0
LINE
  5
1c0
100
AcDbEntity
  8
Layer_1
 62
7
100
AcDbLine
 10
80.425862
 20
98.472837
 30
0.0
 11
75.795654
 21
98.472837
 31
0.0
  0
LINE
  5
1c1
100
AcDbEntity
  8
Layer_1
 62
7
100
AcDbLine
 10
75.795654
 20
98.472837
 30
0.0
 11
75.795654
 21
98.472837
 31
0.0
  0
SPLINE
  5
1c2
100
AcDbEntity
  8
Layer_1
 62
7
100
AcDbSpline
 70
8
 71
3
 72
8
 73
4
 74
0
 40
0
 40
0
 40
0
 40
0
 40
1
 40
1
 40
1
 40
1
 10
94.618821
 20
99.354782
 30
0.0
 10
94.683130
 20
99.354782
 30
0.0
 10
94.735955
 20
99.376601
 30
0.0
 10
94.777297
 20
99.420239
 30
0.0
  0
SPLINE
  5
1c3
100
AcDbEntity
  8
Layer_1
 62
7
100
AcDbSpline
 70
8
 71
3
 72
8
 73
4
 74
0
 40
0
 40
0
 40
0
 40
0
 40
1
 40
1
 40
1
 40
1
 10
94.777297
 20
99.420239
 30
0.0
 10
94.818637
 20
99.463877
 30
0.0
 10
94.839307
 20
99.515553
 30
0.0
 10
94.839307
 20
99.575268
 30
0.0
  0
LINE
  5
1c4
100
AcDbEntity
  8
Layer_1
 62
7
100
AcDbLine
 10
94.839307
 20
99.575268
 30
0.0
 11
94.839307
 21
100.898184
 31
0.0
  0
SPLINE
  5
1c5
100
AcDbEntity
  8
Layer_1
 62
7
100
AcDbSpline
 70
8
 71
3
 72
8
 73
4
 74
0
 40
0
 40
0
 40
0
 40
0
 40
1
 40
1
 40
1
 40
1
 10
94.839307
 20
100.898184
 30
0.0
 10
94.839307
 20
100.957900
 30
0.0
 10
94.817488
 20
101.009576
 30
0.0
 10
94.773851
 20
101.053214
 30
0.0
  0
SPLINE
  5
1c6
100
AcDbEntity
  8
Layer_1
 62
7
100
AcDbSpline
 70
8
 71
3
 72
8
 73
4
 74
0
 40
0
 40
0
 40
0
 40
0
 40
1
 40
1
 40
1
 40
1
 10
94.773851
 20
101.053214
 30
0.0
 10
94.730214
 20
101.096852
 30
0.0
 10
94.678537
 20
101.118671
 30
0.0
 10
94.618821
 20
101.118671
 30
0.0
  0
LINE
  5
1c7
100
AcDbEntity
  8
Layer_1
 62
7
100
AcDbLine
 10
94.618821
 20
101.118671
 30
0.0
 11
93.736876
 21
101.118671
 31
0.0
  0
SPLINE
  5
1c8
100
AcDbEntity
  8
Layer_1
 62
7
100
AcDbSpline
 70
8
 71
3
 72
8
 73
4
 74
0
 40
0
 40
0
 40
0
 40
0
 40
1
 40
1
 40
1
 40
1
 10
93.736876
 20
101.118671
 30
0.0
 10
93.677162
 20
101.118671
 30
0.0
 10
93.625486
 20
101.098000
 30
0.0
 10
93.581849
 20
101.056659
 30
0.0
  0
SPLINE
  5
1c9
100
AcDbEntity
  8
Layer_1
 62
7
100
AcDbSpline
 70
8
 71
3
 72
8
 73
4
 74
0
 40
0
 40
0
 40
0
 40
0
 40
1
 40
1
 40
1
 40
1
 10
93.581849
 20
101.056659
 30
0.0
 10
93.538210
 20
101.015318
 30
0.0
 10
93.516390
 20
100.962493
 30
0.0
 10
93.516390
 20
100.898184
 30
0.0
  0
LINE
  5
1ca
100
AcDbEntity
  8
Layer_1
 62
7
100
AcDbLine
 10
93.516390
 20
100.898184
 30
0.0
 11
93.516390
 21
99.575268
 31
0.0
  0
SPLINE
  5
1cb
100
AcDbEntity
  8
Layer_1
 62
7
100
AcDbSpline
 70
8
 71
3
 72
8
 73
4
 74
0
 40
0
 40
0
 40
0
 40
0
 40
1
 40
1
 40
1
 40
1
 10
93.516390
 20
99.575268
 30
0.0
 10
93.516390
 20
99.510959
 30
0.0
 10
93.537061
 20
99.458135
 30
0.0
 10
93.578403
 20
99.416794
 30
0.0
  0
SPLINE
  5
1cc
100
AcDbEntity
  8
Layer_1
 62
7
100
AcDbSpline
 70
8
 71
3
 72
8
 73
4
 74
0
 40
0
 40
0
 40
0
 40
0
 40
1
 40
1
 40
1
 40
1
 10
93.578403
 20
99.416794
 30
0.0
 10
93.619745
 20
99.375452
 30
0.0
 10
93.672569
 20
99.354782
 30
0.0
 10
93.736876
 20
99.354782
 30
0.0
  0
LINE
  5
1cd
100
AcDbEntity
  8
Layer_1
 62
7
100
AcDbLine
 10
93.736876
 20
99.354782
 30
0.0
 11
94.618821
 21
99.354782
 31
0.0
  0
LINE
  5
1ce
100
AcDbEntity
  8
Layer_1
 62
7
100
AcDbLine
 10
94.618821
 20
99.354782
 30
0.0
 11
94.618821
 21
99.354782
 31
0.0
  0
SPLINE
  5
1cf
100
AcDbEntity
  8
Layer_1
 62
7
100
AcDbSpline
 70
8
 71
3
 72
8
 73
4
 74
0
 40
0
 40
0
 40
0
 40
0
 40
1
 40
1
 40
1
 40
1
 10
96.823682
 20
99.354782
 30
0.0
 10
96.887991
 20
99.354782
 30
0.0
 10
96.940816
 20
99.376601
 30
0.0
 10
96.982158
 20
99.420239
 30
0.0
  0
SPLINE
  5
1d0
100
AcDbEntity
  8
Layer_1
 62
7
100
AcDbSpline
 70
8
 71
3
 72
8
 73
4
 74
0
 40
0
 40
0
 40
0
 40
0
 40
1
 40
1
 40
1
 40
1
 10
96.982158
 20
99.420239
 30
0.0
 10
97.023498
 20
99.463877
 30
0.0
 10
97.044168
 20
99.515553
 30
0.0
 10
97.044168
 20
99.575268
 30
0.0
  0
LINE
  5
1d1
100
AcDbEntity
  8
Layer_1
 62
7
100
AcDbLine
 10
97.044168
 20
99.575268
 30
0.0
 11
97.044168
 21
100.898184
 31
0.0
  0
SPLINE
  5
1d2
100
AcDbEntity
  8
Layer_1
 62
7
100
AcDbSpline
 70
8
 71
3
 72
8
 73
4
 74
0
 40
0
 40
0
 40
0
 40
0
 40
1
 40
1
 40
1
 40
1
 10
97.044168
 20
100.898184
 30
0.0
 10
97.044168
 20
100.957900
 30
0.0
 10
97.022349
 20
101.009576
 30
0.0
 10
96.978712
 20
101.053214
 30
0.0
  0
SPLINE
  5
1d3
100
AcDbEntity
  8
Layer_1
 62
7
100
AcDbSpline
 70
8
 71
3
 72
8
 73
4
 74
0
 40
0
 40
0
 40
0
 40
0
 40
1
 40
1
 40
1
 40
1
 10
96.978712
 20
101.053214
 30
0.0
 10
96.935075
 20
101.096852
 30
0.0
 10
96.883398
 20
101.118671
 30
0.0
 10
96.823682
 20
101.118671
 30
0.0
  0
LINE
  5
1d4
100
AcDbEntity
  8
Layer_1
 62
7
100
AcDbLine
 10
96.823682
 20
101.118671
 30
0.0
 11
95.941738
 21
101.118671
 31
0.0
  0
SPLINE
  5
1d5
100
AcDbEntity
  8
Layer_1
 62
7
100
AcDbSpline
 70
8
 71
3
 72
8
 73
4
 74
0
 40
0
 40
0
 40
0
 40
0
 40
1
 40
1
 40
1
 40
1
 10
95.941738
 20
101.118671
 30
0.0
 10
95.882023
 20
101.118671
 30
0.0
 10
95.830347
 20
101.098000
 30
0.0
 10
95.786710
 20
101.056659
 30
0.0
  0
SPLINE
  5
1d6
100
AcDbEntity
  8
Layer_1
 62
7
100
AcDbSpline
 70
8
 71
3
 72
8
 73
4
 74
0
 40
0
 40
0
 40
0
 40
0
 40
1
 40
1
 40
1
 40
1
 10
95.786710
 20
101.056659
 30
0.0
 10
95.743071
 20
101.015318
 30
0.0
 10
95.721251
 20
100.962493
 30
0.0
 10
95.721251
 20
100.898184
 30
0.0
  0
LINE
  5
1d7
100
AcDbEntity
  8
Layer_1
 62
7
100
AcDbLine
 10
95.721251
 20
100.898184
 30
0.0
 11
95.721251
 21
99.575268
 31
0.0
  0
SPLINE
  5
1d8
100
AcDbEntity
  8
Layer_1
 62
7
100
AcDbSpline
 70
8
 71
3
 72
8
 73
4
 74
0
 40
0
 40
0
 40
0
 40
0
 40
1
 40
1
 40
1
 40
1
 10
95.721251
 20
99.575268
 30
0.0
 10
95.721251
 20
99.510959
 30
0.0
 10
95.741922
 20
99.458135
 30
0.0
 10
95.783264
 20
99.416794
 30
0.0
  0
SPLINE
  5
1d9
100
AcDbEntity
  8
Layer_1
 62
7
100
AcDbSpline
 70
8
 71
3
 72
8
 73
4
 74
0
 40
0
 40
0
 40
0
 40
0
 40
1
 40
1
 40
1
 40
1
 10
95.783264
 20
99.416794
 30
0.0
 10
95.824606
 20
99.375452
 30
0.0
 10
95.877430
 20
99.354782
 30
0.0
 10
95.941738
 20
99.354782
 30
0.0
  0
LINE
  5
1da
100
AcDbEntity
  8
Layer_1
 62
7
100
AcDbLine
 10
95.941738
 20
99.354782
 30
0.0
 11
96.823682
 21
99.354782
 31
0.0
  0
LINE
  5
1db
100
AcDbEntity
  8
Layer_1
 62
7
100
AcDbLine
 10
96.823682
 20
99.354782
 30
0.0
 11
96.823682
 21
99.354782
 31
0.0
  0
SPLINE
  5
1dc
100
AcDbEntity
  8
Layer_1
 62
7
100
AcDbSpline
 70
8
 71
3
 72
8
 73
4
 74
0
 40
0
 40
0
 40
0
 40
0
 40
1
 40
1
 40
1
 40
1
 10
94.618821
 20
102.000615
 30
0.0
 10
94.683130
 20
102.000615
 30
0.0
 10
94.735955
 20
102.022434
 30
0.0
 10
94.777297
 20
102.066072
 30
0.0
  0
SPLINE
  5
1dd
100
AcDbEntity
  8
Layer_1
 62
7
100
AcDbSpline
 70
8
 71
3
 72
8
 73
4
 74
0
 40
0
 40
0
 40
0
 40
0
 40
1
 40
1
 40
1
 40
1
 10
94.777297
 20
102.066072
 30
0.0
 10
94.818637
 20
102.109710
 30
0.0
 10
94.839307
 20
102.161386
 30
0.0
 10
94.839307
 20
102.221101
 30
0.0
  0
LINE
  5
1de
100
AcDbEntity
  8
Layer_1
 62
7
100
AcDbLine
 10
94.839307
 20
102.221101
 30
0.0
 11
94.839307
 21
103.544018
 31
0.0
  0
SPLINE
  5
1df
100
AcDbEntity
  8
Layer_1
 62
7
100
AcDbSpline
 70
8
 71
3
 72
8
 73
4
 74
0
 40
0
 40
0
 40
0
 40
0
 40
1
 40
1
 40
1
 40
1
 10
94.839307
 20
103.544018
 30
0.0
 10
94.839307
 20
103.603733
 30
0.0
 10
94.817488
 20
103.655409
 30
0.0
 10
94.773851
 20
103.699047
 30
0.0
  0
SPLINE
  5
1e0
100
AcDbEntity
  8
Layer_1
 62
7
100
AcDbSpline
 70
8
 71
3
 72
8
 73
4
 74
0
 40
0
 40
0
 40
0
 40
0
 40
1
 40
1
 40
1
 40
1
 10
94.773851
 20
103.699047
 30
0.0
 10
94.730214
 20
103.742685
 30
0.0
 10
94.678537
 20
103.764504
 30
0.0
 10
94.618821
 20
103.764504
 30
0.0
  0
LINE
  5
1e1
100
AcDbEntity
  8
Layer_1
 62
7
100
AcDbLine
 10
94.618821
 20
103.764504
 30
0.0
 11
93.736876
 21
103.764504
 31
0.0
  0
SPLINE
  5
1e2
100
AcDbEntity
  8
Layer_1
 62
7
100
AcDbSpline
 70
8
 71
3
 72
8
 73
4
 74
0
 40
0
 40
0
 40
0
 40
0
 40
1
 40
1
 40
1
 40
1
 10
93.736876
 20
103.764504
 30
0.0
 10
93.677162
 20
103.764504
 30
0.0
 10
93.625486
 20
103.743833
 30
0.0
 10
93.581849
 20
103.702492
 30
0.0
  0
SPLINE
  5
1e3
100
AcDbEntity
  8
Layer_1
 62
7
100
AcDbSpline
 70
8
 71
3
 72
8
 73
4
 74
0
 40
0
 40
0
 40
0
 40
0
 40
1
 40
1
 40
1
 40
1
 10
93.581849
 20
103.702492
 30
0.0
 10
93.538210
 20
103.661151
 30
0.0
 10
93.516390
 20
103.608326
 30
0.0
 10
93.516390
 20
103.544018
 30
0.0
  0
LINE
  5
1e4
100
AcDbEntity
  8
Layer_1
 62
7
100
AcDbLine
 10
93.516390
 20
103.544018
 30
0.0
 11
93.516390
 21
102.221101
 31
0.0
  0
SPLINE
  5
1e5
100
AcDbEntity
  8
Layer_1
 62
7
100
AcDbSpline
 70
8
 71
3
 72
8
 73
4
 74
0
 40
0
 40
0
 40
0
 40
0
 40
1
 40
1
 40
1
 40
1
 10
93.516390
 20
102.221101
 30
0.0
 10
93.516390
 20
102.156793
 30
0.0
 10
93.537061
 20
102.103968
 30
0.0
 10
93.578403
 20
102.062627
 30
0.0
  0
SPLINE
  5
1e6
100
AcDbEntity
  8
Layer_1
 62
7
100
AcDbSpline
 70
8
 71
3
 72
8
 73
4
 74
0
 40
0
 40
0
 40
0
 40
0
 40
1
 40
1
 40
1
 40
1
 10
93.578403
 20
102.062627
 30
0.0
 10
93.619745
 20
102.021286
 30
0.0
 10
93.672569
 20
102.000615
 30
0.0
 10
93.736876
 20
102.000615
 30
0.0
  0
LINE
  5
1e7
100
AcDbEntity
  8
Layer_1
 62
7
100
AcDbLine
 10
93.736876
 20
102.000615
 30
0.0
 11
94.618821
 21
102.000615
 31
0.0
  0
LINE
  5
1e8
100
AcDbEntity
  8
Layer_1
 62
7
100
AcDbLine
 10
94.618821
 20
102.000615
 30
0.0
 11
94.618821
 21
102.000615
 31
0.0
  0
SPLINE
  5
1e9
100
AcDbEntity
  8
Layer_1
 62
7
100
AcDbSpline
 70
8
 71
3
 72
8
 73
4
 74
0
 40
0
 40
0
 40
0
 40
0
 40
1
 40
1
 40
1
 40
1
 10
96.823682
 20
102.000615
 30
0.0
 10
96.887991
 20
102.000615
 30
0.0
 10
96.940816
 20
102.022434
 30
0.0
 10
96.982158
 20
102.066072
 30
0.0
  0
SPLINE
  5
1ea
100
AcDbEntity
  8
Layer_1
 62
7
100
AcDbSpline
 70
8
 71
3
 72
8
 73
4
 74
0
 40
0
 40
0
 40
0
 40
0
 40
1
 40
1
 40
1
 40
1
 10
96.982158
 20
102.066072
 30
0.0
 10
97.023498
 20
102.109710
 30
0.0
 10
97.044168
 20
102.161386
 30
0.0
 10
97.044168
 20
102.221101
 30
0.0
  0
LINE
  5
1eb
100
AcDbEntity
  8
Layer_1
 62
7
100
AcDbLine
 10
97.044168
 20
102.221101
 30
0.0
 11
97.044168
 21
103.544018
 31
0.0
  0
SPLINE
  5
1ec
100
AcDbEntity
  8
Layer_1
 62
7
100
AcDbSpline
 70
8
 71
3
 72
8
 73
4
 74
0
 40
0
 40
0
 40
0
 40
0
 40
1
 40
1
 40
1
 40
1
 10
97.044168
 20
103.544018
 30
0.0
 10
97.044168
 20
103.603733
 30
0.0
 10
97.022349
 20
103.655409
 30
0.0
 10
96.978712
 20
103.699047
 30
0.0
  0
SPLINE
  5
1ed
100
AcDbEntity
  8
Layer_1
 62
7
100
AcDbSpline
 70
8
 71
3
 72
8
 73
4
 74
0
 40
0
 40
0
 40
0
 40
0
 40
1
 40
1
 40
1
 40
1
 10
96.978712
 20
103.699047
 30
0.0
 10
96.935075
 20
103.742685
 30
0.0
 10
96.883398
 20
103.764504
 30
0.0
 10
96.823682
 20
103.764504
 30
0.0
  0
LINE
  5
1ee
100
AcDbEntity
  8
Layer_1
 62
7
100
AcDbLine
 10
96.823682
 20
103.764504
 30
0.0
 11
95.941738
 21
103.764504
 31
0.0
  0
SPLINE
  5
1ef
100
AcDbEntity
  8
Layer_1
 62
7
100
AcDbSpline
 70
8
 71
3
 72
8
 73
4
 74
0
 40
0
 40
0
 40
0
 40
0
 40
1
 40
1
 40
1
 40
1
 10
95.941738
 20
103.764504
 30
0.0
 10
95.882023
 20
103.764504
 30
0.0
 10
95.830347
 20
103.743833
 30
0.0
 10
95.786710
 20
103.702492
 30
0.0
  0
SPLINE
  5
1f0
100
AcDbEntity
  8
Layer_1
 62
7
100
AcDbSpline
 70
8
 71
3
 72
8
 73
4
 74
0
 40
0
 40
0
 40
0
 40
0
 40
1
 40
1
 40
1
 40
1
 10
95.786710
 20
103.702492
 30
0.0
 10
95.743071
 20
103.661151
 30
0.0
 10
95.721251
 20
103.608326
 30
0.0
 10
95.721251
 20
103.544018
 30
0.0
  0
LINE
  5
1f1
100
AcDbEntity
  8
Layer_1
 62
7
100
AcDbLine
 10
95.721251
 20
103.544018
 30
0.0
 11
95.721251
 21
102.221101
 31
0.0
  0
SPLINE
  5
1f2
100
AcDbEntity
  8
Layer_1
 62
7
100
AcDbSpline
 70
8
 71
3
 72
8
 73
4
 74
0
 40
0
 40
0
 40
0
 40
0
 40
1
 40
1
 40
1
 40
1
 10
95.721251
 20
102.221101
 30
0.0
 10
95.721251
 20
102.156793
 30
0.0
 10
95.741922
 20
102.103968
 30
0.0
 10
95.783264
 20
102.062627
 30
0.0
  0
SPLINE
  5
1f3
100
AcDbEntity
  8
Layer_1
 62
7
100
AcDbSpline
 70
8
 71
3
 72
8
 73
4
 74
0
 40
0
 40
0
 40
0
 40
0
 40
1
 40
1
 40
1
 40
1
 10
95.783264
 20
102.062627
 30
0.0
 10
95.824606
 20
102.021286
 30
0.0
 10
95.877430
 20
102.000615
 30
0.0
 10
95.941738
 20
102.000615
 30
0.0
  0
LINE
  5
1f4
100
AcDbEntity
  8
Layer_1
 62
7
100
AcDbLine
 10
95.941738
 20
102.000615
 30
0.0
 11
96.823682
 21
102.000615
 31
0.0
  0
LINE
  5
1f5
100
AcDbEntity
  8
Layer_1
 62
7
100
AcDbLine
 10
96.823682
 20
102.000615
 30
0.0
 11
96.823682
 21
102.000615
 31
0.0
  0
SPLINE
  5
1f6
100
AcDbEntity
  8
Layer_1
 62
7
100
AcDbSpline
 70
8
 71
3
 72
8
 73
4
 74
0
 40
0
 40
0
 40
0
 40
0
 40
1
 40
1
 40
1
 40
1
 10
93.075418
 20
98.472837
 30
0.0
 10
93.013406
 20
98.472837
 30
0.0
 10
92.954840
 20
98.484321
 30
0.0
 10
92.899718
 20
98.507288
 30
0.0
  0
SPLINE
  5
1f7
100
AcDbEntity
  8
Layer_1
 62
7
100
AcDbSpline
 70
8
 71
3
 72
8
 73
4
 74
0
 40
0
 40
0
 40
0
 40
0
 40
1
 40
1
 40
1
 40
1
 10
92.899718
 20
98.507288
 30
0.0
 10
92.846893
 20
98.530256
 30
0.0
 10
92.800959
 20
98.561262
 30
0.0
 10
92.761914
 20
98.600306
 30
0.0
  0
SPLINE
  5
1f8
100
AcDbEntity
  8
Layer_1
 62
7
100
AcDbSpline
 70
8
 71
3
 72
8
 73
4
 74
0
 40
0
 40
0
 40
0
 40
0
 40
1
 40
1
 40
1
 40
1
 10
92.761914
 20
98.600306
 30
0.0
 10
92.722870
 20
98.639350
 30
0.0
 10
92.691864
 20
98.685285
 30
0.0
 10
92.668897
 20
98.738110
 30
0.0
  0
SPLINE
  5
1f9
100
AcDbEntity
  8
Layer_1
 62
7
100
AcDbSpline
 70
8
 71
3
 72
8
 73
4
 74
0
 40
0
 40
0
 40
0
 40
0
 40
1
 40
1
 40
1
 40
1
 10
92.668897
 20
98.738110
 30
0.0
 10
92.645929
 20
98.793231
 30
0.0
 10
92.634446
 20
98.851798
 30
0.0
 10
92.634446
 20
98.913809
 30
0.0
  0
LINE
  5
1fa
100
AcDbEntity
  8
Layer_1
 62
7
100
AcDbLine
 10
92.634446
 20
98.913809
 30
0.0
 11
92.634446
 21
104.205476
 31
0.0
  0
SPLINE
  5
1fb
100
AcDbEntity
  8
Layer_1
 62
7
100
AcDbSpline
 70
8
 71
3
 72
8
 73
4
 74
0
 40
0
 40
0
 40
0
 40
0
 40
1
 40
1
 40
1
 40
1
 10
92.634446
 20
104.205476
 30
0.0
 10
92.634446
 20
104.265191
 30
0.0
 10
92.645929
 20
104.321461
 30
0.0
 10
92.668897
 20
104.374286
 30
0.0
  0
SPLINE
  5
1fc
100
AcDbEntity
  8
Layer_1
 62
7
100
AcDbSpline
 70
8
 71
3
 72
8
 73
4
 74
0
 40
0
 40
0
 40
0
 40
0
 40
1
 40
1
 40
1
 40
1
 10
92.668897
 20
104.374286
 30
0.0
 10
92.694161
 20
104.427111
 30
0.0
 10
92.726316
 20
104.473045
 30
0.0
 10
92.765360
 20
104.512090
 30
0.0
  0
SPLINE
  5
1fd
100
AcDbEntity
  8
Layer_1
 62
7
100
AcDbSpline
 70
8
 71
3
 72
8
 73
4
 74
0
 40
0
 40
0
 40
0
 40
0
 40
1
 40
1
 40
1
 40
1
 10
92.765360
 20
104.512090
 30
0.0
 10
92.806702
 20
104.553431
 30
0.0
 10
92.853785
 20
104.585585
 30
0.0
 10
92.906610
 20
104.608552
 30
0.0
  0
SPLINE
  5
1fe
100
AcDbEntity
  8
Layer_1
 62
7
100
AcDbSpline
 70
8
 71
3
 72
8
 73
4
 74
0
 40
0
 40
0
 40
0
 40
0
 40
1
 40
1
 40
1
 40
1
 10
92.906610
 20
104.608552
 30
0.0
 10
92.959434
 20
104.633816
 30
0.0
 10
93.015704
 20
104.646448
 30
0.0
 10
93.075418
 20
104.646448
 30
0.0
  0
LINE
  5
1ff
100
AcDbEntity
  8
Layer_1
 62
7
100
AcDbLine
 10
93.075418
 20
104.646448
 30
0.0
 11
97.485140
 21
104.646448
 31
0.0
  0
SPLINE
  5
200
100
AcDbEntity
  8
Layer_1
 62
7
100
AcDbSpline
 70
8
 71
3
 72
8
 73
4
 74
0
 40
0
 40
0
 40
0
 40
0
 40
1
 40
1
 40
1
 40
1
 10
97.485140
 20
104.646448
 30
0.0
 10
97.544857
 20
104.646448
 30
0.0
 10
97.601127
 20
104.633816
 30
0.0
 10
97.653952
 20
104.608552
 30
0.0
  0
SPLINE
  5
201
100
AcDbEntity
  8
Layer_1
 62
7
100
AcDbSpline
 70
8
 71
3
 72
8
 73
4
 74
0
 40
0
 40
0
 40
0
 40
0
 40
1
 40
1
 40
1
 40
1
 10
97.653952
 20
104.608552
 30
0.0
 10
97.706776
 20
104.585585
 30
0.0
 10
97.752710
 20
104.553431
 30
0.0
 10
97.791755
 20
104.512090
 30
0.0
  0
SPLINE
  5
202
100
AcDbEntity
  8
Layer_1
 62
7
100
AcDbSpline
 70
8
 71
3
 72
8
 73
4
 74
0
 40
0
 40
0
 40
0
 40
0
 40
1
 40
1
 40
1
 40
1
 10
97.791755
 20
104.512090
 30
0.0
 10
97.833097
 20
104.473045
 30
0.0
 10
97.865251
 20
104.427111
 30
0.0
 10
97.888219
 20
104.374286
 30
0.0
  0
SPLINE
  5
203
100
AcDbEntity
  8
Layer_1
 62
7
100
AcDbSpline
 70
8
 71
3
 72
8
 73
4
 74
0
 40
0
 40
0
 40
0
 40
0
 40
1
 40
1
 40
1
 40
1
 10
97.888219
 20
104.374286
 30
0.0
 10
97.913481
 20
104.321461
 30
0.0
 10
97.926113
 20
104.265191
 30
0.0
 10
97.926113
 20
104.205476
 30
0.0
  0
LINE
  5
204
100
AcDbEntity
  8
Layer_1
 62
7
100
AcDbLine
 10
97.926113
 20
104.205476
 30
0.0
 11
97.926113
 21
98.913809
 31
0.0
  0
SPLINE
  5
205
100
AcDbEntity
  8
Layer_1
 62
7
100
AcDbSpline
 70
8
 71
3
 72
8
 73
4
 74
0
 40
0
 40
0
 40
0
 40
0
 40
1
 40
1
 40
1
 40
1
 10
97.926113
 20
98.913809
 30
0.0
 10
97.926113
 20
98.854095
 30
0.0
 10
97.913481
 20
98.797825
 30
0.0
 10
97.888219
 20
98.745000
 30
0.0
  0
SPLINE
  5
206
100
AcDbEntity
  8
Layer_1
 62
7
100
AcDbSpline
 70
8
 71
3
 72
8
 73
4
 74
0
 40
0
 40
0
 40
0
 40
0
 40
1
 40
1
 40
1
 40
1
 10
97.888219
 20
98.745000
 30
0.0
 10
97.865251
 20
98.692175
 30
0.0
 10
97.833097
 20
98.645092
 30
0.0
 10
97.791755
 20
98.603751
 30
0.0
  0
SPLINE
  5
207
100
AcDbEntity
  8
Layer_1
 62
7
100
AcDbSpline
 70
8
 71
3
 72
8
 73
4
 74
0
 40
0
 40
0
 40
0
 40
0
 40
1
 40
1
 40
1
 40
1
 10
97.791755
 20
98.603751
 30
0.0
 10
97.752710
 20
98.564707
 30
0.0
 10
97.706776
 20
98.532552
 30
0.0
 10
97.653952
 20
98.507288
 30
0.0
  0
SPLINE
  5
208
100
AcDbEntity
  8
Layer_1
 62
7
100
AcDbSpline
 70
8
 71
3
 72
8
 73
4
 74
0
 40
0
 40
0
 40
0
 40
0
 40
1
 40
1
 40
1
 40
1
 10
97.653952
 20
98.507288
 30
0.0
 10
97.601127
 20
98.484321
 30
0.0
 10
97.544857
 20
98.472837
 30
0.0
 10
97.485140
 20
98.472837
 30
0.0
  0
LINE
  5
209
100
AcDbEntity
  8
Layer_1
 62
7
100
AcDbLine
 10
97.485140
 20
98.472837
 30
0.0
 11
93.075418
 21
98.472837
 31
0.0
  0
LINE
  5
20a
100
AcDbEntity
  8
Layer_1
 62
7
100
AcDbLine
 10
93.075418
 20
98.472837
 30
0.0
 11
93.075418
 21
98.472837
 31
0.0
  0
SPLINE
  5
20b
100
AcDbEntity
  8
Layer_1
 62
7
100
AcDbSpline
 70
8
 71
3
 72
8
 73
4
 74
0
 40
0
 40
0
 40
0
 40
0
 40
1
 40
1
 40
1
 40
1
 10
112.560043
 20
98.472837
 30
0.0
 10
112.498031
 20
98.472837
 30
0.0
 10
112.439465
 20
98.484321
 30
0.0
 10
112.384343
 20
98.507288
 30
0.0
  0
SPLINE
  5
20c
100
AcDbEntity
  8
Layer_1
 62
7
100
AcDbSpline
 70
8
 71
3
 72
8
 73
4
 74
0
 40
0
 40
0
 40
0
 40
0
 40
1
 40
1
 40
1
 40
1
 10
112.384343
 20
98.507288
 30
0.0
 10
112.331518
 20
98.530256
 30
0.0
 10
112.285584
 20
98.561262
 30
0.0
 10
112.246539
 20
98.600306
 30
0.0
  0
SPLINE
  5
20d
100
AcDbEntity
  8
Layer_1
 62
7
100
AcDbSpline
 70
8
 71
3
 72
8
 73
4
 74
0
 40
0
 40
0
 40
0
 40
0
 40
1
 40
1
 40
1
 40
1
 10
112.246539
 20
98.600306
 30
0.0
 10
112.207495
 20
98.639350
 30
0.0
 10
112.176489
 20
98.685285
 30
0.0
 10
112.153522
 20
98.738110
 30
0.0
  0
SPLINE
  5
20e
100
AcDbEntity
  8
Layer_1
 62
7
100
AcDbSpline
 70
8
 71
3
 72
8
 73
4
 74
0
 40
0
 40
0
 40
0
 40
0
 40
1
 40
1
 40
1
 40
1
 10
112.153522
 20
98.738110
 30
0.0
 10
112.130555
 20
98.793231
 30
0.0
 10
112.119071
 20
98.851798
 30
0.0
 10
112.119071
 20
98.913809
 30
0.0
  0
LINE
  5
20f
100
AcDbEntity
  8
Layer_1
 62
7
100
AcDbLine
 10
112.119071
 20
98.913809
 30
0.0
 11
112.119071
 21
103.544018
 31
0.0
  0
SPLINE
  5
210
100
AcDbEntity
  8
Layer_1
 62
7
100
AcDbSpline
 70
8
 71
3
 72
8
 73
4
 74
0
 40
0
 40
0
 40
0
 40
0
 40
1
 40
1
 40
1
 40
1
 10
112.119071
 20
103.544018
 30
0.0
 10
112.119071
 20
103.603733
 30
0.0
 10
112.097252
 20
103.655409
 30
0.0
 10
112.053615
 20
103.699047
 30
0.0
  0
SPLINE
  5
211
100
AcDbEntity
  8
Layer_1
 62
7
100
AcDbSpline
 70
8
 71
3
 72
8
 73
4
 74
0
 40
0
 40
0
 40
0
 40
0
 40
1
 40
1
 40
1
 40
1
 10
112.053615
 20
103.699047
 30
0.0
 10
112.009976
 20
103.742685
 30
0.0
 10
111.958299
 20
103.764504
 30
0.0
 10
111.898585
 20
103.764504
 30
0.0
  0
LINE
  5
212
100
AcDbEntity
  8
Layer_1
 62
7
100
AcDbLine
 10
111.898585
 20
103.764504
 30
0.0
 11
111.016640
 21
103.764504
 31
0.0
  0
SPLINE
  5
213
100
AcDbEntity
  8
Layer_1
 62
7
100
AcDbSpline
 70
8
 71
3
 72
8
 73
4
 74
0
 40
0
 40
0
 40
0
 40
0
 40
1
 40
1
 40
1
 40
1
 10
111.016640
 20
103.764504
 30
0.0
 10
110.956926
 20
103.764504
 30
0.0
 10
110.905249
 20
103.743833
 30
0.0
 10
110.861610
 20
103.702492
 30
0.0
  0
SPLINE
  5
214
100
AcDbEntity
  8
Layer_1
 62
7
100
AcDbSpline
 70
8
 71
3
 72
8
 73
4
 74
0
 40
0
 40
0
 40
0
 40
0
 40
1
 40
1
 40
1
 40
1
 10
110.861610
 20
103.702492
 30
0.0
 10
110.817973
 20
103.661151
 30
0.0
 10
110.796154
 20
103.608326
 30
0.0
 10
110.796154
 20
103.544018
 30
0.0
  0
LINE
  5
215
100
AcDbEntity
  8
Layer_1
 62
7
100
AcDbLine
 10
110.796154
 20
103.544018
 30
0.0
 11
110.796154
 21
101.339157
 31
0.0
  0
SPLINE
  5
216
100
AcDbEntity
  8
Layer_1
 62
7
100
AcDbSpline
 70
8
 71
3
 72
8
 73
4
 74
0
 40
0
 40
0
 40
0
 40
0
 40
1
 40
1
 40
1
 40
1
 10
110.796154
 20
101.339157
 30
0.0
 10
110.796154
 20
101.279442
 30
0.0
 10
110.775483
 20
101.227765
 30
0.0
 10
110.734142
 20
101.184128
 30
0.0
  0
SPLINE
  5
217
100
AcDbEntity
  8
Layer_1
 62
7
100
AcDbSpline
 70
8
 71
3
 72
8
 73
4
 74
0
 40
0
 40
0
 40
0
 40
0
 40
1
 40
1
 40
1
 40
1
 10
110.734142
 20
101.184128
 30
0.0
 10
110.692802
 20
101.140490
 30
0.0
 10
110.639977
 20
101.118671
 30
0.0
 10
110.575668
 20
101.118671
 30
0.0
  0
LINE
  5
218
100
AcDbEntity
  8
Layer_1
 62
7
100
AcDbLine
 10
110.575668
 20
101.118671
 30
0.0
 11
110.134696
 21
101.118671
 31
0.0
  0
SPLINE
  5
219
100
AcDbEntity
  8
Layer_1
 62
7
100
AcDbSpline
 70
8
 71
3
 72
8
 73
4
 74
0
 40
0
 40
0
 40
0
 40
0
 40
1
 40
1
 40
1
 40
1
 10
110.134696
 20
101.118671
 30
0.0
 10
110.070387
 20
101.118671
 30
0.0
 10
110.017562
 20
101.139341
 30
0.0
 10
109.976222
 20
101.180682
 30
0.0
  0
SPLINE
  5
21a
100
AcDbEntity
  8
Layer_1
 62
7
100
AcDbSpline
 70
8
 71
3
 72
8
 73
4
 74
0
 40
0
 40
0
 40
0
 40
0
 40
1
 40
1
 40
1
 40
1
 10
109.976222
 20
101.180682
 30
0.0
 10
109.934881
 20
101.222023
 30
0.0
 10
109.914210
 20
101.274848
 30
0.0
 10
109.914210
 20
101.339157
 30
0.0
  0
LINE
  5
21b
100
AcDbEntity
  8
Layer_1
 62
7
100
AcDbLine
 10
109.914210
 20
101.339157
 30
0.0
 11
109.914210
 21
104.205476
 31
0.0
  0
SPLINE
  5
21c
100
AcDbEntity
  8
Layer_1
 62
7
100
AcDbSpline
 70
8
 71
3
 72
8
 73
4
 74
0
 40
0
 40
0
 40
0
 40
0
 40
1
 40
1
 40
1
 40
1
 10
109.914210
 20
104.205476
 30
0.0
 10
109.914210
 20
104.265191
 30
0.0
 10
109.925693
 20
104.321461
 30
0.0
 10
109.948661
 20
104.374286
 30
0.0
  0
SPLINE
  5
21d
100
AcDbEntity
  8
Layer_1
 62
7
100
AcDbSpline
 70
8
 71
3
 72
8
 73
4
 74
0
 40
0
 40
0
 40
0
 40
0
 40
1
 40
1
 40
1
 40
1
 10
109.948661
 20
104.374286
 30
0.0
 10
109.973925
 20
104.427111
 30
0.0
 10
110.006080
 20
104.473045
 30
0.0
 10
110.045124
 20
104.512090
 30
0.0
  0
SPLINE
  5
21e
100
AcDbEntity
  8
Layer_1
 62
7
100
AcDbSpline
 70
8
 71
3
 72
8
 73
4
 74
0
 40
0
 40
0
 40
0
 40
0
 40
1
 40
1
 40
1
 40
1
 10
110.045124
 20
104.512090
 30
0.0
 10
110.086466
 20
104.553431
 30
0.0
 10
110.133549
 20
104.585585
 30
0.0
 10
110.186374
 20
104.608552
 30
0.0
  0
SPLINE
  5
21f
100
AcDbEntity
  8
Layer_1
 62
7
100
AcDbSpline
 70
8
 71
3
 72
8
 73
4
 74
0
 40
0
 40
0
 40
0
 40
0
 40
1
 40
1
 40
1
 40
1
 10
110.186374
 20
104.608552
 30
0.0
 10
110.239198
 20
104.633816
 30
0.0
 10
110.295468
 20
104.646448
 30
0.0
 10
110.355182
 20
104.646448
 30
0.0
  0
LINE
  5
220
100
AcDbEntity
  8
Layer_1
 62
7
100
AcDbLine
 10
110.355182
 20
104.646448
 30
0.0
 11
112.560043
 21
104.646448
 31
0.0
  0
SPLINE
  5
221
100
AcDbEntity
  8
Layer_1
 62
7
100
AcDbSpline
 70
8
 71
3
 72
8
 73
4
 74
0
 40
0
 40
0
 40
0
 40
0
 40
1
 40
1
 40
1
 40
1
 10
112.560043
 20
104.646448
 30
0.0
 10
112.619758
 20
104.646448
 30
0.0
 10
112.676028
 20
104.633816
 30
0.0
 10
112.728854
 20
104.608552
 30
0.0
  0
SPLINE
  5
222
100
AcDbEntity
  8
Layer_1
 62
7
100
AcDbSpline
 70
8
 71
3
 72
8
 73
4
 74
0
 40
0
 40
0
 40
0
 40
0
 40
1
 40
1
 40
1
 40
1
 10
112.728854
 20
104.608552
 30
0.0
 10
112.781679
 20
104.585585
 30
0.0
 10
112.827613
 20
104.553431
 30
0.0
 10
112.866658
 20
104.512090
 30
0.0
  0
SPLINE
  5
223
100
AcDbEntity
  8
Layer_1
 62
7
100
AcDbSpline
 70
8
 71
3
 72
8
 73
4
 74
0
 40
0
 40
0
 40
0
 40
0
 40
1
 40
1
 40
1
 40
1
 10
112.866658
 20
104.512090
 30
0.0
 10
112.907998
 20
104.473045
 30
0.0
 10
112.940151
 20
104.427111
 30
0.0
 10
112.963119
 20
104.374286
 30
0.0
  0
SPLINE
  5
224
100
AcDbEntity
  8
Layer_1
 62
7
100
AcDbSpline
 70
8
 71
3
 72
8
 73
4
 74
0
 40
0
 40
0
 40
0
 40
0
 40
1
 40
1
 40
1
 40
1
 10
112.963119
 20
104.374286
 30
0.0
 10
112.988383
 20
104.321461
 30
0.0
 10
113.001015
 20
104.265191
 30
0.0
 10
113.001015
 20
104.205476
 30
0.0
  0
LINE
  5
225
100
AcDbEntity
  8
Layer_1
 62
7
100
AcDbLine
 10
113.001015
 20
104.205476
 30
0.0
 11
113.001015
 21
99.575268
 31
0.0
  0
SPLINE
  5
226
100
AcDbEntity
  8
Layer_1
 62
7
100
AcDbSpline
 70
8
 71
3
 72
8
 73
4
 74
0
 40
0
 40
0
 40
0
 40
0
 40
1
 40
1
 40
1
 40
1
 10
113.001015
 20
99.575268
 30
0.0
 10
113.001015
 20
99.510959
 30
0.0
 10
113.021686
 20
99.458135
 30
0.0
 10
113.063028
 20
99.416794
 30
0.0
  0
SPLINE
  5
227
100
AcDbEntity
  8
Layer_1
 62
7
100
AcDbSpline
 70
8
 71
3
 72
8
 73
4
 74
0
 40
0
 40
0
 40
0
 40
0
 40
1
 40
1
 40
1
 40
1
 10
113.063028
 20
99.416794
 30
0.0
 10
113.104368
 20
99.375452
 30
0.0
 10
113.157192
 20
99.354782
 30
0.0
 10
113.221501
 20
99.354782
 30
0.0
  0
LINE
  5
228
100
AcDbEntity
  8
Layer_1
 62
7
100
AcDbLine
 10
113.221501
 20
99.354782
 30
0.0
 11
114.103446
 21
99.354782
 31
0.0
  0
SPLINE
  5
229
100
AcDbEntity
  8
Layer_1
 62
7
100
AcDbSpline
 70
8
 71
3
 72
8
 73
4
 74
0
 40
0
 40
0
 40
0
 40
0
 40
1
 40
1
 40
1
 40
1
 10
114.103446
 20
99.354782
 30
0.0
 10
114.167755
 20
99.354782
 30
0.0
 10
114.220579
 20
99.376601
 30
0.0
 10
114.261919
 20
99.420239
 30
0.0
  0
SPLINE
  5
22a
100
AcDbEntity
  8
Layer_1
 62
7
100
AcDbSpline
 70
8
 71
3
 72
8
 73
4
 74
0
 40
0
 40
0
 40
0
 40
0
 40
1
 40
1
 40
1
 40
1
 10
114.261919
 20
99.420239
 30
0.0
 10
114.303261
 20
99.463877
 30
0.0
 10
114.323932
 20
99.515553
 30
0.0
 10
114.323932
 20
99.575268
 30
0.0
  0
LINE
  5
22b
100
AcDbEntity
  8
Layer_1
 62
7
100
AcDbLine
 10
114.323932
 20
99.575268
 30
0.0
 11
114.323932
 21
101.780129
 31
0.0
  0
SPLINE
  5
22c
100
AcDbEntity
  8
Layer_1
 62
7
100
AcDbSpline
 70
8
 71
3
 72
8
 73
4
 74
0
 40
0
 40
0
 40
0
 40
0
 40
1
 40
1
 40
1
 40
1
 10
114.323932
 20
101.780129
 30
0.0
 10
114.323932
 20
101.844437
 30
0.0
 10
114.345751
 20
101.897262
 30
0.0
 10
114.389388
 20
101.938603
 30
0.0
  0
SPLINE
  5
22d
100
AcDbEntity
  8
Layer_1
 62
7
100
AcDbSpline
 70
8
 71
3
 72
8
 73
4
 74
0
 40
0
 40
0
 40
0
 40
0
 40
1
 40
1
 40
1
 40
1
 10
114.389388
 20
101.938603
 30
0.0
 10
114.433027
 20
101.979945
 30
0.0
 10
114.484704
 20
102.000615
 30
0.0
 10
114.544418
 20
102.000615
 30
0.0
  0
LINE
  5
22e
100
AcDbEntity
  8
Layer_1
 62
7
100
AcDbLine
 10
114.544418
 20
102.000615
 30
0.0
 11
114.985390
 21
102.000615
 31
0.0
  0
SPLINE
  5
22f
100
AcDbEntity
  8
Layer_1
 62
7
100
AcDbSpline
 70
8
 71
3
 72
8
 73
4
 74
0
 40
0
 40
0
 40
0
 40
0
 40
1
 40
1
 40
1
 40
1
 10
114.985390
 20
102.000615
 30
0.0
 10
115.045105
 20
102.000615
 30
0.0
 10
115.096782
 20
101.978796
 30
0.0
 10
115.140421
 20
101.935158
 30
0.0
  0
SPLINE
  5
230
100
AcDbEntity
  8
Layer_1
 62
7
100
AcDbSpline
 70
8
 71
3
 72
8
 73
4
 74
0
 40
0
 40
0
 40
0
 40
0
 40
1
 40
1
 40
1
 40
1
 10
115.140421
 20
101.935158
 30
0.0
 10
115.184058
 20
101.891520
 30
0.0
 10
115.205876
 20
101.839844
 30
0.0
 10
115.205876
 20
101.780129
 30
0.0
  0
LINE
  5
231
100
AcDbEntity
  8
Layer_1
 62
7
100
AcDbLine
 10
115.205876
 20
101.780129
 30
0.0
 11
115.205876
 21
98.913809
 31
0.0
  0
SPLINE
  5
232
100
AcDbEntity
  8
Layer_1
 62
7
100
AcDbSpline
 70
8
 71
3
 72
8
 73
4
 74
0
 40
0
 40
0
 40
0
 40
0
 40
1
 40
1
 40
1
 40
1
 10
115.205876
 20
98.913809
 30
0.0
 10
115.205876
 20
98.854095
 30
0.0
 10
115.193244
 20
98.797825
 30
0.0
 10
115.167980
 20
98.745000
 30
0.0
  0
SPLINE
  5
233
100
AcDbEntity
  8
Layer_1
 62
7
100
AcDbSpline
 70
8
 71
3
 72
8
 73
4
 74
0
 40
0
 40
0
 40
0
 40
0
 40
1
 40
1
 40
1
 40
1
 10
115.167980
 20
98.745000
 30
0.0
 10
115.145012
 20
98.692175
 30
0.0
 10
115.112859
 20
98.645092
 30
0.0
 10
115.071519
 20
98.603751
 30
0.0
  0
SPLINE
  5
234
100
AcDbEntity
  8
Layer_1
 62
7
100
AcDbSpline
 70
8
 71
3
 72
8
 73
4
 74
0
 40
0
 40
0
 40
0
 40
0
 40
1
 40
1
 40
1
 40
1
 10
115.071519
 20
98.603751
 30
0.0
 10
115.032474
 20
98.564707
 30
0.0
 10
114.986540
 20
98.532552
 30
0.0
 10
114.933715
 20
98.507288
 30
0.0
  0
SPLINE
  5
235
100
AcDbEntity
  8
Layer_1
 62
7
100
AcDbSpline
 70
8
 71
3
 72
8
 73
4
 74
0
 40
0
 40
0
 40
0
 40
0
 40
1
 40
1
 40
1
 40
1
 10
114.933715
 20
98.507288
 30
0.0
 10
114.880889
 20
98.484321
 30
0.0
 10
114.824619
 20
98.472837
 30
0.0
 10
114.764904
 20
98.472837
 30
0.0
  0
LINE
  5
236
100
AcDbEntity
  8
Layer_1
 62
7
100
AcDbLine
 10
114.764904
 20
98.472837
 30
0.0
 11
112.560043
 21
98.472837
 31
0.0
  0
LINE
  5
237
100
AcDbEntity
  8
Layer_1
 62
7
100
AcDbLine
 10
112.560043
 20
98.472837
 30
0.0
 11
112.560043
 21
98.472837
 31
0.0
  0
SPLINE
  5
238
100
AcDbEntity
  8
Layer_1
 62
7
100
AcDbSpline
 70
8
 71
3
 72
8
 73
4
 74
0
 40
0
 40
0
 40
0
 40
0
 40
1
 40
1
 40
1
 40
1
 10
12.984694
 20
86.912172
 30
0.0
 10
13.049002
 20
86.912172
 30
0.0
 10
13.101827
 20
86.933990
 30
0.0
 10
13.143168
 20
86.977628
 30
0.0
  0
SPLINE
  5
239
100
AcDbEntity
  8
Layer_1
 62
7
100
AcDbSpline
 70
8
 71
3
 72
8
 73
4
 74
0
 40
0
 40
0
 40
0
 40
0
 40
1
 40
1
 40
1
 40
1
 10
13.143168
 20
86.977628
 30
0.0
 10
13.184509
 20
87.021266
 30
0.0
 10
13.205180
 20
87.072943
 30
0.0
 10
13.205180
 20
87.132658
 30
0.0
  0
LINE
  5
23a
100
AcDbEntity
  8
Layer_1
 62
7
100
AcDbLine
 10
13.205180
 20
87.132658
 30
0.0
 11
13.205180
 21
90.219463
 31
0.0
  0
SPLINE
  5
23b
100
AcDbEntity
  8
Layer_1
 62
7
100
AcDbSpline
 70
8
 71
3
 72
8
 73
4
 74
0
 40
0
 40
0
 40
0
 40
0
 40
1
 40
1
 40
1
 40
1
 10
13.205180
 20
90.219463
 30
0.0
 10
13.205180
 20
90.279178
 30
0.0
 10
13.183361
 20
90.330854
 30
0.0
 10
13.139723
 20
90.374492
 30
0.0
  0
SPLINE
  5
23c
100
AcDbEntity
  8
Layer_1
 62
7
100
AcDbSpline
 70
8
 71
3
 72
8
 73
4
 74
0
 40
0
 40
0
 40
0
 40
0
 40
1
 40
1
 40
1
 40
1
 10
13.139723
 20
90.374492
 30
0.0
 10
13.096085
 20
90.418130
 30
0.0
 10
13.044409
 20
90.439949
 30
0.0
 10
12.984694
 20
90.439949
 30
0.0
  0
LINE
  5
23d
100
AcDbEntity
  8
Layer_1
 62
7
100
AcDbLine
 10
12.984694
 20
90.439949
 30
0.0
 11
12.102749
 21
90.439949
 31
0.0
  0
SPLINE
  5
23e
100
AcDbEntity
  8
Layer_1
 62
7
100
AcDbSpline
 70
8
 71
3
 72
8
 73
4
 74
0
 40
0
 40
0
 40
0
 40
0
 40
1
 40
1
 40
1
 40
1
 10
12.102749
 20
90.439949
 30
0.0
 10
12.043034
 20
90.439949
 30
0.0
 10
11.991358
 20
90.419279
 30
0.0
 10
11.947720
 20
90.377937
 30
0.0
  0
SPLINE
  5
23f
100
AcDbEntity
  8
Layer_1
 62
7
100
AcDbSpline
 70
8
 71
3
 72
8
 73
4
 74
0
 40
0
 40
0
 40
0
 40
0
 40
1
 40
1
 40
1
 40
1
 10
11.947720
 20
90.377937
 30
0.0
 10
11.904082
 20
90.336596
 30
0.0
 10
11.882263
 20
90.283771
 30
0.0
 10
11.882263
 20
90.219463
 30
0.0
  0
LINE
  5
240
100
AcDbEntity
  8
Layer_1
 62
7
100
AcDbLine
 10
11.882263
 20
90.219463
 30
0.0
 11
11.882263
 21
87.132658
 31
0.0
  0
SPLINE
  5
241
100
AcDbEntity
  8
Layer_1
 62
7
100
AcDbSpline
 70
8
 71
3
 72
8
 73
4
 74
0
 40
0
 40
0
 40
0
 40
0
 40
1
 40
1
 40
1
 40
1
 10
11.882263
 20
87.132658
 30
0.0
 10
11.882263
 20
87.068349
 30
0.0
 10
11.902934
 20
87.015524
 30
0.0
 10
11.944275
 20
86.974183
 30
0.0
  0
SPLINE
  5
242
100
AcDbEntity
  8
Layer_1
 62
7
100
AcDbSpline
 70
8
 71
3
 72
8
 73
4
 74
0
 40
0
 40
0
 40
0
 40
0
 40
1
 40
1
 40
1
 40
1
 10
11.944275
 20
86.974183
 30
0.0
 10
11.985616
 20
86.932842
 30
0.0
 10
12.038441
 20
86.912172
 30
0.0
 10
12.102749
 20
86.912172
 30
0.0
  0
LINE
  5
243
100
AcDbEntity
  8
Layer_1
 62
7
100
AcDbLine
 10
12.102749
 20
86.912172
 30
0.0
 11
12.984694
 21
86.912172
 31
0.0
  0
LINE
  5
244
100
AcDbEntity
  8
Layer_1
 62
7
100
AcDbLine
 10
12.984694
 20
86.912172
 30
0.0
 11
12.984694
 21
86.912172
 31
0.0
  0
SPLINE
  5
245
100
AcDbEntity
  8
Layer_1
 62
7
100
AcDbSpline
 70
8
 71
3
 72
8
 73
4
 74
0
 40
0
 40
0
 40
0
 40
0
 40
1
 40
1
 40
1
 40
1
 10
15.189555
 20
86.912172
 30
0.0
 10
15.253863
 20
86.912172
 30
0.0
 10
15.306688
 20
86.933990
 30
0.0
 10
15.348029
 20
86.977628
 30
0.0
  0
SPLINE
  5
246
100
AcDbEntity
  8
Layer_1
 62
7
100
AcDbSpline
 70
8
 71
3
 72
8
 73
4
 74
0
 40
0
 40
0
 40
0
 40
0
 40
1
 40
1
 40
1
 40
1
 10
15.348029
 20
86.977628
 30
0.0
 10
15.389370
 20
87.021266
 30
0.0
 10
15.410041
 20
87.072943
 30
0.0
 10
15.410041
 20
87.132658
 30
0.0
  0
LINE
  5
247
100
AcDbEntity
  8
Layer_1
 62
7
100
AcDbLine
 10
15.410041
 20
87.132658
 30
0.0
 11
15.410041
 21
90.219463
 31
0.0
  0
SPLINE
  5
248
100
AcDbEntity
  8
Layer_1
 62
7
100
AcDbSpline
 70
8
 71
3
 72
8
 73
4
 74
0
 40
0
 40
0
 40
0
 40
0
 40
1
 40
1
 40
1
 40
1
 10
15.410041
 20
90.219463
 30
0.0
 10
15.410041
 20
90.279178
 30
0.0
 10
15.388222
 20
90.330854
 30
0.0
 10
15.344584
 20
90.374492
 30
0.0
  0
SPLINE
  5
249
100
AcDbEntity
  8
Layer_1
 62
7
100
AcDbSpline
 70
8
 71
3
 72
8
 73
4
 74
0
 40
0
 40
0
 40
0
 40
0
 40
1
 40
1
 40
1
 40
1
 10
15.344584
 20
90.374492
 30
0.0
 10
15.300946
 20
90.418130
 30
0.0
 10
15.249270
 20
90.439949
 30
0.0
 10
15.189555
 20
90.439949
 30
0.0
  0
LINE
  5
24a
100
AcDbEntity
  8
Layer_1
 62
7
100
AcDbLine
 10
15.189555
 20
90.439949
 30
0.0
 11
14.307610
 21
90.439949
 31
0.0
  0
SPLINE
  5
24b
100
AcDbEntity
  8
Layer_1
 62
7
100
AcDbSpline
 70
8
 71
3
 72
8
 73
4
 74
0
 40
0
 40
0
 40
0
 40
0
 40
1
 40
1
 40
1
 40
1
 10
14.307610
 20
90.439949
 30
0.0
 10
14.247895
 20
90.439949
 30
0.0
 10
14.196219
 20
90.419279
 30
0.0
 10
14.152581
 20
90.377937
 30
0.0
  0
SPLINE
  5
24c
100
AcDbEntity
  8
Layer_1
 62
7
100
AcDbSpline
 70
8
 71
3
 72
8
 73
4
 74
0
 40
0
 40
0
 40
0
 40
0
 40
1
 40
1
 40
1
 40
1
 10
14.152581
 20
90.377937
 30
0.0
 10
14.108943
 20
90.336596
 30
0.0
 10
14.087124
 20
90.283771
 30
0.0
 10
14.087124
 20
90.219463
 30
0.0
  0
LINE
  5
24d
100
AcDbEntity
  8
Layer_1
 62
7
100
AcDbLine
 10
14.087124
 20
90.219463
 30
0.0
 11
14.087124
 21
87.132658
 31
0.0
  0
SPLINE
  5
24e
100
AcDbEntity
  8
Layer_1
 62
7
100
AcDbSpline
 70
8
 71
3
 72
8
 73
4
 74
0
 40
0
 40
0
 40
0
 40
0
 40
1
 40
1
 40
1
 40
1
 10
14.087124
 20
87.132658
 30
0.0
 10
14.087124
 20
87.068349
 30
0.0
 10
14.107795
 20
87.015524
 30
0.0
 10
14.149136
 20
86.974183
 30
0.0
  0
SPLINE
  5
24f
100
AcDbEntity
  8
Layer_1
 62
7
100
AcDbSpline
 70
8
 71
3
 72
8
 73
4
 74
0
 40
0
 40
0
 40
0
 40
0
 40
1
 40
1
 40
1
 40
1
 10
14.149136
 20
86.974183
 30
0.0
 10
14.190477
 20
86.932842
 30
0.0
 10
14.243302
 20
86.912172
 30
0.0
 10
14.307610
 20
86.912172
 30
0.0
  0
LINE
  5
250
100
AcDbEntity
  8
Layer_1
 62
7
100
AcDbLine
 10
14.307610
 20
86.912172
 30
0.0
 11
15.189555
 21
86.912172
 31
0.0
  0
LINE
  5
251
100
AcDbEntity
  8
Layer_1
 62
7
100
AcDbLine
 10
15.189555
 20
86.912172
 30
0.0
 11
15.189555
 21
86.912172
 31
0.0
  0
SPLINE
  5
252
100
AcDbEntity
  8
Layer_1
 62
7
100
AcDbSpline
 70
8
 71
3
 72
8
 73
4
 74
0
 40
0
 40
0
 40
0
 40
0
 40
1
 40
1
 40
1
 40
1
 10
11.220805
 20
85.589255
 30
0.0
 10
11.156496
 20
85.589255
 30
0.0
 10
11.103672
 20
85.609925
 30
0.0
 10
11.062331
 20
85.651266
 30
0.0
  0
SPLINE
  5
253
100
AcDbEntity
  8
Layer_1
 62
7
100
AcDbSpline
 70
8
 71
3
 72
8
 73
4
 74
0
 40
0
 40
0
 40
0
 40
0
 40
1
 40
1
 40
1
 40
1
 10
11.062331
 20
85.651266
 30
0.0
 10
11.020989
 20
85.692608
 30
0.0
 10
11.000319
 20
85.745432
 30
0.0
 10
11.000319
 20
85.809741
 30
0.0
  0
LINE
  5
254
100
AcDbEntity
  8
Layer_1
 62
7
100
AcDbLine
 10
11.000319
 20
85.809741
 30
0.0
 11
11.000319
 21
91.542380
 31
0.0
  0
SPLINE
  5
255
100
AcDbEntity
  8
Layer_1
 62
7
100
AcDbSpline
 70
8
 71
3
 72
8
 73
4
 74
0
 40
0
 40
0
 40
0
 40
0
 40
1
 40
1
 40
1
 40
1
 10
11.000319
 20
91.542380
 30
0.0
 10
11.000319
 20
91.606688
 30
0.0
 10
11.022138
 20
91.659513
 30
0.0
 10
11.065776
 20
91.700854
 30
0.0
  0
SPLINE
  5
256
100
AcDbEntity
  8
Layer_1
 62
7
100
AcDbSpline
 70
8
 71
3
 72
8
 73
4
 74
0
 40
0
 40
0
 40
0
 40
0
 40
1
 40
1
 40
1
 40
1
 10
11.065776
 20
91.700854
 30
0.0
 10
11.109413
 20
91.742195
 30
0.0
 10
11.161090
 20
91.762866
 30
0.0
 10
11.220805
 20
91.762866
 30
0.0
  0
LINE
  5
257
100
AcDbEntity
  8
Layer_1
 62
7
100
AcDbLine
 10
11.220805
 20
91.762866
 30
0.0
 11
11.661777
 21
91.762866
 31
0.0
  0
SPLINE
  5
258
100
AcDbEntity
  8
Layer_1
 62
7
100
AcDbSpline
 70
8
 71
3
 72
8
 73
4
 74
0
 40
0
 40
0
 40
0
 40
0
 40
1
 40
1
 40
1
 40
1
 10
11.661777
 20
91.762866
 30
0.0
 10
11.714602
 20
91.762866
 30
0.0
 10
11.753646
 20
91.751382
 30
0.0
 10
11.778910
 20
91.728415
 30
0.0
  0
SPLINE
  5
259
100
AcDbEntity
  8
Layer_1
 62
7
100
AcDbSpline
 70
8
 71
3
 72
8
 73
4
 74
0
 40
0
 40
0
 40
0
 40
0
 40
1
 40
1
 40
1
 40
1
 10
11.778910
 20
91.728415
 30
0.0
 10
11.806471
 20
91.707744
 30
0.0
 10
11.827142
 20
91.681332
 30
0.0
 10
11.840922
 20
91.649178
 30
0.0
  0
SPLINE
  5
25a
100
AcDbEntity
  8
Layer_1
 62
7
100
AcDbSpline
 70
8
 71
3
 72
8
 73
4
 74
0
 40
0
 40
0
 40
0
 40
0
 40
1
 40
1
 40
1
 40
1
 10
11.840922
 20
91.649178
 30
0.0
 10
11.856999
 20
91.617023
 30
0.0
 10
11.868483
 20
91.581424
 30
0.0
 10
11.875373
 20
91.542380
 30
0.0
  0
SPLINE
  5
25b
100
AcDbEntity
  8
Layer_1
 62
7
100
AcDbSpline
 70
8
 71
3
 72
8
 73
4
 74
0
 40
0
 40
0
 40
0
 40
0
 40
1
 40
1
 40
1
 40
1
 10
11.875373
 20
91.542380
 30
0.0
 10
11.884560
 20
91.503335
 30
0.0
 10
11.896044
 20
91.467736
 30
0.0
 10
11.909824
 20
91.435582
 30
0.0
  0
SPLINE
  5
25c
100
AcDbEntity
  8
Layer_1
 62
7
100
AcDbSpline
 70
8
 71
3
 72
8
 73
4
 74
0
 40
0
 40
0
 40
0
 40
0
 40
1
 40
1
 40
1
 40
1
 10
11.909824
 20
91.435582
 30
0.0
 10
11.925901
 20
91.403428
 30
0.0
 10
11.947720
 20
91.375867
 30
0.0
 10
11.975281
 20
91.352900
 30
0.0
  0
SPLINE
  5
25d
100
AcDbEntity
  8
Layer_1
 62
7
100
AcDbSpline
 70
8
 71
3
 72
8
 73
4
 74
0
 40
0
 40
0
 40
0
 40
0
 40
1
 40
1
 40
1
 40
1
 10
11.975281
 20
91.352900
 30
0.0
 10
12.005138
 20
91.332229
 30
0.0
 10
12.047628
 20
91.321894
 30
0.0
 10
12.102749
 20
91.321894
 30
0.0
  0
LINE
  5
25e
100
AcDbEntity
  8
Layer_1
 62
7
100
AcDbLine
 10
12.102749
 20
91.321894
 30
0.0
 11
15.189555
 21
91.321894
 31
0.0
  0
SPLINE
  5
25f
100
AcDbEntity
  8
Layer_1
 62
7
100
AcDbSpline
 70
8
 71
3
 72
8
 73
4
 74
0
 40
0
 40
0
 40
0
 40
0
 40
1
 40
1
 40
1
 40
1
 10
15.189555
 20
91.321894
 30
0.0
 10
15.240083
 20
91.321894
 30
0.0
 10
15.279127
 20
91.332229
 30
0.0
 10
15.306688
 20
91.352900
 30
0.0
  0
SPLINE
  5
260
100
AcDbEntity
  8
Layer_1
 62
7
100
AcDbSpline
 70
8
 71
3
 72
8
 73
4
 74
0
 40
0
 40
0
 40
0
 40
0
 40
1
 40
1
 40
1
 40
1
 10
15.306688
 20
91.352900
 30
0.0
 10
15.334249
 20
91.375867
 30
0.0
 10
15.356068
 20
91.403428
 30
0.0
 10
15.372145
 20
91.435582
 30
0.0
  0
SPLINE
  5
261
100
AcDbEntity
  8
Layer_1
 62
7
100
AcDbSpline
 70
8
 71
3
 72
8
 73
4
 74
0
 40
0
 40
0
 40
0
 40
0
 40
1
 40
1
 40
1
 40
1
 10
15.372145
 20
91.435582
 30
0.0
 10
15.388222
 20
91.467736
 30
0.0
 10
15.400854
 20
91.503335
 30
0.0
 10
15.410041
 20
91.542380
 30
0.0
  0
SPLINE
  5
262
100
AcDbEntity
  8
Layer_1
 62
7
100
AcDbSpline
 70
8
 71
3
 72
8
 73
4
 74
0
 40
0
 40
0
 40
0
 40
0
 40
1
 40
1
 40
1
 40
1
 10
15.410041
 20
91.542380
 30
0.0
 10
15.419228
 20
91.581424
 30
0.0
 10
15.431860
 20
91.617023
 30
0.0
 10
15.447937
 20
91.649178
 30
0.0
  0
SPLINE
  5
263
100
AcDbEntity
  8
Layer_1
 62
7
100
AcDbSpline
 70
8
 71
3
 72
8
 73
4
 74
0
 40
0
 40
0
 40
0
 40
0
 40
1
 40
1
 40
1
 40
1
 10
15.447937
 20
91.649178
 30
0.0
 10
15.464014
 20
91.681332
 30
0.0
 10
15.485833
 20
91.707744
 30
0.0
 10
15.513394
 20
91.728415
 30
0.0
  0
SPLINE
  5
264
100
AcDbEntity
  8
Layer_1
 62
7
100
AcDbSpline
 70
8
 71
3
 72
8
 73
4
 74
0
 40
0
 40
0
 40
0
 40
0
 40
1
 40
1
 40
1
 40
1
 10
15.513394
 20
91.728415
 30
0.0
 10
15.540955
 20
91.751382
 30
0.0
 10
15.579999
 20
91.762866
 30
0.0
 10
15.630527
 20
91.762866
 30
0.0
  0
LINE
  5
265
100
AcDbEntity
  8
Layer_1
 62
7
100
AcDbLine
 10
15.630527
 20
91.762866
 30
0.0
 11
16.071499
 21
91.762866
 31
0.0
  0
SPLINE
  5
266
100
AcDbEntity
  8
Layer_1
 62
7
100
AcDbSpline
 70
8
 71
3
 72
8
 73
4
 74
0
 40
0
 40
0
 40
0
 40
0
 40
1
 40
1
 40
1
 40
1
 10
16.071499
 20
91.762866
 30
0.0
 10
16.131214
 20
91.762866
 30
0.0
 10
16.182891
 20
91.741047
 30
0.0
 10
16.226529
 20
91.697409
 30
0.0
  0
SPLINE
  5
267
100
AcDbEntity
  8
Layer_1
 62
7
100
AcDbSpline
 70
8
 71
3
 72
8
 73
4
 74
0
 40
0
 40
0
 40
0
 40
0
 40
1
 40
1
 40
1
 40
1
 10
16.226529
 20
91.697409
 30
0.0
 10
16.270167
 20
91.653771
 30
0.0
 10
16.291985
 20
91.602095
 30
0.0
 10
16.291985
 20
91.542380
 30
0.0
  0
LINE
  5
268
100
AcDbEntity
  8
Layer_1
 62
7
100
AcDbLine
 10
16.291985
 20
91.542380
 30
0.0
 11
16.291985
 21
85.809741
 31
0.0
  0
SPLINE
  5
269
100
AcDbEntity
  8
Layer_1
 62
7
100
AcDbSpline
 70
8
 71
3
 72
8
 73
4
 74
0
 40
0
 40
0
 40
0
 40
0
 40
1
 40
1
 40
1
 40
1
 10
16.291985
 20
85.809741
 30
0.0
 10
16.291985
 20
85.750026
 30
0.0
 10
16.271315
 20
85.698349
 30
0.0
 10
16.229974
 20
85.654711
 30
0.0
  0
SPLINE
  5
26a
100
AcDbEntity
  8
Layer_1
 62
7
100
AcDbSpline
 70
8
 71
3
 72
8
 73
4
 74
0
 40
0
 40
0
 40
0
 40
0
 40
1
 40
1
 40
1
 40
1
 10
16.229974
 20
85.654711
 30
0.0
 10
16.188633
 20
85.611074
 30
0.0
 10
16.135808
 20
85.589255
 30
0.0
 10
16.071499
 20
85.589255
 30
0.0
  0
LINE
  5
26b
100
AcDbEntity
  8
Layer_1
 62
7
100
AcDbLine
 10
16.071499
 20
85.589255
 30
0.0
 11
15.630527
 21
85.589255
 31
0.0
  0
SPLINE
  5
26c
100
AcDbEntity
  8
Layer_1
 62
7
100
AcDbSpline
 70
8
 71
3
 72
8
 73
4
 74
0
 40
0
 40
0
 40
0
 40
0
 40
1
 40
1
 40
1
 40
1
 10
15.630527
 20
85.589255
 30
0.0
 10
15.575406
 20
85.589255
 30
0.0
 10
15.534064
 20
85.599590
 30
0.0
 10
15.506504
 20
85.620261
 30
0.0
  0
SPLINE
  5
26d
100
AcDbEntity
  8
Layer_1
 62
7
100
AcDbSpline
 70
8
 71
3
 72
8
 73
4
 74
0
 40
0
 40
0
 40
0
 40
0
 40
1
 40
1
 40
1
 40
1
 10
15.506504
 20
85.620261
 30
0.0
 10
15.478943
 20
85.643228
 30
0.0
 10
15.457124
 20
85.670789
 30
0.0
 10
15.441047
 20
85.702943
 30
0.0
  0
SPLINE
  5
26e
100
AcDbEntity
  8
Layer_1
 62
7
100
AcDbSpline
 70
8
 71
3
 72
8
 73
4
 74
0
 40
0
 40
0
 40
0
 40
0
 40
1
 40
1
 40
1
 40
1
 10
15.441047
 20
85.702943
 30
0.0
 10
15.427267
 20
85.735097
 30
0.0
 10
15.416932
 20
85.770696
 30
0.0
 10
15.410041
 20
85.809741
 30
0.0
  0
SPLINE
  5
26f
100
AcDbEntity
  8
Layer_1
 62
7
100
AcDbSpline
 70
8
 71
3
 72
8
 73
4
 74
0
 40
0
 40
0
 40
0
 40
0
 40
1
 40
1
 40
1
 40
1
 10
15.410041
 20
85.809741
 30
0.0
 10
15.403151
 20
85.848785
 30
0.0
 10
15.391667
 20
85.884385
 30
0.0
 10
15.375590
 20
85.916539
 30
0.0
  0
SPLINE
  5
270
100
AcDbEntity
  8
Layer_1
 62
7
100
AcDbSpline
 70
8
 71
3
 72
8
 73
4
 74
0
 40
0
 40
0
 40
0
 40
0
 40
1
 40
1
 40
1
 40
1
 10
15.375590
 20
85.916539
 30
0.0
 10
15.361810
 20
85.948693
 30
0.0
 10
15.341140
 20
85.975105
 30
0.0
 10
15.313578
 20
85.995776
 30
0.0
  0
SPLINE
  5
271
100
AcDbEntity
  8
Layer_1
 62
7
100
AcDbSpline
 70
8
 71
3
 72
8
 73
4
 74
0
 40
0
 40
0
 40
0
 40
0
 40
1
 40
1
 40
1
 40
1
 10
15.313578
 20
85.995776
 30
0.0
 10
15.286018
 20
86.018743
 30
0.0
 10
15.244676
 20
86.030227
 30
0.0
 10
15.189555
 20
86.030227
 30
0.0
  0
LINE
  5
272
100
AcDbEntity
  8
Layer_1
 62
7
100
AcDbLine
 10
15.189555
 20
86.030227
 30
0.0
 11
12.102749
 21
86.030227
 31
0.0
  0
SPLINE
  5
273
100
AcDbEntity
  8
Layer_1
 62
7
100
AcDbSpline
 70
8
 71
3
 72
8
 73
4
 74
0
 40
0
 40
0
 40
0
 40
0
 40
1
 40
1
 40
1
 40
1
 10
12.102749
 20
86.030227
 30
0.0
 10
12.047628
 20
86.030227
 30
0.0
 10
12.006287
 20
86.018743
 30
0.0
 10
11.978726
 20
85.995776
 30
0.0
  0
SPLINE
  5
274
100
AcDbEntity
  8
Layer_1
 62
7
100
AcDbSpline
 70
8
 71
3
 72
8
 73
4
 74
0
 40
0
 40
0
 40
0
 40
0
 40
1
 40
1
 40
1
 40
1
 10
11.978726
 20
85.995776
 30
0.0
 10
11.951165
 20
85.975105
 30
0.0
 10
11.929346
 20
85.948693
 30
0.0
 10
11.913269
 20
85.916539
 30
0.0
  0
SPLINE
  5
275
100
AcDbEntity
  8
Layer_1
 62
7
100
AcDbSpline
 70
8
 71
3
 72
8
 73
4
 74
0
 40
0
 40
0
 40
0
 40
0
 40
1
 40
1
 40
1
 40
1
 10
11.913269
 20
85.916539
 30
0.0
 10
11.899489
 20
85.884385
 30
0.0
 10
11.889154
 20
85.848785
 30
0.0
 10
11.882263
 20
85.809741
 30
0.0
  0
SPLINE
  5
276
100
AcDbEntity
  8
Layer_1
 62
7
100
AcDbSpline
 70
8
 71
3
 72
8
 73
4
 74
0
 40
0
 40
0
 40
0
 40
0
 40
1
 40
1
 40
1
 40
1
 10
11.882263
 20
85.809741
 30
0.0
 10
11.875373
 20
85.770696
 30
0.0
 10
11.863890
 20
85.735097
 30
0.0
 10
11.847812
 20
85.702943
 30
0.0
  0
SPLINE
  5
277
100
AcDbEntity
  8
Layer_1
 62
7
100
AcDbSpline
 70
8
 71
3
 72
8
 73
4
 74
0
 40
0
 40
0
 40
0
 40
0
 40
1
 40
1
 40
1
 40
1
 10
11.847812
 20
85.702943
 30
0.0
 10
11.834032
 20
85.670789
 30
0.0
 10
11.813362
 20
85.643228
 30
0.0
 10
11.785800
 20
85.620261
 30
0.0
  0
SPLINE
  5
278
100
AcDbEntity
  8
Layer_1
 62
7
100
AcDbSpline
 70
8
 71
3
 72
8
 73
4
 74
0
 40
0
 40
0
 40
0
 40
0
 40
1
 40
1
 40
1
 40
1
 10
11.785800
 20
85.620261
 30
0.0
 10
11.758240
 20
85.599590
 30
0.0
 10
11.716899
 20
85.589255
 30
0.0
 10
11.661777
 20
85.589255
 30
0.0
  0
LINE
  5
279
100
AcDbEntity
  8
Layer_1
 62
7
100
AcDbLine
 10
11.661777
 20
85.589255
 30
0.0
 11
11.220805
 21
85.589255
 31
0.0
  0
LINE
  5
27a
100
AcDbEntity
  8
Layer_1
 62
7
100
AcDbLine
 10
11.220805
 20
85.589255
 30
0.0
 11
11.220805
 21
85.589255
 31
0.0
  0
SPLINE
  5
27b
100
AcDbEntity
  8
Layer_1
 62
7
100
AcDbSpline
 70
8
 71
3
 72
8
 73
4
 74
0
 40
0
 40
0
 40
0
 40
0
 40
1
 40
1
 40
1
 40
1
 10
11.220805
 20
68.478124
 30
0.0
 10
11.156496
 20
68.478124
 30
0.0
 10
11.103672
 20
68.498795
 30
0.0
 10
11.062331
 20
68.540137
 30
0.0
  0
SPLINE
  5
27c
100
AcDbEntity
  8
Layer_1
 62
7
100
AcDbSpline
 70
8
 71
3
 72
8
 73
4
 74
0
 40
0
 40
0
 40
0
 40
0
 40
1
 40
1
 40
1
 40
1
 10
11.062331
 20
68.540137
 30
0.0
 10
11.020989
 20
68.581477
 30
0.0
 10
11.000319
 20
68.634301
 30
0.0
 10
11.000319
 20
68.698610
 30
0.0
  0
LINE
  5
27d
100
AcDbEntity
  8
Layer_1
 62
7
100
AcDbLine
 10
11.000319
 20
68.698610
 30
0.0
 11
11.000319
 21
69.139582
 31
0.0
  0
SPLINE
  5
27e
100
AcDbEntity
  8
Layer_1
 62
7
100
AcDbSpline
 70
8
 71
3
 72
8
 73
4
 74
0
 40
0
 40
0
 40
0
 40
0
 40
1
 40
1
 40
1
 40
1
 10
11.000319
 20
69.139582
 30
0.0
 10
11.000319
 20
69.190111
 30
0.0
 10
11.010654
 20
69.229156
 30
0.0
 10
11.031325
 20
69.256716
 30
0.0
  0
SPLINE
  5
27f
100
AcDbEntity
  8
Layer_1
 62
7
100
AcDbSpline
 70
8
 71
3
 72
8
 73
4
 74
0
 40
0
 40
0
 40
0
 40
0
 40
1
 40
1
 40
1
 40
1
 10
11.031325
 20
69.256716
 30
0.0
 10
11.054292
 20
69.284276
 30
0.0
 10
11.081853
 20
69.306094
 30
0.0
 10
11.114007
 20
69.322172
 30
0.0
  0
SPLINE
  5
280
100
AcDbEntity
  8
Layer_1
 62
7
100
AcDbSpline
 70
8
 71
3
 72
8
 73
4
 74
0
 40
0
 40
0
 40
0
 40
0
 40
1
 40
1
 40
1
 40
1
 10
11.114007
 20
69.322172
 30
0.0
 10
11.146161
 20
69.338258
 30
0.0
 10
11.181761
 20
69.350891
 30
0.0
 10
11.220805
 20
69.360068
 30
0.0
  0
SPLINE
  5
281
100
AcDbEntity
  8
Layer_1
 62
7
100
AcDbSpline
 70
8
 71
3
 72
8
 73
4
 74
0
 40
0
 40
0
 40
0
 40
0
 40
1
 40
1
 40
1
 40
1
 10
11.220805
 20
69.360068
 30
0.0
 10
11.259849
 20
69.369250
 30
0.0
 10
11.295449
 20
69.381882
 30
0.0
 10
11.327603
 20
69.397965
 30
0.0
  0
SPLINE
  5
282
100
AcDbEntity
  8
Layer_1
 62
7
100
AcDbSpline
 70
8
 71
3
 72
8
 73
4
 74
0
 40
0
 40
0
 40
0
 40
0
 40
1
 40
1
 40
1
 40
1
 10
11.327603
 20
69.397965
 30
0.0
 10
11.359757
 20
69.414052
 30
0.0
 10
11.386170
 20
69.435871
 30
0.0
 10
11.406840
 20
69.463421
 30
0.0
  0
SPLINE
  5
283
100
AcDbEntity
  8
Layer_1
 62
7
100
AcDbSpline
 70
8
 71
3
 72
8
 73
4
 74
0
 40
0
 40
0
 40
0
 40
0
 40
1
 40
1
 40
1
 40
1
 10
11.406840
 20
69.463421
 30
0.0
 10
11.429807
 20
69.490983
 30
0.0
 10
11.441291
 20
69.530027
 30
0.0
 10
11.441291
 20
69.580555
 30
0.0
  0
LINE
  5
284
100
AcDbEntity
  8
Layer_1
 62
7
100
AcDbLine
 10
11.441291
 20
69.580555
 30
0.0
 11
11.441291
 21
74.210763
 31
0.0
  0
SPLINE
  5
285
100
AcDbEntity
  8
Layer_1
 62
7
100
AcDbSpline
 70
8
 71
3
 72
8
 73
4
 74
0
 40
0
 40
0
 40
0
 40
0
 40
1
 40
1
 40
1
 40
1
 10
11.441291
 20
74.210763
 30
0.0
 10
11.441291
 20
74.270477
 30
0.0
 10
11.452775
 20
74.326748
 30
0.0
 10
11.475742
 20
74.379574
 30
0.0
  0
SPLINE
  5
286
100
AcDbEntity
  8
Layer_1
 62
7
100
AcDbSpline
 70
8
 71
3
 72
8
 73
4
 74
0
 40
0
 40
0
 40
0
 40
0
 40
1
 40
1
 40
1
 40
1
 10
11.475742
 20
74.379574
 30
0.0
 10
11.501006
 20
74.432399
 30
0.0
 10
11.533160
 20
74.478333
 30
0.0
 10
11.572205
 20
74.517378
 30
0.0
  0
SPLINE
  5
287
100
AcDbEntity
  8
Layer_1
 62
7
100
AcDbSpline
 70
8
 71
3
 72
8
 73
4
 74
0
 40
0
 40
0
 40
0
 40
0
 40
1
 40
1
 40
1
 40
1
 10
11.572205
 20
74.517378
 30
0.0
 10
11.613546
 20
74.558718
 30
0.0
 10
11.660629
 20
74.590871
 30
0.0
 10
11.713454
 20
74.613838
 30
0.0
  0
SPLINE
  5
288
100
AcDbEntity
  8
Layer_1
 62
7
100
AcDbSpline
 70
8
 71
3
 72
8
 73
4
 74
0
 40
0
 40
0
 40
0
 40
0
 40
1
 40
1
 40
1
 40
1
 10
11.713454
 20
74.613838
 30
0.0
 10
11.766278
 20
74.639103
 30
0.0
 10
11.822548
 20
74.651735
 30
0.0
 10
11.882263
 20
74.651735
 30
0.0
  0
LINE
  5
289
100
AcDbEntity
  8
Layer_1
 62
7
100
AcDbLine
 10
11.882263
 20
74.651735
 30
0.0
 11
15.851013
 21
74.651735
 31
0.0
  0
SPLINE
  5
28a
100
AcDbEntity
  8
Layer_1
 62
7
100
AcDbSpline
 70
8
 71
3
 72
8
 73
4
 74
0
 40
0
 40
0
 40
0
 40
0
 40
1
 40
1
 40
1
 40
1
 10
15.851013
 20
74.651735
 30
0.0
 10
15.910728
 20
74.651735
 30
0.0
 10
15.966998
 20
74.639103
 30
0.0
 10
16.019823
 20
74.613838
 30
0.0
  0
SPLINE
  5
28b
100
AcDbEntity
  8
Layer_1
 62
7
100
AcDbSpline
 70
8
 71
3
 72
8
 73
4
 74
0
 40
0
 40
0
 40
0
 40
0
 40
1
 40
1
 40
1
 40
1
 10
16.019823
 20
74.613838
 30
0.0
 10
16.072648
 20
74.590871
 30
0.0
 10
16.118582
 20
74.558718
 30
0.0
 10
16.157627
 20
74.517378
 30
0.0
  0
SPLINE
  5
28c
100
AcDbEntity
  8
Layer_1
 62
7
100
AcDbSpline
 70
8
 71
3
 72
8
 73
4
 74
0
 40
0
 40
0
 40
0
 40
0
 40
1
 40
1
 40
1
 40
1
 10
16.157627
 20
74.517378
 30
0.0
 10
16.198968
 20
74.478333
 30
0.0
 10
16.231122
 20
74.432399
 30
0.0
 10
16.254089
 20
74.379574
 30
0.0
  0
SPLINE
  5
28d
100
AcDbEntity
  8
Layer_1
 62
7
100
AcDbSpline
 70
8
 71
3
 72
8
 73
4
 74
0
 40
0
 40
0
 40
0
 40
0
 40
1
 40
1
 40
1
 40
1
 10
16.254089
 20
74.379574
 30
0.0
 10
16.279353
 20
74.326748
 30
0.0
 10
16.291985
 20
74.270477
 30
0.0
 10
16.291985
 20
74.210763
 30
0.0
  0
LINE
  5
28e
100
AcDbEntity
  8
Layer_1
 62
7
100
AcDbLine
 10
16.291985
 20
74.210763
 30
0.0
 11
16.291985
 21
68.698610
 31
0.0
  0
SPLINE
  5
28f
100
AcDbEntity
  8
Layer_1
 62
7
100
AcDbSpline
 70
8
 71
3
 72
8
 73
4
 74
0
 40
0
 40
0
 40
0
 40
0
 40
1
 40
1
 40
1
 40
1
 10
16.291985
 20
68.698610
 30
0.0
 10
16.291985
 20
68.638896
 30
0.0
 10
16.271315
 20
68.587219
 30
0.0
 10
16.229974
 20
68.543580
 30
0.0
  0
SPLINE
  5
290
100
AcDbEntity
  8
Layer_1
 62
7
100
AcDbSpline
 70
8
 71
3
 72
8
 73
4
 74
0
 40
0
 40
0
 40
0
 40
0
 40
1
 40
1
 40
1
 40
1
 10
16.229974
 20
68.543580
 30
0.0
 10
16.188633
 20
68.499943
 30
0.0
 10
16.135808
 20
68.478124
 30
0.0
 10
16.071499
 20
68.478124
 30
0.0
  0
LINE
  5
291
100
AcDbEntity
  8
Layer_1
 62
7
100
AcDbLine
 10
16.071499
 20
68.478124
 30
0.0
 11
15.630527
 21
68.478124
 31
0.0
  0
SPLINE
  5
292
100
AcDbEntity
  8
Layer_1
 62
7
100
AcDbSpline
 70
8
 71
3
 72
8
 73
4
 74
0
 40
0
 40
0
 40
0
 40
0
 40
1
 40
1
 40
1
 40
1
 10
15.630527
 20
68.478124
 30
0.0
 10
15.566219
 20
68.478124
 30
0.0
 10
15.513394
 20
68.498795
 30
0.0
 10
15.472053
 20
68.540137
 30
0.0
  0
SPLINE
  5
293
100
AcDbEntity
  8
Layer_1
 62
7
100
AcDbSpline
 70
8
 71
3
 72
8
 73
4
 74
0
 40
0
 40
0
 40
0
 40
0
 40
1
 40
1
 40
1
 40
1
 10
15.472053
 20
68.540137
 30
0.0
 10
15.430712
 20
68.581477
 30
0.0
 10
15.410041
 20
68.634301
 30
0.0
 10
15.410041
 20
68.698610
 30
0.0
  0
LINE
  5
294
100
AcDbEntity
  8
Layer_1
 62
7
100
AcDbLine
 10
15.410041
 20
68.698610
 30
0.0
 11
15.410041
 21
73.549305
 31
0.0
  0
SPLINE
  5
295
100
AcDbEntity
  8
Layer_1
 62
7
100
AcDbSpline
 70
8
 71
3
 72
8
 73
4
 74
0
 40
0
 40
0
 40
0
 40
0
 40
1
 40
1
 40
1
 40
1
 10
15.410041
 20
73.549305
 30
0.0
 10
15.410041
 20
73.609019
 30
0.0
 10
15.388222
 20
73.660696
 30
0.0
 10
15.344584
 20
73.704335
 30
0.0
  0
SPLINE
  5
296
100
AcDbEntity
  8
Layer_1
 62
7
100
AcDbSpline
 70
8
 71
3
 72
8
 73
4
 74
0
 40
0
 40
0
 40
0
 40
0
 40
1
 40
1
 40
1
 40
1
 10
15.344584
 20
73.704335
 30
0.0
 10
15.300946
 20
73.747972
 30
0.0
 10
15.249270
 20
73.769791
 30
0.0
 10
15.189555
 20
73.769791
 30
0.0
  0
LINE
  5
297
100
AcDbEntity
  8
Layer_1
 62
7
100
AcDbLine
 10
15.189555
 20
73.769791
 30
0.0
 11
12.543722
 21
73.769791
 31
0.0
  0
SPLINE
  5
298
100
AcDbEntity
  8
Layer_1
 62
7
100
AcDbSpline
 70
8
 71
3
 72
8
 73
4
 74
0
 40
0
 40
0
 40
0
 40
0
 40
1
 40
1
 40
1
 40
1
 10
12.543722
 20
73.769791
 30
0.0
 10
12.484007
 20
73.769791
 30
0.0
 10
12.432330
 20
73.749120
 30
0.0
 10
12.388692
 20
73.707778
 30
0.0
  0
SPLINE
  5
299
100
AcDbEntity
  8
Layer_1
 62
7
100
AcDbSpline
 70
8
 71
3
 72
8
 73
4
 74
0
 40
0
 40
0
 40
0
 40
0
 40
1
 40
1
 40
1
 40
1
 10
12.388692
 20
73.707778
 30
0.0
 10
12.345054
 20
73.666438
 30
0.0
 10
12.323235
 20
73.613614
 30
0.0
 10
12.323235
 20
73.549305
 30
0.0
  0
LINE
  5
29a
100
AcDbEntity
  8
Layer_1
 62
7
100
AcDbLine
 10
12.323235
 20
73.549305
 30
0.0
 11
12.323235
 21
68.919096
 31
0.0
  0
SPLINE
  5
29b
100
AcDbEntity
  8
Layer_1
 62
7
100
AcDbSpline
 70
8
 71
3
 72
8
 73
4
 74
0
 40
0
 40
0
 40
0
 40
0
 40
1
 40
1
 40
1
 40
1
 10
12.323235
 20
68.919096
 30
0.0
 10
12.323235
 20
68.859382
 30
0.0
 10
12.310603
 20
68.803112
 30
0.0
 10
12.285339
 20
68.750288
 30
0.0
  0
SPLINE
  5
29c
100
AcDbEntity
  8
Layer_1
 62
7
100
AcDbSpline
 70
8
 71
3
 72
8
 73
4
 74
0
 40
0
 40
0
 40
0
 40
0
 40
1
 40
1
 40
1
 40
1
 10
12.285339
 20
68.750288
 30
0.0
 10
12.262372
 20
68.697462
 30
0.0
 10
12.230218
 20
68.650378
 30
0.0
 10
12.188877
 20
68.609038
 30
0.0
  0
SPLINE
  5
29d
100
AcDbEntity
  8
Layer_1
 62
7
100
AcDbSpline
 70
8
 71
3
 72
8
 73
4
 74
0
 40
0
 40
0
 40
0
 40
0
 40
1
 40
1
 40
1
 40
1
 10
12.188877
 20
68.609038
 30
0.0
 10
12.149832
 20
68.569994
 30
0.0
 10
12.103898
 20
68.537839
 30
0.0
 10
12.051073
 20
68.512575
 30
0.0
  0
SPLINE
  5
29e
100
AcDbEntity
  8
Layer_1
 62
7
100
AcDbSpline
 70
8
 71
3
 72
8
 73
4
 74
0
 40
0
 40
0
 40
0
 40
0
 40
1
 40
1
 40
1
 40
1
 10
12.051073
 20
68.512575
 30
0.0
 10
11.998248
 20
68.489608
 30
0.0
 10
11.941978
 20
68.478124
 30
0.0
 10
11.882263
 20
68.478124
 30
0.0
  0
LINE
  5
29f
100
AcDbEntity
  8
Layer_1
 62
7
100
AcDbLine
 10
11.882263
 20
68.478124
 30
0.0
 11
11.220805
 21
68.478124
 31
0.0
  0
LINE
  5
2a0
100
AcDbEntity
  8
Layer_1
 62
7
100
AcDbLine
 10
11.220805
 20
68.478124
 30
0.0
 11
11.220805
 21
68.478124
 31
0.0
  0
SPLINE
  5
2a1
100
AcDbEntity
  8
Layer_1
 62
7
100
AcDbSpline
 70
8
 71
3
 72
8
 73
4
 74
0
 40
0
 40
0
 40
0
 40
0
 40
1
 40
1
 40
1
 40
1
 10
11.220805
 20
51.366994
 30
0.0
 10
11.156496
 20
51.366994
 30
0.0
 10
11.103672
 20
51.387664
 30
0.0
 10
11.062331
 20
51.429006
 30
0.0
  0
SPLINE
  5
2a2
100
AcDbEntity
  8
Layer_1
 62
7
100
AcDbSpline
 70
8
 71
3
 72
8
 73
4
 74
0
 40
0
 40
0
 40
0
 40
0
 40
1
 40
1
 40
1
 40
1
 10
11.062331
 20
51.429006
 30
0.0
 10
11.020989
 20
51.470346
 30
0.0
 10
11.000319
 20
51.523171
 30
0.0
 10
11.000319
 20
51.587480
 30
0.0
  0
LINE
  5
2a3
100
AcDbEntity
  8
Layer_1
 62
7
100
AcDbLine
 10
11.000319
 20
51.587480
 30
0.0
 11
11.000319
 21
52.028452
 31
0.0
  0
SPLINE
  5
2a4
100
AcDbEntity
  8
Layer_1
 62
7
100
AcDbSpline
 70
8
 71
3
 72
8
 73
4
 74
0
 40
0
 40
0
 40
0
 40
0
 40
1
 40
1
 40
1
 40
1
 10
11.000319
 20
52.028452
 30
0.0
 10
11.000319
 20
52.092761
 30
0.0
 10
11.022138
 20
52.145585
 30
0.0
 10
11.065776
 20
52.186925
 30
0.0
  0
SPLINE
  5
2a5
100
AcDbEntity
  8
Layer_1
 62
7
100
AcDbSpline
 70
8
 71
3
 72
8
 73
4
 74
0
 40
0
 40
0
 40
0
 40
0
 40
1
 40
1
 40
1
 40
1
 10
11.065776
 20
52.186925
 30
0.0
 10
11.109413
 20
52.228267
 30
0.0
 10
11.161090
 20
52.248938
 30
0.0
 10
11.220805
 20
52.248938
 30
0.0
  0
LINE
  5
2a6
100
AcDbEntity
  8
Layer_1
 62
7
100
AcDbLine
 10
11.220805
 20
52.248938
 30
0.0
 11
12.984694
 21
52.248938
 31
0.0
  0
SPLINE
  5
2a7
100
AcDbEntity
  8
Layer_1
 62
7
100
AcDbSpline
 70
8
 71
3
 72
8
 73
4
 74
0
 40
0
 40
0
 40
0
 40
0
 40
1
 40
1
 40
1
 40
1
 10
12.984694
 20
52.248938
 30
0.0
 10
13.049002
 20
52.248938
 30
0.0
 10
13.101827
 20
52.270757
 30
0.0
 10
13.143168
 20
52.314394
 30
0.0
  0
SPLINE
  5
2a8
100
AcDbEntity
  8
Layer_1
 62
7
100
AcDbSpline
 70
8
 71
3
 72
8
 73
4
 74
0
 40
0
 40
0
 40
0
 40
0
 40
1
 40
1
 40
1
 40
1
 10
13.143168
 20
52.314394
 30
0.0
 10
13.184509
 20
52.358033
 30
0.0
 10
13.205180
 20
52.409710
 30
0.0
 10
13.205180
 20
52.469424
 30
0.0
  0
LINE
  5
2a9
100
AcDbEntity
  8
Layer_1
 62
7
100
AcDbLine
 10
13.205180
 20
52.469424
 30
0.0
 11
13.205180
 21
53.792341
 31
0.0
  0
SPLINE
  5
2aa
100
AcDbEntity
  8
Layer_1
 62
7
100
AcDbSpline
 70
8
 71
3
 72
8
 73
4
 74
0
 40
0
 40
0
 40
0
 40
0
 40
1
 40
1
 40
1
 40
1
 10
13.205180
 20
53.792341
 30
0.0
 10
13.205180
 20
53.852055
 30
0.0
 10
13.183361
 20
53.903732
 30
0.0
 10
13.139723
 20
53.947371
 30
0.0
  0
SPLINE
  5
2ab
100
AcDbEntity
  8
Layer_1
 62
7
100
AcDbSpline
 70
8
 71
3
 72
8
 73
4
 74
0
 40
0
 40
0
 40
0
 40
0
 40
1
 40
1
 40
1
 40
1
 10
13.139723
 20
53.947371
 30
0.0
 10
13.096085
 20
53.991008
 30
0.0
 10
13.044409
 20
54.012827
 30
0.0
 10
12.984694
 20
54.012827
 30
0.0
  0
LINE
  5
2ac
100
AcDbEntity
  8
Layer_1
 62
7
100
AcDbLine
 10
12.984694
 20
54.012827
 30
0.0
 11
11.441291
 21
54.012827
 31
0.0
  0
SPLINE
  5
2ad
100
AcDbEntity
  8
Layer_1
 62
7
100
AcDbSpline
 70
8
 71
3
 72
8
 73
4
 74
0
 40
0
 40
0
 40
0
 40
0
 40
1
 40
1
 40
1
 40
1
 10
11.441291
 20
54.012827
 30
0.0
 10
11.379279
 20
54.012827
 30
0.0
 10
11.320713
 20
54.024310
 30
0.0
 10
11.265591
 20
54.047278
 30
0.0
  0
SPLINE
  5
2ae
100
AcDbEntity
  8
Layer_1
 62
7
100
AcDbSpline
 70
8
 71
3
 72
8
 73
4
 74
0
 40
0
 40
0
 40
0
 40
0
 40
1
 40
1
 40
1
 40
1
 10
11.265591
 20
54.047278
 30
0.0
 10
11.212766
 20
54.070245
 30
0.0
 10
11.166832
 20
54.101251
 30
0.0
 10
11.127787
 20
54.140295
 30
0.0
  0
SPLINE
  5
2af
100
AcDbEntity
  8
Layer_1
 62
7
100
AcDbSpline
 70
8
 71
3
 72
8
 73
4
 74
0
 40
0
 40
0
 40
0
 40
0
 40
1
 40
1
 40
1
 40
1
 10
11.127787
 20
54.140295
 30
0.0
 10
11.088743
 20
54.179340
 30
0.0
 10
11.057737
 20
54.225274
 30
0.0
 10
11.034770
 20
54.278099
 30
0.0
  0
SPLINE
  5
2b0
100
AcDbEntity
  8
Layer_1
 62
7
100
AcDbSpline
 70
8
 71
3
 72
8
 73
4
 74
0
 40
0
 40
0
 40
0
 40
0
 40
1
 40
1
 40
1
 40
1
 10
11.034770
 20
54.278099
 30
0.0
 10
11.011802
 20
54.333221
 30
0.0
 10
11.000319
 20
54.391787
 30
0.0
 10
11.000319
 20
54.453799
 30
0.0
  0
LINE
  5
2b1
100
AcDbEntity
  8
Layer_1
 62
7
100
AcDbLine
 10
11.000319
 20
54.453799
 30
0.0
 11
11.000319
 21
57.320119
 31
0.0
  0
SPLINE
  5
2b2
100
AcDbEntity
  8
Layer_1
 62
7
100
AcDbSpline
 70
8
 71
3
 72
8
 73
4
 74
0
 40
0
 40
0
 40
0
 40
0
 40
1
 40
1
 40
1
 40
1
 10
11.000319
 20
57.320119
 30
0.0
 10
11.000319
 20
57.384428
 30
0.0
 10
11.022138
 20
57.437252
 30
0.0
 10
11.065776
 20
57.478592
 30
0.0
  0
SPLINE
  5
2b3
100
AcDbEntity
  8
Layer_1
 62
7
100
AcDbSpline
 70
8
 71
3
 72
8
 73
4
 74
0
 40
0
 40
0
 40
0
 40
0
 40
1
 40
1
 40
1
 40
1
 10
11.065776
 20
57.478592
 30
0.0
 10
11.109413
 20
57.519934
 30
0.0
 10
11.161090
 20
57.540605
 30
0.0
 10
11.220805
 20
57.540605
 30
0.0
  0
LINE
  5
2b4
100
AcDbEntity
  8
Layer_1
 62
7
100
AcDbLine
 10
11.220805
 20
57.540605
 30
0.0
 11
11.661777
 21
57.540605
 31
0.0
  0
SPLINE
  5
2b5
100
AcDbEntity
  8
Layer_1
 62
7
100
AcDbSpline
 70
8
 71
3
 72
8
 73
4
 74
0
 40
0
 40
0
 40
0
 40
0
 40
1
 40
1
 40
1
 40
1
 10
11.661777
 20
57.540605
 30
0.0
 10
11.721492
 20
57.540605
 30
0.0
 10
11.773169
 20
57.518786
 30
0.0
 10
11.816807
 20
57.475149
 30
0.0
  0
SPLINE
  5
2b6
100
AcDbEntity
  8
Layer_1
 62
7
100
AcDbSpline
 70
8
 71
3
 72
8
 73
4
 74
0
 40
0
 40
0
 40
0
 40
0
 40
1
 40
1
 40
1
 40
1
 10
11.816807
 20
57.475149
 30
0.0
 10
11.860444
 20
57.431510
 30
0.0
 10
11.882263
 20
57.379833
 30
0.0
 10
11.882263
 20
57.320119
 30
0.0
  0
LINE
  5
2b7
100
AcDbEntity
  8
Layer_1
 62
7
100
AcDbLine
 10
11.882263
 20
57.320119
 30
0.0
 11
11.882263
 21
55.115257
 31
0.0
  0
SPLINE
  5
2b8
100
AcDbEntity
  8
Layer_1
 62
7
100
AcDbSpline
 70
8
 71
3
 72
8
 73
4
 74
0
 40
0
 40
0
 40
0
 40
0
 40
1
 40
1
 40
1
 40
1
 10
11.882263
 20
55.115257
 30
0.0
 10
11.882263
 20
55.050948
 30
0.0
 10
11.902934
 20
54.998124
 30
0.0
 10
11.944275
 20
54.956784
 30
0.0
  0
SPLINE
  5
2b9
100
AcDbEntity
  8
Layer_1
 62
7
100
AcDbSpline
 70
8
 71
3
 72
8
 73
4
 74
0
 40
0
 40
0
 40
0
 40
0
 40
1
 40
1
 40
1
 40
1
 10
11.944275
 20
54.956784
 30
0.0
 10
11.985616
 20
54.915442
 30
0.0
 10
12.038441
 20
54.894771
 30
0.0
 10
12.102749
 20
54.894771
 30
0.0
  0
LINE
  5
2ba
100
AcDbEntity
  8
Layer_1
 62
7
100
AcDbLine
 10
12.102749
 20
54.894771
 30
0.0
 11
15.189555
 21
54.894771
 31
0.0
  0
SPLINE
  5
2bb
100
AcDbEntity
  8
Layer_1
 62
7
100
AcDbSpline
 70
8
 71
3
 72
8
 73
4
 74
0
 40
0
 40
0
 40
0
 40
0
 40
1
 40
1
 40
1
 40
1
 10
15.189555
 20
54.894771
 30
0.0
 10
15.253863
 20
54.894771
 30
0.0
 10
15.306688
 20
54.916590
 30
0.0
 10
15.348029
 20
54.960227
 30
0.0
  0
SPLINE
  5
2bc
100
AcDbEntity
  8
Layer_1
 62
7
100
AcDbSpline
 70
8
 71
3
 72
8
 73
4
 74
0
 40
0
 40
0
 40
0
 40
0
 40
1
 40
1
 40
1
 40
1
 10
15.348029
 20
54.960227
 30
0.0
 10
15.389370
 20
55.003866
 30
0.0
 10
15.410041
 20
55.055543
 30
0.0
 10
15.410041
 20
55.115257
 30
0.0
  0
LINE
  5
2bd
100
AcDbEntity
  8
Layer_1
 62
7
100
AcDbLine
 10
15.410041
 20
55.115257
 30
0.0
 11
15.410041
 21
57.320119
 31
0.0
  0
SPLINE
  5
2be
100
AcDbEntity
  8
Layer_1
 62
7
100
AcDbSpline
 70
8
 71
3
 72
8
 73
4
 74
0
 40
0
 40
0
 40
0
 40
0
 40
1
 40
1
 40
1
 40
1
 10
15.410041
 20
57.320119
 30
0.0
 10
15.410041
 20
57.384428
 30
0.0
 10
15.431860
 20
57.437252
 30
0.0
 10
15.475498
 20
57.478592
 30
0.0
  0
SPLINE
  5
2bf
100
AcDbEntity
  8
Layer_1
 62
7
100
AcDbSpline
 70
8
 71
3
 72
8
 73
4
 74
0
 40
0
 40
0
 40
0
 40
0
 40
1
 40
1
 40
1
 40
1
 10
15.475498
 20
57.478592
 30
0.0
 10
15.519136
 20
57.519934
 30
0.0
 10
15.570812
 20
57.540605
 30
0.0
 10
15.630527
 20
57.540605
 30
0.0
  0
LINE
  5
2c0
100
AcDbEntity
  8
Layer_1
 62
7
100
AcDbLine
 10
15.630527
 20
57.540605
 30
0.0
 11
16.071499
 21
57.540605
 31
0.0
  0
SPLINE
  5
2c1
100
AcDbEntity
  8
Layer_1
 62
7
100
AcDbSpline
 70
8
 71
3
 72
8
 73
4
 74
0
 40
0
 40
0
 40
0
 40
0
 40
1
 40
1
 40
1
 40
1
 10
16.071499
 20
57.540605
 30
0.0
 10
16.131214
 20
57.540605
 30
0.0
 10
16.182891
 20
57.518786
 30
0.0
 10
16.226529
 20
57.475149
 30
0.0
  0
SPLINE
  5
2c2
100
AcDbEntity
  8
Layer_1
 62
7
100
AcDbSpline
 70
8
 71
3
 72
8
 73
4
 74
0
 40
0
 40
0
 40
0
 40
0
 40
1
 40
1
 40
1
 40
1
 10
16.226529
 20
57.475149
 30
0.0
 10
16.270167
 20
57.431510
 30
0.0
 10
16.291985
 20
57.379833
 30
0.0
 10
16.291985
 20
57.320119
 30
0.0
  0
LINE
  5
2c3
100
AcDbEntity
  8
Layer_1
 62
7
100
AcDbLine
 10
16.291985
 20
57.320119
 30
0.0
 11
16.291985
 21
54.453799
 31
0.0
  0
SPLINE
  5
2c4
100
AcDbEntity
  8
Layer_1
 62
7
100
AcDbSpline
 70
8
 71
3
 72
8
 73
4
 74
0
 40
0
 40
0
 40
0
 40
0
 40
1
 40
1
 40
1
 40
1
 10
16.291985
 20
54.453799
 30
0.0
 10
16.291985
 20
54.394085
 30
0.0
 10
16.279353
 20
54.337815
 30
0.0
 10
16.254089
 20
54.284991
 30
0.0
  0
SPLINE
  5
2c5
100
AcDbEntity
  8
Layer_1
 62
7
100
AcDbSpline
 70
8
 71
3
 72
8
 73
4
 74
0
 40
0
 40
0
 40
0
 40
0
 40
1
 40
1
 40
1
 40
1
 10
16.254089
 20
54.284991
 30
0.0
 10
16.231122
 20
54.232166
 30
0.0
 10
16.198968
 20
54.185083
 30
0.0
 10
16.157627
 20
54.143741
 30
0.0
  0
SPLINE
  5
2c6
100
AcDbEntity
  8
Layer_1
 62
7
100
AcDbSpline
 70
8
 71
3
 72
8
 73
4
 74
0
 40
0
 40
0
 40
0
 40
0
 40
1
 40
1
 40
1
 40
1
 10
16.157627
 20
54.143741
 30
0.0
 10
16.118582
 20
54.104697
 30
0.0
 10
16.072648
 20
54.072542
 30
0.0
 10
16.019823
 20
54.047278
 30
0.0
  0
SPLINE
  5
2c7
100
AcDbEntity
  8
Layer_1
 62
7
100
AcDbSpline
 70
8
 71
3
 72
8
 73
4
 74
0
 40
0
 40
0
 40
0
 40
0
 40
1
 40
1
 40
1
 40
1
 10
16.019823
 20
54.047278
 30
0.0
 10
15.966998
 20
54.024310
 30
0.0
 10
15.910728
 20
54.012827
 30
0.0
 10
15.851013
 20
54.012827
 30
0.0
  0
LINE
  5
2c8
100
AcDbEntity
  8
Layer_1
 62
7
100
AcDbLine
 10
15.851013
 20
54.012827
 30
0.0
 11
14.307610
 21
54.012827
 31
0.0
  0
SPLINE
  5
2c9
100
AcDbEntity
  8
Layer_1
 62
7
100
AcDbSpline
 70
8
 71
3
 72
8
 73
4
 74
0
 40
0
 40
0
 40
0
 40
0
 40
1
 40
1
 40
1
 40
1
 10
14.307610
 20
54.012827
 30
0.0
 10
14.247895
 20
54.012827
 30
0.0
 10
14.196219
 20
53.992156
 30
0.0
 10
14.152581
 20
53.950814
 30
0.0
  0
SPLINE
  5
2ca
100
AcDbEntity
  8
Layer_1
 62
7
100
AcDbSpline
 70
8
 71
3
 72
8
 73
4
 74
0
 40
0
 40
0
 40
0
 40
0
 40
1
 40
1
 40
1
 40
1
 10
14.152581
 20
53.950814
 30
0.0
 10
14.108943
 20
53.909474
 30
0.0
 10
14.087124
 20
53.856650
 30
0.0
 10
14.087124
 20
53.792341
 30
0.0
  0
LINE
  5
2cb
100
AcDbEntity
  8
Layer_1
 62
7
100
AcDbLine
 10
14.087124
 20
53.792341
 30
0.0
 11
14.087124
 21
52.469424
 31
0.0
  0
SPLINE
  5
2cc
100
AcDbEntity
  8
Layer_1
 62
7
100
AcDbSpline
 70
8
 71
3
 72
8
 73
4
 74
0
 40
0
 40
0
 40
0
 40
0
 40
1
 40
1
 40
1
 40
1
 10
14.087124
 20
52.469424
 30
0.0
 10
14.087124
 20
52.405115
 30
0.0
 10
14.107795
 20
52.352291
 30
0.0
 10
14.149136
 20
52.310951
 30
0.0
  0
SPLINE
  5
2cd
100
AcDbEntity
  8
Layer_1
 62
7
100
AcDbSpline
 70
8
 71
3
 72
8
 73
4
 74
0
 40
0
 40
0
 40
0
 40
0
 40
1
 40
1
 40
1
 40
1
 10
14.149136
 20
52.310951
 30
0.0
 10
14.190477
 20
52.269609
 30
0.0
 10
14.243302
 20
52.248938
 30
0.0
 10
14.307610
 20
52.248938
 30
0.0
  0
LINE
  5
2ce
100
AcDbEntity
  8
Layer_1
 62
7
100
AcDbLine
 10
14.307610
 20
52.248938
 30
0.0
 11
16.071499
 21
52.248938
 31
0.0
  0
SPLINE
  5
2cf
100
AcDbEntity
  8
Layer_1
 62
7
100
AcDbSpline
 70
8
 71
3
 72
8
 73
4
 74
0
 40
0
 40
0
 40
0
 40
0
 40
1
 40
1
 40
1
 40
1
 10
16.071499
 20
52.248938
 30
0.0
 10
16.131214
 20
52.248938
 30
0.0
 10
16.182891
 20
52.227119
 30
0.0
 10
16.226529
 20
52.183482
 30
0.0
  0
SPLINE
  5
2d0
100
AcDbEntity
  8
Layer_1
 62
7
100
AcDbSpline
 70
8
 71
3
 72
8
 73
4
 74
0
 40
0
 40
0
 40
0
 40
0
 40
1
 40
1
 40
1
 40
1
 10
16.226529
 20
52.183482
 30
0.0
 10
16.270167
 20
52.139843
 30
0.0
 10
16.291985
 20
52.088166
 30
0.0
 10
16.291985
 20
52.028452
 30
0.0
  0
LINE
  5
2d1
100
AcDbEntity
  8
Layer_1
 62
7
100
AcDbLine
 10
16.291985
 20
52.028452
 30
0.0
 11
16.291985
 21
51.587480
 31
0.0
  0
SPLINE
  5
2d2
100
AcDbEntity
  8
Layer_1
 62
7
100
AcDbSpline
 70
8
 71
3
 72
8
 73
4
 74
0
 40
0
 40
0
 40
0
 40
0
 40
1
 40
1
 40
1
 40
1
 10
16.291985
 20
51.587480
 30
0.0
 10
16.291985
 20
51.527765
 30
0.0
 10
16.271315
 20
51.476088
 30
0.0
 10
16.229974
 20
51.432449
 30
0.0
  0
SPLINE
  5
2d3
100
AcDbEntity
  8
Layer_1
 62
7
100
AcDbSpline
 70
8
 71
3
 72
8
 73
4
 74
0
 40
0
 40
0
 40
0
 40
0
 40
1
 40
1
 40
1
 40
1
 10
16.229974
 20
51.432449
 30
0.0
 10
16.188633
 20
51.388812
 30
0.0
 10
16.135808
 20
51.366994
 30
0.0
 10
16.071499
 20
51.366994
 30
0.0
  0
LINE
  5
2d4
100
AcDbEntity
  8
Layer_1
 62
7
100
AcDbLine
 10
16.071499
 20
51.366994
 30
0.0
 11
11.220805
 21
51.366994
 31
0.0
  0
LINE
  5
2d5
100
AcDbEntity
  8
Layer_1
 62
7
100
AcDbLine
 10
11.220805
 20
51.366994
 30
0.0
 11
11.220805
 21
51.366994
 31
0.0
  0
SPLINE
  5
2d6
100
AcDbEntity
  8
Layer_1
 62
7
100
AcDbSpline
 70
8
 71
3
 72
8
 73
4
 74
0
 40
0
 40
0
 40
0
 40
0
 40
1
 40
1
 40
1
 40
1
 10
12.984694
 20
36.901694
 30
0.0
 10
13.049002
 20
36.901694
 30
0.0
 10
13.101827
 20
36.923512
 30
0.0
 10
13.143168
 20
36.967149
 30
0.0
  0
SPLINE
  5
2d7
100
AcDbEntity
  8
Layer_1
 62
7
100
AcDbSpline
 70
8
 71
3
 72
8
 73
4
 74
0
 40
0
 40
0
 40
0
 40
0
 40
1
 40
1
 40
1
 40
1
 10
13.143168
 20
36.967149
 30
0.0
 10
13.184509
 20
37.010787
 30
0.0
 10
13.205180
 20
37.062463
 30
0.0
 10
13.205180
 20
37.122180
 30
0.0
  0
LINE
  5
2d8
100
AcDbEntity
  8
Layer_1
 62
7
100
AcDbLine
 10
13.205180
 20
37.122180
 30
0.0
 11
13.205180
 21
39.327041
 31
0.0
  0
SPLINE
  5
2d9
100
AcDbEntity
  8
Layer_1
 62
7
100
AcDbSpline
 70
8
 71
3
 72
8
 73
4
 74
0
 40
0
 40
0
 40
0
 40
0
 40
1
 40
1
 40
1
 40
1
 10
13.205180
 20
39.327041
 30
0.0
 10
13.205180
 20
39.386755
 30
0.0
 10
13.183361
 20
39.438431
 30
0.0
 10
13.139723
 20
39.482068
 30
0.0
  0
SPLINE
  5
2da
100
AcDbEntity
  8
Layer_1
 62
7
100
AcDbSpline
 70
8
 71
3
 72
8
 73
4
 74
0
 40
0
 40
0
 40
0
 40
0
 40
1
 40
1
 40
1
 40
1
 10
13.139723
 20
39.482068
 30
0.0
 10
13.096085
 20
39.525707
 30
0.0
 10
13.044409
 20
39.547527
 30
0.0
 10
12.984694
 20
39.547527
 30
0.0
  0
LINE
  5
2db
100
AcDbEntity
  8
Layer_1
 62
7
100
AcDbLine
 10
12.984694
 20
39.547527
 30
0.0
 11
12.102749
 21
39.547527
 31
0.0
  0
SPLINE
  5
2dc
100
AcDbEntity
  8
Layer_1
 62
7
100
AcDbSpline
 70
8
 71
3
 72
8
 73
4
 74
0
 40
0
 40
0
 40
0
 40
0
 40
1
 40
1
 40
1
 40
1
 10
12.102749
 20
39.547527
 30
0.0
 10
12.043034
 20
39.547527
 30
0.0
 10
11.991358
 20
39.526856
 30
0.0
 10
11.947720
 20
39.485514
 30
0.0
  0
SPLINE
  5
2dd
100
AcDbEntity
  8
Layer_1
 62
7
100
AcDbSpline
 70
8
 71
3
 72
8
 73
4
 74
0
 40
0
 40
0
 40
0
 40
0
 40
1
 40
1
 40
1
 40
1
 10
11.947720
 20
39.485514
 30
0.0
 10
11.904082
 20
39.444172
 30
0.0
 10
11.882263
 20
39.391348
 30
0.0
 10
11.882263
 20
39.327041
 30
0.0
  0
LINE
  5
2de
100
AcDbEntity
  8
Layer_1
 62
7
100
AcDbLine
 10
11.882263
 20
39.327041
 30
0.0
 11
11.882263
 21
37.122180
 31
0.0
  0
SPLINE
  5
2df
100
AcDbEntity
  8
Layer_1
 62
7
100
AcDbSpline
 70
8
 71
3
 72
8
 73
4
 74
0
 40
0
 40
0
 40
0
 40
0
 40
1
 40
1
 40
1
 40
1
 10
11.882263
 20
37.122180
 30
0.0
 10
11.882263
 20
37.057871
 30
0.0
 10
11.902934
 20
37.005045
 30
0.0
 10
11.944275
 20
36.963703
 30
0.0
  0
SPLINE
  5
2e0
100
AcDbEntity
  8
Layer_1
 62
7
100
AcDbSpline
 70
8
 71
3
 72
8
 73
4
 74
0
 40
0
 40
0
 40
0
 40
0
 40
1
 40
1
 40
1
 40
1
 10
11.944275
 20
36.963703
 30
0.0
 10
11.985616
 20
36.922363
 30
0.0
 10
12.038441
 20
36.901694
 30
0.0
 10
12.102749
 20
36.901694
 30
0.0
  0
LINE
  5
2e1
100
AcDbEntity
  8
Layer_1
 62
7
100
AcDbLine
 10
12.102749
 20
36.901694
 30
0.0
 11
12.984694
 21
36.901694
 31
0.0
  0
LINE
  5
2e2
100
AcDbEntity
  8
Layer_1
 62
7
100
AcDbLine
 10
12.984694
 20
36.901694
 30
0.0
 11
12.984694
 21
36.901694
 31
0.0
  0
SPLINE
  5
2e3
100
AcDbEntity
  8
Layer_1
 62
7
100
AcDbSpline
 70
8
 71
3
 72
8
 73
4
 74
0
 40
0
 40
0
 40
0
 40
0
 40
1
 40
1
 40
1
 40
1
 10
11.220805
 20
34.255860
 30
0.0
 10
11.156496
 20
34.255860
 30
0.0
 10
11.103672
 20
34.276530
 30
0.0
 10
11.062331
 20
34.317870
 30
0.0
  0
SPLINE
  5
2e4
100
AcDbEntity
  8
Layer_1
 62
7
100
AcDbSpline
 70
8
 71
3
 72
8
 73
4
 74
0
 40
0
 40
0
 40
0
 40
0
 40
1
 40
1
 40
1
 40
1
 10
11.062331
 20
34.317870
 30
0.0
 10
11.020989
 20
34.359212
 30
0.0
 10
11.000319
 20
34.412037
 30
0.0
 10
11.000319
 20
34.476346
 30
0.0
  0
LINE
  5
2e5
100
AcDbEntity
  8
Layer_1
 62
7
100
AcDbLine
 10
11.000319
 20
34.476346
 30
0.0
 11
11.000319
 21
34.917319
 31
0.0
  0
SPLINE
  5
2e6
100
AcDbEntity
  8
Layer_1
 62
7
100
AcDbSpline
 70
8
 71
3
 72
8
 73
4
 74
0
 40
0
 40
0
 40
0
 40
0
 40
1
 40
1
 40
1
 40
1
 10
11.000319
 20
34.917319
 30
0.0
 10
11.000319
 20
34.981626
 30
0.0
 10
11.022138
 20
35.034450
 30
0.0
 10
11.065776
 20
35.075792
 30
0.0
  0
SPLINE
  5
2e7
100
AcDbEntity
  8
Layer_1
 62
7
100
AcDbSpline
 70
8
 71
3
 72
8
 73
4
 74
0
 40
0
 40
0
 40
0
 40
0
 40
1
 40
1
 40
1
 40
1
 10
11.065776
 20
35.075792
 30
0.0
 10
11.109413
 20
35.117134
 30
0.0
 10
11.161090
 20
35.137805
 30
0.0
 10
11.220805
 20
35.137805
 30
0.0
  0
LINE
  5
2e8
100
AcDbEntity
  8
Layer_1
 62
7
100
AcDbLine
 10
11.220805
 20
35.137805
 30
0.0
 11
15.189555
 21
35.137805
 31
0.0
  0
SPLINE
  5
2e9
100
AcDbEntity
  8
Layer_1
 62
7
100
AcDbSpline
 70
8
 71
3
 72
8
 73
4
 74
0
 40
0
 40
0
 40
0
 40
0
 40
1
 40
1
 40
1
 40
1
 10
15.189555
 20
35.137805
 30
0.0
 10
15.253863
 20
35.137805
 30
0.0
 10
15.306688
 20
35.159623
 30
0.0
 10
15.348029
 20
35.203260
 30
0.0
  0
SPLINE
  5
2ea
100
AcDbEntity
  8
Layer_1
 62
7
100
AcDbSpline
 70
8
 71
3
 72
8
 73
4
 74
0
 40
0
 40
0
 40
0
 40
0
 40
1
 40
1
 40
1
 40
1
 10
15.348029
 20
35.203260
 30
0.0
 10
15.389370
 20
35.246898
 30
0.0
 10
15.410041
 20
35.298574
 30
0.0
 10
15.410041
 20
35.358291
 30
0.0
  0
LINE
  5
2eb
100
AcDbEntity
  8
Layer_1
 62
7
100
AcDbLine
 10
15.410041
 20
35.358291
 30
0.0
 11
15.410041
 21
36.681207
 31
0.0
  0
SPLINE
  5
2ec
100
AcDbEntity
  8
Layer_1
 62
7
100
AcDbSpline
 70
8
 71
3
 72
8
 73
4
 74
0
 40
0
 40
0
 40
0
 40
0
 40
1
 40
1
 40
1
 40
1
 10
15.410041
 20
36.681207
 30
0.0
 10
15.410041
 20
36.740922
 30
0.0
 10
15.388222
 20
36.792598
 30
0.0
 10
15.344584
 20
36.836235
 30
0.0
  0
SPLINE
  5
2ed
100
AcDbEntity
  8
Layer_1
 62
7
100
AcDbSpline
 70
8
 71
3
 72
8
 73
4
 74
0
 40
0
 40
0
 40
0
 40
0
 40
1
 40
1
 40
1
 40
1
 10
15.344584
 20
36.836235
 30
0.0
 10
15.300946
 20
36.879874
 30
0.0
 10
15.249270
 20
36.901694
 30
0.0
 10
15.189555
 20
36.901694
 30
0.0
  0
LINE
  5
2ee
100
AcDbEntity
  8
Layer_1
 62
7
100
AcDbLine
 10
15.189555
 20
36.901694
 30
0.0
 11
14.307610
 21
36.901694
 31
0.0
  0
SPLINE
  5
2ef
100
AcDbEntity
  8
Layer_1
 62
7
100
AcDbSpline
 70
8
 71
3
 72
8
 73
4
 74
0
 40
0
 40
0
 40
0
 40
0
 40
1
 40
1
 40
1
 40
1
 10
14.307610
 20
36.901694
 30
0.0
 10
14.247895
 20
36.901694
 30
0.0
 10
14.196219
 20
36.881023
 30
0.0
 10
14.152581
 20
36.839681
 30
0.0
  0
SPLINE
  5
2f0
100
AcDbEntity
  8
Layer_1
 62
7
100
AcDbSpline
 70
8
 71
3
 72
8
 73
4
 74
0
 40
0
 40
0
 40
0
 40
0
 40
1
 40
1
 40
1
 40
1
 10
14.152581
 20
36.839681
 30
0.0
 10
14.108943
 20
36.798339
 30
0.0
 10
14.087124
 20
36.745515
 30
0.0
 10
14.087124
 20
36.681207
 30
0.0
  0
LINE
  5
2f1
100
AcDbEntity
  8
Layer_1
 62
7
100
AcDbLine
 10
14.087124
 20
36.681207
 30
0.0
 11
14.087124
 21
36.460721
 31
0.0
  0
SPLINE
  5
2f2
100
AcDbEntity
  8
Layer_1
 62
7
100
AcDbSpline
 70
8
 71
3
 72
8
 73
4
 74
0
 40
0
 40
0
 40
0
 40
0
 40
1
 40
1
 40
1
 40
1
 10
14.087124
 20
36.460721
 30
0.0
 10
14.087124
 20
36.401005
 30
0.0
 10
14.074492
 20
36.344735
 30
0.0
 10
14.049228
 20
36.291910
 30
0.0
  0
SPLINE
  5
2f3
100
AcDbEntity
  8
Layer_1
 62
7
100
AcDbSpline
 70
8
 71
3
 72
8
 73
4
 74
0
 40
0
 40
0
 40
0
 40
0
 40
1
 40
1
 40
1
 40
1
 10
14.049228
 20
36.291910
 30
0.0
 10
14.026261
 20
36.239086
 30
0.0
 10
13.994107
 20
36.192002
 30
0.0
 10
13.952766
 20
36.150661
 30
0.0
  0
SPLINE
  5
2f4
100
AcDbEntity
  8
Layer_1
 62
7
100
AcDbSpline
 70
8
 71
3
 72
8
 73
4
 74
0
 40
0
 40
0
 40
0
 40
0
 40
1
 40
1
 40
1
 40
1
 10
13.952766
 20
36.150661
 30
0.0
 10
13.913721
 20
36.111616
 30
0.0
 10
13.867787
 20
36.079463
 30
0.0
 10
13.814962
 20
36.054200
 30
0.0
  0
SPLINE
  5
2f5
100
AcDbEntity
  8
Layer_1
 62
7
100
AcDbSpline
 70
8
 71
3
 72
8
 73
4
 74
0
 40
0
 40
0
 40
0
 40
0
 40
1
 40
1
 40
1
 40
1
 10
13.814962
 20
36.054200
 30
0.0
 10
13.762137
 20
36.031233
 30
0.0
 10
13.705867
 20
36.019749
 30
0.0
 10
13.646152
 20
36.019749
 30
0.0
  0
LINE
  5
2f6
100
AcDbEntity
  8
Layer_1
 62
7
100
AcDbLine
 10
13.646152
 20
36.019749
 30
0.0
 11
11.441291
 21
36.019749
 31
0.0
  0
SPLINE
  5
2f7
100
AcDbEntity
  8
Layer_1
 62
7
100
AcDbSpline
 70
8
 71
3
 72
8
 73
4
 74
0
 40
0
 40
0
 40
0
 40
0
 40
1
 40
1
 40
1
 40
1
 10
11.441291
 20
36.019749
 30
0.0
 10
11.379279
 20
36.019749
 30
0.0
 10
11.320713
 20
36.031233
 30
0.0
 10
11.265591
 20
36.054200
 30
0.0
  0
SPLINE
  5
2f8
100
AcDbEntity
  8
Layer_1
 62
7
100
AcDbSpline
 70
8
 71
3
 72
8
 73
4
 74
0
 40
0
 40
0
 40
0
 40
0
 40
1
 40
1
 40
1
 40
1
 10
11.265591
 20
36.054200
 30
0.0
 10
11.212766
 20
36.077167
 30
0.0
 10
11.166832
 20
36.108173
 30
0.0
 10
11.127787
 20
36.147218
 30
0.0
  0
SPLINE
  5
2f9
100
AcDbEntity
  8
Layer_1
 62
7
100
AcDbSpline
 70
8
 71
3
 72
8
 73
4
 74
0
 40
0
 40
0
 40
0
 40
0
 40
1
 40
1
 40
1
 40
1
 10
11.127787
 20
36.147218
 30
0.0
 10
11.088743
 20
36.186262
 30
0.0
 10
11.057737
 20
36.232197
 30
0.0
 10
11.034770
 20
36.285021
 30
0.0
  0
SPLINE
  5
2fa
100
AcDbEntity
  8
Layer_1
 62
7
100
AcDbSpline
 70
8
 71
3
 72
8
 73
4
 74
0
 40
0
 40
0
 40
0
 40
0
 40
1
 40
1
 40
1
 40
1
 10
11.034770
 20
36.285021
 30
0.0
 10
11.011802
 20
36.340143
 30
0.0
 10
11.000319
 20
36.398710
 30
0.0
 10
11.000319
 20
36.460721
 30
0.0
  0
LINE
  5
2fb
100
AcDbEntity
  8
Layer_1
 62
7
100
AcDbLine
 10
11.000319
 20
36.460721
 30
0.0
 11
11.000319
 21
39.988499
 31
0.0
  0
SPLINE
  5
2fc
100
AcDbEntity
  8
Layer_1
 62
7
100
AcDbSpline
 70
8
 71
3
 72
8
 73
4
 74
0
 40
0
 40
0
 40
0
 40
0
 40
1
 40
1
 40
1
 40
1
 10
11.000319
 20
39.988499
 30
0.0
 10
11.000319
 20
40.048214
 30
0.0
 10
11.011802
 20
40.104483
 30
0.0
 10
11.034770
 20
40.157307
 30
0.0
  0
SPLINE
  5
2fd
100
AcDbEntity
  8
Layer_1
 62
7
100
AcDbSpline
 70
8
 71
3
 72
8
 73
4
 74
0
 40
0
 40
0
 40
0
 40
0
 40
1
 40
1
 40
1
 40
1
 10
11.034770
 20
40.157307
 30
0.0
 10
11.060034
 20
40.210132
 30
0.0
 10
11.092188
 20
40.256066
 30
0.0
 10
11.131232
 20
40.295111
 30
0.0
  0
SPLINE
  5
2fe
100
AcDbEntity
  8
Layer_1
 62
7
100
AcDbSpline
 70
8
 71
3
 72
8
 73
4
 74
0
 40
0
 40
0
 40
0
 40
0
 40
1
 40
1
 40
1
 40
1
 10
11.131232
 20
40.295111
 30
0.0
 10
11.172574
 20
40.336453
 30
0.0
 10
11.219657
 20
40.368607
 30
0.0
 10
11.272481
 20
40.391575
 30
0.0
  0
SPLINE
  5
2ff
100
AcDbEntity
  8
Layer_1
 62
7
100
AcDbSpline
 70
8
 71
3
 72
8
 73
4
 74
0
 40
0
 40
0
 40
0
 40
0
 40
1
 40
1
 40
1
 40
1
 10
11.272481
 20
40.391575
 30
0.0
 10
11.325306
 20
40.416839
 30
0.0
 10
11.381576
 20
40.429471
 30
0.0
 10
11.441291
 20
40.429471
 30
0.0
  0
LINE
  5
300
100
AcDbEntity
  8
Layer_1
 62
7
100
AcDbLine
 10
11.441291
 20
40.429471
 30
0.0
 11
13.646152
 21
40.429471
 31
0.0
  0
SPLINE
  5
301
100
AcDbEntity
  8
Layer_1
 62
7
100
AcDbSpline
 70
8
 71
3
 72
8
 73
4
 74
0
 40
0
 40
0
 40
0
 40
0
 40
1
 40
1
 40
1
 40
1
 10
13.646152
 20
40.429471
 30
0.0
 10
13.705867
 20
40.429471
 30
0.0
 10
13.762137
 20
40.416839
 30
0.0
 10
13.814962
 20
40.391575
 30
0.0
  0
SPLINE
  5
302
100
AcDbEntity
  8
Layer_1
 62
7
100
AcDbSpline
 70
8
 71
3
 72
8
 73
4
 74
0
 40
0
 40
0
 40
0
 40
0
 40
1
 40
1
 40
1
 40
1
 10
13.814962
 20
40.391575
 30
0.0
 10
13.867787
 20
40.368607
 30
0.0
 10
13.913721
 20
40.336453
 30
0.0
 10
13.952766
 20
40.295111
 30
0.0
  0
SPLINE
  5
303
100
AcDbEntity
  8
Layer_1
 62
7
100
AcDbSpline
 70
8
 71
3
 72
8
 73
4
 74
0
 40
0
 40
0
 40
0
 40
0
 40
1
 40
1
 40
1
 40
1
 10
13.952766
 20
40.295111
 30
0.0
 10
13.994107
 20
40.256066
 30
0.0
 10
14.026261
 20
40.210132
 30
0.0
 10
14.049228
 20
40.157307
 30
0.0
  0
SPLINE
  5
304
100
AcDbEntity
  8
Layer_1
 62
7
100
AcDbSpline
 70
8
 71
3
 72
8
 73
4
 74
0
 40
0
 40
0
 40
0
 40
0
 40
1
 40
1
 40
1
 40
1
 10
14.049228
 20
40.157307
 30
0.0
 10
14.074492
 20
40.104483
 30
0.0
 10
14.087124
 20
40.048214
 30
0.0
 10
14.087124
 20
39.988499
 30
0.0
  0
LINE
  5
305
100
AcDbEntity
  8
Layer_1
 62
7
100
AcDbLine
 10
14.087124
 20
39.988499
 30
0.0
 11
14.087124
 21
38.004124
 31
0.0
  0
SPLINE
  5
306
100
AcDbEntity
  8
Layer_1
 62
7
100
AcDbSpline
 70
8
 71
3
 72
8
 73
4
 74
0
 40
0
 40
0
 40
0
 40
0
 40
1
 40
1
 40
1
 40
1
 10
14.087124
 20
38.004124
 30
0.0
 10
14.087124
 20
37.939815
 30
0.0
 10
14.107795
 20
37.886990
 30
0.0
 10
14.149136
 20
37.845648
 30
0.0
  0
SPLINE
  5
307
100
AcDbEntity
  8
Layer_1
 62
7
100
AcDbSpline
 70
8
 71
3
 72
8
 73
4
 74
0
 40
0
 40
0
 40
0
 40
0
 40
1
 40
1
 40
1
 40
1
 10
14.149136
 20
37.845648
 30
0.0
 10
14.190477
 20
37.804308
 30
0.0
 10
14.243302
 20
37.783638
 30
0.0
 10
14.307610
 20
37.783638
 30
0.0
  0
LINE
  5
308
100
AcDbEntity
  8
Layer_1
 62
7
100
AcDbLine
 10
14.307610
 20
37.783638
 30
0.0
 11
15.851013
 21
37.783638
 31
0.0
  0
SPLINE
  5
309
100
AcDbEntity
  8
Layer_1
 62
7
100
AcDbSpline
 70
8
 71
3
 72
8
 73
4
 74
0
 40
0
 40
0
 40
0
 40
0
 40
1
 40
1
 40
1
 40
1
 10
15.851013
 20
37.783638
 30
0.0
 10
15.910728
 20
37.783638
 30
0.0
 10
15.966998
 20
37.771006
 30
0.0
 10
16.019823
 20
37.745741
 30
0.0
  0
SPLINE
  5
30a
100
AcDbEntity
  8
Layer_1
 62
7
100
AcDbSpline
 70
8
 71
3
 72
8
 73
4
 74
0
 40
0
 40
0
 40
0
 40
0
 40
1
 40
1
 40
1
 40
1
 10
16.019823
 20
37.745741
 30
0.0
 10
16.072648
 20
37.722774
 30
0.0
 10
16.118582
 20
37.690619
 30
0.0
 10
16.157627
 20
37.649278
 30
0.0
  0
SPLINE
  5
30b
100
AcDbEntity
  8
Layer_1
 62
7
100
AcDbSpline
 70
8
 71
3
 72
8
 73
4
 74
0
 40
0
 40
0
 40
0
 40
0
 40
1
 40
1
 40
1
 40
1
 10
16.157627
 20
37.649278
 30
0.0
 10
16.198968
 20
37.610233
 30
0.0
 10
16.231122
 20
37.564299
 30
0.0
 10
16.254089
 20
37.511474
 30
0.0
  0
SPLINE
  5
30c
100
AcDbEntity
  8
Layer_1
 62
7
100
AcDbSpline
 70
8
 71
3
 72
8
 73
4
 74
0
 40
0
 40
0
 40
0
 40
0
 40
1
 40
1
 40
1
 40
1
 10
16.254089
 20
37.511474
 30
0.0
 10
16.279353
 20
37.458650
 30
0.0
 10
16.291985
 20
37.402380
 30
0.0
 10
16.291985
 20
37.342666
 30
0.0
  0
LINE
  5
30d
100
AcDbEntity
  8
Layer_1
 62
7
100
AcDbLine
 10
16.291985
 20
37.342666
 30
0.0
 11
16.291985
 21
34.696832
 31
0.0
  0
SPLINE
  5
30e
100
AcDbEntity
  8
Layer_1
 62
7
100
AcDbSpline
 70
8
 71
3
 72
8
 73
4
 74
0
 40
0
 40
0
 40
0
 40
0
 40
1
 40
1
 40
1
 40
1
 10
16.291985
 20
34.696832
 30
0.0
 10
16.291985
 20
34.637116
 30
0.0
 10
16.279353
 20
34.580846
 30
0.0
 10
16.254089
 20
34.528021
 30
0.0
  0
SPLINE
  5
30f
100
AcDbEntity
  8
Layer_1
 62
7
100
AcDbSpline
 70
8
 71
3
 72
8
 73
4
 74
0
 40
0
 40
0
 40
0
 40
0
 40
1
 40
1
 40
1
 40
1
 10
16.254089
 20
34.528021
 30
0.0
 10
16.231122
 20
34.475197
 30
0.0
 10
16.198968
 20
34.428114
 30
0.0
 10
16.157627
 20
34.386772
 30
0.0
  0
SPLINE
  5
310
100
AcDbEntity
  8
Layer_1
 62
7
100
AcDbSpline
 70
8
 71
3
 72
8
 73
4
 74
0
 40
0
 40
0
 40
0
 40
0
 40
1
 40
1
 40
1
 40
1
 10
16.157627
 20
34.386772
 30
0.0
 10
16.118582
 20
34.347727
 30
0.0
 10
16.072648
 20
34.315574
 30
0.0
 10
16.019823
 20
34.290311
 30
0.0
  0
SPLINE
  5
311
100
AcDbEntity
  8
Layer_1
 62
7
100
AcDbSpline
 70
8
 71
3
 72
8
 73
4
 74
0
 40
0
 40
0
 40
0
 40
0
 40
1
 40
1
 40
1
 40
1
 10
16.019823
 20
34.290311
 30
0.0
 10
15.966998
 20
34.267344
 30
0.0
 10
15.910728
 20
34.255860
 30
0.0
 10
15.851013
 20
34.255860
 30
0.0
  0
LINE
  5
312
100
AcDbEntity
  8
Layer_1
 62
7
100
AcDbLine
 10
15.851013
 20
34.255860
 30
0.0
 11
11.220805
 21
34.255860
 31
0.0
  0
LINE
  5
313
100
AcDbEntity
  8
Layer_1
 62
7
100
AcDbLine
 10
11.220805
 20
34.255860
 30
0.0
 11
11.220805
 21
34.255860
 31
0.0
  0
SPLINE
  5
314
100
AcDbEntity
  8
Layer_1
 62
7
100
AcDbSpline
 70
8
 71
3
 72
8
 73
4
 74
0
 40
0
 40
0
 40
0
 40
0
 40
1
 40
1
 40
1
 40
1
 10
11.220805
 20
17.144733
 30
0.0
 10
11.156496
 20
17.144733
 30
0.0
 10
11.103672
 20
17.165403
 30
0.0
 10
11.062331
 20
17.206745
 30
0.0
  0
SPLINE
  5
315
100
AcDbEntity
  8
Layer_1
 62
7
100
AcDbSpline
 70
8
 71
3
 72
8
 73
4
 74
0
 40
0
 40
0
 40
0
 40
0
 40
1
 40
1
 40
1
 40
1
 10
11.062331
 20
17.206745
 30
0.0
 10
11.020989
 20
17.248087
 30
0.0
 10
11.000319
 20
17.300911
 30
0.0
 10
11.000319
 20
17.365219
 30
0.0
  0
LINE
  5
316
100
AcDbEntity
  8
Layer_1
 62
7
100
AcDbLine
 10
11.000319
 20
17.365219
 30
0.0
 11
11.000319
 21
17.806191
 31
0.0
  0
SPLINE
  5
317
100
AcDbEntity
  8
Layer_1
 62
7
100
AcDbSpline
 70
8
 71
3
 72
8
 73
4
 74
0
 40
0
 40
0
 40
0
 40
0
 40
1
 40
1
 40
1
 40
1
 10
11.000319
 20
17.806191
 30
0.0
 10
11.000319
 20
17.856720
 30
0.0
 10
11.010654
 20
17.895764
 30
0.0
 10
11.031325
 20
17.923324
 30
0.0
  0
SPLINE
  5
318
100
AcDbEntity
  8
Layer_1
 62
7
100
AcDbSpline
 70
8
 71
3
 72
8
 73
4
 74
0
 40
0
 40
0
 40
0
 40
0
 40
1
 40
1
 40
1
 40
1
 10
11.031325
 20
17.923324
 30
0.0
 10
11.054292
 20
17.950886
 30
0.0
 10
11.081853
 20
17.972705
 30
0.0
 10
11.114007
 20
17.988780
 30
0.0
  0
SPLINE
  5
319
100
AcDbEntity
  8
Layer_1
 62
7
100
AcDbSpline
 70
8
 71
3
 72
8
 73
4
 74
0
 40
0
 40
0
 40
0
 40
0
 40
1
 40
1
 40
1
 40
1
 10
11.114007
 20
17.988780
 30
0.0
 10
11.146161
 20
18.004848
 30
0.0
 10
11.181761
 20
18.017480
 30
0.0
 10
11.220805
 20
18.026677
 30
0.0
  0
SPLINE
  5
31a
100
AcDbEntity
  8
Layer_1
 62
7
100
AcDbSpline
 70
8
 71
3
 72
8
 73
4
 74
0
 40
0
 40
0
 40
0
 40
0
 40
1
 40
1
 40
1
 40
1
 10
11.220805
 20
18.026677
 30
0.0
 10
11.259849
 20
18.035859
 30
0.0
 10
11.295449
 20
18.048491
 30
0.0
 10
11.327603
 20
18.064574
 30
0.0
  0
SPLINE
  5
31b
100
AcDbEntity
  8
Layer_1
 62
7
100
AcDbSpline
 70
8
 71
3
 72
8
 73
4
 74
0
 40
0
 40
0
 40
0
 40
0
 40
1
 40
1
 40
1
 40
1
 10
11.327603
 20
18.064574
 30
0.0
 10
11.359757
 20
18.080660
 30
0.0
 10
11.386170
 20
18.102479
 30
0.0
 10
11.406840
 20
18.130030
 30
0.0
  0
SPLINE
  5
31c
100
AcDbEntity
  8
Layer_1
 62
7
100
AcDbSpline
 70
8
 71
3
 72
8
 73
4
 74
0
 40
0
 40
0
 40
0
 40
0
 40
1
 40
1
 40
1
 40
1
 10
11.406840
 20
18.130030
 30
0.0
 10
11.429807
 20
18.157591
 30
0.0
 10
11.441291
 20
18.196636
 30
0.0
 10
11.441291
 20
18.247163
 30
0.0
  0
LINE
  5
31d
100
AcDbEntity
  8
Layer_1
 62
7
100
AcDbLine
 10
11.441291
 20
18.247163
 30
0.0
 11
11.441291
 21
22.215913
 31
0.0
  0
SPLINE
  5
31e
100
AcDbEntity
  8
Layer_1
 62
7
100
AcDbSpline
 70
8
 71
3
 72
8
 73
4
 74
0
 40
0
 40
0
 40
0
 40
0
 40
1
 40
1
 40
1
 40
1
 10
11.441291
 20
22.215913
 30
0.0
 10
11.441291
 20
22.268738
 30
0.0
 10
11.429807
 20
22.307782
 30
0.0
 10
11.406840
 20
22.333047
 30
0.0
  0
SPLINE
  5
31f
100
AcDbEntity
  8
Layer_1
 62
7
100
AcDbSpline
 70
8
 71
3
 72
8
 73
4
 74
0
 40
0
 40
0
 40
0
 40
0
 40
1
 40
1
 40
1
 40
1
 10
11.406840
 20
22.333047
 30
0.0
 10
11.386170
 20
22.360608
 30
0.0
 10
11.359757
 20
22.381279
 30
0.0
 10
11.327603
 20
22.395059
 30
0.0
  0
SPLINE
  5
320
100
AcDbEntity
  8
Layer_1
 62
7
100
AcDbSpline
 70
8
 71
3
 72
8
 73
4
 74
0
 40
0
 40
0
 40
0
 40
0
 40
1
 40
1
 40
1
 40
1
 10
11.327603
 20
22.395059
 30
0.0
 10
11.295449
 20
22.411127
 30
0.0
 10
11.259849
 20
22.422611
 30
0.0
 10
11.220805
 20
22.429510
 30
0.0
  0
SPLINE
  5
321
100
AcDbEntity
  8
Layer_1
 62
7
100
AcDbSpline
 70
8
 71
3
 72
8
 73
4
 74
0
 40
0
 40
0
 40
0
 40
0
 40
1
 40
1
 40
1
 40
1
 10
11.220805
 20
22.429510
 30
0.0
 10
11.181761
 20
22.438692
 30
0.0
 10
11.146161
 20
22.450175
 30
0.0
 10
11.114007
 20
22.463961
 30
0.0
  0
SPLINE
  5
322
100
AcDbEntity
  8
Layer_1
 62
7
100
AcDbSpline
 70
8
 71
3
 72
8
 73
4
 74
0
 40
0
 40
0
 40
0
 40
0
 40
1
 40
1
 40
1
 40
1
 10
11.114007
 20
22.463961
 30
0.0
 10
11.081853
 20
22.480029
 30
0.0
 10
11.054292
 20
22.501847
 30
0.0
 10
11.031325
 20
22.529417
 30
0.0
  0
SPLINE
  5
323
100
AcDbEntity
  8
Layer_1
 62
7
100
AcDbSpline
 70
8
 71
3
 72
8
 73
4
 74
0
 40
0
 40
0
 40
0
 40
0
 40
1
 40
1
 40
1
 40
1
 10
11.031325
 20
22.529417
 30
0.0
 10
11.010654
 20
22.559274
 30
0.0
 10
11.000319
 20
22.601764
 30
0.0
 10
11.000319
 20
22.656885
 30
0.0
  0
LINE
  5
324
100
AcDbEntity
  8
Layer_1
 62
7
100
AcDbLine
 10
11.000319
 20
22.656885
 30
0.0
 11
11.000319
 21
23.097858
 31
0.0
  0
SPLINE
  5
325
100
AcDbEntity
  8
Layer_1
 62
7
100
AcDbSpline
 70
8
 71
3
 72
8
 73
4
 74
0
 40
0
 40
0
 40
0
 40
0
 40
1
 40
1
 40
1
 40
1
 10
11.000319
 20
23.097858
 30
0.0
 10
11.000319
 20
23.162167
 30
0.0
 10
11.022138
 20
23.214992
 30
0.0
 10
11.065776
 20
23.256334
 30
0.0
  0
SPLINE
  5
326
100
AcDbEntity
  8
Layer_1
 62
7
100
AcDbSpline
 70
8
 71
3
 72
8
 73
4
 74
0
 40
0
 40
0
 40
0
 40
0
 40
1
 40
1
 40
1
 40
1
 10
11.065776
 20
23.256334
 30
0.0
 10
11.109413
 20
23.297674
 30
0.0
 10
11.161090
 20
23.318344
 30
0.0
 10
11.220805
 20
23.318344
 30
0.0
  0
LINE
  5
327
100
AcDbEntity
  8
Layer_1
 62
7
100
AcDbLine
 10
11.220805
 20
23.318344
 30
0.0
 11
16.071499
 21
23.318344
 31
0.0
  0
SPLINE
  5
328
100
AcDbEntity
  8
Layer_1
 62
7
100
AcDbSpline
 70
8
 71
3
 72
8
 73
4
 74
0
 40
0
 40
0
 40
0
 40
0
 40
1
 40
1
 40
1
 40
1
 10
16.071499
 20
23.318344
 30
0.0
 10
16.131214
 20
23.318344
 30
0.0
 10
16.182891
 20
23.296525
 30
0.0
 10
16.226529
 20
23.252888
 30
0.0
  0
SPLINE
  5
329
100
AcDbEntity
  8
Layer_1
 62
7
100
AcDbSpline
 70
8
 71
3
 72
8
 73
4
 74
0
 40
0
 40
0
 40
0
 40
0
 40
1
 40
1
 40
1
 40
1
 10
16.226529
 20
23.252888
 30
0.0
 10
16.270167
 20
23.209249
 30
0.0
 10
16.291985
 20
23.157572
 30
0.0
 10
16.291985
 20
23.097858
 30
0.0
  0
LINE
  5
32a
100
AcDbEntity
  8
Layer_1
 62
7
100
AcDbLine
 10
16.291985
 20
23.097858
 30
0.0
 11
16.291985
 21
22.656885
 31
0.0
  0
SPLINE
  5
32b
100
AcDbEntity
  8
Layer_1
 62
7
100
AcDbSpline
 70
8
 71
3
 72
8
 73
4
 74
0
 40
0
 40
0
 40
0
 40
0
 40
1
 40
1
 40
1
 40
1
 10
16.291985
 20
22.656885
 30
0.0
 10
16.291985
 20
22.597171
 30
0.0
 10
16.271315
 20
22.545495
 30
0.0
 10
16.229974
 20
22.501858
 30
0.0
  0
SPLINE
  5
32c
100
AcDbEntity
  8
Layer_1
 62
7
100
AcDbSpline
 70
8
 71
3
 72
8
 73
4
 74
0
 40
0
 40
0
 40
0
 40
0
 40
1
 40
1
 40
1
 40
1
 10
16.229974
 20
22.501858
 30
0.0
 10
16.188633
 20
22.458219
 30
0.0
 10
16.135808
 20
22.436399
 30
0.0
 10
16.071499
 20
22.436399
 30
0.0
  0
LINE
  5
32d
100
AcDbEntity
  8
Layer_1
 62
7
100
AcDbLine
 10
16.071499
 20
22.436399
 30
0.0
 11
12.543722
 21
22.436399
 31
0.0
  0
SPLINE
  5
32e
100
AcDbEntity
  8
Layer_1
 62
7
100
AcDbSpline
 70
8
 71
3
 72
8
 73
4
 74
0
 40
0
 40
0
 40
0
 40
0
 40
1
 40
1
 40
1
 40
1
 10
12.543722
 20
22.436399
 30
0.0
 10
12.484007
 20
22.436399
 30
0.0
 10
12.432330
 20
22.415729
 30
0.0
 10
12.388692
 20
22.374389
 30
0.0
  0
SPLINE
  5
32f
100
AcDbEntity
  8
Layer_1
 62
7
100
AcDbSpline
 70
8
 71
3
 72
8
 73
4
 74
0
 40
0
 40
0
 40
0
 40
0
 40
1
 40
1
 40
1
 40
1
 10
12.388692
 20
22.374389
 30
0.0
 10
12.345054
 20
22.333048
 30
0.0
 10
12.323235
 20
22.280222
 30
0.0
 10
12.323235
 20
22.215913
 30
0.0
  0
LINE
  5
330
100
AcDbEntity
  8
Layer_1
 62
7
100
AcDbLine
 10
12.323235
 20
22.215913
 30
0.0
 11
12.323235
 21
20.892996
 31
0.0
  0
SPLINE
  5
331
100
AcDbEntity
  8
Layer_1
 62
7
100
AcDbSpline
 70
8
 71
3
 72
8
 73
4
 74
0
 40
0
 40
0
 40
0
 40
0
 40
1
 40
1
 40
1
 40
1
 10
12.323235
 20
20.892996
 30
0.0
 10
12.323235
 20
20.828689
 30
0.0
 10
12.343906
 20
20.775865
 30
0.0
 10
12.385247
 20
20.734523
 30
0.0
  0
SPLINE
  5
332
100
AcDbEntity
  8
Layer_1
 62
7
100
AcDbSpline
 70
8
 71
3
 72
8
 73
4
 74
0
 40
0
 40
0
 40
0
 40
0
 40
1
 40
1
 40
1
 40
1
 10
12.385247
 20
20.734523
 30
0.0
 10
12.426588
 20
20.693181
 30
0.0
 10
12.479413
 20
20.672510
 30
0.0
 10
12.543722
 20
20.672510
 30
0.0
  0
LINE
  5
333
100
AcDbEntity
  8
Layer_1
 62
7
100
AcDbLine
 10
12.543722
 20
20.672510
 30
0.0
 11
15.851013
 21
20.672510
 31
0.0
  0
SPLINE
  5
334
100
AcDbEntity
  8
Layer_1
 62
7
100
AcDbSpline
 70
8
 71
3
 72
8
 73
4
 74
0
 40
0
 40
0
 40
0
 40
0
 40
1
 40
1
 40
1
 40
1
 10
15.851013
 20
20.672510
 30
0.0
 10
15.910728
 20
20.672510
 30
0.0
 10
15.966998
 20
20.659878
 30
0.0
 10
16.019823
 20
20.634613
 30
0.0
  0
SPLINE
  5
335
100
AcDbEntity
  8
Layer_1
 62
7
100
AcDbSpline
 70
8
 71
3
 72
8
 73
4
 74
0
 40
0
 40
0
 40
0
 40
0
 40
1
 40
1
 40
1
 40
1
 10
16.019823
 20
20.634613
 30
0.0
 10
16.072648
 20
20.611646
 30
0.0
 10
16.118582
 20
20.579493
 30
0.0
 10
16.157627
 20
20.538153
 30
0.0
  0
SPLINE
  5
336
100
AcDbEntity
  8
Layer_1
 62
7
100
AcDbSpline
 70
8
 71
3
 72
8
 73
4
 74
0
 40
0
 40
0
 40
0
 40
0
 40
1
 40
1
 40
1
 40
1
 10
16.157627
 20
20.538153
 30
0.0
 10
16.198968
 20
20.499108
 30
0.0
 10
16.231122
 20
20.453174
 30
0.0
 10
16.254089
 20
20.400349
 30
0.0
  0
SPLINE
  5
337
100
AcDbEntity
  8
Layer_1
 62
7
100
AcDbSpline
 70
8
 71
3
 72
8
 73
4
 74
0
 40
0
 40
0
 40
0
 40
0
 40
1
 40
1
 40
1
 40
1
 10
16.254089
 20
20.400349
 30
0.0
 10
16.279353
 20
20.347523
 30
0.0
 10
16.291985
 20
20.291253
 30
0.0
 10
16.291985
 20
20.231538
 30
0.0
  0
LINE
  5
338
100
AcDbEntity
  8
Layer_1
 62
7
100
AcDbLine
 10
16.291985
 20
20.231538
 30
0.0
 11
16.291985
 21
17.365219
 31
0.0
  0
SPLINE
  5
339
100
AcDbEntity
  8
Layer_1
 62
7
100
AcDbSpline
 70
8
 71
3
 72
8
 73
4
 74
0
 40
0
 40
0
 40
0
 40
0
 40
1
 40
1
 40
1
 40
1
 10
16.291985
 20
17.365219
 30
0.0
 10
16.291985
 20
17.305504
 30
0.0
 10
16.271315
 20
17.253828
 30
0.0
 10
16.229974
 20
17.210191
 30
0.0
  0
SPLINE
  5
33a
100
AcDbEntity
  8
Layer_1
 62
7
100
AcDbSpline
 70
8
 71
3
 72
8
 73
4
 74
0
 40
0
 40
0
 40
0
 40
0
 40
1
 40
1
 40
1
 40
1
 10
16.229974
 20
17.210191
 30
0.0
 10
16.188633
 20
17.166552
 30
0.0
 10
16.135808
 20
17.144733
 30
0.0
 10
16.071499
 20
17.144733
 30
0.0
  0
LINE
  5
33b
100
AcDbEntity
  8
Layer_1
 62
7
100
AcDbLine
 10
16.071499
 20
17.144733
 30
0.0
 11
15.630527
 21
17.144733
 31
0.0
  0
SPLINE
  5
33c
100
AcDbEntity
  8
Layer_1
 62
7
100
AcDbSpline
 70
8
 71
3
 72
8
 73
4
 74
0
 40
0
 40
0
 40
0
 40
0
 40
1
 40
1
 40
1
 40
1
 10
15.630527
 20
17.144733
 30
0.0
 10
15.566219
 20
17.144733
 30
0.0
 10
15.513394
 20
17.165403
 30
0.0
 10
15.472053
 20
17.206745
 30
0.0
  0
SPLINE
  5
33d
100
AcDbEntity
  8
Layer_1
 62
7
100
AcDbSpline
 70
8
 71
3
 72
8
 73
4
 74
0
 40
0
 40
0
 40
0
 40
0
 40
1
 40
1
 40
1
 40
1
 10
15.472053
 20
17.206745
 30
0.0
 10
15.430712
 20
17.248087
 30
0.0
 10
15.410041
 20
17.300911
 30
0.0
 10
15.410041
 20
17.365219
 30
0.0
  0
LINE
  5
33e
100
AcDbEntity
  8
Layer_1
 62
7
100
AcDbLine
 10
15.410041
 20
17.365219
 30
0.0
 11
15.410041
 21
19.570080
 31
0.0
  0
SPLINE
  5
33f
100
AcDbEntity
  8
Layer_1
 62
7
100
AcDbSpline
 70
8
 71
3
 72
8
 73
4
 74
0
 40
0
 40
0
 40
0
 40
0
 40
1
 40
1
 40
1
 40
1
 10
15.410041
 20
19.570080
 30
0.0
 10
15.410041
 20
19.629794
 30
0.0
 10
15.388222
 20
19.681471
 30
0.0
 10
15.344584
 20
19.725110
 30
0.0
  0
SPLINE
  5
340
100
AcDbEntity
  8
Layer_1
 62
7
100
AcDbSpline
 70
8
 71
3
 72
8
 73
4
 74
0
 40
0
 40
0
 40
0
 40
0
 40
1
 40
1
 40
1
 40
1
 10
15.344584
 20
19.725110
 30
0.0
 10
15.300946
 20
19.768747
 30
0.0
 10
15.249270
 20
19.790566
 30
0.0
 10
15.189555
 20
19.790566
 30
0.0
  0
LINE
  5
341
100
AcDbEntity
  8
Layer_1
 62
7
100
AcDbLine
 10
15.189555
 20
19.790566
 30
0.0
 11
12.543722
 21
19.790566
 31
0.0
  0
SPLINE
  5
342
100
AcDbEntity
  8
Layer_1
 62
7
100
AcDbSpline
 70
8
 71
3
 72
8
 73
4
 74
0
 40
0
 40
0
 40
0
 40
0
 40
1
 40
1
 40
1
 40
1
 10
12.543722
 20
19.790566
 30
0.0
 10
12.484007
 20
19.790566
 30
0.0
 10
12.432330
 20
19.769896
 30
0.0
 10
12.388692
 20
19.728556
 30
0.0
  0
SPLINE
  5
343
100
AcDbEntity
  8
Layer_1
 62
7
100
AcDbSpline
 70
8
 71
3
 72
8
 73
4
 74
0
 40
0
 40
0
 40
0
 40
0
 40
1
 40
1
 40
1
 40
1
 10
12.388692
 20
19.728556
 30
0.0
 10
12.345054
 20
19.687214
 30
0.0
 10
12.323235
 20
19.634389
 30
0.0
 10
12.323235
 20
19.570080
 30
0.0
  0
LINE
  5
344
100
AcDbEntity
  8
Layer_1
 62
7
100
AcDbLine
 10
12.323235
 20
19.570080
 30
0.0
 11
12.323235
 21
17.585705
 31
0.0
  0
SPLINE
  5
345
100
AcDbEntity
  8
Layer_1
 62
7
100
AcDbSpline
 70
8
 71
3
 72
8
 73
4
 74
0
 40
0
 40
0
 40
0
 40
0
 40
1
 40
1
 40
1
 40
1
 10
12.323235
 20
17.585705
 30
0.0
 10
12.323235
 20
17.525990
 30
0.0
 10
12.310603
 20
17.469721
 30
0.0
 10
12.285339
 20
17.416896
 30
0.0
  0
SPLINE
  5
346
100
AcDbEntity
  8
Layer_1
 62
7
100
AcDbSpline
 70
8
 71
3
 72
8
 73
4
 74
0
 40
0
 40
0
 40
0
 40
0
 40
1
 40
1
 40
1
 40
1
 10
12.285339
 20
17.416896
 30
0.0
 10
12.262372
 20
17.364072
 30
0.0
 10
12.230218
 20
17.316989
 30
0.0
 10
12.188877
 20
17.275647
 30
0.0
  0
SPLINE
  5
347
100
AcDbEntity
  8
Layer_1
 62
7
100
AcDbSpline
 70
8
 71
3
 72
8
 73
4
 74
0
 40
0
 40
0
 40
0
 40
0
 40
1
 40
1
 40
1
 40
1
 10
12.188877
 20
17.275647
 30
0.0
 10
12.149832
 20
17.236602
 30
0.0
 10
12.103898
 20
17.204448
 30
0.0
 10
12.051073
 20
17.179183
 30
0.0
  0
SPLINE
  5
348
100
AcDbEntity
  8
Layer_1
 62
7
100
AcDbSpline
 70
8
 71
3
 72
8
 73
4
 74
0
 40
0
 40
0
 40
0
 40
0
 40
1
 40
1
 40
1
 40
1
 10
12.051073
 20
17.179183
 30
0.0
 10
11.998248
 20
17.156216
 30
0.0
 10
11.941978
 20
17.144733
 30
0.0
 10
11.882263
 20
17.144733
 30
0.0
  0
LINE
  5
349
100
AcDbEntity
  8
Layer_1
 62
7
100
AcDbLine
 10
11.882263
 20
17.144733
 30
0.0
 11
11.220805
 21
17.144733
 31
0.0
  0
LINE
  5
34a
100
AcDbEntity
  8
Layer_1
 62
7
100
AcDbLine
 10
11.220805
 20
17.144733
 30
0.0
 11
11.220805
 21
17.144733
 31
0.0
  0
LINE
  5
34b
100
AcDbEntity
  8
Layer_1
 62
7
100
AcDbLine
 10
213.014505
 20
78.947135
 30
0.0
 11
215.332852
 21
76.628789
 31
0.0
  0
LINE
  5
34c
100
AcDbEntity
  8
Layer_1
 62
7
100
AcDbLine
 10
215.332852
 20
76.628789
 30
0.0
 11
228.786717
 21
90.082653
 31
0.0
  0
LINE
  5
34d
100
AcDbEntity
  8
Layer_1
 62
7
100
AcDbLine
 10
228.786717
 20
90.082653
 30
0.0
 11
226.468370
 21
92.401000
 31
0.0
  0
LINE
  5
34e
100
AcDbEntity
  8
Layer_1
 62
7
100
AcDbLine
 10
226.468370
 20
92.401000
 30
0.0
 11
213.014505
 21
78.947135
 31
0.0
  0
LINE
  5
34f
100
AcDbEntity
  8
Layer_1
 62
7
100
AcDbLine
 10
196.071067
 20
44.795974
 30
0.0
 11
198.389414
 21
42.477627
 31
0.0
  0
LINE
  5
350
100
AcDbEntity
  8
Layer_1
 62
7
100
AcDbLine
 10
198.389414
 20
42.477627
 30
0.0
 11
211.843279
 21
55.931492
 31
0.0
  0
LINE
  5
351
100
AcDbEntity
  8
Layer_1
 62
7
100
AcDbLine
 10
211.843279
 20
55.931492
 30
0.0
 11
209.524932
 21
58.249838
 31
0.0
  0
LINE
  5
352
100
AcDbEntity
  8
Layer_1
 62
7
100
AcDbLine
 10
209.524932
 20
58.249838
 30
0.0
 11
196.071067
 21
44.795974
 31
0.0
  0
LINE
  5
353
100
AcDbEntity
  8
Layer_1
 62
7
100
AcDbLine
 10
162.095937
 20
62.506863
 30
0.0
 11
164.414283
 21
60.188516
 31
0.0
  0
LINE
  5
354
100
AcDbEntity
  8
Layer_1
 62
7
100
AcDbLine
 10
164.414283
 20
60.188516
 30
0.0
 11
177.868148
 21
73.642381
 31
0.0
  0
LINE
  5
355
100
AcDbEntity
  8
Layer_1
 62
7
100
AcDbLine
 10
177.868148
 20
73.642381
 30
0.0
 11
175.549801
 21
75.960728
 31
0.0
  0
LINE
  5
356
100
AcDbEntity
  8
Layer_1
 62
7
100
AcDbLine
 10
175.549801
 20
75.960728
 30
0.0
 11
162.095937
 21
62.506863
 31
0.0
  0
LINE
  5
357
100
AcDbEntity
  8
Layer_1
 62
7
100
AcDbLine
 10
152.467058
 20
35.616061
 30
0.0
 11
154.785405
 21
33.297714
 31
0.0
  0
LINE
  5
358
100
AcDbEntity
  8
Layer_1
 62
7
100
AcDbLine
 10
154.785405
 20
33.297714
 30
0.0
 11
168.239270
 21
46.751579
 31
0.0
  0
LINE
  5
359
100
AcDbEntity
  8
Layer_1
 62
7
100
AcDbLine
 10
168.239270
 20
46.751579
 30
0.0
 11
165.920923
 21
49.069925
 31
0.0
  0
LINE
  5
35a
100
AcDbEntity
  8
Layer_1
 62
7
100
AcDbLine
 10
165.920923
 20
49.069925
 30
0.0
 11
152.467058
 21
35.616061
 31
0.0
  0
LINE
  5
35b
100
AcDbEntity
  8
Layer_1
 62
7
100
AcDbLine
 10
243.562224
 20
16.593102
 30
0.0
 11
245.880570
 21
18.911449
 31
0.0
  0
LINE
  5
35c
100
AcDbEntity
  8
Layer_1
 62
7
100
AcDbLine
 10
245.880570
 20
18.911449
 30
0.0
 11
232.426706
 21
32.365314
 31
0.0
  0
LINE
  5
35d
100
AcDbEntity
  8
Layer_1
 62
7
100
AcDbLine
 10
232.426706
 20
32.365314
 30
0.0
 11
230.108359
 21
30.046967
 31
0.0
  0
LINE
  5
35e
100
AcDbEntity
  8
Layer_1
 62
7
100
AcDbLine
 10
230.108359
 20
30.046967
 30
0.0
 11
243.562224
 21
16.593102
 31
0.0
  0
LINE
  5
35f
100
AcDbEntity
  8
Layer_1
 62
7
100
AcDbLine
 10
262.950485
 20
106.432763
 30
0.0
 11
135.976193
 21
106.432763
 31
0.0
  0
LINE
  5
360
100
AcDbEntity
  8
Layer_1
 62
7
100
AcDbLine
 10
135.976193
 20
106.432763
 30
0.0
 11
135.976193
 21
8.033462
 31
0.0
  0
LINE
  5
361
100
AcDbEntity
  8
Layer_1
 62
7
100
AcDbLine
 10
135.976193
 20
8.033462
 30
0.0
 11
262.950485
 21
8.033462
 31
0.0
  0
LINE
  5
362
100
AcDbEntity
  8
Layer_1
 62
7
100
AcDbLine
 10
262.950485
 20
8.033462
 30
0.0
 11
262.950485
 21
106.432763
 31
0.0
  0
SPLINE
  5
363
100
AcDbEntity
  8
Layer_1
 62
7
100
AcDbSpline
 70
8
 71
3
 72
8
 73
4
 74
0
 40
0
 40
0
 40
0
 40
0
 40
1
 40
1
 40
1
 40
1
 10
226.890777
 20
91.896223
 30
0.0
 10
227.920095
 20
92.914293
 30
0.0
 10
228.824239
 20
93.621707
 30
0.0
 10
230.673161
 20
94.076778
 30
0.0
  0
SPLINE
  5
364
100
AcDbEntity
  8
Layer_1
 62
7
100
AcDbSpline
 70
8
 71
3
 72
8
 73
4
 74
0
 40
0
 40
0
 40
0
 40
0
 40
1
 40
1
 40
1
 40
1
 10
230.673161
 20
94.076778
 30
0.0
 10
231.135391
 20
94.190545
 30
0.0
 10
231.621865
 20
94.248290
 30
0.0
 10
232.126716
 20
94.241040
 30
0.0
  0
SPLINE
  5
365
100
AcDbEntity
  8
Layer_1
 62
7
100
AcDbSpline
 70
8
 71
3
 72
8
 73
4
 74
0
 40
0
 40
0
 40
0
 40
0
 40
1
 40
1
 40
1
 40
1
 10
232.126716
 20
94.241040
 30
0.0
 10
233.641264
 20
94.219289
 30
0.0
 10
235.319310
 20
93.611206
 30
0.0
 10
236.988431
 20
92.165714
 30
0.0
  0
SPLINE
  5
366
100
AcDbEntity
  8
Layer_1
 62
7
100
AcDbSpline
 70
8
 71
3
 72
8
 73
4
 74
0
 40
0
 40
0
 40
0
 40
0
 40
1
 40
1
 40
1
 40
1
 10
236.988431
 20
92.165714
 30
0.0
 10
239.072823
 20
90.360591
 30
0.0
 10
239.540002
 20
87.785862
 30
0.0
 10
239.408267
 20
85.595779
 30
0.0
  0
SPLINE
  5
367
100
AcDbEntity
  8
Layer_1
 62
7
100
AcDbSpline
 70
8
 71
3
 72
8
 73
4
 74
0
 40
0
 40
0
 40
0
 40
0
 40
1
 40
1
 40
1
 40
1
 10
239.408267
 20
85.595779
 30
0.0
 10
239.276534
 20
83.405696
 30
0.0
 10
238.587993
 20
81.492936
 30
0.0
 10
238.234180
 20
80.607831
 30
0.0
  0
SPLINE
  5
368
100
AcDbEntity
  8
Layer_1
 62
7
100
AcDbSpline
 70
8
 71
3
 72
8
 73
4
 74
0
 40
0
 40
0
 40
0
 40
0
 40
1
 40
1
 40
1
 40
1
 10
238.234180
 20
80.607831
 30
0.0
 10
236.186889
 20
75.486325
 30
0.0
 10
232.401471
 20
72.309140
 30
0.0
 10
228.805093
 20
69.370758
 30
0.0
  0
SPLINE
  5
369
100
AcDbEntity
  8
Layer_1
 62
7
100
AcDbSpline
 70
8
 71
3
 72
8
 73
4
 74
0
 40
0
 40
0
 40
0
 40
0
 40
1
 40
1
 40
1
 40
1
 10
228.805093
 20
69.370758
 30
0.0
 10
227.255605
 20
68.104766
 30
0.0
 10
225.300960
 20
66.748973
 30
0.0
 10
223.602721
 20
65.605956
 30
0.0
  0
SPLINE
  5
36a
100
AcDbEntity
  8
Layer_1
 62
7
100
AcDbSpline
 70
8
 71
3
 72
8
 73
4
 74
0
 40
0
 40
0
 40
0
 40
0
 40
1
 40
1
 40
1
 40
1
 10
223.602721
 20
65.605956
 30
0.0
 10
221.904486
 20
64.462942
 30
0.0
 10
220.406371
 20
63.487136
 30
0.0
 10
220.026988
 20
63.195493
 30
0.0
  0
SPLINE
  5
36b
100
AcDbEntity
  8
Layer_1
 62
7
100
AcDbSpline
 70
8
 71
3
 72
8
 73
4
 74
0
 40
0
 40
0
 40
0
 40
0
 40
1
 40
1
 40
1
 40
1
 10
220.026988
 20
63.195493
 30
0.0
 10
214.803303
 20
59.179846
 30
0.0
 10
215.977740
 20
60.004555
 30
0.0
 10
211.378774
 20
56.306738
 30
0.0
  0
SPLINE
  5
36c
100
AcDbEntity
  8
Layer_1
 62
7
100
AcDbSpline
 70
8
 71
3
 72
8
 73
4
 74
0
 40
0
 40
0
 40
0
 40
0
 40
1
 40
1
 40
1
 40
1
 10
209.955795
 20
57.790599
 30
0.0
 10
214.545499
 20
61.480971
 30
0.0
 10
213.558012
 20
60.785888
 30
0.0
 10
218.788408
 20
64.806694
 30
0.0
  0
SPLINE
  5
36d
100
AcDbEntity
  8
Layer_1
 62
7
100
AcDbSpline
 70
8
 71
3
 72
8
 73
4
 74
0
 40
0
 40
0
 40
0
 40
0
 40
1
 40
1
 40
1
 40
1
 10
218.788408
 20
64.806694
 30
0.0
 10
219.410110
 20
65.284618
 30
0.0
 10
220.789327
 20
66.161508
 30
0.0
 10
222.468321
 20
67.291573
 30
0.0
  0
SPLINE
  5
36e
100
AcDbEntity
  8
Layer_1
 62
7
100
AcDbSpline
 70
8
 71
3
 72
8
 73
4
 74
0
 40
0
 40
0
 40
0
 40
0
 40
1
 40
1
 40
1
 40
1
 10
222.468321
 20
67.291573
 30
0.0
 10
224.147314
 20
68.421636
 30
0.0
 10
226.069620
 20
69.759183
 30
0.0
 10
227.519658
 20
70.943924
 30
0.0
  0
SPLINE
  5
36f
100
AcDbEntity
  8
Layer_1
 62
7
100
AcDbSpline
 70
8
 71
3
 72
8
 73
4
 74
0
 40
0
 40
0
 40
0
 40
0
 40
1
 40
1
 40
1
 40
1
 10
227.519658
 20
70.943924
 30
0.0
 10
231.098521
 20
73.867997
 30
0.0
 10
234.512989
 20
76.773002
 30
0.0
 10
236.347369
 20
81.361894
 30
0.0
  0
SPLINE
  5
370
100
AcDbEntity
  8
Layer_1
 62
7
100
AcDbSpline
 70
8
 71
3
 72
8
 73
4
 74
0
 40
0
 40
0
 40
0
 40
0
 40
1
 40
1
 40
1
 40
1
 10
236.347369
 20
81.361894
 30
0.0
 10
236.658417
 20
82.140012
 30
0.0
 10
237.269832
 20
83.889459
 30
0.0
 10
237.379794
 20
85.717598
 30
0.0
  0
SPLINE
  5
371
100
AcDbEntity
  8
Layer_1
 62
7
100
AcDbSpline
 70
8
 71
3
 72
8
 73
4
 74
0
 40
0
 40
0
 40
0
 40
0
 40
1
 40
1
 40
1
 40
1
 10
237.379794
 20
85.717598
 30
0.0
 10
237.489759
 20
87.545736
 30
0.0
 10
237.140507
 20
89.345423
 30
0.0
 10
235.657798
 20
90.629477
 30
0.0
  0
SPLINE
  5
372
100
AcDbEntity
  8
Layer_1
 62
7
100
AcDbSpline
 70
8
 71
3
 72
8
 73
4
 74
0
 40
0
 40
0
 40
0
 40
0
 40
1
 40
1
 40
1
 40
1
 10
235.657798
 20
90.629477
 30
0.0
 10
233.795363
 20
92.242381
 30
0.0
 10
232.406895
 20
92.410622
 30
0.0
 10
231.158781
 20
92.103427
 30
0.0
  0
SPLINE
  5
373
100
AcDbEntity
  8
Layer_1
 62
7
100
AcDbSpline
 70
8
 71
3
 72
8
 73
4
 74
0
 40
0
 40
0
 40
0
 40
0
 40
1
 40
1
 40
1
 40
1
 10
231.158781
 20
92.103427
 30
0.0
 10
229.910667
 20
91.796232
 30
0.0
 10
229.248123
 20
91.419827
 30
0.0
 10
228.319527
 20
90.501378
 30
0.0
  0
SPLINE
  5
374
100
AcDbEntity
  8
Layer_1
 62
7
100
AcDbSpline
 70
8
 71
3
 72
8
 73
4
 74
0
 40
0
 40
0
 40
0
 40
0
 40
1
 40
1
 40
1
 40
1
 10
214.855399
 20
77.137048
 30
0.0
 10
213.215888
 20
75.487518
 30
0.0
 10
212.750425
 20
74.818020
 30
0.0
 10
211.701983
 20
73.724806
 30
0.0
  0
SPLINE
  5
375
100
AcDbEntity
  8
Layer_1
 62
7
100
AcDbSpline
 70
8
 71
3
 72
8
 73
4
 74
0
 40
0
 40
0
 40
0
 40
0
 40
1
 40
1
 40
1
 40
1
 10
211.701983
 20
73.724806
 30
0.0
 10
210.323878
 20
72.287852
 30
0.0
 10
207.784259
 20
70.235055
 30
0.0
 10
204.716430
 20
69.055462
 30
0.0
  0
SPLINE
  5
376
100
AcDbEntity
  8
Layer_1
 62
7
100
AcDbSpline
 70
8
 71
3
 72
8
 73
4
 74
0
 40
0
 40
0
 40
0
 40
0
 40
1
 40
1
 40
1
 40
1
 10
204.716430
 20
69.055462
 30
0.0
 10
201.648601
 20
67.875869
 30
0.0
 10
197.917364
 20
67.636737
 30
0.0
 10
194.749357
 20
70.118757
 30
0.0
  0
SPLINE
  5
377
100
AcDbEntity
  8
Layer_1
 62
7
100
AcDbSpline
 70
8
 71
3
 72
8
 73
4
 74
0
 40
0
 40
0
 40
0
 40
0
 40
1
 40
1
 40
1
 40
1
 10
194.749357
 20
70.118757
 30
0.0
 10
194.362634
 20
70.421737
 30
0.0
 10
194.024783
 20
70.815174
 30
0.0
 10
193.586844
 20
71.330329
 30
0.0
  0
SPLINE
  5
378
100
AcDbEntity
  8
Layer_1
 62
7
100
AcDbSpline
 70
8
 71
3
 72
8
 73
4
 74
0
 40
0
 40
0
 40
0
 40
0
 40
1
 40
1
 40
1
 40
1
 10
193.586844
 20
71.330329
 30
0.0
 10
193.148903
 20
71.845480
 30
0.0
 10
192.655282
 20
72.459105
 30
0.0
 10
192.158094
 20
73.081537
 30
0.0
  0
SPLINE
  5
379
100
AcDbEntity
  8
Layer_1
 62
7
100
AcDbSpline
 70
8
 71
3
 72
8
 73
4
 74
0
 40
0
 40
0
 40
0
 40
0
 40
1
 40
1
 40
1
 40
1
 10
192.158094
 20
73.081537
 30
0.0
 10
191.163718
 20
74.326408
 30
0.0
 10
190.109711
 20
75.645309
 30
0.0
 10
189.668254
 20
76.086764
 30
0.0
  0
SPLINE
  5
37a
100
AcDbEntity
  8
Layer_1
 62
7
100
AcDbSpline
 70
8
 71
3
 72
8
 73
4
 74
0
 40
0
 40
0
 40
0
 40
0
 40
1
 40
1
 40
1
 40
1
 10
189.668254
 20
76.086764
 30
0.0
 10
189.212857
 20
76.542161
 30
0.0
 10
188.049128
 20
77.145182
 30
0.0
 10
186.686731
 20
77.436139
 30
0.0
  0
SPLINE
  5
37b
100
AcDbEntity
  8
Layer_1
 62
7
100
AcDbSpline
 70
8
 71
3
 72
8
 73
4
 74
0
 40
0
 40
0
 40
0
 40
0
 40
1
 40
1
 40
1
 40
1
 10
186.686731
 20
77.436139
 30
0.0
 10
185.324332
 20
77.727096
 30
0.0
 10
183.763758
 20
77.744196
 30
0.0
 10
182.441821
 20
77.338022
 30
0.0
  0
SPLINE
  5
37c
100
AcDbEntity
  8
Layer_1
 62
7
100
AcDbSpline
 70
8
 71
3
 72
8
 73
4
 74
0
 40
0
 40
0
 40
0
 40
0
 40
1
 40
1
 40
1
 40
1
 10
182.441821
 20
77.338022
 30
0.0
 10
180.149765
 20
76.633776
 30
0.0
 10
178.063341
 20
75.030479
 30
0.0
 10
177.259792
 20
74.226931
 30
0.0
  0
SPLINE
  5
37d
100
AcDbEntity
  8
Layer_1
 62
7
100
AcDbSpline
 70
8
 71
3
 72
8
 73
4
 74
0
 40
0
 40
0
 40
0
 40
0
 40
1
 40
1
 40
1
 40
1
 10
175.870192
 20
75.581809
 30
0.0
 10
176.867938
 20
76.579555
 30
0.0
 10
179.051313
 20
78.422172
 30
0.0
 10
181.844856
 20
79.280506
 30
0.0
  0
SPLINE
  5
37e
100
AcDbEntity
  8
Layer_1
 62
7
100
AcDbSpline
 70
8
 71
3
 72
8
 73
4
 74
0
 40
0
 40
0
 40
0
 40
0
 40
1
 40
1
 40
1
 40
1
 10
181.844856
 20
79.280506
 30
0.0
 10
182.720428
 20
79.549529
 30
0.0
 10
183.625692
 20
79.673235
 30
0.0
 10
184.517698
 20
79.685647
 30
0.0
  0
SPLINE
  5
37f
100
AcDbEntity
  8
Layer_1
 62
7
100
AcDbSpline
 70
8
 71
3
 72
8
 73
4
 74
0
 40
0
 40
0
 40
0
 40
0
 40
1
 40
1
 40
1
 40
1
 10
184.517698
 20
79.685647
 30
0.0
 10
185.409704
 20
79.698065
 30
0.0
 10
186.288448
 20
79.598971
 30
0.0
 10
187.111165
 20
79.423271
 30
0.0
  0
SPLINE
  5
380
100
AcDbEntity
  8
Layer_1
 62
7
100
AcDbSpline
 70
8
 71
3
 72
8
 73
4
 74
0
 40
0
 40
0
 40
0
 40
0
 40
1
 40
1
 40
1
 40
1
 10
187.111165
 20
79.423271
 30
0.0
 10
188.756600
 20
79.071867
 30
0.0
 10
190.178286
 20
78.450770
 30
0.0
 10
191.105273
 20
77.523783
 30
0.0
  0
SPLINE
  5
381
100
AcDbEntity
  8
Layer_1
 62
7
100
AcDbSpline
 70
8
 71
3
 72
8
 73
4
 74
0
 40
0
 40
0
 40
0
 40
0
 40
1
 40
1
 40
1
 40
1
 10
191.105273
 20
77.523783
 30
0.0
 10
191.782163
 20
76.846893
 30
0.0
 10
192.757616
 20
75.586743
 30
0.0
 10
193.745594
 20
74.349883
 30
0.0
  0
SPLINE
  5
382
100
AcDbEntity
  8
Layer_1
 62
7
100
AcDbSpline
 70
8
 71
3
 72
8
 73
4
 74
0
 40
0
 40
0
 40
0
 40
0
 40
1
 40
1
 40
1
 40
1
 10
193.745594
 20
74.349883
 30
0.0
 10
194.239582
 20
73.731456
 30
0.0
 10
194.725230
 20
73.128889
 30
0.0
 10
195.135206
 20
72.646630
 30
0.0
  0
SPLINE
  5
383
100
AcDbEntity
  8
Layer_1
 62
7
100
AcDbSpline
 70
8
 71
3
 72
8
 73
4
 74
0
 40
0
 40
0
 40
0
 40
0
 40
1
 40
1
 40
1
 40
1
 10
195.135206
 20
72.646630
 30
0.0
 10
195.545184
 20
72.164372
 30
0.0
 10
195.923839
 20
71.779830
 30
0.0
 10
196.002269
 20
71.718384
 30
0.0
  0
SPLINE
  5
384
100
AcDbEntity
  8
Layer_1
 62
7
100
AcDbSpline
 70
8
 71
3
 72
8
 73
4
 74
0
 40
0
 40
0
 40
0
 40
0
 40
1
 40
1
 40
1
 40
1
 10
196.002269
 20
71.718384
 30
0.0
 10
198.527844
 20
69.739685
 30
0.0
 10
201.319174
 20
69.926338
 30
0.0
 10
203.987173
 20
70.952193
 30
0.0
  0
SPLINE
  5
385
100
AcDbEntity
  8
Layer_1
 62
7
100
AcDbSpline
 70
8
 71
3
 72
8
 73
4
 74
0
 40
0
 40
0
 40
0
 40
0
 40
1
 40
1
 40
1
 40
1
 10
203.987173
 20
70.952193
 30
0.0
 10
206.655173
 20
71.978051
 30
0.0
 10
209.064902
 20
73.910108
 30
0.0
 10
210.235748
 20
75.130957
 30
0.0
  0
SPLINE
  5
386
100
AcDbEntity
  8
Layer_1
 62
7
100
AcDbSpline
 70
8
 71
3
 72
8
 73
4
 74
0
 40
0
 40
0
 40
0
 40
0
 40
1
 40
1
 40
1
 40
1
 10
210.235748
 20
75.130957
 30
0.0
 10
211.326010
 20
76.267773
 30
0.0
 10
211.939640
 20
76.785509
 30
0.0
 10
213.563642
 20
78.419431
 30
0.0
  0
SPLINE
  5
387
100
AcDbEntity
  8
Layer_1
 62
7
100
AcDbSpline
 70
8
 71
3
 72
8
 73
4
 74
0
 40
0
 40
0
 40
0
 40
0
 40
1
 40
1
 40
1
 40
1
 10
166.429015
 20
48.549704
 30
0.0
 10
166.687753
 20
48.808439
 30
0.0
 10
166.503380
 20
48.634695
 30
0.0
 10
166.885422
 20
48.904132
 30
0.0
  0
SPLINE
  5
388
100
AcDbEntity
  8
Layer_1
 62
7
100
AcDbSpline
 70
8
 71
3
 72
8
 73
4
 74
0
 40
0
 40
0
 40
0
 40
0
 40
1
 40
1
 40
1
 40
1
 10
166.885422
 20
48.904132
 30
0.0
 10
167.267463
 20
49.173573
 30
0.0
 10
167.722092
 20
49.479392
 30
0.0
 10
168.179123
 20
49.781118
 30
0.0
  0
SPLINE
  5
389
100
AcDbEntity
  8
Layer_1
 62
7
100
AcDbSpline
 70
8
 71
3
 72
8
 73
4
 74
0
 40
0
 40
0
 40
0
 40
0
 40
1
 40
1
 40
1
 40
1
 10
168.179123
 20
49.781118
 30
0.0
 10
169.093187
 20
50.384566
 30
0.0
 10
170.024709
 20
50.976363
 30
0.0
 10
170.325005
 20
51.171283
 30
0.0
  0
SPLINE
  5
38a
100
AcDbEntity
  8
Layer_1
 62
7
100
AcDbSpline
 70
8
 71
3
 72
8
 73
4
 74
0
 40
0
 40
0
 40
0
 40
0
 40
1
 40
1
 40
1
 40
1
 10
170.325005
 20
51.171283
 30
0.0
 10
171.560382
 20
51.973144
 30
0.0
 10
172.702465
 20
52.538664
 30
0.0
 10
173.550167
 20
53.167232
 30
0.0
  0
SPLINE
  5
38b
100
AcDbEntity
  8
Layer_1
 62
7
100
AcDbSpline
 70
8
 71
3
 72
8
 73
4
 74
0
 40
0
 40
0
 40
0
 40
0
 40
1
 40
1
 40
1
 40
1
 10
173.550167
 20
53.167232
 30
0.0
 10
174.397870
 20
53.795800
 30
0.0
 10
174.958973
 20
54.423499
 30
0.0
 10
175.282636
 20
55.534151
 30
0.0
  0
SPLINE
  5
38c
100
AcDbEntity
  8
Layer_1
 62
7
100
AcDbSpline
 70
8
 71
3
 72
8
 73
4
 74
0
 40
0
 40
0
 40
0
 40
0
 40
1
 40
1
 40
1
 40
1
 10
175.282636
 20
55.534151
 30
0.0
 10
175.464181
 20
56.157111
 30
0.0
 10
175.057649
 20
57.129680
 30
0.0
 10
174.278873
 20
57.665148
 30
0.0
  0
SPLINE
  5
38d
100
AcDbEntity
  8
Layer_1
 62
7
100
AcDbSpline
 70
8
 71
3
 72
8
 73
4
 74
0
 40
0
 40
0
 40
0
 40
0
 40
1
 40
1
 40
1
 40
1
 10
174.278873
 20
57.665148
 30
0.0
 10
173.276615
 20
58.354284
 30
0.0
 10
171.816784
 20
58.493383
 30
0.0
 10
170.250592
 20
57.649175
 30
0.0
  0
SPLINE
  5
38e
100
AcDbEntity
  8
Layer_1
 62
7
100
AcDbSpline
 70
8
 71
3
 72
8
 73
4
 74
0
 40
0
 40
0
 40
0
 40
0
 40
1
 40
1
 40
1
 40
1
 10
170.250592
 20
57.649175
 30
0.0
 10
169.127310
 20
57.043698
 30
0.0
 10
167.555496
 20
55.506704
 30
0.0
 10
166.507286
 20
54.330859
 30
0.0
  0
SPLINE
  5
38f
100
AcDbEntity
  8
Layer_1
 62
7
100
AcDbSpline
 70
8
 71
3
 72
8
 73
4
 74
0
 40
0
 40
0
 40
0
 40
0
 40
1
 40
1
 40
1
 40
1
 10
166.507286
 20
54.330859
 30
0.0
 10
164.141525
 20
51.677019
 30
0.0
 10
162.064313
 20
50.620089
 30
0.0
 10
160.282965
 20
50.588107
 30
0.0
  0
SPLINE
  5
390
100
AcDbEntity
  8
Layer_1
 62
7
100
AcDbSpline
 70
8
 71
3
 72
8
 73
4
 74
0
 40
0
 40
0
 40
0
 40
0
 40
1
 40
1
 40
1
 40
1
 10
160.282965
 20
50.588107
 30
0.0
 10
158.501618
 20
50.556126
 30
0.0
 10
157.231031
 20
51.591424
 30
0.0
 10
156.647701
 20
52.625949
 30
0.0
  0
SPLINE
  5
391
100
AcDbEntity
  8
Layer_1
 62
7
100
AcDbSpline
 70
8
 71
3
 72
8
 73
4
 74
0
 40
0
 40
0
 40
0
 40
0
 40
1
 40
1
 40
1
 40
1
 10
156.647701
 20
52.625949
 30
0.0
 10
156.005193
 20
53.765422
 30
0.0
 10
155.855384
 20
54.931815
 30
0.0
 10
156.084357
 20
55.936549
 30
0.0
  0
SPLINE
  5
392
100
AcDbEntity
  8
Layer_1
 62
7
100
AcDbSpline
 70
8
 71
3
 72
8
 73
4
 74
0
 40
0
 40
0
 40
0
 40
0
 40
1
 40
1
 40
1
 40
1
 10
156.084357
 20
55.936549
 30
0.0
 10
156.313332
 20
56.941285
 30
0.0
 10
156.872189
 20
57.757610
 30
0.0
 10
157.490509
 20
58.411505
 30
0.0
  0
SPLINE
  5
393
100
AcDbEntity
  8
Layer_1
 62
7
100
AcDbSpline
 70
8
 71
3
 72
8
 73
4
 74
0
 40
0
 40
0
 40
0
 40
0
 40
1
 40
1
 40
1
 40
1
 10
157.490509
 20
58.411505
 30
0.0
 10
158.108830
 20
59.065402
 30
0.0
 10
158.799320
 20
59.570055
 30
0.0
 10
159.383932
 20
59.952153
 30
0.0
  0
SPLINE
  5
394
100
AcDbEntity
  8
Layer_1
 62
7
100
AcDbSpline
 70
8
 71
3
 72
8
 73
4
 74
0
 40
0
 40
0
 40
0
 40
0
 40
1
 40
1
 40
1
 40
1
 10
159.383932
 20
59.952153
 30
0.0
 10
159.968545
 20
60.334251
 30
0.0
 10
160.498730
 20
60.628654
 30
0.0
 10
160.587788
 20
60.688025
 30
0.0
  0
SPLINE
  5
395
100
AcDbEntity
  8
Layer_1
 62
7
100
AcDbSpline
 70
8
 71
3
 72
8
 73
4
 74
0
 40
0
 40
0
 40
0
 40
0
 40
1
 40
1
 40
1
 40
1
 10
160.587788
 20
60.688025
 30
0.0
 10
161.374197
 20
61.212295
 30
0.0
 10
161.544265
 20
61.293812
 30
0.0
 10
162.504912
 20
62.100240
 30
0.0
  0
SPLINE
  5
396
100
AcDbEntity
  8
Layer_1
 62
7
100
AcDbSpline
 70
8
 71
3
 72
8
 73
4
 74
0
 40
0
 40
0
 40
0
 40
0
 40
1
 40
1
 40
1
 40
1
 10
163.900038
 20
60.719984
 30
0.0
 10
162.942783
 20
59.916407
 30
0.0
 10
162.634201
 20
59.610588
 30
0.0
 10
161.714470
 20
58.997438
 30
0.0
  0
SPLINE
  5
397
100
AcDbEntity
  8
Layer_1
 62
7
100
AcDbSpline
 70
8
 71
3
 72
8
 73
4
 74
0
 40
0
 40
0
 40
0
 40
0
 40
1
 40
1
 40
1
 40
1
 10
161.714470
 20
58.997438
 30
0.0
 10
161.396933
 20
58.785743
 30
0.0
 10
161.002477
 20
58.582294
 30
0.0
 10
160.495733
 20
58.251090
 30
0.0
  0
SPLINE
  5
398
100
AcDbEntity
  8
Layer_1
 62
7
100
AcDbSpline
 70
8
 71
3
 72
8
 73
4
 74
0
 40
0
 40
0
 40
0
 40
0
 40
1
 40
1
 40
1
 40
1
 10
160.495733
 20
58.251090
 30
0.0
 10
159.988989
 20
57.919888
 30
0.0
 10
159.421180
 20
57.495352
 30
0.0
 10
158.967214
 20
57.015267
 30
0.0
  0
SPLINE
  5
399
100
AcDbEntity
  8
Layer_1
 62
7
100
AcDbSpline
 70
8
 71
3
 72
8
 73
4
 74
0
 40
0
 40
0
 40
0
 40
0
 40
1
 40
1
 40
1
 40
1
 10
158.967214
 20
57.015267
 30
0.0
 10
158.513249
 20
56.535181
 30
0.0
 10
158.185837
 20
56.013457
 30
0.0
 10
158.065427
 20
55.485092
 30
0.0
  0
SPLINE
  5
39a
100
AcDbEntity
  8
Layer_1
 62
7
100
AcDbSpline
 70
8
 71
3
 72
8
 73
4
 74
0
 40
0
 40
0
 40
0
 40
0
 40
1
 40
1
 40
1
 40
1
 10
158.065427
 20
55.485092
 30
0.0
 10
157.945014
 20
54.956730
 30
0.0
 10
157.982809
 20
54.395375
 30
0.0
 10
158.417652
 20
53.624189
 30
0.0
  0
SPLINE
  5
39b
100
AcDbEntity
  8
Layer_1
 62
7
100
AcDbSpline
 70
8
 71
3
 72
8
 73
4
 74
0
 40
0
 40
0
 40
0
 40
0
 40
1
 40
1
 40
1
 40
1
 10
158.417652
 20
53.624189
 30
0.0
 10
158.680446
 20
53.158130
 30
0.0
 10
159.260243
 20
52.601616
 30
0.0
 10
160.246584
 20
52.619326
 30
0.0
  0
SPLINE
  5
39c
100
AcDbEntity
  8
Layer_1
 62
7
100
AcDbSpline
 70
8
 71
3
 72
8
 73
4
 74
0
 40
0
 40
0
 40
0
 40
0
 40
1
 40
1
 40
1
 40
1
 10
160.246584
 20
52.619326
 30
0.0
 10
161.232925
 20
52.637021
 30
0.0
 10
162.840489
 20
53.271341
 30
0.0
 10
164.990342
 20
55.682980
 30
0.0
  0
SPLINE
  5
39d
100
AcDbEntity
  8
Layer_1
 62
7
100
AcDbSpline
 70
8
 71
3
 72
8
 73
4
 74
0
 40
0
 40
0
 40
0
 40
0
 40
1
 40
1
 40
1
 40
1
 10
164.990342
 20
55.682980
 30
0.0
 10
166.102190
 20
56.930214
 30
0.0
 10
167.664547
 20
58.563572
 30
0.0
 10
169.286515
 20
59.437857
 30
0.0
  0
SPLINE
  5
39e
100
AcDbEntity
  8
Layer_1
 62
7
100
AcDbSpline
 70
8
 71
3
 72
8
 73
4
 74
0
 40
0
 40
0
 40
0
 40
0
 40
1
 40
1
 40
1
 40
1
 10
169.286515
 20
59.437857
 30
0.0
 10
171.422570
 20
60.589247
 30
0.0
 10
173.756235
 20
60.490464
 30
0.0
 10
175.429812
 20
59.339742
 30
0.0
  0
SPLINE
  5
39f
100
AcDbEntity
  8
Layer_1
 62
7
100
AcDbSpline
 70
8
 71
3
 72
8
 73
4
 74
0
 40
0
 40
0
 40
0
 40
0
 40
1
 40
1
 40
1
 40
1
 10
175.429812
 20
59.339742
 30
0.0
 10
176.829632
 20
58.377249
 30
0.0
 10
177.729506
 20
56.666372
 30
0.0
 10
177.233941
 20
54.965848
 30
0.0
  0
SPLINE
  5
3a0
100
AcDbEntity
  8
Layer_1
 62
7
100
AcDbSpline
 70
8
 71
3
 72
8
 73
4
 74
0
 40
0
 40
0
 40
0
 40
0
 40
1
 40
1
 40
1
 40
1
 10
177.233941
 20
54.965848
 30
0.0
 10
176.777155
 20
53.398392
 30
0.0
 10
175.821373
 20
52.321618
 30
0.0
 10
174.760635
 20
51.535084
 30
0.0
  0
SPLINE
  5
3a1
100
AcDbEntity
  8
Layer_1
 62
7
100
AcDbSpline
 70
8
 71
3
 72
8
 73
4
 74
0
 40
0
 40
0
 40
0
 40
0
 40
1
 40
1
 40
1
 40
1
 10
174.760635
 20
51.535084
 30
0.0
 10
173.699900
 20
50.748551
 30
0.0
 10
172.541762
 20
50.187710
 30
0.0
 10
171.431296
 20
49.466923
 30
0.0
  0
SPLINE
  5
3a2
100
AcDbEntity
  8
Layer_1
 62
7
100
AcDbSpline
 70
8
 71
3
 72
8
 73
4
 74
0
 40
0
 40
0
 40
0
 40
0
 40
1
 40
1
 40
1
 40
1
 10
171.431296
 20
49.466923
 30
0.0
 10
171.099468
 20
49.251542
 30
0.0
 10
170.192967
 20
48.675448
 30
0.0
 10
169.298642
 20
48.085028
 30
0.0
  0
SPLINE
  5
3a3
100
AcDbEntity
  8
Layer_1
 62
7
100
AcDbSpline
 70
8
 71
3
 72
8
 73
4
 74
0
 40
0
 40
0
 40
0
 40
0
 40
1
 40
1
 40
1
 40
1
 10
169.298642
 20
48.085028
 30
0.0
 10
168.851478
 20
47.789818
 30
0.0
 10
168.418377
 20
47.479078
 30
0.0
 10
168.056754
 20
47.243322
 30
0.0
  0
SPLINE
  5
3a4
100
AcDbEntity
  8
Layer_1
 62
7
100
AcDbSpline
 70
8
 71
3
 72
8
 73
4
 74
0
 40
0
 40
0
 40
0
 40
0
 40
1
 40
1
 40
1
 40
1
 10
168.056754
 20
47.243322
 30
0.0
 10
167.857214
 20
47.113235
 30
0.0
 10
167.854957
 20
47.110977
 30
0.0
 10
167.857214
 20
47.113235
 30
0.0
  0
SPLINE
  5
3a5
100
AcDbEntity
  8
Layer_1
 62
7
100
AcDbSpline
 70
8
 71
3
 72
8
 73
4
 74
0
 40
0
 40
0
 40
0
 40
0
 40
1
 40
1
 40
1
 40
1
 10
161.285074
 20
6.016264
 30
0.0
 10
161.328370
 20
11.412252
 30
0.0
 10
161.395658
 20
15.445221
 30
0.0
 10
161.406893
 20
17.494773
 30
0.0
  0
SPLINE
  5
3a6
100
AcDbEntity
  8
Layer_1
 62
7
100
AcDbSpline
 70
8
 71
3
 72
8
 73
4
 74
0
 40
0
 40
0
 40
0
 40
0
 40
1
 40
1
 40
1
 40
1
 10
161.406893
 20
17.494773
 30
0.0
 10
161.420835
 20
20.039048
 30
0.0
 10
160.955270
 20
21.625349
 30
0.0
 10
160.455494
 20
22.183960
 30
0.0
  0
SPLINE
  5
3a7
100
AcDbEntity
  8
Layer_1
 62
7
100
AcDbSpline
 70
8
 71
3
 72
8
 73
4
 74
0
 40
0
 40
0
 40
0
 40
0
 40
1
 40
1
 40
1
 40
1
 10
160.455494
 20
22.183960
 30
0.0
 10
159.128919
 20
23.666707
 30
0.0
 10
157.977249
 20
24.135510
 30
0.0
 10
156.830705
 20
24.485835
 30
0.0
  0
SPLINE
  5
3a8
100
AcDbEntity
  8
Layer_1
 62
7
100
AcDbSpline
 70
8
 71
3
 72
8
 73
4
 74
0
 40
0
 40
0
 40
0
 40
0
 40
1
 40
1
 40
1
 40
1
 10
156.830705
 20
24.485835
 30
0.0
 10
155.684157
 20
24.836160
 30
0.0
 10
154.408270
 20
24.994481
 30
0.0
 10
153.368521
 20
26.049634
 30
0.0
  0
SPLINE
  5
3a9
100
AcDbEntity
  8
Layer_1
 62
7
100
AcDbSpline
 70
8
 71
3
 72
8
 73
4
 74
0
 40
0
 40
0
 40
0
 40
0
 40
1
 40
1
 40
1
 40
1
 10
153.368521
 20
26.049634
 30
0.0
 10
151.235796
 20
28.213951
 30
0.0
 10
150.836595
 20
30.469225
 30
0.0
 10
151.339496
 20
32.226550
 30
0.0
  0
SPLINE
  5
3aa
100
AcDbEntity
  8
Layer_1
 62
7
100
AcDbSpline
 70
8
 71
3
 72
8
 73
4
 74
0
 40
0
 40
0
 40
0
 40
0
 40
1
 40
1
 40
1
 40
1
 10
151.339496
 20
32.226550
 30
0.0
 10
151.842399
 20
33.983877
 30
0.0
 10
152.308396
 20
34.405554
 30
0.0
 10
152.953454
 20
35.138620
 30
0.0
  0
SPLINE
  5
3ab
100
AcDbEntity
  8
Layer_1
 62
7
100
AcDbSpline
 70
8
 71
3
 72
8
 73
4
 74
0
 40
0
 40
0
 40
0
 40
0
 40
1
 40
1
 40
1
 40
1
 10
154.434570
 20
33.672950
 30
0.0
 10
153.747588
 20
32.892241
 30
0.0
 10
153.619563
 20
32.808749
 30
0.0
 10
153.293004
 20
31.667631
 30
0.0
  0
SPLINE
  5
3ac
100
AcDbEntity
  8
Layer_1
 62
7
100
AcDbSpline
 70
8
 71
3
 72
8
 73
4
 74
0
 40
0
 40
0
 40
0
 40
0
 40
1
 40
1
 40
1
 40
1
 10
153.293004
 20
31.667631
 30
0.0
 10
152.966445
 20
30.526511
 30
0.0
 10
153.046240
 20
29.271627
 30
0.0
 10
154.816011
 20
27.475638
 30
0.0
  0
SPLINE
  5
3ad
100
AcDbEntity
  8
Layer_1
 62
7
100
AcDbSpline
 70
8
 71
3
 72
8
 73
4
 74
0
 40
0
 40
0
 40
0
 40
0
 40
1
 40
1
 40
1
 40
1
 10
154.816011
 20
27.475638
 30
0.0
 10
155.297733
 20
26.986778
 30
0.0
 10
156.121396
 20
26.827001
 30
0.0
 10
157.424362
 20
26.428881
 30
0.0
  0
SPLINE
  5
3ae
100
AcDbEntity
  8
Layer_1
 62
7
100
AcDbSpline
 70
8
 71
3
 72
8
 73
4
 74
0
 40
0
 40
0
 40
0
 40
0
 40
1
 40
1
 40
1
 40
1
 10
157.424362
 20
26.428881
 30
0.0
 10
158.727328
 20
26.030762
 30
0.0
 10
160.375012
 20
25.321263
 30
0.0
 10
161.969684
 20
23.538858
 30
0.0
  0
SPLINE
  5
3af
100
AcDbEntity
  8
Layer_1
 62
7
100
AcDbSpline
 70
8
 71
3
 72
8
 73
4
 74
0
 40
0
 40
0
 40
0
 40
0
 40
1
 40
1
 40
1
 40
1
 10
161.969684
 20
23.538858
 30
0.0
 10
163.126402
 20
22.245961
 30
0.0
 10
163.453755
 20
20.235390
 30
0.0
 10
163.438673
 20
17.483207
 30
0.0
  0
SPLINE
  5
3b0
100
AcDbEntity
  8
Layer_1
 62
7
100
AcDbSpline
 70
8
 71
3
 72
8
 73
4
 74
0
 40
0
 40
0
 40
0
 40
0
 40
1
 40
1
 40
1
 40
1
 10
163.438673
 20
17.483207
 30
0.0
 10
163.427271
 20
15.404183
 30
0.0
 10
163.360633
 20
11.387563
 30
0.0
 10
163.317405
 20
6.000291
 30
0.0
  0
SPLINE
  5
3b1
100
AcDbEntity
  8
Layer_1
 62
7
100
AcDbSpline
 70
8
 71
3
 72
8
 73
4
 74
0
 40
0
 40
0
 40
0
 40
0
 40
1
 40
1
 40
1
 40
1
 10
230.573210
 20
30.517567
 30
0.0
 10
228.549905
 20
32.433427
 30
0.0
 10
227.364727
 20
32.563455
 30
0.0
 10
224.639558
 20
33.319622
 30
0.0
  0
SPLINE
  5
3b2
100
AcDbEntity
  8
Layer_1
 62
7
100
AcDbSpline
 70
8
 71
3
 72
8
 73
4
 74
0
 40
0
 40
0
 40
0
 40
0
 40
1
 40
1
 40
1
 40
1
 10
224.639558
 20
33.319622
 30
0.0
 10
224.749009
 20
33.289252
 30
0.0
 10
224.383009
 20
33.345812
 30
0.0
 10
223.994638
 20
33.341127
 30
0.0
  0
SPLINE
  5
3b3
100
AcDbEntity
  8
Layer_1
 62
7
100
AcDbSpline
 70
8
 71
3
 72
8
 73
4
 74
0
 40
0
 40
0
 40
0
 40
0
 40
1
 40
1
 40
1
 40
1
 10
223.994638
 20
33.341127
 30
0.0
 10
223.606266
 20
33.336442
 30
0.0
 10
223.118916
 20
33.311037
 30
0.0
 10
222.636443
 20
33.274430
 30
0.0
  0
SPLINE
  5
3b4
100
AcDbEntity
  8
Layer_1
 62
7
100
AcDbSpline
 70
8
 71
3
 72
8
 73
4
 74
0
 40
0
 40
0
 40
0
 40
0
 40
1
 40
1
 40
1
 40
1
 10
222.636443
 20
33.274430
 30
0.0
 10
222.153968
 20
33.237825
 30
0.0
 10
221.673487
 20
33.189986
 30
0.0
 10
221.293681
 20
33.141588
 30
0.0
  0
SPLINE
  5
3b5
100
AcDbEntity
  8
Layer_1
 62
7
100
AcDbSpline
 70
8
 71
3
 72
8
 73
4
 74
0
 40
0
 40
0
 40
0
 40
0
 40
1
 40
1
 40
1
 40
1
 10
221.293681
 20
33.141588
 30
0.0
 10
220.913877
 20
33.093189
 30
0.0
 10
220.549605
 20
33.003976
 30
0.0
 10
220.651515
 20
33.039062
 30
0.0
  0
SPLINE
  5
3b6
100
AcDbEntity
  8
Layer_1
 62
7
100
AcDbSpline
 70
8
 71
3
 72
8
 73
4
 74
0
 40
0
 40
0
 40
0
 40
0
 40
1
 40
1
 40
1
 40
1
 10
220.651515
 20
33.039062
 30
0.0
 10
218.009989
 20
32.129635
 30
0.0
 10
214.061940
 20
30.337924
 30
0.0
 10
210.146453
 20
29.177799
 30
0.0
  0
SPLINE
  5
3b7
100
AcDbEntity
  8
Layer_1
 62
7
100
AcDbSpline
 70
8
 71
3
 72
8
 73
4
 74
0
 40
0
 40
0
 40
0
 40
0
 40
1
 40
1
 40
1
 40
1
 10
210.146453
 20
29.177799
 30
0.0
 10
206.230964
 20
28.017674
 30
0.0
 10
202.223270
 20
27.358132
 30
0.0
 10
199.377359
 20
29.334895
 30
0.0
  0
SPLINE
  5
3b8
100
AcDbEntity
  8
Layer_1
 62
7
100
AcDbSpline
 70
8
 71
3
 72
8
 73
4
 74
0
 40
0
 40
0
 40
0
 40
0
 40
1
 40
1
 40
1
 40
1
 10
199.377359
 20
29.334895
 30
0.0
 10
195.892459
 20
31.755501
 30
0.0
 10
194.131322
 20
34.558973
 30
0.0
 10
193.926392
 20
37.384844
 30
0.0
  0
SPLINE
  5
3b9
100
AcDbEntity
  8
Layer_1
 62
7
100
AcDbSpline
 70
8
 71
3
 72
8
 73
4
 74
0
 40
0
 40
0
 40
0
 40
0
 40
1
 40
1
 40
1
 40
1
 10
193.926392
 20
37.384844
 30
0.0
 10
193.721462
 20
40.210712
 30
0.0
 10
194.362597
 20
42.142631
 30
0.0
 10
196.551205
 20
44.344687
 30
0.0
  0
SPLINE
  5
3ba
100
AcDbEntity
  8
Layer_1
 62
7
100
AcDbSpline
 70
8
 71
3
 72
8
 73
4
 74
0
 40
0
 40
0
 40
0
 40
0
 40
1
 40
1
 40
1
 40
1
 10
197.967136
 20
42.937013
 30
0.0
 10
196.063607
 20
41.021791
 30
0.0
 10
195.801230
 20
39.627187
 30
0.0
 10
195.953210
 20
37.531458
 30
0.0
  0
SPLINE
  5
3bb
100
AcDbEntity
  8
Layer_1
 62
7
100
AcDbSpline
 70
8
 71
3
 72
8
 73
4
 74
0
 40
0
 40
0
 40
0
 40
0
 40
1
 40
1
 40
1
 40
1
 10
195.953210
 20
37.531458
 30
0.0
 10
196.105189
 20
35.435730
 30
0.0
 10
197.383360
 20
33.194177
 30
0.0
 10
200.536567
 20
31.003966
 30
0.0
  0
SPLINE
  5
3bc
100
AcDbEntity
  8
Layer_1
 62
7
100
AcDbSpline
 70
8
 71
3
 72
8
 73
4
 74
0
 40
0
 40
0
 40
0
 40
0
 40
1
 40
1
 40
1
 40
1
 10
200.536567
 20
31.003966
 30
0.0
 10
202.403032
 20
29.707525
 30
0.0
 10
205.846022
 20
30.022764
 30
0.0
 10
209.568778
 20
31.125784
 30
0.0
  0
SPLINE
  5
3bd
100
AcDbEntity
  8
Layer_1
 62
7
100
AcDbSpline
 70
8
 71
3
 72
8
 73
4
 74
0
 40
0
 40
0
 40
0
 40
0
 40
1
 40
1
 40
1
 40
1
 10
209.568778
 20
31.125784
 30
0.0
 10
213.291535
 20
32.228808
 30
0.0
 10
217.168808
 20
33.988737
 30
0.0
 10
219.990057
 20
34.960039
 30
0.0
  0
SPLINE
  5
3be
100
AcDbEntity
  8
Layer_1
 62
7
100
AcDbSpline
 70
8
 71
3
 72
8
 73
4
 74
0
 40
0
 40
0
 40
0
 40
0
 40
1
 40
1
 40
1
 40
1
 10
219.990057
 20
34.960039
 30
0.0
 10
220.355410
 20
35.085822
 30
0.0
 10
220.612396
 20
35.103289
 30
0.0
 10
221.036816
 20
35.157374
 30
0.0
  0
SPLINE
  5
3bf
100
AcDbEntity
  8
Layer_1
 62
7
100
AcDbSpline
 70
8
 71
3
 72
8
 73
4
 74
0
 40
0
 40
0
 40
0
 40
0
 40
1
 40
1
 40
1
 40
1
 10
221.036816
 20
35.157374
 30
0.0
 10
221.461236
 20
35.211459
 30
0.0
 10
221.968133
 20
35.261652
 30
0.0
 10
222.482655
 20
35.300689
 30
0.0
  0
SPLINE
  5
3c0
100
AcDbEntity
  8
Layer_1
 62
7
100
AcDbSpline
 70
8
 71
3
 72
8
 73
4
 74
0
 40
0
 40
0
 40
0
 40
0
 40
1
 40
1
 40
1
 40
1
 10
222.482655
 20
35.300689
 30
0.0
 10
222.997174
 20
35.339726
 30
0.0
 10
223.516455
 20
35.367421
 30
0.0
 10
223.969833
 20
35.372899
 30
0.0
  0
SPLINE
  5
3c1
100
AcDbEntity
  8
Layer_1
 62
7
100
AcDbSpline
 70
8
 71
3
 72
8
 73
4
 74
0
 40
0
 40
0
 40
0
 40
0
 40
1
 40
1
 40
1
 40
1
 10
223.969833
 20
35.372899
 30
0.0
 10
224.423209
 20
35.378374
 30
0.0
 10
224.734565
 20
35.402382
 30
0.0
 10
225.182505
 20
35.278089
 30
0.0
  0
SPLINE
  5
3c2
100
AcDbEntity
  8
Layer_1
 62
7
100
AcDbSpline
 70
8
 71
3
 72
8
 73
4
 74
0
 40
0
 40
0
 40
0
 40
0
 40
1
 40
1
 40
1
 40
1
 10
225.182505
 20
35.278089
 30
0.0
 10
227.981334
 20
34.501484
 30
0.0
 10
229.711266
 20
34.056309
 30
0.0
 10
231.995485
 20
31.893392
 30
0.0
  0
SPLINE
  5
3c3
100
AcDbEntity
  8
Layer_1
 62
7
100
AcDbSpline
 70
8
 71
3
 72
8
 73
4
 74
0
 40
0
 40
0
 40
0
 40
0
 40
1
 40
1
 40
1
 40
1
 10
245.425885
 20
18.494136
 30
0.0
 10
246.664135
 20
17.155765
 30
0.0
 10
247.188783
 20
16.784143
 30
0.0
 10
247.400241
 20
15.490013
 30
0.0
  0
SPLINE
  5
3c4
100
AcDbEntity
  8
Layer_1
 62
7
100
AcDbSpline
 70
8
 71
3
 72
8
 73
4
 74
0
 40
0
 40
0
 40
0
 40
0
 40
1
 40
1
 40
1
 40
1
 10
247.400241
 20
15.490013
 30
0.0
 10
247.400241
 20
15.490013
 30
0.0
 10
248.041382
 20
13.827820
 30
0.0
 10
246.036092
 20
11.807126
 30
0.0
  0
SPLINE
  5
3c5
100
AcDbEntity
  8
Layer_1
 62
7
100
AcDbSpline
 70
8
 71
3
 72
8
 73
4
 74
0
 40
0
 40
0
 40
0
 40
0
 40
1
 40
1
 40
1
 40
1
 10
246.036092
 20
11.807126
 30
0.0
 10
244.889855
 20
10.652083
 30
0.0
 10
242.873064
 20
10.173076
 30
0.0
 10
241.382679
 20
9.799321
 30
0.0
  0
SPLINE
  5
3c6
100
AcDbEntity
  8
Layer_1
 62
7
100
AcDbSpline
 70
8
 71
3
 72
8
 73
4
 74
0
 40
0
 40
0
 40
0
 40
0
 40
1
 40
1
 40
1
 40
1
 10
241.382679
 20
9.799321
 30
0.0
 10
240.047830
 20
9.464571
 30
0.0
 10
236.332803
 20
9.714609
 30
0.0
 10
234.944603
 20
10.023103
 30
0.0
  0
SPLINE
  5
3c7
100
AcDbEntity
  8
Layer_1
 62
7
100
AcDbSpline
 70
8
 71
3
 72
8
 73
4
 74
0
 40
0
 40
0
 40
0
 40
0
 40
1
 40
1
 40
1
 40
1
 10
234.944603
 20
10.023103
 30
0.0
 10
225.977105
 20
12.015900
 30
0.0
 10
223.136188
 20
11.784331
 30
0.0
 10
214.934859
 20
13.410278
 30
0.0
  0
SPLINE
  5
3c8
100
AcDbEntity
  8
Layer_1
 62
7
100
AcDbSpline
 70
8
 71
3
 72
8
 73
4
 74
0
 40
0
 40
0
 40
0
 40
0
 40
1
 40
1
 40
1
 40
1
 10
214.934859
 20
13.410278
 30
0.0
 10
209.893596
 20
14.409728
 30
0.0
 10
204.635006
 20
15.623806
 30
0.0
 10
199.613279
 20
16.914905
 30
0.0
  0
SPLINE
  5
3c9
100
AcDbEntity
  8
Layer_1
 62
7
100
AcDbSpline
 70
8
 71
3
 72
8
 73
4
 74
0
 40
0
 40
0
 40
0
 40
0
 40
1
 40
1
 40
1
 40
1
 10
199.613279
 20
16.914905
 30
0.0
 10
196.123119
 20
17.812233
 30
0.0
 10
191.508540
 20
19.479151
 30
0.0
 10
187.011397
 20
20.244244
 30
0.0
  0
SPLINE
  5
3ca
100
AcDbEntity
  8
Layer_1
 62
7
100
AcDbSpline
 70
8
 71
3
 72
8
 73
4
 74
0
 40
0
 40
0
 40
0
 40
0
 40
1
 40
1
 40
1
 40
1
 10
187.011397
 20
20.244244
 30
0.0
 10
182.514253
 20
21.009340
 30
0.0
 10
178.276534
 20
20.847355
 30
0.0
 10
175.373588
 20
18.416968
 30
0.0
  0
SPLINE
  5
3cb
100
AcDbEntity
  8
Layer_1
 62
7
100
AcDbSpline
 70
8
 71
3
 72
8
 73
4
 74
0
 40
0
 40
0
 40
0
 40
0
 40
1
 40
1
 40
1
 40
1
 10
175.373588
 20
18.416968
 30
0.0
 10
173.412197
 20
16.774861
 30
0.0
 10
171.936460
 20
15.619525
 30
0.0
 10
170.971579
 20
13.971415
 30
0.0
  0
SPLINE
  5
3cc
100
AcDbEntity
  8
Layer_1
 62
7
100
AcDbSpline
 70
8
 71
3
 72
8
 73
4
 74
0
 40
0
 40
0
 40
0
 40
0
 40
1
 40
1
 40
1
 40
1
 10
170.971579
 20
13.971415
 30
0.0
 10
170.006704
 20
12.323307
 30
0.0
 10
169.453280
 20
10.072969
 30
0.0
 10
169.550548
 20
6.049900
 30
0.0
  0
SPLINE
  5
3cd
100
AcDbEntity
  8
Layer_1
 62
7
100
AcDbSpline
 70
8
 71
3
 72
8
 73
4
 74
0
 40
0
 40
0
 40
0
 40
0
 40
1
 40
1
 40
1
 40
1
 10
167.519318
 20
6.000291
 30
0.0
 10
167.417024
 20
10.231366
 30
0.0
 10
168.012217
 20
12.938447
 30
0.0
 10
169.218163
 20
14.998328
 30
0.0
  0
SPLINE
  5
3ce
100
AcDbEntity
  8
Layer_1
 62
7
100
AcDbSpline
 70
8
 71
3
 72
8
 73
4
 74
0
 40
0
 40
0
 40
0
 40
0
 40
1
 40
1
 40
1
 40
1
 10
169.218163
 20
14.998328
 30
0.0
 10
170.424110
 20
17.058212
 30
0.0
 10
172.141193
 20
18.361378
 30
0.0
 10
174.068861
 20
19.975252
 30
0.0
  0
SPLINE
  5
3cf
100
AcDbEntity
  8
Layer_1
 62
7
100
AcDbSpline
 70
8
 71
3
 72
8
 73
4
 74
0
 40
0
 40
0
 40
0
 40
0
 40
1
 40
1
 40
1
 40
1
 10
174.068861
 20
19.975252
 30
0.0
 10
176.320382
 20
21.860257
 30
0.0
 10
179.091519
 20
22.592299
 30
0.0
 10
182.012426
 20
22.678964
 30
0.0
  0
SPLINE
  5
3d0
100
AcDbEntity
  8
Layer_1
 62
7
100
AcDbSpline
 70
8
 71
3
 72
8
 73
4
 74
0
 40
0
 40
0
 40
0
 40
0
 40
1
 40
1
 40
1
 40
1
 10
182.012426
 20
22.678964
 30
0.0
 10
183.764969
 20
22.730960
 30
0.0
 10
185.571581
 20
22.550270
 30
0.0
 10
187.352047
 20
22.247361
 30
0.0
  0
SPLINE
  5
3d1
100
AcDbEntity
  8
Layer_1
 62
7
100
AcDbSpline
 70
8
 71
3
 72
8
 73
4
 74
0
 40
0
 40
0
 40
0
 40
0
 40
1
 40
1
 40
1
 40
1
 10
187.352047
 20
22.247361
 30
0.0
 10
192.099957
 20
21.439604
 30
0.0
 10
196.805058
 20
19.734700
 30
0.0
 10
200.118745
 20
18.882744
 30
0.0
  0
SPLINE
  5
3d2
100
AcDbEntity
  8
Layer_1
 62
7
100
AcDbSpline
 70
8
 71
3
 72
8
 73
4
 74
0
 40
0
 40
0
 40
0
 40
0
 40
1
 40
1
 40
1
 40
1
 10
200.118745
 20
18.882744
 30
0.0
 10
205.106701
 20
17.600327
 30
0.0
 10
210.332415
 20
16.394281
 30
0.0
 10
215.330080
 20
15.403472
 30
0.0
  0
SPLINE
  5
3d3
100
AcDbEntity
  8
Layer_1
 62
7
100
AcDbSpline
 70
8
 71
3
 72
8
 73
4
 74
0
 40
0
 40
0
 40
0
 40
0
 40
1
 40
1
 40
1
 40
1
 10
215.330080
 20
15.403472
 30
0.0
 10
223.519237
 20
13.779938
 30
0.0
 10
224.627566
 20
14.235916
 30
0.0
 10
233.620402
 20
12.237486
 30
0.0
  0
SPLINE
  5
3d4
100
AcDbEntity
  8
Layer_1
 62
7
100
AcDbSpline
 70
8
 71
3
 72
8
 73
4
 74
0
 40
0
 40
0
 40
0
 40
0
 40
1
 40
1
 40
1
 40
1
 10
233.620402
 20
12.237486
 30
0.0
 10
235.037793
 20
11.922507
 30
0.0
 10
238.459526
 20
11.601445
 30
0.0
 10
239.500234
 20
11.584156
 30
0.0
  0
SPLINE
  5
3d5
100
AcDbEntity
  8
Layer_1
 62
7
100
AcDbSpline
 70
8
 71
3
 72
8
 73
4
 74
0
 40
0
 40
0
 40
0
 40
0
 40
1
 40
1
 40
1
 40
1
 10
239.500234
 20
11.584156
 30
0.0
 10
240.540943
 20
11.566856
 30
0.0
 10
242.152923
 20
12.133569
 30
0.0
 10
242.815524
 20
12.444505
 30
0.0
  0
SPLINE
  5
3d6
100
AcDbEntity
  8
Layer_1
 62
7
100
AcDbSpline
 70
8
 71
3
 72
8
 73
4
 74
0
 40
0
 40
0
 40
0
 40
0
 40
1
 40
1
 40
1
 40
1
 10
242.815524
 20
12.444505
 30
0.0
 10
244.215214
 20
13.101332
 30
0.0
 10
244.507319
 20
13.147986
 30
0.0
 10
245.036351
 20
14.343324
 30
0.0
  0
SPLINE
  5
3d7
100
AcDbEntity
  8
Layer_1
 62
7
100
AcDbSpline
 70
8
 71
3
 72
8
 73
4
 74
0
 40
0
 40
0
 40
0
 40
0
 40
1
 40
1
 40
1
 40
1
 10
245.036351
 20
14.343324
 30
0.0
 10
245.467566
 20
15.317651
 30
0.0
 10
244.983459
 20
15.999246
 30
0.0
 10
243.969573
 20
17.043889
 30
0.0
  0
ENDSEC
  0
SECTION
  2
OBJECTS
  0
DICTIONARY
  5
C
330
0
100
AcDbDictionary
  3
ACAD_GROUP
350
D
  3
ACAD_MLINESTYLE
350
17
  0
DICTIONARY
  5
D
330
C
100
AcDbDictionary
  0
DICTIONARY
  5
1A
330
C
100
AcDbDictionary
  0
DICTIONARY
  5
17
330
C
100
AcDbDictionary
  3
STANDARD
350
18
  0
DICTIONARY
  5
19
330
C
100
AcDbDictionary
  0
ENDSEC
  0
EOF
