<?xml version="1.0" encoding="UTF-8" standalone="no"?>
<!-- Created with Inkscape (http://www.inkscape.org/) -->

<svg
   xmlns:dc="http://purl.org/dc/elements/1.1/"
   xmlns:cc="http://creativecommons.org/ns#"
   xmlns:rdf="http://www.w3.org/1999/02/22-rdf-syntax-ns#"
   xmlns:svg="http://www.w3.org/2000/svg"
   xmlns="http://www.w3.org/2000/svg"
   xmlns:sodipodi="http://sodipodi.sourceforge.net/DTD/sodipodi-0.dtd"
   xmlns:inkscape="http://www.inkscape.org/namespaces/inkscape"
   width="320"
   height="340"
   viewBox="0 0 320 340.00001"
   id="svg4316"
   version="1.1"
   inkscape:version="0.91 r13725"
   sodipodi:docname="magnet_grid_clue.svg">
  <defs
     id="defs4318" />
  <sodipodi:namedview
     id="base"
     pagecolor="#ffffff"
     bordercolor="#666666"
     borderopacity="1.0"
     inkscape:pageopacity="0.0"
     inkscape:pageshadow="2"
     inkscape:zoom="0.98994949"
     inkscape:cx="55.981849"
     inkscape:cy="93.738161"
     inkscape:document-units="px"
     inkscape:current-layer="layer1"
     showgrid="false"
     units="px"
     fit-margin-top="10"
     fit-margin-left="10"
     fit-margin-right="10"
     fit-margin-bottom="10"
     inkscape:window-width="1680"
     inkscape:window-height="997"
     inkscape:window-x="-8"
     inkscape:window-y="-8"
     inkscape:window-maximized="1" />
  <metadata
     id="metadata4321">
    <rdf:RDF>
      <cc:Work
         rdf:about="">
        <dc:format>image/svg+xml</dc:format>
        <dc:type
           rdf:resource="http://purl.org/dc/dcmitype/StillImage" />
        <dc:title></dc:title>
      </cc:Work>
    </rdf:RDF>
  </metadata>
  <g
     inkscape:label="Layer 1"
     inkscape:groupmode="layer"
     id="layer1"
     transform="translate(479.9667,-313.4732)">
    <g
       transform="matrix(2.6939182,0,0,2.6808514,-155.37983,139.83706)"
       id="g4303"
       style="fill:#c60000;fill-opacity:1">
      <path
         inkscape:connector-curvature="0"
         d="m -87.117696,72.928547 c -1.4566,0.244226 -2.88837,0.654473 -4.24446,1.24438 -1.84402,0.802165 -6.12912,3.370022 3.2975,-1.991472 -2.66353,1.613121 -5.1158,3.620167 -7.02961,6.09403 -0.48382,0.625401 -0.90604,1.296118 -1.35906,1.944177 -3.40006,5.071271 -5.722494,10.728796 -7.770964,16.449298 -2.8806,8.41284 -4.29124,17.08311 -5.31386,25.8833 -1.18539,10.90801 -1.62617,21.87618 -1.45423,32.84242 0.068,5.16001 0.14988,10.66236 3.81575,14.72746 2.18746,2.42567 3.36063,2.71947 6.23544,4.26044 8.502234,3.7754 17.584984,5.98331 26.758649,7.3721 2.264028,0.34275 4.54172,0.58821 6.81258,0.88231 6.316015,0.67187 12.658203,1.12995 19.007122,1.3343 3.507745,0.11291 7.10328,0.17208 10.609493,-0.0907 1.586722,-0.11894 3.160892,-0.36891 4.741339,-0.55337 3.917018,-1.04666 5.50542,-1.29627 9.203808,-2.97537 1.360987,-0.6179 2.780394,-1.18991 3.952939,-2.11685 0.64769,-0.51203 -2.529791,1.63683 -2.331813,0.83528 0.31911,-1.29197 1.970132,-1.80153 2.822831,-2.82325 0.832631,-0.99768 1.474847,-2.13994 2.212271,-3.20992 4.28624,-7.82378 5.101864,-16.68998 5.765372,-25.41426 0.350577,-6.66127 0.25617,-13.36557 -1.243864,-19.89449 -0.907922,-3.95175 -1.371938,-4.84477 -2.767731,-8.64843 -0.681567,-1.39993 -1.309651,-2.82718 -2.044702,-4.19979 -2.256933,-4.21449 -5.165084,-8.86127 -8.317868,-12.45667 -3.66524,-4.179802 -4.990829,-4.966757 -9.320416,-8.526919 -6.257064,-4.634379 -13.195173,-8.267037 -20.581125,-10.734094 -3.641628,-1.216378 -5.023348,-1.4318 -8.67107,-2.244653 -7.644768,-1.556618 -15.482241,-1.216989 -23.130401,0.166218 -2.01664,0.364719 -4.00472,0.872768 -6.00707,1.309152 -2.09858,0.601777 -4.19715,1.203553 -6.29573,1.80533 0,0 4.96313,-3.821503 4.96313,-3.821503 l 0,0 c 2.12713,-0.606368 4.25426,-1.212737 6.38139,-1.819105 2.02754,-0.436281 4.04134,-0.942227 6.08264,-1.308844 5.275592,-0.947499 10.805471,-1.513704 16.173737,-1.262299 2.358878,0.11047 5.045397,0.68725 7.353338,1.111862 3.53345,0.879094 5.048147,1.170353 8.569336,2.422827 7.35067,2.614607 14.226932,6.385069 20.479828,11.042744 3.766854,3.064552 6.3503,4.924116 9.614926,8.518297 1.163372,1.280807 2.171222,2.697027 3.179242,4.103367 2.848264,3.97377 5.332731,8.23349 7.37649,12.67273 1.444106,3.89693 1.887952,4.69804 2.806668,8.7556 1.49288,6.59337 1.504735,13.35767 1.239833,20.07875 -0.08454,1.70812 -0.120802,3.41932 -0.253625,5.12438 -0.550848,7.07125 -1.939342,14.14242 -5.156945,20.51157 -1.494208,2.28331 -2.71994,4.59997 -4.990972,6.26718 -2.63035,1.93099 -9.066703,6.09768 -13.05743,7.82312 -3.823146,1.65298 -5.26371,1.83608 -9.310541,2.84958 -1.573278,0.15784 -3.141529,0.37827 -4.719834,0.47352 -3.572548,0.21562 -6.93507,0.10997 -10.510962,-0.0448 -6.31216,-0.27327 -12.614857,-0.77781 -18.893821,-1.47598 -2.280099,-0.29793 -4.56629,-0.55245 -6.840295,-0.89379 -9.326523,-1.39994 -18.649273,-3.41611 -27.302507,-7.25775 -2.98821,-1.61935 -4.21995,-1.93617 -6.48719,-4.48162 -3.85794,-4.33134 -3.73349,-9.79761 -3.69649,-15.24488 -0.0267,-10.97258 0.1612,-21.9574 1.34776,-32.87692 0.94846,-8.79173 2.21431,-17.50665 5.05101,-25.922319 0.87103,-2.572468 1.42363,-4.347262 2.44575,-6.835609 1.3793,-3.35792 3.09428,-6.58142 5.0041,-9.664301 0.4318,-0.664508 0.833,-1.349921 1.29538,-1.993524 1.823634,-2.538401 4.218444,-4.620375 6.844874,-6.289329 4.40095,-2.525804 8.50776,-5.519214 13.599922,-6.262273 0,0 -5.939862,4.429452 -5.939862,4.429452 z"
         id="path4261"
         style="opacity:1;fill:#c60000;fill-opacity:1;stroke:none;stroke-width:0.09;stroke-linecap:round;stroke-miterlimit:4;stroke-dasharray:none;stroke-opacity:1" />
      <g
         id="g4283"
         style="fill:#c60000;fill-opacity:1">
        <g
           style="fill:#c60000;fill-opacity:1"
           transform="matrix(0.98013745,-0.19831936,0.19831936,0.98013745,-26.325405,18.108839)"
           id="g4293">
          <text
             sodipodi:linespacing="125%"
             id="text4263"
             y="106.65401"
             x="-99.169296"
             style="font-style:normal;font-weight:normal;font-size:40px;line-height:125%;font-family:sans-serif;letter-spacing:15.89999962px;word-spacing:0px;fill:#c60000;fill-opacity:1;stroke:none;stroke-width:1px;stroke-linecap:butt;stroke-linejoin:miter;stroke-opacity:1"
             xml:space="preserve"><tspan
               style="font-style:normal;font-variant:normal;font-weight:normal;font-stretch:normal;font-family:Instruction;-inkscape-font-specification:Instruction;letter-spacing:7.67002249px;fill:#c60000;fill-opacity:1"
               id="tspan4267"
               y="106.65401"
               x="-99.169296"
               sodipodi:role="line">524</tspan></text>
          <text
             transform="scale(1.0568957,0.94616715)"
             sodipodi:linespacing="125%"
             id="text4271"
             y="149.18504"
             x="-93.830727"
             style="font-style:normal;font-variant:normal;font-weight:normal;font-stretch:normal;font-size:36.99134827px;line-height:125%;font-family:Instruction;-inkscape-font-specification:Instruction;letter-spacing:16.80464172px;word-spacing:0px;fill:#c60000;fill-opacity:1;stroke:none;stroke-width:1px;stroke-linecap:butt;stroke-linejoin:miter;stroke-opacity:1"
             xml:space="preserve"><tspan
               y="149.18504"
               x="-93.830727"
               id="tspan4273"
               sodipodi:role="line">P</tspan></text>
          <text
             sodipodi:linespacing="125%"
             id="text4275"
             y="141.15401"
             x="-71.492439"
             style="font-style:normal;font-variant:normal;font-weight:normal;font-stretch:normal;font-size:28.75px;line-height:125%;font-family:Magzetician;-inkscape-font-specification:Magzetician;letter-spacing:15.89999962px;word-spacing:0px;fill:#c60000;fill-opacity:1;stroke:none;stroke-width:1px;stroke-linecap:butt;stroke-linejoin:miter;stroke-opacity:1"
             xml:space="preserve"><tspan
               y="141.15401"
               x="-71.492439"
               id="tspan4277"
               sodipodi:role="line">W</tspan></text>
          <text
             sodipodi:linespacing="125%"
             id="text4279"
             y="141.15401"
             x="-40.782375"
             style="font-style:normal;font-variant:normal;font-weight:normal;font-stretch:normal;font-size:28.75px;line-height:125%;font-family:Magzetician;-inkscape-font-specification:Magzetician;letter-spacing:15.89999962px;word-spacing:0px;fill:#c60000;fill-opacity:1;stroke:none;stroke-width:1px;stroke-linecap:butt;stroke-linejoin:miter;stroke-opacity:1"
             xml:space="preserve"><tspan
               y="141.15401"
               x="-40.782375"
               id="tspan4281"
               sodipodi:role="line">M</tspan></text>
        </g>
      </g>
    </g>
  </g>
</svg>
