<?xml version="1.0" encoding="UTF-8" standalone="no"?>
<!-- Created with Inkscape (http://www.inkscape.org/) -->

<svg
   xmlns:dc="http://purl.org/dc/elements/1.1/"
   xmlns:cc="http://creativecommons.org/ns#"
   xmlns:rdf="http://www.w3.org/1999/02/22-rdf-syntax-ns#"
   xmlns:svg="http://www.w3.org/2000/svg"
   xmlns="http://www.w3.org/2000/svg"
   xmlns:sodipodi="http://sodipodi.sourceforge.net/DTD/sodipodi-0.dtd"
   xmlns:inkscape="http://www.inkscape.org/namespaces/inkscape"
   width="268.96332mm"
   height="112.44562mm"
   viewBox="0 0 953.01967 398.42938"
   id="svg2"
   version="1.1"
   inkscape:version="0.92.1 r15371"
   sodipodi:docname="magnet_grid_for_cut.svg">
  <defs
     id="defs4">
    <inkscape:path-effect
       effect="spiro"
       id="path-effect5314"
       is_visible="true" />
    <inkscape:path-effect
       effect="spiro"
       id="path-effect4854"
       is_visible="true" />
    <inkscape:path-effect
       effect="spiro"
       id="path-effect4850"
       is_visible="true" />
    <inkscape:path-effect
       effect="spiro"
       id="path-effect4846"
       is_visible="true" />
    <inkscape:path-effect
       effect="spiro"
       id="path-effect4838"
       is_visible="true" />
    <inkscape:path-effect
       effect="spiro"
       id="path-effect4834"
       is_visible="true" />
    <inkscape:path-effect
       effect="spiro"
       id="path-effect4814"
       is_visible="true" />
    <inkscape:path-effect
       effect="spiro"
       id="path-effect4794"
       is_visible="true" />
    <inkscape:path-effect
       effect="spiro"
       id="path-effect4790"
       is_visible="true" />
    <inkscape:path-effect
       effect="spiro"
       id="path-effect4786"
       is_visible="true" />
  </defs>
  <sodipodi:namedview
     id="base"
     pagecolor="#ffffff"
     bordercolor="#666666"
     borderopacity="1.0"
     inkscape:pageopacity="0.0"
     inkscape:pageshadow="2"
     inkscape:zoom="1"
     inkscape:cx="489.99307"
     inkscape:cy="199.49465"
     inkscape:document-units="mm"
     inkscape:current-layer="layer4"
     showgrid="false"
     units="mm"
     fit-margin-top="6"
     fit-margin-left="6"
     fit-margin-right="6"
     fit-margin-bottom="6"
     inkscape:window-width="1680"
     inkscape:window-height="997"
     inkscape:window-x="-8"
     inkscape:window-y="-8"
     inkscape:window-maximized="1" />
  <metadata
     id="metadata7">
    <rdf:RDF>
      <cc:Work
         rdf:about="">
        <dc:format>image/svg+xml</dc:format>
        <dc:type
           rdf:resource="http://purl.org/dc/dcmitype/StillImage" />
        <dc:title></dc:title>
      </cc:Work>
    </rdf:RDF>
  </metadata>
  <g
     inkscape:groupmode="layer"
     id="layer4"
     inkscape:label="Engrave"
     style="display:inline"
     transform="translate(2.9296484,10.35599)">
    <path
       d="m 95.236389,36.02887 q 0.341797,0 0.561524,-0.231934 0.219726,-0.231934 0.219726,-0.549316 v -4.6875 q 0,-0.317383 -0.231933,-0.549317 -0.231934,-0.231933 -0.549317,-0.231933 h -10.9375 q -0.317383,0 -0.549316,0.219726 -0.231934,0.219727 -0.231934,0.561524 v 4.6875 q 0,0.341797 0.219727,0.561523 0.219726,0.219727 0.561523,0.219727 z m 0,-9.375 q 0.341797,0 0.561524,-0.231934 0.219726,-0.231934 0.219726,-0.549316 v -4.6875 q 0,-0.317383 -0.231933,-0.549317 -0.231934,-0.231933 -0.549317,-0.231933 h -10.9375 q -0.317383,0 -0.549316,0.219726 -0.231934,0.219727 -0.231934,0.561524 v 4.6875 q 0,0.341797 0.219727,0.561523 0.219726,0.219727 0.561523,0.219727 z m -13.28125,12.5 q -0.32959,0 -0.622558,-0.122071 -0.280762,-0.12207 -0.488282,-0.32959 -0.207519,-0.207519 -0.32959,-0.488281 -0.12207,-0.292969 -0.12207,-0.622558 v -18.75 q 0,-0.317383 0.12207,-0.598145 0.134278,-0.280762 0.341797,-0.488281 0.219727,-0.219727 0.500489,-0.341797 0.280761,-0.134277 0.598144,-0.134277 h 15.625 q 0.317383,0 0.598145,0.134277 0.280761,0.12207 0.488281,0.341797 0.219727,0.207519 0.341797,0.488281 0.134277,0.280762 0.134277,0.598145 v 18.75 q 0,0.317382 -0.134277,0.598144 -0.12207,0.280762 -0.341797,0.500488 -0.20752,0.20752 -0.488281,0.341797 -0.280762,0.122071 -0.598145,0.122071 z"
       style="font-style:normal;font-variant:normal;font-weight:normal;font-stretch:normal;font-size:25px;line-height:125%;font-family:Magzetician;-inkscape-font-specification:Magzetician;letter-spacing:37.79000092px;word-spacing:0px;fill:#ff0000;fill-opacity:1;stroke:#ff0000;stroke-width:1px;stroke-linecap:butt;stroke-linejoin:miter;stroke-opacity:1"
       id="path5906"
       inkscape:connector-curvature="0" />
    <path
       d="m 142.40139,39.15387 q -0.3418,0 -0.56152,-0.219727 -0.21973,-0.219726 -0.21973,-0.561523 V 18.84137 q 0,-0.317383 0.12207,-0.598145 0.13428,-0.280761 0.3418,-0.488281 0.21972,-0.219726 0.50049,-0.341797 0.28076,-0.134277 0.59814,-0.134277 h 15.625 q 0.31738,0 0.59814,0.134277 0.28077,0.122071 0.48829,0.341797 0.21972,0.20752 0.34179,0.488281 0.13428,0.280762 0.13428,0.598145 v 10.15625 q 0,0.317382 -0.21973,0.549316 -0.21972,0.231934 -0.56152,0.231934 h -1.5625 q -0.3418,0 -0.56152,-0.219727 -0.21973,-0.219726 -0.21973,-0.561523 v -7.8125 q 0,-0.317383 -0.23193,-0.549316 -0.23194,-0.231934 -0.54932,-0.231934 h -10.9375 q -0.31738,0 -0.54932,0.219727 -0.23193,0.219726 -0.23193,0.561523 v 17.1875 q 0,0.317382 -0.21973,0.549316 -0.21972,0.231934 -0.56152,0.231934 z"
       style="font-style:normal;font-variant:normal;font-weight:normal;font-stretch:normal;font-size:25px;line-height:125%;font-family:Magzetician;-inkscape-font-specification:Magzetician;letter-spacing:37.79000092px;word-spacing:0px;fill:#ff0000;fill-opacity:1;stroke:#ff0000;stroke-width:1px;stroke-linecap:butt;stroke-linejoin:miter;stroke-opacity:1"
       id="path5908"
       inkscape:connector-curvature="0" />
    <path
       d="m 203.62889,39.15387 q -0.3418,0 -0.56152,-0.219727 -0.21973,-0.219726 -0.21973,-0.561523 v -1.5625 q 0,-0.341797 0.23193,-0.561524 0.23194,-0.219726 0.54932,-0.219726 h 14.0625 q 0.3418,0 0.56152,-0.231934 0.21973,-0.231934 0.21973,-0.549316 v -1.5625 q 0,-0.317383 -0.23193,-0.549316 -0.23194,-0.231934 -0.54932,-0.231934 h -10.15625 q -0.32959,0 -0.62256,-0.122071 -0.28076,-0.12207 -0.48828,-0.329589 -0.20752,-0.20752 -0.32959,-0.488282 -0.12207,-0.292969 -0.12207,-0.622558 v -6.25 q 0,-0.317383 0.12207,-0.598145 0.13428,-0.280762 0.3418,-0.488281 0.21972,-0.219727 0.50049,-0.341797 0.28076,-0.134277 0.59814,-0.134277 h 10.15625 q 0.3418,0 0.56152,-0.231934 0.21973,-0.231934 0.21973,-0.549316 v -1.5625 q 0,-0.317383 -0.23193,-0.549317 -0.23194,-0.231933 -0.54932,-0.231933 h -14.0625 q -0.3418,0 -0.56152,-0.219727 -0.21973,-0.219726 -0.21973,-0.561523 v -1.5625 q 0,-0.341797 0.23193,-0.561524 0.23194,-0.219726 0.54932,-0.219726 h 16.40625 q 0.31738,0 0.59815,0.134277 0.28076,0.12207 0.48828,0.341797 0.21972,0.207519 0.34179,0.488281 0.13428,0.280762 0.13428,0.598145 v 6.25 q 0,0.317382 -0.13428,0.598144 -0.12207,0.280762 -0.34179,0.500488 -0.20752,0.20752 -0.48828,0.341797 -0.28077,0.122071 -0.59815,0.122071 h -10.15625 q -0.31738,0 -0.54932,0.219726 -0.23193,0.219727 -0.23193,0.561524 v 1.5625 q 0,0.341797 0.21973,0.561523 0.21972,0.219727 0.56152,0.219727 h 10.15625 q 0.31738,0 0.59815,0.134277 0.28076,0.12207 0.48828,0.341797 0.21972,0.207519 0.34179,0.488281 0.13428,0.280762 0.13428,0.598145 v 6.25 q 0,0.317382 -0.13428,0.598144 -0.12207,0.280762 -0.34179,0.500488 -0.20752,0.20752 -0.48828,0.341797 -0.28077,0.122071 -0.59815,0.122071 z"
       style="font-style:normal;font-variant:normal;font-weight:normal;font-stretch:normal;font-size:25px;line-height:125%;font-family:Magzetician;-inkscape-font-specification:Magzetician;letter-spacing:37.79000092px;word-spacing:0px;fill:#ff0000;fill-opacity:1;stroke:#ff0000;stroke-width:1px;stroke-linecap:butt;stroke-linejoin:miter;stroke-opacity:1"
       id="path5910"
       inkscape:connector-curvature="0" />
    <path
       d="m 265.63763,39.15387 q -0.32959,0 -0.62255,-0.122071 -0.28077,-0.12207 -0.48829,-0.32959 -0.20752,-0.207519 -0.32959,-0.488281 -0.12207,-0.292969 -0.12207,-0.622558 V 18.06012 q 0,-0.341797 0.23194,-0.561523 0.23193,-0.219727 0.54931,-0.219727 h 1.5625 q 0.31739,0 0.54932,0.231934 0.23193,0.231933 0.23193,0.549316 v 7.8125 q 0,0.341797 0.21973,0.561523 0.21973,0.219727 0.56152,0.219727 h 3.125 q 0.3418,0 0.56153,-0.231934 0.21972,-0.231933 0.21972,-0.549316 v -7.8125 q 0,-0.341797 0.23194,-0.561523 0.23193,-0.219727 0.54931,-0.219727 h 1.5625 q 0.31739,0 0.54932,0.231934 0.23193,0.231933 0.23193,0.549316 v 7.8125 q 0,0.341797 0.21973,0.561523 0.21973,0.219727 0.56152,0.219727 h 3.125 q 0.3418,0 0.56153,-0.231934 0.21972,-0.231933 0.21972,-0.549316 v -7.8125 q 0,-0.341797 0.23194,-0.561523 0.23193,-0.219727 0.54931,-0.219727 h 1.5625 q 0.31739,0 0.54932,0.231934 0.23193,0.231933 0.23193,0.549316 v 10.15625 q 0,0.317382 -0.13427,0.598145 -0.12207,0.280761 -0.3418,0.500488 -0.20752,0.207519 -0.48828,0.341797 -0.28076,0.12207 -0.59815,0.12207 h -13.28125 q -0.31738,0 -0.54931,0.219727 -0.23194,0.219726 -0.23194,0.561523 v 4.6875 q 0,0.341797 0.21973,0.561523 0.21973,0.219727 0.56152,0.219727 h 14.0625 q 0.31739,0 0.54932,0.231933 0.23193,0.231934 0.23193,0.549317 v 1.5625 q 0,0.317382 -0.21972,0.549316 -0.21973,0.231934 -0.56153,0.231934 z"
       style="font-style:normal;font-variant:normal;font-weight:normal;font-stretch:normal;font-size:25px;line-height:125%;font-family:Magzetician;-inkscape-font-specification:Magzetician;letter-spacing:37.79000092px;word-spacing:0px;fill:#ff0000;fill-opacity:1;stroke:#ff0000;stroke-width:1px;stroke-linecap:butt;stroke-linejoin:miter;stroke-opacity:1"
       id="path5912"
       inkscape:connector-curvature="0" />
    <path
       d="m 332.33389,36.02887 q 0.3418,0 0.56153,-0.231934 0.21972,-0.231934 0.21972,-0.549316 v -4.6875 q 0,-0.317383 -0.23193,-0.549317 -0.23193,-0.231933 -0.54932,-0.231933 h -3.125 q -0.31738,0 -0.54931,0.219726 -0.23194,0.219727 -0.23194,0.561524 v 4.6875 q 0,0.341797 0.21973,0.561523 0.21973,0.219727 0.56152,0.219727 z m 7.8125,0 q 0.3418,0 0.56153,-0.231934 0.21972,-0.231934 0.21972,-0.549316 v -4.6875 q 0,-0.317383 -0.23193,-0.549317 -0.23193,-0.231933 -0.54932,-0.231933 h -3.125 q -0.31738,0 -0.54931,0.219726 -0.23194,0.219727 -0.23194,0.561524 v 4.6875 q 0,0.341797 0.21973,0.561523 0.21973,0.219727 0.56152,0.219727 z m -7.8125,-9.375 q 0.3418,0 0.56153,-0.231934 0.21972,-0.231934 0.21972,-0.549316 v -4.6875 q 0,-0.317383 -0.23193,-0.549317 -0.23193,-0.231933 -0.54932,-0.231933 h -3.125 q -0.31738,0 -0.54931,0.219726 -0.23194,0.219727 -0.23194,0.561524 v 4.6875 q 0,0.341797 0.21973,0.561523 0.21973,0.219727 0.56152,0.219727 z m 7.8125,0 q 0.3418,0 0.56153,-0.231934 0.21972,-0.231934 0.21972,-0.549316 v -4.6875 q 0,-0.317383 -0.23193,-0.549317 -0.23193,-0.231933 -0.54932,-0.231933 h -3.125 q -0.31738,0 -0.54931,0.219726 -0.23194,0.219727 -0.23194,0.561524 v 4.6875 q 0,0.341797 0.21973,0.561523 0.21973,0.219727 0.56152,0.219727 z m -13.28125,12.5 q -0.32959,0 -0.62256,-0.122071 -0.28076,-0.12207 -0.48828,-0.32959 -0.20752,-0.207519 -0.32959,-0.488281 -0.12207,-0.292969 -0.12207,-0.622558 v -18.75 q 0,-0.317383 0.12207,-0.598145 0.13428,-0.280762 0.3418,-0.488281 0.21973,-0.219727 0.50049,-0.341797 0.28076,-0.134277 0.59814,-0.134277 h 15.625 q 0.31739,0 0.59815,0.134277 0.28076,0.12207 0.48828,0.341797 0.21973,0.207519 0.3418,0.488281 0.13427,0.280762 0.13427,0.598145 v 18.75 q 0,0.317382 -0.13427,0.598144 -0.12207,0.280762 -0.3418,0.500488 -0.20752,0.20752 -0.48828,0.341797 -0.28076,0.122071 -0.59815,0.122071 z"
       style="font-style:normal;font-variant:normal;font-weight:normal;font-stretch:normal;font-size:25px;line-height:125%;font-family:Magzetician;-inkscape-font-specification:Magzetician;letter-spacing:37.79000092px;word-spacing:0px;fill:#ff0000;fill-opacity:1;stroke:#ff0000;stroke-width:1px;stroke-linecap:butt;stroke-linejoin:miter;stroke-opacity:1"
       id="path5914"
       inkscape:connector-curvature="0" />
    <path
       d="m 395.90515,39.15387 q -0.32959,0 -0.62256,-0.122071 -0.28076,-0.12207 -0.48828,-0.32959 -0.20752,-0.207519 -0.32959,-0.488281 -0.12207,-0.292969 -0.12207,-0.622558 V 21.18512 q 0,-0.317383 -0.23193,-0.549316 -0.23194,-0.231934 -0.54932,-0.231934 h -3.125 q -0.31738,0 -0.54932,0.219727 -0.23193,0.219726 -0.23193,0.561523 v 7.8125 q 0,0.317382 -0.21973,0.549316 -0.21972,0.231934 -0.56152,0.231934 h -1.5625 q -0.3418,0 -0.56152,-0.219727 -0.21973,-0.219726 -0.21973,-0.561523 V 18.84137 q 0,-0.317383 0.12207,-0.598145 0.13428,-0.280761 0.3418,-0.488281 0.21973,-0.219726 0.50049,-0.341797 0.28076,-0.134277 0.59814,-0.134277 h 7.8125 q 0.31738,0 0.59815,0.134277 0.28076,0.122071 0.48828,0.341797 0.21972,0.20752 0.34179,0.488281 0.13428,0.280762 0.13428,0.598145 v 16.40625 q 0,0.341797 0.21973,0.561523 0.21972,0.219727 0.56152,0.219727 h 3.125 q 0.3418,0 0.56152,-0.231934 0.21973,-0.231934 0.21973,-0.549316 v -7.8125 q 0,-0.341797 0.23193,-0.561524 0.23194,-0.219726 0.54932,-0.219726 h 1.5625 q 0.31738,0 0.54932,0.231933 0.23193,0.231934 0.23193,0.549317 v 10.15625 q 0,0.317382 -0.13428,0.598144 -0.12207,0.280762 -0.34179,0.500488 -0.20752,0.20752 -0.48828,0.341797 -0.28077,0.122071 -0.59815,0.122071 z"
       style="font-style:normal;font-variant:normal;font-weight:normal;font-stretch:normal;font-size:25px;line-height:125%;font-family:Magzetician;-inkscape-font-specification:Magzetician;letter-spacing:37.79000092px;word-spacing:0px;fill:#ff0000;fill-opacity:1;stroke:#ff0000;stroke-width:1px;stroke-linecap:butt;stroke-linejoin:miter;stroke-opacity:1"
       id="path5916"
       inkscape:connector-curvature="0" />
    <path
       d="m 43.079109,80.116859 q 0.341797,0 0.561524,-0.231933 0.219726,-0.231934 0.219726,-0.549317 v -10.9375 q 0,-0.317382 -0.231933,-0.549316 -0.231934,-0.231934 -0.549317,-0.231934 h -3.125 q -0.317383,0 -0.549316,0.219727 -0.231934,0.219727 -0.231934,0.561523 v 10.9375 q 0,0.341797 0.219727,0.561524 0.219726,0.219726 0.561523,0.219726 z m 7.8125,0 q 0.341797,0 0.561524,-0.231933 0.219726,-0.231934 0.219726,-0.549317 v -10.9375 q 0,-0.317382 -0.231933,-0.549316 -0.231934,-0.231934 -0.549317,-0.231934 h -3.125 q -0.317383,0 -0.549316,0.219727 -0.231934,0.219727 -0.231934,0.561523 v 10.9375 q 0,0.341797 0.219727,0.561524 0.219726,0.219726 0.561523,0.219726 z m -14.0625,4.6875 q -0.341797,0 -0.561523,-0.219726 -0.219727,-0.219727 -0.219727,-0.561524 v -20.3125 q 0,-0.341796 0.231934,-0.561523 0.231933,-0.219727 0.549316,-0.219727 h 1.5625 q 0.280762,0 0.415039,0.122071 0.146485,0.109863 0.219727,0.280761 0.08545,0.170899 0.12207,0.378418 0.04883,0.20752 0.12207,0.378418 0.08545,0.170899 0.231934,0.292969 0.158691,0.109863 0.45166,0.109863 h 10.9375 q 0.268555,0 0.415039,-0.109863 0.146485,-0.12207 0.231934,-0.292969 0.08545,-0.170898 0.134277,-0.378418 0.04883,-0.207519 0.134278,-0.378418 0.08545,-0.170898 0.231933,-0.280761 0.146485,-0.122071 0.415039,-0.122071 h 1.5625 q 0.317383,0 0.549317,0.231934 0.231933,0.231934 0.231933,0.549316 v 20.3125 q 0,0.317383 -0.219726,0.549317 -0.219727,0.231933 -0.561524,0.231933 h -1.5625 q -0.292969,0 -0.439453,-0.109863 -0.146484,-0.12207 -0.231934,-0.292969 -0.07324,-0.170898 -0.109863,-0.378418 -0.03662,-0.207519 -0.12207,-0.378418 -0.07324,-0.170898 -0.219727,-0.280761 -0.146484,-0.122071 -0.439453,-0.122071 h -10.9375 q -0.292969,0 -0.439453,0.122071 -0.146484,0.109863 -0.231934,0.280761 -0.07324,0.170899 -0.109863,0.378418 -0.03662,0.20752 -0.12207,0.378418 -0.07324,0.170899 -0.219727,0.292969 -0.146484,0.109863 -0.439453,0.109863 z"
       style="font-style:normal;font-variant:normal;font-weight:normal;font-stretch:normal;font-size:25px;line-height:222.00000286%;font-family:Magzetician;-inkscape-font-specification:Magzetician;letter-spacing:29.37999344px;word-spacing:0px;writing-mode:tb-rl;fill:#ff0000;fill-opacity:1;stroke:#ff0000;stroke-width:1px;stroke-linecap:butt;stroke-linejoin:miter;stroke-opacity:1"
       id="path5895"
       inkscape:connector-curvature="0" />
    <path
       d="m 36.829109,145.43435 q -0.341797,0 -0.561523,-0.21973 -0.219727,-0.21972 -0.219727,-0.56152 v -1.5625 q 0,-0.26856 0.109863,-0.41504 0.122071,-0.14648 0.292969,-0.23193 0.170899,-0.0855 0.378418,-0.13428 0.20752,-0.0488 0.378418,-0.13428 0.170899,-0.0855 0.280762,-0.23193 0.12207,-0.14649 0.12207,-0.41504 v -16.40625 q 0,-0.31738 0.122071,-0.59815 0.134277,-0.28076 0.341796,-0.48828 0.219727,-0.21972 0.500489,-0.34179 0.280761,-0.13428 0.598144,-0.13428 h 14.0625 q 0.317383,0 0.598145,0.13428 0.280761,0.12207 0.488281,0.34179 0.219727,0.20752 0.341797,0.48828 0.134277,0.28077 0.134277,0.59815 v 19.53125 q 0,0.31738 -0.219726,0.54932 -0.219727,0.23193 -0.561524,0.23193 h -1.5625 q -0.341797,0 -0.561523,-0.21973 -0.219727,-0.21972 -0.219727,-0.56152 v -17.1875 q 0,-0.31738 -0.231933,-0.54932 -0.231934,-0.23193 -0.549317,-0.23193 h -9.375 q -0.317383,0 -0.549316,0.21973 -0.231934,0.21972 -0.231934,0.56152 v 16.40625 q 0,0.31738 -0.134277,0.59814 -0.12207,0.28077 -0.341797,0.50049 -0.20752,0.20752 -0.488281,0.3418 -0.280762,0.12207 -0.598145,0.12207 z"
       style="font-style:normal;font-variant:normal;font-weight:normal;font-stretch:normal;font-size:25px;line-height:222.00000286%;font-family:Magzetician;-inkscape-font-specification:Magzetician;letter-spacing:29.37999344px;word-spacing:0px;writing-mode:tb-rl;fill:#ff0000;fill-opacity:1;stroke:#ff0000;stroke-width:1px;stroke-linecap:butt;stroke-linejoin:miter;stroke-opacity:1"
       id="path5897"
       inkscape:connector-curvature="0" />
    <path
       d="m 36.829109,206.06434 q -0.341797,0 -0.561523,-0.21973 -0.219727,-0.21972 -0.219727,-0.56152 v -1.5625 q 0,-0.3418 0.231934,-0.56152 0.231933,-0.21973 0.549316,-0.21973 h 6.25 q 0.341797,0 0.561524,-0.23193 0.219726,-0.23194 0.219726,-0.54932 v -4.6875 q 0,-0.31738 -0.231933,-0.54932 -0.231934,-0.23193 -0.549317,-0.23193 h -5.46875 q -0.32959,0 -0.622558,-0.12207 -0.280762,-0.12207 -0.488282,-0.32959 -0.207519,-0.20752 -0.329589,-0.48828 -0.122071,-0.29297 -0.122071,-0.62256 v -10.15625 q 0,-0.3418 0.231934,-0.56152 0.231933,-0.21973 0.549316,-0.21973 h 1.5625 q 0.317383,0 0.549317,0.23193 0.231933,0.23194 0.231933,0.54932 v 7.8125 q 0,0.3418 0.219727,0.56152 0.219726,0.21973 0.561523,0.21973 h 10.9375 q 0.341797,0 0.561524,-0.23193 0.219726,-0.23194 0.219726,-0.54932 v -7.8125 q 0,-0.3418 0.231934,-0.56152 0.231933,-0.21973 0.549316,-0.21973 h 1.5625 q 0.317383,0 0.549317,0.23193 0.231933,0.23194 0.231933,0.54932 v 10.15625 q 0,0.31738 -0.134277,0.59814 -0.12207,0.28076 -0.341797,0.50049 -0.20752,0.20752 -0.488281,0.3418 -0.280762,0.12207 -0.598145,0.12207 h -5.46875 q -0.317383,0 -0.549316,0.21973 -0.231934,0.21972 -0.231934,0.56152 v 4.6875 q 0,0.3418 0.219727,0.56152 0.219726,0.21973 0.561523,0.21973 h 6.25 q 0.317383,0 0.549317,0.23193 0.231933,0.23194 0.231933,0.54932 v 1.5625 q 0,0.31738 -0.219726,0.54932 -0.219727,0.23193 -0.561524,0.23193 z"
       style="font-style:normal;font-variant:normal;font-weight:normal;font-stretch:normal;font-size:25px;line-height:222.00000286%;font-family:Magzetician;-inkscape-font-specification:Magzetician;letter-spacing:29.37999344px;word-spacing:0px;writing-mode:tb-rl;fill:#ff0000;fill-opacity:1;stroke:#ff0000;stroke-width:1px;stroke-linecap:butt;stroke-linejoin:miter;stroke-opacity:1"
       id="path5899"
       inkscape:connector-curvature="0" />
    <path
       d="m 43.079109,257.31934 q 0.341797,0 0.561524,-0.23193 0.219726,-0.23193 0.219726,-0.54932 v -7.8125 q 0,-0.31738 -0.231933,-0.54931 -0.231934,-0.23194 -0.549317,-0.23194 h -3.125 q -0.317383,0 -0.549316,0.21973 -0.231934,0.21973 -0.231934,0.56152 v 7.8125 q 0,0.3418 0.219727,0.56153 0.219726,0.21972 0.561523,0.21972 z m -6.25,9.375 q -0.341797,0 -0.561523,-0.21972 -0.219727,-0.21973 -0.219727,-0.56153 v -1.5625 q 0,-0.34179 0.231934,-0.56152 0.231933,-0.21973 0.549316,-0.21973 h 14.0625 q 0.341797,0 0.561524,-0.23193 0.219726,-0.23193 0.219726,-0.54932 v -4.6875 q 0,-0.31738 -0.231933,-0.54931 -0.231934,-0.23194 -0.549317,-0.23194 h -3.125 q -0.317383,0 -0.549316,0.21973 -0.231934,0.21973 -0.231934,0.56152 v 0.78125 q 0,0.31739 -0.134277,0.59815 -0.12207,0.28076 -0.341797,0.50049 -0.20752,0.20752 -0.488281,0.34179 -0.280762,0.12207 -0.598145,0.12207 h -7.8125 q -0.32959,0 -0.622558,-0.12207 -0.280762,-0.12207 -0.488282,-0.32959 -0.207519,-0.20752 -0.329589,-0.48828 -0.122071,-0.29297 -0.122071,-0.62256 v -12.5 q 0,-0.31738 0.122071,-0.59814 0.134277,-0.28076 0.341796,-0.48828 0.219727,-0.21973 0.500489,-0.3418 0.280761,-0.13428 0.598144,-0.13428 h 7.8125 q 0.317383,0 0.598145,0.13428 0.280761,0.12207 0.488281,0.3418 0.219727,0.20752 0.341797,0.48828 0.134277,0.28076 0.134277,0.59814 v 7.03125 q 0,0.3418 0.219727,0.56153 0.219726,0.21972 0.561523,0.21972 h 5.46875 q 0.317383,0 0.598145,0.13428 0.280761,0.12207 0.488281,0.3418 0.219727,0.20752 0.341797,0.48828 0.134277,0.28076 0.134277,0.59814 v 9.375 q 0,0.31739 -0.134277,0.59815 -0.12207,0.28076 -0.341797,0.50049 -0.20752,0.20752 -0.488281,0.34179 -0.280762,0.12207 -0.598145,0.12207 z"
       style="font-style:normal;font-variant:normal;font-weight:normal;font-stretch:normal;font-size:25px;line-height:222.00000286%;font-family:Magzetician;-inkscape-font-specification:Magzetician;letter-spacing:29.37999344px;word-spacing:0px;writing-mode:tb-rl;fill:#ff0000;fill-opacity:1;stroke:#ff0000;stroke-width:1px;stroke-linecap:butt;stroke-linejoin:miter;stroke-opacity:1"
       id="path5901"
       inkscape:connector-curvature="0" />
    <path
       d="m 36.829109,327.32432 q -0.341797,0 -0.561523,-0.21973 -0.219727,-0.21973 -0.219727,-0.56152 v -1.5625 q 0,-0.26856 0.109863,-0.41504 0.122071,-0.14649 0.292969,-0.23193 0.170899,-0.0854 0.378418,-0.13428 0.20752,-0.0488 0.378418,-0.13428 0.170899,-0.0855 0.280762,-0.23193 0.12207,-0.14649 0.12207,-0.41504 v -14.0625 q 0,-0.28076 -0.12207,-0.41504 -0.109863,-0.14649 -0.280762,-0.21973 -0.170898,-0.0854 -0.378418,-0.12207 -0.207519,-0.0488 -0.378418,-0.12207 -0.170898,-0.0854 -0.292969,-0.23193 -0.109863,-0.15869 -0.109863,-0.45166 v -1.5625 q 0,-0.3418 0.231934,-0.56153 0.231933,-0.21972 0.549316,-0.21972 h 17.1875 q 0.317383,0 0.549317,0.23193 0.231933,0.23194 0.231933,0.54932 v 1.5625 q 0,0.31738 -0.219726,0.54931 -0.219727,0.23194 -0.561524,0.23194 h -12.5 q -0.317383,0 -0.549316,0.21972 -0.231934,0.21973 -0.231934,0.56153 v 4.6875 q 0,0.34179 0.219727,0.56152 0.219726,0.21973 0.561523,0.21973 h 11.71875 q 0.317383,0 0.598145,0.13428 0.280761,0.12207 0.488281,0.34179 0.219727,0.20752 0.341797,0.48828 0.134277,0.28077 0.134277,0.59815 v 10.15625 q 0,0.31738 -0.219726,0.54931 -0.219727,0.23194 -0.561524,0.23194 h -1.5625 q -0.341797,0 -0.561523,-0.21973 -0.219727,-0.21973 -0.219727,-0.56152 v -7.8125 q 0,-0.31738 -0.231933,-0.54932 -0.231934,-0.23193 -0.549317,-0.23193 h -9.375 q -0.317383,0 -0.549316,0.21972 -0.231934,0.21973 -0.231934,0.56153 v 7.03125 q 0,0.31738 -0.134277,0.59814 -0.12207,0.28076 -0.341797,0.50049 -0.20752,0.20752 -0.488281,0.3418 -0.280762,0.12207 -0.598145,0.12207 z"
       style="font-style:normal;font-variant:normal;font-weight:normal;font-stretch:normal;font-size:25px;line-height:222.00000286%;font-family:Magzetician;-inkscape-font-specification:Magzetician;letter-spacing:29.37999344px;word-spacing:0px;writing-mode:tb-rl;fill:#ff0000;fill-opacity:1;stroke:#ff0000;stroke-width:1px;stroke-linecap:butt;stroke-linejoin:miter;stroke-opacity:1"
       id="path5903"
       inkscape:connector-curvature="0" />
    <ellipse
       ry="22.454834"
       rx="22.454832"
       cy="73.188301"
       cx="-856.45514"
       id="path4287-40"
       style="fill:none;fill-opacity:1;stroke:#ff0000;stroke-width:0.09033381;stroke-linecap:round;stroke-miterlimit:4;stroke-dasharray:none;stroke-opacity:1"
       transform="scale(-1,1)" />
    <ellipse
       ry="22.454834"
       rx="22.454832"
       cy="73.188301"
       cx="-795.40515"
       id="path4287-7-3"
       style="opacity:1;fill:none;fill-opacity:1;stroke:#ff0000;stroke-width:0.09033381;stroke-linecap:round;stroke-miterlimit:4;stroke-dasharray:none;stroke-opacity:1"
       transform="scale(-1,1)" />
    <ellipse
       ry="22.454834"
       rx="22.454832"
       cy="73.188301"
       cx="-734.35516"
       id="path4287-1-8"
       style="fill:none;fill-opacity:1;stroke:#ff0000;stroke-width:0.09033381;stroke-linecap:round;stroke-miterlimit:4;stroke-dasharray:none;stroke-opacity:1"
       transform="scale(-1,1)" />
    <ellipse
       ry="22.454834"
       rx="22.454832"
       cy="73.188301"
       cx="-673.30518"
       id="path4287-9-7"
       style="fill:none;fill-opacity:1;stroke:#ff0000;stroke-width:0.09033381;stroke-linecap:round;stroke-miterlimit:4;stroke-dasharray:none;stroke-opacity:1"
       transform="scale(-1,1)" />
    <ellipse
       ry="22.454834"
       rx="22.454832"
       cy="73.188301"
       cx="-612.25519"
       id="path4287-6-8"
       style="fill:none;fill-opacity:1;stroke:#ff0000;stroke-width:0.09033381;stroke-linecap:round;stroke-miterlimit:4;stroke-dasharray:none;stroke-opacity:1"
       transform="scale(-1,1)" />
    <ellipse
       ry="22.454834"
       rx="22.454832"
       cy="73.188301"
       cx="-551.20514"
       id="path4287-8-8"
       style="fill:none;fill-opacity:1;stroke:#ff0000;stroke-width:0.09033381;stroke-linecap:round;stroke-miterlimit:4;stroke-dasharray:none;stroke-opacity:1"
       transform="scale(-1,1)" />
    <ellipse
       ry="22.454834"
       rx="22.454832"
       cy="134.23355"
       cx="-856.45514"
       id="path4287-3-6"
       style="fill:none;fill-opacity:1;stroke:#ff0000;stroke-width:0.09033381;stroke-linecap:round;stroke-miterlimit:4;stroke-dasharray:none;stroke-opacity:1"
       transform="scale(-1,1)" />
    <ellipse
       ry="22.454834"
       rx="22.454832"
       cy="134.23355"
       cx="-795.40515"
       id="path4287-76-3"
       style="fill:none;fill-opacity:1;stroke:#ff0000;stroke-width:0.09033381;stroke-linecap:round;stroke-miterlimit:4;stroke-dasharray:none;stroke-opacity:1"
       transform="scale(-1,1)" />
    <ellipse
       ry="22.454834"
       rx="22.454832"
       cy="134.23355"
       cx="-734.35516"
       id="path4287-95-8"
       style="fill:none;fill-opacity:1;stroke:#ff0000;stroke-width:0.09033381;stroke-linecap:round;stroke-miterlimit:4;stroke-dasharray:none;stroke-opacity:1"
       transform="scale(-1,1)" />
    <ellipse
       ry="22.454834"
       rx="22.454832"
       cy="134.23355"
       cx="-673.30518"
       id="path4287-17-5"
       style="fill:none;fill-opacity:1;stroke:#ff0000;stroke-width:0.09033381;stroke-linecap:round;stroke-miterlimit:4;stroke-dasharray:none;stroke-opacity:1"
       transform="scale(-1,1)" />
    <ellipse
       ry="22.454834"
       rx="22.454832"
       cy="134.23355"
       cx="-612.25519"
       id="path4287-92-5"
       style="opacity:1;fill:none;fill-opacity:1;stroke:#ff0000;stroke-width:0.09033381;stroke-linecap:round;stroke-miterlimit:4;stroke-dasharray:none;stroke-opacity:1"
       transform="scale(-1,1)" />
    <ellipse
       ry="22.454834"
       rx="22.454832"
       cy="134.23355"
       cx="-551.20514"
       id="path4287-5-3"
       style="fill:none;fill-opacity:1;stroke:#ff0000;stroke-width:0.09033381;stroke-linecap:round;stroke-miterlimit:4;stroke-dasharray:none;stroke-opacity:1"
       transform="scale(-1,1)" />
    <ellipse
       ry="22.454834"
       rx="22.454832"
       cy="195.27884"
       cx="-856.45514"
       id="path4287-52-1"
       style="fill:none;fill-opacity:1;stroke:#ff0000;stroke-width:0.09033381;stroke-linecap:round;stroke-miterlimit:4;stroke-dasharray:none;stroke-opacity:1"
       transform="scale(-1,1)" />
    <ellipse
       ry="22.454834"
       rx="22.454832"
       cy="195.27884"
       cx="-795.40515"
       id="path4287-67-3"
       style="fill:none;fill-opacity:1;stroke:#ff0000;stroke-width:0.09033381;stroke-linecap:round;stroke-miterlimit:4;stroke-dasharray:none;stroke-opacity:1"
       transform="scale(-1,1)" />
    <ellipse
       ry="22.454834"
       rx="22.454832"
       cy="195.27884"
       cx="-734.35516"
       id="path4287-63-5"
       style="opacity:1;fill:none;fill-opacity:1;stroke:#ff0000;stroke-width:0.09033381;stroke-linecap:round;stroke-miterlimit:4;stroke-dasharray:none;stroke-opacity:1"
       transform="scale(-1,1)" />
    <ellipse
       ry="22.454834"
       rx="22.454832"
       cy="195.27884"
       cx="-673.30518"
       id="path4287-2-2"
       style="fill:none;fill-opacity:1;stroke:#ff0000;stroke-width:0.09033381;stroke-linecap:round;stroke-miterlimit:4;stroke-dasharray:none;stroke-opacity:1"
       transform="scale(-1,1)" />
    <ellipse
       ry="22.454834"
       rx="22.454832"
       cy="195.27884"
       cx="-612.25519"
       id="path4287-87-6"
       style="fill:none;fill-opacity:1;stroke:#ff0000;stroke-width:0.09033381;stroke-linecap:round;stroke-miterlimit:4;stroke-dasharray:none;stroke-opacity:1"
       transform="scale(-1,1)" />
    <ellipse
       ry="22.454834"
       rx="22.454832"
       cy="195.27884"
       cx="-551.20514"
       id="path4287-4-0"
       style="fill:none;fill-opacity:1;stroke:#ff0000;stroke-width:0.09033381;stroke-linecap:round;stroke-miterlimit:4;stroke-dasharray:none;stroke-opacity:1"
       transform="scale(-1,1)" />
    <ellipse
       ry="22.454834"
       rx="22.454832"
       cy="256.32413"
       cx="-551.20514"
       id="path4287-27-5"
       style="opacity:1;fill:none;fill-opacity:1;stroke:#ff0000;stroke-width:0.09033381;stroke-linecap:round;stroke-miterlimit:4;stroke-dasharray:none;stroke-opacity:1"
       transform="scale(-1,1)" />
    <ellipse
       ry="22.454834"
       rx="22.454832"
       cy="256.32413"
       cx="-612.25519"
       id="path4287-10-7"
       style="fill:none;fill-opacity:1;stroke:#ff0000;stroke-width:0.09033381;stroke-linecap:round;stroke-miterlimit:4;stroke-dasharray:none;stroke-opacity:1"
       transform="scale(-1,1)" />
    <ellipse
       ry="22.454834"
       rx="22.454832"
       cy="256.32413"
       cx="-673.30518"
       id="path4287-13-4"
       style="fill:none;fill-opacity:1;stroke:#ff0000;stroke-width:0.09033381;stroke-linecap:round;stroke-miterlimit:4;stroke-dasharray:none;stroke-opacity:1"
       transform="scale(-1,1)" />
    <ellipse
       ry="22.454834"
       rx="22.454832"
       cy="256.32413"
       cx="-734.35516"
       id="path4287-94-0"
       style="fill:none;fill-opacity:1;stroke:#ff0000;stroke-width:0.09033381;stroke-linecap:round;stroke-miterlimit:4;stroke-dasharray:none;stroke-opacity:1"
       transform="scale(-1,1)" />
    <ellipse
       ry="22.454834"
       rx="22.454832"
       cy="256.32413"
       cx="-795.40515"
       id="path4287-68-6"
       style="fill:none;fill-opacity:1;stroke:#ff0000;stroke-width:0.09033381;stroke-linecap:round;stroke-miterlimit:4;stroke-dasharray:none;stroke-opacity:1"
       transform="scale(-1,1)" />
    <ellipse
       ry="22.454834"
       rx="22.454832"
       cy="256.32413"
       cx="-856.45514"
       id="path4287-0-8"
       style="fill:none;fill-opacity:1;stroke:#ff0000;stroke-width:0.09033381;stroke-linecap:round;stroke-miterlimit:4;stroke-dasharray:none;stroke-opacity:1"
       transform="scale(-1,1)" />
    <ellipse
       ry="22.454834"
       rx="22.454832"
       cy="317.36945"
       cx="-856.45514"
       id="path4287-59-1"
       style="opacity:1;fill:none;fill-opacity:1;stroke:#ff0000;stroke-width:0.09033381;stroke-linecap:round;stroke-miterlimit:4;stroke-dasharray:none;stroke-opacity:1"
       transform="scale(-1,1)" />
    <ellipse
       ry="22.454834"
       rx="22.454832"
       cy="317.36945"
       cx="-795.40515"
       id="path4287-62-8"
       style="fill:none;fill-opacity:1;stroke:#ff0000;stroke-width:0.09033381;stroke-linecap:round;stroke-miterlimit:4;stroke-dasharray:none;stroke-opacity:1"
       transform="scale(-1,1)" />
    <ellipse
       ry="22.454834"
       rx="22.454832"
       cy="317.36945"
       cx="-734.35516"
       id="path4287-29-9"
       style="fill:none;fill-opacity:1;stroke:#ff0000;stroke-width:0.09033381;stroke-linecap:round;stroke-miterlimit:4;stroke-dasharray:none;stroke-opacity:1"
       transform="scale(-1,1)" />
    <ellipse
       ry="22.454834"
       rx="22.454832"
       cy="317.36945"
       cx="-673.30518"
       id="path4287-44-8"
       style="fill:none;fill-opacity:1;stroke:#ff0000;stroke-width:0.09033381;stroke-linecap:round;stroke-miterlimit:4;stroke-dasharray:none;stroke-opacity:1"
       transform="scale(-1,1)" />
    <ellipse
       ry="22.454834"
       rx="22.454832"
       cy="317.36945"
       cx="-612.25519"
       id="path4287-84-2"
       style="fill:none;fill-opacity:1;stroke:#ff0000;stroke-width:0.09033381;stroke-linecap:round;stroke-miterlimit:4;stroke-dasharray:none;stroke-opacity:1"
       transform="scale(-1,1)" />
    <ellipse
       ry="22.454834"
       rx="22.454832"
       cy="317.36945"
       cx="-551.20514"
       id="path4287-74-4"
       style="fill:none;fill-opacity:1;stroke:#ff0000;stroke-width:0.09033381;stroke-linecap:round;stroke-miterlimit:4;stroke-dasharray:none;stroke-opacity:1"
       transform="scale(-1,1)" />
    <circle
       r="20.333118"
       cy="73.188301"
       cx="-551.20514"
       id="path4287-8-8-1"
       style="fill:none;fill-opacity:1;stroke:#ff0000;stroke-width:0.08179833;stroke-linecap:round;stroke-miterlimit:4;stroke-dasharray:none;stroke-opacity:1"
       transform="scale(-1,1)" />
    <circle
       r="20.333118"
       cy="73.188301"
       cx="-612.25519"
       id="path4287-8-8-1-9"
       style="fill:none;fill-opacity:1;stroke:#ff0000;stroke-width:0.08179833;stroke-linecap:round;stroke-miterlimit:4;stroke-dasharray:none;stroke-opacity:1"
       transform="scale(-1,1)" />
    <circle
       r="20.333118"
       cy="73.188301"
       cx="-673.30518"
       id="path4287-8-8-1-4"
       style="fill:none;fill-opacity:1;stroke:#ff0000;stroke-width:0.08179833;stroke-linecap:round;stroke-miterlimit:4;stroke-dasharray:none;stroke-opacity:1"
       transform="scale(-1,1)" />
    <circle
       r="20.333118"
       cy="73.188301"
       cx="-734.35516"
       id="path4287-8-8-1-0"
       style="fill:none;fill-opacity:1;stroke:#ff0000;stroke-width:0.08179833;stroke-linecap:round;stroke-miterlimit:4;stroke-dasharray:none;stroke-opacity:1"
       transform="scale(-1,1)" />
    <circle
       r="20.333118"
       cy="73.188301"
       cx="-795.40515"
       id="path4287-8-8-1-1"
       style="fill:none;fill-opacity:1;stroke:#ff0000;stroke-width:0.08179833;stroke-linecap:round;stroke-miterlimit:4;stroke-dasharray:none;stroke-opacity:1"
       transform="scale(-1,1)" />
    <circle
       r="20.333118"
       cy="73.188301"
       cx="-856.45514"
       id="path4287-8-8-1-3"
       style="fill:none;fill-opacity:1;stroke:#ff0000;stroke-width:0.08179833;stroke-linecap:round;stroke-miterlimit:4;stroke-dasharray:none;stroke-opacity:1"
       transform="scale(-1,1)" />
    <circle
       r="20.333118"
       cy="134.23355"
       cx="-856.45514"
       id="path4287-8-8-1-7"
       style="fill:none;fill-opacity:1;stroke:#ff0000;stroke-width:0.08179833;stroke-linecap:round;stroke-miterlimit:4;stroke-dasharray:none;stroke-opacity:1"
       transform="scale(-1,1)" />
    <circle
       r="20.333118"
       cy="134.23355"
       cx="-795.40515"
       id="path4287-8-8-1-05"
       style="fill:none;fill-opacity:1;stroke:#ff0000;stroke-width:0.08179833;stroke-linecap:round;stroke-miterlimit:4;stroke-dasharray:none;stroke-opacity:1"
       transform="scale(-1,1)" />
    <circle
       r="20.333118"
       cy="134.23355"
       cx="-734.35516"
       id="path4287-8-8-1-01"
       style="fill:none;fill-opacity:1;stroke:#ff0000;stroke-width:0.08179833;stroke-linecap:round;stroke-miterlimit:4;stroke-dasharray:none;stroke-opacity:1"
       transform="scale(-1,1)" />
    <circle
       r="20.333118"
       cy="134.23355"
       cx="-673.30518"
       id="path4287-8-8-1-8"
       style="fill:none;fill-opacity:1;stroke:#ff0000;stroke-width:0.08179833;stroke-linecap:round;stroke-miterlimit:4;stroke-dasharray:none;stroke-opacity:1"
       transform="scale(-1,1)" />
    <circle
       r="20.333118"
       cy="134.23355"
       cx="-612.25519"
       id="path4287-8-8-1-45"
       style="fill:none;fill-opacity:1;stroke:#ff0000;stroke-width:0.08179833;stroke-linecap:round;stroke-miterlimit:4;stroke-dasharray:none;stroke-opacity:1"
       transform="scale(-1,1)" />
    <circle
       r="20.333118"
       cy="134.23355"
       cx="-551.20514"
       id="path4287-8-8-1-85"
       style="fill:none;fill-opacity:1;stroke:#ff0000;stroke-width:0.08179833;stroke-linecap:round;stroke-miterlimit:4;stroke-dasharray:none;stroke-opacity:1"
       transform="scale(-1,1)" />
    <circle
       r="20.333118"
       cy="195.27884"
       cx="-551.20514"
       id="path4287-8-8-1-72"
       style="fill:none;fill-opacity:1;stroke:#ff0000;stroke-width:0.08179833;stroke-linecap:round;stroke-miterlimit:4;stroke-dasharray:none;stroke-opacity:1"
       transform="scale(-1,1)" />
    <circle
       r="20.333118"
       cy="195.27884"
       cx="-612.25519"
       id="path4287-8-8-1-6"
       style="fill:none;fill-opacity:1;stroke:#ff0000;stroke-width:0.08179833;stroke-linecap:round;stroke-miterlimit:4;stroke-dasharray:none;stroke-opacity:1"
       transform="scale(-1,1)" />
    <circle
       r="20.333118"
       cy="195.27884"
       cx="-673.30518"
       id="path4287-8-8-1-84"
       style="fill:none;fill-opacity:1;stroke:#ff0000;stroke-width:0.08179833;stroke-linecap:round;stroke-miterlimit:4;stroke-dasharray:none;stroke-opacity:1"
       transform="scale(-1,1)" />
    <circle
       r="20.333118"
       cy="195.27884"
       cx="-734.35516"
       id="path4287-8-8-1-68"
       style="fill:none;fill-opacity:1;stroke:#ff0000;stroke-width:0.08179833;stroke-linecap:round;stroke-miterlimit:4;stroke-dasharray:none;stroke-opacity:1"
       transform="scale(-1,1)" />
    <circle
       r="20.333118"
       cy="195.27884"
       cx="-795.40515"
       id="path4287-8-8-1-14"
       style="fill:none;fill-opacity:1;stroke:#ff0000;stroke-width:0.08179833;stroke-linecap:round;stroke-miterlimit:4;stroke-dasharray:none;stroke-opacity:1"
       transform="scale(-1,1)" />
    <circle
       r="20.333118"
       cy="195.27884"
       cx="-856.45514"
       id="path4287-8-8-1-680"
       style="fill:none;fill-opacity:1;stroke:#ff0000;stroke-width:0.08179833;stroke-linecap:round;stroke-miterlimit:4;stroke-dasharray:none;stroke-opacity:1"
       transform="scale(-1,1)" />
    <circle
       r="20.333118"
       cy="256.32413"
       cx="-856.45514"
       id="path4287-8-8-1-66"
       style="fill:none;fill-opacity:1;stroke:#ff0000;stroke-width:0.08179833;stroke-linecap:round;stroke-miterlimit:4;stroke-dasharray:none;stroke-opacity:1"
       transform="scale(-1,1)" />
    <circle
       r="20.333118"
       cy="256.32413"
       cx="-795.40515"
       id="path4287-8-8-1-07"
       style="fill:none;fill-opacity:1;stroke:#ff0000;stroke-width:0.08179833;stroke-linecap:round;stroke-miterlimit:4;stroke-dasharray:none;stroke-opacity:1"
       transform="scale(-1,1)" />
    <circle
       r="20.333118"
       cy="256.32413"
       cx="-734.35516"
       id="path4287-8-8-1-43"
       style="fill:none;fill-opacity:1;stroke:#ff0000;stroke-width:0.08179833;stroke-linecap:round;stroke-miterlimit:4;stroke-dasharray:none;stroke-opacity:1"
       transform="scale(-1,1)" />
    <circle
       r="20.333118"
       cy="256.32413"
       cx="-673.30518"
       id="path4287-8-8-1-2"
       style="fill:none;fill-opacity:1;stroke:#ff0000;stroke-width:0.08179833;stroke-linecap:round;stroke-miterlimit:4;stroke-dasharray:none;stroke-opacity:1"
       transform="scale(-1,1)" />
    <circle
       r="20.333118"
       cy="256.32413"
       cx="-612.25519"
       id="path4287-8-8-1-42"
       style="fill:none;fill-opacity:1;stroke:#ff0000;stroke-width:0.08179833;stroke-linecap:round;stroke-miterlimit:4;stroke-dasharray:none;stroke-opacity:1"
       transform="scale(-1,1)" />
    <circle
       r="20.333118"
       cy="256.32413"
       cx="-551.20514"
       id="path4287-8-8-1-95"
       style="fill:none;fill-opacity:1;stroke:#ff0000;stroke-width:0.08179833;stroke-linecap:round;stroke-miterlimit:4;stroke-dasharray:none;stroke-opacity:1"
       transform="scale(-1,1)" />
    <circle
       r="20.333118"
       cy="317.36945"
       cx="-856.45514"
       id="path4287-8-8-1-06"
       style="fill:none;fill-opacity:1;stroke:#ff0000;stroke-width:0.08179833;stroke-linecap:round;stroke-miterlimit:4;stroke-dasharray:none;stroke-opacity:1"
       transform="scale(-1,1)" />
    <circle
       r="20.333118"
       cy="317.36945"
       cx="-795.40515"
       id="path4287-8-8-1-73"
       style="fill:none;fill-opacity:1;stroke:#ff0000;stroke-width:0.08179833;stroke-linecap:round;stroke-miterlimit:4;stroke-dasharray:none;stroke-opacity:1"
       transform="scale(-1,1)" />
    <circle
       r="20.333118"
       cy="317.36945"
       cx="-734.35516"
       id="path4287-8-8-1-20"
       style="fill:none;fill-opacity:1;stroke:#ff0000;stroke-width:0.08179833;stroke-linecap:round;stroke-miterlimit:4;stroke-dasharray:none;stroke-opacity:1"
       transform="scale(-1,1)" />
    <circle
       r="20.333118"
       cy="317.36945"
       cx="-673.30518"
       id="path4287-8-8-1-83"
       style="fill:none;fill-opacity:1;stroke:#ff0000;stroke-width:0.08179833;stroke-linecap:round;stroke-miterlimit:4;stroke-dasharray:none;stroke-opacity:1"
       transform="scale(-1,1)" />
    <circle
       r="20.333118"
       cy="317.36945"
       cx="-612.25519"
       id="path4287-8-8-1-456"
       style="fill:none;fill-opacity:1;stroke:#ff0000;stroke-width:0.08179833;stroke-linecap:round;stroke-miterlimit:4;stroke-dasharray:none;stroke-opacity:1"
       transform="scale(-1,1)" />
    <circle
       r="20.333118"
       cy="317.36945"
       cx="-551.20514"
       id="path4287-8-8-1-32"
       style="fill:none;fill-opacity:1;stroke:#ff0000;stroke-width:0.08179833;stroke-linecap:round;stroke-miterlimit:4;stroke-dasharray:none;stroke-opacity:1"
       transform="scale(-1,1)" />
  </g>
  <g
     inkscape:groupmode="layer"
     id="layer2"
     inkscape:label="Inner Cuts"
     style="display:inline"
     transform="translate(2.9296484,10.35599)">
    <ellipse
       ry="22.454834"
       rx="22.454832"
       cy="73.188316"
       cx="90.705124"
       id="path4287"
       style="fill:none;fill-opacity:1;stroke:#0000ff;stroke-width:0.09033381;stroke-linecap:round;stroke-miterlimit:4;stroke-dasharray:none;stroke-opacity:1" />
    <ellipse
       ry="22.454834"
       rx="22.454832"
       cy="73.188316"
       cx="151.75513"
       id="path4287-7"
       style="opacity:1;fill:none;fill-opacity:1;stroke:#0000ff;stroke-width:0.09000001;stroke-linecap:round;stroke-miterlimit:4;stroke-dasharray:none;stroke-opacity:1" />
    <ellipse
       ry="22.454834"
       rx="22.454832"
       cy="73.188316"
       cx="212.80511"
       id="path4287-1"
       style="fill:none;fill-opacity:1;stroke:#0000ff;stroke-width:0.09033381;stroke-linecap:round;stroke-miterlimit:4;stroke-dasharray:none;stroke-opacity:1" />
    <ellipse
       ry="22.454834"
       rx="22.454832"
       cy="73.188316"
       cx="273.8551"
       id="path4287-9"
       style="fill:none;fill-opacity:1;stroke:#0000ff;stroke-width:0.09033381;stroke-linecap:round;stroke-miterlimit:4;stroke-dasharray:none;stroke-opacity:1" />
    <ellipse
       ry="22.454834"
       rx="22.454832"
       cy="73.188316"
       cx="334.90512"
       id="path4287-6"
       style="fill:none;fill-opacity:1;stroke:#0000ff;stroke-width:0.09033381;stroke-linecap:round;stroke-miterlimit:4;stroke-dasharray:none;stroke-opacity:1" />
    <ellipse
       ry="22.454834"
       rx="22.454832"
       cy="73.188316"
       cx="395.95514"
       id="path4287-8"
       style="fill:none;fill-opacity:1;stroke:#0000ff;stroke-width:0.09033381;stroke-linecap:round;stroke-miterlimit:4;stroke-dasharray:none;stroke-opacity:1" />
    <ellipse
       ry="22.454834"
       rx="22.454832"
       cy="134.23357"
       cx="90.705124"
       id="path4287-3"
       style="fill:none;fill-opacity:1;stroke:#0000ff;stroke-width:0.09033381;stroke-linecap:round;stroke-miterlimit:4;stroke-dasharray:none;stroke-opacity:1" />
    <ellipse
       ry="22.454834"
       rx="22.454832"
       cy="134.23357"
       cx="151.75513"
       id="path4287-76"
       style="fill:none;fill-opacity:1;stroke:#0000ff;stroke-width:0.09033381;stroke-linecap:round;stroke-miterlimit:4;stroke-dasharray:none;stroke-opacity:1" />
    <ellipse
       ry="22.454834"
       rx="22.454832"
       cy="134.23357"
       cx="212.80511"
       id="path4287-95"
       style="fill:none;fill-opacity:1;stroke:#0000ff;stroke-width:0.09033381;stroke-linecap:round;stroke-miterlimit:4;stroke-dasharray:none;stroke-opacity:1" />
    <ellipse
       ry="22.454834"
       rx="22.454832"
       cy="134.23357"
       cx="273.8551"
       id="path4287-17"
       style="fill:none;fill-opacity:1;stroke:#0000ff;stroke-width:0.09033381;stroke-linecap:round;stroke-miterlimit:4;stroke-dasharray:none;stroke-opacity:1" />
    <ellipse
       ry="22.454834"
       rx="22.454832"
       cy="134.23357"
       cx="334.90512"
       id="path4287-92"
       style="opacity:1;fill:none;fill-opacity:1;stroke:#0000ff;stroke-width:0.09000001;stroke-linecap:round;stroke-miterlimit:4;stroke-dasharray:none;stroke-opacity:1" />
    <ellipse
       ry="22.454834"
       rx="22.454832"
       cy="134.23357"
       cx="395.95514"
       id="path4287-5"
       style="fill:none;fill-opacity:1;stroke:#0000ff;stroke-width:0.09033381;stroke-linecap:round;stroke-miterlimit:4;stroke-dasharray:none;stroke-opacity:1" />
    <ellipse
       ry="22.454834"
       rx="22.454832"
       cy="195.27885"
       cx="90.705124"
       id="path4287-52"
       style="fill:none;fill-opacity:1;stroke:#0000ff;stroke-width:0.09033381;stroke-linecap:round;stroke-miterlimit:4;stroke-dasharray:none;stroke-opacity:1" />
    <ellipse
       ry="22.454834"
       rx="22.454832"
       cy="195.27885"
       cx="151.75513"
       id="path4287-67"
       style="fill:none;fill-opacity:1;stroke:#0000ff;stroke-width:0.09033381;stroke-linecap:round;stroke-miterlimit:4;stroke-dasharray:none;stroke-opacity:1" />
    <ellipse
       ry="22.454834"
       rx="22.454832"
       cy="195.27885"
       cx="212.80511"
       id="path4287-63"
       style="opacity:1;fill:none;fill-opacity:1;stroke:#0000ff;stroke-width:0.09000001;stroke-linecap:round;stroke-miterlimit:4;stroke-dasharray:none;stroke-opacity:1" />
    <ellipse
       ry="22.454834"
       rx="22.454832"
       cy="195.27885"
       cx="273.8551"
       id="path4287-2"
       style="fill:none;fill-opacity:1;stroke:#0000ff;stroke-width:0.09033381;stroke-linecap:round;stroke-miterlimit:4;stroke-dasharray:none;stroke-opacity:1" />
    <ellipse
       ry="22.454834"
       rx="22.454832"
       cy="195.27885"
       cx="334.90512"
       id="path4287-87"
       style="fill:none;fill-opacity:1;stroke:#0000ff;stroke-width:0.09033381;stroke-linecap:round;stroke-miterlimit:4;stroke-dasharray:none;stroke-opacity:1" />
    <ellipse
       ry="22.454834"
       rx="22.454832"
       cy="195.27885"
       cx="395.95514"
       id="path4287-4"
       style="fill:none;fill-opacity:1;stroke:#0000ff;stroke-width:0.09033381;stroke-linecap:round;stroke-miterlimit:4;stroke-dasharray:none;stroke-opacity:1" />
    <ellipse
       ry="22.454834"
       rx="22.454832"
       cy="256.32416"
       cx="395.95514"
       id="path4287-27"
       style="opacity:1;fill:none;fill-opacity:1;stroke:#0000ff;stroke-width:0.09000001;stroke-linecap:round;stroke-miterlimit:4;stroke-dasharray:none;stroke-opacity:1" />
    <ellipse
       ry="22.454834"
       rx="22.454832"
       cy="256.32416"
       cx="334.90512"
       id="path4287-10"
       style="fill:none;fill-opacity:1;stroke:#0000ff;stroke-width:0.09033381;stroke-linecap:round;stroke-miterlimit:4;stroke-dasharray:none;stroke-opacity:1" />
    <ellipse
       ry="22.454834"
       rx="22.454832"
       cy="256.32416"
       cx="273.8551"
       id="path4287-13"
       style="fill:none;fill-opacity:1;stroke:#0000ff;stroke-width:0.09033381;stroke-linecap:round;stroke-miterlimit:4;stroke-dasharray:none;stroke-opacity:1" />
    <ellipse
       ry="22.454834"
       rx="22.454832"
       cy="256.32416"
       cx="212.80511"
       id="path4287-94"
       style="fill:none;fill-opacity:1;stroke:#0000ff;stroke-width:0.09033381;stroke-linecap:round;stroke-miterlimit:4;stroke-dasharray:none;stroke-opacity:1" />
    <ellipse
       ry="22.454834"
       rx="22.454832"
       cy="256.32416"
       cx="151.75513"
       id="path4287-68"
       style="fill:none;fill-opacity:1;stroke:#0000ff;stroke-width:0.09033381;stroke-linecap:round;stroke-miterlimit:4;stroke-dasharray:none;stroke-opacity:1" />
    <ellipse
       ry="22.454834"
       rx="22.454832"
       cy="256.32416"
       cx="90.705124"
       id="path4287-0"
       style="fill:none;fill-opacity:1;stroke:#0000ff;stroke-width:0.09033381;stroke-linecap:round;stroke-miterlimit:4;stroke-dasharray:none;stroke-opacity:1" />
    <ellipse
       ry="22.454834"
       rx="22.454832"
       cy="317.36945"
       cx="90.705124"
       id="path4287-59"
       style="opacity:1;fill:none;fill-opacity:1;stroke:#0000ff;stroke-width:0.09000001;stroke-linecap:round;stroke-miterlimit:4;stroke-dasharray:none;stroke-opacity:1" />
    <ellipse
       ry="22.454834"
       rx="22.454832"
       cy="317.36945"
       cx="151.75513"
       id="path4287-62"
       style="fill:none;fill-opacity:1;stroke:#0000ff;stroke-width:0.09033381;stroke-linecap:round;stroke-miterlimit:4;stroke-dasharray:none;stroke-opacity:1" />
    <ellipse
       ry="22.454834"
       rx="22.454832"
       cy="317.36945"
       cx="212.80511"
       id="path4287-29"
       style="fill:none;fill-opacity:1;stroke:#0000ff;stroke-width:0.09033381;stroke-linecap:round;stroke-miterlimit:4;stroke-dasharray:none;stroke-opacity:1" />
    <ellipse
       ry="22.454834"
       rx="22.454832"
       cy="317.36945"
       cx="273.8551"
       id="path4287-44"
       style="fill:none;fill-opacity:1;stroke:#0000ff;stroke-width:0.09033381;stroke-linecap:round;stroke-miterlimit:4;stroke-dasharray:none;stroke-opacity:1" />
    <ellipse
       ry="22.454834"
       rx="22.454832"
       cy="317.36945"
       cx="334.90512"
       id="path4287-84"
       style="fill:none;fill-opacity:1;stroke:#0000ff;stroke-width:0.09033381;stroke-linecap:round;stroke-miterlimit:4;stroke-dasharray:none;stroke-opacity:1" />
    <ellipse
       ry="22.454834"
       rx="22.454832"
       cy="317.36945"
       cx="395.95514"
       id="path4287-74"
       style="fill:none;fill-opacity:1;stroke:#0000ff;stroke-width:0.09033381;stroke-linecap:round;stroke-miterlimit:4;stroke-dasharray:none;stroke-opacity:1" />
    <g
       transform="translate(-26.000001,124.5457)"
       id="g5887"
       style="stroke:#0000ff">
      <rect
         style="opacity:1;fill:none;fill-opacity:1;stroke:#0000ff;stroke-width:0.08278129;stroke-linecap:round;stroke-miterlimit:4;stroke-dasharray:none;stroke-opacity:1"
         id="rect4478-5"
         width="11.617219"
         height="67.417221"
         x="538.56073"
         y="561.47986"
         transform="matrix(0.70710678,0.70710678,0.70710678,-0.70710678,0,0)" />
      <rect
         style="opacity:1;fill:none;fill-opacity:1;stroke:#0000ff;stroke-width:0.08278129;stroke-linecap:round;stroke-miterlimit:4;stroke-dasharray:none;stroke-opacity:1"
         id="rect4478-2-1"
         width="11.617219"
         height="67.417221"
         x="581.67462"
         y="433.46252"
         transform="matrix(0.70710678,0.70710678,0.70710678,-0.70710678,0,0)" />
      <rect
         style="opacity:1;fill:none;fill-opacity:1;stroke:#0000ff;stroke-width:0.08278129;stroke-linecap:round;stroke-miterlimit:4;stroke-dasharray:none;stroke-opacity:1"
         id="rect4478-96-8"
         width="11.617219"
         height="67.417221"
         x="452.17548"
         y="392.71252"
         transform="matrix(0.70710678,0.70710678,0.70710678,-0.70710678,0,0)" />
      <rect
         style="opacity:1;fill:none;fill-opacity:1;stroke:#0000ff;stroke-width:0.08278129;stroke-linecap:round;stroke-miterlimit:4;stroke-dasharray:none;stroke-opacity:1"
         id="rect4478-90-5"
         width="11.617219"
         height="67.417221"
         x="495.42517"
         y="301.21259"
         transform="matrix(0.70710678,0.70710678,0.70710678,-0.70710678,0,0)" />
      <rect
         style="opacity:1;fill:none;fill-opacity:1;stroke:#0000ff;stroke-width:0.08278129;stroke-linecap:round;stroke-miterlimit:4;stroke-dasharray:none;stroke-opacity:1"
         id="rect4478-3-4"
         width="11.617219"
         height="67.417221"
         x="481.78925"
         y="-771.32574"
         transform="matrix(0.70710678,-0.70710678,-0.70710678,-0.70710678,0,0)" />
    </g>
    <path
       transform="translate(-26.000001,124.5457)"
       inkscape:connector-curvature="0"
       id="path4812-2"
       d="m 827.01405,-62.088867 c 3.64719,-3.607332 6.85085,-6.11392 13.40215,-7.726374 1.63782,-0.403114 3.36155,-0.607721 5.15039,-0.582031 5.36651,0.07707 11.31234,2.231693 17.22655,7.353516 7.38564,6.396105 9.041,15.519162 8.57422,23.279298 -0.46677,7.760137 -2.90648,14.537634 -4.16015,17.673831 -7.25418,18.1470682 -20.66708,29.4048102 -33.41015,39.8164 -5.49031,4.4858 -12.41622,9.28979 -18.4336,13.33985 -6.01737,4.05005 -11.32565,7.50763 -12.66992,8.54101 -18.50912,14.22867 -14.34773,11.306476 -30.64328,24.408976 m -5.04205,-5.257776 c 16.26273,-13.07612 12.76376,-10.61323 31.29666,-24.86018 2.20288,-1.69343 7.08987,-4.80052 13.03906,-8.80469 5.94919,-4.00416 12.76051,-8.7435 17.89844,-12.9414 12.68101,-10.3608898 24.77952,-20.6542118 31.27929,-36.914067 1.10214,-2.757111 3.26857,-8.955937 3.6582,-15.433595 0.38964,-6.477656 -0.84787,-12.854501 -6.10156,-17.404298 -6.59918,-5.715014 -11.51895,-6.311141 -15.9414,-5.222656 -4.42245,1.088486 -6.77005,2.422204 -10.06035,5.67655"
       style="color:#000000;font-style:normal;font-variant:normal;font-weight:normal;font-stretch:normal;font-size:medium;line-height:normal;font-family:sans-serif;text-indent:0;text-align:start;text-decoration:none;text-decoration-line:none;text-decoration-style:solid;text-decoration-color:#000000;letter-spacing:normal;word-spacing:normal;text-transform:none;writing-mode:lr-tb;direction:ltr;baseline-shift:baseline;text-anchor:start;white-space:normal;clip-rule:nonzero;display:inline;overflow:visible;visibility:visible;opacity:1;isolation:auto;mix-blend-mode:normal;color-interpolation:sRGB;color-interpolation-filters:linearRGB;solid-color:#000000;solid-opacity:1;fill:none;fill-opacity:1;fill-rule:evenodd;stroke:#0000ff;stroke-width:0.09000001;stroke-linecap:butt;stroke-linejoin:miter;stroke-miterlimit:4;stroke-dasharray:none;stroke-dashoffset:0;stroke-opacity:1;color-rendering:auto;image-rendering:auto;shape-rendering:auto;text-rendering:auto;enable-background:accumulate"
       sodipodi:nodetypes="cssssssssccsssssssc" />
    <path
       transform="translate(-26.000001,124.5457)"
       sodipodi:nodetypes="cssssssssccsssssssssc"
       inkscape:connector-curvature="0"
       id="path4832-8"
       d="m 784.36901,-9.7925752 c -5.80929,5.8447902 -7.45857,8.2170284 -11.17352,12.0906184 -4.88305,5.09157 -13.8817,12.3652598 -24.75196,16.5449198 -10.87026,4.17966 -24.09118,5.02698 -35.3164,-3.76758 -1.37028,-1.07355 -2.56739,-2.46762 -4.11914,-4.29297 -1.55176,-1.8253398 -3.30081,-3.9995998 -5.0625,-6.2050698 -3.52338,-4.41096002 -7.25805,-9.084232 -8.82227,-10.648442 -1.61361,-1.61361 -5.73706,-3.7503 -10.56445,-4.7812502 -4.8274,-1.03095 -10.35699,-1.09154 -15.04102,0.34766 -8.12146,2.4953602 -15.5143,8.1763321 -18.36152,11.02355213 m -4.92378,-4.80075203 c 3.53532,-3.53532 11.27169,-10.0642771 21.17007,-13.1056171 3.10242,-0.95323 6.31005,-1.391561 9.4707,-1.435541 3.16065,-0.044 6.27431,0.30712 9.18945,0.929681 5.83028,1.24513 10.86775,3.44587 14.15235,6.730467 2.39843,2.3984302 5.85476,6.8635302 9.35547,11.24610218 1.75035,2.19128002 3.47115,4.32636002 4.92382,6.03515002 1.45268,1.70879 2.79437,3.07134 3.07227,3.28906 8.94889,7.0111398 18.83943,6.3497698 28.29297,2.7148498 9.45354,-3.6349298 17.99195,-10.4807998 22.14062,-14.8066418 3.86313,-4.02809 6.03741,-5.8625863 11.79175,-11.6520732"
       style="color:#000000;font-style:normal;font-variant:normal;font-weight:normal;font-stretch:normal;font-size:medium;line-height:normal;font-family:sans-serif;text-indent:0;text-align:start;text-decoration:none;text-decoration-line:none;text-decoration-style:solid;text-decoration-color:#000000;letter-spacing:normal;word-spacing:normal;text-transform:none;writing-mode:lr-tb;direction:ltr;baseline-shift:baseline;text-anchor:start;white-space:normal;clip-rule:nonzero;display:inline;overflow:visible;visibility:visible;opacity:1;isolation:auto;mix-blend-mode:normal;color-interpolation:sRGB;color-interpolation-filters:linearRGB;solid-color:#000000;solid-opacity:1;fill:none;fill-opacity:1;fill-rule:evenodd;stroke:#0000ff;stroke-width:0.09000001;stroke-linecap:butt;stroke-linejoin:miter;stroke-miterlimit:4;stroke-dasharray:none;stroke-dashoffset:0;stroke-opacity:1;color-rendering:auto;image-rendering:auto;shape-rendering:auto;text-rendering:auto;enable-background:accumulate" />
    <path
       transform="translate(-26.000001,124.5457)"
       inkscape:connector-curvature="0"
       id="path4836-3"
       d="m 612.77946,91.501163 c 0.91679,-0.91678 0.2635,-0.30115 1.61719,-1.25585 1.35369,-0.95471 2.96458,-2.03832 4.58398,-3.10743 3.23881,-2.1382 6.53948,-4.23512 7.60352,-4.92578 4.37732,-2.84124 8.42407,-4.84505 11.42774,-7.07226 3.00367,-2.22721 4.99183,-4.45134 6.13867,-8.38672 0.64327,-2.20734 -0.7972,-5.65345 -3.55664,-7.55078 -3.55131,-2.44182 -8.72394,-2.93469 -14.27344,0.0566 -3.98013,2.14539 -9.54955,7.59143 -13.26368,11.75781 -8.38262,9.40337 -15.74282,13.1484 -22.05468,13.26172 -6.31186,0.11332 -10.81394,-3.55506 -12.88086,-7.2207 -2.2766,-4.0375 -2.80742,-8.17039 -1.9961,-11.73047 0.81133,-3.56009 2.79153,-6.45258 4.98243,-8.76953 2.1909,-2.31696 4.63752,-4.1051 6.70898,-5.45899 2.07146,-1.35389 3.95007,-2.39705 4.26563,-2.60742 2.78649,-1.85765 3.38909,-2.14649 6.79296,-5.00391 m 4.94336,4.89067 c -3.39185,2.84732 -4.48525,3.93093 -7.74414,6.10351 -1.12513,0.7501 -2.52281,1.47098 -4.31836,2.64454 -1.79555,1.17355 -3.80747,2.67781 -5.41601,4.3789 -1.60854,1.70109 -2.76866,3.54972 -3.19531,5.42188 -0.42666,1.87215 -0.29274,3.8612 1.24804,6.59375 0.93116,1.65139 2.98556,3.62329 6.48047,3.56054 3.49491,-0.0627 9.191,-2.31029 16.80859,-10.85547 3.93962,-4.41933 9.47553,-10.20682 15.22266,-13.30468 7.5687,-4.07973 15.83759,-3.72971 21.76759,0.34765 4.95999,3.41041 8.14852,9.47257 6.39258,15.49805 -1.61853,5.55398 -5.00516,9.36932 -8.76368,12.15625 -3.75851,2.78693 -7.86215,4.77416 -11.79687,7.32813 -1.17577,0.76316 -4.38778,2.80444 -7.55665,4.89648 -1.58444,1.04602 -3.11905,2.147067 -4.40039,2.98242 -0.70703,0.46094 -0.71503,0.46894 -0.70703,0.46094"
       style="color:#000000;font-style:normal;font-variant:normal;font-weight:normal;font-stretch:normal;font-size:medium;line-height:normal;font-family:sans-serif;text-indent:0;text-align:start;text-decoration:none;text-decoration-line:none;text-decoration-style:solid;text-decoration-color:#000000;letter-spacing:normal;word-spacing:normal;text-transform:none;writing-mode:lr-tb;direction:ltr;baseline-shift:baseline;text-anchor:start;white-space:normal;clip-rule:nonzero;display:inline;overflow:visible;visibility:visible;opacity:1;isolation:auto;mix-blend-mode:normal;color-interpolation:sRGB;color-interpolation-filters:linearRGB;solid-color:#000000;solid-opacity:1;fill:none;fill-opacity:1;fill-rule:evenodd;stroke:#0000ff;stroke-width:0.09000001;stroke-linecap:butt;stroke-linejoin:miter;stroke-miterlimit:4;stroke-dasharray:none;stroke-dashoffset:0;stroke-opacity:1;color-rendering:auto;image-rendering:auto;shape-rendering:auto;text-rendering:auto;enable-background:accumulate"
       sodipodi:nodetypes="cssssssssssssssccssssscssssssssc" />
    <path
       transform="translate(-26.000001,124.5457)"
       inkscape:connector-curvature="0"
       id="path4844-5"
       d="m 594.5529,242.2102 c 0.15341,-19.11964 0.39183,-33.40969 0.43164,-40.67188 0.0494,-9.01515 -1.60024,-14.6359 -3.3711,-16.61523 -4.70046,-5.25383 -8.78118,-6.91494 -12.84374,-8.15625 -4.06257,-1.24131 -8.58343,-1.80229 -12.26758,-5.54102 -7.5569,-7.66884 -8.97139,-15.65997 -7.18946,-21.88671 1.78194,-6.22675 3.43311,-7.72088 5.71875,-10.31836 m 5.24805,5.19332 c -2.43419,2.76629 -2.88782,3.06213 -4.04492,7.10546 -1.1571,4.04334 -0.87436,8.48978 5.39648,14.85352 1.70689,1.73218 4.62538,2.29832 9.24219,3.70898 4.61681,1.41066 10.45506,3.92463 16.10547,10.24024 4.09861,4.58113 5.25852,11.7052 5.20508,21.45703 -0.0404,7.36662 -0.27652,21.59874 -0.42969,40.6875"
       style="color:#000000;font-style:normal;font-variant:normal;font-weight:normal;font-stretch:normal;font-size:medium;line-height:normal;font-family:sans-serif;text-indent:0;text-align:start;text-decoration:none;text-decoration-line:none;text-decoration-style:solid;text-decoration-color:#000000;letter-spacing:normal;word-spacing:normal;text-transform:none;writing-mode:lr-tb;direction:ltr;baseline-shift:baseline;text-anchor:start;white-space:normal;clip-rule:nonzero;display:inline;overflow:visible;visibility:visible;opacity:1;isolation:auto;mix-blend-mode:normal;color-interpolation:sRGB;color-interpolation-filters:linearRGB;solid-color:#000000;solid-opacity:1;fill:none;fill-opacity:1;fill-rule:evenodd;stroke:#0000ff;stroke-width:0.09000001;stroke-linecap:butt;stroke-linejoin:miter;stroke-miterlimit:4;stroke-dasharray:none;stroke-dashoffset:0;stroke-opacity:1;color-rendering:auto;image-rendering:auto;shape-rendering:auto;text-rendering:auto;enable-background:accumulate"
       sodipodi:nodetypes="csssssccsssssc" />
    <path
       transform="translate(-26.000001,124.5457)"
       inkscape:connector-curvature="0"
       id="path4848-2"
       d="m 840.06204,155.39456 c -7.16919,-6.78848 -11.36864,-7.24921 -21.02475,-9.92854 0.38782,0.10761 -0.90903,-0.0928 -2.28515,-0.0762 -1.37612,0.0166 -3.10295,0.10662 -4.8125,0.23633 -1.70956,0.1297 -3.41205,0.29921 -4.75782,0.4707 -1.34576,0.17149 -2.63649,0.4876 -2.27539,0.36328 -9.35974,3.22238 -23.34889,9.57096 -37.22266,13.68164 -13.87378,4.11068 -28.07427,6.44764 -38.15821,-0.55664 -12.34807,-8.57695 -18.58832,-18.51051 -19.31445,-28.52344 -0.72613,-10.01292 1.54561,-16.8583 9.30052,-24.66086 m 5.01708,4.98782 c -6.74479,6.78622 -7.67447,11.72773 -7.13596,19.15354 0.53851,7.42581 5.06746,15.36832 16.24024,23.12891 6.61346,4.59369 18.81303,3.4767 32.0039,-0.43164 13.19087,-3.90835 26.92924,-10.14432 36.92579,-13.58594 1.29456,-0.44569 2.20514,-0.50758 3.70899,-0.69922 1.50385,-0.19164 3.29994,-0.36949 5.12305,-0.50781 1.8231,-0.13832 3.66307,-0.23645 5.26953,-0.25586 1.60645,-0.0194 2.70968,-0.10447 4.29687,0.33594 9.91711,2.75175 16.04679,4.32914 24.14048,11.99302"
       style="color:#000000;font-style:normal;font-variant:normal;font-weight:normal;font-stretch:normal;font-size:medium;line-height:normal;font-family:sans-serif;text-indent:0;text-align:start;text-decoration:none;text-decoration-line:none;text-decoration-style:solid;text-decoration-color:#000000;letter-spacing:normal;word-spacing:normal;text-transform:none;writing-mode:lr-tb;direction:ltr;baseline-shift:baseline;text-anchor:start;white-space:normal;clip-rule:nonzero;display:inline;overflow:visible;visibility:visible;opacity:1;isolation:auto;mix-blend-mode:normal;color-interpolation:sRGB;color-interpolation-filters:linearRGB;solid-color:#000000;solid-opacity:1;fill:none;fill-opacity:1;fill-rule:evenodd;stroke:#0000ff;stroke-width:0.09000001;stroke-linecap:butt;stroke-linejoin:miter;stroke-miterlimit:4;stroke-dasharray:none;stroke-dashoffset:0;stroke-opacity:1;color-rendering:auto;image-rendering:auto;shape-rendering:auto;text-rendering:auto;enable-background:accumulate"
       sodipodi:nodetypes="ccssscsssccssssssssc" />
    <path
       transform="translate(-26.000001,124.5457)"
       inkscape:connector-curvature="0"
       id="path5312-3"
       d="m 892.68963,197.99727 c 4.3875,4.74226 6.24649,6.05903 6.99575,10.64453 0,0 2.27176,5.88966 -4.8336,13.0496 -4.06147,4.09267 -11.20758,5.78994 -16.48847,7.11427 -4.72978,1.18612 -17.89326,0.30016 -22.81208,-0.79293 -31.7746,-7.06109 -41.84084,-6.24057 -70.90067,-12.0018 -17.86274,-3.54136 -36.49554,-7.84321 -54.28906,-12.41797 -12.36671,-3.17951 -28.71758,-9.08591 -44.65234,-11.79687 -15.93476,-2.71097 -30.9503,-2.13701 -41.23633,6.4746 -6.94981,5.81849 -12.1788,9.9122 -15.59767,15.75196 -3.41885,5.83975 -5.3798,13.81339 -5.03515,28.06836 m -7.19727,0.17578 c -0.36246,-14.992 1.74649,-24.58402 6.01953,-31.88281 4.27304,-7.2988 10.35719,-11.91632 17.18751,-17.63477 7.97783,-6.67915 17.79682,-9.273 28.14649,-9.58008 6.2098,-0.18424 12.61118,0.456 18.91992,1.5293 16.8233,2.86213 33.49492,8.90313 45.23633,11.92187 17.67386,4.544 36.19017,8.81739 53.89843,12.32813 29.0167,5.75268 32.94385,4.13701 64.80823,11.21806 5.02225,1.11607 17.1465,2.25369 20.83405,2.31495 3.68755,0.0613 9.39929,-1.94674 11.74709,-3.04848 4.95953,-2.32734 5.99455,-2.49265 7.86907,-6.7281 1.52793,-3.45234 -0.18741,-5.86744 -3.77992,-9.56893"
       style="color:#000000;font-style:normal;font-variant:normal;font-weight:normal;font-stretch:normal;font-size:medium;line-height:normal;font-family:sans-serif;text-indent:0;text-align:start;text-decoration:none;text-decoration-line:none;text-decoration-style:solid;text-decoration-color:#000000;letter-spacing:normal;word-spacing:normal;text-transform:none;writing-mode:lr-tb;direction:ltr;baseline-shift:baseline;text-anchor:start;white-space:normal;clip-rule:nonzero;display:inline;overflow:visible;visibility:visible;opacity:1;isolation:auto;mix-blend-mode:normal;color-interpolation:sRGB;color-interpolation-filters:linearRGB;solid-color:#000000;solid-opacity:1;fill:none;fill-opacity:1;fill-rule:evenodd;stroke:#0000ff;stroke-width:0.09000001;stroke-linecap:butt;stroke-linejoin:miter;stroke-miterlimit:4;stroke-dasharray:none;stroke-dashoffset:0;stroke-opacity:1;color-rendering:auto;image-rendering:auto;shape-rendering:auto;text-rendering:auto;enable-background:accumulate"
       sodipodi:nodetypes="csssssssssccssssssscssc" />
  </g>
  <g
     inkscape:groupmode="layer"
     id="layer3"
     inkscape:label="Outer Cuts"
     style="display:inline"
     transform="translate(2.9296484,10.35599)">
    <rect
       y="10.94942"
       x="18.375689"
       height="348.65891"
       width="449.90887"
       id="rect4522"
       style="fill:none;fill-opacity:1;stroke:#000000;stroke-width:0.09110578;stroke-linecap:round;stroke-miterlimit:4;stroke-dasharray:none;stroke-opacity:1" />
    <rect
       transform="matrix(-1,0,0,1,-26.000001,124.5457)"
       y="-113.59629"
       x="-954.78467"
       height="348.65894"
       width="449.90891"
       id="rect4522-9"
       style="fill:none;fill-opacity:1;stroke:#000000;stroke-width:0.09110578;stroke-linecap:round;stroke-miterlimit:4;stroke-dasharray:none;stroke-opacity:1" />
  </g>
</svg>
