  0
SECTION
  2
HEADER
  9
$ACADVER
  1
AC1014
  9
$HANDSEED
  5
FFFF
  9
$MEASUREMENT
 70
     1
  0
ENDSEC
  0
SECTION
  2
TABLES
  0
TABLE
  2
VPORT
  5
8
330
0
100
AcDbSymbolTable
 70
     4
  0
VPORT
  5
2E
330
8
100
AcDbSymbolTableRecord
100
AcDbViewportTableRecord
  2
*ACTIVE
 70
     0
 10
0.0
 20
0.0
 11
1.0
 21
1.0
 12
210.0
 22
148.5
 13
0.0
 23
0.0
 14
10.0
 24
10.0
 15
10.0
 25
10.0
 16
0.0
 26
0.0
 36
1.0
 17
0.0
 27
0.0
 37
0.0
 40
341.0
 41
1.24
 42
50.0
 43
0.0
 44
0.0
 50
0.0
 51
0.0
 71
     0
 72
   100
 73
     1
 74
     3
 75
     0
 76
     0
 77
     0
 78
     0
  0
ENDTAB
  0
TABLE
  2
LTYPE
  5
5
330
0
100
AcDbSymbolTable
 70
     1
  0
LTYPE
  5
14
330
5
100
AcDbSymbolTableRecord
100
AcDbLinetypeTableRecord
  2
BYBLOCK
 70
     0
  3

 72
    65
 73
     0
 40
0.0
  0
LTYPE
  5
15
330
5
100
AcDbSymbolTableRecord
100
AcDbLinetypeTableRecord
  2
BYLAYER
 70
     0
  3

 72
    65
 73
     0
 40
0.0
  0
LTYPE
  5
16
330
5
100
AcDbSymbolTableRecord
100
AcDbLinetypeTableRecord
  2
CONTINUOUS
 70
     0
  3
Solid line
 72
    65
 73
     0
 40
0.0
  0
ENDTAB
  0
TABLE
  2
LAYER
  5
2
100
AcDbSymbolTable
 70
2
  0
LAYER
  5
50
100
AcDbSymbolTableRecord
100
AcDbLayerTableRecord
  2
0
 70
0
  6
CONTINUOUS
  0
LAYER
  5
51
100
AcDbSymbolTableRecord
100
AcDbLayerTableRecord
  2
Layer_1
 70
0
  6
CONTINUOUS
  0
ENDTAB
  0
TABLE
  2
STYLE
  5
3
330
0
100
AcDbSymbolTable
 70
     1
  0
STYLE
  5
11
330
3
100
AcDbSymbolTableRecord
100
AcDbTextStyleTableRecord
  2
STANDARD
 70
     0
 40
0.0
 41
1.0
 50
0.0
 71
     0
 42
2.5
  3
txt
  4

  0
ENDTAB
  0
TABLE
  2
VIEW
  5
6
330
0
100
AcDbSymbolTable
 70
     0
  0
ENDTAB
  0
TABLE
  2
UCS
  5
7
330
0
100
AcDbSymbolTable
 70
     0
  0
ENDTAB
  0
TABLE
  2
APPID
  5
9
330
0
100
AcDbSymbolTable
 70
     2
  0
APPID
  5
12
330
9
100
AcDbSymbolTableRecord
100
AcDbRegAppTableRecord
  2
ACAD
 70
     0
  0
ENDTAB
  0
TABLE
  2
DIMSTYLE
  5
A
330
0
100
AcDbSymbolTable
 70
     1
  0
DIMSTYLE
105
27
330
A
100
AcDbSymbolTableRecord
100
AcDbDimStyleTableRecord
  2
ISO-25
 70
     0
  3

  4

  5

  6

  7

 40
1.0
 41
2.5
 42
0.625
 43
3.75
 44
1.25
 45
0.0
 46
0.0
 47
0.0
 48
0.0
140
2.5
141
2.5
142
0.0
143
0.03937007874016
144
1.0
145
0.0
146
1.0
147
0.625
 71
     0
 72
     0
 73
     0
 74
     0
 75
     0
 76
     0
 77
     1
 78
     8
170
     0
171
     3
172
     1
173
     0
174
     0
175
     0
176
     0
177
     0
178
     0
270
     2
271
     2
272
     2
273
     2
274
     3
340
11
275
     0
280
     0
281
     0
282
     0
283
     0
284
     8
285
     0
286
     0
287
     3
288
     0
  0
ENDTAB
  0
TABLE
  2
BLOCK_RECORD
  5
1
330
0
100
AcDbSymbolTable
 70
     1
  0
BLOCK_RECORD
  5
1F
330
1
100
AcDbSymbolTableRecord
100
AcDbBlockTableRecord
  2
*MODEL_SPACE
  0
BLOCK_RECORD
  5
1B
330
1
100
AcDbSymbolTableRecord
100
AcDbBlockTableRecord
  2
*PAPER_SPACE
  0
ENDTAB
  0
ENDSEC
  0
SECTION
  2
BLOCKS
  0
BLOCK
  5
20
330
1F
100
AcDbEntity
  8
0
100
AcDbBlockBegin
  2
*MODEL_SPACE
 70
     0
 10
0.0
 20
0.0
 30
0.0
  3
*MODEL_SPACE
  1

  0
ENDBLK
  5
21
330
1F
100
AcDbEntity
  8
0
100
AcDbBlockEnd
  0
BLOCK
  5
1C
330
1B
100
AcDbEntity
 67
     1
  8
0
100
AcDbBlockBegin
  2
*PAPER_SPACE
  1

  0
ENDBLK
  5
1D
330
1B
100
AcDbEntity
 67
     1
  8
0
100
AcDbBlockEnd
  0
ENDSEC
  0
SECTION
  2
ENTITIES
  0
LINE
  5
100
100
AcDbEntity
  8
Layer_1
 62
7
100
AcDbLine
 10
6.012852
 20
106.432771
 30
0.0
 11
132.987133
 21
106.432771
 31
0.0
  0
LINE
  5
101
100
AcDbEntity
  8
Layer_1
 62
7
100
AcDbLine
 10
132.987133
 20
106.432771
 30
0.0
 11
132.987133
 21
8.033478
 31
0.0
  0
LINE
  5
102
100
AcDbEntity
  8
Layer_1
 62
7
100
AcDbLine
 10
132.987133
 20
8.033478
 30
0.0
 11
6.012852
 21
8.033478
 31
0.0
  0
LINE
  5
103
100
AcDbEntity
  8
Layer_1
 62
7
100
AcDbLine
 10
6.012852
 20
8.033478
 30
0.0
 11
6.012852
 21
106.432771
 31
0.0
  0
SPLINE
  5
104
100
AcDbEntity
  8
Layer_1
 62
7
100
AcDbSpline
 70
8
 71
3
 72
8
 73
4
 74
0
 40
0
 40
0
 40
0
 40
0
 40
1
 40
1
 40
1
 40
1
 10
27.704650
 20
99.354793
 30
0.0
 10
27.768958
 20
99.354793
 30
0.0
 10
27.821783
 20
99.376612
 30
0.0
 10
27.863124
 20
99.420249
 30
0.0
  0
SPLINE
  5
105
100
AcDbEntity
  8
Layer_1
 62
7
100
AcDbSpline
 70
8
 71
3
 72
8
 73
4
 74
0
 40
0
 40
0
 40
0
 40
0
 40
1
 40
1
 40
1
 40
1
 10
27.863124
 20
99.420249
 30
0.0
 10
27.904465
 20
99.463887
 30
0.0
 10
27.925136
 20
99.515564
 30
0.0
 10
27.925136
 20
99.575279
 30
0.0
  0
LINE
  5
106
100
AcDbEntity
  8
Layer_1
 62
7
100
AcDbLine
 10
27.925136
 20
99.575279
 30
0.0
 11
27.925136
 21
100.898195
 31
0.0
  0
SPLINE
  5
107
100
AcDbEntity
  8
Layer_1
 62
7
100
AcDbSpline
 70
8
 71
3
 72
8
 73
4
 74
0
 40
0
 40
0
 40
0
 40
0
 40
1
 40
1
 40
1
 40
1
 10
27.925136
 20
100.898195
 30
0.0
 10
27.925136
 20
100.957910
 30
0.0
 10
27.903317
 20
101.009587
 30
0.0
 10
27.859679
 20
101.053225
 30
0.0
  0
SPLINE
  5
108
100
AcDbEntity
  8
Layer_1
 62
7
100
AcDbSpline
 70
8
 71
3
 72
8
 73
4
 74
0
 40
0
 40
0
 40
0
 40
0
 40
1
 40
1
 40
1
 40
1
 10
27.859679
 20
101.053225
 30
0.0
 10
27.816041
 20
101.096863
 30
0.0
 10
27.764365
 20
101.118681
 30
0.0
 10
27.704650
 20
101.118681
 30
0.0
  0
LINE
  5
109
100
AcDbEntity
  8
Layer_1
 62
7
100
AcDbLine
 10
27.704650
 20
101.118681
 30
0.0
 11
24.617844
 21
101.118681
 31
0.0
  0
SPLINE
  5
10a
100
AcDbEntity
  8
Layer_1
 62
7
100
AcDbSpline
 70
8
 71
3
 72
8
 73
4
 74
0
 40
0
 40
0
 40
0
 40
0
 40
1
 40
1
 40
1
 40
1
 10
24.617844
 20
101.118681
 30
0.0
 10
24.558129
 20
101.118681
 30
0.0
 10
24.506453
 20
101.098011
 30
0.0
 10
24.462815
 20
101.056670
 30
0.0
  0
SPLINE
  5
10b
100
AcDbEntity
  8
Layer_1
 62
7
100
AcDbSpline
 70
8
 71
3
 72
8
 73
4
 74
0
 40
0
 40
0
 40
0
 40
0
 40
1
 40
1
 40
1
 40
1
 10
24.462815
 20
101.056670
 30
0.0
 10
24.419177
 20
101.015329
 30
0.0
 10
24.397358
 20
100.962504
 30
0.0
 10
24.397358
 20
100.898195
 30
0.0
  0
LINE
  5
10c
100
AcDbEntity
  8
Layer_1
 62
7
100
AcDbLine
 10
24.397358
 20
100.898195
 30
0.0
 11
24.397358
 21
99.575279
 31
0.0
  0
SPLINE
  5
10d
100
AcDbEntity
  8
Layer_1
 62
7
100
AcDbSpline
 70
8
 71
3
 72
8
 73
4
 74
0
 40
0
 40
0
 40
0
 40
0
 40
1
 40
1
 40
1
 40
1
 10
24.397358
 20
99.575279
 30
0.0
 10
24.397358
 20
99.510970
 30
0.0
 10
24.418029
 20
99.458145
 30
0.0
 10
24.459370
 20
99.416804
 30
0.0
  0
SPLINE
  5
10e
100
AcDbEntity
  8
Layer_1
 62
7
100
AcDbSpline
 70
8
 71
3
 72
8
 73
4
 74
0
 40
0
 40
0
 40
0
 40
0
 40
1
 40
1
 40
1
 40
1
 10
24.459370
 20
99.416804
 30
0.0
 10
24.500711
 20
99.375463
 30
0.0
 10
24.553536
 20
99.354793
 30
0.0
 10
24.617844
 20
99.354793
 30
0.0
  0
LINE
  5
10f
100
AcDbEntity
  8
Layer_1
 62
7
100
AcDbLine
 10
24.617844
 20
99.354793
 30
0.0
 11
27.704650
 21
99.354793
 31
0.0
  0
LINE
  5
110
100
AcDbEntity
  8
Layer_1
 62
7
100
AcDbLine
 10
27.704650
 20
99.354793
 30
0.0
 11
27.704650
 21
99.354793
 31
0.0
  0
SPLINE
  5
111
100
AcDbEntity
  8
Layer_1
 62
7
100
AcDbSpline
 70
8
 71
3
 72
8
 73
4
 74
0
 40
0
 40
0
 40
0
 40
0
 40
1
 40
1
 40
1
 40
1
 10
27.704650
 20
102.000626
 30
0.0
 10
27.768958
 20
102.000626
 30
0.0
 10
27.821783
 20
102.022445
 30
0.0
 10
27.863124
 20
102.066083
 30
0.0
  0
SPLINE
  5
112
100
AcDbEntity
  8
Layer_1
 62
7
100
AcDbSpline
 70
8
 71
3
 72
8
 73
4
 74
0
 40
0
 40
0
 40
0
 40
0
 40
1
 40
1
 40
1
 40
1
 10
27.863124
 20
102.066083
 30
0.0
 10
27.904465
 20
102.109721
 30
0.0
 10
27.925136
 20
102.161397
 30
0.0
 10
27.925136
 20
102.221112
 30
0.0
  0
LINE
  5
113
100
AcDbEntity
  8
Layer_1
 62
7
100
AcDbLine
 10
27.925136
 20
102.221112
 30
0.0
 11
27.925136
 21
103.544029
 31
0.0
  0
SPLINE
  5
114
100
AcDbEntity
  8
Layer_1
 62
7
100
AcDbSpline
 70
8
 71
3
 72
8
 73
4
 74
0
 40
0
 40
0
 40
0
 40
0
 40
1
 40
1
 40
1
 40
1
 10
27.925136
 20
103.544029
 30
0.0
 10
27.925136
 20
103.603744
 30
0.0
 10
27.903317
 20
103.655420
 30
0.0
 10
27.859679
 20
103.699058
 30
0.0
  0
SPLINE
  5
115
100
AcDbEntity
  8
Layer_1
 62
7
100
AcDbSpline
 70
8
 71
3
 72
8
 73
4
 74
0
 40
0
 40
0
 40
0
 40
0
 40
1
 40
1
 40
1
 40
1
 10
27.859679
 20
103.699058
 30
0.0
 10
27.816041
 20
103.742696
 30
0.0
 10
27.764365
 20
103.764515
 30
0.0
 10
27.704650
 20
103.764515
 30
0.0
  0
LINE
  5
116
100
AcDbEntity
  8
Layer_1
 62
7
100
AcDbLine
 10
27.704650
 20
103.764515
 30
0.0
 11
24.617844
 21
103.764515
 31
0.0
  0
SPLINE
  5
117
100
AcDbEntity
  8
Layer_1
 62
7
100
AcDbSpline
 70
8
 71
3
 72
8
 73
4
 74
0
 40
0
 40
0
 40
0
 40
0
 40
1
 40
1
 40
1
 40
1
 10
24.617844
 20
103.764515
 30
0.0
 10
24.558129
 20
103.764515
 30
0.0
 10
24.506453
 20
103.743844
 30
0.0
 10
24.462815
 20
103.702503
 30
0.0
  0
SPLINE
  5
118
100
AcDbEntity
  8
Layer_1
 62
7
100
AcDbSpline
 70
8
 71
3
 72
8
 73
4
 74
0
 40
0
 40
0
 40
0
 40
0
 40
1
 40
1
 40
1
 40
1
 10
24.462815
 20
103.702503
 30
0.0
 10
24.419177
 20
103.661162
 30
0.0
 10
24.397358
 20
103.608337
 30
0.0
 10
24.397358
 20
103.544029
 30
0.0
  0
LINE
  5
119
100
AcDbEntity
  8
Layer_1
 62
7
100
AcDbLine
 10
24.397358
 20
103.544029
 30
0.0
 11
24.397358
 21
102.221112
 31
0.0
  0
SPLINE
  5
11a
100
AcDbEntity
  8
Layer_1
 62
7
100
AcDbSpline
 70
8
 71
3
 72
8
 73
4
 74
0
 40
0
 40
0
 40
0
 40
0
 40
1
 40
1
 40
1
 40
1
 10
24.397358
 20
102.221112
 30
0.0
 10
24.397358
 20
102.156804
 30
0.0
 10
24.418029
 20
102.103979
 30
0.0
 10
24.459370
 20
102.062638
 30
0.0
  0
SPLINE
  5
11b
100
AcDbEntity
  8
Layer_1
 62
7
100
AcDbSpline
 70
8
 71
3
 72
8
 73
4
 74
0
 40
0
 40
0
 40
0
 40
0
 40
1
 40
1
 40
1
 40
1
 10
24.459370
 20
102.062638
 30
0.0
 10
24.500711
 20
102.021296
 30
0.0
 10
24.553536
 20
102.000626
 30
0.0
 10
24.617844
 20
102.000626
 30
0.0
  0
LINE
  5
11c
100
AcDbEntity
  8
Layer_1
 62
7
100
AcDbLine
 10
24.617844
 20
102.000626
 30
0.0
 11
27.704650
 21
102.000626
 31
0.0
  0
LINE
  5
11d
100
AcDbEntity
  8
Layer_1
 62
7
100
AcDbLine
 10
27.704650
 20
102.000626
 30
0.0
 11
27.704650
 21
102.000626
 31
0.0
  0
SPLINE
  5
11e
100
AcDbEntity
  8
Layer_1
 62
7
100
AcDbSpline
 70
8
 71
3
 72
8
 73
4
 74
0
 40
0
 40
0
 40
0
 40
0
 40
1
 40
1
 40
1
 40
1
 10
23.956386
 20
98.472848
 30
0.0
 10
23.894374
 20
98.472848
 30
0.0
 10
23.835808
 20
98.484332
 30
0.0
 10
23.780686
 20
98.507299
 30
0.0
  0
SPLINE
  5
11f
100
AcDbEntity
  8
Layer_1
 62
7
100
AcDbSpline
 70
8
 71
3
 72
8
 73
4
 74
0
 40
0
 40
0
 40
0
 40
0
 40
1
 40
1
 40
1
 40
1
 10
23.780686
 20
98.507299
 30
0.0
 10
23.727861
 20
98.530267
 30
0.0
 10
23.681927
 20
98.561272
 30
0.0
 10
23.642882
 20
98.600317
 30
0.0
  0
SPLINE
  5
120
100
AcDbEntity
  8
Layer_1
 62
7
100
AcDbSpline
 70
8
 71
3
 72
8
 73
4
 74
0
 40
0
 40
0
 40
0
 40
0
 40
1
 40
1
 40
1
 40
1
 10
23.642882
 20
98.600317
 30
0.0
 10
23.603838
 20
98.639361
 30
0.0
 10
23.572832
 20
98.685296
 30
0.0
 10
23.549865
 20
98.738121
 30
0.0
  0
SPLINE
  5
121
100
AcDbEntity
  8
Layer_1
 62
7
100
AcDbSpline
 70
8
 71
3
 72
8
 73
4
 74
0
 40
0
 40
0
 40
0
 40
0
 40
1
 40
1
 40
1
 40
1
 10
23.549865
 20
98.738121
 30
0.0
 10
23.526897
 20
98.793242
 30
0.0
 10
23.515414
 20
98.851809
 30
0.0
 10
23.515414
 20
98.913820
 30
0.0
  0
LINE
  5
122
100
AcDbEntity
  8
Layer_1
 62
7
100
AcDbLine
 10
23.515414
 20
98.913820
 30
0.0
 11
23.515414
 21
104.205487
 31
0.0
  0
SPLINE
  5
123
100
AcDbEntity
  8
Layer_1
 62
7
100
AcDbSpline
 70
8
 71
3
 72
8
 73
4
 74
0
 40
0
 40
0
 40
0
 40
0
 40
1
 40
1
 40
1
 40
1
 10
23.515414
 20
104.205487
 30
0.0
 10
23.515414
 20
104.265202
 30
0.0
 10
23.526897
 20
104.321472
 30
0.0
 10
23.549865
 20
104.374297
 30
0.0
  0
SPLINE
  5
124
100
AcDbEntity
  8
Layer_1
 62
7
100
AcDbSpline
 70
8
 71
3
 72
8
 73
4
 74
0
 40
0
 40
0
 40
0
 40
0
 40
1
 40
1
 40
1
 40
1
 10
23.549865
 20
104.374297
 30
0.0
 10
23.575129
 20
104.427122
 30
0.0
 10
23.607283
 20
104.473056
 30
0.0
 10
23.646327
 20
104.512101
 30
0.0
  0
SPLINE
  5
125
100
AcDbEntity
  8
Layer_1
 62
7
100
AcDbSpline
 70
8
 71
3
 72
8
 73
4
 74
0
 40
0
 40
0
 40
0
 40
0
 40
1
 40
1
 40
1
 40
1
 10
23.646327
 20
104.512101
 30
0.0
 10
23.687668
 20
104.553442
 30
0.0
 10
23.734752
 20
104.585596
 30
0.0
 10
23.787576
 20
104.608563
 30
0.0
  0
SPLINE
  5
126
100
AcDbEntity
  8
Layer_1
 62
7
100
AcDbSpline
 70
8
 71
3
 72
8
 73
4
 74
0
 40
0
 40
0
 40
0
 40
0
 40
1
 40
1
 40
1
 40
1
 10
23.787576
 20
104.608563
 30
0.0
 10
23.840401
 20
104.633827
 30
0.0
 10
23.896671
 20
104.646459
 30
0.0
 10
23.956386
 20
104.646459
 30
0.0
  0
LINE
  5
127
100
AcDbEntity
  8
Layer_1
 62
7
100
AcDbLine
 10
23.956386
 20
104.646459
 30
0.0
 11
28.366108
 21
104.646459
 31
0.0
  0
SPLINE
  5
128
100
AcDbEntity
  8
Layer_1
 62
7
100
AcDbSpline
 70
8
 71
3
 72
8
 73
4
 74
0
 40
0
 40
0
 40
0
 40
0
 40
1
 40
1
 40
1
 40
1
 10
28.366108
 20
104.646459
 30
0.0
 10
28.425823
 20
104.646459
 30
0.0
 10
28.482093
 20
104.633827
 30
0.0
 10
28.534918
 20
104.608563
 30
0.0
  0
SPLINE
  5
129
100
AcDbEntity
  8
Layer_1
 62
7
100
AcDbSpline
 70
8
 71
3
 72
8
 73
4
 74
0
 40
0
 40
0
 40
0
 40
0
 40
1
 40
1
 40
1
 40
1
 10
28.534918
 20
104.608563
 30
0.0
 10
28.587743
 20
104.585596
 30
0.0
 10
28.633677
 20
104.553442
 30
0.0
 10
28.672722
 20
104.512101
 30
0.0
  0
SPLINE
  5
12a
100
AcDbEntity
  8
Layer_1
 62
7
100
AcDbSpline
 70
8
 71
3
 72
8
 73
4
 74
0
 40
0
 40
0
 40
0
 40
0
 40
1
 40
1
 40
1
 40
1
 10
28.672722
 20
104.512101
 30
0.0
 10
28.714063
 20
104.473056
 30
0.0
 10
28.746217
 20
104.427122
 30
0.0
 10
28.769184
 20
104.374297
 30
0.0
  0
SPLINE
  5
12b
100
AcDbEntity
  8
Layer_1
 62
7
100
AcDbSpline
 70
8
 71
3
 72
8
 73
4
 74
0
 40
0
 40
0
 40
0
 40
0
 40
1
 40
1
 40
1
 40
1
 10
28.769184
 20
104.374297
 30
0.0
 10
28.794448
 20
104.321472
 30
0.0
 10
28.807080
 20
104.265202
 30
0.0
 10
28.807080
 20
104.205487
 30
0.0
  0
LINE
  5
12c
100
AcDbEntity
  8
Layer_1
 62
7
100
AcDbLine
 10
28.807080
 20
104.205487
 30
0.0
 11
28.807080
 21
98.913820
 31
0.0
  0
SPLINE
  5
12d
100
AcDbEntity
  8
Layer_1
 62
7
100
AcDbSpline
 70
8
 71
3
 72
8
 73
4
 74
0
 40
0
 40
0
 40
0
 40
0
 40
1
 40
1
 40
1
 40
1
 10
28.807080
 20
98.913820
 30
0.0
 10
28.807080
 20
98.854105
 30
0.0
 10
28.794448
 20
98.797836
 30
0.0
 10
28.769184
 20
98.745011
 30
0.0
  0
SPLINE
  5
12e
100
AcDbEntity
  8
Layer_1
 62
7
100
AcDbSpline
 70
8
 71
3
 72
8
 73
4
 74
0
 40
0
 40
0
 40
0
 40
0
 40
1
 40
1
 40
1
 40
1
 10
28.769184
 20
98.745011
 30
0.0
 10
28.746217
 20
98.692186
 30
0.0
 10
28.714063
 20
98.645103
 30
0.0
 10
28.672722
 20
98.603762
 30
0.0
  0
SPLINE
  5
12f
100
AcDbEntity
  8
Layer_1
 62
7
100
AcDbSpline
 70
8
 71
3
 72
8
 73
4
 74
0
 40
0
 40
0
 40
0
 40
0
 40
1
 40
1
 40
1
 40
1
 10
28.672722
 20
98.603762
 30
0.0
 10
28.633677
 20
98.564717
 30
0.0
 10
28.587743
 20
98.532563
 30
0.0
 10
28.534918
 20
98.507299
 30
0.0
  0
SPLINE
  5
130
100
AcDbEntity
  8
Layer_1
 62
7
100
AcDbSpline
 70
8
 71
3
 72
8
 73
4
 74
0
 40
0
 40
0
 40
0
 40
0
 40
1
 40
1
 40
1
 40
1
 10
28.534918
 20
98.507299
 30
0.0
 10
28.482093
 20
98.484332
 30
0.0
 10
28.425823
 20
98.472848
 30
0.0
 10
28.366108
 20
98.472848
 30
0.0
  0
LINE
  5
131
100
AcDbEntity
  8
Layer_1
 62
7
100
AcDbLine
 10
28.366108
 20
98.472848
 30
0.0
 11
23.956386
 21
98.472848
 31
0.0
  0
LINE
  5
132
100
AcDbEntity
  8
Layer_1
 62
7
100
AcDbLine
 10
23.956386
 20
98.472848
 30
0.0
 11
23.956386
 21
98.472848
 31
0.0
  0
SPLINE
  5
133
100
AcDbEntity
  8
Layer_1
 62
7
100
AcDbSpline
 70
8
 71
3
 72
8
 73
4
 74
0
 40
0
 40
0
 40
0
 40
0
 40
1
 40
1
 40
1
 40
1
 10
41.015661
 20
98.472848
 30
0.0
 10
40.951352
 20
98.472848
 30
0.0
 10
40.898528
 20
98.493519
 30
0.0
 10
40.857188
 20
98.534860
 30
0.0
  0
SPLINE
  5
134
100
AcDbEntity
  8
Layer_1
 62
7
100
AcDbSpline
 70
8
 71
3
 72
8
 73
4
 74
0
 40
0
 40
0
 40
0
 40
0
 40
1
 40
1
 40
1
 40
1
 10
40.857188
 20
98.534860
 30
0.0
 10
40.815846
 20
98.576201
 30
0.0
 10
40.795175
 20
98.629026
 30
0.0
 10
40.795175
 20
98.693334
 30
0.0
  0
LINE
  5
135
100
AcDbEntity
  8
Layer_1
 62
7
100
AcDbLine
 10
40.795175
 20
98.693334
 30
0.0
 11
40.795175
 21
104.205487
 31
0.0
  0
SPLINE
  5
136
100
AcDbEntity
  8
Layer_1
 62
7
100
AcDbSpline
 70
8
 71
3
 72
8
 73
4
 74
0
 40
0
 40
0
 40
0
 40
0
 40
1
 40
1
 40
1
 40
1
 10
40.795175
 20
104.205487
 30
0.0
 10
40.795175
 20
104.265202
 30
0.0
 10
40.806659
 20
104.321472
 30
0.0
 10
40.829626
 20
104.374297
 30
0.0
  0
SPLINE
  5
137
100
AcDbEntity
  8
Layer_1
 62
7
100
AcDbSpline
 70
8
 71
3
 72
8
 73
4
 74
0
 40
0
 40
0
 40
0
 40
0
 40
1
 40
1
 40
1
 40
1
 10
40.829626
 20
104.374297
 30
0.0
 10
40.854890
 20
104.427122
 30
0.0
 10
40.887045
 20
104.473056
 30
0.0
 10
40.926089
 20
104.512101
 30
0.0
  0
SPLINE
  5
138
100
AcDbEntity
  8
Layer_1
 62
7
100
AcDbSpline
 70
8
 71
3
 72
8
 73
4
 74
0
 40
0
 40
0
 40
0
 40
0
 40
1
 40
1
 40
1
 40
1
 10
40.926089
 20
104.512101
 30
0.0
 10
40.967429
 20
104.553442
 30
0.0
 10
41.014513
 20
104.585596
 30
0.0
 10
41.067339
 20
104.608563
 30
0.0
  0
SPLINE
  5
139
100
AcDbEntity
  8
Layer_1
 62
7
100
AcDbSpline
 70
8
 71
3
 72
8
 73
4
 74
0
 40
0
 40
0
 40
0
 40
0
 40
1
 40
1
 40
1
 40
1
 10
41.067339
 20
104.608563
 30
0.0
 10
41.120163
 20
104.633827
 30
0.0
 10
41.176433
 20
104.646459
 30
0.0
 10
41.236147
 20
104.646459
 30
0.0
  0
LINE
  5
13a
100
AcDbEntity
  8
Layer_1
 62
7
100
AcDbLine
 10
41.236147
 20
104.646459
 30
0.0
 11
45.645870
 21
104.646459
 31
0.0
  0
SPLINE
  5
13b
100
AcDbEntity
  8
Layer_1
 62
7
100
AcDbSpline
 70
8
 71
3
 72
8
 73
4
 74
0
 40
0
 40
0
 40
0
 40
0
 40
1
 40
1
 40
1
 40
1
 10
45.645870
 20
104.646459
 30
0.0
 10
45.705584
 20
104.646459
 30
0.0
 10
45.761853
 20
104.633827
 30
0.0
 10
45.814678
 20
104.608563
 30
0.0
  0
SPLINE
  5
13c
100
AcDbEntity
  8
Layer_1
 62
7
100
AcDbSpline
 70
8
 71
3
 72
8
 73
4
 74
0
 40
0
 40
0
 40
0
 40
0
 40
1
 40
1
 40
1
 40
1
 10
45.814678
 20
104.608563
 30
0.0
 10
45.867504
 20
104.585596
 30
0.0
 10
45.913440
 20
104.553442
 30
0.0
 10
45.952484
 20
104.512101
 30
0.0
  0
SPLINE
  5
13d
100
AcDbEntity
  8
Layer_1
 62
7
100
AcDbSpline
 70
8
 71
3
 72
8
 73
4
 74
0
 40
0
 40
0
 40
0
 40
0
 40
1
 40
1
 40
1
 40
1
 10
45.952484
 20
104.512101
 30
0.0
 10
45.993824
 20
104.473056
 30
0.0
 10
46.025978
 20
104.427122
 30
0.0
 10
46.048945
 20
104.374297
 30
0.0
  0
SPLINE
  5
13e
100
AcDbEntity
  8
Layer_1
 62
7
100
AcDbSpline
 70
8
 71
3
 72
8
 73
4
 74
0
 40
0
 40
0
 40
0
 40
0
 40
1
 40
1
 40
1
 40
1
 10
46.048945
 20
104.374297
 30
0.0
 10
46.074209
 20
104.321472
 30
0.0
 10
46.086842
 20
104.265202
 30
0.0
 10
46.086842
 20
104.205487
 30
0.0
  0
LINE
  5
13f
100
AcDbEntity
  8
Layer_1
 62
7
100
AcDbLine
 10
46.086842
 20
104.205487
 30
0.0
 11
46.086842
 21
101.339168
 31
0.0
  0
SPLINE
  5
140
100
AcDbEntity
  8
Layer_1
 62
7
100
AcDbSpline
 70
8
 71
3
 72
8
 73
4
 74
0
 40
0
 40
0
 40
0
 40
0
 40
1
 40
1
 40
1
 40
1
 10
46.086842
 20
101.339168
 30
0.0
 10
46.086842
 20
101.279453
 30
0.0
 10
46.066171
 20
101.227776
 30
0.0
 10
46.024829
 20
101.184138
 30
0.0
  0
SPLINE
  5
141
100
AcDbEntity
  8
Layer_1
 62
7
100
AcDbSpline
 70
8
 71
3
 72
8
 73
4
 74
0
 40
0
 40
0
 40
0
 40
0
 40
1
 40
1
 40
1
 40
1
 10
46.024829
 20
101.184138
 30
0.0
 10
45.983489
 20
101.140500
 30
0.0
 10
45.930665
 20
101.118681
 30
0.0
 10
45.866356
 20
101.118681
 30
0.0
  0
LINE
  5
142
100
AcDbEntity
  8
Layer_1
 62
7
100
AcDbLine
 10
45.866356
 20
101.118681
 30
0.0
 11
45.425383
 21
101.118681
 31
0.0
  0
SPLINE
  5
143
100
AcDbEntity
  8
Layer_1
 62
7
100
AcDbSpline
 70
8
 71
3
 72
8
 73
4
 74
0
 40
0
 40
0
 40
0
 40
0
 40
1
 40
1
 40
1
 40
1
 10
45.425383
 20
101.118681
 30
0.0
 10
45.361074
 20
101.118681
 30
0.0
 10
45.308250
 20
101.139352
 30
0.0
 10
45.266910
 20
101.180693
 30
0.0
  0
SPLINE
  5
144
100
AcDbEntity
  8
Layer_1
 62
7
100
AcDbSpline
 70
8
 71
3
 72
8
 73
4
 74
0
 40
0
 40
0
 40
0
 40
0
 40
1
 40
1
 40
1
 40
1
 10
45.266910
 20
101.180693
 30
0.0
 10
45.225568
 20
101.222034
 30
0.0
 10
45.204897
 20
101.274859
 30
0.0
 10
45.204897
 20
101.339168
 30
0.0
  0
LINE
  5
145
100
AcDbEntity
  8
Layer_1
 62
7
100
AcDbLine
 10
45.204897
 20
101.339168
 30
0.0
 11
45.204897
 21
103.544029
 31
0.0
  0
SPLINE
  5
146
100
AcDbEntity
  8
Layer_1
 62
7
100
AcDbSpline
 70
8
 71
3
 72
8
 73
4
 74
0
 40
0
 40
0
 40
0
 40
0
 40
1
 40
1
 40
1
 40
1
 10
45.204897
 20
103.544029
 30
0.0
 10
45.204897
 20
103.603744
 30
0.0
 10
45.183079
 20
103.655420
 30
0.0
 10
45.139441
 20
103.699058
 30
0.0
  0
SPLINE
  5
147
100
AcDbEntity
  8
Layer_1
 62
7
100
AcDbSpline
 70
8
 71
3
 72
8
 73
4
 74
0
 40
0
 40
0
 40
0
 40
0
 40
1
 40
1
 40
1
 40
1
 10
45.139441
 20
103.699058
 30
0.0
 10
45.095802
 20
103.742696
 30
0.0
 10
45.044126
 20
103.764515
 30
0.0
 10
44.984411
 20
103.764515
 30
0.0
  0
LINE
  5
148
100
AcDbEntity
  8
Layer_1
 62
7
100
AcDbLine
 10
44.984411
 20
103.764515
 30
0.0
 11
41.897606
 21
103.764515
 31
0.0
  0
SPLINE
  5
149
100
AcDbEntity
  8
Layer_1
 62
7
100
AcDbSpline
 70
8
 71
3
 72
8
 73
4
 74
0
 40
0
 40
0
 40
0
 40
0
 40
1
 40
1
 40
1
 40
1
 10
41.897606
 20
103.764515
 30
0.0
 10
41.837891
 20
103.764515
 30
0.0
 10
41.786214
 20
103.743844
 30
0.0
 10
41.742575
 20
103.702503
 30
0.0
  0
SPLINE
  5
14a
100
AcDbEntity
  8
Layer_1
 62
7
100
AcDbSpline
 70
8
 71
3
 72
8
 73
4
 74
0
 40
0
 40
0
 40
0
 40
0
 40
1
 40
1
 40
1
 40
1
 10
41.742575
 20
103.702503
 30
0.0
 10
41.698938
 20
103.661162
 30
0.0
 10
41.677120
 20
103.608337
 30
0.0
 10
41.677120
 20
103.544029
 30
0.0
  0
LINE
  5
14b
100
AcDbEntity
  8
Layer_1
 62
7
100
AcDbLine
 10
41.677120
 20
103.544029
 30
0.0
 11
41.677120
 21
98.693334
 31
0.0
  0
SPLINE
  5
14c
100
AcDbEntity
  8
Layer_1
 62
7
100
AcDbSpline
 70
8
 71
3
 72
8
 73
4
 74
0
 40
0
 40
0
 40
0
 40
0
 40
1
 40
1
 40
1
 40
1
 10
41.677120
 20
98.693334
 30
0.0
 10
41.677120
 20
98.633619
 30
0.0
 10
41.656449
 20
98.581943
 30
0.0
 10
41.615107
 20
98.538305
 30
0.0
  0
SPLINE
  5
14d
100
AcDbEntity
  8
Layer_1
 62
7
100
AcDbSpline
 70
8
 71
3
 72
8
 73
4
 74
0
 40
0
 40
0
 40
0
 40
0
 40
1
 40
1
 40
1
 40
1
 10
41.615107
 20
98.538305
 30
0.0
 10
41.573767
 20
98.494667
 30
0.0
 10
41.520942
 20
98.472848
 30
0.0
 10
41.456633
 20
98.472848
 30
0.0
  0
LINE
  5
14e
100
AcDbEntity
  8
Layer_1
 62
7
100
AcDbLine
 10
41.456633
 20
98.472848
 30
0.0
 11
41.015661
 21
98.472848
 31
0.0
  0
LINE
  5
14f
100
AcDbEntity
  8
Layer_1
 62
7
100
AcDbLine
 10
41.015661
 20
98.472848
 30
0.0
 11
41.015661
 21
98.472848
 31
0.0
  0
SPLINE
  5
150
100
AcDbEntity
  8
Layer_1
 62
7
100
AcDbSpline
 70
8
 71
3
 72
8
 73
4
 74
0
 40
0
 40
0
 40
0
 40
0
 40
1
 40
1
 40
1
 40
1
 10
58.295422
 20
98.472848
 30
0.0
 10
58.231113
 20
98.472848
 30
0.0
 10
58.178289
 20
98.493519
 30
0.0
 10
58.136949
 20
98.534860
 30
0.0
  0
SPLINE
  5
151
100
AcDbEntity
  8
Layer_1
 62
7
100
AcDbSpline
 70
8
 71
3
 72
8
 73
4
 74
0
 40
0
 40
0
 40
0
 40
0
 40
1
 40
1
 40
1
 40
1
 10
58.136949
 20
98.534860
 30
0.0
 10
58.095607
 20
98.576201
 30
0.0
 10
58.074936
 20
98.629026
 30
0.0
 10
58.074936
 20
98.693334
 30
0.0
  0
LINE
  5
152
100
AcDbEntity
  8
Layer_1
 62
7
100
AcDbLine
 10
58.074936
 20
98.693334
 30
0.0
 11
58.074936
 21
99.134306
 31
0.0
  0
SPLINE
  5
153
100
AcDbEntity
  8
Layer_1
 62
7
100
AcDbSpline
 70
8
 71
3
 72
8
 73
4
 74
0
 40
0
 40
0
 40
0
 40
0
 40
1
 40
1
 40
1
 40
1
 10
58.074936
 20
99.134306
 30
0.0
 10
58.074936
 20
99.198615
 30
0.0
 10
58.096755
 20
99.251440
 30
0.0
 10
58.140392
 20
99.292781
 30
0.0
  0
SPLINE
  5
154
100
AcDbEntity
  8
Layer_1
 62
7
100
AcDbSpline
 70
8
 71
3
 72
8
 73
4
 74
0
 40
0
 40
0
 40
0
 40
0
 40
1
 40
1
 40
1
 40
1
 10
58.140392
 20
99.292781
 30
0.0
 10
58.184031
 20
99.334122
 30
0.0
 10
58.235708
 20
99.354793
 30
0.0
 10
58.295422
 20
99.354793
 30
0.0
  0
LINE
  5
155
100
AcDbEntity
  8
Layer_1
 62
7
100
AcDbLine
 10
58.295422
 20
99.354793
 30
0.0
 11
62.264172
 21
99.354793
 31
0.0
  0
SPLINE
  5
156
100
AcDbEntity
  8
Layer_1
 62
7
100
AcDbSpline
 70
8
 71
3
 72
8
 73
4
 74
0
 40
0
 40
0
 40
0
 40
0
 40
1
 40
1
 40
1
 40
1
 10
62.264172
 20
99.354793
 30
0.0
 10
62.328481
 20
99.354793
 30
0.0
 10
62.381306
 20
99.376612
 30
0.0
 10
62.422646
 20
99.420249
 30
0.0
  0
SPLINE
  5
157
100
AcDbEntity
  8
Layer_1
 62
7
100
AcDbSpline
 70
8
 71
3
 72
8
 73
4
 74
0
 40
0
 40
0
 40
0
 40
0
 40
1
 40
1
 40
1
 40
1
 10
62.422646
 20
99.420249
 30
0.0
 10
62.463987
 20
99.463887
 30
0.0
 10
62.484658
 20
99.515564
 30
0.0
 10
62.484658
 20
99.575279
 30
0.0
  0
LINE
  5
158
100
AcDbEntity
  8
Layer_1
 62
7
100
AcDbLine
 10
62.484658
 20
99.575279
 30
0.0
 11
62.484658
 21
100.016251
 31
0.0
  0
SPLINE
  5
159
100
AcDbEntity
  8
Layer_1
 62
7
100
AcDbSpline
 70
8
 71
3
 72
8
 73
4
 74
0
 40
0
 40
0
 40
0
 40
0
 40
1
 40
1
 40
1
 40
1
 10
62.484658
 20
100.016251
 30
0.0
 10
62.484658
 20
100.075966
 30
0.0
 10
62.462840
 20
100.127642
 30
0.0
 10
62.419203
 20
100.171280
 30
0.0
  0
SPLINE
  5
15a
100
AcDbEntity
  8
Layer_1
 62
7
100
AcDbSpline
 70
8
 71
3
 72
8
 73
4
 74
0
 40
0
 40
0
 40
0
 40
0
 40
1
 40
1
 40
1
 40
1
 10
62.419203
 20
100.171280
 30
0.0
 10
62.375564
 20
100.214918
 30
0.0
 10
62.323887
 20
100.236737
 30
0.0
 10
62.264172
 20
100.236737
 30
0.0
  0
LINE
  5
15b
100
AcDbEntity
  8
Layer_1
 62
7
100
AcDbLine
 10
62.264172
 20
100.236737
 30
0.0
 11
59.397853
 21
100.236737
 31
0.0
  0
SPLINE
  5
15c
100
AcDbEntity
  8
Layer_1
 62
7
100
AcDbSpline
 70
8
 71
3
 72
8
 73
4
 74
0
 40
0
 40
0
 40
0
 40
0
 40
1
 40
1
 40
1
 40
1
 10
59.397853
 20
100.236737
 30
0.0
 10
59.335841
 20
100.236737
 30
0.0
 10
59.277274
 20
100.248221
 30
0.0
 10
59.222153
 20
100.271188
 30
0.0
  0
SPLINE
  5
15d
100
AcDbEntity
  8
Layer_1
 62
7
100
AcDbSpline
 70
8
 71
3
 72
8
 73
4
 74
0
 40
0
 40
0
 40
0
 40
0
 40
1
 40
1
 40
1
 40
1
 10
59.222153
 20
100.271188
 30
0.0
 10
59.169328
 20
100.294155
 30
0.0
 10
59.123394
 20
100.325161
 30
0.0
 10
59.084349
 20
100.364206
 30
0.0
  0
SPLINE
  5
15e
100
AcDbEntity
  8
Layer_1
 62
7
100
AcDbSpline
 70
8
 71
3
 72
8
 73
4
 74
0
 40
0
 40
0
 40
0
 40
0
 40
1
 40
1
 40
1
 40
1
 10
59.084349
 20
100.364206
 30
0.0
 10
59.045305
 20
100.403250
 30
0.0
 10
59.014299
 20
100.449185
 30
0.0
 10
58.991331
 20
100.502010
 30
0.0
  0
SPLINE
  5
15f
100
AcDbEntity
  8
Layer_1
 62
7
100
AcDbSpline
 70
8
 71
3
 72
8
 73
4
 74
0
 40
0
 40
0
 40
0
 40
0
 40
1
 40
1
 40
1
 40
1
 10
58.991331
 20
100.502010
 30
0.0
 10
58.968364
 20
100.557131
 30
0.0
 10
58.956881
 20
100.615698
 30
0.0
 10
58.956881
 20
100.677709
 30
0.0
  0
LINE
  5
160
100
AcDbEntity
  8
Layer_1
 62
7
100
AcDbLine
 10
58.956881
 20
100.677709
 30
0.0
 11
58.956881
 21
102.441598
 31
0.0
  0
SPLINE
  5
161
100
AcDbEntity
  8
Layer_1
 62
7
100
AcDbSpline
 70
8
 71
3
 72
8
 73
4
 74
0
 40
0
 40
0
 40
0
 40
0
 40
1
 40
1
 40
1
 40
1
 10
58.956881
 20
102.441598
 30
0.0
 10
58.956881
 20
102.501313
 30
0.0
 10
58.968364
 20
102.557583
 30
0.0
 10
58.991331
 20
102.610408
 30
0.0
  0
SPLINE
  5
162
100
AcDbEntity
  8
Layer_1
 62
7
100
AcDbSpline
 70
8
 71
3
 72
8
 73
4
 74
0
 40
0
 40
0
 40
0
 40
0
 40
1
 40
1
 40
1
 40
1
 10
58.991331
 20
102.610408
 30
0.0
 10
59.016596
 20
102.663233
 30
0.0
 10
59.048751
 20
102.709167
 30
0.0
 10
59.087795
 20
102.748212
 30
0.0
  0
SPLINE
  5
163
100
AcDbEntity
  8
Layer_1
 62
7
100
AcDbSpline
 70
8
 71
3
 72
8
 73
4
 74
0
 40
0
 40
0
 40
0
 40
0
 40
1
 40
1
 40
1
 40
1
 10
59.087795
 20
102.748212
 30
0.0
 10
59.129135
 20
102.789553
 30
0.0
 10
59.176218
 20
102.821707
 30
0.0
 10
59.229044
 20
102.844674
 30
0.0
  0
SPLINE
  5
164
100
AcDbEntity
  8
Layer_1
 62
7
100
AcDbSpline
 70
8
 71
3
 72
8
 73
4
 74
0
 40
0
 40
0
 40
0
 40
0
 40
1
 40
1
 40
1
 40
1
 10
59.229044
 20
102.844674
 30
0.0
 10
59.281869
 20
102.869938
 30
0.0
 10
59.338138
 20
102.882570
 30
0.0
 10
59.397853
 20
102.882570
 30
0.0
  0
LINE
  5
165
100
AcDbEntity
  8
Layer_1
 62
7
100
AcDbLine
 10
59.397853
 20
102.882570
 30
0.0
 11
62.264172
 21
102.882570
 31
0.0
  0
SPLINE
  5
166
100
AcDbEntity
  8
Layer_1
 62
7
100
AcDbSpline
 70
8
 71
3
 72
8
 73
4
 74
0
 40
0
 40
0
 40
0
 40
0
 40
1
 40
1
 40
1
 40
1
 10
62.264172
 20
102.882570
 30
0.0
 10
62.328481
 20
102.882570
 30
0.0
 10
62.381306
 20
102.904389
 30
0.0
 10
62.422646
 20
102.948027
 30
0.0
  0
SPLINE
  5
167
100
AcDbEntity
  8
Layer_1
 62
7
100
AcDbSpline
 70
8
 71
3
 72
8
 73
4
 74
0
 40
0
 40
0
 40
0
 40
0
 40
1
 40
1
 40
1
 40
1
 10
62.422646
 20
102.948027
 30
0.0
 10
62.463987
 20
102.991665
 30
0.0
 10
62.484658
 20
103.043342
 30
0.0
 10
62.484658
 20
103.103056
 30
0.0
  0
LINE
  5
168
100
AcDbEntity
  8
Layer_1
 62
7
100
AcDbLine
 10
62.484658
 20
103.103056
 30
0.0
 11
62.484658
 21
103.544029
 31
0.0
  0
SPLINE
  5
169
100
AcDbEntity
  8
Layer_1
 62
7
100
AcDbSpline
 70
8
 71
3
 72
8
 73
4
 74
0
 40
0
 40
0
 40
0
 40
0
 40
1
 40
1
 40
1
 40
1
 10
62.484658
 20
103.544029
 30
0.0
 10
62.484658
 20
103.603744
 30
0.0
 10
62.462840
 20
103.655420
 30
0.0
 10
62.419203
 20
103.699058
 30
0.0
  0
SPLINE
  5
16a
100
AcDbEntity
  8
Layer_1
 62
7
100
AcDbSpline
 70
8
 71
3
 72
8
 73
4
 74
0
 40
0
 40
0
 40
0
 40
0
 40
1
 40
1
 40
1
 40
1
 10
62.419203
 20
103.699058
 30
0.0
 10
62.375564
 20
103.742696
 30
0.0
 10
62.323887
 20
103.764515
 30
0.0
 10
62.264172
 20
103.764515
 30
0.0
  0
LINE
  5
16b
100
AcDbEntity
  8
Layer_1
 62
7
100
AcDbLine
 10
62.264172
 20
103.764515
 30
0.0
 11
58.295422
 21
103.764515
 31
0.0
  0
SPLINE
  5
16c
100
AcDbEntity
  8
Layer_1
 62
7
100
AcDbSpline
 70
8
 71
3
 72
8
 73
4
 74
0
 40
0
 40
0
 40
0
 40
0
 40
1
 40
1
 40
1
 40
1
 10
58.295422
 20
103.764515
 30
0.0
 10
58.231113
 20
103.764515
 30
0.0
 10
58.178289
 20
103.785185
 30
0.0
 10
58.136949
 20
103.826527
 30
0.0
  0
SPLINE
  5
16d
100
AcDbEntity
  8
Layer_1
 62
7
100
AcDbSpline
 70
8
 71
3
 72
8
 73
4
 74
0
 40
0
 40
0
 40
0
 40
0
 40
1
 40
1
 40
1
 40
1
 10
58.136949
 20
103.826527
 30
0.0
 10
58.095607
 20
103.867868
 30
0.0
 10
58.074936
 20
103.920692
 30
0.0
 10
58.074936
 20
103.985001
 30
0.0
  0
LINE
  5
16e
100
AcDbEntity
  8
Layer_1
 62
7
100
AcDbLine
 10
58.074936
 20
103.985001
 30
0.0
 11
58.074936
 21
104.425973
 31
0.0
  0
SPLINE
  5
16f
100
AcDbEntity
  8
Layer_1
 62
7
100
AcDbSpline
 70
8
 71
3
 72
8
 73
4
 74
0
 40
0
 40
0
 40
0
 40
0
 40
1
 40
1
 40
1
 40
1
 10
58.074936
 20
104.425973
 30
0.0
 10
58.074936
 20
104.490282
 30
0.0
 10
58.096755
 20
104.543106
 30
0.0
 10
58.140392
 20
104.584448
 30
0.0
  0
SPLINE
  5
170
100
AcDbEntity
  8
Layer_1
 62
7
100
AcDbSpline
 70
8
 71
3
 72
8
 73
4
 74
0
 40
0
 40
0
 40
0
 40
0
 40
1
 40
1
 40
1
 40
1
 10
58.140392
 20
104.584448
 30
0.0
 10
58.184031
 20
104.625789
 30
0.0
 10
58.235708
 20
104.646459
 30
0.0
 10
58.295422
 20
104.646459
 30
0.0
  0
LINE
  5
171
100
AcDbEntity
  8
Layer_1
 62
7
100
AcDbLine
 10
58.295422
 20
104.646459
 30
0.0
 11
62.925631
 21
104.646459
 31
0.0
  0
SPLINE
  5
172
100
AcDbEntity
  8
Layer_1
 62
7
100
AcDbSpline
 70
8
 71
3
 72
8
 73
4
 74
0
 40
0
 40
0
 40
0
 40
0
 40
1
 40
1
 40
1
 40
1
 10
62.925631
 20
104.646459
 30
0.0
 10
62.985345
 20
104.646459
 30
0.0
 10
63.041615
 20
104.633827
 30
0.0
 10
63.094442
 20
104.608563
 30
0.0
  0
SPLINE
  5
173
100
AcDbEntity
  8
Layer_1
 62
7
100
AcDbSpline
 70
8
 71
3
 72
8
 73
4
 74
0
 40
0
 40
0
 40
0
 40
0
 40
1
 40
1
 40
1
 40
1
 10
63.094442
 20
104.608563
 30
0.0
 10
63.147266
 20
104.585596
 30
0.0
 10
63.193201
 20
104.553442
 30
0.0
 10
63.232245
 20
104.512101
 30
0.0
  0
SPLINE
  5
174
100
AcDbEntity
  8
Layer_1
 62
7
100
AcDbSpline
 70
8
 71
3
 72
8
 73
4
 74
0
 40
0
 40
0
 40
0
 40
0
 40
1
 40
1
 40
1
 40
1
 10
63.232245
 20
104.512101
 30
0.0
 10
63.273585
 20
104.473056
 30
0.0
 10
63.305739
 20
104.427122
 30
0.0
 10
63.328706
 20
104.374297
 30
0.0
  0
SPLINE
  5
175
100
AcDbEntity
  8
Layer_1
 62
7
100
AcDbSpline
 70
8
 71
3
 72
8
 73
4
 74
0
 40
0
 40
0
 40
0
 40
0
 40
1
 40
1
 40
1
 40
1
 10
63.328706
 20
104.374297
 30
0.0
 10
63.353971
 20
104.321472
 30
0.0
 10
63.366603
 20
104.265202
 30
0.0
 10
63.366603
 20
104.205487
 30
0.0
  0
LINE
  5
176
100
AcDbEntity
  8
Layer_1
 62
7
100
AcDbLine
 10
63.366603
 20
104.205487
 30
0.0
 11
63.366603
 21
102.441598
 31
0.0
  0
SPLINE
  5
177
100
AcDbEntity
  8
Layer_1
 62
7
100
AcDbSpline
 70
8
 71
3
 72
8
 73
4
 74
0
 40
0
 40
0
 40
0
 40
0
 40
1
 40
1
 40
1
 40
1
 10
63.366603
 20
102.441598
 30
0.0
 10
63.366603
 20
102.381883
 30
0.0
 10
63.353971
 20
102.325613
 30
0.0
 10
63.328706
 20
102.272789
 30
0.0
  0
SPLINE
  5
178
100
AcDbEntity
  8
Layer_1
 62
7
100
AcDbSpline
 70
8
 71
3
 72
8
 73
4
 74
0
 40
0
 40
0
 40
0
 40
0
 40
1
 40
1
 40
1
 40
1
 10
63.328706
 20
102.272789
 30
0.0
 10
63.305739
 20
102.219964
 30
0.0
 10
63.273585
 20
102.172881
 30
0.0
 10
63.232245
 20
102.131540
 30
0.0
  0
SPLINE
  5
179
100
AcDbEntity
  8
Layer_1
 62
7
100
AcDbSpline
 70
8
 71
3
 72
8
 73
4
 74
0
 40
0
 40
0
 40
0
 40
0
 40
1
 40
1
 40
1
 40
1
 10
63.232245
 20
102.131540
 30
0.0
 10
63.193201
 20
102.092495
 30
0.0
 10
63.147266
 20
102.060341
 30
0.0
 10
63.094442
 20
102.035077
 30
0.0
  0
SPLINE
  5
17a
100
AcDbEntity
  8
Layer_1
 62
7
100
AcDbSpline
 70
8
 71
3
 72
8
 73
4
 74
0
 40
0
 40
0
 40
0
 40
0
 40
1
 40
1
 40
1
 40
1
 10
63.094442
 20
102.035077
 30
0.0
 10
63.041615
 20
102.012110
 30
0.0
 10
62.985345
 20
102.000626
 30
0.0
 10
62.925631
 20
102.000626
 30
0.0
  0
LINE
  5
17b
100
AcDbEntity
  8
Layer_1
 62
7
100
AcDbLine
 10
62.925631
 20
102.000626
 30
0.0
 11
60.059311
 21
102.000626
 31
0.0
  0
SPLINE
  5
17c
100
AcDbEntity
  8
Layer_1
 62
7
100
AcDbSpline
 70
8
 71
3
 72
8
 73
4
 74
0
 40
0
 40
0
 40
0
 40
0
 40
1
 40
1
 40
1
 40
1
 10
60.059311
 20
102.000626
 30
0.0
 10
59.999597
 20
102.000626
 30
0.0
 10
59.947920
 20
101.979955
 30
0.0
 10
59.904281
 20
101.938614
 30
0.0
  0
SPLINE
  5
17d
100
AcDbEntity
  8
Layer_1
 62
7
100
AcDbSpline
 70
8
 71
3
 72
8
 73
4
 74
0
 40
0
 40
0
 40
0
 40
0
 40
1
 40
1
 40
1
 40
1
 10
59.904281
 20
101.938614
 30
0.0
 10
59.860644
 20
101.897273
 30
0.0
 10
59.838825
 20
101.844448
 30
0.0
 10
59.838825
 20
101.780140
 30
0.0
  0
LINE
  5
17e
100
AcDbEntity
  8
Layer_1
 62
7
100
AcDbLine
 10
59.838825
 20
101.780140
 30
0.0
 11
59.838825
 21
101.339168
 31
0.0
  0
SPLINE
  5
17f
100
AcDbEntity
  8
Layer_1
 62
7
100
AcDbSpline
 70
8
 71
3
 72
8
 73
4
 74
0
 40
0
 40
0
 40
0
 40
0
 40
1
 40
1
 40
1
 40
1
 10
59.838825
 20
101.339168
 30
0.0
 10
59.838825
 20
101.274859
 30
0.0
 10
59.859496
 20
101.222034
 30
0.0
 10
59.900838
 20
101.180693
 30
0.0
  0
SPLINE
  5
180
100
AcDbEntity
  8
Layer_1
 62
7
100
AcDbSpline
 70
8
 71
3
 72
8
 73
4
 74
0
 40
0
 40
0
 40
0
 40
0
 40
1
 40
1
 40
1
 40
1
 10
59.900838
 20
101.180693
 30
0.0
 10
59.942178
 20
101.139352
 30
0.0
 10
59.995002
 20
101.118681
 30
0.0
 10
60.059311
 20
101.118681
 30
0.0
  0
LINE
  5
181
100
AcDbEntity
  8
Layer_1
 62
7
100
AcDbLine
 10
60.059311
 20
101.118681
 30
0.0
 11
62.925631
 21
101.118681
 31
0.0
  0
SPLINE
  5
182
100
AcDbEntity
  8
Layer_1
 62
7
100
AcDbSpline
 70
8
 71
3
 72
8
 73
4
 74
0
 40
0
 40
0
 40
0
 40
0
 40
1
 40
1
 40
1
 40
1
 10
62.925631
 20
101.118681
 30
0.0
 10
62.985345
 20
101.118681
 30
0.0
 10
63.041615
 20
101.106049
 30
0.0
 10
63.094442
 20
101.080785
 30
0.0
  0
SPLINE
  5
183
100
AcDbEntity
  8
Layer_1
 62
7
100
AcDbSpline
 70
8
 71
3
 72
8
 73
4
 74
0
 40
0
 40
0
 40
0
 40
0
 40
1
 40
1
 40
1
 40
1
 10
63.094442
 20
101.080785
 30
0.0
 10
63.147266
 20
101.057818
 30
0.0
 10
63.193201
 20
101.025664
 30
0.0
 10
63.232245
 20
100.984323
 30
0.0
  0
SPLINE
  5
184
100
AcDbEntity
  8
Layer_1
 62
7
100
AcDbSpline
 70
8
 71
3
 72
8
 73
4
 74
0
 40
0
 40
0
 40
0
 40
0
 40
1
 40
1
 40
1
 40
1
 10
63.232245
 20
100.984323
 30
0.0
 10
63.273585
 20
100.945278
 30
0.0
 10
63.305739
 20
100.899344
 30
0.0
 10
63.328706
 20
100.846519
 30
0.0
  0
SPLINE
  5
185
100
AcDbEntity
  8
Layer_1
 62
7
100
AcDbSpline
 70
8
 71
3
 72
8
 73
4
 74
0
 40
0
 40
0
 40
0
 40
0
 40
1
 40
1
 40
1
 40
1
 10
63.328706
 20
100.846519
 30
0.0
 10
63.353971
 20
100.793694
 30
0.0
 10
63.366603
 20
100.737424
 30
0.0
 10
63.366603
 20
100.677709
 30
0.0
  0
LINE
  5
186
100
AcDbEntity
  8
Layer_1
 62
7
100
AcDbLine
 10
63.366603
 20
100.677709
 30
0.0
 11
63.366603
 21
98.913820
 31
0.0
  0
SPLINE
  5
187
100
AcDbEntity
  8
Layer_1
 62
7
100
AcDbSpline
 70
8
 71
3
 72
8
 73
4
 74
0
 40
0
 40
0
 40
0
 40
0
 40
1
 40
1
 40
1
 40
1
 10
63.366603
 20
98.913820
 30
0.0
 10
63.366603
 20
98.854105
 30
0.0
 10
63.353971
 20
98.797836
 30
0.0
 10
63.328706
 20
98.745011
 30
0.0
  0
SPLINE
  5
188
100
AcDbEntity
  8
Layer_1
 62
7
100
AcDbSpline
 70
8
 71
3
 72
8
 73
4
 74
0
 40
0
 40
0
 40
0
 40
0
 40
1
 40
1
 40
1
 40
1
 10
63.328706
 20
98.745011
 30
0.0
 10
63.305739
 20
98.692186
 30
0.0
 10
63.273585
 20
98.645103
 30
0.0
 10
63.232245
 20
98.603762
 30
0.0
  0
SPLINE
  5
189
100
AcDbEntity
  8
Layer_1
 62
7
100
AcDbSpline
 70
8
 71
3
 72
8
 73
4
 74
0
 40
0
 40
0
 40
0
 40
0
 40
1
 40
1
 40
1
 40
1
 10
63.232245
 20
98.603762
 30
0.0
 10
63.193201
 20
98.564717
 30
0.0
 10
63.147266
 20
98.532563
 30
0.0
 10
63.094442
 20
98.507299
 30
0.0
  0
SPLINE
  5
18a
100
AcDbEntity
  8
Layer_1
 62
7
100
AcDbSpline
 70
8
 71
3
 72
8
 73
4
 74
0
 40
0
 40
0
 40
0
 40
0
 40
1
 40
1
 40
1
 40
1
 10
63.094442
 20
98.507299
 30
0.0
 10
63.041615
 20
98.484332
 30
0.0
 10
62.985345
 20
98.472848
 30
0.0
 10
62.925631
 20
98.472848
 30
0.0
  0
LINE
  5
18b
100
AcDbEntity
  8
Layer_1
 62
7
100
AcDbLine
 10
62.925631
 20
98.472848
 30
0.0
 11
58.295422
 21
98.472848
 31
0.0
  0
LINE
  5
18c
100
AcDbEntity
  8
Layer_1
 62
7
100
AcDbLine
 10
58.295422
 20
98.472848
 30
0.0
 11
58.295422
 21
98.472848
 31
0.0
  0
SPLINE
  5
18d
100
AcDbEntity
  8
Layer_1
 62
7
100
AcDbSpline
 70
8
 71
3
 72
8
 73
4
 74
0
 40
0
 40
0
 40
0
 40
0
 40
1
 40
1
 40
1
 40
1
 10
75.795667
 20
98.472848
 30
0.0
 10
75.733655
 20
98.472848
 30
0.0
 10
75.675089
 20
98.484332
 30
0.0
 10
75.619969
 20
98.507299
 30
0.0
  0
SPLINE
  5
18e
100
AcDbEntity
  8
Layer_1
 62
7
100
AcDbSpline
 70
8
 71
3
 72
8
 73
4
 74
0
 40
0
 40
0
 40
0
 40
0
 40
1
 40
1
 40
1
 40
1
 10
75.619969
 20
98.507299
 30
0.0
 10
75.567143
 20
98.530267
 30
0.0
 10
75.521207
 20
98.561272
 30
0.0
 10
75.482163
 20
98.600317
 30
0.0
  0
SPLINE
  5
18f
100
AcDbEntity
  8
Layer_1
 62
7
100
AcDbSpline
 70
8
 71
3
 72
8
 73
4
 74
0
 40
0
 40
0
 40
0
 40
0
 40
1
 40
1
 40
1
 40
1
 10
75.482163
 20
98.600317
 30
0.0
 10
75.443118
 20
98.639361
 30
0.0
 10
75.412113
 20
98.685296
 30
0.0
 10
75.389145
 20
98.738121
 30
0.0
  0
SPLINE
  5
190
100
AcDbEntity
  8
Layer_1
 62
7
100
AcDbSpline
 70
8
 71
3
 72
8
 73
4
 74
0
 40
0
 40
0
 40
0
 40
0
 40
1
 40
1
 40
1
 40
1
 10
75.389145
 20
98.738121
 30
0.0
 10
75.366178
 20
98.793242
 30
0.0
 10
75.354694
 20
98.851809
 30
0.0
 10
75.354694
 20
98.913820
 30
0.0
  0
LINE
  5
191
100
AcDbEntity
  8
Layer_1
 62
7
100
AcDbLine
 10
75.354694
 20
98.913820
 30
0.0
 11
75.354694
 21
104.425973
 31
0.0
  0
SPLINE
  5
192
100
AcDbEntity
  8
Layer_1
 62
7
100
AcDbSpline
 70
8
 71
3
 72
8
 73
4
 74
0
 40
0
 40
0
 40
0
 40
0
 40
1
 40
1
 40
1
 40
1
 10
75.354694
 20
104.425973
 30
0.0
 10
75.354694
 20
104.490282
 30
0.0
 10
75.376514
 20
104.543106
 30
0.0
 10
75.420153
 20
104.584448
 30
0.0
  0
SPLINE
  5
193
100
AcDbEntity
  8
Layer_1
 62
7
100
AcDbSpline
 70
8
 71
3
 72
8
 73
4
 74
0
 40
0
 40
0
 40
0
 40
0
 40
1
 40
1
 40
1
 40
1
 10
75.420153
 20
104.584448
 30
0.0
 10
75.463790
 20
104.625789
 30
0.0
 10
75.515466
 20
104.646459
 30
0.0
 10
75.575181
 20
104.646459
 30
0.0
  0
LINE
  5
194
100
AcDbEntity
  8
Layer_1
 62
7
100
AcDbLine
 10
75.575181
 20
104.646459
 30
0.0
 11
76.016153
 21
104.646459
 31
0.0
  0
SPLINE
  5
195
100
AcDbEntity
  8
Layer_1
 62
7
100
AcDbSpline
 70
8
 71
3
 72
8
 73
4
 74
0
 40
0
 40
0
 40
0
 40
0
 40
1
 40
1
 40
1
 40
1
 10
76.016153
 20
104.646459
 30
0.0
 10
76.075869
 20
104.646459
 30
0.0
 10
76.127546
 20
104.624640
 30
0.0
 10
76.171183
 20
104.581003
 30
0.0
  0
SPLINE
  5
196
100
AcDbEntity
  8
Layer_1
 62
7
100
AcDbSpline
 70
8
 71
3
 72
8
 73
4
 74
0
 40
0
 40
0
 40
0
 40
0
 40
1
 40
1
 40
1
 40
1
 10
76.171183
 20
104.581003
 30
0.0
 10
76.214820
 20
104.537365
 30
0.0
 10
76.236639
 20
104.485688
 30
0.0
 10
76.236639
 20
104.425973
 30
0.0
  0
LINE
  5
197
100
AcDbEntity
  8
Layer_1
 62
7
100
AcDbLine
 10
76.236639
 20
104.425973
 30
0.0
 11
76.236639
 21
102.221112
 31
0.0
  0
SPLINE
  5
198
100
AcDbEntity
  8
Layer_1
 62
7
100
AcDbSpline
 70
8
 71
3
 72
8
 73
4
 74
0
 40
0
 40
0
 40
0
 40
0
 40
1
 40
1
 40
1
 40
1
 10
76.236639
 20
102.221112
 30
0.0
 10
76.236639
 20
102.156804
 30
0.0
 10
76.257310
 20
102.103979
 30
0.0
 10
76.298652
 20
102.062638
 30
0.0
  0
SPLINE
  5
199
100
AcDbEntity
  8
Layer_1
 62
7
100
AcDbSpline
 70
8
 71
3
 72
8
 73
4
 74
0
 40
0
 40
0
 40
0
 40
0
 40
1
 40
1
 40
1
 40
1
 10
76.298652
 20
102.062638
 30
0.0
 10
76.339993
 20
102.021296
 30
0.0
 10
76.392818
 20
102.000626
 30
0.0
 10
76.457125
 20
102.000626
 30
0.0
  0
LINE
  5
19a
100
AcDbEntity
  8
Layer_1
 62
7
100
AcDbLine
 10
76.457125
 20
102.000626
 30
0.0
 11
77.339069
 21
102.000626
 31
0.0
  0
SPLINE
  5
19b
100
AcDbEntity
  8
Layer_1
 62
7
100
AcDbSpline
 70
8
 71
3
 72
8
 73
4
 74
0
 40
0
 40
0
 40
0
 40
0
 40
1
 40
1
 40
1
 40
1
 10
77.339069
 20
102.000626
 30
0.0
 10
77.403378
 20
102.000626
 30
0.0
 10
77.456204
 20
102.022445
 30
0.0
 10
77.497546
 20
102.066083
 30
0.0
  0
SPLINE
  5
19c
100
AcDbEntity
  8
Layer_1
 62
7
100
AcDbSpline
 70
8
 71
3
 72
8
 73
4
 74
0
 40
0
 40
0
 40
0
 40
0
 40
1
 40
1
 40
1
 40
1
 10
77.497546
 20
102.066083
 30
0.0
 10
77.538886
 20
102.109721
 30
0.0
 10
77.559556
 20
102.161397
 30
0.0
 10
77.559556
 20
102.221112
 30
0.0
  0
LINE
  5
19d
100
AcDbEntity
  8
Layer_1
 62
7
100
AcDbLine
 10
77.559556
 20
102.221112
 30
0.0
 11
77.559556
 21
104.425973
 31
0.0
  0
SPLINE
  5
19e
100
AcDbEntity
  8
Layer_1
 62
7
100
AcDbSpline
 70
8
 71
3
 72
8
 73
4
 74
0
 40
0
 40
0
 40
0
 40
0
 40
1
 40
1
 40
1
 40
1
 10
77.559556
 20
104.425973
 30
0.0
 10
77.559556
 20
104.490282
 30
0.0
 10
77.581375
 20
104.543106
 30
0.0
 10
77.625014
 20
104.584448
 30
0.0
  0
SPLINE
  5
19f
100
AcDbEntity
  8
Layer_1
 62
7
100
AcDbSpline
 70
8
 71
3
 72
8
 73
4
 74
0
 40
0
 40
0
 40
0
 40
0
 40
1
 40
1
 40
1
 40
1
 10
77.625014
 20
104.584448
 30
0.0
 10
77.668651
 20
104.625789
 30
0.0
 10
77.720327
 20
104.646459
 30
0.0
 10
77.780042
 20
104.646459
 30
0.0
  0
LINE
  5
1a0
100
AcDbEntity
  8
Layer_1
 62
7
100
AcDbLine
 10
77.780042
 20
104.646459
 30
0.0
 11
78.221014
 21
104.646459
 31
0.0
  0
SPLINE
  5
1a1
100
AcDbEntity
  8
Layer_1
 62
7
100
AcDbSpline
 70
8
 71
3
 72
8
 73
4
 74
0
 40
0
 40
0
 40
0
 40
0
 40
1
 40
1
 40
1
 40
1
 10
78.221014
 20
104.646459
 30
0.0
 10
78.280730
 20
104.646459
 30
0.0
 10
78.332407
 20
104.624640
 30
0.0
 10
78.376044
 20
104.581003
 30
0.0
  0
SPLINE
  5
1a2
100
AcDbEntity
  8
Layer_1
 62
7
100
AcDbSpline
 70
8
 71
3
 72
8
 73
4
 74
0
 40
0
 40
0
 40
0
 40
0
 40
1
 40
1
 40
1
 40
1
 10
78.376044
 20
104.581003
 30
0.0
 10
78.419681
 20
104.537365
 30
0.0
 10
78.441500
 20
104.485688
 30
0.0
 10
78.441500
 20
104.425973
 30
0.0
  0
LINE
  5
1a3
100
AcDbEntity
  8
Layer_1
 62
7
100
AcDbLine
 10
78.441500
 20
104.425973
 30
0.0
 11
78.441500
 21
102.221112
 31
0.0
  0
SPLINE
  5
1a4
100
AcDbEntity
  8
Layer_1
 62
7
100
AcDbSpline
 70
8
 71
3
 72
8
 73
4
 74
0
 40
0
 40
0
 40
0
 40
0
 40
1
 40
1
 40
1
 40
1
 10
78.441500
 20
102.221112
 30
0.0
 10
78.441500
 20
102.156804
 30
0.0
 10
78.462171
 20
102.103979
 30
0.0
 10
78.503513
 20
102.062638
 30
0.0
  0
SPLINE
  5
1a5
100
AcDbEntity
  8
Layer_1
 62
7
100
AcDbSpline
 70
8
 71
3
 72
8
 73
4
 74
0
 40
0
 40
0
 40
0
 40
0
 40
1
 40
1
 40
1
 40
1
 10
78.503513
 20
102.062638
 30
0.0
 10
78.544854
 20
102.021296
 30
0.0
 10
78.597679
 20
102.000626
 30
0.0
 10
78.661986
 20
102.000626
 30
0.0
  0
LINE
  5
1a6
100
AcDbEntity
  8
Layer_1
 62
7
100
AcDbLine
 10
78.661986
 20
102.000626
 30
0.0
 11
79.543931
 21
102.000626
 31
0.0
  0
SPLINE
  5
1a7
100
AcDbEntity
  8
Layer_1
 62
7
100
AcDbSpline
 70
8
 71
3
 72
8
 73
4
 74
0
 40
0
 40
0
 40
0
 40
0
 40
1
 40
1
 40
1
 40
1
 10
79.543931
 20
102.000626
 30
0.0
 10
79.608240
 20
102.000626
 30
0.0
 10
79.661065
 20
102.022445
 30
0.0
 10
79.702407
 20
102.066083
 30
0.0
  0
SPLINE
  5
1a8
100
AcDbEntity
  8
Layer_1
 62
7
100
AcDbSpline
 70
8
 71
3
 72
8
 73
4
 74
0
 40
0
 40
0
 40
0
 40
0
 40
1
 40
1
 40
1
 40
1
 10
79.702407
 20
102.066083
 30
0.0
 10
79.743747
 20
102.109721
 30
0.0
 10
79.764417
 20
102.161397
 30
0.0
 10
79.764417
 20
102.221112
 30
0.0
  0
LINE
  5
1a9
100
AcDbEntity
  8
Layer_1
 62
7
100
AcDbLine
 10
79.764417
 20
102.221112
 30
0.0
 11
79.764417
 21
104.425973
 31
0.0
  0
SPLINE
  5
1aa
100
AcDbEntity
  8
Layer_1
 62
7
100
AcDbSpline
 70
8
 71
3
 72
8
 73
4
 74
0
 40
0
 40
0
 40
0
 40
0
 40
1
 40
1
 40
1
 40
1
 10
79.764417
 20
104.425973
 30
0.0
 10
79.764417
 20
104.490282
 30
0.0
 10
79.786236
 20
104.543106
 30
0.0
 10
79.829875
 20
104.584448
 30
0.0
  0
SPLINE
  5
1ab
100
AcDbEntity
  8
Layer_1
 62
7
100
AcDbSpline
 70
8
 71
3
 72
8
 73
4
 74
0
 40
0
 40
0
 40
0
 40
0
 40
1
 40
1
 40
1
 40
1
 10
79.829875
 20
104.584448
 30
0.0
 10
79.873513
 20
104.625789
 30
0.0
 10
79.925188
 20
104.646459
 30
0.0
 10
79.984903
 20
104.646459
 30
0.0
  0
LINE
  5
1ac
100
AcDbEntity
  8
Layer_1
 62
7
100
AcDbLine
 10
79.984903
 20
104.646459
 30
0.0
 11
80.425875
 21
104.646459
 31
0.0
  0
SPLINE
  5
1ad
100
AcDbEntity
  8
Layer_1
 62
7
100
AcDbSpline
 70
8
 71
3
 72
8
 73
4
 74
0
 40
0
 40
0
 40
0
 40
0
 40
1
 40
1
 40
1
 40
1
 10
80.425875
 20
104.646459
 30
0.0
 10
80.485591
 20
104.646459
 30
0.0
 10
80.537268
 20
104.624640
 30
0.0
 10
80.580905
 20
104.581003
 30
0.0
  0
SPLINE
  5
1ae
100
AcDbEntity
  8
Layer_1
 62
7
100
AcDbSpline
 70
8
 71
3
 72
8
 73
4
 74
0
 40
0
 40
0
 40
0
 40
0
 40
1
 40
1
 40
1
 40
1
 10
80.580905
 20
104.581003
 30
0.0
 10
80.624543
 20
104.537365
 30
0.0
 10
80.646361
 20
104.485688
 30
0.0
 10
80.646361
 20
104.425973
 30
0.0
  0
LINE
  5
1af
100
AcDbEntity
  8
Layer_1
 62
7
100
AcDbLine
 10
80.646361
 20
104.425973
 30
0.0
 11
80.646361
 21
101.559654
 31
0.0
  0
SPLINE
  5
1b0
100
AcDbEntity
  8
Layer_1
 62
7
100
AcDbSpline
 70
8
 71
3
 72
8
 73
4
 74
0
 40
0
 40
0
 40
0
 40
0
 40
1
 40
1
 40
1
 40
1
 10
80.646361
 20
101.559654
 30
0.0
 10
80.646361
 20
101.499939
 30
0.0
 10
80.633730
 20
101.443669
 30
0.0
 10
80.608467
 20
101.390844
 30
0.0
  0
SPLINE
  5
1b1
100
AcDbEntity
  8
Layer_1
 62
7
100
AcDbSpline
 70
8
 71
3
 72
8
 73
4
 74
0
 40
0
 40
0
 40
0
 40
0
 40
1
 40
1
 40
1
 40
1
 10
80.608467
 20
101.390844
 30
0.0
 10
80.585500
 20
101.338019
 30
0.0
 10
80.553345
 20
101.290936
 30
0.0
 10
80.512004
 20
101.249595
 30
0.0
  0
SPLINE
  5
1b2
100
AcDbEntity
  8
Layer_1
 62
7
100
AcDbSpline
 70
8
 71
3
 72
8
 73
4
 74
0
 40
0
 40
0
 40
0
 40
0
 40
1
 40
1
 40
1
 40
1
 10
80.512004
 20
101.249595
 30
0.0
 10
80.472959
 20
101.210551
 30
0.0
 10
80.427025
 20
101.178397
 30
0.0
 10
80.374200
 20
101.153133
 30
0.0
  0
SPLINE
  5
1b3
100
AcDbEntity
  8
Layer_1
 62
7
100
AcDbSpline
 70
8
 71
3
 72
8
 73
4
 74
0
 40
0
 40
0
 40
0
 40
0
 40
1
 40
1
 40
1
 40
1
 10
80.374200
 20
101.153133
 30
0.0
 10
80.321376
 20
101.130165
 30
0.0
 10
80.265105
 20
101.118681
 30
0.0
 10
80.205389
 20
101.118681
 30
0.0
  0
LINE
  5
1b4
100
AcDbEntity
  8
Layer_1
 62
7
100
AcDbLine
 10
80.205389
 20
101.118681
 30
0.0
 11
76.457125
 21
101.118681
 31
0.0
  0
SPLINE
  5
1b5
100
AcDbEntity
  8
Layer_1
 62
7
100
AcDbSpline
 70
8
 71
3
 72
8
 73
4
 74
0
 40
0
 40
0
 40
0
 40
0
 40
1
 40
1
 40
1
 40
1
 10
76.457125
 20
101.118681
 30
0.0
 10
76.397411
 20
101.118681
 30
0.0
 10
76.345735
 20
101.098011
 30
0.0
 10
76.302098
 20
101.056670
 30
0.0
  0
SPLINE
  5
1b6
100
AcDbEntity
  8
Layer_1
 62
7
100
AcDbSpline
 70
8
 71
3
 72
8
 73
4
 74
0
 40
0
 40
0
 40
0
 40
0
 40
1
 40
1
 40
1
 40
1
 10
76.302098
 20
101.056670
 30
0.0
 10
76.258458
 20
101.015329
 30
0.0
 10
76.236639
 20
100.962504
 30
0.0
 10
76.236639
 20
100.898195
 30
0.0
  0
LINE
  5
1b7
100
AcDbEntity
  8
Layer_1
 62
7
100
AcDbLine
 10
76.236639
 20
100.898195
 30
0.0
 11
76.236639
 21
99.575279
 31
0.0
  0
SPLINE
  5
1b8
100
AcDbEntity
  8
Layer_1
 62
7
100
AcDbSpline
 70
8
 71
3
 72
8
 73
4
 74
0
 40
0
 40
0
 40
0
 40
0
 40
1
 40
1
 40
1
 40
1
 10
76.236639
 20
99.575279
 30
0.0
 10
76.236639
 20
99.510970
 30
0.0
 10
76.257310
 20
99.458145
 30
0.0
 10
76.298652
 20
99.416804
 30
0.0
  0
SPLINE
  5
1b9
100
AcDbEntity
  8
Layer_1
 62
7
100
AcDbSpline
 70
8
 71
3
 72
8
 73
4
 74
0
 40
0
 40
0
 40
0
 40
0
 40
1
 40
1
 40
1
 40
1
 10
76.298652
 20
99.416804
 30
0.0
 10
76.339993
 20
99.375463
 30
0.0
 10
76.392818
 20
99.354793
 30
0.0
 10
76.457125
 20
99.354793
 30
0.0
  0
LINE
  5
1ba
100
AcDbEntity
  8
Layer_1
 62
7
100
AcDbLine
 10
76.457125
 20
99.354793
 30
0.0
 11
80.425875
 21
99.354793
 31
0.0
  0
SPLINE
  5
1bb
100
AcDbEntity
  8
Layer_1
 62
7
100
AcDbSpline
 70
8
 71
3
 72
8
 73
4
 74
0
 40
0
 40
0
 40
0
 40
0
 40
1
 40
1
 40
1
 40
1
 10
80.425875
 20
99.354793
 30
0.0
 10
80.485591
 20
99.354793
 30
0.0
 10
80.537268
 20
99.332974
 30
0.0
 10
80.580905
 20
99.289336
 30
0.0
  0
SPLINE
  5
1bc
100
AcDbEntity
  8
Layer_1
 62
7
100
AcDbSpline
 70
8
 71
3
 72
8
 73
4
 74
0
 40
0
 40
0
 40
0
 40
0
 40
1
 40
1
 40
1
 40
1
 10
80.580905
 20
99.289336
 30
0.0
 10
80.624543
 20
99.245698
 30
0.0
 10
80.646361
 20
99.194021
 30
0.0
 10
80.646361
 20
99.134306
 30
0.0
  0
LINE
  5
1bd
100
AcDbEntity
  8
Layer_1
 62
7
100
AcDbLine
 10
80.646361
 20
99.134306
 30
0.0
 11
80.646361
 21
98.693334
 31
0.0
  0
SPLINE
  5
1be
100
AcDbEntity
  8
Layer_1
 62
7
100
AcDbSpline
 70
8
 71
3
 72
8
 73
4
 74
0
 40
0
 40
0
 40
0
 40
0
 40
1
 40
1
 40
1
 40
1
 10
80.646361
 20
98.693334
 30
0.0
 10
80.646361
 20
98.633619
 30
0.0
 10
80.625691
 20
98.581943
 30
0.0
 10
80.584351
 20
98.538305
 30
0.0
  0
SPLINE
  5
1bf
100
AcDbEntity
  8
Layer_1
 62
7
100
AcDbSpline
 70
8
 71
3
 72
8
 73
4
 74
0
 40
0
 40
0
 40
0
 40
0
 40
1
 40
1
 40
1
 40
1
 10
80.584351
 20
98.538305
 30
0.0
 10
80.543009
 20
98.494667
 30
0.0
 10
80.490184
 20
98.472848
 30
0.0
 10
80.425875
 20
98.472848
 30
0.0
  0
LINE
  5
1c0
100
AcDbEntity
  8
Layer_1
 62
7
100
AcDbLine
 10
80.425875
 20
98.472848
 30
0.0
 11
75.795667
 21
98.472848
 31
0.0
  0
LINE
  5
1c1
100
AcDbEntity
  8
Layer_1
 62
7
100
AcDbLine
 10
75.795667
 20
98.472848
 30
0.0
 11
75.795667
 21
98.472848
 31
0.0
  0
SPLINE
  5
1c2
100
AcDbEntity
  8
Layer_1
 62
7
100
AcDbSpline
 70
8
 71
3
 72
8
 73
4
 74
0
 40
0
 40
0
 40
0
 40
0
 40
1
 40
1
 40
1
 40
1
 10
94.618833
 20
99.354793
 30
0.0
 10
94.683142
 20
99.354793
 30
0.0
 10
94.735968
 20
99.376612
 30
0.0
 10
94.777310
 20
99.420249
 30
0.0
  0
SPLINE
  5
1c3
100
AcDbEntity
  8
Layer_1
 62
7
100
AcDbSpline
 70
8
 71
3
 72
8
 73
4
 74
0
 40
0
 40
0
 40
0
 40
0
 40
1
 40
1
 40
1
 40
1
 10
94.777310
 20
99.420249
 30
0.0
 10
94.818650
 20
99.463887
 30
0.0
 10
94.839320
 20
99.515564
 30
0.0
 10
94.839320
 20
99.575279
 30
0.0
  0
LINE
  5
1c4
100
AcDbEntity
  8
Layer_1
 62
7
100
AcDbLine
 10
94.839320
 20
99.575279
 30
0.0
 11
94.839320
 21
100.898195
 31
0.0
  0
SPLINE
  5
1c5
100
AcDbEntity
  8
Layer_1
 62
7
100
AcDbSpline
 70
8
 71
3
 72
8
 73
4
 74
0
 40
0
 40
0
 40
0
 40
0
 40
1
 40
1
 40
1
 40
1
 10
94.839320
 20
100.898195
 30
0.0
 10
94.839320
 20
100.957910
 30
0.0
 10
94.817501
 20
101.009587
 30
0.0
 10
94.773864
 20
101.053225
 30
0.0
  0
SPLINE
  5
1c6
100
AcDbEntity
  8
Layer_1
 62
7
100
AcDbSpline
 70
8
 71
3
 72
8
 73
4
 74
0
 40
0
 40
0
 40
0
 40
0
 40
1
 40
1
 40
1
 40
1
 10
94.773864
 20
101.053225
 30
0.0
 10
94.730227
 20
101.096863
 30
0.0
 10
94.678550
 20
101.118681
 30
0.0
 10
94.618833
 20
101.118681
 30
0.0
  0
LINE
  5
1c7
100
AcDbEntity
  8
Layer_1
 62
7
100
AcDbLine
 10
94.618833
 20
101.118681
 30
0.0
 11
93.736889
 21
101.118681
 31
0.0
  0
SPLINE
  5
1c8
100
AcDbEntity
  8
Layer_1
 62
7
100
AcDbSpline
 70
8
 71
3
 72
8
 73
4
 74
0
 40
0
 40
0
 40
0
 40
0
 40
1
 40
1
 40
1
 40
1
 10
93.736889
 20
101.118681
 30
0.0
 10
93.677174
 20
101.118681
 30
0.0
 10
93.625499
 20
101.098011
 30
0.0
 10
93.581861
 20
101.056670
 30
0.0
  0
SPLINE
  5
1c9
100
AcDbEntity
  8
Layer_1
 62
7
100
AcDbSpline
 70
8
 71
3
 72
8
 73
4
 74
0
 40
0
 40
0
 40
0
 40
0
 40
1
 40
1
 40
1
 40
1
 10
93.581861
 20
101.056670
 30
0.0
 10
93.538222
 20
101.015329
 30
0.0
 10
93.516403
 20
100.962504
 30
0.0
 10
93.516403
 20
100.898195
 30
0.0
  0
LINE
  5
1ca
100
AcDbEntity
  8
Layer_1
 62
7
100
AcDbLine
 10
93.516403
 20
100.898195
 30
0.0
 11
93.516403
 21
99.575279
 31
0.0
  0
SPLINE
  5
1cb
100
AcDbEntity
  8
Layer_1
 62
7
100
AcDbSpline
 70
8
 71
3
 72
8
 73
4
 74
0
 40
0
 40
0
 40
0
 40
0
 40
1
 40
1
 40
1
 40
1
 10
93.516403
 20
99.575279
 30
0.0
 10
93.516403
 20
99.510970
 30
0.0
 10
93.537074
 20
99.458145
 30
0.0
 10
93.578416
 20
99.416804
 30
0.0
  0
SPLINE
  5
1cc
100
AcDbEntity
  8
Layer_1
 62
7
100
AcDbSpline
 70
8
 71
3
 72
8
 73
4
 74
0
 40
0
 40
0
 40
0
 40
0
 40
1
 40
1
 40
1
 40
1
 10
93.578416
 20
99.416804
 30
0.0
 10
93.619757
 20
99.375463
 30
0.0
 10
93.672582
 20
99.354793
 30
0.0
 10
93.736889
 20
99.354793
 30
0.0
  0
LINE
  5
1cd
100
AcDbEntity
  8
Layer_1
 62
7
100
AcDbLine
 10
93.736889
 20
99.354793
 30
0.0
 11
94.618833
 21
99.354793
 31
0.0
  0
LINE
  5
1ce
100
AcDbEntity
  8
Layer_1
 62
7
100
AcDbLine
 10
94.618833
 20
99.354793
 30
0.0
 11
94.618833
 21
99.354793
 31
0.0
  0
SPLINE
  5
1cf
100
AcDbEntity
  8
Layer_1
 62
7
100
AcDbSpline
 70
8
 71
3
 72
8
 73
4
 74
0
 40
0
 40
0
 40
0
 40
0
 40
1
 40
1
 40
1
 40
1
 10
96.823695
 20
99.354793
 30
0.0
 10
96.888004
 20
99.354793
 30
0.0
 10
96.940829
 20
99.376612
 30
0.0
 10
96.982171
 20
99.420249
 30
0.0
  0
SPLINE
  5
1d0
100
AcDbEntity
  8
Layer_1
 62
7
100
AcDbSpline
 70
8
 71
3
 72
8
 73
4
 74
0
 40
0
 40
0
 40
0
 40
0
 40
1
 40
1
 40
1
 40
1
 10
96.982171
 20
99.420249
 30
0.0
 10
97.023511
 20
99.463887
 30
0.0
 10
97.044181
 20
99.515564
 30
0.0
 10
97.044181
 20
99.575279
 30
0.0
  0
LINE
  5
1d1
100
AcDbEntity
  8
Layer_1
 62
7
100
AcDbLine
 10
97.044181
 20
99.575279
 30
0.0
 11
97.044181
 21
100.898195
 31
0.0
  0
SPLINE
  5
1d2
100
AcDbEntity
  8
Layer_1
 62
7
100
AcDbSpline
 70
8
 71
3
 72
8
 73
4
 74
0
 40
0
 40
0
 40
0
 40
0
 40
1
 40
1
 40
1
 40
1
 10
97.044181
 20
100.898195
 30
0.0
 10
97.044181
 20
100.957910
 30
0.0
 10
97.022362
 20
101.009587
 30
0.0
 10
96.978725
 20
101.053225
 30
0.0
  0
SPLINE
  5
1d3
100
AcDbEntity
  8
Layer_1
 62
7
100
AcDbSpline
 70
8
 71
3
 72
8
 73
4
 74
0
 40
0
 40
0
 40
0
 40
0
 40
1
 40
1
 40
1
 40
1
 10
96.978725
 20
101.053225
 30
0.0
 10
96.935088
 20
101.096863
 30
0.0
 10
96.883411
 20
101.118681
 30
0.0
 10
96.823695
 20
101.118681
 30
0.0
  0
LINE
  5
1d4
100
AcDbEntity
  8
Layer_1
 62
7
100
AcDbLine
 10
96.823695
 20
101.118681
 30
0.0
 11
95.941750
 21
101.118681
 31
0.0
  0
SPLINE
  5
1d5
100
AcDbEntity
  8
Layer_1
 62
7
100
AcDbSpline
 70
8
 71
3
 72
8
 73
4
 74
0
 40
0
 40
0
 40
0
 40
0
 40
1
 40
1
 40
1
 40
1
 10
95.941750
 20
101.118681
 30
0.0
 10
95.882036
 20
101.118681
 30
0.0
 10
95.830360
 20
101.098011
 30
0.0
 10
95.786723
 20
101.056670
 30
0.0
  0
SPLINE
  5
1d6
100
AcDbEntity
  8
Layer_1
 62
7
100
AcDbSpline
 70
8
 71
3
 72
8
 73
4
 74
0
 40
0
 40
0
 40
0
 40
0
 40
1
 40
1
 40
1
 40
1
 10
95.786723
 20
101.056670
 30
0.0
 10
95.743083
 20
101.015329
 30
0.0
 10
95.721264
 20
100.962504
 30
0.0
 10
95.721264
 20
100.898195
 30
0.0
  0
LINE
  5
1d7
100
AcDbEntity
  8
Layer_1
 62
7
100
AcDbLine
 10
95.721264
 20
100.898195
 30
0.0
 11
95.721264
 21
99.575279
 31
0.0
  0
SPLINE
  5
1d8
100
AcDbEntity
  8
Layer_1
 62
7
100
AcDbSpline
 70
8
 71
3
 72
8
 73
4
 74
0
 40
0
 40
0
 40
0
 40
0
 40
1
 40
1
 40
1
 40
1
 10
95.721264
 20
99.575279
 30
0.0
 10
95.721264
 20
99.510970
 30
0.0
 10
95.741935
 20
99.458145
 30
0.0
 10
95.783277
 20
99.416804
 30
0.0
  0
SPLINE
  5
1d9
100
AcDbEntity
  8
Layer_1
 62
7
100
AcDbSpline
 70
8
 71
3
 72
8
 73
4
 74
0
 40
0
 40
0
 40
0
 40
0
 40
1
 40
1
 40
1
 40
1
 10
95.783277
 20
99.416804
 30
0.0
 10
95.824618
 20
99.375463
 30
0.0
 10
95.877443
 20
99.354793
 30
0.0
 10
95.941750
 20
99.354793
 30
0.0
  0
LINE
  5
1da
100
AcDbEntity
  8
Layer_1
 62
7
100
AcDbLine
 10
95.941750
 20
99.354793
 30
0.0
 11
96.823695
 21
99.354793
 31
0.0
  0
LINE
  5
1db
100
AcDbEntity
  8
Layer_1
 62
7
100
AcDbLine
 10
96.823695
 20
99.354793
 30
0.0
 11
96.823695
 21
99.354793
 31
0.0
  0
SPLINE
  5
1dc
100
AcDbEntity
  8
Layer_1
 62
7
100
AcDbSpline
 70
8
 71
3
 72
8
 73
4
 74
0
 40
0
 40
0
 40
0
 40
0
 40
1
 40
1
 40
1
 40
1
 10
94.618833
 20
102.000626
 30
0.0
 10
94.683142
 20
102.000626
 30
0.0
 10
94.735968
 20
102.022445
 30
0.0
 10
94.777310
 20
102.066083
 30
0.0
  0
SPLINE
  5
1dd
100
AcDbEntity
  8
Layer_1
 62
7
100
AcDbSpline
 70
8
 71
3
 72
8
 73
4
 74
0
 40
0
 40
0
 40
0
 40
0
 40
1
 40
1
 40
1
 40
1
 10
94.777310
 20
102.066083
 30
0.0
 10
94.818650
 20
102.109721
 30
0.0
 10
94.839320
 20
102.161397
 30
0.0
 10
94.839320
 20
102.221112
 30
0.0
  0
LINE
  5
1de
100
AcDbEntity
  8
Layer_1
 62
7
100
AcDbLine
 10
94.839320
 20
102.221112
 30
0.0
 11
94.839320
 21
103.544029
 31
0.0
  0
SPLINE
  5
1df
100
AcDbEntity
  8
Layer_1
 62
7
100
AcDbSpline
 70
8
 71
3
 72
8
 73
4
 74
0
 40
0
 40
0
 40
0
 40
0
 40
1
 40
1
 40
1
 40
1
 10
94.839320
 20
103.544029
 30
0.0
 10
94.839320
 20
103.603744
 30
0.0
 10
94.817501
 20
103.655420
 30
0.0
 10
94.773864
 20
103.699058
 30
0.0
  0
SPLINE
  5
1e0
100
AcDbEntity
  8
Layer_1
 62
7
100
AcDbSpline
 70
8
 71
3
 72
8
 73
4
 74
0
 40
0
 40
0
 40
0
 40
0
 40
1
 40
1
 40
1
 40
1
 10
94.773864
 20
103.699058
 30
0.0
 10
94.730227
 20
103.742696
 30
0.0
 10
94.678550
 20
103.764515
 30
0.0
 10
94.618833
 20
103.764515
 30
0.0
  0
LINE
  5
1e1
100
AcDbEntity
  8
Layer_1
 62
7
100
AcDbLine
 10
94.618833
 20
103.764515
 30
0.0
 11
93.736889
 21
103.764515
 31
0.0
  0
SPLINE
  5
1e2
100
AcDbEntity
  8
Layer_1
 62
7
100
AcDbSpline
 70
8
 71
3
 72
8
 73
4
 74
0
 40
0
 40
0
 40
0
 40
0
 40
1
 40
1
 40
1
 40
1
 10
93.736889
 20
103.764515
 30
0.0
 10
93.677174
 20
103.764515
 30
0.0
 10
93.625499
 20
103.743844
 30
0.0
 10
93.581861
 20
103.702503
 30
0.0
  0
SPLINE
  5
1e3
100
AcDbEntity
  8
Layer_1
 62
7
100
AcDbSpline
 70
8
 71
3
 72
8
 73
4
 74
0
 40
0
 40
0
 40
0
 40
0
 40
1
 40
1
 40
1
 40
1
 10
93.581861
 20
103.702503
 30
0.0
 10
93.538222
 20
103.661162
 30
0.0
 10
93.516403
 20
103.608337
 30
0.0
 10
93.516403
 20
103.544029
 30
0.0
  0
LINE
  5
1e4
100
AcDbEntity
  8
Layer_1
 62
7
100
AcDbLine
 10
93.516403
 20
103.544029
 30
0.0
 11
93.516403
 21
102.221112
 31
0.0
  0
SPLINE
  5
1e5
100
AcDbEntity
  8
Layer_1
 62
7
100
AcDbSpline
 70
8
 71
3
 72
8
 73
4
 74
0
 40
0
 40
0
 40
0
 40
0
 40
1
 40
1
 40
1
 40
1
 10
93.516403
 20
102.221112
 30
0.0
 10
93.516403
 20
102.156804
 30
0.0
 10
93.537074
 20
102.103979
 30
0.0
 10
93.578416
 20
102.062638
 30
0.0
  0
SPLINE
  5
1e6
100
AcDbEntity
  8
Layer_1
 62
7
100
AcDbSpline
 70
8
 71
3
 72
8
 73
4
 74
0
 40
0
 40
0
 40
0
 40
0
 40
1
 40
1
 40
1
 40
1
 10
93.578416
 20
102.062638
 30
0.0
 10
93.619757
 20
102.021296
 30
0.0
 10
93.672582
 20
102.000626
 30
0.0
 10
93.736889
 20
102.000626
 30
0.0
  0
LINE
  5
1e7
100
AcDbEntity
  8
Layer_1
 62
7
100
AcDbLine
 10
93.736889
 20
102.000626
 30
0.0
 11
94.618833
 21
102.000626
 31
0.0
  0
LINE
  5
1e8
100
AcDbEntity
  8
Layer_1
 62
7
100
AcDbLine
 10
94.618833
 20
102.000626
 30
0.0
 11
94.618833
 21
102.000626
 31
0.0
  0
SPLINE
  5
1e9
100
AcDbEntity
  8
Layer_1
 62
7
100
AcDbSpline
 70
8
 71
3
 72
8
 73
4
 74
0
 40
0
 40
0
 40
0
 40
0
 40
1
 40
1
 40
1
 40
1
 10
96.823695
 20
102.000626
 30
0.0
 10
96.888004
 20
102.000626
 30
0.0
 10
96.940829
 20
102.022445
 30
0.0
 10
96.982171
 20
102.066083
 30
0.0
  0
SPLINE
  5
1ea
100
AcDbEntity
  8
Layer_1
 62
7
100
AcDbSpline
 70
8
 71
3
 72
8
 73
4
 74
0
 40
0
 40
0
 40
0
 40
0
 40
1
 40
1
 40
1
 40
1
 10
96.982171
 20
102.066083
 30
0.0
 10
97.023511
 20
102.109721
 30
0.0
 10
97.044181
 20
102.161397
 30
0.0
 10
97.044181
 20
102.221112
 30
0.0
  0
LINE
  5
1eb
100
AcDbEntity
  8
Layer_1
 62
7
100
AcDbLine
 10
97.044181
 20
102.221112
 30
0.0
 11
97.044181
 21
103.544029
 31
0.0
  0
SPLINE
  5
1ec
100
AcDbEntity
  8
Layer_1
 62
7
100
AcDbSpline
 70
8
 71
3
 72
8
 73
4
 74
0
 40
0
 40
0
 40
0
 40
0
 40
1
 40
1
 40
1
 40
1
 10
97.044181
 20
103.544029
 30
0.0
 10
97.044181
 20
103.603744
 30
0.0
 10
97.022362
 20
103.655420
 30
0.0
 10
96.978725
 20
103.699058
 30
0.0
  0
SPLINE
  5
1ed
100
AcDbEntity
  8
Layer_1
 62
7
100
AcDbSpline
 70
8
 71
3
 72
8
 73
4
 74
0
 40
0
 40
0
 40
0
 40
0
 40
1
 40
1
 40
1
 40
1
 10
96.978725
 20
103.699058
 30
0.0
 10
96.935088
 20
103.742696
 30
0.0
 10
96.883411
 20
103.764515
 30
0.0
 10
96.823695
 20
103.764515
 30
0.0
  0
LINE
  5
1ee
100
AcDbEntity
  8
Layer_1
 62
7
100
AcDbLine
 10
96.823695
 20
103.764515
 30
0.0
 11
95.941750
 21
103.764515
 31
0.0
  0
SPLINE
  5
1ef
100
AcDbEntity
  8
Layer_1
 62
7
100
AcDbSpline
 70
8
 71
3
 72
8
 73
4
 74
0
 40
0
 40
0
 40
0
 40
0
 40
1
 40
1
 40
1
 40
1
 10
95.941750
 20
103.764515
 30
0.0
 10
95.882036
 20
103.764515
 30
0.0
 10
95.830360
 20
103.743844
 30
0.0
 10
95.786723
 20
103.702503
 30
0.0
  0
SPLINE
  5
1f0
100
AcDbEntity
  8
Layer_1
 62
7
100
AcDbSpline
 70
8
 71
3
 72
8
 73
4
 74
0
 40
0
 40
0
 40
0
 40
0
 40
1
 40
1
 40
1
 40
1
 10
95.786723
 20
103.702503
 30
0.0
 10
95.743083
 20
103.661162
 30
0.0
 10
95.721264
 20
103.608337
 30
0.0
 10
95.721264
 20
103.544029
 30
0.0
  0
LINE
  5
1f1
100
AcDbEntity
  8
Layer_1
 62
7
100
AcDbLine
 10
95.721264
 20
103.544029
 30
0.0
 11
95.721264
 21
102.221112
 31
0.0
  0
SPLINE
  5
1f2
100
AcDbEntity
  8
Layer_1
 62
7
100
AcDbSpline
 70
8
 71
3
 72
8
 73
4
 74
0
 40
0
 40
0
 40
0
 40
0
 40
1
 40
1
 40
1
 40
1
 10
95.721264
 20
102.221112
 30
0.0
 10
95.721264
 20
102.156804
 30
0.0
 10
95.741935
 20
102.103979
 30
0.0
 10
95.783277
 20
102.062638
 30
0.0
  0
SPLINE
  5
1f3
100
AcDbEntity
  8
Layer_1
 62
7
100
AcDbSpline
 70
8
 71
3
 72
8
 73
4
 74
0
 40
0
 40
0
 40
0
 40
0
 40
1
 40
1
 40
1
 40
1
 10
95.783277
 20
102.062638
 30
0.0
 10
95.824618
 20
102.021296
 30
0.0
 10
95.877443
 20
102.000626
 30
0.0
 10
95.941750
 20
102.000626
 30
0.0
  0
LINE
  5
1f4
100
AcDbEntity
  8
Layer_1
 62
7
100
AcDbLine
 10
95.941750
 20
102.000626
 30
0.0
 11
96.823695
 21
102.000626
 31
0.0
  0
LINE
  5
1f5
100
AcDbEntity
  8
Layer_1
 62
7
100
AcDbLine
 10
96.823695
 20
102.000626
 30
0.0
 11
96.823695
 21
102.000626
 31
0.0
  0
SPLINE
  5
1f6
100
AcDbEntity
  8
Layer_1
 62
7
100
AcDbSpline
 70
8
 71
3
 72
8
 73
4
 74
0
 40
0
 40
0
 40
0
 40
0
 40
1
 40
1
 40
1
 40
1
 10
93.075431
 20
98.472848
 30
0.0
 10
93.013419
 20
98.472848
 30
0.0
 10
92.954852
 20
98.484332
 30
0.0
 10
92.899730
 20
98.507299
 30
0.0
  0
SPLINE
  5
1f7
100
AcDbEntity
  8
Layer_1
 62
7
100
AcDbSpline
 70
8
 71
3
 72
8
 73
4
 74
0
 40
0
 40
0
 40
0
 40
0
 40
1
 40
1
 40
1
 40
1
 10
92.899730
 20
98.507299
 30
0.0
 10
92.846906
 20
98.530267
 30
0.0
 10
92.800971
 20
98.561272
 30
0.0
 10
92.761927
 20
98.600317
 30
0.0
  0
SPLINE
  5
1f8
100
AcDbEntity
  8
Layer_1
 62
7
100
AcDbSpline
 70
8
 71
3
 72
8
 73
4
 74
0
 40
0
 40
0
 40
0
 40
0
 40
1
 40
1
 40
1
 40
1
 10
92.761927
 20
98.600317
 30
0.0
 10
92.722882
 20
98.639361
 30
0.0
 10
92.691877
 20
98.685296
 30
0.0
 10
92.668909
 20
98.738121
 30
0.0
  0
SPLINE
  5
1f9
100
AcDbEntity
  8
Layer_1
 62
7
100
AcDbSpline
 70
8
 71
3
 72
8
 73
4
 74
0
 40
0
 40
0
 40
0
 40
0
 40
1
 40
1
 40
1
 40
1
 10
92.668909
 20
98.738121
 30
0.0
 10
92.645942
 20
98.793242
 30
0.0
 10
92.634458
 20
98.851809
 30
0.0
 10
92.634458
 20
98.913820
 30
0.0
  0
LINE
  5
1fa
100
AcDbEntity
  8
Layer_1
 62
7
100
AcDbLine
 10
92.634458
 20
98.913820
 30
0.0
 11
92.634458
 21
104.205487
 31
0.0
  0
SPLINE
  5
1fb
100
AcDbEntity
  8
Layer_1
 62
7
100
AcDbSpline
 70
8
 71
3
 72
8
 73
4
 74
0
 40
0
 40
0
 40
0
 40
0
 40
1
 40
1
 40
1
 40
1
 10
92.634458
 20
104.205487
 30
0.0
 10
92.634458
 20
104.265202
 30
0.0
 10
92.645942
 20
104.321472
 30
0.0
 10
92.668909
 20
104.374297
 30
0.0
  0
SPLINE
  5
1fc
100
AcDbEntity
  8
Layer_1
 62
7
100
AcDbSpline
 70
8
 71
3
 72
8
 73
4
 74
0
 40
0
 40
0
 40
0
 40
0
 40
1
 40
1
 40
1
 40
1
 10
92.668909
 20
104.374297
 30
0.0
 10
92.694174
 20
104.427122
 30
0.0
 10
92.726328
 20
104.473056
 30
0.0
 10
92.765373
 20
104.512101
 30
0.0
  0
SPLINE
  5
1fd
100
AcDbEntity
  8
Layer_1
 62
7
100
AcDbSpline
 70
8
 71
3
 72
8
 73
4
 74
0
 40
0
 40
0
 40
0
 40
0
 40
1
 40
1
 40
1
 40
1
 10
92.765373
 20
104.512101
 30
0.0
 10
92.806715
 20
104.553442
 30
0.0
 10
92.853798
 20
104.585596
 30
0.0
 10
92.906622
 20
104.608563
 30
0.0
  0
SPLINE
  5
1fe
100
AcDbEntity
  8
Layer_1
 62
7
100
AcDbSpline
 70
8
 71
3
 72
8
 73
4
 74
0
 40
0
 40
0
 40
0
 40
0
 40
1
 40
1
 40
1
 40
1
 10
92.906622
 20
104.608563
 30
0.0
 10
92.959447
 20
104.633827
 30
0.0
 10
93.015716
 20
104.646459
 30
0.0
 10
93.075431
 20
104.646459
 30
0.0
  0
LINE
  5
1ff
100
AcDbEntity
  8
Layer_1
 62
7
100
AcDbLine
 10
93.075431
 20
104.646459
 30
0.0
 11
97.485153
 21
104.646459
 31
0.0
  0
SPLINE
  5
200
100
AcDbEntity
  8
Layer_1
 62
7
100
AcDbSpline
 70
8
 71
3
 72
8
 73
4
 74
0
 40
0
 40
0
 40
0
 40
0
 40
1
 40
1
 40
1
 40
1
 10
97.485153
 20
104.646459
 30
0.0
 10
97.544869
 20
104.646459
 30
0.0
 10
97.601140
 20
104.633827
 30
0.0
 10
97.653964
 20
104.608563
 30
0.0
  0
SPLINE
  5
201
100
AcDbEntity
  8
Layer_1
 62
7
100
AcDbSpline
 70
8
 71
3
 72
8
 73
4
 74
0
 40
0
 40
0
 40
0
 40
0
 40
1
 40
1
 40
1
 40
1
 10
97.653964
 20
104.608563
 30
0.0
 10
97.706789
 20
104.585596
 30
0.0
 10
97.752723
 20
104.553442
 30
0.0
 10
97.791768
 20
104.512101
 30
0.0
  0
SPLINE
  5
202
100
AcDbEntity
  8
Layer_1
 62
7
100
AcDbSpline
 70
8
 71
3
 72
8
 73
4
 74
0
 40
0
 40
0
 40
0
 40
0
 40
1
 40
1
 40
1
 40
1
 10
97.791768
 20
104.512101
 30
0.0
 10
97.833109
 20
104.473056
 30
0.0
 10
97.865264
 20
104.427122
 30
0.0
 10
97.888231
 20
104.374297
 30
0.0
  0
SPLINE
  5
203
100
AcDbEntity
  8
Layer_1
 62
7
100
AcDbSpline
 70
8
 71
3
 72
8
 73
4
 74
0
 40
0
 40
0
 40
0
 40
0
 40
1
 40
1
 40
1
 40
1
 10
97.888231
 20
104.374297
 30
0.0
 10
97.913494
 20
104.321472
 30
0.0
 10
97.926125
 20
104.265202
 30
0.0
 10
97.926125
 20
104.205487
 30
0.0
  0
LINE
  5
204
100
AcDbEntity
  8
Layer_1
 62
7
100
AcDbLine
 10
97.926125
 20
104.205487
 30
0.0
 11
97.926125
 21
98.913820
 31
0.0
  0
SPLINE
  5
205
100
AcDbEntity
  8
Layer_1
 62
7
100
AcDbSpline
 70
8
 71
3
 72
8
 73
4
 74
0
 40
0
 40
0
 40
0
 40
0
 40
1
 40
1
 40
1
 40
1
 10
97.926125
 20
98.913820
 30
0.0
 10
97.926125
 20
98.854105
 30
0.0
 10
97.913494
 20
98.797836
 30
0.0
 10
97.888231
 20
98.745011
 30
0.0
  0
SPLINE
  5
206
100
AcDbEntity
  8
Layer_1
 62
7
100
AcDbSpline
 70
8
 71
3
 72
8
 73
4
 74
0
 40
0
 40
0
 40
0
 40
0
 40
1
 40
1
 40
1
 40
1
 10
97.888231
 20
98.745011
 30
0.0
 10
97.865264
 20
98.692186
 30
0.0
 10
97.833109
 20
98.645103
 30
0.0
 10
97.791768
 20
98.603762
 30
0.0
  0
SPLINE
  5
207
100
AcDbEntity
  8
Layer_1
 62
7
100
AcDbSpline
 70
8
 71
3
 72
8
 73
4
 74
0
 40
0
 40
0
 40
0
 40
0
 40
1
 40
1
 40
1
 40
1
 10
97.791768
 20
98.603762
 30
0.0
 10
97.752723
 20
98.564717
 30
0.0
 10
97.706789
 20
98.532563
 30
0.0
 10
97.653964
 20
98.507299
 30
0.0
  0
SPLINE
  5
208
100
AcDbEntity
  8
Layer_1
 62
7
100
AcDbSpline
 70
8
 71
3
 72
8
 73
4
 74
0
 40
0
 40
0
 40
0
 40
0
 40
1
 40
1
 40
1
 40
1
 10
97.653964
 20
98.507299
 30
0.0
 10
97.601140
 20
98.484332
 30
0.0
 10
97.544869
 20
98.472848
 30
0.0
 10
97.485153
 20
98.472848
 30
0.0
  0
LINE
  5
209
100
AcDbEntity
  8
Layer_1
 62
7
100
AcDbLine
 10
97.485153
 20
98.472848
 30
0.0
 11
93.075431
 21
98.472848
 31
0.0
  0
LINE
  5
20a
100
AcDbEntity
  8
Layer_1
 62
7
100
AcDbLine
 10
93.075431
 20
98.472848
 30
0.0
 11
93.075431
 21
98.472848
 31
0.0
  0
SPLINE
  5
20b
100
AcDbEntity
  8
Layer_1
 62
7
100
AcDbSpline
 70
8
 71
3
 72
8
 73
4
 74
0
 40
0
 40
0
 40
0
 40
0
 40
1
 40
1
 40
1
 40
1
 10
112.560056
 20
98.472848
 30
0.0
 10
112.498044
 20
98.472848
 30
0.0
 10
112.439477
 20
98.484332
 30
0.0
 10
112.384355
 20
98.507299
 30
0.0
  0
SPLINE
  5
20c
100
AcDbEntity
  8
Layer_1
 62
7
100
AcDbSpline
 70
8
 71
3
 72
8
 73
4
 74
0
 40
0
 40
0
 40
0
 40
0
 40
1
 40
1
 40
1
 40
1
 10
112.384355
 20
98.507299
 30
0.0
 10
112.331531
 20
98.530267
 30
0.0
 10
112.285596
 20
98.561272
 30
0.0
 10
112.246552
 20
98.600317
 30
0.0
  0
SPLINE
  5
20d
100
AcDbEntity
  8
Layer_1
 62
7
100
AcDbSpline
 70
8
 71
3
 72
8
 73
4
 74
0
 40
0
 40
0
 40
0
 40
0
 40
1
 40
1
 40
1
 40
1
 10
112.246552
 20
98.600317
 30
0.0
 10
112.207507
 20
98.639361
 30
0.0
 10
112.176502
 20
98.685296
 30
0.0
 10
112.153534
 20
98.738121
 30
0.0
  0
SPLINE
  5
20e
100
AcDbEntity
  8
Layer_1
 62
7
100
AcDbSpline
 70
8
 71
3
 72
8
 73
4
 74
0
 40
0
 40
0
 40
0
 40
0
 40
1
 40
1
 40
1
 40
1
 10
112.153534
 20
98.738121
 30
0.0
 10
112.130567
 20
98.793242
 30
0.0
 10
112.119083
 20
98.851809
 30
0.0
 10
112.119083
 20
98.913820
 30
0.0
  0
LINE
  5
20f
100
AcDbEntity
  8
Layer_1
 62
7
100
AcDbLine
 10
112.119083
 20
98.913820
 30
0.0
 11
112.119083
 21
103.544029
 31
0.0
  0
SPLINE
  5
210
100
AcDbEntity
  8
Layer_1
 62
7
100
AcDbSpline
 70
8
 71
3
 72
8
 73
4
 74
0
 40
0
 40
0
 40
0
 40
0
 40
1
 40
1
 40
1
 40
1
 10
112.119083
 20
103.544029
 30
0.0
 10
112.119083
 20
103.603744
 30
0.0
 10
112.097265
 20
103.655420
 30
0.0
 10
112.053628
 20
103.699058
 30
0.0
  0
SPLINE
  5
211
100
AcDbEntity
  8
Layer_1
 62
7
100
AcDbSpline
 70
8
 71
3
 72
8
 73
4
 74
0
 40
0
 40
0
 40
0
 40
0
 40
1
 40
1
 40
1
 40
1
 10
112.053628
 20
103.699058
 30
0.0
 10
112.009989
 20
103.742696
 30
0.0
 10
111.958312
 20
103.764515
 30
0.0
 10
111.898597
 20
103.764515
 30
0.0
  0
LINE
  5
212
100
AcDbEntity
  8
Layer_1
 62
7
100
AcDbLine
 10
111.898597
 20
103.764515
 30
0.0
 11
111.016653
 21
103.764515
 31
0.0
  0
SPLINE
  5
213
100
AcDbEntity
  8
Layer_1
 62
7
100
AcDbSpline
 70
8
 71
3
 72
8
 73
4
 74
0
 40
0
 40
0
 40
0
 40
0
 40
1
 40
1
 40
1
 40
1
 10
111.016653
 20
103.764515
 30
0.0
 10
110.956938
 20
103.764515
 30
0.0
 10
110.905262
 20
103.743844
 30
0.0
 10
110.861623
 20
103.702503
 30
0.0
  0
SPLINE
  5
214
100
AcDbEntity
  8
Layer_1
 62
7
100
AcDbSpline
 70
8
 71
3
 72
8
 73
4
 74
0
 40
0
 40
0
 40
0
 40
0
 40
1
 40
1
 40
1
 40
1
 10
110.861623
 20
103.702503
 30
0.0
 10
110.817985
 20
103.661162
 30
0.0
 10
110.796167
 20
103.608337
 30
0.0
 10
110.796167
 20
103.544029
 30
0.0
  0
LINE
  5
215
100
AcDbEntity
  8
Layer_1
 62
7
100
AcDbLine
 10
110.796167
 20
103.544029
 30
0.0
 11
110.796167
 21
101.339168
 31
0.0
  0
SPLINE
  5
216
100
AcDbEntity
  8
Layer_1
 62
7
100
AcDbSpline
 70
8
 71
3
 72
8
 73
4
 74
0
 40
0
 40
0
 40
0
 40
0
 40
1
 40
1
 40
1
 40
1
 10
110.796167
 20
101.339168
 30
0.0
 10
110.796167
 20
101.279453
 30
0.0
 10
110.775496
 20
101.227776
 30
0.0
 10
110.734154
 20
101.184138
 30
0.0
  0
SPLINE
  5
217
100
AcDbEntity
  8
Layer_1
 62
7
100
AcDbSpline
 70
8
 71
3
 72
8
 73
4
 74
0
 40
0
 40
0
 40
0
 40
0
 40
1
 40
1
 40
1
 40
1
 10
110.734154
 20
101.184138
 30
0.0
 10
110.692814
 20
101.140500
 30
0.0
 10
110.639990
 20
101.118681
 30
0.0
 10
110.575681
 20
101.118681
 30
0.0
  0
LINE
  5
218
100
AcDbEntity
  8
Layer_1
 62
7
100
AcDbLine
 10
110.575681
 20
101.118681
 30
0.0
 11
110.134708
 21
101.118681
 31
0.0
  0
SPLINE
  5
219
100
AcDbEntity
  8
Layer_1
 62
7
100
AcDbSpline
 70
8
 71
3
 72
8
 73
4
 74
0
 40
0
 40
0
 40
0
 40
0
 40
1
 40
1
 40
1
 40
1
 10
110.134708
 20
101.118681
 30
0.0
 10
110.070399
 20
101.118681
 30
0.0
 10
110.017575
 20
101.139352
 30
0.0
 10
109.976235
 20
101.180693
 30
0.0
  0
SPLINE
  5
21a
100
AcDbEntity
  8
Layer_1
 62
7
100
AcDbSpline
 70
8
 71
3
 72
8
 73
4
 74
0
 40
0
 40
0
 40
0
 40
0
 40
1
 40
1
 40
1
 40
1
 10
109.976235
 20
101.180693
 30
0.0
 10
109.934893
 20
101.222034
 30
0.0
 10
109.914222
 20
101.274859
 30
0.0
 10
109.914222
 20
101.339168
 30
0.0
  0
LINE
  5
21b
100
AcDbEntity
  8
Layer_1
 62
7
100
AcDbLine
 10
109.914222
 20
101.339168
 30
0.0
 11
109.914222
 21
104.205487
 31
0.0
  0
SPLINE
  5
21c
100
AcDbEntity
  8
Layer_1
 62
7
100
AcDbSpline
 70
8
 71
3
 72
8
 73
4
 74
0
 40
0
 40
0
 40
0
 40
0
 40
1
 40
1
 40
1
 40
1
 10
109.914222
 20
104.205487
 30
0.0
 10
109.914222
 20
104.265202
 30
0.0
 10
109.925706
 20
104.321472
 30
0.0
 10
109.948673
 20
104.374297
 30
0.0
  0
SPLINE
  5
21d
100
AcDbEntity
  8
Layer_1
 62
7
100
AcDbSpline
 70
8
 71
3
 72
8
 73
4
 74
0
 40
0
 40
0
 40
0
 40
0
 40
1
 40
1
 40
1
 40
1
 10
109.948673
 20
104.374297
 30
0.0
 10
109.973938
 20
104.427122
 30
0.0
 10
110.006092
 20
104.473056
 30
0.0
 10
110.045137
 20
104.512101
 30
0.0
  0
SPLINE
  5
21e
100
AcDbEntity
  8
Layer_1
 62
7
100
AcDbSpline
 70
8
 71
3
 72
8
 73
4
 74
0
 40
0
 40
0
 40
0
 40
0
 40
1
 40
1
 40
1
 40
1
 10
110.045137
 20
104.512101
 30
0.0
 10
110.086479
 20
104.553442
 30
0.0
 10
110.133562
 20
104.585596
 30
0.0
 10
110.186386
 20
104.608563
 30
0.0
  0
SPLINE
  5
21f
100
AcDbEntity
  8
Layer_1
 62
7
100
AcDbSpline
 70
8
 71
3
 72
8
 73
4
 74
0
 40
0
 40
0
 40
0
 40
0
 40
1
 40
1
 40
1
 40
1
 10
110.186386
 20
104.608563
 30
0.0
 10
110.239211
 20
104.633827
 30
0.0
 10
110.295480
 20
104.646459
 30
0.0
 10
110.355195
 20
104.646459
 30
0.0
  0
LINE
  5
220
100
AcDbEntity
  8
Layer_1
 62
7
100
AcDbLine
 10
110.355195
 20
104.646459
 30
0.0
 11
112.560056
 21
104.646459
 31
0.0
  0
SPLINE
  5
221
100
AcDbEntity
  8
Layer_1
 62
7
100
AcDbSpline
 70
8
 71
3
 72
8
 73
4
 74
0
 40
0
 40
0
 40
0
 40
0
 40
1
 40
1
 40
1
 40
1
 10
112.560056
 20
104.646459
 30
0.0
 10
112.619770
 20
104.646459
 30
0.0
 10
112.676041
 20
104.633827
 30
0.0
 10
112.728867
 20
104.608563
 30
0.0
  0
SPLINE
  5
222
100
AcDbEntity
  8
Layer_1
 62
7
100
AcDbSpline
 70
8
 71
3
 72
8
 73
4
 74
0
 40
0
 40
0
 40
0
 40
0
 40
1
 40
1
 40
1
 40
1
 10
112.728867
 20
104.608563
 30
0.0
 10
112.781691
 20
104.585596
 30
0.0
 10
112.827626
 20
104.553442
 30
0.0
 10
112.866670
 20
104.512101
 30
0.0
  0
SPLINE
  5
223
100
AcDbEntity
  8
Layer_1
 62
7
100
AcDbSpline
 70
8
 71
3
 72
8
 73
4
 74
0
 40
0
 40
0
 40
0
 40
0
 40
1
 40
1
 40
1
 40
1
 10
112.866670
 20
104.512101
 30
0.0
 10
112.908010
 20
104.473056
 30
0.0
 10
112.940164
 20
104.427122
 30
0.0
 10
112.963131
 20
104.374297
 30
0.0
  0
SPLINE
  5
224
100
AcDbEntity
  8
Layer_1
 62
7
100
AcDbSpline
 70
8
 71
3
 72
8
 73
4
 74
0
 40
0
 40
0
 40
0
 40
0
 40
1
 40
1
 40
1
 40
1
 10
112.963131
 20
104.374297
 30
0.0
 10
112.988396
 20
104.321472
 30
0.0
 10
113.001028
 20
104.265202
 30
0.0
 10
113.001028
 20
104.205487
 30
0.0
  0
LINE
  5
225
100
AcDbEntity
  8
Layer_1
 62
7
100
AcDbLine
 10
113.001028
 20
104.205487
 30
0.0
 11
113.001028
 21
99.575279
 31
0.0
  0
SPLINE
  5
226
100
AcDbEntity
  8
Layer_1
 62
7
100
AcDbSpline
 70
8
 71
3
 72
8
 73
4
 74
0
 40
0
 40
0
 40
0
 40
0
 40
1
 40
1
 40
1
 40
1
 10
113.001028
 20
99.575279
 30
0.0
 10
113.001028
 20
99.510970
 30
0.0
 10
113.021699
 20
99.458145
 30
0.0
 10
113.063041
 20
99.416804
 30
0.0
  0
SPLINE
  5
227
100
AcDbEntity
  8
Layer_1
 62
7
100
AcDbSpline
 70
8
 71
3
 72
8
 73
4
 74
0
 40
0
 40
0
 40
0
 40
0
 40
1
 40
1
 40
1
 40
1
 10
113.063041
 20
99.416804
 30
0.0
 10
113.104380
 20
99.375463
 30
0.0
 10
113.157205
 20
99.354793
 30
0.0
 10
113.221514
 20
99.354793
 30
0.0
  0
LINE
  5
228
100
AcDbEntity
  8
Layer_1
 62
7
100
AcDbLine
 10
113.221514
 20
99.354793
 30
0.0
 11
114.103458
 21
99.354793
 31
0.0
  0
SPLINE
  5
229
100
AcDbEntity
  8
Layer_1
 62
7
100
AcDbSpline
 70
8
 71
3
 72
8
 73
4
 74
0
 40
0
 40
0
 40
0
 40
0
 40
1
 40
1
 40
1
 40
1
 10
114.103458
 20
99.354793
 30
0.0
 10
114.167767
 20
99.354793
 30
0.0
 10
114.220592
 20
99.376612
 30
0.0
 10
114.261932
 20
99.420249
 30
0.0
  0
SPLINE
  5
22a
100
AcDbEntity
  8
Layer_1
 62
7
100
AcDbSpline
 70
8
 71
3
 72
8
 73
4
 74
0
 40
0
 40
0
 40
0
 40
0
 40
1
 40
1
 40
1
 40
1
 10
114.261932
 20
99.420249
 30
0.0
 10
114.303274
 20
99.463887
 30
0.0
 10
114.323945
 20
99.515564
 30
0.0
 10
114.323945
 20
99.575279
 30
0.0
  0
LINE
  5
22b
100
AcDbEntity
  8
Layer_1
 62
7
100
AcDbLine
 10
114.323945
 20
99.575279
 30
0.0
 11
114.323945
 21
101.780140
 31
0.0
  0
SPLINE
  5
22c
100
AcDbEntity
  8
Layer_1
 62
7
100
AcDbSpline
 70
8
 71
3
 72
8
 73
4
 74
0
 40
0
 40
0
 40
0
 40
0
 40
1
 40
1
 40
1
 40
1
 10
114.323945
 20
101.780140
 30
0.0
 10
114.323945
 20
101.844448
 30
0.0
 10
114.345763
 20
101.897273
 30
0.0
 10
114.389400
 20
101.938614
 30
0.0
  0
SPLINE
  5
22d
100
AcDbEntity
  8
Layer_1
 62
7
100
AcDbSpline
 70
8
 71
3
 72
8
 73
4
 74
0
 40
0
 40
0
 40
0
 40
0
 40
1
 40
1
 40
1
 40
1
 10
114.389400
 20
101.938614
 30
0.0
 10
114.433039
 20
101.979955
 30
0.0
 10
114.484716
 20
102.000626
 30
0.0
 10
114.544431
 20
102.000626
 30
0.0
  0
LINE
  5
22e
100
AcDbEntity
  8
Layer_1
 62
7
100
AcDbLine
 10
114.544431
 20
102.000626
 30
0.0
 11
114.985403
 21
102.000626
 31
0.0
  0
SPLINE
  5
22f
100
AcDbEntity
  8
Layer_1
 62
7
100
AcDbSpline
 70
8
 71
3
 72
8
 73
4
 74
0
 40
0
 40
0
 40
0
 40
0
 40
1
 40
1
 40
1
 40
1
 10
114.985403
 20
102.000626
 30
0.0
 10
115.045117
 20
102.000626
 30
0.0
 10
115.096794
 20
101.978807
 30
0.0
 10
115.140433
 20
101.935169
 30
0.0
  0
SPLINE
  5
230
100
AcDbEntity
  8
Layer_1
 62
7
100
AcDbSpline
 70
8
 71
3
 72
8
 73
4
 74
0
 40
0
 40
0
 40
0
 40
0
 40
1
 40
1
 40
1
 40
1
 10
115.140433
 20
101.935169
 30
0.0
 10
115.184070
 20
101.891531
 30
0.0
 10
115.205889
 20
101.839855
 30
0.0
 10
115.205889
 20
101.780140
 30
0.0
  0
LINE
  5
231
100
AcDbEntity
  8
Layer_1
 62
7
100
AcDbLine
 10
115.205889
 20
101.780140
 30
0.0
 11
115.205889
 21
98.913820
 31
0.0
  0
SPLINE
  5
232
100
AcDbEntity
  8
Layer_1
 62
7
100
AcDbSpline
 70
8
 71
3
 72
8
 73
4
 74
0
 40
0
 40
0
 40
0
 40
0
 40
1
 40
1
 40
1
 40
1
 10
115.205889
 20
98.913820
 30
0.0
 10
115.205889
 20
98.854105
 30
0.0
 10
115.193257
 20
98.797836
 30
0.0
 10
115.167992
 20
98.745011
 30
0.0
  0
SPLINE
  5
233
100
AcDbEntity
  8
Layer_1
 62
7
100
AcDbSpline
 70
8
 71
3
 72
8
 73
4
 74
0
 40
0
 40
0
 40
0
 40
0
 40
1
 40
1
 40
1
 40
1
 10
115.167992
 20
98.745011
 30
0.0
 10
115.145025
 20
98.692186
 30
0.0
 10
115.112871
 20
98.645103
 30
0.0
 10
115.071531
 20
98.603762
 30
0.0
  0
SPLINE
  5
234
100
AcDbEntity
  8
Layer_1
 62
7
100
AcDbSpline
 70
8
 71
3
 72
8
 73
4
 74
0
 40
0
 40
0
 40
0
 40
0
 40
1
 40
1
 40
1
 40
1
 10
115.071531
 20
98.603762
 30
0.0
 10
115.032487
 20
98.564717
 30
0.0
 10
114.986552
 20
98.532563
 30
0.0
 10
114.933728
 20
98.507299
 30
0.0
  0
SPLINE
  5
235
100
AcDbEntity
  8
Layer_1
 62
7
100
AcDbSpline
 70
8
 71
3
 72
8
 73
4
 74
0
 40
0
 40
0
 40
0
 40
0
 40
1
 40
1
 40
1
 40
1
 10
114.933728
 20
98.507299
 30
0.0
 10
114.880902
 20
98.484332
 30
0.0
 10
114.824631
 20
98.472848
 30
0.0
 10
114.764917
 20
98.472848
 30
0.0
  0
LINE
  5
236
100
AcDbEntity
  8
Layer_1
 62
7
100
AcDbLine
 10
114.764917
 20
98.472848
 30
0.0
 11
112.560056
 21
98.472848
 31
0.0
  0
LINE
  5
237
100
AcDbEntity
  8
Layer_1
 62
7
100
AcDbLine
 10
112.560056
 20
98.472848
 30
0.0
 11
112.560056
 21
98.472848
 31
0.0
  0
SPLINE
  5
238
100
AcDbEntity
  8
Layer_1
 62
7
100
AcDbSpline
 70
8
 71
3
 72
8
 73
4
 74
0
 40
0
 40
0
 40
0
 40
0
 40
1
 40
1
 40
1
 40
1
 10
12.984706
 20
86.912182
 30
0.0
 10
13.049015
 20
86.912182
 30
0.0
 10
13.101840
 20
86.934001
 30
0.0
 10
13.143181
 20
86.977639
 30
0.0
  0
SPLINE
  5
239
100
AcDbEntity
  8
Layer_1
 62
7
100
AcDbSpline
 70
8
 71
3
 72
8
 73
4
 74
0
 40
0
 40
0
 40
0
 40
0
 40
1
 40
1
 40
1
 40
1
 10
13.143181
 20
86.977639
 30
0.0
 10
13.184522
 20
87.021277
 30
0.0
 10
13.205192
 20
87.072953
 30
0.0
 10
13.205192
 20
87.132668
 30
0.0
  0
LINE
  5
23a
100
AcDbEntity
  8
Layer_1
 62
7
100
AcDbLine
 10
13.205192
 20
87.132668
 30
0.0
 11
13.205192
 21
90.219474
 31
0.0
  0
SPLINE
  5
23b
100
AcDbEntity
  8
Layer_1
 62
7
100
AcDbSpline
 70
8
 71
3
 72
8
 73
4
 74
0
 40
0
 40
0
 40
0
 40
0
 40
1
 40
1
 40
1
 40
1
 10
13.205192
 20
90.219474
 30
0.0
 10
13.205192
 20
90.279189
 30
0.0
 10
13.183374
 20
90.330865
 30
0.0
 10
13.139736
 20
90.374503
 30
0.0
  0
SPLINE
  5
23c
100
AcDbEntity
  8
Layer_1
 62
7
100
AcDbSpline
 70
8
 71
3
 72
8
 73
4
 74
0
 40
0
 40
0
 40
0
 40
0
 40
1
 40
1
 40
1
 40
1
 10
13.139736
 20
90.374503
 30
0.0
 10
13.096098
 20
90.418141
 30
0.0
 10
13.044421
 20
90.439960
 30
0.0
 10
12.984706
 20
90.439960
 30
0.0
  0
LINE
  5
23d
100
AcDbEntity
  8
Layer_1
 62
7
100
AcDbLine
 10
12.984706
 20
90.439960
 30
0.0
 11
12.102762
 21
90.439960
 31
0.0
  0
SPLINE
  5
23e
100
AcDbEntity
  8
Layer_1
 62
7
100
AcDbSpline
 70
8
 71
3
 72
8
 73
4
 74
0
 40
0
 40
0
 40
0
 40
0
 40
1
 40
1
 40
1
 40
1
 10
12.102762
 20
90.439960
 30
0.0
 10
12.043047
 20
90.439960
 30
0.0
 10
11.991370
 20
90.419290
 30
0.0
 10
11.947733
 20
90.377948
 30
0.0
  0
SPLINE
  5
23f
100
AcDbEntity
  8
Layer_1
 62
7
100
AcDbSpline
 70
8
 71
3
 72
8
 73
4
 74
0
 40
0
 40
0
 40
0
 40
0
 40
1
 40
1
 40
1
 40
1
 10
11.947733
 20
90.377948
 30
0.0
 10
11.904095
 20
90.336607
 30
0.0
 10
11.882276
 20
90.283782
 30
0.0
 10
11.882276
 20
90.219474
 30
0.0
  0
LINE
  5
240
100
AcDbEntity
  8
Layer_1
 62
7
100
AcDbLine
 10
11.882276
 20
90.219474
 30
0.0
 11
11.882276
 21
87.132668
 31
0.0
  0
SPLINE
  5
241
100
AcDbEntity
  8
Layer_1
 62
7
100
AcDbSpline
 70
8
 71
3
 72
8
 73
4
 74
0
 40
0
 40
0
 40
0
 40
0
 40
1
 40
1
 40
1
 40
1
 10
11.882276
 20
87.132668
 30
0.0
 10
11.882276
 20
87.068360
 30
0.0
 10
11.902946
 20
87.015535
 30
0.0
 10
11.944288
 20
86.974194
 30
0.0
  0
SPLINE
  5
242
100
AcDbEntity
  8
Layer_1
 62
7
100
AcDbSpline
 70
8
 71
3
 72
8
 73
4
 74
0
 40
0
 40
0
 40
0
 40
0
 40
1
 40
1
 40
1
 40
1
 10
11.944288
 20
86.974194
 30
0.0
 10
11.985629
 20
86.932853
 30
0.0
 10
12.038453
 20
86.912182
 30
0.0
 10
12.102762
 20
86.912182
 30
0.0
  0
LINE
  5
243
100
AcDbEntity
  8
Layer_1
 62
7
100
AcDbLine
 10
12.102762
 20
86.912182
 30
0.0
 11
12.984706
 21
86.912182
 31
0.0
  0
LINE
  5
244
100
AcDbEntity
  8
Layer_1
 62
7
100
AcDbLine
 10
12.984706
 20
86.912182
 30
0.0
 11
12.984706
 21
86.912182
 31
0.0
  0
SPLINE
  5
245
100
AcDbEntity
  8
Layer_1
 62
7
100
AcDbSpline
 70
8
 71
3
 72
8
 73
4
 74
0
 40
0
 40
0
 40
0
 40
0
 40
1
 40
1
 40
1
 40
1
 10
15.189567
 20
86.912182
 30
0.0
 10
15.253876
 20
86.912182
 30
0.0
 10
15.306701
 20
86.934001
 30
0.0
 10
15.348042
 20
86.977639
 30
0.0
  0
SPLINE
  5
246
100
AcDbEntity
  8
Layer_1
 62
7
100
AcDbSpline
 70
8
 71
3
 72
8
 73
4
 74
0
 40
0
 40
0
 40
0
 40
0
 40
1
 40
1
 40
1
 40
1
 10
15.348042
 20
86.977639
 30
0.0
 10
15.389383
 20
87.021277
 30
0.0
 10
15.410054
 20
87.072953
 30
0.0
 10
15.410054
 20
87.132668
 30
0.0
  0
LINE
  5
247
100
AcDbEntity
  8
Layer_1
 62
7
100
AcDbLine
 10
15.410054
 20
87.132668
 30
0.0
 11
15.410054
 21
90.219474
 31
0.0
  0
SPLINE
  5
248
100
AcDbEntity
  8
Layer_1
 62
7
100
AcDbSpline
 70
8
 71
3
 72
8
 73
4
 74
0
 40
0
 40
0
 40
0
 40
0
 40
1
 40
1
 40
1
 40
1
 10
15.410054
 20
90.219474
 30
0.0
 10
15.410054
 20
90.279189
 30
0.0
 10
15.388235
 20
90.330865
 30
0.0
 10
15.344597
 20
90.374503
 30
0.0
  0
SPLINE
  5
249
100
AcDbEntity
  8
Layer_1
 62
7
100
AcDbSpline
 70
8
 71
3
 72
8
 73
4
 74
0
 40
0
 40
0
 40
0
 40
0
 40
1
 40
1
 40
1
 40
1
 10
15.344597
 20
90.374503
 30
0.0
 10
15.300959
 20
90.418141
 30
0.0
 10
15.249282
 20
90.439960
 30
0.0
 10
15.189567
 20
90.439960
 30
0.0
  0
LINE
  5
24a
100
AcDbEntity
  8
Layer_1
 62
7
100
AcDbLine
 10
15.189567
 20
90.439960
 30
0.0
 11
14.307623
 21
90.439960
 31
0.0
  0
SPLINE
  5
24b
100
AcDbEntity
  8
Layer_1
 62
7
100
AcDbSpline
 70
8
 71
3
 72
8
 73
4
 74
0
 40
0
 40
0
 40
0
 40
0
 40
1
 40
1
 40
1
 40
1
 10
14.307623
 20
90.439960
 30
0.0
 10
14.247908
 20
90.439960
 30
0.0
 10
14.196232
 20
90.419290
 30
0.0
 10
14.152594
 20
90.377948
 30
0.0
  0
SPLINE
  5
24c
100
AcDbEntity
  8
Layer_1
 62
7
100
AcDbSpline
 70
8
 71
3
 72
8
 73
4
 74
0
 40
0
 40
0
 40
0
 40
0
 40
1
 40
1
 40
1
 40
1
 10
14.152594
 20
90.377948
 30
0.0
 10
14.108956
 20
90.336607
 30
0.0
 10
14.087137
 20
90.283782
 30
0.0
 10
14.087137
 20
90.219474
 30
0.0
  0
LINE
  5
24d
100
AcDbEntity
  8
Layer_1
 62
7
100
AcDbLine
 10
14.087137
 20
90.219474
 30
0.0
 11
14.087137
 21
87.132668
 31
0.0
  0
SPLINE
  5
24e
100
AcDbEntity
  8
Layer_1
 62
7
100
AcDbSpline
 70
8
 71
3
 72
8
 73
4
 74
0
 40
0
 40
0
 40
0
 40
0
 40
1
 40
1
 40
1
 40
1
 10
14.087137
 20
87.132668
 30
0.0
 10
14.087137
 20
87.068360
 30
0.0
 10
14.107807
 20
87.015535
 30
0.0
 10
14.149149
 20
86.974194
 30
0.0
  0
SPLINE
  5
24f
100
AcDbEntity
  8
Layer_1
 62
7
100
AcDbSpline
 70
8
 71
3
 72
8
 73
4
 74
0
 40
0
 40
0
 40
0
 40
0
 40
1
 40
1
 40
1
 40
1
 10
14.149149
 20
86.974194
 30
0.0
 10
14.190490
 20
86.932853
 30
0.0
 10
14.243315
 20
86.912182
 30
0.0
 10
14.307623
 20
86.912182
 30
0.0
  0
LINE
  5
250
100
AcDbEntity
  8
Layer_1
 62
7
100
AcDbLine
 10
14.307623
 20
86.912182
 30
0.0
 11
15.189567
 21
86.912182
 31
0.0
  0
LINE
  5
251
100
AcDbEntity
  8
Layer_1
 62
7
100
AcDbLine
 10
15.189567
 20
86.912182
 30
0.0
 11
15.189567
 21
86.912182
 31
0.0
  0
SPLINE
  5
252
100
AcDbEntity
  8
Layer_1
 62
7
100
AcDbSpline
 70
8
 71
3
 72
8
 73
4
 74
0
 40
0
 40
0
 40
0
 40
0
 40
1
 40
1
 40
1
 40
1
 10
11.220817
 20
85.589266
 30
0.0
 10
11.156509
 20
85.589266
 30
0.0
 10
11.103684
 20
85.609936
 30
0.0
 10
11.062343
 20
85.651277
 30
0.0
  0
SPLINE
  5
253
100
AcDbEntity
  8
Layer_1
 62
7
100
AcDbSpline
 70
8
 71
3
 72
8
 73
4
 74
0
 40
0
 40
0
 40
0
 40
0
 40
1
 40
1
 40
1
 40
1
 10
11.062343
 20
85.651277
 30
0.0
 10
11.021002
 20
85.692618
 30
0.0
 10
11.000331
 20
85.745443
 30
0.0
 10
11.000331
 20
85.809752
 30
0.0
  0
LINE
  5
254
100
AcDbEntity
  8
Layer_1
 62
7
100
AcDbLine
 10
11.000331
 20
85.809752
 30
0.0
 11
11.000331
 21
91.542391
 31
0.0
  0
SPLINE
  5
255
100
AcDbEntity
  8
Layer_1
 62
7
100
AcDbSpline
 70
8
 71
3
 72
8
 73
4
 74
0
 40
0
 40
0
 40
0
 40
0
 40
1
 40
1
 40
1
 40
1
 10
11.000331
 20
91.542391
 30
0.0
 10
11.000331
 20
91.606699
 30
0.0
 10
11.022150
 20
91.659524
 30
0.0
 10
11.065788
 20
91.700865
 30
0.0
  0
SPLINE
  5
256
100
AcDbEntity
  8
Layer_1
 62
7
100
AcDbSpline
 70
8
 71
3
 72
8
 73
4
 74
0
 40
0
 40
0
 40
0
 40
0
 40
1
 40
1
 40
1
 40
1
 10
11.065788
 20
91.700865
 30
0.0
 10
11.109426
 20
91.742206
 30
0.0
 10
11.161102
 20
91.762877
 30
0.0
 10
11.220817
 20
91.762877
 30
0.0
  0
LINE
  5
257
100
AcDbEntity
  8
Layer_1
 62
7
100
AcDbLine
 10
11.220817
 20
91.762877
 30
0.0
 11
11.661790
 21
91.762877
 31
0.0
  0
SPLINE
  5
258
100
AcDbEntity
  8
Layer_1
 62
7
100
AcDbSpline
 70
8
 71
3
 72
8
 73
4
 74
0
 40
0
 40
0
 40
0
 40
0
 40
1
 40
1
 40
1
 40
1
 10
11.661790
 20
91.762877
 30
0.0
 10
11.714614
 20
91.762877
 30
0.0
 10
11.753659
 20
91.751393
 30
0.0
 10
11.778923
 20
91.728426
 30
0.0
  0
SPLINE
  5
259
100
AcDbEntity
  8
Layer_1
 62
7
100
AcDbSpline
 70
8
 71
3
 72
8
 73
4
 74
0
 40
0
 40
0
 40
0
 40
0
 40
1
 40
1
 40
1
 40
1
 10
11.778923
 20
91.728426
 30
0.0
 10
11.806484
 20
91.707755
 30
0.0
 10
11.827154
 20
91.681343
 30
0.0
 10
11.840935
 20
91.649189
 30
0.0
  0
SPLINE
  5
25a
100
AcDbEntity
  8
Layer_1
 62
7
100
AcDbSpline
 70
8
 71
3
 72
8
 73
4
 74
0
 40
0
 40
0
 40
0
 40
0
 40
1
 40
1
 40
1
 40
1
 10
11.840935
 20
91.649189
 30
0.0
 10
11.857012
 20
91.617034
 30
0.0
 10
11.868496
 20
91.581435
 30
0.0
 10
11.875386
 20
91.542391
 30
0.0
  0
SPLINE
  5
25b
100
AcDbEntity
  8
Layer_1
 62
7
100
AcDbSpline
 70
8
 71
3
 72
8
 73
4
 74
0
 40
0
 40
0
 40
0
 40
0
 40
1
 40
1
 40
1
 40
1
 10
11.875386
 20
91.542391
 30
0.0
 10
11.884573
 20
91.503346
 30
0.0
 10
11.896056
 20
91.467747
 30
0.0
 10
11.909836
 20
91.435593
 30
0.0
  0
SPLINE
  5
25c
100
AcDbEntity
  8
Layer_1
 62
7
100
AcDbSpline
 70
8
 71
3
 72
8
 73
4
 74
0
 40
0
 40
0
 40
0
 40
0
 40
1
 40
1
 40
1
 40
1
 10
11.909836
 20
91.435593
 30
0.0
 10
11.925914
 20
91.403438
 30
0.0
 10
11.947733
 20
91.375878
 30
0.0
 10
11.975293
 20
91.352910
 30
0.0
  0
SPLINE
  5
25d
100
AcDbEntity
  8
Layer_1
 62
7
100
AcDbSpline
 70
8
 71
3
 72
8
 73
4
 74
0
 40
0
 40
0
 40
0
 40
0
 40
1
 40
1
 40
1
 40
1
 10
11.975293
 20
91.352910
 30
0.0
 10
12.005151
 20
91.332240
 30
0.0
 10
12.047640
 20
91.321905
 30
0.0
 10
12.102762
 20
91.321905
 30
0.0
  0
LINE
  5
25e
100
AcDbEntity
  8
Layer_1
 62
7
100
AcDbLine
 10
12.102762
 20
91.321905
 30
0.0
 11
15.189567
 21
91.321905
 31
0.0
  0
SPLINE
  5
25f
100
AcDbEntity
  8
Layer_1
 62
7
100
AcDbSpline
 70
8
 71
3
 72
8
 73
4
 74
0
 40
0
 40
0
 40
0
 40
0
 40
1
 40
1
 40
1
 40
1
 10
15.189567
 20
91.321905
 30
0.0
 10
15.240096
 20
91.321905
 30
0.0
 10
15.279140
 20
91.332240
 30
0.0
 10
15.306701
 20
91.352910
 30
0.0
  0
SPLINE
  5
260
100
AcDbEntity
  8
Layer_1
 62
7
100
AcDbSpline
 70
8
 71
3
 72
8
 73
4
 74
0
 40
0
 40
0
 40
0
 40
0
 40
1
 40
1
 40
1
 40
1
 10
15.306701
 20
91.352910
 30
0.0
 10
15.334262
 20
91.375878
 30
0.0
 10
15.356081
 20
91.403438
 30
0.0
 10
15.372158
 20
91.435593
 30
0.0
  0
SPLINE
  5
261
100
AcDbEntity
  8
Layer_1
 62
7
100
AcDbSpline
 70
8
 71
3
 72
8
 73
4
 74
0
 40
0
 40
0
 40
0
 40
0
 40
1
 40
1
 40
1
 40
1
 10
15.372158
 20
91.435593
 30
0.0
 10
15.388235
 20
91.467747
 30
0.0
 10
15.400867
 20
91.503346
 30
0.0
 10
15.410054
 20
91.542391
 30
0.0
  0
SPLINE
  5
262
100
AcDbEntity
  8
Layer_1
 62
7
100
AcDbSpline
 70
8
 71
3
 72
8
 73
4
 74
0
 40
0
 40
0
 40
0
 40
0
 40
1
 40
1
 40
1
 40
1
 10
15.410054
 20
91.542391
 30
0.0
 10
15.419241
 20
91.581435
 30
0.0
 10
15.431873
 20
91.617034
 30
0.0
 10
15.447950
 20
91.649189
 30
0.0
  0
SPLINE
  5
263
100
AcDbEntity
  8
Layer_1
 62
7
100
AcDbSpline
 70
8
 71
3
 72
8
 73
4
 74
0
 40
0
 40
0
 40
0
 40
0
 40
1
 40
1
 40
1
 40
1
 10
15.447950
 20
91.649189
 30
0.0
 10
15.464027
 20
91.681343
 30
0.0
 10
15.485846
 20
91.707755
 30
0.0
 10
15.513406
 20
91.728426
 30
0.0
  0
SPLINE
  5
264
100
AcDbEntity
  8
Layer_1
 62
7
100
AcDbSpline
 70
8
 71
3
 72
8
 73
4
 74
0
 40
0
 40
0
 40
0
 40
0
 40
1
 40
1
 40
1
 40
1
 10
15.513406
 20
91.728426
 30
0.0
 10
15.540967
 20
91.751393
 30
0.0
 10
15.580012
 20
91.762877
 30
0.0
 10
15.630540
 20
91.762877
 30
0.0
  0
LINE
  5
265
100
AcDbEntity
  8
Layer_1
 62
7
100
AcDbLine
 10
15.630540
 20
91.762877
 30
0.0
 11
16.071512
 21
91.762877
 31
0.0
  0
SPLINE
  5
266
100
AcDbEntity
  8
Layer_1
 62
7
100
AcDbSpline
 70
8
 71
3
 72
8
 73
4
 74
0
 40
0
 40
0
 40
0
 40
0
 40
1
 40
1
 40
1
 40
1
 10
16.071512
 20
91.762877
 30
0.0
 10
16.131227
 20
91.762877
 30
0.0
 10
16.182903
 20
91.741058
 30
0.0
 10
16.226541
 20
91.697420
 30
0.0
  0
SPLINE
  5
267
100
AcDbEntity
  8
Layer_1
 62
7
100
AcDbSpline
 70
8
 71
3
 72
8
 73
4
 74
0
 40
0
 40
0
 40
0
 40
0
 40
1
 40
1
 40
1
 40
1
 10
16.226541
 20
91.697420
 30
0.0
 10
16.270179
 20
91.653782
 30
0.0
 10
16.291998
 20
91.602106
 30
0.0
 10
16.291998
 20
91.542391
 30
0.0
  0
LINE
  5
268
100
AcDbEntity
  8
Layer_1
 62
7
100
AcDbLine
 10
16.291998
 20
91.542391
 30
0.0
 11
16.291998
 21
85.809752
 31
0.0
  0
SPLINE
  5
269
100
AcDbEntity
  8
Layer_1
 62
7
100
AcDbSpline
 70
8
 71
3
 72
8
 73
4
 74
0
 40
0
 40
0
 40
0
 40
0
 40
1
 40
1
 40
1
 40
1
 10
16.291998
 20
85.809752
 30
0.0
 10
16.291998
 20
85.750037
 30
0.0
 10
16.271327
 20
85.698360
 30
0.0
 10
16.229986
 20
85.654722
 30
0.0
  0
SPLINE
  5
26a
100
AcDbEntity
  8
Layer_1
 62
7
100
AcDbSpline
 70
8
 71
3
 72
8
 73
4
 74
0
 40
0
 40
0
 40
0
 40
0
 40
1
 40
1
 40
1
 40
1
 10
16.229986
 20
85.654722
 30
0.0
 10
16.188645
 20
85.611085
 30
0.0
 10
16.135820
 20
85.589266
 30
0.0
 10
16.071512
 20
85.589266
 30
0.0
  0
LINE
  5
26b
100
AcDbEntity
  8
Layer_1
 62
7
100
AcDbLine
 10
16.071512
 20
85.589266
 30
0.0
 11
15.630540
 21
85.589266
 31
0.0
  0
SPLINE
  5
26c
100
AcDbEntity
  8
Layer_1
 62
7
100
AcDbSpline
 70
8
 71
3
 72
8
 73
4
 74
0
 40
0
 40
0
 40
0
 40
0
 40
1
 40
1
 40
1
 40
1
 10
15.630540
 20
85.589266
 30
0.0
 10
15.575418
 20
85.589266
 30
0.0
 10
15.534077
 20
85.599601
 30
0.0
 10
15.506516
 20
85.620271
 30
0.0
  0
SPLINE
  5
26d
100
AcDbEntity
  8
Layer_1
 62
7
100
AcDbSpline
 70
8
 71
3
 72
8
 73
4
 74
0
 40
0
 40
0
 40
0
 40
0
 40
1
 40
1
 40
1
 40
1
 10
15.506516
 20
85.620271
 30
0.0
 10
15.478956
 20
85.643239
 30
0.0
 10
15.457137
 20
85.670799
 30
0.0
 10
15.441059
 20
85.702954
 30
0.0
  0
SPLINE
  5
26e
100
AcDbEntity
  8
Layer_1
 62
7
100
AcDbSpline
 70
8
 71
3
 72
8
 73
4
 74
0
 40
0
 40
0
 40
0
 40
0
 40
1
 40
1
 40
1
 40
1
 10
15.441059
 20
85.702954
 30
0.0
 10
15.427279
 20
85.735108
 30
0.0
 10
15.416944
 20
85.770707
 30
0.0
 10
15.410054
 20
85.809752
 30
0.0
  0
SPLINE
  5
26f
100
AcDbEntity
  8
Layer_1
 62
7
100
AcDbSpline
 70
8
 71
3
 72
8
 73
4
 74
0
 40
0
 40
0
 40
0
 40
0
 40
1
 40
1
 40
1
 40
1
 10
15.410054
 20
85.809752
 30
0.0
 10
15.403164
 20
85.848796
 30
0.0
 10
15.391680
 20
85.884395
 30
0.0
 10
15.375603
 20
85.916550
 30
0.0
  0
SPLINE
  5
270
100
AcDbEntity
  8
Layer_1
 62
7
100
AcDbSpline
 70
8
 71
3
 72
8
 73
4
 74
0
 40
0
 40
0
 40
0
 40
0
 40
1
 40
1
 40
1
 40
1
 10
15.375603
 20
85.916550
 30
0.0
 10
15.361823
 20
85.948704
 30
0.0
 10
15.341152
 20
85.975116
 30
0.0
 10
15.313591
 20
85.995787
 30
0.0
  0
SPLINE
  5
271
100
AcDbEntity
  8
Layer_1
 62
7
100
AcDbSpline
 70
8
 71
3
 72
8
 73
4
 74
0
 40
0
 40
0
 40
0
 40
0
 40
1
 40
1
 40
1
 40
1
 10
15.313591
 20
85.995787
 30
0.0
 10
15.286030
 20
86.018754
 30
0.0
 10
15.244689
 20
86.030238
 30
0.0
 10
15.189567
 20
86.030238
 30
0.0
  0
LINE
  5
272
100
AcDbEntity
  8
Layer_1
 62
7
100
AcDbLine
 10
15.189567
 20
86.030238
 30
0.0
 11
12.102762
 21
86.030238
 31
0.0
  0
SPLINE
  5
273
100
AcDbEntity
  8
Layer_1
 62
7
100
AcDbSpline
 70
8
 71
3
 72
8
 73
4
 74
0
 40
0
 40
0
 40
0
 40
0
 40
1
 40
1
 40
1
 40
1
 10
12.102762
 20
86.030238
 30
0.0
 10
12.047640
 20
86.030238
 30
0.0
 10
12.006299
 20
86.018754
 30
0.0
 10
11.978738
 20
85.995787
 30
0.0
  0
SPLINE
  5
274
100
AcDbEntity
  8
Layer_1
 62
7
100
AcDbSpline
 70
8
 71
3
 72
8
 73
4
 74
0
 40
0
 40
0
 40
0
 40
0
 40
1
 40
1
 40
1
 40
1
 10
11.978738
 20
85.995787
 30
0.0
 10
11.951178
 20
85.975116
 30
0.0
 10
11.929359
 20
85.948704
 30
0.0
 10
11.913282
 20
85.916550
 30
0.0
  0
SPLINE
  5
275
100
AcDbEntity
  8
Layer_1
 62
7
100
AcDbSpline
 70
8
 71
3
 72
8
 73
4
 74
0
 40
0
 40
0
 40
0
 40
0
 40
1
 40
1
 40
1
 40
1
 10
11.913282
 20
85.916550
 30
0.0
 10
11.899502
 20
85.884395
 30
0.0
 10
11.889166
 20
85.848796
 30
0.0
 10
11.882276
 20
85.809752
 30
0.0
  0
SPLINE
  5
276
100
AcDbEntity
  8
Layer_1
 62
7
100
AcDbSpline
 70
8
 71
3
 72
8
 73
4
 74
0
 40
0
 40
0
 40
0
 40
0
 40
1
 40
1
 40
1
 40
1
 10
11.882276
 20
85.809752
 30
0.0
 10
11.875386
 20
85.770707
 30
0.0
 10
11.863902
 20
85.735108
 30
0.0
 10
11.847825
 20
85.702954
 30
0.0
  0
SPLINE
  5
277
100
AcDbEntity
  8
Layer_1
 62
7
100
AcDbSpline
 70
8
 71
3
 72
8
 73
4
 74
0
 40
0
 40
0
 40
0
 40
0
 40
1
 40
1
 40
1
 40
1
 10
11.847825
 20
85.702954
 30
0.0
 10
11.834045
 20
85.670799
 30
0.0
 10
11.813374
 20
85.643239
 30
0.0
 10
11.785813
 20
85.620271
 30
0.0
  0
SPLINE
  5
278
100
AcDbEntity
  8
Layer_1
 62
7
100
AcDbSpline
 70
8
 71
3
 72
8
 73
4
 74
0
 40
0
 40
0
 40
0
 40
0
 40
1
 40
1
 40
1
 40
1
 10
11.785813
 20
85.620271
 30
0.0
 10
11.758252
 20
85.599601
 30
0.0
 10
11.716911
 20
85.589266
 30
0.0
 10
11.661790
 20
85.589266
 30
0.0
  0
LINE
  5
279
100
AcDbEntity
  8
Layer_1
 62
7
100
AcDbLine
 10
11.661790
 20
85.589266
 30
0.0
 11
11.220817
 21
85.589266
 31
0.0
  0
LINE
  5
27a
100
AcDbEntity
  8
Layer_1
 62
7
100
AcDbLine
 10
11.220817
 20
85.589266
 30
0.0
 11
11.220817
 21
85.589266
 31
0.0
  0
SPLINE
  5
27b
100
AcDbEntity
  8
Layer_1
 62
7
100
AcDbSpline
 70
8
 71
3
 72
8
 73
4
 74
0
 40
0
 40
0
 40
0
 40
0
 40
1
 40
1
 40
1
 40
1
 10
11.220817
 20
68.478135
 30
0.0
 10
11.156509
 20
68.478135
 30
0.0
 10
11.103684
 20
68.498806
 30
0.0
 10
11.062343
 20
68.540148
 30
0.0
  0
SPLINE
  5
27c
100
AcDbEntity
  8
Layer_1
 62
7
100
AcDbSpline
 70
8
 71
3
 72
8
 73
4
 74
0
 40
0
 40
0
 40
0
 40
0
 40
1
 40
1
 40
1
 40
1
 10
11.062343
 20
68.540148
 30
0.0
 10
11.021002
 20
68.581487
 30
0.0
 10
11.000331
 20
68.634312
 30
0.0
 10
11.000331
 20
68.698621
 30
0.0
  0
LINE
  5
27d
100
AcDbEntity
  8
Layer_1
 62
7
100
AcDbLine
 10
11.000331
 20
68.698621
 30
0.0
 11
11.000331
 21
69.139593
 31
0.0
  0
SPLINE
  5
27e
100
AcDbEntity
  8
Layer_1
 62
7
100
AcDbSpline
 70
8
 71
3
 72
8
 73
4
 74
0
 40
0
 40
0
 40
0
 40
0
 40
1
 40
1
 40
1
 40
1
 10
11.000331
 20
69.139593
 30
0.0
 10
11.000331
 20
69.190122
 30
0.0
 10
11.010667
 20
69.229167
 30
0.0
 10
11.031337
 20
69.256727
 30
0.0
  0
SPLINE
  5
27f
100
AcDbEntity
  8
Layer_1
 62
7
100
AcDbSpline
 70
8
 71
3
 72
8
 73
4
 74
0
 40
0
 40
0
 40
0
 40
0
 40
1
 40
1
 40
1
 40
1
 10
11.031337
 20
69.256727
 30
0.0
 10
11.054305
 20
69.284287
 30
0.0
 10
11.081865
 20
69.306105
 30
0.0
 10
11.114019
 20
69.322183
 30
0.0
  0
SPLINE
  5
280
100
AcDbEntity
  8
Layer_1
 62
7
100
AcDbSpline
 70
8
 71
3
 72
8
 73
4
 74
0
 40
0
 40
0
 40
0
 40
0
 40
1
 40
1
 40
1
 40
1
 10
11.114019
 20
69.322183
 30
0.0
 10
11.146174
 20
69.338269
 30
0.0
 10
11.181773
 20
69.350901
 30
0.0
 10
11.220817
 20
69.360079
 30
0.0
  0
SPLINE
  5
281
100
AcDbEntity
  8
Layer_1
 62
7
100
AcDbSpline
 70
8
 71
3
 72
8
 73
4
 74
0
 40
0
 40
0
 40
0
 40
0
 40
1
 40
1
 40
1
 40
1
 10
11.220817
 20
69.360079
 30
0.0
 10
11.259862
 20
69.369261
 30
0.0
 10
11.295461
 20
69.381893
 30
0.0
 10
11.327615
 20
69.397976
 30
0.0
  0
SPLINE
  5
282
100
AcDbEntity
  8
Layer_1
 62
7
100
AcDbSpline
 70
8
 71
3
 72
8
 73
4
 74
0
 40
0
 40
0
 40
0
 40
0
 40
1
 40
1
 40
1
 40
1
 10
11.327615
 20
69.397976
 30
0.0
 10
11.359770
 20
69.414063
 30
0.0
 10
11.386182
 20
69.435881
 30
0.0
 10
11.406853
 20
69.463432
 30
0.0
  0
SPLINE
  5
283
100
AcDbEntity
  8
Layer_1
 62
7
100
AcDbSpline
 70
8
 71
3
 72
8
 73
4
 74
0
 40
0
 40
0
 40
0
 40
0
 40
1
 40
1
 40
1
 40
1
 10
11.406853
 20
69.463432
 30
0.0
 10
11.429820
 20
69.490994
 30
0.0
 10
11.441304
 20
69.530038
 30
0.0
 10
11.441304
 20
69.580565
 30
0.0
  0
LINE
  5
284
100
AcDbEntity
  8
Layer_1
 62
7
100
AcDbLine
 10
11.441304
 20
69.580565
 30
0.0
 11
11.441304
 21
74.210774
 31
0.0
  0
SPLINE
  5
285
100
AcDbEntity
  8
Layer_1
 62
7
100
AcDbSpline
 70
8
 71
3
 72
8
 73
4
 74
0
 40
0
 40
0
 40
0
 40
0
 40
1
 40
1
 40
1
 40
1
 10
11.441304
 20
74.210774
 30
0.0
 10
11.441304
 20
74.270488
 30
0.0
 10
11.452787
 20
74.326759
 30
0.0
 10
11.475755
 20
74.379585
 30
0.0
  0
SPLINE
  5
286
100
AcDbEntity
  8
Layer_1
 62
7
100
AcDbSpline
 70
8
 71
3
 72
8
 73
4
 74
0
 40
0
 40
0
 40
0
 40
0
 40
1
 40
1
 40
1
 40
1
 10
11.475755
 20
74.379585
 30
0.0
 10
11.501019
 20
74.432409
 30
0.0
 10
11.533173
 20
74.478344
 30
0.0
 10
11.572217
 20
74.517388
 30
0.0
  0
SPLINE
  5
287
100
AcDbEntity
  8
Layer_1
 62
7
100
AcDbSpline
 70
8
 71
3
 72
8
 73
4
 74
0
 40
0
 40
0
 40
0
 40
0
 40
1
 40
1
 40
1
 40
1
 10
11.572217
 20
74.517388
 30
0.0
 10
11.613558
 20
74.558728
 30
0.0
 10
11.660641
 20
74.590882
 30
0.0
 10
11.713466
 20
74.613849
 30
0.0
  0
SPLINE
  5
288
100
AcDbEntity
  8
Layer_1
 62
7
100
AcDbSpline
 70
8
 71
3
 72
8
 73
4
 74
0
 40
0
 40
0
 40
0
 40
0
 40
1
 40
1
 40
1
 40
1
 10
11.713466
 20
74.613849
 30
0.0
 10
11.766291
 20
74.639114
 30
0.0
 10
11.822561
 20
74.651746
 30
0.0
 10
11.882276
 20
74.651746
 30
0.0
  0
LINE
  5
289
100
AcDbEntity
  8
Layer_1
 62
7
100
AcDbLine
 10
11.882276
 20
74.651746
 30
0.0
 11
15.851026
 21
74.651746
 31
0.0
  0
SPLINE
  5
28a
100
AcDbEntity
  8
Layer_1
 62
7
100
AcDbSpline
 70
8
 71
3
 72
8
 73
4
 74
0
 40
0
 40
0
 40
0
 40
0
 40
1
 40
1
 40
1
 40
1
 10
15.851026
 20
74.651746
 30
0.0
 10
15.910741
 20
74.651746
 30
0.0
 10
15.967011
 20
74.639114
 30
0.0
 10
16.019836
 20
74.613849
 30
0.0
  0
SPLINE
  5
28b
100
AcDbEntity
  8
Layer_1
 62
7
100
AcDbSpline
 70
8
 71
3
 72
8
 73
4
 74
0
 40
0
 40
0
 40
0
 40
0
 40
1
 40
1
 40
1
 40
1
 10
16.019836
 20
74.613849
 30
0.0
 10
16.072660
 20
74.590882
 30
0.0
 10
16.118595
 20
74.558728
 30
0.0
 10
16.157639
 20
74.517388
 30
0.0
  0
SPLINE
  5
28c
100
AcDbEntity
  8
Layer_1
 62
7
100
AcDbSpline
 70
8
 71
3
 72
8
 73
4
 74
0
 40
0
 40
0
 40
0
 40
0
 40
1
 40
1
 40
1
 40
1
 10
16.157639
 20
74.517388
 30
0.0
 10
16.198981
 20
74.478344
 30
0.0
 10
16.231135
 20
74.432409
 30
0.0
 10
16.254102
 20
74.379585
 30
0.0
  0
SPLINE
  5
28d
100
AcDbEntity
  8
Layer_1
 62
7
100
AcDbSpline
 70
8
 71
3
 72
8
 73
4
 74
0
 40
0
 40
0
 40
0
 40
0
 40
1
 40
1
 40
1
 40
1
 10
16.254102
 20
74.379585
 30
0.0
 10
16.279366
 20
74.326759
 30
0.0
 10
16.291998
 20
74.270488
 30
0.0
 10
16.291998
 20
74.210774
 30
0.0
  0
LINE
  5
28e
100
AcDbEntity
  8
Layer_1
 62
7
100
AcDbLine
 10
16.291998
 20
74.210774
 30
0.0
 11
16.291998
 21
68.698621
 31
0.0
  0
SPLINE
  5
28f
100
AcDbEntity
  8
Layer_1
 62
7
100
AcDbSpline
 70
8
 71
3
 72
8
 73
4
 74
0
 40
0
 40
0
 40
0
 40
0
 40
1
 40
1
 40
1
 40
1
 10
16.291998
 20
68.698621
 30
0.0
 10
16.291998
 20
68.638907
 30
0.0
 10
16.271327
 20
68.587230
 30
0.0
 10
16.229986
 20
68.543591
 30
0.0
  0
SPLINE
  5
290
100
AcDbEntity
  8
Layer_1
 62
7
100
AcDbSpline
 70
8
 71
3
 72
8
 73
4
 74
0
 40
0
 40
0
 40
0
 40
0
 40
1
 40
1
 40
1
 40
1
 10
16.229986
 20
68.543591
 30
0.0
 10
16.188645
 20
68.499953
 30
0.0
 10
16.135820
 20
68.478135
 30
0.0
 10
16.071512
 20
68.478135
 30
0.0
  0
LINE
  5
291
100
AcDbEntity
  8
Layer_1
 62
7
100
AcDbLine
 10
16.071512
 20
68.478135
 30
0.0
 11
15.630540
 21
68.478135
 31
0.0
  0
SPLINE
  5
292
100
AcDbEntity
  8
Layer_1
 62
7
100
AcDbSpline
 70
8
 71
3
 72
8
 73
4
 74
0
 40
0
 40
0
 40
0
 40
0
 40
1
 40
1
 40
1
 40
1
 10
15.630540
 20
68.478135
 30
0.0
 10
15.566231
 20
68.478135
 30
0.0
 10
15.513406
 20
68.498806
 30
0.0
 10
15.472065
 20
68.540148
 30
0.0
  0
SPLINE
  5
293
100
AcDbEntity
  8
Layer_1
 62
7
100
AcDbSpline
 70
8
 71
3
 72
8
 73
4
 74
0
 40
0
 40
0
 40
0
 40
0
 40
1
 40
1
 40
1
 40
1
 10
15.472065
 20
68.540148
 30
0.0
 10
15.430724
 20
68.581487
 30
0.0
 10
15.410054
 20
68.634312
 30
0.0
 10
15.410054
 20
68.698621
 30
0.0
  0
LINE
  5
294
100
AcDbEntity
  8
Layer_1
 62
7
100
AcDbLine
 10
15.410054
 20
68.698621
 30
0.0
 11
15.410054
 21
73.549315
 31
0.0
  0
SPLINE
  5
295
100
AcDbEntity
  8
Layer_1
 62
7
100
AcDbSpline
 70
8
 71
3
 72
8
 73
4
 74
0
 40
0
 40
0
 40
0
 40
0
 40
1
 40
1
 40
1
 40
1
 10
15.410054
 20
73.549315
 30
0.0
 10
15.410054
 20
73.609030
 30
0.0
 10
15.388235
 20
73.660707
 30
0.0
 10
15.344597
 20
73.704346
 30
0.0
  0
SPLINE
  5
296
100
AcDbEntity
  8
Layer_1
 62
7
100
AcDbSpline
 70
8
 71
3
 72
8
 73
4
 74
0
 40
0
 40
0
 40
0
 40
0
 40
1
 40
1
 40
1
 40
1
 10
15.344597
 20
73.704346
 30
0.0
 10
15.300959
 20
73.747983
 30
0.0
 10
15.249282
 20
73.769802
 30
0.0
 10
15.189567
 20
73.769802
 30
0.0
  0
LINE
  5
297
100
AcDbEntity
  8
Layer_1
 62
7
100
AcDbLine
 10
15.189567
 20
73.769802
 30
0.0
 11
12.543734
 21
73.769802
 31
0.0
  0
SPLINE
  5
298
100
AcDbEntity
  8
Layer_1
 62
7
100
AcDbSpline
 70
8
 71
3
 72
8
 73
4
 74
0
 40
0
 40
0
 40
0
 40
0
 40
1
 40
1
 40
1
 40
1
 10
12.543734
 20
73.769802
 30
0.0
 10
12.484019
 20
73.769802
 30
0.0
 10
12.432343
 20
73.749131
 30
0.0
 10
12.388705
 20
73.707789
 30
0.0
  0
SPLINE
  5
299
100
AcDbEntity
  8
Layer_1
 62
7
100
AcDbSpline
 70
8
 71
3
 72
8
 73
4
 74
0
 40
0
 40
0
 40
0
 40
0
 40
1
 40
1
 40
1
 40
1
 10
12.388705
 20
73.707789
 30
0.0
 10
12.345067
 20
73.666449
 30
0.0
 10
12.323248
 20
73.613624
 30
0.0
 10
12.323248
 20
73.549315
 30
0.0
  0
LINE
  5
29a
100
AcDbEntity
  8
Layer_1
 62
7
100
AcDbLine
 10
12.323248
 20
73.549315
 30
0.0
 11
12.323248
 21
68.919107
 31
0.0
  0
SPLINE
  5
29b
100
AcDbEntity
  8
Layer_1
 62
7
100
AcDbSpline
 70
8
 71
3
 72
8
 73
4
 74
0
 40
0
 40
0
 40
0
 40
0
 40
1
 40
1
 40
1
 40
1
 10
12.323248
 20
68.919107
 30
0.0
 10
12.323248
 20
68.859393
 30
0.0
 10
12.310616
 20
68.803123
 30
0.0
 10
12.285352
 20
68.750299
 30
0.0
  0
SPLINE
  5
29c
100
AcDbEntity
  8
Layer_1
 62
7
100
AcDbSpline
 70
8
 71
3
 72
8
 73
4
 74
0
 40
0
 40
0
 40
0
 40
0
 40
1
 40
1
 40
1
 40
1
 10
12.285352
 20
68.750299
 30
0.0
 10
12.262385
 20
68.697472
 30
0.0
 10
12.230231
 20
68.650389
 30
0.0
 10
12.188889
 20
68.609049
 30
0.0
  0
SPLINE
  5
29d
100
AcDbEntity
  8
Layer_1
 62
7
100
AcDbSpline
 70
8
 71
3
 72
8
 73
4
 74
0
 40
0
 40
0
 40
0
 40
0
 40
1
 40
1
 40
1
 40
1
 10
12.188889
 20
68.609049
 30
0.0
 10
12.149845
 20
68.570005
 30
0.0
 10
12.103910
 20
68.537850
 30
0.0
 10
12.051086
 20
68.512586
 30
0.0
  0
SPLINE
  5
29e
100
AcDbEntity
  8
Layer_1
 62
7
100
AcDbSpline
 70
8
 71
3
 72
8
 73
4
 74
0
 40
0
 40
0
 40
0
 40
0
 40
1
 40
1
 40
1
 40
1
 10
12.051086
 20
68.512586
 30
0.0
 10
11.998261
 20
68.489619
 30
0.0
 10
11.941991
 20
68.478135
 30
0.0
 10
11.882276
 20
68.478135
 30
0.0
  0
LINE
  5
29f
100
AcDbEntity
  8
Layer_1
 62
7
100
AcDbLine
 10
11.882276
 20
68.478135
 30
0.0
 11
11.220817
 21
68.478135
 31
0.0
  0
LINE
  5
2a0
100
AcDbEntity
  8
Layer_1
 62
7
100
AcDbLine
 10
11.220817
 20
68.478135
 30
0.0
 11
11.220817
 21
68.478135
 31
0.0
  0
SPLINE
  5
2a1
100
AcDbEntity
  8
Layer_1
 62
7
100
AcDbSpline
 70
8
 71
3
 72
8
 73
4
 74
0
 40
0
 40
0
 40
0
 40
0
 40
1
 40
1
 40
1
 40
1
 10
11.220817
 20
51.367004
 30
0.0
 10
11.156509
 20
51.367004
 30
0.0
 10
11.103684
 20
51.387675
 30
0.0
 10
11.062343
 20
51.429017
 30
0.0
  0
SPLINE
  5
2a2
100
AcDbEntity
  8
Layer_1
 62
7
100
AcDbSpline
 70
8
 71
3
 72
8
 73
4
 74
0
 40
0
 40
0
 40
0
 40
0
 40
1
 40
1
 40
1
 40
1
 10
11.062343
 20
51.429017
 30
0.0
 10
11.021002
 20
51.470357
 30
0.0
 10
11.000331
 20
51.523181
 30
0.0
 10
11.000331
 20
51.587490
 30
0.0
  0
LINE
  5
2a3
100
AcDbEntity
  8
Layer_1
 62
7
100
AcDbLine
 10
11.000331
 20
51.587490
 30
0.0
 11
11.000331
 21
52.028463
 31
0.0
  0
SPLINE
  5
2a4
100
AcDbEntity
  8
Layer_1
 62
7
100
AcDbSpline
 70
8
 71
3
 72
8
 73
4
 74
0
 40
0
 40
0
 40
0
 40
0
 40
1
 40
1
 40
1
 40
1
 10
11.000331
 20
52.028463
 30
0.0
 10
11.000331
 20
52.092772
 30
0.0
 10
11.022150
 20
52.145596
 30
0.0
 10
11.065788
 20
52.186936
 30
0.0
  0
SPLINE
  5
2a5
100
AcDbEntity
  8
Layer_1
 62
7
100
AcDbSpline
 70
8
 71
3
 72
8
 73
4
 74
0
 40
0
 40
0
 40
0
 40
0
 40
1
 40
1
 40
1
 40
1
 10
11.065788
 20
52.186936
 30
0.0
 10
11.109426
 20
52.228278
 30
0.0
 10
11.161102
 20
52.248949
 30
0.0
 10
11.220817
 20
52.248949
 30
0.0
  0
LINE
  5
2a6
100
AcDbEntity
  8
Layer_1
 62
7
100
AcDbLine
 10
11.220817
 20
52.248949
 30
0.0
 11
12.984706
 21
52.248949
 31
0.0
  0
SPLINE
  5
2a7
100
AcDbEntity
  8
Layer_1
 62
7
100
AcDbSpline
 70
8
 71
3
 72
8
 73
4
 74
0
 40
0
 40
0
 40
0
 40
0
 40
1
 40
1
 40
1
 40
1
 10
12.984706
 20
52.248949
 30
0.0
 10
13.049015
 20
52.248949
 30
0.0
 10
13.101840
 20
52.270767
 30
0.0
 10
13.143181
 20
52.314405
 30
0.0
  0
SPLINE
  5
2a8
100
AcDbEntity
  8
Layer_1
 62
7
100
AcDbSpline
 70
8
 71
3
 72
8
 73
4
 74
0
 40
0
 40
0
 40
0
 40
0
 40
1
 40
1
 40
1
 40
1
 10
13.143181
 20
52.314405
 30
0.0
 10
13.184522
 20
52.358044
 30
0.0
 10
13.205192
 20
52.409720
 30
0.0
 10
13.205192
 20
52.469435
 30
0.0
  0
LINE
  5
2a9
100
AcDbEntity
  8
Layer_1
 62
7
100
AcDbLine
 10
13.205192
 20
52.469435
 30
0.0
 11
13.205192
 21
53.792352
 31
0.0
  0
SPLINE
  5
2aa
100
AcDbEntity
  8
Layer_1
 62
7
100
AcDbSpline
 70
8
 71
3
 72
8
 73
4
 74
0
 40
0
 40
0
 40
0
 40
0
 40
1
 40
1
 40
1
 40
1
 10
13.205192
 20
53.792352
 30
0.0
 10
13.205192
 20
53.852066
 30
0.0
 10
13.183374
 20
53.903743
 30
0.0
 10
13.139736
 20
53.947382
 30
0.0
  0
SPLINE
  5
2ab
100
AcDbEntity
  8
Layer_1
 62
7
100
AcDbSpline
 70
8
 71
3
 72
8
 73
4
 74
0
 40
0
 40
0
 40
0
 40
0
 40
1
 40
1
 40
1
 40
1
 10
13.139736
 20
53.947382
 30
0.0
 10
13.096098
 20
53.991019
 30
0.0
 10
13.044421
 20
54.012838
 30
0.0
 10
12.984706
 20
54.012838
 30
0.0
  0
LINE
  5
2ac
100
AcDbEntity
  8
Layer_1
 62
7
100
AcDbLine
 10
12.984706
 20
54.012838
 30
0.0
 11
11.441304
 21
54.012838
 31
0.0
  0
SPLINE
  5
2ad
100
AcDbEntity
  8
Layer_1
 62
7
100
AcDbSpline
 70
8
 71
3
 72
8
 73
4
 74
0
 40
0
 40
0
 40
0
 40
0
 40
1
 40
1
 40
1
 40
1
 10
11.441304
 20
54.012838
 30
0.0
 10
11.379292
 20
54.012838
 30
0.0
 10
11.320725
 20
54.024321
 30
0.0
 10
11.265604
 20
54.047289
 30
0.0
  0
SPLINE
  5
2ae
100
AcDbEntity
  8
Layer_1
 62
7
100
AcDbSpline
 70
8
 71
3
 72
8
 73
4
 74
0
 40
0
 40
0
 40
0
 40
0
 40
1
 40
1
 40
1
 40
1
 10
11.265604
 20
54.047289
 30
0.0
 10
11.212779
 20
54.070256
 30
0.0
 10
11.166844
 20
54.101262
 30
0.0
 10
11.127800
 20
54.140306
 30
0.0
  0
SPLINE
  5
2af
100
AcDbEntity
  8
Layer_1
 62
7
100
AcDbSpline
 70
8
 71
3
 72
8
 73
4
 74
0
 40
0
 40
0
 40
0
 40
0
 40
1
 40
1
 40
1
 40
1
 10
11.127800
 20
54.140306
 30
0.0
 10
11.088755
 20
54.179351
 30
0.0
 10
11.057750
 20
54.225285
 30
0.0
 10
11.034782
 20
54.278110
 30
0.0
  0
SPLINE
  5
2b0
100
AcDbEntity
  8
Layer_1
 62
7
100
AcDbSpline
 70
8
 71
3
 72
8
 73
4
 74
0
 40
0
 40
0
 40
0
 40
0
 40
1
 40
1
 40
1
 40
1
 10
11.034782
 20
54.278110
 30
0.0
 10
11.011815
 20
54.333231
 30
0.0
 10
11.000331
 20
54.391798
 30
0.0
 10
11.000331
 20
54.453810
 30
0.0
  0
LINE
  5
2b1
100
AcDbEntity
  8
Layer_1
 62
7
100
AcDbLine
 10
11.000331
 20
54.453810
 30
0.0
 11
11.000331
 21
57.320129
 31
0.0
  0
SPLINE
  5
2b2
100
AcDbEntity
  8
Layer_1
 62
7
100
AcDbSpline
 70
8
 71
3
 72
8
 73
4
 74
0
 40
0
 40
0
 40
0
 40
0
 40
1
 40
1
 40
1
 40
1
 10
11.000331
 20
57.320129
 30
0.0
 10
11.000331
 20
57.384438
 30
0.0
 10
11.022150
 20
57.437263
 30
0.0
 10
11.065788
 20
57.478603
 30
0.0
  0
SPLINE
  5
2b3
100
AcDbEntity
  8
Layer_1
 62
7
100
AcDbSpline
 70
8
 71
3
 72
8
 73
4
 74
0
 40
0
 40
0
 40
0
 40
0
 40
1
 40
1
 40
1
 40
1
 10
11.065788
 20
57.478603
 30
0.0
 10
11.109426
 20
57.519945
 30
0.0
 10
11.161102
 20
57.540615
 30
0.0
 10
11.220817
 20
57.540615
 30
0.0
  0
LINE
  5
2b4
100
AcDbEntity
  8
Layer_1
 62
7
100
AcDbLine
 10
11.220817
 20
57.540615
 30
0.0
 11
11.661790
 21
57.540615
 31
0.0
  0
SPLINE
  5
2b5
100
AcDbEntity
  8
Layer_1
 62
7
100
AcDbSpline
 70
8
 71
3
 72
8
 73
4
 74
0
 40
0
 40
0
 40
0
 40
0
 40
1
 40
1
 40
1
 40
1
 10
11.661790
 20
57.540615
 30
0.0
 10
11.721505
 20
57.540615
 30
0.0
 10
11.773181
 20
57.518797
 30
0.0
 10
11.816819
 20
57.475160
 30
0.0
  0
SPLINE
  5
2b6
100
AcDbEntity
  8
Layer_1
 62
7
100
AcDbSpline
 70
8
 71
3
 72
8
 73
4
 74
0
 40
0
 40
0
 40
0
 40
0
 40
1
 40
1
 40
1
 40
1
 10
11.816819
 20
57.475160
 30
0.0
 10
11.860457
 20
57.431521
 30
0.0
 10
11.882276
 20
57.379844
 30
0.0
 10
11.882276
 20
57.320129
 30
0.0
  0
LINE
  5
2b7
100
AcDbEntity
  8
Layer_1
 62
7
100
AcDbLine
 10
11.882276
 20
57.320129
 30
0.0
 11
11.882276
 21
55.115268
 31
0.0
  0
SPLINE
  5
2b8
100
AcDbEntity
  8
Layer_1
 62
7
100
AcDbSpline
 70
8
 71
3
 72
8
 73
4
 74
0
 40
0
 40
0
 40
0
 40
0
 40
1
 40
1
 40
1
 40
1
 10
11.882276
 20
55.115268
 30
0.0
 10
11.882276
 20
55.050959
 30
0.0
 10
11.902946
 20
54.998135
 30
0.0
 10
11.944288
 20
54.956795
 30
0.0
  0
SPLINE
  5
2b9
100
AcDbEntity
  8
Layer_1
 62
7
100
AcDbSpline
 70
8
 71
3
 72
8
 73
4
 74
0
 40
0
 40
0
 40
0
 40
0
 40
1
 40
1
 40
1
 40
1
 10
11.944288
 20
54.956795
 30
0.0
 10
11.985629
 20
54.915453
 30
0.0
 10
12.038453
 20
54.894782
 30
0.0
 10
12.102762
 20
54.894782
 30
0.0
  0
LINE
  5
2ba
100
AcDbEntity
  8
Layer_1
 62
7
100
AcDbLine
 10
12.102762
 20
54.894782
 30
0.0
 11
15.189567
 21
54.894782
 31
0.0
  0
SPLINE
  5
2bb
100
AcDbEntity
  8
Layer_1
 62
7
100
AcDbSpline
 70
8
 71
3
 72
8
 73
4
 74
0
 40
0
 40
0
 40
0
 40
0
 40
1
 40
1
 40
1
 40
1
 10
15.189567
 20
54.894782
 30
0.0
 10
15.253876
 20
54.894782
 30
0.0
 10
15.306701
 20
54.916601
 30
0.0
 10
15.348042
 20
54.960238
 30
0.0
  0
SPLINE
  5
2bc
100
AcDbEntity
  8
Layer_1
 62
7
100
AcDbSpline
 70
8
 71
3
 72
8
 73
4
 74
0
 40
0
 40
0
 40
0
 40
0
 40
1
 40
1
 40
1
 40
1
 10
15.348042
 20
54.960238
 30
0.0
 10
15.389383
 20
55.003877
 30
0.0
 10
15.410054
 20
55.055554
 30
0.0
 10
15.410054
 20
55.115268
 30
0.0
  0
LINE
  5
2bd
100
AcDbEntity
  8
Layer_1
 62
7
100
AcDbLine
 10
15.410054
 20
55.115268
 30
0.0
 11
15.410054
 21
57.320129
 31
0.0
  0
SPLINE
  5
2be
100
AcDbEntity
  8
Layer_1
 62
7
100
AcDbSpline
 70
8
 71
3
 72
8
 73
4
 74
0
 40
0
 40
0
 40
0
 40
0
 40
1
 40
1
 40
1
 40
1
 10
15.410054
 20
57.320129
 30
0.0
 10
15.410054
 20
57.384438
 30
0.0
 10
15.431873
 20
57.437263
 30
0.0
 10
15.475510
 20
57.478603
 30
0.0
  0
SPLINE
  5
2bf
100
AcDbEntity
  8
Layer_1
 62
7
100
AcDbSpline
 70
8
 71
3
 72
8
 73
4
 74
0
 40
0
 40
0
 40
0
 40
0
 40
1
 40
1
 40
1
 40
1
 10
15.475510
 20
57.478603
 30
0.0
 10
15.519148
 20
57.519945
 30
0.0
 10
15.570825
 20
57.540615
 30
0.0
 10
15.630540
 20
57.540615
 30
0.0
  0
LINE
  5
2c0
100
AcDbEntity
  8
Layer_1
 62
7
100
AcDbLine
 10
15.630540
 20
57.540615
 30
0.0
 11
16.071512
 21
57.540615
 31
0.0
  0
SPLINE
  5
2c1
100
AcDbEntity
  8
Layer_1
 62
7
100
AcDbSpline
 70
8
 71
3
 72
8
 73
4
 74
0
 40
0
 40
0
 40
0
 40
0
 40
1
 40
1
 40
1
 40
1
 10
16.071512
 20
57.540615
 30
0.0
 10
16.131227
 20
57.540615
 30
0.0
 10
16.182903
 20
57.518797
 30
0.0
 10
16.226541
 20
57.475160
 30
0.0
  0
SPLINE
  5
2c2
100
AcDbEntity
  8
Layer_1
 62
7
100
AcDbSpline
 70
8
 71
3
 72
8
 73
4
 74
0
 40
0
 40
0
 40
0
 40
0
 40
1
 40
1
 40
1
 40
1
 10
16.226541
 20
57.475160
 30
0.0
 10
16.270179
 20
57.431521
 30
0.0
 10
16.291998
 20
57.379844
 30
0.0
 10
16.291998
 20
57.320129
 30
0.0
  0
LINE
  5
2c3
100
AcDbEntity
  8
Layer_1
 62
7
100
AcDbLine
 10
16.291998
 20
57.320129
 30
0.0
 11
16.291998
 21
54.453810
 31
0.0
  0
SPLINE
  5
2c4
100
AcDbEntity
  8
Layer_1
 62
7
100
AcDbSpline
 70
8
 71
3
 72
8
 73
4
 74
0
 40
0
 40
0
 40
0
 40
0
 40
1
 40
1
 40
1
 40
1
 10
16.291998
 20
54.453810
 30
0.0
 10
16.291998
 20
54.394095
 30
0.0
 10
16.279366
 20
54.337826
 30
0.0
 10
16.254102
 20
54.285002
 30
0.0
  0
SPLINE
  5
2c5
100
AcDbEntity
  8
Layer_1
 62
7
100
AcDbSpline
 70
8
 71
3
 72
8
 73
4
 74
0
 40
0
 40
0
 40
0
 40
0
 40
1
 40
1
 40
1
 40
1
 10
16.254102
 20
54.285002
 30
0.0
 10
16.231135
 20
54.232177
 30
0.0
 10
16.198981
 20
54.185094
 30
0.0
 10
16.157639
 20
54.143752
 30
0.0
  0
SPLINE
  5
2c6
100
AcDbEntity
  8
Layer_1
 62
7
100
AcDbSpline
 70
8
 71
3
 72
8
 73
4
 74
0
 40
0
 40
0
 40
0
 40
0
 40
1
 40
1
 40
1
 40
1
 10
16.157639
 20
54.143752
 30
0.0
 10
16.118595
 20
54.104708
 30
0.0
 10
16.072660
 20
54.072553
 30
0.0
 10
16.019836
 20
54.047289
 30
0.0
  0
SPLINE
  5
2c7
100
AcDbEntity
  8
Layer_1
 62
7
100
AcDbSpline
 70
8
 71
3
 72
8
 73
4
 74
0
 40
0
 40
0
 40
0
 40
0
 40
1
 40
1
 40
1
 40
1
 10
16.019836
 20
54.047289
 30
0.0
 10
15.967011
 20
54.024321
 30
0.0
 10
15.910741
 20
54.012838
 30
0.0
 10
15.851026
 20
54.012838
 30
0.0
  0
LINE
  5
2c8
100
AcDbEntity
  8
Layer_1
 62
7
100
AcDbLine
 10
15.851026
 20
54.012838
 30
0.0
 11
14.307623
 21
54.012838
 31
0.0
  0
SPLINE
  5
2c9
100
AcDbEntity
  8
Layer_1
 62
7
100
AcDbSpline
 70
8
 71
3
 72
8
 73
4
 74
0
 40
0
 40
0
 40
0
 40
0
 40
1
 40
1
 40
1
 40
1
 10
14.307623
 20
54.012838
 30
0.0
 10
14.247908
 20
54.012838
 30
0.0
 10
14.196232
 20
53.992167
 30
0.0
 10
14.152594
 20
53.950825
 30
0.0
  0
SPLINE
  5
2ca
100
AcDbEntity
  8
Layer_1
 62
7
100
AcDbSpline
 70
8
 71
3
 72
8
 73
4
 74
0
 40
0
 40
0
 40
0
 40
0
 40
1
 40
1
 40
1
 40
1
 10
14.152594
 20
53.950825
 30
0.0
 10
14.108956
 20
53.909485
 30
0.0
 10
14.087137
 20
53.856661
 30
0.0
 10
14.087137
 20
53.792352
 30
0.0
  0
LINE
  5
2cb
100
AcDbEntity
  8
Layer_1
 62
7
100
AcDbLine
 10
14.087137
 20
53.792352
 30
0.0
 11
14.087137
 21
52.469435
 31
0.0
  0
SPLINE
  5
2cc
100
AcDbEntity
  8
Layer_1
 62
7
100
AcDbSpline
 70
8
 71
3
 72
8
 73
4
 74
0
 40
0
 40
0
 40
0
 40
0
 40
1
 40
1
 40
1
 40
1
 10
14.087137
 20
52.469435
 30
0.0
 10
14.087137
 20
52.405126
 30
0.0
 10
14.107807
 20
52.352301
 30
0.0
 10
14.149149
 20
52.310962
 30
0.0
  0
SPLINE
  5
2cd
100
AcDbEntity
  8
Layer_1
 62
7
100
AcDbSpline
 70
8
 71
3
 72
8
 73
4
 74
0
 40
0
 40
0
 40
0
 40
0
 40
1
 40
1
 40
1
 40
1
 10
14.149149
 20
52.310962
 30
0.0
 10
14.190490
 20
52.269620
 30
0.0
 10
14.243315
 20
52.248949
 30
0.0
 10
14.307623
 20
52.248949
 30
0.0
  0
LINE
  5
2ce
100
AcDbEntity
  8
Layer_1
 62
7
100
AcDbLine
 10
14.307623
 20
52.248949
 30
0.0
 11
16.071512
 21
52.248949
 31
0.0
  0
SPLINE
  5
2cf
100
AcDbEntity
  8
Layer_1
 62
7
100
AcDbSpline
 70
8
 71
3
 72
8
 73
4
 74
0
 40
0
 40
0
 40
0
 40
0
 40
1
 40
1
 40
1
 40
1
 10
16.071512
 20
52.248949
 30
0.0
 10
16.131227
 20
52.248949
 30
0.0
 10
16.182903
 20
52.227130
 30
0.0
 10
16.226541
 20
52.183493
 30
0.0
  0
SPLINE
  5
2d0
100
AcDbEntity
  8
Layer_1
 62
7
100
AcDbSpline
 70
8
 71
3
 72
8
 73
4
 74
0
 40
0
 40
0
 40
0
 40
0
 40
1
 40
1
 40
1
 40
1
 10
16.226541
 20
52.183493
 30
0.0
 10
16.270179
 20
52.139854
 30
0.0
 10
16.291998
 20
52.088177
 30
0.0
 10
16.291998
 20
52.028463
 30
0.0
  0
LINE
  5
2d1
100
AcDbEntity
  8
Layer_1
 62
7
100
AcDbLine
 10
16.291998
 20
52.028463
 30
0.0
 11
16.291998
 21
51.587490
 31
0.0
  0
SPLINE
  5
2d2
100
AcDbEntity
  8
Layer_1
 62
7
100
AcDbSpline
 70
8
 71
3
 72
8
 73
4
 74
0
 40
0
 40
0
 40
0
 40
0
 40
1
 40
1
 40
1
 40
1
 10
16.291998
 20
51.587490
 30
0.0
 10
16.291998
 20
51.527776
 30
0.0
 10
16.271327
 20
51.476099
 30
0.0
 10
16.229986
 20
51.432460
 30
0.0
  0
SPLINE
  5
2d3
100
AcDbEntity
  8
Layer_1
 62
7
100
AcDbSpline
 70
8
 71
3
 72
8
 73
4
 74
0
 40
0
 40
0
 40
0
 40
0
 40
1
 40
1
 40
1
 40
1
 10
16.229986
 20
51.432460
 30
0.0
 10
16.188645
 20
51.388823
 30
0.0
 10
16.135820
 20
51.367004
 30
0.0
 10
16.071512
 20
51.367004
 30
0.0
  0
LINE
  5
2d4
100
AcDbEntity
  8
Layer_1
 62
7
100
AcDbLine
 10
16.071512
 20
51.367004
 30
0.0
 11
11.220817
 21
51.367004
 31
0.0
  0
LINE
  5
2d5
100
AcDbEntity
  8
Layer_1
 62
7
100
AcDbLine
 10
11.220817
 20
51.367004
 30
0.0
 11
11.220817
 21
51.367004
 31
0.0
  0
SPLINE
  5
2d6
100
AcDbEntity
  8
Layer_1
 62
7
100
AcDbSpline
 70
8
 71
3
 72
8
 73
4
 74
0
 40
0
 40
0
 40
0
 40
0
 40
1
 40
1
 40
1
 40
1
 10
12.984706
 20
36.901704
 30
0.0
 10
13.049015
 20
36.901704
 30
0.0
 10
13.101840
 20
36.923523
 30
0.0
 10
13.143181
 20
36.967160
 30
0.0
  0
SPLINE
  5
2d7
100
AcDbEntity
  8
Layer_1
 62
7
100
AcDbSpline
 70
8
 71
3
 72
8
 73
4
 74
0
 40
0
 40
0
 40
0
 40
0
 40
1
 40
1
 40
1
 40
1
 10
13.143181
 20
36.967160
 30
0.0
 10
13.184522
 20
37.010797
 30
0.0
 10
13.205192
 20
37.062474
 30
0.0
 10
13.205192
 20
37.122190
 30
0.0
  0
LINE
  5
2d8
100
AcDbEntity
  8
Layer_1
 62
7
100
AcDbLine
 10
13.205192
 20
37.122190
 30
0.0
 11
13.205192
 21
39.327052
 31
0.0
  0
SPLINE
  5
2d9
100
AcDbEntity
  8
Layer_1
 62
7
100
AcDbSpline
 70
8
 71
3
 72
8
 73
4
 74
0
 40
0
 40
0
 40
0
 40
0
 40
1
 40
1
 40
1
 40
1
 10
13.205192
 20
39.327052
 30
0.0
 10
13.205192
 20
39.386766
 30
0.0
 10
13.183374
 20
39.438442
 30
0.0
 10
13.139736
 20
39.482079
 30
0.0
  0
SPLINE
  5
2da
100
AcDbEntity
  8
Layer_1
 62
7
100
AcDbSpline
 70
8
 71
3
 72
8
 73
4
 74
0
 40
0
 40
0
 40
0
 40
0
 40
1
 40
1
 40
1
 40
1
 10
13.139736
 20
39.482079
 30
0.0
 10
13.096098
 20
39.525718
 30
0.0
 10
13.044421
 20
39.547538
 30
0.0
 10
12.984706
 20
39.547538
 30
0.0
  0
LINE
  5
2db
100
AcDbEntity
  8
Layer_1
 62
7
100
AcDbLine
 10
12.984706
 20
39.547538
 30
0.0
 11
12.102762
 21
39.547538
 31
0.0
  0
SPLINE
  5
2dc
100
AcDbEntity
  8
Layer_1
 62
7
100
AcDbSpline
 70
8
 71
3
 72
8
 73
4
 74
0
 40
0
 40
0
 40
0
 40
0
 40
1
 40
1
 40
1
 40
1
 10
12.102762
 20
39.547538
 30
0.0
 10
12.043047
 20
39.547538
 30
0.0
 10
11.991370
 20
39.526867
 30
0.0
 10
11.947733
 20
39.485525
 30
0.0
  0
SPLINE
  5
2dd
100
AcDbEntity
  8
Layer_1
 62
7
100
AcDbSpline
 70
8
 71
3
 72
8
 73
4
 74
0
 40
0
 40
0
 40
0
 40
0
 40
1
 40
1
 40
1
 40
1
 10
11.947733
 20
39.485525
 30
0.0
 10
11.904095
 20
39.444183
 30
0.0
 10
11.882276
 20
39.391359
 30
0.0
 10
11.882276
 20
39.327052
 30
0.0
  0
LINE
  5
2de
100
AcDbEntity
  8
Layer_1
 62
7
100
AcDbLine
 10
11.882276
 20
39.327052
 30
0.0
 11
11.882276
 21
37.122190
 31
0.0
  0
SPLINE
  5
2df
100
AcDbEntity
  8
Layer_1
 62
7
100
AcDbSpline
 70
8
 71
3
 72
8
 73
4
 74
0
 40
0
 40
0
 40
0
 40
0
 40
1
 40
1
 40
1
 40
1
 10
11.882276
 20
37.122190
 30
0.0
 10
11.882276
 20
37.057881
 30
0.0
 10
11.902946
 20
37.005056
 30
0.0
 10
11.944288
 20
36.963714
 30
0.0
  0
SPLINE
  5
2e0
100
AcDbEntity
  8
Layer_1
 62
7
100
AcDbSpline
 70
8
 71
3
 72
8
 73
4
 74
0
 40
0
 40
0
 40
0
 40
0
 40
1
 40
1
 40
1
 40
1
 10
11.944288
 20
36.963714
 30
0.0
 10
11.985629
 20
36.922374
 30
0.0
 10
12.038453
 20
36.901704
 30
0.0
 10
12.102762
 20
36.901704
 30
0.0
  0
LINE
  5
2e1
100
AcDbEntity
  8
Layer_1
 62
7
100
AcDbLine
 10
12.102762
 20
36.901704
 30
0.0
 11
12.984706
 21
36.901704
 31
0.0
  0
LINE
  5
2e2
100
AcDbEntity
  8
Layer_1
 62
7
100
AcDbLine
 10
12.984706
 20
36.901704
 30
0.0
 11
12.984706
 21
36.901704
 31
0.0
  0
SPLINE
  5
2e3
100
AcDbEntity
  8
Layer_1
 62
7
100
AcDbSpline
 70
8
 71
3
 72
8
 73
4
 74
0
 40
0
 40
0
 40
0
 40
0
 40
1
 40
1
 40
1
 40
1
 10
11.220817
 20
34.255871
 30
0.0
 10
11.156509
 20
34.255871
 30
0.0
 10
11.103684
 20
34.276541
 30
0.0
 10
11.062343
 20
34.317881
 30
0.0
  0
SPLINE
  5
2e4
100
AcDbEntity
  8
Layer_1
 62
7
100
AcDbSpline
 70
8
 71
3
 72
8
 73
4
 74
0
 40
0
 40
0
 40
0
 40
0
 40
1
 40
1
 40
1
 40
1
 10
11.062343
 20
34.317881
 30
0.0
 10
11.021002
 20
34.359223
 30
0.0
 10
11.000331
 20
34.412048
 30
0.0
 10
11.000331
 20
34.476357
 30
0.0
  0
LINE
  5
2e5
100
AcDbEntity
  8
Layer_1
 62
7
100
AcDbLine
 10
11.000331
 20
34.476357
 30
0.0
 11
11.000331
 21
34.917329
 31
0.0
  0
SPLINE
  5
2e6
100
AcDbEntity
  8
Layer_1
 62
7
100
AcDbSpline
 70
8
 71
3
 72
8
 73
4
 74
0
 40
0
 40
0
 40
0
 40
0
 40
1
 40
1
 40
1
 40
1
 10
11.000331
 20
34.917329
 30
0.0
 10
11.000331
 20
34.981637
 30
0.0
 10
11.022150
 20
35.034461
 30
0.0
 10
11.065788
 20
35.075803
 30
0.0
  0
SPLINE
  5
2e7
100
AcDbEntity
  8
Layer_1
 62
7
100
AcDbSpline
 70
8
 71
3
 72
8
 73
4
 74
0
 40
0
 40
0
 40
0
 40
0
 40
1
 40
1
 40
1
 40
1
 10
11.065788
 20
35.075803
 30
0.0
 10
11.109426
 20
35.117145
 30
0.0
 10
11.161102
 20
35.137815
 30
0.0
 10
11.220817
 20
35.137815
 30
0.0
  0
LINE
  5
2e8
100
AcDbEntity
  8
Layer_1
 62
7
100
AcDbLine
 10
11.220817
 20
35.137815
 30
0.0
 11
15.189567
 21
35.137815
 31
0.0
  0
SPLINE
  5
2e9
100
AcDbEntity
  8
Layer_1
 62
7
100
AcDbSpline
 70
8
 71
3
 72
8
 73
4
 74
0
 40
0
 40
0
 40
0
 40
0
 40
1
 40
1
 40
1
 40
1
 10
15.189567
 20
35.137815
 30
0.0
 10
15.253876
 20
35.137815
 30
0.0
 10
15.306701
 20
35.159634
 30
0.0
 10
15.348042
 20
35.203271
 30
0.0
  0
SPLINE
  5
2ea
100
AcDbEntity
  8
Layer_1
 62
7
100
AcDbSpline
 70
8
 71
3
 72
8
 73
4
 74
0
 40
0
 40
0
 40
0
 40
0
 40
1
 40
1
 40
1
 40
1
 10
15.348042
 20
35.203271
 30
0.0
 10
15.389383
 20
35.246908
 30
0.0
 10
15.410054
 20
35.298585
 30
0.0
 10
15.410054
 20
35.358302
 30
0.0
  0
LINE
  5
2eb
100
AcDbEntity
  8
Layer_1
 62
7
100
AcDbLine
 10
15.410054
 20
35.358302
 30
0.0
 11
15.410054
 21
36.681218
 31
0.0
  0
SPLINE
  5
2ec
100
AcDbEntity
  8
Layer_1
 62
7
100
AcDbSpline
 70
8
 71
3
 72
8
 73
4
 74
0
 40
0
 40
0
 40
0
 40
0
 40
1
 40
1
 40
1
 40
1
 10
15.410054
 20
36.681218
 30
0.0
 10
15.410054
 20
36.740933
 30
0.0
 10
15.388235
 20
36.792609
 30
0.0
 10
15.344597
 20
36.836246
 30
0.0
  0
SPLINE
  5
2ed
100
AcDbEntity
  8
Layer_1
 62
7
100
AcDbSpline
 70
8
 71
3
 72
8
 73
4
 74
0
 40
0
 40
0
 40
0
 40
0
 40
1
 40
1
 40
1
 40
1
 10
15.344597
 20
36.836246
 30
0.0
 10
15.300959
 20
36.879885
 30
0.0
 10
15.249282
 20
36.901704
 30
0.0
 10
15.189567
 20
36.901704
 30
0.0
  0
LINE
  5
2ee
100
AcDbEntity
  8
Layer_1
 62
7
100
AcDbLine
 10
15.189567
 20
36.901704
 30
0.0
 11
14.307623
 21
36.901704
 31
0.0
  0
SPLINE
  5
2ef
100
AcDbEntity
  8
Layer_1
 62
7
100
AcDbSpline
 70
8
 71
3
 72
8
 73
4
 74
0
 40
0
 40
0
 40
0
 40
0
 40
1
 40
1
 40
1
 40
1
 10
14.307623
 20
36.901704
 30
0.0
 10
14.247908
 20
36.901704
 30
0.0
 10
14.196232
 20
36.881033
 30
0.0
 10
14.152594
 20
36.839692
 30
0.0
  0
SPLINE
  5
2f0
100
AcDbEntity
  8
Layer_1
 62
7
100
AcDbSpline
 70
8
 71
3
 72
8
 73
4
 74
0
 40
0
 40
0
 40
0
 40
0
 40
1
 40
1
 40
1
 40
1
 10
14.152594
 20
36.839692
 30
0.0
 10
14.108956
 20
36.798350
 30
0.0
 10
14.087137
 20
36.745525
 30
0.0
 10
14.087137
 20
36.681218
 30
0.0
  0
LINE
  5
2f1
100
AcDbEntity
  8
Layer_1
 62
7
100
AcDbLine
 10
14.087137
 20
36.681218
 30
0.0
 11
14.087137
 21
36.460732
 31
0.0
  0
SPLINE
  5
2f2
100
AcDbEntity
  8
Layer_1
 62
7
100
AcDbSpline
 70
8
 71
3
 72
8
 73
4
 74
0
 40
0
 40
0
 40
0
 40
0
 40
1
 40
1
 40
1
 40
1
 10
14.087137
 20
36.460732
 30
0.0
 10
14.087137
 20
36.401016
 30
0.0
 10
14.074505
 20
36.344745
 30
0.0
 10
14.049241
 20
36.291921
 30
0.0
  0
SPLINE
  5
2f3
100
AcDbEntity
  8
Layer_1
 62
7
100
AcDbSpline
 70
8
 71
3
 72
8
 73
4
 74
0
 40
0
 40
0
 40
0
 40
0
 40
1
 40
1
 40
1
 40
1
 10
14.049241
 20
36.291921
 30
0.0
 10
14.026274
 20
36.239096
 30
0.0
 10
13.994119
 20
36.192013
 30
0.0
 10
13.952778
 20
36.150672
 30
0.0
  0
SPLINE
  5
2f4
100
AcDbEntity
  8
Layer_1
 62
7
100
AcDbSpline
 70
8
 71
3
 72
8
 73
4
 74
0
 40
0
 40
0
 40
0
 40
0
 40
1
 40
1
 40
1
 40
1
 10
13.952778
 20
36.150672
 30
0.0
 10
13.913734
 20
36.111627
 30
0.0
 10
13.867799
 20
36.079473
 30
0.0
 10
13.814974
 20
36.054211
 30
0.0
  0
SPLINE
  5
2f5
100
AcDbEntity
  8
Layer_1
 62
7
100
AcDbSpline
 70
8
 71
3
 72
8
 73
4
 74
0
 40
0
 40
0
 40
0
 40
0
 40
1
 40
1
 40
1
 40
1
 10
13.814974
 20
36.054211
 30
0.0
 10
13.762150
 20
36.031244
 30
0.0
 10
13.705880
 20
36.019760
 30
0.0
 10
13.646165
 20
36.019760
 30
0.0
  0
LINE
  5
2f6
100
AcDbEntity
  8
Layer_1
 62
7
100
AcDbLine
 10
13.646165
 20
36.019760
 30
0.0
 11
11.441304
 21
36.019760
 31
0.0
  0
SPLINE
  5
2f7
100
AcDbEntity
  8
Layer_1
 62
7
100
AcDbSpline
 70
8
 71
3
 72
8
 73
4
 74
0
 40
0
 40
0
 40
0
 40
0
 40
1
 40
1
 40
1
 40
1
 10
11.441304
 20
36.019760
 30
0.0
 10
11.379292
 20
36.019760
 30
0.0
 10
11.320725
 20
36.031244
 30
0.0
 10
11.265604
 20
36.054211
 30
0.0
  0
SPLINE
  5
2f8
100
AcDbEntity
  8
Layer_1
 62
7
100
AcDbSpline
 70
8
 71
3
 72
8
 73
4
 74
0
 40
0
 40
0
 40
0
 40
0
 40
1
 40
1
 40
1
 40
1
 10
11.265604
 20
36.054211
 30
0.0
 10
11.212779
 20
36.077178
 30
0.0
 10
11.166844
 20
36.108184
 30
0.0
 10
11.127800
 20
36.147228
 30
0.0
  0
SPLINE
  5
2f9
100
AcDbEntity
  8
Layer_1
 62
7
100
AcDbSpline
 70
8
 71
3
 72
8
 73
4
 74
0
 40
0
 40
0
 40
0
 40
0
 40
1
 40
1
 40
1
 40
1
 10
11.127800
 20
36.147228
 30
0.0
 10
11.088755
 20
36.186273
 30
0.0
 10
11.057750
 20
36.232207
 30
0.0
 10
11.034782
 20
36.285032
 30
0.0
  0
SPLINE
  5
2fa
100
AcDbEntity
  8
Layer_1
 62
7
100
AcDbSpline
 70
8
 71
3
 72
8
 73
4
 74
0
 40
0
 40
0
 40
0
 40
0
 40
1
 40
1
 40
1
 40
1
 10
11.034782
 20
36.285032
 30
0.0
 10
11.011815
 20
36.340154
 30
0.0
 10
11.000331
 20
36.398720
 30
0.0
 10
11.000331
 20
36.460732
 30
0.0
  0
LINE
  5
2fb
100
AcDbEntity
  8
Layer_1
 62
7
100
AcDbLine
 10
11.000331
 20
36.460732
 30
0.0
 11
11.000331
 21
39.988510
 31
0.0
  0
SPLINE
  5
2fc
100
AcDbEntity
  8
Layer_1
 62
7
100
AcDbSpline
 70
8
 71
3
 72
8
 73
4
 74
0
 40
0
 40
0
 40
0
 40
0
 40
1
 40
1
 40
1
 40
1
 10
11.000331
 20
39.988510
 30
0.0
 10
11.000331
 20
40.048224
 30
0.0
 10
11.011815
 20
40.104494
 30
0.0
 10
11.034782
 20
40.157318
 30
0.0
  0
SPLINE
  5
2fd
100
AcDbEntity
  8
Layer_1
 62
7
100
AcDbSpline
 70
8
 71
3
 72
8
 73
4
 74
0
 40
0
 40
0
 40
0
 40
0
 40
1
 40
1
 40
1
 40
1
 10
11.034782
 20
40.157318
 30
0.0
 10
11.060046
 20
40.210143
 30
0.0
 10
11.092201
 20
40.256077
 30
0.0
 10
11.131245
 20
40.295122
 30
0.0
  0
SPLINE
  5
2fe
100
AcDbEntity
  8
Layer_1
 62
7
100
AcDbSpline
 70
8
 71
3
 72
8
 73
4
 74
0
 40
0
 40
0
 40
0
 40
0
 40
1
 40
1
 40
1
 40
1
 10
11.131245
 20
40.295122
 30
0.0
 10
11.172586
 20
40.336464
 30
0.0
 10
11.219669
 20
40.368618
 30
0.0
 10
11.272494
 20
40.391585
 30
0.0
  0
SPLINE
  5
2ff
100
AcDbEntity
  8
Layer_1
 62
7
100
AcDbSpline
 70
8
 71
3
 72
8
 73
4
 74
0
 40
0
 40
0
 40
0
 40
0
 40
1
 40
1
 40
1
 40
1
 10
11.272494
 20
40.391585
 30
0.0
 10
11.325319
 20
40.416850
 30
0.0
 10
11.381589
 20
40.429482
 30
0.0
 10
11.441304
 20
40.429482
 30
0.0
  0
LINE
  5
300
100
AcDbEntity
  8
Layer_1
 62
7
100
AcDbLine
 10
11.441304
 20
40.429482
 30
0.0
 11
13.646165
 21
40.429482
 31
0.0
  0
SPLINE
  5
301
100
AcDbEntity
  8
Layer_1
 62
7
100
AcDbSpline
 70
8
 71
3
 72
8
 73
4
 74
0
 40
0
 40
0
 40
0
 40
0
 40
1
 40
1
 40
1
 40
1
 10
13.646165
 20
40.429482
 30
0.0
 10
13.705880
 20
40.429482
 30
0.0
 10
13.762150
 20
40.416850
 30
0.0
 10
13.814974
 20
40.391585
 30
0.0
  0
SPLINE
  5
302
100
AcDbEntity
  8
Layer_1
 62
7
100
AcDbSpline
 70
8
 71
3
 72
8
 73
4
 74
0
 40
0
 40
0
 40
0
 40
0
 40
1
 40
1
 40
1
 40
1
 10
13.814974
 20
40.391585
 30
0.0
 10
13.867799
 20
40.368618
 30
0.0
 10
13.913734
 20
40.336464
 30
0.0
 10
13.952778
 20
40.295122
 30
0.0
  0
SPLINE
  5
303
100
AcDbEntity
  8
Layer_1
 62
7
100
AcDbSpline
 70
8
 71
3
 72
8
 73
4
 74
0
 40
0
 40
0
 40
0
 40
0
 40
1
 40
1
 40
1
 40
1
 10
13.952778
 20
40.295122
 30
0.0
 10
13.994119
 20
40.256077
 30
0.0
 10
14.026274
 20
40.210143
 30
0.0
 10
14.049241
 20
40.157318
 30
0.0
  0
SPLINE
  5
304
100
AcDbEntity
  8
Layer_1
 62
7
100
AcDbSpline
 70
8
 71
3
 72
8
 73
4
 74
0
 40
0
 40
0
 40
0
 40
0
 40
1
 40
1
 40
1
 40
1
 10
14.049241
 20
40.157318
 30
0.0
 10
14.074505
 20
40.104494
 30
0.0
 10
14.087137
 20
40.048224
 30
0.0
 10
14.087137
 20
39.988510
 30
0.0
  0
LINE
  5
305
100
AcDbEntity
  8
Layer_1
 62
7
100
AcDbLine
 10
14.087137
 20
39.988510
 30
0.0
 11
14.087137
 21
38.004135
 31
0.0
  0
SPLINE
  5
306
100
AcDbEntity
  8
Layer_1
 62
7
100
AcDbSpline
 70
8
 71
3
 72
8
 73
4
 74
0
 40
0
 40
0
 40
0
 40
0
 40
1
 40
1
 40
1
 40
1
 10
14.087137
 20
38.004135
 30
0.0
 10
14.087137
 20
37.939826
 30
0.0
 10
14.107807
 20
37.887000
 30
0.0
 10
14.149149
 20
37.845659
 30
0.0
  0
SPLINE
  5
307
100
AcDbEntity
  8
Layer_1
 62
7
100
AcDbSpline
 70
8
 71
3
 72
8
 73
4
 74
0
 40
0
 40
0
 40
0
 40
0
 40
1
 40
1
 40
1
 40
1
 10
14.149149
 20
37.845659
 30
0.0
 10
14.190490
 20
37.804319
 30
0.0
 10
14.243315
 20
37.783649
 30
0.0
 10
14.307623
 20
37.783649
 30
0.0
  0
LINE
  5
308
100
AcDbEntity
  8
Layer_1
 62
7
100
AcDbLine
 10
14.307623
 20
37.783649
 30
0.0
 11
15.851026
 21
37.783649
 31
0.0
  0
SPLINE
  5
309
100
AcDbEntity
  8
Layer_1
 62
7
100
AcDbSpline
 70
8
 71
3
 72
8
 73
4
 74
0
 40
0
 40
0
 40
0
 40
0
 40
1
 40
1
 40
1
 40
1
 10
15.851026
 20
37.783649
 30
0.0
 10
15.910741
 20
37.783649
 30
0.0
 10
15.967011
 20
37.771017
 30
0.0
 10
16.019836
 20
37.745752
 30
0.0
  0
SPLINE
  5
30a
100
AcDbEntity
  8
Layer_1
 62
7
100
AcDbSpline
 70
8
 71
3
 72
8
 73
4
 74
0
 40
0
 40
0
 40
0
 40
0
 40
1
 40
1
 40
1
 40
1
 10
16.019836
 20
37.745752
 30
0.0
 10
16.072660
 20
37.722785
 30
0.0
 10
16.118595
 20
37.690630
 30
0.0
 10
16.157639
 20
37.649288
 30
0.0
  0
SPLINE
  5
30b
100
AcDbEntity
  8
Layer_1
 62
7
100
AcDbSpline
 70
8
 71
3
 72
8
 73
4
 74
0
 40
0
 40
0
 40
0
 40
0
 40
1
 40
1
 40
1
 40
1
 10
16.157639
 20
37.649288
 30
0.0
 10
16.198981
 20
37.610244
 30
0.0
 10
16.231135
 20
37.564309
 30
0.0
 10
16.254102
 20
37.511485
 30
0.0
  0
SPLINE
  5
30c
100
AcDbEntity
  8
Layer_1
 62
7
100
AcDbSpline
 70
8
 71
3
 72
8
 73
4
 74
0
 40
0
 40
0
 40
0
 40
0
 40
1
 40
1
 40
1
 40
1
 10
16.254102
 20
37.511485
 30
0.0
 10
16.279366
 20
37.458661
 30
0.0
 10
16.291998
 20
37.402391
 30
0.0
 10
16.291998
 20
37.342677
 30
0.0
  0
LINE
  5
30d
100
AcDbEntity
  8
Layer_1
 62
7
100
AcDbLine
 10
16.291998
 20
37.342677
 30
0.0
 11
16.291998
 21
34.696843
 31
0.0
  0
SPLINE
  5
30e
100
AcDbEntity
  8
Layer_1
 62
7
100
AcDbSpline
 70
8
 71
3
 72
8
 73
4
 74
0
 40
0
 40
0
 40
0
 40
0
 40
1
 40
1
 40
1
 40
1
 10
16.291998
 20
34.696843
 30
0.0
 10
16.291998
 20
34.637127
 30
0.0
 10
16.279366
 20
34.580857
 30
0.0
 10
16.254102
 20
34.528032
 30
0.0
  0
SPLINE
  5
30f
100
AcDbEntity
  8
Layer_1
 62
7
100
AcDbSpline
 70
8
 71
3
 72
8
 73
4
 74
0
 40
0
 40
0
 40
0
 40
0
 40
1
 40
1
 40
1
 40
1
 10
16.254102
 20
34.528032
 30
0.0
 10
16.231135
 20
34.475208
 30
0.0
 10
16.198981
 20
34.428124
 30
0.0
 10
16.157639
 20
34.386783
 30
0.0
  0
SPLINE
  5
310
100
AcDbEntity
  8
Layer_1
 62
7
100
AcDbSpline
 70
8
 71
3
 72
8
 73
4
 74
0
 40
0
 40
0
 40
0
 40
0
 40
1
 40
1
 40
1
 40
1
 10
16.157639
 20
34.386783
 30
0.0
 10
16.118595
 20
34.347738
 30
0.0
 10
16.072660
 20
34.315585
 30
0.0
 10
16.019836
 20
34.290322
 30
0.0
  0
SPLINE
  5
311
100
AcDbEntity
  8
Layer_1
 62
7
100
AcDbSpline
 70
8
 71
3
 72
8
 73
4
 74
0
 40
0
 40
0
 40
0
 40
0
 40
1
 40
1
 40
1
 40
1
 10
16.019836
 20
34.290322
 30
0.0
 10
15.967011
 20
34.267355
 30
0.0
 10
15.910741
 20
34.255871
 30
0.0
 10
15.851026
 20
34.255871
 30
0.0
  0
LINE
  5
312
100
AcDbEntity
  8
Layer_1
 62
7
100
AcDbLine
 10
15.851026
 20
34.255871
 30
0.0
 11
11.220817
 21
34.255871
 31
0.0
  0
LINE
  5
313
100
AcDbEntity
  8
Layer_1
 62
7
100
AcDbLine
 10
11.220817
 20
34.255871
 30
0.0
 11
11.220817
 21
34.255871
 31
0.0
  0
SPLINE
  5
314
100
AcDbEntity
  8
Layer_1
 62
7
100
AcDbSpline
 70
8
 71
3
 72
8
 73
4
 74
0
 40
0
 40
0
 40
0
 40
0
 40
1
 40
1
 40
1
 40
1
 10
11.220817
 20
17.144743
 30
0.0
 10
11.156509
 20
17.144743
 30
0.0
 10
11.103684
 20
17.165414
 30
0.0
 10
11.062343
 20
17.206756
 30
0.0
  0
SPLINE
  5
315
100
AcDbEntity
  8
Layer_1
 62
7
100
AcDbSpline
 70
8
 71
3
 72
8
 73
4
 74
0
 40
0
 40
0
 40
0
 40
0
 40
1
 40
1
 40
1
 40
1
 10
11.062343
 20
17.206756
 30
0.0
 10
11.021002
 20
17.248098
 30
0.0
 10
11.000331
 20
17.300922
 30
0.0
 10
11.000331
 20
17.365229
 30
0.0
  0
LINE
  5
316
100
AcDbEntity
  8
Layer_1
 62
7
100
AcDbLine
 10
11.000331
 20
17.365229
 30
0.0
 11
11.000331
 21
17.806202
 31
0.0
  0
SPLINE
  5
317
100
AcDbEntity
  8
Layer_1
 62
7
100
AcDbSpline
 70
8
 71
3
 72
8
 73
4
 74
0
 40
0
 40
0
 40
0
 40
0
 40
1
 40
1
 40
1
 40
1
 10
11.000331
 20
17.806202
 30
0.0
 10
11.000331
 20
17.856731
 30
0.0
 10
11.010667
 20
17.895775
 30
0.0
 10
11.031337
 20
17.923335
 30
0.0
  0
SPLINE
  5
318
100
AcDbEntity
  8
Layer_1
 62
7
100
AcDbSpline
 70
8
 71
3
 72
8
 73
4
 74
0
 40
0
 40
0
 40
0
 40
0
 40
1
 40
1
 40
1
 40
1
 10
11.031337
 20
17.923335
 30
0.0
 10
11.054305
 20
17.950897
 30
0.0
 10
11.081865
 20
17.972716
 30
0.0
 10
11.114019
 20
17.988791
 30
0.0
  0
SPLINE
  5
319
100
AcDbEntity
  8
Layer_1
 62
7
100
AcDbSpline
 70
8
 71
3
 72
8
 73
4
 74
0
 40
0
 40
0
 40
0
 40
0
 40
1
 40
1
 40
1
 40
1
 10
11.114019
 20
17.988791
 30
0.0
 10
11.146174
 20
18.004859
 30
0.0
 10
11.181773
 20
18.017491
 30
0.0
 10
11.220817
 20
18.026688
 30
0.0
  0
SPLINE
  5
31a
100
AcDbEntity
  8
Layer_1
 62
7
100
AcDbSpline
 70
8
 71
3
 72
8
 73
4
 74
0
 40
0
 40
0
 40
0
 40
0
 40
1
 40
1
 40
1
 40
1
 10
11.220817
 20
18.026688
 30
0.0
 10
11.259862
 20
18.035869
 30
0.0
 10
11.295461
 20
18.048502
 30
0.0
 10
11.327615
 20
18.064585
 30
0.0
  0
SPLINE
  5
31b
100
AcDbEntity
  8
Layer_1
 62
7
100
AcDbSpline
 70
8
 71
3
 72
8
 73
4
 74
0
 40
0
 40
0
 40
0
 40
0
 40
1
 40
1
 40
1
 40
1
 10
11.327615
 20
18.064585
 30
0.0
 10
11.359770
 20
18.080671
 30
0.0
 10
11.386182
 20
18.102490
 30
0.0
 10
11.406853
 20
18.130040
 30
0.0
  0
SPLINE
  5
31c
100
AcDbEntity
  8
Layer_1
 62
7
100
AcDbSpline
 70
8
 71
3
 72
8
 73
4
 74
0
 40
0
 40
0
 40
0
 40
0
 40
1
 40
1
 40
1
 40
1
 10
11.406853
 20
18.130040
 30
0.0
 10
11.429820
 20
18.157602
 30
0.0
 10
11.441304
 20
18.196647
 30
0.0
 10
11.441304
 20
18.247174
 30
0.0
  0
LINE
  5
31d
100
AcDbEntity
  8
Layer_1
 62
7
100
AcDbLine
 10
11.441304
 20
18.247174
 30
0.0
 11
11.441304
 21
22.215924
 31
0.0
  0
SPLINE
  5
31e
100
AcDbEntity
  8
Layer_1
 62
7
100
AcDbSpline
 70
8
 71
3
 72
8
 73
4
 74
0
 40
0
 40
0
 40
0
 40
0
 40
1
 40
1
 40
1
 40
1
 10
11.441304
 20
22.215924
 30
0.0
 10
11.441304
 20
22.268748
 30
0.0
 10
11.429820
 20
22.307793
 30
0.0
 10
11.406853
 20
22.333057
 30
0.0
  0
SPLINE
  5
31f
100
AcDbEntity
  8
Layer_1
 62
7
100
AcDbSpline
 70
8
 71
3
 72
8
 73
4
 74
0
 40
0
 40
0
 40
0
 40
0
 40
1
 40
1
 40
1
 40
1
 10
11.406853
 20
22.333057
 30
0.0
 10
11.386182
 20
22.360619
 30
0.0
 10
11.359770
 20
22.381290
 30
0.0
 10
11.327615
 20
22.395070
 30
0.0
  0
SPLINE
  5
320
100
AcDbEntity
  8
Layer_1
 62
7
100
AcDbSpline
 70
8
 71
3
 72
8
 73
4
 74
0
 40
0
 40
0
 40
0
 40
0
 40
1
 40
1
 40
1
 40
1
 10
11.327615
 20
22.395070
 30
0.0
 10
11.295461
 20
22.411138
 30
0.0
 10
11.259862
 20
22.422622
 30
0.0
 10
11.220817
 20
22.429521
 30
0.0
  0
SPLINE
  5
321
100
AcDbEntity
  8
Layer_1
 62
7
100
AcDbSpline
 70
8
 71
3
 72
8
 73
4
 74
0
 40
0
 40
0
 40
0
 40
0
 40
1
 40
1
 40
1
 40
1
 10
11.220817
 20
22.429521
 30
0.0
 10
11.181773
 20
22.438703
 30
0.0
 10
11.146174
 20
22.450186
 30
0.0
 10
11.114019
 20
22.463972
 30
0.0
  0
SPLINE
  5
322
100
AcDbEntity
  8
Layer_1
 62
7
100
AcDbSpline
 70
8
 71
3
 72
8
 73
4
 74
0
 40
0
 40
0
 40
0
 40
0
 40
1
 40
1
 40
1
 40
1
 10
11.114019
 20
22.463972
 30
0.0
 10
11.081865
 20
22.480040
 30
0.0
 10
11.054305
 20
22.501858
 30
0.0
 10
11.031337
 20
22.529428
 30
0.0
  0
SPLINE
  5
323
100
AcDbEntity
  8
Layer_1
 62
7
100
AcDbSpline
 70
8
 71
3
 72
8
 73
4
 74
0
 40
0
 40
0
 40
0
 40
0
 40
1
 40
1
 40
1
 40
1
 10
11.031337
 20
22.529428
 30
0.0
 10
11.010667
 20
22.559285
 30
0.0
 10
11.000331
 20
22.601774
 30
0.0
 10
11.000331
 20
22.656896
 30
0.0
  0
LINE
  5
324
100
AcDbEntity
  8
Layer_1
 62
7
100
AcDbLine
 10
11.000331
 20
22.656896
 30
0.0
 11
11.000331
 21
23.097868
 31
0.0
  0
SPLINE
  5
325
100
AcDbEntity
  8
Layer_1
 62
7
100
AcDbSpline
 70
8
 71
3
 72
8
 73
4
 74
0
 40
0
 40
0
 40
0
 40
0
 40
1
 40
1
 40
1
 40
1
 10
11.000331
 20
23.097868
 30
0.0
 10
11.000331
 20
23.162177
 30
0.0
 10
11.022150
 20
23.215003
 30
0.0
 10
11.065788
 20
23.256345
 30
0.0
  0
SPLINE
  5
326
100
AcDbEntity
  8
Layer_1
 62
7
100
AcDbSpline
 70
8
 71
3
 72
8
 73
4
 74
0
 40
0
 40
0
 40
0
 40
0
 40
1
 40
1
 40
1
 40
1
 10
11.065788
 20
23.256345
 30
0.0
 10
11.109426
 20
23.297685
 30
0.0
 10
11.161102
 20
23.318354
 30
0.0
 10
11.220817
 20
23.318354
 30
0.0
  0
LINE
  5
327
100
AcDbEntity
  8
Layer_1
 62
7
100
AcDbLine
 10
11.220817
 20
23.318354
 30
0.0
 11
16.071512
 21
23.318354
 31
0.0
  0
SPLINE
  5
328
100
AcDbEntity
  8
Layer_1
 62
7
100
AcDbSpline
 70
8
 71
3
 72
8
 73
4
 74
0
 40
0
 40
0
 40
0
 40
0
 40
1
 40
1
 40
1
 40
1
 10
16.071512
 20
23.318354
 30
0.0
 10
16.131227
 20
23.318354
 30
0.0
 10
16.182903
 20
23.296536
 30
0.0
 10
16.226541
 20
23.252899
 30
0.0
  0
SPLINE
  5
329
100
AcDbEntity
  8
Layer_1
 62
7
100
AcDbSpline
 70
8
 71
3
 72
8
 73
4
 74
0
 40
0
 40
0
 40
0
 40
0
 40
1
 40
1
 40
1
 40
1
 10
16.226541
 20
23.252899
 30
0.0
 10
16.270179
 20
23.209260
 30
0.0
 10
16.291998
 20
23.157583
 30
0.0
 10
16.291998
 20
23.097868
 30
0.0
  0
LINE
  5
32a
100
AcDbEntity
  8
Layer_1
 62
7
100
AcDbLine
 10
16.291998
 20
23.097868
 30
0.0
 11
16.291998
 21
22.656896
 31
0.0
  0
SPLINE
  5
32b
100
AcDbEntity
  8
Layer_1
 62
7
100
AcDbSpline
 70
8
 71
3
 72
8
 73
4
 74
0
 40
0
 40
0
 40
0
 40
0
 40
1
 40
1
 40
1
 40
1
 10
16.291998
 20
22.656896
 30
0.0
 10
16.291998
 20
22.597182
 30
0.0
 10
16.271327
 20
22.545506
 30
0.0
 10
16.229986
 20
22.501869
 30
0.0
  0
SPLINE
  5
32c
100
AcDbEntity
  8
Layer_1
 62
7
100
AcDbSpline
 70
8
 71
3
 72
8
 73
4
 74
0
 40
0
 40
0
 40
0
 40
0
 40
1
 40
1
 40
1
 40
1
 10
16.229986
 20
22.501869
 30
0.0
 10
16.188645
 20
22.458230
 30
0.0
 10
16.135820
 20
22.436410
 30
0.0
 10
16.071512
 20
22.436410
 30
0.0
  0
LINE
  5
32d
100
AcDbEntity
  8
Layer_1
 62
7
100
AcDbLine
 10
16.071512
 20
22.436410
 30
0.0
 11
12.543734
 21
22.436410
 31
0.0
  0
SPLINE
  5
32e
100
AcDbEntity
  8
Layer_1
 62
7
100
AcDbSpline
 70
8
 71
3
 72
8
 73
4
 74
0
 40
0
 40
0
 40
0
 40
0
 40
1
 40
1
 40
1
 40
1
 10
12.543734
 20
22.436410
 30
0.0
 10
12.484019
 20
22.436410
 30
0.0
 10
12.432343
 20
22.415740
 30
0.0
 10
12.388705
 20
22.374400
 30
0.0
  0
SPLINE
  5
32f
100
AcDbEntity
  8
Layer_1
 62
7
100
AcDbSpline
 70
8
 71
3
 72
8
 73
4
 74
0
 40
0
 40
0
 40
0
 40
0
 40
1
 40
1
 40
1
 40
1
 10
12.388705
 20
22.374400
 30
0.0
 10
12.345067
 20
22.333058
 30
0.0
 10
12.323248
 20
22.280233
 30
0.0
 10
12.323248
 20
22.215924
 30
0.0
  0
LINE
  5
330
100
AcDbEntity
  8
Layer_1
 62
7
100
AcDbLine
 10
12.323248
 20
22.215924
 30
0.0
 11
12.323248
 21
20.893007
 31
0.0
  0
SPLINE
  5
331
100
AcDbEntity
  8
Layer_1
 62
7
100
AcDbSpline
 70
8
 71
3
 72
8
 73
4
 74
0
 40
0
 40
0
 40
0
 40
0
 40
1
 40
1
 40
1
 40
1
 10
12.323248
 20
20.893007
 30
0.0
 10
12.323248
 20
20.828700
 30
0.0
 10
12.343919
 20
20.775876
 30
0.0
 10
12.385260
 20
20.734534
 30
0.0
  0
SPLINE
  5
332
100
AcDbEntity
  8
Layer_1
 62
7
100
AcDbSpline
 70
8
 71
3
 72
8
 73
4
 74
0
 40
0
 40
0
 40
0
 40
0
 40
1
 40
1
 40
1
 40
1
 10
12.385260
 20
20.734534
 30
0.0
 10
12.426601
 20
20.693192
 30
0.0
 10
12.479426
 20
20.672521
 30
0.0
 10
12.543734
 20
20.672521
 30
0.0
  0
LINE
  5
333
100
AcDbEntity
  8
Layer_1
 62
7
100
AcDbLine
 10
12.543734
 20
20.672521
 30
0.0
 11
15.851026
 21
20.672521
 31
0.0
  0
SPLINE
  5
334
100
AcDbEntity
  8
Layer_1
 62
7
100
AcDbSpline
 70
8
 71
3
 72
8
 73
4
 74
0
 40
0
 40
0
 40
0
 40
0
 40
1
 40
1
 40
1
 40
1
 10
15.851026
 20
20.672521
 30
0.0
 10
15.910741
 20
20.672521
 30
0.0
 10
15.967011
 20
20.659889
 30
0.0
 10
16.019836
 20
20.634624
 30
0.0
  0
SPLINE
  5
335
100
AcDbEntity
  8
Layer_1
 62
7
100
AcDbSpline
 70
8
 71
3
 72
8
 73
4
 74
0
 40
0
 40
0
 40
0
 40
0
 40
1
 40
1
 40
1
 40
1
 10
16.019836
 20
20.634624
 30
0.0
 10
16.072660
 20
20.611657
 30
0.0
 10
16.118595
 20
20.579504
 30
0.0
 10
16.157639
 20
20.538164
 30
0.0
  0
SPLINE
  5
336
100
AcDbEntity
  8
Layer_1
 62
7
100
AcDbSpline
 70
8
 71
3
 72
8
 73
4
 74
0
 40
0
 40
0
 40
0
 40
0
 40
1
 40
1
 40
1
 40
1
 10
16.157639
 20
20.538164
 30
0.0
 10
16.198981
 20
20.499119
 30
0.0
 10
16.231135
 20
20.453185
 30
0.0
 10
16.254102
 20
20.400360
 30
0.0
  0
SPLINE
  5
337
100
AcDbEntity
  8
Layer_1
 62
7
100
AcDbSpline
 70
8
 71
3
 72
8
 73
4
 74
0
 40
0
 40
0
 40
0
 40
0
 40
1
 40
1
 40
1
 40
1
 10
16.254102
 20
20.400360
 30
0.0
 10
16.279366
 20
20.347534
 30
0.0
 10
16.291998
 20
20.291263
 30
0.0
 10
16.291998
 20
20.231549
 30
0.0
  0
LINE
  5
338
100
AcDbEntity
  8
Layer_1
 62
7
100
AcDbLine
 10
16.291998
 20
20.231549
 30
0.0
 11
16.291998
 21
17.365229
 31
0.0
  0
SPLINE
  5
339
100
AcDbEntity
  8
Layer_1
 62
7
100
AcDbSpline
 70
8
 71
3
 72
8
 73
4
 74
0
 40
0
 40
0
 40
0
 40
0
 40
1
 40
1
 40
1
 40
1
 10
16.291998
 20
17.365229
 30
0.0
 10
16.291998
 20
17.305515
 30
0.0
 10
16.271327
 20
17.253839
 30
0.0
 10
16.229986
 20
17.210202
 30
0.0
  0
SPLINE
  5
33a
100
AcDbEntity
  8
Layer_1
 62
7
100
AcDbSpline
 70
8
 71
3
 72
8
 73
4
 74
0
 40
0
 40
0
 40
0
 40
0
 40
1
 40
1
 40
1
 40
1
 10
16.229986
 20
17.210202
 30
0.0
 10
16.188645
 20
17.166563
 30
0.0
 10
16.135820
 20
17.144743
 30
0.0
 10
16.071512
 20
17.144743
 30
0.0
  0
LINE
  5
33b
100
AcDbEntity
  8
Layer_1
 62
7
100
AcDbLine
 10
16.071512
 20
17.144743
 30
0.0
 11
15.630540
 21
17.144743
 31
0.0
  0
SPLINE
  5
33c
100
AcDbEntity
  8
Layer_1
 62
7
100
AcDbSpline
 70
8
 71
3
 72
8
 73
4
 74
0
 40
0
 40
0
 40
0
 40
0
 40
1
 40
1
 40
1
 40
1
 10
15.630540
 20
17.144743
 30
0.0
 10
15.566231
 20
17.144743
 30
0.0
 10
15.513406
 20
17.165414
 30
0.0
 10
15.472065
 20
17.206756
 30
0.0
  0
SPLINE
  5
33d
100
AcDbEntity
  8
Layer_1
 62
7
100
AcDbSpline
 70
8
 71
3
 72
8
 73
4
 74
0
 40
0
 40
0
 40
0
 40
0
 40
1
 40
1
 40
1
 40
1
 10
15.472065
 20
17.206756
 30
0.0
 10
15.430724
 20
17.248098
 30
0.0
 10
15.410054
 20
17.300922
 30
0.0
 10
15.410054
 20
17.365229
 30
0.0
  0
LINE
  5
33e
100
AcDbEntity
  8
Layer_1
 62
7
100
AcDbLine
 10
15.410054
 20
17.365229
 30
0.0
 11
15.410054
 21
19.570091
 31
0.0
  0
SPLINE
  5
33f
100
AcDbEntity
  8
Layer_1
 62
7
100
AcDbSpline
 70
8
 71
3
 72
8
 73
4
 74
0
 40
0
 40
0
 40
0
 40
0
 40
1
 40
1
 40
1
 40
1
 10
15.410054
 20
19.570091
 30
0.0
 10
15.410054
 20
19.629805
 30
0.0
 10
15.388235
 20
19.681482
 30
0.0
 10
15.344597
 20
19.725121
 30
0.0
  0
SPLINE
  5
340
100
AcDbEntity
  8
Layer_1
 62
7
100
AcDbSpline
 70
8
 71
3
 72
8
 73
4
 74
0
 40
0
 40
0
 40
0
 40
0
 40
1
 40
1
 40
1
 40
1
 10
15.344597
 20
19.725121
 30
0.0
 10
15.300959
 20
19.768758
 30
0.0
 10
15.249282
 20
19.790577
 30
0.0
 10
15.189567
 20
19.790577
 30
0.0
  0
LINE
  5
341
100
AcDbEntity
  8
Layer_1
 62
7
100
AcDbLine
 10
15.189567
 20
19.790577
 30
0.0
 11
12.543734
 21
19.790577
 31
0.0
  0
SPLINE
  5
342
100
AcDbEntity
  8
Layer_1
 62
7
100
AcDbSpline
 70
8
 71
3
 72
8
 73
4
 74
0
 40
0
 40
0
 40
0
 40
0
 40
1
 40
1
 40
1
 40
1
 10
12.543734
 20
19.790577
 30
0.0
 10
12.484019
 20
19.790577
 30
0.0
 10
12.432343
 20
19.769907
 30
0.0
 10
12.388705
 20
19.728567
 30
0.0
  0
SPLINE
  5
343
100
AcDbEntity
  8
Layer_1
 62
7
100
AcDbSpline
 70
8
 71
3
 72
8
 73
4
 74
0
 40
0
 40
0
 40
0
 40
0
 40
1
 40
1
 40
1
 40
1
 10
12.388705
 20
19.728567
 30
0.0
 10
12.345067
 20
19.687225
 30
0.0
 10
12.323248
 20
19.634400
 30
0.0
 10
12.323248
 20
19.570091
 30
0.0
  0
LINE
  5
344
100
AcDbEntity
  8
Layer_1
 62
7
100
AcDbLine
 10
12.323248
 20
19.570091
 30
0.0
 11
12.323248
 21
17.585716
 31
0.0
  0
SPLINE
  5
345
100
AcDbEntity
  8
Layer_1
 62
7
100
AcDbSpline
 70
8
 71
3
 72
8
 73
4
 74
0
 40
0
 40
0
 40
0
 40
0
 40
1
 40
1
 40
1
 40
1
 10
12.323248
 20
17.585716
 30
0.0
 10
12.323248
 20
17.526001
 30
0.0
 10
12.310616
 20
17.469732
 30
0.0
 10
12.285352
 20
17.416907
 30
0.0
  0
SPLINE
  5
346
100
AcDbEntity
  8
Layer_1
 62
7
100
AcDbSpline
 70
8
 71
3
 72
8
 73
4
 74
0
 40
0
 40
0
 40
0
 40
0
 40
1
 40
1
 40
1
 40
1
 10
12.285352
 20
17.416907
 30
0.0
 10
12.262385
 20
17.364083
 30
0.0
 10
12.230231
 20
17.317000
 30
0.0
 10
12.188889
 20
17.275658
 30
0.0
  0
SPLINE
  5
347
100
AcDbEntity
  8
Layer_1
 62
7
100
AcDbSpline
 70
8
 71
3
 72
8
 73
4
 74
0
 40
0
 40
0
 40
0
 40
0
 40
1
 40
1
 40
1
 40
1
 10
12.188889
 20
17.275658
 30
0.0
 10
12.149845
 20
17.236613
 30
0.0
 10
12.103910
 20
17.204459
 30
0.0
 10
12.051086
 20
17.179194
 30
0.0
  0
SPLINE
  5
348
100
AcDbEntity
  8
Layer_1
 62
7
100
AcDbSpline
 70
8
 71
3
 72
8
 73
4
 74
0
 40
0
 40
0
 40
0
 40
0
 40
1
 40
1
 40
1
 40
1
 10
12.051086
 20
17.179194
 30
0.0
 10
11.998261
 20
17.156227
 30
0.0
 10
11.941991
 20
17.144743
 30
0.0
 10
11.882276
 20
17.144743
 30
0.0
  0
LINE
  5
349
100
AcDbEntity
  8
Layer_1
 62
7
100
AcDbLine
 10
11.882276
 20
17.144743
 30
0.0
 11
11.220817
 21
17.144743
 31
0.0
  0
LINE
  5
34a
100
AcDbEntity
  8
Layer_1
 62
7
100
AcDbLine
 10
11.220817
 20
17.144743
 30
0.0
 11
11.220817
 21
17.144743
 31
0.0
  0
LINE
  5
34b
100
AcDbEntity
  8
Layer_1
 62
7
100
AcDbLine
 10
213.014518
 20
78.947146
 30
0.0
 11
215.332865
 21
76.628800
 31
0.0
  0
LINE
  5
34c
100
AcDbEntity
  8
Layer_1
 62
7
100
AcDbLine
 10
215.332865
 20
76.628800
 30
0.0
 11
228.786729
 21
90.082664
 31
0.0
  0
LINE
  5
34d
100
AcDbEntity
  8
Layer_1
 62
7
100
AcDbLine
 10
228.786729
 20
90.082664
 30
0.0
 11
226.468383
 21
92.401011
 31
0.0
  0
LINE
  5
34e
100
AcDbEntity
  8
Layer_1
 62
7
100
AcDbLine
 10
226.468383
 20
92.401011
 30
0.0
 11
213.014518
 21
78.947146
 31
0.0
  0
LINE
  5
34f
100
AcDbEntity
  8
Layer_1
 62
7
100
AcDbLine
 10
196.071080
 20
44.795985
 30
0.0
 11
198.389426
 21
42.477638
 31
0.0
  0
LINE
  5
350
100
AcDbEntity
  8
Layer_1
 62
7
100
AcDbLine
 10
198.389426
 20
42.477638
 30
0.0
 11
211.843291
 21
55.931503
 31
0.0
  0
LINE
  5
351
100
AcDbEntity
  8
Layer_1
 62
7
100
AcDbLine
 10
211.843291
 20
55.931503
 30
0.0
 11
209.524944
 21
58.249849
 31
0.0
  0
LINE
  5
352
100
AcDbEntity
  8
Layer_1
 62
7
100
AcDbLine
 10
209.524944
 20
58.249849
 30
0.0
 11
196.071080
 21
44.795985
 31
0.0
  0
LINE
  5
353
100
AcDbEntity
  8
Layer_1
 62
7
100
AcDbLine
 10
162.095949
 20
62.506874
 30
0.0
 11
164.414296
 21
60.188527
 31
0.0
  0
LINE
  5
354
100
AcDbEntity
  8
Layer_1
 62
7
100
AcDbLine
 10
164.414296
 20
60.188527
 30
0.0
 11
177.868160
 21
73.642392
 31
0.0
  0
LINE
  5
355
100
AcDbEntity
  8
Layer_1
 62
7
100
AcDbLine
 10
177.868160
 20
73.642392
 30
0.0
 11
175.549814
 21
75.960738
 31
0.0
  0
LINE
  5
356
100
AcDbEntity
  8
Layer_1
 62
7
100
AcDbLine
 10
175.549814
 20
75.960738
 30
0.0
 11
162.095949
 21
62.506874
 31
0.0
  0
LINE
  5
357
100
AcDbEntity
  8
Layer_1
 62
7
100
AcDbLine
 10
152.467071
 20
35.616072
 30
0.0
 11
154.785418
 21
33.297725
 31
0.0
  0
LINE
  5
358
100
AcDbEntity
  8
Layer_1
 62
7
100
AcDbLine
 10
154.785418
 20
33.297725
 30
0.0
 11
168.239282
 21
46.751589
 31
0.0
  0
LINE
  5
359
100
AcDbEntity
  8
Layer_1
 62
7
100
AcDbLine
 10
168.239282
 20
46.751589
 30
0.0
 11
165.920936
 21
49.069936
 31
0.0
  0
LINE
  5
35a
100
AcDbEntity
  8
Layer_1
 62
7
100
AcDbLine
 10
165.920936
 20
49.069936
 30
0.0
 11
152.467071
 21
35.616072
 31
0.0
  0
LINE
  5
35b
100
AcDbEntity
  8
Layer_1
 62
7
100
AcDbLine
 10
243.562236
 20
16.593113
 30
0.0
 11
245.880583
 21
18.911460
 31
0.0
  0
LINE
  5
35c
100
AcDbEntity
  8
Layer_1
 62
7
100
AcDbLine
 10
245.880583
 20
18.911460
 30
0.0
 11
232.426718
 21
32.365325
 31
0.0
  0
LINE
  5
35d
100
AcDbEntity
  8
Layer_1
 62
7
100
AcDbLine
 10
232.426718
 20
32.365325
 30
0.0
 11
230.108371
 21
30.046978
 31
0.0
  0
LINE
  5
35e
100
AcDbEntity
  8
Layer_1
 62
7
100
AcDbLine
 10
230.108371
 20
30.046978
 30
0.0
 11
243.562236
 21
16.593113
 31
0.0
  0
LINE
  5
35f
100
AcDbEntity
  8
Layer_1
 62
7
100
AcDbLine
 10
262.950498
 20
106.432774
 30
0.0
 11
135.976205
 21
106.432774
 31
0.0
  0
LINE
  5
360
100
AcDbEntity
  8
Layer_1
 62
7
100
AcDbLine
 10
135.976205
 20
106.432774
 30
0.0
 11
135.976205
 21
8.033473
 31
0.0
  0
LINE
  5
361
100
AcDbEntity
  8
Layer_1
 62
7
100
AcDbLine
 10
135.976205
 20
8.033473
 30
0.0
 11
262.950498
 21
8.033473
 31
0.0
  0
LINE
  5
362
100
AcDbEntity
  8
Layer_1
 62
7
100
AcDbLine
 10
262.950498
 20
8.033473
 30
0.0
 11
262.950498
 21
106.432774
 31
0.0
  0
SPLINE
  5
363
100
AcDbEntity
  8
Layer_1
 62
7
100
AcDbSpline
 70
8
 71
3
 72
8
 73
4
 74
0
 40
0
 40
0
 40
0
 40
0
 40
1
 40
1
 40
1
 40
1
 10
226.391885
 20
91.397331
 30
0.0
 10
227.421203
 20
92.415400
 30
0.0
 10
228.824251
 20
93.621718
 30
0.0
 10
230.673174
 20
94.076789
 30
0.0
  0
SPLINE
  5
364
100
AcDbEntity
  8
Layer_1
 62
7
100
AcDbSpline
 70
8
 71
3
 72
8
 73
4
 74
0
 40
0
 40
0
 40
0
 40
0
 40
1
 40
1
 40
1
 40
1
 10
230.673174
 20
94.076789
 30
0.0
 10
231.135403
 20
94.190556
 30
0.0
 10
231.621878
 20
94.248301
 30
0.0
 10
232.126728
 20
94.241051
 30
0.0
  0
SPLINE
  5
365
100
AcDbEntity
  8
Layer_1
 62
7
100
AcDbSpline
 70
8
 71
3
 72
8
 73
4
 74
0
 40
0
 40
0
 40
0
 40
0
 40
1
 40
1
 40
1
 40
1
 10
232.126728
 20
94.241051
 30
0.0
 10
233.641277
 20
94.219300
 30
0.0
 10
235.319322
 20
93.611217
 30
0.0
 10
236.988444
 20
92.165725
 30
0.0
  0
SPLINE
  5
366
100
AcDbEntity
  8
Layer_1
 62
7
100
AcDbSpline
 70
8
 71
3
 72
8
 73
4
 74
0
 40
0
 40
0
 40
0
 40
0
 40
1
 40
1
 40
1
 40
1
 10
236.988444
 20
92.165725
 30
0.0
 10
239.072835
 20
90.360602
 30
0.0
 10
239.540015
 20
87.785873
 30
0.0
 10
239.408279
 20
85.595790
 30
0.0
  0
SPLINE
  5
367
100
AcDbEntity
  8
Layer_1
 62
7
100
AcDbSpline
 70
8
 71
3
 72
8
 73
4
 74
0
 40
0
 40
0
 40
0
 40
0
 40
1
 40
1
 40
1
 40
1
 10
239.408279
 20
85.595790
 30
0.0
 10
239.276546
 20
83.405707
 30
0.0
 10
238.588006
 20
81.492946
 30
0.0
 10
238.234192
 20
80.607842
 30
0.0
  0
SPLINE
  5
368
100
AcDbEntity
  8
Layer_1
 62
7
100
AcDbSpline
 70
8
 71
3
 72
8
 73
4
 74
0
 40
0
 40
0
 40
0
 40
0
 40
1
 40
1
 40
1
 40
1
 10
238.234192
 20
80.607842
 30
0.0
 10
236.186902
 20
75.486336
 30
0.0
 10
232.401483
 20
72.309151
 30
0.0
 10
228.805106
 20
69.370769
 30
0.0
  0
SPLINE
  5
369
100
AcDbEntity
  8
Layer_1
 62
7
100
AcDbSpline
 70
8
 71
3
 72
8
 73
4
 74
0
 40
0
 40
0
 40
0
 40
0
 40
1
 40
1
 40
1
 40
1
 10
228.805106
 20
69.370769
 30
0.0
 10
227.255618
 20
68.104777
 30
0.0
 10
225.300972
 20
66.748984
 30
0.0
 10
223.602734
 20
65.605967
 30
0.0
  0
SPLINE
  5
36a
100
AcDbEntity
  8
Layer_1
 62
7
100
AcDbSpline
 70
8
 71
3
 72
8
 73
4
 74
0
 40
0
 40
0
 40
0
 40
0
 40
1
 40
1
 40
1
 40
1
 10
223.602734
 20
65.605967
 30
0.0
 10
221.904498
 20
64.462953
 30
0.0
 10
220.406384
 20
63.487147
 30
0.0
 10
220.027001
 20
63.195504
 30
0.0
  0
SPLINE
  5
36b
100
AcDbEntity
  8
Layer_1
 62
7
100
AcDbSpline
 70
8
 71
3
 72
8
 73
4
 74
0
 40
0
 40
0
 40
0
 40
0
 40
1
 40
1
 40
1
 40
1
 10
220.027001
 20
63.195504
 30
0.0
 10
214.803316
 20
59.179857
 30
0.0
 10
215.229398
 20
59.455772
 30
0.0
 10
210.630432
 20
55.757955
 30
0.0
  0
SPLINE
  5
36c
100
AcDbEntity
  8
Layer_1
 62
7
100
AcDbSpline
 70
8
 71
3
 72
8
 73
4
 74
0
 40
0
 40
0
 40
0
 40
0
 40
1
 40
1
 40
1
 40
1
 10
209.357124
 20
57.341597
 30
0.0
 10
213.946828
 20
61.031969
 30
0.0
 10
213.558025
 20
60.785899
 30
0.0
 10
218.788421
 20
64.806705
 30
0.0
  0
SPLINE
  5
36d
100
AcDbEntity
  8
Layer_1
 62
7
100
AcDbSpline
 70
8
 71
3
 72
8
 73
4
 74
0
 40
0
 40
0
 40
0
 40
0
 40
1
 40
1
 40
1
 40
1
 10
218.788421
 20
64.806705
 30
0.0
 10
219.410122
 20
65.284629
 30
0.0
 10
220.789340
 20
66.161519
 30
0.0
 10
222.468333
 20
67.291584
 30
0.0
  0
SPLINE
  5
36e
100
AcDbEntity
  8
Layer_1
 62
7
100
AcDbSpline
 70
8
 71
3
 72
8
 73
4
 74
0
 40
0
 40
0
 40
0
 40
0
 40
1
 40
1
 40
1
 40
1
 10
222.468333
 20
67.291584
 30
0.0
 10
224.147327
 20
68.421647
 30
0.0
 10
226.069633
 20
69.759194
 30
0.0
 10
227.519671
 20
70.943935
 30
0.0
  0
SPLINE
  5
36f
100
AcDbEntity
  8
Layer_1
 62
7
100
AcDbSpline
 70
8
 71
3
 72
8
 73
4
 74
0
 40
0
 40
0
 40
0
 40
0
 40
1
 40
1
 40
1
 40
1
 10
227.519671
 20
70.943935
 30
0.0
 10
231.098534
 20
73.868008
 30
0.0
 10
234.513002
 20
76.773013
 30
0.0
 10
236.347382
 20
81.361905
 30
0.0
  0
SPLINE
  5
370
100
AcDbEntity
  8
Layer_1
 62
7
100
AcDbSpline
 70
8
 71
3
 72
8
 73
4
 74
0
 40
0
 40
0
 40
0
 40
0
 40
1
 40
1
 40
1
 40
1
 10
236.347382
 20
81.361905
 30
0.0
 10
236.658430
 20
82.140023
 30
0.0
 10
237.269845
 20
83.889469
 30
0.0
 10
237.379807
 20
85.717608
 30
0.0
  0
SPLINE
  5
371
100
AcDbEntity
  8
Layer_1
 62
7
100
AcDbSpline
 70
8
 71
3
 72
8
 73
4
 74
0
 40
0
 40
0
 40
0
 40
0
 40
1
 40
1
 40
1
 40
1
 10
237.379807
 20
85.717608
 30
0.0
 10
237.489772
 20
87.545747
 30
0.0
 10
237.140519
 20
89.345434
 30
0.0
 10
235.657811
 20
90.629488
 30
0.0
  0
SPLINE
  5
372
100
AcDbEntity
  8
Layer_1
 62
7
100
AcDbSpline
 70
8
 71
3
 72
8
 73
4
 74
0
 40
0
 40
0
 40
0
 40
0
 40
1
 40
1
 40
1
 40
1
 10
235.657811
 20
90.629488
 30
0.0
 10
233.795376
 20
92.242392
 30
0.0
 10
232.406907
 20
92.410632
 30
0.0
 10
231.158794
 20
92.103438
 30
0.0
  0
SPLINE
  5
373
100
AcDbEntity
  8
Layer_1
 62
7
100
AcDbSpline
 70
8
 71
3
 72
8
 73
4
 74
0
 40
0
 40
0
 40
0
 40
0
 40
1
 40
1
 40
1
 40
1
 10
231.158794
 20
92.103438
 30
0.0
 10
229.910680
 20
91.796243
 30
0.0
 10
228.749231
 20
90.871044
 30
0.0
 10
227.820635
 20
89.952596
 30
0.0
  0
SPLINE
  5
374
100
AcDbEntity
  8
Layer_1
 62
7
100
AcDbSpline
 70
8
 71
3
 72
8
 73
4
 74
0
 40
0
 40
0
 40
0
 40
0
 40
1
 40
1
 40
1
 40
1
 10
215.653657
 20
77.685852
 30
0.0
 10
214.014146
 20
76.036322
 30
0.0
 10
212.750437
 20
74.818030
 30
0.0
 10
211.701996
 20
73.724817
 30
0.0
  0
SPLINE
  5
375
100
AcDbEntity
  8
Layer_1
 62
7
100
AcDbSpline
 70
8
 71
3
 72
8
 73
4
 74
0
 40
0
 40
0
 40
0
 40
0
 40
1
 40
1
 40
1
 40
1
 10
211.701996
 20
73.724817
 30
0.0
 10
210.323891
 20
72.287863
 30
0.0
 10
207.784272
 20
70.235066
 30
0.0
 10
204.716443
 20
69.055473
 30
0.0
  0
SPLINE
  5
376
100
AcDbEntity
  8
Layer_1
 62
7
100
AcDbSpline
 70
8
 71
3
 72
8
 73
4
 74
0
 40
0
 40
0
 40
0
 40
0
 40
1
 40
1
 40
1
 40
1
 10
204.716443
 20
69.055473
 30
0.0
 10
201.648614
 20
67.875880
 30
0.0
 10
197.917376
 20
67.636748
 30
0.0
 10
194.749370
 20
70.118768
 30
0.0
  0
SPLINE
  5
377
100
AcDbEntity
  8
Layer_1
 62
7
100
AcDbSpline
 70
8
 71
3
 72
8
 73
4
 74
0
 40
0
 40
0
 40
0
 40
0
 40
1
 40
1
 40
1
 40
1
 10
194.749370
 20
70.118768
 30
0.0
 10
194.362646
 20
70.421748
 30
0.0
 10
194.024795
 20
70.815185
 30
0.0
 10
193.586857
 20
71.330340
 30
0.0
  0
SPLINE
  5
378
100
AcDbEntity
  8
Layer_1
 62
7
100
AcDbSpline
 70
8
 71
3
 72
8
 73
4
 74
0
 40
0
 40
0
 40
0
 40
0
 40
1
 40
1
 40
1
 40
1
 10
193.586857
 20
71.330340
 30
0.0
 10
193.148916
 20
71.845491
 30
0.0
 10
192.655295
 20
72.459115
 30
0.0
 10
192.158107
 20
73.081548
 30
0.0
  0
SPLINE
  5
379
100
AcDbEntity
  8
Layer_1
 62
7
100
AcDbSpline
 70
8
 71
3
 72
8
 73
4
 74
0
 40
0
 40
0
 40
0
 40
0
 40
1
 40
1
 40
1
 40
1
 10
192.158107
 20
73.081548
 30
0.0
 10
191.163731
 20
74.326419
 30
0.0
 10
190.109724
 20
75.645320
 30
0.0
 10
189.668266
 20
76.086775
 30
0.0
  0
SPLINE
  5
37a
100
AcDbEntity
  8
Layer_1
 62
7
100
AcDbSpline
 70
8
 71
3
 72
8
 73
4
 74
0
 40
0
 40
0
 40
0
 40
0
 40
1
 40
1
 40
1
 40
1
 10
189.668266
 20
76.086775
 30
0.0
 10
189.212870
 20
76.542172
 30
0.0
 10
188.049140
 20
77.145193
 30
0.0
 10
186.686744
 20
77.436150
 30
0.0
  0
SPLINE
  5
37b
100
AcDbEntity
  8
Layer_1
 62
7
100
AcDbSpline
 70
8
 71
3
 72
8
 73
4
 74
0
 40
0
 40
0
 40
0
 40
0
 40
1
 40
1
 40
1
 40
1
 10
186.686744
 20
77.436150
 30
0.0
 10
185.324344
 20
77.727107
 30
0.0
 10
183.763771
 20
77.744207
 30
0.0
 10
182.441834
 20
77.338033
 30
0.0
  0
SPLINE
  5
37c
100
AcDbEntity
  8
Layer_1
 62
7
100
AcDbSpline
 70
8
 71
3
 72
8
 73
4
 74
0
 40
0
 40
0
 40
0
 40
0
 40
1
 40
1
 40
1
 40
1
 10
182.441834
 20
77.338033
 30
0.0
 10
180.149777
 20
76.633787
 30
0.0
 10
177.640020
 20
74.695351
 30
0.0
 10
176.836471
 20
73.891802
 30
0.0
  0
SPLINE
  5
37d
100
AcDbEntity
  8
Layer_1
 62
7
100
AcDbSpline
 70
8
 71
3
 72
8
 73
4
 74
0
 40
0
 40
0
 40
0
 40
0
 40
1
 40
1
 40
1
 40
1
 10
175.499788
 20
75.229043
 30
0.0
 10
176.497534
 20
76.226788
 30
0.0
 10
179.051326
 20
78.422183
 30
0.0
 10
181.844869
 20
79.280517
 30
0.0
  0
SPLINE
  5
37e
100
AcDbEntity
  8
Layer_1
 62
7
100
AcDbSpline
 70
8
 71
3
 72
8
 73
4
 74
0
 40
0
 40
0
 40
0
 40
0
 40
1
 40
1
 40
1
 40
1
 10
181.844869
 20
79.280517
 30
0.0
 10
182.720441
 20
79.549539
 30
0.0
 10
183.625705
 20
79.673246
 30
0.0
 10
184.517711
 20
79.685658
 30
0.0
  0
SPLINE
  5
37f
100
AcDbEntity
  8
Layer_1
 62
7
100
AcDbSpline
 70
8
 71
3
 72
8
 73
4
 74
0
 40
0
 40
0
 40
0
 40
0
 40
1
 40
1
 40
1
 40
1
 10
184.517711
 20
79.685658
 30
0.0
 10
185.409716
 20
79.698076
 30
0.0
 10
186.288460
 20
79.598982
 30
0.0
 10
187.111178
 20
79.423282
 30
0.0
  0
SPLINE
  5
380
100
AcDbEntity
  8
Layer_1
 62
7
100
AcDbSpline
 70
8
 71
3
 72
8
 73
4
 74
0
 40
0
 40
0
 40
0
 40
0
 40
1
 40
1
 40
1
 40
1
 10
187.111178
 20
79.423282
 30
0.0
 10
188.756612
 20
79.071878
 30
0.0
 10
190.178298
 20
78.450781
 30
0.0
 10
191.105285
 20
77.523794
 30
0.0
  0
SPLINE
  5
381
100
AcDbEntity
  8
Layer_1
 62
7
100
AcDbSpline
 70
8
 71
3
 72
8
 73
4
 74
0
 40
0
 40
0
 40
0
 40
0
 40
1
 40
1
 40
1
 40
1
 10
191.105285
 20
77.523794
 30
0.0
 10
191.782176
 20
76.846904
 30
0.0
 10
192.757629
 20
75.586754
 30
0.0
 10
193.745607
 20
74.349894
 30
0.0
  0
SPLINE
  5
382
100
AcDbEntity
  8
Layer_1
 62
7
100
AcDbSpline
 70
8
 71
3
 72
8
 73
4
 74
0
 40
0
 40
0
 40
0
 40
0
 40
1
 40
1
 40
1
 40
1
 10
193.745607
 20
74.349894
 30
0.0
 10
194.239595
 20
73.731466
 30
0.0
 10
194.725243
 20
73.128899
 30
0.0
 10
195.135218
 20
72.646641
 30
0.0
  0
SPLINE
  5
383
100
AcDbEntity
  8
Layer_1
 62
7
100
AcDbSpline
 70
8
 71
3
 72
8
 73
4
 74
0
 40
0
 40
0
 40
0
 40
0
 40
1
 40
1
 40
1
 40
1
 10
195.135218
 20
72.646641
 30
0.0
 10
195.545197
 20
72.164382
 30
0.0
 10
195.923852
 20
71.779840
 30
0.0
 10
196.002281
 20
71.718395
 30
0.0
  0
SPLINE
  5
384
100
AcDbEntity
  8
Layer_1
 62
7
100
AcDbSpline
 70
8
 71
3
 72
8
 73
4
 74
0
 40
0
 40
0
 40
0
 40
0
 40
1
 40
1
 40
1
 40
1
 10
196.002281
 20
71.718395
 30
0.0
 10
198.527857
 20
69.739696
 30
0.0
 10
201.319187
 20
69.926349
 30
0.0
 10
203.987186
 20
70.952204
 30
0.0
  0
SPLINE
  5
385
100
AcDbEntity
  8
Layer_1
 62
7
100
AcDbSpline
 70
8
 71
3
 72
8
 73
4
 74
0
 40
0
 40
0
 40
0
 40
0
 40
1
 40
1
 40
1
 40
1
 10
203.987186
 20
70.952204
 30
0.0
 10
206.655185
 20
71.978062
 30
0.0
 10
209.064914
 20
73.910119
 30
0.0
 10
210.235761
 20
75.130967
 30
0.0
  0
SPLINE
  5
386
100
AcDbEntity
  8
Layer_1
 62
7
100
AcDbSpline
 70
8
 71
3
 72
8
 73
4
 74
0
 40
0
 40
0
 40
0
 40
0
 40
1
 40
1
 40
1
 40
1
 10
210.235761
 20
75.130967
 30
0.0
 10
211.326022
 20
76.267784
 30
0.0
 10
212.588227
 20
77.483984
 30
0.0
 10
214.212230
 20
79.117906
 30
0.0
  0
SPLINE
  5
387
100
AcDbEntity
  8
Layer_1
 62
7
100
AcDbSpline
 70
8
 71
3
 72
8
 73
4
 74
0
 40
0
 40
0
 40
0
 40
0
 40
1
 40
1
 40
1
 40
1
 10
165.970416
 20
48.188117
 30
0.0
 10
166.229155
 20
48.446853
 30
0.0
 10
166.503393
 20
48.634706
 30
0.0
 10
166.885434
 20
48.904143
 30
0.0
  0
SPLINE
  5
388
100
AcDbEntity
  8
Layer_1
 62
7
100
AcDbSpline
 70
8
 71
3
 72
8
 73
4
 74
0
 40
0
 40
0
 40
0
 40
0
 40
1
 40
1
 40
1
 40
1
 10
166.885434
 20
48.904143
 30
0.0
 10
167.267476
 20
49.173584
 30
0.0
 10
167.722105
 20
49.479403
 30
0.0
 10
168.179135
 20
49.781129
 30
0.0
  0
SPLINE
  5
389
100
AcDbEntity
  8
Layer_1
 62
7
100
AcDbSpline
 70
8
 71
3
 72
8
 73
4
 74
0
 40
0
 40
0
 40
0
 40
0
 40
1
 40
1
 40
1
 40
1
 10
168.179135
 20
49.781129
 30
0.0
 10
169.093199
 20
50.384577
 30
0.0
 10
170.024722
 20
50.976374
 30
0.0
 10
170.325018
 20
51.171294
 30
0.0
  0
SPLINE
  5
38a
100
AcDbEntity
  8
Layer_1
 62
7
100
AcDbSpline
 70
8
 71
3
 72
8
 73
4
 74
0
 40
0
 40
0
 40
0
 40
0
 40
1
 40
1
 40
1
 40
1
 10
170.325018
 20
51.171294
 30
0.0
 10
171.560395
 20
51.973155
 30
0.0
 10
172.702477
 20
52.538674
 30
0.0
 10
173.550180
 20
53.167243
 30
0.0
  0
SPLINE
  5
38b
100
AcDbEntity
  8
Layer_1
 62
7
100
AcDbSpline
 70
8
 71
3
 72
8
 73
4
 74
0
 40
0
 40
0
 40
0
 40
0
 40
1
 40
1
 40
1
 40
1
 10
173.550180
 20
53.167243
 30
0.0
 10
174.397882
 20
53.795811
 30
0.0
 10
174.958985
 20
54.423510
 30
0.0
 10
175.282649
 20
55.534161
 30
0.0
  0
SPLINE
  5
38c
100
AcDbEntity
  8
Layer_1
 62
7
100
AcDbSpline
 70
8
 71
3
 72
8
 73
4
 74
0
 40
0
 40
0
 40
0
 40
0
 40
1
 40
1
 40
1
 40
1
 10
175.282649
 20
55.534161
 30
0.0
 10
175.464194
 20
56.157122
 30
0.0
 10
175.057661
 20
57.129691
 30
0.0
 10
174.278886
 20
57.665159
 30
0.0
  0
SPLINE
  5
38d
100
AcDbEntity
  8
Layer_1
 62
7
100
AcDbSpline
 70
8
 71
3
 72
8
 73
4
 74
0
 40
0
 40
0
 40
0
 40
0
 40
1
 40
1
 40
1
 40
1
 10
174.278886
 20
57.665159
 30
0.0
 10
173.276627
 20
58.354295
 30
0.0
 10
171.816796
 20
58.493394
 30
0.0
 10
170.250604
 20
57.649186
 30
0.0
  0
SPLINE
  5
38e
100
AcDbEntity
  8
Layer_1
 62
7
100
AcDbSpline
 70
8
 71
3
 72
8
 73
4
 74
0
 40
0
 40
0
 40
0
 40
0
 40
1
 40
1
 40
1
 40
1
 10
170.250604
 20
57.649186
 30
0.0
 10
169.127323
 20
57.043709
 30
0.0
 10
167.555509
 20
55.506715
 30
0.0
 10
166.507299
 20
54.330870
 30
0.0
  0
SPLINE
  5
38f
100
AcDbEntity
  8
Layer_1
 62
7
100
AcDbSpline
 70
8
 71
3
 72
8
 73
4
 74
0
 40
0
 40
0
 40
0
 40
0
 40
1
 40
1
 40
1
 40
1
 10
166.507299
 20
54.330870
 30
0.0
 10
164.141537
 20
51.677030
 30
0.0
 10
162.064325
 20
50.620100
 30
0.0
 10
160.282978
 20
50.588118
 30
0.0
  0
SPLINE
  5
390
100
AcDbEntity
  8
Layer_1
 62
7
100
AcDbSpline
 70
8
 71
3
 72
8
 73
4
 74
0
 40
0
 40
0
 40
0
 40
0
 40
1
 40
1
 40
1
 40
1
 10
160.282978
 20
50.588118
 30
0.0
 10
158.501631
 20
50.556137
 30
0.0
 10
157.231044
 20
51.591435
 30
0.0
 10
156.647713
 20
52.625960
 30
0.0
  0
SPLINE
  5
391
100
AcDbEntity
  8
Layer_1
 62
7
100
AcDbSpline
 70
8
 71
3
 72
8
 73
4
 74
0
 40
0
 40
0
 40
0
 40
0
 40
1
 40
1
 40
1
 40
1
 10
156.647713
 20
52.625960
 30
0.0
 10
156.005206
 20
53.765432
 30
0.0
 10
155.855397
 20
54.931826
 30
0.0
 10
156.084369
 20
55.936559
 30
0.0
  0
SPLINE
  5
392
100
AcDbEntity
  8
Layer_1
 62
7
100
AcDbSpline
 70
8
 71
3
 72
8
 73
4
 74
0
 40
0
 40
0
 40
0
 40
0
 40
1
 40
1
 40
1
 40
1
 10
156.084369
 20
55.936559
 30
0.0
 10
156.313345
 20
56.941296
 30
0.0
 10
156.872201
 20
57.757621
 30
0.0
 10
157.490522
 20
58.411516
 30
0.0
  0
SPLINE
  5
393
100
AcDbEntity
  8
Layer_1
 62
7
100
AcDbSpline
 70
8
 71
3
 72
8
 73
4
 74
0
 40
0
 40
0
 40
0
 40
0
 40
1
 40
1
 40
1
 40
1
 10
157.490522
 20
58.411516
 30
0.0
 10
158.108842
 20
59.065413
 30
0.0
 10
158.799333
 20
59.570066
 30
0.0
 10
159.383945
 20
59.952164
 30
0.0
  0
SPLINE
  5
394
100
AcDbEntity
  8
Layer_1
 62
7
100
AcDbSpline
 70
8
 71
3
 72
8
 73
4
 74
0
 40
0
 40
0
 40
0
 40
0
 40
1
 40
1
 40
1
 40
1
 10
159.383945
 20
59.952164
 30
0.0
 10
159.968557
 20
60.334262
 30
0.0
 10
160.498743
 20
60.628665
 30
0.0
 10
160.587801
 20
60.688036
 30
0.0
  0
SPLINE
  5
395
100
AcDbEntity
  8
Layer_1
 62
7
100
AcDbSpline
 70
8
 71
3
 72
8
 73
4
 74
0
 40
0
 40
0
 40
0
 40
0
 40
1
 40
1
 40
1
 40
1
 10
160.587801
 20
60.688036
 30
0.0
 10
161.374210
 20
61.212306
 30
0.0
 10
162.161638
 20
61.875906
 30
0.0
 10
163.122286
 20
62.682334
 30
0.0
  0
LINE
  5
396
100
AcDbEntity
  8
Layer_1
 62
7
100
AcDbLine
 10
163.122286
 20
62.682334
 30
0.0
 11
163.122286
 21
62.682323
 31
0.0
  0
SPLINE
  5
397
100
AcDbEntity
  8
Layer_1
 62
7
100
AcDbSpline
 70
8
 71
3
 72
8
 73
4
 74
0
 40
0
 40
0
 40
0
 40
0
 40
1
 40
1
 40
1
 40
1
 10
164.429218
 20
61.125689
 30
0.0
 10
163.471962
 20
60.322112
 30
0.0
 10
162.634214
 20
59.610599
 30
0.0
 10
161.714483
 20
58.997449
 30
0.0
  0
SPLINE
  5
398
100
AcDbEntity
  8
Layer_1
 62
7
100
AcDbSpline
 70
8
 71
3
 72
8
 73
4
 74
0
 40
0
 40
0
 40
0
 40
0
 40
1
 40
1
 40
1
 40
1
 10
161.714483
 20
58.997449
 30
0.0
 10
161.396946
 20
58.785754
 30
0.0
 10
161.002489
 20
58.582305
 30
0.0
 10
160.495745
 20
58.251101
 30
0.0
  0
SPLINE
  5
399
100
AcDbEntity
  8
Layer_1
 62
7
100
AcDbSpline
 70
8
 71
3
 72
8
 73
4
 74
0
 40
0
 40
0
 40
0
 40
0
 40
1
 40
1
 40
1
 40
1
 10
160.495745
 20
58.251101
 30
0.0
 10
159.989001
 20
57.919899
 30
0.0
 10
159.421193
 20
57.495363
 30
0.0
 10
158.967227
 20
57.015278
 30
0.0
  0
SPLINE
  5
39a
100
AcDbEntity
  8
Layer_1
 62
7
100
AcDbSpline
 70
8
 71
3
 72
8
 73
4
 74
0
 40
0
 40
0
 40
0
 40
0
 40
1
 40
1
 40
1
 40
1
 10
158.967227
 20
57.015278
 30
0.0
 10
158.513261
 20
56.535192
 30
0.0
 10
158.185850
 20
56.013468
 30
0.0
 10
158.065439
 20
55.485103
 30
0.0
  0
SPLINE
  5
39b
100
AcDbEntity
  8
Layer_1
 62
7
100
AcDbSpline
 70
8
 71
3
 72
8
 73
4
 74
0
 40
0
 40
0
 40
0
 40
0
 40
1
 40
1
 40
1
 40
1
 10
158.065439
 20
55.485103
 30
0.0
 10
157.945027
 20
54.956740
 30
0.0
 10
157.982822
 20
54.395386
 30
0.0
 10
158.417664
 20
53.624200
 30
0.0
  0
SPLINE
  5
39c
100
AcDbEntity
  8
Layer_1
 62
7
100
AcDbSpline
 70
8
 71
3
 72
8
 73
4
 74
0
 40
0
 40
0
 40
0
 40
0
 40
1
 40
1
 40
1
 40
1
 10
158.417664
 20
53.624200
 30
0.0
 10
158.680458
 20
53.158141
 30
0.0
 10
159.260255
 20
52.601627
 30
0.0
 10
160.246597
 20
52.619336
 30
0.0
  0
SPLINE
  5
39d
100
AcDbEntity
  8
Layer_1
 62
7
100
AcDbSpline
 70
8
 71
3
 72
8
 73
4
 74
0
 40
0
 40
0
 40
0
 40
0
 40
1
 40
1
 40
1
 40
1
 10
160.246597
 20
52.619336
 30
0.0
 10
161.232938
 20
52.637032
 30
0.0
 10
162.840501
 20
53.271352
 30
0.0
 10
164.990354
 20
55.682991
 30
0.0
  0
SPLINE
  5
39e
100
AcDbEntity
  8
Layer_1
 62
7
100
AcDbSpline
 70
8
 71
3
 72
8
 73
4
 74
0
 40
0
 40
0
 40
0
 40
0
 40
1
 40
1
 40
1
 40
1
 10
164.990354
 20
55.682991
 30
0.0
 10
166.102203
 20
56.930224
 30
0.0
 10
167.664560
 20
58.563583
 30
0.0
 10
169.286527
 20
59.437868
 30
0.0
  0
SPLINE
  5
39f
100
AcDbEntity
  8
Layer_1
 62
7
100
AcDbSpline
 70
8
 71
3
 72
8
 73
4
 74
0
 40
0
 40
0
 40
0
 40
0
 40
1
 40
1
 40
1
 40
1
 10
169.286527
 20
59.437868
 30
0.0
 10
171.422583
 20
60.589258
 30
0.0
 10
173.756247
 20
60.490475
 30
0.0
 10
175.429825
 20
59.339753
 30
0.0
  0
SPLINE
  5
3a0
100
AcDbEntity
  8
Layer_1
 62
7
100
AcDbSpline
 70
8
 71
3
 72
8
 73
4
 74
0
 40
0
 40
0
 40
0
 40
0
 40
1
 40
1
 40
1
 40
1
 10
175.429825
 20
59.339753
 30
0.0
 10
176.829644
 20
58.377260
 30
0.0
 10
177.729518
 20
56.666383
 30
0.0
 10
177.233953
 20
54.965859
 30
0.0
  0
SPLINE
  5
3a1
100
AcDbEntity
  8
Layer_1
 62
7
100
AcDbSpline
 70
8
 71
3
 72
8
 73
4
 74
0
 40
0
 40
0
 40
0
 40
0
 40
1
 40
1
 40
1
 40
1
 10
177.233953
 20
54.965859
 30
0.0
 10
176.777168
 20
53.398402
 30
0.0
 10
175.821386
 20
52.321629
 30
0.0
 10
174.760648
 20
51.535095
 30
0.0
  0
SPLINE
  5
3a2
100
AcDbEntity
  8
Layer_1
 62
7
100
AcDbSpline
 70
8
 71
3
 72
8
 73
4
 74
0
 40
0
 40
0
 40
0
 40
0
 40
1
 40
1
 40
1
 40
1
 10
174.760648
 20
51.535095
 30
0.0
 10
173.699913
 20
50.748562
 30
0.0
 10
172.541774
 20
50.187721
 30
0.0
 10
171.431309
 20
49.466934
 30
0.0
  0
SPLINE
  5
3a3
100
AcDbEntity
  8
Layer_1
 62
7
100
AcDbSpline
 70
8
 71
3
 72
8
 73
4
 74
0
 40
0
 40
0
 40
0
 40
0
 40
1
 40
1
 40
1
 40
1
 10
171.431309
 20
49.466934
 30
0.0
 10
171.099481
 20
49.251553
 30
0.0
 10
170.192980
 20
48.675459
 30
0.0
 10
169.298654
 20
48.085038
 30
0.0
  0
SPLINE
  5
3a4
100
AcDbEntity
  8
Layer_1
 62
7
100
AcDbSpline
 70
8
 71
3
 72
8
 73
4
 74
0
 40
0
 40
0
 40
0
 40
0
 40
1
 40
1
 40
1
 40
1
 10
169.298654
 20
48.085038
 30
0.0
 10
168.851490
 20
47.789828
 30
0.0
 10
168.409542
 20
47.492132
 30
0.0
 10
168.056767
 20
47.243333
 30
0.0
  0
SPLINE
  5
3a5
100
AcDbEntity
  8
Layer_1
 62
7
100
AcDbSpline
 70
8
 71
3
 72
8
 73
4
 74
0
 40
0
 40
0
 40
0
 40
0
 40
1
 40
1
 40
1
 40
1
 10
168.056767
 20
47.243333
 30
0.0
 10
167.703989
 20
46.994535
 30
0.0
 10
167.405178
 20
46.749391
 30
0.0
 10
167.407435
 20
46.751649
 30
0.0
  0
SPLINE
  5
3a6
100
AcDbEntity
  8
Layer_1
 62
7
100
AcDbSpline
 70
8
 71
3
 72
8
 73
4
 74
0
 40
0
 40
0
 40
0
 40
0
 40
1
 40
1
 40
1
 40
1
 10
161.285087
 20
6.016275
 30
0.0
 10
161.328383
 20
11.412263
 30
0.0
 10
161.395670
 20
15.445232
 30
0.0
 10
161.406905
 20
17.494784
 30
0.0
  0
SPLINE
  5
3a7
100
AcDbEntity
  8
Layer_1
 62
7
100
AcDbSpline
 70
8
 71
3
 72
8
 73
4
 74
0
 40
0
 40
0
 40
0
 40
0
 40
1
 40
1
 40
1
 40
1
 10
161.406905
 20
17.494784
 30
0.0
 10
161.420847
 20
20.039059
 30
0.0
 10
160.955282
 20
21.625360
 30
0.0
 10
160.455506
 20
22.183971
 30
0.0
  0
SPLINE
  5
3a8
100
AcDbEntity
  8
Layer_1
 62
7
100
AcDbSpline
 70
8
 71
3
 72
8
 73
4
 74
0
 40
0
 40
0
 40
0
 40
0
 40
1
 40
1
 40
1
 40
1
 10
160.455506
 20
22.183971
 30
0.0
 10
159.128932
 20
23.666718
 30
0.0
 10
157.977262
 20
24.135520
 30
0.0
 10
156.830717
 20
24.485846
 30
0.0
  0
SPLINE
  5
3a9
100
AcDbEntity
  8
Layer_1
 62
7
100
AcDbSpline
 70
8
 71
3
 72
8
 73
4
 74
0
 40
0
 40
0
 40
0
 40
0
 40
1
 40
1
 40
1
 40
1
 10
156.830717
 20
24.485846
 30
0.0
 10
155.684170
 20
24.836171
 30
0.0
 10
154.408283
 20
24.994492
 30
0.0
 10
153.368534
 20
26.049645
 30
0.0
  0
SPLINE
  5
3aa
100
AcDbEntity
  8
Layer_1
 62
7
100
AcDbSpline
 70
8
 71
3
 72
8
 73
4
 74
0
 40
0
 40
0
 40
0
 40
0
 40
1
 40
1
 40
1
 40
1
 10
153.368534
 20
26.049645
 30
0.0
 10
151.235808
 20
28.213962
 30
0.0
 10
150.836608
 20
30.469236
 30
0.0
 10
151.339508
 20
32.226561
 30
0.0
  0
SPLINE
  5
3ab
100
AcDbEntity
  8
Layer_1
 62
7
100
AcDbSpline
 70
8
 71
3
 72
8
 73
4
 74
0
 40
0
 40
0
 40
0
 40
0
 40
1
 40
1
 40
1
 40
1
 10
151.339508
 20
32.226561
 30
0.0
 10
151.842411
 20
33.983888
 30
0.0
 10
153.058061
 20
35.234592
 30
0.0
 10
153.703119
 20
35.967659
 30
0.0
  0
LINE
  5
3ac
100
AcDbEntity
  8
Layer_1
 62
7
100
AcDbLine
 10
153.703119
 20
35.967659
 30
0.0
 11
153.703119
 21
35.967670
 31
0.0
  0
SPLINE
  5
3ad
100
AcDbEntity
  8
Layer_1
 62
7
100
AcDbSpline
 70
8
 71
3
 72
8
 73
4
 74
0
 40
0
 40
0
 40
0
 40
0
 40
1
 40
1
 40
1
 40
1
 10
155.228333
 20
34.625461
 30
0.0
 10
154.541350
 20
33.844752
 30
0.0
 10
153.619576
 20
32.808760
 30
0.0
 10
153.293017
 20
31.667642
 30
0.0
  0
SPLINE
  5
3ae
100
AcDbEntity
  8
Layer_1
 62
7
100
AcDbSpline
 70
8
 71
3
 72
8
 73
4
 74
0
 40
0
 40
0
 40
0
 40
0
 40
1
 40
1
 40
1
 40
1
 10
153.293017
 20
31.667642
 30
0.0
 10
152.966457
 20
30.526522
 30
0.0
 10
153.046253
 20
29.271638
 30
0.0
 10
154.816023
 20
27.475649
 30
0.0
  0
SPLINE
  5
3af
100
AcDbEntity
  8
Layer_1
 62
7
100
AcDbSpline
 70
8
 71
3
 72
8
 73
4
 74
0
 40
0
 40
0
 40
0
 40
0
 40
1
 40
1
 40
1
 40
1
 10
154.816023
 20
27.475649
 30
0.0
 10
155.297745
 20
26.986789
 30
0.0
 10
156.121408
 20
26.827012
 30
0.0
 10
157.424375
 20
26.428892
 30
0.0
  0
SPLINE
  5
3b0
100
AcDbEntity
  8
Layer_1
 62
7
100
AcDbSpline
 70
8
 71
3
 72
8
 73
4
 74
0
 40
0
 40
0
 40
0
 40
0
 40
1
 40
1
 40
1
 40
1
 10
157.424375
 20
26.428892
 30
0.0
 10
158.727341
 20
26.030772
 30
0.0
 10
160.375025
 20
25.321274
 30
0.0
 10
161.969696
 20
23.538869
 30
0.0
  0
SPLINE
  5
3b1
100
AcDbEntity
  8
Layer_1
 62
7
100
AcDbSpline
 70
8
 71
3
 72
8
 73
4
 74
0
 40
0
 40
0
 40
0
 40
0
 40
1
 40
1
 40
1
 40
1
 10
161.969696
 20
23.538869
 30
0.0
 10
163.126415
 20
22.245972
 30
0.0
 10
163.453767
 20
20.235401
 30
0.0
 10
163.438685
 20
17.483218
 30
0.0
  0
SPLINE
  5
3b2
100
AcDbEntity
  8
Layer_1
 62
7
100
AcDbSpline
 70
8
 71
3
 72
8
 73
4
 74
0
 40
0
 40
0
 40
0
 40
0
 40
1
 40
1
 40
1
 40
1
 10
163.438685
 20
17.483218
 30
0.0
 10
163.427284
 20
15.404194
 30
0.0
 10
163.360645
 20
11.387574
 30
0.0
 10
163.317417
 20
6.000301
 30
0.0
  0
SPLINE
  5
3b3
100
AcDbEntity
  8
Layer_1
 62
7
100
AcDbSpline
 70
8
 71
3
 72
8
 73
4
 74
0
 40
0
 40
0
 40
0
 40
0
 40
1
 40
1
 40
1
 40
1
 10
230.997289
 20
30.068565
 30
0.0
 10
228.973984
 20
31.984425
 30
0.0
 10
227.364739
 20
32.563466
 30
0.0
 10
224.639570
 20
33.319633
 30
0.0
  0
SPLINE
  5
3b4
100
AcDbEntity
  8
Layer_1
 62
7
100
AcDbSpline
 70
8
 71
3
 72
8
 73
4
 74
0
 40
0
 40
0
 40
0
 40
0
 40
1
 40
1
 40
1
 40
1
 10
224.639570
 20
33.319633
 30
0.0
 10
224.749022
 20
33.289263
 30
0.0
 10
224.383022
 20
33.345823
 30
0.0
 10
223.994650
 20
33.341138
 30
0.0
  0
SPLINE
  5
3b5
100
AcDbEntity
  8
Layer_1
 62
7
100
AcDbSpline
 70
8
 71
3
 72
8
 73
4
 74
0
 40
0
 40
0
 40
0
 40
0
 40
1
 40
1
 40
1
 40
1
 10
223.994650
 20
33.341138
 30
0.0
 10
223.606279
 20
33.336453
 30
0.0
 10
223.118929
 20
33.311047
 30
0.0
 10
222.636456
 20
33.274440
 30
0.0
  0
SPLINE
  5
3b6
100
AcDbEntity
  8
Layer_1
 62
7
100
AcDbSpline
 70
8
 71
3
 72
8
 73
4
 74
0
 40
0
 40
0
 40
0
 40
0
 40
1
 40
1
 40
1
 40
1
 10
222.636456
 20
33.274440
 30
0.0
 10
222.153980
 20
33.237836
 30
0.0
 10
221.673500
 20
33.189997
 30
0.0
 10
221.293693
 20
33.141598
 30
0.0
  0
SPLINE
  5
3b7
100
AcDbEntity
  8
Layer_1
 62
7
100
AcDbSpline
 70
8
 71
3
 72
8
 73
4
 74
0
 40
0
 40
0
 40
0
 40
0
 40
1
 40
1
 40
1
 40
1
 10
221.293693
 20
33.141598
 30
0.0
 10
220.913890
 20
33.093200
 30
0.0
 10
220.549617
 20
33.003987
 30
0.0
 10
220.651528
 20
33.039073
 30
0.0
  0
SPLINE
  5
3b8
100
AcDbEntity
  8
Layer_1
 62
7
100
AcDbSpline
 70
8
 71
3
 72
8
 73
4
 74
0
 40
0
 40
0
 40
0
 40
0
 40
1
 40
1
 40
1
 40
1
 10
220.651528
 20
33.039073
 30
0.0
 10
218.010001
 20
32.129646
 30
0.0
 10
214.061952
 20
30.337935
 30
0.0
 10
210.146466
 20
29.177810
 30
0.0
  0
SPLINE
  5
3b9
100
AcDbEntity
  8
Layer_1
 62
7
100
AcDbSpline
 70
8
 71
3
 72
8
 73
4
 74
0
 40
0
 40
0
 40
0
 40
0
 40
1
 40
1
 40
1
 40
1
 10
210.146466
 20
29.177810
 30
0.0
 10
206.230977
 20
28.017685
 30
0.0
 10
202.223283
 20
27.358143
 30
0.0
 10
199.377371
 20
29.334906
 30
0.0
  0
SPLINE
  5
3ba
100
AcDbEntity
  8
Layer_1
 62
7
100
AcDbSpline
 70
8
 71
3
 72
8
 73
4
 74
0
 40
0
 40
0
 40
0
 40
0
 40
1
 40
1
 40
1
 40
1
 10
199.377371
 20
29.334906
 30
0.0
 10
195.892471
 20
31.755512
 30
0.0
 10
194.131334
 20
34.558983
 30
0.0
 10
193.926404
 20
37.384855
 30
0.0
  0
SPLINE
  5
3bb
100
AcDbEntity
  8
Layer_1
 62
7
100
AcDbSpline
 70
8
 71
3
 72
8
 73
4
 74
0
 40
0
 40
0
 40
0
 40
0
 40
1
 40
1
 40
1
 40
1
 10
193.926404
 20
37.384855
 30
0.0
 10
193.721474
 20
40.210723
 30
0.0
 10
195.061073
 20
42.890996
 30
0.0
 10
197.249681
 20
45.093052
 30
0.0
  0
LINE
  5
3bc
100
AcDbEntity
  8
Layer_1
 62
7
100
AcDbLine
 10
197.249681
 20
45.093052
 30
0.0
 11
197.249681
 21
45.093044
 31
0.0
  0
SPLINE
  5
3bd
100
AcDbEntity
  8
Layer_1
 62
7
100
AcDbSpline
 70
8
 71
3
 72
8
 73
4
 74
0
 40
0
 40
0
 40
0
 40
0
 40
1
 40
1
 40
1
 40
1
 10
198.690558
 20
43.660433
 30
0.0
 10
196.787028
 20
41.745211
 30
0.0
 10
195.801243
 20
39.627198
 30
0.0
 10
195.953222
 20
37.531469
 30
0.0
  0
SPLINE
  5
3be
100
AcDbEntity
  8
Layer_1
 62
7
100
AcDbSpline
 70
8
 71
3
 72
8
 73
4
 74
0
 40
0
 40
0
 40
0
 40
0
 40
1
 40
1
 40
1
 40
1
 10
195.953222
 20
37.531469
 30
0.0
 10
196.105202
 20
35.435741
 30
0.0
 10
197.383372
 20
33.194188
 30
0.0
 10
200.536579
 20
31.003977
 30
0.0
  0
SPLINE
  5
3bf
100
AcDbEntity
  8
Layer_1
 62
7
100
AcDbSpline
 70
8
 71
3
 72
8
 73
4
 74
0
 40
0
 40
0
 40
0
 40
0
 40
1
 40
1
 40
1
 40
1
 10
200.536579
 20
31.003977
 30
0.0
 10
202.403044
 20
29.707535
 30
0.0
 10
205.846034
 20
30.022775
 30
0.0
 10
209.568791
 20
31.125795
 30
0.0
  0
SPLINE
  5
3c0
100
AcDbEntity
  8
Layer_1
 62
7
100
AcDbSpline
 70
8
 71
3
 72
8
 73
4
 74
0
 40
0
 40
0
 40
0
 40
0
 40
1
 40
1
 40
1
 40
1
 10
209.568791
 20
31.125795
 30
0.0
 10
213.291548
 20
32.228818
 30
0.0
 10
217.168821
 20
33.988748
 30
0.0
 10
219.990069
 20
34.960049
 30
0.0
  0
SPLINE
  5
3c1
100
AcDbEntity
  8
Layer_1
 62
7
100
AcDbSpline
 70
8
 71
3
 72
8
 73
4
 74
0
 40
0
 40
0
 40
0
 40
0
 40
1
 40
1
 40
1
 40
1
 10
219.990069
 20
34.960049
 30
0.0
 10
220.355423
 20
35.085833
 30
0.0
 10
220.612409
 20
35.103300
 30
0.0
 10
221.036829
 20
35.157385
 30
0.0
  0
SPLINE
  5
3c2
100
AcDbEntity
  8
Layer_1
 62
7
100
AcDbSpline
 70
8
 71
3
 72
8
 73
4
 74
0
 40
0
 40
0
 40
0
 40
0
 40
1
 40
1
 40
1
 40
1
 10
221.036829
 20
35.157385
 30
0.0
 10
221.461249
 20
35.211470
 30
0.0
 10
221.968145
 20
35.261663
 30
0.0
 10
222.482667
 20
35.300700
 30
0.0
  0
SPLINE
  5
3c3
100
AcDbEntity
  8
Layer_1
 62
7
100
AcDbSpline
 70
8
 71
3
 72
8
 73
4
 74
0
 40
0
 40
0
 40
0
 40
0
 40
1
 40
1
 40
1
 40
1
 10
222.482667
 20
35.300700
 30
0.0
 10
222.997187
 20
35.339737
 30
0.0
 10
223.516467
 20
35.367431
 30
0.0
 10
223.969846
 20
35.372909
 30
0.0
  0
SPLINE
  5
3c4
100
AcDbEntity
  8
Layer_1
 62
7
100
AcDbSpline
 70
8
 71
3
 72
8
 73
4
 74
0
 40
0
 40
0
 40
0
 40
0
 40
1
 40
1
 40
1
 40
1
 10
223.969846
 20
35.372909
 30
0.0
 10
224.423222
 20
35.378385
 30
0.0
 10
224.734578
 20
35.402393
 30
0.0
 10
225.182518
 20
35.278100
 30
0.0
  0
SPLINE
  5
3c5
100
AcDbEntity
  8
Layer_1
 62
7
100
AcDbSpline
 70
8
 71
3
 72
8
 73
4
 74
0
 40
0
 40
0
 40
0
 40
0
 40
1
 40
1
 40
1
 40
1
 10
225.182518
 20
35.278100
 30
0.0
 10
227.981347
 20
34.501495
 30
0.0
 10
230.110400
 20
33.707087
 30
0.0
 10
232.394619
 20
31.544170
 30
0.0
  0
SPLINE
  5
3c6
100
AcDbEntity
  8
Layer_1
 62
7
100
AcDbSpline
 70
8
 71
3
 72
8
 73
4
 74
0
 40
0
 40
0
 40
0
 40
0
 40
1
 40
1
 40
1
 40
1
 10
244.914370
 20
18.988035
 30
0.0
 10
246.152620
 20
17.649664
 30
0.0
 10
247.047685
 20
16.695959
 30
0.0
 10
247.259143
 20
15.401829
 30
0.0
  0
SPLINE
  5
3c7
100
AcDbEntity
  8
Layer_1
 62
7
100
AcDbSpline
 70
8
 71
3
 72
8
 73
4
 74
0
 40
0
 40
0
 40
0
 40
0
 40
1
 40
1
 40
1
 40
1
 10
247.259143
 20
15.401829
 30
0.0
 10
247.259143
 20
15.401829
 30
0.0
 10
248.041395
 20
13.827831
 30
0.0
 10
246.036104
 20
11.807137
 30
0.0
  0
SPLINE
  5
3c8
100
AcDbEntity
  8
Layer_1
 62
7
100
AcDbSpline
 70
8
 71
3
 72
8
 73
4
 74
0
 40
0
 40
0
 40
0
 40
0
 40
1
 40
1
 40
1
 40
1
 10
246.036104
 20
11.807137
 30
0.0
 10
244.889867
 20
10.652094
 30
0.0
 10
242.873076
 20
10.173087
 30
0.0
 10
241.382692
 20
9.799331
 30
0.0
  0
SPLINE
  5
3c9
100
AcDbEntity
  8
Layer_1
 62
7
100
AcDbSpline
 70
8
 71
3
 72
8
 73
4
 74
0
 40
0
 40
0
 40
0
 40
0
 40
1
 40
1
 40
1
 40
1
 10
241.382692
 20
9.799331
 30
0.0
 10
240.047843
 20
9.464582
 30
0.0
 10
236.332816
 20
9.714620
 30
0.0
 10
234.944616
 20
10.023114
 30
0.0
  0
SPLINE
  5
3ca
100
AcDbEntity
  8
Layer_1
 62
7
100
AcDbSpline
 70
8
 71
3
 72
8
 73
4
 74
0
 40
0
 40
0
 40
0
 40
0
 40
1
 40
1
 40
1
 40
1
 10
234.944616
 20
10.023114
 30
0.0
 10
225.977118
 20
12.015910
 30
0.0
 10
223.136201
 20
11.784341
 30
0.0
 10
214.934871
 20
13.410289
 30
0.0
  0
SPLINE
  5
3cb
100
AcDbEntity
  8
Layer_1
 62
7
100
AcDbSpline
 70
8
 71
3
 72
8
 73
4
 74
0
 40
0
 40
0
 40
0
 40
0
 40
1
 40
1
 40
1
 40
1
 10
214.934871
 20
13.410289
 30
0.0
 10
209.893609
 20
14.409739
 30
0.0
 10
204.635019
 20
15.623817
 30
0.0
 10
199.613292
 20
16.914916
 30
0.0
  0
SPLINE
  5
3cc
100
AcDbEntity
  8
Layer_1
 62
7
100
AcDbSpline
 70
8
 71
3
 72
8
 73
4
 74
0
 40
0
 40
0
 40
0
 40
0
 40
1
 40
1
 40
1
 40
1
 10
199.613292
 20
16.914916
 30
0.0
 10
196.123132
 20
17.812244
 30
0.0
 10
191.508553
 20
19.479161
 30
0.0
 10
187.011409
 20
20.244255
 30
0.0
  0
SPLINE
  5
3cd
100
AcDbEntity
  8
Layer_1
 62
7
100
AcDbSpline
 70
8
 71
3
 72
8
 73
4
 74
0
 40
0
 40
0
 40
0
 40
0
 40
1
 40
1
 40
1
 40
1
 10
187.011409
 20
20.244255
 30
0.0
 10
182.514266
 20
21.009351
 30
0.0
 10
178.276547
 20
20.847366
 30
0.0
 10
175.373601
 20
18.416979
 30
0.0
  0
SPLINE
  5
3ce
100
AcDbEntity
  8
Layer_1
 62
7
100
AcDbSpline
 70
8
 71
3
 72
8
 73
4
 74
0
 40
0
 40
0
 40
0
 40
0
 40
1
 40
1
 40
1
 40
1
 10
175.373601
 20
18.416979
 30
0.0
 10
173.412210
 20
16.774871
 30
0.0
 10
171.936473
 20
15.619535
 30
0.0
 10
170.971592
 20
13.971425
 30
0.0
  0
SPLINE
  5
3cf
100
AcDbEntity
  8
Layer_1
 62
7
100
AcDbSpline
 70
8
 71
3
 72
8
 73
4
 74
0
 40
0
 40
0
 40
0
 40
0
 40
1
 40
1
 40
1
 40
1
 10
170.971592
 20
13.971425
 30
0.0
 10
170.006716
 20
12.323318
 30
0.0
 10
169.453292
 20
10.072980
 30
0.0
 10
169.550560
 20
6.049910
 30
0.0
  0
SPLINE
  5
3d0
100
AcDbEntity
  8
Layer_1
 62
7
100
AcDbSpline
 70
8
 71
3
 72
8
 73
4
 74
0
 40
0
 40
0
 40
0
 40
0
 40
1
 40
1
 40
1
 40
1
 10
167.519331
 20
6.000301
 30
0.0
 10
167.417037
 20
10.231377
 30
0.0
 10
168.012229
 20
12.938458
 30
0.0
 10
169.218176
 20
14.998339
 30
0.0
  0
SPLINE
  5
3d1
100
AcDbEntity
  8
Layer_1
 62
7
100
AcDbSpline
 70
8
 71
3
 72
8
 73
4
 74
0
 40
0
 40
0
 40
0
 40
0
 40
1
 40
1
 40
1
 40
1
 10
169.218176
 20
14.998339
 30
0.0
 10
170.424123
 20
17.058222
 30
0.0
 10
172.141205
 20
18.361389
 30
0.0
 10
174.068873
 20
19.975263
 30
0.0
  0
SPLINE
  5
3d2
100
AcDbEntity
  8
Layer_1
 62
7
100
AcDbSpline
 70
8
 71
3
 72
8
 73
4
 74
0
 40
0
 40
0
 40
0
 40
0
 40
1
 40
1
 40
1
 40
1
 10
174.068873
 20
19.975263
 30
0.0
 10
176.320394
 20
21.860267
 30
0.0
 10
179.091531
 20
22.592310
 30
0.0
 10
182.012438
 20
22.678974
 30
0.0
  0
SPLINE
  5
3d3
100
AcDbEntity
  8
Layer_1
 62
7
100
AcDbSpline
 70
8
 71
3
 72
8
 73
4
 74
0
 40
0
 40
0
 40
0
 40
0
 40
1
 40
1
 40
1
 40
1
 10
182.012438
 20
22.678974
 30
0.0
 10
183.764982
 20
22.730971
 30
0.0
 10
185.571593
 20
22.550281
 30
0.0
 10
187.352060
 20
22.247372
 30
0.0
  0
SPLINE
  5
3d4
100
AcDbEntity
  8
Layer_1
 62
7
100
AcDbSpline
 70
8
 71
3
 72
8
 73
4
 74
0
 40
0
 40
0
 40
0
 40
0
 40
1
 40
1
 40
1
 40
1
 10
187.352060
 20
22.247372
 30
0.0
 10
192.099969
 20
21.439615
 30
0.0
 10
196.805071
 20
19.734711
 30
0.0
 10
200.118758
 20
18.882755
 30
0.0
  0
SPLINE
  5
3d5
100
AcDbEntity
  8
Layer_1
 62
7
100
AcDbSpline
 70
8
 71
3
 72
8
 73
4
 74
0
 40
0
 40
0
 40
0
 40
0
 40
1
 40
1
 40
1
 40
1
 10
200.118758
 20
18.882755
 30
0.0
 10
205.106714
 20
17.600338
 30
0.0
 10
210.332428
 20
16.394292
 30
0.0
 10
215.330092
 20
15.403483
 30
0.0
  0
SPLINE
  5
3d6
100
AcDbEntity
  8
Layer_1
 62
7
100
AcDbSpline
 70
8
 71
3
 72
8
 73
4
 74
0
 40
0
 40
0
 40
0
 40
0
 40
1
 40
1
 40
1
 40
1
 10
215.330092
 20
15.403483
 30
0.0
 10
223.519250
 20
13.779949
 30
0.0
 10
226.320912
 20
13.812594
 30
0.0
 10
235.313748
 20
11.814164
 30
0.0
  0
SPLINE
  5
3d7
100
AcDbEntity
  8
Layer_1
 62
7
100
AcDbSpline
 70
8
 71
3
 72
8
 73
4
 74
0
 40
0
 40
0
 40
0
 40
0
 40
1
 40
1
 40
1
 40
1
 10
235.313748
 20
11.814164
 30
0.0
 10
236.731139
 20
11.499184
 30
0.0
 10
238.388983
 20
11.389789
 30
0.0
 10
239.429691
 20
11.372500
 30
0.0
  0
SPLINE
  5
3d8
100
AcDbEntity
  8
Layer_1
 62
7
100
AcDbSpline
 70
8
 71
3
 72
8
 73
4
 74
0
 40
0
 40
0
 40
0
 40
0
 40
1
 40
1
 40
1
 40
1
 10
239.429691
 20
11.372500
 30
0.0
 10
240.470400
 20
11.355200
 30
0.0
 10
242.563509
 20
11.684982
 30
0.0
 10
243.612312
 20
12.357574
 30
0.0
  0
SPLINE
  5
3d9
100
AcDbEntity
  8
Layer_1
 62
7
100
AcDbSpline
 70
8
 71
3
 72
8
 73
4
 74
0
 40
0
 40
0
 40
0
 40
0
 40
1
 40
1
 40
1
 40
1
 10
243.612312
 20
12.357574
 30
0.0
 10
244.897990
 20
13.182072
 30
0.0
 10
245.257493
 20
13.338017
 30
0.0
 10
245.339250
 20
14.891394
 30
0.0
  0
SPLINE
  5
3da
100
AcDbEntity
  8
Layer_1
 62
7
100
AcDbSpline
 70
8
 71
3
 72
8
 73
4
 74
0
 40
0
 40
0
 40
0
 40
0
 40
1
 40
1
 40
1
 40
1
 10
245.339250
 20
14.891394
 30
0.0
 10
245.394382
 20
15.938892
 30
0.0
 10
244.389276
 20
16.563701
 30
0.0
 10
243.422780
 20
17.608344
 30
0.0
  0
ENDSEC
  0
SECTION
  2
OBJECTS
  0
DICTIONARY
  5
C
330
0
100
AcDbDictionary
  3
ACAD_GROUP
350
D
  3
ACAD_MLINESTYLE
350
17
  0
DICTIONARY
  5
D
330
C
100
AcDbDictionary
  0
DICTIONARY
  5
1A
330
C
100
AcDbDictionary
  0
DICTIONARY
  5
17
330
C
100
AcDbDictionary
  3
STANDARD
350
18
  0
DICTIONARY
  5
19
330
C
100
AcDbDictionary
  0
ENDSEC
  0
EOF
