<?xml version="1.0" encoding="UTF-8" standalone="no"?>
<!-- Created with Inkscape (http://www.inkscape.org/) -->

<svg
   xmlns:dc="http://purl.org/dc/elements/1.1/"
   xmlns:cc="http://creativecommons.org/ns#"
   xmlns:rdf="http://www.w3.org/1999/02/22-rdf-syntax-ns#"
   xmlns:svg="http://www.w3.org/2000/svg"
   xmlns="http://www.w3.org/2000/svg"
   xmlns:sodipodi="http://sodipodi.sourceforge.net/DTD/sodipodi-0.dtd"
   xmlns:inkscape="http://www.inkscape.org/namespaces/inkscape"
   width="235.25256"
   height="435.17813"
   viewBox="0 0 235.25257 435.17815"
   id="svg4316"
   version="1.1"
   inkscape:version="0.92.1 unknown"
   sodipodi:docname="a_side.svg">
  <defs
     id="defs4318" />
  <sodipodi:namedview
     id="base"
     pagecolor="#ffffff"
     bordercolor="#666666"
     borderopacity="1.0"
     inkscape:pageopacity="0.0"
     inkscape:pageshadow="2"
     inkscape:zoom="0.49497475"
     inkscape:cx="1015.5483"
     inkscape:cy="-47.855931"
     inkscape:document-units="px"
     inkscape:current-layer="g4283"
     showgrid="false"
     units="px"
     fit-margin-top="15"
     fit-margin-left="15"
     fit-margin-right="15"
     fit-margin-bottom="15"
     inkscape:window-width="1557"
     inkscape:window-height="879"
     inkscape:window-x="43"
     inkscape:window-y="21"
     inkscape:window-maximized="1" />
  <metadata
     id="metadata4321">
    <rdf:RDF>
      <cc:Work
         rdf:about="">
        <dc:format>image/svg+xml</dc:format>
        <dc:type
           rdf:resource="http://purl.org/dc/dcmitype/StillImage" />
        <dc:title />
      </cc:Work>
    </rdf:RDF>
  </metadata>
  <g
     inkscape:label="Layer 1"
     inkscape:groupmode="layer"
     id="layer1"
     transform="translate(922.59662,-162.33176)">
    <g
       transform="matrix(2.6939182,0,0,2.6808514,-155.37983,139.83706)"
       id="g4303"
       style="fill:#c60000;fill-opacity:1">
      <g
         id="g4283"
         style="fill:#c60000;fill-opacity:1"
         transform="translate(0,4.4761901)">
        <path
           style="fill:#c60000;fill-opacity:1;stroke:#c60000;stroke-width:0.05965468;stroke-linecap:round;stroke-linejoin:round;stroke-miterlimit:4;stroke-dasharray:none;stroke-opacity:1"
           d=""
           id="path998"
           inkscape:connector-curvature="0"
           transform="matrix(0.37120652,0,0,0.37301583,-120.48876,64.769028)" />
        <path
           style="fill:#c60000;fill-opacity:1;stroke:#c60000;stroke-width:0.05965468;stroke-linecap:round;stroke-linejoin:round;stroke-miterlimit:4;stroke-dasharray:none;stroke-opacity:1"
           d=""
           id="path1000"
           inkscape:connector-curvature="0"
           transform="matrix(0.37120652,0,0,0.37301583,-120.48876,64.769028)" />
        <path
           style="fill:#c60000;fill-opacity:1;stroke:#c60000;stroke-width:0.05965468;stroke-linecap:round;stroke-linejoin:round;stroke-miterlimit:4;stroke-dasharray:none;stroke-opacity:1"
           d=""
           id="path1002"
           inkscape:connector-curvature="0"
           transform="matrix(0.37120652,0,0,0.37301583,-120.48876,64.769028)" />
        <path
           style="fill:#c60000;fill-opacity:1;stroke:#c60000;stroke-width:0.05965468;stroke-linecap:round;stroke-linejoin:round;stroke-miterlimit:4;stroke-dasharray:none;stroke-opacity:1"
           d=""
           id="path1004"
           inkscape:connector-curvature="0"
           transform="matrix(0.37120652,0,0,0.37301583,-120.48876,64.769028)" />
        <path
           style="fill:#c60000;fill-opacity:1;stroke:#c60000;stroke-width:0.05965468;stroke-linecap:round;stroke-linejoin:round;stroke-miterlimit:4;stroke-dasharray:none;stroke-opacity:1"
           d=""
           id="path1006"
           inkscape:connector-curvature="0"
           transform="matrix(0.37120652,0,0,0.37301583,-120.48876,64.769028)" />
        <path
           style="fill:#c60000;fill-opacity:1;stroke:#c60000;stroke-width:0.05965468;stroke-linecap:round;stroke-linejoin:round;stroke-miterlimit:4;stroke-dasharray:none;stroke-opacity:1"
           d=""
           id="path1012"
           inkscape:connector-curvature="0"
           transform="matrix(0.37120652,0,0,0.37301583,-120.48876,64.769028)" />
        <g
           id="g1914"
           transform="translate(0,-1.073587)">
          <g
             transform="matrix(0.99897081,-0.04557875,0.04513766,0.99897081,-5.9633091,-10.860193)"
             id="g1804">
            <g
               aria-label="245"
               transform="scale(0.99757181,1.0024341)"
               style="font-style:normal;font-variant:normal;font-weight:normal;font-stretch:normal;font-size:23.8150444px;line-height:125%;font-family:Instruction;-inkscape-font-specification:Instruction;letter-spacing:3.50899434px;word-spacing:0px;fill:#c60000;fill-opacity:1;stroke:none;stroke-width:0.37211007px;stroke-linecap:butt;stroke-linejoin:miter;stroke-opacity:1"
               id="text1040">
              <path
                 d="m -278.43076,113.91446 q 0,-3.43745 2.42184,-5.85928 2.44137,-2.44137 5.87881,-2.44137 h 2.92964 q 1.81638,0 3.10542,-1.28904 1.28904,-1.28904 1.28904,-3.10542 0,-1.816377 -1.28904,-3.105419 -1.28904,-1.289041 -3.10542,-1.289041 h -2.92964 q -1.81638,0 -3.10542,1.289041 -1.28904,1.289042 -1.28904,3.105419 0,0.80077 -0.58593,1.3867 -0.56639,0.56639 -1.36716,0.56639 -0.80077,0 -1.3867,-0.56639 -0.5664,-0.58593 -0.5664,-1.3867 0,-3.437444 2.42184,-5.85928 2.44137,-2.441367 5.87881,-2.441367 h 2.92964 q 3.43745,0 5.85928,2.441367 2.44137,2.421836 2.44137,5.85928 0,3.43744 -2.44137,5.87881 -2.42183,2.42184 -5.85928,2.42184 h -2.92964 q -1.81638,0 -3.10542,1.28904 -1.28904,1.28904 -1.28904,3.10542 v 4.39446 h 13.67165 q 0.80077,0 1.36717,0.58592 0.58593,0.5664 0.58593,1.36717 0,0.80077 -0.58593,1.3867 -0.5664,0.56639 -1.36717,0.56639 h -15.62474 q -0.80077,0 -1.3867,-0.56639 -0.5664,-0.58593 -0.5664,-1.3867 z"
                 style="letter-spacing:2.00567341px"
                 id="path6029" />
              <path
                 d="m -237.36321,94.871796 v 15.624744 h 1.95309 q 0.80077,0 1.36716,0.58593 0.58593,0.5664 0.58593,1.36717 0,0.80076 -0.58593,1.38669 -0.56639,0.5664 -1.36716,0.5664 h -1.95309 v 5.85928 q 0,0.80077 -0.58593,1.3867 -0.5664,0.56639 -1.36717,0.56639 -0.80077,0 -1.38669,-0.56639 -0.5664,-0.58593 -0.5664,-1.3867 v -5.85928 h -9.76547 q -0.80077,0 -1.38669,-0.5664 -0.5664,-0.58593 -0.5664,-1.38669 0,-0.80077 0.58593,-1.3867 l 0.23437,-0.42968 10.68342,-16.034897 q 0.37109,-0.64452 0.72264,-1.035139 0.0391,-0.03906 0.0781,-0.07812 0.56639,-0.566397 1.36716,-0.566397 0.80077,0 1.3867,0.566397 0.5664,0.585928 0.5664,1.386696 z m -10.01937,15.624744 h 6.11318 V 101.317 Z"
                 style="letter-spacing:4.29043007px"
                 id="path6031" />
              <path
                 d="m -221.35422,96.82489 v 5.85928 h 7.3241 q 3.43744,0 5.85928,2.44137 2.44136,2.42183 2.44136,5.85928 v 2.92964 q 0,3.43744 -2.44136,5.87881 -2.42184,2.42183 -5.85928,2.42183 h -2.92964 q -3.43745,0 -5.87881,-2.42183 -2.42184,-2.44137 -2.42184,-5.87881 0,-0.80077 0.5664,-1.36717 0.58592,-0.58593 1.38669,-0.58593 0.80077,0 1.36717,0.58593 0.58593,0.5664 0.58593,1.36717 0,1.81637 1.28904,3.10541 1.28904,1.28905 3.10542,1.28905 h 2.92964 q 1.81637,0 3.10541,-1.28905 1.28905,-1.28904 1.28905,-3.10541 v -2.94917 q 0,-1.79685 -1.28905,-3.08589 -1.28904,-1.28904 -3.10541,-1.28904 h -9.2772 q -0.80077,0 -1.38669,-0.5664 -0.5664,-0.58593 -0.5664,-1.3867 v -9.765464 q 0,-0.800768 0.5664,-1.367165 0.58592,-0.585928 1.38669,-0.585928 h 15.62475 q 0.80077,0 1.36717,0.585928 0.58592,0.566397 0.58592,1.367165 0,0.800769 -0.58592,1.386697 -0.5664,0.566397 -1.36717,0.566397 z"
                 style="letter-spacing:4.29043007px"
                 id="path6033" />
            </g>
            <g
               id="g1795">
              <g
                 aria-label="dad"
                 transform="scale(0.99757181,1.0024341)"
                 style="font-style:normal;font-variant:normal;font-weight:normal;font-stretch:normal;font-size:23.8150444px;line-height:125%;font-family:Instruction;-inkscape-font-specification:Instruction;letter-spacing:3.50899434px;word-spacing:0px;fill:#c60000;fill-opacity:1;stroke:none;stroke-width:0.37211007px;stroke-linecap:butt;stroke-linejoin:miter;stroke-opacity:1"
                 id="text1044">
                <path
                   d="m -276.47766,159.69789 q -0.80077,0 -1.3867,-0.5664 -0.5664,-0.58592 -0.5664,-1.38669 v -25.39022 q 0,-0.80076 0.5664,-1.36716 0.58593,-0.58593 1.3867,-0.58593 h 7.81237 q 4.0429,0 6.89442,2.87105 2.87105,2.85151 2.87105,6.89442 v 9.76546 q 0,4.04291 -2.87105,6.91395 -2.85152,2.85152 -6.89442,2.85152 z m 1.95309,-25.39021 v 21.48402 h 5.85928 q 2.42184,0 4.14056,-1.71872 1.71872,-1.71872 1.71872,-4.14056 v -9.76546 q 0,-2.42184 -1.71872,-4.14056 -1.71872,-1.71872 -4.14056,-1.71872 z"
                   style="font-size:39.9993515px;letter-spacing:3.50899434px;fill:#c60000;fill-opacity:1;stroke-width:0.37211007px"
                   id="path6036" />
                <path
                   d="m -246.30894,153.83861 -1.0742,3.51557 q -0.39062,1.19139 -0.8789,1.77731 -0.46874,0.5664 -1.26951,0.5664 -0.80077,0 -1.38669,-0.5664 -0.5664,-0.58592 -0.5664,-1.38669 0,-0.66405 0.39062,-1.56248 l 7.42175,-24.21835 h 0.0391 q 0.0976,-0.54687 0.54686,-0.97655 0.5664,-0.58593 1.36717,-0.58593 0.80076,0 1.38669,0.58593 0.42968,0.42968 0.52734,0.97655 h 0.0391 l 7.42175,24.21835 q 0.39062,0.89843 0.39062,1.56248 0,0.80077 -0.58592,1.38669 -0.5664,0.5664 -1.36717,0.5664 -0.80077,0 -1.28904,-0.5664 -0.46874,-0.58592 -0.85936,-1.77731 l -1.0742,-3.51557 z m 7.98815,-3.90619 -3.39838,-11.17169 -3.39839,11.17169 z"
                   style="font-size:39.9993515px;letter-spacing:3.50899434px;fill:#c60000;fill-opacity:1;stroke-width:0.37211007px"
                   id="path6038" />
                <path
                   d="m -222.58543,159.69789 q -0.80077,0 -1.3867,-0.5664 -0.56639,-0.58592 -0.56639,-1.38669 v -25.39022 q 0,-0.80076 0.56639,-1.36716 0.58593,-0.58593 1.3867,-0.58593 h 7.81237 q 4.04291,0 6.89442,2.87105 2.87105,2.85151 2.87105,6.89442 v 9.76546 q 0,4.04291 -2.87105,6.91395 -2.85151,2.85152 -6.89442,2.85152 z m 1.95309,-25.39021 v 21.48402 h 5.85928 q 2.42184,0 4.14056,-1.71872 1.71872,-1.71872 1.71872,-4.14056 v -9.76546 q 0,-2.42184 -1.71872,-4.14056 -1.71872,-1.71872 -4.14056,-1.71872 z"
                   style="font-size:39.9993515px;letter-spacing:3.50899434px;fill:#c60000;fill-opacity:1;stroke-width:0.37211007px"
                   id="path6040" />
              </g>
            </g>
          </g>
          <g
             transform="matrix(0.99758467,0.06979951,-0.06912403,0.99758467,-6.3604543,26.832218)"
             id="g1791">
            <path
               style="color:#000000;font-style:normal;font-variant:normal;font-weight:normal;font-stretch:normal;font-size:medium;line-height:normal;font-family:sans-serif;font-variant-ligatures:normal;font-variant-position:normal;font-variant-caps:normal;font-variant-numeric:normal;font-variant-alternates:normal;font-feature-settings:normal;text-indent:0;text-align:start;text-decoration:none;text-decoration-line:none;text-decoration-style:solid;text-decoration-color:#000000;letter-spacing:normal;word-spacing:normal;text-transform:none;writing-mode:lr-tb;direction:ltr;text-orientation:mixed;dominant-baseline:auto;baseline-shift:baseline;text-anchor:start;white-space:normal;shape-padding:0;clip-rule:nonzero;display:inline;overflow:visible;visibility:visible;opacity:1;isolation:auto;mix-blend-mode:normal;color-interpolation:sRGB;color-interpolation-filters:linearRGB;solid-color:#000000;solid-opacity:1;vector-effect:none;fill:#c60000;fill-opacity:1;fill-rule:evenodd;stroke:#c60000;stroke-width:1.10087132;stroke-linecap:round;stroke-linejoin:round;stroke-miterlimit:4;stroke-dasharray:none;stroke-dashoffset:0;stroke-opacity:1;color-rendering:auto;image-rendering:auto;shape-rendering:auto;text-rendering:auto;enable-background:accumulate"
               d="m -235.51117,0.7516184 a 2.1966159,2.2073225 0 1 0 0,4.4141922 h 34.34443 a 2.1966159,2.2073225 0 1 0 0,-4.4141922 z m 17.2194,4.6469532 a 2.1966159,2.2073225 0 0 0 -1.38993,0.4827739 2.1966159,2.2073225 0 0 0 -0.12868,0.1120909 2.1966159,2.2073225 0 0 0 -0.0517,0.044148 2.1966159,2.2073225 0 0 0 -0.12023,0.1205448 2.1966159,2.2073225 0 0 0 -0.0188,0.028179 l -9.36041,10.5354858 a 2.1966594,2.2073662 0 1 0 3.27744,2.939946 l 5.54249,-6.241964 v 30.502831 a 2.1966159,2.2073225 0 1 0 4.39277,0 V 13.419776 l 5.54246,6.241964 a 2.1998616,2.2105841 0 1 0 3.28602,-2.939946 l -9.13735,-10.2768001 a 2.1966159,2.2073225 0 0 0 -0.0157,-0.028179 2.1966159,2.2073225 0 0 0 -1.81888,-1.0173351 z"
               id="path7398"
               inkscape:connector-curvature="0" />
            <path
               inkscape:connector-curvature="0"
               id="path5493-4"
               style="font-style:normal;font-variant:normal;font-weight:normal;font-stretch:normal;font-size:10.58333302px;line-height:10.00125027px;font-family:Instruction;-inkscape-font-specification:Instruction;letter-spacing:1.32291663px;word-spacing:0px;fill:#c60000;fill-opacity:1;stroke:#c60000;stroke-width:1.16508865px;stroke-linecap:butt;stroke-linejoin:miter;stroke-opacity:1"
               d="m -256.88181,33.720357 -1.24853,4.106005 q -0.45403,1.391462 -1.02153,2.075781 -0.5448,0.661524 -1.4755,0.661524 -0.93076,0 -1.61176,-0.661524 -0.6583,-0.684319 -0.6583,-1.619558 0,-0.775588 0.45403,-1.824891 l 8.62612,-28.2856852 h 0.0451 q 0.11334,-0.638668 0.6356,-1.1405412 0.6583,-0.6843184 1.589,-0.6843184 0.93076,0 1.61176,0.6843184 0.49943,0.5018732 0.61287,1.1405412 h 0.0454 l 8.62612,28.2856852 q 0.45403,1.049303 0.45403,1.824891 0,0.935239 -0.681,1.619558 -0.65836,0.661524 -1.58906,0.661524 -0.9307,0 -1.4982,-0.661524 -0.54483,-0.684319 -0.99883,-2.075781 l -1.24853,-4.106005 z m 9.28442,-4.562196 -3.94986,-13.047889 -3.94989,13.047889 z" />
          </g>
        </g>
      </g>
    </g>
  </g>
</svg>
