  0
SECTION
  2
HEADER
  9
$ACADVER
  1
AC1014
  9
$HANDSEED
  5
FFFF
  9
$MEASUREMENT
 70
     1
  0
ENDSEC
  0
SECTION
  2
TABLES
  0
TABLE
  2
VPORT
  5
8
330
0
100
AcDbSymbolTable
 70
     4
  0
VPORT
  5
2E
330
8
100
AcDbSymbolTableRecord
100
AcDbViewportTableRecord
  2
*ACTIVE
 70
     0
 10
0.0
 20
0.0
 11
1.0
 21
1.0
 12
210.0
 22
148.5
 13
0.0
 23
0.0
 14
10.0
 24
10.0
 15
10.0
 25
10.0
 16
0.0
 26
0.0
 36
1.0
 17
0.0
 27
0.0
 37
0.0
 40
341.0
 41
1.24
 42
50.0
 43
0.0
 44
0.0
 50
0.0
 51
0.0
 71
     0
 72
   100
 73
     1
 74
     3
 75
     0
 76
     0
 77
     0
 78
     0
  0
ENDTAB
  0
TABLE
  2
LTYPE
  5
5
330
0
100
AcDbSymbolTable
 70
     1
  0
LTYPE
  5
14
330
5
100
AcDbSymbolTableRecord
100
AcDbLinetypeTableRecord
  2
BYBLOCK
 70
     0
  3

 72
    65
 73
     0
 40
0.0
  0
LTYPE
  5
15
330
5
100
AcDbSymbolTableRecord
100
AcDbLinetypeTableRecord
  2
BYLAYER
 70
     0
  3

 72
    65
 73
     0
 40
0.0
  0
LTYPE
  5
16
330
5
100
AcDbSymbolTableRecord
100
AcDbLinetypeTableRecord
  2
CONTINUOUS
 70
     0
  3
Solid line
 72
    65
 73
     0
 40
0.0
  0
ENDTAB
  0
TABLE
  2
LAYER
  5
2
100
AcDbSymbolTable
 70
2
  0
LAYER
  5
50
100
AcDbSymbolTableRecord
100
AcDbLayerTableRecord
  2
0
 70
0
  6
CONTINUOUS
  0
LAYER
  5
51
100
AcDbSymbolTableRecord
100
AcDbLayerTableRecord
  2
Layer_1
 70
0
  6
CONTINUOUS
  0
ENDTAB
  0
TABLE
  2
STYLE
  5
3
330
0
100
AcDbSymbolTable
 70
     1
  0
STYLE
  5
11
330
3
100
AcDbSymbolTableRecord
100
AcDbTextStyleTableRecord
  2
STANDARD
 70
     0
 40
0.0
 41
1.0
 50
0.0
 71
     0
 42
2.5
  3
txt
  4

  0
ENDTAB
  0
TABLE
  2
VIEW
  5
6
330
0
100
AcDbSymbolTable
 70
     0
  0
ENDTAB
  0
TABLE
  2
UCS
  5
7
330
0
100
AcDbSymbolTable
 70
     0
  0
ENDTAB
  0
TABLE
  2
APPID
  5
9
330
0
100
AcDbSymbolTable
 70
     2
  0
APPID
  5
12
330
9
100
AcDbSymbolTableRecord
100
AcDbRegAppTableRecord
  2
ACAD
 70
     0
  0
ENDTAB
  0
TABLE
  2
DIMSTYLE
  5
A
330
0
100
AcDbSymbolTable
 70
     1
  0
DIMSTYLE
105
27
330
A
100
AcDbSymbolTableRecord
100
AcDbDimStyleTableRecord
  2
ISO-25
 70
     0
  3

  4

  5

  6

  7

 40
1.0
 41
2.5
 42
0.625
 43
3.75
 44
1.25
 45
0.0
 46
0.0
 47
0.0
 48
0.0
140
2.5
141
2.5
142
0.0
143
0.03937007874016
144
1.0
145
0.0
146
1.0
147
0.625
 71
     0
 72
     0
 73
     0
 74
     0
 75
     0
 76
     0
 77
     1
 78
     8
170
     0
171
     3
172
     1
173
     0
174
     0
175
     0
176
     0
177
     0
178
     0
270
     2
271
     2
272
     2
273
     2
274
     3
340
11
275
     0
280
     0
281
     0
282
     0
283
     0
284
     8
285
     0
286
     0
287
     3
288
     0
  0
ENDTAB
  0
TABLE
  2
BLOCK_RECORD
  5
1
330
0
100
AcDbSymbolTable
 70
     1
  0
BLOCK_RECORD
  5
1F
330
1
100
AcDbSymbolTableRecord
100
AcDbBlockTableRecord
  2
*MODEL_SPACE
  0
BLOCK_RECORD
  5
1B
330
1
100
AcDbSymbolTableRecord
100
AcDbBlockTableRecord
  2
*PAPER_SPACE
  0
ENDTAB
  0
ENDSEC
  0
SECTION
  2
BLOCKS
  0
BLOCK
  5
20
330
1F
100
AcDbEntity
  8
0
100
AcDbBlockBegin
  2
*MODEL_SPACE
 70
     0
 10
0.0
 20
0.0
 30
0.0
  3
*MODEL_SPACE
  1

  0
ENDBLK
  5
21
330
1F
100
AcDbEntity
  8
0
100
AcDbBlockEnd
  0
BLOCK
  5
1C
330
1B
100
AcDbEntity
 67
     1
  8
0
100
AcDbBlockBegin
  2
*PAPER_SPACE
  1

  0
ENDBLK
  5
1D
330
1B
100
AcDbEntity
 67
     1
  8
0
100
AcDbBlockEnd
  0
ENDSEC
  0
SECTION
  2
ENTITIES
  0
LINE
  5
100
100
AcDbEntity
  8
Layer_1
 62
7
100
AcDbLine
 10
0.510803
 20
4.505881
 30
0.0
 11
11.510802
 21
4.505881
 31
0.0
  0
LINE
  5
101
100
AcDbEntity
  8
Layer_1
 62
7
100
AcDbLine
 10
11.510802
 20
4.505881
 30
0.0
 11
11.510802
 21
0.505881
 31
0.0
  0
LINE
  5
102
100
AcDbEntity
  8
Layer_1
 62
7
100
AcDbLine
 10
11.510802
 20
0.505881
 30
0.0
 11
0.510803
 21
0.505881
 31
0.0
  0
LINE
  5
103
100
AcDbEntity
  8
Layer_1
 62
7
100
AcDbLine
 10
0.510803
 20
0.505881
 30
0.0
 11
0.510803
 21
4.505881
 31
0.0
  0
SPLINE
  5
104
100
AcDbEntity
  8
Layer_1
 62
7
100
AcDbSpline
 70
8
 71
3
 72
8
 73
4
 74
0
 40
0
 40
0
 40
0
 40
0
 40
1
 40
1
 40
1
 40
1
 10
1.616551
 20
4.102944
 30
0.0
 10
1.496333
 20
4.102944
 30
0.0
 10
1.399537
 20
3.999324
 30
0.0
 10
1.399537
 20
3.870630
 30
0.0
  0
LINE
  5
105
100
AcDbEntity
  8
Layer_1
 62
7
100
AcDbLine
 10
1.399537
 20
3.870630
 30
0.0
 11
1.399537
 21
1.141110
 31
0.0
  0
SPLINE
  5
106
100
AcDbEntity
  8
Layer_1
 62
7
100
AcDbSpline
 70
8
 71
3
 72
8
 73
4
 74
0
 40
0
 40
0
 40
0
 40
0
 40
1
 40
1
 40
1
 40
1
 10
1.399537
 20
1.141110
 30
0.0
 10
1.399537
 20
1.012416
 30
0.0
 10
1.496333
 20
0.908819
 30
0.0
 10
1.616551
 20
0.908819
 30
0.0
  0
LINE
  5
107
100
AcDbEntity
  8
Layer_1
 62
7
100
AcDbLine
 10
1.616551
 20
0.908819
 30
0.0
 11
10.405075
 21
0.908819
 31
0.0
  0
SPLINE
  5
108
100
AcDbEntity
  8
Layer_1
 62
7
100
AcDbSpline
 70
8
 71
3
 72
8
 73
4
 74
0
 40
0
 40
0
 40
0
 40
0
 40
1
 40
1
 40
1
 40
1
 10
10.405075
 20
0.908819
 30
0.0
 10
10.525294
 20
0.908819
 30
0.0
 10
10.622067
 20
1.012416
 30
0.0
 10
10.622067
 20
1.141110
 30
0.0
  0
LINE
  5
109
100
AcDbEntity
  8
Layer_1
 62
7
100
AcDbLine
 10
10.622067
 20
1.141110
 30
0.0
 11
10.622067
 21
3.870630
 31
0.0
  0
SPLINE
  5
10a
100
AcDbEntity
  8
Layer_1
 62
7
100
AcDbSpline
 70
8
 71
3
 72
8
 73
4
 74
0
 40
0
 40
0
 40
0
 40
0
 40
1
 40
1
 40
1
 40
1
 10
10.622067
 20
3.870630
 30
0.0
 10
10.622067
 20
3.999324
 30
0.0
 10
10.525294
 20
4.102944
 30
0.0
 10
10.405075
 20
4.102944
 30
0.0
  0
LINE
  5
10b
100
AcDbEntity
  8
Layer_1
 62
7
100
AcDbLine
 10
10.405075
 20
4.102944
 30
0.0
 11
1.616551
 21
4.102944
 31
0.0
  0
SPLINE
  5
10c
100
AcDbEntity
  8
Layer_1
 62
5
100
AcDbSpline
 70
8
 71
3
 72
8
 73
4
 74
0
 40
0
 40
0
 40
0
 40
0
 40
1
 40
1
 40
1
 40
1
 10
1.237971
 20
3.812644
 30
0.0
 10
1.237971
 20
3.775131
 30
0.0
 10
1.216855
 20
3.740468
 30
0.0
 10
1.182578
 20
3.721712
 30
0.0
  0
SPLINE
  5
10d
100
AcDbEntity
  8
Layer_1
 62
5
100
AcDbSpline
 70
8
 71
3
 72
8
 73
4
 74
0
 40
0
 40
0
 40
0
 40
0
 40
1
 40
1
 40
1
 40
1
 10
1.182578
 20
3.721712
 30
0.0
 10
1.148300
 20
3.702955
 30
0.0
 10
1.106069
 20
3.702955
 30
0.0
 10
1.071792
 20
3.721712
 30
0.0
  0
SPLINE
  5
10e
100
AcDbEntity
  8
Layer_1
 62
5
100
AcDbSpline
 70
8
 71
3
 72
8
 73
4
 74
0
 40
0
 40
0
 40
0
 40
0
 40
1
 40
1
 40
1
 40
1
 10
1.071792
 20
3.721712
 30
0.0
 10
1.037514
 20
3.740468
 30
0.0
 10
1.016399
 20
3.775131
 30
0.0
 10
1.016399
 20
3.812644
 30
0.0
  0
SPLINE
  5
10f
100
AcDbEntity
  8
Layer_1
 62
5
100
AcDbSpline
 70
8
 71
3
 72
8
 73
4
 74
0
 40
0
 40
0
 40
0
 40
0
 40
1
 40
1
 40
1
 40
1
 10
1.016399
 20
3.812644
 30
0.0
 10
1.016399
 20
3.850157
 30
0.0
 10
1.037514
 20
3.884821
 30
0.0
 10
1.071792
 20
3.903577
 30
0.0
  0
SPLINE
  5
110
100
AcDbEntity
  8
Layer_1
 62
5
100
AcDbSpline
 70
8
 71
3
 72
8
 73
4
 74
0
 40
0
 40
0
 40
0
 40
0
 40
1
 40
1
 40
1
 40
1
 10
1.071792
 20
3.903577
 30
0.0
 10
1.106069
 20
3.922333
 30
0.0
 10
1.148300
 20
3.922333
 30
0.0
 10
1.182578
 20
3.903577
 30
0.0
  0
SPLINE
  5
111
100
AcDbEntity
  8
Layer_1
 62
5
100
AcDbSpline
 70
8
 71
3
 72
8
 73
4
 74
0
 40
0
 40
0
 40
0
 40
0
 40
1
 40
1
 40
1
 40
1
 10
1.182578
 20
3.903577
 30
0.0
 10
1.216855
 20
3.884821
 30
0.0
 10
1.237971
 20
3.850157
 30
0.0
 10
1.237971
 20
3.812644
 30
0.0
  0
LINE
  5
112
100
AcDbEntity
  8
Layer_1
 62
5
100
AcDbLine
 10
1.237971
 20
3.812644
 30
0.0
 11
1.237971
 21
3.812644
 31
0.0
  0
SPLINE
  5
113
100
AcDbEntity
  8
Layer_1
 62
5
100
AcDbSpline
 70
8
 71
3
 72
8
 73
4
 74
0
 40
0
 40
0
 40
0
 40
0
 40
1
 40
1
 40
1
 40
1
 10
1.237971
 20
1.199119
 30
0.0
 10
1.237971
 20
1.161606
 30
0.0
 10
1.216855
 20
1.126942
 30
0.0
 10
1.182578
 20
1.108186
 30
0.0
  0
SPLINE
  5
114
100
AcDbEntity
  8
Layer_1
 62
5
100
AcDbSpline
 70
8
 71
3
 72
8
 73
4
 74
0
 40
0
 40
0
 40
0
 40
0
 40
1
 40
1
 40
1
 40
1
 10
1.182578
 20
1.108186
 30
0.0
 10
1.148300
 20
1.089430
 30
0.0
 10
1.106069
 20
1.089430
 30
0.0
 10
1.071792
 20
1.108186
 30
0.0
  0
SPLINE
  5
115
100
AcDbEntity
  8
Layer_1
 62
5
100
AcDbSpline
 70
8
 71
3
 72
8
 73
4
 74
0
 40
0
 40
0
 40
0
 40
0
 40
1
 40
1
 40
1
 40
1
 10
1.071792
 20
1.108186
 30
0.0
 10
1.037514
 20
1.126942
 30
0.0
 10
1.016399
 20
1.161606
 30
0.0
 10
1.016399
 20
1.199119
 30
0.0
  0
SPLINE
  5
116
100
AcDbEntity
  8
Layer_1
 62
5
100
AcDbSpline
 70
8
 71
3
 72
8
 73
4
 74
0
 40
0
 40
0
 40
0
 40
0
 40
1
 40
1
 40
1
 40
1
 10
1.016399
 20
1.199119
 30
0.0
 10
1.016399
 20
1.236632
 30
0.0
 10
1.037514
 20
1.271295
 30
0.0
 10
1.071792
 20
1.290051
 30
0.0
  0
SPLINE
  5
117
100
AcDbEntity
  8
Layer_1
 62
5
100
AcDbSpline
 70
8
 71
3
 72
8
 73
4
 74
0
 40
0
 40
0
 40
0
 40
0
 40
1
 40
1
 40
1
 40
1
 10
1.071792
 20
1.290051
 30
0.0
 10
1.106069
 20
1.308808
 30
0.0
 10
1.148300
 20
1.308808
 30
0.0
 10
1.182578
 20
1.290051
 30
0.0
  0
SPLINE
  5
118
100
AcDbEntity
  8
Layer_1
 62
5
100
AcDbSpline
 70
8
 71
3
 72
8
 73
4
 74
0
 40
0
 40
0
 40
0
 40
0
 40
1
 40
1
 40
1
 40
1
 10
1.182578
 20
1.290051
 30
0.0
 10
1.216855
 20
1.271295
 30
0.0
 10
1.237971
 20
1.236632
 30
0.0
 10
1.237971
 20
1.199119
 30
0.0
  0
LINE
  5
119
100
AcDbEntity
  8
Layer_1
 62
5
100
AcDbLine
 10
1.237971
 20
1.199119
 30
0.0
 11
1.237971
 21
1.199119
 31
0.0
  0
SPLINE
  5
11a
100
AcDbEntity
  8
Layer_1
 62
5
100
AcDbSpline
 70
8
 71
3
 72
8
 73
4
 74
0
 40
0
 40
0
 40
0
 40
0
 40
1
 40
1
 40
1
 40
1
 10
11.005206
 20
3.812644
 30
0.0
 10
11.005206
 20
3.754654
 30
0.0
 10
10.955605
 20
3.707644
 30
0.0
 10
10.894420
 20
3.707644
 30
0.0
  0
SPLINE
  5
11b
100
AcDbEntity
  8
Layer_1
 62
5
100
AcDbSpline
 70
8
 71
3
 72
8
 73
4
 74
0
 40
0
 40
0
 40
0
 40
0
 40
1
 40
1
 40
1
 40
1
 10
10.894420
 20
3.707644
 30
0.0
 10
10.833235
 20
3.707644
 30
0.0
 10
10.783634
 20
3.754654
 30
0.0
 10
10.783634
 20
3.812644
 30
0.0
  0
SPLINE
  5
11c
100
AcDbEntity
  8
Layer_1
 62
5
100
AcDbSpline
 70
8
 71
3
 72
8
 73
4
 74
0
 40
0
 40
0
 40
0
 40
0
 40
1
 40
1
 40
1
 40
1
 10
10.783634
 20
3.812644
 30
0.0
 10
10.783634
 20
3.870634
 30
0.0
 10
10.833235
 20
3.917644
 30
0.0
 10
10.894420
 20
3.917644
 30
0.0
  0
SPLINE
  5
11d
100
AcDbEntity
  8
Layer_1
 62
5
100
AcDbSpline
 70
8
 71
3
 72
8
 73
4
 74
0
 40
0
 40
0
 40
0
 40
0
 40
1
 40
1
 40
1
 40
1
 10
10.894420
 20
3.917644
 30
0.0
 10
10.955605
 20
3.917644
 30
0.0
 10
11.005206
 20
3.870634
 30
0.0
 10
11.005206
 20
3.812644
 30
0.0
  0
LINE
  5
11e
100
AcDbEntity
  8
Layer_1
 62
5
100
AcDbLine
 10
11.005206
 20
3.812644
 30
0.0
 11
11.005206
 21
3.812644
 31
0.0
  0
SPLINE
  5
11f
100
AcDbEntity
  8
Layer_1
 62
5
100
AcDbSpline
 70
8
 71
3
 72
8
 73
4
 74
0
 40
0
 40
0
 40
0
 40
0
 40
1
 40
1
 40
1
 40
1
 10
11.005206
 20
1.199119
 30
0.0
 10
11.005206
 20
1.141129
 30
0.0
 10
10.955605
 20
1.094119
 30
0.0
 10
10.894420
 20
1.094119
 30
0.0
  0
SPLINE
  5
120
100
AcDbEntity
  8
Layer_1
 62
5
100
AcDbSpline
 70
8
 71
3
 72
8
 73
4
 74
0
 40
0
 40
0
 40
0
 40
0
 40
1
 40
1
 40
1
 40
1
 10
10.894420
 20
1.094119
 30
0.0
 10
10.833235
 20
1.094119
 30
0.0
 10
10.783634
 20
1.141129
 30
0.0
 10
10.783634
 20
1.199119
 30
0.0
  0
SPLINE
  5
121
100
AcDbEntity
  8
Layer_1
 62
5
100
AcDbSpline
 70
8
 71
3
 72
8
 73
4
 74
0
 40
0
 40
0
 40
0
 40
0
 40
1
 40
1
 40
1
 40
1
 10
10.783634
 20
1.199119
 30
0.0
 10
10.783634
 20
1.257109
 30
0.0
 10
10.833235
 20
1.304119
 30
0.0
 10
10.894420
 20
1.304119
 30
0.0
  0
SPLINE
  5
122
100
AcDbEntity
  8
Layer_1
 62
5
100
AcDbSpline
 70
8
 71
3
 72
8
 73
4
 74
0
 40
0
 40
0
 40
0
 40
0
 40
1
 40
1
 40
1
 40
1
 10
10.894420
 20
1.304119
 30
0.0
 10
10.955605
 20
1.304119
 30
0.0
 10
11.005206
 20
1.257109
 30
0.0
 10
11.005206
 20
1.199119
 30
0.0
  0
LINE
  5
123
100
AcDbEntity
  8
Layer_1
 62
5
100
AcDbLine
 10
11.005206
 20
1.199119
 30
0.0
 11
11.005206
 21
1.199119
 31
0.0
  0
SPLINE
  5
124
100
AcDbEntity
  8
Layer_1
 62
7
100
AcDbSpline
 70
8
 71
3
 72
8
 73
4
 74
0
 40
0
 40
0
 40
0
 40
0
 40
1
 40
1
 40
1
 40
1
 10
1.046228
 20
4.245257
 30
0.0
 10
0.910407
 20
4.245257
 30
0.0
 10
0.801048
 20
4.132404
 30
0.0
 10
0.801048
 20
3.992241
 30
0.0
  0
LINE
  5
125
100
AcDbEntity
  8
Layer_1
 62
7
100
AcDbLine
 10
0.801048
 20
3.992241
 30
0.0
 11
0.801048
 21
1.019496
 31
0.0
  0
SPLINE
  5
126
100
AcDbEntity
  8
Layer_1
 62
7
100
AcDbSpline
 70
8
 71
3
 72
8
 73
4
 74
0
 40
0
 40
0
 40
0
 40
0
 40
1
 40
1
 40
1
 40
1
 10
0.801048
 20
1.019496
 30
0.0
 10
0.801048
 20
0.879335
 30
0.0
 10
0.910407
 20
0.766506
 30
0.0
 10
1.046228
 20
0.766506
 30
0.0
  0
LINE
  5
127
100
AcDbEntity
  8
Layer_1
 62
7
100
AcDbLine
 10
1.046228
 20
0.766506
 30
0.0
 11
10.975401
 21
0.766506
 31
0.0
  0
SPLINE
  5
128
100
AcDbEntity
  8
Layer_1
 62
7
100
AcDbSpline
 70
8
 71
3
 72
8
 73
4
 74
0
 40
0
 40
0
 40
0
 40
0
 40
1
 40
1
 40
1
 40
1
 10
10.975401
 20
0.766506
 30
0.0
 10
11.111223
 20
0.766506
 30
0.0
 10
11.220556
 20
0.879335
 30
0.0
 10
11.220556
 20
1.019496
 30
0.0
  0
LINE
  5
129
100
AcDbEntity
  8
Layer_1
 62
7
100
AcDbLine
 10
11.220556
 20
1.019496
 30
0.0
 11
11.220556
 21
3.992241
 31
0.0
  0
SPLINE
  5
12a
100
AcDbEntity
  8
Layer_1
 62
7
100
AcDbSpline
 70
8
 71
3
 72
8
 73
4
 74
0
 40
0
 40
0
 40
0
 40
0
 40
1
 40
1
 40
1
 40
1
 10
11.220556
 20
3.992241
 30
0.0
 10
11.220556
 20
4.132404
 30
0.0
 10
11.111223
 20
4.245257
 30
0.0
 10
10.975401
 20
4.245257
 30
0.0
  0
LINE
  5
12b
100
AcDbEntity
  8
Layer_1
 62
7
100
AcDbLine
 10
10.975401
 20
4.245257
 30
0.0
 11
1.046228
 21
4.245257
 31
0.0
  0
SPLINE
  5
12c
100
AcDbEntity
  8
Layer_1
 62
7
100
AcDbSpline
 70
8
 71
3
 72
8
 73
4
 74
0
 40
0
 40
0
 40
0
 40
0
 40
1
 40
1
 40
1
 40
1
 10
13.097899
 20
3.908381
 30
0.0
 10
12.984884
 20
3.908381
 30
0.0
 10
12.893887
 20
3.817385
 30
0.0
 10
12.893887
 20
3.704369
 30
0.0
  0
LINE
  5
12d
100
AcDbEntity
  8
Layer_1
 62
7
100
AcDbLine
 10
12.893887
 20
3.704369
 30
0.0
 11
12.893887
 21
1.307374
 31
0.0
  0
SPLINE
  5
12e
100
AcDbEntity
  8
Layer_1
 62
7
100
AcDbSpline
 70
8
 71
3
 72
8
 73
4
 74
0
 40
0
 40
0
 40
0
 40
0
 40
1
 40
1
 40
1
 40
1
 10
12.893887
 20
1.307374
 30
0.0
 10
12.893887
 20
1.194358
 30
0.0
 10
12.984884
 20
1.103382
 30
0.0
 10
13.097899
 20
1.103382
 30
0.0
  0
LINE
  5
12f
100
AcDbEntity
  8
Layer_1
 62
7
100
AcDbLine
 10
13.097899
 20
1.103382
 30
0.0
 11
21.359894
 21
1.103382
 31
0.0
  0
SPLINE
  5
130
100
AcDbEntity
  8
Layer_1
 62
7
100
AcDbSpline
 70
8
 71
3
 72
8
 73
4
 74
0
 40
0
 40
0
 40
0
 40
0
 40
1
 40
1
 40
1
 40
1
 10
21.359894
 20
1.103382
 30
0.0
 10
21.472910
 20
1.103382
 30
0.0
 10
21.563886
 20
1.194358
 30
0.0
 10
21.563886
 20
1.307374
 30
0.0
  0
LINE
  5
131
100
AcDbEntity
  8
Layer_1
 62
7
100
AcDbLine
 10
21.563886
 20
1.307374
 30
0.0
 11
21.563886
 21
3.704369
 31
0.0
  0
SPLINE
  5
132
100
AcDbEntity
  8
Layer_1
 62
7
100
AcDbSpline
 70
8
 71
3
 72
8
 73
4
 74
0
 40
0
 40
0
 40
0
 40
0
 40
1
 40
1
 40
1
 40
1
 10
21.563886
 20
3.704369
 30
0.0
 10
21.563886
 20
3.817385
 30
0.0
 10
21.472910
 20
3.908381
 30
0.0
 10
21.359894
 20
3.908381
 30
0.0
  0
LINE
  5
133
100
AcDbEntity
  8
Layer_1
 62
7
100
AcDbLine
 10
21.359894
 20
3.908381
 30
0.0
 11
13.097899
 21
3.908381
 31
0.0
  0
SPLINE
  5
134
100
AcDbEntity
  8
Layer_1
 62
7
100
AcDbSpline
 70
8
 71
3
 72
8
 73
4
 74
0
 40
0
 40
0
 40
0
 40
0
 40
1
 40
1
 40
1
 40
1
 10
12.878142
 20
4.087131
 30
0.0
 10
12.759115
 20
4.087131
 30
0.0
 10
12.663278
 20
3.984538
 30
0.0
 10
12.663278
 20
3.857118
 30
0.0
  0
LINE
  5
135
100
AcDbEntity
  8
Layer_1
 62
7
100
AcDbLine
 10
12.663278
 20
3.857118
 30
0.0
 11
12.663278
 21
1.154623
 31
0.0
  0
SPLINE
  5
136
100
AcDbEntity
  8
Layer_1
 62
7
100
AcDbSpline
 70
8
 71
3
 72
8
 73
4
 74
0
 40
0
 40
0
 40
0
 40
0
 40
1
 40
1
 40
1
 40
1
 10
12.663278
 20
1.154623
 30
0.0
 10
12.663278
 20
1.027203
 30
0.0
 10
12.759115
 20
0.924632
 30
0.0
 10
12.878142
 20
0.924632
 30
0.0
  0
LINE
  5
137
100
AcDbEntity
  8
Layer_1
 62
7
100
AcDbLine
 10
12.878142
 20
0.924632
 30
0.0
 11
21.579652
 21
0.924632
 31
0.0
  0
SPLINE
  5
138
100
AcDbEntity
  8
Layer_1
 62
7
100
AcDbSpline
 70
8
 71
3
 72
8
 73
4
 74
0
 40
0
 40
0
 40
0
 40
0
 40
1
 40
1
 40
1
 40
1
 10
21.579652
 20
0.924632
 30
0.0
 10
21.698680
 20
0.924632
 30
0.0
 10
21.794496
 20
1.027203
 30
0.0
 10
21.794496
 20
1.154623
 30
0.0
  0
LINE
  5
139
100
AcDbEntity
  8
Layer_1
 62
7
100
AcDbLine
 10
21.794496
 20
1.154623
 30
0.0
 11
21.794496
 21
3.857118
 31
0.0
  0
SPLINE
  5
13a
100
AcDbEntity
  8
Layer_1
 62
7
100
AcDbSpline
 70
8
 71
3
 72
8
 73
4
 74
0
 40
0
 40
0
 40
0
 40
0
 40
1
 40
1
 40
1
 40
1
 10
21.794496
 20
3.857118
 30
0.0
 10
21.794496
 20
3.984538
 30
0.0
 10
21.698680
 20
4.087131
 30
0.0
 10
21.579652
 20
4.087131
 30
0.0
  0
LINE
  5
13b
100
AcDbEntity
  8
Layer_1
 62
7
100
AcDbLine
 10
21.579652
 20
4.087131
 30
0.0
 11
12.878142
 21
4.087131
 31
0.0
  0
SPLINE
  5
13c
100
AcDbEntity
  8
Layer_1
 62
5
100
AcDbSpline
 70
8
 71
3
 72
8
 73
4
 74
0
 40
0
 40
0
 40
0
 40
0
 40
1
 40
1
 40
1
 40
1
 10
12.456055
 20
3.812645
 30
0.0
 10
12.456055
 20
3.775132
 30
0.0
 10
12.434939
 20
3.740468
 30
0.0
 10
12.400662
 20
3.721712
 30
0.0
  0
SPLINE
  5
13d
100
AcDbEntity
  8
Layer_1
 62
5
100
AcDbSpline
 70
8
 71
3
 72
8
 73
4
 74
0
 40
0
 40
0
 40
0
 40
0
 40
1
 40
1
 40
1
 40
1
 10
12.400662
 20
3.721712
 30
0.0
 10
12.366385
 20
3.702955
 30
0.0
 10
12.324153
 20
3.702955
 30
0.0
 10
12.289876
 20
3.721712
 30
0.0
  0
SPLINE
  5
13e
100
AcDbEntity
  8
Layer_1
 62
5
100
AcDbSpline
 70
8
 71
3
 72
8
 73
4
 74
0
 40
0
 40
0
 40
0
 40
0
 40
1
 40
1
 40
1
 40
1
 10
12.289876
 20
3.721712
 30
0.0
 10
12.255599
 20
3.740468
 30
0.0
 10
12.234483
 20
3.775132
 30
0.0
 10
12.234483
 20
3.812645
 30
0.0
  0
SPLINE
  5
13f
100
AcDbEntity
  8
Layer_1
 62
5
100
AcDbSpline
 70
8
 71
3
 72
8
 73
4
 74
0
 40
0
 40
0
 40
0
 40
0
 40
1
 40
1
 40
1
 40
1
 10
12.234483
 20
3.812645
 30
0.0
 10
12.234483
 20
3.850157
 30
0.0
 10
12.255599
 20
3.884821
 30
0.0
 10
12.289876
 20
3.903577
 30
0.0
  0
SPLINE
  5
140
100
AcDbEntity
  8
Layer_1
 62
5
100
AcDbSpline
 70
8
 71
3
 72
8
 73
4
 74
0
 40
0
 40
0
 40
0
 40
0
 40
1
 40
1
 40
1
 40
1
 10
12.289876
 20
3.903577
 30
0.0
 10
12.324153
 20
3.922334
 30
0.0
 10
12.366385
 20
3.922334
 30
0.0
 10
12.400662
 20
3.903577
 30
0.0
  0
SPLINE
  5
141
100
AcDbEntity
  8
Layer_1
 62
5
100
AcDbSpline
 70
8
 71
3
 72
8
 73
4
 74
0
 40
0
 40
0
 40
0
 40
0
 40
1
 40
1
 40
1
 40
1
 10
12.400662
 20
3.903577
 30
0.0
 10
12.434939
 20
3.884821
 30
0.0
 10
12.456055
 20
3.850157
 30
0.0
 10
12.456055
 20
3.812645
 30
0.0
  0
LINE
  5
142
100
AcDbEntity
  8
Layer_1
 62
5
100
AcDbLine
 10
12.456055
 20
3.812645
 30
0.0
 11
12.456055
 21
3.812645
 31
0.0
  0
SPLINE
  5
143
100
AcDbEntity
  8
Layer_1
 62
5
100
AcDbSpline
 70
8
 71
3
 72
8
 73
4
 74
0
 40
0
 40
0
 40
0
 40
0
 40
1
 40
1
 40
1
 40
1
 10
12.456055
 20
1.199119
 30
0.0
 10
12.456055
 20
1.161606
 30
0.0
 10
12.434939
 20
1.126943
 30
0.0
 10
12.400662
 20
1.108186
 30
0.0
  0
SPLINE
  5
144
100
AcDbEntity
  8
Layer_1
 62
5
100
AcDbSpline
 70
8
 71
3
 72
8
 73
4
 74
0
 40
0
 40
0
 40
0
 40
0
 40
1
 40
1
 40
1
 40
1
 10
12.400662
 20
1.108186
 30
0.0
 10
12.366385
 20
1.089430
 30
0.0
 10
12.324153
 20
1.089430
 30
0.0
 10
12.289876
 20
1.108186
 30
0.0
  0
SPLINE
  5
145
100
AcDbEntity
  8
Layer_1
 62
5
100
AcDbSpline
 70
8
 71
3
 72
8
 73
4
 74
0
 40
0
 40
0
 40
0
 40
0
 40
1
 40
1
 40
1
 40
1
 10
12.289876
 20
1.108186
 30
0.0
 10
12.255599
 20
1.126943
 30
0.0
 10
12.234483
 20
1.161606
 30
0.0
 10
12.234483
 20
1.199119
 30
0.0
  0
SPLINE
  5
146
100
AcDbEntity
  8
Layer_1
 62
5
100
AcDbSpline
 70
8
 71
3
 72
8
 73
4
 74
0
 40
0
 40
0
 40
0
 40
0
 40
1
 40
1
 40
1
 40
1
 10
12.234483
 20
1.199119
 30
0.0
 10
12.234483
 20
1.236632
 30
0.0
 10
12.255599
 20
1.271295
 30
0.0
 10
12.289876
 20
1.290052
 30
0.0
  0
SPLINE
  5
147
100
AcDbEntity
  8
Layer_1
 62
5
100
AcDbSpline
 70
8
 71
3
 72
8
 73
4
 74
0
 40
0
 40
0
 40
0
 40
0
 40
1
 40
1
 40
1
 40
1
 10
12.289876
 20
1.290052
 30
0.0
 10
12.324153
 20
1.308808
 30
0.0
 10
12.366385
 20
1.308808
 30
0.0
 10
12.400662
 20
1.290052
 30
0.0
  0
SPLINE
  5
148
100
AcDbEntity
  8
Layer_1
 62
5
100
AcDbSpline
 70
8
 71
3
 72
8
 73
4
 74
0
 40
0
 40
0
 40
0
 40
0
 40
1
 40
1
 40
1
 40
1
 10
12.400662
 20
1.290052
 30
0.0
 10
12.434939
 20
1.271295
 30
0.0
 10
12.456055
 20
1.236632
 30
0.0
 10
12.456055
 20
1.199119
 30
0.0
  0
LINE
  5
149
100
AcDbEntity
  8
Layer_1
 62
5
100
AcDbLine
 10
12.456055
 20
1.199119
 30
0.0
 11
12.456055
 21
1.199119
 31
0.0
  0
SPLINE
  5
14a
100
AcDbEntity
  8
Layer_1
 62
5
100
AcDbSpline
 70
8
 71
3
 72
8
 73
4
 74
0
 40
0
 40
0
 40
0
 40
0
 40
1
 40
1
 40
1
 40
1
 10
22.223291
 20
3.812645
 30
0.0
 10
22.223291
 20
3.754655
 30
0.0
 10
22.173690
 20
3.707645
 30
0.0
 10
22.112505
 20
3.707645
 30
0.0
  0
SPLINE
  5
14b
100
AcDbEntity
  8
Layer_1
 62
5
100
AcDbSpline
 70
8
 71
3
 72
8
 73
4
 74
0
 40
0
 40
0
 40
0
 40
0
 40
1
 40
1
 40
1
 40
1
 10
22.112505
 20
3.707645
 30
0.0
 10
22.051319
 20
3.707645
 30
0.0
 10
22.001719
 20
3.754655
 30
0.0
 10
22.001719
 20
3.812645
 30
0.0
  0
SPLINE
  5
14c
100
AcDbEntity
  8
Layer_1
 62
5
100
AcDbSpline
 70
8
 71
3
 72
8
 73
4
 74
0
 40
0
 40
0
 40
0
 40
0
 40
1
 40
1
 40
1
 40
1
 10
22.001719
 20
3.812645
 30
0.0
 10
22.001719
 20
3.870634
 30
0.0
 10
22.051319
 20
3.917645
 30
0.0
 10
22.112505
 20
3.917645
 30
0.0
  0
SPLINE
  5
14d
100
AcDbEntity
  8
Layer_1
 62
5
100
AcDbSpline
 70
8
 71
3
 72
8
 73
4
 74
0
 40
0
 40
0
 40
0
 40
0
 40
1
 40
1
 40
1
 40
1
 10
22.112505
 20
3.917645
 30
0.0
 10
22.173690
 20
3.917645
 30
0.0
 10
22.223291
 20
3.870634
 30
0.0
 10
22.223291
 20
3.812645
 30
0.0
  0
LINE
  5
14e
100
AcDbEntity
  8
Layer_1
 62
5
100
AcDbLine
 10
22.223291
 20
3.812645
 30
0.0
 11
22.223291
 21
3.812645
 31
0.0
  0
SPLINE
  5
14f
100
AcDbEntity
  8
Layer_1
 62
5
100
AcDbSpline
 70
8
 71
3
 72
8
 73
4
 74
0
 40
0
 40
0
 40
0
 40
0
 40
1
 40
1
 40
1
 40
1
 10
22.223291
 20
1.199119
 30
0.0
 10
22.223291
 20
1.141129
 30
0.0
 10
22.173690
 20
1.094119
 30
0.0
 10
22.112505
 20
1.094119
 30
0.0
  0
SPLINE
  5
150
100
AcDbEntity
  8
Layer_1
 62
5
100
AcDbSpline
 70
8
 71
3
 72
8
 73
4
 74
0
 40
0
 40
0
 40
0
 40
0
 40
1
 40
1
 40
1
 40
1
 10
22.112505
 20
1.094119
 30
0.0
 10
22.051319
 20
1.094119
 30
0.0
 10
22.001719
 20
1.141129
 30
0.0
 10
22.001719
 20
1.199119
 30
0.0
  0
SPLINE
  5
151
100
AcDbEntity
  8
Layer_1
 62
5
100
AcDbSpline
 70
8
 71
3
 72
8
 73
4
 74
0
 40
0
 40
0
 40
0
 40
0
 40
1
 40
1
 40
1
 40
1
 10
22.001719
 20
1.199119
 30
0.0
 10
22.001719
 20
1.257109
 30
0.0
 10
22.051319
 20
1.304119
 30
0.0
 10
22.112505
 20
1.304119
 30
0.0
  0
SPLINE
  5
152
100
AcDbEntity
  8
Layer_1
 62
5
100
AcDbSpline
 70
8
 71
3
 72
8
 73
4
 74
0
 40
0
 40
0
 40
0
 40
0
 40
1
 40
1
 40
1
 40
1
 10
22.112505
 20
1.304119
 30
0.0
 10
22.173690
 20
1.304119
 30
0.0
 10
22.223291
 20
1.257109
 30
0.0
 10
22.223291
 20
1.199119
 30
0.0
  0
LINE
  5
153
100
AcDbEntity
  8
Layer_1
 62
5
100
AcDbLine
 10
22.223291
 20
1.199119
 30
0.0
 11
22.223291
 21
1.199119
 31
0.0
  0
SPLINE
  5
154
100
AcDbEntity
  8
Layer_1
 62
7
100
AcDbSpline
 70
8
 71
3
 72
8
 73
4
 74
0
 40
0
 40
0
 40
0
 40
0
 40
1
 40
1
 40
1
 40
1
 10
12.264312
 20
4.245257
 30
0.0
 10
12.128491
 20
4.245257
 30
0.0
 10
12.019132
 20
4.132404
 30
0.0
 10
12.019132
 20
3.992241
 30
0.0
  0
LINE
  5
155
100
AcDbEntity
  8
Layer_1
 62
7
100
AcDbLine
 10
12.019132
 20
3.992241
 30
0.0
 11
12.019132
 21
1.019496
 31
0.0
  0
SPLINE
  5
156
100
AcDbEntity
  8
Layer_1
 62
7
100
AcDbSpline
 70
8
 71
3
 72
8
 73
4
 74
0
 40
0
 40
0
 40
0
 40
0
 40
1
 40
1
 40
1
 40
1
 10
12.019132
 20
1.019496
 30
0.0
 10
12.019132
 20
0.879335
 30
0.0
 10
12.128491
 20
0.766506
 30
0.0
 10
12.264312
 20
0.766506
 30
0.0
  0
LINE
  5
157
100
AcDbEntity
  8
Layer_1
 62
7
100
AcDbLine
 10
12.264312
 20
0.766506
 30
0.0
 11
22.193485
 21
0.766506
 31
0.0
  0
SPLINE
  5
158
100
AcDbEntity
  8
Layer_1
 62
7
100
AcDbSpline
 70
8
 71
3
 72
8
 73
4
 74
0
 40
0
 40
0
 40
0
 40
0
 40
1
 40
1
 40
1
 40
1
 10
22.193485
 20
0.766506
 30
0.0
 10
22.329306
 20
0.766506
 30
0.0
 10
22.438641
 20
0.879335
 30
0.0
 10
22.438641
 20
1.019496
 30
0.0
  0
LINE
  5
159
100
AcDbEntity
  8
Layer_1
 62
7
100
AcDbLine
 10
22.438641
 20
1.019496
 30
0.0
 11
22.438641
 21
3.992241
 31
0.0
  0
SPLINE
  5
15a
100
AcDbEntity
  8
Layer_1
 62
7
100
AcDbSpline
 70
8
 71
3
 72
8
 73
4
 74
0
 40
0
 40
0
 40
0
 40
0
 40
1
 40
1
 40
1
 40
1
 10
22.438641
 20
3.992241
 30
0.0
 10
22.438641
 20
4.132404
 30
0.0
 10
22.329306
 20
4.245257
 30
0.0
 10
22.193485
 20
4.245257
 30
0.0
  0
LINE
  5
15b
100
AcDbEntity
  8
Layer_1
 62
7
100
AcDbLine
 10
22.193485
 20
4.245257
 30
0.0
 11
12.264312
 21
4.245257
 31
0.0
  0
LINE
  5
15c
100
AcDbEntity
  8
Layer_1
 62
5
100
AcDbLine
 10
0.005881
 20
5.005881
 30
0.0
 11
22.829759
 21
5.005881
 31
0.0
  0
LINE
  5
15d
100
AcDbEntity
  8
Layer_1
 62
5
100
AcDbLine
 10
22.829759
 20
5.005881
 30
0.0
 11
22.829759
 21
0.005881
 31
0.0
  0
LINE
  5
15e
100
AcDbEntity
  8
Layer_1
 62
5
100
AcDbLine
 10
22.829759
 20
0.005881
 30
0.0
 11
0.005881
 21
0.005881
 31
0.0
  0
LINE
  5
15f
100
AcDbEntity
  8
Layer_1
 62
5
100
AcDbLine
 10
0.005881
 20
0.005881
 30
0.0
 11
0.005881
 21
5.005881
 31
0.0
  0
ENDSEC
  0
SECTION
  2
OBJECTS
  0
DICTIONARY
  5
C
330
0
100
AcDbDictionary
  3
ACAD_GROUP
350
D
  3
ACAD_MLINESTYLE
350
17
  0
DICTIONARY
  5
D
330
C
100
AcDbDictionary
  0
DICTIONARY
  5
1A
330
C
100
AcDbDictionary
  0
DICTIONARY
  5
17
330
C
100
AcDbDictionary
  3
STANDARD
350
18
  0
DICTIONARY
  5
19
330
C
100
AcDbDictionary
  0
ENDSEC
  0
EOF
