<?xml version="1.0" encoding="UTF-8" standalone="no"?>
<svg
   xmlns:dc="http://purl.org/dc/elements/1.1/"
   xmlns:cc="http://creativecommons.org/ns#"
   xmlns:rdf="http://www.w3.org/1999/02/22-rdf-syntax-ns#"
   xmlns:svg="http://www.w3.org/2000/svg"
   xmlns="http://www.w3.org/2000/svg"
   xmlns:sodipodi="http://sodipodi.sourceforge.net/DTD/sodipodi-0.dtd"
   xmlns:inkscape="http://www.inkscape.org/namespaces/inkscape"
   viewBox="0.0011 -3.49551 360.89842 361.91974"
   version="1.0"
   overflow="visible"
   id="svg2"
   inkscape:version="0.91 r13725"
   sodipodi:docname="3-spoke.svg"
   width="4.0099826in"
   height="4.0213304in"
   style="overflow:visible">
  <metadata
     id="metadata20">
    <rdf:RDF>
      <cc:Work
         rdf:about="">
        <dc:format>image/svg+xml</dc:format>
        <dc:type
           rdf:resource="http://purl.org/dc/dcmitype/StillImage" />
        <dc:title></dc:title>
      </cc:Work>
    </rdf:RDF>
  </metadata>
  <sodipodi:namedview
     pagecolor="#ffffff"
     bordercolor="#666666"
     borderopacity="1"
     objecttolerance="10"
     gridtolerance="10"
     guidetolerance="10"
     inkscape:pageopacity="0"
     inkscape:pageshadow="2"
     inkscape:window-width="1680"
     inkscape:window-height="997"
     id="namedview18"
     showgrid="false"
     inkscape:document-units="in"
     units="in"
     fit-margin-top="0"
     fit-margin-left="0"
     fit-margin-right="0"
     fit-margin-bottom="0"
     inkscape:zoom="2.1137074"
     inkscape:cx="74.085274"
     inkscape:cy="191.83975"
     inkscape:window-x="-8"
     inkscape:window-y="-8"
     inkscape:window-maximized="1"
     inkscape:current-layer="svg2" />
  <defs
     id="defs4" />
  <g
     id="draft"
     transform="matrix(102.40879,12.391609,12.391609,-102.40879,-20.559393,335.07896)"
     style="stroke:#000000;stroke-width:0.00872961;stroke-miterlimit:4;stroke-dasharray:none;stroke-opacity:1">
    <g
       id="ID_0"
       style="color:#000000;fill:none;stroke:#000000;stroke-width:0.00872961;stroke-miterlimit:4;stroke-dasharray:none;stroke-opacity:1">
      <path
         style="fill:#EBD3B0;fill-opacity:1;stroke:#000000;stroke-width:0.90000004;stroke-miterlimit:4;stroke-dasharray:none;stroke-opacity:1"
         d="m 186.87109,-0.51953125 -12.78906,0.003906 -0.91992,2.01757815 -0.85352,2.0195313 -0.78515,2.0195312 -0.71289,2.0214844 -0.63672,2.0195312 -0.5586,2.019531 -0.4707,2.015626 -0.375,2.009765 -0.14648,1.001953 -0.11524,1.001953 -0.0449,0.5 -0.0332,0.498047 -0.0215,0.498047 -0.006,0.496094 -14.5625,1.775391 -0.12695,-0.480469 -0.14062,-0.478516 -0.15235,-0.476562 -0.16211,-0.47461 -0.35351,-0.943359 -0.38086,-0.9375 -0.84766,-1.861328 -0.9414,-1.845703 -1.0254,-1.824219 -1.10546,-1.808594 -1.17774,-1.7910158 -1.24609,-1.7714844 -1.31446,-1.7558593 -1.375,-1.7363282 -12.41796,3.0664063 -0.41016,2.1777343 -0.3457,2.1640631 -0.2793,2.148437 -0.20703,2.134766 -0.13672,2.113281 -0.0586,2.09375 0.0254,2.070313 0.11718,2.041015 0.0977,1.009766 0.12891,0.998047 0.0762,0.496093 0.0859,0.492188 0.0976,0.488281 0.11328,0.484375 -13.71484,5.207032 -0.23828,-0.435547 -0.25,-0.429688 -0.26367,-0.427734 -0.26954,-0.419922 -0.56835,-0.833985 -0.59571,-0.818359 -1.26758,-1.605469 -1.35546,-1.564453 -1.4336,-1.527343 -1.50586,-1.490235 -1.57031,-1.457031 -1.63477,-1.423828 -1.69531,-1.388672 -1.7539,-1.357422 -11.32227,5.949219 0.123047,2.21289 0.183594,2.183594 0.24414,2.154297 0.306641,2.121094 0.375,2.083984 0.443359,2.046875 0.519531,2.003906 0.603516,1.955079 0.335938,0.955078 0.363281,0.941406 0.193359,0.460937 0.201172,0.457032 0.212891,0.451171 0.224609,0.44336 -12.070312,8.339844 -0.335938,-0.367188 -0.345703,-0.357422 -0.355469,-0.351562 -0.365234,-0.34375 -0.75,-0.673828 -0.775391,-0.652344 -1.615234,-1.25586 -1.689453,-1.193359 -1.75586,-1.140625 -1.820312,-1.08789 -1.873047,-1.03711 -1.929687,-0.992187 -1.978516,-0.94336 -2.025391,-0.896484 -9.570312,8.484375 0.648437,2.11914 0.701172,2.078126 0.751953,2.03125 0.806641,1.986328 0.863281,1.935546 0.919922,1.88086 0.984375,1.820312 1.052734,1.753907 0.554688,0.847656 0.578125,0.826172 0.298828,0.402343 0.304687,0.396485 0.314454,0.386719 0.324218,0.376953 -9.724609,10.984375 -0.412109,-0.275391 -0.423828,-0.265625 -0.427735,-0.255859 -0.4375,-0.246094 -0.888672,-0.474609 -0.908203,-0.447266 -1.86914,-0.832031 -1.927735,-0.75586 -1.978515,-0.685547 -2.025391,-0.621093 -2.068359,-0.560547 -2.109376,-0.5 -2.146484,-0.44336 -2.183594,-0.386718 -7.259765,10.529297 1.136719,1.902343 1.177734,1.84961 1.216797,1.792968 1.257812,1.736329 1.300781,1.671875 1.34375,1.605468 1.390626,1.533204 1.443359,1.451171 0.740234,0.689453 0.759766,0.664063 0.384765,0.318359 0.392579,0.310547 0.396484,0.300781 0.40625,0.289063 -6.8125,12.992185 -0.466797,-0.16797 -0.474609,-0.15625 -0.478516,-0.14648 -0.482422,-0.13477 -0.976562,-0.24609 -0.990235,-0.21875 -2.013672,-0.36133 -2.050781,-0.27148 -2.085937,-0.19336 -2.115235,-0.11719 -2.142578,-0.0488 -2.166015,0.0195 -2.191407,0.084 -2.210937,0.14648 -4.5312501,11.96094 1.5585941,1.57422 1.585937,1.51367 1.611328,1.45117 1.636719,1.38281 1.664062,1.3125 1.689454,1.23829 1.716796,1.15625 1.746094,1.0625 0.886719,0.49218 0.894531,0.46289 0.451172,0.21875 0.455078,0.20704 0.457032,0.19726 0.46289,0.18164 -3.505859,14.24805 -0.492188,-0.0547 -0.498047,-0.0371 -0.5,-0.0273 -0.5,-0.0156 -1.007812,-0.006 -1.013672,0.0254 -2.041016,0.13086 -2.05664,0.22657 -2.070313,0.3125 -2.083984,0.39257 -2.0898439,0.46485 -2.1015625,0.53711 -2.1054687,0.60547 -2.1132813,0.67187 -1.53515622,12.69727 1.89062502,1.15625 1.9003906,1.08984 1.9121094,1.02344 1.9199218,0.95117 1.9296878,0.87695 1.935547,0.79688 1.943359,0.71094 1.951172,0.61523 0.978515,0.26562 0.978516,0.23438 0.492188,0.10352 0.490234,0.0937 0.492188,0.082 0.492187,0.0664 0.0059,14.66992 -0.492187,0.0684 -0.492188,0.082 -0.490234,0.0937 -0.490234,0.10351 -0.980469,0.23633 -0.976563,0.26562 -1.951171,0.61719 -1.94336,0.71094 -1.935547,0.79883 -1.9277341,0.8789 -1.9199219,0.95313 -1.9101562,1.02344 -1.9003907,1.09179 -1.89062498,1.16016 1.54687498,12.69531 2.1132813,0.66992 2.1074218,0.60352 2.0996094,0.53516 2.0917974,0.46484 2.082031,0.38867 2.072265,0.3125 2.056641,0.22461 2.042969,0.12891 1.013672,0.0234 1.005859,-0.006 0.501953,-0.0176 0.498047,-0.0254 0.498047,-0.0391 0.49414,-0.0527 3.515626,14.24219 -0.460938,0.18359 -0.458984,0.19727 -0.453125,0.20898 -0.451172,0.21875 -0.896485,0.46289 -0.884765,0.49219 -1.746094,1.0664 -1.716797,1.15626 -1.6875,1.23828 -1.662109,1.31445 -1.634766,1.38477 -1.611328,1.45117 -1.583984,1.51562 -1.556641,1.57617 4.539062,11.95704 2.212891,0.14453 2.189453,0.082 2.167969,0.0176 2.142578,-0.0508 2.115235,-0.11914 2.085937,-0.19531 2.050781,-0.27344 2.013672,-0.36132 0.990234,-0.22071 0.97461,-0.24609 0.482422,-0.13672 0.478515,-0.14648 0.47461,-0.1543 0.466797,-0.16992 6.822265,12.98632 -0.404297,0.28907 -0.398437,0.30078 -0.390625,0.31055 -0.384766,0.32031 -0.757812,0.66406 -0.742188,0.69141 -1.441406,1.45117 -1.388672,1.5332 -1.34375,1.60742 -1.298828,1.67383 -1.255859,1.73633 -1.216797,1.79492 -1.173828,1.84961 -1.136719,1.90234 7.271484,10.52344 2.179688,-0.38867 2.146484,-0.44336 2.109375,-0.50195 2.06836,-0.56055 2.02539,-0.625 1.978516,-0.6875 1.925781,-0.75586 1.867187,-0.83398 0.908204,-0.44922 0.890625,-0.47266 0.435547,-0.24804 0.429687,-0.25586 0.421875,-0.26563 0.412109,-0.27734 9.734375,10.97851 -0.324218,0.375 -0.314454,0.38867 -0.304687,0.39649 -0.298828,0.40234 -0.576172,0.82617 -0.554687,0.84766 -1.050782,1.75391 -0.984375,1.82226 -0.917969,1.88086 -0.861328,1.93555 -0.804687,1.98828 -0.75,2.0332 -0.699219,2.07813 -0.646484,2.11914 9.576172,8.47851 2.027343,-0.90039 1.976563,-0.94531 1.927734,-0.99219 1.873047,-1.04101 1.816406,-1.08789 1.757813,-1.14063 1.6875,-1.19726 1.615234,-1.25586 0.773438,-0.6543 0.75,-0.67383 0.363281,-0.34375 0.357422,-0.35156 0.345703,-0.35742 0.333984,-0.36719 12.078125,8.32813 -0.224609,0.44336 -0.210938,0.45117 -0.203124,0.45898 -0.191407,0.46289 -0.363281,0.9375 -0.335938,0.95703 -0.599609,1.95508 -0.519531,2.00391 -0.441406,2.04687 -0.373047,2.08594 -0.306641,2.12109 -0.242187,2.1543 -0.179688,2.18555 -0.121094,2.21289 11.32812,5.9375 1.75,-1.35742 1.69532,-1.39063 1.63281,-1.42578 1.57031,-1.45703 1.50391,-1.49219 1.43164,-1.52929 1.35547,-1.56446 1.26562,-1.60547 0.59571,-0.82031 0.5664,-0.83398 0.27149,-0.42188 0.26172,-0.42578 0.25,-0.42969 0.23828,-0.4375 13.71875,5.19531 -0.11329,0.48438 -0.0977,0.49023 -0.0859,0.49219 -0.0762,0.4961 -0.12695,0.99804 -0.0977,1.00977 -0.11523,2.04101 -0.0234,2.07032 0.0605,2.09179 0.13868,2.11524 0.20898,2.13281 0.28125,2.15039 0.34766,2.16211 0.41015,2.17969 12.42188,3.05469 1.375,-1.73829 1.31055,-1.75586 1.24609,-1.77343 1.17578,-1.79102 1.10352,-1.81055 1.02539,-1.82617 0.93945,-1.84375 0.8457,-1.86328 0.38086,-0.9375 0.35156,-0.94336 0.16211,-0.47656 0.15235,-0.47461 0.13867,-0.47852 0.12695,-0.48046 14.56446,1.76171 0.008,0.4961 0.0215,0.49805 0.0332,0.5 0.0449,0.5 0.11523,1 0.14844,1.00195 0.375,2.00976 0.47266,2.01563 0.56054,2.01758 0.63867,2.02148 0.71485,2.01953 0.78711,2.01953 0.85547,2.01954 0.92187,2.01562 12.78906,-0.006 0.91993,-2.01758 0.85351,-2.01758 0.7832,-2.02148 0.7129,-2.02148 0.63867,-2.01954 0.55859,-2.01757 0.4707,-2.01563 0.375,-2.01172 0.14649,-1.00195 0.11523,-1.00195 0.043,-0.49805 0.0352,-0.5 0.0195,-0.49805 0.008,-0.49609 14.5625,-1.77539 0.12695,0.48242 0.14063,0.47852 0.15234,0.4746 0.16211,0.47461 0.35157,0.94336 0.38281,0.93946 0.84765,1.86133 0.94141,1.84374 1.02539,1.82618 1.10547,1.80664 1.17773,1.79101 1.2461,1.77344 1.3125,1.75391 1.37695,1.73632 12.41797,-3.06445 0.41016,-2.17773 0.3457,-2.16602 0.27734,-2.14844 0.20899,-2.13476 0.13672,-2.11328 0.0586,-2.09375 -0.0254,-2.07031 -0.11719,-2.04102 -0.0976,-1.00977 -0.12891,-0.99804 -0.0762,-0.4961 -0.0879,-0.49218 -0.0977,-0.48829 -0.11133,-0.48437 13.71485,-5.20703 0.23828,0.43554 0.25,0.43165 0.26172,0.42578 0.27148,0.41992 0.56641,0.83398 0.59765,0.82032 1.26758,1.60351 1.35547,1.56641 1.43359,1.52539 1.50391,1.49219 1.57227,1.45507 1.63476,1.42383 1.69531,1.38867 1.75196,1.35743 11.32422,-5.94922 -0.12305,-2.21094 -0.18359,-2.18555 -0.24415,-2.15234 -0.30664,-2.12305 -0.375,-2.08398 -0.44336,-2.04688 -0.51953,-2.0039 -0.60351,-1.95313 -0.33594,-0.95703 -0.36328,-0.93945 -0.19336,-0.46289 -0.20117,-0.45703 -0.21289,-0.45118 -0.22461,-0.44336 12.07031,-8.33984 0.33398,0.36719 0.34571,0.35937 0.35742,0.35156 0.36523,0.34376 0.74805,0.67187 0.77539,0.6543 1.61524,1.2539 1.6914,1.19336 1.75586,1.14063 1.81836,1.08789 1.875,1.03906 1.92773,0.99023 1.97852,0.94336 2.02734,0.89844 9.57032,-8.48633 -0.64844,-2.11914 -0.70117,-2.07617 -0.75196,-2.0332 -0.80664,-1.98633 -0.86328,-1.93555 -0.91992,-1.88086 -0.98437,-1.82031 -1.05274,-1.75391 -0.55469,-0.84765 -0.57812,-0.82617 -0.29883,-0.40235 -0.30664,-0.39453 -0.3125,-0.38867 -0.32422,-0.375 9.72266,-10.98633 0.41406,0.27735 0.42188,0.26367 0.42968,0.25586 0.43555,0.24609 0.89062,0.47461 0.90821,0.44922 1.86914,0.83008 1.92578,0.75586 1.98047,0.6875 2.02344,0.61914 2.07031,0.56054 2.10742,0.5 2.14844,0.44336 2.18164,0.38672 7.26172,-10.5293 -1.13868,-1.90234 -1.17578,-1.84961 -1.21679,-1.79297 -1.25782,-1.73437 -1.30078,-1.67383 -1.3457,-1.60547 -1.39063,-1.5332 -1.4414,-1.45117 -0.74219,-0.68946 -0.75781,-0.66211 -0.38672,-0.32031 -0.39062,-0.31055 -0.39649,-0.30078 -0.40625,-0.28906 6.8125,-12.99219 0.4668,0.16797 0.47461,0.15625 0.47851,0.14649 0.48242,0.13476 0.97657,0.2461 0.98828,0.21875 2.01367,0.36132 2.05273,0.27149 2.08399,0.19336 2.11719,0.11719 2.14062,0.0488 2.16797,-0.0195 2.19141,-0.084 2.21093,-0.14649 4.53125,-11.95898 -1.56054,-1.57617 -1.58399,-1.51367 -1.61133,-1.45118 -1.63671,-1.38281 -1.66407,-1.3125 -1.68945,-1.23828 -1.7168,-1.1543 -1.74804,-1.06445 -0.88477,-0.49219 -0.89453,-0.46289 -0.45313,-0.2168 -0.45312,-0.20898 -0.45899,-0.19727 -0.46093,-0.18164 3.5039,-14.24609 0.49414,0.0527 0.49805,0.0391 0.49805,0.0254 0.50195,0.0156 1.00781,0.006 1.01368,-0.0254 2.04101,-0.13086 2.05664,-0.22656 2.07031,-0.3125 2.08204,-0.39063 2.09179,-0.46679 2.09961,-0.53711 2.10742,-0.60547 2.11329,-0.67188 1.53515,-12.69726 -1.89062,-1.15625 -1.90235,-1.08985 -1.91015,-1.02343 -1.91993,-0.95117 -1.92968,-0.87696 -1.9375,-0.79687 -1.94141,-0.71094 -1.95117,-0.61523 -0.97852,-0.26563 -0.98047,-0.23437 -0.49023,-0.10352 -0.49023,-0.0937 -0.49219,-0.082 -0.49219,-0.0664 -0.006,-14.66992 0.49219,-0.0684 0.49219,-0.082 0.49023,-0.0918 0.49024,-0.10547 0.97851,-0.23437 0.97852,-0.26758 1.95117,-0.61719 1.94336,-0.71093 1.93554,-0.79883 1.92774,-0.87891 1.91992,-0.95312 1.91016,-1.02344 1.90039,-1.0918 1.89062,-1.1582 -1.54883,-12.69727 -2.11132,-0.66992 -2.10743,-0.60351 -2.10156,-0.53516 -2.08984,-0.46484 -2.08399,-0.38868 -2.07031,-0.31054 -2.05859,-0.22461 -2.04102,-0.13086 -1.01367,-0.0234 -1.00586,0.006 -0.50195,0.0176 -0.49805,0.0254 -0.49805,0.0391 -0.49414,0.0527 -3.51758,-14.24219 0.4629,-0.18359 0.45703,-0.19727 0.45507,-0.20899 0.45118,-0.21679 0.89453,-0.46289 0.88672,-0.49414 1.74414,-1.06446 1.71679,-1.15625 1.68946,-1.24023 1.66015,-1.3125 1.63672,-1.38672 1.61133,-1.45117 1.58203,-1.51563 1.5586,-1.57617 -4.54102,-11.95703 -2.21094,-0.14453 -2.1914,-0.082 -2.16602,-0.0176 -2.14258,0.0508 -2.11523,0.1211 -2.08594,0.19335 -2.05078,0.27344 -2.01367,0.36328 -0.99024,0.21875 -0.97656,0.2461 -0.48242,0.13672 -0.47852,0.14648 -0.47265,0.15625 -0.4668,0.16797 -6.82422,-12.986329 0.40625,-0.289063 0.39649,-0.298828 0.39257,-0.3125 0.38477,-0.320312 0.75781,-0.664063 0.74219,-0.691406 1.44141,-1.451172 1.38867,-1.533203 1.34375,-1.607422 1.29883,-1.673828 1.25586,-1.736328 1.21484,-1.792969 1.17578,-1.851563 1.13672,-1.902343 -7.27149,-10.523438 -2.18164,0.388672 -2.14648,0.443359 -2.10938,0.501954 -2.06835,0.5625 -2.02344,0.623046 -1.97852,0.6875 -1.92773,0.75586 -1.86719,0.833984 -0.9082,0.449219 -0.88868,0.474609 -0.43554,0.248047 -0.42969,0.255859 -0.42187,0.263672 -0.41407,0.277344 -9.73242,-10.978516 0.32422,-0.375 0.31445,-0.388671 0.30469,-0.394532 0.29883,-0.404297 0.57617,-0.824218 0.55469,-0.84961 1.05078,-1.753906 0.98242,-1.822266 0.91992,-1.880859 0.86133,-1.935547 0.80469,-1.986328 0.75,-2.035156 0.69922,-2.076172 0.64648,-2.121094 -9.57617,-8.476562 -2.02734,0.898437 -1.97657,0.945313 -1.92773,0.99414 -1.87305,1.039063 -1.81836,1.087891 -1.75586,1.142578 -1.68945,1.195312 -1.61328,1.25586 -0.77539,0.654296 -0.75,0.673828 -0.36328,0.34375 -0.35547,0.351563 -0.3457,0.357422 -0.33399,0.367187 -12.07812,-8.328125 0.22461,-0.443359 0.21093,-0.451172 0.20118,-0.457031 0.19335,-0.462891 0.36329,-0.939453 0.33593,-0.957031 0.59961,-1.955078 0.51953,-2.003906 0.44141,-2.046876 0.37305,-2.085937 0.30468,-2.121094 0.24415,-2.154297 0.17968,-2.183593 0.1211,-2.212891 -11.32813,-5.939453 -1.75195,1.357422 -1.69336,1.390625 -1.63281,1.425781 -1.57032,1.457031 -1.5039,1.494141 -1.4336,1.527344 -1.35351,1.566406 -1.26563,1.605469 -0.5957,0.818359 -0.56641,0.833984 -0.27148,0.421875 -0.26172,0.425782 -0.25,0.43164 -0.23828,0.4375 -13.71875,-5.197265 0.11133,-0.484375 0.0996,-0.490235 0.084,-0.490234 0.0762,-0.496094 0.12891,-1 0.0957,-1.007812 0.11719,-2.042969 0.0234,-2.06836 -0.0606,-2.09375 -0.13867,-2.115234 -0.21094,-2.132812 -0.2793,-2.148438 -0.34765,-2.1640627 -0.41211,-2.1796875 -12.41992,-3.0546875 -1.375,1.7382813 -1.3125,1.7558593 -1.2461,1.7753907 -1.17578,1.7910164 -1.10156,1.808593 -1.02539,1.826172 -0.93945,1.84375 -0.84571,1.863281 -0.38281,0.9375 -0.34961,0.945313 -0.16211,0.474609 -0.15234,0.47461 -0.14063,0.480468 -0.125,0.478516 -14.56445,-1.761719 -0.008,-0.496093 -0.0215,-0.498047 -0.0332,-0.5 -0.0449,-0.498047 -0.11719,-1.001953 -0.14648,-1.001953 -0.375,-2.009766 -0.47266,-2.015625 -0.56055,-2.0175785 -0.64062,-2.0195313 -0.71485,-2.0214844 -0.78515,-2.0195312 -0.85547,-2.0195313 -0.92188,-2.0136718 z m -7.8125,38.25781225 9.30664,0.207031 9.27344,0.814454 9.20117,1.419922 9.08789,2.017578 8.93555,2.609375 8.7461,3.189453 8.51953,3.751953 8.25586,4.302734 7.95703,4.832031 7.625,5.34375 7.25586,5.828126 6.86132,6.292968 6.43555,6.728516 5.98047,7.132812 5.50195,7.509766 4.99805,7.85352 4.47461,8.16406 3.92969,8.43945 3.37109,8.67774 2.79492,8.8789 2.20899,9.04492 1.61328,9.16993 1.00976,9.25195 0.40039,9.30273 -6.21484,5.48047 -96.51562,-11.67773 -8.50977,-7.26367 -2.32227,-4.08008 -2.85546,-3.72461 -3.33594,-3.30274 -3.75195,-2.81836 -4.10352,-2.28125 -4.375,-1.70312 -4.56445,-1.08984 -9.34961,-6.14844 -38.14453,-89.42383 3.53125,-7.498047 9.04296,-2.208984 9.16797,-1.613281 9.25586,-1.007813 9.30078,-0.402344 z m -70.92187,19.800781 7.85547,2.642579 38.14258,89.423829 -2.03516,11.00195 -2.37109,4.05274 -1.79883,4.33398 -1.19336,4.53906 -0.56445,4.66016 0.0762,4.69336 0.71289,4.63867 1.33789,4.5 -0.64844,11.16992 -58.371093,77.7461 -8.257813,0.6914 -6.435546,-6.72656 -5.980469,-7.13477 -5.501953,-7.50976 -4.998047,-7.85156 -4.47461,-8.16602 -3.93164,-8.4375 -3.371094,-8.67773 -2.794922,-8.88086 -2.208984,-9.04297 -1.611328,-9.16797 -1.011719,-9.25586 -0.402344,-9.30078 0.208984,-9.30664 0.814454,-9.27344 1.419922,-9.20117 2.019531,-9.08789 2.607422,-8.93555 3.189453,-8.74609 3.751953,-8.51953 4.302734,-8.25586 4.832031,-7.95703 5.34375,-7.623051 5.830079,-7.257813 6.292968,-6.861328 6.726563,-6.433594 7.134766,-5.982422 7.509762,-5.5 7.85352,-5 z M 180.75,170.32031 a 9.6708531,9.6708531 0 0 1 0.96289,0.0684 9.6708531,9.6708531 0 0 1 8.43945,10.76172 9.6708531,9.6708531 0 0 1 -10.76172,8.43945 9.6708531,9.6708531 0 0 1 -8.43945,-10.76172 9.6708531,9.6708531 0 0 1 9.79883,-8.50781 z m 36.34766,26.5586 96.51757,11.67968 4.72852,6.80469 -2.60937,8.9375 -3.1875,8.7461 -3.75391,8.51953 -4.30078,8.25586 -4.83399,7.95703 -5.34179,7.62304 -5.83008,7.25782 -6.29297,6.86132 -6.72656,6.4336 -7.13282,5.98242 -7.51171,5.5 -7.85352,5 -8.16406,4.47461 -8.4375,3.92969 -8.67774,3.37109 -8.88086,2.79492 -9.04297,2.20899 -9.16796,1.61328 -9.25586,1.00976 -9.30078,0.40039 -9.30664,-0.20507 -9.27344,-0.81641 -9.20117,-1.41992 -9.08789,-2.01953 -8.93555,-2.60938 -8.7461,-3.1875 -8.51953,-3.7539 -8.25586,-4.30079 -1.64062,-8.12304 58.37305,-77.7461 10.54492,-3.73828 4.69336,0.0273 4.65429,-0.60938 4.5293,-1.23633 4.31641,-1.84179 4.02734,-2.41211 3.66016,-2.9375 3.22851,-3.40821 9.9961,-5.02343 z"
         transform="matrix(0.00962388,0.0011645,0.0011645,-0.00962388,-0.19625651,3.2728927)"
         id="path8"
         inkscape:connector-curvature="0" />
    </g>
  </g>
  <circle
     style="fill:none;fill-opacity:1;stroke:none;stroke-width:0.93592155;stroke-linecap:round;stroke-linejoin:miter;stroke-miterlimit:4;stroke-dasharray:none;stroke-opacity:1"
     id="path4158"
     cx="-235.61829"
     cy="92.271187"
     r="172.62775"
     transform="matrix(-0.91962511,-0.39279722,-0.39279722,0.91962511,0,0)" />
  <g
     transform="matrix(-0.3537208,-0.93535106,0.93535106,-0.3537208,78.326803,408.90831)"
     style="font-style:normal;font-weight:normal;font-size:30px;line-height:125%;font-family:sans-serif;letter-spacing:24.15999985px;word-spacing:0px;fill:#000000;fill-opacity:1;stroke:none;stroke-width:1px;stroke-linecap:butt;stroke-linejoin:miter;stroke-opacity:1"
     id="text4160">
    <path
       d="m 29.262763,120.19726 -8.439325,-4.67562 q -0.563448,-0.20792 -0.82359,-0.77233 -0.251471,-0.54561 -0.04355,-1.10905 0.20792,-0.56345 0.758592,-0.82866 0.559343,-0.2464 1.122791,-0.0385 l 18.42827,3.75554 q 0.217752,0.002 0.451377,0.0885 0.563447,0.20792 0.814918,0.75352 0.260143,0.56441 0.05222,1.12786 -0.207919,0.56345 -0.767262,0.80985 -0.550673,0.26521 -1.11412,0.0573 l -9.439824,-1.92202 8.425583,4.67054 q 0.563448,0.20792 0.814919,0.75353 0.260142,0.56441 0.05222,1.12786 -0.207919,0.56344 -0.767263,0.80984 -0.550672,0.26522 -1.11412,0.0573 l -9.439823,-1.92202 8.425583,4.67054 q 0.563447,0.20792 0.814918,0.75352 0.260143,0.56442 0.05222,1.12787 -0.207919,0.56344 -0.767262,0.80984 -0.550673,0.26522 -1.11412,0.0573 -0.233625,-0.0862 -0.400665,-0.22592 l -16.450501,-9.11517 q -0.563447,-0.20792 -0.82359,-0.77234 -0.251471,-0.5456 -0.04355,-1.10904 0.207919,-0.56345 0.758591,-0.82867 0.559344,-0.2464 1.122791,-0.0385 l 9.453566,1.9271 z"
       style="font-style:normal;font-variant:normal;font-weight:normal;font-stretch:normal;font-size:30px;font-family:Instruction;-inkscape-font-specification:Instruction;letter-spacing:24.13999939px"
       id="path4140" />
    <path
       d="m 17.964848,162.22647 0.978048,-8.73448 -8.006602,-0.89654 q -0.596856,-0.0668 -0.9846769,-0.55246 -0.3748939,-0.46944 -0.3080607,-1.06629 0.066833,-0.59686 0.5379016,-0.98631 0.483996,-0.37327 1.080852,-0.30643 l 18.924695,2.1191 q 0.596855,0.0668 0.971749,0.53627 0.387822,0.48563 0.320988,1.08248 -0.06683,0.59686 -0.550829,0.97012 -0.471069,0.38946 -1.067924,0.32262 l -8.006602,-0.89654 -0.978047,8.73447 8.006601,0.89655 q 0.596856,0.0668 0.97175,0.53627 0.387821,0.48563 0.320988,1.08248 -0.06683,0.59686 -0.550829,0.97012 -0.471069,0.38945 -1.067925,0.32262 l -18.9246942,-2.1191 q -0.5968558,-0.0668 -0.9846771,-0.55246 -0.374894,-0.46944 -0.3080607,-1.0663 0.066833,-0.59685 0.5379019,-0.98631 0.483996,-0.37326 1.0808517,-0.30643 l 8.0066014,0.89655 z"
       style="font-style:normal;font-variant:normal;font-weight:normal;font-stretch:normal;font-size:30px;font-family:Instruction;-inkscape-font-specification:Instruction;letter-spacing:24.13999939px"
       id="path4142" />
    <path
       d="m 18.610145,198.0259 -7.066621,-3.15894 1.186141,8.97469 q 0.07869,0.59541 -0.301312,1.07413 -0.363563,0.49133 -0.958971,0.57002 -0.595408,0.0787 -1.088652,-0.29939 -0.4768032,-0.36549 -0.5554954,-0.96089 L 8.2897772,192.60779 q -0.078692,-0.5954 0.2848706,-1.08673 0.3800043,-0.47872 0.9754126,-0.55741 0.5954086,-0.0787 1.5289886,0.38895 l 7.06662,3.15894 -0.22456,-1.69909 q -0.07869,-0.59541 0.28487,-1.08673 0.380005,-0.47873 0.975413,-0.55742 0.595408,-0.0787 1.072211,0.28679 0.493244,0.37809 0.571936,0.9735 l 0.462557,3.49983 7.066621,3.15895 -1.186141,-8.97469 q -0.07869,-0.59541 0.284871,-1.08674 0.380004,-0.47872 0.975412,-0.55741 0.595408,-0.0787 1.072211,0.28679 0.493244,0.37808 0.571937,0.97349 l 1.535457,11.61772 q 0.07869,0.59541 -0.301312,1.07413 -0.363563,0.49133 -0.958971,0.57002 -0.595408,0.0787 -1.528988,-0.38895 l -7.066621,-3.15894 0.22456,1.69909 q 0.07869,0.59541 -0.301312,1.07413 -0.363562,0.49132 -0.958971,0.57001 -0.595408,0.0787 -1.088652,-0.29939 -0.476803,-0.36548 -0.555495,-0.96089 l -0.462557,-3.49984 z"
       style="font-style:normal;font-variant:normal;font-weight:normal;font-stretch:normal;font-size:30px;font-family:Instruction;-inkscape-font-specification:Instruction;letter-spacing:24.13999939px"
       id="path4144" />
    <path
       d="m 19.491092,239.83133 -2.530308,-6.48162 q -0.218406,-0.55947 0.0175,-1.12332 0.254884,-0.55553 0.81435,-0.77393 l 17.739174,-6.92506 q 0.559466,-0.2184 1.109668,0.0228 0.569175,0.24955 0.78758,0.80902 l 2.530308,6.48162 q 0.937546,2.40161 -0.1076,4.75953 -1.026174,2.36623 -3.427785,3.30377 -2.401611,0.93755 -4.754199,-0.094 -0.246643,-0.10814 -0.484966,-0.23525 -0.08917,0.25496 -0.183665,0.49627 -1.045146,2.35792 -3.446757,3.29546 -2.401611,0.93755 -4.773172,-0.10227 -2.352588,-1.0315 -3.290133,-3.43311 z m 17.739174,-6.92506 -1.997612,-5.11707 -6.140483,2.39714 1.997611,5.11707 q 0.495408,1.26903 1.747592,1.81805 1.252184,0.54903 2.521217,0.0536 1.269033,-0.49541 1.818058,-1.74759 0.549024,-1.25218 0.05362,-2.52122 z m -8.869587,3.46253 -1.997612,-5.11707 -6.140483,2.39713 1.997611,5.11707 q 0.495408,1.26904 1.747592,1.81806 1.252184,0.54903 2.521217,0.0536 1.269033,-0.49541 1.818058,-1.74759 0.549024,-1.25219 0.05362,-2.52122 z"
       style="font-style:normal;font-variant:normal;font-weight:normal;font-stretch:normal;font-size:30px;font-family:Instruction;-inkscape-font-specification:Instruction;letter-spacing:24.13999939px"
       id="path4146" />
    <path
       d="m 46.225536,275.46702 q 0.377642,-0.17601 0.749102,-0.43721 l 5.991294,-4.2129 q 1.485841,-1.04481 1.798838,-2.84074 0.312996,-1.79594 -0.731805,-3.28178 -1.0448,-1.48585 -2.84074,-1.79884 -1.795939,-0.313 -3.28178,0.7318 l -5.991294,4.21291 q -1.485841,1.0448 -1.798837,2.84074 -0.312996,1.79594 0.731804,3.28178 0.82573,1.17429 2.125134,1.62155 l 1.207546,-3.2487 q 0.36994,-0.97643 0.861226,-1.32189 0.491286,-0.34545 1.08313,-0.24231 0.612252,0.10671 0.95771,0.59799 0.345458,0.49129 0.230329,1.09156 -0.09472,0.60382 -0.41749,1.18893 l -0.674167,1.81711 z m -4.293703,2.85804 q -2.119677,-0.74792 -3.476232,-2.67712 -1.744143,-2.48039 -1.23328,-5.472 0.531272,-2.98806 3.011668,-4.7322 l 5.991294,-4.2129 q 2.480396,-1.74415 5.460022,-1.22486 3.000035,0.52285 4.744178,3.00324 1.744143,2.4804 1.212871,5.46845 -0.510864,2.99161 -2.991259,4.73575 l -5.991294,4.21291 q -1.713511,1.20489 -3.669332,1.32665 l -0.262477,0.72179 q -0.369941,0.97643 -0.861227,1.32188 -0.491286,0.34546 -1.103538,0.23876 -0.591843,-0.10315 -0.937302,-0.59443 -0.345458,-0.49129 -0.230329,-1.09156 0.08049,-0.52219 0.336237,-1.02436 z"
       style="font-style:normal;font-variant:normal;font-weight:normal;font-stretch:normal;font-size:30px;font-family:Instruction;-inkscape-font-specification:Instruction;letter-spacing:24.13999939px"
       id="path4148" />
    <path
       d="m 79.386716,293.12741 -4.147212,-3.60215 -4.322581,4.97665 4.147212,3.60215 q 1.028509,0.89333 2.392396,0.7974 1.363888,-0.0959 2.257221,-1.12444 0.893334,-1.0285 0.797403,-2.39239 -0.09593,-1.36389 -1.124439,-2.25722 z m -7.736724,5.89172 -2.654215,-2.30537 -5.283154,6.08257 q -0.393835,0.45343 -1.013784,0.49704 -0.599284,0.0421 -1.052713,-0.35169 -0.453428,-0.39383 -0.506639,-1.00272 -0.03255,-0.61035 0.36129,-1.06377 l 12.487454,-14.377 q 0.393835,-0.45343 0.993119,-0.49558 0.619949,-0.0436 1.073378,0.35023 l 5.253134,4.56272 q 1.946425,1.69061 2.117053,4.26412 0.191293,2.57207 -1.499317,4.51849 -1.690609,1.94643 -4.253064,2.12666 -1.818517,0.12791 -3.31796,-0.67 l -1.276362,7.83594 q -0.124369,1.03672 -0.518205,1.49015 -0.393835,0.45343 -1.013784,0.49703 -0.599284,0.0422 -1.052712,-0.35168 -0.453429,-0.39383 -0.506639,-1.00272 -0.03255,-0.61035 0.140105,-1.25589 l 1.523015,-9.34853 z"
       style="font-style:normal;font-variant:normal;font-weight:normal;font-stretch:normal;font-size:30px;font-family:Instruction;-inkscape-font-specification:Instruction;letter-spacing:24.13999939px"
       id="path4150" />
    <path
       d="m 110.22342,327.17197 q -1.3809,2.69954 -4.2786,3.63596 -2.87799,0.93006 -5.57753,-0.45084 -2.699539,-1.38091 -3.642634,-4.26557 -0.923383,-2.89103 0.457518,-5.59057 l 3.335506,-6.52062 q 1.38091,-2.69954 4.2589,-3.6296 2.8977,-0.93642 5.59724,0.44448 2.69954,1.3809 3.62292,4.27193 0.9431,2.88467 -0.43781,5.5842 l -3.33551,6.52063 z m -10.432996,-5.33682 q -0.827206,1.61712 -0.266626,3.3518 0.560582,1.73468 2.177692,2.56189 1.61712,0.8272 3.3518,0.26662 1.73468,-0.56058 2.56188,-2.17769 l 3.33551,-6.52063 q 0.82721,-1.61711 0.26663,-3.35179 -0.56058,-1.73468 -2.17769,-2.56189 -1.61712,-0.82721 -3.3518,-0.26663 -1.73468,0.56058 -2.56189,2.1777 l -3.335506,6.52062 z"
       style="font-style:normal;font-variant:normal;font-weight:normal;font-stretch:normal;font-size:30px;font-family:Instruction;-inkscape-font-specification:Instruction;letter-spacing:24.13999939px"
       id="path4152" />
    <path
       d="m 150.05846,331.46422 q -0.13883,0.58431 -0.66797,0.91027 -0.5115,0.3151 -1.09582,0.17626 -0.58432,-0.13883 -0.91367,-0.65372 -0.31171,-0.52575 -0.17287,-1.11007 0.31492,-1.32541 -0.40219,-2.48951 -0.71712,-1.1641 -2.04252,-1.47903 l -2.13775,-0.50794 q -1.3254,-0.31492 -2.48951,0.40219 -1.1641,0.71712 -1.47903,2.04252 -0.31492,1.3254 0.4022,2.48951 0.71711,1.1641 2.04251,1.47903 l 2.13775,0.50794 q 2.5083,0.59598 3.85222,2.79734 1.36156,2.19049 0.76557,4.69878 -0.59599,2.5083 -2.80073,3.86647 -2.1871,1.34731 -4.6954,0.75132 l -2.13774,-0.50794 q -2.5083,-0.59599 -3.86986,-2.78648 -1.34392,-2.20136 -0.74793,-4.70965 0.13884,-0.58432 0.65034,-0.89941 0.52914,-0.32596 1.11345,-0.18713 0.58432,0.13884 0.89603,0.66459 0.32935,0.51489 0.19051,1.09921 -0.31492,1.3254 0.40219,2.48951 0.71712,1.1641 2.04252,1.47903 l 2.13775,0.50794 q 1.32541,0.31492 2.48951,-0.40219 1.1641,-0.71712 1.47903,-2.04252 0.31492,-1.32541 -0.40219,-2.48951 -0.71712,-1.1641 -2.04252,-1.47903 l -2.13775,-0.50794 q -2.50829,-0.59599 -3.86985,-2.78648 -1.34392,-2.20135 -0.74794,-4.70965 0.59599,-2.50829 2.78309,-3.8556 2.20475,-1.35817 4.71304,-0.76218 l 2.13775,0.50794 q 2.50829,0.59599 3.85221,2.79734 1.36156,2.19049 0.76557,4.69879 z"
       style="font-style:normal;font-variant:normal;font-weight:normal;font-stretch:normal;font-size:30px;font-family:Instruction;-inkscape-font-specification:Instruction;letter-spacing:24.13999939px"
       id="path4154" />
    <path
       d="m 184.92993,342.7155 q -0.006,-0.60056 0.41454,-1.02959 0.43504,-0.44382 1.0356,-0.44982 0.60055,-0.006 1.02973,0.42919 0.44367,0.42039 0.44967,1.02095 0.0303,3.03207 -2.1014,5.2068 -2.1172,2.15993 -5.14927,2.19023 -3.03208,0.0303 -5.20666,-2.08676 -2.16008,-2.13184 -2.19037,-5.16392 l -0.0732,-7.32385 q -0.0303,-3.03208 2.0869,-5.19201 2.1317,-2.17473 5.16377,-2.20502 3.03208,-0.0303 5.19216,2.10155 2.17458,2.11705 2.20487,5.14912 0.006,0.60056 -0.42904,1.04438 -0.42053,0.42903 -1.02109,0.43503 -0.60056,0.006 -1.04423,-0.41439 -0.42918,-0.43519 -0.43518,-1.03575 -0.0181,-1.81631 -1.32002,-3.09243 -1.30188,-1.27612 -3.11819,-1.25797 -1.81632,0.0181 -3.09244,1.32002 -1.27612,1.30188 -1.25797,3.1182 l 0.0732,7.32385 q 0.0181,1.81631 1.32002,3.09243 1.30188,1.27612 3.11819,1.25797 1.81632,-0.0181 3.09244,-1.32002 1.27612,-1.30188 1.25797,-3.11819 z"
       style="font-style:normal;font-variant:normal;font-weight:normal;font-stretch:normal;font-size:30px;font-family:Instruction;-inkscape-font-specification:Instruction;letter-spacing:24.13999939px"
       id="path4156" />
    <path
       d="m 211.86743,325.34259 q 0.53144,0.30191 0.96481,0.81056 l 11.66266,11.23252 -3.43452,-13.34944 q -0.14964,-0.58165 0.15592,-1.0989 0.3161,-0.53509 0.89774,-0.68473 0.58165,-0.14965 1.10255,0.1701 0.53144,0.30191 0.68108,0.88355 l 4.74482,18.44238 q 0.14964,0.58165 -0.16645,1.11674 -0.30556,0.51725 -0.88721,0.66689 -0.58164,0.14965 -1.11308,-0.15226 -0.52091,-0.31975 -0.95428,-0.8284 l -11.66266,-11.23252 3.43452,13.34944 q 0.14965,0.58165 -0.16645,1.11674 -0.30556,0.51725 -0.88721,0.66689 -0.58164,0.14965 -1.11308,-0.15226 -0.5209,-0.31975 -0.67055,-0.9014 l -4.74481,-18.44238 q -0.14965,-0.58164 0.15591,-1.09889 0.3161,-0.53509 0.89774,-0.68474 0.58165,-0.14964 1.10255,0.17011 z"
       style="font-style:normal;font-variant:normal;font-weight:normal;font-stretch:normal;font-size:30px;font-family:Instruction;-inkscape-font-specification:Instruction;letter-spacing:24.13999939px"
       id="path4159" />
    <path
       d="m 264.59297,324.84174 q 0.5293,-0.28379 1.11134,-0.0972 0.58803,0.16674 0.87182,0.69604 0.28379,0.52931 0.10414,1.12426 -0.17366,0.57512 -0.70297,0.85891 l -10.32798,5.53732 q -0.52931,0.28379 -1.11734,0.11705 -0.58204,-0.18657 -0.86582,-0.71588 L 244.668,315.57927 q -0.28379,-0.52931 -0.11012,-1.10443 0.17964,-0.59495 0.70895,-0.87874 l 10.32798,-5.53732 q 0.52931,-0.28379 1.11135,-0.0972 0.58803,0.16674 0.87181,0.69605 0.28379,0.52931 0.10414,1.12426 -0.17366,0.57512 -0.70297,0.8589 l -9.03698,4.84516 3.11475,5.80949 7.74598,-4.15299 q 0.52931,-0.28379 1.11135,-0.0972 0.58803,0.16674 0.87181,0.69605 0.28379,0.52931 0.10414,1.12426 -0.17366,0.57511 -0.70297,0.8589 l -7.74598,4.153 3.11475,5.80948 9.03698,-4.84516 z"
       style="font-style:normal;font-variant:normal;font-weight:normal;font-stretch:normal;font-size:30px;font-family:Instruction;-inkscape-font-specification:Instruction;letter-spacing:24.13999939px"
       id="path4161" />
    <path
       d="m 290.81733,308.40184 q 0.4022,0.44602 0.37014,1.06667 -0.031,0.59997 -0.47702,1.00217 -0.44602,0.4022 -1.05687,0.38102 -0.60977,-0.0419 -1.01197,-0.4879 l -12.75276,-14.14221 q -0.4022,-0.44602 -0.3712,-1.04598 0.0321,-0.62066 0.47809,-1.02286 l 8.70289,-7.84785 q 0.44602,-0.4022 1.0558,-0.36033 0.61084,0.0212 1.01304,0.46721 0.40221,0.44603 0.37014,1.06668 -0.031,0.59996 -0.47702,1.00217 l -7.61503,6.86686 4.41441,4.89538 6.52718,-5.88588 q 0.44602,-0.40221 1.05579,-0.36033 0.61085,0.0212 1.01305,0.46721 0.4022,0.44602 0.37014,1.06667 -0.031,0.59997 -0.47702,1.00217 l -6.52717,5.88589 5.39539,5.98324 z"
       style="font-style:normal;font-variant:normal;font-weight:normal;font-stretch:normal;font-size:30px;font-family:Instruction;-inkscape-font-specification:Instruction;letter-spacing:24.13999939px"
       id="path4163" />
    <path
       d="m 301.52967,269.96434 q -0.49781,-0.336 -0.61227,-0.92576 -0.1184,-0.61009 0.2176,-1.1079 0.33599,-0.49781 0.93789,-0.60407 0.59796,-0.12659 1.09577,0.2094 l 10.92747,7.37547 q 1.50556,1.01617 3.29518,0.66887 1.78962,-0.34731 2.8058,-1.85287 1.01617,-1.50557 0.66887,-3.29519 -0.34731,-1.78962 -1.85287,-2.80579 l -10.92747,-7.37547 q -0.49781,-0.33599 -0.61227,-0.92575 -0.1184,-0.6101 0.2176,-1.10791 0.33599,-0.49781 0.93789,-0.60407 0.59796,-0.12659 1.09577,0.2094 l 10.92747,7.37547 q 2.51332,1.69636 3.09348,4.68584 0.57621,2.96914 -1.12014,5.48246 -1.69636,2.51332 -4.6737,3.10167 -2.98128,0.56802 -5.4946,-1.12834 l -10.92747,-7.37546 z"
       style="font-style:normal;font-variant:normal;font-weight:normal;font-stretch:normal;font-size:30px;font-family:Instruction;-inkscape-font-specification:Instruction;letter-spacing:24.13999939px"
       id="path4165" />
    <path
       d="m 325.20912,224.50553 17.86293,6.59928 q 0.56337,0.20814 0.8233,0.77265 0.25126,0.54569 0.0431,1.10906 -0.20813,0.56337 -0.7589,0.82838 -0.55944,0.24619 -1.1228,0.0381 l -8.69788,-3.21334 7.95742,6.06301 -0.0102,0.0275 q 0.35936,0.21084 0.54998,0.62482 0.25993,0.56451 0.0518,1.12788 -0.20814,0.56337 -0.76757,0.80956 -0.41905,0.20435 -0.82918,0.13092 l -0.0102,0.0275 -9.98796,-0.56673 8.69787,3.21335 q 0.56337,0.20813 0.8233,0.77264 0.25127,0.54569 0.0431,1.10906 -0.20813,0.56337 -0.7589,0.82838 -0.55944,0.24619 -1.12281,0.0381 l -17.86293,-6.59928 q -0.56337,-0.20813 -0.8233,-0.77265 -0.25126,-0.54569 -0.0431,-1.10906 0.20813,-0.56337 0.7589,-0.82838 0.50299,-0.22019 1.44838,-0.0739 l 14.55331,0.84789 -11.60901,-8.81751 q -0.80238,-0.70245 -1.02197,-1.08028 -0.27665,-0.47699 -0.0685,-1.04036 0.20813,-0.56337 0.76757,-0.80956 0.55077,-0.26501 1.11414,-0.0569 z"
       style="font-style:normal;font-variant:normal;font-weight:normal;font-stretch:normal;font-size:30px;font-family:Instruction;-inkscape-font-specification:Instruction;letter-spacing:24.13999939px"
       id="path4167" />
    <path
       d="m 351.21957,203.8985 q -0.0671,0.59683 -0.53828,0.9861 -0.48414,0.37308 -1.08097,0.30602 l -18.92388,-2.12636 q -0.59683,-0.0671 -0.97155,-0.53664 -0.38763,-0.48578 -0.32057,-1.08261 l 0.65426,-5.82273 q 0.33859,-3.01327 2.71725,-4.89812 2.36574,-1.90105 5.379,-1.56247 l 7.27842,0.81783 q 3.01326,0.33859 4.91267,2.71888 1.88649,2.36411 1.54791,5.37737 l -0.65426,5.82273 z m -18.76032,-3.58204 16.01252,1.79923 0.49069,-4.36705 q 0.20283,-1.80505 -0.93424,-3.22999 -1.13706,-1.42494 -2.94211,-1.62776 l -7.27841,-0.81783 q -1.80505,-0.20282 -3.22999,0.93424 -1.42494,1.13706 -1.62776,2.94211 l -0.4907,4.36705 z"
       style="font-style:normal;font-variant:normal;font-weight:normal;font-stretch:normal;font-size:30px;font-family:Instruction;-inkscape-font-specification:Instruction;letter-spacing:24.13999939px"
       id="path4169" />
    <path
       d="m 349.11061,158.29382 -15.97517,2.10517 0.57413,4.35687 q 0.0785,0.59543 -0.28528,1.08662 -0.38019,0.47858 -0.97563,0.55704 -0.59543,0.0785 -1.0721,-0.28719 -0.4931,-0.37828 -0.57156,-0.97372 l -1.53104,-11.6183 q -0.0785,-0.59544 0.30173,-1.07402 0.36374,-0.49118 0.95918,-0.56965 0.59544,-0.0785 1.08854,0.29981 0.47667,0.36566 0.55513,0.9611 l 0.57414,4.35686 15.97517,-2.10517 -0.57414,-4.35686 q -0.0785,-0.59544 0.30172,-1.07402 0.36375,-0.49118 0.95919,-0.56965 0.59544,-0.0785 1.08854,0.29981 0.47666,0.36566 0.55513,0.9611 l 1.53103,11.61831 q 0.0785,0.59543 -0.28528,1.08662 -0.38019,0.47858 -0.97563,0.55704 -0.59544,0.0785 -1.0721,-0.28719 -0.4931,-0.37828 -0.57157,-0.97372 l -0.57413,-4.35686 z"
       style="font-style:normal;font-variant:normal;font-weight:normal;font-stretch:normal;font-size:30px;font-family:Instruction;-inkscape-font-specification:Instruction;letter-spacing:24.13999939px"
       id="path4171" />
    <path
       d="m 332.56559,121.23886 -0.35226,0.46754 -5.70205,7.5535 q -0.59233,0.85989 -1.15188,1.07809 -0.55955,0.21819 -1.10966,-0.0233 -0.56908,-0.24977 -0.78728,-0.80932 -0.21819,-0.55955 0.0369,-1.11498 0.23613,-0.56376 0.68924,-1.0549 l 4.70588,-6.23741 -7.68609,-1.40521 q -0.66598,-0.0547 -1.2161,-0.2962 -0.56908,-0.24977 -0.78727,-0.80932 -0.21819,-0.55955 0.0369,-1.11498 0.23612,-0.56376 0.79567,-0.78196 0.55955,-0.21819 1.57763,0.0137 l 9.31023,1.69952 0.57578,0.10565 8.40688,-3.27823 q 0.55954,-0.21819 1.12862,0.0316 0.55012,0.24144 0.76831,0.80099 0.21819,0.55955 -0.0179,1.12331 -0.25509,0.55543 -0.81464,0.77363 l -8.40688,3.27823 z"
       style="font-style:normal;font-variant:normal;font-weight:normal;font-stretch:normal;font-size:30px;font-family:Instruction;-inkscape-font-specification:Instruction;letter-spacing:24.13999939px"
       id="path4173" />
    <path
       d="m 317.04575,74.065564 q 0.49142,-0.345272 1.10363,-0.238336 0.59181,0.103372 0.93708,0.594789 0.34527,0.491418 0.22991,1.091643 -0.0949,0.60379 -0.57438,0.940641 2.27294,0.712462 3.71297,2.762032 1.7432,2.481059 1.2312,5.472474 -0.53241,2.98785 -3.01347,4.73105 l -5.99289,4.210628 q -2.48106,1.7432 -5.46049,1.222778 -2.99983,-0.523987 -4.74303,-3.005045 -1.7432,-2.481059 -1.2108,-5.468909 0.512,-2.991415 2.99306,-4.734615 0.49142,-0.345271 1.10363,-0.238335 0.59181,0.103371 0.93708,0.594789 0.34527,0.491417 0.25032,1.095207 -0.11536,0.600226 -0.60678,0.945497 -1.48623,1.044236 -1.79991,2.840056 -0.31368,1.79582 0.73055,3.282058 1.04424,1.486238 2.84006,1.799917 1.79582,0.313679 3.28206,-0.730556 l 5.99289,-4.210628 q 1.48624,-1.044236 1.79992,-2.840056 0.31368,-1.79582 -0.73056,-3.282058 -1.04423,-1.486238 -2.84005,-1.799917 -1.79582,-0.313679 -3.28206,0.730556 l -0.59929,0.421063 2.94744,4.195027 q 0.34527,0.491417 0.25032,1.095207 -0.11536,0.600226 -0.60677,0.945497 -0.49142,0.345272 -1.08323,0.2419 -0.61221,-0.106936 -0.95748,-0.598353 l -3.78956,-5.393606 q -0.34528,-0.491417 -0.22992,-1.091643 0.0949,-0.60379 0.58637,-0.949061 l 6.59218,-4.631691 z"
       style="font-style:normal;font-variant:normal;font-weight:normal;font-stretch:normal;font-size:30px;font-family:Instruction;-inkscape-font-specification:Instruction;letter-spacing:24.13999939px"
       id="path4175" />
    <path
       d="m 287.77698,54.535063 4.14583,3.60374 5.28548,-6.080552 q 0.39401,-0.453277 1.01398,-0.496644 0.5993,-0.04192 1.05258,0.352087 0.45327,0.394009 0.50625,1.002919 0.0323,0.610355 -0.3617,1.063633 l -12.49296,14.372213 q -0.39401,0.453277 -0.99331,0.495199 -0.61996,0.04337 -1.07324,-0.350642 l -5.25139,-4.564737 q -1.94577,-1.691355 -2.11542,-4.264935 -0.1903,-2.572134 1.50105,-4.517911 1.69136,-1.945777 4.27455,-2.126473 2.56252,-0.179252 4.5083,1.512103 z m -6.24648,7.186107 4.14583,3.603739 4.32449,-4.974996 -4.14584,-3.60374 q -1.02816,-0.893728 -2.39209,-0.798319 -1.36392,0.09541 -2.25765,1.123574 -0.89372,1.028166 -0.79832,2.39209 0.0954,1.363924 1.12358,2.257652 z"
       style="font-style:normal;font-variant:normal;font-weight:normal;font-stretch:normal;font-size:30px;font-family:Instruction;-inkscape-font-specification:Instruction;letter-spacing:24.13999939px"
       id="path4177" />
    <path
       d="m 260.56416,24.483513 q 0.53459,0.273714 0.71243,0.858478 0.15302,0.440398 0.0313,0.838863 l 0.0261,0.01335 -3.32345,18.704886 q -0.0463,0.7333 -0.2733,1.176617 -0.27371,0.534588 -0.84543,0.719109 -0.59144,0.190884 -1.12603,-0.08283 -0.53459,-0.273713 -0.64724,-0.825098 -0.13237,-0.545022 0.0141,-1.473903 l 2.57426,-14.348897 -10.13673,10.476853 q -0.668,0.661844 -1.17454,0.879745 -0.52624,0.224264 -1.06083,-0.04945 -0.53459,-0.273713 -0.71243,-0.858477 -0.19756,-0.578402 0.0761,-1.11299 0.22698,-0.443317 0.79485,-0.90958 l 13.23288,-13.631174 0.0261,0.01335 q 0.25212,-0.331705 0.68584,-0.471686 0.59144,-0.190884 1.12603,0.08283 z"
       style="font-style:normal;font-variant:normal;font-weight:normal;font-stretch:normal;font-size:30px;font-family:Instruction;-inkscape-font-specification:Instruction;letter-spacing:24.13999939px"
       id="path4179" />
    <path
       d="m 219.76558,17.629027 5.52994,-5.519985 q 0.42407,-0.516431 0.95333,-0.84219 0.51162,-0.314901 1.09589,-0.175841 0.58426,0.139061 0.91341,0.654073 0.31151,0.525871 0.17245,1.110136 -0.13906,0.584265 -0.90918,1.289368 l -6.69632,6.687909 2.96543,8.987495 q 0.3699,0.97644 0.23084,1.560705 -0.13906,0.584265 -0.65068,0.899166 -0.52927,0.32576 -1.11353,0.186699 -0.58427,-0.13906 -0.89577,-0.664931 -0.32916,-0.515012 -0.4751,-1.167112 l -2.45026,-7.419348 -5.52995,5.519985 q -0.42407,0.516431 -0.93569,0.831332 -0.52926,0.325759 -1.11352,0.186699 -0.58427,-0.139061 -0.89578,-0.664932 -0.32915,-0.515012 -0.19009,-1.099277 0.13906,-0.584265 0.90919,-1.289368 l 6.69632,-6.687909 -2.96543,-8.987495 q -0.3699,-0.97644 -0.23084,-1.560705 0.13906,-0.5842651 0.66832,-0.9100245 0.51162,-0.3149008 1.09589,-0.1758403 0.58426,0.1390605 0.91341,0.6540727 0.31151,0.5258708 0.45746,1.1779701 l 2.45026,7.419348 z"
       style="font-style:normal;font-variant:normal;font-weight:normal;font-stretch:normal;font-size:30px;font-family:Instruction;-inkscape-font-specification:Instruction;letter-spacing:24.13999939px"
       id="path4181" />
    <path
       d="m 179.04834,23.783036 -0.1689,-17.5773138 q -0.006,-0.6005583 0.42944,-1.0442137 0.4207,-0.4288669 1.02126,-0.4346378 0.60056,-0.00577 1.04407,0.4147916 0.42901,0.435351 0.43478,1.0359092 l 0.16891,17.5773135 4.39433,-0.04223 q 0.60055,-0.0058 1.04407,0.414792 0.42901,0.435351 0.43478,1.035909 0.006,0.600558 -0.41494,1.029425 -0.43521,0.443655 -1.03576,0.449426 l -11.71821,0.112603 q -0.60056,0.0058 -1.02957,-0.42958 -0.44351,-0.420563 -0.44928,-1.021121 -0.006,-0.600558 0.42943,-1.044214 0.42071,-0.428867 1.02127,-0.434637 l 4.39432,-0.04223 z"
       style="font-style:normal;font-variant:normal;font-weight:normal;font-stretch:normal;font-size:30px;font-family:Instruction;-inkscape-font-specification:Instruction;letter-spacing:24.13999939px"
       id="path4183" />
    <path
       d="m 147.93896,15.073845 q 0.14942,0.581701 -0.15634,1.098838 -0.3163,0.534969 -0.898,0.684393 -0.5817,0.149424 -1.10248,-0.170521 -0.53133,-0.302113 -0.68075,-0.883814 -0.45192,-1.75929 -2.02116,-2.687105 -1.56924,-0.927814 -3.32853,-0.475899 -1.75929,0.451916 -2.68711,2.021159 -0.92781,1.569243 -0.4759,3.328534 l 3.28004,12.769046 q 0.14942,0.581701 -0.15634,1.098838 -0.3163,0.534969 -0.898,0.684393 -0.5817,0.149424 -1.10248,-0.170521 -0.53133,-0.302113 -0.68075,-0.883814 l -3.28003,-12.769046 q -0.75441,-2.93688 0.79546,-5.55823 1.53933,-2.603517 4.47621,-3.3579245 2.93688,-0.7544076 5.55459,0.7812765 2.60716,1.553517 3.36157,4.490397 z"
       style="font-style:normal;font-variant:normal;font-weight:normal;font-stretch:normal;font-size:30px;font-family:Instruction;-inkscape-font-specification:Instruction;letter-spacing:24.13999939px"
       id="path4185" />
    <path
       d="m 106.50473,33.097678 1.04929,-3.935442 -2.87046,-5.358727 q -0.28359,-0.529416 -0.10371,-1.124297 0.17388,-0.575051 0.70329,-0.858639 0.52942,-0.283587 1.11738,-0.116625 0.58197,0.186792 0.86556,0.716208 l 8.99179,16.786372 q 0.28359,0.529416 0.10971,1.104468 -0.17987,0.594881 -0.70929,0.878468 -0.52942,0.283587 -1.11138,0.0968 -0.58797,-0.166963 -0.87156,-0.696379 l -4.19156,-7.825032 -3.3139,12.427032 q -0.0365,0.335257 -0.13838,0.672356 -0.17388,0.575052 -0.70329,0.858639 -0.52942,0.283588 -1.11139,0.0968 -0.58796,-0.166962 -0.87155,-0.696379 -0.28359,-0.529416 -0.10971,-1.104467 0.12591,-0.416417 0.25735,-0.636382 l 2.19267,-8.253637 q -0.16647,-0.09362 -0.33386,-0.219985 L 95.561665,30.35151 q -0.924593,-0.485172 -1.20818,-1.014589 -0.283588,-0.529416 -0.103713,-1.124297 0.173879,-0.575051 0.703295,-0.858638 0.529417,-0.283588 1.117381,-0.116626 0.581968,0.186792 1.123807,0.577873 l 9.310475,5.282445 z"
       style="font-style:normal;font-variant:normal;font-weight:normal;font-stretch:normal;font-size:30px;font-family:Instruction;-inkscape-font-specification:Instruction;letter-spacing:24.13999939px"
       id="path4187" />
    <path
       d="m 71.359542,49.180293 -1.166487,-2.498137 q -0.380497,-0.859937 -0.402608,-1.431549 -0.02319,-0.550925 0.42299,-0.952956 0.446177,-0.402032 1.057012,-0.380613 0.609758,0.04211 1.01179,0.488284 0.333392,0.37 0.566805,1.066702 l 8.02371,17.220283 -0.02177,0.01961 q 0.220146,0.353735 0.185576,0.818677 -0.02142,0.610835 -0.467596,1.012866 -0.446177,0.402032 -1.066817,0.369731 -0.455137,-0.02369 -0.784107,-0.279366 l -0.02177,0.01961 -16.294308,-9.767986 q -0.668707,-0.304476 -1.002099,-0.674477 -0.402032,-0.446177 -0.369731,-1.066817 0.03122,-0.599953 0.477402,-1.001985 0.446177,-0.402031 1.0026,-0.331584 0.555346,0.09113 1.371139,0.558847 l 2.363547,1.419515 5.114712,-4.608657 z m -2.489757,6.186985 7.502365,4.51853 -3.715301,-7.930897 -3.787064,3.412367 z"
       style="font-style:normal;font-variant:normal;font-weight:normal;font-stretch:normal;font-size:30px;font-family:Instruction;-inkscape-font-specification:Instruction;letter-spacing:24.13999939px"
       id="path4189" />
    <path
       d="m 57.738835,87.227511 -14.566202,-9.839524 -5.739722,8.496951 q -0.336184,0.497679 -0.938127,0.603707 -0.598005,0.126367 -1.095684,-0.209817 -0.497678,-0.336184 -0.615845,-0.946327 -0.114228,-0.589805 0.221956,-1.087483 l 6.559682,-9.710802 q 0.336184,-0.497678 0.934188,-0.624045 0.601944,-0.106029 1.099623,0.230155 L 59.378756,84.79981 q 0.497679,0.336184 0.611907,0.925989 0.118167,0.610143 -0.218017,1.107822 -0.336184,0.497678 -0.938127,0.603707 -0.598005,0.126366 -1.095684,-0.209817 z"
       style="font-style:normal;font-variant:normal;font-weight:normal;font-stretch:normal;font-size:30px;font-family:Instruction;-inkscape-font-specification:Instruction;letter-spacing:24.13999939px"
       id="path4191" />
  </g>
</svg>
