<?xml version="1.0" encoding="UTF-8" standalone="no"?>
<svg
   xmlns:dc="http://purl.org/dc/elements/1.1/"
   xmlns:cc="http://creativecommons.org/ns#"
   xmlns:rdf="http://www.w3.org/1999/02/22-rdf-syntax-ns#"
   xmlns:svg="http://www.w3.org/2000/svg"
   xmlns="http://www.w3.org/2000/svg"
   xmlns:sodipodi="http://sodipodi.sourceforge.net/DTD/sodipodi-0.dtd"
   xmlns:inkscape="http://www.inkscape.org/namespaces/inkscape"
   viewBox="0.0011 -3.49551 360.89881 361.88172"
   version="1.0"
   overflow="visible"
   id="svg2"
   inkscape:version="0.91 r13725"
   sodipodi:docname="6-spoke.svg"
   width="4.0099869in"
   height="4.0209079in"
   style="overflow:visible">
  <metadata
     id="metadata26">
    <rdf:RDF>
      <cc:Work
         rdf:about="">
        <dc:format>image/svg+xml</dc:format>
        <dc:type
           rdf:resource="http://purl.org/dc/dcmitype/StillImage" />
        <dc:title></dc:title>
      </cc:Work>
    </rdf:RDF>
  </metadata>
  <sodipodi:namedview
     pagecolor="#ffffff"
     bordercolor="#666666"
     borderopacity="1"
     objecttolerance="10"
     gridtolerance="10"
     guidetolerance="10"
     inkscape:pageopacity="0"
     inkscape:pageshadow="2"
     inkscape:window-width="1680"
     inkscape:window-height="997"
     id="namedview24"
     showgrid="false"
     inkscape:document-units="in"
     units="in"
     fit-margin-top="0"
     fit-margin-left="0"
     fit-margin-right="0"
     fit-margin-bottom="0"
     inkscape:zoom="2.1137074"
     inkscape:cx="151.78195"
     inkscape:cy="172.1808"
     inkscape:window-x="-8"
     inkscape:window-y="-8"
     inkscape:window-maximized="1"
     inkscape:current-layer="svg2" />
  <defs
     id="defs4" />
  <g
     id="draft"
     transform="matrix(102.34987,-12.713957,-12.713957,-102.34987,23.502736,378.91631)"
     style="fill:#EBD3B0;fill-opacity:1;stroke:#000000;stroke-width:0.00870542;stroke-miterlimit:4;stroke-dasharray:none;stroke-opacity:1">
    <g
       id="ID_0"
       style="color:#000000;fill:#77c98c;fill-opacity:1;stroke:#000000;stroke-width:0.00870542;stroke-miterlimit:4;stroke-dasharray:none;stroke-opacity:1">
      <path
         style="fill:#EBD3B0;fill-opacity:1;stroke:#000000;stroke-width:0.8978467;stroke-miterlimit:4;stroke-dasharray:none;stroke-opacity:1"
         d="m 186.41211,-0.46679688 -12.78711,0.0371094 -0.91406,2.01757808 -0.84961,2.0195313 -0.7793,2.0234375 -0.70898,2.0214844 -0.63282,2.0214843 -0.55273,2.0195309 -0.4668,2.015625 -0.36914,2.011719 -0.14453,1.003906 -0.11328,1 -0.041,0.5 -0.0332,0.498047 -0.0195,0.498047 -0.006,0.496094 -14.55664,1.808594 -0.12695,-0.480469 -0.14258,-0.476563 -0.15235,-0.476562 -0.16406,-0.472656 -0.35351,-0.94336 -0.38477,-0.9375 -0.85156,-1.859375 -0.94531,-1.841797 -1.03125,-1.822265 -1.10743,-1.804688 -1.18164,-1.7871091 -1.25195,-1.7714844 -1.31641,-1.7519531 -1.38085,-1.7324219 -12.40821,3.0957031 -0.40429,2.1777344 -0.33985,2.166016 -0.27344,2.148437 -0.20312,2.132813 -0.13086,2.115234 -0.0547,2.09375 0.0293,2.068359 0.12305,2.041016 0.0996,1.007812 0.13085,1 0.0781,0.496094 0.0879,0.490235 0.0996,0.488281 0.11133,0.484375 -13.69922,5.240234 -0.23828,-0.4375 -0.25196,-0.429687 -0.26367,-0.425782 -0.27148,-0.419921 -0.57031,-0.832032 -0.59571,-0.816406 -1.27148,-1.601562 -1.35938,-1.5625 -1.4375,-1.523438 -1.50781,-1.486328 -1.57422,-1.453125 -1.63867,-1.419922 -1.69727,-1.384766 -1.75585,-1.351562 -11.306646,5.972656 0.126954,2.212891 0.189453,2.183594 0.248047,2.152343 0.3125,2.119141 0.378906,2.085937 0.449218,2.042969 0.525391,2.003907 0.605469,1.953124 0.339844,0.953126 0.365234,0.939453 0.193359,0.46289 0.203125,0.455078 0.212891,0.451172 0.226563,0.44336 -12.048829,8.365234 -0.335937,-0.367187 -0.347656,-0.355469 -0.357422,-0.351563 -0.363282,-0.34375 -0.751953,-0.669922 -0.777343,-0.65039 -1.617188,-1.251953 -1.691406,-1.189453 -1.761719,-1.136719 -1.820312,-1.082031 -1.875,-1.033204 -1.929688,-0.986328 -1.980469,-0.939453 -2.029296,-0.892578 -9.546876,8.505859 0.652344,2.117188 0.705078,2.074219 0.757813,2.03125 0.810547,1.984375 0.867187,1.93164 0.923828,1.878906 0.988282,1.81836 1.05664,1.751953 0.556641,0.845703 0.580078,0.824219 0.298828,0.400391 0.306641,0.396484 0.316406,0.384766 0.324219,0.375 -9.697266,11.007812 -0.414062,-0.275391 -0.421875,-0.263671 -0.429688,-0.253907 -0.435547,-0.246093 -0.892578,-0.472657 -0.908203,-0.445312 -1.871094,-0.828125 -1.927734,-0.75 -1.980469,-0.681641 -2.027344,-0.615234 -2.068359,-0.554688 -2.109375,-0.496093 -2.148438,-0.4375 -2.18164,-0.382813 -7.236328,10.544922 1.142578,1.900391 1.179687,1.845703 1.220703,1.789062 1.263672,1.732422 1.302735,1.669922 1.347656,1.601562 1.394531,1.529297 1.445313,1.447266 0.74414,0.6875 0.759766,0.662109 0.386719,0.31836 0.392578,0.310547 0.396484,0.298828 0.40625,0.287109 -6.78125,13.005855 -0.466797,-0.16601 -0.474609,-0.15625 -0.478516,-0.14453 -0.482422,-0.13281 -0.976562,-0.2461 -0.990234,-0.21484 -2.013672,-0.35547 -2.052735,-0.26758 -2.083984,-0.1875 -2.117187,-0.11328 -2.140626,-0.043 -2.167968,0.0234 -2.189453,0.0879 -2.210938,0.15234 -4.501953,11.97071 1.5625,1.57031 1.589844,1.50976 1.613281,1.44532 1.640625,1.38086 1.664062,1.30859 1.69336,1.23242 1.71875,1.15234 1.75,1.0586 0.886719,0.49023 0.896484,0.46094 0.451172,0.21484 0.455078,0.20899 0.458984,0.19531 0.460938,0.18164 -3.470703,14.25195 -0.494141,-0.0527 -0.496094,-0.0371 -0.5,-0.0254 -0.5,-0.0137 -1.007812,-0.004 -1.011719,0.0273 -2.041016,0.13672 -2.05664,0.23046 -2.070313,0.31641 -2.080078,0.39648 -2.0917966,0.47071 -2.0976563,0.54297 -2.1054687,0.60937 -2.109375,0.67774 -1.5058594,12.69921 1.8925781,1.15039 1.9042969,1.08594 1.9121094,1.01758 1.921875,0.94727 1.9316406,0.87109 1.9375,0.79297 1.945313,0.70703 1.951171,0.60938 0.978516,0.26367 0.980469,0.23242 0.490234,0.10156 0.492188,0.0918 0.492187,0.082 0.492188,0.0644 0.04102,14.66797 -0.492187,0.0684 -0.492188,0.084 -0.490234,0.0938 -0.490235,0.10546 -0.978515,0.23828 -0.976563,0.26954 -1.949218,0.61914 -1.941407,0.71875 -1.933593,0.80273 -1.9257816,0.88281 -1.9160156,0.95703 -1.9082032,1.02735 -1.8984375,1.09765 -1.88671872,1.16211 1.57812502,12.68946 2.1132812,0.66406 2.1074219,0.59961 2.1015625,0.53125 2.091797,0.45898 2.083984,0.38477 2.070313,0.30469 2.058594,0.2207 2.041015,0.125 1.013672,0.0215 1.005859,-0.01 0.501954,-0.0176 0.5,-0.0273 0.496093,-0.0391 0.494141,-0.0547 3.548828,14.23242 -0.460938,0.18359 -0.457031,0.19727 -0.455078,0.21094 -0.451172,0.21875 -0.892578,0.46484 -0.884765,0.49609 -1.742188,1.06836 -1.712891,1.16016 -1.685547,1.24219 -1.660156,1.31836 -1.630859,1.38867 -1.605469,1.45508 -1.580078,1.51757 -1.5546875,1.58008 4.5683595,11.94531 2.210937,0.13868 2.191407,0.0781 2.166015,0.0117 2.142578,-0.0566 2.113282,-0.12305 2.085937,-0.19922 2.048828,-0.27929 2.013672,-0.36719 0.988281,-0.2207 0.97461,-0.25 0.482422,-0.13672 0.478515,-0.14649 0.472656,-0.1582 0.466797,-0.17188 6.851563,12.97071 -0.404297,0.28906 -0.396484,0.30078 -0.390625,0.3125 -0.382813,0.32227 -0.757812,0.66406 -0.740235,0.69141 -1.4375,1.45703 -1.384765,1.53711 -1.339844,1.60937 -1.294922,1.67578 -1.251953,1.73828 -1.210938,1.79688 -1.169922,1.85352 -1.130859,1.90624 7.292969,10.50391 2.18164,-0.39453 2.144532,-0.44922 2.105468,-0.50781 2.066407,-0.56641 2.023437,-0.625 1.976563,-0.69336 1.925781,-0.76172 1.865234,-0.83789 0.90625,-0.45117 0.886719,-0.47656 0.435547,-0.24805 0.429688,-0.25586 0.421874,-0.26562 0.410157,-0.2793 9.757812,10.95313 -0.322265,0.37695 -0.3125,0.38867 -0.304688,0.39649 -0.296875,0.40429 -0.574219,0.82617 -0.554687,0.84961 -1.046875,1.75586 -0.976563,1.82422 -0.916015,1.88281 -0.855469,1.9375 -0.800781,1.98829 -0.746094,2.03515 -0.691406,2.07813 -0.642578,2.12109 9.595703,8.45313 2.021484,-0.90235 1.976563,-0.95117 1.923828,-0.99609 1.871094,-1.04297 1.814453,-1.09375 1.751953,-1.14649 1.6875,-1.19726 1.609375,-1.26172 0.773437,-0.6543 0.748047,-0.67578 0.363281,-0.34375 0.355469,-0.35351 0.345703,-0.35938 0.332032,-0.36719 12.095703,8.29883 -0.222657,0.44336 -0.210937,0.45117 -0.201172,0.45899 -0.191406,0.46289 -0.361328,0.9414 -0.332032,0.95703 -0.595703,1.95508 -0.515625,2.00391 -0.435547,2.04883 -0.367187,2.08593 -0.300781,2.1211 -0.238282,2.15429 -0.175781,2.18555 -0.115234,2.21094 11.339836,5.91211 1.74805,-1.36133 1.68945,-1.39453 1.63086,-1.42774 1.56641,-1.46289 1.5,-1.49609 1.42773,-1.5293 1.34961,-1.56836 1.26367,-1.60937 0.5918,-0.82227 0.56445,-0.83398 0.27149,-0.42188 0.25976,-0.42578 0.25,-0.43164 0.23633,-0.4375 13.72852,5.16211 -0.11133,0.48633 -0.0957,0.48828 -0.0859,0.49219 -0.0742,0.49609 -0.125,0.99805 -0.0957,1.00977 -0.10938,2.04101 -0.0195,2.07031 0.0645,2.09375 0.14453,2.11328 0.21486,2.13086 0.28514,2.14844 0.35157,2.16406 0.41797,2.17579 12.42383,3.02539 1.3711,-1.74024 1.30859,-1.75976 1.24024,-1.77539 1.17187,-1.79493 1.09766,-1.81054 1.02148,-1.82813 0.93555,-1.8457 0.83984,-1.86524 0.37891,-0.93945 0.34961,-0.94336 0.16015,-0.47656 0.15235,-0.47461 0.13867,-0.48047 0.125,-0.48047 14.56445,1.72852 0.01,0.49609 0.0234,0.49805 0.0332,0.49804 0.0469,0.5 0.11719,1 0.15038,1.00196 0.38087,2.00976 0.47852,2.01368 0.56445,2.01562 0.64258,2.01758 0.71875,2.01953 0.79101,2.01758 0.85938,2.01562 0.92578,2.01367 12.78906,-0.0351 0.91407,-2.01953 0.84961,-2.01953 0.77929,-2.02344 0.70703,-2.02149 0.63477,-2.02148 0.55273,-2.01953 0.4668,-2.01563 0.36914,-2.01172 0.14453,-1.0039 0.11133,-1 0.043,-0.5 0.0332,-0.49805 0.0195,-0.49805 0.006,-0.49609 14.55664,-1.80859 0.12696,0.47851 0.14257,0.47852 0.15235,0.47656 0.16406,0.47461 0.35352,0.94141 0.38476,0.9375 0.85156,1.85937 0.94532,1.8418 1.02929,1.82226 1.10938,1.80469 1.18164,1.78906 1.25,1.76954 1.31836,1.75 1.38086,1.73437 12.40625,-3.0957 0.40625,-2.17774 0.33984,-2.16406 0.27344,-2.15039 0.20312,-2.13281 0.13086,-2.11524 0.0547,-2.09179 -0.0293,-2.07032 -0.12304,-2.04101 -0.0996,-1.00781 -0.13086,-1 -0.0781,-0.49415 -0.0879,-0.49218 -0.0996,-0.48828 -0.11328,-0.48438 13.70117,-5.23828 0.23829,0.43555 0.25195,0.42968 0.26172,0.42579 0.27343,0.41992 0.56836,0.83203 0.59961,0.81836 1.27149,1.60156 1.35742,1.56055 1.4375,1.52344 1.50781,1.48632 1.57422,1.45313 1.63867,1.41992 1.69727,1.38477 1.75586,1.35156 11.30664,-5.97266 -0.12891,-2.21289 -0.1875,-2.18359 -0.24804,-2.15235 -0.3125,-2.12109 -0.37891,-2.08203 -0.44923,-2.04688 -0.52344,-2.00195 -0.60742,-1.95117 -0.33789,-0.95703 -0.36719,-0.9375 -0.19335,-0.46094 -0.20313,-0.45703 -0.21289,-0.45117 -0.22656,-0.44336 12.04882,-8.36524 0.33594,0.36719 0.3457,0.35742 0.35743,0.34961 0.36523,0.34375 0.75196,0.66992 0.77735,0.65235 1.61718,1.25 1.69336,1.1914 1.75781,1.13477 1.82032,1.08203 1.87891,1.03516 1.92968,0.98437 1.97852,0.93945 2.0293,0.89258 9.54882,-8.50586 -0.6543,-2.11718 -0.70508,-2.07618 -0.75781,-2.02929 -0.81054,-1.98438 -0.86719,-1.93164 -0.92383,-1.8789 -0.98828,-1.81836 -1.05664,-1.75 -0.55859,-0.84766 -0.57813,-0.82227 -0.30078,-0.40234 -0.30469,-0.39648 -0.31445,-0.38672 -0.32617,-0.375 9.69531,-11.00586 0.41406,0.27539 0.42383,0.26367 0.42969,0.25586 0.4375,0.24609 0.88867,0.47071 0.91016,0.44531 1.86914,0.82812 1.92969,0.75 1.98047,0.68165 2.02539,0.61718 2.07031,0.55469 2.10937,0.49414 2.14844,0.4375 2.18164,0.38086 7.23633,-10.54297 -1.14063,-1.90039 -1.18164,-1.8457 -1.22265,-1.79102 -1.25977,-1.73047 -1.30469,-1.66992 -1.34765,-1.60156 -1.39453,-1.5293 -1.44532,-1.44726 -0.74414,-0.6875 -0.75976,-0.66211 -0.38672,-0.31836 -0.39258,-0.31055 -0.39844,-0.29883 -0.40429,-0.28711 6.78125,-13.00781 0.46679,0.16992 0.47266,0.1543 0.47852,0.14453 0.48437,0.13281 0.97656,0.24414 0.99024,0.2168 2.01367,0.35547 2.05078,0.26758 2.08789,0.1875 2.11328,0.11328 2.14258,0.043 2.16797,-0.0234 2.18945,-0.0898 2.21094,-0.15039 4.50195,-11.96875 -1.56487,-1.572 -1.58789,-1.50977 -1.61328,-1.44531 -1.64063,-1.38086 -1.66601,-1.30664 -1.69141,-1.23437 -1.7207,-1.15039 -1.74805,-1.06055 -0.88672,-0.49023 -0.89648,-0.45899 -0.45117,-0.2168 -0.45508,-0.20898 -0.45899,-0.19531 -0.46289,-0.18164 3.47266,-14.25196 0.49414,0.0527 0.49609,0.0371 0.5,0.0254 0.5,0.0137 1.00782,0.004 1.01367,-0.0274 2.03906,-0.13476 2.05664,-0.23243 2.07031,-0.3164 2.08008,-0.39649 2.08985,-0.4707 2.0996,-0.54297 2.10352,-0.60937 2.11133,-0.67774 1.50586,-12.69726 -1.89258,-1.15235 -1.9043,-1.08593 -1.91406,-1.01758 -1.92187,-0.94727 -1.92969,-0.87304 -1.9375,-0.79102 -1.94531,-0.70703 -1.95313,-0.60938 -0.97851,-0.26367 -0.97852,-0.23242 -0.49219,-0.10156 -0.49023,-0.0937 -0.49219,-0.0801 -0.49219,-0.0644 -0.041,-14.66797 0.49218,-0.0684 0.49219,-0.084 0.49024,-0.0937 0.49023,-0.10547 0.97852,-0.23828 0.97656,-0.26953 1.94922,-0.62109 1.9414,-0.71485 1.9336,-0.80468 1.92578,-0.88086 1.91601,-0.95899 1.90821,-1.02734 1.89648,-1.09766 1.88867,-1.16015 -1.57617,-12.69141 -2.11523,-0.66406 -2.10742,-0.59961 -2.10157,-0.5293 -2.09375,-0.45898 -2.08203,-0.38477 -2.07226,-0.30664 -2.05664,-0.2207 -2.04102,-0.125 -1.01367,-0.0215 -1.00781,0.01 -0.5,0.0176 -0.49805,0.0273 -0.49805,0.0391 -0.49414,0.0547 -3.54883,-14.23242 0.46094,-0.18359 0.45703,-0.19922 0.45313,-0.20899 0.45117,-0.21875 0.89453,-0.46484 0.88281,-0.4961 1.74414,-1.06835 1.71289,-1.16016 1.68555,-1.24219 1.6582,-1.31836 1.63282,-1.38867 1.60547,-1.45508 1.58007,-1.51758 1.55469,-1.58007 -4.56836,-11.94532 -2.21094,-0.13867 -2.18945,-0.0762 -2.16797,-0.0137 -2.14258,0.0547 -2.11328,0.125 -2.08398,0.19921 -2.05274,0.2793 -2.00976,0.36719 -0.99024,0.2207 -0.97461,0.25 -0.48242,0.13672 -0.47851,0.14648 -0.47266,0.15821 -0.4668,0.17187 -6.85156,-12.9707 0.4043,-0.289062 0.39648,-0.300782 0.38867,-0.3125 0.38672,-0.320312 0.75586,-0.666016 0.74024,-0.693359 1.43554,-1.453125 1.38672,-1.53711 1.33789,-1.611328 1.29492,-1.675781 1.25196,-1.738281 1.21289,-1.796875 1.16992,-1.853516 1.13086,-1.904297 -7.29297,-10.505859 -2.17969,0.394531 -2.14648,0.449219 -2.10742,0.507812 -2.06641,0.566407 -2.02148,0.626953 -1.97657,0.691406 -1.92382,0.761719 -1.86719,0.83789 -0.90625,0.451172 -0.88867,0.476563 -0.43555,0.248047 -0.42773,0.255859 -0.42188,0.267578 -0.41211,0.275391 -9.75586,-10.951172 0.32227,-0.376953 0.3125,-0.388672 0.30468,-0.396485 0.29688,-0.404296 0.57617,-0.826172 0.55078,-0.84961 1.04883,-1.755859 0.97656,-1.824219 0.91602,-1.882812 0.85547,-1.9375 0.79883,-1.988282 0.74609,-2.035156 0.69336,-2.078125 0.64258,-2.121093 -9.59571,-8.455079 -2.02343,0.904297 -1.97461,0.951172 -1.92383,0.996094 -1.87109,1.044922 -1.81446,1.091797 -1.7539,1.144531 -1.68555,1.201172 -1.61133,1.259765 -0.77148,0.654297 -0.74805,0.675782 -0.36328,0.345703 -0.35547,0.351562 -0.3457,0.359375 -0.33399,0.367188 -12.09375,-8.298828 0.22266,-0.44336 0.21289,-0.451172 0.19922,-0.458984 0.1914,-0.462891 0.36133,-0.939453 0.33399,-0.957031 0.5957,-1.957031 0.51172,-2.00586 0.4375,-2.046875 0.36914,-2.085937 0.30078,-2.121094 0.23633,-2.154297 0.17578,-2.183594 0.11523,-2.214843 -11.33789,-5.910157 -1.75,1.361329 -1.68945,1.394531 -1.62891,1.429687 -1.56836,1.460938 -1.5,1.49414 -1.42773,1.533204 -1.34961,1.568359 -1.26172,1.607422 -0.5957,0.822265 -0.56445,0.833985 -0.26953,0.421875 -0.25977,0.427734 -0.25,0.429688 -0.23633,0.4375 -13.72851,-5.164063 0.11132,-0.484375 0.0957,-0.488281 0.0859,-0.492188 0.0742,-0.496093 0.125,-1 0.0957,-1.007813 0.10937,-2.042969 0.0195,-2.068359 -0.0664,-2.091797 -0.14258,-2.115234 -0.21485,-2.13086 -0.28515,-2.148437 -0.35156,-2.1621095 -0.41797,-2.1777344 -12.42383,-3.0253906 -1.37305,1.7402344 -1.30664,1.7597656 -1.24023,1.7753906 -1.17188,1.7949219 -1.09765,1.810547 -1.02149,1.828125 -0.93359,1.847656 -0.8418,1.863281 -0.38086,0.939454 -0.34765,0.945312 -0.16211,0.474609 -0.15039,0.476563 -0.13868,0.478516 -0.125,0.480468 -14.56445,-1.728515 -0.01,-0.496094 -0.0215,-0.498047 -0.0371,-0.498047 -0.0449,-0.5 -0.11719,-1 -0.15039,-1.001953 -0.38086,-2.009766 -0.47656,-2.011718 -0.56445,-2.0175785 -0.64454,-2.0175781 -0.7207,-2.0195313 -0.78906,-2.015625 -0.86133,-2.0175781 -0.92578,-2.01367188 z m -4.85547,38.26171888 9.30274,0.373047 9.25585,0.980469 9.17188,1.582031 9.04883,2.18164 3.55273,7.484375 -36.73047,86.871096 -9.21875,5.91601 -10.38476,-3.48047 -56.86914,-75.244136 1.61523,-8.126953 8.24024,-4.328125 8.50586,-3.779297 8.73437,-3.214843 8.92773,-2.636719 9.08008,-2.046875 9.19336,-1.449219 9.26953,-0.845703 9.30469,-0.236328 z m 70.97266,19.574219 7.86914,4.972656 7.52539,5.476562 7.15234,5.957032 6.7461,6.412109 6.3125,6.841797 5.85351,7.236328 5.36524,7.605465 4.85742,7.93946 4.32812,8.24218 3.7793,8.50586 3.21484,8.73438 2.63672,8.92773 -4.70703,6.82032 -93.59766,11.625 -9.73046,-5.0254 -2.17969,-10.73437 36.72851,-86.871094 7.84571,-2.666015 z m -171.847659,21.345703 8.259765,0.666015 56.869144,75.246091 0.51172,10.94141 -8.20508,7.25391 -93.599612,11.62695 -6.230469,-5.46094 0.373047,-9.30078 0.980469,-9.25586 1.582031,-9.17383 2.179688,-9.04883 2.767578,-8.88671 3.341797,-8.6875 3.904297,-8.44922 4.447265,-8.17774 4.972657,-7.86719 5.476562,-7.525386 5.957031,-7.152343 6.41211,-6.748047 z M 180.97266,170.36523 a 9.6690482,9.6690482 0 0 1 9.13867,8.4668 9.6690482,9.6690482 0 0 1 -8.40235,10.78711 9.6690482,9.6690482 0 0 1 -10.7871,-8.40234 9.6690482,9.6690482 0 0 1 8.40234,-10.78711 9.6690482,9.6690482 0 0 1 1.64844,-0.0645 z m 135.54296,5.23633 6.23047,5.46094 -0.37304,9.29883 -0.97852,9.25586 -1.58398,9.17383 -2.17969,9.04882 -2.76758,8.88672 -3.3418,8.6875 -3.90429,8.44922 -4.44727,8.17774 -4.97265,7.86718 -5.47657,7.52735 -5.95703,7.15039 -6.41406,6.74609 -8.25781,-0.66406 -56.86719,-75.24414 -0.51367,-10.94141 8.20508,-7.2539 93.5996,-11.62696 z m -175.34765,21.78125 9.73242,5.02539 2.17773,10.73438 -36.73046,86.87109 -7.84375,2.66602 -7.86914,-4.97266 -7.525395,-5.47656 -7.152344,-5.95703 -6.746093,-6.41211 -6.314454,-6.83985 -5.851562,-7.23828 -5.365234,-7.60547 -4.857422,-7.93945 -4.328125,-8.24219 -3.779297,-8.50586 -3.214844,-8.73437 -2.636719,-8.92774 4.705078,-6.81835 93.599611,-11.62696 z m 43.92578,19.48242 10.38477,3.48047 56.86718,75.2461 -1.61328,8.125 -8.24023,4.32812 -8.50586,3.7793 -8.73438,3.21484 -8.92773,2.63672 -9.08008,2.04688 -9.19336,1.45117 -9.26953,0.84375 -9.30664,0.23633 -9.29883,-0.37305 -9.25586,-0.98047 -9.17383,-1.58398 -9.04882,-2.17969 -3.55274,-7.48438 36.73047,-86.87109 9.21875,-5.91602 z"
         transform="matrix(0.00962193,-0.00119524,-0.00119524,-0.00962193,0.22920212,3.6988925)"
         id="path8"
         inkscape:connector-curvature="0" />
    </g>
  </g>
  <circle
     style="fill:none;fill-opacity:1;stroke:none;stroke-width:0.93592155;stroke-linecap:round;stroke-linejoin:miter;stroke-miterlimit:4;stroke-dasharray:none;stroke-opacity:1"
     id="path4158"
     cx="-235.61829"
     cy="92.271187"
     r="172.62775"
     transform="matrix(-0.91962511,-0.39279722,-0.39279722,0.91962511,0,0)" />
  <g
     transform="matrix(-0.35500773,-0.93486337,0.93486337,-0.35500773,78.645554,409.04835)"
     style="font-style:normal;font-weight:normal;font-size:30px;line-height:125%;font-family:sans-serif;letter-spacing:24.15999985px;word-spacing:0px;fill:#000000;fill-opacity:1;stroke:none;stroke-width:1px;stroke-linecap:butt;stroke-linejoin:miter;stroke-opacity:1"
     id="text4160">
    <path
       d="m 20.970537,110.89173 q 0.207919,-0.56344 0.758591,-0.82866 0.559344,-0.2464 1.122791,-0.0385 l 17.865407,6.59257 q 0.563447,0.20792 0.814918,0.75352 0.260143,0.56441 0.05222,1.12786 l -2.028481,5.49705 q -1.049739,2.84472 -3.8103,4.10568 -2.75189,1.27976 -5.596612,0.23003 l -6.87131,-2.53561 q -2.844723,-1.04974 -4.119421,-3.81537 -1.266027,-2.74682 -0.216288,-5.59154 l 2.028482,-5.49705 z m 17.358286,7.96683 -15.116882,-5.57832 -1.521362,4.12278 q -0.628829,1.70409 0.134256,3.3597 0.763085,1.65562 2.467169,2.28445 l 6.871311,2.5356 q 1.704085,0.62883 3.359701,-0.13425 1.655617,-0.76309 2.284446,-2.46717 l 1.521361,-4.12279 z"
       style="font-style:normal;font-variant:normal;font-weight:normal;font-stretch:normal;font-size:30px;font-family:Instruction;-inkscape-font-specification:Instruction;letter-spacing:24.13999939px"
       id="path4143" />
    <path
       d="m 18.357697,158.71812 -6.099324,-4.76595 -1.007389,8.99651 q -0.06683,0.59685 -0.550829,0.97012 -0.471068,0.38945 -1.0679242,0.32262 -0.5968558,-0.0668 -0.9846771,-0.55246 -0.374894,-0.46944 -0.3080607,-1.0663 L 9.6435564,150.9767 q 0.066833,-0.59686 0.5379016,-0.98631 0.483996,-0.37327 1.080852,-0.30643 0.596856,0.0668 1.390543,0.7453 l 6.099323,4.76596 0.19072,-1.70323 q 0.06683,-0.59685 0.537902,-0.9863 0.483996,-0.37327 1.080851,-0.30643 0.596856,0.0668 0.97175,0.53627 0.387821,0.48562 0.320988,1.08248 l -0.392849,3.50835 6.099324,4.76595 1.007389,-8.99651 q 0.06683,-0.59686 0.537902,-0.98631 0.483996,-0.37326 1.080852,-0.30643 0.596855,0.0668 0.971749,0.53627 0.387822,0.48563 0.320988,1.08248 l -1.304063,11.64597 q -0.06683,0.59686 -0.550829,0.97012 -0.471069,0.38945 -1.067925,0.32262 -0.596855,-0.0668 -1.390542,-0.74531 l -6.099324,-4.76595 -0.190719,1.70322 q -0.06683,0.59686 -0.55083,0.97012 -0.471068,0.38945 -1.067924,0.32262 -0.596856,-0.0668 -0.984677,-0.55246 -0.374894,-0.46944 -0.308061,-1.06629 l 0.392849,-3.50835 z"
       style="font-style:normal;font-variant:normal;font-weight:normal;font-stretch:normal;font-size:30px;font-family:Instruction;-inkscape-font-specification:Instruction;letter-spacing:24.13999939px"
       id="path4145" />
    <path
       d="m 29.771695,190.80294 q -0.363563,0.49133 -0.920585,0.86046 l -12.552139,10.22893 13.665346,-1.80608 q 0.595408,-0.0787 1.072211,0.28679 0.493244,0.37809 0.571936,0.97349 0.07869,0.59541 -0.301312,1.07413 -0.363563,0.49133 -0.958971,0.57002 l -18.878799,2.49512 q -0.595408,0.0787 -1.088652,-0.29939 -0.4768032,-0.36549 -0.5554954,-0.96089 -0.078692,-0.59541 0.2848704,-1.08674 0.380004,-0.47872 0.937026,-0.84785 L 23.599271,192.062 9.9339247,193.86808 q -0.5954083,0.0787 -1.0886525,-0.2994 -0.4768028,-0.36548 -0.555495,-0.96089 -0.078692,-0.5954 0.2848706,-1.08673 0.3800043,-0.47872 0.9754126,-0.55741 l 18.8787986,-2.49512 q 0.595408,-0.0787 1.072211,0.28679 0.493244,0.37808 0.571937,0.97349 0.07869,0.59541 -0.301312,1.07413 z"
       style="font-style:normal;font-variant:normal;font-weight:normal;font-stretch:normal;font-size:30px;font-family:Instruction;-inkscape-font-specification:Instruction;letter-spacing:24.13999939px"
       id="path4147" />
    <path
       d="m 36.423984,239.90418 q -0.559466,0.21841 -1.128641,-0.0311 -0.550202,-0.24123 -0.768607,-0.8007 -0.218406,-0.55947 0.0175,-1.12331 0.254884,-0.55553 0.81435,-0.77394 1.269033,-0.49541 1.818058,-1.74759 0.549024,-1.25218 0.05362,-2.52122 l -0.799045,-2.04683 q -0.495408,-1.26903 -1.747592,-1.81805 -1.252183,-0.54903 -2.521217,-0.0536 -1.269033,0.49541 -1.818057,1.74759 -0.549025,1.25219 -0.05362,2.52122 l 0.799044,2.04683 q 0.937546,2.40161 -0.1076,4.75952 -1.026174,2.36624 -3.427785,3.30378 -2.401611,0.93755 -4.773172,-0.10227 -2.352588,-1.0315 -3.290133,-3.43311 l -0.799045,-2.04683 q -0.937546,-2.40161 0.08863,-4.76785 1.045146,-2.35791 3.446758,-3.29546 0.559466,-0.2184 1.109668,0.0228 0.569174,0.24955 0.78758,0.80902 0.218405,0.55947 -0.03648,1.11499 -0.235911,0.56385 -0.795378,0.78226 -1.269033,0.4954 -1.818057,1.74759 -0.549025,1.25218 -0.05362,2.52122 l 0.799044,2.04682 q 0.495408,1.26904 1.747592,1.81806 1.252184,0.54903 2.521217,0.0536 1.269033,-0.49541 1.818058,-1.74759 0.549024,-1.25219 0.05362,-2.52122 l -0.799045,-2.04683 q -0.937546,-2.40161 0.08863,-4.76784 1.045146,-2.35792 3.446758,-3.29546 2.401611,-0.93755 4.754199,0.094 2.37156,1.03982 3.309106,3.44143 l 0.799044,2.04683 q 0.937546,2.40161 -0.1076,4.75953 -1.026174,2.36623 -3.427785,3.30377 z"
       style="font-style:normal;font-variant:normal;font-weight:normal;font-stretch:normal;font-size:30px;font-family:Instruction;-inkscape-font-specification:Instruction;letter-spacing:24.13999939px"
       id="path4149" />
    <path
       d="m 54.664901,265.59308 -3.159679,-4.49347 -5.392165,3.79161 3.159679,4.49348 q 0.783601,1.11438 2.130555,1.34912 1.346955,0.23475 2.461335,-0.54885 1.114381,-0.7836 1.349128,-2.13056 0.234748,-1.34695 -0.548853,-2.46133 z m -8.926167,3.85913 -2.022195,-2.87582 -6.590423,4.63419 q -0.491286,0.34546 -1.103538,0.23876 -0.591844,-0.10315 -0.937302,-0.59443 -0.345458,-0.49129 -0.250738,-1.09512 0.11513,-0.60027 0.606416,-0.94572 l 15.577364,-10.95356 q 0.491286,-0.34546 1.08313,-0.24231 0.612252,0.1067 0.95771,0.59799 l 4.002261,5.69173 q 1.482943,2.10893 1.02992,4.648 -0.432615,2.54262 -2.54155,4.02557 -2.108936,1.48294 -4.639577,1.0419 -1.795939,-0.313 -3.059604,-1.44796 l -3.122616,7.29934 q -0.369941,0.97643 -0.861227,1.32188 -0.491286,0.34546 -1.103538,0.23876 -0.591843,-0.10315 -0.937302,-0.59443 -0.345458,-0.49129 -0.250737,-1.09512 0.115129,-0.60027 0.437899,-1.18538 l 3.725647,-8.70827 z"
       style="font-style:normal;font-variant:normal;font-weight:normal;font-stretch:normal;font-size:30px;font-family:Instruction;-inkscape-font-specification:Instruction;letter-spacing:24.13999939px"
       id="path4151" />
    <path
       d="m 71.75022,297.78682 -4.051218,0.41993 -3.986379,4.58958 q -0.393835,0.45343 -1.013784,0.49704 -0.599284,0.0421 -1.052713,-0.35169 -0.453428,-0.39383 -0.506639,-1.00272 -0.03255,-0.61035 0.36129,-1.06377 l 12.487454,-14.377 q 0.393835,-0.45343 0.993119,-0.49558 0.619949,-0.0436 1.073378,0.35023 0.453428,0.39383 0.485974,1.00417 0.05321,0.60889 -0.340625,1.06232 l -5.821075,6.7019 12.792815,-1.32553 q 0.326279,-0.0853 0.677583,-0.10996 0.599284,-0.0421 1.052712,0.35168 0.453429,0.39384 0.485975,1.00418 0.05321,0.60889 -0.340625,1.06232 -0.393835,0.45343 -0.993119,0.49558 -0.433964,0.0305 -0.686304,-0.014 l -8.493617,0.88815 q -0.02825,0.18889 -0.08677,0.3903 l -1.709442,11.12685 q -0.124369,1.03672 -0.518205,1.49015 -0.393835,0.45343 -1.013784,0.49703 -0.599284,0.0422 -1.052712,-0.35168 -0.453429,-0.39383 -0.506639,-1.00272 -0.03255,-0.61035 0.140105,-1.25589 l 1.623243,-10.58084 z"
       style="font-style:normal;font-variant:normal;font-weight:normal;font-stretch:normal;font-size:30px;font-family:Instruction;-inkscape-font-specification:Instruction;letter-spacing:24.13999939px"
       id="path4153" />
    <path
       d="m 97.122017,327.05165 q -0.273512,0.5347 -0.86488,0.7258 -0.571656,0.18474 -1.106348,-0.0888 -0.534691,-0.27351 -0.732469,-0.85184 -0.178065,-0.5847 0.09545,-1.11939 l 8.672324,-16.95363 q 0.27351,-0.53469 0.84517,-0.71942 0.59137,-0.19111 1.12606,0.0824 l 10.433,5.33682 q 0.53469,0.27351 0.71276,0.85821 0.19777,0.57832 -0.0757,1.11301 -0.27351,0.5347 -0.86488,0.7258 -0.57165,0.18474 -1.10634,-0.0888 l -9.12888,-4.66972 -3.00196,5.86857 7.82475,4.00261 q 0.53469,0.27351 0.71276,0.85821 0.19778,0.57832 -0.0757,1.11302 -0.27351,0.53469 -0.86488,0.72579 -0.57165,0.18474 -1.10634,-0.0888 l -7.82475,-4.00261 -3.669063,7.17268 z"
       style="font-style:normal;font-variant:normal;font-weight:normal;font-stretch:normal;font-size:30px;font-family:Instruction;-inkscape-font-specification:Instruction;letter-spacing:24.13999939px"
       id="path4155" />
    <path
       d="m 136.90734,323.44614 q 0.13884,-0.58431 0.65034,-0.89941 0.52914,-0.32596 1.11346,-0.18712 0.58432,0.13883 0.89603,0.66459 0.32934,0.51488 0.19051,1.0992 l -3.04766,12.82649 q -0.4199,1.76721 0.53626,3.31935 0.95615,1.55214 2.72336,1.97204 1.7672,0.4199 3.31934,-0.53626 1.55214,-0.95615 1.97204,-2.72336 l 3.04765,-12.82649 q 0.13884,-0.58432 0.65034,-0.89941 0.52914,-0.32597 1.11346,-0.18713 0.58431,0.13884 0.89602,0.66459 0.32935,0.51489 0.19051,1.09921 l -3.04765,12.82649 q -0.70096,2.95009 -3.29374,4.5473 -2.57514,1.58635 -5.52523,0.88539 -2.95009,-0.70096 -4.55069,-3.27949 -1.58296,-2.58939 -0.882,-5.53948 l 3.04765,-12.8265 z"
       style="font-style:normal;font-variant:normal;font-weight:normal;font-stretch:normal;font-size:30px;font-family:Instruction;-inkscape-font-specification:Instruction;letter-spacing:24.13999939px"
       id="path4157" />
    <path
       d="m 187.72775,329.50329 0.19026,19.04202 q 0.006,0.60055 -0.42904,1.04438 -0.42054,0.42902 -1.02109,0.43502 -0.60056,0.006 -1.04423,-0.41439 -0.42918,-0.43518 -0.43518,-1.03574 l -0.0926,-9.272 -2.83397,9.59422 -0.0293,3e-4 q -0.0691,0.41086 -0.38817,0.73633 -0.43504,0.44383 -1.03559,0.44983 -0.60056,0.006 -1.02973,-0.42919 -0.34012,-0.31888 -0.41746,-0.72829 l -0.0293,2.9e-4 -3.02511,-9.53568 0.0926,9.272 q 0.006,0.60056 -0.42904,1.04438 -0.42054,0.42903 -1.0211,0.43503 -0.60055,0.006 -1.04423,-0.41439 -0.42917,-0.43519 -0.43517,-1.03575 l -0.19026,-19.04202 q -0.006,-0.60055 0.42904,-1.04437 0.42054,-0.42903 1.02109,-0.43503 0.60056,-0.006 1.04423,0.41439 0.3848,0.39168 0.58458,1.32723 l 4.38717,13.90218 4.1085,-13.98706 q 0.37089,-0.99985 0.64583,-1.33953 0.3473,-0.42829 0.94786,-0.4343 0.60055,-0.006 1.02973,0.42919 0.44367,0.42039 0.44967,1.02095 z"
       style="font-style:normal;font-variant:normal;font-weight:normal;font-stretch:normal;font-size:30px;font-family:Instruction;-inkscape-font-specification:Instruction;letter-spacing:24.13999939px"
       id="path4159" />
    <path
       d="m 220.60583,335.49728 -5.31992,1.3687 2.00742,7.80254 q 0.14965,0.58165 -0.16645,1.11674 -0.30556,0.51725 -0.88721,0.66689 -0.58164,0.14965 -1.11308,-0.15226 -0.5209,-0.31975 -0.67055,-0.9014 l -4.74481,-18.44238 q -0.14965,-0.58164 0.15591,-1.09889 0.3161,-0.53509 0.89774,-0.68474 l 6.73857,-1.73368 q 2.49681,-0.64237 4.71216,0.67835 2.22589,1.30289 2.86827,3.7997 0.64237,2.49681 -0.6747,4.72635 -1.30654,2.2117 -3.80335,2.85408 z m -2.37241,-9.22119 -5.31992,1.3687 1.64244,6.3839 5.31992,-1.3687 q 1.31933,-0.33944 2.01475,-1.51663 0.69541,-1.1772 0.35598,-2.49654 -0.33944,-1.31934 -1.51664,-2.01475 -1.17719,-0.69542 -2.49653,-0.35598 z"
       style="font-style:normal;font-variant:normal;font-weight:normal;font-stretch:normal;font-size:30px;font-family:Instruction;-inkscape-font-specification:Instruction;letter-spacing:24.13999939px"
       id="path4161" />
    <path
       d="m 256.97871,323.04028 -0.47236,7.79919 q 0.0256,0.66774 -0.15406,1.26269 -0.17366,0.57512 -0.70297,0.8589 -0.52931,0.28379 -1.11734,0.11705 -0.58204,-0.18657 -0.86582,-0.71588 -0.28379,-0.52931 -0.17577,-1.56786 l 0.56957,-9.44693 -8.18339,-4.75404 q -0.92478,-0.48482 -1.20857,-1.01413 -0.28379,-0.52931 -0.11012,-1.10443 0.17964,-0.59495 0.70895,-0.87874 0.52931,-0.28378 1.11135,-0.0972 0.58803,0.16674 1.13002,0.55761 l 6.75722,3.92307 0.47236,-7.79919 q -0.0256,-0.66775 0.14807,-1.24286 0.17965,-0.59495 0.70896,-0.87874 0.52931,-0.28379 1.11135,-0.0972 0.58803,0.16674 0.87181,0.69605 0.28379,0.52931 0.17577,1.56786 l -0.56957,9.44693 8.18339,4.75404 q 0.92478,0.48483 1.20857,1.01413 0.28379,0.52931 0.10414,1.12426 -0.17366,0.57512 -0.70297,0.85891 -0.52931,0.28379 -1.11734,0.11705 -0.58204,-0.18658 -1.12403,-0.57745 l -6.75722,-3.92306 z"
       style="font-style:normal;font-variant:normal;font-weight:normal;font-stretch:normal;font-size:30px;font-family:Instruction;-inkscape-font-specification:Instruction;letter-spacing:24.13999939px"
       id="path4163" />
    <path
       d="m 293.42058,298.1645 q -0.4022,-0.44602 -0.37121,-1.04599 0.0321,-0.62065 0.47809,-1.02285 0.44602,-0.4022 1.0558,-0.36033 0.61084,0.0212 1.01304,0.46721 2.03063,2.25187 1.87352,5.29307 -0.15605,3.02051 -2.40792,5.05114 -2.25188,2.03064 -5.28326,1.8844 -3.03033,-0.16693 -5.06096,-2.4188 l -4.9049,-5.43931 q -2.03063,-2.25187 -1.87459,-5.27238 0.15712,-3.0412 2.40899,-5.07183 2.25188,-2.03063 5.2822,-1.86371 3.03139,0.14624 5.06202,2.39811 0.4022,0.44602 0.37014,1.06668 -0.031,0.59996 -0.47702,1.00216 -0.44603,0.40221 -1.05687,0.38102 -0.60977,-0.0419 -1.01198,-0.4879 -1.21641,-1.34895 -3.03699,-1.443 -1.82059,-0.0941 -3.16954,1.12236 -1.34894,1.21642 -1.443,3.037 -0.094,1.82058 1.12236,3.16953 l 4.90491,5.43931 q 1.21641,1.34895 3.037,1.443 1.82058,0.0941 3.16953,-1.12236 1.34894,-1.21642 1.443,-3.037 0.0941,-1.82058 -1.12236,-3.16953 z"
       style="font-style:normal;font-variant:normal;font-weight:normal;font-stretch:normal;font-size:30px;font-family:Instruction;-inkscape-font-specification:Instruction;letter-spacing:24.13999939px"
       id="path4165" />
    <path
       d="m 317.05713,275.76126 1.73477,2.14289 q 0.57674,0.74272 0.73612,1.29211 0.15542,0.52906 -0.18057,1.02686 -0.33599,0.49781 -0.93395,0.62441 -0.6019,0.10625 -1.09971,-0.22974 -0.41281,-0.27863 -0.80743,-0.89843 l -11.94154,-14.77558 0.0164,-0.0243 q -0.29899,-0.29017 -0.37763,-0.74971 -0.12659,-0.59796 0.2094,-1.09577 0.336,-0.4978 0.94609,-0.6162 0.44741,-0.0868 0.82835,0.0819 l 0.0164,-0.0243 18.16971,5.54793 q 0.72242,0.13414 1.13523,0.41277 0.49781,0.33599 0.61621,0.94609 0.11445,0.58976 -0.22154,1.08756 -0.33599,0.49781 -0.89297,0.5637 -0.56093,0.0455 -1.46547,-0.21151 l -2.63622,-0.8073 -3.85163,5.70656 z m 0.92341,-6.60492 -8.37094,-2.57487 5.51909,6.80016 2.85185,-4.22529 z"
       style="letter-spacing:24.14999962px"
       id="path4167" />
    <path
       d="m 331.56536,236.21343 -0.57378,0.11599 -9.27817,1.86663 q -1.01375,0.25018 -1.57713,0.0421 -0.56338,-0.20809 -0.81468,-0.75378 -0.25996,-0.56449 -0.0519,-1.12787 0.2081,-0.56339 0.76752,-0.80961 0.55076,-0.26504 1.21565,-0.33176 l 7.65958,-1.54316 -4.81725,-6.1518 q -0.46187,-0.48292 -0.71317,-1.0286 -0.25996,-0.5645 -0.0519,-1.12788 0.2081,-0.56338 0.76753,-0.8096 0.55075,-0.26504 1.11413,-0.0569 0.56338,0.2081 1.17108,1.0572 l 5.83693,7.44977 0.36061,0.46113 8.46446,3.12656 q 0.56338,0.2081 0.82334,0.77259 0.2513,0.54569 0.0432,1.10907 -0.2081,0.56338 -0.75886,0.82842 -0.55942,0.24622 -1.1228,0.0381 l -8.46446,-3.12656 z"
       style="font-style:normal;font-variant:normal;font-weight:normal;font-stretch:normal;font-size:30px;font-family:Instruction;-inkscape-font-specification:Instruction;letter-spacing:24.13999939px"
       id="path4169" />
    <path
       d="m 351.99766,196.97408 -0.77653,6.91454 q -0.067,0.59684 -0.53822,0.98613 -0.48412,0.37311 -1.08095,0.30608 l -18.92401,-2.12525 q -0.59683,-0.067 -0.97158,-0.53658 -0.38766,-0.48576 -0.32063,-1.08259 l 0.77653,-6.91454 q 0.28773,-2.56202 2.31006,-4.16273 2.00941,-1.6169 4.57143,-1.32917 2.56202,0.28772 4.16436,2.2955 0.16799,0.21049 0.31978,0.43391 0.19758,-0.18418 0.39351,-0.3538 2.02233,-1.60071 4.58435,-1.31299 2.56202,0.28773 4.17729,2.3117 1.60234,2.00777 1.31461,4.56979 z m -18.924,-2.12525 -0.61306,5.45885 6.55062,0.73566 0.61305,-5.45885 q 0.15204,-1.35379 -0.70082,-2.42244 -0.85286,-1.06866 -2.20665,-1.2207 -1.3538,-0.15203 -2.42245,0.70083 -1.06866,0.85286 -1.22069,2.20665 z m 9.462,1.06263 -0.61305,5.45884 6.55061,0.73567 0.61306,-5.45885 q 0.15203,-1.35379 -0.70083,-2.42245 -0.85286,-1.06865 -2.20665,-1.22069 -1.35379,-0.15204 -2.42245,0.70082 -1.06865,0.85286 -1.22069,2.20666 z"
       style="font-style:normal;font-variant:normal;font-weight:normal;font-stretch:normal;font-size:30px;font-family:Instruction;-inkscape-font-specification:Instruction;letter-spacing:24.13999939px"
       id="path4171" />
    <path
       d="m 344.8532,153.00894 q -0.41621,-0.019 -0.86642,0.0404 l -7.26138,0.95732 q -1.80083,0.23741 -2.91034,1.68391 -1.10952,1.44649 -0.8721,3.24731 0.23741,1.80083 1.6839,2.91034 1.44649,1.10952 3.24732,0.8721 l 7.26138,-0.95732 q 1.80083,-0.23741 2.91034,-1.6839 1.10952,-1.44649 0.8721,-3.24732 -0.18763,-1.42323 -1.1319,-2.42166 l -2.57537,2.31941 q -0.78026,0.69387 -1.3757,0.77237 -0.59543,0.0785 -1.07211,-0.28713 -0.49313,-0.37825 -0.57163,-0.97368 -0.0785,-0.59543 0.30166,-1.07403 0.36372,-0.49121 0.92086,-0.86017 l 1.43939,-1.2979 z m 5.12925,-0.54325 q 1.53185,1.64495 1.84011,3.98311 0.39633,3.00622 -1.44254,5.4206 -1.85532,2.40178 -4.86153,2.79811 l -7.26138,0.95732 q -3.00622,0.39633 -5.40608,-1.44446 -2.4163,-1.8534 -2.81263,-4.85961 -0.39633,-3.00621 1.45898,-5.40799 1.83888,-2.41439 4.84509,-2.81071 l 7.26138,-0.95732 q 2.07676,-0.2738 3.86638,0.52453 l 0.56704,-0.51801 q 0.78026,-0.69388 1.37569,-0.77238 0.59544,-0.0785 1.08856,0.29975 0.47668,0.36563 0.55518,0.96107 0.0785,0.59543 -0.30165,1.07403 -0.31329,0.42546 -0.7726,0.75196 z"
       style="font-style:normal;font-variant:normal;font-weight:normal;font-stretch:normal;font-size:30px;font-family:Instruction;-inkscape-font-specification:Instruction;letter-spacing:24.13999939px"
       id="path4173" />
    <path
       d="m 337.77545,109.76296 q 0.55954,-0.21822 1.12863,0.0315 0.55013,0.24141 0.76836,0.80095 0.21822,0.55953 -0.0368,1.11498 -0.23609,0.56377 -0.78198,0.77668 2.03769,1.23355 2.94785,3.56723 1.10178,2.82497 -0.10829,5.60821 -1.22905,2.77492 -4.05402,3.8767 l -6.82362,2.66129 q -2.82497,1.10178 -5.59456,-0.11362 -2.78857,-1.22372 -3.89034,-4.04869 -1.10178,-2.82498 0.12726,-5.59989 1.21008,-2.78325 4.03505,-3.88502 0.55954,-0.21823 1.12863,0.0315 0.55013,0.24142 0.76835,0.80095 0.21823,0.55954 -0.0179,1.12331 -0.25506,0.55545 -0.8146,0.77367 -1.69226,0.66 -2.42482,2.32935 -0.73257,1.66934 -0.0726,3.3616 0.66,1.69225 2.32935,2.42482 1.66934,0.73257 3.3616,0.0726 l 6.82361,-2.6613 q 1.69225,-0.66 2.42482,-2.32934 0.73257,-1.66935 0.0726,-3.3616 -0.66,-1.69226 -2.32935,-2.42483 -1.66934,-0.73256 -3.3616,-0.0726 l -0.68236,0.26613 1.86291,4.77652 q 0.21822,0.55954 -0.0179,1.12331 -0.25506,0.55545 -0.81459,0.77368 -0.55954,0.21822 -1.10967,-0.0232 -0.56909,-0.24974 -0.78732,-0.80928 l -2.39516,-6.14125 q -0.21823,-0.55953 0.0368,-1.11498 0.23609,-0.56377 0.79563,-0.782 l 7.50597,-2.92743 z"
       style="font-style:normal;font-variant:normal;font-weight:normal;font-stretch:normal;font-size:30px;font-family:Instruction;-inkscape-font-specification:Instruction;letter-spacing:24.13999939px"
       id="path4175" />
    <path
       d="m 322.44927,79.208093 q 0.3453,0.491398 0.22998,1.09163 -0.07,0.460945 -0.36345,0.756686 l 0.0168,0.02397 -11.66143,14.997633 q -0.38289,0.627116 -0.79039,0.913462 -0.49139,0.3453 -1.0832,0.241963 -0.61222,-0.1069 -0.95752,-0.598298 -0.3453,-0.491397 -0.18787,-1.031703 0.13703,-0.543869 0.69969,-1.297314 l 8.96764,-11.493435 -13.85237,4.541959 q -0.89954,0.274033 -1.44924,0.230623 -0.57011,-0.04697 -0.91541,-0.538372 -0.3453,-0.491397 -0.22998,-1.091629 0.0949,-0.603796 0.58631,-0.949096 0.4075,-0.286346 1.12727,-0.43405 l 18.06211,-5.888804 0.0168,0.02397 q 0.3777,-0.175888 0.82666,-0.09749 0.61221,0.1069 0.95751,0.598297 z"
       style="font-style:normal;font-variant:normal;font-weight:normal;font-stretch:normal;font-size:30px;font-family:Instruction;-inkscape-font-specification:Instruction;letter-spacing:24.13999939px"
       id="path4177" />
    <path
       d="m 288.50087,46.430614 q -0.4533,-0.393982 -0.48565,-1.004336 -0.053,-0.608907 0.34097,-1.062207 0.39398,-0.453301 1.01394,-0.496704 0.5993,-0.04196 1.0526,0.352025 l 8.84489,7.687462 q 0.4533,0.393982 0.50631,1.002889 0.0324,0.610354 -0.36163,1.063654 L 286.92017,68.34634 q -0.39398,0.4533 -0.99328,0.495257 -0.61996,0.0434 -1.07326,-0.350579 l -8.84489,-7.687461 q -0.4533,-0.393982 -0.48565,-1.004336 -0.053,-0.608907 0.34097,-1.062208 0.39399,-0.4533 1.01395,-0.496704 0.5993,-0.04196 1.0526,0.352026 l 7.73927,6.726529 4.3242,-4.97525 -6.63367,-5.765596 q -0.4533,-0.393982 -0.48564,-1.004336 -0.053,-0.608907 0.34097,-1.062207 0.39398,-0.453301 1.01394,-0.496704 0.5993,-0.04196 1.0526,0.352025 l 6.63367,5.765596 4.32419,-4.975249 -7.73927,-6.726529 z"
       style="font-style:normal;font-variant:normal;font-weight:normal;font-stretch:normal;font-size:30px;font-family:Instruction;-inkscape-font-specification:Instruction;letter-spacing:24.13999939px"
       id="path4179" />
    <path
       d="m 255.54227,34.271272 5.64945,-7.820948 q 0.27369,-0.534604 0.86512,-0.725522 0.57171,-0.184554 1.10631,0.08913 0.53461,0.273682 0.7322,0.852072 0.17788,0.584754 -0.0958,1.119358 l -5.92818,17.848304 q -0.0283,0.215923 -0.14174,0.437588 -0.27368,0.534604 -0.8454,0.719158 -0.59143,0.190918 -1.12603,-0.08276 -0.5346,-0.273683 -0.71248,-0.858437 -0.1976,-0.57839 0.0761,-1.112994 l 3.03496,-9.142946 -5.64279,7.807909 q -0.27368,0.534604 -0.84539,0.719158 -0.59143,0.190918 -1.12604,-0.08276 -0.5346,-0.273683 -0.71248,-0.858437 -0.19759,-0.57839 0.0761,-1.112994 l 3.03496,-9.142946 -5.64278,7.807909 q -0.27369,0.534604 -0.8454,0.719158 -0.59143,0.190918 -1.12603,-0.08276 -0.53461,-0.273683 -0.71249,-0.858437 -0.19759,-0.57839 0.0761,-1.112994 0.11348,-0.221665 0.27213,-0.370837 L 255.97608,23.78025 q 0.27368,-0.534604 0.86511,-0.725522 0.57171,-0.184554 1.10632,0.08913 0.5346,0.273683 0.73219,0.852073 0.17788,0.584753 -0.0958,1.119357 l -3.04163,9.155985 z"
       style="font-style:normal;font-variant:normal;font-weight:normal;font-stretch:normal;font-size:30px;font-family:Instruction;-inkscape-font-specification:Instruction;letter-spacing:24.13999939px"
       id="path4181" />
    <path
       d="m 212.81415,15.161761 q 0.70192,-2.949867 3.29521,-4.546239 2.57565,-1.5855122 5.52552,-0.883598 2.94987,0.701914 4.54963,3.280958 1.58212,2.589902 0.88021,5.539769 l -1.69545,7.125282 q -0.70191,2.949867 -3.27756,4.53538 -2.5933,1.596372 -5.54317,0.894458 -2.94986,-0.701915 -4.53198,-3.291818 -1.59977,-2.579043 -0.89785,-5.52891 l 1.69544,-7.125282 z m 11.40045,2.712712 q 0.42047,-1.76707 -0.53518,-3.319518 -0.95565,-1.552448 -2.72272,-1.972918 -1.76707,-0.42047 -3.31952,0.535181 -1.55244,0.955651 -1.97291,2.722721 l -1.69545,7.125282 q -0.42047,1.76707 0.53518,3.319518 0.95565,1.552448 2.72272,1.972919 1.76707,0.42047 3.31952,-0.535181 1.55245,-0.955652 1.97292,-2.722722 l 1.69544,-7.125282 z"
       style="font-style:normal;font-variant:normal;font-weight:normal;font-stretch:normal;font-size:30px;font-family:Instruction;-inkscape-font-specification:Instruction;letter-spacing:24.13999939px"
       id="path4183" />
    <path
       d="m 187.7148,11.979955 q 0.006,0.600558 -0.41487,1.029449 -0.43519,0.443681 -1.03574,0.449487 -0.60056,0.0058 -1.0296,-0.429521 -0.44353,-0.420536 -0.44934,-1.021094 -0.0176,-1.816321 -1.31902,-3.0928625 -1.30147,-1.276541 -3.11779,-1.2589819 -1.81632,0.017559 -3.09286,1.3190226 -1.27654,1.3014638 -1.25898,3.1177848 l 0.12744,13.182978 q 0.006,0.600558 -0.41487,1.029449 -0.43518,0.443681 -1.03574,0.449487 -0.60056,0.0058 -1.02959,-0.429521 -0.44354,-0.420536 -0.44935,-1.021094 L 173.06705,12.12156 q -0.0293,-3.0320847 2.10309,-5.2061204 2.1179,-2.1592463 5.14998,-2.1885586 3.03209,-0.029312 5.20598,2.0884437 2.15939,2.1325453 2.1887,5.1646303 z"
       style="font-style:normal;font-variant:normal;font-weight:normal;font-stretch:normal;font-size:30px;font-family:Instruction;-inkscape-font-specification:Instruction;letter-spacing:24.13999939px"
       id="path4185" />
    <path
       d="m 142.33322,28.613013 -4.37437,-17.02514 q -0.14946,-0.581692 0.16681,-1.11668 0.30573,-0.5171547 0.88742,-0.6666123 0.58169,-0.1494576 1.11303,0.1526241 0.5208,0.3199142 0.67026,0.9016072 l 4.37437,17.025139 4.25628,-1.093592 q 0.5817,-0.149457 1.11304,0.152625 0.5208,0.319914 0.67026,0.901606 0.14945,0.581693 -0.15627,1.098847 -0.31627,0.534988 -0.89796,0.684446 l -11.3501,2.916245 q -0.58169,0.149458 -1.10249,-0.170457 -0.53134,-0.302082 -0.6808,-0.883774 -0.14946,-0.581692 0.16681,-1.11668 0.30573,-0.517155 0.88742,-0.666612 l 4.25629,-1.093592 z"
       style="font-style:normal;font-variant:normal;font-weight:normal;font-stretch:normal;font-size:30px;font-family:Instruction;-inkscape-font-specification:Instruction;letter-spacing:24.13999939px"
       id="path4187" />
    <path
       d="m 113.6674,40.593763 -8.30102,-15.494632 -9.038536,4.84226 q -0.5294,0.283618 -1.111379,0.09686 -0.587973,-0.166928 -0.871591,-0.696328 -0.283618,-0.5294 -0.103778,-1.124291 0.173846,-0.575062 0.703246,-0.85868 l 10.329758,-5.53401 q 0.5294,-0.283619 1.11737,-0.11669 0.58198,0.186758 0.8656,0.716157 l 8.99276,16.785851 q 0.28362,0.5294 0.10978,1.104462 -0.17984,0.594891 -0.70924,0.878509 -0.5294,0.283618 -1.11138,0.09686 -0.58798,-0.166928 -0.87159,-0.696328 z"
       style="font-style:normal;font-variant:normal;font-weight:normal;font-stretch:normal;font-size:30px;font-family:Instruction;-inkscape-font-specification:Instruction;letter-spacing:24.13999939px"
       id="path4189" />
    <path
       d="m 68.902431,49.42228 10.786914,11.969975 3.264538,-2.941885 q 0.446154,-0.402058 1.05699,-0.380674 0.609761,0.04207 1.011819,0.488225 0.402057,0.446153 0.370867,1.046108 -0.03226,0.620642 -0.478418,1.0227 l -8.705437,7.845028 q -0.446154,0.402058 -1.055915,0.359986 -0.610836,-0.02138 -1.012894,-0.467537 -0.402057,-0.446153 -0.369792,-1.066796 0.03119,-0.599954 0.477344,-1.002012 l 3.264538,-2.941886 -10.786914,-11.969975 -3.264538,2.941885 q -0.446154,0.402058 -1.055915,0.359986 -0.610836,-0.02138 -1.012894,-0.467537 -0.402057,-0.446153 -0.369792,-1.066796 0.03119,-0.599954 0.477343,-1.002012 l 8.705437,-7.845028 q 0.446154,-0.402058 1.05699,-0.380674 0.609761,0.04207 1.011818,0.488225 0.402058,0.446153 0.370868,1.046108 -0.03226,0.620642 -0.478419,1.0227 l -3.264538,2.941886 z"
       style="font-style:normal;font-variant:normal;font-weight:normal;font-stretch:normal;font-size:30px;font-family:Instruction;-inkscape-font-specification:Instruction;letter-spacing:24.13999939px"
       id="path4191" />
    <path
       d="m 43.710045,88.368843 4.919336,-7.283389 -6.676439,-4.509392 q -0.497699,-0.336154 -0.615901,-0.946291 -0.114263,-0.589798 0.221892,-1.087496 0.336155,-0.497698 0.934152,-0.6241 0.601937,-0.106063 1.099635,0.230091 l 15.780676,10.658562 q 0.497698,0.336155 0.61196,0.925954 0.118203,0.610136 -0.217952,1.107834 -0.336154,0.497698 -0.938092,0.603762 -0.597997,0.126401 -1.095695,-0.209753 l -6.67644,-4.509392 -4.919336,7.283388 6.676439,4.509392 q 0.497699,0.336155 0.611961,0.925953 0.118203,0.610136 -0.217952,1.107835 -0.336155,0.497698 -0.938092,0.603762 -0.597997,0.126401 -1.095696,-0.209754 L 35.393826,86.287247 q -0.497698,-0.336155 -0.6159,-0.946291 -0.114263,-0.589798 0.221892,-1.087496 0.336154,-0.497699 0.934152,-0.6241 0.601937,-0.106064 1.099635,0.230091 l 6.67644,4.509392 z"
       style="font-style:normal;font-variant:normal;font-weight:normal;font-stretch:normal;font-size:30px;font-family:Instruction;-inkscape-font-specification:Instruction;letter-spacing:24.13999939px"
       id="path4193" />
  </g>
</svg>
