<?xml version="1.0" encoding="UTF-8" standalone="no"?>
<svg
   xmlns:dc="http://purl.org/dc/elements/1.1/"
   xmlns:cc="http://creativecommons.org/ns#"
   xmlns:rdf="http://www.w3.org/1999/02/22-rdf-syntax-ns#"
   xmlns:svg="http://www.w3.org/2000/svg"
   xmlns="http://www.w3.org/2000/svg"
   xmlns:sodipodi="http://sodipodi.sourceforge.net/DTD/sodipodi-0.dtd"
   xmlns:inkscape="http://www.inkscape.org/namespaces/inkscape"
   viewBox="0.0011 -3.49551 360.89851 361.79085"
   version="1.0"
   overflow="visible"
   id="svg2"
   inkscape:version="0.91 r13725"
   sodipodi:docname="2-spoke.svg"
   width="4.0099835in"
   height="4.0198984in"
   style="overflow:visible">
  <metadata
     id="metadata18">
    <rdf:RDF>
      <cc:Work
         rdf:about="">
        <dc:format>image/svg+xml</dc:format>
        <dc:type
           rdf:resource="http://purl.org/dc/dcmitype/StillImage" />
        <dc:title />
      </cc:Work>
    </rdf:RDF>
  </metadata>
  <sodipodi:namedview
     pagecolor="#ffffff"
     bordercolor="#666666"
     borderopacity="1"
     objecttolerance="10"
     gridtolerance="10"
     guidetolerance="10"
     inkscape:pageopacity="0"
     inkscape:pageshadow="2"
     inkscape:window-width="1680"
     inkscape:window-height="997"
     id="namedview16"
     showgrid="false"
     inkscape:document-units="in"
     units="in"
     fit-margin-top="0"
     fit-margin-left="0"
     fit-margin-right="0"
     fit-margin-bottom="0"
     inkscape:zoom="4.2274148"
     inkscape:cx="296.85908"
     inkscape:cy="272.5423"
     inkscape:window-x="-8"
     inkscape:window-y="-8"
     inkscape:window-maximized="1"
     inkscape:current-layer="svg2" />
  <defs
     id="defs4" />
  <g
     id="g4163"
     transform="matrix(0.99999244,-0.00388849,0.00388849,0.99999244,-0.68845431,0.70302129)">
    <g
       style="fill:none;fill-opacity:1;stroke:#000000;stroke-width:0.01107225;stroke-miterlimit:4;stroke-dasharray:none;stroke-opacity:1"
       transform="matrix(101.96008,13.097751,13.097751,-101.96008,-21.413045,333.39635)"
       id="draft">
      <g
         style="color:#000000;fill:none;fill-opacity:1;stroke:#000000;stroke-width:0.01107225;stroke-miterlimit:4;stroke-dasharray:none;stroke-opacity:1"
         id="ID_0">
        <path
           inkscape:connector-curvature="0"
           id="path8"
           d="m 1.4812622,3.4888426 -0.00652,-0.020516 -0.00588,-0.020472 -0.00519,-0.020403 -0.00453,-0.020319 -0.00379,-0.020243 -0.00302,-0.020124 -0.00219,-0.01998 -0.00127,-0.019842 -2.335e-4,-0.00984 4.76e-5,-0.00979 1.654e-4,-0.00487 2.574e-4,-0.00484 3.707e-4,-0.00483 5.194e-4,-0.00479 -0.1383982,-0.034117 -0.00177,0.00448 -0.00192,0.00446 -0.00205,0.00442 -0.0021,0.00438 -0.00451,0.00869 -0.00477,0.0086 -0.010339,0.016968 -0.011245,0.016698 -0.012014,0.016407 -0.012767,0.016138 -0.013446,0.015897 -0.014088,0.015661 -0.014725,0.015387 -0.015307,0.01514 -0.1161931,-0.04407 -0.00142,-0.021493 -8.014e-4,-0.02126 -1.74e-4,-0.021064 4.678e-4,-0.020828 0.00116,-0.020547 0.00189,-0.020261 0.00266,-0.019932 0.00349,-0.019557 0.00214,-0.00961 0.00241,-0.00948 0.00131,-0.00471 0.0014,-0.00464 0.00151,-0.00459 0.00166,-0.00455 -0.1262077,-0.066245 -0.00281,0.00394 -0.002914,0.00385 -0.003024,0.00382 -0.003112,0.00375 -0.006457,0.00737 -0.006704,0.0072 -0.0140869,0.01401 -0.0149048,0.013502 -0.0156166,0.013065 -0.0162504,0.012619 -0.0168514,0.012215 -0.0174334,0.011814 -0.01798,0.011437 -0.0184841,0.011026 -0.10226674,-0.07058 0.003762,-0.021211 0.004311,-0.020853 0.004879,-0.020492 0.005442,-0.020093 0.00604,-0.019671 0.006674,-0.019224 0.007338,-0.018717 0.008092,-0.018159 0.004359,-0.00883 0.004604,-0.00864 0.002405,-0.00422 0.002494,-0.00417 0.002562,-0.00411 0.002685,-0.00401 -0.10669884,-0.094514 -0.003648,0.00314 -0.003771,0.00305 -0.003836,0.00296 -0.003905,0.0029 -0.008035,0.00561 -0.008238,0.00539 -0.0170383,0.010233 -0.0176996,0.00955 -0.0182739,0.00894 -0.0188127,0.00835 -0.0192833,0.00783 -0.019754,0.00731 -0.0201868,0.0068 -0.0205819,0.00628 -0.082414,-0.093007 0.008731,-0.01969 0.009171,-0.01923 0.009622,-0.018711 0.0101143,-0.018207 0.0105636,-0.017669 0.0110812,-0.017065 0.0116128,-0.016421 0.0122078,-0.015672 0.006344,-0.00754 0.006541,-0.00728 0.003354,-0.00354 0.003401,-0.00346 0.003465,-0.00336 0.003587,-0.00326 -0.0809827,-0.1173015 -0.004292,0.00217 -0.004393,0.00207 -0.004438,0.00196 -0.004503,0.00188 -0.009129,0.00351 -0.009291,0.00328 -0.0189884,0.00584 -0.0194628,0.00504 -0.0198854,0.0043 -0.02028,0.00363 -0.020599,0.00298 -0.0209228,0.00236 -0.0212113,0.00177 -0.0215211,0.00119 -0.0577449,-0.110035 0.0131879,-0.017025 0.013519,-0.016464 0.0138288,-0.015886 0.0141526,-0.015269 0.0144905,-0.014611 0.0148424,-0.013913 0.0152083,-0.013175 0.015614,-0.012297 0.007944,-0.0058 0.008099,-0.00551 0.004102,-0.00264 0.004128,-0.00254 0.004191,-0.00244 0.00425,-0.0023 -0.050554,-0.1332825 -0.00469,0.00109 -0.004751,9.639e-4 -0.004793,8.435e-4 -0.004816,7.252e-4 -0.009702,0.00125 -0.009798,9.492e-4 -0.0198439,0.00114 -0.0201101,2.197e-4 -0.0203341,-5.771e-4 -0.0205441,-0.00133 -0.0207236,-0.00203 -0.0208842,-0.00272 -0.02103323,-0.00335 -0.02116092,-0.004 -0.02973429,-0.1206439 0.01688602,-0.013382 0.0170539,-0.012746 0.01722179,-0.01211 0.01740373,-0.011434 0.0175808,-0.01072 0.0177341,-0.00997 0.0179156,-0.00914 0.0180848,-0.00822 0.009115,-0.00371 0.009173,-0.00341 0.004618,-0.00158 0.004625,-0.00148 0.004648,-0.00136 0.004669,-0.00122 -0.0171852,-0.1415134 -0.004811,-6.13e-5 -0.004848,-2.197e-4 -0.004855,-3.165e-4 -0.00484,-4.298e-4 -0.009722,-0.00113 -0.009745,-0.00141 -0.0195347,-0.00366 -0.0195882,-0.00459 -0.01959483,-0.00544 -0.01963241,-0.00619 -0.01963222,-0.00694 -0.01963931,-0.00763 -0.01961106,-0.0083 -0.0195852227,-0.00895 9.82242e-6,-0.124272 0.0195800303,-0.00895 0.01961085,-0.00829 0.01964169,-0.00763 0.019611,-0.00695 0.01964858,-0.00619 0.01959175,-0.00545 0.0195935,-0.00457 0.0195336,-0.00365 0.009745,-0.00144 0.009723,-0.00111 0.004836,-4.347e-4 0.00486,-3.164e-4 0.004847,-2.221e-4 0.004809,-7.34e-5 0.0171782,-0.1414957 -0.004663,-0.00121 -0.004644,-0.00136 -0.004629,-0.00148 -0.004617,-0.00157 -0.00916,-0.00342 -0.009123,-0.00371 -0.0180855,-0.00822 -0.0179289,-0.00914 -0.0177253,-0.00998 L 0.10521761,1.4456341 0.0878327,1.4342046 0.07059178,1.4221025 0.05353023,1.4093514 0.03666447,1.3959728 0.06638901,1.2753259 l 0.02117164,-0.004 0.02103249,-0.00337 0.020872,-0.00271 0.020728,-0.00204 0.020539,-0.00132 0.0203499,-5.92e-4 0.0200896,2.385e-4 0.0198598,0.00113 0.009803,9.521e-4 0.009689,0.00124 0.004821,7.344e-4 0.004787,8.453e-4 0.004754,9.563e-4 0.004699,0.00108 0.0505453,-0.1332737 -0.004234,-0.00231 -0.004198,-0.00244 -0.004146,-0.00255 -0.00408,-0.00262 -0.008104,-0.00551 -0.007954,-0.00578 -0.0155986,-0.012333 -0.0152061,-0.013146 -0.0148562,-0.013927 -0.0144807,-0.014608 -0.0141668,-0.015259 -0.0138363,-0.015888 -0.0135131,-0.016461 -0.0131711,-0.0170317 0.0577337,-0.11002215 0.0215224,0.00119 0.0212017,0.001744 0.0209279,0.002381 0.0206212,0.002975 0.0202505,0.003619 0.0198915,0.004322 0.0194734,0.005036 0.0189864,0.005837 0.009295,0.003267 0.009126,0.003534 0.004503,0.001865 0.004431,0.001971 0.004381,0.00206 0.004308,0.002185 0.0809785,-0.11730734 -0.003574,-0.003262 -0.003484,-0.003366 -0.003396,-0.003451 -0.003347,-0.00354 -0.006532,-0.00729 -0.006368,-0.007518 -0.0121907,-0.0156963 -0.0116191,-0.01641 -0.0110736,-0.0170695 -0.0105756,-0.0176582 -0.0101013,-0.0182117 -0.009632,-0.0187274 -0.009165,-0.0192241 -0.008741,-0.019688 0.0824074,-0.0930102 0.0205981,0.006294 0.0201689,0.006795 0.0197585,0.007299 0.019308,0.007818 0.0187935,0.008385 0.0182815,0.008934 0.0177031,0.009551 0.0170419,0.0102143 0.008234,0.005397 0.008014,0.005618 0.003909,0.002902 0.003863,0.002954 0.003754,0.003055 0.003664,0.003159 L 0.772611,0.53972531 0.76992,0.53571231 0.767338,0.53159831 0.76486,0.52742131 0.762446,0.52319431 0.757856,0.51454131 0.753498,0.50572631 0.745404,0.48758051 0.738056,0.46885861 0.731388,0.44962881 0.725333,0.42995941 0.719891,0.40985041 0.715034,0.38937501 0.710726,0.36850931 0.706941,0.34730771 0.8092184,0.27672061 0.82771,0.28775471 l 0.0179612,0.0114267 0.0174308,0.0118193 0.0168602,0.012226 0.0162519,0.0126277 0.0156221,0.0130461 0.0148907,0.0135089 0.0140978,0.0140022 0.006714,0.007217 0.006447,0.007356 0.003107,0.003759 0.003024,0.003806 0.002923,0.00385 0.002797,0.00393 0.1262147,-0.0662258 -0.00166,-0.004552 -0.0015,-0.00459 -0.00142,-0.004655 -0.00132,-0.004681 -0.00239,-0.009484 -0.00212,-0.009623 -0.00352,-0.0195545 -0.00266,-0.0199436 -0.00187,-0.0202645 -0.00116,-0.0205385 -4.748e-4,-0.0208148 1.71e-4,-0.0210582 7.952e-4,-0.0212852 0.00144,-0.0214909 0.1161861,-0.04405322 0.015296,0.01513523 0.014726,0.0153884 0.014097,0.0156531 0.013451,0.0158966 0.012765,0.0161541 0.012023,0.0164043 0.011238,0.0166874 0.010339,0.016956 0.00477,0.008618 0.00451,0.008681 0.00212,0.0044 0.00203,0.004407 0.00192,0.004452 0.00177,0.004489 0.1383897,-0.0341166 -5.175e-4,-0.004789 -3.591e-4,-0.004827 -2.599e-4,-0.004852 -1.604e-4,-0.004878 -6.83e-5,-0.009781 2.485e-4,-0.009855 0.00126,-0.019824 0.0022,-0.0199908 0.00303,-0.0201156 0.00379,-0.0202287 0.00451,-0.02032777 0.00521,-0.02041043 0.00587,-0.02046022 0.00652,-0.02053111 0.123376,-0.01498429 0.011232,0.01837608 0.010606,0.01846855 0.00994,0.01855595 0.00924,0.01865748 0.00854,0.01874023 0.00776,0.01881307 0.00692,0.0188787 0.00596,0.0189463 0.0026,0.009511 0.00227,0.009507 0.00102,0.004777 9.048e-4,0.004762 8.058e-4,0.004788 6.544e-4,0.004769 0.1425297,1.294e-5 6.541e-4,-0.004793 7.862e-4,-0.004775 9.209e-4,-0.004777 9.964e-4,-0.004768 0.00228,-0.009499 0.0026,-0.009514 0.00597,-0.0189506 0.00692,-0.0188859 0.00775,-0.01879804 0.00853,-0.01875522 0.00925,-0.01864419 0.00993,-0.01855682 0.010609,-0.01846949 0.011251,-0.0183869 0.1233448,0.01500008 0.00652,0.0205165 0.00589,0.02047426 0.00519,0.02040333 0.00451,0.02031609 0.00381,0.0202451 0.00302,0.0201055 0.00219,0.0199987 0.00126,0.0198207 2.499e-4,0.009862 -6.64e-5,0.009783 -1.629e-4,0.004856 -2.41e-4,0.004865 -3.896e-4,0.004826 -5.006e-4,0.004793 0.1383983,0.0341167 0.00177,-0.004496 0.00192,-0.004458 0.00202,-0.004405 0.00212,-0.004393 0.00449,-0.008677 0.00479,-0.008619 0.010339,-0.0169682 0.011224,-0.0166818 0.012033,-0.016405 0.012769,-0.0161569 0.013444,-0.0158783 0.014088,-0.0156611 0.014725,-0.0153873 0.015307,-0.01513977 0.1161955,0.04405092 0.00141,0.0214911 8.18e-4,0.0212813 1.739e-4,0.0210641 -4.653e-4,0.0208093 -0.00118,0.0205446 -0.00187,0.0202636 -0.00266,0.0199514 -0.00351,0.0195542 -0.00212,0.009615 -0.00241,0.009482 -0.00131,0.004689 -0.00142,0.004655 -0.00151,0.004586 -0.00164,0.004551 0.1262077,0.0662445 0.00281,-0.00394 0.00292,-0.003868 0.00302,-0.003797 0.00311,-0.003747 0.00644,-0.007371 0.00673,-0.007219 0.014084,-0.0139912 0.014907,-0.0135209 0.015595,-0.0130484 0.016269,-0.0126162 0.016851,-0.0122151 0.017436,-0.0118329 0.017978,-0.0114178 0.018487,-0.0110451 0.1022643,0.0705986 -0.00376,0.0211925 -0.00431,0.0208717 -0.00488,0.0204729 -0.00544,0.0201121 -0.00604,0.0196707 -0.00667,0.0192245 -0.00734,0.0187168 -0.00809,0.0181403 -0.00438,0.008826 -0.0046,0.008643 -0.00241,0.004241 -0.00248,0.004175 -0.00256,0.004106 -0.00269,0.004013 0.10668,0.0945116 0.00367,-0.003138 0.00375,-0.003051 0.00386,-0.002979 0.0039,-0.002897 0.00802,-0.005613 0.00824,-0.005393 0.017036,-0.010214 0.017718,-0.00955 0.018274,-0.008941 0.018796,-0.008375 0.019302,-0.00783 0.019752,-0.007292 0.020187,-0.006795 0.020582,-0.006283 0.082414,0.0930069 -0.00873,0.0196899 -0.00919,0.0192089 -0.00962,0.0187303 -0.010096,0.018209 -0.010564,0.017669 -0.0111,0.0170625 -0.011594,0.0164231 -0.012208,0.0156722 -0.00634,0.007537 -0.00654,0.007281 -0.00334,0.003546 -0.00342,0.003458 -0.00348,0.003354 -0.00357,0.003247 0.080961,0.11731793 0.00431,-0.002191 0.00439,-0.002047 0.00444,-0.001964 0.0045,-0.001879 0.00913,-0.003512 0.00929,-0.00328 0.018988,-0.005835 0.019463,-0.005045 0.019888,-0.004318 0.020259,-0.003618 0.020599,-0.002979 0.020942,-0.002359 0.021211,-0.001768 0.021502,-0.001193 0.057745,0.11003504 -0.013188,0.0170247 -0.0135,0.016466 -0.013829,0.015886 -0.014169,0.015248 -0.014493,0.01463 -0.014842,0.013913 -0.015206,0.013156 -0.015598,0.012319 -0.00796,0.00579 -0.00808,0.00551 -0.0041,0.00264 -0.00415,0.00254 -0.00417,0.00244 -0.00425,0.0023 0.050554,0.1332826 0.00469,-0.00109 0.00475,-9.64e-4 0.00479,-8.434e-4 0.0048,-7.277e-4 0.00972,-0.00125 0.0098,-9.492e-4 0.019844,-0.00114 0.020112,-2.385e-4 0.020332,5.96e-4 0.020546,0.00131 0.020721,0.00205 0.020887,0.0027 0.021012,0.00337 0.021163,0.00399 0.029751,0.1206652 -0.016886,0.013382 -0.017054,0.012746 -0.017241,0.012107 -0.017385,0.011436 -0.017581,0.01072 -0.017732,0.00995 -0.017916,0.00914 -0.018106,0.00823 -0.00912,0.00371 -0.00917,0.00341 -0.0046,0.00158 -0.00462,0.00148 -0.00465,0.00136 -0.00467,0.00122 0.017169,0.1414922 0.00483,8.26e-5 0.00485,2.007e-4 0.00483,3.33e-4 0.00486,4.323e-4 0.00972,0.00111 0.00974,0.00142 0.019535,0.00366 0.019572,0.00457 0.019614,0.00544 0.01963,0.00621 0.019632,0.00694 0.01962,0.00763 0.019611,0.0083 0.019604,0.00895 -7.5e-6,0.1242531 -0.019601,0.00896 -0.019611,0.00829 -0.019623,0.00764 -0.019628,0.00692 -0.019632,0.00621 -0.019608,0.00543 -0.019577,0.00459 -0.019534,0.00365 -0.00974,0.00142 -0.00973,0.00113 -0.00486,4.322e-4 -0.00484,3.189e-4 -0.00485,2.221e-4 -0.00483,5.2e-5 -0.017181,0.1415146 0.00468,0.00122 0.00464,0.00136 0.00463,0.00148 0.0046,0.00157 0.00918,0.00343 0.00912,0.00371 0.018104,0.00822 0.01791,0.00914 0.017725,0.00998 0.017571,0.010724 0.017404,0.011432 0.017241,0.012102 0.017062,0.012751 0.016868,0.01336 -0.029746,0.1206633 -0.021153,0.004 -0.021033,0.00337 -0.020891,0.00271 -0.020709,0.00204 -0.020539,0.00132 -0.020348,5.732e-4 -0.020111,-2.22e-4 -0.019841,-0.00113 -0.0098,-9.522e-4 -0.00971,-0.00125 -0.0048,-7.319e-4 -0.00479,-8.453e-4 -0.00475,-9.563e-4 -0.0047,-0.00108 -0.050545,0.1332736 0.00425,0.00231 0.00418,0.00244 0.00413,0.00255 0.0041,0.00262 0.00808,0.00551 0.00797,0.00579 0.015601,0.012314 0.015204,0.013165 0.01484,0.013906 0.014497,0.014629 0.014167,0.015259 0.013836,0.015888 0.013494,0.016459 0.013192,0.017015 -0.057755,0.1100386 -0.021485,-0.00119 -0.021237,-0.00177 -0.02093,-0.00236 -0.020602,-0.00297 -0.020248,-0.00364 -0.019894,-0.0043 -0.019473,-0.00504 -0.018986,-0.00584 -0.00929,-0.00327 -0.00913,-0.00353 -0.0045,-0.00186 -0.00445,-0.00197 -0.00438,-0.00206 -0.00431,-0.00219 -0.08096,0.1173098 0.00356,0.00326 0.00349,0.00335 0.00341,0.00347 0.00335,0.00354 0.00653,0.00729 0.00635,0.00752 0.01221,0.015699 0.0116,0.016408 0.011092,0.017072 0.010576,0.017658 0.010082,0.018209 0.00963,0.018727 0.00918,0.019226 0.00874,0.019688 -0.082407,0.09301 -0.020598,-0.00629 -0.020188,-0.0068 -0.019758,-0.0073 -0.019287,-0.00783 -0.018796,-0.00837 -0.018282,-0.00893 -0.017701,-0.00957 -0.017042,-0.010214 -0.00823,-0.0054 -0.00802,-0.0056 -0.00393,-0.0029 -0.00384,-0.00297 -0.00376,-0.00304 -0.00366,-0.00316 -0.1066953,0.094517 0.00269,0.00401 0.00258,0.00409 0.00248,0.0042 0.00239,0.00422 0.00461,0.00864 0.00436,0.00883 0.00809,0.018146 0.00735,0.018722 0.00667,0.01923 0.00606,0.019669 0.00544,0.02009 0.00485,0.020494 0.00431,0.020847 0.00378,0.021221 L 2.6994651,3.233981 2.6809759,3.222928 2.6630122,3.2115202 2.6455838,3.199682 2.6287023,3.1874725 2.6124505,3.1748447 2.5968496,3.1617821 2.5819589,3.1482732 2.567861,3.134271 l -0.00672,-0.0072 -0.00644,-0.00737 -0.00311,-0.00374 -0.00302,-0.00381 -0.00292,-0.00387 -0.0028,-0.00391 -0.1262147,0.066226 0.00164,0.00455 0.00152,0.00459 0.0014,0.00463 0.00134,0.0047 0.00239,0.00948 0.00212,0.00962 0.00352,0.019554 0.00266,0.019944 0.00187,0.020246 0.00116,0.020557 4.748e-4,0.020815 -1.71e-4,0.021058 L 2.435746,3.351624 2.434336,3.373098 2.3181475,3.41717 2.3028325,3.402032 2.2881255,3.386646 2.2740285,3.370993 2.2605775,3.355096 2.2478125,3.338942 2.2357895,3.322538 2.2245515,3.305851 2.2142145,3.288876 l -0.00479,-0.0086 -0.00449,-0.0087 -0.00213,-0.00438 -0.00203,-0.00441 -0.00192,-0.00445 -0.00177,-0.00449 -0.1383897,0.034117 4.986e-4,0.00479 3.78e-4,0.00483 2.598e-4,0.00485 1.605e-4,0.00488 4.94e-5,0.00978 -2.272e-4,0.00984 -0.00126,0.019843 -0.0022,0.019991 -0.00303,0.020116 -0.00379,0.020229 -0.00453,0.020325 -0.00519,0.020413 -0.00589,0.020458 -0.00652,0.020531 -0.1233547,0.014968 -0.011235,-0.018357 -0.010606,-0.018468 -0.00994,-0.018575 -0.00926,-0.018641 -0.00854,-0.01874 -0.00774,-0.018811 -0.00691,-0.018876 -0.00597,-0.018949 -0.0026,-0.00951 -0.00229,-0.00953 -10e-4,-0.00476 -9.049e-4,-0.00476 -8.057e-4,-0.00479 -6.52e-4,-0.00479 -0.1425321,5.9e-6 -6.541e-4,0.00479 -7.862e-4,0.00478 -9.185e-4,0.00476 -0.00102,0.00477 -0.00228,0.00952 -0.00259,0.00952 -0.00597,0.018951 -0.00692,0.018886 -0.00775,0.018798 -0.00853,0.018736 -0.00925,0.018644 -0.00995,0.018573 -0.010609,0.01847 -0.01123,0.01837 -0.123366,-0.014984 z m 0.092671,-0.3631617 0.090015,0.00888 0.090392,0.00295 0.0904,-0.00294 0.090012,-0.00888 0.089246,-0.014723 0.088072,-0.020537 0.086561,-0.02626 0.084651,-0.031862 0.082376,-0.037319 0.079777,-0.042644 0.076807,-0.047768 0.073522,-0.052682 0.069921,-0.057388 0.065999,-0.061827 0.061833,-0.06601 0.057382,-0.069923 0.05268,-0.073522 0.047764,-0.076803 0.042635,-0.079766 0.037327,-0.082386 0.03186,-0.084663 0.026247,-0.086555 0.020549,-0.088074 0.014728,-0.089244 -0.053559,-0.060118 -0.9445765,-4.3e-6 -0.090546,0.060114 -0.026517,0.035894 -0.03105,0.032028 -0.035053,0.027617 -0.038397,0.022714 -0.041093,0.017395 -0.043039,0.011769 -0.044209,0.00594 -0.044617,-1.02e-5 -0.044221,-0.00593 -0.043029,-0.011767 -0.041097,-0.017394 -0.038398,-0.022711 -0.035042,-0.027617 -0.031059,-0.03202 -0.026511,-0.03589 -0.090573,-0.060131 -0.9445765,-4.3e-6 -0.053532,0.060127 0.0147415,0.089248 0.0205369,0.088072 0.0262413,0.086559 0.0318597,0.08467 0.0373188,0.082376 0.0426443,0.079777 0.0477704,0.076788 0.0526612,0.073538 0.0573903,0.069903 0.061825,0.066018 0.0660105,0.061833 0.0699227,0.057382 0.0735218,0.05268 0.0768027,0.047764 0.079765,0.042635 0.082386,0.037327 0.084644,0.031858 0.086553,0.026266 0.088096,0.020532 0.089244,0.014728 z M 1.7449637,1.8488387 a 0.09396015,0.09396015 0 0 0 0.00938,4.76e-4 0.09396015,0.09396015 0 0 0 0.093953,-0.093965 0.09396015,0.09396015 0 0 0 -0.093965,-0.093953 0.09396015,0.09396015 0 0 0 -0.093953,0.093965 0.09396015,0.09396015 0 0 0 0.084581,0.093477 z m -1.3074299,-0.2137411 0.9445766,4.2e-6 0.090567,-0.060131 0.026514,-0.035875 0.031053,-0.032047 0.035053,-0.027617 0.038397,-0.022714 0.04109,-0.017376 0.043039,-0.011769 0.044212,-0.00595 0.044616,1.02e-5 0.044219,0.00595 0.043029,0.011767 0.0411,0.017375 0.038398,0.022711 0.035039,0.027636 0.03104,0.032017 0.02653,0.035892 0.090557,0.06011 0.9445765,4.2e-6 0.053551,-0.060124 L 3.1099469,1.4857422 3.0894129,1.3976512 3.0631719,1.3110922 3.0313099,1.2264412 2.9939719,1.1440622 2.9513469,1.0642872 2.9035789,0.9874805 2.8508959,0.913959 2.7935269,0.8440399 2.7316999,0.7780406 2.6656919,0.7161888 2.5957669,0.6588254 2.5222449,0.6061453 2.4454229,0.5583786 2.3656759,0.5157461 2.2832729,0.4783977 2.1986289,0.4465401 2.1120739,0.4202927 2.0239999,0.3997441 1.9347549,0.385016 1.8447369,0.376159 1.7543469,0.373187 1.6639439,0.376146 1.5739339,0.385011 1.4846859,0.3997524 1.3965949,0.4202869 1.3100529,0.4465495 1.2254019,0.4784116 1.1430259,0.5157304 1.0632489,0.5583747 0.9864422,0.6061427 0.9129207,0.6588252 0.8430017,0.7161942 0.7769811,0.7780381 0.7151671,0.8440509 0.6577873,0.9139548 0.6051072,0.9874766 0.5573404,1.0642982 l -0.0426349,0.079765 -0.0373272,0.082386 -0.0318576,0.084644 -0.0262475,0.086555 -0.020551,0.088093 -0.0147257,0.089225 0.0535382,0.060135 z"
           style="fill:#EBD3B0;fill-opacity:1;stroke:#000000;stroke-width:0.01109707;stroke-miterlimit:4;stroke-dasharray:none;stroke-opacity:1" />
      </g>
    </g>
    <circle
       transform="matrix(-0.91962511,-0.39279722,-0.39279722,0.91962511,0,0)"
       r="172.62775"
       cy="92.271187"
       cx="-235.61829"
       id="path4158"
       style="fill:none;fill-opacity:1;stroke:none;stroke-width:0.93592155;stroke-linecap:round;stroke-linejoin:miter;stroke-miterlimit:4;stroke-dasharray:none;stroke-opacity:1" />
    <g
       id="text4160"
       style="font-style:normal;font-weight:normal;font-size:30px;line-height:125%;font-family:sans-serif;letter-spacing:24.15999985px;word-spacing:0px;fill:#000000;fill-opacity:1;stroke:none;stroke-width:1px;stroke-linecap:butt;stroke-linejoin:miter;stroke-opacity:1"
       transform="matrix(-0.34756516,-0.93765583,0.93765583,-0.34756516,76.821021,408.2257)">
      <path
         id="path4610"
         style="font-style:normal;font-variant:normal;font-weight:normal;font-stretch:normal;font-size:30px;font-family:Instruction;-inkscape-font-specification:Instruction;letter-spacing:24.09000015px"
         d="m 23.277764,125.79569 q -2.844723,-1.04974 -4.119421,-3.81537 -1.266027,-2.74682 -0.216288,-5.59154 1.04974,-2.84472 3.801629,-4.12449 2.760561,-1.26096 5.605283,-0.21122 l 6.871311,2.53561 q 2.844722,1.04973 4.110749,3.79655 1.274698,2.76563 0.224959,5.61036 -1.049739,2.84472 -3.8103,4.10568 -2.75189,1.27976 -5.596612,0.23003 l -6.87131,-2.53561 z m 4.056963,-10.99409 q -1.704085,-0.62883 -3.359702,0.13425 -1.655616,0.76309 -2.284446,2.46717 -0.628829,1.70409 0.134256,3.3597 0.763085,1.65562 2.467169,2.28445 l 6.871311,2.5356 q 1.704085,0.62883 3.359701,-0.13425 1.655617,-0.76309 2.284446,-2.46717 0.628829,-1.70409 -0.134256,-3.35971 -0.763084,-1.65561 -2.467169,-2.28444 l -6.87131,-2.5356 z"
         inkscape:connector-curvature="0" />
      <path
         id="path4612"
         style="font-style:normal;font-variant:normal;font-weight:normal;font-stretch:normal;font-size:30px;font-family:Instruction;-inkscape-font-specification:Instruction;letter-spacing:24.09000015px"
         d="m 17.093176,150.28871 q 0.596837,0.067 0.971593,0.53655 0.38768,0.48574 0.320673,1.08258 -0.06701,0.59683 -0.551113,0.96996 -0.471182,0.38931 -1.068018,0.3223 -1.805066,-0.20265 -3.229901,0.93454 -1.424835,1.13719 -1.627492,2.94226 -0.202656,1.80506 0.934537,3.2299 1.137194,1.42483 2.942259,1.62749 l 13.101283,1.4709 q 0.596836,0.067 0.971593,0.53655 0.38768,0.48574 0.320673,1.08258 -0.06701,0.59683 -0.551113,0.96996 -0.471182,0.38931 -1.068018,0.3223 l -13.101283,-1.47089 q -3.013295,-0.33831 -4.912925,-2.71843 -1.8867077,-2.36393 -1.5484019,-5.37723 0.3383058,-3.01329 2.7038709,-4.91456 2.378488,-1.88507 5.391783,-1.54676 z"
         inkscape:connector-curvature="0" />
      <path
         id="path4614"
         style="font-style:normal;font-variant:normal;font-weight:normal;font-stretch:normal;font-size:30px;font-family:Instruction;-inkscape-font-specification:Instruction;letter-spacing:24.09000015px"
         d="m 19.262773,195.3478 -3.311294,-2.37151 -6.0271538,0.79303 q -0.5954538,0.0783 -1.0884788,-0.30003 -0.4765909,-0.36575 -0.554938,-0.96121 -0.078347,-0.59545 0.2855005,-1.08657 0.3802816,-0.4785 0.9757354,-0.55684 l 18.8802417,-2.48418 q 0.595454,-0.0784 1.072045,0.28741 0.493025,0.37837 0.571372,0.97383 0.07835,0.59545 -0.301935,1.07395 -0.363847,0.49111 -0.959301,0.56946 l -8.801097,1.15801 10.455954,7.48907 q 0.300784,0.15249 0.580164,0.3669 0.476591,0.36576 0.554938,0.96122 0.07835,0.59545 -0.301934,1.07395 -0.363848,0.49112 -0.959302,0.56946 -0.595453,0.0784 -1.072044,-0.28741 -0.345118,-0.26486 -0.504491,-0.46551 l -6.94745,-4.96621 q -0.146379,0.12268 -0.323716,0.23466 l -8.65665,7.19663 q -0.780437,0.69367 -1.37589,0.77202 -0.595454,0.0784 -1.088479,-0.30003 -0.476591,-0.36575 -0.5549381,-0.96121 -0.078347,-0.59545 0.2855001,-1.08657 0.380282,-0.4785 0.937518,-0.84731 l 8.230123,-6.84501 z"
         inkscape:connector-curvature="0" />
      <path
         id="path4616"
         style="font-style:normal;font-variant:normal;font-weight:normal;font-stretch:normal;font-size:30px;font-family:Instruction;-inkscape-font-specification:Instruction;letter-spacing:24.09000015px"
         d="m 29.289497,234.67601 -9.417742,2.09517 q -0.559654,0.21792 -1.128613,-0.0321 -0.549994,-0.24171 -0.767916,-0.80136 -0.217922,-0.55966 0.01848,-1.1233 0.255363,-0.55531 0.815018,-0.77323 l 16.285534,-9.40674 q 0.164525,-0.14266 0.396577,-0.23302 0.559655,-0.21792 1.109648,0.0238 0.568959,0.25005 0.786881,0.8097 0.217923,0.55966 -0.03744,1.11497 -0.236398,0.56364 -0.796053,0.78156 l -8.341056,4.81988 9.404092,-2.08985 q 0.559654,-0.21793 1.109648,0.0238 0.568959,0.25005 0.786881,0.8097 0.217922,0.55965 -0.03744,1.11496 -0.236398,0.56365 -0.796053,0.78157 l -8.341055,4.81988 9.404091,-2.08986 q 0.559655,-0.21792 1.109648,0.0238 0.568959,0.25005 0.786881,0.80971 0.217923,0.55965 -0.03744,1.11496 -0.236398,0.56364 -0.796053,0.78156 -0.232052,0.0904 -0.449729,0.0965 l -18.358454,4.08319 q -0.559655,0.21793 -1.128614,-0.0321 -0.549993,-0.24171 -0.767915,-0.80137 -0.217923,-0.55965 0.01847,-1.1233 0.255363,-0.55531 0.815018,-0.77323 l 8.354706,-4.82519 z"
         inkscape:connector-curvature="0" />
      <path
         id="path4618"
         style="font-style:normal;font-variant:normal;font-weight:normal;font-stretch:normal;font-size:30px;font-family:Instruction;-inkscape-font-specification:Instruction;letter-spacing:24.09000015px"
         d="m 54.773283,265.74702 -14.390807,10.09431 q -0.491686,0.34489 -1.103814,0.23748 -0.591723,-0.10383 -0.936612,-0.59552 -0.34489,-0.49168 -0.24947,-1.0954 0.115825,-0.60014 0.607511,-0.94503 l 14.390806,-10.09431 -2.523578,-3.5977 q -0.344889,-0.49169 -0.249469,-1.0954 0.115824,-0.60014 0.60751,-0.94503 0.491686,-0.34489 1.083409,-0.24105 0.612128,0.10741 0.957017,0.59909 l 6.729543,9.59387 q 0.344889,0.49169 0.229065,1.09183 -0.09542,0.60371 -0.587106,0.9486 -0.491686,0.34489 -1.103814,0.23748 -0.591724,-0.10383 -0.936613,-0.59552 l -2.523578,-3.5977 z"
         inkscape:connector-curvature="0" />
      <path
         id="path4620"
         style="font-style:normal;font-variant:normal;font-weight:normal;font-stretch:normal;font-size:30px;font-family:Instruction;-inkscape-font-specification:Instruction;letter-spacing:24.09000015px"
         d="m 65.882627,306.61834 q -0.452853,-0.3945 -0.484508,-1.00489 -0.04236,-0.4643 0.171828,-0.82167 l -0.02209,-0.0192 7.733938,-17.35235 q 0.221702,-0.70052 0.548845,-1.07606 0.394496,-0.45285 0.993841,-0.49413 0.620012,-0.0427 1.072865,0.3518 0.452854,0.3945 0.429282,0.95678 -0.0029,0.56086 -0.368934,1.42705 l -5.956908,13.30537 12.363124,-7.72469 q 0.807838,-0.48132 1.351957,-0.5707 0.564786,-0.0908 1.017639,0.30368 0.452853,0.3945 0.484508,1.00489 0.05232,0.60897 -0.342175,1.06182 -0.327143,0.37554 -0.990653,0.69118 l -16.128289,10.03974 -0.02209,-0.0192 q -0.324639,0.26116 -0.779314,0.29247 -0.620012,0.0427 -1.072865,-0.35179 z"
         inkscape:connector-curvature="0" />
      <path
         id="path4622"
         style="font-style:normal;font-variant:normal;font-weight:normal;font-stretch:normal;font-size:30px;font-family:Instruction;-inkscape-font-specification:Instruction;letter-spacing:24.09000015px"
         d="m 107.35709,325.71117 q 0.27443,-0.53422 0.8464,-0.71797 0.5917,-0.19009 1.12592,0.0843 0.53422,0.27444 0.71127,0.85944 0.19679,0.57867 -0.0776,1.11289 -1.38555,2.69715 -4.28486,3.62858 -2.87959,0.92509 -5.57675,-0.46046 -2.697153,-1.38555 -3.635274,-4.27184 -0.918399,-2.89262 0.467153,-5.58977 l 3.346741,-6.51487 q 1.38555,-2.69715 4.26514,-3.62224 2.89932,-0.93143 5.59647,0.45412 2.69716,1.38555 3.61556,4.27817 0.93812,2.88628 -0.44743,5.58344 -0.27444,0.53422 -0.86613,0.72431 -0.57198,0.18375 -1.1062,-0.0907 -0.53422,-0.27443 -0.731,-0.8531 -0.17705,-0.585 0.0974,-1.11922 0.82999,-1.61569 0.2724,-3.35133 -0.55759,-1.73564 -2.17328,-2.56563 -1.61568,-0.83 -3.35133,-0.27241 -1.73564,0.55759 -2.56563,2.17328 l -3.346745,6.51487 q -0.829992,1.61568 -0.272402,3.35133 0.55759,1.73564 2.173277,2.56563 1.61569,0.82999 3.35133,0.27241 1.73564,-0.55759 2.56564,-2.17328 z"
         inkscape:connector-curvature="0" />
      <path
         id="path4624"
         style="font-style:normal;font-variant:normal;font-weight:normal;font-stretch:normal;font-size:30px;font-family:Instruction;-inkscape-font-specification:Instruction;letter-spacing:24.09000015px"
         d="m 142.01312,335.94991 -5.48265,5.46411 8.80325,2.11062 q 0.58403,0.14003 0.89467,0.66641 0.3283,0.51556 0.18828,1.09959 -0.14003,0.58404 -0.66983,0.90892 -0.51214,0.31406 -1.09617,0.17403 l -11.3958,-2.7322 q -0.58403,-0.14002 -0.91233,-0.65558 -0.31064,-0.52638 -0.17062,-1.11042 0.14003,-0.58403 0.91132,-1.28786 l 5.48266,-5.46411 -1.66664,-0.39959 q -0.58403,-0.14002 -0.91233,-0.65558 -0.31064,-0.52638 -0.17062,-1.11042 0.14003,-0.58403 0.65217,-0.89809 0.5298,-0.32488 1.11383,-0.18486 l 3.43298,0.82308 5.48266,-5.46411 -8.80325,-2.11063 q -0.58404,-0.14002 -0.91234,-0.65558 -0.31064,-0.52638 -0.17061,-1.11042 0.14002,-0.58403 0.65216,-0.89809 0.5298,-0.32488 1.11384,-0.18486 l 11.3958,2.7322 q 0.58403,0.14003 0.89467,0.66641 0.3283,0.51556 0.18828,1.09959 -0.14003,0.58404 -0.91132,1.28787 l -5.48266,5.46411 1.66664,0.39958 q 0.58403,0.14003 0.89467,0.66641 0.3283,0.51556 0.18828,1.09959 -0.14003,0.58404 -0.66983,0.90892 -0.51214,0.31406 -1.09617,0.17403 l -3.43299,-0.82307 z"
         inkscape:connector-curvature="0" />
      <path
         id="path4626"
         style="font-style:normal;font-variant:normal;font-weight:normal;font-stretch:normal;font-size:30px;font-family:Instruction;-inkscape-font-specification:Instruction;letter-spacing:24.09000015px"
         d="m 187.41214,334.28067 q 0.005,0.60056 -0.43148,1.04337 -0.42153,0.42805 -1.0221,0.43265 -0.60057,0.005 -1.04327,-0.41683 -0.42815,-0.43618 -0.43276,-1.03675 -0.0104,-1.36226 -0.98461,-2.32163 -0.97417,-0.95936 -2.33644,-0.94892 l -2.1972,0.0168 q -1.36226,0.0104 -2.32163,0.98461 -0.95936,0.97418 -0.94892,2.33644 0.0104,1.36227 0.98461,2.32163 0.97418,0.95936 2.33644,0.94893 l 2.1972,-0.0168 q 2.57805,-0.0198 4.40843,1.79734 1.84492,1.80232 1.86467,4.38037 0.0197,2.57805 -1.79722,4.42308 -1.80244,1.83027 -4.38049,1.85002 l -2.1972,0.0168 q -2.57805,0.0198 -4.42297,-1.78257 -1.83038,-1.81709 -1.85013,-4.39514 -0.005,-0.60057 0.41694,-1.02861 0.43607,-0.44281 1.03664,-0.44741 0.60057,-0.005 1.02873,0.43158 0.44269,0.42143 0.44729,1.022 0.0104,1.36226 0.98461,2.32162 0.97418,0.95937 2.33644,0.94893 l 2.19721,-0.0168 q 1.36226,-0.0104 2.32162,-0.98461 0.95936,-0.97418 0.94893,-2.33644 -0.0104,-1.36227 -0.98461,-2.32163 -0.97418,-0.95936 -2.33644,-0.94893 l -2.1972,0.0168 q -2.57805,0.0197 -4.42297,-1.78258 -1.83038,-1.81708 -1.85013,-4.39513 -0.0197,-2.57805 1.78268,-4.40832 1.81698,-1.84503 4.39503,-1.86478 l 2.1972,-0.0168 q 2.57805,-0.0197 4.40843,1.79733 1.84491,1.80233 1.86467,4.38038 z"
         inkscape:connector-curvature="0" />
      <path
         id="path4628"
         style="font-style:normal;font-variant:normal;font-weight:normal;font-stretch:normal;font-size:30px;font-family:Instruction;-inkscape-font-specification:Instruction;letter-spacing:24.09000015px"
         d="m 222.54204,344.82913 -6.74304,1.71618 q -0.58203,0.14814 -1.11269,-0.15515 -0.52007,-0.3211 -0.6682,-0.90313 l -4.69692,-18.45464 q -0.14814,-0.58203 0.15877,-1.09849 0.31748,-0.53426 0.89951,-0.6824 l 6.74304,-1.71618 q 2.49848,-0.63589 4.71039,0.69058 2.2225,1.30866 2.85839,3.80714 0.63589,2.49847 -0.67638,4.70677 -0.13758,0.23152 -0.29297,0.45245 0.2421,0.11977 0.47001,0.24315 2.21191,1.32647 2.8478,3.82494 0.63589,2.49848 -0.68696,4.72459 -1.31228,2.2083 -3.81075,2.84419 z m -4.69692,-18.45463 -5.32346,1.35488 1.62586,6.38814 5.32345,-1.35488 q 1.32022,-0.33601 2.01869,-1.5114 0.69847,-1.17538 0.36246,-2.4956 -0.33601,-1.32022 -1.5114,-2.01869 -1.17539,-0.69846 -2.4956,-0.36245 z m 2.34846,9.22731 -5.32346,1.35488 1.62586,6.38815 5.32345,-1.35488 q 1.32022,-0.33601 2.01869,-1.5114 0.69847,-1.17539 0.36246,-2.4956 -0.33601,-1.32022 -1.5114,-2.01869 -1.17539,-0.69847 -2.4956,-0.36246 z"
         inkscape:connector-curvature="0" />
      <path
         id="path4630"
         style="letter-spacing:24.53999901px"
         d="m 264.1654,325.08454 q 0.53012,-0.28226 1.11162,-0.094 0.58755,0.16843 0.86981,0.69856 0.28226,0.53012 0.10089,1.12455 -0.17531,0.57462 -0.70544,0.85688 l -10.3439,5.50752 q -0.53012,0.28227 -1.11767,0.11383 -0.58149,-0.18825 -0.86376,-0.71837 l -8.94973,-16.80884 q -0.28226,-0.53012 -0.10694,-1.10474 0.18136,-0.59442 0.71149,-0.87669 l 10.3439,-5.50752 q 0.53012,-0.28226 1.11162,-0.094 0.58754,0.16844 0.86981,0.69856 0.28226,0.53013 0.10089,1.12456 -0.17532,0.57461 -0.70544,0.85687 l -9.05091,4.81909 3.09798,5.81844 7.75793,-4.13064 q 0.53012,-0.28227 1.11162,-0.094 0.58754,0.16844 0.8698,0.69856 0.28227,0.53013 0.1009,1.12456 -0.17532,0.57461 -0.70544,0.85687 l -7.75793,4.13065 3.09799,5.81844 9.05091,-4.81909 z"
         inkscape:connector-curvature="0" />
      <path
         id="path4632"
         style="font-style:normal;font-variant:normal;font-weight:normal;font-stretch:normal;font-size:30px;font-family:Instruction;-inkscape-font-specification:Instruction;letter-spacing:24.09000015px"
         d="m 289.48822,305.65158 1.16599,2.49837 q 0.38033,0.86002 0.40232,1.43163 0.0231,0.55093 -0.42318,0.95287 -0.44625,0.40195 -1.05708,0.3804 -0.60975,-0.0422 -1.0117,-0.48848 -0.33331,-0.37007 -0.56659,-1.06682 l -8.02027,-17.22188 0.0218,-0.0196 q -0.22007,-0.35378 -0.18541,-0.81871 0.0215,-0.61083 0.4678,-1.01278 0.44626,-0.40194 1.06689,-0.36951 0.45513,0.0238 0.78405,0.27952 l 0.0218,-0.0196 16.29236,9.77124 q 0.66864,0.30461 1.00196,0.67468 0.40194,0.44626 0.36952,1.06689 -0.0313,0.59995 -0.4776,1.00189 -0.44626,0.40194 -1.00267,0.33139 -0.55533,-0.0913 -1.37103,-0.55913 l -2.36326,-1.41998 -5.11564,4.60763 z m 2.491,-6.18649 -7.50146,-4.52003 3.71371,7.93164 3.78775,-3.41161 z"
         inkscape:connector-curvature="0" />
      <path
         id="path4634"
         style="font-style:normal;font-variant:normal;font-weight:normal;font-stretch:normal;font-size:30px;font-family:Instruction;-inkscape-font-specification:Instruction;letter-spacing:24.09000015px"
         d="m 318.86526,278.30986 q 0.49751,0.33643 0.61538,0.94663 0.11394,0.58986 -0.22249,1.08737 -0.33643,0.49752 -0.9345,0.62359 -0.60199,0.10573 -1.09951,-0.23069 l -15.77482,-10.66723 q -0.49751,-0.33643 -0.61145,-0.92629 -0.11787,-0.6102 0.21856,-1.10771 l 6.56445,-9.70759 q 0.33643,-0.49751 0.93842,-0.60324 0.59807,-0.12608 1.09558,0.21035 0.49752,0.33643 0.61538,0.94663 0.11394,0.58986 -0.22248,1.08738 l -5.7439,8.49413 5.46052,3.6925 4.92333,-7.28068 q 0.33643,-0.49752 0.93843,-0.60325 0.59806,-0.12607 1.09558,0.21035 0.49751,0.33643 0.61538,0.94663 0.11394,0.58986 -0.22249,1.08738 l -4.92334,7.28068 6.67397,4.51306 z"
         inkscape:connector-curvature="0" />
      <path
         id="path4636"
         style="font-style:normal;font-variant:normal;font-weight:normal;font-stretch:normal;font-size:30px;font-family:Instruction;-inkscape-font-specification:Instruction;letter-spacing:24.09000015px"
         d="m 334.22784,235.8487 4.80986,6.15758 q 0.46128,0.48348 0.72057,1.04829 0.25064,0.54598 0.0419,1.10911 -0.20877,0.56313 -0.75985,0.82751 -0.55971,0.24555 -1.12285,0.0368 -0.56313,-0.20878 -1.1698,-1.0586 l -5.82797,-7.45679 -9.28041,1.85548 q -1.01405,0.24896 -1.57718,0.0402 -0.56313,-0.20878 -0.81377,-0.75476 -0.25928,-0.56481 -0.0505,-1.12794 0.20878,-0.56313 0.7685,-0.80868 0.55107,-0.26438 1.21605,-0.3303 l 7.66142,-1.53396 -4.80985,-6.15758 q -0.46129,-0.48347 -0.71193,-1.02946 -0.25928,-0.56481 -0.0505,-1.12794 0.20878,-0.56313 0.76849,-0.80868 0.55108,-0.26437 1.11421,-0.0556 0.56313,0.20878 1.16981,1.05861 l 5.82797,7.45678 9.28041,-1.85548 q 1.01404,-0.24896 1.57717,-0.0402 0.56313,0.20877 0.82242,0.77358 0.25064,0.54599 0.0419,1.10912 -0.20878,0.56313 -0.75985,0.8275 -0.55972,0.24555 -1.22469,0.31147 l -7.66143,1.53396 z"
         inkscape:connector-curvature="0" />
      <path
         id="path4638"
         style="letter-spacing:24.38999939px"
         d="m 333.04713,195.07837 -0.62134,5.45791 6.54949,0.7456 0.62134,-5.45791 q 0.15409,-1.35356 -0.69714,-2.42351 -0.85124,-1.06995 -2.2048,-1.22404 -1.35356,-0.15409 -2.42351,0.69715 -1.06995,0.85123 -1.22404,2.2048 z m 9.2367,3.04183 -0.39766,3.49306 8.00493,0.9113 q 0.59674,0.0679 0.98366,0.55427 0.37403,0.47013 0.3061,1.06686 -0.0679,0.59673 -0.53972,0.98532 -0.48468,0.37237 -1.08142,0.30444 l -18.92075,-2.15398 q -0.59673,-0.0679 -0.97076,-0.53806 -0.38693,-0.48634 -0.319,-1.08307 l 0.78703,-6.91336 q 0.29162,-2.56157 2.31638,-4.15921 2.01186,-1.61385 4.57344,-1.32223 2.56158,0.29161 4.16087,2.30182 1.13498,1.42659 1.32617,3.11432 l 7.18181,-3.38418 q 0.92499,-0.48442 1.52172,-0.41648 0.59673,0.0679 0.98365,0.55427 0.37403,0.47013 0.3061,1.06686 -0.0679,0.59673 -0.53972,0.98531 -0.48468,0.37238 -1.11455,0.59553 l -8.56828,4.03721 z"
         inkscape:connector-curvature="0" />
      <path
         id="path4640"
         style="font-style:normal;font-variant:normal;font-weight:normal;font-stretch:normal;font-size:30px;font-family:Instruction;-inkscape-font-specification:Instruction;letter-spacing:24.09000015px"
         d="m 341.6168,159.28134 -0.45359,0.37005 -7.33881,5.97584 q -0.7803,0.69383 -1.37574,0.77229 -0.59543,0.0785 -1.0721,-0.28719 -0.4931,-0.37828 -0.57156,-0.97372 -0.0785,-0.59543 0.30172,-1.07401 0.36375,-0.49119 0.92091,-0.86011 l 6.05753,-4.93527 -7.12925,-3.19755 q -0.63372,-0.21199 -1.11038,-0.57765 -0.4931,-0.37827 -0.57157,-0.97371 -0.0785,-0.59544 0.30173,-1.07402 0.36374,-0.49118 0.95918,-0.56965 0.59544,-0.0785 1.52884,0.38954 l 8.63636,3.87067 0.53397,0.23991 8.9461,-1.1789 q 0.59544,-0.0785 1.08854,0.29981 0.47666,0.36567 0.55512,0.9611 0.0785,0.59544 -0.28528,1.08663 -0.38019,0.47858 -0.97562,0.55704 l -8.9461,1.1789 z"
         inkscape:connector-curvature="0" />
      <path
         id="path4642"
         style="font-style:normal;font-variant:normal;font-weight:normal;font-stretch:normal;font-size:30px;font-family:Instruction;-inkscape-font-specification:Instruction;letter-spacing:24.09000015px"
         d="m 323.51359,128.43191 q 0.23629,-0.56369 0.68954,-1.05471 l 9.7594,-12.92057 -12.84377,5.00412 q -0.55961,0.21803 -1.10965,-0.0236 -0.56901,-0.24994 -0.78704,-0.80955 -0.21803,-0.55961 0.0372,-1.11497 0.23629,-0.56369 0.7959,-0.78172 l 17.74378,-6.91324 q 0.55961,-0.21803 1.12862,0.0319 0.55004,0.24161 0.76807,0.80122 0.21804,0.55961 -0.0182,1.1233 -0.25525,0.55536 -0.70851,1.04637 l -9.7594,12.92058 12.84377,-5.00412 q 0.55961,-0.21803 1.12862,0.0319 0.55004,0.24161 0.76807,0.80122 0.21804,0.55961 -0.0182,1.1233 -0.25525,0.55536 -0.81487,0.77339 L 325.37306,130.38 q -0.55961,0.21803 -1.10965,-0.0236 -0.56901,-0.24994 -0.78704,-0.80955 -0.21803,-0.55961 0.0372,-1.11497 z"
         inkscape:connector-curvature="0" />
      <path
         id="path4644"
         style="font-style:normal;font-variant:normal;font-weight:normal;font-stretch:normal;font-size:30px;font-family:Instruction;-inkscape-font-specification:Instruction;letter-spacing:24.09000015px"
         d="m 309.93194,97.074003 q -0.49162,0.344987 -1.08336,0.241272 -0.61215,-0.10729 -0.95714,-0.598908 -0.34499,-0.491617 -0.22928,-1.091776 0.0953,-0.603735 0.58692,-0.948721 l 10.7916,-7.57288 q 1.48684,-1.043374 1.80156,-2.839012 0.31472,-1.795639 -0.72866,-3.282481 -1.04337,-1.486843 -2.83901,-1.801562 -1.79564,-0.31472 -3.28248,0.728655 l -10.7916,7.572879 q -0.49162,0.344987 -1.08336,0.241273 -0.61215,-0.107291 -0.95714,-0.598908 -0.34498,-0.491618 -0.22928,-1.091776 0.0953,-0.603735 0.58692,-0.948722 l 10.7916,-7.57288 q 2.48207,-1.741762 5.4816,-1.216037 2.97912,0.522148 4.72089,3.004216 1.74176,2.482068 1.22803,5.473185 -0.53414,2.987541 -3.01621,4.729304 l -10.7916,7.572879 z"
         inkscape:connector-curvature="0" />
      <path
         id="path4646"
         style="font-style:normal;font-variant:normal;font-weight:normal;font-stretch:normal;font-size:30px;font-family:Instruction;-inkscape-font-specification:Instruction;letter-spacing:24.09000015px"
         d="m 285.39805,52.463876 6.62828,5.771791 5.2908,-6.075919 q 0.39441,-0.452932 1.01441,-0.495757 0.59934,-0.0414 1.05227,0.353009 0.45293,0.394406 0.50538,1.003362 0.0318,0.610384 -0.36263,1.063316 l -12.50555,14.361265 q -0.3944,0.452932 -0.99374,0.494328 -0.62,0.04282 -1.07294,-0.351581 -0.45293,-0.394406 -0.48471,-1.00479 -0.0524,-0.608956 0.34197,-1.061888 l 5.29081,-6.075919 -6.62828,-5.771792 -5.29081,6.075919 q -0.39441,0.452932 -0.99374,0.494329 -0.62001,0.04282 -1.07294,-0.351581 -0.45293,-0.394406 -0.48471,-1.00479 -0.0524,-0.608956 0.34197,-1.061888 l 12.50554,-14.361265 q 0.39441,-0.452932 1.01441,-0.495756 0.59934,-0.0414 1.05227,0.353009 0.45293,0.394406 0.50538,1.003362 0.0318,0.610384 -0.36263,1.063316 l -5.29081,6.07592 z"
         inkscape:connector-curvature="0" />
      <path
         id="path4648"
         style="font-style:normal;font-variant:normal;font-weight:normal;font-stretch:normal;font-size:30px;font-family:Instruction;-inkscape-font-specification:Instruction;letter-spacing:24.09000015px"
         d="m 265.95379,27.252623 q 0.53427,0.274328 0.73117,0.852956 0.17717,0.584968 -0.0971,1.119241 l -8.6982,16.94037 q -0.27432,0.534273 -0.84626,0.718137 -0.59166,0.190204 -1.12593,-0.08412 l -5.21247,-2.67637 q -2.69743,-1.38502 -3.6164,-4.277459 -0.93869,-2.886098 0.44633,-5.583526 l 3.34546,-6.515527 q 1.38501,-2.697428 4.28414,-3.629428 2.87941,-0.92566 5.57684,0.459359 l 5.21242,2.676367 z m -10.0013,16.271278 7.36001,-14.334159 -3.90931,-2.007275 q -1.61585,-0.829673 -3.35139,-0.271741 -1.73553,0.557932 -2.5652,2.173782 l -3.34546,6.515527 q -0.82968,1.615851 -0.27174,3.351384 0.55793,1.735533 2.17378,2.565207 l 3.90931,2.007275 z"
         inkscape:connector-curvature="0" />
      <path
         id="path4650"
         style="font-style:normal;font-variant:normal;font-weight:normal;font-stretch:normal;font-size:30px;font-family:Instruction;-inkscape-font-specification:Instruction;letter-spacing:24.09000015px"
         d="m 209.9871,28.031838 4.43614,-18.5190537 q 0.1399,-0.5840625 0.66964,-0.9090528 0.51208,-0.3141574 1.09614,-0.1742484 0.58406,0.1399089 0.91246,0.6553987 0.31075,0.5263227 0.17084,1.1103852 l -2.16006,9.017354 5.07739,-8.61978 0.0285,0.0068 q 0.16677,-0.38181 0.55524,-0.6201361 0.52974,-0.3249904 1.1138,-0.1850815 0.58406,0.139909 0.89481,0.6662316 0.25257,0.391885 0.22825,0.807819 l 0.0285,0.0068 0.62078,9.984746 2.16006,-9.017355 q 0.13991,-0.584062 0.66964,-0.909053 0.51208,-0.314157 1.09614,-0.174248 0.58406,0.139909 0.91247,0.655399 0.31074,0.526322 0.17083,1.110385 l -4.43614,18.519053 q -0.1399,0.584063 -0.66964,0.909053 -0.51208,0.314157 -1.09614,0.174248 -0.58406,-0.139908 -0.91247,-0.655398 -0.27824,-0.473349 -0.24504,-1.429418 l -0.88255,-14.551245 -7.37979,12.572045 q -0.60243,0.879966 -0.95158,1.142775 -0.44085,0.33122 -1.02491,0.191311 -0.58406,-0.139909 -0.89481,-0.666232 -0.3284,-0.51549 -0.18849,-1.099552 z"
         inkscape:connector-curvature="0" />
      <path
         id="path4652"
         style="font-style:normal;font-variant:normal;font-weight:normal;font-stretch:normal;font-size:30px;font-family:Instruction;-inkscape-font-specification:Instruction;letter-spacing:24.09000015px"
         d="m 173.31769,6.2491794 q -0.005,-0.6005674 0.43127,-1.0434615 0.42145,-0.4281309 1.02202,-0.4328521 0.60056,-0.00472 1.02881,0.431379 0.44278,0.421337 0.44738,1.0072564 1.87819,-1.465005 4.383,-1.4846958 3.03213,-0.023836 5.2022,2.0978424 2.15553,2.1364418 2.17937,5.1685742 l 0.0576,7.323993 q 0.0238,3.032133 -2.09795,5.187551 -2.13633,2.170181 -5.16846,2.194017 -3.03214,0.02384 -5.18767,-2.112606 -2.17007,-2.121678 -2.1939,-5.153811 -0.005,-0.600568 0.43126,-1.043462 0.42145,-0.428131 1.02202,-0.432852 0.60057,-0.0047 1.04335,0.416616 0.42824,0.4361 0.43297,1.036668 0.0143,1.81635 1.31343,3.095239 1.29916,1.27889 3.11551,1.264611 1.81635,-0.01428 3.09524,-1.313435 1.27889,-1.299156 1.26461,-3.115506 l -0.0576,-7.323992 q -0.0143,-1.816351 -1.31343,-3.0952399 -1.29916,-1.2788894 -3.11551,-1.2646107 -1.81635,0.014279 -3.09524,1.3134347 -1.27889,1.2991559 -1.26461,3.1155059 l 0.006,0.732399 5.12679,-0.0403 q 0.60057,-0.0047 1.04335,0.416615 0.42824,0.436101 0.43297,1.036668 0.005,0.600567 -0.41674,1.028698 -0.43598,0.442894 -1.03655,0.447616 l -6.59159,0.05182 q -0.60057,0.0047 -1.02881,-0.431379 -0.44278,-0.421337 -0.4475,-1.021904 l -0.0633,-8.0563916 z"
         inkscape:connector-curvature="0" />
      <path
         id="path4654"
         style="font-style:normal;font-variant:normal;font-weight:normal;font-stretch:normal;font-size:30px;font-family:Instruction;-inkscape-font-specification:Instruction;letter-spacing:24.09000015px"
         d="m 136.76959,17.045035 q 0.0303,0.415544 0.14236,0.855594 l 1.80791,7.097579 q 0.44836,1.7602 2.01573,2.691181 1.56736,0.930981 3.32756,0.482619 1.7602,-0.448363 2.69119,-2.01573 0.93098,-1.567366 0.48261,-3.327566 l -1.80791,-7.097579 q -0.44836,-1.7602 -2.01573,-2.691181 -1.56736,-0.930981 -3.32756,-0.482619 -1.39113,0.354351 -2.27109,1.409888 l 2.60724,2.283535 q 0.78114,0.692881 0.92938,1.274883 0.14825,0.582001 -0.15855,1.09852 -0.31738,0.534329 -0.89938,0.682578 -0.582,0.148249 -1.10213,-0.172747 -0.53072,-0.303185 -0.96287,-0.812869 l -1.45876,-1.276086 z m -1.14502,-5.029238 q 1.45259,-1.715347 3.73801,-2.2974954 2.9384,-0.748476 5.553,0.7924904 2.60402,1.558778 3.35249,4.497176 l 1.80792,7.097579 q 0.74847,2.938398 -0.79611,5.538801 -1.55516,2.618215 -4.49356,3.366691 -2.9384,0.748476 -5.54242,-0.810301 -2.6146,-1.540967 -3.36307,-4.479365 l -1.80792,-7.097579 q -0.51706,-2.029908 0.0644,-3.901264 l -0.58134,-0.501917 q -0.78114,-0.692881 -0.92939,-1.274882 -0.14825,-0.582002 0.16913,-1.116331 0.30681,-0.516519 0.88881,-0.664768 0.582,-0.148249 1.10213,0.172747 0.45947,0.260868 0.83792,0.678418 z"
         inkscape:connector-curvature="0" />
      <path
         id="path4656"
         style="letter-spacing:24.71000099px"
         d="m 113.99279,40.435641 -8.26437,-15.514211 -9.049955,4.82088 q -0.530069,0.282365 -1.111605,0.09423 -0.587577,-0.168317 -0.869943,-0.698386 -0.282366,-0.530069 -0.10112,-1.124534 0.175205,-0.574649 0.705274,-0.857014 l 10.342809,-5.509577 q 0.53007,-0.282366 1.11764,-0.114048 0.58154,0.188133 0.86391,0.718202 l 8.95306,16.807062 q 0.28236,0.530069 0.10716,1.104718 -0.18125,0.594464 -0.71132,0.87683 -0.53006,0.282366 -1.1116,0.09423 -0.58758,-0.168318 -0.86994,-0.698387 z"
         inkscape:connector-curvature="0" />
      <path
         id="path4658"
         style="font-style:normal;font-variant:normal;font-weight:normal;font-stretch:normal;font-size:30px;font-family:Instruction;-inkscape-font-specification:Instruction;letter-spacing:24.09000015px"
         d="m 71.298468,56.136182 4.077245,-3.681158 -5.399031,-5.97996 q -0.402473,-0.445779 -0.370786,-1.066451 0.03063,-0.599983 0.476409,-1.002456 0.445779,-0.402473 1.056635,-0.381659 0.6098,0.0415 1.012273,0.487282 l 12.761346,14.134451 q 0.402473,0.445779 0.371843,1.045762 -0.03169,0.620672 -0.477466,1.023145 l -5.164511,4.6628 q -1.913587,1.72769 -4.488849,1.585844 -2.576318,-0.121156 -4.304008,-2.034743 -1.72769,-1.913588 -1.59566,-4.499722 0.130973,-2.565445 2.04456,-4.293135 z m 6.380673,7.067225 4.077245,-3.681157 -4.417389,-4.892695 -4.077245,3.681158 q -1.011157,0.912927 -1.080869,2.278406 -0.06971,1.365479 0.843216,2.376636 0.912927,1.011156 2.278406,1.080868 1.365479,0.06971 2.376636,-0.843216 z"
         inkscape:connector-curvature="0" />
      <path
         id="path4660"
         style="font-style:normal;font-variant:normal;font-weight:normal;font-stretch:normal;font-size:30px;font-family:Instruction;-inkscape-font-specification:Instruction;letter-spacing:24.09000015px"
         d="m 41.464984,79.912373 13.35865,9.010234 2.457337,-3.643268 q 0.335836,-0.497913 0.933752,-0.624698 0.601869,-0.106449 1.099782,0.229387 0.497914,0.335836 0.612554,0.925561 0.118593,0.610061 -0.217243,1.107974 l -6.552897,9.715382 q -0.335836,0.497913 -0.937706,0.604362 -0.597916,0.126784 -1.095829,-0.209052 -0.497913,-0.335836 -0.616507,-0.945896 -0.11464,-0.589725 0.221196,-1.087639 l 2.457337,-3.643268 -13.35865,-9.010233 -2.457336,3.643268 q -0.335836,0.497913 -0.937706,0.604362 -0.597916,0.126784 -1.095829,-0.209052 -0.497913,-0.335836 -0.616507,-0.945896 -0.11464,-0.589725 0.221196,-1.087639 l 6.552898,-9.715381 q 0.335836,-0.497913 0.933752,-0.624698 0.601869,-0.106449 1.099782,0.229387 0.497914,0.335836 0.612554,0.925561 0.118593,0.610061 -0.217243,1.107974 l -2.457337,3.643268 z"
         inkscape:connector-curvature="0" />
    </g>
  </g>
</svg>
