<?xml version="1.0" encoding="UTF-8" standalone="no"?>
<svg
   xmlns:dc="http://purl.org/dc/elements/1.1/"
   xmlns:cc="http://creativecommons.org/ns#"
   xmlns:rdf="http://www.w3.org/1999/02/22-rdf-syntax-ns#"
   xmlns:svg="http://www.w3.org/2000/svg"
   xmlns="http://www.w3.org/2000/svg"
   xmlns:sodipodi="http://sodipodi.sourceforge.net/DTD/sodipodi-0.dtd"
   xmlns:inkscape="http://www.inkscape.org/namespaces/inkscape"
   viewBox="0.0011 -3.49551 360.80096 361.75948"
   version="1.0"
   overflow="visible"
   id="svg2"
   inkscape:version="0.91 r13725"
   sodipodi:docname="4-spoke.svg"
   width="4.0088997in"
   height="4.0195498in"
   style="overflow:visible">
  <metadata
     id="metadata22">
    <rdf:RDF>
      <cc:Work
         rdf:about="">
        <dc:format>image/svg+xml</dc:format>
        <dc:type
           rdf:resource="http://purl.org/dc/dcmitype/StillImage" />
        <dc:title></dc:title>
      </cc:Work>
    </rdf:RDF>
  </metadata>
  <sodipodi:namedview
     pagecolor="#ffffff"
     bordercolor="#666666"
     borderopacity="1"
     objecttolerance="10"
     gridtolerance="10"
     guidetolerance="10"
     inkscape:pageopacity="0"
     inkscape:pageshadow="2"
     inkscape:window-width="1680"
     inkscape:window-height="997"
     id="namedview20"
     showgrid="false"
     inkscape:document-units="in"
     units="in"
     fit-margin-top="0"
     fit-margin-left="0"
     fit-margin-right="0"
     fit-margin-bottom="0"
     inkscape:zoom="1.4946169"
     inkscape:cx="206.94347"
     inkscape:cy="195.3058"
     inkscape:window-x="-8"
     inkscape:window-y="-8"
     inkscape:window-maximized="1"
     inkscape:current-layer="svg2" />
  <defs
     id="defs4" />
  <g
     id="draft"
     transform="matrix(102.2954,12.834413,12.834413,-102.2954,-21.184432,334.02641)"
     style="stroke:#000000;stroke-width:0.00872961;stroke-miterlimit:4;stroke-dasharray:none;stroke-opacity:1">
    <g
       id="ID_0"
       style="color:#000000;fill:none;stroke:#000000;stroke-width:0.00872961;stroke-miterlimit:4;stroke-dasharray:none;stroke-opacity:1">
      <path
         style="fill:#EBD3B0;fill-opacity:1;stroke:#000000;stroke-width:0.89999992;stroke-miterlimit:4;stroke-dasharray:none;stroke-opacity:1"
         d="m 174.77539,-0.33789062 -0.92773,2.01171872 -0.86133,2.0136719 -0.79297,2.015625 -0.72266,2.0175781 -0.64453,2.015625 -0.5664,2.0156249 -0.48047,2.011719 -0.38477,2.007812 -0.15039,1.001954 -0.11914,1 -0.0449,0.5 -0.0352,0.496093 -0.0254,0.498047 -0.008,0.496094 -14.5625,1.710937 -0.12305,-0.480468 -0.13867,-0.478516 -0.15234,-0.478516 -0.15821,-0.472656 -0.34961,-0.947265 -0.37695,-0.9375 -0.83789,-1.865235 -0.93359,-1.847656 -1.01758,-1.828125 -1.09571,-1.8125 -1.16796,-1.794922 -1.23828,-1.7773438 -1.30665,-1.7597656 -1.36718,-1.7402344 -12.42383,3.0097657 -0.41992,2.1738281 -0.35547,2.162109 -0.28711,2.146485 -0.2168,2.130859 -0.14648,2.113281 -0.0664,2.091797 0.0156,2.06836 0.10742,2.041015 0.0937,1.009766 0.12305,0.998047 0.0742,0.496093 0.0859,0.492188 0.0957,0.488281 0.10938,0.484375 -13.73047,5.144532 -0.23437,-0.435547 -0.25,-0.431641 -0.25977,-0.427734 -0.26953,-0.421875 -0.5625,-0.835938 -0.5918,-0.820312 -1.25976,-1.609375 -1.34766,-1.570313 -1.42773,-1.533203 -1.4961,-1.496094 -1.56445,-1.46289 -1.62695,-1.429688 -1.68946,-1.396484 -1.74609,-1.363282 -11.341798,5.896485 0.113281,2.210937 0.173828,2.183594 0.234375,2.154297 0.296875,2.121094 0.365235,2.085937 0.435546,2.046875 0.509766,2.00586 0.59375,1.955078 0.332031,0.957031 0.359375,0.941406 0.191407,0.462891 0.199218,0.457031 L 95.591797,43 l 0.222656,0.443359 -12.101562,8.28125 -0.332032,-0.367187 -0.345703,-0.359375 -0.353515,-0.351563 -0.363282,-0.345703 -0.746093,-0.675781 -0.773438,-0.65625 -1.607422,-1.261719 -1.683594,-1.201172 -1.75,-1.146484 -1.814453,-1.095703 -1.86914,-1.044922 -1.921875,-1 -1.972656,-0.951172 -2.021485,-0.90625 -9.601562,8.439453 0.638671,2.121094 L 57.884766,53 l 0.74414,2.035156 0.798828,1.988282 0.851563,1.9375 0.912109,1.882812 0.976563,1.826172 1.042969,1.755859 0.552734,0.84961 0.574219,0.828125 0.294921,0.404296 0.304688,0.396485 0.310547,0.386719 0.322265,0.378906 -9.765624,10.935547 -0.410157,-0.277344 -0.421875,-0.265625 -0.427734,-0.257812 -0.435547,-0.25 -0.886719,-0.476563 -0.90625,-0.451172 -1.863281,-0.839844 -1.923828,-0.763671 -1.974609,-0.69336 -2.021485,-0.630859 -2.064453,-0.56836 -2.105469,-0.507812 -2.142578,-0.453125 -2.181641,-0.396484 -7.302734,10.492187 1.128906,1.904297 1.167969,1.855469 1.207031,1.796875 1.25,1.740234 1.292969,1.677734 1.335938,1.609375 1.384765,1.539063 1.433594,1.455078 0.738281,0.693359 0.75586,0.666016 0.384765,0.320313 0.388672,0.314453 0.396484,0.300781 0.404297,0.291016 -6.865234,12.955082 -0.466797,-0.17188 -0.472656,-0.1582 -0.476563,-0.14649 -0.482421,-0.13867 -0.97461,-0.25 -0.988281,-0.22265 -2.011719,-0.36915 -2.048828,-0.28125 -2.083984,-0.20117 -2.113282,-0.12695 -2.140625,-0.0586 -2.166015,0.01 -2.189453,0.0742 -2.210938,0.13672 -4.580078,11.93359 1.550781,1.58203 1.578125,1.51953 1.603516,1.45704 1.628906,1.38867 1.65625,1.32031 1.683594,1.24414 1.710937,1.16211 1.742188,1.07031 0.882812,0.4961 0.892578,0.46484 0.449219,0.2207 0.455078,0.21094 0.455079,0.19727 0.460937,0.18554 -3.564453,14.22266 -0.494141,-0.0547 -0.496093,-0.041 -0.5,-0.0293 -0.5,-0.0176 -1.00586,-0.01 -1.013672,0.0195 -2.039062,0.12304 -2.058594,0.2168 -2.070312,0.30469 -2.083985,0.38086 -2.0917968,0.45703 -2.1015624,0.52734 -2.1074219,0.59571 -2.1132813,0.66211 -1.59179685,12.68359 1.88476565,1.16406 1.8945312,1.09766 1.90625,1.03125 1.9140625,0.95898 1.9257809,0.88477 1.931641,0.80469 1.939453,0.71875 1.947266,0.62304 0.974609,0.27149 0.978516,0.23828 0.490234,0.10547 0.490235,0.0957 0.492187,0.084 0.490234,0.0684 -0.05859,14.66211 -0.492188,0.0645 -0.490234,0.0801 -0.492188,0.0918 -0.490234,0.10156 -0.980469,0.23243 -0.978515,0.26171 -1.951172,0.60743 -1.945313,0.70312 -1.9375,0.78906 -1.9316405,0.86914 -1.921875,0.94532 -1.9140625,1.01367 -1.9042969,1.08398 -1.89453122,1.14844 1.49023432,12.69531 2.1074219,0.67969 2.1054688,0.61328 2.0957031,0.54297 2.089844,0.47266 2.078125,0.40039 2.070312,0.31836 2.054688,0.23437 2.039062,0.13867 1.013672,0.0293 1.00586,-0.004 0.501953,-0.0137 0.498047,-0.0234 0.496093,-0.0371 0.494141,-0.0508 3.453125,14.25 -0.462891,0.18164 -0.458984,0.19336 -0.455078,0.20704 -0.451172,0.21679 -0.896484,0.45899 -0.886719,0.48828 -1.75,1.05859 -1.720703,1.14844 -1.69336,1.23047 -1.666015,1.30469 -1.640625,1.37695 -1.615235,1.44336 -1.589843,1.50781 -1.5644536,1.56836 4.4843746,11.9707 2.210938,0.1543 2.189453,0.0918 2.166016,0.0273 2.140625,-0.041 2.115234,-0.11133 2.083984,-0.1836 2.052735,-0.26562 2.013672,-0.35352 0.990234,-0.21484 0.974609,-0.24219 0.484375,-0.13476 0.478516,-0.14258 0.474609,-0.1543 0.466797,-0.16797 6.761719,13.00977 -0.40625,0.28711 -0.398437,0.29883 -0.390626,0.30859 -0.388671,0.31836 -0.759766,0.66015 -0.744141,0.6875 -1.445312,1.44532 -1.396484,1.52539 -1.34961,1.60156 -1.304687,1.66602 -1.263672,1.73046 -1.22461,1.78711 -1.18164,1.84375 -1.142578,1.89844 7.21875,10.54883 2.18164,-0.37891 2.148438,-0.43554 2.109375,-0.49219 2.068359,-0.55078 2.029297,-0.61524 1.978516,-0.67773 1.927734,-0.74805 1.871094,-0.82422 0.910156,-0.44531 0.890625,-0.4707 0.435547,-0.24414 0.43164,-0.25391 0.421876,-0.26367 L 55,280.58008 l 9.679688,11.01367 -0.324219,0.375 -0.316407,0.38672 -0.30664,0.39453 -0.300781,0.40039 -0.580079,0.82422 -0.55664,0.8457 -1.058594,1.74805 -0.990234,1.81641 -0.927735,1.87695 -0.867187,1.92969 -0.814453,1.98242 -0.757813,2.02929 -0.707031,2.07227 -0.65625,2.11523 9.533203,8.51563 2.029297,-0.89063 1.980469,-0.93554 1.929687,-0.98242 1.876953,-1.03125 1.822266,-1.08008 1.759766,-1.13281 1.693359,-1.1875 1.619141,-1.25 0.77539,-0.6504 0.753906,-0.66796 0.363282,-0.34375 0.359375,-0.34961 0.347656,-0.35547 0.335937,-0.36719 12.033204,8.37695 -0.226563,0.44336 -0.212891,0.44922 -0.205078,0.45703 -0.193359,0.46289 -0.367187,0.93555 -0.339844,0.95508 -0.609375,1.95117 -0.525391,2 -0.451172,2.04492 -0.380859,2.08203 -0.316406,2.11914 -0.251953,2.1504 -0.189454,2.18359 -0.130859,2.21094 11.294925,5.98632 1.75586,-1.34961 1.70117,-1.38281 1.63867,-1.41797 1.57617,-1.44922 1.50781,-1.48437 1.4375,-1.52148 1.36133,-1.5586 1.27344,-1.59961 0.59766,-0.81836 0.57031,-0.82812 0.27148,-0.42188 0.26563,-0.42382 0.25195,-0.42969 0.23828,-0.43555 13.6875,5.25391 -0.11328,0.48242 -0.0996,0.48828 -0.0879,0.49219 -0.0801,0.49609 -0.13086,0.99609 -0.10156,1.00977 -0.12305,2.03906 -0.0332,2.06836 0.0508,2.09375 0.12891,2.11328 0.20117,2.13282 0.26953,2.14843 0.33789,2.16407 0.40235,2.17968 12.39843,3.10743 1.38282,-1.73047 1.31836,-1.75 1.2539,-1.76758 1.18164,-1.78516 1.11133,-1.80273 1.0332,-1.82031 0.94727,-1.83985 0.85156,-1.85742 0.38672,-0.9375 0.35352,-0.94141 0.16601,-0.47265 0.15235,-0.47657 0.14257,-0.47656 0.12891,-0.48047 14.54688,1.82618 0.006,0.49609 0.0195,0.49805 0.0332,0.49804 0.041,0.5 0.11133,1 0.14258,1.00391 0.36719,2.00976 0.46289,2.01563 0.55078,2.01953 0.63086,2.02149 0.70508,2.02343 0.77734,2.02149 0.8457,2.02148 0.91211,2.01953 12.78321,0.0488 0.92773,-2.01172 0.86133,-2.01172 0.79297,-2.01757 0.7207,-2.01563 0.64844,-2.01758 0.5664,-2.01367 0.47852,-2.01367 0.38281,-2.00586 0.15235,-1.00391 0.11914,-0.99804 0.0449,-0.5 0.0371,-0.49805 0.0234,-0.49805 0.008,-0.49609 14.5625,-1.70899 0.125,0.48047 0.13867,0.47852 0.14844,0.47656 0.16211,0.47461 0.3457,0.94531 0.37891,0.93946 0.83984,1.86523 0.93164,1.8457 1.01758,1.83008 1.0957,1.81055 1.16992,1.79492 1.23829,1.77734 1.30468,1.75977 1.36914,1.74219 12.42188,-3.00977 0.41992,-2.17578 0.35547,-2.16211 0.28711,-2.14648 0.21875,-2.13086 0.14453,-2.11133 0.0684,-2.09375 -0.0156,-2.06836 -0.10937,-2.04102 -0.0918,-1.00781 -0.125,-1 -0.0742,-0.49414 -0.0859,-0.49414 -0.0957,-0.48828 -0.10937,-0.48438 13.73047,-5.14453 0.23437,0.4375 0.25,0.43164 0.25977,0.42579 0.26953,0.42382 0.5625,0.83399 0.59375,0.82226 1.25976,1.60938 1.34571,1.57031 1.42578,1.53125 1.49805,1.49805 1.5664,1.46289 1.62696,1.42773 1.6875,1.39649 1.74609,1.36523 11.3418,-5.89648 -0.11329,-2.21289 -0.17187,-2.1836 -0.23438,-2.15234 -0.29882,-2.12305 -0.36524,-2.08398 -0.43555,-2.04883 -0.50976,-2.00391 -0.59375,-1.95508 -0.33203,-0.95703 -0.35938,-0.9414 -0.1914,-0.46289 -0.19922,-0.45899 -0.20899,-0.45117 -0.22265,-0.44336 12.09961,-8.28125 0.33203,0.36719 0.3457,0.36133 0.35352,0.35156 0.36328,0.3457 0.74609,0.67578 0.77149,0.65625 1.60937,1.26172 1.68359,1.19922 1.75196,1.14649 1.81054,1.09765 1.86915,1.04492 1.92382,0.99805 1.97266,0.95117 2.02148,0.90625 9.60157,-8.4375 -0.63868,-2.12109 -0.6914,-2.07813 -0.74219,-2.03711 -0.79687,-1.98632 -0.85352,-1.93946 -0.91211,-1.88281 -0.97461,-1.82422 -1.04492,-1.75781 -0.55078,-0.84961 -0.57422,-0.82617 -0.29688,-0.4043 -0.30468,-0.39648 -0.31055,-0.38868 -0.32422,-0.37695 9.76758,-10.9375 0.41211,0.2793 0.41992,0.26562 0.42774,0.25586 0.43554,0.25 0.88672,0.47657 0.90625,0.45312 1.86524,0.83984 1.92187,0.76368 1.97461,0.69336 2.02148,0.6289 2.06446,0.56836 2.10547,0.50977 2.14453,0.45312 2.17969,0.39453 7.30273,-10.49023 -1.12891,-1.90625 -1.16601,-1.85352 -1.21094,-1.79882 -1.24805,-1.73829 -1.29297,-1.67773 -1.33593,-1.61133 -1.38477,-1.53711 -1.43359,-1.45703 -0.73828,-0.69141 -0.75586,-0.66601 -0.38477,-0.32227 -0.38867,-0.3125 -0.39648,-0.30273 -0.4043,-0.28906 6.86719,-12.95703 0.46484,0.17187 0.47266,0.1582 0.47851,0.14844 0.48047,0.13672 0.97656,0.25 0.98828,0.22461 2.00977,0.36914 2.04883,0.28125 2.08398,0.20117 2.11328,0.12695 2.14063,0.0566 2.16601,-0.008 2.18946,-0.0742 2.21093,-0.13867 4.58204,-11.93359 -1.55274,-1.58008 -1.57617,-1.51953 -1.60547,-1.45703 -1.62891,-1.39063 -1.65625,-1.31836 -1.68359,-1.24414 -1.71094,-1.16406 -1.74218,-1.07031 -0.88282,-0.49414 -0.89257,-0.4668 -0.44922,-0.21875 -0.45313,-0.21094 -0.45703,-0.19922 -0.46094,-0.18359 3.56446,-14.22266 0.49414,0.0547 0.49609,0.041 0.5,0.0273 0.5,0.0176 1.00781,0.0117 1.01172,-0.0215 2.04102,-0.12304 2.05664,-0.2168 2.07031,-0.30274 2.08398,-0.38085 2.0918,-0.45704 2.10156,-0.52929 2.10743,-0.59571 2.11523,-0.66015 1.58984,-12.6836 -1.88476,-1.16601 -1.89453,-1.09766 -1.90625,-1.02929 -1.91602,-0.95899 -1.92187,-0.88476 -1.9336,-0.80665 -1.93945,-0.71874 -1.94531,-0.62305 -0.97657,-0.26953 -0.97851,-0.23828 -0.49024,-0.10743 -0.49023,-0.0937 -0.49023,-0.084 -0.49219,-0.0684 0.0586,-14.66406 0.49219,-0.0645 0.49219,-0.0801 0.49023,-0.0898 0.49024,-0.10351 0.98046,-0.23047 0.97852,-0.26172 1.95117,-0.60742 1.94531,-0.70313 1.93946,-0.79101 1.92969,-0.86914 1.92187,-0.94336 1.91602,-1.01563 1.90429,-1.08203 1.89258,-1.14844 -1.49023,-12.69726 -2.10938,-0.67969 -2.10156,-0.61133 -2.09766,-0.54492 -2.08789,-0.47266 -2.08008,-0.39843 -2.06836,-0.32032 -2.05664,-0.23242 -2.03906,-0.13867 -1.01172,-0.0293 -1.00781,0.002 -0.5,0.0137 -0.5,0.0254 -0.49609,0.0352 -0.49414,0.0527 -3.45313,-14.25195 0.46289,-0.17969 0.45899,-0.19531 0.45507,-0.20704 0.45118,-0.21484 0.89648,-0.45898 0.88672,-0.49024 1.75,-1.05664 1.7207,-1.14844 1.69336,-1.23046 1.66602,-1.30664 1.64062,-1.37696 1.61719,-1.44336 1.58789,-1.50781 1.56445,-1.56836 -4.48633,-11.9707 -2.20898,-0.1543 -2.18945,-0.0898 -2.16602,-0.0274 -2.14062,0.041 -2.11328,0.10937 -2.08594,0.18555 -2.05078,0.26563 -2.01367,0.35156 -0.99024,0.21484 -0.97852,0.24414 -0.48242,0.13281 -0.47851,0.14454 -0.47266,0.15429 -0.46875,0.16602 -6.76172,-13.009767 0.40625,-0.285156 0.39649,-0.298828 0.39453,-0.310547 0.38672,-0.31836 0.75976,-0.660156 0.74414,-0.6875 1.44727,-1.443359 1.39453,-1.527344 1.34961,-1.599609 1.30664,-1.667969 1.26172,-1.728516 1.22266,-1.787109 1.18359,-1.845703 1.14258,-1.896485 -7.21875,-10.548828 -2.1836,0.376954 -2.14648,0.435546 -2.10938,0.492188 -2.07031,0.552734 -2.02539,0.613282 -1.98047,0.677734 -1.92969,0.748047 -1.86914,0.826172 -0.91015,0.445312 -0.89063,0.470703 -0.43554,0.244141 -0.43164,0.253906 -0.42188,0.263672 -0.41406,0.273437 -9.67969,-11.013671 0.32617,-0.375 0.31446,-0.384766 0.30664,-0.394531 0.29882,-0.402344 0.58204,-0.822266 0.55859,-0.845703 1.05664,-1.748047 0.99023,-1.816406 0.92774,-1.876953 0.86914,-1.931641 0.8125,-1.980468 0.75976,-2.029297 0.70704,-2.072266 0.65625,-2.117187 -9.53516,-8.513672 -2.0293,0.888672 -1.98047,0.935546 -1.92968,0.984376 -1.87696,1.03125 -1.82226,1.080078 -1.75977,1.132812 -1.69336,1.1875 -1.61719,1.25 -0.77929,0.648438 -0.75195,0.669922 -0.36524,0.341796 -0.35742,0.34961 -0.3457,0.357422 -0.33594,0.365234 -12.03516,-8.376953 0.22656,-0.441406 0.2129,-0.451172 0.20507,-0.455078 0.19336,-0.462891 0.36719,-0.9375 0.33984,-0.953125 0.60938,-1.953125 0.52734,-2 0.44922,-2.042969 0.38281,-2.083984 0.31446,-2.117188 0.25195,-2.152343 0.18945,-2.181641 0.13086,-2.210937 -11.29492,-5.986329 -1.75586,1.34961 -1.69922,1.382812 -1.63867,1.416016 -1.57617,1.451172 -1.50977,1.484375 -1.4375,1.521484 -1.35937,1.558594 -1.27344,1.599609 -0.59961,0.816407 -0.57031,0.830078 -0.27149,0.419922 -0.26367,0.425781 -0.25195,0.429687 -0.24024,0.435547 -13.6875,-5.255859 0.11329,-0.482422 0.0996,-0.488281 0.0879,-0.490235 0.0801,-0.496094 0.13086,-0.998046 0.10157,-1.007813 0.125,-2.041015 0.0312,-2.06836 -0.0508,-2.091797 L 231.73047,15.28125 231.5293,13.148438 231.25977,11 230.92188,8.8339844 230.51953,6.65625 218.12109,3.5488281 l -1.38281,1.7285157 -1.31836,1.75 -1.2539,1.7675781 -1.18164,1.7851561 -1.11133,1.802734 -1.03125,1.822266 -0.94727,1.837891 -0.85351,1.857422 -0.38672,0.9375 -0.35547,0.941406 -0.16211,0.474609 -0.1543,0.47461 -0.14258,0.478515 -0.12695,0.478516 -14.54883,-1.824219 -0.006,-0.496094 -0.0195,-0.498046 -0.0312,-0.5 -0.043,-0.498047 -0.11133,-1.001953 -0.14257,-1.001954 -0.36524,-2.011718 -0.46484,-2.015625 -0.55078,-2.0195316 -0.63086,-2.0214844 -0.70508,-2.0214844 -0.77734,-2.0234375 -0.84571,-2.0195312 -0.91211,-2.01953128 -12.7832,-0.0507812 z m 4.81055,38.25195262 5.45117,6.236329 -12.0957,96.410159 -7.29688,8.47265 -4.29883,2.44336 -3.90429,3.03516 -3.42969,3.5625 -10.01563,4.97656 -96.408199,-12.0957 -4.695313,-6.82227 2.646484,-8.91992 3.22461,-8.72851 3.787109,-8.49805 4.335938,-8.23242 4.865234,-7.92969 L 67.125,94.226562 72.984375,87 l 6.318359,-6.830078 6.751954,-6.400391 7.15625,-5.947265 7.529292,-5.464844 7.8711,-4.962891 8.17969,-4.435547 8.45117,-3.890625 8.6875,-3.330078 8.88672,-2.753906 9.04882,-2.167969 9.16993,-1.572265 9.2539,-0.96875 9.29688,-0.361329 z m 36.82226,4.621094 8.91992,2.646485 8.72852,3.222656 8.49805,3.789062 8.23242,4.335938 7.92969,4.865234 7.59765,5.373047 7.22657,5.859375 6.83007,6.318359 6.40039,6.751954 5.94727,7.15625 5.46484,7.529294 4.96289,7.8711 4.4336,8.17968 3.89258,8.45118 3.33007,8.6875 2.75391,8.88671 2.16797,9.04883 1.57227,9.16992 0.96874,9.25391 0.35938,9.29688 -6.23438,5.45117 -96.41015,-12.09571 -8.47266,-7.29687 -2.44336,-4.29883 -3.03515,-3.9043 -3.5625,-3.43164 -4.97657,-10.01367 12.09571,-96.408201 6.82226,-4.695313 z M 180.68945,170.42969 a 9.6653799,9.6653799 0 0 1 0.96289,0.0723 9.6653799,9.6653799 0 0 1 8.38672,10.79297 9.6653799,9.6653799 0 0 1 -10.79297,8.38672 9.6653799,9.6653799 0 0 1 -8.38671,-10.79297 9.6653799,9.6653799 0 0 1 9.83007,-8.45898 z m -136.181638,5.07422 96.410158,12.0957 8.47461,7.29492 2.4414,4.30078 3.03516,3.9043 3.5625,3.42969 4.97656,10.01367 -12.0957,96.41015 -6.82227,4.69532 -8.91992,-2.64649 -8.72656,-3.22461 -8.5,-3.78711 -8.23242,-4.33593 -7.92969,-4.86719 -7.595702,-5.37305 -7.228516,-5.85742 -6.830078,-6.31836 -6.400391,-6.75195 -5.947265,-7.15625 -5.464844,-7.5293 -4.960938,-7.87109 -4.4375,-8.17969 -3.890625,-8.45117 -3.330078,-8.6875 -2.755859,-8.88672 -2.166016,-9.04883 -1.572266,-9.17187 -0.966796,-9.25196 -0.361328,-9.29883 6.234374,-5.44921 z m 172.392578,21.6289 96.41016,12.09571 4.69531,6.82226 -2.64648,8.91992 -3.22461,8.72657 -3.78711,8.49804 -4.33594,8.23438 -4.86524,7.92969 -5.37304,7.5957 -5.85938,7.22851 -6.31836,6.83008 -6.75195,6.40039 -7.15625,5.94727 -7.5293,5.46484 -7.87109,4.96094 -8.17969,4.43555 -8.45117,3.89257 -8.6875,3.33008 -8.88672,2.75391 -9.04883,2.16797 -9.16992,1.57226 -9.2539,0.9668 -9.29883,0.36133 -5.44922,-6.23438 12.0957,-96.41015 7.29492,-8.47461 4.30078,-2.44141 3.9043,-3.03515 3.43164,-3.5625 10.01172,-4.97657 z"
         transform="matrix(0.00962411,0.00120748,0.00120748,-0.00962411,-0.20317479,3.2662787)"
         id="path8"
         inkscape:connector-curvature="0" />
    </g>
  </g>
  <circle
     style="fill:none;fill-opacity:1;stroke:none;stroke-width:0.93592155;stroke-linecap:round;stroke-linejoin:miter;stroke-miterlimit:4;stroke-dasharray:none;stroke-opacity:1"
     id="path4158"
     cx="-235.61829"
     cy="92.271187"
     r="172.62775"
     transform="matrix(-0.91962511,-0.39279722,-0.39279722,0.91962511,0,0)" />
  <g
     transform="matrix(-0.34833425,-0.9373704,0.9373704,-0.34833425,76.996638,408.31762)"
     style="font-style:normal;font-weight:normal;font-size:30px;line-height:125%;font-family:sans-serif;letter-spacing:24.15999985px;word-spacing:0px;fill:#000000;fill-opacity:1;stroke:none;stroke-width:1px;stroke-linecap:butt;stroke-linejoin:miter;stroke-opacity:1"
     id="text4160">
    <path
       d="m 40.717326,116.61716 q 0.563447,0.20792 0.814918,0.75352 0.260143,0.56441 0.05222,1.12786 -0.207919,0.56345 -0.767262,0.80985 -0.550673,0.26521 -1.11412,0.0573 L 27.334727,114.8016 q -1.704085,-0.62883 -3.359702,0.13425 -1.655616,0.76309 -2.284446,2.46717 -0.628829,1.70409 0.134256,3.3597 0.763085,1.65562 2.467169,2.28445 l 12.368359,4.56408 q 0.563447,0.20792 0.814918,0.75352 0.260143,0.56442 0.05222,1.12787 -0.207919,0.56344 -0.767262,0.80984 -0.550673,0.26522 -1.11412,0.0573 l -12.368358,-4.56409 q -2.844723,-1.04974 -4.119421,-3.81537 -1.266027,-2.74682 -0.216288,-5.59154 1.04974,-2.84472 3.801629,-4.12449 2.760561,-1.26096 5.605283,-0.21122 l 12.368359,4.56409 z"
       style="font-style:normal;font-variant:normal;font-weight:normal;font-stretch:normal;font-size:30px;font-family:Instruction;-inkscape-font-specification:Instruction;letter-spacing:24.13999939px"
       id="path4253" />
    <path
       d="m 17.964848,162.22647 0.978048,-8.73448 -8.006602,-0.89654 q -0.596856,-0.0668 -0.9846769,-0.55246 -0.3748939,-0.46944 -0.3080607,-1.06629 0.066833,-0.59686 0.5379016,-0.98631 0.483996,-0.37327 1.080852,-0.30643 l 18.924695,2.1191 q 0.596855,0.0668 0.971749,0.53627 0.387822,0.48563 0.320988,1.08248 -0.06683,0.59686 -0.550829,0.97012 -0.471069,0.38946 -1.067924,0.32262 l -8.006602,-0.89654 -0.978047,8.73447 8.006601,0.89655 q 0.596856,0.0668 0.97175,0.53627 0.387821,0.48563 0.320988,1.08248 -0.06683,0.59686 -0.550829,0.97012 -0.471069,0.38945 -1.067925,0.32262 l -18.9246942,-2.1191 q -0.5968558,-0.0668 -0.9846771,-0.55246 -0.374894,-0.46944 -0.3080607,-1.0663 0.066833,-0.59685 0.5379019,-0.98631 0.483996,-0.37326 1.0808517,-0.30643 l 8.0066014,0.89655 z"
       style="font-style:normal;font-variant:normal;font-weight:normal;font-stretch:normal;font-size:30px;font-family:Instruction;-inkscape-font-specification:Instruction;letter-spacing:24.13999939px"
       id="path4255" />
    <path
       d="m 30.348181,202.99068 -18.878799,2.49512 q -0.595408,0.0787 -1.088652,-0.29939 -0.4768032,-0.36549 -0.5554954,-0.96089 -0.078692,-0.59541 0.2848704,-1.08674 0.380004,-0.47872 0.975413,-0.55741 l 9.192523,-1.21493 -9.866831,-1.65112 -0.0038,-0.029 q -0.4162172,-0.0189 -0.7779297,-0.29613 -0.4932442,-0.37809 -0.5719364,-0.97349 -0.078692,-0.59541 0.3013121,-1.07414 0.275343,-0.37623 0.672367,-0.50258 l -0.0038,-0.0291 9.099102,-4.15774 -9.1925233,1.21493 q -0.5954083,0.0787 -1.0886525,-0.2994 -0.4768028,-0.36548 -0.555495,-0.96089 -0.078692,-0.5954 0.2848706,-1.08673 0.3800043,-0.47872 0.9754126,-0.55741 l 18.8787986,-2.49512 q 0.595408,-0.0787 1.088653,0.29939 0.476802,0.36548 0.555495,0.96089 0.07869,0.59541 -0.284871,1.08673 -0.342196,0.4294 -1.246662,0.74103 l -13.268487,6.03862 14.381693,2.38423 q 1.037409,0.24706 1.407886,0.47883 0.467206,0.29288 0.545898,0.88828 0.07869,0.59541 -0.301312,1.07413 -0.363563,0.49133 -0.958971,0.57002 z"
       style="font-style:normal;font-variant:normal;font-weight:normal;font-stretch:normal;font-size:30px;font-family:Instruction;-inkscape-font-specification:Instruction;letter-spacing:24.13999939px"
       id="path4257" />
    <path
       d="m 36.597206,227.25651 -16.374622,6.39235 3.728875,9.55187 q 0.218405,0.55946 -0.03648,1.11499 -0.235911,0.56385 -0.795378,0.78226 -0.559466,0.2184 -1.12864,-0.0312 -0.550202,-0.24123 -0.768608,-0.8007 l -4.261571,-10.91641 q -0.218406,-0.55947 0.0175,-1.12332 0.254884,-0.55553 0.81435,-0.77393 l 17.739174,-6.92506 q 0.559466,-0.2184 1.109668,0.0228 0.569175,0.24955 0.78758,0.80902 0.218406,0.55946 -0.03648,1.11499 -0.235911,0.56385 -0.795377,0.78226 z"
       style="font-style:normal;font-variant:normal;font-weight:normal;font-stretch:normal;font-size:30px;font-family:Instruction;-inkscape-font-specification:Instruction;letter-spacing:24.13999939px"
       id="path4259" />
    <path
       d="m 48.659801,277.42633 q -2.480396,1.74414 -5.480431,1.2213 -2.979626,-0.51929 -4.723769,-2.99969 -1.744143,-2.48039 -1.23328,-5.472 0.531272,-2.98806 3.011668,-4.7322 l 5.991294,-4.2129 q 2.480396,-1.74415 5.460022,-1.22486 3.000035,0.52285 4.744178,3.00324 1.744143,2.4804 1.212871,5.46845 -0.510864,2.99161 -2.991259,4.73575 l -5.991294,4.21291 z m -6.74065,-9.58607 q -1.485841,1.0448 -1.798837,2.84074 -0.312996,1.79594 0.731804,3.28178 1.044801,1.48584 2.84074,1.79884 1.795939,0.31299 3.28178,-0.73181 l 5.991294,-4.2129 q 1.485841,-1.04481 1.798838,-2.84074 0.312996,-1.79594 -0.731805,-3.28178 -1.0448,-1.48585 -2.84074,-1.79884 -1.795939,-0.313 -3.28178,0.7318 l -5.991294,4.21291 z"
       style="letter-spacing:24.23999977px"
       id="path4261" />
    <path
       d="m 76.604316,287.4171 q 0.05357,0.60886 -0.118707,1.25451 l -2.615313,15.97959 9.032918,-10.41201 q 0.393571,-0.45366 0.99283,-0.49616 0.619923,-0.044 1.073582,0.3496 0.453658,0.39357 0.48656,1.00389 0.05357,0.60886 -0.340004,1.06252 l -12.479059,14.38429 q -0.39357,0.45366 -1.013494,0.49762 -0.599259,0.0425 -1.052917,-0.35106 -0.453659,-0.39357 -0.507225,-1.00243 -0.0329,-0.61033 0.139372,-1.25597 l 2.615313,-15.97959 -9.032919,10.41201 q -0.39357,0.45366 -1.013494,0.49762 -0.599259,0.0425 -1.052917,-0.35107 -0.453659,-0.39357 -0.507225,-1.00242 -0.0329,-0.61033 0.360669,-1.06399 l 12.479058,-14.38428 q 0.393571,-0.45366 0.99283,-0.49616 0.619923,-0.044 1.073582,0.3496 0.453658,0.39357 0.48656,1.00389 z"
       style="font-style:normal;font-variant:normal;font-weight:normal;font-stretch:normal;font-size:30px;font-family:Instruction;-inkscape-font-specification:Instruction;letter-spacing:24.13999939px"
       id="path4263" />
    <path
       d="m 110.42301,314.11108 -7.99624,15.6541 q -0.2732,0.53484 -0.86446,0.72629 -0.57155,0.18507 -1.1064,-0.0881 -0.534847,-0.2732 -0.732957,-0.85142 -0.178401,-0.58459 0.0948,-1.11944 l 7.996243,-15.65409 -3.91353,-1.99906 q -0.53484,-0.27321 -0.73295,-0.85142 -0.17841,-0.5846 0.0948,-1.11944 0.2732,-0.53485 0.84475,-0.71992 0.59126,-0.19144 1.12611,0.0818 l 10.43606,5.33083 q 0.53485,0.2732 0.71325,0.8578 0.19811,0.57821 -0.0751,1.11306 -0.27321,0.53485 -0.86447,0.72629 -0.57155,0.18507 -1.10639,-0.0881 l -3.91353,-1.99906 z"
       style="font-style:normal;font-variant:normal;font-weight:normal;font-stretch:normal;font-size:30px;font-family:Instruction;-inkscape-font-specification:Instruction;letter-spacing:24.13999939px"
       id="path4265" />
    <path
       d="m 146.85412,345.37918 q -0.1385,0.5844 -0.66745,0.91067 -0.51131,0.31539 -1.09571,0.17689 -0.5844,-0.13849 -0.89642,-0.66407 -0.32964,-0.51469 -0.19452,-1.08484 -2.17314,0.97535 -4.61051,0.39771 -2.9505,-0.69924 -4.5526,-3.27684 -1.58446,-2.58847 -0.88522,-5.53897 l 1.689,-7.12681 q 0.69925,-2.9505 3.27347,-4.53834 2.59185,-1.59872 5.54235,-0.89947 2.9505,0.69924 4.53496,3.28771 1.6021,2.5776 0.90285,5.5281 -0.1385,0.5844 -0.66745,0.91066 -0.51131,0.3154 -1.09571,0.1769 -0.5844,-0.1385 -0.91405,-0.65319 -0.31201,-0.52557 -0.17352,-1.10997 0.41888,-1.76745 -0.53818,-3.31903 -0.95705,-1.55159 -2.7245,-1.97046 -1.76745,-0.41887 -3.31904,0.53818 -1.55158,0.95706 -1.97045,2.72451 l -1.689,7.12681 q -0.41887,1.76745 0.53818,3.31903 0.95706,1.55159 2.72451,1.97046 1.76745,0.41887 3.31903,-0.53818 1.55158,-0.95706 1.97046,-2.72451 l 0.1689,-0.71268 -4.98877,-1.1823 q -0.5844,-0.1385 -0.91405,-0.65319 -0.31201,-0.52557 -0.17352,-1.10997 0.1385,-0.5844 0.64982,-0.89979 0.52895,-0.32627 1.11335,-0.18778 l 6.41413,1.5201 q 0.5844,0.1385 0.89641,0.66407 0.32965,0.5147 0.19115,1.0991 l -1.8579,7.83949 z"
       style="font-style:normal;font-variant:normal;font-weight:normal;font-stretch:normal;font-size:30px;font-family:Instruction;-inkscape-font-specification:Instruction;letter-spacing:24.13999939px"
       id="path4267" />
    <path
       d="m 179.21306,347.16904 -0.17037,-16.11238 -4.39429,0.0465 q -0.60055,0.006 -1.04447,-0.41378 -0.42943,-0.43494 -0.43578,-1.03549 -0.006,-0.60056 0.41394,-1.02983 0.43478,-0.44407 1.03534,-0.45042 l 11.71809,-0.12391 q 0.60055,-0.006 1.02998,0.42858 0.44392,0.42014 0.45027,1.02069 0.006,0.60055 -0.42843,1.04463 -0.42029,0.42927 -1.02084,0.43562 l -4.39429,0.0465 0.17038,16.11238 4.39428,-0.0465 q 0.60056,-0.006 1.02998,0.42859 0.44392,0.42013 0.45027,1.02068 0.006,0.60056 -0.42843,1.04463 -0.42029,0.42927 -1.02084,0.43562 l -11.71809,0.12391 q -0.60056,0.006 -1.04448,-0.41378 -0.42942,-0.43494 -0.43577,-1.03549 -0.006,-0.60055 0.41393,-1.02982 0.43479,-0.44408 1.03534,-0.45043 l 4.39428,-0.0465 z"
       style="font-style:normal;font-variant:normal;font-weight:normal;font-stretch:normal;font-size:30px;font-family:Instruction;-inkscape-font-specification:Instruction;letter-spacing:24.13999939px"
       id="path4269" />
    <path
       d="m 217.58057,341.57244 -0.1217,2.75437 q -0.0605,0.93841 -0.30541,1.45539 -0.23434,0.49914 -0.8159,0.64911 -0.58156,0.14998 -1.11317,-0.15162 -0.52109,-0.31945 -0.67107,-0.901 -0.12437,-0.48227 -0.009,-1.20791 l 0.85407,-18.97864 0.0284,-0.007 q -0.0315,-0.41546 0.21426,-0.81165 0.30161,-0.53161 0.88316,-0.68159 0.58156,-0.14998 1.11683,0.16581 0.39254,0.23158 0.56588,0.61045 l 0.0284,-0.007 9.92602,16.19853 q 0.45196,0.57932 0.57633,1.06158 0.14998,0.58156 -0.16581,1.11683 -0.30526,0.51743 -0.88682,0.66741 -0.58156,0.14998 -1.04225,-0.16991 -0.45016,-0.33774 -0.95699,-1.12982 l -1.43859,-2.35199 -6.66663,1.71928 z m 5.06978,-4.33301 -4.56047,-7.47694 -0.37568,8.74994 4.93615,-1.273 z"
       style="font-style:normal;font-variant:normal;font-weight:normal;font-stretch:normal;font-size:30px;font-family:Instruction;-inkscape-font-specification:Instruction;letter-spacing:24.13999939px"
       id="path4271" />
    <path
       d="m 257.15936,321.34816 -0.45686,7.72705 7.9759,-4.28218 q 0.52914,-0.2841 1.11129,-0.0979 0.58812,0.1664 0.87222,0.69554 0.28409,0.52915 0.10478,1.1242 -0.17333,0.57522 -0.70247,0.85931 l -10.32478,5.54328 q -0.52915,0.2841 -1.11727,0.1177 -0.58215,-0.18624 -0.86624,-0.71539 -0.2841,-0.52914 -0.17667,-1.56776 l 0.45686,-7.72705 -1.51,0.81071 q -0.52915,0.28409 -1.11727,0.11769 -0.58215,-0.18624 -0.86624,-0.71538 -0.28409,-0.52915 -0.11076,-1.10436 0.1793,-0.59506 0.70845,-0.87915 l 3.11034,-1.66991 0.45686,-7.72705 -7.97589,4.28218 q -0.52915,0.28409 -1.11727,0.11769 -0.58215,-0.18623 -0.86624,-0.71538 -0.2841,-0.52914 -0.11077,-1.10436 0.17931,-0.59505 0.70846,-0.87915 l 10.32478,-5.54328 q 0.52914,-0.28409 1.11129,-0.0978 0.58812,0.1664 0.87222,0.69554 0.28409,0.52915 0.17667,1.56776 l -0.45686,7.72706 1.51,-0.81071 q 0.52914,-0.28409 1.11129,-0.0979 0.58812,0.1664 0.87221,0.69555 0.2841,0.52914 0.10479,1.1242 -0.17333,0.57521 -0.70247,0.85931 l -3.11035,1.66991 z"
       style="font-style:normal;font-variant:normal;font-weight:normal;font-stretch:normal;font-size:30px;font-family:Instruction;-inkscape-font-specification:Instruction;letter-spacing:24.13999939px"
       id="path4273" />
    <path
       d="m 287.76482,298.31487 5.30301,8.05987 q 0.40247,0.44579 0.37076,1.06646 -0.0306,0.59998 -0.47643,1.00245 -0.44579,0.40246 -1.05665,0.38163 -0.60979,-0.0415 -1.01226,-0.48731 l -14.5769,-11.88357 q -0.19179,-0.10314 -0.35866,-0.28798 -0.40247,-0.44579 -0.37182,-1.04577 0.0317,-0.62067 0.47749,-1.02313 0.44579,-0.40246 1.05559,-0.36095 0.61086,0.0208 1.01332,0.46662 l 7.46778,6.08578 -5.2932,-8.049 q -0.40246,-0.44579 -0.37182,-1.04578 0.0317,-0.62067 0.47749,-1.02313 0.44579,-0.40246 1.05559,-0.36094 0.61086,0.0208 1.01332,0.46662 l 7.46778,6.08577 -5.2932,-8.049 q -0.40246,-0.44579 -0.37182,-1.04577 0.0317,-0.62068 0.4775,-1.02314 0.44579,-0.40246 1.05558,-0.36094 0.61086,0.0208 1.01332,0.46662 0.16688,0.18484 0.24994,0.38614 l 10.33647,15.71186 q 0.40246,0.44579 0.37076,1.06646 -0.0306,0.59999 -0.47644,1.00245 -0.44579,0.40246 -1.05664,0.38163 -0.6098,-0.0415 -1.01226,-0.48731 l -7.4776,-6.09664 z"
       style="font-style:normal;font-variant:normal;font-weight:normal;font-stretch:normal;font-size:30px;font-family:Instruction;-inkscape-font-specification:Instruction;letter-spacing:24.13999939px"
       id="path4275" />
    <path
       d="m 313.0603,270.7412 0.91002,3.96996 5.04075,3.39798 q 0.49801,0.3357 0.61676,0.94573 0.1148,0.5897 -0.22091,1.0877 -0.3357,0.498 -0.93358,0.62494 -0.60184,0.10661 -1.09985,-0.22909 l -15.79032,-10.64427 q -0.498,-0.3357 -0.6128,-0.9254 -0.11875,-0.61003 0.21695,-1.10803 0.33571,-0.498 0.93755,-0.60461 0.59788,-0.12694 1.09588,0.20876 l 7.36072,4.96187 -2.8731,-12.53629 q -0.12434,-0.31347 -0.19164,-0.65915 -0.11479,-0.5897 0.22091,-1.0877 0.33571,-0.498 0.93755,-0.60461 0.59788,-0.12694 1.09588,0.20876 0.498,0.3357 0.6128,0.9254 0.0831,0.42702 0.0696,0.68291 l 1.91558,8.32231 q 0.19093,0.005 0.39796,0.0386 l 11.2522,0.34211 q 1.04415,-0.003 1.54215,0.33294 0.498,0.3357 0.61676,0.94573 0.1148,0.5897 -0.22091,1.0877 -0.3357,0.498 -0.93358,0.62494 -0.60184,0.10661 -1.26361,0.0138 L 313.0603,270.7412 Z"
       style="letter-spacing:24.29999924px"
       id="path4277" />
    <path
       d="m 339.10831,241.85853 q 0.56368,0.20729 0.82445,0.77141 0.25208,0.54533 0.0448,1.109 -0.20729,0.56368 -0.75766,0.82951 -0.55907,0.24702 -1.12275,0.0397 L 320.2244,238.0355 q -0.56368,-0.20729 -0.81576,-0.75261 -0.26077,-0.56413 -0.0535,-1.12781 l 4.04473,-10.9986 q 0.20729,-0.56368 0.76636,-0.8107 0.55037,-0.26583 1.11405,-0.0585 0.56368,0.2073 0.82445,0.77142 0.25208,0.54532 0.0448,1.109 l -3.53914,9.62378 6.18672,2.27516 3.03354,-8.24896 q 0.20729,-0.56367 0.76636,-0.8107 0.55038,-0.26582 1.11406,-0.0585 0.56368,0.20729 0.82445,0.77142 0.25208,0.54532 0.0448,1.109 l -3.03354,8.24895 7.56154,2.78075 z"
       style="font-style:normal;font-variant:normal;font-weight:normal;font-stretch:normal;font-size:30px;font-family:Instruction;-inkscape-font-specification:Instruction;letter-spacing:24.13999939px"
       id="path4279" />
    <path
       d="m 343.83904,196.92373 6.15813,4.80916 q 0.56466,0.35734 0.95303,0.84253 0.37543,0.46901 0.30927,1.06594 -0.0662,0.59693 -0.53678,0.98692 -0.48357,0.37381 -1.08051,0.30765 -0.59693,-0.0662 -1.39138,-0.74372 l -7.46062,-5.82306 -8.55461,4.04814 q -0.92354,0.48717 -1.52047,0.42101 -0.59693,-0.0661 -0.97236,-0.53516 -0.38837,-0.48519 -0.32222,-1.08212 0.0662,-0.59693 0.54973,-0.97075 0.47063,-0.38998 1.09983,-0.61501 l 7.06172,-3.34405 -6.15812,-4.80916 q -0.56466,-0.35734 -0.94009,-0.82635 -0.38837,-0.48519 -0.32222,-1.08212 0.0662,-0.59693 0.54973,-0.97074 0.47063,-0.38999 1.06756,-0.32383 0.59693,0.0661 1.39139,0.74372 l 7.46061,5.82307 8.55461,-4.04815 q 0.92354,-0.48717 1.52048,-0.42101 0.59693,0.0661 0.9853,0.55134 0.37543,0.46901 0.30927,1.06594 -0.0662,0.59693 -0.53678,0.98692 -0.48358,0.37381 -1.11278,0.59884 l -7.06172,3.34405 z"
       style="font-style:normal;font-variant:normal;font-weight:normal;font-stretch:normal;font-size:30px;font-family:Instruction;-inkscape-font-specification:Instruction;letter-spacing:24.13999939px"
       id="path4281" />
    <path
       d="m 344.81747,152.77091 q -0.41624,-0.0184 -0.86636,0.0416 l -7.25999,0.96783 q -1.80048,0.24003 -2.9079,1.68813 -1.10742,1.44809 -0.86739,3.24857 0.24002,1.80048 1.68812,2.9079 1.4481,1.10742 3.24858,0.86739 l 7.25999,-0.96784 q 1.80048,-0.24002 2.90789,-1.68812 1.10742,-1.4481 0.8674,-3.24857 -0.1897,-1.42296 -1.13541,-2.42002 l -2.57201,2.32314 q -0.77926,0.695 -1.37457,0.77436 -0.59532,0.0794 -1.07254,-0.28558 -0.49367,-0.37753 -0.57303,-0.97285 -0.0794,-0.59532 0.3001,-1.07447 0.36301,-0.49173 0.91962,-0.86149 l 1.4375,-1.29999 z m 5.12845,-0.55068 q 1.53424,1.64272 1.84589,3.98044 0.40068,3.00564 -1.43469,5.42268 -1.85183,2.40447 -4.85747,2.80515 l -7.25999,0.96784 q -3.00563,0.40068 -5.40816,-1.43662 -2.41898,-1.8499 -2.81967,-4.85553 -0.40068,-3.00564 1.45115,-5.4101 1.83537,-2.41705 4.84101,-2.81773 l 7.25999,-0.96784 q 2.07635,-0.2768 3.86713,0.51893 l 0.56629,-0.51883 q 0.77925,-0.69501 1.37457,-0.77437 0.59532,-0.0794 1.08899,0.29816 0.47721,0.36495 0.55658,0.96027 0.0794,0.59532 -0.30011,1.07447 -0.31267,0.42591 -0.77151,0.75308 z"
       style="font-style:normal;font-variant:normal;font-weight:normal;font-stretch:normal;font-size:30px;font-family:Instruction;-inkscape-font-specification:Instruction;letter-spacing:24.13999939px"
       id="path4283" />
    <path
       d="m 323.58035,121.74265 2.00333,5.11483 6.1378,-2.404 -2.00333,-5.11483 q -0.49683,-1.26848 -1.74963,-1.8161 -1.2528,-0.54763 -2.52127,-0.0508 -1.26848,0.49683 -1.81611,1.74963 -0.54762,1.25279 -0.0508,2.52127 z m 9.58691,-1.63111 1.28213,3.27349 7.50175,-2.93822 q 0.55923,-0.21903 1.12868,0.0299 0.55047,0.24062 0.7695,0.79984 0.21903,0.55922 -0.0162,1.12333 -0.25426,0.55582 -0.81348,0.77485 l -17.73141,6.9449 q -0.55923,0.21903 -1.1097,-0.0216 -0.56945,-0.24892 -0.78848,-0.80814 l -2.53756,-6.47878 q -0.94023,-2.40056 0.10227,-4.75965 1.02353,-2.36738 3.42409,-3.30761 2.40056,-0.94023 4.7543,0.0886 1.6704,0.73016 2.6287,2.13253 l 4.7653,-6.35004 q 0.59104,-0.86077 1.15026,-1.0798 0.55922,-0.21903 1.12868,0.0299 0.55047,0.24062 0.7695,0.79984 0.21903,0.55922 -0.0163,1.12333 -0.25426,0.55582 -0.70664,1.04764 l -5.68539,7.57567 z"
       style="letter-spacing:24.17000008px"
       id="path4285" />
    <path
       d="m 314.56251,86.218953 -0.22977,0.538411 -3.72277,8.701137 q -0.36868,0.976906 -0.85951,1.323003 -0.49084,0.346096 -1.08282,0.243718 -0.61239,-0.105908 -0.95848,-0.596745 -0.3461,-0.490836 -0.23175,-1.091255 0.0939,-0.603949 0.41595,-1.189478 l 3.07153,-7.184439 -7.7987,0.480325 q -0.65967,0.106664 -1.25164,0.0043 -0.61239,-0.105908 -0.95849,-0.596745 -0.3461,-0.490836 -0.23175,-1.091255 0.0939,-0.603949 0.58478,-0.950045 0.49083,-0.346096 1.53481,-0.365272 l 9.44603,-0.58437 0.5843,-0.0356 7.37453,-5.199885 q 0.49083,-0.346096 1.10322,-0.240188 0.59198,0.102378 0.93808,0.593215 0.34609,0.490837 0.25216,1.094785 -0.11435,0.600419 -0.60519,0.946515 l -7.37452,5.199884 z"
       style="font-style:normal;font-variant:normal;font-weight:normal;font-stretch:normal;font-size:30px;font-family:Instruction;-inkscape-font-specification:Instruction;letter-spacing:24.13999939px"
       id="path4287" />
    <path
       d="m 294.63524,47.87779 q 0.45395,0.393241 0.48729,1.003541 0.0437,0.464179 -0.16955,0.822145 l 0.0221,0.01918 -7.68586,17.373704 q -0.21976,0.701128 -0.54586,1.077569 -0.39324,0.453944 -0.99247,0.49688 -0.61989,0.04442 -1.07383,-0.348824 -0.45395,-0.393241 -0.43193,-0.955585 0.001,-0.560863 0.36498,-1.428068 l 5.92004,-13.321814 -12.34169,7.758892 q -0.8065,0.483555 -1.35037,0.574448 -0.56453,0.09237 -1.01847,-0.300868 -0.45395,-0.393241 -0.48729,-1.003542 -0.054,-0.608819 0.33923,-1.062763 0.3261,-0.376441 0.98874,-0.693919 l 16.10042,-10.084359 0.0222,0.01918 q 0.32391,-0.262054 0.7785,-0.294626 0.61989,-0.04442 1.07383,0.348824 z"
       style="font-style:normal;font-variant:normal;font-weight:normal;font-stretch:normal;font-size:30px;font-family:Instruction;-inkscape-font-specification:Instruction;letter-spacing:24.13999939px"
       id="path4289" />
    <path
       d="m 263.50489,34.201462 q -0.27282,0.535043 -0.84424,0.720516 -0.59112,0.191868 -1.12617,-0.08096 -0.53504,-0.272823 -0.71386,-0.85729 -0.19852,-0.578072 0.0743,-1.113115 0.82513,-1.618179 0.26231,-3.352136 -0.56281,-1.733956 -2.18099,-2.55908 -1.61818,-0.825123 -3.35213,-0.26231 -1.73396,0.562813 -2.55908,2.180992 l -5.9888,11.744846 q -0.27283,0.535043 -0.84425,0.720516 -0.59112,0.191868 -1.12616,-0.08096 -0.53504,-0.272824 -0.71386,-0.857291 -0.19852,-0.578072 0.0743,-1.113115 l 5.9888,-11.744846 q 1.37742,-2.701314 4.27392,-3.641468 2.87679,-0.933759 5.57811,0.443665 2.70131,1.377425 3.64812,4.26087 0.9271,2.889842 -0.45032,5.591156 z"
       style="font-style:normal;font-variant:normal;font-weight:normal;font-stretch:normal;font-size:30px;font-family:Instruction;-inkscape-font-specification:Instruction;letter-spacing:24.13999939px"
       id="path4291" />
    <path
       d="m 214.98699,11.169127 q -0.5845,-0.138076 -0.8969,-0.663421 -0.33002,-0.5144571 -0.19194,-1.0989557 0.13808,-0.5844985 0.66679,-0.9111494 0.51109,-0.3157625 1.09559,-0.1776868 l 11.40485,2.6941599 q 0.58449,0.138076 0.91451,0.652533 0.3124,0.525345 0.17432,1.109844 l -4.37801,18.532881 q -0.13807,0.584498 -0.64916,0.900261 -0.52872,0.326651 -1.11321,0.188575 l -11.40485,-2.69416 q -0.5845,-0.138076 -0.8969,-0.663421 -0.33002,-0.514457 -0.19194,-1.098956 0.13807,-0.584498 0.66679,-0.911149 0.51109,-0.315762 1.09559,-0.177687 l 9.97924,2.357391 1.51546,-6.415229 -8.55363,-2.02062 q -0.5845,-0.138076 -0.8969,-0.663421 -0.33002,-0.514457 -0.19194,-1.098955 0.13808,-0.584499 0.66679,-0.91115 0.51109,-0.315762 1.09559,-0.177686 l 8.55363,2.02062 1.51547,-6.415228 -9.97924,-2.35739 z"
       style="font-style:normal;font-variant:normal;font-weight:normal;font-stretch:normal;font-size:30px;font-family:Instruction;-inkscape-font-specification:Instruction;letter-spacing:24.13999939px"
       id="path4293" />
    <path
       d="m 179.04913,14.26072 5.49282,-0.06206 -0.091,-8.0561265 q -0.007,-0.6005476 0.42767,-1.0449374 0.41998,-0.4295769 1.02053,-0.4363621 0.60054,-0.00679 1.04477,0.4130276 0.42974,0.4346258 0.43653,1.0351735 l 0.21514,19.0417529 q 0.007,0.600548 -0.4132,1.030125 -0.43446,0.44439 -1.03501,0.451175 l -6.95756,0.07861 q -2.57796,0.02913 -4.41494,-1.78129 -1.85146,-1.795604 -1.88058,-4.373564 -0.0291,-2.577961 1.78112,-4.429585 1.79577,-1.836812 4.37373,-1.865938 z m 0.10757,9.520876 5.49282,-0.06206 -0.0745,-6.591376 -5.49281,0.06206 q -1.36222,0.01539 -2.31803,0.993049 -0.95581,0.977657 -0.94042,2.339875 0.0154,1.362218 0.99305,2.31803 0.97765,0.955813 2.33987,0.940422 z"
       style="font-style:normal;font-variant:normal;font-weight:normal;font-stretch:normal;font-size:30px;font-family:Instruction;-inkscape-font-specification:Instruction;letter-spacing:24.13999939px"
       id="path4295" />
    <path
       d="m 135.5938,26.951641 q -0.1504,-0.58145 0.16501,-1.116948 0.30489,-0.517648 0.88634,-0.668045 0.58145,-0.150396 1.11328,0.150827 0.52132,0.319073 0.67171,0.900523 0.34115,1.3189 1.51924,2.012791 1.1781,0.69389 2.497,0.352747 l 2.12725,-0.550232 q 1.3189,-0.341144 2.01279,-1.519239 0.69389,-1.178095 0.35275,-2.496994 -0.34114,-1.318899 -1.51924,-2.01279 -1.17809,-0.693891 -2.49699,-0.352747 l -2.12726,0.550232 q -2.49598,0.645605 -4.71304,-0.672251 -2.22757,-1.300005 -2.87318,-3.795987 -0.6456,-2.495981 0.66858,-4.727221 1.30368,-2.213391 3.79966,-2.858996 l 2.12726,-0.550232 q 2.49598,-0.6456054 4.72355,0.6544 2.21706,1.317856 2.86266,3.813837 0.1504,0.58145 -0.15449,1.099098 -0.31541,0.535498 -0.89686,0.685895 -0.58145,0.150396 -1.10276,-0.168677 -0.53183,-0.301223 -0.68223,-0.882673 -0.34114,-1.3189 -1.51924,-2.012791 -1.17809,-0.69389 -2.49699,-0.352747 l -2.12726,0.550232 q -1.3189,0.341144 -2.01279,1.519239 -0.69389,1.178095 -0.35275,2.496994 0.34115,1.318899 1.51924,2.01279 1.1781,0.693891 2.497,0.352747 l 2.12725,-0.550232 q 2.49599,-0.645605 4.72356,0.654401 2.21706,1.317855 2.86266,3.813837 0.64561,2.495981 -0.65807,4.709371 -1.31418,2.231241 -3.81017,2.876846 l -2.12725,0.550232 q -2.49598,0.645605 -4.71304,-0.67225 -2.22757,-1.300006 -2.87318,-3.795987 z"
       style="font-style:normal;font-variant:normal;font-weight:normal;font-stretch:normal;font-size:30px;font-family:Instruction;-inkscape-font-specification:Instruction;letter-spacing:24.13999939px"
       id="path4297" />
    <path
       d="m 99.460287,33.254281 q 0.284473,0.528942 0.111556,1.104283 -0.17888,0.595181 -0.707822,0.879653 -0.528941,0.284472 -1.111221,0.09865 -0.588242,-0.165979 -0.872714,-0.69492 -1.436239,-2.670509 -0.559728,-5.586894 0.870549,-2.896547 3.541058,-4.332785 2.670504,-1.436238 5.579954,-0.572628 2.90349,0.883449 4.33972,3.553958 l 3.46918,6.450505 q 1.43624,2.670508 0.56569,5.567055 -0.87651,2.916385 -3.54702,4.352624 -2.67051,1.436238 -5.57399,0.552788 -2.90945,-0.86361 -4.34569,-3.534118 -0.28447,-0.528942 -0.10559,-1.124123 0.17291,-0.575341 0.70186,-0.859813 0.52894,-0.284473 1.11718,-0.118494 0.58228,0.185818 0.86675,0.71476 0.86036,1.599725 2.60622,2.124439 1.74586,0.524714 3.34559,-0.335641 1.59972,-0.860355 2.12444,-2.606219 0.52471,-1.745864 -0.33564,-3.345589 l -3.46918,-6.450504 q -0.86035,-1.599725 -2.60622,-2.124439 -1.74586,-0.524714 -3.34558,0.335641 -1.59973,0.860355 -2.124444,2.606219 -0.524714,1.745863 0.335641,3.345588 z"
       style="font-style:normal;font-variant:normal;font-weight:normal;font-stretch:normal;font-size:30px;font-family:Instruction;-inkscape-font-specification:Instruction;letter-spacing:24.13999939px"
       id="path4299" />
    <path
       d="m 64.82862,49.149178 5.161254,-4.666403 q 0.445498,-0.402785 1.056368,-0.382397 0.609829,0.04108 1.012613,0.486576 l 12.77121,14.125539 q 0.402785,0.445497 0.372573,1.045502 -0.03125,0.620694 -0.476752,1.023478 l -5.161254,4.666404 q -1.912381,1.729025 -4.487741,1.588978 -2.576402,-0.119359 -4.305427,-2.031739 -1.729026,-1.912381 -1.599844,-4.477917 0.01354,-0.268967 0.04778,-0.536893 -0.27001,0.0071 -0.529153,0.0045 -2.57536,-0.140048 -4.304386,-2.052429 -1.729025,-1.91238 -1.598801,-4.498606 0.129182,-2.565536 2.041563,-4.294562 z m 12.77121,14.125539 4.074675,-3.684003 -4.420804,-4.889609 -4.074675,3.684003 q -1.010519,0.913632 -1.079277,2.27916 -0.06876,1.365527 0.844874,2.376046 0.913633,1.010519 2.27916,1.079278 1.365528,0.06876 2.376047,-0.844875 z m -6.385605,-7.062769 4.074674,-3.684003 -4.420803,-4.88961 -4.074675,3.684003 q -1.010519,0.913633 -1.079277,2.27916 -0.06876,1.365527 0.844874,2.376047 0.913633,1.010519 2.27916,1.079277 1.365528,0.06876 2.376047,-0.844874 z"
       style="font-style:normal;font-variant:normal;font-weight:normal;font-stretch:normal;font-size:30px;font-family:Instruction;-inkscape-font-specification:Instruction;letter-spacing:24.13999939px"
       id="path4301" />
    <path
       d="m 41.392519,74.767768 q 0.335344,-0.498245 0.933134,-0.625621 0.601764,-0.107043 1.100009,0.2283 L 59.223678,85.00329 q 0.498245,0.335344 0.613468,0.924955 0.119196,0.609943 -0.216147,1.108188 l -3.271644,4.860928 q -1.693076,2.515531 -4.673617,3.08744 -2.976568,0.592241 -5.492098,-1.100835 l -6.07616,-4.089555 q -2.51553,-1.693076 -3.099592,-4.681796 -0.580089,-2.968389 1.112987,-5.483919 l 3.271644,-4.860928 z m 14.980105,11.848075 -13.367552,-8.997021 -2.453733,3.645696 q -1.01421,1.506888 -0.664567,3.296053 0.349642,1.789166 1.85653,2.803376 l 6.07616,4.089555 q 1.506887,1.01421 3.296053,0.664567 1.789166,-0.349642 2.803376,-1.85653 l 2.453733,-3.645696 z"
       style="font-style:normal;font-variant:normal;font-weight:normal;font-stretch:normal;font-size:30px;font-family:Instruction;-inkscape-font-specification:Instruction;letter-spacing:24.13999939px"
       id="path4303" />
  </g>
</svg>
