<?xml version="1.0" encoding="UTF-8" standalone="no"?>
<!-- Created with Inkscape (http://www.inkscape.org/) -->

<svg
   xmlns:dc="http://purl.org/dc/elements/1.1/"
   xmlns:cc="http://creativecommons.org/ns#"
   xmlns:rdf="http://www.w3.org/1999/02/22-rdf-syntax-ns#"
   xmlns:svg="http://www.w3.org/2000/svg"
   xmlns="http://www.w3.org/2000/svg"
   xmlns:sodipodi="http://sodipodi.sourceforge.net/DTD/sodipodi-0.dtd"
   xmlns:inkscape="http://www.inkscape.org/namespaces/inkscape"
   width="244.69008"
   height="472.87448"
   viewBox="0 0 244.69008 472.8745"
   id="svg4316"
   version="1.1"
   inkscape:version="0.92.1 unknown"
   sodipodi:docname="clue.svg"
   inkscape:export-filename="/home/ryan/git/puzzle-box/Magnet_Grid/Clue/clue.png"
   inkscape:export-xdpi="96"
   inkscape:export-ydpi="96">
  <defs
     id="defs4318" />
  <sodipodi:namedview
     id="base"
     pagecolor="#ffffff"
     bordercolor="#666666"
     borderopacity="1.0"
     inkscape:pageopacity="0.0"
     inkscape:pageshadow="2"
     inkscape:zoom="0.49497475"
     inkscape:cx="250.78397"
     inkscape:cy="-30.459907"
     inkscape:document-units="px"
     inkscape:current-layer="g4283"
     showgrid="false"
     units="px"
     fit-margin-top="15"
     fit-margin-left="15"
     fit-margin-right="15"
     fit-margin-bottom="15"
     inkscape:window-width="1557"
     inkscape:window-height="879"
     inkscape:window-x="43"
     inkscape:window-y="21"
     inkscape:window-maximized="1" />
  <metadata
     id="metadata4321">
    <rdf:RDF>
      <cc:Work
         rdf:about="">
        <dc:format>image/svg+xml</dc:format>
        <dc:type
           rdf:resource="http://purl.org/dc/dcmitype/StillImage" />
        <dc:title></dc:title>
      </cc:Work>
    </rdf:RDF>
  </metadata>
  <g
     inkscape:label="Layer 1"
     inkscape:groupmode="layer"
     id="layer1"
     transform="translate(390.2456,-142.03144)">
    <g
       transform="matrix(2.6939182,0,0,2.6808514,-155.37983,139.83706)"
       id="g4303"
       style="fill:#c60000;fill-opacity:1">
      <g
         id="g4283"
         style="fill:#c60000;fill-opacity:1"
         transform="translate(0,4.4761901)">
        <g
           id="g1901"
           transform="translate(21.930989,8.8583519)">
          <g
             id="g4293"
             transform="matrix(0.99934881,0.03050152,-0.02833725,0.99978672,-0.44196313,19.17801)"
             style="fill:#c60000;fill-opacity:1">
            <g
               aria-label="524"
               style="font-style:normal;font-weight:normal;font-size:40px;line-height:125%;font-family:sans-serif;letter-spacing:15.89999962px;word-spacing:0px;fill:#c60000;fill-opacity:1;stroke:none;stroke-width:1px;stroke-linecap:butt;stroke-linejoin:miter;stroke-opacity:1"
               id="text4263">
              <path
                 d="m -95.263046,81.263382 v 5.859375 h 7.324218 q 3.4375,0 5.859375,2.441406 2.441407,2.421875 2.441407,5.859375 v 2.929688 q 0,3.437504 -2.441407,5.878904 -2.421875,2.42188 -5.859375,2.42188 h -2.929687 q -3.4375,0 -5.878906,-2.42188 -2.421875,-2.4414 -2.421875,-5.878904 0,-0.800782 0.566406,-1.367188 0.585937,-0.585937 1.386719,-0.585937 0.800781,0 1.367187,0.585937 0.585938,0.566406 0.585938,1.367188 0,1.816404 1.289062,3.105464 1.289063,1.28907 3.105469,1.28907 h 2.929687 q 1.816407,0 3.105469,-1.28907 1.289063,-1.28906 1.289063,-3.105464 v -2.949219 q 0,-1.796875 -1.289063,-3.085938 -1.289062,-1.289062 -3.105469,-1.289062 h -9.277343 q -0.800782,0 -1.386719,-0.566406 -0.566406,-0.585938 -0.566406,-1.386719 v -9.765625 q 0,-0.800781 0.566406,-1.367188 0.585937,-0.585937 1.386719,-0.585937 h 15.625 q 0.800781,0 1.367187,0.585937 0.585938,0.566407 0.585938,1.367188 0,0.800781 -0.585938,1.386719 -0.566406,0.566406 -1.367187,0.566406 z"
                 style="font-style:normal;font-variant:normal;font-weight:normal;font-stretch:normal;font-family:Instruction;-inkscape-font-specification:Instruction;letter-spacing:4.32391262px;fill:#c60000;fill-opacity:1"
                 id="path4777" />
              <path
                 d="m -71.407883,98.353226 q 0,-3.4375 2.421875,-5.859375 2.441407,-2.441407 5.878907,-2.441407 h 2.929687 q 1.816406,0 3.105469,-1.289062 1.289062,-1.289063 1.289062,-3.105469 0,-1.816406 -1.289062,-3.105469 -1.289063,-1.289062 -3.105469,-1.289062 h -2.929687 q -1.816407,0 -3.105469,1.289062 -1.289063,1.289063 -1.289063,3.105469 0,0.800781 -0.585937,1.386719 -0.566406,0.566406 -1.367188,0.566406 -0.800781,0 -1.386718,-0.566406 -0.566407,-0.585938 -0.566407,-1.386719 0,-3.4375 2.421875,-5.859375 2.441407,-2.441406 5.878907,-2.441406 h 2.929687 q 3.4375,0 5.859375,2.441406 2.441406,2.421875 2.441406,5.859375 0,3.4375 -2.441406,5.878906 -2.421875,2.421875 -5.859375,2.421875 h -2.929687 q -1.816407,0 -3.105469,1.289063 -1.289063,1.289062 -1.289063,3.105469 v 4.394534 h 13.671875 q 0.800782,0 1.367188,0.58593 0.585937,0.56641 0.585937,1.36719 0,0.80078 -0.585937,1.38672 -0.566406,0.56641 -1.367188,0.56641 h -15.625 q -0.800781,0 -1.386718,-0.56641 -0.566407,-0.58594 -0.566407,-1.38672 z"
                 style="font-style:normal;font-variant:normal;font-weight:normal;font-stretch:normal;font-family:Instruction;-inkscape-font-specification:Instruction;letter-spacing:4.32391262px;fill:#c60000;fill-opacity:1"
                 id="path4779" />
              <path
                 d="m -28.021469,79.310257 v 15.625 h 1.953125 q 0.800781,0 1.367187,0.585937 0.585938,0.566407 0.585938,1.367188 0,0.800781 -0.585938,1.386719 -0.566406,0.566406 -1.367187,0.566406 h -1.953125 v 5.859373 q 0,0.80078 -0.585938,1.38672 -0.566406,0.56641 -1.367187,0.56641 -0.800781,0 -1.386719,-0.56641 -0.566406,-0.58594 -0.566406,-1.38672 v -5.859373 h -9.765625 q -0.800781,0 -1.386719,-0.566406 -0.566406,-0.585938 -0.566406,-1.386719 0,-0.800781 0.585937,-1.386719 l 0.234375,-0.429687 10.683594,-16.035157 q 0.371094,-0.644531 0.722656,-1.035156 0.03906,-0.03906 0.07813,-0.07813 0.566407,-0.566406 1.367188,-0.566406 0.800781,0 1.386719,0.566406 0.566406,0.585938 0.566406,1.386719 z m -10.019531,15.625 h 6.113281 v -9.179688 z"
                 style="font-style:normal;font-variant:normal;font-weight:normal;font-stretch:normal;font-family:Instruction;-inkscape-font-specification:Instruction;letter-spacing:4.32391262px;fill:#c60000;fill-opacity:1"
                 id="path4781" />
            </g>
            <g
               id="g1941"
               transform="matrix(1.0000902,0.00317964,0.00295532,1.1042232,-0.41117424,-14.500577)">
              <g
                 aria-label="P"
                 transform="scale(1.0568957,0.94616715)"
                 style="font-style:normal;font-variant:normal;font-weight:normal;font-stretch:normal;font-size:36.99134827px;line-height:125%;font-family:Instruction;-inkscape-font-specification:Instruction;letter-spacing:16.80464172px;word-spacing:0px;fill:#c60000;fill-opacity:1;stroke:none;stroke-width:1px;stroke-linecap:butt;stroke-linejoin:miter;stroke-opacity:1"
                 id="text4271">
                <path
                   d="m -83.444972,137.44463 h -6.773318 v 9.9342 q 0,0.74054 -0.541866,1.28241 -0.523803,0.5238 -1.264352,0.5238 -0.74055,0 -1.282415,-0.5238 -0.523804,-0.54187 -0.523804,-1.28241 v -23.48084 q 0,-0.74055 0.523804,-1.26435 0.541865,-0.54187 1.282415,-0.54187 h 8.579536 q 3.178944,0 5.418654,2.25777 2.257773,2.23971 2.257773,5.41866 0,3.17894 -2.257773,5.43671 -2.23971,2.23972 -5.418654,2.23972 z m 0,-11.74042 h -6.773318 v 8.12798 h 6.773318 q 1.679783,0 2.871887,-1.19211 1.192104,-1.1921 1.192104,-2.87188 0,-1.67978 -1.192104,-2.87189 -1.192104,-1.1921 -2.871887,-1.1921 z"
                   style=""
                   id="path4784" />
              </g>
              <g
                 aria-label="W"
                 style="font-style:normal;font-variant:normal;font-weight:normal;font-stretch:normal;font-size:28.75px;line-height:125%;font-family:Magzetician;-inkscape-font-specification:Magzetician;letter-spacing:15.89999962px;word-spacing:0px;fill:#c60000;fill-opacity:1;stroke:none;stroke-width:1px;stroke-linecap:butt;stroke-linejoin:miter;stroke-opacity:1"
                 id="text4275">
                <path
                   d="m -70.888855,140.49904 q -0.379028,0 -0.715942,-0.14038 -0.322876,-0.14038 -0.561524,-0.37903 -0.238647,-0.23865 -0.379028,-0.56152 -0.140381,-0.33692 -0.140381,-0.71595 v -22.46093 q 0,-0.39307 0.266724,-0.64576 0.266723,-0.25268 0.631714,-0.25268 h 1.796875 q 0.36499,0 0.631713,0.26672 0.266724,0.26673 0.266724,0.63172 v 8.98437 q 0,0.39307 0.252686,0.64575 0.252685,0.25269 0.645752,0.25269 h 3.59375 q 0.393066,0 0.645751,-0.26672 0.252686,-0.26673 0.252686,-0.63172 v -8.98437 q 0,-0.39307 0.266724,-0.64576 0.266723,-0.25268 0.631714,-0.25268 h 1.796875 q 0.36499,0 0.631713,0.26672 0.266724,0.26673 0.266724,0.63172 v 8.98437 q 0,0.39307 0.252686,0.64575 0.252685,0.25269 0.645752,0.25269 h 3.59375 q 0.393066,0 0.645751,-0.26672 0.252686,-0.26673 0.252686,-0.63172 v -8.98437 q 0,-0.39307 0.266724,-0.64576 0.266723,-0.25268 0.631714,-0.25268 h 1.796875 q 0.36499,0 0.631713,0.26672 0.266724,0.26673 0.266724,0.63172 v 11.67968 q 0,0.36499 -0.154419,0.68787 -0.140381,0.32288 -0.393066,0.57556 -0.238648,0.23865 -0.561524,0.39307 -0.322876,0.14038 -0.687866,0.14038 h -15.273437 q -0.364991,0 -0.631714,0.25268 -0.266724,0.25269 -0.266724,0.64576 v 5.39062 q 0,0.39307 0.252686,0.64575 0.252685,0.25269 0.645752,0.25269 h 16.171875 q 0.36499,0 0.631713,0.26672 0.266724,0.26673 0.266724,0.63172 v 1.79687 q 0,0.36499 -0.252686,0.63172 -0.252685,0.26672 -0.645751,0.26672 z"
                   style=""
                   id="path4787" />
              </g>
              <g
                 aria-label="M"
                 style="font-style:normal;font-variant:normal;font-weight:normal;font-stretch:normal;font-size:28.75px;line-height:125%;font-family:Magzetician;-inkscape-font-specification:Magzetician;letter-spacing:15.89999962px;word-spacing:0px;fill:#c60000;fill-opacity:1;stroke:none;stroke-width:1px;stroke-linecap:butt;stroke-linejoin:miter;stroke-opacity:1"
                 id="text4279">
                <path
                   d="m -42.426701,139.82143 q -0.379028,0 -0.715942,-0.14038 -0.322876,-0.14039 -0.561523,-0.37903 -0.238648,-0.23865 -0.379029,-0.56153 -0.140381,-0.33691 -0.140381,-0.71594 v -21.5625 q 0,-0.36499 0.140381,-0.68786 0.154419,-0.32288 0.393067,-0.56153 0.252685,-0.25268 0.575561,-0.39306 0.322876,-0.15442 0.687866,-0.15442 h 17.96875 q 0.364991,0 0.687867,0.15442 0.322876,0.14038 0.561523,0.39306 0.252686,0.23865 0.393066,0.56153 0.154419,0.32287 0.154419,0.68786 v 11.67969 q 0,0.36499 -0.252685,0.63171 -0.252686,0.26673 -0.645752,0.26673 h -1.796875 q -0.393066,0 -0.645752,-0.25269 -0.252686,-0.25268 -0.252686,-0.64575 v -8.98438 q 0,-0.36499 -0.266723,-0.63171 -0.266724,-0.26672 -0.631714,-0.26672 h -3.59375 q -0.36499,0 -0.631714,0.25268 -0.266724,0.25269 -0.266724,0.64575 v 8.98438 q 0,0.36499 -0.252685,0.63171 -0.252686,0.26673 -0.645752,0.26673 h -1.796875 q -0.393066,0 -0.645752,-0.25269 -0.252686,-0.25268 -0.252686,-0.64575 v -8.98438 q 0,-0.36499 -0.266723,-0.63171 -0.266724,-0.26672 -0.631714,-0.26672 h -3.59375 q -0.36499,0 -0.631714,0.25268 -0.266724,0.25269 -0.266724,0.64575 v 16.17188 q 0,0.39307 0.252686,0.64575 0.252686,0.25269 0.645752,0.25269 h 16.171875 q 0.36499,0 0.631714,0.26672 0.266723,0.26672 0.266723,0.63171 v 1.79688 q 0,0.36499 -0.252685,0.63171 -0.252686,0.26673 -0.645752,0.26673 z"
                   style=""
                   id="path4790" />
              </g>
            </g>
          </g>
          <path
             inkscape:connector-curvature="0"
             id="path996"
             d="m -86.120764,74.908159 c -0.72286,-0.359553 -1.62801,-1.143109 -2.01881,-1.747658 -0.70208,-1.086073 -2.86301,-8.776367 -8.465201,-30.1261 -2.85137,-10.866412 -3.27126,-13.671317 -2.85499,-19.071137 0.97026,-12.586187 9.138341,-23.6142643 20.995991,-28.3475873 8.899126,-3.552335 19.047682,-3.13152 27.534185,1.141723 6.427986,3.236708 11.88312,8.7855692 15.073581,15.3325683 1.633669,3.352381 2.153507,5.116455 7.794679,26.451412 4.648362,17.580111 4.673097,17.733799 3.21087,19.954129 -0.959742,1.45735 -1.845629,1.877313 -6.868775,3.256199 -4.836422,1.327628 -6.585249,1.327845 -8.316405,9.01e-4 -0.604315,-0.463169 -1.360999,-1.410284 -1.681553,-2.104688 -0.320554,-0.69432 -2.294869,-7.691681 -4.387349,-15.54961 -6.539636,-24.558238 -6.546501,-24.578197 -9.473476,-27.516811 -5.813709,-5.836814 -15.102717,-5.832555 -20.916537,0.01002 -2.76278,2.776241 -4.20996,6.316001 -4.2242,10.33224 -0.008,2.380233 0.29413,3.655469 5.7182,24.100763 2.341213,8.824886 4.256755,16.526203 4.256755,17.114067 0,1.637928 -1.364289,3.948196 -2.786565,4.718759 -0.894455,0.484598 -9.40012,2.703492 -10.3623,2.703241 -0.50474,-1.34e-4 -1.50739,-0.293548 -2.2281,-0.652031 z m 7.05802,-3.353986 c 3.59875,-0.96492 4.4105,-1.363888 5.18188,-2.546914 0.477132,-0.731731 0.45111,-0.96375 -0.536189,-4.783461 -0.956821,-3.701814 -1.089301,-4.00712 -1.701091,-3.920388 -0.96536,0.136786 -11.64588,3.076639 -11.8225,3.25411 -0.19235,0.193288 0.3712,2.661504 1.33999,5.868816 0.67962,2.249976 0.87084,2.575256 1.73091,2.944563 1.06371,0.456722 1.05076,0.458543 5.807,-0.816726 z m -9.22648,-10.976556 c 0,-0.04827 -0.27225,-0.62434 -0.60501,-1.280213 -0.33275,-0.655856 -0.60502,-1.391545 -0.60502,-1.634838 0,-0.243309 -0.0818,-0.360037 -0.18206,-0.259409 -0.25393,0.255184 0.77283,3.262177 1.1139,3.262177 0.15298,0 0.27819,-0.03942 0.27819,-0.08768 z m 54.249634,-1.141673 c 6.13666,-1.543614 7.302249,-2.210058 7.247685,-4.143989 -0.04459,-1.583347 -1.635256,-7.393123 -2.025406,-7.397983 -0.182465,-0.0017 -3.020304,0.711589 -6.306281,1.58637 -3.991821,1.062691 -5.974521,1.725244 -5.974521,1.996478 0,0.651029 1.518061,5.906662 2.006115,6.945319 0.427027,0.908802 1.320347,1.570871 2.178577,1.614646 0.221847,0.01169 1.51507,-0.259059 2.873831,-0.600841 z m -42.776334,-2.094333 c 0.36583,-0.232653 0.37326,-0.537324 0.0488,-1.994808 -0.21071,-0.94613 -0.44368,-1.659373 -0.51768,-1.584984 -0.074,0.07432 0.0134,0.79954 0.19464,1.611489 0.28792,1.291002 0.26296,1.524925 -0.1988,1.864219 -0.59638,0.438217 -0.19211,0.527153 0.47315,0.104051 z m -0.67889,-4.636804 c -0.0965,-0.242491 -0.16825,-0.170457 -0.18276,0.183651 -0.0134,0.320454 0.0583,0.499996 0.15883,0.398985 0.10054,-0.101045 0.11123,-0.363193 0.0239,-0.582636 z m -0.30251,-1.215928 c -0.0965,-0.242491 -0.16826,-0.170457 -0.18277,0.183668 -0.0134,0.320437 0.0585,0.499979 0.15883,0.398968 0.10055,-0.101045 0.11124,-0.363194 0.0239,-0.582636 z m 36.396695,-3.406262 c 0,-0.06564 -0.211259,-0.200938 -0.469466,-0.300496 -0.269214,-0.103884 -0.390634,-0.05278 -0.284646,0.119417 0.177639,0.288837 0.754112,0.427227 0.754112,0.181029 z m 11.828772,-3.182494 c 0.10021,-0.106557 -0.06848,-1.082983 -0.375018,-2.169708 -0.507462,-1.799349 -0.520673,-1.562837 -0.06029,1.080061 0.131776,0.756817 0.03056,0.995516 -0.548898,1.293523 l -0.710554,0.365449 0.756266,-0.18776 c 0.415954,-0.103216 0.838288,-0.274976 0.938514,-0.381565 z m -1.034364,-4.962536 c -0.09654,-0.242508 -0.168252,-0.170474 -0.182766,0.183651 -0.01336,0.320454 0.05829,0.49998 0.158832,0.398985 0.100544,-0.101045 0.111233,-0.36321 0.02388,-0.582636 z m -65.039024,-5.167701 c -0.0965,-0.242491 -0.16826,-0.170457 -0.18277,0.183668 -0.0134,0.320437 0.0585,0.49998 0.15883,0.398968 0.10055,-0.101045 0.11124,-0.363193 0.0239,-0.582636 z m -0.30882,-1.538905 c -0.0838,-0.208987 -0.15265,-0.03808 -0.15265,0.379979 0,0.417974 0.0686,0.588966 0.15265,0.379978 0.084,-0.208987 0.084,-0.550969 0,-0.759957 z m -0.40631,-3.816022 c -0.10339,-1.704752 -0.31431,-3.099554 -0.46877,-3.099554 -0.15449,0 -0.2101,0.37617 -0.12359,0.835949 0.0865,0.459763 0.24596,1.906258 0.35446,3.214413 0.28369,3.42066 0.46021,2.715284 0.23795,-0.950808 z m 0.10388,-7.431289 c -0.084,-0.208987 -0.15265,-0.03808 -0.15265,0.379962 0,0.417976 0.0686,0.588967 0.15265,0.37998 0.0838,-0.208988 0.0838,-0.550954 0,-0.759942 z m 59.133669,-5.727133 c -0.634178,-1.852243 -2.167787,-4.980104 -2.892888,-5.900163 -0.263535,-0.334383 0.118748,0.554761 0.849361,1.975884 0.730679,1.421106 1.561735,3.310861 1.846781,4.199438 0.285047,0.888575 0.572816,1.560782 0.639489,1.493775 0.06664,-0.06697 -0.132611,-0.863023 -0.442743,-1.768934 z M -40.49303,9.4816434 c 0,-0.06313 -0.238232,-0.3024997 -0.529391,-0.5319627 -0.479788,-0.378108 -0.490493,-0.367369 -0.114239,0.11474 0.395177,0.5063597 0.643597,0.6673797 0.643597,0.4172057 z M -90.091254,8.000511 c 0.56194,-0.7105537 0.78257,-1.0988824 0.49027,-0.8629397 -0.55055,0.444397 -1.84695,2.1548591 -1.63322,2.1548591 0.0666,0 0.581,-0.5813657 1.14295,-1.2919194 z m 4.97843,-5.0916879 c 0.30115,-0.334383 0.47947,-0.6079547 0.39628,-0.6079547 -0.0832,0 -0.39765,0.2735717 -0.69879,0.6079547 -0.30113,0.3343827 -0.47946,0.6079727 -0.39628,0.6079727 0.0832,0 0.39765,-0.27359 0.69879,-0.6079727 z m 3.17632,-2.3374414 c 0,-0.219259 -1.84111,0.944661 -2.21643,1.4011997 -0.19519,0.237413 0.22367,0.04827 0.93079,-0.4203797 0.70709,-0.468614 1.28564,-0.909988 1.28564,-0.98082 z m 1.51255,-0.875749 c 0,-0.08351 -0.27227,-0.005 -0.60502,0.173379 -0.33276,0.178958 -0.60502,0.393774 -0.60502,0.477366 0,0.08351 0.27226,0.005 0.60502,-0.173379 0.33275,-0.178958 0.60502,-0.393775 0.60502,-0.477366 z m 26.923117,-1.042549 c -0.249572,-0.162005 -0.589884,-0.294666 -0.756266,-0.294666 -0.166348,0 -0.09837,0.13261 0.151317,0.294666 0.249572,0.162006 0.589884,0.294667 0.756266,0.294667 0.166348,0 0.09837,-0.132611 -0.151317,-0.294667 z m -1.999701,-0.768308 c -0.517517,-0.22811 -1.334276,-0.491562 -1.815049,-0.585442 -0.480756,-0.09386 -0.193472,0.09336 0.638419,0.415971 1.726029,0.669484 2.594998,0.794646 1.17663,0.169471 z m -3.44542,-1.055576 c -0.415953,-0.133947 -1.096595,-0.240837 -1.512532,-0.237714 -0.679322,0.005 -0.663923,0.02923 0.151317,0.237714 0.499128,0.127601 1.179769,0.234591 1.512532,0.237715 0.474092,0.005 0.441357,-0.04693 -0.151317,-0.237715 z m -2.794665,-0.51284 c -0.289222,-0.07616 -0.833728,-0.07883 -1.210033,-0.0067 -0.376287,0.07265 -0.139625,0.13495 0.525868,0.13829 0.665509,0.0033 0.973387,-0.05612 0.684165,-0.132277 z m -3.779109,-0.294516 c -0.204812,-0.08334 -0.613184,-0.08835 -0.907516,-0.01169 -0.294333,0.07699 -0.126766,0.145137 0.372379,0.151316 0.499128,0.0067 0.739949,-0.05678 0.535137,-0.140126 z"
             style="fill:#c60000;fill-opacity:1;stroke:#c60000;stroke-width:0.28652924;stroke-linecap:round;stroke-linejoin:round;stroke-miterlimit:4;stroke-dasharray:none;stroke-opacity:1" />
        </g>
        <path
           style="fill:#c60000;fill-opacity:1;stroke:#c60000;stroke-width:0.05965468;stroke-linecap:round;stroke-linejoin:round;stroke-miterlimit:4;stroke-dasharray:none;stroke-opacity:1"
           d=""
           id="path998"
           inkscape:connector-curvature="0"
           transform="matrix(0.37120652,0,0,0.37301583,-120.48876,64.769028)" />
        <path
           style="fill:#c60000;fill-opacity:1;stroke:#c60000;stroke-width:0.05965468;stroke-linecap:round;stroke-linejoin:round;stroke-miterlimit:4;stroke-dasharray:none;stroke-opacity:1"
           d=""
           id="path1000"
           inkscape:connector-curvature="0"
           transform="matrix(0.37120652,0,0,0.37301583,-120.48876,64.769028)" />
        <path
           style="fill:#c60000;fill-opacity:1;stroke:#c60000;stroke-width:0.05965468;stroke-linecap:round;stroke-linejoin:round;stroke-miterlimit:4;stroke-dasharray:none;stroke-opacity:1"
           d=""
           id="path1002"
           inkscape:connector-curvature="0"
           transform="matrix(0.37120652,0,0,0.37301583,-120.48876,64.769028)" />
        <path
           style="fill:#c60000;fill-opacity:1;stroke:#c60000;stroke-width:0.05965468;stroke-linecap:round;stroke-linejoin:round;stroke-miterlimit:4;stroke-dasharray:none;stroke-opacity:1"
           d=""
           id="path1004"
           inkscape:connector-curvature="0"
           transform="matrix(0.37120652,0,0,0.37301583,-120.48876,64.769028)" />
        <path
           style="fill:#c60000;fill-opacity:1;stroke:#c60000;stroke-width:0.05965468;stroke-linecap:round;stroke-linejoin:round;stroke-miterlimit:4;stroke-dasharray:none;stroke-opacity:1"
           d=""
           id="path1006"
           inkscape:connector-curvature="0"
           transform="matrix(0.37120652,0,0,0.37301583,-120.48876,64.769028)" />
        <path
           style="fill:#c60000;fill-opacity:1;stroke:#c60000;stroke-width:0.05965468;stroke-linecap:round;stroke-linejoin:round;stroke-miterlimit:4;stroke-dasharray:none;stroke-opacity:1"
           d=""
           id="path1012"
           inkscape:connector-curvature="0"
           transform="matrix(0.37120652,0,0,0.37301583,-120.48876,64.769028)" />
      </g>
    </g>
  </g>
</svg>
