solid Untitled-5937873e
facet normal 0.0 0.0 -1.0
  outer loop
    vertex 0.6192596079882623 4.405866657858825 0.0
    vertex 0.619259607988261 2.5941333421411783 0.0
    vertex 0.5000000000000004 3.5 0.0
  endloop
endfacet
facet normal 0.0 0.0 -1.0
  outer loop
    vertex 0.619259607988261 2.5941333421411783 0.0
    vertex 0.6192596079882623 4.405866657858825 0.0
    vertex 0.9689110867544637 1.750000000000002 0.0
  endloop
endfacet
facet normal 0.0 0.0 -1.0
  outer loop
    vertex 0.9689110867544637 1.750000000000002 0.0
    vertex 0.6192596079882623 4.405866657858825 0.0
    vertex 2.0000000000000004 13.000000000000002 0.0
  endloop
endfacet
facet normal 0.0 0.0 -1.0
  outer loop
    vertex 0.9689110867544637 1.750000000000002 0.0
    vertex 2.0000000000000004 13.000000000000002 0.0
    vertex 1.5251262658470832 1.025126265847084 0.0
  endloop
endfacet
facet normal 0.0 0.0 -1.0
  outer loop
    vertex 1.5251262658470832 1.025126265847084 0.0
    vertex 2.0000000000000004 13.000000000000002 0.0
    vertex 2.0 3.499999999999999 0.0
  endloop
endfacet
facet normal 0.0 0.0 -1.0
  outer loop
    vertex 2.0 3.499999999999999 0.0
    vertex 2.0000000000000004 13.000000000000002 0.0
    vertex 2.0681483474218636 4.0176380902050415 0.0
  endloop
endfacet
facet normal 0.0 0.0 -1.0
  outer loop
    vertex 2.0681483474218636 4.0176380902050415 0.0
    vertex 2.0000000000000004 13.000000000000002 0.0
    vertex 2.068148347421864 13.517638090205045 0.0
  endloop
endfacet
facet normal 0.0 0.0 -1.0
  outer loop
    vertex 2.0681483474218636 4.0176380902050415 0.0
    vertex 2.068148347421864 13.517638090205045 0.0
    vertex 2.2679491924311233 4.5 0.0
  endloop
endfacet
facet normal 0.0 0.0 -1.0
  outer loop
    vertex 2.2679491924311233 4.5 0.0
    vertex 2.068148347421864 13.517638090205045 0.0
    vertex 2.2679491924311233 14.000000000000002 0.0
  endloop
endfacet
facet normal 0.0 0.0 -1.0
  outer loop
    vertex 2.2679491924311233 4.5 0.0
    vertex 2.2679491924311233 14.000000000000002 0.0
    vertex 2.5857864376269055 14.414213562373098 0.0
  endloop
endfacet
facet normal 0.0 0.0 -1.0
  outer loop
    vertex 2.2679491924311233 4.5 0.0
    vertex 2.5857864376269055 14.414213562373098 0.0
    vertex 2.585786437626905 4.914213562373094 0.0
  endloop
endfacet
facet normal 0.0 0.0 -1.0
  outer loop
    vertex 2.585786437626905 4.914213562373094 0.0
    vertex 2.5857864376269055 14.414213562373098 0.0
    vertex 3.0000000000000004 5.232050807568876 0.0
  endloop
endfacet
facet normal 0.0 0.0 -1.0
  outer loop
    vertex 3.0000000000000004 5.232050807568876 0.0
    vertex 2.5857864376269055 14.414213562373098 0.0
    vertex 3.0 14.732050807568877 0.0
  endloop
endfacet
facet normal 0.0 0.0 -1.0
  outer loop
    vertex 3.0000000000000004 5.232050807568876 0.0
    vertex 3.0 14.732050807568877 0.0
    vertex 3.4823619097949585 14.931851652578137 0.0
  endloop
endfacet
facet normal 0.0 0.0 -1.0
  outer loop
    vertex 3.0000000000000004 5.232050807568876 0.0
    vertex 3.4823619097949585 14.931851652578137 0.0
    vertex 3.4823619097949585 5.4318516525781355 0.0
  endloop
endfacet
facet normal 0.0 0.0 -1.0
  outer loop
    vertex 3.4823619097949585 5.4318516525781355 0.0
    vertex 3.4823619097949585 14.931851652578137 0.0
    vertex 3.9999999999999996 15.0 0.0
  endloop
endfacet
facet normal 0.0 0.0 -1.0
  outer loop
    vertex 3.4823619097949585 5.4318516525781355 0.0
    vertex 3.9999999999999996 15.0 0.0
    vertex 3.9999999999999996 5.499999999999999 0.0
  endloop
endfacet
facet normal 0.0 0.0 -1.0
  outer loop
    vertex 3.9999999999999996 5.499999999999999 0.0
    vertex 3.9999999999999996 15.0 0.0
    vertex 4.517638090205042 14.931851652578137 0.0
  endloop
endfacet
facet normal 0.0 0.0 -1.0
  outer loop
    vertex 3.9999999999999996 5.499999999999999 0.0
    vertex 4.517638090205042 14.931851652578137 0.0
    vertex 4.5176380902050415 5.4318516525781355 0.0
  endloop
endfacet
facet normal 0.0 0.0 -1.0
  outer loop
    vertex 4.5176380902050415 5.4318516525781355 0.0
    vertex 4.517638090205042 14.931851652578137 0.0
    vertex 4.999999999999999 5.232050807568876 0.0
  endloop
endfacet
facet normal 0.0 0.0 -1.0
  outer loop
    vertex 4.999999999999999 5.232050807568876 0.0
    vertex 4.517638090205042 14.931851652578137 0.0
    vertex 5.0 14.732050807568877 0.0
  endloop
endfacet
facet normal 0.0 0.0 -1.0
  outer loop
    vertex 4.999999999999999 5.232050807568876 0.0
    vertex 5.0 14.732050807568877 0.0
    vertex 5.414213562373095 4.914213562373094 0.0
  endloop
endfacet
facet normal 0.0 0.0 -1.0
  outer loop
    vertex 5.414213562373095 4.914213562373094 0.0
    vertex 5.0 14.732050807568877 0.0
    vertex 5.414213562373094 14.414213562373094 0.0
  endloop
endfacet
facet normal 0.0 0.0 -1.0
  outer loop
    vertex 5.414213562373095 4.914213562373094 0.0
    vertex 5.414213562373094 14.414213562373094 0.0
    vertex 5.732050807568877 14.0 0.0
  endloop
endfacet
facet normal 0.0 0.0 -1.0
  outer loop
    vertex 5.414213562373095 4.914213562373094 0.0
    vertex 5.732050807568877 14.0 0.0
    vertex 5.732050807568877 4.499999999999999 0.0
  endloop
endfacet
facet normal 0.0 0.0 -1.0
  outer loop
    vertex 5.732050807568877 4.499999999999999 0.0
    vertex 5.732050807568877 14.0 0.0
    vertex 5.9318516525781355 13.517638090205041 0.0
  endloop
endfacet
facet normal 0.0 0.0 -1.0
  outer loop
    vertex 5.732050807568877 4.499999999999999 0.0
    vertex 5.9318516525781355 13.517638090205041 0.0
    vertex 5.9318516525781355 4.017638090205041 0.0
  endloop
endfacet
facet normal 0.0 0.0 -1.0
  outer loop
    vertex 5.9318516525781355 4.017638090205041 0.0
    vertex 5.9318516525781355 13.517638090205041 0.0
    vertex 5.999999999999999 13.000000000000002 0.0
  endloop
endfacet
facet normal 0.0 0.0 -1.0
  outer loop
    vertex 5.9318516525781355 4.017638090205041 0.0
    vertex 5.999999999999999 13.000000000000002 0.0
    vertex 5.999999999999999 3.499999999999999 0.0
  endloop
endfacet
facet normal 0.0 0.0 -1.0
  outer loop
    vertex 5.999999999999999 3.499999999999999 0.0
    vertex 5.999999999999999 13.000000000000002 0.0
    vertex 7.380740392011738 4.405866657858821 0.0
  endloop
endfacet
facet normal 0.0 0.0 -1.0
  outer loop
    vertex 5.999999999999999 3.499999999999999 0.0
    vertex 7.380740392011738 4.405866657858821 0.0
    vertex 6.474873734152915 1.0251262658470834 0.0
  endloop
endfacet
facet normal 0.0 0.0 -1.0
  outer loop
    vertex 6.474873734152915 1.0251262658470834 0.0
    vertex 7.380740392011738 4.405866657858821 0.0
    vertex 7.031088913245534 1.7499999999999993 0.0
  endloop
endfacet
facet normal 0.0 0.0 -1.0
  outer loop
    vertex 7.031088913245534 1.7499999999999993 0.0
    vertex 7.380740392011738 4.405866657858821 0.0
    vertex 7.380740392011738 2.594133342141176 0.0
  endloop
endfacet
facet normal 0.0 0.0 -1.0
  outer loop
    vertex 7.380740392011738 2.594133342141176 0.0
    vertex 7.380740392011738 4.405866657858821 0.0
    vertex 7.499999999999999 3.499999999999999 0.0
  endloop
endfacet
facet normal 0.0 0.0 -1.0
  outer loop
    vertex 2.0 3.499999999999999 0.0
    vertex 2.2499999999999987 0.46891108675446563 0.0
    vertex 1.5251262658470832 1.025126265847084 0.0
  endloop
endfacet
facet normal 0.0 0.0 -1.0
  outer loop
    vertex 2.2499999999999987 0.46891108675446563 0.0
    vertex 2.0 3.499999999999999 0.0
    vertex 2.068148347421863 2.9823619097949585 0.0
  endloop
endfacet
facet normal 0.0 0.0 -1.0
  outer loop
    vertex 2.2499999999999987 0.46891108675446563 0.0
    vertex 2.068148347421863 2.9823619097949585 0.0
    vertex 2.2679491924311224 2.4999999999999996 0.0
  endloop
endfacet
facet normal 0.0 0.0 -1.0
  outer loop
    vertex 2.2499999999999987 0.46891108675446563 0.0
    vertex 2.2679491924311224 2.4999999999999996 0.0
    vertex 3.0941333421411743 0.11925960798826184 0.0
  endloop
endfacet
facet normal 0.0 0.0 -1.0
  outer loop
    vertex 3.0941333421411743 0.11925960798826184 0.0
    vertex 2.2679491924311224 2.4999999999999996 0.0
    vertex 2.5857864376269037 2.085786437626905 0.0
  endloop
endfacet
facet normal 0.0 0.0 -1.0
  outer loop
    vertex 3.0941333421411743 0.11925960798826184 0.0
    vertex 2.5857864376269037 2.085786437626905 0.0
    vertex 2.999999999999999 1.7679491924311226 0.0
  endloop
endfacet
facet normal 0.0 0.0 -1.0
  outer loop
    vertex 3.0941333421411743 0.11925960798826184 0.0
    vertex 2.999999999999999 1.7679491924311226 0.0
    vertex 3.482361909794957 1.5681483474218632 0.0
  endloop
endfacet
facet normal 0.0 0.0 -1.0
  outer loop
    vertex 3.0941333421411743 0.11925960798826184 0.0
    vertex 3.482361909794957 1.5681483474218632 0.0
    vertex 3.9999999999999996 0.0 0.0
  endloop
endfacet
facet normal 0.0 0.0 -1.0
  outer loop
    vertex 3.9999999999999996 0.0 0.0
    vertex 3.482361909794957 1.5681483474218632 0.0
    vertex 3.999999999999999 1.4999999999999993 0.0
  endloop
endfacet
facet normal 0.0 0.0 -1.0
  outer loop
    vertex 3.9999999999999996 0.0 0.0
    vertex 3.999999999999999 1.4999999999999993 0.0
    vertex 4.517638090205041 1.5681483474218625 0.0
  endloop
endfacet
facet normal 0.0 0.0 -1.0
  outer loop
    vertex 3.9999999999999996 0.0 0.0
    vertex 4.517638090205041 1.5681483474218625 0.0
    vertex 4.905866657858822 0.11925960798826113 0.0
  endloop
endfacet
facet normal 0.0 0.0 -1.0
  outer loop
    vertex 4.905866657858822 0.11925960798826113 0.0
    vertex 4.517638090205041 1.5681483474218625 0.0
    vertex 4.999999999999998 1.7679491924311213 0.0
  endloop
endfacet
facet normal 0.0 0.0 -1.0
  outer loop
    vertex 4.905866657858822 0.11925960798826113 0.0
    vertex 4.999999999999998 1.7679491924311213 0.0
    vertex 5.749999999999999 0.46891108675446425 0.0
  endloop
endfacet
facet normal 0.0 0.0 -1.0
  outer loop
    vertex 5.749999999999999 0.46891108675446425 0.0
    vertex 4.999999999999998 1.7679491924311213 0.0
    vertex 5.414213562373094 2.085786437626904 0.0
  endloop
endfacet
facet normal 0.0 0.0 -1.0
  outer loop
    vertex 5.749999999999999 0.46891108675446425 0.0
    vertex 5.414213562373094 2.085786437626904 0.0
    vertex 5.732050807568876 2.4999999999999982 0.0
  endloop
endfacet
facet normal 0.0 0.0 -1.0
  outer loop
    vertex 5.749999999999999 0.46891108675446425 0.0
    vertex 5.732050807568876 2.4999999999999982 0.0
    vertex 5.9318516525781355 2.9823619097949563 0.0
  endloop
endfacet
facet normal 0.0 0.0 -1.0
  outer loop
    vertex 5.749999999999999 0.46891108675446425 0.0
    vertex 5.9318516525781355 2.9823619097949563 0.0
    vertex 6.474873734152915 1.0251262658470834 0.0
  endloop
endfacet
facet normal 0.0 0.0 -1.0
  outer loop
    vertex 6.474873734152915 1.0251262658470834 0.0
    vertex 5.9318516525781355 2.9823619097949563 0.0
    vertex 5.999999999999999 3.499999999999999 0.0
  endloop
endfacet
facet normal 0.1305261922200518 -0.9914448613738104 0.0
  outer loop
    vertex 3.9999999999999996 5.499999999999999 12.0
    vertex 3.4823619097949585 5.4318516525781355 0.0
    vertex 3.9999999999999996 5.499999999999999 0.0
  endloop
endfacet
facet normal 0.1305261922200518 -0.9914448613738104 0.0
  outer loop
    vertex 3.4823619097949585 5.4318516525781355 0.0
    vertex 3.9999999999999996 5.499999999999999 12.0
    vertex 3.4823619097949585 5.4318516525781355 12.0
  endloop
endfacet
facet normal 0.9238795325112867 -0.3826834323650902 0.0
  outer loop
    vertex 7.380740392011738 2.594133342141176 0.0
    vertex 7.031088913245534 1.7499999999999993 12.0
    vertex 7.031088913245534 1.7499999999999993 0.0
  endloop
endfacet
facet normal 0.9238795325112867 -0.3826834323650902 0.0
  outer loop
    vertex 7.031088913245534 1.7499999999999993 12.0
    vertex 7.380740392011738 2.594133342141176 0.0
    vertex 7.380740392011738 2.594133342141176 12.0
  endloop
endfacet
facet normal -0.13052619222005185 0.9914448613738105 -5.914750036552147e-21
  outer loop
    vertex 3.094133342141178 6.880740392011737 12.0
    vertex 3.9999999999999996 6.999999999999998 3.0
    vertex 3.094133342141178 6.880740392011737 3.0
  endloop
endfacet
facet normal -0.13052619222005185 0.9914448613738105 -5.914750036552147e-21
  outer loop
    vertex 3.9999999999999996 6.999999999999998 3.0
    vertex 3.094133342141178 6.880740392011737 12.0
    vertex 3.9999999999999996 6.999999999999998 12.0
  endloop
endfacet
facet normal 0.6087614290087205 0.7933533402912353 0.0
  outer loop
    vertex 2.5857864376269037 2.085786437626905 12.0
    vertex 2.999999999999999 1.7679491924311226 0.0
    vertex 2.5857864376269037 2.085786437626905 0.0
  endloop
endfacet
facet normal 0.6087614290087205 0.7933533402912353 0.0
  outer loop
    vertex 2.999999999999999 1.7679491924311226 0.0
    vertex 2.5857864376269037 2.085786437626905 12.0
    vertex 2.999999999999999 1.7679491924311226 12.0
  endloop
endfacet
facet normal 0.38268343236508934 -0.923879532511287 0.0
  outer loop
    vertex 5.749999999999999 0.46891108675446425 12.0
    vertex 4.905866657858822 0.11925960798826113 0.0
    vertex 5.749999999999999 0.46891108675446425 0.0
  endloop
endfacet
facet normal 0.38268343236508934 -0.923879532511287 0.0
  outer loop
    vertex 4.905866657858822 0.11925960798826113 0.0
    vertex 5.749999999999999 0.46891108675446425 12.0
    vertex 4.905866657858822 0.11925960798826113 12.0
  endloop
endfacet
facet normal 0.6087614290087211 -0.7933533402912348 0.0
  outer loop
    vertex 6.474873734152915 1.0251262658470834 12.0
    vertex 5.749999999999999 0.46891108675446425 0.0
    vertex 6.474873734152915 1.0251262658470834 0.0
  endloop
endfacet
facet normal 0.6087614290087211 -0.7933533402912348 0.0
  outer loop
    vertex 5.749999999999999 0.46891108675446425 0.0
    vertex 6.474873734152915 1.0251262658470834 12.0
    vertex 5.749999999999999 0.46891108675446425 12.0
  endloop
endfacet
facet normal 0.9238795325112875 0.38268343236508834 -1.443797546117178e-18
  outer loop
    vertex 7.031088913245536 5.249999999999999 3.0
    vertex 7.380740392011738 4.405866657858821 12.0
    vertex 7.380740392011738 4.405866657858821 3.0
  endloop
endfacet
facet normal 0.9238795325112875 0.38268343236508834 -1.443797546117178e-18
  outer loop
    vertex 7.380740392011738 4.405866657858821 12.0
    vertex 7.031088913245536 5.249999999999999 3.0
    vertex 7.031088913245536 5.249999999999999 12.0
  endloop
endfacet
facet normal -0.7933533402912347 0.6087614290087213 7.114588046166731e-19
  outer loop
    vertex 1.5251262658470843 5.974873734152915 12.0
    vertex 0.9689110867544658 5.25 3.0
    vertex 0.9689110867544658 5.25 12.0
  endloop
endfacet
facet normal -0.7933533402912347 0.6087614290087213 7.114588046166731e-19
  outer loop
    vertex 0.9689110867544658 5.25 3.0
    vertex 1.5251262658470843 5.974873734152915 12.0
    vertex 1.5251262658470843 5.974873734152915 3.0
  endloop
endfacet
facet normal 0.13052619222005177 -0.9914448613738105 0.0
  outer loop
    vertex 4.905866657858822 0.11925960798826113 12.0
    vertex 3.9999999999999996 0.0 0.0
    vertex 4.905866657858822 0.11925960798826113 0.0
  endloop
endfacet
facet normal 0.13052619222005177 -0.9914448613738105 0.0
  outer loop
    vertex 3.9999999999999996 0.0 0.0
    vertex 4.905866657858822 0.11925960798826113 12.0
    vertex 3.9999999999999996 0.0 12.0
  endloop
endfacet
facet normal -0.6087614290087204 0.7933533402912353 -1.4475724855435737e-18
  outer loop
    vertex 1.5251262658470843 5.974873734152915 12.0
    vertex 2.250000000000001 6.531088913245534 3.0
    vertex 1.5251262658470843 5.974873734152915 3.0
  endloop
endfacet
facet normal -0.6087614290087204 0.7933533402912353 -1.4475724855435737e-18
  outer loop
    vertex 2.250000000000001 6.531088913245534 3.0
    vertex 1.5251262658470843 5.974873734152915 12.0
    vertex 2.250000000000001 6.531088913245534 12.0
  endloop
endfacet
facet normal 0.9914448613738105 -0.13052619222005166 0.0
  outer loop
    vertex 7.499999999999999 3.499999999999999 0.0
    vertex 7.380740392011738 2.594133342141176 12.0
    vertex 7.380740392011738 2.594133342141176 0.0
  endloop
endfacet
facet normal 0.9914448613738105 -0.13052619222005166 0.0
  outer loop
    vertex 7.380740392011738 2.594133342141176 12.0
    vertex 7.499999999999999 3.499999999999999 0.0
    vertex 7.499999999999999 3.499999999999999 12.0
  endloop
endfacet
facet normal -0.6087614290087199 -0.7933533402912359 -0.0
  outer loop
    vertex 5.414213562373095 4.914213562373094 12.0
    vertex 4.999999999999999 5.232050807568876 0.0
    vertex 5.414213562373095 4.914213562373094 0.0
  endloop
endfacet
facet normal -0.6087614290087199 -0.7933533402912359 -0.0
  outer loop
    vertex 4.999999999999999 5.232050807568876 0.0
    vertex 5.414213562373095 4.914213562373094 12.0
    vertex 4.999999999999999 5.232050807568876 12.0
  endloop
endfacet
facet normal -0.38268343236509056 -0.9238795325112865 -0.0
  outer loop
    vertex 3.0941333421411743 0.11925960798826184 12.0
    vertex 2.2499999999999987 0.46891108675446563 0.0
    vertex 3.0941333421411743 0.11925960798826184 0.0
  endloop
endfacet
facet normal -0.38268343236509056 -0.9238795325112865 -0.0
  outer loop
    vertex 2.2499999999999987 0.46891108675446563 0.0
    vertex 3.0941333421411743 0.11925960798826184 12.0
    vertex 2.2499999999999987 0.46891108675446563 12.0
  endloop
endfacet
facet normal 0.9238795325112868 -0.38268343236508967 0.0
  outer loop
    vertex 2.2679491924311233 4.5 0.0
    vertex 2.0681483474218636 4.0176380902050415 12.0
    vertex 2.0681483474218636 4.0176380902050415 0.0
  endloop
endfacet
facet normal 0.9238795325112868 -0.38268343236508967 0.0
  outer loop
    vertex 2.0681483474218636 4.0176380902050415 12.0
    vertex 2.2679491924311233 4.5 0.0
    vertex 2.2679491924311233 4.5 12.0
  endloop
endfacet
facet normal 0.6087614290087209 0.7933533402912352 -7.361136809269131e-19
  outer loop
    vertex 5.749999999999999 6.531088913245534 12.0
    vertex 6.474873734152915 5.974873734152915 3.0
    vertex 5.749999999999999 6.531088913245534 3.0
  endloop
endfacet
facet normal 0.6087614290087209 0.7933533402912352 -7.361136809269131e-19
  outer loop
    vertex 6.474873734152915 5.974873734152915 3.0
    vertex 5.749999999999999 6.531088913245534 12.0
    vertex 6.474873734152915 5.974873734152915 12.0
  endloop
endfacet
facet normal -0.3826834323650895 0.923879532511287 0.0
  outer loop
    vertex 4.517638090205041 1.5681483474218625 12.0
    vertex 4.999999999999998 1.7679491924311213 0.0
    vertex 4.517638090205041 1.5681483474218625 0.0
  endloop
endfacet
facet normal -0.3826834323650895 0.923879532511287 0.0
  outer loop
    vertex 4.999999999999998 1.7679491924311213 0.0
    vertex 4.517638090205041 1.5681483474218625 12.0
    vertex 4.999999999999998 1.7679491924311213 12.0
  endloop
endfacet
facet normal -0.9914448613738104 -0.1305261922200518 -0.0
  outer loop
    vertex 5.9318516525781355 4.017638090205041 12.0
    vertex 5.999999999999999 3.499999999999999 0.0
    vertex 5.999999999999999 3.499999999999999 12.0
  endloop
endfacet
facet normal -0.9914448613738104 -0.1305261922200518 -0.0
  outer loop
    vertex 5.999999999999999 3.499999999999999 0.0
    vertex 5.9318516525781355 4.017638090205041 12.0
    vertex 5.9318516525781355 4.017638090205041 0.0
  endloop
endfacet
facet normal 0.9238795325112872 0.38268343236508917 0.0
  outer loop
    vertex 2.068148347421863 2.9823619097949585 0.0
    vertex 2.2679491924311224 2.4999999999999996 12.0
    vertex 2.2679491924311224 2.4999999999999996 0.0
  endloop
endfacet
facet normal 0.9238795325112872 0.38268343236508917 0.0
  outer loop
    vertex 2.2679491924311224 2.4999999999999996 12.0
    vertex 2.068148347421863 2.9823619097949585 0.0
    vertex 2.068148347421863 2.9823619097949585 12.0
  endloop
endfacet
facet normal 0.1305261922200523 0.9914448613738104 0.0
  outer loop
    vertex 3.482361909794957 1.5681483474218632 12.0
    vertex 3.999999999999999 1.4999999999999993 0.0
    vertex 3.482361909794957 1.5681483474218632 0.0
  endloop
endfacet
facet normal 0.1305261922200523 0.9914448613738104 0.0
  outer loop
    vertex 3.999999999999999 1.4999999999999993 0.0
    vertex 3.482361909794957 1.5681483474218632 12.0
    vertex 3.999999999999999 1.4999999999999993 12.0
  endloop
endfacet
facet normal 0.9914448613738105 0.1305261922200513 0.0
  outer loop
    vertex 2.0 3.499999999999999 0.0
    vertex 2.068148347421863 2.9823619097949585 12.0
    vertex 2.068148347421863 2.9823619097949585 0.0
  endloop
endfacet
facet normal 0.9914448613738105 0.1305261922200513 0.0
  outer loop
    vertex 2.068148347421863 2.9823619097949585 12.0
    vertex 2.0 3.499999999999999 0.0
    vertex 2.0 3.499999999999999 12.0
  endloop
endfacet
facet normal -0.6087614290087208 -0.793353340291235 -0.0
  outer loop
    vertex 2.2499999999999987 0.46891108675446563 12.0
    vertex 1.5251262658470832 1.025126265847084 0.0
    vertex 2.2499999999999987 0.46891108675446563 0.0
  endloop
endfacet
facet normal -0.6087614290087208 -0.793353340291235 -0.0
  outer loop
    vertex 1.5251262658470832 1.025126265847084 0.0
    vertex 2.2499999999999987 0.46891108675446563 12.0
    vertex 1.5251262658470832 1.025126265847084 12.0
  endloop
endfacet
facet normal -0.6087614290087204 0.7933533402912353 0.0
  outer loop
    vertex 4.999999999999998 1.7679491924311213 12.0
    vertex 5.414213562373094 2.085786437626904 0.0
    vertex 4.999999999999998 1.7679491924311213 0.0
  endloop
endfacet
facet normal -0.6087614290087204 0.7933533402912353 0.0
  outer loop
    vertex 5.414213562373094 2.085786437626904 0.0
    vertex 4.999999999999998 1.7679491924311213 12.0
    vertex 5.414213562373094 2.085786437626904 12.0
  endloop
endfacet
facet normal -0.3826834323650906 -0.9238795325112864 -0.0
  outer loop
    vertex 4.999999999999999 5.232050807568876 12.0
    vertex 4.5176380902050415 5.4318516525781355 0.0
    vertex 4.999999999999999 5.232050807568876 0.0
  endloop
endfacet
facet normal -0.3826834323650906 -0.9238795325112864 -0.0
  outer loop
    vertex 4.5176380902050415 5.4318516525781355 0.0
    vertex 4.999999999999999 5.232050807568876 12.0
    vertex 4.5176380902050415 5.4318516525781355 12.0
  endloop
endfacet
facet normal 0.6087614290087199 -0.7933533402912359 0.0
  outer loop
    vertex 3.0000000000000004 5.232050807568876 12.0
    vertex 2.585786437626905 4.914213562373094 0.0
    vertex 3.0000000000000004 5.232050807568876 0.0
  endloop
endfacet
facet normal 0.6087614290087199 -0.7933533402912359 0.0
  outer loop
    vertex 2.585786437626905 4.914213562373094 0.0
    vertex 3.0000000000000004 5.232050807568876 12.0
    vertex 2.585786437626905 4.914213562373094 12.0
  endloop
endfacet
facet normal 0.13052619222005166 0.9914448613738105 4.741248348593074e-19
  outer loop
    vertex 3.9999999999999996 6.999999999999998 12.0
    vertex 4.905866657858823 6.880740392011737 3.0
    vertex 3.9999999999999996 6.999999999999998 3.0
  endloop
endfacet
facet normal 0.13052619222005166 0.9914448613738105 4.741248348593074e-19
  outer loop
    vertex 4.905866657858823 6.880740392011737 3.0
    vertex 3.9999999999999996 6.999999999999998 12.0
    vertex 4.905866657858823 6.880740392011737 12.0
  endloop
endfacet
facet normal -0.9238795325112867 0.3826834323650904 -7.107503517584616e-20
  outer loop
    vertex 0.9689110867544658 5.25 12.0
    vertex 0.6192596079882623 4.405866657858825 3.0
    vertex 0.6192596079882623 4.405866657858825 12.0
  endloop
endfacet
facet normal -0.9238795325112867 0.3826834323650904 -7.107503517584616e-20
  outer loop
    vertex 0.6192596079882623 4.405866657858825 3.0
    vertex 0.9689110867544658 5.25 12.0
    vertex 0.9689110867544658 5.25 3.0
  endloop
endfacet
facet normal 0.9914448613738105 0.13052619222005182 -2.9580989292810735e-19
  outer loop
    vertex 7.380740392011738 4.405866657858821 0.0
    vertex 7.499999999999999 3.499999999999999 12.0
    vertex 7.499999999999999 3.499999999999999 0.0
  endloop
endfacet
facet normal 0.9914448613738105 0.13052619222005182 -2.9580989292810735e-19
  outer loop
    vertex 7.499999999999999 3.499999999999999 12.0
    vertex 7.380740392011738 4.405866657858821 0.0
    vertex 7.380740392011738 4.405866657858821 12.0
  endloop
endfacet
facet normal 0.9914448613738105 0.13052619222005182 -2.9580989292810735e-19
  outer loop
    vertex 7.380740392011738 4.405866657858821 12.0
    vertex 7.380740392011738 4.405866657858821 0.0
    vertex 7.380740392011738 4.405866657858821 3.0
  endloop
endfacet
facet normal -0.7933533402912359 -0.6087614290087199 -0.0
  outer loop
    vertex 5.414213562373095 4.914213562373094 12.0
    vertex 5.732050807568877 4.499999999999999 0.0
    vertex 5.732050807568877 4.499999999999999 12.0
  endloop
endfacet
facet normal -0.7933533402912359 -0.6087614290087199 -0.0
  outer loop
    vertex 5.732050807568877 4.499999999999999 0.0
    vertex 5.414213562373095 4.914213562373094 12.0
    vertex 5.414213562373095 4.914213562373094 0.0
  endloop
endfacet
facet normal -0.13052619222005213 -0.9914448613738105 -0.0
  outer loop
    vertex 3.9999999999999996 0.0 12.0
    vertex 3.0941333421411743 0.11925960798826184 0.0
    vertex 3.9999999999999996 0.0 0.0
  endloop
endfacet
facet normal -0.13052619222005213 -0.9914448613738105 -0.0
  outer loop
    vertex 3.0941333421411743 0.11925960798826184 0.0
    vertex 3.9999999999999996 0.0 12.0
    vertex 3.0941333421411743 0.11925960798826184 12.0
  endloop
endfacet
facet normal -0.9914448613738105 -0.13052619222005113 -0.0
  outer loop
    vertex 0.5000000000000004 3.5 12.0
    vertex 0.619259607988261 2.5941333421411783 0.0
    vertex 0.619259607988261 2.5941333421411783 12.0
  endloop
endfacet
facet normal -0.9914448613738105 -0.13052619222005113 -0.0
  outer loop
    vertex 0.619259607988261 2.5941333421411783 0.0
    vertex 0.5000000000000004 3.5 12.0
    vertex 0.5000000000000004 3.5 0.0
  endloop
endfacet
facet normal 0.793353340291235 -0.6087614290087208 0.0
  outer loop
    vertex 7.031088913245534 1.7499999999999993 0.0
    vertex 6.474873734152915 1.0251262658470834 12.0
    vertex 6.474873734152915 1.0251262658470834 0.0
  endloop
endfacet
facet normal 0.793353340291235 -0.6087614290087208 0.0
  outer loop
    vertex 6.474873734152915 1.0251262658470834 12.0
    vertex 7.031088913245534 1.7499999999999993 0.0
    vertex 7.031088913245534 1.7499999999999993 12.0
  endloop
endfacet
facet normal 0.7933533402912349 -0.6087614290087212 0.0
  outer loop
    vertex 2.585786437626905 4.914213562373094 0.0
    vertex 2.2679491924311233 4.5 12.0
    vertex 2.2679491924311233 4.5 0.0
  endloop
endfacet
facet normal 0.7933533402912349 -0.6087614290087212 0.0
  outer loop
    vertex 2.2679491924311233 4.5 12.0
    vertex 2.585786437626905 4.914213562373094 0.0
    vertex 2.585786437626905 4.914213562373094 12.0
  endloop
endfacet
facet normal 0.3826834323650904 -0.9238795325112865 0.0
  outer loop
    vertex 3.4823619097949585 5.4318516525781355 12.0
    vertex 3.0000000000000004 5.232050807568876 0.0
    vertex 3.4823619097949585 5.4318516525781355 0.0
  endloop
endfacet
facet normal 0.3826834323650904 -0.9238795325112865 0.0
  outer loop
    vertex 3.0000000000000004 5.232050807568876 0.0
    vertex 3.4823619097949585 5.4318516525781355 12.0
    vertex 3.0000000000000004 5.232050807568876 12.0
  endloop
endfacet
facet normal -0.9914448613738106 0.13052619222005138 0.0
  outer loop
    vertex 5.999999999999999 3.499999999999999 12.0
    vertex 5.9318516525781355 2.9823619097949563 0.0
    vertex 5.9318516525781355 2.9823619097949563 12.0
  endloop
endfacet
facet normal -0.9914448613738106 0.13052619222005138 0.0
  outer loop
    vertex 5.9318516525781355 2.9823619097949563 0.0
    vertex 5.999999999999999 3.499999999999999 12.0
    vertex 5.999999999999999 3.499999999999999 0.0
  endloop
endfacet
facet normal -0.7933533402912349 0.6087614290087212 0.0
  outer loop
    vertex 5.732050807568876 2.4999999999999982 12.0
    vertex 5.414213562373094 2.085786437626904 0.0
    vertex 5.414213562373094 2.085786437626904 12.0
  endloop
endfacet
facet normal -0.7933533402912349 0.6087614290087212 0.0
  outer loop
    vertex 5.414213562373094 2.085786437626904 0.0
    vertex 5.732050807568876 2.4999999999999982 12.0
    vertex 5.732050807568876 2.4999999999999982 0.0
  endloop
endfacet
facet normal -0.9238795325112871 -0.38268343236508895 -0.0
  outer loop
    vertex 5.732050807568877 4.499999999999999 12.0
    vertex 5.9318516525781355 4.017638090205041 0.0
    vertex 5.9318516525781355 4.017638090205041 12.0
  endloop
endfacet
facet normal -0.9238795325112871 -0.38268343236508895 -0.0
  outer loop
    vertex 5.9318516525781355 4.017638090205041 0.0
    vertex 5.732050807568877 4.499999999999999 12.0
    vertex 5.732050807568877 4.499999999999999 0.0
  endloop
endfacet
facet normal -0.13052619222005113 0.9914448613738105 0.0
  outer loop
    vertex 3.999999999999999 1.4999999999999993 12.0
    vertex 4.517638090205041 1.5681483474218625 0.0
    vertex 3.999999999999999 1.4999999999999993 0.0
  endloop
endfacet
facet normal -0.13052619222005113 0.9914448613738105 0.0
  outer loop
    vertex 4.517638090205041 1.5681483474218625 0.0
    vertex 3.999999999999999 1.4999999999999993 12.0
    vertex 4.517638090205041 1.5681483474218625 12.0
  endloop
endfacet
facet normal 0.3826834323650904 0.9238795325112865 0.0
  outer loop
    vertex 2.999999999999999 1.7679491924311226 12.0
    vertex 3.482361909794957 1.5681483474218632 0.0
    vertex 2.999999999999999 1.7679491924311226 0.0
  endloop
endfacet
facet normal 0.3826834323650904 0.9238795325112865 0.0
  outer loop
    vertex 3.482361909794957 1.5681483474218632 0.0
    vertex 2.999999999999999 1.7679491924311226 12.0
    vertex 3.482361909794957 1.5681483474218632 12.0
  endloop
endfacet
facet normal 0.7933533402912357 0.6087614290087201 0.0
  outer loop
    vertex 2.2679491924311224 2.4999999999999996 0.0
    vertex 2.5857864376269037 2.085786437626905 12.0
    vertex 2.5857864376269037 2.085786437626905 0.0
  endloop
endfacet
facet normal 0.7933533402912357 0.6087614290087201 0.0
  outer loop
    vertex 2.5857864376269037 2.085786437626905 12.0
    vertex 2.2679491924311224 2.4999999999999996 0.0
    vertex 2.2679491924311224 2.4999999999999996 12.0
  endloop
endfacet
facet normal 0.0 0.0 1.0
  outer loop
    vertex 0.619259607988261 2.5941333421411783 12.0
    vertex 0.6192596079882623 4.405866657858825 12.0
    vertex 0.5000000000000004 3.5 12.0
  endloop
endfacet
facet normal 0.0 0.0 1.0
  outer loop
    vertex 0.6192596079882623 4.405866657858825 12.0
    vertex 0.619259607988261 2.5941333421411783 12.0
    vertex 0.9689110867544637 1.750000000000002 12.0
  endloop
endfacet
facet normal 0.0 0.0 1.0
  outer loop
    vertex 0.6192596079882623 4.405866657858825 12.0
    vertex 0.9689110867544637 1.750000000000002 12.0
    vertex 0.9689110867544658 5.25 12.0
  endloop
endfacet
facet normal 0.0 0.0 1.0
  outer loop
    vertex 0.9689110867544658 5.25 12.0
    vertex 0.9689110867544637 1.750000000000002 12.0
    vertex 1.5251262658470832 1.025126265847084 12.0
  endloop
endfacet
facet normal 0.0 0.0 1.0
  outer loop
    vertex 0.9689110867544658 5.25 12.0
    vertex 1.5251262658470832 1.025126265847084 12.0
    vertex 1.5251262658470843 5.974873734152915 12.0
  endloop
endfacet
facet normal 0.0 0.0 1.0
  outer loop
    vertex 1.5251262658470843 5.974873734152915 12.0
    vertex 1.5251262658470832 1.025126265847084 12.0
    vertex 2.2499999999999987 0.46891108675446563 12.0
  endloop
endfacet
facet normal 0.0 0.0 1.0
  outer loop
    vertex 1.5251262658470843 5.974873734152915 12.0
    vertex 2.2499999999999987 0.46891108675446563 12.0
    vertex 2.0 3.499999999999999 12.0
  endloop
endfacet
facet normal 0.0 0.0 1.0
  outer loop
    vertex 2.0 3.499999999999999 12.0
    vertex 2.2499999999999987 0.46891108675446563 12.0
    vertex 2.068148347421863 2.9823619097949585 12.0
  endloop
endfacet
facet normal 0.0 0.0 1.0
  outer loop
    vertex 2.068148347421863 2.9823619097949585 12.0
    vertex 2.2499999999999987 0.46891108675446563 12.0
    vertex 2.2679491924311224 2.4999999999999996 12.0
  endloop
endfacet
facet normal 0.0 0.0 1.0
  outer loop
    vertex 2.2679491924311224 2.4999999999999996 12.0
    vertex 2.2499999999999987 0.46891108675446563 12.0
    vertex 3.0941333421411743 0.11925960798826184 12.0
  endloop
endfacet
facet normal 0.0 0.0 1.0
  outer loop
    vertex 2.2679491924311224 2.4999999999999996 12.0
    vertex 3.0941333421411743 0.11925960798826184 12.0
    vertex 2.5857864376269037 2.085786437626905 12.0
  endloop
endfacet
facet normal 0.0 0.0 1.0
  outer loop
    vertex 2.5857864376269037 2.085786437626905 12.0
    vertex 3.0941333421411743 0.11925960798826184 12.0
    vertex 2.999999999999999 1.7679491924311226 12.0
  endloop
endfacet
facet normal 0.0 0.0 1.0
  outer loop
    vertex 2.999999999999999 1.7679491924311226 12.0
    vertex 3.0941333421411743 0.11925960798826184 12.0
    vertex 3.482361909794957 1.5681483474218632 12.0
  endloop
endfacet
facet normal 0.0 0.0 1.0
  outer loop
    vertex 3.482361909794957 1.5681483474218632 12.0
    vertex 3.0941333421411743 0.11925960798826184 12.0
    vertex 3.9999999999999996 0.0 12.0
  endloop
endfacet
facet normal 0.0 0.0 1.0
  outer loop
    vertex 3.482361909794957 1.5681483474218632 12.0
    vertex 3.9999999999999996 0.0 12.0
    vertex 3.999999999999999 1.4999999999999993 12.0
  endloop
endfacet
facet normal 0.0 0.0 1.0
  outer loop
    vertex 3.999999999999999 1.4999999999999993 12.0
    vertex 3.9999999999999996 0.0 12.0
    vertex 4.517638090205041 1.5681483474218625 12.0
  endloop
endfacet
facet normal 0.0 0.0 1.0
  outer loop
    vertex 4.517638090205041 1.5681483474218625 12.0
    vertex 3.9999999999999996 0.0 12.0
    vertex 4.905866657858822 0.11925960798826113 12.0
  endloop
endfacet
facet normal 0.0 0.0 1.0
  outer loop
    vertex 4.517638090205041 1.5681483474218625 12.0
    vertex 4.905866657858822 0.11925960798826113 12.0
    vertex 4.999999999999998 1.7679491924311213 12.0
  endloop
endfacet
facet normal 0.0 0.0 1.0
  outer loop
    vertex 4.999999999999998 1.7679491924311213 12.0
    vertex 4.905866657858822 0.11925960798826113 12.0
    vertex 5.749999999999999 0.46891108675446425 12.0
  endloop
endfacet
facet normal 0.0 0.0 1.0
  outer loop
    vertex 4.999999999999998 1.7679491924311213 12.0
    vertex 5.749999999999999 0.46891108675446425 12.0
    vertex 5.414213562373094 2.085786437626904 12.0
  endloop
endfacet
facet normal 0.0 0.0 1.0
  outer loop
    vertex 5.414213562373094 2.085786437626904 12.0
    vertex 5.749999999999999 0.46891108675446425 12.0
    vertex 5.732050807568876 2.4999999999999982 12.0
  endloop
endfacet
facet normal 0.0 0.0 1.0
  outer loop
    vertex 5.732050807568876 2.4999999999999982 12.0
    vertex 5.749999999999999 0.46891108675446425 12.0
    vertex 5.9318516525781355 2.9823619097949563 12.0
  endloop
endfacet
facet normal 0.0 0.0 1.0
  outer loop
    vertex 5.9318516525781355 2.9823619097949563 12.0
    vertex 5.749999999999999 0.46891108675446425 12.0
    vertex 6.474873734152915 1.0251262658470834 12.0
  endloop
endfacet
facet normal 0.0 0.0 1.0
  outer loop
    vertex 5.9318516525781355 2.9823619097949563 12.0
    vertex 6.474873734152915 1.0251262658470834 12.0
    vertex 5.999999999999999 3.499999999999999 12.0
  endloop
endfacet
facet normal 0.0 0.0 1.0
  outer loop
    vertex 2.0 3.499999999999999 12.0
    vertex 2.250000000000001 6.531088913245534 12.0
    vertex 1.5251262658470843 5.974873734152915 12.0
  endloop
endfacet
facet normal 0.0 0.0 1.0
  outer loop
    vertex 2.250000000000001 6.531088913245534 12.0
    vertex 2.0 3.499999999999999 12.0
    vertex 2.0681483474218636 4.0176380902050415 12.0
  endloop
endfacet
facet normal 0.0 0.0 1.0
  outer loop
    vertex 2.250000000000001 6.531088913245534 12.0
    vertex 2.0681483474218636 4.0176380902050415 12.0
    vertex 2.2679491924311233 4.5 12.0
  endloop
endfacet
facet normal 0.0 0.0 1.0
  outer loop
    vertex 2.250000000000001 6.531088913245534 12.0
    vertex 2.2679491924311233 4.5 12.0
    vertex 3.094133342141178 6.880740392011737 12.0
  endloop
endfacet
facet normal 0.0 0.0 1.0
  outer loop
    vertex 3.094133342141178 6.880740392011737 12.0
    vertex 2.2679491924311233 4.5 12.0
    vertex 2.585786437626905 4.914213562373094 12.0
  endloop
endfacet
facet normal 0.0 0.0 1.0
  outer loop
    vertex 3.094133342141178 6.880740392011737 12.0
    vertex 2.585786437626905 4.914213562373094 12.0
    vertex 3.0000000000000004 5.232050807568876 12.0
  endloop
endfacet
facet normal 0.0 0.0 1.0
  outer loop
    vertex 3.094133342141178 6.880740392011737 12.0
    vertex 3.0000000000000004 5.232050807568876 12.0
    vertex 3.4823619097949585 5.4318516525781355 12.0
  endloop
endfacet
facet normal 0.0 0.0 1.0
  outer loop
    vertex 3.094133342141178 6.880740392011737 12.0
    vertex 3.4823619097949585 5.4318516525781355 12.0
    vertex 3.9999999999999996 6.999999999999998 12.0
  endloop
endfacet
facet normal 0.0 0.0 1.0
  outer loop
    vertex 3.9999999999999996 6.999999999999998 12.0
    vertex 3.4823619097949585 5.4318516525781355 12.0
    vertex 3.9999999999999996 5.499999999999999 12.0
  endloop
endfacet
facet normal 0.0 0.0 1.0
  outer loop
    vertex 3.9999999999999996 6.999999999999998 12.0
    vertex 3.9999999999999996 5.499999999999999 12.0
    vertex 4.5176380902050415 5.4318516525781355 12.0
  endloop
endfacet
facet normal 0.0 0.0 1.0
  outer loop
    vertex 3.9999999999999996 6.999999999999998 12.0
    vertex 4.5176380902050415 5.4318516525781355 12.0
    vertex 4.905866657858823 6.880740392011737 12.0
  endloop
endfacet
facet normal 0.0 0.0 1.0
  outer loop
    vertex 4.905866657858823 6.880740392011737 12.0
    vertex 4.5176380902050415 5.4318516525781355 12.0
    vertex 4.999999999999999 5.232050807568876 12.0
  endloop
endfacet
facet normal 0.0 0.0 1.0
  outer loop
    vertex 4.905866657858823 6.880740392011737 12.0
    vertex 4.999999999999999 5.232050807568876 12.0
    vertex 5.749999999999999 6.531088913245534 12.0
  endloop
endfacet
facet normal 0.0 0.0 1.0
  outer loop
    vertex 5.749999999999999 6.531088913245534 12.0
    vertex 4.999999999999999 5.232050807568876 12.0
    vertex 5.414213562373095 4.914213562373094 12.0
  endloop
endfacet
facet normal 0.0 0.0 1.0
  outer loop
    vertex 5.749999999999999 6.531088913245534 12.0
    vertex 5.414213562373095 4.914213562373094 12.0
    vertex 5.732050807568877 4.499999999999999 12.0
  endloop
endfacet
facet normal 0.0 0.0 1.0
  outer loop
    vertex 5.749999999999999 6.531088913245534 12.0
    vertex 5.732050807568877 4.499999999999999 12.0
    vertex 5.9318516525781355 4.017638090205041 12.0
  endloop
endfacet
facet normal 0.0 0.0 1.0
  outer loop
    vertex 5.749999999999999 6.531088913245534 12.0
    vertex 5.9318516525781355 4.017638090205041 12.0
    vertex 6.474873734152915 5.974873734152915 12.0
  endloop
endfacet
facet normal 0.0 0.0 1.0
  outer loop
    vertex 6.474873734152915 5.974873734152915 12.0
    vertex 5.9318516525781355 4.017638090205041 12.0
    vertex 5.999999999999999 3.499999999999999 12.0
  endloop
endfacet
facet normal 0.0 0.0 1.0
  outer loop
    vertex 6.474873734152915 5.974873734152915 12.0
    vertex 5.999999999999999 3.499999999999999 12.0
    vertex 6.474873734152915 1.0251262658470834 12.0
  endloop
endfacet
facet normal 0.0 0.0 1.0
  outer loop
    vertex 6.474873734152915 5.974873734152915 12.0
    vertex 6.474873734152915 1.0251262658470834 12.0
    vertex 7.031088913245534 1.7499999999999993 12.0
  endloop
endfacet
facet normal 0.0 0.0 1.0
  outer loop
    vertex 6.474873734152915 5.974873734152915 12.0
    vertex 7.031088913245534 1.7499999999999993 12.0
    vertex 7.031088913245536 5.249999999999999 12.0
  endloop
endfacet
facet normal 0.0 0.0 1.0
  outer loop
    vertex 7.031088913245536 5.249999999999999 12.0
    vertex 7.031088913245534 1.7499999999999993 12.0
    vertex 7.380740392011738 2.594133342141176 12.0
  endloop
endfacet
facet normal 0.0 0.0 1.0
  outer loop
    vertex 7.031088913245536 5.249999999999999 12.0
    vertex 7.380740392011738 2.594133342141176 12.0
    vertex 7.380740392011738 4.405866657858821 12.0
  endloop
endfacet
facet normal 0.0 0.0 1.0
  outer loop
    vertex 7.380740392011738 4.405866657858821 12.0
    vertex 7.380740392011738 2.594133342141176 12.0
    vertex 7.499999999999999 3.499999999999999 12.0
  endloop
endfacet
facet normal 0.7933533402912344 0.6087614290087218 -1.4229176092333308e-18
  outer loop
    vertex 6.474873734152915 5.974873734152915 3.0
    vertex 7.031088913245536 5.249999999999999 12.0
    vertex 7.031088913245536 5.249999999999999 3.0
  endloop
endfacet
facet normal 0.7933533402912344 0.6087614290087218 -1.4229176092333308e-18
  outer loop
    vertex 7.031088913245536 5.249999999999999 12.0
    vertex 6.474873734152915 5.974873734152915 3.0
    vertex 6.474873734152915 5.974873734152915 12.0
  endloop
endfacet
facet normal 0.3826834323650903 0.9238795325112867 -4.853306980870094e-19
  outer loop
    vertex 4.905866657858823 6.880740392011737 12.0
    vertex 5.749999999999999 6.531088913245534 3.0
    vertex 4.905866657858823 6.880740392011737 3.0
  endloop
endfacet
facet normal 0.3826834323650903 0.9238795325112867 -4.853306980870094e-19
  outer loop
    vertex 5.749999999999999 6.531088913245534 3.0
    vertex 4.905866657858823 6.880740392011737 12.0
    vertex 5.749999999999999 6.531088913245534 12.0
  endloop
endfacet
facet normal -0.38268343236508995 0.9238795325112867 1.1716919535576821e-18
  outer loop
    vertex 2.250000000000001 6.531088913245534 12.0
    vertex 3.094133342141178 6.880740392011737 3.0
    vertex 2.250000000000001 6.531088913245534 3.0
  endloop
endfacet
facet normal -0.38268343236508995 0.9238795325112867 1.1716919535576821e-18
  outer loop
    vertex 3.094133342141178 6.880740392011737 3.0
    vertex 2.250000000000001 6.531088913245534 12.0
    vertex 3.094133342141178 6.880740392011737 12.0
  endloop
endfacet
facet normal -0.7933533402912355 -0.6087614290087202 -0.0
  outer loop
    vertex 0.9689110867544637 1.750000000000002 12.0
    vertex 1.5251262658470832 1.025126265847084 0.0
    vertex 1.5251262658470832 1.025126265847084 12.0
  endloop
endfacet
facet normal -0.7933533402912355 -0.6087614290087202 -0.0
  outer loop
    vertex 1.5251262658470832 1.025126265847084 0.0
    vertex 0.9689110867544637 1.750000000000002 12.0
    vertex 0.9689110867544637 1.750000000000002 0.0
  endloop
endfacet
facet normal -0.9914448613738105 0.13052619222005218 7.395247323202637e-19
  outer loop
    vertex 0.6192596079882623 4.405866657858825 12.0
    vertex 0.5000000000000004 3.5 0.0
    vertex 0.5000000000000004 3.5 12.0
  endloop
endfacet
facet normal -0.9914448613738105 0.13052619222005218 7.395247323202637e-19
  outer loop
    vertex 0.5000000000000004 3.5 0.0
    vertex 0.6192596079882623 4.405866657858825 12.0
    vertex 0.6192596079882623 4.405866657858825 0.0
  endloop
endfacet
facet normal -0.9914448613738105 0.13052619222005218 7.395247323202637e-19
  outer loop
    vertex 0.6192596079882623 4.405866657858825 0.0
    vertex 0.6192596079882623 4.405866657858825 12.0
    vertex 0.6192596079882623 4.405866657858825 3.0
  endloop
endfacet
facet normal 0.9914448613738104 -0.13052619222005163 0.0
  outer loop
    vertex 2.0681483474218636 4.0176380902050415 0.0
    vertex 2.0 3.499999999999999 12.0
    vertex 2.0 3.499999999999999 0.0
  endloop
endfacet
facet normal 0.9914448613738104 -0.13052619222005163 0.0
  outer loop
    vertex 2.0 3.499999999999999 12.0
    vertex 2.0681483474218636 4.0176380902050415 0.0
    vertex 2.0681483474218636 4.0176380902050415 12.0
  endloop
endfacet
facet normal -0.13052619222005163 -0.9914448613738104 -0.0
  outer loop
    vertex 4.5176380902050415 5.4318516525781355 12.0
    vertex 3.9999999999999996 5.499999999999999 0.0
    vertex 4.5176380902050415 5.4318516525781355 0.0
  endloop
endfacet
facet normal -0.13052619222005163 -0.9914448613738104 -0.0
  outer loop
    vertex 3.9999999999999996 5.499999999999999 0.0
    vertex 4.5176380902050415 5.4318516525781355 12.0
    vertex 3.9999999999999996 5.499999999999999 12.0
  endloop
endfacet
facet normal -0.9238795325112865 0.3826834323650904 0.0
  outer loop
    vertex 5.9318516525781355 2.9823619097949563 12.0
    vertex 5.732050807568876 2.4999999999999982 0.0
    vertex 5.732050807568876 2.4999999999999982 12.0
  endloop
endfacet
facet normal -0.9238795325112865 0.3826834323650904 0.0
  outer loop
    vertex 5.732050807568876 2.4999999999999982 0.0
    vertex 5.9318516525781355 2.9823619097949563 12.0
    vertex 5.9318516525781355 2.9823619097949563 0.0
  endloop
endfacet
facet normal -0.9238795325112871 -0.38268343236508934 -0.0
  outer loop
    vertex 0.619259607988261 2.5941333421411783 12.0
    vertex 0.9689110867544637 1.750000000000002 0.0
    vertex 0.9689110867544637 1.750000000000002 12.0
  endloop
endfacet
facet normal -0.9238795325112871 -0.38268343236508934 -0.0
  outer loop
    vertex 0.9689110867544637 1.750000000000002 0.0
    vertex 0.619259607988261 2.5941333421411783 12.0
    vertex 0.619259607988261 2.5941333421411783 0.0
  endloop
endfacet
facet normal -0.6087614290087179 0.7933533402912372 0.0
  outer loop
    vertex 2.5857864376269055 14.414213562373098 3.0
    vertex 3.0 14.732050807568877 0.0
    vertex 2.5857864376269055 14.414213562373098 0.0
  endloop
endfacet
facet normal -0.6087614290087179 0.7933533402912372 0.0
  outer loop
    vertex 3.0 14.732050807568877 0.0
    vertex 2.5857864376269055 14.414213562373098 3.0
    vertex 3.0 14.732050807568877 3.0
  endloop
endfacet
facet normal 5.5687751839590714e-33 -1.651964905169608e-32 1.0
  outer loop
    vertex 0.9689110867544658 5.25 3.0
    vertex 2.0000000000000004 13.000000000000002 3.0
    vertex 0.6192596079882623 4.405866657858825 3.0
  endloop
endfacet
facet normal 5.5687751839590714e-33 -1.651964905169608e-32 1.0
  outer loop
    vertex 2.0000000000000004 13.000000000000002 3.0
    vertex 0.9689110867544658 5.25 3.0
    vertex 1.5251262658470843 5.974873734152915 3.0
  endloop
endfacet
facet normal 5.5687751839590714e-33 -1.651964905169608e-32 1.0
  outer loop
    vertex 2.0000000000000004 13.000000000000002 3.0
    vertex 1.5251262658470843 5.974873734152915 3.0
    vertex 2.250000000000001 6.531088913245534 3.0
  endloop
endfacet
facet normal 5.5687751839590714e-33 -1.651964905169608e-32 1.0
  outer loop
    vertex 2.0000000000000004 13.000000000000002 3.0
    vertex 2.250000000000001 6.531088913245534 3.0
    vertex 2.068148347421864 13.517638090205045 3.0
  endloop
endfacet
facet normal 5.5687751839590714e-33 -1.651964905169608e-32 1.0
  outer loop
    vertex 2.068148347421864 13.517638090205045 3.0
    vertex 2.250000000000001 6.531088913245534 3.0
    vertex 2.2679491924311233 14.000000000000002 3.0
  endloop
endfacet
facet normal 5.5687751839590714e-33 -1.651964905169608e-32 1.0
  outer loop
    vertex 2.2679491924311233 14.000000000000002 3.0
    vertex 2.250000000000001 6.531088913245534 3.0
    vertex 3.094133342141178 6.880740392011737 3.0
  endloop
endfacet
facet normal 5.5687751839590714e-33 -1.651964905169608e-32 1.0
  outer loop
    vertex 2.2679491924311233 14.000000000000002 3.0
    vertex 3.094133342141178 6.880740392011737 3.0
    vertex 2.5857864376269055 14.414213562373098 3.0
  endloop
endfacet
facet normal 5.5687751839590714e-33 -1.651964905169608e-32 1.0
  outer loop
    vertex 2.5857864376269055 14.414213562373098 3.0
    vertex 3.094133342141178 6.880740392011737 3.0
    vertex 3.0 14.732050807568877 3.0
  endloop
endfacet
facet normal 5.5687751839590714e-33 -1.651964905169608e-32 1.0
  outer loop
    vertex 3.0 14.732050807568877 3.0
    vertex 3.094133342141178 6.880740392011737 3.0
    vertex 3.4823619097949585 14.931851652578137 3.0
  endloop
endfacet
facet normal 5.5687751839590714e-33 -1.651964905169608e-32 1.0
  outer loop
    vertex 3.4823619097949585 14.931851652578137 3.0
    vertex 3.094133342141178 6.880740392011737 3.0
    vertex 3.9999999999999996 6.999999999999998 3.0
  endloop
endfacet
facet normal 5.5687751839590714e-33 -1.651964905169608e-32 1.0
  outer loop
    vertex 3.4823619097949585 14.931851652578137 3.0
    vertex 3.9999999999999996 6.999999999999998 3.0
    vertex 3.9999999999999996 15.0 3.0
  endloop
endfacet
facet normal 5.5687751839590714e-33 -1.651964905169608e-32 1.0
  outer loop
    vertex 3.9999999999999996 15.0 3.0
    vertex 3.9999999999999996 6.999999999999998 3.0
    vertex 4.905866657858823 6.880740392011737 3.0
  endloop
endfacet
facet normal 5.5687751839590714e-33 -1.651964905169608e-32 1.0
  outer loop
    vertex 3.9999999999999996 15.0 3.0
    vertex 4.905866657858823 6.880740392011737 3.0
    vertex 4.517638090205042 14.931851652578137 3.0
  endloop
endfacet
facet normal 5.5687751839590714e-33 -1.651964905169608e-32 1.0
  outer loop
    vertex 4.517638090205042 14.931851652578137 3.0
    vertex 4.905866657858823 6.880740392011737 3.0
    vertex 5.0 14.732050807568877 3.0
  endloop
endfacet
facet normal 5.5687751839590714e-33 -1.651964905169608e-32 1.0
  outer loop
    vertex 5.0 14.732050807568877 3.0
    vertex 4.905866657858823 6.880740392011737 3.0
    vertex 5.749999999999999 6.531088913245534 3.0
  endloop
endfacet
facet normal 5.5687751839590714e-33 -1.651964905169608e-32 1.0
  outer loop
    vertex 5.0 14.732050807568877 3.0
    vertex 5.749999999999999 6.531088913245534 3.0
    vertex 5.414213562373094 14.414213562373094 3.0
  endloop
endfacet
facet normal 5.5687751839590714e-33 -1.651964905169608e-32 1.0
  outer loop
    vertex 5.414213562373094 14.414213562373094 3.0
    vertex 5.749999999999999 6.531088913245534 3.0
    vertex 5.732050807568877 14.0 3.0
  endloop
endfacet
facet normal 5.5687751839590714e-33 -1.651964905169608e-32 1.0
  outer loop
    vertex 5.732050807568877 14.0 3.0
    vertex 5.749999999999999 6.531088913245534 3.0
    vertex 5.9318516525781355 13.517638090205041 3.0
  endloop
endfacet
facet normal 5.5687751839590714e-33 -1.651964905169608e-32 1.0
  outer loop
    vertex 5.9318516525781355 13.517638090205041 3.0
    vertex 5.749999999999999 6.531088913245534 3.0
    vertex 6.474873734152915 5.974873734152915 3.0
  endloop
endfacet
facet normal 5.5687751839590714e-33 -1.651964905169608e-32 1.0
  outer loop
    vertex 5.9318516525781355 13.517638090205041 3.0
    vertex 6.474873734152915 5.974873734152915 3.0
    vertex 5.999999999999999 13.000000000000002 3.0
  endloop
endfacet
facet normal 5.5687751839590714e-33 -1.651964905169608e-32 1.0
  outer loop
    vertex 5.999999999999999 13.000000000000002 3.0
    vertex 6.474873734152915 5.974873734152915 3.0
    vertex 7.031088913245536 5.249999999999999 3.0
  endloop
endfacet
facet normal 5.5687751839590714e-33 -1.651964905169608e-32 1.0
  outer loop
    vertex 5.999999999999999 13.000000000000002 3.0
    vertex 7.031088913245536 5.249999999999999 3.0
    vertex 7.380740392011738 4.405866657858821 3.0
  endloop
endfacet
facet normal 0.9873386423521667 0.15862662235003447 -0.0
  outer loop
    vertex 5.999999999999999 13.000000000000002 0.0
    vertex 7.380740392011738 4.405866657858821 3.0
    vertex 7.380740392011738 4.405866657858821 0.0
  endloop
endfacet
facet normal 0.9873386423521667 0.15862662235003447 -0.0
  outer loop
    vertex 7.380740392011738 4.405866657858821 3.0
    vertex 5.999999999999999 13.000000000000002 0.0
    vertex 5.999999999999999 13.000000000000002 3.0
  endloop
endfacet
facet normal -0.9238795325112868 0.38268343236508956 0.0
  outer loop
    vertex 2.2679491924311233 14.000000000000002 3.0
    vertex 2.068148347421864 13.517638090205045 0.0
    vertex 2.068148347421864 13.517638090205045 3.0
  endloop
endfacet
facet normal -0.9238795325112868 0.38268343236508956 0.0
  outer loop
    vertex 2.068148347421864 13.517638090205045 0.0
    vertex 2.2679491924311233 14.000000000000002 3.0
    vertex 2.2679491924311233 14.000000000000002 0.0
  endloop
endfacet
facet normal 0.13052619222005143 0.9914448613738105 0.0
  outer loop
    vertex 3.9999999999999996 15.0 3.0
    vertex 4.517638090205042 14.931851652578137 0.0
    vertex 3.9999999999999996 15.0 0.0
  endloop
endfacet
facet normal 0.13052619222005143 0.9914448613738105 0.0
  outer loop
    vertex 4.517638090205042 14.931851652578137 0.0
    vertex 3.9999999999999996 15.0 3.0
    vertex 4.517638090205042 14.931851652578137 3.0
  endloop
endfacet
facet normal 0.9238795325112871 0.38268343236508895 0.0
  outer loop
    vertex 5.732050807568877 14.0 0.0
    vertex 5.9318516525781355 13.517638090205041 3.0
    vertex 5.9318516525781355 13.517638090205041 0.0
  endloop
endfacet
facet normal 0.9238795325112871 0.38268343236508895 0.0
  outer loop
    vertex 5.9318516525781355 13.517638090205041 3.0
    vertex 5.732050807568877 14.0 0.0
    vertex 5.732050807568877 14.0 3.0
  endloop
endfacet
facet normal -0.1305261922200518 0.9914448613738104 0.0
  outer loop
    vertex 3.4823619097949585 14.931851652578137 3.0
    vertex 3.9999999999999996 15.0 0.0
    vertex 3.4823619097949585 14.931851652578137 0.0
  endloop
endfacet
facet normal -0.1305261922200518 0.9914448613738104 0.0
  outer loop
    vertex 3.9999999999999996 15.0 0.0
    vertex 3.4823619097949585 14.931851652578137 3.0
    vertex 3.9999999999999996 15.0 3.0
  endloop
endfacet
facet normal -0.7933533402912349 0.6087614290087209 0.0
  outer loop
    vertex 2.5857864376269055 14.414213562373098 3.0
    vertex 2.2679491924311233 14.000000000000002 0.0
    vertex 2.2679491924311233 14.000000000000002 3.0
  endloop
endfacet
facet normal -0.7933533402912349 0.6087614290087209 0.0
  outer loop
    vertex 2.2679491924311233 14.000000000000002 0.0
    vertex 2.5857864376269055 14.414213562373098 3.0
    vertex 2.5857864376269055 14.414213562373098 0.0
  endloop
endfacet
facet normal -0.9873386423521667 0.1586266223500345 0.0
  outer loop
    vertex 2.0000000000000004 13.000000000000002 3.0
    vertex 0.6192596079882623 4.405866657858825 0.0
    vertex 0.6192596079882623 4.405866657858825 3.0
  endloop
endfacet
facet normal -0.9873386423521667 0.1586266223500345 0.0
  outer loop
    vertex 0.6192596079882623 4.405866657858825 0.0
    vertex 2.0000000000000004 13.000000000000002 3.0
    vertex 2.0000000000000004 13.000000000000002 0.0
  endloop
endfacet
facet normal 0.7933533402912347 0.6087614290087213 0.0
  outer loop
    vertex 5.414213562373094 14.414213562373094 0.0
    vertex 5.732050807568877 14.0 3.0
    vertex 5.732050807568877 14.0 0.0
  endloop
endfacet
facet normal 0.7933533402912347 0.6087614290087213 0.0
  outer loop
    vertex 5.732050807568877 14.0 3.0
    vertex 5.414213562373094 14.414213562373094 0.0
    vertex 5.414213562373094 14.414213562373094 3.0
  endloop
endfacet
facet normal 0.9914448613738104 0.13052619222005216 0.0
  outer loop
    vertex 5.9318516525781355 13.517638090205041 0.0
    vertex 5.999999999999999 13.000000000000002 3.0
    vertex 5.999999999999999 13.000000000000002 0.0
  endloop
endfacet
facet normal 0.9914448613738104 0.13052619222005216 0.0
  outer loop
    vertex 5.999999999999999 13.000000000000002 3.0
    vertex 5.9318516525781355 13.517638090205041 0.0
    vertex 5.9318516525781355 13.517638090205041 3.0
  endloop
endfacet
facet normal 0.3826834323650917 0.9238795325112859 0.0
  outer loop
    vertex 4.517638090205042 14.931851652578137 3.0
    vertex 5.0 14.732050807568877 0.0
    vertex 4.517638090205042 14.931851652578137 0.0
  endloop
endfacet
facet normal 0.3826834323650917 0.9238795325112859 0.0
  outer loop
    vertex 5.0 14.732050807568877 0.0
    vertex 4.517638090205042 14.931851652578137 3.0
    vertex 5.0 14.732050807568877 3.0
  endloop
endfacet
facet normal -0.9914448613738105 0.13052619222005143 0.0
  outer loop
    vertex 2.068148347421864 13.517638090205045 3.0
    vertex 2.0000000000000004 13.000000000000002 0.0
    vertex 2.0000000000000004 13.000000000000002 3.0
  endloop
endfacet
facet normal -0.9914448613738105 0.13052619222005143 0.0
  outer loop
    vertex 2.0000000000000004 13.000000000000002 0.0
    vertex 2.068148347421864 13.517638090205045 3.0
    vertex 2.068148347421864 13.517638090205045 0.0
  endloop
endfacet
facet normal -0.3826834323650914 0.9238795325112863 0.0
  outer loop
    vertex 3.0 14.732050807568877 3.0
    vertex 3.4823619097949585 14.931851652578137 0.0
    vertex 3.0 14.732050807568877 0.0
  endloop
endfacet
facet normal -0.3826834323650914 0.9238795325112863 0.0
  outer loop
    vertex 3.4823619097949585 14.931851652578137 0.0
    vertex 3.0 14.732050807568877 3.0
    vertex 3.4823619097949585 14.931851652578137 3.0
  endloop
endfacet
facet normal 0.608761429008722 0.7933533402912342 0.0
  outer loop
    vertex 5.0 14.732050807568877 3.0
    vertex 5.414213562373094 14.414213562373094 0.0
    vertex 5.0 14.732050807568877 0.0
  endloop
endfacet
facet normal 0.608761429008722 0.7933533402912342 0.0
  outer loop
    vertex 5.414213562373094 14.414213562373094 0.0
    vertex 5.0 14.732050807568877 3.0
    vertex 5.414213562373094 14.414213562373094 3.0
  endloop
endfacet
endsolid Untitled-5937873e
