<?xml version="1.0" encoding="UTF-8" standalone="no"?>
<!-- Created with Inkscape (http://www.inkscape.org/) -->

<svg
   xmlns:dc="http://purl.org/dc/elements/1.1/"
   xmlns:cc="http://creativecommons.org/ns#"
   xmlns:rdf="http://www.w3.org/1999/02/22-rdf-syntax-ns#"
   xmlns:svg="http://www.w3.org/2000/svg"
   xmlns="http://www.w3.org/2000/svg"
   xmlns:sodipodi="http://sodipodi.sourceforge.net/DTD/sodipodi-0.dtd"
   xmlns:inkscape="http://www.inkscape.org/namespaces/inkscape"
   width="150.33908"
   height="158.20418"
   viewBox="0 0 39.777214 41.85819"
   version="1.1"
   id="svg5036"
   inkscape:version="0.92.1 unknown"
   sodipodi:docname="clue.svg">
  <defs
     id="defs5030">
    <filter
       inkscape:collect="always"
       style="color-interpolation-filters:sRGB"
       id="filter5835"
       x="-0.011620197"
       width="1.0232404"
       y="-0.01240547"
       height="1.0248109">
      <feGaussianBlur
         inkscape:collect="always"
         stdDeviation="0.1033254"
         id="feGaussianBlur5837" />
    </filter>
  </defs>
  <sodipodi:namedview
     id="base"
     pagecolor="#ffffff"
     bordercolor="#666666"
     borderopacity="1.0"
     inkscape:pageopacity="0.0"
     inkscape:pageshadow="2"
     inkscape:zoom="1.4"
     inkscape:cx="94.064536"
     inkscape:cy="-38.408774"
     inkscape:document-units="px"
     inkscape:current-layer="g5829"
     showgrid="false"
     inkscape:window-width="1557"
     inkscape:window-height="879"
     inkscape:window-x="43"
     inkscape:window-y="21"
     inkscape:window-maximized="1"
     units="px"
     fit-margin-top="15"
     fit-margin-left="15"
     fit-margin-right="15"
     fit-margin-bottom="15" />
  <metadata
     id="metadata5033">
    <rdf:RDF>
      <cc:Work
         rdf:about="">
        <dc:format>image/svg+xml</dc:format>
        <dc:type
           rdf:resource="http://purl.org/dc/dcmitype/StillImage" />
        <dc:title></dc:title>
      </cc:Work>
    </rdf:RDF>
  </metadata>
  <g
     inkscape:label="Layer 1"
     inkscape:groupmode="layer"
     id="layer1"
     transform="translate(-64.744098,-95.290835)">
    <g
       id="g5669"
       transform="rotate(9.3762525,110.2973,114.32335)">
      <g
         id="g5829"
         transform="translate(-1.0441938,0.17242054)"
         style="filter:url(#filter5835)">
        <g
           aria-label="452"
           style="font-style:normal;font-variant:normal;font-weight:normal;font-stretch:normal;font-size:10.58333302px;line-height:125%;font-family:Instruction;-inkscape-font-specification:Instruction;letter-spacing:0px;word-spacing:0px;fill:#c60000;fill-opacity:1;stroke:none;stroke-width:0.26458332px;stroke-linecap:butt;stroke-linejoin:miter;stroke-opacity:1"
           id="text5583">
          <path
             d="m 80.49524,112.89667 v 4.13411 h 0.516764 q 0.211874,0 0.361735,0.15503 0.15503,0.14987 0.15503,0.36174 0,0.21187 -0.15503,0.3669 -0.149861,0.14986 -0.361735,0.14986 H 80.49524 v 1.5503 q 0,0.21187 -0.155029,0.3669 -0.149862,0.14986 -0.361735,0.14986 -0.211874,0 -0.366903,-0.14986 -0.149862,-0.15503 -0.149862,-0.3669 v -1.5503 H 76.87789 q -0.211873,0 -0.366903,-0.14986 -0.149861,-0.15503 -0.149861,-0.3669 0,-0.21187 0.155029,-0.3669 l 0.06201,-0.11369 2.8267,-4.24264 q 0.09819,-0.17053 0.191203,-0.27388 0.01033,-0.0103 0.02067,-0.0207 0.149861,-0.14986 0.361735,-0.14986 0.211873,0 0.366902,0.14986 0.149862,0.15503 0.149862,0.3669 z m -2.651001,4.13411 h 1.617472 v -2.42879 z"
             style="line-height:0px;text-align:center;letter-spacing:0.70114577px;text-anchor:middle;fill:#c60000;fill-opacity:1;stroke:none;stroke-width:0.26458332px"
             id="path5858" />
          <path
             d="m 84.296972,113.41343 v 1.5503 h 1.937866 q 0.909505,0 1.550293,0.64595 0.645955,0.64079 0.645955,1.5503 v 0.77514 q 0,0.90951 -0.645955,1.55546 -0.640788,0.64079 -1.550293,0.64079 h -0.775147 q -0.909505,0 -1.55546,-0.64079 -0.640788,-0.64595 -0.640788,-1.55546 0,-0.21187 0.149862,-0.36173 0.155029,-0.15503 0.366902,-0.15503 0.211874,0 0.361735,0.15503 0.15503,0.14986 0.15503,0.36173 0,0.48059 0.341064,0.82166 0.341065,0.34106 0.821655,0.34106 h 0.775147 q 0.480591,0 0.821655,-0.34106 0.341065,-0.34107 0.341065,-0.82166 v -0.78031 q 0,-0.47543 -0.341065,-0.81649 -0.341064,-0.34106 -0.821655,-0.34106 h -2.454631 q -0.211873,0 -0.366902,-0.14987 -0.149862,-0.15502 -0.149862,-0.3669 v -2.58382 q 0,-0.21187 0.149862,-0.36173 0.155029,-0.15503 0.366902,-0.15503 h 4.134115 q 0.211873,0 0.361735,0.15503 0.155029,0.14986 0.155029,0.36173 0,0.21187 -0.155029,0.3669 -0.149862,0.14986 -0.361735,0.14986 z"
             style="line-height:0px;text-align:center;letter-spacing:0.70114577px;text-anchor:middle;fill:#c60000;fill-opacity:1;stroke:none;stroke-width:0.26458332px"
             id="path5860" />
          <path
             d="m 90.165761,117.93512 q 0,-0.9095 0.640787,-1.55029 0.645956,-0.64596 1.555461,-0.64596 h 0.775146 q 0.480591,0 0.821656,-0.34106 0.341064,-0.34106 0.341064,-0.82166 0,-0.48059 -0.341064,-0.82165 -0.341065,-0.34107 -0.821656,-0.34107 h -0.775146 q -0.480591,0 -0.821655,0.34107 -0.341065,0.34106 -0.341065,0.82165 0,0.21188 -0.155029,0.36691 -0.149862,0.14986 -0.361735,0.14986 -0.211873,0 -0.366903,-0.14986 -0.149861,-0.15503 -0.149861,-0.36691 0,-0.9095 0.640787,-1.55029 0.645956,-0.64595 1.555461,-0.64595 h 0.775146 q 0.909506,0 1.550293,0.64595 0.645956,0.64079 0.645956,1.55029 0,0.90951 -0.645956,1.55546 -0.640787,0.64079 -1.550293,0.64079 h -0.775146 q -0.480591,0 -0.821655,0.34107 -0.341065,0.34106 -0.341065,0.82165 v 1.16272 h 3.61735 q 0.211874,0 0.361735,0.15503 0.15503,0.14986 0.15503,0.36174 0,0.21187 -0.15503,0.3669 -0.149861,0.14986 -0.361735,0.14986 h -4.134114 q -0.211873,0 -0.366903,-0.14986 -0.149861,-0.15503 -0.149861,-0.3669 z"
             style="line-height:0px;text-align:center;letter-spacing:0.70114577px;text-anchor:middle;fill:#c60000;fill-opacity:1;stroke:none;stroke-width:0.26458332px"
             id="path5862" />
        </g>
        <g
           aria-label="egg"
           style="font-style:normal;font-variant:normal;font-weight:normal;font-stretch:normal;font-size:10.58333302px;line-height:125%;font-family:Instruction;-inkscape-font-specification:Instruction;letter-spacing:0px;word-spacing:0px;fill:#c60000;fill-opacity:1;stroke:none;stroke-width:0.26458332px;stroke-linecap:butt;stroke-linejoin:miter;stroke-opacity:1"
           id="text5589">
          <path
             d="m 81.191055,128.52302 q 0.211874,0 0.361735,0.15503 0.155029,0.14986 0.155029,0.36173 0,0.21188 -0.155029,0.36691 -0.149861,0.14986 -0.361735,0.14986 h -4.134114 q -0.211874,0 -0.366903,-0.14986 -0.149862,-0.15503 -0.149862,-0.36691 v -6.71793 q 0,-0.21187 0.149862,-0.36174 0.155029,-0.15503 0.366903,-0.15503 h 4.134114 q 0.211874,0 0.361735,0.15503 0.155029,0.14987 0.155029,0.36174 0,0.21187 -0.155029,0.3669 -0.149861,0.14986 -0.361735,0.14986 h -3.61735 v 2.32544 h 3.100586 q 0.211873,0 0.361735,0.15503 0.155029,0.14986 0.155029,0.36174 0,0.21187 -0.155029,0.3669 -0.149862,0.14986 -0.361735,0.14986 h -3.100586 v 2.32544 z"
             style="letter-spacing:0.21166667px"
             id="path5865" />
          <path
             d="m 88.120658,129.03978 q 0,0.21188 -0.155029,0.36691 -0.149862,0.14986 -0.361735,0.14986 -0.211874,0 -0.361735,-0.15503 -0.15503,-0.14986 -0.15503,-0.35657 -0.666626,0.5116 -1.550293,0.5116 -1.069702,0 -1.829345,-0.75448 -0.754476,-0.75964 -0.754476,-1.82934 v -2.58382 q 0,-1.06971 0.754476,-1.82418 0.759643,-0.75965 1.829345,-0.75965 1.069703,0 1.824178,0.75965 0.759644,0.75447 0.759644,1.82418 0,0.21187 -0.155029,0.3669 -0.149862,0.14986 -0.361735,0.14986 -0.211874,0 -0.366903,-0.14986 -0.149862,-0.15503 -0.149862,-0.3669 0,-0.64079 -0.454752,-1.09554 -0.454753,-0.45476 -1.095541,-0.45476 -0.640787,0 -1.09554,0.45476 -0.454753,0.45475 -0.454753,1.09554 v 2.58382 q 0,0.64079 0.454753,1.09554 0.454753,0.45475 1.09554,0.45475 0.640788,0 1.095541,-0.45475 0.454752,-0.45475 0.454752,-1.09554 v -0.25838 h -1.808675 q -0.211873,0 -0.366902,-0.14987 -0.149862,-0.15503 -0.149862,-0.3669 0,-0.21187 0.149862,-0.36173 0.155029,-0.15503 0.366902,-0.15503 h 2.32544 q 0.211873,0 0.361735,0.15503 0.155029,0.14986 0.155029,0.36173 z"
             style="letter-spacing:0.71437502px"
             id="path5867" />
          <path
             d="m 95.036205,129.03978 q 0,0.21188 -0.155029,0.36691 -0.149862,0.14986 -0.361735,0.14986 -0.211874,0 -0.361736,-0.15503 -0.155029,-0.14986 -0.155029,-0.35657 -0.666626,0.5116 -1.550293,0.5116 -1.069702,0 -1.829345,-0.75448 -0.754476,-0.75964 -0.754476,-1.82934 v -2.58382 q 0,-1.06971 0.754476,-1.82418 0.759643,-0.75965 1.829345,-0.75965 1.069702,0 1.824178,0.75965 0.759644,0.75447 0.759644,1.82418 0,0.21187 -0.155029,0.3669 -0.149862,0.14986 -0.361735,0.14986 -0.211874,0 -0.366903,-0.14986 -0.149862,-0.15503 -0.149862,-0.3669 0,-0.64079 -0.454752,-1.09554 -0.454753,-0.45476 -1.095541,-0.45476 -0.640787,0 -1.09554,0.45476 -0.454753,0.45475 -0.454753,1.09554 v 2.58382 q 0,0.64079 0.454753,1.09554 0.454753,0.45475 1.09554,0.45475 0.640788,0 1.095541,-0.45475 0.454752,-0.45475 0.454752,-1.09554 v -0.25838 h -1.808675 q -0.211873,0 -0.366903,-0.14987 -0.149861,-0.15503 -0.149861,-0.3669 0,-0.21187 0.149861,-0.36173 0.15503,-0.15503 0.366903,-0.15503 h 2.32544 q 0.211873,0 0.361735,0.15503 0.155029,0.14986 0.155029,0.36173 z"
             style="letter-spacing:0.71437502px"
             id="path5869" />
        </g>
      </g>
    </g>
    <path
       style="opacity:0.82599996;fill:#c60000;fill-opacity:1;stroke:none;stroke-width:2.22249985;stroke-linecap:round;stroke-linejoin:round;stroke-miterlimit:4;stroke-dasharray:none"
       id="path5663"
       d="m 84.746938,100.97965 c -0.902701,0.28156 -1.801816,0.56975 -2.686987,0.90273 -1.308468,0.467 -2.613544,0.93638 -3.874056,1.52252 -0.769096,0.35859 -0.382188,0.16324 -1.129487,0.57182 -0.186177,0.10179 -0.742321,0.41142 -0.558668,0.30514 3.556772,-2.05829 1.367663,-0.76245 0.62135,-0.24621 -1.133475,0.7683 -2.071666,1.74668 -2.914782,2.81586 -0.848834,1.14925 -1.390182,2.45826 -1.839249,3.80305 -0.51051,1.6061 -0.90483,3.24093 -1.159306,4.90613 -0.314211,1.931 -0.139247,3.86141 0.226624,5.76757 0.315177,1.40887 0.859972,2.73988 1.570709,3.99163 0.72085,1.19505 1.596351,2.29208 2.573703,3.28604 0.734594,0.71841 1.622345,1.23337 2.540878,1.67664 0.952461,0.46588 1.988826,0.70513 3.017438,0.93417 1.221465,0.2538 2.468605,0.32174 3.712062,0.36261 1.133197,0.0577 2.256216,-0.0639 3.362124,-0.30192 0.547634,-0.12416 1.088326,-0.29021 1.591384,-0.54365 0.175329,-0.0883 0.684204,-0.38536 0.511601,-0.29181 -1.919086,1.04008 -2.369439,1.4326 -1.325137,0.61779 1.000827,-0.78629 1.876944,-1.71011 2.759165,-2.62292 0.923814,-0.92714 1.811126,-1.88523 2.632163,-2.90446 0.735599,-0.86786 1.23259,-1.88132 1.666679,-2.92315 0.419182,-1.07226 0.806553,-2.15637 1.167802,-3.24939 0.372935,-1.0896 0.654968,-2.20642 0.830469,-3.34415 0.183851,-1.07418 0.01587,-2.13873 -0.25381,-3.18069 -0.294396,-1.02681 -0.799756,-1.97275 -1.338752,-2.88886 -0.337621,-0.56987 -0.765773,-1.07389 -1.217178,-1.55519 -0.486775,-0.54971 -1.035677,-1.02917 -1.613189,-1.47995 -0.781955,-0.55429 -1.57005,-1.10292 -2.387848,-1.60335 -0.603885,-0.39897 -1.228707,-0.75307 -1.880725,-1.06615 -1.034486,-0.45478 -2.119789,-0.77755 -3.198947,-1.10633 -1.366515,-0.47855 -2.740705,-0.92206 -4.160991,-1.20815 -1.303023,-0.24841 -2.622722,-0.29208 -3.941429,-0.18625 -0.810416,0.0901 -1.601804,0.29325 -2.394374,0.47723 0,0 2.139501,-1.63069 2.139501,-1.63069 v 0 c 0.802462,-0.18836 1.606486,-0.38626 2.430999,-0.45031 1.327314,-0.0744 2.652326,-0.005 3.957651,0.26477 1.426601,0.30504 2.81024,0.75493 4.193617,1.21493 1.100195,0.33241 2.208156,0.65383 3.264296,1.11214 0.662226,0.31573 1.298821,0.67102 1.900696,1.09251 0.804439,0.53124 1.598406,1.07896 2.388094,1.63171 0.600385,0.45254 1.167694,0.93902 1.672672,1.49827 0.457748,0.50202 0.884301,1.03204 1.216925,1.62735 0.531328,0.94765 1.036362,1.91981 1.345275,2.966 0.29637,1.06784 0.49782,2.164 0.31971,3.27312 -0.17592,1.15277 -0.45383,2.28587 -0.826547,3.3915 -0.354981,1.09856 -0.735081,2.18777 -1.153361,3.26408 -0.42567,1.06415 -0.900771,2.11285 -1.644634,2.99894 -0.822182,1.02612 -1.696202,2.00409 -2.630845,2.93017 -0.879459,0.91653 -1.744416,1.85272 -2.736792,2.65057 -1.284136,1.06623 -0.471304,0.43172 -3.288323,2.08564 -0.665975,0.391 -1.40929,0.61824 -2.160111,0.77862 -1.118225,0.21508 -2.252086,0.30664 -3.391377,0.2432 -1.253505,-0.0529 -2.508464,-0.14244 -3.738641,-0.40366 -1.051754,-0.23244 -2.109603,-0.47999 -3.076189,-0.9722 -0.936673,-0.46548 -1.830792,-1.01732 -2.563376,-1.77482 -0.967423,-1.03075 -1.862275,-2.13971 -2.595335,-3.35078 -0.728258,-1.27856 -1.285211,-2.63916 -1.586749,-4.08469 -0.343397,-1.93455 -0.522819,-3.89768 -0.242017,-5.85542 0.218017,-1.67546 0.593149,-3.31605 1.100127,-4.92884 0.433912,-1.36621 0.949817,-2.69747 1.782559,-3.87838 0.829313,-1.09329 1.754092,-2.10196 2.886853,-2.89107 1.777264,-1.27694 3.700388,-2.35196 5.675148,-3.29108 1.269058,-0.56547 2.57851,-1.02375 3.881308,-1.50435 0.921173,-0.341864 1.856206,-0.641528 2.783644,-0.965645 0,0 -2.214014,1.720065 -2.214014,1.720065 z"
       inkscape:connector-curvature="0" />
  </g>
</svg>
