<?xml version="1.0" encoding="UTF-8" standalone="no"?>
<svg
   xmlns:dc="http://purl.org/dc/elements/1.1/"
   xmlns:cc="http://creativecommons.org/ns#"
   xmlns:rdf="http://www.w3.org/1999/02/22-rdf-syntax-ns#"
   xmlns:svg="http://www.w3.org/2000/svg"
   xmlns="http://www.w3.org/2000/svg"
   xmlns:xlink="http://www.w3.org/1999/xlink"
   xmlns:sodipodi="http://sodipodi.sourceforge.net/DTD/sodipodi-0.dtd"
   xmlns:inkscape="http://www.inkscape.org/namespaces/inkscape"
   viewBox="0.0011 -3.49551 314.16249 314.99999"
   version="1.0"
   overflow="visible"
   id="svg2"
   inkscape:version="0.91 r13725"
   sodipodi:docname="2-spoke-3.5-inch-alpha.svg"
   width="3.4906945in"
   height="3.5in"
   style="overflow:visible">
  <metadata
     id="metadata18">
    <rdf:RDF>
      <cc:Work
         rdf:about="">
        <dc:format>image/svg+xml</dc:format>
        <dc:type
           rdf:resource="http://purl.org/dc/dcmitype/StillImage" />
        <dc:title></dc:title>
      </cc:Work>
    </rdf:RDF>
  </metadata>
  <sodipodi:namedview
     pagecolor="#ffffff"
     bordercolor="#666666"
     borderopacity="1"
     objecttolerance="10"
     gridtolerance="10"
     guidetolerance="10"
     inkscape:pageopacity="0"
     inkscape:pageshadow="2"
     inkscape:window-width="1680"
     inkscape:window-height="997"
     id="namedview16"
     showgrid="false"
     inkscape:document-units="in"
     units="in"
     fit-margin-top="0"
     fit-margin-left="0"
     fit-margin-right="0"
     fit-margin-bottom="0"
     inkscape:zoom="2.1137074"
     inkscape:cx="123.99244"
     inkscape:cy="144.24202"
     inkscape:window-x="-8"
     inkscape:window-y="-8"
     inkscape:window-maximized="1"
     inkscape:current-layer="svg2" />
  <defs
     id="defs4" />
  <g
     id="draft"
     transform="matrix(89.029288,11.436666,11.436666,-89.029288,-19.180278,290.21811)"
     style="fill:none;fill-opacity:1;stroke:#000000;stroke-width:0.00100555;stroke-miterlimit:4;stroke-dasharray:none;stroke-opacity:1">
    <g
       id="ID_0"
       style="color:#000000;fill:none;fill-opacity:1;stroke:#000000;stroke-width:0.00100555;stroke-miterlimit:4;stroke-dasharray:none;stroke-opacity:1">
      <path
         style="fill:none;fill-opacity:1;stroke:#000000;stroke-width:0.00100555;stroke-miterlimit:4;stroke-dasharray:none;stroke-opacity:1"
         d="m 1.4812622,3.4888426 -0.00652,-0.020516 -0.00588,-0.020472 -0.00519,-0.020403 -0.00453,-0.020319 -0.00379,-0.020243 -0.00302,-0.020124 -0.00219,-0.01998 -0.00127,-0.019842 -2.335e-4,-0.00984 4.76e-5,-0.00979 1.654e-4,-0.00487 2.574e-4,-0.00484 3.707e-4,-0.00483 5.194e-4,-0.00479 -0.1383982,-0.034117 -0.00177,0.00448 -0.00192,0.00446 -0.00205,0.00442 -0.0021,0.00438 -0.00451,0.00869 -0.00477,0.0086 -0.010339,0.016968 -0.011245,0.016698 -0.012014,0.016407 -0.012767,0.016138 -0.013446,0.015897 -0.014088,0.015661 -0.014725,0.015387 -0.015307,0.01514 -0.1161931,-0.04407 -0.00142,-0.021493 -8.014e-4,-0.02126 -1.74e-4,-0.021064 4.678e-4,-0.020828 0.00116,-0.020547 0.00189,-0.020261 0.00266,-0.019932 0.00349,-0.019557 0.00214,-0.00961 0.00241,-0.00948 0.00131,-0.00471 0.0014,-0.00464 0.00151,-0.00459 0.00166,-0.00455 -0.1262077,-0.066245 -0.00281,0.00394 -0.002914,0.00385 -0.003024,0.00382 -0.003112,0.00375 -0.006457,0.00737 -0.006704,0.0072 -0.0140869,0.01401 -0.0149048,0.013502 -0.0156166,0.013065 -0.0162504,0.012619 -0.0168514,0.012215 -0.0174334,0.011814 -0.01798,0.011437 -0.0184841,0.011026 -0.10226674,-0.07058 0.003762,-0.021211 0.004311,-0.020853 0.004879,-0.020492 0.005442,-0.020093 0.00604,-0.019671 0.006674,-0.019224 0.007338,-0.018717 0.008092,-0.018159 0.004359,-0.00883 0.004604,-0.00864 0.002405,-0.00422 0.002494,-0.00417 0.002562,-0.00411 0.002685,-0.00401 -0.10669884,-0.094514 -0.003648,0.00314 -0.003771,0.00305 -0.003836,0.00296 -0.003905,0.0029 -0.008035,0.00561 -0.008238,0.00539 -0.0170383,0.010233 -0.0176996,0.00955 -0.0182739,0.00894 -0.0188127,0.00835 -0.0192833,0.00783 -0.019754,0.00731 -0.0201868,0.0068 -0.0205819,0.00628 -0.082414,-0.093007 0.008731,-0.01969 0.009171,-0.01923 0.009622,-0.018711 0.0101143,-0.018207 0.0105636,-0.017669 0.0110812,-0.017065 0.0116128,-0.016421 0.0122078,-0.015672 0.006344,-0.00754 0.006541,-0.00728 0.003354,-0.00354 0.003401,-0.00346 0.003465,-0.00336 0.003587,-0.00326 -0.0809827,-0.1173015 -0.004292,0.00217 -0.004393,0.00207 -0.004438,0.00196 -0.004503,0.00188 -0.009129,0.00351 -0.009291,0.00328 -0.0189884,0.00584 -0.0194628,0.00504 -0.0198854,0.0043 -0.02028,0.00363 -0.020599,0.00298 -0.0209228,0.00236 -0.0212113,0.00177 -0.0215211,0.00119 -0.0577449,-0.110035 0.0131879,-0.017025 0.013519,-0.016464 0.0138288,-0.015886 0.0141526,-0.015269 0.0144905,-0.014611 0.0148424,-0.013913 0.0152083,-0.013175 0.015614,-0.012297 0.007944,-0.0058 0.008099,-0.00551 0.004102,-0.00264 0.004128,-0.00254 0.004191,-0.00244 0.00425,-0.0023 -0.050554,-0.1332825 -0.00469,0.00109 -0.004751,9.639e-4 -0.004793,8.435e-4 -0.004816,7.252e-4 -0.009702,0.00125 -0.009798,9.492e-4 -0.0198439,0.00114 -0.0201101,2.197e-4 -0.0203341,-5.771e-4 -0.0205441,-0.00133 -0.0207236,-0.00203 -0.0208842,-0.00272 -0.02103323,-0.00335 -0.02116092,-0.004 -0.02973429,-0.1206439 0.01688602,-0.013382 0.0170539,-0.012746 0.01722179,-0.01211 0.01740373,-0.011434 0.0175808,-0.01072 0.0177341,-0.00997 0.0179156,-0.00914 0.0180848,-0.00822 0.009115,-0.00371 0.009173,-0.00341 0.004618,-0.00158 0.004625,-0.00148 0.004648,-0.00136 0.004669,-0.00122 -0.0171852,-0.1415134 -0.004811,-6.13e-5 -0.004848,-2.197e-4 -0.004855,-3.165e-4 -0.00484,-4.298e-4 -0.009722,-0.00113 -0.009745,-0.00141 -0.0195347,-0.00366 -0.0195882,-0.00459 -0.01959483,-0.00544 -0.01963241,-0.00619 -0.01963222,-0.00694 -0.01963931,-0.00763 -0.01961106,-0.0083 -0.0195852227,-0.00895 9.82242e-6,-0.124272 0.0195800303,-0.00895 0.01961085,-0.00829 0.01964169,-0.00763 0.019611,-0.00695 0.01964858,-0.00619 0.01959175,-0.00545 0.0195935,-0.00457 0.0195336,-0.00365 0.009745,-0.00144 0.009723,-0.00111 0.004836,-4.347e-4 0.00486,-3.164e-4 0.004847,-2.221e-4 0.004809,-7.34e-5 0.0171782,-0.1414957 -0.004663,-0.00121 -0.004644,-0.00136 -0.004629,-0.00148 -0.004617,-0.00157 -0.00916,-0.00342 -0.009123,-0.00371 -0.0180855,-0.00822 -0.0179289,-0.00914 -0.0177253,-0.00998 L 0.10521761,1.4456341 0.0878327,1.4342046 0.07059178,1.4221025 0.05353023,1.4093514 0.03666447,1.3959728 0.06638901,1.2753259 l 0.02117164,-0.004 0.02103249,-0.00337 0.020872,-0.00271 0.020728,-0.00204 0.020539,-0.00132 0.0203499,-5.92e-4 0.0200896,2.385e-4 0.0198598,0.00113 0.009803,9.521e-4 0.009689,0.00124 0.004821,7.344e-4 0.004787,8.453e-4 0.004754,9.563e-4 0.004699,0.00108 0.0505453,-0.1332737 -0.004234,-0.00231 -0.004198,-0.00244 -0.004146,-0.00255 -0.00408,-0.00262 -0.008104,-0.00551 -0.007954,-0.00578 -0.0155986,-0.012333 -0.0152061,-0.013146 -0.0148562,-0.013927 -0.0144807,-0.014608 -0.0141668,-0.015259 -0.0138363,-0.015888 -0.0135131,-0.016461 -0.0131711,-0.0170317 0.0577337,-0.11002215 0.0215224,0.00119 0.0212017,0.001744 0.0209279,0.002381 0.0206212,0.002975 0.0202505,0.003619 0.0198915,0.004322 0.0194734,0.005036 0.0189864,0.005837 0.009295,0.003267 0.009126,0.003534 0.004503,0.001865 0.004431,0.001971 0.004381,0.00206 0.004308,0.002185 0.0809785,-0.11730734 -0.003574,-0.003262 -0.003484,-0.003366 -0.003396,-0.003451 -0.003347,-0.00354 -0.006532,-0.00729 -0.006368,-0.007518 -0.0121907,-0.0156963 -0.0116191,-0.01641 -0.0110736,-0.0170695 -0.0105756,-0.0176582 -0.0101013,-0.0182117 -0.009632,-0.0187274 -0.009165,-0.0192241 -0.008741,-0.019688 0.0824074,-0.0930102 0.0205981,0.006294 0.0201689,0.006795 0.0197585,0.007299 0.019308,0.007818 0.0187935,0.008385 0.0182815,0.008934 0.0177031,0.009551 0.0170419,0.0102143 0.008234,0.005397 0.008014,0.005618 0.003909,0.002902 0.003863,0.002954 0.003754,0.003055 0.003664,0.003159 L 0.772611,0.53972531 0.76992,0.53571231 0.767338,0.53159831 0.76486,0.52742131 0.762446,0.52319431 0.757856,0.51454131 0.753498,0.50572631 0.745404,0.48758051 0.738056,0.46885861 0.731388,0.44962881 0.725333,0.42995941 0.719891,0.40985041 0.715034,0.38937501 0.710726,0.36850931 0.706941,0.34730771 0.8092184,0.27672061 0.82771,0.28775471 l 0.0179612,0.0114267 0.0174308,0.0118193 0.0168602,0.012226 0.0162519,0.0126277 0.0156221,0.0130461 0.0148907,0.0135089 0.0140978,0.0140022 0.006714,0.007217 0.006447,0.007356 0.003107,0.003759 0.003024,0.003806 0.002923,0.00385 0.002797,0.00393 0.1262147,-0.0662258 -0.00166,-0.004552 -0.0015,-0.00459 -0.00142,-0.004655 -0.00132,-0.004681 -0.00239,-0.009484 -0.00212,-0.009623 -0.00352,-0.0195545 -0.00266,-0.0199436 -0.00187,-0.0202645 -0.00116,-0.0205385 -4.748e-4,-0.0208148 1.71e-4,-0.0210582 7.952e-4,-0.0212852 0.00144,-0.0214909 0.1161861,-0.04405322 0.015296,0.01513523 0.014726,0.0153884 0.014097,0.0156531 0.013451,0.0158966 0.012765,0.0161541 0.012023,0.0164043 0.011238,0.0166874 0.010339,0.016956 0.00477,0.008618 0.00451,0.008681 0.00212,0.0044 0.00203,0.004407 0.00192,0.004452 0.00177,0.004489 0.1383897,-0.0341166 -5.175e-4,-0.004789 -3.591e-4,-0.004827 -2.599e-4,-0.004852 -1.604e-4,-0.004878 -6.83e-5,-0.009781 2.485e-4,-0.009855 0.00126,-0.019824 0.0022,-0.0199908 0.00303,-0.0201156 0.00379,-0.0202287 0.00451,-0.02032777 0.00521,-0.02041043 0.00587,-0.02046022 0.00652,-0.02053111 0.123376,-0.01498429 0.011232,0.01837608 0.010606,0.01846855 0.00994,0.01855595 0.00924,0.01865748 0.00854,0.01874023 0.00776,0.01881307 0.00692,0.0188787 0.00596,0.0189463 0.0026,0.009511 0.00227,0.009507 0.00102,0.004777 9.048e-4,0.004762 8.058e-4,0.004788 6.544e-4,0.004769 0.1425297,1.294e-5 6.541e-4,-0.004793 7.862e-4,-0.004775 9.209e-4,-0.004777 9.964e-4,-0.004768 0.00228,-0.009499 0.0026,-0.009514 0.00597,-0.0189506 0.00692,-0.0188859 0.00775,-0.01879804 0.00853,-0.01875522 0.00925,-0.01864419 0.00993,-0.01855682 0.010609,-0.01846949 0.011251,-0.0183869 0.1233448,0.01500008 0.00652,0.0205165 0.00589,0.02047426 0.00519,0.02040333 0.00451,0.02031609 0.00381,0.0202451 0.00302,0.0201055 0.00219,0.0199987 0.00126,0.0198207 2.499e-4,0.009862 -6.64e-5,0.009783 -1.629e-4,0.004856 -2.41e-4,0.004865 -3.896e-4,0.004826 -5.006e-4,0.004793 0.1383983,0.0341167 0.00177,-0.004496 0.00192,-0.004458 0.00202,-0.004405 0.00212,-0.004393 0.00449,-0.008677 0.00479,-0.008619 0.010339,-0.0169682 0.011224,-0.0166818 0.012033,-0.016405 0.012769,-0.0161569 0.013444,-0.0158783 0.014088,-0.0156611 0.014725,-0.0153873 0.015307,-0.01513977 0.1161955,0.04405092 0.00141,0.0214911 8.18e-4,0.0212813 1.739e-4,0.0210641 -4.653e-4,0.0208093 -0.00118,0.0205446 -0.00187,0.0202636 -0.00266,0.0199514 -0.00351,0.0195542 -0.00212,0.009615 -0.00241,0.009482 -0.00131,0.004689 -0.00142,0.004655 -0.00151,0.004586 -0.00164,0.004551 0.1262077,0.0662445 0.00281,-0.00394 0.00292,-0.003868 0.00302,-0.003797 0.00311,-0.003747 0.00644,-0.007371 0.00673,-0.007219 0.014084,-0.0139912 0.014907,-0.0135209 0.015595,-0.0130484 0.016269,-0.0126162 0.016851,-0.0122151 0.017436,-0.0118329 0.017978,-0.0114178 0.018487,-0.0110451 0.1022643,0.0705986 -0.00376,0.0211925 -0.00431,0.0208717 -0.00488,0.0204729 -0.00544,0.0201121 -0.00604,0.0196707 -0.00667,0.0192245 -0.00734,0.0187168 -0.00809,0.0181403 -0.00438,0.008826 -0.0046,0.008643 -0.00241,0.004241 -0.00248,0.004175 -0.00256,0.004106 -0.00269,0.004013 0.10668,0.0945116 0.00367,-0.003138 0.00375,-0.003051 0.00386,-0.002979 0.0039,-0.002897 0.00802,-0.005613 0.00824,-0.005393 0.017036,-0.010214 0.017718,-0.00955 0.018274,-0.008941 0.018796,-0.008375 0.019302,-0.00783 0.019752,-0.007292 0.020187,-0.006795 0.020582,-0.006283 0.082414,0.0930069 -0.00873,0.0196899 -0.00919,0.0192089 -0.00962,0.0187303 -0.010096,0.018209 -0.010564,0.017669 -0.0111,0.0170625 -0.011594,0.0164231 -0.012208,0.0156722 -0.00634,0.007537 -0.00654,0.007281 -0.00334,0.003546 -0.00342,0.003458 -0.00348,0.003354 -0.00357,0.003247 0.080961,0.11731793 0.00431,-0.002191 0.00439,-0.002047 0.00444,-0.001964 0.0045,-0.001879 0.00913,-0.003512 0.00929,-0.00328 0.018988,-0.005835 0.019463,-0.005045 0.019888,-0.004318 0.020259,-0.003618 0.020599,-0.002979 0.020942,-0.002359 0.021211,-0.001768 0.021502,-0.001193 0.057745,0.11003504 -0.013188,0.0170247 -0.0135,0.016466 -0.013829,0.015886 -0.014169,0.015248 -0.014493,0.01463 -0.014842,0.013913 -0.015206,0.013156 -0.015598,0.012319 -0.00796,0.00579 -0.00808,0.00551 -0.0041,0.00264 -0.00415,0.00254 -0.00417,0.00244 -0.00425,0.0023 0.050554,0.1332826 0.00469,-0.00109 0.00475,-9.64e-4 0.00479,-8.434e-4 0.0048,-7.277e-4 0.00972,-0.00125 0.0098,-9.492e-4 0.019844,-0.00114 0.020112,-2.385e-4 0.020332,5.96e-4 0.020546,0.00131 0.020721,0.00205 0.020887,0.0027 0.021012,0.00337 0.021163,0.00399 0.029751,0.1206652 -0.016886,0.013382 -0.017054,0.012746 -0.017241,0.012107 -0.017385,0.011436 -0.017581,0.01072 -0.017732,0.00995 -0.017916,0.00914 -0.018106,0.00823 -0.00912,0.00371 -0.00917,0.00341 -0.0046,0.00158 -0.00462,0.00148 -0.00465,0.00136 -0.00467,0.00122 0.017169,0.1414922 0.00483,8.26e-5 0.00485,2.007e-4 0.00483,3.33e-4 0.00486,4.323e-4 0.00972,0.00111 0.00974,0.00142 0.019535,0.00366 0.019572,0.00457 0.019614,0.00544 0.01963,0.00621 0.019632,0.00694 0.01962,0.00763 0.019611,0.0083 0.019604,0.00895 -7.5e-6,0.1242531 -0.019601,0.00896 -0.019611,0.00829 -0.019623,0.00764 -0.019628,0.00692 -0.019632,0.00621 -0.019608,0.00543 -0.019577,0.00459 -0.019534,0.00365 -0.00974,0.00142 -0.00973,0.00113 -0.00486,4.322e-4 -0.00484,3.189e-4 -0.00485,2.221e-4 -0.00483,5.2e-5 -0.017181,0.1415146 0.00468,0.00122 0.00464,0.00136 0.00463,0.00148 0.0046,0.00157 0.00918,0.00343 0.00912,0.00371 0.018104,0.00822 0.01791,0.00914 0.017725,0.00998 0.017571,0.010724 0.017404,0.011432 0.017241,0.012102 0.017062,0.012751 0.016868,0.01336 -0.029746,0.1206633 -0.021153,0.004 -0.021033,0.00337 -0.020891,0.00271 -0.020709,0.00204 -0.020539,0.00132 -0.020348,5.732e-4 -0.020111,-2.22e-4 -0.019841,-0.00113 -0.0098,-9.522e-4 -0.00971,-0.00125 -0.0048,-7.319e-4 -0.00479,-8.453e-4 -0.00475,-9.563e-4 -0.0047,-0.00108 -0.050545,0.1332736 0.00425,0.00231 0.00418,0.00244 0.00413,0.00255 0.0041,0.00262 0.00808,0.00551 0.00797,0.00579 0.015601,0.012314 0.015204,0.013165 0.01484,0.013906 0.014497,0.014629 0.014167,0.015259 0.013836,0.015888 0.013494,0.016459 0.013192,0.017015 -0.057755,0.1100386 -0.021485,-0.00119 -0.021237,-0.00177 -0.02093,-0.00236 -0.020602,-0.00297 -0.020248,-0.00364 -0.019894,-0.0043 -0.019473,-0.00504 -0.018986,-0.00584 -0.00929,-0.00327 -0.00913,-0.00353 -0.0045,-0.00186 -0.00445,-0.00197 -0.00438,-0.00206 -0.00431,-0.00219 -0.08096,0.1173098 0.00356,0.00326 0.00349,0.00335 0.00341,0.00347 0.00335,0.00354 0.00653,0.00729 0.00635,0.00752 0.01221,0.015699 0.0116,0.016408 0.011092,0.017072 0.010576,0.017658 0.010082,0.018209 0.00963,0.018727 0.00918,0.019226 0.00874,0.019688 -0.082407,0.09301 -0.020598,-0.00629 -0.020188,-0.0068 -0.019758,-0.0073 -0.019287,-0.00783 -0.018796,-0.00837 -0.018282,-0.00893 -0.017701,-0.00957 -0.017042,-0.010214 -0.00823,-0.0054 -0.00802,-0.0056 -0.00393,-0.0029 -0.00384,-0.00297 -0.00376,-0.00304 -0.00366,-0.00316 -0.1066953,0.094517 0.00269,0.00401 0.00258,0.00409 0.00248,0.0042 0.00239,0.00422 0.00461,0.00864 0.00436,0.00883 0.00809,0.018146 0.00735,0.018722 0.00667,0.01923 0.00606,0.019669 0.00544,0.02009 0.00485,0.020494 0.00431,0.020847 0.00378,0.021221 L 2.6994651,3.233981 2.6809759,3.222928 2.6630122,3.2115202 2.6455838,3.199682 2.6287023,3.1874725 2.6124505,3.1748447 2.5968496,3.1617821 2.5819589,3.1482732 2.567861,3.134271 l -0.00672,-0.0072 -0.00644,-0.00737 -0.00311,-0.00374 -0.00302,-0.00381 -0.00292,-0.00387 -0.0028,-0.00391 -0.1262147,0.066226 0.00164,0.00455 0.00152,0.00459 0.0014,0.00463 0.00134,0.0047 0.00239,0.00948 0.00212,0.00962 0.00352,0.019554 0.00266,0.019944 0.00187,0.020246 0.00116,0.020557 4.748e-4,0.020815 -1.71e-4,0.021058 L 2.435746,3.351624 2.434336,3.373098 2.3181475,3.41717 2.3028325,3.402032 2.2881255,3.386646 2.2740285,3.370993 2.2605775,3.355096 2.2478125,3.338942 2.2357895,3.322538 2.2245515,3.305851 2.2142145,3.288876 l -0.00479,-0.0086 -0.00449,-0.0087 -0.00213,-0.00438 -0.00203,-0.00441 -0.00192,-0.00445 -0.00177,-0.00449 -0.1383897,0.034117 4.986e-4,0.00479 3.78e-4,0.00483 2.598e-4,0.00485 1.605e-4,0.00488 4.94e-5,0.00978 -2.272e-4,0.00984 -0.00126,0.019843 -0.0022,0.019991 -0.00303,0.020116 -0.00379,0.020229 -0.00453,0.020325 -0.00519,0.020413 -0.00589,0.020458 -0.00652,0.020531 -0.1233547,0.014968 -0.011235,-0.018357 -0.010606,-0.018468 -0.00994,-0.018575 -0.00926,-0.018641 -0.00854,-0.01874 -0.00774,-0.018811 -0.00691,-0.018876 -0.00597,-0.018949 -0.0026,-0.00951 -0.00229,-0.00953 -10e-4,-0.00476 -9.049e-4,-0.00476 -8.057e-4,-0.00479 -6.52e-4,-0.00479 -0.1425321,5.9e-6 -6.541e-4,0.00479 -7.862e-4,0.00478 -9.185e-4,0.00476 -0.00102,0.00477 -0.00228,0.00952 -0.00259,0.00952 -0.00597,0.018951 -0.00692,0.018886 -0.00775,0.018798 -0.00853,0.018736 -0.00925,0.018644 -0.00995,0.018573 -0.010609,0.01847 -0.01123,0.01837 -0.123366,-0.014984 z m 0.092671,-0.3631617 0.090015,0.00888 0.090392,0.00295 0.0904,-0.00294 0.090012,-0.00888 0.089246,-0.014723 0.088072,-0.020537 0.086561,-0.02626 0.084651,-0.031862 0.082376,-0.037319 0.079777,-0.042644 0.076807,-0.047768 0.073522,-0.052682 0.069921,-0.057388 0.065999,-0.061827 0.061833,-0.06601 0.057382,-0.069923 0.05268,-0.073522 0.047764,-0.076803 0.042635,-0.079766 0.037327,-0.082386 0.03186,-0.084663 0.026247,-0.086555 0.020549,-0.088074 0.014728,-0.089244 -0.053559,-0.060118 -0.9445765,-4.3e-6 -0.090546,0.060114 -0.026517,0.035894 -0.03105,0.032028 -0.035053,0.027617 -0.038397,0.022714 -0.041093,0.017395 -0.043039,0.011769 -0.044209,0.00594 -0.044617,-1.02e-5 -0.044221,-0.00593 -0.043029,-0.011767 -0.041097,-0.017394 -0.038398,-0.022711 -0.035042,-0.027617 -0.031059,-0.03202 -0.026511,-0.03589 -0.090573,-0.060131 -0.9445765,-4.3e-6 -0.053532,0.060127 0.0147415,0.089248 0.0205369,0.088072 0.0262413,0.086559 0.0318597,0.08467 0.0373188,0.082376 0.0426443,0.079777 0.0477704,0.076788 0.0526612,0.073538 0.0573903,0.069903 0.061825,0.066018 0.0660105,0.061833 0.0699227,0.057382 0.0735218,0.05268 0.0768027,0.047764 0.079765,0.042635 0.082386,0.037327 0.084644,0.031858 0.086553,0.026266 0.088096,0.020532 0.089244,0.014728 z M 1.7449637,1.8488387 a 0.09396015,0.09396015 0 0 0 0.00938,4.76e-4 0.09396015,0.09396015 0 0 0 0.093953,-0.093965 0.09396015,0.09396015 0 0 0 -0.093965,-0.093953 0.09396015,0.09396015 0 0 0 -0.093953,0.093965 0.09396015,0.09396015 0 0 0 0.084581,0.093477 z m -1.3074299,-0.2137411 0.9445766,4.2e-6 0.090567,-0.060131 0.026514,-0.035875 0.031053,-0.032047 0.035053,-0.027617 0.038397,-0.022714 0.04109,-0.017376 0.043039,-0.011769 0.044212,-0.00595 0.044616,1.02e-5 0.044219,0.00595 0.043029,0.011767 0.0411,0.017375 0.038398,0.022711 0.035039,0.027636 0.03104,0.032017 0.02653,0.035892 0.090557,0.06011 0.9445765,4.2e-6 0.053551,-0.060124 L 3.1099469,1.4857422 3.0894129,1.3976512 3.0631719,1.3110922 3.0313099,1.2264412 2.9939719,1.1440622 2.9513469,1.0642872 2.9035789,0.9874805 2.8508959,0.913959 2.7935269,0.8440399 2.7316999,0.7780406 2.6656919,0.7161888 2.5957669,0.6588254 2.5222449,0.6061453 2.4454229,0.5583786 2.3656759,0.5157461 2.2832729,0.4783977 2.1986289,0.4465401 2.1120739,0.4202927 2.0239999,0.3997441 1.9347549,0.385016 1.8447369,0.376159 1.7543469,0.373187 1.6639439,0.376146 1.5739339,0.385011 1.4846859,0.3997524 1.3965949,0.4202869 1.3100529,0.4465495 1.2254019,0.4784116 1.1430259,0.5157304 1.0632489,0.5583747 0.9864422,0.6061427 0.9129207,0.6588252 0.8430017,0.7161942 0.7769811,0.7780381 0.7151671,0.8440509 0.6577873,0.9139548 0.6051072,0.9874766 0.5573404,1.0642982 l -0.0426349,0.079765 -0.0373272,0.082386 -0.0318576,0.084644 -0.0262475,0.086555 -0.020551,0.088093 -0.0147257,0.089225 0.0535382,0.060135 z"
         id="path8"
         inkscape:connector-curvature="0" />
    </g>
  </g>
  <circle
     style="fill:none;fill-opacity:1;stroke:#000000;stroke-width:0.81660044;stroke-linecap:round;stroke-linejoin:miter;stroke-miterlimit:4;stroke-dasharray:none;stroke-opacity:1"
     id="path4158"
     cx="-204.9494"
     cy="79.924889"
     r="150.61935"
     transform="matrix(-0.91962511,-0.39279722,-0.39279722,0.91962511,0,0)" />
  <text
     xml:space="preserve"
     style="font-style:normal;font-weight:normal;font-size:22.5px;line-height:125%;font-family:sans-serif;letter-spacing:23.13999939px;word-spacing:0px;fill:#000000;fill-opacity:1;stroke:none;stroke-width:1px;stroke-linecap:butt;stroke-linejoin:miter;stroke-opacity:1"
     id="text4160"
     sodipodi:linespacing="125%"
     x="-402.25607"
     transform="matrix(-0.35337048,-0.93548346,0.93548346,-0.35337048,68.488159,355.37822)"
     y="-89.308548"><textPath
       xlink:href="#path4158"
       id="textPath4164"
       style="font-style:normal;font-variant:normal;font-weight:normal;font-stretch:normal;font-size:22.5px;font-family:Instruction;-inkscape-font-specification:Instruction;letter-spacing:23.13999939px">OJKWTVCZS<tspan
   style="letter-spacing:23.27000046px"
   id="tspan4695">B</tspan><tspan
   style="letter-spacing:23.83px"
   id="tspan4144">E</tspan>AFX<tspan
   style="letter-spacing:22.89999886px"
   id="tspan4745">R</tspan><tspan
   style="letter-spacing:23.79000092px"
   id="tspan4883">Y</tspan><tspan
   style="letter-spacing:23.36000061px"
   id="tspan5095">N</tspan>UHDMGQLPI</textPath></text>
</svg>
