<?xml version="1.0" encoding="UTF-8" standalone="no"?>
<svg
   xmlns:dc="http://purl.org/dc/elements/1.1/"
   xmlns:cc="http://creativecommons.org/ns#"
   xmlns:rdf="http://www.w3.org/1999/02/22-rdf-syntax-ns#"
   xmlns:svg="http://www.w3.org/2000/svg"
   xmlns="http://www.w3.org/2000/svg"
   xmlns:xlink="http://www.w3.org/1999/xlink"
   xmlns:sodipodi="http://sodipodi.sourceforge.net/DTD/sodipodi-0.dtd"
   xmlns:inkscape="http://www.inkscape.org/namespaces/inkscape"
   viewBox="0.0011 -3.49551 313.41379 315.00001"
   version="1.0"
   overflow="visible"
   id="svg2"
   inkscape:version="0.91 r13725"
   sodipodi:docname="3-spoke-3.5-inch-symbol.svg"
   width="3.4823756in"
   height="3.5in"
   style="overflow:visible">
  <metadata
     id="metadata20">
    <rdf:RDF>
      <cc:Work
         rdf:about="">
        <dc:format>image/svg+xml</dc:format>
        <dc:type
           rdf:resource="http://purl.org/dc/dcmitype/StillImage" />
        <dc:title></dc:title>
      </cc:Work>
    </rdf:RDF>
  </metadata>
  <sodipodi:namedview
     pagecolor="#ffffff"
     bordercolor="#666666"
     borderopacity="1"
     objecttolerance="10"
     gridtolerance="10"
     guidetolerance="10"
     inkscape:pageopacity="0"
     inkscape:pageshadow="2"
     inkscape:window-width="1680"
     inkscape:window-height="997"
     id="namedview18"
     showgrid="false"
     inkscape:document-units="in"
     units="in"
     fit-margin-top="0"
     fit-margin-left="0"
     fit-margin-right="0"
     fit-margin-bottom="0"
     inkscape:zoom="2.1137074"
     inkscape:cx="131.68749"
     inkscape:cy="168.37988"
     inkscape:window-x="-8"
     inkscape:window-y="-8"
     inkscape:window-maximized="1"
     inkscape:current-layer="svg2" />
  <defs
     id="defs4" />
  <g
     id="draft"
     transform="matrix(88.934438,10.761193,10.761193,-88.934438,-17.854033,291.23122)"
     style="fill:none;stroke:#000000;stroke-width:0.00872961;stroke-miterlimit:4;stroke-dasharray:none;stroke-opacity:1">
    <g
       id="ID_0"
       style="color:#000000;fill:none;stroke:#000000;stroke-width:0.00872961;stroke-miterlimit:4;stroke-dasharray:none;stroke-opacity:1">
      <path
         style="fill:none;fill-opacity:1;stroke:#000000;stroke-width:0.90000004;stroke-miterlimit:4;stroke-dasharray:none;stroke-opacity:1"
         d="m 186.87109,-0.51953125 -12.78906,0.003906 -0.91992,2.01757815 -0.85352,2.0195313 -0.78515,2.0195312 -0.71289,2.0214844 -0.63672,2.0195312 -0.5586,2.019531 -0.4707,2.015626 -0.375,2.009765 -0.14648,1.001953 -0.11524,1.001953 -0.0449,0.5 -0.0332,0.498047 -0.0215,0.498047 -0.006,0.496094 -14.5625,1.775391 -0.12695,-0.480469 -0.14062,-0.478516 -0.15235,-0.476562 -0.16211,-0.47461 -0.35351,-0.943359 -0.38086,-0.9375 -0.84766,-1.861328 -0.9414,-1.845703 -1.0254,-1.824219 -1.10546,-1.808594 -1.17774,-1.7910158 -1.24609,-1.7714844 -1.31446,-1.7558593 -1.375,-1.7363282 -12.41796,3.0664063 -0.41016,2.1777343 -0.3457,2.1640631 -0.2793,2.148437 -0.20703,2.134766 -0.13672,2.113281 -0.0586,2.09375 0.0254,2.070313 0.11718,2.041015 0.0977,1.009766 0.12891,0.998047 0.0762,0.496093 0.0859,0.492188 0.0976,0.488281 0.11328,0.484375 -13.71484,5.207032 -0.23828,-0.435547 -0.25,-0.429688 -0.26367,-0.427734 -0.26954,-0.419922 -0.56835,-0.833985 -0.59571,-0.818359 -1.26758,-1.605469 -1.35546,-1.564453 -1.4336,-1.527343 -1.50586,-1.490235 -1.57031,-1.457031 -1.63477,-1.423828 -1.69531,-1.388672 -1.7539,-1.357422 -11.32227,5.949219 0.123047,2.21289 0.183594,2.183594 0.24414,2.154297 0.306641,2.121094 0.375,2.083984 0.443359,2.046875 0.519531,2.003906 0.603516,1.955079 0.335938,0.955078 0.363281,0.941406 0.193359,0.460937 0.201172,0.457032 0.212891,0.451171 0.224609,0.44336 -12.070312,8.339844 -0.335938,-0.367188 -0.345703,-0.357422 -0.355469,-0.351562 -0.365234,-0.34375 -0.75,-0.673828 -0.775391,-0.652344 -1.615234,-1.25586 -1.689453,-1.193359 -1.75586,-1.140625 -1.820312,-1.08789 -1.873047,-1.03711 -1.929687,-0.992187 -1.978516,-0.94336 -2.025391,-0.896484 -9.570312,8.484375 0.648437,2.11914 0.701172,2.078126 0.751953,2.03125 0.806641,1.986328 0.863281,1.935546 0.919922,1.88086 0.984375,1.820312 1.052734,1.753907 0.554688,0.847656 0.578125,0.826172 0.298828,0.402343 0.304687,0.396485 0.314454,0.386719 0.324218,0.376953 -9.724609,10.984375 -0.412109,-0.275391 -0.423828,-0.265625 -0.427735,-0.255859 -0.4375,-0.246094 -0.888672,-0.474609 -0.908203,-0.447266 -1.86914,-0.832031 -1.927735,-0.75586 -1.978515,-0.685547 -2.025391,-0.621093 -2.068359,-0.560547 -2.109376,-0.5 -2.146484,-0.44336 -2.183594,-0.386718 -7.259765,10.529297 1.136719,1.902343 1.177734,1.84961 1.216797,1.792968 1.257812,1.736329 1.300781,1.671875 1.34375,1.605468 1.390626,1.533204 1.443359,1.451171 0.740234,0.689453 0.759766,0.664063 0.384765,0.318359 0.392579,0.310547 0.396484,0.300781 0.40625,0.289063 -6.8125,12.992185 -0.466797,-0.16797 -0.474609,-0.15625 -0.478516,-0.14648 -0.482422,-0.13477 -0.976562,-0.24609 -0.990235,-0.21875 -2.013672,-0.36133 -2.050781,-0.27148 -2.085937,-0.19336 -2.115235,-0.11719 -2.142578,-0.0488 -2.166015,0.0195 -2.191407,0.084 -2.210937,0.14648 -4.5312501,11.96094 1.5585941,1.57422 1.585937,1.51367 1.611328,1.45117 1.636719,1.38281 1.664062,1.3125 1.689454,1.23829 1.716796,1.15625 1.746094,1.0625 0.886719,0.49218 0.894531,0.46289 0.451172,0.21875 0.455078,0.20704 0.457032,0.19726 0.46289,0.18164 -3.505859,14.24805 -0.492188,-0.0547 -0.498047,-0.0371 -0.5,-0.0273 -0.5,-0.0156 -1.007812,-0.006 -1.013672,0.0254 -2.041016,0.13086 -2.05664,0.22657 -2.070313,0.3125 -2.083984,0.39257 -2.0898439,0.46485 -2.1015625,0.53711 -2.1054687,0.60547 -2.1132813,0.67187 -1.53515622,12.69727 1.89062502,1.15625 1.9003906,1.08984 1.9121094,1.02344 1.9199218,0.95117 1.9296878,0.87695 1.935547,0.79688 1.943359,0.71094 1.951172,0.61523 0.978515,0.26562 0.978516,0.23438 0.492188,0.10352 0.490234,0.0937 0.492188,0.082 0.492187,0.0664 0.0059,14.66992 -0.492187,0.0684 -0.492188,0.082 -0.490234,0.0937 -0.490234,0.10351 -0.980469,0.23633 -0.976563,0.26562 -1.951171,0.61719 -1.94336,0.71094 -1.935547,0.79883 -1.9277341,0.8789 -1.9199219,0.95313 -1.9101562,1.02344 -1.9003907,1.09179 -1.89062498,1.16016 1.54687498,12.69531 2.1132813,0.66992 2.1074218,0.60352 2.0996094,0.53516 2.0917974,0.46484 2.082031,0.38867 2.072265,0.3125 2.056641,0.22461 2.042969,0.12891 1.013672,0.0234 1.005859,-0.006 0.501953,-0.0176 0.498047,-0.0254 0.498047,-0.0391 0.49414,-0.0527 3.515626,14.24219 -0.460938,0.18359 -0.458984,0.19727 -0.453125,0.20898 -0.451172,0.21875 -0.896485,0.46289 -0.884765,0.49219 -1.746094,1.0664 -1.716797,1.15626 -1.6875,1.23828 -1.662109,1.31445 -1.634766,1.38477 -1.611328,1.45117 -1.583984,1.51562 -1.556641,1.57617 4.539062,11.95704 2.212891,0.14453 2.189453,0.082 2.167969,0.0176 2.142578,-0.0508 2.115235,-0.11914 2.085937,-0.19531 2.050781,-0.27344 2.013672,-0.36132 0.990234,-0.22071 0.97461,-0.24609 0.482422,-0.13672 0.478515,-0.14648 0.47461,-0.1543 0.466797,-0.16992 6.822265,12.98632 -0.404297,0.28907 -0.398437,0.30078 -0.390625,0.31055 -0.384766,0.32031 -0.757812,0.66406 -0.742188,0.69141 -1.441406,1.45117 -1.388672,1.5332 -1.34375,1.60742 -1.298828,1.67383 -1.255859,1.73633 -1.216797,1.79492 -1.173828,1.84961 -1.136719,1.90234 7.271484,10.52344 2.179688,-0.38867 2.146484,-0.44336 2.109375,-0.50195 2.06836,-0.56055 2.02539,-0.625 1.978516,-0.6875 1.925781,-0.75586 1.867187,-0.83398 0.908204,-0.44922 0.890625,-0.47266 0.435547,-0.24804 0.429687,-0.25586 0.421875,-0.26563 0.412109,-0.27734 9.734375,10.97851 -0.324218,0.375 -0.314454,0.38867 -0.304687,0.39649 -0.298828,0.40234 -0.576172,0.82617 -0.554687,0.84766 -1.050782,1.75391 -0.984375,1.82226 -0.917969,1.88086 -0.861328,1.93555 -0.804687,1.98828 -0.75,2.0332 -0.699219,2.07813 -0.646484,2.11914 9.576172,8.47851 2.027343,-0.90039 1.976563,-0.94531 1.927734,-0.99219 1.873047,-1.04101 1.816406,-1.08789 1.757813,-1.14063 1.6875,-1.19726 1.615234,-1.25586 0.773438,-0.6543 0.75,-0.67383 0.363281,-0.34375 0.357422,-0.35156 0.345703,-0.35742 0.333984,-0.36719 12.078125,8.32813 -0.224609,0.44336 -0.210938,0.45117 -0.203124,0.45898 -0.191407,0.46289 -0.363281,0.9375 -0.335938,0.95703 -0.599609,1.95508 -0.519531,2.00391 -0.441406,2.04687 -0.373047,2.08594 -0.306641,2.12109 -0.242187,2.1543 -0.179688,2.18555 -0.121094,2.21289 11.32812,5.9375 1.75,-1.35742 1.69532,-1.39063 1.63281,-1.42578 1.57031,-1.45703 1.50391,-1.49219 1.43164,-1.52929 1.35547,-1.56446 1.26562,-1.60547 0.59571,-0.82031 0.5664,-0.83398 0.27149,-0.42188 0.26172,-0.42578 0.25,-0.42969 0.23828,-0.4375 13.71875,5.19531 -0.11329,0.48438 -0.0977,0.49023 -0.0859,0.49219 -0.0762,0.4961 -0.12695,0.99804 -0.0977,1.00977 -0.11523,2.04101 -0.0234,2.07032 0.0605,2.09179 0.13868,2.11524 0.20898,2.13281 0.28125,2.15039 0.34766,2.16211 0.41015,2.17969 12.42188,3.05469 1.375,-1.73829 1.31055,-1.75586 1.24609,-1.77343 1.17578,-1.79102 1.10352,-1.81055 1.02539,-1.82617 0.93945,-1.84375 0.8457,-1.86328 0.38086,-0.9375 0.35156,-0.94336 0.16211,-0.47656 0.15235,-0.47461 0.13867,-0.47852 0.12695,-0.48046 14.56446,1.76171 0.008,0.4961 0.0215,0.49805 0.0332,0.5 0.0449,0.5 0.11523,1 0.14844,1.00195 0.375,2.00976 0.47266,2.01563 0.56054,2.01758 0.63867,2.02148 0.71485,2.01953 0.78711,2.01953 0.85547,2.01954 0.92187,2.01562 12.78906,-0.006 0.91993,-2.01758 0.85351,-2.01758 0.7832,-2.02148 0.7129,-2.02148 0.63867,-2.01954 0.55859,-2.01757 0.4707,-2.01563 0.375,-2.01172 0.14649,-1.00195 0.11523,-1.00195 0.043,-0.49805 0.0352,-0.5 0.0195,-0.49805 0.008,-0.49609 14.5625,-1.77539 0.12695,0.48242 0.14063,0.47852 0.15234,0.4746 0.16211,0.47461 0.35157,0.94336 0.38281,0.93946 0.84765,1.86133 0.94141,1.84374 1.02539,1.82618 1.10547,1.80664 1.17773,1.79101 1.2461,1.77344 1.3125,1.75391 1.37695,1.73632 12.41797,-3.06445 0.41016,-2.17773 0.3457,-2.16602 0.27734,-2.14844 0.20899,-2.13476 0.13672,-2.11328 0.0586,-2.09375 -0.0254,-2.07031 -0.11719,-2.04102 -0.0976,-1.00977 -0.12891,-0.99804 -0.0762,-0.4961 -0.0879,-0.49218 -0.0977,-0.48829 -0.11133,-0.48437 13.71485,-5.20703 0.23828,0.43554 0.25,0.43165 0.26172,0.42578 0.27148,0.41992 0.56641,0.83398 0.59765,0.82032 1.26758,1.60351 1.35547,1.56641 1.43359,1.52539 1.50391,1.49219 1.57227,1.45507 1.63476,1.42383 1.69531,1.38867 1.75196,1.35743 11.32422,-5.94922 -0.12305,-2.21094 -0.18359,-2.18555 -0.24415,-2.15234 -0.30664,-2.12305 -0.375,-2.08398 -0.44336,-2.04688 -0.51953,-2.0039 -0.60351,-1.95313 -0.33594,-0.95703 -0.36328,-0.93945 -0.19336,-0.46289 -0.20117,-0.45703 -0.21289,-0.45118 -0.22461,-0.44336 12.07031,-8.33984 0.33398,0.36719 0.34571,0.35937 0.35742,0.35156 0.36523,0.34376 0.74805,0.67187 0.77539,0.6543 1.61524,1.2539 1.6914,1.19336 1.75586,1.14063 1.81836,1.08789 1.875,1.03906 1.92773,0.99023 1.97852,0.94336 2.02734,0.89844 9.57032,-8.48633 -0.64844,-2.11914 -0.70117,-2.07617 -0.75196,-2.0332 -0.80664,-1.98633 -0.86328,-1.93555 -0.91992,-1.88086 -0.98437,-1.82031 -1.05274,-1.75391 -0.55469,-0.84765 -0.57812,-0.82617 -0.29883,-0.40235 -0.30664,-0.39453 -0.3125,-0.38867 -0.32422,-0.375 9.72266,-10.98633 0.41406,0.27735 0.42188,0.26367 0.42968,0.25586 0.43555,0.24609 0.89062,0.47461 0.90821,0.44922 1.86914,0.83008 1.92578,0.75586 1.98047,0.6875 2.02344,0.61914 2.07031,0.56054 2.10742,0.5 2.14844,0.44336 2.18164,0.38672 7.26172,-10.5293 -1.13868,-1.90234 -1.17578,-1.84961 -1.21679,-1.79297 -1.25782,-1.73437 -1.30078,-1.67383 -1.3457,-1.60547 -1.39063,-1.5332 -1.4414,-1.45117 -0.74219,-0.68946 -0.75781,-0.66211 -0.38672,-0.32031 -0.39062,-0.31055 -0.39649,-0.30078 -0.40625,-0.28906 6.8125,-12.99219 0.4668,0.16797 0.47461,0.15625 0.47851,0.14649 0.48242,0.13476 0.97657,0.2461 0.98828,0.21875 2.01367,0.36132 2.05273,0.27149 2.08399,0.19336 2.11719,0.11719 2.14062,0.0488 2.16797,-0.0195 2.19141,-0.084 2.21093,-0.14649 4.53125,-11.95898 -1.56054,-1.57617 -1.58399,-1.51367 -1.61133,-1.45118 -1.63671,-1.38281 -1.66407,-1.3125 -1.68945,-1.23828 -1.7168,-1.1543 -1.74804,-1.06445 -0.88477,-0.49219 -0.89453,-0.46289 -0.45313,-0.2168 -0.45312,-0.20898 -0.45899,-0.19727 -0.46093,-0.18164 3.5039,-14.24609 0.49414,0.0527 0.49805,0.0391 0.49805,0.0254 0.50195,0.0156 1.00781,0.006 1.01368,-0.0254 2.04101,-0.13086 2.05664,-0.22656 2.07031,-0.3125 2.08204,-0.39063 2.09179,-0.46679 2.09961,-0.53711 2.10742,-0.60547 2.11329,-0.67188 1.53515,-12.69726 -1.89062,-1.15625 -1.90235,-1.08985 -1.91015,-1.02343 -1.91993,-0.95117 -1.92968,-0.87696 -1.9375,-0.79687 -1.94141,-0.71094 -1.95117,-0.61523 -0.97852,-0.26563 -0.98047,-0.23437 -0.49023,-0.10352 -0.49023,-0.0937 -0.49219,-0.082 -0.49219,-0.0664 -0.006,-14.66992 0.49219,-0.0684 0.49219,-0.082 0.49023,-0.0918 0.49024,-0.10547 0.97851,-0.23437 0.97852,-0.26758 1.95117,-0.61719 1.94336,-0.71093 1.93554,-0.79883 1.92774,-0.87891 1.91992,-0.95312 1.91016,-1.02344 1.90039,-1.0918 1.89062,-1.1582 -1.54883,-12.69727 -2.11132,-0.66992 -2.10743,-0.60351 -2.10156,-0.53516 -2.08984,-0.46484 -2.08399,-0.38868 -2.07031,-0.31054 -2.05859,-0.22461 -2.04102,-0.13086 -1.01367,-0.0234 -1.00586,0.006 -0.50195,0.0176 -0.49805,0.0254 -0.49805,0.0391 -0.49414,0.0527 -3.51758,-14.24219 0.4629,-0.18359 0.45703,-0.19727 0.45507,-0.20899 0.45118,-0.21679 0.89453,-0.46289 0.88672,-0.49414 1.74414,-1.06446 1.71679,-1.15625 1.68946,-1.24023 1.66015,-1.3125 1.63672,-1.38672 1.61133,-1.45117 1.58203,-1.51563 1.5586,-1.57617 -4.54102,-11.95703 -2.21094,-0.14453 -2.1914,-0.082 -2.16602,-0.0176 -2.14258,0.0508 -2.11523,0.1211 -2.08594,0.19335 -2.05078,0.27344 -2.01367,0.36328 -0.99024,0.21875 -0.97656,0.2461 -0.48242,0.13672 -0.47852,0.14648 -0.47265,0.15625 -0.4668,0.16797 -6.82422,-12.986329 0.40625,-0.289063 0.39649,-0.298828 0.39257,-0.3125 0.38477,-0.320312 0.75781,-0.664063 0.74219,-0.691406 1.44141,-1.451172 1.38867,-1.533203 1.34375,-1.607422 1.29883,-1.673828 1.25586,-1.736328 1.21484,-1.792969 1.17578,-1.851563 1.13672,-1.902343 -7.27149,-10.523438 -2.18164,0.388672 -2.14648,0.443359 -2.10938,0.501954 -2.06835,0.5625 -2.02344,0.623046 -1.97852,0.6875 -1.92773,0.75586 -1.86719,0.833984 -0.9082,0.449219 -0.88868,0.474609 -0.43554,0.248047 -0.42969,0.255859 -0.42187,0.263672 -0.41407,0.277344 -9.73242,-10.978516 0.32422,-0.375 0.31445,-0.388671 0.30469,-0.394532 0.29883,-0.404297 0.57617,-0.824218 0.55469,-0.84961 1.05078,-1.753906 0.98242,-1.822266 0.91992,-1.880859 0.86133,-1.935547 0.80469,-1.986328 0.75,-2.035156 0.69922,-2.076172 0.64648,-2.121094 -9.57617,-8.476562 -2.02734,0.898437 -1.97657,0.945313 -1.92773,0.99414 -1.87305,1.039063 -1.81836,1.087891 -1.75586,1.142578 -1.68945,1.195312 -1.61328,1.25586 -0.77539,0.654296 -0.75,0.673828 -0.36328,0.34375 -0.35547,0.351563 -0.3457,0.357422 -0.33399,0.367187 -12.07812,-8.328125 0.22461,-0.443359 0.21093,-0.451172 0.20118,-0.457031 0.19335,-0.462891 0.36329,-0.939453 0.33593,-0.957031 0.59961,-1.955078 0.51953,-2.003906 0.44141,-2.046876 0.37305,-2.085937 0.30468,-2.121094 0.24415,-2.154297 0.17968,-2.183593 0.1211,-2.212891 -11.32813,-5.939453 -1.75195,1.357422 -1.69336,1.390625 -1.63281,1.425781 -1.57032,1.457031 -1.5039,1.494141 -1.4336,1.527344 -1.35351,1.566406 -1.26563,1.605469 -0.5957,0.818359 -0.56641,0.833984 -0.27148,0.421875 -0.26172,0.425782 -0.25,0.43164 -0.23828,0.4375 -13.71875,-5.197265 0.11133,-0.484375 0.0996,-0.490235 0.084,-0.490234 0.0762,-0.496094 0.12891,-1 0.0957,-1.007812 0.11719,-2.042969 0.0234,-2.06836 -0.0606,-2.09375 -0.13867,-2.115234 -0.21094,-2.132812 -0.2793,-2.148438 -0.34765,-2.1640627 -0.41211,-2.1796875 -12.41992,-3.0546875 -1.375,1.7382813 -1.3125,1.7558593 -1.2461,1.7753907 -1.17578,1.7910164 -1.10156,1.808593 -1.02539,1.826172 -0.93945,1.84375 -0.84571,1.863281 -0.38281,0.9375 -0.34961,0.945313 -0.16211,0.474609 -0.15234,0.47461 -0.14063,0.480468 -0.125,0.478516 -14.56445,-1.761719 -0.008,-0.496093 -0.0215,-0.498047 -0.0332,-0.5 -0.0449,-0.498047 -0.11719,-1.001953 -0.14648,-1.001953 -0.375,-2.009766 -0.47266,-2.015625 -0.56055,-2.0175785 -0.64062,-2.0195313 -0.71485,-2.0214844 -0.78515,-2.0195312 -0.85547,-2.0195313 -0.92188,-2.0136718 z m -7.8125,38.25781225 9.30664,0.207031 9.27344,0.814454 9.20117,1.419922 9.08789,2.017578 8.93555,2.609375 8.7461,3.189453 8.51953,3.751953 8.25586,4.302734 7.95703,4.832031 7.625,5.34375 7.25586,5.828126 6.86132,6.292968 6.43555,6.728516 5.98047,7.132812 5.50195,7.509766 4.99805,7.85352 4.47461,8.16406 3.92969,8.43945 3.37109,8.67774 2.79492,8.8789 2.20899,9.04492 1.61328,9.16993 1.00976,9.25195 0.40039,9.30273 -6.21484,5.48047 -96.51562,-11.67773 -8.50977,-7.26367 -2.32227,-4.08008 -2.85546,-3.72461 -3.33594,-3.30274 -3.75195,-2.81836 -4.10352,-2.28125 -4.375,-1.70312 -4.56445,-1.08984 -9.34961,-6.14844 -38.14453,-89.42383 3.53125,-7.498047 9.04296,-2.208984 9.16797,-1.613281 9.25586,-1.007813 9.30078,-0.402344 z m -70.92187,19.800781 7.85547,2.642579 38.14258,89.423829 -2.03516,11.00195 -2.37109,4.05274 -1.79883,4.33398 -1.19336,4.53906 -0.56445,4.66016 0.0762,4.69336 0.71289,4.63867 1.33789,4.5 -0.64844,11.16992 -58.371093,77.7461 -8.257813,0.6914 -6.435546,-6.72656 -5.980469,-7.13477 -5.501953,-7.50976 -4.998047,-7.85156 -4.47461,-8.16602 -3.93164,-8.4375 -3.371094,-8.67773 -2.794922,-8.88086 -2.208984,-9.04297 -1.611328,-9.16797 -1.011719,-9.25586 -0.402344,-9.30078 0.208984,-9.30664 0.814454,-9.27344 1.419922,-9.20117 2.019531,-9.08789 2.607422,-8.93555 3.189453,-8.74609 3.751953,-8.51953 4.302734,-8.25586 4.832031,-7.95703 5.34375,-7.623051 5.830079,-7.257813 6.292968,-6.861328 6.726563,-6.433594 7.134766,-5.982422 7.509762,-5.5 7.85352,-5 z M 180.75,170.32031 a 9.6708531,9.6708531 0 0 1 0.96289,0.0684 9.6708531,9.6708531 0 0 1 8.43945,10.76172 9.6708531,9.6708531 0 0 1 -10.76172,8.43945 9.6708531,9.6708531 0 0 1 -8.43945,-10.76172 9.6708531,9.6708531 0 0 1 9.79883,-8.50781 z m 36.34766,26.5586 96.51757,11.67968 4.72852,6.80469 -2.60937,8.9375 -3.1875,8.7461 -3.75391,8.51953 -4.30078,8.25586 -4.83399,7.95703 -5.34179,7.62304 -5.83008,7.25782 -6.29297,6.86132 -6.72656,6.4336 -7.13282,5.98242 -7.51171,5.5 -7.85352,5 -8.16406,4.47461 -8.4375,3.92969 -8.67774,3.37109 -8.88086,2.79492 -9.04297,2.20899 -9.16796,1.61328 -9.25586,1.00976 -9.30078,0.40039 -9.30664,-0.20507 -9.27344,-0.81641 -9.20117,-1.41992 -9.08789,-2.01953 -8.93555,-2.60938 -8.7461,-3.1875 -8.51953,-3.7539 -8.25586,-4.30079 -1.64062,-8.12304 58.37305,-77.7461 10.54492,-3.73828 4.69336,0.0273 4.65429,-0.60938 4.5293,-1.23633 4.31641,-1.84179 4.02734,-2.41211 3.66016,-2.9375 3.22851,-3.40821 9.9961,-5.02343 z"
         transform="matrix(0.00962388,0.0011645,0.0011645,-0.00962388,-0.19625651,3.2728927)"
         id="path8"
         inkscape:connector-curvature="0" />
    </g>
  </g>
  <circle
     style="fill:none;fill-opacity:1;stroke:#000000;stroke-width:0.81660044;stroke-linecap:round;stroke-linejoin:miter;stroke-miterlimit:4;stroke-dasharray:none;stroke-opacity:1"
     id="path4158"
     cx="-204.60515"
     cy="80.07193"
     r="150.61935"
     transform="matrix(-0.91962511,-0.39279722,-0.39279722,0.91962511,0,0)" />
  <text
     xml:space="preserve"
     style="font-style:normal;font-variant:normal;font-weight:normal;font-stretch:normal;font-size:16.25px;line-height:125%;font-family:Magzetician;-inkscape-font-specification:Magzetician;letter-spacing:21.19000004px;word-spacing:0px;fill:#000000;fill-opacity:1;stroke:none;stroke-width:1px;stroke-linecap:butt;stroke-linejoin:miter;stroke-opacity:1;"
     id="text4160"
     sodipodi:linespacing="125%"
     x="0.0079130288"
     transform="matrix(-0.34787409,-0.93754126,0.93754126,-0.34787409,66.839031,354.43404)"><textPath
       xlink:href="#path4158"
       id="textPath4164"
       style="font-style:normal;font-variant:normal;font-weight:normal;font-stretch:normal;font-size:16.25px;font-family:Magzetician;-inkscape-font-specification:Magzetician;letter-spacing:21.19000004px;">WHZBQROSCNEFUMDIYGPVXTJKAL</textPath></text>
</svg>
