<?xml version="1.0" encoding="UTF-8" standalone="no"?>
<svg
   xmlns:dc="http://purl.org/dc/elements/1.1/"
   xmlns:cc="http://creativecommons.org/ns#"
   xmlns:rdf="http://www.w3.org/1999/02/22-rdf-syntax-ns#"
   xmlns:svg="http://www.w3.org/2000/svg"
   xmlns="http://www.w3.org/2000/svg"
   xmlns:xlink="http://www.w3.org/1999/xlink"
   xmlns:sodipodi="http://sodipodi.sourceforge.net/DTD/sodipodi-0.dtd"
   xmlns:inkscape="http://www.inkscape.org/namespaces/inkscape"
   viewBox="0.0011 -3.49551 314.09645 315.00001"
   version="1.0"
   overflow="visible"
   id="svg2"
   inkscape:version="0.91 r13725"
   sodipodi:docname="6-spoke-3.5-inch-alpha.svg"
   width="3.4899607in"
   height="3.5in"
   style="overflow:visible">
  <metadata
     id="metadata26">
    <rdf:RDF>
      <cc:Work
         rdf:about="">
        <dc:format>image/svg+xml</dc:format>
        <dc:type
           rdf:resource="http://purl.org/dc/dcmitype/StillImage" />
        <dc:title></dc:title>
      </cc:Work>
    </rdf:RDF>
  </metadata>
  <sodipodi:namedview
     pagecolor="#ffffff"
     bordercolor="#666666"
     borderopacity="1"
     objecttolerance="10"
     gridtolerance="10"
     guidetolerance="10"
     inkscape:pageopacity="0"
     inkscape:pageshadow="2"
     inkscape:window-width="1680"
     inkscape:window-height="997"
     id="namedview24"
     showgrid="false"
     inkscape:document-units="in"
     units="in"
     fit-margin-top="0"
     fit-margin-left="0"
     fit-margin-right="0"
     fit-margin-bottom="0"
     inkscape:zoom="2.1137074"
     inkscape:cx="125.20046"
     inkscape:cy="148.73995"
     inkscape:window-x="-8"
     inkscape:window-y="-8"
     inkscape:window-maximized="1"
     inkscape:current-layer="svg2" />
  <defs
     id="defs4" />
  <g
     id="draft"
     transform="matrix(89.286871,-11.091264,-11.091264,-89.286871,20.132977,329.76183)"
     style="fill:none;fill-opacity:1;stroke:#000000;stroke-width:0.00100251;stroke-miterlimit:4;stroke-dasharray:none;stroke-opacity:1">
    <g
       id="ID_0"
       style="color:#000000;fill:none;fill-opacity:1;stroke:#000000;stroke-width:0.00100251;stroke-miterlimit:4;stroke-dasharray:none;stroke-opacity:1">
      <path
         style="fill:none;fill-opacity:1;stroke:#000000;stroke-width:0.10339537;stroke-miterlimit:4;stroke-dasharray:none;stroke-opacity:1"
         d="m 186.41211,-0.46679688 -12.78711,0.0371094 -0.91406,2.01757808 -0.84961,2.0195313 -0.7793,2.0234375 -0.70898,2.0214844 -0.63282,2.0214843 -0.55273,2.0195309 -0.4668,2.015625 -0.36914,2.011719 -0.14453,1.003906 -0.11328,1 -0.041,0.5 -0.0332,0.498047 -0.0195,0.498047 -0.006,0.496094 -14.55664,1.808594 -0.12695,-0.480469 -0.14258,-0.476563 -0.15235,-0.476562 -0.16406,-0.472656 -0.35351,-0.94336 -0.38477,-0.9375 -0.85156,-1.859375 -0.94531,-1.841797 -1.03125,-1.822265 -1.10743,-1.804688 -1.18164,-1.7871091 -1.25195,-1.7714844 -1.31641,-1.7519531 -1.38085,-1.7324219 -12.40821,3.0957031 -0.40429,2.1777344 -0.33985,2.166016 -0.27344,2.148437 -0.20312,2.132813 -0.13086,2.115234 -0.0547,2.09375 0.0293,2.068359 0.12305,2.041016 0.0996,1.007812 0.13085,1 0.0781,0.496094 0.0879,0.490235 0.0996,0.488281 0.11133,0.484375 -13.69922,5.240234 -0.23828,-0.4375 -0.25196,-0.429687 -0.26367,-0.425782 -0.27148,-0.419921 -0.57031,-0.832032 -0.59571,-0.816406 -1.27148,-1.601562 -1.35938,-1.5625 -1.4375,-1.523438 -1.50781,-1.486328 -1.57422,-1.453125 -1.63867,-1.419922 -1.69727,-1.384766 -1.75585,-1.351562 -11.306646,5.972656 0.126954,2.212891 0.189453,2.183594 0.248047,2.152343 0.3125,2.119141 0.378906,2.085937 0.449218,2.042969 0.525391,2.003907 0.605469,1.953124 0.339844,0.953126 0.365234,0.939453 0.193359,0.46289 0.203125,0.455078 0.212891,0.451172 0.226563,0.44336 -12.048829,8.365234 -0.335937,-0.367187 -0.347656,-0.355469 -0.357422,-0.351563 -0.363282,-0.34375 -0.751953,-0.669922 -0.777343,-0.65039 -1.617188,-1.251953 -1.691406,-1.189453 -1.761719,-1.136719 -1.820312,-1.082031 -1.875,-1.033204 -1.929688,-0.986328 -1.980469,-0.939453 -2.029296,-0.892578 -9.546876,8.505859 0.652344,2.117188 0.705078,2.074219 0.757813,2.03125 0.810547,1.984375 0.867187,1.93164 0.923828,1.878906 0.988282,1.81836 1.05664,1.751953 0.556641,0.845703 0.580078,0.824219 0.298828,0.400391 0.306641,0.396484 0.316406,0.384766 0.324219,0.375 -9.697266,11.007812 -0.414062,-0.275391 -0.421875,-0.263671 -0.429688,-0.253907 -0.435547,-0.246093 -0.892578,-0.472657 -0.908203,-0.445312 -1.871094,-0.828125 -1.927734,-0.75 -1.980469,-0.681641 -2.027344,-0.615234 -2.068359,-0.554688 -2.109375,-0.496093 -2.148438,-0.4375 -2.18164,-0.382813 -7.236328,10.544922 1.142578,1.900391 1.179687,1.845703 1.220703,1.789062 1.263672,1.732422 1.302735,1.669922 1.347656,1.601562 1.394531,1.529297 1.445313,1.447266 0.74414,0.6875 0.759766,0.662109 0.386719,0.31836 0.392578,0.310547 0.396484,0.298828 0.40625,0.287109 -6.78125,13.005855 -0.466797,-0.16601 -0.474609,-0.15625 -0.478516,-0.14453 -0.482422,-0.13281 -0.976562,-0.2461 -0.990234,-0.21484 -2.013672,-0.35547 -2.052735,-0.26758 -2.083984,-0.1875 -2.117187,-0.11328 -2.140626,-0.043 -2.167968,0.0234 -2.189453,0.0879 -2.210938,0.15234 -4.501953,11.97071 1.5625,1.57031 1.589844,1.50976 1.613281,1.44532 1.640625,1.38086 1.664062,1.30859 1.69336,1.23242 1.71875,1.15234 1.75,1.0586 0.886719,0.49023 0.896484,0.46094 0.451172,0.21484 0.455078,0.20899 0.458984,0.19531 0.460938,0.18164 -3.470703,14.25195 -0.494141,-0.0527 -0.496094,-0.0371 -0.5,-0.0254 -0.5,-0.0137 -1.007812,-0.004 -1.011719,0.0273 -2.041016,0.13672 -2.05664,0.23046 -2.070313,0.31641 -2.080078,0.39648 -2.0917966,0.47071 -2.0976563,0.54297 -2.1054687,0.60937 -2.109375,0.67774 -1.5058594,12.69921 1.8925781,1.15039 1.9042969,1.08594 1.9121094,1.01758 1.921875,0.94727 1.9316406,0.87109 1.9375,0.79297 1.945313,0.70703 1.951171,0.60938 0.978516,0.26367 0.980469,0.23242 0.490234,0.10156 0.492188,0.0918 0.492187,0.082 0.492188,0.0644 0.04102,14.66797 -0.492187,0.0684 -0.492188,0.084 -0.490234,0.0938 -0.490235,0.10546 -0.978515,0.23828 -0.976563,0.26954 -1.949218,0.61914 -1.941407,0.71875 -1.933593,0.80273 -1.9257816,0.88281 -1.9160156,0.95703 -1.9082032,1.02735 -1.8984375,1.09765 -1.88671872,1.16211 1.57812502,12.68946 2.1132812,0.66406 2.1074219,0.59961 2.1015625,0.53125 2.091797,0.45898 2.083984,0.38477 2.070313,0.30469 2.058594,0.2207 2.041015,0.125 1.013672,0.0215 1.005859,-0.01 0.501954,-0.0176 0.5,-0.0273 0.496093,-0.0391 0.494141,-0.0547 3.548828,14.23242 -0.460938,0.18359 -0.457031,0.19727 -0.455078,0.21094 -0.451172,0.21875 -0.892578,0.46484 -0.884765,0.49609 -1.742188,1.06836 -1.712891,1.16016 -1.685547,1.24219 -1.660156,1.31836 -1.630859,1.38867 -1.605469,1.45508 -1.580078,1.51757 -1.5546875,1.58008 4.5683595,11.94531 2.210937,0.13868 2.191407,0.0781 2.166015,0.0117 2.142578,-0.0566 2.113282,-0.12305 2.085937,-0.19922 2.048828,-0.27929 2.013672,-0.36719 0.988281,-0.2207 0.97461,-0.25 0.482422,-0.13672 0.478515,-0.14649 0.472656,-0.1582 0.466797,-0.17188 6.851563,12.97071 -0.404297,0.28906 -0.396484,0.30078 -0.390625,0.3125 -0.382813,0.32227 -0.757812,0.66406 -0.740235,0.69141 -1.4375,1.45703 -1.384765,1.53711 -1.339844,1.60937 -1.294922,1.67578 -1.251953,1.73828 -1.210938,1.79688 -1.169922,1.85352 -1.130859,1.90624 7.292969,10.50391 2.18164,-0.39453 2.144532,-0.44922 2.105468,-0.50781 2.066407,-0.56641 2.023437,-0.625 1.976563,-0.69336 1.925781,-0.76172 1.865234,-0.83789 0.90625,-0.45117 0.886719,-0.47656 0.435547,-0.24805 0.429688,-0.25586 0.421874,-0.26562 0.410157,-0.2793 9.757812,10.95313 -0.322265,0.37695 -0.3125,0.38867 -0.304688,0.39649 -0.296875,0.40429 -0.574219,0.82617 -0.554687,0.84961 -1.046875,1.75586 -0.976563,1.82422 -0.916015,1.88281 -0.855469,1.9375 -0.800781,1.98829 -0.746094,2.03515 -0.691406,2.07813 -0.642578,2.12109 9.595703,8.45313 2.021484,-0.90235 1.976563,-0.95117 1.923828,-0.99609 1.871094,-1.04297 1.814453,-1.09375 1.751953,-1.14649 1.6875,-1.19726 1.609375,-1.26172 0.773437,-0.6543 0.748047,-0.67578 0.363281,-0.34375 0.355469,-0.35351 0.345703,-0.35938 0.332032,-0.36719 12.095703,8.29883 -0.222657,0.44336 -0.210937,0.45117 -0.201172,0.45899 -0.191406,0.46289 -0.361328,0.9414 -0.332032,0.95703 -0.595703,1.95508 -0.515625,2.00391 -0.435547,2.04883 -0.367187,2.08593 -0.300781,2.1211 -0.238282,2.15429 -0.175781,2.18555 -0.115234,2.21094 11.339836,5.91211 1.74805,-1.36133 1.68945,-1.39453 1.63086,-1.42774 1.56641,-1.46289 1.5,-1.49609 1.42773,-1.5293 1.34961,-1.56836 1.26367,-1.60937 0.5918,-0.82227 0.56445,-0.83398 0.27149,-0.42188 0.25976,-0.42578 0.25,-0.43164 0.23633,-0.4375 13.72852,5.16211 -0.11133,0.48633 -0.0957,0.48828 -0.0859,0.49219 -0.0742,0.49609 -0.125,0.99805 -0.0957,1.00977 -0.10938,2.04101 -0.0195,2.07031 0.0645,2.09375 0.14453,2.11328 0.21486,2.13086 0.28514,2.14844 0.35157,2.16406 0.41797,2.17579 12.42383,3.02539 1.3711,-1.74024 1.30859,-1.75976 1.24024,-1.77539 1.17187,-1.79493 1.09766,-1.81054 1.02148,-1.82813 0.93555,-1.8457 0.83984,-1.86524 0.37891,-0.93945 0.34961,-0.94336 0.16015,-0.47656 0.15235,-0.47461 0.13867,-0.48047 0.125,-0.48047 14.56445,1.72852 0.01,0.49609 0.0234,0.49805 0.0332,0.49804 0.0469,0.5 0.11719,1 0.15038,1.00196 0.38087,2.00976 0.47852,2.01368 0.56445,2.01562 0.64258,2.01758 0.71875,2.01953 0.79101,2.01758 0.85938,2.01562 0.92578,2.01367 12.78906,-0.0351 0.91407,-2.01953 0.84961,-2.01953 0.77929,-2.02344 0.70703,-2.02149 0.63477,-2.02148 0.55273,-2.01953 0.4668,-2.01563 0.36914,-2.01172 0.14453,-1.0039 0.11133,-1 0.043,-0.5 0.0332,-0.49805 0.0195,-0.49805 0.006,-0.49609 14.55664,-1.80859 0.12696,0.47851 0.14257,0.47852 0.15235,0.47656 0.16406,0.47461 0.35352,0.94141 0.38476,0.9375 0.85156,1.85937 0.94532,1.8418 1.02929,1.82226 1.10938,1.80469 1.18164,1.78906 1.25,1.76954 1.31836,1.75 1.38086,1.73437 12.40625,-3.0957 0.40625,-2.17774 0.33984,-2.16406 0.27344,-2.15039 0.20312,-2.13281 0.13086,-2.11524 0.0547,-2.09179 -0.0293,-2.07032 -0.12304,-2.04101 -0.0996,-1.00781 -0.13086,-1 -0.0781,-0.49415 -0.0879,-0.49218 -0.0996,-0.48828 -0.11328,-0.48438 13.70117,-5.23828 0.23829,0.43555 0.25195,0.42968 0.26172,0.42579 0.27343,0.41992 0.56836,0.83203 0.59961,0.81836 1.27149,1.60156 1.35742,1.56055 1.4375,1.52344 1.50781,1.48632 1.57422,1.45313 1.63867,1.41992 1.69727,1.38477 1.75586,1.35156 11.30664,-5.97266 -0.12891,-2.21289 -0.1875,-2.18359 -0.24804,-2.15235 -0.3125,-2.12109 -0.37891,-2.08203 -0.44923,-2.04688 -0.52344,-2.00195 -0.60742,-1.95117 -0.33789,-0.95703 -0.36719,-0.9375 -0.19335,-0.46094 -0.20313,-0.45703 -0.21289,-0.45117 -0.22656,-0.44336 12.04882,-8.36524 0.33594,0.36719 0.3457,0.35742 0.35743,0.34961 0.36523,0.34375 0.75196,0.66992 0.77735,0.65235 1.61718,1.25 1.69336,1.1914 1.75781,1.13477 1.82032,1.08203 1.87891,1.03516 1.92968,0.98437 1.97852,0.93945 2.0293,0.89258 9.54882,-8.50586 -0.6543,-2.11718 -0.70508,-2.07618 -0.75781,-2.02929 -0.81054,-1.98438 -0.86719,-1.93164 -0.92383,-1.8789 -0.98828,-1.81836 -1.05664,-1.75 -0.55859,-0.84766 -0.57813,-0.82227 -0.30078,-0.40234 -0.30469,-0.39648 -0.31445,-0.38672 -0.32617,-0.375 9.69531,-11.00586 0.41406,0.27539 0.42383,0.26367 0.42969,0.25586 0.4375,0.24609 0.88867,0.47071 0.91016,0.44531 1.86914,0.82812 1.92969,0.75 1.98047,0.68165 2.02539,0.61718 2.07031,0.55469 2.10937,0.49414 2.14844,0.4375 2.18164,0.38086 7.23633,-10.54297 -1.14063,-1.90039 -1.18164,-1.8457 -1.22265,-1.79102 -1.25977,-1.73047 -1.30469,-1.66992 -1.34765,-1.60156 -1.39453,-1.5293 -1.44532,-1.44726 -0.74414,-0.6875 -0.75976,-0.66211 -0.38672,-0.31836 -0.39258,-0.31055 -0.39844,-0.29883 -0.40429,-0.28711 6.78125,-13.00781 0.46679,0.16992 0.47266,0.1543 0.47852,0.14453 0.48437,0.13281 0.97656,0.24414 0.99024,0.2168 2.01367,0.35547 2.05078,0.26758 2.08789,0.1875 2.11328,0.11328 2.14258,0.043 2.16797,-0.0234 2.18945,-0.0898 2.21094,-0.15039 4.50195,-11.96875 -1.56487,-1.572 -1.58789,-1.50977 -1.61328,-1.44531 -1.64063,-1.38086 -1.66601,-1.30664 -1.69141,-1.23437 -1.7207,-1.15039 -1.74805,-1.06055 -0.88672,-0.49023 -0.89648,-0.45899 -0.45117,-0.2168 -0.45508,-0.20898 -0.45899,-0.19531 -0.46289,-0.18164 3.47266,-14.25196 0.49414,0.0527 0.49609,0.0371 0.5,0.0254 0.5,0.0137 1.00782,0.004 1.01367,-0.0274 2.03906,-0.13476 2.05664,-0.23243 2.07031,-0.3164 2.08008,-0.39649 2.08985,-0.4707 2.0996,-0.54297 2.10352,-0.60937 2.11133,-0.67774 1.50586,-12.69726 -1.89258,-1.15235 -1.9043,-1.08593 -1.91406,-1.01758 -1.92187,-0.94727 -1.92969,-0.87304 -1.9375,-0.79102 -1.94531,-0.70703 -1.95313,-0.60938 -0.97851,-0.26367 -0.97852,-0.23242 -0.49219,-0.10156 -0.49023,-0.0937 -0.49219,-0.0801 -0.49219,-0.0644 -0.041,-14.66797 0.49218,-0.0684 0.49219,-0.084 0.49024,-0.0937 0.49023,-0.10547 0.97852,-0.23828 0.97656,-0.26953 1.94922,-0.62109 1.9414,-0.71485 1.9336,-0.80468 1.92578,-0.88086 1.91601,-0.95899 1.90821,-1.02734 1.89648,-1.09766 1.88867,-1.16015 -1.57617,-12.69141 -2.11523,-0.66406 -2.10742,-0.59961 -2.10157,-0.5293 -2.09375,-0.45898 -2.08203,-0.38477 -2.07226,-0.30664 -2.05664,-0.2207 -2.04102,-0.125 -1.01367,-0.0215 -1.00781,0.01 -0.5,0.0176 -0.49805,0.0273 -0.49805,0.0391 -0.49414,0.0547 -3.54883,-14.23242 0.46094,-0.18359 0.45703,-0.19922 0.45313,-0.20899 0.45117,-0.21875 0.89453,-0.46484 0.88281,-0.4961 1.74414,-1.06835 1.71289,-1.16016 1.68555,-1.24219 1.6582,-1.31836 1.63282,-1.38867 1.60547,-1.45508 1.58007,-1.51758 1.55469,-1.58007 -4.56836,-11.94532 -2.21094,-0.13867 -2.18945,-0.0762 -2.16797,-0.0137 -2.14258,0.0547 -2.11328,0.125 -2.08398,0.19921 -2.05274,0.2793 -2.00976,0.36719 -0.99024,0.2207 -0.97461,0.25 -0.48242,0.13672 -0.47851,0.14648 -0.47266,0.15821 -0.4668,0.17187 -6.85156,-12.9707 0.4043,-0.289062 0.39648,-0.300782 0.38867,-0.3125 0.38672,-0.320312 0.75586,-0.666016 0.74024,-0.693359 1.43554,-1.453125 1.38672,-1.53711 1.33789,-1.611328 1.29492,-1.675781 1.25196,-1.738281 1.21289,-1.796875 1.16992,-1.853516 1.13086,-1.904297 -7.29297,-10.505859 -2.17969,0.394531 -2.14648,0.449219 -2.10742,0.507812 -2.06641,0.566407 -2.02148,0.626953 -1.97657,0.691406 -1.92382,0.761719 -1.86719,0.83789 -0.90625,0.451172 -0.88867,0.476563 -0.43555,0.248047 -0.42773,0.255859 -0.42188,0.267578 -0.41211,0.275391 -9.75586,-10.951172 0.32227,-0.376953 0.3125,-0.388672 0.30468,-0.396485 0.29688,-0.404296 0.57617,-0.826172 0.55078,-0.84961 1.04883,-1.755859 0.97656,-1.824219 0.91602,-1.882812 0.85547,-1.9375 0.79883,-1.988282 0.74609,-2.035156 0.69336,-2.078125 0.64258,-2.121093 -9.59571,-8.455079 -2.02343,0.904297 -1.97461,0.951172 -1.92383,0.996094 -1.87109,1.044922 -1.81446,1.091797 -1.7539,1.144531 -1.68555,1.201172 -1.61133,1.259765 -0.77148,0.654297 -0.74805,0.675782 -0.36328,0.345703 -0.35547,0.351562 -0.3457,0.359375 -0.33399,0.367188 -12.09375,-8.298828 0.22266,-0.44336 0.21289,-0.451172 0.19922,-0.458984 0.1914,-0.462891 0.36133,-0.939453 0.33399,-0.957031 0.5957,-1.957031 0.51172,-2.00586 0.4375,-2.046875 0.36914,-2.085937 0.30078,-2.121094 0.23633,-2.154297 0.17578,-2.183594 0.11523,-2.214843 -11.33789,-5.910157 -1.75,1.361329 -1.68945,1.394531 -1.62891,1.429687 -1.56836,1.460938 -1.5,1.49414 -1.42773,1.533204 -1.34961,1.568359 -1.26172,1.607422 -0.5957,0.822265 -0.56445,0.833985 -0.26953,0.421875 -0.25977,0.427734 -0.25,0.429688 -0.23633,0.4375 -13.72851,-5.164063 0.11132,-0.484375 0.0957,-0.488281 0.0859,-0.492188 0.0742,-0.496093 0.125,-1 0.0957,-1.007813 0.10937,-2.042969 0.0195,-2.068359 -0.0664,-2.091797 -0.14258,-2.115234 -0.21485,-2.13086 -0.28515,-2.148437 -0.35156,-2.1621095 -0.41797,-2.1777344 -12.42383,-3.0253906 -1.37305,1.7402344 -1.30664,1.7597656 -1.24023,1.7753906 -1.17188,1.7949219 -1.09765,1.810547 -1.02149,1.828125 -0.93359,1.847656 -0.8418,1.863281 -0.38086,0.939454 -0.34765,0.945312 -0.16211,0.474609 -0.15039,0.476563 -0.13868,0.478516 -0.125,0.480468 -14.56445,-1.728515 -0.01,-0.496094 -0.0215,-0.498047 -0.0371,-0.498047 -0.0449,-0.5 -0.11719,-1 -0.15039,-1.001953 -0.38086,-2.009766 -0.47656,-2.011718 -0.56445,-2.0175785 -0.64454,-2.0175781 -0.7207,-2.0195313 -0.78906,-2.015625 -0.86133,-2.0175781 -0.92578,-2.01367188 z m -4.85547,38.26171888 9.30274,0.373047 9.25585,0.980469 9.17188,1.582031 9.04883,2.18164 3.55273,7.484375 -36.73047,86.871096 -9.21875,5.91601 -10.38476,-3.48047 -56.86914,-75.244136 1.61523,-8.126953 8.24024,-4.328125 8.50586,-3.779297 8.73437,-3.214843 8.92773,-2.636719 9.08008,-2.046875 9.19336,-1.449219 9.26953,-0.845703 9.30469,-0.236328 z m 70.97266,19.574219 7.86914,4.972656 7.52539,5.476562 7.15234,5.957032 6.7461,6.412109 6.3125,6.841797 5.85351,7.236328 5.36524,7.605465 4.85742,7.93946 4.32812,8.24218 3.7793,8.50586 3.21484,8.73438 2.63672,8.92773 -4.70703,6.82032 -93.59766,11.625 -9.73046,-5.0254 -2.17969,-10.73437 36.72851,-86.871094 7.84571,-2.666015 z m -171.847659,21.345703 8.259765,0.666015 56.869144,75.246091 0.51172,10.94141 -8.20508,7.25391 -93.599612,11.62695 -6.230469,-5.46094 0.373047,-9.30078 0.980469,-9.25586 1.582031,-9.17383 2.179688,-9.04883 2.767578,-8.88671 3.341797,-8.6875 3.904297,-8.44922 4.447265,-8.17774 4.972657,-7.86719 5.476562,-7.525386 5.957031,-7.152343 6.41211,-6.748047 z M 180.97266,170.36523 a 9.6690482,9.6690482 0 0 1 9.13867,8.4668 9.6690482,9.6690482 0 0 1 -8.40235,10.78711 9.6690482,9.6690482 0 0 1 -10.7871,-8.40234 9.6690482,9.6690482 0 0 1 8.40234,-10.78711 9.6690482,9.6690482 0 0 1 1.64844,-0.0645 z m 135.54296,5.23633 6.23047,5.46094 -0.37304,9.29883 -0.97852,9.25586 -1.58398,9.17383 -2.17969,9.04882 -2.76758,8.88672 -3.3418,8.6875 -3.90429,8.44922 -4.44727,8.17774 -4.97265,7.86718 -5.47657,7.52735 -5.95703,7.15039 -6.41406,6.74609 -8.25781,-0.66406 -56.86719,-75.24414 -0.51367,-10.94141 8.20508,-7.2539 93.5996,-11.62696 z m -175.34765,21.78125 9.73242,5.02539 2.17773,10.73438 -36.73046,86.87109 -7.84375,2.66602 -7.86914,-4.97266 -7.525395,-5.47656 -7.152344,-5.95703 -6.746093,-6.41211 -6.314454,-6.83985 -5.851562,-7.23828 -5.365234,-7.60547 -4.857422,-7.93945 -4.328125,-8.24219 -3.779297,-8.50586 -3.214844,-8.73437 -2.636719,-8.92774 4.705078,-6.81835 93.599611,-11.62696 z m 43.92578,19.48242 10.38477,3.48047 56.86718,75.2461 -1.61328,8.125 -8.24023,4.32812 -8.50586,3.7793 -8.73438,3.21484 -8.92773,2.63672 -9.08008,2.04688 -9.19336,1.45117 -9.26953,0.84375 -9.30664,0.23633 -9.29883,-0.37305 -9.25586,-0.98047 -9.17383,-1.58398 -9.04882,-2.17969 -3.55274,-7.48438 36.73047,-86.87109 9.21875,-5.91602 z"
         transform="matrix(0.00962193,-0.00119524,-0.00119524,-0.00962193,0.22920212,3.6988925)"
         id="path8"
         inkscape:connector-curvature="0" />
    </g>
  </g>
  <circle
     style="fill:none;fill-opacity:1;stroke:#000000;stroke-width:0.81660044;stroke-linecap:round;stroke-linejoin:miter;stroke-miterlimit:4;stroke-dasharray:none;stroke-opacity:1"
     id="path4158"
     cx="-204.91904"
     cy="79.937859"
     r="150.61935"
     transform="matrix(-0.91962511,-0.39279722,-0.39279722,0.91962511,0,0)" />
  <text
     xml:space="preserve"
     style="font-style:normal;font-weight:normal;font-size:22.5px;line-height:125%;font-family:sans-serif;letter-spacing:23.22999954px;word-spacing:0px;fill:#000000;fill-opacity:1;stroke:none;stroke-width:1px;stroke-linecap:butt;stroke-linejoin:miter;stroke-opacity:1"
     id="text4160"
     sodipodi:linespacing="125%"
     x="-760.17645"
     transform="matrix(-0.35939488,-0.93318558,0.93318558,-0.35939488,69.780296,355.93302)"
     y="-153.71393"><textPath
       xlink:href="#path4158"
       id="textPath4164"
       style="font-style:normal;font-variant:normal;font-weight:normal;font-stretch:normal;font-size:22.5px;font-family:Instruction;-inkscape-font-specification:Instruction;letter-spacing:23.22999954px">DZNSRKFUMPXC<tspan
   style="font-size:22.5px;letter-spacing:23.22999954px"
   id="tspan4140">A</tspan>YBQGVEWOJTLIH</textPath></text>
</svg>
