<?xml version="1.0" encoding="UTF-8" standalone="no"?>
<svg
   xmlns:dc="http://purl.org/dc/elements/1.1/"
   xmlns:cc="http://creativecommons.org/ns#"
   xmlns:rdf="http://www.w3.org/1999/02/22-rdf-syntax-ns#"
   xmlns:svg="http://www.w3.org/2000/svg"
   xmlns="http://www.w3.org/2000/svg"
   xmlns:sodipodi="http://sodipodi.sourceforge.net/DTD/sodipodi-0.dtd"
   xmlns:inkscape="http://www.inkscape.org/namespaces/inkscape"
   viewBox="0.00082 -3.51734 398.01971 753.51968"
   version="1.0"
   overflow="visible"
   id="svg2"
   inkscape:version="0.91 r13725"
   sodipodi:docname="gear-cutout.svg"
   width="112.33mm"
   height="212.66mm"
   style="overflow:visible">
  <metadata
     id="metadata1572">
    <rdf:RDF>
      <cc:Work
         rdf:about="">
        <dc:format>image/svg+xml</dc:format>
        <dc:type
           rdf:resource="http://purl.org/dc/dcmitype/StillImage" />
        <dc:title></dc:title>
      </cc:Work>
    </rdf:RDF>
  </metadata>
  <sodipodi:namedview
     pagecolor="#ffffff"
     bordercolor="#666666"
     borderopacity="1"
     objecttolerance="10"
     gridtolerance="10"
     guidetolerance="10"
     inkscape:pageopacity="0"
     inkscape:pageshadow="2"
     inkscape:window-width="1680"
     inkscape:window-height="997"
     id="namedview1570"
     showgrid="false"
     inkscape:document-units="mm"
     units="mm"
     fit-margin-left="6"
     fit-margin-top="6"
     fit-margin-bottom="6"
     fit-margin-right="6"
     inkscape:zoom="2.1001703"
     inkscape:cx="253.11926"
     inkscape:cy="535.91961"
     inkscape:window-x="-8"
     inkscape:window-y="-8"
     inkscape:window-maximized="1"
     inkscape:current-layer="svg2" />
  <defs
     id="defs4" />
  <path
     style="fill:none;fill-opacity:1;stroke:#000000;stroke-width:0.09074277;stroke-miterlimit:4;stroke-dasharray:none;stroke-opacity:1"
     d="m 21.306035,17.787845 355.409275,0 0,355.409275 -355.409275,0 z"
     id="rect5710"
     inkscape:connector-curvature="0" />
  <path
     style="fill:none;fill-opacity:1;stroke:#000000;stroke-width:0.09074277;stroke-miterlimit:4;stroke-dasharray:none;stroke-opacity:1"
     d="m 21.306035,373.28786 355.409275,0 0,355.40928 -355.409275,0 z"
     id="rect5712"
     inkscape:connector-curvature="0" />
  <g
     style="overflow:visible"
     id="g7754"
     transform="matrix(90.201207,0,0,90.201207,40.118993,354.38416)">
    <g
       transform="scale(1,-1)"
       id="draft"
       style="stroke-width:0.00087888">
      <g
         id="ID_0-7"
         style="color:#000000;fill:none;stroke:currentColor;stroke-width:0.00087888">
        <path
           id="path7748"
           d="M 3.32557,1.87937 3.33041,1.8793 3.33527,1.87909 3.34013,1.87876 3.345,1.87833 3.35476,1.87721 3.36454,1.87578 3.38415,1.87211 3.40381,1.86751 3.42349,1.86206 3.44319,1.85583 3.4629,1.84887 3.4826,1.84121 3.50229,1.83287 3.52195,1.8239 l 0,-0.12474 L 3.50229,1.69018 3.4826,1.68185 3.4629,1.67419 3.44319,1.66723 3.42349,1.661 3.40381,1.65555 3.38415,1.65094 3.36454,1.64728 3.35476,1.64585 3.345,1.64473 3.34013,1.6443 3.33527,1.64397 3.33041,1.64375 3.32557,1.64368 3.30832,1.50165 3.31301,1.50042 3.31767,1.49905 3.32232,1.49757 3.32694,1.49598 3.33615,1.49256 3.34531,1.48883 3.36347,1.48058 3.38145,1.4714 3.39925,1.4614 3.41689,1.45064 3.43436,1.43916 3.45166,1.42701 3.46878,1.41421 3.48572,1.40079 3.45587,1.27967 3.43463,1.27566 3.41352,1.27228 3.39256,1.26956 3.37176,1.26752 3.35114,1.26618 3.33072,1.2656 3.31054,1.26584 3.29062,1.26697 3.28078,1.26792 3.27104,1.26917 3.26621,1.26992 3.2614,1.27076 3.25664,1.27172 3.25192,1.27281 3.20118,1.13903 3.20544,1.13672 3.20964,1.13427 3.21379,1.13172 3.21791,1.12907 3.22603,1.12354 3.23402,1.11773 3.24968,1.10537 3.26494,1.09216 3.27984,1.07819 3.29439,1.06352 3.3086,1.0482 3.32249,1.03226 3.33605,1.01573 3.34929,0.99864 3.29132,0.88819 3.26974,0.88938 3.24843,0.89115 3.22743,0.89353 3.20674,0.89652 3.1864,0.90016 3.16644,0.90448 3.1469,0.90954 3.12784,0.91541 3.11851,0.91868 3.10935,0.92223 3.10483,0.92411 3.10037,0.92608 3.09597,0.92815 3.09165,0.93034 3.01037,0.81258 3.01395,0.80932 3.01745,0.80594 3.02087,0.80247 3.02423,0.79892 3.03079,0.7916 3.03716,0.78405 3.04941,0.7683 3.06107,0.75182 3.07219,0.73469 3.0828,0.71696 3.09294,0.69868 3.10261,0.67988 3.11182,0.66059 3.12058,0.64083 3.03787,0.54747 3.01719,0.55379 2.99693,0.5606 2.97711,0.56794 2.95774,0.57579 2.93886,0.58419 2.92051,0.59317 2.90275,0.60275 2.88564,0.61301 2.87737,0.61843 2.86932,0.62406 2.86539,0.62697 2.86153,0.62995 2.85775,0.63301 2.85408,0.63617 2.74699,0.54129 2.74968,0.53726 2.75227,0.53315 2.75476,0.52896 2.75717,0.5247 2.76179,0.51603 2.76617,0.50717 2.77429,0.48895 2.78167,0.47016 2.78836,0.45087 2.79443,0.43111 2.79989,0.41094 2.80478,0.39037 2.80911,0.36944 2.81289,0.34816 2.71023,0.2773 2.69167,0.28838 2.67363,0.29985 2.65614,0.31171 2.63921,0.32398 2.62289,0.33665 2.60723,0.34976 2.59227,0.36331 2.57812,0.37737 2.57139,0.38461 2.56492,0.392 2.5618,0.39577 2.55876,0.39958 2.55583,0.40346 2.55302,0.40741 2.42633,0.34091 2.42798,0.33636 2.42951,0.33174 2.43092,0.32708 2.43225,0.32237 2.43466,0.31285 2.43679,0.30319 2.44032,0.28356 2.44298,0.26355 2.44486,0.24321 2.44603,0.22258 2.44651,0.20169 2.44633,0.18055 2.44552,0.15919 2.4441,0.13762 2.32747,0.09339 2.3121,0.10859 2.29733,0.12404 2.28318,0.13975 2.26968,0.15571 2.25687,0.17192 2.24479,0.18839 2.23352,0.20513 2.22314,0.22217 2.21834,0.2308 2.21382,0.23953 2.21169,0.24394 2.20966,0.24837 2.20774,0.25283 2.20596,0.25734 2.06704,0.2231 2.06755,0.21828 2.06793,0.21343 2.06818,0.20856 2.06834,0.20368 2.06841,0.19385 2.06816,0.18397 2.06689,0.16406 2.06469,0.144 2.06165,0.1238 2.05784,0.10349 2.05331,0.08309 2.04808,0.06261 2.04218,0.04206 2.03564,0.02146 1.91181,0.00642 1.90053,0.02486 1.88988,0.0434 1.8799,0.06203 1.87062,0.08076 1.86206,0.09957 1.85428,0.11845 1.84734,0.1374 1.84134,0.15643 1.83874,0.16596 1.83644,0.17552 1.83543,0.1803 l -9.1e-4,0.00479 -8e-4,0.0048 -6.5e-4,0.0048 -0.14308,0 -6.5e-4,-0.0048 -8e-4,-0.0048 L 1.68763,0.1803 1.68661,0.17552 1.68432,0.16596 1.68172,0.15643 1.67572,0.1374 1.66878,0.11845 1.661,0.09957 1.65244,0.08076 1.64315,0.06203 1.63317,0.0434 1.62253,0.02486 1.61125,0.00642 1.48742,0.02146 1.48087,0.04206 1.47498,0.06261 1.46975,0.08309 1.46521,0.10349 1.4614,0.1238 1.45837,0.144 1.45616,0.16406 1.45489,0.18397 l -2.4e-4,0.00988 6e-5,0.00983 1.6e-4,0.00488 2.6e-4,0.00487 L 1.4555,0.21828 1.45602,0.2231 1.3171,0.25734 1.31532,0.25283 1.31339,0.24837 1.31136,0.24394 1.30923,0.23953 1.30472,0.2308 1.29991,0.22217 1.28953,0.20513 1.27826,0.18839 1.26618,0.17192 1.25337,0.15571 1.23988,0.13975 1.22573,0.12404 1.21096,0.10859 1.19559,0.09339 1.07896,0.13762 1.07753,0.15919 1.07673,0.18055 1.07655,0.20169 1.07703,0.22258 1.07819,0.24321 1.08007,0.26355 1.08274,0.28356 1.08627,0.30319 1.0884,0.31285 1.09081,0.32237 1.09213,0.32708 1.09355,0.33174 1.09507,0.33636 1.09673,0.34091 0.97003,0.40741 0.96723,0.40346 0.96429,0.39958 0.96126,0.39577 0.95814,0.392 0.95167,0.38461 0.94493,0.37737 0.93078,0.36331 0.91583,0.34976 0.90016,0.33665 0.88384,0.32398 0.86692,0.31171 0.84942,0.29985 0.83138,0.28838 0.81282,0.2773 0.71017,0.34816 0.71395,0.36944 0.71827,0.39037 0.72316,0.41094 0.72863,0.43111 0.73469,0.45087 0.74139,0.47016 0.74876,0.48895 0.75689,0.50717 0.76126,0.51603 0.76588,0.5247 0.7683,0.52896 0.77079,0.53315 0.77337,0.53726 0.77607,0.54129 0.66897,0.63617 0.6653,0.63301 0.66152,0.62995 0.65766,0.62697 0.65373,0.62406 0.64568,0.61843 0.63741,0.61301 0.62031,0.60275 0.60254,0.59317 0.58419,0.58419 0.56532,0.57579 0.54595,0.56794 0.52612,0.5606 0.50586,0.55379 0.48519,0.54747 0.40247,0.64083 0.41124,0.66059 0.42045,0.67988 0.43012,0.69868 0.44025,0.71696 0.45087,0.73469 0.46199,0.75182 0.47364,0.7683 0.48589,0.78405 0.49226,0.7916 0.49882,0.79892 0.50219,0.80247 0.50561,0.80594 0.5091,0.80932 0.51268,0.81258 0.4314,0.93034 0.42708,0.92815 0.42268,0.92608 0.41822,0.92411 0.41371,0.92223 0.40455,0.91868 0.39522,0.91541 0.37616,0.90954 0.35661,0.90448 0.33665,0.90016 0.31631,0.89652 0.29563,0.89353 0.27462,0.89115 0.25332,0.88938 0.23173,0.88819 0.17377,0.99864 0.187,1.01573 0.20056,1.03226 0.21445,1.0482 0.22866,1.06352 0.24321,1.07819 0.25811,1.09216 0.27337,1.10537 0.28903,1.11773 0.29703,1.12354 0.30515,1.12907 0.30926,1.13172 0.31342,1.13427 0.31762,1.13672 0.32188,1.13903 0.27114,1.27281 0.26642,1.27172 0.26165,1.27076 0.25685,1.26992 0.25202,1.26917 0.24227,1.26792 0.23243,1.26697 0.21252,1.26584 0.19233,1.2656 0.17192,1.26618 0.1513,1.26752 0.1305,1.26956 0.10953,1.27228 0.08842,1.27566 0.06718,1.27967 0.03733,1.40079 0.05428,1.41421 0.0714,1.42701 0.08869,1.43916 0.10616,1.45064 0.1238,1.4614 0.14161,1.4714 0.15959,1.48058 0.17775,1.48883 0.1869,1.49256 0.19611,1.49598 0.20074,1.49757 0.20538,1.49905 0.21005,1.50042 0.21473,1.50165 0.19749,1.64368 0.19264,1.64375 0.18779,1.64397 0.18292,1.6443 0.17805,1.64473 0.16829,1.64585 0.15851,1.64728 0.1389,1.65094 0.11925,1.65555 0.09957,1.661 0.07986,1.66723 0.06016,1.67419 0.04045,1.68185 0.02077,1.69018 0.0011,1.69916 l 0,0.12474 0.01967,0.00897 0.01968,0.00834 0.01971,0.00766 0.0197,0.00696 0.01971,0.00623 0.01968,0.00545 0.01965,0.0046 0.01961,0.00367 0.00978,0.00143 0.00976,0.00112 0.00487,4.3e-4 0.00487,3.3e-4 0.00485,2.1e-4 0.00485,7e-5 L 0.21473,2.02141 0.21005,2.02263 0.20538,2.024 0.20074,2.02549 0.19611,2.02707 0.1869,2.0305 0.17775,2.03423 0.15959,2.04248 0.14161,2.05165 0.1238,2.06165 0.10616,2.07242 0.08869,2.08389 0.0714,2.09604 0.05428,2.10884 0.03733,2.12227 0.06718,2.24338 0.08842,2.24739 0.10953,2.25077 0.1305,2.25349 0.1513,2.25554 0.17192,2.25687 0.19233,2.25745 0.21252,2.25722 0.23243,2.25608 0.24227,2.25513 0.25202,2.25389 0.25685,2.25314 0.26165,2.25229 0.26642,2.25134 0.27114,2.25025 0.32188,2.38403 0.31762,2.38634 0.31342,2.38879 0.30926,2.39134 0.30515,2.39398 0.29703,2.39951 0.28903,2.40533 0.27337,2.41768 0.25811,2.43089 0.24321,2.44486 0.22866,2.45954 0.21445,2.47486 0.20056,2.4908 0.187,2.50732 0.17377,2.52441 0.23173,2.63486 0.25332,2.63367 0.27462,2.6319 0.29563,2.62953 0.31631,2.62653 0.33665,2.62289 0.35661,2.61857 0.37616,2.61352 0.39522,2.60765 0.40455,2.60437 0.41371,2.60083 0.41822,2.59895 0.42268,2.59698 0.42708,2.59491 0.4314,2.59272 0.51268,2.71047 0.5091,2.71373 0.50561,2.71711 0.50219,2.72059 0.49882,2.72414 0.49226,2.73145 0.48589,2.73901 0.47364,2.75475 0.46199,2.77123 0.45087,2.78836 0.44025,2.80609 0.43012,2.82437 0.42045,2.84317 0.41124,2.86246 0.40247,2.88222 0.48519,2.97559 0.50586,2.96927 0.52612,2.96245 0.54595,2.95512 0.56532,2.94726 0.58419,2.93886 0.60254,2.92989 0.62031,2.9203 0.63741,2.91004 0.64568,2.90463 0.65373,2.89899 0.65766,2.89609 0.66152,2.89311 0.6653,2.89005 0.66897,2.88688 0.77607,2.98176 0.77337,2.98579 0.77079,2.98991 0.7683,2.9941 0.76588,2.99835 0.76126,3.00702 0.75689,3.01588 0.74876,3.0341 0.74139,3.05289 0.73469,3.07219 0.72863,3.09194 0.72316,3.11211 0.71827,3.13268 0.71395,3.15362 0.71017,3.1749 0.81282,3.24576 0.83138,3.23468 0.84942,3.22321 0.86692,3.21134 0.88384,3.19908 0.90016,3.1864 0.91583,3.1733 0.93078,3.15974 0.94493,3.14569 0.95167,3.13845 0.95814,3.13105 0.96126,3.12729 0.96429,3.12347 0.96723,3.1196 0.97003,3.11565 1.09673,3.18214 1.09507,3.1867 1.09355,3.19131 1.09213,3.19598 1.09081,3.20068 1.0884,3.21021 1.08627,3.21986 1.08274,3.23949 1.08007,3.2595 1.07819,3.27984 1.07703,3.30047 1.07655,3.32137 1.07673,3.3425 1.07753,3.36387 1.07896,3.38544 1.19559,3.42967 1.21096,3.41447 1.22573,3.39901 1.23988,3.38331 1.25337,3.36735 1.26618,3.35114 1.27826,3.33467 1.28953,3.31792 1.29991,3.30089 1.30472,3.29225 1.30923,3.28352 1.31136,3.27912 1.31339,3.27469 1.31532,3.27022 1.3171,3.26572 1.45602,3.29996 1.4555,3.30478 1.45513,3.30962 1.45487,3.31449 1.45471,3.31938 1.45465,3.3292 1.45489,3.33909 1.45616,3.35899 1.45837,3.37906 1.4614,3.39925 1.46521,3.41956 1.46975,3.43997 1.47498,3.46045 1.48087,3.481 1.48742,3.5016 1.61125,3.51663 1.62253,3.4982 1.63317,3.47966 1.64315,3.46102 1.65244,3.4423 1.661,3.42349 1.66878,3.40461 1.67572,3.38565 1.68172,3.36663 1.68432,3.35709 1.68661,3.34754 1.68763,3.34275 l 9.1e-4,-0.00479 8e-4,-0.00479 6.5e-4,-0.0048 0.14308,0 6.5e-4,0.0048 8e-4,0.00479 9.1e-4,0.00479 0.00101,0.00479 0.0023,0.00955 0.0026,0.00954 0.006,0.01902 L 1.85428,3.40461 1.86206,3.42349 1.87062,3.4423 1.8799,3.46102 1.88988,3.47966 1.90053,3.4982 1.91181,3.51663 2.03564,3.5016 2.04218,3.481 2.04808,3.46045 2.05331,3.43997 2.05784,3.41956 2.06165,3.39925 2.06469,3.37906 2.06689,3.35899 2.06816,3.33909 2.06841,3.3292 2.06834,3.31938 2.06818,3.31449 2.06793,3.30962 2.06755,3.30478 2.06704,3.29996 2.20596,3.26572 l 0.00178,0.0045 0.00192,0.00447 0.00203,0.00443 0.00213,0.0044 0.00452,0.00873 0.0048,0.00864 0.01038,0.01703 0.01127,0.01675 0.01208,0.01647 0.01281,0.01621 0.0135,0.01596 0.01415,0.0157 L 2.3121,3.41447 2.32747,3.42967 2.4441,3.38544 2.44552,3.36387 2.44633,3.3425 2.44651,3.32137 2.44603,3.30047 2.44486,3.27984 2.44298,3.2595 2.44032,3.23949 2.43679,3.21986 2.43466,3.21021 2.43225,3.20068 2.43092,3.19598 2.42951,3.19131 2.42798,3.1867 2.42633,3.18214 2.55302,3.11565 2.55583,3.1196 2.55876,3.12347 2.5618,3.12729 2.56492,3.13105 2.57139,3.13845 2.57812,3.14569 2.59227,3.15974 2.60723,3.1733 2.62289,3.1864 2.63921,3.19908 2.65614,3.21134 2.67363,3.22321 2.69167,3.23468 2.71023,3.24576 2.81289,3.1749 2.80911,3.15362 2.80478,3.13268 2.79989,3.11211 2.79443,3.09194 2.78836,3.07219 2.78167,3.05289 2.77429,3.0341 2.76617,3.01588 2.76179,3.00702 2.75717,2.99835 2.75476,2.9941 2.75227,2.98991 2.74968,2.98579 2.74699,2.98176 2.85408,2.88688 2.85775,2.89005 2.86153,2.89311 2.86539,2.89609 2.86932,2.89899 2.87737,2.90463 2.88564,2.91004 2.90275,2.9203 2.92051,2.92989 2.93886,2.93886 2.95774,2.94726 2.97711,2.95512 2.99693,2.96245 3.01719,2.96927 3.03787,2.97559 3.12058,2.88222 3.11182,2.86246 3.10261,2.84317 3.09294,2.82437 3.0828,2.80609 3.07219,2.78836 3.06107,2.77123 3.04941,2.75475 3.03716,2.73901 3.03079,2.73145 3.02423,2.72414 3.02087,2.72059 3.01745,2.71711 3.01395,2.71373 3.01037,2.71047 3.09165,2.59272 3.09597,2.59491 3.10037,2.59698 3.10483,2.59895 3.10935,2.60083 3.11851,2.60437 3.12784,2.60765 3.1469,2.61352 3.16644,2.61857 3.1864,2.62289 3.20674,2.62653 3.22743,2.62953 3.24843,2.6319 3.26974,2.63367 3.29132,2.63486 3.34929,2.52441 3.33605,2.50732 3.32249,2.4908 3.3086,2.47486 3.29439,2.45954 3.27984,2.44486 3.26494,2.43089 3.24968,2.41768 3.23402,2.40533 3.22603,2.39951 3.21791,2.39398 3.21379,2.39134 3.20964,2.38879 3.20544,2.38634 3.20118,2.38403 3.25192,2.25025 3.25664,2.25134 3.2614,2.25229 3.26621,2.25314 3.27104,2.25389 3.28078,2.25513 3.29062,2.25608 3.31054,2.25722 3.33072,2.25745 3.35114,2.25687 3.37176,2.25554 3.39256,2.25349 3.41352,2.25077 3.43463,2.24739 3.45587,2.24338 3.48572,2.12227 3.46878,2.10884 3.45166,2.09604 3.43436,2.08389 3.41689,2.07242 3.39925,2.06165 3.38145,2.05165 3.36347,2.04248 3.34531,2.03423 3.33615,2.0305 3.32694,2.02707 3.32232,2.02549 3.31767,2.024 3.31301,2.02263 3.30832,2.02141 Z"
           inkscape:connector-curvature="0" />
      </g>
    </g>
  </g>
</svg>
