<?xml version="1.0" encoding="UTF-8" standalone="no"?>
<svg
   xmlns:dc="http://purl.org/dc/elements/1.1/"
   xmlns:cc="http://creativecommons.org/ns#"
   xmlns:rdf="http://www.w3.org/1999/02/22-rdf-syntax-ns#"
   xmlns:svg="http://www.w3.org/2000/svg"
   xmlns="http://www.w3.org/2000/svg"
   xmlns:sodipodi="http://sodipodi.sourceforge.net/DTD/sodipodi-0.dtd"
   xmlns:inkscape="http://www.inkscape.org/namespaces/inkscape"
   version="1.1"
   width="202.61926mm"
   height="100.9254mm"
   viewBox="0 0 717.94225 357.60968"
   id="svg4978"
   inkscape:version="0.92.1 r15371"
   sodipodi:docname="right_rectangular_drawer.svg">
  <metadata
     id="metadata5008">
    <rdf:RDF>
      <cc:Work
         rdf:about="">
        <dc:format>image/svg+xml</dc:format>
        <dc:type
           rdf:resource="http://purl.org/dc/dcmitype/StillImage" />
        <dc:title></dc:title>
      </cc:Work>
    </rdf:RDF>
  </metadata>
  <defs
     id="defs5006" />
  <sodipodi:namedview
     pagecolor="#ffffff"
     bordercolor="#666666"
     borderopacity="1"
     objecttolerance="10"
     gridtolerance="10"
     guidetolerance="10"
     inkscape:pageopacity="0"
     inkscape:pageshadow="2"
     inkscape:window-width="1680"
     inkscape:window-height="997"
     id="namedview5004"
     showgrid="false"
     inkscape:document-units="mm"
     fit-margin-top="6"
     fit-margin-left="6"
     fit-margin-right="6"
     fit-margin-bottom="6"
     units="mm"
     inkscape:zoom="0.79506173"
     inkscape:cx="629.85752"
     inkscape:cy="12.655474"
     inkscape:window-x="-8"
     inkscape:window-y="-8"
     inkscape:window-maximized="1"
     inkscape:current-layer="layer1" />
  <!-- Front-->
  <!-- Back-->
  <!-- Left-->
  <!-- Right-->
  <!-- Top-->
  <!-- Bottom-->
  <g
     inkscape:groupmode="layer"
     id="layer1"
     inkscape:label="Cut">
    <path
       inkscape:connector-curvature="0"
       id="polygon4986"
       d="m 246.39484,246.30484 h 24.75 v -11.25 h 24.75 v 11.25 h 24.75 v -11.25 h 24.75 v 11.25 h 13.49609 v -225 h -13.49609 v 11.25 h -24.75 v -11.25 h -24.75 v 11.25 h -24.75 v -11.25 h -24.75 v 28.125 h 11.25 v 28.125 h -11.25 v 22.5 h 11.25 v 22.5 h -11.25 v 22.5 h 11.25 v 22.5 h -11.25 v 22.5 h 11.25 v 28.125 h -11.25 z"
       style="fill:none;stroke:#000000;stroke-width:0.09" />
    <path
       inkscape:connector-curvature="0"
       id="polygon4990"
       d="m 471.56703,325.05483 h 24.75 v 11.25 h 24.75 v -11.25 h 24.75 v 11.25 h 24.75 v -11.25 h 13.49023 l 0,-292.5 h -13.49023 v -11.25 h -24.75 v 11.25 h -24.75 v -11.25 h -24.75 v 11.25 h -24.75 v 16.875 h 11.25 v 28.125 h -11.25 v 22.5 h 11.25 v 22.5 h -11.25 v 22.5 h 11.25 v 22.5 h -11.25 v 22.5 h 11.25 v 22.5 h -11.25 v 22.5 h 11.25 v 22.5 h -11.25 v 22.5 h 11.25 l 0,28.125 h -11.25 z"
       style="fill:none;stroke:#000000;stroke-width:0.09" />
    <path
       inkscape:connector-curvature="0"
       id="polygon4998"
       d="m 32.554843,32.554843 h 16.875 v -11.25 h 28.125 v 11.25 h 22.499997 v -11.25 h 22.5 v 11.25 h 22.5 v -11.25 h 22.5 v 11.25 h 22.5 v -11.25 h 28.125 v 11.25 h 16.875 v 16.875 h 11.25 v 28.125 h -11.25 v 22.499997 h 11.25 v 22.5 h -11.25 v 22.5 h 11.25 v 22.5 h -11.25 v 22.5 h 11.25 v 22.5 h -11.25 v 22.5 h 11.25 v 22.5 h -11.25 v 22.5 h 11.25 v 28.125 h -11.25 v 16.875 h -16.875 v 11.25 h -28.125 v -11.25 h -22.5 v 11.25 h -22.5 v -11.25 h -22.5 v 11.25 h -22.5 v -11.25 H 77.554843 v 11.25 h -28.125 v -11.25 h -16.875 v -16.875 h -11.25 v -28.125 h 11.25 v -22.5 h -11.25 v -22.5 h 11.25 v -22.5 h -11.25 v -22.5 h 11.25 v -22.5 h -11.25 v -22.5 h 11.25 v -22.5 h -11.25 v -22.5 h 11.25 V 77.554843 h -11.25 v -28.125 h 11.25 z"
       style="fill:none;stroke:#000000;stroke-width:0.09" />
    <path
       inkscape:connector-curvature="0"
       style="fill:none;stroke:#000000;stroke-width:0.09"
       d="m 358.98093,246.30484 13.49609,0 0,-11.25 24.75,0 0,11.25 24.75,0 0,-11.25 24.75,0 0,11.25 24.75001,0 0,-28.125 -11.25,0 0,-28.125 11.25,0 0,-22.5 -11.25,0 0,-22.5 11.25,0 0,-22.5 -11.25,0 0,-22.5 11.25,0 0,-22.499997 -11.25,0 0,-28.125 11.25,0 0,-28.125 -24.75001,0 0,11.25 -24.75,0 0,-11.25 -24.75,0 0,11.25 -24.75,0 0,-11.25 -13.49609,0"
       id="polygon4986-4"
       sodipodi:nodetypes="cccccccccccccccccccccccccccccccccccc" />
    <path
       inkscape:connector-curvature="0"
       style="fill:none;stroke:#000000;stroke-width:0.09"
       d="m 584.14724,325.05484 13.4903,0 0,11.25 24.75,0 0,-11.25 24.75,0 0,11.25 24.75,0 0,-11.25 24.7499,0 0,-16.875 -11.25,0 0,-28.125 11.25,0 0,-22.5 -11.25,0 0,-22.5 11.25,0 0,-22.5 -11.25,0 0,-22.5 11.25,0 0,-22.5 -11.25,0 0,-22.5 11.25,0 0,-22.5 -11.25,0 0,-22.5 11.25,0 0,-22.499997 -11.25,0 0,-28.125 11.25,0 0,-16.875 -24.7499,0 0,-11.25 -24.75,0 0,11.25 -24.75,0 0,-11.25 -24.75,0 0,11.25 -13.4903,0"
       id="polygon4990-2"
       sodipodi:nodetypes="cccccccccccccccccccccccccccccccccccccccccccc" />
  </g>
</svg>
