  0
SECTION
  2
HEADER
  9
$ACADVER
  1
AC1014
  9
$HANDSEED
  5
FFFF
  9
$MEASUREMENT
 70
     1
  0
ENDSEC
  0
SECTION
  2
TABLES
  0
TABLE
  2
VPORT
  5
8
330
0
100
AcDbSymbolTable
 70
     4
  0
VPORT
  5
2E
330
8
100
AcDbSymbolTableRecord
100
AcDbViewportTableRecord
  2
*ACTIVE
 70
     0
 10
0.0
 20
0.0
 11
1.0
 21
1.0
 12
210.0
 22
148.5
 13
0.0
 23
0.0
 14
10.0
 24
10.0
 15
10.0
 25
10.0
 16
0.0
 26
0.0
 36
1.0
 17
0.0
 27
0.0
 37
0.0
 40
341.0
 41
1.24
 42
50.0
 43
0.0
 44
0.0
 50
0.0
 51
0.0
 71
     0
 72
   100
 73
     1
 74
     3
 75
     0
 76
     0
 77
     0
 78
     0
  0
ENDTAB
  0
TABLE
  2
LTYPE
  5
5
330
0
100
AcDbSymbolTable
 70
     1
  0
LTYPE
  5
14
330
5
100
AcDbSymbolTableRecord
100
AcDbLinetypeTableRecord
  2
BYBLOCK
 70
     0
  3

 72
    65
 73
     0
 40
0.0
  0
LTYPE
  5
15
330
5
100
AcDbSymbolTableRecord
100
AcDbLinetypeTableRecord
  2
BYLAYER
 70
     0
  3

 72
    65
 73
     0
 40
0.0
  0
LTYPE
  5
16
330
5
100
AcDbSymbolTableRecord
100
AcDbLinetypeTableRecord
  2
CONTINUOUS
 70
     0
  3
Solid line
 72
    65
 73
     0
 40
0.0
  0
ENDTAB
  0
TABLE
  2
LAYER
  5
2
100
AcDbSymbolTable
 70
2
  0
LAYER
  5
50
100
AcDbSymbolTableRecord
100
AcDbLayerTableRecord
  2
0
 70
0
  6
CONTINUOUS
  0
LAYER
  5
51
100
AcDbSymbolTableRecord
100
AcDbLayerTableRecord
  2
Cut
 70
0
  6
CONTINUOUS
  0
ENDTAB
  0
TABLE
  2
STYLE
  5
3
330
0
100
AcDbSymbolTable
 70
     1
  0
STYLE
  5
11
330
3
100
AcDbSymbolTableRecord
100
AcDbTextStyleTableRecord
  2
STANDARD
 70
     0
 40
0.0
 41
1.0
 50
0.0
 71
     0
 42
2.5
  3
txt
  4

  0
ENDTAB
  0
TABLE
  2
VIEW
  5
6
330
0
100
AcDbSymbolTable
 70
     0
  0
ENDTAB
  0
TABLE
  2
UCS
  5
7
330
0
100
AcDbSymbolTable
 70
     0
  0
ENDTAB
  0
TABLE
  2
APPID
  5
9
330
0
100
AcDbSymbolTable
 70
     2
  0
APPID
  5
12
330
9
100
AcDbSymbolTableRecord
100
AcDbRegAppTableRecord
  2
ACAD
 70
     0
  0
ENDTAB
  0
TABLE
  2
DIMSTYLE
  5
A
330
0
100
AcDbSymbolTable
 70
     1
  0
DIMSTYLE
105
27
330
A
100
AcDbSymbolTableRecord
100
AcDbDimStyleTableRecord
  2
ISO-25
 70
     0
  3

  4

  5

  6

  7

 40
1.0
 41
2.5
 42
0.625
 43
3.75
 44
1.25
 45
0.0
 46
0.0
 47
0.0
 48
0.0
140
2.5
141
2.5
142
0.0
143
0.03937007874016
144
1.0
145
0.0
146
1.0
147
0.625
 71
     0
 72
     0
 73
     0
 74
     0
 75
     0
 76
     0
 77
     1
 78
     8
170
     0
171
     3
172
     1
173
     0
174
     0
175
     0
176
     0
177
     0
178
     0
270
     2
271
     2
272
     2
273
     2
274
     3
340
11
275
     0
280
     0
281
     0
282
     0
283
     0
284
     8
285
     0
286
     0
287
     3
288
     0
  0
ENDTAB
  0
TABLE
  2
BLOCK_RECORD
  5
1
330
0
100
AcDbSymbolTable
 70
     1
  0
BLOCK_RECORD
  5
1F
330
1
100
AcDbSymbolTableRecord
100
AcDbBlockTableRecord
  2
*MODEL_SPACE
  0
BLOCK_RECORD
  5
1B
330
1
100
AcDbSymbolTableRecord
100
AcDbBlockTableRecord
  2
*PAPER_SPACE
  0
ENDTAB
  0
ENDSEC
  0
SECTION
  2
BLOCKS
  0
BLOCK
  5
20
330
1F
100
AcDbEntity
  8
0
100
AcDbBlockBegin
  2
*MODEL_SPACE
 70
     0
 10
0.0
 20
0.0
 30
0.0
  3
*MODEL_SPACE
  1

  0
ENDBLK
  5
21
330
1F
100
AcDbEntity
  8
0
100
AcDbBlockEnd
  0
BLOCK
  5
1C
330
1B
100
AcDbEntity
 67
     1
  8
0
100
AcDbBlockBegin
  2
*PAPER_SPACE
  1

  0
ENDBLK
  5
1D
330
1B
100
AcDbEntity
 67
     1
  8
0
100
AcDbBlockEnd
  0
ENDSEC
  0
SECTION
  2
ENTITIES
  0
LINE
  5
100
100
AcDbEntity
  8
Cut
 62
7
100
AcDbLine
 10
65.191968
 20
35.757244
 30
0.0
 11
71.740406
 21
35.757244
 31
0.0
  0
LINE
  5
101
100
AcDbEntity
  8
Cut
 62
7
100
AcDbLine
 10
71.740406
 20
35.757244
 30
0.0
 11
71.740406
 21
38.733807
 31
0.0
  0
LINE
  5
102
100
AcDbEntity
  8
Cut
 62
7
100
AcDbLine
 10
71.740406
 20
38.733807
 30
0.0
 11
78.288843
 21
38.733807
 31
0.0
  0
LINE
  5
103
100
AcDbEntity
  8
Cut
 62
7
100
AcDbLine
 10
78.288843
 20
38.733807
 30
0.0
 11
78.288843
 21
35.757244
 31
0.0
  0
LINE
  5
104
100
AcDbEntity
  8
Cut
 62
7
100
AcDbLine
 10
78.288843
 20
35.757244
 30
0.0
 11
84.837281
 21
35.757244
 31
0.0
  0
LINE
  5
105
100
AcDbEntity
  8
Cut
 62
7
100
AcDbLine
 10
84.837281
 20
35.757244
 30
0.0
 11
84.837281
 21
38.733807
 31
0.0
  0
LINE
  5
106
100
AcDbEntity
  8
Cut
 62
7
100
AcDbLine
 10
84.837281
 20
38.733807
 30
0.0
 11
91.385718
 21
38.733807
 31
0.0
  0
LINE
  5
107
100
AcDbEntity
  8
Cut
 62
7
100
AcDbLine
 10
91.385718
 20
38.733807
 30
0.0
 11
91.385718
 21
35.757244
 31
0.0
  0
LINE
  5
108
100
AcDbEntity
  8
Cut
 62
7
100
AcDbLine
 10
91.385718
 20
35.757244
 30
0.0
 11
94.956559
 21
35.757244
 31
0.0
  0
LINE
  5
109
100
AcDbEntity
  8
Cut
 62
7
100
AcDbLine
 10
94.956559
 20
35.757244
 30
0.0
 11
94.956559
 21
95.288494
 31
0.0
  0
LINE
  5
10a
100
AcDbEntity
  8
Cut
 62
7
100
AcDbLine
 10
94.956559
 20
95.288494
 30
0.0
 11
91.385718
 21
95.288494
 31
0.0
  0
LINE
  5
10b
100
AcDbEntity
  8
Cut
 62
7
100
AcDbLine
 10
91.385718
 20
95.288494
 30
0.0
 11
91.385718
 21
92.311932
 31
0.0
  0
LINE
  5
10c
100
AcDbEntity
  8
Cut
 62
7
100
AcDbLine
 10
91.385718
 20
92.311932
 30
0.0
 11
84.837281
 21
92.311932
 31
0.0
  0
LINE
  5
10d
100
AcDbEntity
  8
Cut
 62
7
100
AcDbLine
 10
84.837281
 20
92.311932
 30
0.0
 11
84.837281
 21
95.288494
 31
0.0
  0
LINE
  5
10e
100
AcDbEntity
  8
Cut
 62
7
100
AcDbLine
 10
84.837281
 20
95.288494
 30
0.0
 11
78.288843
 21
95.288494
 31
0.0
  0
LINE
  5
10f
100
AcDbEntity
  8
Cut
 62
7
100
AcDbLine
 10
78.288843
 20
95.288494
 30
0.0
 11
78.288843
 21
92.311932
 31
0.0
  0
LINE
  5
110
100
AcDbEntity
  8
Cut
 62
7
100
AcDbLine
 10
78.288843
 20
92.311932
 30
0.0
 11
71.740406
 21
92.311932
 31
0.0
  0
LINE
  5
111
100
AcDbEntity
  8
Cut
 62
7
100
AcDbLine
 10
71.740406
 20
92.311932
 30
0.0
 11
71.740406
 21
95.288494
 31
0.0
  0
LINE
  5
112
100
AcDbEntity
  8
Cut
 62
7
100
AcDbLine
 10
71.740406
 20
95.288494
 30
0.0
 11
65.191968
 21
95.288494
 31
0.0
  0
LINE
  5
113
100
AcDbEntity
  8
Cut
 62
7
100
AcDbLine
 10
65.191968
 20
95.288494
 30
0.0
 11
65.191968
 21
87.847088
 31
0.0
  0
LINE
  5
114
100
AcDbEntity
  8
Cut
 62
7
100
AcDbLine
 10
65.191968
 20
87.847088
 30
0.0
 11
68.168531
 21
87.847088
 31
0.0
  0
LINE
  5
115
100
AcDbEntity
  8
Cut
 62
7
100
AcDbLine
 10
68.168531
 20
87.847088
 30
0.0
 11
68.168531
 21
80.405682
 31
0.0
  0
LINE
  5
116
100
AcDbEntity
  8
Cut
 62
7
100
AcDbLine
 10
68.168531
 20
80.405682
 30
0.0
 11
65.191968
 21
80.405682
 31
0.0
  0
LINE
  5
117
100
AcDbEntity
  8
Cut
 62
7
100
AcDbLine
 10
65.191968
 20
80.405682
 30
0.0
 11
65.191968
 21
74.452557
 31
0.0
  0
LINE
  5
118
100
AcDbEntity
  8
Cut
 62
7
100
AcDbLine
 10
65.191968
 20
74.452557
 30
0.0
 11
68.168531
 21
74.452557
 31
0.0
  0
LINE
  5
119
100
AcDbEntity
  8
Cut
 62
7
100
AcDbLine
 10
68.168531
 20
74.452557
 30
0.0
 11
68.168531
 21
68.499432
 31
0.0
  0
LINE
  5
11a
100
AcDbEntity
  8
Cut
 62
7
100
AcDbLine
 10
68.168531
 20
68.499432
 30
0.0
 11
65.191968
 21
68.499432
 31
0.0
  0
LINE
  5
11b
100
AcDbEntity
  8
Cut
 62
7
100
AcDbLine
 10
65.191968
 20
68.499432
 30
0.0
 11
65.191968
 21
62.546307
 31
0.0
  0
LINE
  5
11c
100
AcDbEntity
  8
Cut
 62
7
100
AcDbLine
 10
65.191968
 20
62.546307
 30
0.0
 11
68.168531
 21
62.546307
 31
0.0
  0
LINE
  5
11d
100
AcDbEntity
  8
Cut
 62
7
100
AcDbLine
 10
68.168531
 20
62.546307
 30
0.0
 11
68.168531
 21
56.593182
 31
0.0
  0
LINE
  5
11e
100
AcDbEntity
  8
Cut
 62
7
100
AcDbLine
 10
68.168531
 20
56.593182
 30
0.0
 11
65.191968
 21
56.593182
 31
0.0
  0
LINE
  5
11f
100
AcDbEntity
  8
Cut
 62
7
100
AcDbLine
 10
65.191968
 20
56.593182
 30
0.0
 11
65.191968
 21
50.640057
 31
0.0
  0
LINE
  5
120
100
AcDbEntity
  8
Cut
 62
7
100
AcDbLine
 10
65.191968
 20
50.640057
 30
0.0
 11
68.168531
 21
50.640057
 31
0.0
  0
LINE
  5
121
100
AcDbEntity
  8
Cut
 62
7
100
AcDbLine
 10
68.168531
 20
50.640057
 30
0.0
 11
68.168531
 21
43.198651
 31
0.0
  0
LINE
  5
122
100
AcDbEntity
  8
Cut
 62
7
100
AcDbLine
 10
68.168531
 20
43.198651
 30
0.0
 11
65.191968
 21
43.198651
 31
0.0
  0
LINE
  5
123
100
AcDbEntity
  8
Cut
 62
7
100
AcDbLine
 10
65.191968
 20
43.198651
 30
0.0
 11
65.191968
 21
35.757244
 31
0.0
  0
LINE
  5
124
100
AcDbEntity
  8
Cut
 62
7
100
AcDbLine
 10
124.768777
 20
14.921310
 30
0.0
 11
131.317214
 21
14.921310
 31
0.0
  0
LINE
  5
125
100
AcDbEntity
  8
Cut
 62
7
100
AcDbLine
 10
131.317214
 20
14.921310
 30
0.0
 11
131.317214
 21
11.944747
 31
0.0
  0
LINE
  5
126
100
AcDbEntity
  8
Cut
 62
7
100
AcDbLine
 10
131.317214
 20
11.944747
 30
0.0
 11
137.865652
 21
11.944747
 31
0.0
  0
LINE
  5
127
100
AcDbEntity
  8
Cut
 62
7
100
AcDbLine
 10
137.865652
 20
11.944747
 30
0.0
 11
137.865652
 21
14.921310
 31
0.0
  0
LINE
  5
128
100
AcDbEntity
  8
Cut
 62
7
100
AcDbLine
 10
137.865652
 20
14.921310
 30
0.0
 11
144.414089
 21
14.921310
 31
0.0
  0
LINE
  5
129
100
AcDbEntity
  8
Cut
 62
7
100
AcDbLine
 10
144.414089
 20
14.921310
 30
0.0
 11
144.414089
 21
11.944747
 31
0.0
  0
LINE
  5
12a
100
AcDbEntity
  8
Cut
 62
7
100
AcDbLine
 10
144.414089
 20
11.944747
 30
0.0
 11
150.962527
 21
11.944747
 31
0.0
  0
LINE
  5
12b
100
AcDbEntity
  8
Cut
 62
7
100
AcDbLine
 10
150.962527
 20
11.944747
 30
0.0
 11
150.962527
 21
14.921310
 31
0.0
  0
LINE
  5
12c
100
AcDbEntity
  8
Cut
 62
7
100
AcDbLine
 10
150.962527
 20
14.921310
 30
0.0
 11
154.531817
 21
14.921310
 31
0.0
  0
LINE
  5
12d
100
AcDbEntity
  8
Cut
 62
7
100
AcDbLine
 10
154.531817
 20
14.921310
 30
0.0
 11
154.531817
 21
92.311935
 31
0.0
  0
LINE
  5
12e
100
AcDbEntity
  8
Cut
 62
7
100
AcDbLine
 10
154.531817
 20
92.311935
 30
0.0
 11
150.962527
 21
92.311935
 31
0.0
  0
LINE
  5
12f
100
AcDbEntity
  8
Cut
 62
7
100
AcDbLine
 10
150.962527
 20
92.311935
 30
0.0
 11
150.962527
 21
95.288497
 31
0.0
  0
LINE
  5
130
100
AcDbEntity
  8
Cut
 62
7
100
AcDbLine
 10
150.962527
 20
95.288497
 30
0.0
 11
144.414089
 21
95.288497
 31
0.0
  0
LINE
  5
131
100
AcDbEntity
  8
Cut
 62
7
100
AcDbLine
 10
144.414089
 20
95.288497
 30
0.0
 11
144.414089
 21
92.311935
 31
0.0
  0
LINE
  5
132
100
AcDbEntity
  8
Cut
 62
7
100
AcDbLine
 10
144.414089
 20
92.311935
 30
0.0
 11
137.865652
 21
92.311935
 31
0.0
  0
LINE
  5
133
100
AcDbEntity
  8
Cut
 62
7
100
AcDbLine
 10
137.865652
 20
92.311935
 30
0.0
 11
137.865652
 21
95.288497
 31
0.0
  0
LINE
  5
134
100
AcDbEntity
  8
Cut
 62
7
100
AcDbLine
 10
137.865652
 20
95.288497
 30
0.0
 11
131.317214
 21
95.288497
 31
0.0
  0
LINE
  5
135
100
AcDbEntity
  8
Cut
 62
7
100
AcDbLine
 10
131.317214
 20
95.288497
 30
0.0
 11
131.317214
 21
92.311935
 31
0.0
  0
LINE
  5
136
100
AcDbEntity
  8
Cut
 62
7
100
AcDbLine
 10
131.317214
 20
92.311935
 30
0.0
 11
124.768777
 21
92.311935
 31
0.0
  0
LINE
  5
137
100
AcDbEntity
  8
Cut
 62
7
100
AcDbLine
 10
124.768777
 20
92.311935
 30
0.0
 11
124.768777
 21
87.847091
 31
0.0
  0
LINE
  5
138
100
AcDbEntity
  8
Cut
 62
7
100
AcDbLine
 10
124.768777
 20
87.847091
 30
0.0
 11
127.745339
 21
87.847091
 31
0.0
  0
LINE
  5
139
100
AcDbEntity
  8
Cut
 62
7
100
AcDbLine
 10
127.745339
 20
87.847091
 30
0.0
 11
127.745339
 21
80.405685
 31
0.0
  0
LINE
  5
13a
100
AcDbEntity
  8
Cut
 62
7
100
AcDbLine
 10
127.745339
 20
80.405685
 30
0.0
 11
124.768777
 21
80.405685
 31
0.0
  0
LINE
  5
13b
100
AcDbEntity
  8
Cut
 62
7
100
AcDbLine
 10
124.768777
 20
80.405685
 30
0.0
 11
124.768777
 21
74.452560
 31
0.0
  0
LINE
  5
13c
100
AcDbEntity
  8
Cut
 62
7
100
AcDbLine
 10
124.768777
 20
74.452560
 30
0.0
 11
127.745339
 21
74.452560
 31
0.0
  0
LINE
  5
13d
100
AcDbEntity
  8
Cut
 62
7
100
AcDbLine
 10
127.745339
 20
74.452560
 30
0.0
 11
127.745339
 21
68.499435
 31
0.0
  0
LINE
  5
13e
100
AcDbEntity
  8
Cut
 62
7
100
AcDbLine
 10
127.745339
 20
68.499435
 30
0.0
 11
124.768777
 21
68.499435
 31
0.0
  0
LINE
  5
13f
100
AcDbEntity
  8
Cut
 62
7
100
AcDbLine
 10
124.768777
 20
68.499435
 30
0.0
 11
124.768777
 21
62.546310
 31
0.0
  0
LINE
  5
140
100
AcDbEntity
  8
Cut
 62
7
100
AcDbLine
 10
124.768777
 20
62.546310
 30
0.0
 11
127.745339
 21
62.546310
 31
0.0
  0
LINE
  5
141
100
AcDbEntity
  8
Cut
 62
7
100
AcDbLine
 10
127.745339
 20
62.546310
 30
0.0
 11
127.745339
 21
56.593185
 31
0.0
  0
LINE
  5
142
100
AcDbEntity
  8
Cut
 62
7
100
AcDbLine
 10
127.745339
 20
56.593185
 30
0.0
 11
124.768777
 21
56.593185
 31
0.0
  0
LINE
  5
143
100
AcDbEntity
  8
Cut
 62
7
100
AcDbLine
 10
124.768777
 20
56.593185
 30
0.0
 11
124.768777
 21
50.640060
 31
0.0
  0
LINE
  5
144
100
AcDbEntity
  8
Cut
 62
7
100
AcDbLine
 10
124.768777
 20
50.640060
 30
0.0
 11
127.745339
 21
50.640060
 31
0.0
  0
LINE
  5
145
100
AcDbEntity
  8
Cut
 62
7
100
AcDbLine
 10
127.745339
 20
50.640060
 30
0.0
 11
127.745339
 21
44.686935
 31
0.0
  0
LINE
  5
146
100
AcDbEntity
  8
Cut
 62
7
100
AcDbLine
 10
127.745339
 20
44.686935
 30
0.0
 11
124.768777
 21
44.686935
 31
0.0
  0
LINE
  5
147
100
AcDbEntity
  8
Cut
 62
7
100
AcDbLine
 10
124.768777
 20
44.686935
 30
0.0
 11
124.768777
 21
38.733810
 31
0.0
  0
LINE
  5
148
100
AcDbEntity
  8
Cut
 62
7
100
AcDbLine
 10
124.768777
 20
38.733810
 30
0.0
 11
127.745339
 21
38.733810
 31
0.0
  0
LINE
  5
149
100
AcDbEntity
  8
Cut
 62
7
100
AcDbLine
 10
127.745339
 20
38.733810
 30
0.0
 11
127.745339
 21
32.780685
 31
0.0
  0
LINE
  5
14a
100
AcDbEntity
  8
Cut
 62
7
100
AcDbLine
 10
127.745339
 20
32.780685
 30
0.0
 11
124.768777
 21
32.780685
 31
0.0
  0
LINE
  5
14b
100
AcDbEntity
  8
Cut
 62
7
100
AcDbLine
 10
124.768777
 20
32.780685
 30
0.0
 11
124.768777
 21
26.827560
 31
0.0
  0
LINE
  5
14c
100
AcDbEntity
  8
Cut
 62
7
100
AcDbLine
 10
124.768777
 20
26.827560
 30
0.0
 11
127.745339
 21
26.827560
 31
0.0
  0
LINE
  5
14d
100
AcDbEntity
  8
Cut
 62
7
100
AcDbLine
 10
127.745339
 20
26.827560
 30
0.0
 11
127.745339
 21
19.386153
 31
0.0
  0
LINE
  5
14e
100
AcDbEntity
  8
Cut
 62
7
100
AcDbLine
 10
127.745339
 20
19.386153
 30
0.0
 11
124.768777
 21
19.386153
 31
0.0
  0
LINE
  5
14f
100
AcDbEntity
  8
Cut
 62
7
100
AcDbLine
 10
124.768777
 20
19.386153
 30
0.0
 11
124.768777
 21
14.921310
 31
0.0
  0
LINE
  5
150
100
AcDbEntity
  8
Cut
 62
7
100
AcDbLine
 10
8.613469
 20
92.311931
 30
0.0
 11
13.078313
 21
92.311931
 31
0.0
  0
LINE
  5
151
100
AcDbEntity
  8
Cut
 62
7
100
AcDbLine
 10
13.078313
 20
92.311931
 30
0.0
 11
13.078313
 21
95.288494
 31
0.0
  0
LINE
  5
152
100
AcDbEntity
  8
Cut
 62
7
100
AcDbLine
 10
13.078313
 20
95.288494
 30
0.0
 11
20.519719
 21
95.288494
 31
0.0
  0
LINE
  5
153
100
AcDbEntity
  8
Cut
 62
7
100
AcDbLine
 10
20.519719
 20
95.288494
 30
0.0
 11
20.519719
 21
92.311931
 31
0.0
  0
LINE
  5
154
100
AcDbEntity
  8
Cut
 62
7
100
AcDbLine
 10
20.519719
 20
92.311931
 30
0.0
 11
26.472843
 21
92.311931
 31
0.0
  0
LINE
  5
155
100
AcDbEntity
  8
Cut
 62
7
100
AcDbLine
 10
26.472843
 20
92.311931
 30
0.0
 11
26.472843
 21
95.288494
 31
0.0
  0
LINE
  5
156
100
AcDbEntity
  8
Cut
 62
7
100
AcDbLine
 10
26.472843
 20
95.288494
 30
0.0
 11
32.425968
 21
95.288494
 31
0.0
  0
LINE
  5
157
100
AcDbEntity
  8
Cut
 62
7
100
AcDbLine
 10
32.425968
 20
95.288494
 30
0.0
 11
32.425968
 21
92.311931
 31
0.0
  0
LINE
  5
158
100
AcDbEntity
  8
Cut
 62
7
100
AcDbLine
 10
32.425968
 20
92.311931
 30
0.0
 11
38.379093
 21
92.311931
 31
0.0
  0
LINE
  5
159
100
AcDbEntity
  8
Cut
 62
7
100
AcDbLine
 10
38.379093
 20
92.311931
 30
0.0
 11
38.379093
 21
95.288494
 31
0.0
  0
LINE
  5
15a
100
AcDbEntity
  8
Cut
 62
7
100
AcDbLine
 10
38.379093
 20
95.288494
 30
0.0
 11
44.332218
 21
95.288494
 31
0.0
  0
LINE
  5
15b
100
AcDbEntity
  8
Cut
 62
7
100
AcDbLine
 10
44.332218
 20
95.288494
 30
0.0
 11
44.332218
 21
92.311931
 31
0.0
  0
LINE
  5
15c
100
AcDbEntity
  8
Cut
 62
7
100
AcDbLine
 10
44.332218
 20
92.311931
 30
0.0
 11
50.285343
 21
92.311931
 31
0.0
  0
LINE
  5
15d
100
AcDbEntity
  8
Cut
 62
7
100
AcDbLine
 10
50.285343
 20
92.311931
 30
0.0
 11
50.285343
 21
95.288494
 31
0.0
  0
LINE
  5
15e
100
AcDbEntity
  8
Cut
 62
7
100
AcDbLine
 10
50.285343
 20
95.288494
 30
0.0
 11
57.726749
 21
95.288494
 31
0.0
  0
LINE
  5
15f
100
AcDbEntity
  8
Cut
 62
7
100
AcDbLine
 10
57.726749
 20
95.288494
 30
0.0
 11
57.726749
 21
92.311931
 31
0.0
  0
LINE
  5
160
100
AcDbEntity
  8
Cut
 62
7
100
AcDbLine
 10
57.726749
 20
92.311931
 30
0.0
 11
62.191593
 21
92.311931
 31
0.0
  0
LINE
  5
161
100
AcDbEntity
  8
Cut
 62
7
100
AcDbLine
 10
62.191593
 20
92.311931
 30
0.0
 11
62.191593
 21
87.847087
 31
0.0
  0
LINE
  5
162
100
AcDbEntity
  8
Cut
 62
7
100
AcDbLine
 10
62.191593
 20
87.847087
 30
0.0
 11
65.168156
 21
87.847087
 31
0.0
  0
LINE
  5
163
100
AcDbEntity
  8
Cut
 62
7
100
AcDbLine
 10
65.168156
 20
87.847087
 30
0.0
 11
65.168156
 21
80.405681
 31
0.0
  0
LINE
  5
164
100
AcDbEntity
  8
Cut
 62
7
100
AcDbLine
 10
65.168156
 20
80.405681
 30
0.0
 11
62.191593
 21
80.405681
 31
0.0
  0
LINE
  5
165
100
AcDbEntity
  8
Cut
 62
7
100
AcDbLine
 10
62.191593
 20
80.405681
 30
0.0
 11
62.191593
 21
74.452557
 31
0.0
  0
LINE
  5
166
100
AcDbEntity
  8
Cut
 62
7
100
AcDbLine
 10
62.191593
 20
74.452557
 30
0.0
 11
65.168156
 21
74.452557
 31
0.0
  0
LINE
  5
167
100
AcDbEntity
  8
Cut
 62
7
100
AcDbLine
 10
65.168156
 20
74.452557
 30
0.0
 11
65.168156
 21
68.499432
 31
0.0
  0
LINE
  5
168
100
AcDbEntity
  8
Cut
 62
7
100
AcDbLine
 10
65.168156
 20
68.499432
 30
0.0
 11
62.191593
 21
68.499432
 31
0.0
  0
LINE
  5
169
100
AcDbEntity
  8
Cut
 62
7
100
AcDbLine
 10
62.191593
 20
68.499432
 30
0.0
 11
62.191593
 21
62.546307
 31
0.0
  0
LINE
  5
16a
100
AcDbEntity
  8
Cut
 62
7
100
AcDbLine
 10
62.191593
 20
62.546307
 30
0.0
 11
65.168156
 21
62.546307
 31
0.0
  0
LINE
  5
16b
100
AcDbEntity
  8
Cut
 62
7
100
AcDbLine
 10
65.168156
 20
62.546307
 30
0.0
 11
65.168156
 21
56.593182
 31
0.0
  0
LINE
  5
16c
100
AcDbEntity
  8
Cut
 62
7
100
AcDbLine
 10
65.168156
 20
56.593182
 30
0.0
 11
62.191593
 21
56.593182
 31
0.0
  0
LINE
  5
16d
100
AcDbEntity
  8
Cut
 62
7
100
AcDbLine
 10
62.191593
 20
56.593182
 30
0.0
 11
62.191593
 21
50.640057
 31
0.0
  0
LINE
  5
16e
100
AcDbEntity
  8
Cut
 62
7
100
AcDbLine
 10
62.191593
 20
50.640057
 30
0.0
 11
65.168156
 21
50.640057
 31
0.0
  0
LINE
  5
16f
100
AcDbEntity
  8
Cut
 62
7
100
AcDbLine
 10
65.168156
 20
50.640057
 30
0.0
 11
65.168156
 21
44.686932
 31
0.0
  0
LINE
  5
170
100
AcDbEntity
  8
Cut
 62
7
100
AcDbLine
 10
65.168156
 20
44.686932
 30
0.0
 11
62.191593
 21
44.686932
 31
0.0
  0
LINE
  5
171
100
AcDbEntity
  8
Cut
 62
7
100
AcDbLine
 10
62.191593
 20
44.686932
 30
0.0
 11
62.191593
 21
38.733807
 31
0.0
  0
LINE
  5
172
100
AcDbEntity
  8
Cut
 62
7
100
AcDbLine
 10
62.191593
 20
38.733807
 30
0.0
 11
65.168156
 21
38.733807
 31
0.0
  0
LINE
  5
173
100
AcDbEntity
  8
Cut
 62
7
100
AcDbLine
 10
65.168156
 20
38.733807
 30
0.0
 11
65.168156
 21
32.780682
 31
0.0
  0
LINE
  5
174
100
AcDbEntity
  8
Cut
 62
7
100
AcDbLine
 10
65.168156
 20
32.780682
 30
0.0
 11
62.191593
 21
32.780682
 31
0.0
  0
LINE
  5
175
100
AcDbEntity
  8
Cut
 62
7
100
AcDbLine
 10
62.191593
 20
32.780682
 30
0.0
 11
62.191593
 21
26.827557
 31
0.0
  0
LINE
  5
176
100
AcDbEntity
  8
Cut
 62
7
100
AcDbLine
 10
62.191593
 20
26.827557
 30
0.0
 11
65.168156
 21
26.827557
 31
0.0
  0
LINE
  5
177
100
AcDbEntity
  8
Cut
 62
7
100
AcDbLine
 10
65.168156
 20
26.827557
 30
0.0
 11
65.168156
 21
19.386151
 31
0.0
  0
LINE
  5
178
100
AcDbEntity
  8
Cut
 62
7
100
AcDbLine
 10
65.168156
 20
19.386151
 30
0.0
 11
62.191593
 21
19.386151
 31
0.0
  0
LINE
  5
179
100
AcDbEntity
  8
Cut
 62
7
100
AcDbLine
 10
62.191593
 20
19.386151
 30
0.0
 11
62.191593
 21
14.921307
 31
0.0
  0
LINE
  5
17a
100
AcDbEntity
  8
Cut
 62
7
100
AcDbLine
 10
62.191593
 20
14.921307
 30
0.0
 11
57.726749
 21
14.921307
 31
0.0
  0
LINE
  5
17b
100
AcDbEntity
  8
Cut
 62
7
100
AcDbLine
 10
57.726749
 20
14.921307
 30
0.0
 11
57.726749
 21
11.944744
 31
0.0
  0
LINE
  5
17c
100
AcDbEntity
  8
Cut
 62
7
100
AcDbLine
 10
57.726749
 20
11.944744
 30
0.0
 11
50.285343
 21
11.944744
 31
0.0
  0
LINE
  5
17d
100
AcDbEntity
  8
Cut
 62
7
100
AcDbLine
 10
50.285343
 20
11.944744
 30
0.0
 11
50.285343
 21
14.921307
 31
0.0
  0
LINE
  5
17e
100
AcDbEntity
  8
Cut
 62
7
100
AcDbLine
 10
50.285343
 20
14.921307
 30
0.0
 11
44.332218
 21
14.921307
 31
0.0
  0
LINE
  5
17f
100
AcDbEntity
  8
Cut
 62
7
100
AcDbLine
 10
44.332218
 20
14.921307
 30
0.0
 11
44.332218
 21
11.944744
 31
0.0
  0
LINE
  5
180
100
AcDbEntity
  8
Cut
 62
7
100
AcDbLine
 10
44.332218
 20
11.944744
 30
0.0
 11
38.379093
 21
11.944744
 31
0.0
  0
LINE
  5
181
100
AcDbEntity
  8
Cut
 62
7
100
AcDbLine
 10
38.379093
 20
11.944744
 30
0.0
 11
38.379093
 21
14.921307
 31
0.0
  0
LINE
  5
182
100
AcDbEntity
  8
Cut
 62
7
100
AcDbLine
 10
38.379093
 20
14.921307
 30
0.0
 11
32.425968
 21
14.921307
 31
0.0
  0
LINE
  5
183
100
AcDbEntity
  8
Cut
 62
7
100
AcDbLine
 10
32.425968
 20
14.921307
 30
0.0
 11
32.425968
 21
11.944744
 31
0.0
  0
LINE
  5
184
100
AcDbEntity
  8
Cut
 62
7
100
AcDbLine
 10
32.425968
 20
11.944744
 30
0.0
 11
26.472843
 21
11.944744
 31
0.0
  0
LINE
  5
185
100
AcDbEntity
  8
Cut
 62
7
100
AcDbLine
 10
26.472843
 20
11.944744
 30
0.0
 11
26.472843
 21
14.921307
 31
0.0
  0
LINE
  5
186
100
AcDbEntity
  8
Cut
 62
7
100
AcDbLine
 10
26.472843
 20
14.921307
 30
0.0
 11
20.519719
 21
14.921307
 31
0.0
  0
LINE
  5
187
100
AcDbEntity
  8
Cut
 62
7
100
AcDbLine
 10
20.519719
 20
14.921307
 30
0.0
 11
20.519719
 21
11.944744
 31
0.0
  0
LINE
  5
188
100
AcDbEntity
  8
Cut
 62
7
100
AcDbLine
 10
20.519719
 20
11.944744
 30
0.0
 11
13.078313
 21
11.944744
 31
0.0
  0
LINE
  5
189
100
AcDbEntity
  8
Cut
 62
7
100
AcDbLine
 10
13.078313
 20
11.944744
 30
0.0
 11
13.078313
 21
14.921307
 31
0.0
  0
LINE
  5
18a
100
AcDbEntity
  8
Cut
 62
7
100
AcDbLine
 10
13.078313
 20
14.921307
 30
0.0
 11
8.613469
 21
14.921307
 31
0.0
  0
LINE
  5
18b
100
AcDbEntity
  8
Cut
 62
7
100
AcDbLine
 10
8.613469
 20
14.921307
 30
0.0
 11
8.613469
 21
19.386151
 31
0.0
  0
LINE
  5
18c
100
AcDbEntity
  8
Cut
 62
7
100
AcDbLine
 10
8.613469
 20
19.386151
 30
0.0
 11
5.636906
 21
19.386151
 31
0.0
  0
LINE
  5
18d
100
AcDbEntity
  8
Cut
 62
7
100
AcDbLine
 10
5.636906
 20
19.386151
 30
0.0
 11
5.636906
 21
26.827557
 31
0.0
  0
LINE
  5
18e
100
AcDbEntity
  8
Cut
 62
7
100
AcDbLine
 10
5.636906
 20
26.827557
 30
0.0
 11
8.613469
 21
26.827557
 31
0.0
  0
LINE
  5
18f
100
AcDbEntity
  8
Cut
 62
7
100
AcDbLine
 10
8.613469
 20
26.827557
 30
0.0
 11
8.613469
 21
32.780682
 31
0.0
  0
LINE
  5
190
100
AcDbEntity
  8
Cut
 62
7
100
AcDbLine
 10
8.613469
 20
32.780682
 30
0.0
 11
5.636906
 21
32.780682
 31
0.0
  0
LINE
  5
191
100
AcDbEntity
  8
Cut
 62
7
100
AcDbLine
 10
5.636906
 20
32.780682
 30
0.0
 11
5.636906
 21
38.733807
 31
0.0
  0
LINE
  5
192
100
AcDbEntity
  8
Cut
 62
7
100
AcDbLine
 10
5.636906
 20
38.733807
 30
0.0
 11
8.613469
 21
38.733807
 31
0.0
  0
LINE
  5
193
100
AcDbEntity
  8
Cut
 62
7
100
AcDbLine
 10
8.613469
 20
38.733807
 30
0.0
 11
8.613469
 21
44.686932
 31
0.0
  0
LINE
  5
194
100
AcDbEntity
  8
Cut
 62
7
100
AcDbLine
 10
8.613469
 20
44.686932
 30
0.0
 11
5.636906
 21
44.686932
 31
0.0
  0
LINE
  5
195
100
AcDbEntity
  8
Cut
 62
7
100
AcDbLine
 10
5.636906
 20
44.686932
 30
0.0
 11
5.636906
 21
50.640057
 31
0.0
  0
LINE
  5
196
100
AcDbEntity
  8
Cut
 62
7
100
AcDbLine
 10
5.636906
 20
50.640057
 30
0.0
 11
8.613469
 21
50.640057
 31
0.0
  0
LINE
  5
197
100
AcDbEntity
  8
Cut
 62
7
100
AcDbLine
 10
8.613469
 20
50.640057
 30
0.0
 11
8.613469
 21
56.593182
 31
0.0
  0
LINE
  5
198
100
AcDbEntity
  8
Cut
 62
7
100
AcDbLine
 10
8.613469
 20
56.593182
 30
0.0
 11
5.636906
 21
56.593182
 31
0.0
  0
LINE
  5
199
100
AcDbEntity
  8
Cut
 62
7
100
AcDbLine
 10
5.636906
 20
56.593182
 30
0.0
 11
5.636906
 21
62.546307
 31
0.0
  0
LINE
  5
19a
100
AcDbEntity
  8
Cut
 62
7
100
AcDbLine
 10
5.636906
 20
62.546307
 30
0.0
 11
8.613469
 21
62.546307
 31
0.0
  0
LINE
  5
19b
100
AcDbEntity
  8
Cut
 62
7
100
AcDbLine
 10
8.613469
 20
62.546307
 30
0.0
 11
8.613469
 21
68.499432
 31
0.0
  0
LINE
  5
19c
100
AcDbEntity
  8
Cut
 62
7
100
AcDbLine
 10
8.613469
 20
68.499432
 30
0.0
 11
5.636906
 21
68.499432
 31
0.0
  0
LINE
  5
19d
100
AcDbEntity
  8
Cut
 62
7
100
AcDbLine
 10
5.636906
 20
68.499432
 30
0.0
 11
5.636906
 21
74.452557
 31
0.0
  0
LINE
  5
19e
100
AcDbEntity
  8
Cut
 62
7
100
AcDbLine
 10
5.636906
 20
74.452557
 30
0.0
 11
8.613469
 21
74.452557
 31
0.0
  0
LINE
  5
19f
100
AcDbEntity
  8
Cut
 62
7
100
AcDbLine
 10
8.613469
 20
74.452557
 30
0.0
 11
8.613469
 21
80.405681
 31
0.0
  0
LINE
  5
1a0
100
AcDbEntity
  8
Cut
 62
7
100
AcDbLine
 10
8.613469
 20
80.405681
 30
0.0
 11
5.636906
 21
80.405681
 31
0.0
  0
LINE
  5
1a1
100
AcDbEntity
  8
Cut
 62
7
100
AcDbLine
 10
5.636906
 20
80.405681
 30
0.0
 11
5.636906
 21
87.847087
 31
0.0
  0
LINE
  5
1a2
100
AcDbEntity
  8
Cut
 62
7
100
AcDbLine
 10
5.636906
 20
87.847087
 30
0.0
 11
8.613469
 21
87.847087
 31
0.0
  0
LINE
  5
1a3
100
AcDbEntity
  8
Cut
 62
7
100
AcDbLine
 10
8.613469
 20
87.847087
 30
0.0
 11
8.613469
 21
92.311931
 31
0.0
  0
LINE
  5
1a4
100
AcDbEntity
  8
Cut
 62
7
100
AcDbLine
 10
94.980371
 20
35.757244
 30
0.0
 11
98.551212
 21
35.757244
 31
0.0
  0
LINE
  5
1a5
100
AcDbEntity
  8
Cut
 62
7
100
AcDbLine
 10
98.551212
 20
35.757244
 30
0.0
 11
98.551212
 21
38.733807
 31
0.0
  0
LINE
  5
1a6
100
AcDbEntity
  8
Cut
 62
7
100
AcDbLine
 10
98.551212
 20
38.733807
 30
0.0
 11
105.099649
 21
38.733807
 31
0.0
  0
LINE
  5
1a7
100
AcDbEntity
  8
Cut
 62
7
100
AcDbLine
 10
105.099649
 20
38.733807
 30
0.0
 11
105.099649
 21
35.757244
 31
0.0
  0
LINE
  5
1a8
100
AcDbEntity
  8
Cut
 62
7
100
AcDbLine
 10
105.099649
 20
35.757244
 30
0.0
 11
111.648087
 21
35.757244
 31
0.0
  0
LINE
  5
1a9
100
AcDbEntity
  8
Cut
 62
7
100
AcDbLine
 10
111.648087
 20
35.757244
 30
0.0
 11
111.648087
 21
38.733807
 31
0.0
  0
LINE
  5
1aa
100
AcDbEntity
  8
Cut
 62
7
100
AcDbLine
 10
111.648087
 20
38.733807
 30
0.0
 11
118.196524
 21
38.733807
 31
0.0
  0
LINE
  5
1ab
100
AcDbEntity
  8
Cut
 62
7
100
AcDbLine
 10
118.196524
 20
38.733807
 30
0.0
 11
118.196524
 21
35.757244
 31
0.0
  0
LINE
  5
1ac
100
AcDbEntity
  8
Cut
 62
7
100
AcDbLine
 10
118.196524
 20
35.757244
 30
0.0
 11
124.744964
 21
35.757244
 31
0.0
  0
LINE
  5
1ad
100
AcDbEntity
  8
Cut
 62
7
100
AcDbLine
 10
124.744964
 20
35.757244
 30
0.0
 11
124.744964
 21
43.198651
 31
0.0
  0
LINE
  5
1ae
100
AcDbEntity
  8
Cut
 62
7
100
AcDbLine
 10
124.744964
 20
43.198651
 30
0.0
 11
121.768402
 21
43.198651
 31
0.0
  0
LINE
  5
1af
100
AcDbEntity
  8
Cut
 62
7
100
AcDbLine
 10
121.768402
 20
43.198651
 30
0.0
 11
121.768402
 21
50.640057
 31
0.0
  0
LINE
  5
1b0
100
AcDbEntity
  8
Cut
 62
7
100
AcDbLine
 10
121.768402
 20
50.640057
 30
0.0
 11
124.744964
 21
50.640057
 31
0.0
  0
LINE
  5
1b1
100
AcDbEntity
  8
Cut
 62
7
100
AcDbLine
 10
124.744964
 20
50.640057
 30
0.0
 11
124.744964
 21
56.593182
 31
0.0
  0
LINE
  5
1b2
100
AcDbEntity
  8
Cut
 62
7
100
AcDbLine
 10
124.744964
 20
56.593182
 30
0.0
 11
121.768402
 21
56.593182
 31
0.0
  0
LINE
  5
1b3
100
AcDbEntity
  8
Cut
 62
7
100
AcDbLine
 10
121.768402
 20
56.593182
 30
0.0
 11
121.768402
 21
62.546307
 31
0.0
  0
LINE
  5
1b4
100
AcDbEntity
  8
Cut
 62
7
100
AcDbLine
 10
121.768402
 20
62.546307
 30
0.0
 11
124.744964
 21
62.546307
 31
0.0
  0
LINE
  5
1b5
100
AcDbEntity
  8
Cut
 62
7
100
AcDbLine
 10
124.744964
 20
62.546307
 30
0.0
 11
124.744964
 21
68.499432
 31
0.0
  0
LINE
  5
1b6
100
AcDbEntity
  8
Cut
 62
7
100
AcDbLine
 10
124.744964
 20
68.499432
 30
0.0
 11
121.768402
 21
68.499432
 31
0.0
  0
LINE
  5
1b7
100
AcDbEntity
  8
Cut
 62
7
100
AcDbLine
 10
121.768402
 20
68.499432
 30
0.0
 11
121.768402
 21
74.452557
 31
0.0
  0
LINE
  5
1b8
100
AcDbEntity
  8
Cut
 62
7
100
AcDbLine
 10
121.768402
 20
74.452557
 30
0.0
 11
124.744964
 21
74.452557
 31
0.0
  0
LINE
  5
1b9
100
AcDbEntity
  8
Cut
 62
7
100
AcDbLine
 10
124.744964
 20
74.452557
 30
0.0
 11
124.744964
 21
80.405681
 31
0.0
  0
LINE
  5
1ba
100
AcDbEntity
  8
Cut
 62
7
100
AcDbLine
 10
124.744964
 20
80.405681
 30
0.0
 11
121.768402
 21
80.405681
 31
0.0
  0
LINE
  5
1bb
100
AcDbEntity
  8
Cut
 62
7
100
AcDbLine
 10
121.768402
 20
80.405681
 30
0.0
 11
121.768402
 21
87.847087
 31
0.0
  0
LINE
  5
1bc
100
AcDbEntity
  8
Cut
 62
7
100
AcDbLine
 10
121.768402
 20
87.847087
 30
0.0
 11
124.744964
 21
87.847087
 31
0.0
  0
LINE
  5
1bd
100
AcDbEntity
  8
Cut
 62
7
100
AcDbLine
 10
124.744964
 20
87.847087
 30
0.0
 11
124.744964
 21
95.288494
 31
0.0
  0
LINE
  5
1be
100
AcDbEntity
  8
Cut
 62
7
100
AcDbLine
 10
124.744964
 20
95.288494
 30
0.0
 11
118.196524
 21
95.288494
 31
0.0
  0
LINE
  5
1bf
100
AcDbEntity
  8
Cut
 62
7
100
AcDbLine
 10
118.196524
 20
95.288494
 30
0.0
 11
118.196524
 21
92.311931
 31
0.0
  0
LINE
  5
1c0
100
AcDbEntity
  8
Cut
 62
7
100
AcDbLine
 10
118.196524
 20
92.311931
 30
0.0
 11
111.648087
 21
92.311931
 31
0.0
  0
LINE
  5
1c1
100
AcDbEntity
  8
Cut
 62
7
100
AcDbLine
 10
111.648087
 20
92.311931
 30
0.0
 11
111.648087
 21
95.288494
 31
0.0
  0
LINE
  5
1c2
100
AcDbEntity
  8
Cut
 62
7
100
AcDbLine
 10
111.648087
 20
95.288494
 30
0.0
 11
105.099649
 21
95.288494
 31
0.0
  0
LINE
  5
1c3
100
AcDbEntity
  8
Cut
 62
7
100
AcDbLine
 10
105.099649
 20
95.288494
 30
0.0
 11
105.099649
 21
92.311931
 31
0.0
  0
LINE
  5
1c4
100
AcDbEntity
  8
Cut
 62
7
100
AcDbLine
 10
105.099649
 20
92.311931
 30
0.0
 11
98.551212
 21
92.311931
 31
0.0
  0
LINE
  5
1c5
100
AcDbEntity
  8
Cut
 62
7
100
AcDbLine
 10
98.551212
 20
92.311931
 30
0.0
 11
98.551212
 21
95.288494
 31
0.0
  0
LINE
  5
1c6
100
AcDbEntity
  8
Cut
 62
7
100
AcDbLine
 10
98.551212
 20
95.288494
 30
0.0
 11
94.980371
 21
95.288494
 31
0.0
  0
LINE
  5
1c7
100
AcDbEntity
  8
Cut
 62
7
100
AcDbLine
 10
154.555624
 20
14.921307
 30
0.0
 11
158.124932
 21
14.921307
 31
0.0
  0
LINE
  5
1c8
100
AcDbEntity
  8
Cut
 62
7
100
AcDbLine
 10
158.124932
 20
14.921307
 30
0.0
 11
158.124932
 21
11.944744
 31
0.0
  0
LINE
  5
1c9
100
AcDbEntity
  8
Cut
 62
7
100
AcDbLine
 10
158.124932
 20
11.944744
 30
0.0
 11
164.673370
 21
11.944744
 31
0.0
  0
LINE
  5
1ca
100
AcDbEntity
  8
Cut
 62
7
100
AcDbLine
 10
164.673370
 20
11.944744
 30
0.0
 11
164.673370
 21
14.921307
 31
0.0
  0
LINE
  5
1cb
100
AcDbEntity
  8
Cut
 62
7
100
AcDbLine
 10
164.673370
 20
14.921307
 30
0.0
 11
171.221807
 21
14.921307
 31
0.0
  0
LINE
  5
1cc
100
AcDbEntity
  8
Cut
 62
7
100
AcDbLine
 10
171.221807
 20
14.921307
 30
0.0
 11
171.221807
 21
11.944744
 31
0.0
  0
LINE
  5
1cd
100
AcDbEntity
  8
Cut
 62
7
100
AcDbLine
 10
171.221807
 20
11.944744
 30
0.0
 11
177.770245
 21
11.944744
 31
0.0
  0
LINE
  5
1ce
100
AcDbEntity
  8
Cut
 62
7
100
AcDbLine
 10
177.770245
 20
11.944744
 30
0.0
 11
177.770245
 21
14.921307
 31
0.0
  0
LINE
  5
1cf
100
AcDbEntity
  8
Cut
 62
7
100
AcDbLine
 10
177.770245
 20
14.921307
 30
0.0
 11
184.318656
 21
14.921307
 31
0.0
  0
LINE
  5
1d0
100
AcDbEntity
  8
Cut
 62
7
100
AcDbLine
 10
184.318656
 20
14.921307
 30
0.0
 11
184.318656
 21
19.386151
 31
0.0
  0
LINE
  5
1d1
100
AcDbEntity
  8
Cut
 62
7
100
AcDbLine
 10
184.318656
 20
19.386151
 30
0.0
 11
181.342094
 21
19.386151
 31
0.0
  0
LINE
  5
1d2
100
AcDbEntity
  8
Cut
 62
7
100
AcDbLine
 10
181.342094
 20
19.386151
 30
0.0
 11
181.342094
 21
26.827557
 31
0.0
  0
LINE
  5
1d3
100
AcDbEntity
  8
Cut
 62
7
100
AcDbLine
 10
181.342094
 20
26.827557
 30
0.0
 11
184.318656
 21
26.827557
 31
0.0
  0
LINE
  5
1d4
100
AcDbEntity
  8
Cut
 62
7
100
AcDbLine
 10
184.318656
 20
26.827557
 30
0.0
 11
184.318656
 21
32.780682
 31
0.0
  0
LINE
  5
1d5
100
AcDbEntity
  8
Cut
 62
7
100
AcDbLine
 10
184.318656
 20
32.780682
 30
0.0
 11
181.342094
 21
32.780682
 31
0.0
  0
LINE
  5
1d6
100
AcDbEntity
  8
Cut
 62
7
100
AcDbLine
 10
181.342094
 20
32.780682
 30
0.0
 11
181.342094
 21
38.733807
 31
0.0
  0
LINE
  5
1d7
100
AcDbEntity
  8
Cut
 62
7
100
AcDbLine
 10
181.342094
 20
38.733807
 30
0.0
 11
184.318656
 21
38.733807
 31
0.0
  0
LINE
  5
1d8
100
AcDbEntity
  8
Cut
 62
7
100
AcDbLine
 10
184.318656
 20
38.733807
 30
0.0
 11
184.318656
 21
44.686932
 31
0.0
  0
LINE
  5
1d9
100
AcDbEntity
  8
Cut
 62
7
100
AcDbLine
 10
184.318656
 20
44.686932
 30
0.0
 11
181.342094
 21
44.686932
 31
0.0
  0
LINE
  5
1da
100
AcDbEntity
  8
Cut
 62
7
100
AcDbLine
 10
181.342094
 20
44.686932
 30
0.0
 11
181.342094
 21
50.640057
 31
0.0
  0
LINE
  5
1db
100
AcDbEntity
  8
Cut
 62
7
100
AcDbLine
 10
181.342094
 20
50.640057
 30
0.0
 11
184.318656
 21
50.640057
 31
0.0
  0
LINE
  5
1dc
100
AcDbEntity
  8
Cut
 62
7
100
AcDbLine
 10
184.318656
 20
50.640057
 30
0.0
 11
184.318656
 21
56.593182
 31
0.0
  0
LINE
  5
1dd
100
AcDbEntity
  8
Cut
 62
7
100
AcDbLine
 10
184.318656
 20
56.593182
 30
0.0
 11
181.342094
 21
56.593182
 31
0.0
  0
LINE
  5
1de
100
AcDbEntity
  8
Cut
 62
7
100
AcDbLine
 10
181.342094
 20
56.593182
 30
0.0
 11
181.342094
 21
62.546307
 31
0.0
  0
LINE
  5
1df
100
AcDbEntity
  8
Cut
 62
7
100
AcDbLine
 10
181.342094
 20
62.546307
 30
0.0
 11
184.318656
 21
62.546307
 31
0.0
  0
LINE
  5
1e0
100
AcDbEntity
  8
Cut
 62
7
100
AcDbLine
 10
184.318656
 20
62.546307
 30
0.0
 11
184.318656
 21
68.499432
 31
0.0
  0
LINE
  5
1e1
100
AcDbEntity
  8
Cut
 62
7
100
AcDbLine
 10
184.318656
 20
68.499432
 30
0.0
 11
181.342094
 21
68.499432
 31
0.0
  0
LINE
  5
1e2
100
AcDbEntity
  8
Cut
 62
7
100
AcDbLine
 10
181.342094
 20
68.499432
 30
0.0
 11
181.342094
 21
74.452557
 31
0.0
  0
LINE
  5
1e3
100
AcDbEntity
  8
Cut
 62
7
100
AcDbLine
 10
181.342094
 20
74.452557
 30
0.0
 11
184.318656
 21
74.452557
 31
0.0
  0
LINE
  5
1e4
100
AcDbEntity
  8
Cut
 62
7
100
AcDbLine
 10
184.318656
 20
74.452557
 30
0.0
 11
184.318656
 21
80.405681
 31
0.0
  0
LINE
  5
1e5
100
AcDbEntity
  8
Cut
 62
7
100
AcDbLine
 10
184.318656
 20
80.405681
 30
0.0
 11
181.342094
 21
80.405681
 31
0.0
  0
LINE
  5
1e6
100
AcDbEntity
  8
Cut
 62
7
100
AcDbLine
 10
181.342094
 20
80.405681
 30
0.0
 11
181.342094
 21
87.847087
 31
0.0
  0
LINE
  5
1e7
100
AcDbEntity
  8
Cut
 62
7
100
AcDbLine
 10
181.342094
 20
87.847087
 30
0.0
 11
184.318656
 21
87.847087
 31
0.0
  0
LINE
  5
1e8
100
AcDbEntity
  8
Cut
 62
7
100
AcDbLine
 10
184.318656
 20
87.847087
 30
0.0
 11
184.318656
 21
92.311931
 31
0.0
  0
LINE
  5
1e9
100
AcDbEntity
  8
Cut
 62
7
100
AcDbLine
 10
184.318656
 20
92.311931
 30
0.0
 11
177.770245
 21
92.311931
 31
0.0
  0
LINE
  5
1ea
100
AcDbEntity
  8
Cut
 62
7
100
AcDbLine
 10
177.770245
 20
92.311931
 30
0.0
 11
177.770245
 21
95.288494
 31
0.0
  0
LINE
  5
1eb
100
AcDbEntity
  8
Cut
 62
7
100
AcDbLine
 10
177.770245
 20
95.288494
 30
0.0
 11
171.221807
 21
95.288494
 31
0.0
  0
LINE
  5
1ec
100
AcDbEntity
  8
Cut
 62
7
100
AcDbLine
 10
171.221807
 20
95.288494
 30
0.0
 11
171.221807
 21
92.311931
 31
0.0
  0
LINE
  5
1ed
100
AcDbEntity
  8
Cut
 62
7
100
AcDbLine
 10
171.221807
 20
92.311931
 30
0.0
 11
164.673370
 21
92.311931
 31
0.0
  0
LINE
  5
1ee
100
AcDbEntity
  8
Cut
 62
7
100
AcDbLine
 10
164.673370
 20
92.311931
 30
0.0
 11
164.673370
 21
95.288494
 31
0.0
  0
LINE
  5
1ef
100
AcDbEntity
  8
Cut
 62
7
100
AcDbLine
 10
164.673370
 20
95.288494
 30
0.0
 11
158.124932
 21
95.288494
 31
0.0
  0
LINE
  5
1f0
100
AcDbEntity
  8
Cut
 62
7
100
AcDbLine
 10
158.124932
 20
95.288494
 30
0.0
 11
158.124932
 21
92.311931
 31
0.0
  0
LINE
  5
1f1
100
AcDbEntity
  8
Cut
 62
7
100
AcDbLine
 10
158.124932
 20
92.311931
 30
0.0
 11
154.555624
 21
92.311931
 31
0.0
  0
ENDSEC
  0
SECTION
  2
OBJECTS
  0
DICTIONARY
  5
C
330
0
100
AcDbDictionary
  3
ACAD_GROUP
350
D
  3
ACAD_MLINESTYLE
350
17
  0
DICTIONARY
  5
D
330
C
100
AcDbDictionary
  0
DICTIONARY
  5
1A
330
C
100
AcDbDictionary
  0
DICTIONARY
  5
17
330
C
100
AcDbDictionary
  3
STANDARD
350
18
  0
DICTIONARY
  5
19
330
C
100
AcDbDictionary
  0
ENDSEC
  0
EOF
