  0
SECTION
  2
HEADER
  9
$ACADVER
  1
AC1014
  9
$HANDSEED
  5
FFFF
  9
$MEASUREMENT
 70
     1
  0
ENDSEC
  0
SECTION
  2
TABLES
  0
TABLE
  2
VPORT
  5
8
330
0
100
AcDbSymbolTable
 70
     4
  0
VPORT
  5
2E
330
8
100
AcDbSymbolTableRecord
100
AcDbViewportTableRecord
  2
*ACTIVE
 70
     0
 10
0.0
 20
0.0
 11
1.0
 21
1.0
 12
210.0
 22
148.5
 13
0.0
 23
0.0
 14
10.0
 24
10.0
 15
10.0
 25
10.0
 16
0.0
 26
0.0
 36
1.0
 17
0.0
 27
0.0
 37
0.0
 40
341.0
 41
1.24
 42
50.0
 43
0.0
 44
0.0
 50
0.0
 51
0.0
 71
     0
 72
   100
 73
     1
 74
     3
 75
     0
 76
     0
 77
     0
 78
     0
  0
ENDTAB
  0
TABLE
  2
LTYPE
  5
5
330
0
100
AcDbSymbolTable
 70
     1
  0
LTYPE
  5
14
330
5
100
AcDbSymbolTableRecord
100
AcDbLinetypeTableRecord
  2
BYBLOCK
 70
     0
  3

 72
    65
 73
     0
 40
0.0
  0
LTYPE
  5
15
330
5
100
AcDbSymbolTableRecord
100
AcDbLinetypeTableRecord
  2
BYLAYER
 70
     0
  3

 72
    65
 73
     0
 40
0.0
  0
LTYPE
  5
16
330
5
100
AcDbSymbolTableRecord
100
AcDbLinetypeTableRecord
  2
CONTINUOUS
 70
     0
  3
Solid line
 72
    65
 73
     0
 40
0.0
  0
ENDTAB
  0
TABLE
  2
LAYER
  5
2
100
AcDbSymbolTable
 70
2
  0
LAYER
  5
50
100
AcDbSymbolTableRecord
100
AcDbLayerTableRecord
  2
0
 70
0
  6
CONTINUOUS
  0
LAYER
  5
51
100
AcDbSymbolTableRecord
100
AcDbLayerTableRecord
  2
Cut
 70
0
  6
CONTINUOUS
  0
ENDTAB
  0
TABLE
  2
STYLE
  5
3
330
0
100
AcDbSymbolTable
 70
     1
  0
STYLE
  5
11
330
3
100
AcDbSymbolTableRecord
100
AcDbTextStyleTableRecord
  2
STANDARD
 70
     0
 40
0.0
 41
1.0
 50
0.0
 71
     0
 42
2.5
  3
txt
  4

  0
ENDTAB
  0
TABLE
  2
VIEW
  5
6
330
0
100
AcDbSymbolTable
 70
     0
  0
ENDTAB
  0
TABLE
  2
UCS
  5
7
330
0
100
AcDbSymbolTable
 70
     0
  0
ENDTAB
  0
TABLE
  2
APPID
  5
9
330
0
100
AcDbSymbolTable
 70
     2
  0
APPID
  5
12
330
9
100
AcDbSymbolTableRecord
100
AcDbRegAppTableRecord
  2
ACAD
 70
     0
  0
ENDTAB
  0
TABLE
  2
DIMSTYLE
  5
A
330
0
100
AcDbSymbolTable
 70
     1
  0
DIMSTYLE
105
27
330
A
100
AcDbSymbolTableRecord
100
AcDbDimStyleTableRecord
  2
ISO-25
 70
     0
  3

  4

  5

  6

  7

 40
1.0
 41
2.5
 42
0.625
 43
3.75
 44
1.25
 45
0.0
 46
0.0
 47
0.0
 48
0.0
140
2.5
141
2.5
142
0.0
143
0.03937007874016
144
1.0
145
0.0
146
1.0
147
0.625
 71
     0
 72
     0
 73
     0
 74
     0
 75
     0
 76
     0
 77
     1
 78
     8
170
     0
171
     3
172
     1
173
     0
174
     0
175
     0
176
     0
177
     0
178
     0
270
     2
271
     2
272
     2
273
     2
274
     3
340
11
275
     0
280
     0
281
     0
282
     0
283
     0
284
     8
285
     0
286
     0
287
     3
288
     0
  0
ENDTAB
  0
TABLE
  2
BLOCK_RECORD
  5
1
330
0
100
AcDbSymbolTable
 70
     1
  0
BLOCK_RECORD
  5
1F
330
1
100
AcDbSymbolTableRecord
100
AcDbBlockTableRecord
  2
*MODEL_SPACE
  0
BLOCK_RECORD
  5
1B
330
1
100
AcDbSymbolTableRecord
100
AcDbBlockTableRecord
  2
*PAPER_SPACE
  0
ENDTAB
  0
ENDSEC
  0
SECTION
  2
BLOCKS
  0
BLOCK
  5
20
330
1F
100
AcDbEntity
  8
0
100
AcDbBlockBegin
  2
*MODEL_SPACE
 70
     0
 10
0.0
 20
0.0
 30
0.0
  3
*MODEL_SPACE
  1

  0
ENDBLK
  5
21
330
1F
100
AcDbEntity
  8
0
100
AcDbBlockEnd
  0
BLOCK
  5
1C
330
1B
100
AcDbEntity
 67
     1
  8
0
100
AcDbBlockBegin
  2
*PAPER_SPACE
  1

  0
ENDBLK
  5
1D
330
1B
100
AcDbEntity
 67
     1
  8
0
100
AcDbBlockEnd
  0
ENDSEC
  0
SECTION
  2
ENTITIES
  0
LINE
  5
100
100
AcDbEntity
  8
Cut
 62
7
100
AcDbLine
 10
69.538099
 20
31.412701
 30
0.0
 11
76.523099
 21
31.412701
 31
0.0
  0
LINE
  5
101
100
AcDbEntity
  8
Cut
 62
7
100
AcDbLine
 10
76.523099
 20
31.412701
 30
0.0
 11
76.523099
 21
34.587701
 31
0.0
  0
LINE
  5
102
100
AcDbEntity
  8
Cut
 62
7
100
AcDbLine
 10
76.523099
 20
34.587701
 30
0.0
 11
83.508099
 21
34.587701
 31
0.0
  0
LINE
  5
103
100
AcDbEntity
  8
Cut
 62
7
100
AcDbLine
 10
83.508099
 20
34.587701
 30
0.0
 11
83.508099
 21
31.412701
 31
0.0
  0
LINE
  5
104
100
AcDbEntity
  8
Cut
 62
7
100
AcDbLine
 10
83.508099
 20
31.412701
 30
0.0
 11
90.493099
 21
31.412701
 31
0.0
  0
LINE
  5
105
100
AcDbEntity
  8
Cut
 62
7
100
AcDbLine
 10
90.493099
 20
31.412701
 30
0.0
 11
90.493099
 21
34.587701
 31
0.0
  0
LINE
  5
106
100
AcDbEntity
  8
Cut
 62
7
100
AcDbLine
 10
90.493099
 20
34.587701
 30
0.0
 11
97.478099
 21
34.587701
 31
0.0
  0
LINE
  5
107
100
AcDbEntity
  8
Cut
 62
7
100
AcDbLine
 10
97.478099
 20
34.587701
 30
0.0
 11
97.478099
 21
31.412701
 31
0.0
  0
LINE
  5
108
100
AcDbEntity
  8
Cut
 62
7
100
AcDbLine
 10
97.478099
 20
31.412701
 30
0.0
 11
101.286996
 21
31.412701
 31
0.0
  0
LINE
  5
109
100
AcDbEntity
  8
Cut
 62
7
100
AcDbLine
 10
101.286996
 20
31.412701
 30
0.0
 11
101.286996
 21
94.912701
 31
0.0
  0
LINE
  5
10a
100
AcDbEntity
  8
Cut
 62
7
100
AcDbLine
 10
101.286996
 20
94.912701
 30
0.0
 11
97.478099
 21
94.912701
 31
0.0
  0
LINE
  5
10b
100
AcDbEntity
  8
Cut
 62
7
100
AcDbLine
 10
97.478099
 20
94.912701
 30
0.0
 11
97.478099
 21
91.737701
 31
0.0
  0
LINE
  5
10c
100
AcDbEntity
  8
Cut
 62
7
100
AcDbLine
 10
97.478099
 20
91.737701
 30
0.0
 11
90.493099
 21
91.737701
 31
0.0
  0
LINE
  5
10d
100
AcDbEntity
  8
Cut
 62
7
100
AcDbLine
 10
90.493099
 20
91.737701
 30
0.0
 11
90.493099
 21
94.912701
 31
0.0
  0
LINE
  5
10e
100
AcDbEntity
  8
Cut
 62
7
100
AcDbLine
 10
90.493099
 20
94.912701
 30
0.0
 11
83.508099
 21
94.912701
 31
0.0
  0
LINE
  5
10f
100
AcDbEntity
  8
Cut
 62
7
100
AcDbLine
 10
83.508099
 20
94.912701
 30
0.0
 11
83.508099
 21
91.737701
 31
0.0
  0
LINE
  5
110
100
AcDbEntity
  8
Cut
 62
7
100
AcDbLine
 10
83.508099
 20
91.737701
 30
0.0
 11
76.523099
 21
91.737701
 31
0.0
  0
LINE
  5
111
100
AcDbEntity
  8
Cut
 62
7
100
AcDbLine
 10
76.523099
 20
91.737701
 30
0.0
 11
76.523099
 21
94.912701
 31
0.0
  0
LINE
  5
112
100
AcDbEntity
  8
Cut
 62
7
100
AcDbLine
 10
76.523099
 20
94.912701
 30
0.0
 11
69.538099
 21
94.912701
 31
0.0
  0
LINE
  5
113
100
AcDbEntity
  8
Cut
 62
7
100
AcDbLine
 10
69.538099
 20
94.912701
 30
0.0
 11
69.538099
 21
86.975201
 31
0.0
  0
LINE
  5
114
100
AcDbEntity
  8
Cut
 62
7
100
AcDbLine
 10
69.538099
 20
86.975201
 30
0.0
 11
72.713099
 21
86.975201
 31
0.0
  0
LINE
  5
115
100
AcDbEntity
  8
Cut
 62
7
100
AcDbLine
 10
72.713099
 20
86.975201
 30
0.0
 11
72.713099
 21
79.037701
 31
0.0
  0
LINE
  5
116
100
AcDbEntity
  8
Cut
 62
7
100
AcDbLine
 10
72.713099
 20
79.037701
 30
0.0
 11
69.538099
 21
79.037701
 31
0.0
  0
LINE
  5
117
100
AcDbEntity
  8
Cut
 62
7
100
AcDbLine
 10
69.538099
 20
79.037701
 30
0.0
 11
69.538099
 21
72.687701
 31
0.0
  0
LINE
  5
118
100
AcDbEntity
  8
Cut
 62
7
100
AcDbLine
 10
69.538099
 20
72.687701
 30
0.0
 11
72.713099
 21
72.687701
 31
0.0
  0
LINE
  5
119
100
AcDbEntity
  8
Cut
 62
7
100
AcDbLine
 10
72.713099
 20
72.687701
 30
0.0
 11
72.713099
 21
66.337701
 31
0.0
  0
LINE
  5
11a
100
AcDbEntity
  8
Cut
 62
7
100
AcDbLine
 10
72.713099
 20
66.337701
 30
0.0
 11
69.538099
 21
66.337701
 31
0.0
  0
LINE
  5
11b
100
AcDbEntity
  8
Cut
 62
7
100
AcDbLine
 10
69.538099
 20
66.337701
 30
0.0
 11
69.538099
 21
59.987701
 31
0.0
  0
LINE
  5
11c
100
AcDbEntity
  8
Cut
 62
7
100
AcDbLine
 10
69.538099
 20
59.987701
 30
0.0
 11
72.713099
 21
59.987701
 31
0.0
  0
LINE
  5
11d
100
AcDbEntity
  8
Cut
 62
7
100
AcDbLine
 10
72.713099
 20
59.987701
 30
0.0
 11
72.713099
 21
53.637701
 31
0.0
  0
LINE
  5
11e
100
AcDbEntity
  8
Cut
 62
7
100
AcDbLine
 10
72.713099
 20
53.637701
 30
0.0
 11
69.538099
 21
53.637701
 31
0.0
  0
LINE
  5
11f
100
AcDbEntity
  8
Cut
 62
7
100
AcDbLine
 10
69.538099
 20
53.637701
 30
0.0
 11
69.538099
 21
47.287701
 31
0.0
  0
LINE
  5
120
100
AcDbEntity
  8
Cut
 62
7
100
AcDbLine
 10
69.538099
 20
47.287701
 30
0.0
 11
72.713099
 21
47.287701
 31
0.0
  0
LINE
  5
121
100
AcDbEntity
  8
Cut
 62
7
100
AcDbLine
 10
72.713099
 20
47.287701
 30
0.0
 11
72.713099
 21
39.350201
 31
0.0
  0
LINE
  5
122
100
AcDbEntity
  8
Cut
 62
7
100
AcDbLine
 10
72.713099
 20
39.350201
 30
0.0
 11
69.538099
 21
39.350201
 31
0.0
  0
LINE
  5
123
100
AcDbEntity
  8
Cut
 62
7
100
AcDbLine
 10
69.538099
 20
39.350201
 30
0.0
 11
69.538099
 21
31.412701
 31
0.0
  0
LINE
  5
124
100
AcDbEntity
  8
Cut
 62
7
100
AcDbLine
 10
133.086695
 20
9.187704
 30
0.0
 11
140.071695
 21
9.187704
 31
0.0
  0
LINE
  5
125
100
AcDbEntity
  8
Cut
 62
7
100
AcDbLine
 10
140.071695
 20
9.187704
 30
0.0
 11
140.071695
 21
6.012704
 31
0.0
  0
LINE
  5
126
100
AcDbEntity
  8
Cut
 62
7
100
AcDbLine
 10
140.071695
 20
6.012704
 30
0.0
 11
147.056695
 21
6.012704
 31
0.0
  0
LINE
  5
127
100
AcDbEntity
  8
Cut
 62
7
100
AcDbLine
 10
147.056695
 20
6.012704
 30
0.0
 11
147.056695
 21
9.187704
 31
0.0
  0
LINE
  5
128
100
AcDbEntity
  8
Cut
 62
7
100
AcDbLine
 10
147.056695
 20
9.187704
 30
0.0
 11
154.041695
 21
9.187704
 31
0.0
  0
LINE
  5
129
100
AcDbEntity
  8
Cut
 62
7
100
AcDbLine
 10
154.041695
 20
9.187704
 30
0.0
 11
154.041695
 21
6.012704
 31
0.0
  0
LINE
  5
12a
100
AcDbEntity
  8
Cut
 62
7
100
AcDbLine
 10
154.041695
 20
6.012704
 30
0.0
 11
161.026695
 21
6.012704
 31
0.0
  0
LINE
  5
12b
100
AcDbEntity
  8
Cut
 62
7
100
AcDbLine
 10
161.026695
 20
6.012704
 30
0.0
 11
161.026695
 21
9.187704
 31
0.0
  0
LINE
  5
12c
100
AcDbEntity
  8
Cut
 62
7
100
AcDbLine
 10
161.026695
 20
9.187704
 30
0.0
 11
164.833938
 21
9.187704
 31
0.0
  0
LINE
  5
12d
100
AcDbEntity
  8
Cut
 62
7
100
AcDbLine
 10
164.833938
 20
9.187704
 30
0.0
 11
164.833938
 21
91.737704
 31
0.0
  0
LINE
  5
12e
100
AcDbEntity
  8
Cut
 62
7
100
AcDbLine
 10
164.833938
 20
91.737704
 30
0.0
 11
161.026695
 21
91.737704
 31
0.0
  0
LINE
  5
12f
100
AcDbEntity
  8
Cut
 62
7
100
AcDbLine
 10
161.026695
 20
91.737704
 30
0.0
 11
161.026695
 21
94.912704
 31
0.0
  0
LINE
  5
130
100
AcDbEntity
  8
Cut
 62
7
100
AcDbLine
 10
161.026695
 20
94.912704
 30
0.0
 11
154.041695
 21
94.912704
 31
0.0
  0
LINE
  5
131
100
AcDbEntity
  8
Cut
 62
7
100
AcDbLine
 10
154.041695
 20
94.912704
 30
0.0
 11
154.041695
 21
91.737704
 31
0.0
  0
LINE
  5
132
100
AcDbEntity
  8
Cut
 62
7
100
AcDbLine
 10
154.041695
 20
91.737704
 30
0.0
 11
147.056695
 21
91.737704
 31
0.0
  0
LINE
  5
133
100
AcDbEntity
  8
Cut
 62
7
100
AcDbLine
 10
147.056695
 20
91.737704
 30
0.0
 11
147.056695
 21
94.912704
 31
0.0
  0
LINE
  5
134
100
AcDbEntity
  8
Cut
 62
7
100
AcDbLine
 10
147.056695
 20
94.912704
 30
0.0
 11
140.071695
 21
94.912704
 31
0.0
  0
LINE
  5
135
100
AcDbEntity
  8
Cut
 62
7
100
AcDbLine
 10
140.071695
 20
94.912704
 30
0.0
 11
140.071695
 21
91.737704
 31
0.0
  0
LINE
  5
136
100
AcDbEntity
  8
Cut
 62
7
100
AcDbLine
 10
140.071695
 20
91.737704
 30
0.0
 11
133.086695
 21
91.737704
 31
0.0
  0
LINE
  5
137
100
AcDbEntity
  8
Cut
 62
7
100
AcDbLine
 10
133.086695
 20
91.737704
 30
0.0
 11
133.086695
 21
86.975204
 31
0.0
  0
LINE
  5
138
100
AcDbEntity
  8
Cut
 62
7
100
AcDbLine
 10
133.086695
 20
86.975204
 30
0.0
 11
136.261695
 21
86.975204
 31
0.0
  0
LINE
  5
139
100
AcDbEntity
  8
Cut
 62
7
100
AcDbLine
 10
136.261695
 20
86.975204
 30
0.0
 11
136.261695
 21
79.037704
 31
0.0
  0
LINE
  5
13a
100
AcDbEntity
  8
Cut
 62
7
100
AcDbLine
 10
136.261695
 20
79.037704
 30
0.0
 11
133.086695
 21
79.037704
 31
0.0
  0
LINE
  5
13b
100
AcDbEntity
  8
Cut
 62
7
100
AcDbLine
 10
133.086695
 20
79.037704
 30
0.0
 11
133.086695
 21
72.687704
 31
0.0
  0
LINE
  5
13c
100
AcDbEntity
  8
Cut
 62
7
100
AcDbLine
 10
133.086695
 20
72.687704
 30
0.0
 11
136.261695
 21
72.687704
 31
0.0
  0
LINE
  5
13d
100
AcDbEntity
  8
Cut
 62
7
100
AcDbLine
 10
136.261695
 20
72.687704
 30
0.0
 11
136.261695
 21
66.337704
 31
0.0
  0
LINE
  5
13e
100
AcDbEntity
  8
Cut
 62
7
100
AcDbLine
 10
136.261695
 20
66.337704
 30
0.0
 11
133.086695
 21
66.337704
 31
0.0
  0
LINE
  5
13f
100
AcDbEntity
  8
Cut
 62
7
100
AcDbLine
 10
133.086695
 20
66.337704
 30
0.0
 11
133.086695
 21
59.987704
 31
0.0
  0
LINE
  5
140
100
AcDbEntity
  8
Cut
 62
7
100
AcDbLine
 10
133.086695
 20
59.987704
 30
0.0
 11
136.261695
 21
59.987704
 31
0.0
  0
LINE
  5
141
100
AcDbEntity
  8
Cut
 62
7
100
AcDbLine
 10
136.261695
 20
59.987704
 30
0.0
 11
136.261695
 21
53.637704
 31
0.0
  0
LINE
  5
142
100
AcDbEntity
  8
Cut
 62
7
100
AcDbLine
 10
136.261695
 20
53.637704
 30
0.0
 11
133.086695
 21
53.637704
 31
0.0
  0
LINE
  5
143
100
AcDbEntity
  8
Cut
 62
7
100
AcDbLine
 10
133.086695
 20
53.637704
 30
0.0
 11
133.086695
 21
47.287704
 31
0.0
  0
LINE
  5
144
100
AcDbEntity
  8
Cut
 62
7
100
AcDbLine
 10
133.086695
 20
47.287704
 30
0.0
 11
136.261695
 21
47.287704
 31
0.0
  0
LINE
  5
145
100
AcDbEntity
  8
Cut
 62
7
100
AcDbLine
 10
136.261695
 20
47.287704
 30
0.0
 11
136.261695
 21
40.937704
 31
0.0
  0
LINE
  5
146
100
AcDbEntity
  8
Cut
 62
7
100
AcDbLine
 10
136.261695
 20
40.937704
 30
0.0
 11
133.086695
 21
40.937704
 31
0.0
  0
LINE
  5
147
100
AcDbEntity
  8
Cut
 62
7
100
AcDbLine
 10
133.086695
 20
40.937704
 30
0.0
 11
133.086695
 21
34.587704
 31
0.0
  0
LINE
  5
148
100
AcDbEntity
  8
Cut
 62
7
100
AcDbLine
 10
133.086695
 20
34.587704
 30
0.0
 11
136.261695
 21
34.587704
 31
0.0
  0
LINE
  5
149
100
AcDbEntity
  8
Cut
 62
7
100
AcDbLine
 10
136.261695
 20
34.587704
 30
0.0
 11
136.261695
 21
28.237704
 31
0.0
  0
LINE
  5
14a
100
AcDbEntity
  8
Cut
 62
7
100
AcDbLine
 10
136.261695
 20
28.237704
 30
0.0
 11
133.086695
 21
28.237704
 31
0.0
  0
LINE
  5
14b
100
AcDbEntity
  8
Cut
 62
7
100
AcDbLine
 10
133.086695
 20
28.237704
 30
0.0
 11
133.086695
 21
21.887704
 31
0.0
  0
LINE
  5
14c
100
AcDbEntity
  8
Cut
 62
7
100
AcDbLine
 10
133.086695
 20
21.887704
 30
0.0
 11
136.261695
 21
21.887704
 31
0.0
  0
LINE
  5
14d
100
AcDbEntity
  8
Cut
 62
7
100
AcDbLine
 10
136.261695
 20
21.887704
 30
0.0
 11
136.261695
 21
13.950204
 31
0.0
  0
LINE
  5
14e
100
AcDbEntity
  8
Cut
 62
7
100
AcDbLine
 10
136.261695
 20
13.950204
 30
0.0
 11
133.086695
 21
13.950204
 31
0.0
  0
LINE
  5
14f
100
AcDbEntity
  8
Cut
 62
7
100
AcDbLine
 10
133.086695
 20
13.950204
 30
0.0
 11
133.086695
 21
9.187704
 31
0.0
  0
LINE
  5
150
100
AcDbEntity
  8
Cut
 62
7
100
AcDbLine
 10
9.187700
 20
91.737700
 30
0.0
 11
13.950200
 21
91.737700
 31
0.0
  0
LINE
  5
151
100
AcDbEntity
  8
Cut
 62
7
100
AcDbLine
 10
13.950200
 20
91.737700
 30
0.0
 11
13.950200
 21
94.912700
 31
0.0
  0
LINE
  5
152
100
AcDbEntity
  8
Cut
 62
7
100
AcDbLine
 10
13.950200
 20
94.912700
 30
0.0
 11
21.887700
 21
94.912700
 31
0.0
  0
LINE
  5
153
100
AcDbEntity
  8
Cut
 62
7
100
AcDbLine
 10
21.887700
 20
94.912700
 30
0.0
 11
21.887700
 21
91.737700
 31
0.0
  0
LINE
  5
154
100
AcDbEntity
  8
Cut
 62
7
100
AcDbLine
 10
21.887700
 20
91.737700
 30
0.0
 11
28.237699
 21
91.737700
 31
0.0
  0
LINE
  5
155
100
AcDbEntity
  8
Cut
 62
7
100
AcDbLine
 10
28.237699
 20
91.737700
 30
0.0
 11
28.237699
 21
94.912700
 31
0.0
  0
LINE
  5
156
100
AcDbEntity
  8
Cut
 62
7
100
AcDbLine
 10
28.237699
 20
94.912700
 30
0.0
 11
34.587699
 21
94.912700
 31
0.0
  0
LINE
  5
157
100
AcDbEntity
  8
Cut
 62
7
100
AcDbLine
 10
34.587699
 20
94.912700
 30
0.0
 11
34.587699
 21
91.737700
 31
0.0
  0
LINE
  5
158
100
AcDbEntity
  8
Cut
 62
7
100
AcDbLine
 10
34.587699
 20
91.737700
 30
0.0
 11
40.937699
 21
91.737700
 31
0.0
  0
LINE
  5
159
100
AcDbEntity
  8
Cut
 62
7
100
AcDbLine
 10
40.937699
 20
91.737700
 30
0.0
 11
40.937699
 21
94.912700
 31
0.0
  0
LINE
  5
15a
100
AcDbEntity
  8
Cut
 62
7
100
AcDbLine
 10
40.937699
 20
94.912700
 30
0.0
 11
47.287699
 21
94.912700
 31
0.0
  0
LINE
  5
15b
100
AcDbEntity
  8
Cut
 62
7
100
AcDbLine
 10
47.287699
 20
94.912700
 30
0.0
 11
47.287699
 21
91.737700
 31
0.0
  0
LINE
  5
15c
100
AcDbEntity
  8
Cut
 62
7
100
AcDbLine
 10
47.287699
 20
91.737700
 30
0.0
 11
53.637699
 21
91.737700
 31
0.0
  0
LINE
  5
15d
100
AcDbEntity
  8
Cut
 62
7
100
AcDbLine
 10
53.637699
 20
91.737700
 30
0.0
 11
53.637699
 21
94.912700
 31
0.0
  0
LINE
  5
15e
100
AcDbEntity
  8
Cut
 62
7
100
AcDbLine
 10
53.637699
 20
94.912700
 30
0.0
 11
61.575199
 21
94.912700
 31
0.0
  0
LINE
  5
15f
100
AcDbEntity
  8
Cut
 62
7
100
AcDbLine
 10
61.575199
 20
94.912700
 30
0.0
 11
61.575199
 21
91.737700
 31
0.0
  0
LINE
  5
160
100
AcDbEntity
  8
Cut
 62
7
100
AcDbLine
 10
61.575199
 20
91.737700
 30
0.0
 11
66.337699
 21
91.737700
 31
0.0
  0
LINE
  5
161
100
AcDbEntity
  8
Cut
 62
7
100
AcDbLine
 10
66.337699
 20
91.737700
 30
0.0
 11
66.337699
 21
86.975200
 31
0.0
  0
LINE
  5
162
100
AcDbEntity
  8
Cut
 62
7
100
AcDbLine
 10
66.337699
 20
86.975200
 30
0.0
 11
69.512699
 21
86.975200
 31
0.0
  0
LINE
  5
163
100
AcDbEntity
  8
Cut
 62
7
100
AcDbLine
 10
69.512699
 20
86.975200
 30
0.0
 11
69.512699
 21
79.037700
 31
0.0
  0
LINE
  5
164
100
AcDbEntity
  8
Cut
 62
7
100
AcDbLine
 10
69.512699
 20
79.037700
 30
0.0
 11
66.337699
 21
79.037700
 31
0.0
  0
LINE
  5
165
100
AcDbEntity
  8
Cut
 62
7
100
AcDbLine
 10
66.337699
 20
79.037700
 30
0.0
 11
66.337699
 21
72.687701
 31
0.0
  0
LINE
  5
166
100
AcDbEntity
  8
Cut
 62
7
100
AcDbLine
 10
66.337699
 20
72.687701
 30
0.0
 11
69.512699
 21
72.687701
 31
0.0
  0
LINE
  5
167
100
AcDbEntity
  8
Cut
 62
7
100
AcDbLine
 10
69.512699
 20
72.687701
 30
0.0
 11
69.512699
 21
66.337701
 31
0.0
  0
LINE
  5
168
100
AcDbEntity
  8
Cut
 62
7
100
AcDbLine
 10
69.512699
 20
66.337701
 30
0.0
 11
66.337699
 21
66.337701
 31
0.0
  0
LINE
  5
169
100
AcDbEntity
  8
Cut
 62
7
100
AcDbLine
 10
66.337699
 20
66.337701
 30
0.0
 11
66.337699
 21
59.987701
 31
0.0
  0
LINE
  5
16a
100
AcDbEntity
  8
Cut
 62
7
100
AcDbLine
 10
66.337699
 20
59.987701
 30
0.0
 11
69.512699
 21
59.987701
 31
0.0
  0
LINE
  5
16b
100
AcDbEntity
  8
Cut
 62
7
100
AcDbLine
 10
69.512699
 20
59.987701
 30
0.0
 11
69.512699
 21
53.637701
 31
0.0
  0
LINE
  5
16c
100
AcDbEntity
  8
Cut
 62
7
100
AcDbLine
 10
69.512699
 20
53.637701
 30
0.0
 11
66.337699
 21
53.637701
 31
0.0
  0
LINE
  5
16d
100
AcDbEntity
  8
Cut
 62
7
100
AcDbLine
 10
66.337699
 20
53.637701
 30
0.0
 11
66.337699
 21
47.287701
 31
0.0
  0
LINE
  5
16e
100
AcDbEntity
  8
Cut
 62
7
100
AcDbLine
 10
66.337699
 20
47.287701
 30
0.0
 11
69.512699
 21
47.287701
 31
0.0
  0
LINE
  5
16f
100
AcDbEntity
  8
Cut
 62
7
100
AcDbLine
 10
69.512699
 20
47.287701
 30
0.0
 11
69.512699
 21
40.937701
 31
0.0
  0
LINE
  5
170
100
AcDbEntity
  8
Cut
 62
7
100
AcDbLine
 10
69.512699
 20
40.937701
 30
0.0
 11
66.337699
 21
40.937701
 31
0.0
  0
LINE
  5
171
100
AcDbEntity
  8
Cut
 62
7
100
AcDbLine
 10
66.337699
 20
40.937701
 30
0.0
 11
66.337699
 21
34.587701
 31
0.0
  0
LINE
  5
172
100
AcDbEntity
  8
Cut
 62
7
100
AcDbLine
 10
66.337699
 20
34.587701
 30
0.0
 11
69.512699
 21
34.587701
 31
0.0
  0
LINE
  5
173
100
AcDbEntity
  8
Cut
 62
7
100
AcDbLine
 10
69.512699
 20
34.587701
 30
0.0
 11
69.512699
 21
28.237701
 31
0.0
  0
LINE
  5
174
100
AcDbEntity
  8
Cut
 62
7
100
AcDbLine
 10
69.512699
 20
28.237701
 30
0.0
 11
66.337699
 21
28.237701
 31
0.0
  0
LINE
  5
175
100
AcDbEntity
  8
Cut
 62
7
100
AcDbLine
 10
66.337699
 20
28.237701
 30
0.0
 11
66.337699
 21
21.887701
 31
0.0
  0
LINE
  5
176
100
AcDbEntity
  8
Cut
 62
7
100
AcDbLine
 10
66.337699
 20
21.887701
 30
0.0
 11
69.512699
 21
21.887701
 31
0.0
  0
LINE
  5
177
100
AcDbEntity
  8
Cut
 62
7
100
AcDbLine
 10
69.512699
 20
21.887701
 30
0.0
 11
69.512699
 21
13.950201
 31
0.0
  0
LINE
  5
178
100
AcDbEntity
  8
Cut
 62
7
100
AcDbLine
 10
69.512699
 20
13.950201
 30
0.0
 11
66.337699
 21
13.950201
 31
0.0
  0
LINE
  5
179
100
AcDbEntity
  8
Cut
 62
7
100
AcDbLine
 10
66.337699
 20
13.950201
 30
0.0
 11
66.337699
 21
9.187701
 31
0.0
  0
LINE
  5
17a
100
AcDbEntity
  8
Cut
 62
7
100
AcDbLine
 10
66.337699
 20
9.187701
 30
0.0
 11
61.575199
 21
9.187701
 31
0.0
  0
LINE
  5
17b
100
AcDbEntity
  8
Cut
 62
7
100
AcDbLine
 10
61.575199
 20
9.187701
 30
0.0
 11
61.575199
 21
6.012701
 31
0.0
  0
LINE
  5
17c
100
AcDbEntity
  8
Cut
 62
7
100
AcDbLine
 10
61.575199
 20
6.012701
 30
0.0
 11
53.637699
 21
6.012701
 31
0.0
  0
LINE
  5
17d
100
AcDbEntity
  8
Cut
 62
7
100
AcDbLine
 10
53.637699
 20
6.012701
 30
0.0
 11
53.637699
 21
9.187701
 31
0.0
  0
LINE
  5
17e
100
AcDbEntity
  8
Cut
 62
7
100
AcDbLine
 10
53.637699
 20
9.187701
 30
0.0
 11
47.287699
 21
9.187701
 31
0.0
  0
LINE
  5
17f
100
AcDbEntity
  8
Cut
 62
7
100
AcDbLine
 10
47.287699
 20
9.187701
 30
0.0
 11
47.287699
 21
6.012701
 31
0.0
  0
LINE
  5
180
100
AcDbEntity
  8
Cut
 62
7
100
AcDbLine
 10
47.287699
 20
6.012701
 30
0.0
 11
40.937699
 21
6.012701
 31
0.0
  0
LINE
  5
181
100
AcDbEntity
  8
Cut
 62
7
100
AcDbLine
 10
40.937699
 20
6.012701
 30
0.0
 11
40.937699
 21
9.187701
 31
0.0
  0
LINE
  5
182
100
AcDbEntity
  8
Cut
 62
7
100
AcDbLine
 10
40.937699
 20
9.187701
 30
0.0
 11
34.587699
 21
9.187701
 31
0.0
  0
LINE
  5
183
100
AcDbEntity
  8
Cut
 62
7
100
AcDbLine
 10
34.587699
 20
9.187701
 30
0.0
 11
34.587699
 21
6.012701
 31
0.0
  0
LINE
  5
184
100
AcDbEntity
  8
Cut
 62
7
100
AcDbLine
 10
34.587699
 20
6.012701
 30
0.0
 11
28.237699
 21
6.012701
 31
0.0
  0
LINE
  5
185
100
AcDbEntity
  8
Cut
 62
7
100
AcDbLine
 10
28.237699
 20
6.012701
 30
0.0
 11
28.237699
 21
9.187701
 31
0.0
  0
LINE
  5
186
100
AcDbEntity
  8
Cut
 62
7
100
AcDbLine
 10
28.237699
 20
9.187701
 30
0.0
 11
21.887700
 21
9.187701
 31
0.0
  0
LINE
  5
187
100
AcDbEntity
  8
Cut
 62
7
100
AcDbLine
 10
21.887700
 20
9.187701
 30
0.0
 11
21.887700
 21
6.012701
 31
0.0
  0
LINE
  5
188
100
AcDbEntity
  8
Cut
 62
7
100
AcDbLine
 10
21.887700
 20
6.012701
 30
0.0
 11
13.950200
 21
6.012701
 31
0.0
  0
LINE
  5
189
100
AcDbEntity
  8
Cut
 62
7
100
AcDbLine
 10
13.950200
 20
6.012701
 30
0.0
 11
13.950200
 21
9.187701
 31
0.0
  0
LINE
  5
18a
100
AcDbEntity
  8
Cut
 62
7
100
AcDbLine
 10
13.950200
 20
9.187701
 30
0.0
 11
9.187700
 21
9.187701
 31
0.0
  0
LINE
  5
18b
100
AcDbEntity
  8
Cut
 62
7
100
AcDbLine
 10
9.187700
 20
9.187701
 30
0.0
 11
9.187700
 21
13.950201
 31
0.0
  0
LINE
  5
18c
100
AcDbEntity
  8
Cut
 62
7
100
AcDbLine
 10
9.187700
 20
13.950201
 30
0.0
 11
6.012700
 21
13.950201
 31
0.0
  0
LINE
  5
18d
100
AcDbEntity
  8
Cut
 62
7
100
AcDbLine
 10
6.012700
 20
13.950201
 30
0.0
 11
6.012700
 21
21.887701
 31
0.0
  0
LINE
  5
18e
100
AcDbEntity
  8
Cut
 62
7
100
AcDbLine
 10
6.012700
 20
21.887701
 30
0.0
 11
9.187700
 21
21.887701
 31
0.0
  0
LINE
  5
18f
100
AcDbEntity
  8
Cut
 62
7
100
AcDbLine
 10
9.187700
 20
21.887701
 30
0.0
 11
9.187700
 21
28.237701
 31
0.0
  0
LINE
  5
190
100
AcDbEntity
  8
Cut
 62
7
100
AcDbLine
 10
9.187700
 20
28.237701
 30
0.0
 11
6.012700
 21
28.237701
 31
0.0
  0
LINE
  5
191
100
AcDbEntity
  8
Cut
 62
7
100
AcDbLine
 10
6.012700
 20
28.237701
 30
0.0
 11
6.012700
 21
34.587701
 31
0.0
  0
LINE
  5
192
100
AcDbEntity
  8
Cut
 62
7
100
AcDbLine
 10
6.012700
 20
34.587701
 30
0.0
 11
9.187700
 21
34.587701
 31
0.0
  0
LINE
  5
193
100
AcDbEntity
  8
Cut
 62
7
100
AcDbLine
 10
9.187700
 20
34.587701
 30
0.0
 11
9.187700
 21
40.937701
 31
0.0
  0
LINE
  5
194
100
AcDbEntity
  8
Cut
 62
7
100
AcDbLine
 10
9.187700
 20
40.937701
 30
0.0
 11
6.012700
 21
40.937701
 31
0.0
  0
LINE
  5
195
100
AcDbEntity
  8
Cut
 62
7
100
AcDbLine
 10
6.012700
 20
40.937701
 30
0.0
 11
6.012700
 21
47.287701
 31
0.0
  0
LINE
  5
196
100
AcDbEntity
  8
Cut
 62
7
100
AcDbLine
 10
6.012700
 20
47.287701
 30
0.0
 11
9.187700
 21
47.287701
 31
0.0
  0
LINE
  5
197
100
AcDbEntity
  8
Cut
 62
7
100
AcDbLine
 10
9.187700
 20
47.287701
 30
0.0
 11
9.187700
 21
53.637701
 31
0.0
  0
LINE
  5
198
100
AcDbEntity
  8
Cut
 62
7
100
AcDbLine
 10
9.187700
 20
53.637701
 30
0.0
 11
6.012700
 21
53.637701
 31
0.0
  0
LINE
  5
199
100
AcDbEntity
  8
Cut
 62
7
100
AcDbLine
 10
6.012700
 20
53.637701
 30
0.0
 11
6.012700
 21
59.987701
 31
0.0
  0
LINE
  5
19a
100
AcDbEntity
  8
Cut
 62
7
100
AcDbLine
 10
6.012700
 20
59.987701
 30
0.0
 11
9.187700
 21
59.987701
 31
0.0
  0
LINE
  5
19b
100
AcDbEntity
  8
Cut
 62
7
100
AcDbLine
 10
9.187700
 20
59.987701
 30
0.0
 11
9.187700
 21
66.337701
 31
0.0
  0
LINE
  5
19c
100
AcDbEntity
  8
Cut
 62
7
100
AcDbLine
 10
9.187700
 20
66.337701
 30
0.0
 11
6.012700
 21
66.337701
 31
0.0
  0
LINE
  5
19d
100
AcDbEntity
  8
Cut
 62
7
100
AcDbLine
 10
6.012700
 20
66.337701
 30
0.0
 11
6.012700
 21
72.687701
 31
0.0
  0
LINE
  5
19e
100
AcDbEntity
  8
Cut
 62
7
100
AcDbLine
 10
6.012700
 20
72.687701
 30
0.0
 11
9.187700
 21
72.687701
 31
0.0
  0
LINE
  5
19f
100
AcDbEntity
  8
Cut
 62
7
100
AcDbLine
 10
9.187700
 20
72.687701
 30
0.0
 11
9.187700
 21
79.037700
 31
0.0
  0
LINE
  5
1a0
100
AcDbEntity
  8
Cut
 62
7
100
AcDbLine
 10
9.187700
 20
79.037700
 30
0.0
 11
6.012700
 21
79.037700
 31
0.0
  0
LINE
  5
1a1
100
AcDbEntity
  8
Cut
 62
7
100
AcDbLine
 10
6.012700
 20
79.037700
 30
0.0
 11
6.012700
 21
86.975200
 31
0.0
  0
LINE
  5
1a2
100
AcDbEntity
  8
Cut
 62
7
100
AcDbLine
 10
6.012700
 20
86.975200
 30
0.0
 11
9.187700
 21
86.975200
 31
0.0
  0
LINE
  5
1a3
100
AcDbEntity
  8
Cut
 62
7
100
AcDbLine
 10
9.187700
 20
86.975200
 30
0.0
 11
9.187700
 21
91.737700
 31
0.0
  0
LINE
  5
1a4
100
AcDbEntity
  8
Cut
 62
7
100
AcDbLine
 10
101.312396
 20
31.412701
 30
0.0
 11
105.121292
 21
31.412701
 31
0.0
  0
LINE
  5
1a5
100
AcDbEntity
  8
Cut
 62
7
100
AcDbLine
 10
105.121292
 20
31.412701
 30
0.0
 11
105.121292
 21
34.587701
 31
0.0
  0
LINE
  5
1a6
100
AcDbEntity
  8
Cut
 62
7
100
AcDbLine
 10
105.121292
 20
34.587701
 30
0.0
 11
112.106292
 21
34.587701
 31
0.0
  0
LINE
  5
1a7
100
AcDbEntity
  8
Cut
 62
7
100
AcDbLine
 10
112.106292
 20
34.587701
 30
0.0
 11
112.106292
 21
31.412701
 31
0.0
  0
LINE
  5
1a8
100
AcDbEntity
  8
Cut
 62
7
100
AcDbLine
 10
112.106292
 20
31.412701
 30
0.0
 11
119.091292
 21
31.412701
 31
0.0
  0
LINE
  5
1a9
100
AcDbEntity
  8
Cut
 62
7
100
AcDbLine
 10
119.091292
 20
31.412701
 30
0.0
 11
119.091292
 21
34.587701
 31
0.0
  0
LINE
  5
1aa
100
AcDbEntity
  8
Cut
 62
7
100
AcDbLine
 10
119.091292
 20
34.587701
 30
0.0
 11
126.076292
 21
34.587701
 31
0.0
  0
LINE
  5
1ab
100
AcDbEntity
  8
Cut
 62
7
100
AcDbLine
 10
126.076292
 20
34.587701
 30
0.0
 11
126.076292
 21
31.412701
 31
0.0
  0
LINE
  5
1ac
100
AcDbEntity
  8
Cut
 62
7
100
AcDbLine
 10
126.076292
 20
31.412701
 30
0.0
 11
133.061295
 21
31.412701
 31
0.0
  0
LINE
  5
1ad
100
AcDbEntity
  8
Cut
 62
7
100
AcDbLine
 10
133.061295
 20
31.412701
 30
0.0
 11
133.061295
 21
39.350201
 31
0.0
  0
LINE
  5
1ae
100
AcDbEntity
  8
Cut
 62
7
100
AcDbLine
 10
133.061295
 20
39.350201
 30
0.0
 11
129.886295
 21
39.350201
 31
0.0
  0
LINE
  5
1af
100
AcDbEntity
  8
Cut
 62
7
100
AcDbLine
 10
129.886295
 20
39.350201
 30
0.0
 11
129.886295
 21
47.287701
 31
0.0
  0
LINE
  5
1b0
100
AcDbEntity
  8
Cut
 62
7
100
AcDbLine
 10
129.886295
 20
47.287701
 30
0.0
 11
133.061295
 21
47.287701
 31
0.0
  0
LINE
  5
1b1
100
AcDbEntity
  8
Cut
 62
7
100
AcDbLine
 10
133.061295
 20
47.287701
 30
0.0
 11
133.061295
 21
53.637701
 31
0.0
  0
LINE
  5
1b2
100
AcDbEntity
  8
Cut
 62
7
100
AcDbLine
 10
133.061295
 20
53.637701
 30
0.0
 11
129.886295
 21
53.637701
 31
0.0
  0
LINE
  5
1b3
100
AcDbEntity
  8
Cut
 62
7
100
AcDbLine
 10
129.886295
 20
53.637701
 30
0.0
 11
129.886295
 21
59.987701
 31
0.0
  0
LINE
  5
1b4
100
AcDbEntity
  8
Cut
 62
7
100
AcDbLine
 10
129.886295
 20
59.987701
 30
0.0
 11
133.061295
 21
59.987701
 31
0.0
  0
LINE
  5
1b5
100
AcDbEntity
  8
Cut
 62
7
100
AcDbLine
 10
133.061295
 20
59.987701
 30
0.0
 11
133.061295
 21
66.337701
 31
0.0
  0
LINE
  5
1b6
100
AcDbEntity
  8
Cut
 62
7
100
AcDbLine
 10
133.061295
 20
66.337701
 30
0.0
 11
129.886295
 21
66.337701
 31
0.0
  0
LINE
  5
1b7
100
AcDbEntity
  8
Cut
 62
7
100
AcDbLine
 10
129.886295
 20
66.337701
 30
0.0
 11
129.886295
 21
72.687701
 31
0.0
  0
LINE
  5
1b8
100
AcDbEntity
  8
Cut
 62
7
100
AcDbLine
 10
129.886295
 20
72.687701
 30
0.0
 11
133.061295
 21
72.687701
 31
0.0
  0
LINE
  5
1b9
100
AcDbEntity
  8
Cut
 62
7
100
AcDbLine
 10
133.061295
 20
72.687701
 30
0.0
 11
133.061295
 21
79.037700
 31
0.0
  0
LINE
  5
1ba
100
AcDbEntity
  8
Cut
 62
7
100
AcDbLine
 10
133.061295
 20
79.037700
 30
0.0
 11
129.886295
 21
79.037700
 31
0.0
  0
LINE
  5
1bb
100
AcDbEntity
  8
Cut
 62
7
100
AcDbLine
 10
129.886295
 20
79.037700
 30
0.0
 11
129.886295
 21
86.975200
 31
0.0
  0
LINE
  5
1bc
100
AcDbEntity
  8
Cut
 62
7
100
AcDbLine
 10
129.886295
 20
86.975200
 30
0.0
 11
133.061295
 21
86.975200
 31
0.0
  0
LINE
  5
1bd
100
AcDbEntity
  8
Cut
 62
7
100
AcDbLine
 10
133.061295
 20
86.975200
 30
0.0
 11
133.061295
 21
94.912700
 31
0.0
  0
LINE
  5
1be
100
AcDbEntity
  8
Cut
 62
7
100
AcDbLine
 10
133.061295
 20
94.912700
 30
0.0
 11
126.076292
 21
94.912700
 31
0.0
  0
LINE
  5
1bf
100
AcDbEntity
  8
Cut
 62
7
100
AcDbLine
 10
126.076292
 20
94.912700
 30
0.0
 11
126.076292
 21
91.737700
 31
0.0
  0
LINE
  5
1c0
100
AcDbEntity
  8
Cut
 62
7
100
AcDbLine
 10
126.076292
 20
91.737700
 30
0.0
 11
119.091292
 21
91.737700
 31
0.0
  0
LINE
  5
1c1
100
AcDbEntity
  8
Cut
 62
7
100
AcDbLine
 10
119.091292
 20
91.737700
 30
0.0
 11
119.091292
 21
94.912700
 31
0.0
  0
LINE
  5
1c2
100
AcDbEntity
  8
Cut
 62
7
100
AcDbLine
 10
119.091292
 20
94.912700
 30
0.0
 11
112.106292
 21
94.912700
 31
0.0
  0
LINE
  5
1c3
100
AcDbEntity
  8
Cut
 62
7
100
AcDbLine
 10
112.106292
 20
94.912700
 30
0.0
 11
112.106292
 21
91.737700
 31
0.0
  0
LINE
  5
1c4
100
AcDbEntity
  8
Cut
 62
7
100
AcDbLine
 10
112.106292
 20
91.737700
 30
0.0
 11
105.121292
 21
91.737700
 31
0.0
  0
LINE
  5
1c5
100
AcDbEntity
  8
Cut
 62
7
100
AcDbLine
 10
105.121292
 20
91.737700
 30
0.0
 11
105.121292
 21
94.912700
 31
0.0
  0
LINE
  5
1c6
100
AcDbEntity
  8
Cut
 62
7
100
AcDbLine
 10
105.121292
 20
94.912700
 30
0.0
 11
101.312396
 21
94.912700
 31
0.0
  0
LINE
  5
1c7
100
AcDbEntity
  8
Cut
 62
7
100
AcDbLine
 10
164.859332
 20
9.187701
 30
0.0
 11
168.666595
 21
9.187701
 31
0.0
  0
LINE
  5
1c8
100
AcDbEntity
  8
Cut
 62
7
100
AcDbLine
 10
168.666595
 20
9.187701
 30
0.0
 11
168.666595
 21
6.012701
 31
0.0
  0
LINE
  5
1c9
100
AcDbEntity
  8
Cut
 62
7
100
AcDbLine
 10
168.666595
 20
6.012701
 30
0.0
 11
175.651595
 21
6.012701
 31
0.0
  0
LINE
  5
1ca
100
AcDbEntity
  8
Cut
 62
7
100
AcDbLine
 10
175.651595
 20
6.012701
 30
0.0
 11
175.651595
 21
9.187701
 31
0.0
  0
LINE
  5
1cb
100
AcDbEntity
  8
Cut
 62
7
100
AcDbLine
 10
175.651595
 20
9.187701
 30
0.0
 11
182.636595
 21
9.187701
 31
0.0
  0
LINE
  5
1cc
100
AcDbEntity
  8
Cut
 62
7
100
AcDbLine
 10
182.636595
 20
9.187701
 30
0.0
 11
182.636595
 21
6.012701
 31
0.0
  0
LINE
  5
1cd
100
AcDbEntity
  8
Cut
 62
7
100
AcDbLine
 10
182.636595
 20
6.012701
 30
0.0
 11
189.621595
 21
6.012701
 31
0.0
  0
LINE
  5
1ce
100
AcDbEntity
  8
Cut
 62
7
100
AcDbLine
 10
189.621595
 20
6.012701
 30
0.0
 11
189.621595
 21
9.187701
 31
0.0
  0
LINE
  5
1cf
100
AcDbEntity
  8
Cut
 62
7
100
AcDbLine
 10
189.621595
 20
9.187701
 30
0.0
 11
196.606566
 21
9.187701
 31
0.0
  0
LINE
  5
1d0
100
AcDbEntity
  8
Cut
 62
7
100
AcDbLine
 10
196.606566
 20
9.187701
 30
0.0
 11
196.606566
 21
13.950201
 31
0.0
  0
LINE
  5
1d1
100
AcDbEntity
  8
Cut
 62
7
100
AcDbLine
 10
196.606566
 20
13.950201
 30
0.0
 11
193.431566
 21
13.950201
 31
0.0
  0
LINE
  5
1d2
100
AcDbEntity
  8
Cut
 62
7
100
AcDbLine
 10
193.431566
 20
13.950201
 30
0.0
 11
193.431566
 21
21.887701
 31
0.0
  0
LINE
  5
1d3
100
AcDbEntity
  8
Cut
 62
7
100
AcDbLine
 10
193.431566
 20
21.887701
 30
0.0
 11
196.606566
 21
21.887701
 31
0.0
  0
LINE
  5
1d4
100
AcDbEntity
  8
Cut
 62
7
100
AcDbLine
 10
196.606566
 20
21.887701
 30
0.0
 11
196.606566
 21
28.237701
 31
0.0
  0
LINE
  5
1d5
100
AcDbEntity
  8
Cut
 62
7
100
AcDbLine
 10
196.606566
 20
28.237701
 30
0.0
 11
193.431566
 21
28.237701
 31
0.0
  0
LINE
  5
1d6
100
AcDbEntity
  8
Cut
 62
7
100
AcDbLine
 10
193.431566
 20
28.237701
 30
0.0
 11
193.431566
 21
34.587701
 31
0.0
  0
LINE
  5
1d7
100
AcDbEntity
  8
Cut
 62
7
100
AcDbLine
 10
193.431566
 20
34.587701
 30
0.0
 11
196.606566
 21
34.587701
 31
0.0
  0
LINE
  5
1d8
100
AcDbEntity
  8
Cut
 62
7
100
AcDbLine
 10
196.606566
 20
34.587701
 30
0.0
 11
196.606566
 21
40.937701
 31
0.0
  0
LINE
  5
1d9
100
AcDbEntity
  8
Cut
 62
7
100
AcDbLine
 10
196.606566
 20
40.937701
 30
0.0
 11
193.431566
 21
40.937701
 31
0.0
  0
LINE
  5
1da
100
AcDbEntity
  8
Cut
 62
7
100
AcDbLine
 10
193.431566
 20
40.937701
 30
0.0
 11
193.431566
 21
47.287701
 31
0.0
  0
LINE
  5
1db
100
AcDbEntity
  8
Cut
 62
7
100
AcDbLine
 10
193.431566
 20
47.287701
 30
0.0
 11
196.606566
 21
47.287701
 31
0.0
  0
LINE
  5
1dc
100
AcDbEntity
  8
Cut
 62
7
100
AcDbLine
 10
196.606566
 20
47.287701
 30
0.0
 11
196.606566
 21
53.637701
 31
0.0
  0
LINE
  5
1dd
100
AcDbEntity
  8
Cut
 62
7
100
AcDbLine
 10
196.606566
 20
53.637701
 30
0.0
 11
193.431566
 21
53.637701
 31
0.0
  0
LINE
  5
1de
100
AcDbEntity
  8
Cut
 62
7
100
AcDbLine
 10
193.431566
 20
53.637701
 30
0.0
 11
193.431566
 21
59.987701
 31
0.0
  0
LINE
  5
1df
100
AcDbEntity
  8
Cut
 62
7
100
AcDbLine
 10
193.431566
 20
59.987701
 30
0.0
 11
196.606566
 21
59.987701
 31
0.0
  0
LINE
  5
1e0
100
AcDbEntity
  8
Cut
 62
7
100
AcDbLine
 10
196.606566
 20
59.987701
 30
0.0
 11
196.606566
 21
66.337701
 31
0.0
  0
LINE
  5
1e1
100
AcDbEntity
  8
Cut
 62
7
100
AcDbLine
 10
196.606566
 20
66.337701
 30
0.0
 11
193.431566
 21
66.337701
 31
0.0
  0
LINE
  5
1e2
100
AcDbEntity
  8
Cut
 62
7
100
AcDbLine
 10
193.431566
 20
66.337701
 30
0.0
 11
193.431566
 21
72.687701
 31
0.0
  0
LINE
  5
1e3
100
AcDbEntity
  8
Cut
 62
7
100
AcDbLine
 10
193.431566
 20
72.687701
 30
0.0
 11
196.606566
 21
72.687701
 31
0.0
  0
LINE
  5
1e4
100
AcDbEntity
  8
Cut
 62
7
100
AcDbLine
 10
196.606566
 20
72.687701
 30
0.0
 11
196.606566
 21
79.037700
 31
0.0
  0
LINE
  5
1e5
100
AcDbEntity
  8
Cut
 62
7
100
AcDbLine
 10
196.606566
 20
79.037700
 30
0.0
 11
193.431566
 21
79.037700
 31
0.0
  0
LINE
  5
1e6
100
AcDbEntity
  8
Cut
 62
7
100
AcDbLine
 10
193.431566
 20
79.037700
 30
0.0
 11
193.431566
 21
86.975200
 31
0.0
  0
LINE
  5
1e7
100
AcDbEntity
  8
Cut
 62
7
100
AcDbLine
 10
193.431566
 20
86.975200
 30
0.0
 11
196.606566
 21
86.975200
 31
0.0
  0
LINE
  5
1e8
100
AcDbEntity
  8
Cut
 62
7
100
AcDbLine
 10
196.606566
 20
86.975200
 30
0.0
 11
196.606566
 21
91.737700
 31
0.0
  0
LINE
  5
1e9
100
AcDbEntity
  8
Cut
 62
7
100
AcDbLine
 10
196.606566
 20
91.737700
 30
0.0
 11
189.621595
 21
91.737700
 31
0.0
  0
LINE
  5
1ea
100
AcDbEntity
  8
Cut
 62
7
100
AcDbLine
 10
189.621595
 20
91.737700
 30
0.0
 11
189.621595
 21
94.912700
 31
0.0
  0
LINE
  5
1eb
100
AcDbEntity
  8
Cut
 62
7
100
AcDbLine
 10
189.621595
 20
94.912700
 30
0.0
 11
182.636595
 21
94.912700
 31
0.0
  0
LINE
  5
1ec
100
AcDbEntity
  8
Cut
 62
7
100
AcDbLine
 10
182.636595
 20
94.912700
 30
0.0
 11
182.636595
 21
91.737700
 31
0.0
  0
LINE
  5
1ed
100
AcDbEntity
  8
Cut
 62
7
100
AcDbLine
 10
182.636595
 20
91.737700
 30
0.0
 11
175.651595
 21
91.737700
 31
0.0
  0
LINE
  5
1ee
100
AcDbEntity
  8
Cut
 62
7
100
AcDbLine
 10
175.651595
 20
91.737700
 30
0.0
 11
175.651595
 21
94.912700
 31
0.0
  0
LINE
  5
1ef
100
AcDbEntity
  8
Cut
 62
7
100
AcDbLine
 10
175.651595
 20
94.912700
 30
0.0
 11
168.666595
 21
94.912700
 31
0.0
  0
LINE
  5
1f0
100
AcDbEntity
  8
Cut
 62
7
100
AcDbLine
 10
168.666595
 20
94.912700
 30
0.0
 11
168.666595
 21
91.737700
 31
0.0
  0
LINE
  5
1f1
100
AcDbEntity
  8
Cut
 62
7
100
AcDbLine
 10
168.666595
 20
91.737700
 30
0.0
 11
164.859332
 21
91.737700
 31
0.0
  0
LINE
  5
1f2
100
AcDbEntity
  8
Cut
 62
5
100
AcDbLine
 10
14.662699
 20
94.912700
 30
0.0
 11
25.162699
 21
94.912700
 31
0.0
  0
LINE
  5
1f3
100
AcDbEntity
  8
Cut
 62
5
100
AcDbLine
 10
25.162699
 20
94.912700
 30
0.0
 11
25.162699
 21
74.912700
 31
0.0
  0
LINE
  5
1f4
100
AcDbEntity
  8
Cut
 62
5
100
AcDbLine
 10
25.162699
 20
74.912700
 30
0.0
 11
14.662699
 21
74.912700
 31
0.0
  0
LINE
  5
1f5
100
AcDbEntity
  8
Cut
 62
5
100
AcDbLine
 10
14.662699
 20
74.912700
 30
0.0
 11
14.662699
 21
94.912700
 31
0.0
  0
LINE
  5
1f6
100
AcDbEntity
  8
Cut
 62
5
100
AcDbLine
 10
72.738101
 20
86.262701
 30
0.0
 11
72.738101
 21
75.762701
 31
0.0
  0
LINE
  5
1f7
100
AcDbEntity
  8
Cut
 62
5
100
AcDbLine
 10
72.738101
 20
75.762701
 30
0.0
 11
69.538102
 21
75.762701
 31
0.0
  0
LINE
  5
1f8
100
AcDbEntity
  8
Cut
 62
5
100
AcDbLine
 10
69.538102
 20
75.762701
 30
0.0
 11
69.538102
 21
86.262701
 31
0.0
  0
LINE
  5
1f9
100
AcDbEntity
  8
Cut
 62
5
100
AcDbLine
 10
69.538102
 20
86.262701
 30
0.0
 11
72.738101
 21
86.262701
 31
0.0
  0
ENDSEC
  0
SECTION
  2
OBJECTS
  0
DICTIONARY
  5
C
330
0
100
AcDbDictionary
  3
ACAD_GROUP
350
D
  3
ACAD_MLINESTYLE
350
17
  0
DICTIONARY
  5
D
330
C
100
AcDbDictionary
  0
DICTIONARY
  5
1A
330
C
100
AcDbDictionary
  0
DICTIONARY
  5
17
330
C
100
AcDbDictionary
  3
STANDARD
350
18
  0
DICTIONARY
  5
19
330
C
100
AcDbDictionary
  0
ENDSEC
  0
EOF
