  0
SECTION
  2
HEADER
  9
$ACADVER
  1
AC1014
  9
$HANDSEED
  5
FFFF
  9
$MEASUREMENT
 70
     1
  0
ENDSEC
  0
SECTION
  2
TABLES
  0
TABLE
  2
VPORT
  5
8
330
0
100
AcDbSymbolTable
 70
     4
  0
VPORT
  5
2E
330
8
100
AcDbSymbolTableRecord
100
AcDbViewportTableRecord
  2
*ACTIVE
 70
     0
 10
0.0
 20
0.0
 11
1.0
 21
1.0
 12
210.0
 22
148.5
 13
0.0
 23
0.0
 14
10.0
 24
10.0
 15
10.0
 25
10.0
 16
0.0
 26
0.0
 36
1.0
 17
0.0
 27
0.0
 37
0.0
 40
341.0
 41
1.24
 42
50.0
 43
0.0
 44
0.0
 50
0.0
 51
0.0
 71
     0
 72
   100
 73
     1
 74
     3
 75
     0
 76
     0
 77
     0
 78
     0
  0
ENDTAB
  0
TABLE
  2
LTYPE
  5
5
330
0
100
AcDbSymbolTable
 70
     1
  0
LTYPE
  5
14
330
5
100
AcDbSymbolTableRecord
100
AcDbLinetypeTableRecord
  2
BYBLOCK
 70
     0
  3

 72
    65
 73
     0
 40
0.0
  0
LTYPE
  5
15
330
5
100
AcDbSymbolTableRecord
100
AcDbLinetypeTableRecord
  2
BYLAYER
 70
     0
  3

 72
    65
 73
     0
 40
0.0
  0
LTYPE
  5
16
330
5
100
AcDbSymbolTableRecord
100
AcDbLinetypeTableRecord
  2
CONTINUOUS
 70
     0
  3
Solid line
 72
    65
 73
     0
 40
0.0
  0
ENDTAB
  0
TABLE
  2
LAYER
  5
2
100
AcDbSymbolTable
 70
2
  0
LAYER
  5
50
100
AcDbSymbolTableRecord
100
AcDbLayerTableRecord
  2
0
 70
0
  6
CONTINUOUS
  0
LAYER
  5
51
100
AcDbSymbolTableRecord
100
AcDbLayerTableRecord
  2
Layer_1
 70
0
  6
CONTINUOUS
  0
ENDTAB
  0
TABLE
  2
STYLE
  5
3
330
0
100
AcDbSymbolTable
 70
     1
  0
STYLE
  5
11
330
3
100
AcDbSymbolTableRecord
100
AcDbTextStyleTableRecord
  2
STANDARD
 70
     0
 40
0.0
 41
1.0
 50
0.0
 71
     0
 42
2.5
  3
txt
  4

  0
ENDTAB
  0
TABLE
  2
VIEW
  5
6
330
0
100
AcDbSymbolTable
 70
     0
  0
ENDTAB
  0
TABLE
  2
UCS
  5
7
330
0
100
AcDbSymbolTable
 70
     0
  0
ENDTAB
  0
TABLE
  2
APPID
  5
9
330
0
100
AcDbSymbolTable
 70
     2
  0
APPID
  5
12
330
9
100
AcDbSymbolTableRecord
100
AcDbRegAppTableRecord
  2
ACAD
 70
     0
  0
ENDTAB
  0
TABLE
  2
DIMSTYLE
  5
A
330
0
100
AcDbSymbolTable
 70
     1
  0
DIMSTYLE
105
27
330
A
100
AcDbSymbolTableRecord
100
AcDbDimStyleTableRecord
  2
ISO-25
 70
     0
  3

  4

  5

  6

  7

 40
1.0
 41
2.5
 42
0.625
 43
3.75
 44
1.25
 45
0.0
 46
0.0
 47
0.0
 48
0.0
140
2.5
141
2.5
142
0.0
143
0.03937007874016
144
1.0
145
0.0
146
1.0
147
0.625
 71
     0
 72
     0
 73
     0
 74
     0
 75
     0
 76
     0
 77
     1
 78
     8
170
     0
171
     3
172
     1
173
     0
174
     0
175
     0
176
     0
177
     0
178
     0
270
     2
271
     2
272
     2
273
     2
274
     3
340
11
275
     0
280
     0
281
     0
282
     0
283
     0
284
     8
285
     0
286
     0
287
     3
288
     0
  0
ENDTAB
  0
TABLE
  2
BLOCK_RECORD
  5
1
330
0
100
AcDbSymbolTable
 70
     1
  0
BLOCK_RECORD
  5
1F
330
1
100
AcDbSymbolTableRecord
100
AcDbBlockTableRecord
  2
*MODEL_SPACE
  0
BLOCK_RECORD
  5
1B
330
1
100
AcDbSymbolTableRecord
100
AcDbBlockTableRecord
  2
*PAPER_SPACE
  0
ENDTAB
  0
ENDSEC
  0
SECTION
  2
BLOCKS
  0
BLOCK
  5
20
330
1F
100
AcDbEntity
  8
0
100
AcDbBlockBegin
  2
*MODEL_SPACE
 70
     0
 10
0.0
 20
0.0
 30
0.0
  3
*MODEL_SPACE
  1

  0
ENDBLK
  5
21
330
1F
100
AcDbEntity
  8
0
100
AcDbBlockEnd
  0
BLOCK
  5
1C
330
1B
100
AcDbEntity
 67
     1
  8
0
100
AcDbBlockBegin
  2
*PAPER_SPACE
  1

  0
ENDBLK
  5
1D
330
1B
100
AcDbEntity
 67
     1
  8
0
100
AcDbBlockEnd
  0
ENDSEC
  0
SECTION
  2
ENTITIES
  0
SPLINE
  5
100
100
AcDbEntity
  8
Layer_1
 62
5
100
AcDbSpline
 70
8
 71
3
 72
8
 73
4
 74
0
 40
0
 40
0
 40
0
 40
0
 40
1
 40
1
 40
1
 40
1
 10
23.413100
 20
93.825278
 30
0.0
 10
23.694870
 20
93.920198
 30
0.0
 10
23.976320
 20
94.015008
 30
0.0
 10
24.237250
 20
94.023238
 30
0.0
  0
SPLINE
  5
101
100
AcDbEntity
  8
Layer_1
 62
5
100
AcDbSpline
 70
8
 71
3
 72
8
 73
4
 74
0
 40
0
 40
0
 40
0
 40
0
 40
1
 40
1
 40
1
 40
1
 10
24.237250
 20
94.023238
 30
0.0
 10
24.498180
 20
94.031468
 30
0.0
 10
24.739270
 20
93.953108
 30
0.0
 10
24.979930
 20
93.874888
 30
0.0
  0
SPLINE
  5
102
100
AcDbEntity
  8
Layer_1
 62
5
100
AcDbSpline
 70
8
 71
3
 72
8
 73
4
 74
0
 40
0
 40
0
 40
0
 40
0
 40
1
 40
1
 40
1
 40
1
 10
16.496720
 20
78.789508
 30
0.0
 10
16.543600
 20
78.498948
 30
0.0
 10
16.590520
 20
78.208178
 30
0.0
 10
16.779580
 20
78.062688
 30
0.0
  0
SPLINE
  5
103
100
AcDbEntity
  8
Layer_1
 62
5
100
AcDbSpline
 70
8
 71
3
 72
8
 73
4
 74
0
 40
0
 40
0
 40
0
 40
0
 40
1
 40
1
 40
1
 40
1
 10
16.779580
 20
78.062688
 30
0.0
 10
16.968640
 20
77.917198
 30
0.0
 10
17.288050
 20
77.917208
 30
0.0
 10
17.612940
 20
77.917208
 30
0.0
  0
SPLINE
  5
104
100
AcDbEntity
  8
Layer_1
 62
5
100
AcDbSpline
 70
8
 71
3
 72
8
 73
4
 74
0
 40
0
 40
0
 40
0
 40
0
 40
1
 40
1
 40
1
 40
1
 10
15.319220
 20
91.038178
 30
0.0
 10
15.102780
 20
90.964108
 30
0.0
 10
14.886020
 20
90.889928
 30
0.0
 10
14.805160
 20
90.538658
 30
0.0
  0
SPLINE
  5
105
100
AcDbEntity
  8
Layer_1
 62
5
100
AcDbSpline
 70
8
 71
3
 72
8
 73
4
 74
0
 40
0
 40
0
 40
0
 40
0
 40
1
 40
1
 40
1
 40
1
 10
14.805160
 20
90.538658
 30
0.0
 10
14.724300
 20
90.187388
 30
0.0
 10
14.779510
 20
89.560688
 30
0.0
 10
14.834810
 20
88.932858
 30
0.0
  0
SPLINE
  5
106
100
AcDbEntity
  8
Layer_1
 62
5
100
AcDbSpline
 70
8
 71
3
 72
8
 73
4
 74
0
 40
0
 40
0
 40
0
 40
0
 40
1
 40
1
 40
1
 40
1
 10
33.140670
 20
91.158778
 30
0.0
 10
33.375930
 20
91.077418
 30
0.0
 10
33.611020
 20
90.996108
 30
0.0
 10
33.699170
 20
90.627168
 30
0.0
  0
SPLINE
  5
107
100
AcDbEntity
  8
Layer_1
 62
5
100
AcDbSpline
 70
8
 71
3
 72
8
 73
4
 74
0
 40
0
 40
0
 40
0
 40
0
 40
1
 40
1
 40
1
 40
1
 10
33.699170
 20
90.627168
 30
0.0
 10
33.787310
 20
90.258218
 30
0.0
 10
33.728570
 20
89.600498
 30
0.0
 10
33.669840
 20
88.942888
 30
0.0
  0
SPLINE
  5
108
100
AcDbEntity
  8
Layer_1
 62
5
100
AcDbSpline
 70
8
 71
3
 72
8
 73
4
 74
0
 40
0
 40
0
 40
0
 40
0
 40
1
 40
1
 40
1
 40
1
 10
32.036870
 20
78.884598
 30
0.0
 10
31.983780
 20
78.562418
 30
0.0
 10
31.930640
 20
78.239958
 30
0.0
 10
31.740430
 20
78.078578
 30
0.0
  0
SPLINE
  5
109
100
AcDbEntity
  8
Layer_1
 62
5
100
AcDbSpline
 70
8
 71
3
 72
8
 73
4
 74
0
 40
0
 40
0
 40
0
 40
0
 40
1
 40
1
 40
1
 40
1
 10
31.740430
 20
78.078578
 30
0.0
 10
31.550220
 20
77.917198
 30
0.0
 10
31.223310
 20
77.917208
 30
0.0
 10
30.895850
 20
77.917208
 30
0.0
  0
SPLINE
  5
10a
100
AcDbEntity
  8
Layer_1
 62
5
100
AcDbSpline
 70
8
 71
3
 72
8
 73
4
 74
0
 40
0
 40
0
 40
0
 40
0
 40
1
 40
1
 40
1
 40
1
 10
30.895850
 20
77.917208
 30
0.0
 10
29.402980
 20
77.917208
 30
0.0
 10
27.909850
 20
77.917198
 30
0.0
 10
27.163160
 20
76.913968
 30
0.0
  0
SPLINE
  5
10b
100
AcDbEntity
  8
Layer_1
 62
5
100
AcDbSpline
 70
8
 71
3
 72
8
 73
4
 74
0
 40
0
 40
0
 40
0
 40
0
 40
1
 40
1
 40
1
 40
1
 10
27.163160
 20
76.913968
 30
0.0
 10
26.416460
 20
75.910738
 30
0.0
 10
26.416460
 20
73.904608
 30
0.0
 10
26.416460
 20
71.897928
 30
0.0
  0
SPLINE
  5
10c
100
AcDbEntity
  8
Layer_1
 62
5
100
AcDbSpline
 70
8
 71
3
 72
8
 73
4
 74
0
 40
0
 40
0
 40
0
 40
0
 40
1
 40
1
 40
1
 40
1
 10
17.612940
 20
77.917208
 30
0.0
 10
19.108380
 20
77.917208
 30
0.0
 10
20.603560
 20
77.917198
 30
0.0
 10
21.351010
 20
76.914268
 30
0.0
  0
SPLINE
  5
10d
100
AcDbEntity
  8
Layer_1
 62
5
100
AcDbSpline
 70
8
 71
3
 72
8
 73
4
 74
0
 40
0
 40
0
 40
0
 40
0
 40
1
 40
1
 40
1
 40
1
 10
21.351010
 20
76.914268
 30
0.0
 10
22.098460
 20
75.911328
 30
0.0
 10
22.098460
 20
73.904608
 30
0.0
 10
22.098460
 20
71.897928
 30
0.0
  0
SPLINE
  5
10e
100
AcDbEntity
  8
Layer_1
 62
5
100
AcDbSpline
 70
8
 71
3
 72
8
 73
4
 74
0
 40
0
 40
0
 40
0
 40
0
 40
1
 40
1
 40
1
 40
1
 10
33.140670
 20
91.158778
 30
0.0
 10
30.420590
 20
92.064098
 30
0.0
 10
27.700340
 20
92.969468
 30
0.0
 10
24.979930
 20
93.874888
 30
0.0
  0
SPLINE
  5
10f
100
AcDbEntity
  8
Layer_1
 62
5
100
AcDbSpline
 70
8
 71
3
 72
8
 73
4
 74
0
 40
0
 40
0
 40
0
 40
0
 40
1
 40
1
 40
1
 40
1
 10
15.319220
 20
91.038178
 30
0.0
 10
18.017500
 20
91.967318
 30
0.0
 10
20.715440
 20
92.896348
 30
0.0
 10
23.413100
 20
93.825278
 30
0.0
  0
SPLINE
  5
110
100
AcDbEntity
  8
Layer_1
 62
5
100
AcDbSpline
 70
8
 71
3
 72
8
 73
4
 74
0
 40
0
 40
0
 40
0
 40
0
 40
1
 40
1
 40
1
 40
1
 10
14.834810
 20
88.932858
 30
0.0
 10
15.388750
 20
85.551948
 30
0.0
 10
15.942720
 20
82.170828
 30
0.0
 10
16.496720
 20
78.789508
 30
0.0
  0
SPLINE
  5
111
100
AcDbEntity
  8
Layer_1
 62
5
100
AcDbSpline
 70
8
 71
3
 72
8
 73
4
 74
0
 40
0
 40
0
 40
0
 40
0
 40
1
 40
1
 40
1
 40
1
 10
33.669840
 20
88.942888
 30
0.0
 10
33.125560
 20
85.590418
 30
0.0
 10
32.581240
 20
82.237658
 30
0.0
 10
32.036870
 20
78.884598
 30
0.0
  0
LINE
  5
112
100
AcDbEntity
  8
Layer_1
 62
5
100
AcDbLine
 10
26.416460
 20
71.897928
 30
0.0
 11
26.416460
 21
56.247828
 31
0.0
  0
LINE
  5
113
100
AcDbEntity
  8
Layer_1
 62
5
100
AcDbLine
 10
26.416460
 20
56.247828
 30
0.0
 11
22.098460
 21
56.247828
 31
0.0
  0
LINE
  5
114
100
AcDbEntity
  8
Layer_1
 62
5
100
AcDbLine
 10
22.098460
 20
56.247828
 30
0.0
 11
22.098460
 21
71.897928
 31
0.0
  0
SPLINE
  5
115
100
AcDbEntity
  8
Layer_1
 62
5
100
AcDbSpline
 70
8
 71
3
 72
8
 73
4
 74
0
 40
0
 40
0
 40
0
 40
0
 40
1
 40
1
 40
1
 40
1
 10
78.755680
 20
106.853858
 30
0.0
 10
75.985680
 20
106.853858
 30
0.0
 10
73.755470
 20
104.624158
 30
0.0
 10
73.755470
 20
101.854158
 30
0.0
  0
LINE
  5
116
100
AcDbEntity
  8
Layer_1
 62
5
100
AcDbLine
 10
73.755470
 20
101.854158
 30
0.0
 11
73.755470
 21
48.354058
 31
0.0
  0
SPLINE
  5
117
100
AcDbEntity
  8
Layer_1
 62
5
100
AcDbSpline
 70
8
 71
3
 72
8
 73
4
 74
0
 40
0
 40
0
 40
0
 40
0
 40
1
 40
1
 40
1
 40
1
 10
73.755470
 20
48.354058
 30
0.0
 10
73.755470
 20
45.584058
 30
0.0
 10
75.985680
 20
43.353848
 30
0.0
 10
78.755680
 20
43.353848
 30
0.0
  0
LINE
  5
118
100
AcDbEntity
  8
Layer_1
 62
5
100
AcDbLine
 10
78.755680
 20
43.353848
 30
0.0
 11
284.655780
 21
43.353848
 31
0.0
  0
SPLINE
  5
119
100
AcDbEntity
  8
Layer_1
 62
5
100
AcDbSpline
 70
8
 71
3
 72
8
 73
4
 74
0
 40
0
 40
0
 40
0
 40
0
 40
1
 40
1
 40
1
 40
1
 10
284.655780
 20
43.353848
 30
0.0
 10
287.425780
 20
43.353848
 30
0.0
 10
289.655480
 20
45.584058
 30
0.0
 10
289.655480
 20
48.354058
 30
0.0
  0
LINE
  5
11a
100
AcDbEntity
  8
Layer_1
 62
5
100
AcDbLine
 10
289.655480
 20
48.354058
 30
0.0
 11
289.655480
 21
101.854158
 31
0.0
  0
SPLINE
  5
11b
100
AcDbEntity
  8
Layer_1
 62
5
100
AcDbSpline
 70
8
 71
3
 72
8
 73
4
 74
0
 40
0
 40
0
 40
0
 40
0
 40
1
 40
1
 40
1
 40
1
 10
289.655480
 20
101.854158
 30
0.0
 10
289.655480
 20
104.624158
 30
0.0
 10
287.425780
 20
106.853858
 30
0.0
 10
284.655780
 20
106.853858
 30
0.0
  0
LINE
  5
11c
100
AcDbEntity
  8
Layer_1
 62
5
100
AcDbLine
 10
284.655780
 20
106.853858
 30
0.0
 11
78.755680
 21
106.853858
 31
0.0
  0
SPLINE
  5
11d
100
AcDbEntity
  8
Layer_1
 62
5
100
AcDbSpline
 70
8
 71
3
 72
8
 73
4
 74
0
 40
0
 40
0
 40
0
 40
0
 40
1
 40
1
 40
1
 40
1
 10
81.615460
 20
103.044268
 30
0.0
 10
82.689635
 20
103.044236
 30
0.0
 10
83.719798
 20
102.617472
 30
0.0
 10
84.479306
 20
101.857867
 30
0.0
  0
SPLINE
  5
11e
100
AcDbEntity
  8
Layer_1
 62
5
100
AcDbSpline
 70
8
 71
3
 72
8
 73
4
 74
0
 40
0
 40
0
 40
0
 40
0
 40
1
 40
1
 40
1
 40
1
 10
84.479306
 20
101.857867
 30
0.0
 10
85.238814
 20
101.098261
 30
0.0
 10
85.665446
 20
100.068043
 30
0.0
 10
85.665340
 20
98.993868
 30
0.0
  0
SPLINE
  5
11f
100
AcDbEntity
  8
Layer_1
 62
5
100
AcDbSpline
 70
8
 71
3
 72
8
 73
4
 74
0
 40
0
 40
0
 40
0
 40
0
 40
1
 40
1
 40
1
 40
1
 10
85.665340
 20
98.993868
 30
0.0
 10
85.665274
 20
96.757209
 30
0.0
 10
83.852119
 20
94.944054
 30
0.0
 10
81.615460
 20
94.943988
 30
0.0
  0
SPLINE
  5
120
100
AcDbEntity
  8
Layer_1
 62
5
100
AcDbSpline
 70
8
 71
3
 72
8
 73
4
 74
0
 40
0
 40
0
 40
0
 40
0
 40
1
 40
1
 40
1
 40
1
 10
81.615460
 20
94.943988
 30
0.0
 10
79.378797
 20
94.944049
 30
0.0
 10
77.565636
 20
96.757205
 30
0.0
 10
77.565570
 20
98.993868
 30
0.0
  0
SPLINE
  5
121
100
AcDbEntity
  8
Layer_1
 62
5
100
AcDbSpline
 70
8
 71
3
 72
8
 73
4
 74
0
 40
0
 40
0
 40
0
 40
0
 40
1
 40
1
 40
1
 40
1
 10
77.565570
 20
98.993868
 30
0.0
 10
77.565464
 20
100.068045
 30
0.0
 10
77.992097
 20
101.098264
 30
0.0
 10
78.751607
 20
101.857870
 30
0.0
  0
SPLINE
  5
122
100
AcDbEntity
  8
Layer_1
 62
5
100
AcDbSpline
 70
8
 71
3
 72
8
 73
4
 74
0
 40
0
 40
0
 40
0
 40
0
 40
1
 40
1
 40
1
 40
1
 10
78.751607
 20
101.857870
 30
0.0
 10
79.511117
 20
102.617476
 30
0.0
 10
80.541283
 20
103.044239
 30
0.0
 10
81.615460
 20
103.044268
 30
0.0
  0
LINE
  5
123
100
AcDbEntity
  8
Layer_1
 62
5
100
AcDbLine
 10
81.615460
 20
103.044268
 30
0.0
 11
81.615460
 21
103.044268
 31
0.0
  0
SPLINE
  5
124
100
AcDbEntity
  8
Layer_1
 62
5
100
AcDbSpline
 70
8
 71
3
 72
8
 73
4
 74
0
 40
0
 40
0
 40
0
 40
0
 40
1
 40
1
 40
1
 40
1
 10
281.795500
 20
103.044268
 30
0.0
 10
282.869674
 20
103.044234
 30
0.0
 10
283.899834
 20
102.617468
 30
0.0
 10
284.659340
 20
101.857863
 30
0.0
  0
SPLINE
  5
125
100
AcDbEntity
  8
Layer_1
 62
5
100
AcDbSpline
 70
8
 71
3
 72
8
 73
4
 74
0
 40
0
 40
0
 40
0
 40
0
 40
1
 40
1
 40
1
 40
1
 10
284.659340
 20
101.857863
 30
0.0
 10
285.418846
 20
101.098258
 30
0.0
 10
285.845476
 20
100.068042
 30
0.0
 10
285.845370
 20
98.993868
 30
0.0
  0
SPLINE
  5
126
100
AcDbEntity
  8
Layer_1
 62
5
100
AcDbSpline
 70
8
 71
3
 72
8
 73
4
 74
0
 40
0
 40
0
 40
0
 40
0
 40
1
 40
1
 40
1
 40
1
 10
285.845370
 20
98.993868
 30
0.0
 10
285.845304
 20
96.757212
 30
0.0
 10
284.032156
 20
94.944060
 30
0.0
 10
281.795500
 20
94.943988
 30
0.0
  0
SPLINE
  5
127
100
AcDbEntity
  8
Layer_1
 62
5
100
AcDbSpline
 70
8
 71
3
 72
8
 73
4
 74
0
 40
0
 40
0
 40
0
 40
0
 40
1
 40
1
 40
1
 40
1
 10
281.795500
 20
94.943988
 30
0.0
 10
279.558844
 20
94.944060
 30
0.0
 10
277.745696
 20
96.757212
 30
0.0
 10
277.745630
 20
98.993868
 30
0.0
  0
SPLINE
  5
128
100
AcDbEntity
  8
Layer_1
 62
5
100
AcDbSpline
 70
8
 71
3
 72
8
 73
4
 74
0
 40
0
 40
0
 40
0
 40
0
 40
1
 40
1
 40
1
 40
1
 10
277.745630
 20
98.993868
 30
0.0
 10
277.745524
 20
100.068042
 30
0.0
 10
278.172154
 20
101.098258
 30
0.0
 10
278.931660
 20
101.857863
 30
0.0
  0
SPLINE
  5
129
100
AcDbEntity
  8
Layer_1
 62
5
100
AcDbSpline
 70
8
 71
3
 72
8
 73
4
 74
0
 40
0
 40
0
 40
0
 40
0
 40
1
 40
1
 40
1
 40
1
 10
278.931660
 20
101.857863
 30
0.0
 10
279.691166
 20
102.617468
 30
0.0
 10
280.721326
 20
103.044234
 30
0.0
 10
281.795500
 20
103.044268
 30
0.0
  0
LINE
  5
12a
100
AcDbEntity
  8
Layer_1
 62
5
100
AcDbLine
 10
281.795500
 20
103.044268
 30
0.0
 11
281.795500
 21
103.044268
 31
0.0
  0
SPLINE
  5
12b
100
AcDbEntity
  8
Layer_1
 62
5
100
AcDbSpline
 70
8
 71
3
 72
8
 73
4
 74
0
 40
0
 40
0
 40
0
 40
0
 40
1
 40
1
 40
1
 40
1
 10
81.615460
 20
55.264228
 30
0.0
 10
83.852119
 20
55.264162
 30
0.0
 10
85.665274
 20
53.451008
 30
0.0
 10
85.665340
 20
51.214348
 30
0.0
  0
SPLINE
  5
12c
100
AcDbEntity
  8
Layer_1
 62
5
100
AcDbSpline
 70
8
 71
3
 72
8
 73
4
 74
0
 40
0
 40
0
 40
0
 40
0
 40
1
 40
1
 40
1
 40
1
 10
85.665340
 20
51.214348
 30
0.0
 10
85.665446
 20
50.140173
 30
0.0
 10
85.238814
 20
49.109955
 30
0.0
 10
84.479306
 20
48.350349
 30
0.0
  0
SPLINE
  5
12d
100
AcDbEntity
  8
Layer_1
 62
5
100
AcDbSpline
 70
8
 71
3
 72
8
 73
4
 74
0
 40
0
 40
0
 40
0
 40
0
 40
1
 40
1
 40
1
 40
1
 10
84.479306
 20
48.350349
 30
0.0
 10
83.719798
 20
47.590744
 30
0.0
 10
82.689635
 20
47.163980
 30
0.0
 10
81.615460
 20
47.163948
 30
0.0
  0
SPLINE
  5
12e
100
AcDbEntity
  8
Layer_1
 62
5
100
AcDbSpline
 70
8
 71
3
 72
8
 73
4
 74
0
 40
0
 40
0
 40
0
 40
0
 40
1
 40
1
 40
1
 40
1
 10
81.615460
 20
47.163948
 30
0.0
 10
80.541283
 20
47.163977
 30
0.0
 10
79.511117
 20
47.590740
 30
0.0
 10
78.751607
 20
48.350346
 30
0.0
  0
SPLINE
  5
12f
100
AcDbEntity
  8
Layer_1
 62
5
100
AcDbSpline
 70
8
 71
3
 72
8
 73
4
 74
0
 40
0
 40
0
 40
0
 40
0
 40
1
 40
1
 40
1
 40
1
 10
78.751607
 20
48.350346
 30
0.0
 10
77.992097
 20
49.109952
 30
0.0
 10
77.565464
 20
50.140171
 30
0.0
 10
77.565570
 20
51.214348
 30
0.0
  0
SPLINE
  5
130
100
AcDbEntity
  8
Layer_1
 62
5
100
AcDbSpline
 70
8
 71
3
 72
8
 73
4
 74
0
 40
0
 40
0
 40
0
 40
0
 40
1
 40
1
 40
1
 40
1
 10
77.565570
 20
51.214348
 30
0.0
 10
77.565636
 20
53.451011
 30
0.0
 10
79.378797
 20
55.264167
 30
0.0
 10
81.615460
 20
55.264228
 30
0.0
  0
LINE
  5
131
100
AcDbEntity
  8
Layer_1
 62
5
100
AcDbLine
 10
81.615460
 20
55.264228
 30
0.0
 11
81.615460
 21
55.264228
 31
0.0
  0
SPLINE
  5
132
100
AcDbEntity
  8
Layer_1
 62
5
100
AcDbSpline
 70
8
 71
3
 72
8
 73
4
 74
0
 40
0
 40
0
 40
0
 40
0
 40
1
 40
1
 40
1
 40
1
 10
281.795500
 20
55.264228
 30
0.0
 10
284.032156
 20
55.264156
 30
0.0
 10
285.845304
 20
53.451004
 30
0.0
 10
285.845370
 20
51.214348
 30
0.0
  0
SPLINE
  5
133
100
AcDbEntity
  8
Layer_1
 62
5
100
AcDbSpline
 70
8
 71
3
 72
8
 73
4
 74
0
 40
0
 40
0
 40
0
 40
0
 40
1
 40
1
 40
1
 40
1
 10
285.845370
 20
51.214348
 30
0.0
 10
285.845476
 20
50.140174
 30
0.0
 10
285.418846
 20
49.109958
 30
0.0
 10
284.659340
 20
48.350353
 30
0.0
  0
SPLINE
  5
134
100
AcDbEntity
  8
Layer_1
 62
5
100
AcDbSpline
 70
8
 71
3
 72
8
 73
4
 74
0
 40
0
 40
0
 40
0
 40
0
 40
1
 40
1
 40
1
 40
1
 10
284.659340
 20
48.350353
 30
0.0
 10
283.899834
 20
47.590748
 30
0.0
 10
282.869674
 20
47.163983
 30
0.0
 10
281.795500
 20
47.163948
 30
0.0
  0
SPLINE
  5
135
100
AcDbEntity
  8
Layer_1
 62
5
100
AcDbSpline
 70
8
 71
3
 72
8
 73
4
 74
0
 40
0
 40
0
 40
0
 40
0
 40
1
 40
1
 40
1
 40
1
 10
281.795500
 20
47.163948
 30
0.0
 10
280.721326
 20
47.163983
 30
0.0
 10
279.691166
 20
47.590748
 30
0.0
 10
278.931660
 20
48.350353
 30
0.0
  0
SPLINE
  5
136
100
AcDbEntity
  8
Layer_1
 62
5
100
AcDbSpline
 70
8
 71
3
 72
8
 73
4
 74
0
 40
0
 40
0
 40
0
 40
0
 40
1
 40
1
 40
1
 40
1
 10
278.931660
 20
48.350353
 30
0.0
 10
278.172154
 20
49.109958
 30
0.0
 10
277.745524
 20
50.140174
 30
0.0
 10
277.745630
 20
51.214348
 30
0.0
  0
SPLINE
  5
137
100
AcDbEntity
  8
Layer_1
 62
5
100
AcDbSpline
 70
8
 71
3
 72
8
 73
4
 74
0
 40
0
 40
0
 40
0
 40
0
 40
1
 40
1
 40
1
 40
1
 10
277.745630
 20
51.214348
 30
0.0
 10
277.745696
 20
53.451004
 30
0.0
 10
279.558844
 20
55.264156
 30
0.0
 10
281.795500
 20
55.264228
 30
0.0
  0
LINE
  5
138
100
AcDbEntity
  8
Layer_1
 62
5
100
AcDbLine
 10
281.795500
 20
55.264228
 30
0.0
 11
281.795500
 21
55.264228
 31
0.0
  0
LINE
  5
139
100
AcDbEntity
  8
Layer_1
 62
3
100
AcDbLine
 10
6.451430
 20
113.736108
 30
0.0
 11
6.451430
 21
112.735658
 31
0.0
  0
LINE
  5
13a
100
AcDbEntity
  8
Layer_1
 62
3
100
AcDbLine
 10
6.451430
 20
112.735658
 30
0.0
 11
41.999650
 21
112.735658
 31
0.0
  0
LINE
  5
13b
100
AcDbEntity
  8
Layer_1
 62
3
100
AcDbLine
 10
41.999650
 20
112.735658
 30
0.0
 11
41.999650
 21
113.736108
 31
0.0
  0
LINE
  5
13c
100
AcDbEntity
  8
Layer_1
 62
3
100
AcDbLine
 10
41.999650
 20
113.736108
 30
0.0
 11
6.451430
 21
113.736108
 31
0.0
  0
LINE
  5
13d
100
AcDbEntity
  8
Layer_1
 62
3
100
AcDbLine
 10
64.859760
 20
113.736108
 30
0.0
 11
64.859760
 21
112.735658
 31
0.0
  0
LINE
  5
13e
100
AcDbEntity
  8
Layer_1
 62
3
100
AcDbLine
 10
64.859760
 20
112.735658
 30
0.0
 11
298.551456
 21
112.735658
 31
0.0
  0
LINE
  5
13f
100
AcDbEntity
  8
Layer_1
 62
3
100
AcDbLine
 10
298.551456
 20
112.735658
 30
0.0
 11
298.551456
 21
113.736108
 31
0.0
  0
LINE
  5
140
100
AcDbEntity
  8
Layer_1
 62
3
100
AcDbLine
 10
298.551456
 20
113.736108
 30
0.0
 11
64.859760
 21
113.736108
 31
0.0
  0
LINE
  5
141
100
AcDbEntity
  8
Layer_1
 62
3
100
AcDbLine
 10
6.451430
 20
37.472538
 30
0.0
 11
6.451430
 21
36.472088
 31
0.0
  0
LINE
  5
142
100
AcDbEntity
  8
Layer_1
 62
3
100
AcDbLine
 10
6.451430
 20
36.472088
 30
0.0
 11
32.536660
 21
36.472088
 31
0.0
  0
LINE
  5
143
100
AcDbEntity
  8
Layer_1
 62
3
100
AcDbLine
 10
32.536660
 20
36.472088
 30
0.0
 11
32.536660
 21
31.122538
 31
0.0
  0
LINE
  5
144
100
AcDbEntity
  8
Layer_1
 62
3
100
AcDbLine
 10
32.536660
 20
31.122538
 30
0.0
 11
6.451430
 21
31.122538
 31
0.0
  0
LINE
  5
145
100
AcDbEntity
  8
Layer_1
 62
3
100
AcDbLine
 10
6.451430
 20
31.122538
 30
0.0
 11
6.451430
 21
30.122088
 31
0.0
  0
LINE
  5
146
100
AcDbEntity
  8
Layer_1
 62
3
100
AcDbLine
 10
6.451430
 20
30.122088
 30
0.0
 11
33.537120
 21
30.122088
 31
0.0
  0
LINE
  5
147
100
AcDbEntity
  8
Layer_1
 62
3
100
AcDbLine
 10
33.537120
 20
30.122088
 30
0.0
 11
33.537120
 21
37.472538
 31
0.0
  0
LINE
  5
148
100
AcDbEntity
  8
Layer_1
 62
3
100
AcDbLine
 10
33.537120
 20
37.472538
 30
0.0
 11
6.451430
 21
37.472538
 31
0.0
  0
LINE
  5
149
100
AcDbEntity
  8
Layer_1
 62
3
100
AcDbLine
 10
73.321770
 20
37.472538
 30
0.0
 11
73.321770
 21
30.122088
 31
0.0
  0
LINE
  5
14a
100
AcDbEntity
  8
Layer_1
 62
3
100
AcDbLine
 10
73.321770
 20
30.122088
 30
0.0
 11
298.551456
 21
30.122088
 31
0.0
  0
LINE
  5
14b
100
AcDbEntity
  8
Layer_1
 62
3
100
AcDbLine
 10
298.551456
 20
30.122088
 30
0.0
 11
298.551456
 21
31.122538
 31
0.0
  0
LINE
  5
14c
100
AcDbEntity
  8
Layer_1
 62
3
100
AcDbLine
 10
298.551456
 20
31.122538
 30
0.0
 11
74.322230
 21
31.122538
 31
0.0
  0
LINE
  5
14d
100
AcDbEntity
  8
Layer_1
 62
3
100
AcDbLine
 10
74.322230
 20
31.122538
 30
0.0
 11
74.322230
 21
36.472088
 31
0.0
  0
LINE
  5
14e
100
AcDbEntity
  8
Layer_1
 62
3
100
AcDbLine
 10
74.322230
 20
36.472088
 30
0.0
 11
298.551456
 21
36.472088
 31
0.0
  0
LINE
  5
14f
100
AcDbEntity
  8
Layer_1
 62
3
100
AcDbLine
 10
298.551456
 20
36.472088
 30
0.0
 11
298.551456
 21
37.472538
 31
0.0
  0
LINE
  5
150
100
AcDbEntity
  8
Layer_1
 62
3
100
AcDbLine
 10
298.551456
 20
37.472538
 30
0.0
 11
73.321770
 21
37.472538
 31
0.0
  0
LINE
  5
151
100
AcDbEntity
  8
Layer_1
 62
7
100
AcDbLine
 10
298.551477
 20
22.748318
 30
0.0
 11
93.875190
 21
22.754068
 31
0.0
  0
LINE
  5
152
100
AcDbEntity
  8
Layer_1
 62
7
100
AcDbLine
 10
93.941320
 20
22.748318
 30
0.0
 11
93.941320
 21
13.884778
 31
0.0
  0
SPLINE
  5
153
100
AcDbEntity
  8
Layer_1
 62
7
100
AcDbSpline
 70
8
 71
3
 72
8
 73
4
 74
0
 40
0
 40
0
 40
0
 40
0
 40
1
 40
1
 40
1
 40
1
 10
93.941320
 20
13.884778
 30
0.0
 10
93.941320
 20
12.477618
 30
0.0
 10
92.808580
 20
11.344368
 30
0.0
 10
91.401420
 20
11.344368
 30
0.0
  0
LINE
  5
154
100
AcDbEntity
  8
Layer_1
 62
7
100
AcDbLine
 10
91.401420
 20
11.344368
 30
0.0
 11
89.602050
 21
11.344368
 31
0.0
  0
SPLINE
  5
155
100
AcDbEntity
  8
Layer_1
 62
7
100
AcDbSpline
 70
8
 71
3
 72
8
 73
4
 74
0
 40
0
 40
0
 40
0
 40
0
 40
1
 40
1
 40
1
 40
1
 10
89.602050
 20
11.344368
 30
0.0
 10
88.194890
 20
11.344368
 30
0.0
 10
87.062150
 20
12.477618
 30
0.0
 10
87.062150
 20
13.884778
 30
0.0
  0
LINE
  5
156
100
AcDbEntity
  8
Layer_1
 62
7
100
AcDbLine
 10
87.062150
 20
13.884778
 30
0.0
 11
87.062150
 21
22.748318
 31
0.0
  0
LINE
  5
157
100
AcDbEntity
  8
Layer_1
 62
7
100
AcDbLine
 10
19.328810
 20
22.748318
 30
0.0
 11
19.328810
 21
13.884778
 31
0.0
  0
SPLINE
  5
158
100
AcDbEntity
  8
Layer_1
 62
7
100
AcDbSpline
 70
8
 71
3
 72
8
 73
4
 74
0
 40
0
 40
0
 40
0
 40
0
 40
1
 40
1
 40
1
 40
1
 10
19.328810
 20
13.884778
 30
0.0
 10
19.328810
 20
12.477618
 30
0.0
 10
18.196080
 20
11.344368
 30
0.0
 10
16.788920
 20
11.344368
 30
0.0
  0
LINE
  5
159
100
AcDbEntity
  8
Layer_1
 62
7
100
AcDbLine
 10
16.788920
 20
11.344368
 30
0.0
 11
14.989540
 21
11.344368
 31
0.0
  0
SPLINE
  5
15a
100
AcDbEntity
  8
Layer_1
 62
7
100
AcDbSpline
 70
8
 71
3
 72
8
 73
4
 74
0
 40
0
 40
0
 40
0
 40
0
 40
1
 40
1
 40
1
 40
1
 10
14.989540
 20
11.344368
 30
0.0
 10
13.582380
 20
11.344368
 30
0.0
 10
12.449650
 20
12.477618
 30
0.0
 10
12.449650
 20
13.884778
 30
0.0
  0
LINE
  5
15b
100
AcDbEntity
  8
Layer_1
 62
7
100
AcDbLine
 10
12.449650
 20
13.884778
 30
0.0
 11
12.449650
 21
22.748318
 31
0.0
  0
LINE
  5
15c
100
AcDbEntity
  8
Layer_1
 62
7
100
AcDbLine
 10
6.451560
 20
22.748318
 30
0.0
 11
6.451560
 21
7.507908
 31
0.0
  0
LINE
  5
15d
100
AcDbEntity
  8
Layer_1
 62
7
100
AcDbLine
 10
6.451560
 20
7.507908
 30
0.0
 11
298.551592
 21
7.507908
 31
0.0
  0
LINE
  5
15e
100
AcDbEntity
  8
Layer_1
 62
7
100
AcDbLine
 10
298.551592
 20
7.507908
 30
0.0
 11
298.551592
 21
22.748318
 31
0.0
  0
LINE
  5
15f
100
AcDbEntity
  8
Layer_1
 62
7
100
AcDbLine
 10
93.875180
 20
22.754068
 30
0.0
 11
91.002700
 21
32.381338
 31
0.0
  0
SPLINE
  5
160
100
AcDbEntity
  8
Layer_1
 62
7
100
AcDbSpline
 70
8
 71
3
 72
8
 73
4
 74
0
 40
0
 40
0
 40
0
 40
0
 40
1
 40
1
 40
1
 40
1
 10
91.002700
 20
32.381338
 30
0.0
 10
90.700960
 20
33.392648
 30
0.0
 10
90.153280
 20
34.286138
 30
0.0
 10
89.097910
 20
34.286138
 30
0.0
  0
SPLINE
  5
161
100
AcDbEntity
  8
Layer_1
 62
7
100
AcDbSpline
 70
8
 71
3
 72
8
 73
4
 74
0
 40
0
 40
0
 40
0
 40
0
 40
1
 40
1
 40
1
 40
1
 10
89.097910
 20
34.286138
 30
0.0
 10
88.042540
 20
34.286138
 30
0.0
 10
87.206890
 20
33.436608
 30
0.0
 10
87.192600
 20
32.381338
 30
0.0
  0
LINE
  5
162
100
AcDbEntity
  8
Layer_1
 62
7
100
AcDbLine
 10
87.192600
 20
32.381338
 30
0.0
 11
87.062150
 21
22.748318
 31
0.0
  0
LINE
  5
163
100
AcDbEntity
  8
Layer_1
 62
7
100
AcDbLine
 10
41.999700
 20
49.735738
 30
0.0
 11
64.859710
 21
49.735738
 31
0.0
  0
LINE
  5
164
100
AcDbEntity
  8
Layer_1
 62
7
100
AcDbLine
 10
64.859710
 20
100.535748
 30
0.0
 11
41.999700
 21
100.535748
 31
0.0
  0
LINE
  5
165
100
AcDbEntity
  8
Layer_1
 62
7
100
AcDbLine
 10
6.451470
 20
119.585828
 30
0.0
 11
42.057050
 21
119.585828
 31
0.0
  0
LINE
  5
166
100
AcDbEntity
  8
Layer_1
 62
7
100
AcDbLine
 10
42.057050
 20
119.585828
 30
0.0
 11
41.999680
 21
22.760088
 31
0.0
  0
LINE
  5
167
100
AcDbEntity
  8
Layer_1
 62
7
100
AcDbLine
 10
41.999680
 20
22.760088
 30
0.0
 11
64.859710
 21
22.753318
 31
0.0
  0
LINE
  5
168
100
AcDbEntity
  8
Layer_1
 62
7
100
AcDbLine
 10
64.859710
 20
22.753318
 30
0.0
 11
64.859710
 21
119.585828
 31
0.0
  0
LINE
  5
169
100
AcDbEntity
  8
Layer_1
 62
7
100
AcDbLine
 10
64.859710
 20
119.585828
 30
0.0
 11
298.551470
 21
119.585828
 31
0.0
  0
LINE
  5
16a
100
AcDbEntity
  8
Layer_1
 62
7
100
AcDbLine
 10
41.999680
 20
22.760088
 30
0.0
 11
19.328810
 21
22.748318
 31
0.0
  0
LINE
  5
16b
100
AcDbEntity
  8
Layer_1
 62
7
100
AcDbLine
 10
87.062150
 20
22.748318
 30
0.0
 11
64.859710
 21
22.753318
 31
0.0
  0
LINE
  5
16c
100
AcDbEntity
  8
Layer_1
 62
7
100
AcDbLine
 10
12.587250
 20
22.754058
 30
0.0
 11
6.451470
 21
22.748338
 31
0.0
  0
LINE
  5
16d
100
AcDbEntity
  8
Layer_1
 62
7
100
AcDbLine
 10
6.451470
 20
22.748338
 30
0.0
 11
6.451470
 21
127.523338
 31
0.0
  0
LINE
  5
16e
100
AcDbEntity
  8
Layer_1
 62
7
100
AcDbLine
 10
6.451470
 20
127.523338
 30
0.0
 11
298.551470
 21
127.523338
 31
0.0
  0
LINE
  5
16f
100
AcDbEntity
  8
Layer_1
 62
7
100
AcDbLine
 10
298.551470
 20
127.523338
 30
0.0
 11
298.551470
 21
22.748338
 31
0.0
  0
LINE
  5
170
100
AcDbEntity
  8
Layer_1
 62
7
100
AcDbLine
 10
298.551470
 20
22.748338
 30
0.0
 11
93.875190
 21
22.754068
 31
0.0
  0
LINE
  5
171
100
AcDbEntity
  8
Layer_1
 62
7
100
AcDbLine
 10
12.587250
 20
22.754058
 30
0.0
 11
15.459730
 21
32.381328
 31
0.0
  0
SPLINE
  5
172
100
AcDbEntity
  8
Layer_1
 62
7
100
AcDbSpline
 70
8
 71
3
 72
8
 73
4
 74
0
 40
0
 40
0
 40
0
 40
0
 40
1
 40
1
 40
1
 40
1
 10
15.459730
 20
32.381328
 30
0.0
 10
15.761470
 20
33.392638
 30
0.0
 10
16.309150
 20
34.286128
 30
0.0
 10
17.364520
 20
34.286128
 30
0.0
  0
SPLINE
  5
173
100
AcDbEntity
  8
Layer_1
 62
7
100
AcDbSpline
 70
8
 71
3
 72
8
 73
4
 74
0
 40
0
 40
0
 40
0
 40
0
 40
1
 40
1
 40
1
 40
1
 10
17.364520
 20
34.286128
 30
0.0
 10
18.419890
 20
34.286128
 30
0.0
 10
19.263370
 20
33.436678
 30
0.0
 10
19.269830
 20
32.381328
 30
0.0
  0
LINE
  5
174
100
AcDbEntity
  8
Layer_1
 62
7
100
AcDbLine
 10
19.269830
 20
32.381328
 30
0.0
 11
19.328810
 21
22.748318
 31
0.0
  0
LINE
  5
175
100
AcDbEntity
  8
Layer_1
 62
7
100
AcDbLine
 10
6.451450
 20
247.538349
 30
0.0
 11
298.551453
 21
247.538349
 31
0.0
  0
LINE
  5
176
100
AcDbEntity
  8
Layer_1
 62
7
100
AcDbLine
 10
298.551453
 20
247.538349
 30
0.0
 11
298.551453
 21
142.763348
 31
0.0
  0
LINE
  5
177
100
AcDbEntity
  8
Layer_1
 62
7
100
AcDbLine
 10
298.551453
 20
142.763348
 30
0.0
 11
6.451450
 21
142.763348
 31
0.0
  0
LINE
  5
178
100
AcDbEntity
  8
Layer_1
 62
7
100
AcDbLine
 10
6.451450
 20
142.763348
 30
0.0
 11
6.451450
 21
247.538349
 31
0.0
  0
LINE
  5
179
100
AcDbEntity
  8
Layer_1
 62
5
100
AcDbLine
 10
56.027320
 20
142.763248
 30
0.0
 11
56.027320
 21
169.750748
 31
0.0
  0
LINE
  5
17a
100
AcDbEntity
  8
Layer_1
 62
5
100
AcDbLine
 10
56.027320
 20
169.750748
 30
0.0
 11
70.098300
 21
169.750748
 31
0.0
  0
LINE
  5
17b
100
AcDbEntity
  8
Layer_1
 62
5
100
AcDbLine
 10
70.098300
 20
169.750748
 30
0.0
 11
70.098300
 21
220.550754
 31
0.0
  0
LINE
  5
17c
100
AcDbEntity
  8
Layer_1
 62
5
100
AcDbLine
 10
70.098300
 20
220.550754
 30
0.0
 11
36.761310
 21
220.550754
 31
0.0
  0
LINE
  5
17d
100
AcDbEntity
  8
Layer_1
 62
5
100
AcDbLine
 10
36.761310
 20
220.550754
 30
0.0
 11
36.761310
 21
169.750748
 31
0.0
  0
LINE
  5
17e
100
AcDbEntity
  8
Layer_1
 62
5
100
AcDbLine
 10
36.761310
 20
169.750748
 30
0.0
 11
50.831770
 21
169.750748
 31
0.0
  0
LINE
  5
17f
100
AcDbEntity
  8
Layer_1
 62
5
100
AcDbLine
 10
50.831770
 20
169.750748
 30
0.0
 11
50.831770
 21
142.763248
 31
0.0
  0
LINE
  5
180
100
AcDbEntity
  8
Layer_1
 62
5
100
AcDbLine
 10
6.451420
 20
233.314351
 30
0.0
 11
41.999640
 21
233.314351
 31
0.0
  0
LINE
  5
181
100
AcDbEntity
  8
Layer_1
 62
5
100
AcDbLine
 10
41.999640
 20
233.314351
 30
0.0
 11
41.999640
 21
239.664352
 31
0.0
  0
LINE
  5
182
100
AcDbEntity
  8
Layer_1
 62
5
100
AcDbLine
 10
41.999640
 20
239.664352
 30
0.0
 11
6.451420
 21
239.664352
 31
0.0
  0
LINE
  5
183
100
AcDbEntity
  8
Layer_1
 62
5
100
AcDbLine
 10
298.551448
 20
239.664352
 30
0.0
 11
64.859750
 21
239.664352
 31
0.0
  0
LINE
  5
184
100
AcDbEntity
  8
Layer_1
 62
5
100
AcDbLine
 10
64.859750
 20
239.664352
 30
0.0
 11
64.859750
 21
233.314351
 31
0.0
  0
LINE
  5
185
100
AcDbEntity
  8
Layer_1
 62
5
100
AcDbLine
 10
64.859750
 20
233.314351
 30
0.0
 11
298.551448
 21
233.314351
 31
0.0
  0
LINE
  5
186
100
AcDbEntity
  8
Layer_1
 62
5
100
AcDbLine
 10
6.451420
 20
150.700788
 30
0.0
 11
33.036880
 21
150.700788
 31
0.0
  0
LINE
  5
187
100
AcDbEntity
  8
Layer_1
 62
5
100
AcDbLine
 10
33.036880
 20
150.700788
 30
0.0
 11
33.036880
 21
157.050788
 31
0.0
  0
LINE
  5
188
100
AcDbEntity
  8
Layer_1
 62
5
100
AcDbLine
 10
33.036880
 20
157.050788
 30
0.0
 11
6.451420
 21
157.050788
 31
0.0
  0
LINE
  5
189
100
AcDbEntity
  8
Layer_1
 62
5
100
AcDbLine
 10
298.551448
 20
157.050788
 30
0.0
 11
73.821990
 21
157.050788
 31
0.0
  0
LINE
  5
18a
100
AcDbEntity
  8
Layer_1
 62
5
100
AcDbLine
 10
73.821990
 20
157.050788
 30
0.0
 11
73.821990
 21
150.700788
 31
0.0
  0
LINE
  5
18b
100
AcDbEntity
  8
Layer_1
 62
5
100
AcDbLine
 10
73.821990
 20
150.700788
 30
0.0
 11
298.551448
 21
150.700788
 31
0.0
  0
LINE
  5
18c
100
AcDbEntity
  8
Layer_1
 62
7
100
AcDbLine
 10
298.551453
 20
142.763338
 30
0.0
 11
298.551453
 21
127.523338
 31
0.0
  0
LINE
  5
18d
100
AcDbEntity
  8
Layer_1
 62
7
100
AcDbLine
 10
6.451450
 20
127.523338
 30
0.0
 11
6.451450
 21
142.763338
 31
0.0
  0
LINE
  5
18e
100
AcDbEntity
  8
Layer_1
 62
3
100
AcDbLine
 10
98.248010
 20
204.638988
 30
0.0
 11
96.310140
 21
204.638988
 31
0.0
  0
LINE
  5
18f
100
AcDbEntity
  8
Layer_1
 62
3
100
AcDbLine
 10
96.310140
 20
204.638988
 30
0.0
 11
96.310140
 21
202.313548
 31
0.0
  0
LINE
  5
190
100
AcDbEntity
  8
Layer_1
 62
3
100
AcDbLine
 10
96.310140
 20
202.313548
 30
0.0
 11
98.248010
 21
202.313548
 31
0.0
  0
SPLINE
  5
191
100
AcDbEntity
  8
Layer_1
 62
3
100
AcDbSpline
 70
8
 71
3
 72
8
 73
4
 74
0
 40
0
 40
0
 40
0
 40
0
 40
1
 40
1
 40
1
 40
1
 10
98.248010
 20
202.313548
 30
0.0
 10
98.568403
 20
202.313548
 30
0.0
 10
98.842287
 20
202.427235
 30
0.0
 10
99.069660
 20
202.654608
 30
0.0
  0
SPLINE
  5
192
100
AcDbEntity
  8
Layer_1
 62
3
100
AcDbSpline
 70
8
 71
3
 72
8
 73
4
 74
0
 40
0
 40
0
 40
0
 40
0
 40
1
 40
1
 40
1
 40
1
 10
99.069660
 20
202.654608
 30
0.0
 10
99.297040
 20
202.881981
 30
0.0
 10
99.410730
 20
203.155868
 30
0.0
 10
99.410730
 20
203.476268
 30
0.0
  0
SPLINE
  5
193
100
AcDbEntity
  8
Layer_1
 62
3
100
AcDbSpline
 70
8
 71
3
 72
8
 73
4
 74
0
 40
0
 40
0
 40
0
 40
0
 40
1
 40
1
 40
1
 40
1
 10
99.410730
 20
203.476268
 30
0.0
 10
99.410730
 20
203.796661
 30
0.0
 10
99.297040
 20
204.070545
 30
0.0
 10
99.069660
 20
204.297918
 30
0.0
  0
SPLINE
  5
194
100
AcDbEntity
  8
Layer_1
 62
3
100
AcDbSpline
 70
8
 71
3
 72
8
 73
4
 74
0
 40
0
 40
0
 40
0
 40
0
 40
1
 40
1
 40
1
 40
1
 10
99.069660
 20
204.297918
 30
0.0
 10
98.842287
 20
204.525298
 30
0.0
 10
98.568403
 20
204.638988
 30
0.0
 10
98.248010
 20
204.638988
 30
0.0
  0
LINE
  5
195
100
AcDbEntity
  8
Layer_1
 62
3
100
AcDbLine
 10
98.248010
 20
204.638988
 30
0.0
 11
98.248010
 21
204.638988
 31
0.0
  0
LINE
  5
196
100
AcDbEntity
  8
Layer_1
 62
3
100
AcDbLine
 10
97.550380
 20
201.280018
 30
0.0
 11
96.310140
 21
201.280018
 31
0.0
  0
LINE
  5
197
100
AcDbEntity
  8
Layer_1
 62
3
100
AcDbLine
 10
96.310140
 20
201.280018
 30
0.0
 11
96.310140
 21
198.437808
 31
0.0
  0
SPLINE
  5
198
100
AcDbEntity
  8
Layer_1
 62
3
100
AcDbSpline
 70
8
 71
3
 72
8
 73
4
 74
0
 40
0
 40
0
 40
0
 40
0
 40
1
 40
1
 40
1
 40
1
 10
96.310140
 20
198.437808
 30
0.0
 10
96.310140
 20
198.296561
 30
0.0
 10
96.258463
 20
198.174261
 30
0.0
 10
96.155110
 20
198.070908
 30
0.0
  0
SPLINE
  5
199
100
AcDbEntity
  8
Layer_1
 62
3
100
AcDbSpline
 70
8
 71
3
 72
8
 73
4
 74
0
 40
0
 40
0
 40
0
 40
0
 40
1
 40
1
 40
1
 40
1
 10
96.155110
 20
198.070908
 30
0.0
 10
96.055203
 20
197.971001
 30
0.0
 10
95.934627
 20
197.921048
 30
0.0
 10
95.793380
 20
197.921048
 30
0.0
  0
SPLINE
  5
19a
100
AcDbEntity
  8
Layer_1
 62
3
100
AcDbSpline
 70
8
 71
3
 72
8
 73
4
 74
0
 40
0
 40
0
 40
0
 40
0
 40
1
 40
1
 40
1
 40
1
 10
95.793380
 20
197.921048
 30
0.0
 10
95.652127
 20
197.921048
 30
0.0
 10
95.529827
 20
197.971001
 30
0.0
 10
95.426480
 20
198.070908
 30
0.0
  0
SPLINE
  5
19b
100
AcDbEntity
  8
Layer_1
 62
3
100
AcDbSpline
 70
8
 71
3
 72
8
 73
4
 74
0
 40
0
 40
0
 40
0
 40
0
 40
1
 40
1
 40
1
 40
1
 10
95.426480
 20
198.070908
 30
0.0
 10
95.326567
 20
198.174261
 30
0.0
 10
95.276610
 20
198.296561
 30
0.0
 10
95.276610
 20
198.437808
 30
0.0
  0
LINE
  5
19c
100
AcDbEntity
  8
Layer_1
 62
3
100
AcDbLine
 10
95.276610
 20
198.437808
 30
0.0
 11
95.276610
 21
205.155748
 31
0.0
  0
SPLINE
  5
19d
100
AcDbEntity
  8
Layer_1
 62
3
100
AcDbSpline
 70
8
 71
3
 72
8
 73
4
 74
0
 40
0
 40
0
 40
0
 40
0
 40
1
 40
1
 40
1
 40
1
 10
95.276610
 20
205.155748
 30
0.0
 10
95.276610
 20
205.296995
 30
0.0
 10
95.326567
 20
205.417571
 30
0.0
 10
95.426480
 20
205.517478
 30
0.0
  0
SPLINE
  5
19e
100
AcDbEntity
  8
Layer_1
 62
3
100
AcDbSpline
 70
8
 71
3
 72
8
 73
4
 74
0
 40
0
 40
0
 40
0
 40
0
 40
1
 40
1
 40
1
 40
1
 10
95.426480
 20
205.517478
 30
0.0
 10
95.529827
 20
205.620831
 30
0.0
 10
95.652127
 20
205.672508
 30
0.0
 10
95.793380
 20
205.672508
 30
0.0
  0
LINE
  5
19f
100
AcDbEntity
  8
Layer_1
 62
3
100
AcDbLine
 10
95.793380
 20
205.672508
 30
0.0
 11
98.248010
 21
205.672508
 31
0.0
  0
SPLINE
  5
1a0
100
AcDbEntity
  8
Layer_1
 62
3
100
AcDbSpline
 70
8
 71
3
 72
8
 73
4
 74
0
 40
0
 40
0
 40
0
 40
0
 40
1
 40
1
 40
1
 40
1
 10
98.248010
 20
205.672508
 30
0.0
 10
98.854343
 20
205.672508
 30
0.0
 10
99.371107
 20
205.457191
 30
0.0
 10
99.798300
 20
205.026558
 30
0.0
  0
SPLINE
  5
1a1
100
AcDbEntity
  8
Layer_1
 62
3
100
AcDbSpline
 70
8
 71
3
 72
8
 73
4
 74
0
 40
0
 40
0
 40
0
 40
0
 40
1
 40
1
 40
1
 40
1
 10
99.798300
 20
205.026558
 30
0.0
 10
100.228940
 20
204.599365
 30
0.0
 10
100.444260
 20
204.082601
 30
0.0
 10
100.444260
 20
203.476268
 30
0.0
  0
SPLINE
  5
1a2
100
AcDbEntity
  8
Layer_1
 62
3
100
AcDbSpline
 70
8
 71
3
 72
8
 73
4
 74
0
 40
0
 40
0
 40
0
 40
0
 40
1
 40
1
 40
1
 40
1
 10
100.444260
 20
203.476268
 30
0.0
 10
100.444260
 20
202.869928
 30
0.0
 10
100.230663
 20
202.353161
 30
0.0
 10
99.803470
 20
201.925968
 30
0.0
  0
SPLINE
  5
1a3
100
AcDbEntity
  8
Layer_1
 62
3
100
AcDbSpline
 70
8
 71
3
 72
8
 73
4
 74
0
 40
0
 40
0
 40
0
 40
0
 40
1
 40
1
 40
1
 40
1
 10
99.803470
 20
201.925968
 30
0.0
 10
99.500303
 20
201.622801
 30
0.0
 10
99.154070
 20
201.426431
 30
0.0
 10
98.764770
 20
201.336858
 30
0.0
  0
LINE
  5
1a4
100
AcDbEntity
  8
Layer_1
 62
3
100
AcDbLine
 10
98.764770
 20
201.336858
 30
0.0
 11
100.237550
 21
198.954578
 31
0.0
  0
SPLINE
  5
1a5
100
AcDbEntity
  8
Layer_1
 62
3
100
AcDbSpline
 70
8
 71
3
 72
8
 73
4
 74
0
 40
0
 40
0
 40
0
 40
0
 40
1
 40
1
 40
1
 40
1
 10
100.237550
 20
198.954578
 30
0.0
 10
100.375357
 20
198.751318
 30
0.0
 10
100.444260
 20
198.579061
 30
0.0
 10
100.444260
 20
198.437808
 30
0.0
  0
SPLINE
  5
1a6
100
AcDbEntity
  8
Layer_1
 62
3
100
AcDbSpline
 70
8
 71
3
 72
8
 73
4
 74
0
 40
0
 40
0
 40
0
 40
0
 40
1
 40
1
 40
1
 40
1
 10
100.444260
 20
198.437808
 30
0.0
 10
100.444260
 20
198.296561
 30
0.0
 10
100.392583
 20
198.174261
 30
0.0
 10
100.289230
 20
198.070908
 30
0.0
  0
SPLINE
  5
1a7
100
AcDbEntity
  8
Layer_1
 62
3
100
AcDbSpline
 70
8
 71
3
 72
8
 73
4
 74
0
 40
0
 40
0
 40
0
 40
0
 40
1
 40
1
 40
1
 40
1
 10
100.289230
 20
198.070908
 30
0.0
 10
100.189323
 20
197.971001
 30
0.0
 10
100.068743
 20
197.921048
 30
0.0
 10
99.927490
 20
197.921048
 30
0.0
  0
SPLINE
  5
1a8
100
AcDbEntity
  8
Layer_1
 62
3
100
AcDbSpline
 70
8
 71
3
 72
8
 73
4
 74
0
 40
0
 40
0
 40
0
 40
0
 40
1
 40
1
 40
1
 40
1
 10
99.927490
 20
197.921048
 30
0.0
 10
99.786243
 20
197.921048
 30
0.0
 10
99.663943
 20
197.971001
 30
0.0
 10
99.560590
 20
198.070908
 30
0.0
  0
SPLINE
  5
1a9
100
AcDbEntity
  8
Layer_1
 62
3
100
AcDbSpline
 70
8
 71
3
 72
8
 73
4
 74
0
 40
0
 40
0
 40
0
 40
0
 40
1
 40
1
 40
1
 40
1
 10
99.560590
 20
198.070908
 30
0.0
 10
99.460683
 20
198.174261
 30
0.0
 10
99.376280
 20
198.296561
 30
0.0
 10
99.307380
 20
198.437808
 30
0.0
  0
LINE
  5
1aa
100
AcDbEntity
  8
Layer_1
 62
3
100
AcDbLine
 10
99.307380
 20
198.437808
 30
0.0
 11
97.550380
 21
201.280018
 31
0.0
  0
LINE
  5
1ab
100
AcDbEntity
  8
Layer_1
 62
3
100
AcDbLine
 10
103.497220
 20
201.621078
 30
0.0
 11
103.388700
 21
201.796778
 31
0.0
  0
LINE
  5
1ac
100
AcDbEntity
  8
Layer_1
 62
3
100
AcDbLine
 10
103.388700
 20
201.796778
 30
0.0
 11
101.636870
 21
204.638988
 31
0.0
  0
SPLINE
  5
1ad
100
AcDbEntity
  8
Layer_1
 62
3
100
AcDbSpline
 70
8
 71
3
 72
8
 73
4
 74
0
 40
0
 40
0
 40
0
 40
0
 40
1
 40
1
 40
1
 40
1
 10
101.636870
 20
204.638988
 30
0.0
 10
101.499063
 20
204.842248
 30
0.0
 10
101.430160
 20
205.014501
 30
0.0
 10
101.430160
 20
205.155748
 30
0.0
  0
SPLINE
  5
1ae
100
AcDbEntity
  8
Layer_1
 62
3
100
AcDbSpline
 70
8
 71
3
 72
8
 73
4
 74
0
 40
0
 40
0
 40
0
 40
0
 40
1
 40
1
 40
1
 40
1
 10
101.430160
 20
205.155748
 30
0.0
 10
101.430160
 20
205.296995
 30
0.0
 10
101.480113
 20
205.417571
 30
0.0
 10
101.580020
 20
205.517478
 30
0.0
  0
SPLINE
  5
1af
100
AcDbEntity
  8
Layer_1
 62
3
100
AcDbSpline
 70
8
 71
3
 72
8
 73
4
 74
0
 40
0
 40
0
 40
0
 40
0
 40
1
 40
1
 40
1
 40
1
 10
101.580020
 20
205.517478
 30
0.0
 10
101.683373
 20
205.620831
 30
0.0
 10
101.805677
 20
205.672508
 30
0.0
 10
101.946930
 20
205.672508
 30
0.0
  0
SPLINE
  5
1b0
100
AcDbEntity
  8
Layer_1
 62
3
100
AcDbSpline
 70
8
 71
3
 72
8
 73
4
 74
0
 40
0
 40
0
 40
0
 40
0
 40
1
 40
1
 40
1
 40
1
 10
101.946930
 20
205.672508
 30
0.0
 10
102.088177
 20
205.672508
 30
0.0
 10
102.208753
 20
205.620831
 30
0.0
 10
102.308660
 20
205.517478
 30
0.0
  0
SPLINE
  5
1b1
100
AcDbEntity
  8
Layer_1
 62
3
100
AcDbSpline
 70
8
 71
3
 72
8
 73
4
 74
0
 40
0
 40
0
 40
0
 40
0
 40
1
 40
1
 40
1
 40
1
 10
102.308660
 20
205.517478
 30
0.0
 10
102.412013
 20
205.417571
 30
0.0
 10
102.498140
 20
205.296995
 30
0.0
 10
102.567040
 20
205.155748
 30
0.0
  0
LINE
  5
1b2
100
AcDbEntity
  8
Layer_1
 62
3
100
AcDbLine
 10
102.567040
 20
205.155748
 30
0.0
 11
104.013980
 21
202.809638
 31
0.0
  0
LINE
  5
1b3
100
AcDbEntity
  8
Layer_1
 62
3
100
AcDbLine
 10
104.013980
 20
202.809638
 30
0.0
 11
105.460920
 21
205.155748
 31
0.0
  0
SPLINE
  5
1b4
100
AcDbEntity
  8
Layer_1
 62
3
100
AcDbSpline
 70
8
 71
3
 72
8
 73
4
 74
0
 40
0
 40
0
 40
0
 40
0
 40
1
 40
1
 40
1
 40
1
 10
105.460920
 20
205.155748
 30
0.0
 10
105.529827
 20
205.296995
 30
0.0
 10
105.614233
 20
205.417571
 30
0.0
 10
105.714140
 20
205.517478
 30
0.0
  0
SPLINE
  5
1b5
100
AcDbEntity
  8
Layer_1
 62
3
100
AcDbSpline
 70
8
 71
3
 72
8
 73
4
 74
0
 40
0
 40
0
 40
0
 40
0
 40
1
 40
1
 40
1
 40
1
 10
105.714140
 20
205.517478
 30
0.0
 10
105.817493
 20
205.620831
 30
0.0
 10
105.939793
 20
205.672508
 30
0.0
 10
106.081040
 20
205.672508
 30
0.0
  0
SPLINE
  5
1b6
100
AcDbEntity
  8
Layer_1
 62
3
100
AcDbSpline
 70
8
 71
3
 72
8
 73
4
 74
0
 40
0
 40
0
 40
0
 40
0
 40
1
 40
1
 40
1
 40
1
 10
106.081040
 20
205.672508
 30
0.0
 10
106.222287
 20
205.672508
 30
0.0
 10
106.342867
 20
205.620831
 30
0.0
 10
106.442780
 20
205.517478
 30
0.0
  0
SPLINE
  5
1b7
100
AcDbEntity
  8
Layer_1
 62
3
100
AcDbSpline
 70
8
 71
3
 72
8
 73
4
 74
0
 40
0
 40
0
 40
0
 40
0
 40
1
 40
1
 40
1
 40
1
 10
106.442780
 20
205.517478
 30
0.0
 10
106.546127
 20
205.417571
 30
0.0
 10
106.597800
 20
205.296995
 30
0.0
 10
106.597800
 20
205.155748
 30
0.0
  0
SPLINE
  5
1b8
100
AcDbEntity
  8
Layer_1
 62
3
100
AcDbSpline
 70
8
 71
3
 72
8
 73
4
 74
0
 40
0
 40
0
 40
0
 40
0
 40
1
 40
1
 40
1
 40
1
 10
106.597800
 20
205.155748
 30
0.0
 10
106.597800
 20
205.014501
 30
0.0
 10
106.528900
 20
204.842248
 30
0.0
 10
106.391100
 20
204.638988
 30
0.0
  0
LINE
  5
1b9
100
AcDbEntity
  8
Layer_1
 62
3
100
AcDbLine
 10
106.391100
 20
204.638988
 30
0.0
 11
104.639270
 21
201.796778
 31
0.0
  0
LINE
  5
1ba
100
AcDbEntity
  8
Layer_1
 62
3
100
AcDbLine
 10
104.639270
 20
201.796778
 30
0.0
 11
104.530750
 21
201.621078
 31
0.0
  0
LINE
  5
1bb
100
AcDbEntity
  8
Layer_1
 62
3
100
AcDbLine
 10
104.530750
 20
201.621078
 30
0.0
 11
104.530750
 21
198.437808
 31
0.0
  0
SPLINE
  5
1bc
100
AcDbEntity
  8
Layer_1
 62
3
100
AcDbSpline
 70
8
 71
3
 72
8
 73
4
 74
0
 40
0
 40
0
 40
0
 40
0
 40
1
 40
1
 40
1
 40
1
 10
104.530750
 20
198.437808
 30
0.0
 10
104.530750
 20
198.296561
 30
0.0
 10
104.479073
 20
198.174261
 30
0.0
 10
104.375720
 20
198.070908
 30
0.0
  0
SPLINE
  5
1bd
100
AcDbEntity
  8
Layer_1
 62
3
100
AcDbSpline
 70
8
 71
3
 72
8
 73
4
 74
0
 40
0
 40
0
 40
0
 40
0
 40
1
 40
1
 40
1
 40
1
 10
104.375720
 20
198.070908
 30
0.0
 10
104.275813
 20
197.971001
 30
0.0
 10
104.155233
 20
197.921048
 30
0.0
 10
104.013980
 20
197.921048
 30
0.0
  0
SPLINE
  5
1be
100
AcDbEntity
  8
Layer_1
 62
3
100
AcDbSpline
 70
8
 71
3
 72
8
 73
4
 74
0
 40
0
 40
0
 40
0
 40
0
 40
1
 40
1
 40
1
 40
1
 10
104.013980
 20
197.921048
 30
0.0
 10
103.872733
 20
197.921048
 30
0.0
 10
103.750433
 20
197.971001
 30
0.0
 10
103.647080
 20
198.070908
 30
0.0
  0
SPLINE
  5
1bf
100
AcDbEntity
  8
Layer_1
 62
3
100
AcDbSpline
 70
8
 71
3
 72
8
 73
4
 74
0
 40
0
 40
0
 40
0
 40
0
 40
1
 40
1
 40
1
 40
1
 10
103.647080
 20
198.070908
 30
0.0
 10
103.547173
 20
198.174261
 30
0.0
 10
103.497220
 20
198.296561
 30
0.0
 10
103.497220
 20
198.437808
 30
0.0
  0
LINE
  5
1c0
100
AcDbEntity
  8
Layer_1
 62
3
100
AcDbLine
 10
103.497220
 20
198.437808
 30
0.0
 11
103.497220
 21
201.621078
 31
0.0
  0
LINE
  5
1c1
100
AcDbEntity
  8
Layer_1
 62
3
100
AcDbLine
 10
108.418680
 20
199.471338
 30
0.0
 11
108.134460
 21
198.541168
 31
0.0
  0
SPLINE
  5
1c2
100
AcDbEntity
  8
Layer_1
 62
3
100
AcDbSpline
 70
8
 71
3
 72
8
 73
4
 74
0
 40
0
 40
0
 40
0
 40
0
 40
1
 40
1
 40
1
 40
1
 10
108.134460
 20
198.541168
 30
0.0
 10
108.065553
 20
198.331015
 30
0.0
 10
107.988037
 20
198.174261
 30
0.0
 10
107.901910
 20
198.070908
 30
0.0
  0
SPLINE
  5
1c3
100
AcDbEntity
  8
Layer_1
 62
3
100
AcDbSpline
 70
8
 71
3
 72
8
 73
4
 74
0
 40
0
 40
0
 40
0
 40
0
 40
1
 40
1
 40
1
 40
1
 10
107.901910
 20
198.070908
 30
0.0
 10
107.819230
 20
197.971001
 30
0.0
 10
107.707263
 20
197.921048
 30
0.0
 10
107.566010
 20
197.921048
 30
0.0
  0
SPLINE
  5
1c4
100
AcDbEntity
  8
Layer_1
 62
3
100
AcDbSpline
 70
8
 71
3
 72
8
 73
4
 74
0
 40
0
 40
0
 40
0
 40
0
 40
1
 40
1
 40
1
 40
1
 10
107.566010
 20
197.921048
 30
0.0
 10
107.424763
 20
197.921048
 30
0.0
 10
107.302463
 20
197.971001
 30
0.0
 10
107.199110
 20
198.070908
 30
0.0
  0
SPLINE
  5
1c5
100
AcDbEntity
  8
Layer_1
 62
3
100
AcDbSpline
 70
8
 71
3
 72
8
 73
4
 74
0
 40
0
 40
0
 40
0
 40
0
 40
1
 40
1
 40
1
 40
1
 10
107.199110
 20
198.070908
 30
0.0
 10
107.099203
 20
198.174261
 30
0.0
 10
107.049250
 20
198.296561
 30
0.0
 10
107.049250
 20
198.437808
 30
0.0
  0
SPLINE
  5
1c6
100
AcDbEntity
  8
Layer_1
 62
3
100
AcDbSpline
 70
8
 71
3
 72
8
 73
4
 74
0
 40
0
 40
0
 40
0
 40
0
 40
1
 40
1
 40
1
 40
1
 10
107.049250
 20
198.437808
 30
0.0
 10
107.049250
 20
198.554941
 30
0.0
 10
107.083700
 20
198.692745
 30
0.0
 10
107.152600
 20
198.851218
 30
0.0
  0
LINE
  5
1c7
100
AcDbEntity
  8
Layer_1
 62
3
100
AcDbLine
 10
107.152600
 20
198.851218
 30
0.0
 11
109.116310
 21
205.259098
 31
0.0
  0
LINE
  5
1c8
100
AcDbEntity
  8
Layer_1
 62
3
100
AcDbLine
 10
109.116310
 20
205.259098
 30
0.0
 11
109.126640
 21
205.259098
 31
0.0
  0
SPLINE
  5
1c9
100
AcDbEntity
  8
Layer_1
 62
3
100
AcDbSpline
 70
8
 71
3
 72
8
 73
4
 74
0
 40
0
 40
0
 40
0
 40
0
 40
1
 40
1
 40
1
 40
1
 10
109.126640
 20
205.259098
 30
0.0
 10
109.143867
 20
205.355565
 30
0.0
 10
109.192100
 20
205.441691
 30
0.0
 10
109.271340
 20
205.517478
 30
0.0
  0
SPLINE
  5
1ca
100
AcDbEntity
  8
Layer_1
 62
3
100
AcDbSpline
 70
8
 71
3
 72
8
 73
4
 74
0
 40
0
 40
0
 40
0
 40
0
 40
1
 40
1
 40
1
 40
1
 10
109.271340
 20
205.517478
 30
0.0
 10
109.371247
 20
205.620831
 30
0.0
 10
109.491823
 20
205.672508
 30
0.0
 10
109.633070
 20
205.672508
 30
0.0
  0
SPLINE
  5
1cb
100
AcDbEntity
  8
Layer_1
 62
3
100
AcDbSpline
 70
8
 71
3
 72
8
 73
4
 74
0
 40
0
 40
0
 40
0
 40
0
 40
1
 40
1
 40
1
 40
1
 10
109.633070
 20
205.672508
 30
0.0
 10
109.774323
 20
205.672508
 30
0.0
 10
109.896623
 20
205.620831
 30
0.0
 10
109.999970
 20
205.517478
 30
0.0
  0
SPLINE
  5
1cc
100
AcDbEntity
  8
Layer_1
 62
3
100
AcDbSpline
 70
8
 71
3
 72
8
 73
4
 74
0
 40
0
 40
0
 40
0
 40
0
 40
1
 40
1
 40
1
 40
1
 10
109.999970
 20
205.517478
 30
0.0
 10
110.075763
 20
205.441691
 30
0.0
 10
110.122273
 20
205.355565
 30
0.0
 10
110.139500
 20
205.259098
 30
0.0
  0
LINE
  5
1cd
100
AcDbEntity
  8
Layer_1
 62
3
100
AcDbLine
 10
110.139500
 20
205.259098
 30
0.0
 11
110.149840
 21
205.259098
 31
0.0
  0
LINE
  5
1ce
100
AcDbEntity
  8
Layer_1
 62
3
100
AcDbLine
 10
110.149840
 20
205.259098
 30
0.0
 11
112.113540
 21
198.851218
 31
0.0
  0
SPLINE
  5
1cf
100
AcDbEntity
  8
Layer_1
 62
3
100
AcDbSpline
 70
8
 71
3
 72
8
 73
4
 74
0
 40
0
 40
0
 40
0
 40
0
 40
1
 40
1
 40
1
 40
1
 10
112.113540
 20
198.851218
 30
0.0
 10
112.182440
 20
198.692745
 30
0.0
 10
112.216890
 20
198.554941
 30
0.0
 10
112.216890
 20
198.437808
 30
0.0
  0
SPLINE
  5
1d0
100
AcDbEntity
  8
Layer_1
 62
3
100
AcDbSpline
 70
8
 71
3
 72
8
 73
4
 74
0
 40
0
 40
0
 40
0
 40
0
 40
1
 40
1
 40
1
 40
1
 10
112.216890
 20
198.437808
 30
0.0
 10
112.216890
 20
198.296561
 30
0.0
 10
112.165213
 20
198.174261
 30
0.0
 10
112.061860
 20
198.070908
 30
0.0
  0
SPLINE
  5
1d1
100
AcDbEntity
  8
Layer_1
 62
3
100
AcDbSpline
 70
8
 71
3
 72
8
 73
4
 74
0
 40
0
 40
0
 40
0
 40
0
 40
1
 40
1
 40
1
 40
1
 10
112.061860
 20
198.070908
 30
0.0
 10
111.961953
 20
197.971001
 30
0.0
 10
111.841377
 20
197.921048
 30
0.0
 10
111.700130
 20
197.921048
 30
0.0
  0
SPLINE
  5
1d2
100
AcDbEntity
  8
Layer_1
 62
3
100
AcDbSpline
 70
8
 71
3
 72
8
 73
4
 74
0
 40
0
 40
0
 40
0
 40
0
 40
1
 40
1
 40
1
 40
1
 10
111.700130
 20
197.921048
 30
0.0
 10
111.558883
 20
197.921048
 30
0.0
 10
111.445193
 20
197.971001
 30
0.0
 10
111.359060
 20
198.070908
 30
0.0
  0
SPLINE
  5
1d3
100
AcDbEntity
  8
Layer_1
 62
3
100
AcDbSpline
 70
8
 71
3
 72
8
 73
4
 74
0
 40
0
 40
0
 40
0
 40
0
 40
1
 40
1
 40
1
 40
1
 10
111.359060
 20
198.070908
 30
0.0
 10
111.276380
 20
198.174261
 30
0.0
 10
111.200590
 20
198.331015
 30
0.0
 10
111.131690
 20
198.541168
 30
0.0
  0
LINE
  5
1d4
100
AcDbEntity
  8
Layer_1
 62
3
100
AcDbLine
 10
111.131690
 20
198.541168
 30
0.0
 11
110.847470
 21
199.471338
 31
0.0
  0
LINE
  5
1d5
100
AcDbEntity
  8
Layer_1
 62
3
100
AcDbLine
 10
110.847470
 20
199.471338
 30
0.0
 11
108.418680
 21
199.471338
 31
0.0
  0
LINE
  5
1d6
100
AcDbEntity
  8
Layer_1
 62
3
100
AcDbLine
 10
110.532240
 20
200.504868
 30
0.0
 11
109.633070
 21
203.460758
 31
0.0
  0
LINE
  5
1d7
100
AcDbEntity
  8
Layer_1
 62
3
100
AcDbLine
 10
109.633070
 20
203.460758
 30
0.0
 11
108.733900
 21
200.504868
 31
0.0
  0
LINE
  5
1d8
100
AcDbEntity
  8
Layer_1
 62
3
100
AcDbLine
 10
108.733900
 20
200.504868
 30
0.0
 11
110.532240
 21
200.504868
 31
0.0
  0
SPLINE
  5
1d9
100
AcDbEntity
  8
Layer_1
 62
3
100
AcDbSpline
 70
8
 71
3
 72
8
 73
4
 74
0
 40
0
 40
0
 40
0
 40
0
 40
1
 40
1
 40
1
 40
1
 10
114.128920
 20
205.517478
 30
0.0
 10
114.232273
 20
205.417571
 30
0.0
 10
114.318400
 20
205.296995
 30
0.0
 10
114.387300
 20
205.155748
 30
0.0
  0
LINE
  5
1da
100
AcDbEntity
  8
Layer_1
 62
3
100
AcDbLine
 10
114.387300
 20
205.155748
 30
0.0
 11
117.384540
 21
200.292998
 31
0.0
  0
LINE
  5
1db
100
AcDbEntity
  8
Layer_1
 62
3
100
AcDbLine
 10
117.384540
 20
200.292998
 30
0.0
 11
117.384540
 21
205.155748
 31
0.0
  0
SPLINE
  5
1dc
100
AcDbEntity
  8
Layer_1
 62
3
100
AcDbSpline
 70
8
 71
3
 72
8
 73
4
 74
0
 40
0
 40
0
 40
0
 40
0
 40
1
 40
1
 40
1
 40
1
 10
117.384540
 20
205.155748
 30
0.0
 10
117.384540
 20
205.296995
 30
0.0
 10
117.434493
 20
205.417571
 30
0.0
 10
117.534400
 20
205.517478
 30
0.0
  0
SPLINE
  5
1dd
100
AcDbEntity
  8
Layer_1
 62
3
100
AcDbSpline
 70
8
 71
3
 72
8
 73
4
 74
0
 40
0
 40
0
 40
0
 40
0
 40
1
 40
1
 40
1
 40
1
 10
117.534400
 20
205.517478
 30
0.0
 10
117.637753
 20
205.620831
 30
0.0
 10
117.760053
 20
205.672508
 30
0.0
 10
117.901300
 20
205.672508
 30
0.0
  0
SPLINE
  5
1de
100
AcDbEntity
  8
Layer_1
 62
3
100
AcDbSpline
 70
8
 71
3
 72
8
 73
4
 74
0
 40
0
 40
0
 40
0
 40
0
 40
1
 40
1
 40
1
 40
1
 10
117.901300
 20
205.672508
 30
0.0
 10
118.042547
 20
205.672508
 30
0.0
 10
118.163127
 20
205.620831
 30
0.0
 10
118.263040
 20
205.517478
 30
0.0
  0
SPLINE
  5
1df
100
AcDbEntity
  8
Layer_1
 62
3
100
AcDbSpline
 70
8
 71
3
 72
8
 73
4
 74
0
 40
0
 40
0
 40
0
 40
0
 40
1
 40
1
 40
1
 40
1
 10
118.263040
 20
205.517478
 30
0.0
 10
118.366393
 20
205.417571
 30
0.0
 10
118.418070
 20
205.296995
 30
0.0
 10
118.418070
 20
205.155748
 30
0.0
  0
LINE
  5
1e0
100
AcDbEntity
  8
Layer_1
 62
3
100
AcDbLine
 10
118.418070
 20
205.155748
 30
0.0
 11
118.418070
 21
198.437808
 31
0.0
  0
SPLINE
  5
1e1
100
AcDbEntity
  8
Layer_1
 62
3
100
AcDbSpline
 70
8
 71
3
 72
8
 73
4
 74
0
 40
0
 40
0
 40
0
 40
0
 40
1
 40
1
 40
1
 40
1
 10
118.418070
 20
198.437808
 30
0.0
 10
118.418070
 20
198.296561
 30
0.0
 10
118.366393
 20
198.174261
 30
0.0
 10
118.263040
 20
198.070908
 30
0.0
  0
SPLINE
  5
1e2
100
AcDbEntity
  8
Layer_1
 62
3
100
AcDbSpline
 70
8
 71
3
 72
8
 73
4
 74
0
 40
0
 40
0
 40
0
 40
0
 40
1
 40
1
 40
1
 40
1
 10
118.263040
 20
198.070908
 30
0.0
 10
118.163127
 20
197.971001
 30
0.0
 10
118.042547
 20
197.921048
 30
0.0
 10
117.901300
 20
197.921048
 30
0.0
  0
SPLINE
  5
1e3
100
AcDbEntity
  8
Layer_1
 62
3
100
AcDbSpline
 70
8
 71
3
 72
8
 73
4
 74
0
 40
0
 40
0
 40
0
 40
0
 40
1
 40
1
 40
1
 40
1
 10
117.901300
 20
197.921048
 30
0.0
 10
117.760053
 20
197.921048
 30
0.0
 10
117.637753
 20
197.971001
 30
0.0
 10
117.534400
 20
198.070908
 30
0.0
  0
SPLINE
  5
1e4
100
AcDbEntity
  8
Layer_1
 62
3
100
AcDbSpline
 70
8
 71
3
 72
8
 73
4
 74
0
 40
0
 40
0
 40
0
 40
0
 40
1
 40
1
 40
1
 40
1
 10
117.534400
 20
198.070908
 30
0.0
 10
117.434493
 20
198.174261
 30
0.0
 10
117.350087
 20
198.296561
 30
0.0
 10
117.281180
 20
198.437808
 30
0.0
  0
LINE
  5
1e5
100
AcDbEntity
  8
Layer_1
 62
3
100
AcDbLine
 10
117.281180
 20
198.437808
 30
0.0
 11
114.283950
 21
203.300568
 31
0.0
  0
LINE
  5
1e6
100
AcDbEntity
  8
Layer_1
 62
3
100
AcDbLine
 10
114.283950
 20
203.300568
 30
0.0
 11
114.283950
 21
198.437808
 31
0.0
  0
SPLINE
  5
1e7
100
AcDbEntity
  8
Layer_1
 62
3
100
AcDbSpline
 70
8
 71
3
 72
8
 73
4
 74
0
 40
0
 40
0
 40
0
 40
0
 40
1
 40
1
 40
1
 40
1
 10
114.283950
 20
198.437808
 30
0.0
 10
114.283950
 20
198.296561
 30
0.0
 10
114.232273
 20
198.174261
 30
0.0
 10
114.128920
 20
198.070908
 30
0.0
  0
SPLINE
  5
1e8
100
AcDbEntity
  8
Layer_1
 62
3
100
AcDbSpline
 70
8
 71
3
 72
8
 73
4
 74
0
 40
0
 40
0
 40
0
 40
0
 40
1
 40
1
 40
1
 40
1
 10
114.128920
 20
198.070908
 30
0.0
 10
114.029013
 20
197.971001
 30
0.0
 10
113.908437
 20
197.921048
 30
0.0
 10
113.767190
 20
197.921048
 30
0.0
  0
SPLINE
  5
1e9
100
AcDbEntity
  8
Layer_1
 62
3
100
AcDbSpline
 70
8
 71
3
 72
8
 73
4
 74
0
 40
0
 40
0
 40
0
 40
0
 40
1
 40
1
 40
1
 40
1
 10
113.767190
 20
197.921048
 30
0.0
 10
113.625937
 20
197.921048
 30
0.0
 10
113.503633
 20
197.971001
 30
0.0
 10
113.400280
 20
198.070908
 30
0.0
  0
SPLINE
  5
1ea
100
AcDbEntity
  8
Layer_1
 62
3
100
AcDbSpline
 70
8
 71
3
 72
8
 73
4
 74
0
 40
0
 40
0
 40
0
 40
0
 40
1
 40
1
 40
1
 40
1
 10
113.400280
 20
198.070908
 30
0.0
 10
113.300373
 20
198.174261
 30
0.0
 10
113.250420
 20
198.296561
 30
0.0
 10
113.250420
 20
198.437808
 30
0.0
  0
LINE
  5
1eb
100
AcDbEntity
  8
Layer_1
 62
3
100
AcDbLine
 10
113.250420
 20
198.437808
 30
0.0
 11
113.250420
 21
205.155748
 31
0.0
  0
SPLINE
  5
1ec
100
AcDbEntity
  8
Layer_1
 62
3
100
AcDbSpline
 70
8
 71
3
 72
8
 73
4
 74
0
 40
0
 40
0
 40
0
 40
0
 40
1
 40
1
 40
1
 40
1
 10
113.250420
 20
205.155748
 30
0.0
 10
113.250420
 20
205.296995
 30
0.0
 10
113.300373
 20
205.417571
 30
0.0
 10
113.400280
 20
205.517478
 30
0.0
  0
SPLINE
  5
1ed
100
AcDbEntity
  8
Layer_1
 62
3
100
AcDbSpline
 70
8
 71
3
 72
8
 73
4
 74
0
 40
0
 40
0
 40
0
 40
0
 40
1
 40
1
 40
1
 40
1
 10
113.400280
 20
205.517478
 30
0.0
 10
113.503633
 20
205.620831
 30
0.0
 10
113.625937
 20
205.672508
 30
0.0
 10
113.767190
 20
205.672508
 30
0.0
  0
SPLINE
  5
1ee
100
AcDbEntity
  8
Layer_1
 62
3
100
AcDbSpline
 70
8
 71
3
 72
8
 73
4
 74
0
 40
0
 40
0
 40
0
 40
0
 40
1
 40
1
 40
1
 40
1
 10
113.767190
 20
205.672508
 30
0.0
 10
113.908437
 20
205.672508
 30
0.0
 10
114.029013
 20
205.620831
 30
0.0
 10
114.128920
 20
205.517478
 30
0.0
  0
LINE
  5
1ef
100
AcDbEntity
  8
Layer_1
 62
3
100
AcDbLine
 10
114.128920
 20
205.517478
 30
0.0
 11
114.128920
 21
205.517478
 31
0.0
  0
SPLINE
  5
1f0
100
AcDbEntity
  8
Layer_1
 62
3
100
AcDbSpline
 70
8
 71
3
 72
8
 73
4
 74
0
 40
0
 40
0
 40
0
 40
0
 40
1
 40
1
 40
1
 40
1
 10
129.786880
 20
200.504868
 30
0.0
 10
129.786880
 20
200.646115
 30
0.0
 10
129.836833
 20
200.766695
 30
0.0
 10
129.936740
 20
200.866608
 30
0.0
  0
SPLINE
  5
1f1
100
AcDbEntity
  8
Layer_1
 62
3
100
AcDbSpline
 70
8
 71
3
 72
8
 73
4
 74
0
 40
0
 40
0
 40
0
 40
0
 40
1
 40
1
 40
1
 40
1
 10
129.936740
 20
200.866608
 30
0.0
 10
130.040093
 20
200.969961
 30
0.0
 10
130.162397
 20
201.021638
 30
0.0
 10
130.303650
 20
201.021638
 30
0.0
  0
SPLINE
  5
1f2
100
AcDbEntity
  8
Layer_1
 62
3
100
AcDbSpline
 70
8
 71
3
 72
8
 73
4
 74
0
 40
0
 40
0
 40
0
 40
0
 40
1
 40
1
 40
1
 40
1
 10
130.303650
 20
201.021638
 30
0.0
 10
130.444897
 20
201.021638
 30
0.0
 10
130.565473
 20
200.969961
 30
0.0
 10
130.665380
 20
200.866608
 30
0.0
  0
SPLINE
  5
1f3
100
AcDbEntity
  8
Layer_1
 62
3
100
AcDbSpline
 70
8
 71
3
 72
8
 73
4
 74
0
 40
0
 40
0
 40
0
 40
0
 40
1
 40
1
 40
1
 40
1
 10
130.665380
 20
200.866608
 30
0.0
 10
130.768733
 20
200.766695
 30
0.0
 10
130.820410
 20
200.646115
 30
0.0
 10
130.820410
 20
200.504868
 30
0.0
  0
SPLINE
  5
1f4
100
AcDbEntity
  8
Layer_1
 62
3
100
AcDbSpline
 70
8
 71
3
 72
8
 73
4
 74
0
 40
0
 40
0
 40
0
 40
0
 40
1
 40
1
 40
1
 40
1
 10
130.820410
 20
200.504868
 30
0.0
 10
130.820410
 20
199.791735
 30
0.0
 10
130.567197
 20
199.181951
 30
0.0
 10
130.060770
 20
198.675518
 30
0.0
  0
SPLINE
  5
1f5
100
AcDbEntity
  8
Layer_1
 62
3
100
AcDbSpline
 70
8
 71
3
 72
8
 73
4
 74
0
 40
0
 40
0
 40
0
 40
0
 40
1
 40
1
 40
1
 40
1
 10
130.060770
 20
198.675518
 30
0.0
 10
129.557783
 20
198.172538
 30
0.0
 10
128.949723
 20
197.921048
 30
0.0
 10
128.236590
 20
197.921048
 30
0.0
  0
SPLINE
  5
1f6
100
AcDbEntity
  8
Layer_1
 62
3
100
AcDbSpline
 70
8
 71
3
 72
8
 73
4
 74
0
 40
0
 40
0
 40
0
 40
0
 40
1
 40
1
 40
1
 40
1
 10
128.236590
 20
197.921048
 30
0.0
 10
127.523457
 20
197.921048
 30
0.0
 10
126.913673
 20
198.172538
 30
0.0
 10
126.407240
 20
198.675518
 30
0.0
  0
SPLINE
  5
1f7
100
AcDbEntity
  8
Layer_1
 62
3
100
AcDbSpline
 70
8
 71
3
 72
8
 73
4
 74
0
 40
0
 40
0
 40
0
 40
0
 40
1
 40
1
 40
1
 40
1
 10
126.407240
 20
198.675518
 30
0.0
 10
125.904260
 20
199.181951
 30
0.0
 10
125.652770
 20
199.791735
 30
0.0
 10
125.652770
 20
200.504868
 30
0.0
  0
LINE
  5
1f8
100
AcDbEntity
  8
Layer_1
 62
3
100
AcDbLine
 10
125.652770
 20
200.504868
 30
0.0
 11
125.652770
 21
203.088688
 31
0.0
  0
SPLINE
  5
1f9
100
AcDbEntity
  8
Layer_1
 62
3
100
AcDbSpline
 70
8
 71
3
 72
8
 73
4
 74
0
 40
0
 40
0
 40
0
 40
0
 40
1
 40
1
 40
1
 40
1
 10
125.652770
 20
203.088688
 30
0.0
 10
125.652770
 20
203.801821
 30
0.0
 10
125.904260
 20
204.409881
 30
0.0
 10
126.407240
 20
204.912868
 30
0.0
  0
SPLINE
  5
1fa
100
AcDbEntity
  8
Layer_1
 62
3
100
AcDbSpline
 70
8
 71
3
 72
8
 73
4
 74
0
 40
0
 40
0
 40
0
 40
0
 40
1
 40
1
 40
1
 40
1
 10
126.407240
 20
204.912868
 30
0.0
 10
126.913673
 20
205.419295
 30
0.0
 10
127.523457
 20
205.672508
 30
0.0
 10
128.236590
 20
205.672508
 30
0.0
  0
SPLINE
  5
1fb
100
AcDbEntity
  8
Layer_1
 62
3
100
AcDbSpline
 70
8
 71
3
 72
8
 73
4
 74
0
 40
0
 40
0
 40
0
 40
0
 40
1
 40
1
 40
1
 40
1
 10
128.236590
 20
205.672508
 30
0.0
 10
128.949723
 20
205.672508
 30
0.0
 10
129.557783
 20
205.419295
 30
0.0
 10
130.060770
 20
204.912868
 30
0.0
  0
SPLINE
  5
1fc
100
AcDbEntity
  8
Layer_1
 62
3
100
AcDbSpline
 70
8
 71
3
 72
8
 73
4
 74
0
 40
0
 40
0
 40
0
 40
0
 40
1
 40
1
 40
1
 40
1
 10
130.060770
 20
204.912868
 30
0.0
 10
130.567197
 20
204.409881
 30
0.0
 10
130.820410
 20
203.801821
 30
0.0
 10
130.820410
 20
203.088688
 30
0.0
  0
SPLINE
  5
1fd
100
AcDbEntity
  8
Layer_1
 62
3
100
AcDbSpline
 70
8
 71
3
 72
8
 73
4
 74
0
 40
0
 40
0
 40
0
 40
0
 40
1
 40
1
 40
1
 40
1
 10
130.820410
 20
203.088688
 30
0.0
 10
130.820410
 20
202.947441
 30
0.0
 10
130.768733
 20
202.825141
 30
0.0
 10
130.665380
 20
202.721788
 30
0.0
  0
SPLINE
  5
1fe
100
AcDbEntity
  8
Layer_1
 62
3
100
AcDbSpline
 70
8
 71
3
 72
8
 73
4
 74
0
 40
0
 40
0
 40
0
 40
0
 40
1
 40
1
 40
1
 40
1
 10
130.665380
 20
202.721788
 30
0.0
 10
130.565473
 20
202.621881
 30
0.0
 10
130.444897
 20
202.571928
 30
0.0
 10
130.303650
 20
202.571928
 30
0.0
  0
SPLINE
  5
1ff
100
AcDbEntity
  8
Layer_1
 62
3
100
AcDbSpline
 70
8
 71
3
 72
8
 73
4
 74
0
 40
0
 40
0
 40
0
 40
0
 40
1
 40
1
 40
1
 40
1
 10
130.303650
 20
202.571928
 30
0.0
 10
130.162397
 20
202.571928
 30
0.0
 10
130.040093
 20
202.621881
 30
0.0
 10
129.936740
 20
202.721788
 30
0.0
  0
SPLINE
  5
200
100
AcDbEntity
  8
Layer_1
 62
3
100
AcDbSpline
 70
8
 71
3
 72
8
 73
4
 74
0
 40
0
 40
0
 40
0
 40
0
 40
1
 40
1
 40
1
 40
1
 10
129.936740
 20
202.721788
 30
0.0
 10
129.836833
 20
202.825141
 30
0.0
 10
129.786880
 20
202.947441
 30
0.0
 10
129.786880
 20
203.088688
 30
0.0
  0
SPLINE
  5
201
100
AcDbEntity
  8
Layer_1
 62
3
100
AcDbSpline
 70
8
 71
3
 72
8
 73
4
 74
0
 40
0
 40
0
 40
0
 40
0
 40
1
 40
1
 40
1
 40
1
 10
129.786880
 20
203.088688
 30
0.0
 10
129.786880
 20
203.515881
 30
0.0
 10
129.635297
 20
203.881061
 30
0.0
 10
129.332130
 20
204.184228
 30
0.0
  0
SPLINE
  5
202
100
AcDbEntity
  8
Layer_1
 62
3
100
AcDbSpline
 70
8
 71
3
 72
8
 73
4
 74
0
 40
0
 40
0
 40
0
 40
0
 40
1
 40
1
 40
1
 40
1
 10
129.332130
 20
204.184228
 30
0.0
 10
129.028963
 20
204.487401
 30
0.0
 10
128.663783
 20
204.638988
 30
0.0
 10
128.236590
 20
204.638988
 30
0.0
  0
SPLINE
  5
203
100
AcDbEntity
  8
Layer_1
 62
3
100
AcDbSpline
 70
8
 71
3
 72
8
 73
4
 74
0
 40
0
 40
0
 40
0
 40
0
 40
1
 40
1
 40
1
 40
1
 10
128.236590
 20
204.638988
 30
0.0
 10
127.809397
 20
204.638988
 30
0.0
 10
127.444217
 20
204.487401
 30
0.0
 10
127.141050
 20
204.184228
 30
0.0
  0
SPLINE
  5
204
100
AcDbEntity
  8
Layer_1
 62
3
100
AcDbSpline
 70
8
 71
3
 72
8
 73
4
 74
0
 40
0
 40
0
 40
0
 40
0
 40
1
 40
1
 40
1
 40
1
 10
127.141050
 20
204.184228
 30
0.0
 10
126.837883
 20
203.881061
 30
0.0
 10
126.686300
 20
203.515881
 30
0.0
 10
126.686300
 20
203.088688
 30
0.0
  0
LINE
  5
205
100
AcDbEntity
  8
Layer_1
 62
3
100
AcDbLine
 10
126.686300
 20
203.088688
 30
0.0
 11
126.686300
 21
200.504868
 31
0.0
  0
SPLINE
  5
206
100
AcDbEntity
  8
Layer_1
 62
3
100
AcDbSpline
 70
8
 71
3
 72
8
 73
4
 74
0
 40
0
 40
0
 40
0
 40
0
 40
1
 40
1
 40
1
 40
1
 10
126.686300
 20
200.504868
 30
0.0
 10
126.686300
 20
200.077675
 30
0.0
 10
126.837883
 20
199.712495
 30
0.0
 10
127.141050
 20
199.409328
 30
0.0
  0
SPLINE
  5
207
100
AcDbEntity
  8
Layer_1
 62
3
100
AcDbSpline
 70
8
 71
3
 72
8
 73
4
 74
0
 40
0
 40
0
 40
0
 40
0
 40
1
 40
1
 40
1
 40
1
 10
127.141050
 20
199.409328
 30
0.0
 10
127.444217
 20
199.106161
 30
0.0
 10
127.809397
 20
198.954578
 30
0.0
 10
128.236590
 20
198.954578
 30
0.0
  0
SPLINE
  5
208
100
AcDbEntity
  8
Layer_1
 62
3
100
AcDbSpline
 70
8
 71
3
 72
8
 73
4
 74
0
 40
0
 40
0
 40
0
 40
0
 40
1
 40
1
 40
1
 40
1
 10
128.236590
 20
198.954578
 30
0.0
 10
128.663783
 20
198.954578
 30
0.0
 10
129.028963
 20
199.106161
 30
0.0
 10
129.332130
 20
199.409328
 30
0.0
  0
SPLINE
  5
209
100
AcDbEntity
  8
Layer_1
 62
3
100
AcDbSpline
 70
8
 71
3
 72
8
 73
4
 74
0
 40
0
 40
0
 40
0
 40
0
 40
1
 40
1
 40
1
 40
1
 10
129.332130
 20
199.409328
 30
0.0
 10
129.635297
 20
199.712495
 30
0.0
 10
129.786880
 20
200.077675
 30
0.0
 10
129.786880
 20
200.504868
 30
0.0
  0
LINE
  5
20a
100
AcDbEntity
  8
Layer_1
 62
3
100
AcDbLine
 10
129.786880
 20
200.504868
 30
0.0
 11
129.786880
 21
200.504868
 31
0.0
  0
LINE
  5
20b
100
AcDbEntity
  8
Layer_1
 62
3
100
AcDbLine
 10
133.223360
 20
199.471338
 30
0.0
 11
132.939140
 21
198.541168
 31
0.0
  0
SPLINE
  5
20c
100
AcDbEntity
  8
Layer_1
 62
3
100
AcDbSpline
 70
8
 71
3
 72
8
 73
4
 74
0
 40
0
 40
0
 40
0
 40
0
 40
1
 40
1
 40
1
 40
1
 10
132.939140
 20
198.541168
 30
0.0
 10
132.870240
 20
198.331015
 30
0.0
 10
132.792727
 20
198.174261
 30
0.0
 10
132.706600
 20
198.070908
 30
0.0
  0
SPLINE
  5
20d
100
AcDbEntity
  8
Layer_1
 62
3
100
AcDbSpline
 70
8
 71
3
 72
8
 73
4
 74
0
 40
0
 40
0
 40
0
 40
0
 40
1
 40
1
 40
1
 40
1
 10
132.706600
 20
198.070908
 30
0.0
 10
132.623920
 20
197.971001
 30
0.0
 10
132.511953
 20
197.921048
 30
0.0
 10
132.370700
 20
197.921048
 30
0.0
  0
SPLINE
  5
20e
100
AcDbEntity
  8
Layer_1
 62
3
100
AcDbSpline
 70
8
 71
3
 72
8
 73
4
 74
0
 40
0
 40
0
 40
0
 40
0
 40
1
 40
1
 40
1
 40
1
 10
132.370700
 20
197.921048
 30
0.0
 10
132.229453
 20
197.921048
 30
0.0
 10
132.107153
 20
197.971001
 30
0.0
 10
132.003800
 20
198.070908
 30
0.0
  0
SPLINE
  5
20f
100
AcDbEntity
  8
Layer_1
 62
3
100
AcDbSpline
 70
8
 71
3
 72
8
 73
4
 74
0
 40
0
 40
0
 40
0
 40
0
 40
1
 40
1
 40
1
 40
1
 10
132.003800
 20
198.070908
 30
0.0
 10
131.903893
 20
198.174261
 30
0.0
 10
131.853940
 20
198.296561
 30
0.0
 10
131.853940
 20
198.437808
 30
0.0
  0
SPLINE
  5
210
100
AcDbEntity
  8
Layer_1
 62
3
100
AcDbSpline
 70
8
 71
3
 72
8
 73
4
 74
0
 40
0
 40
0
 40
0
 40
0
 40
1
 40
1
 40
1
 40
1
 10
131.853940
 20
198.437808
 30
0.0
 10
131.853940
 20
198.554941
 30
0.0
 10
131.888390
 20
198.692745
 30
0.0
 10
131.957290
 20
198.851218
 30
0.0
  0
LINE
  5
211
100
AcDbEntity
  8
Layer_1
 62
3
100
AcDbLine
 10
131.957290
 20
198.851218
 30
0.0
 11
133.921000
 21
205.259098
 31
0.0
  0
LINE
  5
212
100
AcDbEntity
  8
Layer_1
 62
3
100
AcDbLine
 10
133.921000
 20
205.259098
 30
0.0
 11
133.931330
 21
205.259098
 31
0.0
  0
SPLINE
  5
213
100
AcDbEntity
  8
Layer_1
 62
3
100
AcDbSpline
 70
8
 71
3
 72
8
 73
4
 74
0
 40
0
 40
0
 40
0
 40
0
 40
1
 40
1
 40
1
 40
1
 10
133.931330
 20
205.259098
 30
0.0
 10
133.948557
 20
205.355565
 30
0.0
 10
133.996787
 20
205.441691
 30
0.0
 10
134.076020
 20
205.517478
 30
0.0
  0
SPLINE
  5
214
100
AcDbEntity
  8
Layer_1
 62
3
100
AcDbSpline
 70
8
 71
3
 72
8
 73
4
 74
0
 40
0
 40
0
 40
0
 40
0
 40
1
 40
1
 40
1
 40
1
 10
134.076020
 20
205.517478
 30
0.0
 10
134.175933
 20
205.620831
 30
0.0
 10
134.296513
 20
205.672508
 30
0.0
 10
134.437760
 20
205.672508
 30
0.0
  0
SPLINE
  5
215
100
AcDbEntity
  8
Layer_1
 62
3
100
AcDbSpline
 70
8
 71
3
 72
8
 73
4
 74
0
 40
0
 40
0
 40
0
 40
0
 40
1
 40
1
 40
1
 40
1
 10
134.437760
 20
205.672508
 30
0.0
 10
134.579007
 20
205.672508
 30
0.0
 10
134.701307
 20
205.620831
 30
0.0
 10
134.804660
 20
205.517478
 30
0.0
  0
SPLINE
  5
216
100
AcDbEntity
  8
Layer_1
 62
3
100
AcDbSpline
 70
8
 71
3
 72
8
 73
4
 74
0
 40
0
 40
0
 40
0
 40
0
 40
1
 40
1
 40
1
 40
1
 10
134.804660
 20
205.517478
 30
0.0
 10
134.880453
 20
205.441691
 30
0.0
 10
134.926963
 20
205.355565
 30
0.0
 10
134.944190
 20
205.259098
 30
0.0
  0
LINE
  5
217
100
AcDbEntity
  8
Layer_1
 62
3
100
AcDbLine
 10
134.944190
 20
205.259098
 30
0.0
 11
134.954520
 21
205.259098
 31
0.0
  0
LINE
  5
218
100
AcDbEntity
  8
Layer_1
 62
3
100
AcDbLine
 10
134.954520
 20
205.259098
 30
0.0
 11
136.918230
 21
198.851218
 31
0.0
  0
SPLINE
  5
219
100
AcDbEntity
  8
Layer_1
 62
3
100
AcDbSpline
 70
8
 71
3
 72
8
 73
4
 74
0
 40
0
 40
0
 40
0
 40
0
 40
1
 40
1
 40
1
 40
1
 10
136.918230
 20
198.851218
 30
0.0
 10
136.987130
 20
198.692745
 30
0.0
 10
137.021580
 20
198.554941
 30
0.0
 10
137.021580
 20
198.437808
 30
0.0
  0
SPLINE
  5
21a
100
AcDbEntity
  8
Layer_1
 62
3
100
AcDbSpline
 70
8
 71
3
 72
8
 73
4
 74
0
 40
0
 40
0
 40
0
 40
0
 40
1
 40
1
 40
1
 40
1
 10
137.021580
 20
198.437808
 30
0.0
 10
137.021580
 20
198.296561
 30
0.0
 10
136.969903
 20
198.174261
 30
0.0
 10
136.866550
 20
198.070908
 30
0.0
  0
SPLINE
  5
21b
100
AcDbEntity
  8
Layer_1
 62
3
100
AcDbSpline
 70
8
 71
3
 72
8
 73
4
 74
0
 40
0
 40
0
 40
0
 40
0
 40
1
 40
1
 40
1
 40
1
 10
136.866550
 20
198.070908
 30
0.0
 10
136.766643
 20
197.971001
 30
0.0
 10
136.646067
 20
197.921048
 30
0.0
 10
136.504820
 20
197.921048
 30
0.0
  0
SPLINE
  5
21c
100
AcDbEntity
  8
Layer_1
 62
3
100
AcDbSpline
 70
8
 71
3
 72
8
 73
4
 74
0
 40
0
 40
0
 40
0
 40
0
 40
1
 40
1
 40
1
 40
1
 10
136.504820
 20
197.921048
 30
0.0
 10
136.363567
 20
197.921048
 30
0.0
 10
136.249877
 20
197.971001
 30
0.0
 10
136.163750
 20
198.070908
 30
0.0
  0
SPLINE
  5
21d
100
AcDbEntity
  8
Layer_1
 62
3
100
AcDbSpline
 70
8
 71
3
 72
8
 73
4
 74
0
 40
0
 40
0
 40
0
 40
0
 40
1
 40
1
 40
1
 40
1
 10
136.163750
 20
198.070908
 30
0.0
 10
136.081070
 20
198.174261
 30
0.0
 10
136.005280
 20
198.331015
 30
0.0
 10
135.936380
 20
198.541168
 30
0.0
  0
LINE
  5
21e
100
AcDbEntity
  8
Layer_1
 62
3
100
AcDbLine
 10
135.936380
 20
198.541168
 30
0.0
 11
135.652160
 21
199.471338
 31
0.0
  0
LINE
  5
21f
100
AcDbEntity
  8
Layer_1
 62
3
100
AcDbLine
 10
135.652160
 20
199.471338
 30
0.0
 11
133.223360
 21
199.471338
 31
0.0
  0
LINE
  5
220
100
AcDbEntity
  8
Layer_1
 62
3
100
AcDbLine
 10
135.336930
 20
200.504868
 30
0.0
 11
134.437760
 21
203.460758
 31
0.0
  0
LINE
  5
221
100
AcDbEntity
  8
Layer_1
 62
3
100
AcDbLine
 10
134.437760
 20
203.460758
 30
0.0
 11
133.538590
 21
200.504868
 31
0.0
  0
LINE
  5
222
100
AcDbEntity
  8
Layer_1
 62
3
100
AcDbLine
 10
133.538590
 20
200.504868
 30
0.0
 11
135.336930
 21
200.504868
 31
0.0
  0
LINE
  5
223
100
AcDbEntity
  8
Layer_1
 62
3
100
AcDbLine
 10
139.088640
 20
205.155748
 30
0.0
 11
139.088640
 21
198.954578
 31
0.0
  0
LINE
  5
224
100
AcDbEntity
  8
Layer_1
 62
3
100
AcDbLine
 10
139.088640
 20
198.954578
 30
0.0
 11
142.705990
 21
198.954578
 31
0.0
  0
SPLINE
  5
225
100
AcDbEntity
  8
Layer_1
 62
3
100
AcDbSpline
 70
8
 71
3
 72
8
 73
4
 74
0
 40
0
 40
0
 40
0
 40
0
 40
1
 40
1
 40
1
 40
1
 10
142.705990
 20
198.954578
 30
0.0
 10
142.847243
 20
198.954578
 30
0.0
 10
142.967823
 20
198.902901
 30
0.0
 10
143.067730
 20
198.799548
 30
0.0
  0
SPLINE
  5
226
100
AcDbEntity
  8
Layer_1
 62
3
100
AcDbSpline
 70
8
 71
3
 72
8
 73
4
 74
0
 40
0
 40
0
 40
0
 40
0
 40
1
 40
1
 40
1
 40
1
 10
143.067730
 20
198.799548
 30
0.0
 10
143.171083
 20
198.699641
 30
0.0
 10
143.222760
 20
198.579061
 30
0.0
 10
143.222760
 20
198.437808
 30
0.0
  0
SPLINE
  5
227
100
AcDbEntity
  8
Layer_1
 62
3
100
AcDbSpline
 70
8
 71
3
 72
8
 73
4
 74
0
 40
0
 40
0
 40
0
 40
0
 40
1
 40
1
 40
1
 40
1
 10
143.222760
 20
198.437808
 30
0.0
 10
143.222760
 20
198.296561
 30
0.0
 10
143.171083
 20
198.174261
 30
0.0
 10
143.067730
 20
198.070908
 30
0.0
  0
SPLINE
  5
228
100
AcDbEntity
  8
Layer_1
 62
3
100
AcDbSpline
 70
8
 71
3
 72
8
 73
4
 74
0
 40
0
 40
0
 40
0
 40
0
 40
1
 40
1
 40
1
 40
1
 10
143.067730
 20
198.070908
 30
0.0
 10
142.967823
 20
197.971001
 30
0.0
 10
142.847243
 20
197.921048
 30
0.0
 10
142.705990
 20
197.921048
 30
0.0
  0
LINE
  5
229
100
AcDbEntity
  8
Layer_1
 62
3
100
AcDbLine
 10
142.705990
 20
197.921048
 30
0.0
 11
138.571880
 21
197.921048
 31
0.0
  0
SPLINE
  5
22a
100
AcDbEntity
  8
Layer_1
 62
3
100
AcDbSpline
 70
8
 71
3
 72
8
 73
4
 74
0
 40
0
 40
0
 40
0
 40
0
 40
1
 40
1
 40
1
 40
1
 10
138.571880
 20
197.921048
 30
0.0
 10
138.430627
 20
197.921048
 30
0.0
 10
138.308327
 20
197.971001
 30
0.0
 10
138.204980
 20
198.070908
 30
0.0
  0
SPLINE
  5
22b
100
AcDbEntity
  8
Layer_1
 62
3
100
AcDbSpline
 70
8
 71
3
 72
8
 73
4
 74
0
 40
0
 40
0
 40
0
 40
0
 40
1
 40
1
 40
1
 40
1
 10
138.204980
 20
198.070908
 30
0.0
 10
138.105067
 20
198.174261
 30
0.0
 10
138.055110
 20
198.296561
 30
0.0
 10
138.055110
 20
198.437808
 30
0.0
  0
LINE
  5
22c
100
AcDbEntity
  8
Layer_1
 62
3
100
AcDbLine
 10
138.055110
 20
198.437808
 30
0.0
 11
138.055110
 21
205.155748
 31
0.0
  0
SPLINE
  5
22d
100
AcDbEntity
  8
Layer_1
 62
3
100
AcDbSpline
 70
8
 71
3
 72
8
 73
4
 74
0
 40
0
 40
0
 40
0
 40
0
 40
1
 40
1
 40
1
 40
1
 10
138.055110
 20
205.155748
 30
0.0
 10
138.055110
 20
205.296995
 30
0.0
 10
138.105067
 20
205.417571
 30
0.0
 10
138.204980
 20
205.517478
 30
0.0
  0
SPLINE
  5
22e
100
AcDbEntity
  8
Layer_1
 62
3
100
AcDbSpline
 70
8
 71
3
 72
8
 73
4
 74
0
 40
0
 40
0
 40
0
 40
0
 40
1
 40
1
 40
1
 40
1
 10
138.204980
 20
205.517478
 30
0.0
 10
138.308327
 20
205.620831
 30
0.0
 10
138.430627
 20
205.672508
 30
0.0
 10
138.571880
 20
205.672508
 30
0.0
  0
SPLINE
  5
22f
100
AcDbEntity
  8
Layer_1
 62
3
100
AcDbSpline
 70
8
 71
3
 72
8
 73
4
 74
0
 40
0
 40
0
 40
0
 40
0
 40
1
 40
1
 40
1
 40
1
 10
138.571880
 20
205.672508
 30
0.0
 10
138.713127
 20
205.672508
 30
0.0
 10
138.833703
 20
205.620831
 30
0.0
 10
138.933610
 20
205.517478
 30
0.0
  0
SPLINE
  5
230
100
AcDbEntity
  8
Layer_1
 62
3
100
AcDbSpline
 70
8
 71
3
 72
8
 73
4
 74
0
 40
0
 40
0
 40
0
 40
0
 40
1
 40
1
 40
1
 40
1
 10
138.933610
 20
205.517478
 30
0.0
 10
139.036963
 20
205.417571
 30
0.0
 10
139.088640
 20
205.296995
 30
0.0
 10
139.088640
 20
205.155748
 30
0.0
  0
LINE
  5
231
100
AcDbEntity
  8
Layer_1
 62
3
100
AcDbLine
 10
139.088640
 20
205.155748
 30
0.0
 11
139.088640
 21
205.155748
 31
0.0
  0
LINE
  5
232
100
AcDbEntity
  8
Layer_1
 62
3
100
AcDbLine
 10
149.423930
 20
205.155748
 30
0.0
 11
149.423930
 21
198.437808
 31
0.0
  0
SPLINE
  5
233
100
AcDbEntity
  8
Layer_1
 62
3
100
AcDbSpline
 70
8
 71
3
 72
8
 73
4
 74
0
 40
0
 40
0
 40
0
 40
0
 40
1
 40
1
 40
1
 40
1
 10
149.423930
 20
198.437808
 30
0.0
 10
149.423930
 20
198.296561
 30
0.0
 10
149.372253
 20
198.174261
 30
0.0
 10
149.268900
 20
198.070908
 30
0.0
  0
SPLINE
  5
234
100
AcDbEntity
  8
Layer_1
 62
3
100
AcDbSpline
 70
8
 71
3
 72
8
 73
4
 74
0
 40
0
 40
0
 40
0
 40
0
 40
1
 40
1
 40
1
 40
1
 10
149.268900
 20
198.070908
 30
0.0
 10
149.168993
 20
197.971001
 30
0.0
 10
149.048413
 20
197.921048
 30
0.0
 10
148.907160
 20
197.921048
 30
0.0
  0
SPLINE
  5
235
100
AcDbEntity
  8
Layer_1
 62
3
100
AcDbSpline
 70
8
 71
3
 72
8
 73
4
 74
0
 40
0
 40
0
 40
0
 40
0
 40
1
 40
1
 40
1
 40
1
 10
148.907160
 20
197.921048
 30
0.0
 10
148.765913
 20
197.921048
 30
0.0
 10
148.643613
 20
197.971001
 30
0.0
 10
148.540260
 20
198.070908
 30
0.0
  0
SPLINE
  5
236
100
AcDbEntity
  8
Layer_1
 62
3
100
AcDbSpline
 70
8
 71
3
 72
8
 73
4
 74
0
 40
0
 40
0
 40
0
 40
0
 40
1
 40
1
 40
1
 40
1
 10
148.540260
 20
198.070908
 30
0.0
 10
148.440353
 20
198.174261
 30
0.0
 10
148.390400
 20
198.296561
 30
0.0
 10
148.390400
 20
198.437808
 30
0.0
  0
LINE
  5
237
100
AcDbEntity
  8
Layer_1
 62
3
100
AcDbLine
 10
148.390400
 20
198.437808
 30
0.0
 11
148.390400
 21
201.708928
 31
0.0
  0
LINE
  5
238
100
AcDbEntity
  8
Layer_1
 62
3
100
AcDbLine
 10
148.390400
 20
201.708928
 30
0.0
 11
147.356870
 21
198.334458
 31
0.0
  0
LINE
  5
239
100
AcDbEntity
  8
Layer_1
 62
3
100
AcDbLine
 10
147.356870
 20
198.334458
 30
0.0
 11
147.346540
 21
198.334458
 31
0.0
  0
SPLINE
  5
23a
100
AcDbEntity
  8
Layer_1
 62
3
100
AcDbSpline
 70
8
 71
3
 72
8
 73
4
 74
0
 40
0
 40
0
 40
0
 40
0
 40
1
 40
1
 40
1
 40
1
 10
147.346540
 20
198.334458
 30
0.0
 10
147.329313
 20
198.237998
 30
0.0
 10
147.282803
 20
198.151871
 30
0.0
 10
147.207010
 20
198.076078
 30
0.0
  0
SPLINE
  5
23b
100
AcDbEntity
  8
Layer_1
 62
3
100
AcDbSpline
 70
8
 71
3
 72
8
 73
4
 74
0
 40
0
 40
0
 40
0
 40
0
 40
1
 40
1
 40
1
 40
1
 10
147.207010
 20
198.076078
 30
0.0
 10
147.103657
 20
197.972725
 30
0.0
 10
146.981357
 20
197.921048
 30
0.0
 10
146.840110
 20
197.921048
 30
0.0
  0
SPLINE
  5
23c
100
AcDbEntity
  8
Layer_1
 62
3
100
AcDbSpline
 70
8
 71
3
 72
8
 73
4
 74
0
 40
0
 40
0
 40
0
 40
0
 40
1
 40
1
 40
1
 40
1
 10
146.840110
 20
197.921048
 30
0.0
 10
146.698857
 20
197.921048
 30
0.0
 10
146.578277
 20
197.972725
 30
0.0
 10
146.478370
 20
198.076078
 30
0.0
  0
SPLINE
  5
23d
100
AcDbEntity
  8
Layer_1
 62
3
100
AcDbSpline
 70
8
 71
3
 72
8
 73
4
 74
0
 40
0
 40
0
 40
0
 40
0
 40
1
 40
1
 40
1
 40
1
 10
146.478370
 20
198.076078
 30
0.0
 10
146.399137
 20
198.151871
 30
0.0
 10
146.350907
 20
198.237998
 30
0.0
 10
146.333680
 20
198.334458
 30
0.0
  0
LINE
  5
23e
100
AcDbEntity
  8
Layer_1
 62
3
100
AcDbLine
 10
146.333680
 20
198.334458
 30
0.0
 11
146.323340
 21
198.334458
 31
0.0
  0
LINE
  5
23f
100
AcDbEntity
  8
Layer_1
 62
3
100
AcDbLine
 10
146.323340
 20
198.334458
 30
0.0
 11
145.289810
 21
201.708928
 31
0.0
  0
LINE
  5
240
100
AcDbEntity
  8
Layer_1
 62
3
100
AcDbLine
 10
145.289810
 20
201.708928
 30
0.0
 11
145.289810
 21
198.437808
 31
0.0
  0
SPLINE
  5
241
100
AcDbEntity
  8
Layer_1
 62
3
100
AcDbSpline
 70
8
 71
3
 72
8
 73
4
 74
0
 40
0
 40
0
 40
0
 40
0
 40
1
 40
1
 40
1
 40
1
 10
145.289810
 20
198.437808
 30
0.0
 10
145.289810
 20
198.296561
 30
0.0
 10
145.238133
 20
198.174261
 30
0.0
 10
145.134780
 20
198.070908
 30
0.0
  0
SPLINE
  5
242
100
AcDbEntity
  8
Layer_1
 62
3
100
AcDbSpline
 70
8
 71
3
 72
8
 73
4
 74
0
 40
0
 40
0
 40
0
 40
0
 40
1
 40
1
 40
1
 40
1
 10
145.134780
 20
198.070908
 30
0.0
 10
145.034873
 20
197.971001
 30
0.0
 10
144.914297
 20
197.921048
 30
0.0
 10
144.773050
 20
197.921048
 30
0.0
  0
SPLINE
  5
243
100
AcDbEntity
  8
Layer_1
 62
3
100
AcDbSpline
 70
8
 71
3
 72
8
 73
4
 74
0
 40
0
 40
0
 40
0
 40
0
 40
1
 40
1
 40
1
 40
1
 10
144.773050
 20
197.921048
 30
0.0
 10
144.631803
 20
197.921048
 30
0.0
 10
144.509503
 20
197.971001
 30
0.0
 10
144.406150
 20
198.070908
 30
0.0
  0
SPLINE
  5
244
100
AcDbEntity
  8
Layer_1
 62
3
100
AcDbSpline
 70
8
 71
3
 72
8
 73
4
 74
0
 40
0
 40
0
 40
0
 40
0
 40
1
 40
1
 40
1
 40
1
 10
144.406150
 20
198.070908
 30
0.0
 10
144.306243
 20
198.174261
 30
0.0
 10
144.256290
 20
198.296561
 30
0.0
 10
144.256290
 20
198.437808
 30
0.0
  0
LINE
  5
245
100
AcDbEntity
  8
Layer_1
 62
3
100
AcDbLine
 10
144.256290
 20
198.437808
 30
0.0
 11
144.256290
 21
205.155748
 31
0.0
  0
SPLINE
  5
246
100
AcDbEntity
  8
Layer_1
 62
3
100
AcDbSpline
 70
8
 71
3
 72
8
 73
4
 74
0
 40
0
 40
0
 40
0
 40
0
 40
1
 40
1
 40
1
 40
1
 10
144.256290
 20
205.155748
 30
0.0
 10
144.256290
 20
205.296995
 30
0.0
 10
144.307963
 20
205.419295
 30
0.0
 10
144.411310
 20
205.522648
 30
0.0
  0
SPLINE
  5
247
100
AcDbEntity
  8
Layer_1
 62
3
100
AcDbSpline
 70
8
 71
3
 72
8
 73
4
 74
0
 40
0
 40
0
 40
0
 40
0
 40
1
 40
1
 40
1
 40
1
 10
144.411310
 20
205.522648
 30
0.0
 10
144.511223
 20
205.622555
 30
0.0
 10
144.631803
 20
205.672508
 30
0.0
 10
144.773050
 20
205.672508
 30
0.0
  0
SPLINE
  5
248
100
AcDbEntity
  8
Layer_1
 62
3
100
AcDbSpline
 70
8
 71
3
 72
8
 73
4
 74
0
 40
0
 40
0
 40
0
 40
0
 40
1
 40
1
 40
1
 40
1
 10
144.773050
 20
205.672508
 30
0.0
 10
144.914297
 20
205.672508
 30
0.0
 10
145.036597
 20
205.622555
 30
0.0
 10
145.139950
 20
205.522648
 30
0.0
  0
SPLINE
  5
249
100
AcDbEntity
  8
Layer_1
 62
3
100
AcDbSpline
 70
8
 71
3
 72
8
 73
4
 74
0
 40
0
 40
0
 40
0
 40
0
 40
1
 40
1
 40
1
 40
1
 10
145.139950
 20
205.522648
 30
0.0
 10
145.229523
 20
205.429635
 30
0.0
 10
145.296703
 20
205.272885
 30
0.0
 10
145.341490
 20
205.052398
 30
0.0
  0
LINE
  5
24a
100
AcDbEntity
  8
Layer_1
 62
3
100
AcDbLine
 10
145.341490
 20
205.052398
 30
0.0
 11
146.840110
 21
200.132798
 31
0.0
  0
LINE
  5
24b
100
AcDbEntity
  8
Layer_1
 62
3
100
AcDbLine
 10
146.840110
 20
200.132798
 30
0.0
 11
148.338720
 21
205.052398
 31
0.0
  0
SPLINE
  5
24c
100
AcDbEntity
  8
Layer_1
 62
3
100
AcDbSpline
 70
8
 71
3
 72
8
 73
4
 74
0
 40
0
 40
0
 40
0
 40
0
 40
1
 40
1
 40
1
 40
1
 10
148.338720
 20
205.052398
 30
0.0
 10
148.428293
 20
205.286665
 30
0.0
 10
148.505810
 20
205.443415
 30
0.0
 10
148.571270
 20
205.522648
 30
0.0
  0
SPLINE
  5
24d
100
AcDbEntity
  8
Layer_1
 62
3
100
AcDbSpline
 70
8
 71
3
 72
8
 73
4
 74
0
 40
0
 40
0
 40
0
 40
0
 40
1
 40
1
 40
1
 40
1
 10
148.571270
 20
205.522648
 30
0.0
 10
148.653950
 20
205.622555
 30
0.0
 10
148.765913
 20
205.672508
 30
0.0
 10
148.907160
 20
205.672508
 30
0.0
  0
SPLINE
  5
24e
100
AcDbEntity
  8
Layer_1
 62
3
100
AcDbSpline
 70
8
 71
3
 72
8
 73
4
 74
0
 40
0
 40
0
 40
0
 40
0
 40
1
 40
1
 40
1
 40
1
 10
148.907160
 20
205.672508
 30
0.0
 10
149.048413
 20
205.672508
 30
0.0
 10
149.168993
 20
205.620831
 30
0.0
 10
149.268900
 20
205.517478
 30
0.0
  0
SPLINE
  5
24f
100
AcDbEntity
  8
Layer_1
 62
3
100
AcDbSpline
 70
8
 71
3
 72
8
 73
4
 74
0
 40
0
 40
0
 40
0
 40
0
 40
1
 40
1
 40
1
 40
1
 10
149.268900
 20
205.517478
 30
0.0
 10
149.372253
 20
205.417571
 30
0.0
 10
149.423930
 20
205.296995
 30
0.0
 10
149.423930
 20
205.155748
 30
0.0
  0
LINE
  5
250
100
AcDbEntity
  8
Layer_1
 62
3
100
AcDbLine
 10
149.423930
 20
205.155748
 30
0.0
 11
149.423930
 21
205.155748
 31
0.0
  0
SPLINE
  5
251
100
AcDbEntity
  8
Layer_1
 62
3
100
AcDbSpline
 70
8
 71
3
 72
8
 73
4
 74
0
 40
0
 40
0
 40
0
 40
0
 40
1
 40
1
 40
1
 40
1
 10
155.108340
 20
198.954578
 30
0.0
 10
155.249587
 20
198.954578
 30
0.0
 10
155.370163
 20
198.902901
 30
0.0
 10
155.470070
 20
198.799548
 30
0.0
  0
SPLINE
  5
252
100
AcDbEntity
  8
Layer_1
 62
3
100
AcDbSpline
 70
8
 71
3
 72
8
 73
4
 74
0
 40
0
 40
0
 40
0
 40
0
 40
1
 40
1
 40
1
 40
1
 10
155.470070
 20
198.799548
 30
0.0
 10
155.573423
 20
198.699641
 30
0.0
 10
155.625100
 20
198.579061
 30
0.0
 10
155.625100
 20
198.437808
 30
0.0
  0
SPLINE
  5
253
100
AcDbEntity
  8
Layer_1
 62
3
100
AcDbSpline
 70
8
 71
3
 72
8
 73
4
 74
0
 40
0
 40
0
 40
0
 40
0
 40
1
 40
1
 40
1
 40
1
 10
155.625100
 20
198.437808
 30
0.0
 10
155.625100
 20
198.296561
 30
0.0
 10
155.573423
 20
198.174261
 30
0.0
 10
155.470070
 20
198.070908
 30
0.0
  0
SPLINE
  5
254
100
AcDbEntity
  8
Layer_1
 62
3
100
AcDbSpline
 70
8
 71
3
 72
8
 73
4
 74
0
 40
0
 40
0
 40
0
 40
0
 40
1
 40
1
 40
1
 40
1
 10
155.470070
 20
198.070908
 30
0.0
 10
155.370163
 20
197.971001
 30
0.0
 10
155.249587
 20
197.921048
 30
0.0
 10
155.108340
 20
197.921048
 30
0.0
  0
LINE
  5
255
100
AcDbEntity
  8
Layer_1
 62
3
100
AcDbLine
 10
155.108340
 20
197.921048
 30
0.0
 11
150.974220
 21
197.921048
 31
0.0
  0
SPLINE
  5
256
100
AcDbEntity
  8
Layer_1
 62
3
100
AcDbSpline
 70
8
 71
3
 72
8
 73
4
 74
0
 40
0
 40
0
 40
0
 40
0
 40
1
 40
1
 40
1
 40
1
 10
150.974220
 20
197.921048
 30
0.0
 10
150.832973
 20
197.921048
 30
0.0
 10
150.710673
 20
197.971001
 30
0.0
 10
150.607320
 20
198.070908
 30
0.0
  0
SPLINE
  5
257
100
AcDbEntity
  8
Layer_1
 62
3
100
AcDbSpline
 70
8
 71
3
 72
8
 73
4
 74
0
 40
0
 40
0
 40
0
 40
0
 40
1
 40
1
 40
1
 40
1
 10
150.607320
 20
198.070908
 30
0.0
 10
150.507413
 20
198.174261
 30
0.0
 10
150.457460
 20
198.296561
 30
0.0
 10
150.457460
 20
198.437808
 30
0.0
  0
LINE
  5
258
100
AcDbEntity
  8
Layer_1
 62
3
100
AcDbLine
 10
150.457460
 20
198.437808
 30
0.0
 11
150.457460
 21
205.155748
 31
0.0
  0
SPLINE
  5
259
100
AcDbEntity
  8
Layer_1
 62
3
100
AcDbSpline
 70
8
 71
3
 72
8
 73
4
 74
0
 40
0
 40
0
 40
0
 40
0
 40
1
 40
1
 40
1
 40
1
 10
150.457460
 20
205.155748
 30
0.0
 10
150.457460
 20
205.296995
 30
0.0
 10
150.507413
 20
205.417571
 30
0.0
 10
150.607320
 20
205.517478
 30
0.0
  0
SPLINE
  5
25a
100
AcDbEntity
  8
Layer_1
 62
3
100
AcDbSpline
 70
8
 71
3
 72
8
 73
4
 74
0
 40
0
 40
0
 40
0
 40
0
 40
1
 40
1
 40
1
 40
1
 10
150.607320
 20
205.517478
 30
0.0
 10
150.710673
 20
205.620831
 30
0.0
 10
150.832973
 20
205.672508
 30
0.0
 10
150.974220
 20
205.672508
 30
0.0
  0
LINE
  5
25b
100
AcDbEntity
  8
Layer_1
 62
3
100
AcDbLine
 10
150.974220
 20
205.672508
 30
0.0
 11
155.108340
 21
205.672508
 31
0.0
  0
SPLINE
  5
25c
100
AcDbEntity
  8
Layer_1
 62
3
100
AcDbSpline
 70
8
 71
3
 72
8
 73
4
 74
0
 40
0
 40
0
 40
0
 40
0
 40
1
 40
1
 40
1
 40
1
 10
155.108340
 20
205.672508
 30
0.0
 10
155.249587
 20
205.672508
 30
0.0
 10
155.370163
 20
205.620831
 30
0.0
 10
155.470070
 20
205.517478
 30
0.0
  0
SPLINE
  5
25d
100
AcDbEntity
  8
Layer_1
 62
3
100
AcDbSpline
 70
8
 71
3
 72
8
 73
4
 74
0
 40
0
 40
0
 40
0
 40
0
 40
1
 40
1
 40
1
 40
1
 10
155.470070
 20
205.517478
 30
0.0
 10
155.573423
 20
205.417571
 30
0.0
 10
155.625100
 20
205.296995
 30
0.0
 10
155.625100
 20
205.155748
 30
0.0
  0
SPLINE
  5
25e
100
AcDbEntity
  8
Layer_1
 62
3
100
AcDbSpline
 70
8
 71
3
 72
8
 73
4
 74
0
 40
0
 40
0
 40
0
 40
0
 40
1
 40
1
 40
1
 40
1
 10
155.625100
 20
205.155748
 30
0.0
 10
155.625100
 20
205.014501
 30
0.0
 10
155.573423
 20
204.892201
 30
0.0
 10
155.470070
 20
204.788848
 30
0.0
  0
SPLINE
  5
25f
100
AcDbEntity
  8
Layer_1
 62
3
100
AcDbSpline
 70
8
 71
3
 72
8
 73
4
 74
0
 40
0
 40
0
 40
0
 40
0
 40
1
 40
1
 40
1
 40
1
 10
155.470070
 20
204.788848
 30
0.0
 10
155.370163
 20
204.688941
 30
0.0
 10
155.249587
 20
204.638988
 30
0.0
 10
155.108340
 20
204.638988
 30
0.0
  0
LINE
  5
260
100
AcDbEntity
  8
Layer_1
 62
3
100
AcDbLine
 10
155.108340
 20
204.638988
 30
0.0
 11
151.490990
 21
204.638988
 31
0.0
  0
LINE
  5
261
100
AcDbEntity
  8
Layer_1
 62
3
100
AcDbLine
 10
151.490990
 20
204.638988
 30
0.0
 11
151.490990
 21
202.313548
 31
0.0
  0
LINE
  5
262
100
AcDbEntity
  8
Layer_1
 62
3
100
AcDbLine
 10
151.490990
 20
202.313548
 30
0.0
 11
154.591570
 21
202.313548
 31
0.0
  0
SPLINE
  5
263
100
AcDbEntity
  8
Layer_1
 62
3
100
AcDbSpline
 70
8
 71
3
 72
8
 73
4
 74
0
 40
0
 40
0
 40
0
 40
0
 40
1
 40
1
 40
1
 40
1
 10
154.591570
 20
202.313548
 30
0.0
 10
154.732823
 20
202.313548
 30
0.0
 10
154.853403
 20
202.261871
 30
0.0
 10
154.953310
 20
202.158518
 30
0.0
  0
SPLINE
  5
264
100
AcDbEntity
  8
Layer_1
 62
3
100
AcDbSpline
 70
8
 71
3
 72
8
 73
4
 74
0
 40
0
 40
0
 40
0
 40
0
 40
1
 40
1
 40
1
 40
1
 10
154.953310
 20
202.158518
 30
0.0
 10
155.056663
 20
202.058611
 30
0.0
 10
155.108340
 20
201.938031
 30
0.0
 10
155.108340
 20
201.796778
 30
0.0
  0
SPLINE
  5
265
100
AcDbEntity
  8
Layer_1
 62
3
100
AcDbSpline
 70
8
 71
3
 72
8
 73
4
 74
0
 40
0
 40
0
 40
0
 40
0
 40
1
 40
1
 40
1
 40
1
 10
155.108340
 20
201.796778
 30
0.0
 10
155.108340
 20
201.655531
 30
0.0
 10
155.056663
 20
201.533231
 30
0.0
 10
154.953310
 20
201.429878
 30
0.0
  0
SPLINE
  5
266
100
AcDbEntity
  8
Layer_1
 62
3
100
AcDbSpline
 70
8
 71
3
 72
8
 73
4
 74
0
 40
0
 40
0
 40
0
 40
0
 40
1
 40
1
 40
1
 40
1
 10
154.953310
 20
201.429878
 30
0.0
 10
154.853403
 20
201.329971
 30
0.0
 10
154.732823
 20
201.280018
 30
0.0
 10
154.591570
 20
201.280018
 30
0.0
  0
LINE
  5
267
100
AcDbEntity
  8
Layer_1
 62
3
100
AcDbLine
 10
154.591570
 20
201.280018
 30
0.0
 11
151.490990
 21
201.280018
 31
0.0
  0
LINE
  5
268
100
AcDbEntity
  8
Layer_1
 62
3
100
AcDbLine
 10
151.490990
 20
201.280018
 30
0.0
 11
151.490990
 21
198.954578
 31
0.0
  0
LINE
  5
269
100
AcDbEntity
  8
Layer_1
 62
3
100
AcDbLine
 10
151.490990
 20
198.954578
 30
0.0
 11
155.108340
 21
198.954578
 31
0.0
  0
SPLINE
  5
26a
100
AcDbEntity
  8
Layer_1
 62
3
100
AcDbSpline
 70
8
 71
3
 72
8
 73
4
 74
0
 40
0
 40
0
 40
0
 40
0
 40
1
 40
1
 40
1
 40
1
 10
113.565280
 20
186.888128
 30
0.0
 10
113.565280
 20
187.494468
 30
0.0
 10
113.778873
 20
188.011231
 30
0.0
 10
114.206060
 20
188.438418
 30
0.0
  0
SPLINE
  5
26b
100
AcDbEntity
  8
Layer_1
 62
3
100
AcDbSpline
 70
8
 71
3
 72
8
 73
4
 74
0
 40
0
 40
0
 40
0
 40
0
 40
1
 40
1
 40
1
 40
1
 10
114.206060
 20
188.438418
 30
0.0
 10
114.636700
 20
188.869058
 30
0.0
 10
115.155187
 20
189.084378
 30
0.0
 10
115.761520
 20
189.084378
 30
0.0
  0
LINE
  5
26c
100
AcDbEntity
  8
Layer_1
 62
3
100
AcDbLine
 10
115.761520
 20
189.084378
 30
0.0
 11
116.536670
 21
189.084378
 31
0.0
  0
SPLINE
  5
26d
100
AcDbEntity
  8
Layer_1
 62
3
100
AcDbSpline
 70
8
 71
3
 72
8
 73
4
 74
0
 40
0
 40
0
 40
0
 40
0
 40
1
 40
1
 40
1
 40
1
 10
116.536670
 20
189.084378
 30
0.0
 10
116.857063
 20
189.084378
 30
0.0
 10
117.130950
 20
189.198065
 30
0.0
 10
117.358330
 20
189.425438
 30
0.0
  0
SPLINE
  5
26e
100
AcDbEntity
  8
Layer_1
 62
3
100
AcDbSpline
 70
8
 71
3
 72
8
 73
4
 74
0
 40
0
 40
0
 40
0
 40
0
 40
1
 40
1
 40
1
 40
1
 10
117.358330
 20
189.425438
 30
0.0
 10
117.585703
 20
189.652818
 30
0.0
 10
117.699390
 20
189.926705
 30
0.0
 10
117.699390
 20
190.247098
 30
0.0
  0
SPLINE
  5
26f
100
AcDbEntity
  8
Layer_1
 62
3
100
AcDbSpline
 70
8
 71
3
 72
8
 73
4
 74
0
 40
0
 40
0
 40
0
 40
0
 40
1
 40
1
 40
1
 40
1
 10
117.699390
 20
190.247098
 30
0.0
 10
117.699390
 20
190.567491
 30
0.0
 10
117.585703
 20
190.841375
 30
0.0
 10
117.358330
 20
191.068748
 30
0.0
  0
SPLINE
  5
270
100
AcDbEntity
  8
Layer_1
 62
3
100
AcDbSpline
 70
8
 71
3
 72
8
 73
4
 74
0
 40
0
 40
0
 40
0
 40
0
 40
1
 40
1
 40
1
 40
1
 10
117.358330
 20
191.068748
 30
0.0
 10
117.130950
 20
191.296128
 30
0.0
 10
116.857063
 20
191.409818
 30
0.0
 10
116.536670
 20
191.409818
 30
0.0
  0
LINE
  5
271
100
AcDbEntity
  8
Layer_1
 62
3
100
AcDbLine
 10
116.536670
 20
191.409818
 30
0.0
 11
115.761520
 21
191.409818
 31
0.0
  0
SPLINE
  5
272
100
AcDbEntity
  8
Layer_1
 62
3
100
AcDbSpline
 70
8
 71
3
 72
8
 73
4
 74
0
 40
0
 40
0
 40
0
 40
0
 40
1
 40
1
 40
1
 40
1
 10
115.761520
 20
191.409818
 30
0.0
 10
115.441127
 20
191.409818
 30
0.0
 10
115.167243
 20
191.296128
 30
0.0
 10
114.939870
 20
191.068748
 30
0.0
  0
SPLINE
  5
273
100
AcDbEntity
  8
Layer_1
 62
3
100
AcDbSpline
 70
8
 71
3
 72
8
 73
4
 74
0
 40
0
 40
0
 40
0
 40
0
 40
1
 40
1
 40
1
 40
1
 10
114.939870
 20
191.068748
 30
0.0
 10
114.712497
 20
190.841375
 30
0.0
 10
114.598810
 20
190.567491
 30
0.0
 10
114.598810
 20
190.247098
 30
0.0
  0
SPLINE
  5
274
100
AcDbEntity
  8
Layer_1
 62
3
100
AcDbSpline
 70
8
 71
3
 72
8
 73
4
 74
0
 40
0
 40
0
 40
0
 40
0
 40
1
 40
1
 40
1
 40
1
 10
114.598810
 20
190.247098
 30
0.0
 10
114.598810
 20
190.105845
 30
0.0
 10
114.547133
 20
189.983545
 30
0.0
 10
114.443780
 20
189.880198
 30
0.0
  0
SPLINE
  5
275
100
AcDbEntity
  8
Layer_1
 62
3
100
AcDbSpline
 70
8
 71
3
 72
8
 73
4
 74
0
 40
0
 40
0
 40
0
 40
0
 40
1
 40
1
 40
1
 40
1
 10
114.443780
 20
189.880198
 30
0.0
 10
114.343867
 20
189.780285
 30
0.0
 10
114.223287
 20
189.730328
 30
0.0
 10
114.082040
 20
189.730328
 30
0.0
  0
SPLINE
  5
276
100
AcDbEntity
  8
Layer_1
 62
3
100
AcDbSpline
 70
8
 71
3
 72
8
 73
4
 74
0
 40
0
 40
0
 40
0
 40
0
 40
1
 40
1
 40
1
 40
1
 10
114.082040
 20
189.730328
 30
0.0
 10
113.940793
 20
189.730328
 30
0.0
 10
113.818493
 20
189.780285
 30
0.0
 10
113.715140
 20
189.880198
 30
0.0
  0
SPLINE
  5
277
100
AcDbEntity
  8
Layer_1
 62
3
100
AcDbSpline
 70
8
 71
3
 72
8
 73
4
 74
0
 40
0
 40
0
 40
0
 40
0
 40
1
 40
1
 40
1
 40
1
 10
113.715140
 20
189.880198
 30
0.0
 10
113.615233
 20
189.983545
 30
0.0
 10
113.565280
 20
190.105845
 30
0.0
 10
113.565280
 20
190.247098
 30
0.0
  0
SPLINE
  5
278
100
AcDbEntity
  8
Layer_1
 62
3
100
AcDbSpline
 70
8
 71
3
 72
8
 73
4
 74
0
 40
0
 40
0
 40
0
 40
0
 40
1
 40
1
 40
1
 40
1
 10
113.565280
 20
190.247098
 30
0.0
 10
113.565280
 20
190.853431
 30
0.0
 10
113.778873
 20
191.370195
 30
0.0
 10
114.206060
 20
191.797388
 30
0.0
  0
SPLINE
  5
279
100
AcDbEntity
  8
Layer_1
 62
3
100
AcDbSpline
 70
8
 71
3
 72
8
 73
4
 74
0
 40
0
 40
0
 40
0
 40
0
 40
1
 40
1
 40
1
 40
1
 10
114.206060
 20
191.797388
 30
0.0
 10
114.636700
 20
192.228028
 30
0.0
 10
115.155187
 20
192.443348
 30
0.0
 10
115.761520
 20
192.443348
 30
0.0
  0
LINE
  5
27a
100
AcDbEntity
  8
Layer_1
 62
3
100
AcDbLine
 10
115.761520
 20
192.443348
 30
0.0
 11
116.536670
 21
192.443348
 31
0.0
  0
SPLINE
  5
27b
100
AcDbEntity
  8
Layer_1
 62
3
100
AcDbSpline
 70
8
 71
3
 72
8
 73
4
 74
0
 40
0
 40
0
 40
0
 40
0
 40
1
 40
1
 40
1
 40
1
 10
116.536670
 20
192.443348
 30
0.0
 10
117.143010
 20
192.443348
 30
0.0
 10
117.659773
 20
192.228028
 30
0.0
 10
118.086960
 20
191.797388
 30
0.0
  0
SPLINE
  5
27c
100
AcDbEntity
  8
Layer_1
 62
3
100
AcDbSpline
 70
8
 71
3
 72
8
 73
4
 74
0
 40
0
 40
0
 40
0
 40
0
 40
1
 40
1
 40
1
 40
1
 10
118.086960
 20
191.797388
 30
0.0
 10
118.517600
 20
191.370195
 30
0.0
 10
118.732920
 20
190.853431
 30
0.0
 10
118.732920
 20
190.247098
 30
0.0
  0
SPLINE
  5
27d
100
AcDbEntity
  8
Layer_1
 62
3
100
AcDbSpline
 70
8
 71
3
 72
8
 73
4
 74
0
 40
0
 40
0
 40
0
 40
0
 40
1
 40
1
 40
1
 40
1
 10
118.732920
 20
190.247098
 30
0.0
 10
118.732920
 20
189.640758
 30
0.0
 10
118.517600
 20
189.122271
 30
0.0
 10
118.086960
 20
188.691638
 30
0.0
  0
SPLINE
  5
27e
100
AcDbEntity
  8
Layer_1
 62
3
100
AcDbSpline
 70
8
 71
3
 72
8
 73
4
 74
0
 40
0
 40
0
 40
0
 40
0
 40
1
 40
1
 40
1
 40
1
 10
118.086960
 20
188.691638
 30
0.0
 10
117.659773
 20
188.264445
 30
0.0
 10
117.143010
 20
188.050848
 30
0.0
 10
116.536670
 20
188.050848
 30
0.0
  0
LINE
  5
27f
100
AcDbEntity
  8
Layer_1
 62
3
100
AcDbLine
 10
116.536670
 20
188.050848
 30
0.0
 11
115.761520
 21
188.050848
 31
0.0
  0
SPLINE
  5
280
100
AcDbEntity
  8
Layer_1
 62
3
100
AcDbSpline
 70
8
 71
3
 72
8
 73
4
 74
0
 40
0
 40
0
 40
0
 40
0
 40
1
 40
1
 40
1
 40
1
 10
115.761520
 20
188.050848
 30
0.0
 10
115.441127
 20
188.050848
 30
0.0
 10
115.167243
 20
187.937161
 30
0.0
 10
114.939870
 20
187.709788
 30
0.0
  0
SPLINE
  5
281
100
AcDbEntity
  8
Layer_1
 62
3
100
AcDbSpline
 70
8
 71
3
 72
8
 73
4
 74
0
 40
0
 40
0
 40
0
 40
0
 40
1
 40
1
 40
1
 40
1
 10
114.939870
 20
187.709788
 30
0.0
 10
114.712497
 20
187.482408
 30
0.0
 10
114.598810
 20
187.208521
 30
0.0
 10
114.598810
 20
186.888128
 30
0.0
  0
LINE
  5
282
100
AcDbEntity
  8
Layer_1
 62
3
100
AcDbLine
 10
114.598810
 20
186.888128
 30
0.0
 11
114.598810
 21
185.725408
 31
0.0
  0
LINE
  5
283
100
AcDbEntity
  8
Layer_1
 62
3
100
AcDbLine
 10
114.598810
 20
185.725408
 30
0.0
 11
118.216160
 21
185.725408
 31
0.0
  0
SPLINE
  5
284
100
AcDbEntity
  8
Layer_1
 62
3
100
AcDbSpline
 70
8
 71
3
 72
8
 73
4
 74
0
 40
0
 40
0
 40
0
 40
0
 40
1
 40
1
 40
1
 40
1
 10
118.216160
 20
185.725408
 30
0.0
 10
118.357407
 20
185.725408
 30
0.0
 10
118.477983
 20
185.673731
 30
0.0
 10
118.577890
 20
185.570378
 30
0.0
  0
SPLINE
  5
285
100
AcDbEntity
  8
Layer_1
 62
3
100
AcDbSpline
 70
8
 71
3
 72
8
 73
4
 74
0
 40
0
 40
0
 40
0
 40
0
 40
1
 40
1
 40
1
 40
1
 10
118.577890
 20
185.570378
 30
0.0
 10
118.681243
 20
185.470471
 30
0.0
 10
118.732920
 20
185.349895
 30
0.0
 10
118.732920
 20
185.208648
 30
0.0
  0
SPLINE
  5
286
100
AcDbEntity
  8
Layer_1
 62
3
100
AcDbSpline
 70
8
 71
3
 72
8
 73
4
 74
0
 40
0
 40
0
 40
0
 40
0
 40
1
 40
1
 40
1
 40
1
 10
118.732920
 20
185.208648
 30
0.0
 10
118.732920
 20
185.067395
 30
0.0
 10
118.681243
 20
184.945091
 30
0.0
 10
118.577890
 20
184.841738
 30
0.0
  0
SPLINE
  5
287
100
AcDbEntity
  8
Layer_1
 62
3
100
AcDbSpline
 70
8
 71
3
 72
8
 73
4
 74
0
 40
0
 40
0
 40
0
 40
0
 40
1
 40
1
 40
1
 40
1
 10
118.577890
 20
184.841738
 30
0.0
 10
118.477983
 20
184.741831
 30
0.0
 10
118.357407
 20
184.691878
 30
0.0
 10
118.216160
 20
184.691878
 30
0.0
  0
LINE
  5
288
100
AcDbEntity
  8
Layer_1
 62
3
100
AcDbLine
 10
118.216160
 20
184.691878
 30
0.0
 11
114.082040
 21
184.691878
 31
0.0
  0
SPLINE
  5
289
100
AcDbEntity
  8
Layer_1
 62
3
100
AcDbSpline
 70
8
 71
3
 72
8
 73
4
 74
0
 40
0
 40
0
 40
0
 40
0
 40
1
 40
1
 40
1
 40
1
 10
114.082040
 20
184.691878
 30
0.0
 10
113.940793
 20
184.691878
 30
0.0
 10
113.818493
 20
184.741831
 30
0.0
 10
113.715140
 20
184.841738
 30
0.0
  0
SPLINE
  5
28a
100
AcDbEntity
  8
Layer_1
 62
3
100
AcDbSpline
 70
8
 71
3
 72
8
 73
4
 74
0
 40
0
 40
0
 40
0
 40
0
 40
1
 40
1
 40
1
 40
1
 10
113.715140
 20
184.841738
 30
0.0
 10
113.615233
 20
184.945091
 30
0.0
 10
113.565280
 20
185.067395
 30
0.0
 10
113.565280
 20
185.208648
 30
0.0
  0
LINE
  5
28b
100
AcDbEntity
  8
Layer_1
 62
3
100
AcDbLine
 10
113.565280
 20
185.208648
 30
0.0
 11
113.565280
 21
186.888128
 31
0.0
  0
SPLINE
  5
28c
100
AcDbEntity
  8
Layer_1
 62
3
100
AcDbSpline
 70
8
 71
3
 72
8
 73
4
 74
0
 40
0
 40
0
 40
0
 40
0
 40
1
 40
1
 40
1
 40
1
 10
121.414930
 20
186.040638
 30
0.0
 10
121.683643
 20
185.830485
 30
0.0
 10
121.995423
 20
185.725408
 30
0.0
 10
122.350270
 20
185.725408
 30
0.0
  0
SPLINE
  5
28d
100
AcDbEntity
  8
Layer_1
 62
3
100
AcDbSpline
 70
8
 71
3
 72
8
 73
4
 74
0
 40
0
 40
0
 40
0
 40
0
 40
1
 40
1
 40
1
 40
1
 10
122.350270
 20
185.725408
 30
0.0
 10
122.777463
 20
185.725408
 30
0.0
 10
123.142643
 20
185.876991
 30
0.0
 10
123.445810
 20
186.180158
 30
0.0
  0
SPLINE
  5
28e
100
AcDbEntity
  8
Layer_1
 62
3
100
AcDbSpline
 70
8
 71
3
 72
8
 73
4
 74
0
 40
0
 40
0
 40
0
 40
0
 40
1
 40
1
 40
1
 40
1
 10
123.445810
 20
186.180158
 30
0.0
 10
123.748977
 20
186.483331
 30
0.0
 10
123.900560
 20
186.848511
 30
0.0
 10
123.900560
 20
187.275698
 30
0.0
  0
LINE
  5
28f
100
AcDbEntity
  8
Layer_1
 62
3
100
AcDbLine
 10
123.900560
 20
187.275698
 30
0.0
 11
123.900560
 21
189.859528
 31
0.0
  0
SPLINE
  5
290
100
AcDbEntity
  8
Layer_1
 62
3
100
AcDbSpline
 70
8
 71
3
 72
8
 73
4
 74
0
 40
0
 40
0
 40
0
 40
0
 40
1
 40
1
 40
1
 40
1
 10
123.900560
 20
189.859528
 30
0.0
 10
123.900560
 20
189.924981
 30
0.0
 10
123.897117
 20
189.988715
 30
0.0
 10
123.890230
 20
190.050728
 30
0.0
  0
LINE
  5
291
100
AcDbEntity
  8
Layer_1
 62
3
100
AcDbLine
 10
123.890230
 20
190.050728
 30
0.0
 11
121.414930
 21
186.040638
 31
0.0
  0
LINE
  5
292
100
AcDbEntity
  8
Layer_1
 62
3
100
AcDbLine
 10
120.810310
 20
187.084498
 30
0.0
 11
123.285610
 21
191.094588
 31
0.0
  0
SPLINE
  5
293
100
AcDbEntity
  8
Layer_1
 62
3
100
AcDbSpline
 70
8
 71
3
 72
8
 73
4
 74
0
 40
0
 40
0
 40
0
 40
0
 40
1
 40
1
 40
1
 40
1
 10
123.285610
 20
191.094588
 30
0.0
 10
123.016897
 20
191.304741
 30
0.0
 10
122.705117
 20
191.409818
 30
0.0
 10
122.350270
 20
191.409818
 30
0.0
  0
SPLINE
  5
294
100
AcDbEntity
  8
Layer_1
 62
3
100
AcDbSpline
 70
8
 71
3
 72
8
 73
4
 74
0
 40
0
 40
0
 40
0
 40
0
 40
1
 40
1
 40
1
 40
1
 10
122.350270
 20
191.409818
 30
0.0
 10
121.923077
 20
191.409818
 30
0.0
 10
121.557897
 20
191.258235
 30
0.0
 10
121.254730
 20
190.955068
 30
0.0
  0
SPLINE
  5
295
100
AcDbEntity
  8
Layer_1
 62
3
100
AcDbSpline
 70
8
 71
3
 72
8
 73
4
 74
0
 40
0
 40
0
 40
0
 40
0
 40
1
 40
1
 40
1
 40
1
 10
121.254730
 20
190.955068
 30
0.0
 10
120.951563
 20
190.651895
 30
0.0
 10
120.799980
 20
190.286715
 30
0.0
 10
120.799980
 20
189.859528
 30
0.0
  0
LINE
  5
296
100
AcDbEntity
  8
Layer_1
 62
3
100
AcDbLine
 10
120.799980
 20
189.859528
 30
0.0
 11
120.799980
 21
187.275698
 31
0.0
  0
SPLINE
  5
297
100
AcDbEntity
  8
Layer_1
 62
3
100
AcDbSpline
 70
8
 71
3
 72
8
 73
4
 74
0
 40
0
 40
0
 40
0
 40
0
 40
1
 40
1
 40
1
 40
1
 10
120.799980
 20
187.275698
 30
0.0
 10
120.799980
 20
187.210245
 30
0.0
 10
120.803423
 20
187.146511
 30
0.0
 10
120.810310
 20
187.084498
 30
0.0
  0
LINE
  5
298
100
AcDbEntity
  8
Layer_1
 62
3
100
AcDbLine
 10
120.810310
 20
187.084498
 30
0.0
 11
120.810310
 21
187.084498
 31
0.0
  0
SPLINE
  5
299
100
AcDbEntity
  8
Layer_1
 62
3
100
AcDbSpline
 70
8
 71
3
 72
8
 73
4
 74
0
 40
0
 40
0
 40
0
 40
0
 40
1
 40
1
 40
1
 40
1
 10
124.582690
 20
191.172108
 30
0.0
 10
124.816957
 20
190.782808
 30
0.0
 10
124.934090
 20
190.345281
 30
0.0
 10
124.934090
 20
189.859528
 30
0.0
  0
LINE
  5
29a
100
AcDbEntity
  8
Layer_1
 62
3
100
AcDbLine
 10
124.934090
 20
189.859528
 30
0.0
 11
124.934090
 21
187.275698
 31
0.0
  0
SPLINE
  5
29b
100
AcDbEntity
  8
Layer_1
 62
3
100
AcDbSpline
 70
8
 71
3
 72
8
 73
4
 74
0
 40
0
 40
0
 40
0
 40
0
 40
1
 40
1
 40
1
 40
1
 10
124.934090
 20
187.275698
 30
0.0
 10
124.934090
 20
186.562565
 30
0.0
 10
124.680877
 20
185.952785
 30
0.0
 10
124.174450
 20
185.446358
 30
0.0
  0
SPLINE
  5
29c
100
AcDbEntity
  8
Layer_1
 62
3
100
AcDbSpline
 70
8
 71
3
 72
8
 73
4
 74
0
 40
0
 40
0
 40
0
 40
0
 40
1
 40
1
 40
1
 40
1
 10
124.174450
 20
185.446358
 30
0.0
 10
123.671463
 20
184.943371
 30
0.0
 10
123.063403
 20
184.691878
 30
0.0
 10
122.350270
 20
184.691878
 30
0.0
  0
SPLINE
  5
29d
100
AcDbEntity
  8
Layer_1
 62
3
100
AcDbSpline
 70
8
 71
3
 72
8
 73
4
 74
0
 40
0
 40
0
 40
0
 40
0
 40
1
 40
1
 40
1
 40
1
 10
122.350270
 20
184.691878
 30
0.0
 10
121.795610
 20
184.691878
 30
0.0
 10
121.302960
 20
184.845185
 30
0.0
 10
120.872320
 20
185.151798
 30
0.0
  0
SPLINE
  5
29e
100
AcDbEntity
  8
Layer_1
 62
3
100
AcDbSpline
 70
8
 71
3
 72
8
 73
4
 74
0
 40
0
 40
0
 40
0
 40
0
 40
1
 40
1
 40
1
 40
1
 10
120.872320
 20
185.151798
 30
0.0
 10
120.810313
 20
185.034665
 30
0.0
 10
120.736247
 20
184.933035
 30
0.0
 10
120.650120
 20
184.846908
 30
0.0
  0
SPLINE
  5
29f
100
AcDbEntity
  8
Layer_1
 62
3
100
AcDbSpline
 70
8
 71
3
 72
8
 73
4
 74
0
 40
0
 40
0
 40
0
 40
0
 40
1
 40
1
 40
1
 40
1
 10
120.650120
 20
184.846908
 30
0.0
 10
120.546767
 20
184.743555
 30
0.0
 10
120.424463
 20
184.691878
 30
0.0
 10
120.283210
 20
184.691878
 30
0.0
  0
SPLINE
  5
2a0
100
AcDbEntity
  8
Layer_1
 62
3
100
AcDbSpline
 70
8
 71
3
 72
8
 73
4
 74
0
 40
0
 40
0
 40
0
 40
0
 40
1
 40
1
 40
1
 40
1
 10
120.283210
 20
184.691878
 30
0.0
 10
120.141963
 20
184.691878
 30
0.0
 10
120.019663
 20
184.741831
 30
0.0
 10
119.916310
 20
184.841738
 30
0.0
  0
SPLINE
  5
2a1
100
AcDbEntity
  8
Layer_1
 62
3
100
AcDbSpline
 70
8
 71
3
 72
8
 73
4
 74
0
 40
0
 40
0
 40
0
 40
0
 40
1
 40
1
 40
1
 40
1
 10
119.916310
 20
184.841738
 30
0.0
 10
119.816403
 20
184.945091
 30
0.0
 10
119.766450
 20
185.067395
 30
0.0
 10
119.766450
 20
185.208648
 30
0.0
  0
SPLINE
  5
2a2
100
AcDbEntity
  8
Layer_1
 62
3
100
AcDbSpline
 70
8
 71
3
 72
8
 73
4
 74
0
 40
0
 40
0
 40
0
 40
0
 40
1
 40
1
 40
1
 40
1
 10
119.766450
 20
185.208648
 30
0.0
 10
119.766450
 20
185.349895
 30
0.0
 10
119.835350
 20
185.522148
 30
0.0
 10
119.973150
 20
185.725408
 30
0.0
  0
LINE
  5
2a3
100
AcDbEntity
  8
Layer_1
 62
3
100
AcDbLine
 10
119.973150
 20
185.725408
 30
0.0
 11
120.117850
 21
185.963118
 31
0.0
  0
SPLINE
  5
2a4
100
AcDbEntity
  8
Layer_1
 62
3
100
AcDbSpline
 70
8
 71
3
 72
8
 73
4
 74
0
 40
0
 40
0
 40
0
 40
0
 40
1
 40
1
 40
1
 40
1
 10
120.117850
 20
185.963118
 30
0.0
 10
119.883583
 20
186.352418
 30
0.0
 10
119.766450
 20
186.789945
 30
0.0
 10
119.766450
 20
187.275698
 30
0.0
  0
LINE
  5
2a5
100
AcDbEntity
  8
Layer_1
 62
3
100
AcDbLine
 10
119.766450
 20
187.275698
 30
0.0
 11
119.766450
 21
189.859528
 31
0.0
  0
SPLINE
  5
2a6
100
AcDbEntity
  8
Layer_1
 62
3
100
AcDbSpline
 70
8
 71
3
 72
8
 73
4
 74
0
 40
0
 40
0
 40
0
 40
0
 40
1
 40
1
 40
1
 40
1
 10
119.766450
 20
189.859528
 30
0.0
 10
119.766450
 20
190.572661
 30
0.0
 10
120.017940
 20
191.180718
 30
0.0
 10
120.520920
 20
191.683698
 30
0.0
  0
SPLINE
  5
2a7
100
AcDbEntity
  8
Layer_1
 62
3
100
AcDbSpline
 70
8
 71
3
 72
8
 73
4
 74
0
 40
0
 40
0
 40
0
 40
0
 40
1
 40
1
 40
1
 40
1
 10
120.520920
 20
191.683698
 30
0.0
 10
121.027353
 20
192.190131
 30
0.0
 10
121.637137
 20
192.443348
 30
0.0
 10
122.350270
 20
192.443348
 30
0.0
  0
SPLINE
  5
2a8
100
AcDbEntity
  8
Layer_1
 62
3
100
AcDbSpline
 70
8
 71
3
 72
8
 73
4
 74
0
 40
0
 40
0
 40
0
 40
0
 40
1
 40
1
 40
1
 40
1
 10
122.350270
 20
192.443348
 30
0.0
 10
122.904930
 20
192.443348
 30
0.0
 10
123.397580
 20
192.290041
 30
0.0
 10
123.828220
 20
191.983428
 30
0.0
  0
SPLINE
  5
2a9
100
AcDbEntity
  8
Layer_1
 62
3
100
AcDbSpline
 70
8
 71
3
 72
8
 73
4
 74
0
 40
0
 40
0
 40
0
 40
0
 40
1
 40
1
 40
1
 40
1
 10
123.828220
 20
191.983428
 30
0.0
 10
123.890227
 20
192.100561
 30
0.0
 10
123.966017
 20
192.203915
 30
0.0
 10
124.055590
 20
192.293488
 30
0.0
  0
SPLINE
  5
2aa
100
AcDbEntity
  8
Layer_1
 62
3
100
AcDbSpline
 70
8
 71
3
 72
8
 73
4
 74
0
 40
0
 40
0
 40
0
 40
0
 40
1
 40
1
 40
1
 40
1
 10
124.055590
 20
192.293488
 30
0.0
 10
124.155497
 20
192.393395
 30
0.0
 10
124.276077
 20
192.443348
 30
0.0
 10
124.417330
 20
192.443348
 30
0.0
  0
SPLINE
  5
2ab
100
AcDbEntity
  8
Layer_1
 62
3
100
AcDbSpline
 70
8
 71
3
 72
8
 73
4
 74
0
 40
0
 40
0
 40
0
 40
0
 40
1
 40
1
 40
1
 40
1
 10
124.417330
 20
192.443348
 30
0.0
 10
124.558577
 20
192.443348
 30
0.0
 10
124.679153
 20
192.391671
 30
0.0
 10
124.779060
 20
192.288318
 30
0.0
  0
SPLINE
  5
2ac
100
AcDbEntity
  8
Layer_1
 62
3
100
AcDbSpline
 70
8
 71
3
 72
8
 73
4
 74
0
 40
0
 40
0
 40
0
 40
0
 40
1
 40
1
 40
1
 40
1
 10
124.779060
 20
192.288318
 30
0.0
 10
124.882413
 20
192.188411
 30
0.0
 10
124.934090
 20
192.067831
 30
0.0
 10
124.934090
 20
191.926578
 30
0.0
  0
SPLINE
  5
2ad
100
AcDbEntity
  8
Layer_1
 62
3
100
AcDbSpline
 70
8
 71
3
 72
8
 73
4
 74
0
 40
0
 40
0
 40
0
 40
0
 40
1
 40
1
 40
1
 40
1
 10
124.934090
 20
191.926578
 30
0.0
 10
124.934090
 20
191.785331
 30
0.0
 10
124.865190
 20
191.613078
 30
0.0
 10
124.727390
 20
191.409818
 30
0.0
  0
LINE
  5
2ae
100
AcDbEntity
  8
Layer_1
 62
3
100
AcDbLine
 10
124.727390
 20
191.409818
 30
0.0
 11
124.582690
 21
191.172108
 31
0.0
  0
LINE
  5
2af
100
AcDbEntity
  8
Layer_1
 62
3
100
AcDbLine
 10
128.034680
 20
185.725408
 30
0.0
 11
128.034680
 21
191.409818
 31
0.0
  0
LINE
  5
2b0
100
AcDbEntity
  8
Layer_1
 62
3
100
AcDbLine
 10
128.034680
 20
191.409818
 30
0.0
 11
126.484390
 21
191.409818
 31
0.0
  0
SPLINE
  5
2b1
100
AcDbEntity
  8
Layer_1
 62
3
100
AcDbSpline
 70
8
 71
3
 72
8
 73
4
 74
0
 40
0
 40
0
 40
0
 40
0
 40
1
 40
1
 40
1
 40
1
 10
126.484390
 20
191.409818
 30
0.0
 10
126.343137
 20
191.409818
 30
0.0
 10
126.220833
 20
191.459771
 30
0.0
 10
126.117480
 20
191.559678
 30
0.0
  0
SPLINE
  5
2b2
100
AcDbEntity
  8
Layer_1
 62
3
100
AcDbSpline
 70
8
 71
3
 72
8
 73
4
 74
0
 40
0
 40
0
 40
0
 40
0
 40
1
 40
1
 40
1
 40
1
 10
126.117480
 20
191.559678
 30
0.0
 10
126.017573
 20
191.663031
 30
0.0
 10
125.967620
 20
191.785331
 30
0.0
 10
125.967620
 20
191.926578
 30
0.0
  0
SPLINE
  5
2b3
100
AcDbEntity
  8
Layer_1
 62
3
100
AcDbSpline
 70
8
 71
3
 72
8
 73
4
 74
0
 40
0
 40
0
 40
0
 40
0
 40
1
 40
1
 40
1
 40
1
 10
125.967620
 20
191.926578
 30
0.0
 10
125.967620
 20
192.067831
 30
0.0
 10
126.017573
 20
192.188411
 30
0.0
 10
126.117480
 20
192.288318
 30
0.0
  0
SPLINE
  5
2b4
100
AcDbEntity
  8
Layer_1
 62
3
100
AcDbSpline
 70
8
 71
3
 72
8
 73
4
 74
0
 40
0
 40
0
 40
0
 40
0
 40
1
 40
1
 40
1
 40
1
 10
126.117480
 20
192.288318
 30
0.0
 10
126.220833
 20
192.391671
 30
0.0
 10
126.343137
 20
192.443348
 30
0.0
 10
126.484390
 20
192.443348
 30
0.0
  0
LINE
  5
2b5
100
AcDbEntity
  8
Layer_1
 62
3
100
AcDbLine
 10
126.484390
 20
192.443348
 30
0.0
 11
128.551440
 21
192.443348
 31
0.0
  0
SPLINE
  5
2b6
100
AcDbEntity
  8
Layer_1
 62
3
100
AcDbSpline
 70
8
 71
3
 72
8
 73
4
 74
0
 40
0
 40
0
 40
0
 40
0
 40
1
 40
1
 40
1
 40
1
 10
128.551440
 20
192.443348
 30
0.0
 10
128.692693
 20
192.443348
 30
0.0
 10
128.813273
 20
192.391671
 30
0.0
 10
128.913180
 20
192.288318
 30
0.0
  0
SPLINE
  5
2b7
100
AcDbEntity
  8
Layer_1
 62
3
100
AcDbSpline
 70
8
 71
3
 72
8
 73
4
 74
0
 40
0
 40
0
 40
0
 40
0
 40
1
 40
1
 40
1
 40
1
 10
128.913180
 20
192.288318
 30
0.0
 10
129.016533
 20
192.188411
 30
0.0
 10
129.068210
 20
192.067831
 30
0.0
 10
129.068210
 20
191.926578
 30
0.0
  0
LINE
  5
2b8
100
AcDbEntity
  8
Layer_1
 62
3
100
AcDbLine
 10
129.068210
 20
191.926578
 30
0.0
 11
129.068210
 21
185.725408
 31
0.0
  0
LINE
  5
2b9
100
AcDbEntity
  8
Layer_1
 62
3
100
AcDbLine
 10
129.068210
 20
185.725408
 30
0.0
 11
130.618500
 21
185.725408
 31
0.0
  0
SPLINE
  5
2ba
100
AcDbEntity
  8
Layer_1
 62
3
100
AcDbSpline
 70
8
 71
3
 72
8
 73
4
 74
0
 40
0
 40
0
 40
0
 40
0
 40
1
 40
1
 40
1
 40
1
 10
130.618500
 20
185.725408
 30
0.0
 10
130.759747
 20
185.725408
 30
0.0
 10
130.880327
 20
185.673731
 30
0.0
 10
130.980240
 20
185.570378
 30
0.0
  0
SPLINE
  5
2bb
100
AcDbEntity
  8
Layer_1
 62
3
100
AcDbSpline
 70
8
 71
3
 72
8
 73
4
 74
0
 40
0
 40
0
 40
0
 40
0
 40
1
 40
1
 40
1
 40
1
 10
130.980240
 20
185.570378
 30
0.0
 10
131.083587
 20
185.470471
 30
0.0
 10
131.135260
 20
185.349895
 30
0.0
 10
131.135260
 20
185.208648
 30
0.0
  0
SPLINE
  5
2bc
100
AcDbEntity
  8
Layer_1
 62
3
100
AcDbSpline
 70
8
 71
3
 72
8
 73
4
 74
0
 40
0
 40
0
 40
0
 40
0
 40
1
 40
1
 40
1
 40
1
 10
131.135260
 20
185.208648
 30
0.0
 10
131.135260
 20
185.067395
 30
0.0
 10
131.083587
 20
184.945091
 30
0.0
 10
130.980240
 20
184.841738
 30
0.0
  0
SPLINE
  5
2bd
100
AcDbEntity
  8
Layer_1
 62
3
100
AcDbSpline
 70
8
 71
3
 72
8
 73
4
 74
0
 40
0
 40
0
 40
0
 40
0
 40
1
 40
1
 40
1
 40
1
 10
130.980240
 20
184.841738
 30
0.0
 10
130.880327
 20
184.741831
 30
0.0
 10
130.759747
 20
184.691878
 30
0.0
 10
130.618500
 20
184.691878
 30
0.0
  0
LINE
  5
2be
100
AcDbEntity
  8
Layer_1
 62
3
100
AcDbLine
 10
130.618500
 20
184.691878
 30
0.0
 11
126.484390
 21
184.691878
 31
0.0
  0
SPLINE
  5
2bf
100
AcDbEntity
  8
Layer_1
 62
3
100
AcDbSpline
 70
8
 71
3
 72
8
 73
4
 74
0
 40
0
 40
0
 40
0
 40
0
 40
1
 40
1
 40
1
 40
1
 10
126.484390
 20
184.691878
 30
0.0
 10
126.343137
 20
184.691878
 30
0.0
 10
126.220833
 20
184.741831
 30
0.0
 10
126.117480
 20
184.841738
 30
0.0
  0
SPLINE
  5
2c0
100
AcDbEntity
  8
Layer_1
 62
3
100
AcDbSpline
 70
8
 71
3
 72
8
 73
4
 74
0
 40
0
 40
0
 40
0
 40
0
 40
1
 40
1
 40
1
 40
1
 10
126.117480
 20
184.841738
 30
0.0
 10
126.017573
 20
184.945091
 30
0.0
 10
125.967620
 20
185.067395
 30
0.0
 10
125.967620
 20
185.208648
 30
0.0
  0
SPLINE
  5
2c1
100
AcDbEntity
  8
Layer_1
 62
3
100
AcDbSpline
 70
8
 71
3
 72
8
 73
4
 74
0
 40
0
 40
0
 40
0
 40
0
 40
1
 40
1
 40
1
 40
1
 10
125.967620
 20
185.208648
 30
0.0
 10
125.967620
 20
185.349895
 30
0.0
 10
126.017573
 20
185.470471
 30
0.0
 10
126.117480
 20
185.570378
 30
0.0
  0
SPLINE
  5
2c2
100
AcDbEntity
  8
Layer_1
 62
3
100
AcDbSpline
 70
8
 71
3
 72
8
 73
4
 74
0
 40
0
 40
0
 40
0
 40
0
 40
1
 40
1
 40
1
 40
1
 10
126.117480
 20
185.570378
 30
0.0
 10
126.220833
 20
185.673731
 30
0.0
 10
126.343137
 20
185.725408
 30
0.0
 10
126.484390
 20
185.725408
 30
0.0
  0
LINE
  5
2c3
100
AcDbEntity
  8
Layer_1
 62
3
100
AcDbLine
 10
126.484390
 20
185.725408
 30
0.0
 11
128.034680
 21
185.725408
 31
0.0
  0
LINE
  5
2c4
100
AcDbEntity
  8
Layer_1
 62
3
100
AcDbLine
 10
134.447720
 20
189.084378
 30
0.0
 11
135.879160
 21
191.409818
 31
0.0
  0
LINE
  5
2c5
100
AcDbEntity
  8
Layer_1
 62
3
100
AcDbLine
 10
135.879160
 20
191.409818
 30
0.0
 11
132.685560
 21
191.409818
 31
0.0
  0
SPLINE
  5
2c6
100
AcDbEntity
  8
Layer_1
 62
3
100
AcDbSpline
 70
8
 71
3
 72
8
 73
4
 74
0
 40
0
 40
0
 40
0
 40
0
 40
1
 40
1
 40
1
 40
1
 10
132.685560
 20
191.409818
 30
0.0
 10
132.544307
 20
191.409818
 30
0.0
 10
132.422007
 20
191.459771
 30
0.0
 10
132.318660
 20
191.559678
 30
0.0
  0
SPLINE
  5
2c7
100
AcDbEntity
  8
Layer_1
 62
3
100
AcDbSpline
 70
8
 71
3
 72
8
 73
4
 74
0
 40
0
 40
0
 40
0
 40
0
 40
1
 40
1
 40
1
 40
1
 10
132.318660
 20
191.559678
 30
0.0
 10
132.218747
 20
191.663031
 30
0.0
 10
132.168790
 20
191.785331
 30
0.0
 10
132.168790
 20
191.926578
 30
0.0
  0
SPLINE
  5
2c8
100
AcDbEntity
  8
Layer_1
 62
3
100
AcDbSpline
 70
8
 71
3
 72
8
 73
4
 74
0
 40
0
 40
0
 40
0
 40
0
 40
1
 40
1
 40
1
 40
1
 10
132.168790
 20
191.926578
 30
0.0
 10
132.168790
 20
192.067831
 30
0.0
 10
132.218747
 20
192.188411
 30
0.0
 10
132.318660
 20
192.288318
 30
0.0
  0
SPLINE
  5
2c9
100
AcDbEntity
  8
Layer_1
 62
3
100
AcDbSpline
 70
8
 71
3
 72
8
 73
4
 74
0
 40
0
 40
0
 40
0
 40
0
 40
1
 40
1
 40
1
 40
1
 10
132.318660
 20
192.288318
 30
0.0
 10
132.422007
 20
192.391671
 30
0.0
 10
132.544307
 20
192.443348
 30
0.0
 10
132.685560
 20
192.443348
 30
0.0
  0
LINE
  5
2ca
100
AcDbEntity
  8
Layer_1
 62
3
100
AcDbLine
 10
132.685560
 20
192.443348
 30
0.0
 11
136.819670
 21
192.443348
 31
0.0
  0
SPLINE
  5
2cb
100
AcDbEntity
  8
Layer_1
 62
3
100
AcDbSpline
 70
8
 71
3
 72
8
 73
4
 74
0
 40
0
 40
0
 40
0
 40
0
 40
1
 40
1
 40
1
 40
1
 10
136.819670
 20
192.443348
 30
0.0
 10
136.960923
 20
192.443348
 30
0.0
 10
137.081503
 20
192.391671
 30
0.0
 10
137.181410
 20
192.288318
 30
0.0
  0
SPLINE
  5
2cc
100
AcDbEntity
  8
Layer_1
 62
3
100
AcDbSpline
 70
8
 71
3
 72
8
 73
4
 74
0
 40
0
 40
0
 40
0
 40
0
 40
1
 40
1
 40
1
 40
1
 10
137.181410
 20
192.288318
 30
0.0
 10
137.284763
 20
192.188411
 30
0.0
 10
137.336440
 20
192.067831
 30
0.0
 10
137.336440
 20
191.926578
 30
0.0
  0
SPLINE
  5
2cd
100
AcDbEntity
  8
Layer_1
 62
3
100
AcDbSpline
 70
8
 71
3
 72
8
 73
4
 74
0
 40
0
 40
0
 40
0
 40
0
 40
1
 40
1
 40
1
 40
1
 10
137.336440
 20
191.926578
 30
0.0
 10
137.336440
 20
191.785331
 30
0.0
 10
137.267537
 20
191.613078
 30
0.0
 10
137.129730
 20
191.409818
 30
0.0
  0
LINE
  5
2ce
100
AcDbEntity
  8
Layer_1
 62
3
100
AcDbLine
 10
137.129730
 20
191.409818
 30
0.0
 11
135.698290
 21
189.084378
 31
0.0
  0
LINE
  5
2cf
100
AcDbEntity
  8
Layer_1
 62
3
100
AcDbLine
 10
135.698290
 20
189.084378
 30
0.0
 11
136.302910
 21
189.084378
 31
0.0
  0
SPLINE
  5
2d0
100
AcDbEntity
  8
Layer_1
 62
3
100
AcDbSpline
 70
8
 71
3
 72
8
 73
4
 74
0
 40
0
 40
0
 40
0
 40
0
 40
1
 40
1
 40
1
 40
1
 10
136.302910
 20
189.084378
 30
0.0
 10
136.444157
 20
189.084378
 30
0.0
 10
136.564733
 20
189.032701
 30
0.0
 10
136.664640
 20
188.929348
 30
0.0
  0
SPLINE
  5
2d1
100
AcDbEntity
  8
Layer_1
 62
3
100
AcDbSpline
 70
8
 71
3
 72
8
 73
4
 74
0
 40
0
 40
0
 40
0
 40
0
 40
1
 40
1
 40
1
 40
1
 10
136.664640
 20
188.929348
 30
0.0
 10
136.767993
 20
188.829441
 30
0.0
 10
136.819670
 20
188.708861
 30
0.0
 10
136.819670
 20
188.567608
 30
0.0
  0
SPLINE
  5
2d2
100
AcDbEntity
  8
Layer_1
 62
3
100
AcDbSpline
 70
8
 71
3
 72
8
 73
4
 74
0
 40
0
 40
0
 40
0
 40
0
 40
1
 40
1
 40
1
 40
1
 10
136.819670
 20
188.567608
 30
0.0
 10
136.819670
 20
188.426361
 30
0.0
 10
136.767993
 20
188.304061
 30
0.0
 10
136.664640
 20
188.200708
 30
0.0
  0
SPLINE
  5
2d3
100
AcDbEntity
  8
Layer_1
 62
3
100
AcDbSpline
 70
8
 71
3
 72
8
 73
4
 74
0
 40
0
 40
0
 40
0
 40
0
 40
1
 40
1
 40
1
 40
1
 10
136.664640
 20
188.200708
 30
0.0
 10
136.564733
 20
188.100801
 30
0.0
 10
136.444157
 20
188.050848
 30
0.0
 10
136.302910
 20
188.050848
 30
0.0
  0
LINE
  5
2d4
100
AcDbEntity
  8
Layer_1
 62
3
100
AcDbLine
 10
136.302910
 20
188.050848
 30
0.0
 11
135.057510
 21
188.050848
 31
0.0
  0
LINE
  5
2d5
100
AcDbEntity
  8
Layer_1
 62
3
100
AcDbLine
 10
135.057510
 20
188.050848
 30
0.0
 11
133.305680
 21
185.208648
 31
0.0
  0
SPLINE
  5
2d6
100
AcDbEntity
  8
Layer_1
 62
3
100
AcDbSpline
 70
8
 71
3
 72
8
 73
4
 74
0
 40
0
 40
0
 40
0
 40
0
 40
1
 40
1
 40
1
 40
1
 10
133.305680
 20
185.208648
 30
0.0
 10
133.236773
 20
185.067395
 30
0.0
 10
133.150643
 20
184.945091
 30
0.0
 10
133.047290
 20
184.841738
 30
0.0
  0
SPLINE
  5
2d7
100
AcDbEntity
  8
Layer_1
 62
3
100
AcDbSpline
 70
8
 71
3
 72
8
 73
4
 74
0
 40
0
 40
0
 40
0
 40
0
 40
1
 40
1
 40
1
 40
1
 10
133.047290
 20
184.841738
 30
0.0
 10
132.947383
 20
184.741831
 30
0.0
 10
132.826807
 20
184.691878
 30
0.0
 10
132.685560
 20
184.691878
 30
0.0
  0
SPLINE
  5
2d8
100
AcDbEntity
  8
Layer_1
 62
3
100
AcDbSpline
 70
8
 71
3
 72
8
 73
4
 74
0
 40
0
 40
0
 40
0
 40
0
 40
1
 40
1
 40
1
 40
1
 10
132.685560
 20
184.691878
 30
0.0
 10
132.544307
 20
184.691878
 30
0.0
 10
132.422007
 20
184.741831
 30
0.0
 10
132.318660
 20
184.841738
 30
0.0
  0
SPLINE
  5
2d9
100
AcDbEntity
  8
Layer_1
 62
3
100
AcDbSpline
 70
8
 71
3
 72
8
 73
4
 74
0
 40
0
 40
0
 40
0
 40
0
 40
1
 40
1
 40
1
 40
1
 10
132.318660
 20
184.841738
 30
0.0
 10
132.218747
 20
184.945091
 30
0.0
 10
132.168790
 20
185.067395
 30
0.0
 10
132.168790
 20
185.208648
 30
0.0
  0
SPLINE
  5
2da
100
AcDbEntity
  8
Layer_1
 62
3
100
AcDbSpline
 70
8
 71
3
 72
8
 73
4
 74
0
 40
0
 40
0
 40
0
 40
0
 40
1
 40
1
 40
1
 40
1
 10
132.168790
 20
185.208648
 30
0.0
 10
132.168790
 20
185.349895
 30
0.0
 10
132.237693
 20
185.522148
 30
0.0
 10
132.375500
 20
185.725408
 30
0.0
  0
LINE
  5
2db
100
AcDbEntity
  8
Layer_1
 62
3
100
AcDbLine
 10
132.375500
 20
185.725408
 30
0.0
 11
133.806940
 21
188.050848
 31
0.0
  0
LINE
  5
2dc
100
AcDbEntity
  8
Layer_1
 62
3
100
AcDbLine
 10
133.806940
 20
188.050848
 30
0.0
 11
133.202320
 21
188.050848
 31
0.0
  0
SPLINE
  5
2dd
100
AcDbEntity
  8
Layer_1
 62
3
100
AcDbSpline
 70
8
 71
3
 72
8
 73
4
 74
0
 40
0
 40
0
 40
0
 40
0
 40
1
 40
1
 40
1
 40
1
 10
133.202320
 20
188.050848
 30
0.0
 10
133.061073
 20
188.050848
 30
0.0
 10
132.938773
 20
188.100801
 30
0.0
 10
132.835420
 20
188.200708
 30
0.0
  0
SPLINE
  5
2de
100
AcDbEntity
  8
Layer_1
 62
3
100
AcDbSpline
 70
8
 71
3
 72
8
 73
4
 74
0
 40
0
 40
0
 40
0
 40
0
 40
1
 40
1
 40
1
 40
1
 10
132.835420
 20
188.200708
 30
0.0
 10
132.735513
 20
188.304061
 30
0.0
 10
132.685560
 20
188.426361
 30
0.0
 10
132.685560
 20
188.567608
 30
0.0
  0
SPLINE
  5
2df
100
AcDbEntity
  8
Layer_1
 62
3
100
AcDbSpline
 70
8
 71
3
 72
8
 73
4
 74
0
 40
0
 40
0
 40
0
 40
0
 40
1
 40
1
 40
1
 40
1
 10
132.685560
 20
188.567608
 30
0.0
 10
132.685560
 20
188.708861
 30
0.0
 10
132.735513
 20
188.829441
 30
0.0
 10
132.835420
 20
188.929348
 30
0.0
  0
SPLINE
  5
2e0
100
AcDbEntity
  8
Layer_1
 62
3
100
AcDbSpline
 70
8
 71
3
 72
8
 73
4
 74
0
 40
0
 40
0
 40
0
 40
0
 40
1
 40
1
 40
1
 40
1
 10
132.835420
 20
188.929348
 30
0.0
 10
132.938773
 20
189.032701
 30
0.0
 10
133.061073
 20
189.084378
 30
0.0
 10
133.202320
 20
189.084378
 30
0.0
  0
LINE
  5
2e1
100
AcDbEntity
  8
Layer_1
 62
3
100
AcDbLine
 10
133.202320
 20
189.084378
 30
0.0
 11
134.447720
 21
189.084378
 31
0.0
  0
LINE
  5
2e2
100
AcDbEntity
  8
Layer_1
 62
3
100
AcDbLine
 10
95.314090
 20
212.439403
 30
0.0
 11
95.292600
 21
212.441356
 31
0.0
  0
LINE
  5
2e3
100
AcDbEntity
  8
Layer_1
 62
3
100
AcDbLine
 10
95.292600
 20
212.441356
 30
0.0
 11
95.171510
 21
212.435497
 31
0.0
  0
LINE
  5
2e4
100
AcDbEntity
  8
Layer_1
 62
3
100
AcDbLine
 10
95.171510
 20
212.435497
 30
0.0
 11
94.685180
 21
212.152294
 31
0.0
  0
LINE
  5
2e5
100
AcDbEntity
  8
Layer_1
 62
3
100
AcDbLine
 10
94.685180
 20
212.152294
 30
0.0
 11
94.638310
 21
211.589794
 31
0.0
  0
LINE
  5
2e6
100
AcDbEntity
  8
Layer_1
 62
3
100
AcDbLine
 10
94.638310
 20
211.589794
 30
0.0
 11
95.073850
 21
211.230419
 31
0.0
  0
LINE
  5
2e7
100
AcDbEntity
  8
Layer_1
 62
3
100
AcDbLine
 10
95.073850
 20
211.230419
 30
0.0
 11
95.228150
 21
211.218700
 31
0.0
  0
LINE
  5
2e8
100
AcDbEntity
  8
Layer_1
 62
3
100
AcDbLine
 10
95.228150
 20
211.218700
 30
0.0
 11
95.317990
 21
211.222606
 31
0.0
  0
LINE
  5
2e9
100
AcDbEntity
  8
Layer_1
 62
3
100
AcDbLine
 10
95.317990
 20
211.222606
 30
0.0
 11
95.321900
 21
211.222606
 31
0.0
  0
LINE
  5
2ea
100
AcDbEntity
  8
Layer_1
 62
3
100
AcDbLine
 10
95.321900
 20
211.222606
 30
0.0
 11
96.540650
 21
211.222606
 31
0.0
  0
LINE
  5
2eb
100
AcDbEntity
  8
Layer_1
 62
3
100
AcDbLine
 10
96.540650
 20
211.222606
 30
0.0
 11
97.040650
 21
211.484325
 31
0.0
  0
LINE
  5
2ec
100
AcDbEntity
  8
Layer_1
 62
3
100
AcDbLine
 10
97.040650
 20
211.484325
 30
0.0
 11
97.112910
 21
212.044872
 31
0.0
  0
LINE
  5
2ed
100
AcDbEntity
  8
Layer_1
 62
3
100
AcDbLine
 10
97.112910
 20
212.044872
 30
0.0
 11
96.692990
 21
212.423778
 31
0.0
  0
LINE
  5
2ee
100
AcDbEntity
  8
Layer_1
 62
3
100
AcDbLine
 10
96.692990
 20
212.423778
 30
0.0
 11
96.540650
 21
212.443309
 31
0.0
  0
LINE
  5
2ef
100
AcDbEntity
  8
Layer_1
 62
3
100
AcDbLine
 10
96.540650
 20
212.443309
 30
0.0
 11
95.321900
 21
212.443309
 31
0.0
  0
LINE
  5
2f0
100
AcDbEntity
  8
Layer_1
 62
3
100
AcDbLine
 10
95.321900
 20
212.443309
 30
0.0
 11
95.314090
 21
212.439403
 31
0.0
  0
LINE
  5
2f1
100
AcDbEntity
  8
Layer_1
 62
3
100
AcDbLine
 10
99.698850
 20
212.181591
 30
0.0
 11
99.626590
 21
211.621044
 31
0.0
  0
LINE
  5
2f2
100
AcDbEntity
  8
Layer_1
 62
3
100
AcDbLine
 10
99.626590
 20
211.621044
 30
0.0
 11
100.044560
 21
211.242138
 31
0.0
  0
LINE
  5
2f3
100
AcDbEntity
  8
Layer_1
 62
3
100
AcDbLine
 10
100.044560
 20
211.242138
 30
0.0
 11
100.198850
 21
211.222606
 31
0.0
  0
LINE
  5
2f4
100
AcDbEntity
  8
Layer_1
 62
3
100
AcDbLine
 10
100.198850
 20
211.222606
 30
0.0
 11
101.417600
 21
211.222606
 31
0.0
  0
LINE
  5
2f5
100
AcDbEntity
  8
Layer_1
 62
3
100
AcDbLine
 10
101.417600
 20
211.222606
 30
0.0
 11
101.917600
 21
211.484325
 31
0.0
  0
LINE
  5
2f6
100
AcDbEntity
  8
Layer_1
 62
3
100
AcDbLine
 10
101.917600
 20
211.484325
 30
0.0
 11
101.989870
 21
212.044872
 31
0.0
  0
LINE
  5
2f7
100
AcDbEntity
  8
Layer_1
 62
3
100
AcDbLine
 10
101.989870
 20
212.044872
 30
0.0
 11
101.569950
 21
212.423778
 31
0.0
  0
LINE
  5
2f8
100
AcDbEntity
  8
Layer_1
 62
3
100
AcDbLine
 10
101.569950
 20
212.423778
 30
0.0
 11
101.417600
 21
212.443309
 31
0.0
  0
LINE
  5
2f9
100
AcDbEntity
  8
Layer_1
 62
3
100
AcDbLine
 10
101.417600
 20
212.443309
 30
0.0
 11
100.198850
 21
212.443309
 31
0.0
  0
LINE
  5
2fa
100
AcDbEntity
  8
Layer_1
 62
3
100
AcDbLine
 10
100.198850
 20
212.443309
 30
0.0
 11
99.698850
 21
212.181591
 31
0.0
  0
LINE
  5
2fb
100
AcDbEntity
  8
Layer_1
 62
3
100
AcDbLine
 10
104.575810
 20
212.181591
 30
0.0
 11
104.503540
 21
211.621044
 31
0.0
  0
LINE
  5
2fc
100
AcDbEntity
  8
Layer_1
 62
3
100
AcDbLine
 10
104.503540
 20
211.621044
 30
0.0
 11
104.921510
 21
211.242138
 31
0.0
  0
LINE
  5
2fd
100
AcDbEntity
  8
Layer_1
 62
3
100
AcDbLine
 10
104.921510
 20
211.242138
 30
0.0
 11
105.075810
 21
211.222606
 31
0.0
  0
LINE
  5
2fe
100
AcDbEntity
  8
Layer_1
 62
3
100
AcDbLine
 10
105.075810
 20
211.222606
 30
0.0
 11
106.294560
 21
211.222606
 31
0.0
  0
LINE
  5
2ff
100
AcDbEntity
  8
Layer_1
 62
3
100
AcDbLine
 10
106.294560
 20
211.222606
 30
0.0
 11
106.794560
 21
211.484325
 31
0.0
  0
LINE
  5
300
100
AcDbEntity
  8
Layer_1
 62
3
100
AcDbLine
 10
106.794560
 20
211.484325
 30
0.0
 11
106.866820
 21
212.044872
 31
0.0
  0
LINE
  5
301
100
AcDbEntity
  8
Layer_1
 62
3
100
AcDbLine
 10
106.866820
 20
212.044872
 30
0.0
 11
106.446900
 21
212.423778
 31
0.0
  0
LINE
  5
302
100
AcDbEntity
  8
Layer_1
 62
3
100
AcDbLine
 10
106.446900
 20
212.423778
 30
0.0
 11
106.294560
 21
212.443309
 31
0.0
  0
LINE
  5
303
100
AcDbEntity
  8
Layer_1
 62
3
100
AcDbLine
 10
106.294560
 20
212.443309
 30
0.0
 11
105.075810
 21
212.443309
 31
0.0
  0
LINE
  5
304
100
AcDbEntity
  8
Layer_1
 62
3
100
AcDbLine
 10
105.075810
 20
212.443309
 30
0.0
 11
104.575810
 21
212.181591
 31
0.0
  0
LINE
  5
305
100
AcDbEntity
  8
Layer_1
 62
3
100
AcDbLine
 10
109.450810
 20
212.181591
 30
0.0
 11
109.380490
 21
211.621044
 31
0.0
  0
LINE
  5
306
100
AcDbEntity
  8
Layer_1
 62
3
100
AcDbLine
 10
109.380490
 20
211.621044
 30
0.0
 11
109.798460
 21
211.242138
 31
0.0
  0
LINE
  5
307
100
AcDbEntity
  8
Layer_1
 62
3
100
AcDbLine
 10
109.798460
 20
211.242138
 30
0.0
 11
109.952760
 21
211.222606
 31
0.0
  0
LINE
  5
308
100
AcDbEntity
  8
Layer_1
 62
3
100
AcDbLine
 10
109.952760
 20
211.222606
 30
0.0
 11
111.171510
 21
211.222606
 31
0.0
  0
LINE
  5
309
100
AcDbEntity
  8
Layer_1
 62
3
100
AcDbLine
 10
111.171510
 20
211.222606
 30
0.0
 11
111.671510
 21
211.484325
 31
0.0
  0
LINE
  5
30a
100
AcDbEntity
  8
Layer_1
 62
3
100
AcDbLine
 10
111.671510
 20
211.484325
 30
0.0
 11
111.743770
 21
212.044872
 31
0.0
  0
LINE
  5
30b
100
AcDbEntity
  8
Layer_1
 62
3
100
AcDbLine
 10
111.743770
 20
212.044872
 30
0.0
 11
111.323850
 21
212.423778
 31
0.0
  0
LINE
  5
30c
100
AcDbEntity
  8
Layer_1
 62
3
100
AcDbLine
 10
111.323850
 20
212.423778
 30
0.0
 11
111.171510
 21
212.443309
 31
0.0
  0
LINE
  5
30d
100
AcDbEntity
  8
Layer_1
 62
3
100
AcDbLine
 10
111.171510
 20
212.443309
 30
0.0
 11
109.952760
 21
212.443309
 31
0.0
  0
LINE
  5
30e
100
AcDbEntity
  8
Layer_1
 62
3
100
AcDbLine
 10
109.952760
 20
212.443309
 30
0.0
 11
109.450810
 21
212.181591
 31
0.0
  0
LINE
  5
30f
100
AcDbEntity
  8
Layer_1
 62
3
100
AcDbLine
 10
114.327760
 20
212.181591
 30
0.0
 11
114.257450
 21
211.621044
 31
0.0
  0
LINE
  5
310
100
AcDbEntity
  8
Layer_1
 62
3
100
AcDbLine
 10
114.257450
 20
211.621044
 30
0.0
 11
114.675410
 21
211.242138
 31
0.0
  0
LINE
  5
311
100
AcDbEntity
  8
Layer_1
 62
3
100
AcDbLine
 10
114.675410
 20
211.242138
 30
0.0
 11
114.827760
 21
211.222606
 31
0.0
  0
LINE
  5
312
100
AcDbEntity
  8
Layer_1
 62
3
100
AcDbLine
 10
114.827760
 20
211.222606
 30
0.0
 11
116.048460
 21
211.222606
 31
0.0
  0
LINE
  5
313
100
AcDbEntity
  8
Layer_1
 62
3
100
AcDbLine
 10
116.048460
 20
211.222606
 30
0.0
 11
116.548460
 21
211.484325
 31
0.0
  0
LINE
  5
314
100
AcDbEntity
  8
Layer_1
 62
3
100
AcDbLine
 10
116.548460
 20
211.484325
 30
0.0
 11
116.618770
 21
212.044872
 31
0.0
  0
LINE
  5
315
100
AcDbEntity
  8
Layer_1
 62
3
100
AcDbLine
 10
116.618770
 20
212.044872
 30
0.0
 11
116.200810
 21
212.423778
 31
0.0
  0
LINE
  5
316
100
AcDbEntity
  8
Layer_1
 62
3
100
AcDbLine
 10
116.200810
 20
212.423778
 30
0.0
 11
116.048460
 21
212.443309
 31
0.0
  0
LINE
  5
317
100
AcDbEntity
  8
Layer_1
 62
3
100
AcDbLine
 10
116.048460
 20
212.443309
 30
0.0
 11
114.827760
 21
212.443309
 31
0.0
  0
LINE
  5
318
100
AcDbEntity
  8
Layer_1
 62
3
100
AcDbLine
 10
114.827760
 20
212.443309
 30
0.0
 11
114.327760
 21
212.181591
 31
0.0
  0
LINE
  5
319
100
AcDbEntity
  8
Layer_1
 62
3
100
AcDbLine
 10
119.204710
 20
212.181591
 30
0.0
 11
119.134400
 21
211.621044
 31
0.0
  0
LINE
  5
31a
100
AcDbEntity
  8
Layer_1
 62
3
100
AcDbLine
 10
119.134400
 20
211.621044
 30
0.0
 11
119.552370
 21
211.242138
 31
0.0
  0
LINE
  5
31b
100
AcDbEntity
  8
Layer_1
 62
3
100
AcDbLine
 10
119.552370
 20
211.242138
 30
0.0
 11
119.704710
 21
211.222606
 31
0.0
  0
LINE
  5
31c
100
AcDbEntity
  8
Layer_1
 62
3
100
AcDbLine
 10
119.704710
 20
211.222606
 30
0.0
 11
120.925410
 21
211.222606
 31
0.0
  0
LINE
  5
31d
100
AcDbEntity
  8
Layer_1
 62
3
100
AcDbLine
 10
120.925410
 20
211.222606
 30
0.0
 11
121.425410
 21
211.484325
 31
0.0
  0
LINE
  5
31e
100
AcDbEntity
  8
Layer_1
 62
3
100
AcDbLine
 10
121.425410
 20
211.484325
 30
0.0
 11
121.495730
 21
212.044872
 31
0.0
  0
LINE
  5
31f
100
AcDbEntity
  8
Layer_1
 62
3
100
AcDbLine
 10
121.495730
 20
212.044872
 30
0.0
 11
121.077760
 21
212.423778
 31
0.0
  0
LINE
  5
320
100
AcDbEntity
  8
Layer_1
 62
3
100
AcDbLine
 10
121.077760
 20
212.423778
 30
0.0
 11
120.925410
 21
212.443309
 31
0.0
  0
LINE
  5
321
100
AcDbEntity
  8
Layer_1
 62
3
100
AcDbLine
 10
120.925410
 20
212.443309
 30
0.0
 11
119.704710
 21
212.443309
 31
0.0
  0
LINE
  5
322
100
AcDbEntity
  8
Layer_1
 62
3
100
AcDbLine
 10
119.704710
 20
212.443309
 30
0.0
 11
119.204710
 21
212.181591
 31
0.0
  0
LINE
  5
323
100
AcDbEntity
  8
Layer_1
 62
3
100
AcDbLine
 10
124.081670
 20
212.181591
 30
0.0
 11
124.011350
 21
211.621044
 31
0.0
  0
LINE
  5
324
100
AcDbEntity
  8
Layer_1
 62
3
100
AcDbLine
 10
124.011350
 20
211.621044
 30
0.0
 11
124.429320
 21
211.242138
 31
0.0
  0
LINE
  5
325
100
AcDbEntity
  8
Layer_1
 62
3
100
AcDbLine
 10
124.429320
 20
211.242138
 30
0.0
 11
124.581670
 21
211.222606
 31
0.0
  0
LINE
  5
326
100
AcDbEntity
  8
Layer_1
 62
3
100
AcDbLine
 10
124.581670
 20
211.222606
 30
0.0
 11
125.802370
 21
211.222606
 31
0.0
  0
LINE
  5
327
100
AcDbEntity
  8
Layer_1
 62
3
100
AcDbLine
 10
125.802370
 20
211.222606
 30
0.0
 11
126.302370
 21
211.484325
 31
0.0
  0
LINE
  5
328
100
AcDbEntity
  8
Layer_1
 62
3
100
AcDbLine
 10
126.302370
 20
211.484325
 30
0.0
 11
126.372680
 21
212.044872
 31
0.0
  0
LINE
  5
329
100
AcDbEntity
  8
Layer_1
 62
3
100
AcDbLine
 10
126.372680
 20
212.044872
 30
0.0
 11
125.954710
 21
212.423778
 31
0.0
  0
LINE
  5
32a
100
AcDbEntity
  8
Layer_1
 62
3
100
AcDbLine
 10
125.954710
 20
212.423778
 30
0.0
 11
125.802370
 21
212.443309
 31
0.0
  0
LINE
  5
32b
100
AcDbEntity
  8
Layer_1
 62
3
100
AcDbLine
 10
125.802370
 20
212.443309
 30
0.0
 11
124.581670
 21
212.443309
 31
0.0
  0
LINE
  5
32c
100
AcDbEntity
  8
Layer_1
 62
3
100
AcDbLine
 10
124.581670
 20
212.443309
 30
0.0
 11
124.081670
 21
212.181591
 31
0.0
  0
LINE
  5
32d
100
AcDbEntity
  8
Layer_1
 62
3
100
AcDbLine
 10
128.958620
 20
212.181591
 30
0.0
 11
128.888310
 21
211.621044
 31
0.0
  0
LINE
  5
32e
100
AcDbEntity
  8
Layer_1
 62
3
100
AcDbLine
 10
128.888310
 20
211.621044
 30
0.0
 11
129.306270
 21
211.242138
 31
0.0
  0
LINE
  5
32f
100
AcDbEntity
  8
Layer_1
 62
3
100
AcDbLine
 10
129.306270
 20
211.242138
 30
0.0
 11
129.458620
 21
211.222606
 31
0.0
  0
LINE
  5
330
100
AcDbEntity
  8
Layer_1
 62
3
100
AcDbLine
 10
129.458620
 20
211.222606
 30
0.0
 11
130.677370
 21
211.222606
 31
0.0
  0
LINE
  5
331
100
AcDbEntity
  8
Layer_1
 62
3
100
AcDbLine
 10
130.677370
 20
211.222606
 30
0.0
 11
131.179320
 21
211.484325
 31
0.0
  0
LINE
  5
332
100
AcDbEntity
  8
Layer_1
 62
3
100
AcDbLine
 10
131.179320
 20
211.484325
 30
0.0
 11
131.249630
 21
212.044872
 31
0.0
  0
LINE
  5
333
100
AcDbEntity
  8
Layer_1
 62
3
100
AcDbLine
 10
131.249630
 20
212.044872
 30
0.0
 11
130.831670
 21
212.423778
 31
0.0
  0
LINE
  5
334
100
AcDbEntity
  8
Layer_1
 62
3
100
AcDbLine
 10
130.831670
 20
212.423778
 30
0.0
 11
130.677370
 21
212.443309
 31
0.0
  0
LINE
  5
335
100
AcDbEntity
  8
Layer_1
 62
3
100
AcDbLine
 10
130.677370
 20
212.443309
 30
0.0
 11
129.458620
 21
212.443309
 31
0.0
  0
LINE
  5
336
100
AcDbEntity
  8
Layer_1
 62
3
100
AcDbLine
 10
129.458620
 20
212.443309
 30
0.0
 11
128.958620
 21
212.181591
 31
0.0
  0
LINE
  5
337
100
AcDbEntity
  8
Layer_1
 62
3
100
AcDbLine
 10
133.835570
 20
212.181591
 30
0.0
 11
133.763310
 21
211.621044
 31
0.0
  0
LINE
  5
338
100
AcDbEntity
  8
Layer_1
 62
3
100
AcDbLine
 10
133.763310
 20
211.621044
 30
0.0
 11
134.183230
 21
211.242138
 31
0.0
  0
LINE
  5
339
100
AcDbEntity
  8
Layer_1
 62
3
100
AcDbLine
 10
134.183230
 20
211.242138
 30
0.0
 11
134.335570
 21
211.222606
 31
0.0
  0
LINE
  5
33a
100
AcDbEntity
  8
Layer_1
 62
3
100
AcDbLine
 10
134.335570
 20
211.222606
 30
0.0
 11
135.554320
 21
211.222606
 31
0.0
  0
LINE
  5
33b
100
AcDbEntity
  8
Layer_1
 62
3
100
AcDbLine
 10
135.554320
 20
211.222606
 30
0.0
 11
136.056270
 21
211.484325
 31
0.0
  0
LINE
  5
33c
100
AcDbEntity
  8
Layer_1
 62
3
100
AcDbLine
 10
136.056270
 20
211.484325
 30
0.0
 11
136.126590
 21
212.044872
 31
0.0
  0
LINE
  5
33d
100
AcDbEntity
  8
Layer_1
 62
3
100
AcDbLine
 10
136.126590
 20
212.044872
 30
0.0
 11
135.708620
 21
212.423778
 31
0.0
  0
LINE
  5
33e
100
AcDbEntity
  8
Layer_1
 62
3
100
AcDbLine
 10
135.708620
 20
212.423778
 30
0.0
 11
135.554320
 21
212.443309
 31
0.0
  0
LINE
  5
33f
100
AcDbEntity
  8
Layer_1
 62
3
100
AcDbLine
 10
135.554320
 20
212.443309
 30
0.0
 11
134.335570
 21
212.443309
 31
0.0
  0
LINE
  5
340
100
AcDbEntity
  8
Layer_1
 62
3
100
AcDbLine
 10
134.335570
 20
212.443309
 30
0.0
 11
133.835570
 21
212.181591
 31
0.0
  0
LINE
  5
341
100
AcDbEntity
  8
Layer_1
 62
3
100
AcDbLine
 10
138.712520
 20
212.181591
 30
0.0
 11
138.640260
 21
211.621044
 31
0.0
  0
LINE
  5
342
100
AcDbEntity
  8
Layer_1
 62
3
100
AcDbLine
 10
138.640260
 20
211.621044
 30
0.0
 11
139.060180
 21
211.242138
 31
0.0
  0
LINE
  5
343
100
AcDbEntity
  8
Layer_1
 62
3
100
AcDbLine
 10
139.060180
 20
211.242138
 30
0.0
 11
139.212520
 21
211.222606
 31
0.0
  0
LINE
  5
344
100
AcDbEntity
  8
Layer_1
 62
3
100
AcDbLine
 10
139.212520
 20
211.222606
 30
0.0
 11
140.431270
 21
211.222606
 31
0.0
  0
LINE
  5
345
100
AcDbEntity
  8
Layer_1
 62
3
100
AcDbLine
 10
140.431270
 20
211.222606
 30
0.0
 11
140.931270
 21
211.484325
 31
0.0
  0
LINE
  5
346
100
AcDbEntity
  8
Layer_1
 62
3
100
AcDbLine
 10
140.931270
 20
211.484325
 30
0.0
 11
141.003540
 21
212.044872
 31
0.0
  0
LINE
  5
347
100
AcDbEntity
  8
Layer_1
 62
3
100
AcDbLine
 10
141.003540
 20
212.044872
 30
0.0
 11
140.585570
 21
212.423778
 31
0.0
  0
LINE
  5
348
100
AcDbEntity
  8
Layer_1
 62
3
100
AcDbLine
 10
140.585570
 20
212.423778
 30
0.0
 11
140.431270
 21
212.443309
 31
0.0
  0
LINE
  5
349
100
AcDbEntity
  8
Layer_1
 62
3
100
AcDbLine
 10
140.431270
 20
212.443309
 30
0.0
 11
139.212520
 21
212.443309
 31
0.0
  0
LINE
  5
34a
100
AcDbEntity
  8
Layer_1
 62
3
100
AcDbLine
 10
139.212520
 20
212.443309
 30
0.0
 11
138.712520
 21
212.181591
 31
0.0
  0
LINE
  5
34b
100
AcDbEntity
  8
Layer_1
 62
3
100
AcDbLine
 10
143.589480
 20
212.181591
 30
0.0
 11
143.517210
 21
211.621044
 31
0.0
  0
LINE
  5
34c
100
AcDbEntity
  8
Layer_1
 62
3
100
AcDbLine
 10
143.517210
 20
211.621044
 30
0.0
 11
143.937130
 21
211.242138
 31
0.0
  0
LINE
  5
34d
100
AcDbEntity
  8
Layer_1
 62
3
100
AcDbLine
 10
143.937130
 20
211.242138
 30
0.0
 11
144.089480
 21
211.222606
 31
0.0
  0
LINE
  5
34e
100
AcDbEntity
  8
Layer_1
 62
3
100
AcDbLine
 10
144.089480
 20
211.222606
 30
0.0
 11
145.308230
 21
211.222606
 31
0.0
  0
LINE
  5
34f
100
AcDbEntity
  8
Layer_1
 62
3
100
AcDbLine
 10
145.308230
 20
211.222606
 30
0.0
 11
145.808230
 21
211.484325
 31
0.0
  0
LINE
  5
350
100
AcDbEntity
  8
Layer_1
 62
3
100
AcDbLine
 10
145.808230
 20
211.484325
 30
0.0
 11
145.880490
 21
212.044872
 31
0.0
  0
LINE
  5
351
100
AcDbEntity
  8
Layer_1
 62
3
100
AcDbLine
 10
145.880490
 20
212.044872
 30
0.0
 11
145.462520
 21
212.423778
 31
0.0
  0
LINE
  5
352
100
AcDbEntity
  8
Layer_1
 62
3
100
AcDbLine
 10
145.462520
 20
212.423778
 30
0.0
 11
145.308230
 21
212.443309
 31
0.0
  0
LINE
  5
353
100
AcDbEntity
  8
Layer_1
 62
3
100
AcDbLine
 10
145.308230
 20
212.443309
 30
0.0
 11
144.089480
 21
212.443309
 31
0.0
  0
LINE
  5
354
100
AcDbEntity
  8
Layer_1
 62
3
100
AcDbLine
 10
144.089480
 20
212.443309
 30
0.0
 11
143.589480
 21
212.181591
 31
0.0
  0
LINE
  5
355
100
AcDbEntity
  8
Layer_1
 62
3
100
AcDbLine
 10
148.466430
 20
212.181591
 30
0.0
 11
148.394170
 21
211.621044
 31
0.0
  0
LINE
  5
356
100
AcDbEntity
  8
Layer_1
 62
3
100
AcDbLine
 10
148.394170
 20
211.621044
 30
0.0
 11
148.814090
 21
211.242138
 31
0.0
  0
LINE
  5
357
100
AcDbEntity
  8
Layer_1
 62
3
100
AcDbLine
 10
148.814090
 20
211.242138
 30
0.0
 11
148.966430
 21
211.222606
 31
0.0
  0
LINE
  5
358
100
AcDbEntity
  8
Layer_1
 62
3
100
AcDbLine
 10
148.966430
 20
211.222606
 30
0.0
 11
150.185180
 21
211.222606
 31
0.0
  0
LINE
  5
359
100
AcDbEntity
  8
Layer_1
 62
3
100
AcDbLine
 10
150.185180
 20
211.222606
 30
0.0
 11
150.685180
 21
211.484325
 31
0.0
  0
LINE
  5
35a
100
AcDbEntity
  8
Layer_1
 62
3
100
AcDbLine
 10
150.685180
 20
211.484325
 30
0.0
 11
150.757450
 21
212.044872
 31
0.0
  0
LINE
  5
35b
100
AcDbEntity
  8
Layer_1
 62
3
100
AcDbLine
 10
150.757450
 20
212.044872
 30
0.0
 11
150.339480
 21
212.423778
 31
0.0
  0
LINE
  5
35c
100
AcDbEntity
  8
Layer_1
 62
3
100
AcDbLine
 10
150.339480
 20
212.423778
 30
0.0
 11
150.185180
 21
212.443309
 31
0.0
  0
LINE
  5
35d
100
AcDbEntity
  8
Layer_1
 62
3
100
AcDbLine
 10
150.185180
 20
212.443309
 30
0.0
 11
148.966430
 21
212.443309
 31
0.0
  0
LINE
  5
35e
100
AcDbEntity
  8
Layer_1
 62
3
100
AcDbLine
 10
148.966430
 20
212.443309
 30
0.0
 11
148.466430
 21
212.181591
 31
0.0
  0
LINE
  5
35f
100
AcDbEntity
  8
Layer_1
 62
3
100
AcDbLine
 10
153.343380
 20
212.181591
 30
0.0
 11
153.271120
 21
211.621044
 31
0.0
  0
LINE
  5
360
100
AcDbEntity
  8
Layer_1
 62
3
100
AcDbLine
 10
153.271120
 20
211.621044
 30
0.0
 11
153.689090
 21
211.242138
 31
0.0
  0
LINE
  5
361
100
AcDbEntity
  8
Layer_1
 62
3
100
AcDbLine
 10
153.689090
 20
211.242138
 30
0.0
 11
153.843380
 21
211.222606
 31
0.0
  0
LINE
  5
362
100
AcDbEntity
  8
Layer_1
 62
3
100
AcDbLine
 10
153.843380
 20
211.222606
 30
0.0
 11
155.062130
 21
211.222606
 31
0.0
  0
LINE
  5
363
100
AcDbEntity
  8
Layer_1
 62
3
100
AcDbLine
 10
155.062130
 20
211.222606
 30
0.0
 11
155.562130
 21
211.484325
 31
0.0
  0
LINE
  5
364
100
AcDbEntity
  8
Layer_1
 62
3
100
AcDbLine
 10
155.562130
 20
211.484325
 30
0.0
 11
155.634400
 21
212.044872
 31
0.0
  0
LINE
  5
365
100
AcDbEntity
  8
Layer_1
 62
3
100
AcDbLine
 10
155.634400
 20
212.044872
 30
0.0
 11
155.216430
 21
212.423778
 31
0.0
  0
LINE
  5
366
100
AcDbEntity
  8
Layer_1
 62
3
100
AcDbLine
 10
155.216430
 20
212.423778
 30
0.0
 11
155.062130
 21
212.443309
 31
0.0
  0
LINE
  5
367
100
AcDbEntity
  8
Layer_1
 62
3
100
AcDbLine
 10
155.062130
 20
212.443309
 30
0.0
 11
153.843380
 21
212.443309
 31
0.0
  0
LINE
  5
368
100
AcDbEntity
  8
Layer_1
 62
3
100
AcDbLine
 10
153.843380
 20
212.443309
 30
0.0
 11
153.343380
 21
212.181591
 31
0.0
  0
LINE
  5
369
100
AcDbEntity
  8
Layer_1
 62
3
100
AcDbLine
 10
158.280880
 20
211.548778
 30
0.0
 11
157.966430
 21
211.080028
 31
0.0
  0
LINE
  5
36a
100
AcDbEntity
  8
Layer_1
 62
3
100
AcDbLine
 10
157.966430
 20
211.080028
 30
0.0
 11
158.171510
 21
210.552684
 31
0.0
  0
LINE
  5
36b
100
AcDbEntity
  8
Layer_1
 62
3
100
AcDbLine
 10
158.171510
 20
210.552684
 30
0.0
 11
158.298460
 21
210.466747
 31
0.0
  0
LINE
  5
36c
100
AcDbEntity
  8
Layer_1
 62
3
100
AcDbLine
 10
158.298460
 20
210.466747
 30
0.0
 11
158.345340
 21
210.443309
 31
0.0
  0
LINE
  5
36d
100
AcDbEntity
  8
Layer_1
 62
3
100
AcDbLine
 10
158.345340
 20
210.443309
 30
0.0
 11
159.067990
 21
209.892528
 31
0.0
  0
LINE
  5
36e
100
AcDbEntity
  8
Layer_1
 62
3
100
AcDbLine
 10
159.067990
 20
209.892528
 30
0.0
 11
159.085570
 21
209.872997
 31
0.0
  0
LINE
  5
36f
100
AcDbEntity
  8
Layer_1
 62
3
100
AcDbLine
 10
159.085570
 20
209.872997
 30
0.0
 11
159.101200
 21
209.867138
 31
0.0
  0
LINE
  5
370
100
AcDbEntity
  8
Layer_1
 62
3
100
AcDbLine
 10
159.101200
 20
209.867138
 30
0.0
 11
159.110960
 21
209.859325
 31
0.0
  0
LINE
  5
371
100
AcDbEntity
  8
Layer_1
 62
3
100
AcDbLine
 10
159.110960
 20
209.859325
 30
0.0
 11
159.112910
 21
209.863231
 31
0.0
  0
LINE
  5
372
100
AcDbEntity
  8
Layer_1
 62
3
100
AcDbLine
 10
159.112910
 20
209.863231
 30
0.0
 11
159.612910
 21
209.673778
 31
0.0
  0
LINE
  5
373
100
AcDbEntity
  8
Layer_1
 62
3
100
AcDbLine
 10
159.612910
 20
209.673778
 30
0.0
 11
160.079710
 21
209.992138
 31
0.0
  0
LINE
  5
374
100
AcDbEntity
  8
Layer_1
 62
3
100
AcDbLine
 10
160.079710
 20
209.992138
 30
0.0
 11
160.083620
 21
210.556591
 31
0.0
  0
LINE
  5
375
100
AcDbEntity
  8
Layer_1
 62
3
100
AcDbLine
 10
160.083620
 20
210.556591
 30
0.0
 11
159.995730
 21
210.683544
 31
0.0
  0
LINE
  5
376
100
AcDbEntity
  8
Layer_1
 62
3
100
AcDbLine
 10
159.995730
 20
210.683544
 30
0.0
 11
159.935180
 21
210.751903
 31
0.0
  0
LINE
  5
377
100
AcDbEntity
  8
Layer_1
 62
3
100
AcDbLine
 10
159.935180
 20
210.751903
 30
0.0
 11
159.896120
 21
210.794872
 31
0.0
  0
LINE
  5
378
100
AcDbEntity
  8
Layer_1
 62
3
100
AcDbLine
 10
159.896120
 20
210.794872
 30
0.0
 11
159.849240
 21
210.830028
 31
0.0
  0
LINE
  5
379
100
AcDbEntity
  8
Layer_1
 62
3
100
AcDbLine
 10
159.849240
 20
210.830028
 30
0.0
 11
159.034790
 21
211.451122
 31
0.0
  0
LINE
  5
37a
100
AcDbEntity
  8
Layer_1
 62
3
100
AcDbLine
 10
159.034790
 20
211.451122
 30
0.0
 11
158.989870
 21
211.486278
 31
0.0
  0
LINE
  5
37b
100
AcDbEntity
  8
Layer_1
 62
3
100
AcDbLine
 10
158.989870
 20
211.486278
 30
0.0
 11
158.939090
 21
211.511669
 31
0.0
  0
LINE
  5
37c
100
AcDbEntity
  8
Layer_1
 62
3
100
AcDbLine
 10
158.939090
 20
211.511669
 30
0.0
 11
158.845340
 21
211.558544
 31
0.0
  0
LINE
  5
37d
100
AcDbEntity
  8
Layer_1
 62
3
100
AcDbLine
 10
158.845340
 20
211.558544
 30
0.0
 11
158.280880
 21
211.548778
 31
0.0
  0
LINE
  5
37e
100
AcDbEntity
  8
Layer_1
 62
3
100
AcDbLine
 10
91.441040
 20
211.126903
 30
0.0
 11
91.052370
 21
210.830028
 31
0.0
  0
LINE
  5
37f
100
AcDbEntity
  8
Layer_1
 62
3
100
AcDbLine
 10
91.052370
 20
210.830028
 30
0.0
 11
91.005490
 21
210.794872
 31
0.0
  0
LINE
  5
380
100
AcDbEntity
  8
Layer_1
 62
3
100
AcDbLine
 10
91.005490
 20
210.794872
 30
0.0
 11
90.966430
 21
210.751903
 31
0.0
  0
LINE
  5
381
100
AcDbEntity
  8
Layer_1
 62
3
100
AcDbLine
 10
90.966430
 20
210.751903
 30
0.0
 11
90.480100
 21
210.206981
 31
0.0
  0
LINE
  5
382
100
AcDbEntity
  8
Layer_1
 62
3
100
AcDbLine
 10
90.480100
 20
210.206981
 30
0.0
 11
90.343380
 21
209.660106
 31
0.0
  0
LINE
  5
383
100
AcDbEntity
  8
Layer_1
 62
3
100
AcDbLine
 10
90.343380
 20
209.660106
 30
0.0
 11
90.712520
 21
209.234325
 31
0.0
  0
LINE
  5
384
100
AcDbEntity
  8
Layer_1
 62
3
100
AcDbLine
 10
90.712520
 20
209.234325
 30
0.0
 11
91.273070
 21
209.294872
 31
0.0
  0
LINE
  5
385
100
AcDbEntity
  8
Layer_1
 62
3
100
AcDbLine
 10
91.273070
 20
209.294872
 30
0.0
 11
91.390260
 21
209.394481
 31
0.0
  0
LINE
  5
386
100
AcDbEntity
  8
Layer_1
 62
3
100
AcDbLine
 10
91.390260
 20
209.394481
 30
0.0
 11
91.835570
 21
209.894481
 31
0.0
  0
LINE
  5
387
100
AcDbEntity
  8
Layer_1
 62
3
100
AcDbLine
 10
91.835570
 20
209.894481
 30
0.0
 11
92.181270
 21
210.156200
 31
0.0
  0
LINE
  5
388
100
AcDbEntity
  8
Layer_1
 62
3
100
AcDbLine
 10
92.181270
 20
210.156200
 30
0.0
 11
92.419560
 21
210.667919
 31
0.0
  0
LINE
  5
389
100
AcDbEntity
  8
Layer_1
 62
3
100
AcDbLine
 10
92.419560
 20
210.667919
 30
0.0
 11
92.138310
 21
211.156200
 31
0.0
  0
LINE
  5
38a
100
AcDbEntity
  8
Layer_1
 62
3
100
AcDbLine
 10
92.138310
 20
211.156200
 30
0.0
 11
91.575810
 21
211.205028
 31
0.0
  0
LINE
  5
38b
100
AcDbEntity
  8
Layer_1
 62
3
100
AcDbLine
 10
91.575810
 20
211.205028
 30
0.0
 11
91.441040
 21
211.126903
 31
0.0
  0
LINE
  5
38c
100
AcDbEntity
  8
Layer_1
 62
3
100
AcDbLine
 10
160.476200
 20
207.173778
 30
0.0
 11
160.466430
 21
207.019478
 31
0.0
  0
LINE
  5
38d
100
AcDbEntity
  8
Layer_1
 62
3
100
AcDbLine
 10
160.466430
 20
207.019478
 30
0.0
 11
160.482060
 21
206.708938
 31
0.0
  0
LINE
  5
38e
100
AcDbEntity
  8
Layer_1
 62
3
100
AcDbLine
 10
160.482060
 20
206.708938
 30
0.0
 11
160.482060
 21
205.833928
 31
0.0
  0
LINE
  5
38f
100
AcDbEntity
  8
Layer_1
 62
3
100
AcDbLine
 10
160.482060
 20
205.833928
 30
0.0
 11
160.743770
 21
205.333928
 31
0.0
  0
LINE
  5
390
100
AcDbEntity
  8
Layer_1
 62
3
100
AcDbLine
 10
160.743770
 20
205.333928
 30
0.0
 11
161.302370
 21
205.263618
 31
0.0
  0
LINE
  5
391
100
AcDbEntity
  8
Layer_1
 62
3
100
AcDbLine
 10
161.302370
 20
205.263618
 30
0.0
 11
161.681270
 21
205.681588
 31
0.0
  0
LINE
  5
392
100
AcDbEntity
  8
Layer_1
 62
3
100
AcDbLine
 10
161.681270
 20
205.681588
 30
0.0
 11
161.700810
 21
205.833928
 31
0.0
  0
LINE
  5
393
100
AcDbEntity
  8
Layer_1
 62
3
100
AcDbLine
 10
161.700810
 20
205.833928
 30
0.0
 11
161.700810
 21
206.742138
 31
0.0
  0
LINE
  5
394
100
AcDbEntity
  8
Layer_1
 62
3
100
AcDbLine
 10
161.700810
 20
206.742138
 30
0.0
 11
161.700810
 21
206.757758
 31
0.0
  0
LINE
  5
395
100
AcDbEntity
  8
Layer_1
 62
3
100
AcDbLine
 10
161.700810
 20
206.757758
 30
0.0
 11
161.700810
 21
206.775338
 31
0.0
  0
LINE
  5
396
100
AcDbEntity
  8
Layer_1
 62
3
100
AcDbLine
 10
161.700810
 20
206.775338
 30
0.0
 11
161.683230
 21
207.085888
 31
0.0
  0
LINE
  5
397
100
AcDbEntity
  8
Layer_1
 62
3
100
AcDbLine
 10
161.683230
 20
207.085888
 30
0.0
 11
161.394170
 21
207.572216
 31
0.0
  0
LINE
  5
398
100
AcDbEntity
  8
Layer_1
 62
3
100
AcDbLine
 10
161.394170
 20
207.572216
 30
0.0
 11
160.831670
 21
207.613231
 31
0.0
  0
LINE
  5
399
100
AcDbEntity
  8
Layer_1
 62
3
100
AcDbLine
 10
160.831670
 20
207.613231
 30
0.0
 11
160.476200
 21
207.173778
 31
0.0
  0
LINE
  5
39a
100
AcDbEntity
  8
Layer_1
 62
3
100
AcDbLine
 10
89.220340
 20
206.568308
 30
0.0
 11
89.200810
 21
206.414008
 31
0.0
  0
LINE
  5
39b
100
AcDbEntity
  8
Layer_1
 62
3
100
AcDbLine
 10
89.200810
 20
206.414008
 30
0.0
 11
89.200810
 21
205.195258
 31
0.0
  0
LINE
  5
39c
100
AcDbEntity
  8
Layer_1
 62
3
100
AcDbLine
 10
89.200810
 20
205.195258
 30
0.0
 11
89.462520
 21
204.695258
 31
0.0
  0
LINE
  5
39d
100
AcDbEntity
  8
Layer_1
 62
3
100
AcDbLine
 10
89.462520
 20
204.695258
 30
0.0
 11
90.021120
 21
204.622998
 31
0.0
  0
LINE
  5
39e
100
AcDbEntity
  8
Layer_1
 62
3
100
AcDbLine
 10
90.021120
 20
204.622998
 30
0.0
 11
90.400020
 21
205.042918
 31
0.0
  0
LINE
  5
39f
100
AcDbEntity
  8
Layer_1
 62
3
100
AcDbLine
 10
90.400020
 20
205.042918
 30
0.0
 11
90.419560
 21
205.195258
 31
0.0
  0
LINE
  5
3a0
100
AcDbEntity
  8
Layer_1
 62
3
100
AcDbLine
 10
90.419560
 20
205.195258
 30
0.0
 11
90.419560
 21
206.414008
 31
0.0
  0
LINE
  5
3a1
100
AcDbEntity
  8
Layer_1
 62
3
100
AcDbLine
 10
90.419560
 20
206.414008
 30
0.0
 11
90.157840
 21
206.914008
 31
0.0
  0
LINE
  5
3a2
100
AcDbEntity
  8
Layer_1
 62
3
100
AcDbLine
 10
90.157840
 20
206.914008
 30
0.0
 11
89.599240
 21
206.986278
 31
0.0
  0
LINE
  5
3a3
100
AcDbEntity
  8
Layer_1
 62
3
100
AcDbLine
 10
89.599240
 20
206.986278
 30
0.0
 11
89.220340
 21
206.568308
 31
0.0
  0
LINE
  5
3a4
100
AcDbEntity
  8
Layer_1
 62
3
100
AcDbLine
 10
160.501590
 20
202.330028
 30
0.0
 11
160.482060
 21
202.177678
 31
0.0
  0
LINE
  5
3a5
100
AcDbEntity
  8
Layer_1
 62
3
100
AcDbLine
 10
160.482060
 20
202.177678
 30
0.0
 11
160.482060
 21
200.956978
 31
0.0
  0
LINE
  5
3a6
100
AcDbEntity
  8
Layer_1
 62
3
100
AcDbLine
 10
160.482060
 20
200.956978
 30
0.0
 11
160.743770
 21
200.456978
 31
0.0
  0
LINE
  5
3a7
100
AcDbEntity
  8
Layer_1
 62
3
100
AcDbLine
 10
160.743770
 20
200.456978
 30
0.0
 11
161.302370
 21
200.386668
 31
0.0
  0
LINE
  5
3a8
100
AcDbEntity
  8
Layer_1
 62
3
100
AcDbLine
 10
161.302370
 20
200.386668
 30
0.0
 11
161.681270
 21
200.804638
 31
0.0
  0
LINE
  5
3a9
100
AcDbEntity
  8
Layer_1
 62
3
100
AcDbLine
 10
161.681270
 20
200.804638
 30
0.0
 11
161.700810
 21
200.956978
 31
0.0
  0
LINE
  5
3aa
100
AcDbEntity
  8
Layer_1
 62
3
100
AcDbLine
 10
161.700810
 20
200.956978
 30
0.0
 11
161.700810
 21
202.177678
 31
0.0
  0
LINE
  5
3ab
100
AcDbEntity
  8
Layer_1
 62
3
100
AcDbLine
 10
161.700810
 20
202.177678
 30
0.0
 11
161.439090
 21
202.677678
 31
0.0
  0
LINE
  5
3ac
100
AcDbEntity
  8
Layer_1
 62
3
100
AcDbLine
 10
161.439090
 20
202.677678
 30
0.0
 11
160.880490
 21
202.747998
 31
0.0
  0
LINE
  5
3ad
100
AcDbEntity
  8
Layer_1
 62
3
100
AcDbLine
 10
160.880490
 20
202.747998
 30
0.0
 11
160.501590
 21
202.330028
 31
0.0
  0
LINE
  5
3ae
100
AcDbEntity
  8
Layer_1
 62
3
100
AcDbLine
 10
89.220340
 20
201.691358
 30
0.0
 11
89.200810
 21
201.537058
 31
0.0
  0
LINE
  5
3af
100
AcDbEntity
  8
Layer_1
 62
3
100
AcDbLine
 10
89.200810
 20
201.537058
 30
0.0
 11
89.200810
 21
200.318308
 31
0.0
  0
LINE
  5
3b0
100
AcDbEntity
  8
Layer_1
 62
3
100
AcDbLine
 10
89.200810
 20
200.318308
 30
0.0
 11
89.462520
 21
199.818308
 31
0.0
  0
LINE
  5
3b1
100
AcDbEntity
  8
Layer_1
 62
3
100
AcDbLine
 10
89.462520
 20
199.818308
 30
0.0
 11
90.021120
 21
199.746038
 31
0.0
  0
LINE
  5
3b2
100
AcDbEntity
  8
Layer_1
 62
3
100
AcDbLine
 10
90.021120
 20
199.746038
 30
0.0
 11
90.400020
 21
200.165968
 31
0.0
  0
LINE
  5
3b3
100
AcDbEntity
  8
Layer_1
 62
3
100
AcDbLine
 10
90.400020
 20
200.165968
 30
0.0
 11
90.419560
 21
200.318308
 31
0.0
  0
LINE
  5
3b4
100
AcDbEntity
  8
Layer_1
 62
3
100
AcDbLine
 10
90.419560
 20
200.318308
 30
0.0
 11
90.419560
 21
201.537058
 31
0.0
  0
LINE
  5
3b5
100
AcDbEntity
  8
Layer_1
 62
3
100
AcDbLine
 10
90.419560
 20
201.537058
 30
0.0
 11
90.157840
 21
202.039008
 31
0.0
  0
LINE
  5
3b6
100
AcDbEntity
  8
Layer_1
 62
3
100
AcDbLine
 10
90.157840
 20
202.039008
 30
0.0
 11
89.599240
 21
202.109328
 31
0.0
  0
LINE
  5
3b7
100
AcDbEntity
  8
Layer_1
 62
3
100
AcDbLine
 10
89.599240
 20
202.109328
 30
0.0
 11
89.220340
 21
201.691358
 31
0.0
  0
LINE
  5
3b8
100
AcDbEntity
  8
Layer_1
 62
3
100
AcDbLine
 10
160.501590
 20
197.453068
 30
0.0
 11
160.482060
 21
197.300728
 31
0.0
  0
LINE
  5
3b9
100
AcDbEntity
  8
Layer_1
 62
3
100
AcDbLine
 10
160.482060
 20
197.300728
 30
0.0
 11
160.482060
 21
196.081978
 31
0.0
  0
LINE
  5
3ba
100
AcDbEntity
  8
Layer_1
 62
3
100
AcDbLine
 10
160.482060
 20
196.081978
 30
0.0
 11
160.743770
 21
195.580028
 31
0.0
  0
LINE
  5
3bb
100
AcDbEntity
  8
Layer_1
 62
3
100
AcDbLine
 10
160.743770
 20
195.580028
 30
0.0
 11
161.302370
 21
195.509718
 31
0.0
  0
LINE
  5
3bc
100
AcDbEntity
  8
Layer_1
 62
3
100
AcDbLine
 10
161.302370
 20
195.509718
 30
0.0
 11
161.681270
 21
195.927678
 31
0.0
  0
LINE
  5
3bd
100
AcDbEntity
  8
Layer_1
 62
3
100
AcDbLine
 10
161.681270
 20
195.927678
 30
0.0
 11
161.700810
 21
196.081978
 31
0.0
  0
LINE
  5
3be
100
AcDbEntity
  8
Layer_1
 62
3
100
AcDbLine
 10
161.700810
 20
196.081978
 30
0.0
 11
161.700810
 21
197.300728
 31
0.0
  0
LINE
  5
3bf
100
AcDbEntity
  8
Layer_1
 62
3
100
AcDbLine
 10
161.700810
 20
197.300728
 30
0.0
 11
161.439090
 21
197.800728
 31
0.0
  0
LINE
  5
3c0
100
AcDbEntity
  8
Layer_1
 62
3
100
AcDbLine
 10
161.439090
 20
197.800728
 30
0.0
 11
160.880490
 21
197.871038
 31
0.0
  0
LINE
  5
3c1
100
AcDbEntity
  8
Layer_1
 62
3
100
AcDbLine
 10
160.880490
 20
197.871038
 30
0.0
 11
160.501590
 21
197.453068
 31
0.0
  0
LINE
  5
3c2
100
AcDbEntity
  8
Layer_1
 62
3
100
AcDbLine
 10
89.220340
 20
196.814398
 30
0.0
 11
89.200810
 21
196.660108
 31
0.0
  0
LINE
  5
3c3
100
AcDbEntity
  8
Layer_1
 62
3
100
AcDbLine
 10
89.200810
 20
196.660108
 30
0.0
 11
89.200810
 21
195.441358
 31
0.0
  0
LINE
  5
3c4
100
AcDbEntity
  8
Layer_1
 62
3
100
AcDbLine
 10
89.200810
 20
195.441358
 30
0.0
 11
89.462520
 21
194.941358
 31
0.0
  0
LINE
  5
3c5
100
AcDbEntity
  8
Layer_1
 62
3
100
AcDbLine
 10
89.462520
 20
194.941358
 30
0.0
 11
90.021120
 21
194.871038
 31
0.0
  0
LINE
  5
3c6
100
AcDbEntity
  8
Layer_1
 62
3
100
AcDbLine
 10
90.021120
 20
194.871038
 30
0.0
 11
90.400020
 21
195.289008
 31
0.0
  0
LINE
  5
3c7
100
AcDbEntity
  8
Layer_1
 62
3
100
AcDbLine
 10
90.400020
 20
195.289008
 30
0.0
 11
90.419560
 21
195.441358
 31
0.0
  0
LINE
  5
3c8
100
AcDbEntity
  8
Layer_1
 62
3
100
AcDbLine
 10
90.419560
 20
195.441358
 30
0.0
 11
90.419560
 21
196.660108
 31
0.0
  0
LINE
  5
3c9
100
AcDbEntity
  8
Layer_1
 62
3
100
AcDbLine
 10
90.419560
 20
196.660108
 30
0.0
 11
90.157840
 21
197.162058
 31
0.0
  0
LINE
  5
3ca
100
AcDbEntity
  8
Layer_1
 62
3
100
AcDbLine
 10
90.157840
 20
197.162058
 30
0.0
 11
89.599240
 21
197.232368
 31
0.0
  0
LINE
  5
3cb
100
AcDbEntity
  8
Layer_1
 62
3
100
AcDbLine
 10
89.599240
 20
197.232368
 30
0.0
 11
89.220340
 21
196.814398
 31
0.0
  0
LINE
  5
3cc
100
AcDbEntity
  8
Layer_1
 62
3
100
AcDbLine
 10
160.501590
 20
192.576118
 30
0.0
 11
160.482060
 21
192.423778
 31
0.0
  0
LINE
  5
3cd
100
AcDbEntity
  8
Layer_1
 62
3
100
AcDbLine
 10
160.482060
 20
192.423778
 30
0.0
 11
160.482060
 21
191.205028
 31
0.0
  0
LINE
  5
3ce
100
AcDbEntity
  8
Layer_1
 62
3
100
AcDbLine
 10
160.482060
 20
191.205028
 30
0.0
 11
160.743770
 21
190.703068
 31
0.0
  0
LINE
  5
3cf
100
AcDbEntity
  8
Layer_1
 62
3
100
AcDbLine
 10
160.743770
 20
190.703068
 30
0.0
 11
161.302370
 21
190.632758
 31
0.0
  0
LINE
  5
3d0
100
AcDbEntity
  8
Layer_1
 62
3
100
AcDbLine
 10
161.302370
 20
190.632758
 30
0.0
 11
161.681270
 21
191.050728
 31
0.0
  0
LINE
  5
3d1
100
AcDbEntity
  8
Layer_1
 62
3
100
AcDbLine
 10
161.681270
 20
191.050728
 30
0.0
 11
161.700810
 21
191.205028
 31
0.0
  0
LINE
  5
3d2
100
AcDbEntity
  8
Layer_1
 62
3
100
AcDbLine
 10
161.700810
 20
191.205028
 30
0.0
 11
161.700810
 21
192.423778
 31
0.0
  0
LINE
  5
3d3
100
AcDbEntity
  8
Layer_1
 62
3
100
AcDbLine
 10
161.700810
 20
192.423778
 30
0.0
 11
161.439090
 21
192.923778
 31
0.0
  0
LINE
  5
3d4
100
AcDbEntity
  8
Layer_1
 62
3
100
AcDbLine
 10
161.439090
 20
192.923778
 30
0.0
 11
160.880490
 21
192.996038
 31
0.0
  0
LINE
  5
3d5
100
AcDbEntity
  8
Layer_1
 62
3
100
AcDbLine
 10
160.880490
 20
192.996038
 30
0.0
 11
160.501590
 21
192.576118
 31
0.0
  0
LINE
  5
3d6
100
AcDbEntity
  8
Layer_1
 62
3
100
AcDbLine
 10
89.220340
 20
191.937448
 30
0.0
 11
89.200810
 21
191.785108
 31
0.0
  0
LINE
  5
3d7
100
AcDbEntity
  8
Layer_1
 62
3
100
AcDbLine
 10
89.200810
 20
191.785108
 30
0.0
 11
89.200810
 21
190.564398
 31
0.0
  0
LINE
  5
3d8
100
AcDbEntity
  8
Layer_1
 62
3
100
AcDbLine
 10
89.200810
 20
190.564398
 30
0.0
 11
89.462520
 21
190.064398
 31
0.0
  0
LINE
  5
3d9
100
AcDbEntity
  8
Layer_1
 62
3
100
AcDbLine
 10
89.462520
 20
190.064398
 30
0.0
 11
90.021120
 21
189.994088
 31
0.0
  0
LINE
  5
3da
100
AcDbEntity
  8
Layer_1
 62
3
100
AcDbLine
 10
90.021120
 20
189.994088
 30
0.0
 11
90.400020
 21
190.412058
 31
0.0
  0
LINE
  5
3db
100
AcDbEntity
  8
Layer_1
 62
3
100
AcDbLine
 10
90.400020
 20
190.412058
 30
0.0
 11
90.419560
 21
190.564398
 31
0.0
  0
LINE
  5
3dc
100
AcDbEntity
  8
Layer_1
 62
3
100
AcDbLine
 10
90.419560
 20
190.564398
 30
0.0
 11
90.419560
 21
191.785108
 31
0.0
  0
LINE
  5
3dd
100
AcDbEntity
  8
Layer_1
 62
3
100
AcDbLine
 10
90.419560
 20
191.785108
 30
0.0
 11
90.157840
 21
192.285108
 31
0.0
  0
LINE
  5
3de
100
AcDbEntity
  8
Layer_1
 62
3
100
AcDbLine
 10
90.157840
 20
192.285108
 30
0.0
 11
89.599240
 21
192.355418
 31
0.0
  0
LINE
  5
3df
100
AcDbEntity
  8
Layer_1
 62
3
100
AcDbLine
 10
89.599240
 20
192.355418
 30
0.0
 11
89.220340
 21
191.937448
 31
0.0
  0
LINE
  5
3e0
100
AcDbEntity
  8
Layer_1
 62
3
100
AcDbLine
 10
160.501590
 20
187.699168
 30
0.0
 11
160.482060
 21
187.546828
 31
0.0
  0
LINE
  5
3e1
100
AcDbEntity
  8
Layer_1
 62
3
100
AcDbLine
 10
160.482060
 20
187.546828
 30
0.0
 11
160.482060
 21
186.328068
 31
0.0
  0
LINE
  5
3e2
100
AcDbEntity
  8
Layer_1
 62
3
100
AcDbLine
 10
160.482060
 20
186.328068
 30
0.0
 11
160.743770
 21
185.828068
 31
0.0
  0
LINE
  5
3e3
100
AcDbEntity
  8
Layer_1
 62
3
100
AcDbLine
 10
160.743770
 20
185.828068
 30
0.0
 11
161.302370
 21
185.755808
 31
0.0
  0
LINE
  5
3e4
100
AcDbEntity
  8
Layer_1
 62
3
100
AcDbLine
 10
161.302370
 20
185.755808
 30
0.0
 11
161.681270
 21
186.173778
 31
0.0
  0
LINE
  5
3e5
100
AcDbEntity
  8
Layer_1
 62
3
100
AcDbLine
 10
161.681270
 20
186.173778
 30
0.0
 11
161.700810
 21
186.328068
 31
0.0
  0
LINE
  5
3e6
100
AcDbEntity
  8
Layer_1
 62
3
100
AcDbLine
 10
161.700810
 20
186.328068
 30
0.0
 11
161.700810
 21
187.546828
 31
0.0
  0
LINE
  5
3e7
100
AcDbEntity
  8
Layer_1
 62
3
100
AcDbLine
 10
161.700810
 20
187.546828
 30
0.0
 11
161.439090
 21
188.046828
 31
0.0
  0
LINE
  5
3e8
100
AcDbEntity
  8
Layer_1
 62
3
100
AcDbLine
 10
161.439090
 20
188.046828
 30
0.0
 11
160.880490
 21
188.119088
 31
0.0
  0
LINE
  5
3e9
100
AcDbEntity
  8
Layer_1
 62
3
100
AcDbLine
 10
160.880490
 20
188.119088
 30
0.0
 11
160.501590
 21
187.699168
 31
0.0
  0
LINE
  5
3ea
100
AcDbEntity
  8
Layer_1
 62
3
100
AcDbLine
 10
89.220340
 20
187.060498
 30
0.0
 11
89.200810
 21
186.908148
 31
0.0
  0
LINE
  5
3eb
100
AcDbEntity
  8
Layer_1
 62
3
100
AcDbLine
 10
89.200810
 20
186.908148
 30
0.0
 11
89.200810
 21
185.687448
 31
0.0
  0
LINE
  5
3ec
100
AcDbEntity
  8
Layer_1
 62
3
100
AcDbLine
 10
89.200810
 20
185.687448
 30
0.0
 11
89.462520
 21
185.187448
 31
0.0
  0
LINE
  5
3ed
100
AcDbEntity
  8
Layer_1
 62
3
100
AcDbLine
 10
89.462520
 20
185.187448
 30
0.0
 11
90.021120
 21
185.117138
 31
0.0
  0
LINE
  5
3ee
100
AcDbEntity
  8
Layer_1
 62
3
100
AcDbLine
 10
90.021120
 20
185.117138
 30
0.0
 11
90.400020
 21
185.535108
 31
0.0
  0
LINE
  5
3ef
100
AcDbEntity
  8
Layer_1
 62
3
100
AcDbLine
 10
90.400020
 20
185.535108
 30
0.0
 11
90.419560
 21
185.687448
 31
0.0
  0
LINE
  5
3f0
100
AcDbEntity
  8
Layer_1
 62
3
100
AcDbLine
 10
90.419560
 20
185.687448
 30
0.0
 11
90.419560
 21
186.908148
 31
0.0
  0
LINE
  5
3f1
100
AcDbEntity
  8
Layer_1
 62
3
100
AcDbLine
 10
90.419560
 20
186.908148
 30
0.0
 11
90.157840
 21
187.408148
 31
0.0
  0
LINE
  5
3f2
100
AcDbEntity
  8
Layer_1
 62
3
100
AcDbLine
 10
90.157840
 20
187.408148
 30
0.0
 11
89.599240
 21
187.478468
 31
0.0
  0
LINE
  5
3f3
100
AcDbEntity
  8
Layer_1
 62
3
100
AcDbLine
 10
89.599240
 20
187.478468
 30
0.0
 11
89.220340
 21
187.060498
 31
0.0
  0
LINE
  5
3f4
100
AcDbEntity
  8
Layer_1
 62
3
100
AcDbLine
 10
160.435180
 20
182.923778
 30
0.0
 11
160.392210
 21
182.775338
 31
0.0
  0
LINE
  5
3f5
100
AcDbEntity
  8
Layer_1
 62
3
100
AcDbLine
 10
160.392210
 20
182.775338
 30
0.0
 11
160.384400
 21
182.730418
 31
0.0
  0
LINE
  5
3f6
100
AcDbEntity
  8
Layer_1
 62
3
100
AcDbLine
 10
160.384400
 20
182.730418
 30
0.0
 11
160.269170
 21
182.310498
 31
0.0
  0
LINE
  5
3f7
100
AcDbEntity
  8
Layer_1
 62
3
100
AcDbLine
 10
160.269170
 20
182.310498
 30
0.0
 11
160.107060
 21
181.894478
 31
0.0
  0
LINE
  5
3f8
100
AcDbEntity
  8
Layer_1
 62
3
100
AcDbLine
 10
160.107060
 20
181.894478
 30
0.0
 11
160.060180
 21
181.806588
 31
0.0
  0
LINE
  5
3f9
100
AcDbEntity
  8
Layer_1
 62
3
100
AcDbLine
 10
160.060180
 20
181.806588
 30
0.0
 11
160.062130
 21
181.242138
 31
0.0
  0
LINE
  5
3fa
100
AcDbEntity
  8
Layer_1
 62
3
100
AcDbLine
 10
160.062130
 20
181.242138
 30
0.0
 11
160.525020
 21
180.921828
 31
0.0
  0
LINE
  5
3fb
100
AcDbEntity
  8
Layer_1
 62
3
100
AcDbLine
 10
160.525020
 20
180.921828
 30
0.0
 11
161.054320
 21
181.117138
 31
0.0
  0
LINE
  5
3fc
100
AcDbEntity
  8
Layer_1
 62
3
100
AcDbLine
 10
161.054320
 20
181.117138
 30
0.0
 11
161.142210
 21
181.244088
 31
0.0
  0
LINE
  5
3fd
100
AcDbEntity
  8
Layer_1
 62
3
100
AcDbLine
 10
161.142210
 20
181.244088
 30
0.0
 11
161.200810
 21
181.355418
 31
0.0
  0
LINE
  5
3fe
100
AcDbEntity
  8
Layer_1
 62
3
100
AcDbLine
 10
161.200810
 20
181.355418
 30
0.0
 11
161.214480
 21
181.384718
 31
0.0
  0
LINE
  5
3ff
100
AcDbEntity
  8
Layer_1
 62
3
100
AcDbLine
 10
161.214480
 20
181.384718
 30
0.0
 11
161.226200
 21
181.414008
 31
0.0
  0
LINE
  5
400
100
AcDbEntity
  8
Layer_1
 62
3
100
AcDbLine
 10
161.226200
 20
181.414008
 30
0.0
 11
161.411740
 21
181.880808
 31
0.0
  0
LINE
  5
401
100
AcDbEntity
  8
Layer_1
 62
3
100
AcDbLine
 10
161.411740
 20
181.880808
 30
0.0
 11
161.423460
 21
181.912058
 31
0.0
  0
LINE
  5
402
100
AcDbEntity
  8
Layer_1
 62
3
100
AcDbLine
 10
161.423460
 20
181.912058
 30
0.0
 11
161.431270
 21
181.943308
 31
0.0
  0
LINE
  5
403
100
AcDbEntity
  8
Layer_1
 62
3
100
AcDbLine
 10
161.431270
 20
181.943308
 30
0.0
 11
161.567990
 21
182.431588
 31
0.0
  0
LINE
  5
404
100
AcDbEntity
  8
Layer_1
 62
3
100
AcDbLine
 10
161.567990
 20
182.431588
 30
0.0
 11
161.575810
 21
182.462838
 31
0.0
  0
LINE
  5
405
100
AcDbEntity
  8
Layer_1
 62
3
100
AcDbLine
 10
161.575810
 20
182.462838
 30
0.0
 11
161.581670
 21
182.496038
 31
0.0
  0
LINE
  5
406
100
AcDbEntity
  8
Layer_1
 62
3
100
AcDbLine
 10
161.581670
 20
182.496038
 30
0.0
 11
161.595340
 21
182.578068
 31
0.0
  0
LINE
  5
407
100
AcDbEntity
  8
Layer_1
 62
3
100
AcDbLine
 10
161.595340
 20
182.578068
 30
0.0
 11
161.417600
 21
183.113228
 31
0.0
  0
LINE
  5
408
100
AcDbEntity
  8
Layer_1
 62
3
100
AcDbLine
 10
161.417600
 20
183.113228
 30
0.0
 11
160.876590
 21
183.275338
 31
0.0
  0
LINE
  5
409
100
AcDbEntity
  8
Layer_1
 62
3
100
AcDbLine
 10
160.876590
 20
183.275338
 30
0.0
 11
160.435180
 21
182.923778
 31
0.0
  0
LINE
  5
40a
100
AcDbEntity
  8
Layer_1
 62
3
100
AcDbLine
 10
89.669560
 20
182.513618
 30
0.0
 11
89.470340
 21
181.986278
 31
0.0
  0
LINE
  5
40b
100
AcDbEntity
  8
Layer_1
 62
3
100
AcDbLine
 10
89.470340
 20
181.986278
 30
0.0
 11
89.507450
 21
181.835888
 31
0.0
  0
LINE
  5
40c
100
AcDbEntity
  8
Layer_1
 62
3
100
AcDbLine
 10
89.507450
 20
181.835888
 30
0.0
 11
89.675410
 21
181.414008
 31
0.0
  0
LINE
  5
40d
100
AcDbEntity
  8
Layer_1
 62
3
100
AcDbLine
 10
89.675410
 20
181.414008
 30
0.0
 11
89.687130
 21
181.384718
 31
0.0
  0
LINE
  5
40e
100
AcDbEntity
  8
Layer_1
 62
3
100
AcDbLine
 10
89.687130
 20
181.384718
 30
0.0
 11
89.700810
 21
181.355418
 31
0.0
  0
LINE
  5
40f
100
AcDbEntity
  8
Layer_1
 62
3
100
AcDbLine
 10
89.700810
 20
181.355418
 30
0.0
 11
89.933230
 21
180.910108
 31
0.0
  0
LINE
  5
410
100
AcDbEntity
  8
Layer_1
 62
3
100
AcDbLine
 10
89.933230
 20
180.910108
 30
0.0
 11
89.946900
 21
180.882758
 31
0.0
  0
LINE
  5
411
100
AcDbEntity
  8
Layer_1
 62
3
100
AcDbLine
 10
89.946900
 20
180.882758
 30
0.0
 11
89.964480
 21
180.857368
 31
0.0
  0
LINE
  5
412
100
AcDbEntity
  8
Layer_1
 62
3
100
AcDbLine
 10
89.964480
 20
180.857368
 30
0.0
 11
90.109010
 21
180.638618
 31
0.0
  0
LINE
  5
413
100
AcDbEntity
  8
Layer_1
 62
3
100
AcDbLine
 10
90.109010
 20
180.638618
 30
0.0
 11
90.601200
 21
180.363228
 31
0.0
  0
LINE
  5
414
100
AcDbEntity
  8
Layer_1
 62
3
100
AcDbLine
 10
90.601200
 20
180.363228
 30
0.0
 11
91.109010
 21
180.609328
 31
0.0
  0
LINE
  5
415
100
AcDbEntity
  8
Layer_1
 62
3
100
AcDbLine
 10
91.109010
 20
180.609328
 30
0.0
 11
91.194950
 21
181.167918
 31
0.0
  0
LINE
  5
416
100
AcDbEntity
  8
Layer_1
 62
3
100
AcDbLine
 10
91.194950
 20
181.167918
 30
0.0
 11
91.128540
 21
181.306588
 31
0.0
  0
LINE
  5
417
100
AcDbEntity
  8
Layer_1
 62
3
100
AcDbLine
 10
91.128540
 20
181.306588
 30
0.0
 11
90.997680
 21
181.507758
 31
0.0
  0
LINE
  5
418
100
AcDbEntity
  8
Layer_1
 62
3
100
AcDbLine
 10
90.997680
 20
181.507758
 30
0.0
 11
90.802370
 21
181.878858
 31
0.0
  0
LINE
  5
419
100
AcDbEntity
  8
Layer_1
 62
3
100
AcDbLine
 10
90.802370
 20
181.878858
 30
0.0
 11
90.642210
 21
182.283148
 31
0.0
  0
LINE
  5
41a
100
AcDbEntity
  8
Layer_1
 62
3
100
AcDbLine
 10
90.642210
 20
182.283148
 30
0.0
 11
90.216430
 21
182.652288
 31
0.0
  0
LINE
  5
41b
100
AcDbEntity
  8
Layer_1
 62
3
100
AcDbLine
 10
90.216430
 20
182.652288
 30
0.0
 11
89.669560
 21
182.513618
 31
0.0
  0
LINE
  5
41c
100
AcDbEntity
  8
Layer_1
 62
3
100
AcDbLine
 10
157.726200
 20
179.609328
 30
0.0
 11
157.499630
 21
179.496038
 31
0.0
  0
LINE
  5
41d
100
AcDbEntity
  8
Layer_1
 62
3
100
AcDbLine
 10
157.499630
 20
179.496038
 30
0.0
 11
157.052370
 21
179.345648
 31
0.0
  0
LINE
  5
41e
100
AcDbEntity
  8
Layer_1
 62
3
100
AcDbLine
 10
157.052370
 20
179.345648
 30
0.0
 11
156.708620
 21
179.263618
 31
0.0
  0
LINE
  5
41f
100
AcDbEntity
  8
Layer_1
 62
3
100
AcDbLine
 10
156.708620
 20
179.263618
 30
0.0
 11
156.282840
 21
178.894478
 31
0.0
  0
LINE
  5
420
100
AcDbEntity
  8
Layer_1
 62
3
100
AcDbLine
 10
156.282840
 20
178.894478
 30
0.0
 11
156.341430
 21
178.333928
 31
0.0
  0
LINE
  5
421
100
AcDbEntity
  8
Layer_1
 62
3
100
AcDbLine
 10
156.341430
 20
178.333928
 30
0.0
 11
156.835570
 21
178.062448
 31
0.0
  0
LINE
  5
422
100
AcDbEntity
  8
Layer_1
 62
3
100
AcDbLine
 10
156.835570
 20
178.062448
 30
0.0
 11
156.989870
 21
178.078068
 31
0.0
  0
LINE
  5
423
100
AcDbEntity
  8
Layer_1
 62
3
100
AcDbLine
 10
156.989870
 20
178.078068
 30
0.0
 11
157.362910
 21
178.165968
 31
0.0
  0
LINE
  5
424
100
AcDbEntity
  8
Layer_1
 62
3
100
AcDbLine
 10
157.362910
 20
178.165968
 30
0.0
 11
157.390260
 21
178.171828
 31
0.0
  0
LINE
  5
425
100
AcDbEntity
  8
Layer_1
 62
3
100
AcDbLine
 10
157.390260
 20
178.171828
 30
0.0
 11
157.417600
 21
178.181588
 31
0.0
  0
LINE
  5
426
100
AcDbEntity
  8
Layer_1
 62
3
100
AcDbLine
 10
157.417600
 20
178.181588
 30
0.0
 11
157.923460
 21
178.351508
 31
0.0
  0
LINE
  5
427
100
AcDbEntity
  8
Layer_1
 62
3
100
AcDbLine
 10
157.923460
 20
178.351508
 30
0.0
 11
157.964480
 21
178.365178
 31
0.0
  0
LINE
  5
428
100
AcDbEntity
  8
Layer_1
 62
3
100
AcDbLine
 10
157.964480
 20
178.365178
 30
0.0
 11
158.001590
 21
178.384718
 31
0.0
  0
LINE
  5
429
100
AcDbEntity
  8
Layer_1
 62
3
100
AcDbLine
 10
158.001590
 20
178.384718
 30
0.0
 11
158.271120
 21
178.519478
 31
0.0
  0
LINE
  5
42a
100
AcDbEntity
  8
Layer_1
 62
3
100
AcDbLine
 10
158.271120
 20
178.519478
 30
0.0
 11
158.601200
 21
178.976508
 31
0.0
  0
LINE
  5
42b
100
AcDbEntity
  8
Layer_1
 62
3
100
AcDbLine
 10
158.601200
 20
178.976508
 30
0.0
 11
158.415650
 21
179.509718
 31
0.0
  0
LINE
  5
42c
100
AcDbEntity
  8
Layer_1
 62
3
100
AcDbLine
 10
158.415650
 20
179.509718
 30
0.0
 11
157.872680
 21
179.662058
 31
0.0
  0
LINE
  5
42d
100
AcDbEntity
  8
Layer_1
 62
3
100
AcDbLine
 10
157.872680
 20
179.662058
 30
0.0
 11
157.726200
 21
179.609328
 31
0.0
  0
LINE
  5
42e
100
AcDbEntity
  8
Layer_1
 62
3
100
AcDbLine
 10
93.130490
 20
179.312448
 30
0.0
 11
92.882450
 21
178.804638
 31
0.0
  0
LINE
  5
42f
100
AcDbEntity
  8
Layer_1
 62
3
100
AcDbLine
 10
92.882450
 20
178.804638
 30
0.0
 11
93.159790
 21
178.312448
 31
0.0
  0
LINE
  5
430
100
AcDbEntity
  8
Layer_1
 62
3
100
AcDbLine
 10
93.159790
 20
178.312448
 30
0.0
 11
93.298460
 21
178.244088
 31
0.0
  0
LINE
  5
431
100
AcDbEntity
  8
Layer_1
 62
3
100
AcDbLine
 10
93.298460
 20
178.244088
 30
0.0
 11
93.484010
 21
178.181588
 31
0.0
  0
LINE
  5
432
100
AcDbEntity
  8
Layer_1
 62
3
100
AcDbLine
 10
93.484010
 20
178.181588
 30
0.0
 11
93.511350
 21
178.171828
 31
0.0
  0
LINE
  5
433
100
AcDbEntity
  8
Layer_1
 62
3
100
AcDbLine
 10
93.511350
 20
178.171828
 30
0.0
 11
93.538700
 21
178.165968
 31
0.0
  0
LINE
  5
434
100
AcDbEntity
  8
Layer_1
 62
3
100
AcDbLine
 10
93.538700
 20
178.165968
 30
0.0
 11
94.067990
 21
178.040968
 31
0.0
  0
LINE
  5
435
100
AcDbEntity
  8
Layer_1
 62
3
100
AcDbLine
 10
94.067990
 20
178.040968
 30
0.0
 11
94.095340
 21
178.035108
 31
0.0
  0
LINE
  5
436
100
AcDbEntity
  8
Layer_1
 62
3
100
AcDbLine
 10
94.095340
 20
178.035108
 30
0.0
 11
94.122680
 21
178.031198
 31
0.0
  0
LINE
  5
437
100
AcDbEntity
  8
Layer_1
 62
3
100
AcDbLine
 10
94.122680
 20
178.031198
 30
0.0
 11
94.597290
 21
177.964788
 31
0.0
  0
LINE
  5
438
100
AcDbEntity
  8
Layer_1
 62
3
100
AcDbLine
 10
94.597290
 20
177.964788
 30
0.0
 11
95.128540
 21
178.154248
 31
0.0
  0
LINE
  5
439
100
AcDbEntity
  8
Layer_1
 62
3
100
AcDbLine
 10
95.128540
 20
178.154248
 30
0.0
 11
95.276980
 21
178.697218
 31
0.0
  0
LINE
  5
43a
100
AcDbEntity
  8
Layer_1
 62
3
100
AcDbLine
 10
95.276980
 20
178.697218
 30
0.0
 11
94.915650
 21
179.130808
 31
0.0
  0
LINE
  5
43b
100
AcDbEntity
  8
Layer_1
 62
3
100
AcDbLine
 10
94.915650
 20
179.130808
 30
0.0
 11
94.767210
 21
179.171828
 31
0.0
  0
LINE
  5
43c
100
AcDbEntity
  8
Layer_1
 62
3
100
AcDbLine
 10
94.767210
 20
179.171828
 30
0.0
 11
94.329710
 21
179.232368
 31
0.0
  0
LINE
  5
43d
100
AcDbEntity
  8
Layer_1
 62
3
100
AcDbLine
 10
94.329710
 20
179.232368
 30
0.0
 11
93.847290
 21
179.347608
 31
0.0
  0
LINE
  5
43e
100
AcDbEntity
  8
Layer_1
 62
3
100
AcDbLine
 10
93.847290
 20
179.347608
 30
0.0
 11
93.687130
 21
179.400338
 31
0.0
  0
LINE
  5
43f
100
AcDbEntity
  8
Layer_1
 62
3
100
AcDbLine
 10
93.687130
 20
179.400338
 30
0.0
 11
93.130490
 21
179.312448
 31
0.0
  0
LINE
  5
440
100
AcDbEntity
  8
Layer_1
 62
3
100
AcDbLine
 10
97.837520
 20
178.878858
 30
0.0
 11
97.767210
 21
178.320258
 31
0.0
  0
LINE
  5
441
100
AcDbEntity
  8
Layer_1
 62
3
100
AcDbLine
 10
97.767210
 20
178.320258
 30
0.0
 11
98.185180
 21
177.941358
 31
0.0
  0
LINE
  5
442
100
AcDbEntity
  8
Layer_1
 62
3
100
AcDbLine
 10
98.185180
 20
177.941358
 30
0.0
 11
98.337520
 21
177.921828
 31
0.0
  0
LINE
  5
443
100
AcDbEntity
  8
Layer_1
 62
3
100
AcDbLine
 10
98.337520
 20
177.921828
 30
0.0
 11
99.558230
 21
177.921828
 31
0.0
  0
LINE
  5
444
100
AcDbEntity
  8
Layer_1
 62
3
100
AcDbLine
 10
99.558230
 20
177.921828
 30
0.0
 11
100.058230
 21
178.183538
 31
0.0
  0
LINE
  5
445
100
AcDbEntity
  8
Layer_1
 62
3
100
AcDbLine
 10
100.058230
 20
178.183538
 30
0.0
 11
100.128540
 21
178.742138
 31
0.0
  0
LINE
  5
446
100
AcDbEntity
  8
Layer_1
 62
3
100
AcDbLine
 10
100.128540
 20
178.742138
 30
0.0
 11
99.710570
 21
179.121038
 31
0.0
  0
LINE
  5
447
100
AcDbEntity
  8
Layer_1
 62
3
100
AcDbLine
 10
99.710570
 20
179.121038
 30
0.0
 11
99.558230
 21
179.140568
 31
0.0
  0
LINE
  5
448
100
AcDbEntity
  8
Layer_1
 62
3
100
AcDbLine
 10
99.558230
 20
179.140568
 30
0.0
 11
98.337520
 21
179.140568
 31
0.0
  0
LINE
  5
449
100
AcDbEntity
  8
Layer_1
 62
3
100
AcDbLine
 10
98.337520
 20
179.140568
 30
0.0
 11
97.837520
 21
178.878858
 31
0.0
  0
LINE
  5
44a
100
AcDbEntity
  8
Layer_1
 62
3
100
AcDbLine
 10
102.714480
 20
178.878858
 30
0.0
 11
102.644170
 21
178.320258
 31
0.0
  0
LINE
  5
44b
100
AcDbEntity
  8
Layer_1
 62
3
100
AcDbLine
 10
102.644170
 20
178.320258
 30
0.0
 11
103.062130
 21
177.941358
 31
0.0
  0
LINE
  5
44c
100
AcDbEntity
  8
Layer_1
 62
3
100
AcDbLine
 10
103.062130
 20
177.941358
 30
0.0
 11
103.214480
 21
177.921828
 31
0.0
  0
LINE
  5
44d
100
AcDbEntity
  8
Layer_1
 62
3
100
AcDbLine
 10
103.214480
 20
177.921828
 30
0.0
 11
104.435180
 21
177.921828
 31
0.0
  0
LINE
  5
44e
100
AcDbEntity
  8
Layer_1
 62
3
100
AcDbLine
 10
104.435180
 20
177.921828
 30
0.0
 11
104.935180
 21
178.183538
 31
0.0
  0
LINE
  5
44f
100
AcDbEntity
  8
Layer_1
 62
3
100
AcDbLine
 10
104.935180
 20
178.183538
 30
0.0
 11
105.005490
 21
178.742138
 31
0.0
  0
LINE
  5
450
100
AcDbEntity
  8
Layer_1
 62
3
100
AcDbLine
 10
105.005490
 20
178.742138
 30
0.0
 11
104.587520
 21
179.121038
 31
0.0
  0
LINE
  5
451
100
AcDbEntity
  8
Layer_1
 62
3
100
AcDbLine
 10
104.587520
 20
179.121038
 30
0.0
 11
104.435180
 21
179.140568
 31
0.0
  0
LINE
  5
452
100
AcDbEntity
  8
Layer_1
 62
3
100
AcDbLine
 10
104.435180
 20
179.140568
 30
0.0
 11
103.214480
 21
179.140568
 31
0.0
  0
LINE
  5
453
100
AcDbEntity
  8
Layer_1
 62
3
100
AcDbLine
 10
103.214480
 20
179.140568
 30
0.0
 11
102.714480
 21
178.878858
 31
0.0
  0
LINE
  5
454
100
AcDbEntity
  8
Layer_1
 62
3
100
AcDbLine
 10
107.591430
 20
178.878858
 30
0.0
 11
107.521120
 21
178.320258
 31
0.0
  0
LINE
  5
455
100
AcDbEntity
  8
Layer_1
 62
3
100
AcDbLine
 10
107.521120
 20
178.320258
 30
0.0
 11
107.939090
 21
177.941358
 31
0.0
  0
LINE
  5
456
100
AcDbEntity
  8
Layer_1
 62
3
100
AcDbLine
 10
107.939090
 20
177.941358
 30
0.0
 11
108.091430
 21
177.921828
 31
0.0
  0
LINE
  5
457
100
AcDbEntity
  8
Layer_1
 62
3
100
AcDbLine
 10
108.091430
 20
177.921828
 30
0.0
 11
109.312130
 21
177.921828
 31
0.0
  0
LINE
  5
458
100
AcDbEntity
  8
Layer_1
 62
3
100
AcDbLine
 10
109.312130
 20
177.921828
 30
0.0
 11
109.812130
 21
178.183538
 31
0.0
  0
LINE
  5
459
100
AcDbEntity
  8
Layer_1
 62
3
100
AcDbLine
 10
109.812130
 20
178.183538
 30
0.0
 11
109.882450
 21
178.742138
 31
0.0
  0
LINE
  5
45a
100
AcDbEntity
  8
Layer_1
 62
3
100
AcDbLine
 10
109.882450
 20
178.742138
 30
0.0
 11
109.464480
 21
179.121038
 31
0.0
  0
LINE
  5
45b
100
AcDbEntity
  8
Layer_1
 62
3
100
AcDbLine
 10
109.464480
 20
179.121038
 30
0.0
 11
109.312130
 21
179.140568
 31
0.0
  0
LINE
  5
45c
100
AcDbEntity
  8
Layer_1
 62
3
100
AcDbLine
 10
109.312130
 20
179.140568
 30
0.0
 11
108.091430
 21
179.140568
 31
0.0
  0
LINE
  5
45d
100
AcDbEntity
  8
Layer_1
 62
3
100
AcDbLine
 10
108.091430
 20
179.140568
 30
0.0
 11
107.591430
 21
178.878858
 31
0.0
  0
LINE
  5
45e
100
AcDbEntity
  8
Layer_1
 62
3
100
AcDbLine
 10
112.468380
 20
178.878858
 30
0.0
 11
112.398070
 21
178.320258
 31
0.0
  0
LINE
  5
45f
100
AcDbEntity
  8
Layer_1
 62
3
100
AcDbLine
 10
112.398070
 20
178.320258
 30
0.0
 11
112.816040
 21
177.941358
 31
0.0
  0
LINE
  5
460
100
AcDbEntity
  8
Layer_1
 62
3
100
AcDbLine
 10
112.816040
 20
177.941358
 30
0.0
 11
112.968380
 21
177.921828
 31
0.0
  0
LINE
  5
461
100
AcDbEntity
  8
Layer_1
 62
3
100
AcDbLine
 10
112.968380
 20
177.921828
 30
0.0
 11
114.187130
 21
177.921828
 31
0.0
  0
LINE
  5
462
100
AcDbEntity
  8
Layer_1
 62
3
100
AcDbLine
 10
114.187130
 20
177.921828
 30
0.0
 11
114.689090
 21
178.183538
 31
0.0
  0
LINE
  5
463
100
AcDbEntity
  8
Layer_1
 62
3
100
AcDbLine
 10
114.689090
 20
178.183538
 30
0.0
 11
114.759400
 21
178.742138
 31
0.0
  0
LINE
  5
464
100
AcDbEntity
  8
Layer_1
 62
3
100
AcDbLine
 10
114.759400
 20
178.742138
 30
0.0
 11
114.341430
 21
179.121038
 31
0.0
  0
LINE
  5
465
100
AcDbEntity
  8
Layer_1
 62
3
100
AcDbLine
 10
114.341430
 20
179.121038
 30
0.0
 11
114.187130
 21
179.140568
 31
0.0
  0
LINE
  5
466
100
AcDbEntity
  8
Layer_1
 62
3
100
AcDbLine
 10
114.187130
 20
179.140568
 30
0.0
 11
112.968380
 21
179.140568
 31
0.0
  0
LINE
  5
467
100
AcDbEntity
  8
Layer_1
 62
3
100
AcDbLine
 10
112.968380
 20
179.140568
 30
0.0
 11
112.468380
 21
178.878858
 31
0.0
  0
LINE
  5
468
100
AcDbEntity
  8
Layer_1
 62
3
100
AcDbLine
 10
117.345340
 20
178.878858
 30
0.0
 11
117.273070
 21
178.320258
 31
0.0
  0
LINE
  5
469
100
AcDbEntity
  8
Layer_1
 62
3
100
AcDbLine
 10
117.273070
 20
178.320258
 30
0.0
 11
117.692990
 21
177.941358
 31
0.0
  0
LINE
  5
46a
100
AcDbEntity
  8
Layer_1
 62
3
100
AcDbLine
 10
117.692990
 20
177.941358
 30
0.0
 11
117.845340
 21
177.921828
 31
0.0
  0
LINE
  5
46b
100
AcDbEntity
  8
Layer_1
 62
3
100
AcDbLine
 10
117.845340
 20
177.921828
 30
0.0
 11
119.064090
 21
177.921828
 31
0.0
  0
LINE
  5
46c
100
AcDbEntity
  8
Layer_1
 62
3
100
AcDbLine
 10
119.064090
 20
177.921828
 30
0.0
 11
119.566040
 21
178.183538
 31
0.0
  0
LINE
  5
46d
100
AcDbEntity
  8
Layer_1
 62
3
100
AcDbLine
 10
119.566040
 20
178.183538
 30
0.0
 11
119.636350
 21
178.742138
 31
0.0
  0
LINE
  5
46e
100
AcDbEntity
  8
Layer_1
 62
3
100
AcDbLine
 10
119.636350
 20
178.742138
 30
0.0
 11
119.218380
 21
179.121038
 31
0.0
  0
LINE
  5
46f
100
AcDbEntity
  8
Layer_1
 62
3
100
AcDbLine
 10
119.218380
 20
179.121038
 30
0.0
 11
119.064090
 21
179.140568
 31
0.0
  0
LINE
  5
470
100
AcDbEntity
  8
Layer_1
 62
3
100
AcDbLine
 10
119.064090
 20
179.140568
 30
0.0
 11
117.845340
 21
179.140568
 31
0.0
  0
LINE
  5
471
100
AcDbEntity
  8
Layer_1
 62
3
100
AcDbLine
 10
117.845340
 20
179.140568
 30
0.0
 11
117.345340
 21
178.878858
 31
0.0
  0
LINE
  5
472
100
AcDbEntity
  8
Layer_1
 62
3
100
AcDbLine
 10
122.222290
 20
178.878858
 30
0.0
 11
122.150020
 21
178.320258
 31
0.0
  0
LINE
  5
473
100
AcDbEntity
  8
Layer_1
 62
3
100
AcDbLine
 10
122.150020
 20
178.320258
 30
0.0
 11
122.569950
 21
177.941358
 31
0.0
  0
LINE
  5
474
100
AcDbEntity
  8
Layer_1
 62
3
100
AcDbLine
 10
122.569950
 20
177.941358
 30
0.0
 11
122.722290
 21
177.921828
 31
0.0
  0
LINE
  5
475
100
AcDbEntity
  8
Layer_1
 62
3
100
AcDbLine
 10
122.722290
 20
177.921828
 30
0.0
 11
123.941040
 21
177.921828
 31
0.0
  0
LINE
  5
476
100
AcDbEntity
  8
Layer_1
 62
3
100
AcDbLine
 10
123.941040
 20
177.921828
 30
0.0
 11
124.441040
 21
178.183538
 31
0.0
  0
LINE
  5
477
100
AcDbEntity
  8
Layer_1
 62
3
100
AcDbLine
 10
124.441040
 20
178.183538
 30
0.0
 11
124.513310
 21
178.742138
 31
0.0
  0
LINE
  5
478
100
AcDbEntity
  8
Layer_1
 62
3
100
AcDbLine
 10
124.513310
 20
178.742138
 30
0.0
 11
124.095340
 21
179.121038
 31
0.0
  0
LINE
  5
479
100
AcDbEntity
  8
Layer_1
 62
3
100
AcDbLine
 10
124.095340
 20
179.121038
 30
0.0
 11
123.941040
 21
179.140568
 31
0.0
  0
LINE
  5
47a
100
AcDbEntity
  8
Layer_1
 62
3
100
AcDbLine
 10
123.941040
 20
179.140568
 30
0.0
 11
122.722290
 21
179.140568
 31
0.0
  0
LINE
  5
47b
100
AcDbEntity
  8
Layer_1
 62
3
100
AcDbLine
 10
122.722290
 20
179.140568
 30
0.0
 11
122.222290
 21
178.878858
 31
0.0
  0
LINE
  5
47c
100
AcDbEntity
  8
Layer_1
 62
3
100
AcDbLine
 10
127.099240
 20
178.878858
 30
0.0
 11
127.026980
 21
178.320258
 31
0.0
  0
LINE
  5
47d
100
AcDbEntity
  8
Layer_1
 62
3
100
AcDbLine
 10
127.026980
 20
178.320258
 30
0.0
 11
127.446900
 21
177.941358
 31
0.0
  0
LINE
  5
47e
100
AcDbEntity
  8
Layer_1
 62
3
100
AcDbLine
 10
127.446900
 20
177.941358
 30
0.0
 11
127.599240
 21
177.921828
 31
0.0
  0
LINE
  5
47f
100
AcDbEntity
  8
Layer_1
 62
3
100
AcDbLine
 10
127.599240
 20
177.921828
 30
0.0
 11
128.817990
 21
177.921828
 31
0.0
  0
LINE
  5
480
100
AcDbEntity
  8
Layer_1
 62
3
100
AcDbLine
 10
128.817990
 20
177.921828
 30
0.0
 11
129.317990
 21
178.183538
 31
0.0
  0
LINE
  5
481
100
AcDbEntity
  8
Layer_1
 62
3
100
AcDbLine
 10
129.317990
 20
178.183538
 30
0.0
 11
129.390260
 21
178.742138
 31
0.0
  0
LINE
  5
482
100
AcDbEntity
  8
Layer_1
 62
3
100
AcDbLine
 10
129.390260
 20
178.742138
 30
0.0
 11
128.972290
 21
179.121038
 31
0.0
  0
LINE
  5
483
100
AcDbEntity
  8
Layer_1
 62
3
100
AcDbLine
 10
128.972290
 20
179.121038
 30
0.0
 11
128.817990
 21
179.140568
 31
0.0
  0
LINE
  5
484
100
AcDbEntity
  8
Layer_1
 62
3
100
AcDbLine
 10
128.817990
 20
179.140568
 30
0.0
 11
127.599240
 21
179.140568
 31
0.0
  0
LINE
  5
485
100
AcDbEntity
  8
Layer_1
 62
3
100
AcDbLine
 10
127.599240
 20
179.140568
 30
0.0
 11
127.099240
 21
178.878858
 31
0.0
  0
LINE
  5
486
100
AcDbEntity
  8
Layer_1
 62
3
100
AcDbLine
 10
131.976200
 20
178.878858
 30
0.0
 11
131.903930
 21
178.320258
 31
0.0
  0
LINE
  5
487
100
AcDbEntity
  8
Layer_1
 62
3
100
AcDbLine
 10
131.903930
 20
178.320258
 30
0.0
 11
132.323850
 21
177.941358
 31
0.0
  0
LINE
  5
488
100
AcDbEntity
  8
Layer_1
 62
3
100
AcDbLine
 10
132.323850
 20
177.941358
 30
0.0
 11
132.476200
 21
177.921828
 31
0.0
  0
LINE
  5
489
100
AcDbEntity
  8
Layer_1
 62
3
100
AcDbLine
 10
132.476200
 20
177.921828
 30
0.0
 11
133.694950
 21
177.921828
 31
0.0
  0
LINE
  5
48a
100
AcDbEntity
  8
Layer_1
 62
3
100
AcDbLine
 10
133.694950
 20
177.921828
 30
0.0
 11
134.194950
 21
178.183538
 31
0.0
  0
LINE
  5
48b
100
AcDbEntity
  8
Layer_1
 62
3
100
AcDbLine
 10
134.194950
 20
178.183538
 30
0.0
 11
134.267210
 21
178.742138
 31
0.0
  0
LINE
  5
48c
100
AcDbEntity
  8
Layer_1
 62
3
100
AcDbLine
 10
134.267210
 20
178.742138
 30
0.0
 11
133.849240
 21
179.121038
 31
0.0
  0
LINE
  5
48d
100
AcDbEntity
  8
Layer_1
 62
3
100
AcDbLine
 10
133.849240
 20
179.121038
 30
0.0
 11
133.694950
 21
179.140568
 31
0.0
  0
LINE
  5
48e
100
AcDbEntity
  8
Layer_1
 62
3
100
AcDbLine
 10
133.694950
 20
179.140568
 30
0.0
 11
132.476200
 21
179.140568
 31
0.0
  0
LINE
  5
48f
100
AcDbEntity
  8
Layer_1
 62
3
100
AcDbLine
 10
132.476200
 20
179.140568
 30
0.0
 11
131.976200
 21
178.878858
 31
0.0
  0
LINE
  5
490
100
AcDbEntity
  8
Layer_1
 62
3
100
AcDbLine
 10
136.853150
 20
178.878858
 30
0.0
 11
136.780880
 21
178.320258
 31
0.0
  0
LINE
  5
491
100
AcDbEntity
  8
Layer_1
 62
3
100
AcDbLine
 10
136.780880
 20
178.320258
 30
0.0
 11
137.198850
 21
177.941358
 31
0.0
  0
LINE
  5
492
100
AcDbEntity
  8
Layer_1
 62
3
100
AcDbLine
 10
137.198850
 20
177.941358
 30
0.0
 11
137.353150
 21
177.921828
 31
0.0
  0
LINE
  5
493
100
AcDbEntity
  8
Layer_1
 62
3
100
AcDbLine
 10
137.353150
 20
177.921828
 30
0.0
 11
138.571900
 21
177.921828
 31
0.0
  0
LINE
  5
494
100
AcDbEntity
  8
Layer_1
 62
3
100
AcDbLine
 10
138.571900
 20
177.921828
 30
0.0
 11
139.071900
 21
178.183538
 31
0.0
  0
LINE
  5
495
100
AcDbEntity
  8
Layer_1
 62
3
100
AcDbLine
 10
139.071900
 20
178.183538
 30
0.0
 11
139.144170
 21
178.742138
 31
0.0
  0
LINE
  5
496
100
AcDbEntity
  8
Layer_1
 62
3
100
AcDbLine
 10
139.144170
 20
178.742138
 30
0.0
 11
138.726200
 21
179.121038
 31
0.0
  0
LINE
  5
497
100
AcDbEntity
  8
Layer_1
 62
3
100
AcDbLine
 10
138.726200
 20
179.121038
 30
0.0
 11
138.571900
 21
179.140568
 31
0.0
  0
LINE
  5
498
100
AcDbEntity
  8
Layer_1
 62
3
100
AcDbLine
 10
138.571900
 20
179.140568
 30
0.0
 11
137.353150
 21
179.140568
 31
0.0
  0
LINE
  5
499
100
AcDbEntity
  8
Layer_1
 62
3
100
AcDbLine
 10
137.353150
 20
179.140568
 30
0.0
 11
136.853150
 21
178.878858
 31
0.0
  0
LINE
  5
49a
100
AcDbEntity
  8
Layer_1
 62
3
100
AcDbLine
 10
141.730100
 20
178.878858
 30
0.0
 11
141.657840
 21
178.320258
 31
0.0
  0
LINE
  5
49b
100
AcDbEntity
  8
Layer_1
 62
3
100
AcDbLine
 10
141.657840
 20
178.320258
 30
0.0
 11
142.075810
 21
177.941358
 31
0.0
  0
LINE
  5
49c
100
AcDbEntity
  8
Layer_1
 62
3
100
AcDbLine
 10
142.075810
 20
177.941358
 30
0.0
 11
142.230100
 21
177.921828
 31
0.0
  0
LINE
  5
49d
100
AcDbEntity
  8
Layer_1
 62
3
100
AcDbLine
 10
142.230100
 20
177.921828
 30
0.0
 11
143.448850
 21
177.921828
 31
0.0
  0
LINE
  5
49e
100
AcDbEntity
  8
Layer_1
 62
3
100
AcDbLine
 10
143.448850
 20
177.921828
 30
0.0
 11
143.948850
 21
178.183538
 31
0.0
  0
LINE
  5
49f
100
AcDbEntity
  8
Layer_1
 62
3
100
AcDbLine
 10
143.948850
 20
178.183538
 30
0.0
 11
144.021120
 21
178.742138
 31
0.0
  0
LINE
  5
4a0
100
AcDbEntity
  8
Layer_1
 62
3
100
AcDbLine
 10
144.021120
 20
178.742138
 30
0.0
 11
143.601200
 21
179.121038
 31
0.0
  0
LINE
  5
4a1
100
AcDbEntity
  8
Layer_1
 62
3
100
AcDbLine
 10
143.601200
 20
179.121038
 30
0.0
 11
143.448850
 21
179.140568
 31
0.0
  0
LINE
  5
4a2
100
AcDbEntity
  8
Layer_1
 62
3
100
AcDbLine
 10
143.448850
 20
179.140568
 30
0.0
 11
142.230100
 21
179.140568
 31
0.0
  0
LINE
  5
4a3
100
AcDbEntity
  8
Layer_1
 62
3
100
AcDbLine
 10
142.230100
 20
179.140568
 30
0.0
 11
141.730100
 21
178.878858
 31
0.0
  0
LINE
  5
4a4
100
AcDbEntity
  8
Layer_1
 62
3
100
AcDbLine
 10
146.607060
 20
178.878858
 30
0.0
 11
146.534790
 21
178.320258
 31
0.0
  0
LINE
  5
4a5
100
AcDbEntity
  8
Layer_1
 62
3
100
AcDbLine
 10
146.534790
 20
178.320258
 30
0.0
 11
146.952760
 21
177.941358
 31
0.0
  0
LINE
  5
4a6
100
AcDbEntity
  8
Layer_1
 62
3
100
AcDbLine
 10
146.952760
 20
177.941358
 30
0.0
 11
147.107060
 21
177.921828
 31
0.0
  0
LINE
  5
4a7
100
AcDbEntity
  8
Layer_1
 62
3
100
AcDbLine
 10
147.107060
 20
177.921828
 30
0.0
 11
148.325810
 21
177.921828
 31
0.0
  0
LINE
  5
4a8
100
AcDbEntity
  8
Layer_1
 62
3
100
AcDbLine
 10
148.325810
 20
177.921828
 30
0.0
 11
148.825810
 21
178.183538
 31
0.0
  0
LINE
  5
4a9
100
AcDbEntity
  8
Layer_1
 62
3
100
AcDbLine
 10
148.825810
 20
178.183538
 30
0.0
 11
148.898070
 21
178.742138
 31
0.0
  0
LINE
  5
4aa
100
AcDbEntity
  8
Layer_1
 62
3
100
AcDbLine
 10
148.898070
 20
178.742138
 30
0.0
 11
148.478150
 21
179.121038
 31
0.0
  0
LINE
  5
4ab
100
AcDbEntity
  8
Layer_1
 62
3
100
AcDbLine
 10
148.478150
 20
179.121038
 30
0.0
 11
148.325810
 21
179.140568
 31
0.0
  0
LINE
  5
4ac
100
AcDbEntity
  8
Layer_1
 62
3
100
AcDbLine
 10
148.325810
 20
179.140568
 30
0.0
 11
147.107060
 21
179.140568
 31
0.0
  0
LINE
  5
4ad
100
AcDbEntity
  8
Layer_1
 62
3
100
AcDbLine
 10
147.107060
 20
179.140568
 30
0.0
 11
146.607060
 21
178.878858
 31
0.0
  0
LINE
  5
4ae
100
AcDbEntity
  8
Layer_1
 62
3
100
AcDbLine
 10
151.482060
 20
178.878858
 30
0.0
 11
151.411740
 21
178.320258
 31
0.0
  0
LINE
  5
4af
100
AcDbEntity
  8
Layer_1
 62
3
100
AcDbLine
 10
151.411740
 20
178.320258
 30
0.0
 11
151.829710
 21
177.941358
 31
0.0
  0
LINE
  5
4b0
100
AcDbEntity
  8
Layer_1
 62
3
100
AcDbLine
 10
151.829710
 20
177.941358
 30
0.0
 11
151.984010
 21
177.921828
 31
0.0
  0
LINE
  5
4b1
100
AcDbEntity
  8
Layer_1
 62
3
100
AcDbLine
 10
151.984010
 20
177.921828
 30
0.0
 11
153.202760
 21
177.921828
 31
0.0
  0
LINE
  5
4b2
100
AcDbEntity
  8
Layer_1
 62
3
100
AcDbLine
 10
153.202760
 20
177.921828
 30
0.0
 11
153.702760
 21
178.183538
 31
0.0
  0
LINE
  5
4b3
100
AcDbEntity
  8
Layer_1
 62
3
100
AcDbLine
 10
153.702760
 20
178.183538
 30
0.0
 11
153.775020
 21
178.742138
 31
0.0
  0
LINE
  5
4b4
100
AcDbEntity
  8
Layer_1
 62
3
100
AcDbLine
 10
153.775020
 20
178.742138
 30
0.0
 11
153.355100
 21
179.121038
 31
0.0
  0
LINE
  5
4b5
100
AcDbEntity
  8
Layer_1
 62
3
100
AcDbLine
 10
153.355100
 20
179.121038
 30
0.0
 11
153.202760
 21
179.140568
 31
0.0
  0
LINE
  5
4b6
100
AcDbEntity
  8
Layer_1
 62
3
100
AcDbLine
 10
153.202760
 20
179.140568
 30
0.0
 11
151.984010
 21
179.140568
 31
0.0
  0
LINE
  5
4b7
100
AcDbEntity
  8
Layer_1
 62
3
100
AcDbLine
 10
151.984010
 20
179.140568
 30
0.0
 11
151.482060
 21
178.878858
 31
0.0
  0
ENDSEC
  0
SECTION
  2
OBJECTS
  0
DICTIONARY
  5
C
330
0
100
AcDbDictionary
  3
ACAD_GROUP
350
D
  3
ACAD_MLINESTYLE
350
17
  0
DICTIONARY
  5
D
330
C
100
AcDbDictionary
  0
DICTIONARY
  5
1A
330
C
100
AcDbDictionary
  0
DICTIONARY
  5
17
330
C
100
AcDbDictionary
  3
STANDARD
350
18
  0
DICTIONARY
  5
19
330
C
100
AcDbDictionary
  0
ENDSEC
  0
EOF
