  0
SECTION
  2
HEADER
  9
$ACADVER
  1
AC1014
  9
$HANDSEED
  5
FFFF
  9
$MEASUREMENT
 70
     1
  0
ENDSEC
  0
SECTION
  2
TABLES
  0
TABLE
  2
VPORT
  5
8
330
0
100
AcDbSymbolTable
 70
     4
  0
VPORT
  5
2E
330
8
100
AcDbSymbolTableRecord
100
AcDbViewportTableRecord
  2
*ACTIVE
 70
     0
 10
0.0
 20
0.0
 11
1.0
 21
1.0
 12
210.0
 22
148.5
 13
0.0
 23
0.0
 14
10.0
 24
10.0
 15
10.0
 25
10.0
 16
0.0
 26
0.0
 36
1.0
 17
0.0
 27
0.0
 37
0.0
 40
341.0
 41
1.24
 42
50.0
 43
0.0
 44
0.0
 50
0.0
 51
0.0
 71
     0
 72
   100
 73
     1
 74
     3
 75
     0
 76
     0
 77
     0
 78
     0
  0
ENDTAB
  0
TABLE
  2
LTYPE
  5
5
330
0
100
AcDbSymbolTable
 70
     1
  0
LTYPE
  5
14
330
5
100
AcDbSymbolTableRecord
100
AcDbLinetypeTableRecord
  2
BYBLOCK
 70
     0
  3

 72
    65
 73
     0
 40
0.0
  0
LTYPE
  5
15
330
5
100
AcDbSymbolTableRecord
100
AcDbLinetypeTableRecord
  2
BYLAYER
 70
     0
  3

 72
    65
 73
     0
 40
0.0
  0
LTYPE
  5
16
330
5
100
AcDbSymbolTableRecord
100
AcDbLinetypeTableRecord
  2
CONTINUOUS
 70
     0
  3
Solid line
 72
    65
 73
     0
 40
0.0
  0
ENDTAB
  0
TABLE
  2
LAYER
  5
2
100
AcDbSymbolTable
 70
3
  0
LAYER
  5
50
100
AcDbSymbolTableRecord
100
AcDbLayerTableRecord
  2
0
 70
0
  6
CONTINUOUS
  0
LAYER
  5
51
100
AcDbSymbolTableRecord
100
AcDbLayerTableRecord
  2
Cut
 70
0
  6
CONTINUOUS
  0
LAYER
  5
52
100
AcDbSymbolTableRecord
100
AcDbLayerTableRecord
  2
Footprints
 70
0
  6
CONTINUOUS
  0
ENDTAB
  0
TABLE
  2
STYLE
  5
3
330
0
100
AcDbSymbolTable
 70
     1
  0
STYLE
  5
11
330
3
100
AcDbSymbolTableRecord
100
AcDbTextStyleTableRecord
  2
STANDARD
 70
     0
 40
0.0
 41
1.0
 50
0.0
 71
     0
 42
2.5
  3
txt
  4

  0
ENDTAB
  0
TABLE
  2
VIEW
  5
6
330
0
100
AcDbSymbolTable
 70
     0
  0
ENDTAB
  0
TABLE
  2
UCS
  5
7
330
0
100
AcDbSymbolTable
 70
     0
  0
ENDTAB
  0
TABLE
  2
APPID
  5
9
330
0
100
AcDbSymbolTable
 70
     2
  0
APPID
  5
12
330
9
100
AcDbSymbolTableRecord
100
AcDbRegAppTableRecord
  2
ACAD
 70
     0
  0
ENDTAB
  0
TABLE
  2
DIMSTYLE
  5
A
330
0
100
AcDbSymbolTable
 70
     1
  0
DIMSTYLE
105
27
330
A
100
AcDbSymbolTableRecord
100
AcDbDimStyleTableRecord
  2
ISO-25
 70
     0
  3

  4

  5

  6

  7

 40
1.0
 41
2.5
 42
0.625
 43
3.75
 44
1.25
 45
0.0
 46
0.0
 47
0.0
 48
0.0
140
2.5
141
2.5
142
0.0
143
0.03937007874016
144
1.0
145
0.0
146
1.0
147
0.625
 71
     0
 72
     0
 73
     0
 74
     0
 75
     0
 76
     0
 77
     1
 78
     8
170
     0
171
     3
172
     1
173
     0
174
     0
175
     0
176
     0
177
     0
178
     0
270
     2
271
     2
272
     2
273
     2
274
     3
340
11
275
     0
280
     0
281
     0
282
     0
283
     0
284
     8
285
     0
286
     0
287
     3
288
     0
  0
ENDTAB
  0
TABLE
  2
BLOCK_RECORD
  5
1
330
0
100
AcDbSymbolTable
 70
     1
  0
BLOCK_RECORD
  5
1F
330
1
100
AcDbSymbolTableRecord
100
AcDbBlockTableRecord
  2
*MODEL_SPACE
  0
BLOCK_RECORD
  5
1B
330
1
100
AcDbSymbolTableRecord
100
AcDbBlockTableRecord
  2
*PAPER_SPACE
  0
ENDTAB
  0
ENDSEC
  0
SECTION
  2
BLOCKS
  0
BLOCK
  5
20
330
1F
100
AcDbEntity
  8
0
100
AcDbBlockBegin
  2
*MODEL_SPACE
 70
     0
 10
0.0
 20
0.0
 30
0.0
  3
*MODEL_SPACE
  1

  0
ENDBLK
  5
21
330
1F
100
AcDbEntity
  8
0
100
AcDbBlockEnd
  0
BLOCK
  5
1C
330
1B
100
AcDbEntity
 67
     1
  8
0
100
AcDbBlockBegin
  2
*PAPER_SPACE
  1

  0
ENDBLK
  5
1D
330
1B
100
AcDbEntity
 67
     1
  8
0
100
AcDbBlockEnd
  0
ENDSEC
  0
SECTION
  2
ENTITIES
  0
LINE
  5
100
100
AcDbEntity
  8
Cut
 62
7
100
AcDbLine
 10
29.612112
 20
67.401800
 30
0.0
 11
31.199612
 21
67.401800
 31
0.0
  0
LINE
  5
101
100
AcDbEntity
  8
Cut
 62
7
100
AcDbLine
 10
31.199612
 20
67.401800
 30
0.0
 11
31.199612
 21
68.243175
 31
0.0
  0
LINE
  5
102
100
AcDbEntity
  8
Cut
 62
7
100
AcDbLine
 10
31.199612
 20
68.243175
 30
0.0
 11
29.612112
 21
68.243175
 31
0.0
  0
LINE
  5
103
100
AcDbEntity
  8
Cut
 62
7
100
AcDbLine
 10
29.612112
 20
68.243175
 30
0.0
 11
29.612112
 21
67.401800
 31
0.0
  0
LINE
  5
104
100
AcDbEntity
  8
Cut
 62
7
100
AcDbLine
 10
32.898459
 20
67.401800
 30
0.0
 11
34.485959
 21
67.401800
 31
0.0
  0
LINE
  5
105
100
AcDbEntity
  8
Cut
 62
7
100
AcDbLine
 10
34.485959
 20
67.401800
 30
0.0
 11
34.485959
 21
68.243175
 31
0.0
  0
LINE
  5
106
100
AcDbEntity
  8
Cut
 62
7
100
AcDbLine
 10
34.485959
 20
68.243175
 30
0.0
 11
32.898459
 21
68.243175
 31
0.0
  0
LINE
  5
107
100
AcDbEntity
  8
Cut
 62
7
100
AcDbLine
 10
32.898459
 20
68.243175
 30
0.0
 11
32.898459
 21
67.401800
 31
0.0
  0
LINE
  5
108
100
AcDbEntity
  8
Cut
 62
7
100
AcDbLine
 10
36.184804
 20
67.401800
 30
0.0
 11
37.772304
 21
67.401800
 31
0.0
  0
LINE
  5
109
100
AcDbEntity
  8
Cut
 62
7
100
AcDbLine
 10
37.772304
 20
67.401800
 30
0.0
 11
37.772304
 21
68.243175
 31
0.0
  0
LINE
  5
10a
100
AcDbEntity
  8
Cut
 62
7
100
AcDbLine
 10
37.772304
 20
68.243175
 30
0.0
 11
36.184804
 21
68.243175
 31
0.0
  0
LINE
  5
10b
100
AcDbEntity
  8
Cut
 62
7
100
AcDbLine
 10
36.184804
 20
68.243175
 30
0.0
 11
36.184804
 21
67.401800
 31
0.0
  0
LINE
  5
10c
100
AcDbEntity
  8
Cut
 62
7
100
AcDbLine
 10
39.471148
 20
67.401800
 30
0.0
 11
41.058648
 21
67.401800
 31
0.0
  0
LINE
  5
10d
100
AcDbEntity
  8
Cut
 62
7
100
AcDbLine
 10
41.058648
 20
67.401800
 30
0.0
 11
41.058648
 21
68.243175
 31
0.0
  0
LINE
  5
10e
100
AcDbEntity
  8
Cut
 62
7
100
AcDbLine
 10
41.058648
 20
68.243175
 30
0.0
 11
39.471148
 21
68.243175
 31
0.0
  0
LINE
  5
10f
100
AcDbEntity
  8
Cut
 62
7
100
AcDbLine
 10
39.471148
 20
68.243175
 30
0.0
 11
39.471148
 21
67.401800
 31
0.0
  0
LINE
  5
110
100
AcDbEntity
  8
Cut
 62
7
100
AcDbLine
 10
42.757496
 20
67.401800
 30
0.0
 11
44.344996
 21
67.401800
 31
0.0
  0
LINE
  5
111
100
AcDbEntity
  8
Cut
 62
7
100
AcDbLine
 10
44.344996
 20
67.401800
 30
0.0
 11
44.344996
 21
68.243175
 31
0.0
  0
LINE
  5
112
100
AcDbEntity
  8
Cut
 62
7
100
AcDbLine
 10
44.344996
 20
68.243175
 30
0.0
 11
42.757496
 21
68.243175
 31
0.0
  0
LINE
  5
113
100
AcDbEntity
  8
Cut
 62
7
100
AcDbLine
 10
42.757496
 20
68.243175
 30
0.0
 11
42.757496
 21
67.401800
 31
0.0
  0
LINE
  5
114
100
AcDbEntity
  8
Cut
 62
7
100
AcDbLine
 10
46.043840
 20
67.401800
 30
0.0
 11
47.631340
 21
67.401800
 31
0.0
  0
LINE
  5
115
100
AcDbEntity
  8
Cut
 62
7
100
AcDbLine
 10
47.631340
 20
67.401800
 30
0.0
 11
47.631340
 21
68.243175
 31
0.0
  0
LINE
  5
116
100
AcDbEntity
  8
Cut
 62
7
100
AcDbLine
 10
47.631340
 20
68.243175
 30
0.0
 11
46.043840
 21
68.243175
 31
0.0
  0
LINE
  5
117
100
AcDbEntity
  8
Cut
 62
7
100
AcDbLine
 10
46.043840
 20
68.243175
 30
0.0
 11
46.043840
 21
67.401800
 31
0.0
  0
LINE
  5
118
100
AcDbEntity
  8
Cut
 62
7
100
AcDbLine
 10
49.330185
 20
67.401800
 30
0.0
 11
50.917685
 21
67.401800
 31
0.0
  0
LINE
  5
119
100
AcDbEntity
  8
Cut
 62
7
100
AcDbLine
 10
50.917685
 20
67.401800
 30
0.0
 11
50.917685
 21
68.243175
 31
0.0
  0
LINE
  5
11a
100
AcDbEntity
  8
Cut
 62
7
100
AcDbLine
 10
50.917685
 20
68.243175
 30
0.0
 11
49.330185
 21
68.243175
 31
0.0
  0
LINE
  5
11b
100
AcDbEntity
  8
Cut
 62
7
100
AcDbLine
 10
49.330185
 20
68.243175
 30
0.0
 11
49.330185
 21
67.401800
 31
0.0
  0
LINE
  5
11c
100
AcDbEntity
  8
Cut
 62
7
100
AcDbLine
 10
1.622502
 20
75.804966
 30
0.0
 11
3.321348
 21
75.804966
 31
0.0
  0
LINE
  5
11d
100
AcDbEntity
  8
Cut
 62
7
100
AcDbLine
 10
3.321348
 20
75.804966
 30
0.0
 11
3.321348
 21
74.963591
 31
0.0
  0
LINE
  5
11e
100
AcDbEntity
  8
Cut
 62
7
100
AcDbLine
 10
3.321348
 20
74.963591
 30
0.0
 11
4.908848
 21
74.963591
 31
0.0
  0
LINE
  5
11f
100
AcDbEntity
  8
Cut
 62
7
100
AcDbLine
 10
4.908848
 20
74.963591
 30
0.0
 11
4.908848
 21
75.804966
 31
0.0
  0
LINE
  5
120
100
AcDbEntity
  8
Cut
 62
7
100
AcDbLine
 10
4.908848
 20
75.804966
 30
0.0
 11
6.607693
 21
75.804966
 31
0.0
  0
LINE
  5
121
100
AcDbEntity
  8
Cut
 62
7
100
AcDbLine
 10
6.607693
 20
75.804966
 30
0.0
 11
6.607693
 21
74.963591
 31
0.0
  0
LINE
  5
122
100
AcDbEntity
  8
Cut
 62
7
100
AcDbLine
 10
6.607693
 20
74.963591
 30
0.0
 11
8.195193
 21
74.963591
 31
0.0
  0
LINE
  5
123
100
AcDbEntity
  8
Cut
 62
7
100
AcDbLine
 10
8.195193
 20
74.963591
 30
0.0
 11
8.195193
 21
75.804966
 31
0.0
  0
LINE
  5
124
100
AcDbEntity
  8
Cut
 62
7
100
AcDbLine
 10
8.195193
 20
75.804966
 30
0.0
 11
9.894039
 21
75.804966
 31
0.0
  0
LINE
  5
125
100
AcDbEntity
  8
Cut
 62
7
100
AcDbLine
 10
9.894039
 20
75.804966
 30
0.0
 11
9.894039
 21
74.963591
 31
0.0
  0
LINE
  5
126
100
AcDbEntity
  8
Cut
 62
7
100
AcDbLine
 10
9.894039
 20
74.963591
 30
0.0
 11
11.481539
 21
74.963591
 31
0.0
  0
LINE
  5
127
100
AcDbEntity
  8
Cut
 62
7
100
AcDbLine
 10
11.481539
 20
74.963591
 30
0.0
 11
11.481539
 21
75.804966
 31
0.0
  0
LINE
  5
128
100
AcDbEntity
  8
Cut
 62
7
100
AcDbLine
 10
11.481539
 20
75.804966
 30
0.0
 11
13.180385
 21
75.804966
 31
0.0
  0
LINE
  5
129
100
AcDbEntity
  8
Cut
 62
7
100
AcDbLine
 10
13.180385
 20
75.804966
 30
0.0
 11
13.180385
 21
74.963591
 31
0.0
  0
LINE
  5
12a
100
AcDbEntity
  8
Cut
 62
7
100
AcDbLine
 10
13.180385
 20
74.963591
 30
0.0
 11
14.767885
 21
74.963591
 31
0.0
  0
LINE
  5
12b
100
AcDbEntity
  8
Cut
 62
7
100
AcDbLine
 10
14.767885
 20
74.963591
 30
0.0
 11
14.767885
 21
75.804966
 31
0.0
  0
LINE
  5
12c
100
AcDbEntity
  8
Cut
 62
7
100
AcDbLine
 10
14.767885
 20
75.804966
 30
0.0
 11
16.466730
 21
75.804966
 31
0.0
  0
LINE
  5
12d
100
AcDbEntity
  8
Cut
 62
7
100
AcDbLine
 10
16.466730
 20
75.804966
 30
0.0
 11
16.466730
 21
74.963591
 31
0.0
  0
LINE
  5
12e
100
AcDbEntity
  8
Cut
 62
7
100
AcDbLine
 10
16.466730
 20
74.963591
 30
0.0
 11
18.054230
 21
74.963591
 31
0.0
  0
LINE
  5
12f
100
AcDbEntity
  8
Cut
 62
7
100
AcDbLine
 10
18.054230
 20
74.963591
 30
0.0
 11
18.054230
 21
75.804966
 31
0.0
  0
LINE
  5
130
100
AcDbEntity
  8
Cut
 62
7
100
AcDbLine
 10
18.054230
 20
75.804966
 30
0.0
 11
19.753075
 21
75.804966
 31
0.0
  0
LINE
  5
131
100
AcDbEntity
  8
Cut
 62
7
100
AcDbLine
 10
19.753075
 20
75.804966
 30
0.0
 11
19.753075
 21
74.963591
 31
0.0
  0
LINE
  5
132
100
AcDbEntity
  8
Cut
 62
7
100
AcDbLine
 10
19.753075
 20
74.963591
 30
0.0
 11
21.340575
 21
74.963591
 31
0.0
  0
LINE
  5
133
100
AcDbEntity
  8
Cut
 62
7
100
AcDbLine
 10
21.340575
 20
74.963591
 30
0.0
 11
21.340575
 21
75.804966
 31
0.0
  0
LINE
  5
134
100
AcDbEntity
  8
Cut
 62
7
100
AcDbLine
 10
21.340575
 20
75.804966
 30
0.0
 11
23.039420
 21
75.804966
 31
0.0
  0
LINE
  5
135
100
AcDbEntity
  8
Cut
 62
7
100
AcDbLine
 10
23.039420
 20
75.804966
 30
0.0
 11
23.039420
 21
74.963591
 31
0.0
  0
LINE
  5
136
100
AcDbEntity
  8
Cut
 62
7
100
AcDbLine
 10
23.039420
 20
74.963591
 30
0.0
 11
24.626920
 21
74.963591
 31
0.0
  0
LINE
  5
137
100
AcDbEntity
  8
Cut
 62
7
100
AcDbLine
 10
24.626920
 20
74.963591
 30
0.0
 11
24.626920
 21
75.804966
 31
0.0
  0
LINE
  5
138
100
AcDbEntity
  8
Cut
 62
7
100
AcDbLine
 10
24.626920
 20
75.804966
 30
0.0
 11
26.325767
 21
75.804966
 31
0.0
  0
LINE
  5
139
100
AcDbEntity
  8
Cut
 62
7
100
AcDbLine
 10
26.325767
 20
75.804966
 30
0.0
 11
26.325767
 21
74.963591
 31
0.0
  0
LINE
  5
13a
100
AcDbEntity
  8
Cut
 62
7
100
AcDbLine
 10
26.325767
 20
74.963591
 30
0.0
 11
27.913267
 21
74.963591
 31
0.0
  0
LINE
  5
13b
100
AcDbEntity
  8
Cut
 62
7
100
AcDbLine
 10
27.913267
 20
74.963591
 30
0.0
 11
27.913267
 21
75.804966
 31
0.0
  0
LINE
  5
13c
100
AcDbEntity
  8
Cut
 62
7
100
AcDbLine
 10
27.913267
 20
75.804966
 30
0.0
 11
29.612112
 21
75.804966
 31
0.0
  0
LINE
  5
13d
100
AcDbEntity
  8
Cut
 62
7
100
AcDbLine
 10
29.612112
 20
75.804966
 30
0.0
 11
29.612112
 21
74.963591
 31
0.0
  0
LINE
  5
13e
100
AcDbEntity
  8
Cut
 62
7
100
AcDbLine
 10
29.612112
 20
74.963591
 30
0.0
 11
31.199612
 21
74.963591
 31
0.0
  0
LINE
  5
13f
100
AcDbEntity
  8
Cut
 62
7
100
AcDbLine
 10
31.199612
 20
74.963591
 30
0.0
 11
31.199612
 21
75.804966
 31
0.0
  0
LINE
  5
140
100
AcDbEntity
  8
Cut
 62
7
100
AcDbLine
 10
31.199612
 20
75.804966
 30
0.0
 11
32.898459
 21
75.804966
 31
0.0
  0
LINE
  5
141
100
AcDbEntity
  8
Cut
 62
7
100
AcDbLine
 10
32.898459
 20
75.804966
 30
0.0
 11
32.898459
 21
74.963591
 31
0.0
  0
LINE
  5
142
100
AcDbEntity
  8
Cut
 62
7
100
AcDbLine
 10
32.898459
 20
74.963591
 30
0.0
 11
34.485959
 21
74.963591
 31
0.0
  0
LINE
  5
143
100
AcDbEntity
  8
Cut
 62
7
100
AcDbLine
 10
34.485959
 20
74.963591
 30
0.0
 11
34.485959
 21
75.804966
 31
0.0
  0
LINE
  5
144
100
AcDbEntity
  8
Cut
 62
7
100
AcDbLine
 10
34.485959
 20
75.804966
 30
0.0
 11
36.184804
 21
75.804966
 31
0.0
  0
LINE
  5
145
100
AcDbEntity
  8
Cut
 62
7
100
AcDbLine
 10
36.184804
 20
75.804966
 30
0.0
 11
36.184804
 21
74.963591
 31
0.0
  0
LINE
  5
146
100
AcDbEntity
  8
Cut
 62
7
100
AcDbLine
 10
36.184804
 20
74.963591
 30
0.0
 11
37.772304
 21
74.963591
 31
0.0
  0
LINE
  5
147
100
AcDbEntity
  8
Cut
 62
7
100
AcDbLine
 10
37.772304
 20
74.963591
 30
0.0
 11
37.772304
 21
75.804966
 31
0.0
  0
LINE
  5
148
100
AcDbEntity
  8
Cut
 62
7
100
AcDbLine
 10
37.772304
 20
75.804966
 30
0.0
 11
39.471148
 21
75.804966
 31
0.0
  0
LINE
  5
149
100
AcDbEntity
  8
Cut
 62
7
100
AcDbLine
 10
39.471148
 20
75.804966
 30
0.0
 11
39.471148
 21
74.963591
 31
0.0
  0
LINE
  5
14a
100
AcDbEntity
  8
Cut
 62
7
100
AcDbLine
 10
39.471148
 20
74.963591
 30
0.0
 11
41.058648
 21
74.963591
 31
0.0
  0
LINE
  5
14b
100
AcDbEntity
  8
Cut
 62
7
100
AcDbLine
 10
41.058648
 20
74.963591
 30
0.0
 11
41.058648
 21
75.804966
 31
0.0
  0
LINE
  5
14c
100
AcDbEntity
  8
Cut
 62
7
100
AcDbLine
 10
41.058648
 20
75.804966
 30
0.0
 11
42.757496
 21
75.804966
 31
0.0
  0
LINE
  5
14d
100
AcDbEntity
  8
Cut
 62
7
100
AcDbLine
 10
42.757496
 20
75.804966
 30
0.0
 11
42.757496
 21
74.963591
 31
0.0
  0
LINE
  5
14e
100
AcDbEntity
  8
Cut
 62
7
100
AcDbLine
 10
42.757496
 20
74.963591
 30
0.0
 11
44.344996
 21
74.963591
 31
0.0
  0
LINE
  5
14f
100
AcDbEntity
  8
Cut
 62
7
100
AcDbLine
 10
44.344996
 20
74.963591
 30
0.0
 11
44.344996
 21
75.804966
 31
0.0
  0
LINE
  5
150
100
AcDbEntity
  8
Cut
 62
7
100
AcDbLine
 10
44.344996
 20
75.804966
 30
0.0
 11
46.043840
 21
75.804966
 31
0.0
  0
LINE
  5
151
100
AcDbEntity
  8
Cut
 62
7
100
AcDbLine
 10
46.043840
 20
75.804966
 30
0.0
 11
46.043840
 21
74.963591
 31
0.0
  0
LINE
  5
152
100
AcDbEntity
  8
Cut
 62
7
100
AcDbLine
 10
46.043840
 20
74.963591
 30
0.0
 11
47.631340
 21
74.963591
 31
0.0
  0
LINE
  5
153
100
AcDbEntity
  8
Cut
 62
7
100
AcDbLine
 10
47.631340
 20
74.963591
 30
0.0
 11
47.631340
 21
75.804966
 31
0.0
  0
LINE
  5
154
100
AcDbEntity
  8
Cut
 62
7
100
AcDbLine
 10
47.631340
 20
75.804966
 30
0.0
 11
49.330185
 21
75.804966
 31
0.0
  0
LINE
  5
155
100
AcDbEntity
  8
Cut
 62
7
100
AcDbLine
 10
49.330185
 20
75.804966
 30
0.0
 11
49.330185
 21
74.963591
 31
0.0
  0
LINE
  5
156
100
AcDbEntity
  8
Cut
 62
7
100
AcDbLine
 10
49.330185
 20
74.963591
 30
0.0
 11
50.917685
 21
74.963591
 31
0.0
  0
LINE
  5
157
100
AcDbEntity
  8
Cut
 62
7
100
AcDbLine
 10
50.917685
 20
74.963591
 30
0.0
 11
50.917685
 21
75.804966
 31
0.0
  0
LINE
  5
158
100
AcDbEntity
  8
Cut
 62
7
100
AcDbLine
 10
50.917685
 20
75.804966
 30
0.0
 11
52.616532
 21
75.804966
 31
0.0
  0
LINE
  5
159
100
AcDbEntity
  8
Cut
 62
7
100
AcDbLine
 10
52.616532
 20
75.804966
 30
0.0
 11
52.616532
 21
74.963591
 31
0.0
  0
LINE
  5
15a
100
AcDbEntity
  8
Cut
 62
7
100
AcDbLine
 10
52.616532
 20
74.963591
 30
0.0
 11
54.204032
 21
74.963591
 31
0.0
  0
LINE
  5
15b
100
AcDbEntity
  8
Cut
 62
7
100
AcDbLine
 10
54.204032
 20
74.963591
 30
0.0
 11
54.204032
 21
75.804966
 31
0.0
  0
LINE
  5
15c
100
AcDbEntity
  8
Cut
 62
7
100
AcDbLine
 10
54.204032
 20
75.804966
 30
0.0
 11
55.902877
 21
75.804966
 31
0.0
  0
LINE
  5
15d
100
AcDbEntity
  8
Cut
 62
7
100
AcDbLine
 10
55.902877
 20
75.804966
 30
0.0
 11
55.902877
 21
74.963591
 31
0.0
  0
LINE
  5
15e
100
AcDbEntity
  8
Cut
 62
7
100
AcDbLine
 10
55.902877
 20
74.963591
 30
0.0
 11
57.490377
 21
74.963591
 31
0.0
  0
LINE
  5
15f
100
AcDbEntity
  8
Cut
 62
7
100
AcDbLine
 10
57.490377
 20
74.963591
 30
0.0
 11
57.490377
 21
75.804966
 31
0.0
  0
LINE
  5
160
100
AcDbEntity
  8
Cut
 62
7
100
AcDbLine
 10
57.490377
 20
75.804966
 30
0.0
 11
59.189221
 21
75.804966
 31
0.0
  0
LINE
  5
161
100
AcDbEntity
  8
Cut
 62
7
100
AcDbLine
 10
59.189221
 20
75.804966
 30
0.0
 11
59.189221
 21
74.963591
 31
0.0
  0
LINE
  5
162
100
AcDbEntity
  8
Cut
 62
7
100
AcDbLine
 10
59.189221
 20
74.963591
 30
0.0
 11
60.776721
 21
74.963591
 31
0.0
  0
LINE
  5
163
100
AcDbEntity
  8
Cut
 62
7
100
AcDbLine
 10
60.776721
 20
74.963591
 30
0.0
 11
60.776721
 21
75.804966
 31
0.0
  0
LINE
  5
164
100
AcDbEntity
  8
Cut
 62
7
100
AcDbLine
 10
60.776721
 20
75.804966
 30
0.0
 11
62.475569
 21
75.804966
 31
0.0
  0
LINE
  5
165
100
AcDbEntity
  8
Cut
 62
7
100
AcDbLine
 10
62.475569
 20
75.804966
 30
0.0
 11
62.475569
 21
74.963591
 31
0.0
  0
LINE
  5
166
100
AcDbEntity
  8
Cut
 62
7
100
AcDbLine
 10
62.475569
 20
74.963591
 30
0.0
 11
64.063069
 21
74.963591
 31
0.0
  0
LINE
  5
167
100
AcDbEntity
  8
Cut
 62
7
100
AcDbLine
 10
64.063069
 20
74.963591
 30
0.0
 11
64.063069
 21
75.804966
 31
0.0
  0
LINE
  5
168
100
AcDbEntity
  8
Cut
 62
7
100
AcDbLine
 10
64.063069
 20
75.804966
 30
0.0
 11
65.761913
 21
75.804966
 31
0.0
  0
LINE
  5
169
100
AcDbEntity
  8
Cut
 62
7
100
AcDbLine
 10
65.761913
 20
75.804966
 30
0.0
 11
65.761913
 21
74.963591
 31
0.0
  0
LINE
  5
16a
100
AcDbEntity
  8
Cut
 62
7
100
AcDbLine
 10
65.761913
 20
74.963591
 30
0.0
 11
67.349413
 21
74.963591
 31
0.0
  0
LINE
  5
16b
100
AcDbEntity
  8
Cut
 62
7
100
AcDbLine
 10
67.349413
 20
74.963591
 30
0.0
 11
67.349413
 21
75.804966
 31
0.0
  0
LINE
  5
16c
100
AcDbEntity
  8
Cut
 62
7
100
AcDbLine
 10
67.349413
 20
75.804966
 30
0.0
 11
69.048258
 21
75.804966
 31
0.0
  0
LINE
  5
16d
100
AcDbEntity
  8
Cut
 62
7
100
AcDbLine
 10
69.048258
 20
75.804966
 30
0.0
 11
69.048258
 21
74.963591
 31
0.0
  0
LINE
  5
16e
100
AcDbEntity
  8
Cut
 62
7
100
AcDbLine
 10
69.048258
 20
74.963591
 30
0.0
 11
70.635758
 21
74.963591
 31
0.0
  0
LINE
  5
16f
100
AcDbEntity
  8
Cut
 62
7
100
AcDbLine
 10
70.635758
 20
74.963591
 30
0.0
 11
70.635758
 21
75.804966
 31
0.0
  0
LINE
  5
170
100
AcDbEntity
  8
Cut
 62
7
100
AcDbLine
 10
70.635758
 20
75.804966
 30
0.0
 11
72.334605
 21
75.804966
 31
0.0
  0
LINE
  5
171
100
AcDbEntity
  8
Cut
 62
7
100
AcDbLine
 10
72.334605
 20
75.804966
 30
0.0
 11
72.334605
 21
74.963591
 31
0.0
  0
LINE
  5
172
100
AcDbEntity
  8
Cut
 62
7
100
AcDbLine
 10
72.334605
 20
74.963591
 30
0.0
 11
73.922105
 21
74.963591
 31
0.0
  0
LINE
  5
173
100
AcDbEntity
  8
Cut
 62
7
100
AcDbLine
 10
73.922105
 20
74.963591
 30
0.0
 11
73.922105
 21
75.804966
 31
0.0
  0
LINE
  5
174
100
AcDbEntity
  8
Cut
 62
7
100
AcDbLine
 10
73.922105
 20
75.804966
 30
0.0
 11
75.620950
 21
75.804966
 31
0.0
  0
LINE
  5
175
100
AcDbEntity
  8
Cut
 62
7
100
AcDbLine
 10
75.620950
 20
75.804966
 30
0.0
 11
75.620950
 21
74.963591
 31
0.0
  0
LINE
  5
176
100
AcDbEntity
  8
Cut
 62
7
100
AcDbLine
 10
75.620950
 20
74.963591
 30
0.0
 11
77.208450
 21
74.963591
 31
0.0
  0
LINE
  5
177
100
AcDbEntity
  8
Cut
 62
7
100
AcDbLine
 10
77.208450
 20
74.963591
 30
0.0
 11
77.208450
 21
75.804966
 31
0.0
  0
LINE
  5
178
100
AcDbEntity
  8
Cut
 62
7
100
AcDbLine
 10
77.208450
 20
75.804966
 30
0.0
 11
78.907297
 21
75.804966
 31
0.0
  0
LINE
  5
179
100
AcDbEntity
  8
Cut
 62
7
100
AcDbLine
 10
78.907297
 20
75.804966
 30
0.0
 11
78.907297
 21
74.179983
 31
0.0
  0
LINE
  5
17a
100
AcDbEntity
  8
Cut
 62
7
100
AcDbLine
 10
78.907297
 20
74.179983
 30
0.0
 11
78.065922
 21
74.179983
 31
0.0
  0
LINE
  5
17b
100
AcDbEntity
  8
Cut
 62
7
100
AcDbLine
 10
78.065922
 20
74.179983
 30
0.0
 11
78.065922
 21
72.592483
 31
0.0
  0
LINE
  5
17c
100
AcDbEntity
  8
Cut
 62
7
100
AcDbLine
 10
78.065922
 20
72.592483
 30
0.0
 11
78.907297
 21
72.592483
 31
0.0
  0
LINE
  5
17d
100
AcDbEntity
  8
Cut
 62
7
100
AcDbLine
 10
78.907297
 20
72.592483
 30
0.0
 11
78.907297
 21
70.967501
 31
0.0
  0
LINE
  5
17e
100
AcDbEntity
  8
Cut
 62
7
100
AcDbLine
 10
78.907297
 20
70.967501
 30
0.0
 11
78.065922
 21
70.967501
 31
0.0
  0
LINE
  5
17f
100
AcDbEntity
  8
Cut
 62
7
100
AcDbLine
 10
78.065922
 20
70.967501
 30
0.0
 11
78.065922
 21
69.380001
 31
0.0
  0
LINE
  5
180
100
AcDbEntity
  8
Cut
 62
7
100
AcDbLine
 10
78.065922
 20
69.380001
 30
0.0
 11
78.907297
 21
69.380001
 31
0.0
  0
LINE
  5
181
100
AcDbEntity
  8
Cut
 62
7
100
AcDbLine
 10
78.907297
 20
69.380001
 30
0.0
 11
78.907297
 21
67.755019
 31
0.0
  0
LINE
  5
182
100
AcDbEntity
  8
Cut
 62
7
100
AcDbLine
 10
78.907297
 20
67.755019
 30
0.0
 11
78.065922
 21
67.755019
 31
0.0
  0
LINE
  5
183
100
AcDbEntity
  8
Cut
 62
7
100
AcDbLine
 10
78.065922
 20
67.755019
 30
0.0
 11
78.065922
 21
66.167519
 31
0.0
  0
LINE
  5
184
100
AcDbEntity
  8
Cut
 62
7
100
AcDbLine
 10
78.065922
 20
66.167519
 30
0.0
 11
78.907297
 21
66.167519
 31
0.0
  0
LINE
  5
185
100
AcDbEntity
  8
Cut
 62
7
100
AcDbLine
 10
78.907297
 20
66.167519
 30
0.0
 11
78.907297
 21
64.542536
 31
0.0
  0
LINE
  5
186
100
AcDbEntity
  8
Cut
 62
7
100
AcDbLine
 10
78.907297
 20
64.542536
 30
0.0
 11
78.065922
 21
64.542536
 31
0.0
  0
LINE
  5
187
100
AcDbEntity
  8
Cut
 62
7
100
AcDbLine
 10
78.065922
 20
64.542536
 30
0.0
 11
78.065922
 21
62.955036
 31
0.0
  0
LINE
  5
188
100
AcDbEntity
  8
Cut
 62
7
100
AcDbLine
 10
78.065922
 20
62.955036
 30
0.0
 11
78.907297
 21
62.955036
 31
0.0
  0
LINE
  5
189
100
AcDbEntity
  8
Cut
 62
7
100
AcDbLine
 10
78.907297
 20
62.955036
 30
0.0
 11
78.907297
 21
61.330053
 31
0.0
  0
LINE
  5
18a
100
AcDbEntity
  8
Cut
 62
7
100
AcDbLine
 10
78.907297
 20
61.330053
 30
0.0
 11
78.065922
 21
61.330053
 31
0.0
  0
LINE
  5
18b
100
AcDbEntity
  8
Cut
 62
7
100
AcDbLine
 10
78.065922
 20
61.330053
 30
0.0
 11
78.065922
 21
59.742553
 31
0.0
  0
LINE
  5
18c
100
AcDbEntity
  8
Cut
 62
7
100
AcDbLine
 10
78.065922
 20
59.742553
 30
0.0
 11
78.907297
 21
59.742553
 31
0.0
  0
LINE
  5
18d
100
AcDbEntity
  8
Cut
 62
7
100
AcDbLine
 10
78.907297
 20
59.742553
 30
0.0
 11
78.907297
 21
58.117570
 31
0.0
  0
LINE
  5
18e
100
AcDbEntity
  8
Cut
 62
7
100
AcDbLine
 10
78.907297
 20
58.117570
 30
0.0
 11
78.065922
 21
58.117570
 31
0.0
  0
LINE
  5
18f
100
AcDbEntity
  8
Cut
 62
7
100
AcDbLine
 10
78.065922
 20
58.117570
 30
0.0
 11
78.065922
 21
56.530070
 31
0.0
  0
LINE
  5
190
100
AcDbEntity
  8
Cut
 62
7
100
AcDbLine
 10
78.065922
 20
56.530070
 30
0.0
 11
78.907297
 21
56.530070
 31
0.0
  0
LINE
  5
191
100
AcDbEntity
  8
Cut
 62
7
100
AcDbLine
 10
78.907297
 20
56.530070
 30
0.0
 11
78.907297
 21
54.905089
 31
0.0
  0
LINE
  5
192
100
AcDbEntity
  8
Cut
 62
7
100
AcDbLine
 10
78.907297
 20
54.905089
 30
0.0
 11
78.065922
 21
54.905089
 31
0.0
  0
LINE
  5
193
100
AcDbEntity
  8
Cut
 62
7
100
AcDbLine
 10
78.065922
 20
54.905089
 30
0.0
 11
78.065922
 21
53.317589
 31
0.0
  0
LINE
  5
194
100
AcDbEntity
  8
Cut
 62
7
100
AcDbLine
 10
78.065922
 20
53.317589
 30
0.0
 11
78.907297
 21
53.317589
 31
0.0
  0
LINE
  5
195
100
AcDbEntity
  8
Cut
 62
7
100
AcDbLine
 10
78.907297
 20
53.317589
 30
0.0
 11
78.907297
 21
51.692606
 31
0.0
  0
LINE
  5
196
100
AcDbEntity
  8
Cut
 62
7
100
AcDbLine
 10
78.907297
 20
51.692606
 30
0.0
 11
78.065922
 21
51.692606
 31
0.0
  0
LINE
  5
197
100
AcDbEntity
  8
Cut
 62
7
100
AcDbLine
 10
78.065922
 20
51.692606
 30
0.0
 11
78.065922
 21
50.105106
 31
0.0
  0
LINE
  5
198
100
AcDbEntity
  8
Cut
 62
7
100
AcDbLine
 10
78.065922
 20
50.105106
 30
0.0
 11
78.907297
 21
50.105106
 31
0.0
  0
LINE
  5
199
100
AcDbEntity
  8
Cut
 62
7
100
AcDbLine
 10
78.907297
 20
50.105106
 30
0.0
 11
78.907297
 21
48.480122
 31
0.0
  0
LINE
  5
19a
100
AcDbEntity
  8
Cut
 62
7
100
AcDbLine
 10
78.907297
 20
48.480122
 30
0.0
 11
78.065922
 21
48.480122
 31
0.0
  0
LINE
  5
19b
100
AcDbEntity
  8
Cut
 62
7
100
AcDbLine
 10
78.065922
 20
48.480122
 30
0.0
 11
78.065922
 21
46.892622
 31
0.0
  0
LINE
  5
19c
100
AcDbEntity
  8
Cut
 62
7
100
AcDbLine
 10
78.065922
 20
46.892622
 30
0.0
 11
78.907297
 21
46.892622
 31
0.0
  0
LINE
  5
19d
100
AcDbEntity
  8
Cut
 62
7
100
AcDbLine
 10
78.907297
 20
46.892622
 30
0.0
 11
78.907297
 21
45.267641
 31
0.0
  0
LINE
  5
19e
100
AcDbEntity
  8
Cut
 62
7
100
AcDbLine
 10
78.907297
 20
45.267641
 30
0.0
 11
78.065922
 21
45.267641
 31
0.0
  0
LINE
  5
19f
100
AcDbEntity
  8
Cut
 62
7
100
AcDbLine
 10
78.065922
 20
45.267641
 30
0.0
 11
78.065922
 21
43.680141
 31
0.0
  0
LINE
  5
1a0
100
AcDbEntity
  8
Cut
 62
7
100
AcDbLine
 10
78.065922
 20
43.680141
 30
0.0
 11
78.907297
 21
43.680141
 31
0.0
  0
LINE
  5
1a1
100
AcDbEntity
  8
Cut
 62
7
100
AcDbLine
 10
78.907297
 20
43.680141
 30
0.0
 11
78.907297
 21
42.055158
 31
0.0
  0
LINE
  5
1a2
100
AcDbEntity
  8
Cut
 62
7
100
AcDbLine
 10
78.907297
 20
42.055158
 30
0.0
 11
78.065922
 21
42.055158
 31
0.0
  0
LINE
  5
1a3
100
AcDbEntity
  8
Cut
 62
7
100
AcDbLine
 10
78.065922
 20
42.055158
 30
0.0
 11
78.065922
 21
40.467658
 31
0.0
  0
LINE
  5
1a4
100
AcDbEntity
  8
Cut
 62
7
100
AcDbLine
 10
78.065922
 20
40.467658
 30
0.0
 11
78.907297
 21
40.467658
 31
0.0
  0
LINE
  5
1a5
100
AcDbEntity
  8
Cut
 62
7
100
AcDbLine
 10
78.907297
 20
40.467658
 30
0.0
 11
78.907297
 21
38.842674
 31
0.0
  0
LINE
  5
1a6
100
AcDbEntity
  8
Cut
 62
7
100
AcDbLine
 10
78.907297
 20
38.842674
 30
0.0
 11
77.208450
 21
38.842674
 31
0.0
  0
LINE
  5
1a7
100
AcDbEntity
  8
Cut
 62
7
100
AcDbLine
 10
77.208450
 20
38.842674
 30
0.0
 11
77.208450
 21
39.684049
 31
0.0
  0
LINE
  5
1a8
100
AcDbEntity
  8
Cut
 62
7
100
AcDbLine
 10
77.208450
 20
39.684049
 30
0.0
 11
75.620950
 21
39.684049
 31
0.0
  0
LINE
  5
1a9
100
AcDbEntity
  8
Cut
 62
7
100
AcDbLine
 10
75.620950
 20
39.684049
 30
0.0
 11
75.620950
 21
38.842674
 31
0.0
  0
LINE
  5
1aa
100
AcDbEntity
  8
Cut
 62
7
100
AcDbLine
 10
75.620950
 20
38.842674
 30
0.0
 11
73.922105
 21
38.842674
 31
0.0
  0
LINE
  5
1ab
100
AcDbEntity
  8
Cut
 62
7
100
AcDbLine
 10
73.922105
 20
38.842674
 30
0.0
 11
73.922105
 21
39.684049
 31
0.0
  0
LINE
  5
1ac
100
AcDbEntity
  8
Cut
 62
7
100
AcDbLine
 10
73.922105
 20
39.684049
 30
0.0
 11
72.334605
 21
39.684049
 31
0.0
  0
LINE
  5
1ad
100
AcDbEntity
  8
Cut
 62
7
100
AcDbLine
 10
72.334605
 20
39.684049
 30
0.0
 11
72.334605
 21
38.842674
 31
0.0
  0
LINE
  5
1ae
100
AcDbEntity
  8
Cut
 62
7
100
AcDbLine
 10
72.334605
 20
38.842674
 30
0.0
 11
70.635758
 21
38.842674
 31
0.0
  0
LINE
  5
1af
100
AcDbEntity
  8
Cut
 62
7
100
AcDbLine
 10
70.635758
 20
38.842674
 30
0.0
 11
70.635758
 21
39.684049
 31
0.0
  0
LINE
  5
1b0
100
AcDbEntity
  8
Cut
 62
7
100
AcDbLine
 10
70.635758
 20
39.684049
 30
0.0
 11
69.048258
 21
39.684049
 31
0.0
  0
LINE
  5
1b1
100
AcDbEntity
  8
Cut
 62
7
100
AcDbLine
 10
69.048258
 20
39.684049
 30
0.0
 11
69.048258
 21
38.842674
 31
0.0
  0
LINE
  5
1b2
100
AcDbEntity
  8
Cut
 62
7
100
AcDbLine
 10
69.048258
 20
38.842674
 30
0.0
 11
67.349413
 21
38.842674
 31
0.0
  0
LINE
  5
1b3
100
AcDbEntity
  8
Cut
 62
7
100
AcDbLine
 10
67.349413
 20
38.842674
 30
0.0
 11
67.349413
 21
39.684049
 31
0.0
  0
LINE
  5
1b4
100
AcDbEntity
  8
Cut
 62
7
100
AcDbLine
 10
67.349413
 20
39.684049
 30
0.0
 11
65.761913
 21
39.684049
 31
0.0
  0
LINE
  5
1b5
100
AcDbEntity
  8
Cut
 62
7
100
AcDbLine
 10
65.761913
 20
39.684049
 30
0.0
 11
65.761913
 21
38.842674
 31
0.0
  0
LINE
  5
1b6
100
AcDbEntity
  8
Cut
 62
7
100
AcDbLine
 10
65.761913
 20
38.842674
 30
0.0
 11
64.063069
 21
38.842674
 31
0.0
  0
LINE
  5
1b7
100
AcDbEntity
  8
Cut
 62
7
100
AcDbLine
 10
64.063069
 20
38.842674
 30
0.0
 11
64.063069
 21
39.684049
 31
0.0
  0
LINE
  5
1b8
100
AcDbEntity
  8
Cut
 62
7
100
AcDbLine
 10
64.063069
 20
39.684049
 30
0.0
 11
62.475569
 21
39.684049
 31
0.0
  0
LINE
  5
1b9
100
AcDbEntity
  8
Cut
 62
7
100
AcDbLine
 10
62.475569
 20
39.684049
 30
0.0
 11
62.475569
 21
38.842674
 31
0.0
  0
LINE
  5
1ba
100
AcDbEntity
  8
Cut
 62
7
100
AcDbLine
 10
62.475569
 20
38.842674
 30
0.0
 11
60.776721
 21
38.842674
 31
0.0
  0
LINE
  5
1bb
100
AcDbEntity
  8
Cut
 62
7
100
AcDbLine
 10
60.776721
 20
38.842674
 30
0.0
 11
60.776721
 21
39.684049
 31
0.0
  0
LINE
  5
1bc
100
AcDbEntity
  8
Cut
 62
7
100
AcDbLine
 10
60.776721
 20
39.684049
 30
0.0
 11
59.189221
 21
39.684049
 31
0.0
  0
LINE
  5
1bd
100
AcDbEntity
  8
Cut
 62
7
100
AcDbLine
 10
59.189221
 20
39.684049
 30
0.0
 11
59.189221
 21
38.842674
 31
0.0
  0
LINE
  5
1be
100
AcDbEntity
  8
Cut
 62
7
100
AcDbLine
 10
59.189221
 20
38.842674
 30
0.0
 11
57.490377
 21
38.842674
 31
0.0
  0
LINE
  5
1bf
100
AcDbEntity
  8
Cut
 62
7
100
AcDbLine
 10
57.490377
 20
38.842674
 30
0.0
 11
57.490377
 21
39.684049
 31
0.0
  0
LINE
  5
1c0
100
AcDbEntity
  8
Cut
 62
7
100
AcDbLine
 10
57.490377
 20
39.684049
 30
0.0
 11
55.902877
 21
39.684049
 31
0.0
  0
LINE
  5
1c1
100
AcDbEntity
  8
Cut
 62
7
100
AcDbLine
 10
55.902877
 20
39.684049
 30
0.0
 11
55.902877
 21
38.842674
 31
0.0
  0
LINE
  5
1c2
100
AcDbEntity
  8
Cut
 62
7
100
AcDbLine
 10
55.902877
 20
38.842674
 30
0.0
 11
54.204032
 21
38.842674
 31
0.0
  0
LINE
  5
1c3
100
AcDbEntity
  8
Cut
 62
7
100
AcDbLine
 10
26.325767
 20
38.842674
 30
0.0
 11
24.626920
 21
38.842674
 31
0.0
  0
LINE
  5
1c4
100
AcDbEntity
  8
Cut
 62
7
100
AcDbLine
 10
24.626920
 20
38.842674
 30
0.0
 11
24.626920
 21
39.684049
 31
0.0
  0
LINE
  5
1c5
100
AcDbEntity
  8
Cut
 62
7
100
AcDbLine
 10
24.626920
 20
39.684049
 30
0.0
 11
23.039420
 21
39.684049
 31
0.0
  0
LINE
  5
1c6
100
AcDbEntity
  8
Cut
 62
7
100
AcDbLine
 10
23.039420
 20
39.684049
 30
0.0
 11
23.039420
 21
38.842674
 31
0.0
  0
LINE
  5
1c7
100
AcDbEntity
  8
Cut
 62
7
100
AcDbLine
 10
23.039420
 20
38.842674
 30
0.0
 11
21.340575
 21
38.842674
 31
0.0
  0
LINE
  5
1c8
100
AcDbEntity
  8
Cut
 62
7
100
AcDbLine
 10
21.340575
 20
38.842674
 30
0.0
 11
21.340575
 21
39.684049
 31
0.0
  0
LINE
  5
1c9
100
AcDbEntity
  8
Cut
 62
7
100
AcDbLine
 10
21.340575
 20
39.684049
 30
0.0
 11
19.753075
 21
39.684049
 31
0.0
  0
LINE
  5
1ca
100
AcDbEntity
  8
Cut
 62
7
100
AcDbLine
 10
19.753075
 20
39.684049
 30
0.0
 11
19.753075
 21
38.842674
 31
0.0
  0
LINE
  5
1cb
100
AcDbEntity
  8
Cut
 62
7
100
AcDbLine
 10
19.753075
 20
38.842674
 30
0.0
 11
18.054230
 21
38.842674
 31
0.0
  0
LINE
  5
1cc
100
AcDbEntity
  8
Cut
 62
7
100
AcDbLine
 10
18.054230
 20
38.842674
 30
0.0
 11
18.054230
 21
39.684049
 31
0.0
  0
LINE
  5
1cd
100
AcDbEntity
  8
Cut
 62
7
100
AcDbLine
 10
18.054230
 20
39.684049
 30
0.0
 11
16.466730
 21
39.684049
 31
0.0
  0
LINE
  5
1ce
100
AcDbEntity
  8
Cut
 62
7
100
AcDbLine
 10
16.466730
 20
39.684049
 30
0.0
 11
16.466730
 21
38.842674
 31
0.0
  0
LINE
  5
1cf
100
AcDbEntity
  8
Cut
 62
7
100
AcDbLine
 10
16.466730
 20
38.842674
 30
0.0
 11
14.767885
 21
38.842674
 31
0.0
  0
LINE
  5
1d0
100
AcDbEntity
  8
Cut
 62
7
100
AcDbLine
 10
14.767885
 20
38.842674
 30
0.0
 11
14.767885
 21
39.684049
 31
0.0
  0
LINE
  5
1d1
100
AcDbEntity
  8
Cut
 62
7
100
AcDbLine
 10
14.767885
 20
39.684049
 30
0.0
 11
13.180385
 21
39.684049
 31
0.0
  0
LINE
  5
1d2
100
AcDbEntity
  8
Cut
 62
7
100
AcDbLine
 10
13.180385
 20
39.684049
 30
0.0
 11
13.180385
 21
38.842674
 31
0.0
  0
LINE
  5
1d3
100
AcDbEntity
  8
Cut
 62
7
100
AcDbLine
 10
13.180385
 20
38.842674
 30
0.0
 11
11.481539
 21
38.842674
 31
0.0
  0
LINE
  5
1d4
100
AcDbEntity
  8
Cut
 62
7
100
AcDbLine
 10
11.481539
 20
38.842674
 30
0.0
 11
11.481539
 21
39.684049
 31
0.0
  0
LINE
  5
1d5
100
AcDbEntity
  8
Cut
 62
7
100
AcDbLine
 10
11.481539
 20
39.684049
 30
0.0
 11
9.894039
 21
39.684049
 31
0.0
  0
LINE
  5
1d6
100
AcDbEntity
  8
Cut
 62
7
100
AcDbLine
 10
9.894039
 20
39.684049
 30
0.0
 11
9.894039
 21
38.842674
 31
0.0
  0
LINE
  5
1d7
100
AcDbEntity
  8
Cut
 62
7
100
AcDbLine
 10
9.894039
 20
38.842674
 30
0.0
 11
8.195193
 21
38.842674
 31
0.0
  0
LINE
  5
1d8
100
AcDbEntity
  8
Cut
 62
7
100
AcDbLine
 10
8.195193
 20
38.842674
 30
0.0
 11
8.195193
 21
39.684049
 31
0.0
  0
LINE
  5
1d9
100
AcDbEntity
  8
Cut
 62
7
100
AcDbLine
 10
8.195193
 20
39.684049
 30
0.0
 11
6.607693
 21
39.684049
 31
0.0
  0
LINE
  5
1da
100
AcDbEntity
  8
Cut
 62
7
100
AcDbLine
 10
6.607693
 20
39.684049
 30
0.0
 11
6.607693
 21
38.842674
 31
0.0
  0
LINE
  5
1db
100
AcDbEntity
  8
Cut
 62
7
100
AcDbLine
 10
6.607693
 20
38.842674
 30
0.0
 11
4.908848
 21
38.842674
 31
0.0
  0
LINE
  5
1dc
100
AcDbEntity
  8
Cut
 62
7
100
AcDbLine
 10
4.908848
 20
38.842674
 30
0.0
 11
4.908848
 21
39.684049
 31
0.0
  0
LINE
  5
1dd
100
AcDbEntity
  8
Cut
 62
7
100
AcDbLine
 10
4.908848
 20
39.684049
 30
0.0
 11
3.321348
 21
39.684049
 31
0.0
  0
LINE
  5
1de
100
AcDbEntity
  8
Cut
 62
7
100
AcDbLine
 10
3.321348
 20
39.684049
 30
0.0
 11
3.321348
 21
38.842674
 31
0.0
  0
LINE
  5
1df
100
AcDbEntity
  8
Cut
 62
7
100
AcDbLine
 10
3.321348
 20
38.842674
 30
0.0
 11
1.622502
 21
38.842674
 31
0.0
  0
LINE
  5
1e0
100
AcDbEntity
  8
Cut
 62
7
100
AcDbLine
 10
1.622502
 20
38.842674
 30
0.0
 11
1.622502
 21
40.467658
 31
0.0
  0
LINE
  5
1e1
100
AcDbEntity
  8
Cut
 62
7
100
AcDbLine
 10
1.622502
 20
40.467658
 30
0.0
 11
2.463877
 21
40.467658
 31
0.0
  0
LINE
  5
1e2
100
AcDbEntity
  8
Cut
 62
7
100
AcDbLine
 10
2.463877
 20
40.467658
 30
0.0
 11
2.463877
 21
42.055158
 31
0.0
  0
LINE
  5
1e3
100
AcDbEntity
  8
Cut
 62
7
100
AcDbLine
 10
2.463877
 20
42.055158
 30
0.0
 11
1.622502
 21
42.055158
 31
0.0
  0
LINE
  5
1e4
100
AcDbEntity
  8
Cut
 62
7
100
AcDbLine
 10
1.622502
 20
42.055158
 30
0.0
 11
1.622502
 21
43.680141
 31
0.0
  0
LINE
  5
1e5
100
AcDbEntity
  8
Cut
 62
7
100
AcDbLine
 10
1.622502
 20
43.680141
 30
0.0
 11
2.463877
 21
43.680141
 31
0.0
  0
LINE
  5
1e6
100
AcDbEntity
  8
Cut
 62
7
100
AcDbLine
 10
2.463877
 20
43.680141
 30
0.0
 11
2.463877
 21
45.267641
 31
0.0
  0
LINE
  5
1e7
100
AcDbEntity
  8
Cut
 62
7
100
AcDbLine
 10
2.463877
 20
45.267641
 30
0.0
 11
1.622502
 21
45.267641
 31
0.0
  0
LINE
  5
1e8
100
AcDbEntity
  8
Cut
 62
7
100
AcDbLine
 10
1.622502
 20
45.267641
 30
0.0
 11
1.622502
 21
46.892622
 31
0.0
  0
LINE
  5
1e9
100
AcDbEntity
  8
Cut
 62
7
100
AcDbLine
 10
1.622502
 20
46.892622
 30
0.0
 11
2.463877
 21
46.892622
 31
0.0
  0
LINE
  5
1ea
100
AcDbEntity
  8
Cut
 62
7
100
AcDbLine
 10
2.463877
 20
46.892622
 30
0.0
 11
2.463877
 21
48.480122
 31
0.0
  0
LINE
  5
1eb
100
AcDbEntity
  8
Cut
 62
7
100
AcDbLine
 10
2.463877
 20
48.480122
 30
0.0
 11
1.622502
 21
48.480122
 31
0.0
  0
LINE
  5
1ec
100
AcDbEntity
  8
Cut
 62
7
100
AcDbLine
 10
1.622502
 20
48.480122
 30
0.0
 11
1.622502
 21
50.105106
 31
0.0
  0
LINE
  5
1ed
100
AcDbEntity
  8
Cut
 62
7
100
AcDbLine
 10
1.622502
 20
50.105106
 30
0.0
 11
2.463877
 21
50.105106
 31
0.0
  0
LINE
  5
1ee
100
AcDbEntity
  8
Cut
 62
7
100
AcDbLine
 10
2.463877
 20
50.105106
 30
0.0
 11
2.463877
 21
51.692606
 31
0.0
  0
LINE
  5
1ef
100
AcDbEntity
  8
Cut
 62
7
100
AcDbLine
 10
2.463877
 20
51.692606
 30
0.0
 11
1.622502
 21
51.692606
 31
0.0
  0
LINE
  5
1f0
100
AcDbEntity
  8
Cut
 62
7
100
AcDbLine
 10
1.622502
 20
51.692606
 30
0.0
 11
1.622502
 21
53.317589
 31
0.0
  0
LINE
  5
1f1
100
AcDbEntity
  8
Cut
 62
7
100
AcDbLine
 10
1.622502
 20
53.317589
 30
0.0
 11
2.463877
 21
53.317589
 31
0.0
  0
LINE
  5
1f2
100
AcDbEntity
  8
Cut
 62
7
100
AcDbLine
 10
2.463877
 20
53.317589
 30
0.0
 11
2.463877
 21
54.905089
 31
0.0
  0
LINE
  5
1f3
100
AcDbEntity
  8
Cut
 62
7
100
AcDbLine
 10
2.463877
 20
54.905089
 30
0.0
 11
1.622502
 21
54.905089
 31
0.0
  0
LINE
  5
1f4
100
AcDbEntity
  8
Cut
 62
7
100
AcDbLine
 10
1.622502
 20
54.905089
 30
0.0
 11
1.622502
 21
56.530070
 31
0.0
  0
LINE
  5
1f5
100
AcDbEntity
  8
Cut
 62
7
100
AcDbLine
 10
1.622502
 20
56.530070
 30
0.0
 11
2.463877
 21
56.530070
 31
0.0
  0
LINE
  5
1f6
100
AcDbEntity
  8
Cut
 62
7
100
AcDbLine
 10
2.463877
 20
56.530070
 30
0.0
 11
2.463877
 21
58.117570
 31
0.0
  0
LINE
  5
1f7
100
AcDbEntity
  8
Cut
 62
7
100
AcDbLine
 10
2.463877
 20
58.117570
 30
0.0
 11
1.622502
 21
58.117570
 31
0.0
  0
LINE
  5
1f8
100
AcDbEntity
  8
Cut
 62
7
100
AcDbLine
 10
3.321348
 20
57.325143
 30
0.0
 11
4.908848
 21
57.325143
 31
0.0
  0
LINE
  5
1f9
100
AcDbEntity
  8
Cut
 62
7
100
AcDbLine
 10
4.908848
 20
57.325143
 30
0.0
 11
4.908848
 21
58.166518
 31
0.0
  0
LINE
  5
1fa
100
AcDbEntity
  8
Cut
 62
7
100
AcDbLine
 10
4.908848
 20
58.166518
 30
0.0
 11
3.321348
 21
58.166518
 31
0.0
  0
LINE
  5
1fb
100
AcDbEntity
  8
Cut
 62
7
100
AcDbLine
 10
3.321348
 20
58.166518
 30
0.0
 11
3.321348
 21
57.325143
 31
0.0
  0
LINE
  5
1fc
100
AcDbEntity
  8
Cut
 62
7
100
AcDbLine
 10
6.607693
 20
57.325143
 30
0.0
 11
8.195193
 21
57.325143
 31
0.0
  0
LINE
  5
1fd
100
AcDbEntity
  8
Cut
 62
7
100
AcDbLine
 10
8.195193
 20
57.325143
 30
0.0
 11
8.195193
 21
58.166518
 31
0.0
  0
LINE
  5
1fe
100
AcDbEntity
  8
Cut
 62
7
100
AcDbLine
 10
8.195193
 20
58.166518
 30
0.0
 11
6.607693
 21
58.166518
 31
0.0
  0
LINE
  5
1ff
100
AcDbEntity
  8
Cut
 62
7
100
AcDbLine
 10
6.607693
 20
58.166518
 30
0.0
 11
6.607693
 21
57.325143
 31
0.0
  0
LINE
  5
200
100
AcDbEntity
  8
Cut
 62
7
100
AcDbLine
 10
9.894039
 20
57.325143
 30
0.0
 11
11.481539
 21
57.325143
 31
0.0
  0
LINE
  5
201
100
AcDbEntity
  8
Cut
 62
7
100
AcDbLine
 10
11.481539
 20
57.325143
 30
0.0
 11
11.481539
 21
58.166518
 31
0.0
  0
LINE
  5
202
100
AcDbEntity
  8
Cut
 62
7
100
AcDbLine
 10
11.481539
 20
58.166518
 30
0.0
 11
9.894039
 21
58.166518
 31
0.0
  0
LINE
  5
203
100
AcDbEntity
  8
Cut
 62
7
100
AcDbLine
 10
9.894039
 20
58.166518
 30
0.0
 11
9.894039
 21
57.325143
 31
0.0
  0
LINE
  5
204
100
AcDbEntity
  8
Cut
 62
7
100
AcDbLine
 10
13.180385
 20
57.325143
 30
0.0
 11
14.767885
 21
57.325143
 31
0.0
  0
LINE
  5
205
100
AcDbEntity
  8
Cut
 62
7
100
AcDbLine
 10
14.767885
 20
57.325143
 30
0.0
 11
14.767885
 21
58.166518
 31
0.0
  0
LINE
  5
206
100
AcDbEntity
  8
Cut
 62
7
100
AcDbLine
 10
14.767885
 20
58.166518
 30
0.0
 11
13.180385
 21
58.166518
 31
0.0
  0
LINE
  5
207
100
AcDbEntity
  8
Cut
 62
7
100
AcDbLine
 10
13.180385
 20
58.166518
 30
0.0
 11
13.180385
 21
57.325143
 31
0.0
  0
LINE
  5
208
100
AcDbEntity
  8
Cut
 62
7
100
AcDbLine
 10
16.466730
 20
57.325143
 30
0.0
 11
18.054230
 21
57.325143
 31
0.0
  0
LINE
  5
209
100
AcDbEntity
  8
Cut
 62
7
100
AcDbLine
 10
18.054230
 20
57.325143
 30
0.0
 11
18.054230
 21
58.166518
 31
0.0
  0
LINE
  5
20a
100
AcDbEntity
  8
Cut
 62
7
100
AcDbLine
 10
18.054230
 20
58.166518
 30
0.0
 11
16.466730
 21
58.166518
 31
0.0
  0
LINE
  5
20b
100
AcDbEntity
  8
Cut
 62
7
100
AcDbLine
 10
16.466730
 20
58.166518
 30
0.0
 11
16.466730
 21
57.325143
 31
0.0
  0
LINE
  5
20c
100
AcDbEntity
  8
Cut
 62
7
100
AcDbLine
 10
19.753075
 20
57.325143
 30
0.0
 11
21.340575
 21
57.325143
 31
0.0
  0
LINE
  5
20d
100
AcDbEntity
  8
Cut
 62
7
100
AcDbLine
 10
21.340575
 20
57.325143
 30
0.0
 11
21.340575
 21
58.166518
 31
0.0
  0
LINE
  5
20e
100
AcDbEntity
  8
Cut
 62
7
100
AcDbLine
 10
21.340575
 20
58.166518
 30
0.0
 11
19.753075
 21
58.166518
 31
0.0
  0
LINE
  5
20f
100
AcDbEntity
  8
Cut
 62
7
100
AcDbLine
 10
19.753075
 20
58.166518
 30
0.0
 11
19.753075
 21
57.325143
 31
0.0
  0
LINE
  5
210
100
AcDbEntity
  8
Cut
 62
7
100
AcDbLine
 10
23.039420
 20
57.325143
 30
0.0
 11
24.626920
 21
57.325143
 31
0.0
  0
LINE
  5
211
100
AcDbEntity
  8
Cut
 62
7
100
AcDbLine
 10
24.626920
 20
57.325143
 30
0.0
 11
24.626920
 21
58.166518
 31
0.0
  0
LINE
  5
212
100
AcDbEntity
  8
Cut
 62
7
100
AcDbLine
 10
24.626920
 20
58.166518
 30
0.0
 11
23.039420
 21
58.166518
 31
0.0
  0
LINE
  5
213
100
AcDbEntity
  8
Cut
 62
7
100
AcDbLine
 10
23.039420
 20
58.166518
 30
0.0
 11
23.039420
 21
57.325143
 31
0.0
  0
LINE
  5
214
100
AcDbEntity
  8
Cut
 62
7
100
AcDbLine
 10
26.325767
 20
67.401800
 30
0.0
 11
27.913267
 21
67.401800
 31
0.0
  0
LINE
  5
215
100
AcDbEntity
  8
Cut
 62
7
100
AcDbLine
 10
27.913267
 20
67.401800
 30
0.0
 11
27.913267
 21
68.243175
 31
0.0
  0
LINE
  5
216
100
AcDbEntity
  8
Cut
 62
7
100
AcDbLine
 10
27.913267
 20
68.243175
 30
0.0
 11
26.325767
 21
68.243175
 31
0.0
  0
LINE
  5
217
100
AcDbEntity
  8
Cut
 62
7
100
AcDbLine
 10
26.325767
 20
68.243175
 30
0.0
 11
26.325767
 21
67.401800
 31
0.0
  0
LINE
  5
218
100
AcDbEntity
  8
Cut
 62
7
100
AcDbLine
 10
52.616532
 20
67.401800
 30
0.0
 11
54.204032
 21
67.401800
 31
0.0
  0
LINE
  5
219
100
AcDbEntity
  8
Cut
 62
7
100
AcDbLine
 10
54.204032
 20
67.401800
 30
0.0
 11
54.204032
 21
68.243175
 31
0.0
  0
LINE
  5
21a
100
AcDbEntity
  8
Cut
 62
7
100
AcDbLine
 10
54.204032
 20
68.243175
 30
0.0
 11
52.616532
 21
68.243175
 31
0.0
  0
LINE
  5
21b
100
AcDbEntity
  8
Cut
 62
7
100
AcDbLine
 10
52.616532
 20
68.243175
 30
0.0
 11
52.616532
 21
67.401800
 31
0.0
  0
LINE
  5
21c
100
AcDbEntity
  8
Cut
 62
7
100
AcDbLine
 10
55.902877
 20
57.325143
 30
0.0
 11
57.490377
 21
57.325143
 31
0.0
  0
LINE
  5
21d
100
AcDbEntity
  8
Cut
 62
7
100
AcDbLine
 10
57.490377
 20
57.325143
 30
0.0
 11
57.490377
 21
58.166518
 31
0.0
  0
LINE
  5
21e
100
AcDbEntity
  8
Cut
 62
7
100
AcDbLine
 10
57.490377
 20
58.166518
 30
0.0
 11
55.902877
 21
58.166518
 31
0.0
  0
LINE
  5
21f
100
AcDbEntity
  8
Cut
 62
7
100
AcDbLine
 10
55.902877
 20
58.166518
 30
0.0
 11
55.902877
 21
57.325143
 31
0.0
  0
LINE
  5
220
100
AcDbEntity
  8
Cut
 62
7
100
AcDbLine
 10
59.189221
 20
57.325143
 30
0.0
 11
60.776721
 21
57.325143
 31
0.0
  0
LINE
  5
221
100
AcDbEntity
  8
Cut
 62
7
100
AcDbLine
 10
60.776721
 20
57.325143
 30
0.0
 11
60.776721
 21
58.166518
 31
0.0
  0
LINE
  5
222
100
AcDbEntity
  8
Cut
 62
7
100
AcDbLine
 10
60.776721
 20
58.166518
 30
0.0
 11
59.189221
 21
58.166518
 31
0.0
  0
LINE
  5
223
100
AcDbEntity
  8
Cut
 62
7
100
AcDbLine
 10
59.189221
 20
58.166518
 30
0.0
 11
59.189221
 21
57.325143
 31
0.0
  0
LINE
  5
224
100
AcDbEntity
  8
Cut
 62
7
100
AcDbLine
 10
62.475569
 20
57.325143
 30
0.0
 11
64.063069
 21
57.325143
 31
0.0
  0
LINE
  5
225
100
AcDbEntity
  8
Cut
 62
7
100
AcDbLine
 10
64.063069
 20
57.325143
 30
0.0
 11
64.063069
 21
58.166518
 31
0.0
  0
LINE
  5
226
100
AcDbEntity
  8
Cut
 62
7
100
AcDbLine
 10
64.063069
 20
58.166518
 30
0.0
 11
62.475569
 21
58.166518
 31
0.0
  0
LINE
  5
227
100
AcDbEntity
  8
Cut
 62
7
100
AcDbLine
 10
62.475569
 20
58.166518
 30
0.0
 11
62.475569
 21
57.325143
 31
0.0
  0
LINE
  5
228
100
AcDbEntity
  8
Cut
 62
7
100
AcDbLine
 10
65.761913
 20
57.325143
 30
0.0
 11
67.349413
 21
57.325143
 31
0.0
  0
LINE
  5
229
100
AcDbEntity
  8
Cut
 62
7
100
AcDbLine
 10
67.349413
 20
57.325143
 30
0.0
 11
67.349413
 21
58.166518
 31
0.0
  0
LINE
  5
22a
100
AcDbEntity
  8
Cut
 62
7
100
AcDbLine
 10
67.349413
 20
58.166518
 30
0.0
 11
65.761913
 21
58.166518
 31
0.0
  0
LINE
  5
22b
100
AcDbEntity
  8
Cut
 62
7
100
AcDbLine
 10
65.761913
 20
58.166518
 30
0.0
 11
65.761913
 21
57.325143
 31
0.0
  0
LINE
  5
22c
100
AcDbEntity
  8
Cut
 62
7
100
AcDbLine
 10
69.048258
 20
57.325143
 30
0.0
 11
70.635758
 21
57.325143
 31
0.0
  0
LINE
  5
22d
100
AcDbEntity
  8
Cut
 62
7
100
AcDbLine
 10
70.635758
 20
57.325143
 30
0.0
 11
70.635758
 21
58.166518
 31
0.0
  0
LINE
  5
22e
100
AcDbEntity
  8
Cut
 62
7
100
AcDbLine
 10
70.635758
 20
58.166518
 30
0.0
 11
69.048258
 21
58.166518
 31
0.0
  0
LINE
  5
22f
100
AcDbEntity
  8
Cut
 62
7
100
AcDbLine
 10
69.048258
 20
58.166518
 30
0.0
 11
69.048258
 21
57.325143
 31
0.0
  0
LINE
  5
230
100
AcDbEntity
  8
Cut
 62
7
100
AcDbLine
 10
72.334605
 20
57.325143
 30
0.0
 11
73.922105
 21
57.325143
 31
0.0
  0
LINE
  5
231
100
AcDbEntity
  8
Cut
 62
7
100
AcDbLine
 10
73.922105
 20
57.325143
 30
0.0
 11
73.922105
 21
58.166518
 31
0.0
  0
LINE
  5
232
100
AcDbEntity
  8
Cut
 62
7
100
AcDbLine
 10
73.922105
 20
58.166518
 30
0.0
 11
72.334605
 21
58.166518
 31
0.0
  0
LINE
  5
233
100
AcDbEntity
  8
Cut
 62
7
100
AcDbLine
 10
72.334605
 20
58.166518
 30
0.0
 11
72.334605
 21
57.325143
 31
0.0
  0
LINE
  5
234
100
AcDbEntity
  8
Cut
 62
7
100
AcDbLine
 10
75.620950
 20
57.325143
 30
0.0
 11
77.208450
 21
57.325143
 31
0.0
  0
LINE
  5
235
100
AcDbEntity
  8
Cut
 62
7
100
AcDbLine
 10
77.208450
 20
57.325143
 30
0.0
 11
77.208450
 21
58.166518
 31
0.0
  0
LINE
  5
236
100
AcDbEntity
  8
Cut
 62
7
100
AcDbLine
 10
77.208450
 20
58.166518
 30
0.0
 11
75.620950
 21
58.166518
 31
0.0
  0
LINE
  5
237
100
AcDbEntity
  8
Cut
 62
7
100
AcDbLine
 10
75.620950
 20
58.166518
 30
0.0
 11
75.620950
 21
57.325143
 31
0.0
  0
LINE
  5
238
100
AcDbEntity
  8
Cut
 62
7
100
AcDbLine
 10
54.543141
 20
74.179983
 30
0.0
 11
54.543141
 21
72.592483
 31
0.0
  0
LINE
  5
239
100
AcDbEntity
  8
Cut
 62
7
100
AcDbLine
 10
54.543141
 20
72.592483
 30
0.0
 11
55.384516
 21
72.592483
 31
0.0
  0
LINE
  5
23a
100
AcDbEntity
  8
Cut
 62
7
100
AcDbLine
 10
55.384516
 20
72.592483
 30
0.0
 11
55.384516
 21
74.179983
 31
0.0
  0
LINE
  5
23b
100
AcDbEntity
  8
Cut
 62
7
100
AcDbLine
 10
55.384516
 20
74.179983
 30
0.0
 11
54.543141
 21
74.179983
 31
0.0
  0
LINE
  5
23c
100
AcDbEntity
  8
Cut
 62
7
100
AcDbLine
 10
54.543141
 20
70.967501
 30
0.0
 11
54.543141
 21
69.380001
 31
0.0
  0
LINE
  5
23d
100
AcDbEntity
  8
Cut
 62
7
100
AcDbLine
 10
54.543141
 20
69.380001
 30
0.0
 11
55.384516
 21
69.380001
 31
0.0
  0
LINE
  5
23e
100
AcDbEntity
  8
Cut
 62
7
100
AcDbLine
 10
55.384516
 20
69.380001
 30
0.0
 11
55.384516
 21
70.967501
 31
0.0
  0
LINE
  5
23f
100
AcDbEntity
  8
Cut
 62
7
100
AcDbLine
 10
55.384516
 20
70.967501
 30
0.0
 11
54.543141
 21
70.967501
 31
0.0
  0
LINE
  5
240
100
AcDbEntity
  8
Cut
 62
7
100
AcDbLine
 10
54.543141
 20
67.755019
 30
0.0
 11
54.543141
 21
66.167519
 31
0.0
  0
LINE
  5
241
100
AcDbEntity
  8
Cut
 62
7
100
AcDbLine
 10
54.543141
 20
66.167519
 30
0.0
 11
55.384516
 21
66.167519
 31
0.0
  0
LINE
  5
242
100
AcDbEntity
  8
Cut
 62
7
100
AcDbLine
 10
55.384516
 20
66.167519
 30
0.0
 11
55.384516
 21
67.755019
 31
0.0
  0
LINE
  5
243
100
AcDbEntity
  8
Cut
 62
7
100
AcDbLine
 10
55.384516
 20
67.755019
 30
0.0
 11
54.543141
 21
67.755019
 31
0.0
  0
LINE
  5
244
100
AcDbEntity
  8
Cut
 62
7
100
AcDbLine
 10
54.543141
 20
64.542536
 30
0.0
 11
54.543141
 21
62.955036
 31
0.0
  0
LINE
  5
245
100
AcDbEntity
  8
Cut
 62
7
100
AcDbLine
 10
54.543141
 20
62.955036
 30
0.0
 11
55.384516
 21
62.955036
 31
0.0
  0
LINE
  5
246
100
AcDbEntity
  8
Cut
 62
7
100
AcDbLine
 10
55.384516
 20
62.955036
 30
0.0
 11
55.384516
 21
64.542536
 31
0.0
  0
LINE
  5
247
100
AcDbEntity
  8
Cut
 62
7
100
AcDbLine
 10
55.384516
 20
64.542536
 30
0.0
 11
54.543141
 21
64.542536
 31
0.0
  0
LINE
  5
248
100
AcDbEntity
  8
Cut
 62
7
100
AcDbLine
 10
54.543141
 20
61.330053
 30
0.0
 11
54.543141
 21
59.742553
 31
0.0
  0
LINE
  5
249
100
AcDbEntity
  8
Cut
 62
7
100
AcDbLine
 10
54.543141
 20
59.742553
 30
0.0
 11
55.384516
 21
59.742553
 31
0.0
  0
LINE
  5
24a
100
AcDbEntity
  8
Cut
 62
7
100
AcDbLine
 10
55.384516
 20
59.742553
 30
0.0
 11
55.384516
 21
61.330053
 31
0.0
  0
LINE
  5
24b
100
AcDbEntity
  8
Cut
 62
7
100
AcDbLine
 10
55.384516
 20
61.330053
 30
0.0
 11
54.543141
 21
61.330053
 31
0.0
  0
LINE
  5
24c
100
AcDbEntity
  8
Cut
 62
7
100
AcDbLine
 10
54.543141
 20
58.117570
 30
0.0
 11
54.543141
 21
56.530070
 31
0.0
  0
LINE
  5
24d
100
AcDbEntity
  8
Cut
 62
7
100
AcDbLine
 10
54.543141
 20
56.530070
 30
0.0
 11
55.384516
 21
56.530070
 31
0.0
  0
LINE
  5
24e
100
AcDbEntity
  8
Cut
 62
7
100
AcDbLine
 10
55.384516
 20
56.530070
 30
0.0
 11
55.384516
 21
58.117570
 31
0.0
  0
LINE
  5
24f
100
AcDbEntity
  8
Cut
 62
7
100
AcDbLine
 10
55.384516
 20
58.117570
 30
0.0
 11
54.543141
 21
58.117570
 31
0.0
  0
LINE
  5
250
100
AcDbEntity
  8
Cut
 62
7
100
AcDbLine
 10
54.543141
 20
54.905089
 30
0.0
 11
54.543141
 21
53.317589
 31
0.0
  0
LINE
  5
251
100
AcDbEntity
  8
Cut
 62
7
100
AcDbLine
 10
54.543141
 20
53.317589
 30
0.0
 11
55.384516
 21
53.317589
 31
0.0
  0
LINE
  5
252
100
AcDbEntity
  8
Cut
 62
7
100
AcDbLine
 10
55.384516
 20
53.317589
 30
0.0
 11
55.384516
 21
54.905089
 31
0.0
  0
LINE
  5
253
100
AcDbEntity
  8
Cut
 62
7
100
AcDbLine
 10
55.384516
 20
54.905089
 30
0.0
 11
54.543141
 21
54.905089
 31
0.0
  0
LINE
  5
254
100
AcDbEntity
  8
Cut
 62
7
100
AcDbLine
 10
54.543141
 20
51.692606
 30
0.0
 11
54.543141
 21
50.105106
 31
0.0
  0
LINE
  5
255
100
AcDbEntity
  8
Cut
 62
7
100
AcDbLine
 10
54.543141
 20
50.105106
 30
0.0
 11
55.384516
 21
50.105106
 31
0.0
  0
LINE
  5
256
100
AcDbEntity
  8
Cut
 62
7
100
AcDbLine
 10
55.384516
 20
50.105106
 30
0.0
 11
55.384516
 21
51.692606
 31
0.0
  0
LINE
  5
257
100
AcDbEntity
  8
Cut
 62
7
100
AcDbLine
 10
55.384516
 20
51.692606
 30
0.0
 11
54.543141
 21
51.692606
 31
0.0
  0
LINE
  5
258
100
AcDbEntity
  8
Cut
 62
7
100
AcDbLine
 10
54.543141
 20
48.480122
 30
0.0
 11
54.543141
 21
46.892622
 31
0.0
  0
LINE
  5
259
100
AcDbEntity
  8
Cut
 62
7
100
AcDbLine
 10
54.543141
 20
46.892622
 30
0.0
 11
55.384516
 21
46.892622
 31
0.0
  0
LINE
  5
25a
100
AcDbEntity
  8
Cut
 62
7
100
AcDbLine
 10
55.384516
 20
46.892622
 30
0.0
 11
55.384516
 21
48.480122
 31
0.0
  0
LINE
  5
25b
100
AcDbEntity
  8
Cut
 62
7
100
AcDbLine
 10
55.384516
 20
48.480122
 30
0.0
 11
54.543141
 21
48.480122
 31
0.0
  0
LINE
  5
25c
100
AcDbEntity
  8
Cut
 62
7
100
AcDbLine
 10
54.543141
 20
45.267641
 30
0.0
 11
54.543141
 21
43.680141
 31
0.0
  0
LINE
  5
25d
100
AcDbEntity
  8
Cut
 62
7
100
AcDbLine
 10
54.543141
 20
43.680141
 30
0.0
 11
55.384516
 21
43.680141
 31
0.0
  0
LINE
  5
25e
100
AcDbEntity
  8
Cut
 62
7
100
AcDbLine
 10
55.384516
 20
43.680141
 30
0.0
 11
55.384516
 21
45.267641
 31
0.0
  0
LINE
  5
25f
100
AcDbEntity
  8
Cut
 62
7
100
AcDbLine
 10
55.384516
 20
45.267641
 30
0.0
 11
54.543141
 21
45.267641
 31
0.0
  0
LINE
  5
260
100
AcDbEntity
  8
Cut
 62
7
100
AcDbLine
 10
54.543141
 20
42.055158
 30
0.0
 11
54.543141
 21
40.467658
 31
0.0
  0
LINE
  5
261
100
AcDbEntity
  8
Cut
 62
7
100
AcDbLine
 10
54.543141
 20
40.467658
 30
0.0
 11
55.384516
 21
40.467658
 31
0.0
  0
LINE
  5
262
100
AcDbEntity
  8
Cut
 62
7
100
AcDbLine
 10
55.384516
 20
40.467658
 30
0.0
 11
55.384516
 21
42.055158
 31
0.0
  0
LINE
  5
263
100
AcDbEntity
  8
Cut
 62
7
100
AcDbLine
 10
55.384516
 20
42.055158
 30
0.0
 11
54.543141
 21
42.055158
 31
0.0
  0
LINE
  5
264
100
AcDbEntity
  8
Cut
 62
7
100
AcDbLine
 10
54.543141
 20
83.288265
 30
0.0
 11
54.543141
 21
81.700765
 31
0.0
  0
LINE
  5
265
100
AcDbEntity
  8
Cut
 62
7
100
AcDbLine
 10
54.543141
 20
81.700765
 30
0.0
 11
55.384516
 21
81.700765
 31
0.0
  0
LINE
  5
266
100
AcDbEntity
  8
Cut
 62
7
100
AcDbLine
 10
55.384516
 20
81.700765
 30
0.0
 11
55.384516
 21
83.288265
 31
0.0
  0
LINE
  5
267
100
AcDbEntity
  8
Cut
 62
7
100
AcDbLine
 10
55.384516
 20
83.288265
 30
0.0
 11
54.543141
 21
83.288265
 31
0.0
  0
LINE
  5
268
100
AcDbEntity
  8
Cut
 62
7
100
AcDbLine
 10
54.543141
 20
79.678907
 30
0.0
 11
54.543141
 21
78.091407
 31
0.0
  0
LINE
  5
269
100
AcDbEntity
  8
Cut
 62
7
100
AcDbLine
 10
54.543141
 20
78.091407
 30
0.0
 11
55.384516
 21
78.091407
 31
0.0
  0
LINE
  5
26a
100
AcDbEntity
  8
Cut
 62
7
100
AcDbLine
 10
55.384516
 20
78.091407
 30
0.0
 11
55.384516
 21
79.678907
 31
0.0
  0
LINE
  5
26b
100
AcDbEntity
  8
Cut
 62
7
100
AcDbLine
 10
55.384516
 20
79.678907
 30
0.0
 11
54.543141
 21
79.678907
 31
0.0
  0
LINE
  5
26c
100
AcDbEntity
  8
Cut
 62
7
100
AcDbLine
 10
25.145284
 20
74.179983
 30
0.0
 11
25.145284
 21
72.592483
 31
0.0
  0
LINE
  5
26d
100
AcDbEntity
  8
Cut
 62
7
100
AcDbLine
 10
25.145284
 20
72.592483
 30
0.0
 11
25.986659
 21
72.592483
 31
0.0
  0
LINE
  5
26e
100
AcDbEntity
  8
Cut
 62
7
100
AcDbLine
 10
25.986659
 20
72.592483
 30
0.0
 11
25.986659
 21
74.179983
 31
0.0
  0
LINE
  5
26f
100
AcDbEntity
  8
Cut
 62
7
100
AcDbLine
 10
25.986659
 20
74.179983
 30
0.0
 11
25.145284
 21
74.179983
 31
0.0
  0
LINE
  5
270
100
AcDbEntity
  8
Cut
 62
7
100
AcDbLine
 10
25.145284
 20
70.967501
 30
0.0
 11
25.145284
 21
69.380001
 31
0.0
  0
LINE
  5
271
100
AcDbEntity
  8
Cut
 62
7
100
AcDbLine
 10
25.145284
 20
69.380001
 30
0.0
 11
25.986659
 21
69.380001
 31
0.0
  0
LINE
  5
272
100
AcDbEntity
  8
Cut
 62
7
100
AcDbLine
 10
25.986659
 20
69.380001
 30
0.0
 11
25.986659
 21
70.967501
 31
0.0
  0
LINE
  5
273
100
AcDbEntity
  8
Cut
 62
7
100
AcDbLine
 10
25.986659
 20
70.967501
 30
0.0
 11
25.145284
 21
70.967501
 31
0.0
  0
LINE
  5
274
100
AcDbEntity
  8
Cut
 62
7
100
AcDbLine
 10
25.145284
 20
67.755019
 30
0.0
 11
25.145284
 21
66.167519
 31
0.0
  0
LINE
  5
275
100
AcDbEntity
  8
Cut
 62
7
100
AcDbLine
 10
25.145284
 20
66.167519
 30
0.0
 11
25.986659
 21
66.167519
 31
0.0
  0
LINE
  5
276
100
AcDbEntity
  8
Cut
 62
7
100
AcDbLine
 10
25.986659
 20
66.167519
 30
0.0
 11
25.986659
 21
67.755019
 31
0.0
  0
LINE
  5
277
100
AcDbEntity
  8
Cut
 62
7
100
AcDbLine
 10
25.986659
 20
67.755019
 30
0.0
 11
25.145284
 21
67.755019
 31
0.0
  0
LINE
  5
278
100
AcDbEntity
  8
Cut
 62
7
100
AcDbLine
 10
25.145284
 20
64.542536
 30
0.0
 11
25.145284
 21
62.955036
 31
0.0
  0
LINE
  5
279
100
AcDbEntity
  8
Cut
 62
7
100
AcDbLine
 10
25.145284
 20
62.955036
 30
0.0
 11
25.986659
 21
62.955036
 31
0.0
  0
LINE
  5
27a
100
AcDbEntity
  8
Cut
 62
7
100
AcDbLine
 10
25.986659
 20
62.955036
 30
0.0
 11
25.986659
 21
64.542536
 31
0.0
  0
LINE
  5
27b
100
AcDbEntity
  8
Cut
 62
7
100
AcDbLine
 10
25.986659
 20
64.542536
 30
0.0
 11
25.145284
 21
64.542536
 31
0.0
  0
LINE
  5
27c
100
AcDbEntity
  8
Cut
 62
7
100
AcDbLine
 10
25.145284
 20
61.330053
 30
0.0
 11
25.145284
 21
59.742553
 31
0.0
  0
LINE
  5
27d
100
AcDbEntity
  8
Cut
 62
7
100
AcDbLine
 10
25.145284
 20
59.742553
 30
0.0
 11
25.986659
 21
59.742553
 31
0.0
  0
LINE
  5
27e
100
AcDbEntity
  8
Cut
 62
7
100
AcDbLine
 10
25.986659
 20
59.742553
 30
0.0
 11
25.986659
 21
61.330053
 31
0.0
  0
LINE
  5
27f
100
AcDbEntity
  8
Cut
 62
7
100
AcDbLine
 10
25.986659
 20
61.330053
 30
0.0
 11
25.145284
 21
61.330053
 31
0.0
  0
LINE
  5
280
100
AcDbEntity
  8
Cut
 62
7
100
AcDbLine
 10
25.145284
 20
58.117570
 30
0.0
 11
25.145284
 21
56.530070
 31
0.0
  0
LINE
  5
281
100
AcDbEntity
  8
Cut
 62
7
100
AcDbLine
 10
25.145284
 20
56.530070
 30
0.0
 11
25.986659
 21
56.530070
 31
0.0
  0
LINE
  5
282
100
AcDbEntity
  8
Cut
 62
7
100
AcDbLine
 10
25.986659
 20
56.530070
 30
0.0
 11
25.986659
 21
58.117570
 31
0.0
  0
LINE
  5
283
100
AcDbEntity
  8
Cut
 62
7
100
AcDbLine
 10
25.986659
 20
58.117570
 30
0.0
 11
25.145284
 21
58.117570
 31
0.0
  0
LINE
  5
284
100
AcDbEntity
  8
Cut
 62
7
100
AcDbLine
 10
25.145284
 20
54.905089
 30
0.0
 11
25.145284
 21
53.317589
 31
0.0
  0
LINE
  5
285
100
AcDbEntity
  8
Cut
 62
7
100
AcDbLine
 10
25.145284
 20
53.317589
 30
0.0
 11
25.986659
 21
53.317589
 31
0.0
  0
LINE
  5
286
100
AcDbEntity
  8
Cut
 62
7
100
AcDbLine
 10
25.986659
 20
53.317589
 30
0.0
 11
25.986659
 21
54.905089
 31
0.0
  0
LINE
  5
287
100
AcDbEntity
  8
Cut
 62
7
100
AcDbLine
 10
25.986659
 20
54.905089
 30
0.0
 11
25.145284
 21
54.905089
 31
0.0
  0
LINE
  5
288
100
AcDbEntity
  8
Cut
 62
7
100
AcDbLine
 10
25.145284
 20
51.692606
 30
0.0
 11
25.145284
 21
50.105106
 31
0.0
  0
LINE
  5
289
100
AcDbEntity
  8
Cut
 62
7
100
AcDbLine
 10
25.145284
 20
50.105106
 30
0.0
 11
25.986659
 21
50.105106
 31
0.0
  0
LINE
  5
28a
100
AcDbEntity
  8
Cut
 62
7
100
AcDbLine
 10
25.986659
 20
50.105106
 30
0.0
 11
25.986659
 21
51.692606
 31
0.0
  0
LINE
  5
28b
100
AcDbEntity
  8
Cut
 62
7
100
AcDbLine
 10
25.986659
 20
51.692606
 30
0.0
 11
25.145284
 21
51.692606
 31
0.0
  0
LINE
  5
28c
100
AcDbEntity
  8
Cut
 62
7
100
AcDbLine
 10
25.145284
 20
48.480122
 30
0.0
 11
25.145284
 21
46.892622
 31
0.0
  0
LINE
  5
28d
100
AcDbEntity
  8
Cut
 62
7
100
AcDbLine
 10
25.145284
 20
46.892622
 30
0.0
 11
25.986659
 21
46.892622
 31
0.0
  0
LINE
  5
28e
100
AcDbEntity
  8
Cut
 62
7
100
AcDbLine
 10
25.986659
 20
46.892622
 30
0.0
 11
25.986659
 21
48.480122
 31
0.0
  0
LINE
  5
28f
100
AcDbEntity
  8
Cut
 62
7
100
AcDbLine
 10
25.986659
 20
48.480122
 30
0.0
 11
25.145284
 21
48.480122
 31
0.0
  0
LINE
  5
290
100
AcDbEntity
  8
Cut
 62
7
100
AcDbLine
 10
25.145284
 20
45.267641
 30
0.0
 11
25.145284
 21
43.680141
 31
0.0
  0
LINE
  5
291
100
AcDbEntity
  8
Cut
 62
7
100
AcDbLine
 10
25.145284
 20
43.680141
 30
0.0
 11
25.986659
 21
43.680141
 31
0.0
  0
LINE
  5
292
100
AcDbEntity
  8
Cut
 62
7
100
AcDbLine
 10
25.986659
 20
43.680141
 30
0.0
 11
25.986659
 21
45.267641
 31
0.0
  0
LINE
  5
293
100
AcDbEntity
  8
Cut
 62
7
100
AcDbLine
 10
25.986659
 20
45.267641
 30
0.0
 11
25.145284
 21
45.267641
 31
0.0
  0
LINE
  5
294
100
AcDbEntity
  8
Cut
 62
7
100
AcDbLine
 10
25.145284
 20
42.055158
 30
0.0
 11
25.145284
 21
40.467658
 31
0.0
  0
LINE
  5
295
100
AcDbEntity
  8
Cut
 62
7
100
AcDbLine
 10
25.145284
 20
40.467658
 30
0.0
 11
25.986659
 21
40.467658
 31
0.0
  0
LINE
  5
296
100
AcDbEntity
  8
Cut
 62
7
100
AcDbLine
 10
25.986659
 20
40.467658
 30
0.0
 11
25.986659
 21
42.055158
 31
0.0
  0
LINE
  5
297
100
AcDbEntity
  8
Cut
 62
7
100
AcDbLine
 10
25.986659
 20
42.055158
 30
0.0
 11
25.145284
 21
42.055158
 31
0.0
  0
LINE
  5
298
100
AcDbEntity
  8
Cut
 62
7
100
AcDbLine
 10
25.145284
 20
83.288265
 30
0.0
 11
25.145284
 21
81.700765
 31
0.0
  0
LINE
  5
299
100
AcDbEntity
  8
Cut
 62
7
100
AcDbLine
 10
25.145284
 20
81.700765
 30
0.0
 11
25.986659
 21
81.700765
 31
0.0
  0
LINE
  5
29a
100
AcDbEntity
  8
Cut
 62
7
100
AcDbLine
 10
25.986659
 20
81.700765
 30
0.0
 11
25.986659
 21
83.288265
 31
0.0
  0
LINE
  5
29b
100
AcDbEntity
  8
Cut
 62
7
100
AcDbLine
 10
25.986659
 20
83.288265
 30
0.0
 11
25.145284
 21
83.288265
 31
0.0
  0
LINE
  5
29c
100
AcDbEntity
  8
Cut
 62
7
100
AcDbLine
 10
25.145284
 20
79.678907
 30
0.0
 11
25.145284
 21
78.091407
 31
0.0
  0
LINE
  5
29d
100
AcDbEntity
  8
Cut
 62
7
100
AcDbLine
 10
25.145284
 20
78.091407
 30
0.0
 11
25.986659
 21
78.091407
 31
0.0
  0
LINE
  5
29e
100
AcDbEntity
  8
Cut
 62
7
100
AcDbLine
 10
25.986659
 20
78.091407
 30
0.0
 11
25.986659
 21
79.678907
 31
0.0
  0
LINE
  5
29f
100
AcDbEntity
  8
Cut
 62
7
100
AcDbLine
 10
25.986659
 20
79.678907
 30
0.0
 11
25.145284
 21
79.678907
 31
0.0
  0
LINE
  5
2a0
100
AcDbEntity
  8
Cut
 62
7
100
AcDbLine
 10
1.622543
 20
85.308863
 30
0.0
 11
1.622543
 21
84.468811
 31
0.0
  0
LINE
  5
2a1
100
AcDbEntity
  8
Cut
 62
7
100
AcDbLine
 10
1.622543
 20
84.468811
 30
0.0
 11
1.622543
 21
76.910940
 31
0.0
  0
LINE
  5
2a2
100
AcDbEntity
  8
Cut
 62
7
100
AcDbLine
 10
1.622543
 20
76.910940
 30
0.0
 11
3.321379
 21
76.910940
 31
0.0
  0
LINE
  5
2a3
100
AcDbEntity
  8
Cut
 62
7
100
AcDbLine
 10
3.321379
 20
76.910940
 30
0.0
 11
3.321379
 21
76.069521
 31
0.0
  0
LINE
  5
2a4
100
AcDbEntity
  8
Cut
 62
7
100
AcDbLine
 10
3.321379
 20
76.069521
 30
0.0
 11
4.908782
 21
76.069521
 31
0.0
  0
LINE
  5
2a5
100
AcDbEntity
  8
Cut
 62
7
100
AcDbLine
 10
4.908782
 20
76.069521
 30
0.0
 11
4.908782
 21
76.910940
 31
0.0
  0
LINE
  5
2a6
100
AcDbEntity
  8
Cut
 62
7
100
AcDbLine
 10
4.908782
 20
76.910940
 30
0.0
 11
6.607754
 21
76.910940
 31
0.0
  0
LINE
  5
2a7
100
AcDbEntity
  8
Cut
 62
7
100
AcDbLine
 10
6.607754
 20
76.910940
 30
0.0
 11
6.607754
 21
76.069521
 31
0.0
  0
LINE
  5
2a8
100
AcDbEntity
  8
Cut
 62
7
100
AcDbLine
 10
6.607754
 20
76.069521
 30
0.0
 11
8.195157
 21
76.069521
 31
0.0
  0
LINE
  5
2a9
100
AcDbEntity
  8
Cut
 62
7
100
AcDbLine
 10
8.195157
 20
76.069521
 30
0.0
 11
8.195157
 21
76.910940
 31
0.0
  0
LINE
  5
2aa
100
AcDbEntity
  8
Cut
 62
7
100
AcDbLine
 10
8.195157
 20
76.910940
 30
0.0
 11
9.893993
 21
76.910940
 31
0.0
  0
LINE
  5
2ab
100
AcDbEntity
  8
Cut
 62
7
100
AcDbLine
 10
9.893993
 20
76.910940
 30
0.0
 11
9.893993
 21
76.069521
 31
0.0
  0
LINE
  5
2ac
100
AcDbEntity
  8
Cut
 62
7
100
AcDbLine
 10
9.893993
 20
76.069521
 30
0.0
 11
11.481533
 21
76.069521
 31
0.0
  0
LINE
  5
2ad
100
AcDbEntity
  8
Cut
 62
7
100
AcDbLine
 10
11.481533
 20
76.069521
 30
0.0
 11
11.481533
 21
76.910940
 31
0.0
  0
LINE
  5
2ae
100
AcDbEntity
  8
Cut
 62
7
100
AcDbLine
 10
11.481533
 20
76.910940
 30
0.0
 11
13.180369
 21
76.910940
 31
0.0
  0
LINE
  5
2af
100
AcDbEntity
  8
Cut
 62
7
100
AcDbLine
 10
13.180369
 20
76.910940
 30
0.0
 11
13.180369
 21
76.069521
 31
0.0
  0
LINE
  5
2b0
100
AcDbEntity
  8
Cut
 62
7
100
AcDbLine
 10
13.180369
 20
76.069521
 30
0.0
 11
14.767908
 21
76.069521
 31
0.0
  0
LINE
  5
2b1
100
AcDbEntity
  8
Cut
 62
7
100
AcDbLine
 10
14.767908
 20
76.069521
 30
0.0
 11
14.767908
 21
76.910940
 31
0.0
  0
LINE
  5
2b2
100
AcDbEntity
  8
Cut
 62
7
100
AcDbLine
 10
14.767908
 20
76.910940
 30
0.0
 11
16.466744
 21
76.910940
 31
0.0
  0
LINE
  5
2b3
100
AcDbEntity
  8
Cut
 62
7
100
AcDbLine
 10
16.466744
 20
76.910940
 30
0.0
 11
16.466744
 21
76.069521
 31
0.0
  0
LINE
  5
2b4
100
AcDbEntity
  8
Cut
 62
7
100
AcDbLine
 10
16.466744
 20
76.069521
 30
0.0
 11
18.054284
 21
76.069521
 31
0.0
  0
LINE
  5
2b5
100
AcDbEntity
  8
Cut
 62
7
100
AcDbLine
 10
18.054284
 20
76.069521
 30
0.0
 11
18.054284
 21
76.910940
 31
0.0
  0
LINE
  5
2b6
100
AcDbEntity
  8
Cut
 62
7
100
AcDbLine
 10
18.054284
 20
76.910940
 30
0.0
 11
19.753119
 21
76.910940
 31
0.0
  0
LINE
  5
2b7
100
AcDbEntity
  8
Cut
 62
7
100
AcDbLine
 10
19.753119
 20
76.910940
 30
0.0
 11
19.753119
 21
76.069521
 31
0.0
  0
LINE
  5
2b8
100
AcDbEntity
  8
Cut
 62
7
100
AcDbLine
 10
19.753119
 20
76.069521
 30
0.0
 11
21.340523
 21
76.069521
 31
0.0
  0
LINE
  5
2b9
100
AcDbEntity
  8
Cut
 62
7
100
AcDbLine
 10
21.340523
 20
76.069521
 30
0.0
 11
21.340523
 21
76.910940
 31
0.0
  0
LINE
  5
2ba
100
AcDbEntity
  8
Cut
 62
7
100
AcDbLine
 10
21.340523
 20
76.910940
 30
0.0
 11
23.039358
 21
76.910940
 31
0.0
  0
LINE
  5
2bb
100
AcDbEntity
  8
Cut
 62
7
100
AcDbLine
 10
23.039358
 20
76.910940
 30
0.0
 11
23.039358
 21
76.069521
 31
0.0
  0
LINE
  5
2bc
100
AcDbEntity
  8
Cut
 62
7
100
AcDbLine
 10
23.039358
 20
76.069521
 30
0.0
 11
24.626899
 21
76.069521
 31
0.0
  0
LINE
  5
2bd
100
AcDbEntity
  8
Cut
 62
7
100
AcDbLine
 10
24.626899
 20
76.069521
 30
0.0
 11
24.626899
 21
76.910940
 31
0.0
  0
LINE
  5
2be
100
AcDbEntity
  8
Cut
 62
7
100
AcDbLine
 10
24.626899
 20
76.910940
 30
0.0
 11
26.325734
 21
76.910940
 31
0.0
  0
LINE
  5
2bf
100
AcDbEntity
  8
Cut
 62
7
100
AcDbLine
 10
26.325734
 20
76.910940
 30
0.0
 11
26.325734
 21
76.069521
 31
0.0
  0
LINE
  5
2c0
100
AcDbEntity
  8
Cut
 62
7
100
AcDbLine
 10
26.325734
 20
76.069521
 30
0.0
 11
27.913274
 21
76.069521
 31
0.0
  0
LINE
  5
2c1
100
AcDbEntity
  8
Cut
 62
7
100
AcDbLine
 10
27.913274
 20
76.069521
 30
0.0
 11
27.913274
 21
76.910940
 31
0.0
  0
LINE
  5
2c2
100
AcDbEntity
  8
Cut
 62
7
100
AcDbLine
 10
27.913274
 20
76.910940
 30
0.0
 11
29.612110
 21
76.910940
 31
0.0
  0
LINE
  5
2c3
100
AcDbEntity
  8
Cut
 62
7
100
AcDbLine
 10
29.612110
 20
76.910940
 30
0.0
 11
29.612110
 21
76.069521
 31
0.0
  0
LINE
  5
2c4
100
AcDbEntity
  8
Cut
 62
7
100
AcDbLine
 10
29.612110
 20
76.069521
 30
0.0
 11
31.199649
 21
76.069521
 31
0.0
  0
LINE
  5
2c5
100
AcDbEntity
  8
Cut
 62
7
100
AcDbLine
 10
31.199649
 20
76.069521
 30
0.0
 11
31.199649
 21
76.910940
 31
0.0
  0
LINE
  5
2c6
100
AcDbEntity
  8
Cut
 62
7
100
AcDbLine
 10
31.199649
 20
76.910940
 30
0.0
 11
32.898485
 21
76.910940
 31
0.0
  0
LINE
  5
2c7
100
AcDbEntity
  8
Cut
 62
7
100
AcDbLine
 10
32.898485
 20
76.910940
 30
0.0
 11
32.898485
 21
76.069521
 31
0.0
  0
LINE
  5
2c8
100
AcDbEntity
  8
Cut
 62
7
100
AcDbLine
 10
32.898485
 20
76.069521
 30
0.0
 11
34.486025
 21
76.069521
 31
0.0
  0
LINE
  5
2c9
100
AcDbEntity
  8
Cut
 62
7
100
AcDbLine
 10
34.486025
 20
76.069521
 30
0.0
 11
34.486025
 21
76.910940
 31
0.0
  0
LINE
  5
2ca
100
AcDbEntity
  8
Cut
 62
7
100
AcDbLine
 10
34.486025
 20
76.910940
 30
0.0
 11
36.184861
 21
76.910940
 31
0.0
  0
LINE
  5
2cb
100
AcDbEntity
  8
Cut
 62
7
100
AcDbLine
 10
36.184861
 20
76.910940
 30
0.0
 11
36.184861
 21
76.069521
 31
0.0
  0
LINE
  5
2cc
100
AcDbEntity
  8
Cut
 62
7
100
AcDbLine
 10
36.184861
 20
76.069521
 30
0.0
 11
37.772264
 21
76.069521
 31
0.0
  0
LINE
  5
2cd
100
AcDbEntity
  8
Cut
 62
7
100
AcDbLine
 10
37.772264
 20
76.069521
 30
0.0
 11
37.772264
 21
76.910940
 31
0.0
  0
LINE
  5
2ce
100
AcDbEntity
  8
Cut
 62
7
100
AcDbLine
 10
37.772264
 20
76.910940
 30
0.0
 11
39.471100
 21
76.910940
 31
0.0
  0
LINE
  5
2cf
100
AcDbEntity
  8
Cut
 62
7
100
AcDbLine
 10
39.471100
 20
76.910940
 30
0.0
 11
39.471100
 21
76.069521
 31
0.0
  0
LINE
  5
2d0
100
AcDbEntity
  8
Cut
 62
7
100
AcDbLine
 10
39.471100
 20
76.069521
 30
0.0
 11
41.058640
 21
76.069521
 31
0.0
  0
LINE
  5
2d1
100
AcDbEntity
  8
Cut
 62
7
100
AcDbLine
 10
41.058640
 20
76.069521
 30
0.0
 11
41.058640
 21
76.910940
 31
0.0
  0
LINE
  5
2d2
100
AcDbEntity
  8
Cut
 62
7
100
AcDbLine
 10
41.058640
 20
76.910940
 30
0.0
 11
42.757476
 21
76.910940
 31
0.0
  0
LINE
  5
2d3
100
AcDbEntity
  8
Cut
 62
7
100
AcDbLine
 10
42.757476
 20
76.910940
 30
0.0
 11
42.757476
 21
76.069521
 31
0.0
  0
LINE
  5
2d4
100
AcDbEntity
  8
Cut
 62
7
100
AcDbLine
 10
42.757476
 20
76.069521
 30
0.0
 11
44.345015
 21
76.069521
 31
0.0
  0
LINE
  5
2d5
100
AcDbEntity
  8
Cut
 62
7
100
AcDbLine
 10
44.345015
 20
76.069521
 30
0.0
 11
44.345015
 21
76.910940
 31
0.0
  0
LINE
  5
2d6
100
AcDbEntity
  8
Cut
 62
7
100
AcDbLine
 10
44.345015
 20
76.910940
 30
0.0
 11
46.043851
 21
76.910940
 31
0.0
  0
LINE
  5
2d7
100
AcDbEntity
  8
Cut
 62
7
100
AcDbLine
 10
46.043851
 20
76.910940
 30
0.0
 11
46.043851
 21
76.069521
 31
0.0
  0
LINE
  5
2d8
100
AcDbEntity
  8
Cut
 62
7
100
AcDbLine
 10
46.043851
 20
76.069521
 30
0.0
 11
47.631391
 21
76.069521
 31
0.0
  0
LINE
  5
2d9
100
AcDbEntity
  8
Cut
 62
7
100
AcDbLine
 10
47.631391
 20
76.069521
 30
0.0
 11
47.631391
 21
76.910940
 31
0.0
  0
LINE
  5
2da
100
AcDbEntity
  8
Cut
 62
7
100
AcDbLine
 10
47.631391
 20
76.910940
 30
0.0
 11
49.330227
 21
76.910940
 31
0.0
  0
LINE
  5
2db
100
AcDbEntity
  8
Cut
 62
7
100
AcDbLine
 10
49.330227
 20
76.910940
 30
0.0
 11
49.330227
 21
76.069521
 31
0.0
  0
LINE
  5
2dc
100
AcDbEntity
  8
Cut
 62
7
100
AcDbLine
 10
49.330227
 20
76.069521
 30
0.0
 11
50.917630
 21
76.069521
 31
0.0
  0
LINE
  5
2dd
100
AcDbEntity
  8
Cut
 62
7
100
AcDbLine
 10
50.917630
 20
76.069521
 30
0.0
 11
50.917630
 21
76.910940
 31
0.0
  0
LINE
  5
2de
100
AcDbEntity
  8
Cut
 62
7
100
AcDbLine
 10
50.917630
 20
76.910940
 30
0.0
 11
52.616465
 21
76.910940
 31
0.0
  0
LINE
  5
2df
100
AcDbEntity
  8
Cut
 62
7
100
AcDbLine
 10
52.616465
 20
76.910940
 30
0.0
 11
52.616465
 21
76.069521
 31
0.0
  0
LINE
  5
2e0
100
AcDbEntity
  8
Cut
 62
7
100
AcDbLine
 10
52.616465
 20
76.069521
 30
0.0
 11
54.204005
 21
76.069521
 31
0.0
  0
LINE
  5
2e1
100
AcDbEntity
  8
Cut
 62
7
100
AcDbLine
 10
54.204005
 20
76.069521
 30
0.0
 11
54.204005
 21
76.910940
 31
0.0
  0
LINE
  5
2e2
100
AcDbEntity
  8
Cut
 62
7
100
AcDbLine
 10
54.204005
 20
76.910940
 30
0.0
 11
55.902841
 21
76.910940
 31
0.0
  0
LINE
  5
2e3
100
AcDbEntity
  8
Cut
 62
7
100
AcDbLine
 10
55.902841
 20
76.910940
 30
0.0
 11
55.902841
 21
76.069521
 31
0.0
  0
LINE
  5
2e4
100
AcDbEntity
  8
Cut
 62
7
100
AcDbLine
 10
55.902841
 20
76.069521
 30
0.0
 11
57.490381
 21
76.069521
 31
0.0
  0
LINE
  5
2e5
100
AcDbEntity
  8
Cut
 62
7
100
AcDbLine
 10
57.490381
 20
76.069521
 30
0.0
 11
57.490381
 21
76.910940
 31
0.0
  0
LINE
  5
2e6
100
AcDbEntity
  8
Cut
 62
7
100
AcDbLine
 10
57.490381
 20
76.910940
 30
0.0
 11
59.189217
 21
76.910940
 31
0.0
  0
LINE
  5
2e7
100
AcDbEntity
  8
Cut
 62
7
100
AcDbLine
 10
59.189217
 20
76.910940
 30
0.0
 11
59.189217
 21
76.069521
 31
0.0
  0
LINE
  5
2e8
100
AcDbEntity
  8
Cut
 62
7
100
AcDbLine
 10
59.189217
 20
76.069521
 30
0.0
 11
60.776756
 21
76.069521
 31
0.0
  0
LINE
  5
2e9
100
AcDbEntity
  8
Cut
 62
7
100
AcDbLine
 10
60.776756
 20
76.069521
 30
0.0
 11
60.776756
 21
76.910940
 31
0.0
  0
LINE
  5
2ea
100
AcDbEntity
  8
Cut
 62
7
100
AcDbLine
 10
60.776756
 20
76.910940
 30
0.0
 11
62.475593
 21
76.910940
 31
0.0
  0
LINE
  5
2eb
100
AcDbEntity
  8
Cut
 62
7
100
AcDbLine
 10
62.475593
 20
76.910940
 30
0.0
 11
62.475593
 21
76.069521
 31
0.0
  0
LINE
  5
2ec
100
AcDbEntity
  8
Cut
 62
7
100
AcDbLine
 10
62.475593
 20
76.069521
 30
0.0
 11
64.063130
 21
76.069521
 31
0.0
  0
LINE
  5
2ed
100
AcDbEntity
  8
Cut
 62
7
100
AcDbLine
 10
64.063130
 20
76.069521
 30
0.0
 11
64.063130
 21
76.910940
 31
0.0
  0
LINE
  5
2ee
100
AcDbEntity
  8
Cut
 62
7
100
AcDbLine
 10
64.063130
 20
76.910940
 30
0.0
 11
65.761968
 21
76.910940
 31
0.0
  0
LINE
  5
2ef
100
AcDbEntity
  8
Cut
 62
7
100
AcDbLine
 10
65.761968
 20
76.910940
 30
0.0
 11
65.761968
 21
76.069521
 31
0.0
  0
LINE
  5
2f0
100
AcDbEntity
  8
Cut
 62
7
100
AcDbLine
 10
65.761968
 20
76.069521
 30
0.0
 11
67.349372
 21
76.069521
 31
0.0
  0
LINE
  5
2f1
100
AcDbEntity
  8
Cut
 62
7
100
AcDbLine
 10
67.349372
 20
76.069521
 30
0.0
 11
67.349372
 21
76.910940
 31
0.0
  0
LINE
  5
2f2
100
AcDbEntity
  8
Cut
 62
7
100
AcDbLine
 10
67.349372
 20
76.910940
 30
0.0
 11
69.048209
 21
76.910940
 31
0.0
  0
LINE
  5
2f3
100
AcDbEntity
  8
Cut
 62
7
100
AcDbLine
 10
69.048209
 20
76.910940
 30
0.0
 11
69.048209
 21
76.069521
 31
0.0
  0
LINE
  5
2f4
100
AcDbEntity
  8
Cut
 62
7
100
AcDbLine
 10
69.048209
 20
76.069521
 30
0.0
 11
70.635747
 21
76.069521
 31
0.0
  0
LINE
  5
2f5
100
AcDbEntity
  8
Cut
 62
7
100
AcDbLine
 10
70.635747
 20
76.069521
 30
0.0
 11
70.635747
 21
76.910940
 31
0.0
  0
LINE
  5
2f6
100
AcDbEntity
  8
Cut
 62
7
100
AcDbLine
 10
70.635747
 20
76.910940
 30
0.0
 11
72.334584
 21
76.910940
 31
0.0
  0
LINE
  5
2f7
100
AcDbEntity
  8
Cut
 62
7
100
AcDbLine
 10
72.334584
 20
76.910940
 30
0.0
 11
72.334584
 21
76.069521
 31
0.0
  0
LINE
  5
2f8
100
AcDbEntity
  8
Cut
 62
7
100
AcDbLine
 10
72.334584
 20
76.069521
 30
0.0
 11
73.922122
 21
76.069521
 31
0.0
  0
LINE
  5
2f9
100
AcDbEntity
  8
Cut
 62
7
100
AcDbLine
 10
73.922122
 20
76.069521
 30
0.0
 11
73.922122
 21
76.910940
 31
0.0
  0
LINE
  5
2fa
100
AcDbEntity
  8
Cut
 62
7
100
AcDbLine
 10
73.922122
 20
76.910940
 30
0.0
 11
75.620959
 21
76.910940
 31
0.0
  0
LINE
  5
2fb
100
AcDbEntity
  8
Cut
 62
7
100
AcDbLine
 10
75.620959
 20
76.910940
 30
0.0
 11
75.620959
 21
76.069521
 31
0.0
  0
LINE
  5
2fc
100
AcDbEntity
  8
Cut
 62
7
100
AcDbLine
 10
75.620959
 20
76.069521
 30
0.0
 11
77.208496
 21
76.069521
 31
0.0
  0
LINE
  5
2fd
100
AcDbEntity
  8
Cut
 62
7
100
AcDbLine
 10
77.208496
 20
76.069521
 30
0.0
 11
77.208496
 21
76.910940
 31
0.0
  0
LINE
  5
2fe
100
AcDbEntity
  8
Cut
 62
7
100
AcDbLine
 10
77.208496
 20
76.910940
 30
0.0
 11
78.907334
 21
76.910940
 31
0.0
  0
LINE
  5
2ff
100
AcDbEntity
  8
Cut
 62
7
100
AcDbLine
 10
78.907334
 20
76.910940
 30
0.0
 11
78.907334
 21
84.468811
 31
0.0
  0
LINE
  5
300
100
AcDbEntity
  8
Cut
 62
7
100
AcDbLine
 10
78.907334
 20
84.468811
 30
0.0
 11
78.907334
 21
85.308863
 31
0.0
  0
LINE
  5
301
100
AcDbEntity
  8
Cut
 62
7
100
AcDbLine
 10
78.907334
 20
85.308863
 30
0.0
 11
1.622543
 21
85.308863
 31
0.0
  0
SPLINE
  5
302
100
AcDbEntity
  8
Cut
 62
7
100
AcDbSpline
 70
8
 71
3
 72
8
 73
4
 74
0
 40
0
 40
0
 40
0
 40
0
 40
1
 40
1
 40
1
 40
1
 10
26.325767
 20
38.842674
 30
0.0
 10
35.618590
 20
38.842674
 30
0.0
 10
44.911347
 20
38.842674
 30
0.0
 10
54.204032
 20
38.842674
 30
0.0
  0
SPLINE
  5
303
100
AcDbEntity
  8
Cut
 62
7
100
AcDbSpline
 70
8
 71
3
 72
8
 73
4
 74
0
 40
0
 40
0
 40
0
 40
0
 40
1
 40
1
 40
1
 40
1
 10
1.622502
 20
75.804966
 30
0.0
 10
1.622502
 20
69.909238
 30
0.0
 10
1.622502
 20
64.013439
 30
0.0
 10
1.622502
 20
58.117570
 30
0.0
  0
LINE
  5
304
100
AcDbEntity
  8
Cut
 62
7
100
AcDbLine
 10
1.622502
 20
37.736716
 30
0.0
 11
3.321348
 21
37.736716
 31
0.0
  0
LINE
  5
305
100
AcDbEntity
  8
Cut
 62
7
100
AcDbLine
 10
3.321348
 20
37.736716
 30
0.0
 11
3.321348
 21
38.578091
 31
0.0
  0
LINE
  5
306
100
AcDbEntity
  8
Cut
 62
7
100
AcDbLine
 10
3.321348
 20
38.578091
 30
0.0
 11
4.908848
 21
38.578091
 31
0.0
  0
LINE
  5
307
100
AcDbEntity
  8
Cut
 62
7
100
AcDbLine
 10
4.908848
 20
38.578091
 30
0.0
 11
4.908848
 21
37.736716
 31
0.0
  0
LINE
  5
308
100
AcDbEntity
  8
Cut
 62
7
100
AcDbLine
 10
4.908848
 20
37.736716
 30
0.0
 11
6.607693
 21
37.736716
 31
0.0
  0
LINE
  5
309
100
AcDbEntity
  8
Cut
 62
7
100
AcDbLine
 10
6.607693
 20
37.736716
 30
0.0
 11
6.607693
 21
38.578091
 31
0.0
  0
LINE
  5
30a
100
AcDbEntity
  8
Cut
 62
7
100
AcDbLine
 10
6.607693
 20
38.578091
 30
0.0
 11
8.195193
 21
38.578091
 31
0.0
  0
LINE
  5
30b
100
AcDbEntity
  8
Cut
 62
7
100
AcDbLine
 10
8.195193
 20
38.578091
 30
0.0
 11
8.195193
 21
37.736716
 31
0.0
  0
LINE
  5
30c
100
AcDbEntity
  8
Cut
 62
7
100
AcDbLine
 10
8.195193
 20
37.736716
 30
0.0
 11
9.894039
 21
37.736716
 31
0.0
  0
LINE
  5
30d
100
AcDbEntity
  8
Cut
 62
7
100
AcDbLine
 10
9.894039
 20
37.736716
 30
0.0
 11
9.894039
 21
38.578091
 31
0.0
  0
LINE
  5
30e
100
AcDbEntity
  8
Cut
 62
7
100
AcDbLine
 10
9.894039
 20
38.578091
 30
0.0
 11
11.481539
 21
38.578091
 31
0.0
  0
LINE
  5
30f
100
AcDbEntity
  8
Cut
 62
7
100
AcDbLine
 10
11.481539
 20
38.578091
 30
0.0
 11
11.481539
 21
37.736716
 31
0.0
  0
LINE
  5
310
100
AcDbEntity
  8
Cut
 62
7
100
AcDbLine
 10
11.481539
 20
37.736716
 30
0.0
 11
13.180385
 21
37.736716
 31
0.0
  0
LINE
  5
311
100
AcDbEntity
  8
Cut
 62
7
100
AcDbLine
 10
13.180385
 20
37.736716
 30
0.0
 11
13.180385
 21
38.578091
 31
0.0
  0
LINE
  5
312
100
AcDbEntity
  8
Cut
 62
7
100
AcDbLine
 10
13.180385
 20
38.578091
 30
0.0
 11
14.767885
 21
38.578091
 31
0.0
  0
LINE
  5
313
100
AcDbEntity
  8
Cut
 62
7
100
AcDbLine
 10
14.767885
 20
38.578091
 30
0.0
 11
14.767885
 21
37.736716
 31
0.0
  0
LINE
  5
314
100
AcDbEntity
  8
Cut
 62
7
100
AcDbLine
 10
14.767885
 20
37.736716
 30
0.0
 11
16.466730
 21
37.736716
 31
0.0
  0
LINE
  5
315
100
AcDbEntity
  8
Cut
 62
7
100
AcDbLine
 10
16.466730
 20
37.736716
 30
0.0
 11
16.466730
 21
38.578091
 31
0.0
  0
LINE
  5
316
100
AcDbEntity
  8
Cut
 62
7
100
AcDbLine
 10
16.466730
 20
38.578091
 30
0.0
 11
18.054230
 21
38.578091
 31
0.0
  0
LINE
  5
317
100
AcDbEntity
  8
Cut
 62
7
100
AcDbLine
 10
18.054230
 20
38.578091
 30
0.0
 11
18.054230
 21
37.736716
 31
0.0
  0
LINE
  5
318
100
AcDbEntity
  8
Cut
 62
7
100
AcDbLine
 10
18.054230
 20
37.736716
 30
0.0
 11
19.753075
 21
37.736716
 31
0.0
  0
LINE
  5
319
100
AcDbEntity
  8
Cut
 62
7
100
AcDbLine
 10
19.753075
 20
37.736716
 30
0.0
 11
19.753075
 21
38.578091
 31
0.0
  0
LINE
  5
31a
100
AcDbEntity
  8
Cut
 62
7
100
AcDbLine
 10
19.753075
 20
38.578091
 30
0.0
 11
21.340575
 21
38.578091
 31
0.0
  0
LINE
  5
31b
100
AcDbEntity
  8
Cut
 62
7
100
AcDbLine
 10
21.340575
 20
38.578091
 30
0.0
 11
21.340575
 21
37.736716
 31
0.0
  0
LINE
  5
31c
100
AcDbEntity
  8
Cut
 62
7
100
AcDbLine
 10
21.340575
 20
37.736716
 30
0.0
 11
23.039420
 21
37.736716
 31
0.0
  0
LINE
  5
31d
100
AcDbEntity
  8
Cut
 62
7
100
AcDbLine
 10
23.039420
 20
37.736716
 30
0.0
 11
23.039420
 21
38.578091
 31
0.0
  0
LINE
  5
31e
100
AcDbEntity
  8
Cut
 62
7
100
AcDbLine
 10
23.039420
 20
38.578091
 30
0.0
 11
24.626920
 21
38.578091
 31
0.0
  0
LINE
  5
31f
100
AcDbEntity
  8
Cut
 62
7
100
AcDbLine
 10
24.626920
 20
38.578091
 30
0.0
 11
24.626920
 21
37.736716
 31
0.0
  0
LINE
  5
320
100
AcDbEntity
  8
Cut
 62
7
100
AcDbLine
 10
24.626920
 20
37.736716
 30
0.0
 11
25.986659
 21
37.736716
 31
0.0
  0
LINE
  5
321
100
AcDbEntity
  8
Cut
 62
7
100
AcDbLine
 10
54.543141
 20
37.736716
 30
0.0
 11
55.902877
 21
37.736716
 31
0.0
  0
LINE
  5
322
100
AcDbEntity
  8
Cut
 62
7
100
AcDbLine
 10
55.902877
 20
37.736716
 30
0.0
 11
55.902877
 21
38.578091
 31
0.0
  0
LINE
  5
323
100
AcDbEntity
  8
Cut
 62
7
100
AcDbLine
 10
55.902877
 20
38.578091
 30
0.0
 11
57.490377
 21
38.578091
 31
0.0
  0
LINE
  5
324
100
AcDbEntity
  8
Cut
 62
7
100
AcDbLine
 10
57.490377
 20
38.578091
 30
0.0
 11
57.490377
 21
37.736716
 31
0.0
  0
LINE
  5
325
100
AcDbEntity
  8
Cut
 62
7
100
AcDbLine
 10
57.490377
 20
37.736716
 30
0.0
 11
59.189221
 21
37.736716
 31
0.0
  0
LINE
  5
326
100
AcDbEntity
  8
Cut
 62
7
100
AcDbLine
 10
59.189221
 20
37.736716
 30
0.0
 11
59.189221
 21
38.578091
 31
0.0
  0
LINE
  5
327
100
AcDbEntity
  8
Cut
 62
7
100
AcDbLine
 10
59.189221
 20
38.578091
 30
0.0
 11
60.776721
 21
38.578091
 31
0.0
  0
LINE
  5
328
100
AcDbEntity
  8
Cut
 62
7
100
AcDbLine
 10
60.776721
 20
38.578091
 30
0.0
 11
60.776721
 21
37.736716
 31
0.0
  0
LINE
  5
329
100
AcDbEntity
  8
Cut
 62
7
100
AcDbLine
 10
60.776721
 20
37.736716
 30
0.0
 11
62.475569
 21
37.736716
 31
0.0
  0
LINE
  5
32a
100
AcDbEntity
  8
Cut
 62
7
100
AcDbLine
 10
62.475569
 20
37.736716
 30
0.0
 11
62.475569
 21
38.578091
 31
0.0
  0
LINE
  5
32b
100
AcDbEntity
  8
Cut
 62
7
100
AcDbLine
 10
62.475569
 20
38.578091
 30
0.0
 11
64.063069
 21
38.578091
 31
0.0
  0
LINE
  5
32c
100
AcDbEntity
  8
Cut
 62
7
100
AcDbLine
 10
64.063069
 20
38.578091
 30
0.0
 11
64.063069
 21
37.736716
 31
0.0
  0
LINE
  5
32d
100
AcDbEntity
  8
Cut
 62
7
100
AcDbLine
 10
64.063069
 20
37.736716
 30
0.0
 11
65.761913
 21
37.736716
 31
0.0
  0
LINE
  5
32e
100
AcDbEntity
  8
Cut
 62
7
100
AcDbLine
 10
65.761913
 20
37.736716
 30
0.0
 11
65.761913
 21
38.578091
 31
0.0
  0
LINE
  5
32f
100
AcDbEntity
  8
Cut
 62
7
100
AcDbLine
 10
65.761913
 20
38.578091
 30
0.0
 11
67.349413
 21
38.578091
 31
0.0
  0
LINE
  5
330
100
AcDbEntity
  8
Cut
 62
7
100
AcDbLine
 10
67.349413
 20
38.578091
 30
0.0
 11
67.349413
 21
37.736716
 31
0.0
  0
LINE
  5
331
100
AcDbEntity
  8
Cut
 62
7
100
AcDbLine
 10
67.349413
 20
37.736716
 30
0.0
 11
69.048258
 21
37.736716
 31
0.0
  0
LINE
  5
332
100
AcDbEntity
  8
Cut
 62
7
100
AcDbLine
 10
69.048258
 20
37.736716
 30
0.0
 11
69.048258
 21
38.578091
 31
0.0
  0
LINE
  5
333
100
AcDbEntity
  8
Cut
 62
7
100
AcDbLine
 10
69.048258
 20
38.578091
 30
0.0
 11
70.635758
 21
38.578091
 31
0.0
  0
LINE
  5
334
100
AcDbEntity
  8
Cut
 62
7
100
AcDbLine
 10
70.635758
 20
38.578091
 30
0.0
 11
70.635758
 21
37.736716
 31
0.0
  0
LINE
  5
335
100
AcDbEntity
  8
Cut
 62
7
100
AcDbLine
 10
70.635758
 20
37.736716
 30
0.0
 11
72.334605
 21
37.736716
 31
0.0
  0
LINE
  5
336
100
AcDbEntity
  8
Cut
 62
7
100
AcDbLine
 10
72.334605
 20
37.736716
 30
0.0
 11
72.334605
 21
38.578091
 31
0.0
  0
LINE
  5
337
100
AcDbEntity
  8
Cut
 62
7
100
AcDbLine
 10
72.334605
 20
38.578091
 30
0.0
 11
73.922105
 21
38.578091
 31
0.0
  0
LINE
  5
338
100
AcDbEntity
  8
Cut
 62
7
100
AcDbLine
 10
73.922105
 20
38.578091
 30
0.0
 11
73.922105
 21
37.736716
 31
0.0
  0
LINE
  5
339
100
AcDbEntity
  8
Cut
 62
7
100
AcDbLine
 10
73.922105
 20
37.736716
 30
0.0
 11
75.620950
 21
37.736716
 31
0.0
  0
LINE
  5
33a
100
AcDbEntity
  8
Cut
 62
7
100
AcDbLine
 10
75.620950
 20
37.736716
 30
0.0
 11
75.620950
 21
38.578091
 31
0.0
  0
LINE
  5
33b
100
AcDbEntity
  8
Cut
 62
7
100
AcDbLine
 10
75.620950
 20
38.578091
 30
0.0
 11
77.208450
 21
38.578091
 31
0.0
  0
LINE
  5
33c
100
AcDbEntity
  8
Cut
 62
7
100
AcDbLine
 10
77.208450
 20
38.578091
 30
0.0
 11
77.208450
 21
37.736716
 31
0.0
  0
LINE
  5
33d
100
AcDbEntity
  8
Cut
 62
7
100
AcDbLine
 10
77.208450
 20
37.736716
 30
0.0
 11
78.907297
 21
37.736716
 31
0.0
  0
LINE
  5
33e
100
AcDbEntity
  8
Cut
 62
7
100
AcDbLine
 10
78.907297
 20
37.736716
 30
0.0
 11
78.907297
 21
36.556235
 31
0.0
  0
LINE
  5
33f
100
AcDbEntity
  8
Cut
 62
7
100
AcDbLine
 10
78.907297
 20
36.556235
 30
0.0
 11
78.065922
 21
36.556235
 31
0.0
  0
LINE
  5
340
100
AcDbEntity
  8
Cut
 62
7
100
AcDbLine
 10
78.065922
 20
36.556235
 30
0.0
 11
78.065922
 21
34.968735
 31
0.0
  0
LINE
  5
341
100
AcDbEntity
  8
Cut
 62
7
100
AcDbLine
 10
78.065922
 20
34.968735
 30
0.0
 11
78.907297
 21
34.968735
 31
0.0
  0
LINE
  5
342
100
AcDbEntity
  8
Cut
 62
7
100
AcDbLine
 10
78.907297
 20
34.968735
 30
0.0
 11
78.907297
 21
32.946877
 31
0.0
  0
LINE
  5
343
100
AcDbEntity
  8
Cut
 62
7
100
AcDbLine
 10
78.907297
 20
32.946877
 30
0.0
 11
78.065922
 21
32.946877
 31
0.0
  0
LINE
  5
344
100
AcDbEntity
  8
Cut
 62
7
100
AcDbLine
 10
78.065922
 20
32.946877
 30
0.0
 11
78.065922
 21
31.359377
 31
0.0
  0
LINE
  5
345
100
AcDbEntity
  8
Cut
 62
7
100
AcDbLine
 10
78.065922
 20
31.359377
 30
0.0
 11
78.907297
 21
31.359377
 31
0.0
  0
LINE
  5
346
100
AcDbEntity
  8
Cut
 62
7
100
AcDbLine
 10
78.907297
 20
31.359377
 30
0.0
 11
78.907297
 21
29.338841
 31
0.0
  0
LINE
  5
347
100
AcDbEntity
  8
Cut
 62
7
100
AcDbLine
 10
78.907297
 20
29.338841
 30
0.0
 11
77.208450
 21
29.338841
 31
0.0
  0
LINE
  5
348
100
AcDbEntity
  8
Cut
 62
7
100
AcDbLine
 10
77.208450
 20
29.338841
 30
0.0
 11
77.208450
 21
29.338841
 31
0.0
  0
LINE
  5
349
100
AcDbEntity
  8
Cut
 62
7
100
AcDbLine
 10
77.208450
 20
29.338841
 30
0.0
 11
75.620950
 21
29.338841
 31
0.0
  0
LINE
  5
34a
100
AcDbEntity
  8
Cut
 62
7
100
AcDbLine
 10
75.620950
 20
29.338841
 30
0.0
 11
75.620950
 21
29.338841
 31
0.0
  0
LINE
  5
34b
100
AcDbEntity
  8
Cut
 62
7
100
AcDbLine
 10
75.620950
 20
29.338841
 30
0.0
 11
73.922105
 21
29.338841
 31
0.0
  0
LINE
  5
34c
100
AcDbEntity
  8
Cut
 62
7
100
AcDbLine
 10
73.922105
 20
29.338841
 30
0.0
 11
73.922105
 21
29.338841
 31
0.0
  0
LINE
  5
34d
100
AcDbEntity
  8
Cut
 62
7
100
AcDbLine
 10
73.922105
 20
29.338841
 30
0.0
 11
72.334605
 21
29.338841
 31
0.0
  0
LINE
  5
34e
100
AcDbEntity
  8
Cut
 62
7
100
AcDbLine
 10
72.334605
 20
29.338841
 30
0.0
 11
72.334605
 21
29.338841
 31
0.0
  0
LINE
  5
34f
100
AcDbEntity
  8
Cut
 62
7
100
AcDbLine
 10
72.334605
 20
29.338841
 30
0.0
 11
70.635758
 21
29.338841
 31
0.0
  0
LINE
  5
350
100
AcDbEntity
  8
Cut
 62
7
100
AcDbLine
 10
70.635758
 20
29.338841
 30
0.0
 11
70.635758
 21
29.338841
 31
0.0
  0
LINE
  5
351
100
AcDbEntity
  8
Cut
 62
7
100
AcDbLine
 10
70.635758
 20
29.338841
 30
0.0
 11
69.048258
 21
29.338841
 31
0.0
  0
LINE
  5
352
100
AcDbEntity
  8
Cut
 62
7
100
AcDbLine
 10
69.048258
 20
29.338841
 30
0.0
 11
69.048258
 21
29.338841
 31
0.0
  0
LINE
  5
353
100
AcDbEntity
  8
Cut
 62
7
100
AcDbLine
 10
69.048258
 20
29.338841
 30
0.0
 11
67.349413
 21
29.338841
 31
0.0
  0
LINE
  5
354
100
AcDbEntity
  8
Cut
 62
7
100
AcDbLine
 10
67.349413
 20
29.338841
 30
0.0
 11
67.349413
 21
29.338841
 31
0.0
  0
LINE
  5
355
100
AcDbEntity
  8
Cut
 62
7
100
AcDbLine
 10
67.349413
 20
29.338841
 30
0.0
 11
65.761913
 21
29.338841
 31
0.0
  0
LINE
  5
356
100
AcDbEntity
  8
Cut
 62
7
100
AcDbLine
 10
65.761913
 20
29.338841
 30
0.0
 11
65.761913
 21
29.338841
 31
0.0
  0
LINE
  5
357
100
AcDbEntity
  8
Cut
 62
7
100
AcDbLine
 10
65.761913
 20
29.338841
 30
0.0
 11
64.063069
 21
29.338841
 31
0.0
  0
LINE
  5
358
100
AcDbEntity
  8
Cut
 62
7
100
AcDbLine
 10
64.063069
 20
29.338841
 30
0.0
 11
64.063069
 21
29.338841
 31
0.0
  0
LINE
  5
359
100
AcDbEntity
  8
Cut
 62
7
100
AcDbLine
 10
64.063069
 20
29.338841
 30
0.0
 11
62.475569
 21
29.338841
 31
0.0
  0
LINE
  5
35a
100
AcDbEntity
  8
Cut
 62
7
100
AcDbLine
 10
62.475569
 20
29.338841
 30
0.0
 11
62.475569
 21
29.338841
 31
0.0
  0
LINE
  5
35b
100
AcDbEntity
  8
Cut
 62
7
100
AcDbLine
 10
62.475569
 20
29.338841
 30
0.0
 11
60.776721
 21
29.338841
 31
0.0
  0
LINE
  5
35c
100
AcDbEntity
  8
Cut
 62
7
100
AcDbLine
 10
60.776721
 20
29.338841
 30
0.0
 11
60.776721
 21
29.338841
 31
0.0
  0
LINE
  5
35d
100
AcDbEntity
  8
Cut
 62
7
100
AcDbLine
 10
60.776721
 20
29.338841
 30
0.0
 11
59.189221
 21
29.338841
 31
0.0
  0
LINE
  5
35e
100
AcDbEntity
  8
Cut
 62
7
100
AcDbLine
 10
59.189221
 20
29.338841
 30
0.0
 11
59.189221
 21
29.338841
 31
0.0
  0
LINE
  5
35f
100
AcDbEntity
  8
Cut
 62
7
100
AcDbLine
 10
59.189221
 20
29.338841
 30
0.0
 11
57.490377
 21
29.338841
 31
0.0
  0
LINE
  5
360
100
AcDbEntity
  8
Cut
 62
7
100
AcDbLine
 10
57.490377
 20
29.338841
 30
0.0
 11
57.490377
 21
29.338841
 31
0.0
  0
LINE
  5
361
100
AcDbEntity
  8
Cut
 62
7
100
AcDbLine
 10
57.490377
 20
29.338841
 30
0.0
 11
55.902877
 21
29.338841
 31
0.0
  0
LINE
  5
362
100
AcDbEntity
  8
Cut
 62
7
100
AcDbLine
 10
55.902877
 20
29.338841
 30
0.0
 11
55.902877
 21
29.338841
 31
0.0
  0
LINE
  5
363
100
AcDbEntity
  8
Cut
 62
7
100
AcDbLine
 10
55.902877
 20
29.338841
 30
0.0
 11
54.543141
 21
29.338841
 31
0.0
  0
LINE
  5
364
100
AcDbEntity
  8
Cut
 62
7
100
AcDbLine
 10
25.986659
 20
29.338841
 30
0.0
 11
24.626920
 21
29.338841
 31
0.0
  0
LINE
  5
365
100
AcDbEntity
  8
Cut
 62
7
100
AcDbLine
 10
24.626920
 20
29.338841
 30
0.0
 11
24.626920
 21
29.338841
 31
0.0
  0
LINE
  5
366
100
AcDbEntity
  8
Cut
 62
7
100
AcDbLine
 10
24.626920
 20
29.338841
 30
0.0
 11
23.039420
 21
29.338841
 31
0.0
  0
LINE
  5
367
100
AcDbEntity
  8
Cut
 62
7
100
AcDbLine
 10
23.039420
 20
29.338841
 30
0.0
 11
23.039420
 21
29.338841
 31
0.0
  0
LINE
  5
368
100
AcDbEntity
  8
Cut
 62
7
100
AcDbLine
 10
23.039420
 20
29.338841
 30
0.0
 11
21.340575
 21
29.338841
 31
0.0
  0
LINE
  5
369
100
AcDbEntity
  8
Cut
 62
7
100
AcDbLine
 10
21.340575
 20
29.338841
 30
0.0
 11
21.340575
 21
29.338841
 31
0.0
  0
LINE
  5
36a
100
AcDbEntity
  8
Cut
 62
7
100
AcDbLine
 10
21.340575
 20
29.338841
 30
0.0
 11
19.753075
 21
29.338841
 31
0.0
  0
LINE
  5
36b
100
AcDbEntity
  8
Cut
 62
7
100
AcDbLine
 10
19.753075
 20
29.338841
 30
0.0
 11
19.753075
 21
29.338841
 31
0.0
  0
LINE
  5
36c
100
AcDbEntity
  8
Cut
 62
7
100
AcDbLine
 10
19.753075
 20
29.338841
 30
0.0
 11
18.054230
 21
29.338841
 31
0.0
  0
LINE
  5
36d
100
AcDbEntity
  8
Cut
 62
7
100
AcDbLine
 10
18.054230
 20
29.338841
 30
0.0
 11
18.054230
 21
29.338841
 31
0.0
  0
LINE
  5
36e
100
AcDbEntity
  8
Cut
 62
7
100
AcDbLine
 10
18.054230
 20
29.338841
 30
0.0
 11
16.466730
 21
29.338841
 31
0.0
  0
LINE
  5
36f
100
AcDbEntity
  8
Cut
 62
7
100
AcDbLine
 10
16.466730
 20
29.338841
 30
0.0
 11
16.466730
 21
29.338841
 31
0.0
  0
LINE
  5
370
100
AcDbEntity
  8
Cut
 62
7
100
AcDbLine
 10
16.466730
 20
29.338841
 30
0.0
 11
14.767885
 21
29.338841
 31
0.0
  0
LINE
  5
371
100
AcDbEntity
  8
Cut
 62
7
100
AcDbLine
 10
14.767885
 20
29.338841
 30
0.0
 11
14.767885
 21
29.338841
 31
0.0
  0
LINE
  5
372
100
AcDbEntity
  8
Cut
 62
7
100
AcDbLine
 10
14.767885
 20
29.338841
 30
0.0
 11
13.180385
 21
29.338841
 31
0.0
  0
LINE
  5
373
100
AcDbEntity
  8
Cut
 62
7
100
AcDbLine
 10
13.180385
 20
29.338841
 30
0.0
 11
13.180385
 21
29.338841
 31
0.0
  0
LINE
  5
374
100
AcDbEntity
  8
Cut
 62
7
100
AcDbLine
 10
13.180385
 20
29.338841
 30
0.0
 11
11.481539
 21
29.338841
 31
0.0
  0
LINE
  5
375
100
AcDbEntity
  8
Cut
 62
7
100
AcDbLine
 10
11.481539
 20
29.338841
 30
0.0
 11
11.481539
 21
29.338841
 31
0.0
  0
LINE
  5
376
100
AcDbEntity
  8
Cut
 62
7
100
AcDbLine
 10
11.481539
 20
29.338841
 30
0.0
 11
9.894039
 21
29.338841
 31
0.0
  0
LINE
  5
377
100
AcDbEntity
  8
Cut
 62
7
100
AcDbLine
 10
9.894039
 20
29.338841
 30
0.0
 11
9.894039
 21
29.338841
 31
0.0
  0
LINE
  5
378
100
AcDbEntity
  8
Cut
 62
7
100
AcDbLine
 10
9.894039
 20
29.338841
 30
0.0
 11
8.195193
 21
29.338841
 31
0.0
  0
LINE
  5
379
100
AcDbEntity
  8
Cut
 62
7
100
AcDbLine
 10
8.195193
 20
29.338841
 30
0.0
 11
8.195193
 21
29.338841
 31
0.0
  0
LINE
  5
37a
100
AcDbEntity
  8
Cut
 62
7
100
AcDbLine
 10
8.195193
 20
29.338841
 30
0.0
 11
6.607693
 21
29.338841
 31
0.0
  0
LINE
  5
37b
100
AcDbEntity
  8
Cut
 62
7
100
AcDbLine
 10
6.607693
 20
29.338841
 30
0.0
 11
6.607693
 21
29.338841
 31
0.0
  0
LINE
  5
37c
100
AcDbEntity
  8
Cut
 62
7
100
AcDbLine
 10
6.607693
 20
29.338841
 30
0.0
 11
4.908848
 21
29.338841
 31
0.0
  0
LINE
  5
37d
100
AcDbEntity
  8
Cut
 62
7
100
AcDbLine
 10
4.908848
 20
29.338841
 30
0.0
 11
4.908848
 21
29.338841
 31
0.0
  0
LINE
  5
37e
100
AcDbEntity
  8
Cut
 62
7
100
AcDbLine
 10
4.908848
 20
29.338841
 30
0.0
 11
3.321348
 21
29.338841
 31
0.0
  0
LINE
  5
37f
100
AcDbEntity
  8
Cut
 62
7
100
AcDbLine
 10
3.321348
 20
29.338841
 30
0.0
 11
3.321348
 21
29.338841
 31
0.0
  0
LINE
  5
380
100
AcDbEntity
  8
Cut
 62
7
100
AcDbLine
 10
3.321348
 20
29.338841
 30
0.0
 11
1.622502
 21
29.338841
 31
0.0
  0
LINE
  5
381
100
AcDbEntity
  8
Cut
 62
7
100
AcDbLine
 10
1.622502
 20
30.178893
 30
0.0
 11
1.622502
 21
31.359377
 31
0.0
  0
LINE
  5
382
100
AcDbEntity
  8
Cut
 62
7
100
AcDbLine
 10
1.622502
 20
31.359377
 30
0.0
 11
2.463877
 21
31.359377
 31
0.0
  0
LINE
  5
383
100
AcDbEntity
  8
Cut
 62
7
100
AcDbLine
 10
2.463877
 20
31.359377
 30
0.0
 11
2.463877
 21
32.946877
 31
0.0
  0
LINE
  5
384
100
AcDbEntity
  8
Cut
 62
7
100
AcDbLine
 10
2.463877
 20
32.946877
 30
0.0
 11
1.622502
 21
32.946877
 31
0.0
  0
LINE
  5
385
100
AcDbEntity
  8
Cut
 62
7
100
AcDbLine
 10
1.622502
 20
32.946877
 30
0.0
 11
1.622502
 21
34.968735
 31
0.0
  0
LINE
  5
386
100
AcDbEntity
  8
Cut
 62
7
100
AcDbLine
 10
1.622502
 20
34.968735
 30
0.0
 11
2.463877
 21
34.968735
 31
0.0
  0
LINE
  5
387
100
AcDbEntity
  8
Cut
 62
7
100
AcDbLine
 10
2.463877
 20
34.968735
 30
0.0
 11
2.463877
 21
36.556235
 31
0.0
  0
LINE
  5
388
100
AcDbEntity
  8
Cut
 62
7
100
AcDbLine
 10
2.463877
 20
36.556235
 30
0.0
 11
1.622502
 21
36.556235
 31
0.0
  0
LINE
  5
389
100
AcDbEntity
  8
Cut
 62
7
100
AcDbLine
 10
1.622502
 20
36.556235
 30
0.0
 11
1.622502
 21
37.736716
 31
0.0
  0
LINE
  5
38a
100
AcDbEntity
  8
Cut
 62
7
100
AcDbLine
 10
55.384516
 20
34.968735
 30
0.0
 11
55.384516
 21
36.556235
 31
0.0
  0
LINE
  5
38b
100
AcDbEntity
  8
Cut
 62
7
100
AcDbLine
 10
55.384516
 20
36.556235
 30
0.0
 11
54.543141
 21
36.556235
 31
0.0
  0
LINE
  5
38c
100
AcDbEntity
  8
Cut
 62
7
100
AcDbLine
 10
55.384516
 20
31.359377
 30
0.0
 11
55.384516
 21
32.946877
 31
0.0
  0
LINE
  5
38d
100
AcDbEntity
  8
Cut
 62
7
100
AcDbLine
 10
55.384516
 20
32.946877
 30
0.0
 11
54.543141
 21
32.946877
 31
0.0
  0
LINE
  5
38e
100
AcDbEntity
  8
Cut
 62
7
100
AcDbLine
 10
25.145284
 20
36.556235
 30
0.0
 11
25.145284
 21
34.968735
 31
0.0
  0
LINE
  5
38f
100
AcDbEntity
  8
Cut
 62
7
100
AcDbLine
 10
25.145284
 20
34.968735
 30
0.0
 11
25.986659
 21
34.968735
 31
0.0
  0
LINE
  5
390
100
AcDbEntity
  8
Cut
 62
7
100
AcDbLine
 10
25.145284
 20
32.946877
 30
0.0
 11
25.145284
 21
31.359377
 31
0.0
  0
LINE
  5
391
100
AcDbEntity
  8
Cut
 62
7
100
AcDbLine
 10
25.145284
 20
31.359377
 30
0.0
 11
25.986659
 21
31.359377
 31
0.0
  0
LINE
  5
392
100
AcDbEntity
  8
Cut
 62
7
100
AcDbLine
 10
25.986659
 20
32.946877
 30
0.0
 11
25.145284
 21
32.946877
 31
0.0
  0
SPLINE
  5
393
100
AcDbEntity
  8
Cut
 62
7
100
AcDbSpline
 70
8
 71
3
 72
8
 73
4
 74
0
 40
0
 40
0
 40
0
 40
0
 40
1
 40
1
 40
1
 40
1
 10
25.986659
 20
37.736716
 30
0.0
 10
25.986659
 20
37.343294
 30
0.0
 10
25.986659
 20
36.949800
 30
0.0
 10
25.986659
 20
36.556235
 30
0.0
  0
SPLINE
  5
394
100
AcDbEntity
  8
Cut
 62
7
100
AcDbSpline
 70
8
 71
3
 72
8
 73
4
 74
0
 40
0
 40
0
 40
0
 40
0
 40
1
 40
1
 40
1
 40
1
 10
25.986659
 20
34.968735
 30
0.0
 10
25.986659
 20
34.294852
 30
0.0
 10
25.986659
 20
33.620900
 30
0.0
 10
25.986659
 20
32.946877
 30
0.0
  0
SPLINE
  5
395
100
AcDbEntity
  8
Cut
 62
7
100
AcDbSpline
 70
8
 71
3
 72
8
 73
4
 74
0
 40
0
 40
0
 40
0
 40
0
 40
1
 40
1
 40
1
 40
1
 10
1.622502
 20
31.359377
 30
0.0
 10
1.622502
 20
30.685935
 30
0.0
 10
1.622502
 20
30.012422
 30
0.0
 10
1.622502
 20
29.338841
 30
0.0
  0
SPLINE
  5
396
100
AcDbEntity
  8
Cut
 62
7
100
AcDbSpline
 70
8
 71
3
 72
8
 73
4
 74
0
 40
0
 40
0
 40
0
 40
0
 40
1
 40
1
 40
1
 40
1
 10
25.145284
 20
36.556235
 30
0.0
 10
25.425811
 20
36.556235
 30
0.0
 10
25.706269
 20
36.556235
 30
0.0
 10
25.986659
 20
36.556235
 30
0.0
  0
SPLINE
  5
397
100
AcDbEntity
  8
Cut
 62
7
100
AcDbSpline
 70
8
 71
3
 72
8
 73
4
 74
0
 40
0
 40
0
 40
0
 40
0
 40
1
 40
1
 40
1
 40
1
 10
54.543141
 20
36.556235
 30
0.0
 10
54.543141
 20
36.949800
 30
0.0
 10
54.543141
 20
37.343294
 30
0.0
 10
54.543141
 20
37.736716
 30
0.0
  0
SPLINE
  5
398
100
AcDbEntity
  8
Cut
 62
7
100
AcDbSpline
 70
8
 71
3
 72
8
 73
4
 74
0
 40
0
 40
0
 40
0
 40
0
 40
1
 40
1
 40
1
 40
1
 10
54.543141
 20
29.338841
 30
0.0
 10
54.538537
 20
30.012422
 30
0.0
 10
54.533933
 20
30.685935
 30
0.0
 10
54.529329
 20
31.359377
 30
0.0
  0
SPLINE
  5
399
100
AcDbEntity
  8
Cut
 62
7
100
AcDbSpline
 70
8
 71
3
 72
8
 73
4
 74
0
 40
0
 40
0
 40
0
 40
0
 40
1
 40
1
 40
1
 40
1
 10
55.384516
 20
31.359377
 30
0.0
 10
55.099522
 20
31.359377
 30
0.0
 10
54.814463
 20
31.359377
 30
0.0
 10
54.529329
 20
31.359377
 30
0.0
  0
SPLINE
  5
39a
100
AcDbEntity
  8
Cut
 62
7
100
AcDbSpline
 70
8
 71
3
 72
8
 73
4
 74
0
 40
0
 40
0
 40
0
 40
0
 40
1
 40
1
 40
1
 40
1
 10
54.543141
 20
32.946877
 30
0.0
 10
54.538537
 20
33.620900
 30
0.0
 10
54.533933
 20
34.294852
 30
0.0
 10
54.529329
 20
34.968735
 30
0.0
  0
SPLINE
  5
39b
100
AcDbEntity
  8
Cut
 62
7
100
AcDbSpline
 70
8
 71
3
 72
8
 73
4
 74
0
 40
0
 40
0
 40
0
 40
0
 40
1
 40
1
 40
1
 40
1
 10
55.384516
 20
34.968735
 30
0.0
 10
55.099522
 20
34.968735
 30
0.0
 10
54.814463
 20
34.968735
 30
0.0
 10
54.529329
 20
34.968735
 30
0.0
  0
SPLINE
  5
39c
100
AcDbEntity
  8
Cut
 62
7
100
AcDbSpline
 70
8
 71
3
 72
8
 73
4
 74
0
 40
0
 40
0
 40
0
 40
0
 40
1
 40
1
 40
1
 40
1
 10
25.986659
 20
31.359377
 30
0.0
 10
25.986659
 20
30.685935
 30
0.0
 10
25.986659
 20
30.012422
 30
0.0
 10
25.986659
 20
29.338841
 30
0.0
  0
LINE
  5
39d
100
AcDbEntity
  8
Cut
 62
7
100
AcDbLine
 10
35.645972
 20
37.362021
 30
0.0
 11
37.666545
 21
37.362021
 31
0.0
  0
LINE
  5
39e
100
AcDbEntity
  8
Cut
 62
7
100
AcDbLine
 10
37.666545
 20
37.362021
 30
0.0
 11
37.666545
 21
38.203396
 31
0.0
  0
LINE
  5
39f
100
AcDbEntity
  8
Cut
 62
7
100
AcDbLine
 10
37.666545
 20
38.203396
 30
0.0
 11
39.254045
 21
38.203396
 31
0.0
  0
LINE
  5
3a0
100
AcDbEntity
  8
Cut
 62
7
100
AcDbLine
 10
39.254045
 20
38.203396
 30
0.0
 11
39.254045
 21
37.362021
 31
0.0
  0
LINE
  5
3a1
100
AcDbEntity
  8
Cut
 62
7
100
AcDbLine
 10
39.254045
 20
37.362021
 30
0.0
 11
41.275900
 21
37.362021
 31
0.0
  0
LINE
  5
3a2
100
AcDbEntity
  8
Cut
 62
7
100
AcDbLine
 10
41.275900
 20
37.362021
 30
0.0
 11
41.275900
 21
38.203396
 31
0.0
  0
LINE
  5
3a3
100
AcDbEntity
  8
Cut
 62
7
100
AcDbLine
 10
41.275900
 20
38.203396
 30
0.0
 11
42.863400
 21
38.203396
 31
0.0
  0
LINE
  5
3a4
100
AcDbEntity
  8
Cut
 62
7
100
AcDbLine
 10
42.863400
 20
38.203396
 30
0.0
 11
42.863400
 21
37.362021
 31
0.0
  0
LINE
  5
3a5
100
AcDbEntity
  8
Cut
 62
7
100
AcDbLine
 10
42.863400
 20
37.362021
 30
0.0
 11
44.043884
 21
37.362021
 31
0.0
  0
LINE
  5
3a6
100
AcDbEntity
  8
Cut
 62
7
100
AcDbLine
 10
44.043884
 20
37.362021
 30
0.0
 11
44.043884
 21
36.578412
 31
0.0
  0
LINE
  5
3a7
100
AcDbEntity
  8
Cut
 62
7
100
AcDbLine
 10
44.043884
 20
36.578412
 30
0.0
 11
44.885259
 21
36.578412
 31
0.0
  0
LINE
  5
3a8
100
AcDbEntity
  8
Cut
 62
7
100
AcDbLine
 10
44.885259
 20
36.578412
 30
0.0
 11
44.885259
 21
34.990912
 31
0.0
  0
LINE
  5
3a9
100
AcDbEntity
  8
Cut
 62
7
100
AcDbLine
 10
44.885259
 20
34.990912
 30
0.0
 11
44.043884
 21
34.990912
 31
0.0
  0
LINE
  5
3aa
100
AcDbEntity
  8
Cut
 62
7
100
AcDbLine
 10
44.043884
 20
34.990912
 30
0.0
 11
44.043884
 21
33.365929
 31
0.0
  0
LINE
  5
3ab
100
AcDbEntity
  8
Cut
 62
7
100
AcDbLine
 10
44.043884
 20
33.365929
 30
0.0
 11
44.885259
 21
33.365929
 31
0.0
  0
LINE
  5
3ac
100
AcDbEntity
  8
Cut
 62
7
100
AcDbLine
 10
44.885259
 20
33.365929
 30
0.0
 11
44.885259
 21
31.778429
 31
0.0
  0
LINE
  5
3ad
100
AcDbEntity
  8
Cut
 62
7
100
AcDbLine
 10
44.885259
 20
31.778429
 30
0.0
 11
44.043884
 21
31.778429
 31
0.0
  0
LINE
  5
3ae
100
AcDbEntity
  8
Cut
 62
7
100
AcDbLine
 10
44.043884
 20
31.778429
 30
0.0
 11
44.043884
 21
30.153448
 31
0.0
  0
LINE
  5
3af
100
AcDbEntity
  8
Cut
 62
7
100
AcDbLine
 10
44.043884
 20
30.153448
 30
0.0
 11
44.885259
 21
30.153448
 31
0.0
  0
LINE
  5
3b0
100
AcDbEntity
  8
Cut
 62
7
100
AcDbLine
 10
44.885259
 20
30.153448
 30
0.0
 11
44.885259
 21
28.565948
 31
0.0
  0
LINE
  5
3b1
100
AcDbEntity
  8
Cut
 62
7
100
AcDbLine
 10
44.885259
 20
28.565948
 30
0.0
 11
44.043884
 21
28.565948
 31
0.0
  0
LINE
  5
3b2
100
AcDbEntity
  8
Cut
 62
7
100
AcDbLine
 10
44.043884
 20
28.565948
 30
0.0
 11
44.043884
 21
26.940965
 31
0.0
  0
LINE
  5
3b3
100
AcDbEntity
  8
Cut
 62
7
100
AcDbLine
 10
44.043884
 20
26.940965
 30
0.0
 11
44.885259
 21
26.940965
 31
0.0
  0
LINE
  5
3b4
100
AcDbEntity
  8
Cut
 62
7
100
AcDbLine
 10
44.885259
 20
26.940965
 30
0.0
 11
44.885259
 21
25.353465
 31
0.0
  0
LINE
  5
3b5
100
AcDbEntity
  8
Cut
 62
7
100
AcDbLine
 10
44.885259
 20
25.353465
 30
0.0
 11
44.043884
 21
25.353465
 31
0.0
  0
LINE
  5
3b6
100
AcDbEntity
  8
Cut
 62
7
100
AcDbLine
 10
44.043884
 20
25.353465
 30
0.0
 11
44.043884
 21
23.728481
 31
0.0
  0
LINE
  5
3b7
100
AcDbEntity
  8
Cut
 62
7
100
AcDbLine
 10
44.043884
 20
23.728481
 30
0.0
 11
44.885259
 21
23.728481
 31
0.0
  0
LINE
  5
3b8
100
AcDbEntity
  8
Cut
 62
7
100
AcDbLine
 10
44.885259
 20
23.728481
 30
0.0
 11
44.885259
 21
22.140981
 31
0.0
  0
LINE
  5
3b9
100
AcDbEntity
  8
Cut
 62
7
100
AcDbLine
 10
44.885259
 20
22.140981
 30
0.0
 11
44.043884
 21
22.140981
 31
0.0
  0
LINE
  5
3ba
100
AcDbEntity
  8
Cut
 62
7
100
AcDbLine
 10
44.043884
 20
22.140981
 30
0.0
 11
44.043884
 21
20.516000
 31
0.0
  0
LINE
  5
3bb
100
AcDbEntity
  8
Cut
 62
7
100
AcDbLine
 10
44.043884
 20
20.516000
 30
0.0
 11
44.885259
 21
20.516000
 31
0.0
  0
LINE
  5
3bc
100
AcDbEntity
  8
Cut
 62
7
100
AcDbLine
 10
44.885259
 20
20.516000
 30
0.0
 11
44.885259
 21
18.928500
 31
0.0
  0
LINE
  5
3bd
100
AcDbEntity
  8
Cut
 62
7
100
AcDbLine
 10
44.885259
 20
18.928500
 30
0.0
 11
44.043884
 21
18.928500
 31
0.0
  0
LINE
  5
3be
100
AcDbEntity
  8
Cut
 62
7
100
AcDbLine
 10
44.043884
 20
18.928500
 30
0.0
 11
44.043884
 21
17.303517
 31
0.0
  0
LINE
  5
3bf
100
AcDbEntity
  8
Cut
 62
7
100
AcDbLine
 10
44.043884
 20
17.303517
 30
0.0
 11
44.885259
 21
17.303517
 31
0.0
  0
LINE
  5
3c0
100
AcDbEntity
  8
Cut
 62
7
100
AcDbLine
 10
44.885259
 20
17.303517
 30
0.0
 11
44.885259
 21
15.716017
 31
0.0
  0
LINE
  5
3c1
100
AcDbEntity
  8
Cut
 62
7
100
AcDbLine
 10
44.885259
 20
15.716017
 30
0.0
 11
44.043884
 21
15.716017
 31
0.0
  0
LINE
  5
3c2
100
AcDbEntity
  8
Cut
 62
7
100
AcDbLine
 10
44.043884
 20
15.716017
 30
0.0
 11
44.043884
 21
14.091033
 31
0.0
  0
LINE
  5
3c3
100
AcDbEntity
  8
Cut
 62
7
100
AcDbLine
 10
44.043884
 20
14.091033
 30
0.0
 11
44.885259
 21
14.091033
 31
0.0
  0
LINE
  5
3c4
100
AcDbEntity
  8
Cut
 62
7
100
AcDbLine
 10
44.885259
 20
14.091033
 30
0.0
 11
44.885259
 21
12.503533
 31
0.0
  0
LINE
  5
3c5
100
AcDbEntity
  8
Cut
 62
7
100
AcDbLine
 10
44.885259
 20
12.503533
 30
0.0
 11
44.043884
 21
12.503533
 31
0.0
  0
LINE
  5
3c6
100
AcDbEntity
  8
Cut
 62
7
100
AcDbLine
 10
44.043884
 20
12.503533
 30
0.0
 11
44.043884
 21
10.878552
 31
0.0
  0
LINE
  5
3c7
100
AcDbEntity
  8
Cut
 62
7
100
AcDbLine
 10
44.043884
 20
10.878552
 30
0.0
 11
44.885259
 21
10.878552
 31
0.0
  0
LINE
  5
3c8
100
AcDbEntity
  8
Cut
 62
7
100
AcDbLine
 10
44.885259
 20
10.878552
 30
0.0
 11
44.885259
 21
9.291052
 31
0.0
  0
LINE
  5
3c9
100
AcDbEntity
  8
Cut
 62
7
100
AcDbLine
 10
44.885259
 20
9.291052
 30
0.0
 11
44.043884
 21
9.291052
 31
0.0
  0
LINE
  5
3ca
100
AcDbEntity
  8
Cut
 62
7
100
AcDbLine
 10
44.043884
 20
9.291052
 30
0.0
 11
44.043884
 21
7.666069
 31
0.0
  0
LINE
  5
3cb
100
AcDbEntity
  8
Cut
 62
7
100
AcDbLine
 10
44.043884
 20
7.666069
 30
0.0
 11
44.885259
 21
7.666069
 31
0.0
  0
LINE
  5
3cc
100
AcDbEntity
  8
Cut
 62
7
100
AcDbLine
 10
44.885259
 20
7.666069
 30
0.0
 11
44.885259
 21
6.078569
 31
0.0
  0
LINE
  5
3cd
100
AcDbEntity
  8
Cut
 62
7
100
AcDbLine
 10
44.885259
 20
6.078569
 30
0.0
 11
44.043884
 21
6.078569
 31
0.0
  0
LINE
  5
3ce
100
AcDbEntity
  8
Cut
 62
7
100
AcDbLine
 10
44.043884
 20
6.078569
 30
0.0
 11
44.043884
 21
4.453585
 31
0.0
  0
LINE
  5
3cf
100
AcDbEntity
  8
Cut
 62
7
100
AcDbLine
 10
44.043884
 20
4.453585
 30
0.0
 11
44.885259
 21
4.453585
 31
0.0
  0
LINE
  5
3d0
100
AcDbEntity
  8
Cut
 62
7
100
AcDbLine
 10
44.885259
 20
4.453585
 30
0.0
 11
44.885259
 21
2.866085
 31
0.0
  0
LINE
  5
3d1
100
AcDbEntity
  8
Cut
 62
7
100
AcDbLine
 10
44.885259
 20
2.866085
 30
0.0
 11
44.043884
 21
2.866085
 31
0.0
  0
LINE
  5
3d2
100
AcDbEntity
  8
Cut
 62
7
100
AcDbLine
 10
44.043884
 20
2.866085
 30
0.0
 11
44.043884
 21
2.082479
 31
0.0
  0
LINE
  5
3d3
100
AcDbEntity
  8
Cut
 62
7
100
AcDbLine
 10
44.043884
 20
2.082479
 30
0.0
 11
42.863400
 21
2.082479
 31
0.0
  0
LINE
  5
3d4
100
AcDbEntity
  8
Cut
 62
7
100
AcDbLine
 10
42.863400
 20
2.082479
 30
0.0
 11
42.863400
 21
1.241104
 31
0.0
  0
LINE
  5
3d5
100
AcDbEntity
  8
Cut
 62
7
100
AcDbLine
 10
42.863400
 20
1.241104
 30
0.0
 11
41.275900
 21
1.241104
 31
0.0
  0
LINE
  5
3d6
100
AcDbEntity
  8
Cut
 62
7
100
AcDbLine
 10
41.275900
 20
1.241104
 30
0.0
 11
41.275900
 21
2.082479
 31
0.0
  0
LINE
  5
3d7
100
AcDbEntity
  8
Cut
 62
7
100
AcDbLine
 10
41.275900
 20
2.082479
 30
0.0
 11
39.254045
 21
2.082479
 31
0.0
  0
LINE
  5
3d8
100
AcDbEntity
  8
Cut
 62
7
100
AcDbLine
 10
39.254045
 20
2.082479
 30
0.0
 11
39.254045
 21
1.241104
 31
0.0
  0
LINE
  5
3d9
100
AcDbEntity
  8
Cut
 62
7
100
AcDbLine
 10
39.254045
 20
1.241104
 30
0.0
 11
37.666545
 21
1.241104
 31
0.0
  0
LINE
  5
3da
100
AcDbEntity
  8
Cut
 62
7
100
AcDbLine
 10
37.666545
 20
1.241104
 30
0.0
 11
37.666545
 21
2.082479
 31
0.0
  0
LINE
  5
3db
100
AcDbEntity
  8
Cut
 62
7
100
AcDbLine
 10
37.666545
 20
2.082479
 30
0.0
 11
35.645972
 21
2.082479
 31
0.0
  0
LINE
  5
3dc
100
AcDbEntity
  8
Cut
 62
7
100
AcDbLine
 10
35.645972
 20
2.082479
 30
0.0
 11
35.645972
 21
2.866085
 31
0.0
  0
LINE
  5
3dd
100
AcDbEntity
  8
Cut
 62
7
100
AcDbLine
 10
35.645972
 20
2.866085
 30
0.0
 11
35.645972
 21
2.866085
 31
0.0
  0
LINE
  5
3de
100
AcDbEntity
  8
Cut
 62
7
100
AcDbLine
 10
35.645972
 20
2.866085
 30
0.0
 11
35.645972
 21
4.453585
 31
0.0
  0
LINE
  5
3df
100
AcDbEntity
  8
Cut
 62
7
100
AcDbLine
 10
35.645972
 20
4.453585
 30
0.0
 11
35.645972
 21
4.453585
 31
0.0
  0
LINE
  5
3e0
100
AcDbEntity
  8
Cut
 62
7
100
AcDbLine
 10
35.645972
 20
4.453585
 30
0.0
 11
35.645972
 21
6.078569
 31
0.0
  0
LINE
  5
3e1
100
AcDbEntity
  8
Cut
 62
7
100
AcDbLine
 10
35.645972
 20
6.078569
 30
0.0
 11
35.645972
 21
6.078569
 31
0.0
  0
LINE
  5
3e2
100
AcDbEntity
  8
Cut
 62
7
100
AcDbLine
 10
35.645972
 20
6.078569
 30
0.0
 11
35.645972
 21
7.666069
 31
0.0
  0
LINE
  5
3e3
100
AcDbEntity
  8
Cut
 62
7
100
AcDbLine
 10
35.645972
 20
7.666069
 30
0.0
 11
35.645972
 21
7.666069
 31
0.0
  0
LINE
  5
3e4
100
AcDbEntity
  8
Cut
 62
7
100
AcDbLine
 10
35.645972
 20
7.666069
 30
0.0
 11
35.645972
 21
9.291052
 31
0.0
  0
LINE
  5
3e5
100
AcDbEntity
  8
Cut
 62
7
100
AcDbLine
 10
35.645972
 20
9.291052
 30
0.0
 11
35.645972
 21
9.291052
 31
0.0
  0
LINE
  5
3e6
100
AcDbEntity
  8
Cut
 62
7
100
AcDbLine
 10
35.645972
 20
9.291052
 30
0.0
 11
35.645972
 21
10.878552
 31
0.0
  0
LINE
  5
3e7
100
AcDbEntity
  8
Cut
 62
7
100
AcDbLine
 10
35.645972
 20
10.878552
 30
0.0
 11
35.645972
 21
10.878552
 31
0.0
  0
LINE
  5
3e8
100
AcDbEntity
  8
Cut
 62
7
100
AcDbLine
 10
35.645972
 20
10.878552
 30
0.0
 11
35.645972
 21
12.503533
 31
0.0
  0
LINE
  5
3e9
100
AcDbEntity
  8
Cut
 62
7
100
AcDbLine
 10
35.645972
 20
12.503533
 30
0.0
 11
35.645972
 21
12.503533
 31
0.0
  0
LINE
  5
3ea
100
AcDbEntity
  8
Cut
 62
7
100
AcDbLine
 10
35.645972
 20
12.503533
 30
0.0
 11
35.645972
 21
14.091033
 31
0.0
  0
LINE
  5
3eb
100
AcDbEntity
  8
Cut
 62
7
100
AcDbLine
 10
35.645972
 20
14.091033
 30
0.0
 11
35.645972
 21
14.091033
 31
0.0
  0
LINE
  5
3ec
100
AcDbEntity
  8
Cut
 62
7
100
AcDbLine
 10
35.645972
 20
14.091033
 30
0.0
 11
35.645972
 21
15.716017
 31
0.0
  0
LINE
  5
3ed
100
AcDbEntity
  8
Cut
 62
7
100
AcDbLine
 10
35.645972
 20
15.716017
 30
0.0
 11
35.645972
 21
15.716017
 31
0.0
  0
LINE
  5
3ee
100
AcDbEntity
  8
Cut
 62
7
100
AcDbLine
 10
35.645972
 20
15.716017
 30
0.0
 11
35.645972
 21
17.303517
 31
0.0
  0
LINE
  5
3ef
100
AcDbEntity
  8
Cut
 62
7
100
AcDbLine
 10
35.645972
 20
17.303517
 30
0.0
 11
35.645972
 21
17.303517
 31
0.0
  0
LINE
  5
3f0
100
AcDbEntity
  8
Cut
 62
7
100
AcDbLine
 10
35.645972
 20
17.303517
 30
0.0
 11
35.645972
 21
18.928500
 31
0.0
  0
LINE
  5
3f1
100
AcDbEntity
  8
Cut
 62
7
100
AcDbLine
 10
35.645972
 20
18.928500
 30
0.0
 11
35.645972
 21
18.928500
 31
0.0
  0
LINE
  5
3f2
100
AcDbEntity
  8
Cut
 62
7
100
AcDbLine
 10
35.645972
 20
18.928500
 30
0.0
 11
35.645972
 21
20.516000
 31
0.0
  0
LINE
  5
3f3
100
AcDbEntity
  8
Cut
 62
7
100
AcDbLine
 10
35.645972
 20
20.516000
 30
0.0
 11
35.645972
 21
20.516000
 31
0.0
  0
LINE
  5
3f4
100
AcDbEntity
  8
Cut
 62
7
100
AcDbLine
 10
35.645972
 20
20.516000
 30
0.0
 11
35.645972
 21
22.140981
 31
0.0
  0
LINE
  5
3f5
100
AcDbEntity
  8
Cut
 62
7
100
AcDbLine
 10
35.645972
 20
22.140981
 30
0.0
 11
35.645972
 21
22.140981
 31
0.0
  0
LINE
  5
3f6
100
AcDbEntity
  8
Cut
 62
7
100
AcDbLine
 10
35.645972
 20
22.140981
 30
0.0
 11
35.645972
 21
23.728481
 31
0.0
  0
LINE
  5
3f7
100
AcDbEntity
  8
Cut
 62
7
100
AcDbLine
 10
35.645972
 20
23.728481
 30
0.0
 11
35.645972
 21
23.728481
 31
0.0
  0
LINE
  5
3f8
100
AcDbEntity
  8
Cut
 62
7
100
AcDbLine
 10
35.645972
 20
23.728481
 30
0.0
 11
35.645972
 21
25.353465
 31
0.0
  0
LINE
  5
3f9
100
AcDbEntity
  8
Cut
 62
7
100
AcDbLine
 10
35.645972
 20
25.353465
 30
0.0
 11
35.645972
 21
25.353465
 31
0.0
  0
LINE
  5
3fa
100
AcDbEntity
  8
Cut
 62
7
100
AcDbLine
 10
35.645972
 20
25.353465
 30
0.0
 11
35.645972
 21
26.940965
 31
0.0
  0
LINE
  5
3fb
100
AcDbEntity
  8
Cut
 62
7
100
AcDbLine
 10
35.645972
 20
26.940965
 30
0.0
 11
35.645972
 21
26.940965
 31
0.0
  0
LINE
  5
3fc
100
AcDbEntity
  8
Cut
 62
7
100
AcDbLine
 10
35.645972
 20
26.940965
 30
0.0
 11
35.645972
 21
28.565948
 31
0.0
  0
LINE
  5
3fd
100
AcDbEntity
  8
Cut
 62
7
100
AcDbLine
 10
35.645972
 20
28.565948
 30
0.0
 11
35.645972
 21
28.565948
 31
0.0
  0
LINE
  5
3fe
100
AcDbEntity
  8
Cut
 62
7
100
AcDbLine
 10
35.645972
 20
28.565948
 30
0.0
 11
35.645972
 21
30.153448
 31
0.0
  0
LINE
  5
3ff
100
AcDbEntity
  8
Cut
 62
7
100
AcDbLine
 10
35.645972
 20
30.153448
 30
0.0
 11
35.645972
 21
30.153448
 31
0.0
  0
LINE
  5
400
100
AcDbEntity
  8
Cut
 62
7
100
AcDbLine
 10
35.645972
 20
30.153448
 30
0.0
 11
35.645972
 21
31.778429
 31
0.0
  0
LINE
  5
401
100
AcDbEntity
  8
Cut
 62
7
100
AcDbLine
 10
35.645972
 20
31.778429
 30
0.0
 11
35.645972
 21
31.778429
 31
0.0
  0
LINE
  5
402
100
AcDbEntity
  8
Cut
 62
7
100
AcDbLine
 10
35.645972
 20
31.778429
 30
0.0
 11
35.645972
 21
33.365929
 31
0.0
  0
LINE
  5
403
100
AcDbEntity
  8
Cut
 62
7
100
AcDbLine
 10
35.645972
 20
33.365929
 30
0.0
 11
35.645972
 21
33.365929
 31
0.0
  0
LINE
  5
404
100
AcDbEntity
  8
Cut
 62
7
100
AcDbLine
 10
35.645972
 20
33.365929
 30
0.0
 11
35.645972
 21
34.990912
 31
0.0
  0
LINE
  5
405
100
AcDbEntity
  8
Cut
 62
7
100
AcDbLine
 10
35.645972
 20
34.990912
 30
0.0
 11
35.645972
 21
34.990912
 31
0.0
  0
LINE
  5
406
100
AcDbEntity
  8
Cut
 62
7
100
AcDbLine
 10
35.645972
 20
34.990912
 30
0.0
 11
35.645972
 21
36.578412
 31
0.0
  0
LINE
  5
407
100
AcDbEntity
  8
Cut
 62
7
100
AcDbLine
 10
35.645972
 20
36.578412
 30
0.0
 11
35.645972
 21
36.578412
 31
0.0
  0
LINE
  5
408
100
AcDbEntity
  8
Cut
 62
7
100
AcDbLine
 10
35.645972
 20
36.578412
 30
0.0
 11
35.645972
 21
37.362021
 31
0.0
  0
LINE
  5
409
100
AcDbEntity
  8
Cut
 62
7
100
AcDbLine
 10
26.126668
 20
37.362021
 30
0.0
 11
28.147238
 21
37.362021
 31
0.0
  0
LINE
  5
40a
100
AcDbEntity
  8
Cut
 62
7
100
AcDbLine
 10
28.147238
 20
37.362021
 30
0.0
 11
28.147238
 21
38.203396
 31
0.0
  0
LINE
  5
40b
100
AcDbEntity
  8
Cut
 62
7
100
AcDbLine
 10
28.147238
 20
38.203396
 30
0.0
 11
29.734738
 21
38.203396
 31
0.0
  0
LINE
  5
40c
100
AcDbEntity
  8
Cut
 62
7
100
AcDbLine
 10
29.734738
 20
38.203396
 30
0.0
 11
29.734738
 21
37.362021
 31
0.0
  0
LINE
  5
40d
100
AcDbEntity
  8
Cut
 62
7
100
AcDbLine
 10
29.734738
 20
37.362021
 30
0.0
 11
31.756597
 21
37.362021
 31
0.0
  0
LINE
  5
40e
100
AcDbEntity
  8
Cut
 62
7
100
AcDbLine
 10
31.756597
 20
37.362021
 30
0.0
 11
31.756597
 21
38.203396
 31
0.0
  0
LINE
  5
40f
100
AcDbEntity
  8
Cut
 62
7
100
AcDbLine
 10
31.756597
 20
38.203396
 30
0.0
 11
33.344097
 21
38.203396
 31
0.0
  0
LINE
  5
410
100
AcDbEntity
  8
Cut
 62
7
100
AcDbLine
 10
33.344097
 20
38.203396
 30
0.0
 11
33.344097
 21
37.362021
 31
0.0
  0
LINE
  5
411
100
AcDbEntity
  8
Cut
 62
7
100
AcDbLine
 10
33.344097
 20
37.362021
 30
0.0
 11
34.524578
 21
37.362021
 31
0.0
  0
LINE
  5
412
100
AcDbEntity
  8
Cut
 62
7
100
AcDbLine
 10
34.524578
 20
37.362021
 30
0.0
 11
34.524578
 21
36.578412
 31
0.0
  0
LINE
  5
413
100
AcDbEntity
  8
Cut
 62
7
100
AcDbLine
 10
34.524578
 20
36.578412
 30
0.0
 11
35.365953
 21
36.578412
 31
0.0
  0
LINE
  5
414
100
AcDbEntity
  8
Cut
 62
7
100
AcDbLine
 10
35.365953
 20
36.578412
 30
0.0
 11
35.365953
 21
34.990912
 31
0.0
  0
LINE
  5
415
100
AcDbEntity
  8
Cut
 62
7
100
AcDbLine
 10
35.365953
 20
34.990912
 30
0.0
 11
34.524578
 21
34.990912
 31
0.0
  0
LINE
  5
416
100
AcDbEntity
  8
Cut
 62
7
100
AcDbLine
 10
34.524578
 20
34.990912
 30
0.0
 11
34.524578
 21
33.365929
 31
0.0
  0
LINE
  5
417
100
AcDbEntity
  8
Cut
 62
7
100
AcDbLine
 10
34.524578
 20
33.365929
 30
0.0
 11
35.365953
 21
33.365929
 31
0.0
  0
LINE
  5
418
100
AcDbEntity
  8
Cut
 62
7
100
AcDbLine
 10
35.365953
 20
33.365929
 30
0.0
 11
35.365953
 21
31.778429
 31
0.0
  0
LINE
  5
419
100
AcDbEntity
  8
Cut
 62
7
100
AcDbLine
 10
35.365953
 20
31.778429
 30
0.0
 11
34.524578
 21
31.778429
 31
0.0
  0
LINE
  5
41a
100
AcDbEntity
  8
Cut
 62
7
100
AcDbLine
 10
34.524578
 20
31.778429
 30
0.0
 11
34.524578
 21
30.153448
 31
0.0
  0
LINE
  5
41b
100
AcDbEntity
  8
Cut
 62
7
100
AcDbLine
 10
34.524578
 20
30.153448
 30
0.0
 11
35.365953
 21
30.153448
 31
0.0
  0
LINE
  5
41c
100
AcDbEntity
  8
Cut
 62
7
100
AcDbLine
 10
35.365953
 20
30.153448
 30
0.0
 11
35.365953
 21
28.565948
 31
0.0
  0
LINE
  5
41d
100
AcDbEntity
  8
Cut
 62
7
100
AcDbLine
 10
35.365953
 20
28.565948
 30
0.0
 11
34.524578
 21
28.565948
 31
0.0
  0
LINE
  5
41e
100
AcDbEntity
  8
Cut
 62
7
100
AcDbLine
 10
34.524578
 20
28.565948
 30
0.0
 11
34.524578
 21
26.940965
 31
0.0
  0
LINE
  5
41f
100
AcDbEntity
  8
Cut
 62
7
100
AcDbLine
 10
34.524578
 20
26.940965
 30
0.0
 11
35.365953
 21
26.940965
 31
0.0
  0
LINE
  5
420
100
AcDbEntity
  8
Cut
 62
7
100
AcDbLine
 10
35.365953
 20
26.940965
 30
0.0
 11
35.365953
 21
25.353465
 31
0.0
  0
LINE
  5
421
100
AcDbEntity
  8
Cut
 62
7
100
AcDbLine
 10
35.365953
 20
25.353465
 30
0.0
 11
34.524578
 21
25.353465
 31
0.0
  0
LINE
  5
422
100
AcDbEntity
  8
Cut
 62
7
100
AcDbLine
 10
34.524578
 20
25.353465
 30
0.0
 11
34.524578
 21
23.728481
 31
0.0
  0
LINE
  5
423
100
AcDbEntity
  8
Cut
 62
7
100
AcDbLine
 10
34.524578
 20
23.728481
 30
0.0
 11
35.365953
 21
23.728481
 31
0.0
  0
LINE
  5
424
100
AcDbEntity
  8
Cut
 62
7
100
AcDbLine
 10
35.365953
 20
23.728481
 30
0.0
 11
35.365953
 21
22.140981
 31
0.0
  0
LINE
  5
425
100
AcDbEntity
  8
Cut
 62
7
100
AcDbLine
 10
35.365953
 20
22.140981
 30
0.0
 11
34.524578
 21
22.140981
 31
0.0
  0
LINE
  5
426
100
AcDbEntity
  8
Cut
 62
7
100
AcDbLine
 10
34.524578
 20
22.140981
 30
0.0
 11
34.524578
 21
20.516000
 31
0.0
  0
LINE
  5
427
100
AcDbEntity
  8
Cut
 62
7
100
AcDbLine
 10
34.524578
 20
20.516000
 30
0.0
 11
35.365953
 21
20.516000
 31
0.0
  0
LINE
  5
428
100
AcDbEntity
  8
Cut
 62
7
100
AcDbLine
 10
35.365953
 20
20.516000
 30
0.0
 11
35.365953
 21
18.928500
 31
0.0
  0
LINE
  5
429
100
AcDbEntity
  8
Cut
 62
7
100
AcDbLine
 10
35.365953
 20
18.928500
 30
0.0
 11
34.524578
 21
18.928500
 31
0.0
  0
LINE
  5
42a
100
AcDbEntity
  8
Cut
 62
7
100
AcDbLine
 10
34.524578
 20
18.928500
 30
0.0
 11
34.524578
 21
17.303517
 31
0.0
  0
LINE
  5
42b
100
AcDbEntity
  8
Cut
 62
7
100
AcDbLine
 10
34.524578
 20
17.303517
 30
0.0
 11
35.365953
 21
17.303517
 31
0.0
  0
LINE
  5
42c
100
AcDbEntity
  8
Cut
 62
7
100
AcDbLine
 10
35.365953
 20
17.303517
 30
0.0
 11
35.365953
 21
15.716017
 31
0.0
  0
LINE
  5
42d
100
AcDbEntity
  8
Cut
 62
7
100
AcDbLine
 10
35.365953
 20
15.716017
 30
0.0
 11
34.524578
 21
15.716017
 31
0.0
  0
LINE
  5
42e
100
AcDbEntity
  8
Cut
 62
7
100
AcDbLine
 10
34.524578
 20
15.716017
 30
0.0
 11
34.524578
 21
14.091033
 31
0.0
  0
LINE
  5
42f
100
AcDbEntity
  8
Cut
 62
7
100
AcDbLine
 10
34.524578
 20
14.091033
 30
0.0
 11
35.365953
 21
14.091033
 31
0.0
  0
LINE
  5
430
100
AcDbEntity
  8
Cut
 62
7
100
AcDbLine
 10
35.365953
 20
14.091033
 30
0.0
 11
35.365953
 21
12.503533
 31
0.0
  0
LINE
  5
431
100
AcDbEntity
  8
Cut
 62
7
100
AcDbLine
 10
35.365953
 20
12.503533
 30
0.0
 11
34.524578
 21
12.503533
 31
0.0
  0
LINE
  5
432
100
AcDbEntity
  8
Cut
 62
7
100
AcDbLine
 10
34.524578
 20
12.503533
 30
0.0
 11
34.524578
 21
10.878552
 31
0.0
  0
LINE
  5
433
100
AcDbEntity
  8
Cut
 62
7
100
AcDbLine
 10
34.524578
 20
10.878552
 30
0.0
 11
35.365953
 21
10.878552
 31
0.0
  0
LINE
  5
434
100
AcDbEntity
  8
Cut
 62
7
100
AcDbLine
 10
35.365953
 20
10.878552
 30
0.0
 11
35.365953
 21
9.291052
 31
0.0
  0
LINE
  5
435
100
AcDbEntity
  8
Cut
 62
7
100
AcDbLine
 10
35.365953
 20
9.291052
 30
0.0
 11
34.524578
 21
9.291052
 31
0.0
  0
LINE
  5
436
100
AcDbEntity
  8
Cut
 62
7
100
AcDbLine
 10
34.524578
 20
9.291052
 30
0.0
 11
34.524578
 21
7.666069
 31
0.0
  0
LINE
  5
437
100
AcDbEntity
  8
Cut
 62
7
100
AcDbLine
 10
34.524578
 20
7.666069
 30
0.0
 11
35.365953
 21
7.666069
 31
0.0
  0
LINE
  5
438
100
AcDbEntity
  8
Cut
 62
7
100
AcDbLine
 10
35.365953
 20
7.666069
 30
0.0
 11
35.365953
 21
6.078569
 31
0.0
  0
LINE
  5
439
100
AcDbEntity
  8
Cut
 62
7
100
AcDbLine
 10
35.365953
 20
6.078569
 30
0.0
 11
34.524578
 21
6.078569
 31
0.0
  0
LINE
  5
43a
100
AcDbEntity
  8
Cut
 62
7
100
AcDbLine
 10
34.524578
 20
6.078569
 30
0.0
 11
34.524578
 21
4.453585
 31
0.0
  0
LINE
  5
43b
100
AcDbEntity
  8
Cut
 62
7
100
AcDbLine
 10
34.524578
 20
4.453585
 30
0.0
 11
35.365953
 21
4.453585
 31
0.0
  0
LINE
  5
43c
100
AcDbEntity
  8
Cut
 62
7
100
AcDbLine
 10
35.365953
 20
4.453585
 30
0.0
 11
35.365953
 21
2.866085
 31
0.0
  0
LINE
  5
43d
100
AcDbEntity
  8
Cut
 62
7
100
AcDbLine
 10
35.365953
 20
2.866085
 30
0.0
 11
34.524578
 21
2.866085
 31
0.0
  0
LINE
  5
43e
100
AcDbEntity
  8
Cut
 62
7
100
AcDbLine
 10
34.524578
 20
2.866085
 30
0.0
 11
34.524578
 21
2.082479
 31
0.0
  0
LINE
  5
43f
100
AcDbEntity
  8
Cut
 62
7
100
AcDbLine
 10
34.524578
 20
2.082479
 30
0.0
 11
33.344097
 21
2.082479
 31
0.0
  0
LINE
  5
440
100
AcDbEntity
  8
Cut
 62
7
100
AcDbLine
 10
33.344097
 20
2.082479
 30
0.0
 11
33.344097
 21
1.241104
 31
0.0
  0
LINE
  5
441
100
AcDbEntity
  8
Cut
 62
7
100
AcDbLine
 10
33.344097
 20
1.241104
 30
0.0
 11
31.756597
 21
1.241104
 31
0.0
  0
LINE
  5
442
100
AcDbEntity
  8
Cut
 62
7
100
AcDbLine
 10
31.756597
 20
1.241104
 30
0.0
 11
31.756597
 21
2.082479
 31
0.0
  0
LINE
  5
443
100
AcDbEntity
  8
Cut
 62
7
100
AcDbLine
 10
31.756597
 20
2.082479
 30
0.0
 11
29.734738
 21
2.082479
 31
0.0
  0
LINE
  5
444
100
AcDbEntity
  8
Cut
 62
7
100
AcDbLine
 10
29.734738
 20
2.082479
 30
0.0
 11
29.734738
 21
1.241104
 31
0.0
  0
LINE
  5
445
100
AcDbEntity
  8
Cut
 62
7
100
AcDbLine
 10
29.734738
 20
1.241104
 30
0.0
 11
28.147238
 21
1.241104
 31
0.0
  0
LINE
  5
446
100
AcDbEntity
  8
Cut
 62
7
100
AcDbLine
 10
28.147238
 20
1.241104
 30
0.0
 11
28.147238
 21
2.082479
 31
0.0
  0
LINE
  5
447
100
AcDbEntity
  8
Cut
 62
7
100
AcDbLine
 10
28.147238
 20
2.082479
 30
0.0
 11
26.126668
 21
2.082479
 31
0.0
  0
LINE
  5
448
100
AcDbEntity
  8
Cut
 62
7
100
AcDbLine
 10
26.126668
 20
2.082479
 30
0.0
 11
26.126668
 21
2.866085
 31
0.0
  0
LINE
  5
449
100
AcDbEntity
  8
Cut
 62
7
100
AcDbLine
 10
26.126668
 20
2.866085
 30
0.0
 11
26.126668
 21
2.866085
 31
0.0
  0
LINE
  5
44a
100
AcDbEntity
  8
Cut
 62
7
100
AcDbLine
 10
26.126668
 20
2.866085
 30
0.0
 11
26.126668
 21
4.453585
 31
0.0
  0
LINE
  5
44b
100
AcDbEntity
  8
Cut
 62
7
100
AcDbLine
 10
26.126668
 20
4.453585
 30
0.0
 11
26.126668
 21
4.453585
 31
0.0
  0
LINE
  5
44c
100
AcDbEntity
  8
Cut
 62
7
100
AcDbLine
 10
26.126668
 20
4.453585
 30
0.0
 11
26.126668
 21
6.078569
 31
0.0
  0
LINE
  5
44d
100
AcDbEntity
  8
Cut
 62
7
100
AcDbLine
 10
26.126668
 20
6.078569
 30
0.0
 11
26.126668
 21
6.078569
 31
0.0
  0
LINE
  5
44e
100
AcDbEntity
  8
Cut
 62
7
100
AcDbLine
 10
26.126668
 20
6.078569
 30
0.0
 11
26.126668
 21
7.666069
 31
0.0
  0
LINE
  5
44f
100
AcDbEntity
  8
Cut
 62
7
100
AcDbLine
 10
26.126668
 20
7.666069
 30
0.0
 11
26.126668
 21
7.666069
 31
0.0
  0
LINE
  5
450
100
AcDbEntity
  8
Cut
 62
7
100
AcDbLine
 10
26.126668
 20
7.666069
 30
0.0
 11
26.126668
 21
9.291052
 31
0.0
  0
LINE
  5
451
100
AcDbEntity
  8
Cut
 62
7
100
AcDbLine
 10
26.126668
 20
9.291052
 30
0.0
 11
26.126668
 21
9.291052
 31
0.0
  0
LINE
  5
452
100
AcDbEntity
  8
Cut
 62
7
100
AcDbLine
 10
26.126668
 20
9.291052
 30
0.0
 11
26.126668
 21
10.878552
 31
0.0
  0
LINE
  5
453
100
AcDbEntity
  8
Cut
 62
7
100
AcDbLine
 10
26.126668
 20
10.878552
 30
0.0
 11
26.126668
 21
10.878552
 31
0.0
  0
LINE
  5
454
100
AcDbEntity
  8
Cut
 62
7
100
AcDbLine
 10
26.126668
 20
10.878552
 30
0.0
 11
26.126668
 21
12.503533
 31
0.0
  0
LINE
  5
455
100
AcDbEntity
  8
Cut
 62
7
100
AcDbLine
 10
26.126668
 20
12.503533
 30
0.0
 11
26.126668
 21
12.503533
 31
0.0
  0
LINE
  5
456
100
AcDbEntity
  8
Cut
 62
7
100
AcDbLine
 10
26.126668
 20
12.503533
 30
0.0
 11
26.126668
 21
14.091033
 31
0.0
  0
LINE
  5
457
100
AcDbEntity
  8
Cut
 62
7
100
AcDbLine
 10
26.126668
 20
14.091033
 30
0.0
 11
26.126668
 21
14.091033
 31
0.0
  0
LINE
  5
458
100
AcDbEntity
  8
Cut
 62
7
100
AcDbLine
 10
26.126668
 20
14.091033
 30
0.0
 11
26.126668
 21
15.716017
 31
0.0
  0
LINE
  5
459
100
AcDbEntity
  8
Cut
 62
7
100
AcDbLine
 10
26.126668
 20
15.716017
 30
0.0
 11
26.126668
 21
15.716017
 31
0.0
  0
LINE
  5
45a
100
AcDbEntity
  8
Cut
 62
7
100
AcDbLine
 10
26.126668
 20
15.716017
 30
0.0
 11
26.126668
 21
17.303517
 31
0.0
  0
LINE
  5
45b
100
AcDbEntity
  8
Cut
 62
7
100
AcDbLine
 10
26.126668
 20
17.303517
 30
0.0
 11
26.126668
 21
17.303517
 31
0.0
  0
LINE
  5
45c
100
AcDbEntity
  8
Cut
 62
7
100
AcDbLine
 10
26.126668
 20
17.303517
 30
0.0
 11
26.126668
 21
18.928500
 31
0.0
  0
LINE
  5
45d
100
AcDbEntity
  8
Cut
 62
7
100
AcDbLine
 10
26.126668
 20
18.928500
 30
0.0
 11
26.126668
 21
18.928500
 31
0.0
  0
LINE
  5
45e
100
AcDbEntity
  8
Cut
 62
7
100
AcDbLine
 10
26.126668
 20
18.928500
 30
0.0
 11
26.126668
 21
20.516000
 31
0.0
  0
LINE
  5
45f
100
AcDbEntity
  8
Cut
 62
7
100
AcDbLine
 10
26.126668
 20
20.516000
 30
0.0
 11
26.126668
 21
20.516000
 31
0.0
  0
LINE
  5
460
100
AcDbEntity
  8
Cut
 62
7
100
AcDbLine
 10
26.126668
 20
20.516000
 30
0.0
 11
26.126668
 21
22.140981
 31
0.0
  0
LINE
  5
461
100
AcDbEntity
  8
Cut
 62
7
100
AcDbLine
 10
26.126668
 20
22.140981
 30
0.0
 11
26.126668
 21
22.140981
 31
0.0
  0
LINE
  5
462
100
AcDbEntity
  8
Cut
 62
7
100
AcDbLine
 10
26.126668
 20
22.140981
 30
0.0
 11
26.126668
 21
23.728481
 31
0.0
  0
LINE
  5
463
100
AcDbEntity
  8
Cut
 62
7
100
AcDbLine
 10
26.126668
 20
23.728481
 30
0.0
 11
26.126668
 21
23.728481
 31
0.0
  0
LINE
  5
464
100
AcDbEntity
  8
Cut
 62
7
100
AcDbLine
 10
26.126668
 20
23.728481
 30
0.0
 11
26.126668
 21
25.353465
 31
0.0
  0
LINE
  5
465
100
AcDbEntity
  8
Cut
 62
7
100
AcDbLine
 10
26.126668
 20
25.353465
 30
0.0
 11
26.126668
 21
25.353465
 31
0.0
  0
LINE
  5
466
100
AcDbEntity
  8
Cut
 62
7
100
AcDbLine
 10
26.126668
 20
25.353465
 30
0.0
 11
26.126668
 21
26.940965
 31
0.0
  0
LINE
  5
467
100
AcDbEntity
  8
Cut
 62
7
100
AcDbLine
 10
26.126668
 20
26.940965
 30
0.0
 11
26.126668
 21
26.940965
 31
0.0
  0
LINE
  5
468
100
AcDbEntity
  8
Cut
 62
7
100
AcDbLine
 10
26.126668
 20
26.940965
 30
0.0
 11
26.126668
 21
28.565948
 31
0.0
  0
LINE
  5
469
100
AcDbEntity
  8
Cut
 62
7
100
AcDbLine
 10
26.126668
 20
28.565948
 30
0.0
 11
26.126668
 21
28.565948
 31
0.0
  0
LINE
  5
46a
100
AcDbEntity
  8
Cut
 62
7
100
AcDbLine
 10
26.126668
 20
28.565948
 30
0.0
 11
26.126668
 21
30.153448
 31
0.0
  0
LINE
  5
46b
100
AcDbEntity
  8
Cut
 62
7
100
AcDbLine
 10
26.126668
 20
30.153448
 30
0.0
 11
26.126668
 21
30.153448
 31
0.0
  0
LINE
  5
46c
100
AcDbEntity
  8
Cut
 62
7
100
AcDbLine
 10
26.126668
 20
30.153448
 30
0.0
 11
26.126668
 21
31.778429
 31
0.0
  0
LINE
  5
46d
100
AcDbEntity
  8
Cut
 62
7
100
AcDbLine
 10
26.126668
 20
31.778429
 30
0.0
 11
26.126668
 21
31.778429
 31
0.0
  0
LINE
  5
46e
100
AcDbEntity
  8
Cut
 62
7
100
AcDbLine
 10
26.126668
 20
31.778429
 30
0.0
 11
26.126668
 21
33.365929
 31
0.0
  0
LINE
  5
46f
100
AcDbEntity
  8
Cut
 62
7
100
AcDbLine
 10
26.126668
 20
33.365929
 30
0.0
 11
26.126668
 21
33.365929
 31
0.0
  0
LINE
  5
470
100
AcDbEntity
  8
Cut
 62
7
100
AcDbLine
 10
26.126668
 20
33.365929
 30
0.0
 11
26.126668
 21
34.990912
 31
0.0
  0
LINE
  5
471
100
AcDbEntity
  8
Cut
 62
7
100
AcDbLine
 10
26.126668
 20
34.990912
 30
0.0
 11
26.126668
 21
34.990912
 31
0.0
  0
LINE
  5
472
100
AcDbEntity
  8
Cut
 62
7
100
AcDbLine
 10
26.126668
 20
34.990912
 30
0.0
 11
26.126668
 21
36.578412
 31
0.0
  0
LINE
  5
473
100
AcDbEntity
  8
Cut
 62
7
100
AcDbLine
 10
26.126668
 20
36.578412
 30
0.0
 11
26.126668
 21
36.578412
 31
0.0
  0
LINE
  5
474
100
AcDbEntity
  8
Cut
 62
7
100
AcDbLine
 10
26.126668
 20
36.578412
 30
0.0
 11
26.126668
 21
37.362021
 31
0.0
  0
LINE
  5
475
100
AcDbEntity
  8
Cut
 62
7
100
AcDbLine
 10
26.129141
 20
29.800229
 30
0.0
 11
28.147240
 21
29.800229
 31
0.0
  0
LINE
  5
476
100
AcDbEntity
  8
Cut
 62
7
100
AcDbLine
 10
28.147240
 20
29.800229
 30
0.0
 11
28.147240
 21
30.641604
 31
0.0
  0
LINE
  5
477
100
AcDbEntity
  8
Cut
 62
7
100
AcDbLine
 10
28.147240
 20
30.641604
 30
0.0
 11
26.129141
 21
30.641604
 31
0.0
  0
LINE
  5
478
100
AcDbEntity
  8
Cut
 62
7
100
AcDbLine
 10
29.734740
 20
29.800229
 30
0.0
 11
31.756598
 21
29.800229
 31
0.0
  0
LINE
  5
479
100
AcDbEntity
  8
Cut
 62
7
100
AcDbLine
 10
31.756598
 20
29.800229
 30
0.0
 11
31.756598
 21
30.641604
 31
0.0
  0
LINE
  5
47a
100
AcDbEntity
  8
Cut
 62
7
100
AcDbLine
 10
31.756598
 20
30.641604
 30
0.0
 11
29.734740
 21
30.641604
 31
0.0
  0
LINE
  5
47b
100
AcDbEntity
  8
Cut
 62
7
100
AcDbLine
 10
29.734740
 20
30.641604
 30
0.0
 11
29.734740
 21
29.800229
 31
0.0
  0
LINE
  5
47c
100
AcDbEntity
  8
Cut
 62
7
100
AcDbLine
 10
33.344098
 20
29.800229
 30
0.0
 11
34.524580
 21
29.800229
 31
0.0
  0
LINE
  5
47d
100
AcDbEntity
  8
Cut
 62
7
100
AcDbLine
 10
34.524580
 20
29.800229
 30
0.0
 11
34.524580
 21
30.641604
 31
0.0
  0
LINE
  5
47e
100
AcDbEntity
  8
Cut
 62
7
100
AcDbLine
 10
34.524580
 20
30.641604
 30
0.0
 11
33.344098
 21
30.641604
 31
0.0
  0
LINE
  5
47f
100
AcDbEntity
  8
Cut
 62
7
100
AcDbLine
 10
33.344098
 20
30.641604
 30
0.0
 11
33.344098
 21
29.800229
 31
0.0
  0
LINE
  5
480
100
AcDbEntity
  8
Cut
 62
7
100
AcDbLine
 10
26.129141
 20
19.723570
 30
0.0
 11
28.147240
 21
19.723570
 31
0.0
  0
LINE
  5
481
100
AcDbEntity
  8
Cut
 62
7
100
AcDbLine
 10
28.147240
 20
19.723570
 30
0.0
 11
28.147240
 21
20.564945
 31
0.0
  0
LINE
  5
482
100
AcDbEntity
  8
Cut
 62
7
100
AcDbLine
 10
28.147240
 20
20.564945
 30
0.0
 11
26.129141
 21
20.564945
 31
0.0
  0
LINE
  5
483
100
AcDbEntity
  8
Cut
 62
7
100
AcDbLine
 10
29.734740
 20
19.723570
 30
0.0
 11
31.756598
 21
19.723570
 31
0.0
  0
LINE
  5
484
100
AcDbEntity
  8
Cut
 62
7
100
AcDbLine
 10
31.756598
 20
19.723570
 30
0.0
 11
31.756598
 21
20.564945
 31
0.0
  0
LINE
  5
485
100
AcDbEntity
  8
Cut
 62
7
100
AcDbLine
 10
31.756598
 20
20.564945
 30
0.0
 11
29.734740
 21
20.564945
 31
0.0
  0
LINE
  5
486
100
AcDbEntity
  8
Cut
 62
7
100
AcDbLine
 10
29.734740
 20
20.564945
 30
0.0
 11
29.734740
 21
19.723570
 31
0.0
  0
LINE
  5
487
100
AcDbEntity
  8
Cut
 62
7
100
AcDbLine
 10
33.344098
 20
19.723570
 30
0.0
 11
34.524580
 21
19.723570
 31
0.0
  0
LINE
  5
488
100
AcDbEntity
  8
Cut
 62
7
100
AcDbLine
 10
34.524580
 20
19.723570
 30
0.0
 11
34.524580
 21
20.564945
 31
0.0
  0
LINE
  5
489
100
AcDbEntity
  8
Cut
 62
7
100
AcDbLine
 10
34.524580
 20
20.564945
 30
0.0
 11
33.344098
 21
20.564945
 31
0.0
  0
LINE
  5
48a
100
AcDbEntity
  8
Cut
 62
7
100
AcDbLine
 10
33.344098
 20
20.564945
 30
0.0
 11
33.344098
 21
19.723570
 31
0.0
  0
LINE
  5
48b
100
AcDbEntity
  8
Cut
 62
7
100
AcDbLine
 10
1.622502
 20
28.217448
 30
0.0
 11
3.321348
 21
28.217448
 31
0.0
  0
LINE
  5
48c
100
AcDbEntity
  8
Cut
 62
7
100
AcDbLine
 10
3.321348
 20
28.217448
 30
0.0
 11
3.321348
 21
29.058823
 31
0.0
  0
LINE
  5
48d
100
AcDbEntity
  8
Cut
 62
7
100
AcDbLine
 10
3.321348
 20
29.058823
 30
0.0
 11
4.908848
 21
29.058823
 31
0.0
  0
LINE
  5
48e
100
AcDbEntity
  8
Cut
 62
7
100
AcDbLine
 10
4.908848
 20
29.058823
 30
0.0
 11
4.908848
 21
28.217448
 31
0.0
  0
LINE
  5
48f
100
AcDbEntity
  8
Cut
 62
7
100
AcDbLine
 10
4.908848
 20
28.217448
 30
0.0
 11
6.607693
 21
28.217448
 31
0.0
  0
LINE
  5
490
100
AcDbEntity
  8
Cut
 62
7
100
AcDbLine
 10
6.607693
 20
28.217448
 30
0.0
 11
6.607693
 21
29.058823
 31
0.0
  0
LINE
  5
491
100
AcDbEntity
  8
Cut
 62
7
100
AcDbLine
 10
6.607693
 20
29.058823
 30
0.0
 11
8.195193
 21
29.058823
 31
0.0
  0
LINE
  5
492
100
AcDbEntity
  8
Cut
 62
7
100
AcDbLine
 10
8.195193
 20
29.058823
 30
0.0
 11
8.195193
 21
28.217448
 31
0.0
  0
LINE
  5
493
100
AcDbEntity
  8
Cut
 62
7
100
AcDbLine
 10
8.195193
 20
28.217448
 30
0.0
 11
9.894039
 21
28.217448
 31
0.0
  0
LINE
  5
494
100
AcDbEntity
  8
Cut
 62
7
100
AcDbLine
 10
9.894039
 20
28.217448
 30
0.0
 11
9.894039
 21
29.058823
 31
0.0
  0
LINE
  5
495
100
AcDbEntity
  8
Cut
 62
7
100
AcDbLine
 10
9.894039
 20
29.058823
 30
0.0
 11
11.481539
 21
29.058823
 31
0.0
  0
LINE
  5
496
100
AcDbEntity
  8
Cut
 62
7
100
AcDbLine
 10
11.481539
 20
29.058823
 30
0.0
 11
11.481539
 21
28.217448
 31
0.0
  0
LINE
  5
497
100
AcDbEntity
  8
Cut
 62
7
100
AcDbLine
 10
11.481539
 20
28.217448
 30
0.0
 11
13.180385
 21
28.217448
 31
0.0
  0
LINE
  5
498
100
AcDbEntity
  8
Cut
 62
7
100
AcDbLine
 10
13.180385
 20
28.217448
 30
0.0
 11
13.180385
 21
29.058823
 31
0.0
  0
LINE
  5
499
100
AcDbEntity
  8
Cut
 62
7
100
AcDbLine
 10
13.180385
 20
29.058823
 30
0.0
 11
14.767885
 21
29.058823
 31
0.0
  0
LINE
  5
49a
100
AcDbEntity
  8
Cut
 62
7
100
AcDbLine
 10
14.767885
 20
29.058823
 30
0.0
 11
14.767885
 21
28.217448
 31
0.0
  0
LINE
  5
49b
100
AcDbEntity
  8
Cut
 62
7
100
AcDbLine
 10
14.767885
 20
28.217448
 30
0.0
 11
16.466730
 21
28.217448
 31
0.0
  0
LINE
  5
49c
100
AcDbEntity
  8
Cut
 62
7
100
AcDbLine
 10
16.466730
 20
28.217448
 30
0.0
 11
16.466730
 21
29.058823
 31
0.0
  0
LINE
  5
49d
100
AcDbEntity
  8
Cut
 62
7
100
AcDbLine
 10
16.466730
 20
29.058823
 30
0.0
 11
18.054230
 21
29.058823
 31
0.0
  0
LINE
  5
49e
100
AcDbEntity
  8
Cut
 62
7
100
AcDbLine
 10
18.054230
 20
29.058823
 30
0.0
 11
18.054230
 21
28.217448
 31
0.0
  0
LINE
  5
49f
100
AcDbEntity
  8
Cut
 62
7
100
AcDbLine
 10
18.054230
 20
28.217448
 30
0.0
 11
19.753075
 21
28.217448
 31
0.0
  0
LINE
  5
4a0
100
AcDbEntity
  8
Cut
 62
7
100
AcDbLine
 10
19.753075
 20
28.217448
 30
0.0
 11
19.753075
 21
29.058823
 31
0.0
  0
LINE
  5
4a1
100
AcDbEntity
  8
Cut
 62
7
100
AcDbLine
 10
19.753075
 20
29.058823
 30
0.0
 11
21.340575
 21
29.058823
 31
0.0
  0
LINE
  5
4a2
100
AcDbEntity
  8
Cut
 62
7
100
AcDbLine
 10
21.340575
 20
29.058823
 30
0.0
 11
21.340575
 21
28.217448
 31
0.0
  0
LINE
  5
4a3
100
AcDbEntity
  8
Cut
 62
7
100
AcDbLine
 10
21.340575
 20
28.217448
 30
0.0
 11
23.039420
 21
28.217448
 31
0.0
  0
LINE
  5
4a4
100
AcDbEntity
  8
Cut
 62
7
100
AcDbLine
 10
23.039420
 20
28.217448
 30
0.0
 11
23.039420
 21
29.058823
 31
0.0
  0
LINE
  5
4a5
100
AcDbEntity
  8
Cut
 62
7
100
AcDbLine
 10
23.039420
 20
29.058823
 30
0.0
 11
24.626920
 21
29.058823
 31
0.0
  0
LINE
  5
4a6
100
AcDbEntity
  8
Cut
 62
7
100
AcDbLine
 10
24.626920
 20
29.058823
 30
0.0
 11
24.626920
 21
28.217448
 31
0.0
  0
LINE
  5
4a7
100
AcDbEntity
  8
Cut
 62
7
100
AcDbLine
 10
24.626920
 20
28.217448
 30
0.0
 11
25.986659
 21
28.217448
 31
0.0
  0
LINE
  5
4a8
100
AcDbEntity
  8
Cut
 62
7
100
AcDbLine
 10
54.543141
 20
28.217448
 30
0.0
 11
55.902877
 21
28.217448
 31
0.0
  0
LINE
  5
4a9
100
AcDbEntity
  8
Cut
 62
7
100
AcDbLine
 10
55.902877
 20
28.217448
 30
0.0
 11
55.902877
 21
29.058823
 31
0.0
  0
LINE
  5
4aa
100
AcDbEntity
  8
Cut
 62
7
100
AcDbLine
 10
55.902877
 20
29.058823
 30
0.0
 11
57.490377
 21
29.058823
 31
0.0
  0
LINE
  5
4ab
100
AcDbEntity
  8
Cut
 62
7
100
AcDbLine
 10
57.490377
 20
29.058823
 30
0.0
 11
57.490377
 21
28.217448
 31
0.0
  0
LINE
  5
4ac
100
AcDbEntity
  8
Cut
 62
7
100
AcDbLine
 10
57.490377
 20
28.217448
 30
0.0
 11
59.189221
 21
28.217448
 31
0.0
  0
LINE
  5
4ad
100
AcDbEntity
  8
Cut
 62
7
100
AcDbLine
 10
59.189221
 20
28.217448
 30
0.0
 11
59.189221
 21
29.058823
 31
0.0
  0
LINE
  5
4ae
100
AcDbEntity
  8
Cut
 62
7
100
AcDbLine
 10
59.189221
 20
29.058823
 30
0.0
 11
60.776721
 21
29.058823
 31
0.0
  0
LINE
  5
4af
100
AcDbEntity
  8
Cut
 62
7
100
AcDbLine
 10
60.776721
 20
29.058823
 30
0.0
 11
60.776721
 21
28.217448
 31
0.0
  0
LINE
  5
4b0
100
AcDbEntity
  8
Cut
 62
7
100
AcDbLine
 10
60.776721
 20
28.217448
 30
0.0
 11
62.475569
 21
28.217448
 31
0.0
  0
LINE
  5
4b1
100
AcDbEntity
  8
Cut
 62
7
100
AcDbLine
 10
62.475569
 20
28.217448
 30
0.0
 11
62.475569
 21
29.058823
 31
0.0
  0
LINE
  5
4b2
100
AcDbEntity
  8
Cut
 62
7
100
AcDbLine
 10
62.475569
 20
29.058823
 30
0.0
 11
64.063069
 21
29.058823
 31
0.0
  0
LINE
  5
4b3
100
AcDbEntity
  8
Cut
 62
7
100
AcDbLine
 10
64.063069
 20
29.058823
 30
0.0
 11
64.063069
 21
28.217448
 31
0.0
  0
LINE
  5
4b4
100
AcDbEntity
  8
Cut
 62
7
100
AcDbLine
 10
64.063069
 20
28.217448
 30
0.0
 11
65.761913
 21
28.217448
 31
0.0
  0
LINE
  5
4b5
100
AcDbEntity
  8
Cut
 62
7
100
AcDbLine
 10
65.761913
 20
28.217448
 30
0.0
 11
65.761913
 21
29.058823
 31
0.0
  0
LINE
  5
4b6
100
AcDbEntity
  8
Cut
 62
7
100
AcDbLine
 10
65.761913
 20
29.058823
 30
0.0
 11
67.349413
 21
29.058823
 31
0.0
  0
LINE
  5
4b7
100
AcDbEntity
  8
Cut
 62
7
100
AcDbLine
 10
67.349413
 20
29.058823
 30
0.0
 11
67.349413
 21
28.217448
 31
0.0
  0
LINE
  5
4b8
100
AcDbEntity
  8
Cut
 62
7
100
AcDbLine
 10
67.349413
 20
28.217448
 30
0.0
 11
69.048258
 21
28.217448
 31
0.0
  0
LINE
  5
4b9
100
AcDbEntity
  8
Cut
 62
7
100
AcDbLine
 10
69.048258
 20
28.217448
 30
0.0
 11
69.048258
 21
29.058823
 31
0.0
  0
LINE
  5
4ba
100
AcDbEntity
  8
Cut
 62
7
100
AcDbLine
 10
69.048258
 20
29.058823
 30
0.0
 11
70.635758
 21
29.058823
 31
0.0
  0
LINE
  5
4bb
100
AcDbEntity
  8
Cut
 62
7
100
AcDbLine
 10
70.635758
 20
29.058823
 30
0.0
 11
70.635758
 21
28.217448
 31
0.0
  0
LINE
  5
4bc
100
AcDbEntity
  8
Cut
 62
7
100
AcDbLine
 10
70.635758
 20
28.217448
 30
0.0
 11
72.334605
 21
28.217448
 31
0.0
  0
LINE
  5
4bd
100
AcDbEntity
  8
Cut
 62
7
100
AcDbLine
 10
72.334605
 20
28.217448
 30
0.0
 11
72.334605
 21
29.058823
 31
0.0
  0
LINE
  5
4be
100
AcDbEntity
  8
Cut
 62
7
100
AcDbLine
 10
72.334605
 20
29.058823
 30
0.0
 11
73.922105
 21
29.058823
 31
0.0
  0
LINE
  5
4bf
100
AcDbEntity
  8
Cut
 62
7
100
AcDbLine
 10
73.922105
 20
29.058823
 30
0.0
 11
73.922105
 21
28.217448
 31
0.0
  0
LINE
  5
4c0
100
AcDbEntity
  8
Cut
 62
7
100
AcDbLine
 10
73.922105
 20
28.217448
 30
0.0
 11
75.620950
 21
28.217448
 31
0.0
  0
LINE
  5
4c1
100
AcDbEntity
  8
Cut
 62
7
100
AcDbLine
 10
75.620950
 20
28.217448
 30
0.0
 11
75.620950
 21
29.058823
 31
0.0
  0
LINE
  5
4c2
100
AcDbEntity
  8
Cut
 62
7
100
AcDbLine
 10
75.620950
 20
29.058823
 30
0.0
 11
77.208450
 21
29.058823
 31
0.0
  0
LINE
  5
4c3
100
AcDbEntity
  8
Cut
 62
7
100
AcDbLine
 10
77.208450
 20
29.058823
 30
0.0
 11
77.208450
 21
28.217448
 31
0.0
  0
LINE
  5
4c4
100
AcDbEntity
  8
Cut
 62
7
100
AcDbLine
 10
77.208450
 20
28.217448
 30
0.0
 11
78.907297
 21
28.217448
 31
0.0
  0
LINE
  5
4c5
100
AcDbEntity
  8
Cut
 62
7
100
AcDbLine
 10
78.907297
 20
28.217448
 30
0.0
 11
78.907297
 21
27.036968
 31
0.0
  0
LINE
  5
4c6
100
AcDbEntity
  8
Cut
 62
7
100
AcDbLine
 10
78.907297
 20
27.036968
 30
0.0
 11
78.065922
 21
27.036968
 31
0.0
  0
LINE
  5
4c7
100
AcDbEntity
  8
Cut
 62
7
100
AcDbLine
 10
78.065922
 20
27.036968
 30
0.0
 11
78.065922
 21
25.449468
 31
0.0
  0
LINE
  5
4c8
100
AcDbEntity
  8
Cut
 62
7
100
AcDbLine
 10
78.065922
 20
25.449468
 30
0.0
 11
78.907297
 21
25.449468
 31
0.0
  0
LINE
  5
4c9
100
AcDbEntity
  8
Cut
 62
7
100
AcDbLine
 10
78.907297
 20
25.449468
 30
0.0
 11
78.907297
 21
23.427609
 31
0.0
  0
LINE
  5
4ca
100
AcDbEntity
  8
Cut
 62
7
100
AcDbLine
 10
78.907297
 20
23.427609
 30
0.0
 11
78.065922
 21
23.427609
 31
0.0
  0
LINE
  5
4cb
100
AcDbEntity
  8
Cut
 62
7
100
AcDbLine
 10
78.065922
 20
23.427609
 30
0.0
 11
78.065922
 21
21.840109
 31
0.0
  0
LINE
  5
4cc
100
AcDbEntity
  8
Cut
 62
7
100
AcDbLine
 10
78.065922
 20
21.840109
 30
0.0
 11
78.907297
 21
21.840109
 31
0.0
  0
LINE
  5
4cd
100
AcDbEntity
  8
Cut
 62
7
100
AcDbLine
 10
78.907297
 20
21.840109
 30
0.0
 11
78.907297
 21
19.819573
 31
0.0
  0
LINE
  5
4ce
100
AcDbEntity
  8
Cut
 62
7
100
AcDbLine
 10
78.907297
 20
19.819573
 30
0.0
 11
77.208450
 21
19.819573
 31
0.0
  0
LINE
  5
4cf
100
AcDbEntity
  8
Cut
 62
7
100
AcDbLine
 10
77.208450
 20
19.819573
 30
0.0
 11
77.208450
 21
19.819573
 31
0.0
  0
LINE
  5
4d0
100
AcDbEntity
  8
Cut
 62
7
100
AcDbLine
 10
77.208450
 20
19.819573
 30
0.0
 11
75.620950
 21
19.819573
 31
0.0
  0
LINE
  5
4d1
100
AcDbEntity
  8
Cut
 62
7
100
AcDbLine
 10
75.620950
 20
19.819573
 30
0.0
 11
75.620950
 21
19.819573
 31
0.0
  0
LINE
  5
4d2
100
AcDbEntity
  8
Cut
 62
7
100
AcDbLine
 10
75.620950
 20
19.819573
 30
0.0
 11
73.922105
 21
19.819573
 31
0.0
  0
LINE
  5
4d3
100
AcDbEntity
  8
Cut
 62
7
100
AcDbLine
 10
73.922105
 20
19.819573
 30
0.0
 11
73.922105
 21
19.819573
 31
0.0
  0
LINE
  5
4d4
100
AcDbEntity
  8
Cut
 62
7
100
AcDbLine
 10
73.922105
 20
19.819573
 30
0.0
 11
72.334605
 21
19.819573
 31
0.0
  0
LINE
  5
4d5
100
AcDbEntity
  8
Cut
 62
7
100
AcDbLine
 10
72.334605
 20
19.819573
 30
0.0
 11
72.334605
 21
19.819573
 31
0.0
  0
LINE
  5
4d6
100
AcDbEntity
  8
Cut
 62
7
100
AcDbLine
 10
72.334605
 20
19.819573
 30
0.0
 11
70.635758
 21
19.819573
 31
0.0
  0
LINE
  5
4d7
100
AcDbEntity
  8
Cut
 62
7
100
AcDbLine
 10
70.635758
 20
19.819573
 30
0.0
 11
70.635758
 21
19.819573
 31
0.0
  0
LINE
  5
4d8
100
AcDbEntity
  8
Cut
 62
7
100
AcDbLine
 10
70.635758
 20
19.819573
 30
0.0
 11
69.048258
 21
19.819573
 31
0.0
  0
LINE
  5
4d9
100
AcDbEntity
  8
Cut
 62
7
100
AcDbLine
 10
69.048258
 20
19.819573
 30
0.0
 11
69.048258
 21
19.819573
 31
0.0
  0
LINE
  5
4da
100
AcDbEntity
  8
Cut
 62
7
100
AcDbLine
 10
69.048258
 20
19.819573
 30
0.0
 11
67.349413
 21
19.819573
 31
0.0
  0
LINE
  5
4db
100
AcDbEntity
  8
Cut
 62
7
100
AcDbLine
 10
67.349413
 20
19.819573
 30
0.0
 11
67.349413
 21
19.819573
 31
0.0
  0
LINE
  5
4dc
100
AcDbEntity
  8
Cut
 62
7
100
AcDbLine
 10
67.349413
 20
19.819573
 30
0.0
 11
65.761913
 21
19.819573
 31
0.0
  0
LINE
  5
4dd
100
AcDbEntity
  8
Cut
 62
7
100
AcDbLine
 10
65.761913
 20
19.819573
 30
0.0
 11
65.761913
 21
19.819573
 31
0.0
  0
LINE
  5
4de
100
AcDbEntity
  8
Cut
 62
7
100
AcDbLine
 10
65.761913
 20
19.819573
 30
0.0
 11
64.063069
 21
19.819573
 31
0.0
  0
LINE
  5
4df
100
AcDbEntity
  8
Cut
 62
7
100
AcDbLine
 10
64.063069
 20
19.819573
 30
0.0
 11
64.063069
 21
19.819573
 31
0.0
  0
LINE
  5
4e0
100
AcDbEntity
  8
Cut
 62
7
100
AcDbLine
 10
64.063069
 20
19.819573
 30
0.0
 11
62.475569
 21
19.819573
 31
0.0
  0
LINE
  5
4e1
100
AcDbEntity
  8
Cut
 62
7
100
AcDbLine
 10
62.475569
 20
19.819573
 30
0.0
 11
62.475569
 21
19.819573
 31
0.0
  0
LINE
  5
4e2
100
AcDbEntity
  8
Cut
 62
7
100
AcDbLine
 10
62.475569
 20
19.819573
 30
0.0
 11
60.776721
 21
19.819573
 31
0.0
  0
LINE
  5
4e3
100
AcDbEntity
  8
Cut
 62
7
100
AcDbLine
 10
60.776721
 20
19.819573
 30
0.0
 11
60.776721
 21
19.819573
 31
0.0
  0
LINE
  5
4e4
100
AcDbEntity
  8
Cut
 62
7
100
AcDbLine
 10
60.776721
 20
19.819573
 30
0.0
 11
59.189221
 21
19.819573
 31
0.0
  0
LINE
  5
4e5
100
AcDbEntity
  8
Cut
 62
7
100
AcDbLine
 10
59.189221
 20
19.819573
 30
0.0
 11
59.189221
 21
19.819573
 31
0.0
  0
LINE
  5
4e6
100
AcDbEntity
  8
Cut
 62
7
100
AcDbLine
 10
59.189221
 20
19.819573
 30
0.0
 11
57.490377
 21
19.819573
 31
0.0
  0
LINE
  5
4e7
100
AcDbEntity
  8
Cut
 62
7
100
AcDbLine
 10
57.490377
 20
19.819573
 30
0.0
 11
57.490377
 21
19.819573
 31
0.0
  0
LINE
  5
4e8
100
AcDbEntity
  8
Cut
 62
7
100
AcDbLine
 10
57.490377
 20
19.819573
 30
0.0
 11
55.902877
 21
19.819573
 31
0.0
  0
LINE
  5
4e9
100
AcDbEntity
  8
Cut
 62
7
100
AcDbLine
 10
55.902877
 20
19.819573
 30
0.0
 11
55.902877
 21
19.819573
 31
0.0
  0
LINE
  5
4ea
100
AcDbEntity
  8
Cut
 62
7
100
AcDbLine
 10
55.902877
 20
19.819573
 30
0.0
 11
54.543141
 21
19.819573
 31
0.0
  0
LINE
  5
4eb
100
AcDbEntity
  8
Cut
 62
7
100
AcDbLine
 10
25.986659
 20
19.819573
 30
0.0
 11
24.626920
 21
19.819573
 31
0.0
  0
LINE
  5
4ec
100
AcDbEntity
  8
Cut
 62
7
100
AcDbLine
 10
24.626920
 20
19.819573
 30
0.0
 11
24.626920
 21
19.819573
 31
0.0
  0
LINE
  5
4ed
100
AcDbEntity
  8
Cut
 62
7
100
AcDbLine
 10
24.626920
 20
19.819573
 30
0.0
 11
23.039420
 21
19.819573
 31
0.0
  0
LINE
  5
4ee
100
AcDbEntity
  8
Cut
 62
7
100
AcDbLine
 10
23.039420
 20
19.819573
 30
0.0
 11
23.039420
 21
19.819573
 31
0.0
  0
LINE
  5
4ef
100
AcDbEntity
  8
Cut
 62
7
100
AcDbLine
 10
23.039420
 20
19.819573
 30
0.0
 11
21.340575
 21
19.819573
 31
0.0
  0
LINE
  5
4f0
100
AcDbEntity
  8
Cut
 62
7
100
AcDbLine
 10
21.340575
 20
19.819573
 30
0.0
 11
21.340575
 21
19.819573
 31
0.0
  0
LINE
  5
4f1
100
AcDbEntity
  8
Cut
 62
7
100
AcDbLine
 10
21.340575
 20
19.819573
 30
0.0
 11
19.753075
 21
19.819573
 31
0.0
  0
LINE
  5
4f2
100
AcDbEntity
  8
Cut
 62
7
100
AcDbLine
 10
19.753075
 20
19.819573
 30
0.0
 11
19.753075
 21
19.819573
 31
0.0
  0
LINE
  5
4f3
100
AcDbEntity
  8
Cut
 62
7
100
AcDbLine
 10
19.753075
 20
19.819573
 30
0.0
 11
18.054230
 21
19.819573
 31
0.0
  0
LINE
  5
4f4
100
AcDbEntity
  8
Cut
 62
7
100
AcDbLine
 10
18.054230
 20
19.819573
 30
0.0
 11
18.054230
 21
19.819573
 31
0.0
  0
LINE
  5
4f5
100
AcDbEntity
  8
Cut
 62
7
100
AcDbLine
 10
18.054230
 20
19.819573
 30
0.0
 11
16.466730
 21
19.819573
 31
0.0
  0
LINE
  5
4f6
100
AcDbEntity
  8
Cut
 62
7
100
AcDbLine
 10
16.466730
 20
19.819573
 30
0.0
 11
16.466730
 21
19.819573
 31
0.0
  0
LINE
  5
4f7
100
AcDbEntity
  8
Cut
 62
7
100
AcDbLine
 10
16.466730
 20
19.819573
 30
0.0
 11
14.767885
 21
19.819573
 31
0.0
  0
LINE
  5
4f8
100
AcDbEntity
  8
Cut
 62
7
100
AcDbLine
 10
14.767885
 20
19.819573
 30
0.0
 11
14.767885
 21
19.819573
 31
0.0
  0
LINE
  5
4f9
100
AcDbEntity
  8
Cut
 62
7
100
AcDbLine
 10
14.767885
 20
19.819573
 30
0.0
 11
13.180385
 21
19.819573
 31
0.0
  0
LINE
  5
4fa
100
AcDbEntity
  8
Cut
 62
7
100
AcDbLine
 10
13.180385
 20
19.819573
 30
0.0
 11
13.180385
 21
19.819573
 31
0.0
  0
LINE
  5
4fb
100
AcDbEntity
  8
Cut
 62
7
100
AcDbLine
 10
13.180385
 20
19.819573
 30
0.0
 11
11.481539
 21
19.819573
 31
0.0
  0
LINE
  5
4fc
100
AcDbEntity
  8
Cut
 62
7
100
AcDbLine
 10
11.481539
 20
19.819573
 30
0.0
 11
11.481539
 21
19.819573
 31
0.0
  0
LINE
  5
4fd
100
AcDbEntity
  8
Cut
 62
7
100
AcDbLine
 10
11.481539
 20
19.819573
 30
0.0
 11
9.894039
 21
19.819573
 31
0.0
  0
LINE
  5
4fe
100
AcDbEntity
  8
Cut
 62
7
100
AcDbLine
 10
9.894039
 20
19.819573
 30
0.0
 11
9.894039
 21
19.819573
 31
0.0
  0
LINE
  5
4ff
100
AcDbEntity
  8
Cut
 62
7
100
AcDbLine
 10
9.894039
 20
19.819573
 30
0.0
 11
8.195193
 21
19.819573
 31
0.0
  0
LINE
  5
500
100
AcDbEntity
  8
Cut
 62
7
100
AcDbLine
 10
8.195193
 20
19.819573
 30
0.0
 11
8.195193
 21
19.819573
 31
0.0
  0
LINE
  5
501
100
AcDbEntity
  8
Cut
 62
7
100
AcDbLine
 10
8.195193
 20
19.819573
 30
0.0
 11
6.607693
 21
19.819573
 31
0.0
  0
LINE
  5
502
100
AcDbEntity
  8
Cut
 62
7
100
AcDbLine
 10
6.607693
 20
19.819573
 30
0.0
 11
6.607693
 21
19.819573
 31
0.0
  0
LINE
  5
503
100
AcDbEntity
  8
Cut
 62
7
100
AcDbLine
 10
6.607693
 20
19.819573
 30
0.0
 11
4.908848
 21
19.819573
 31
0.0
  0
LINE
  5
504
100
AcDbEntity
  8
Cut
 62
7
100
AcDbLine
 10
4.908848
 20
19.819573
 30
0.0
 11
4.908848
 21
19.819573
 31
0.0
  0
LINE
  5
505
100
AcDbEntity
  8
Cut
 62
7
100
AcDbLine
 10
4.908848
 20
19.819573
 30
0.0
 11
3.321348
 21
19.819573
 31
0.0
  0
LINE
  5
506
100
AcDbEntity
  8
Cut
 62
7
100
AcDbLine
 10
3.321348
 20
19.819573
 30
0.0
 11
3.321348
 21
19.819573
 31
0.0
  0
LINE
  5
507
100
AcDbEntity
  8
Cut
 62
7
100
AcDbLine
 10
3.321348
 20
19.819573
 30
0.0
 11
1.622502
 21
19.819573
 31
0.0
  0
LINE
  5
508
100
AcDbEntity
  8
Cut
 62
7
100
AcDbLine
 10
1.622502
 20
20.659625
 30
0.0
 11
1.622502
 21
21.840109
 31
0.0
  0
LINE
  5
509
100
AcDbEntity
  8
Cut
 62
7
100
AcDbLine
 10
1.622502
 20
21.840109
 30
0.0
 11
2.463877
 21
21.840109
 31
0.0
  0
LINE
  5
50a
100
AcDbEntity
  8
Cut
 62
7
100
AcDbLine
 10
2.463877
 20
21.840109
 30
0.0
 11
2.463877
 21
23.427609
 31
0.0
  0
LINE
  5
50b
100
AcDbEntity
  8
Cut
 62
7
100
AcDbLine
 10
2.463877
 20
23.427609
 30
0.0
 11
1.622502
 21
23.427609
 31
0.0
  0
LINE
  5
50c
100
AcDbEntity
  8
Cut
 62
7
100
AcDbLine
 10
1.622502
 20
23.427609
 30
0.0
 11
1.622502
 21
25.449468
 31
0.0
  0
LINE
  5
50d
100
AcDbEntity
  8
Cut
 62
7
100
AcDbLine
 10
1.622502
 20
25.449468
 30
0.0
 11
2.463877
 21
25.449468
 31
0.0
  0
LINE
  5
50e
100
AcDbEntity
  8
Cut
 62
7
100
AcDbLine
 10
2.463877
 20
25.449468
 30
0.0
 11
2.463877
 21
27.036968
 31
0.0
  0
LINE
  5
50f
100
AcDbEntity
  8
Cut
 62
7
100
AcDbLine
 10
2.463877
 20
27.036968
 30
0.0
 11
1.622502
 21
27.036968
 31
0.0
  0
LINE
  5
510
100
AcDbEntity
  8
Cut
 62
7
100
AcDbLine
 10
1.622502
 20
27.036968
 30
0.0
 11
1.622502
 21
28.217448
 31
0.0
  0
LINE
  5
511
100
AcDbEntity
  8
Cut
 62
7
100
AcDbLine
 10
55.384516
 20
25.449468
 30
0.0
 11
55.384516
 21
27.036968
 31
0.0
  0
LINE
  5
512
100
AcDbEntity
  8
Cut
 62
7
100
AcDbLine
 10
55.384516
 20
27.036968
 30
0.0
 11
54.543141
 21
27.036968
 31
0.0
  0
LINE
  5
513
100
AcDbEntity
  8
Cut
 62
7
100
AcDbLine
 10
55.384516
 20
21.840109
 30
0.0
 11
55.384516
 21
23.427609
 31
0.0
  0
LINE
  5
514
100
AcDbEntity
  8
Cut
 62
7
100
AcDbLine
 10
55.384516
 20
23.427609
 30
0.0
 11
54.543141
 21
23.427609
 31
0.0
  0
LINE
  5
515
100
AcDbEntity
  8
Cut
 62
7
100
AcDbLine
 10
25.145284
 20
27.036968
 30
0.0
 11
25.145284
 21
25.449468
 31
0.0
  0
LINE
  5
516
100
AcDbEntity
  8
Cut
 62
7
100
AcDbLine
 10
25.145284
 20
25.449468
 30
0.0
 11
25.986659
 21
25.449468
 31
0.0
  0
LINE
  5
517
100
AcDbEntity
  8
Cut
 62
7
100
AcDbLine
 10
25.145284
 20
23.427609
 30
0.0
 11
25.145284
 21
21.840109
 31
0.0
  0
LINE
  5
518
100
AcDbEntity
  8
Cut
 62
7
100
AcDbLine
 10
25.145284
 20
21.840109
 30
0.0
 11
25.986659
 21
21.840109
 31
0.0
  0
LINE
  5
519
100
AcDbEntity
  8
Cut
 62
7
100
AcDbLine
 10
25.986659
 20
23.427609
 30
0.0
 11
25.145284
 21
23.427609
 31
0.0
  0
SPLINE
  5
51a
100
AcDbEntity
  8
Cut
 62
7
100
AcDbSpline
 70
8
 71
3
 72
8
 73
4
 74
0
 40
0
 40
0
 40
0
 40
0
 40
1
 40
1
 40
1
 40
1
 10
25.986659
 20
28.217448
 30
0.0
 10
25.986659
 20
27.824026
 30
0.0
 10
25.986659
 20
27.430533
 30
0.0
 10
25.986659
 20
27.036968
 30
0.0
  0
SPLINE
  5
51b
100
AcDbEntity
  8
Cut
 62
7
100
AcDbSpline
 70
8
 71
3
 72
8
 73
4
 74
0
 40
0
 40
0
 40
0
 40
0
 40
1
 40
1
 40
1
 40
1
 10
25.986659
 20
25.449468
 30
0.0
 10
25.986659
 20
24.775584
 30
0.0
 10
25.986659
 20
24.101632
 30
0.0
 10
25.986659
 20
23.427609
 30
0.0
  0
SPLINE
  5
51c
100
AcDbEntity
  8
Cut
 62
7
100
AcDbSpline
 70
8
 71
3
 72
8
 73
4
 74
0
 40
0
 40
0
 40
0
 40
0
 40
1
 40
1
 40
1
 40
1
 10
1.622502
 20
21.840109
 30
0.0
 10
1.622502
 20
21.166668
 30
0.0
 10
1.622502
 20
20.493155
 30
0.0
 10
1.622502
 20
19.819573
 30
0.0
  0
SPLINE
  5
51d
100
AcDbEntity
  8
Cut
 62
7
100
AcDbSpline
 70
8
 71
3
 72
8
 73
4
 74
0
 40
0
 40
0
 40
0
 40
0
 40
1
 40
1
 40
1
 40
1
 10
25.145284
 20
27.036968
 30
0.0
 10
25.425811
 20
27.036968
 30
0.0
 10
25.706269
 20
27.036968
 30
0.0
 10
25.986659
 20
27.036968
 30
0.0
  0
SPLINE
  5
51e
100
AcDbEntity
  8
Cut
 62
7
100
AcDbSpline
 70
8
 71
3
 72
8
 73
4
 74
0
 40
0
 40
0
 40
0
 40
0
 40
1
 40
1
 40
1
 40
1
 10
54.543141
 20
27.036968
 30
0.0
 10
54.543141
 20
27.430533
 30
0.0
 10
54.543141
 20
27.824026
 30
0.0
 10
54.543141
 20
28.217448
 30
0.0
  0
SPLINE
  5
51f
100
AcDbEntity
  8
Cut
 62
7
100
AcDbSpline
 70
8
 71
3
 72
8
 73
4
 74
0
 40
0
 40
0
 40
0
 40
0
 40
1
 40
1
 40
1
 40
1
 10
54.543141
 20
19.819573
 30
0.0
 10
54.538537
 20
20.493155
 30
0.0
 10
54.533933
 20
21.166668
 30
0.0
 10
54.529329
 20
21.840109
 30
0.0
  0
SPLINE
  5
520
100
AcDbEntity
  8
Cut
 62
7
100
AcDbSpline
 70
8
 71
3
 72
8
 73
4
 74
0
 40
0
 40
0
 40
0
 40
0
 40
1
 40
1
 40
1
 40
1
 10
55.384516
 20
21.840109
 30
0.0
 10
55.099522
 20
21.840109
 30
0.0
 10
54.814463
 20
21.840109
 30
0.0
 10
54.529329
 20
21.840109
 30
0.0
  0
SPLINE
  5
521
100
AcDbEntity
  8
Cut
 62
7
100
AcDbSpline
 70
8
 71
3
 72
8
 73
4
 74
0
 40
0
 40
0
 40
0
 40
0
 40
1
 40
1
 40
1
 40
1
 10
54.543141
 20
23.427609
 30
0.0
 10
54.538537
 20
24.101632
 30
0.0
 10
54.533933
 20
24.775584
 30
0.0
 10
54.529329
 20
25.449468
 30
0.0
  0
SPLINE
  5
522
100
AcDbEntity
  8
Cut
 62
7
100
AcDbSpline
 70
8
 71
3
 72
8
 73
4
 74
0
 40
0
 40
0
 40
0
 40
0
 40
1
 40
1
 40
1
 40
1
 10
55.384516
 20
25.449468
 30
0.0
 10
55.099522
 20
25.449468
 30
0.0
 10
54.814463
 20
25.449468
 30
0.0
 10
54.529329
 20
25.449468
 30
0.0
  0
SPLINE
  5
523
100
AcDbEntity
  8
Cut
 62
7
100
AcDbSpline
 70
8
 71
3
 72
8
 73
4
 74
0
 40
0
 40
0
 40
0
 40
0
 40
1
 40
1
 40
1
 40
1
 10
25.986659
 20
21.840109
 30
0.0
 10
25.986659
 20
21.166668
 30
0.0
 10
25.986659
 20
20.493155
 30
0.0
 10
25.986659
 20
19.819573
 30
0.0
  0
LINE
  5
524
100
AcDbEntity
  8
Cut
 62
7
100
AcDbLine
 10
2.655198
 20
11.141686
 30
0.0
 11
2.655198
 21
12.322167
 31
0.0
  0
LINE
  5
525
100
AcDbEntity
  8
Cut
 62
7
100
AcDbLine
 10
2.655198
 20
12.322167
 30
0.0
 11
1.813823
 21
12.322167
 31
0.0
  0
LINE
  5
526
100
AcDbEntity
  8
Cut
 62
7
100
AcDbLine
 10
1.813823
 20
11.141686
 30
0.0
 11
2.655198
 21
11.141686
 31
0.0
  0
LINE
  5
527
100
AcDbEntity
  8
Cut
 62
7
100
AcDbLine
 10
2.655198
 20
13.909667
 30
0.0
 11
2.655198
 21
15.931525
 31
0.0
  0
LINE
  5
528
100
AcDbEntity
  8
Cut
 62
7
100
AcDbLine
 10
2.655198
 20
15.931525
 30
0.0
 11
1.813823
 21
15.931525
 31
0.0
  0
LINE
  5
529
100
AcDbEntity
  8
Cut
 62
7
100
AcDbLine
 10
1.813823
 20
13.909667
 30
0.0
 11
2.655198
 21
13.909667
 31
0.0
  0
LINE
  5
52a
100
AcDbEntity
  8
Cut
 62
7
100
AcDbLine
 10
2.655198
 20
17.519025
 30
0.0
 11
2.655198
 21
19.524556
 31
0.0
  0
LINE
  5
52b
100
AcDbEntity
  8
Cut
 62
7
100
AcDbLine
 10
1.813823
 20
17.519025
 30
0.0
 11
2.655198
 21
17.519025
 31
0.0
  0
LINE
  5
52c
100
AcDbEntity
  8
Cut
 62
7
100
AcDbLine
 10
2.655198
 20
19.524553
 30
0.0
 11
3.450271
 21
19.539555
 31
0.0
  0
LINE
  5
52d
100
AcDbEntity
  8
Cut
 62
7
100
AcDbLine
 10
3.450271
 20
19.539555
 30
0.0
 11
3.450271
 21
19.539555
 31
0.0
  0
LINE
  5
52e
100
AcDbEntity
  8
Cut
 62
7
100
AcDbLine
 10
3.450271
 20
19.539555
 30
0.0
 11
5.075252
 21
19.539555
 31
0.0
  0
LINE
  5
52f
100
AcDbEntity
  8
Cut
 62
7
100
AcDbLine
 10
5.075252
 20
19.539555
 30
0.0
 11
5.075252
 21
19.539555
 31
0.0
  0
LINE
  5
530
100
AcDbEntity
  8
Cut
 62
7
100
AcDbLine
 10
5.075252
 20
19.539555
 30
0.0
 11
6.662752
 21
19.539555
 31
0.0
  0
LINE
  5
531
100
AcDbEntity
  8
Cut
 62
7
100
AcDbLine
 10
6.662752
 20
19.539555
 30
0.0
 11
6.662752
 21
19.539555
 31
0.0
  0
LINE
  5
532
100
AcDbEntity
  8
Cut
 62
7
100
AcDbLine
 10
6.662752
 20
19.539555
 30
0.0
 11
8.287735
 21
19.539555
 31
0.0
  0
LINE
  5
533
100
AcDbEntity
  8
Cut
 62
7
100
AcDbLine
 10
8.287735
 20
19.539555
 30
0.0
 11
8.287735
 21
19.539555
 31
0.0
  0
LINE
  5
534
100
AcDbEntity
  8
Cut
 62
7
100
AcDbLine
 10
8.287735
 20
19.539555
 30
0.0
 11
9.875235
 21
19.539555
 31
0.0
  0
LINE
  5
535
100
AcDbEntity
  8
Cut
 62
7
100
AcDbLine
 10
9.875235
 20
19.539555
 30
0.0
 11
9.875235
 21
19.539555
 31
0.0
  0
LINE
  5
536
100
AcDbEntity
  8
Cut
 62
7
100
AcDbLine
 10
9.875235
 20
19.539555
 30
0.0
 11
11.500219
 21
19.539555
 31
0.0
  0
LINE
  5
537
100
AcDbEntity
  8
Cut
 62
7
100
AcDbLine
 10
11.500219
 20
19.539555
 30
0.0
 11
11.500219
 21
19.539555
 31
0.0
  0
LINE
  5
538
100
AcDbEntity
  8
Cut
 62
7
100
AcDbLine
 10
11.500219
 20
19.539555
 30
0.0
 11
13.087719
 21
19.539555
 31
0.0
  0
LINE
  5
539
100
AcDbEntity
  8
Cut
 62
7
100
AcDbLine
 10
13.087719
 20
19.539555
 30
0.0
 11
13.087719
 21
19.539555
 31
0.0
  0
LINE
  5
53a
100
AcDbEntity
  8
Cut
 62
7
100
AcDbLine
 10
13.087719
 20
19.539555
 30
0.0
 11
14.712699
 21
19.539555
 31
0.0
  0
LINE
  5
53b
100
AcDbEntity
  8
Cut
 62
7
100
AcDbLine
 10
14.712699
 20
19.539555
 30
0.0
 11
14.712699
 21
19.539555
 31
0.0
  0
LINE
  5
53c
100
AcDbEntity
  8
Cut
 62
7
100
AcDbLine
 10
14.712699
 20
19.539555
 30
0.0
 11
16.300199
 21
19.539555
 31
0.0
  0
LINE
  5
53d
100
AcDbEntity
  8
Cut
 62
7
100
AcDbLine
 10
16.300199
 20
19.539555
 30
0.0
 11
16.300199
 21
19.539555
 31
0.0
  0
LINE
  5
53e
100
AcDbEntity
  8
Cut
 62
7
100
AcDbLine
 10
16.300199
 20
19.539555
 30
0.0
 11
17.925183
 21
19.539555
 31
0.0
  0
LINE
  5
53f
100
AcDbEntity
  8
Cut
 62
7
100
AcDbLine
 10
17.925183
 20
19.539555
 30
0.0
 11
17.925183
 21
19.539555
 31
0.0
  0
LINE
  5
540
100
AcDbEntity
  8
Cut
 62
7
100
AcDbLine
 10
17.925183
 20
19.539555
 30
0.0
 11
19.512683
 21
19.539555
 31
0.0
  0
LINE
  5
541
100
AcDbEntity
  8
Cut
 62
7
100
AcDbLine
 10
19.512683
 20
19.539555
 30
0.0
 11
19.512683
 21
19.539555
 31
0.0
  0
LINE
  5
542
100
AcDbEntity
  8
Cut
 62
7
100
AcDbLine
 10
19.512683
 20
19.539555
 30
0.0
 11
20.296291
 21
19.539555
 31
0.0
  0
LINE
  5
543
100
AcDbEntity
  8
Cut
 62
7
100
AcDbLine
 10
20.296291
 20
19.539555
 30
0.0
 11
20.296291
 21
17.519025
 31
0.0
  0
LINE
  5
544
100
AcDbEntity
  8
Cut
 62
7
100
AcDbLine
 10
20.296291
 20
17.519025
 30
0.0
 11
21.137666
 21
17.519025
 31
0.0
  0
LINE
  5
545
100
AcDbEntity
  8
Cut
 62
7
100
AcDbLine
 10
21.137666
 20
17.519025
 30
0.0
 11
21.137666
 21
15.931525
 31
0.0
  0
LINE
  5
546
100
AcDbEntity
  8
Cut
 62
7
100
AcDbLine
 10
21.137666
 20
15.931525
 30
0.0
 11
20.296291
 21
15.931525
 31
0.0
  0
LINE
  5
547
100
AcDbEntity
  8
Cut
 62
7
100
AcDbLine
 10
20.296291
 20
15.931525
 30
0.0
 11
20.296291
 21
13.909667
 31
0.0
  0
LINE
  5
548
100
AcDbEntity
  8
Cut
 62
7
100
AcDbLine
 10
20.296291
 20
13.909667
 30
0.0
 11
21.137666
 21
13.909667
 31
0.0
  0
LINE
  5
549
100
AcDbEntity
  8
Cut
 62
7
100
AcDbLine
 10
21.137666
 20
13.909667
 30
0.0
 11
21.137666
 21
12.322167
 31
0.0
  0
LINE
  5
54a
100
AcDbEntity
  8
Cut
 62
7
100
AcDbLine
 10
21.137666
 20
12.322167
 30
0.0
 11
20.296291
 21
12.322167
 31
0.0
  0
LINE
  5
54b
100
AcDbEntity
  8
Cut
 62
7
100
AcDbLine
 10
20.296291
 20
12.322167
 30
0.0
 11
20.296291
 21
11.141686
 31
0.0
  0
LINE
  5
54c
100
AcDbEntity
  8
Cut
 62
7
100
AcDbLine
 10
20.296291
 20
11.141686
 30
0.0
 11
19.512683
 21
11.141686
 31
0.0
  0
LINE
  5
54d
100
AcDbEntity
  8
Cut
 62
7
100
AcDbLine
 10
19.512683
 20
11.141686
 30
0.0
 11
19.512683
 21
10.300311
 31
0.0
  0
LINE
  5
54e
100
AcDbEntity
  8
Cut
 62
7
100
AcDbLine
 10
19.512683
 20
10.300311
 30
0.0
 11
17.925183
 21
10.300311
 31
0.0
  0
LINE
  5
54f
100
AcDbEntity
  8
Cut
 62
7
100
AcDbLine
 10
17.925183
 20
10.300311
 30
0.0
 11
17.925183
 21
11.141686
 31
0.0
  0
LINE
  5
550
100
AcDbEntity
  8
Cut
 62
7
100
AcDbLine
 10
17.925183
 20
11.141686
 30
0.0
 11
16.300199
 21
11.141686
 31
0.0
  0
LINE
  5
551
100
AcDbEntity
  8
Cut
 62
7
100
AcDbLine
 10
16.300199
 20
11.141686
 30
0.0
 11
16.300199
 21
10.300311
 31
0.0
  0
LINE
  5
552
100
AcDbEntity
  8
Cut
 62
7
100
AcDbLine
 10
16.300199
 20
10.300311
 30
0.0
 11
14.712699
 21
10.300311
 31
0.0
  0
LINE
  5
553
100
AcDbEntity
  8
Cut
 62
7
100
AcDbLine
 10
14.712699
 20
10.300311
 30
0.0
 11
14.712699
 21
11.141686
 31
0.0
  0
LINE
  5
554
100
AcDbEntity
  8
Cut
 62
7
100
AcDbLine
 10
14.712699
 20
11.141686
 30
0.0
 11
13.087719
 21
11.141686
 31
0.0
  0
LINE
  5
555
100
AcDbEntity
  8
Cut
 62
7
100
AcDbLine
 10
13.087719
 20
11.141686
 30
0.0
 11
13.087719
 21
10.300311
 31
0.0
  0
LINE
  5
556
100
AcDbEntity
  8
Cut
 62
7
100
AcDbLine
 10
13.087719
 20
10.300311
 30
0.0
 11
11.500219
 21
10.300311
 31
0.0
  0
LINE
  5
557
100
AcDbEntity
  8
Cut
 62
7
100
AcDbLine
 10
11.500219
 20
10.300311
 30
0.0
 11
11.500219
 21
11.141686
 31
0.0
  0
LINE
  5
558
100
AcDbEntity
  8
Cut
 62
7
100
AcDbLine
 10
11.500219
 20
11.141686
 30
0.0
 11
9.875235
 21
11.141686
 31
0.0
  0
LINE
  5
559
100
AcDbEntity
  8
Cut
 62
7
100
AcDbLine
 10
9.875235
 20
11.141686
 30
0.0
 11
9.875235
 21
10.300311
 31
0.0
  0
LINE
  5
55a
100
AcDbEntity
  8
Cut
 62
7
100
AcDbLine
 10
9.875235
 20
10.300311
 30
0.0
 11
8.287735
 21
10.300311
 31
0.0
  0
LINE
  5
55b
100
AcDbEntity
  8
Cut
 62
7
100
AcDbLine
 10
8.287735
 20
10.300311
 30
0.0
 11
8.287735
 21
11.141686
 31
0.0
  0
LINE
  5
55c
100
AcDbEntity
  8
Cut
 62
7
100
AcDbLine
 10
8.287735
 20
11.141686
 30
0.0
 11
6.662752
 21
11.141686
 31
0.0
  0
LINE
  5
55d
100
AcDbEntity
  8
Cut
 62
7
100
AcDbLine
 10
6.662752
 20
11.141686
 30
0.0
 11
6.662752
 21
10.300311
 31
0.0
  0
LINE
  5
55e
100
AcDbEntity
  8
Cut
 62
7
100
AcDbLine
 10
6.662752
 20
10.300311
 30
0.0
 11
5.075252
 21
10.300311
 31
0.0
  0
LINE
  5
55f
100
AcDbEntity
  8
Cut
 62
7
100
AcDbLine
 10
5.075252
 20
10.300311
 30
0.0
 11
5.075252
 21
11.141686
 31
0.0
  0
LINE
  5
560
100
AcDbEntity
  8
Cut
 62
7
100
AcDbLine
 10
5.075252
 20
11.141686
 30
0.0
 11
3.450271
 21
11.141686
 31
0.0
  0
LINE
  5
561
100
AcDbEntity
  8
Cut
 62
7
100
AcDbLine
 10
3.450271
 20
11.141686
 30
0.0
 11
3.450271
 21
10.300311
 31
0.0
  0
LINE
  5
562
100
AcDbEntity
  8
Cut
 62
7
100
AcDbLine
 10
3.450271
 20
10.300311
 30
0.0
 11
1.862771
 21
10.300311
 31
0.0
  0
LINE
  5
563
100
AcDbEntity
  8
Cut
 62
7
100
AcDbLine
 10
1.862771
 20
10.300311
 30
0.0
 11
1.862771
 21
11.141686
 31
0.0
  0
LINE
  5
564
100
AcDbEntity
  8
Cut
 62
7
100
AcDbLine
 10
1.862771
 20
11.141686
 30
0.0
 11
1.813823
 21
11.141686
 31
0.0
  0
LINE
  5
565
100
AcDbEntity
  8
Cut
 62
7
100
AcDbLine
 10
1.813802
 20
12.317341
 30
0.0
 11
1.813780
 21
13.926108
 31
0.0
  0
LINE
  5
566
100
AcDbEntity
  8
Cut
 62
7
100
AcDbLine
 10
1.813765
 20
15.923810
 30
0.0
 11
1.813759
 21
17.532577
 31
0.0
  0
LINE
  5
567
100
AcDbEntity
  8
Cut
 62
7
100
AcDbLine
 10
2.655198
 20
1.622427
 30
0.0
 11
2.655198
 21
2.802908
 31
0.0
  0
LINE
  5
568
100
AcDbEntity
  8
Cut
 62
7
100
AcDbLine
 10
2.655198
 20
2.802908
 30
0.0
 11
1.813823
 21
2.802908
 31
0.0
  0
LINE
  5
569
100
AcDbEntity
  8
Cut
 62
7
100
AcDbLine
 10
1.813823
 20
1.622427
 30
0.0
 11
2.655198
 21
1.622427
 31
0.0
  0
LINE
  5
56a
100
AcDbEntity
  8
Cut
 62
7
100
AcDbLine
 10
2.655198
 20
4.390408
 30
0.0
 11
2.655198
 21
6.412266
 31
0.0
  0
LINE
  5
56b
100
AcDbEntity
  8
Cut
 62
7
100
AcDbLine
 10
2.655198
 20
6.412266
 30
0.0
 11
1.813823
 21
6.412266
 31
0.0
  0
LINE
  5
56c
100
AcDbEntity
  8
Cut
 62
7
100
AcDbLine
 10
1.813823
 20
4.390408
 30
0.0
 11
2.655198
 21
4.390408
 31
0.0
  0
LINE
  5
56d
100
AcDbEntity
  8
Cut
 62
7
100
AcDbLine
 10
2.655198
 20
7.999766
 30
0.0
 11
2.655198
 21
10.005298
 31
0.0
  0
LINE
  5
56e
100
AcDbEntity
  8
Cut
 62
7
100
AcDbLine
 10
1.813823
 20
7.999766
 30
0.0
 11
2.655198
 21
7.999766
 31
0.0
  0
LINE
  5
56f
100
AcDbEntity
  8
Cut
 62
7
100
AcDbLine
 10
2.655198
 20
10.005295
 30
0.0
 11
3.450271
 21
10.020297
 31
0.0
  0
LINE
  5
570
100
AcDbEntity
  8
Cut
 62
7
100
AcDbLine
 10
3.450271
 20
10.020297
 30
0.0
 11
3.450271
 21
10.020297
 31
0.0
  0
LINE
  5
571
100
AcDbEntity
  8
Cut
 62
7
100
AcDbLine
 10
3.450271
 20
10.020297
 30
0.0
 11
5.075252
 21
10.020297
 31
0.0
  0
LINE
  5
572
100
AcDbEntity
  8
Cut
 62
7
100
AcDbLine
 10
5.075252
 20
10.020297
 30
0.0
 11
5.075252
 21
10.020297
 31
0.0
  0
LINE
  5
573
100
AcDbEntity
  8
Cut
 62
7
100
AcDbLine
 10
5.075252
 20
10.020297
 30
0.0
 11
6.662752
 21
10.020297
 31
0.0
  0
LINE
  5
574
100
AcDbEntity
  8
Cut
 62
7
100
AcDbLine
 10
6.662752
 20
10.020297
 30
0.0
 11
6.662752
 21
10.020297
 31
0.0
  0
LINE
  5
575
100
AcDbEntity
  8
Cut
 62
7
100
AcDbLine
 10
6.662752
 20
10.020297
 30
0.0
 11
8.287735
 21
10.020297
 31
0.0
  0
LINE
  5
576
100
AcDbEntity
  8
Cut
 62
7
100
AcDbLine
 10
8.287735
 20
10.020297
 30
0.0
 11
8.287735
 21
10.020297
 31
0.0
  0
LINE
  5
577
100
AcDbEntity
  8
Cut
 62
7
100
AcDbLine
 10
8.287735
 20
10.020297
 30
0.0
 11
9.875235
 21
10.020297
 31
0.0
  0
LINE
  5
578
100
AcDbEntity
  8
Cut
 62
7
100
AcDbLine
 10
9.875235
 20
10.020297
 30
0.0
 11
9.875235
 21
10.020297
 31
0.0
  0
LINE
  5
579
100
AcDbEntity
  8
Cut
 62
7
100
AcDbLine
 10
9.875235
 20
10.020297
 30
0.0
 11
11.500219
 21
10.020297
 31
0.0
  0
LINE
  5
57a
100
AcDbEntity
  8
Cut
 62
7
100
AcDbLine
 10
11.500219
 20
10.020297
 30
0.0
 11
11.500219
 21
10.020297
 31
0.0
  0
LINE
  5
57b
100
AcDbEntity
  8
Cut
 62
7
100
AcDbLine
 10
11.500219
 20
10.020297
 30
0.0
 11
13.087719
 21
10.020297
 31
0.0
  0
LINE
  5
57c
100
AcDbEntity
  8
Cut
 62
7
100
AcDbLine
 10
13.087719
 20
10.020297
 30
0.0
 11
13.087719
 21
10.020297
 31
0.0
  0
LINE
  5
57d
100
AcDbEntity
  8
Cut
 62
7
100
AcDbLine
 10
13.087719
 20
10.020297
 30
0.0
 11
14.712699
 21
10.020297
 31
0.0
  0
LINE
  5
57e
100
AcDbEntity
  8
Cut
 62
7
100
AcDbLine
 10
14.712699
 20
10.020297
 30
0.0
 11
14.712699
 21
10.020297
 31
0.0
  0
LINE
  5
57f
100
AcDbEntity
  8
Cut
 62
7
100
AcDbLine
 10
14.712699
 20
10.020297
 30
0.0
 11
16.300199
 21
10.020297
 31
0.0
  0
LINE
  5
580
100
AcDbEntity
  8
Cut
 62
7
100
AcDbLine
 10
16.300199
 20
10.020297
 30
0.0
 11
16.300199
 21
10.020297
 31
0.0
  0
LINE
  5
581
100
AcDbEntity
  8
Cut
 62
7
100
AcDbLine
 10
16.300199
 20
10.020297
 30
0.0
 11
17.925183
 21
10.020297
 31
0.0
  0
LINE
  5
582
100
AcDbEntity
  8
Cut
 62
7
100
AcDbLine
 10
17.925183
 20
10.020297
 30
0.0
 11
17.925183
 21
10.020297
 31
0.0
  0
LINE
  5
583
100
AcDbEntity
  8
Cut
 62
7
100
AcDbLine
 10
17.925183
 20
10.020297
 30
0.0
 11
19.512683
 21
10.020297
 31
0.0
  0
LINE
  5
584
100
AcDbEntity
  8
Cut
 62
7
100
AcDbLine
 10
19.512683
 20
10.020297
 30
0.0
 11
19.512683
 21
10.020297
 31
0.0
  0
LINE
  5
585
100
AcDbEntity
  8
Cut
 62
7
100
AcDbLine
 10
19.512683
 20
10.020297
 30
0.0
 11
20.296291
 21
10.020297
 31
0.0
  0
LINE
  5
586
100
AcDbEntity
  8
Cut
 62
7
100
AcDbLine
 10
20.296291
 20
10.020297
 30
0.0
 11
20.296291
 21
7.999766
 31
0.0
  0
LINE
  5
587
100
AcDbEntity
  8
Cut
 62
7
100
AcDbLine
 10
20.296291
 20
7.999766
 30
0.0
 11
21.137666
 21
7.999766
 31
0.0
  0
LINE
  5
588
100
AcDbEntity
  8
Cut
 62
7
100
AcDbLine
 10
21.137666
 20
7.999766
 30
0.0
 11
21.137666
 21
6.412266
 31
0.0
  0
LINE
  5
589
100
AcDbEntity
  8
Cut
 62
7
100
AcDbLine
 10
21.137666
 20
6.412266
 30
0.0
 11
20.296291
 21
6.412266
 31
0.0
  0
LINE
  5
58a
100
AcDbEntity
  8
Cut
 62
7
100
AcDbLine
 10
20.296291
 20
6.412266
 30
0.0
 11
20.296291
 21
4.390408
 31
0.0
  0
LINE
  5
58b
100
AcDbEntity
  8
Cut
 62
7
100
AcDbLine
 10
20.296291
 20
4.390408
 30
0.0
 11
21.137666
 21
4.390408
 31
0.0
  0
LINE
  5
58c
100
AcDbEntity
  8
Cut
 62
7
100
AcDbLine
 10
21.137666
 20
4.390408
 30
0.0
 11
21.137666
 21
2.802908
 31
0.0
  0
LINE
  5
58d
100
AcDbEntity
  8
Cut
 62
7
100
AcDbLine
 10
21.137666
 20
2.802908
 30
0.0
 11
20.296291
 21
2.802908
 31
0.0
  0
LINE
  5
58e
100
AcDbEntity
  8
Cut
 62
7
100
AcDbLine
 10
20.296291
 20
2.802908
 30
0.0
 11
20.296291
 21
1.622427
 31
0.0
  0
LINE
  5
58f
100
AcDbEntity
  8
Cut
 62
7
100
AcDbLine
 10
20.296291
 20
1.622427
 30
0.0
 11
19.512683
 21
1.622427
 31
0.0
  0
LINE
  5
590
100
AcDbEntity
  8
Cut
 62
7
100
AcDbLine
 10
19.512683
 20
1.622427
 30
0.0
 11
19.512683
 21
0.781052
 31
0.0
  0
LINE
  5
591
100
AcDbEntity
  8
Cut
 62
7
100
AcDbLine
 10
19.512683
 20
0.781052
 30
0.0
 11
17.925183
 21
0.781052
 31
0.0
  0
LINE
  5
592
100
AcDbEntity
  8
Cut
 62
7
100
AcDbLine
 10
17.925183
 20
0.781052
 30
0.0
 11
17.925183
 21
1.622427
 31
0.0
  0
LINE
  5
593
100
AcDbEntity
  8
Cut
 62
7
100
AcDbLine
 10
17.925183
 20
1.622427
 30
0.0
 11
16.300199
 21
1.622427
 31
0.0
  0
LINE
  5
594
100
AcDbEntity
  8
Cut
 62
7
100
AcDbLine
 10
16.300199
 20
1.622427
 30
0.0
 11
16.300199
 21
0.781052
 31
0.0
  0
LINE
  5
595
100
AcDbEntity
  8
Cut
 62
7
100
AcDbLine
 10
16.300199
 20
0.781052
 30
0.0
 11
14.712699
 21
0.781052
 31
0.0
  0
LINE
  5
596
100
AcDbEntity
  8
Cut
 62
7
100
AcDbLine
 10
14.712699
 20
0.781052
 30
0.0
 11
14.712699
 21
1.622427
 31
0.0
  0
LINE
  5
597
100
AcDbEntity
  8
Cut
 62
7
100
AcDbLine
 10
14.712699
 20
1.622427
 30
0.0
 11
13.087719
 21
1.622427
 31
0.0
  0
LINE
  5
598
100
AcDbEntity
  8
Cut
 62
7
100
AcDbLine
 10
13.087719
 20
1.622427
 30
0.0
 11
13.087719
 21
0.781052
 31
0.0
  0
LINE
  5
599
100
AcDbEntity
  8
Cut
 62
7
100
AcDbLine
 10
13.087719
 20
0.781052
 30
0.0
 11
11.500219
 21
0.781052
 31
0.0
  0
LINE
  5
59a
100
AcDbEntity
  8
Cut
 62
7
100
AcDbLine
 10
11.500219
 20
0.781052
 30
0.0
 11
11.500219
 21
1.622427
 31
0.0
  0
LINE
  5
59b
100
AcDbEntity
  8
Cut
 62
7
100
AcDbLine
 10
11.500219
 20
1.622427
 30
0.0
 11
9.875235
 21
1.622427
 31
0.0
  0
LINE
  5
59c
100
AcDbEntity
  8
Cut
 62
7
100
AcDbLine
 10
9.875235
 20
1.622427
 30
0.0
 11
9.875235
 21
0.781052
 31
0.0
  0
LINE
  5
59d
100
AcDbEntity
  8
Cut
 62
7
100
AcDbLine
 10
9.875235
 20
0.781052
 30
0.0
 11
8.287735
 21
0.781052
 31
0.0
  0
LINE
  5
59e
100
AcDbEntity
  8
Cut
 62
7
100
AcDbLine
 10
8.287735
 20
0.781052
 30
0.0
 11
8.287735
 21
1.622427
 31
0.0
  0
LINE
  5
59f
100
AcDbEntity
  8
Cut
 62
7
100
AcDbLine
 10
8.287735
 20
1.622427
 30
0.0
 11
6.662752
 21
1.622427
 31
0.0
  0
LINE
  5
5a0
100
AcDbEntity
  8
Cut
 62
7
100
AcDbLine
 10
6.662752
 20
1.622427
 30
0.0
 11
6.662752
 21
0.781052
 31
0.0
  0
LINE
  5
5a1
100
AcDbEntity
  8
Cut
 62
7
100
AcDbLine
 10
6.662752
 20
0.781052
 30
0.0
 11
5.075252
 21
0.781052
 31
0.0
  0
LINE
  5
5a2
100
AcDbEntity
  8
Cut
 62
7
100
AcDbLine
 10
5.075252
 20
0.781052
 30
0.0
 11
5.075252
 21
1.622427
 31
0.0
  0
LINE
  5
5a3
100
AcDbEntity
  8
Cut
 62
7
100
AcDbLine
 10
5.075252
 20
1.622427
 30
0.0
 11
3.450271
 21
1.622427
 31
0.0
  0
LINE
  5
5a4
100
AcDbEntity
  8
Cut
 62
7
100
AcDbLine
 10
3.450271
 20
1.622427
 30
0.0
 11
3.450271
 21
0.781052
 31
0.0
  0
LINE
  5
5a5
100
AcDbEntity
  8
Cut
 62
7
100
AcDbLine
 10
3.450271
 20
0.781052
 30
0.0
 11
1.862771
 21
0.781052
 31
0.0
  0
LINE
  5
5a6
100
AcDbEntity
  8
Cut
 62
7
100
AcDbLine
 10
1.862771
 20
0.781052
 30
0.0
 11
1.862771
 21
1.622427
 31
0.0
  0
LINE
  5
5a7
100
AcDbEntity
  8
Cut
 62
7
100
AcDbLine
 10
1.862771
 20
1.622427
 30
0.0
 11
1.813823
 21
1.622427
 31
0.0
  0
LINE
  5
5a8
100
AcDbEntity
  8
Cut
 62
7
100
AcDbLine
 10
1.813802
 20
2.798082
 30
0.0
 11
1.813780
 21
4.406849
 31
0.0
  0
LINE
  5
5a9
100
AcDbEntity
  8
Cut
 62
7
100
AcDbLine
 10
1.813765
 20
6.404551
 30
0.0
 11
1.813759
 21
8.013318
 31
0.0
  0
LINE
  5
5aa
100
AcDbEntity
  8
Cut
 62
7
100
AcDbLine
 10
45.165265
 20
37.923379
 30
0.0
 11
45.185982
 21
7.684148
 31
0.0
  0
LINE
  5
5ab
100
AcDbEntity
  8
Cut
 62
7
100
AcDbLine
 10
53.583851
 20
7.684148
 30
0.0
 11
53.563187
 21
8.864597
 31
0.0
  0
LINE
  5
5ac
100
AcDbEntity
  8
Cut
 62
7
100
AcDbLine
 10
53.563187
 20
8.864597
 30
0.0
 11
54.404605
 21
8.864597
 31
0.0
  0
LINE
  5
5ad
100
AcDbEntity
  8
Cut
 62
7
100
AcDbLine
 10
54.404605
 20
8.864597
 30
0.0
 11
54.404605
 21
10.452136
 31
0.0
  0
LINE
  5
5ae
100
AcDbEntity
  8
Cut
 62
7
100
AcDbLine
 10
54.404605
 20
10.452136
 30
0.0
 11
53.563187
 21
10.452136
 31
0.0
  0
LINE
  5
5af
100
AcDbEntity
  8
Cut
 62
7
100
AcDbLine
 10
53.563187
 20
10.452136
 30
0.0
 11
53.563187
 21
12.150973
 31
0.0
  0
LINE
  5
5b0
100
AcDbEntity
  8
Cut
 62
7
100
AcDbLine
 10
53.563187
 20
12.150973
 30
0.0
 11
54.404605
 21
12.150973
 31
0.0
  0
LINE
  5
5b1
100
AcDbEntity
  8
Cut
 62
7
100
AcDbLine
 10
54.404605
 20
12.150973
 30
0.0
 11
54.404605
 21
13.738513
 31
0.0
  0
LINE
  5
5b2
100
AcDbEntity
  8
Cut
 62
7
100
AcDbLine
 10
54.404605
 20
13.738513
 30
0.0
 11
53.563187
 21
13.738513
 31
0.0
  0
LINE
  5
5b3
100
AcDbEntity
  8
Cut
 62
7
100
AcDbLine
 10
53.563187
 20
13.738513
 30
0.0
 11
53.563187
 21
15.437347
 31
0.0
  0
LINE
  5
5b4
100
AcDbEntity
  8
Cut
 62
7
100
AcDbLine
 10
53.563187
 20
15.437347
 30
0.0
 11
54.404605
 21
15.437347
 31
0.0
  0
LINE
  5
5b5
100
AcDbEntity
  8
Cut
 62
7
100
AcDbLine
 10
54.404605
 20
15.437347
 30
0.0
 11
54.404605
 21
17.024889
 31
0.0
  0
LINE
  5
5b6
100
AcDbEntity
  8
Cut
 62
7
100
AcDbLine
 10
54.404605
 20
17.024889
 30
0.0
 11
53.563187
 21
17.024889
 31
0.0
  0
LINE
  5
5b7
100
AcDbEntity
  8
Cut
 62
7
100
AcDbLine
 10
53.563187
 20
17.024889
 30
0.0
 11
53.563187
 21
18.723723
 31
0.0
  0
LINE
  5
5b8
100
AcDbEntity
  8
Cut
 62
7
100
AcDbLine
 10
53.563187
 20
18.723723
 30
0.0
 11
54.404605
 21
18.723723
 31
0.0
  0
LINE
  5
5b9
100
AcDbEntity
  8
Cut
 62
7
100
AcDbLine
 10
54.404605
 20
18.723723
 30
0.0
 11
54.404605
 21
20.311128
 31
0.0
  0
LINE
  5
5ba
100
AcDbEntity
  8
Cut
 62
7
100
AcDbLine
 10
54.404605
 20
20.311128
 30
0.0
 11
53.563187
 21
20.311128
 31
0.0
  0
LINE
  5
5bb
100
AcDbEntity
  8
Cut
 62
7
100
AcDbLine
 10
53.563187
 20
20.311128
 30
0.0
 11
53.563187
 21
22.009962
 31
0.0
  0
LINE
  5
5bc
100
AcDbEntity
  8
Cut
 62
7
100
AcDbLine
 10
53.563187
 20
22.009962
 30
0.0
 11
54.404605
 21
22.009962
 31
0.0
  0
LINE
  5
5bd
100
AcDbEntity
  8
Cut
 62
7
100
AcDbLine
 10
54.404605
 20
22.009962
 30
0.0
 11
54.404605
 21
23.597502
 31
0.0
  0
LINE
  5
5be
100
AcDbEntity
  8
Cut
 62
7
100
AcDbLine
 10
54.404605
 20
23.597502
 30
0.0
 11
53.563187
 21
23.597502
 31
0.0
  0
LINE
  5
5bf
100
AcDbEntity
  8
Cut
 62
7
100
AcDbLine
 10
53.563187
 20
23.597502
 30
0.0
 11
53.563187
 21
25.296338
 31
0.0
  0
LINE
  5
5c0
100
AcDbEntity
  8
Cut
 62
7
100
AcDbLine
 10
53.563187
 20
25.296338
 30
0.0
 11
54.404605
 21
25.296338
 31
0.0
  0
LINE
  5
5c1
100
AcDbEntity
  8
Cut
 62
7
100
AcDbLine
 10
54.404605
 20
25.296338
 30
0.0
 11
54.404605
 21
26.883878
 31
0.0
  0
LINE
  5
5c2
100
AcDbEntity
  8
Cut
 62
7
100
AcDbLine
 10
54.404605
 20
26.883878
 30
0.0
 11
53.563187
 21
26.883878
 31
0.0
  0
LINE
  5
5c3
100
AcDbEntity
  8
Cut
 62
7
100
AcDbLine
 10
53.563187
 20
26.883878
 30
0.0
 11
53.563187
 21
28.582715
 31
0.0
  0
LINE
  5
5c4
100
AcDbEntity
  8
Cut
 62
7
100
AcDbLine
 10
53.563187
 20
28.582715
 30
0.0
 11
54.404605
 21
28.582715
 31
0.0
  0
LINE
  5
5c5
100
AcDbEntity
  8
Cut
 62
7
100
AcDbLine
 10
54.404605
 20
28.582715
 30
0.0
 11
54.404605
 21
30.170254
 31
0.0
  0
LINE
  5
5c6
100
AcDbEntity
  8
Cut
 62
7
100
AcDbLine
 10
54.404605
 20
30.170254
 30
0.0
 11
53.563187
 21
30.170254
 31
0.0
  0
LINE
  5
5c7
100
AcDbEntity
  8
Cut
 62
7
100
AcDbLine
 10
53.563187
 20
30.170254
 30
0.0
 11
53.563187
 21
31.869088
 31
0.0
  0
LINE
  5
5c8
100
AcDbEntity
  8
Cut
 62
7
100
AcDbLine
 10
53.563187
 20
31.869088
 30
0.0
 11
54.404605
 21
31.869088
 31
0.0
  0
LINE
  5
5c9
100
AcDbEntity
  8
Cut
 62
7
100
AcDbLine
 10
54.404605
 20
31.869088
 30
0.0
 11
54.404605
 21
33.456493
 31
0.0
  0
LINE
  5
5ca
100
AcDbEntity
  8
Cut
 62
7
100
AcDbLine
 10
54.404605
 20
33.456493
 30
0.0
 11
53.563187
 21
33.456493
 31
0.0
  0
LINE
  5
5cb
100
AcDbEntity
  8
Cut
 62
7
100
AcDbLine
 10
53.563187
 20
33.456493
 30
0.0
 11
53.563187
 21
35.155327
 31
0.0
  0
LINE
  5
5cc
100
AcDbEntity
  8
Cut
 62
7
100
AcDbLine
 10
53.563187
 20
35.155327
 30
0.0
 11
54.404605
 21
35.155327
 31
0.0
  0
LINE
  5
5cd
100
AcDbEntity
  8
Cut
 62
7
100
AcDbLine
 10
54.404605
 20
35.155327
 30
0.0
 11
54.404605
 21
36.742867
 31
0.0
  0
LINE
  5
5ce
100
AcDbEntity
  8
Cut
 62
7
100
AcDbLine
 10
54.404605
 20
36.742867
 30
0.0
 11
53.563187
 21
36.742867
 31
0.0
  0
LINE
  5
5cf
100
AcDbEntity
  8
Cut
 62
7
100
AcDbLine
 10
53.563187
 20
36.742867
 30
0.0
 11
53.563140
 21
37.923379
 31
0.0
  0
LINE
  5
5d0
100
AcDbEntity
  8
Cut
 62
7
100
AcDbLine
 10
52.382659
 20
37.082004
 30
0.0
 11
50.795159
 21
37.082004
 31
0.0
  0
LINE
  5
5d1
100
AcDbEntity
  8
Cut
 62
7
100
AcDbLine
 10
50.795159
 20
37.082004
 30
0.0
 11
50.795159
 21
37.923379
 31
0.0
  0
LINE
  5
5d2
100
AcDbEntity
  8
Cut
 62
7
100
AcDbLine
 10
48.773300
 20
37.082004
 30
0.0
 11
47.185800
 21
37.082004
 31
0.0
  0
LINE
  5
5d3
100
AcDbEntity
  8
Cut
 62
7
100
AcDbLine
 10
47.185800
 20
37.082004
 30
0.0
 11
47.185800
 21
37.923379
 31
0.0
  0
LINE
  5
5d4
100
AcDbEntity
  8
Cut
 62
7
100
AcDbLine
 10
48.773300
 20
37.923379
 30
0.0
 11
48.773300
 21
37.082004
 31
0.0
  0
SPLINE
  5
5d5
100
AcDbEntity
  8
Cut
 62
7
100
AcDbSpline
 70
8
 71
3
 72
8
 73
4
 74
0
 40
0
 40
0
 40
0
 40
0
 40
1
 40
1
 40
1
 40
1
 10
53.563140
 20
37.923379
 30
0.0
 10
53.169718
 20
37.923379
 30
0.0
 10
52.776224
 20
37.923379
 30
0.0
 10
52.382659
 20
37.923379
 30
0.0
  0
SPLINE
  5
5d6
100
AcDbEntity
  8
Cut
 62
7
100
AcDbSpline
 70
8
 71
3
 72
8
 73
4
 74
0
 40
0
 40
0
 40
0
 40
0
 40
1
 40
1
 40
1
 40
1
 10
50.795159
 20
37.923379
 30
0.0
 10
50.121276
 20
37.923379
 30
0.0
 10
49.447324
 20
37.923379
 30
0.0
 10
48.773300
 20
37.923379
 30
0.0
  0
SPLINE
  5
5d7
100
AcDbEntity
  8
Cut
 62
7
100
AcDbSpline
 70
8
 71
3
 72
8
 73
4
 74
0
 40
0
 40
0
 40
0
 40
0
 40
1
 40
1
 40
1
 40
1
 10
52.382659
 20
37.082004
 30
0.0
 10
52.382659
 20
37.362532
 30
0.0
 10
52.382659
 20
37.642990
 30
0.0
 10
52.382659
 20
37.923379
 30
0.0
  0
SPLINE
  5
5d8
100
AcDbEntity
  8
Cut
 62
7
100
AcDbSpline
 70
8
 71
3
 72
8
 73
4
 74
0
 40
0
 40
0
 40
0
 40
0
 40
1
 40
1
 40
1
 40
1
 10
47.185800
 20
37.923379
 30
0.0
 10
46.512359
 20
37.923379
 30
0.0
 10
45.838846
 20
37.923379
 30
0.0
 10
45.165265
 20
37.923379
 30
0.0
  0
LINE
  5
5d9
100
AcDbEntity
  8
Cut
 62
7
100
AcDbLine
 10
52.403371
 20
8.525523
 30
0.0
 11
50.815871
 21
8.525523
 31
0.0
  0
LINE
  5
5da
100
AcDbEntity
  8
Cut
 62
7
100
AcDbLine
 10
50.815871
 20
8.525523
 30
0.0
 11
50.815871
 21
7.684148
 31
0.0
  0
LINE
  5
5db
100
AcDbEntity
  8
Cut
 62
7
100
AcDbLine
 10
48.794012
 20
8.525523
 30
0.0
 11
47.206512
 21
8.525523
 31
0.0
  0
LINE
  5
5dc
100
AcDbEntity
  8
Cut
 62
7
100
AcDbLine
 10
47.206512
 20
8.525523
 30
0.0
 11
47.206512
 21
7.684148
 31
0.0
  0
LINE
  5
5dd
100
AcDbEntity
  8
Cut
 62
7
100
AcDbLine
 10
48.794012
 20
7.684148
 30
0.0
 11
48.794012
 21
8.525523
 31
0.0
  0
SPLINE
  5
5de
100
AcDbEntity
  8
Cut
 62
7
100
AcDbSpline
 70
8
 71
3
 72
8
 73
4
 74
0
 40
0
 40
0
 40
0
 40
0
 40
1
 40
1
 40
1
 40
1
 10
53.583851
 20
7.684148
 30
0.0
 10
53.190429
 20
7.684148
 30
0.0
 10
52.796936
 20
7.684148
 30
0.0
 10
52.403371
 20
7.684148
 30
0.0
  0
SPLINE
  5
5df
100
AcDbEntity
  8
Cut
 62
7
100
AcDbSpline
 70
8
 71
3
 72
8
 73
4
 74
0
 40
0
 40
0
 40
0
 40
0
 40
1
 40
1
 40
1
 40
1
 10
50.815871
 20
7.684148
 30
0.0
 10
50.141987
 20
7.684148
 30
0.0
 10
49.468035
 20
7.684148
 30
0.0
 10
48.794012
 20
7.684148
 30
0.0
  0
SPLINE
  5
5e0
100
AcDbEntity
  8
Cut
 62
7
100
AcDbSpline
 70
8
 71
3
 72
8
 73
4
 74
0
 40
0
 40
0
 40
0
 40
0
 40
1
 40
1
 40
1
 40
1
 10
52.403371
 20
8.525523
 30
0.0
 10
52.403371
 20
8.244996
 30
0.0
 10
52.403371
 20
7.964537
 30
0.0
 10
52.403371
 20
7.684148
 30
0.0
  0
SPLINE
  5
5e1
100
AcDbEntity
  8
Cut
 62
7
100
AcDbSpline
 70
8
 71
3
 72
8
 73
4
 74
0
 40
0
 40
0
 40
0
 40
0
 40
1
 40
1
 40
1
 40
1
 10
47.206512
 20
7.684148
 30
0.0
 10
46.533071
 20
7.684148
 30
0.0
 10
45.859558
 20
7.684148
 30
0.0
 10
45.185976
 20
7.684148
 30
0.0
  0
LINE
  5
5e2
100
AcDbEntity
  8
Cut
 62
7
100
AcDbLine
 10
35.645972
 20
29.800229
 30
0.0
 11
37.664071
 21
29.800229
 31
0.0
  0
LINE
  5
5e3
100
AcDbEntity
  8
Cut
 62
7
100
AcDbLine
 10
37.664071
 20
29.800229
 30
0.0
 11
37.664071
 21
30.641604
 31
0.0
  0
LINE
  5
5e4
100
AcDbEntity
  8
Cut
 62
7
100
AcDbLine
 10
37.664071
 20
30.641604
 30
0.0
 11
35.645972
 21
30.641604
 31
0.0
  0
LINE
  5
5e5
100
AcDbEntity
  8
Cut
 62
7
100
AcDbLine
 10
39.251571
 20
29.800229
 30
0.0
 11
41.273429
 21
29.800229
 31
0.0
  0
LINE
  5
5e6
100
AcDbEntity
  8
Cut
 62
7
100
AcDbLine
 10
41.273429
 20
29.800229
 30
0.0
 11
41.273429
 21
30.641604
 31
0.0
  0
LINE
  5
5e7
100
AcDbEntity
  8
Cut
 62
7
100
AcDbLine
 10
41.273429
 20
30.641604
 30
0.0
 11
39.251571
 21
30.641604
 31
0.0
  0
LINE
  5
5e8
100
AcDbEntity
  8
Cut
 62
7
100
AcDbLine
 10
39.251571
 20
30.641604
 30
0.0
 11
39.251571
 21
29.800229
 31
0.0
  0
LINE
  5
5e9
100
AcDbEntity
  8
Cut
 62
7
100
AcDbLine
 10
42.860929
 20
29.800229
 30
0.0
 11
44.041411
 21
29.800229
 31
0.0
  0
LINE
  5
5ea
100
AcDbEntity
  8
Cut
 62
7
100
AcDbLine
 10
44.041411
 20
29.800229
 30
0.0
 11
44.041411
 21
30.641604
 31
0.0
  0
LINE
  5
5eb
100
AcDbEntity
  8
Cut
 62
7
100
AcDbLine
 10
44.041411
 20
30.641604
 30
0.0
 11
42.860929
 21
30.641604
 31
0.0
  0
LINE
  5
5ec
100
AcDbEntity
  8
Cut
 62
7
100
AcDbLine
 10
42.860929
 20
30.641604
 30
0.0
 11
42.860929
 21
29.800229
 31
0.0
  0
LINE
  5
5ed
100
AcDbEntity
  8
Cut
 62
7
100
AcDbLine
 10
35.645972
 20
19.723570
 30
0.0
 11
37.664071
 21
19.723570
 31
0.0
  0
LINE
  5
5ee
100
AcDbEntity
  8
Cut
 62
7
100
AcDbLine
 10
37.664071
 20
19.723570
 30
0.0
 11
37.664071
 21
20.564945
 31
0.0
  0
LINE
  5
5ef
100
AcDbEntity
  8
Cut
 62
7
100
AcDbLine
 10
37.664071
 20
20.564945
 30
0.0
 11
35.645972
 21
20.564945
 31
0.0
  0
LINE
  5
5f0
100
AcDbEntity
  8
Cut
 62
7
100
AcDbLine
 10
39.251571
 20
19.723570
 30
0.0
 11
41.273429
 21
19.723570
 31
0.0
  0
LINE
  5
5f1
100
AcDbEntity
  8
Cut
 62
7
100
AcDbLine
 10
41.273429
 20
19.723570
 30
0.0
 11
41.273429
 21
20.564945
 31
0.0
  0
LINE
  5
5f2
100
AcDbEntity
  8
Cut
 62
7
100
AcDbLine
 10
41.273429
 20
20.564945
 30
0.0
 11
39.251571
 21
20.564945
 31
0.0
  0
LINE
  5
5f3
100
AcDbEntity
  8
Cut
 62
7
100
AcDbLine
 10
39.251571
 20
20.564945
 30
0.0
 11
39.251571
 21
19.723570
 31
0.0
  0
LINE
  5
5f4
100
AcDbEntity
  8
Cut
 62
7
100
AcDbLine
 10
42.860929
 20
19.723570
 30
0.0
 11
44.041411
 21
19.723570
 31
0.0
  0
LINE
  5
5f5
100
AcDbEntity
  8
Cut
 62
7
100
AcDbLine
 10
44.041411
 20
19.723570
 30
0.0
 11
44.041411
 21
20.564945
 31
0.0
  0
LINE
  5
5f6
100
AcDbEntity
  8
Cut
 62
7
100
AcDbLine
 10
44.041411
 20
20.564945
 30
0.0
 11
42.860929
 21
20.564945
 31
0.0
  0
LINE
  5
5f7
100
AcDbEntity
  8
Cut
 62
7
100
AcDbLine
 10
42.860929
 20
20.564945
 30
0.0
 11
42.860929
 21
19.723570
 31
0.0
  0
LINE
  5
5f8
100
AcDbEntity
  8
Footprints
 62
5
100
AcDbLine
 10
2.463877
 20
57.325143
 30
0.0
 11
25.145283
 21
57.325143
 31
0.0
  0
LINE
  5
5f9
100
AcDbEntity
  8
Footprints
 62
5
100
AcDbLine
 10
25.145283
 20
57.325143
 30
0.0
 11
25.145283
 21
39.684048
 31
0.0
  0
LINE
  5
5fa
100
AcDbEntity
  8
Footprints
 62
5
100
AcDbLine
 10
25.145283
 20
39.684048
 30
0.0
 11
2.463877
 21
39.684048
 31
0.0
  0
LINE
  5
5fb
100
AcDbEntity
  8
Footprints
 62
5
100
AcDbLine
 10
2.463877
 20
39.684048
 30
0.0
 11
2.463877
 21
57.325143
 31
0.0
  0
LINE
  5
5fc
100
AcDbEntity
  8
Footprints
 62
5
100
AcDbLine
 10
55.384516
 20
57.325143
 30
0.0
 11
78.065921
 21
57.325143
 31
0.0
  0
LINE
  5
5fd
100
AcDbEntity
  8
Footprints
 62
5
100
AcDbLine
 10
78.065921
 20
57.325143
 30
0.0
 11
78.065921
 21
39.684048
 31
0.0
  0
LINE
  5
5fe
100
AcDbEntity
  8
Footprints
 62
5
100
AcDbLine
 10
78.065921
 20
39.684048
 30
0.0
 11
55.384516
 21
39.684048
 31
0.0
  0
LINE
  5
5ff
100
AcDbEntity
  8
Footprints
 62
5
100
AcDbLine
 10
55.384516
 20
39.684048
 30
0.0
 11
55.384516
 21
57.325143
 31
0.0
  0
LINE
  5
600
100
AcDbEntity
  8
Footprints
 62
5
100
AcDbLine
 10
25.986656
 20
67.404444
 30
0.0
 11
54.548427
 21
67.404444
 31
0.0
  0
LINE
  5
601
100
AcDbEntity
  8
Footprints
 62
5
100
AcDbLine
 10
54.548427
 20
67.404444
 30
0.0
 11
54.548427
 21
38.842673
 31
0.0
  0
LINE
  5
602
100
AcDbEntity
  8
Footprints
 62
5
100
AcDbLine
 10
54.548427
 20
38.842673
 30
0.0
 11
25.986656
 21
38.842673
 31
0.0
  0
LINE
  5
603
100
AcDbEntity
  8
Footprints
 62
5
100
AcDbLine
 10
25.986656
 20
38.842673
 30
0.0
 11
25.986656
 21
67.404444
 31
0.0
  0
LINE
  5
604
100
AcDbEntity
  8
Footprints
 62
5
100
AcDbLine
 10
25.986656
 20
74.963591
 30
0.0
 11
54.548427
 21
74.963591
 31
0.0
  0
LINE
  5
605
100
AcDbEntity
  8
Footprints
 62
5
100
AcDbLine
 10
54.548427
 20
74.963591
 30
0.0
 11
54.548427
 21
68.243174
 31
0.0
  0
LINE
  5
606
100
AcDbEntity
  8
Footprints
 62
5
100
AcDbLine
 10
54.548427
 20
68.243174
 30
0.0
 11
25.986656
 21
68.243174
 31
0.0
  0
LINE
  5
607
100
AcDbEntity
  8
Footprints
 62
5
100
AcDbLine
 10
25.986656
 20
68.243174
 30
0.0
 11
25.986656
 21
74.963591
 31
0.0
  0
LINE
  5
608
100
AcDbEntity
  8
Footprints
 62
5
100
AcDbLine
 10
55.384516
 20
74.963591
 30
0.0
 11
78.905974
 21
74.963591
 31
0.0
  0
LINE
  5
609
100
AcDbEntity
  8
Footprints
 62
5
100
AcDbLine
 10
78.905974
 20
74.963591
 30
0.0
 11
78.905974
 21
58.162549
 31
0.0
  0
LINE
  5
60a
100
AcDbEntity
  8
Footprints
 62
5
100
AcDbLine
 10
78.905974
 20
58.162549
 30
0.0
 11
55.384516
 21
58.162549
 31
0.0
  0
LINE
  5
60b
100
AcDbEntity
  8
Footprints
 62
5
100
AcDbLine
 10
55.384516
 20
58.162549
 30
0.0
 11
55.384516
 21
74.963591
 31
0.0
  0
LINE
  5
60c
100
AcDbEntity
  8
Footprints
 62
5
100
AcDbLine
 10
1.623824
 20
74.967560
 30
0.0
 11
25.145283
 21
74.967560
 31
0.0
  0
LINE
  5
60d
100
AcDbEntity
  8
Footprints
 62
5
100
AcDbLine
 10
25.145283
 20
74.967560
 30
0.0
 11
25.145283
 21
58.166518
 31
0.0
  0
LINE
  5
60e
100
AcDbEntity
  8
Footprints
 62
5
100
AcDbLine
 10
25.145283
 20
58.166518
 30
0.0
 11
1.623824
 21
58.166518
 31
0.0
  0
LINE
  5
60f
100
AcDbEntity
  8
Footprints
 62
5
100
AcDbLine
 10
1.623824
 20
58.166518
 30
0.0
 11
1.623824
 21
74.967560
 31
0.0
  0
LINE
  5
610
100
AcDbEntity
  8
Footprints
 62
5
100
AcDbLine
 10
25.986657
 20
20.365490
 30
0.0
 11
48.668063
 21
20.365490
 31
0.0
  0
LINE
  5
611
100
AcDbEntity
  8
Footprints
 62
5
100
AcDbLine
 10
48.668063
 20
20.365490
 30
0.0
 11
48.668063
 21
2.724395
 31
0.0
  0
LINE
  5
612
100
AcDbEntity
  8
Footprints
 62
5
100
AcDbLine
 10
48.668063
 20
2.724395
 30
0.0
 11
25.986657
 21
2.724395
 31
0.0
  0
LINE
  5
613
100
AcDbEntity
  8
Footprints
 62
5
100
AcDbLine
 10
25.986657
 20
2.724395
 30
0.0
 11
25.986657
 21
20.365490
 31
0.0
  0
LINE
  5
614
100
AcDbEntity
  8
Footprints
 62
5
100
AcDbLine
 10
25.986657
 20
38.003941
 30
0.0
 11
54.548428
 21
38.003941
 31
0.0
  0
LINE
  5
615
100
AcDbEntity
  8
Footprints
 62
5
100
AcDbLine
 10
54.548428
 20
38.003941
 30
0.0
 11
54.548428
 21
31.283524
 31
0.0
  0
LINE
  5
616
100
AcDbEntity
  8
Footprints
 62
5
100
AcDbLine
 10
54.548428
 20
31.283524
 30
0.0
 11
25.986657
 21
31.283524
 31
0.0
  0
LINE
  5
617
100
AcDbEntity
  8
Footprints
 62
5
100
AcDbLine
 10
25.986657
 20
31.283524
 30
0.0
 11
25.986657
 21
38.003941
 31
0.0
  0
LINE
  5
618
100
AcDbEntity
  8
Footprints
 62
5
100
AcDbLine
 10
25.986657
 20
30.442152
 30
0.0
 11
54.548428
 21
30.442152
 31
0.0
  0
LINE
  5
619
100
AcDbEntity
  8
Footprints
 62
5
100
AcDbLine
 10
54.548428
 20
30.442152
 30
0.0
 11
54.548428
 21
1.880381
 31
0.0
  0
LINE
  5
61a
100
AcDbEntity
  8
Footprints
 62
5
100
AcDbLine
 10
54.548428
 20
1.880381
 30
0.0
 11
25.986657
 21
1.880381
 31
0.0
  0
LINE
  5
61b
100
AcDbEntity
  8
Footprints
 62
5
100
AcDbLine
 10
25.986657
 20
1.880381
 30
0.0
 11
25.986657
 21
30.442152
 31
0.0
  0
LINE
  5
61c
100
AcDbEntity
  8
Footprints
 62
5
100
AcDbLine
 10
55.429902
 20
85.308863
 30
0.0
 11
78.907299
 21
85.308863
 31
0.0
  0
LINE
  5
61d
100
AcDbEntity
  8
Footprints
 62
5
100
AcDbLine
 10
78.907299
 20
85.308863
 30
0.0
 11
78.907299
 21
76.908343
 31
0.0
  0
LINE
  5
61e
100
AcDbEntity
  8
Footprints
 62
5
100
AcDbLine
 10
78.907299
 20
76.908343
 30
0.0
 11
55.429902
 21
76.908343
 31
0.0
  0
LINE
  5
61f
100
AcDbEntity
  8
Footprints
 62
5
100
AcDbLine
 10
55.429902
 20
76.908343
 30
0.0
 11
55.429902
 21
85.308863
 31
0.0
  0
ENDSEC
  0
SECTION
  2
OBJECTS
  0
DICTIONARY
  5
C
330
0
100
AcDbDictionary
  3
ACAD_GROUP
350
D
  3
ACAD_MLINESTYLE
350
17
  0
DICTIONARY
  5
D
330
C
100
AcDbDictionary
  0
DICTIONARY
  5
1A
330
C
100
AcDbDictionary
  0
DICTIONARY
  5
17
330
C
100
AcDbDictionary
  3
STANDARD
350
18
  0
DICTIONARY
  5
19
330
C
100
AcDbDictionary
  0
ENDSEC
  0
EOF
