<?xml version="1.0" encoding="UTF-8" standalone="no"?>
<!-- Created with Inkscape (http://www.inkscape.org/) -->

<svg
   xmlns:dc="http://purl.org/dc/elements/1.1/"
   xmlns:cc="http://creativecommons.org/ns#"
   xmlns:rdf="http://www.w3.org/1999/02/22-rdf-syntax-ns#"
   xmlns:svg="http://www.w3.org/2000/svg"
   xmlns="http://www.w3.org/2000/svg"
   xmlns:sodipodi="http://sodipodi.sourceforge.net/DTD/sodipodi-0.dtd"
   xmlns:inkscape="http://www.inkscape.org/namespaces/inkscape"
   id="svg8"
   version="1.1"
   viewBox="0 0 304.35944 328.5542"
   height="328.5542mm"
   width="304.35944mm"
   sodipodi:docname="drawer_base.svg"
   inkscape:version="0.92.1 r15371">
  <sodipodi:namedview
     fit-margin-bottom="6"
     fit-margin-right="6"
     fit-margin-left="6"
     fit-margin-top="6"
     inkscape:window-maximized="1"
     inkscape:window-y="-8"
     inkscape:window-x="-8"
     inkscape:window-height="997"
     inkscape:window-width="1680"
     showgrid="false"
     inkscape:current-layer="layer1"
     inkscape:document-units="mm"
     inkscape:cy="653.97849"
     inkscape:cx="252.38882"
     inkscape:zoom="0.35"
     inkscape:pageshadow="2"
     inkscape:pageopacity="0.0"
     borderopacity="1.0"
     bordercolor="#666666"
     pagecolor="#ffffff"
     id="base"
     inkscape:lockguides="false"
     inkscape:measure-start="721.429,1133.39"
     inkscape:measure-end="740.893,1133.75" />
  <defs
     id="defs2">
    <inkscape:path-effect
       effect="bspline"
       id="path-effect10190"
       is_visible="true"
       weight="33.333333"
       steps="2"
       helper_size="0"
       apply_no_weight="true"
       apply_with_weight="true"
       only_selected="false" />
    <inkscape:path-effect
       effect="bspline"
       id="path-effect10005"
       is_visible="true"
       weight="33.333333"
       steps="2"
       helper_size="0"
       apply_no_weight="true"
       apply_with_weight="true"
       only_selected="false" />
    <inkscape:path-effect
       effect="bspline"
       id="path-effect9081"
       is_visible="true"
       weight="33.333333"
       steps="2"
       helper_size="0"
       apply_no_weight="true"
       apply_with_weight="true"
       only_selected="false" />
    <inkscape:path-effect
       effect="bspline"
       id="path-effect8859"
       is_visible="true"
       weight="33.333333"
       steps="2"
       helper_size="0"
       apply_no_weight="true"
       apply_with_weight="true"
       only_selected="false" />
    <inkscape:path-effect
       effect="bspline"
       id="path-effect8855"
       is_visible="true"
       weight="33.333333"
       steps="2"
       helper_size="0"
       apply_no_weight="true"
       apply_with_weight="true"
       only_selected="false" />
    <inkscape:path-effect
       effect="bspline"
       id="path-effect8827"
       is_visible="true"
       weight="33.333333"
       steps="2"
       helper_size="0"
       apply_no_weight="true"
       apply_with_weight="true"
       only_selected="false" />
    <inkscape:path-effect
       effect="bspline"
       id="path-effect8823"
       is_visible="true"
       weight="33.333333"
       steps="2"
       helper_size="0"
       apply_no_weight="true"
       apply_with_weight="true"
       only_selected="false" />
    <inkscape:path-effect
       effect="bspline"
       id="path-effect8819"
       is_visible="true"
       weight="33.333333"
       steps="2"
       helper_size="0"
       apply_no_weight="true"
       apply_with_weight="true"
       only_selected="false" />
    <inkscape:path-effect
       effect="bspline"
       id="path-effect8815"
       is_visible="true"
       weight="33.333333"
       steps="2"
       helper_size="0"
       apply_no_weight="true"
       apply_with_weight="true"
       only_selected="false" />
    <inkscape:path-effect
       effect="bspline"
       id="path-effect8811"
       is_visible="true"
       weight="33.333333"
       steps="2"
       helper_size="0"
       apply_no_weight="true"
       apply_with_weight="true"
       only_selected="false" />
    <inkscape:path-effect
       effect="bspline"
       id="path-effect8807"
       is_visible="true"
       weight="33.333333"
       steps="2"
       helper_size="0"
       apply_no_weight="true"
       apply_with_weight="true"
       only_selected="false" />
    <inkscape:path-effect
       effect="bspline"
       id="path-effect8803"
       is_visible="true"
       weight="33.333333"
       steps="2"
       helper_size="0"
       apply_no_weight="true"
       apply_with_weight="true"
       only_selected="false" />
    <inkscape:path-effect
       effect="bspline"
       id="path-effect8585"
       is_visible="true"
       weight="33.333333"
       steps="2"
       helper_size="0"
       apply_no_weight="true"
       apply_with_weight="true"
       only_selected="false" />
    <inkscape:path-effect
       effect="bspline"
       id="path-effect8581"
       is_visible="true"
       weight="33.333333"
       steps="2"
       helper_size="0"
       apply_no_weight="true"
       apply_with_weight="true"
       only_selected="false" />
    <inkscape:path-effect
       effect="bspline"
       id="path-effect8556"
       is_visible="true"
       weight="33.333333"
       steps="2"
       helper_size="0"
       apply_no_weight="true"
       apply_with_weight="true"
       only_selected="false" />
    <inkscape:path-effect
       effect="bspline"
       id="path-effect8552"
       is_visible="true"
       weight="33.333333"
       steps="2"
       helper_size="0"
       apply_no_weight="true"
       apply_with_weight="true"
       only_selected="false" />
    <inkscape:path-effect
       effect="bspline"
       id="path-effect8552-3"
       is_visible="true"
       weight="33.333333"
       steps="2"
       helper_size="0"
       apply_no_weight="true"
       apply_with_weight="true"
       only_selected="false" />
    <inkscape:path-effect
       effect="bspline"
       id="path-effect8585-2"
       is_visible="true"
       weight="33.333333"
       steps="2"
       helper_size="0"
       apply_no_weight="true"
       apply_with_weight="true"
       only_selected="false" />
    <inkscape:path-effect
       effect="bspline"
       id="path-effect8552-35"
       is_visible="true"
       weight="33.333333"
       steps="2"
       helper_size="0"
       apply_no_weight="true"
       apply_with_weight="true"
       only_selected="false" />
    <inkscape:path-effect
       effect="bspline"
       id="path-effect8552-35-2"
       is_visible="true"
       weight="33.333333"
       steps="2"
       helper_size="0"
       apply_no_weight="true"
       apply_with_weight="true"
       only_selected="false" />
    <inkscape:path-effect
       effect="bspline"
       id="path-effect8859-6"
       is_visible="true"
       weight="33.333333"
       steps="2"
       helper_size="0"
       apply_no_weight="true"
       apply_with_weight="true"
       only_selected="false" />
    <inkscape:path-effect
       effect="bspline"
       id="path-effect8855-2"
       is_visible="true"
       weight="33.333333"
       steps="2"
       helper_size="0"
       apply_no_weight="true"
       apply_with_weight="true"
       only_selected="false" />
    <inkscape:path-effect
       effect="bspline"
       id="path-effect8827-6"
       is_visible="true"
       weight="33.333333"
       steps="2"
       helper_size="0"
       apply_no_weight="true"
       apply_with_weight="true"
       only_selected="false" />
    <inkscape:path-effect
       effect="bspline"
       id="path-effect8823-0"
       is_visible="true"
       weight="33.333333"
       steps="2"
       helper_size="0"
       apply_no_weight="true"
       apply_with_weight="true"
       only_selected="false" />
    <inkscape:path-effect
       effect="bspline"
       id="path-effect8819-4"
       is_visible="true"
       weight="33.333333"
       steps="2"
       helper_size="0"
       apply_no_weight="true"
       apply_with_weight="true"
       only_selected="false" />
    <inkscape:path-effect
       effect="bspline"
       id="path-effect8815-3"
       is_visible="true"
       weight="33.333333"
       steps="2"
       helper_size="0"
       apply_no_weight="true"
       apply_with_weight="true"
       only_selected="false" />
    <inkscape:path-effect
       effect="bspline"
       id="path-effect8811-7"
       is_visible="true"
       weight="33.333333"
       steps="2"
       helper_size="0"
       apply_no_weight="true"
       apply_with_weight="true"
       only_selected="false" />
    <inkscape:path-effect
       effect="bspline"
       id="path-effect8807-2"
       is_visible="true"
       weight="33.333333"
       steps="2"
       helper_size="0"
       apply_no_weight="true"
       apply_with_weight="true"
       only_selected="false" />
    <inkscape:path-effect
       effect="bspline"
       id="path-effect8803-0"
       is_visible="true"
       weight="33.333333"
       steps="2"
       helper_size="0"
       apply_no_weight="true"
       apply_with_weight="true"
       only_selected="false" />
    <inkscape:path-effect
       effect="bspline"
       id="path-effect8803-5"
       is_visible="true"
       weight="33.333333"
       steps="2"
       helper_size="0"
       apply_no_weight="true"
       apply_with_weight="true"
       only_selected="false" />
    <inkscape:path-effect
       effect="bspline"
       id="path-effect8807-9"
       is_visible="true"
       weight="33.333333"
       steps="2"
       helper_size="0"
       apply_no_weight="true"
       apply_with_weight="true"
       only_selected="false" />
    <inkscape:path-effect
       effect="bspline"
       id="path-effect8811-0"
       is_visible="true"
       weight="33.333333"
       steps="2"
       helper_size="0"
       apply_no_weight="true"
       apply_with_weight="true"
       only_selected="false" />
    <inkscape:path-effect
       effect="bspline"
       id="path-effect8815-4"
       is_visible="true"
       weight="33.333333"
       steps="2"
       helper_size="0"
       apply_no_weight="true"
       apply_with_weight="true"
       only_selected="false" />
    <inkscape:path-effect
       effect="bspline"
       id="path-effect8819-5"
       is_visible="true"
       weight="33.333333"
       steps="2"
       helper_size="0"
       apply_no_weight="true"
       apply_with_weight="true"
       only_selected="false" />
    <inkscape:path-effect
       effect="bspline"
       id="path-effect8823-5"
       is_visible="true"
       weight="33.333333"
       steps="2"
       helper_size="0"
       apply_no_weight="true"
       apply_with_weight="true"
       only_selected="false" />
    <inkscape:path-effect
       effect="bspline"
       id="path-effect8827-7"
       is_visible="true"
       weight="33.333333"
       steps="2"
       helper_size="0"
       apply_no_weight="true"
       apply_with_weight="true"
       only_selected="false" />
    <inkscape:path-effect
       effect="bspline"
       id="path-effect8855-3"
       is_visible="true"
       weight="33.333333"
       steps="2"
       helper_size="0"
       apply_no_weight="true"
       apply_with_weight="true"
       only_selected="false" />
    <inkscape:path-effect
       effect="bspline"
       id="path-effect8859-7"
       is_visible="true"
       weight="33.333333"
       steps="2"
       helper_size="0"
       apply_no_weight="true"
       apply_with_weight="true"
       only_selected="false" />
    <inkscape:path-effect
       effect="bspline"
       id="path-effect9081-4"
       is_visible="true"
       weight="33.333333"
       steps="2"
       helper_size="0"
       apply_no_weight="true"
       apply_with_weight="true"
       only_selected="false" />
    <inkscape:path-effect
       effect="bspline"
       id="path-effect8585-2-3"
       is_visible="true"
       weight="33.333333"
       steps="2"
       helper_size="0"
       apply_no_weight="true"
       apply_with_weight="true"
       only_selected="false" />
    <inkscape:path-effect
       effect="bspline"
       id="path-effect8585-2-3-2"
       is_visible="true"
       weight="33.333333"
       steps="2"
       helper_size="0"
       apply_no_weight="true"
       apply_with_weight="true"
       only_selected="false" />
    <inkscape:path-effect
       effect="bspline"
       id="path-effect9081-4-2"
       is_visible="true"
       weight="33.333333"
       steps="2"
       helper_size="0"
       apply_no_weight="true"
       apply_with_weight="true"
       only_selected="false" />
    <inkscape:path-effect
       effect="bspline"
       id="path-effect8815-4-5"
       is_visible="true"
       weight="33.333333"
       steps="2"
       helper_size="0"
       apply_no_weight="true"
       apply_with_weight="true"
       only_selected="false" />
    <inkscape:path-effect
       effect="bspline"
       id="path-effect8807-9-3"
       is_visible="true"
       weight="33.333333"
       steps="2"
       helper_size="0"
       apply_no_weight="true"
       apply_with_weight="true"
       only_selected="false" />
    <inkscape:path-effect
       effect="bspline"
       id="path-effect8803-5-3"
       is_visible="true"
       weight="33.333333"
       steps="2"
       helper_size="0"
       apply_no_weight="true"
       apply_with_weight="true"
       only_selected="false" />
    <inkscape:path-effect
       effect="bspline"
       id="path-effect8803-5-3-1"
       is_visible="true"
       weight="33.333333"
       steps="2"
       helper_size="0"
       apply_no_weight="true"
       apply_with_weight="true"
       only_selected="false" />
    <inkscape:path-effect
       effect="bspline"
       id="path-effect8807-9-3-0"
       is_visible="true"
       weight="33.333333"
       steps="2"
       helper_size="0"
       apply_no_weight="true"
       apply_with_weight="true"
       only_selected="false" />
    <inkscape:path-effect
       effect="bspline"
       id="path-effect8815-4-5-0"
       is_visible="true"
       weight="33.333333"
       steps="2"
       helper_size="0"
       apply_no_weight="true"
       apply_with_weight="true"
       only_selected="false" />
    <inkscape:path-effect
       effect="bspline"
       id="path-effect9081-4-2-3"
       is_visible="true"
       weight="33.333333"
       steps="2"
       helper_size="0"
       apply_no_weight="true"
       apply_with_weight="true"
       only_selected="false" />
    <inkscape:path-effect
       effect="bspline"
       id="path-effect8803-5-3-1-1"
       is_visible="true"
       weight="33.333333"
       steps="2"
       helper_size="0"
       apply_no_weight="true"
       apply_with_weight="true"
       only_selected="false" />
    <inkscape:path-effect
       effect="bspline"
       id="path-effect8807-9-3-0-1"
       is_visible="true"
       weight="33.333333"
       steps="2"
       helper_size="0"
       apply_no_weight="true"
       apply_with_weight="true"
       only_selected="false" />
    <inkscape:path-effect
       effect="bspline"
       id="path-effect8815-4-5-0-7"
       is_visible="true"
       weight="33.333333"
       steps="2"
       helper_size="0"
       apply_no_weight="true"
       apply_with_weight="true"
       only_selected="false" />
    <inkscape:path-effect
       effect="bspline"
       id="path-effect9081-4-2-3-4"
       is_visible="true"
       weight="33.333333"
       steps="2"
       helper_size="0"
       apply_no_weight="true"
       apply_with_weight="true"
       only_selected="false" />
    <inkscape:path-effect
       effect="bspline"
       id="path-effect10005-0"
       is_visible="true"
       weight="33.333333"
       steps="2"
       helper_size="0"
       apply_no_weight="true"
       apply_with_weight="true"
       only_selected="false" />
  </defs>
  <metadata
     id="metadata5">
    <rdf:RDF>
      <cc:Work
         rdf:about="">
        <dc:format>image/svg+xml</dc:format>
        <dc:type
           rdf:resource="http://purl.org/dc/dcmitype/StillImage" />
        <dc:title></dc:title>
      </cc:Work>
    </rdf:RDF>
  </metadata>
  <g
     inkscape:groupmode="layer"
     id="layer3"
     inkscape:label="Inner Cut"
     style="display:inline">
    <path
       transform="translate(-30.792706,5.1222421)"
       style="display:inline;fill:none;fill-rule:evenodd;stroke:#0000ff;stroke-width:0.2;stroke-linecap:butt;stroke-linejoin:miter;stroke-miterlimit:4;stroke-dasharray:none;stroke-opacity:1"
       d="M 219.37733,106.76127 C 215.14389,106.76127 210.91135,106.76127 208.79434,104.64453 206.67733,102.52778 206.67733,98.294439 206.67733,94.061269 M 193.97282,94.068069 C 193.97282,98.301507 193.97282,102.53404 191.85608,104.65105 189.73933,106.76806 185.50599,106.76806 181.27282,106.76806 M 206.67733,94.061263 C 206.67733,94.061263 206.68733,52.804965 206.68733,52.804965 206.68733,52.804965 193.98733,52.804965 193.98733,52.804965 193.98733,52.804965 193.97323,94.068069 193.97323,94.068069 M 181.27323,106.76806 C 181.27323,106.76806 113.13021,106.77006 113.13021,106.77006 113.13021,106.77006 113.13021,119.47006 113.13021,119.47006 113.13021,119.47006 252.83021,119.47006 252.83021,119.47006 252.83021,119.47006 252.83021,106.77006 252.83021,106.77006 252.83021,106.77006 219.37774,106.76106 219.37774,106.76106"
       id="path10003-0" />
    <path
       style="display:inline;opacity:1;fill:none;fill-opacity:1;stroke:#0000ff;stroke-width:0.2;stroke-linecap:round;stroke-miterlimit:4;stroke-dasharray:none;stroke-opacity:1"
       d="M 130.48659,254.00842 H 138.41227 V 266.70842 H 130.48659 Z"
       id="rect10025"
       inkscape:connector-curvature="0" />
    <path
       style="display:inline;opacity:1;fill:none;fill-opacity:1;stroke:#0000ff;stroke-width:0.2;stroke-linecap:round;stroke-miterlimit:4;stroke-dasharray:none;stroke-opacity:1"
       d="M 189.61732,25.167182 V 37.867182 H 187.11732 V 25.167182 Z"
       id="rect10092-0"
       inkscape:connector-curvature="0" />
    <path
       style="display:inline;opacity:1;fill:none;fill-opacity:1;stroke:#0000ff;stroke-width:0.2;stroke-linecap:round;stroke-miterlimit:4;stroke-dasharray:none;stroke-opacity:1"
       d="M 105.1058,191.15341 H 113.1058 V 212.74341 H 105.1058 Z"
       id="rect10133-4"
       inkscape:connector-curvature="0" />
    <path
       style="display:inline;opacity:1;fill:none;fill-opacity:1;stroke:#0000ff;stroke-width:0.2;stroke-linecap:round;stroke-miterlimit:4;stroke-dasharray:none;stroke-opacity:1"
       d="M 127.31159,196.01842 H 130.48659 V 205.51842 H 127.31159 Z"
       id="rect10160-1" />
    <path
       style="display:inline;opacity:1;fill:none;fill-opacity:1;stroke:#0000ff;stroke-width:0.2;stroke-linecap:round;stroke-miterlimit:4;stroke-dasharray:none;stroke-opacity:1"
       d="M 164.49328,200.44341 H 144.99328 V 210.44341 H 164.49328 Z"
       id="rect10179"
       inkscape:connector-curvature="0" />
    <path
       style="display:inline;opacity:1;fill:none;fill-opacity:1;stroke:#0000ff;stroke-width:0.2;stroke-linecap:round;stroke-miterlimit:4;stroke-dasharray:none;stroke-opacity:1"
       d="M 25.961168,60.237425 21.961168,62.546826 17.961168,60.237425 17.961168,55.618623 21.961168,53.309222 25.961168,55.618623 Z"
       id="path10184" />
    <path
       transform="translate(-30.792706,5.1222421)"
       style="display:inline;opacity:1;fill:none;fill-opacity:1;stroke:#0000ff;stroke-width:0.2;stroke-linecap:round;stroke-miterlimit:4;stroke-dasharray:none;stroke-opacity:1"
       d="M 233.22691,212.48584 H 236.41642 V 225.18584 H 233.22691 Z"
       id="rect10082" />
    <path
       transform="translate(-30.792706,5.1222421)"
       style="display:inline;opacity:1;fill:none;fill-opacity:1;stroke:#0000ff;stroke-width:0.2;stroke-linecap:round;stroke-miterlimit:4;stroke-dasharray:none;stroke-opacity:1"
       d="M 221.24608,222.17343 C 224.84708,222.17343 227.74608,225.51843 227.74608,229.67343 V 242.69932 C 227.74608,246.85432 224.84708,250.19932 221.24608,250.19932 217.64508,250.19932 214.74608,246.85432 214.74608,242.69932 V 229.67343 C 214.74608,225.51843 217.64508,222.17343 221.24608,222.17343 Z"
       id="rect10085" />
    <path
       transform="translate(-30.792706,5.1222421)"
       style="display:inline;opacity:1;fill:none;fill-opacity:1;stroke:#0000ff;stroke-width:0.2;stroke-linecap:round;stroke-miterlimit:4;stroke-dasharray:none;stroke-opacity:1"
       d="M 220.53424,198.73402 H 233.23424 V 201.23402 H 220.53424 Z"
       id="rect10092"
       inkscape:connector-curvature="0" />
  </g>
  <g
     id="layer1"
     inkscape:groupmode="layer"
     inkscape:label="Outer Cut"
     transform="translate(-30.792707,5.1222421)"
     style="display:inline">
    <path
       transform="translate(1.25e-6)"
       inkscape:connector-curvature="0"
       id="path10465"
       style="display:inline;fill:none;stroke:#000000;stroke-width:0.2;stroke-miterlimit:4;stroke-dasharray:none"
       d="M 233.31435,293.33138 233.23625,288.86984 H 236.41641 V 282.86969 H 233.23625 V 276.44889 H 236.41641 V 270.44874 H 233.23625 V 264.02795 H 236.41641 V 258.02779 H 233.23625 V 251.607 H 236.41641 V 245.60736 H 233.23625 V 239.18657 H 236.41641 V 233.18642 H 233.23625 V 226.76562 H 236.41641 V 220.76547 H 233.23625 V 214.34467 H 236.41641 V 208.34452 H 233.23625 V 201.92373 H 236.41641 V 195.92409 H 233.23625 V 189.5033 H 236.41641 V 183.50315 H 233.23625 L 233.23607,179.04137 M 201.49607,179.04137 201.57437,293.33138 M 228.77441,182.22137 H 222.77441 V 179.04137 M 215.13274,179.04137 V 182.22137 M 215.13274,182.22137 H 209.13274 V 179.04137 M 233.23607,179.04137 C 231.74912,179.04111 230.2619,179.04111 228.77441,179.04137 M 222.77441,179.04137 C 220.22745,179.04111 217.68023,179.04111 215.13274,179.04137 M 228.77441,182.22137 C 228.77468,181.16111 228.77468,180.10111 228.77441,179.04137 M 209.13274,179.04137 C 206.58745,179.04111 204.04189,179.04111 201.49607,179.04137 M 228.85269,290.15138 H 222.85269 V 293.33138 M 215.21102,293.33138 V 290.15138 M 215.21102,290.15138 H 209.21102 V 293.33138 M 233.31435,293.33138 C 231.8274,293.33164 230.34018,293.33164 228.85269,293.33138 M 222.85269,293.33138 C 220.30573,293.33164 217.75851,293.33164 215.21102,293.33138 M 228.85269,290.15138 C 228.85296,291.21164 228.85296,292.27164 228.85269,293.33138 M 209.21102,293.33138 C 206.66573,293.33164 204.12017,293.33164 201.57435,293.33138" />
    <path
       transform="translate(1.25e-6)"
       id="path10443"
       style="display:inline;fill:none;stroke:#000000;stroke-width:0.2;stroke-miterlimit:4;stroke-dasharray:none"
       d="M 37.6481,317.29995 H 40.8281 M 40.8281,317.29995 V 312.83829 H 37.6481 M 37.6481,306.83829 H 40.8281 M 40.8281,306.83829 V 299.19662 H 37.6481 M 37.6481,293.19662 H 40.8281 M 40.8281,293.19662 V 285.61666 M 40.8281,285.61667 43.8331,285.55997 V 285.55997 H 49.97476 V 285.55997 H 55.97476 V 285.55997 H 62.11643 V 285.55997 H 68.116434 V 285.55997 H 74.258104 V 285.55997 H 80.258104 V 285.55997 H 86.399764 V 285.55997 H 92.399764 V 285.55997 H 98.541434 V 285.55997 H 104.54143 V 285.55997 H 107.5031 M 107.5031,285.55997 V 293.19662 H 110.6831 V 299.19662 H 107.5031 V 306.83829 H 110.6831 V 312.83829 H 107.5031 V 317.29995 M 107.5031,317.29995 H 104.54143 V 320.47995 H 98.541434 V 317.29995 H 92.399764 V 320.47995 H 86.399764 V 317.29995 H 80.258104 V 320.47995 H 74.258104 V 317.29995 H 68.116434 V 320.47995 H 62.11643 V 317.29995 H 55.97476 V 320.47995 H 49.97476 V 317.29995 H 43.8331 V 320.47995 H 37.8331 V 317.29995 H 37.6481 M 37.64788,299.22578 37.64786,293.1454 M 37.64802,312.85653 37.64794,306.77615"
       inkscape:connector-curvature="0" />
    <path
       id="path10421"
       style="display:inline;fill:none;stroke:#000000;stroke-width:0.2;stroke-miterlimit:4;stroke-dasharray:none"
       d="M 110.68286,281.32165 H 107.50286 M 107.50286,281.32165 V 276.85999 H 110.68286 M 110.68286,270.85999 H 107.50286 M 107.50286,270.85999 V 263.21832 H 110.68286 M 110.68286,257.21832 H 107.50286 M 107.50286,257.21832 V 249.63836 M 107.50286,249.63837 104.49786,249.58167 V 249.58167 H 98.356201 V 249.58167 H 92.356201 V 249.58167 H 86.214531 V 249.58167 H 80.214527 V 249.58167 H 74.072857 V 249.58167 H 68.072857 V 249.58167 H 61.931197 V 249.58167 H 55.931197 V 249.58167 H 49.789527 V 249.58167 H 43.789531 V 249.58167 H 40.827861 M 40.827861,249.58167 V 257.21832 H 37.647861 V 263.21832 H 40.827861 V 270.85999 H 37.647861 V 276.85999 H 40.827861 V 281.32165 M 40.827861,281.32165 H 43.789531 V 284.50165 H 49.789527 V 281.32165 H 55.931197 V 284.50165 H 61.931197 V 281.32165 H 68.072857 V 284.50165 H 74.072857 V 281.32165 H 80.214527 V 284.50165 H 86.214531 V 281.32165 H 92.356201 V 284.50165 H 98.356201 V 281.32165 H 104.49786 V 284.50165 H 110.49786 V 281.32165 H 110.68286 M 110.68308,263.24748 110.6831,257.1671 M 110.68294,276.87823 110.68302,270.79785"
       inkscape:connector-curvature="0" />
    <path
       id="path10381"
       style="display:inline;fill:none;stroke:#000000;stroke-width:0.2;stroke-miterlimit:4;stroke-dasharray:none"
       d="M 129.0102,216.78333 H 122.58936 V 213.60333 H 116.58936 V 216.78333 H 110.16853 V 213.60333 H 104.16853 V 216.78333 H 97.747692 V 213.60333 H 91.747692 V 216.78333 H 85.326858 V 213.60333 H 79.326858 V 216.78333 H 72.906025 V 213.60333 H 66.906025 V 216.78333 H 60.485196 V 213.60333 H 54.485196 V 216.78333 H 48.064366 V 213.60333 H 42.064366 V 216.78333 H 36.925196 M 36.925196,248.52333 H 42.064366 V 248.52333 H 48.064366 V 248.52333 H 54.485196 V 248.52333 H 60.485196 V 248.52333 H 66.906025 V 248.52333 H 72.906025 V 248.52333 H 79.326858 V 248.52333 H 85.326858 V 248.52333 H 91.747692 V 248.52333 H 97.747692 V 248.52333 H 104.16853 V 248.52333 H 110.16853 V 248.52333 H 116.58936 V 248.52333 H 122.58936 V 248.52333 H 129.0102 M 129.0102,245.34833 V 240.88666 H 125.8302 V 234.88666 H 129.0102 V 227.24499 H 125.8302 V 221.24499 H 129.0102 V 216.78333 M 40.105196,221.24499 V 227.24499 H 36.925196 M 36.925196,234.88666 H 40.105196 M 40.105196,234.88666 V 240.88666 H 36.925196 M 36.925196,216.78333 C 36.924936,218.27028 36.924936,219.7575 36.925196,221.24499 M 36.925196,227.24499 C 36.924936,229.79195 36.924936,232.33917 36.925196,234.88666 M 129.0102,240.88666 C 129.00993,243.43195 129.00993,245.97751 129.0102,248.52333 M 40.105196,221.24499 C 39.044936,221.24472 37.984936,221.24472 36.925196,221.24499 M 36.925196,240.88666 C 36.924936,243.43195 36.924936,245.97751 36.925196,248.52333"
       inkscape:connector-curvature="0" />
    <path
       id="path10379"
       style="display:inline;fill:none;stroke:#000000;stroke-width:0.2;stroke-miterlimit:4;stroke-dasharray:none"
       d="M 328.97281,216.78333 H 323.83365 V 213.60333 H 317.83365 V 216.78333 H 311.41282 V 213.60333 H 305.41282 V 216.78333 H 298.99198 V 213.60333 H 292.99198 V 216.78333 H 286.57115 V 213.60333 H 280.57115 V 216.78333 H 274.15032 V 213.60333 H 268.15032 V 216.78333 H 261.72948 V 213.60333 H 255.72948 V 216.78333 H 249.30865 V 213.60333 H 243.30865 V 216.78333 H 236.88781 M 236.88781,216.78333 V 221.24499 H 240.06781 V 227.24499 H 236.88781 V 234.88666 H 240.06781 V 240.88666 H 236.88781 V 248.52333 M 236.88781,248.52333 H 243.30865 V 248.52333 H 249.30865 V 248.52333 H 255.72948 V 248.52333 H 261.72948 V 248.52333 H 268.15032 V 248.52333 H 274.15032 V 248.52333 H 280.57115 V 248.52333 H 286.57115 V 248.52333 H 292.99198 V 248.52333 H 298.99198 V 248.52333 H 305.41282 V 248.52333 H 311.41282 V 248.52333 H 317.83365 V 248.52333 H 323.83365 V 248.52333 H 328.97281 M 325.79281,227.24499 V 221.24499 H 328.97281 M 325.79281,240.88666 V 234.88666 H 328.97281 M 328.97281,221.24499 C 328.97255,219.7575 328.97255,218.27028 328.97281,216.78333 M 328.97281,248.52333 C 328.98991,245.97751 329.00731,243.43195 329.02501,240.88666 M 325.79281,240.88666 C 326.86995,240.88639 327.94734,240.88639 329.02501,240.88666 M 328.97281,234.88666 C 328.98991,232.33917 329.00731,229.79195 329.02501,227.24499 M 325.79281,227.24499 C 326.86995,227.24472 327.94734,227.24472 329.02501,227.24499"
       inkscape:connector-curvature="0" />
    <path
       transform="translate(1.25e-6)"
       id="path10359"
       style="display:inline;fill:none;stroke:#000000;stroke-width:0.2;stroke-miterlimit:4;stroke-dasharray:none"
       d="M 129.53922,182.22117 H 137.17602 V 179.04117 H 143.17602 V 182.22117 H 150.81769 V 179.04117 H 156.81769 V 182.22117 H 161.27935 M 161.27935,182.22117 V 185.18284 H 164.45935 V 191.18284 H 161.27935 V 197.32451 H 164.45935 V 203.32451 H 161.27935 V 209.46617 H 164.45935 V 215.46617 H 161.27935 V 221.60784 H 164.45935 V 227.60784 H 161.27935 V 233.74951 H 164.45935 V 239.74951 H 161.27935 V 245.89117 H 164.45935 V 251.89117 H 161.27935 V 258.03284 H 164.45935 V 264.03284 H 161.27935 V 270.17451 H 164.45935 V 276.17451 H 161.27935 V 282.31617 H 164.45935 V 288.31617 H 161.27935 V 294.45784 H 164.45935 V 300.45784 H 161.27935 V 306.59951 H 164.45935 V 312.59951 H 161.27935 V 315.56117 M 161.27935,315.56117 H 156.81769 V 318.74117 H 150.81769 V 315.56117 H 143.17602 V 318.74117 H 137.17602 V 315.56117 H 129.53922 M 129.53922,315.56117 V 312.59951 312.59951 306.59951 306.59951 300.45784 300.45784 294.45784 294.45784 288.31617 288.31617 282.31617 282.31617 276.17451 276.17451 270.17451 270.17451 264.03284 264.03284 258.03284 258.03284 251.89117 251.89117 245.89117 245.89117 239.74951 239.74951 233.74951 233.74951 227.60784 227.60784 221.60784 221.60784 215.46617 215.46617 209.46617 209.46617 203.32451 203.32451 197.32451 197.32451 191.18284 191.18284 185.18284 185.18284 182.22117 M 129.54852,210.80117 H 137.17598 V 207.62117 H 129.54852 M 143.17598,210.80117 H 150.81765 V 207.62117 H 143.17598 V 210.80117 M 156.81765,210.80117 H 161.27931 V 207.62117 H 156.81765 V 210.80117 M 129.54852,248.88618 H 137.17598 V 245.70618 H 129.54852 M 143.17598,248.88618 H 150.81765 V 245.70618 H 143.17598 V 248.88618 M 156.81765,248.88618 H 161.27931 V 245.70618 H 156.81765 V 248.88618"
       inkscape:connector-curvature="0" />
    <path
       id="path10351"
       style="display:inline;fill:none;stroke:#000000;stroke-width:0.2;stroke-miterlimit:4;stroke-dasharray:none"
       d="M 200.94305,182.22117 H 193.30624 V 179.04117 H 187.30624 V 182.22117 H 179.66458 V 179.04117 H 173.66458 V 182.22117 H 169.20291 M 169.20291,182.22117 V 185.18284 H 166.02291 V 191.18284 H 169.20291 V 197.32451 H 166.02291 V 203.32451 H 169.20291 V 209.46617 H 166.02291 V 215.46617 H 169.20291 V 221.60784 H 166.02291 V 227.60784 H 169.20291 V 233.74951 H 166.02291 V 239.74951 H 169.20291 V 245.89117 H 166.02291 V 251.89117 H 169.20291 V 258.03284 H 166.02291 V 264.03284 H 169.20291 V 270.17451 H 166.02291 V 276.17451 H 169.20291 V 282.31617 H 166.02291 V 288.31617 H 169.20291 V 294.45784 H 166.02291 V 300.45784 H 169.20291 V 306.59951 H 166.02291 V 312.59951 H 169.20291 V 315.56117 M 169.20291,315.56117 H 173.66458 V 318.74117 H 179.66458 V 315.56117 H 187.30624 V 318.74117 H 193.30624 V 315.56117 H 200.94305 M 200.94305,315.56117 V 312.59951 312.59951 306.59951 306.59951 300.45784 300.45784 294.45784 294.45784 288.31617 288.31617 282.31617 282.31617 276.17451 276.17451 270.17451 270.17451 264.03284 264.03284 258.03284 258.03284 251.89117 251.89117 245.89117 245.89117 239.74951 239.74951 233.74951 233.74951 227.60784 227.60784 221.60784 221.60784 215.46617 215.46617 209.46617 209.46617 203.32451 203.32451 197.32451 197.32451 191.18284 191.18284 185.18284 185.18284 182.22117 M 200.9431,210.80117 H 193.31563 V 207.62117 H 200.9431 M 187.31563,210.80117 H 179.67397 V 207.62117 H 187.31563 V 210.80117 M 173.67397,210.80117 H 169.2123 V 207.62117 H 173.67397 V 210.80117 M 200.9431,248.88618 H 193.31563 V 245.70618 H 200.9431 M 187.31563,248.88618 H 179.67397 V 245.70618 H 187.31563 V 248.88618 M 173.67397,248.88618 H 169.2123 V 245.70618 H 173.67397 V 248.88618"
       inkscape:connector-curvature="0" />
    <path
       transform="translate(1.25e-6)"
       id="path10311"
       style="display:inline;fill:none;stroke:#000000;stroke-width:0.2;stroke-miterlimit:4;stroke-dasharray:none"
       d="M 36.925,180.805 H 43.34584 V 177.625 H 49.34584 V 180.805 H 55.76667 V 177.625 H 61.76667 V 180.805 H 68.187504 V 177.625 H 74.187504 V 180.805 H 80.608338 V 177.625 H 86.608338 V 180.805 H 93.029171 V 177.625 H 99.029171 V 180.805 H 105.45 V 177.625 H 111.45 V 180.805 H 117.87083 V 177.625 H 123.87083 V 180.805 H 129.01 M 129.01,212.545 H 123.87083 V 212.545 H 117.87083 V 212.545 H 111.45 V 212.545 H 105.45 V 212.545 H 99.029171 V 212.545 H 93.029171 V 212.545 H 86.608338 V 212.545 H 80.608338 V 212.545 H 74.187504 V 212.545 H 68.187504 V 212.545 H 61.76667 V 212.545 H 55.76667 V 212.545 H 49.34584 V 212.545 H 43.34584 V 212.545 H 36.925 M 36.925,209.37 V 204.90833 H 40.105 V 198.90833 H 36.925 V 191.26666 H 40.105 V 185.26666 H 36.925 V 180.805 M 125.83,185.26666 V 191.26666 H 129.01 M 129.01,198.90833 H 125.83 M 125.83,198.90833 V 204.90833 H 129.01 M 129.01,180.805 C 129.01026,182.29195 129.01026,183.77917 129.01,185.26666 M 129.01,191.26666 C 129.01026,193.81362 129.01026,196.36084 129.01,198.90833 M 125.83,185.26666 C 126.89026,185.26639 127.95026,185.26639 129.01,185.26666 M 129.01005,204.90833 C 129.01031,207.45362 129.01031,209.99918 129.01005,212.545 M 36.925,204.90833 C 36.92527,207.45362 36.92527,209.99918 36.925,212.545"
       inkscape:connector-curvature="0" />
    <path
       transform="translate(1.25e-6)"
       id="path10309"
       style="display:inline;fill:none;stroke:#000000;stroke-width:0.2;stroke-miterlimit:4;stroke-dasharray:none"
       d="M 236.94001,180.805 H 242.07917 V 177.625 H 248.07917 V 180.805 H 254.5 V 177.625 H 260.5 V 180.805 H 266.92084 V 177.625 H 272.92084 V 180.805 H 279.34167 V 177.625 H 285.34167 V 180.805 H 291.7625 V 177.625 H 297.7625 V 180.805 H 304.18334 V 177.625 H 310.18334 V 180.805 H 316.60417 V 177.625 H 322.60417 V 180.805 H 329.02501 M 329.02501,180.805 V 185.26666 H 325.84501 V 191.26666 H 329.02501 V 198.90833 H 325.84501 V 204.90833 H 329.02501 V 212.545 M 329.02501,212.545 H 322.60417 V 212.545 H 316.60417 V 212.545 H 310.18334 V 212.545 H 304.18334 V 212.545 H 297.7625 V 212.545 H 291.7625 V 212.545 H 285.34167 V 212.545 H 279.34167 V 212.545 H 272.92084 V 212.545 H 266.92084 V 212.545 H 260.5 V 212.545 H 254.5 V 212.545 H 248.07917 V 212.545 H 242.07917 V 212.545 H 236.94001 M 240.12001,191.26666 V 185.26666 H 236.94001 M 240.12001,204.90833 V 198.90833 H 236.94001 M 236.94001,185.26666 C 236.94027,183.77917 236.94027,182.29195 236.94001,180.805 M 236.94001,212.545 C 236.92291,209.99918 236.90551,207.45362 236.88781,204.90833 M 240.12001,204.90833 C 239.04287,204.90806 237.96548,204.90806 236.88781,204.90833 M 236.94001,198.90833 C 236.92291,196.36084 236.90551,193.81362 236.88781,191.26666 M 240.12001,191.26666 C 239.04287,191.26639 237.96548,191.26639 236.88781,191.26666"
       inkscape:connector-curvature="0" />
    <path
       transform="translate(1.25e-6)"
       id="path10273"
       style="display:inline;fill:none;stroke:#000000;stroke-width:0.2;stroke-miterlimit:4;stroke-dasharray:none"
       d="M 236.94001,8.64167 V 14.64167 H 240.12001 V 8.64167 H 236.94001 M 236.94001,22.28333 V 28.28333 H 240.12001 V 22.28333 H 236.94001 M 125.83,8.64167 V 14.64167 H 129.01 V 8.64167 H 125.83 M 125.83,22.28333 V 28.28333 H 129.01 V 22.28333 H 125.83 M 36.92516,1.00476 V 4.17976 32.74494 H 43.34595 V 35.92511 H 49.34559 V 32.74494 H 55.7669 V 35.92511 H 61.76653 V 32.74494 H 68.187331 V 35.92511 H 74.18748 V 32.74494 H 80.608277 V 35.92511 H 86.608427 V 32.74494 H 93.029224 V 35.92511 H 99.029376 V 32.74494 H 105.45017 V 35.92511 H 111.44981 V 32.74494 H 117.8706 V 35.92511 H 123.87075 V 32.74494 H 130.29155 V 35.92511 H 136.2917 V 32.74494 H 142.7125 V 35.92511 H 148.71265 V 32.74494 H 155.13344 V 35.92511 H 161.13359 V 32.74494 H 167.55439 V 35.92511 H 173.55403 V 32.74494 H 179.97482 V 35.92511 H 185.97497 V 32.74494 H 192.39577 V 35.92511 H 198.39592 V 32.74494 H 204.81672 V 35.92511 H 210.81686 V 32.74494 H 217.23766 V 35.92511 H 223.2373 V 32.74494 H 229.65809 V 35.92511 H 235.65824 V 32.74494 H 242.07904 V 35.92511 H 248.07919 V 32.74494 H 254.49999 V 35.92511 H 260.50013 V 32.74494 H 266.92094 V 35.92511 H 272.92108 V 32.74494 H 279.34188 V 35.92511 H 285.34152 V 32.74494 H 291.76232 V 35.92511 H 297.76246 V 32.74494 H 304.18327 V 35.92511 H 310.18341 V 32.74494 H 316.60421 V 35.92511 H 322.60435 V 32.74494 H 329.02515 V 4.17976 1.00476 Z"
       inkscape:connector-curvature="0" />
    <path
       transform="translate(1.25e-6)"
       id="path8098-8-12-3-3-4-2-5"
       style="display:inline;fill:none;stroke:#000000;stroke-width:0.2;stroke-miterlimit:4;stroke-dasharray:none"
       d="M 142.7125,68.684999 H 148.7125 V 65.504999 H 142.7125 V 68.684999 M 155.13334,68.684999 H 161.13334 V 65.504999 H 155.13334 V 68.684999 M 167.55417,68.684999 H 173.55417 V 65.504999 H 167.55417 V 68.684999 M 179.975,68.684999 H 185.975 V 65.504999 H 179.975 V 68.684999 M 192.39584,68.684999 H 198.39584 V 65.504999 H 192.39584 V 68.684999 M 204.81667,68.684999 H 210.81667 V 65.504999 H 204.81667 V 68.684999 M 217.2375,68.684999 H 223.2375 V 65.504999 H 217.2375 V 68.684999 M 36.925,36.925 H 43.34584 V 40.105 H 49.34584 V 36.925 H 55.76667 V 40.105 H 61.76667 V 36.925 H 68.187504 V 40.105 H 74.187504 V 36.925 H 80.608338 V 40.105 H 86.608338 V 36.925 H 93.029171 V 40.105 H 99.029171 V 36.925 H 105.45 V 40.105 H 111.45 V 36.925 H 117.87083 V 40.105 H 123.87083 V 36.925 H 130.29167 V 40.105 H 136.29167 V 36.925 H 142.7125 V 40.105 H 148.7125 V 36.925 H 155.13334 V 40.105 H 161.13334 V 36.925 H 167.55417 V 40.105 H 173.55417 V 36.925 H 179.975 V 40.105 H 185.975 V 36.925 H 192.39584 V 40.105 H 198.39584 V 36.925 H 204.81667 V 40.105 H 210.81667 V 36.925 H 217.2375 V 40.105 H 223.2375 V 36.925 H 229.65834 V 40.105 H 235.65834 V 36.925 H 242.07917 V 40.105 H 248.07917 V 36.925 H 254.5 V 40.105 H 260.5 V 36.925 H 266.92084 V 40.105 H 272.92084 V 36.925 H 279.34167 V 40.105 H 285.34167 V 36.925 H 291.7625 V 40.105 H 297.7625 V 36.925 H 304.18334 V 40.105 H 310.18334 V 36.925 H 316.60417 V 40.105 H 322.60417 V 36.925 H 329.02501 M 329.02501,36.925 V 43.066666 H 325.84501 V 49.066666 H 329.02501 V 55.208332 H 325.84501 V 61.208332 H 329.02501 V 67.349998 H 325.84501 V 73.349998 H 329.02501 V 79.491665 H 325.84501 V 85.491665 H 329.02501 V 91.633331 H 325.84501 V 97.633331 H 329.02501 V 103.775 H 325.84501 V 109.775 H 329.02501 V 115.91666 H 325.84501 V 121.91666 H 329.02501 V 128.05833 H 325.84501 V 134.05833 H 329.02501 V 140.2 H 325.84501 V 146.2 H 329.02501 V 152.34166 H 325.84501 V 158.34166 H 329.02501 V 164.48333 H 325.84501 V 170.48333 H 329.02501 V 176.625 M 130.29167,176.625 H 123.87083 V 173.445 H 117.87083 V 176.625 H 111.45 V 173.445 H 105.45 V 176.625 H 99.029171 V 173.445 H 93.029171 V 176.625 H 86.608338 V 173.445 H 80.608338 V 176.625 H 74.187504 V 173.445 H 68.187504 V 176.625 H 61.76667 V 173.445 H 55.76667 V 176.625 H 49.34584 V 173.445 H 43.34584 V 176.625 H 36.925 M 329.02501,176.625 H 322.60417 V 173.445 H 316.60417 V 176.625 H 310.18334 V 173.445 H 304.18334 V 176.625 H 297.7625 V 173.445 H 291.7625 V 176.625 H 285.34167 V 173.445 H 279.34167 V 176.625 H 272.92084 V 173.445 H 266.92084 V 176.625 H 260.5 V 173.445 H 254.5 V 176.625 H 248.07917 V 173.445 H 242.07917 V 176.625 H 235.65834 M 36.925,176.625 V 170.48333 H 40.105 V 164.48333 H 36.925 V 158.34166 H 40.105 V 152.34166 H 36.925 V 146.2 H 40.105 V 140.2 H 36.925 V 134.05833 H 40.105 V 128.05833 H 36.925 V 121.91666 H 40.105 V 115.91666 H 36.925 V 109.775 H 40.105 V 103.775 H 36.925 M 43.34584,106.77 H 49.34584 V 103.59 H 43.34584 V 106.77 M 55.76667,106.77 H 61.76667 V 103.59 H 55.76667 V 106.77 M 68.187504,106.77 H 74.187504 V 103.59 H 68.187504 V 106.77 M 80.608338,106.77 H 86.608338 V 103.59 H 80.608338 V 106.77 M 93.029171,106.77 H 99.029171 V 103.59 H 93.029171 V 106.77 M 105.45,106.77 H 111.45 V 103.59 H 105.45 V 106.77 M 117.87083,106.77 H 123.87083 V 103.59 H 117.87083 V 106.77 M 130.29167,68.684999 H 136.29167 V 65.504999 H 130.29167 V 68.684999 M 229.65834,68.684999 H 235.65834 V 65.504999 H 229.65834 V 68.684999 M 242.07917,106.77 H 248.07917 V 103.59 H 242.07917 V 106.77 M 254.5,106.77 H 260.5 V 103.59 H 254.5 V 106.77 M 266.92084,106.77 H 272.92084 V 103.59 H 266.92084 V 106.77 M 279.34167,106.77 H 285.34167 V 103.59 H 279.34167 V 106.77 M 291.7625,106.77 H 297.7625 V 103.59 H 291.7625 V 106.77 M 304.18334,106.77 H 310.18334 V 103.59 H 304.18334 V 106.77 M 316.60417,106.77 H 322.60417 V 103.59 H 316.60417 V 106.77 M 236.94001,43.066666 V 49.066666 H 240.12001 V 43.066666 H 236.94001 M 236.94001,55.208332 V 61.208332 H 240.12001 V 55.208332 H 236.94001 M 236.94001,67.349998 V 73.349998 H 240.12001 V 67.349998 H 236.94001 M 236.94001,79.491665 V 85.491665 H 240.12001 V 79.491665 H 236.94001 M 236.94001,91.633331 V 97.633331 H 240.12001 V 91.633331 H 236.94001 M 236.94001,103.775 V 109.775 H 240.12001 V 103.775 H 236.94001 M 236.94001,115.91666 V 121.91666 H 240.12001 V 115.91666 H 236.94001 M 236.94001,128.05833 V 134.05833 H 240.12001 V 128.05833 H 236.94001 M 236.94001,140.2 V 146.2 H 240.12001 V 140.2 H 236.94001 M 236.94001,152.34166 V 158.34166 H 240.12001 V 152.34166 H 236.94001 M 236.94001,164.48333 V 170.48333 H 240.12001 V 164.48333 H 236.94001 M 125.83,43.066666 V 49.066666 H 129.01 V 43.066666 H 125.83 M 125.83,55.208332 V 61.208332 H 129.01 V 55.208332 H 125.83 M 125.83,67.349998 V 73.349998 H 129.01 V 67.349998 H 125.83 M 125.83,79.491665 V 85.491665 H 129.01 V 79.491665 H 125.83 M 125.83,91.633331 V 97.633331 H 129.01 V 91.633331 H 125.83 M 125.83,103.775 V 109.775 H 129.01 V 103.775 H 125.83 M 125.83,115.91666 V 121.91666 H 129.01 V 115.91666 H 125.83 M 125.83,128.05833 V 134.05833 H 129.01 V 128.05833 H 125.83 M 125.83,140.2 V 146.2 H 129.01 V 140.2 H 125.83 M 125.83,152.34166 V 158.34166 H 129.01 V 152.34166 H 125.83 M 125.83,164.48333 V 170.48333 H 129.01 V 164.48333 H 125.83 M 130.29167,176.625 C 165.41415,176.62473 200.53638,176.62473 235.65834,176.625 M 36.925,36.925 C 36.92527,59.208066 36.92527,81.491401 36.925,103.775"
       inkscape:connector-curvature="0" />
  </g>
</svg>
