  0
SECTION
  2
HEADER
  9
$ACADVER
  1
AC1014
  9
$HANDSEED
  5
FFFF
  9
$MEASUREMENT
 70
     1
  0
ENDSEC
  0
SECTION
  2
TABLES
  0
TABLE
  2
VPORT
  5
8
330
0
100
AcDbSymbolTable
 70
     4
  0
VPORT
  5
2E
330
8
100
AcDbSymbolTableRecord
100
AcDbViewportTableRecord
  2
*ACTIVE
 70
     0
 10
0.0
 20
0.0
 11
1.0
 21
1.0
 12
210.0
 22
148.5
 13
0.0
 23
0.0
 14
10.0
 24
10.0
 15
10.0
 25
10.0
 16
0.0
 26
0.0
 36
1.0
 17
0.0
 27
0.0
 37
0.0
 40
341.0
 41
1.24
 42
50.0
 43
0.0
 44
0.0
 50
0.0
 51
0.0
 71
     0
 72
   100
 73
     1
 74
     3
 75
     0
 76
     0
 77
     0
 78
     0
  0
ENDTAB
  0
TABLE
  2
LTYPE
  5
5
330
0
100
AcDbSymbolTable
 70
     1
  0
LTYPE
  5
14
330
5
100
AcDbSymbolTableRecord
100
AcDbLinetypeTableRecord
  2
BYBLOCK
 70
     0
  3

 72
    65
 73
     0
 40
0.0
  0
LTYPE
  5
15
330
5
100
AcDbSymbolTableRecord
100
AcDbLinetypeTableRecord
  2
BYLAYER
 70
     0
  3

 72
    65
 73
     0
 40
0.0
  0
LTYPE
  5
16
330
5
100
AcDbSymbolTableRecord
100
AcDbLinetypeTableRecord
  2
CONTINUOUS
 70
     0
  3
Solid line
 72
    65
 73
     0
 40
0.0
  0
ENDTAB
  0
TABLE
  2
LAYER
  5
2
100
AcDbSymbolTable
 70
3
  0
LAYER
  5
50
100
AcDbSymbolTableRecord
100
AcDbLayerTableRecord
  2
0
 70
0
  6
CONTINUOUS
  0
LAYER
  5
51
100
AcDbSymbolTableRecord
100
AcDbLayerTableRecord
  2
Inner_Cut
 70
0
  6
CONTINUOUS
  0
LAYER
  5
52
100
AcDbSymbolTableRecord
100
AcDbLayerTableRecord
  2
Outer_Cut
 70
0
  6
CONTINUOUS
  0
ENDTAB
  0
TABLE
  2
STYLE
  5
3
330
0
100
AcDbSymbolTable
 70
     1
  0
STYLE
  5
11
330
3
100
AcDbSymbolTableRecord
100
AcDbTextStyleTableRecord
  2
STANDARD
 70
     0
 40
0.0
 41
1.0
 50
0.0
 71
     0
 42
2.5
  3
txt
  4

  0
ENDTAB
  0
TABLE
  2
VIEW
  5
6
330
0
100
AcDbSymbolTable
 70
     0
  0
ENDTAB
  0
TABLE
  2
UCS
  5
7
330
0
100
AcDbSymbolTable
 70
     0
  0
ENDTAB
  0
TABLE
  2
APPID
  5
9
330
0
100
AcDbSymbolTable
 70
     2
  0
APPID
  5
12
330
9
100
AcDbSymbolTableRecord
100
AcDbRegAppTableRecord
  2
ACAD
 70
     0
  0
ENDTAB
  0
TABLE
  2
DIMSTYLE
  5
A
330
0
100
AcDbSymbolTable
 70
     1
  0
DIMSTYLE
105
27
330
A
100
AcDbSymbolTableRecord
100
AcDbDimStyleTableRecord
  2
ISO-25
 70
     0
  3

  4

  5

  6

  7

 40
1.0
 41
2.5
 42
0.625
 43
3.75
 44
1.25
 45
0.0
 46
0.0
 47
0.0
 48
0.0
140
2.5
141
2.5
142
0.0
143
0.03937007874016
144
1.0
145
0.0
146
1.0
147
0.625
 71
     0
 72
     0
 73
     0
 74
     0
 75
     0
 76
     0
 77
     1
 78
     8
170
     0
171
     3
172
     1
173
     0
174
     0
175
     0
176
     0
177
     0
178
     0
270
     2
271
     2
272
     2
273
     2
274
     3
340
11
275
     0
280
     0
281
     0
282
     0
283
     0
284
     8
285
     0
286
     0
287
     3
288
     0
  0
ENDTAB
  0
TABLE
  2
BLOCK_RECORD
  5
1
330
0
100
AcDbSymbolTable
 70
     1
  0
BLOCK_RECORD
  5
1F
330
1
100
AcDbSymbolTableRecord
100
AcDbBlockTableRecord
  2
*MODEL_SPACE
  0
BLOCK_RECORD
  5
1B
330
1
100
AcDbSymbolTableRecord
100
AcDbBlockTableRecord
  2
*PAPER_SPACE
  0
ENDTAB
  0
ENDSEC
  0
SECTION
  2
BLOCKS
  0
BLOCK
  5
20
330
1F
100
AcDbEntity
  8
0
100
AcDbBlockBegin
  2
*MODEL_SPACE
 70
     0
 10
0.0
 20
0.0
 30
0.0
  3
*MODEL_SPACE
  1

  0
ENDBLK
  5
21
330
1F
100
AcDbEntity
  8
0
100
AcDbBlockEnd
  0
BLOCK
  5
1C
330
1B
100
AcDbEntity
 67
     1
  8
0
100
AcDbBlockBegin
  2
*PAPER_SPACE
  1

  0
ENDBLK
  5
1D
330
1B
100
AcDbEntity
 67
     1
  8
0
100
AcDbBlockEnd
  0
ENDSEC
  0
SECTION
  2
ENTITIES
  0
SPLINE
  5
100
100
AcDbEntity
  8
Inner_Cut
 62
5
100
AcDbSpline
 70
8
 71
3
 72
8
 73
4
 74
0
 40
0
 40
0
 40
0
 40
0
 40
1
 40
1
 40
1
 40
1
 10
188.584624
 20
216.670688
 30
0.0
 10
184.351184
 20
216.670688
 30
0.0
 10
180.118644
 20
216.670688
 30
0.0
 10
178.001634
 20
218.787428
 30
0.0
  0
SPLINE
  5
101
100
AcDbEntity
  8
Inner_Cut
 62
5
100
AcDbSpline
 70
8
 71
3
 72
8
 73
4
 74
0
 40
0
 40
0
 40
0
 40
0
 40
1
 40
1
 40
1
 40
1
 10
178.001634
 20
218.787428
 30
0.0
 10
175.884624
 20
220.904178
 30
0.0
 10
175.884624
 20
225.137519
 30
0.0
 10
175.884624
 20
229.370689
 30
0.0
  0
SPLINE
  5
102
100
AcDbEntity
  8
Inner_Cut
 62
5
100
AcDbSpline
 70
8
 71
3
 72
8
 73
4
 74
0
 40
0
 40
0
 40
0
 40
0
 40
1
 40
1
 40
1
 40
1
 10
163.180114
 20
229.363889
 30
0.0
 10
163.180114
 20
225.130451
 30
0.0
 10
163.180114
 20
220.897918
 30
0.0
 10
161.063374
 20
218.780908
 30
0.0
  0
SPLINE
  5
103
100
AcDbEntity
  8
Inner_Cut
 62
5
100
AcDbSpline
 70
8
 71
3
 72
8
 73
4
 74
0
 40
0
 40
0
 40
0
 40
0
 40
1
 40
1
 40
1
 40
1
 10
161.063374
 20
218.780908
 30
0.0
 10
158.946624
 20
216.663898
 30
0.0
 10
154.713284
 20
216.663898
 30
0.0
 10
150.480114
 20
216.663898
 30
0.0
  0
LINE
  5
104
100
AcDbEntity
  8
Inner_Cut
 62
5
100
AcDbLine
 10
175.884624
 20
229.370695
 30
0.0
 11
175.894624
 21
270.626993
 31
0.0
  0
LINE
  5
105
100
AcDbEntity
  8
Inner_Cut
 62
5
100
AcDbLine
 10
175.894624
 20
270.626993
 30
0.0
 11
163.194624
 21
270.626993
 31
0.0
  0
LINE
  5
106
100
AcDbEntity
  8
Inner_Cut
 62
5
100
AcDbLine
 10
163.194624
 20
270.626993
 30
0.0
 11
163.180524
 21
229.363889
 31
0.0
  0
LINE
  5
107
100
AcDbEntity
  8
Inner_Cut
 62
5
100
AcDbLine
 10
150.480524
 20
216.663898
 30
0.0
 11
82.337504
 21
216.661898
 31
0.0
  0
LINE
  5
108
100
AcDbEntity
  8
Inner_Cut
 62
5
100
AcDbLine
 10
82.337504
 20
216.661898
 30
0.0
 11
82.337504
 21
203.961898
 31
0.0
  0
LINE
  5
109
100
AcDbEntity
  8
Inner_Cut
 62
5
100
AcDbLine
 10
82.337504
 20
203.961898
 30
0.0
 11
222.037504
 21
203.961898
 31
0.0
  0
LINE
  5
10a
100
AcDbEntity
  8
Inner_Cut
 62
5
100
AcDbLine
 10
222.037504
 20
203.961898
 30
0.0
 11
222.037504
 21
216.661898
 31
0.0
  0
LINE
  5
10b
100
AcDbEntity
  8
Inner_Cut
 62
5
100
AcDbLine
 10
222.037504
 20
216.661898
 30
0.0
 11
188.585034
 21
216.670898
 31
0.0
  0
LINE
  5
10c
100
AcDbEntity
  8
Inner_Cut
 62
5
100
AcDbLine
 10
130.486590
 20
74.545780
 30
0.0
 11
138.412270
 21
74.545780
 31
0.0
  0
LINE
  5
10d
100
AcDbEntity
  8
Inner_Cut
 62
5
100
AcDbLine
 10
138.412270
 20
74.545780
 30
0.0
 11
138.412270
 21
61.845780
 31
0.0
  0
LINE
  5
10e
100
AcDbEntity
  8
Inner_Cut
 62
5
100
AcDbLine
 10
138.412270
 20
61.845780
 30
0.0
 11
130.486590
 21
61.845780
 31
0.0
  0
LINE
  5
10f
100
AcDbEntity
  8
Inner_Cut
 62
5
100
AcDbLine
 10
130.486590
 20
61.845780
 30
0.0
 11
130.486590
 21
74.545780
 31
0.0
  0
LINE
  5
110
100
AcDbEntity
  8
Inner_Cut
 62
5
100
AcDbLine
 10
189.617320
 20
303.387018
 30
0.0
 11
189.617320
 21
290.687018
 31
0.0
  0
LINE
  5
111
100
AcDbEntity
  8
Inner_Cut
 62
5
100
AcDbLine
 10
189.617320
 20
290.687018
 30
0.0
 11
187.117320
 21
290.687018
 31
0.0
  0
LINE
  5
112
100
AcDbEntity
  8
Inner_Cut
 62
5
100
AcDbLine
 10
187.117320
 20
290.687018
 30
0.0
 11
187.117320
 21
303.387018
 31
0.0
  0
LINE
  5
113
100
AcDbEntity
  8
Inner_Cut
 62
5
100
AcDbLine
 10
187.117320
 20
303.387018
 30
0.0
 11
189.617320
 21
303.387018
 31
0.0
  0
LINE
  5
114
100
AcDbEntity
  8
Inner_Cut
 62
5
100
AcDbLine
 10
105.105800
 20
137.400790
 30
0.0
 11
113.105800
 21
137.400790
 31
0.0
  0
LINE
  5
115
100
AcDbEntity
  8
Inner_Cut
 62
5
100
AcDbLine
 10
113.105800
 20
137.400790
 30
0.0
 11
113.105800
 21
115.810790
 31
0.0
  0
LINE
  5
116
100
AcDbEntity
  8
Inner_Cut
 62
5
100
AcDbLine
 10
113.105800
 20
115.810790
 30
0.0
 11
105.105800
 21
115.810790
 31
0.0
  0
LINE
  5
117
100
AcDbEntity
  8
Inner_Cut
 62
5
100
AcDbLine
 10
105.105800
 20
115.810790
 30
0.0
 11
105.105800
 21
137.400790
 31
0.0
  0
LINE
  5
118
100
AcDbEntity
  8
Inner_Cut
 62
5
100
AcDbLine
 10
127.311590
 20
132.535780
 30
0.0
 11
130.486590
 21
132.535780
 31
0.0
  0
LINE
  5
119
100
AcDbEntity
  8
Inner_Cut
 62
5
100
AcDbLine
 10
130.486590
 20
132.535780
 30
0.0
 11
130.486590
 21
123.035780
 31
0.0
  0
LINE
  5
11a
100
AcDbEntity
  8
Inner_Cut
 62
5
100
AcDbLine
 10
130.486590
 20
123.035780
 30
0.0
 11
127.311590
 21
123.035780
 31
0.0
  0
LINE
  5
11b
100
AcDbEntity
  8
Inner_Cut
 62
5
100
AcDbLine
 10
127.311590
 20
123.035780
 30
0.0
 11
127.311590
 21
132.535780
 31
0.0
  0
LINE
  5
11c
100
AcDbEntity
  8
Inner_Cut
 62
5
100
AcDbLine
 10
164.493280
 20
128.110790
 30
0.0
 11
144.993280
 21
128.110790
 31
0.0
  0
LINE
  5
11d
100
AcDbEntity
  8
Inner_Cut
 62
5
100
AcDbLine
 10
144.993280
 20
128.110790
 30
0.0
 11
144.993280
 21
118.110790
 31
0.0
  0
LINE
  5
11e
100
AcDbEntity
  8
Inner_Cut
 62
5
100
AcDbLine
 10
144.993280
 20
118.110790
 30
0.0
 11
164.493280
 21
118.110790
 31
0.0
  0
LINE
  5
11f
100
AcDbEntity
  8
Inner_Cut
 62
5
100
AcDbLine
 10
164.493280
 20
118.110790
 30
0.0
 11
164.493280
 21
128.110790
 31
0.0
  0
LINE
  5
120
100
AcDbEntity
  8
Inner_Cut
 62
5
100
AcDbLine
 10
25.961168
 20
268.316775
 30
0.0
 11
21.961168
 21
266.007374
 31
0.0
  0
LINE
  5
121
100
AcDbEntity
  8
Inner_Cut
 62
5
100
AcDbLine
 10
21.961168
 20
266.007374
 30
0.0
 11
17.961168
 21
268.316775
 31
0.0
  0
LINE
  5
122
100
AcDbEntity
  8
Inner_Cut
 62
5
100
AcDbLine
 10
17.961168
 20
268.316775
 30
0.0
 11
17.961168
 21
272.935577
 31
0.0
  0
LINE
  5
123
100
AcDbEntity
  8
Inner_Cut
 62
5
100
AcDbLine
 10
17.961168
 20
272.935577
 30
0.0
 11
21.961168
 21
275.244978
 31
0.0
  0
LINE
  5
124
100
AcDbEntity
  8
Inner_Cut
 62
5
100
AcDbLine
 10
21.961168
 20
275.244978
 30
0.0
 11
25.961168
 21
272.935577
 31
0.0
  0
LINE
  5
125
100
AcDbEntity
  8
Inner_Cut
 62
5
100
AcDbLine
 10
25.961168
 20
272.935577
 30
0.0
 11
25.961168
 21
268.316775
 31
0.0
  0
LINE
  5
126
100
AcDbEntity
  8
Inner_Cut
 62
5
100
AcDbLine
 10
202.434204
 20
110.946118
 30
0.0
 11
205.623714
 21
110.946118
 31
0.0
  0
LINE
  5
127
100
AcDbEntity
  8
Inner_Cut
 62
5
100
AcDbLine
 10
205.623714
 20
110.946118
 30
0.0
 11
205.623714
 21
98.246118
 31
0.0
  0
LINE
  5
128
100
AcDbEntity
  8
Inner_Cut
 62
5
100
AcDbLine
 10
205.623714
 20
98.246118
 30
0.0
 11
202.434204
 21
98.246118
 31
0.0
  0
LINE
  5
129
100
AcDbEntity
  8
Inner_Cut
 62
5
100
AcDbLine
 10
202.434204
 20
98.246118
 30
0.0
 11
202.434204
 21
110.946118
 31
0.0
  0
SPLINE
  5
12a
100
AcDbEntity
  8
Inner_Cut
 62
5
100
AcDbSpline
 70
8
 71
3
 72
8
 73
4
 74
0
 40
0
 40
0
 40
0
 40
0
 40
1
 40
1
 40
1
 40
1
 10
190.453374
 20
101.258528
 30
0.0
 10
194.054374
 20
101.258528
 30
0.0
 10
196.953374
 20
97.913528
 30
0.0
 10
196.953374
 20
93.758528
 30
0.0
  0
LINE
  5
12b
100
AcDbEntity
  8
Inner_Cut
 62
5
100
AcDbLine
 10
196.953374
 20
93.758528
 30
0.0
 11
196.953374
 21
80.732638
 31
0.0
  0
SPLINE
  5
12c
100
AcDbEntity
  8
Inner_Cut
 62
5
100
AcDbSpline
 70
8
 71
3
 72
8
 73
4
 74
0
 40
0
 40
0
 40
0
 40
0
 40
1
 40
1
 40
1
 40
1
 10
196.953374
 20
80.732638
 30
0.0
 10
196.953374
 20
76.577638
 30
0.0
 10
194.054374
 20
73.232638
 30
0.0
 10
190.453374
 20
73.232638
 30
0.0
  0
SPLINE
  5
12d
100
AcDbEntity
  8
Inner_Cut
 62
5
100
AcDbSpline
 70
8
 71
3
 72
8
 73
4
 74
0
 40
0
 40
0
 40
0
 40
0
 40
1
 40
1
 40
1
 40
1
 10
190.453374
 20
73.232638
 30
0.0
 10
186.852374
 20
73.232638
 30
0.0
 10
183.953374
 20
76.577638
 30
0.0
 10
183.953374
 20
80.732638
 30
0.0
  0
LINE
  5
12e
100
AcDbEntity
  8
Inner_Cut
 62
5
100
AcDbLine
 10
183.953374
 20
80.732638
 30
0.0
 11
183.953374
 21
93.758528
 31
0.0
  0
SPLINE
  5
12f
100
AcDbEntity
  8
Inner_Cut
 62
5
100
AcDbSpline
 70
8
 71
3
 72
8
 73
4
 74
0
 40
0
 40
0
 40
0
 40
0
 40
1
 40
1
 40
1
 40
1
 10
183.953374
 20
93.758528
 30
0.0
 10
183.953374
 20
97.913528
 30
0.0
 10
186.852374
 20
101.258528
 30
0.0
 10
190.453374
 20
101.258528
 30
0.0
  0
LINE
  5
130
100
AcDbEntity
  8
Inner_Cut
 62
5
100
AcDbLine
 10
190.453374
 20
101.258528
 30
0.0
 11
190.453374
 21
101.258528
 31
0.0
  0
LINE
  5
131
100
AcDbEntity
  8
Inner_Cut
 62
5
100
AcDbLine
 10
189.741534
 20
124.697938
 30
0.0
 11
202.441534
 21
124.697938
 31
0.0
  0
LINE
  5
132
100
AcDbEntity
  8
Inner_Cut
 62
5
100
AcDbLine
 10
202.441534
 20
124.697938
 30
0.0
 11
202.441534
 21
122.197938
 31
0.0
  0
LINE
  5
133
100
AcDbEntity
  8
Inner_Cut
 62
5
100
AcDbLine
 10
202.441534
 20
122.197938
 30
0.0
 11
189.741534
 21
122.197938
 31
0.0
  0
LINE
  5
134
100
AcDbEntity
  8
Inner_Cut
 62
5
100
AcDbLine
 10
189.741534
 20
122.197938
 30
0.0
 11
189.741534
 21
124.697938
 31
0.0
  0
LINE
  5
135
100
AcDbEntity
  8
Outer_Cut
 62
7
100
AcDbLine
 10
202.521644
 20
30.100578
 30
0.0
 11
202.443544
 21
34.562118
 31
0.0
  0
LINE
  5
136
100
AcDbEntity
  8
Outer_Cut
 62
7
100
AcDbLine
 10
202.443544
 20
34.562118
 30
0.0
 11
205.623704
 21
34.562118
 31
0.0
  0
LINE
  5
137
100
AcDbEntity
  8
Outer_Cut
 62
7
100
AcDbLine
 10
205.623704
 20
34.562118
 30
0.0
 11
205.623704
 21
40.562268
 31
0.0
  0
LINE
  5
138
100
AcDbEntity
  8
Outer_Cut
 62
7
100
AcDbLine
 10
205.623704
 20
40.562268
 30
0.0
 11
202.443544
 21
40.562268
 31
0.0
  0
LINE
  5
139
100
AcDbEntity
  8
Outer_Cut
 62
7
100
AcDbLine
 10
202.443544
 20
40.562268
 30
0.0
 11
202.443544
 21
46.983068
 31
0.0
  0
LINE
  5
13a
100
AcDbEntity
  8
Outer_Cut
 62
7
100
AcDbLine
 10
202.443544
 20
46.983068
 30
0.0
 11
205.623704
 21
46.983068
 31
0.0
  0
LINE
  5
13b
100
AcDbEntity
  8
Outer_Cut
 62
7
100
AcDbLine
 10
205.623704
 20
46.983068
 30
0.0
 11
205.623704
 21
52.983218
 31
0.0
  0
LINE
  5
13c
100
AcDbEntity
  8
Outer_Cut
 62
7
100
AcDbLine
 10
205.623704
 20
52.983218
 30
0.0
 11
202.443544
 21
52.983218
 31
0.0
  0
LINE
  5
13d
100
AcDbEntity
  8
Outer_Cut
 62
7
100
AcDbLine
 10
202.443544
 20
52.983218
 30
0.0
 11
202.443544
 21
59.404008
 31
0.0
  0
LINE
  5
13e
100
AcDbEntity
  8
Outer_Cut
 62
7
100
AcDbLine
 10
202.443544
 20
59.404008
 30
0.0
 11
205.623704
 21
59.404008
 31
0.0
  0
LINE
  5
13f
100
AcDbEntity
  8
Outer_Cut
 62
7
100
AcDbLine
 10
205.623704
 20
59.404008
 30
0.0
 11
205.623704
 21
65.404168
 31
0.0
  0
LINE
  5
140
100
AcDbEntity
  8
Outer_Cut
 62
7
100
AcDbLine
 10
205.623704
 20
65.404168
 30
0.0
 11
202.443544
 21
65.404168
 31
0.0
  0
LINE
  5
141
100
AcDbEntity
  8
Outer_Cut
 62
7
100
AcDbLine
 10
202.443544
 20
65.404168
 30
0.0
 11
202.443544
 21
71.824958
 31
0.0
  0
LINE
  5
142
100
AcDbEntity
  8
Outer_Cut
 62
7
100
AcDbLine
 10
202.443544
 20
71.824958
 30
0.0
 11
205.623704
 21
71.824958
 31
0.0
  0
LINE
  5
143
100
AcDbEntity
  8
Outer_Cut
 62
7
100
AcDbLine
 10
205.623704
 20
71.824958
 30
0.0
 11
205.623704
 21
77.824598
 31
0.0
  0
LINE
  5
144
100
AcDbEntity
  8
Outer_Cut
 62
7
100
AcDbLine
 10
205.623704
 20
77.824598
 30
0.0
 11
202.443544
 21
77.824598
 31
0.0
  0
LINE
  5
145
100
AcDbEntity
  8
Outer_Cut
 62
7
100
AcDbLine
 10
202.443544
 20
77.824598
 30
0.0
 11
202.443544
 21
84.245388
 31
0.0
  0
LINE
  5
146
100
AcDbEntity
  8
Outer_Cut
 62
7
100
AcDbLine
 10
202.443544
 20
84.245388
 30
0.0
 11
205.623704
 21
84.245388
 31
0.0
  0
LINE
  5
147
100
AcDbEntity
  8
Outer_Cut
 62
7
100
AcDbLine
 10
205.623704
 20
84.245388
 30
0.0
 11
205.623704
 21
90.245538
 31
0.0
  0
LINE
  5
148
100
AcDbEntity
  8
Outer_Cut
 62
7
100
AcDbLine
 10
205.623704
 20
90.245538
 30
0.0
 11
202.443544
 21
90.245538
 31
0.0
  0
LINE
  5
149
100
AcDbEntity
  8
Outer_Cut
 62
7
100
AcDbLine
 10
202.443544
 20
90.245538
 30
0.0
 11
202.443544
 21
96.666338
 31
0.0
  0
LINE
  5
14a
100
AcDbEntity
  8
Outer_Cut
 62
7
100
AcDbLine
 10
202.443544
 20
96.666338
 30
0.0
 11
205.623704
 21
96.666338
 31
0.0
  0
LINE
  5
14b
100
AcDbEntity
  8
Outer_Cut
 62
7
100
AcDbLine
 10
205.623704
 20
96.666338
 30
0.0
 11
205.623704
 21
102.666488
 31
0.0
  0
LINE
  5
14c
100
AcDbEntity
  8
Outer_Cut
 62
7
100
AcDbLine
 10
205.623704
 20
102.666488
 30
0.0
 11
202.443544
 21
102.666488
 31
0.0
  0
LINE
  5
14d
100
AcDbEntity
  8
Outer_Cut
 62
7
100
AcDbLine
 10
202.443544
 20
102.666488
 30
0.0
 11
202.443544
 21
109.087288
 31
0.0
  0
LINE
  5
14e
100
AcDbEntity
  8
Outer_Cut
 62
7
100
AcDbLine
 10
202.443544
 20
109.087288
 30
0.0
 11
205.623704
 21
109.087288
 31
0.0
  0
LINE
  5
14f
100
AcDbEntity
  8
Outer_Cut
 62
7
100
AcDbLine
 10
205.623704
 20
109.087288
 30
0.0
 11
205.623704
 21
115.087438
 31
0.0
  0
LINE
  5
150
100
AcDbEntity
  8
Outer_Cut
 62
7
100
AcDbLine
 10
205.623704
 20
115.087438
 30
0.0
 11
202.443544
 21
115.087438
 31
0.0
  0
LINE
  5
151
100
AcDbEntity
  8
Outer_Cut
 62
7
100
AcDbLine
 10
202.443544
 20
115.087438
 30
0.0
 11
202.443544
 21
121.508228
 31
0.0
  0
LINE
  5
152
100
AcDbEntity
  8
Outer_Cut
 62
7
100
AcDbLine
 10
202.443544
 20
121.508228
 30
0.0
 11
205.623704
 21
121.508228
 31
0.0
  0
LINE
  5
153
100
AcDbEntity
  8
Outer_Cut
 62
7
100
AcDbLine
 10
205.623704
 20
121.508228
 30
0.0
 11
205.623704
 21
127.507868
 31
0.0
  0
LINE
  5
154
100
AcDbEntity
  8
Outer_Cut
 62
7
100
AcDbLine
 10
205.623704
 20
127.507868
 30
0.0
 11
202.443544
 21
127.507868
 31
0.0
  0
LINE
  5
155
100
AcDbEntity
  8
Outer_Cut
 62
7
100
AcDbLine
 10
202.443544
 20
127.507868
 30
0.0
 11
202.443544
 21
133.928658
 31
0.0
  0
LINE
  5
156
100
AcDbEntity
  8
Outer_Cut
 62
7
100
AcDbLine
 10
202.443544
 20
133.928658
 30
0.0
 11
205.623704
 21
133.928658
 31
0.0
  0
LINE
  5
157
100
AcDbEntity
  8
Outer_Cut
 62
7
100
AcDbLine
 10
205.623704
 20
133.928658
 30
0.0
 11
205.623704
 21
139.928808
 31
0.0
  0
LINE
  5
158
100
AcDbEntity
  8
Outer_Cut
 62
7
100
AcDbLine
 10
205.623704
 20
139.928808
 30
0.0
 11
202.443544
 21
139.928808
 31
0.0
  0
LINE
  5
159
100
AcDbEntity
  8
Outer_Cut
 62
7
100
AcDbLine
 10
202.443544
 20
139.928808
 30
0.0
 11
202.443364
 21
144.390588
 31
0.0
  0
LINE
  5
15a
100
AcDbEntity
  8
Outer_Cut
 62
7
100
AcDbLine
 10
170.703364
 20
144.390588
 30
0.0
 11
170.781664
 21
30.100578
 31
0.0
  0
LINE
  5
15b
100
AcDbEntity
  8
Outer_Cut
 62
7
100
AcDbLine
 10
197.981704
 20
141.210588
 30
0.0
 11
191.981704
 21
141.210588
 31
0.0
  0
LINE
  5
15c
100
AcDbEntity
  8
Outer_Cut
 62
7
100
AcDbLine
 10
191.981704
 20
141.210588
 30
0.0
 11
191.981704
 21
144.390588
 31
0.0
  0
LINE
  5
15d
100
AcDbEntity
  8
Outer_Cut
 62
7
100
AcDbLine
 10
184.340034
 20
144.390588
 30
0.0
 11
184.340034
 21
141.210588
 31
0.0
  0
LINE
  5
15e
100
AcDbEntity
  8
Outer_Cut
 62
7
100
AcDbLine
 10
184.340034
 20
141.210588
 30
0.0
 11
178.340034
 21
141.210588
 31
0.0
  0
LINE
  5
15f
100
AcDbEntity
  8
Outer_Cut
 62
7
100
AcDbLine
 10
178.340034
 20
141.210588
 30
0.0
 11
178.340034
 21
144.390588
 31
0.0
  0
SPLINE
  5
160
100
AcDbEntity
  8
Outer_Cut
 62
7
100
AcDbSpline
 70
8
 71
3
 72
8
 73
4
 74
0
 40
0
 40
0
 40
0
 40
0
 40
1
 40
1
 40
1
 40
1
 10
202.443364
 20
144.390588
 30
0.0
 10
200.956414
 20
144.390848
 30
0.0
 10
199.469194
 20
144.390848
 30
0.0
 10
197.981704
 20
144.390588
 30
0.0
  0
SPLINE
  5
161
100
AcDbEntity
  8
Outer_Cut
 62
7
100
AcDbSpline
 70
8
 71
3
 72
8
 73
4
 74
0
 40
0
 40
0
 40
0
 40
0
 40
1
 40
1
 40
1
 40
1
 10
191.981704
 20
144.390588
 30
0.0
 10
189.434744
 20
144.390848
 30
0.0
 10
186.887524
 20
144.390848
 30
0.0
 10
184.340034
 20
144.390588
 30
0.0
  0
SPLINE
  5
162
100
AcDbEntity
  8
Outer_Cut
 62
7
100
AcDbSpline
 70
8
 71
3
 72
8
 73
4
 74
0
 40
0
 40
0
 40
0
 40
0
 40
1
 40
1
 40
1
 40
1
 10
197.981704
 20
141.210588
 30
0.0
 10
197.981974
 20
142.270848
 30
0.0
 10
197.981974
 20
143.330848
 30
0.0
 10
197.981704
 20
144.390588
 30
0.0
  0
SPLINE
  5
163
100
AcDbEntity
  8
Outer_Cut
 62
7
100
AcDbSpline
 70
8
 71
3
 72
8
 73
4
 74
0
 40
0
 40
0
 40
0
 40
0
 40
1
 40
1
 40
1
 40
1
 10
178.340034
 20
144.390588
 30
0.0
 10
175.794744
 20
144.390848
 30
0.0
 10
173.249184
 20
144.390848
 30
0.0
 10
170.703364
 20
144.390588
 30
0.0
  0
LINE
  5
164
100
AcDbEntity
  8
Outer_Cut
 62
7
100
AcDbLine
 10
198.059984
 20
33.280578
 30
0.0
 11
192.059984
 21
33.280578
 31
0.0
  0
LINE
  5
165
100
AcDbEntity
  8
Outer_Cut
 62
7
100
AcDbLine
 10
192.059984
 20
33.280578
 30
0.0
 11
192.059984
 21
30.100578
 31
0.0
  0
LINE
  5
166
100
AcDbEntity
  8
Outer_Cut
 62
7
100
AcDbLine
 10
184.418314
 20
30.100578
 30
0.0
 11
184.418314
 21
33.280578
 31
0.0
  0
LINE
  5
167
100
AcDbEntity
  8
Outer_Cut
 62
7
100
AcDbLine
 10
184.418314
 20
33.280578
 30
0.0
 11
178.418314
 21
33.280578
 31
0.0
  0
LINE
  5
168
100
AcDbEntity
  8
Outer_Cut
 62
7
100
AcDbLine
 10
178.418314
 20
33.280578
 30
0.0
 11
178.418314
 21
30.100578
 31
0.0
  0
SPLINE
  5
169
100
AcDbEntity
  8
Outer_Cut
 62
7
100
AcDbSpline
 70
8
 71
3
 72
8
 73
4
 74
0
 40
0
 40
0
 40
0
 40
0
 40
1
 40
1
 40
1
 40
1
 10
202.521644
 20
30.100578
 30
0.0
 10
201.034694
 20
30.100318
 30
0.0
 10
199.547474
 20
30.100318
 30
0.0
 10
198.059984
 20
30.100578
 30
0.0
  0
SPLINE
  5
16a
100
AcDbEntity
  8
Outer_Cut
 62
7
100
AcDbSpline
 70
8
 71
3
 72
8
 73
4
 74
0
 40
0
 40
0
 40
0
 40
0
 40
1
 40
1
 40
1
 40
1
 10
192.059984
 20
30.100578
 30
0.0
 10
189.513024
 20
30.100318
 30
0.0
 10
186.965804
 20
30.100318
 30
0.0
 10
184.418314
 20
30.100578
 30
0.0
  0
SPLINE
  5
16b
100
AcDbEntity
  8
Outer_Cut
 62
7
100
AcDbSpline
 70
8
 71
3
 72
8
 73
4
 74
0
 40
0
 40
0
 40
0
 40
0
 40
1
 40
1
 40
1
 40
1
 10
198.059984
 20
33.280578
 30
0.0
 10
198.060254
 20
32.220318
 30
0.0
 10
198.060254
 20
31.160318
 30
0.0
 10
198.059984
 20
30.100578
 30
0.0
  0
SPLINE
  5
16c
100
AcDbEntity
  8
Outer_Cut
 62
7
100
AcDbSpline
 70
8
 71
3
 72
8
 73
4
 74
0
 40
0
 40
0
 40
0
 40
0
 40
1
 40
1
 40
1
 40
1
 10
178.418314
 20
30.100578
 30
0.0
 10
175.873024
 20
30.100318
 30
0.0
 10
173.327464
 20
30.100318
 30
0.0
 10
170.781644
 20
30.100578
 30
0.0
  0
LINE
  5
16d
100
AcDbEntity
  8
Outer_Cut
 62
7
100
AcDbLine
 10
6.855394
 20
6.132008
 30
0.0
 11
10.035394
 21
6.132008
 31
0.0
  0
LINE
  5
16e
100
AcDbEntity
  8
Outer_Cut
 62
7
100
AcDbLine
 10
10.035394
 20
6.132008
 30
0.0
 11
10.035394
 21
10.593668
 31
0.0
  0
LINE
  5
16f
100
AcDbEntity
  8
Outer_Cut
 62
7
100
AcDbLine
 10
10.035394
 20
10.593668
 30
0.0
 11
6.855394
 21
10.593668
 31
0.0
  0
LINE
  5
170
100
AcDbEntity
  8
Outer_Cut
 62
7
100
AcDbLine
 10
6.855394
 20
16.593668
 30
0.0
 11
10.035394
 21
16.593668
 31
0.0
  0
LINE
  5
171
100
AcDbEntity
  8
Outer_Cut
 62
7
100
AcDbLine
 10
10.035394
 20
16.593668
 30
0.0
 11
10.035394
 21
24.235338
 31
0.0
  0
LINE
  5
172
100
AcDbEntity
  8
Outer_Cut
 62
7
100
AcDbLine
 10
10.035394
 20
24.235338
 30
0.0
 11
6.855394
 21
24.235338
 31
0.0
  0
LINE
  5
173
100
AcDbEntity
  8
Outer_Cut
 62
7
100
AcDbLine
 10
6.855394
 20
30.235338
 30
0.0
 11
10.035394
 21
30.235338
 31
0.0
  0
LINE
  5
174
100
AcDbEntity
  8
Outer_Cut
 62
7
100
AcDbLine
 10
10.035394
 20
30.235338
 30
0.0
 11
10.035394
 21
37.815298
 31
0.0
  0
LINE
  5
175
100
AcDbEntity
  8
Outer_Cut
 62
7
100
AcDbLine
 10
10.035394
 20
37.815288
 30
0.0
 11
13.040394
 21
37.871988
 31
0.0
  0
LINE
  5
176
100
AcDbEntity
  8
Outer_Cut
 62
7
100
AcDbLine
 10
13.040394
 20
37.871988
 30
0.0
 11
13.040394
 21
37.871988
 31
0.0
  0
LINE
  5
177
100
AcDbEntity
  8
Outer_Cut
 62
7
100
AcDbLine
 10
13.040394
 20
37.871988
 30
0.0
 11
19.182054
 21
37.871988
 31
0.0
  0
LINE
  5
178
100
AcDbEntity
  8
Outer_Cut
 62
7
100
AcDbLine
 10
19.182054
 20
37.871988
 30
0.0
 11
19.182054
 21
37.871988
 31
0.0
  0
LINE
  5
179
100
AcDbEntity
  8
Outer_Cut
 62
7
100
AcDbLine
 10
19.182054
 20
37.871988
 30
0.0
 11
25.182054
 21
37.871988
 31
0.0
  0
LINE
  5
17a
100
AcDbEntity
  8
Outer_Cut
 62
7
100
AcDbLine
 10
25.182054
 20
37.871988
 30
0.0
 11
25.182054
 21
37.871988
 31
0.0
  0
LINE
  5
17b
100
AcDbEntity
  8
Outer_Cut
 62
7
100
AcDbLine
 10
25.182054
 20
37.871988
 30
0.0
 11
31.323724
 21
37.871988
 31
0.0
  0
LINE
  5
17c
100
AcDbEntity
  8
Outer_Cut
 62
7
100
AcDbLine
 10
31.323724
 20
37.871988
 30
0.0
 11
31.323724
 21
37.871988
 31
0.0
  0
LINE
  5
17d
100
AcDbEntity
  8
Outer_Cut
 62
7
100
AcDbLine
 10
31.323724
 20
37.871988
 30
0.0
 11
37.323728
 21
37.871988
 31
0.0
  0
LINE
  5
17e
100
AcDbEntity
  8
Outer_Cut
 62
7
100
AcDbLine
 10
37.323728
 20
37.871988
 30
0.0
 11
37.323728
 21
37.871988
 31
0.0
  0
LINE
  5
17f
100
AcDbEntity
  8
Outer_Cut
 62
7
100
AcDbLine
 10
37.323728
 20
37.871988
 30
0.0
 11
43.465398
 21
37.871988
 31
0.0
  0
LINE
  5
180
100
AcDbEntity
  8
Outer_Cut
 62
7
100
AcDbLine
 10
43.465398
 20
37.871988
 30
0.0
 11
43.465398
 21
37.871988
 31
0.0
  0
LINE
  5
181
100
AcDbEntity
  8
Outer_Cut
 62
7
100
AcDbLine
 10
43.465398
 20
37.871988
 30
0.0
 11
49.465398
 21
37.871988
 31
0.0
  0
LINE
  5
182
100
AcDbEntity
  8
Outer_Cut
 62
7
100
AcDbLine
 10
49.465398
 20
37.871988
 30
0.0
 11
49.465398
 21
37.871988
 31
0.0
  0
LINE
  5
183
100
AcDbEntity
  8
Outer_Cut
 62
7
100
AcDbLine
 10
49.465398
 20
37.871988
 30
0.0
 11
55.607058
 21
37.871988
 31
0.0
  0
LINE
  5
184
100
AcDbEntity
  8
Outer_Cut
 62
7
100
AcDbLine
 10
55.607058
 20
37.871988
 30
0.0
 11
55.607058
 21
37.871988
 31
0.0
  0
LINE
  5
185
100
AcDbEntity
  8
Outer_Cut
 62
7
100
AcDbLine
 10
55.607058
 20
37.871988
 30
0.0
 11
61.607058
 21
37.871988
 31
0.0
  0
LINE
  5
186
100
AcDbEntity
  8
Outer_Cut
 62
7
100
AcDbLine
 10
61.607058
 20
37.871988
 30
0.0
 11
61.607058
 21
37.871988
 31
0.0
  0
LINE
  5
187
100
AcDbEntity
  8
Outer_Cut
 62
7
100
AcDbLine
 10
61.607058
 20
37.871988
 30
0.0
 11
67.748728
 21
37.871988
 31
0.0
  0
LINE
  5
188
100
AcDbEntity
  8
Outer_Cut
 62
7
100
AcDbLine
 10
67.748728
 20
37.871988
 30
0.0
 11
67.748728
 21
37.871988
 31
0.0
  0
LINE
  5
189
100
AcDbEntity
  8
Outer_Cut
 62
7
100
AcDbLine
 10
67.748728
 20
37.871988
 30
0.0
 11
73.748724
 21
37.871988
 31
0.0
  0
LINE
  5
18a
100
AcDbEntity
  8
Outer_Cut
 62
7
100
AcDbLine
 10
73.748724
 20
37.871988
 30
0.0
 11
73.748724
 21
37.871988
 31
0.0
  0
LINE
  5
18b
100
AcDbEntity
  8
Outer_Cut
 62
7
100
AcDbLine
 10
73.748724
 20
37.871988
 30
0.0
 11
76.710394
 21
37.871988
 31
0.0
  0
LINE
  5
18c
100
AcDbEntity
  8
Outer_Cut
 62
7
100
AcDbLine
 10
76.710394
 20
37.871988
 30
0.0
 11
76.710394
 21
30.235338
 31
0.0
  0
LINE
  5
18d
100
AcDbEntity
  8
Outer_Cut
 62
7
100
AcDbLine
 10
76.710394
 20
30.235338
 30
0.0
 11
79.890394
 21
30.235338
 31
0.0
  0
LINE
  5
18e
100
AcDbEntity
  8
Outer_Cut
 62
7
100
AcDbLine
 10
79.890394
 20
30.235338
 30
0.0
 11
79.890394
 21
24.235338
 31
0.0
  0
LINE
  5
18f
100
AcDbEntity
  8
Outer_Cut
 62
7
100
AcDbLine
 10
79.890394
 20
24.235338
 30
0.0
 11
76.710394
 21
24.235338
 31
0.0
  0
LINE
  5
190
100
AcDbEntity
  8
Outer_Cut
 62
7
100
AcDbLine
 10
76.710394
 20
24.235338
 30
0.0
 11
76.710394
 21
16.593668
 31
0.0
  0
LINE
  5
191
100
AcDbEntity
  8
Outer_Cut
 62
7
100
AcDbLine
 10
76.710394
 20
16.593668
 30
0.0
 11
79.890394
 21
16.593668
 31
0.0
  0
LINE
  5
192
100
AcDbEntity
  8
Outer_Cut
 62
7
100
AcDbLine
 10
79.890394
 20
16.593668
 30
0.0
 11
79.890394
 21
10.593668
 31
0.0
  0
LINE
  5
193
100
AcDbEntity
  8
Outer_Cut
 62
7
100
AcDbLine
 10
79.890394
 20
10.593668
 30
0.0
 11
76.710394
 21
10.593668
 31
0.0
  0
LINE
  5
194
100
AcDbEntity
  8
Outer_Cut
 62
7
100
AcDbLine
 10
76.710394
 20
10.593668
 30
0.0
 11
76.710394
 21
6.132008
 31
0.0
  0
LINE
  5
195
100
AcDbEntity
  8
Outer_Cut
 62
7
100
AcDbLine
 10
76.710394
 20
6.132008
 30
0.0
 11
73.748724
 21
6.132008
 31
0.0
  0
LINE
  5
196
100
AcDbEntity
  8
Outer_Cut
 62
7
100
AcDbLine
 10
73.748724
 20
6.132008
 30
0.0
 11
73.748724
 21
2.952008
 31
0.0
  0
LINE
  5
197
100
AcDbEntity
  8
Outer_Cut
 62
7
100
AcDbLine
 10
73.748724
 20
2.952008
 30
0.0
 11
67.748728
 21
2.952008
 31
0.0
  0
LINE
  5
198
100
AcDbEntity
  8
Outer_Cut
 62
7
100
AcDbLine
 10
67.748728
 20
2.952008
 30
0.0
 11
67.748728
 21
6.132008
 31
0.0
  0
LINE
  5
199
100
AcDbEntity
  8
Outer_Cut
 62
7
100
AcDbLine
 10
67.748728
 20
6.132008
 30
0.0
 11
61.607058
 21
6.132008
 31
0.0
  0
LINE
  5
19a
100
AcDbEntity
  8
Outer_Cut
 62
7
100
AcDbLine
 10
61.607058
 20
6.132008
 30
0.0
 11
61.607058
 21
2.952008
 31
0.0
  0
LINE
  5
19b
100
AcDbEntity
  8
Outer_Cut
 62
7
100
AcDbLine
 10
61.607058
 20
2.952008
 30
0.0
 11
55.607058
 21
2.952008
 31
0.0
  0
LINE
  5
19c
100
AcDbEntity
  8
Outer_Cut
 62
7
100
AcDbLine
 10
55.607058
 20
2.952008
 30
0.0
 11
55.607058
 21
6.132008
 31
0.0
  0
LINE
  5
19d
100
AcDbEntity
  8
Outer_Cut
 62
7
100
AcDbLine
 10
55.607058
 20
6.132008
 30
0.0
 11
49.465398
 21
6.132008
 31
0.0
  0
LINE
  5
19e
100
AcDbEntity
  8
Outer_Cut
 62
7
100
AcDbLine
 10
49.465398
 20
6.132008
 30
0.0
 11
49.465398
 21
2.952008
 31
0.0
  0
LINE
  5
19f
100
AcDbEntity
  8
Outer_Cut
 62
7
100
AcDbLine
 10
49.465398
 20
2.952008
 30
0.0
 11
43.465398
 21
2.952008
 31
0.0
  0
LINE
  5
1a0
100
AcDbEntity
  8
Outer_Cut
 62
7
100
AcDbLine
 10
43.465398
 20
2.952008
 30
0.0
 11
43.465398
 21
6.132008
 31
0.0
  0
LINE
  5
1a1
100
AcDbEntity
  8
Outer_Cut
 62
7
100
AcDbLine
 10
43.465398
 20
6.132008
 30
0.0
 11
37.323728
 21
6.132008
 31
0.0
  0
LINE
  5
1a2
100
AcDbEntity
  8
Outer_Cut
 62
7
100
AcDbLine
 10
37.323728
 20
6.132008
 30
0.0
 11
37.323728
 21
2.952008
 31
0.0
  0
LINE
  5
1a3
100
AcDbEntity
  8
Outer_Cut
 62
7
100
AcDbLine
 10
37.323728
 20
2.952008
 30
0.0
 11
31.323724
 21
2.952008
 31
0.0
  0
LINE
  5
1a4
100
AcDbEntity
  8
Outer_Cut
 62
7
100
AcDbLine
 10
31.323724
 20
2.952008
 30
0.0
 11
31.323724
 21
6.132008
 31
0.0
  0
LINE
  5
1a5
100
AcDbEntity
  8
Outer_Cut
 62
7
100
AcDbLine
 10
31.323724
 20
6.132008
 30
0.0
 11
25.182054
 21
6.132008
 31
0.0
  0
LINE
  5
1a6
100
AcDbEntity
  8
Outer_Cut
 62
7
100
AcDbLine
 10
25.182054
 20
6.132008
 30
0.0
 11
25.182054
 21
2.952008
 31
0.0
  0
LINE
  5
1a7
100
AcDbEntity
  8
Outer_Cut
 62
7
100
AcDbLine
 10
25.182054
 20
2.952008
 30
0.0
 11
19.182054
 21
2.952008
 31
0.0
  0
LINE
  5
1a8
100
AcDbEntity
  8
Outer_Cut
 62
7
100
AcDbLine
 10
19.182054
 20
2.952008
 30
0.0
 11
19.182054
 21
6.132008
 31
0.0
  0
LINE
  5
1a9
100
AcDbEntity
  8
Outer_Cut
 62
7
100
AcDbLine
 10
19.182054
 20
6.132008
 30
0.0
 11
13.040394
 21
6.132008
 31
0.0
  0
LINE
  5
1aa
100
AcDbEntity
  8
Outer_Cut
 62
7
100
AcDbLine
 10
13.040394
 20
6.132008
 30
0.0
 11
13.040394
 21
2.952008
 31
0.0
  0
LINE
  5
1ab
100
AcDbEntity
  8
Outer_Cut
 62
7
100
AcDbLine
 10
13.040394
 20
2.952008
 30
0.0
 11
7.040394
 21
2.952008
 31
0.0
  0
LINE
  5
1ac
100
AcDbEntity
  8
Outer_Cut
 62
7
100
AcDbLine
 10
7.040394
 20
2.952008
 30
0.0
 11
7.040394
 21
6.132008
 31
0.0
  0
LINE
  5
1ad
100
AcDbEntity
  8
Outer_Cut
 62
7
100
AcDbLine
 10
7.040394
 20
6.132008
 30
0.0
 11
6.855394
 21
6.132008
 31
0.0
  0
LINE
  5
1ae
100
AcDbEntity
  8
Outer_Cut
 62
7
100
AcDbLine
 10
6.855174
 20
24.206178
 30
0.0
 11
6.855154
 21
30.286558
 31
0.0
  0
LINE
  5
1af
100
AcDbEntity
  8
Outer_Cut
 62
7
100
AcDbLine
 10
6.855314
 20
10.575428
 30
0.0
 11
6.855234
 21
16.655808
 31
0.0
  0
LINE
  5
1b0
100
AcDbEntity
  8
Outer_Cut
 62
7
100
AcDbLine
 10
79.890153
 20
42.110308
 30
0.0
 11
76.710153
 21
42.110308
 31
0.0
  0
LINE
  5
1b1
100
AcDbEntity
  8
Outer_Cut
 62
7
100
AcDbLine
 10
76.710153
 20
42.110308
 30
0.0
 11
76.710153
 21
46.571968
 31
0.0
  0
LINE
  5
1b2
100
AcDbEntity
  8
Outer_Cut
 62
7
100
AcDbLine
 10
76.710153
 20
46.571968
 30
0.0
 11
79.890153
 21
46.571968
 31
0.0
  0
LINE
  5
1b3
100
AcDbEntity
  8
Outer_Cut
 62
7
100
AcDbLine
 10
79.890153
 20
52.571968
 30
0.0
 11
76.710153
 21
52.571968
 31
0.0
  0
LINE
  5
1b4
100
AcDbEntity
  8
Outer_Cut
 62
7
100
AcDbLine
 10
76.710153
 20
52.571968
 30
0.0
 11
76.710153
 21
60.213638
 31
0.0
  0
LINE
  5
1b5
100
AcDbEntity
  8
Outer_Cut
 62
7
100
AcDbLine
 10
76.710153
 20
60.213638
 30
0.0
 11
79.890153
 21
60.213638
 31
0.0
  0
LINE
  5
1b6
100
AcDbEntity
  8
Outer_Cut
 62
7
100
AcDbLine
 10
79.890153
 20
66.213638
 30
0.0
 11
76.710153
 21
66.213638
 31
0.0
  0
LINE
  5
1b7
100
AcDbEntity
  8
Outer_Cut
 62
7
100
AcDbLine
 10
76.710153
 20
66.213638
 30
0.0
 11
76.710153
 21
73.793598
 31
0.0
  0
LINE
  5
1b8
100
AcDbEntity
  8
Outer_Cut
 62
7
100
AcDbLine
 10
76.710153
 20
73.793588
 30
0.0
 11
73.705153
 21
73.850288
 31
0.0
  0
LINE
  5
1b9
100
AcDbEntity
  8
Outer_Cut
 62
7
100
AcDbLine
 10
73.705153
 20
73.850288
 30
0.0
 11
73.705153
 21
73.850288
 31
0.0
  0
LINE
  5
1ba
100
AcDbEntity
  8
Outer_Cut
 62
7
100
AcDbLine
 10
73.705153
 20
73.850288
 30
0.0
 11
67.563494
 21
73.850288
 31
0.0
  0
LINE
  5
1bb
100
AcDbEntity
  8
Outer_Cut
 62
7
100
AcDbLine
 10
67.563494
 20
73.850288
 30
0.0
 11
67.563494
 21
73.850288
 31
0.0
  0
LINE
  5
1bc
100
AcDbEntity
  8
Outer_Cut
 62
7
100
AcDbLine
 10
67.563494
 20
73.850288
 30
0.0
 11
61.563494
 21
73.850288
 31
0.0
  0
LINE
  5
1bd
100
AcDbEntity
  8
Outer_Cut
 62
7
100
AcDbLine
 10
61.563494
 20
73.850288
 30
0.0
 11
61.563494
 21
73.850288
 31
0.0
  0
LINE
  5
1be
100
AcDbEntity
  8
Outer_Cut
 62
7
100
AcDbLine
 10
61.563494
 20
73.850288
 30
0.0
 11
55.421824
 21
73.850288
 31
0.0
  0
LINE
  5
1bf
100
AcDbEntity
  8
Outer_Cut
 62
7
100
AcDbLine
 10
55.421824
 20
73.850288
 30
0.0
 11
55.421824
 21
73.850288
 31
0.0
  0
LINE
  5
1c0
100
AcDbEntity
  8
Outer_Cut
 62
7
100
AcDbLine
 10
55.421824
 20
73.850288
 30
0.0
 11
49.421820
 21
73.850288
 31
0.0
  0
LINE
  5
1c1
100
AcDbEntity
  8
Outer_Cut
 62
7
100
AcDbLine
 10
49.421820
 20
73.850288
 30
0.0
 11
49.421820
 21
73.850288
 31
0.0
  0
LINE
  5
1c2
100
AcDbEntity
  8
Outer_Cut
 62
7
100
AcDbLine
 10
49.421820
 20
73.850288
 30
0.0
 11
43.280150
 21
73.850288
 31
0.0
  0
LINE
  5
1c3
100
AcDbEntity
  8
Outer_Cut
 62
7
100
AcDbLine
 10
43.280150
 20
73.850288
 30
0.0
 11
43.280150
 21
73.850288
 31
0.0
  0
LINE
  5
1c4
100
AcDbEntity
  8
Outer_Cut
 62
7
100
AcDbLine
 10
43.280150
 20
73.850288
 30
0.0
 11
37.280150
 21
73.850288
 31
0.0
  0
LINE
  5
1c5
100
AcDbEntity
  8
Outer_Cut
 62
7
100
AcDbLine
 10
37.280150
 20
73.850288
 30
0.0
 11
37.280150
 21
73.850288
 31
0.0
  0
LINE
  5
1c6
100
AcDbEntity
  8
Outer_Cut
 62
7
100
AcDbLine
 10
37.280150
 20
73.850288
 30
0.0
 11
31.138490
 21
73.850288
 31
0.0
  0
LINE
  5
1c7
100
AcDbEntity
  8
Outer_Cut
 62
7
100
AcDbLine
 10
31.138490
 20
73.850288
 30
0.0
 11
31.138490
 21
73.850288
 31
0.0
  0
LINE
  5
1c8
100
AcDbEntity
  8
Outer_Cut
 62
7
100
AcDbLine
 10
31.138490
 20
73.850288
 30
0.0
 11
25.138490
 21
73.850288
 31
0.0
  0
LINE
  5
1c9
100
AcDbEntity
  8
Outer_Cut
 62
7
100
AcDbLine
 10
25.138490
 20
73.850288
 30
0.0
 11
25.138490
 21
73.850288
 31
0.0
  0
LINE
  5
1ca
100
AcDbEntity
  8
Outer_Cut
 62
7
100
AcDbLine
 10
25.138490
 20
73.850288
 30
0.0
 11
18.996820
 21
73.850288
 31
0.0
  0
LINE
  5
1cb
100
AcDbEntity
  8
Outer_Cut
 62
7
100
AcDbLine
 10
18.996820
 20
73.850288
 30
0.0
 11
18.996820
 21
73.850288
 31
0.0
  0
LINE
  5
1cc
100
AcDbEntity
  8
Outer_Cut
 62
7
100
AcDbLine
 10
18.996820
 20
73.850288
 30
0.0
 11
12.996824
 21
73.850288
 31
0.0
  0
LINE
  5
1cd
100
AcDbEntity
  8
Outer_Cut
 62
7
100
AcDbLine
 10
12.996824
 20
73.850288
 30
0.0
 11
12.996824
 21
73.850288
 31
0.0
  0
LINE
  5
1ce
100
AcDbEntity
  8
Outer_Cut
 62
7
100
AcDbLine
 10
12.996824
 20
73.850288
 30
0.0
 11
10.035154
 21
73.850288
 31
0.0
  0
LINE
  5
1cf
100
AcDbEntity
  8
Outer_Cut
 62
7
100
AcDbLine
 10
10.035154
 20
73.850288
 30
0.0
 11
10.035154
 21
66.213638
 31
0.0
  0
LINE
  5
1d0
100
AcDbEntity
  8
Outer_Cut
 62
7
100
AcDbLine
 10
10.035154
 20
66.213638
 30
0.0
 11
6.855154
 21
66.213638
 31
0.0
  0
LINE
  5
1d1
100
AcDbEntity
  8
Outer_Cut
 62
7
100
AcDbLine
 10
6.855154
 20
66.213638
 30
0.0
 11
6.855154
 21
60.213638
 31
0.0
  0
LINE
  5
1d2
100
AcDbEntity
  8
Outer_Cut
 62
7
100
AcDbLine
 10
6.855154
 20
60.213638
 30
0.0
 11
10.035154
 21
60.213638
 31
0.0
  0
LINE
  5
1d3
100
AcDbEntity
  8
Outer_Cut
 62
7
100
AcDbLine
 10
10.035154
 20
60.213638
 30
0.0
 11
10.035154
 21
52.571968
 31
0.0
  0
LINE
  5
1d4
100
AcDbEntity
  8
Outer_Cut
 62
7
100
AcDbLine
 10
10.035154
 20
52.571968
 30
0.0
 11
6.855154
 21
52.571968
 31
0.0
  0
LINE
  5
1d5
100
AcDbEntity
  8
Outer_Cut
 62
7
100
AcDbLine
 10
6.855154
 20
52.571968
 30
0.0
 11
6.855154
 21
46.571968
 31
0.0
  0
LINE
  5
1d6
100
AcDbEntity
  8
Outer_Cut
 62
7
100
AcDbLine
 10
6.855154
 20
46.571968
 30
0.0
 11
10.035154
 21
46.571968
 31
0.0
  0
LINE
  5
1d7
100
AcDbEntity
  8
Outer_Cut
 62
7
100
AcDbLine
 10
10.035154
 20
46.571968
 30
0.0
 11
10.035154
 21
42.110308
 31
0.0
  0
LINE
  5
1d8
100
AcDbEntity
  8
Outer_Cut
 62
7
100
AcDbLine
 10
10.035154
 20
42.110308
 30
0.0
 11
12.996824
 21
42.110308
 31
0.0
  0
LINE
  5
1d9
100
AcDbEntity
  8
Outer_Cut
 62
7
100
AcDbLine
 10
12.996824
 20
42.110308
 30
0.0
 11
12.996824
 21
38.930308
 31
0.0
  0
LINE
  5
1da
100
AcDbEntity
  8
Outer_Cut
 62
7
100
AcDbLine
 10
12.996824
 20
38.930308
 30
0.0
 11
18.996820
 21
38.930308
 31
0.0
  0
LINE
  5
1db
100
AcDbEntity
  8
Outer_Cut
 62
7
100
AcDbLine
 10
18.996820
 20
38.930308
 30
0.0
 11
18.996820
 21
42.110308
 31
0.0
  0
LINE
  5
1dc
100
AcDbEntity
  8
Outer_Cut
 62
7
100
AcDbLine
 10
18.996820
 20
42.110308
 30
0.0
 11
25.138490
 21
42.110308
 31
0.0
  0
LINE
  5
1dd
100
AcDbEntity
  8
Outer_Cut
 62
7
100
AcDbLine
 10
25.138490
 20
42.110308
 30
0.0
 11
25.138490
 21
38.930308
 31
0.0
  0
LINE
  5
1de
100
AcDbEntity
  8
Outer_Cut
 62
7
100
AcDbLine
 10
25.138490
 20
38.930308
 30
0.0
 11
31.138490
 21
38.930308
 31
0.0
  0
LINE
  5
1df
100
AcDbEntity
  8
Outer_Cut
 62
7
100
AcDbLine
 10
31.138490
 20
38.930308
 30
0.0
 11
31.138490
 21
42.110308
 31
0.0
  0
LINE
  5
1e0
100
AcDbEntity
  8
Outer_Cut
 62
7
100
AcDbLine
 10
31.138490
 20
42.110308
 30
0.0
 11
37.280150
 21
42.110308
 31
0.0
  0
LINE
  5
1e1
100
AcDbEntity
  8
Outer_Cut
 62
7
100
AcDbLine
 10
37.280150
 20
42.110308
 30
0.0
 11
37.280150
 21
38.930308
 31
0.0
  0
LINE
  5
1e2
100
AcDbEntity
  8
Outer_Cut
 62
7
100
AcDbLine
 10
37.280150
 20
38.930308
 30
0.0
 11
43.280150
 21
38.930308
 31
0.0
  0
LINE
  5
1e3
100
AcDbEntity
  8
Outer_Cut
 62
7
100
AcDbLine
 10
43.280150
 20
38.930308
 30
0.0
 11
43.280150
 21
42.110308
 31
0.0
  0
LINE
  5
1e4
100
AcDbEntity
  8
Outer_Cut
 62
7
100
AcDbLine
 10
43.280150
 20
42.110308
 30
0.0
 11
49.421820
 21
42.110308
 31
0.0
  0
LINE
  5
1e5
100
AcDbEntity
  8
Outer_Cut
 62
7
100
AcDbLine
 10
49.421820
 20
42.110308
 30
0.0
 11
49.421820
 21
38.930308
 31
0.0
  0
LINE
  5
1e6
100
AcDbEntity
  8
Outer_Cut
 62
7
100
AcDbLine
 10
49.421820
 20
38.930308
 30
0.0
 11
55.421824
 21
38.930308
 31
0.0
  0
LINE
  5
1e7
100
AcDbEntity
  8
Outer_Cut
 62
7
100
AcDbLine
 10
55.421824
 20
38.930308
 30
0.0
 11
55.421824
 21
42.110308
 31
0.0
  0
LINE
  5
1e8
100
AcDbEntity
  8
Outer_Cut
 62
7
100
AcDbLine
 10
55.421824
 20
42.110308
 30
0.0
 11
61.563494
 21
42.110308
 31
0.0
  0
LINE
  5
1e9
100
AcDbEntity
  8
Outer_Cut
 62
7
100
AcDbLine
 10
61.563494
 20
42.110308
 30
0.0
 11
61.563494
 21
38.930308
 31
0.0
  0
LINE
  5
1ea
100
AcDbEntity
  8
Outer_Cut
 62
7
100
AcDbLine
 10
61.563494
 20
38.930308
 30
0.0
 11
67.563494
 21
38.930308
 31
0.0
  0
LINE
  5
1eb
100
AcDbEntity
  8
Outer_Cut
 62
7
100
AcDbLine
 10
67.563494
 20
38.930308
 30
0.0
 11
67.563494
 21
42.110308
 31
0.0
  0
LINE
  5
1ec
100
AcDbEntity
  8
Outer_Cut
 62
7
100
AcDbLine
 10
67.563494
 20
42.110308
 30
0.0
 11
73.705153
 21
42.110308
 31
0.0
  0
LINE
  5
1ed
100
AcDbEntity
  8
Outer_Cut
 62
7
100
AcDbLine
 10
73.705153
 20
42.110308
 30
0.0
 11
73.705153
 21
38.930308
 31
0.0
  0
LINE
  5
1ee
100
AcDbEntity
  8
Outer_Cut
 62
7
100
AcDbLine
 10
73.705153
 20
38.930308
 30
0.0
 11
79.705153
 21
38.930308
 31
0.0
  0
LINE
  5
1ef
100
AcDbEntity
  8
Outer_Cut
 62
7
100
AcDbLine
 10
79.705153
 20
38.930308
 30
0.0
 11
79.705153
 21
42.110308
 31
0.0
  0
LINE
  5
1f0
100
AcDbEntity
  8
Outer_Cut
 62
7
100
AcDbLine
 10
79.705153
 20
42.110308
 30
0.0
 11
79.890153
 21
42.110308
 31
0.0
  0
LINE
  5
1f1
100
AcDbEntity
  8
Outer_Cut
 62
7
100
AcDbLine
 10
79.890373
 20
60.184478
 30
0.0
 11
79.890393
 21
66.264858
 31
0.0
  0
LINE
  5
1f2
100
AcDbEntity
  8
Outer_Cut
 62
7
100
AcDbLine
 10
79.890233
 20
46.553728
 30
0.0
 11
79.890313
 21
52.634108
 31
0.0
  0
LINE
  5
1f3
100
AcDbEntity
  8
Outer_Cut
 62
7
100
AcDbLine
 10
98.217493
 20
106.648628
 30
0.0
 11
91.796653
 21
106.648628
 31
0.0
  0
LINE
  5
1f4
100
AcDbEntity
  8
Outer_Cut
 62
7
100
AcDbLine
 10
91.796653
 20
106.648628
 30
0.0
 11
91.796653
 21
109.828628
 31
0.0
  0
LINE
  5
1f5
100
AcDbEntity
  8
Outer_Cut
 62
7
100
AcDbLine
 10
91.796653
 20
109.828628
 30
0.0
 11
85.796653
 21
109.828628
 31
0.0
  0
LINE
  5
1f6
100
AcDbEntity
  8
Outer_Cut
 62
7
100
AcDbLine
 10
85.796653
 20
109.828628
 30
0.0
 11
85.796653
 21
106.648628
 31
0.0
  0
LINE
  5
1f7
100
AcDbEntity
  8
Outer_Cut
 62
7
100
AcDbLine
 10
85.796653
 20
106.648628
 30
0.0
 11
79.375823
 21
106.648628
 31
0.0
  0
LINE
  5
1f8
100
AcDbEntity
  8
Outer_Cut
 62
7
100
AcDbLine
 10
79.375823
 20
106.648628
 30
0.0
 11
79.375823
 21
109.828628
 31
0.0
  0
LINE
  5
1f9
100
AcDbEntity
  8
Outer_Cut
 62
7
100
AcDbLine
 10
79.375823
 20
109.828628
 30
0.0
 11
73.375823
 21
109.828628
 31
0.0
  0
LINE
  5
1fa
100
AcDbEntity
  8
Outer_Cut
 62
7
100
AcDbLine
 10
73.375823
 20
109.828628
 30
0.0
 11
73.375823
 21
106.648628
 31
0.0
  0
LINE
  5
1fb
100
AcDbEntity
  8
Outer_Cut
 62
7
100
AcDbLine
 10
73.375823
 20
106.648628
 30
0.0
 11
66.954985
 21
106.648628
 31
0.0
  0
LINE
  5
1fc
100
AcDbEntity
  8
Outer_Cut
 62
7
100
AcDbLine
 10
66.954985
 20
106.648628
 30
0.0
 11
66.954985
 21
109.828628
 31
0.0
  0
LINE
  5
1fd
100
AcDbEntity
  8
Outer_Cut
 62
7
100
AcDbLine
 10
66.954985
 20
109.828628
 30
0.0
 11
60.954985
 21
109.828628
 31
0.0
  0
LINE
  5
1fe
100
AcDbEntity
  8
Outer_Cut
 62
7
100
AcDbLine
 10
60.954985
 20
109.828628
 30
0.0
 11
60.954985
 21
106.648628
 31
0.0
  0
LINE
  5
1ff
100
AcDbEntity
  8
Outer_Cut
 62
7
100
AcDbLine
 10
60.954985
 20
106.648628
 30
0.0
 11
54.534151
 21
106.648628
 31
0.0
  0
LINE
  5
200
100
AcDbEntity
  8
Outer_Cut
 62
7
100
AcDbLine
 10
54.534151
 20
106.648628
 30
0.0
 11
54.534151
 21
109.828628
 31
0.0
  0
LINE
  5
201
100
AcDbEntity
  8
Outer_Cut
 62
7
100
AcDbLine
 10
54.534151
 20
109.828628
 30
0.0
 11
48.534151
 21
109.828628
 31
0.0
  0
LINE
  5
202
100
AcDbEntity
  8
Outer_Cut
 62
7
100
AcDbLine
 10
48.534151
 20
109.828628
 30
0.0
 11
48.534151
 21
106.648628
 31
0.0
  0
LINE
  5
203
100
AcDbEntity
  8
Outer_Cut
 62
7
100
AcDbLine
 10
48.534151
 20
106.648628
 30
0.0
 11
42.113318
 21
106.648628
 31
0.0
  0
LINE
  5
204
100
AcDbEntity
  8
Outer_Cut
 62
7
100
AcDbLine
 10
42.113318
 20
106.648628
 30
0.0
 11
42.113318
 21
109.828628
 31
0.0
  0
LINE
  5
205
100
AcDbEntity
  8
Outer_Cut
 62
7
100
AcDbLine
 10
42.113318
 20
109.828628
 30
0.0
 11
36.113318
 21
109.828628
 31
0.0
  0
LINE
  5
206
100
AcDbEntity
  8
Outer_Cut
 62
7
100
AcDbLine
 10
36.113318
 20
109.828628
 30
0.0
 11
36.113318
 21
106.648628
 31
0.0
  0
LINE
  5
207
100
AcDbEntity
  8
Outer_Cut
 62
7
100
AcDbLine
 10
36.113318
 20
106.648628
 30
0.0
 11
29.692489
 21
106.648628
 31
0.0
  0
LINE
  5
208
100
AcDbEntity
  8
Outer_Cut
 62
7
100
AcDbLine
 10
29.692489
 20
106.648628
 30
0.0
 11
29.692489
 21
109.828628
 31
0.0
  0
LINE
  5
209
100
AcDbEntity
  8
Outer_Cut
 62
7
100
AcDbLine
 10
29.692489
 20
109.828628
 30
0.0
 11
23.692489
 21
109.828628
 31
0.0
  0
LINE
  5
20a
100
AcDbEntity
  8
Outer_Cut
 62
7
100
AcDbLine
 10
23.692489
 20
109.828628
 30
0.0
 11
23.692489
 21
106.648628
 31
0.0
  0
LINE
  5
20b
100
AcDbEntity
  8
Outer_Cut
 62
7
100
AcDbLine
 10
23.692489
 20
106.648628
 30
0.0
 11
17.271659
 21
106.648628
 31
0.0
  0
LINE
  5
20c
100
AcDbEntity
  8
Outer_Cut
 62
7
100
AcDbLine
 10
17.271659
 20
106.648628
 30
0.0
 11
17.271659
 21
109.828628
 31
0.0
  0
LINE
  5
20d
100
AcDbEntity
  8
Outer_Cut
 62
7
100
AcDbLine
 10
17.271659
 20
109.828628
 30
0.0
 11
11.271659
 21
109.828628
 31
0.0
  0
LINE
  5
20e
100
AcDbEntity
  8
Outer_Cut
 62
7
100
AcDbLine
 10
11.271659
 20
109.828628
 30
0.0
 11
11.271659
 21
106.648628
 31
0.0
  0
LINE
  5
20f
100
AcDbEntity
  8
Outer_Cut
 62
7
100
AcDbLine
 10
11.271659
 20
106.648628
 30
0.0
 11
6.132489
 21
106.648628
 31
0.0
  0
LINE
  5
210
100
AcDbEntity
  8
Outer_Cut
 62
7
100
AcDbLine
 10
6.132489
 20
74.908628
 30
0.0
 11
11.271659
 21
74.908628
 31
0.0
  0
LINE
  5
211
100
AcDbEntity
  8
Outer_Cut
 62
7
100
AcDbLine
 10
11.271659
 20
74.908628
 30
0.0
 11
11.271659
 21
74.908628
 31
0.0
  0
LINE
  5
212
100
AcDbEntity
  8
Outer_Cut
 62
7
100
AcDbLine
 10
11.271659
 20
74.908628
 30
0.0
 11
17.271659
 21
74.908628
 31
0.0
  0
LINE
  5
213
100
AcDbEntity
  8
Outer_Cut
 62
7
100
AcDbLine
 10
17.271659
 20
74.908628
 30
0.0
 11
17.271659
 21
74.908628
 31
0.0
  0
LINE
  5
214
100
AcDbEntity
  8
Outer_Cut
 62
7
100
AcDbLine
 10
17.271659
 20
74.908628
 30
0.0
 11
23.692489
 21
74.908628
 31
0.0
  0
LINE
  5
215
100
AcDbEntity
  8
Outer_Cut
 62
7
100
AcDbLine
 10
23.692489
 20
74.908628
 30
0.0
 11
23.692489
 21
74.908628
 31
0.0
  0
LINE
  5
216
100
AcDbEntity
  8
Outer_Cut
 62
7
100
AcDbLine
 10
23.692489
 20
74.908628
 30
0.0
 11
29.692489
 21
74.908628
 31
0.0
  0
LINE
  5
217
100
AcDbEntity
  8
Outer_Cut
 62
7
100
AcDbLine
 10
29.692489
 20
74.908628
 30
0.0
 11
29.692489
 21
74.908628
 31
0.0
  0
LINE
  5
218
100
AcDbEntity
  8
Outer_Cut
 62
7
100
AcDbLine
 10
29.692489
 20
74.908628
 30
0.0
 11
36.113318
 21
74.908628
 31
0.0
  0
LINE
  5
219
100
AcDbEntity
  8
Outer_Cut
 62
7
100
AcDbLine
 10
36.113318
 20
74.908628
 30
0.0
 11
36.113318
 21
74.908628
 31
0.0
  0
LINE
  5
21a
100
AcDbEntity
  8
Outer_Cut
 62
7
100
AcDbLine
 10
36.113318
 20
74.908628
 30
0.0
 11
42.113318
 21
74.908628
 31
0.0
  0
LINE
  5
21b
100
AcDbEntity
  8
Outer_Cut
 62
7
100
AcDbLine
 10
42.113318
 20
74.908628
 30
0.0
 11
42.113318
 21
74.908628
 31
0.0
  0
LINE
  5
21c
100
AcDbEntity
  8
Outer_Cut
 62
7
100
AcDbLine
 10
42.113318
 20
74.908628
 30
0.0
 11
48.534151
 21
74.908628
 31
0.0
  0
LINE
  5
21d
100
AcDbEntity
  8
Outer_Cut
 62
7
100
AcDbLine
 10
48.534151
 20
74.908628
 30
0.0
 11
48.534151
 21
74.908628
 31
0.0
  0
LINE
  5
21e
100
AcDbEntity
  8
Outer_Cut
 62
7
100
AcDbLine
 10
48.534151
 20
74.908628
 30
0.0
 11
54.534151
 21
74.908628
 31
0.0
  0
LINE
  5
21f
100
AcDbEntity
  8
Outer_Cut
 62
7
100
AcDbLine
 10
54.534151
 20
74.908628
 30
0.0
 11
54.534151
 21
74.908628
 31
0.0
  0
LINE
  5
220
100
AcDbEntity
  8
Outer_Cut
 62
7
100
AcDbLine
 10
54.534151
 20
74.908628
 30
0.0
 11
60.954985
 21
74.908628
 31
0.0
  0
LINE
  5
221
100
AcDbEntity
  8
Outer_Cut
 62
7
100
AcDbLine
 10
60.954985
 20
74.908628
 30
0.0
 11
60.954985
 21
74.908628
 31
0.0
  0
LINE
  5
222
100
AcDbEntity
  8
Outer_Cut
 62
7
100
AcDbLine
 10
60.954985
 20
74.908628
 30
0.0
 11
66.954985
 21
74.908628
 31
0.0
  0
LINE
  5
223
100
AcDbEntity
  8
Outer_Cut
 62
7
100
AcDbLine
 10
66.954985
 20
74.908628
 30
0.0
 11
66.954985
 21
74.908628
 31
0.0
  0
LINE
  5
224
100
AcDbEntity
  8
Outer_Cut
 62
7
100
AcDbLine
 10
66.954985
 20
74.908628
 30
0.0
 11
73.375823
 21
74.908628
 31
0.0
  0
LINE
  5
225
100
AcDbEntity
  8
Outer_Cut
 62
7
100
AcDbLine
 10
73.375823
 20
74.908628
 30
0.0
 11
73.375823
 21
74.908628
 31
0.0
  0
LINE
  5
226
100
AcDbEntity
  8
Outer_Cut
 62
7
100
AcDbLine
 10
73.375823
 20
74.908628
 30
0.0
 11
79.375823
 21
74.908628
 31
0.0
  0
LINE
  5
227
100
AcDbEntity
  8
Outer_Cut
 62
7
100
AcDbLine
 10
79.375823
 20
74.908628
 30
0.0
 11
79.375823
 21
74.908628
 31
0.0
  0
LINE
  5
228
100
AcDbEntity
  8
Outer_Cut
 62
7
100
AcDbLine
 10
79.375823
 20
74.908628
 30
0.0
 11
85.796653
 21
74.908628
 31
0.0
  0
LINE
  5
229
100
AcDbEntity
  8
Outer_Cut
 62
7
100
AcDbLine
 10
85.796653
 20
74.908628
 30
0.0
 11
85.796653
 21
74.908628
 31
0.0
  0
LINE
  5
22a
100
AcDbEntity
  8
Outer_Cut
 62
7
100
AcDbLine
 10
85.796653
 20
74.908628
 30
0.0
 11
91.796653
 21
74.908628
 31
0.0
  0
LINE
  5
22b
100
AcDbEntity
  8
Outer_Cut
 62
7
100
AcDbLine
 10
91.796653
 20
74.908628
 30
0.0
 11
91.796653
 21
74.908628
 31
0.0
  0
LINE
  5
22c
100
AcDbEntity
  8
Outer_Cut
 62
7
100
AcDbLine
 10
91.796653
 20
74.908628
 30
0.0
 11
98.217493
 21
74.908628
 31
0.0
  0
LINE
  5
22d
100
AcDbEntity
  8
Outer_Cut
 62
7
100
AcDbLine
 10
98.217493
 20
78.083628
 30
0.0
 11
98.217493
 21
82.545298
 31
0.0
  0
LINE
  5
22e
100
AcDbEntity
  8
Outer_Cut
 62
7
100
AcDbLine
 10
98.217493
 20
82.545298
 30
0.0
 11
95.037493
 21
82.545298
 31
0.0
  0
LINE
  5
22f
100
AcDbEntity
  8
Outer_Cut
 62
7
100
AcDbLine
 10
95.037493
 20
82.545298
 30
0.0
 11
95.037493
 21
88.545298
 31
0.0
  0
LINE
  5
230
100
AcDbEntity
  8
Outer_Cut
 62
7
100
AcDbLine
 10
95.037493
 20
88.545298
 30
0.0
 11
98.217493
 21
88.545298
 31
0.0
  0
LINE
  5
231
100
AcDbEntity
  8
Outer_Cut
 62
7
100
AcDbLine
 10
98.217493
 20
88.545298
 30
0.0
 11
98.217493
 21
96.186968
 31
0.0
  0
LINE
  5
232
100
AcDbEntity
  8
Outer_Cut
 62
7
100
AcDbLine
 10
98.217493
 20
96.186968
 30
0.0
 11
95.037493
 21
96.186968
 31
0.0
  0
LINE
  5
233
100
AcDbEntity
  8
Outer_Cut
 62
7
100
AcDbLine
 10
95.037493
 20
96.186968
 30
0.0
 11
95.037493
 21
102.186968
 31
0.0
  0
LINE
  5
234
100
AcDbEntity
  8
Outer_Cut
 62
7
100
AcDbLine
 10
95.037493
 20
102.186968
 30
0.0
 11
98.217493
 21
102.186968
 31
0.0
  0
LINE
  5
235
100
AcDbEntity
  8
Outer_Cut
 62
7
100
AcDbLine
 10
98.217493
 20
102.186968
 30
0.0
 11
98.217493
 21
106.648628
 31
0.0
  0
LINE
  5
236
100
AcDbEntity
  8
Outer_Cut
 62
7
100
AcDbLine
 10
9.312489
 20
102.186968
 30
0.0
 11
9.312489
 21
96.186968
 31
0.0
  0
LINE
  5
237
100
AcDbEntity
  8
Outer_Cut
 62
7
100
AcDbLine
 10
9.312489
 20
96.186968
 30
0.0
 11
6.132489
 21
96.186968
 31
0.0
  0
LINE
  5
238
100
AcDbEntity
  8
Outer_Cut
 62
7
100
AcDbLine
 10
6.132489
 20
88.545298
 30
0.0
 11
9.312489
 21
88.545298
 31
0.0
  0
LINE
  5
239
100
AcDbEntity
  8
Outer_Cut
 62
7
100
AcDbLine
 10
9.312489
 20
88.545298
 30
0.0
 11
9.312489
 21
82.545298
 31
0.0
  0
LINE
  5
23a
100
AcDbEntity
  8
Outer_Cut
 62
7
100
AcDbLine
 10
9.312489
 20
82.545298
 30
0.0
 11
6.132489
 21
82.545298
 31
0.0
  0
SPLINE
  5
23b
100
AcDbEntity
  8
Outer_Cut
 62
7
100
AcDbSpline
 70
8
 71
3
 72
8
 73
4
 74
0
 40
0
 40
0
 40
0
 40
0
 40
1
 40
1
 40
1
 40
1
 10
6.132489
 20
106.648628
 30
0.0
 10
6.132229
 20
105.161678
 30
0.0
 10
6.132229
 20
103.674458
 30
0.0
 10
6.132489
 20
102.186968
 30
0.0
  0
SPLINE
  5
23c
100
AcDbEntity
  8
Outer_Cut
 62
7
100
AcDbSpline
 70
8
 71
3
 72
8
 73
4
 74
0
 40
0
 40
0
 40
0
 40
0
 40
1
 40
1
 40
1
 40
1
 10
6.132489
 20
96.186968
 30
0.0
 10
6.132229
 20
93.640008
 30
0.0
 10
6.132229
 20
91.092788
 30
0.0
 10
6.132489
 20
88.545298
 30
0.0
  0
SPLINE
  5
23d
100
AcDbEntity
  8
Outer_Cut
 62
7
100
AcDbSpline
 70
8
 71
3
 72
8
 73
4
 74
0
 40
0
 40
0
 40
0
 40
0
 40
1
 40
1
 40
1
 40
1
 10
98.217493
 20
82.545298
 30
0.0
 10
98.217223
 20
80.000008
 30
0.0
 10
98.217223
 20
77.454448
 30
0.0
 10
98.217493
 20
74.908628
 30
0.0
  0
SPLINE
  5
23e
100
AcDbEntity
  8
Outer_Cut
 62
7
100
AcDbSpline
 70
8
 71
3
 72
8
 73
4
 74
0
 40
0
 40
0
 40
0
 40
0
 40
1
 40
1
 40
1
 40
1
 10
9.312489
 20
102.186968
 30
0.0
 10
8.252229
 20
102.187238
 30
0.0
 10
7.192229
 20
102.187238
 30
0.0
 10
6.132489
 20
102.186968
 30
0.0
  0
SPLINE
  5
23f
100
AcDbEntity
  8
Outer_Cut
 62
7
100
AcDbSpline
 70
8
 71
3
 72
8
 73
4
 74
0
 40
0
 40
0
 40
0
 40
0
 40
1
 40
1
 40
1
 40
1
 10
6.132489
 20
82.545298
 30
0.0
 10
6.132229
 20
80.000008
 30
0.0
 10
6.132229
 20
77.454448
 30
0.0
 10
6.132489
 20
74.908628
 30
0.0
  0
LINE
  5
240
100
AcDbEntity
  8
Outer_Cut
 62
7
100
AcDbLine
 10
298.180103
 20
106.648628
 30
0.0
 11
293.040943
 21
106.648628
 31
0.0
  0
LINE
  5
241
100
AcDbEntity
  8
Outer_Cut
 62
7
100
AcDbLine
 10
293.040943
 20
106.648628
 30
0.0
 11
293.040943
 21
109.828628
 31
0.0
  0
LINE
  5
242
100
AcDbEntity
  8
Outer_Cut
 62
7
100
AcDbLine
 10
293.040943
 20
109.828628
 30
0.0
 11
287.040943
 21
109.828628
 31
0.0
  0
LINE
  5
243
100
AcDbEntity
  8
Outer_Cut
 62
7
100
AcDbLine
 10
287.040943
 20
109.828628
 30
0.0
 11
287.040943
 21
106.648628
 31
0.0
  0
LINE
  5
244
100
AcDbEntity
  8
Outer_Cut
 62
7
100
AcDbLine
 10
287.040943
 20
106.648628
 30
0.0
 11
280.620113
 21
106.648628
 31
0.0
  0
LINE
  5
245
100
AcDbEntity
  8
Outer_Cut
 62
7
100
AcDbLine
 10
280.620113
 20
106.648628
 30
0.0
 11
280.620113
 21
109.828628
 31
0.0
  0
LINE
  5
246
100
AcDbEntity
  8
Outer_Cut
 62
7
100
AcDbLine
 10
280.620113
 20
109.828628
 30
0.0
 11
274.620113
 21
109.828628
 31
0.0
  0
LINE
  5
247
100
AcDbEntity
  8
Outer_Cut
 62
7
100
AcDbLine
 10
274.620113
 20
109.828628
 30
0.0
 11
274.620113
 21
106.648628
 31
0.0
  0
LINE
  5
248
100
AcDbEntity
  8
Outer_Cut
 62
7
100
AcDbLine
 10
274.620113
 20
106.648628
 30
0.0
 11
268.199273
 21
106.648628
 31
0.0
  0
LINE
  5
249
100
AcDbEntity
  8
Outer_Cut
 62
7
100
AcDbLine
 10
268.199273
 20
106.648628
 30
0.0
 11
268.199273
 21
109.828628
 31
0.0
  0
LINE
  5
24a
100
AcDbEntity
  8
Outer_Cut
 62
7
100
AcDbLine
 10
268.199273
 20
109.828628
 30
0.0
 11
262.199273
 21
109.828628
 31
0.0
  0
LINE
  5
24b
100
AcDbEntity
  8
Outer_Cut
 62
7
100
AcDbLine
 10
262.199273
 20
109.828628
 30
0.0
 11
262.199273
 21
106.648628
 31
0.0
  0
LINE
  5
24c
100
AcDbEntity
  8
Outer_Cut
 62
7
100
AcDbLine
 10
262.199273
 20
106.648628
 30
0.0
 11
255.778443
 21
106.648628
 31
0.0
  0
LINE
  5
24d
100
AcDbEntity
  8
Outer_Cut
 62
7
100
AcDbLine
 10
255.778443
 20
106.648628
 30
0.0
 11
255.778443
 21
109.828628
 31
0.0
  0
LINE
  5
24e
100
AcDbEntity
  8
Outer_Cut
 62
7
100
AcDbLine
 10
255.778443
 20
109.828628
 30
0.0
 11
249.778443
 21
109.828628
 31
0.0
  0
LINE
  5
24f
100
AcDbEntity
  8
Outer_Cut
 62
7
100
AcDbLine
 10
249.778443
 20
109.828628
 30
0.0
 11
249.778443
 21
106.648628
 31
0.0
  0
LINE
  5
250
100
AcDbEntity
  8
Outer_Cut
 62
7
100
AcDbLine
 10
249.778443
 20
106.648628
 30
0.0
 11
243.357613
 21
106.648628
 31
0.0
  0
LINE
  5
251
100
AcDbEntity
  8
Outer_Cut
 62
7
100
AcDbLine
 10
243.357613
 20
106.648628
 30
0.0
 11
243.357613
 21
109.828628
 31
0.0
  0
LINE
  5
252
100
AcDbEntity
  8
Outer_Cut
 62
7
100
AcDbLine
 10
243.357613
 20
109.828628
 30
0.0
 11
237.357613
 21
109.828628
 31
0.0
  0
LINE
  5
253
100
AcDbEntity
  8
Outer_Cut
 62
7
100
AcDbLine
 10
237.357613
 20
109.828628
 30
0.0
 11
237.357613
 21
106.648628
 31
0.0
  0
LINE
  5
254
100
AcDbEntity
  8
Outer_Cut
 62
7
100
AcDbLine
 10
237.357613
 20
106.648628
 30
0.0
 11
230.936773
 21
106.648628
 31
0.0
  0
LINE
  5
255
100
AcDbEntity
  8
Outer_Cut
 62
7
100
AcDbLine
 10
230.936773
 20
106.648628
 30
0.0
 11
230.936773
 21
109.828628
 31
0.0
  0
LINE
  5
256
100
AcDbEntity
  8
Outer_Cut
 62
7
100
AcDbLine
 10
230.936773
 20
109.828628
 30
0.0
 11
224.936773
 21
109.828628
 31
0.0
  0
LINE
  5
257
100
AcDbEntity
  8
Outer_Cut
 62
7
100
AcDbLine
 10
224.936773
 20
109.828628
 30
0.0
 11
224.936773
 21
106.648628
 31
0.0
  0
LINE
  5
258
100
AcDbEntity
  8
Outer_Cut
 62
7
100
AcDbLine
 10
224.936773
 20
106.648628
 30
0.0
 11
218.515943
 21
106.648628
 31
0.0
  0
LINE
  5
259
100
AcDbEntity
  8
Outer_Cut
 62
7
100
AcDbLine
 10
218.515943
 20
106.648628
 30
0.0
 11
218.515943
 21
109.828628
 31
0.0
  0
LINE
  5
25a
100
AcDbEntity
  8
Outer_Cut
 62
7
100
AcDbLine
 10
218.515943
 20
109.828628
 30
0.0
 11
212.515943
 21
109.828628
 31
0.0
  0
LINE
  5
25b
100
AcDbEntity
  8
Outer_Cut
 62
7
100
AcDbLine
 10
212.515943
 20
109.828628
 30
0.0
 11
212.515943
 21
106.648628
 31
0.0
  0
LINE
  5
25c
100
AcDbEntity
  8
Outer_Cut
 62
7
100
AcDbLine
 10
212.515943
 20
106.648628
 30
0.0
 11
206.095103
 21
106.648628
 31
0.0
  0
LINE
  5
25d
100
AcDbEntity
  8
Outer_Cut
 62
7
100
AcDbLine
 10
206.095103
 20
106.648628
 30
0.0
 11
206.095103
 21
102.186968
 31
0.0
  0
LINE
  5
25e
100
AcDbEntity
  8
Outer_Cut
 62
7
100
AcDbLine
 10
206.095103
 20
102.186968
 30
0.0
 11
209.275103
 21
102.186968
 31
0.0
  0
LINE
  5
25f
100
AcDbEntity
  8
Outer_Cut
 62
7
100
AcDbLine
 10
209.275103
 20
102.186968
 30
0.0
 11
209.275103
 21
96.186968
 31
0.0
  0
LINE
  5
260
100
AcDbEntity
  8
Outer_Cut
 62
7
100
AcDbLine
 10
209.275103
 20
96.186968
 30
0.0
 11
206.095103
 21
96.186968
 31
0.0
  0
LINE
  5
261
100
AcDbEntity
  8
Outer_Cut
 62
7
100
AcDbLine
 10
206.095103
 20
96.186968
 30
0.0
 11
206.095103
 21
88.545298
 31
0.0
  0
LINE
  5
262
100
AcDbEntity
  8
Outer_Cut
 62
7
100
AcDbLine
 10
206.095103
 20
88.545298
 30
0.0
 11
209.275103
 21
88.545298
 31
0.0
  0
LINE
  5
263
100
AcDbEntity
  8
Outer_Cut
 62
7
100
AcDbLine
 10
209.275103
 20
88.545298
 30
0.0
 11
209.275103
 21
82.545298
 31
0.0
  0
LINE
  5
264
100
AcDbEntity
  8
Outer_Cut
 62
7
100
AcDbLine
 10
209.275103
 20
82.545298
 30
0.0
 11
206.095103
 21
82.545298
 31
0.0
  0
LINE
  5
265
100
AcDbEntity
  8
Outer_Cut
 62
7
100
AcDbLine
 10
206.095103
 20
82.545298
 30
0.0
 11
206.095103
 21
74.908628
 31
0.0
  0
LINE
  5
266
100
AcDbEntity
  8
Outer_Cut
 62
7
100
AcDbLine
 10
206.095103
 20
74.908628
 30
0.0
 11
212.515943
 21
74.908628
 31
0.0
  0
LINE
  5
267
100
AcDbEntity
  8
Outer_Cut
 62
7
100
AcDbLine
 10
212.515943
 20
74.908628
 30
0.0
 11
212.515943
 21
74.908628
 31
0.0
  0
LINE
  5
268
100
AcDbEntity
  8
Outer_Cut
 62
7
100
AcDbLine
 10
212.515943
 20
74.908628
 30
0.0
 11
218.515943
 21
74.908628
 31
0.0
  0
LINE
  5
269
100
AcDbEntity
  8
Outer_Cut
 62
7
100
AcDbLine
 10
218.515943
 20
74.908628
 30
0.0
 11
218.515943
 21
74.908628
 31
0.0
  0
LINE
  5
26a
100
AcDbEntity
  8
Outer_Cut
 62
7
100
AcDbLine
 10
218.515943
 20
74.908628
 30
0.0
 11
224.936773
 21
74.908628
 31
0.0
  0
LINE
  5
26b
100
AcDbEntity
  8
Outer_Cut
 62
7
100
AcDbLine
 10
224.936773
 20
74.908628
 30
0.0
 11
224.936773
 21
74.908628
 31
0.0
  0
LINE
  5
26c
100
AcDbEntity
  8
Outer_Cut
 62
7
100
AcDbLine
 10
224.936773
 20
74.908628
 30
0.0
 11
230.936773
 21
74.908628
 31
0.0
  0
LINE
  5
26d
100
AcDbEntity
  8
Outer_Cut
 62
7
100
AcDbLine
 10
230.936773
 20
74.908628
 30
0.0
 11
230.936773
 21
74.908628
 31
0.0
  0
LINE
  5
26e
100
AcDbEntity
  8
Outer_Cut
 62
7
100
AcDbLine
 10
230.936773
 20
74.908628
 30
0.0
 11
237.357613
 21
74.908628
 31
0.0
  0
LINE
  5
26f
100
AcDbEntity
  8
Outer_Cut
 62
7
100
AcDbLine
 10
237.357613
 20
74.908628
 30
0.0
 11
237.357613
 21
74.908628
 31
0.0
  0
LINE
  5
270
100
AcDbEntity
  8
Outer_Cut
 62
7
100
AcDbLine
 10
237.357613
 20
74.908628
 30
0.0
 11
243.357613
 21
74.908628
 31
0.0
  0
LINE
  5
271
100
AcDbEntity
  8
Outer_Cut
 62
7
100
AcDbLine
 10
243.357613
 20
74.908628
 30
0.0
 11
243.357613
 21
74.908628
 31
0.0
  0
LINE
  5
272
100
AcDbEntity
  8
Outer_Cut
 62
7
100
AcDbLine
 10
243.357613
 20
74.908628
 30
0.0
 11
249.778443
 21
74.908628
 31
0.0
  0
LINE
  5
273
100
AcDbEntity
  8
Outer_Cut
 62
7
100
AcDbLine
 10
249.778443
 20
74.908628
 30
0.0
 11
249.778443
 21
74.908628
 31
0.0
  0
LINE
  5
274
100
AcDbEntity
  8
Outer_Cut
 62
7
100
AcDbLine
 10
249.778443
 20
74.908628
 30
0.0
 11
255.778443
 21
74.908628
 31
0.0
  0
LINE
  5
275
100
AcDbEntity
  8
Outer_Cut
 62
7
100
AcDbLine
 10
255.778443
 20
74.908628
 30
0.0
 11
255.778443
 21
74.908628
 31
0.0
  0
LINE
  5
276
100
AcDbEntity
  8
Outer_Cut
 62
7
100
AcDbLine
 10
255.778443
 20
74.908628
 30
0.0
 11
262.199273
 21
74.908628
 31
0.0
  0
LINE
  5
277
100
AcDbEntity
  8
Outer_Cut
 62
7
100
AcDbLine
 10
262.199273
 20
74.908628
 30
0.0
 11
262.199273
 21
74.908628
 31
0.0
  0
LINE
  5
278
100
AcDbEntity
  8
Outer_Cut
 62
7
100
AcDbLine
 10
262.199273
 20
74.908628
 30
0.0
 11
268.199273
 21
74.908628
 31
0.0
  0
LINE
  5
279
100
AcDbEntity
  8
Outer_Cut
 62
7
100
AcDbLine
 10
268.199273
 20
74.908628
 30
0.0
 11
268.199273
 21
74.908628
 31
0.0
  0
LINE
  5
27a
100
AcDbEntity
  8
Outer_Cut
 62
7
100
AcDbLine
 10
268.199273
 20
74.908628
 30
0.0
 11
274.620113
 21
74.908628
 31
0.0
  0
LINE
  5
27b
100
AcDbEntity
  8
Outer_Cut
 62
7
100
AcDbLine
 10
274.620113
 20
74.908628
 30
0.0
 11
274.620113
 21
74.908628
 31
0.0
  0
LINE
  5
27c
100
AcDbEntity
  8
Outer_Cut
 62
7
100
AcDbLine
 10
274.620113
 20
74.908628
 30
0.0
 11
280.620113
 21
74.908628
 31
0.0
  0
LINE
  5
27d
100
AcDbEntity
  8
Outer_Cut
 62
7
100
AcDbLine
 10
280.620113
 20
74.908628
 30
0.0
 11
280.620113
 21
74.908628
 31
0.0
  0
LINE
  5
27e
100
AcDbEntity
  8
Outer_Cut
 62
7
100
AcDbLine
 10
280.620113
 20
74.908628
 30
0.0
 11
287.040943
 21
74.908628
 31
0.0
  0
LINE
  5
27f
100
AcDbEntity
  8
Outer_Cut
 62
7
100
AcDbLine
 10
287.040943
 20
74.908628
 30
0.0
 11
287.040943
 21
74.908628
 31
0.0
  0
LINE
  5
280
100
AcDbEntity
  8
Outer_Cut
 62
7
100
AcDbLine
 10
287.040943
 20
74.908628
 30
0.0
 11
293.040943
 21
74.908628
 31
0.0
  0
LINE
  5
281
100
AcDbEntity
  8
Outer_Cut
 62
7
100
AcDbLine
 10
293.040943
 20
74.908628
 30
0.0
 11
293.040943
 21
74.908628
 31
0.0
  0
LINE
  5
282
100
AcDbEntity
  8
Outer_Cut
 62
7
100
AcDbLine
 10
293.040943
 20
74.908628
 30
0.0
 11
298.180103
 21
74.908628
 31
0.0
  0
LINE
  5
283
100
AcDbEntity
  8
Outer_Cut
 62
7
100
AcDbLine
 10
295.000103
 20
96.186968
 30
0.0
 11
295.000103
 21
102.186968
 31
0.0
  0
LINE
  5
284
100
AcDbEntity
  8
Outer_Cut
 62
7
100
AcDbLine
 10
295.000103
 20
102.186968
 30
0.0
 11
298.180103
 21
102.186968
 31
0.0
  0
LINE
  5
285
100
AcDbEntity
  8
Outer_Cut
 62
7
100
AcDbLine
 10
295.000103
 20
82.545298
 30
0.0
 11
295.000103
 21
88.545298
 31
0.0
  0
LINE
  5
286
100
AcDbEntity
  8
Outer_Cut
 62
7
100
AcDbLine
 10
295.000103
 20
88.545298
 30
0.0
 11
298.180103
 21
88.545298
 31
0.0
  0
SPLINE
  5
287
100
AcDbEntity
  8
Outer_Cut
 62
7
100
AcDbSpline
 70
8
 71
3
 72
8
 73
4
 74
0
 40
0
 40
0
 40
0
 40
0
 40
1
 40
1
 40
1
 40
1
 10
298.180103
 20
102.186968
 30
0.0
 10
298.179843
 20
103.674458
 30
0.0
 10
298.179843
 20
105.161678
 30
0.0
 10
298.180103
 20
106.648628
 30
0.0
  0
SPLINE
  5
288
100
AcDbEntity
  8
Outer_Cut
 62
7
100
AcDbSpline
 70
8
 71
3
 72
8
 73
4
 74
0
 40
0
 40
0
 40
0
 40
0
 40
1
 40
1
 40
1
 40
1
 10
298.180103
 20
74.908628
 30
0.0
 10
298.197203
 20
77.454448
 30
0.0
 10
298.214603
 20
80.000008
 30
0.0
 10
298.232303
 20
82.545298
 30
0.0
  0
SPLINE
  5
289
100
AcDbEntity
  8
Outer_Cut
 62
7
100
AcDbSpline
 70
8
 71
3
 72
8
 73
4
 74
0
 40
0
 40
0
 40
0
 40
0
 40
1
 40
1
 40
1
 40
1
 10
295.000103
 20
82.545298
 30
0.0
 10
296.077243
 20
82.545568
 30
0.0
 10
297.154633
 20
82.545568
 30
0.0
 10
298.232303
 20
82.545298
 30
0.0
  0
SPLINE
  5
28a
100
AcDbEntity
  8
Outer_Cut
 62
7
100
AcDbSpline
 70
8
 71
3
 72
8
 73
4
 74
0
 40
0
 40
0
 40
0
 40
0
 40
1
 40
1
 40
1
 40
1
 10
298.180103
 20
88.545298
 30
0.0
 10
298.197203
 20
91.092788
 30
0.0
 10
298.214603
 20
93.640008
 30
0.0
 10
298.232303
 20
96.186968
 30
0.0
  0
SPLINE
  5
28b
100
AcDbEntity
  8
Outer_Cut
 62
7
100
AcDbSpline
 70
8
 71
3
 72
8
 73
4
 74
0
 40
0
 40
0
 40
0
 40
0
 40
1
 40
1
 40
1
 40
1
 10
295.000103
 20
96.186968
 30
0.0
 10
296.077243
 20
96.187238
 30
0.0
 10
297.154633
 20
96.187238
 30
0.0
 10
298.232303
 20
96.186968
 30
0.0
  0
LINE
  5
28c
100
AcDbEntity
  8
Outer_Cut
 62
7
100
AcDbLine
 10
98.746514
 20
141.210788
 30
0.0
 11
106.383314
 21
141.210788
 31
0.0
  0
LINE
  5
28d
100
AcDbEntity
  8
Outer_Cut
 62
7
100
AcDbLine
 10
106.383314
 20
141.210788
 30
0.0
 11
106.383314
 21
144.390788
 31
0.0
  0
LINE
  5
28e
100
AcDbEntity
  8
Outer_Cut
 62
7
100
AcDbLine
 10
106.383314
 20
144.390788
 30
0.0
 11
112.383314
 21
144.390788
 31
0.0
  0
LINE
  5
28f
100
AcDbEntity
  8
Outer_Cut
 62
7
100
AcDbLine
 10
112.383314
 20
144.390788
 30
0.0
 11
112.383314
 21
141.210788
 31
0.0
  0
LINE
  5
290
100
AcDbEntity
  8
Outer_Cut
 62
7
100
AcDbLine
 10
112.383314
 20
141.210788
 30
0.0
 11
120.024984
 21
141.210788
 31
0.0
  0
LINE
  5
291
100
AcDbEntity
  8
Outer_Cut
 62
7
100
AcDbLine
 10
120.024984
 20
141.210788
 30
0.0
 11
120.024984
 21
144.390788
 31
0.0
  0
LINE
  5
292
100
AcDbEntity
  8
Outer_Cut
 62
7
100
AcDbLine
 10
120.024984
 20
144.390788
 30
0.0
 11
126.024984
 21
144.390788
 31
0.0
  0
LINE
  5
293
100
AcDbEntity
  8
Outer_Cut
 62
7
100
AcDbLine
 10
126.024984
 20
144.390788
 30
0.0
 11
126.024984
 21
141.210788
 31
0.0
  0
LINE
  5
294
100
AcDbEntity
  8
Outer_Cut
 62
7
100
AcDbLine
 10
126.024984
 20
141.210788
 30
0.0
 11
130.486644
 21
141.210788
 31
0.0
  0
LINE
  5
295
100
AcDbEntity
  8
Outer_Cut
 62
7
100
AcDbLine
 10
130.486644
 20
141.210788
 30
0.0
 11
130.486644
 21
138.249118
 31
0.0
  0
LINE
  5
296
100
AcDbEntity
  8
Outer_Cut
 62
7
100
AcDbLine
 10
130.486644
 20
138.249118
 30
0.0
 11
133.666644
 21
138.249118
 31
0.0
  0
LINE
  5
297
100
AcDbEntity
  8
Outer_Cut
 62
7
100
AcDbLine
 10
133.666644
 20
138.249118
 30
0.0
 11
133.666644
 21
132.249118
 31
0.0
  0
LINE
  5
298
100
AcDbEntity
  8
Outer_Cut
 62
7
100
AcDbLine
 10
133.666644
 20
132.249118
 30
0.0
 11
130.486644
 21
132.249118
 31
0.0
  0
LINE
  5
299
100
AcDbEntity
  8
Outer_Cut
 62
7
100
AcDbLine
 10
130.486644
 20
132.249118
 30
0.0
 11
130.486644
 21
126.107448
 31
0.0
  0
LINE
  5
29a
100
AcDbEntity
  8
Outer_Cut
 62
7
100
AcDbLine
 10
130.486644
 20
126.107448
 30
0.0
 11
133.666644
 21
126.107448
 31
0.0
  0
LINE
  5
29b
100
AcDbEntity
  8
Outer_Cut
 62
7
100
AcDbLine
 10
133.666644
 20
126.107448
 30
0.0
 11
133.666644
 21
120.107448
 31
0.0
  0
LINE
  5
29c
100
AcDbEntity
  8
Outer_Cut
 62
7
100
AcDbLine
 10
133.666644
 20
120.107448
 30
0.0
 11
130.486644
 21
120.107448
 31
0.0
  0
LINE
  5
29d
100
AcDbEntity
  8
Outer_Cut
 62
7
100
AcDbLine
 10
130.486644
 20
120.107448
 30
0.0
 11
130.486644
 21
113.965788
 31
0.0
  0
LINE
  5
29e
100
AcDbEntity
  8
Outer_Cut
 62
7
100
AcDbLine
 10
130.486644
 20
113.965788
 30
0.0
 11
133.666644
 21
113.965788
 31
0.0
  0
LINE
  5
29f
100
AcDbEntity
  8
Outer_Cut
 62
7
100
AcDbLine
 10
133.666644
 20
113.965788
 30
0.0
 11
133.666644
 21
107.965788
 31
0.0
  0
LINE
  5
2a0
100
AcDbEntity
  8
Outer_Cut
 62
7
100
AcDbLine
 10
133.666644
 20
107.965788
 30
0.0
 11
130.486644
 21
107.965788
 31
0.0
  0
LINE
  5
2a1
100
AcDbEntity
  8
Outer_Cut
 62
7
100
AcDbLine
 10
130.486644
 20
107.965788
 30
0.0
 11
130.486644
 21
101.824118
 31
0.0
  0
LINE
  5
2a2
100
AcDbEntity
  8
Outer_Cut
 62
7
100
AcDbLine
 10
130.486644
 20
101.824118
 30
0.0
 11
133.666644
 21
101.824118
 31
0.0
  0
LINE
  5
2a3
100
AcDbEntity
  8
Outer_Cut
 62
7
100
AcDbLine
 10
133.666644
 20
101.824118
 30
0.0
 11
133.666644
 21
95.824118
 31
0.0
  0
LINE
  5
2a4
100
AcDbEntity
  8
Outer_Cut
 62
7
100
AcDbLine
 10
133.666644
 20
95.824118
 30
0.0
 11
130.486644
 21
95.824118
 31
0.0
  0
LINE
  5
2a5
100
AcDbEntity
  8
Outer_Cut
 62
7
100
AcDbLine
 10
130.486644
 20
95.824118
 30
0.0
 11
130.486644
 21
89.682448
 31
0.0
  0
LINE
  5
2a6
100
AcDbEntity
  8
Outer_Cut
 62
7
100
AcDbLine
 10
130.486644
 20
89.682448
 30
0.0
 11
133.666644
 21
89.682448
 31
0.0
  0
LINE
  5
2a7
100
AcDbEntity
  8
Outer_Cut
 62
7
100
AcDbLine
 10
133.666644
 20
89.682448
 30
0.0
 11
133.666644
 21
83.682448
 31
0.0
  0
LINE
  5
2a8
100
AcDbEntity
  8
Outer_Cut
 62
7
100
AcDbLine
 10
133.666644
 20
83.682448
 30
0.0
 11
130.486644
 21
83.682448
 31
0.0
  0
LINE
  5
2a9
100
AcDbEntity
  8
Outer_Cut
 62
7
100
AcDbLine
 10
130.486644
 20
83.682448
 30
0.0
 11
130.486644
 21
77.540788
 31
0.0
  0
LINE
  5
2aa
100
AcDbEntity
  8
Outer_Cut
 62
7
100
AcDbLine
 10
130.486644
 20
77.540788
 30
0.0
 11
133.666644
 21
77.540788
 31
0.0
  0
LINE
  5
2ab
100
AcDbEntity
  8
Outer_Cut
 62
7
100
AcDbLine
 10
133.666644
 20
77.540788
 30
0.0
 11
133.666644
 21
71.540788
 31
0.0
  0
LINE
  5
2ac
100
AcDbEntity
  8
Outer_Cut
 62
7
100
AcDbLine
 10
133.666644
 20
71.540788
 30
0.0
 11
130.486644
 21
71.540788
 31
0.0
  0
LINE
  5
2ad
100
AcDbEntity
  8
Outer_Cut
 62
7
100
AcDbLine
 10
130.486644
 20
71.540788
 30
0.0
 11
130.486644
 21
65.399118
 31
0.0
  0
LINE
  5
2ae
100
AcDbEntity
  8
Outer_Cut
 62
7
100
AcDbLine
 10
130.486644
 20
65.399118
 30
0.0
 11
133.666644
 21
65.399118
 31
0.0
  0
LINE
  5
2af
100
AcDbEntity
  8
Outer_Cut
 62
7
100
AcDbLine
 10
133.666644
 20
65.399118
 30
0.0
 11
133.666644
 21
59.399118
 31
0.0
  0
LINE
  5
2b0
100
AcDbEntity
  8
Outer_Cut
 62
7
100
AcDbLine
 10
133.666644
 20
59.399118
 30
0.0
 11
130.486644
 21
59.399118
 31
0.0
  0
LINE
  5
2b1
100
AcDbEntity
  8
Outer_Cut
 62
7
100
AcDbLine
 10
130.486644
 20
59.399118
 30
0.0
 11
130.486644
 21
53.257448
 31
0.0
  0
LINE
  5
2b2
100
AcDbEntity
  8
Outer_Cut
 62
7
100
AcDbLine
 10
130.486644
 20
53.257448
 30
0.0
 11
133.666644
 21
53.257448
 31
0.0
  0
LINE
  5
2b3
100
AcDbEntity
  8
Outer_Cut
 62
7
100
AcDbLine
 10
133.666644
 20
53.257448
 30
0.0
 11
133.666644
 21
47.257448
 31
0.0
  0
LINE
  5
2b4
100
AcDbEntity
  8
Outer_Cut
 62
7
100
AcDbLine
 10
133.666644
 20
47.257448
 30
0.0
 11
130.486644
 21
47.257448
 31
0.0
  0
LINE
  5
2b5
100
AcDbEntity
  8
Outer_Cut
 62
7
100
AcDbLine
 10
130.486644
 20
47.257448
 30
0.0
 11
130.486644
 21
41.115788
 31
0.0
  0
LINE
  5
2b6
100
AcDbEntity
  8
Outer_Cut
 62
7
100
AcDbLine
 10
130.486644
 20
41.115788
 30
0.0
 11
133.666644
 21
41.115788
 31
0.0
  0
LINE
  5
2b7
100
AcDbEntity
  8
Outer_Cut
 62
7
100
AcDbLine
 10
133.666644
 20
41.115788
 30
0.0
 11
133.666644
 21
35.115788
 31
0.0
  0
LINE
  5
2b8
100
AcDbEntity
  8
Outer_Cut
 62
7
100
AcDbLine
 10
133.666644
 20
35.115788
 30
0.0
 11
130.486644
 21
35.115788
 31
0.0
  0
LINE
  5
2b9
100
AcDbEntity
  8
Outer_Cut
 62
7
100
AcDbLine
 10
130.486644
 20
35.115788
 30
0.0
 11
130.486644
 21
28.974118
 31
0.0
  0
LINE
  5
2ba
100
AcDbEntity
  8
Outer_Cut
 62
7
100
AcDbLine
 10
130.486644
 20
28.974118
 30
0.0
 11
133.666644
 21
28.974118
 31
0.0
  0
LINE
  5
2bb
100
AcDbEntity
  8
Outer_Cut
 62
7
100
AcDbLine
 10
133.666644
 20
28.974118
 30
0.0
 11
133.666644
 21
22.974118
 31
0.0
  0
LINE
  5
2bc
100
AcDbEntity
  8
Outer_Cut
 62
7
100
AcDbLine
 10
133.666644
 20
22.974118
 30
0.0
 11
130.486644
 21
22.974118
 31
0.0
  0
LINE
  5
2bd
100
AcDbEntity
  8
Outer_Cut
 62
7
100
AcDbLine
 10
130.486644
 20
22.974118
 30
0.0
 11
130.486644
 21
16.832448
 31
0.0
  0
LINE
  5
2be
100
AcDbEntity
  8
Outer_Cut
 62
7
100
AcDbLine
 10
130.486644
 20
16.832448
 30
0.0
 11
133.666644
 21
16.832448
 31
0.0
  0
LINE
  5
2bf
100
AcDbEntity
  8
Outer_Cut
 62
7
100
AcDbLine
 10
133.666644
 20
16.832448
 30
0.0
 11
133.666644
 21
10.832448
 31
0.0
  0
LINE
  5
2c0
100
AcDbEntity
  8
Outer_Cut
 62
7
100
AcDbLine
 10
133.666644
 20
10.832448
 30
0.0
 11
130.486644
 21
10.832448
 31
0.0
  0
LINE
  5
2c1
100
AcDbEntity
  8
Outer_Cut
 62
7
100
AcDbLine
 10
130.486644
 20
10.832448
 30
0.0
 11
130.486644
 21
7.870788
 31
0.0
  0
LINE
  5
2c2
100
AcDbEntity
  8
Outer_Cut
 62
7
100
AcDbLine
 10
130.486644
 20
7.870788
 30
0.0
 11
126.024984
 21
7.870788
 31
0.0
  0
LINE
  5
2c3
100
AcDbEntity
  8
Outer_Cut
 62
7
100
AcDbLine
 10
126.024984
 20
7.870788
 30
0.0
 11
126.024984
 21
4.690788
 31
0.0
  0
LINE
  5
2c4
100
AcDbEntity
  8
Outer_Cut
 62
7
100
AcDbLine
 10
126.024984
 20
4.690788
 30
0.0
 11
120.024984
 21
4.690788
 31
0.0
  0
LINE
  5
2c5
100
AcDbEntity
  8
Outer_Cut
 62
7
100
AcDbLine
 10
120.024984
 20
4.690788
 30
0.0
 11
120.024984
 21
7.870788
 31
0.0
  0
LINE
  5
2c6
100
AcDbEntity
  8
Outer_Cut
 62
7
100
AcDbLine
 10
120.024984
 20
7.870788
 30
0.0
 11
112.383314
 21
7.870788
 31
0.0
  0
LINE
  5
2c7
100
AcDbEntity
  8
Outer_Cut
 62
7
100
AcDbLine
 10
112.383314
 20
7.870788
 30
0.0
 11
112.383314
 21
4.690788
 31
0.0
  0
LINE
  5
2c8
100
AcDbEntity
  8
Outer_Cut
 62
7
100
AcDbLine
 10
112.383314
 20
4.690788
 30
0.0
 11
106.383314
 21
4.690788
 31
0.0
  0
LINE
  5
2c9
100
AcDbEntity
  8
Outer_Cut
 62
7
100
AcDbLine
 10
106.383314
 20
4.690788
 30
0.0
 11
106.383314
 21
7.870788
 31
0.0
  0
LINE
  5
2ca
100
AcDbEntity
  8
Outer_Cut
 62
7
100
AcDbLine
 10
106.383314
 20
7.870788
 30
0.0
 11
98.746514
 21
7.870788
 31
0.0
  0
LINE
  5
2cb
100
AcDbEntity
  8
Outer_Cut
 62
7
100
AcDbLine
 10
98.746514
 20
7.870788
 30
0.0
 11
98.746514
 21
10.832448
 31
0.0
  0
LINE
  5
2cc
100
AcDbEntity
  8
Outer_Cut
 62
7
100
AcDbLine
 10
98.746514
 20
10.832448
 30
0.0
 11
98.746514
 21
10.832448
 31
0.0
  0
LINE
  5
2cd
100
AcDbEntity
  8
Outer_Cut
 62
7
100
AcDbLine
 10
98.746514
 20
10.832448
 30
0.0
 11
98.746514
 21
16.832448
 31
0.0
  0
LINE
  5
2ce
100
AcDbEntity
  8
Outer_Cut
 62
7
100
AcDbLine
 10
98.746514
 20
16.832448
 30
0.0
 11
98.746514
 21
16.832448
 31
0.0
  0
LINE
  5
2cf
100
AcDbEntity
  8
Outer_Cut
 62
7
100
AcDbLine
 10
98.746514
 20
16.832448
 30
0.0
 11
98.746514
 21
22.974118
 31
0.0
  0
LINE
  5
2d0
100
AcDbEntity
  8
Outer_Cut
 62
7
100
AcDbLine
 10
98.746514
 20
22.974118
 30
0.0
 11
98.746514
 21
22.974118
 31
0.0
  0
LINE
  5
2d1
100
AcDbEntity
  8
Outer_Cut
 62
7
100
AcDbLine
 10
98.746514
 20
22.974118
 30
0.0
 11
98.746514
 21
28.974118
 31
0.0
  0
LINE
  5
2d2
100
AcDbEntity
  8
Outer_Cut
 62
7
100
AcDbLine
 10
98.746514
 20
28.974118
 30
0.0
 11
98.746514
 21
28.974118
 31
0.0
  0
LINE
  5
2d3
100
AcDbEntity
  8
Outer_Cut
 62
7
100
AcDbLine
 10
98.746514
 20
28.974118
 30
0.0
 11
98.746514
 21
35.115788
 31
0.0
  0
LINE
  5
2d4
100
AcDbEntity
  8
Outer_Cut
 62
7
100
AcDbLine
 10
98.746514
 20
35.115788
 30
0.0
 11
98.746514
 21
35.115788
 31
0.0
  0
LINE
  5
2d5
100
AcDbEntity
  8
Outer_Cut
 62
7
100
AcDbLine
 10
98.746514
 20
35.115788
 30
0.0
 11
98.746514
 21
41.115788
 31
0.0
  0
LINE
  5
2d6
100
AcDbEntity
  8
Outer_Cut
 62
7
100
AcDbLine
 10
98.746514
 20
41.115788
 30
0.0
 11
98.746514
 21
41.115788
 31
0.0
  0
LINE
  5
2d7
100
AcDbEntity
  8
Outer_Cut
 62
7
100
AcDbLine
 10
98.746514
 20
41.115788
 30
0.0
 11
98.746514
 21
47.257448
 31
0.0
  0
LINE
  5
2d8
100
AcDbEntity
  8
Outer_Cut
 62
7
100
AcDbLine
 10
98.746514
 20
47.257448
 30
0.0
 11
98.746514
 21
47.257448
 31
0.0
  0
LINE
  5
2d9
100
AcDbEntity
  8
Outer_Cut
 62
7
100
AcDbLine
 10
98.746514
 20
47.257448
 30
0.0
 11
98.746514
 21
53.257448
 31
0.0
  0
LINE
  5
2da
100
AcDbEntity
  8
Outer_Cut
 62
7
100
AcDbLine
 10
98.746514
 20
53.257448
 30
0.0
 11
98.746514
 21
53.257448
 31
0.0
  0
LINE
  5
2db
100
AcDbEntity
  8
Outer_Cut
 62
7
100
AcDbLine
 10
98.746514
 20
53.257448
 30
0.0
 11
98.746514
 21
59.399118
 31
0.0
  0
LINE
  5
2dc
100
AcDbEntity
  8
Outer_Cut
 62
7
100
AcDbLine
 10
98.746514
 20
59.399118
 30
0.0
 11
98.746514
 21
59.399118
 31
0.0
  0
LINE
  5
2dd
100
AcDbEntity
  8
Outer_Cut
 62
7
100
AcDbLine
 10
98.746514
 20
59.399118
 30
0.0
 11
98.746514
 21
65.399118
 31
0.0
  0
LINE
  5
2de
100
AcDbEntity
  8
Outer_Cut
 62
7
100
AcDbLine
 10
98.746514
 20
65.399118
 30
0.0
 11
98.746514
 21
65.399118
 31
0.0
  0
LINE
  5
2df
100
AcDbEntity
  8
Outer_Cut
 62
7
100
AcDbLine
 10
98.746514
 20
65.399118
 30
0.0
 11
98.746514
 21
71.540788
 31
0.0
  0
LINE
  5
2e0
100
AcDbEntity
  8
Outer_Cut
 62
7
100
AcDbLine
 10
98.746514
 20
71.540788
 30
0.0
 11
98.746514
 21
71.540788
 31
0.0
  0
LINE
  5
2e1
100
AcDbEntity
  8
Outer_Cut
 62
7
100
AcDbLine
 10
98.746514
 20
71.540788
 30
0.0
 11
98.746514
 21
77.540788
 31
0.0
  0
LINE
  5
2e2
100
AcDbEntity
  8
Outer_Cut
 62
7
100
AcDbLine
 10
98.746514
 20
77.540788
 30
0.0
 11
98.746514
 21
77.540788
 31
0.0
  0
LINE
  5
2e3
100
AcDbEntity
  8
Outer_Cut
 62
7
100
AcDbLine
 10
98.746514
 20
77.540788
 30
0.0
 11
98.746514
 21
83.682448
 31
0.0
  0
LINE
  5
2e4
100
AcDbEntity
  8
Outer_Cut
 62
7
100
AcDbLine
 10
98.746514
 20
83.682448
 30
0.0
 11
98.746514
 21
83.682448
 31
0.0
  0
LINE
  5
2e5
100
AcDbEntity
  8
Outer_Cut
 62
7
100
AcDbLine
 10
98.746514
 20
83.682448
 30
0.0
 11
98.746514
 21
89.682448
 31
0.0
  0
LINE
  5
2e6
100
AcDbEntity
  8
Outer_Cut
 62
7
100
AcDbLine
 10
98.746514
 20
89.682448
 30
0.0
 11
98.746514
 21
89.682448
 31
0.0
  0
LINE
  5
2e7
100
AcDbEntity
  8
Outer_Cut
 62
7
100
AcDbLine
 10
98.746514
 20
89.682448
 30
0.0
 11
98.746514
 21
95.824118
 31
0.0
  0
LINE
  5
2e8
100
AcDbEntity
  8
Outer_Cut
 62
7
100
AcDbLine
 10
98.746514
 20
95.824118
 30
0.0
 11
98.746514
 21
95.824118
 31
0.0
  0
LINE
  5
2e9
100
AcDbEntity
  8
Outer_Cut
 62
7
100
AcDbLine
 10
98.746514
 20
95.824118
 30
0.0
 11
98.746514
 21
101.824118
 31
0.0
  0
LINE
  5
2ea
100
AcDbEntity
  8
Outer_Cut
 62
7
100
AcDbLine
 10
98.746514
 20
101.824118
 30
0.0
 11
98.746514
 21
101.824118
 31
0.0
  0
LINE
  5
2eb
100
AcDbEntity
  8
Outer_Cut
 62
7
100
AcDbLine
 10
98.746514
 20
101.824118
 30
0.0
 11
98.746514
 21
107.965788
 31
0.0
  0
LINE
  5
2ec
100
AcDbEntity
  8
Outer_Cut
 62
7
100
AcDbLine
 10
98.746514
 20
107.965788
 30
0.0
 11
98.746514
 21
107.965788
 31
0.0
  0
LINE
  5
2ed
100
AcDbEntity
  8
Outer_Cut
 62
7
100
AcDbLine
 10
98.746514
 20
107.965788
 30
0.0
 11
98.746514
 21
113.965788
 31
0.0
  0
LINE
  5
2ee
100
AcDbEntity
  8
Outer_Cut
 62
7
100
AcDbLine
 10
98.746514
 20
113.965788
 30
0.0
 11
98.746514
 21
113.965788
 31
0.0
  0
LINE
  5
2ef
100
AcDbEntity
  8
Outer_Cut
 62
7
100
AcDbLine
 10
98.746514
 20
113.965788
 30
0.0
 11
98.746514
 21
120.107448
 31
0.0
  0
LINE
  5
2f0
100
AcDbEntity
  8
Outer_Cut
 62
7
100
AcDbLine
 10
98.746514
 20
120.107448
 30
0.0
 11
98.746514
 21
120.107448
 31
0.0
  0
LINE
  5
2f1
100
AcDbEntity
  8
Outer_Cut
 62
7
100
AcDbLine
 10
98.746514
 20
120.107448
 30
0.0
 11
98.746514
 21
126.107448
 31
0.0
  0
LINE
  5
2f2
100
AcDbEntity
  8
Outer_Cut
 62
7
100
AcDbLine
 10
98.746514
 20
126.107448
 30
0.0
 11
98.746514
 21
126.107448
 31
0.0
  0
LINE
  5
2f3
100
AcDbEntity
  8
Outer_Cut
 62
7
100
AcDbLine
 10
98.746514
 20
126.107448
 30
0.0
 11
98.746514
 21
132.249118
 31
0.0
  0
LINE
  5
2f4
100
AcDbEntity
  8
Outer_Cut
 62
7
100
AcDbLine
 10
98.746514
 20
132.249118
 30
0.0
 11
98.746514
 21
132.249118
 31
0.0
  0
LINE
  5
2f5
100
AcDbEntity
  8
Outer_Cut
 62
7
100
AcDbLine
 10
98.746514
 20
132.249118
 30
0.0
 11
98.746514
 21
138.249118
 31
0.0
  0
LINE
  5
2f6
100
AcDbEntity
  8
Outer_Cut
 62
7
100
AcDbLine
 10
98.746514
 20
138.249118
 30
0.0
 11
98.746514
 21
138.249118
 31
0.0
  0
LINE
  5
2f7
100
AcDbEntity
  8
Outer_Cut
 62
7
100
AcDbLine
 10
98.746514
 20
138.249118
 30
0.0
 11
98.746514
 21
141.210788
 31
0.0
  0
LINE
  5
2f8
100
AcDbEntity
  8
Outer_Cut
 62
7
100
AcDbLine
 10
98.755814
 20
112.630788
 30
0.0
 11
106.383274
 21
112.630788
 31
0.0
  0
LINE
  5
2f9
100
AcDbEntity
  8
Outer_Cut
 62
7
100
AcDbLine
 10
106.383274
 20
112.630788
 30
0.0
 11
106.383274
 21
115.810788
 31
0.0
  0
LINE
  5
2fa
100
AcDbEntity
  8
Outer_Cut
 62
7
100
AcDbLine
 10
106.383274
 20
115.810788
 30
0.0
 11
98.755814
 21
115.810788
 31
0.0
  0
LINE
  5
2fb
100
AcDbEntity
  8
Outer_Cut
 62
7
100
AcDbLine
 10
112.383274
 20
112.630788
 30
0.0
 11
120.024944
 21
112.630788
 31
0.0
  0
LINE
  5
2fc
100
AcDbEntity
  8
Outer_Cut
 62
7
100
AcDbLine
 10
120.024944
 20
112.630788
 30
0.0
 11
120.024944
 21
115.810788
 31
0.0
  0
LINE
  5
2fd
100
AcDbEntity
  8
Outer_Cut
 62
7
100
AcDbLine
 10
120.024944
 20
115.810788
 30
0.0
 11
112.383274
 21
115.810788
 31
0.0
  0
LINE
  5
2fe
100
AcDbEntity
  8
Outer_Cut
 62
7
100
AcDbLine
 10
112.383274
 20
115.810788
 30
0.0
 11
112.383274
 21
112.630788
 31
0.0
  0
LINE
  5
2ff
100
AcDbEntity
  8
Outer_Cut
 62
7
100
AcDbLine
 10
126.024944
 20
112.630788
 30
0.0
 11
130.486604
 21
112.630788
 31
0.0
  0
LINE
  5
300
100
AcDbEntity
  8
Outer_Cut
 62
7
100
AcDbLine
 10
130.486604
 20
112.630788
 30
0.0
 11
130.486604
 21
115.810788
 31
0.0
  0
LINE
  5
301
100
AcDbEntity
  8
Outer_Cut
 62
7
100
AcDbLine
 10
130.486604
 20
115.810788
 30
0.0
 11
126.024944
 21
115.810788
 31
0.0
  0
LINE
  5
302
100
AcDbEntity
  8
Outer_Cut
 62
7
100
AcDbLine
 10
126.024944
 20
115.810788
 30
0.0
 11
126.024944
 21
112.630788
 31
0.0
  0
LINE
  5
303
100
AcDbEntity
  8
Outer_Cut
 62
7
100
AcDbLine
 10
98.755814
 20
74.545778
 30
0.0
 11
106.383274
 21
74.545778
 31
0.0
  0
LINE
  5
304
100
AcDbEntity
  8
Outer_Cut
 62
7
100
AcDbLine
 10
106.383274
 20
74.545778
 30
0.0
 11
106.383274
 21
77.725778
 31
0.0
  0
LINE
  5
305
100
AcDbEntity
  8
Outer_Cut
 62
7
100
AcDbLine
 10
106.383274
 20
77.725778
 30
0.0
 11
98.755814
 21
77.725778
 31
0.0
  0
LINE
  5
306
100
AcDbEntity
  8
Outer_Cut
 62
7
100
AcDbLine
 10
112.383274
 20
74.545778
 30
0.0
 11
120.024944
 21
74.545778
 31
0.0
  0
LINE
  5
307
100
AcDbEntity
  8
Outer_Cut
 62
7
100
AcDbLine
 10
120.024944
 20
74.545778
 30
0.0
 11
120.024944
 21
77.725778
 31
0.0
  0
LINE
  5
308
100
AcDbEntity
  8
Outer_Cut
 62
7
100
AcDbLine
 10
120.024944
 20
77.725778
 30
0.0
 11
112.383274
 21
77.725778
 31
0.0
  0
LINE
  5
309
100
AcDbEntity
  8
Outer_Cut
 62
7
100
AcDbLine
 10
112.383274
 20
77.725778
 30
0.0
 11
112.383274
 21
74.545778
 31
0.0
  0
LINE
  5
30a
100
AcDbEntity
  8
Outer_Cut
 62
7
100
AcDbLine
 10
126.024944
 20
74.545778
 30
0.0
 11
130.486604
 21
74.545778
 31
0.0
  0
LINE
  5
30b
100
AcDbEntity
  8
Outer_Cut
 62
7
100
AcDbLine
 10
130.486604
 20
74.545778
 30
0.0
 11
130.486604
 21
77.725778
 31
0.0
  0
LINE
  5
30c
100
AcDbEntity
  8
Outer_Cut
 62
7
100
AcDbLine
 10
130.486604
 20
77.725778
 30
0.0
 11
126.024944
 21
77.725778
 31
0.0
  0
LINE
  5
30d
100
AcDbEntity
  8
Outer_Cut
 62
7
100
AcDbLine
 10
126.024944
 20
77.725778
 30
0.0
 11
126.024944
 21
74.545778
 31
0.0
  0
LINE
  5
30e
100
AcDbEntity
  8
Outer_Cut
 62
7
100
AcDbLine
 10
170.150343
 20
141.210788
 30
0.0
 11
162.513533
 21
141.210788
 31
0.0
  0
LINE
  5
30f
100
AcDbEntity
  8
Outer_Cut
 62
7
100
AcDbLine
 10
162.513533
 20
141.210788
 30
0.0
 11
162.513533
 21
144.390788
 31
0.0
  0
LINE
  5
310
100
AcDbEntity
  8
Outer_Cut
 62
7
100
AcDbLine
 10
162.513533
 20
144.390788
 30
0.0
 11
156.513533
 21
144.390788
 31
0.0
  0
LINE
  5
311
100
AcDbEntity
  8
Outer_Cut
 62
7
100
AcDbLine
 10
156.513533
 20
144.390788
 30
0.0
 11
156.513533
 21
141.210788
 31
0.0
  0
LINE
  5
312
100
AcDbEntity
  8
Outer_Cut
 62
7
100
AcDbLine
 10
156.513533
 20
141.210788
 30
0.0
 11
148.871873
 21
141.210788
 31
0.0
  0
LINE
  5
313
100
AcDbEntity
  8
Outer_Cut
 62
7
100
AcDbLine
 10
148.871873
 20
141.210788
 30
0.0
 11
148.871873
 21
144.390788
 31
0.0
  0
LINE
  5
314
100
AcDbEntity
  8
Outer_Cut
 62
7
100
AcDbLine
 10
148.871873
 20
144.390788
 30
0.0
 11
142.871873
 21
144.390788
 31
0.0
  0
LINE
  5
315
100
AcDbEntity
  8
Outer_Cut
 62
7
100
AcDbLine
 10
142.871873
 20
144.390788
 30
0.0
 11
142.871873
 21
141.210788
 31
0.0
  0
LINE
  5
316
100
AcDbEntity
  8
Outer_Cut
 62
7
100
AcDbLine
 10
142.871873
 20
141.210788
 30
0.0
 11
138.410203
 21
141.210788
 31
0.0
  0
LINE
  5
317
100
AcDbEntity
  8
Outer_Cut
 62
7
100
AcDbLine
 10
138.410203
 20
141.210788
 30
0.0
 11
138.410203
 21
138.249118
 31
0.0
  0
LINE
  5
318
100
AcDbEntity
  8
Outer_Cut
 62
7
100
AcDbLine
 10
138.410203
 20
138.249118
 30
0.0
 11
135.230203
 21
138.249118
 31
0.0
  0
LINE
  5
319
100
AcDbEntity
  8
Outer_Cut
 62
7
100
AcDbLine
 10
135.230203
 20
138.249118
 30
0.0
 11
135.230203
 21
132.249118
 31
0.0
  0
LINE
  5
31a
100
AcDbEntity
  8
Outer_Cut
 62
7
100
AcDbLine
 10
135.230203
 20
132.249118
 30
0.0
 11
138.410203
 21
132.249118
 31
0.0
  0
LINE
  5
31b
100
AcDbEntity
  8
Outer_Cut
 62
7
100
AcDbLine
 10
138.410203
 20
132.249118
 30
0.0
 11
138.410203
 21
126.107448
 31
0.0
  0
LINE
  5
31c
100
AcDbEntity
  8
Outer_Cut
 62
7
100
AcDbLine
 10
138.410203
 20
126.107448
 30
0.0
 11
135.230203
 21
126.107448
 31
0.0
  0
LINE
  5
31d
100
AcDbEntity
  8
Outer_Cut
 62
7
100
AcDbLine
 10
135.230203
 20
126.107448
 30
0.0
 11
135.230203
 21
120.107448
 31
0.0
  0
LINE
  5
31e
100
AcDbEntity
  8
Outer_Cut
 62
7
100
AcDbLine
 10
135.230203
 20
120.107448
 30
0.0
 11
138.410203
 21
120.107448
 31
0.0
  0
LINE
  5
31f
100
AcDbEntity
  8
Outer_Cut
 62
7
100
AcDbLine
 10
138.410203
 20
120.107448
 30
0.0
 11
138.410203
 21
113.965788
 31
0.0
  0
LINE
  5
320
100
AcDbEntity
  8
Outer_Cut
 62
7
100
AcDbLine
 10
138.410203
 20
113.965788
 30
0.0
 11
135.230203
 21
113.965788
 31
0.0
  0
LINE
  5
321
100
AcDbEntity
  8
Outer_Cut
 62
7
100
AcDbLine
 10
135.230203
 20
113.965788
 30
0.0
 11
135.230203
 21
107.965788
 31
0.0
  0
LINE
  5
322
100
AcDbEntity
  8
Outer_Cut
 62
7
100
AcDbLine
 10
135.230203
 20
107.965788
 30
0.0
 11
138.410203
 21
107.965788
 31
0.0
  0
LINE
  5
323
100
AcDbEntity
  8
Outer_Cut
 62
7
100
AcDbLine
 10
138.410203
 20
107.965788
 30
0.0
 11
138.410203
 21
101.824118
 31
0.0
  0
LINE
  5
324
100
AcDbEntity
  8
Outer_Cut
 62
7
100
AcDbLine
 10
138.410203
 20
101.824118
 30
0.0
 11
135.230203
 21
101.824118
 31
0.0
  0
LINE
  5
325
100
AcDbEntity
  8
Outer_Cut
 62
7
100
AcDbLine
 10
135.230203
 20
101.824118
 30
0.0
 11
135.230203
 21
95.824118
 31
0.0
  0
LINE
  5
326
100
AcDbEntity
  8
Outer_Cut
 62
7
100
AcDbLine
 10
135.230203
 20
95.824118
 30
0.0
 11
138.410203
 21
95.824118
 31
0.0
  0
LINE
  5
327
100
AcDbEntity
  8
Outer_Cut
 62
7
100
AcDbLine
 10
138.410203
 20
95.824118
 30
0.0
 11
138.410203
 21
89.682448
 31
0.0
  0
LINE
  5
328
100
AcDbEntity
  8
Outer_Cut
 62
7
100
AcDbLine
 10
138.410203
 20
89.682448
 30
0.0
 11
135.230203
 21
89.682448
 31
0.0
  0
LINE
  5
329
100
AcDbEntity
  8
Outer_Cut
 62
7
100
AcDbLine
 10
135.230203
 20
89.682448
 30
0.0
 11
135.230203
 21
83.682448
 31
0.0
  0
LINE
  5
32a
100
AcDbEntity
  8
Outer_Cut
 62
7
100
AcDbLine
 10
135.230203
 20
83.682448
 30
0.0
 11
138.410203
 21
83.682448
 31
0.0
  0
LINE
  5
32b
100
AcDbEntity
  8
Outer_Cut
 62
7
100
AcDbLine
 10
138.410203
 20
83.682448
 30
0.0
 11
138.410203
 21
77.540788
 31
0.0
  0
LINE
  5
32c
100
AcDbEntity
  8
Outer_Cut
 62
7
100
AcDbLine
 10
138.410203
 20
77.540788
 30
0.0
 11
135.230203
 21
77.540788
 31
0.0
  0
LINE
  5
32d
100
AcDbEntity
  8
Outer_Cut
 62
7
100
AcDbLine
 10
135.230203
 20
77.540788
 30
0.0
 11
135.230203
 21
71.540788
 31
0.0
  0
LINE
  5
32e
100
AcDbEntity
  8
Outer_Cut
 62
7
100
AcDbLine
 10
135.230203
 20
71.540788
 30
0.0
 11
138.410203
 21
71.540788
 31
0.0
  0
LINE
  5
32f
100
AcDbEntity
  8
Outer_Cut
 62
7
100
AcDbLine
 10
138.410203
 20
71.540788
 30
0.0
 11
138.410203
 21
65.399118
 31
0.0
  0
LINE
  5
330
100
AcDbEntity
  8
Outer_Cut
 62
7
100
AcDbLine
 10
138.410203
 20
65.399118
 30
0.0
 11
135.230203
 21
65.399118
 31
0.0
  0
LINE
  5
331
100
AcDbEntity
  8
Outer_Cut
 62
7
100
AcDbLine
 10
135.230203
 20
65.399118
 30
0.0
 11
135.230203
 21
59.399118
 31
0.0
  0
LINE
  5
332
100
AcDbEntity
  8
Outer_Cut
 62
7
100
AcDbLine
 10
135.230203
 20
59.399118
 30
0.0
 11
138.410203
 21
59.399118
 31
0.0
  0
LINE
  5
333
100
AcDbEntity
  8
Outer_Cut
 62
7
100
AcDbLine
 10
138.410203
 20
59.399118
 30
0.0
 11
138.410203
 21
53.257448
 31
0.0
  0
LINE
  5
334
100
AcDbEntity
  8
Outer_Cut
 62
7
100
AcDbLine
 10
138.410203
 20
53.257448
 30
0.0
 11
135.230203
 21
53.257448
 31
0.0
  0
LINE
  5
335
100
AcDbEntity
  8
Outer_Cut
 62
7
100
AcDbLine
 10
135.230203
 20
53.257448
 30
0.0
 11
135.230203
 21
47.257448
 31
0.0
  0
LINE
  5
336
100
AcDbEntity
  8
Outer_Cut
 62
7
100
AcDbLine
 10
135.230203
 20
47.257448
 30
0.0
 11
138.410203
 21
47.257448
 31
0.0
  0
LINE
  5
337
100
AcDbEntity
  8
Outer_Cut
 62
7
100
AcDbLine
 10
138.410203
 20
47.257448
 30
0.0
 11
138.410203
 21
41.115788
 31
0.0
  0
LINE
  5
338
100
AcDbEntity
  8
Outer_Cut
 62
7
100
AcDbLine
 10
138.410203
 20
41.115788
 30
0.0
 11
135.230203
 21
41.115788
 31
0.0
  0
LINE
  5
339
100
AcDbEntity
  8
Outer_Cut
 62
7
100
AcDbLine
 10
135.230203
 20
41.115788
 30
0.0
 11
135.230203
 21
35.115788
 31
0.0
  0
LINE
  5
33a
100
AcDbEntity
  8
Outer_Cut
 62
7
100
AcDbLine
 10
135.230203
 20
35.115788
 30
0.0
 11
138.410203
 21
35.115788
 31
0.0
  0
LINE
  5
33b
100
AcDbEntity
  8
Outer_Cut
 62
7
100
AcDbLine
 10
138.410203
 20
35.115788
 30
0.0
 11
138.410203
 21
28.974118
 31
0.0
  0
LINE
  5
33c
100
AcDbEntity
  8
Outer_Cut
 62
7
100
AcDbLine
 10
138.410203
 20
28.974118
 30
0.0
 11
135.230203
 21
28.974118
 31
0.0
  0
LINE
  5
33d
100
AcDbEntity
  8
Outer_Cut
 62
7
100
AcDbLine
 10
135.230203
 20
28.974118
 30
0.0
 11
135.230203
 21
22.974118
 31
0.0
  0
LINE
  5
33e
100
AcDbEntity
  8
Outer_Cut
 62
7
100
AcDbLine
 10
135.230203
 20
22.974118
 30
0.0
 11
138.410203
 21
22.974118
 31
0.0
  0
LINE
  5
33f
100
AcDbEntity
  8
Outer_Cut
 62
7
100
AcDbLine
 10
138.410203
 20
22.974118
 30
0.0
 11
138.410203
 21
16.832448
 31
0.0
  0
LINE
  5
340
100
AcDbEntity
  8
Outer_Cut
 62
7
100
AcDbLine
 10
138.410203
 20
16.832448
 30
0.0
 11
135.230203
 21
16.832448
 31
0.0
  0
LINE
  5
341
100
AcDbEntity
  8
Outer_Cut
 62
7
100
AcDbLine
 10
135.230203
 20
16.832448
 30
0.0
 11
135.230203
 21
10.832448
 31
0.0
  0
LINE
  5
342
100
AcDbEntity
  8
Outer_Cut
 62
7
100
AcDbLine
 10
135.230203
 20
10.832448
 30
0.0
 11
138.410203
 21
10.832448
 31
0.0
  0
LINE
  5
343
100
AcDbEntity
  8
Outer_Cut
 62
7
100
AcDbLine
 10
138.410203
 20
10.832448
 30
0.0
 11
138.410203
 21
7.870788
 31
0.0
  0
LINE
  5
344
100
AcDbEntity
  8
Outer_Cut
 62
7
100
AcDbLine
 10
138.410203
 20
7.870788
 30
0.0
 11
142.871873
 21
7.870788
 31
0.0
  0
LINE
  5
345
100
AcDbEntity
  8
Outer_Cut
 62
7
100
AcDbLine
 10
142.871873
 20
7.870788
 30
0.0
 11
142.871873
 21
4.690788
 31
0.0
  0
LINE
  5
346
100
AcDbEntity
  8
Outer_Cut
 62
7
100
AcDbLine
 10
142.871873
 20
4.690788
 30
0.0
 11
148.871873
 21
4.690788
 31
0.0
  0
LINE
  5
347
100
AcDbEntity
  8
Outer_Cut
 62
7
100
AcDbLine
 10
148.871873
 20
4.690788
 30
0.0
 11
148.871873
 21
7.870788
 31
0.0
  0
LINE
  5
348
100
AcDbEntity
  8
Outer_Cut
 62
7
100
AcDbLine
 10
148.871873
 20
7.870788
 30
0.0
 11
156.513533
 21
7.870788
 31
0.0
  0
LINE
  5
349
100
AcDbEntity
  8
Outer_Cut
 62
7
100
AcDbLine
 10
156.513533
 20
7.870788
 30
0.0
 11
156.513533
 21
4.690788
 31
0.0
  0
LINE
  5
34a
100
AcDbEntity
  8
Outer_Cut
 62
7
100
AcDbLine
 10
156.513533
 20
4.690788
 30
0.0
 11
162.513533
 21
4.690788
 31
0.0
  0
LINE
  5
34b
100
AcDbEntity
  8
Outer_Cut
 62
7
100
AcDbLine
 10
162.513533
 20
4.690788
 30
0.0
 11
162.513533
 21
7.870788
 31
0.0
  0
LINE
  5
34c
100
AcDbEntity
  8
Outer_Cut
 62
7
100
AcDbLine
 10
162.513533
 20
7.870788
 30
0.0
 11
170.150343
 21
7.870788
 31
0.0
  0
LINE
  5
34d
100
AcDbEntity
  8
Outer_Cut
 62
7
100
AcDbLine
 10
170.150343
 20
7.870788
 30
0.0
 11
170.150343
 21
10.832448
 31
0.0
  0
LINE
  5
34e
100
AcDbEntity
  8
Outer_Cut
 62
7
100
AcDbLine
 10
170.150343
 20
10.832448
 30
0.0
 11
170.150343
 21
10.832448
 31
0.0
  0
LINE
  5
34f
100
AcDbEntity
  8
Outer_Cut
 62
7
100
AcDbLine
 10
170.150343
 20
10.832448
 30
0.0
 11
170.150343
 21
16.832448
 31
0.0
  0
LINE
  5
350
100
AcDbEntity
  8
Outer_Cut
 62
7
100
AcDbLine
 10
170.150343
 20
16.832448
 30
0.0
 11
170.150343
 21
16.832448
 31
0.0
  0
LINE
  5
351
100
AcDbEntity
  8
Outer_Cut
 62
7
100
AcDbLine
 10
170.150343
 20
16.832448
 30
0.0
 11
170.150343
 21
22.974118
 31
0.0
  0
LINE
  5
352
100
AcDbEntity
  8
Outer_Cut
 62
7
100
AcDbLine
 10
170.150343
 20
22.974118
 30
0.0
 11
170.150343
 21
22.974118
 31
0.0
  0
LINE
  5
353
100
AcDbEntity
  8
Outer_Cut
 62
7
100
AcDbLine
 10
170.150343
 20
22.974118
 30
0.0
 11
170.150343
 21
28.974118
 31
0.0
  0
LINE
  5
354
100
AcDbEntity
  8
Outer_Cut
 62
7
100
AcDbLine
 10
170.150343
 20
28.974118
 30
0.0
 11
170.150343
 21
28.974118
 31
0.0
  0
LINE
  5
355
100
AcDbEntity
  8
Outer_Cut
 62
7
100
AcDbLine
 10
170.150343
 20
28.974118
 30
0.0
 11
170.150343
 21
35.115788
 31
0.0
  0
LINE
  5
356
100
AcDbEntity
  8
Outer_Cut
 62
7
100
AcDbLine
 10
170.150343
 20
35.115788
 30
0.0
 11
170.150343
 21
35.115788
 31
0.0
  0
LINE
  5
357
100
AcDbEntity
  8
Outer_Cut
 62
7
100
AcDbLine
 10
170.150343
 20
35.115788
 30
0.0
 11
170.150343
 21
41.115788
 31
0.0
  0
LINE
  5
358
100
AcDbEntity
  8
Outer_Cut
 62
7
100
AcDbLine
 10
170.150343
 20
41.115788
 30
0.0
 11
170.150343
 21
41.115788
 31
0.0
  0
LINE
  5
359
100
AcDbEntity
  8
Outer_Cut
 62
7
100
AcDbLine
 10
170.150343
 20
41.115788
 30
0.0
 11
170.150343
 21
47.257448
 31
0.0
  0
LINE
  5
35a
100
AcDbEntity
  8
Outer_Cut
 62
7
100
AcDbLine
 10
170.150343
 20
47.257448
 30
0.0
 11
170.150343
 21
47.257448
 31
0.0
  0
LINE
  5
35b
100
AcDbEntity
  8
Outer_Cut
 62
7
100
AcDbLine
 10
170.150343
 20
47.257448
 30
0.0
 11
170.150343
 21
53.257448
 31
0.0
  0
LINE
  5
35c
100
AcDbEntity
  8
Outer_Cut
 62
7
100
AcDbLine
 10
170.150343
 20
53.257448
 30
0.0
 11
170.150343
 21
53.257448
 31
0.0
  0
LINE
  5
35d
100
AcDbEntity
  8
Outer_Cut
 62
7
100
AcDbLine
 10
170.150343
 20
53.257448
 30
0.0
 11
170.150343
 21
59.399118
 31
0.0
  0
LINE
  5
35e
100
AcDbEntity
  8
Outer_Cut
 62
7
100
AcDbLine
 10
170.150343
 20
59.399118
 30
0.0
 11
170.150343
 21
59.399118
 31
0.0
  0
LINE
  5
35f
100
AcDbEntity
  8
Outer_Cut
 62
7
100
AcDbLine
 10
170.150343
 20
59.399118
 30
0.0
 11
170.150343
 21
65.399118
 31
0.0
  0
LINE
  5
360
100
AcDbEntity
  8
Outer_Cut
 62
7
100
AcDbLine
 10
170.150343
 20
65.399118
 30
0.0
 11
170.150343
 21
65.399118
 31
0.0
  0
LINE
  5
361
100
AcDbEntity
  8
Outer_Cut
 62
7
100
AcDbLine
 10
170.150343
 20
65.399118
 30
0.0
 11
170.150343
 21
71.540788
 31
0.0
  0
LINE
  5
362
100
AcDbEntity
  8
Outer_Cut
 62
7
100
AcDbLine
 10
170.150343
 20
71.540788
 30
0.0
 11
170.150343
 21
71.540788
 31
0.0
  0
LINE
  5
363
100
AcDbEntity
  8
Outer_Cut
 62
7
100
AcDbLine
 10
170.150343
 20
71.540788
 30
0.0
 11
170.150343
 21
77.540788
 31
0.0
  0
LINE
  5
364
100
AcDbEntity
  8
Outer_Cut
 62
7
100
AcDbLine
 10
170.150343
 20
77.540788
 30
0.0
 11
170.150343
 21
77.540788
 31
0.0
  0
LINE
  5
365
100
AcDbEntity
  8
Outer_Cut
 62
7
100
AcDbLine
 10
170.150343
 20
77.540788
 30
0.0
 11
170.150343
 21
83.682448
 31
0.0
  0
LINE
  5
366
100
AcDbEntity
  8
Outer_Cut
 62
7
100
AcDbLine
 10
170.150343
 20
83.682448
 30
0.0
 11
170.150343
 21
83.682448
 31
0.0
  0
LINE
  5
367
100
AcDbEntity
  8
Outer_Cut
 62
7
100
AcDbLine
 10
170.150343
 20
83.682448
 30
0.0
 11
170.150343
 21
89.682448
 31
0.0
  0
LINE
  5
368
100
AcDbEntity
  8
Outer_Cut
 62
7
100
AcDbLine
 10
170.150343
 20
89.682448
 30
0.0
 11
170.150343
 21
89.682448
 31
0.0
  0
LINE
  5
369
100
AcDbEntity
  8
Outer_Cut
 62
7
100
AcDbLine
 10
170.150343
 20
89.682448
 30
0.0
 11
170.150343
 21
95.824118
 31
0.0
  0
LINE
  5
36a
100
AcDbEntity
  8
Outer_Cut
 62
7
100
AcDbLine
 10
170.150343
 20
95.824118
 30
0.0
 11
170.150343
 21
95.824118
 31
0.0
  0
LINE
  5
36b
100
AcDbEntity
  8
Outer_Cut
 62
7
100
AcDbLine
 10
170.150343
 20
95.824118
 30
0.0
 11
170.150343
 21
101.824118
 31
0.0
  0
LINE
  5
36c
100
AcDbEntity
  8
Outer_Cut
 62
7
100
AcDbLine
 10
170.150343
 20
101.824118
 30
0.0
 11
170.150343
 21
101.824118
 31
0.0
  0
LINE
  5
36d
100
AcDbEntity
  8
Outer_Cut
 62
7
100
AcDbLine
 10
170.150343
 20
101.824118
 30
0.0
 11
170.150343
 21
107.965788
 31
0.0
  0
LINE
  5
36e
100
AcDbEntity
  8
Outer_Cut
 62
7
100
AcDbLine
 10
170.150343
 20
107.965788
 30
0.0
 11
170.150343
 21
107.965788
 31
0.0
  0
LINE
  5
36f
100
AcDbEntity
  8
Outer_Cut
 62
7
100
AcDbLine
 10
170.150343
 20
107.965788
 30
0.0
 11
170.150343
 21
113.965788
 31
0.0
  0
LINE
  5
370
100
AcDbEntity
  8
Outer_Cut
 62
7
100
AcDbLine
 10
170.150343
 20
113.965788
 30
0.0
 11
170.150343
 21
113.965788
 31
0.0
  0
LINE
  5
371
100
AcDbEntity
  8
Outer_Cut
 62
7
100
AcDbLine
 10
170.150343
 20
113.965788
 30
0.0
 11
170.150343
 21
120.107448
 31
0.0
  0
LINE
  5
372
100
AcDbEntity
  8
Outer_Cut
 62
7
100
AcDbLine
 10
170.150343
 20
120.107448
 30
0.0
 11
170.150343
 21
120.107448
 31
0.0
  0
LINE
  5
373
100
AcDbEntity
  8
Outer_Cut
 62
7
100
AcDbLine
 10
170.150343
 20
120.107448
 30
0.0
 11
170.150343
 21
126.107448
 31
0.0
  0
LINE
  5
374
100
AcDbEntity
  8
Outer_Cut
 62
7
100
AcDbLine
 10
170.150343
 20
126.107448
 30
0.0
 11
170.150343
 21
126.107448
 31
0.0
  0
LINE
  5
375
100
AcDbEntity
  8
Outer_Cut
 62
7
100
AcDbLine
 10
170.150343
 20
126.107448
 30
0.0
 11
170.150343
 21
132.249118
 31
0.0
  0
LINE
  5
376
100
AcDbEntity
  8
Outer_Cut
 62
7
100
AcDbLine
 10
170.150343
 20
132.249118
 30
0.0
 11
170.150343
 21
132.249118
 31
0.0
  0
LINE
  5
377
100
AcDbEntity
  8
Outer_Cut
 62
7
100
AcDbLine
 10
170.150343
 20
132.249118
 30
0.0
 11
170.150343
 21
138.249118
 31
0.0
  0
LINE
  5
378
100
AcDbEntity
  8
Outer_Cut
 62
7
100
AcDbLine
 10
170.150343
 20
138.249118
 30
0.0
 11
170.150343
 21
138.249118
 31
0.0
  0
LINE
  5
379
100
AcDbEntity
  8
Outer_Cut
 62
7
100
AcDbLine
 10
170.150343
 20
138.249118
 30
0.0
 11
170.150343
 21
141.210788
 31
0.0
  0
LINE
  5
37a
100
AcDbEntity
  8
Outer_Cut
 62
7
100
AcDbLine
 10
170.150393
 20
112.630788
 30
0.0
 11
162.522923
 21
112.630788
 31
0.0
  0
LINE
  5
37b
100
AcDbEntity
  8
Outer_Cut
 62
7
100
AcDbLine
 10
162.522923
 20
112.630788
 30
0.0
 11
162.522923
 21
115.810788
 31
0.0
  0
LINE
  5
37c
100
AcDbEntity
  8
Outer_Cut
 62
7
100
AcDbLine
 10
162.522923
 20
115.810788
 30
0.0
 11
170.150393
 21
115.810788
 31
0.0
  0
LINE
  5
37d
100
AcDbEntity
  8
Outer_Cut
 62
7
100
AcDbLine
 10
156.522923
 20
112.630788
 30
0.0
 11
148.881263
 21
112.630788
 31
0.0
  0
LINE
  5
37e
100
AcDbEntity
  8
Outer_Cut
 62
7
100
AcDbLine
 10
148.881263
 20
112.630788
 30
0.0
 11
148.881263
 21
115.810788
 31
0.0
  0
LINE
  5
37f
100
AcDbEntity
  8
Outer_Cut
 62
7
100
AcDbLine
 10
148.881263
 20
115.810788
 30
0.0
 11
156.522923
 21
115.810788
 31
0.0
  0
LINE
  5
380
100
AcDbEntity
  8
Outer_Cut
 62
7
100
AcDbLine
 10
156.522923
 20
115.810788
 30
0.0
 11
156.522923
 21
112.630788
 31
0.0
  0
LINE
  5
381
100
AcDbEntity
  8
Outer_Cut
 62
7
100
AcDbLine
 10
142.881263
 20
112.630788
 30
0.0
 11
138.419593
 21
112.630788
 31
0.0
  0
LINE
  5
382
100
AcDbEntity
  8
Outer_Cut
 62
7
100
AcDbLine
 10
138.419593
 20
112.630788
 30
0.0
 11
138.419593
 21
115.810788
 31
0.0
  0
LINE
  5
383
100
AcDbEntity
  8
Outer_Cut
 62
7
100
AcDbLine
 10
138.419593
 20
115.810788
 30
0.0
 11
142.881263
 21
115.810788
 31
0.0
  0
LINE
  5
384
100
AcDbEntity
  8
Outer_Cut
 62
7
100
AcDbLine
 10
142.881263
 20
115.810788
 30
0.0
 11
142.881263
 21
112.630788
 31
0.0
  0
LINE
  5
385
100
AcDbEntity
  8
Outer_Cut
 62
7
100
AcDbLine
 10
170.150393
 20
74.545778
 30
0.0
 11
162.522923
 21
74.545778
 31
0.0
  0
LINE
  5
386
100
AcDbEntity
  8
Outer_Cut
 62
7
100
AcDbLine
 10
162.522923
 20
74.545778
 30
0.0
 11
162.522923
 21
77.725778
 31
0.0
  0
LINE
  5
387
100
AcDbEntity
  8
Outer_Cut
 62
7
100
AcDbLine
 10
162.522923
 20
77.725778
 30
0.0
 11
170.150393
 21
77.725778
 31
0.0
  0
LINE
  5
388
100
AcDbEntity
  8
Outer_Cut
 62
7
100
AcDbLine
 10
156.522923
 20
74.545778
 30
0.0
 11
148.881263
 21
74.545778
 31
0.0
  0
LINE
  5
389
100
AcDbEntity
  8
Outer_Cut
 62
7
100
AcDbLine
 10
148.881263
 20
74.545778
 30
0.0
 11
148.881263
 21
77.725778
 31
0.0
  0
LINE
  5
38a
100
AcDbEntity
  8
Outer_Cut
 62
7
100
AcDbLine
 10
148.881263
 20
77.725778
 30
0.0
 11
156.522923
 21
77.725778
 31
0.0
  0
LINE
  5
38b
100
AcDbEntity
  8
Outer_Cut
 62
7
100
AcDbLine
 10
156.522923
 20
77.725778
 30
0.0
 11
156.522923
 21
74.545778
 31
0.0
  0
LINE
  5
38c
100
AcDbEntity
  8
Outer_Cut
 62
7
100
AcDbLine
 10
142.881263
 20
74.545778
 30
0.0
 11
138.419593
 21
74.545778
 31
0.0
  0
LINE
  5
38d
100
AcDbEntity
  8
Outer_Cut
 62
7
100
AcDbLine
 10
138.419593
 20
74.545778
 30
0.0
 11
138.419593
 21
77.725778
 31
0.0
  0
LINE
  5
38e
100
AcDbEntity
  8
Outer_Cut
 62
7
100
AcDbLine
 10
138.419593
 20
77.725778
 30
0.0
 11
142.881263
 21
77.725778
 31
0.0
  0
LINE
  5
38f
100
AcDbEntity
  8
Outer_Cut
 62
7
100
AcDbLine
 10
142.881263
 20
77.725778
 30
0.0
 11
142.881263
 21
74.545778
 31
0.0
  0
LINE
  5
390
100
AcDbEntity
  8
Outer_Cut
 62
7
100
AcDbLine
 10
6.132294
 20
142.626958
 30
0.0
 11
12.553134
 21
142.626958
 31
0.0
  0
LINE
  5
391
100
AcDbEntity
  8
Outer_Cut
 62
7
100
AcDbLine
 10
12.553134
 20
142.626958
 30
0.0
 11
12.553134
 21
145.806958
 31
0.0
  0
LINE
  5
392
100
AcDbEntity
  8
Outer_Cut
 62
7
100
AcDbLine
 10
12.553134
 20
145.806958
 30
0.0
 11
18.553134
 21
145.806958
 31
0.0
  0
LINE
  5
393
100
AcDbEntity
  8
Outer_Cut
 62
7
100
AcDbLine
 10
18.553134
 20
145.806958
 30
0.0
 11
18.553134
 21
142.626958
 31
0.0
  0
LINE
  5
394
100
AcDbEntity
  8
Outer_Cut
 62
7
100
AcDbLine
 10
18.553134
 20
142.626958
 30
0.0
 11
24.973964
 21
142.626958
 31
0.0
  0
LINE
  5
395
100
AcDbEntity
  8
Outer_Cut
 62
7
100
AcDbLine
 10
24.973964
 20
142.626958
 30
0.0
 11
24.973964
 21
145.806958
 31
0.0
  0
LINE
  5
396
100
AcDbEntity
  8
Outer_Cut
 62
7
100
AcDbLine
 10
24.973964
 20
145.806958
 30
0.0
 11
30.973964
 21
145.806958
 31
0.0
  0
LINE
  5
397
100
AcDbEntity
  8
Outer_Cut
 62
7
100
AcDbLine
 10
30.973964
 20
145.806958
 30
0.0
 11
30.973964
 21
142.626958
 31
0.0
  0
LINE
  5
398
100
AcDbEntity
  8
Outer_Cut
 62
7
100
AcDbLine
 10
30.973964
 20
142.626958
 30
0.0
 11
37.394798
 21
142.626958
 31
0.0
  0
LINE
  5
399
100
AcDbEntity
  8
Outer_Cut
 62
7
100
AcDbLine
 10
37.394798
 20
142.626958
 30
0.0
 11
37.394798
 21
145.806958
 31
0.0
  0
LINE
  5
39a
100
AcDbEntity
  8
Outer_Cut
 62
7
100
AcDbLine
 10
37.394798
 20
145.806958
 30
0.0
 11
43.394798
 21
145.806958
 31
0.0
  0
LINE
  5
39b
100
AcDbEntity
  8
Outer_Cut
 62
7
100
AcDbLine
 10
43.394798
 20
145.806958
 30
0.0
 11
43.394798
 21
142.626958
 31
0.0
  0
LINE
  5
39c
100
AcDbEntity
  8
Outer_Cut
 62
7
100
AcDbLine
 10
43.394798
 20
142.626958
 30
0.0
 11
49.815632
 21
142.626958
 31
0.0
  0
LINE
  5
39d
100
AcDbEntity
  8
Outer_Cut
 62
7
100
AcDbLine
 10
49.815632
 20
142.626958
 30
0.0
 11
49.815632
 21
145.806958
 31
0.0
  0
LINE
  5
39e
100
AcDbEntity
  8
Outer_Cut
 62
7
100
AcDbLine
 10
49.815632
 20
145.806958
 30
0.0
 11
55.815632
 21
145.806958
 31
0.0
  0
LINE
  5
39f
100
AcDbEntity
  8
Outer_Cut
 62
7
100
AcDbLine
 10
55.815632
 20
145.806958
 30
0.0
 11
55.815632
 21
142.626958
 31
0.0
  0
LINE
  5
3a0
100
AcDbEntity
  8
Outer_Cut
 62
7
100
AcDbLine
 10
55.815632
 20
142.626958
 30
0.0
 11
62.236465
 21
142.626958
 31
0.0
  0
LINE
  5
3a1
100
AcDbEntity
  8
Outer_Cut
 62
7
100
AcDbLine
 10
62.236465
 20
142.626958
 30
0.0
 11
62.236465
 21
145.806958
 31
0.0
  0
LINE
  5
3a2
100
AcDbEntity
  8
Outer_Cut
 62
7
100
AcDbLine
 10
62.236465
 20
145.806958
 30
0.0
 11
68.236465
 21
145.806958
 31
0.0
  0
LINE
  5
3a3
100
AcDbEntity
  8
Outer_Cut
 62
7
100
AcDbLine
 10
68.236465
 20
145.806958
 30
0.0
 11
68.236465
 21
142.626958
 31
0.0
  0
LINE
  5
3a4
100
AcDbEntity
  8
Outer_Cut
 62
7
100
AcDbLine
 10
68.236465
 20
142.626958
 30
0.0
 11
74.657294
 21
142.626958
 31
0.0
  0
LINE
  5
3a5
100
AcDbEntity
  8
Outer_Cut
 62
7
100
AcDbLine
 10
74.657294
 20
142.626958
 30
0.0
 11
74.657294
 21
145.806958
 31
0.0
  0
LINE
  5
3a6
100
AcDbEntity
  8
Outer_Cut
 62
7
100
AcDbLine
 10
74.657294
 20
145.806958
 30
0.0
 11
80.657294
 21
145.806958
 31
0.0
  0
LINE
  5
3a7
100
AcDbEntity
  8
Outer_Cut
 62
7
100
AcDbLine
 10
80.657294
 20
145.806958
 30
0.0
 11
80.657294
 21
142.626958
 31
0.0
  0
LINE
  5
3a8
100
AcDbEntity
  8
Outer_Cut
 62
7
100
AcDbLine
 10
80.657294
 20
142.626958
 30
0.0
 11
87.078124
 21
142.626958
 31
0.0
  0
LINE
  5
3a9
100
AcDbEntity
  8
Outer_Cut
 62
7
100
AcDbLine
 10
87.078124
 20
142.626958
 30
0.0
 11
87.078124
 21
145.806958
 31
0.0
  0
LINE
  5
3aa
100
AcDbEntity
  8
Outer_Cut
 62
7
100
AcDbLine
 10
87.078124
 20
145.806958
 30
0.0
 11
93.078124
 21
145.806958
 31
0.0
  0
LINE
  5
3ab
100
AcDbEntity
  8
Outer_Cut
 62
7
100
AcDbLine
 10
93.078124
 20
145.806958
 30
0.0
 11
93.078124
 21
142.626958
 31
0.0
  0
LINE
  5
3ac
100
AcDbEntity
  8
Outer_Cut
 62
7
100
AcDbLine
 10
93.078124
 20
142.626958
 30
0.0
 11
98.217294
 21
142.626958
 31
0.0
  0
LINE
  5
3ad
100
AcDbEntity
  8
Outer_Cut
 62
7
100
AcDbLine
 10
98.217294
 20
110.886958
 30
0.0
 11
93.078124
 21
110.886958
 31
0.0
  0
LINE
  5
3ae
100
AcDbEntity
  8
Outer_Cut
 62
7
100
AcDbLine
 10
93.078124
 20
110.886958
 30
0.0
 11
93.078124
 21
110.886958
 31
0.0
  0
LINE
  5
3af
100
AcDbEntity
  8
Outer_Cut
 62
7
100
AcDbLine
 10
93.078124
 20
110.886958
 30
0.0
 11
87.078124
 21
110.886958
 31
0.0
  0
LINE
  5
3b0
100
AcDbEntity
  8
Outer_Cut
 62
7
100
AcDbLine
 10
87.078124
 20
110.886958
 30
0.0
 11
87.078124
 21
110.886958
 31
0.0
  0
LINE
  5
3b1
100
AcDbEntity
  8
Outer_Cut
 62
7
100
AcDbLine
 10
87.078124
 20
110.886958
 30
0.0
 11
80.657294
 21
110.886958
 31
0.0
  0
LINE
  5
3b2
100
AcDbEntity
  8
Outer_Cut
 62
7
100
AcDbLine
 10
80.657294
 20
110.886958
 30
0.0
 11
80.657294
 21
110.886958
 31
0.0
  0
LINE
  5
3b3
100
AcDbEntity
  8
Outer_Cut
 62
7
100
AcDbLine
 10
80.657294
 20
110.886958
 30
0.0
 11
74.657294
 21
110.886958
 31
0.0
  0
LINE
  5
3b4
100
AcDbEntity
  8
Outer_Cut
 62
7
100
AcDbLine
 10
74.657294
 20
110.886958
 30
0.0
 11
74.657294
 21
110.886958
 31
0.0
  0
LINE
  5
3b5
100
AcDbEntity
  8
Outer_Cut
 62
7
100
AcDbLine
 10
74.657294
 20
110.886958
 30
0.0
 11
68.236465
 21
110.886958
 31
0.0
  0
LINE
  5
3b6
100
AcDbEntity
  8
Outer_Cut
 62
7
100
AcDbLine
 10
68.236465
 20
110.886958
 30
0.0
 11
68.236465
 21
110.886958
 31
0.0
  0
LINE
  5
3b7
100
AcDbEntity
  8
Outer_Cut
 62
7
100
AcDbLine
 10
68.236465
 20
110.886958
 30
0.0
 11
62.236465
 21
110.886958
 31
0.0
  0
LINE
  5
3b8
100
AcDbEntity
  8
Outer_Cut
 62
7
100
AcDbLine
 10
62.236465
 20
110.886958
 30
0.0
 11
62.236465
 21
110.886958
 31
0.0
  0
LINE
  5
3b9
100
AcDbEntity
  8
Outer_Cut
 62
7
100
AcDbLine
 10
62.236465
 20
110.886958
 30
0.0
 11
55.815632
 21
110.886958
 31
0.0
  0
LINE
  5
3ba
100
AcDbEntity
  8
Outer_Cut
 62
7
100
AcDbLine
 10
55.815632
 20
110.886958
 30
0.0
 11
55.815632
 21
110.886958
 31
0.0
  0
LINE
  5
3bb
100
AcDbEntity
  8
Outer_Cut
 62
7
100
AcDbLine
 10
55.815632
 20
110.886958
 30
0.0
 11
49.815632
 21
110.886958
 31
0.0
  0
LINE
  5
3bc
100
AcDbEntity
  8
Outer_Cut
 62
7
100
AcDbLine
 10
49.815632
 20
110.886958
 30
0.0
 11
49.815632
 21
110.886958
 31
0.0
  0
LINE
  5
3bd
100
AcDbEntity
  8
Outer_Cut
 62
7
100
AcDbLine
 10
49.815632
 20
110.886958
 30
0.0
 11
43.394798
 21
110.886958
 31
0.0
  0
LINE
  5
3be
100
AcDbEntity
  8
Outer_Cut
 62
7
100
AcDbLine
 10
43.394798
 20
110.886958
 30
0.0
 11
43.394798
 21
110.886958
 31
0.0
  0
LINE
  5
3bf
100
AcDbEntity
  8
Outer_Cut
 62
7
100
AcDbLine
 10
43.394798
 20
110.886958
 30
0.0
 11
37.394798
 21
110.886958
 31
0.0
  0
LINE
  5
3c0
100
AcDbEntity
  8
Outer_Cut
 62
7
100
AcDbLine
 10
37.394798
 20
110.886958
 30
0.0
 11
37.394798
 21
110.886958
 31
0.0
  0
LINE
  5
3c1
100
AcDbEntity
  8
Outer_Cut
 62
7
100
AcDbLine
 10
37.394798
 20
110.886958
 30
0.0
 11
30.973964
 21
110.886958
 31
0.0
  0
LINE
  5
3c2
100
AcDbEntity
  8
Outer_Cut
 62
7
100
AcDbLine
 10
30.973964
 20
110.886958
 30
0.0
 11
30.973964
 21
110.886958
 31
0.0
  0
LINE
  5
3c3
100
AcDbEntity
  8
Outer_Cut
 62
7
100
AcDbLine
 10
30.973964
 20
110.886958
 30
0.0
 11
24.973964
 21
110.886958
 31
0.0
  0
LINE
  5
3c4
100
AcDbEntity
  8
Outer_Cut
 62
7
100
AcDbLine
 10
24.973964
 20
110.886958
 30
0.0
 11
24.973964
 21
110.886958
 31
0.0
  0
LINE
  5
3c5
100
AcDbEntity
  8
Outer_Cut
 62
7
100
AcDbLine
 10
24.973964
 20
110.886958
 30
0.0
 11
18.553134
 21
110.886958
 31
0.0
  0
LINE
  5
3c6
100
AcDbEntity
  8
Outer_Cut
 62
7
100
AcDbLine
 10
18.553134
 20
110.886958
 30
0.0
 11
18.553134
 21
110.886958
 31
0.0
  0
LINE
  5
3c7
100
AcDbEntity
  8
Outer_Cut
 62
7
100
AcDbLine
 10
18.553134
 20
110.886958
 30
0.0
 11
12.553134
 21
110.886958
 31
0.0
  0
LINE
  5
3c8
100
AcDbEntity
  8
Outer_Cut
 62
7
100
AcDbLine
 10
12.553134
 20
110.886958
 30
0.0
 11
12.553134
 21
110.886958
 31
0.0
  0
LINE
  5
3c9
100
AcDbEntity
  8
Outer_Cut
 62
7
100
AcDbLine
 10
12.553134
 20
110.886958
 30
0.0
 11
6.132294
 21
110.886958
 31
0.0
  0
LINE
  5
3ca
100
AcDbEntity
  8
Outer_Cut
 62
7
100
AcDbLine
 10
6.132294
 20
114.061958
 30
0.0
 11
6.132294
 21
118.523628
 31
0.0
  0
LINE
  5
3cb
100
AcDbEntity
  8
Outer_Cut
 62
7
100
AcDbLine
 10
6.132294
 20
118.523628
 30
0.0
 11
9.312294
 21
118.523628
 31
0.0
  0
LINE
  5
3cc
100
AcDbEntity
  8
Outer_Cut
 62
7
100
AcDbLine
 10
9.312294
 20
118.523628
 30
0.0
 11
9.312294
 21
124.523628
 31
0.0
  0
LINE
  5
3cd
100
AcDbEntity
  8
Outer_Cut
 62
7
100
AcDbLine
 10
9.312294
 20
124.523628
 30
0.0
 11
6.132294
 21
124.523628
 31
0.0
  0
LINE
  5
3ce
100
AcDbEntity
  8
Outer_Cut
 62
7
100
AcDbLine
 10
6.132294
 20
124.523628
 30
0.0
 11
6.132294
 21
132.165298
 31
0.0
  0
LINE
  5
3cf
100
AcDbEntity
  8
Outer_Cut
 62
7
100
AcDbLine
 10
6.132294
 20
132.165298
 30
0.0
 11
9.312294
 21
132.165298
 31
0.0
  0
LINE
  5
3d0
100
AcDbEntity
  8
Outer_Cut
 62
7
100
AcDbLine
 10
9.312294
 20
132.165298
 30
0.0
 11
9.312294
 21
138.165298
 31
0.0
  0
LINE
  5
3d1
100
AcDbEntity
  8
Outer_Cut
 62
7
100
AcDbLine
 10
9.312294
 20
138.165298
 30
0.0
 11
6.132294
 21
138.165298
 31
0.0
  0
LINE
  5
3d2
100
AcDbEntity
  8
Outer_Cut
 62
7
100
AcDbLine
 10
6.132294
 20
138.165298
 30
0.0
 11
6.132294
 21
142.626958
 31
0.0
  0
LINE
  5
3d3
100
AcDbEntity
  8
Outer_Cut
 62
7
100
AcDbLine
 10
95.037294
 20
138.165298
 30
0.0
 11
95.037294
 21
132.165298
 31
0.0
  0
LINE
  5
3d4
100
AcDbEntity
  8
Outer_Cut
 62
7
100
AcDbLine
 10
95.037294
 20
132.165298
 30
0.0
 11
98.217294
 21
132.165298
 31
0.0
  0
LINE
  5
3d5
100
AcDbEntity
  8
Outer_Cut
 62
7
100
AcDbLine
 10
98.217294
 20
124.523628
 30
0.0
 11
95.037294
 21
124.523628
 31
0.0
  0
LINE
  5
3d6
100
AcDbEntity
  8
Outer_Cut
 62
7
100
AcDbLine
 10
95.037294
 20
124.523628
 30
0.0
 11
95.037294
 21
118.523628
 31
0.0
  0
LINE
  5
3d7
100
AcDbEntity
  8
Outer_Cut
 62
7
100
AcDbLine
 10
95.037294
 20
118.523628
 30
0.0
 11
98.217294
 21
118.523628
 31
0.0
  0
SPLINE
  5
3d8
100
AcDbEntity
  8
Outer_Cut
 62
7
100
AcDbSpline
 70
8
 71
3
 72
8
 73
4
 74
0
 40
0
 40
0
 40
0
 40
0
 40
1
 40
1
 40
1
 40
1
 10
98.217294
 20
142.626958
 30
0.0
 10
98.217554
 20
141.140008
 30
0.0
 10
98.217554
 20
139.652788
 30
0.0
 10
98.217294
 20
138.165298
 30
0.0
  0
SPLINE
  5
3d9
100
AcDbEntity
  8
Outer_Cut
 62
7
100
AcDbSpline
 70
8
 71
3
 72
8
 73
4
 74
0
 40
0
 40
0
 40
0
 40
0
 40
1
 40
1
 40
1
 40
1
 10
98.217294
 20
132.165298
 30
0.0
 10
98.217554
 20
129.618338
 30
0.0
 10
98.217554
 20
127.071118
 30
0.0
 10
98.217294
 20
124.523628
 30
0.0
  0
SPLINE
  5
3da
100
AcDbEntity
  8
Outer_Cut
 62
7
100
AcDbSpline
 70
8
 71
3
 72
8
 73
4
 74
0
 40
0
 40
0
 40
0
 40
0
 40
1
 40
1
 40
1
 40
1
 10
95.037294
 20
138.165298
 30
0.0
 10
96.097554
 20
138.165568
 30
0.0
 10
97.157554
 20
138.165568
 30
0.0
 10
98.217294
 20
138.165298
 30
0.0
  0
SPLINE
  5
3db
100
AcDbEntity
  8
Outer_Cut
 62
7
100
AcDbSpline
 70
8
 71
3
 72
8
 73
4
 74
0
 40
0
 40
0
 40
0
 40
0
 40
1
 40
1
 40
1
 40
1
 10
98.217344
 20
118.523628
 30
0.0
 10
98.217604
 20
115.978338
 30
0.0
 10
98.217604
 20
113.432778
 30
0.0
 10
98.217344
 20
110.886958
 30
0.0
  0
SPLINE
  5
3dc
100
AcDbEntity
  8
Outer_Cut
 62
7
100
AcDbSpline
 70
8
 71
3
 72
8
 73
4
 74
0
 40
0
 40
0
 40
0
 40
0
 40
1
 40
1
 40
1
 40
1
 10
6.132294
 20
118.523628
 30
0.0
 10
6.132564
 20
115.978338
 30
0.0
 10
6.132564
 20
113.432778
 30
0.0
 10
6.132294
 20
110.886958
 30
0.0
  0
LINE
  5
3dd
100
AcDbEntity
  8
Outer_Cut
 62
7
100
AcDbLine
 10
206.147304
 20
142.626958
 30
0.0
 11
211.286464
 21
142.626958
 31
0.0
  0
LINE
  5
3de
100
AcDbEntity
  8
Outer_Cut
 62
7
100
AcDbLine
 10
211.286464
 20
142.626958
 30
0.0
 11
211.286464
 21
145.806958
 31
0.0
  0
LINE
  5
3df
100
AcDbEntity
  8
Outer_Cut
 62
7
100
AcDbLine
 10
211.286464
 20
145.806958
 30
0.0
 11
217.286464
 21
145.806958
 31
0.0
  0
LINE
  5
3e0
100
AcDbEntity
  8
Outer_Cut
 62
7
100
AcDbLine
 10
217.286464
 20
145.806958
 30
0.0
 11
217.286464
 21
142.626958
 31
0.0
  0
LINE
  5
3e1
100
AcDbEntity
  8
Outer_Cut
 62
7
100
AcDbLine
 10
217.286464
 20
142.626958
 30
0.0
 11
223.707294
 21
142.626958
 31
0.0
  0
LINE
  5
3e2
100
AcDbEntity
  8
Outer_Cut
 62
7
100
AcDbLine
 10
223.707294
 20
142.626958
 30
0.0
 11
223.707294
 21
145.806958
 31
0.0
  0
LINE
  5
3e3
100
AcDbEntity
  8
Outer_Cut
 62
7
100
AcDbLine
 10
223.707294
 20
145.806958
 30
0.0
 11
229.707294
 21
145.806958
 31
0.0
  0
LINE
  5
3e4
100
AcDbEntity
  8
Outer_Cut
 62
7
100
AcDbLine
 10
229.707294
 20
145.806958
 30
0.0
 11
229.707294
 21
142.626958
 31
0.0
  0
LINE
  5
3e5
100
AcDbEntity
  8
Outer_Cut
 62
7
100
AcDbLine
 10
229.707294
 20
142.626958
 30
0.0
 11
236.128134
 21
142.626958
 31
0.0
  0
LINE
  5
3e6
100
AcDbEntity
  8
Outer_Cut
 62
7
100
AcDbLine
 10
236.128134
 20
142.626958
 30
0.0
 11
236.128134
 21
145.806958
 31
0.0
  0
LINE
  5
3e7
100
AcDbEntity
  8
Outer_Cut
 62
7
100
AcDbLine
 10
236.128134
 20
145.806958
 30
0.0
 11
242.128134
 21
145.806958
 31
0.0
  0
LINE
  5
3e8
100
AcDbEntity
  8
Outer_Cut
 62
7
100
AcDbLine
 10
242.128134
 20
145.806958
 30
0.0
 11
242.128134
 21
142.626958
 31
0.0
  0
LINE
  5
3e9
100
AcDbEntity
  8
Outer_Cut
 62
7
100
AcDbLine
 10
242.128134
 20
142.626958
 30
0.0
 11
248.548964
 21
142.626958
 31
0.0
  0
LINE
  5
3ea
100
AcDbEntity
  8
Outer_Cut
 62
7
100
AcDbLine
 10
248.548964
 20
142.626958
 30
0.0
 11
248.548964
 21
145.806958
 31
0.0
  0
LINE
  5
3eb
100
AcDbEntity
  8
Outer_Cut
 62
7
100
AcDbLine
 10
248.548964
 20
145.806958
 30
0.0
 11
254.548964
 21
145.806958
 31
0.0
  0
LINE
  5
3ec
100
AcDbEntity
  8
Outer_Cut
 62
7
100
AcDbLine
 10
254.548964
 20
145.806958
 30
0.0
 11
254.548964
 21
142.626958
 31
0.0
  0
LINE
  5
3ed
100
AcDbEntity
  8
Outer_Cut
 62
7
100
AcDbLine
 10
254.548964
 20
142.626958
 30
0.0
 11
260.969794
 21
142.626958
 31
0.0
  0
LINE
  5
3ee
100
AcDbEntity
  8
Outer_Cut
 62
7
100
AcDbLine
 10
260.969794
 20
142.626958
 30
0.0
 11
260.969794
 21
145.806958
 31
0.0
  0
LINE
  5
3ef
100
AcDbEntity
  8
Outer_Cut
 62
7
100
AcDbLine
 10
260.969794
 20
145.806958
 30
0.0
 11
266.969794
 21
145.806958
 31
0.0
  0
LINE
  5
3f0
100
AcDbEntity
  8
Outer_Cut
 62
7
100
AcDbLine
 10
266.969794
 20
145.806958
 30
0.0
 11
266.969794
 21
142.626958
 31
0.0
  0
LINE
  5
3f1
100
AcDbEntity
  8
Outer_Cut
 62
7
100
AcDbLine
 10
266.969794
 20
142.626958
 30
0.0
 11
273.390634
 21
142.626958
 31
0.0
  0
LINE
  5
3f2
100
AcDbEntity
  8
Outer_Cut
 62
7
100
AcDbLine
 10
273.390634
 20
142.626958
 30
0.0
 11
273.390634
 21
145.806958
 31
0.0
  0
LINE
  5
3f3
100
AcDbEntity
  8
Outer_Cut
 62
7
100
AcDbLine
 10
273.390634
 20
145.806958
 30
0.0
 11
279.390634
 21
145.806958
 31
0.0
  0
LINE
  5
3f4
100
AcDbEntity
  8
Outer_Cut
 62
7
100
AcDbLine
 10
279.390634
 20
145.806958
 30
0.0
 11
279.390634
 21
142.626958
 31
0.0
  0
LINE
  5
3f5
100
AcDbEntity
  8
Outer_Cut
 62
7
100
AcDbLine
 10
279.390634
 20
142.626958
 30
0.0
 11
285.811464
 21
142.626958
 31
0.0
  0
LINE
  5
3f6
100
AcDbEntity
  8
Outer_Cut
 62
7
100
AcDbLine
 10
285.811464
 20
142.626958
 30
0.0
 11
285.811464
 21
145.806958
 31
0.0
  0
LINE
  5
3f7
100
AcDbEntity
  8
Outer_Cut
 62
7
100
AcDbLine
 10
285.811464
 20
145.806958
 30
0.0
 11
291.811464
 21
145.806958
 31
0.0
  0
LINE
  5
3f8
100
AcDbEntity
  8
Outer_Cut
 62
7
100
AcDbLine
 10
291.811464
 20
145.806958
 30
0.0
 11
291.811464
 21
142.626958
 31
0.0
  0
LINE
  5
3f9
100
AcDbEntity
  8
Outer_Cut
 62
7
100
AcDbLine
 10
291.811464
 20
142.626958
 30
0.0
 11
298.232304
 21
142.626958
 31
0.0
  0
LINE
  5
3fa
100
AcDbEntity
  8
Outer_Cut
 62
7
100
AcDbLine
 10
298.232304
 20
142.626958
 30
0.0
 11
298.232304
 21
138.165298
 31
0.0
  0
LINE
  5
3fb
100
AcDbEntity
  8
Outer_Cut
 62
7
100
AcDbLine
 10
298.232304
 20
138.165298
 30
0.0
 11
295.052304
 21
138.165298
 31
0.0
  0
LINE
  5
3fc
100
AcDbEntity
  8
Outer_Cut
 62
7
100
AcDbLine
 10
295.052304
 20
138.165298
 30
0.0
 11
295.052304
 21
132.165298
 31
0.0
  0
LINE
  5
3fd
100
AcDbEntity
  8
Outer_Cut
 62
7
100
AcDbLine
 10
295.052304
 20
132.165298
 30
0.0
 11
298.232304
 21
132.165298
 31
0.0
  0
LINE
  5
3fe
100
AcDbEntity
  8
Outer_Cut
 62
7
100
AcDbLine
 10
298.232304
 20
132.165298
 30
0.0
 11
298.232304
 21
124.523628
 31
0.0
  0
LINE
  5
3ff
100
AcDbEntity
  8
Outer_Cut
 62
7
100
AcDbLine
 10
298.232304
 20
124.523628
 30
0.0
 11
295.052304
 21
124.523628
 31
0.0
  0
LINE
  5
400
100
AcDbEntity
  8
Outer_Cut
 62
7
100
AcDbLine
 10
295.052304
 20
124.523628
 30
0.0
 11
295.052304
 21
118.523628
 31
0.0
  0
LINE
  5
401
100
AcDbEntity
  8
Outer_Cut
 62
7
100
AcDbLine
 10
295.052304
 20
118.523628
 30
0.0
 11
298.232304
 21
118.523628
 31
0.0
  0
LINE
  5
402
100
AcDbEntity
  8
Outer_Cut
 62
7
100
AcDbLine
 10
298.232304
 20
118.523628
 30
0.0
 11
298.232304
 21
110.886958
 31
0.0
  0
LINE
  5
403
100
AcDbEntity
  8
Outer_Cut
 62
7
100
AcDbLine
 10
298.232304
 20
110.886958
 30
0.0
 11
291.811464
 21
110.886958
 31
0.0
  0
LINE
  5
404
100
AcDbEntity
  8
Outer_Cut
 62
7
100
AcDbLine
 10
291.811464
 20
110.886958
 30
0.0
 11
291.811464
 21
110.886958
 31
0.0
  0
LINE
  5
405
100
AcDbEntity
  8
Outer_Cut
 62
7
100
AcDbLine
 10
291.811464
 20
110.886958
 30
0.0
 11
285.811464
 21
110.886958
 31
0.0
  0
LINE
  5
406
100
AcDbEntity
  8
Outer_Cut
 62
7
100
AcDbLine
 10
285.811464
 20
110.886958
 30
0.0
 11
285.811464
 21
110.886958
 31
0.0
  0
LINE
  5
407
100
AcDbEntity
  8
Outer_Cut
 62
7
100
AcDbLine
 10
285.811464
 20
110.886958
 30
0.0
 11
279.390634
 21
110.886958
 31
0.0
  0
LINE
  5
408
100
AcDbEntity
  8
Outer_Cut
 62
7
100
AcDbLine
 10
279.390634
 20
110.886958
 30
0.0
 11
279.390634
 21
110.886958
 31
0.0
  0
LINE
  5
409
100
AcDbEntity
  8
Outer_Cut
 62
7
100
AcDbLine
 10
279.390634
 20
110.886958
 30
0.0
 11
273.390634
 21
110.886958
 31
0.0
  0
LINE
  5
40a
100
AcDbEntity
  8
Outer_Cut
 62
7
100
AcDbLine
 10
273.390634
 20
110.886958
 30
0.0
 11
273.390634
 21
110.886958
 31
0.0
  0
LINE
  5
40b
100
AcDbEntity
  8
Outer_Cut
 62
7
100
AcDbLine
 10
273.390634
 20
110.886958
 30
0.0
 11
266.969794
 21
110.886958
 31
0.0
  0
LINE
  5
40c
100
AcDbEntity
  8
Outer_Cut
 62
7
100
AcDbLine
 10
266.969794
 20
110.886958
 30
0.0
 11
266.969794
 21
110.886958
 31
0.0
  0
LINE
  5
40d
100
AcDbEntity
  8
Outer_Cut
 62
7
100
AcDbLine
 10
266.969794
 20
110.886958
 30
0.0
 11
260.969794
 21
110.886958
 31
0.0
  0
LINE
  5
40e
100
AcDbEntity
  8
Outer_Cut
 62
7
100
AcDbLine
 10
260.969794
 20
110.886958
 30
0.0
 11
260.969794
 21
110.886958
 31
0.0
  0
LINE
  5
40f
100
AcDbEntity
  8
Outer_Cut
 62
7
100
AcDbLine
 10
260.969794
 20
110.886958
 30
0.0
 11
254.548964
 21
110.886958
 31
0.0
  0
LINE
  5
410
100
AcDbEntity
  8
Outer_Cut
 62
7
100
AcDbLine
 10
254.548964
 20
110.886958
 30
0.0
 11
254.548964
 21
110.886958
 31
0.0
  0
LINE
  5
411
100
AcDbEntity
  8
Outer_Cut
 62
7
100
AcDbLine
 10
254.548964
 20
110.886958
 30
0.0
 11
248.548964
 21
110.886958
 31
0.0
  0
LINE
  5
412
100
AcDbEntity
  8
Outer_Cut
 62
7
100
AcDbLine
 10
248.548964
 20
110.886958
 30
0.0
 11
248.548964
 21
110.886958
 31
0.0
  0
LINE
  5
413
100
AcDbEntity
  8
Outer_Cut
 62
7
100
AcDbLine
 10
248.548964
 20
110.886958
 30
0.0
 11
242.128134
 21
110.886958
 31
0.0
  0
LINE
  5
414
100
AcDbEntity
  8
Outer_Cut
 62
7
100
AcDbLine
 10
242.128134
 20
110.886958
 30
0.0
 11
242.128134
 21
110.886958
 31
0.0
  0
LINE
  5
415
100
AcDbEntity
  8
Outer_Cut
 62
7
100
AcDbLine
 10
242.128134
 20
110.886958
 30
0.0
 11
236.128134
 21
110.886958
 31
0.0
  0
LINE
  5
416
100
AcDbEntity
  8
Outer_Cut
 62
7
100
AcDbLine
 10
236.128134
 20
110.886958
 30
0.0
 11
236.128134
 21
110.886958
 31
0.0
  0
LINE
  5
417
100
AcDbEntity
  8
Outer_Cut
 62
7
100
AcDbLine
 10
236.128134
 20
110.886958
 30
0.0
 11
229.707294
 21
110.886958
 31
0.0
  0
LINE
  5
418
100
AcDbEntity
  8
Outer_Cut
 62
7
100
AcDbLine
 10
229.707294
 20
110.886958
 30
0.0
 11
229.707294
 21
110.886958
 31
0.0
  0
LINE
  5
419
100
AcDbEntity
  8
Outer_Cut
 62
7
100
AcDbLine
 10
229.707294
 20
110.886958
 30
0.0
 11
223.707294
 21
110.886958
 31
0.0
  0
LINE
  5
41a
100
AcDbEntity
  8
Outer_Cut
 62
7
100
AcDbLine
 10
223.707294
 20
110.886958
 30
0.0
 11
223.707294
 21
110.886958
 31
0.0
  0
LINE
  5
41b
100
AcDbEntity
  8
Outer_Cut
 62
7
100
AcDbLine
 10
223.707294
 20
110.886958
 30
0.0
 11
217.286464
 21
110.886958
 31
0.0
  0
LINE
  5
41c
100
AcDbEntity
  8
Outer_Cut
 62
7
100
AcDbLine
 10
217.286464
 20
110.886958
 30
0.0
 11
217.286464
 21
110.886958
 31
0.0
  0
LINE
  5
41d
100
AcDbEntity
  8
Outer_Cut
 62
7
100
AcDbLine
 10
217.286464
 20
110.886958
 30
0.0
 11
211.286464
 21
110.886958
 31
0.0
  0
LINE
  5
41e
100
AcDbEntity
  8
Outer_Cut
 62
7
100
AcDbLine
 10
211.286464
 20
110.886958
 30
0.0
 11
211.286464
 21
110.886958
 31
0.0
  0
LINE
  5
41f
100
AcDbEntity
  8
Outer_Cut
 62
7
100
AcDbLine
 10
211.286464
 20
110.886958
 30
0.0
 11
206.147304
 21
110.886958
 31
0.0
  0
LINE
  5
420
100
AcDbEntity
  8
Outer_Cut
 62
7
100
AcDbLine
 10
209.327304
 20
132.165298
 30
0.0
 11
209.327304
 21
138.165298
 31
0.0
  0
LINE
  5
421
100
AcDbEntity
  8
Outer_Cut
 62
7
100
AcDbLine
 10
209.327304
 20
138.165298
 30
0.0
 11
206.147304
 21
138.165298
 31
0.0
  0
LINE
  5
422
100
AcDbEntity
  8
Outer_Cut
 62
7
100
AcDbLine
 10
209.327304
 20
118.523628
 30
0.0
 11
209.327304
 21
124.523628
 31
0.0
  0
LINE
  5
423
100
AcDbEntity
  8
Outer_Cut
 62
7
100
AcDbLine
 10
209.327304
 20
124.523628
 30
0.0
 11
206.147304
 21
124.523628
 31
0.0
  0
SPLINE
  5
424
100
AcDbEntity
  8
Outer_Cut
 62
7
100
AcDbSpline
 70
8
 71
3
 72
8
 73
4
 74
0
 40
0
 40
0
 40
0
 40
0
 40
1
 40
1
 40
1
 40
1
 10
206.147304
 20
138.165298
 30
0.0
 10
206.147564
 20
139.652788
 30
0.0
 10
206.147564
 20
141.140008
 30
0.0
 10
206.147304
 20
142.626958
 30
0.0
  0
SPLINE
  5
425
100
AcDbEntity
  8
Outer_Cut
 62
7
100
AcDbSpline
 70
8
 71
3
 72
8
 73
4
 74
0
 40
0
 40
0
 40
0
 40
0
 40
1
 40
1
 40
1
 40
1
 10
206.147304
 20
110.886958
 30
0.0
 10
206.130204
 20
113.432778
 30
0.0
 10
206.112804
 20
115.978338
 30
0.0
 10
206.095104
 20
118.523628
 30
0.0
  0
SPLINE
  5
426
100
AcDbEntity
  8
Outer_Cut
 62
7
100
AcDbSpline
 70
8
 71
3
 72
8
 73
4
 74
0
 40
0
 40
0
 40
0
 40
0
 40
1
 40
1
 40
1
 40
1
 10
209.327304
 20
118.523628
 30
0.0
 10
208.250164
 20
118.523898
 30
0.0
 10
207.172774
 20
118.523898
 30
0.0
 10
206.095104
 20
118.523628
 30
0.0
  0
SPLINE
  5
427
100
AcDbEntity
  8
Outer_Cut
 62
7
100
AcDbSpline
 70
8
 71
3
 72
8
 73
4
 74
0
 40
0
 40
0
 40
0
 40
0
 40
1
 40
1
 40
1
 40
1
 10
206.147304
 20
124.523628
 30
0.0
 10
206.130204
 20
127.071118
 30
0.0
 10
206.112804
 20
129.618338
 30
0.0
 10
206.095104
 20
132.165298
 30
0.0
  0
SPLINE
  5
428
100
AcDbEntity
  8
Outer_Cut
 62
7
100
AcDbSpline
 70
8
 71
3
 72
8
 73
4
 74
0
 40
0
 40
0
 40
0
 40
0
 40
1
 40
1
 40
1
 40
1
 10
209.327304
 20
132.165298
 30
0.0
 10
208.250164
 20
132.165568
 30
0.0
 10
207.172774
 20
132.165568
 30
0.0
 10
206.095104
 20
132.165298
 30
0.0
  0
LINE
  5
429
100
AcDbEntity
  8
Outer_Cut
 62
7
100
AcDbLine
 10
206.147304
 20
314.790288
 30
0.0
 11
206.147304
 21
308.790288
 31
0.0
  0
LINE
  5
42a
100
AcDbEntity
  8
Outer_Cut
 62
7
100
AcDbLine
 10
206.147304
 20
308.790288
 30
0.0
 11
209.327304
 21
308.790288
 31
0.0
  0
LINE
  5
42b
100
AcDbEntity
  8
Outer_Cut
 62
7
100
AcDbLine
 10
209.327304
 20
308.790288
 30
0.0
 11
209.327304
 21
314.790288
 31
0.0
  0
LINE
  5
42c
100
AcDbEntity
  8
Outer_Cut
 62
7
100
AcDbLine
 10
209.327304
 20
314.790288
 30
0.0
 11
206.147304
 21
314.790288
 31
0.0
  0
LINE
  5
42d
100
AcDbEntity
  8
Outer_Cut
 62
7
100
AcDbLine
 10
206.147304
 20
301.148628
 30
0.0
 11
206.147304
 21
295.148628
 31
0.0
  0
LINE
  5
42e
100
AcDbEntity
  8
Outer_Cut
 62
7
100
AcDbLine
 10
206.147304
 20
295.148628
 30
0.0
 11
209.327304
 21
295.148628
 31
0.0
  0
LINE
  5
42f
100
AcDbEntity
  8
Outer_Cut
 62
7
100
AcDbLine
 10
209.327304
 20
295.148628
 30
0.0
 11
209.327304
 21
301.148628
 31
0.0
  0
LINE
  5
430
100
AcDbEntity
  8
Outer_Cut
 62
7
100
AcDbLine
 10
209.327304
 20
301.148628
 30
0.0
 11
206.147304
 21
301.148628
 31
0.0
  0
LINE
  5
431
100
AcDbEntity
  8
Outer_Cut
 62
7
100
AcDbLine
 10
95.037294
 20
314.790288
 30
0.0
 11
95.037294
 21
308.790288
 31
0.0
  0
LINE
  5
432
100
AcDbEntity
  8
Outer_Cut
 62
7
100
AcDbLine
 10
95.037294
 20
308.790288
 30
0.0
 11
98.217294
 21
308.790288
 31
0.0
  0
LINE
  5
433
100
AcDbEntity
  8
Outer_Cut
 62
7
100
AcDbLine
 10
98.217294
 20
308.790288
 30
0.0
 11
98.217294
 21
314.790288
 31
0.0
  0
LINE
  5
434
100
AcDbEntity
  8
Outer_Cut
 62
7
100
AcDbLine
 10
98.217294
 20
314.790288
 30
0.0
 11
95.037294
 21
314.790288
 31
0.0
  0
LINE
  5
435
100
AcDbEntity
  8
Outer_Cut
 62
7
100
AcDbLine
 10
95.037294
 20
301.148628
 30
0.0
 11
95.037294
 21
295.148628
 31
0.0
  0
LINE
  5
436
100
AcDbEntity
  8
Outer_Cut
 62
7
100
AcDbLine
 10
95.037294
 20
295.148628
 30
0.0
 11
98.217294
 21
295.148628
 31
0.0
  0
LINE
  5
437
100
AcDbEntity
  8
Outer_Cut
 62
7
100
AcDbLine
 10
98.217294
 20
295.148628
 30
0.0
 11
98.217294
 21
301.148628
 31
0.0
  0
LINE
  5
438
100
AcDbEntity
  8
Outer_Cut
 62
7
100
AcDbLine
 10
98.217294
 20
301.148628
 30
0.0
 11
95.037294
 21
301.148628
 31
0.0
  0
LINE
  5
439
100
AcDbEntity
  8
Outer_Cut
 62
7
100
AcDbLine
 10
6.132454
 20
322.427198
 30
0.0
 11
6.132454
 21
319.252198
 31
0.0
  0
LINE
  5
43a
100
AcDbEntity
  8
Outer_Cut
 62
7
100
AcDbLine
 10
6.132454
 20
319.252198
 30
0.0
 11
6.132454
 21
290.687018
 31
0.0
  0
LINE
  5
43b
100
AcDbEntity
  8
Outer_Cut
 62
7
100
AcDbLine
 10
6.132454
 20
290.687018
 30
0.0
 11
12.553244
 21
290.687018
 31
0.0
  0
LINE
  5
43c
100
AcDbEntity
  8
Outer_Cut
 62
7
100
AcDbLine
 10
12.553244
 20
290.687018
 30
0.0
 11
12.553244
 21
287.506848
 31
0.0
  0
LINE
  5
43d
100
AcDbEntity
  8
Outer_Cut
 62
7
100
AcDbLine
 10
12.553244
 20
287.506848
 30
0.0
 11
18.552884
 21
287.506848
 31
0.0
  0
LINE
  5
43e
100
AcDbEntity
  8
Outer_Cut
 62
7
100
AcDbLine
 10
18.552884
 20
287.506848
 30
0.0
 11
18.552884
 21
290.687018
 31
0.0
  0
LINE
  5
43f
100
AcDbEntity
  8
Outer_Cut
 62
7
100
AcDbLine
 10
18.552884
 20
290.687018
 30
0.0
 11
24.974194
 21
290.687018
 31
0.0
  0
LINE
  5
440
100
AcDbEntity
  8
Outer_Cut
 62
7
100
AcDbLine
 10
24.974194
 20
290.687018
 30
0.0
 11
24.974194
 21
287.506848
 31
0.0
  0
LINE
  5
441
100
AcDbEntity
  8
Outer_Cut
 62
7
100
AcDbLine
 10
24.974194
 20
287.506848
 30
0.0
 11
30.973824
 21
287.506848
 31
0.0
  0
LINE
  5
442
100
AcDbEntity
  8
Outer_Cut
 62
7
100
AcDbLine
 10
30.973824
 20
287.506848
 30
0.0
 11
30.973824
 21
290.687018
 31
0.0
  0
LINE
  5
443
100
AcDbEntity
  8
Outer_Cut
 62
7
100
AcDbLine
 10
30.973824
 20
290.687018
 30
0.0
 11
37.394625
 21
290.687018
 31
0.0
  0
LINE
  5
444
100
AcDbEntity
  8
Outer_Cut
 62
7
100
AcDbLine
 10
37.394625
 20
290.687018
 30
0.0
 11
37.394625
 21
287.506848
 31
0.0
  0
LINE
  5
445
100
AcDbEntity
  8
Outer_Cut
 62
7
100
AcDbLine
 10
37.394625
 20
287.506848
 30
0.0
 11
43.394774
 21
287.506848
 31
0.0
  0
LINE
  5
446
100
AcDbEntity
  8
Outer_Cut
 62
7
100
AcDbLine
 10
43.394774
 20
287.506848
 30
0.0
 11
43.394774
 21
290.687018
 31
0.0
  0
LINE
  5
447
100
AcDbEntity
  8
Outer_Cut
 62
7
100
AcDbLine
 10
43.394774
 20
290.687018
 30
0.0
 11
49.815571
 21
290.687018
 31
0.0
  0
LINE
  5
448
100
AcDbEntity
  8
Outer_Cut
 62
7
100
AcDbLine
 10
49.815571
 20
290.687018
 30
0.0
 11
49.815571
 21
287.506848
 31
0.0
  0
LINE
  5
449
100
AcDbEntity
  8
Outer_Cut
 62
7
100
AcDbLine
 10
49.815571
 20
287.506848
 30
0.0
 11
55.815721
 21
287.506848
 31
0.0
  0
LINE
  5
44a
100
AcDbEntity
  8
Outer_Cut
 62
7
100
AcDbLine
 10
55.815721
 20
287.506848
 30
0.0
 11
55.815721
 21
290.687018
 31
0.0
  0
LINE
  5
44b
100
AcDbEntity
  8
Outer_Cut
 62
7
100
AcDbLine
 10
55.815721
 20
290.687018
 30
0.0
 11
62.236518
 21
290.687018
 31
0.0
  0
LINE
  5
44c
100
AcDbEntity
  8
Outer_Cut
 62
7
100
AcDbLine
 10
62.236518
 20
290.687018
 30
0.0
 11
62.236518
 21
287.506848
 31
0.0
  0
LINE
  5
44d
100
AcDbEntity
  8
Outer_Cut
 62
7
100
AcDbLine
 10
62.236518
 20
287.506848
 30
0.0
 11
68.236670
 21
287.506848
 31
0.0
  0
LINE
  5
44e
100
AcDbEntity
  8
Outer_Cut
 62
7
100
AcDbLine
 10
68.236670
 20
287.506848
 30
0.0
 11
68.236670
 21
290.687018
 31
0.0
  0
LINE
  5
44f
100
AcDbEntity
  8
Outer_Cut
 62
7
100
AcDbLine
 10
68.236670
 20
290.687018
 30
0.0
 11
74.657464
 21
290.687018
 31
0.0
  0
LINE
  5
450
100
AcDbEntity
  8
Outer_Cut
 62
7
100
AcDbLine
 10
74.657464
 20
290.687018
 30
0.0
 11
74.657464
 21
287.506848
 31
0.0
  0
LINE
  5
451
100
AcDbEntity
  8
Outer_Cut
 62
7
100
AcDbLine
 10
74.657464
 20
287.506848
 30
0.0
 11
80.657104
 21
287.506848
 31
0.0
  0
LINE
  5
452
100
AcDbEntity
  8
Outer_Cut
 62
7
100
AcDbLine
 10
80.657104
 20
287.506848
 30
0.0
 11
80.657104
 21
290.687018
 31
0.0
  0
LINE
  5
453
100
AcDbEntity
  8
Outer_Cut
 62
7
100
AcDbLine
 10
80.657104
 20
290.687018
 30
0.0
 11
87.077894
 21
290.687018
 31
0.0
  0
LINE
  5
454
100
AcDbEntity
  8
Outer_Cut
 62
7
100
AcDbLine
 10
87.077894
 20
290.687018
 30
0.0
 11
87.077894
 21
287.506848
 31
0.0
  0
LINE
  5
455
100
AcDbEntity
  8
Outer_Cut
 62
7
100
AcDbLine
 10
87.077894
 20
287.506848
 30
0.0
 11
93.078044
 21
287.506848
 31
0.0
  0
LINE
  5
456
100
AcDbEntity
  8
Outer_Cut
 62
7
100
AcDbLine
 10
93.078044
 20
287.506848
 30
0.0
 11
93.078044
 21
290.687018
 31
0.0
  0
LINE
  5
457
100
AcDbEntity
  8
Outer_Cut
 62
7
100
AcDbLine
 10
93.078044
 20
290.687018
 30
0.0
 11
99.498844
 21
290.687018
 31
0.0
  0
LINE
  5
458
100
AcDbEntity
  8
Outer_Cut
 62
7
100
AcDbLine
 10
99.498844
 20
290.687018
 30
0.0
 11
99.498844
 21
287.506848
 31
0.0
  0
LINE
  5
459
100
AcDbEntity
  8
Outer_Cut
 62
7
100
AcDbLine
 10
99.498844
 20
287.506848
 30
0.0
 11
105.498994
 21
287.506848
 31
0.0
  0
LINE
  5
45a
100
AcDbEntity
  8
Outer_Cut
 62
7
100
AcDbLine
 10
105.498994
 20
287.506848
 30
0.0
 11
105.498994
 21
290.687018
 31
0.0
  0
LINE
  5
45b
100
AcDbEntity
  8
Outer_Cut
 62
7
100
AcDbLine
 10
105.498994
 20
290.687018
 30
0.0
 11
111.919794
 21
290.687018
 31
0.0
  0
LINE
  5
45c
100
AcDbEntity
  8
Outer_Cut
 62
7
100
AcDbLine
 10
111.919794
 20
290.687018
 30
0.0
 11
111.919794
 21
287.506848
 31
0.0
  0
LINE
  5
45d
100
AcDbEntity
  8
Outer_Cut
 62
7
100
AcDbLine
 10
111.919794
 20
287.506848
 30
0.0
 11
117.919944
 21
287.506848
 31
0.0
  0
LINE
  5
45e
100
AcDbEntity
  8
Outer_Cut
 62
7
100
AcDbLine
 10
117.919944
 20
287.506848
 30
0.0
 11
117.919944
 21
290.687018
 31
0.0
  0
LINE
  5
45f
100
AcDbEntity
  8
Outer_Cut
 62
7
100
AcDbLine
 10
117.919944
 20
290.687018
 30
0.0
 11
124.340734
 21
290.687018
 31
0.0
  0
LINE
  5
460
100
AcDbEntity
  8
Outer_Cut
 62
7
100
AcDbLine
 10
124.340734
 20
290.687018
 30
0.0
 11
124.340734
 21
287.506848
 31
0.0
  0
LINE
  5
461
100
AcDbEntity
  8
Outer_Cut
 62
7
100
AcDbLine
 10
124.340734
 20
287.506848
 30
0.0
 11
130.340884
 21
287.506848
 31
0.0
  0
LINE
  5
462
100
AcDbEntity
  8
Outer_Cut
 62
7
100
AcDbLine
 10
130.340884
 20
287.506848
 30
0.0
 11
130.340884
 21
290.687018
 31
0.0
  0
LINE
  5
463
100
AcDbEntity
  8
Outer_Cut
 62
7
100
AcDbLine
 10
130.340884
 20
290.687018
 30
0.0
 11
136.761684
 21
290.687018
 31
0.0
  0
LINE
  5
464
100
AcDbEntity
  8
Outer_Cut
 62
7
100
AcDbLine
 10
136.761684
 20
290.687018
 30
0.0
 11
136.761684
 21
287.506848
 31
0.0
  0
LINE
  5
465
100
AcDbEntity
  8
Outer_Cut
 62
7
100
AcDbLine
 10
136.761684
 20
287.506848
 30
0.0
 11
142.761324
 21
287.506848
 31
0.0
  0
LINE
  5
466
100
AcDbEntity
  8
Outer_Cut
 62
7
100
AcDbLine
 10
142.761324
 20
287.506848
 30
0.0
 11
142.761324
 21
290.687018
 31
0.0
  0
LINE
  5
467
100
AcDbEntity
  8
Outer_Cut
 62
7
100
AcDbLine
 10
142.761324
 20
290.687018
 30
0.0
 11
149.182114
 21
290.687018
 31
0.0
  0
LINE
  5
468
100
AcDbEntity
  8
Outer_Cut
 62
7
100
AcDbLine
 10
149.182114
 20
290.687018
 30
0.0
 11
149.182114
 21
287.506848
 31
0.0
  0
LINE
  5
469
100
AcDbEntity
  8
Outer_Cut
 62
7
100
AcDbLine
 10
149.182114
 20
287.506848
 30
0.0
 11
155.182264
 21
287.506848
 31
0.0
  0
LINE
  5
46a
100
AcDbEntity
  8
Outer_Cut
 62
7
100
AcDbLine
 10
155.182264
 20
287.506848
 30
0.0
 11
155.182264
 21
290.687018
 31
0.0
  0
LINE
  5
46b
100
AcDbEntity
  8
Outer_Cut
 62
7
100
AcDbLine
 10
155.182264
 20
290.687018
 30
0.0
 11
161.603064
 21
290.687018
 31
0.0
  0
LINE
  5
46c
100
AcDbEntity
  8
Outer_Cut
 62
7
100
AcDbLine
 10
161.603064
 20
290.687018
 30
0.0
 11
161.603064
 21
287.506848
 31
0.0
  0
LINE
  5
46d
100
AcDbEntity
  8
Outer_Cut
 62
7
100
AcDbLine
 10
161.603064
 20
287.506848
 30
0.0
 11
167.603214
 21
287.506848
 31
0.0
  0
LINE
  5
46e
100
AcDbEntity
  8
Outer_Cut
 62
7
100
AcDbLine
 10
167.603214
 20
287.506848
 30
0.0
 11
167.603214
 21
290.687018
 31
0.0
  0
LINE
  5
46f
100
AcDbEntity
  8
Outer_Cut
 62
7
100
AcDbLine
 10
167.603214
 20
290.687018
 30
0.0
 11
174.024014
 21
290.687018
 31
0.0
  0
LINE
  5
470
100
AcDbEntity
  8
Outer_Cut
 62
7
100
AcDbLine
 10
174.024014
 20
290.687018
 30
0.0
 11
174.024014
 21
287.506848
 31
0.0
  0
LINE
  5
471
100
AcDbEntity
  8
Outer_Cut
 62
7
100
AcDbLine
 10
174.024014
 20
287.506848
 30
0.0
 11
180.024154
 21
287.506848
 31
0.0
  0
LINE
  5
472
100
AcDbEntity
  8
Outer_Cut
 62
7
100
AcDbLine
 10
180.024154
 20
287.506848
 30
0.0
 11
180.024154
 21
290.687018
 31
0.0
  0
LINE
  5
473
100
AcDbEntity
  8
Outer_Cut
 62
7
100
AcDbLine
 10
180.024154
 20
290.687018
 30
0.0
 11
186.444954
 21
290.687018
 31
0.0
  0
LINE
  5
474
100
AcDbEntity
  8
Outer_Cut
 62
7
100
AcDbLine
 10
186.444954
 20
290.687018
 30
0.0
 11
186.444954
 21
287.506848
 31
0.0
  0
LINE
  5
475
100
AcDbEntity
  8
Outer_Cut
 62
7
100
AcDbLine
 10
186.444954
 20
287.506848
 30
0.0
 11
192.444594
 21
287.506848
 31
0.0
  0
LINE
  5
476
100
AcDbEntity
  8
Outer_Cut
 62
7
100
AcDbLine
 10
192.444594
 20
287.506848
 30
0.0
 11
192.444594
 21
290.687018
 31
0.0
  0
LINE
  5
477
100
AcDbEntity
  8
Outer_Cut
 62
7
100
AcDbLine
 10
192.444594
 20
290.687018
 30
0.0
 11
198.865384
 21
290.687018
 31
0.0
  0
LINE
  5
478
100
AcDbEntity
  8
Outer_Cut
 62
7
100
AcDbLine
 10
198.865384
 20
290.687018
 30
0.0
 11
198.865384
 21
287.506848
 31
0.0
  0
LINE
  5
479
100
AcDbEntity
  8
Outer_Cut
 62
7
100
AcDbLine
 10
198.865384
 20
287.506848
 30
0.0
 11
204.865534
 21
287.506848
 31
0.0
  0
LINE
  5
47a
100
AcDbEntity
  8
Outer_Cut
 62
7
100
AcDbLine
 10
204.865534
 20
287.506848
 30
0.0
 11
204.865534
 21
290.687018
 31
0.0
  0
LINE
  5
47b
100
AcDbEntity
  8
Outer_Cut
 62
7
100
AcDbLine
 10
204.865534
 20
290.687018
 30
0.0
 11
211.286334
 21
290.687018
 31
0.0
  0
LINE
  5
47c
100
AcDbEntity
  8
Outer_Cut
 62
7
100
AcDbLine
 10
211.286334
 20
290.687018
 30
0.0
 11
211.286334
 21
287.506848
 31
0.0
  0
LINE
  5
47d
100
AcDbEntity
  8
Outer_Cut
 62
7
100
AcDbLine
 10
211.286334
 20
287.506848
 30
0.0
 11
217.286484
 21
287.506848
 31
0.0
  0
LINE
  5
47e
100
AcDbEntity
  8
Outer_Cut
 62
7
100
AcDbLine
 10
217.286484
 20
287.506848
 30
0.0
 11
217.286484
 21
290.687018
 31
0.0
  0
LINE
  5
47f
100
AcDbEntity
  8
Outer_Cut
 62
7
100
AcDbLine
 10
217.286484
 20
290.687018
 30
0.0
 11
223.707284
 21
290.687018
 31
0.0
  0
LINE
  5
480
100
AcDbEntity
  8
Outer_Cut
 62
7
100
AcDbLine
 10
223.707284
 20
290.687018
 30
0.0
 11
223.707284
 21
287.506848
 31
0.0
  0
LINE
  5
481
100
AcDbEntity
  8
Outer_Cut
 62
7
100
AcDbLine
 10
223.707284
 20
287.506848
 30
0.0
 11
229.707424
 21
287.506848
 31
0.0
  0
LINE
  5
482
100
AcDbEntity
  8
Outer_Cut
 62
7
100
AcDbLine
 10
229.707424
 20
287.506848
 30
0.0
 11
229.707424
 21
290.687018
 31
0.0
  0
LINE
  5
483
100
AcDbEntity
  8
Outer_Cut
 62
7
100
AcDbLine
 10
229.707424
 20
290.687018
 30
0.0
 11
236.128234
 21
290.687018
 31
0.0
  0
LINE
  5
484
100
AcDbEntity
  8
Outer_Cut
 62
7
100
AcDbLine
 10
236.128234
 20
290.687018
 30
0.0
 11
236.128234
 21
287.506848
 31
0.0
  0
LINE
  5
485
100
AcDbEntity
  8
Outer_Cut
 62
7
100
AcDbLine
 10
236.128234
 20
287.506848
 30
0.0
 11
242.128374
 21
287.506848
 31
0.0
  0
LINE
  5
486
100
AcDbEntity
  8
Outer_Cut
 62
7
100
AcDbLine
 10
242.128374
 20
287.506848
 30
0.0
 11
242.128374
 21
290.687018
 31
0.0
  0
LINE
  5
487
100
AcDbEntity
  8
Outer_Cut
 62
7
100
AcDbLine
 10
242.128374
 20
290.687018
 30
0.0
 11
248.549174
 21
290.687018
 31
0.0
  0
LINE
  5
488
100
AcDbEntity
  8
Outer_Cut
 62
7
100
AcDbLine
 10
248.549174
 20
290.687018
 30
0.0
 11
248.549174
 21
287.506848
 31
0.0
  0
LINE
  5
489
100
AcDbEntity
  8
Outer_Cut
 62
7
100
AcDbLine
 10
248.549174
 20
287.506848
 30
0.0
 11
254.548814
 21
287.506848
 31
0.0
  0
LINE
  5
48a
100
AcDbEntity
  8
Outer_Cut
 62
7
100
AcDbLine
 10
254.548814
 20
287.506848
 30
0.0
 11
254.548814
 21
290.687018
 31
0.0
  0
LINE
  5
48b
100
AcDbEntity
  8
Outer_Cut
 62
7
100
AcDbLine
 10
254.548814
 20
290.687018
 30
0.0
 11
260.969614
 21
290.687018
 31
0.0
  0
LINE
  5
48c
100
AcDbEntity
  8
Outer_Cut
 62
7
100
AcDbLine
 10
260.969614
 20
290.687018
 30
0.0
 11
260.969614
 21
287.506848
 31
0.0
  0
LINE
  5
48d
100
AcDbEntity
  8
Outer_Cut
 62
7
100
AcDbLine
 10
260.969614
 20
287.506848
 30
0.0
 11
266.969754
 21
287.506848
 31
0.0
  0
LINE
  5
48e
100
AcDbEntity
  8
Outer_Cut
 62
7
100
AcDbLine
 10
266.969754
 20
287.506848
 30
0.0
 11
266.969754
 21
290.687018
 31
0.0
  0
LINE
  5
48f
100
AcDbEntity
  8
Outer_Cut
 62
7
100
AcDbLine
 10
266.969754
 20
290.687018
 30
0.0
 11
273.390564
 21
290.687018
 31
0.0
  0
LINE
  5
490
100
AcDbEntity
  8
Outer_Cut
 62
7
100
AcDbLine
 10
273.390564
 20
290.687018
 30
0.0
 11
273.390564
 21
287.506848
 31
0.0
  0
LINE
  5
491
100
AcDbEntity
  8
Outer_Cut
 62
7
100
AcDbLine
 10
273.390564
 20
287.506848
 30
0.0
 11
279.390704
 21
287.506848
 31
0.0
  0
LINE
  5
492
100
AcDbEntity
  8
Outer_Cut
 62
7
100
AcDbLine
 10
279.390704
 20
287.506848
 30
0.0
 11
279.390704
 21
290.687018
 31
0.0
  0
LINE
  5
493
100
AcDbEntity
  8
Outer_Cut
 62
7
100
AcDbLine
 10
279.390704
 20
290.687018
 30
0.0
 11
285.811504
 21
290.687018
 31
0.0
  0
LINE
  5
494
100
AcDbEntity
  8
Outer_Cut
 62
7
100
AcDbLine
 10
285.811504
 20
290.687018
 30
0.0
 11
285.811504
 21
287.506848
 31
0.0
  0
LINE
  5
495
100
AcDbEntity
  8
Outer_Cut
 62
7
100
AcDbLine
 10
285.811504
 20
287.506848
 30
0.0
 11
291.811644
 21
287.506848
 31
0.0
  0
LINE
  5
496
100
AcDbEntity
  8
Outer_Cut
 62
7
100
AcDbLine
 10
291.811644
 20
287.506848
 30
0.0
 11
291.811644
 21
290.687018
 31
0.0
  0
LINE
  5
497
100
AcDbEntity
  8
Outer_Cut
 62
7
100
AcDbLine
 10
291.811644
 20
290.687018
 30
0.0
 11
298.232444
 21
290.687018
 31
0.0
  0
LINE
  5
498
100
AcDbEntity
  8
Outer_Cut
 62
7
100
AcDbLine
 10
298.232444
 20
290.687018
 30
0.0
 11
298.232444
 21
319.252198
 31
0.0
  0
LINE
  5
499
100
AcDbEntity
  8
Outer_Cut
 62
7
100
AcDbLine
 10
298.232444
 20
319.252198
 30
0.0
 11
298.232444
 21
322.427198
 31
0.0
  0
LINE
  5
49a
100
AcDbEntity
  8
Outer_Cut
 62
7
100
AcDbLine
 10
298.232444
 20
322.427198
 30
0.0
 11
6.132454
 21
322.427198
 31
0.0
  0
LINE
  5
49b
100
AcDbEntity
  8
Outer_Cut
 62
7
100
AcDbLine
 10
111.919794
 20
254.746959
 30
0.0
 11
117.919794
 21
254.746959
 31
0.0
  0
LINE
  5
49c
100
AcDbEntity
  8
Outer_Cut
 62
7
100
AcDbLine
 10
117.919794
 20
254.746959
 30
0.0
 11
117.919794
 21
257.926959
 31
0.0
  0
LINE
  5
49d
100
AcDbEntity
  8
Outer_Cut
 62
7
100
AcDbLine
 10
117.919794
 20
257.926959
 30
0.0
 11
111.919794
 21
257.926959
 31
0.0
  0
LINE
  5
49e
100
AcDbEntity
  8
Outer_Cut
 62
7
100
AcDbLine
 10
111.919794
 20
257.926959
 30
0.0
 11
111.919794
 21
254.746959
 31
0.0
  0
LINE
  5
49f
100
AcDbEntity
  8
Outer_Cut
 62
7
100
AcDbLine
 10
124.340634
 20
254.746959
 30
0.0
 11
130.340634
 21
254.746959
 31
0.0
  0
LINE
  5
4a0
100
AcDbEntity
  8
Outer_Cut
 62
7
100
AcDbLine
 10
130.340634
 20
254.746959
 30
0.0
 11
130.340634
 21
257.926959
 31
0.0
  0
LINE
  5
4a1
100
AcDbEntity
  8
Outer_Cut
 62
7
100
AcDbLine
 10
130.340634
 20
257.926959
 30
0.0
 11
124.340634
 21
257.926959
 31
0.0
  0
LINE
  5
4a2
100
AcDbEntity
  8
Outer_Cut
 62
7
100
AcDbLine
 10
124.340634
 20
257.926959
 30
0.0
 11
124.340634
 21
254.746959
 31
0.0
  0
LINE
  5
4a3
100
AcDbEntity
  8
Outer_Cut
 62
7
100
AcDbLine
 10
136.761464
 20
254.746959
 30
0.0
 11
142.761464
 21
254.746959
 31
0.0
  0
LINE
  5
4a4
100
AcDbEntity
  8
Outer_Cut
 62
7
100
AcDbLine
 10
142.761464
 20
254.746959
 30
0.0
 11
142.761464
 21
257.926959
 31
0.0
  0
LINE
  5
4a5
100
AcDbEntity
  8
Outer_Cut
 62
7
100
AcDbLine
 10
142.761464
 20
257.926959
 30
0.0
 11
136.761464
 21
257.926959
 31
0.0
  0
LINE
  5
4a6
100
AcDbEntity
  8
Outer_Cut
 62
7
100
AcDbLine
 10
136.761464
 20
257.926959
 30
0.0
 11
136.761464
 21
254.746959
 31
0.0
  0
LINE
  5
4a7
100
AcDbEntity
  8
Outer_Cut
 62
7
100
AcDbLine
 10
149.182294
 20
254.746959
 30
0.0
 11
155.182294
 21
254.746959
 31
0.0
  0
LINE
  5
4a8
100
AcDbEntity
  8
Outer_Cut
 62
7
100
AcDbLine
 10
155.182294
 20
254.746959
 30
0.0
 11
155.182294
 21
257.926959
 31
0.0
  0
LINE
  5
4a9
100
AcDbEntity
  8
Outer_Cut
 62
7
100
AcDbLine
 10
155.182294
 20
257.926959
 30
0.0
 11
149.182294
 21
257.926959
 31
0.0
  0
LINE
  5
4aa
100
AcDbEntity
  8
Outer_Cut
 62
7
100
AcDbLine
 10
149.182294
 20
257.926959
 30
0.0
 11
149.182294
 21
254.746959
 31
0.0
  0
LINE
  5
4ab
100
AcDbEntity
  8
Outer_Cut
 62
7
100
AcDbLine
 10
161.603134
 20
254.746959
 30
0.0
 11
167.603134
 21
254.746959
 31
0.0
  0
LINE
  5
4ac
100
AcDbEntity
  8
Outer_Cut
 62
7
100
AcDbLine
 10
167.603134
 20
254.746959
 30
0.0
 11
167.603134
 21
257.926959
 31
0.0
  0
LINE
  5
4ad
100
AcDbEntity
  8
Outer_Cut
 62
7
100
AcDbLine
 10
167.603134
 20
257.926959
 30
0.0
 11
161.603134
 21
257.926959
 31
0.0
  0
LINE
  5
4ae
100
AcDbEntity
  8
Outer_Cut
 62
7
100
AcDbLine
 10
161.603134
 20
257.926959
 30
0.0
 11
161.603134
 21
254.746959
 31
0.0
  0
LINE
  5
4af
100
AcDbEntity
  8
Outer_Cut
 62
7
100
AcDbLine
 10
174.023964
 20
254.746959
 30
0.0
 11
180.023964
 21
254.746959
 31
0.0
  0
LINE
  5
4b0
100
AcDbEntity
  8
Outer_Cut
 62
7
100
AcDbLine
 10
180.023964
 20
254.746959
 30
0.0
 11
180.023964
 21
257.926959
 31
0.0
  0
LINE
  5
4b1
100
AcDbEntity
  8
Outer_Cut
 62
7
100
AcDbLine
 10
180.023964
 20
257.926959
 30
0.0
 11
174.023964
 21
257.926959
 31
0.0
  0
LINE
  5
4b2
100
AcDbEntity
  8
Outer_Cut
 62
7
100
AcDbLine
 10
174.023964
 20
257.926959
 30
0.0
 11
174.023964
 21
254.746959
 31
0.0
  0
LINE
  5
4b3
100
AcDbEntity
  8
Outer_Cut
 62
7
100
AcDbLine
 10
186.444794
 20
254.746959
 30
0.0
 11
192.444794
 21
254.746959
 31
0.0
  0
LINE
  5
4b4
100
AcDbEntity
  8
Outer_Cut
 62
7
100
AcDbLine
 10
192.444794
 20
254.746959
 30
0.0
 11
192.444794
 21
257.926959
 31
0.0
  0
LINE
  5
4b5
100
AcDbEntity
  8
Outer_Cut
 62
7
100
AcDbLine
 10
192.444794
 20
257.926959
 30
0.0
 11
186.444794
 21
257.926959
 31
0.0
  0
LINE
  5
4b6
100
AcDbEntity
  8
Outer_Cut
 62
7
100
AcDbLine
 10
186.444794
 20
257.926959
 30
0.0
 11
186.444794
 21
254.746959
 31
0.0
  0
LINE
  5
4b7
100
AcDbEntity
  8
Outer_Cut
 62
7
100
AcDbLine
 10
6.132294
 20
286.506958
 30
0.0
 11
12.553134
 21
286.506958
 31
0.0
  0
LINE
  5
4b8
100
AcDbEntity
  8
Outer_Cut
 62
7
100
AcDbLine
 10
12.553134
 20
286.506958
 30
0.0
 11
12.553134
 21
283.326958
 31
0.0
  0
LINE
  5
4b9
100
AcDbEntity
  8
Outer_Cut
 62
7
100
AcDbLine
 10
12.553134
 20
283.326958
 30
0.0
 11
18.553134
 21
283.326958
 31
0.0
  0
LINE
  5
4ba
100
AcDbEntity
  8
Outer_Cut
 62
7
100
AcDbLine
 10
18.553134
 20
283.326958
 30
0.0
 11
18.553134
 21
286.506958
 31
0.0
  0
LINE
  5
4bb
100
AcDbEntity
  8
Outer_Cut
 62
7
100
AcDbLine
 10
18.553134
 20
286.506958
 30
0.0
 11
24.973964
 21
286.506958
 31
0.0
  0
LINE
  5
4bc
100
AcDbEntity
  8
Outer_Cut
 62
7
100
AcDbLine
 10
24.973964
 20
286.506958
 30
0.0
 11
24.973964
 21
283.326958
 31
0.0
  0
LINE
  5
4bd
100
AcDbEntity
  8
Outer_Cut
 62
7
100
AcDbLine
 10
24.973964
 20
283.326958
 30
0.0
 11
30.973964
 21
283.326958
 31
0.0
  0
LINE
  5
4be
100
AcDbEntity
  8
Outer_Cut
 62
7
100
AcDbLine
 10
30.973964
 20
283.326958
 30
0.0
 11
30.973964
 21
286.506958
 31
0.0
  0
LINE
  5
4bf
100
AcDbEntity
  8
Outer_Cut
 62
7
100
AcDbLine
 10
30.973964
 20
286.506958
 30
0.0
 11
37.394798
 21
286.506958
 31
0.0
  0
LINE
  5
4c0
100
AcDbEntity
  8
Outer_Cut
 62
7
100
AcDbLine
 10
37.394798
 20
286.506958
 30
0.0
 11
37.394798
 21
283.326958
 31
0.0
  0
LINE
  5
4c1
100
AcDbEntity
  8
Outer_Cut
 62
7
100
AcDbLine
 10
37.394798
 20
283.326958
 30
0.0
 11
43.394798
 21
283.326958
 31
0.0
  0
LINE
  5
4c2
100
AcDbEntity
  8
Outer_Cut
 62
7
100
AcDbLine
 10
43.394798
 20
283.326958
 30
0.0
 11
43.394798
 21
286.506958
 31
0.0
  0
LINE
  5
4c3
100
AcDbEntity
  8
Outer_Cut
 62
7
100
AcDbLine
 10
43.394798
 20
286.506958
 30
0.0
 11
49.815632
 21
286.506958
 31
0.0
  0
LINE
  5
4c4
100
AcDbEntity
  8
Outer_Cut
 62
7
100
AcDbLine
 10
49.815632
 20
286.506958
 30
0.0
 11
49.815632
 21
283.326958
 31
0.0
  0
LINE
  5
4c5
100
AcDbEntity
  8
Outer_Cut
 62
7
100
AcDbLine
 10
49.815632
 20
283.326958
 30
0.0
 11
55.815632
 21
283.326958
 31
0.0
  0
LINE
  5
4c6
100
AcDbEntity
  8
Outer_Cut
 62
7
100
AcDbLine
 10
55.815632
 20
283.326958
 30
0.0
 11
55.815632
 21
286.506958
 31
0.0
  0
LINE
  5
4c7
100
AcDbEntity
  8
Outer_Cut
 62
7
100
AcDbLine
 10
55.815632
 20
286.506958
 30
0.0
 11
62.236465
 21
286.506958
 31
0.0
  0
LINE
  5
4c8
100
AcDbEntity
  8
Outer_Cut
 62
7
100
AcDbLine
 10
62.236465
 20
286.506958
 30
0.0
 11
62.236465
 21
283.326958
 31
0.0
  0
LINE
  5
4c9
100
AcDbEntity
  8
Outer_Cut
 62
7
100
AcDbLine
 10
62.236465
 20
283.326958
 30
0.0
 11
68.236465
 21
283.326958
 31
0.0
  0
LINE
  5
4ca
100
AcDbEntity
  8
Outer_Cut
 62
7
100
AcDbLine
 10
68.236465
 20
283.326958
 30
0.0
 11
68.236465
 21
286.506958
 31
0.0
  0
LINE
  5
4cb
100
AcDbEntity
  8
Outer_Cut
 62
7
100
AcDbLine
 10
68.236465
 20
286.506958
 30
0.0
 11
74.657294
 21
286.506958
 31
0.0
  0
LINE
  5
4cc
100
AcDbEntity
  8
Outer_Cut
 62
7
100
AcDbLine
 10
74.657294
 20
286.506958
 30
0.0
 11
74.657294
 21
283.326958
 31
0.0
  0
LINE
  5
4cd
100
AcDbEntity
  8
Outer_Cut
 62
7
100
AcDbLine
 10
74.657294
 20
283.326958
 30
0.0
 11
80.657294
 21
283.326958
 31
0.0
  0
LINE
  5
4ce
100
AcDbEntity
  8
Outer_Cut
 62
7
100
AcDbLine
 10
80.657294
 20
283.326958
 30
0.0
 11
80.657294
 21
286.506958
 31
0.0
  0
LINE
  5
4cf
100
AcDbEntity
  8
Outer_Cut
 62
7
100
AcDbLine
 10
80.657294
 20
286.506958
 30
0.0
 11
87.078124
 21
286.506958
 31
0.0
  0
LINE
  5
4d0
100
AcDbEntity
  8
Outer_Cut
 62
7
100
AcDbLine
 10
87.078124
 20
286.506958
 30
0.0
 11
87.078124
 21
283.326958
 31
0.0
  0
LINE
  5
4d1
100
AcDbEntity
  8
Outer_Cut
 62
7
100
AcDbLine
 10
87.078124
 20
283.326958
 30
0.0
 11
93.078124
 21
283.326958
 31
0.0
  0
LINE
  5
4d2
100
AcDbEntity
  8
Outer_Cut
 62
7
100
AcDbLine
 10
93.078124
 20
283.326958
 30
0.0
 11
93.078124
 21
286.506958
 31
0.0
  0
LINE
  5
4d3
100
AcDbEntity
  8
Outer_Cut
 62
7
100
AcDbLine
 10
93.078124
 20
286.506958
 30
0.0
 11
99.498964
 21
286.506958
 31
0.0
  0
LINE
  5
4d4
100
AcDbEntity
  8
Outer_Cut
 62
7
100
AcDbLine
 10
99.498964
 20
286.506958
 30
0.0
 11
99.498964
 21
283.326958
 31
0.0
  0
LINE
  5
4d5
100
AcDbEntity
  8
Outer_Cut
 62
7
100
AcDbLine
 10
99.498964
 20
283.326958
 30
0.0
 11
105.498964
 21
283.326958
 31
0.0
  0
LINE
  5
4d6
100
AcDbEntity
  8
Outer_Cut
 62
7
100
AcDbLine
 10
105.498964
 20
283.326958
 30
0.0
 11
105.498964
 21
286.506958
 31
0.0
  0
LINE
  5
4d7
100
AcDbEntity
  8
Outer_Cut
 62
7
100
AcDbLine
 10
105.498964
 20
286.506958
 30
0.0
 11
111.919794
 21
286.506958
 31
0.0
  0
LINE
  5
4d8
100
AcDbEntity
  8
Outer_Cut
 62
7
100
AcDbLine
 10
111.919794
 20
286.506958
 30
0.0
 11
111.919794
 21
283.326958
 31
0.0
  0
LINE
  5
4d9
100
AcDbEntity
  8
Outer_Cut
 62
7
100
AcDbLine
 10
111.919794
 20
283.326958
 30
0.0
 11
117.919794
 21
283.326958
 31
0.0
  0
LINE
  5
4da
100
AcDbEntity
  8
Outer_Cut
 62
7
100
AcDbLine
 10
117.919794
 20
283.326958
 30
0.0
 11
117.919794
 21
286.506958
 31
0.0
  0
LINE
  5
4db
100
AcDbEntity
  8
Outer_Cut
 62
7
100
AcDbLine
 10
117.919794
 20
286.506958
 30
0.0
 11
124.340634
 21
286.506958
 31
0.0
  0
LINE
  5
4dc
100
AcDbEntity
  8
Outer_Cut
 62
7
100
AcDbLine
 10
124.340634
 20
286.506958
 30
0.0
 11
124.340634
 21
283.326958
 31
0.0
  0
LINE
  5
4dd
100
AcDbEntity
  8
Outer_Cut
 62
7
100
AcDbLine
 10
124.340634
 20
283.326958
 30
0.0
 11
130.340634
 21
283.326958
 31
0.0
  0
LINE
  5
4de
100
AcDbEntity
  8
Outer_Cut
 62
7
100
AcDbLine
 10
130.340634
 20
283.326958
 30
0.0
 11
130.340634
 21
286.506958
 31
0.0
  0
LINE
  5
4df
100
AcDbEntity
  8
Outer_Cut
 62
7
100
AcDbLine
 10
130.340634
 20
286.506958
 30
0.0
 11
136.761464
 21
286.506958
 31
0.0
  0
LINE
  5
4e0
100
AcDbEntity
  8
Outer_Cut
 62
7
100
AcDbLine
 10
136.761464
 20
286.506958
 30
0.0
 11
136.761464
 21
283.326958
 31
0.0
  0
LINE
  5
4e1
100
AcDbEntity
  8
Outer_Cut
 62
7
100
AcDbLine
 10
136.761464
 20
283.326958
 30
0.0
 11
142.761464
 21
283.326958
 31
0.0
  0
LINE
  5
4e2
100
AcDbEntity
  8
Outer_Cut
 62
7
100
AcDbLine
 10
142.761464
 20
283.326958
 30
0.0
 11
142.761464
 21
286.506958
 31
0.0
  0
LINE
  5
4e3
100
AcDbEntity
  8
Outer_Cut
 62
7
100
AcDbLine
 10
142.761464
 20
286.506958
 30
0.0
 11
149.182294
 21
286.506958
 31
0.0
  0
LINE
  5
4e4
100
AcDbEntity
  8
Outer_Cut
 62
7
100
AcDbLine
 10
149.182294
 20
286.506958
 30
0.0
 11
149.182294
 21
283.326958
 31
0.0
  0
LINE
  5
4e5
100
AcDbEntity
  8
Outer_Cut
 62
7
100
AcDbLine
 10
149.182294
 20
283.326958
 30
0.0
 11
155.182294
 21
283.326958
 31
0.0
  0
LINE
  5
4e6
100
AcDbEntity
  8
Outer_Cut
 62
7
100
AcDbLine
 10
155.182294
 20
283.326958
 30
0.0
 11
155.182294
 21
286.506958
 31
0.0
  0
LINE
  5
4e7
100
AcDbEntity
  8
Outer_Cut
 62
7
100
AcDbLine
 10
155.182294
 20
286.506958
 30
0.0
 11
161.603134
 21
286.506958
 31
0.0
  0
LINE
  5
4e8
100
AcDbEntity
  8
Outer_Cut
 62
7
100
AcDbLine
 10
161.603134
 20
286.506958
 30
0.0
 11
161.603134
 21
283.326958
 31
0.0
  0
LINE
  5
4e9
100
AcDbEntity
  8
Outer_Cut
 62
7
100
AcDbLine
 10
161.603134
 20
283.326958
 30
0.0
 11
167.603134
 21
283.326958
 31
0.0
  0
LINE
  5
4ea
100
AcDbEntity
  8
Outer_Cut
 62
7
100
AcDbLine
 10
167.603134
 20
283.326958
 30
0.0
 11
167.603134
 21
286.506958
 31
0.0
  0
LINE
  5
4eb
100
AcDbEntity
  8
Outer_Cut
 62
7
100
AcDbLine
 10
167.603134
 20
286.506958
 30
0.0
 11
174.023964
 21
286.506958
 31
0.0
  0
LINE
  5
4ec
100
AcDbEntity
  8
Outer_Cut
 62
7
100
AcDbLine
 10
174.023964
 20
286.506958
 30
0.0
 11
174.023964
 21
283.326958
 31
0.0
  0
LINE
  5
4ed
100
AcDbEntity
  8
Outer_Cut
 62
7
100
AcDbLine
 10
174.023964
 20
283.326958
 30
0.0
 11
180.023964
 21
283.326958
 31
0.0
  0
LINE
  5
4ee
100
AcDbEntity
  8
Outer_Cut
 62
7
100
AcDbLine
 10
180.023964
 20
283.326958
 30
0.0
 11
180.023964
 21
286.506958
 31
0.0
  0
LINE
  5
4ef
100
AcDbEntity
  8
Outer_Cut
 62
7
100
AcDbLine
 10
180.023964
 20
286.506958
 30
0.0
 11
186.444794
 21
286.506958
 31
0.0
  0
LINE
  5
4f0
100
AcDbEntity
  8
Outer_Cut
 62
7
100
AcDbLine
 10
186.444794
 20
286.506958
 30
0.0
 11
186.444794
 21
283.326958
 31
0.0
  0
LINE
  5
4f1
100
AcDbEntity
  8
Outer_Cut
 62
7
100
AcDbLine
 10
186.444794
 20
283.326958
 30
0.0
 11
192.444794
 21
283.326958
 31
0.0
  0
LINE
  5
4f2
100
AcDbEntity
  8
Outer_Cut
 62
7
100
AcDbLine
 10
192.444794
 20
283.326958
 30
0.0
 11
192.444794
 21
286.506958
 31
0.0
  0
LINE
  5
4f3
100
AcDbEntity
  8
Outer_Cut
 62
7
100
AcDbLine
 10
192.444794
 20
286.506958
 30
0.0
 11
198.865634
 21
286.506958
 31
0.0
  0
LINE
  5
4f4
100
AcDbEntity
  8
Outer_Cut
 62
7
100
AcDbLine
 10
198.865634
 20
286.506958
 30
0.0
 11
198.865634
 21
283.326958
 31
0.0
  0
LINE
  5
4f5
100
AcDbEntity
  8
Outer_Cut
 62
7
100
AcDbLine
 10
198.865634
 20
283.326958
 30
0.0
 11
204.865634
 21
283.326958
 31
0.0
  0
LINE
  5
4f6
100
AcDbEntity
  8
Outer_Cut
 62
7
100
AcDbLine
 10
204.865634
 20
283.326958
 30
0.0
 11
204.865634
 21
286.506958
 31
0.0
  0
LINE
  5
4f7
100
AcDbEntity
  8
Outer_Cut
 62
7
100
AcDbLine
 10
204.865634
 20
286.506958
 30
0.0
 11
211.286464
 21
286.506958
 31
0.0
  0
LINE
  5
4f8
100
AcDbEntity
  8
Outer_Cut
 62
7
100
AcDbLine
 10
211.286464
 20
286.506958
 30
0.0
 11
211.286464
 21
283.326958
 31
0.0
  0
LINE
  5
4f9
100
AcDbEntity
  8
Outer_Cut
 62
7
100
AcDbLine
 10
211.286464
 20
283.326958
 30
0.0
 11
217.286464
 21
283.326958
 31
0.0
  0
LINE
  5
4fa
100
AcDbEntity
  8
Outer_Cut
 62
7
100
AcDbLine
 10
217.286464
 20
283.326958
 30
0.0
 11
217.286464
 21
286.506958
 31
0.0
  0
LINE
  5
4fb
100
AcDbEntity
  8
Outer_Cut
 62
7
100
AcDbLine
 10
217.286464
 20
286.506958
 30
0.0
 11
223.707294
 21
286.506958
 31
0.0
  0
LINE
  5
4fc
100
AcDbEntity
  8
Outer_Cut
 62
7
100
AcDbLine
 10
223.707294
 20
286.506958
 30
0.0
 11
223.707294
 21
283.326958
 31
0.0
  0
LINE
  5
4fd
100
AcDbEntity
  8
Outer_Cut
 62
7
100
AcDbLine
 10
223.707294
 20
283.326958
 30
0.0
 11
229.707294
 21
283.326958
 31
0.0
  0
LINE
  5
4fe
100
AcDbEntity
  8
Outer_Cut
 62
7
100
AcDbLine
 10
229.707294
 20
283.326958
 30
0.0
 11
229.707294
 21
286.506958
 31
0.0
  0
LINE
  5
4ff
100
AcDbEntity
  8
Outer_Cut
 62
7
100
AcDbLine
 10
229.707294
 20
286.506958
 30
0.0
 11
236.128134
 21
286.506958
 31
0.0
  0
LINE
  5
500
100
AcDbEntity
  8
Outer_Cut
 62
7
100
AcDbLine
 10
236.128134
 20
286.506958
 30
0.0
 11
236.128134
 21
283.326958
 31
0.0
  0
LINE
  5
501
100
AcDbEntity
  8
Outer_Cut
 62
7
100
AcDbLine
 10
236.128134
 20
283.326958
 30
0.0
 11
242.128134
 21
283.326958
 31
0.0
  0
LINE
  5
502
100
AcDbEntity
  8
Outer_Cut
 62
7
100
AcDbLine
 10
242.128134
 20
283.326958
 30
0.0
 11
242.128134
 21
286.506958
 31
0.0
  0
LINE
  5
503
100
AcDbEntity
  8
Outer_Cut
 62
7
100
AcDbLine
 10
242.128134
 20
286.506958
 30
0.0
 11
248.548964
 21
286.506958
 31
0.0
  0
LINE
  5
504
100
AcDbEntity
  8
Outer_Cut
 62
7
100
AcDbLine
 10
248.548964
 20
286.506958
 30
0.0
 11
248.548964
 21
283.326958
 31
0.0
  0
LINE
  5
505
100
AcDbEntity
  8
Outer_Cut
 62
7
100
AcDbLine
 10
248.548964
 20
283.326958
 30
0.0
 11
254.548964
 21
283.326958
 31
0.0
  0
LINE
  5
506
100
AcDbEntity
  8
Outer_Cut
 62
7
100
AcDbLine
 10
254.548964
 20
283.326958
 30
0.0
 11
254.548964
 21
286.506958
 31
0.0
  0
LINE
  5
507
100
AcDbEntity
  8
Outer_Cut
 62
7
100
AcDbLine
 10
254.548964
 20
286.506958
 30
0.0
 11
260.969794
 21
286.506958
 31
0.0
  0
LINE
  5
508
100
AcDbEntity
  8
Outer_Cut
 62
7
100
AcDbLine
 10
260.969794
 20
286.506958
 30
0.0
 11
260.969794
 21
283.326958
 31
0.0
  0
LINE
  5
509
100
AcDbEntity
  8
Outer_Cut
 62
7
100
AcDbLine
 10
260.969794
 20
283.326958
 30
0.0
 11
266.969794
 21
283.326958
 31
0.0
  0
LINE
  5
50a
100
AcDbEntity
  8
Outer_Cut
 62
7
100
AcDbLine
 10
266.969794
 20
283.326958
 30
0.0
 11
266.969794
 21
286.506958
 31
0.0
  0
LINE
  5
50b
100
AcDbEntity
  8
Outer_Cut
 62
7
100
AcDbLine
 10
266.969794
 20
286.506958
 30
0.0
 11
273.390634
 21
286.506958
 31
0.0
  0
LINE
  5
50c
100
AcDbEntity
  8
Outer_Cut
 62
7
100
AcDbLine
 10
273.390634
 20
286.506958
 30
0.0
 11
273.390634
 21
283.326958
 31
0.0
  0
LINE
  5
50d
100
AcDbEntity
  8
Outer_Cut
 62
7
100
AcDbLine
 10
273.390634
 20
283.326958
 30
0.0
 11
279.390634
 21
283.326958
 31
0.0
  0
LINE
  5
50e
100
AcDbEntity
  8
Outer_Cut
 62
7
100
AcDbLine
 10
279.390634
 20
283.326958
 30
0.0
 11
279.390634
 21
286.506958
 31
0.0
  0
LINE
  5
50f
100
AcDbEntity
  8
Outer_Cut
 62
7
100
AcDbLine
 10
279.390634
 20
286.506958
 30
0.0
 11
285.811464
 21
286.506958
 31
0.0
  0
LINE
  5
510
100
AcDbEntity
  8
Outer_Cut
 62
7
100
AcDbLine
 10
285.811464
 20
286.506958
 30
0.0
 11
285.811464
 21
283.326958
 31
0.0
  0
LINE
  5
511
100
AcDbEntity
  8
Outer_Cut
 62
7
100
AcDbLine
 10
285.811464
 20
283.326958
 30
0.0
 11
291.811464
 21
283.326958
 31
0.0
  0
LINE
  5
512
100
AcDbEntity
  8
Outer_Cut
 62
7
100
AcDbLine
 10
291.811464
 20
283.326958
 30
0.0
 11
291.811464
 21
286.506958
 31
0.0
  0
LINE
  5
513
100
AcDbEntity
  8
Outer_Cut
 62
7
100
AcDbLine
 10
291.811464
 20
286.506958
 30
0.0
 11
298.232304
 21
286.506958
 31
0.0
  0
LINE
  5
514
100
AcDbEntity
  8
Outer_Cut
 62
7
100
AcDbLine
 10
298.232304
 20
286.506958
 30
0.0
 11
298.232304
 21
280.365292
 31
0.0
  0
LINE
  5
515
100
AcDbEntity
  8
Outer_Cut
 62
7
100
AcDbLine
 10
298.232304
 20
280.365292
 30
0.0
 11
295.052304
 21
280.365292
 31
0.0
  0
LINE
  5
516
100
AcDbEntity
  8
Outer_Cut
 62
7
100
AcDbLine
 10
295.052304
 20
280.365292
 30
0.0
 11
295.052304
 21
274.365292
 31
0.0
  0
LINE
  5
517
100
AcDbEntity
  8
Outer_Cut
 62
7
100
AcDbLine
 10
295.052304
 20
274.365292
 30
0.0
 11
298.232304
 21
274.365292
 31
0.0
  0
LINE
  5
518
100
AcDbEntity
  8
Outer_Cut
 62
7
100
AcDbLine
 10
298.232304
 20
274.365292
 30
0.0
 11
298.232304
 21
268.223626
 31
0.0
  0
LINE
  5
519
100
AcDbEntity
  8
Outer_Cut
 62
7
100
AcDbLine
 10
298.232304
 20
268.223626
 30
0.0
 11
295.052304
 21
268.223626
 31
0.0
  0
LINE
  5
51a
100
AcDbEntity
  8
Outer_Cut
 62
7
100
AcDbLine
 10
295.052304
 20
268.223626
 30
0.0
 11
295.052304
 21
262.223626
 31
0.0
  0
LINE
  5
51b
100
AcDbEntity
  8
Outer_Cut
 62
7
100
AcDbLine
 10
295.052304
 20
262.223626
 30
0.0
 11
298.232304
 21
262.223626
 31
0.0
  0
LINE
  5
51c
100
AcDbEntity
  8
Outer_Cut
 62
7
100
AcDbLine
 10
298.232304
 20
262.223626
 30
0.0
 11
298.232304
 21
256.081960
 31
0.0
  0
LINE
  5
51d
100
AcDbEntity
  8
Outer_Cut
 62
7
100
AcDbLine
 10
298.232304
 20
256.081960
 30
0.0
 11
295.052304
 21
256.081960
 31
0.0
  0
LINE
  5
51e
100
AcDbEntity
  8
Outer_Cut
 62
7
100
AcDbLine
 10
295.052304
 20
256.081960
 30
0.0
 11
295.052304
 21
250.081960
 31
0.0
  0
LINE
  5
51f
100
AcDbEntity
  8
Outer_Cut
 62
7
100
AcDbLine
 10
295.052304
 20
250.081960
 30
0.0
 11
298.232304
 21
250.081960
 31
0.0
  0
LINE
  5
520
100
AcDbEntity
  8
Outer_Cut
 62
7
100
AcDbLine
 10
298.232304
 20
250.081960
 30
0.0
 11
298.232304
 21
243.940293
 31
0.0
  0
LINE
  5
521
100
AcDbEntity
  8
Outer_Cut
 62
7
100
AcDbLine
 10
298.232304
 20
243.940293
 30
0.0
 11
295.052304
 21
243.940293
 31
0.0
  0
LINE
  5
522
100
AcDbEntity
  8
Outer_Cut
 62
7
100
AcDbLine
 10
295.052304
 20
243.940293
 30
0.0
 11
295.052304
 21
237.940293
 31
0.0
  0
LINE
  5
523
100
AcDbEntity
  8
Outer_Cut
 62
7
100
AcDbLine
 10
295.052304
 20
237.940293
 30
0.0
 11
298.232304
 21
237.940293
 31
0.0
  0
LINE
  5
524
100
AcDbEntity
  8
Outer_Cut
 62
7
100
AcDbLine
 10
298.232304
 20
237.940293
 30
0.0
 11
298.232304
 21
231.798627
 31
0.0
  0
LINE
  5
525
100
AcDbEntity
  8
Outer_Cut
 62
7
100
AcDbLine
 10
298.232304
 20
231.798627
 30
0.0
 11
295.052304
 21
231.798627
 31
0.0
  0
LINE
  5
526
100
AcDbEntity
  8
Outer_Cut
 62
7
100
AcDbLine
 10
295.052304
 20
231.798627
 30
0.0
 11
295.052304
 21
225.798627
 31
0.0
  0
LINE
  5
527
100
AcDbEntity
  8
Outer_Cut
 62
7
100
AcDbLine
 10
295.052304
 20
225.798627
 30
0.0
 11
298.232304
 21
225.798627
 31
0.0
  0
LINE
  5
528
100
AcDbEntity
  8
Outer_Cut
 62
7
100
AcDbLine
 10
298.232304
 20
225.798627
 30
0.0
 11
298.232304
 21
219.656958
 31
0.0
  0
LINE
  5
529
100
AcDbEntity
  8
Outer_Cut
 62
7
100
AcDbLine
 10
298.232304
 20
219.656958
 30
0.0
 11
295.052304
 21
219.656958
 31
0.0
  0
LINE
  5
52a
100
AcDbEntity
  8
Outer_Cut
 62
7
100
AcDbLine
 10
295.052304
 20
219.656958
 30
0.0
 11
295.052304
 21
213.656958
 31
0.0
  0
LINE
  5
52b
100
AcDbEntity
  8
Outer_Cut
 62
7
100
AcDbLine
 10
295.052304
 20
213.656958
 30
0.0
 11
298.232304
 21
213.656958
 31
0.0
  0
LINE
  5
52c
100
AcDbEntity
  8
Outer_Cut
 62
7
100
AcDbLine
 10
298.232304
 20
213.656958
 30
0.0
 11
298.232304
 21
207.515298
 31
0.0
  0
LINE
  5
52d
100
AcDbEntity
  8
Outer_Cut
 62
7
100
AcDbLine
 10
298.232304
 20
207.515298
 30
0.0
 11
295.052304
 21
207.515298
 31
0.0
  0
LINE
  5
52e
100
AcDbEntity
  8
Outer_Cut
 62
7
100
AcDbLine
 10
295.052304
 20
207.515298
 30
0.0
 11
295.052304
 21
201.515298
 31
0.0
  0
LINE
  5
52f
100
AcDbEntity
  8
Outer_Cut
 62
7
100
AcDbLine
 10
295.052304
 20
201.515298
 30
0.0
 11
298.232304
 21
201.515298
 31
0.0
  0
LINE
  5
530
100
AcDbEntity
  8
Outer_Cut
 62
7
100
AcDbLine
 10
298.232304
 20
201.515298
 30
0.0
 11
298.232304
 21
195.373628
 31
0.0
  0
LINE
  5
531
100
AcDbEntity
  8
Outer_Cut
 62
7
100
AcDbLine
 10
298.232304
 20
195.373628
 30
0.0
 11
295.052304
 21
195.373628
 31
0.0
  0
LINE
  5
532
100
AcDbEntity
  8
Outer_Cut
 62
7
100
AcDbLine
 10
295.052304
 20
195.373628
 30
0.0
 11
295.052304
 21
189.373628
 31
0.0
  0
LINE
  5
533
100
AcDbEntity
  8
Outer_Cut
 62
7
100
AcDbLine
 10
295.052304
 20
189.373628
 30
0.0
 11
298.232304
 21
189.373628
 31
0.0
  0
LINE
  5
534
100
AcDbEntity
  8
Outer_Cut
 62
7
100
AcDbLine
 10
298.232304
 20
189.373628
 30
0.0
 11
298.232304
 21
183.231958
 31
0.0
  0
LINE
  5
535
100
AcDbEntity
  8
Outer_Cut
 62
7
100
AcDbLine
 10
298.232304
 20
183.231958
 30
0.0
 11
295.052304
 21
183.231958
 31
0.0
  0
LINE
  5
536
100
AcDbEntity
  8
Outer_Cut
 62
7
100
AcDbLine
 10
295.052304
 20
183.231958
 30
0.0
 11
295.052304
 21
177.231958
 31
0.0
  0
LINE
  5
537
100
AcDbEntity
  8
Outer_Cut
 62
7
100
AcDbLine
 10
295.052304
 20
177.231958
 30
0.0
 11
298.232304
 21
177.231958
 31
0.0
  0
LINE
  5
538
100
AcDbEntity
  8
Outer_Cut
 62
7
100
AcDbLine
 10
298.232304
 20
177.231958
 30
0.0
 11
298.232304
 21
171.090298
 31
0.0
  0
LINE
  5
539
100
AcDbEntity
  8
Outer_Cut
 62
7
100
AcDbLine
 10
298.232304
 20
171.090298
 30
0.0
 11
295.052304
 21
171.090298
 31
0.0
  0
LINE
  5
53a
100
AcDbEntity
  8
Outer_Cut
 62
7
100
AcDbLine
 10
295.052304
 20
171.090298
 30
0.0
 11
295.052304
 21
165.090298
 31
0.0
  0
LINE
  5
53b
100
AcDbEntity
  8
Outer_Cut
 62
7
100
AcDbLine
 10
295.052304
 20
165.090298
 30
0.0
 11
298.232304
 21
165.090298
 31
0.0
  0
LINE
  5
53c
100
AcDbEntity
  8
Outer_Cut
 62
7
100
AcDbLine
 10
298.232304
 20
165.090298
 30
0.0
 11
298.232304
 21
158.948628
 31
0.0
  0
LINE
  5
53d
100
AcDbEntity
  8
Outer_Cut
 62
7
100
AcDbLine
 10
298.232304
 20
158.948628
 30
0.0
 11
295.052304
 21
158.948628
 31
0.0
  0
LINE
  5
53e
100
AcDbEntity
  8
Outer_Cut
 62
7
100
AcDbLine
 10
295.052304
 20
158.948628
 30
0.0
 11
295.052304
 21
152.948628
 31
0.0
  0
LINE
  5
53f
100
AcDbEntity
  8
Outer_Cut
 62
7
100
AcDbLine
 10
295.052304
 20
152.948628
 30
0.0
 11
298.232304
 21
152.948628
 31
0.0
  0
LINE
  5
540
100
AcDbEntity
  8
Outer_Cut
 62
7
100
AcDbLine
 10
298.232304
 20
152.948628
 30
0.0
 11
298.232304
 21
146.806958
 31
0.0
  0
LINE
  5
541
100
AcDbEntity
  8
Outer_Cut
 62
7
100
AcDbLine
 10
99.498964
 20
146.806958
 30
0.0
 11
93.078124
 21
146.806958
 31
0.0
  0
LINE
  5
542
100
AcDbEntity
  8
Outer_Cut
 62
7
100
AcDbLine
 10
93.078124
 20
146.806958
 30
0.0
 11
93.078124
 21
149.986958
 31
0.0
  0
LINE
  5
543
100
AcDbEntity
  8
Outer_Cut
 62
7
100
AcDbLine
 10
93.078124
 20
149.986958
 30
0.0
 11
87.078124
 21
149.986958
 31
0.0
  0
LINE
  5
544
100
AcDbEntity
  8
Outer_Cut
 62
7
100
AcDbLine
 10
87.078124
 20
149.986958
 30
0.0
 11
87.078124
 21
146.806958
 31
0.0
  0
LINE
  5
545
100
AcDbEntity
  8
Outer_Cut
 62
7
100
AcDbLine
 10
87.078124
 20
146.806958
 30
0.0
 11
80.657294
 21
146.806958
 31
0.0
  0
LINE
  5
546
100
AcDbEntity
  8
Outer_Cut
 62
7
100
AcDbLine
 10
80.657294
 20
146.806958
 30
0.0
 11
80.657294
 21
149.986958
 31
0.0
  0
LINE
  5
547
100
AcDbEntity
  8
Outer_Cut
 62
7
100
AcDbLine
 10
80.657294
 20
149.986958
 30
0.0
 11
74.657294
 21
149.986958
 31
0.0
  0
LINE
  5
548
100
AcDbEntity
  8
Outer_Cut
 62
7
100
AcDbLine
 10
74.657294
 20
149.986958
 30
0.0
 11
74.657294
 21
146.806958
 31
0.0
  0
LINE
  5
549
100
AcDbEntity
  8
Outer_Cut
 62
7
100
AcDbLine
 10
74.657294
 20
146.806958
 30
0.0
 11
68.236465
 21
146.806958
 31
0.0
  0
LINE
  5
54a
100
AcDbEntity
  8
Outer_Cut
 62
7
100
AcDbLine
 10
68.236465
 20
146.806958
 30
0.0
 11
68.236465
 21
149.986958
 31
0.0
  0
LINE
  5
54b
100
AcDbEntity
  8
Outer_Cut
 62
7
100
AcDbLine
 10
68.236465
 20
149.986958
 30
0.0
 11
62.236465
 21
149.986958
 31
0.0
  0
LINE
  5
54c
100
AcDbEntity
  8
Outer_Cut
 62
7
100
AcDbLine
 10
62.236465
 20
149.986958
 30
0.0
 11
62.236465
 21
146.806958
 31
0.0
  0
LINE
  5
54d
100
AcDbEntity
  8
Outer_Cut
 62
7
100
AcDbLine
 10
62.236465
 20
146.806958
 30
0.0
 11
55.815632
 21
146.806958
 31
0.0
  0
LINE
  5
54e
100
AcDbEntity
  8
Outer_Cut
 62
7
100
AcDbLine
 10
55.815632
 20
146.806958
 30
0.0
 11
55.815632
 21
149.986958
 31
0.0
  0
LINE
  5
54f
100
AcDbEntity
  8
Outer_Cut
 62
7
100
AcDbLine
 10
55.815632
 20
149.986958
 30
0.0
 11
49.815632
 21
149.986958
 31
0.0
  0
LINE
  5
550
100
AcDbEntity
  8
Outer_Cut
 62
7
100
AcDbLine
 10
49.815632
 20
149.986958
 30
0.0
 11
49.815632
 21
146.806958
 31
0.0
  0
LINE
  5
551
100
AcDbEntity
  8
Outer_Cut
 62
7
100
AcDbLine
 10
49.815632
 20
146.806958
 30
0.0
 11
43.394798
 21
146.806958
 31
0.0
  0
LINE
  5
552
100
AcDbEntity
  8
Outer_Cut
 62
7
100
AcDbLine
 10
43.394798
 20
146.806958
 30
0.0
 11
43.394798
 21
149.986958
 31
0.0
  0
LINE
  5
553
100
AcDbEntity
  8
Outer_Cut
 62
7
100
AcDbLine
 10
43.394798
 20
149.986958
 30
0.0
 11
37.394798
 21
149.986958
 31
0.0
  0
LINE
  5
554
100
AcDbEntity
  8
Outer_Cut
 62
7
100
AcDbLine
 10
37.394798
 20
149.986958
 30
0.0
 11
37.394798
 21
146.806958
 31
0.0
  0
LINE
  5
555
100
AcDbEntity
  8
Outer_Cut
 62
7
100
AcDbLine
 10
37.394798
 20
146.806958
 30
0.0
 11
30.973964
 21
146.806958
 31
0.0
  0
LINE
  5
556
100
AcDbEntity
  8
Outer_Cut
 62
7
100
AcDbLine
 10
30.973964
 20
146.806958
 30
0.0
 11
30.973964
 21
149.986958
 31
0.0
  0
LINE
  5
557
100
AcDbEntity
  8
Outer_Cut
 62
7
100
AcDbLine
 10
30.973964
 20
149.986958
 30
0.0
 11
24.973964
 21
149.986958
 31
0.0
  0
LINE
  5
558
100
AcDbEntity
  8
Outer_Cut
 62
7
100
AcDbLine
 10
24.973964
 20
149.986958
 30
0.0
 11
24.973964
 21
146.806958
 31
0.0
  0
LINE
  5
559
100
AcDbEntity
  8
Outer_Cut
 62
7
100
AcDbLine
 10
24.973964
 20
146.806958
 30
0.0
 11
18.553134
 21
146.806958
 31
0.0
  0
LINE
  5
55a
100
AcDbEntity
  8
Outer_Cut
 62
7
100
AcDbLine
 10
18.553134
 20
146.806958
 30
0.0
 11
18.553134
 21
149.986958
 31
0.0
  0
LINE
  5
55b
100
AcDbEntity
  8
Outer_Cut
 62
7
100
AcDbLine
 10
18.553134
 20
149.986958
 30
0.0
 11
12.553134
 21
149.986958
 31
0.0
  0
LINE
  5
55c
100
AcDbEntity
  8
Outer_Cut
 62
7
100
AcDbLine
 10
12.553134
 20
149.986958
 30
0.0
 11
12.553134
 21
146.806958
 31
0.0
  0
LINE
  5
55d
100
AcDbEntity
  8
Outer_Cut
 62
7
100
AcDbLine
 10
12.553134
 20
146.806958
 30
0.0
 11
6.132294
 21
146.806958
 31
0.0
  0
LINE
  5
55e
100
AcDbEntity
  8
Outer_Cut
 62
7
100
AcDbLine
 10
298.232304
 20
146.806958
 30
0.0
 11
291.811464
 21
146.806958
 31
0.0
  0
LINE
  5
55f
100
AcDbEntity
  8
Outer_Cut
 62
7
100
AcDbLine
 10
291.811464
 20
146.806958
 30
0.0
 11
291.811464
 21
149.986958
 31
0.0
  0
LINE
  5
560
100
AcDbEntity
  8
Outer_Cut
 62
7
100
AcDbLine
 10
291.811464
 20
149.986958
 30
0.0
 11
285.811464
 21
149.986958
 31
0.0
  0
LINE
  5
561
100
AcDbEntity
  8
Outer_Cut
 62
7
100
AcDbLine
 10
285.811464
 20
149.986958
 30
0.0
 11
285.811464
 21
146.806958
 31
0.0
  0
LINE
  5
562
100
AcDbEntity
  8
Outer_Cut
 62
7
100
AcDbLine
 10
285.811464
 20
146.806958
 30
0.0
 11
279.390634
 21
146.806958
 31
0.0
  0
LINE
  5
563
100
AcDbEntity
  8
Outer_Cut
 62
7
100
AcDbLine
 10
279.390634
 20
146.806958
 30
0.0
 11
279.390634
 21
149.986958
 31
0.0
  0
LINE
  5
564
100
AcDbEntity
  8
Outer_Cut
 62
7
100
AcDbLine
 10
279.390634
 20
149.986958
 30
0.0
 11
273.390634
 21
149.986958
 31
0.0
  0
LINE
  5
565
100
AcDbEntity
  8
Outer_Cut
 62
7
100
AcDbLine
 10
273.390634
 20
149.986958
 30
0.0
 11
273.390634
 21
146.806958
 31
0.0
  0
LINE
  5
566
100
AcDbEntity
  8
Outer_Cut
 62
7
100
AcDbLine
 10
273.390634
 20
146.806958
 30
0.0
 11
266.969794
 21
146.806958
 31
0.0
  0
LINE
  5
567
100
AcDbEntity
  8
Outer_Cut
 62
7
100
AcDbLine
 10
266.969794
 20
146.806958
 30
0.0
 11
266.969794
 21
149.986958
 31
0.0
  0
LINE
  5
568
100
AcDbEntity
  8
Outer_Cut
 62
7
100
AcDbLine
 10
266.969794
 20
149.986958
 30
0.0
 11
260.969794
 21
149.986958
 31
0.0
  0
LINE
  5
569
100
AcDbEntity
  8
Outer_Cut
 62
7
100
AcDbLine
 10
260.969794
 20
149.986958
 30
0.0
 11
260.969794
 21
146.806958
 31
0.0
  0
LINE
  5
56a
100
AcDbEntity
  8
Outer_Cut
 62
7
100
AcDbLine
 10
260.969794
 20
146.806958
 30
0.0
 11
254.548964
 21
146.806958
 31
0.0
  0
LINE
  5
56b
100
AcDbEntity
  8
Outer_Cut
 62
7
100
AcDbLine
 10
254.548964
 20
146.806958
 30
0.0
 11
254.548964
 21
149.986958
 31
0.0
  0
LINE
  5
56c
100
AcDbEntity
  8
Outer_Cut
 62
7
100
AcDbLine
 10
254.548964
 20
149.986958
 30
0.0
 11
248.548964
 21
149.986958
 31
0.0
  0
LINE
  5
56d
100
AcDbEntity
  8
Outer_Cut
 62
7
100
AcDbLine
 10
248.548964
 20
149.986958
 30
0.0
 11
248.548964
 21
146.806958
 31
0.0
  0
LINE
  5
56e
100
AcDbEntity
  8
Outer_Cut
 62
7
100
AcDbLine
 10
248.548964
 20
146.806958
 30
0.0
 11
242.128134
 21
146.806958
 31
0.0
  0
LINE
  5
56f
100
AcDbEntity
  8
Outer_Cut
 62
7
100
AcDbLine
 10
242.128134
 20
146.806958
 30
0.0
 11
242.128134
 21
149.986958
 31
0.0
  0
LINE
  5
570
100
AcDbEntity
  8
Outer_Cut
 62
7
100
AcDbLine
 10
242.128134
 20
149.986958
 30
0.0
 11
236.128134
 21
149.986958
 31
0.0
  0
LINE
  5
571
100
AcDbEntity
  8
Outer_Cut
 62
7
100
AcDbLine
 10
236.128134
 20
149.986958
 30
0.0
 11
236.128134
 21
146.806958
 31
0.0
  0
LINE
  5
572
100
AcDbEntity
  8
Outer_Cut
 62
7
100
AcDbLine
 10
236.128134
 20
146.806958
 30
0.0
 11
229.707294
 21
146.806958
 31
0.0
  0
LINE
  5
573
100
AcDbEntity
  8
Outer_Cut
 62
7
100
AcDbLine
 10
229.707294
 20
146.806958
 30
0.0
 11
229.707294
 21
149.986958
 31
0.0
  0
LINE
  5
574
100
AcDbEntity
  8
Outer_Cut
 62
7
100
AcDbLine
 10
229.707294
 20
149.986958
 30
0.0
 11
223.707294
 21
149.986958
 31
0.0
  0
LINE
  5
575
100
AcDbEntity
  8
Outer_Cut
 62
7
100
AcDbLine
 10
223.707294
 20
149.986958
 30
0.0
 11
223.707294
 21
146.806958
 31
0.0
  0
LINE
  5
576
100
AcDbEntity
  8
Outer_Cut
 62
7
100
AcDbLine
 10
223.707294
 20
146.806958
 30
0.0
 11
217.286464
 21
146.806958
 31
0.0
  0
LINE
  5
577
100
AcDbEntity
  8
Outer_Cut
 62
7
100
AcDbLine
 10
217.286464
 20
146.806958
 30
0.0
 11
217.286464
 21
149.986958
 31
0.0
  0
LINE
  5
578
100
AcDbEntity
  8
Outer_Cut
 62
7
100
AcDbLine
 10
217.286464
 20
149.986958
 30
0.0
 11
211.286464
 21
149.986958
 31
0.0
  0
LINE
  5
579
100
AcDbEntity
  8
Outer_Cut
 62
7
100
AcDbLine
 10
211.286464
 20
149.986958
 30
0.0
 11
211.286464
 21
146.806958
 31
0.0
  0
LINE
  5
57a
100
AcDbEntity
  8
Outer_Cut
 62
7
100
AcDbLine
 10
211.286464
 20
146.806958
 30
0.0
 11
204.865634
 21
146.806958
 31
0.0
  0
LINE
  5
57b
100
AcDbEntity
  8
Outer_Cut
 62
7
100
AcDbLine
 10
6.132294
 20
146.806958
 30
0.0
 11
6.132294
 21
152.948628
 31
0.0
  0
LINE
  5
57c
100
AcDbEntity
  8
Outer_Cut
 62
7
100
AcDbLine
 10
6.132294
 20
152.948628
 30
0.0
 11
9.312294
 21
152.948628
 31
0.0
  0
LINE
  5
57d
100
AcDbEntity
  8
Outer_Cut
 62
7
100
AcDbLine
 10
9.312294
 20
152.948628
 30
0.0
 11
9.312294
 21
158.948628
 31
0.0
  0
LINE
  5
57e
100
AcDbEntity
  8
Outer_Cut
 62
7
100
AcDbLine
 10
9.312294
 20
158.948628
 30
0.0
 11
6.132294
 21
158.948628
 31
0.0
  0
LINE
  5
57f
100
AcDbEntity
  8
Outer_Cut
 62
7
100
AcDbLine
 10
6.132294
 20
158.948628
 30
0.0
 11
6.132294
 21
165.090298
 31
0.0
  0
LINE
  5
580
100
AcDbEntity
  8
Outer_Cut
 62
7
100
AcDbLine
 10
6.132294
 20
165.090298
 30
0.0
 11
9.312294
 21
165.090298
 31
0.0
  0
LINE
  5
581
100
AcDbEntity
  8
Outer_Cut
 62
7
100
AcDbLine
 10
9.312294
 20
165.090298
 30
0.0
 11
9.312294
 21
171.090298
 31
0.0
  0
LINE
  5
582
100
AcDbEntity
  8
Outer_Cut
 62
7
100
AcDbLine
 10
9.312294
 20
171.090298
 30
0.0
 11
6.132294
 21
171.090298
 31
0.0
  0
LINE
  5
583
100
AcDbEntity
  8
Outer_Cut
 62
7
100
AcDbLine
 10
6.132294
 20
171.090298
 30
0.0
 11
6.132294
 21
177.231958
 31
0.0
  0
LINE
  5
584
100
AcDbEntity
  8
Outer_Cut
 62
7
100
AcDbLine
 10
6.132294
 20
177.231958
 30
0.0
 11
9.312294
 21
177.231958
 31
0.0
  0
LINE
  5
585
100
AcDbEntity
  8
Outer_Cut
 62
7
100
AcDbLine
 10
9.312294
 20
177.231958
 30
0.0
 11
9.312294
 21
183.231958
 31
0.0
  0
LINE
  5
586
100
AcDbEntity
  8
Outer_Cut
 62
7
100
AcDbLine
 10
9.312294
 20
183.231958
 30
0.0
 11
6.132294
 21
183.231958
 31
0.0
  0
LINE
  5
587
100
AcDbEntity
  8
Outer_Cut
 62
7
100
AcDbLine
 10
6.132294
 20
183.231958
 30
0.0
 11
6.132294
 21
189.373628
 31
0.0
  0
LINE
  5
588
100
AcDbEntity
  8
Outer_Cut
 62
7
100
AcDbLine
 10
6.132294
 20
189.373628
 30
0.0
 11
9.312294
 21
189.373628
 31
0.0
  0
LINE
  5
589
100
AcDbEntity
  8
Outer_Cut
 62
7
100
AcDbLine
 10
9.312294
 20
189.373628
 30
0.0
 11
9.312294
 21
195.373628
 31
0.0
  0
LINE
  5
58a
100
AcDbEntity
  8
Outer_Cut
 62
7
100
AcDbLine
 10
9.312294
 20
195.373628
 30
0.0
 11
6.132294
 21
195.373628
 31
0.0
  0
LINE
  5
58b
100
AcDbEntity
  8
Outer_Cut
 62
7
100
AcDbLine
 10
6.132294
 20
195.373628
 30
0.0
 11
6.132294
 21
201.515298
 31
0.0
  0
LINE
  5
58c
100
AcDbEntity
  8
Outer_Cut
 62
7
100
AcDbLine
 10
6.132294
 20
201.515298
 30
0.0
 11
9.312294
 21
201.515298
 31
0.0
  0
LINE
  5
58d
100
AcDbEntity
  8
Outer_Cut
 62
7
100
AcDbLine
 10
9.312294
 20
201.515298
 30
0.0
 11
9.312294
 21
207.515298
 31
0.0
  0
LINE
  5
58e
100
AcDbEntity
  8
Outer_Cut
 62
7
100
AcDbLine
 10
9.312294
 20
207.515298
 30
0.0
 11
6.132294
 21
207.515298
 31
0.0
  0
LINE
  5
58f
100
AcDbEntity
  8
Outer_Cut
 62
7
100
AcDbLine
 10
6.132294
 20
207.515298
 30
0.0
 11
6.132294
 21
213.656958
 31
0.0
  0
LINE
  5
590
100
AcDbEntity
  8
Outer_Cut
 62
7
100
AcDbLine
 10
6.132294
 20
213.656958
 30
0.0
 11
9.312294
 21
213.656958
 31
0.0
  0
LINE
  5
591
100
AcDbEntity
  8
Outer_Cut
 62
7
100
AcDbLine
 10
9.312294
 20
213.656958
 30
0.0
 11
9.312294
 21
219.656958
 31
0.0
  0
LINE
  5
592
100
AcDbEntity
  8
Outer_Cut
 62
7
100
AcDbLine
 10
9.312294
 20
219.656958
 30
0.0
 11
6.132294
 21
219.656958
 31
0.0
  0
LINE
  5
593
100
AcDbEntity
  8
Outer_Cut
 62
7
100
AcDbLine
 10
12.553134
 20
216.661958
 30
0.0
 11
18.553134
 21
216.661958
 31
0.0
  0
LINE
  5
594
100
AcDbEntity
  8
Outer_Cut
 62
7
100
AcDbLine
 10
18.553134
 20
216.661958
 30
0.0
 11
18.553134
 21
219.841958
 31
0.0
  0
LINE
  5
595
100
AcDbEntity
  8
Outer_Cut
 62
7
100
AcDbLine
 10
18.553134
 20
219.841958
 30
0.0
 11
12.553134
 21
219.841958
 31
0.0
  0
LINE
  5
596
100
AcDbEntity
  8
Outer_Cut
 62
7
100
AcDbLine
 10
12.553134
 20
219.841958
 30
0.0
 11
12.553134
 21
216.661958
 31
0.0
  0
LINE
  5
597
100
AcDbEntity
  8
Outer_Cut
 62
7
100
AcDbLine
 10
24.973964
 20
216.661958
 30
0.0
 11
30.973964
 21
216.661958
 31
0.0
  0
LINE
  5
598
100
AcDbEntity
  8
Outer_Cut
 62
7
100
AcDbLine
 10
30.973964
 20
216.661958
 30
0.0
 11
30.973964
 21
219.841958
 31
0.0
  0
LINE
  5
599
100
AcDbEntity
  8
Outer_Cut
 62
7
100
AcDbLine
 10
30.973964
 20
219.841958
 30
0.0
 11
24.973964
 21
219.841958
 31
0.0
  0
LINE
  5
59a
100
AcDbEntity
  8
Outer_Cut
 62
7
100
AcDbLine
 10
24.973964
 20
219.841958
 30
0.0
 11
24.973964
 21
216.661958
 31
0.0
  0
LINE
  5
59b
100
AcDbEntity
  8
Outer_Cut
 62
7
100
AcDbLine
 10
37.394798
 20
216.661958
 30
0.0
 11
43.394798
 21
216.661958
 31
0.0
  0
LINE
  5
59c
100
AcDbEntity
  8
Outer_Cut
 62
7
100
AcDbLine
 10
43.394798
 20
216.661958
 30
0.0
 11
43.394798
 21
219.841958
 31
0.0
  0
LINE
  5
59d
100
AcDbEntity
  8
Outer_Cut
 62
7
100
AcDbLine
 10
43.394798
 20
219.841958
 30
0.0
 11
37.394798
 21
219.841958
 31
0.0
  0
LINE
  5
59e
100
AcDbEntity
  8
Outer_Cut
 62
7
100
AcDbLine
 10
37.394798
 20
219.841958
 30
0.0
 11
37.394798
 21
216.661958
 31
0.0
  0
LINE
  5
59f
100
AcDbEntity
  8
Outer_Cut
 62
7
100
AcDbLine
 10
49.815632
 20
216.661958
 30
0.0
 11
55.815632
 21
216.661958
 31
0.0
  0
LINE
  5
5a0
100
AcDbEntity
  8
Outer_Cut
 62
7
100
AcDbLine
 10
55.815632
 20
216.661958
 30
0.0
 11
55.815632
 21
219.841958
 31
0.0
  0
LINE
  5
5a1
100
AcDbEntity
  8
Outer_Cut
 62
7
100
AcDbLine
 10
55.815632
 20
219.841958
 30
0.0
 11
49.815632
 21
219.841958
 31
0.0
  0
LINE
  5
5a2
100
AcDbEntity
  8
Outer_Cut
 62
7
100
AcDbLine
 10
49.815632
 20
219.841958
 30
0.0
 11
49.815632
 21
216.661958
 31
0.0
  0
LINE
  5
5a3
100
AcDbEntity
  8
Outer_Cut
 62
7
100
AcDbLine
 10
62.236465
 20
216.661958
 30
0.0
 11
68.236465
 21
216.661958
 31
0.0
  0
LINE
  5
5a4
100
AcDbEntity
  8
Outer_Cut
 62
7
100
AcDbLine
 10
68.236465
 20
216.661958
 30
0.0
 11
68.236465
 21
219.841958
 31
0.0
  0
LINE
  5
5a5
100
AcDbEntity
  8
Outer_Cut
 62
7
100
AcDbLine
 10
68.236465
 20
219.841958
 30
0.0
 11
62.236465
 21
219.841958
 31
0.0
  0
LINE
  5
5a6
100
AcDbEntity
  8
Outer_Cut
 62
7
100
AcDbLine
 10
62.236465
 20
219.841958
 30
0.0
 11
62.236465
 21
216.661958
 31
0.0
  0
LINE
  5
5a7
100
AcDbEntity
  8
Outer_Cut
 62
7
100
AcDbLine
 10
74.657294
 20
216.661958
 30
0.0
 11
80.657294
 21
216.661958
 31
0.0
  0
LINE
  5
5a8
100
AcDbEntity
  8
Outer_Cut
 62
7
100
AcDbLine
 10
80.657294
 20
216.661958
 30
0.0
 11
80.657294
 21
219.841958
 31
0.0
  0
LINE
  5
5a9
100
AcDbEntity
  8
Outer_Cut
 62
7
100
AcDbLine
 10
80.657294
 20
219.841958
 30
0.0
 11
74.657294
 21
219.841958
 31
0.0
  0
LINE
  5
5aa
100
AcDbEntity
  8
Outer_Cut
 62
7
100
AcDbLine
 10
74.657294
 20
219.841958
 30
0.0
 11
74.657294
 21
216.661958
 31
0.0
  0
LINE
  5
5ab
100
AcDbEntity
  8
Outer_Cut
 62
7
100
AcDbLine
 10
87.078124
 20
216.661958
 30
0.0
 11
93.078124
 21
216.661958
 31
0.0
  0
LINE
  5
5ac
100
AcDbEntity
  8
Outer_Cut
 62
7
100
AcDbLine
 10
93.078124
 20
216.661958
 30
0.0
 11
93.078124
 21
219.841958
 31
0.0
  0
LINE
  5
5ad
100
AcDbEntity
  8
Outer_Cut
 62
7
100
AcDbLine
 10
93.078124
 20
219.841958
 30
0.0
 11
87.078124
 21
219.841958
 31
0.0
  0
LINE
  5
5ae
100
AcDbEntity
  8
Outer_Cut
 62
7
100
AcDbLine
 10
87.078124
 20
219.841958
 30
0.0
 11
87.078124
 21
216.661958
 31
0.0
  0
LINE
  5
5af
100
AcDbEntity
  8
Outer_Cut
 62
7
100
AcDbLine
 10
99.498964
 20
254.746959
 30
0.0
 11
105.498964
 21
254.746959
 31
0.0
  0
LINE
  5
5b0
100
AcDbEntity
  8
Outer_Cut
 62
7
100
AcDbLine
 10
105.498964
 20
254.746959
 30
0.0
 11
105.498964
 21
257.926959
 31
0.0
  0
LINE
  5
5b1
100
AcDbEntity
  8
Outer_Cut
 62
7
100
AcDbLine
 10
105.498964
 20
257.926959
 30
0.0
 11
99.498964
 21
257.926959
 31
0.0
  0
LINE
  5
5b2
100
AcDbEntity
  8
Outer_Cut
 62
7
100
AcDbLine
 10
99.498964
 20
257.926959
 30
0.0
 11
99.498964
 21
254.746959
 31
0.0
  0
LINE
  5
5b3
100
AcDbEntity
  8
Outer_Cut
 62
7
100
AcDbLine
 10
198.865634
 20
254.746959
 30
0.0
 11
204.865634
 21
254.746959
 31
0.0
  0
LINE
  5
5b4
100
AcDbEntity
  8
Outer_Cut
 62
7
100
AcDbLine
 10
204.865634
 20
254.746959
 30
0.0
 11
204.865634
 21
257.926959
 31
0.0
  0
LINE
  5
5b5
100
AcDbEntity
  8
Outer_Cut
 62
7
100
AcDbLine
 10
204.865634
 20
257.926959
 30
0.0
 11
198.865634
 21
257.926959
 31
0.0
  0
LINE
  5
5b6
100
AcDbEntity
  8
Outer_Cut
 62
7
100
AcDbLine
 10
198.865634
 20
257.926959
 30
0.0
 11
198.865634
 21
254.746959
 31
0.0
  0
LINE
  5
5b7
100
AcDbEntity
  8
Outer_Cut
 62
7
100
AcDbLine
 10
211.286464
 20
216.661958
 30
0.0
 11
217.286464
 21
216.661958
 31
0.0
  0
LINE
  5
5b8
100
AcDbEntity
  8
Outer_Cut
 62
7
100
AcDbLine
 10
217.286464
 20
216.661958
 30
0.0
 11
217.286464
 21
219.841958
 31
0.0
  0
LINE
  5
5b9
100
AcDbEntity
  8
Outer_Cut
 62
7
100
AcDbLine
 10
217.286464
 20
219.841958
 30
0.0
 11
211.286464
 21
219.841958
 31
0.0
  0
LINE
  5
5ba
100
AcDbEntity
  8
Outer_Cut
 62
7
100
AcDbLine
 10
211.286464
 20
219.841958
 30
0.0
 11
211.286464
 21
216.661958
 31
0.0
  0
LINE
  5
5bb
100
AcDbEntity
  8
Outer_Cut
 62
7
100
AcDbLine
 10
223.707294
 20
216.661958
 30
0.0
 11
229.707294
 21
216.661958
 31
0.0
  0
LINE
  5
5bc
100
AcDbEntity
  8
Outer_Cut
 62
7
100
AcDbLine
 10
229.707294
 20
216.661958
 30
0.0
 11
229.707294
 21
219.841958
 31
0.0
  0
LINE
  5
5bd
100
AcDbEntity
  8
Outer_Cut
 62
7
100
AcDbLine
 10
229.707294
 20
219.841958
 30
0.0
 11
223.707294
 21
219.841958
 31
0.0
  0
LINE
  5
5be
100
AcDbEntity
  8
Outer_Cut
 62
7
100
AcDbLine
 10
223.707294
 20
219.841958
 30
0.0
 11
223.707294
 21
216.661958
 31
0.0
  0
LINE
  5
5bf
100
AcDbEntity
  8
Outer_Cut
 62
7
100
AcDbLine
 10
236.128134
 20
216.661958
 30
0.0
 11
242.128134
 21
216.661958
 31
0.0
  0
LINE
  5
5c0
100
AcDbEntity
  8
Outer_Cut
 62
7
100
AcDbLine
 10
242.128134
 20
216.661958
 30
0.0
 11
242.128134
 21
219.841958
 31
0.0
  0
LINE
  5
5c1
100
AcDbEntity
  8
Outer_Cut
 62
7
100
AcDbLine
 10
242.128134
 20
219.841958
 30
0.0
 11
236.128134
 21
219.841958
 31
0.0
  0
LINE
  5
5c2
100
AcDbEntity
  8
Outer_Cut
 62
7
100
AcDbLine
 10
236.128134
 20
219.841958
 30
0.0
 11
236.128134
 21
216.661958
 31
0.0
  0
LINE
  5
5c3
100
AcDbEntity
  8
Outer_Cut
 62
7
100
AcDbLine
 10
248.548964
 20
216.661958
 30
0.0
 11
254.548964
 21
216.661958
 31
0.0
  0
LINE
  5
5c4
100
AcDbEntity
  8
Outer_Cut
 62
7
100
AcDbLine
 10
254.548964
 20
216.661958
 30
0.0
 11
254.548964
 21
219.841958
 31
0.0
  0
LINE
  5
5c5
100
AcDbEntity
  8
Outer_Cut
 62
7
100
AcDbLine
 10
254.548964
 20
219.841958
 30
0.0
 11
248.548964
 21
219.841958
 31
0.0
  0
LINE
  5
5c6
100
AcDbEntity
  8
Outer_Cut
 62
7
100
AcDbLine
 10
248.548964
 20
219.841958
 30
0.0
 11
248.548964
 21
216.661958
 31
0.0
  0
LINE
  5
5c7
100
AcDbEntity
  8
Outer_Cut
 62
7
100
AcDbLine
 10
260.969794
 20
216.661958
 30
0.0
 11
266.969794
 21
216.661958
 31
0.0
  0
LINE
  5
5c8
100
AcDbEntity
  8
Outer_Cut
 62
7
100
AcDbLine
 10
266.969794
 20
216.661958
 30
0.0
 11
266.969794
 21
219.841958
 31
0.0
  0
LINE
  5
5c9
100
AcDbEntity
  8
Outer_Cut
 62
7
100
AcDbLine
 10
266.969794
 20
219.841958
 30
0.0
 11
260.969794
 21
219.841958
 31
0.0
  0
LINE
  5
5ca
100
AcDbEntity
  8
Outer_Cut
 62
7
100
AcDbLine
 10
260.969794
 20
219.841958
 30
0.0
 11
260.969794
 21
216.661958
 31
0.0
  0
LINE
  5
5cb
100
AcDbEntity
  8
Outer_Cut
 62
7
100
AcDbLine
 10
273.390634
 20
216.661958
 30
0.0
 11
279.390634
 21
216.661958
 31
0.0
  0
LINE
  5
5cc
100
AcDbEntity
  8
Outer_Cut
 62
7
100
AcDbLine
 10
279.390634
 20
216.661958
 30
0.0
 11
279.390634
 21
219.841958
 31
0.0
  0
LINE
  5
5cd
100
AcDbEntity
  8
Outer_Cut
 62
7
100
AcDbLine
 10
279.390634
 20
219.841958
 30
0.0
 11
273.390634
 21
219.841958
 31
0.0
  0
LINE
  5
5ce
100
AcDbEntity
  8
Outer_Cut
 62
7
100
AcDbLine
 10
273.390634
 20
219.841958
 30
0.0
 11
273.390634
 21
216.661958
 31
0.0
  0
LINE
  5
5cf
100
AcDbEntity
  8
Outer_Cut
 62
7
100
AcDbLine
 10
285.811464
 20
216.661958
 30
0.0
 11
291.811464
 21
216.661958
 31
0.0
  0
LINE
  5
5d0
100
AcDbEntity
  8
Outer_Cut
 62
7
100
AcDbLine
 10
291.811464
 20
216.661958
 30
0.0
 11
291.811464
 21
219.841958
 31
0.0
  0
LINE
  5
5d1
100
AcDbEntity
  8
Outer_Cut
 62
7
100
AcDbLine
 10
291.811464
 20
219.841958
 30
0.0
 11
285.811464
 21
219.841958
 31
0.0
  0
LINE
  5
5d2
100
AcDbEntity
  8
Outer_Cut
 62
7
100
AcDbLine
 10
285.811464
 20
219.841958
 30
0.0
 11
285.811464
 21
216.661958
 31
0.0
  0
LINE
  5
5d3
100
AcDbEntity
  8
Outer_Cut
 62
7
100
AcDbLine
 10
206.147304
 20
280.365292
 30
0.0
 11
206.147304
 21
274.365292
 31
0.0
  0
LINE
  5
5d4
100
AcDbEntity
  8
Outer_Cut
 62
7
100
AcDbLine
 10
206.147304
 20
274.365292
 30
0.0
 11
209.327304
 21
274.365292
 31
0.0
  0
LINE
  5
5d5
100
AcDbEntity
  8
Outer_Cut
 62
7
100
AcDbLine
 10
209.327304
 20
274.365292
 30
0.0
 11
209.327304
 21
280.365292
 31
0.0
  0
LINE
  5
5d6
100
AcDbEntity
  8
Outer_Cut
 62
7
100
AcDbLine
 10
209.327304
 20
280.365292
 30
0.0
 11
206.147304
 21
280.365292
 31
0.0
  0
LINE
  5
5d7
100
AcDbEntity
  8
Outer_Cut
 62
7
100
AcDbLine
 10
206.147304
 20
268.223626
 30
0.0
 11
206.147304
 21
262.223626
 31
0.0
  0
LINE
  5
5d8
100
AcDbEntity
  8
Outer_Cut
 62
7
100
AcDbLine
 10
206.147304
 20
262.223626
 30
0.0
 11
209.327304
 21
262.223626
 31
0.0
  0
LINE
  5
5d9
100
AcDbEntity
  8
Outer_Cut
 62
7
100
AcDbLine
 10
209.327304
 20
262.223626
 30
0.0
 11
209.327304
 21
268.223626
 31
0.0
  0
LINE
  5
5da
100
AcDbEntity
  8
Outer_Cut
 62
7
100
AcDbLine
 10
209.327304
 20
268.223626
 30
0.0
 11
206.147304
 21
268.223626
 31
0.0
  0
LINE
  5
5db
100
AcDbEntity
  8
Outer_Cut
 62
7
100
AcDbLine
 10
206.147304
 20
256.081960
 30
0.0
 11
206.147304
 21
250.081960
 31
0.0
  0
LINE
  5
5dc
100
AcDbEntity
  8
Outer_Cut
 62
7
100
AcDbLine
 10
206.147304
 20
250.081960
 30
0.0
 11
209.327304
 21
250.081960
 31
0.0
  0
LINE
  5
5dd
100
AcDbEntity
  8
Outer_Cut
 62
7
100
AcDbLine
 10
209.327304
 20
250.081960
 30
0.0
 11
209.327304
 21
256.081960
 31
0.0
  0
LINE
  5
5de
100
AcDbEntity
  8
Outer_Cut
 62
7
100
AcDbLine
 10
209.327304
 20
256.081960
 30
0.0
 11
206.147304
 21
256.081960
 31
0.0
  0
LINE
  5
5df
100
AcDbEntity
  8
Outer_Cut
 62
7
100
AcDbLine
 10
206.147304
 20
243.940293
 30
0.0
 11
206.147304
 21
237.940293
 31
0.0
  0
LINE
  5
5e0
100
AcDbEntity
  8
Outer_Cut
 62
7
100
AcDbLine
 10
206.147304
 20
237.940293
 30
0.0
 11
209.327304
 21
237.940293
 31
0.0
  0
LINE
  5
5e1
100
AcDbEntity
  8
Outer_Cut
 62
7
100
AcDbLine
 10
209.327304
 20
237.940293
 30
0.0
 11
209.327304
 21
243.940293
 31
0.0
  0
LINE
  5
5e2
100
AcDbEntity
  8
Outer_Cut
 62
7
100
AcDbLine
 10
209.327304
 20
243.940293
 30
0.0
 11
206.147304
 21
243.940293
 31
0.0
  0
LINE
  5
5e3
100
AcDbEntity
  8
Outer_Cut
 62
7
100
AcDbLine
 10
206.147304
 20
231.798627
 30
0.0
 11
206.147304
 21
225.798627
 31
0.0
  0
LINE
  5
5e4
100
AcDbEntity
  8
Outer_Cut
 62
7
100
AcDbLine
 10
206.147304
 20
225.798627
 30
0.0
 11
209.327304
 21
225.798627
 31
0.0
  0
LINE
  5
5e5
100
AcDbEntity
  8
Outer_Cut
 62
7
100
AcDbLine
 10
209.327304
 20
225.798627
 30
0.0
 11
209.327304
 21
231.798627
 31
0.0
  0
LINE
  5
5e6
100
AcDbEntity
  8
Outer_Cut
 62
7
100
AcDbLine
 10
209.327304
 20
231.798627
 30
0.0
 11
206.147304
 21
231.798627
 31
0.0
  0
LINE
  5
5e7
100
AcDbEntity
  8
Outer_Cut
 62
7
100
AcDbLine
 10
206.147304
 20
219.656958
 30
0.0
 11
206.147304
 21
213.656958
 31
0.0
  0
LINE
  5
5e8
100
AcDbEntity
  8
Outer_Cut
 62
7
100
AcDbLine
 10
206.147304
 20
213.656958
 30
0.0
 11
209.327304
 21
213.656958
 31
0.0
  0
LINE
  5
5e9
100
AcDbEntity
  8
Outer_Cut
 62
7
100
AcDbLine
 10
209.327304
 20
213.656958
 30
0.0
 11
209.327304
 21
219.656958
 31
0.0
  0
LINE
  5
5ea
100
AcDbEntity
  8
Outer_Cut
 62
7
100
AcDbLine
 10
209.327304
 20
219.656958
 30
0.0
 11
206.147304
 21
219.656958
 31
0.0
  0
LINE
  5
5eb
100
AcDbEntity
  8
Outer_Cut
 62
7
100
AcDbLine
 10
206.147304
 20
207.515298
 30
0.0
 11
206.147304
 21
201.515298
 31
0.0
  0
LINE
  5
5ec
100
AcDbEntity
  8
Outer_Cut
 62
7
100
AcDbLine
 10
206.147304
 20
201.515298
 30
0.0
 11
209.327304
 21
201.515298
 31
0.0
  0
LINE
  5
5ed
100
AcDbEntity
  8
Outer_Cut
 62
7
100
AcDbLine
 10
209.327304
 20
201.515298
 30
0.0
 11
209.327304
 21
207.515298
 31
0.0
  0
LINE
  5
5ee
100
AcDbEntity
  8
Outer_Cut
 62
7
100
AcDbLine
 10
209.327304
 20
207.515298
 30
0.0
 11
206.147304
 21
207.515298
 31
0.0
  0
LINE
  5
5ef
100
AcDbEntity
  8
Outer_Cut
 62
7
100
AcDbLine
 10
206.147304
 20
195.373628
 30
0.0
 11
206.147304
 21
189.373628
 31
0.0
  0
LINE
  5
5f0
100
AcDbEntity
  8
Outer_Cut
 62
7
100
AcDbLine
 10
206.147304
 20
189.373628
 30
0.0
 11
209.327304
 21
189.373628
 31
0.0
  0
LINE
  5
5f1
100
AcDbEntity
  8
Outer_Cut
 62
7
100
AcDbLine
 10
209.327304
 20
189.373628
 30
0.0
 11
209.327304
 21
195.373628
 31
0.0
  0
LINE
  5
5f2
100
AcDbEntity
  8
Outer_Cut
 62
7
100
AcDbLine
 10
209.327304
 20
195.373628
 30
0.0
 11
206.147304
 21
195.373628
 31
0.0
  0
LINE
  5
5f3
100
AcDbEntity
  8
Outer_Cut
 62
7
100
AcDbLine
 10
206.147304
 20
183.231958
 30
0.0
 11
206.147304
 21
177.231958
 31
0.0
  0
LINE
  5
5f4
100
AcDbEntity
  8
Outer_Cut
 62
7
100
AcDbLine
 10
206.147304
 20
177.231958
 30
0.0
 11
209.327304
 21
177.231958
 31
0.0
  0
LINE
  5
5f5
100
AcDbEntity
  8
Outer_Cut
 62
7
100
AcDbLine
 10
209.327304
 20
177.231958
 30
0.0
 11
209.327304
 21
183.231958
 31
0.0
  0
LINE
  5
5f6
100
AcDbEntity
  8
Outer_Cut
 62
7
100
AcDbLine
 10
209.327304
 20
183.231958
 30
0.0
 11
206.147304
 21
183.231958
 31
0.0
  0
LINE
  5
5f7
100
AcDbEntity
  8
Outer_Cut
 62
7
100
AcDbLine
 10
206.147304
 20
171.090298
 30
0.0
 11
206.147304
 21
165.090298
 31
0.0
  0
LINE
  5
5f8
100
AcDbEntity
  8
Outer_Cut
 62
7
100
AcDbLine
 10
206.147304
 20
165.090298
 30
0.0
 11
209.327304
 21
165.090298
 31
0.0
  0
LINE
  5
5f9
100
AcDbEntity
  8
Outer_Cut
 62
7
100
AcDbLine
 10
209.327304
 20
165.090298
 30
0.0
 11
209.327304
 21
171.090298
 31
0.0
  0
LINE
  5
5fa
100
AcDbEntity
  8
Outer_Cut
 62
7
100
AcDbLine
 10
209.327304
 20
171.090298
 30
0.0
 11
206.147304
 21
171.090298
 31
0.0
  0
LINE
  5
5fb
100
AcDbEntity
  8
Outer_Cut
 62
7
100
AcDbLine
 10
206.147304
 20
158.948628
 30
0.0
 11
206.147304
 21
152.948628
 31
0.0
  0
LINE
  5
5fc
100
AcDbEntity
  8
Outer_Cut
 62
7
100
AcDbLine
 10
206.147304
 20
152.948628
 30
0.0
 11
209.327304
 21
152.948628
 31
0.0
  0
LINE
  5
5fd
100
AcDbEntity
  8
Outer_Cut
 62
7
100
AcDbLine
 10
209.327304
 20
152.948628
 30
0.0
 11
209.327304
 21
158.948628
 31
0.0
  0
LINE
  5
5fe
100
AcDbEntity
  8
Outer_Cut
 62
7
100
AcDbLine
 10
209.327304
 20
158.948628
 30
0.0
 11
206.147304
 21
158.948628
 31
0.0
  0
LINE
  5
5ff
100
AcDbEntity
  8
Outer_Cut
 62
7
100
AcDbLine
 10
95.037294
 20
280.365292
 30
0.0
 11
95.037294
 21
274.365292
 31
0.0
  0
LINE
  5
600
100
AcDbEntity
  8
Outer_Cut
 62
7
100
AcDbLine
 10
95.037294
 20
274.365292
 30
0.0
 11
98.217294
 21
274.365292
 31
0.0
  0
LINE
  5
601
100
AcDbEntity
  8
Outer_Cut
 62
7
100
AcDbLine
 10
98.217294
 20
274.365292
 30
0.0
 11
98.217294
 21
280.365292
 31
0.0
  0
LINE
  5
602
100
AcDbEntity
  8
Outer_Cut
 62
7
100
AcDbLine
 10
98.217294
 20
280.365292
 30
0.0
 11
95.037294
 21
280.365292
 31
0.0
  0
LINE
  5
603
100
AcDbEntity
  8
Outer_Cut
 62
7
100
AcDbLine
 10
95.037294
 20
268.223626
 30
0.0
 11
95.037294
 21
262.223626
 31
0.0
  0
LINE
  5
604
100
AcDbEntity
  8
Outer_Cut
 62
7
100
AcDbLine
 10
95.037294
 20
262.223626
 30
0.0
 11
98.217294
 21
262.223626
 31
0.0
  0
LINE
  5
605
100
AcDbEntity
  8
Outer_Cut
 62
7
100
AcDbLine
 10
98.217294
 20
262.223626
 30
0.0
 11
98.217294
 21
268.223626
 31
0.0
  0
LINE
  5
606
100
AcDbEntity
  8
Outer_Cut
 62
7
100
AcDbLine
 10
98.217294
 20
268.223626
 30
0.0
 11
95.037294
 21
268.223626
 31
0.0
  0
LINE
  5
607
100
AcDbEntity
  8
Outer_Cut
 62
7
100
AcDbLine
 10
95.037294
 20
256.081960
 30
0.0
 11
95.037294
 21
250.081960
 31
0.0
  0
LINE
  5
608
100
AcDbEntity
  8
Outer_Cut
 62
7
100
AcDbLine
 10
95.037294
 20
250.081960
 30
0.0
 11
98.217294
 21
250.081960
 31
0.0
  0
LINE
  5
609
100
AcDbEntity
  8
Outer_Cut
 62
7
100
AcDbLine
 10
98.217294
 20
250.081960
 30
0.0
 11
98.217294
 21
256.081960
 31
0.0
  0
LINE
  5
60a
100
AcDbEntity
  8
Outer_Cut
 62
7
100
AcDbLine
 10
98.217294
 20
256.081960
 30
0.0
 11
95.037294
 21
256.081960
 31
0.0
  0
LINE
  5
60b
100
AcDbEntity
  8
Outer_Cut
 62
7
100
AcDbLine
 10
95.037294
 20
243.940293
 30
0.0
 11
95.037294
 21
237.940293
 31
0.0
  0
LINE
  5
60c
100
AcDbEntity
  8
Outer_Cut
 62
7
100
AcDbLine
 10
95.037294
 20
237.940293
 30
0.0
 11
98.217294
 21
237.940293
 31
0.0
  0
LINE
  5
60d
100
AcDbEntity
  8
Outer_Cut
 62
7
100
AcDbLine
 10
98.217294
 20
237.940293
 30
0.0
 11
98.217294
 21
243.940293
 31
0.0
  0
LINE
  5
60e
100
AcDbEntity
  8
Outer_Cut
 62
7
100
AcDbLine
 10
98.217294
 20
243.940293
 30
0.0
 11
95.037294
 21
243.940293
 31
0.0
  0
LINE
  5
60f
100
AcDbEntity
  8
Outer_Cut
 62
7
100
AcDbLine
 10
95.037294
 20
231.798627
 30
0.0
 11
95.037294
 21
225.798627
 31
0.0
  0
LINE
  5
610
100
AcDbEntity
  8
Outer_Cut
 62
7
100
AcDbLine
 10
95.037294
 20
225.798627
 30
0.0
 11
98.217294
 21
225.798627
 31
0.0
  0
LINE
  5
611
100
AcDbEntity
  8
Outer_Cut
 62
7
100
AcDbLine
 10
98.217294
 20
225.798627
 30
0.0
 11
98.217294
 21
231.798627
 31
0.0
  0
LINE
  5
612
100
AcDbEntity
  8
Outer_Cut
 62
7
100
AcDbLine
 10
98.217294
 20
231.798627
 30
0.0
 11
95.037294
 21
231.798627
 31
0.0
  0
LINE
  5
613
100
AcDbEntity
  8
Outer_Cut
 62
7
100
AcDbLine
 10
95.037294
 20
219.656958
 30
0.0
 11
95.037294
 21
213.656958
 31
0.0
  0
LINE
  5
614
100
AcDbEntity
  8
Outer_Cut
 62
7
100
AcDbLine
 10
95.037294
 20
213.656958
 30
0.0
 11
98.217294
 21
213.656958
 31
0.0
  0
LINE
  5
615
100
AcDbEntity
  8
Outer_Cut
 62
7
100
AcDbLine
 10
98.217294
 20
213.656958
 30
0.0
 11
98.217294
 21
219.656958
 31
0.0
  0
LINE
  5
616
100
AcDbEntity
  8
Outer_Cut
 62
7
100
AcDbLine
 10
98.217294
 20
219.656958
 30
0.0
 11
95.037294
 21
219.656958
 31
0.0
  0
LINE
  5
617
100
AcDbEntity
  8
Outer_Cut
 62
7
100
AcDbLine
 10
95.037294
 20
207.515298
 30
0.0
 11
95.037294
 21
201.515298
 31
0.0
  0
LINE
  5
618
100
AcDbEntity
  8
Outer_Cut
 62
7
100
AcDbLine
 10
95.037294
 20
201.515298
 30
0.0
 11
98.217294
 21
201.515298
 31
0.0
  0
LINE
  5
619
100
AcDbEntity
  8
Outer_Cut
 62
7
100
AcDbLine
 10
98.217294
 20
201.515298
 30
0.0
 11
98.217294
 21
207.515298
 31
0.0
  0
LINE
  5
61a
100
AcDbEntity
  8
Outer_Cut
 62
7
100
AcDbLine
 10
98.217294
 20
207.515298
 30
0.0
 11
95.037294
 21
207.515298
 31
0.0
  0
LINE
  5
61b
100
AcDbEntity
  8
Outer_Cut
 62
7
100
AcDbLine
 10
95.037294
 20
195.373628
 30
0.0
 11
95.037294
 21
189.373628
 31
0.0
  0
LINE
  5
61c
100
AcDbEntity
  8
Outer_Cut
 62
7
100
AcDbLine
 10
95.037294
 20
189.373628
 30
0.0
 11
98.217294
 21
189.373628
 31
0.0
  0
LINE
  5
61d
100
AcDbEntity
  8
Outer_Cut
 62
7
100
AcDbLine
 10
98.217294
 20
189.373628
 30
0.0
 11
98.217294
 21
195.373628
 31
0.0
  0
LINE
  5
61e
100
AcDbEntity
  8
Outer_Cut
 62
7
100
AcDbLine
 10
98.217294
 20
195.373628
 30
0.0
 11
95.037294
 21
195.373628
 31
0.0
  0
LINE
  5
61f
100
AcDbEntity
  8
Outer_Cut
 62
7
100
AcDbLine
 10
95.037294
 20
183.231958
 30
0.0
 11
95.037294
 21
177.231958
 31
0.0
  0
LINE
  5
620
100
AcDbEntity
  8
Outer_Cut
 62
7
100
AcDbLine
 10
95.037294
 20
177.231958
 30
0.0
 11
98.217294
 21
177.231958
 31
0.0
  0
LINE
  5
621
100
AcDbEntity
  8
Outer_Cut
 62
7
100
AcDbLine
 10
98.217294
 20
177.231958
 30
0.0
 11
98.217294
 21
183.231958
 31
0.0
  0
LINE
  5
622
100
AcDbEntity
  8
Outer_Cut
 62
7
100
AcDbLine
 10
98.217294
 20
183.231958
 30
0.0
 11
95.037294
 21
183.231958
 31
0.0
  0
LINE
  5
623
100
AcDbEntity
  8
Outer_Cut
 62
7
100
AcDbLine
 10
95.037294
 20
171.090298
 30
0.0
 11
95.037294
 21
165.090298
 31
0.0
  0
LINE
  5
624
100
AcDbEntity
  8
Outer_Cut
 62
7
100
AcDbLine
 10
95.037294
 20
165.090298
 30
0.0
 11
98.217294
 21
165.090298
 31
0.0
  0
LINE
  5
625
100
AcDbEntity
  8
Outer_Cut
 62
7
100
AcDbLine
 10
98.217294
 20
165.090298
 30
0.0
 11
98.217294
 21
171.090298
 31
0.0
  0
LINE
  5
626
100
AcDbEntity
  8
Outer_Cut
 62
7
100
AcDbLine
 10
98.217294
 20
171.090298
 30
0.0
 11
95.037294
 21
171.090298
 31
0.0
  0
LINE
  5
627
100
AcDbEntity
  8
Outer_Cut
 62
7
100
AcDbLine
 10
95.037294
 20
158.948628
 30
0.0
 11
95.037294
 21
152.948628
 31
0.0
  0
LINE
  5
628
100
AcDbEntity
  8
Outer_Cut
 62
7
100
AcDbLine
 10
95.037294
 20
152.948628
 30
0.0
 11
98.217294
 21
152.948628
 31
0.0
  0
LINE
  5
629
100
AcDbEntity
  8
Outer_Cut
 62
7
100
AcDbLine
 10
98.217294
 20
152.948628
 30
0.0
 11
98.217294
 21
158.948628
 31
0.0
  0
LINE
  5
62a
100
AcDbEntity
  8
Outer_Cut
 62
7
100
AcDbLine
 10
98.217294
 20
158.948628
 30
0.0
 11
95.037294
 21
158.948628
 31
0.0
  0
SPLINE
  5
62b
100
AcDbEntity
  8
Outer_Cut
 62
7
100
AcDbSpline
 70
8
 71
3
 72
8
 73
4
 74
0
 40
0
 40
0
 40
0
 40
0
 40
1
 40
1
 40
1
 40
1
 10
99.498964
 20
146.806958
 30
0.0
 10
134.621444
 20
146.807228
 30
0.0
 10
169.743674
 20
146.807228
 30
0.0
 10
204.865634
 20
146.806958
 30
0.0
  0
SPLINE
  5
62c
100
AcDbEntity
  8
Outer_Cut
 62
7
100
AcDbSpline
 70
8
 71
3
 72
8
 73
4
 74
0
 40
0
 40
0
 40
0
 40
0
 40
1
 40
1
 40
1
 40
1
 10
6.132294
 20
286.506958
 30
0.0
 10
6.132564
 20
264.223892
 30
0.0
 10
6.132564
 20
241.940557
 30
0.0
 10
6.132294
 20
219.656958
 30
0.0
  0
ENDSEC
  0
SECTION
  2
OBJECTS
  0
DICTIONARY
  5
C
330
0
100
AcDbDictionary
  3
ACAD_GROUP
350
D
  3
ACAD_MLINESTYLE
350
17
  0
DICTIONARY
  5
D
330
C
100
AcDbDictionary
  0
DICTIONARY
  5
1A
330
C
100
AcDbDictionary
  0
DICTIONARY
  5
17
330
C
100
AcDbDictionary
  3
STANDARD
350
18
  0
DICTIONARY
  5
19
330
C
100
AcDbDictionary
  0
ENDSEC
  0
EOF
