  0
SECTION
  2
HEADER
  9
$ACADVER
  1
AC1014
  9
$HANDSEED
  5
FFFF
  9
$MEASUREMENT
 70
     1
  0
ENDSEC
  0
SECTION
  2
TABLES
  0
TABLE
  2
VPORT
  5
8
330
0
100
AcDbSymbolTable
 70
     4
  0
VPORT
  5
2E
330
8
100
AcDbSymbolTableRecord
100
AcDbViewportTableRecord
  2
*ACTIVE
 70
     0
 10
0.0
 20
0.0
 11
1.0
 21
1.0
 12
210.0
 22
148.5
 13
0.0
 23
0.0
 14
10.0
 24
10.0
 15
10.0
 25
10.0
 16
0.0
 26
0.0
 36
1.0
 17
0.0
 27
0.0
 37
0.0
 40
341.0
 41
1.24
 42
50.0
 43
0.0
 44
0.0
 50
0.0
 51
0.0
 71
     0
 72
   100
 73
     1
 74
     3
 75
     0
 76
     0
 77
     0
 78
     0
  0
ENDTAB
  0
TABLE
  2
LTYPE
  5
5
330
0
100
AcDbSymbolTable
 70
     1
  0
LTYPE
  5
14
330
5
100
AcDbSymbolTableRecord
100
AcDbLinetypeTableRecord
  2
BYBLOCK
 70
     0
  3

 72
    65
 73
     0
 40
0.0
  0
LTYPE
  5
15
330
5
100
AcDbSymbolTableRecord
100
AcDbLinetypeTableRecord
  2
BYLAYER
 70
     0
  3

 72
    65
 73
     0
 40
0.0
  0
LTYPE
  5
16
330
5
100
AcDbSymbolTableRecord
100
AcDbLinetypeTableRecord
  2
CONTINUOUS
 70
     0
  3
Solid line
 72
    65
 73
     0
 40
0.0
  0
ENDTAB
  0
TABLE
  2
LAYER
  5
2
100
AcDbSymbolTable
 70
1
  0
LAYER
  5
50
100
AcDbSymbolTableRecord
100
AcDbLayerTableRecord
  2
0
 70
0
  6
CONTINUOUS
  0
ENDTAB
  0
TABLE
  2
STYLE
  5
3
330
0
100
AcDbSymbolTable
 70
     1
  0
STYLE
  5
11
330
3
100
AcDbSymbolTableRecord
100
AcDbTextStyleTableRecord
  2
STANDARD
 70
     0
 40
0.0
 41
1.0
 50
0.0
 71
     0
 42
2.5
  3
txt
  4

  0
ENDTAB
  0
TABLE
  2
VIEW
  5
6
330
0
100
AcDbSymbolTable
 70
     0
  0
ENDTAB
  0
TABLE
  2
UCS
  5
7
330
0
100
AcDbSymbolTable
 70
     0
  0
ENDTAB
  0
TABLE
  2
APPID
  5
9
330
0
100
AcDbSymbolTable
 70
     2
  0
APPID
  5
12
330
9
100
AcDbSymbolTableRecord
100
AcDbRegAppTableRecord
  2
ACAD
 70
     0
  0
ENDTAB
  0
TABLE
  2
DIMSTYLE
  5
A
330
0
100
AcDbSymbolTable
 70
     1
  0
DIMSTYLE
105
27
330
A
100
AcDbSymbolTableRecord
100
AcDbDimStyleTableRecord
  2
ISO-25
 70
     0
  3

  4

  5

  6

  7

 40
1.0
 41
2.5
 42
0.625
 43
3.75
 44
1.25
 45
0.0
 46
0.0
 47
0.0
 48
0.0
140
2.5
141
2.5
142
0.0
143
0.03937007874016
144
1.0
145
0.0
146
1.0
147
0.625
 71
     0
 72
     0
 73
     0
 74
     0
 75
     0
 76
     0
 77
     1
 78
     8
170
     0
171
     3
172
     1
173
     0
174
     0
175
     0
176
     0
177
     0
178
     0
270
     2
271
     2
272
     2
273
     2
274
     3
340
11
275
     0
280
     0
281
     0
282
     0
283
     0
284
     8
285
     0
286
     0
287
     3
288
     0
  0
ENDTAB
  0
TABLE
  2
BLOCK_RECORD
  5
1
330
0
100
AcDbSymbolTable
 70
     1
  0
BLOCK_RECORD
  5
1F
330
1
100
AcDbSymbolTableRecord
100
AcDbBlockTableRecord
  2
*MODEL_SPACE
  0
BLOCK_RECORD
  5
1B
330
1
100
AcDbSymbolTableRecord
100
AcDbBlockTableRecord
  2
*PAPER_SPACE
  0
ENDTAB
  0
ENDSEC
  0
SECTION
  2
BLOCKS
  0
BLOCK
  5
20
330
1F
100
AcDbEntity
  8
0
100
AcDbBlockBegin
  2
*MODEL_SPACE
 70
     0
 10
0.0
 20
0.0
 30
0.0
  3
*MODEL_SPACE
  1

  0
ENDBLK
  5
21
330
1F
100
AcDbEntity
  8
0
100
AcDbBlockEnd
  0
BLOCK
  5
1C
330
1B
100
AcDbEntity
 67
     1
  8
0
100
AcDbBlockBegin
  2
*PAPER_SPACE
  1

  0
ENDBLK
  5
1D
330
1B
100
AcDbEntity
 67
     1
  8
0
100
AcDbBlockEnd
  0
ENDSEC
  0
SECTION
  2
ENTITIES
  0
LINE
  5
100
100
AcDbEntity
  8
0
 62
7
100
AcDbLine
 10
38.395778
 20
18.343538
 30
0.0
 11
38.605992
 21
16.998176
 31
0.0
  0
LINE
  5
101
100
AcDbEntity
  8
0
 62
7
100
AcDbLine
 10
38.605992
 20
16.998176
 30
0.0
 11
38.984375
 21
15.652814
 31
0.0
  0
LINE
  5
102
100
AcDbEntity
  8
0
 62
7
100
AcDbLine
 10
38.984375
 20
15.652814
 30
0.0
 11
39.362758
 21
15.526686
 31
0.0
  0
LINE
  5
103
100
AcDbEntity
  8
0
 62
7
100
AcDbLine
 10
39.362758
 20
15.526686
 30
0.0
 11
39.741139
 21
15.400559
 31
0.0
  0
LINE
  5
104
100
AcDbEntity
  8
0
 62
7
100
AcDbLine
 10
39.741139
 20
15.400559
 30
0.0
 11
40.119525
 21
15.316474
 31
0.0
  0
LINE
  5
105
100
AcDbEntity
  8
0
 62
7
100
AcDbLine
 10
40.119525
 20
15.316474
 30
0.0
 11
40.497908
 21
15.274431
 31
0.0
  0
LINE
  5
106
100
AcDbEntity
  8
0
 62
7
100
AcDbLine
 10
40.497908
 20
15.274431
 30
0.0
 11
40.876289
 21
15.232389
 31
0.0
  0
LINE
  5
107
100
AcDbEntity
  8
0
 62
7
100
AcDbLine
 10
40.876289
 20
15.232389
 30
0.0
 11
41.212630
 21
15.190346
 31
0.0
  0
LINE
  5
108
100
AcDbEntity
  8
0
 62
7
100
AcDbLine
 10
41.212630
 20
15.190346
 30
0.0
 11
41.548971
 21
15.232389
 31
0.0
  0
LINE
  5
109
100
AcDbEntity
  8
0
 62
7
100
AcDbLine
 10
41.548971
 20
15.232389
 30
0.0
 11
41.885312
 21
15.274431
 31
0.0
  0
LINE
  5
10a
100
AcDbEntity
  8
0
 62
7
100
AcDbLine
 10
41.885312
 20
15.274431
 30
0.0
 11
42.221650
 21
15.316474
 31
0.0
  0
LINE
  5
10b
100
AcDbEntity
  8
0
 62
7
100
AcDbLine
 10
42.221650
 20
15.316474
 30
0.0
 11
42.473906
 21
15.526686
 31
0.0
  0
LINE
  5
10c
100
AcDbEntity
  8
0
 62
7
100
AcDbLine
 10
42.473906
 20
15.526686
 30
0.0
 11
42.726163
 21
15.694857
 31
0.0
  0
LINE
  5
10d
100
AcDbEntity
  8
0
 62
7
100
AcDbLine
 10
42.726163
 20
15.694857
 30
0.0
 11
43.020462
 21
15.820984
 31
0.0
  0
LINE
  5
10e
100
AcDbEntity
  8
0
 62
7
100
AcDbLine
 10
43.020462
 20
15.820984
 30
0.0
 11
43.188631
 21
15.863027
 31
0.0
  0
LINE
  5
10f
100
AcDbEntity
  8
0
 62
7
100
AcDbLine
 10
43.188631
 20
15.863027
 30
0.0
 11
43.314758
 21
15.905070
 31
0.0
  0
LINE
  5
110
100
AcDbEntity
  8
0
 62
7
100
AcDbLine
 10
43.314758
 20
15.905070
 30
0.0
 11
43.482929
 21
15.947112
 31
0.0
  0
LINE
  5
111
100
AcDbEntity
  8
0
 62
7
100
AcDbLine
 10
43.482929
 20
15.947112
 30
0.0
 11
43.567014
 21
15.947112
 31
0.0
  0
LINE
  5
112
100
AcDbEntity
  8
0
 62
7
100
AcDbLine
 10
43.567014
 20
15.947112
 30
0.0
 11
43.651099
 21
15.947112
 31
0.0
  0
LINE
  5
113
100
AcDbEntity
  8
0
 62
7
100
AcDbLine
 10
43.651099
 20
15.947112
 30
0.0
 11
43.777225
 21
15.947112
 31
0.0
  0
LINE
  5
114
100
AcDbEntity
  8
0
 62
7
100
AcDbLine
 10
43.777225
 20
15.947112
 30
0.0
 11
43.861313
 21
15.905070
 31
0.0
  0
LINE
  5
115
100
AcDbEntity
  8
0
 62
7
100
AcDbLine
 10
43.861313
 20
15.905070
 30
0.0
 11
43.987440
 21
15.863027
 31
0.0
  0
LINE
  5
116
100
AcDbEntity
  8
0
 62
7
100
AcDbLine
 10
43.987440
 20
15.863027
 30
0.0
 11
44.155609
 21
15.694857
 31
0.0
  0
LINE
  5
117
100
AcDbEntity
  8
0
 62
7
100
AcDbLine
 10
44.155609
 20
15.694857
 30
0.0
 11
44.828291
 21
14.685835
 31
0.0
  0
LINE
  5
118
100
AcDbEntity
  8
0
 62
7
100
AcDbLine
 10
44.828291
 20
14.685835
 30
0.0
 11
45.669142
 21
13.802942
 31
0.0
  0
LINE
  5
119
100
AcDbEntity
  8
0
 62
7
100
AcDbLine
 10
45.669142
 20
13.802942
 30
0.0
 11
45.795269
 21
13.592729
 31
0.0
  0
LINE
  5
11a
100
AcDbEntity
  8
0
 62
7
100
AcDbLine
 10
45.795269
 20
13.592729
 30
0.0
 11
45.795269
 21
13.466601
 31
0.0
  0
LINE
  5
11b
100
AcDbEntity
  8
0
 62
7
100
AcDbLine
 10
45.795269
 20
13.466601
 30
0.0
 11
45.795269
 21
13.382516
 31
0.0
  0
LINE
  5
11c
100
AcDbEntity
  8
0
 62
7
100
AcDbLine
 10
45.795269
 20
13.382516
 30
0.0
 11
45.795269
 21
13.256389
 31
0.0
  0
LINE
  5
11d
100
AcDbEntity
  8
0
 62
7
100
AcDbLine
 10
45.795269
 20
13.256389
 30
0.0
 11
45.753226
 21
13.172303
 31
0.0
  0
LINE
  5
11e
100
AcDbEntity
  8
0
 62
7
100
AcDbLine
 10
45.753226
 20
13.172303
 30
0.0
 11
45.753226
 21
13.088218
 31
0.0
  0
LINE
  5
11f
100
AcDbEntity
  8
0
 62
7
100
AcDbLine
 10
45.753226
 20
13.088218
 30
0.0
 11
45.669142
 21
12.962091
 31
0.0
  0
LINE
  5
120
100
AcDbEntity
  8
0
 62
7
100
AcDbLine
 10
45.669142
 20
12.962091
 30
0.0
 11
45.627099
 21
12.793920
 31
0.0
  0
LINE
  5
121
100
AcDbEntity
  8
0
 62
7
100
AcDbLine
 10
45.627099
 20
12.793920
 30
0.0
 11
45.543015
 21
12.667792
 31
0.0
  0
LINE
  5
122
100
AcDbEntity
  8
0
 62
7
100
AcDbLine
 10
45.543015
 20
12.667792
 30
0.0
 11
45.332801
 21
12.415537
 31
0.0
  0
LINE
  5
123
100
AcDbEntity
  8
0
 62
7
100
AcDbLine
 10
45.332801
 20
12.415537
 30
0.0
 11
45.122587
 21
12.205325
 31
0.0
  0
LINE
  5
124
100
AcDbEntity
  8
0
 62
7
100
AcDbLine
 10
45.122587
 20
12.205325
 30
0.0
 11
44.870333
 21
11.995112
 31
0.0
  0
LINE
  5
125
100
AcDbEntity
  8
0
 62
7
100
AcDbLine
 10
44.870333
 20
11.995112
 30
0.0
 11
44.744203
 21
11.700814
 31
0.0
  0
LINE
  5
126
100
AcDbEntity
  8
0
 62
7
100
AcDbLine
 10
44.744203
 20
11.700814
 30
0.0
 11
44.618079
 21
11.364474
 31
0.0
  0
LINE
  5
127
100
AcDbEntity
  8
0
 62
7
100
AcDbLine
 10
44.618079
 20
11.364474
 30
0.0
 11
44.533992
 21
11.028133
 31
0.0
  0
LINE
  5
128
100
AcDbEntity
  8
0
 62
7
100
AcDbLine
 10
44.533992
 20
11.028133
 30
0.0
 11
44.491950
 21
10.691792
 31
0.0
  0
LINE
  5
129
100
AcDbEntity
  8
0
 62
7
100
AcDbLine
 10
44.491950
 20
10.691792
 30
0.0
 11
44.449907
 21
10.313408
 31
0.0
  0
LINE
  5
12a
100
AcDbEntity
  8
0
 62
7
100
AcDbLine
 10
44.449907
 20
10.313408
 30
0.0
 11
44.407865
 21
9.977070
 31
0.0
  0
LINE
  5
12b
100
AcDbEntity
  8
0
 62
7
100
AcDbLine
 10
44.407865
 20
9.977070
 30
0.0
 11
44.407865
 21
9.556644
 31
0.0
  0
LINE
  5
12c
100
AcDbEntity
  8
0
 62
7
100
AcDbLine
 10
44.407865
 20
9.556644
 30
0.0
 11
44.449907
 21
9.178261
 31
0.0
  0
LINE
  5
12d
100
AcDbEntity
  8
0
 62
7
100
AcDbLine
 10
44.449907
 20
9.178261
 30
0.0
 11
44.491950
 21
8.799878
 31
0.0
  0
LINE
  5
12e
100
AcDbEntity
  8
0
 62
7
100
AcDbLine
 10
44.491950
 20
8.799878
 30
0.0
 11
45.711184
 21
8.127196
 31
0.0
  0
LINE
  5
12f
100
AcDbEntity
  8
0
 62
7
100
AcDbLine
 10
45.711184
 20
8.127196
 30
0.0
 11
46.972461
 21
7.580643
 31
0.0
  0
LINE
  5
130
100
AcDbEntity
  8
0
 62
7
100
AcDbLine
 10
46.972461
 20
7.580643
 30
0.0
 11
47.308802
 21
7.790858
 31
0.0
  0
LINE
  5
131
100
AcDbEntity
  8
0
 62
7
100
AcDbLine
 10
47.308802
 20
7.790858
 30
0.0
 11
47.645143
 21
8.043111
 31
0.0
  0
LINE
  5
132
100
AcDbEntity
  8
0
 62
7
100
AcDbLine
 10
47.645143
 20
8.043111
 30
0.0
 11
47.939439
 21
8.253325
 31
0.0
  0
LINE
  5
133
100
AcDbEntity
  8
0
 62
7
100
AcDbLine
 10
47.939439
 20
8.253325
 30
0.0
 11
48.233737
 21
8.505579
 31
0.0
  0
LINE
  5
134
100
AcDbEntity
  8
0
 62
7
100
AcDbLine
 10
48.233737
 20
8.505579
 30
0.0
 11
48.485991
 21
8.757836
 31
0.0
  0
LINE
  5
135
100
AcDbEntity
  8
0
 62
7
100
AcDbLine
 10
48.485991
 20
8.757836
 30
0.0
 11
48.696205
 21
9.052132
 31
0.0
  0
LINE
  5
136
100
AcDbEntity
  8
0
 62
7
100
AcDbLine
 10
48.696205
 20
9.052132
 30
0.0
 11
48.906419
 21
9.304388
 31
0.0
  0
LINE
  5
137
100
AcDbEntity
  8
0
 62
7
100
AcDbLine
 10
48.906419
 20
9.304388
 30
0.0
 11
49.074589
 21
9.598687
 31
0.0
  0
LINE
  5
138
100
AcDbEntity
  8
0
 62
7
100
AcDbLine
 10
49.074589
 20
9.598687
 30
0.0
 11
49.242758
 21
9.892985
 31
0.0
  0
LINE
  5
139
100
AcDbEntity
  8
0
 62
7
100
AcDbLine
 10
49.242758
 20
9.892985
 30
0.0
 11
49.242758
 21
10.187281
 31
0.0
  0
LINE
  5
13a
100
AcDbEntity
  8
0
 62
7
100
AcDbLine
 10
49.242758
 20
10.187281
 30
0.0
 11
49.284800
 21
10.523622
 31
0.0
  0
LINE
  5
13b
100
AcDbEntity
  8
0
 62
7
100
AcDbLine
 10
49.284800
 20
10.523622
 30
0.0
 11
49.368887
 21
10.817921
 31
0.0
  0
LINE
  5
13c
100
AcDbEntity
  8
0
 62
7
100
AcDbLine
 10
49.368887
 20
10.817921
 30
0.0
 11
49.410930
 21
10.986090
 31
0.0
  0
LINE
  5
13d
100
AcDbEntity
  8
0
 62
7
100
AcDbLine
 10
49.410930
 20
10.986090
 30
0.0
 11
49.452972
 21
11.112217
 31
0.0
  0
LINE
  5
13e
100
AcDbEntity
  8
0
 62
7
100
AcDbLine
 10
49.452972
 20
11.112217
 30
0.0
 11
49.537056
 21
11.280389
 31
0.0
  0
LINE
  5
13f
100
AcDbEntity
  8
0
 62
7
100
AcDbLine
 10
49.537056
 20
11.280389
 30
0.0
 11
49.621141
 21
11.322431
 31
0.0
  0
LINE
  5
140
100
AcDbEntity
  8
0
 62
7
100
AcDbLine
 10
49.621141
 20
11.322431
 30
0.0
 11
49.663186
 21
11.406516
 31
0.0
  0
LINE
  5
141
100
AcDbEntity
  8
0
 62
7
100
AcDbLine
 10
49.663186
 20
11.406516
 30
0.0
 11
49.747268
 21
11.490600
 31
0.0
  0
LINE
  5
142
100
AcDbEntity
  8
0
 62
7
100
AcDbLine
 10
49.747268
 20
11.490600
 30
0.0
 11
49.831352
 21
11.532643
 31
0.0
  0
LINE
  5
143
100
AcDbEntity
  8
0
 62
7
100
AcDbLine
 10
49.831352
 20
11.532643
 30
0.0
 11
49.915440
 21
11.616730
 31
0.0
  0
LINE
  5
144
100
AcDbEntity
  8
0
 62
7
100
AcDbLine
 10
49.915440
 20
11.616730
 30
0.0
 11
50.167693
 21
11.616730
 31
0.0
  0
LINE
  5
145
100
AcDbEntity
  8
0
 62
7
100
AcDbLine
 10
50.167693
 20
11.616730
 30
0.0
 11
51.386931
 21
11.532643
 31
0.0
  0
LINE
  5
146
100
AcDbEntity
  8
0
 62
7
100
AcDbLine
 10
51.386931
 20
11.532643
 30
0.0
 11
52.564120
 21
11.616730
 31
0.0
  0
LINE
  5
147
100
AcDbEntity
  8
0
 62
7
100
AcDbLine
 10
52.564120
 20
11.616730
 30
0.0
 11
52.816376
 21
11.616730
 31
0.0
  0
LINE
  5
148
100
AcDbEntity
  8
0
 62
7
100
AcDbLine
 10
52.816376
 20
11.616730
 30
0.0
 11
52.942503
 21
11.532643
 31
0.0
  0
LINE
  5
149
100
AcDbEntity
  8
0
 62
7
100
AcDbLine
 10
52.942503
 20
11.532643
 30
0.0
 11
53.026590
 21
11.490600
 31
0.0
  0
LINE
  5
14a
100
AcDbEntity
  8
0
 62
7
100
AcDbLine
 10
53.026590
 20
11.490600
 30
0.0
 11
53.068633
 21
11.406516
 31
0.0
  0
LINE
  5
14b
100
AcDbEntity
  8
0
 62
7
100
AcDbLine
 10
53.068633
 20
11.406516
 30
0.0
 11
53.110672
 21
11.322431
 31
0.0
  0
LINE
  5
14c
100
AcDbEntity
  8
0
 62
7
100
AcDbLine
 10
53.110672
 20
11.322431
 30
0.0
 11
53.194757
 21
11.280389
 31
0.0
  0
LINE
  5
14d
100
AcDbEntity
  8
0
 62
7
100
AcDbLine
 10
53.194757
 20
11.280389
 30
0.0
 11
53.278844
 21
11.112217
 31
0.0
  0
LINE
  5
14e
100
AcDbEntity
  8
0
 62
7
100
AcDbLine
 10
53.278844
 20
11.112217
 30
0.0
 11
53.320887
 21
10.986090
 31
0.0
  0
LINE
  5
14f
100
AcDbEntity
  8
0
 62
7
100
AcDbLine
 10
53.320887
 20
10.986090
 30
0.0
 11
53.362929
 21
10.817921
 31
0.0
  0
LINE
  5
150
100
AcDbEntity
  8
0
 62
7
100
AcDbLine
 10
53.362929
 20
10.817921
 30
0.0
 11
53.447013
 21
10.523622
 31
0.0
  0
LINE
  5
151
100
AcDbEntity
  8
0
 62
7
100
AcDbLine
 10
53.447013
 20
10.523622
 30
0.0
 11
53.489056
 21
10.187281
 31
0.0
  0
LINE
  5
152
100
AcDbEntity
  8
0
 62
7
100
AcDbLine
 10
53.489056
 20
10.187281
 30
0.0
 11
53.531098
 21
9.892985
 31
0.0
  0
LINE
  5
153
100
AcDbEntity
  8
0
 62
7
100
AcDbLine
 10
53.531098
 20
9.892985
 30
0.0
 11
53.657227
 21
9.598687
 31
0.0
  0
LINE
  5
154
100
AcDbEntity
  8
0
 62
7
100
AcDbLine
 10
53.657227
 20
9.598687
 30
0.0
 11
53.825397
 21
9.304388
 31
0.0
  0
LINE
  5
155
100
AcDbEntity
  8
0
 62
7
100
AcDbLine
 10
53.825397
 20
9.304388
 30
0.0
 11
54.035611
 21
9.052132
 31
0.0
  0
LINE
  5
156
100
AcDbEntity
  8
0
 62
7
100
AcDbLine
 10
54.035611
 20
9.052132
 30
0.0
 11
54.287864
 21
8.757836
 31
0.0
  0
LINE
  5
157
100
AcDbEntity
  8
0
 62
7
100
AcDbLine
 10
54.287864
 20
8.757836
 30
0.0
 11
54.540118
 21
8.505579
 31
0.0
  0
LINE
  5
158
100
AcDbEntity
  8
0
 62
7
100
AcDbLine
 10
54.540118
 20
8.505579
 30
0.0
 11
54.792375
 21
8.253325
 31
0.0
  0
LINE
  5
159
100
AcDbEntity
  8
0
 62
7
100
AcDbLine
 10
54.792375
 20
8.253325
 30
0.0
 11
55.086673
 21
8.043111
 31
0.0
  0
LINE
  5
15a
100
AcDbEntity
  8
0
 62
7
100
AcDbLine
 10
55.086673
 20
8.043111
 30
0.0
 11
55.423014
 21
7.790858
 31
0.0
  0
LINE
  5
15b
100
AcDbEntity
  8
0
 62
7
100
AcDbLine
 10
55.423014
 20
7.790858
 30
0.0
 11
55.759355
 21
7.580643
 31
0.0
  0
LINE
  5
15c
100
AcDbEntity
  8
0
 62
7
100
AcDbLine
 10
55.759355
 20
7.580643
 30
0.0
 11
57.062674
 21
8.127196
 31
0.0
  0
LINE
  5
15d
100
AcDbEntity
  8
0
 62
7
100
AcDbLine
 10
57.062674
 20
8.127196
 30
0.0
 11
58.239864
 21
8.799878
 31
0.0
  0
LINE
  5
15e
100
AcDbEntity
  8
0
 62
7
100
AcDbLine
 10
58.239864
 20
8.799878
 30
0.0
 11
58.323951
 21
9.178261
 31
0.0
  0
LINE
  5
15f
100
AcDbEntity
  8
0
 62
7
100
AcDbLine
 10
58.323951
 20
9.178261
 30
0.0
 11
58.323951
 21
9.556644
 31
0.0
  0
LINE
  5
160
100
AcDbEntity
  8
0
 62
7
100
AcDbLine
 10
58.323951
 20
9.556644
 30
0.0
 11
58.323951
 21
9.977070
 31
0.0
  0
LINE
  5
161
100
AcDbEntity
  8
0
 62
7
100
AcDbLine
 10
58.323951
 20
9.977070
 30
0.0
 11
58.323951
 21
10.313408
 31
0.0
  0
LINE
  5
162
100
AcDbEntity
  8
0
 62
7
100
AcDbLine
 10
58.323951
 20
10.313408
 30
0.0
 11
58.281909
 21
10.691792
 31
0.0
  0
LINE
  5
163
100
AcDbEntity
  8
0
 62
7
100
AcDbLine
 10
58.281909
 20
10.691792
 30
0.0
 11
58.197821
 21
11.028133
 31
0.0
  0
LINE
  5
164
100
AcDbEntity
  8
0
 62
7
100
AcDbLine
 10
58.197821
 20
11.028133
 30
0.0
 11
58.113740
 21
11.364474
 31
0.0
  0
LINE
  5
165
100
AcDbEntity
  8
0
 62
7
100
AcDbLine
 10
58.113740
 20
11.364474
 30
0.0
 11
57.987610
 21
11.700814
 31
0.0
  0
LINE
  5
166
100
AcDbEntity
  8
0
 62
7
100
AcDbLine
 10
57.987610
 20
11.700814
 30
0.0
 11
57.861483
 21
11.995112
 31
0.0
  0
LINE
  5
167
100
AcDbEntity
  8
0
 62
7
100
AcDbLine
 10
57.861483
 20
11.995112
 30
0.0
 11
57.609227
 21
12.205325
 31
0.0
  0
LINE
  5
168
100
AcDbEntity
  8
0
 62
7
100
AcDbLine
 10
57.609227
 20
12.205325
 30
0.0
 11
57.399015
 21
12.415537
 31
0.0
  0
LINE
  5
169
100
AcDbEntity
  8
0
 62
7
100
AcDbLine
 10
57.399015
 20
12.415537
 30
0.0
 11
57.188801
 21
12.667792
 31
0.0
  0
LINE
  5
16a
100
AcDbEntity
  8
0
 62
7
100
AcDbLine
 10
57.188801
 20
12.667792
 30
0.0
 11
57.104717
 21
12.793920
 31
0.0
  0
LINE
  5
16b
100
AcDbEntity
  8
0
 62
7
100
AcDbLine
 10
57.104717
 20
12.793920
 30
0.0
 11
57.062674
 21
12.962091
 31
0.0
  0
LINE
  5
16c
100
AcDbEntity
  8
0
 62
7
100
AcDbLine
 10
57.062674
 20
12.962091
 30
0.0
 11
56.978590
 21
13.088218
 31
0.0
  0
LINE
  5
16d
100
AcDbEntity
  8
0
 62
7
100
AcDbLine
 10
56.978590
 20
13.088218
 30
0.0
 11
56.978590
 21
13.172303
 31
0.0
  0
LINE
  5
16e
100
AcDbEntity
  8
0
 62
7
100
AcDbLine
 10
56.978590
 20
13.172303
 30
0.0
 11
56.936547
 21
13.256389
 31
0.0
  0
LINE
  5
16f
100
AcDbEntity
  8
0
 62
7
100
AcDbLine
 10
56.936547
 20
13.256389
 30
0.0
 11
56.936547
 21
13.382516
 31
0.0
  0
LINE
  5
170
100
AcDbEntity
  8
0
 62
7
100
AcDbLine
 10
56.936547
 20
13.382516
 30
0.0
 11
56.936547
 21
13.466601
 31
0.0
  0
LINE
  5
171
100
AcDbEntity
  8
0
 62
7
100
AcDbLine
 10
56.936547
 20
13.466601
 30
0.0
 11
56.936547
 21
13.592729
 31
0.0
  0
LINE
  5
172
100
AcDbEntity
  8
0
 62
7
100
AcDbLine
 10
56.936547
 20
13.592729
 30
0.0
 11
57.104717
 21
13.802942
 31
0.0
  0
LINE
  5
173
100
AcDbEntity
  8
0
 62
7
100
AcDbLine
 10
57.104717
 20
13.802942
 30
0.0
 11
57.903523
 21
14.685835
 31
0.0
  0
LINE
  5
174
100
AcDbEntity
  8
0
 62
7
100
AcDbLine
 10
57.903523
 20
14.685835
 30
0.0
 11
58.576205
 21
15.694857
 31
0.0
  0
LINE
  5
175
100
AcDbEntity
  8
0
 62
7
100
AcDbLine
 10
58.576205
 20
15.694857
 30
0.0
 11
58.744377
 21
15.863027
 31
0.0
  0
LINE
  5
176
100
AcDbEntity
  8
0
 62
7
100
AcDbLine
 10
58.744377
 20
15.863027
 30
0.0
 11
58.870503
 21
15.905070
 31
0.0
  0
LINE
  5
177
100
AcDbEntity
  8
0
 62
7
100
AcDbLine
 10
58.870503
 20
15.905070
 30
0.0
 11
58.996630
 21
15.947112
 31
0.0
  0
LINE
  5
178
100
AcDbEntity
  8
0
 62
7
100
AcDbLine
 10
58.996630
 20
15.947112
 30
0.0
 11
59.080717
 21
15.947112
 31
0.0
  0
LINE
  5
179
100
AcDbEntity
  8
0
 62
7
100
AcDbLine
 10
59.080717
 20
15.947112
 30
0.0
 11
59.164802
 21
15.947112
 31
0.0
  0
LINE
  5
17a
100
AcDbEntity
  8
0
 62
7
100
AcDbLine
 10
59.164802
 20
15.947112
 30
0.0
 11
59.248887
 21
15.947112
 31
0.0
  0
LINE
  5
17b
100
AcDbEntity
  8
0
 62
7
100
AcDbLine
 10
59.248887
 20
15.947112
 30
0.0
 11
59.417058
 21
15.905070
 31
0.0
  0
LINE
  5
17c
100
AcDbEntity
  8
0
 62
7
100
AcDbLine
 10
59.417058
 20
15.905070
 30
0.0
 11
59.585225
 21
15.863027
 31
0.0
  0
LINE
  5
17d
100
AcDbEntity
  8
0
 62
7
100
AcDbLine
 10
59.585225
 20
15.863027
 30
0.0
 11
59.711355
 21
15.820984
 31
0.0
  0
LINE
  5
17e
100
AcDbEntity
  8
0
 62
7
100
AcDbLine
 10
59.711355
 20
15.820984
 30
0.0
 11
60.005653
 21
15.694857
 31
0.0
  0
LINE
  5
17f
100
AcDbEntity
  8
0
 62
7
100
AcDbLine
 10
60.005653
 20
15.694857
 30
0.0
 11
60.257907
 21
15.526686
 31
0.0
  0
LINE
  5
180
100
AcDbEntity
  8
0
 62
7
100
AcDbLine
 10
60.257907
 20
15.526686
 30
0.0
 11
60.552206
 21
15.316474
 31
0.0
  0
LINE
  5
181
100
AcDbEntity
  8
0
 62
7
100
AcDbLine
 10
60.552206
 20
15.316474
 30
0.0
 11
60.846504
 21
15.274431
 31
0.0
  0
LINE
  5
182
100
AcDbEntity
  8
0
 62
7
100
AcDbLine
 10
60.846504
 20
15.274431
 30
0.0
 11
61.182845
 21
15.232389
 31
0.0
  0
LINE
  5
183
100
AcDbEntity
  8
0
 62
7
100
AcDbLine
 10
61.182845
 20
15.232389
 30
0.0
 11
61.519184
 21
15.190346
 31
0.0
  0
LINE
  5
184
100
AcDbEntity
  8
0
 62
7
100
AcDbLine
 10
61.519184
 20
15.190346
 30
0.0
 11
61.897567
 21
15.232389
 31
0.0
  0
LINE
  5
185
100
AcDbEntity
  8
0
 62
7
100
AcDbLine
 10
61.897567
 20
15.232389
 30
0.0
 11
62.233908
 21
15.274431
 31
0.0
  0
LINE
  5
186
100
AcDbEntity
  8
0
 62
7
100
AcDbLine
 10
62.233908
 20
15.274431
 30
0.0
 11
62.612291
 21
15.316474
 31
0.0
  0
LINE
  5
187
100
AcDbEntity
  8
0
 62
7
100
AcDbLine
 10
62.612291
 20
15.316474
 30
0.0
 11
62.990674
 21
15.400559
 31
0.0
  0
LINE
  5
188
100
AcDbEntity
  8
0
 62
7
100
AcDbLine
 10
62.990674
 20
15.400559
 30
0.0
 11
63.369058
 21
15.526686
 31
0.0
  0
LINE
  5
189
100
AcDbEntity
  8
0
 62
7
100
AcDbLine
 10
63.369058
 20
15.526686
 30
0.0
 11
63.747441
 21
15.652814
 31
0.0
  0
LINE
  5
18a
100
AcDbEntity
  8
0
 62
7
100
AcDbLine
 10
63.747441
 20
15.652814
 30
0.0
 11
64.125824
 21
16.998176
 31
0.0
  0
LINE
  5
18b
100
AcDbEntity
  8
0
 62
7
100
AcDbLine
 10
64.125824
 20
16.998176
 30
0.0
 11
64.378078
 21
18.343538
 31
0.0
  0
LINE
  5
18c
100
AcDbEntity
  8
0
 62
7
100
AcDbLine
 10
64.378078
 20
18.343538
 30
0.0
 11
64.083779
 21
18.637836
 31
0.0
  0
LINE
  5
18d
100
AcDbEntity
  8
0
 62
7
100
AcDbLine
 10
64.083779
 20
18.637836
 30
0.0
 11
63.789483
 21
18.890091
 31
0.0
  0
LINE
  5
18e
100
AcDbEntity
  8
0
 62
7
100
AcDbLine
 10
63.789483
 20
18.890091
 30
0.0
 11
63.495185
 21
19.142346
 31
0.0
  0
LINE
  5
18f
100
AcDbEntity
  8
0
 62
7
100
AcDbLine
 10
63.495185
 20
19.142346
 30
0.0
 11
63.158846
 21
19.352559
 31
0.0
  0
LINE
  5
190
100
AcDbEntity
  8
0
 62
7
100
AcDbLine
 10
63.158846
 20
19.352559
 30
0.0
 11
62.864548
 21
19.562772
 31
0.0
  0
LINE
  5
191
100
AcDbEntity
  8
0
 62
7
100
AcDbLine
 10
62.864548
 20
19.562772
 30
0.0
 11
62.570249
 21
19.730942
 31
0.0
  0
LINE
  5
192
100
AcDbEntity
  8
0
 62
7
100
AcDbLine
 10
62.570249
 20
19.730942
 30
0.0
 11
62.233908
 21
19.857070
 31
0.0
  0
LINE
  5
193
100
AcDbEntity
  8
0
 62
7
100
AcDbLine
 10
62.233908
 20
19.857070
 30
0.0
 11
61.939609
 21
19.983198
 31
0.0
  0
LINE
  5
194
100
AcDbEntity
  8
0
 62
7
100
AcDbLine
 10
61.939609
 20
19.983198
 30
0.0
 11
61.603268
 21
20.025240
 31
0.0
  0
LINE
  5
195
100
AcDbEntity
  8
0
 62
7
100
AcDbLine
 10
61.603268
 20
20.025240
 30
0.0
 11
61.308972
 21
19.983198
 31
0.0
  0
LINE
  5
196
100
AcDbEntity
  8
0
 62
7
100
AcDbLine
 10
61.308972
 20
19.983198
 30
0.0
 11
60.972631
 21
19.941155
 31
0.0
  0
LINE
  5
197
100
AcDbEntity
  8
0
 62
7
100
AcDbLine
 10
60.972631
 20
19.941155
 30
0.0
 11
60.678333
 21
19.941155
 31
0.0
  0
LINE
  5
198
100
AcDbEntity
  8
0
 62
7
100
AcDbLine
 10
60.678333
 20
19.941155
 30
0.0
 11
60.510163
 21
19.983198
 31
0.0
  0
LINE
  5
199
100
AcDbEntity
  8
0
 62
7
100
AcDbLine
 10
60.510163
 20
19.983198
 30
0.0
 11
60.341994
 21
20.025240
 31
0.0
  0
LINE
  5
19a
100
AcDbEntity
  8
0
 62
7
100
AcDbLine
 10
60.341994
 20
20.025240
 30
0.0
 11
60.173822
 21
20.067282
 31
0.0
  0
LINE
  5
19b
100
AcDbEntity
  8
0
 62
7
100
AcDbLine
 10
60.173822
 20
20.067282
 30
0.0
 11
60.089738
 21
20.067282
 31
0.0
  0
LINE
  5
19c
100
AcDbEntity
  8
0
 62
7
100
AcDbLine
 10
60.089738
 20
20.067282
 30
0.0
 11
60.047696
 21
20.109325
 31
0.0
  0
LINE
  5
19d
100
AcDbEntity
  8
0
 62
7
100
AcDbLine
 10
60.047696
 20
20.109325
 30
0.0
 11
59.963611
 21
20.193410
 31
0.0
  0
LINE
  5
19e
100
AcDbEntity
  8
0
 62
7
100
AcDbLine
 10
59.963611
 20
20.193410
 30
0.0
 11
59.879524
 21
20.235453
 31
0.0
  0
LINE
  5
19f
100
AcDbEntity
  8
0
 62
7
100
AcDbLine
 10
59.879524
 20
20.235453
 30
0.0
 11
59.795442
 21
20.319538
 31
0.0
  0
LINE
  5
1a0
100
AcDbEntity
  8
0
 62
7
100
AcDbLine
 10
59.795442
 20
20.319538
 30
0.0
 11
59.669312
 21
20.571793
 31
0.0
  0
LINE
  5
1a1
100
AcDbEntity
  8
0
 62
7
100
AcDbLine
 10
59.669312
 20
20.571793
 30
0.0
 11
59.501143
 21
21.748985
 31
0.0
  0
LINE
  5
1a2
100
AcDbEntity
  8
0
 62
7
100
AcDbLine
 10
59.501143
 20
21.748985
 30
0.0
 11
59.164802
 21
22.884134
 31
0.0
  0
LINE
  5
1a3
100
AcDbEntity
  8
0
 62
7
100
AcDbLine
 10
59.164802
 20
22.884134
 30
0.0
 11
59.122760
 21
23.178432
 31
0.0
  0
LINE
  5
1a4
100
AcDbEntity
  8
0
 62
7
100
AcDbLine
 10
59.122760
 20
23.178432
 30
0.0
 11
59.164802
 21
23.262517
 31
0.0
  0
LINE
  5
1a5
100
AcDbEntity
  8
0
 62
7
100
AcDbLine
 10
59.164802
 20
23.262517
 30
0.0
 11
59.206844
 21
23.388644
 31
0.0
  0
LINE
  5
1a6
100
AcDbEntity
  8
0
 62
7
100
AcDbLine
 10
59.206844
 20
23.388644
 30
0.0
 11
59.290929
 21
23.472729
 31
0.0
  0
LINE
  5
1a7
100
AcDbEntity
  8
0
 62
7
100
AcDbLine
 10
59.290929
 20
23.472729
 30
0.0
 11
59.332971
 21
23.514772
 31
0.0
  0
LINE
  5
1a8
100
AcDbEntity
  8
0
 62
7
100
AcDbLine
 10
59.332971
 20
23.514772
 30
0.0
 11
59.375014
 21
23.598857
 31
0.0
  0
LINE
  5
1a9
100
AcDbEntity
  8
0
 62
7
100
AcDbLine
 10
59.375014
 20
23.598857
 30
0.0
 11
59.501143
 21
23.682942
 31
0.0
  0
LINE
  5
1aa
100
AcDbEntity
  8
0
 62
7
100
AcDbLine
 10
59.501143
 20
23.682942
 30
0.0
 11
59.627270
 21
23.809070
 31
0.0
  0
LINE
  5
1ab
100
AcDbEntity
  8
0
 62
7
100
AcDbLine
 10
59.627270
 20
23.809070
 30
0.0
 11
59.753399
 21
23.893155
 31
0.0
  0
LINE
  5
1ac
100
AcDbEntity
  8
0
 62
7
100
AcDbLine
 10
59.753399
 20
23.893155
 30
0.0
 11
60.047696
 21
24.019283
 31
0.0
  0
LINE
  5
1ad
100
AcDbEntity
  8
0
 62
7
100
AcDbLine
 10
60.047696
 20
24.019283
 30
0.0
 11
60.341994
 21
24.145410
 31
0.0
  0
LINE
  5
1ae
100
AcDbEntity
  8
0
 62
7
100
AcDbLine
 10
60.341994
 20
24.145410
 30
0.0
 11
60.636293
 21
24.229495
 31
0.0
  0
LINE
  5
1af
100
AcDbEntity
  8
0
 62
7
100
AcDbLine
 10
60.636293
 20
24.229495
 30
0.0
 11
60.888547
 21
24.439708
 31
0.0
  0
LINE
  5
1b0
100
AcDbEntity
  8
0
 62
7
100
AcDbLine
 10
60.888547
 20
24.439708
 30
0.0
 11
61.140803
 21
24.649921
 31
0.0
  0
LINE
  5
1b1
100
AcDbEntity
  8
0
 62
7
100
AcDbLine
 10
61.140803
 20
24.649921
 30
0.0
 11
61.351014
 21
24.902176
 31
0.0
  0
LINE
  5
1b2
100
AcDbEntity
  8
0
 62
7
100
AcDbLine
 10
61.351014
 20
24.902176
 30
0.0
 11
61.561226
 21
25.196475
 31
0.0
  0
LINE
  5
1b3
100
AcDbEntity
  8
0
 62
7
100
AcDbLine
 10
61.561226
 20
25.196475
 30
0.0
 11
61.771440
 21
25.490772
 31
0.0
  0
LINE
  5
1b4
100
AcDbEntity
  8
0
 62
7
100
AcDbLine
 10
61.771440
 20
25.490772
 30
0.0
 11
61.939609
 21
25.827113
 31
0.0
  0
LINE
  5
1b5
100
AcDbEntity
  8
0
 62
7
100
AcDbLine
 10
61.939609
 20
25.827113
 30
0.0
 11
62.107781
 21
26.163453
 31
0.0
  0
LINE
  5
1b6
100
AcDbEntity
  8
0
 62
7
100
AcDbLine
 10
62.107781
 20
26.163453
 30
0.0
 11
62.275950
 21
26.541836
 31
0.0
  0
LINE
  5
1b7
100
AcDbEntity
  8
0
 62
7
100
AcDbLine
 10
62.275950
 20
26.541836
 30
0.0
 11
62.402077
 21
26.920219
 31
0.0
  0
LINE
  5
1b8
100
AcDbEntity
  8
0
 62
7
100
AcDbLine
 10
62.402077
 20
26.920219
 30
0.0
 11
61.603268
 21
28.055368
 31
0.0
  0
LINE
  5
1b9
100
AcDbEntity
  8
0
 62
7
100
AcDbLine
 10
61.603268
 20
28.055368
 30
0.0
 11
60.678333
 21
29.106432
 31
0.0
  0
LINE
  5
1ba
100
AcDbEntity
  8
0
 62
7
100
AcDbLine
 10
60.678333
 20
29.106432
 30
0.0
 11
60.257907
 21
29.064389
 31
0.0
  0
LINE
  5
1bb
100
AcDbEntity
  8
0
 62
7
100
AcDbLine
 10
60.257907
 20
29.064389
 30
0.0
 11
59.879524
 21
28.980304
 31
0.0
  0
LINE
  5
1bc
100
AcDbEntity
  8
0
 62
7
100
AcDbLine
 10
59.879524
 20
28.980304
 30
0.0
 11
59.501143
 21
28.896219
 31
0.0
  0
LINE
  5
1bd
100
AcDbEntity
  8
0
 62
7
100
AcDbLine
 10
59.501143
 20
28.896219
 30
0.0
 11
59.164802
 21
28.812134
 31
0.0
  0
LINE
  5
1be
100
AcDbEntity
  8
0
 62
7
100
AcDbLine
 10
59.164802
 20
28.812134
 30
0.0
 11
58.828461
 21
28.686006
 31
0.0
  0
LINE
  5
1bf
100
AcDbEntity
  8
0
 62
7
100
AcDbLine
 10
58.828461
 20
28.686006
 30
0.0
 11
58.492120
 21
28.517836
 31
0.0
  0
LINE
  5
1c0
100
AcDbEntity
  8
0
 62
7
100
AcDbLine
 10
58.492120
 20
28.517836
 30
0.0
 11
58.197821
 21
28.391709
 31
0.0
  0
LINE
  5
1c1
100
AcDbEntity
  8
0
 62
7
100
AcDbLine
 10
58.197821
 20
28.391709
 30
0.0
 11
57.903523
 21
28.181496
 31
0.0
  0
LINE
  5
1c2
100
AcDbEntity
  8
0
 62
7
100
AcDbLine
 10
57.903523
 20
28.181496
 30
0.0
 11
57.651269
 21
28.013326
 31
0.0
  0
LINE
  5
1c3
100
AcDbEntity
  8
0
 62
7
100
AcDbLine
 10
57.651269
 20
28.013326
 30
0.0
 11
57.483100
 21
27.719028
 31
0.0
  0
LINE
  5
1c4
100
AcDbEntity
  8
0
 62
7
100
AcDbLine
 10
57.483100
 20
27.719028
 30
0.0
 11
57.314928
 21
27.466772
 31
0.0
  0
LINE
  5
1c5
100
AcDbEntity
  8
0
 62
7
100
AcDbLine
 10
57.314928
 20
27.466772
 30
0.0
 11
57.104717
 21
27.214517
 31
0.0
  0
LINE
  5
1c6
100
AcDbEntity
  8
0
 62
7
100
AcDbLine
 10
57.104717
 20
27.214517
 30
0.0
 11
57.020632
 21
27.088389
 31
0.0
  0
LINE
  5
1c7
100
AcDbEntity
  8
0
 62
7
100
AcDbLine
 10
57.020632
 20
27.088389
 30
0.0
 11
56.894502
 21
27.004304
 31
0.0
  0
LINE
  5
1c8
100
AcDbEntity
  8
0
 62
7
100
AcDbLine
 10
56.894502
 20
27.004304
 30
0.0
 11
56.726333
 21
26.878177
 31
0.0
  0
LINE
  5
1c9
100
AcDbEntity
  8
0
 62
7
100
AcDbLine
 10
56.726333
 20
26.878177
 30
0.0
 11
56.684291
 21
26.836134
 31
0.0
  0
LINE
  5
1ca
100
AcDbEntity
  8
0
 62
7
100
AcDbLine
 10
56.684291
 20
26.836134
 30
0.0
 11
56.600206
 21
26.794091
 31
0.0
  0
LINE
  5
1cb
100
AcDbEntity
  8
0
 62
7
100
AcDbLine
 10
56.600206
 20
26.794091
 30
0.0
 11
56.516119
 21
26.794091
 31
0.0
  0
LINE
  5
1cc
100
AcDbEntity
  8
0
 62
7
100
AcDbLine
 10
56.516119
 20
26.794091
 30
0.0
 11
56.389995
 21
26.752049
 31
0.0
  0
LINE
  5
1cd
100
AcDbEntity
  8
0
 62
7
100
AcDbLine
 10
56.389995
 20
26.752049
 30
0.0
 11
56.263865
 21
26.752049
 31
0.0
  0
LINE
  5
1ce
100
AcDbEntity
  8
0
 62
7
100
AcDbLine
 10
56.263865
 20
26.752049
 30
0.0
 11
56.011609
 21
26.836134
 31
0.0
  0
LINE
  5
1cf
100
AcDbEntity
  8
0
 62
7
100
AcDbLine
 10
56.011609
 20
26.836134
 30
0.0
 11
55.002589
 21
27.424730
 31
0.0
  0
LINE
  5
1d0
100
AcDbEntity
  8
0
 62
7
100
AcDbLine
 10
55.002589
 20
27.424730
 30
0.0
 11
53.867439
 21
27.845155
 31
0.0
  0
LINE
  5
1d1
100
AcDbEntity
  8
0
 62
7
100
AcDbLine
 10
53.867439
 20
27.845155
 30
0.0
 11
53.657227
 21
28.013326
 31
0.0
  0
LINE
  5
1d2
100
AcDbEntity
  8
0
 62
7
100
AcDbLine
 10
53.657227
 20
28.013326
 30
0.0
 11
53.573143
 21
28.097411
 31
0.0
  0
LINE
  5
1d3
100
AcDbEntity
  8
0
 62
7
100
AcDbLine
 10
53.573143
 20
28.097411
 30
0.0
 11
53.531098
 21
28.223538
 31
0.0
  0
LINE
  5
1d4
100
AcDbEntity
  8
0
 62
7
100
AcDbLine
 10
53.531098
 20
28.223538
 30
0.0
 11
53.531098
 21
28.307623
 31
0.0
  0
LINE
  5
1d5
100
AcDbEntity
  8
0
 62
7
100
AcDbLine
 10
53.531098
 20
28.307623
 30
0.0
 11
53.489056
 21
28.391709
 31
0.0
  0
LINE
  5
1d6
100
AcDbEntity
  8
0
 62
7
100
AcDbLine
 10
53.489056
 20
28.391709
 30
0.0
 11
53.489056
 21
28.475794
 31
0.0
  0
LINE
  5
1d7
100
AcDbEntity
  8
0
 62
7
100
AcDbLine
 10
53.489056
 20
28.475794
 30
0.0
 11
53.489056
 21
28.643964
 31
0.0
  0
LINE
  5
1d8
100
AcDbEntity
  8
0
 62
7
100
AcDbLine
 10
53.489056
 20
28.643964
 30
0.0
 11
53.489056
 21
28.770092
 31
0.0
  0
LINE
  5
1d9
100
AcDbEntity
  8
0
 62
7
100
AcDbLine
 10
53.489056
 20
28.770092
 30
0.0
 11
53.489056
 21
28.938262
 31
0.0
  0
LINE
  5
1da
100
AcDbEntity
  8
0
 62
7
100
AcDbLine
 10
53.489056
 20
28.938262
 30
0.0
 11
53.573143
 21
29.274602
 31
0.0
  0
LINE
  5
1db
100
AcDbEntity
  8
0
 62
7
100
AcDbLine
 10
53.573143
 20
29.274602
 30
0.0
 11
53.657227
 21
29.568901
 31
0.0
  0
LINE
  5
1dc
100
AcDbEntity
  8
0
 62
7
100
AcDbLine
 10
53.657227
 20
29.568901
 30
0.0
 11
53.783354
 21
29.863197
 31
0.0
  0
LINE
  5
1dd
100
AcDbEntity
  8
0
 62
7
100
AcDbLine
 10
53.783354
 20
29.863197
 30
0.0
 11
53.783354
 21
30.157495
 31
0.0
  0
LINE
  5
1de
100
AcDbEntity
  8
0
 62
7
100
AcDbLine
 10
53.783354
 20
30.157495
 30
0.0
 11
53.741312
 21
30.493836
 31
0.0
  0
LINE
  5
1df
100
AcDbEntity
  8
0
 62
7
100
AcDbLine
 10
53.741312
 20
30.493836
 30
0.0
 11
53.699270
 21
30.830176
 31
0.0
  0
LINE
  5
1e0
100
AcDbEntity
  8
0
 62
7
100
AcDbLine
 10
53.699270
 20
30.830176
 30
0.0
 11
53.573143
 21
31.166517
 31
0.0
  0
LINE
  5
1e1
100
AcDbEntity
  8
0
 62
7
100
AcDbLine
 10
53.573143
 20
31.166517
 30
0.0
 11
53.447013
 21
31.544899
 31
0.0
  0
LINE
  5
1e2
100
AcDbEntity
  8
0
 62
7
100
AcDbLine
 10
53.447013
 20
31.544899
 30
0.0
 11
53.320887
 21
31.881240
 31
0.0
  0
LINE
  5
1e3
100
AcDbEntity
  8
0
 62
7
100
AcDbLine
 10
53.320887
 20
31.881240
 30
0.0
 11
53.152715
 21
32.217580
 31
0.0
  0
LINE
  5
1e4
100
AcDbEntity
  8
0
 62
7
100
AcDbLine
 10
53.152715
 20
32.217580
 30
0.0
 11
52.984546
 21
32.553921
 31
0.0
  0
LINE
  5
1e5
100
AcDbEntity
  8
0
 62
7
100
AcDbLine
 10
52.984546
 20
32.553921
 30
0.0
 11
52.774334
 21
32.890261
 31
0.0
  0
LINE
  5
1e6
100
AcDbEntity
  8
0
 62
7
100
AcDbLine
 10
52.774334
 20
32.890261
 30
0.0
 11
51.386931
 21
32.974347
 31
0.0
  0
LINE
  5
1e7
100
AcDbEntity
  8
0
 62
7
100
AcDbLine
 10
51.386931
 20
32.974347
 30
0.0
 11
49.999527
 21
32.890261
 31
0.0
  0
LINE
  5
1e8
100
AcDbEntity
  8
0
 62
7
100
AcDbLine
 10
49.999527
 20
32.890261
 30
0.0
 11
49.789310
 21
32.553921
 31
0.0
  0
LINE
  5
1e9
100
AcDbEntity
  8
0
 62
7
100
AcDbLine
 10
49.789310
 20
32.553921
 30
0.0
 11
49.579099
 21
32.217580
 31
0.0
  0
LINE
  5
1ea
100
AcDbEntity
  8
0
 62
7
100
AcDbLine
 10
49.579099
 20
32.217580
 30
0.0
 11
49.410930
 21
31.881240
 31
0.0
  0
LINE
  5
1eb
100
AcDbEntity
  8
0
 62
7
100
AcDbLine
 10
49.410930
 20
31.881240
 30
0.0
 11
49.284800
 21
31.544899
 31
0.0
  0
LINE
  5
1ec
100
AcDbEntity
  8
0
 62
7
100
AcDbLine
 10
49.284800
 20
31.544899
 30
0.0
 11
49.158673
 21
31.166517
 31
0.0
  0
LINE
  5
1ed
100
AcDbEntity
  8
0
 62
7
100
AcDbLine
 10
49.158673
 20
31.166517
 30
0.0
 11
49.074589
 21
30.830176
 31
0.0
  0
LINE
  5
1ee
100
AcDbEntity
  8
0
 62
7
100
AcDbLine
 10
49.074589
 20
30.830176
 30
0.0
 11
48.990504
 21
30.493836
 31
0.0
  0
LINE
  5
1ef
100
AcDbEntity
  8
0
 62
7
100
AcDbLine
 10
48.990504
 20
30.493836
 30
0.0
 11
48.948459
 21
30.157495
 31
0.0
  0
LINE
  5
1f0
100
AcDbEntity
  8
0
 62
7
100
AcDbLine
 10
48.948459
 20
30.157495
 30
0.0
 11
48.948459
 21
29.863197
 31
0.0
  0
LINE
  5
1f1
100
AcDbEntity
  8
0
 62
7
100
AcDbLine
 10
48.948459
 20
29.863197
 30
0.0
 11
49.074589
 21
29.568901
 31
0.0
  0
LINE
  5
1f2
100
AcDbEntity
  8
0
 62
7
100
AcDbLine
 10
49.074589
 20
29.568901
 30
0.0
 11
49.158673
 21
29.274602
 31
0.0
  0
LINE
  5
1f3
100
AcDbEntity
  8
0
 62
7
100
AcDbLine
 10
49.158673
 20
29.274602
 30
0.0
 11
49.242758
 21
28.938262
 31
0.0
  0
LINE
  5
1f4
100
AcDbEntity
  8
0
 62
7
100
AcDbLine
 10
49.242758
 20
28.938262
 30
0.0
 11
49.242758
 21
28.770092
 31
0.0
  0
LINE
  5
1f5
100
AcDbEntity
  8
0
 62
7
100
AcDbLine
 10
49.242758
 20
28.770092
 30
0.0
 11
49.284800
 21
28.643964
 31
0.0
  0
LINE
  5
1f6
100
AcDbEntity
  8
0
 62
7
100
AcDbLine
 10
49.284800
 20
28.643964
 30
0.0
 11
49.242758
 21
28.475794
 31
0.0
  0
LINE
  5
1f7
100
AcDbEntity
  8
0
 62
7
100
AcDbLine
 10
49.242758
 20
28.475794
 30
0.0
 11
49.242758
 21
28.391709
 31
0.0
  0
LINE
  5
1f8
100
AcDbEntity
  8
0
 62
7
100
AcDbLine
 10
49.242758
 20
28.391709
 30
0.0
 11
49.200715
 21
28.307623
 31
0.0
  0
LINE
  5
1f9
100
AcDbEntity
  8
0
 62
7
100
AcDbLine
 10
49.200715
 20
28.307623
 30
0.0
 11
49.200715
 21
28.223538
 31
0.0
  0
LINE
  5
1fa
100
AcDbEntity
  8
0
 62
7
100
AcDbLine
 10
49.200715
 20
28.223538
 30
0.0
 11
49.158673
 21
28.097411
 31
0.0
  0
LINE
  5
1fb
100
AcDbEntity
  8
0
 62
7
100
AcDbLine
 10
49.158673
 20
28.097411
 30
0.0
 11
49.074589
 21
28.013326
 31
0.0
  0
LINE
  5
1fc
100
AcDbEntity
  8
0
 62
7
100
AcDbLine
 10
49.074589
 20
28.013326
 30
0.0
 11
48.864377
 21
27.845155
 31
0.0
  0
LINE
  5
1fd
100
AcDbEntity
  8
0
 62
7
100
AcDbLine
 10
48.864377
 20
27.845155
 30
0.0
 11
47.729227
 21
27.424730
 31
0.0
  0
LINE
  5
1fe
100
AcDbEntity
  8
0
 62
7
100
AcDbLine
 10
47.729227
 20
27.424730
 30
0.0
 11
46.720204
 21
26.836134
 31
0.0
  0
LINE
  5
1ff
100
AcDbEntity
  8
0
 62
7
100
AcDbLine
 10
46.720204
 20
26.836134
 30
0.0
 11
46.467948
 21
26.752049
 31
0.0
  0
LINE
  5
200
100
AcDbEntity
  8
0
 62
7
100
AcDbLine
 10
46.467948
 20
26.752049
 30
0.0
 11
46.341824
 21
26.752049
 31
0.0
  0
LINE
  5
201
100
AcDbEntity
  8
0
 62
7
100
AcDbLine
 10
46.341824
 20
26.752049
 30
0.0
 11
46.215694
 21
26.794091
 31
0.0
  0
LINE
  5
202
100
AcDbEntity
  8
0
 62
7
100
AcDbLine
 10
46.215694
 20
26.794091
 30
0.0
 11
46.131610
 21
26.794091
 31
0.0
  0
LINE
  5
203
100
AcDbEntity
  8
0
 62
7
100
AcDbLine
 10
46.131610
 20
26.794091
 30
0.0
 11
46.047525
 21
26.836134
 31
0.0
  0
LINE
  5
204
100
AcDbEntity
  8
0
 62
7
100
AcDbLine
 10
46.047525
 20
26.836134
 30
0.0
 11
46.005483
 21
26.878177
 31
0.0
  0
LINE
  5
205
100
AcDbEntity
  8
0
 62
7
100
AcDbLine
 10
46.005483
 20
26.878177
 30
0.0
 11
45.837311
 21
27.004304
 31
0.0
  0
LINE
  5
206
100
AcDbEntity
  8
0
 62
7
100
AcDbLine
 10
45.837311
 20
27.004304
 30
0.0
 11
45.711184
 21
27.088389
 31
0.0
  0
LINE
  5
207
100
AcDbEntity
  8
0
 62
7
100
AcDbLine
 10
45.711184
 20
27.088389
 30
0.0
 11
45.627099
 21
27.214517
 31
0.0
  0
LINE
  5
208
100
AcDbEntity
  8
0
 62
7
100
AcDbLine
 10
45.627099
 20
27.214517
 30
0.0
 11
45.416885
 21
27.466772
 31
0.0
  0
LINE
  5
209
100
AcDbEntity
  8
0
 62
7
100
AcDbLine
 10
45.416885
 20
27.466772
 30
0.0
 11
45.248716
 21
27.719028
 31
0.0
  0
LINE
  5
20a
100
AcDbEntity
  8
0
 62
7
100
AcDbLine
 10
45.248716
 20
27.719028
 30
0.0
 11
45.080544
 21
28.013326
 31
0.0
  0
LINE
  5
20b
100
AcDbEntity
  8
0
 62
7
100
AcDbLine
 10
45.080544
 20
28.013326
 30
0.0
 11
44.828291
 21
28.181496
 31
0.0
  0
LINE
  5
20c
100
AcDbEntity
  8
0
 62
7
100
AcDbLine
 10
44.828291
 20
28.181496
 30
0.0
 11
44.576034
 21
28.391709
 31
0.0
  0
LINE
  5
20d
100
AcDbEntity
  8
0
 62
7
100
AcDbLine
 10
44.576034
 20
28.391709
 30
0.0
 11
44.239693
 21
28.517836
 31
0.0
  0
LINE
  5
20e
100
AcDbEntity
  8
0
 62
7
100
AcDbLine
 10
44.239693
 20
28.517836
 30
0.0
 11
43.945397
 21
28.686006
 31
0.0
  0
LINE
  5
20f
100
AcDbEntity
  8
0
 62
7
100
AcDbLine
 10
43.945397
 20
28.686006
 30
0.0
 11
43.567014
 21
28.812134
 31
0.0
  0
LINE
  5
210
100
AcDbEntity
  8
0
 62
7
100
AcDbLine
 10
43.567014
 20
28.812134
 30
0.0
 11
43.230673
 21
28.896219
 31
0.0
  0
LINE
  5
211
100
AcDbEntity
  8
0
 62
7
100
AcDbLine
 10
43.230673
 20
28.896219
 30
0.0
 11
42.852290
 21
28.980304
 31
0.0
  0
LINE
  5
212
100
AcDbEntity
  8
0
 62
7
100
AcDbLine
 10
42.852290
 20
28.980304
 30
0.0
 11
42.473906
 21
29.064389
 31
0.0
  0
LINE
  5
213
100
AcDbEntity
  8
0
 62
7
100
AcDbLine
 10
42.473906
 20
29.064389
 30
0.0
 11
42.053481
 21
29.106432
 31
0.0
  0
LINE
  5
214
100
AcDbEntity
  8
0
 62
7
100
AcDbLine
 10
42.053481
 20
29.106432
 30
0.0
 11
41.128545
 21
28.055368
 31
0.0
  0
LINE
  5
215
100
AcDbEntity
  8
0
 62
7
100
AcDbLine
 10
41.128545
 20
28.055368
 30
0.0
 11
40.329736
 21
26.920219
 31
0.0
  0
LINE
  5
216
100
AcDbEntity
  8
0
 62
7
100
AcDbLine
 10
40.329736
 20
26.920219
 30
0.0
 11
40.455866
 21
26.541836
 31
0.0
  0
LINE
  5
217
100
AcDbEntity
  8
0
 62
7
100
AcDbLine
 10
40.455866
 20
26.541836
 30
0.0
 11
40.624035
 21
26.163453
 31
0.0
  0
LINE
  5
218
100
AcDbEntity
  8
0
 62
7
100
AcDbLine
 10
40.624035
 20
26.163453
 30
0.0
 11
40.792204
 21
25.827113
 31
0.0
  0
LINE
  5
219
100
AcDbEntity
  8
0
 62
7
100
AcDbLine
 10
40.792204
 20
25.827113
 30
0.0
 11
40.960376
 21
25.490772
 31
0.0
  0
LINE
  5
21a
100
AcDbEntity
  8
0
 62
7
100
AcDbLine
 10
40.960376
 20
25.490772
 30
0.0
 11
41.170587
 21
25.196475
 31
0.0
  0
LINE
  5
21b
100
AcDbEntity
  8
0
 62
7
100
AcDbLine
 10
41.170587
 20
25.196475
 30
0.0
 11
41.380799
 21
24.902176
 31
0.0
  0
LINE
  5
21c
100
AcDbEntity
  8
0
 62
7
100
AcDbLine
 10
41.380799
 20
24.902176
 30
0.0
 11
41.591016
 21
24.649921
 31
0.0
  0
LINE
  5
21d
100
AcDbEntity
  8
0
 62
7
100
AcDbLine
 10
41.591016
 20
24.649921
 30
0.0
 11
41.843269
 21
24.439708
 31
0.0
  0
LINE
  5
21e
100
AcDbEntity
  8
0
 62
7
100
AcDbLine
 10
41.843269
 20
24.439708
 30
0.0
 11
42.095523
 21
24.229495
 31
0.0
  0
LINE
  5
21f
100
AcDbEntity
  8
0
 62
7
100
AcDbLine
 10
42.095523
 20
24.229495
 30
0.0
 11
42.389822
 21
24.145410
 31
0.0
  0
LINE
  5
220
100
AcDbEntity
  8
0
 62
7
100
AcDbLine
 10
42.389822
 20
24.145410
 30
0.0
 11
42.684121
 21
24.019283
 31
0.0
  0
LINE
  5
221
100
AcDbEntity
  8
0
 62
7
100
AcDbLine
 10
42.684121
 20
24.019283
 30
0.0
 11
42.978419
 21
23.893155
 31
0.0
  0
LINE
  5
222
100
AcDbEntity
  8
0
 62
7
100
AcDbLine
 10
42.978419
 20
23.893155
 30
0.0
 11
43.104543
 21
23.809070
 31
0.0
  0
LINE
  5
223
100
AcDbEntity
  8
0
 62
7
100
AcDbLine
 10
43.104543
 20
23.809070
 30
0.0
 11
43.230673
 21
23.682942
 31
0.0
  0
LINE
  5
224
100
AcDbEntity
  8
0
 62
7
100
AcDbLine
 10
43.230673
 20
23.682942
 30
0.0
 11
43.356800
 21
23.598857
 31
0.0
  0
LINE
  5
225
100
AcDbEntity
  8
0
 62
7
100
AcDbLine
 10
43.356800
 20
23.598857
 30
0.0
 11
43.398842
 21
23.514772
 31
0.0
  0
LINE
  5
226
100
AcDbEntity
  8
0
 62
7
100
AcDbLine
 10
43.398842
 20
23.514772
 30
0.0
 11
43.482929
 21
23.472729
 31
0.0
  0
LINE
  5
227
100
AcDbEntity
  8
0
 62
7
100
AcDbLine
 10
43.482929
 20
23.472729
 30
0.0
 11
43.524972
 21
23.388644
 31
0.0
  0
LINE
  5
228
100
AcDbEntity
  8
0
 62
7
100
AcDbLine
 10
43.524972
 20
23.388644
 30
0.0
 11
43.567014
 21
23.262517
 31
0.0
  0
LINE
  5
229
100
AcDbEntity
  8
0
 62
7
100
AcDbLine
 10
43.567014
 20
23.262517
 30
0.0
 11
43.609056
 21
23.178432
 31
0.0
  0
LINE
  5
22a
100
AcDbEntity
  8
0
 62
7
100
AcDbLine
 10
43.609056
 20
23.178432
 30
0.0
 11
43.567014
 21
22.884134
 31
0.0
  0
LINE
  5
22b
100
AcDbEntity
  8
0
 62
7
100
AcDbLine
 10
43.567014
 20
22.884134
 30
0.0
 11
43.230673
 21
21.748985
 31
0.0
  0
LINE
  5
22c
100
AcDbEntity
  8
0
 62
7
100
AcDbLine
 10
43.230673
 20
21.748985
 30
0.0
 11
43.062501
 21
20.571793
 31
0.0
  0
LINE
  5
22d
100
AcDbEntity
  8
0
 62
7
100
AcDbLine
 10
43.062501
 20
20.571793
 30
0.0
 11
42.936377
 21
20.319538
 31
0.0
  0
LINE
  5
22e
100
AcDbEntity
  8
0
 62
7
100
AcDbLine
 10
42.936377
 20
20.319538
 30
0.0
 11
42.852290
 21
20.235453
 31
0.0
  0
LINE
  5
22f
100
AcDbEntity
  8
0
 62
7
100
AcDbLine
 10
42.852290
 20
20.235453
 30
0.0
 11
42.768205
 21
20.193410
 31
0.0
  0
LINE
  5
230
100
AcDbEntity
  8
0
 62
7
100
AcDbLine
 10
42.768205
 20
20.193410
 30
0.0
 11
42.726163
 21
20.109325
 31
0.0
  0
LINE
  5
231
100
AcDbEntity
  8
0
 62
7
100
AcDbLine
 10
42.726163
 20
20.109325
 30
0.0
 11
42.642078
 21
20.067282
 31
0.0
  0
LINE
  5
232
100
AcDbEntity
  8
0
 62
7
100
AcDbLine
 10
42.642078
 20
20.067282
 30
0.0
 11
42.557991
 21
20.067282
 31
0.0
  0
LINE
  5
233
100
AcDbEntity
  8
0
 62
7
100
AcDbLine
 10
42.557991
 20
20.067282
 30
0.0
 11
42.389822
 21
20.025240
 31
0.0
  0
LINE
  5
234
100
AcDbEntity
  8
0
 62
7
100
AcDbLine
 10
42.389822
 20
20.025240
 30
0.0
 11
42.221650
 21
19.983198
 31
0.0
  0
LINE
  5
235
100
AcDbEntity
  8
0
 62
7
100
AcDbLine
 10
42.221650
 20
19.983198
 30
0.0
 11
42.095523
 21
19.941155
 31
0.0
  0
LINE
  5
236
100
AcDbEntity
  8
0
 62
7
100
AcDbLine
 10
42.095523
 20
19.941155
 30
0.0
 11
41.759182
 21
19.941155
 31
0.0
  0
LINE
  5
237
100
AcDbEntity
  8
0
 62
7
100
AcDbLine
 10
41.759182
 20
19.941155
 30
0.0
 11
41.422841
 21
19.983198
 31
0.0
  0
LINE
  5
238
100
AcDbEntity
  8
0
 62
7
100
AcDbLine
 10
41.422841
 20
19.983198
 30
0.0
 11
41.128545
 21
20.025240
 31
0.0
  0
LINE
  5
239
100
AcDbEntity
  8
0
 62
7
100
AcDbLine
 10
41.128545
 20
20.025240
 30
0.0
 11
40.792204
 21
19.983198
 31
0.0
  0
LINE
  5
23a
100
AcDbEntity
  8
0
 62
7
100
AcDbLine
 10
40.792204
 20
19.983198
 30
0.0
 11
40.497908
 21
19.857070
 31
0.0
  0
LINE
  5
23b
100
AcDbEntity
  8
0
 62
7
100
AcDbLine
 10
40.497908
 20
19.857070
 30
0.0
 11
40.203609
 21
19.730942
 31
0.0
  0
LINE
  5
23c
100
AcDbEntity
  8
0
 62
7
100
AcDbLine
 10
40.203609
 20
19.730942
 30
0.0
 11
39.867269
 21
19.562772
 31
0.0
  0
LINE
  5
23d
100
AcDbEntity
  8
0
 62
7
100
AcDbLine
 10
39.867269
 20
19.562772
 30
0.0
 11
39.572972
 21
19.352559
 31
0.0
  0
LINE
  5
23e
100
AcDbEntity
  8
0
 62
7
100
AcDbLine
 10
39.572972
 20
19.352559
 30
0.0
 11
39.278674
 21
19.142346
 31
0.0
  0
LINE
  5
23f
100
AcDbEntity
  8
0
 62
7
100
AcDbLine
 10
39.278674
 20
19.142346
 30
0.0
 11
38.942333
 21
18.890091
 31
0.0
  0
LINE
  5
240
100
AcDbEntity
  8
0
 62
7
100
AcDbLine
 10
38.942333
 20
18.890091
 30
0.0
 11
38.648034
 21
18.637836
 31
0.0
  0
LINE
  5
241
100
AcDbEntity
  8
0
 62
7
100
AcDbLine
 10
38.648034
 20
18.637836
 30
0.0
 11
38.395778
 21
18.343538
 31
0.0
  0
SPLINE
  5
242
100
AcDbEntity
  8
0
 62
7
100
AcDbSpline
 70
8
 71
3
 72
8
 73
4
 74
0
 40
0
 40
0
 40
0
 40
0
 40
1
 40
1
 40
1
 40
1
 10
48.696205
 20
19.646857
 30
0.0
 10
48.692262
 20
19.730896
 30
0.0
 10
48.692262
 20
19.815073
 30
0.0
 10
48.696205
 20
19.899112
 30
0.0
  0
SPLINE
  5
243
100
AcDbEntity
  8
0
 62
7
100
AcDbSpline
 70
8
 71
3
 72
8
 73
4
 74
0
 40
0
 40
0
 40
0
 40
0
 40
1
 40
1
 40
1
 40
1
 10
48.696205
 20
19.899112
 30
0.0
 10
48.696205
 20
20.612737
 30
0.0
 10
48.979692
 20
21.297133
 30
0.0
 10
49.484301
 20
21.801742
 30
0.0
  0
SPLINE
  5
244
100
AcDbEntity
  8
0
 62
7
100
AcDbSpline
 70
8
 71
3
 72
8
 73
4
 74
0
 40
0
 40
0
 40
0
 40
0
 40
1
 40
1
 40
1
 40
1
 10
49.484301
 20
21.801742
 30
0.0
 10
49.988909
 20
22.306350
 30
0.0
 10
50.673306
 20
22.589836
 30
0.0
 10
51.386931
 20
22.589836
 30
0.0
  0
SPLINE
  5
245
100
AcDbEntity
  8
0
 62
7
100
AcDbSpline
 70
8
 71
3
 72
8
 73
4
 74
0
 40
0
 40
0
 40
0
 40
0
 40
1
 40
1
 40
1
 40
1
 10
51.386931
 20
22.589836
 30
0.0
 10
52.872976
 20
22.589835
 30
0.0
 10
54.077653
 20
21.385157
 30
0.0
 10
54.077653
 20
19.899112
 30
0.0
  0
SPLINE
  5
246
100
AcDbEntity
  8
0
 62
7
100
AcDbSpline
 70
8
 71
3
 72
8
 73
4
 74
0
 40
0
 40
0
 40
0
 40
0
 40
1
 40
1
 40
1
 40
1
 10
54.077653
 20
19.899112
 30
0.0
 10
54.077653
 20
18.413067
 30
0.0
 10
52.872976
 20
17.208389
 30
0.0
 10
51.386931
 20
17.208389
 30
0.0
  0
SPLINE
  5
247
100
AcDbEntity
  8
0
 62
7
100
AcDbSpline
 70
8
 71
3
 72
8
 73
4
 74
0
 40
0
 40
0
 40
0
 40
0
 40
1
 40
1
 40
1
 40
1
 10
51.386931
 20
17.208389
 30
0.0
 10
49.994069
 20
17.202254
 30
0.0
 10
48.826774
 20
18.260116
 30
0.0
 10
48.696205
 20
19.646857
 30
0.0
  0
LINE
  5
248
100
AcDbEntity
  8
0
 62
7
100
AcDbLine
 10
48.696205
 20
19.646857
 30
0.0
 11
48.696205
 21
19.646857
 31
0.0
  0
LINE
  5
249
100
AcDbEntity
  8
0
 62
7
100
AcDbLine
 10
14.297417
 20
32.980644
 30
0.0
 11
16.020123
 21
28.247984
 31
0.0
  0
LINE
  5
24a
100
AcDbEntity
  8
0
 62
7
100
AcDbLine
 10
11.154221
 20
32.980644
 30
0.0
 11
14.297417
 21
32.980644
 31
0.0
  0
LINE
  5
24b
100
AcDbEntity
  8
0
 62
7
100
AcDbLine
 10
9.431515
 20
28.247984
 30
0.0
 11
11.154221
 21
32.980644
 31
0.0
  0
LINE
  5
24c
100
AcDbEntity
  8
0
 62
7
100
AcDbLine
 10
6.359354
 20
28.247984
 30
0.0
 11
9.431515
 21
28.247984
 31
0.0
  0
LINE
  5
24d
100
AcDbEntity
  8
0
 62
7
100
AcDbLine
 10
23.958191
 20
32.980644
 30
0.0
 11
25.680684
 21
28.247984
 31
0.0
  0
LINE
  5
24e
100
AcDbEntity
  8
0
 62
7
100
AcDbLine
 10
20.814997
 20
32.980644
 30
0.0
 11
23.958191
 21
32.980644
 31
0.0
  0
LINE
  5
24f
100
AcDbEntity
  8
0
 62
7
100
AcDbLine
 10
19.092284
 20
28.247984
 30
0.0
 11
20.814997
 21
32.980644
 31
0.0
  0
LINE
  5
250
100
AcDbEntity
  8
0
 62
7
100
AcDbLine
 10
16.020123
 20
28.247984
 30
0.0
 11
19.092284
 21
28.247984
 31
0.0
  0
LINE
  5
251
100
AcDbEntity
  8
0
 62
7
100
AcDbLine
 10
33.618964
 20
32.980644
 30
0.0
 11
35.341459
 21
28.247984
 31
0.0
  0
LINE
  5
252
100
AcDbEntity
  8
0
 62
7
100
AcDbLine
 10
30.475552
 20
32.980644
 30
0.0
 11
33.618964
 21
32.980644
 31
0.0
  0
LINE
  5
253
100
AcDbEntity
  8
0
 62
7
100
AcDbLine
 10
28.753059
 20
28.247984
 30
0.0
 11
30.475552
 21
32.980644
 31
0.0
  0
LINE
  5
254
100
AcDbEntity
  8
0
 62
7
100
AcDbLine
 10
25.680684
 20
28.247984
 30
0.0
 11
28.753059
 21
28.247984
 31
0.0
  0
LINE
  5
255
100
AcDbEntity
  8
0
 62
7
100
AcDbLine
 10
43.279737
 20
32.980644
 30
0.0
 11
45.002230
 21
28.247984
 31
0.0
  0
LINE
  5
256
100
AcDbEntity
  8
0
 62
7
100
AcDbLine
 10
40.136329
 20
32.980644
 30
0.0
 11
43.279737
 21
32.980644
 31
0.0
  0
LINE
  5
257
100
AcDbEntity
  8
0
 62
7
100
AcDbLine
 10
38.413836
 20
28.247984
 30
0.0
 11
40.136329
 21
32.980644
 31
0.0
  0
LINE
  5
258
100
AcDbEntity
  8
0
 62
7
100
AcDbLine
 10
35.341459
 20
28.247984
 30
0.0
 11
38.413836
 21
28.247984
 31
0.0
  0
LINE
  5
259
100
AcDbEntity
  8
0
 62
7
100
AcDbLine
 10
52.940511
 20
32.980644
 30
0.0
 11
54.663007
 21
28.247984
 31
0.0
  0
LINE
  5
25a
100
AcDbEntity
  8
0
 62
7
100
AcDbLine
 10
49.797105
 20
32.980644
 30
0.0
 11
52.940511
 21
32.980644
 31
0.0
  0
LINE
  5
25b
100
AcDbEntity
  8
0
 62
7
100
AcDbLine
 10
48.074606
 20
28.247984
 30
0.0
 11
49.797105
 21
32.980644
 31
0.0
  0
LINE
  5
25c
100
AcDbEntity
  8
0
 62
7
100
AcDbLine
 10
45.002230
 20
28.247984
 30
0.0
 11
48.074606
 21
28.247984
 31
0.0
  0
LINE
  5
25d
100
AcDbEntity
  8
0
 62
7
100
AcDbLine
 10
62.601287
 20
32.980644
 30
0.0
 11
64.323780
 21
28.247984
 31
0.0
  0
LINE
  5
25e
100
AcDbEntity
  8
0
 62
7
100
AcDbLine
 10
59.457876
 20
32.980644
 30
0.0
 11
62.601287
 21
32.980644
 31
0.0
  0
LINE
  5
25f
100
AcDbEntity
  8
0
 62
7
100
AcDbLine
 10
57.735383
 20
28.247984
 30
0.0
 11
59.457876
 21
32.980644
 31
0.0
  0
LINE
  5
260
100
AcDbEntity
  8
0
 62
7
100
AcDbLine
 10
54.663007
 20
28.247984
 30
0.0
 11
57.735383
 21
28.247984
 31
0.0
  0
LINE
  5
261
100
AcDbEntity
  8
0
 62
7
100
AcDbLine
 10
72.261844
 20
32.980644
 30
0.0
 11
73.984554
 21
28.247984
 31
0.0
  0
LINE
  5
262
100
AcDbEntity
  8
0
 62
7
100
AcDbLine
 10
69.118652
 20
32.980644
 30
0.0
 11
72.261844
 21
32.980644
 31
0.0
  0
LINE
  5
263
100
AcDbEntity
  8
0
 62
7
100
AcDbLine
 10
67.396156
 20
28.247984
 30
0.0
 11
69.118652
 21
32.980644
 31
0.0
  0
LINE
  5
264
100
AcDbEntity
  8
0
 62
7
100
AcDbLine
 10
64.323780
 20
28.247984
 30
0.0
 11
67.396156
 21
28.247984
 31
0.0
  0
LINE
  5
265
100
AcDbEntity
  8
0
 62
7
100
AcDbLine
 10
81.922620
 20
32.980644
 30
0.0
 11
83.645327
 21
28.247984
 31
0.0
  0
LINE
  5
266
100
AcDbEntity
  8
0
 62
7
100
AcDbLine
 10
78.779423
 20
32.980644
 30
0.0
 11
81.922620
 21
32.980644
 31
0.0
  0
LINE
  5
267
100
AcDbEntity
  8
0
 62
7
100
AcDbLine
 10
77.056716
 20
28.247984
 30
0.0
 11
78.779423
 21
32.980644
 31
0.0
  0
LINE
  5
268
100
AcDbEntity
  8
0
 62
7
100
AcDbLine
 10
73.984554
 20
28.247984
 30
0.0
 11
77.056716
 21
28.247984
 31
0.0
  0
LINE
  5
269
100
AcDbEntity
  8
0
 62
7
100
AcDbLine
 10
91.583394
 20
32.980644
 30
0.0
 11
93.306101
 21
28.247984
 31
0.0
  0
LINE
  5
26a
100
AcDbEntity
  8
0
 62
7
100
AcDbLine
 10
88.440196
 20
32.980644
 30
0.0
 11
91.583394
 21
32.980644
 31
0.0
  0
LINE
  5
26b
100
AcDbEntity
  8
0
 62
7
100
AcDbLine
 10
86.717489
 20
28.247984
 30
0.0
 11
88.440196
 21
32.980644
 31
0.0
  0
LINE
  5
26c
100
AcDbEntity
  8
0
 62
7
100
AcDbLine
 10
83.645327
 20
28.247984
 30
0.0
 11
86.717489
 21
28.247984
 31
0.0
  0
LINE
  5
26d
100
AcDbEntity
  8
0
 62
7
100
AcDbLine
 10
101.244167
 20
32.980644
 30
0.0
 11
102.966875
 21
28.247984
 31
0.0
  0
LINE
  5
26e
100
AcDbEntity
  8
0
 62
7
100
AcDbLine
 10
98.100970
 20
32.980644
 30
0.0
 11
101.244167
 21
32.980644
 31
0.0
  0
LINE
  5
26f
100
AcDbEntity
  8
0
 62
7
100
AcDbLine
 10
96.378263
 20
28.247984
 30
0.0
 11
98.100970
 21
32.980644
 31
0.0
  0
LINE
  5
270
100
AcDbEntity
  8
0
 62
7
100
AcDbLine
 10
93.306101
 20
28.247984
 30
0.0
 11
96.378263
 21
28.247984
 31
0.0
  0
ENDSEC
  0
SECTION
  2
OBJECTS
  0
DICTIONARY
  5
C
330
0
100
AcDbDictionary
  3
ACAD_GROUP
350
D
  3
ACAD_MLINESTYLE
350
17
  0
DICTIONARY
  5
D
330
C
100
AcDbDictionary
  0
DICTIONARY
  5
1A
330
C
100
AcDbDictionary
  0
DICTIONARY
  5
17
330
C
100
AcDbDictionary
  3
STANDARD
350
18
  0
DICTIONARY
  5
19
330
C
100
AcDbDictionary
  0
ENDSEC
  0
EOF
