<?xml version="1.0" encoding="UTF-8" standalone="no"?>
<svg
   xmlns:dc="http://purl.org/dc/elements/1.1/"
   xmlns:cc="http://creativecommons.org/ns#"
   xmlns:rdf="http://www.w3.org/1999/02/22-rdf-syntax-ns#"
   xmlns:svg="http://www.w3.org/2000/svg"
   xmlns="http://www.w3.org/2000/svg"
   xmlns:sodipodi="http://sodipodi.sourceforge.net/DTD/sodipodi-0.dtd"
   xmlns:inkscape="http://www.inkscape.org/namespaces/inkscape"
   viewBox="0.03535 -4.11055 413.58183 145.02071"
   version="1.0"
   overflow="visible"
   id="svg90"
   sodipodi:docname="pinion_gear.svg"
   width="4.3081441in"
   height="1.5106323in"
   style="overflow:visible"
   inkscape:version="0.92.1 r15371">
  <metadata
     id="metadata94">
    <rdf:RDF>
      <cc:Work
         rdf:about="">
        <dc:format>image/svg+xml</dc:format>
        <dc:type
           rdf:resource="http://purl.org/dc/dcmitype/StillImage" />
        <dc:title></dc:title>
      </cc:Work>
    </rdf:RDF>
  </metadata>
  <sodipodi:namedview
     pagecolor="#ffffff"
     bordercolor="#666666"
     borderopacity="1"
     objecttolerance="10"
     gridtolerance="10"
     guidetolerance="10"
     inkscape:pageopacity="0"
     inkscape:pageshadow="2"
     inkscape:window-width="1680"
     inkscape:window-height="997"
     id="namedview92"
     showgrid="false"
     units="in"
     inkscape:document-units="in"
     fit-margin-top="0.25"
     fit-margin-left="0.25"
     fit-margin-right="0.25"
     fit-margin-bottom="0.25"
     inkscape:zoom="1.6432746"
     inkscape:cx="235.88759"
     inkscape:cy="133.64474"
     inkscape:window-x="-8"
     inkscape:window-y="-8"
     inkscape:window-maximized="1"
     inkscape:current-layer="svg90" />
  <defs
     id="defs2" />
  <path
     style="color:#000000;fill:none;stroke:#000000;stroke-width:0.96000004;stroke-miterlimit:4;stroke-dasharray:none;stroke-opacity:1"
     d="M 145.1179,75.690795 145.91241,80.775626 147.34252,85.860458 148.77263,86.337162 150.20273,86.813864 151.63285,87.131666 153.06296,87.290567 154.49306,87.449468 155.76427,87.60837 157.03548,87.449468 158.30669,87.290567 159.57789,87.131666 160.5313,86.337162 161.48471,85.701558 162.59702,85.224854 163.23262,85.065954 163.70932,84.907052 164.34493,84.748151 H 164.66273 164.98053 165.45723 L 165.77504,84.907052 166.25174,85.065954 166.88734,85.701558 169.42976,89.515182 172.60778,92.852102 173.08448,93.646607 V 94.12331 94.441112 94.917815 L 172.92558,95.235618 V 95.553419 L 172.60778,96.030122 172.44888,96.665726 172.13108,97.14243 171.33657,98.095835 170.54206,98.89034 169.58866,99.684846 169.11195,100.79715 168.63526,102.06836 168.31745,103.33957 168.15855,104.61078 167.99965,106.04089 167.84075,107.31209 V 108.9011 L 167.99965,110.33121 168.15855,111.76132 172.76668,114.30374 177.53371,116.36945 178.80492,115.57494 180.07613,114.62154 181.18843,113.82703 182.30074,112.87363 183.25414,111.92022 184.04865,110.80792 184.84316,109.85451 185.47876,108.7422 186.11436,107.62989 V 106.51759 L 186.27326,105.24638 186.59107,104.13407 186.74997,103.49847 186.90887,103.02177 187.22667,102.38616 187.54447,102.22726 187.70338,101.90946 188.02117,101.59166 188.33897,101.43276 188.65678,101.11495 H 189.61018 L 194.21832,101.43276 198.66754,101.11495 H 199.62095 L 200.09765,101.43276 200.41546,101.59166 200.57436,101.90946 200.73325,102.22726 201.05105,102.38616 201.36886,103.02177 201.52776,103.49847 201.68666,104.13407 202.00446,105.24638 202.16336,106.51759 202.32226,107.62989 202.79897,108.7422 203.43457,109.85451 204.22908,110.80792 205.18248,111.92022 206.13588,112.87363 207.08929,113.82703 208.2016,114.62154 209.47281,115.57494 210.74402,116.36945 215.66995,114.30374 220.11917,111.76132 220.43698,110.33121 V 108.9011 107.31209 106.04089 L 220.27808,104.61078 219.96027,103.33957 219.64248,102.06836 219.16577,100.79715 218.68907,99.684846 217.73566,98.89034 216.94116,98.095835 216.14665,97.14243 215.82885,96.665726 215.66995,96.030122 215.35215,95.553419 V 95.235618 L 215.19325,94.917815 V 94.441112 94.12331 93.646607 L 215.82885,92.852102 218.84796,89.515182 221.39038,85.701558 222.02599,85.065954 222.50269,84.907052 222.97939,84.748151 H 223.2972 223.615 223.9328 L 224.56841,84.907052 225.204,85.065954 225.68071,85.224854 226.79302,85.701558 227.74642,86.337162 228.85873,87.131666 229.97104,87.290567 231.24225,87.449468 232.51345,87.60837 233.94356,87.449468 235.21477,87.290567 236.64488,87.131666 238.07499,86.813864 239.5051,86.337162 240.93521,85.860458 242.36532,80.775626 243.31872,75.690795 242.20641,74.578487 241.09411,73.625082 239.9818,72.671675 238.7106,71.877171 237.59829,71.082666 236.48598,70.447062 235.21477,69.970359 234.10246,69.493655 232.83125,69.334755 231.71895,69.493655 230.44774,69.652557 H 229.33543 L 228.69983,69.493655 228.06423,69.334755 227.42862,69.175854 H 227.11082 L 226.95192,69.016953 226.63412,68.699151 226.31631,68.54025 225.99852,68.222447 225.52181,67.269042 224.88621,62.819814 223.615,58.529487 223.4561,57.417179 223.615,57.099378 223.7739,56.622675 224.0917,56.304873 224.2506,56.145971 224.4095,55.82817 224.88621,55.510367 225.36291,55.033665 225.83962,54.715863 226.95192,54.239159 228.06423,53.762457 229.17654,53.444655 230.12994,52.65015 231.08335,51.855645 231.87785,50.902239 232.67235,49.789931 233.46686,48.677625 234.10246,47.406417 234.73807,46.135209 235.37367,44.705099 235.85037,43.274991 232.83125,38.984664 229.33543,35.012139 227.74642,35.17104 226.31631,35.488842 224.88621,35.806644 223.615,36.124446 222.34379,36.601149 221.07258,37.236753 219.96027,37.713456 218.84796,38.507961 217.89456,39.143565 217.25896,40.255872 216.62335,41.209278 215.82885,42.162684 215.51105,42.639387 215.03434,42.957189 214.39874,43.433891 214.23984,43.592793 213.92204,43.751694 H 213.60423 L 213.12754,43.910595 H 212.65083 L 211.69742,43.592793 207.8838,41.368179 203.59347,39.779169 202.79897,39.143565 202.48117,38.825763 202.32226,38.34906 V 38.031258 L 202.16336,37.713456 V 37.395654 36.76005 36.283347 35.647743 L 202.48117,34.376535 202.79897,33.264226 203.27567,32.151925 V 31.039616 L 203.11677,29.768408 202.95787,28.4972 202.48117,27.225992 202.00446,25.795885 201.52776,24.524677 200.89215,23.253469 200.25655,21.982261 199.46205,20.711053 194.21832,20.393247 188.97459,20.711053 188.18007,21.982261 187.38557,23.253469 186.74997,24.524677 186.27326,25.795885 185.79656,27.225992 185.47876,28.4972 185.16096,29.768408 185.00205,31.039616 V 32.151925 L 185.47876,33.264226 185.79656,34.376535 186.11436,35.647743 V 36.283347 L 186.27326,36.76005 186.11436,37.395654 V 37.713456 L 185.95546,38.031258 V 38.34906 L 185.79656,38.825763 185.47876,39.143565 184.68426,39.779169 180.39393,41.368179 176.5803,43.592793 175.62689,43.910595 H 175.1502 L 174.67349,43.751694 H 174.35569 L 174.03789,43.592793 173.87899,43.433891 173.24338,42.957189 172.76668,42.639387 172.44888,42.162684 171.65437,41.209278 171.01877,40.255872 170.38316,39.143565 169.42976,38.507961 168.47635,37.713456 167.20514,37.236753 166.09284,36.601149 164.66273,36.124446 163.39152,35.806644 161.96141,35.488842 160.5313,35.17104 158.94229,35.012139 155.44647,38.984664 152.42735,43.274991 152.90406,44.705099 153.53966,46.135209 154.17526,47.406417 154.81087,48.677625 155.60537,49.789931 156.39987,50.902239 157.19439,51.855645 158.14779,52.65015 159.10119,53.444655 160.2135,53.762457 161.32581,54.239159 162.43812,54.715863 162.91481,55.033665 163.39152,55.510367 163.86822,55.82817 164.02712,56.145971 164.34493,56.304873 164.50383,56.622675 164.66273,57.099378 164.82163,57.417179 164.66273,58.529487 163.39152,62.819814 162.75591,67.269042 162.27922,68.222447 161.96141,68.54025 161.64361,68.699151 161.48471,69.016953 161.16691,69.175854 H 160.8491 L 160.2135,69.334755 159.57789,69.493655 159.10119,69.652557 H 157.82998 L 156.55877,69.493655 155.44647,69.334755 154.17526,69.493655 153.06296,69.970359 151.95065,70.447062 150.67944,71.082666 149.56714,71.877171 148.45483,72.671675 147.18362,73.625082 146.07131,74.578487 Z M 184.04865,70.764863 A 10.169664,10.169664 0 0 1 184.04865,69.811458 10.169664,10.169664 0 0 1 194.21832,59.641794 10.169664,10.169664 0 0 1 204.38798,69.811458 10.169664,10.169664 0 0 1 194.21832,79.981122 10.169664,10.169664 0 0 1 184.04865,70.764863 Z"
     id="path4"
     inkscape:connector-curvature="0" />
  <path
     id="line86"
     style="color:#000000;fill:none;stroke:#000000;stroke-width:0.96000004;stroke-miterlimit:4;stroke-dasharray:none;stroke-opacity:1"
     d="M 54.037481,20.369449 60.548498,38.256668 M 42.157686,20.369449 H 54.037481 M 35.646669,38.256668 42.157686,20.369449 M 24.035353,38.256668 H 35.646669 M 90.550642,20.369449 97.060854,38.256668 M 78.670856,20.369449 H 90.550642 M 72.159814,38.256668 78.670856,20.369449 M 60.548498,38.256668 H 72.159814 M 127.0638,20.369449 133.57402,38.256668 M 115.18319,20.369449 H 127.0638 M 108.67298,38.256668 115.18319,20.369449 M 97.060854,38.256668 H 108.67298 M 163.57696,20.369449 170.08717,38.256668 M 151.69636,20.369449 H 163.57696 M 145.18615,38.256668 151.69636,20.369449 M 133.57402,38.256668 H 145.18615 M 200.09012,20.369449 206.60034,38.256668 M 188.20953,20.369449 H 200.09012 M 181.6993,38.256668 188.20953,20.369449 M 170.08717,38.256668 H 181.6993 M 236.60329,20.369449 243.1135,38.256668 M 224.72268,20.369449 H 236.60329 M 218.21247,38.256668 224.72268,20.369449 M 206.60034,38.256668 H 218.21247 M 273.11563,20.369449 279.62666,38.256668 M 261.23585,20.369449 H 273.11563 M 254.72563,38.256668 261.23585,20.369449 M 243.1135,38.256668 H 254.72563 M 309.6288,20.369449 316.13982,38.256668 M 297.749,20.369449 H 309.6288 M 291.23798,38.256668 297.749,20.369449 M 279.62666,38.256668 H 291.23798 M 346.14196,20.369449 352.65298,38.256668 M 334.26216,20.369449 H 346.14196 M 327.75114,38.256668 334.26216,20.369449 M 316.13982,38.256668 H 327.75114 M 382.65512,20.369449 389.16614,38.256668 M 370.77532,20.369449 H 382.65512 M 364.2643,38.256668 370.77532,20.369449 M 352.65298,38.256668 H 364.2643"
     inkscape:connector-curvature="0" />
</svg>
