  0
SECTION
  2
HEADER
  9
$ACADVER
  1
AC1014
  9
$HANDSEED
  5
FFFF
  9
$MEASUREMENT
 70
     1
  0
ENDSEC
  0
SECTION
  2
TABLES
  0
TABLE
  2
VPORT
  5
8
330
0
100
AcDbSymbolTable
 70
     4
  0
VPORT
  5
2E
330
8
100
AcDbSymbolTableRecord
100
AcDbViewportTableRecord
  2
*ACTIVE
 70
     0
 10
0.0
 20
0.0
 11
1.0
 21
1.0
 12
210.0
 22
148.5
 13
0.0
 23
0.0
 14
10.0
 24
10.0
 15
10.0
 25
10.0
 16
0.0
 26
0.0
 36
1.0
 17
0.0
 27
0.0
 37
0.0
 40
341.0
 41
1.24
 42
50.0
 43
0.0
 44
0.0
 50
0.0
 51
0.0
 71
     0
 72
   100
 73
     1
 74
     3
 75
     0
 76
     0
 77
     0
 78
     0
  0
ENDTAB
  0
TABLE
  2
LTYPE
  5
5
330
0
100
AcDbSymbolTable
 70
     1
  0
LTYPE
  5
14
330
5
100
AcDbSymbolTableRecord
100
AcDbLinetypeTableRecord
  2
BYBLOCK
 70
     0
  3

 72
    65
 73
     0
 40
0.0
  0
LTYPE
  5
15
330
5
100
AcDbSymbolTableRecord
100
AcDbLinetypeTableRecord
  2
BYLAYER
 70
     0
  3

 72
    65
 73
     0
 40
0.0
  0
LTYPE
  5
16
330
5
100
AcDbSymbolTableRecord
100
AcDbLinetypeTableRecord
  2
CONTINUOUS
 70
     0
  3
Solid line
 72
    65
 73
     0
 40
0.0
  0
ENDTAB
  0
TABLE
  2
LAYER
  5
2
100
AcDbSymbolTable
 70
2
  0
LAYER
  5
50
100
AcDbSymbolTableRecord
100
AcDbLayerTableRecord
  2
0
 70
0
  6
CONTINUOUS
  0
LAYER
  5
51
100
AcDbSymbolTableRecord
100
AcDbLayerTableRecord
  2
Layer_1
 70
0
  6
CONTINUOUS
  0
ENDTAB
  0
TABLE
  2
STYLE
  5
3
330
0
100
AcDbSymbolTable
 70
     1
  0
STYLE
  5
11
330
3
100
AcDbSymbolTableRecord
100
AcDbTextStyleTableRecord
  2
STANDARD
 70
     0
 40
0.0
 41
1.0
 50
0.0
 71
     0
 42
2.5
  3
txt
  4

  0
ENDTAB
  0
TABLE
  2
VIEW
  5
6
330
0
100
AcDbSymbolTable
 70
     0
  0
ENDTAB
  0
TABLE
  2
UCS
  5
7
330
0
100
AcDbSymbolTable
 70
     0
  0
ENDTAB
  0
TABLE
  2
APPID
  5
9
330
0
100
AcDbSymbolTable
 70
     2
  0
APPID
  5
12
330
9
100
AcDbSymbolTableRecord
100
AcDbRegAppTableRecord
  2
ACAD
 70
     0
  0
ENDTAB
  0
TABLE
  2
DIMSTYLE
  5
A
330
0
100
AcDbSymbolTable
 70
     1
  0
DIMSTYLE
105
27
330
A
100
AcDbSymbolTableRecord
100
AcDbDimStyleTableRecord
  2
ISO-25
 70
     0
  3

  4

  5

  6

  7

 40
1.0
 41
2.5
 42
0.625
 43
3.75
 44
1.25
 45
0.0
 46
0.0
 47
0.0
 48
0.0
140
2.5
141
2.5
142
0.0
143
0.03937007874016
144
1.0
145
0.0
146
1.0
147
0.625
 71
     0
 72
     0
 73
     0
 74
     0
 75
     0
 76
     0
 77
     1
 78
     8
170
     0
171
     3
172
     1
173
     0
174
     0
175
     0
176
     0
177
     0
178
     0
270
     2
271
     2
272
     2
273
     2
274
     3
340
11
275
     0
280
     0
281
     0
282
     0
283
     0
284
     8
285
     0
286
     0
287
     3
288
     0
  0
ENDTAB
  0
TABLE
  2
BLOCK_RECORD
  5
1
330
0
100
AcDbSymbolTable
 70
     1
  0
BLOCK_RECORD
  5
1F
330
1
100
AcDbSymbolTableRecord
100
AcDbBlockTableRecord
  2
*MODEL_SPACE
  0
BLOCK_RECORD
  5
1B
330
1
100
AcDbSymbolTableRecord
100
AcDbBlockTableRecord
  2
*PAPER_SPACE
  0
ENDTAB
  0
ENDSEC
  0
SECTION
  2
BLOCKS
  0
BLOCK
  5
20
330
1F
100
AcDbEntity
  8
0
100
AcDbBlockBegin
  2
*MODEL_SPACE
 70
     0
 10
0.0
 20
0.0
 30
0.0
  3
*MODEL_SPACE
  1

  0
ENDBLK
  5
21
330
1F
100
AcDbEntity
  8
0
100
AcDbBlockEnd
  0
BLOCK
  5
1C
330
1B
100
AcDbEntity
 67
     1
  8
0
100
AcDbBlockBegin
  2
*PAPER_SPACE
  1

  0
ENDBLK
  5
1D
330
1B
100
AcDbEntity
 67
     1
  8
0
100
AcDbBlockEnd
  0
ENDSEC
  0
SECTION
  2
ENTITIES
  0
SPLINE
  5
100
100
AcDbEntity
  8
Layer_1
 62
5
100
AcDbSpline
 70
8
 71
3
 72
8
 73
4
 74
0
 40
0
 40
0
 40
0
 40
0
 40
1
 40
1
 40
1
 40
1
 10
112.936910
 20
96.151035
 30
0.0
 10
112.936910
 20
92.651068
 30
0.0
 10
115.774193
 20
89.813784
 30
0.0
 10
119.274160
 20
89.813783
 30
0.0
  0
SPLINE
  5
101
100
AcDbEntity
  8
Layer_1
 62
5
100
AcDbSpline
 70
8
 71
3
 72
8
 73
4
 74
0
 40
0
 40
0
 40
0
 40
0
 40
1
 40
1
 40
1
 40
1
 10
119.274160
 20
89.813783
 30
0.0
 10
122.774127
 20
89.813784
 30
0.0
 10
125.611410
 20
92.651068
 30
0.0
 10
125.611410
 20
96.151035
 30
0.0
  0
SPLINE
  5
102
100
AcDbEntity
  8
Layer_1
 62
5
100
AcDbSpline
 70
8
 71
3
 72
8
 73
4
 74
0
 40
0
 40
0
 40
0
 40
0
 40
1
 40
1
 40
1
 40
1
 10
125.611410
 20
96.151035
 30
0.0
 10
125.611410
 20
99.651002
 30
0.0
 10
122.774127
 20
102.488287
 30
0.0
 10
119.274160
 20
102.488288
 30
0.0
  0
SPLINE
  5
103
100
AcDbEntity
  8
Layer_1
 62
5
100
AcDbSpline
 70
8
 71
3
 72
8
 73
4
 74
0
 40
0
 40
0
 40
0
 40
0
 40
1
 40
1
 40
1
 40
1
 10
119.274160
 20
102.488288
 30
0.0
 10
115.774193
 20
102.488287
 30
0.0
 10
112.936910
 20
99.651002
 30
0.0
 10
112.936910
 20
96.151035
 30
0.0
  0
LINE
  5
104
100
AcDbEntity
  8
Layer_1
 62
5
100
AcDbLine
 10
112.936910
 20
96.151035
 30
0.0
 11
112.936910
 21
96.151035
 31
0.0
  0
SPLINE
  5
105
100
AcDbEntity
  8
Layer_1
 62
5
100
AcDbSpline
 70
8
 71
3
 72
8
 73
4
 74
0
 40
0
 40
0
 40
0
 40
0
 40
1
 40
1
 40
1
 40
1
 10
95.707230
 20
96.151035
 30
0.0
 10
95.707230
 20
94.470290
 30
0.0
 10
96.374904
 20
92.858384
 30
0.0
 10
97.563371
 20
91.669918
 30
0.0
  0
SPLINE
  5
106
100
AcDbEntity
  8
Layer_1
 62
5
100
AcDbSpline
 70
8
 71
3
 72
8
 73
4
 74
0
 40
0
 40
0
 40
0
 40
0
 40
1
 40
1
 40
1
 40
1
 10
97.563371
 20
91.669918
 30
0.0
 10
98.751838
 20
90.481453
 30
0.0
 10
100.363745
 20
89.813781
 30
0.0
 10
102.044490
 20
89.813783
 30
0.0
  0
SPLINE
  5
107
100
AcDbEntity
  8
Layer_1
 62
5
100
AcDbSpline
 70
8
 71
3
 72
8
 73
4
 74
0
 40
0
 40
0
 40
0
 40
0
 40
1
 40
1
 40
1
 40
1
 10
102.044490
 20
89.813783
 30
0.0
 10
105.544457
 20
89.813784
 30
0.0
 10
108.381740
 20
92.651068
 30
0.0
 10
108.381740
 20
96.151035
 30
0.0
  0
SPLINE
  5
108
100
AcDbEntity
  8
Layer_1
 62
5
100
AcDbSpline
 70
8
 71
3
 72
8
 73
4
 74
0
 40
0
 40
0
 40
0
 40
0
 40
1
 40
1
 40
1
 40
1
 10
108.381740
 20
96.151035
 30
0.0
 10
108.381740
 20
99.651002
 30
0.0
 10
105.544457
 20
102.488287
 30
0.0
 10
102.044490
 20
102.488288
 30
0.0
  0
SPLINE
  5
109
100
AcDbEntity
  8
Layer_1
 62
5
100
AcDbSpline
 70
8
 71
3
 72
8
 73
4
 74
0
 40
0
 40
0
 40
0
 40
0
 40
1
 40
1
 40
1
 40
1
 10
102.044490
 20
102.488288
 30
0.0
 10
100.363745
 20
102.488290
 30
0.0
 10
98.751838
 20
101.820618
 30
0.0
 10
97.563371
 20
100.632152
 30
0.0
  0
SPLINE
  5
10a
100
AcDbEntity
  8
Layer_1
 62
5
100
AcDbSpline
 70
8
 71
3
 72
8
 73
4
 74
0
 40
0
 40
0
 40
0
 40
0
 40
1
 40
1
 40
1
 40
1
 10
97.563371
 20
100.632152
 30
0.0
 10
96.374904
 20
99.443687
 30
0.0
 10
95.707230
 20
97.831780
 30
0.0
 10
95.707230
 20
96.151035
 30
0.0
  0
LINE
  5
10b
100
AcDbEntity
  8
Layer_1
 62
5
100
AcDbLine
 10
95.707230
 20
96.151035
 30
0.0
 11
95.707230
 21
96.151035
 31
0.0
  0
SPLINE
  5
10c
100
AcDbEntity
  8
Layer_1
 62
5
100
AcDbSpline
 70
8
 71
3
 72
8
 73
4
 74
0
 40
0
 40
0
 40
0
 40
0
 40
1
 40
1
 40
1
 40
1
 10
78.477560
 20
96.151035
 30
0.0
 10
78.477560
 20
92.651068
 30
0.0
 10
81.314843
 20
89.813784
 30
0.0
 10
84.814810
 20
89.813783
 30
0.0
  0
SPLINE
  5
10d
100
AcDbEntity
  8
Layer_1
 62
5
100
AcDbSpline
 70
8
 71
3
 72
8
 73
4
 74
0
 40
0
 40
0
 40
0
 40
0
 40
1
 40
1
 40
1
 40
1
 10
84.814810
 20
89.813783
 30
0.0
 10
88.314777
 20
89.813784
 30
0.0
 10
91.152060
 20
92.651068
 30
0.0
 10
91.152060
 20
96.151035
 30
0.0
  0
SPLINE
  5
10e
100
AcDbEntity
  8
Layer_1
 62
5
100
AcDbSpline
 70
8
 71
3
 72
8
 73
4
 74
0
 40
0
 40
0
 40
0
 40
0
 40
1
 40
1
 40
1
 40
1
 10
91.152060
 20
96.151035
 30
0.0
 10
91.152060
 20
99.651002
 30
0.0
 10
88.314777
 20
102.488287
 30
0.0
 10
84.814810
 20
102.488288
 30
0.0
  0
SPLINE
  5
10f
100
AcDbEntity
  8
Layer_1
 62
5
100
AcDbSpline
 70
8
 71
3
 72
8
 73
4
 74
0
 40
0
 40
0
 40
0
 40
0
 40
1
 40
1
 40
1
 40
1
 10
84.814810
 20
102.488288
 30
0.0
 10
81.314843
 20
102.488287
 30
0.0
 10
78.477560
 20
99.651002
 30
0.0
 10
78.477560
 20
96.151035
 30
0.0
  0
LINE
  5
110
100
AcDbEntity
  8
Layer_1
 62
5
100
AcDbLine
 10
78.477560
 20
96.151035
 30
0.0
 11
78.477560
 21
96.151035
 31
0.0
  0
SPLINE
  5
111
100
AcDbEntity
  8
Layer_1
 62
5
100
AcDbSpline
 70
8
 71
3
 72
8
 73
4
 74
0
 40
0
 40
0
 40
0
 40
0
 40
1
 40
1
 40
1
 40
1
 10
61.247910
 20
96.151035
 30
0.0
 10
61.247910
 20
94.470290
 30
0.0
 10
61.915584
 20
92.858384
 30
0.0
 10
63.104051
 20
91.669918
 30
0.0
  0
SPLINE
  5
112
100
AcDbEntity
  8
Layer_1
 62
5
100
AcDbSpline
 70
8
 71
3
 72
8
 73
4
 74
0
 40
0
 40
0
 40
0
 40
0
 40
1
 40
1
 40
1
 40
1
 10
63.104051
 20
91.669918
 30
0.0
 10
64.292518
 20
90.481453
 30
0.0
 10
65.904425
 20
89.813781
 30
0.0
 10
67.585170
 20
89.813783
 30
0.0
  0
SPLINE
  5
113
100
AcDbEntity
  8
Layer_1
 62
5
100
AcDbSpline
 70
8
 71
3
 72
8
 73
4
 74
0
 40
0
 40
0
 40
0
 40
0
 40
1
 40
1
 40
1
 40
1
 10
67.585170
 20
89.813783
 30
0.0
 10
71.085137
 20
89.813784
 30
0.0
 10
73.922420
 20
92.651068
 30
0.0
 10
73.922420
 20
96.151035
 30
0.0
  0
SPLINE
  5
114
100
AcDbEntity
  8
Layer_1
 62
5
100
AcDbSpline
 70
8
 71
3
 72
8
 73
4
 74
0
 40
0
 40
0
 40
0
 40
0
 40
1
 40
1
 40
1
 40
1
 10
73.922420
 20
96.151035
 30
0.0
 10
73.922420
 20
99.651002
 30
0.0
 10
71.085137
 20
102.488287
 30
0.0
 10
67.585170
 20
102.488288
 30
0.0
  0
SPLINE
  5
115
100
AcDbEntity
  8
Layer_1
 62
5
100
AcDbSpline
 70
8
 71
3
 72
8
 73
4
 74
0
 40
0
 40
0
 40
0
 40
0
 40
1
 40
1
 40
1
 40
1
 10
67.585170
 20
102.488288
 30
0.0
 10
65.904425
 20
102.488290
 30
0.0
 10
64.292518
 20
101.820618
 30
0.0
 10
63.104051
 20
100.632152
 30
0.0
  0
SPLINE
  5
116
100
AcDbEntity
  8
Layer_1
 62
5
100
AcDbSpline
 70
8
 71
3
 72
8
 73
4
 74
0
 40
0
 40
0
 40
0
 40
0
 40
1
 40
1
 40
1
 40
1
 10
63.104051
 20
100.632152
 30
0.0
 10
61.915584
 20
99.443687
 30
0.0
 10
61.247910
 20
97.831780
 30
0.0
 10
61.247910
 20
96.151035
 30
0.0
  0
LINE
  5
117
100
AcDbEntity
  8
Layer_1
 62
5
100
AcDbLine
 10
61.247910
 20
96.151035
 30
0.0
 11
61.247910
 21
96.151035
 31
0.0
  0
SPLINE
  5
118
100
AcDbEntity
  8
Layer_1
 62
5
100
AcDbSpline
 70
8
 71
3
 72
8
 73
4
 74
0
 40
0
 40
0
 40
0
 40
0
 40
1
 40
1
 40
1
 40
1
 10
44.018240
 20
96.151035
 30
0.0
 10
44.018240
 20
92.651068
 30
0.0
 10
46.855523
 20
89.813784
 30
0.0
 10
50.355490
 20
89.813783
 30
0.0
  0
SPLINE
  5
119
100
AcDbEntity
  8
Layer_1
 62
5
100
AcDbSpline
 70
8
 71
3
 72
8
 73
4
 74
0
 40
0
 40
0
 40
0
 40
0
 40
1
 40
1
 40
1
 40
1
 10
50.355490
 20
89.813783
 30
0.0
 10
53.855457
 20
89.813784
 30
0.0
 10
56.692740
 20
92.651068
 30
0.0
 10
56.692740
 20
96.151035
 30
0.0
  0
SPLINE
  5
11a
100
AcDbEntity
  8
Layer_1
 62
5
100
AcDbSpline
 70
8
 71
3
 72
8
 73
4
 74
0
 40
0
 40
0
 40
0
 40
0
 40
1
 40
1
 40
1
 40
1
 10
56.692740
 20
96.151035
 30
0.0
 10
56.692740
 20
99.651002
 30
0.0
 10
53.855457
 20
102.488287
 30
0.0
 10
50.355490
 20
102.488288
 30
0.0
  0
SPLINE
  5
11b
100
AcDbEntity
  8
Layer_1
 62
5
100
AcDbSpline
 70
8
 71
3
 72
8
 73
4
 74
0
 40
0
 40
0
 40
0
 40
0
 40
1
 40
1
 40
1
 40
1
 10
50.355490
 20
102.488288
 30
0.0
 10
46.855523
 20
102.488287
 30
0.0
 10
44.018240
 20
99.651002
 30
0.0
 10
44.018240
 20
96.151035
 30
0.0
  0
LINE
  5
11c
100
AcDbEntity
  8
Layer_1
 62
5
100
AcDbLine
 10
44.018240
 20
96.151035
 30
0.0
 11
44.018240
 21
96.151035
 31
0.0
  0
SPLINE
  5
11d
100
AcDbEntity
  8
Layer_1
 62
5
100
AcDbSpline
 70
8
 71
3
 72
8
 73
4
 74
0
 40
0
 40
0
 40
0
 40
0
 40
1
 40
1
 40
1
 40
1
 10
26.788560
 20
96.151035
 30
0.0
 10
26.788560
 20
94.470290
 30
0.0
 10
27.456234
 20
92.858384
 30
0.0
 10
28.644701
 20
91.669918
 30
0.0
  0
SPLINE
  5
11e
100
AcDbEntity
  8
Layer_1
 62
5
100
AcDbSpline
 70
8
 71
3
 72
8
 73
4
 74
0
 40
0
 40
0
 40
0
 40
0
 40
1
 40
1
 40
1
 40
1
 10
28.644701
 20
91.669918
 30
0.0
 10
29.833168
 20
90.481453
 30
0.0
 10
31.445075
 20
89.813781
 30
0.0
 10
33.125820
 20
89.813783
 30
0.0
  0
SPLINE
  5
11f
100
AcDbEntity
  8
Layer_1
 62
5
100
AcDbSpline
 70
8
 71
3
 72
8
 73
4
 74
0
 40
0
 40
0
 40
0
 40
0
 40
1
 40
1
 40
1
 40
1
 10
33.125820
 20
89.813783
 30
0.0
 10
36.625787
 20
89.813784
 30
0.0
 10
39.463070
 20
92.651068
 30
0.0
 10
39.463070
 20
96.151035
 30
0.0
  0
SPLINE
  5
120
100
AcDbEntity
  8
Layer_1
 62
5
100
AcDbSpline
 70
8
 71
3
 72
8
 73
4
 74
0
 40
0
 40
0
 40
0
 40
0
 40
1
 40
1
 40
1
 40
1
 10
39.463070
 20
96.151035
 30
0.0
 10
39.463070
 20
99.651002
 30
0.0
 10
36.625787
 20
102.488287
 30
0.0
 10
33.125820
 20
102.488288
 30
0.0
  0
SPLINE
  5
121
100
AcDbEntity
  8
Layer_1
 62
5
100
AcDbSpline
 70
8
 71
3
 72
8
 73
4
 74
0
 40
0
 40
0
 40
0
 40
0
 40
1
 40
1
 40
1
 40
1
 10
33.125820
 20
102.488288
 30
0.0
 10
31.445075
 20
102.488290
 30
0.0
 10
29.833168
 20
101.820618
 30
0.0
 10
28.644701
 20
100.632152
 30
0.0
  0
SPLINE
  5
122
100
AcDbEntity
  8
Layer_1
 62
5
100
AcDbSpline
 70
8
 71
3
 72
8
 73
4
 74
0
 40
0
 40
0
 40
0
 40
0
 40
1
 40
1
 40
1
 40
1
 10
28.644701
 20
100.632152
 30
0.0
 10
27.456234
 20
99.443687
 30
0.0
 10
26.788560
 20
97.831780
 30
0.0
 10
26.788560
 20
96.151035
 30
0.0
  0
LINE
  5
123
100
AcDbEntity
  8
Layer_1
 62
5
100
AcDbLine
 10
26.788560
 20
96.151035
 30
0.0
 11
26.788560
 21
96.151035
 31
0.0
  0
SPLINE
  5
124
100
AcDbEntity
  8
Layer_1
 62
5
100
AcDbSpline
 70
8
 71
3
 72
8
 73
4
 74
0
 40
0
 40
0
 40
0
 40
0
 40
1
 40
1
 40
1
 40
1
 10
112.936910
 20
78.922711
 30
0.0
 10
112.936910
 20
75.422744
 30
0.0
 10
115.774193
 20
72.585459
 30
0.0
 10
119.274160
 20
72.585458
 30
0.0
  0
SPLINE
  5
125
100
AcDbEntity
  8
Layer_1
 62
5
100
AcDbSpline
 70
8
 71
3
 72
8
 73
4
 74
0
 40
0
 40
0
 40
0
 40
0
 40
1
 40
1
 40
1
 40
1
 10
119.274160
 20
72.585458
 30
0.0
 10
122.774127
 20
72.585459
 30
0.0
 10
125.611410
 20
75.422744
 30
0.0
 10
125.611410
 20
78.922711
 30
0.0
  0
SPLINE
  5
126
100
AcDbEntity
  8
Layer_1
 62
5
100
AcDbSpline
 70
8
 71
3
 72
8
 73
4
 74
0
 40
0
 40
0
 40
0
 40
0
 40
1
 40
1
 40
1
 40
1
 10
125.611410
 20
78.922711
 30
0.0
 10
125.611410
 20
82.422678
 30
0.0
 10
122.774127
 20
85.259962
 30
0.0
 10
119.274160
 20
85.259963
 30
0.0
  0
SPLINE
  5
127
100
AcDbEntity
  8
Layer_1
 62
5
100
AcDbSpline
 70
8
 71
3
 72
8
 73
4
 74
0
 40
0
 40
0
 40
0
 40
0
 40
1
 40
1
 40
1
 40
1
 10
119.274160
 20
85.259963
 30
0.0
 10
115.774193
 20
85.259962
 30
0.0
 10
112.936910
 20
82.422678
 30
0.0
 10
112.936910
 20
78.922711
 30
0.0
  0
LINE
  5
128
100
AcDbEntity
  8
Layer_1
 62
5
100
AcDbLine
 10
112.936910
 20
78.922711
 30
0.0
 11
112.936910
 21
78.922711
 31
0.0
  0
SPLINE
  5
129
100
AcDbEntity
  8
Layer_1
 62
5
100
AcDbSpline
 70
8
 71
3
 72
8
 73
4
 74
0
 40
0
 40
0
 40
0
 40
0
 40
1
 40
1
 40
1
 40
1
 10
95.707230
 20
78.922711
 30
0.0
 10
95.707230
 20
77.241966
 30
0.0
 10
96.374904
 20
75.630059
 30
0.0
 10
97.563371
 20
74.441594
 30
0.0
  0
SPLINE
  5
12a
100
AcDbEntity
  8
Layer_1
 62
5
100
AcDbSpline
 70
8
 71
3
 72
8
 73
4
 74
0
 40
0
 40
0
 40
0
 40
0
 40
1
 40
1
 40
1
 40
1
 10
97.563371
 20
74.441594
 30
0.0
 10
98.751838
 20
73.253128
 30
0.0
 10
100.363745
 20
72.585456
 30
0.0
 10
102.044490
 20
72.585458
 30
0.0
  0
SPLINE
  5
12b
100
AcDbEntity
  8
Layer_1
 62
5
100
AcDbSpline
 70
8
 71
3
 72
8
 73
4
 74
0
 40
0
 40
0
 40
0
 40
0
 40
1
 40
1
 40
1
 40
1
 10
102.044490
 20
72.585458
 30
0.0
 10
105.544457
 20
72.585459
 30
0.0
 10
108.381740
 20
75.422744
 30
0.0
 10
108.381740
 20
78.922711
 30
0.0
  0
SPLINE
  5
12c
100
AcDbEntity
  8
Layer_1
 62
5
100
AcDbSpline
 70
8
 71
3
 72
8
 73
4
 74
0
 40
0
 40
0
 40
0
 40
0
 40
1
 40
1
 40
1
 40
1
 10
108.381740
 20
78.922711
 30
0.0
 10
108.381740
 20
82.422678
 30
0.0
 10
105.544457
 20
85.259962
 30
0.0
 10
102.044490
 20
85.259963
 30
0.0
  0
SPLINE
  5
12d
100
AcDbEntity
  8
Layer_1
 62
5
100
AcDbSpline
 70
8
 71
3
 72
8
 73
4
 74
0
 40
0
 40
0
 40
0
 40
0
 40
1
 40
1
 40
1
 40
1
 10
102.044490
 20
85.259963
 30
0.0
 10
100.363745
 20
85.259965
 30
0.0
 10
98.751838
 20
84.592293
 30
0.0
 10
97.563371
 20
83.403828
 30
0.0
  0
SPLINE
  5
12e
100
AcDbEntity
  8
Layer_1
 62
5
100
AcDbSpline
 70
8
 71
3
 72
8
 73
4
 74
0
 40
0
 40
0
 40
0
 40
0
 40
1
 40
1
 40
1
 40
1
 10
97.563371
 20
83.403828
 30
0.0
 10
96.374904
 20
82.215362
 30
0.0
 10
95.707230
 20
80.603456
 30
0.0
 10
95.707230
 20
78.922711
 30
0.0
  0
LINE
  5
12f
100
AcDbEntity
  8
Layer_1
 62
5
100
AcDbLine
 10
95.707230
 20
78.922711
 30
0.0
 11
95.707230
 21
78.922711
 31
0.0
  0
SPLINE
  5
130
100
AcDbEntity
  8
Layer_1
 62
5
100
AcDbSpline
 70
8
 71
3
 72
8
 73
4
 74
0
 40
0
 40
0
 40
0
 40
0
 40
1
 40
1
 40
1
 40
1
 10
78.477560
 20
78.922711
 30
0.0
 10
78.477560
 20
75.422744
 30
0.0
 10
81.314843
 20
72.585459
 30
0.0
 10
84.814810
 20
72.585458
 30
0.0
  0
SPLINE
  5
131
100
AcDbEntity
  8
Layer_1
 62
5
100
AcDbSpline
 70
8
 71
3
 72
8
 73
4
 74
0
 40
0
 40
0
 40
0
 40
0
 40
1
 40
1
 40
1
 40
1
 10
84.814810
 20
72.585458
 30
0.0
 10
88.314777
 20
72.585459
 30
0.0
 10
91.152060
 20
75.422744
 30
0.0
 10
91.152060
 20
78.922711
 30
0.0
  0
SPLINE
  5
132
100
AcDbEntity
  8
Layer_1
 62
5
100
AcDbSpline
 70
8
 71
3
 72
8
 73
4
 74
0
 40
0
 40
0
 40
0
 40
0
 40
1
 40
1
 40
1
 40
1
 10
91.152060
 20
78.922711
 30
0.0
 10
91.152060
 20
82.422678
 30
0.0
 10
88.314777
 20
85.259962
 30
0.0
 10
84.814810
 20
85.259963
 30
0.0
  0
SPLINE
  5
133
100
AcDbEntity
  8
Layer_1
 62
5
100
AcDbSpline
 70
8
 71
3
 72
8
 73
4
 74
0
 40
0
 40
0
 40
0
 40
0
 40
1
 40
1
 40
1
 40
1
 10
84.814810
 20
85.259963
 30
0.0
 10
81.314843
 20
85.259962
 30
0.0
 10
78.477560
 20
82.422678
 30
0.0
 10
78.477560
 20
78.922711
 30
0.0
  0
LINE
  5
134
100
AcDbEntity
  8
Layer_1
 62
5
100
AcDbLine
 10
78.477560
 20
78.922711
 30
0.0
 11
78.477560
 21
78.922711
 31
0.0
  0
SPLINE
  5
135
100
AcDbEntity
  8
Layer_1
 62
5
100
AcDbSpline
 70
8
 71
3
 72
8
 73
4
 74
0
 40
0
 40
0
 40
0
 40
0
 40
1
 40
1
 40
1
 40
1
 10
61.247910
 20
78.922711
 30
0.0
 10
61.247910
 20
77.241966
 30
0.0
 10
61.915584
 20
75.630059
 30
0.0
 10
63.104051
 20
74.441594
 30
0.0
  0
SPLINE
  5
136
100
AcDbEntity
  8
Layer_1
 62
5
100
AcDbSpline
 70
8
 71
3
 72
8
 73
4
 74
0
 40
0
 40
0
 40
0
 40
0
 40
1
 40
1
 40
1
 40
1
 10
63.104051
 20
74.441594
 30
0.0
 10
64.292518
 20
73.253128
 30
0.0
 10
65.904425
 20
72.585456
 30
0.0
 10
67.585170
 20
72.585458
 30
0.0
  0
SPLINE
  5
137
100
AcDbEntity
  8
Layer_1
 62
5
100
AcDbSpline
 70
8
 71
3
 72
8
 73
4
 74
0
 40
0
 40
0
 40
0
 40
0
 40
1
 40
1
 40
1
 40
1
 10
67.585170
 20
72.585458
 30
0.0
 10
71.085137
 20
72.585459
 30
0.0
 10
73.922420
 20
75.422744
 30
0.0
 10
73.922420
 20
78.922711
 30
0.0
  0
SPLINE
  5
138
100
AcDbEntity
  8
Layer_1
 62
5
100
AcDbSpline
 70
8
 71
3
 72
8
 73
4
 74
0
 40
0
 40
0
 40
0
 40
0
 40
1
 40
1
 40
1
 40
1
 10
73.922420
 20
78.922711
 30
0.0
 10
73.922420
 20
82.422678
 30
0.0
 10
71.085137
 20
85.259962
 30
0.0
 10
67.585170
 20
85.259963
 30
0.0
  0
SPLINE
  5
139
100
AcDbEntity
  8
Layer_1
 62
5
100
AcDbSpline
 70
8
 71
3
 72
8
 73
4
 74
0
 40
0
 40
0
 40
0
 40
0
 40
1
 40
1
 40
1
 40
1
 10
67.585170
 20
85.259963
 30
0.0
 10
65.904425
 20
85.259965
 30
0.0
 10
64.292518
 20
84.592293
 30
0.0
 10
63.104051
 20
83.403828
 30
0.0
  0
SPLINE
  5
13a
100
AcDbEntity
  8
Layer_1
 62
5
100
AcDbSpline
 70
8
 71
3
 72
8
 73
4
 74
0
 40
0
 40
0
 40
0
 40
0
 40
1
 40
1
 40
1
 40
1
 10
63.104051
 20
83.403828
 30
0.0
 10
61.915584
 20
82.215362
 30
0.0
 10
61.247910
 20
80.603456
 30
0.0
 10
61.247910
 20
78.922711
 30
0.0
  0
LINE
  5
13b
100
AcDbEntity
  8
Layer_1
 62
5
100
AcDbLine
 10
61.247910
 20
78.922711
 30
0.0
 11
61.247910
 21
78.922711
 31
0.0
  0
SPLINE
  5
13c
100
AcDbEntity
  8
Layer_1
 62
5
100
AcDbSpline
 70
8
 71
3
 72
8
 73
4
 74
0
 40
0
 40
0
 40
0
 40
0
 40
1
 40
1
 40
1
 40
1
 10
44.018240
 20
78.922711
 30
0.0
 10
44.018240
 20
75.422744
 30
0.0
 10
46.855523
 20
72.585459
 30
0.0
 10
50.355490
 20
72.585458
 30
0.0
  0
SPLINE
  5
13d
100
AcDbEntity
  8
Layer_1
 62
5
100
AcDbSpline
 70
8
 71
3
 72
8
 73
4
 74
0
 40
0
 40
0
 40
0
 40
0
 40
1
 40
1
 40
1
 40
1
 10
50.355490
 20
72.585458
 30
0.0
 10
53.855457
 20
72.585459
 30
0.0
 10
56.692740
 20
75.422744
 30
0.0
 10
56.692740
 20
78.922711
 30
0.0
  0
SPLINE
  5
13e
100
AcDbEntity
  8
Layer_1
 62
5
100
AcDbSpline
 70
8
 71
3
 72
8
 73
4
 74
0
 40
0
 40
0
 40
0
 40
0
 40
1
 40
1
 40
1
 40
1
 10
56.692740
 20
78.922711
 30
0.0
 10
56.692740
 20
82.422678
 30
0.0
 10
53.855457
 20
85.259962
 30
0.0
 10
50.355490
 20
85.259963
 30
0.0
  0
SPLINE
  5
13f
100
AcDbEntity
  8
Layer_1
 62
5
100
AcDbSpline
 70
8
 71
3
 72
8
 73
4
 74
0
 40
0
 40
0
 40
0
 40
0
 40
1
 40
1
 40
1
 40
1
 10
50.355490
 20
85.259963
 30
0.0
 10
46.855523
 20
85.259962
 30
0.0
 10
44.018240
 20
82.422678
 30
0.0
 10
44.018240
 20
78.922711
 30
0.0
  0
LINE
  5
140
100
AcDbEntity
  8
Layer_1
 62
5
100
AcDbLine
 10
44.018240
 20
78.922711
 30
0.0
 11
44.018240
 21
78.922711
 31
0.0
  0
SPLINE
  5
141
100
AcDbEntity
  8
Layer_1
 62
5
100
AcDbSpline
 70
8
 71
3
 72
8
 73
4
 74
0
 40
0
 40
0
 40
0
 40
0
 40
1
 40
1
 40
1
 40
1
 10
26.788560
 20
78.922711
 30
0.0
 10
26.788560
 20
77.241966
 30
0.0
 10
27.456234
 20
75.630059
 30
0.0
 10
28.644701
 20
74.441594
 30
0.0
  0
SPLINE
  5
142
100
AcDbEntity
  8
Layer_1
 62
5
100
AcDbSpline
 70
8
 71
3
 72
8
 73
4
 74
0
 40
0
 40
0
 40
0
 40
0
 40
1
 40
1
 40
1
 40
1
 10
28.644701
 20
74.441594
 30
0.0
 10
29.833168
 20
73.253128
 30
0.0
 10
31.445075
 20
72.585456
 30
0.0
 10
33.125820
 20
72.585458
 30
0.0
  0
SPLINE
  5
143
100
AcDbEntity
  8
Layer_1
 62
5
100
AcDbSpline
 70
8
 71
3
 72
8
 73
4
 74
0
 40
0
 40
0
 40
0
 40
0
 40
1
 40
1
 40
1
 40
1
 10
33.125820
 20
72.585458
 30
0.0
 10
36.625787
 20
72.585459
 30
0.0
 10
39.463070
 20
75.422744
 30
0.0
 10
39.463070
 20
78.922711
 30
0.0
  0
SPLINE
  5
144
100
AcDbEntity
  8
Layer_1
 62
5
100
AcDbSpline
 70
8
 71
3
 72
8
 73
4
 74
0
 40
0
 40
0
 40
0
 40
0
 40
1
 40
1
 40
1
 40
1
 10
39.463070
 20
78.922711
 30
0.0
 10
39.463070
 20
82.422678
 30
0.0
 10
36.625787
 20
85.259962
 30
0.0
 10
33.125820
 20
85.259963
 30
0.0
  0
SPLINE
  5
145
100
AcDbEntity
  8
Layer_1
 62
5
100
AcDbSpline
 70
8
 71
3
 72
8
 73
4
 74
0
 40
0
 40
0
 40
0
 40
0
 40
1
 40
1
 40
1
 40
1
 10
33.125820
 20
85.259963
 30
0.0
 10
31.445075
 20
85.259965
 30
0.0
 10
29.833168
 20
84.592293
 30
0.0
 10
28.644701
 20
83.403828
 30
0.0
  0
SPLINE
  5
146
100
AcDbEntity
  8
Layer_1
 62
5
100
AcDbSpline
 70
8
 71
3
 72
8
 73
4
 74
0
 40
0
 40
0
 40
0
 40
0
 40
1
 40
1
 40
1
 40
1
 10
28.644701
 20
83.403828
 30
0.0
 10
27.456234
 20
82.215362
 30
0.0
 10
26.788560
 20
80.603456
 30
0.0
 10
26.788560
 20
78.922711
 30
0.0
  0
LINE
  5
147
100
AcDbEntity
  8
Layer_1
 62
5
100
AcDbLine
 10
26.788560
 20
78.922711
 30
0.0
 11
26.788560
 21
78.922711
 31
0.0
  0
SPLINE
  5
148
100
AcDbEntity
  8
Layer_1
 62
5
100
AcDbSpline
 70
8
 71
3
 72
8
 73
4
 74
0
 40
0
 40
0
 40
0
 40
0
 40
1
 40
1
 40
1
 40
1
 10
112.936910
 20
61.694375
 30
0.0
 10
112.936910
 20
58.194408
 30
0.0
 10
115.774193
 20
55.357124
 30
0.0
 10
119.274160
 20
55.357123
 30
0.0
  0
SPLINE
  5
149
100
AcDbEntity
  8
Layer_1
 62
5
100
AcDbSpline
 70
8
 71
3
 72
8
 73
4
 74
0
 40
0
 40
0
 40
0
 40
0
 40
1
 40
1
 40
1
 40
1
 10
119.274160
 20
55.357123
 30
0.0
 10
122.774127
 20
55.357124
 30
0.0
 10
125.611410
 20
58.194408
 30
0.0
 10
125.611410
 20
61.694375
 30
0.0
  0
SPLINE
  5
14a
100
AcDbEntity
  8
Layer_1
 62
5
100
AcDbSpline
 70
8
 71
3
 72
8
 73
4
 74
0
 40
0
 40
0
 40
0
 40
0
 40
1
 40
1
 40
1
 40
1
 10
125.611410
 20
61.694375
 30
0.0
 10
125.611410
 20
65.194343
 30
0.0
 10
122.774127
 20
68.031627
 30
0.0
 10
119.274160
 20
68.031628
 30
0.0
  0
SPLINE
  5
14b
100
AcDbEntity
  8
Layer_1
 62
5
100
AcDbSpline
 70
8
 71
3
 72
8
 73
4
 74
0
 40
0
 40
0
 40
0
 40
0
 40
1
 40
1
 40
1
 40
1
 10
119.274160
 20
68.031628
 30
0.0
 10
115.774193
 20
68.031627
 30
0.0
 10
112.936910
 20
65.194343
 30
0.0
 10
112.936910
 20
61.694375
 30
0.0
  0
LINE
  5
14c
100
AcDbEntity
  8
Layer_1
 62
5
100
AcDbLine
 10
112.936910
 20
61.694375
 30
0.0
 11
112.936910
 21
61.694375
 31
0.0
  0
SPLINE
  5
14d
100
AcDbEntity
  8
Layer_1
 62
5
100
AcDbSpline
 70
8
 71
3
 72
8
 73
4
 74
0
 40
0
 40
0
 40
0
 40
0
 40
1
 40
1
 40
1
 40
1
 10
95.707230
 20
61.694375
 30
0.0
 10
95.707230
 20
60.013630
 30
0.0
 10
96.374904
 20
58.401724
 30
0.0
 10
97.563371
 20
57.213258
 30
0.0
  0
SPLINE
  5
14e
100
AcDbEntity
  8
Layer_1
 62
5
100
AcDbSpline
 70
8
 71
3
 72
8
 73
4
 74
0
 40
0
 40
0
 40
0
 40
0
 40
1
 40
1
 40
1
 40
1
 10
97.563371
 20
57.213258
 30
0.0
 10
98.751838
 20
56.024793
 30
0.0
 10
100.363745
 20
55.357121
 30
0.0
 10
102.044490
 20
55.357123
 30
0.0
  0
SPLINE
  5
14f
100
AcDbEntity
  8
Layer_1
 62
5
100
AcDbSpline
 70
8
 71
3
 72
8
 73
4
 74
0
 40
0
 40
0
 40
0
 40
0
 40
1
 40
1
 40
1
 40
1
 10
102.044490
 20
55.357123
 30
0.0
 10
105.544457
 20
55.357124
 30
0.0
 10
108.381740
 20
58.194408
 30
0.0
 10
108.381740
 20
61.694375
 30
0.0
  0
SPLINE
  5
150
100
AcDbEntity
  8
Layer_1
 62
5
100
AcDbSpline
 70
8
 71
3
 72
8
 73
4
 74
0
 40
0
 40
0
 40
0
 40
0
 40
1
 40
1
 40
1
 40
1
 10
108.381740
 20
61.694375
 30
0.0
 10
108.381740
 20
65.194343
 30
0.0
 10
105.544457
 20
68.031627
 30
0.0
 10
102.044490
 20
68.031628
 30
0.0
  0
SPLINE
  5
151
100
AcDbEntity
  8
Layer_1
 62
5
100
AcDbSpline
 70
8
 71
3
 72
8
 73
4
 74
0
 40
0
 40
0
 40
0
 40
0
 40
1
 40
1
 40
1
 40
1
 10
102.044490
 20
68.031628
 30
0.0
 10
100.363745
 20
68.031630
 30
0.0
 10
98.751838
 20
67.363958
 30
0.0
 10
97.563371
 20
66.175492
 30
0.0
  0
SPLINE
  5
152
100
AcDbEntity
  8
Layer_1
 62
5
100
AcDbSpline
 70
8
 71
3
 72
8
 73
4
 74
0
 40
0
 40
0
 40
0
 40
0
 40
1
 40
1
 40
1
 40
1
 10
97.563371
 20
66.175492
 30
0.0
 10
96.374904
 20
64.987027
 30
0.0
 10
95.707230
 20
63.375121
 30
0.0
 10
95.707230
 20
61.694375
 30
0.0
  0
LINE
  5
153
100
AcDbEntity
  8
Layer_1
 62
5
100
AcDbLine
 10
95.707230
 20
61.694375
 30
0.0
 11
95.707230
 21
61.694375
 31
0.0
  0
SPLINE
  5
154
100
AcDbEntity
  8
Layer_1
 62
5
100
AcDbSpline
 70
8
 71
3
 72
8
 73
4
 74
0
 40
0
 40
0
 40
0
 40
0
 40
1
 40
1
 40
1
 40
1
 10
78.477560
 20
61.694375
 30
0.0
 10
78.477560
 20
58.194408
 30
0.0
 10
81.314843
 20
55.357124
 30
0.0
 10
84.814810
 20
55.357123
 30
0.0
  0
SPLINE
  5
155
100
AcDbEntity
  8
Layer_1
 62
5
100
AcDbSpline
 70
8
 71
3
 72
8
 73
4
 74
0
 40
0
 40
0
 40
0
 40
0
 40
1
 40
1
 40
1
 40
1
 10
84.814810
 20
55.357123
 30
0.0
 10
88.314777
 20
55.357124
 30
0.0
 10
91.152060
 20
58.194408
 30
0.0
 10
91.152060
 20
61.694375
 30
0.0
  0
SPLINE
  5
156
100
AcDbEntity
  8
Layer_1
 62
5
100
AcDbSpline
 70
8
 71
3
 72
8
 73
4
 74
0
 40
0
 40
0
 40
0
 40
0
 40
1
 40
1
 40
1
 40
1
 10
91.152060
 20
61.694375
 30
0.0
 10
91.152060
 20
65.194343
 30
0.0
 10
88.314777
 20
68.031627
 30
0.0
 10
84.814810
 20
68.031628
 30
0.0
  0
SPLINE
  5
157
100
AcDbEntity
  8
Layer_1
 62
5
100
AcDbSpline
 70
8
 71
3
 72
8
 73
4
 74
0
 40
0
 40
0
 40
0
 40
0
 40
1
 40
1
 40
1
 40
1
 10
84.814810
 20
68.031628
 30
0.0
 10
81.314843
 20
68.031627
 30
0.0
 10
78.477560
 20
65.194343
 30
0.0
 10
78.477560
 20
61.694375
 30
0.0
  0
LINE
  5
158
100
AcDbEntity
  8
Layer_1
 62
5
100
AcDbLine
 10
78.477560
 20
61.694375
 30
0.0
 11
78.477560
 21
61.694375
 31
0.0
  0
SPLINE
  5
159
100
AcDbEntity
  8
Layer_1
 62
5
100
AcDbSpline
 70
8
 71
3
 72
8
 73
4
 74
0
 40
0
 40
0
 40
0
 40
0
 40
1
 40
1
 40
1
 40
1
 10
61.247910
 20
61.694375
 30
0.0
 10
61.247910
 20
60.013630
 30
0.0
 10
61.915584
 20
58.401724
 30
0.0
 10
63.104051
 20
57.213258
 30
0.0
  0
SPLINE
  5
15a
100
AcDbEntity
  8
Layer_1
 62
5
100
AcDbSpline
 70
8
 71
3
 72
8
 73
4
 74
0
 40
0
 40
0
 40
0
 40
0
 40
1
 40
1
 40
1
 40
1
 10
63.104051
 20
57.213258
 30
0.0
 10
64.292518
 20
56.024793
 30
0.0
 10
65.904425
 20
55.357121
 30
0.0
 10
67.585170
 20
55.357123
 30
0.0
  0
SPLINE
  5
15b
100
AcDbEntity
  8
Layer_1
 62
5
100
AcDbSpline
 70
8
 71
3
 72
8
 73
4
 74
0
 40
0
 40
0
 40
0
 40
0
 40
1
 40
1
 40
1
 40
1
 10
67.585170
 20
55.357123
 30
0.0
 10
71.085137
 20
55.357124
 30
0.0
 10
73.922420
 20
58.194408
 30
0.0
 10
73.922420
 20
61.694375
 30
0.0
  0
SPLINE
  5
15c
100
AcDbEntity
  8
Layer_1
 62
5
100
AcDbSpline
 70
8
 71
3
 72
8
 73
4
 74
0
 40
0
 40
0
 40
0
 40
0
 40
1
 40
1
 40
1
 40
1
 10
73.922420
 20
61.694375
 30
0.0
 10
73.922420
 20
65.194343
 30
0.0
 10
71.085137
 20
68.031627
 30
0.0
 10
67.585170
 20
68.031628
 30
0.0
  0
SPLINE
  5
15d
100
AcDbEntity
  8
Layer_1
 62
5
100
AcDbSpline
 70
8
 71
3
 72
8
 73
4
 74
0
 40
0
 40
0
 40
0
 40
0
 40
1
 40
1
 40
1
 40
1
 10
67.585170
 20
68.031628
 30
0.0
 10
65.904425
 20
68.031630
 30
0.0
 10
64.292518
 20
67.363958
 30
0.0
 10
63.104051
 20
66.175492
 30
0.0
  0
SPLINE
  5
15e
100
AcDbEntity
  8
Layer_1
 62
5
100
AcDbSpline
 70
8
 71
3
 72
8
 73
4
 74
0
 40
0
 40
0
 40
0
 40
0
 40
1
 40
1
 40
1
 40
1
 10
63.104051
 20
66.175492
 30
0.0
 10
61.915584
 20
64.987027
 30
0.0
 10
61.247910
 20
63.375121
 30
0.0
 10
61.247910
 20
61.694375
 30
0.0
  0
LINE
  5
15f
100
AcDbEntity
  8
Layer_1
 62
5
100
AcDbLine
 10
61.247910
 20
61.694375
 30
0.0
 11
61.247910
 21
61.694375
 31
0.0
  0
SPLINE
  5
160
100
AcDbEntity
  8
Layer_1
 62
5
100
AcDbSpline
 70
8
 71
3
 72
8
 73
4
 74
0
 40
0
 40
0
 40
0
 40
0
 40
1
 40
1
 40
1
 40
1
 10
44.018240
 20
61.694375
 30
0.0
 10
44.018240
 20
58.194408
 30
0.0
 10
46.855523
 20
55.357124
 30
0.0
 10
50.355490
 20
55.357123
 30
0.0
  0
SPLINE
  5
161
100
AcDbEntity
  8
Layer_1
 62
5
100
AcDbSpline
 70
8
 71
3
 72
8
 73
4
 74
0
 40
0
 40
0
 40
0
 40
0
 40
1
 40
1
 40
1
 40
1
 10
50.355490
 20
55.357123
 30
0.0
 10
53.855457
 20
55.357124
 30
0.0
 10
56.692740
 20
58.194408
 30
0.0
 10
56.692740
 20
61.694375
 30
0.0
  0
SPLINE
  5
162
100
AcDbEntity
  8
Layer_1
 62
5
100
AcDbSpline
 70
8
 71
3
 72
8
 73
4
 74
0
 40
0
 40
0
 40
0
 40
0
 40
1
 40
1
 40
1
 40
1
 10
56.692740
 20
61.694375
 30
0.0
 10
56.692740
 20
65.194343
 30
0.0
 10
53.855457
 20
68.031627
 30
0.0
 10
50.355490
 20
68.031628
 30
0.0
  0
SPLINE
  5
163
100
AcDbEntity
  8
Layer_1
 62
5
100
AcDbSpline
 70
8
 71
3
 72
8
 73
4
 74
0
 40
0
 40
0
 40
0
 40
0
 40
1
 40
1
 40
1
 40
1
 10
50.355490
 20
68.031628
 30
0.0
 10
46.855523
 20
68.031627
 30
0.0
 10
44.018240
 20
65.194343
 30
0.0
 10
44.018240
 20
61.694375
 30
0.0
  0
LINE
  5
164
100
AcDbEntity
  8
Layer_1
 62
5
100
AcDbLine
 10
44.018240
 20
61.694375
 30
0.0
 11
44.018240
 21
61.694375
 31
0.0
  0
SPLINE
  5
165
100
AcDbEntity
  8
Layer_1
 62
5
100
AcDbSpline
 70
8
 71
3
 72
8
 73
4
 74
0
 40
0
 40
0
 40
0
 40
0
 40
1
 40
1
 40
1
 40
1
 10
26.788560
 20
61.694375
 30
0.0
 10
26.788560
 20
60.013630
 30
0.0
 10
27.456234
 20
58.401724
 30
0.0
 10
28.644701
 20
57.213258
 30
0.0
  0
SPLINE
  5
166
100
AcDbEntity
  8
Layer_1
 62
5
100
AcDbSpline
 70
8
 71
3
 72
8
 73
4
 74
0
 40
0
 40
0
 40
0
 40
0
 40
1
 40
1
 40
1
 40
1
 10
28.644701
 20
57.213258
 30
0.0
 10
29.833168
 20
56.024793
 30
0.0
 10
31.445075
 20
55.357121
 30
0.0
 10
33.125820
 20
55.357123
 30
0.0
  0
SPLINE
  5
167
100
AcDbEntity
  8
Layer_1
 62
5
100
AcDbSpline
 70
8
 71
3
 72
8
 73
4
 74
0
 40
0
 40
0
 40
0
 40
0
 40
1
 40
1
 40
1
 40
1
 10
33.125820
 20
55.357123
 30
0.0
 10
36.625787
 20
55.357124
 30
0.0
 10
39.463070
 20
58.194408
 30
0.0
 10
39.463070
 20
61.694375
 30
0.0
  0
SPLINE
  5
168
100
AcDbEntity
  8
Layer_1
 62
5
100
AcDbSpline
 70
8
 71
3
 72
8
 73
4
 74
0
 40
0
 40
0
 40
0
 40
0
 40
1
 40
1
 40
1
 40
1
 10
39.463070
 20
61.694375
 30
0.0
 10
39.463070
 20
65.194343
 30
0.0
 10
36.625787
 20
68.031627
 30
0.0
 10
33.125820
 20
68.031628
 30
0.0
  0
SPLINE
  5
169
100
AcDbEntity
  8
Layer_1
 62
5
100
AcDbSpline
 70
8
 71
3
 72
8
 73
4
 74
0
 40
0
 40
0
 40
0
 40
0
 40
1
 40
1
 40
1
 40
1
 10
33.125820
 20
68.031628
 30
0.0
 10
31.445075
 20
68.031630
 30
0.0
 10
29.833168
 20
67.363958
 30
0.0
 10
28.644701
 20
66.175492
 30
0.0
  0
SPLINE
  5
16a
100
AcDbEntity
  8
Layer_1
 62
5
100
AcDbSpline
 70
8
 71
3
 72
8
 73
4
 74
0
 40
0
 40
0
 40
0
 40
0
 40
1
 40
1
 40
1
 40
1
 10
28.644701
 20
66.175492
 30
0.0
 10
27.456234
 20
64.987027
 30
0.0
 10
26.788560
 20
63.375121
 30
0.0
 10
26.788560
 20
61.694375
 30
0.0
  0
LINE
  5
16b
100
AcDbEntity
  8
Layer_1
 62
5
100
AcDbLine
 10
26.788560
 20
61.694375
 30
0.0
 11
26.788560
 21
61.694375
 31
0.0
  0
SPLINE
  5
16c
100
AcDbEntity
  8
Layer_1
 62
5
100
AcDbSpline
 70
8
 71
3
 72
8
 73
4
 74
0
 40
0
 40
0
 40
0
 40
0
 40
1
 40
1
 40
1
 40
1
 10
26.788560
 20
44.466040
 30
0.0
 10
26.788560
 20
42.785295
 30
0.0
 10
27.456234
 20
41.173388
 30
0.0
 10
28.644701
 20
39.984923
 30
0.0
  0
SPLINE
  5
16d
100
AcDbEntity
  8
Layer_1
 62
5
100
AcDbSpline
 70
8
 71
3
 72
8
 73
4
 74
0
 40
0
 40
0
 40
0
 40
0
 40
1
 40
1
 40
1
 40
1
 10
28.644701
 20
39.984923
 30
0.0
 10
29.833168
 20
38.796457
 30
0.0
 10
31.445075
 20
38.128785
 30
0.0
 10
33.125820
 20
38.128787
 30
0.0
  0
SPLINE
  5
16e
100
AcDbEntity
  8
Layer_1
 62
5
100
AcDbSpline
 70
8
 71
3
 72
8
 73
4
 74
0
 40
0
 40
0
 40
0
 40
0
 40
1
 40
1
 40
1
 40
1
 10
33.125820
 20
38.128787
 30
0.0
 10
36.625787
 20
38.128788
 30
0.0
 10
39.463070
 20
40.966073
 30
0.0
 10
39.463070
 20
44.466040
 30
0.0
  0
SPLINE
  5
16f
100
AcDbEntity
  8
Layer_1
 62
5
100
AcDbSpline
 70
8
 71
3
 72
8
 73
4
 74
0
 40
0
 40
0
 40
0
 40
0
 40
1
 40
1
 40
1
 40
1
 10
39.463070
 20
44.466040
 30
0.0
 10
39.463070
 20
47.966007
 30
0.0
 10
36.625787
 20
50.803291
 30
0.0
 10
33.125820
 20
50.803292
 30
0.0
  0
SPLINE
  5
170
100
AcDbEntity
  8
Layer_1
 62
5
100
AcDbSpline
 70
8
 71
3
 72
8
 73
4
 74
0
 40
0
 40
0
 40
0
 40
0
 40
1
 40
1
 40
1
 40
1
 10
33.125820
 20
50.803292
 30
0.0
 10
31.445075
 20
50.803294
 30
0.0
 10
29.833168
 20
50.135622
 30
0.0
 10
28.644701
 20
48.947157
 30
0.0
  0
SPLINE
  5
171
100
AcDbEntity
  8
Layer_1
 62
5
100
AcDbSpline
 70
8
 71
3
 72
8
 73
4
 74
0
 40
0
 40
0
 40
0
 40
0
 40
1
 40
1
 40
1
 40
1
 10
28.644701
 20
48.947157
 30
0.0
 10
27.456234
 20
47.758691
 30
0.0
 10
26.788560
 20
46.146785
 30
0.0
 10
26.788560
 20
44.466040
 30
0.0
  0
LINE
  5
172
100
AcDbEntity
  8
Layer_1
 62
5
100
AcDbLine
 10
26.788560
 20
44.466040
 30
0.0
 11
26.788560
 21
44.466040
 31
0.0
  0
SPLINE
  5
173
100
AcDbEntity
  8
Layer_1
 62
5
100
AcDbSpline
 70
8
 71
3
 72
8
 73
4
 74
0
 40
0
 40
0
 40
0
 40
0
 40
1
 40
1
 40
1
 40
1
 10
44.018240
 20
44.466040
 30
0.0
 10
44.018240
 20
40.966073
 30
0.0
 10
46.855523
 20
38.128788
 30
0.0
 10
50.355490
 20
38.128787
 30
0.0
  0
SPLINE
  5
174
100
AcDbEntity
  8
Layer_1
 62
5
100
AcDbSpline
 70
8
 71
3
 72
8
 73
4
 74
0
 40
0
 40
0
 40
0
 40
0
 40
1
 40
1
 40
1
 40
1
 10
50.355490
 20
38.128787
 30
0.0
 10
53.855457
 20
38.128788
 30
0.0
 10
56.692740
 20
40.966073
 30
0.0
 10
56.692740
 20
44.466040
 30
0.0
  0
SPLINE
  5
175
100
AcDbEntity
  8
Layer_1
 62
5
100
AcDbSpline
 70
8
 71
3
 72
8
 73
4
 74
0
 40
0
 40
0
 40
0
 40
0
 40
1
 40
1
 40
1
 40
1
 10
56.692740
 20
44.466040
 30
0.0
 10
56.692740
 20
47.966007
 30
0.0
 10
53.855457
 20
50.803291
 30
0.0
 10
50.355490
 20
50.803292
 30
0.0
  0
SPLINE
  5
176
100
AcDbEntity
  8
Layer_1
 62
5
100
AcDbSpline
 70
8
 71
3
 72
8
 73
4
 74
0
 40
0
 40
0
 40
0
 40
0
 40
1
 40
1
 40
1
 40
1
 10
50.355490
 20
50.803292
 30
0.0
 10
46.855523
 20
50.803291
 30
0.0
 10
44.018240
 20
47.966007
 30
0.0
 10
44.018240
 20
44.466040
 30
0.0
  0
LINE
  5
177
100
AcDbEntity
  8
Layer_1
 62
5
100
AcDbLine
 10
44.018240
 20
44.466040
 30
0.0
 11
44.018240
 21
44.466040
 31
0.0
  0
SPLINE
  5
178
100
AcDbEntity
  8
Layer_1
 62
5
100
AcDbSpline
 70
8
 71
3
 72
8
 73
4
 74
0
 40
0
 40
0
 40
0
 40
0
 40
1
 40
1
 40
1
 40
1
 10
61.247910
 20
44.466040
 30
0.0
 10
61.247910
 20
42.785295
 30
0.0
 10
61.915584
 20
41.173388
 30
0.0
 10
63.104051
 20
39.984923
 30
0.0
  0
SPLINE
  5
179
100
AcDbEntity
  8
Layer_1
 62
5
100
AcDbSpline
 70
8
 71
3
 72
8
 73
4
 74
0
 40
0
 40
0
 40
0
 40
0
 40
1
 40
1
 40
1
 40
1
 10
63.104051
 20
39.984923
 30
0.0
 10
64.292518
 20
38.796457
 30
0.0
 10
65.904425
 20
38.128785
 30
0.0
 10
67.585170
 20
38.128787
 30
0.0
  0
SPLINE
  5
17a
100
AcDbEntity
  8
Layer_1
 62
5
100
AcDbSpline
 70
8
 71
3
 72
8
 73
4
 74
0
 40
0
 40
0
 40
0
 40
0
 40
1
 40
1
 40
1
 40
1
 10
67.585170
 20
38.128787
 30
0.0
 10
71.085137
 20
38.128788
 30
0.0
 10
73.922420
 20
40.966073
 30
0.0
 10
73.922420
 20
44.466040
 30
0.0
  0
SPLINE
  5
17b
100
AcDbEntity
  8
Layer_1
 62
5
100
AcDbSpline
 70
8
 71
3
 72
8
 73
4
 74
0
 40
0
 40
0
 40
0
 40
0
 40
1
 40
1
 40
1
 40
1
 10
73.922420
 20
44.466040
 30
0.0
 10
73.922420
 20
47.966007
 30
0.0
 10
71.085137
 20
50.803291
 30
0.0
 10
67.585170
 20
50.803292
 30
0.0
  0
SPLINE
  5
17c
100
AcDbEntity
  8
Layer_1
 62
5
100
AcDbSpline
 70
8
 71
3
 72
8
 73
4
 74
0
 40
0
 40
0
 40
0
 40
0
 40
1
 40
1
 40
1
 40
1
 10
67.585170
 20
50.803292
 30
0.0
 10
65.904425
 20
50.803294
 30
0.0
 10
64.292518
 20
50.135622
 30
0.0
 10
63.104051
 20
48.947157
 30
0.0
  0
SPLINE
  5
17d
100
AcDbEntity
  8
Layer_1
 62
5
100
AcDbSpline
 70
8
 71
3
 72
8
 73
4
 74
0
 40
0
 40
0
 40
0
 40
0
 40
1
 40
1
 40
1
 40
1
 10
63.104051
 20
48.947157
 30
0.0
 10
61.915584
 20
47.758691
 30
0.0
 10
61.247910
 20
46.146785
 30
0.0
 10
61.247910
 20
44.466040
 30
0.0
  0
LINE
  5
17e
100
AcDbEntity
  8
Layer_1
 62
5
100
AcDbLine
 10
61.247910
 20
44.466040
 30
0.0
 11
61.247910
 21
44.466040
 31
0.0
  0
SPLINE
  5
17f
100
AcDbEntity
  8
Layer_1
 62
5
100
AcDbSpline
 70
8
 71
3
 72
8
 73
4
 74
0
 40
0
 40
0
 40
0
 40
0
 40
1
 40
1
 40
1
 40
1
 10
78.477560
 20
44.466040
 30
0.0
 10
78.477560
 20
40.966073
 30
0.0
 10
81.314843
 20
38.128788
 30
0.0
 10
84.814810
 20
38.128787
 30
0.0
  0
SPLINE
  5
180
100
AcDbEntity
  8
Layer_1
 62
5
100
AcDbSpline
 70
8
 71
3
 72
8
 73
4
 74
0
 40
0
 40
0
 40
0
 40
0
 40
1
 40
1
 40
1
 40
1
 10
84.814810
 20
38.128787
 30
0.0
 10
88.314777
 20
38.128788
 30
0.0
 10
91.152060
 20
40.966073
 30
0.0
 10
91.152060
 20
44.466040
 30
0.0
  0
SPLINE
  5
181
100
AcDbEntity
  8
Layer_1
 62
5
100
AcDbSpline
 70
8
 71
3
 72
8
 73
4
 74
0
 40
0
 40
0
 40
0
 40
0
 40
1
 40
1
 40
1
 40
1
 10
91.152060
 20
44.466040
 30
0.0
 10
91.152060
 20
47.966007
 30
0.0
 10
88.314777
 20
50.803291
 30
0.0
 10
84.814810
 20
50.803292
 30
0.0
  0
SPLINE
  5
182
100
AcDbEntity
  8
Layer_1
 62
5
100
AcDbSpline
 70
8
 71
3
 72
8
 73
4
 74
0
 40
0
 40
0
 40
0
 40
0
 40
1
 40
1
 40
1
 40
1
 10
84.814810
 20
50.803292
 30
0.0
 10
81.314843
 20
50.803291
 30
0.0
 10
78.477560
 20
47.966007
 30
0.0
 10
78.477560
 20
44.466040
 30
0.0
  0
LINE
  5
183
100
AcDbEntity
  8
Layer_1
 62
5
100
AcDbLine
 10
78.477560
 20
44.466040
 30
0.0
 11
78.477560
 21
44.466040
 31
0.0
  0
SPLINE
  5
184
100
AcDbEntity
  8
Layer_1
 62
5
100
AcDbSpline
 70
8
 71
3
 72
8
 73
4
 74
0
 40
0
 40
0
 40
0
 40
0
 40
1
 40
1
 40
1
 40
1
 10
95.707230
 20
44.466040
 30
0.0
 10
95.707230
 20
42.785295
 30
0.0
 10
96.374904
 20
41.173388
 30
0.0
 10
97.563371
 20
39.984923
 30
0.0
  0
SPLINE
  5
185
100
AcDbEntity
  8
Layer_1
 62
5
100
AcDbSpline
 70
8
 71
3
 72
8
 73
4
 74
0
 40
0
 40
0
 40
0
 40
0
 40
1
 40
1
 40
1
 40
1
 10
97.563371
 20
39.984923
 30
0.0
 10
98.751838
 20
38.796457
 30
0.0
 10
100.363745
 20
38.128785
 30
0.0
 10
102.044490
 20
38.128787
 30
0.0
  0
SPLINE
  5
186
100
AcDbEntity
  8
Layer_1
 62
5
100
AcDbSpline
 70
8
 71
3
 72
8
 73
4
 74
0
 40
0
 40
0
 40
0
 40
0
 40
1
 40
1
 40
1
 40
1
 10
102.044490
 20
38.128787
 30
0.0
 10
105.544457
 20
38.128788
 30
0.0
 10
108.381740
 20
40.966073
 30
0.0
 10
108.381740
 20
44.466040
 30
0.0
  0
SPLINE
  5
187
100
AcDbEntity
  8
Layer_1
 62
5
100
AcDbSpline
 70
8
 71
3
 72
8
 73
4
 74
0
 40
0
 40
0
 40
0
 40
0
 40
1
 40
1
 40
1
 40
1
 10
108.381740
 20
44.466040
 30
0.0
 10
108.381740
 20
47.966007
 30
0.0
 10
105.544457
 20
50.803291
 30
0.0
 10
102.044490
 20
50.803292
 30
0.0
  0
SPLINE
  5
188
100
AcDbEntity
  8
Layer_1
 62
5
100
AcDbSpline
 70
8
 71
3
 72
8
 73
4
 74
0
 40
0
 40
0
 40
0
 40
0
 40
1
 40
1
 40
1
 40
1
 10
102.044490
 20
50.803292
 30
0.0
 10
100.363745
 20
50.803294
 30
0.0
 10
98.751838
 20
50.135622
 30
0.0
 10
97.563371
 20
48.947157
 30
0.0
  0
SPLINE
  5
189
100
AcDbEntity
  8
Layer_1
 62
5
100
AcDbSpline
 70
8
 71
3
 72
8
 73
4
 74
0
 40
0
 40
0
 40
0
 40
0
 40
1
 40
1
 40
1
 40
1
 10
97.563371
 20
48.947157
 30
0.0
 10
96.374904
 20
47.758691
 30
0.0
 10
95.707230
 20
46.146785
 30
0.0
 10
95.707230
 20
44.466040
 30
0.0
  0
LINE
  5
18a
100
AcDbEntity
  8
Layer_1
 62
5
100
AcDbLine
 10
95.707230
 20
44.466040
 30
0.0
 11
95.707230
 21
44.466040
 31
0.0
  0
SPLINE
  5
18b
100
AcDbEntity
  8
Layer_1
 62
5
100
AcDbSpline
 70
8
 71
3
 72
8
 73
4
 74
0
 40
0
 40
0
 40
0
 40
0
 40
1
 40
1
 40
1
 40
1
 10
112.936910
 20
44.466040
 30
0.0
 10
112.936910
 20
40.966073
 30
0.0
 10
115.774193
 20
38.128788
 30
0.0
 10
119.274160
 20
38.128787
 30
0.0
  0
SPLINE
  5
18c
100
AcDbEntity
  8
Layer_1
 62
5
100
AcDbSpline
 70
8
 71
3
 72
8
 73
4
 74
0
 40
0
 40
0
 40
0
 40
0
 40
1
 40
1
 40
1
 40
1
 10
119.274160
 20
38.128787
 30
0.0
 10
122.774127
 20
38.128788
 30
0.0
 10
125.611410
 20
40.966073
 30
0.0
 10
125.611410
 20
44.466040
 30
0.0
  0
SPLINE
  5
18d
100
AcDbEntity
  8
Layer_1
 62
5
100
AcDbSpline
 70
8
 71
3
 72
8
 73
4
 74
0
 40
0
 40
0
 40
0
 40
0
 40
1
 40
1
 40
1
 40
1
 10
125.611410
 20
44.466040
 30
0.0
 10
125.611410
 20
47.966007
 30
0.0
 10
122.774127
 20
50.803291
 30
0.0
 10
119.274160
 20
50.803292
 30
0.0
  0
SPLINE
  5
18e
100
AcDbEntity
  8
Layer_1
 62
5
100
AcDbSpline
 70
8
 71
3
 72
8
 73
4
 74
0
 40
0
 40
0
 40
0
 40
0
 40
1
 40
1
 40
1
 40
1
 10
119.274160
 20
50.803292
 30
0.0
 10
115.774193
 20
50.803291
 30
0.0
 10
112.936910
 20
47.966007
 30
0.0
 10
112.936910
 20
44.466040
 30
0.0
  0
LINE
  5
18f
100
AcDbEntity
  8
Layer_1
 62
5
100
AcDbLine
 10
112.936910
 20
44.466040
 30
0.0
 11
112.936910
 21
44.466040
 31
0.0
  0
SPLINE
  5
190
100
AcDbEntity
  8
Layer_1
 62
5
100
AcDbSpline
 70
8
 71
3
 72
8
 73
4
 74
0
 40
0
 40
0
 40
0
 40
0
 40
1
 40
1
 40
1
 40
1
 10
112.936910
 20
27.237694
 30
0.0
 10
112.936910
 20
23.737727
 30
0.0
 10
115.774193
 20
20.900442
 30
0.0
 10
119.274160
 20
20.900441
 30
0.0
  0
SPLINE
  5
191
100
AcDbEntity
  8
Layer_1
 62
5
100
AcDbSpline
 70
8
 71
3
 72
8
 73
4
 74
0
 40
0
 40
0
 40
0
 40
0
 40
1
 40
1
 40
1
 40
1
 10
119.274160
 20
20.900441
 30
0.0
 10
122.774127
 20
20.900442
 30
0.0
 10
125.611410
 20
23.737727
 30
0.0
 10
125.611410
 20
27.237694
 30
0.0
  0
SPLINE
  5
192
100
AcDbEntity
  8
Layer_1
 62
5
100
AcDbSpline
 70
8
 71
3
 72
8
 73
4
 74
0
 40
0
 40
0
 40
0
 40
0
 40
1
 40
1
 40
1
 40
1
 10
125.611410
 20
27.237694
 30
0.0
 10
125.611410
 20
30.737661
 30
0.0
 10
122.774127
 20
33.574946
 30
0.0
 10
119.274160
 20
33.574947
 30
0.0
  0
SPLINE
  5
193
100
AcDbEntity
  8
Layer_1
 62
5
100
AcDbSpline
 70
8
 71
3
 72
8
 73
4
 74
0
 40
0
 40
0
 40
0
 40
0
 40
1
 40
1
 40
1
 40
1
 10
119.274160
 20
33.574947
 30
0.0
 10
115.774193
 20
33.574946
 30
0.0
 10
112.936910
 20
30.737661
 30
0.0
 10
112.936910
 20
27.237694
 30
0.0
  0
LINE
  5
194
100
AcDbEntity
  8
Layer_1
 62
5
100
AcDbLine
 10
112.936910
 20
27.237694
 30
0.0
 11
112.936910
 21
27.237694
 31
0.0
  0
SPLINE
  5
195
100
AcDbEntity
  8
Layer_1
 62
5
100
AcDbSpline
 70
8
 71
3
 72
8
 73
4
 74
0
 40
0
 40
0
 40
0
 40
0
 40
1
 40
1
 40
1
 40
1
 10
95.707230
 20
27.237694
 30
0.0
 10
95.707230
 20
25.556949
 30
0.0
 10
96.374904
 20
23.945042
 30
0.0
 10
97.563371
 20
22.756577
 30
0.0
  0
SPLINE
  5
196
100
AcDbEntity
  8
Layer_1
 62
5
100
AcDbSpline
 70
8
 71
3
 72
8
 73
4
 74
0
 40
0
 40
0
 40
0
 40
0
 40
1
 40
1
 40
1
 40
1
 10
97.563371
 20
22.756577
 30
0.0
 10
98.751838
 20
21.568111
 30
0.0
 10
100.363745
 20
20.900439
 30
0.0
 10
102.044490
 20
20.900441
 30
0.0
  0
SPLINE
  5
197
100
AcDbEntity
  8
Layer_1
 62
5
100
AcDbSpline
 70
8
 71
3
 72
8
 73
4
 74
0
 40
0
 40
0
 40
0
 40
0
 40
1
 40
1
 40
1
 40
1
 10
102.044490
 20
20.900441
 30
0.0
 10
105.544457
 20
20.900442
 30
0.0
 10
108.381740
 20
23.737727
 30
0.0
 10
108.381740
 20
27.237694
 30
0.0
  0
SPLINE
  5
198
100
AcDbEntity
  8
Layer_1
 62
5
100
AcDbSpline
 70
8
 71
3
 72
8
 73
4
 74
0
 40
0
 40
0
 40
0
 40
0
 40
1
 40
1
 40
1
 40
1
 10
108.381740
 20
27.237694
 30
0.0
 10
108.381740
 20
30.737661
 30
0.0
 10
105.544457
 20
33.574946
 30
0.0
 10
102.044490
 20
33.574947
 30
0.0
  0
SPLINE
  5
199
100
AcDbEntity
  8
Layer_1
 62
5
100
AcDbSpline
 70
8
 71
3
 72
8
 73
4
 74
0
 40
0
 40
0
 40
0
 40
0
 40
1
 40
1
 40
1
 40
1
 10
102.044490
 20
33.574947
 30
0.0
 10
100.363745
 20
33.574949
 30
0.0
 10
98.751838
 20
32.907277
 30
0.0
 10
97.563371
 20
31.718811
 30
0.0
  0
SPLINE
  5
19a
100
AcDbEntity
  8
Layer_1
 62
5
100
AcDbSpline
 70
8
 71
3
 72
8
 73
4
 74
0
 40
0
 40
0
 40
0
 40
0
 40
1
 40
1
 40
1
 40
1
 10
97.563371
 20
31.718811
 30
0.0
 10
96.374904
 20
30.530346
 30
0.0
 10
95.707230
 20
28.918439
 30
0.0
 10
95.707230
 20
27.237694
 30
0.0
  0
LINE
  5
19b
100
AcDbEntity
  8
Layer_1
 62
5
100
AcDbLine
 10
95.707230
 20
27.237694
 30
0.0
 11
95.707230
 21
27.237694
 31
0.0
  0
SPLINE
  5
19c
100
AcDbEntity
  8
Layer_1
 62
5
100
AcDbSpline
 70
8
 71
3
 72
8
 73
4
 74
0
 40
0
 40
0
 40
0
 40
0
 40
1
 40
1
 40
1
 40
1
 10
78.477560
 20
27.237694
 30
0.0
 10
78.477560
 20
23.737727
 30
0.0
 10
81.314843
 20
20.900442
 30
0.0
 10
84.814810
 20
20.900441
 30
0.0
  0
SPLINE
  5
19d
100
AcDbEntity
  8
Layer_1
 62
5
100
AcDbSpline
 70
8
 71
3
 72
8
 73
4
 74
0
 40
0
 40
0
 40
0
 40
0
 40
1
 40
1
 40
1
 40
1
 10
84.814810
 20
20.900441
 30
0.0
 10
88.314777
 20
20.900442
 30
0.0
 10
91.152060
 20
23.737727
 30
0.0
 10
91.152060
 20
27.237694
 30
0.0
  0
SPLINE
  5
19e
100
AcDbEntity
  8
Layer_1
 62
5
100
AcDbSpline
 70
8
 71
3
 72
8
 73
4
 74
0
 40
0
 40
0
 40
0
 40
0
 40
1
 40
1
 40
1
 40
1
 10
91.152060
 20
27.237694
 30
0.0
 10
91.152060
 20
30.737661
 30
0.0
 10
88.314777
 20
33.574946
 30
0.0
 10
84.814810
 20
33.574947
 30
0.0
  0
SPLINE
  5
19f
100
AcDbEntity
  8
Layer_1
 62
5
100
AcDbSpline
 70
8
 71
3
 72
8
 73
4
 74
0
 40
0
 40
0
 40
0
 40
0
 40
1
 40
1
 40
1
 40
1
 10
84.814810
 20
33.574947
 30
0.0
 10
81.314843
 20
33.574946
 30
0.0
 10
78.477560
 20
30.737661
 30
0.0
 10
78.477560
 20
27.237694
 30
0.0
  0
LINE
  5
1a0
100
AcDbEntity
  8
Layer_1
 62
5
100
AcDbLine
 10
78.477560
 20
27.237694
 30
0.0
 11
78.477560
 21
27.237694
 31
0.0
  0
SPLINE
  5
1a1
100
AcDbEntity
  8
Layer_1
 62
5
100
AcDbSpline
 70
8
 71
3
 72
8
 73
4
 74
0
 40
0
 40
0
 40
0
 40
0
 40
1
 40
1
 40
1
 40
1
 10
61.247910
 20
27.237694
 30
0.0
 10
61.247910
 20
25.556949
 30
0.0
 10
61.915584
 20
23.945042
 30
0.0
 10
63.104051
 20
22.756577
 30
0.0
  0
SPLINE
  5
1a2
100
AcDbEntity
  8
Layer_1
 62
5
100
AcDbSpline
 70
8
 71
3
 72
8
 73
4
 74
0
 40
0
 40
0
 40
0
 40
0
 40
1
 40
1
 40
1
 40
1
 10
63.104051
 20
22.756577
 30
0.0
 10
64.292518
 20
21.568111
 30
0.0
 10
65.904425
 20
20.900439
 30
0.0
 10
67.585170
 20
20.900441
 30
0.0
  0
SPLINE
  5
1a3
100
AcDbEntity
  8
Layer_1
 62
5
100
AcDbSpline
 70
8
 71
3
 72
8
 73
4
 74
0
 40
0
 40
0
 40
0
 40
0
 40
1
 40
1
 40
1
 40
1
 10
67.585170
 20
20.900441
 30
0.0
 10
71.085137
 20
20.900442
 30
0.0
 10
73.922420
 20
23.737727
 30
0.0
 10
73.922420
 20
27.237694
 30
0.0
  0
SPLINE
  5
1a4
100
AcDbEntity
  8
Layer_1
 62
5
100
AcDbSpline
 70
8
 71
3
 72
8
 73
4
 74
0
 40
0
 40
0
 40
0
 40
0
 40
1
 40
1
 40
1
 40
1
 10
73.922420
 20
27.237694
 30
0.0
 10
73.922420
 20
30.737661
 30
0.0
 10
71.085137
 20
33.574946
 30
0.0
 10
67.585170
 20
33.574947
 30
0.0
  0
SPLINE
  5
1a5
100
AcDbEntity
  8
Layer_1
 62
5
100
AcDbSpline
 70
8
 71
3
 72
8
 73
4
 74
0
 40
0
 40
0
 40
0
 40
0
 40
1
 40
1
 40
1
 40
1
 10
67.585170
 20
33.574947
 30
0.0
 10
65.904425
 20
33.574949
 30
0.0
 10
64.292518
 20
32.907277
 30
0.0
 10
63.104051
 20
31.718811
 30
0.0
  0
SPLINE
  5
1a6
100
AcDbEntity
  8
Layer_1
 62
5
100
AcDbSpline
 70
8
 71
3
 72
8
 73
4
 74
0
 40
0
 40
0
 40
0
 40
0
 40
1
 40
1
 40
1
 40
1
 10
63.104051
 20
31.718811
 30
0.0
 10
61.915584
 20
30.530346
 30
0.0
 10
61.247910
 20
28.918439
 30
0.0
 10
61.247910
 20
27.237694
 30
0.0
  0
LINE
  5
1a7
100
AcDbEntity
  8
Layer_1
 62
5
100
AcDbLine
 10
61.247910
 20
27.237694
 30
0.0
 11
61.247910
 21
27.237694
 31
0.0
  0
SPLINE
  5
1a8
100
AcDbEntity
  8
Layer_1
 62
5
100
AcDbSpline
 70
8
 71
3
 72
8
 73
4
 74
0
 40
0
 40
0
 40
0
 40
0
 40
1
 40
1
 40
1
 40
1
 10
44.018240
 20
27.237694
 30
0.0
 10
44.018240
 20
23.737727
 30
0.0
 10
46.855523
 20
20.900442
 30
0.0
 10
50.355490
 20
20.900441
 30
0.0
  0
SPLINE
  5
1a9
100
AcDbEntity
  8
Layer_1
 62
5
100
AcDbSpline
 70
8
 71
3
 72
8
 73
4
 74
0
 40
0
 40
0
 40
0
 40
0
 40
1
 40
1
 40
1
 40
1
 10
50.355490
 20
20.900441
 30
0.0
 10
53.855457
 20
20.900442
 30
0.0
 10
56.692740
 20
23.737727
 30
0.0
 10
56.692740
 20
27.237694
 30
0.0
  0
SPLINE
  5
1aa
100
AcDbEntity
  8
Layer_1
 62
5
100
AcDbSpline
 70
8
 71
3
 72
8
 73
4
 74
0
 40
0
 40
0
 40
0
 40
0
 40
1
 40
1
 40
1
 40
1
 10
56.692740
 20
27.237694
 30
0.0
 10
56.692740
 20
30.737661
 30
0.0
 10
53.855457
 20
33.574946
 30
0.0
 10
50.355490
 20
33.574947
 30
0.0
  0
SPLINE
  5
1ab
100
AcDbEntity
  8
Layer_1
 62
5
100
AcDbSpline
 70
8
 71
3
 72
8
 73
4
 74
0
 40
0
 40
0
 40
0
 40
0
 40
1
 40
1
 40
1
 40
1
 10
50.355490
 20
33.574947
 30
0.0
 10
46.855523
 20
33.574946
 30
0.0
 10
44.018240
 20
30.737661
 30
0.0
 10
44.018240
 20
27.237694
 30
0.0
  0
LINE
  5
1ac
100
AcDbEntity
  8
Layer_1
 62
5
100
AcDbLine
 10
44.018240
 20
27.237694
 30
0.0
 11
44.018240
 21
27.237694
 31
0.0
  0
SPLINE
  5
1ad
100
AcDbEntity
  8
Layer_1
 62
5
100
AcDbSpline
 70
8
 71
3
 72
8
 73
4
 74
0
 40
0
 40
0
 40
0
 40
0
 40
1
 40
1
 40
1
 40
1
 10
26.788560
 20
27.237694
 30
0.0
 10
26.788560
 20
25.556949
 30
0.0
 10
27.456234
 20
23.945042
 30
0.0
 10
28.644701
 20
22.756577
 30
0.0
  0
SPLINE
  5
1ae
100
AcDbEntity
  8
Layer_1
 62
5
100
AcDbSpline
 70
8
 71
3
 72
8
 73
4
 74
0
 40
0
 40
0
 40
0
 40
0
 40
1
 40
1
 40
1
 40
1
 10
28.644701
 20
22.756577
 30
0.0
 10
29.833168
 20
21.568111
 30
0.0
 10
31.445075
 20
20.900439
 30
0.0
 10
33.125820
 20
20.900441
 30
0.0
  0
SPLINE
  5
1af
100
AcDbEntity
  8
Layer_1
 62
5
100
AcDbSpline
 70
8
 71
3
 72
8
 73
4
 74
0
 40
0
 40
0
 40
0
 40
0
 40
1
 40
1
 40
1
 40
1
 10
33.125820
 20
20.900441
 30
0.0
 10
36.625787
 20
20.900442
 30
0.0
 10
39.463070
 20
23.737727
 30
0.0
 10
39.463070
 20
27.237694
 30
0.0
  0
SPLINE
  5
1b0
100
AcDbEntity
  8
Layer_1
 62
5
100
AcDbSpline
 70
8
 71
3
 72
8
 73
4
 74
0
 40
0
 40
0
 40
0
 40
0
 40
1
 40
1
 40
1
 40
1
 10
39.463070
 20
27.237694
 30
0.0
 10
39.463070
 20
30.737661
 30
0.0
 10
36.625787
 20
33.574946
 30
0.0
 10
33.125820
 20
33.574947
 30
0.0
  0
SPLINE
  5
1b1
100
AcDbEntity
  8
Layer_1
 62
5
100
AcDbSpline
 70
8
 71
3
 72
8
 73
4
 74
0
 40
0
 40
0
 40
0
 40
0
 40
1
 40
1
 40
1
 40
1
 10
33.125820
 20
33.574947
 30
0.0
 10
31.445075
 20
33.574949
 30
0.0
 10
29.833168
 20
32.907277
 30
0.0
 10
28.644701
 20
31.718811
 30
0.0
  0
SPLINE
  5
1b2
100
AcDbEntity
  8
Layer_1
 62
5
100
AcDbSpline
 70
8
 71
3
 72
8
 73
4
 74
0
 40
0
 40
0
 40
0
 40
0
 40
1
 40
1
 40
1
 40
1
 10
28.644701
 20
31.718811
 30
0.0
 10
27.456234
 20
30.530346
 30
0.0
 10
26.788560
 20
28.918439
 30
0.0
 10
26.788560
 20
27.237694
 30
0.0
  0
LINE
  5
1b3
100
AcDbEntity
  8
Layer_1
 62
5
100
AcDbLine
 10
26.788560
 20
27.237694
 30
0.0
 11
26.788560
 21
27.237694
 31
0.0
  0
SPLINE
  5
1b4
100
AcDbEntity
  8
Layer_1
 62
5
100
AcDbSpline
 70
8
 71
3
 72
8
 73
4
 74
0
 40
0
 40
0
 40
0
 40
0
 40
1
 40
1
 40
1
 40
1
 10
27.387360
 20
96.151035
 30
0.0
 10
27.387360
 20
94.629101
 30
0.0
 10
27.991946
 20
93.169502
 30
0.0
 10
29.068116
 20
92.093332
 30
0.0
  0
SPLINE
  5
1b5
100
AcDbEntity
  8
Layer_1
 62
5
100
AcDbSpline
 70
8
 71
3
 72
8
 73
4
 74
0
 40
0
 40
0
 40
0
 40
0
 40
1
 40
1
 40
1
 40
1
 10
29.068116
 20
92.093332
 30
0.0
 10
30.144286
 20
91.017163
 30
0.0
 10
31.603886
 20
90.412577
 30
0.0
 10
33.125820
 20
90.412578
 30
0.0
  0
SPLINE
  5
1b6
100
AcDbEntity
  8
Layer_1
 62
5
100
AcDbSpline
 70
8
 71
3
 72
8
 73
4
 74
0
 40
0
 40
0
 40
0
 40
0
 40
1
 40
1
 40
1
 40
1
 10
33.125820
 20
90.412578
 30
0.0
 10
36.295080
 20
90.412582
 30
0.0
 10
38.864270
 20
92.981775
 30
0.0
 10
38.864270
 20
96.151035
 30
0.0
  0
SPLINE
  5
1b7
100
AcDbEntity
  8
Layer_1
 62
5
100
AcDbSpline
 70
8
 71
3
 72
8
 73
4
 74
0
 40
0
 40
0
 40
0
 40
0
 40
1
 40
1
 40
1
 40
1
 10
38.864270
 20
96.151035
 30
0.0
 10
38.864270
 20
99.320295
 30
0.0
 10
36.295080
 20
101.889489
 30
0.0
 10
33.125820
 20
101.889493
 30
0.0
  0
SPLINE
  5
1b8
100
AcDbEntity
  8
Layer_1
 62
5
100
AcDbSpline
 70
8
 71
3
 72
8
 73
4
 74
0
 40
0
 40
0
 40
0
 40
0
 40
1
 40
1
 40
1
 40
1
 10
33.125820
 20
101.889493
 30
0.0
 10
31.603886
 20
101.889494
 30
0.0
 10
30.144286
 20
101.284908
 30
0.0
 10
29.068116
 20
100.208739
 30
0.0
  0
SPLINE
  5
1b9
100
AcDbEntity
  8
Layer_1
 62
5
100
AcDbSpline
 70
8
 71
3
 72
8
 73
4
 74
0
 40
0
 40
0
 40
0
 40
0
 40
1
 40
1
 40
1
 40
1
 10
29.068116
 20
100.208739
 30
0.0
 10
27.991946
 20
99.132569
 30
0.0
 10
27.387360
 20
97.672969
 30
0.0
 10
27.387360
 20
96.151035
 30
0.0
  0
LINE
  5
1ba
100
AcDbEntity
  8
Layer_1
 62
5
100
AcDbLine
 10
27.387360
 20
96.151035
 30
0.0
 11
27.387360
 21
96.151035
 31
0.0
  0
SPLINE
  5
1bb
100
AcDbEntity
  8
Layer_1
 62
5
100
AcDbSpline
 70
8
 71
3
 72
8
 73
4
 74
0
 40
0
 40
0
 40
0
 40
0
 40
1
 40
1
 40
1
 40
1
 10
44.617030
 20
96.151035
 30
0.0
 10
44.617030
 20
94.629101
 30
0.0
 10
45.221616
 20
93.169502
 30
0.0
 10
46.297786
 20
92.093332
 30
0.0
  0
SPLINE
  5
1bc
100
AcDbEntity
  8
Layer_1
 62
5
100
AcDbSpline
 70
8
 71
3
 72
8
 73
4
 74
0
 40
0
 40
0
 40
0
 40
0
 40
1
 40
1
 40
1
 40
1
 10
46.297786
 20
92.093332
 30
0.0
 10
47.373956
 20
91.017163
 30
0.0
 10
48.833556
 20
90.412577
 30
0.0
 10
50.355490
 20
90.412578
 30
0.0
  0
SPLINE
  5
1bd
100
AcDbEntity
  8
Layer_1
 62
5
100
AcDbSpline
 70
8
 71
3
 72
8
 73
4
 74
0
 40
0
 40
0
 40
0
 40
0
 40
1
 40
1
 40
1
 40
1
 10
50.355490
 20
90.412578
 30
0.0
 10
51.877424
 20
90.412577
 30
0.0
 10
53.337024
 20
91.017163
 30
0.0
 10
54.413194
 20
92.093332
 30
0.0
  0
SPLINE
  5
1be
100
AcDbEntity
  8
Layer_1
 62
5
100
AcDbSpline
 70
8
 71
3
 72
8
 73
4
 74
0
 40
0
 40
0
 40
0
 40
0
 40
1
 40
1
 40
1
 40
1
 10
54.413194
 20
92.093332
 30
0.0
 10
55.489364
 20
93.169502
 30
0.0
 10
56.093950
 20
94.629101
 30
0.0
 10
56.093950
 20
96.151035
 30
0.0
  0
SPLINE
  5
1bf
100
AcDbEntity
  8
Layer_1
 62
5
100
AcDbSpline
 70
8
 71
3
 72
8
 73
4
 74
0
 40
0
 40
0
 40
0
 40
0
 40
1
 40
1
 40
1
 40
1
 10
56.093950
 20
96.151035
 30
0.0
 10
56.093950
 20
97.672969
 30
0.0
 10
55.489364
 20
99.132569
 30
0.0
 10
54.413194
 20
100.208739
 30
0.0
  0
SPLINE
  5
1c0
100
AcDbEntity
  8
Layer_1
 62
5
100
AcDbSpline
 70
8
 71
3
 72
8
 73
4
 74
0
 40
0
 40
0
 40
0
 40
0
 40
1
 40
1
 40
1
 40
1
 10
54.413194
 20
100.208739
 30
0.0
 10
53.337024
 20
101.284908
 30
0.0
 10
51.877424
 20
101.889494
 30
0.0
 10
50.355490
 20
101.889493
 30
0.0
  0
SPLINE
  5
1c1
100
AcDbEntity
  8
Layer_1
 62
5
100
AcDbSpline
 70
8
 71
3
 72
8
 73
4
 74
0
 40
0
 40
0
 40
0
 40
0
 40
1
 40
1
 40
1
 40
1
 10
50.355490
 20
101.889493
 30
0.0
 10
48.833556
 20
101.889494
 30
0.0
 10
47.373956
 20
101.284908
 30
0.0
 10
46.297786
 20
100.208739
 30
0.0
  0
SPLINE
  5
1c2
100
AcDbEntity
  8
Layer_1
 62
5
100
AcDbSpline
 70
8
 71
3
 72
8
 73
4
 74
0
 40
0
 40
0
 40
0
 40
0
 40
1
 40
1
 40
1
 40
1
 10
46.297786
 20
100.208739
 30
0.0
 10
45.221616
 20
99.132569
 30
0.0
 10
44.617030
 20
97.672969
 30
0.0
 10
44.617030
 20
96.151035
 30
0.0
  0
LINE
  5
1c3
100
AcDbEntity
  8
Layer_1
 62
5
100
AcDbLine
 10
44.617030
 20
96.151035
 30
0.0
 11
44.617030
 21
96.151035
 31
0.0
  0
SPLINE
  5
1c4
100
AcDbEntity
  8
Layer_1
 62
5
100
AcDbSpline
 70
8
 71
3
 72
8
 73
4
 74
0
 40
0
 40
0
 40
0
 40
0
 40
1
 40
1
 40
1
 40
1
 10
61.846710
 20
96.151035
 30
0.0
 10
61.846710
 20
94.629101
 30
0.0
 10
62.451296
 20
93.169502
 30
0.0
 10
63.527466
 20
92.093332
 30
0.0
  0
SPLINE
  5
1c5
100
AcDbEntity
  8
Layer_1
 62
5
100
AcDbSpline
 70
8
 71
3
 72
8
 73
4
 74
0
 40
0
 40
0
 40
0
 40
0
 40
1
 40
1
 40
1
 40
1
 10
63.527466
 20
92.093332
 30
0.0
 10
64.603636
 20
91.017163
 30
0.0
 10
66.063236
 20
90.412577
 30
0.0
 10
67.585170
 20
90.412578
 30
0.0
  0
SPLINE
  5
1c6
100
AcDbEntity
  8
Layer_1
 62
5
100
AcDbSpline
 70
8
 71
3
 72
8
 73
4
 74
0
 40
0
 40
0
 40
0
 40
0
 40
1
 40
1
 40
1
 40
1
 10
67.585170
 20
90.412578
 30
0.0
 10
70.754430
 20
90.412582
 30
0.0
 10
73.323620
 20
92.981776
 30
0.0
 10
73.323620
 20
96.151035
 30
0.0
  0
SPLINE
  5
1c7
100
AcDbEntity
  8
Layer_1
 62
5
100
AcDbSpline
 70
8
 71
3
 72
8
 73
4
 74
0
 40
0
 40
0
 40
0
 40
0
 40
1
 40
1
 40
1
 40
1
 10
73.323620
 20
96.151035
 30
0.0
 10
73.323620
 20
99.320295
 30
0.0
 10
70.754430
 20
101.889489
 30
0.0
 10
67.585170
 20
101.889493
 30
0.0
  0
SPLINE
  5
1c8
100
AcDbEntity
  8
Layer_1
 62
5
100
AcDbSpline
 70
8
 71
3
 72
8
 73
4
 74
0
 40
0
 40
0
 40
0
 40
0
 40
1
 40
1
 40
1
 40
1
 10
67.585170
 20
101.889493
 30
0.0
 10
66.063236
 20
101.889494
 30
0.0
 10
64.603636
 20
101.284908
 30
0.0
 10
63.527466
 20
100.208739
 30
0.0
  0
SPLINE
  5
1c9
100
AcDbEntity
  8
Layer_1
 62
5
100
AcDbSpline
 70
8
 71
3
 72
8
 73
4
 74
0
 40
0
 40
0
 40
0
 40
0
 40
1
 40
1
 40
1
 40
1
 10
63.527466
 20
100.208739
 30
0.0
 10
62.451296
 20
99.132569
 30
0.0
 10
61.846710
 20
97.672969
 30
0.0
 10
61.846710
 20
96.151035
 30
0.0
  0
LINE
  5
1ca
100
AcDbEntity
  8
Layer_1
 62
5
100
AcDbLine
 10
61.846710
 20
96.151035
 30
0.0
 11
61.846710
 21
96.151035
 31
0.0
  0
SPLINE
  5
1cb
100
AcDbEntity
  8
Layer_1
 62
5
100
AcDbSpline
 70
8
 71
3
 72
8
 73
4
 74
0
 40
0
 40
0
 40
0
 40
0
 40
1
 40
1
 40
1
 40
1
 10
79.076350
 20
96.151035
 30
0.0
 10
79.076350
 20
94.629101
 30
0.0
 10
79.680936
 20
93.169502
 30
0.0
 10
80.757106
 20
92.093332
 30
0.0
  0
SPLINE
  5
1cc
100
AcDbEntity
  8
Layer_1
 62
5
100
AcDbSpline
 70
8
 71
3
 72
8
 73
4
 74
0
 40
0
 40
0
 40
0
 40
0
 40
1
 40
1
 40
1
 40
1
 10
80.757106
 20
92.093332
 30
0.0
 10
81.833276
 20
91.017163
 30
0.0
 10
83.292876
 20
90.412577
 30
0.0
 10
84.814810
 20
90.412578
 30
0.0
  0
SPLINE
  5
1cd
100
AcDbEntity
  8
Layer_1
 62
5
100
AcDbSpline
 70
8
 71
3
 72
8
 73
4
 74
0
 40
0
 40
0
 40
0
 40
0
 40
1
 40
1
 40
1
 40
1
 10
84.814810
 20
90.412578
 30
0.0
 10
86.336744
 20
90.412577
 30
0.0
 10
87.796344
 20
91.017163
 30
0.0
 10
88.872514
 20
92.093332
 30
0.0
  0
SPLINE
  5
1ce
100
AcDbEntity
  8
Layer_1
 62
5
100
AcDbSpline
 70
8
 71
3
 72
8
 73
4
 74
0
 40
0
 40
0
 40
0
 40
0
 40
1
 40
1
 40
1
 40
1
 10
88.872514
 20
92.093332
 30
0.0
 10
89.948684
 20
93.169502
 30
0.0
 10
90.553270
 20
94.629101
 30
0.0
 10
90.553270
 20
96.151035
 30
0.0
  0
SPLINE
  5
1cf
100
AcDbEntity
  8
Layer_1
 62
5
100
AcDbSpline
 70
8
 71
3
 72
8
 73
4
 74
0
 40
0
 40
0
 40
0
 40
0
 40
1
 40
1
 40
1
 40
1
 10
90.553270
 20
96.151035
 30
0.0
 10
90.553270
 20
97.672969
 30
0.0
 10
89.948684
 20
99.132569
 30
0.0
 10
88.872514
 20
100.208739
 30
0.0
  0
SPLINE
  5
1d0
100
AcDbEntity
  8
Layer_1
 62
5
100
AcDbSpline
 70
8
 71
3
 72
8
 73
4
 74
0
 40
0
 40
0
 40
0
 40
0
 40
1
 40
1
 40
1
 40
1
 10
88.872514
 20
100.208739
 30
0.0
 10
87.796344
 20
101.284908
 30
0.0
 10
86.336744
 20
101.889494
 30
0.0
 10
84.814810
 20
101.889493
 30
0.0
  0
SPLINE
  5
1d1
100
AcDbEntity
  8
Layer_1
 62
5
100
AcDbSpline
 70
8
 71
3
 72
8
 73
4
 74
0
 40
0
 40
0
 40
0
 40
0
 40
1
 40
1
 40
1
 40
1
 10
84.814810
 20
101.889493
 30
0.0
 10
83.292876
 20
101.889494
 30
0.0
 10
81.833276
 20
101.284908
 30
0.0
 10
80.757106
 20
100.208739
 30
0.0
  0
SPLINE
  5
1d2
100
AcDbEntity
  8
Layer_1
 62
5
100
AcDbSpline
 70
8
 71
3
 72
8
 73
4
 74
0
 40
0
 40
0
 40
0
 40
0
 40
1
 40
1
 40
1
 40
1
 10
80.757106
 20
100.208739
 30
0.0
 10
79.680936
 20
99.132569
 30
0.0
 10
79.076350
 20
97.672969
 30
0.0
 10
79.076350
 20
96.151035
 30
0.0
  0
LINE
  5
1d3
100
AcDbEntity
  8
Layer_1
 62
5
100
AcDbLine
 10
79.076350
 20
96.151035
 30
0.0
 11
79.076350
 21
96.151035
 31
0.0
  0
SPLINE
  5
1d4
100
AcDbEntity
  8
Layer_1
 62
5
100
AcDbSpline
 70
8
 71
3
 72
8
 73
4
 74
0
 40
0
 40
0
 40
0
 40
0
 40
1
 40
1
 40
1
 40
1
 10
96.306030
 20
96.151035
 30
0.0
 10
96.306030
 20
94.629101
 30
0.0
 10
96.910616
 20
93.169502
 30
0.0
 10
97.986786
 20
92.093332
 30
0.0
  0
SPLINE
  5
1d5
100
AcDbEntity
  8
Layer_1
 62
5
100
AcDbSpline
 70
8
 71
3
 72
8
 73
4
 74
0
 40
0
 40
0
 40
0
 40
0
 40
1
 40
1
 40
1
 40
1
 10
97.986786
 20
92.093332
 30
0.0
 10
99.062956
 20
91.017163
 30
0.0
 10
100.522556
 20
90.412577
 30
0.0
 10
102.044490
 20
90.412578
 30
0.0
  0
SPLINE
  5
1d6
100
AcDbEntity
  8
Layer_1
 62
5
100
AcDbSpline
 70
8
 71
3
 72
8
 73
4
 74
0
 40
0
 40
0
 40
0
 40
0
 40
1
 40
1
 40
1
 40
1
 10
102.044490
 20
90.412578
 30
0.0
 10
105.213750
 20
90.412582
 30
0.0
 10
107.782940
 20
92.981776
 30
0.0
 10
107.782940
 20
96.151035
 30
0.0
  0
SPLINE
  5
1d7
100
AcDbEntity
  8
Layer_1
 62
5
100
AcDbSpline
 70
8
 71
3
 72
8
 73
4
 74
0
 40
0
 40
0
 40
0
 40
0
 40
1
 40
1
 40
1
 40
1
 10
107.782940
 20
96.151035
 30
0.0
 10
107.782940
 20
99.320295
 30
0.0
 10
105.213750
 20
101.889489
 30
0.0
 10
102.044490
 20
101.889493
 30
0.0
  0
SPLINE
  5
1d8
100
AcDbEntity
  8
Layer_1
 62
5
100
AcDbSpline
 70
8
 71
3
 72
8
 73
4
 74
0
 40
0
 40
0
 40
0
 40
0
 40
1
 40
1
 40
1
 40
1
 10
102.044490
 20
101.889493
 30
0.0
 10
100.522556
 20
101.889494
 30
0.0
 10
99.062956
 20
101.284908
 30
0.0
 10
97.986786
 20
100.208739
 30
0.0
  0
SPLINE
  5
1d9
100
AcDbEntity
  8
Layer_1
 62
5
100
AcDbSpline
 70
8
 71
3
 72
8
 73
4
 74
0
 40
0
 40
0
 40
0
 40
0
 40
1
 40
1
 40
1
 40
1
 10
97.986786
 20
100.208739
 30
0.0
 10
96.910616
 20
99.132569
 30
0.0
 10
96.306030
 20
97.672969
 30
0.0
 10
96.306030
 20
96.151035
 30
0.0
  0
LINE
  5
1da
100
AcDbEntity
  8
Layer_1
 62
5
100
AcDbLine
 10
96.306030
 20
96.151035
 30
0.0
 11
96.306030
 21
96.151035
 31
0.0
  0
SPLINE
  5
1db
100
AcDbEntity
  8
Layer_1
 62
5
100
AcDbSpline
 70
8
 71
3
 72
8
 73
4
 74
0
 40
0
 40
0
 40
0
 40
0
 40
1
 40
1
 40
1
 40
1
 10
113.535700
 20
96.151035
 30
0.0
 10
113.535700
 20
94.629101
 30
0.0
 10
114.140286
 20
93.169502
 30
0.0
 10
115.216456
 20
92.093332
 30
0.0
  0
SPLINE
  5
1dc
100
AcDbEntity
  8
Layer_1
 62
5
100
AcDbSpline
 70
8
 71
3
 72
8
 73
4
 74
0
 40
0
 40
0
 40
0
 40
0
 40
1
 40
1
 40
1
 40
1
 10
115.216456
 20
92.093332
 30
0.0
 10
116.292626
 20
91.017163
 30
0.0
 10
117.752226
 20
90.412577
 30
0.0
 10
119.274160
 20
90.412578
 30
0.0
  0
SPLINE
  5
1dd
100
AcDbEntity
  8
Layer_1
 62
5
100
AcDbSpline
 70
8
 71
3
 72
8
 73
4
 74
0
 40
0
 40
0
 40
0
 40
0
 40
1
 40
1
 40
1
 40
1
 10
119.274160
 20
90.412578
 30
0.0
 10
120.796094
 20
90.412577
 30
0.0
 10
122.255694
 20
91.017163
 30
0.0
 10
123.331864
 20
92.093332
 30
0.0
  0
SPLINE
  5
1de
100
AcDbEntity
  8
Layer_1
 62
5
100
AcDbSpline
 70
8
 71
3
 72
8
 73
4
 74
0
 40
0
 40
0
 40
0
 40
0
 40
1
 40
1
 40
1
 40
1
 10
123.331864
 20
92.093332
 30
0.0
 10
124.408034
 20
93.169502
 30
0.0
 10
125.012620
 20
94.629101
 30
0.0
 10
125.012620
 20
96.151035
 30
0.0
  0
SPLINE
  5
1df
100
AcDbEntity
  8
Layer_1
 62
5
100
AcDbSpline
 70
8
 71
3
 72
8
 73
4
 74
0
 40
0
 40
0
 40
0
 40
0
 40
1
 40
1
 40
1
 40
1
 10
125.012620
 20
96.151035
 30
0.0
 10
125.012620
 20
97.672969
 30
0.0
 10
124.408034
 20
99.132569
 30
0.0
 10
123.331864
 20
100.208739
 30
0.0
  0
SPLINE
  5
1e0
100
AcDbEntity
  8
Layer_1
 62
5
100
AcDbSpline
 70
8
 71
3
 72
8
 73
4
 74
0
 40
0
 40
0
 40
0
 40
0
 40
1
 40
1
 40
1
 40
1
 10
123.331864
 20
100.208739
 30
0.0
 10
122.255694
 20
101.284908
 30
0.0
 10
120.796094
 20
101.889494
 30
0.0
 10
119.274160
 20
101.889493
 30
0.0
  0
SPLINE
  5
1e1
100
AcDbEntity
  8
Layer_1
 62
5
100
AcDbSpline
 70
8
 71
3
 72
8
 73
4
 74
0
 40
0
 40
0
 40
0
 40
0
 40
1
 40
1
 40
1
 40
1
 10
119.274160
 20
101.889493
 30
0.0
 10
117.752226
 20
101.889494
 30
0.0
 10
116.292626
 20
101.284908
 30
0.0
 10
115.216456
 20
100.208739
 30
0.0
  0
SPLINE
  5
1e2
100
AcDbEntity
  8
Layer_1
 62
5
100
AcDbSpline
 70
8
 71
3
 72
8
 73
4
 74
0
 40
0
 40
0
 40
0
 40
0
 40
1
 40
1
 40
1
 40
1
 10
115.216456
 20
100.208739
 30
0.0
 10
114.140286
 20
99.132569
 30
0.0
 10
113.535700
 20
97.672969
 30
0.0
 10
113.535700
 20
96.151035
 30
0.0
  0
LINE
  5
1e3
100
AcDbEntity
  8
Layer_1
 62
5
100
AcDbLine
 10
113.535700
 20
96.151035
 30
0.0
 11
113.535700
 21
96.151035
 31
0.0
  0
SPLINE
  5
1e4
100
AcDbEntity
  8
Layer_1
 62
5
100
AcDbSpline
 70
8
 71
3
 72
8
 73
4
 74
0
 40
0
 40
0
 40
0
 40
0
 40
1
 40
1
 40
1
 40
1
 10
113.535700
 20
78.922711
 30
0.0
 10
113.535700
 20
77.400777
 30
0.0
 10
114.140286
 20
75.941177
 30
0.0
 10
115.216456
 20
74.865008
 30
0.0
  0
SPLINE
  5
1e5
100
AcDbEntity
  8
Layer_1
 62
5
100
AcDbSpline
 70
8
 71
3
 72
8
 73
4
 74
0
 40
0
 40
0
 40
0
 40
0
 40
1
 40
1
 40
1
 40
1
 10
115.216456
 20
74.865008
 30
0.0
 10
116.292626
 20
73.788838
 30
0.0
 10
117.752226
 20
73.184253
 30
0.0
 10
119.274160
 20
73.184253
 30
0.0
  0
SPLINE
  5
1e6
100
AcDbEntity
  8
Layer_1
 62
5
100
AcDbSpline
 70
8
 71
3
 72
8
 73
4
 74
0
 40
0
 40
0
 40
0
 40
0
 40
1
 40
1
 40
1
 40
1
 10
119.274160
 20
73.184253
 30
0.0
 10
120.796094
 20
73.184253
 30
0.0
 10
122.255694
 20
73.788838
 30
0.0
 10
123.331864
 20
74.865008
 30
0.0
  0
SPLINE
  5
1e7
100
AcDbEntity
  8
Layer_1
 62
5
100
AcDbSpline
 70
8
 71
3
 72
8
 73
4
 74
0
 40
0
 40
0
 40
0
 40
0
 40
1
 40
1
 40
1
 40
1
 10
123.331864
 20
74.865008
 30
0.0
 10
124.408034
 20
75.941177
 30
0.0
 10
125.012620
 20
77.400777
 30
0.0
 10
125.012620
 20
78.922711
 30
0.0
  0
SPLINE
  5
1e8
100
AcDbEntity
  8
Layer_1
 62
5
100
AcDbSpline
 70
8
 71
3
 72
8
 73
4
 74
0
 40
0
 40
0
 40
0
 40
0
 40
1
 40
1
 40
1
 40
1
 10
125.012620
 20
78.922711
 30
0.0
 10
125.012620
 20
80.444645
 30
0.0
 10
124.408034
 20
81.904244
 30
0.0
 10
123.331864
 20
82.980414
 30
0.0
  0
SPLINE
  5
1e9
100
AcDbEntity
  8
Layer_1
 62
5
100
AcDbSpline
 70
8
 71
3
 72
8
 73
4
 74
0
 40
0
 40
0
 40
0
 40
0
 40
1
 40
1
 40
1
 40
1
 10
123.331864
 20
82.980414
 30
0.0
 10
122.255694
 20
84.056583
 30
0.0
 10
120.796094
 20
84.661169
 30
0.0
 10
119.274160
 20
84.661168
 30
0.0
  0
SPLINE
  5
1ea
100
AcDbEntity
  8
Layer_1
 62
5
100
AcDbSpline
 70
8
 71
3
 72
8
 73
4
 74
0
 40
0
 40
0
 40
0
 40
0
 40
1
 40
1
 40
1
 40
1
 10
119.274160
 20
84.661168
 30
0.0
 10
117.752226
 20
84.661169
 30
0.0
 10
116.292626
 20
84.056583
 30
0.0
 10
115.216456
 20
82.980414
 30
0.0
  0
SPLINE
  5
1eb
100
AcDbEntity
  8
Layer_1
 62
5
100
AcDbSpline
 70
8
 71
3
 72
8
 73
4
 74
0
 40
0
 40
0
 40
0
 40
0
 40
1
 40
1
 40
1
 40
1
 10
115.216456
 20
82.980414
 30
0.0
 10
114.140286
 20
81.904244
 30
0.0
 10
113.535700
 20
80.444645
 30
0.0
 10
113.535700
 20
78.922711
 30
0.0
  0
LINE
  5
1ec
100
AcDbEntity
  8
Layer_1
 62
5
100
AcDbLine
 10
113.535700
 20
78.922711
 30
0.0
 11
113.535700
 21
78.922711
 31
0.0
  0
SPLINE
  5
1ed
100
AcDbEntity
  8
Layer_1
 62
5
100
AcDbSpline
 70
8
 71
3
 72
8
 73
4
 74
0
 40
0
 40
0
 40
0
 40
0
 40
1
 40
1
 40
1
 40
1
 10
96.306030
 20
78.922711
 30
0.0
 10
96.306030
 20
77.400777
 30
0.0
 10
96.910616
 20
75.941177
 30
0.0
 10
97.986786
 20
74.865008
 30
0.0
  0
SPLINE
  5
1ee
100
AcDbEntity
  8
Layer_1
 62
5
100
AcDbSpline
 70
8
 71
3
 72
8
 73
4
 74
0
 40
0
 40
0
 40
0
 40
0
 40
1
 40
1
 40
1
 40
1
 10
97.986786
 20
74.865008
 30
0.0
 10
99.062956
 20
73.788838
 30
0.0
 10
100.522556
 20
73.184253
 30
0.0
 10
102.044490
 20
73.184253
 30
0.0
  0
SPLINE
  5
1ef
100
AcDbEntity
  8
Layer_1
 62
5
100
AcDbSpline
 70
8
 71
3
 72
8
 73
4
 74
0
 40
0
 40
0
 40
0
 40
0
 40
1
 40
1
 40
1
 40
1
 10
102.044490
 20
73.184253
 30
0.0
 10
105.213750
 20
73.184257
 30
0.0
 10
107.782940
 20
75.753451
 30
0.0
 10
107.782940
 20
78.922711
 30
0.0
  0
SPLINE
  5
1f0
100
AcDbEntity
  8
Layer_1
 62
5
100
AcDbSpline
 70
8
 71
3
 72
8
 73
4
 74
0
 40
0
 40
0
 40
0
 40
0
 40
1
 40
1
 40
1
 40
1
 10
107.782940
 20
78.922711
 30
0.0
 10
107.782940
 20
82.091970
 30
0.0
 10
105.213750
 20
84.661164
 30
0.0
 10
102.044490
 20
84.661168
 30
0.0
  0
SPLINE
  5
1f1
100
AcDbEntity
  8
Layer_1
 62
5
100
AcDbSpline
 70
8
 71
3
 72
8
 73
4
 74
0
 40
0
 40
0
 40
0
 40
0
 40
1
 40
1
 40
1
 40
1
 10
102.044490
 20
84.661168
 30
0.0
 10
100.522556
 20
84.661169
 30
0.0
 10
99.062956
 20
84.056583
 30
0.0
 10
97.986786
 20
82.980414
 30
0.0
  0
SPLINE
  5
1f2
100
AcDbEntity
  8
Layer_1
 62
5
100
AcDbSpline
 70
8
 71
3
 72
8
 73
4
 74
0
 40
0
 40
0
 40
0
 40
0
 40
1
 40
1
 40
1
 40
1
 10
97.986786
 20
82.980414
 30
0.0
 10
96.910616
 20
81.904244
 30
0.0
 10
96.306030
 20
80.444645
 30
0.0
 10
96.306030
 20
78.922711
 30
0.0
  0
LINE
  5
1f3
100
AcDbEntity
  8
Layer_1
 62
5
100
AcDbLine
 10
96.306030
 20
78.922711
 30
0.0
 11
96.306030
 21
78.922711
 31
0.0
  0
SPLINE
  5
1f4
100
AcDbEntity
  8
Layer_1
 62
5
100
AcDbSpline
 70
8
 71
3
 72
8
 73
4
 74
0
 40
0
 40
0
 40
0
 40
0
 40
1
 40
1
 40
1
 40
1
 10
79.076350
 20
78.922711
 30
0.0
 10
79.076350
 20
77.400777
 30
0.0
 10
79.680936
 20
75.941177
 30
0.0
 10
80.757106
 20
74.865008
 30
0.0
  0
SPLINE
  5
1f5
100
AcDbEntity
  8
Layer_1
 62
5
100
AcDbSpline
 70
8
 71
3
 72
8
 73
4
 74
0
 40
0
 40
0
 40
0
 40
0
 40
1
 40
1
 40
1
 40
1
 10
80.757106
 20
74.865008
 30
0.0
 10
81.833276
 20
73.788838
 30
0.0
 10
83.292876
 20
73.184253
 30
0.0
 10
84.814810
 20
73.184253
 30
0.0
  0
SPLINE
  5
1f6
100
AcDbEntity
  8
Layer_1
 62
5
100
AcDbSpline
 70
8
 71
3
 72
8
 73
4
 74
0
 40
0
 40
0
 40
0
 40
0
 40
1
 40
1
 40
1
 40
1
 10
84.814810
 20
73.184253
 30
0.0
 10
86.336744
 20
73.184253
 30
0.0
 10
87.796344
 20
73.788838
 30
0.0
 10
88.872514
 20
74.865008
 30
0.0
  0
SPLINE
  5
1f7
100
AcDbEntity
  8
Layer_1
 62
5
100
AcDbSpline
 70
8
 71
3
 72
8
 73
4
 74
0
 40
0
 40
0
 40
0
 40
0
 40
1
 40
1
 40
1
 40
1
 10
88.872514
 20
74.865008
 30
0.0
 10
89.948684
 20
75.941177
 30
0.0
 10
90.553270
 20
77.400777
 30
0.0
 10
90.553270
 20
78.922711
 30
0.0
  0
SPLINE
  5
1f8
100
AcDbEntity
  8
Layer_1
 62
5
100
AcDbSpline
 70
8
 71
3
 72
8
 73
4
 74
0
 40
0
 40
0
 40
0
 40
0
 40
1
 40
1
 40
1
 40
1
 10
90.553270
 20
78.922711
 30
0.0
 10
90.553270
 20
80.444645
 30
0.0
 10
89.948684
 20
81.904244
 30
0.0
 10
88.872514
 20
82.980414
 30
0.0
  0
SPLINE
  5
1f9
100
AcDbEntity
  8
Layer_1
 62
5
100
AcDbSpline
 70
8
 71
3
 72
8
 73
4
 74
0
 40
0
 40
0
 40
0
 40
0
 40
1
 40
1
 40
1
 40
1
 10
88.872514
 20
82.980414
 30
0.0
 10
87.796344
 20
84.056583
 30
0.0
 10
86.336744
 20
84.661169
 30
0.0
 10
84.814810
 20
84.661168
 30
0.0
  0
SPLINE
  5
1fa
100
AcDbEntity
  8
Layer_1
 62
5
100
AcDbSpline
 70
8
 71
3
 72
8
 73
4
 74
0
 40
0
 40
0
 40
0
 40
0
 40
1
 40
1
 40
1
 40
1
 10
84.814810
 20
84.661168
 30
0.0
 10
83.292876
 20
84.661169
 30
0.0
 10
81.833276
 20
84.056583
 30
0.0
 10
80.757106
 20
82.980414
 30
0.0
  0
SPLINE
  5
1fb
100
AcDbEntity
  8
Layer_1
 62
5
100
AcDbSpline
 70
8
 71
3
 72
8
 73
4
 74
0
 40
0
 40
0
 40
0
 40
0
 40
1
 40
1
 40
1
 40
1
 10
80.757106
 20
82.980414
 30
0.0
 10
79.680936
 20
81.904244
 30
0.0
 10
79.076350
 20
80.444645
 30
0.0
 10
79.076350
 20
78.922711
 30
0.0
  0
LINE
  5
1fc
100
AcDbEntity
  8
Layer_1
 62
5
100
AcDbLine
 10
79.076350
 20
78.922711
 30
0.0
 11
79.076350
 21
78.922711
 31
0.0
  0
SPLINE
  5
1fd
100
AcDbEntity
  8
Layer_1
 62
5
100
AcDbSpline
 70
8
 71
3
 72
8
 73
4
 74
0
 40
0
 40
0
 40
0
 40
0
 40
1
 40
1
 40
1
 40
1
 10
61.846710
 20
78.922711
 30
0.0
 10
61.846710
 20
77.400777
 30
0.0
 10
62.451296
 20
75.941177
 30
0.0
 10
63.527466
 20
74.865008
 30
0.0
  0
SPLINE
  5
1fe
100
AcDbEntity
  8
Layer_1
 62
5
100
AcDbSpline
 70
8
 71
3
 72
8
 73
4
 74
0
 40
0
 40
0
 40
0
 40
0
 40
1
 40
1
 40
1
 40
1
 10
63.527466
 20
74.865008
 30
0.0
 10
64.603636
 20
73.788838
 30
0.0
 10
66.063236
 20
73.184253
 30
0.0
 10
67.585170
 20
73.184253
 30
0.0
  0
SPLINE
  5
1ff
100
AcDbEntity
  8
Layer_1
 62
5
100
AcDbSpline
 70
8
 71
3
 72
8
 73
4
 74
0
 40
0
 40
0
 40
0
 40
0
 40
1
 40
1
 40
1
 40
1
 10
67.585170
 20
73.184253
 30
0.0
 10
70.754430
 20
73.184257
 30
0.0
 10
73.323620
 20
75.753451
 30
0.0
 10
73.323620
 20
78.922711
 30
0.0
  0
SPLINE
  5
200
100
AcDbEntity
  8
Layer_1
 62
5
100
AcDbSpline
 70
8
 71
3
 72
8
 73
4
 74
0
 40
0
 40
0
 40
0
 40
0
 40
1
 40
1
 40
1
 40
1
 10
73.323620
 20
78.922711
 30
0.0
 10
73.323620
 20
82.091970
 30
0.0
 10
70.754430
 20
84.661164
 30
0.0
 10
67.585170
 20
84.661168
 30
0.0
  0
SPLINE
  5
201
100
AcDbEntity
  8
Layer_1
 62
5
100
AcDbSpline
 70
8
 71
3
 72
8
 73
4
 74
0
 40
0
 40
0
 40
0
 40
0
 40
1
 40
1
 40
1
 40
1
 10
67.585170
 20
84.661168
 30
0.0
 10
66.063236
 20
84.661169
 30
0.0
 10
64.603636
 20
84.056583
 30
0.0
 10
63.527466
 20
82.980414
 30
0.0
  0
SPLINE
  5
202
100
AcDbEntity
  8
Layer_1
 62
5
100
AcDbSpline
 70
8
 71
3
 72
8
 73
4
 74
0
 40
0
 40
0
 40
0
 40
0
 40
1
 40
1
 40
1
 40
1
 10
63.527466
 20
82.980414
 30
0.0
 10
62.451296
 20
81.904244
 30
0.0
 10
61.846710
 20
80.444645
 30
0.0
 10
61.846710
 20
78.922711
 30
0.0
  0
LINE
  5
203
100
AcDbEntity
  8
Layer_1
 62
5
100
AcDbLine
 10
61.846710
 20
78.922711
 30
0.0
 11
61.846710
 21
78.922711
 31
0.0
  0
SPLINE
  5
204
100
AcDbEntity
  8
Layer_1
 62
5
100
AcDbSpline
 70
8
 71
3
 72
8
 73
4
 74
0
 40
0
 40
0
 40
0
 40
0
 40
1
 40
1
 40
1
 40
1
 10
44.617030
 20
78.922711
 30
0.0
 10
44.617030
 20
77.400777
 30
0.0
 10
45.221616
 20
75.941177
 30
0.0
 10
46.297786
 20
74.865008
 30
0.0
  0
SPLINE
  5
205
100
AcDbEntity
  8
Layer_1
 62
5
100
AcDbSpline
 70
8
 71
3
 72
8
 73
4
 74
0
 40
0
 40
0
 40
0
 40
0
 40
1
 40
1
 40
1
 40
1
 10
46.297786
 20
74.865008
 30
0.0
 10
47.373956
 20
73.788838
 30
0.0
 10
48.833556
 20
73.184253
 30
0.0
 10
50.355490
 20
73.184253
 30
0.0
  0
SPLINE
  5
206
100
AcDbEntity
  8
Layer_1
 62
5
100
AcDbSpline
 70
8
 71
3
 72
8
 73
4
 74
0
 40
0
 40
0
 40
0
 40
0
 40
1
 40
1
 40
1
 40
1
 10
50.355490
 20
73.184253
 30
0.0
 10
51.877424
 20
73.184253
 30
0.0
 10
53.337024
 20
73.788838
 30
0.0
 10
54.413194
 20
74.865008
 30
0.0
  0
SPLINE
  5
207
100
AcDbEntity
  8
Layer_1
 62
5
100
AcDbSpline
 70
8
 71
3
 72
8
 73
4
 74
0
 40
0
 40
0
 40
0
 40
0
 40
1
 40
1
 40
1
 40
1
 10
54.413194
 20
74.865008
 30
0.0
 10
55.489364
 20
75.941177
 30
0.0
 10
56.093950
 20
77.400777
 30
0.0
 10
56.093950
 20
78.922711
 30
0.0
  0
SPLINE
  5
208
100
AcDbEntity
  8
Layer_1
 62
5
100
AcDbSpline
 70
8
 71
3
 72
8
 73
4
 74
0
 40
0
 40
0
 40
0
 40
0
 40
1
 40
1
 40
1
 40
1
 10
56.093950
 20
78.922711
 30
0.0
 10
56.093950
 20
80.444645
 30
0.0
 10
55.489364
 20
81.904244
 30
0.0
 10
54.413194
 20
82.980414
 30
0.0
  0
SPLINE
  5
209
100
AcDbEntity
  8
Layer_1
 62
5
100
AcDbSpline
 70
8
 71
3
 72
8
 73
4
 74
0
 40
0
 40
0
 40
0
 40
0
 40
1
 40
1
 40
1
 40
1
 10
54.413194
 20
82.980414
 30
0.0
 10
53.337024
 20
84.056583
 30
0.0
 10
51.877424
 20
84.661169
 30
0.0
 10
50.355490
 20
84.661168
 30
0.0
  0
SPLINE
  5
20a
100
AcDbEntity
  8
Layer_1
 62
5
100
AcDbSpline
 70
8
 71
3
 72
8
 73
4
 74
0
 40
0
 40
0
 40
0
 40
0
 40
1
 40
1
 40
1
 40
1
 10
50.355490
 20
84.661168
 30
0.0
 10
48.833556
 20
84.661169
 30
0.0
 10
47.373956
 20
84.056583
 30
0.0
 10
46.297786
 20
82.980414
 30
0.0
  0
SPLINE
  5
20b
100
AcDbEntity
  8
Layer_1
 62
5
100
AcDbSpline
 70
8
 71
3
 72
8
 73
4
 74
0
 40
0
 40
0
 40
0
 40
0
 40
1
 40
1
 40
1
 40
1
 10
46.297786
 20
82.980414
 30
0.0
 10
45.221616
 20
81.904244
 30
0.0
 10
44.617030
 20
80.444645
 30
0.0
 10
44.617030
 20
78.922711
 30
0.0
  0
LINE
  5
20c
100
AcDbEntity
  8
Layer_1
 62
5
100
AcDbLine
 10
44.617030
 20
78.922711
 30
0.0
 11
44.617030
 21
78.922711
 31
0.0
  0
SPLINE
  5
20d
100
AcDbEntity
  8
Layer_1
 62
5
100
AcDbSpline
 70
8
 71
3
 72
8
 73
4
 74
0
 40
0
 40
0
 40
0
 40
0
 40
1
 40
1
 40
1
 40
1
 10
27.387360
 20
78.922711
 30
0.0
 10
27.387360
 20
77.400777
 30
0.0
 10
27.991946
 20
75.941177
 30
0.0
 10
29.068116
 20
74.865008
 30
0.0
  0
SPLINE
  5
20e
100
AcDbEntity
  8
Layer_1
 62
5
100
AcDbSpline
 70
8
 71
3
 72
8
 73
4
 74
0
 40
0
 40
0
 40
0
 40
0
 40
1
 40
1
 40
1
 40
1
 10
29.068116
 20
74.865008
 30
0.0
 10
30.144286
 20
73.788838
 30
0.0
 10
31.603886
 20
73.184253
 30
0.0
 10
33.125820
 20
73.184253
 30
0.0
  0
SPLINE
  5
20f
100
AcDbEntity
  8
Layer_1
 62
5
100
AcDbSpline
 70
8
 71
3
 72
8
 73
4
 74
0
 40
0
 40
0
 40
0
 40
0
 40
1
 40
1
 40
1
 40
1
 10
33.125820
 20
73.184253
 30
0.0
 10
36.295080
 20
73.184257
 30
0.0
 10
38.864270
 20
75.753451
 30
0.0
 10
38.864270
 20
78.922711
 30
0.0
  0
SPLINE
  5
210
100
AcDbEntity
  8
Layer_1
 62
5
100
AcDbSpline
 70
8
 71
3
 72
8
 73
4
 74
0
 40
0
 40
0
 40
0
 40
0
 40
1
 40
1
 40
1
 40
1
 10
38.864270
 20
78.922711
 30
0.0
 10
38.864270
 20
82.091971
 30
0.0
 10
36.295080
 20
84.661164
 30
0.0
 10
33.125820
 20
84.661168
 30
0.0
  0
SPLINE
  5
211
100
AcDbEntity
  8
Layer_1
 62
5
100
AcDbSpline
 70
8
 71
3
 72
8
 73
4
 74
0
 40
0
 40
0
 40
0
 40
0
 40
1
 40
1
 40
1
 40
1
 10
33.125820
 20
84.661168
 30
0.0
 10
31.603886
 20
84.661169
 30
0.0
 10
30.144286
 20
84.056583
 30
0.0
 10
29.068116
 20
82.980414
 30
0.0
  0
SPLINE
  5
212
100
AcDbEntity
  8
Layer_1
 62
5
100
AcDbSpline
 70
8
 71
3
 72
8
 73
4
 74
0
 40
0
 40
0
 40
0
 40
0
 40
1
 40
1
 40
1
 40
1
 10
29.068116
 20
82.980414
 30
0.0
 10
27.991946
 20
81.904244
 30
0.0
 10
27.387360
 20
80.444645
 30
0.0
 10
27.387360
 20
78.922711
 30
0.0
  0
LINE
  5
213
100
AcDbEntity
  8
Layer_1
 62
5
100
AcDbLine
 10
27.387360
 20
78.922711
 30
0.0
 11
27.387360
 21
78.922711
 31
0.0
  0
SPLINE
  5
214
100
AcDbEntity
  8
Layer_1
 62
5
100
AcDbSpline
 70
8
 71
3
 72
8
 73
4
 74
0
 40
0
 40
0
 40
0
 40
0
 40
1
 40
1
 40
1
 40
1
 10
27.387360
 20
61.694375
 30
0.0
 10
27.387360
 20
60.172441
 30
0.0
 10
27.991946
 20
58.712842
 30
0.0
 10
29.068116
 20
57.636672
 30
0.0
  0
SPLINE
  5
215
100
AcDbEntity
  8
Layer_1
 62
5
100
AcDbSpline
 70
8
 71
3
 72
8
 73
4
 74
0
 40
0
 40
0
 40
0
 40
0
 40
1
 40
1
 40
1
 40
1
 10
29.068116
 20
57.636672
 30
0.0
 10
30.144286
 20
56.560503
 30
0.0
 10
31.603886
 20
55.955917
 30
0.0
 10
33.125820
 20
55.955918
 30
0.0
  0
SPLINE
  5
216
100
AcDbEntity
  8
Layer_1
 62
5
100
AcDbSpline
 70
8
 71
3
 72
8
 73
4
 74
0
 40
0
 40
0
 40
0
 40
0
 40
1
 40
1
 40
1
 40
1
 10
33.125820
 20
55.955918
 30
0.0
 10
36.295080
 20
55.955922
 30
0.0
 10
38.864270
 20
58.525116
 30
0.0
 10
38.864270
 20
61.694375
 30
0.0
  0
SPLINE
  5
217
100
AcDbEntity
  8
Layer_1
 62
5
100
AcDbSpline
 70
8
 71
3
 72
8
 73
4
 74
0
 40
0
 40
0
 40
0
 40
0
 40
1
 40
1
 40
1
 40
1
 10
38.864270
 20
61.694375
 30
0.0
 10
38.864270
 20
64.863635
 30
0.0
 10
36.295080
 20
67.432829
 30
0.0
 10
33.125820
 20
67.432833
 30
0.0
  0
SPLINE
  5
218
100
AcDbEntity
  8
Layer_1
 62
5
100
AcDbSpline
 70
8
 71
3
 72
8
 73
4
 74
0
 40
0
 40
0
 40
0
 40
0
 40
1
 40
1
 40
1
 40
1
 10
33.125820
 20
67.432833
 30
0.0
 10
31.603886
 20
67.432833
 30
0.0
 10
30.144286
 20
66.828248
 30
0.0
 10
29.068116
 20
65.752078
 30
0.0
  0
SPLINE
  5
219
100
AcDbEntity
  8
Layer_1
 62
5
100
AcDbSpline
 70
8
 71
3
 72
8
 73
4
 74
0
 40
0
 40
0
 40
0
 40
0
 40
1
 40
1
 40
1
 40
1
 10
29.068116
 20
65.752078
 30
0.0
 10
27.991946
 20
64.675909
 30
0.0
 10
27.387360
 20
63.216309
 30
0.0
 10
27.387360
 20
61.694375
 30
0.0
  0
LINE
  5
21a
100
AcDbEntity
  8
Layer_1
 62
5
100
AcDbLine
 10
27.387360
 20
61.694375
 30
0.0
 11
27.387360
 21
61.694375
 31
0.0
  0
SPLINE
  5
21b
100
AcDbEntity
  8
Layer_1
 62
5
100
AcDbSpline
 70
8
 71
3
 72
8
 73
4
 74
0
 40
0
 40
0
 40
0
 40
0
 40
1
 40
1
 40
1
 40
1
 10
44.617030
 20
61.694375
 30
0.0
 10
44.617030
 20
60.172441
 30
0.0
 10
45.221616
 20
58.712842
 30
0.0
 10
46.297786
 20
57.636672
 30
0.0
  0
SPLINE
  5
21c
100
AcDbEntity
  8
Layer_1
 62
5
100
AcDbSpline
 70
8
 71
3
 72
8
 73
4
 74
0
 40
0
 40
0
 40
0
 40
0
 40
1
 40
1
 40
1
 40
1
 10
46.297786
 20
57.636672
 30
0.0
 10
47.373956
 20
56.560503
 30
0.0
 10
48.833556
 20
55.955917
 30
0.0
 10
50.355490
 20
55.955918
 30
0.0
  0
SPLINE
  5
21d
100
AcDbEntity
  8
Layer_1
 62
5
100
AcDbSpline
 70
8
 71
3
 72
8
 73
4
 74
0
 40
0
 40
0
 40
0
 40
0
 40
1
 40
1
 40
1
 40
1
 10
50.355490
 20
55.955918
 30
0.0
 10
51.877424
 20
55.955917
 30
0.0
 10
53.337024
 20
56.560503
 30
0.0
 10
54.413194
 20
57.636672
 30
0.0
  0
SPLINE
  5
21e
100
AcDbEntity
  8
Layer_1
 62
5
100
AcDbSpline
 70
8
 71
3
 72
8
 73
4
 74
0
 40
0
 40
0
 40
0
 40
0
 40
1
 40
1
 40
1
 40
1
 10
54.413194
 20
57.636672
 30
0.0
 10
55.489364
 20
58.712842
 30
0.0
 10
56.093950
 20
60.172441
 30
0.0
 10
56.093950
 20
61.694375
 30
0.0
  0
SPLINE
  5
21f
100
AcDbEntity
  8
Layer_1
 62
5
100
AcDbSpline
 70
8
 71
3
 72
8
 73
4
 74
0
 40
0
 40
0
 40
0
 40
0
 40
1
 40
1
 40
1
 40
1
 10
56.093950
 20
61.694375
 30
0.0
 10
56.093950
 20
63.216309
 30
0.0
 10
55.489364
 20
64.675909
 30
0.0
 10
54.413194
 20
65.752078
 30
0.0
  0
SPLINE
  5
220
100
AcDbEntity
  8
Layer_1
 62
5
100
AcDbSpline
 70
8
 71
3
 72
8
 73
4
 74
0
 40
0
 40
0
 40
0
 40
0
 40
1
 40
1
 40
1
 40
1
 10
54.413194
 20
65.752078
 30
0.0
 10
53.337024
 20
66.828248
 30
0.0
 10
51.877424
 20
67.432833
 30
0.0
 10
50.355490
 20
67.432833
 30
0.0
  0
SPLINE
  5
221
100
AcDbEntity
  8
Layer_1
 62
5
100
AcDbSpline
 70
8
 71
3
 72
8
 73
4
 74
0
 40
0
 40
0
 40
0
 40
0
 40
1
 40
1
 40
1
 40
1
 10
50.355490
 20
67.432833
 30
0.0
 10
48.833556
 20
67.432833
 30
0.0
 10
47.373956
 20
66.828248
 30
0.0
 10
46.297786
 20
65.752078
 30
0.0
  0
SPLINE
  5
222
100
AcDbEntity
  8
Layer_1
 62
5
100
AcDbSpline
 70
8
 71
3
 72
8
 73
4
 74
0
 40
0
 40
0
 40
0
 40
0
 40
1
 40
1
 40
1
 40
1
 10
46.297786
 20
65.752078
 30
0.0
 10
45.221616
 20
64.675909
 30
0.0
 10
44.617030
 20
63.216309
 30
0.0
 10
44.617030
 20
61.694375
 30
0.0
  0
LINE
  5
223
100
AcDbEntity
  8
Layer_1
 62
5
100
AcDbLine
 10
44.617030
 20
61.694375
 30
0.0
 11
44.617030
 21
61.694375
 31
0.0
  0
SPLINE
  5
224
100
AcDbEntity
  8
Layer_1
 62
5
100
AcDbSpline
 70
8
 71
3
 72
8
 73
4
 74
0
 40
0
 40
0
 40
0
 40
0
 40
1
 40
1
 40
1
 40
1
 10
61.846710
 20
61.694375
 30
0.0
 10
61.846710
 20
60.172441
 30
0.0
 10
62.451296
 20
58.712842
 30
0.0
 10
63.527466
 20
57.636672
 30
0.0
  0
SPLINE
  5
225
100
AcDbEntity
  8
Layer_1
 62
5
100
AcDbSpline
 70
8
 71
3
 72
8
 73
4
 74
0
 40
0
 40
0
 40
0
 40
0
 40
1
 40
1
 40
1
 40
1
 10
63.527466
 20
57.636672
 30
0.0
 10
64.603636
 20
56.560503
 30
0.0
 10
66.063236
 20
55.955917
 30
0.0
 10
67.585170
 20
55.955918
 30
0.0
  0
SPLINE
  5
226
100
AcDbEntity
  8
Layer_1
 62
5
100
AcDbSpline
 70
8
 71
3
 72
8
 73
4
 74
0
 40
0
 40
0
 40
0
 40
0
 40
1
 40
1
 40
1
 40
1
 10
67.585170
 20
55.955918
 30
0.0
 10
70.754430
 20
55.955922
 30
0.0
 10
73.323620
 20
58.525116
 30
0.0
 10
73.323620
 20
61.694375
 30
0.0
  0
SPLINE
  5
227
100
AcDbEntity
  8
Layer_1
 62
5
100
AcDbSpline
 70
8
 71
3
 72
8
 73
4
 74
0
 40
0
 40
0
 40
0
 40
0
 40
1
 40
1
 40
1
 40
1
 10
73.323620
 20
61.694375
 30
0.0
 10
73.323620
 20
64.863635
 30
0.0
 10
70.754430
 20
67.432829
 30
0.0
 10
67.585170
 20
67.432833
 30
0.0
  0
SPLINE
  5
228
100
AcDbEntity
  8
Layer_1
 62
5
100
AcDbSpline
 70
8
 71
3
 72
8
 73
4
 74
0
 40
0
 40
0
 40
0
 40
0
 40
1
 40
1
 40
1
 40
1
 10
67.585170
 20
67.432833
 30
0.0
 10
66.063236
 20
67.432833
 30
0.0
 10
64.603636
 20
66.828248
 30
0.0
 10
63.527466
 20
65.752078
 30
0.0
  0
SPLINE
  5
229
100
AcDbEntity
  8
Layer_1
 62
5
100
AcDbSpline
 70
8
 71
3
 72
8
 73
4
 74
0
 40
0
 40
0
 40
0
 40
0
 40
1
 40
1
 40
1
 40
1
 10
63.527466
 20
65.752078
 30
0.0
 10
62.451296
 20
64.675909
 30
0.0
 10
61.846710
 20
63.216309
 30
0.0
 10
61.846710
 20
61.694375
 30
0.0
  0
LINE
  5
22a
100
AcDbEntity
  8
Layer_1
 62
5
100
AcDbLine
 10
61.846710
 20
61.694375
 30
0.0
 11
61.846710
 21
61.694375
 31
0.0
  0
SPLINE
  5
22b
100
AcDbEntity
  8
Layer_1
 62
5
100
AcDbSpline
 70
8
 71
3
 72
8
 73
4
 74
0
 40
0
 40
0
 40
0
 40
0
 40
1
 40
1
 40
1
 40
1
 10
79.076350
 20
61.694375
 30
0.0
 10
79.076350
 20
60.172441
 30
0.0
 10
79.680936
 20
58.712842
 30
0.0
 10
80.757106
 20
57.636672
 30
0.0
  0
SPLINE
  5
22c
100
AcDbEntity
  8
Layer_1
 62
5
100
AcDbSpline
 70
8
 71
3
 72
8
 73
4
 74
0
 40
0
 40
0
 40
0
 40
0
 40
1
 40
1
 40
1
 40
1
 10
80.757106
 20
57.636672
 30
0.0
 10
81.833276
 20
56.560503
 30
0.0
 10
83.292876
 20
55.955917
 30
0.0
 10
84.814810
 20
55.955918
 30
0.0
  0
SPLINE
  5
22d
100
AcDbEntity
  8
Layer_1
 62
5
100
AcDbSpline
 70
8
 71
3
 72
8
 73
4
 74
0
 40
0
 40
0
 40
0
 40
0
 40
1
 40
1
 40
1
 40
1
 10
84.814810
 20
55.955918
 30
0.0
 10
86.336744
 20
55.955917
 30
0.0
 10
87.796344
 20
56.560503
 30
0.0
 10
88.872514
 20
57.636672
 30
0.0
  0
SPLINE
  5
22e
100
AcDbEntity
  8
Layer_1
 62
5
100
AcDbSpline
 70
8
 71
3
 72
8
 73
4
 74
0
 40
0
 40
0
 40
0
 40
0
 40
1
 40
1
 40
1
 40
1
 10
88.872514
 20
57.636672
 30
0.0
 10
89.948684
 20
58.712842
 30
0.0
 10
90.553270
 20
60.172441
 30
0.0
 10
90.553270
 20
61.694375
 30
0.0
  0
SPLINE
  5
22f
100
AcDbEntity
  8
Layer_1
 62
5
100
AcDbSpline
 70
8
 71
3
 72
8
 73
4
 74
0
 40
0
 40
0
 40
0
 40
0
 40
1
 40
1
 40
1
 40
1
 10
90.553270
 20
61.694375
 30
0.0
 10
90.553270
 20
63.216309
 30
0.0
 10
89.948684
 20
64.675909
 30
0.0
 10
88.872514
 20
65.752078
 30
0.0
  0
SPLINE
  5
230
100
AcDbEntity
  8
Layer_1
 62
5
100
AcDbSpline
 70
8
 71
3
 72
8
 73
4
 74
0
 40
0
 40
0
 40
0
 40
0
 40
1
 40
1
 40
1
 40
1
 10
88.872514
 20
65.752078
 30
0.0
 10
87.796344
 20
66.828248
 30
0.0
 10
86.336744
 20
67.432833
 30
0.0
 10
84.814810
 20
67.432833
 30
0.0
  0
SPLINE
  5
231
100
AcDbEntity
  8
Layer_1
 62
5
100
AcDbSpline
 70
8
 71
3
 72
8
 73
4
 74
0
 40
0
 40
0
 40
0
 40
0
 40
1
 40
1
 40
1
 40
1
 10
84.814810
 20
67.432833
 30
0.0
 10
83.292876
 20
67.432833
 30
0.0
 10
81.833276
 20
66.828248
 30
0.0
 10
80.757106
 20
65.752078
 30
0.0
  0
SPLINE
  5
232
100
AcDbEntity
  8
Layer_1
 62
5
100
AcDbSpline
 70
8
 71
3
 72
8
 73
4
 74
0
 40
0
 40
0
 40
0
 40
0
 40
1
 40
1
 40
1
 40
1
 10
80.757106
 20
65.752078
 30
0.0
 10
79.680936
 20
64.675909
 30
0.0
 10
79.076350
 20
63.216309
 30
0.0
 10
79.076350
 20
61.694375
 30
0.0
  0
LINE
  5
233
100
AcDbEntity
  8
Layer_1
 62
5
100
AcDbLine
 10
79.076350
 20
61.694375
 30
0.0
 11
79.076350
 21
61.694375
 31
0.0
  0
SPLINE
  5
234
100
AcDbEntity
  8
Layer_1
 62
5
100
AcDbSpline
 70
8
 71
3
 72
8
 73
4
 74
0
 40
0
 40
0
 40
0
 40
0
 40
1
 40
1
 40
1
 40
1
 10
96.306030
 20
61.694375
 30
0.0
 10
96.306030
 20
60.172441
 30
0.0
 10
96.910616
 20
58.712842
 30
0.0
 10
97.986786
 20
57.636672
 30
0.0
  0
SPLINE
  5
235
100
AcDbEntity
  8
Layer_1
 62
5
100
AcDbSpline
 70
8
 71
3
 72
8
 73
4
 74
0
 40
0
 40
0
 40
0
 40
0
 40
1
 40
1
 40
1
 40
1
 10
97.986786
 20
57.636672
 30
0.0
 10
99.062956
 20
56.560503
 30
0.0
 10
100.522556
 20
55.955917
 30
0.0
 10
102.044490
 20
55.955918
 30
0.0
  0
SPLINE
  5
236
100
AcDbEntity
  8
Layer_1
 62
5
100
AcDbSpline
 70
8
 71
3
 72
8
 73
4
 74
0
 40
0
 40
0
 40
0
 40
0
 40
1
 40
1
 40
1
 40
1
 10
102.044490
 20
55.955918
 30
0.0
 10
105.213750
 20
55.955922
 30
0.0
 10
107.782940
 20
58.525116
 30
0.0
 10
107.782940
 20
61.694375
 30
0.0
  0
SPLINE
  5
237
100
AcDbEntity
  8
Layer_1
 62
5
100
AcDbSpline
 70
8
 71
3
 72
8
 73
4
 74
0
 40
0
 40
0
 40
0
 40
0
 40
1
 40
1
 40
1
 40
1
 10
107.782940
 20
61.694375
 30
0.0
 10
107.782940
 20
64.863635
 30
0.0
 10
105.213750
 20
67.432829
 30
0.0
 10
102.044490
 20
67.432833
 30
0.0
  0
SPLINE
  5
238
100
AcDbEntity
  8
Layer_1
 62
5
100
AcDbSpline
 70
8
 71
3
 72
8
 73
4
 74
0
 40
0
 40
0
 40
0
 40
0
 40
1
 40
1
 40
1
 40
1
 10
102.044490
 20
67.432833
 30
0.0
 10
100.522556
 20
67.432833
 30
0.0
 10
99.062956
 20
66.828248
 30
0.0
 10
97.986786
 20
65.752078
 30
0.0
  0
SPLINE
  5
239
100
AcDbEntity
  8
Layer_1
 62
5
100
AcDbSpline
 70
8
 71
3
 72
8
 73
4
 74
0
 40
0
 40
0
 40
0
 40
0
 40
1
 40
1
 40
1
 40
1
 10
97.986786
 20
65.752078
 30
0.0
 10
96.910616
 20
64.675909
 30
0.0
 10
96.306030
 20
63.216309
 30
0.0
 10
96.306030
 20
61.694375
 30
0.0
  0
LINE
  5
23a
100
AcDbEntity
  8
Layer_1
 62
5
100
AcDbLine
 10
96.306030
 20
61.694375
 30
0.0
 11
96.306030
 21
61.694375
 31
0.0
  0
SPLINE
  5
23b
100
AcDbEntity
  8
Layer_1
 62
5
100
AcDbSpline
 70
8
 71
3
 72
8
 73
4
 74
0
 40
0
 40
0
 40
0
 40
0
 40
1
 40
1
 40
1
 40
1
 10
113.535700
 20
61.694375
 30
0.0
 10
113.535700
 20
60.172441
 30
0.0
 10
114.140286
 20
58.712842
 30
0.0
 10
115.216456
 20
57.636672
 30
0.0
  0
SPLINE
  5
23c
100
AcDbEntity
  8
Layer_1
 62
5
100
AcDbSpline
 70
8
 71
3
 72
8
 73
4
 74
0
 40
0
 40
0
 40
0
 40
0
 40
1
 40
1
 40
1
 40
1
 10
115.216456
 20
57.636672
 30
0.0
 10
116.292626
 20
56.560503
 30
0.0
 10
117.752226
 20
55.955917
 30
0.0
 10
119.274160
 20
55.955918
 30
0.0
  0
SPLINE
  5
23d
100
AcDbEntity
  8
Layer_1
 62
5
100
AcDbSpline
 70
8
 71
3
 72
8
 73
4
 74
0
 40
0
 40
0
 40
0
 40
0
 40
1
 40
1
 40
1
 40
1
 10
119.274160
 20
55.955918
 30
0.0
 10
120.796094
 20
55.955917
 30
0.0
 10
122.255694
 20
56.560503
 30
0.0
 10
123.331864
 20
57.636672
 30
0.0
  0
SPLINE
  5
23e
100
AcDbEntity
  8
Layer_1
 62
5
100
AcDbSpline
 70
8
 71
3
 72
8
 73
4
 74
0
 40
0
 40
0
 40
0
 40
0
 40
1
 40
1
 40
1
 40
1
 10
123.331864
 20
57.636672
 30
0.0
 10
124.408034
 20
58.712842
 30
0.0
 10
125.012620
 20
60.172441
 30
0.0
 10
125.012620
 20
61.694375
 30
0.0
  0
SPLINE
  5
23f
100
AcDbEntity
  8
Layer_1
 62
5
100
AcDbSpline
 70
8
 71
3
 72
8
 73
4
 74
0
 40
0
 40
0
 40
0
 40
0
 40
1
 40
1
 40
1
 40
1
 10
125.012620
 20
61.694375
 30
0.0
 10
125.012620
 20
63.216309
 30
0.0
 10
124.408034
 20
64.675909
 30
0.0
 10
123.331864
 20
65.752078
 30
0.0
  0
SPLINE
  5
240
100
AcDbEntity
  8
Layer_1
 62
5
100
AcDbSpline
 70
8
 71
3
 72
8
 73
4
 74
0
 40
0
 40
0
 40
0
 40
0
 40
1
 40
1
 40
1
 40
1
 10
123.331864
 20
65.752078
 30
0.0
 10
122.255694
 20
66.828248
 30
0.0
 10
120.796094
 20
67.432833
 30
0.0
 10
119.274160
 20
67.432833
 30
0.0
  0
SPLINE
  5
241
100
AcDbEntity
  8
Layer_1
 62
5
100
AcDbSpline
 70
8
 71
3
 72
8
 73
4
 74
0
 40
0
 40
0
 40
0
 40
0
 40
1
 40
1
 40
1
 40
1
 10
119.274160
 20
67.432833
 30
0.0
 10
117.752226
 20
67.432833
 30
0.0
 10
116.292626
 20
66.828248
 30
0.0
 10
115.216456
 20
65.752078
 30
0.0
  0
SPLINE
  5
242
100
AcDbEntity
  8
Layer_1
 62
5
100
AcDbSpline
 70
8
 71
3
 72
8
 73
4
 74
0
 40
0
 40
0
 40
0
 40
0
 40
1
 40
1
 40
1
 40
1
 10
115.216456
 20
65.752078
 30
0.0
 10
114.140286
 20
64.675909
 30
0.0
 10
113.535700
 20
63.216309
 30
0.0
 10
113.535700
 20
61.694375
 30
0.0
  0
LINE
  5
243
100
AcDbEntity
  8
Layer_1
 62
5
100
AcDbLine
 10
113.535700
 20
61.694375
 30
0.0
 11
113.535700
 21
61.694375
 31
0.0
  0
SPLINE
  5
244
100
AcDbEntity
  8
Layer_1
 62
5
100
AcDbSpline
 70
8
 71
3
 72
8
 73
4
 74
0
 40
0
 40
0
 40
0
 40
0
 40
1
 40
1
 40
1
 40
1
 10
113.535700
 20
44.466040
 30
0.0
 10
113.535700
 20
42.944106
 30
0.0
 10
114.140286
 20
41.484507
 30
0.0
 10
115.216456
 20
40.408337
 30
0.0
  0
SPLINE
  5
245
100
AcDbEntity
  8
Layer_1
 62
5
100
AcDbSpline
 70
8
 71
3
 72
8
 73
4
 74
0
 40
0
 40
0
 40
0
 40
0
 40
1
 40
1
 40
1
 40
1
 10
115.216456
 20
40.408337
 30
0.0
 10
116.292626
 20
39.332168
 30
0.0
 10
117.752226
 20
38.727582
 30
0.0
 10
119.274160
 20
38.727583
 30
0.0
  0
SPLINE
  5
246
100
AcDbEntity
  8
Layer_1
 62
5
100
AcDbSpline
 70
8
 71
3
 72
8
 73
4
 74
0
 40
0
 40
0
 40
0
 40
0
 40
1
 40
1
 40
1
 40
1
 10
119.274160
 20
38.727583
 30
0.0
 10
120.796094
 20
38.727582
 30
0.0
 10
122.255694
 20
39.332168
 30
0.0
 10
123.331864
 20
40.408337
 30
0.0
  0
SPLINE
  5
247
100
AcDbEntity
  8
Layer_1
 62
5
100
AcDbSpline
 70
8
 71
3
 72
8
 73
4
 74
0
 40
0
 40
0
 40
0
 40
0
 40
1
 40
1
 40
1
 40
1
 10
123.331864
 20
40.408337
 30
0.0
 10
124.408034
 20
41.484507
 30
0.0
 10
125.012620
 20
42.944106
 30
0.0
 10
125.012620
 20
44.466040
 30
0.0
  0
SPLINE
  5
248
100
AcDbEntity
  8
Layer_1
 62
5
100
AcDbSpline
 70
8
 71
3
 72
8
 73
4
 74
0
 40
0
 40
0
 40
0
 40
0
 40
1
 40
1
 40
1
 40
1
 10
125.012620
 20
44.466040
 30
0.0
 10
125.012620
 20
45.987974
 30
0.0
 10
124.408034
 20
47.447573
 30
0.0
 10
123.331864
 20
48.523743
 30
0.0
  0
SPLINE
  5
249
100
AcDbEntity
  8
Layer_1
 62
5
100
AcDbSpline
 70
8
 71
3
 72
8
 73
4
 74
0
 40
0
 40
0
 40
0
 40
0
 40
1
 40
1
 40
1
 40
1
 10
123.331864
 20
48.523743
 30
0.0
 10
122.255694
 20
49.599912
 30
0.0
 10
120.796094
 20
50.204498
 30
0.0
 10
119.274160
 20
50.204497
 30
0.0
  0
SPLINE
  5
24a
100
AcDbEntity
  8
Layer_1
 62
5
100
AcDbSpline
 70
8
 71
3
 72
8
 73
4
 74
0
 40
0
 40
0
 40
0
 40
0
 40
1
 40
1
 40
1
 40
1
 10
119.274160
 20
50.204497
 30
0.0
 10
117.752226
 20
50.204498
 30
0.0
 10
116.292626
 20
49.599912
 30
0.0
 10
115.216456
 20
48.523743
 30
0.0
  0
SPLINE
  5
24b
100
AcDbEntity
  8
Layer_1
 62
5
100
AcDbSpline
 70
8
 71
3
 72
8
 73
4
 74
0
 40
0
 40
0
 40
0
 40
0
 40
1
 40
1
 40
1
 40
1
 10
115.216456
 20
48.523743
 30
0.0
 10
114.140286
 20
47.447573
 30
0.0
 10
113.535700
 20
45.987974
 30
0.0
 10
113.535700
 20
44.466040
 30
0.0
  0
LINE
  5
24c
100
AcDbEntity
  8
Layer_1
 62
5
100
AcDbLine
 10
113.535700
 20
44.466040
 30
0.0
 11
113.535700
 21
44.466040
 31
0.0
  0
SPLINE
  5
24d
100
AcDbEntity
  8
Layer_1
 62
5
100
AcDbSpline
 70
8
 71
3
 72
8
 73
4
 74
0
 40
0
 40
0
 40
0
 40
0
 40
1
 40
1
 40
1
 40
1
 10
96.306030
 20
44.466040
 30
0.0
 10
96.306030
 20
42.944106
 30
0.0
 10
96.910616
 20
41.484507
 30
0.0
 10
97.986786
 20
40.408337
 30
0.0
  0
SPLINE
  5
24e
100
AcDbEntity
  8
Layer_1
 62
5
100
AcDbSpline
 70
8
 71
3
 72
8
 73
4
 74
0
 40
0
 40
0
 40
0
 40
0
 40
1
 40
1
 40
1
 40
1
 10
97.986786
 20
40.408337
 30
0.0
 10
99.062956
 20
39.332168
 30
0.0
 10
100.522556
 20
38.727582
 30
0.0
 10
102.044490
 20
38.727583
 30
0.0
  0
SPLINE
  5
24f
100
AcDbEntity
  8
Layer_1
 62
5
100
AcDbSpline
 70
8
 71
3
 72
8
 73
4
 74
0
 40
0
 40
0
 40
0
 40
0
 40
1
 40
1
 40
1
 40
1
 10
102.044490
 20
38.727583
 30
0.0
 10
105.213750
 20
38.727587
 30
0.0
 10
107.782940
 20
41.296781
 30
0.0
 10
107.782940
 20
44.466040
 30
0.0
  0
SPLINE
  5
250
100
AcDbEntity
  8
Layer_1
 62
5
100
AcDbSpline
 70
8
 71
3
 72
8
 73
4
 74
0
 40
0
 40
0
 40
0
 40
0
 40
1
 40
1
 40
1
 40
1
 10
107.782940
 20
44.466040
 30
0.0
 10
107.782940
 20
47.635300
 30
0.0
 10
105.213750
 20
50.204493
 30
0.0
 10
102.044490
 20
50.204497
 30
0.0
  0
SPLINE
  5
251
100
AcDbEntity
  8
Layer_1
 62
5
100
AcDbSpline
 70
8
 71
3
 72
8
 73
4
 74
0
 40
0
 40
0
 40
0
 40
0
 40
1
 40
1
 40
1
 40
1
 10
102.044490
 20
50.204497
 30
0.0
 10
100.522556
 20
50.204498
 30
0.0
 10
99.062956
 20
49.599912
 30
0.0
 10
97.986786
 20
48.523743
 30
0.0
  0
SPLINE
  5
252
100
AcDbEntity
  8
Layer_1
 62
5
100
AcDbSpline
 70
8
 71
3
 72
8
 73
4
 74
0
 40
0
 40
0
 40
0
 40
0
 40
1
 40
1
 40
1
 40
1
 10
97.986786
 20
48.523743
 30
0.0
 10
96.910616
 20
47.447573
 30
0.0
 10
96.306030
 20
45.987974
 30
0.0
 10
96.306030
 20
44.466040
 30
0.0
  0
LINE
  5
253
100
AcDbEntity
  8
Layer_1
 62
5
100
AcDbLine
 10
96.306030
 20
44.466040
 30
0.0
 11
96.306030
 21
44.466040
 31
0.0
  0
SPLINE
  5
254
100
AcDbEntity
  8
Layer_1
 62
5
100
AcDbSpline
 70
8
 71
3
 72
8
 73
4
 74
0
 40
0
 40
0
 40
0
 40
0
 40
1
 40
1
 40
1
 40
1
 10
79.076350
 20
44.466040
 30
0.0
 10
79.076350
 20
42.944106
 30
0.0
 10
79.680936
 20
41.484507
 30
0.0
 10
80.757106
 20
40.408337
 30
0.0
  0
SPLINE
  5
255
100
AcDbEntity
  8
Layer_1
 62
5
100
AcDbSpline
 70
8
 71
3
 72
8
 73
4
 74
0
 40
0
 40
0
 40
0
 40
0
 40
1
 40
1
 40
1
 40
1
 10
80.757106
 20
40.408337
 30
0.0
 10
81.833276
 20
39.332168
 30
0.0
 10
83.292876
 20
38.727582
 30
0.0
 10
84.814810
 20
38.727583
 30
0.0
  0
SPLINE
  5
256
100
AcDbEntity
  8
Layer_1
 62
5
100
AcDbSpline
 70
8
 71
3
 72
8
 73
4
 74
0
 40
0
 40
0
 40
0
 40
0
 40
1
 40
1
 40
1
 40
1
 10
84.814810
 20
38.727583
 30
0.0
 10
86.336744
 20
38.727582
 30
0.0
 10
87.796344
 20
39.332168
 30
0.0
 10
88.872514
 20
40.408337
 30
0.0
  0
SPLINE
  5
257
100
AcDbEntity
  8
Layer_1
 62
5
100
AcDbSpline
 70
8
 71
3
 72
8
 73
4
 74
0
 40
0
 40
0
 40
0
 40
0
 40
1
 40
1
 40
1
 40
1
 10
88.872514
 20
40.408337
 30
0.0
 10
89.948684
 20
41.484507
 30
0.0
 10
90.553270
 20
42.944106
 30
0.0
 10
90.553270
 20
44.466040
 30
0.0
  0
SPLINE
  5
258
100
AcDbEntity
  8
Layer_1
 62
5
100
AcDbSpline
 70
8
 71
3
 72
8
 73
4
 74
0
 40
0
 40
0
 40
0
 40
0
 40
1
 40
1
 40
1
 40
1
 10
90.553270
 20
44.466040
 30
0.0
 10
90.553270
 20
45.987974
 30
0.0
 10
89.948684
 20
47.447573
 30
0.0
 10
88.872514
 20
48.523743
 30
0.0
  0
SPLINE
  5
259
100
AcDbEntity
  8
Layer_1
 62
5
100
AcDbSpline
 70
8
 71
3
 72
8
 73
4
 74
0
 40
0
 40
0
 40
0
 40
0
 40
1
 40
1
 40
1
 40
1
 10
88.872514
 20
48.523743
 30
0.0
 10
87.796344
 20
49.599912
 30
0.0
 10
86.336744
 20
50.204498
 30
0.0
 10
84.814810
 20
50.204497
 30
0.0
  0
SPLINE
  5
25a
100
AcDbEntity
  8
Layer_1
 62
5
100
AcDbSpline
 70
8
 71
3
 72
8
 73
4
 74
0
 40
0
 40
0
 40
0
 40
0
 40
1
 40
1
 40
1
 40
1
 10
84.814810
 20
50.204497
 30
0.0
 10
83.292876
 20
50.204498
 30
0.0
 10
81.833276
 20
49.599912
 30
0.0
 10
80.757106
 20
48.523743
 30
0.0
  0
SPLINE
  5
25b
100
AcDbEntity
  8
Layer_1
 62
5
100
AcDbSpline
 70
8
 71
3
 72
8
 73
4
 74
0
 40
0
 40
0
 40
0
 40
0
 40
1
 40
1
 40
1
 40
1
 10
80.757106
 20
48.523743
 30
0.0
 10
79.680936
 20
47.447573
 30
0.0
 10
79.076350
 20
45.987974
 30
0.0
 10
79.076350
 20
44.466040
 30
0.0
  0
LINE
  5
25c
100
AcDbEntity
  8
Layer_1
 62
5
100
AcDbLine
 10
79.076350
 20
44.466040
 30
0.0
 11
79.076350
 21
44.466040
 31
0.0
  0
SPLINE
  5
25d
100
AcDbEntity
  8
Layer_1
 62
5
100
AcDbSpline
 70
8
 71
3
 72
8
 73
4
 74
0
 40
0
 40
0
 40
0
 40
0
 40
1
 40
1
 40
1
 40
1
 10
61.846710
 20
44.466040
 30
0.0
 10
61.846710
 20
42.944106
 30
0.0
 10
62.451296
 20
41.484507
 30
0.0
 10
63.527466
 20
40.408337
 30
0.0
  0
SPLINE
  5
25e
100
AcDbEntity
  8
Layer_1
 62
5
100
AcDbSpline
 70
8
 71
3
 72
8
 73
4
 74
0
 40
0
 40
0
 40
0
 40
0
 40
1
 40
1
 40
1
 40
1
 10
63.527466
 20
40.408337
 30
0.0
 10
64.603636
 20
39.332168
 30
0.0
 10
66.063236
 20
38.727582
 30
0.0
 10
67.585170
 20
38.727583
 30
0.0
  0
SPLINE
  5
25f
100
AcDbEntity
  8
Layer_1
 62
5
100
AcDbSpline
 70
8
 71
3
 72
8
 73
4
 74
0
 40
0
 40
0
 40
0
 40
0
 40
1
 40
1
 40
1
 40
1
 10
67.585170
 20
38.727583
 30
0.0
 10
70.754430
 20
38.727587
 30
0.0
 10
73.323620
 20
41.296781
 30
0.0
 10
73.323620
 20
44.466040
 30
0.0
  0
SPLINE
  5
260
100
AcDbEntity
  8
Layer_1
 62
5
100
AcDbSpline
 70
8
 71
3
 72
8
 73
4
 74
0
 40
0
 40
0
 40
0
 40
0
 40
1
 40
1
 40
1
 40
1
 10
73.323620
 20
44.466040
 30
0.0
 10
73.323620
 20
47.635300
 30
0.0
 10
70.754430
 20
50.204493
 30
0.0
 10
67.585170
 20
50.204497
 30
0.0
  0
SPLINE
  5
261
100
AcDbEntity
  8
Layer_1
 62
5
100
AcDbSpline
 70
8
 71
3
 72
8
 73
4
 74
0
 40
0
 40
0
 40
0
 40
0
 40
1
 40
1
 40
1
 40
1
 10
67.585170
 20
50.204497
 30
0.0
 10
66.063236
 20
50.204498
 30
0.0
 10
64.603636
 20
49.599912
 30
0.0
 10
63.527466
 20
48.523743
 30
0.0
  0
SPLINE
  5
262
100
AcDbEntity
  8
Layer_1
 62
5
100
AcDbSpline
 70
8
 71
3
 72
8
 73
4
 74
0
 40
0
 40
0
 40
0
 40
0
 40
1
 40
1
 40
1
 40
1
 10
63.527466
 20
48.523743
 30
0.0
 10
62.451296
 20
47.447573
 30
0.0
 10
61.846710
 20
45.987974
 30
0.0
 10
61.846710
 20
44.466040
 30
0.0
  0
LINE
  5
263
100
AcDbEntity
  8
Layer_1
 62
5
100
AcDbLine
 10
61.846710
 20
44.466040
 30
0.0
 11
61.846710
 21
44.466040
 31
0.0
  0
SPLINE
  5
264
100
AcDbEntity
  8
Layer_1
 62
5
100
AcDbSpline
 70
8
 71
3
 72
8
 73
4
 74
0
 40
0
 40
0
 40
0
 40
0
 40
1
 40
1
 40
1
 40
1
 10
44.617030
 20
44.466040
 30
0.0
 10
44.617030
 20
42.944106
 30
0.0
 10
45.221616
 20
41.484507
 30
0.0
 10
46.297786
 20
40.408337
 30
0.0
  0
SPLINE
  5
265
100
AcDbEntity
  8
Layer_1
 62
5
100
AcDbSpline
 70
8
 71
3
 72
8
 73
4
 74
0
 40
0
 40
0
 40
0
 40
0
 40
1
 40
1
 40
1
 40
1
 10
46.297786
 20
40.408337
 30
0.0
 10
47.373956
 20
39.332168
 30
0.0
 10
48.833556
 20
38.727582
 30
0.0
 10
50.355490
 20
38.727583
 30
0.0
  0
SPLINE
  5
266
100
AcDbEntity
  8
Layer_1
 62
5
100
AcDbSpline
 70
8
 71
3
 72
8
 73
4
 74
0
 40
0
 40
0
 40
0
 40
0
 40
1
 40
1
 40
1
 40
1
 10
50.355490
 20
38.727583
 30
0.0
 10
51.877424
 20
38.727582
 30
0.0
 10
53.337024
 20
39.332168
 30
0.0
 10
54.413194
 20
40.408337
 30
0.0
  0
SPLINE
  5
267
100
AcDbEntity
  8
Layer_1
 62
5
100
AcDbSpline
 70
8
 71
3
 72
8
 73
4
 74
0
 40
0
 40
0
 40
0
 40
0
 40
1
 40
1
 40
1
 40
1
 10
54.413194
 20
40.408337
 30
0.0
 10
55.489364
 20
41.484507
 30
0.0
 10
56.093950
 20
42.944106
 30
0.0
 10
56.093950
 20
44.466040
 30
0.0
  0
SPLINE
  5
268
100
AcDbEntity
  8
Layer_1
 62
5
100
AcDbSpline
 70
8
 71
3
 72
8
 73
4
 74
0
 40
0
 40
0
 40
0
 40
0
 40
1
 40
1
 40
1
 40
1
 10
56.093950
 20
44.466040
 30
0.0
 10
56.093950
 20
45.987974
 30
0.0
 10
55.489364
 20
47.447573
 30
0.0
 10
54.413194
 20
48.523743
 30
0.0
  0
SPLINE
  5
269
100
AcDbEntity
  8
Layer_1
 62
5
100
AcDbSpline
 70
8
 71
3
 72
8
 73
4
 74
0
 40
0
 40
0
 40
0
 40
0
 40
1
 40
1
 40
1
 40
1
 10
54.413194
 20
48.523743
 30
0.0
 10
53.337024
 20
49.599912
 30
0.0
 10
51.877424
 20
50.204498
 30
0.0
 10
50.355490
 20
50.204497
 30
0.0
  0
SPLINE
  5
26a
100
AcDbEntity
  8
Layer_1
 62
5
100
AcDbSpline
 70
8
 71
3
 72
8
 73
4
 74
0
 40
0
 40
0
 40
0
 40
0
 40
1
 40
1
 40
1
 40
1
 10
50.355490
 20
50.204497
 30
0.0
 10
48.833556
 20
50.204498
 30
0.0
 10
47.373956
 20
49.599912
 30
0.0
 10
46.297786
 20
48.523743
 30
0.0
  0
SPLINE
  5
26b
100
AcDbEntity
  8
Layer_1
 62
5
100
AcDbSpline
 70
8
 71
3
 72
8
 73
4
 74
0
 40
0
 40
0
 40
0
 40
0
 40
1
 40
1
 40
1
 40
1
 10
46.297786
 20
48.523743
 30
0.0
 10
45.221616
 20
47.447573
 30
0.0
 10
44.617030
 20
45.987974
 30
0.0
 10
44.617030
 20
44.466040
 30
0.0
  0
LINE
  5
26c
100
AcDbEntity
  8
Layer_1
 62
5
100
AcDbLine
 10
44.617030
 20
44.466040
 30
0.0
 11
44.617030
 21
44.466040
 31
0.0
  0
SPLINE
  5
26d
100
AcDbEntity
  8
Layer_1
 62
5
100
AcDbSpline
 70
8
 71
3
 72
8
 73
4
 74
0
 40
0
 40
0
 40
0
 40
0
 40
1
 40
1
 40
1
 40
1
 10
27.387360
 20
44.466040
 30
0.0
 10
27.387360
 20
42.944106
 30
0.0
 10
27.991946
 20
41.484507
 30
0.0
 10
29.068116
 20
40.408337
 30
0.0
  0
SPLINE
  5
26e
100
AcDbEntity
  8
Layer_1
 62
5
100
AcDbSpline
 70
8
 71
3
 72
8
 73
4
 74
0
 40
0
 40
0
 40
0
 40
0
 40
1
 40
1
 40
1
 40
1
 10
29.068116
 20
40.408337
 30
0.0
 10
30.144286
 20
39.332168
 30
0.0
 10
31.603886
 20
38.727582
 30
0.0
 10
33.125820
 20
38.727583
 30
0.0
  0
SPLINE
  5
26f
100
AcDbEntity
  8
Layer_1
 62
5
100
AcDbSpline
 70
8
 71
3
 72
8
 73
4
 74
0
 40
0
 40
0
 40
0
 40
0
 40
1
 40
1
 40
1
 40
1
 10
33.125820
 20
38.727583
 30
0.0
 10
36.295080
 20
38.727587
 30
0.0
 10
38.864270
 20
41.296780
 30
0.0
 10
38.864270
 20
44.466040
 30
0.0
  0
SPLINE
  5
270
100
AcDbEntity
  8
Layer_1
 62
5
100
AcDbSpline
 70
8
 71
3
 72
8
 73
4
 74
0
 40
0
 40
0
 40
0
 40
0
 40
1
 40
1
 40
1
 40
1
 10
38.864270
 20
44.466040
 30
0.0
 10
38.864270
 20
47.635300
 30
0.0
 10
36.295080
 20
50.204493
 30
0.0
 10
33.125820
 20
50.204497
 30
0.0
  0
SPLINE
  5
271
100
AcDbEntity
  8
Layer_1
 62
5
100
AcDbSpline
 70
8
 71
3
 72
8
 73
4
 74
0
 40
0
 40
0
 40
0
 40
0
 40
1
 40
1
 40
1
 40
1
 10
33.125820
 20
50.204497
 30
0.0
 10
31.603886
 20
50.204498
 30
0.0
 10
30.144286
 20
49.599912
 30
0.0
 10
29.068116
 20
48.523743
 30
0.0
  0
SPLINE
  5
272
100
AcDbEntity
  8
Layer_1
 62
5
100
AcDbSpline
 70
8
 71
3
 72
8
 73
4
 74
0
 40
0
 40
0
 40
0
 40
0
 40
1
 40
1
 40
1
 40
1
 10
29.068116
 20
48.523743
 30
0.0
 10
27.991946
 20
47.447573
 30
0.0
 10
27.387360
 20
45.987974
 30
0.0
 10
27.387360
 20
44.466040
 30
0.0
  0
LINE
  5
273
100
AcDbEntity
  8
Layer_1
 62
5
100
AcDbLine
 10
27.387360
 20
44.466040
 30
0.0
 11
27.387360
 21
44.466040
 31
0.0
  0
SPLINE
  5
274
100
AcDbEntity
  8
Layer_1
 62
5
100
AcDbSpline
 70
8
 71
3
 72
8
 73
4
 74
0
 40
0
 40
0
 40
0
 40
0
 40
1
 40
1
 40
1
 40
1
 10
113.535700
 20
27.237694
 30
0.0
 10
113.535700
 20
25.715760
 30
0.0
 10
114.140286
 20
24.256161
 30
0.0
 10
115.216456
 20
23.179991
 30
0.0
  0
SPLINE
  5
275
100
AcDbEntity
  8
Layer_1
 62
5
100
AcDbSpline
 70
8
 71
3
 72
8
 73
4
 74
0
 40
0
 40
0
 40
0
 40
0
 40
1
 40
1
 40
1
 40
1
 10
115.216456
 20
23.179991
 30
0.0
 10
116.292626
 20
22.103822
 30
0.0
 10
117.752226
 20
21.499236
 30
0.0
 10
119.274160
 20
21.499237
 30
0.0
  0
SPLINE
  5
276
100
AcDbEntity
  8
Layer_1
 62
5
100
AcDbSpline
 70
8
 71
3
 72
8
 73
4
 74
0
 40
0
 40
0
 40
0
 40
0
 40
1
 40
1
 40
1
 40
1
 10
119.274160
 20
21.499237
 30
0.0
 10
120.796094
 20
21.499236
 30
0.0
 10
122.255694
 20
22.103822
 30
0.0
 10
123.331864
 20
23.179991
 30
0.0
  0
SPLINE
  5
277
100
AcDbEntity
  8
Layer_1
 62
5
100
AcDbSpline
 70
8
 71
3
 72
8
 73
4
 74
0
 40
0
 40
0
 40
0
 40
0
 40
1
 40
1
 40
1
 40
1
 10
123.331864
 20
23.179991
 30
0.0
 10
124.408034
 20
24.256161
 30
0.0
 10
125.012620
 20
25.715760
 30
0.0
 10
125.012620
 20
27.237694
 30
0.0
  0
SPLINE
  5
278
100
AcDbEntity
  8
Layer_1
 62
5
100
AcDbSpline
 70
8
 71
3
 72
8
 73
4
 74
0
 40
0
 40
0
 40
0
 40
0
 40
1
 40
1
 40
1
 40
1
 10
125.012620
 20
27.237694
 30
0.0
 10
125.012620
 20
28.759628
 30
0.0
 10
124.408034
 20
30.219227
 30
0.0
 10
123.331864
 20
31.295397
 30
0.0
  0
SPLINE
  5
279
100
AcDbEntity
  8
Layer_1
 62
5
100
AcDbSpline
 70
8
 71
3
 72
8
 73
4
 74
0
 40
0
 40
0
 40
0
 40
0
 40
1
 40
1
 40
1
 40
1
 10
123.331864
 20
31.295397
 30
0.0
 10
122.255694
 20
32.371566
 30
0.0
 10
120.796094
 20
32.976152
 30
0.0
 10
119.274160
 20
32.976151
 30
0.0
  0
SPLINE
  5
27a
100
AcDbEntity
  8
Layer_1
 62
5
100
AcDbSpline
 70
8
 71
3
 72
8
 73
4
 74
0
 40
0
 40
0
 40
0
 40
0
 40
1
 40
1
 40
1
 40
1
 10
119.274160
 20
32.976151
 30
0.0
 10
117.752226
 20
32.976152
 30
0.0
 10
116.292626
 20
32.371566
 30
0.0
 10
115.216456
 20
31.295397
 30
0.0
  0
SPLINE
  5
27b
100
AcDbEntity
  8
Layer_1
 62
5
100
AcDbSpline
 70
8
 71
3
 72
8
 73
4
 74
0
 40
0
 40
0
 40
0
 40
0
 40
1
 40
1
 40
1
 40
1
 10
115.216456
 20
31.295397
 30
0.0
 10
114.140286
 20
30.219227
 30
0.0
 10
113.535700
 20
28.759628
 30
0.0
 10
113.535700
 20
27.237694
 30
0.0
  0
LINE
  5
27c
100
AcDbEntity
  8
Layer_1
 62
5
100
AcDbLine
 10
113.535700
 20
27.237694
 30
0.0
 11
113.535700
 21
27.237694
 31
0.0
  0
SPLINE
  5
27d
100
AcDbEntity
  8
Layer_1
 62
5
100
AcDbSpline
 70
8
 71
3
 72
8
 73
4
 74
0
 40
0
 40
0
 40
0
 40
0
 40
1
 40
1
 40
1
 40
1
 10
96.306030
 20
27.237694
 30
0.0
 10
96.306030
 20
25.715760
 30
0.0
 10
96.910616
 20
24.256161
 30
0.0
 10
97.986786
 20
23.179991
 30
0.0
  0
SPLINE
  5
27e
100
AcDbEntity
  8
Layer_1
 62
5
100
AcDbSpline
 70
8
 71
3
 72
8
 73
4
 74
0
 40
0
 40
0
 40
0
 40
0
 40
1
 40
1
 40
1
 40
1
 10
97.986786
 20
23.179991
 30
0.0
 10
99.062956
 20
22.103822
 30
0.0
 10
100.522556
 20
21.499236
 30
0.0
 10
102.044490
 20
21.499237
 30
0.0
  0
SPLINE
  5
27f
100
AcDbEntity
  8
Layer_1
 62
5
100
AcDbSpline
 70
8
 71
3
 72
8
 73
4
 74
0
 40
0
 40
0
 40
0
 40
0
 40
1
 40
1
 40
1
 40
1
 10
102.044490
 20
21.499237
 30
0.0
 10
105.213750
 20
21.499241
 30
0.0
 10
107.782940
 20
24.068435
 30
0.0
 10
107.782940
 20
27.237694
 30
0.0
  0
SPLINE
  5
280
100
AcDbEntity
  8
Layer_1
 62
5
100
AcDbSpline
 70
8
 71
3
 72
8
 73
4
 74
0
 40
0
 40
0
 40
0
 40
0
 40
1
 40
1
 40
1
 40
1
 10
107.782940
 20
27.237694
 30
0.0
 10
107.782940
 20
30.406954
 30
0.0
 10
105.213750
 20
32.976147
 30
0.0
 10
102.044490
 20
32.976151
 30
0.0
  0
SPLINE
  5
281
100
AcDbEntity
  8
Layer_1
 62
5
100
AcDbSpline
 70
8
 71
3
 72
8
 73
4
 74
0
 40
0
 40
0
 40
0
 40
0
 40
1
 40
1
 40
1
 40
1
 10
102.044490
 20
32.976151
 30
0.0
 10
100.522556
 20
32.976152
 30
0.0
 10
99.062956
 20
32.371566
 30
0.0
 10
97.986786
 20
31.295397
 30
0.0
  0
SPLINE
  5
282
100
AcDbEntity
  8
Layer_1
 62
5
100
AcDbSpline
 70
8
 71
3
 72
8
 73
4
 74
0
 40
0
 40
0
 40
0
 40
0
 40
1
 40
1
 40
1
 40
1
 10
97.986786
 20
31.295397
 30
0.0
 10
96.910616
 20
30.219227
 30
0.0
 10
96.306030
 20
28.759628
 30
0.0
 10
96.306030
 20
27.237694
 30
0.0
  0
LINE
  5
283
100
AcDbEntity
  8
Layer_1
 62
5
100
AcDbLine
 10
96.306030
 20
27.237694
 30
0.0
 11
96.306030
 21
27.237694
 31
0.0
  0
SPLINE
  5
284
100
AcDbEntity
  8
Layer_1
 62
5
100
AcDbSpline
 70
8
 71
3
 72
8
 73
4
 74
0
 40
0
 40
0
 40
0
 40
0
 40
1
 40
1
 40
1
 40
1
 10
79.076350
 20
27.237694
 30
0.0
 10
79.076350
 20
25.715760
 30
0.0
 10
79.680936
 20
24.256161
 30
0.0
 10
80.757106
 20
23.179991
 30
0.0
  0
SPLINE
  5
285
100
AcDbEntity
  8
Layer_1
 62
5
100
AcDbSpline
 70
8
 71
3
 72
8
 73
4
 74
0
 40
0
 40
0
 40
0
 40
0
 40
1
 40
1
 40
1
 40
1
 10
80.757106
 20
23.179991
 30
0.0
 10
81.833276
 20
22.103822
 30
0.0
 10
83.292876
 20
21.499236
 30
0.0
 10
84.814810
 20
21.499237
 30
0.0
  0
SPLINE
  5
286
100
AcDbEntity
  8
Layer_1
 62
5
100
AcDbSpline
 70
8
 71
3
 72
8
 73
4
 74
0
 40
0
 40
0
 40
0
 40
0
 40
1
 40
1
 40
1
 40
1
 10
84.814810
 20
21.499237
 30
0.0
 10
86.336744
 20
21.499236
 30
0.0
 10
87.796344
 20
22.103822
 30
0.0
 10
88.872514
 20
23.179991
 30
0.0
  0
SPLINE
  5
287
100
AcDbEntity
  8
Layer_1
 62
5
100
AcDbSpline
 70
8
 71
3
 72
8
 73
4
 74
0
 40
0
 40
0
 40
0
 40
0
 40
1
 40
1
 40
1
 40
1
 10
88.872514
 20
23.179991
 30
0.0
 10
89.948684
 20
24.256161
 30
0.0
 10
90.553270
 20
25.715760
 30
0.0
 10
90.553270
 20
27.237694
 30
0.0
  0
SPLINE
  5
288
100
AcDbEntity
  8
Layer_1
 62
5
100
AcDbSpline
 70
8
 71
3
 72
8
 73
4
 74
0
 40
0
 40
0
 40
0
 40
0
 40
1
 40
1
 40
1
 40
1
 10
90.553270
 20
27.237694
 30
0.0
 10
90.553270
 20
28.759628
 30
0.0
 10
89.948684
 20
30.219227
 30
0.0
 10
88.872514
 20
31.295397
 30
0.0
  0
SPLINE
  5
289
100
AcDbEntity
  8
Layer_1
 62
5
100
AcDbSpline
 70
8
 71
3
 72
8
 73
4
 74
0
 40
0
 40
0
 40
0
 40
0
 40
1
 40
1
 40
1
 40
1
 10
88.872514
 20
31.295397
 30
0.0
 10
87.796344
 20
32.371566
 30
0.0
 10
86.336744
 20
32.976152
 30
0.0
 10
84.814810
 20
32.976151
 30
0.0
  0
SPLINE
  5
28a
100
AcDbEntity
  8
Layer_1
 62
5
100
AcDbSpline
 70
8
 71
3
 72
8
 73
4
 74
0
 40
0
 40
0
 40
0
 40
0
 40
1
 40
1
 40
1
 40
1
 10
84.814810
 20
32.976151
 30
0.0
 10
83.292876
 20
32.976152
 30
0.0
 10
81.833276
 20
32.371566
 30
0.0
 10
80.757106
 20
31.295397
 30
0.0
  0
SPLINE
  5
28b
100
AcDbEntity
  8
Layer_1
 62
5
100
AcDbSpline
 70
8
 71
3
 72
8
 73
4
 74
0
 40
0
 40
0
 40
0
 40
0
 40
1
 40
1
 40
1
 40
1
 10
80.757106
 20
31.295397
 30
0.0
 10
79.680936
 20
30.219227
 30
0.0
 10
79.076350
 20
28.759628
 30
0.0
 10
79.076350
 20
27.237694
 30
0.0
  0
LINE
  5
28c
100
AcDbEntity
  8
Layer_1
 62
5
100
AcDbLine
 10
79.076350
 20
27.237694
 30
0.0
 11
79.076350
 21
27.237694
 31
0.0
  0
SPLINE
  5
28d
100
AcDbEntity
  8
Layer_1
 62
5
100
AcDbSpline
 70
8
 71
3
 72
8
 73
4
 74
0
 40
0
 40
0
 40
0
 40
0
 40
1
 40
1
 40
1
 40
1
 10
61.846710
 20
27.237694
 30
0.0
 10
61.846710
 20
25.715760
 30
0.0
 10
62.451296
 20
24.256161
 30
0.0
 10
63.527466
 20
23.179991
 30
0.0
  0
SPLINE
  5
28e
100
AcDbEntity
  8
Layer_1
 62
5
100
AcDbSpline
 70
8
 71
3
 72
8
 73
4
 74
0
 40
0
 40
0
 40
0
 40
0
 40
1
 40
1
 40
1
 40
1
 10
63.527466
 20
23.179991
 30
0.0
 10
64.603636
 20
22.103822
 30
0.0
 10
66.063236
 20
21.499236
 30
0.0
 10
67.585170
 20
21.499237
 30
0.0
  0
SPLINE
  5
28f
100
AcDbEntity
  8
Layer_1
 62
5
100
AcDbSpline
 70
8
 71
3
 72
8
 73
4
 74
0
 40
0
 40
0
 40
0
 40
0
 40
1
 40
1
 40
1
 40
1
 10
67.585170
 20
21.499237
 30
0.0
 10
70.754430
 20
21.499241
 30
0.0
 10
73.323620
 20
24.068435
 30
0.0
 10
73.323620
 20
27.237694
 30
0.0
  0
SPLINE
  5
290
100
AcDbEntity
  8
Layer_1
 62
5
100
AcDbSpline
 70
8
 71
3
 72
8
 73
4
 74
0
 40
0
 40
0
 40
0
 40
0
 40
1
 40
1
 40
1
 40
1
 10
73.323620
 20
27.237694
 30
0.0
 10
73.323620
 20
30.406954
 30
0.0
 10
70.754430
 20
32.976147
 30
0.0
 10
67.585170
 20
32.976151
 30
0.0
  0
SPLINE
  5
291
100
AcDbEntity
  8
Layer_1
 62
5
100
AcDbSpline
 70
8
 71
3
 72
8
 73
4
 74
0
 40
0
 40
0
 40
0
 40
0
 40
1
 40
1
 40
1
 40
1
 10
67.585170
 20
32.976151
 30
0.0
 10
66.063236
 20
32.976152
 30
0.0
 10
64.603636
 20
32.371566
 30
0.0
 10
63.527466
 20
31.295397
 30
0.0
  0
SPLINE
  5
292
100
AcDbEntity
  8
Layer_1
 62
5
100
AcDbSpline
 70
8
 71
3
 72
8
 73
4
 74
0
 40
0
 40
0
 40
0
 40
0
 40
1
 40
1
 40
1
 40
1
 10
63.527466
 20
31.295397
 30
0.0
 10
62.451296
 20
30.219227
 30
0.0
 10
61.846710
 20
28.759628
 30
0.0
 10
61.846710
 20
27.237694
 30
0.0
  0
LINE
  5
293
100
AcDbEntity
  8
Layer_1
 62
5
100
AcDbLine
 10
61.846710
 20
27.237694
 30
0.0
 11
61.846710
 21
27.237694
 31
0.0
  0
SPLINE
  5
294
100
AcDbEntity
  8
Layer_1
 62
5
100
AcDbSpline
 70
8
 71
3
 72
8
 73
4
 74
0
 40
0
 40
0
 40
0
 40
0
 40
1
 40
1
 40
1
 40
1
 10
44.617030
 20
27.237694
 30
0.0
 10
44.617030
 20
25.715760
 30
0.0
 10
45.221616
 20
24.256161
 30
0.0
 10
46.297786
 20
23.179991
 30
0.0
  0
SPLINE
  5
295
100
AcDbEntity
  8
Layer_1
 62
5
100
AcDbSpline
 70
8
 71
3
 72
8
 73
4
 74
0
 40
0
 40
0
 40
0
 40
0
 40
1
 40
1
 40
1
 40
1
 10
46.297786
 20
23.179991
 30
0.0
 10
47.373956
 20
22.103822
 30
0.0
 10
48.833556
 20
21.499236
 30
0.0
 10
50.355490
 20
21.499237
 30
0.0
  0
SPLINE
  5
296
100
AcDbEntity
  8
Layer_1
 62
5
100
AcDbSpline
 70
8
 71
3
 72
8
 73
4
 74
0
 40
0
 40
0
 40
0
 40
0
 40
1
 40
1
 40
1
 40
1
 10
50.355490
 20
21.499237
 30
0.0
 10
51.877424
 20
21.499236
 30
0.0
 10
53.337024
 20
22.103822
 30
0.0
 10
54.413194
 20
23.179991
 30
0.0
  0
SPLINE
  5
297
100
AcDbEntity
  8
Layer_1
 62
5
100
AcDbSpline
 70
8
 71
3
 72
8
 73
4
 74
0
 40
0
 40
0
 40
0
 40
0
 40
1
 40
1
 40
1
 40
1
 10
54.413194
 20
23.179991
 30
0.0
 10
55.489364
 20
24.256161
 30
0.0
 10
56.093950
 20
25.715760
 30
0.0
 10
56.093950
 20
27.237694
 30
0.0
  0
SPLINE
  5
298
100
AcDbEntity
  8
Layer_1
 62
5
100
AcDbSpline
 70
8
 71
3
 72
8
 73
4
 74
0
 40
0
 40
0
 40
0
 40
0
 40
1
 40
1
 40
1
 40
1
 10
56.093950
 20
27.237694
 30
0.0
 10
56.093950
 20
28.759628
 30
0.0
 10
55.489364
 20
30.219227
 30
0.0
 10
54.413194
 20
31.295397
 30
0.0
  0
SPLINE
  5
299
100
AcDbEntity
  8
Layer_1
 62
5
100
AcDbSpline
 70
8
 71
3
 72
8
 73
4
 74
0
 40
0
 40
0
 40
0
 40
0
 40
1
 40
1
 40
1
 40
1
 10
54.413194
 20
31.295397
 30
0.0
 10
53.337024
 20
32.371566
 30
0.0
 10
51.877424
 20
32.976152
 30
0.0
 10
50.355490
 20
32.976151
 30
0.0
  0
SPLINE
  5
29a
100
AcDbEntity
  8
Layer_1
 62
5
100
AcDbSpline
 70
8
 71
3
 72
8
 73
4
 74
0
 40
0
 40
0
 40
0
 40
0
 40
1
 40
1
 40
1
 40
1
 10
50.355490
 20
32.976151
 30
0.0
 10
48.833556
 20
32.976152
 30
0.0
 10
47.373956
 20
32.371566
 30
0.0
 10
46.297786
 20
31.295397
 30
0.0
  0
SPLINE
  5
29b
100
AcDbEntity
  8
Layer_1
 62
5
100
AcDbSpline
 70
8
 71
3
 72
8
 73
4
 74
0
 40
0
 40
0
 40
0
 40
0
 40
1
 40
1
 40
1
 40
1
 10
46.297786
 20
31.295397
 30
0.0
 10
45.221616
 20
30.219227
 30
0.0
 10
44.617030
 20
28.759628
 30
0.0
 10
44.617030
 20
27.237694
 30
0.0
  0
LINE
  5
29c
100
AcDbEntity
  8
Layer_1
 62
5
100
AcDbLine
 10
44.617030
 20
27.237694
 30
0.0
 11
44.617030
 21
27.237694
 31
0.0
  0
SPLINE
  5
29d
100
AcDbEntity
  8
Layer_1
 62
5
100
AcDbSpline
 70
8
 71
3
 72
8
 73
4
 74
0
 40
0
 40
0
 40
0
 40
0
 40
1
 40
1
 40
1
 40
1
 10
27.387360
 20
27.237694
 30
0.0
 10
27.387360
 20
25.715760
 30
0.0
 10
27.991946
 20
24.256161
 30
0.0
 10
29.068116
 20
23.179991
 30
0.0
  0
SPLINE
  5
29e
100
AcDbEntity
  8
Layer_1
 62
5
100
AcDbSpline
 70
8
 71
3
 72
8
 73
4
 74
0
 40
0
 40
0
 40
0
 40
0
 40
1
 40
1
 40
1
 40
1
 10
29.068116
 20
23.179991
 30
0.0
 10
30.144286
 20
22.103822
 30
0.0
 10
31.603886
 20
21.499236
 30
0.0
 10
33.125820
 20
21.499237
 30
0.0
  0
SPLINE
  5
29f
100
AcDbEntity
  8
Layer_1
 62
5
100
AcDbSpline
 70
8
 71
3
 72
8
 73
4
 74
0
 40
0
 40
0
 40
0
 40
0
 40
1
 40
1
 40
1
 40
1
 10
33.125820
 20
21.499237
 30
0.0
 10
36.295080
 20
21.499241
 30
0.0
 10
38.864270
 20
24.068434
 30
0.0
 10
38.864270
 20
27.237694
 30
0.0
  0
SPLINE
  5
2a0
100
AcDbEntity
  8
Layer_1
 62
5
100
AcDbSpline
 70
8
 71
3
 72
8
 73
4
 74
0
 40
0
 40
0
 40
0
 40
0
 40
1
 40
1
 40
1
 40
1
 10
38.864270
 20
27.237694
 30
0.0
 10
38.864270
 20
30.406954
 30
0.0
 10
36.295080
 20
32.976147
 30
0.0
 10
33.125820
 20
32.976151
 30
0.0
  0
SPLINE
  5
2a1
100
AcDbEntity
  8
Layer_1
 62
5
100
AcDbSpline
 70
8
 71
3
 72
8
 73
4
 74
0
 40
0
 40
0
 40
0
 40
0
 40
1
 40
1
 40
1
 40
1
 10
33.125820
 20
32.976151
 30
0.0
 10
31.603886
 20
32.976152
 30
0.0
 10
30.144286
 20
32.371566
 30
0.0
 10
29.068116
 20
31.295397
 30
0.0
  0
SPLINE
  5
2a2
100
AcDbEntity
  8
Layer_1
 62
5
100
AcDbSpline
 70
8
 71
3
 72
8
 73
4
 74
0
 40
0
 40
0
 40
0
 40
0
 40
1
 40
1
 40
1
 40
1
 10
29.068116
 20
31.295397
 30
0.0
 10
27.991946
 20
30.219227
 30
0.0
 10
27.387360
 20
28.759628
 30
0.0
 10
27.387360
 20
27.237694
 30
0.0
  0
LINE
  5
2a3
100
AcDbEntity
  8
Layer_1
 62
5
100
AcDbLine
 10
27.387360
 20
27.237694
 30
0.0
 11
27.387360
 21
27.237694
 31
0.0
  0
LINE
  5
2a4
100
AcDbEntity
  8
Layer_1
 62
1
100
AcDbLine
 10
89.751158
 20
86.230613
 30
0.0
 11
92.069507
 21
83.912265
 31
0.0
  0
LINE
  5
2a5
100
AcDbEntity
  8
Layer_1
 62
1
100
AcDbLine
 10
92.069507
 20
83.912265
 30
0.0
 11
105.523373
 21
97.366131
 31
0.0
  0
LINE
  5
2a6
100
AcDbEntity
  8
Layer_1
 62
1
100
AcDbLine
 10
105.523373
 20
97.366131
 30
0.0
 11
103.205024
 21
99.684480
 31
0.0
  0
LINE
  5
2a7
100
AcDbEntity
  8
Layer_1
 62
1
100
AcDbLine
 10
103.205024
 20
99.684480
 30
0.0
 11
89.751158
 21
86.230613
 31
0.0
  0
LINE
  5
2a8
100
AcDbEntity
  8
Layer_1
 62
1
100
AcDbLine
 10
72.807727
 20
52.079442
 30
0.0
 11
75.126076
 21
49.761093
 31
0.0
  0
LINE
  5
2a9
100
AcDbEntity
  8
Layer_1
 62
1
100
AcDbLine
 10
75.126076
 20
49.761093
 30
0.0
 11
88.579935
 21
63.214952
 31
0.0
  0
LINE
  5
2aa
100
AcDbEntity
  8
Layer_1
 62
1
100
AcDbLine
 10
88.579935
 20
63.214952
 30
0.0
 11
86.261586
 21
65.533301
 31
0.0
  0
LINE
  5
2ab
100
AcDbEntity
  8
Layer_1
 62
1
100
AcDbLine
 10
86.261586
 20
65.533301
 30
0.0
 11
72.807727
 21
52.079442
 31
0.0
  0
LINE
  5
2ac
100
AcDbEntity
  8
Layer_1
 62
1
100
AcDbLine
 10
38.832590
 20
69.790345
 30
0.0
 11
41.150938
 21
67.471997
 31
0.0
  0
LINE
  5
2ad
100
AcDbEntity
  8
Layer_1
 62
1
100
AcDbLine
 10
41.150938
 20
67.471997
 30
0.0
 11
54.604797
 21
80.925856
 31
0.0
  0
LINE
  5
2ae
100
AcDbEntity
  8
Layer_1
 62
1
100
AcDbLine
 10
54.604797
 20
80.925856
 30
0.0
 11
52.286449
 21
83.244205
 31
0.0
  0
LINE
  5
2af
100
AcDbEntity
  8
Layer_1
 62
1
100
AcDbLine
 10
52.286449
 20
83.244205
 30
0.0
 11
38.832590
 21
69.790345
 31
0.0
  0
LINE
  5
2b0
100
AcDbEntity
  8
Layer_1
 62
1
100
AcDbLine
 10
29.203719
 20
42.899541
 30
0.0
 11
31.522060
 21
40.581200
 31
0.0
  0
LINE
  5
2b1
100
AcDbEntity
  8
Layer_1
 62
1
100
AcDbLine
 10
31.522060
 20
40.581200
 30
0.0
 11
44.975926
 21
54.035066
 31
0.0
  0
LINE
  5
2b2
100
AcDbEntity
  8
Layer_1
 62
1
100
AcDbLine
 10
44.975926
 20
54.035066
 30
0.0
 11
42.657585
 21
56.353407
 31
0.0
  0
LINE
  5
2b3
100
AcDbEntity
  8
Layer_1
 62
1
100
AcDbLine
 10
42.657585
 20
56.353407
 30
0.0
 11
29.203719
 21
42.899541
 31
0.0
  0
LINE
  5
2b4
100
AcDbEntity
  8
Layer_1
 62
1
100
AcDbLine
 10
120.298885
 20
23.876573
 30
0.0
 11
122.617234
 21
26.194921
 31
0.0
  0
LINE
  5
2b5
100
AcDbEntity
  8
Layer_1
 62
1
100
AcDbLine
 10
122.617234
 20
26.194921
 30
0.0
 11
109.163368
 21
39.648788
 31
0.0
  0
LINE
  5
2b6
100
AcDbEntity
  8
Layer_1
 62
1
100
AcDbLine
 10
109.163368
 20
39.648788
 30
0.0
 11
106.845019
 21
37.330439
 31
0.0
  0
LINE
  5
2b7
100
AcDbEntity
  8
Layer_1
 62
1
100
AcDbLine
 10
106.845019
 20
37.330439
 30
0.0
 11
120.298885
 21
23.876573
 31
0.0
  0
SPLINE
  5
2b8
100
AcDbEntity
  8
Layer_1
 62
1
100
AcDbSpline
 70
8
 71
3
 72
8
 73
4
 74
0
 40
0
 40
0
 40
0
 40
0
 40
1
 40
1
 40
1
 40
1
 10
103.627430
 20
99.179695
 30
0.0
 10
104.656750
 20
100.197764
 30
0.0
 10
105.560900
 20
100.905179
 30
0.0
 10
107.409820
 20
101.360249
 30
0.0
  0
SPLINE
  5
2b9
100
AcDbEntity
  8
Layer_1
 62
1
100
AcDbSpline
 70
8
 71
3
 72
8
 73
4
 74
0
 40
0
 40
0
 40
0
 40
0
 40
1
 40
1
 40
1
 40
1
 10
107.409820
 20
101.360249
 30
0.0
 10
107.872050
 20
101.474017
 30
0.0
 10
108.358520
 20
101.531761
 30
0.0
 10
108.863370
 20
101.524511
 30
0.0
  0
SPLINE
  5
2ba
100
AcDbEntity
  8
Layer_1
 62
1
100
AcDbSpline
 70
8
 71
3
 72
8
 73
4
 74
0
 40
0
 40
0
 40
0
 40
0
 40
1
 40
1
 40
1
 40
1
 10
108.863370
 20
101.524511
 30
0.0
 10
110.377920
 20
101.502760
 30
0.0
 10
112.055970
 20
100.894678
 30
0.0
 10
113.725090
 20
99.449186
 30
0.0
  0
SPLINE
  5
2bb
100
AcDbEntity
  8
Layer_1
 62
1
100
AcDbSpline
 70
8
 71
3
 72
8
 73
4
 74
0
 40
0
 40
0
 40
0
 40
0
 40
1
 40
1
 40
1
 40
1
 10
113.725090
 20
99.449186
 30
0.0
 10
115.809480
 20
97.644063
 30
0.0
 10
116.276660
 20
95.069333
 30
0.0
 10
116.144920
 20
92.879251
 30
0.0
  0
SPLINE
  5
2bc
100
AcDbEntity
  8
Layer_1
 62
1
100
AcDbSpline
 70
8
 71
3
 72
8
 73
4
 74
0
 40
0
 40
0
 40
0
 40
0
 40
1
 40
1
 40
1
 40
1
 10
116.144920
 20
92.879251
 30
0.0
 10
116.013190
 20
90.689168
 30
0.0
 10
115.324650
 20
88.776408
 30
0.0
 10
114.970840
 20
87.891303
 30
0.0
  0
SPLINE
  5
2bd
100
AcDbEntity
  8
Layer_1
 62
1
100
AcDbSpline
 70
8
 71
3
 72
8
 73
4
 74
0
 40
0
 40
0
 40
0
 40
0
 40
1
 40
1
 40
1
 40
1
 10
114.970840
 20
87.891303
 30
0.0
 10
112.923550
 20
82.769798
 30
0.0
 10
109.138130
 20
79.592613
 30
0.0
 10
105.541750
 20
76.654231
 30
0.0
  0
SPLINE
  5
2be
100
AcDbEntity
  8
Layer_1
 62
1
100
AcDbSpline
 70
8
 71
3
 72
8
 73
4
 74
0
 40
0
 40
0
 40
0
 40
0
 40
1
 40
1
 40
1
 40
1
 10
105.541750
 20
76.654231
 30
0.0
 10
103.992260
 20
75.388239
 30
0.0
 10
102.037620
 20
74.032446
 30
0.0
 10
100.339380
 20
72.889429
 30
0.0
  0
SPLINE
  5
2bf
100
AcDbEntity
  8
Layer_1
 62
1
100
AcDbSpline
 70
8
 71
3
 72
8
 73
4
 74
0
 40
0
 40
0
 40
0
 40
0
 40
1
 40
1
 40
1
 40
1
 10
100.339380
 20
72.889429
 30
0.0
 10
98.641140
 20
71.746415
 30
0.0
 10
97.143030
 20
70.770610
 30
0.0
 10
96.763650
 20
70.478967
 30
0.0
  0
SPLINE
  5
2c0
100
AcDbEntity
  8
Layer_1
 62
1
100
AcDbSpline
 70
8
 71
3
 72
8
 73
4
 74
0
 40
0
 40
0
 40
0
 40
0
 40
1
 40
1
 40
1
 40
1
 10
96.763650
 20
70.478967
 30
0.0
 10
91.539960
 20
66.463320
 30
0.0
 10
92.714400
 20
67.288028
 30
0.0
 10
88.115430
 20
63.590212
 30
0.0
  0
SPLINE
  5
2c1
100
AcDbEntity
  8
Layer_1
 62
1
100
AcDbSpline
 70
8
 71
3
 72
8
 73
4
 74
0
 40
0
 40
0
 40
0
 40
0
 40
1
 40
1
 40
1
 40
1
 10
86.692450
 20
65.074073
 30
0.0
 10
91.282160
 20
68.764444
 30
0.0
 10
90.294670
 20
68.069362
 30
0.0
 10
95.525070
 20
72.090168
 30
0.0
  0
SPLINE
  5
2c2
100
AcDbEntity
  8
Layer_1
 62
1
100
AcDbSpline
 70
8
 71
3
 72
8
 73
4
 74
0
 40
0
 40
0
 40
0
 40
0
 40
1
 40
1
 40
1
 40
1
 10
95.525070
 20
72.090168
 30
0.0
 10
96.146770
 20
72.568091
 30
0.0
 10
97.525990
 20
73.444981
 30
0.0
 10
99.204980
 20
74.575047
 30
0.0
  0
SPLINE
  5
2c3
100
AcDbEntity
  8
Layer_1
 62
1
100
AcDbSpline
 70
8
 71
3
 72
8
 73
4
 74
0
 40
0
 40
0
 40
0
 40
0
 40
1
 40
1
 40
1
 40
1
 10
99.204980
 20
74.575047
 30
0.0
 10
100.883970
 20
75.705110
 30
0.0
 10
102.806280
 20
77.042657
 30
0.0
 10
104.256320
 20
78.227397
 30
0.0
  0
SPLINE
  5
2c4
100
AcDbEntity
  8
Layer_1
 62
1
100
AcDbSpline
 70
8
 71
3
 72
8
 73
4
 74
0
 40
0
 40
0
 40
0
 40
0
 40
1
 40
1
 40
1
 40
1
 10
104.256320
 20
78.227397
 30
0.0
 10
107.835180
 20
81.151470
 30
0.0
 10
111.249650
 20
84.056474
 30
0.0
 10
113.084030
 20
88.645366
 30
0.0
  0
SPLINE
  5
2c5
100
AcDbEntity
  8
Layer_1
 62
1
100
AcDbSpline
 70
8
 71
3
 72
8
 73
4
 74
0
 40
0
 40
0
 40
0
 40
0
 40
1
 40
1
 40
1
 40
1
 10
113.084030
 20
88.645366
 30
0.0
 10
113.395070
 20
89.423484
 30
0.0
 10
114.006490
 20
91.172931
 30
0.0
 10
114.116450
 20
93.001069
 30
0.0
  0
SPLINE
  5
2c6
100
AcDbEntity
  8
Layer_1
 62
1
100
AcDbSpline
 70
8
 71
3
 72
8
 73
4
 74
0
 40
0
 40
0
 40
0
 40
0
 40
1
 40
1
 40
1
 40
1
 10
114.116450
 20
93.001069
 30
0.0
 10
114.226420
 20
94.829208
 30
0.0
 10
113.877160
 20
96.628895
 30
0.0
 10
112.394460
 20
97.912949
 30
0.0
  0
SPLINE
  5
2c7
100
AcDbEntity
  8
Layer_1
 62
1
100
AcDbSpline
 70
8
 71
3
 72
8
 73
4
 74
0
 40
0
 40
0
 40
0
 40
0
 40
1
 40
1
 40
1
 40
1
 10
112.394460
 20
97.912949
 30
0.0
 10
110.532020
 20
99.525853
 30
0.0
 10
109.143550
 20
99.694093
 30
0.0
 10
107.895440
 20
99.386898
 30
0.0
  0
SPLINE
  5
2c8
100
AcDbEntity
  8
Layer_1
 62
1
100
AcDbSpline
 70
8
 71
3
 72
8
 73
4
 74
0
 40
0
 40
0
 40
0
 40
0
 40
1
 40
1
 40
1
 40
1
 10
107.895440
 20
99.386898
 30
0.0
 10
106.647330
 20
99.079703
 30
0.0
 10
105.984780
 20
98.703298
 30
0.0
 10
105.056180
 20
97.784850
 30
0.0
  0
SPLINE
  5
2c9
100
AcDbEntity
  8
Layer_1
 62
1
100
AcDbSpline
 70
8
 71
3
 72
8
 73
4
 74
0
 40
0
 40
0
 40
0
 40
0
 40
1
 40
1
 40
1
 40
1
 10
91.592060
 20
84.420520
 30
0.0
 10
89.952550
 20
82.770991
 30
0.0
 10
89.487080
 20
82.101492
 30
0.0
 10
88.438640
 20
81.008279
 30
0.0
  0
SPLINE
  5
2ca
100
AcDbEntity
  8
Layer_1
 62
1
100
AcDbSpline
 70
8
 71
3
 72
8
 73
4
 74
0
 40
0
 40
0
 40
0
 40
0
 40
1
 40
1
 40
1
 40
1
 10
88.438640
 20
81.008279
 30
0.0
 10
87.060540
 20
79.571325
 30
0.0
 10
84.520920
 20
77.518528
 30
0.0
 10
81.453090
 20
76.338936
 30
0.0
  0
SPLINE
  5
2cb
100
AcDbEntity
  8
Layer_1
 62
1
100
AcDbSpline
 70
8
 71
3
 72
8
 73
4
 74
0
 40
0
 40
0
 40
0
 40
0
 40
1
 40
1
 40
1
 40
1
 10
81.453090
 20
76.338936
 30
0.0
 10
78.385260
 20
75.159343
 30
0.0
 10
74.654020
 20
74.920210
 30
0.0
 10
71.486020
 20
77.402230
 30
0.0
  0
SPLINE
  5
2cc
100
AcDbEntity
  8
Layer_1
 62
1
100
AcDbSpline
 70
8
 71
3
 72
8
 73
4
 74
0
 40
0
 40
0
 40
0
 40
0
 40
1
 40
1
 40
1
 40
1
 10
71.486020
 20
77.402230
 30
0.0
 10
71.099290
 20
77.705210
 30
0.0
 10
70.761440
 20
78.098647
 30
0.0
 10
70.323500
 20
78.613802
 30
0.0
  0
SPLINE
  5
2cd
100
AcDbEntity
  8
Layer_1
 62
1
100
AcDbSpline
 70
8
 71
3
 72
8
 73
4
 74
0
 40
0
 40
0
 40
0
 40
0
 40
1
 40
1
 40
1
 40
1
 10
70.323500
 20
78.613802
 30
0.0
 10
69.885560
 20
79.128953
 30
0.0
 10
69.391940
 20
79.742578
 30
0.0
 10
68.894750
 20
80.365010
 30
0.0
  0
SPLINE
  5
2ce
100
AcDbEntity
  8
Layer_1
 62
1
100
AcDbSpline
 70
8
 71
3
 72
8
 73
4
 74
0
 40
0
 40
0
 40
0
 40
0
 40
1
 40
1
 40
1
 40
1
 10
68.894750
 20
80.365010
 30
0.0
 10
67.900380
 20
81.609881
 30
0.0
 10
66.846370
 20
82.928782
 30
0.0
 10
66.404910
 20
83.370237
 30
0.0
  0
SPLINE
  5
2cf
100
AcDbEntity
  8
Layer_1
 62
1
100
AcDbSpline
 70
8
 71
3
 72
8
 73
4
 74
0
 40
0
 40
0
 40
0
 40
0
 40
1
 40
1
 40
1
 40
1
 10
66.404910
 20
83.370237
 30
0.0
 10
65.949520
 20
83.825633
 30
0.0
 10
64.785790
 20
84.428655
 30
0.0
 10
63.423390
 20
84.719612
 30
0.0
  0
SPLINE
  5
2d0
100
AcDbEntity
  8
Layer_1
 62
1
100
AcDbSpline
 70
8
 71
3
 72
8
 73
4
 74
0
 40
0
 40
0
 40
0
 40
0
 40
1
 40
1
 40
1
 40
1
 10
63.423390
 20
84.719612
 30
0.0
 10
62.060990
 20
85.010569
 30
0.0
 10
60.500420
 20
85.027669
 30
0.0
 10
59.178480
 20
84.621494
 30
0.0
  0
SPLINE
  5
2d1
100
AcDbEntity
  8
Layer_1
 62
1
100
AcDbSpline
 70
8
 71
3
 72
8
 73
4
 74
0
 40
0
 40
0
 40
0
 40
0
 40
1
 40
1
 40
1
 40
1
 10
59.178480
 20
84.621494
 30
0.0
 10
56.886430
 20
83.917248
 30
0.0
 10
54.800000
 20
82.313952
 30
0.0
 10
53.996450
 20
81.510403
 30
0.0
  0
SPLINE
  5
2d2
100
AcDbEntity
  8
Layer_1
 62
1
100
AcDbSpline
 70
8
 71
3
 72
8
 73
4
 74
0
 40
0
 40
0
 40
0
 40
0
 40
1
 40
1
 40
1
 40
1
 10
52.606850
 20
82.865282
 30
0.0
 10
53.604600
 20
83.863028
 30
0.0
 10
55.787970
 20
85.705645
 30
0.0
 10
58.581520
 20
86.563978
 30
0.0
  0
SPLINE
  5
2d3
100
AcDbEntity
  8
Layer_1
 62
1
100
AcDbSpline
 70
8
 71
3
 72
8
 73
4
 74
0
 40
0
 40
0
 40
0
 40
0
 40
1
 40
1
 40
1
 40
1
 10
58.581520
 20
86.563978
 30
0.0
 10
59.457090
 20
86.833001
 30
0.0
 10
60.362350
 20
86.956708
 30
0.0
 10
61.254360
 20
86.969120
 30
0.0
  0
SPLINE
  5
2d4
100
AcDbEntity
  8
Layer_1
 62
1
100
AcDbSpline
 70
8
 71
3
 72
8
 73
4
 74
0
 40
0
 40
0
 40
0
 40
0
 40
1
 40
1
 40
1
 40
1
 10
61.254360
 20
86.969120
 30
0.0
 10
62.146360
 20
86.981538
 30
0.0
 10
63.025110
 20
86.882444
 30
0.0
 10
63.847830
 20
86.706743
 30
0.0
  0
SPLINE
  5
2d5
100
AcDbEntity
  8
Layer_1
 62
1
100
AcDbSpline
 70
8
 71
3
 72
8
 73
4
 74
0
 40
0
 40
0
 40
0
 40
0
 40
1
 40
1
 40
1
 40
1
 10
63.847830
 20
86.706743
 30
0.0
 10
65.493260
 20
86.355340
 30
0.0
 10
66.914950
 20
85.734242
 30
0.0
 10
67.841930
 20
84.807256
 30
0.0
  0
SPLINE
  5
2d6
100
AcDbEntity
  8
Layer_1
 62
1
100
AcDbSpline
 70
8
 71
3
 72
8
 73
4
 74
0
 40
0
 40
0
 40
0
 40
0
 40
1
 40
1
 40
1
 40
1
 10
67.841930
 20
84.807256
 30
0.0
 10
68.518820
 20
84.130366
 30
0.0
 10
69.494280
 20
82.870215
 30
0.0
 10
70.482250
 20
81.633356
 30
0.0
  0
SPLINE
  5
2d7
100
AcDbEntity
  8
Layer_1
 62
1
100
AcDbSpline
 70
8
 71
3
 72
8
 73
4
 74
0
 40
0
 40
0
 40
0
 40
0
 40
1
 40
1
 40
1
 40
1
 10
70.482250
 20
81.633356
 30
0.0
 10
70.976240
 20
81.014928
 30
0.0
 10
71.461890
 20
80.412361
 30
0.0
 10
71.871870
 20
79.930103
 30
0.0
  0
SPLINE
  5
2d8
100
AcDbEntity
  8
Layer_1
 62
1
100
AcDbSpline
 70
8
 71
3
 72
8
 73
4
 74
0
 40
0
 40
0
 40
0
 40
0
 40
1
 40
1
 40
1
 40
1
 10
71.871870
 20
79.930103
 30
0.0
 10
72.281840
 20
79.447844
 30
0.0
 10
72.660500
 20
79.063303
 30
0.0
 10
72.738930
 20
79.001857
 30
0.0
  0
SPLINE
  5
2d9
100
AcDbEntity
  8
Layer_1
 62
1
100
AcDbSpline
 70
8
 71
3
 72
8
 73
4
 74
0
 40
0
 40
0
 40
0
 40
0
 40
1
 40
1
 40
1
 40
1
 10
72.738930
 20
79.001857
 30
0.0
 10
75.264500
 20
77.023158
 30
0.0
 10
78.055830
 20
77.209811
 30
0.0
 10
80.723830
 20
78.235666
 30
0.0
  0
SPLINE
  5
2da
100
AcDbEntity
  8
Layer_1
 62
1
100
AcDbSpline
 70
8
 71
3
 72
8
 73
4
 74
0
 40
0
 40
0
 40
0
 40
0
 40
1
 40
1
 40
1
 40
1
 10
80.723830
 20
78.235666
 30
0.0
 10
83.391830
 20
79.261524
 30
0.0
 10
85.801560
 20
81.193581
 30
0.0
 10
86.972410
 20
82.414429
 30
0.0
  0
SPLINE
  5
2db
100
AcDbEntity
  8
Layer_1
 62
1
100
AcDbSpline
 70
8
 71
3
 72
8
 73
4
 74
0
 40
0
 40
0
 40
0
 40
0
 40
1
 40
1
 40
1
 40
1
 10
86.972410
 20
82.414429
 30
0.0
 10
88.062670
 20
83.551246
 30
0.0
 10
88.676300
 20
84.068981
 30
0.0
 10
90.300300
 20
85.702903
 30
0.0
  0
SPLINE
  5
2dc
100
AcDbEntity
  8
Layer_1
 62
1
100
AcDbSpline
 70
8
 71
3
 72
8
 73
4
 74
0
 40
0
 40
0
 40
0
 40
0
 40
1
 40
1
 40
1
 40
1
 10
43.165680
 20
55.833178
 30
0.0
 10
43.424420
 20
56.091914
 30
0.0
 10
43.240040
 20
55.918170
 30
0.0
 10
43.622080
 20
56.187607
 30
0.0
  0
SPLINE
  5
2dd
100
AcDbEntity
  8
Layer_1
 62
1
100
AcDbSpline
 70
8
 71
3
 72
8
 73
4
 74
0
 40
0
 40
0
 40
0
 40
0
 40
1
 40
1
 40
1
 40
1
 10
43.622080
 20
56.187607
 30
0.0
 10
44.004130
 20
56.457048
 30
0.0
 10
44.458750
 20
56.762866
 30
0.0
 10
44.915790
 20
57.064593
 30
0.0
  0
SPLINE
  5
2de
100
AcDbEntity
  8
Layer_1
 62
1
100
AcDbSpline
 70
8
 71
3
 72
8
 73
4
 74
0
 40
0
 40
0
 40
0
 40
0
 40
1
 40
1
 40
1
 40
1
 10
44.915790
 20
57.064593
 30
0.0
 10
45.829850
 20
57.668040
 30
0.0
 10
46.761370
 20
58.259838
 30
0.0
 10
47.061670
 20
58.454757
 30
0.0
  0
SPLINE
  5
2df
100
AcDbEntity
  8
Layer_1
 62
1
100
AcDbSpline
 70
8
 71
3
 72
8
 73
4
 74
0
 40
0
 40
0
 40
0
 40
0
 40
1
 40
1
 40
1
 40
1
 10
47.061670
 20
58.454757
 30
0.0
 10
48.297040
 20
59.256618
 30
0.0
 10
49.439130
 20
59.822138
 30
0.0
 10
50.286830
 20
60.450706
 30
0.0
  0
SPLINE
  5
2e0
100
AcDbEntity
  8
Layer_1
 62
1
100
AcDbSpline
 70
8
 71
3
 72
8
 73
4
 74
0
 40
0
 40
0
 40
0
 40
0
 40
1
 40
1
 40
1
 40
1
 10
50.286830
 20
60.450706
 30
0.0
 10
51.134530
 20
61.079274
 30
0.0
 10
51.695630
 20
61.706973
 30
0.0
 10
52.019300
 20
62.817625
 30
0.0
  0
SPLINE
  5
2e1
100
AcDbEntity
  8
Layer_1
 62
1
100
AcDbSpline
 70
8
 71
3
 72
8
 73
4
 74
0
 40
0
 40
0
 40
0
 40
0
 40
1
 40
1
 40
1
 40
1
 10
52.019300
 20
62.817625
 30
0.0
 10
52.200840
 20
63.440585
 30
0.0
 10
51.794310
 20
64.413154
 30
0.0
 10
51.015540
 20
64.948623
 30
0.0
  0
SPLINE
  5
2e2
100
AcDbEntity
  8
Layer_1
 62
1
100
AcDbSpline
 70
8
 71
3
 72
8
 73
4
 74
0
 40
0
 40
0
 40
0
 40
0
 40
1
 40
1
 40
1
 40
1
 10
51.015540
 20
64.948623
 30
0.0
 10
50.013280
 20
65.637758
 30
0.0
 10
48.553450
 20
65.776857
 30
0.0
 10
46.987250
 20
64.932649
 30
0.0
  0
SPLINE
  5
2e3
100
AcDbEntity
  8
Layer_1
 62
1
100
AcDbSpline
 70
8
 71
3
 72
8
 73
4
 74
0
 40
0
 40
0
 40
0
 40
0
 40
1
 40
1
 40
1
 40
1
 10
46.987250
 20
64.932649
 30
0.0
 10
45.863970
 20
64.327172
 30
0.0
 10
44.292160
 20
62.790179
 30
0.0
 10
43.243950
 20
61.614334
 30
0.0
  0
SPLINE
  5
2e4
100
AcDbEntity
  8
Layer_1
 62
1
100
AcDbSpline
 70
8
 71
3
 72
8
 73
4
 74
0
 40
0
 40
0
 40
0
 40
0
 40
1
 40
1
 40
1
 40
1
 10
43.243950
 20
61.614334
 30
0.0
 10
40.878190
 20
58.960494
 30
0.0
 10
38.800980
 20
57.903563
 30
0.0
 10
37.019630
 20
57.871582
 30
0.0
  0
SPLINE
  5
2e5
100
AcDbEntity
  8
Layer_1
 62
1
100
AcDbSpline
 70
8
 71
3
 72
8
 73
4
 74
0
 40
0
 40
0
 40
0
 40
0
 40
1
 40
1
 40
1
 40
1
 10
37.019630
 20
57.871582
 30
0.0
 10
35.238280
 20
57.839600
 30
0.0
 10
33.967690
 20
58.874899
 30
0.0
 10
33.384360
 20
59.909424
 30
0.0
  0
SPLINE
  5
2e6
100
AcDbEntity
  8
Layer_1
 62
1
100
AcDbSpline
 70
8
 71
3
 72
8
 73
4
 74
0
 40
0
 40
0
 40
0
 40
0
 40
1
 40
1
 40
1
 40
1
 10
33.384360
 20
59.909424
 30
0.0
 10
32.741860
 20
61.048896
 30
0.0
 10
32.592050
 20
62.215289
 30
0.0
 10
32.821020
 20
63.220023
 30
0.0
  0
SPLINE
  5
2e7
100
AcDbEntity
  8
Layer_1
 62
1
100
AcDbSpline
 70
8
 71
3
 72
8
 73
4
 74
0
 40
0
 40
0
 40
0
 40
0
 40
1
 40
1
 40
1
 40
1
 10
32.821020
 20
63.220023
 30
0.0
 10
33.050000
 20
64.224759
 30
0.0
 10
33.608850
 20
65.041084
 30
0.0
 10
34.227170
 20
65.694979
 30
0.0
  0
SPLINE
  5
2e8
100
AcDbEntity
  8
Layer_1
 62
1
100
AcDbSpline
 70
8
 71
3
 72
8
 73
4
 74
0
 40
0
 40
0
 40
0
 40
0
 40
1
 40
1
 40
1
 40
1
 10
34.227170
 20
65.694979
 30
0.0
 10
34.845490
 20
66.348876
 30
0.0
 10
35.535980
 20
66.853529
 30
0.0
 10
36.120600
 20
67.235627
 30
0.0
  0
SPLINE
  5
2e9
100
AcDbEntity
  8
Layer_1
 62
1
100
AcDbSpline
 70
8
 71
3
 72
8
 73
4
 74
0
 40
0
 40
0
 40
0
 40
0
 40
1
 40
1
 40
1
 40
1
 10
36.120600
 20
67.235627
 30
0.0
 10
36.705210
 20
67.617725
 30
0.0
 10
37.235390
 20
67.912128
 30
0.0
 10
37.324450
 20
67.971499
 30
0.0
  0
SPLINE
  5
2ea
100
AcDbEntity
  8
Layer_1
 62
1
100
AcDbSpline
 70
8
 71
3
 72
8
 73
4
 74
0
 40
0
 40
0
 40
0
 40
0
 40
1
 40
1
 40
1
 40
1
 10
37.324450
 20
67.971499
 30
0.0
 10
38.110860
 20
68.495769
 30
0.0
 10
38.280930
 20
68.577286
 30
0.0
 10
39.241580
 20
69.383713
 30
0.0
  0
SPLINE
  5
2eb
100
AcDbEntity
  8
Layer_1
 62
1
100
AcDbSpline
 70
8
 71
3
 72
8
 73
4
 74
0
 40
0
 40
0
 40
0
 40
0
 40
1
 40
1
 40
1
 40
1
 10
40.636700
 20
68.003458
 30
0.0
 10
39.679450
 20
67.199881
 30
0.0
 10
39.370860
 20
66.894062
 30
0.0
 10
38.451130
 20
66.280912
 30
0.0
  0
SPLINE
  5
2ec
100
AcDbEntity
  8
Layer_1
 62
1
100
AcDbSpline
 70
8
 71
3
 72
8
 73
4
 74
0
 40
0
 40
0
 40
0
 40
0
 40
1
 40
1
 40
1
 40
1
 10
38.451130
 20
66.280912
 30
0.0
 10
38.133600
 20
66.069217
 30
0.0
 10
37.739140
 20
65.865768
 30
0.0
 10
37.232400
 20
65.534564
 30
0.0
  0
SPLINE
  5
2ed
100
AcDbEntity
  8
Layer_1
 62
1
100
AcDbSpline
 70
8
 71
3
 72
8
 73
4
 74
0
 40
0
 40
0
 40
0
 40
0
 40
1
 40
1
 40
1
 40
1
 10
37.232400
 20
65.534564
 30
0.0
 10
36.725650
 20
65.203362
 30
0.0
 10
36.157840
 20
64.778826
 30
0.0
 10
35.703880
 20
64.298741
 30
0.0
  0
SPLINE
  5
2ee
100
AcDbEntity
  8
Layer_1
 62
1
100
AcDbSpline
 70
8
 71
3
 72
8
 73
4
 74
0
 40
0
 40
0
 40
0
 40
0
 40
1
 40
1
 40
1
 40
1
 10
35.703880
 20
64.298741
 30
0.0
 10
35.249910
 20
63.818656
 30
0.0
 10
34.922500
 20
63.296931
 30
0.0
 10
34.802090
 20
62.768566
 30
0.0
  0
SPLINE
  5
2ef
100
AcDbEntity
  8
Layer_1
 62
1
100
AcDbSpline
 70
8
 71
3
 72
8
 73
4
 74
0
 40
0
 40
0
 40
0
 40
0
 40
1
 40
1
 40
1
 40
1
 10
34.802090
 20
62.768566
 30
0.0
 10
34.681680
 20
62.240204
 30
0.0
 10
34.719470
 20
61.678850
 30
0.0
 10
35.154310
 20
60.907663
 30
0.0
  0
SPLINE
  5
2f0
100
AcDbEntity
  8
Layer_1
 62
1
100
AcDbSpline
 70
8
 71
3
 72
8
 73
4
 74
0
 40
0
 40
0
 40
0
 40
0
 40
1
 40
1
 40
1
 40
1
 10
35.154310
 20
60.907663
 30
0.0
 10
35.417110
 20
60.441604
 30
0.0
 10
35.996910
 20
59.885091
 30
0.0
 10
36.983250
 20
59.902800
 30
0.0
  0
SPLINE
  5
2f1
100
AcDbEntity
  8
Layer_1
 62
1
100
AcDbSpline
 70
8
 71
3
 72
8
 73
4
 74
0
 40
0
 40
0
 40
0
 40
0
 40
1
 40
1
 40
1
 40
1
 10
36.983250
 20
59.902800
 30
0.0
 10
37.969590
 20
59.920495
 30
0.0
 10
39.577150
 20
60.554815
 30
0.0
 10
41.727000
 20
62.966455
 30
0.0
  0
SPLINE
  5
2f2
100
AcDbEntity
  8
Layer_1
 62
1
100
AcDbSpline
 70
8
 71
3
 72
8
 73
4
 74
0
 40
0
 40
0
 40
0
 40
0
 40
1
 40
1
 40
1
 40
1
 10
41.727000
 20
62.966455
 30
0.0
 10
42.838850
 20
64.213688
 30
0.0
 10
44.401210
 20
65.847046
 30
0.0
 10
46.023180
 20
66.721331
 30
0.0
  0
SPLINE
  5
2f3
100
AcDbEntity
  8
Layer_1
 62
1
100
AcDbSpline
 70
8
 71
3
 72
8
 73
4
 74
0
 40
0
 40
0
 40
0
 40
0
 40
1
 40
1
 40
1
 40
1
 10
46.023180
 20
66.721331
 30
0.0
 10
48.159230
 20
67.872721
 30
0.0
 10
50.492900
 20
67.773938
 30
0.0
 10
52.166470
 20
66.623216
 30
0.0
  0
SPLINE
  5
2f4
100
AcDbEntity
  8
Layer_1
 62
1
100
AcDbSpline
 70
8
 71
3
 72
8
 73
4
 74
0
 40
0
 40
0
 40
0
 40
0
 40
1
 40
1
 40
1
 40
1
 10
52.166470
 20
66.623216
 30
0.0
 10
53.566290
 20
65.660723
 30
0.0
 10
54.466170
 20
63.949847
 30
0.0
 10
53.970600
 20
62.249322
 30
0.0
  0
SPLINE
  5
2f5
100
AcDbEntity
  8
Layer_1
 62
1
100
AcDbSpline
 70
8
 71
3
 72
8
 73
4
 74
0
 40
0
 40
0
 40
0
 40
0
 40
1
 40
1
 40
1
 40
1
 10
53.970600
 20
62.249322
 30
0.0
 10
53.513820
 20
60.681866
 30
0.0
 10
52.558030
 20
59.605092
 30
0.0
 10
51.497300
 20
58.818559
 30
0.0
  0
SPLINE
  5
2f6
100
AcDbEntity
  8
Layer_1
 62
1
100
AcDbSpline
 70
8
 71
3
 72
8
 73
4
 74
0
 40
0
 40
0
 40
0
 40
0
 40
1
 40
1
 40
1
 40
1
 10
51.497300
 20
58.818559
 30
0.0
 10
50.436560
 20
58.032025
 30
0.0
 10
49.278420
 20
57.471185
 30
0.0
 10
48.167960
 20
56.750398
 30
0.0
  0
SPLINE
  5
2f7
100
AcDbEntity
  8
Layer_1
 62
1
100
AcDbSpline
 70
8
 71
3
 72
8
 73
4
 74
0
 40
0
 40
0
 40
0
 40
0
 40
1
 40
1
 40
1
 40
1
 10
48.167960
 20
56.750398
 30
0.0
 10
47.836130
 20
56.535017
 30
0.0
 10
46.929630
 20
55.958923
 30
0.0
 10
46.035300
 20
55.368502
 30
0.0
  0
SPLINE
  5
2f8
100
AcDbEntity
  8
Layer_1
 62
1
100
AcDbSpline
 70
8
 71
3
 72
8
 73
4
 74
0
 40
0
 40
0
 40
0
 40
0
 40
1
 40
1
 40
1
 40
1
 10
46.035300
 20
55.368502
 30
0.0
 10
45.588140
 20
55.073292
 30
0.0
 10
45.155040
 20
54.762552
 30
0.0
 10
44.793420
 20
54.526797
 30
0.0
  0
SPLINE
  5
2f9
100
AcDbEntity
  8
Layer_1
 62
1
100
AcDbSpline
 70
8
 71
3
 72
8
 73
4
 74
0
 40
0
 40
0
 40
0
 40
0
 40
1
 40
1
 40
1
 40
1
 10
44.793420
 20
54.526797
 30
0.0
 10
44.593880
 20
54.396710
 30
0.0
 10
44.591620
 20
54.394452
 30
0.0
 10
44.593880
 20
54.396710
 30
0.0
  0
SPLINE
  5
2fa
100
AcDbEntity
  8
Layer_1
 62
1
100
AcDbSpline
 70
8
 71
3
 72
8
 73
4
 74
0
 40
0
 40
0
 40
0
 40
0
 40
1
 40
1
 40
1
 40
1
 10
38.021740
 20
13.299742
 30
0.0
 10
38.065030
 20
18.695729
 30
0.0
 10
38.132320
 20
22.728699
 30
0.0
 10
38.143560
 20
24.778250
 30
0.0
  0
SPLINE
  5
2fb
100
AcDbEntity
  8
Layer_1
 62
1
100
AcDbSpline
 70
8
 71
3
 72
8
 73
4
 74
0
 40
0
 40
0
 40
0
 40
0
 40
1
 40
1
 40
1
 40
1
 10
38.143560
 20
24.778250
 30
0.0
 10
38.157500
 20
27.322525
 30
0.0
 10
37.691930
 20
28.908826
 30
0.0
 10
37.192160
 20
29.467437
 30
0.0
  0
SPLINE
  5
2fc
100
AcDbEntity
  8
Layer_1
 62
1
100
AcDbSpline
 70
8
 71
3
 72
8
 73
4
 74
0
 40
0
 40
0
 40
0
 40
0
 40
1
 40
1
 40
1
 40
1
 10
37.192160
 20
29.467437
 30
0.0
 10
35.865580
 20
30.950184
 30
0.0
 10
34.713910
 20
31.418986
 30
0.0
 10
33.567370
 20
31.769312
 30
0.0
  0
SPLINE
  5
2fd
100
AcDbEntity
  8
Layer_1
 62
1
100
AcDbSpline
 70
8
 71
3
 72
8
 73
4
 74
0
 40
0
 40
0
 40
0
 40
0
 40
1
 40
1
 40
1
 40
1
 10
33.567370
 20
31.769312
 30
0.0
 10
32.420820
 20
32.119637
 30
0.0
 10
31.144930
 20
32.277958
 30
0.0
 10
30.105180
 20
33.333110
 30
0.0
  0
SPLINE
  5
2fe
100
AcDbEntity
  8
Layer_1
 62
1
100
AcDbSpline
 70
8
 71
3
 72
8
 73
4
 74
0
 40
0
 40
0
 40
0
 40
0
 40
1
 40
1
 40
1
 40
1
 10
30.105180
 20
33.333110
 30
0.0
 10
27.972460
 20
35.497427
 30
0.0
 10
27.573260
 20
37.752702
 30
0.0
 10
28.076160
 20
39.510026
 30
0.0
  0
SPLINE
  5
2ff
100
AcDbEntity
  8
Layer_1
 62
1
100
AcDbSpline
 70
8
 71
3
 72
8
 73
4
 74
0
 40
0
 40
0
 40
0
 40
0
 40
1
 40
1
 40
1
 40
1
 10
28.076160
 20
39.510026
 30
0.0
 10
28.579060
 20
41.267353
 30
0.0
 10
29.045060
 20
41.689030
 30
0.0
 10
29.690120
 20
42.422096
 30
0.0
  0
SPLINE
  5
300
100
AcDbEntity
  8
Layer_1
 62
1
100
AcDbSpline
 70
8
 71
3
 72
8
 73
4
 74
0
 40
0
 40
0
 40
0
 40
0
 40
1
 40
1
 40
1
 40
1
 10
31.171230
 20
40.956426
 30
0.0
 10
30.484250
 20
40.175717
 30
0.0
 10
30.356230
 20
40.092225
 30
0.0
 10
30.029670
 20
38.951107
 30
0.0
  0
SPLINE
  5
301
100
AcDbEntity
  8
Layer_1
 62
1
100
AcDbSpline
 70
8
 71
3
 72
8
 73
4
 74
0
 40
0
 40
0
 40
0
 40
0
 40
1
 40
1
 40
1
 40
1
 10
30.029670
 20
38.951107
 30
0.0
 10
29.703110
 20
37.809987
 30
0.0
 10
29.782900
 20
36.555103
 30
0.0
 10
31.552670
 20
34.759114
 30
0.0
  0
SPLINE
  5
302
100
AcDbEntity
  8
Layer_1
 62
1
100
AcDbSpline
 70
8
 71
3
 72
8
 73
4
 74
0
 40
0
 40
0
 40
0
 40
0
 40
1
 40
1
 40
1
 40
1
 10
31.552670
 20
34.759114
 30
0.0
 10
32.034400
 20
34.270255
 30
0.0
 10
32.858060
 20
34.110477
 30
0.0
 10
34.161030
 20
33.712358
 30
0.0
  0
SPLINE
  5
303
100
AcDbEntity
  8
Layer_1
 62
1
100
AcDbSpline
 70
8
 71
3
 72
8
 73
4
 74
0
 40
0
 40
0
 40
0
 40
0
 40
1
 40
1
 40
1
 40
1
 10
34.161030
 20
33.712358
 30
0.0
 10
35.463990
 20
33.314238
 30
0.0
 10
37.111680
 20
32.604740
 30
0.0
 10
38.706350
 20
30.822335
 30
0.0
  0
SPLINE
  5
304
100
AcDbEntity
  8
Layer_1
 62
1
100
AcDbSpline
 70
8
 71
3
 72
8
 73
4
 74
0
 40
0
 40
0
 40
0
 40
0
 40
1
 40
1
 40
1
 40
1
 10
38.706350
 20
30.822335
 30
0.0
 10
39.863070
 20
29.529438
 30
0.0
 10
40.190420
 20
27.518867
 30
0.0
 10
40.175340
 20
24.766684
 30
0.0
  0
SPLINE
  5
305
100
AcDbEntity
  8
Layer_1
 62
1
100
AcDbSpline
 70
8
 71
3
 72
8
 73
4
 74
0
 40
0
 40
0
 40
0
 40
0
 40
1
 40
1
 40
1
 40
1
 10
40.175340
 20
24.766684
 30
0.0
 10
40.163930
 20
22.687661
 30
0.0
 10
40.097300
 20
18.671041
 30
0.0
 10
40.054070
 20
13.283769
 30
0.0
  0
SPLINE
  5
306
100
AcDbEntity
  8
Layer_1
 62
1
100
AcDbSpline
 70
8
 71
3
 72
8
 73
4
 74
0
 40
0
 40
0
 40
0
 40
0
 40
1
 40
1
 40
1
 40
1
 10
107.309870
 20
37.801043
 30
0.0
 10
105.286560
 20
39.716903
 30
0.0
 10
104.101380
 20
39.846931
 30
0.0
 10
101.376220
 20
40.603098
 30
0.0
  0
SPLINE
  5
307
100
AcDbEntity
  8
Layer_1
 62
1
100
AcDbSpline
 70
8
 71
3
 72
8
 73
4
 74
0
 40
0
 40
0
 40
0
 40
0
 40
1
 40
1
 40
1
 40
1
 10
101.376220
 20
40.603098
 30
0.0
 10
101.485670
 20
40.572728
 30
0.0
 10
101.119670
 20
40.629288
 30
0.0
 10
100.731300
 20
40.624603
 30
0.0
  0
SPLINE
  5
308
100
AcDbEntity
  8
Layer_1
 62
1
100
AcDbSpline
 70
8
 71
3
 72
8
 73
4
 74
0
 40
0
 40
0
 40
0
 40
0
 40
1
 40
1
 40
1
 40
1
 10
100.731300
 20
40.624603
 30
0.0
 10
100.342920
 20
40.619918
 30
0.0
 10
99.855570
 20
40.594513
 30
0.0
 10
99.373100
 20
40.557906
 30
0.0
  0
SPLINE
  5
309
100
AcDbEntity
  8
Layer_1
 62
1
100
AcDbSpline
 70
8
 71
3
 72
8
 73
4
 74
0
 40
0
 40
0
 40
0
 40
0
 40
1
 40
1
 40
1
 40
1
 10
99.373100
 20
40.557906
 30
0.0
 10
98.890630
 20
40.521301
 30
0.0
 10
98.410150
 20
40.473462
 30
0.0
 10
98.030340
 20
40.425064
 30
0.0
  0
SPLINE
  5
30a
100
AcDbEntity
  8
Layer_1
 62
1
100
AcDbSpline
 70
8
 71
3
 72
8
 73
4
 74
0
 40
0
 40
0
 40
0
 40
0
 40
1
 40
1
 40
1
 40
1
 10
98.030340
 20
40.425064
 30
0.0
 10
97.650540
 20
40.376665
 30
0.0
 10
97.286260
 20
40.287452
 30
0.0
 10
97.388170
 20
40.322538
 30
0.0
  0
SPLINE
  5
30b
100
AcDbEntity
  8
Layer_1
 62
1
100
AcDbSpline
 70
8
 71
3
 72
8
 73
4
 74
0
 40
0
 40
0
 40
0
 40
0
 40
1
 40
1
 40
1
 40
1
 10
97.388170
 20
40.322538
 30
0.0
 10
94.746650
 20
39.413111
 30
0.0
 10
90.798600
 20
37.621401
 30
0.0
 10
86.883110
 20
36.461275
 30
0.0
  0
SPLINE
  5
30c
100
AcDbEntity
  8
Layer_1
 62
1
100
AcDbSpline
 70
8
 71
3
 72
8
 73
4
 74
0
 40
0
 40
0
 40
0
 40
0
 40
1
 40
1
 40
1
 40
1
 10
86.883110
 20
36.461275
 30
0.0
 10
82.967620
 20
35.301150
 30
0.0
 10
78.959930
 20
34.641608
 30
0.0
 10
76.114020
 20
36.618372
 30
0.0
  0
SPLINE
  5
30d
100
AcDbEntity
  8
Layer_1
 62
1
100
AcDbSpline
 70
8
 71
3
 72
8
 73
4
 74
0
 40
0
 40
0
 40
0
 40
0
 40
1
 40
1
 40
1
 40
1
 10
76.114020
 20
36.618372
 30
0.0
 10
72.629120
 20
39.038977
 30
0.0
 10
70.867980
 20
41.842448
 30
0.0
 10
70.663050
 20
44.668320
 30
0.0
  0
SPLINE
  5
30e
100
AcDbEntity
  8
Layer_1
 62
1
100
AcDbSpline
 70
8
 71
3
 72
8
 73
4
 74
0
 40
0
 40
0
 40
0
 40
0
 40
1
 40
1
 40
1
 40
1
 10
70.663050
 20
44.668320
 30
0.0
 10
70.458120
 20
47.494188
 30
0.0
 10
71.099260
 20
49.426106
 30
0.0
 10
73.287870
 20
51.628162
 30
0.0
  0
SPLINE
  5
30f
100
AcDbEntity
  8
Layer_1
 62
1
100
AcDbSpline
 70
8
 71
3
 72
8
 73
4
 74
0
 40
0
 40
0
 40
0
 40
0
 40
1
 40
1
 40
1
 40
1
 10
74.703800
 20
50.220488
 30
0.0
 10
72.800270
 20
48.305266
 30
0.0
 10
72.537890
 20
46.910662
 30
0.0
 10
72.689870
 20
44.814934
 30
0.0
  0
SPLINE
  5
310
100
AcDbEntity
  8
Layer_1
 62
1
100
AcDbSpline
 70
8
 71
3
 72
8
 73
4
 74
0
 40
0
 40
0
 40
0
 40
0
 40
1
 40
1
 40
1
 40
1
 10
72.689870
 20
44.814934
 30
0.0
 10
72.841850
 20
42.719206
 30
0.0
 10
74.120020
 20
40.477653
 30
0.0
 10
77.273230
 20
38.287442
 30
0.0
  0
SPLINE
  5
311
100
AcDbEntity
  8
Layer_1
 62
1
100
AcDbSpline
 70
8
 71
3
 72
8
 73
4
 74
0
 40
0
 40
0
 40
0
 40
0
 40
1
 40
1
 40
1
 40
1
 10
77.273230
 20
38.287442
 30
0.0
 10
79.139690
 20
36.991001
 30
0.0
 10
82.582680
 20
37.306240
 30
0.0
 10
86.305440
 20
38.409260
 30
0.0
  0
SPLINE
  5
312
100
AcDbEntity
  8
Layer_1
 62
1
100
AcDbSpline
 70
8
 71
3
 72
8
 73
4
 74
0
 40
0
 40
0
 40
0
 40
0
 40
1
 40
1
 40
1
 40
1
 10
86.305440
 20
38.409260
 30
0.0
 10
90.028190
 20
39.512284
 30
0.0
 10
93.905470
 20
41.272213
 30
0.0
 10
96.726720
 20
42.243514
 30
0.0
  0
SPLINE
  5
313
100
AcDbEntity
  8
Layer_1
 62
1
100
AcDbSpline
 70
8
 71
3
 72
8
 73
4
 74
0
 40
0
 40
0
 40
0
 40
0
 40
1
 40
1
 40
1
 40
1
 10
96.726720
 20
42.243514
 30
0.0
 10
97.092070
 20
42.369298
 30
0.0
 10
97.349050
 20
42.386765
 30
0.0
 10
97.773470
 20
42.440850
 30
0.0
  0
SPLINE
  5
314
100
AcDbEntity
  8
Layer_1
 62
1
100
AcDbSpline
 70
8
 71
3
 72
8
 73
4
 74
0
 40
0
 40
0
 40
0
 40
0
 40
1
 40
1
 40
1
 40
1
 10
97.773470
 20
42.440850
 30
0.0
 10
98.197890
 20
42.494935
 30
0.0
 10
98.704790
 20
42.545128
 30
0.0
 10
99.219310
 20
42.584165
 30
0.0
  0
SPLINE
  5
315
100
AcDbEntity
  8
Layer_1
 62
1
100
AcDbSpline
 70
8
 71
3
 72
8
 73
4
 74
0
 40
0
 40
0
 40
0
 40
0
 40
1
 40
1
 40
1
 40
1
 10
99.219310
 20
42.584165
 30
0.0
 10
99.733830
 20
42.623202
 30
0.0
 10
100.253110
 20
42.650896
 30
0.0
 10
100.706490
 20
42.656374
 30
0.0
  0
SPLINE
  5
316
100
AcDbEntity
  8
Layer_1
 62
1
100
AcDbSpline
 70
8
 71
3
 72
8
 73
4
 74
0
 40
0
 40
0
 40
0
 40
0
 40
1
 40
1
 40
1
 40
1
 10
100.706490
 20
42.656374
 30
0.0
 10
101.159870
 20
42.661849
 30
0.0
 10
101.471220
 20
42.685858
 30
0.0
 10
101.919160
 20
42.561565
 30
0.0
  0
SPLINE
  5
317
100
AcDbEntity
  8
Layer_1
 62
1
100
AcDbSpline
 70
8
 71
3
 72
8
 73
4
 74
0
 40
0
 40
0
 40
0
 40
0
 40
1
 40
1
 40
1
 40
1
 10
101.919160
 20
42.561565
 30
0.0
 10
104.717990
 20
41.784960
 30
0.0
 10
106.447920
 20
41.339785
 30
0.0
 10
108.732140
 20
39.176868
 30
0.0
  0
SPLINE
  5
318
100
AcDbEntity
  8
Layer_1
 62
1
100
AcDbSpline
 70
8
 71
3
 72
8
 73
4
 74
0
 40
0
 40
0
 40
0
 40
0
 40
1
 40
1
 40
1
 40
1
 10
122.162540
 20
25.777613
 30
0.0
 10
123.400790
 20
24.439242
 30
0.0
 10
123.925440
 20
24.067620
 30
0.0
 10
124.136900
 20
22.773490
 30
0.0
  0
SPLINE
  5
319
100
AcDbEntity
  8
Layer_1
 62
1
100
AcDbSpline
 70
8
 71
3
 72
8
 73
4
 74
0
 40
0
 40
0
 40
0
 40
0
 40
1
 40
1
 40
1
 40
1
 10
124.136900
 20
22.773490
 30
0.0
 10
124.136900
 20
22.773490
 30
0.0
 10
124.778040
 20
21.111297
 30
0.0
 10
122.772750
 20
19.090603
 30
0.0
  0
SPLINE
  5
31a
100
AcDbEntity
  8
Layer_1
 62
1
100
AcDbSpline
 70
8
 71
3
 72
8
 73
4
 74
0
 40
0
 40
0
 40
0
 40
0
 40
1
 40
1
 40
1
 40
1
 10
122.772750
 20
19.090603
 30
0.0
 10
121.626510
 20
17.935561
 30
0.0
 10
119.609720
 20
17.456554
 30
0.0
 10
118.119340
 20
17.082798
 30
0.0
  0
SPLINE
  5
31b
100
AcDbEntity
  8
Layer_1
 62
1
100
AcDbSpline
 70
8
 71
3
 72
8
 73
4
 74
0
 40
0
 40
0
 40
0
 40
0
 40
1
 40
1
 40
1
 40
1
 10
118.119340
 20
17.082798
 30
0.0
 10
116.784490
 20
16.748049
 30
0.0
 10
113.069460
 20
16.998087
 30
0.0
 10
111.681260
 20
17.306581
 30
0.0
  0
SPLINE
  5
31c
100
AcDbEntity
  8
Layer_1
 62
1
100
AcDbSpline
 70
8
 71
3
 72
8
 73
4
 74
0
 40
0
 40
0
 40
0
 40
0
 40
1
 40
1
 40
1
 40
1
 10
111.681260
 20
17.306581
 30
0.0
 10
102.713760
 20
19.299377
 30
0.0
 10
99.872850
 20
19.067808
 30
0.0
 10
91.671520
 20
20.693755
 30
0.0
  0
SPLINE
  5
31d
100
AcDbEntity
  8
Layer_1
 62
1
100
AcDbSpline
 70
8
 71
3
 72
8
 73
4
 74
0
 40
0
 40
0
 40
0
 40
0
 40
1
 40
1
 40
1
 40
1
 10
91.671520
 20
20.693755
 30
0.0
 10
86.630260
 20
21.693206
 30
0.0
 10
81.371670
 20
22.907283
 30
0.0
 10
76.349940
 20
24.198382
 30
0.0
  0
SPLINE
  5
31e
100
AcDbEntity
  8
Layer_1
 62
1
100
AcDbSpline
 70
8
 71
3
 72
8
 73
4
 74
0
 40
0
 40
0
 40
0
 40
0
 40
1
 40
1
 40
1
 40
1
 10
76.349940
 20
24.198382
 30
0.0
 10
72.859780
 20
25.095710
 30
0.0
 10
68.245200
 20
26.762628
 30
0.0
 10
63.748060
 20
27.527721
 30
0.0
  0
SPLINE
  5
31f
100
AcDbEntity
  8
Layer_1
 62
1
100
AcDbSpline
 70
8
 71
3
 72
8
 73
4
 74
0
 40
0
 40
0
 40
0
 40
0
 40
1
 40
1
 40
1
 40
1
 10
63.748060
 20
27.527721
 30
0.0
 10
59.250910
 20
28.292817
 30
0.0
 10
55.013200
 20
28.130832
 30
0.0
 10
52.110250
 20
25.700445
 30
0.0
  0
SPLINE
  5
320
100
AcDbEntity
  8
Layer_1
 62
1
100
AcDbSpline
 70
8
 71
3
 72
8
 73
4
 74
0
 40
0
 40
0
 40
0
 40
0
 40
1
 40
1
 40
1
 40
1
 10
52.110250
 20
25.700445
 30
0.0
 10
50.148860
 20
24.058338
 30
0.0
 10
48.673120
 20
22.903002
 30
0.0
 10
47.708240
 20
21.254892
 30
0.0
  0
SPLINE
  5
321
100
AcDbEntity
  8
Layer_1
 62
1
100
AcDbSpline
 70
8
 71
3
 72
8
 73
4
 74
0
 40
0
 40
0
 40
0
 40
0
 40
1
 40
1
 40
1
 40
1
 10
47.708240
 20
21.254892
 30
0.0
 10
46.743370
 20
19.606785
 30
0.0
 10
46.189940
 20
17.356447
 30
0.0
 10
46.287210
 20
13.333378
 30
0.0
  0
SPLINE
  5
322
100
AcDbEntity
  8
Layer_1
 62
1
100
AcDbSpline
 70
8
 71
3
 72
8
 73
4
 74
0
 40
0
 40
0
 40
0
 40
0
 40
1
 40
1
 40
1
 40
1
 10
44.255980
 20
13.283769
 30
0.0
 10
44.153690
 20
17.514844
 30
0.0
 10
44.748880
 20
20.221925
 30
0.0
 10
45.954830
 20
22.281805
 30
0.0
  0
SPLINE
  5
323
100
AcDbEntity
  8
Layer_1
 62
1
100
AcDbSpline
 70
8
 71
3
 72
8
 73
4
 74
0
 40
0
 40
0
 40
0
 40
0
 40
1
 40
1
 40
1
 40
1
 10
45.954830
 20
22.281805
 30
0.0
 10
47.160770
 20
24.341689
 30
0.0
 10
48.877850
 20
25.644856
 30
0.0
 10
50.805520
 20
27.258729
 30
0.0
  0
SPLINE
  5
324
100
AcDbEntity
  8
Layer_1
 62
1
100
AcDbSpline
 70
8
 71
3
 72
8
 73
4
 74
0
 40
0
 40
0
 40
0
 40
0
 40
1
 40
1
 40
1
 40
1
 10
50.805520
 20
27.258729
 30
0.0
 10
53.057040
 20
29.143733
 30
0.0
 10
55.828180
 20
29.875776
 30
0.0
 10
58.749090
 20
29.962440
 30
0.0
  0
SPLINE
  5
325
100
AcDbEntity
  8
Layer_1
 62
1
100
AcDbSpline
 70
8
 71
3
 72
8
 73
4
 74
0
 40
0
 40
0
 40
0
 40
0
 40
1
 40
1
 40
1
 40
1
 10
58.749090
 20
29.962440
 30
0.0
 10
60.501630
 20
30.014437
 30
0.0
 10
62.308240
 20
29.833747
 30
0.0
 10
64.088710
 20
29.530838
 30
0.0
  0
SPLINE
  5
326
100
AcDbEntity
  8
Layer_1
 62
1
100
AcDbSpline
 70
8
 71
3
 72
8
 73
4
 74
0
 40
0
 40
0
 40
0
 40
0
 40
1
 40
1
 40
1
 40
1
 10
64.088710
 20
29.530838
 30
0.0
 10
68.836620
 20
28.723081
 30
0.0
 10
73.541720
 20
27.018177
 30
0.0
 10
76.855400
 20
26.166222
 30
0.0
  0
SPLINE
  5
327
100
AcDbEntity
  8
Layer_1
 62
1
100
AcDbSpline
 70
8
 71
3
 72
8
 73
4
 74
0
 40
0
 40
0
 40
0
 40
0
 40
1
 40
1
 40
1
 40
1
 10
76.855400
 20
26.166222
 30
0.0
 10
81.843360
 20
24.883804
 30
0.0
 10
87.069070
 20
23.677758
 30
0.0
 10
92.066740
 20
22.686950
 30
0.0
  0
SPLINE
  5
328
100
AcDbEntity
  8
Layer_1
 62
1
100
AcDbSpline
 70
8
 71
3
 72
8
 73
4
 74
0
 40
0
 40
0
 40
0
 40
0
 40
1
 40
1
 40
1
 40
1
 10
92.066740
 20
22.686950
 30
0.0
 10
100.255900
 20
21.063416
 30
0.0
 10
101.364220
 20
21.519394
 30
0.0
 10
110.357060
 20
19.520964
 30
0.0
  0
SPLINE
  5
329
100
AcDbEntity
  8
Layer_1
 62
1
100
AcDbSpline
 70
8
 71
3
 72
8
 73
4
 74
0
 40
0
 40
0
 40
0
 40
0
 40
1
 40
1
 40
1
 40
1
 10
110.357060
 20
19.520964
 30
0.0
 10
111.774450
 20
19.205984
 30
0.0
 10
115.196180
 20
18.884923
 30
0.0
 10
116.236890
 20
18.867634
 30
0.0
  0
SPLINE
  5
32a
100
AcDbEntity
  8
Layer_1
 62
1
100
AcDbSpline
 70
8
 71
3
 72
8
 73
4
 74
0
 40
0
 40
0
 40
0
 40
0
 40
1
 40
1
 40
1
 40
1
 10
116.236890
 20
18.867634
 30
0.0
 10
117.277600
 20
18.850334
 30
0.0
 10
118.889580
 20
19.417047
 30
0.0
 10
119.552180
 20
19.727982
 30
0.0
  0
SPLINE
  5
32b
100
AcDbEntity
  8
Layer_1
 62
1
100
AcDbSpline
 70
8
 71
3
 72
8
 73
4
 74
0
 40
0
 40
0
 40
0
 40
0
 40
1
 40
1
 40
1
 40
1
 10
119.552180
 20
19.727982
 30
0.0
 10
120.951870
 20
20.384809
 30
0.0
 10
121.243980
 20
20.431464
 30
0.0
 10
121.773010
 20
21.626802
 30
0.0
  0
SPLINE
  5
32c
100
AcDbEntity
  8
Layer_1
 62
1
100
AcDbSpline
 70
8
 71
3
 72
8
 73
4
 74
0
 40
0
 40
0
 40
0
 40
0
 40
1
 40
1
 40
1
 40
1
 10
121.773010
 20
21.626802
 30
0.0
 10
122.204220
 20
22.601129
 30
0.0
 10
121.720120
 20
23.282723
 30
0.0
 10
120.706230
 20
24.327366
 30
0.0
  0
LINE
  5
32d
100
AcDbEntity
  8
Layer_1
 62
7
100
AcDbLine
 10
139.687140
 20
113.716232
 30
0.0
 11
12.712860
 21
113.716232
 31
0.0
  0
LINE
  5
32e
100
AcDbEntity
  8
Layer_1
 62
7
100
AcDbLine
 10
12.712860
 20
113.716232
 30
0.0
 11
12.712860
 21
15.316940
 31
0.0
  0
LINE
  5
32f
100
AcDbEntity
  8
Layer_1
 62
7
100
AcDbLine
 10
12.712860
 20
15.316940
 30
0.0
 11
139.687140
 21
15.316940
 31
0.0
  0
LINE
  5
330
100
AcDbEntity
  8
Layer_1
 62
7
100
AcDbLine
 10
139.687140
 20
15.316940
 30
0.0
 11
139.687140
 21
113.716232
 31
0.0
  0
ENDSEC
  0
SECTION
  2
OBJECTS
  0
DICTIONARY
  5
C
330
0
100
AcDbDictionary
  3
ACAD_GROUP
350
D
  3
ACAD_MLINESTYLE
350
17
  0
DICTIONARY
  5
D
330
C
100
AcDbDictionary
  0
DICTIONARY
  5
1A
330
C
100
AcDbDictionary
  0
DICTIONARY
  5
17
330
C
100
AcDbDictionary
  3
STANDARD
350
18
  0
DICTIONARY
  5
19
330
C
100
AcDbDictionary
  0
ENDSEC
  0
EOF
