<?xml version="1.0" encoding="UTF-8" standalone="no"?>
<!-- Created with Inkscape (http://www.inkscape.org/) -->

<svg
   xmlns:dc="http://purl.org/dc/elements/1.1/"
   xmlns:cc="http://creativecommons.org/ns#"
   xmlns:rdf="http://www.w3.org/1999/02/22-rdf-syntax-ns#"
   xmlns:svg="http://www.w3.org/2000/svg"
   xmlns="http://www.w3.org/2000/svg"
   xmlns:sodipodi="http://sodipodi.sourceforge.net/DTD/sodipodi-0.dtd"
   xmlns:inkscape="http://www.inkscape.org/namespaces/inkscape"
   width="775.21411mm"
   height="316.34891mm"
   viewBox="0 0 775.21414 316.34891"
   version="1.1"
   id="svg8395"
   inkscape:version="0.92.1 r15371"
   sodipodi:docname="all_laser_parts.svg">
  <sodipodi:namedview
     id="base"
     pagecolor="#ffffff"
     bordercolor="#666666"
     borderopacity="1.0"
     inkscape:pageopacity="0.0"
     inkscape:pageshadow="2"
     inkscape:zoom="0.35"
     inkscape:cx="1737.9229"
     inkscape:cy="10.333845"
     inkscape:document-units="mm"
     inkscape:current-layer="layer5"
     showgrid="false"
     fit-margin-top="0"
     fit-margin-left="0"
     fit-margin-right="0"
     fit-margin-bottom="0"
     inkscape:window-width="1920"
     inkscape:window-height="1027"
     inkscape:window-x="1672"
     inkscape:window-y="-8"
     inkscape:window-maximized="1"
     inkscape:snap-global="true" />
  <defs
     id="defs8389">
    <inkscape:path-effect
       only_selected="false"
       apply_with_weight="true"
       apply_no_weight="true"
       helper_size="0"
       steps="2"
       weight="33.333333"
       is_visible="true"
       id="path-effect10190"
       effect="bspline" />
    <inkscape:path-effect
       only_selected="false"
       apply_with_weight="true"
       apply_no_weight="true"
       helper_size="0"
       steps="2"
       weight="33.333333"
       is_visible="true"
       id="path-effect10005"
       effect="bspline" />
    <inkscape:path-effect
       only_selected="false"
       apply_with_weight="true"
       apply_no_weight="true"
       helper_size="0"
       steps="2"
       weight="33.333333"
       is_visible="true"
       id="path-effect9081"
       effect="bspline" />
    <inkscape:path-effect
       only_selected="false"
       apply_with_weight="true"
       apply_no_weight="true"
       helper_size="0"
       steps="2"
       weight="33.333333"
       is_visible="true"
       id="path-effect8859"
       effect="bspline" />
    <inkscape:path-effect
       only_selected="false"
       apply_with_weight="true"
       apply_no_weight="true"
       helper_size="0"
       steps="2"
       weight="33.333333"
       is_visible="true"
       id="path-effect8855"
       effect="bspline" />
    <inkscape:path-effect
       only_selected="false"
       apply_with_weight="true"
       apply_no_weight="true"
       helper_size="0"
       steps="2"
       weight="33.333333"
       is_visible="true"
       id="path-effect8827"
       effect="bspline" />
    <inkscape:path-effect
       only_selected="false"
       apply_with_weight="true"
       apply_no_weight="true"
       helper_size="0"
       steps="2"
       weight="33.333333"
       is_visible="true"
       id="path-effect8823"
       effect="bspline" />
    <inkscape:path-effect
       only_selected="false"
       apply_with_weight="true"
       apply_no_weight="true"
       helper_size="0"
       steps="2"
       weight="33.333333"
       is_visible="true"
       id="path-effect8819"
       effect="bspline" />
    <inkscape:path-effect
       only_selected="false"
       apply_with_weight="true"
       apply_no_weight="true"
       helper_size="0"
       steps="2"
       weight="33.333333"
       is_visible="true"
       id="path-effect8815"
       effect="bspline" />
    <inkscape:path-effect
       only_selected="false"
       apply_with_weight="true"
       apply_no_weight="true"
       helper_size="0"
       steps="2"
       weight="33.333333"
       is_visible="true"
       id="path-effect8811"
       effect="bspline" />
    <inkscape:path-effect
       only_selected="false"
       apply_with_weight="true"
       apply_no_weight="true"
       helper_size="0"
       steps="2"
       weight="33.333333"
       is_visible="true"
       id="path-effect8807"
       effect="bspline" />
    <inkscape:path-effect
       only_selected="false"
       apply_with_weight="true"
       apply_no_weight="true"
       helper_size="0"
       steps="2"
       weight="33.333333"
       is_visible="true"
       id="path-effect8803"
       effect="bspline" />
    <inkscape:path-effect
       only_selected="false"
       apply_with_weight="true"
       apply_no_weight="true"
       helper_size="0"
       steps="2"
       weight="33.333333"
       is_visible="true"
       id="path-effect8585"
       effect="bspline" />
    <inkscape:path-effect
       only_selected="false"
       apply_with_weight="true"
       apply_no_weight="true"
       helper_size="0"
       steps="2"
       weight="33.333333"
       is_visible="true"
       id="path-effect8581"
       effect="bspline" />
    <inkscape:path-effect
       only_selected="false"
       apply_with_weight="true"
       apply_no_weight="true"
       helper_size="0"
       steps="2"
       weight="33.333333"
       is_visible="true"
       id="path-effect8556"
       effect="bspline" />
    <inkscape:path-effect
       only_selected="false"
       apply_with_weight="true"
       apply_no_weight="true"
       helper_size="0"
       steps="2"
       weight="33.333333"
       is_visible="true"
       id="path-effect8552"
       effect="bspline" />
    <inkscape:path-effect
       only_selected="false"
       apply_with_weight="true"
       apply_no_weight="true"
       helper_size="0"
       steps="2"
       weight="33.333333"
       is_visible="true"
       id="path-effect8552-3"
       effect="bspline" />
    <inkscape:path-effect
       only_selected="false"
       apply_with_weight="true"
       apply_no_weight="true"
       helper_size="0"
       steps="2"
       weight="33.333333"
       is_visible="true"
       id="path-effect8585-2"
       effect="bspline" />
    <inkscape:path-effect
       only_selected="false"
       apply_with_weight="true"
       apply_no_weight="true"
       helper_size="0"
       steps="2"
       weight="33.333333"
       is_visible="true"
       id="path-effect8552-35"
       effect="bspline" />
    <inkscape:path-effect
       only_selected="false"
       apply_with_weight="true"
       apply_no_weight="true"
       helper_size="0"
       steps="2"
       weight="33.333333"
       is_visible="true"
       id="path-effect8552-35-2"
       effect="bspline" />
    <inkscape:path-effect
       only_selected="false"
       apply_with_weight="true"
       apply_no_weight="true"
       helper_size="0"
       steps="2"
       weight="33.333333"
       is_visible="true"
       id="path-effect8859-6"
       effect="bspline" />
    <inkscape:path-effect
       only_selected="false"
       apply_with_weight="true"
       apply_no_weight="true"
       helper_size="0"
       steps="2"
       weight="33.333333"
       is_visible="true"
       id="path-effect8855-2"
       effect="bspline" />
    <inkscape:path-effect
       only_selected="false"
       apply_with_weight="true"
       apply_no_weight="true"
       helper_size="0"
       steps="2"
       weight="33.333333"
       is_visible="true"
       id="path-effect8827-6"
       effect="bspline" />
    <inkscape:path-effect
       only_selected="false"
       apply_with_weight="true"
       apply_no_weight="true"
       helper_size="0"
       steps="2"
       weight="33.333333"
       is_visible="true"
       id="path-effect8823-0"
       effect="bspline" />
    <inkscape:path-effect
       only_selected="false"
       apply_with_weight="true"
       apply_no_weight="true"
       helper_size="0"
       steps="2"
       weight="33.333333"
       is_visible="true"
       id="path-effect8819-4"
       effect="bspline" />
    <inkscape:path-effect
       only_selected="false"
       apply_with_weight="true"
       apply_no_weight="true"
       helper_size="0"
       steps="2"
       weight="33.333333"
       is_visible="true"
       id="path-effect8815-3"
       effect="bspline" />
    <inkscape:path-effect
       only_selected="false"
       apply_with_weight="true"
       apply_no_weight="true"
       helper_size="0"
       steps="2"
       weight="33.333333"
       is_visible="true"
       id="path-effect8811-7"
       effect="bspline" />
    <inkscape:path-effect
       only_selected="false"
       apply_with_weight="true"
       apply_no_weight="true"
       helper_size="0"
       steps="2"
       weight="33.333333"
       is_visible="true"
       id="path-effect8807-2"
       effect="bspline" />
    <inkscape:path-effect
       only_selected="false"
       apply_with_weight="true"
       apply_no_weight="true"
       helper_size="0"
       steps="2"
       weight="33.333333"
       is_visible="true"
       id="path-effect8803-0"
       effect="bspline" />
    <inkscape:path-effect
       only_selected="false"
       apply_with_weight="true"
       apply_no_weight="true"
       helper_size="0"
       steps="2"
       weight="33.333333"
       is_visible="true"
       id="path-effect8803-5"
       effect="bspline" />
    <inkscape:path-effect
       only_selected="false"
       apply_with_weight="true"
       apply_no_weight="true"
       helper_size="0"
       steps="2"
       weight="33.333333"
       is_visible="true"
       id="path-effect8807-9"
       effect="bspline" />
    <inkscape:path-effect
       only_selected="false"
       apply_with_weight="true"
       apply_no_weight="true"
       helper_size="0"
       steps="2"
       weight="33.333333"
       is_visible="true"
       id="path-effect8811-0"
       effect="bspline" />
    <inkscape:path-effect
       only_selected="false"
       apply_with_weight="true"
       apply_no_weight="true"
       helper_size="0"
       steps="2"
       weight="33.333333"
       is_visible="true"
       id="path-effect8815-4"
       effect="bspline" />
    <inkscape:path-effect
       only_selected="false"
       apply_with_weight="true"
       apply_no_weight="true"
       helper_size="0"
       steps="2"
       weight="33.333333"
       is_visible="true"
       id="path-effect8819-5"
       effect="bspline" />
    <inkscape:path-effect
       only_selected="false"
       apply_with_weight="true"
       apply_no_weight="true"
       helper_size="0"
       steps="2"
       weight="33.333333"
       is_visible="true"
       id="path-effect8823-5"
       effect="bspline" />
    <inkscape:path-effect
       only_selected="false"
       apply_with_weight="true"
       apply_no_weight="true"
       helper_size="0"
       steps="2"
       weight="33.333333"
       is_visible="true"
       id="path-effect8827-7"
       effect="bspline" />
    <inkscape:path-effect
       only_selected="false"
       apply_with_weight="true"
       apply_no_weight="true"
       helper_size="0"
       steps="2"
       weight="33.333333"
       is_visible="true"
       id="path-effect8855-3"
       effect="bspline" />
    <inkscape:path-effect
       only_selected="false"
       apply_with_weight="true"
       apply_no_weight="true"
       helper_size="0"
       steps="2"
       weight="33.333333"
       is_visible="true"
       id="path-effect8859-7"
       effect="bspline" />
    <inkscape:path-effect
       only_selected="false"
       apply_with_weight="true"
       apply_no_weight="true"
       helper_size="0"
       steps="2"
       weight="33.333333"
       is_visible="true"
       id="path-effect9081-4"
       effect="bspline" />
    <inkscape:path-effect
       only_selected="false"
       apply_with_weight="true"
       apply_no_weight="true"
       helper_size="0"
       steps="2"
       weight="33.333333"
       is_visible="true"
       id="path-effect8585-2-3"
       effect="bspline" />
    <inkscape:path-effect
       only_selected="false"
       apply_with_weight="true"
       apply_no_weight="true"
       helper_size="0"
       steps="2"
       weight="33.333333"
       is_visible="true"
       id="path-effect8585-2-3-2"
       effect="bspline" />
    <inkscape:path-effect
       only_selected="false"
       apply_with_weight="true"
       apply_no_weight="true"
       helper_size="0"
       steps="2"
       weight="33.333333"
       is_visible="true"
       id="path-effect9081-4-2"
       effect="bspline" />
    <inkscape:path-effect
       only_selected="false"
       apply_with_weight="true"
       apply_no_weight="true"
       helper_size="0"
       steps="2"
       weight="33.333333"
       is_visible="true"
       id="path-effect8815-4-5"
       effect="bspline" />
    <inkscape:path-effect
       only_selected="false"
       apply_with_weight="true"
       apply_no_weight="true"
       helper_size="0"
       steps="2"
       weight="33.333333"
       is_visible="true"
       id="path-effect8807-9-3"
       effect="bspline" />
    <inkscape:path-effect
       only_selected="false"
       apply_with_weight="true"
       apply_no_weight="true"
       helper_size="0"
       steps="2"
       weight="33.333333"
       is_visible="true"
       id="path-effect8803-5-3"
       effect="bspline" />
    <inkscape:path-effect
       only_selected="false"
       apply_with_weight="true"
       apply_no_weight="true"
       helper_size="0"
       steps="2"
       weight="33.333333"
       is_visible="true"
       id="path-effect8803-5-3-1"
       effect="bspline" />
    <inkscape:path-effect
       only_selected="false"
       apply_with_weight="true"
       apply_no_weight="true"
       helper_size="0"
       steps="2"
       weight="33.333333"
       is_visible="true"
       id="path-effect8807-9-3-0"
       effect="bspline" />
    <inkscape:path-effect
       only_selected="false"
       apply_with_weight="true"
       apply_no_weight="true"
       helper_size="0"
       steps="2"
       weight="33.333333"
       is_visible="true"
       id="path-effect8815-4-5-0"
       effect="bspline" />
    <inkscape:path-effect
       only_selected="false"
       apply_with_weight="true"
       apply_no_weight="true"
       helper_size="0"
       steps="2"
       weight="33.333333"
       is_visible="true"
       id="path-effect9081-4-2-3"
       effect="bspline" />
    <inkscape:path-effect
       only_selected="false"
       apply_with_weight="true"
       apply_no_weight="true"
       helper_size="0"
       steps="2"
       weight="33.333333"
       is_visible="true"
       id="path-effect8803-5-3-1-1"
       effect="bspline" />
    <inkscape:path-effect
       only_selected="false"
       apply_with_weight="true"
       apply_no_weight="true"
       helper_size="0"
       steps="2"
       weight="33.333333"
       is_visible="true"
       id="path-effect8807-9-3-0-1"
       effect="bspline" />
    <inkscape:path-effect
       only_selected="false"
       apply_with_weight="true"
       apply_no_weight="true"
       helper_size="0"
       steps="2"
       weight="33.333333"
       is_visible="true"
       id="path-effect8815-4-5-0-7"
       effect="bspline" />
    <inkscape:path-effect
       only_selected="false"
       apply_with_weight="true"
       apply_no_weight="true"
       helper_size="0"
       steps="2"
       weight="33.333333"
       is_visible="true"
       id="path-effect9081-4-2-3-4"
       effect="bspline" />
    <inkscape:path-effect
       only_selected="false"
       apply_with_weight="true"
       apply_no_weight="true"
       helper_size="0"
       steps="2"
       weight="33.333333"
       is_visible="true"
       id="path-effect10005-0"
       effect="bspline" />
  </defs>
  <metadata
     id="metadata8392">
    <rdf:RDF>
      <cc:Work
         rdf:about="">
        <dc:format>image/svg+xml</dc:format>
        <dc:type
           rdf:resource="http://purl.org/dc/dcmitype/StillImage" />
        <dc:title></dc:title>
      </cc:Work>
    </rdf:RDF>
  </metadata>
  <g
     transform="translate(878.86874,311.0204)"
     id="layer1"
     inkscape:groupmode="layer"
     inkscape:label="Shell">
    <text
       id="text4495"
       y="148.10231"
       x="441.89313"
       style="font-style:normal;font-variant:normal;font-weight:normal;font-stretch:normal;font-size:10.58333302px;line-height:125%;font-family:Instruction;-inkscape-font-specification:Instruction;letter-spacing:0px;word-spacing:0px;fill:#000000;fill-opacity:1;stroke:none;stroke-width:0.2;stroke-linecap:butt;stroke-linejoin:miter;stroke-miterlimit:4;stroke-dasharray:none;stroke-opacity:1"
       xml:space="preserve"><tspan
         style="stroke-width:0.2;stroke-miterlimit:4;stroke-dasharray:none"
         y="160.00856"
         x="441.89313"
         id="tspan4493"
         sodipodi:role="line" /></text>
    <text
       id="text4499"
       y="158.68564"
       x="549.61633"
       style="font-style:normal;font-variant:normal;font-weight:normal;font-stretch:normal;font-size:10.58333302px;line-height:125%;font-family:Instruction;-inkscape-font-specification:Instruction;letter-spacing:0px;word-spacing:0px;fill:#000000;fill-opacity:1;stroke:none;stroke-width:0.2;stroke-linecap:butt;stroke-linejoin:miter;stroke-miterlimit:4;stroke-dasharray:none;stroke-opacity:1"
       xml:space="preserve"><tspan
         style="stroke-width:0.2;stroke-miterlimit:4;stroke-dasharray:none"
         y="170.59189"
         x="549.61633"
         id="tspan4497"
         sodipodi:role="line" /></text>
    <g
       id="layer2"
       inkscape:label="Letters"
       transform="translate(231.36041,138.88921)"
       style="stroke-width:0.2;stroke-miterlimit:4;stroke-dasharray:none" />
    <g
       id="g5388"
       transform="rotate(180,-57.718167,-8.662989)"
       style="stroke-width:0.2;stroke-miterlimit:4;stroke-dasharray:none">
      <path
         inkscape:connector-curvature="0"
         id="rect9084-5"
         d="M 18.486455,4.67298 H 101.81979 C 106.43646,4.67298 110.15314,8.389649 110.15314,13.006319 V 63.006325 C 110.15314,67.622995 106.43646,71.339664 101.81979,71.339664 H 18.486455 C 13.869798,71.339664 10.153142,67.622995 10.153142,63.006325 V 13.006319 C 10.153142,8.389649 13.869811,4.67298 18.486455,4.67298 Z"
         style="fill:#0000ff;fill-opacity:0;fill-rule:evenodd;stroke:#000000;stroke-width:0.2;stroke-linecap:round;stroke-linejoin:round;stroke-miterlimit:4;stroke-dasharray:none;stroke-dashoffset:1.73858261" />
      <path
         inkscape:connector-curvature="0"
         style="fill:none;stroke:#000000;stroke-width:0.2;stroke-linecap:round;stroke-miterlimit:4;stroke-dasharray:none;stroke-opacity:1"
         d="M 189.79706,-1.352778 A 6.6293997,6.6294023 0 0 1 183.16766,5.276625 6.6293997,6.6294023 0 0 1 176.53826,-1.352778 6.6293997,6.6294023 0 0 1 183.16766,-7.9821779 6.6293997,6.6294023 0 0 1 189.79706,-1.352778 Z"
         id="path2987-0" />
      <path
         inkscape:connector-curvature="0"
         style="fill:none;stroke:#000000;stroke-width:0.2;stroke-linecap:round;stroke-miterlimit:4;stroke-dasharray:none;stroke-opacity:1"
         d="M 215.24638,-1.352778 A 6.6294008,6.6294008 0 0 1 208.61698,5.276625 6.6294008,6.6294008 0 0 1 201.98758,-1.352778 6.6294008,6.6294008 0 0 1 208.61698,-7.9821779 6.6294008,6.6294008 0 0 1 215.24638,-1.352778 Z"
         id="path2987-8-5" />
      <path
         inkscape:connector-curvature="0"
         style="fill:none;stroke:#000000;stroke-width:0.2;stroke-linecap:round;stroke-miterlimit:4;stroke-dasharray:none;stroke-opacity:1"
         d="M 235.83844,13.714115 A 6.6294008,6.6294008 0 0 1 229.20904,20.343518 6.6294008,6.6294008 0 0 1 222.57964,13.714115 6.6294008,6.6294008 0 0 1 229.20904,7.0847156 6.6294008,6.6294008 0 0 1 235.83844,13.714115 Z"
         id="path2987-8-2-9" />
      <path
         inkscape:connector-curvature="0"
         style="fill:none;stroke:#000000;stroke-width:0.2;stroke-linecap:round;stroke-miterlimit:4;stroke-dasharray:none;stroke-opacity:1"
         d="M 243.69001,38.02069 A 6.6294008,6.6294008 0 0 1 237.06061,44.650093 6.6294008,6.6294008 0 0 1 230.43121,38.02069 6.6294008,6.6294008 0 0 1 237.06061,31.39129 6.6294008,6.6294008 0 0 1 243.69001,38.02069 Z"
         id="path2987-8-3-4" />
      <path
         inkscape:connector-curvature="0"
         style="fill:none;stroke:#000000;stroke-width:0.2;stroke-linecap:round;stroke-miterlimit:4;stroke-dasharray:none;stroke-opacity:1"
         d="M 235.83844,62.364714 A 6.6294008,6.6294008 0 0 1 229.20904,68.994116 6.6294008,6.6294008 0 0 1 222.57964,62.364714 6.6294008,6.6294008 0 0 1 229.20904,55.735314 6.6294008,6.6294008 0 0 1 235.83844,62.364714 Z"
         id="path2987-8-4-6" />
      <path
         inkscape:connector-curvature="0"
         style="fill:none;stroke:#000000;stroke-width:0.2;stroke-linecap:round;stroke-miterlimit:4;stroke-dasharray:none;stroke-opacity:1"
         d="M 215.24638,77.36543 A 6.6294008,6.6293993 0 0 1 208.61698,83.99483 6.6294008,6.6293993 0 0 1 201.98758,77.36543 6.6294008,6.6293993 0 0 1 208.61698,70.73603 6.6294008,6.6293993 0 0 1 215.24638,77.36543 Z"
         id="path2987-8-34-9" />
      <path
         inkscape:connector-curvature="0"
         style="fill:none;stroke:#000000;stroke-width:0.2;stroke-linecap:round;stroke-miterlimit:4;stroke-dasharray:none;stroke-opacity:1"
         d="M 189.79014,77.36543 A 6.6294008,6.6293993 0 0 1 183.16074,83.99483 6.6294008,6.6293993 0 0 1 176.53134,77.36543 6.6294008,6.6293993 0 0 1 183.16074,70.73603 6.6294008,6.6293993 0 0 1 189.79014,77.36543 Z"
         id="path2987-8-22-2" />
      <path
         inkscape:connector-curvature="0"
         style="fill:none;stroke:#000000;stroke-width:0.2;stroke-linecap:round;stroke-miterlimit:4;stroke-dasharray:none;stroke-opacity:1"
         d="M 169.18353,62.364714 A 6.6293993,6.6294008 0 0 1 162.55413,68.994116 6.6293993,6.6294008 0 0 1 155.92473,62.364714 6.6293993,6.6294008 0 0 1 162.55413,55.735314 6.6293993,6.6294008 0 0 1 169.18353,62.364714 Z"
         id="path2987-8-1-2" />
      <path
         inkscape:connector-curvature="0"
         style="fill:none;stroke:#000000;stroke-width:0.2;stroke-linecap:round;stroke-miterlimit:4;stroke-dasharray:none;stroke-opacity:1"
         d="M 161.34563,38.02069 A 6.6294006,6.6294008 0 0 1 154.71623,44.650093 6.6294006,6.6294008 0 0 1 148.08683,38.02069 6.6294006,6.6294008 0 0 1 154.71623,31.39129 6.6294006,6.6294008 0 0 1 161.34563,38.02069 Z"
         id="path2987-8-9-4" />
      <path
         inkscape:connector-curvature="0"
         style="fill:none;stroke:#000000;stroke-width:0.2;stroke-linecap:round;stroke-miterlimit:4;stroke-dasharray:none;stroke-opacity:1"
         d="M 169.18353,13.714115 A 6.6293993,6.6294008 0 0 1 162.55413,20.343518 6.6293993,6.6294008 0 0 1 155.92473,13.714115 6.6293993,6.6294008 0 0 1 162.55413,7.0847156 6.6293993,6.6294008 0 0 1 169.18353,13.714115 Z"
         id="path2987-8-20-7" />
      <path
         style="fill:#0000ff;fill-opacity:0;fill-rule:evenodd;stroke:#000000;stroke-width:0.2;stroke-linecap:round;stroke-linejoin:round;stroke-miterlimit:4;stroke-dasharray:none;stroke-dashoffset:1.73858261"
         d="M 214.33113,38.006318 A 18.441596,18.441596 0 0 1 195.88953,56.447916 18.441596,18.441596 0 0 1 177.44794,38.006318 18.441596,18.441596 0 0 1 195.88953,19.564722 18.441596,18.441596 0 0 1 214.33113,38.006318 Z"
         id="path9373-7"
         inkscape:connector-curvature="0" />
      <path
         inkscape:connector-curvature="0"
         d="M -11.681705,190.40632 V 186.87521 H -8.5067054 V 180.96521 H -11.681705 V 174.2141 H -8.5067054 V 168.3041 H -11.681705 V 161.55299 H -8.5067054 V 155.64299 H -11.681705 V 148.89188 H -8.5067054 V 142.98188 H -11.681705 V 136.23077 H -8.5067054 V 130.32077 H -11.681705 V 123.56966 H -8.5067054 V 117.65966 H -11.681705 V 110.90854 H -8.5067054 V 104.99854 H -11.681705 V 98.247432 H -8.5067054 V 92.337432 H -11.681705 V 88.806322 M 270.89827,88.806322 V 92.337432 H 267.72327 V 98.247432 H 270.89827 V 104.99854 H 267.72327 V 110.90854 H 270.89827 V 117.65966 H 267.72327 V 123.56966 H 270.89827 V 130.32077 H 267.72327 V 136.23077 H 270.89827 V 142.98188 H 267.72327 V 148.89188 H 270.89827 V 155.64299 H 267.72327 V 161.55299 H 270.89827 V 168.3041 H 267.72327 V 174.2141 H 270.89827 V 180.96521 H 267.72327 V 186.87521 H 270.89827 V 190.40632 M -11.681705,88.806322 H -5.7025454 V 88.806322 H 0.38745461 V 88.806322 H 6.3216246 V 88.806322 H 12.411625 V 88.806322 H 18.345795 V 88.806322 H 24.435795 V 88.806322 H 30.369955 V 88.806322 H 36.459955 V 88.806322 H 42.394125 V 88.806322 H 48.484125 V 88.806322 H 54.418285 V 88.806322 H 60.508285 V 88.806322 H 66.442455 V 88.806322 H 72.532455 V 88.806322 H 78.466625 V 88.806322 H 84.556625 V 88.806322 H 90.490785 V 88.806322 H 96.580785 V 88.806322 H 102.51495 V 88.806322 H 108.60495 V 88.806322 H 114.53911 V 88.806322 H 120.62911 V 88.806322 H 126.56328 V 88.806322 H 132.65328 V 88.806322 H 138.58745 V 88.806322 H 144.67745 V 88.806322 H 150.61161 V 88.806322 H 156.70161 V 88.806322 H 162.63578 V 88.806322 H 168.72578 V 88.806322 H 174.65994 V 88.806322 H 180.74994 V 88.806322 H 186.68411 V 88.806322 H 192.77411 V 88.806322 H 198.70828 V 88.806322 H 204.79828 V 88.806322 H 210.73244 V 88.806322 H 216.82244 V 88.806322 H 222.75661 V 88.806322 H 228.84661 V 88.806322 H 234.78078 V 88.806322 H 240.87078 V 88.806322 H 246.80494 V 88.806322 H 252.89494 V 88.806322 H 258.82911 V 88.806322 H 264.91911 V 88.806322 H 270.89827"
         style="fill:none;stroke:#000000;stroke-width:0.2;stroke-miterlimit:4;stroke-dasharray:none"
         id="path11094" />
      <path
         inkscape:connector-curvature="0"
         d="M -11.681705,292.00632 V 288.47521 H -8.5067054 V 282.56521 H -11.681705 V 275.8141 H -8.5067054 V 269.9041 H -11.681705 V 263.15299 H -8.5067054 V 257.24299 H -11.681705 V 250.49188 H -8.5067054 V 244.58188 H -11.681705 V 237.83076 H -8.5067054 V 231.92076 H -11.681705 V 225.16965 H -8.5067054 V 219.25965 H -11.681705 V 212.50854 H -8.5067054 V 206.59854 H -11.681705 V 199.84743 H -8.5067054 V 193.93743 H -11.681705 V 190.40632 M 270.89827,292.00632 H 264.91911 V 292.00632 H 258.82911 V 292.00632 H 252.89494 V 292.00632 H 246.80494 V 292.00632 H 240.87078 V 292.00632 H 234.78078 V 292.00632 H 228.84661 V 292.00632 H 222.75661 V 292.00632 H 216.82244 V 292.00632 H 210.73244 V 292.00632 H 204.79828 V 292.00632 H 198.70828 V 292.00632 H 192.77411 V 292.00632 H 186.68411 V 292.00632 H 180.74994 V 292.00632 H 174.65994 V 292.00632 H 168.72578 V 292.00632 H 162.63578 V 292.00632 H 156.70161 V 292.00632 H 150.61161 V 292.00632 H 144.67745 V 292.00632 H 138.58745 V 292.00632 H 132.65328 V 292.00632 H 126.56328 V 292.00632 H 120.62911 V 292.00632 H 114.53911 V 292.00632 H 108.60495 V 292.00632 H 102.51495 V 292.00632 H 96.580785 V 292.00632 H 90.490785 V 292.00632 H 84.556625 V 292.00632 H 78.466625 V 292.00632 H 72.532455 V 292.00632 H 66.442455 V 292.00632 H 60.508285 V 292.00632 H 54.418285 V 292.00632 H 48.484125 V 292.00632 H 42.394125 V 292.00632 H 36.459955 V 292.00632 H 30.369955 V 292.00632 H 24.435795 V 292.00632 H 18.345795 V 292.00632 H 12.411625 V 292.00632 H 6.3216246 V 292.00632 H 0.38745461 V 292.00632 H -5.7025454 V 292.00632 H -11.681705 M 270.89827,190.40632 V 193.93743 H 267.72327 V 199.84743 H 270.89827 V 206.59854 H 267.72327 V 212.50854 H 270.89827 V 219.25965 H 267.72327 V 225.16965 H 270.89827 V 231.92076 H 267.72327 V 237.83076 H 270.89827 V 244.58188 H 267.72327 V 250.49188 H 270.89827 V 257.24299 H 267.72327 V 263.15299 H 270.89827 V 269.9041 H 267.72327 V 275.8141 H 270.89827 V 282.56521 H 267.72327 V 288.47521 H 270.89827 V 292.00632 M -11.681705,190.40632 H -5.7025454 V 190.40632 H 0.38745461 V 190.40632 H 6.3216246 V 190.40632 H 12.411625 V 190.40632 H 18.345795 V 190.40632 H 24.435795 V 190.40632 H 30.369955 V 190.40632 H 36.459955 V 190.40632 H 42.394125 V 190.40632 H 48.484125 V 190.40632 H 54.418285 V 190.40632 H 60.508285 V 190.40632 H 66.442455 V 190.40632 H 72.532455 V 190.40632 H 78.466625 V 190.40632 H 84.556625 V 190.40632 H 90.490785 V 190.40632 H 96.580785 V 190.40632 H 102.51495 V 190.40632 H 108.60495 V 190.40632 H 114.53911 V 190.40632 H 120.62911 V 190.40632 H 126.56328 V 190.40632 H 132.65328 V 190.40632 H 138.58745 V 190.40632 H 144.67745 V 190.40632 H 150.61161 V 190.40632 H 156.70161 V 190.40632 H 162.63578 V 190.40632 H 168.72578 V 190.40632 H 174.65994 V 190.40632 H 180.74994 V 190.40632 H 186.68411 V 190.40632 H 192.77411 V 190.40632 H 198.70828 V 190.40632 H 204.79828 V 190.40632 H 210.73244 V 190.40632 H 216.82244 V 190.40632 H 222.75661 V 190.40632 H 228.84661 V 190.40632 H 234.78078 V 190.40632 H 240.87078 V 190.40632 H 246.80494 V 190.40632 H 252.89494 V 190.40632 H 258.82911 V 190.40632 H 264.91911 V 190.40632 H 270.89827"
         style="fill:none;stroke:#000000;stroke-width:0.2;stroke-miterlimit:4;stroke-dasharray:none"
         id="path11110" />
      <path
         inkscape:connector-curvature="0"
         d="M -3.3468554,-12.793678 H 0.10132461 V -12.793678 H 6.1913246 V -12.793678 H 12.769505 V -12.793678 H 18.859505 V -12.793678 H 25.437685 V -12.793678 H 31.527685 V -12.793678 H 38.105875 V -12.793678 H 44.195875 V -12.793678 H 50.774055 V -12.793678 H 56.864055 V -12.793678 H 63.442235 V -12.793678 H 69.532235 V -12.793678 H 76.110415 V -12.793678 H 82.200415 V -12.793678 H 88.778605 V -12.793678 H 94.868605 V -12.793678 H 101.44678 V -12.793678 H 107.53678 V -12.793678 H 114.11496 V -12.793678 H 120.20496 V -12.793678 H 123.65314 M -3.3468554,88.806322 V 85.365212 H -6.5218554 V 79.275212 H -3.3468554 V 72.704102 H -6.5218554 V 66.614102 H -3.3468554 V 60.042992 H -6.5218554 V 53.952992 H -3.3468554 V 47.381882 H -6.5218554 V 41.291882 H -3.3468554 V 34.720772 H -6.5218554 V 28.630772 H -3.3468554 V 22.059662 H -6.5218554 V 15.969662 H -3.3468554 V 9.3985523 H -6.5218554 V 3.3085523 H -3.3468554 V -3.2625677 H -6.5218554 V -9.3525677 H -3.3468554 V -12.793678 M 123.65314,-12.793678 V -9.3525677 H 126.82814 V -3.2625677 H 123.65314 V 3.3085523 H 126.82814 V 9.3985523 H 123.65314 V 15.969662 H 126.82814 V 22.059662 H 123.65314 V 28.630772 H 126.82814 V 34.720772 H 123.65314 V 41.291882 H 126.82814 V 47.381882 H 123.65314 V 53.952992 H 126.82814 V 60.042992 H 123.65314 V 66.614102 H 126.82814 V 72.704102 H 123.65314 V 79.275212 H 126.82814 V 85.365212 H 123.65314 V 88.806322"
         style="fill:none;stroke:#000000;stroke-width:0.2;stroke-miterlimit:4;stroke-dasharray:none"
         id="path11102" />
      <path
         d="M 135.56342,-12.793678 H 139.0116 V -12.793678 H 145.1016 V -12.793678 H 151.67978 V -12.793678 H 157.76978 V -12.793678 H 164.34796 V -12.793678 H 170.43796 V -12.793678 H 177.01615 V -12.793678 H 183.10615 V -12.793678 H 189.68433 V -12.793678 H 195.77433 V -12.793678 H 202.35251 V -12.793678 H 208.44251 V -12.793678 H 215.02069 V -12.793678 H 221.11069 V -12.793678 H 227.68888 V -12.793678 H 233.77888 V -12.793678 H 240.35706 V -12.793678 H 246.44706 V -12.793678 H 253.02524 V -12.793678 H 259.11524 V -12.793678 H 262.56342 M 135.56342,88.806322 V 85.365212 H 132.38842 V 79.275212 H 135.56342 V 72.704102 H 132.38842 V 66.614102 H 135.56342 V 60.042992 H 132.38842 V 53.952992 H 135.56342 V 47.381872 H 132.38842 V 41.291872 H 135.56342 V 34.720762 H 132.38842 V 28.630762 H 135.56342 V 22.059652 H 132.38842 V 15.969652 H 135.56342 V 9.3985423 H 132.38842 V 3.3085423 H 135.56342 V -3.2625677 H 132.38842 V -9.3525677 H 135.56342 V -12.793678 M 262.56342,-12.793678 V -9.3525677 H 265.73842 V -3.2625677 H 262.56342 V 3.3085423 H 265.73842 V 9.3985423 H 262.56342 V 15.969652 H 265.73842 V 22.059652 H 262.56342 V 28.630762 H 265.73842 V 34.720762 H 262.56342 V 41.291872 H 265.73842 V 47.381872 H 262.56342 V 53.952992 H 265.73842 V 60.042992 H 262.56342 V 66.614102 H 265.73842 V 72.704102 H 262.56342 V 79.275212 H 265.73842 V 85.365212 H 262.56342 V 88.806322"
         style="fill:none;stroke:#000000;stroke-width:0.2;stroke-miterlimit:4;stroke-dasharray:none"
         id="path11118"
         inkscape:connector-curvature="0" />
      <path
         id="path12612"
         d="M 9.9744029,208.01456 A 6,6 0 0 1 3.9744029,214.01456 6,6 0 0 1 -2.0255971,208.01456 6,6 0 0 1 3.9744029,202.01456 6,6 0 0 1 9.9744029,208.01456 Z"
         style="fill:#0000ff;fill-opacity:0;fill-rule:evenodd;stroke:#000000;stroke-width:0.2;stroke-linecap:round;stroke-linejoin:round;stroke-miterlimit:4;stroke-dasharray:none;stroke-dashoffset:1.73858261"
         inkscape:connector-curvature="0" />
      <path
         id="path12612-2"
         d="M 9.9744029,274.3981 A 6,6 0 0 1 3.9744029,280.3981 6,6 0 0 1 -2.0255971,274.3981 6,6 0 0 1 3.9744029,268.3981 6,6 0 0 1 9.9744029,274.3981 Z"
         style="fill:#0000ff;fill-opacity:0;fill-rule:evenodd;stroke:#000000;stroke-width:0.2;stroke-linecap:round;stroke-linejoin:round;stroke-miterlimit:4;stroke-dasharray:none;stroke-dashoffset:1.73858261"
         inkscape:connector-curvature="0" />
      <path
         id="path12612-1"
         d="M 258.06218,208.01456 A 6,6 0 0 1 252.06218,214.01456 6,6 0 0 1 246.06218,208.01456 6,6 0 0 1 252.06218,202.01456 6,6 0 0 1 258.06218,208.01456 Z"
         style="fill:#0000ff;fill-opacity:0;fill-rule:evenodd;stroke:#000000;stroke-width:0.2;stroke-linecap:round;stroke-linejoin:round;stroke-miterlimit:4;stroke-dasharray:none;stroke-dashoffset:1.73858261"
         inkscape:connector-curvature="0" />
      <path
         id="path12612-0"
         d="M 258.06218,274.3981 A 6,6 0 0 1 252.06218,280.3981 6,6 0 0 1 246.06218,274.3981 6,6 0 0 1 252.06218,268.3981 6,6 0 0 1 258.06218,274.3981 Z"
         style="fill:#0000ff;fill-opacity:0;fill-rule:evenodd;stroke:#000000;stroke-width:0.2;stroke-linecap:round;stroke-linejoin:round;stroke-miterlimit:4;stroke-dasharray:none;stroke-dashoffset:1.73858261"
         inkscape:connector-curvature="0" />
    </g>
  </g>
  <g
     inkscape:groupmode="layer"
     id="layer5"
     inkscape:label="Drawer_Base"
     transform="translate(857.08704,288.12672)">
    <g
       id="g4668"
       transform="translate(-863.11933,-294.15372)"
       style="stroke-width:0.2;stroke-miterlimit:4;stroke-dasharray:none">
      <path
         style="display:inline;opacity:1;fill:none;fill-opacity:1;stroke:#0000ff;stroke-width:0.2;stroke-linecap:round;stroke-miterlimit:4;stroke-dasharray:none;stroke-opacity:1"
         d="M 130.48659,252.42091 H 138.41227 V 265.12091 H 130.48659 Z"
         id="rect10025"
         inkscape:connector-curvature="0" />
      <g
         style="display:inline;stroke-width:0.2;stroke-miterlimit:4;stroke-dasharray:none"
         transform="translate(-30.792707,5.1222421)"
         inkscape:label="Outer Cut"
         id="layer1-3">
        <g
           id="g4993"
           style="stroke-width:0.2;stroke-miterlimit:4;stroke-dasharray:none">
          <path
             id="rect10082"
             d="M 202.4342,217.60808 H 205.62371 V 230.30808 H 202.4342 Z"
             style="display:inline;opacity:1;fill:none;fill-opacity:1;stroke:#0000ff;stroke-width:0.2;stroke-linecap:round;stroke-miterlimit:4;stroke-dasharray:none;stroke-opacity:1"
             inkscape:connector-curvature="0"
             transform="translate(30.792706,-5.1222444)" />
          <path
             id="rect10085"
             d="M 190.45337,227.29567 C 194.05437,227.29567 196.95337,230.64067 196.95337,234.79567 V 247.82156 C 196.95337,251.97656 194.05437,255.32156 190.45337,255.32156 186.85237,255.32156 183.95337,251.97656 183.95337,247.82156 V 234.79567 C 183.95337,230.64067 186.85237,227.29567 190.45337,227.29567 Z"
             style="display:inline;opacity:1;fill:none;fill-opacity:1;stroke:#0000ff;stroke-width:0.2;stroke-linecap:round;stroke-miterlimit:4;stroke-dasharray:none;stroke-opacity:1"
             inkscape:connector-curvature="0"
             transform="translate(30.792706,-5.1222444)" />
          <path
             inkscape:connector-curvature="0"
             id="rect10092"
             d="M 189.74153,203.85626 H 202.44153 V 206.35626 H 189.74153 Z"
             style="display:inline;opacity:1;fill:none;fill-opacity:1;stroke:#0000ff;stroke-width:0.2;stroke-linecap:round;stroke-miterlimit:4;stroke-dasharray:none;stroke-opacity:1"
             transform="translate(30.792706,-5.1222444)" />
          <path
             transform="translate(1.25e-6)"
             inkscape:connector-curvature="0"
             id="path10465"
             style="display:inline;fill:none;stroke:#000000;stroke-width:0.2;stroke-miterlimit:4;stroke-dasharray:none"
             d="M 233.31435,293.33138 233.23625,288.86984 H 236.41641 V 282.86969 H 233.23625 V 276.44889 H 236.41641 V 270.44874 H 233.23625 V 264.02795 H 236.41641 V 258.02779 H 233.23625 V 251.607 H 236.41641 V 245.60736 H 233.23625 V 239.18657 H 236.41641 V 233.18642 H 233.23625 V 226.76562 H 236.41641 V 220.76547 H 233.23625 V 214.34467 H 236.41641 V 208.34452 H 233.23625 V 201.92373 H 236.41641 V 195.92409 H 233.23625 V 189.5033 H 236.41641 V 183.50315 H 233.23625 L 233.23607,179.04137 M 201.49607,179.04137 201.57437,293.33138 M 228.77441,182.22137 H 222.77441 V 179.04137 M 215.13274,179.04137 V 182.22137 M 215.13274,182.22137 H 209.13274 V 179.04137 M 233.23607,179.04137 C 231.74912,179.04111 230.2619,179.04111 228.77441,179.04137 M 222.77441,179.04137 C 220.22745,179.04111 217.68023,179.04111 215.13274,179.04137 M 228.77441,182.22137 C 228.77468,181.16111 228.77468,180.10111 228.77441,179.04137 M 209.13274,179.04137 C 206.58745,179.04111 204.04189,179.04111 201.49607,179.04137 M 228.85269,290.15138 H 222.85269 V 293.33138 M 215.21102,293.33138 V 290.15138 M 215.21102,290.15138 H 209.21102 V 293.33138 M 233.31435,293.33138 C 231.8274,293.33164 230.34018,293.33164 228.85269,293.33138 M 222.85269,293.33138 C 220.30573,293.33164 217.75851,293.33164 215.21102,293.33138 M 228.85269,290.15138 C 228.85296,291.21164 228.85296,292.27164 228.85269,293.33138 M 209.21102,293.33138 C 206.66573,293.33164 204.12017,293.33164 201.57435,293.33138" />
        </g>
        <path
           inkscape:connector-curvature="0"
           d="M 247.97865,280.26331 H 251.15865 M 251.15865,280.26331 V 275.80165 H 247.97865 M 247.97865,269.80165 H 251.15865 M 251.15865,269.80165 V 262.15998 H 247.97865 M 247.97865,256.15998 H 251.15865 M 251.15865,256.15998 V 248.58002 M 317.83365,248.52333 V 256.15998 H 321.01365 V 262.15998 H 317.83365 V 269.80165 H 321.01365 V 275.80165 H 317.83365 V 280.26331 M 317.83365,280.26331 H 314.87198 V 283.44331 H 308.87198 V 280.26331 H 302.73031 V 283.44331 H 296.73031 V 280.26331 H 290.58865 V 283.44331 H 284.58865 V 280.26331 H 278.44698 V 283.44331 H 272.44698 V 280.26331 H 266.30531 V 283.44331 H 260.30531 V 280.26331 H 254.16365 V 283.44331 H 248.16365 V 280.26331 H 247.97865 M 247.97843,262.18914 247.97841,256.10876 M 247.97857,275.81989 247.97849,269.73951"
           style="display:inline;fill:none;stroke:#000000;stroke-width:0.2;stroke-miterlimit:4;stroke-dasharray:none"
           id="path10443"
           sodipodi:nodetypes="cccccccccccccccccccccccccccccccccccccccccccccccccccccc" />
        <path
           inkscape:connector-curvature="0"
           d="M 117.91936,280.26331 H 114.73936 M 114.73936,280.26331 V 275.80165 H 117.91936 M 117.91936,269.80165 H 114.73936 M 114.73936,269.80165 V 262.15998 H 117.91936 M 117.91936,256.15998 H 114.73936 M 114.73936,256.15998 V 248.58002 M 48.064366,248.52333 V 256.15998 H 44.884366 V 262.15998 H 48.064366 V 269.80165 H 44.884366 V 275.80165 H 48.064366 V 280.26331 M 48.064366,280.26331 H 51.026036 V 283.44331 H 57.026032 V 280.26331 H 63.167702 V 283.44331 H 69.167702 V 280.26331 H 75.309362 V 283.44331 H 81.309362 V 280.26331 H 87.451032 V 283.44331 H 93.451036 V 280.26331 H 99.592706 V 283.44331 H 105.59271 V 280.26331 H 111.73436 V 283.44331 H 117.73436 V 280.26331 H 117.91936 M 117.91958,262.18914 117.9196,256.10876 M 117.91944,275.81989 117.91952,269.73951"
           style="display:inline;fill:none;stroke:#000000;stroke-width:0.2;stroke-miterlimit:4;stroke-dasharray:none"
           id="path10421"
           sodipodi:nodetypes="cccccccccccccccccccccccccccccccccccccccccccccccccccccc" />
        <path
           inkscape:connector-curvature="0"
           d="M 129.0102,216.78333 H 122.58936 V 213.60333 H 116.58936 V 216.78333 H 110.16853 V 213.60333 H 104.16853 V 216.78333 H 97.747692 V 213.60333 H 91.747692 V 216.78333 H 85.326858 V 213.60333 H 79.326858 V 216.78333 H 72.906025 V 213.60333 H 66.906025 V 216.78333 H 60.485196 V 213.60333 H 54.485196 V 216.78333 H 48.064366 V 213.60333 H 42.064366 V 216.78333 H 36.925196 M 36.925196,248.52333 H 42.064366 V 248.52333 H 48.064366 V 248.52333 H 54.485196 V 248.52333 H 60.485196 V 248.52333 H 66.906025 V 248.52333 H 72.906025 V 248.52333 H 79.326858 V 248.52333 H 85.326858 V 248.52333 H 91.747692 V 248.52333 H 97.747692 V 248.52333 H 104.16853 V 248.52333 H 110.16853 V 248.52333 H 116.58936 V 248.52333 H 122.58936 V 248.52333 H 129.0102 M 129.0102,245.34833 V 240.88666 H 125.8302 V 234.88666 H 129.0102 V 227.24499 H 125.8302 V 221.24499 H 129.0102 V 216.78333 M 40.105196,221.24499 V 227.24499 H 36.925196 M 36.925196,234.88666 H 40.105196 M 40.105196,234.88666 V 240.88666 H 36.925196 M 36.925196,216.78333 C 36.924936,218.27028 36.924936,219.7575 36.925196,221.24499 M 36.925196,227.24499 C 36.924936,229.79195 36.924936,232.33917 36.925196,234.88666 M 129.0102,240.88666 C 129.00993,243.43195 129.00993,245.97751 129.0102,248.52333 M 40.105196,221.24499 C 39.044936,221.24472 37.984936,221.24472 36.925196,221.24499 M 36.925196,240.88666 C 36.924936,243.43195 36.924936,245.97751 36.925196,248.52333"
           style="display:inline;fill:none;stroke:#000000;stroke-width:0.2;stroke-miterlimit:4;stroke-dasharray:none"
           id="path10381" />
        <path
           inkscape:connector-curvature="0"
           d="M 328.97281,216.78333 H 323.83365 V 213.60333 H 317.83365 V 216.78333 H 311.41282 V 213.60333 H 305.41282 V 216.78333 H 298.99198 V 213.60333 H 292.99198 V 216.78333 H 286.57115 V 213.60333 H 280.57115 V 216.78333 H 274.15032 V 213.60333 H 268.15032 V 216.78333 H 261.72948 V 213.60333 H 255.72948 V 216.78333 H 249.30865 V 213.60333 H 243.30865 V 216.78333 H 236.88781 M 236.88781,216.78333 V 221.24499 H 240.06781 V 227.24499 H 236.88781 V 234.88666 H 240.06781 V 240.88666 H 236.88781 V 248.52333 M 236.88781,248.52333 H 243.30865 V 248.52333 H 249.30865 V 248.52333 H 255.72948 V 248.52333 H 261.72948 V 248.52333 H 268.15032 V 248.52333 H 274.15032 V 248.52333 H 280.57115 V 248.52333 H 286.57115 V 248.52333 H 292.99198 V 248.52333 H 298.99198 V 248.52333 H 305.41282 V 248.52333 H 311.41282 V 248.52333 H 317.83365 V 248.52333 H 323.83365 V 248.52333 H 328.97281 M 325.79281,227.24499 V 221.24499 H 328.97281 M 325.79281,240.88666 V 234.88666 H 328.97281 M 328.97281,221.24499 C 328.97255,219.7575 328.97255,218.27028 328.97281,216.78333 M 328.97281,248.52333 C 328.98991,245.97751 329.00731,243.43195 329.02501,240.88666 M 325.79281,240.88666 C 326.86995,240.88639 327.94734,240.88639 329.02501,240.88666 M 328.97281,234.88666 C 328.98991,232.33917 329.00731,229.79195 329.02501,227.24499 M 325.79281,227.24499 C 326.86995,227.24472 327.94734,227.24472 329.02501,227.24499"
           style="display:inline;fill:none;stroke:#000000;stroke-width:0.2;stroke-miterlimit:4;stroke-dasharray:none"
           id="path10379" />
        <g
           id="g4979"
           transform="translate(0,-1.5875)"
           style="stroke-width:0.2;stroke-miterlimit:4;stroke-dasharray:none">
          <path
             inkscape:connector-curvature="0"
             id="rect10133-4"
             d="M 105.1058,191.15341 H 113.1058 V 212.74341 H 105.1058 Z"
             style="display:inline;opacity:1;fill:none;fill-opacity:1;stroke:#0000ff;stroke-width:0.2;stroke-linecap:round;stroke-miterlimit:4;stroke-dasharray:none;stroke-opacity:1"
             transform="translate(30.792706,-5.1222444)" />
          <path
             id="rect10160-1"
             d="M 127.31159,196.01842 H 130.48659 V 205.51842 H 127.31159 Z"
             style="display:inline;opacity:1;fill:none;fill-opacity:1;stroke:#0000ff;stroke-width:0.2;stroke-linecap:round;stroke-miterlimit:4;stroke-dasharray:none;stroke-opacity:1"
             inkscape:connector-curvature="0"
             transform="translate(30.792706,-5.1222444)" />
          <path
             transform="translate(1.25e-6)"
             id="path10359"
             style="display:inline;fill:none;stroke:#000000;stroke-width:0.2;stroke-miterlimit:4;stroke-dasharray:none"
             d="M 129.53922,182.22117 H 137.17602 V 179.04117 H 143.17602 V 182.22117 H 150.81769 V 179.04117 H 156.81769 V 182.22117 H 161.27935 M 161.27935,182.22117 V 185.18284 H 164.45935 V 191.18284 H 161.27935 V 197.32451 H 164.45935 V 203.32451 H 161.27935 V 209.46617 H 164.45935 V 215.46617 H 161.27935 V 221.60784 H 164.45935 V 227.60784 H 161.27935 V 233.74951 H 164.45935 V 239.74951 H 161.27935 V 245.89117 H 164.45935 V 251.89117 H 161.27935 V 258.03284 H 164.45935 V 264.03284 H 161.27935 V 270.17451 H 164.45935 V 276.17451 H 161.27935 V 282.31617 H 164.45935 V 288.31617 H 161.27935 V 294.45784 H 164.45935 V 300.45784 H 161.27935 V 306.59951 H 164.45935 V 312.59951 H 161.27935 V 315.56117 M 161.27935,315.56117 H 156.81769 V 318.74117 H 150.81769 V 315.56117 H 143.17602 V 318.74117 H 137.17602 V 315.56117 H 129.53922 M 129.53922,315.56117 V 312.59951 312.59951 306.59951 306.59951 300.45784 300.45784 294.45784 294.45784 288.31617 288.31617 282.31617 282.31617 276.17451 276.17451 270.17451 270.17451 264.03284 264.03284 258.03284 258.03284 251.89117 251.89117 245.89117 245.89117 239.74951 239.74951 233.74951 233.74951 227.60784 227.60784 221.60784 221.60784 215.46617 215.46617 209.46617 209.46617 203.32451 203.32451 197.32451 197.32451 191.18284 191.18284 185.18284 185.18284 182.22117 M 129.54852,210.80117 H 137.17598 V 207.62117 H 129.54852 M 143.17598,210.80117 H 150.81765 V 207.62117 H 143.17598 V 210.80117 M 156.81765,210.80117 H 161.27931 V 207.62117 H 156.81765 V 210.80117 M 129.54852,248.88618 H 137.17598 V 245.70618 H 129.54852 M 143.17598,248.88618 H 150.81765 V 245.70618 H 143.17598 V 248.88618 M 156.81765,248.88618 H 161.27931 V 245.70618 H 156.81765 V 248.88618"
             inkscape:connector-curvature="0" />
        </g>
        <g
           id="g4984"
           transform="translate(0,-1.5875)"
           style="stroke-width:0.2;stroke-miterlimit:4;stroke-dasharray:none">
          <path
             inkscape:connector-curvature="0"
             id="rect10179"
             d="M 164.49328,200.44341 H 144.99328 V 210.44341 H 164.49328 Z"
             style="display:inline;opacity:1;fill:none;fill-opacity:1;stroke:#0000ff;stroke-width:0.2;stroke-linecap:round;stroke-miterlimit:4;stroke-dasharray:none;stroke-opacity:1"
             transform="translate(30.792706,-5.1222444)" />
          <path
             id="path10351"
             style="display:inline;fill:none;stroke:#000000;stroke-width:0.2;stroke-miterlimit:4;stroke-dasharray:none"
             d="M 200.94305,182.22117 H 193.30624 V 179.04117 H 187.30624 V 182.22117 H 179.66458 V 179.04117 H 173.66458 V 182.22117 H 169.20291 M 169.20291,182.22117 V 185.18284 H 166.02291 V 191.18284 H 169.20291 V 197.32451 H 166.02291 V 203.32451 H 169.20291 V 209.46617 H 166.02291 V 215.46617 H 169.20291 V 221.60784 H 166.02291 V 227.60784 H 169.20291 V 233.74951 H 166.02291 V 239.74951 H 169.20291 V 245.89117 H 166.02291 V 251.89117 H 169.20291 V 258.03284 H 166.02291 V 264.03284 H 169.20291 V 270.17451 H 166.02291 V 276.17451 H 169.20291 V 282.31617 H 166.02291 V 288.31617 H 169.20291 V 294.45784 H 166.02291 V 300.45784 H 169.20291 V 306.59951 H 166.02291 V 312.59951 H 169.20291 V 315.56117 M 169.20291,315.56117 H 173.66458 V 318.74117 H 179.66458 V 315.56117 H 187.30624 V 318.74117 H 193.30624 V 315.56117 H 200.94305 M 200.94305,315.56117 V 312.59951 312.59951 306.59951 306.59951 300.45784 300.45784 294.45784 294.45784 288.31617 288.31617 282.31617 282.31617 276.17451 276.17451 270.17451 270.17451 264.03284 264.03284 258.03284 258.03284 251.89117 251.89117 245.89117 245.89117 239.74951 239.74951 233.74951 233.74951 227.60784 227.60784 221.60784 221.60784 215.46617 215.46617 209.46617 209.46617 203.32451 203.32451 197.32451 197.32451 191.18284 191.18284 185.18284 185.18284 182.22117 M 200.9431,210.80117 H 193.31563 V 207.62117 H 200.9431 M 187.31563,210.80117 H 179.67397 V 207.62117 H 187.31563 V 210.80117 M 173.67397,210.80117 H 169.2123 V 207.62117 H 173.67397 V 210.80117 M 200.9431,248.88618 H 193.31563 V 245.70618 H 200.9431 M 187.31563,248.88618 H 179.67397 V 245.70618 H 187.31563 V 248.88618 M 173.67397,248.88618 H 169.2123 V 245.70618 H 173.67397 V 248.88618"
             inkscape:connector-curvature="0" />
        </g>
        <path
           inkscape:connector-curvature="0"
           d="M 36.925,180.805 H 43.34584 V 177.625 H 49.34584 V 180.805 H 55.76667 V 177.625 H 61.76667 V 180.805 H 68.187504 V 177.625 H 74.187504 V 180.805 H 80.608338 V 177.625 H 86.608338 V 180.805 H 93.029171 V 177.625 H 99.029171 V 180.805 H 105.45 V 177.625 H 111.45 V 180.805 H 117.87083 V 177.625 H 123.87083 V 180.805 H 129.01 M 129.01,212.545 H 123.87083 V 212.545 H 117.87083 V 212.545 H 111.45 V 212.545 H 105.45 V 212.545 H 99.029171 V 212.545 H 93.029171 V 212.545 H 86.608338 V 212.545 H 80.608338 V 212.545 H 74.187504 V 212.545 H 68.187504 V 212.545 H 61.76667 V 212.545 H 55.76667 V 212.545 H 49.34584 V 212.545 H 43.34584 V 212.545 H 36.925 M 36.925,209.37 V 204.90833 H 40.105 V 198.90833 H 36.925 V 191.26666 H 40.105 V 185.26666 H 36.925 V 180.805 M 125.83,185.26666 V 191.26666 H 129.01 M 129.01,198.90833 H 125.83 M 125.83,198.90833 V 204.90833 H 129.01 M 129.01,180.805 C 129.01026,182.29195 129.01026,183.77917 129.01,185.26666 M 129.01,191.26666 C 129.01026,193.81362 129.01026,196.36084 129.01,198.90833 M 125.83,185.26666 C 126.89026,185.26639 127.95026,185.26639 129.01,185.26666 M 129.01005,204.90833 C 129.01031,207.45362 129.01031,209.99918 129.01005,212.545 M 36.925,204.90833 C 36.92527,207.45362 36.92527,209.99918 36.925,212.545"
           style="display:inline;fill:none;stroke:#000000;stroke-width:0.2;stroke-miterlimit:4;stroke-dasharray:none"
           id="path10311"
           transform="translate(1.25e-6)" />
        <path
           inkscape:connector-curvature="0"
           d="M 236.94001,180.805 H 242.07917 V 177.625 H 248.07917 V 180.805 H 254.5 V 177.625 H 260.5 V 180.805 H 266.92084 V 177.625 H 272.92084 V 180.805 H 279.34167 V 177.625 H 285.34167 V 180.805 H 291.7625 V 177.625 H 297.7625 V 180.805 H 304.18334 V 177.625 H 310.18334 V 180.805 H 316.60417 V 177.625 H 322.60417 V 180.805 H 329.02501 M 329.02501,180.805 V 185.26666 H 325.84501 V 191.26666 H 329.02501 V 198.90833 H 325.84501 V 204.90833 H 329.02501 V 212.545 M 329.02501,212.545 H 322.60417 V 212.545 H 316.60417 V 212.545 H 310.18334 V 212.545 H 304.18334 V 212.545 H 297.7625 V 212.545 H 291.7625 V 212.545 H 285.34167 V 212.545 H 279.34167 V 212.545 H 272.92084 V 212.545 H 266.92084 V 212.545 H 260.5 V 212.545 H 254.5 V 212.545 H 248.07917 V 212.545 H 242.07917 V 212.545 H 236.94001 M 240.12001,191.26666 V 185.26666 H 236.94001 M 240.12001,204.90833 V 198.90833 H 236.94001 M 236.94001,185.26666 C 236.94027,183.77917 236.94027,182.29195 236.94001,180.805 M 236.94001,212.545 C 236.92291,209.99918 236.90551,207.45362 236.88781,204.90833 M 240.12001,204.90833 C 239.04287,204.90806 237.96548,204.90806 236.88781,204.90833 M 236.94001,198.90833 C 236.92291,196.36084 236.90551,193.81362 236.88781,191.26666 M 240.12001,191.26666 C 239.04287,191.26639 237.96548,191.26639 236.88781,191.26666"
           style="display:inline;fill:none;stroke:#000000;stroke-width:0.2;stroke-miterlimit:4;stroke-dasharray:none"
           id="path10309"
           transform="translate(1.25e-6)" />
        <g
           id="g5005"
           style="stroke-width:0.2;stroke-miterlimit:4;stroke-dasharray:none">
          <path
             inkscape:connector-curvature="0"
             id="rect10092-0"
             d="M 189.61732,25.167182 V 37.867182 H 187.11732 V 25.167182 Z"
             style="display:inline;opacity:1;fill:none;fill-opacity:1;stroke:#0000ff;stroke-width:0.2;stroke-linecap:round;stroke-miterlimit:4;stroke-dasharray:none;stroke-opacity:1"
             transform="translate(30.792706,-5.1222444)" />
          <path
             transform="translate(1.25e-6)"
             id="path10273"
             style="display:inline;fill:none;stroke:#000000;stroke-width:0.2;stroke-miterlimit:4;stroke-dasharray:none"
             d="M 236.94001,8.64167 V 14.64167 H 240.12001 V 8.64167 H 236.94001 M 236.94001,22.28333 V 28.28333 H 240.12001 V 22.28333 H 236.94001 M 125.83,8.64167 V 14.64167 H 129.01 V 8.64167 H 125.83 M 125.83,22.28333 V 28.28333 H 129.01 V 22.28333 H 125.83 M 36.92516,1.00476 V 4.17976 32.74494 H 43.34595 V 35.92511 H 49.34559 V 32.74494 H 55.7669 V 35.92511 H 61.76653 V 32.74494 H 68.187331 V 35.92511 H 74.18748 V 32.74494 H 80.608277 V 35.92511 H 86.608427 V 32.74494 H 93.029224 V 35.92511 H 99.029376 V 32.74494 H 105.45017 V 35.92511 H 111.44981 V 32.74494 H 117.8706 V 35.92511 H 123.87075 V 32.74494 H 130.29155 V 35.92511 H 136.2917 V 32.74494 H 142.7125 V 35.92511 H 148.71265 V 32.74494 H 155.13344 V 35.92511 H 161.13359 V 32.74494 H 167.55439 V 35.92511 H 173.55403 V 32.74494 H 179.97482 V 35.92511 H 185.97497 V 32.74494 H 192.39577 V 35.92511 H 198.39592 V 32.74494 H 204.81672 V 35.92511 H 210.81686 V 32.74494 H 217.23766 V 35.92511 H 223.2373 V 32.74494 H 229.65809 V 35.92511 H 235.65824 V 32.74494 H 242.07904 V 35.92511 H 248.07919 V 32.74494 H 254.49999 V 35.92511 H 260.50013 V 32.74494 H 266.92094 V 35.92511 H 272.92108 V 32.74494 H 279.34188 V 35.92511 H 285.34152 V 32.74494 H 291.76232 V 35.92511 H 297.76246 V 32.74494 H 304.18327 V 35.92511 H 310.18341 V 32.74494 H 316.60421 V 35.92511 H 322.60435 V 32.74494 H 329.02515 V 4.17976 1.00476 Z"
             inkscape:connector-curvature="0" />
        </g>
        <g
           id="g5000"
           style="stroke-width:0.2;stroke-miterlimit:4;stroke-dasharray:none">
          <path
             id="path10003-0"
             d="M 188.58462,111.88351 C 184.35118,111.88351 180.11864,111.88351 178.00163,109.76677 175.88462,107.65002 175.88462,103.41668 175.88462,99.183511 M 163.18011,99.190311 C 163.18011,103.42375 163.18011,107.65628 161.06337,109.77329 158.94662,111.8903 154.71328,111.8903 150.48011,111.8903 M 175.88462,99.183505 C 175.88462,99.183505 175.89462,57.927207 175.89462,57.927207 175.89462,57.927207 163.19462,57.927207 163.19462,57.927207 163.19462,57.927207 163.18052,99.190311 163.18052,99.190311 M 150.48052,111.8903 C 150.48052,111.8903 82.337504,111.8923 82.337504,111.8923 82.337504,111.8923 82.337504,124.5923 82.337504,124.5923 82.337504,124.5923 222.0375,124.5923 222.0375,124.5923 222.0375,124.5923 222.0375,111.8923 222.0375,111.8923 222.0375,111.8923 188.58503,111.8833 188.58503,111.8833"
             style="display:inline;fill:none;fill-rule:evenodd;stroke:#0000ff;stroke-width:0.2;stroke-linecap:butt;stroke-linejoin:miter;stroke-miterlimit:4;stroke-dasharray:none;stroke-opacity:1"
             inkscape:connector-curvature="0"
             transform="translate(30.792706,-5.1222444)" />
          <circle
             style="opacity:1;fill:none;fill-opacity:1;stroke:#0000ff;stroke-width:0.2;stroke-linecap:round;stroke-miterlimit:4;stroke-dasharray:none;stroke-opacity:1"
             id="path4962"
             cx="21.961168"
             cy="57.928024"
             r="5"
             transform="translate(30.792706,-5.1222444)" />
          <path
             transform="translate(1.25e-6)"
             id="path8098-8-12-3-3-4-2-5"
             style="display:inline;fill:none;stroke:#000000;stroke-width:0.2;stroke-miterlimit:4;stroke-dasharray:none"
             d="M 142.7125,68.684999 H 148.7125 V 65.504999 H 142.7125 V 68.684999 M 155.13334,68.684999 H 161.13334 V 65.504999 H 155.13334 V 68.684999 M 167.55417,68.684999 H 173.55417 V 65.504999 H 167.55417 V 68.684999 M 179.975,68.684999 H 185.975 V 65.504999 H 179.975 V 68.684999 M 192.39584,68.684999 H 198.39584 V 65.504999 H 192.39584 V 68.684999 M 204.81667,68.684999 H 210.81667 V 65.504999 H 204.81667 V 68.684999 M 217.2375,68.684999 H 223.2375 V 65.504999 H 217.2375 V 68.684999 M 36.925,36.925 H 43.34584 V 40.105 H 49.34584 V 36.925 H 55.76667 V 40.105 H 61.76667 V 36.925 H 68.187504 V 40.105 H 74.187504 V 36.925 H 80.608338 V 40.105 H 86.608338 V 36.925 H 93.029171 V 40.105 H 99.029171 V 36.925 H 105.45 V 40.105 H 111.45 V 36.925 H 117.87083 V 40.105 H 123.87083 V 36.925 H 130.29167 V 40.105 H 136.29167 V 36.925 H 142.7125 V 40.105 H 148.7125 V 36.925 H 155.13334 V 40.105 H 161.13334 V 36.925 H 167.55417 V 40.105 H 173.55417 V 36.925 H 179.975 V 40.105 H 185.975 V 36.925 H 192.39584 V 40.105 H 198.39584 V 36.925 H 204.81667 V 40.105 H 210.81667 V 36.925 H 217.2375 V 40.105 H 223.2375 V 36.925 H 229.65834 V 40.105 H 235.65834 V 36.925 H 242.07917 V 40.105 H 248.07917 V 36.925 H 254.5 V 40.105 H 260.5 V 36.925 H 266.92084 V 40.105 H 272.92084 V 36.925 H 279.34167 V 40.105 H 285.34167 V 36.925 H 291.7625 V 40.105 H 297.7625 V 36.925 H 304.18334 V 40.105 H 310.18334 V 36.925 H 316.60417 V 40.105 H 322.60417 V 36.925 H 329.02501 M 329.02501,36.925 V 43.066666 H 325.84501 V 49.066666 H 329.02501 V 55.208332 H 325.84501 V 61.208332 H 329.02501 V 67.349998 H 325.84501 V 73.349998 H 329.02501 V 79.491665 H 325.84501 V 85.491665 H 329.02501 V 91.633331 H 325.84501 V 97.633331 H 329.02501 V 103.775 H 325.84501 V 109.775 H 329.02501 V 115.91666 H 325.84501 V 121.91666 H 329.02501 V 128.05833 H 325.84501 V 134.05833 H 329.02501 V 140.2 H 325.84501 V 146.2 H 329.02501 V 152.34166 H 325.84501 V 158.34166 H 329.02501 V 164.48333 H 325.84501 V 170.48333 H 329.02501 V 176.625 M 130.29167,176.625 H 123.87083 V 173.445 H 117.87083 V 176.625 H 111.45 V 173.445 H 105.45 V 176.625 H 99.029171 V 173.445 H 93.029171 V 176.625 H 86.608338 V 173.445 H 80.608338 V 176.625 H 74.187504 V 173.445 H 68.187504 V 176.625 H 61.76667 V 173.445 H 55.76667 V 176.625 H 49.34584 V 173.445 H 43.34584 V 176.625 H 36.925 M 329.02501,176.625 H 322.60417 V 173.445 H 316.60417 V 176.625 H 310.18334 V 173.445 H 304.18334 V 176.625 H 297.7625 V 173.445 H 291.7625 V 176.625 H 285.34167 V 173.445 H 279.34167 V 176.625 H 272.92084 V 173.445 H 266.92084 V 176.625 H 260.5 V 173.445 H 254.5 V 176.625 H 248.07917 V 173.445 H 242.07917 V 176.625 H 235.65834 M 36.925,176.625 V 170.48333 H 40.105 V 164.48333 H 36.925 V 158.34166 H 40.105 V 152.34166 H 36.925 V 146.2 H 40.105 V 140.2 H 36.925 V 134.05833 H 40.105 V 128.05833 H 36.925 V 121.91666 H 40.105 V 115.91666 H 36.925 V 109.775 H 40.105 V 103.775 H 36.925 M 43.34584,106.77 H 49.34584 V 103.59 H 43.34584 V 106.77 M 55.76667,106.77 H 61.76667 V 103.59 H 55.76667 V 106.77 M 68.187504,106.77 H 74.187504 V 103.59 H 68.187504 V 106.77 M 80.608338,106.77 H 86.608338 V 103.59 H 80.608338 V 106.77 M 93.029171,106.77 H 99.029171 V 103.59 H 93.029171 V 106.77 M 105.45,106.77 H 111.45 V 103.59 H 105.45 V 106.77 M 117.87083,106.77 H 123.87083 V 103.59 H 117.87083 V 106.77 M 130.29167,68.684999 H 136.29167 V 65.504999 H 130.29167 V 68.684999 M 229.65834,68.684999 H 235.65834 V 65.504999 H 229.65834 V 68.684999 M 242.07917,106.77 H 248.07917 V 103.59 H 242.07917 V 106.77 M 254.5,106.77 H 260.5 V 103.59 H 254.5 V 106.77 M 266.92084,106.77 H 272.92084 V 103.59 H 266.92084 V 106.77 M 279.34167,106.77 H 285.34167 V 103.59 H 279.34167 V 106.77 M 291.7625,106.77 H 297.7625 V 103.59 H 291.7625 V 106.77 M 304.18334,106.77 H 310.18334 V 103.59 H 304.18334 V 106.77 M 316.60417,106.77 H 322.60417 V 103.59 H 316.60417 V 106.77 M 236.94001,43.066666 V 49.066666 H 240.12001 V 43.066666 H 236.94001 M 236.94001,55.208332 V 61.208332 H 240.12001 V 55.208332 H 236.94001 M 236.94001,67.349998 V 73.349998 H 240.12001 V 67.349998 H 236.94001 M 236.94001,79.491665 V 85.491665 H 240.12001 V 79.491665 H 236.94001 M 236.94001,91.633331 V 97.633331 H 240.12001 V 91.633331 H 236.94001 M 236.94001,103.775 V 109.775 H 240.12001 V 103.775 H 236.94001 M 236.94001,115.91666 V 121.91666 H 240.12001 V 115.91666 H 236.94001 M 236.94001,128.05833 V 134.05833 H 240.12001 V 128.05833 H 236.94001 M 236.94001,140.2 V 146.2 H 240.12001 V 140.2 H 236.94001 M 236.94001,152.34166 V 158.34166 H 240.12001 V 152.34166 H 236.94001 M 236.94001,164.48333 V 170.48333 H 240.12001 V 164.48333 H 236.94001 M 125.83,43.066666 V 49.066666 H 129.01 V 43.066666 H 125.83 M 125.83,55.208332 V 61.208332 H 129.01 V 55.208332 H 125.83 M 125.83,67.349998 V 73.349998 H 129.01 V 67.349998 H 125.83 M 125.83,79.491665 V 85.491665 H 129.01 V 79.491665 H 125.83 M 125.83,91.633331 V 97.633331 H 129.01 V 91.633331 H 125.83 M 125.83,103.775 V 109.775 H 129.01 V 103.775 H 125.83 M 125.83,115.91666 V 121.91666 H 129.01 V 115.91666 H 125.83 M 125.83,128.05833 V 134.05833 H 129.01 V 128.05833 H 125.83 M 125.83,140.2 V 146.2 H 129.01 V 140.2 H 125.83 M 125.83,152.34166 V 158.34166 H 129.01 V 152.34166 H 125.83 M 125.83,164.48333 V 170.48333 H 129.01 V 164.48333 H 125.83 M 130.29167,176.625 C 165.41415,176.62473 200.53638,176.62473 235.65834,176.625 M 36.925,36.925 C 36.92527,59.208066 36.92527,81.491401 36.925,103.775"
             inkscape:connector-curvature="0" />
        </g>
      </g>
    </g>
  </g>
  <g
     inkscape:groupmode="layer"
     id="layer4"
     inkscape:label="Left_Drawer"
     transform="translate(857.08704,288.12672)">
    <g
       id="g5273"
       style="stroke-width:0.2;stroke-miterlimit:4;stroke-dasharray:none">
      <g
         id="g5224"
         style="stroke-width:0.2;stroke-miterlimit:4;stroke-dasharray:none">
        <text
           xml:space="preserve"
           style="font-style:normal;font-variant:normal;font-weight:normal;font-stretch:normal;font-size:10.58333302px;line-height:125%;font-family:'November Sky Demo';-inkscape-font-specification:'November Sky Demo';letter-spacing:4.20687485px;word-spacing:0px;fill:#000000;fill-opacity:1;stroke:none;stroke-width:0.2;stroke-linecap:butt;stroke-linejoin:miter;stroke-opacity:1;stroke-miterlimit:4;stroke-dasharray:none"
           x="-255.85858"
           y="423.90646"
           id="text4778-1-7"
           transform="rotate(90)"><tspan
             sodipodi:role="line"
             id="tspan4776-9-9"
             x="-255.85858"
             y="423.90646"
             style="font-style:normal;font-variant:normal;font-weight:normal;font-stretch:normal;font-family:Instruction;-inkscape-font-specification:Instruction;letter-spacing:1.32291663px;fill:none;stroke:#ff0000;stroke-width:0.2;stroke-miterlimit:4;stroke-dasharray:none">LEFT</tspan></text>
        <path
           inkscape:connector-curvature="0"
           id="polygon4990"
           d="M -435.90435,-200.71362 H -428.91935 V -197.53862 H -421.93435 V -200.71362 H -414.94935 V -197.53862 H -407.96435 V -200.71362 H -404.15711 V -283.26362 H -407.96435 V -286.43862 H -414.94935 V -283.26362 H -421.93435 V -286.43862 H -428.91935 V -283.26362 H -435.90435 V -278.50112 H -432.72935 V -270.56362 H -435.90435 V -264.21362 H -432.72935 V -257.86362 H -435.90435 V -251.51362 H -432.72935 V -245.16362 H -435.90435 V -238.81362 H -432.72935 V -232.46362 H -435.90435 V -226.11362 H -432.72935 V -219.76362 H -435.90435 V -213.41362 H -432.72935 V -205.47612 H -435.90435 Z"
           style="fill:none;stroke:#000000;stroke-width:0.2;stroke-miterlimit:4;stroke-dasharray:none" />
      </g>
      <g
         id="g5229"
         style="stroke-width:0.2;stroke-miterlimit:4;stroke-dasharray:none">
        <text
           xml:space="preserve"
           style="font-style:normal;font-variant:normal;font-weight:normal;font-stretch:normal;font-size:10.58333302px;line-height:125%;font-family:'November Sky Demo';-inkscape-font-specification:'November Sky Demo';letter-spacing:4.20687485px;word-spacing:0px;fill:#000000;fill-opacity:1;stroke:none;stroke-width:0.2;stroke-linecap:butt;stroke-linejoin:miter;stroke-opacity:1;stroke-miterlimit:4;stroke-dasharray:none"
           x="240.81866"
           y="-447.92847"
           id="text4778-1-5"
           transform="rotate(-90)"><tspan
             sodipodi:role="line"
             id="tspan4776-9-4"
             x="240.81866"
             y="-447.92847"
             style="font-style:normal;font-variant:normal;font-weight:normal;font-stretch:normal;font-family:Instruction;-inkscape-font-specification:Instruction;letter-spacing:1.32291663px;fill:none;stroke:#ff0000;stroke-width:0.2;stroke-miterlimit:4;stroke-dasharray:none">LEFT</tspan></text>
        <path
           inkscape:connector-curvature="0"
           style="fill:none;stroke:#000000;stroke-width:0.2;stroke-miterlimit:4;stroke-dasharray:none"
           d="M -467.67865,-222.93862 H -463.86975 V -226.11362 H -456.88475 V -222.93862 H -449.89975 V -226.11362 H -442.91475 V -222.93862 H -435.92975 V -230.87612 H -439.10475 V -238.81362 H -435.92975 V -245.16362 H -439.10475 V -251.51362 H -435.92975 V -257.86362 H -439.10475 V -264.21362 H -435.92975 V -270.56362 H -439.10475 V -278.50112 H -435.92975 V -286.43862 H -442.91475 V -283.26362 H -449.89975 V -286.43862 H -456.88475 V -283.26362 H -463.86975 V -286.43862 H -467.67865"
           id="polygon4986-4"
           sodipodi:nodetypes="cccccccccccccccccccccccccccccccccccc" />
      </g>
      <g
         id="g5219"
         style="stroke-width:0.2;stroke-miterlimit:4;stroke-dasharray:none">
        <text
           xml:space="preserve"
           style="font-style:normal;font-variant:normal;font-weight:normal;font-stretch:normal;font-size:10.58333302px;line-height:125%;font-family:'November Sky Demo';-inkscape-font-specification:'November Sky Demo';letter-spacing:4.20687485px;word-spacing:0px;fill:#000000;fill-opacity:1;stroke:none;stroke-width:0.2;stroke-linecap:butt;stroke-linejoin:miter;stroke-opacity:1;stroke-miterlimit:4;stroke-dasharray:none"
           x="228.11867"
           y="-384.38235"
           id="text4778-1-3"
           transform="rotate(-90)"><tspan
             sodipodi:role="line"
             id="tspan4776-9-96"
             x="228.11867"
             y="-384.38235"
             style="font-style:normal;font-variant:normal;font-weight:normal;font-stretch:normal;font-family:Instruction;-inkscape-font-specification:Instruction;letter-spacing:1.32291663px;fill:none;stroke:#ff0000;stroke-width:0.2;stroke-miterlimit:4;stroke-dasharray:none">LEFT</tspan></text>
        <path
           inkscape:connector-curvature="0"
           style="fill:none;stroke:#000000;stroke-width:0.2;stroke-miterlimit:4;stroke-dasharray:none"
           d="M -404.13171,-200.71362 H -400.32445 V -197.53862 H -393.33945 V -200.71362 H -386.35445 V -197.53862 H -379.36945 V -200.71362 H -372.38448 V -205.47612 H -375.55948 V -213.41362 H -372.38448 V -219.76362 H -375.55948 V -226.11362 H -372.38448 V -232.46362 H -375.55948 V -238.81362 H -372.38448 V -245.16362 H -375.55948 V -251.51362 H -372.38448 V -257.86362 H -375.55948 V -264.21362 H -372.38448 V -270.56362 H -375.55948 V -278.50112 H -372.38448 V -283.26362 H -379.36945 V -286.43862 H -386.35445 V -283.26362 H -393.33945 V -286.43862 H -400.32445 V -283.26362 H -404.13171"
           id="polygon4990-2"
           sodipodi:nodetypes="cccccccccccccccccccccccccccccccccccccccccccc" />
      </g>
      <g
         id="g5240"
         style="stroke-width:0.2;stroke-miterlimit:4;stroke-dasharray:none">
        <text
           xml:space="preserve"
           style="font-style:normal;font-variant:normal;font-weight:normal;font-stretch:normal;font-size:10.58333302px;line-height:125%;font-family:'November Sky Demo';-inkscape-font-specification:'November Sky Demo';letter-spacing:4.20687485px;word-spacing:0px;fill:#000000;fill-opacity:1;stroke:none;stroke-width:0.2;stroke-linecap:butt;stroke-linejoin:miter;stroke-opacity:1;stroke-miterlimit:4;stroke-dasharray:none"
           x="-545.09833"
           y="-238.11288"
           id="text4778"><tspan
             sodipodi:role="line"
             id="tspan4776"
             x="-545.09833"
             y="-238.11288"
             style="font-style:normal;font-variant:normal;font-weight:normal;font-stretch:normal;font-family:Instruction;-inkscape-font-specification:Instruction;letter-spacing:1.32291663px;fill:none;stroke:#ff0000;stroke-width:0.2;stroke-miterlimit:4;stroke-dasharray:none">LEFT</tspan></text>
        <path
           inkscape:connector-curvature="0"
           id="polygon4998"
           d="M -559.80335,-283.26362 H -555.04085 V -286.43862 H -547.10335 V -283.26362 H -540.75335 V -286.43862 H -534.40335 V -283.26362 H -528.05335 V -286.43862 H -521.70335 V -283.26362 H -515.35335 V -286.43862 H -507.41585 V -283.26362 H -502.65335 V -278.50112 H -499.47835 V -270.56362 H -502.65335 V -264.21362 H -499.47835 V -257.86362 H -502.65335 V -251.51362 H -499.47835 V -245.16362 H -502.65335 V -238.81362 H -499.47835 V -232.46362 H -502.65335 V -226.11362 H -499.47835 V -219.76362 H -502.65335 V -213.41362 H -499.47835 V -205.47612 H -502.65335 V -200.71362 H -507.41585 V -197.53862 H -515.35335 V -200.71362 H -521.70335 V -197.53862 H -528.05335 V -200.71362 H -534.40335 V -197.53862 H -540.75335 V -200.71362 H -547.10335 V -197.53862 H -555.04085 V -200.71362 H -559.80335 V -205.47612 H -562.97835 V -213.41362 H -559.80335 V -219.76362 H -562.97835 V -226.11362 H -559.80335 V -232.46362 H -562.97835 V -238.81362 H -559.80335 V -245.16362 H -562.97835 V -251.51362 H -559.80335 V -257.86362 H -562.97835 V -264.21362 H -559.80335 V -270.56362 H -562.97835 V -278.50112 H -559.80335 Z"
           style="fill:none;stroke:#000000;stroke-width:0.2;stroke-miterlimit:4;stroke-dasharray:none" />
        <path
           inkscape:connector-curvature="0"
           style="display:inline;opacity:1;fill:none;fill-opacity:1;fill-rule:nonzero;stroke:#0000ff;stroke-width:0.2;stroke-linecap:butt;stroke-linejoin:round;stroke-miterlimit:4;stroke-dasharray:none;stroke-opacity:1"
           d="M -554.32835,-286.43862 H -543.82835 V -266.43862 H -554.32835 Z"
           id="rect4138-2" />
      </g>
      <g
         id="g5249"
         style="stroke-width:0.2;stroke-miterlimit:4;stroke-dasharray:none">
        <text
           xml:space="preserve"
           style="font-style:normal;font-variant:normal;font-weight:normal;font-stretch:normal;font-size:10.58333302px;line-height:125%;font-family:'November Sky Demo';-inkscape-font-specification:'November Sky Demo';letter-spacing:4.20687485px;word-spacing:0px;fill:#000000;fill-opacity:1;stroke:none;stroke-width:0.2;stroke-linecap:butt;stroke-linejoin:miter;stroke-opacity:1;stroke-miterlimit:4;stroke-dasharray:none"
           x="-268.55856"
           y="487.45422"
           id="text4778-1"
           transform="rotate(90)"><tspan
             sodipodi:role="line"
             id="tspan4776-9"
             x="-268.55856"
             y="487.45422"
             style="font-style:normal;font-variant:normal;font-weight:normal;font-stretch:normal;font-family:Instruction;-inkscape-font-specification:Instruction;letter-spacing:1.32291663px;fill:none;stroke:#ff0000;stroke-width:0.2;stroke-miterlimit:4;stroke-dasharray:none">LEFT</tspan></text>
        <path
           inkscape:connector-curvature="0"
           id="polygon4986"
           d="M -499.45295,-222.93862 H -492.46795 V -226.11362 H -485.48295 V -222.93862 H -478.49795 V -226.11362 H -471.51295 V -222.93862 H -467.70405 V -286.43862 H -471.51295 V -283.26362 H -478.49795 V -286.43862 H -485.48295 V -283.26362 H -492.46795 V -286.43862 H -499.45295 V -278.50112 H -496.27795 V -270.56362 H -499.45295 V -264.21362 H -496.27795 V -257.86362 H -499.45295 V -251.51362 H -496.27795 V -245.16362 H -499.45295 V -238.81362 H -496.27795 V -230.87612 H -499.45295 Z"
           style="fill:none;stroke:#000000;stroke-width:0.2;stroke-miterlimit:4;stroke-dasharray:none" />
        <path
           inkscape:connector-curvature="0"
           style="display:inline;opacity:1;fill:none;fill-opacity:1;fill-rule:nonzero;stroke:#0000ff;stroke-width:0.2;stroke-linecap:butt;stroke-linejoin:round;stroke-miterlimit:4;stroke-dasharray:none;stroke-opacity:1"
           d="M -496.25295,-277.78862 V -267.28862 H -499.45295 V -277.78862 Z"
           id="rect4138-2-2" />
      </g>
    </g>
  </g>
  <g
     inkscape:groupmode="layer"
     id="layer6"
     inkscape:label="Right_Drawer"
     transform="translate(857.08704,288.12672)">
    <g
       id="g5197"
       style="stroke-width:0.2;stroke-miterlimit:4;stroke-dasharray:none">
      <g
         id="g5175"
         style="stroke-width:0.2;stroke-miterlimit:4;stroke-dasharray:none">
        <text
           xml:space="preserve"
           style="font-style:normal;font-variant:normal;font-weight:normal;font-stretch:normal;font-size:10.58333302px;line-height:125%;font-family:'November Sky Demo';-inkscape-font-specification:'November Sky Demo';letter-spacing:4.20687485px;word-spacing:0px;fill:#000000;fill-opacity:1;stroke:none;stroke-width:0.2;stroke-linecap:butt;stroke-linejoin:miter;stroke-opacity:1;stroke-miterlimit:4;stroke-dasharray:none"
           x="-182.6188"
           y="552.18665"
           id="text4778-5"
           transform="rotate(90)"><tspan
             sodipodi:role="line"
             id="tspan4776-95"
             x="-182.6188"
             y="552.18665"
             style="font-style:normal;font-variant:normal;font-weight:normal;font-stretch:normal;font-family:Instruction;-inkscape-font-specification:Instruction;letter-spacing:1.32291663px;fill:none;stroke:#ff0000;stroke-width:0.2;stroke-miterlimit:4;stroke-dasharray:none">RIGHT</tspan></text>
        <path
           inkscape:connector-curvature="0"
           id="polygon4986-0"
           d="M -564.18532,-133.23681 H -557.20032 V -136.41181 H -550.21532 V -133.23681 H -543.23032 V -136.41181 H -536.24532 V -133.23681 H -532.43642 V -196.73681 H -536.24532 V -193.56181 H -543.23032 V -196.73681 H -550.21532 V -193.56181 H -557.20032 V -196.73681 H -564.18532 V -188.79931 H -561.01032 V -180.86181 H -564.18532 V -174.51181 H -561.01032 V -168.16181 H -564.18532 V -161.81181 H -561.01032 V -155.46181 H -564.18532 V -149.11181 H -561.01032 V -141.17431 H -564.18532 Z"
           style="fill:none;stroke:#000000;stroke-width:0.2;stroke-miterlimit:4;stroke-dasharray:none" />
      </g>
      <g
         id="g5160"
         style="stroke-width:0.2;stroke-miterlimit:4;stroke-dasharray:none">
        <text
           xml:space="preserve"
           style="font-style:normal;font-variant:normal;font-weight:normal;font-stretch:normal;font-size:10.58333302px;line-height:125%;font-family:'November Sky Demo';-inkscape-font-specification:'November Sky Demo';letter-spacing:4.20687485px;word-spacing:0px;fill:#000000;fill-opacity:1;stroke:none;stroke-width:0.2;stroke-linecap:butt;stroke-linejoin:miter;stroke-opacity:1;stroke-miterlimit:4;stroke-dasharray:none"
           x="159.26912"
           y="-447.90225"
           id="text4778-5-8"
           transform="rotate(-90)"><tspan
             sodipodi:role="line"
             id="tspan4776-95-6"
             x="159.26912"
             y="-447.90225"
             style="font-style:normal;font-variant:normal;font-weight:normal;font-stretch:normal;font-family:Instruction;-inkscape-font-specification:Instruction;letter-spacing:1.32291663px;fill:none;stroke:#ff0000;stroke-width:0.2;stroke-miterlimit:4;stroke-dasharray:none">RIGHT</tspan></text>
        <path
           inkscape:connector-curvature="0"
           id="polygon4990-3"
           d="M -435.90435,-218.17612 H -442.88935 V -221.35112 H -449.87435 V -218.17612 H -456.85935 V -221.35112 H -463.84435 V -218.17612 H -467.65159 V -135.62612 H -463.84435 V -132.45112 H -456.85935 V -135.62612 H -449.87435 V -132.45112 H -442.88935 V -135.62612 H -435.90435 V -140.38862 H -439.07935 V -148.32612 H -435.90435 V -154.67612 H -439.07935 V -161.02612 H -435.90435 V -167.37612 H -439.07935 V -173.72612 H -435.90435 V -180.07612 H -439.07935 V -186.42612 H -435.90435 V -192.77612 H -439.07935 V -199.12612 H -435.90435 V -205.47612 H -439.07935 V -213.41362 H -435.90435 Z"
           style="fill:none;stroke:#000000;stroke-width:0.2;stroke-miterlimit:4;stroke-dasharray:none" />
      </g>
      <g
         id="g5155"
         style="stroke-width:0.2;stroke-miterlimit:4;stroke-dasharray:none">
        <text
           xml:space="preserve"
           style="font-style:normal;font-variant:normal;font-weight:normal;font-stretch:normal;font-size:10.58333302px;line-height:125%;font-family:'November Sky Demo';-inkscape-font-specification:'November Sky Demo';letter-spacing:4.20687485px;word-spacing:0px;fill:#000000;fill-opacity:1;stroke:none;stroke-width:0.2;stroke-linecap:butt;stroke-linejoin:miter;stroke-opacity:1;stroke-miterlimit:4;stroke-dasharray:none"
           x="-420.81393"
           y="-147.62538"
           id="text4778-5-86"><tspan
             sodipodi:role="line"
             id="tspan4776-95-1"
             x="-420.81393"
             y="-147.62538"
             style="font-style:normal;font-variant:normal;font-weight:normal;font-stretch:normal;font-family:Instruction;-inkscape-font-specification:Instruction;letter-spacing:1.32291663px;fill:none;stroke:#ff0000;stroke-width:0.2;stroke-miterlimit:4;stroke-dasharray:none">RIGHT</tspan></text>
        <path
           inkscape:connector-curvature="0"
           id="polygon4998-7"
           d="M -431.75695,-192.77612 H -426.99445 V -195.95112 H -419.05695 V -192.77612 H -412.70695 V -195.95112 H -406.35695 V -192.77612 H -400.00695 V -195.95112 H -393.65695 V -192.77612 H -387.30695 V -195.95112 H -379.36945 V -192.77612 H -374.60695 V -188.01362 H -371.43195 V -180.07612 H -374.60695 V -173.72612 H -371.43195 V -167.37612 H -374.60695 V -161.02612 H -371.43195 V -154.67612 H -374.60695 V -148.32612 H -371.43195 V -141.97612 H -374.60695 V -135.62612 H -371.43195 V -129.27612 H -374.60695 V -122.92612 H -371.43195 V -114.98862 H -374.60695 V -110.22612 H -379.36945 V -107.05112 H -387.30695 V -110.22612 H -393.65695 V -107.05112 H -400.00695 V -110.22612 H -406.35695 V -107.05112 H -412.70695 V -110.22612 H -419.05695 V -107.05112 H -426.99445 V -110.22612 H -431.75695 V -114.98862 H -434.93195 V -122.92612 H -431.75695 V -129.27612 H -434.93195 V -135.62612 H -431.75695 V -141.97612 H -434.93195 V -148.32612 H -431.75695 V -154.67612 H -434.93195 V -161.02612 H -431.75695 V -167.37612 H -434.93195 V -173.72612 H -431.75695 V -180.07612 H -434.93195 V -188.01362 H -431.75695 Z"
           style="fill:none;stroke:#000000;stroke-width:0.2;stroke-miterlimit:4;stroke-dasharray:none" />
      </g>
      <g
         id="g5170"
         style="stroke-width:0.2;stroke-miterlimit:4;stroke-dasharray:none">
        <text
           xml:space="preserve"
           style="font-style:normal;font-variant:normal;font-weight:normal;font-stretch:normal;font-size:10.58333302px;line-height:125%;font-family:'November Sky Demo';-inkscape-font-specification:'November Sky Demo';letter-spacing:4.20687485px;word-spacing:0px;fill:#000000;fill-opacity:1;stroke:none;stroke-width:0.2;stroke-linecap:butt;stroke-linejoin:miter;stroke-opacity:1;stroke-miterlimit:4;stroke-dasharray:none"
           x="147.35481"
           y="-512.66089"
           id="text4778-5-7"
           transform="rotate(-90)"><tspan
             sodipodi:role="line"
             id="tspan4776-95-8"
             x="147.35481"
             y="-512.66089"
             style="font-style:normal;font-variant:normal;font-weight:normal;font-stretch:normal;font-family:Instruction;-inkscape-font-specification:Instruction;letter-spacing:1.32291663px;fill:none;stroke:#ff0000;stroke-width:0.2;stroke-miterlimit:4;stroke-dasharray:none">RIGHT</tspan></text>
        <path
           inkscape:connector-curvature="0"
           style="fill:none;stroke:#000000;stroke-width:0.2;stroke-miterlimit:4;stroke-dasharray:none"
           d="M -532.41102,-133.23681 H -528.60213 V -136.41181 H -521.61713 V -133.23681 H -514.63213 V -136.41181 H -507.64713 V -133.23681 H -500.66212 V -141.17431 H -503.83712 V -149.11181 H -500.66212 V -155.46181 H -503.83712 V -161.81181 H -500.66212 V -168.16181 H -503.83712 V -174.51181 H -500.66212 V -180.86181 H -503.83712 V -188.79931 H -500.66212 V -196.73681 H -507.64713 V -193.56181 H -514.63213 V -196.73681 H -521.61713 V -193.56181 H -528.60213 V -196.73681 H -532.41102"
           id="polygon4986-4-2"
           sodipodi:nodetypes="cccccccccccccccccccccccccccccccccccc" />
      </g>
      <g
         id="g5165"
         style="stroke-width:0.2;stroke-miterlimit:4;stroke-dasharray:none">
        <text
           xml:space="preserve"
           style="font-style:normal;font-variant:normal;font-weight:normal;font-stretch:normal;font-size:10.58333302px;line-height:125%;font-family:'November Sky Demo';-inkscape-font-specification:'November Sky Demo';letter-spacing:4.20687485px;word-spacing:0px;fill:#000000;fill-opacity:1;stroke:none;stroke-width:0.2;stroke-linecap:butt;stroke-linejoin:miter;stroke-opacity:1;stroke-miterlimit:4;stroke-dasharray:none"
           x="-194.53313"
           y="487.40094"
           id="text4778-5-4"
           transform="rotate(90)"><tspan
             sodipodi:role="line"
             id="tspan4776-95-2"
             x="-194.53313"
             y="487.40094"
             style="font-style:normal;font-variant:normal;font-weight:normal;font-stretch:normal;font-family:Instruction;-inkscape-font-specification:Instruction;letter-spacing:1.32291663px;fill:none;stroke:#ff0000;stroke-width:0.2;stroke-miterlimit:4;stroke-dasharray:none">RIGHT</tspan></text>
        <path
           inkscape:connector-curvature="0"
           style="fill:none;stroke:#000000;stroke-width:0.2;stroke-miterlimit:4;stroke-dasharray:none"
           d="M -467.65159,-218.17612 H -471.45886 V -221.35112 H -478.44386 V -218.17612 H -485.42886 V -221.35112 H -492.41386 V -218.17612 H -499.39883 V -213.41362 H -496.22383 V -205.47612 H -499.39883 V -199.12612 H -496.22383 V -192.77612 H -499.39883 V -186.42612 H -496.22383 V -180.07612 H -499.39883 V -173.72612 H -496.22383 V -167.37612 H -499.39883 V -161.02612 H -496.22383 V -154.67612 H -499.39883 V -148.32612 H -496.22383 V -140.38862 H -499.39883 V -135.62612 H -492.41386 V -132.45112 H -485.42886 V -135.62612 H -478.44386 V -132.45112 H -471.45886 V -135.62612 H -467.65159 Z"
           id="polygon4990-2-4"
           sodipodi:nodetypes="ccccccccccccccccccccccccccccccccccccccccccccc" />
      </g>
    </g>
  </g>
  <g
     inkscape:groupmode="layer"
     id="layer7"
     inkscape:label="Center_Drawer"
     transform="translate(857.08704,288.12672)">
    <g
       id="g5135"
       transform="translate(0,6.3500003)"
       style="stroke-width:0.2;stroke-miterlimit:4;stroke-dasharray:none">
      <g
         id="g5092"
         style="stroke-width:0.2;stroke-miterlimit:4;stroke-dasharray:none">
        <text
           xml:space="preserve"
           style="font-style:normal;font-variant:normal;font-weight:normal;font-stretch:normal;font-size:10.58333302px;line-height:125%;font-family:'November Sky Demo';-inkscape-font-specification:'November Sky Demo';letter-spacing:4.20687485px;word-spacing:0px;fill:#000000;fill-opacity:1;stroke:none;stroke-width:0.2;stroke-linecap:butt;stroke-linejoin:miter;stroke-opacity:1;stroke-miterlimit:4;stroke-dasharray:none"
           x="36.919838"
           y="-502.07428"
           id="text4778-5-42-23"
           transform="rotate(-90,22.337691,0.55598643)"><tspan
             sodipodi:role="line"
             id="tspan4776-95-4-2"
             x="36.919838"
             y="-502.07428"
             style="font-style:normal;font-variant:normal;font-weight:normal;font-stretch:normal;font-family:Instruction;-inkscape-font-specification:Instruction;letter-spacing:1.32291663px;fill:none;stroke:#ff0000;stroke-width:0.2;stroke-miterlimit:4;stroke-dasharray:none">CENTER</tspan></text>
        <path
           inkscape:connector-curvature="0"
           id="polygon4901"
           d="M -468.29497,18.554799 H -475.27997 V 15.379799 H -482.26497 V 18.554799 H -489.24997 V 15.379799 H -496.23497 V 18.554799 H -500.04166 V -89.395205 H -496.23497 V -86.220205 H -489.24997 V -89.395205 H -482.26497 V -86.220205 H -475.27997 V -89.395205 H -468.29497 V -79.870205 H -471.46997 V -70.345205 H -468.29497 V -63.995204 H -471.46997 V -57.645203 H -468.29497 V -51.295203 H -471.46997 V -44.945203 H -468.29497 V -38.595203 H -471.46997 V -32.245203 H -468.29497 V -25.895203 H -471.46997 V -19.545202 H -468.29497 V -13.195202 H -471.46997 V -6.8452021 H -468.29497 V -0.4952019 H -471.46997 V 9.0297984 H -468.29497 Z"
           style="fill:none;stroke:#000000;stroke-width:0.2;stroke-miterlimit:4;stroke-dasharray:none" />
      </g>
      <g
         id="g5085"
         style="stroke-width:0.2;stroke-miterlimit:4;stroke-dasharray:none">
        <text
           transform="translate(21.781705,22.893678)"
           xml:space="preserve"
           style="font-style:normal;font-variant:normal;font-weight:normal;font-stretch:normal;font-size:10.58333302px;line-height:125%;font-family:'November Sky Demo';-inkscape-font-specification:'November Sky Demo';letter-spacing:4.20687485px;word-spacing:0px;fill:#000000;fill-opacity:1;stroke:none;stroke-width:0.2;stroke-linecap:butt;stroke-linejoin:miter;stroke-opacity:1;stroke-miterlimit:4;stroke-dasharray:none"
           x="-457.47031"
           y="-54.438148"
           id="text4778-5-42-33"><tspan
             sodipodi:role="line"
             id="tspan4776-95-4-5"
             x="-457.47031"
             y="-54.438148"
             style="font-style:normal;font-variant:normal;font-weight:normal;font-stretch:normal;font-family:Instruction;-inkscape-font-specification:Instruction;letter-spacing:1.32291663px;fill:none;stroke:#ff0000;stroke-width:0.2;stroke-miterlimit:4;stroke-dasharray:none">CENTER</tspan></text>
        <path
           inkscape:connector-curvature="0"
           id="polygon4913"
           d="M -363.49457,-86.220205 H -369.84457 V -89.395205 H -379.36957 V -86.220205 H -385.71957 V -89.395205 H -392.06957 V -86.220205 H -398.41957 V -89.395205 H -404.76957 V -86.220205 H -411.11957 V -89.395205 H -417.46957 V -86.220205 H -423.81957 V -89.395205 H -430.16957 V -86.220205 H -436.51957 V -89.395205 H -442.86957 V -86.220205 H -449.21957 V -89.395205 H -458.74457 V -86.220205 H -465.09457 V -79.870204 H -468.26957 V -70.345204 H -465.09457 V -63.995204 H -468.26957 V -57.645203 H -465.09457 V -51.295203 H -468.26957 V -44.945203 H -465.09457 V -38.595203 H -468.26957 V -32.245203 H -465.09457 V -25.895203 H -468.26957 V -19.545202 H -465.09457 V -13.195202 H -468.26957 V -6.8452021 H -465.09457 V -0.4952019 H -468.26957 V 9.0297984 H -465.09457 V 15.379799 H -458.74457 V 18.554799 H -449.21957 V 15.379799 H -442.86957 V 18.554799 H -436.51957 V 15.379799 H -430.16957 V 18.554799 H -423.81957 V 15.379799 H -417.46957 V 18.554799 H -411.11957 V 15.379799 H -404.76957 V 18.554799 H -398.41957 V 15.379799 H -392.06957 V 18.554799 H -385.71957 V 15.379799 H -379.36957 V 18.554799 H -369.84457 V 15.379799 H -363.49457 V 9.0297984 H -360.31957 V -0.4952019 H -363.49457 V -6.8452021 H -360.31957 V -13.195202 H -363.49457 V -19.545202 H -360.31957 V -25.895203 H -363.49457 V -32.245203 H -360.31957 V -38.595203 H -363.49457 V -44.945203 H -360.31957 V -51.295203 H -363.49457 V -57.645203 H -360.31957 V -63.995204 H -363.49457 V -70.345204 H -360.31957 V -79.870204 H -363.49457 Z"
           style="fill:none;stroke:#000000;stroke-width:0.2;stroke-miterlimit:4;stroke-dasharray:none" />
      </g>
      <g
         id="g5099"
         style="stroke-width:0.2;stroke-miterlimit:4;stroke-dasharray:none">
        <text
           xml:space="preserve"
           style="font-style:normal;font-variant:normal;font-weight:normal;font-stretch:normal;font-size:10.58333302px;line-height:125%;font-family:'November Sky Demo';-inkscape-font-specification:'November Sky Demo';letter-spacing:4.20687485px;word-spacing:0px;fill:#000000;fill-opacity:1;stroke:none;stroke-width:0.2;stroke-linecap:butt;stroke-linejoin:miter;stroke-opacity:1;stroke-miterlimit:4;stroke-dasharray:none"
           x="-79.707924"
           y="541.59784"
           id="text4778-5-42-2"
           transform="rotate(90,-0.55598667,22.337691)"><tspan
             sodipodi:role="line"
             id="tspan4776-95-4-7"
             x="-79.707924"
             y="541.59784"
             style="font-style:normal;font-variant:normal;font-weight:normal;font-stretch:normal;font-family:Instruction;-inkscape-font-specification:Instruction;letter-spacing:1.32291663px;fill:none;stroke:#ff0000;stroke-width:0.2;stroke-miterlimit:4;stroke-dasharray:none">CENTER</tspan></text>
        <path
           sodipodi:nodetypes="cccccccccccccccccccccccccccccccccccccccccccccccc"
           inkscape:connector-curvature="0"
           id="polygon4901-4"
           d="M -500.06707,18.554801 H -503.87376 V 15.379801 H -510.85876 V 18.554801 H -517.84377 V 15.379801 H -524.82877 V 18.554801 H -531.81377 V 9.0298012 H -528.63877 V -0.49519908 H -531.81377 V -6.8451993 H -528.63877 V -13.195199 H -531.81377 V -19.5452 H -528.63877 V -25.8952 H -531.81377 V -32.2452 H -528.63877 V -38.5952 H -531.81377 V -44.9452 H -528.63877 V -51.2952 H -531.81377 V -57.645201 H -528.63877 V -63.995201 H -531.81377 V -70.345202 H -528.63877 V -79.870202 H -531.81377 V -89.395203 H -524.82877 V -86.220203 H -517.84377 V -89.395203 H -510.85876 V -86.220203 H -503.87376 V -89.395203 H -500.06707"
           style="fill:none;stroke:#000000;stroke-width:0.2;stroke-miterlimit:4;stroke-dasharray:none" />
      </g>
      <g
         id="g5106"
         style="stroke-width:0.2;stroke-miterlimit:4;stroke-dasharray:none">
        <text
           xml:space="preserve"
           style="font-style:normal;font-variant:normal;font-weight:normal;font-stretch:normal;font-size:10.58333302px;line-height:125%;font-family:'November Sky Demo';-inkscape-font-specification:'November Sky Demo';letter-spacing:4.20687485px;word-spacing:0px;fill:#000000;fill-opacity:1;stroke:none;stroke-width:0.2;stroke-linecap:butt;stroke-linejoin:miter;stroke-opacity:1;stroke-miterlimit:4;stroke-dasharray:none"
           x="36.919838"
           y="-565.59253"
           id="text4778-5-42"
           transform="rotate(-90,22.337691,0.55598643)"><tspan
             sodipodi:role="line"
             id="tspan4776-95-4"
             x="36.919838"
             y="-565.59253"
             style="font-style:normal;font-variant:normal;font-weight:normal;font-stretch:normal;font-family:Instruction;-inkscape-font-specification:Instruction;letter-spacing:1.32291663px;fill:none;stroke:#ff0000;stroke-width:0.2;stroke-miterlimit:4;stroke-dasharray:none">CENTER</tspan></text>
        <path
           inkscape:connector-curvature="0"
           id="polygon4905"
           d="M -531.81377,15.379799 H -538.79877 V 18.554799 H -545.78377 V 15.379799 H -552.76877 V 18.554799 H -559.75377 V 15.379799 H -563.55936 V -86.220204 H -559.75377 V -89.395204 H -552.76877 V -86.220204 H -545.78377 V -89.395204 H -538.79877 V -86.220204 H -531.81377 V -79.870204 H -534.98877 V -70.345204 H -531.81377 V -63.995204 H -534.98877 V -57.645203 H -531.81377 V -51.2952 H -534.98877 V -44.9452 H -531.81377 V -38.5952 H -534.98877 V -32.2452 H -531.81377 V -25.8952 H -534.98877 V -19.5452 H -531.81377 V -13.195199 H -534.98877 V -6.8451993 H -531.81377 V -0.4952019 H -534.98877 V 9.0297984 H -531.81377 Z"
           style="fill:none;stroke:#000000;stroke-width:0.2;stroke-miterlimit:4;stroke-dasharray:none" />
      </g>
      <g
         id="g5113"
         style="stroke-width:0.2;stroke-miterlimit:4;stroke-dasharray:none">
        <text
           transform="translate(21.781705,22.893678)"
           xml:space="preserve"
           style="font-style:normal;font-variant:normal;font-weight:normal;font-stretch:normal;font-size:10.58333302px;line-height:125%;font-family:'November Sky Demo';-inkscape-font-specification:'November Sky Demo';letter-spacing:4.20687485px;word-spacing:0px;fill:#000000;fill-opacity:1;stroke:none;stroke-width:0.2;stroke-linecap:butt;stroke-linejoin:miter;stroke-opacity:1;stroke-miterlimit:4;stroke-dasharray:none"
           x="-552.00519"
           y="-129.4155"
           id="text4778-5-42-3"><tspan
             sodipodi:role="line"
             id="tspan4776-95-4-6"
             x="-552.00519"
             y="-129.4155"
             style="font-style:normal;font-variant:normal;font-weight:normal;font-stretch:normal;font-family:Instruction;-inkscape-font-specification:Instruction;letter-spacing:1.32291663px;fill:none;stroke:#ff0000;stroke-width:0.2;stroke-miterlimit:4;stroke-dasharray:none">CENTER</tspan></text>
        <path
           inkscape:connector-curvature="0"
           id="polygon4905-0"
           d="M -458.02947,-126.27035 V -122.46476 H -454.85447 V -115.47976 H -458.02947 V -108.49476 H -454.85447 V -101.50976 H -458.02947 V -94.52476 H -464.37947 V -97.69976 H -473.90447 V -94.52476 H -480.25447 V -97.69976 H -486.60447 V -94.52476 H -492.95447 V -97.69976 H -499.30447 V -94.52476 H -505.65447 V -97.69976 H -512.00446 V -94.52476 H -518.35446 V -97.69976 H -524.70446 V -94.52476 H -531.05446 V -97.69976 H -537.40446 V -94.52476 H -543.75446 V -97.69976 H -553.27946 V -94.52476 H -559.62946 V -101.50976 H -562.80446 V -108.49476 H -559.62946 V -115.47976 H -562.80446 V -122.46476 H -559.62946 V -126.27035 Z"
           style="fill:none;stroke:#000000;stroke-width:0.2;stroke-miterlimit:4;stroke-dasharray:none"
           sodipodi:nodetypes="ccccccccccccccccccccccccccccccccccccccccccccccccc" />
      </g>
    </g>
  </g>
</svg>
