<?xml version="1.0" encoding="UTF-8" standalone="no"?>
<svg
   xmlns:dc="http://purl.org/dc/elements/1.1/"
   xmlns:cc="http://creativecommons.org/ns#"
   xmlns:rdf="http://www.w3.org/1999/02/22-rdf-syntax-ns#"
   xmlns:svg="http://www.w3.org/2000/svg"
   xmlns="http://www.w3.org/2000/svg"
   xmlns:sodipodi="http://sodipodi.sourceforge.net/DTD/sodipodi-0.dtd"
   xmlns:inkscape="http://www.inkscape.org/namespaces/inkscape"
   version="1.1"
   width="247.06157mm"
   height="119.9754mm"
   viewBox="0 0 875.41499 425.1097"
   id="svg4893"
   inkscape:version="0.92.1 r15371"
   sodipodi:docname="square_drawer.svg">
  <metadata
     id="metadata4923">
    <rdf:RDF>
      <cc:Work
         rdf:about="">
        <dc:format>image/svg+xml</dc:format>
        <dc:type
           rdf:resource="http://purl.org/dc/dcmitype/StillImage" />
        <dc:title />
      </cc:Work>
    </rdf:RDF>
  </metadata>
  <defs
     id="defs4921" />
  <sodipodi:namedview
     pagecolor="#ffffff"
     bordercolor="#666666"
     borderopacity="1"
     objecttolerance="10"
     gridtolerance="10"
     guidetolerance="10"
     inkscape:pageopacity="0"
     inkscape:pageshadow="2"
     inkscape:window-width="1680"
     inkscape:window-height="997"
     id="namedview4919"
     showgrid="false"
     inkscape:document-units="mm"
     fit-margin-top="6"
     fit-margin-left="6"
     fit-margin-right="6"
     fit-margin-bottom="6"
     units="mm"
     inkscape:zoom="1.2234801"
     inkscape:cx="303.10043"
     inkscape:cy="201.47595"
     inkscape:window-x="-8"
     inkscape:window-y="-8"
     inkscape:window-maximized="1"
     inkscape:current-layer="layer1" />
  <!-- Front-->
  <!-- Back-->
  <!-- Left-->
  <!-- Right-->
  <!-- Top-->
  <!-- Bottom-->
  <g
     inkscape:groupmode="layer"
     id="layer1"
     inkscape:label="Cut">
    <path
       inkscape:connector-curvature="0"
       id="polygon4901"
       d="m 403.89478,403.80484 h 24.75 l 0,-11.25 h 24.75 v 11.25 h 24.75 v -11.25 h 24.75 v 11.25 h 13.48828 v -382.5 h -13.48828 v 11.25 h -24.75 v -11.25 h -24.75 v 11.25 h -24.75 v -11.25 h -24.75 v 33.75 h 11.25 v 33.75 h -11.25 v 22.5 h 11.25 v 22.5 h -11.25 v 22.5 h 11.25 v 22.5 h -11.25 v 22.5 h 11.25 v 22.5 h -11.25 v 22.5 h 11.25 v 22.5 h -11.25 v 22.5 h 11.25 v 22.5 h -11.25 v 22.5 h 11.25 v 33.75 h -11.25 z"
       style="fill:none;stroke:#000000;stroke-width:0.70866141;stroke-miterlimit:4;stroke-dasharray:none" />
    <path
       inkscape:connector-curvature="0"
       id="polygon4913"
       d="m 32.554781,32.554843 h 22.5 v -11.25 h 33.75 v 11.25 h 22.499999 v -11.25 h 22.5 v 11.25 h 22.5 v -11.25 h 22.5 v 11.25 h 22.5 v -11.25 h 22.5 v 11.25 h 22.5 v -11.25 h 22.5 v 11.25 h 22.5 v -11.25 h 22.5 v 11.25 h 22.5 v -11.25 h 33.75 v 11.25 h 22.5 v 22.5 h 11.25 v 33.75 h -11.25 v 22.499997 h 11.25 v 22.5 h -11.25 v 22.5 h 11.25 v 22.5 h -11.25 v 22.5 h 11.25 v 22.5 h -11.25 v 22.5 h 11.25 v 22.5 h -11.25 v 22.5 h 11.25 v 22.5 h -11.25 v 22.5 h 11.25 v 33.75 h -11.25 v 22.5 h -22.5 v 11.25 h -33.75 v -11.25 h -22.5 v 11.25 h -22.5 v -11.25 h -22.5 v 11.25 h -22.5 v -11.25 h -22.5 v 11.25 h -22.5 v -11.25 h -22.5 v 11.25 h -22.5 v -11.25 h -22.5 v 11.25 h -22.5 v -11.25 H 88.804781 v 11.25 h -33.75 v -11.25 h -22.5 v -22.5 h -11.25 v -33.75 h 11.25 v -22.5 h -11.25 v -22.5 h 11.25 v -22.5 h -11.25 v -22.5 h 11.25 v -22.5 h -11.25 v -22.5 h 11.25 v -22.5 h -11.25 v -22.5 h 11.25 v -22.5 h -11.25 v -22.5 h 11.25 V 88.804843 h -11.25 v -33.75 h 11.25 z"
       style="fill:none;stroke:#000000;stroke-width:0.70866141;stroke-miterlimit:4;stroke-dasharray:none" />
    <path
       sodipodi:nodetypes="cccccccccccccccccccccccccccccccccccccccccccccccc"
       inkscape:connector-curvature="0"
       id="polygon4901-4"
       d="m 516.47309,403.80485 h 13.48828 v -11.25 h 24.75 v 11.25 h 24.75 v -11.25 h 24.75 v 11.25 h 24.75 v -33.75 h -11.25 v -33.75 h 11.25 v -22.5 h -11.25 v -22.5 h 11.25 v -22.5 h -11.25 v -22.5 h 11.25 v -22.5 h -11.25 v -22.5 h 11.25 v -22.5 h -11.25 v -22.5 h 11.25 v -22.5 h -11.25 v -22.5 h 11.25 v -22.5 h -11.25 v -33.75 h 11.25 v -33.75 h -24.75 v 11.25 h -24.75 v -11.25 h -24.75 v 11.25 h -24.75 v -11.25 h -13.48828"
       style="fill:none;stroke:#000000;stroke-width:0.70866141;stroke-miterlimit:4;stroke-dasharray:none" />
    <path
       inkscape:connector-curvature="0"
       id="polygon4905"
       d="M 629.05134,392.55484 H 653.80134 V 403.80484 H 678.55134 V 392.55484 H 703.30134 V 403.80484 H 728.05134 V 392.55484 H 741.53572 V 32.55484 H 728.05134 V 21.30484 H 703.30134 V 32.55484 H 678.55134 V 21.30484 H 653.80134 V 32.55484 H 629.05134 V 55.05484 H 640.30134 V 88.80484 H 629.05134 V 111.30484 H 640.30134 V 133.80484 H 629.05134 V 156.30484 H 640.30134 V 178.80484 H 629.05134 V 201.30484 H 640.30134 L 640.30134,223.80484 H 629.05134 L 629.05134,246.30484 H 640.30134 V 268.80484 H 629.05134 V 291.30484 H 640.30134 V 313.80484 H 629.05134 V 336.30484 H 640.30134 V 370.05484 H 629.05134 Z"
       style="fill:none;stroke:#000000;stroke-width:0.70866144;stroke-miterlimit:4;stroke-dasharray:none" />
    <path
       inkscape:connector-curvature="0"
       id="polygon4905-0"
       d="M 741.62576,392.55484 H 755.11014 V 403.80484 H 779.86014 V 392.55484 H 804.61014 V 403.80484 H 829.36014 V 392.55484 H 854.11014 V 370.05484 H 842.86014 V 336.30484 H 854.11014 V 313.80484 H 842.86014 V 291.30484 H 854.11014 V 268.80484 H 842.86014 V 246.30484 H 854.11014 V 223.80484 H 842.86014 L 842.86014,201.30484 H 854.11014 L 854.11014,178.80484 H 842.86014 V 156.30484 H 854.11014 V 133.80484 H 842.86014 V 111.30484 H 854.11014 V 88.80484 H 842.86014 V 55.05484 H 854.11014 V 32.55484 H 829.36014 V 21.30484 H 804.61014 V 32.55484 H 779.86014 V 21.30484 H 755.11014 V 32.55484 H 741.62576"
       style="fill:none;stroke:#000000;stroke-width:0.70866144;stroke-miterlimit:4;stroke-dasharray:none"
       sodipodi:nodetypes="cccccccccccccccccccccccccccccccccccccccccccccccc" />
  </g>
</svg>
