  999
DXF file created by gear template generator.  2017-01-27T23:22:53
  0
SECTION
  2
ENTITIES
 0
LWPOLYLINE
 8
a
 90
780
 70
1
 10
3.32557
 20
1.87937
 10
3.33041
 20
1.8793
 10
3.33527
 20
1.87909
 10
3.34013
 20
1.87876
 10
3.345
 20
1.87833
 10
3.35476
 20
1.87721
 10
3.36454
 20
1.87578
 10
3.38415
 20
1.87211
 10
3.40381
 20
1.86751
 10
3.42349
 20
1.86206
 10
3.44319
 20
1.85583
 10
3.4629
 20
1.84887
 10
3.4826
 20
1.84121
 10
3.50229
 20
1.83287
 10
3.52195
 20
1.8239
 10
3.52195
 20
1.69916
 10
3.50229
 20
1.69018
 10
3.4826
 20
1.68185
 10
3.4629
 20
1.67419
 10
3.44319
 20
1.66723
 10
3.42349
 20
1.661
 10
3.40381
 20
1.65555
 10
3.38415
 20
1.65094
 10
3.36454
 20
1.64728
 10
3.35476
 20
1.64585
 10
3.345
 20
1.64473
 10
3.34013
 20
1.6443
 10
3.33527
 20
1.64397
 10
3.33041
 20
1.64375
 10
3.32557
 20
1.64368
 10
3.30832
 20
1.50165
 10
3.31301
 20
1.50042
 10
3.31767
 20
1.49905
 10
3.32232
 20
1.49757
 10
3.32694
 20
1.49598
 10
3.33615
 20
1.49256
 10
3.34531
 20
1.48883
 10
3.36347
 20
1.48058
 10
3.38145
 20
1.4714
 10
3.39925
 20
1.4614
 10
3.41689
 20
1.45064
 10
3.43436
 20
1.43916
 10
3.45166
 20
1.42701
 10
3.46878
 20
1.41421
 10
3.48572
 20
1.40079
 10
3.45587
 20
1.27967
 10
3.43463
 20
1.27566
 10
3.41352
 20
1.27228
 10
3.39256
 20
1.26956
 10
3.37176
 20
1.26752
 10
3.35114
 20
1.26618
 10
3.33072
 20
1.2656
 10
3.31054
 20
1.26584
 10
3.29062
 20
1.26697
 10
3.28078
 20
1.26792
 10
3.27104
 20
1.26917
 10
3.26621
 20
1.26992
 10
3.2614
 20
1.27076
 10
3.25664
 20
1.27172
 10
3.25192
 20
1.27281
 10
3.20118
 20
1.13903
 10
3.20544
 20
1.13672
 10
3.20964
 20
1.13427
 10
3.21379
 20
1.13172
 10
3.21791
 20
1.12907
 10
3.22603
 20
1.12354
 10
3.23402
 20
1.11773
 10
3.24968
 20
1.10537
 10
3.26494
 20
1.09216
 10
3.27984
 20
1.07819
 10
3.29439
 20
1.06352
 10
3.3086
 20
1.0482
 10
3.32249
 20
1.03226
 10
3.33605
 20
1.01573
 10
3.34929
 20
0.99864
 10
3.29132
 20
0.88819
 10
3.26974
 20
0.88938
 10
3.24843
 20
0.89115
 10
3.22743
 20
0.89353
 10
3.20674
 20
0.89652
 10
3.1864
 20
0.90016
 10
3.16644
 20
0.90448
 10
3.1469
 20
0.90954
 10
3.12784
 20
0.91541
 10
3.11851
 20
0.91868
 10
3.10935
 20
0.92223
 10
3.10483
 20
0.92411
 10
3.10037
 20
0.92608
 10
3.09597
 20
0.92815
 10
3.09165
 20
0.93034
 10
3.01037
 20
0.81258
 10
3.01395
 20
0.80932
 10
3.01745
 20
0.80594
 10
3.02087
 20
0.80247
 10
3.02423
 20
0.79892
 10
3.03079
 20
0.7916
 10
3.03716
 20
0.78405
 10
3.04941
 20
0.7683
 10
3.06107
 20
0.75182
 10
3.07219
 20
0.73469
 10
3.0828
 20
0.71696
 10
3.09294
 20
0.69868
 10
3.10261
 20
0.67988
 10
3.11182
 20
0.66059
 10
3.12058
 20
0.64083
 10
3.03787
 20
0.54747
 10
3.01719
 20
0.55379
 10
2.99693
 20
0.5606
 10
2.97711
 20
0.56794
 10
2.95774
 20
0.57579
 10
2.93886
 20
0.58419
 10
2.92051
 20
0.59317
 10
2.90275
 20
0.60275
 10
2.88564
 20
0.61301
 10
2.87737
 20
0.61843
 10
2.86932
 20
0.62406
 10
2.86539
 20
0.62697
 10
2.86153
 20
0.62995
 10
2.85775
 20
0.63301
 10
2.85408
 20
0.63617
 10
2.74699
 20
0.54129
 10
2.74968
 20
0.53726
 10
2.75227
 20
0.53315
 10
2.75476
 20
0.52896
 10
2.75717
 20
0.5247
 10
2.76179
 20
0.51603
 10
2.76617
 20
0.50717
 10
2.77429
 20
0.48895
 10
2.78167
 20
0.47016
 10
2.78836
 20
0.45087
 10
2.79443
 20
0.43111
 10
2.79989
 20
0.41094
 10
2.80478
 20
0.39037
 10
2.80911
 20
0.36944
 10
2.81289
 20
0.34816
 10
2.71023
 20
0.2773
 10
2.69167
 20
0.28838
 10
2.67363
 20
0.29985
 10
2.65614
 20
0.31171
 10
2.63921
 20
0.32398
 10
2.62289
 20
0.33665
 10
2.60723
 20
0.34976
 10
2.59227
 20
0.36331
 10
2.57812
 20
0.37737
 10
2.57139
 20
0.38461
 10
2.56492
 20
0.392
 10
2.5618
 20
0.39577
 10
2.55876
 20
0.39958
 10
2.55583
 20
0.40346
 10
2.55302
 20
0.40741
 10
2.42633
 20
0.34091
 10
2.42798
 20
0.33636
 10
2.42951
 20
0.33174
 10
2.43092
 20
0.32708
 10
2.43225
 20
0.32237
 10
2.43466
 20
0.31285
 10
2.43679
 20
0.30319
 10
2.44032
 20
0.28356
 10
2.44298
 20
0.26355
 10
2.44486
 20
0.24321
 10
2.44603
 20
0.22258
 10
2.44651
 20
0.20169
 10
2.44633
 20
0.18055
 10
2.44552
 20
0.15919
 10
2.4441
 20
0.13762
 10
2.32747
 20
0.09339
 10
2.3121
 20
0.10859
 10
2.29733
 20
0.12404
 10
2.28318
 20
0.13975
 10
2.26968
 20
0.15571
 10
2.25687
 20
0.17192
 10
2.24479
 20
0.18839
 10
2.23352
 20
0.20513
 10
2.22314
 20
0.22217
 10
2.21834
 20
0.2308
 10
2.21382
 20
0.23953
 10
2.21169
 20
0.24394
 10
2.20966
 20
0.24837
 10
2.20774
 20
0.25283
 10
2.20596
 20
0.25734
 10
2.06704
 20
0.2231
 10
2.06755
 20
0.21828
 10
2.06793
 20
0.21343
 10
2.06818
 20
0.20856
 10
2.06834
 20
0.20368
 10
2.06841
 20
0.19385
 10
2.06816
 20
0.18397
 10
2.06689
 20
0.16406
 10
2.06469
 20
0.144
 10
2.06165
 20
0.1238
 10
2.05784
 20
0.10349
 10
2.05331
 20
0.08309
 10
2.04808
 20
0.06261
 10
2.04218
 20
0.04206
 10
2.03564
 20
0.02146
 10
1.91181
 20
0.00642
 10
1.90053
 20
0.02486
 10
1.88988
 20
0.0434
 10
1.8799
 20
0.06203
 10
1.87062
 20
0.08076
 10
1.86206
 20
0.09957
 10
1.85428
 20
0.11845
 10
1.84734
 20
0.1374
 10
1.84134
 20
0.15643
 10
1.83874
 20
0.16596
 10
1.83644
 20
0.17552
 10
1.83543
 20
0.1803
 10
1.83452
 20
0.18509
 10
1.83372
 20
0.18989
 10
1.83307
 20
0.19469
 10
1.68999
 20
0.19469
 10
1.68934
 20
0.18989
 10
1.68854
 20
0.18509
 10
1.68763
 20
0.1803
 10
1.68661
 20
0.17552
 10
1.68432
 20
0.16596
 10
1.68172
 20
0.15643
 10
1.67572
 20
0.1374
 10
1.66878
 20
0.11845
 10
1.661
 20
0.09957
 10
1.65244
 20
0.08076
 10
1.64315
 20
0.06203
 10
1.63317
 20
0.0434
 10
1.62253
 20
0.02486
 10
1.61125
 20
0.00642
 10
1.48742
 20
0.02146
 10
1.48087
 20
0.04206
 10
1.47498
 20
0.06261
 10
1.46975
 20
0.08309
 10
1.46521
 20
0.10349
 10
1.4614
 20
0.1238
 10
1.45837
 20
0.144
 10
1.45616
 20
0.16406
 10
1.45489
 20
0.18397
 10
1.45465
 20
0.19385
 10
1.45471
 20
0.20368
 10
1.45487
 20
0.20856
 10
1.45513
 20
0.21343
 10
1.4555
 20
0.21828
 10
1.45602
 20
0.2231
 10
1.3171
 20
0.25734
 10
1.31532
 20
0.25283
 10
1.31339
 20
0.24837
 10
1.31136
 20
0.24394
 10
1.30923
 20
0.23953
 10
1.30472
 20
0.2308
 10
1.29991
 20
0.22217
 10
1.28953
 20
0.20513
 10
1.27826
 20
0.18839
 10
1.26618
 20
0.17192
 10
1.25337
 20
0.15571
 10
1.23988
 20
0.13975
 10
1.22573
 20
0.12404
 10
1.21096
 20
0.10859
 10
1.19559
 20
0.09339
 10
1.07896
 20
0.13762
 10
1.07753
 20
0.15919
 10
1.07673
 20
0.18055
 10
1.07655
 20
0.20169
 10
1.07703
 20
0.22258
 10
1.07819
 20
0.24321
 10
1.08007
 20
0.26355
 10
1.08274
 20
0.28356
 10
1.08627
 20
0.30319
 10
1.0884
 20
0.31285
 10
1.09081
 20
0.32237
 10
1.09213
 20
0.32708
 10
1.09355
 20
0.33174
 10
1.09507
 20
0.33636
 10
1.09673
 20
0.34091
 10
0.97003
 20
0.40741
 10
0.96723
 20
0.40346
 10
0.96429
 20
0.39958
 10
0.96126
 20
0.39577
 10
0.95814
 20
0.392
 10
0.95167
 20
0.38461
 10
0.94493
 20
0.37737
 10
0.93078
 20
0.36331
 10
0.91583
 20
0.34976
 10
0.90016
 20
0.33665
 10
0.88384
 20
0.32398
 10
0.86692
 20
0.31171
 10
0.84942
 20
0.29985
 10
0.83138
 20
0.28838
 10
0.81282
 20
0.2773
 10
0.71017
 20
0.34816
 10
0.71395
 20
0.36944
 10
0.71827
 20
0.39037
 10
0.72316
 20
0.41094
 10
0.72863
 20
0.43111
 10
0.73469
 20
0.45087
 10
0.74139
 20
0.47016
 10
0.74876
 20
0.48895
 10
0.75689
 20
0.50717
 10
0.76126
 20
0.51603
 10
0.76588
 20
0.5247
 10
0.7683
 20
0.52896
 10
0.77079
 20
0.53315
 10
0.77337
 20
0.53726
 10
0.77607
 20
0.54129
 10
0.66897
 20
0.63617
 10
0.6653
 20
0.63301
 10
0.66152
 20
0.62995
 10
0.65766
 20
0.62697
 10
0.65373
 20
0.62406
 10
0.64568
 20
0.61843
 10
0.63741
 20
0.61301
 10
0.62031
 20
0.60275
 10
0.60254
 20
0.59317
 10
0.58419
 20
0.58419
 10
0.56532
 20
0.57579
 10
0.54595
 20
0.56794
 10
0.52612
 20
0.5606
 10
0.50586
 20
0.55379
 10
0.48519
 20
0.54747
 10
0.40247
 20
0.64083
 10
0.41124
 20
0.66059
 10
0.42045
 20
0.67988
 10
0.43012
 20
0.69868
 10
0.44025
 20
0.71696
 10
0.45087
 20
0.73469
 10
0.46199
 20
0.75182
 10
0.47364
 20
0.7683
 10
0.48589
 20
0.78405
 10
0.49226
 20
0.7916
 10
0.49882
 20
0.79892
 10
0.50219
 20
0.80247
 10
0.50561
 20
0.80594
 10
0.5091
 20
0.80932
 10
0.51268
 20
0.81258
 10
0.4314
 20
0.93034
 10
0.42708
 20
0.92815
 10
0.42268
 20
0.92608
 10
0.41822
 20
0.92411
 10
0.41371
 20
0.92223
 10
0.40455
 20
0.91868
 10
0.39522
 20
0.91541
 10
0.37616
 20
0.90954
 10
0.35661
 20
0.90448
 10
0.33665
 20
0.90016
 10
0.31631
 20
0.89652
 10
0.29563
 20
0.89353
 10
0.27462
 20
0.89115
 10
0.25332
 20
0.88938
 10
0.23173
 20
0.88819
 10
0.17377
 20
0.99864
 10
0.187
 20
1.01573
 10
0.20056
 20
1.03226
 10
0.21445
 20
1.0482
 10
0.22866
 20
1.06352
 10
0.24321
 20
1.07819
 10
0.25811
 20
1.09216
 10
0.27337
 20
1.10537
 10
0.28903
 20
1.11773
 10
0.29703
 20
1.12354
 10
0.30515
 20
1.12907
 10
0.30926
 20
1.13172
 10
0.31342
 20
1.13427
 10
0.31762
 20
1.13672
 10
0.32188
 20
1.13903
 10
0.27114
 20
1.27281
 10
0.26642
 20
1.27172
 10
0.26165
 20
1.27076
 10
0.25685
 20
1.26992
 10
0.25202
 20
1.26917
 10
0.24227
 20
1.26792
 10
0.23243
 20
1.26697
 10
0.21252
 20
1.26584
 10
0.19233
 20
1.2656
 10
0.17192
 20
1.26618
 10
0.1513
 20
1.26752
 10
0.1305
 20
1.26956
 10
0.10953
 20
1.27228
 10
0.08842
 20
1.27566
 10
0.06718
 20
1.27967
 10
0.03733
 20
1.40079
 10
0.05428
 20
1.41421
 10
0.0714
 20
1.42701
 10
0.08869
 20
1.43916
 10
0.10616
 20
1.45064
 10
0.1238
 20
1.4614
 10
0.14161
 20
1.4714
 10
0.15959
 20
1.48058
 10
0.17775
 20
1.48883
 10
0.1869
 20
1.49256
 10
0.19611
 20
1.49598
 10
0.20074
 20
1.49757
 10
0.20538
 20
1.49905
 10
0.21005
 20
1.50042
 10
0.21473
 20
1.50165
 10
0.19749
 20
1.64368
 10
0.19264
 20
1.64375
 10
0.18779
 20
1.64397
 10
0.18292
 20
1.6443
 10
0.17805
 20
1.64473
 10
0.16829
 20
1.64585
 10
0.15851
 20
1.64728
 10
0.1389
 20
1.65094
 10
0.11925
 20
1.65555
 10
0.09957
 20
1.661
 10
0.07986
 20
1.66723
 10
0.06016
 20
1.67419
 10
0.04045
 20
1.68185
 10
0.02077
 20
1.69018
 10
0.0011
 20
1.69916
 10
0.0011
 20
1.8239
 10
0.02077
 20
1.83287
 10
0.04045
 20
1.84121
 10
0.06016
 20
1.84887
 10
0.07986
 20
1.85583
 10
0.09957
 20
1.86206
 10
0.11925
 20
1.86751
 10
0.1389
 20
1.87211
 10
0.15851
 20
1.87578
 10
0.16829
 20
1.87721
 10
0.17805
 20
1.87833
 10
0.18292
 20
1.87876
 10
0.18779
 20
1.87909
 10
0.19264
 20
1.8793
 10
0.19749
 20
1.87937
 10
0.21473
 20
2.02141
 10
0.21005
 20
2.02263
 10
0.20538
 20
2.024
 10
0.20074
 20
2.02549
 10
0.19611
 20
2.02707
 10
0.1869
 20
2.0305
 10
0.17775
 20
2.03423
 10
0.15959
 20
2.04248
 10
0.14161
 20
2.05165
 10
0.1238
 20
2.06165
 10
0.10616
 20
2.07242
 10
0.08869
 20
2.08389
 10
0.0714
 20
2.09604
 10
0.05428
 20
2.10884
 10
0.03733
 20
2.12227
 10
0.06718
 20
2.24338
 10
0.08842
 20
2.24739
 10
0.10953
 20
2.25077
 10
0.1305
 20
2.25349
 10
0.1513
 20
2.25554
 10
0.17192
 20
2.25687
 10
0.19233
 20
2.25745
 10
0.21252
 20
2.25722
 10
0.23243
 20
2.25608
 10
0.24227
 20
2.25513
 10
0.25202
 20
2.25389
 10
0.25685
 20
2.25314
 10
0.26165
 20
2.25229
 10
0.26642
 20
2.25134
 10
0.27114
 20
2.25025
 10
0.32188
 20
2.38403
 10
0.31762
 20
2.38634
 10
0.31342
 20
2.38879
 10
0.30926
 20
2.39134
 10
0.30515
 20
2.39398
 10
0.29703
 20
2.39951
 10
0.28903
 20
2.40533
 10
0.27337
 20
2.41768
 10
0.25811
 20
2.43089
 10
0.24321
 20
2.44486
 10
0.22866
 20
2.45954
 10
0.21445
 20
2.47486
 10
0.20056
 20
2.4908
 10
0.187
 20
2.50732
 10
0.17377
 20
2.52441
 10
0.23173
 20
2.63486
 10
0.25332
 20
2.63367
 10
0.27462
 20
2.6319
 10
0.29563
 20
2.62953
 10
0.31631
 20
2.62653
 10
0.33665
 20
2.62289
 10
0.35661
 20
2.61857
 10
0.37616
 20
2.61352
 10
0.39522
 20
2.60765
 10
0.40455
 20
2.60437
 10
0.41371
 20
2.60083
 10
0.41822
 20
2.59895
 10
0.42268
 20
2.59698
 10
0.42708
 20
2.59491
 10
0.4314
 20
2.59272
 10
0.51268
 20
2.71047
 10
0.5091
 20
2.71373
 10
0.50561
 20
2.71711
 10
0.50219
 20
2.72059
 10
0.49882
 20
2.72414
 10
0.49226
 20
2.73145
 10
0.48589
 20
2.73901
 10
0.47364
 20
2.75475
 10
0.46199
 20
2.77123
 10
0.45087
 20
2.78836
 10
0.44025
 20
2.80609
 10
0.43012
 20
2.82437
 10
0.42045
 20
2.84317
 10
0.41124
 20
2.86246
 10
0.40247
 20
2.88222
 10
0.48519
 20
2.97559
 10
0.50586
 20
2.96927
 10
0.52612
 20
2.96245
 10
0.54595
 20
2.95512
 10
0.56532
 20
2.94726
 10
0.58419
 20
2.93886
 10
0.60254
 20
2.92989
 10
0.62031
 20
2.9203
 10
0.63741
 20
2.91004
 10
0.64568
 20
2.90463
 10
0.65373
 20
2.89899
 10
0.65766
 20
2.89609
 10
0.66152
 20
2.89311
 10
0.6653
 20
2.89005
 10
0.66897
 20
2.88688
 10
0.77607
 20
2.98176
 10
0.77337
 20
2.98579
 10
0.77079
 20
2.98991
 10
0.7683
 20
2.9941
 10
0.76588
 20
2.99835
 10
0.76126
 20
3.00702
 10
0.75689
 20
3.01588
 10
0.74876
 20
3.0341
 10
0.74139
 20
3.05289
 10
0.73469
 20
3.07219
 10
0.72863
 20
3.09194
 10
0.72316
 20
3.11211
 10
0.71827
 20
3.13268
 10
0.71395
 20
3.15362
 10
0.71017
 20
3.1749
 10
0.81282
 20
3.24576
 10
0.83138
 20
3.23468
 10
0.84942
 20
3.22321
 10
0.86692
 20
3.21134
 10
0.88384
 20
3.19908
 10
0.90016
 20
3.1864
 10
0.91583
 20
3.1733
 10
0.93078
 20
3.15974
 10
0.94493
 20
3.14569
 10
0.95167
 20
3.13845
 10
0.95814
 20
3.13105
 10
0.96126
 20
3.12729
 10
0.96429
 20
3.12347
 10
0.96723
 20
3.1196
 10
0.97003
 20
3.11565
 10
1.09673
 20
3.18214
 10
1.09507
 20
3.1867
 10
1.09355
 20
3.19131
 10
1.09213
 20
3.19598
 10
1.09081
 20
3.20068
 10
1.0884
 20
3.21021
 10
1.08627
 20
3.21986
 10
1.08274
 20
3.23949
 10
1.08007
 20
3.2595
 10
1.07819
 20
3.27984
 10
1.07703
 20
3.30047
 10
1.07655
 20
3.32137
 10
1.07673
 20
3.3425
 10
1.07753
 20
3.36387
 10
1.07896
 20
3.38544
 10
1.19559
 20
3.42967
 10
1.21096
 20
3.41447
 10
1.22573
 20
3.39901
 10
1.23988
 20
3.38331
 10
1.25337
 20
3.36735
 10
1.26618
 20
3.35114
 10
1.27826
 20
3.33467
 10
1.28953
 20
3.31792
 10
1.29991
 20
3.30089
 10
1.30472
 20
3.29225
 10
1.30923
 20
3.28352
 10
1.31136
 20
3.27912
 10
1.31339
 20
3.27469
 10
1.31532
 20
3.27022
 10
1.3171
 20
3.26572
 10
1.45602
 20
3.29996
 10
1.4555
 20
3.30478
 10
1.45513
 20
3.30962
 10
1.45487
 20
3.31449
 10
1.45471
 20
3.31938
 10
1.45465
 20
3.3292
 10
1.45489
 20
3.33909
 10
1.45616
 20
3.35899
 10
1.45837
 20
3.37906
 10
1.4614
 20
3.39925
 10
1.46521
 20
3.41956
 10
1.46975
 20
3.43997
 10
1.47498
 20
3.46045
 10
1.48087
 20
3.481
 10
1.48742
 20
3.5016
 10
1.61125
 20
3.51663
 10
1.62253
 20
3.4982
 10
1.63317
 20
3.47966
 10
1.64315
 20
3.46102
 10
1.65244
 20
3.4423
 10
1.661
 20
3.42349
 10
1.66878
 20
3.40461
 10
1.67572
 20
3.38565
 10
1.68172
 20
3.36663
 10
1.68432
 20
3.35709
 10
1.68661
 20
3.34754
 10
1.68763
 20
3.34275
 10
1.68854
 20
3.33796
 10
1.68934
 20
3.33317
 10
1.68999
 20
3.32837
 10
1.83307
 20
3.32837
 10
1.83372
 20
3.33317
 10
1.83452
 20
3.33796
 10
1.83543
 20
3.34275
 10
1.83644
 20
3.34754
 10
1.83874
 20
3.35709
 10
1.84134
 20
3.36663
 10
1.84734
 20
3.38565
 10
1.85428
 20
3.40461
 10
1.86206
 20
3.42349
 10
1.87062
 20
3.4423
 10
1.8799
 20
3.46102
 10
1.88988
 20
3.47966
 10
1.90053
 20
3.4982
 10
1.91181
 20
3.51663
 10
2.03564
 20
3.5016
 10
2.04218
 20
3.481
 10
2.04808
 20
3.46045
 10
2.05331
 20
3.43997
 10
2.05784
 20
3.41956
 10
2.06165
 20
3.39925
 10
2.06469
 20
3.37906
 10
2.06689
 20
3.35899
 10
2.06816
 20
3.33909
 10
2.06841
 20
3.3292
 10
2.06834
 20
3.31938
 10
2.06818
 20
3.31449
 10
2.06793
 20
3.30962
 10
2.06755
 20
3.30478
 10
2.06704
 20
3.29996
 10
2.20596
 20
3.26572
 10
2.20774
 20
3.27022
 10
2.20966
 20
3.27469
 10
2.21169
 20
3.27912
 10
2.21382
 20
3.28352
 10
2.21834
 20
3.29225
 10
2.22314
 20
3.30089
 10
2.23352
 20
3.31792
 10
2.24479
 20
3.33467
 10
2.25687
 20
3.35114
 10
2.26968
 20
3.36735
 10
2.28318
 20
3.38331
 10
2.29733
 20
3.39901
 10
2.3121
 20
3.41447
 10
2.32747
 20
3.42967
 10
2.4441
 20
3.38544
 10
2.44552
 20
3.36387
 10
2.44633
 20
3.3425
 10
2.44651
 20
3.32137
 10
2.44603
 20
3.30047
 10
2.44486
 20
3.27984
 10
2.44298
 20
3.2595
 10
2.44032
 20
3.23949
 10
2.43679
 20
3.21986
 10
2.43466
 20
3.21021
 10
2.43225
 20
3.20068
 10
2.43092
 20
3.19598
 10
2.42951
 20
3.19131
 10
2.42798
 20
3.1867
 10
2.42633
 20
3.18214
 10
2.55302
 20
3.11565
 10
2.55583
 20
3.1196
 10
2.55876
 20
3.12347
 10
2.5618
 20
3.12729
 10
2.56492
 20
3.13105
 10
2.57139
 20
3.13845
 10
2.57812
 20
3.14569
 10
2.59227
 20
3.15974
 10
2.60723
 20
3.1733
 10
2.62289
 20
3.1864
 10
2.63921
 20
3.19908
 10
2.65614
 20
3.21134
 10
2.67363
 20
3.22321
 10
2.69167
 20
3.23468
 10
2.71023
 20
3.24576
 10
2.81289
 20
3.1749
 10
2.80911
 20
3.15362
 10
2.80478
 20
3.13268
 10
2.79989
 20
3.11211
 10
2.79443
 20
3.09194
 10
2.78836
 20
3.07219
 10
2.78167
 20
3.05289
 10
2.77429
 20
3.0341
 10
2.76617
 20
3.01588
 10
2.76179
 20
3.00702
 10
2.75717
 20
2.99835
 10
2.75476
 20
2.9941
 10
2.75227
 20
2.98991
 10
2.74968
 20
2.98579
 10
2.74699
 20
2.98176
 10
2.85408
 20
2.88688
 10
2.85775
 20
2.89005
 10
2.86153
 20
2.89311
 10
2.86539
 20
2.89609
 10
2.86932
 20
2.89899
 10
2.87737
 20
2.90463
 10
2.88564
 20
2.91004
 10
2.90275
 20
2.9203
 10
2.92051
 20
2.92989
 10
2.93886
 20
2.93886
 10
2.95774
 20
2.94726
 10
2.97711
 20
2.95512
 10
2.99693
 20
2.96245
 10
3.01719
 20
2.96927
 10
3.03787
 20
2.97559
 10
3.12058
 20
2.88222
 10
3.11182
 20
2.86246
 10
3.10261
 20
2.84317
 10
3.09294
 20
2.82437
 10
3.0828
 20
2.80609
 10
3.07219
 20
2.78836
 10
3.06107
 20
2.77123
 10
3.04941
 20
2.75475
 10
3.03716
 20
2.73901
 10
3.03079
 20
2.73145
 10
3.02423
 20
2.72414
 10
3.02087
 20
2.72059
 10
3.01745
 20
2.71711
 10
3.01395
 20
2.71373
 10
3.01037
 20
2.71047
 10
3.09165
 20
2.59272
 10
3.09597
 20
2.59491
 10
3.10037
 20
2.59698
 10
3.10483
 20
2.59895
 10
3.10935
 20
2.60083
 10
3.11851
 20
2.60437
 10
3.12784
 20
2.60765
 10
3.1469
 20
2.61352
 10
3.16644
 20
2.61857
 10
3.1864
 20
2.62289
 10
3.20674
 20
2.62653
 10
3.22743
 20
2.62953
 10
3.24843
 20
2.6319
 10
3.26974
 20
2.63367
 10
3.29132
 20
2.63486
 10
3.34929
 20
2.52441
 10
3.33605
 20
2.50732
 10
3.32249
 20
2.4908
 10
3.3086
 20
2.47486
 10
3.29439
 20
2.45954
 10
3.27984
 20
2.44486
 10
3.26494
 20
2.43089
 10
3.24968
 20
2.41768
 10
3.23402
 20
2.40533
 10
3.22603
 20
2.39951
 10
3.21791
 20
2.39398
 10
3.21379
 20
2.39134
 10
3.20964
 20
2.38879
 10
3.20544
 20
2.38634
 10
3.20118
 20
2.38403
 10
3.25192
 20
2.25025
 10
3.25664
 20
2.25134
 10
3.2614
 20
2.25229
 10
3.26621
 20
2.25314
 10
3.27104
 20
2.25389
 10
3.28078
 20
2.25513
 10
3.29062
 20
2.25608
 10
3.31054
 20
2.25722
 10
3.33072
 20
2.25745
 10
3.35114
 20
2.25687
 10
3.37176
 20
2.25554
 10
3.39256
 20
2.25349
 10
3.41352
 20
2.25077
 10
3.43463
 20
2.24739
 10
3.45587
 20
2.24338
 10
3.48572
 20
2.12227
 10
3.46878
 20
2.10884
 10
3.45166
 20
2.09604
 10
3.43436
 20
2.08389
 10
3.41689
 20
2.07242
 10
3.39925
 20
2.06165
 10
3.38145
 20
2.05165
 10
3.36347
 20
2.04248
 10
3.34531
 20
2.03423
 10
3.33615
 20
2.0305
 10
3.32694
 20
2.02707
 10
3.32232
 20
2.02549
 10
3.31767
 20
2.024
 10
3.31301
 20
2.02263
 10
3.30832
 20
2.02141
  0
ENDSEC
  0
EOF
