  0
SECTION
  2
HEADER
  9
$ACADVER
  1
AC1014
  9
$HANDSEED
  5
FFFF
  9
$MEASUREMENT
 70
     1
  0
ENDSEC
  0
SECTION
  2
TABLES
  0
TABLE
  2
VPORT
  5
8
330
0
100
AcDbSymbolTable
 70
     4
  0
VPORT
  5
2E
330
8
100
AcDbSymbolTableRecord
100
AcDbViewportTableRecord
  2
*ACTIVE
 70
     0
 10
0.0
 20
0.0
 11
1.0
 21
1.0
 12
210.0
 22
148.5
 13
0.0
 23
0.0
 14
10.0
 24
10.0
 15
10.0
 25
10.0
 16
0.0
 26
0.0
 36
1.0
 17
0.0
 27
0.0
 37
0.0
 40
341.0
 41
1.24
 42
50.0
 43
0.0
 44
0.0
 50
0.0
 51
0.0
 71
     0
 72
   100
 73
     1
 74
     3
 75
     0
 76
     0
 77
     0
 78
     0
  0
ENDTAB
  0
TABLE
  2
LTYPE
  5
5
330
0
100
AcDbSymbolTable
 70
     1
  0
LTYPE
  5
14
330
5
100
AcDbSymbolTableRecord
100
AcDbLinetypeTableRecord
  2
BYBLOCK
 70
     0
  3

 72
    65
 73
     0
 40
0.0
  0
LTYPE
  5
15
330
5
100
AcDbSymbolTableRecord
100
AcDbLinetypeTableRecord
  2
BYLAYER
 70
     0
  3

 72
    65
 73
     0
 40
0.0
  0
LTYPE
  5
16
330
5
100
AcDbSymbolTableRecord
100
AcDbLinetypeTableRecord
  2
CONTINUOUS
 70
     0
  3
Solid line
 72
    65
 73
     0
 40
0.0
  0
ENDTAB
  0
TABLE
  2
LAYER
  5
2
100
AcDbSymbolTable
 70
3
  0
LAYER
  5
50
100
AcDbSymbolTableRecord
100
AcDbLayerTableRecord
  2
0
 70
0
  6
CONTINUOUS
  0
LAYER
  5
51
100
AcDbSymbolTableRecord
100
AcDbLayerTableRecord
  2
Layer_1
 70
0
  6
CONTINUOUS
  0
LAYER
  5
52
100
AcDbSymbolTableRecord
100
AcDbLayerTableRecord
  2
newlayer
 70
0
  6
CONTINUOUS
  0
ENDTAB
  0
TABLE
  2
STYLE
  5
3
330
0
100
AcDbSymbolTable
 70
     1
  0
STYLE
  5
11
330
3
100
AcDbSymbolTableRecord
100
AcDbTextStyleTableRecord
  2
STANDARD
 70
     0
 40
0.0
 41
1.0
 50
0.0
 71
     0
 42
2.5
  3
txt
  4

  0
ENDTAB
  0
TABLE
  2
VIEW
  5
6
330
0
100
AcDbSymbolTable
 70
     0
  0
ENDTAB
  0
TABLE
  2
UCS
  5
7
330
0
100
AcDbSymbolTable
 70
     0
  0
ENDTAB
  0
TABLE
  2
APPID
  5
9
330
0
100
AcDbSymbolTable
 70
     2
  0
APPID
  5
12
330
9
100
AcDbSymbolTableRecord
100
AcDbRegAppTableRecord
  2
ACAD
 70
     0
  0
ENDTAB
  0
TABLE
  2
DIMSTYLE
  5
A
330
0
100
AcDbSymbolTable
 70
     1
  0
DIMSTYLE
105
27
330
A
100
AcDbSymbolTableRecord
100
AcDbDimStyleTableRecord
  2
ISO-25
 70
     0
  3

  4

  5

  6

  7

 40
1.0
 41
2.5
 42
0.625
 43
3.75
 44
1.25
 45
0.0
 46
0.0
 47
0.0
 48
0.0
140
2.5
141
2.5
142
0.0
143
0.03937007874016
144
1.0
145
0.0
146
1.0
147
0.625
 71
     0
 72
     0
 73
     0
 74
     0
 75
     0
 76
     0
 77
     1
 78
     8
170
     0
171
     3
172
     1
173
     0
174
     0
175
     0
176
     0
177
     0
178
     0
270
     2
271
     2
272
     2
273
     2
274
     3
340
11
275
     0
280
     0
281
     0
282
     0
283
     0
284
     8
285
     0
286
     0
287
     3
288
     0
  0
ENDTAB
  0
TABLE
  2
BLOCK_RECORD
  5
1
330
0
100
AcDbSymbolTable
 70
     1
  0
BLOCK_RECORD
  5
1F
330
1
100
AcDbSymbolTableRecord
100
AcDbBlockTableRecord
  2
*MODEL_SPACE
  0
BLOCK_RECORD
  5
1B
330
1
100
AcDbSymbolTableRecord
100
AcDbBlockTableRecord
  2
*PAPER_SPACE
  0
ENDTAB
  0
ENDSEC
  0
SECTION
  2
BLOCKS
  0
BLOCK
  5
20
330
1F
100
AcDbEntity
  8
0
100
AcDbBlockBegin
  2
*MODEL_SPACE
 70
     0
 10
0.0
 20
0.0
 30
0.0
  3
*MODEL_SPACE
  1

  0
ENDBLK
  5
21
330
1F
100
AcDbEntity
  8
0
100
AcDbBlockEnd
  0
BLOCK
  5
1C
330
1B
100
AcDbEntity
 67
     1
  8
0
100
AcDbBlockBegin
  2
*PAPER_SPACE
  1

  0
ENDBLK
  5
1D
330
1B
100
AcDbEntity
 67
     1
  8
0
100
AcDbBlockEnd
  0
ENDSEC
  0
SECTION
  2
ENTITIES
  0
LINE
  5
100
100
AcDbEntity
  8
Layer_1
 62
7
100
AcDbLine
 10
50.184850
 20
289.499990
 30
0.0
 11
113.684810
 21
289.499990
 31
0.0
  0
SPLINE
  5
101
100
AcDbEntity
  8
Layer_1
 62
7
100
AcDbSpline
 70
8
 71
3
 72
8
 73
4
 74
0
 40
0
 40
0
 40
0
 40
0
 40
1
 40
1
 40
1
 40
1
 10
113.684810
 20
289.499990
 30
0.0
 10
117.202710
 20
289.499990
 30
0.0
 10
120.034820
 20
286.667890
 30
0.0
 10
120.034820
 20
283.149990
 30
0.0
  0
LINE
  5
102
100
AcDbEntity
  8
Layer_1
 62
7
100
AcDbLine
 10
120.034820
 20
283.149990
 30
0.0
 11
120.034820
 21
245.050010
 31
0.0
  0
SPLINE
  5
103
100
AcDbEntity
  8
Layer_1
 62
7
100
AcDbSpline
 70
8
 71
3
 72
8
 73
4
 74
0
 40
0
 40
0
 40
0
 40
0
 40
1
 40
1
 40
1
 40
1
 10
120.034820
 20
245.050010
 30
0.0
 10
120.034820
 20
241.532110
 30
0.0
 10
117.202710
 20
238.700010
 30
0.0
 10
113.684810
 20
238.700010
 30
0.0
  0
LINE
  5
104
100
AcDbEntity
  8
Layer_1
 62
7
100
AcDbLine
 10
113.684810
 20
238.700010
 30
0.0
 11
50.184850
 21
238.700010
 31
0.0
  0
SPLINE
  5
105
100
AcDbEntity
  8
Layer_1
 62
7
100
AcDbSpline
 70
8
 71
3
 72
8
 73
4
 74
0
 40
0
 40
0
 40
0
 40
0
 40
1
 40
1
 40
1
 40
1
 10
50.184850
 20
238.700010
 30
0.0
 10
46.666960
 20
238.700010
 30
0.0
 10
43.834870
 20
241.532110
 30
0.0
 10
43.834870
 20
245.050010
 30
0.0
  0
LINE
  5
106
100
AcDbEntity
  8
Layer_1
 62
7
100
AcDbLine
 10
43.834870
 20
245.050010
 30
0.0
 11
43.834870
 21
283.149990
 31
0.0
  0
SPLINE
  5
107
100
AcDbEntity
  8
Layer_1
 62
7
100
AcDbSpline
 70
8
 71
3
 72
8
 73
4
 74
0
 40
0
 40
0
 40
0
 40
0
 40
1
 40
1
 40
1
 40
1
 10
43.834870
 20
283.149990
 30
0.0
 10
43.834870
 20
286.667890
 30
0.0
 10
46.666970
 20
289.499990
 30
0.0
 10
50.184850
 20
289.499990
 30
0.0
  0
LINE
  5
108
100
AcDbEntity
  8
Layer_1
 62
7
100
AcDbLine
 10
50.184850
 20
289.499990
 30
0.0
 11
50.184850
 21
289.499990
 31
0.0
  0
SPLINE
  5
109
100
AcDbEntity
  8
Layer_1
 62
7
100
AcDbSpline
 70
8
 71
3
 72
8
 73
4
 74
0
 40
0
 40
0
 40
0
 40
0
 40
1
 40
1
 40
1
 40
1
 10
211.578765
 20
303.459100
 30
0.0
 10
211.578765
 20
301.700873
 30
0.0
 10
210.880313
 20
300.014658
 30
0.0
 10
209.637059
 20
298.771404
 30
0.0
  0
SPLINE
  5
10a
100
AcDbEntity
  8
Layer_1
 62
7
100
AcDbSpline
 70
8
 71
3
 72
8
 73
4
 74
0
 40
0
 40
0
 40
0
 40
0
 40
1
 40
1
 40
1
 40
1
 10
209.637059
 20
298.771404
 30
0.0
 10
208.393805
 20
297.528150
 30
0.0
 10
206.707591
 20
296.829697
 30
0.0
 10
204.949365
 20
296.829697
 30
0.0
  0
SPLINE
  5
10b
100
AcDbEntity
  8
Layer_1
 62
7
100
AcDbSpline
 70
8
 71
3
 72
8
 73
4
 74
0
 40
0
 40
0
 40
0
 40
0
 40
1
 40
1
 40
1
 40
1
 10
204.949365
 20
296.829697
 30
0.0
 10
203.191139
 20
296.829697
 30
0.0
 10
201.504925
 20
297.528150
 30
0.0
 10
200.261671
 20
298.771404
 30
0.0
  0
SPLINE
  5
10c
100
AcDbEntity
  8
Layer_1
 62
7
100
AcDbSpline
 70
8
 71
3
 72
8
 73
4
 74
0
 40
0
 40
0
 40
0
 40
0
 40
1
 40
1
 40
1
 40
1
 10
200.261671
 20
298.771404
 30
0.0
 10
199.018417
 20
300.014658
 30
0.0
 10
198.319965
 20
301.700873
 30
0.0
 10
198.319965
 20
303.459100
 30
0.0
  0
SPLINE
  5
10d
100
AcDbEntity
  8
Layer_1
 62
7
100
AcDbSpline
 70
8
 71
3
 72
8
 73
4
 74
0
 40
0
 40
0
 40
0
 40
0
 40
1
 40
1
 40
1
 40
1
 10
198.319965
 20
303.459100
 30
0.0
 10
198.319966
 20
307.120417
 30
0.0
 10
201.288049
 20
310.088500
 30
0.0
 10
204.949365
 20
310.088500
 30
0.0
  0
SPLINE
  5
10e
100
AcDbEntity
  8
Layer_1
 62
7
100
AcDbSpline
 70
8
 71
3
 72
8
 73
4
 74
0
 40
0
 40
0
 40
0
 40
0
 40
1
 40
1
 40
1
 40
1
 10
204.949365
 20
310.088500
 30
0.0
 10
208.610681
 20
310.088500
 30
0.0
 10
211.578764
 20
307.120417
 30
0.0
 10
211.578765
 20
303.459100
 30
0.0
  0
LINE
  5
10f
100
AcDbEntity
  8
Layer_1
 62
7
100
AcDbLine
 10
211.578765
 20
303.459100
 30
0.0
 11
211.578765
 21
303.459100
 31
0.0
  0
SPLINE
  5
110
100
AcDbEntity
  8
Layer_1
 62
7
100
AcDbSpline
 70
8
 71
3
 72
8
 73
4
 74
0
 40
0
 40
0
 40
0
 40
0
 40
1
 40
1
 40
1
 40
1
 10
237.028085
 20
303.459100
 30
0.0
 10
237.028086
 20
301.700873
 30
0.0
 10
236.329633
 20
300.014659
 30
0.0
 10
235.086380
 20
298.771405
 30
0.0
  0
SPLINE
  5
111
100
AcDbEntity
  8
Layer_1
 62
7
100
AcDbSpline
 70
8
 71
3
 72
8
 73
4
 74
0
 40
0
 40
0
 40
0
 40
0
 40
1
 40
1
 40
1
 40
1
 10
235.086380
 20
298.771405
 30
0.0
 10
233.843126
 20
297.528150
 30
0.0
 10
232.156912
 20
296.829697
 30
0.0
 10
230.398685
 20
296.829697
 30
0.0
  0
SPLINE
  5
112
100
AcDbEntity
  8
Layer_1
 62
7
100
AcDbSpline
 70
8
 71
3
 72
8
 73
4
 74
0
 40
0
 40
0
 40
0
 40
0
 40
1
 40
1
 40
1
 40
1
 10
230.398685
 20
296.829697
 30
0.0
 10
228.640458
 20
296.829697
 30
0.0
 10
226.954244
 20
297.528150
 30
0.0
 10
225.710990
 20
298.771405
 30
0.0
  0
SPLINE
  5
113
100
AcDbEntity
  8
Layer_1
 62
7
100
AcDbSpline
 70
8
 71
3
 72
8
 73
4
 74
0
 40
0
 40
0
 40
0
 40
0
 40
1
 40
1
 40
1
 40
1
 10
225.710990
 20
298.771405
 30
0.0
 10
224.467737
 20
300.014659
 30
0.0
 10
223.769284
 20
301.700873
 30
0.0
 10
223.769285
 20
303.459100
 30
0.0
  0
SPLINE
  5
114
100
AcDbEntity
  8
Layer_1
 62
7
100
AcDbSpline
 70
8
 71
3
 72
8
 73
4
 74
0
 40
0
 40
0
 40
0
 40
0
 40
1
 40
1
 40
1
 40
1
 10
223.769285
 20
303.459100
 30
0.0
 10
223.769285
 20
307.120416
 30
0.0
 10
226.737369
 20
310.088499
 30
0.0
 10
230.398685
 20
310.088500
 30
0.0
  0
SPLINE
  5
115
100
AcDbEntity
  8
Layer_1
 62
7
100
AcDbSpline
 70
8
 71
3
 72
8
 73
4
 74
0
 40
0
 40
0
 40
0
 40
0
 40
1
 40
1
 40
1
 40
1
 10
230.398685
 20
310.088500
 30
0.0
 10
234.060001
 20
310.088499
 30
0.0
 10
237.028085
 20
307.120416
 30
0.0
 10
237.028085
 20
303.459100
 30
0.0
  0
LINE
  5
116
100
AcDbEntity
  8
Layer_1
 62
7
100
AcDbLine
 10
237.028085
 20
303.459100
 30
0.0
 11
237.028085
 21
303.459100
 31
0.0
  0
SPLINE
  5
117
100
AcDbEntity
  8
Layer_1
 62
7
100
AcDbSpline
 70
8
 71
3
 72
8
 73
4
 74
0
 40
0
 40
0
 40
0
 40
0
 40
1
 40
1
 40
1
 40
1
 10
257.620145
 20
288.392207
 30
0.0
 10
257.620146
 20
286.633980
 30
0.0
 10
256.921693
 20
284.947766
 30
0.0
 10
255.678440
 20
283.704512
 30
0.0
  0
SPLINE
  5
118
100
AcDbEntity
  8
Layer_1
 62
7
100
AcDbSpline
 70
8
 71
3
 72
8
 73
4
 74
0
 40
0
 40
0
 40
0
 40
0
 40
1
 40
1
 40
1
 40
1
 10
255.678440
 20
283.704512
 30
0.0
 10
254.435186
 20
282.461257
 30
0.0
 10
252.748972
 20
281.762804
 30
0.0
 10
250.990745
 20
281.762804
 30
0.0
  0
SPLINE
  5
119
100
AcDbEntity
  8
Layer_1
 62
7
100
AcDbSpline
 70
8
 71
3
 72
8
 73
4
 74
0
 40
0
 40
0
 40
0
 40
0
 40
1
 40
1
 40
1
 40
1
 10
250.990745
 20
281.762804
 30
0.0
 10
249.232518
 20
281.762804
 30
0.0
 10
247.546304
 20
282.461257
 30
0.0
 10
246.303050
 20
283.704512
 30
0.0
  0
SPLINE
  5
11a
100
AcDbEntity
  8
Layer_1
 62
7
100
AcDbSpline
 70
8
 71
3
 72
8
 73
4
 74
0
 40
0
 40
0
 40
0
 40
0
 40
1
 40
1
 40
1
 40
1
 10
246.303050
 20
283.704512
 30
0.0
 10
245.059797
 20
284.947766
 30
0.0
 10
244.361344
 20
286.633980
 30
0.0
 10
244.361345
 20
288.392207
 30
0.0
  0
SPLINE
  5
11b
100
AcDbEntity
  8
Layer_1
 62
7
100
AcDbSpline
 70
8
 71
3
 72
8
 73
4
 74
0
 40
0
 40
0
 40
0
 40
0
 40
1
 40
1
 40
1
 40
1
 10
244.361345
 20
288.392207
 30
0.0
 10
244.361346
 20
292.053523
 30
0.0
 10
247.329429
 20
295.021606
 30
0.0
 10
250.990745
 20
295.021606
 30
0.0
  0
SPLINE
  5
11c
100
AcDbEntity
  8
Layer_1
 62
7
100
AcDbSpline
 70
8
 71
3
 72
8
 73
4
 74
0
 40
0
 40
0
 40
0
 40
0
 40
1
 40
1
 40
1
 40
1
 10
250.990745
 20
295.021606
 30
0.0
 10
254.652061
 20
295.021606
 30
0.0
 10
257.620144
 20
292.053523
 30
0.0
 10
257.620145
 20
288.392207
 30
0.0
  0
LINE
  5
11d
100
AcDbEntity
  8
Layer_1
 62
7
100
AcDbLine
 10
257.620145
 20
288.392207
 30
0.0
 11
257.620145
 21
288.392207
 31
0.0
  0
SPLINE
  5
11e
100
AcDbEntity
  8
Layer_1
 62
7
100
AcDbSpline
 70
8
 71
3
 72
8
 73
4
 74
0
 40
0
 40
0
 40
0
 40
0
 40
1
 40
1
 40
1
 40
1
 10
265.471715
 20
264.085632
 30
0.0
 10
265.471716
 20
262.327405
 30
0.0
 10
264.773263
 20
260.641191
 30
0.0
 10
263.530010
 20
259.397937
 30
0.0
  0
SPLINE
  5
11f
100
AcDbEntity
  8
Layer_1
 62
7
100
AcDbSpline
 70
8
 71
3
 72
8
 73
4
 74
0
 40
0
 40
0
 40
0
 40
0
 40
1
 40
1
 40
1
 40
1
 10
263.530010
 20
259.397937
 30
0.0
 10
262.286756
 20
258.154682
 30
0.0
 10
260.600542
 20
257.456229
 30
0.0
 10
258.842315
 20
257.456229
 30
0.0
  0
SPLINE
  5
120
100
AcDbEntity
  8
Layer_1
 62
7
100
AcDbSpline
 70
8
 71
3
 72
8
 73
4
 74
0
 40
0
 40
0
 40
0
 40
0
 40
1
 40
1
 40
1
 40
1
 10
258.842315
 20
257.456229
 30
0.0
 10
257.084088
 20
257.456229
 30
0.0
 10
255.397874
 20
258.154682
 30
0.0
 10
254.154620
 20
259.397937
 30
0.0
  0
SPLINE
  5
121
100
AcDbEntity
  8
Layer_1
 62
7
100
AcDbSpline
 70
8
 71
3
 72
8
 73
4
 74
0
 40
0
 40
0
 40
0
 40
0
 40
1
 40
1
 40
1
 40
1
 10
254.154620
 20
259.397937
 30
0.0
 10
252.911367
 20
260.641191
 30
0.0
 10
252.212914
 20
262.327405
 30
0.0
 10
252.212915
 20
264.085632
 30
0.0
  0
SPLINE
  5
122
100
AcDbEntity
  8
Layer_1
 62
7
100
AcDbSpline
 70
8
 71
3
 72
8
 73
4
 74
0
 40
0
 40
0
 40
0
 40
0
 40
1
 40
1
 40
1
 40
1
 10
252.212915
 20
264.085632
 30
0.0
 10
252.212915
 20
267.746948
 30
0.0
 10
255.180999
 20
270.715032
 30
0.0
 10
258.842315
 20
270.715032
 30
0.0
  0
SPLINE
  5
123
100
AcDbEntity
  8
Layer_1
 62
7
100
AcDbSpline
 70
8
 71
3
 72
8
 73
4
 74
0
 40
0
 40
0
 40
0
 40
0
 40
1
 40
1
 40
1
 40
1
 10
258.842315
 20
270.715032
 30
0.0
 10
262.503631
 20
270.715032
 30
0.0
 10
265.471715
 20
267.746948
 30
0.0
 10
265.471715
 20
264.085632
 30
0.0
  0
LINE
  5
124
100
AcDbEntity
  8
Layer_1
 62
7
100
AcDbLine
 10
265.471715
 20
264.085632
 30
0.0
 11
265.471715
 21
264.085632
 31
0.0
  0
SPLINE
  5
125
100
AcDbEntity
  8
Layer_1
 62
7
100
AcDbSpline
 70
8
 71
3
 72
8
 73
4
 74
0
 40
0
 40
0
 40
0
 40
0
 40
1
 40
1
 40
1
 40
1
 10
257.620145
 20
239.741608
 30
0.0
 10
257.620145
 20
237.983382
 30
0.0
 10
256.921693
 20
236.297167
 30
0.0
 10
255.678439
 20
235.053913
 30
0.0
  0
SPLINE
  5
126
100
AcDbEntity
  8
Layer_1
 62
7
100
AcDbSpline
 70
8
 71
3
 72
8
 73
4
 74
0
 40
0
 40
0
 40
0
 40
0
 40
1
 40
1
 40
1
 40
1
 10
255.678439
 20
235.053913
 30
0.0
 10
254.435185
 20
233.810659
 30
0.0
 10
252.748971
 20
233.112206
 30
0.0
 10
250.990745
 20
233.112206
 30
0.0
  0
SPLINE
  5
127
100
AcDbEntity
  8
Layer_1
 62
7
100
AcDbSpline
 70
8
 71
3
 72
8
 73
4
 74
0
 40
0
 40
0
 40
0
 40
0
 40
1
 40
1
 40
1
 40
1
 10
250.990745
 20
233.112206
 30
0.0
 10
249.232519
 20
233.112206
 30
0.0
 10
247.546305
 20
233.810659
 30
0.0
 10
246.303051
 20
235.053913
 30
0.0
  0
SPLINE
  5
128
100
AcDbEntity
  8
Layer_1
 62
7
100
AcDbSpline
 70
8
 71
3
 72
8
 73
4
 74
0
 40
0
 40
0
 40
0
 40
0
 40
1
 40
1
 40
1
 40
1
 10
246.303051
 20
235.053913
 30
0.0
 10
245.059797
 20
236.297167
 30
0.0
 10
244.361345
 20
237.983382
 30
0.0
 10
244.361345
 20
239.741608
 30
0.0
  0
SPLINE
  5
129
100
AcDbEntity
  8
Layer_1
 62
7
100
AcDbSpline
 70
8
 71
3
 72
8
 73
4
 74
0
 40
0
 40
0
 40
0
 40
0
 40
1
 40
1
 40
1
 40
1
 10
244.361345
 20
239.741608
 30
0.0
 10
244.361345
 20
243.402924
 30
0.0
 10
247.329429
 20
246.371008
 30
0.0
 10
250.990745
 20
246.371008
 30
0.0
  0
SPLINE
  5
12a
100
AcDbEntity
  8
Layer_1
 62
7
100
AcDbSpline
 70
8
 71
3
 72
8
 73
4
 74
0
 40
0
 40
0
 40
0
 40
0
 40
1
 40
1
 40
1
 40
1
 10
250.990745
 20
246.371008
 30
0.0
 10
254.652061
 20
246.371008
 30
0.0
 10
257.620145
 20
243.402924
 30
0.0
 10
257.620145
 20
239.741608
 30
0.0
  0
LINE
  5
12b
100
AcDbEntity
  8
Layer_1
 62
7
100
AcDbLine
 10
257.620145
 20
239.741608
 30
0.0
 11
257.620145
 21
239.741608
 31
0.0
  0
SPLINE
  5
12c
100
AcDbEntity
  8
Layer_1
 62
7
100
AcDbSpline
 70
8
 71
3
 72
8
 73
4
 74
0
 40
0
 40
0
 40
0
 40
0
 40
1
 40
1
 40
1
 40
1
 10
237.028085
 20
224.740892
 30
0.0
 10
237.028085
 20
221.079576
 30
0.0
 10
234.060002
 20
218.111492
 30
0.0
 10
230.398685
 20
218.111492
 30
0.0
  0
SPLINE
  5
12d
100
AcDbEntity
  8
Layer_1
 62
7
100
AcDbSpline
 70
8
 71
3
 72
8
 73
4
 74
0
 40
0
 40
0
 40
0
 40
0
 40
1
 40
1
 40
1
 40
1
 10
230.398685
 20
218.111492
 30
0.0
 10
226.737368
 20
218.111492
 30
0.0
 10
223.769285
 20
221.079576
 30
0.0
 10
223.769285
 20
224.740892
 30
0.0
  0
SPLINE
  5
12e
100
AcDbEntity
  8
Layer_1
 62
7
100
AcDbSpline
 70
8
 71
3
 72
8
 73
4
 74
0
 40
0
 40
0
 40
0
 40
0
 40
1
 40
1
 40
1
 40
1
 10
223.769285
 20
224.740892
 30
0.0
 10
223.769285
 20
228.402208
 30
0.0
 10
226.737368
 20
231.370292
 30
0.0
 10
230.398685
 20
231.370292
 30
0.0
  0
SPLINE
  5
12f
100
AcDbEntity
  8
Layer_1
 62
7
100
AcDbSpline
 70
8
 71
3
 72
8
 73
4
 74
0
 40
0
 40
0
 40
0
 40
0
 40
1
 40
1
 40
1
 40
1
 10
230.398685
 20
231.370292
 30
0.0
 10
234.060002
 20
231.370292
 30
0.0
 10
237.028085
 20
228.402208
 30
0.0
 10
237.028085
 20
224.740892
 30
0.0
  0
LINE
  5
130
100
AcDbEntity
  8
Layer_1
 62
7
100
AcDbLine
 10
237.028085
 20
224.740892
 30
0.0
 11
237.028085
 21
224.740892
 31
0.0
  0
SPLINE
  5
131
100
AcDbEntity
  8
Layer_1
 62
7
100
AcDbSpline
 70
8
 71
3
 72
8
 73
4
 74
0
 40
0
 40
0
 40
0
 40
0
 40
1
 40
1
 40
1
 40
1
 10
211.571845
 20
224.740892
 30
0.0
 10
211.571845
 20
221.079576
 30
0.0
 10
208.603762
 20
218.111492
 30
0.0
 10
204.942445
 20
218.111492
 30
0.0
  0
SPLINE
  5
132
100
AcDbEntity
  8
Layer_1
 62
7
100
AcDbSpline
 70
8
 71
3
 72
8
 73
4
 74
0
 40
0
 40
0
 40
0
 40
0
 40
1
 40
1
 40
1
 40
1
 10
204.942445
 20
218.111492
 30
0.0
 10
201.281128
 20
218.111492
 30
0.0
 10
198.313045
 20
221.079576
 30
0.0
 10
198.313045
 20
224.740892
 30
0.0
  0
SPLINE
  5
133
100
AcDbEntity
  8
Layer_1
 62
7
100
AcDbSpline
 70
8
 71
3
 72
8
 73
4
 74
0
 40
0
 40
0
 40
0
 40
0
 40
1
 40
1
 40
1
 40
1
 10
198.313045
 20
224.740892
 30
0.0
 10
198.313045
 20
228.402208
 30
0.0
 10
201.281128
 20
231.370292
 30
0.0
 10
204.942445
 20
231.370292
 30
0.0
  0
SPLINE
  5
134
100
AcDbEntity
  8
Layer_1
 62
7
100
AcDbSpline
 70
8
 71
3
 72
8
 73
4
 74
0
 40
0
 40
0
 40
0
 40
0
 40
1
 40
1
 40
1
 40
1
 10
204.942445
 20
231.370292
 30
0.0
 10
208.603762
 20
231.370292
 30
0.0
 10
211.571845
 20
228.402208
 30
0.0
 10
211.571845
 20
224.740892
 30
0.0
  0
LINE
  5
135
100
AcDbEntity
  8
Layer_1
 62
7
100
AcDbLine
 10
211.571845
 20
224.740892
 30
0.0
 11
211.571845
 21
224.740892
 31
0.0
  0
SPLINE
  5
136
100
AcDbEntity
  8
Layer_1
 62
7
100
AcDbSpline
 70
8
 71
3
 72
8
 73
4
 74
0
 40
0
 40
0
 40
0
 40
0
 40
1
 40
1
 40
1
 40
1
 10
190.965235
 20
239.741608
 30
0.0
 10
190.965235
 20
237.983381
 30
0.0
 10
190.266783
 20
236.297167
 30
0.0
 10
189.023529
 20
235.053913
 30
0.0
  0
SPLINE
  5
137
100
AcDbEntity
  8
Layer_1
 62
7
100
AcDbSpline
 70
8
 71
3
 72
8
 73
4
 74
0
 40
0
 40
0
 40
0
 40
0
 40
1
 40
1
 40
1
 40
1
 10
189.023529
 20
235.053913
 30
0.0
 10
187.780275
 20
233.810659
 30
0.0
 10
186.094061
 20
233.112206
 30
0.0
 10
184.335835
 20
233.112206
 30
0.0
  0
SPLINE
  5
138
100
AcDbEntity
  8
Layer_1
 62
7
100
AcDbSpline
 70
8
 71
3
 72
8
 73
4
 74
0
 40
0
 40
0
 40
0
 40
0
 40
1
 40
1
 40
1
 40
1
 10
184.335835
 20
233.112206
 30
0.0
 10
182.577609
 20
233.112206
 30
0.0
 10
180.891395
 20
233.810659
 30
0.0
 10
179.648141
 20
235.053913
 30
0.0
  0
SPLINE
  5
139
100
AcDbEntity
  8
Layer_1
 62
7
100
AcDbSpline
 70
8
 71
3
 72
8
 73
4
 74
0
 40
0
 40
0
 40
0
 40
0
 40
1
 40
1
 40
1
 40
1
 10
179.648141
 20
235.053913
 30
0.0
 10
178.404887
 20
236.297167
 30
0.0
 10
177.706435
 20
237.983381
 30
0.0
 10
177.706435
 20
239.741608
 30
0.0
  0
SPLINE
  5
13a
100
AcDbEntity
  8
Layer_1
 62
7
100
AcDbSpline
 70
8
 71
3
 72
8
 73
4
 74
0
 40
0
 40
0
 40
0
 40
0
 40
1
 40
1
 40
1
 40
1
 10
177.706435
 20
239.741608
 30
0.0
 10
177.706435
 20
243.402925
 30
0.0
 10
180.674519
 20
246.371008
 30
0.0
 10
184.335835
 20
246.371008
 30
0.0
  0
SPLINE
  5
13b
100
AcDbEntity
  8
Layer_1
 62
7
100
AcDbSpline
 70
8
 71
3
 72
8
 73
4
 74
0
 40
0
 40
0
 40
0
 40
0
 40
1
 40
1
 40
1
 40
1
 10
184.335835
 20
246.371008
 30
0.0
 10
187.997151
 20
246.371008
 30
0.0
 10
190.965235
 20
243.402925
 30
0.0
 10
190.965235
 20
239.741608
 30
0.0
  0
LINE
  5
13c
100
AcDbEntity
  8
Layer_1
 62
7
100
AcDbLine
 10
190.965235
 20
239.741608
 30
0.0
 11
190.965235
 21
239.741608
 31
0.0
  0
SPLINE
  5
13d
100
AcDbEntity
  8
Layer_1
 62
7
100
AcDbSpline
 70
8
 71
3
 72
8
 73
4
 74
0
 40
0
 40
0
 40
0
 40
0
 40
1
 40
1
 40
1
 40
1
 10
183.127335
 20
264.085632
 30
0.0
 10
183.127336
 20
262.327405
 30
0.0
 10
182.428883
 20
260.641191
 30
0.0
 10
181.185630
 20
259.397937
 30
0.0
  0
SPLINE
  5
13e
100
AcDbEntity
  8
Layer_1
 62
7
100
AcDbSpline
 70
8
 71
3
 72
8
 73
4
 74
0
 40
0
 40
0
 40
0
 40
0
 40
1
 40
1
 40
1
 40
1
 10
181.185630
 20
259.397937
 30
0.0
 10
179.942376
 20
258.154682
 30
0.0
 10
178.256162
 20
257.456229
 30
0.0
 10
176.497935
 20
257.456229
 30
0.0
  0
SPLINE
  5
13f
100
AcDbEntity
  8
Layer_1
 62
7
100
AcDbSpline
 70
8
 71
3
 72
8
 73
4
 74
0
 40
0
 40
0
 40
0
 40
0
 40
1
 40
1
 40
1
 40
1
 10
176.497935
 20
257.456229
 30
0.0
 10
174.739708
 20
257.456229
 30
0.0
 10
173.053494
 20
258.154682
 30
0.0
 10
171.810240
 20
259.397937
 30
0.0
  0
SPLINE
  5
140
100
AcDbEntity
  8
Layer_1
 62
7
100
AcDbSpline
 70
8
 71
3
 72
8
 73
4
 74
0
 40
0
 40
0
 40
0
 40
0
 40
1
 40
1
 40
1
 40
1
 10
171.810240
 20
259.397937
 30
0.0
 10
170.566987
 20
260.641191
 30
0.0
 10
169.868534
 20
262.327405
 30
0.0
 10
169.868535
 20
264.085632
 30
0.0
  0
SPLINE
  5
141
100
AcDbEntity
  8
Layer_1
 62
7
100
AcDbSpline
 70
8
 71
3
 72
8
 73
4
 74
0
 40
0
 40
0
 40
0
 40
0
 40
1
 40
1
 40
1
 40
1
 10
169.868535
 20
264.085632
 30
0.0
 10
169.868535
 20
267.746948
 30
0.0
 10
172.836619
 20
270.715032
 30
0.0
 10
176.497935
 20
270.715032
 30
0.0
  0
SPLINE
  5
142
100
AcDbEntity
  8
Layer_1
 62
7
100
AcDbSpline
 70
8
 71
3
 72
8
 73
4
 74
0
 40
0
 40
0
 40
0
 40
0
 40
1
 40
1
 40
1
 40
1
 10
176.497935
 20
270.715032
 30
0.0
 10
180.159251
 20
270.715032
 30
0.0
 10
183.127335
 20
267.746948
 30
0.0
 10
183.127335
 20
264.085632
 30
0.0
  0
LINE
  5
143
100
AcDbEntity
  8
Layer_1
 62
7
100
AcDbLine
 10
183.127335
 20
264.085632
 30
0.0
 11
183.127335
 21
264.085632
 31
0.0
  0
SPLINE
  5
144
100
AcDbEntity
  8
Layer_1
 62
7
100
AcDbSpline
 70
8
 71
3
 72
8
 73
4
 74
0
 40
0
 40
0
 40
0
 40
0
 40
1
 40
1
 40
1
 40
1
 10
190.965235
 20
288.392207
 30
0.0
 10
190.965236
 20
286.633980
 30
0.0
 10
190.266783
 20
284.947765
 30
0.0
 10
189.023529
 20
283.704511
 30
0.0
  0
SPLINE
  5
145
100
AcDbEntity
  8
Layer_1
 62
7
100
AcDbSpline
 70
8
 71
3
 72
8
 73
4
 74
0
 40
0
 40
0
 40
0
 40
0
 40
1
 40
1
 40
1
 40
1
 10
189.023529
 20
283.704511
 30
0.0
 10
187.780276
 20
282.461257
 30
0.0
 10
186.094062
 20
281.762804
 30
0.0
 10
184.335835
 20
281.762804
 30
0.0
  0
SPLINE
  5
146
100
AcDbEntity
  8
Layer_1
 62
7
100
AcDbSpline
 70
8
 71
3
 72
8
 73
4
 74
0
 40
0
 40
0
 40
0
 40
0
 40
1
 40
1
 40
1
 40
1
 10
184.335835
 20
281.762804
 30
0.0
 10
182.577608
 20
281.762804
 30
0.0
 10
180.891394
 20
282.461257
 30
0.0
 10
179.648141
 20
283.704511
 30
0.0
  0
SPLINE
  5
147
100
AcDbEntity
  8
Layer_1
 62
7
100
AcDbSpline
 70
8
 71
3
 72
8
 73
4
 74
0
 40
0
 40
0
 40
0
 40
0
 40
1
 40
1
 40
1
 40
1
 10
179.648141
 20
283.704511
 30
0.0
 10
178.404887
 20
284.947765
 30
0.0
 10
177.706434
 20
286.633980
 30
0.0
 10
177.706435
 20
288.392207
 30
0.0
  0
SPLINE
  5
148
100
AcDbEntity
  8
Layer_1
 62
7
100
AcDbSpline
 70
8
 71
3
 72
8
 73
4
 74
0
 40
0
 40
0
 40
0
 40
0
 40
1
 40
1
 40
1
 40
1
 10
177.706435
 20
288.392207
 30
0.0
 10
177.706436
 20
292.053524
 30
0.0
 10
180.674519
 20
295.021607
 30
0.0
 10
184.335835
 20
295.021606
 30
0.0
  0
SPLINE
  5
149
100
AcDbEntity
  8
Layer_1
 62
7
100
AcDbSpline
 70
8
 71
3
 72
8
 73
4
 74
0
 40
0
 40
0
 40
0
 40
0
 40
1
 40
1
 40
1
 40
1
 10
184.335835
 20
295.021606
 30
0.0
 10
187.997151
 20
295.021607
 30
0.0
 10
190.965234
 20
292.053524
 30
0.0
 10
190.965235
 20
288.392207
 30
0.0
  0
LINE
  5
14a
100
AcDbEntity
  8
Layer_1
 62
7
100
AcDbLine
 10
190.965235
 20
288.392207
 30
0.0
 11
190.965235
 21
288.392207
 31
0.0
  0
SPLINE
  5
14b
100
AcDbEntity
  8
Layer_1
 62
7
100
AcDbSpline
 70
8
 71
3
 72
8
 73
4
 74
0
 40
0
 40
0
 40
0
 40
0
 40
1
 40
1
 40
1
 40
1
 10
236.112835
 20
264.100004
 30
0.0
 10
236.112836
 20
259.208988
 30
0.0
 10
234.169887
 20
254.518294
 30
0.0
 10
230.711416
 20
251.059824
 30
0.0
  0
SPLINE
  5
14c
100
AcDbEntity
  8
Layer_1
 62
7
100
AcDbSpline
 70
8
 71
3
 72
8
 73
4
 74
0
 40
0
 40
0
 40
0
 40
0
 40
1
 40
1
 40
1
 40
1
 10
230.711416
 20
251.059824
 30
0.0
 10
227.252945
 20
247.601353
 30
0.0
 10
222.562251
 20
245.658405
 30
0.0
 10
217.671235
 20
245.658406
 30
0.0
  0
SPLINE
  5
14d
100
AcDbEntity
  8
Layer_1
 62
7
100
AcDbSpline
 70
8
 71
3
 72
8
 73
4
 74
0
 40
0
 40
0
 40
0
 40
0
 40
1
 40
1
 40
1
 40
1
 10
217.671235
 20
245.658406
 30
0.0
 10
207.486224
 20
245.658409
 30
0.0
 10
199.229644
 20
253.914993
 30
0.0
 10
199.229645
 20
264.100004
 30
0.0
  0
SPLINE
  5
14e
100
AcDbEntity
  8
Layer_1
 62
7
100
AcDbSpline
 70
8
 71
3
 72
8
 73
4
 74
0
 40
0
 40
0
 40
0
 40
0
 40
1
 40
1
 40
1
 40
1
 10
199.229645
 20
264.100004
 30
0.0
 10
199.229645
 20
274.285014
 30
0.0
 10
207.486225
 20
282.541597
 30
0.0
 10
217.671235
 20
282.541600
 30
0.0
  0
SPLINE
  5
14f
100
AcDbEntity
  8
Layer_1
 62
7
100
AcDbSpline
 70
8
 71
3
 72
8
 73
4
 74
0
 40
0
 40
0
 40
0
 40
0
 40
1
 40
1
 40
1
 40
1
 10
217.671235
 20
282.541600
 30
0.0
 10
222.562251
 20
282.541601
 30
0.0
 10
227.252944
 20
280.598653
 30
0.0
 10
230.711415
 20
277.140183
 30
0.0
  0
SPLINE
  5
150
100
AcDbEntity
  8
Layer_1
 62
7
100
AcDbSpline
 70
8
 71
3
 72
8
 73
4
 74
0
 40
0
 40
0
 40
0
 40
0
 40
1
 40
1
 40
1
 40
1
 10
230.711415
 20
277.140183
 30
0.0
 10
234.169886
 20
273.681713
 30
0.0
 10
236.112835
 20
268.991020
 30
0.0
 10
236.112835
 20
264.100004
 30
0.0
  0
LINE
  5
151
100
AcDbEntity
  8
Layer_1
 62
7
100
AcDbLine
 10
236.112835
 20
264.100004
 30
0.0
 11
236.112835
 21
264.100004
 31
0.0
  0
LINE
  5
152
100
AcDbEntity
  8
Layer_1
 62
7
100
AcDbLine
 10
10.100000
 20
111.700002
 30
0.0
 11
10.100000
 21
115.231112
 31
0.0
  0
LINE
  5
153
100
AcDbEntity
  8
Layer_1
 62
7
100
AcDbLine
 10
10.100000
 20
115.231112
 30
0.0
 11
13.275000
 21
115.231112
 31
0.0
  0
LINE
  5
154
100
AcDbEntity
  8
Layer_1
 62
7
100
AcDbLine
 10
13.275000
 20
115.231112
 30
0.0
 11
13.275000
 21
121.141112
 31
0.0
  0
LINE
  5
155
100
AcDbEntity
  8
Layer_1
 62
7
100
AcDbLine
 10
13.275000
 20
121.141112
 30
0.0
 11
10.100000
 21
121.141112
 31
0.0
  0
LINE
  5
156
100
AcDbEntity
  8
Layer_1
 62
7
100
AcDbLine
 10
10.100000
 20
121.141112
 30
0.0
 11
10.100000
 21
127.892222
 31
0.0
  0
LINE
  5
157
100
AcDbEntity
  8
Layer_1
 62
7
100
AcDbLine
 10
10.100000
 20
127.892222
 30
0.0
 11
13.275000
 21
127.892222
 31
0.0
  0
LINE
  5
158
100
AcDbEntity
  8
Layer_1
 62
7
100
AcDbLine
 10
13.275000
 20
127.892222
 30
0.0
 11
13.275000
 21
133.802222
 31
0.0
  0
LINE
  5
159
100
AcDbEntity
  8
Layer_1
 62
7
100
AcDbLine
 10
13.275000
 20
133.802222
 30
0.0
 11
10.100000
 21
133.802222
 31
0.0
  0
LINE
  5
15a
100
AcDbEntity
  8
Layer_1
 62
7
100
AcDbLine
 10
10.100000
 20
133.802222
 30
0.0
 11
10.100000
 21
140.553332
 31
0.0
  0
LINE
  5
15b
100
AcDbEntity
  8
Layer_1
 62
7
100
AcDbLine
 10
10.100000
 20
140.553332
 30
0.0
 11
13.275000
 21
140.553332
 31
0.0
  0
LINE
  5
15c
100
AcDbEntity
  8
Layer_1
 62
7
100
AcDbLine
 10
13.275000
 20
140.553332
 30
0.0
 11
13.275000
 21
146.463332
 31
0.0
  0
LINE
  5
15d
100
AcDbEntity
  8
Layer_1
 62
7
100
AcDbLine
 10
13.275000
 20
146.463332
 30
0.0
 11
10.100000
 21
146.463332
 31
0.0
  0
LINE
  5
15e
100
AcDbEntity
  8
Layer_1
 62
7
100
AcDbLine
 10
10.100000
 20
146.463332
 30
0.0
 11
10.100000
 21
153.214442
 31
0.0
  0
LINE
  5
15f
100
AcDbEntity
  8
Layer_1
 62
7
100
AcDbLine
 10
10.100000
 20
153.214442
 30
0.0
 11
13.275000
 21
153.214442
 31
0.0
  0
LINE
  5
160
100
AcDbEntity
  8
Layer_1
 62
7
100
AcDbLine
 10
13.275000
 20
153.214442
 30
0.0
 11
13.275000
 21
159.124442
 31
0.0
  0
LINE
  5
161
100
AcDbEntity
  8
Layer_1
 62
7
100
AcDbLine
 10
13.275000
 20
159.124442
 30
0.0
 11
10.100000
 21
159.124442
 31
0.0
  0
LINE
  5
162
100
AcDbEntity
  8
Layer_1
 62
7
100
AcDbLine
 10
10.100000
 20
159.124442
 30
0.0
 11
10.100000
 21
165.875552
 31
0.0
  0
LINE
  5
163
100
AcDbEntity
  8
Layer_1
 62
7
100
AcDbLine
 10
10.100000
 20
165.875552
 30
0.0
 11
13.275000
 21
165.875552
 31
0.0
  0
LINE
  5
164
100
AcDbEntity
  8
Layer_1
 62
7
100
AcDbLine
 10
13.275000
 20
165.875552
 30
0.0
 11
13.275000
 21
171.785552
 31
0.0
  0
LINE
  5
165
100
AcDbEntity
  8
Layer_1
 62
7
100
AcDbLine
 10
13.275000
 20
171.785552
 30
0.0
 11
10.100000
 21
171.785552
 31
0.0
  0
LINE
  5
166
100
AcDbEntity
  8
Layer_1
 62
7
100
AcDbLine
 10
10.100000
 20
171.785552
 30
0.0
 11
10.100000
 21
178.536662
 31
0.0
  0
LINE
  5
167
100
AcDbEntity
  8
Layer_1
 62
7
100
AcDbLine
 10
10.100000
 20
178.536662
 30
0.0
 11
13.275000
 21
178.536662
 31
0.0
  0
LINE
  5
168
100
AcDbEntity
  8
Layer_1
 62
7
100
AcDbLine
 10
13.275000
 20
178.536662
 30
0.0
 11
13.275000
 21
184.446662
 31
0.0
  0
LINE
  5
169
100
AcDbEntity
  8
Layer_1
 62
7
100
AcDbLine
 10
13.275000
 20
184.446662
 30
0.0
 11
10.100000
 21
184.446662
 31
0.0
  0
LINE
  5
16a
100
AcDbEntity
  8
Layer_1
 62
7
100
AcDbLine
 10
10.100000
 20
184.446662
 30
0.0
 11
10.100000
 21
191.197782
 31
0.0
  0
LINE
  5
16b
100
AcDbEntity
  8
Layer_1
 62
7
100
AcDbLine
 10
10.100000
 20
191.197782
 30
0.0
 11
13.275000
 21
191.197782
 31
0.0
  0
LINE
  5
16c
100
AcDbEntity
  8
Layer_1
 62
7
100
AcDbLine
 10
13.275000
 20
191.197782
 30
0.0
 11
13.275000
 21
197.107782
 31
0.0
  0
LINE
  5
16d
100
AcDbEntity
  8
Layer_1
 62
7
100
AcDbLine
 10
13.275000
 20
197.107782
 30
0.0
 11
10.100000
 21
197.107782
 31
0.0
  0
LINE
  5
16e
100
AcDbEntity
  8
Layer_1
 62
7
100
AcDbLine
 10
10.100000
 20
197.107782
 30
0.0
 11
10.100000
 21
203.858890
 31
0.0
  0
LINE
  5
16f
100
AcDbEntity
  8
Layer_1
 62
7
100
AcDbLine
 10
10.100000
 20
203.858890
 30
0.0
 11
13.275000
 21
203.858890
 31
0.0
  0
LINE
  5
170
100
AcDbEntity
  8
Layer_1
 62
7
100
AcDbLine
 10
13.275000
 20
203.858890
 30
0.0
 11
13.275000
 21
209.768890
 31
0.0
  0
LINE
  5
171
100
AcDbEntity
  8
Layer_1
 62
7
100
AcDbLine
 10
13.275000
 20
209.768890
 30
0.0
 11
10.100000
 21
209.768890
 31
0.0
  0
LINE
  5
172
100
AcDbEntity
  8
Layer_1
 62
7
100
AcDbLine
 10
10.100000
 20
209.768890
 30
0.0
 11
10.100000
 21
213.300000
 31
0.0
  0
LINE
  5
173
100
AcDbEntity
  8
Layer_1
 62
7
100
AcDbLine
 10
292.679975
 20
213.300000
 30
0.0
 11
292.679975
 21
209.768890
 31
0.0
  0
LINE
  5
174
100
AcDbEntity
  8
Layer_1
 62
7
100
AcDbLine
 10
292.679975
 20
209.768890
 30
0.0
 11
289.504975
 21
209.768890
 31
0.0
  0
LINE
  5
175
100
AcDbEntity
  8
Layer_1
 62
7
100
AcDbLine
 10
289.504975
 20
209.768890
 30
0.0
 11
289.504975
 21
203.858890
 31
0.0
  0
LINE
  5
176
100
AcDbEntity
  8
Layer_1
 62
7
100
AcDbLine
 10
289.504975
 20
203.858890
 30
0.0
 11
292.679975
 21
203.858890
 31
0.0
  0
LINE
  5
177
100
AcDbEntity
  8
Layer_1
 62
7
100
AcDbLine
 10
292.679975
 20
203.858890
 30
0.0
 11
292.679975
 21
197.107782
 31
0.0
  0
LINE
  5
178
100
AcDbEntity
  8
Layer_1
 62
7
100
AcDbLine
 10
292.679975
 20
197.107782
 30
0.0
 11
289.504975
 21
197.107782
 31
0.0
  0
LINE
  5
179
100
AcDbEntity
  8
Layer_1
 62
7
100
AcDbLine
 10
289.504975
 20
197.107782
 30
0.0
 11
289.504975
 21
191.197782
 31
0.0
  0
LINE
  5
17a
100
AcDbEntity
  8
Layer_1
 62
7
100
AcDbLine
 10
289.504975
 20
191.197782
 30
0.0
 11
292.679975
 21
191.197782
 31
0.0
  0
LINE
  5
17b
100
AcDbEntity
  8
Layer_1
 62
7
100
AcDbLine
 10
292.679975
 20
191.197782
 30
0.0
 11
292.679975
 21
184.446662
 31
0.0
  0
LINE
  5
17c
100
AcDbEntity
  8
Layer_1
 62
7
100
AcDbLine
 10
292.679975
 20
184.446662
 30
0.0
 11
289.504975
 21
184.446662
 31
0.0
  0
LINE
  5
17d
100
AcDbEntity
  8
Layer_1
 62
7
100
AcDbLine
 10
289.504975
 20
184.446662
 30
0.0
 11
289.504975
 21
178.536662
 31
0.0
  0
LINE
  5
17e
100
AcDbEntity
  8
Layer_1
 62
7
100
AcDbLine
 10
289.504975
 20
178.536662
 30
0.0
 11
292.679975
 21
178.536662
 31
0.0
  0
LINE
  5
17f
100
AcDbEntity
  8
Layer_1
 62
7
100
AcDbLine
 10
292.679975
 20
178.536662
 30
0.0
 11
292.679975
 21
171.785552
 31
0.0
  0
LINE
  5
180
100
AcDbEntity
  8
Layer_1
 62
7
100
AcDbLine
 10
292.679975
 20
171.785552
 30
0.0
 11
289.504975
 21
171.785552
 31
0.0
  0
LINE
  5
181
100
AcDbEntity
  8
Layer_1
 62
7
100
AcDbLine
 10
289.504975
 20
171.785552
 30
0.0
 11
289.504975
 21
165.875552
 31
0.0
  0
LINE
  5
182
100
AcDbEntity
  8
Layer_1
 62
7
100
AcDbLine
 10
289.504975
 20
165.875552
 30
0.0
 11
292.679975
 21
165.875552
 31
0.0
  0
LINE
  5
183
100
AcDbEntity
  8
Layer_1
 62
7
100
AcDbLine
 10
292.679975
 20
165.875552
 30
0.0
 11
292.679975
 21
159.124442
 31
0.0
  0
LINE
  5
184
100
AcDbEntity
  8
Layer_1
 62
7
100
AcDbLine
 10
292.679975
 20
159.124442
 30
0.0
 11
289.504975
 21
159.124442
 31
0.0
  0
LINE
  5
185
100
AcDbEntity
  8
Layer_1
 62
7
100
AcDbLine
 10
289.504975
 20
159.124442
 30
0.0
 11
289.504975
 21
153.214442
 31
0.0
  0
LINE
  5
186
100
AcDbEntity
  8
Layer_1
 62
7
100
AcDbLine
 10
289.504975
 20
153.214442
 30
0.0
 11
292.679975
 21
153.214442
 31
0.0
  0
LINE
  5
187
100
AcDbEntity
  8
Layer_1
 62
7
100
AcDbLine
 10
292.679975
 20
153.214442
 30
0.0
 11
292.679975
 21
146.463332
 31
0.0
  0
LINE
  5
188
100
AcDbEntity
  8
Layer_1
 62
7
100
AcDbLine
 10
292.679975
 20
146.463332
 30
0.0
 11
289.504975
 21
146.463332
 31
0.0
  0
LINE
  5
189
100
AcDbEntity
  8
Layer_1
 62
7
100
AcDbLine
 10
289.504975
 20
146.463332
 30
0.0
 11
289.504975
 21
140.553332
 31
0.0
  0
LINE
  5
18a
100
AcDbEntity
  8
Layer_1
 62
7
100
AcDbLine
 10
289.504975
 20
140.553332
 30
0.0
 11
292.679975
 21
140.553332
 31
0.0
  0
LINE
  5
18b
100
AcDbEntity
  8
Layer_1
 62
7
100
AcDbLine
 10
292.679975
 20
140.553332
 30
0.0
 11
292.679975
 21
133.802222
 31
0.0
  0
LINE
  5
18c
100
AcDbEntity
  8
Layer_1
 62
7
100
AcDbLine
 10
292.679975
 20
133.802222
 30
0.0
 11
289.504975
 21
133.802222
 31
0.0
  0
LINE
  5
18d
100
AcDbEntity
  8
Layer_1
 62
7
100
AcDbLine
 10
289.504975
 20
133.802222
 30
0.0
 11
289.504975
 21
127.892222
 31
0.0
  0
LINE
  5
18e
100
AcDbEntity
  8
Layer_1
 62
7
100
AcDbLine
 10
289.504975
 20
127.892222
 30
0.0
 11
292.679975
 21
127.892222
 31
0.0
  0
LINE
  5
18f
100
AcDbEntity
  8
Layer_1
 62
7
100
AcDbLine
 10
292.679975
 20
127.892222
 30
0.0
 11
292.679975
 21
121.141112
 31
0.0
  0
LINE
  5
190
100
AcDbEntity
  8
Layer_1
 62
7
100
AcDbLine
 10
292.679975
 20
121.141112
 30
0.0
 11
289.504975
 21
121.141112
 31
0.0
  0
LINE
  5
191
100
AcDbEntity
  8
Layer_1
 62
7
100
AcDbLine
 10
289.504975
 20
121.141112
 30
0.0
 11
289.504975
 21
115.231112
 31
0.0
  0
LINE
  5
192
100
AcDbEntity
  8
Layer_1
 62
7
100
AcDbLine
 10
289.504975
 20
115.231112
 30
0.0
 11
292.679975
 21
115.231112
 31
0.0
  0
LINE
  5
193
100
AcDbEntity
  8
Layer_1
 62
7
100
AcDbLine
 10
292.679975
 20
115.231112
 30
0.0
 11
292.679975
 21
111.700002
 31
0.0
  0
LINE
  5
194
100
AcDbEntity
  8
Layer_1
 62
7
100
AcDbLine
 10
10.100000
 20
213.300000
 30
0.0
 11
16.079160
 21
213.300000
 31
0.0
  0
LINE
  5
195
100
AcDbEntity
  8
Layer_1
 62
7
100
AcDbLine
 10
16.079160
 20
213.300000
 30
0.0
 11
16.079160
 21
213.300000
 31
0.0
  0
LINE
  5
196
100
AcDbEntity
  8
Layer_1
 62
7
100
AcDbLine
 10
16.079160
 20
213.300000
 30
0.0
 11
22.169160
 21
213.300000
 31
0.0
  0
LINE
  5
197
100
AcDbEntity
  8
Layer_1
 62
7
100
AcDbLine
 10
22.169160
 20
213.300000
 30
0.0
 11
22.169160
 21
213.300000
 31
0.0
  0
LINE
  5
198
100
AcDbEntity
  8
Layer_1
 62
7
100
AcDbLine
 10
22.169160
 20
213.300000
 30
0.0
 11
28.103330
 21
213.300000
 31
0.0
  0
LINE
  5
199
100
AcDbEntity
  8
Layer_1
 62
7
100
AcDbLine
 10
28.103330
 20
213.300000
 30
0.0
 11
28.103330
 21
213.300000
 31
0.0
  0
LINE
  5
19a
100
AcDbEntity
  8
Layer_1
 62
7
100
AcDbLine
 10
28.103330
 20
213.300000
 30
0.0
 11
34.193330
 21
213.300000
 31
0.0
  0
LINE
  5
19b
100
AcDbEntity
  8
Layer_1
 62
7
100
AcDbLine
 10
34.193330
 20
213.300000
 30
0.0
 11
34.193330
 21
213.300000
 31
0.0
  0
LINE
  5
19c
100
AcDbEntity
  8
Layer_1
 62
7
100
AcDbLine
 10
34.193330
 20
213.300000
 30
0.0
 11
40.127500
 21
213.300000
 31
0.0
  0
LINE
  5
19d
100
AcDbEntity
  8
Layer_1
 62
7
100
AcDbLine
 10
40.127500
 20
213.300000
 30
0.0
 11
40.127500
 21
213.300000
 31
0.0
  0
LINE
  5
19e
100
AcDbEntity
  8
Layer_1
 62
7
100
AcDbLine
 10
40.127500
 20
213.300000
 30
0.0
 11
46.217500
 21
213.300000
 31
0.0
  0
LINE
  5
19f
100
AcDbEntity
  8
Layer_1
 62
7
100
AcDbLine
 10
46.217500
 20
213.300000
 30
0.0
 11
46.217500
 21
213.300000
 31
0.0
  0
LINE
  5
1a0
100
AcDbEntity
  8
Layer_1
 62
7
100
AcDbLine
 10
46.217500
 20
213.300000
 30
0.0
 11
52.151660
 21
213.300000
 31
0.0
  0
LINE
  5
1a1
100
AcDbEntity
  8
Layer_1
 62
7
100
AcDbLine
 10
52.151660
 20
213.300000
 30
0.0
 11
52.151660
 21
213.300000
 31
0.0
  0
LINE
  5
1a2
100
AcDbEntity
  8
Layer_1
 62
7
100
AcDbLine
 10
52.151660
 20
213.300000
 30
0.0
 11
58.241660
 21
213.300000
 31
0.0
  0
LINE
  5
1a3
100
AcDbEntity
  8
Layer_1
 62
7
100
AcDbLine
 10
58.241660
 20
213.300000
 30
0.0
 11
58.241660
 21
213.300000
 31
0.0
  0
LINE
  5
1a4
100
AcDbEntity
  8
Layer_1
 62
7
100
AcDbLine
 10
58.241660
 20
213.300000
 30
0.0
 11
64.175830
 21
213.300000
 31
0.0
  0
LINE
  5
1a5
100
AcDbEntity
  8
Layer_1
 62
7
100
AcDbLine
 10
64.175830
 20
213.300000
 30
0.0
 11
64.175830
 21
213.300000
 31
0.0
  0
LINE
  5
1a6
100
AcDbEntity
  8
Layer_1
 62
7
100
AcDbLine
 10
64.175830
 20
213.300000
 30
0.0
 11
70.265830
 21
213.300000
 31
0.0
  0
LINE
  5
1a7
100
AcDbEntity
  8
Layer_1
 62
7
100
AcDbLine
 10
70.265830
 20
213.300000
 30
0.0
 11
70.265830
 21
213.300000
 31
0.0
  0
LINE
  5
1a8
100
AcDbEntity
  8
Layer_1
 62
7
100
AcDbLine
 10
70.265830
 20
213.300000
 30
0.0
 11
76.199990
 21
213.300000
 31
0.0
  0
LINE
  5
1a9
100
AcDbEntity
  8
Layer_1
 62
7
100
AcDbLine
 10
76.199990
 20
213.300000
 30
0.0
 11
76.199990
 21
213.300000
 31
0.0
  0
LINE
  5
1aa
100
AcDbEntity
  8
Layer_1
 62
7
100
AcDbLine
 10
76.199990
 20
213.300000
 30
0.0
 11
82.289990
 21
213.300000
 31
0.0
  0
LINE
  5
1ab
100
AcDbEntity
  8
Layer_1
 62
7
100
AcDbLine
 10
82.289990
 20
213.300000
 30
0.0
 11
82.289990
 21
213.300000
 31
0.0
  0
LINE
  5
1ac
100
AcDbEntity
  8
Layer_1
 62
7
100
AcDbLine
 10
82.289990
 20
213.300000
 30
0.0
 11
88.224160
 21
213.300000
 31
0.0
  0
LINE
  5
1ad
100
AcDbEntity
  8
Layer_1
 62
7
100
AcDbLine
 10
88.224160
 20
213.300000
 30
0.0
 11
88.224160
 21
213.300000
 31
0.0
  0
LINE
  5
1ae
100
AcDbEntity
  8
Layer_1
 62
7
100
AcDbLine
 10
88.224160
 20
213.300000
 30
0.0
 11
94.314160
 21
213.300000
 31
0.0
  0
LINE
  5
1af
100
AcDbEntity
  8
Layer_1
 62
7
100
AcDbLine
 10
94.314160
 20
213.300000
 30
0.0
 11
94.314160
 21
213.300000
 31
0.0
  0
LINE
  5
1b0
100
AcDbEntity
  8
Layer_1
 62
7
100
AcDbLine
 10
94.314160
 20
213.300000
 30
0.0
 11
100.248330
 21
213.300000
 31
0.0
  0
LINE
  5
1b1
100
AcDbEntity
  8
Layer_1
 62
7
100
AcDbLine
 10
100.248330
 20
213.300000
 30
0.0
 11
100.248330
 21
213.300000
 31
0.0
  0
LINE
  5
1b2
100
AcDbEntity
  8
Layer_1
 62
7
100
AcDbLine
 10
100.248330
 20
213.300000
 30
0.0
 11
106.338330
 21
213.300000
 31
0.0
  0
LINE
  5
1b3
100
AcDbEntity
  8
Layer_1
 62
7
100
AcDbLine
 10
106.338330
 20
213.300000
 30
0.0
 11
106.338330
 21
213.300000
 31
0.0
  0
LINE
  5
1b4
100
AcDbEntity
  8
Layer_1
 62
7
100
AcDbLine
 10
106.338330
 20
213.300000
 30
0.0
 11
112.272490
 21
213.300000
 31
0.0
  0
LINE
  5
1b5
100
AcDbEntity
  8
Layer_1
 62
7
100
AcDbLine
 10
112.272490
 20
213.300000
 30
0.0
 11
112.272490
 21
213.300000
 31
0.0
  0
LINE
  5
1b6
100
AcDbEntity
  8
Layer_1
 62
7
100
AcDbLine
 10
112.272490
 20
213.300000
 30
0.0
 11
118.362490
 21
213.300000
 31
0.0
  0
LINE
  5
1b7
100
AcDbEntity
  8
Layer_1
 62
7
100
AcDbLine
 10
118.362490
 20
213.300000
 30
0.0
 11
118.362490
 21
213.300000
 31
0.0
  0
LINE
  5
1b8
100
AcDbEntity
  8
Layer_1
 62
7
100
AcDbLine
 10
118.362490
 20
213.300000
 30
0.0
 11
124.296655
 21
213.300000
 31
0.0
  0
LINE
  5
1b9
100
AcDbEntity
  8
Layer_1
 62
7
100
AcDbLine
 10
124.296655
 20
213.300000
 30
0.0
 11
124.296655
 21
213.300000
 31
0.0
  0
LINE
  5
1ba
100
AcDbEntity
  8
Layer_1
 62
7
100
AcDbLine
 10
124.296655
 20
213.300000
 30
0.0
 11
130.386655
 21
213.300000
 31
0.0
  0
LINE
  5
1bb
100
AcDbEntity
  8
Layer_1
 62
7
100
AcDbLine
 10
130.386655
 20
213.300000
 30
0.0
 11
130.386655
 21
213.300000
 31
0.0
  0
LINE
  5
1bc
100
AcDbEntity
  8
Layer_1
 62
7
100
AcDbLine
 10
130.386655
 20
213.300000
 30
0.0
 11
136.320815
 21
213.300000
 31
0.0
  0
LINE
  5
1bd
100
AcDbEntity
  8
Layer_1
 62
7
100
AcDbLine
 10
136.320815
 20
213.300000
 30
0.0
 11
136.320815
 21
213.300000
 31
0.0
  0
LINE
  5
1be
100
AcDbEntity
  8
Layer_1
 62
7
100
AcDbLine
 10
136.320815
 20
213.300000
 30
0.0
 11
142.410815
 21
213.300000
 31
0.0
  0
LINE
  5
1bf
100
AcDbEntity
  8
Layer_1
 62
7
100
AcDbLine
 10
142.410815
 20
213.300000
 30
0.0
 11
142.410815
 21
213.300000
 31
0.0
  0
LINE
  5
1c0
100
AcDbEntity
  8
Layer_1
 62
7
100
AcDbLine
 10
142.410815
 20
213.300000
 30
0.0
 11
148.344985
 21
213.300000
 31
0.0
  0
LINE
  5
1c1
100
AcDbEntity
  8
Layer_1
 62
7
100
AcDbLine
 10
148.344985
 20
213.300000
 30
0.0
 11
148.344985
 21
213.300000
 31
0.0
  0
LINE
  5
1c2
100
AcDbEntity
  8
Layer_1
 62
7
100
AcDbLine
 10
148.344985
 20
213.300000
 30
0.0
 11
154.434985
 21
213.300000
 31
0.0
  0
LINE
  5
1c3
100
AcDbEntity
  8
Layer_1
 62
7
100
AcDbLine
 10
154.434985
 20
213.300000
 30
0.0
 11
154.434985
 21
213.300000
 31
0.0
  0
LINE
  5
1c4
100
AcDbEntity
  8
Layer_1
 62
7
100
AcDbLine
 10
154.434985
 20
213.300000
 30
0.0
 11
160.369155
 21
213.300000
 31
0.0
  0
LINE
  5
1c5
100
AcDbEntity
  8
Layer_1
 62
7
100
AcDbLine
 10
160.369155
 20
213.300000
 30
0.0
 11
160.369155
 21
213.300000
 31
0.0
  0
LINE
  5
1c6
100
AcDbEntity
  8
Layer_1
 62
7
100
AcDbLine
 10
160.369155
 20
213.300000
 30
0.0
 11
166.459155
 21
213.300000
 31
0.0
  0
LINE
  5
1c7
100
AcDbEntity
  8
Layer_1
 62
7
100
AcDbLine
 10
166.459155
 20
213.300000
 30
0.0
 11
166.459155
 21
213.300000
 31
0.0
  0
LINE
  5
1c8
100
AcDbEntity
  8
Layer_1
 62
7
100
AcDbLine
 10
166.459155
 20
213.300000
 30
0.0
 11
172.393315
 21
213.300000
 31
0.0
  0
LINE
  5
1c9
100
AcDbEntity
  8
Layer_1
 62
7
100
AcDbLine
 10
172.393315
 20
213.300000
 30
0.0
 11
172.393315
 21
213.300000
 31
0.0
  0
LINE
  5
1ca
100
AcDbEntity
  8
Layer_1
 62
7
100
AcDbLine
 10
172.393315
 20
213.300000
 30
0.0
 11
178.483315
 21
213.300000
 31
0.0
  0
LINE
  5
1cb
100
AcDbEntity
  8
Layer_1
 62
7
100
AcDbLine
 10
178.483315
 20
213.300000
 30
0.0
 11
178.483315
 21
213.300000
 31
0.0
  0
LINE
  5
1cc
100
AcDbEntity
  8
Layer_1
 62
7
100
AcDbLine
 10
178.483315
 20
213.300000
 30
0.0
 11
184.417485
 21
213.300000
 31
0.0
  0
LINE
  5
1cd
100
AcDbEntity
  8
Layer_1
 62
7
100
AcDbLine
 10
184.417485
 20
213.300000
 30
0.0
 11
184.417485
 21
213.300000
 31
0.0
  0
LINE
  5
1ce
100
AcDbEntity
  8
Layer_1
 62
7
100
AcDbLine
 10
184.417485
 20
213.300000
 30
0.0
 11
190.507485
 21
213.300000
 31
0.0
  0
LINE
  5
1cf
100
AcDbEntity
  8
Layer_1
 62
7
100
AcDbLine
 10
190.507485
 20
213.300000
 30
0.0
 11
190.507485
 21
213.300000
 31
0.0
  0
LINE
  5
1d0
100
AcDbEntity
  8
Layer_1
 62
7
100
AcDbLine
 10
190.507485
 20
213.300000
 30
0.0
 11
196.441645
 21
213.300000
 31
0.0
  0
LINE
  5
1d1
100
AcDbEntity
  8
Layer_1
 62
7
100
AcDbLine
 10
196.441645
 20
213.300000
 30
0.0
 11
196.441645
 21
213.300000
 31
0.0
  0
LINE
  5
1d2
100
AcDbEntity
  8
Layer_1
 62
7
100
AcDbLine
 10
196.441645
 20
213.300000
 30
0.0
 11
202.531645
 21
213.300000
 31
0.0
  0
LINE
  5
1d3
100
AcDbEntity
  8
Layer_1
 62
7
100
AcDbLine
 10
202.531645
 20
213.300000
 30
0.0
 11
202.531645
 21
213.300000
 31
0.0
  0
LINE
  5
1d4
100
AcDbEntity
  8
Layer_1
 62
7
100
AcDbLine
 10
202.531645
 20
213.300000
 30
0.0
 11
208.465815
 21
213.300000
 31
0.0
  0
LINE
  5
1d5
100
AcDbEntity
  8
Layer_1
 62
7
100
AcDbLine
 10
208.465815
 20
213.300000
 30
0.0
 11
208.465815
 21
213.300000
 31
0.0
  0
LINE
  5
1d6
100
AcDbEntity
  8
Layer_1
 62
7
100
AcDbLine
 10
208.465815
 20
213.300000
 30
0.0
 11
214.555815
 21
213.300000
 31
0.0
  0
LINE
  5
1d7
100
AcDbEntity
  8
Layer_1
 62
7
100
AcDbLine
 10
214.555815
 20
213.300000
 30
0.0
 11
214.555815
 21
213.300000
 31
0.0
  0
LINE
  5
1d8
100
AcDbEntity
  8
Layer_1
 62
7
100
AcDbLine
 10
214.555815
 20
213.300000
 30
0.0
 11
220.489985
 21
213.300000
 31
0.0
  0
LINE
  5
1d9
100
AcDbEntity
  8
Layer_1
 62
7
100
AcDbLine
 10
220.489985
 20
213.300000
 30
0.0
 11
220.489985
 21
213.300000
 31
0.0
  0
LINE
  5
1da
100
AcDbEntity
  8
Layer_1
 62
7
100
AcDbLine
 10
220.489985
 20
213.300000
 30
0.0
 11
226.579985
 21
213.300000
 31
0.0
  0
LINE
  5
1db
100
AcDbEntity
  8
Layer_1
 62
7
100
AcDbLine
 10
226.579985
 20
213.300000
 30
0.0
 11
226.579985
 21
213.300000
 31
0.0
  0
LINE
  5
1dc
100
AcDbEntity
  8
Layer_1
 62
7
100
AcDbLine
 10
226.579985
 20
213.300000
 30
0.0
 11
232.514145
 21
213.300000
 31
0.0
  0
LINE
  5
1dd
100
AcDbEntity
  8
Layer_1
 62
7
100
AcDbLine
 10
232.514145
 20
213.300000
 30
0.0
 11
232.514145
 21
213.300000
 31
0.0
  0
LINE
  5
1de
100
AcDbEntity
  8
Layer_1
 62
7
100
AcDbLine
 10
232.514145
 20
213.300000
 30
0.0
 11
238.604145
 21
213.300000
 31
0.0
  0
LINE
  5
1df
100
AcDbEntity
  8
Layer_1
 62
7
100
AcDbLine
 10
238.604145
 20
213.300000
 30
0.0
 11
238.604145
 21
213.300000
 31
0.0
  0
LINE
  5
1e0
100
AcDbEntity
  8
Layer_1
 62
7
100
AcDbLine
 10
238.604145
 20
213.300000
 30
0.0
 11
244.538315
 21
213.300000
 31
0.0
  0
LINE
  5
1e1
100
AcDbEntity
  8
Layer_1
 62
7
100
AcDbLine
 10
244.538315
 20
213.300000
 30
0.0
 11
244.538315
 21
213.300000
 31
0.0
  0
LINE
  5
1e2
100
AcDbEntity
  8
Layer_1
 62
7
100
AcDbLine
 10
244.538315
 20
213.300000
 30
0.0
 11
250.628315
 21
213.300000
 31
0.0
  0
LINE
  5
1e3
100
AcDbEntity
  8
Layer_1
 62
7
100
AcDbLine
 10
250.628315
 20
213.300000
 30
0.0
 11
250.628315
 21
213.300000
 31
0.0
  0
LINE
  5
1e4
100
AcDbEntity
  8
Layer_1
 62
7
100
AcDbLine
 10
250.628315
 20
213.300000
 30
0.0
 11
256.562485
 21
213.300000
 31
0.0
  0
LINE
  5
1e5
100
AcDbEntity
  8
Layer_1
 62
7
100
AcDbLine
 10
256.562485
 20
213.300000
 30
0.0
 11
256.562485
 21
213.300000
 31
0.0
  0
LINE
  5
1e6
100
AcDbEntity
  8
Layer_1
 62
7
100
AcDbLine
 10
256.562485
 20
213.300000
 30
0.0
 11
262.652485
 21
213.300000
 31
0.0
  0
LINE
  5
1e7
100
AcDbEntity
  8
Layer_1
 62
7
100
AcDbLine
 10
262.652485
 20
213.300000
 30
0.0
 11
262.652485
 21
213.300000
 31
0.0
  0
LINE
  5
1e8
100
AcDbEntity
  8
Layer_1
 62
7
100
AcDbLine
 10
262.652485
 20
213.300000
 30
0.0
 11
268.586645
 21
213.300000
 31
0.0
  0
LINE
  5
1e9
100
AcDbEntity
  8
Layer_1
 62
7
100
AcDbLine
 10
268.586645
 20
213.300000
 30
0.0
 11
268.586645
 21
213.300000
 31
0.0
  0
LINE
  5
1ea
100
AcDbEntity
  8
Layer_1
 62
7
100
AcDbLine
 10
268.586645
 20
213.300000
 30
0.0
 11
274.676645
 21
213.300000
 31
0.0
  0
LINE
  5
1eb
100
AcDbEntity
  8
Layer_1
 62
7
100
AcDbLine
 10
274.676645
 20
213.300000
 30
0.0
 11
274.676645
 21
213.300000
 31
0.0
  0
LINE
  5
1ec
100
AcDbEntity
  8
Layer_1
 62
7
100
AcDbLine
 10
274.676645
 20
213.300000
 30
0.0
 11
280.610815
 21
213.300000
 31
0.0
  0
LINE
  5
1ed
100
AcDbEntity
  8
Layer_1
 62
7
100
AcDbLine
 10
280.610815
 20
213.300000
 30
0.0
 11
280.610815
 21
213.300000
 31
0.0
  0
LINE
  5
1ee
100
AcDbEntity
  8
Layer_1
 62
7
100
AcDbLine
 10
280.610815
 20
213.300000
 30
0.0
 11
286.700815
 21
213.300000
 31
0.0
  0
LINE
  5
1ef
100
AcDbEntity
  8
Layer_1
 62
7
100
AcDbLine
 10
286.700815
 20
213.300000
 30
0.0
 11
286.700815
 21
213.300000
 31
0.0
  0
LINE
  5
1f0
100
AcDbEntity
  8
Layer_1
 62
7
100
AcDbLine
 10
286.700815
 20
213.300000
 30
0.0
 11
292.679975
 21
213.300000
 31
0.0
  0
LINE
  5
1f1
100
AcDbEntity
  8
Layer_1
 62
7
100
AcDbLine
 10
10.100000
 20
10.100002
 30
0.0
 11
10.100000
 21
13.631112
 31
0.0
  0
LINE
  5
1f2
100
AcDbEntity
  8
Layer_1
 62
7
100
AcDbLine
 10
10.100000
 20
13.631112
 30
0.0
 11
13.275000
 21
13.631112
 31
0.0
  0
LINE
  5
1f3
100
AcDbEntity
  8
Layer_1
 62
7
100
AcDbLine
 10
13.275000
 20
13.631112
 30
0.0
 11
13.275000
 21
19.541112
 31
0.0
  0
LINE
  5
1f4
100
AcDbEntity
  8
Layer_1
 62
7
100
AcDbLine
 10
13.275000
 20
19.541112
 30
0.0
 11
10.100000
 21
19.541112
 31
0.0
  0
LINE
  5
1f5
100
AcDbEntity
  8
Layer_1
 62
7
100
AcDbLine
 10
10.100000
 20
19.541112
 30
0.0
 11
10.100000
 21
26.292222
 31
0.0
  0
LINE
  5
1f6
100
AcDbEntity
  8
Layer_1
 62
7
100
AcDbLine
 10
10.100000
 20
26.292222
 30
0.0
 11
13.275000
 21
26.292222
 31
0.0
  0
LINE
  5
1f7
100
AcDbEntity
  8
Layer_1
 62
7
100
AcDbLine
 10
13.275000
 20
26.292222
 30
0.0
 11
13.275000
 21
32.202222
 31
0.0
  0
LINE
  5
1f8
100
AcDbEntity
  8
Layer_1
 62
7
100
AcDbLine
 10
13.275000
 20
32.202222
 30
0.0
 11
10.100000
 21
32.202222
 31
0.0
  0
LINE
  5
1f9
100
AcDbEntity
  8
Layer_1
 62
7
100
AcDbLine
 10
10.100000
 20
32.202222
 30
0.0
 11
10.100000
 21
38.953332
 31
0.0
  0
LINE
  5
1fa
100
AcDbEntity
  8
Layer_1
 62
7
100
AcDbLine
 10
10.100000
 20
38.953332
 30
0.0
 11
13.275000
 21
38.953332
 31
0.0
  0
LINE
  5
1fb
100
AcDbEntity
  8
Layer_1
 62
7
100
AcDbLine
 10
13.275000
 20
38.953332
 30
0.0
 11
13.275000
 21
44.863332
 31
0.0
  0
LINE
  5
1fc
100
AcDbEntity
  8
Layer_1
 62
7
100
AcDbLine
 10
13.275000
 20
44.863332
 30
0.0
 11
10.100000
 21
44.863332
 31
0.0
  0
LINE
  5
1fd
100
AcDbEntity
  8
Layer_1
 62
7
100
AcDbLine
 10
10.100000
 20
44.863332
 30
0.0
 11
10.100000
 21
51.614442
 31
0.0
  0
LINE
  5
1fe
100
AcDbEntity
  8
Layer_1
 62
7
100
AcDbLine
 10
10.100000
 20
51.614442
 30
0.0
 11
13.275000
 21
51.614442
 31
0.0
  0
LINE
  5
1ff
100
AcDbEntity
  8
Layer_1
 62
7
100
AcDbLine
 10
13.275000
 20
51.614442
 30
0.0
 11
13.275000
 21
57.524442
 31
0.0
  0
LINE
  5
200
100
AcDbEntity
  8
Layer_1
 62
7
100
AcDbLine
 10
13.275000
 20
57.524442
 30
0.0
 11
10.100000
 21
57.524442
 31
0.0
  0
LINE
  5
201
100
AcDbEntity
  8
Layer_1
 62
7
100
AcDbLine
 10
10.100000
 20
57.524442
 30
0.0
 11
10.100000
 21
64.275562
 31
0.0
  0
LINE
  5
202
100
AcDbEntity
  8
Layer_1
 62
7
100
AcDbLine
 10
10.100000
 20
64.275562
 30
0.0
 11
13.275000
 21
64.275562
 31
0.0
  0
LINE
  5
203
100
AcDbEntity
  8
Layer_1
 62
7
100
AcDbLine
 10
13.275000
 20
64.275562
 30
0.0
 11
13.275000
 21
70.185562
 31
0.0
  0
LINE
  5
204
100
AcDbEntity
  8
Layer_1
 62
7
100
AcDbLine
 10
13.275000
 20
70.185562
 30
0.0
 11
10.100000
 21
70.185562
 31
0.0
  0
LINE
  5
205
100
AcDbEntity
  8
Layer_1
 62
7
100
AcDbLine
 10
10.100000
 20
70.185562
 30
0.0
 11
10.100000
 21
76.936672
 31
0.0
  0
LINE
  5
206
100
AcDbEntity
  8
Layer_1
 62
7
100
AcDbLine
 10
10.100000
 20
76.936672
 30
0.0
 11
13.275000
 21
76.936672
 31
0.0
  0
LINE
  5
207
100
AcDbEntity
  8
Layer_1
 62
7
100
AcDbLine
 10
13.275000
 20
76.936672
 30
0.0
 11
13.275000
 21
82.846672
 31
0.0
  0
LINE
  5
208
100
AcDbEntity
  8
Layer_1
 62
7
100
AcDbLine
 10
13.275000
 20
82.846672
 30
0.0
 11
10.100000
 21
82.846672
 31
0.0
  0
LINE
  5
209
100
AcDbEntity
  8
Layer_1
 62
7
100
AcDbLine
 10
10.100000
 20
82.846672
 30
0.0
 11
10.100000
 21
89.597782
 31
0.0
  0
LINE
  5
20a
100
AcDbEntity
  8
Layer_1
 62
7
100
AcDbLine
 10
10.100000
 20
89.597782
 30
0.0
 11
13.275000
 21
89.597782
 31
0.0
  0
LINE
  5
20b
100
AcDbEntity
  8
Layer_1
 62
7
100
AcDbLine
 10
13.275000
 20
89.597782
 30
0.0
 11
13.275000
 21
95.507782
 31
0.0
  0
LINE
  5
20c
100
AcDbEntity
  8
Layer_1
 62
7
100
AcDbLine
 10
13.275000
 20
95.507782
 30
0.0
 11
10.100000
 21
95.507782
 31
0.0
  0
LINE
  5
20d
100
AcDbEntity
  8
Layer_1
 62
7
100
AcDbLine
 10
10.100000
 20
95.507782
 30
0.0
 11
10.100000
 21
102.258892
 31
0.0
  0
LINE
  5
20e
100
AcDbEntity
  8
Layer_1
 62
7
100
AcDbLine
 10
10.100000
 20
102.258892
 30
0.0
 11
13.275000
 21
102.258892
 31
0.0
  0
LINE
  5
20f
100
AcDbEntity
  8
Layer_1
 62
7
100
AcDbLine
 10
13.275000
 20
102.258892
 30
0.0
 11
13.275000
 21
108.168892
 31
0.0
  0
LINE
  5
210
100
AcDbEntity
  8
Layer_1
 62
7
100
AcDbLine
 10
13.275000
 20
108.168892
 30
0.0
 11
10.100000
 21
108.168892
 31
0.0
  0
LINE
  5
211
100
AcDbEntity
  8
Layer_1
 62
7
100
AcDbLine
 10
10.100000
 20
108.168892
 30
0.0
 11
10.100000
 21
111.700002
 31
0.0
  0
LINE
  5
212
100
AcDbEntity
  8
Layer_1
 62
7
100
AcDbLine
 10
292.679975
 20
10.100002
 30
0.0
 11
286.700815
 21
10.100002
 31
0.0
  0
LINE
  5
213
100
AcDbEntity
  8
Layer_1
 62
7
100
AcDbLine
 10
286.700815
 20
10.100002
 30
0.0
 11
286.700815
 21
10.100002
 31
0.0
  0
LINE
  5
214
100
AcDbEntity
  8
Layer_1
 62
7
100
AcDbLine
 10
286.700815
 20
10.100002
 30
0.0
 11
280.610815
 21
10.100002
 31
0.0
  0
LINE
  5
215
100
AcDbEntity
  8
Layer_1
 62
7
100
AcDbLine
 10
280.610815
 20
10.100002
 30
0.0
 11
280.610815
 21
10.100002
 31
0.0
  0
LINE
  5
216
100
AcDbEntity
  8
Layer_1
 62
7
100
AcDbLine
 10
280.610815
 20
10.100002
 30
0.0
 11
274.676645
 21
10.100002
 31
0.0
  0
LINE
  5
217
100
AcDbEntity
  8
Layer_1
 62
7
100
AcDbLine
 10
274.676645
 20
10.100002
 30
0.0
 11
274.676645
 21
10.100002
 31
0.0
  0
LINE
  5
218
100
AcDbEntity
  8
Layer_1
 62
7
100
AcDbLine
 10
274.676645
 20
10.100002
 30
0.0
 11
268.586645
 21
10.100002
 31
0.0
  0
LINE
  5
219
100
AcDbEntity
  8
Layer_1
 62
7
100
AcDbLine
 10
268.586645
 20
10.100002
 30
0.0
 11
268.586645
 21
10.100002
 31
0.0
  0
LINE
  5
21a
100
AcDbEntity
  8
Layer_1
 62
7
100
AcDbLine
 10
268.586645
 20
10.100002
 30
0.0
 11
262.652485
 21
10.100002
 31
0.0
  0
LINE
  5
21b
100
AcDbEntity
  8
Layer_1
 62
7
100
AcDbLine
 10
262.652485
 20
10.100002
 30
0.0
 11
262.652485
 21
10.100002
 31
0.0
  0
LINE
  5
21c
100
AcDbEntity
  8
Layer_1
 62
7
100
AcDbLine
 10
262.652485
 20
10.100002
 30
0.0
 11
256.562485
 21
10.100002
 31
0.0
  0
LINE
  5
21d
100
AcDbEntity
  8
Layer_1
 62
7
100
AcDbLine
 10
256.562485
 20
10.100002
 30
0.0
 11
256.562485
 21
10.100002
 31
0.0
  0
LINE
  5
21e
100
AcDbEntity
  8
Layer_1
 62
7
100
AcDbLine
 10
256.562485
 20
10.100002
 30
0.0
 11
250.628315
 21
10.100002
 31
0.0
  0
LINE
  5
21f
100
AcDbEntity
  8
Layer_1
 62
7
100
AcDbLine
 10
250.628315
 20
10.100002
 30
0.0
 11
250.628315
 21
10.100002
 31
0.0
  0
LINE
  5
220
100
AcDbEntity
  8
Layer_1
 62
7
100
AcDbLine
 10
250.628315
 20
10.100002
 30
0.0
 11
244.538315
 21
10.100002
 31
0.0
  0
LINE
  5
221
100
AcDbEntity
  8
Layer_1
 62
7
100
AcDbLine
 10
244.538315
 20
10.100002
 30
0.0
 11
244.538315
 21
10.100002
 31
0.0
  0
LINE
  5
222
100
AcDbEntity
  8
Layer_1
 62
7
100
AcDbLine
 10
244.538315
 20
10.100002
 30
0.0
 11
238.604145
 21
10.100002
 31
0.0
  0
LINE
  5
223
100
AcDbEntity
  8
Layer_1
 62
7
100
AcDbLine
 10
238.604145
 20
10.100002
 30
0.0
 11
238.604145
 21
10.100002
 31
0.0
  0
LINE
  5
224
100
AcDbEntity
  8
Layer_1
 62
7
100
AcDbLine
 10
238.604145
 20
10.100002
 30
0.0
 11
232.514145
 21
10.100002
 31
0.0
  0
LINE
  5
225
100
AcDbEntity
  8
Layer_1
 62
7
100
AcDbLine
 10
232.514145
 20
10.100002
 30
0.0
 11
232.514145
 21
10.100002
 31
0.0
  0
LINE
  5
226
100
AcDbEntity
  8
Layer_1
 62
7
100
AcDbLine
 10
232.514145
 20
10.100002
 30
0.0
 11
226.579985
 21
10.100002
 31
0.0
  0
LINE
  5
227
100
AcDbEntity
  8
Layer_1
 62
7
100
AcDbLine
 10
226.579985
 20
10.100002
 30
0.0
 11
226.579985
 21
10.100002
 31
0.0
  0
LINE
  5
228
100
AcDbEntity
  8
Layer_1
 62
7
100
AcDbLine
 10
226.579985
 20
10.100002
 30
0.0
 11
220.489985
 21
10.100002
 31
0.0
  0
LINE
  5
229
100
AcDbEntity
  8
Layer_1
 62
7
100
AcDbLine
 10
220.489985
 20
10.100002
 30
0.0
 11
220.489985
 21
10.100002
 31
0.0
  0
LINE
  5
22a
100
AcDbEntity
  8
Layer_1
 62
7
100
AcDbLine
 10
220.489985
 20
10.100002
 30
0.0
 11
214.555815
 21
10.100002
 31
0.0
  0
LINE
  5
22b
100
AcDbEntity
  8
Layer_1
 62
7
100
AcDbLine
 10
214.555815
 20
10.100002
 30
0.0
 11
214.555815
 21
10.100002
 31
0.0
  0
LINE
  5
22c
100
AcDbEntity
  8
Layer_1
 62
7
100
AcDbLine
 10
214.555815
 20
10.100002
 30
0.0
 11
208.465815
 21
10.100002
 31
0.0
  0
LINE
  5
22d
100
AcDbEntity
  8
Layer_1
 62
7
100
AcDbLine
 10
208.465815
 20
10.100002
 30
0.0
 11
208.465815
 21
10.100002
 31
0.0
  0
LINE
  5
22e
100
AcDbEntity
  8
Layer_1
 62
7
100
AcDbLine
 10
208.465815
 20
10.100002
 30
0.0
 11
202.531645
 21
10.100002
 31
0.0
  0
LINE
  5
22f
100
AcDbEntity
  8
Layer_1
 62
7
100
AcDbLine
 10
202.531645
 20
10.100002
 30
0.0
 11
202.531645
 21
10.100002
 31
0.0
  0
LINE
  5
230
100
AcDbEntity
  8
Layer_1
 62
7
100
AcDbLine
 10
202.531645
 20
10.100002
 30
0.0
 11
196.441645
 21
10.100002
 31
0.0
  0
LINE
  5
231
100
AcDbEntity
  8
Layer_1
 62
7
100
AcDbLine
 10
196.441645
 20
10.100002
 30
0.0
 11
196.441645
 21
10.100002
 31
0.0
  0
LINE
  5
232
100
AcDbEntity
  8
Layer_1
 62
7
100
AcDbLine
 10
196.441645
 20
10.100002
 30
0.0
 11
190.507485
 21
10.100002
 31
0.0
  0
LINE
  5
233
100
AcDbEntity
  8
Layer_1
 62
7
100
AcDbLine
 10
190.507485
 20
10.100002
 30
0.0
 11
190.507485
 21
10.100002
 31
0.0
  0
LINE
  5
234
100
AcDbEntity
  8
Layer_1
 62
7
100
AcDbLine
 10
190.507485
 20
10.100002
 30
0.0
 11
184.417485
 21
10.100002
 31
0.0
  0
LINE
  5
235
100
AcDbEntity
  8
Layer_1
 62
7
100
AcDbLine
 10
184.417485
 20
10.100002
 30
0.0
 11
184.417485
 21
10.100002
 31
0.0
  0
LINE
  5
236
100
AcDbEntity
  8
Layer_1
 62
7
100
AcDbLine
 10
184.417485
 20
10.100002
 30
0.0
 11
178.483315
 21
10.100002
 31
0.0
  0
LINE
  5
237
100
AcDbEntity
  8
Layer_1
 62
7
100
AcDbLine
 10
178.483315
 20
10.100002
 30
0.0
 11
178.483315
 21
10.100002
 31
0.0
  0
LINE
  5
238
100
AcDbEntity
  8
Layer_1
 62
7
100
AcDbLine
 10
178.483315
 20
10.100002
 30
0.0
 11
172.393315
 21
10.100002
 31
0.0
  0
LINE
  5
239
100
AcDbEntity
  8
Layer_1
 62
7
100
AcDbLine
 10
172.393315
 20
10.100002
 30
0.0
 11
172.393315
 21
10.100002
 31
0.0
  0
LINE
  5
23a
100
AcDbEntity
  8
Layer_1
 62
7
100
AcDbLine
 10
172.393315
 20
10.100002
 30
0.0
 11
166.459155
 21
10.100002
 31
0.0
  0
LINE
  5
23b
100
AcDbEntity
  8
Layer_1
 62
7
100
AcDbLine
 10
166.459155
 20
10.100002
 30
0.0
 11
166.459155
 21
10.100002
 31
0.0
  0
LINE
  5
23c
100
AcDbEntity
  8
Layer_1
 62
7
100
AcDbLine
 10
166.459155
 20
10.100002
 30
0.0
 11
160.369155
 21
10.100002
 31
0.0
  0
LINE
  5
23d
100
AcDbEntity
  8
Layer_1
 62
7
100
AcDbLine
 10
160.369155
 20
10.100002
 30
0.0
 11
160.369155
 21
10.100002
 31
0.0
  0
LINE
  5
23e
100
AcDbEntity
  8
Layer_1
 62
7
100
AcDbLine
 10
160.369155
 20
10.100002
 30
0.0
 11
154.434985
 21
10.100002
 31
0.0
  0
LINE
  5
23f
100
AcDbEntity
  8
Layer_1
 62
7
100
AcDbLine
 10
154.434985
 20
10.100002
 30
0.0
 11
154.434985
 21
10.100002
 31
0.0
  0
LINE
  5
240
100
AcDbEntity
  8
Layer_1
 62
7
100
AcDbLine
 10
154.434985
 20
10.100002
 30
0.0
 11
148.344985
 21
10.100002
 31
0.0
  0
LINE
  5
241
100
AcDbEntity
  8
Layer_1
 62
7
100
AcDbLine
 10
148.344985
 20
10.100002
 30
0.0
 11
148.344985
 21
10.100002
 31
0.0
  0
LINE
  5
242
100
AcDbEntity
  8
Layer_1
 62
7
100
AcDbLine
 10
148.344985
 20
10.100002
 30
0.0
 11
142.410815
 21
10.100002
 31
0.0
  0
LINE
  5
243
100
AcDbEntity
  8
Layer_1
 62
7
100
AcDbLine
 10
142.410815
 20
10.100002
 30
0.0
 11
142.410815
 21
10.100002
 31
0.0
  0
LINE
  5
244
100
AcDbEntity
  8
Layer_1
 62
7
100
AcDbLine
 10
142.410815
 20
10.100002
 30
0.0
 11
136.320815
 21
10.100002
 31
0.0
  0
LINE
  5
245
100
AcDbEntity
  8
Layer_1
 62
7
100
AcDbLine
 10
136.320815
 20
10.100002
 30
0.0
 11
136.320815
 21
10.100002
 31
0.0
  0
LINE
  5
246
100
AcDbEntity
  8
Layer_1
 62
7
100
AcDbLine
 10
136.320815
 20
10.100002
 30
0.0
 11
130.386655
 21
10.100002
 31
0.0
  0
LINE
  5
247
100
AcDbEntity
  8
Layer_1
 62
7
100
AcDbLine
 10
130.386655
 20
10.100002
 30
0.0
 11
130.386655
 21
10.100002
 31
0.0
  0
LINE
  5
248
100
AcDbEntity
  8
Layer_1
 62
7
100
AcDbLine
 10
130.386655
 20
10.100002
 30
0.0
 11
124.296655
 21
10.100002
 31
0.0
  0
LINE
  5
249
100
AcDbEntity
  8
Layer_1
 62
7
100
AcDbLine
 10
124.296655
 20
10.100002
 30
0.0
 11
124.296655
 21
10.100002
 31
0.0
  0
LINE
  5
24a
100
AcDbEntity
  8
Layer_1
 62
7
100
AcDbLine
 10
124.296655
 20
10.100002
 30
0.0
 11
118.362490
 21
10.100002
 31
0.0
  0
LINE
  5
24b
100
AcDbEntity
  8
Layer_1
 62
7
100
AcDbLine
 10
118.362490
 20
10.100002
 30
0.0
 11
118.362490
 21
10.100002
 31
0.0
  0
LINE
  5
24c
100
AcDbEntity
  8
Layer_1
 62
7
100
AcDbLine
 10
118.362490
 20
10.100002
 30
0.0
 11
112.272490
 21
10.100002
 31
0.0
  0
LINE
  5
24d
100
AcDbEntity
  8
Layer_1
 62
7
100
AcDbLine
 10
112.272490
 20
10.100002
 30
0.0
 11
112.272490
 21
10.100002
 31
0.0
  0
LINE
  5
24e
100
AcDbEntity
  8
Layer_1
 62
7
100
AcDbLine
 10
112.272490
 20
10.100002
 30
0.0
 11
106.338330
 21
10.100002
 31
0.0
  0
LINE
  5
24f
100
AcDbEntity
  8
Layer_1
 62
7
100
AcDbLine
 10
106.338330
 20
10.100002
 30
0.0
 11
106.338330
 21
10.100002
 31
0.0
  0
LINE
  5
250
100
AcDbEntity
  8
Layer_1
 62
7
100
AcDbLine
 10
106.338330
 20
10.100002
 30
0.0
 11
100.248330
 21
10.100002
 31
0.0
  0
LINE
  5
251
100
AcDbEntity
  8
Layer_1
 62
7
100
AcDbLine
 10
100.248330
 20
10.100002
 30
0.0
 11
100.248330
 21
10.100002
 31
0.0
  0
LINE
  5
252
100
AcDbEntity
  8
Layer_1
 62
7
100
AcDbLine
 10
100.248330
 20
10.100002
 30
0.0
 11
94.314160
 21
10.100002
 31
0.0
  0
LINE
  5
253
100
AcDbEntity
  8
Layer_1
 62
7
100
AcDbLine
 10
94.314160
 20
10.100002
 30
0.0
 11
94.314160
 21
10.100002
 31
0.0
  0
LINE
  5
254
100
AcDbEntity
  8
Layer_1
 62
7
100
AcDbLine
 10
94.314160
 20
10.100002
 30
0.0
 11
88.224160
 21
10.100002
 31
0.0
  0
LINE
  5
255
100
AcDbEntity
  8
Layer_1
 62
7
100
AcDbLine
 10
88.224160
 20
10.100002
 30
0.0
 11
88.224160
 21
10.100002
 31
0.0
  0
LINE
  5
256
100
AcDbEntity
  8
Layer_1
 62
7
100
AcDbLine
 10
88.224160
 20
10.100002
 30
0.0
 11
82.289990
 21
10.100002
 31
0.0
  0
LINE
  5
257
100
AcDbEntity
  8
Layer_1
 62
7
100
AcDbLine
 10
82.289990
 20
10.100002
 30
0.0
 11
82.289990
 21
10.100002
 31
0.0
  0
LINE
  5
258
100
AcDbEntity
  8
Layer_1
 62
7
100
AcDbLine
 10
82.289990
 20
10.100002
 30
0.0
 11
76.199990
 21
10.100002
 31
0.0
  0
LINE
  5
259
100
AcDbEntity
  8
Layer_1
 62
7
100
AcDbLine
 10
76.199990
 20
10.100002
 30
0.0
 11
76.199990
 21
10.100002
 31
0.0
  0
LINE
  5
25a
100
AcDbEntity
  8
Layer_1
 62
7
100
AcDbLine
 10
76.199990
 20
10.100002
 30
0.0
 11
70.265830
 21
10.100002
 31
0.0
  0
LINE
  5
25b
100
AcDbEntity
  8
Layer_1
 62
7
100
AcDbLine
 10
70.265830
 20
10.100002
 30
0.0
 11
70.265830
 21
10.100002
 31
0.0
  0
LINE
  5
25c
100
AcDbEntity
  8
Layer_1
 62
7
100
AcDbLine
 10
70.265830
 20
10.100002
 30
0.0
 11
64.175830
 21
10.100002
 31
0.0
  0
LINE
  5
25d
100
AcDbEntity
  8
Layer_1
 62
7
100
AcDbLine
 10
64.175830
 20
10.100002
 30
0.0
 11
64.175830
 21
10.100002
 31
0.0
  0
LINE
  5
25e
100
AcDbEntity
  8
Layer_1
 62
7
100
AcDbLine
 10
64.175830
 20
10.100002
 30
0.0
 11
58.241660
 21
10.100002
 31
0.0
  0
LINE
  5
25f
100
AcDbEntity
  8
Layer_1
 62
7
100
AcDbLine
 10
58.241660
 20
10.100002
 30
0.0
 11
58.241660
 21
10.100002
 31
0.0
  0
LINE
  5
260
100
AcDbEntity
  8
Layer_1
 62
7
100
AcDbLine
 10
58.241660
 20
10.100002
 30
0.0
 11
52.151660
 21
10.100002
 31
0.0
  0
LINE
  5
261
100
AcDbEntity
  8
Layer_1
 62
7
100
AcDbLine
 10
52.151660
 20
10.100002
 30
0.0
 11
52.151660
 21
10.100002
 31
0.0
  0
LINE
  5
262
100
AcDbEntity
  8
Layer_1
 62
7
100
AcDbLine
 10
52.151660
 20
10.100002
 30
0.0
 11
46.217500
 21
10.100002
 31
0.0
  0
LINE
  5
263
100
AcDbEntity
  8
Layer_1
 62
7
100
AcDbLine
 10
46.217500
 20
10.100002
 30
0.0
 11
46.217500
 21
10.100002
 31
0.0
  0
LINE
  5
264
100
AcDbEntity
  8
Layer_1
 62
7
100
AcDbLine
 10
46.217500
 20
10.100002
 30
0.0
 11
40.127500
 21
10.100002
 31
0.0
  0
LINE
  5
265
100
AcDbEntity
  8
Layer_1
 62
7
100
AcDbLine
 10
40.127500
 20
10.100002
 30
0.0
 11
40.127500
 21
10.100002
 31
0.0
  0
LINE
  5
266
100
AcDbEntity
  8
Layer_1
 62
7
100
AcDbLine
 10
40.127500
 20
10.100002
 30
0.0
 11
34.193330
 21
10.100002
 31
0.0
  0
LINE
  5
267
100
AcDbEntity
  8
Layer_1
 62
7
100
AcDbLine
 10
34.193330
 20
10.100002
 30
0.0
 11
34.193330
 21
10.100002
 31
0.0
  0
LINE
  5
268
100
AcDbEntity
  8
Layer_1
 62
7
100
AcDbLine
 10
34.193330
 20
10.100002
 30
0.0
 11
28.103330
 21
10.100002
 31
0.0
  0
LINE
  5
269
100
AcDbEntity
  8
Layer_1
 62
7
100
AcDbLine
 10
28.103330
 20
10.100002
 30
0.0
 11
28.103330
 21
10.100002
 31
0.0
  0
LINE
  5
26a
100
AcDbEntity
  8
Layer_1
 62
7
100
AcDbLine
 10
28.103330
 20
10.100002
 30
0.0
 11
22.169160
 21
10.100002
 31
0.0
  0
LINE
  5
26b
100
AcDbEntity
  8
Layer_1
 62
7
100
AcDbLine
 10
22.169160
 20
10.100002
 30
0.0
 11
22.169160
 21
10.100002
 31
0.0
  0
LINE
  5
26c
100
AcDbEntity
  8
Layer_1
 62
7
100
AcDbLine
 10
22.169160
 20
10.100002
 30
0.0
 11
16.079160
 21
10.100002
 31
0.0
  0
LINE
  5
26d
100
AcDbEntity
  8
Layer_1
 62
7
100
AcDbLine
 10
16.079160
 20
10.100002
 30
0.0
 11
16.079160
 21
10.100002
 31
0.0
  0
LINE
  5
26e
100
AcDbEntity
  8
Layer_1
 62
7
100
AcDbLine
 10
16.079160
 20
10.100002
 30
0.0
 11
10.100000
 21
10.100002
 31
0.0
  0
LINE
  5
26f
100
AcDbEntity
  8
Layer_1
 62
7
100
AcDbLine
 10
292.679975
 20
111.700002
 30
0.0
 11
292.679975
 21
108.168892
 31
0.0
  0
LINE
  5
270
100
AcDbEntity
  8
Layer_1
 62
7
100
AcDbLine
 10
292.679975
 20
108.168892
 30
0.0
 11
289.504975
 21
108.168892
 31
0.0
  0
LINE
  5
271
100
AcDbEntity
  8
Layer_1
 62
7
100
AcDbLine
 10
289.504975
 20
108.168892
 30
0.0
 11
289.504975
 21
102.258892
 31
0.0
  0
LINE
  5
272
100
AcDbEntity
  8
Layer_1
 62
7
100
AcDbLine
 10
289.504975
 20
102.258892
 30
0.0
 11
292.679975
 21
102.258892
 31
0.0
  0
LINE
  5
273
100
AcDbEntity
  8
Layer_1
 62
7
100
AcDbLine
 10
292.679975
 20
102.258892
 30
0.0
 11
292.679975
 21
95.507782
 31
0.0
  0
LINE
  5
274
100
AcDbEntity
  8
Layer_1
 62
7
100
AcDbLine
 10
292.679975
 20
95.507782
 30
0.0
 11
289.504975
 21
95.507782
 31
0.0
  0
LINE
  5
275
100
AcDbEntity
  8
Layer_1
 62
7
100
AcDbLine
 10
289.504975
 20
95.507782
 30
0.0
 11
289.504975
 21
89.597782
 31
0.0
  0
LINE
  5
276
100
AcDbEntity
  8
Layer_1
 62
7
100
AcDbLine
 10
289.504975
 20
89.597782
 30
0.0
 11
292.679975
 21
89.597782
 31
0.0
  0
LINE
  5
277
100
AcDbEntity
  8
Layer_1
 62
7
100
AcDbLine
 10
292.679975
 20
89.597782
 30
0.0
 11
292.679975
 21
82.846672
 31
0.0
  0
LINE
  5
278
100
AcDbEntity
  8
Layer_1
 62
7
100
AcDbLine
 10
292.679975
 20
82.846672
 30
0.0
 11
289.504975
 21
82.846672
 31
0.0
  0
LINE
  5
279
100
AcDbEntity
  8
Layer_1
 62
7
100
AcDbLine
 10
289.504975
 20
82.846672
 30
0.0
 11
289.504975
 21
76.936672
 31
0.0
  0
LINE
  5
27a
100
AcDbEntity
  8
Layer_1
 62
7
100
AcDbLine
 10
289.504975
 20
76.936672
 30
0.0
 11
292.679975
 21
76.936672
 31
0.0
  0
LINE
  5
27b
100
AcDbEntity
  8
Layer_1
 62
7
100
AcDbLine
 10
292.679975
 20
76.936672
 30
0.0
 11
292.679975
 21
70.185562
 31
0.0
  0
LINE
  5
27c
100
AcDbEntity
  8
Layer_1
 62
7
100
AcDbLine
 10
292.679975
 20
70.185562
 30
0.0
 11
289.504975
 21
70.185562
 31
0.0
  0
LINE
  5
27d
100
AcDbEntity
  8
Layer_1
 62
7
100
AcDbLine
 10
289.504975
 20
70.185562
 30
0.0
 11
289.504975
 21
64.275562
 31
0.0
  0
LINE
  5
27e
100
AcDbEntity
  8
Layer_1
 62
7
100
AcDbLine
 10
289.504975
 20
64.275562
 30
0.0
 11
292.679975
 21
64.275562
 31
0.0
  0
LINE
  5
27f
100
AcDbEntity
  8
Layer_1
 62
7
100
AcDbLine
 10
292.679975
 20
64.275562
 30
0.0
 11
292.679975
 21
57.524442
 31
0.0
  0
LINE
  5
280
100
AcDbEntity
  8
Layer_1
 62
7
100
AcDbLine
 10
292.679975
 20
57.524442
 30
0.0
 11
289.504975
 21
57.524442
 31
0.0
  0
LINE
  5
281
100
AcDbEntity
  8
Layer_1
 62
7
100
AcDbLine
 10
289.504975
 20
57.524442
 30
0.0
 11
289.504975
 21
51.614442
 31
0.0
  0
LINE
  5
282
100
AcDbEntity
  8
Layer_1
 62
7
100
AcDbLine
 10
289.504975
 20
51.614442
 30
0.0
 11
292.679975
 21
51.614442
 31
0.0
  0
LINE
  5
283
100
AcDbEntity
  8
Layer_1
 62
7
100
AcDbLine
 10
292.679975
 20
51.614442
 30
0.0
 11
292.679975
 21
44.863332
 31
0.0
  0
LINE
  5
284
100
AcDbEntity
  8
Layer_1
 62
7
100
AcDbLine
 10
292.679975
 20
44.863332
 30
0.0
 11
289.504975
 21
44.863332
 31
0.0
  0
LINE
  5
285
100
AcDbEntity
  8
Layer_1
 62
7
100
AcDbLine
 10
289.504975
 20
44.863332
 30
0.0
 11
289.504975
 21
38.953332
 31
0.0
  0
LINE
  5
286
100
AcDbEntity
  8
Layer_1
 62
7
100
AcDbLine
 10
289.504975
 20
38.953332
 30
0.0
 11
292.679975
 21
38.953332
 31
0.0
  0
LINE
  5
287
100
AcDbEntity
  8
Layer_1
 62
7
100
AcDbLine
 10
292.679975
 20
38.953332
 30
0.0
 11
292.679975
 21
32.202222
 31
0.0
  0
LINE
  5
288
100
AcDbEntity
  8
Layer_1
 62
7
100
AcDbLine
 10
292.679975
 20
32.202222
 30
0.0
 11
289.504975
 21
32.202222
 31
0.0
  0
LINE
  5
289
100
AcDbEntity
  8
Layer_1
 62
7
100
AcDbLine
 10
289.504975
 20
32.202222
 30
0.0
 11
289.504975
 21
26.292222
 31
0.0
  0
LINE
  5
28a
100
AcDbEntity
  8
Layer_1
 62
7
100
AcDbLine
 10
289.504975
 20
26.292222
 30
0.0
 11
292.679975
 21
26.292222
 31
0.0
  0
LINE
  5
28b
100
AcDbEntity
  8
Layer_1
 62
7
100
AcDbLine
 10
292.679975
 20
26.292222
 30
0.0
 11
292.679975
 21
19.541112
 31
0.0
  0
LINE
  5
28c
100
AcDbEntity
  8
Layer_1
 62
7
100
AcDbLine
 10
292.679975
 20
19.541112
 30
0.0
 11
289.504975
 21
19.541112
 31
0.0
  0
LINE
  5
28d
100
AcDbEntity
  8
Layer_1
 62
7
100
AcDbLine
 10
289.504975
 20
19.541112
 30
0.0
 11
289.504975
 21
13.631112
 31
0.0
  0
LINE
  5
28e
100
AcDbEntity
  8
Layer_1
 62
7
100
AcDbLine
 10
289.504975
 20
13.631112
 30
0.0
 11
292.679975
 21
13.631112
 31
0.0
  0
LINE
  5
28f
100
AcDbEntity
  8
Layer_1
 62
7
100
AcDbLine
 10
292.679975
 20
13.631112
 30
0.0
 11
292.679975
 21
10.100002
 31
0.0
  0
LINE
  5
290
100
AcDbEntity
  8
Layer_1
 62
7
100
AcDbLine
 10
10.100000
 20
111.700002
 30
0.0
 11
16.079160
 21
111.700002
 31
0.0
  0
LINE
  5
291
100
AcDbEntity
  8
Layer_1
 62
7
100
AcDbLine
 10
16.079160
 20
111.700002
 30
0.0
 11
16.079160
 21
111.700002
 31
0.0
  0
LINE
  5
292
100
AcDbEntity
  8
Layer_1
 62
7
100
AcDbLine
 10
16.079160
 20
111.700002
 30
0.0
 11
22.169160
 21
111.700002
 31
0.0
  0
LINE
  5
293
100
AcDbEntity
  8
Layer_1
 62
7
100
AcDbLine
 10
22.169160
 20
111.700002
 30
0.0
 11
22.169160
 21
111.700002
 31
0.0
  0
LINE
  5
294
100
AcDbEntity
  8
Layer_1
 62
7
100
AcDbLine
 10
22.169160
 20
111.700002
 30
0.0
 11
28.103330
 21
111.700002
 31
0.0
  0
LINE
  5
295
100
AcDbEntity
  8
Layer_1
 62
7
100
AcDbLine
 10
28.103330
 20
111.700002
 30
0.0
 11
28.103330
 21
111.700002
 31
0.0
  0
LINE
  5
296
100
AcDbEntity
  8
Layer_1
 62
7
100
AcDbLine
 10
28.103330
 20
111.700002
 30
0.0
 11
34.193330
 21
111.700002
 31
0.0
  0
LINE
  5
297
100
AcDbEntity
  8
Layer_1
 62
7
100
AcDbLine
 10
34.193330
 20
111.700002
 30
0.0
 11
34.193330
 21
111.700002
 31
0.0
  0
LINE
  5
298
100
AcDbEntity
  8
Layer_1
 62
7
100
AcDbLine
 10
34.193330
 20
111.700002
 30
0.0
 11
40.127500
 21
111.700002
 31
0.0
  0
LINE
  5
299
100
AcDbEntity
  8
Layer_1
 62
7
100
AcDbLine
 10
40.127500
 20
111.700002
 30
0.0
 11
40.127500
 21
111.700002
 31
0.0
  0
LINE
  5
29a
100
AcDbEntity
  8
Layer_1
 62
7
100
AcDbLine
 10
40.127500
 20
111.700002
 30
0.0
 11
46.217500
 21
111.700002
 31
0.0
  0
LINE
  5
29b
100
AcDbEntity
  8
Layer_1
 62
7
100
AcDbLine
 10
46.217500
 20
111.700002
 30
0.0
 11
46.217500
 21
111.700002
 31
0.0
  0
LINE
  5
29c
100
AcDbEntity
  8
Layer_1
 62
7
100
AcDbLine
 10
46.217500
 20
111.700002
 30
0.0
 11
52.151660
 21
111.700002
 31
0.0
  0
LINE
  5
29d
100
AcDbEntity
  8
Layer_1
 62
7
100
AcDbLine
 10
52.151660
 20
111.700002
 30
0.0
 11
52.151660
 21
111.700002
 31
0.0
  0
LINE
  5
29e
100
AcDbEntity
  8
Layer_1
 62
7
100
AcDbLine
 10
52.151660
 20
111.700002
 30
0.0
 11
58.241660
 21
111.700002
 31
0.0
  0
LINE
  5
29f
100
AcDbEntity
  8
Layer_1
 62
7
100
AcDbLine
 10
58.241660
 20
111.700002
 30
0.0
 11
58.241660
 21
111.700002
 31
0.0
  0
LINE
  5
2a0
100
AcDbEntity
  8
Layer_1
 62
7
100
AcDbLine
 10
58.241660
 20
111.700002
 30
0.0
 11
64.175830
 21
111.700002
 31
0.0
  0
LINE
  5
2a1
100
AcDbEntity
  8
Layer_1
 62
7
100
AcDbLine
 10
64.175830
 20
111.700002
 30
0.0
 11
64.175830
 21
111.700002
 31
0.0
  0
LINE
  5
2a2
100
AcDbEntity
  8
Layer_1
 62
7
100
AcDbLine
 10
64.175830
 20
111.700002
 30
0.0
 11
70.265830
 21
111.700002
 31
0.0
  0
LINE
  5
2a3
100
AcDbEntity
  8
Layer_1
 62
7
100
AcDbLine
 10
70.265830
 20
111.700002
 30
0.0
 11
70.265830
 21
111.700002
 31
0.0
  0
LINE
  5
2a4
100
AcDbEntity
  8
Layer_1
 62
7
100
AcDbLine
 10
70.265830
 20
111.700002
 30
0.0
 11
76.199990
 21
111.700002
 31
0.0
  0
LINE
  5
2a5
100
AcDbEntity
  8
Layer_1
 62
7
100
AcDbLine
 10
76.199990
 20
111.700002
 30
0.0
 11
76.199990
 21
111.700002
 31
0.0
  0
LINE
  5
2a6
100
AcDbEntity
  8
Layer_1
 62
7
100
AcDbLine
 10
76.199990
 20
111.700002
 30
0.0
 11
82.289990
 21
111.700002
 31
0.0
  0
LINE
  5
2a7
100
AcDbEntity
  8
Layer_1
 62
7
100
AcDbLine
 10
82.289990
 20
111.700002
 30
0.0
 11
82.289990
 21
111.700002
 31
0.0
  0
LINE
  5
2a8
100
AcDbEntity
  8
Layer_1
 62
7
100
AcDbLine
 10
82.289990
 20
111.700002
 30
0.0
 11
88.224160
 21
111.700002
 31
0.0
  0
LINE
  5
2a9
100
AcDbEntity
  8
Layer_1
 62
7
100
AcDbLine
 10
88.224160
 20
111.700002
 30
0.0
 11
88.224160
 21
111.700002
 31
0.0
  0
LINE
  5
2aa
100
AcDbEntity
  8
Layer_1
 62
7
100
AcDbLine
 10
88.224160
 20
111.700002
 30
0.0
 11
94.314160
 21
111.700002
 31
0.0
  0
LINE
  5
2ab
100
AcDbEntity
  8
Layer_1
 62
7
100
AcDbLine
 10
94.314160
 20
111.700002
 30
0.0
 11
94.314160
 21
111.700002
 31
0.0
  0
LINE
  5
2ac
100
AcDbEntity
  8
Layer_1
 62
7
100
AcDbLine
 10
94.314160
 20
111.700002
 30
0.0
 11
100.248330
 21
111.700002
 31
0.0
  0
LINE
  5
2ad
100
AcDbEntity
  8
Layer_1
 62
7
100
AcDbLine
 10
100.248330
 20
111.700002
 30
0.0
 11
100.248330
 21
111.700002
 31
0.0
  0
LINE
  5
2ae
100
AcDbEntity
  8
Layer_1
 62
7
100
AcDbLine
 10
100.248330
 20
111.700002
 30
0.0
 11
106.338330
 21
111.700002
 31
0.0
  0
LINE
  5
2af
100
AcDbEntity
  8
Layer_1
 62
7
100
AcDbLine
 10
106.338330
 20
111.700002
 30
0.0
 11
106.338330
 21
111.700002
 31
0.0
  0
LINE
  5
2b0
100
AcDbEntity
  8
Layer_1
 62
7
100
AcDbLine
 10
106.338330
 20
111.700002
 30
0.0
 11
112.272490
 21
111.700002
 31
0.0
  0
LINE
  5
2b1
100
AcDbEntity
  8
Layer_1
 62
7
100
AcDbLine
 10
112.272490
 20
111.700002
 30
0.0
 11
112.272490
 21
111.700002
 31
0.0
  0
LINE
  5
2b2
100
AcDbEntity
  8
Layer_1
 62
7
100
AcDbLine
 10
112.272490
 20
111.700002
 30
0.0
 11
118.362490
 21
111.700002
 31
0.0
  0
LINE
  5
2b3
100
AcDbEntity
  8
Layer_1
 62
7
100
AcDbLine
 10
118.362490
 20
111.700002
 30
0.0
 11
118.362490
 21
111.700002
 31
0.0
  0
LINE
  5
2b4
100
AcDbEntity
  8
Layer_1
 62
7
100
AcDbLine
 10
118.362490
 20
111.700002
 30
0.0
 11
124.296655
 21
111.700002
 31
0.0
  0
LINE
  5
2b5
100
AcDbEntity
  8
Layer_1
 62
7
100
AcDbLine
 10
124.296655
 20
111.700002
 30
0.0
 11
124.296655
 21
111.700002
 31
0.0
  0
LINE
  5
2b6
100
AcDbEntity
  8
Layer_1
 62
7
100
AcDbLine
 10
124.296655
 20
111.700002
 30
0.0
 11
130.386655
 21
111.700002
 31
0.0
  0
LINE
  5
2b7
100
AcDbEntity
  8
Layer_1
 62
7
100
AcDbLine
 10
130.386655
 20
111.700002
 30
0.0
 11
130.386655
 21
111.700002
 31
0.0
  0
LINE
  5
2b8
100
AcDbEntity
  8
Layer_1
 62
7
100
AcDbLine
 10
130.386655
 20
111.700002
 30
0.0
 11
136.320815
 21
111.700002
 31
0.0
  0
LINE
  5
2b9
100
AcDbEntity
  8
Layer_1
 62
7
100
AcDbLine
 10
136.320815
 20
111.700002
 30
0.0
 11
136.320815
 21
111.700002
 31
0.0
  0
LINE
  5
2ba
100
AcDbEntity
  8
Layer_1
 62
7
100
AcDbLine
 10
136.320815
 20
111.700002
 30
0.0
 11
142.410815
 21
111.700002
 31
0.0
  0
LINE
  5
2bb
100
AcDbEntity
  8
Layer_1
 62
7
100
AcDbLine
 10
142.410815
 20
111.700002
 30
0.0
 11
142.410815
 21
111.700002
 31
0.0
  0
LINE
  5
2bc
100
AcDbEntity
  8
Layer_1
 62
7
100
AcDbLine
 10
142.410815
 20
111.700002
 30
0.0
 11
148.344985
 21
111.700002
 31
0.0
  0
LINE
  5
2bd
100
AcDbEntity
  8
Layer_1
 62
7
100
AcDbLine
 10
148.344985
 20
111.700002
 30
0.0
 11
148.344985
 21
111.700002
 31
0.0
  0
LINE
  5
2be
100
AcDbEntity
  8
Layer_1
 62
7
100
AcDbLine
 10
148.344985
 20
111.700002
 30
0.0
 11
154.434985
 21
111.700002
 31
0.0
  0
LINE
  5
2bf
100
AcDbEntity
  8
Layer_1
 62
7
100
AcDbLine
 10
154.434985
 20
111.700002
 30
0.0
 11
154.434985
 21
111.700002
 31
0.0
  0
LINE
  5
2c0
100
AcDbEntity
  8
Layer_1
 62
7
100
AcDbLine
 10
154.434985
 20
111.700002
 30
0.0
 11
160.369155
 21
111.700002
 31
0.0
  0
LINE
  5
2c1
100
AcDbEntity
  8
Layer_1
 62
7
100
AcDbLine
 10
160.369155
 20
111.700002
 30
0.0
 11
160.369155
 21
111.700002
 31
0.0
  0
LINE
  5
2c2
100
AcDbEntity
  8
Layer_1
 62
7
100
AcDbLine
 10
160.369155
 20
111.700002
 30
0.0
 11
166.459155
 21
111.700002
 31
0.0
  0
LINE
  5
2c3
100
AcDbEntity
  8
Layer_1
 62
7
100
AcDbLine
 10
166.459155
 20
111.700002
 30
0.0
 11
166.459155
 21
111.700002
 31
0.0
  0
LINE
  5
2c4
100
AcDbEntity
  8
Layer_1
 62
7
100
AcDbLine
 10
166.459155
 20
111.700002
 30
0.0
 11
172.393315
 21
111.700002
 31
0.0
  0
LINE
  5
2c5
100
AcDbEntity
  8
Layer_1
 62
7
100
AcDbLine
 10
172.393315
 20
111.700002
 30
0.0
 11
172.393315
 21
111.700002
 31
0.0
  0
LINE
  5
2c6
100
AcDbEntity
  8
Layer_1
 62
7
100
AcDbLine
 10
172.393315
 20
111.700002
 30
0.0
 11
178.483315
 21
111.700002
 31
0.0
  0
LINE
  5
2c7
100
AcDbEntity
  8
Layer_1
 62
7
100
AcDbLine
 10
178.483315
 20
111.700002
 30
0.0
 11
178.483315
 21
111.700002
 31
0.0
  0
LINE
  5
2c8
100
AcDbEntity
  8
Layer_1
 62
7
100
AcDbLine
 10
178.483315
 20
111.700002
 30
0.0
 11
184.417485
 21
111.700002
 31
0.0
  0
LINE
  5
2c9
100
AcDbEntity
  8
Layer_1
 62
7
100
AcDbLine
 10
184.417485
 20
111.700002
 30
0.0
 11
184.417485
 21
111.700002
 31
0.0
  0
LINE
  5
2ca
100
AcDbEntity
  8
Layer_1
 62
7
100
AcDbLine
 10
184.417485
 20
111.700002
 30
0.0
 11
190.507485
 21
111.700002
 31
0.0
  0
LINE
  5
2cb
100
AcDbEntity
  8
Layer_1
 62
7
100
AcDbLine
 10
190.507485
 20
111.700002
 30
0.0
 11
190.507485
 21
111.700002
 31
0.0
  0
LINE
  5
2cc
100
AcDbEntity
  8
Layer_1
 62
7
100
AcDbLine
 10
190.507485
 20
111.700002
 30
0.0
 11
196.441645
 21
111.700002
 31
0.0
  0
LINE
  5
2cd
100
AcDbEntity
  8
Layer_1
 62
7
100
AcDbLine
 10
196.441645
 20
111.700002
 30
0.0
 11
196.441645
 21
111.700002
 31
0.0
  0
LINE
  5
2ce
100
AcDbEntity
  8
Layer_1
 62
7
100
AcDbLine
 10
196.441645
 20
111.700002
 30
0.0
 11
202.531645
 21
111.700002
 31
0.0
  0
LINE
  5
2cf
100
AcDbEntity
  8
Layer_1
 62
7
100
AcDbLine
 10
202.531645
 20
111.700002
 30
0.0
 11
202.531645
 21
111.700002
 31
0.0
  0
LINE
  5
2d0
100
AcDbEntity
  8
Layer_1
 62
7
100
AcDbLine
 10
202.531645
 20
111.700002
 30
0.0
 11
208.465815
 21
111.700002
 31
0.0
  0
LINE
  5
2d1
100
AcDbEntity
  8
Layer_1
 62
7
100
AcDbLine
 10
208.465815
 20
111.700002
 30
0.0
 11
208.465815
 21
111.700002
 31
0.0
  0
LINE
  5
2d2
100
AcDbEntity
  8
Layer_1
 62
7
100
AcDbLine
 10
208.465815
 20
111.700002
 30
0.0
 11
214.555815
 21
111.700002
 31
0.0
  0
LINE
  5
2d3
100
AcDbEntity
  8
Layer_1
 62
7
100
AcDbLine
 10
214.555815
 20
111.700002
 30
0.0
 11
214.555815
 21
111.700002
 31
0.0
  0
LINE
  5
2d4
100
AcDbEntity
  8
Layer_1
 62
7
100
AcDbLine
 10
214.555815
 20
111.700002
 30
0.0
 11
220.489985
 21
111.700002
 31
0.0
  0
LINE
  5
2d5
100
AcDbEntity
  8
Layer_1
 62
7
100
AcDbLine
 10
220.489985
 20
111.700002
 30
0.0
 11
220.489985
 21
111.700002
 31
0.0
  0
LINE
  5
2d6
100
AcDbEntity
  8
Layer_1
 62
7
100
AcDbLine
 10
220.489985
 20
111.700002
 30
0.0
 11
226.579985
 21
111.700002
 31
0.0
  0
LINE
  5
2d7
100
AcDbEntity
  8
Layer_1
 62
7
100
AcDbLine
 10
226.579985
 20
111.700002
 30
0.0
 11
226.579985
 21
111.700002
 31
0.0
  0
LINE
  5
2d8
100
AcDbEntity
  8
Layer_1
 62
7
100
AcDbLine
 10
226.579985
 20
111.700002
 30
0.0
 11
232.514145
 21
111.700002
 31
0.0
  0
LINE
  5
2d9
100
AcDbEntity
  8
Layer_1
 62
7
100
AcDbLine
 10
232.514145
 20
111.700002
 30
0.0
 11
232.514145
 21
111.700002
 31
0.0
  0
LINE
  5
2da
100
AcDbEntity
  8
Layer_1
 62
7
100
AcDbLine
 10
232.514145
 20
111.700002
 30
0.0
 11
238.604145
 21
111.700002
 31
0.0
  0
LINE
  5
2db
100
AcDbEntity
  8
Layer_1
 62
7
100
AcDbLine
 10
238.604145
 20
111.700002
 30
0.0
 11
238.604145
 21
111.700002
 31
0.0
  0
LINE
  5
2dc
100
AcDbEntity
  8
Layer_1
 62
7
100
AcDbLine
 10
238.604145
 20
111.700002
 30
0.0
 11
244.538315
 21
111.700002
 31
0.0
  0
LINE
  5
2dd
100
AcDbEntity
  8
Layer_1
 62
7
100
AcDbLine
 10
244.538315
 20
111.700002
 30
0.0
 11
244.538315
 21
111.700002
 31
0.0
  0
LINE
  5
2de
100
AcDbEntity
  8
Layer_1
 62
7
100
AcDbLine
 10
244.538315
 20
111.700002
 30
0.0
 11
250.628315
 21
111.700002
 31
0.0
  0
LINE
  5
2df
100
AcDbEntity
  8
Layer_1
 62
7
100
AcDbLine
 10
250.628315
 20
111.700002
 30
0.0
 11
250.628315
 21
111.700002
 31
0.0
  0
LINE
  5
2e0
100
AcDbEntity
  8
Layer_1
 62
7
100
AcDbLine
 10
250.628315
 20
111.700002
 30
0.0
 11
256.562485
 21
111.700002
 31
0.0
  0
LINE
  5
2e1
100
AcDbEntity
  8
Layer_1
 62
7
100
AcDbLine
 10
256.562485
 20
111.700002
 30
0.0
 11
256.562485
 21
111.700002
 31
0.0
  0
LINE
  5
2e2
100
AcDbEntity
  8
Layer_1
 62
7
100
AcDbLine
 10
256.562485
 20
111.700002
 30
0.0
 11
262.652485
 21
111.700002
 31
0.0
  0
LINE
  5
2e3
100
AcDbEntity
  8
Layer_1
 62
7
100
AcDbLine
 10
262.652485
 20
111.700002
 30
0.0
 11
262.652485
 21
111.700002
 31
0.0
  0
LINE
  5
2e4
100
AcDbEntity
  8
Layer_1
 62
7
100
AcDbLine
 10
262.652485
 20
111.700002
 30
0.0
 11
268.586645
 21
111.700002
 31
0.0
  0
LINE
  5
2e5
100
AcDbEntity
  8
Layer_1
 62
7
100
AcDbLine
 10
268.586645
 20
111.700002
 30
0.0
 11
268.586645
 21
111.700002
 31
0.0
  0
LINE
  5
2e6
100
AcDbEntity
  8
Layer_1
 62
7
100
AcDbLine
 10
268.586645
 20
111.700002
 30
0.0
 11
274.676645
 21
111.700002
 31
0.0
  0
LINE
  5
2e7
100
AcDbEntity
  8
Layer_1
 62
7
100
AcDbLine
 10
274.676645
 20
111.700002
 30
0.0
 11
274.676645
 21
111.700002
 31
0.0
  0
LINE
  5
2e8
100
AcDbEntity
  8
Layer_1
 62
7
100
AcDbLine
 10
274.676645
 20
111.700002
 30
0.0
 11
280.610815
 21
111.700002
 31
0.0
  0
LINE
  5
2e9
100
AcDbEntity
  8
Layer_1
 62
7
100
AcDbLine
 10
280.610815
 20
111.700002
 30
0.0
 11
280.610815
 21
111.700002
 31
0.0
  0
LINE
  5
2ea
100
AcDbEntity
  8
Layer_1
 62
7
100
AcDbLine
 10
280.610815
 20
111.700002
 30
0.0
 11
286.700815
 21
111.700002
 31
0.0
  0
LINE
  5
2eb
100
AcDbEntity
  8
Layer_1
 62
7
100
AcDbLine
 10
286.700815
 20
111.700002
 30
0.0
 11
286.700815
 21
111.700002
 31
0.0
  0
LINE
  5
2ec
100
AcDbEntity
  8
Layer_1
 62
7
100
AcDbLine
 10
286.700815
 20
111.700002
 30
0.0
 11
292.679975
 21
111.700002
 31
0.0
  0
LINE
  5
2ed
100
AcDbEntity
  8
Layer_1
 62
7
100
AcDbLine
 10
18.434850
 20
314.900000
 30
0.0
 11
21.883030
 21
314.900000
 31
0.0
  0
LINE
  5
2ee
100
AcDbEntity
  8
Layer_1
 62
7
100
AcDbLine
 10
21.883030
 20
314.900000
 30
0.0
 11
21.883030
 21
314.900000
 31
0.0
  0
LINE
  5
2ef
100
AcDbEntity
  8
Layer_1
 62
7
100
AcDbLine
 10
21.883030
 20
314.900000
 30
0.0
 11
27.973030
 21
314.900000
 31
0.0
  0
LINE
  5
2f0
100
AcDbEntity
  8
Layer_1
 62
7
100
AcDbLine
 10
27.973030
 20
314.900000
 30
0.0
 11
27.973030
 21
314.900000
 31
0.0
  0
LINE
  5
2f1
100
AcDbEntity
  8
Layer_1
 62
7
100
AcDbLine
 10
27.973030
 20
314.900000
 30
0.0
 11
34.551210
 21
314.900000
 31
0.0
  0
LINE
  5
2f2
100
AcDbEntity
  8
Layer_1
 62
7
100
AcDbLine
 10
34.551210
 20
314.900000
 30
0.0
 11
34.551210
 21
314.900000
 31
0.0
  0
LINE
  5
2f3
100
AcDbEntity
  8
Layer_1
 62
7
100
AcDbLine
 10
34.551210
 20
314.900000
 30
0.0
 11
40.641210
 21
314.900000
 31
0.0
  0
LINE
  5
2f4
100
AcDbEntity
  8
Layer_1
 62
7
100
AcDbLine
 10
40.641210
 20
314.900000
 30
0.0
 11
40.641210
 21
314.900000
 31
0.0
  0
LINE
  5
2f5
100
AcDbEntity
  8
Layer_1
 62
7
100
AcDbLine
 10
40.641210
 20
314.900000
 30
0.0
 11
47.219390
 21
314.900000
 31
0.0
  0
LINE
  5
2f6
100
AcDbEntity
  8
Layer_1
 62
7
100
AcDbLine
 10
47.219390
 20
314.900000
 30
0.0
 11
47.219390
 21
314.900000
 31
0.0
  0
LINE
  5
2f7
100
AcDbEntity
  8
Layer_1
 62
7
100
AcDbLine
 10
47.219390
 20
314.900000
 30
0.0
 11
53.309390
 21
314.900000
 31
0.0
  0
LINE
  5
2f8
100
AcDbEntity
  8
Layer_1
 62
7
100
AcDbLine
 10
53.309390
 20
314.900000
 30
0.0
 11
53.309390
 21
314.900000
 31
0.0
  0
LINE
  5
2f9
100
AcDbEntity
  8
Layer_1
 62
7
100
AcDbLine
 10
53.309390
 20
314.900000
 30
0.0
 11
59.887580
 21
314.900000
 31
0.0
  0
LINE
  5
2fa
100
AcDbEntity
  8
Layer_1
 62
7
100
AcDbLine
 10
59.887580
 20
314.900000
 30
0.0
 11
59.887580
 21
314.900000
 31
0.0
  0
LINE
  5
2fb
100
AcDbEntity
  8
Layer_1
 62
7
100
AcDbLine
 10
59.887580
 20
314.900000
 30
0.0
 11
65.977580
 21
314.900000
 31
0.0
  0
LINE
  5
2fc
100
AcDbEntity
  8
Layer_1
 62
7
100
AcDbLine
 10
65.977580
 20
314.900000
 30
0.0
 11
65.977580
 21
314.900000
 31
0.0
  0
LINE
  5
2fd
100
AcDbEntity
  8
Layer_1
 62
7
100
AcDbLine
 10
65.977580
 20
314.900000
 30
0.0
 11
72.555760
 21
314.900000
 31
0.0
  0
LINE
  5
2fe
100
AcDbEntity
  8
Layer_1
 62
7
100
AcDbLine
 10
72.555760
 20
314.900000
 30
0.0
 11
72.555760
 21
314.900000
 31
0.0
  0
LINE
  5
2ff
100
AcDbEntity
  8
Layer_1
 62
7
100
AcDbLine
 10
72.555760
 20
314.900000
 30
0.0
 11
78.645760
 21
314.900000
 31
0.0
  0
LINE
  5
300
100
AcDbEntity
  8
Layer_1
 62
7
100
AcDbLine
 10
78.645760
 20
314.900000
 30
0.0
 11
78.645760
 21
314.900000
 31
0.0
  0
LINE
  5
301
100
AcDbEntity
  8
Layer_1
 62
7
100
AcDbLine
 10
78.645760
 20
314.900000
 30
0.0
 11
85.223940
 21
314.900000
 31
0.0
  0
LINE
  5
302
100
AcDbEntity
  8
Layer_1
 62
7
100
AcDbLine
 10
85.223940
 20
314.900000
 30
0.0
 11
85.223940
 21
314.900000
 31
0.0
  0
LINE
  5
303
100
AcDbEntity
  8
Layer_1
 62
7
100
AcDbLine
 10
85.223940
 20
314.900000
 30
0.0
 11
91.313940
 21
314.900000
 31
0.0
  0
LINE
  5
304
100
AcDbEntity
  8
Layer_1
 62
7
100
AcDbLine
 10
91.313940
 20
314.900000
 30
0.0
 11
91.313940
 21
314.900000
 31
0.0
  0
LINE
  5
305
100
AcDbEntity
  8
Layer_1
 62
7
100
AcDbLine
 10
91.313940
 20
314.900000
 30
0.0
 11
97.892120
 21
314.900000
 31
0.0
  0
LINE
  5
306
100
AcDbEntity
  8
Layer_1
 62
7
100
AcDbLine
 10
97.892120
 20
314.900000
 30
0.0
 11
97.892120
 21
314.900000
 31
0.0
  0
LINE
  5
307
100
AcDbEntity
  8
Layer_1
 62
7
100
AcDbLine
 10
97.892120
 20
314.900000
 30
0.0
 11
103.982120
 21
314.900000
 31
0.0
  0
LINE
  5
308
100
AcDbEntity
  8
Layer_1
 62
7
100
AcDbLine
 10
103.982120
 20
314.900000
 30
0.0
 11
103.982120
 21
314.900000
 31
0.0
  0
LINE
  5
309
100
AcDbEntity
  8
Layer_1
 62
7
100
AcDbLine
 10
103.982120
 20
314.900000
 30
0.0
 11
110.560310
 21
314.900000
 31
0.0
  0
LINE
  5
30a
100
AcDbEntity
  8
Layer_1
 62
7
100
AcDbLine
 10
110.560310
 20
314.900000
 30
0.0
 11
110.560310
 21
314.900000
 31
0.0
  0
LINE
  5
30b
100
AcDbEntity
  8
Layer_1
 62
7
100
AcDbLine
 10
110.560310
 20
314.900000
 30
0.0
 11
116.650310
 21
314.900000
 31
0.0
  0
LINE
  5
30c
100
AcDbEntity
  8
Layer_1
 62
7
100
AcDbLine
 10
116.650310
 20
314.900000
 30
0.0
 11
116.650310
 21
314.900000
 31
0.0
  0
LINE
  5
30d
100
AcDbEntity
  8
Layer_1
 62
7
100
AcDbLine
 10
116.650310
 20
314.900000
 30
0.0
 11
123.228485
 21
314.900000
 31
0.0
  0
LINE
  5
30e
100
AcDbEntity
  8
Layer_1
 62
7
100
AcDbLine
 10
123.228485
 20
314.900000
 30
0.0
 11
123.228485
 21
314.900000
 31
0.0
  0
LINE
  5
30f
100
AcDbEntity
  8
Layer_1
 62
7
100
AcDbLine
 10
123.228485
 20
314.900000
 30
0.0
 11
129.318485
 21
314.900000
 31
0.0
  0
LINE
  5
310
100
AcDbEntity
  8
Layer_1
 62
7
100
AcDbLine
 10
129.318485
 20
314.900000
 30
0.0
 11
129.318485
 21
314.900000
 31
0.0
  0
LINE
  5
311
100
AcDbEntity
  8
Layer_1
 62
7
100
AcDbLine
 10
129.318485
 20
314.900000
 30
0.0
 11
135.896665
 21
314.900000
 31
0.0
  0
LINE
  5
312
100
AcDbEntity
  8
Layer_1
 62
7
100
AcDbLine
 10
135.896665
 20
314.900000
 30
0.0
 11
135.896665
 21
314.900000
 31
0.0
  0
LINE
  5
313
100
AcDbEntity
  8
Layer_1
 62
7
100
AcDbLine
 10
135.896665
 20
314.900000
 30
0.0
 11
141.986665
 21
314.900000
 31
0.0
  0
LINE
  5
314
100
AcDbEntity
  8
Layer_1
 62
7
100
AcDbLine
 10
141.986665
 20
314.900000
 30
0.0
 11
141.986665
 21
314.900000
 31
0.0
  0
LINE
  5
315
100
AcDbEntity
  8
Layer_1
 62
7
100
AcDbLine
 10
141.986665
 20
314.900000
 30
0.0
 11
145.434845
 21
314.900000
 31
0.0
  0
LINE
  5
316
100
AcDbEntity
  8
Layer_1
 62
7
100
AcDbLine
 10
18.434850
 20
213.300000
 30
0.0
 11
18.434850
 21
216.741110
 31
0.0
  0
LINE
  5
317
100
AcDbEntity
  8
Layer_1
 62
7
100
AcDbLine
 10
18.434850
 20
216.741110
 30
0.0
 11
15.259850
 21
216.741110
 31
0.0
  0
LINE
  5
318
100
AcDbEntity
  8
Layer_1
 62
7
100
AcDbLine
 10
15.259850
 20
216.741110
 30
0.0
 11
15.259850
 21
222.831110
 31
0.0
  0
LINE
  5
319
100
AcDbEntity
  8
Layer_1
 62
7
100
AcDbLine
 10
15.259850
 20
222.831110
 30
0.0
 11
18.434850
 21
222.831110
 31
0.0
  0
LINE
  5
31a
100
AcDbEntity
  8
Layer_1
 62
7
100
AcDbLine
 10
18.434850
 20
222.831110
 30
0.0
 11
18.434850
 21
229.402220
 31
0.0
  0
LINE
  5
31b
100
AcDbEntity
  8
Layer_1
 62
7
100
AcDbLine
 10
18.434850
 20
229.402220
 30
0.0
 11
15.259850
 21
229.402220
 31
0.0
  0
LINE
  5
31c
100
AcDbEntity
  8
Layer_1
 62
7
100
AcDbLine
 10
15.259850
 20
229.402220
 30
0.0
 11
15.259850
 21
235.492220
 31
0.0
  0
LINE
  5
31d
100
AcDbEntity
  8
Layer_1
 62
7
100
AcDbLine
 10
15.259850
 20
235.492220
 30
0.0
 11
18.434850
 21
235.492220
 31
0.0
  0
LINE
  5
31e
100
AcDbEntity
  8
Layer_1
 62
7
100
AcDbLine
 10
18.434850
 20
235.492220
 30
0.0
 11
18.434850
 21
242.063330
 31
0.0
  0
LINE
  5
31f
100
AcDbEntity
  8
Layer_1
 62
7
100
AcDbLine
 10
18.434850
 20
242.063330
 30
0.0
 11
15.259850
 21
242.063330
 31
0.0
  0
LINE
  5
320
100
AcDbEntity
  8
Layer_1
 62
7
100
AcDbLine
 10
15.259850
 20
242.063330
 30
0.0
 11
15.259850
 21
248.153330
 31
0.0
  0
LINE
  5
321
100
AcDbEntity
  8
Layer_1
 62
7
100
AcDbLine
 10
15.259850
 20
248.153330
 30
0.0
 11
18.434850
 21
248.153330
 31
0.0
  0
LINE
  5
322
100
AcDbEntity
  8
Layer_1
 62
7
100
AcDbLine
 10
18.434850
 20
248.153330
 30
0.0
 11
18.434850
 21
254.724440
 31
0.0
  0
LINE
  5
323
100
AcDbEntity
  8
Layer_1
 62
7
100
AcDbLine
 10
18.434850
 20
254.724440
 30
0.0
 11
15.259850
 21
254.724440
 31
0.0
  0
LINE
  5
324
100
AcDbEntity
  8
Layer_1
 62
7
100
AcDbLine
 10
15.259850
 20
254.724440
 30
0.0
 11
15.259850
 21
260.814440
 31
0.0
  0
LINE
  5
325
100
AcDbEntity
  8
Layer_1
 62
7
100
AcDbLine
 10
15.259850
 20
260.814440
 30
0.0
 11
18.434850
 21
260.814440
 31
0.0
  0
LINE
  5
326
100
AcDbEntity
  8
Layer_1
 62
7
100
AcDbLine
 10
18.434850
 20
260.814440
 30
0.0
 11
18.434850
 21
267.385550
 31
0.0
  0
LINE
  5
327
100
AcDbEntity
  8
Layer_1
 62
7
100
AcDbLine
 10
18.434850
 20
267.385550
 30
0.0
 11
15.259850
 21
267.385550
 31
0.0
  0
LINE
  5
328
100
AcDbEntity
  8
Layer_1
 62
7
100
AcDbLine
 10
15.259850
 20
267.385550
 30
0.0
 11
15.259850
 21
273.475550
 31
0.0
  0
LINE
  5
329
100
AcDbEntity
  8
Layer_1
 62
7
100
AcDbLine
 10
15.259850
 20
273.475550
 30
0.0
 11
18.434850
 21
273.475550
 31
0.0
  0
LINE
  5
32a
100
AcDbEntity
  8
Layer_1
 62
7
100
AcDbLine
 10
18.434850
 20
273.475550
 30
0.0
 11
18.434850
 21
280.046660
 31
0.0
  0
LINE
  5
32b
100
AcDbEntity
  8
Layer_1
 62
7
100
AcDbLine
 10
18.434850
 20
280.046660
 30
0.0
 11
15.259850
 21
280.046660
 31
0.0
  0
LINE
  5
32c
100
AcDbEntity
  8
Layer_1
 62
7
100
AcDbLine
 10
15.259850
 20
280.046660
 30
0.0
 11
15.259850
 21
286.136660
 31
0.0
  0
LINE
  5
32d
100
AcDbEntity
  8
Layer_1
 62
7
100
AcDbLine
 10
15.259850
 20
286.136660
 30
0.0
 11
18.434850
 21
286.136660
 31
0.0
  0
LINE
  5
32e
100
AcDbEntity
  8
Layer_1
 62
7
100
AcDbLine
 10
18.434850
 20
286.136660
 30
0.0
 11
18.434850
 21
292.707770
 31
0.0
  0
LINE
  5
32f
100
AcDbEntity
  8
Layer_1
 62
7
100
AcDbLine
 10
18.434850
 20
292.707770
 30
0.0
 11
15.259850
 21
292.707770
 31
0.0
  0
LINE
  5
330
100
AcDbEntity
  8
Layer_1
 62
7
100
AcDbLine
 10
15.259850
 20
292.707770
 30
0.0
 11
15.259850
 21
298.797770
 31
0.0
  0
LINE
  5
331
100
AcDbEntity
  8
Layer_1
 62
7
100
AcDbLine
 10
15.259850
 20
298.797770
 30
0.0
 11
18.434850
 21
298.797770
 31
0.0
  0
LINE
  5
332
100
AcDbEntity
  8
Layer_1
 62
7
100
AcDbLine
 10
18.434850
 20
298.797770
 30
0.0
 11
18.434850
 21
305.368890
 31
0.0
  0
LINE
  5
333
100
AcDbEntity
  8
Layer_1
 62
7
100
AcDbLine
 10
18.434850
 20
305.368890
 30
0.0
 11
15.259850
 21
305.368890
 31
0.0
  0
LINE
  5
334
100
AcDbEntity
  8
Layer_1
 62
7
100
AcDbLine
 10
15.259850
 20
305.368890
 30
0.0
 11
15.259850
 21
311.458890
 31
0.0
  0
LINE
  5
335
100
AcDbEntity
  8
Layer_1
 62
7
100
AcDbLine
 10
15.259850
 20
311.458890
 30
0.0
 11
18.434850
 21
311.458890
 31
0.0
  0
LINE
  5
336
100
AcDbEntity
  8
Layer_1
 62
7
100
AcDbLine
 10
18.434850
 20
311.458890
 30
0.0
 11
18.434850
 21
314.900000
 31
0.0
  0
LINE
  5
337
100
AcDbEntity
  8
Layer_1
 62
7
100
AcDbLine
 10
145.434845
 20
314.900000
 30
0.0
 11
145.434845
 21
311.458890
 31
0.0
  0
LINE
  5
338
100
AcDbEntity
  8
Layer_1
 62
7
100
AcDbLine
 10
145.434845
 20
311.458890
 30
0.0
 11
148.609845
 21
311.458890
 31
0.0
  0
LINE
  5
339
100
AcDbEntity
  8
Layer_1
 62
7
100
AcDbLine
 10
148.609845
 20
311.458890
 30
0.0
 11
148.609845
 21
305.368890
 31
0.0
  0
LINE
  5
33a
100
AcDbEntity
  8
Layer_1
 62
7
100
AcDbLine
 10
148.609845
 20
305.368890
 30
0.0
 11
145.434845
 21
305.368890
 31
0.0
  0
LINE
  5
33b
100
AcDbEntity
  8
Layer_1
 62
7
100
AcDbLine
 10
145.434845
 20
305.368890
 30
0.0
 11
145.434845
 21
298.797770
 31
0.0
  0
LINE
  5
33c
100
AcDbEntity
  8
Layer_1
 62
7
100
AcDbLine
 10
145.434845
 20
298.797770
 30
0.0
 11
148.609845
 21
298.797770
 31
0.0
  0
LINE
  5
33d
100
AcDbEntity
  8
Layer_1
 62
7
100
AcDbLine
 10
148.609845
 20
298.797770
 30
0.0
 11
148.609845
 21
292.707770
 31
0.0
  0
LINE
  5
33e
100
AcDbEntity
  8
Layer_1
 62
7
100
AcDbLine
 10
148.609845
 20
292.707770
 30
0.0
 11
145.434845
 21
292.707770
 31
0.0
  0
LINE
  5
33f
100
AcDbEntity
  8
Layer_1
 62
7
100
AcDbLine
 10
145.434845
 20
292.707770
 30
0.0
 11
145.434845
 21
286.136660
 31
0.0
  0
LINE
  5
340
100
AcDbEntity
  8
Layer_1
 62
7
100
AcDbLine
 10
145.434845
 20
286.136660
 30
0.0
 11
148.609845
 21
286.136660
 31
0.0
  0
LINE
  5
341
100
AcDbEntity
  8
Layer_1
 62
7
100
AcDbLine
 10
148.609845
 20
286.136660
 30
0.0
 11
148.609845
 21
280.046660
 31
0.0
  0
LINE
  5
342
100
AcDbEntity
  8
Layer_1
 62
7
100
AcDbLine
 10
148.609845
 20
280.046660
 30
0.0
 11
145.434845
 21
280.046660
 31
0.0
  0
LINE
  5
343
100
AcDbEntity
  8
Layer_1
 62
7
100
AcDbLine
 10
145.434845
 20
280.046660
 30
0.0
 11
145.434845
 21
273.475550
 31
0.0
  0
LINE
  5
344
100
AcDbEntity
  8
Layer_1
 62
7
100
AcDbLine
 10
145.434845
 20
273.475550
 30
0.0
 11
148.609845
 21
273.475550
 31
0.0
  0
LINE
  5
345
100
AcDbEntity
  8
Layer_1
 62
7
100
AcDbLine
 10
148.609845
 20
273.475550
 30
0.0
 11
148.609845
 21
267.385550
 31
0.0
  0
LINE
  5
346
100
AcDbEntity
  8
Layer_1
 62
7
100
AcDbLine
 10
148.609845
 20
267.385550
 30
0.0
 11
145.434845
 21
267.385550
 31
0.0
  0
LINE
  5
347
100
AcDbEntity
  8
Layer_1
 62
7
100
AcDbLine
 10
145.434845
 20
267.385550
 30
0.0
 11
145.434845
 21
260.814440
 31
0.0
  0
LINE
  5
348
100
AcDbEntity
  8
Layer_1
 62
7
100
AcDbLine
 10
145.434845
 20
260.814440
 30
0.0
 11
148.609845
 21
260.814440
 31
0.0
  0
LINE
  5
349
100
AcDbEntity
  8
Layer_1
 62
7
100
AcDbLine
 10
148.609845
 20
260.814440
 30
0.0
 11
148.609845
 21
254.724440
 31
0.0
  0
LINE
  5
34a
100
AcDbEntity
  8
Layer_1
 62
7
100
AcDbLine
 10
148.609845
 20
254.724440
 30
0.0
 11
145.434845
 21
254.724440
 31
0.0
  0
LINE
  5
34b
100
AcDbEntity
  8
Layer_1
 62
7
100
AcDbLine
 10
145.434845
 20
254.724440
 30
0.0
 11
145.434845
 21
248.153330
 31
0.0
  0
LINE
  5
34c
100
AcDbEntity
  8
Layer_1
 62
7
100
AcDbLine
 10
145.434845
 20
248.153330
 30
0.0
 11
148.609845
 21
248.153330
 31
0.0
  0
LINE
  5
34d
100
AcDbEntity
  8
Layer_1
 62
7
100
AcDbLine
 10
148.609845
 20
248.153330
 30
0.0
 11
148.609845
 21
242.063330
 31
0.0
  0
LINE
  5
34e
100
AcDbEntity
  8
Layer_1
 62
7
100
AcDbLine
 10
148.609845
 20
242.063330
 30
0.0
 11
145.434845
 21
242.063330
 31
0.0
  0
LINE
  5
34f
100
AcDbEntity
  8
Layer_1
 62
7
100
AcDbLine
 10
145.434845
 20
242.063330
 30
0.0
 11
145.434845
 21
235.492220
 31
0.0
  0
LINE
  5
350
100
AcDbEntity
  8
Layer_1
 62
7
100
AcDbLine
 10
145.434845
 20
235.492220
 30
0.0
 11
148.609845
 21
235.492220
 31
0.0
  0
LINE
  5
351
100
AcDbEntity
  8
Layer_1
 62
7
100
AcDbLine
 10
148.609845
 20
235.492220
 30
0.0
 11
148.609845
 21
229.402220
 31
0.0
  0
LINE
  5
352
100
AcDbEntity
  8
Layer_1
 62
7
100
AcDbLine
 10
148.609845
 20
229.402220
 30
0.0
 11
145.434845
 21
229.402220
 31
0.0
  0
LINE
  5
353
100
AcDbEntity
  8
Layer_1
 62
7
100
AcDbLine
 10
145.434845
 20
229.402220
 30
0.0
 11
145.434845
 21
222.831110
 31
0.0
  0
LINE
  5
354
100
AcDbEntity
  8
Layer_1
 62
7
100
AcDbLine
 10
145.434845
 20
222.831110
 30
0.0
 11
148.609845
 21
222.831110
 31
0.0
  0
LINE
  5
355
100
AcDbEntity
  8
Layer_1
 62
7
100
AcDbLine
 10
148.609845
 20
222.831110
 30
0.0
 11
148.609845
 21
216.741110
 31
0.0
  0
LINE
  5
356
100
AcDbEntity
  8
Layer_1
 62
7
100
AcDbLine
 10
148.609845
 20
216.741110
 30
0.0
 11
145.434845
 21
216.741110
 31
0.0
  0
LINE
  5
357
100
AcDbEntity
  8
Layer_1
 62
7
100
AcDbLine
 10
145.434845
 20
216.741110
 30
0.0
 11
145.434845
 21
213.300000
 31
0.0
  0
LINE
  5
358
100
AcDbEntity
  8
Layer_1
 62
7
100
AcDbLine
 10
157.345125
 20
314.900000
 30
0.0
 11
160.793305
 21
314.900000
 31
0.0
  0
LINE
  5
359
100
AcDbEntity
  8
Layer_1
 62
7
100
AcDbLine
 10
160.793305
 20
314.900000
 30
0.0
 11
160.793305
 21
314.900000
 31
0.0
  0
LINE
  5
35a
100
AcDbEntity
  8
Layer_1
 62
7
100
AcDbLine
 10
160.793305
 20
314.900000
 30
0.0
 11
166.883305
 21
314.900000
 31
0.0
  0
LINE
  5
35b
100
AcDbEntity
  8
Layer_1
 62
7
100
AcDbLine
 10
166.883305
 20
314.900000
 30
0.0
 11
166.883305
 21
314.900000
 31
0.0
  0
LINE
  5
35c
100
AcDbEntity
  8
Layer_1
 62
7
100
AcDbLine
 10
166.883305
 20
314.900000
 30
0.0
 11
173.461485
 21
314.900000
 31
0.0
  0
LINE
  5
35d
100
AcDbEntity
  8
Layer_1
 62
7
100
AcDbLine
 10
173.461485
 20
314.900000
 30
0.0
 11
173.461485
 21
314.900000
 31
0.0
  0
LINE
  5
35e
100
AcDbEntity
  8
Layer_1
 62
7
100
AcDbLine
 10
173.461485
 20
314.900000
 30
0.0
 11
179.551485
 21
314.900000
 31
0.0
  0
LINE
  5
35f
100
AcDbEntity
  8
Layer_1
 62
7
100
AcDbLine
 10
179.551485
 20
314.900000
 30
0.0
 11
179.551485
 21
314.900000
 31
0.0
  0
LINE
  5
360
100
AcDbEntity
  8
Layer_1
 62
7
100
AcDbLine
 10
179.551485
 20
314.900000
 30
0.0
 11
186.129665
 21
314.900000
 31
0.0
  0
LINE
  5
361
100
AcDbEntity
  8
Layer_1
 62
7
100
AcDbLine
 10
186.129665
 20
314.900000
 30
0.0
 11
186.129665
 21
314.900000
 31
0.0
  0
LINE
  5
362
100
AcDbEntity
  8
Layer_1
 62
7
100
AcDbLine
 10
186.129665
 20
314.900000
 30
0.0
 11
192.219665
 21
314.900000
 31
0.0
  0
LINE
  5
363
100
AcDbEntity
  8
Layer_1
 62
7
100
AcDbLine
 10
192.219665
 20
314.900000
 30
0.0
 11
192.219665
 21
314.900000
 31
0.0
  0
LINE
  5
364
100
AcDbEntity
  8
Layer_1
 62
7
100
AcDbLine
 10
192.219665
 20
314.900000
 30
0.0
 11
198.797855
 21
314.900000
 31
0.0
  0
LINE
  5
365
100
AcDbEntity
  8
Layer_1
 62
7
100
AcDbLine
 10
198.797855
 20
314.900000
 30
0.0
 11
198.797855
 21
314.900000
 31
0.0
  0
LINE
  5
366
100
AcDbEntity
  8
Layer_1
 62
7
100
AcDbLine
 10
198.797855
 20
314.900000
 30
0.0
 11
204.887855
 21
314.900000
 31
0.0
  0
LINE
  5
367
100
AcDbEntity
  8
Layer_1
 62
7
100
AcDbLine
 10
204.887855
 20
314.900000
 30
0.0
 11
204.887855
 21
314.900000
 31
0.0
  0
LINE
  5
368
100
AcDbEntity
  8
Layer_1
 62
7
100
AcDbLine
 10
204.887855
 20
314.900000
 30
0.0
 11
211.466035
 21
314.900000
 31
0.0
  0
LINE
  5
369
100
AcDbEntity
  8
Layer_1
 62
7
100
AcDbLine
 10
211.466035
 20
314.900000
 30
0.0
 11
211.466035
 21
314.900000
 31
0.0
  0
LINE
  5
36a
100
AcDbEntity
  8
Layer_1
 62
7
100
AcDbLine
 10
211.466035
 20
314.900000
 30
0.0
 11
217.556035
 21
314.900000
 31
0.0
  0
LINE
  5
36b
100
AcDbEntity
  8
Layer_1
 62
7
100
AcDbLine
 10
217.556035
 20
314.900000
 30
0.0
 11
217.556035
 21
314.900000
 31
0.0
  0
LINE
  5
36c
100
AcDbEntity
  8
Layer_1
 62
7
100
AcDbLine
 10
217.556035
 20
314.900000
 30
0.0
 11
224.134215
 21
314.900000
 31
0.0
  0
LINE
  5
36d
100
AcDbEntity
  8
Layer_1
 62
7
100
AcDbLine
 10
224.134215
 20
314.900000
 30
0.0
 11
224.134215
 21
314.900000
 31
0.0
  0
LINE
  5
36e
100
AcDbEntity
  8
Layer_1
 62
7
100
AcDbLine
 10
224.134215
 20
314.900000
 30
0.0
 11
230.224215
 21
314.900000
 31
0.0
  0
LINE
  5
36f
100
AcDbEntity
  8
Layer_1
 62
7
100
AcDbLine
 10
230.224215
 20
314.900000
 30
0.0
 11
230.224215
 21
314.900000
 31
0.0
  0
LINE
  5
370
100
AcDbEntity
  8
Layer_1
 62
7
100
AcDbLine
 10
230.224215
 20
314.900000
 30
0.0
 11
236.802395
 21
314.900000
 31
0.0
  0
LINE
  5
371
100
AcDbEntity
  8
Layer_1
 62
7
100
AcDbLine
 10
236.802395
 20
314.900000
 30
0.0
 11
236.802395
 21
314.900000
 31
0.0
  0
LINE
  5
372
100
AcDbEntity
  8
Layer_1
 62
7
100
AcDbLine
 10
236.802395
 20
314.900000
 30
0.0
 11
242.892395
 21
314.900000
 31
0.0
  0
LINE
  5
373
100
AcDbEntity
  8
Layer_1
 62
7
100
AcDbLine
 10
242.892395
 20
314.900000
 30
0.0
 11
242.892395
 21
314.900000
 31
0.0
  0
LINE
  5
374
100
AcDbEntity
  8
Layer_1
 62
7
100
AcDbLine
 10
242.892395
 20
314.900000
 30
0.0
 11
249.470585
 21
314.900000
 31
0.0
  0
LINE
  5
375
100
AcDbEntity
  8
Layer_1
 62
7
100
AcDbLine
 10
249.470585
 20
314.900000
 30
0.0
 11
249.470585
 21
314.900000
 31
0.0
  0
LINE
  5
376
100
AcDbEntity
  8
Layer_1
 62
7
100
AcDbLine
 10
249.470585
 20
314.900000
 30
0.0
 11
255.560585
 21
314.900000
 31
0.0
  0
LINE
  5
377
100
AcDbEntity
  8
Layer_1
 62
7
100
AcDbLine
 10
255.560585
 20
314.900000
 30
0.0
 11
255.560585
 21
314.900000
 31
0.0
  0
LINE
  5
378
100
AcDbEntity
  8
Layer_1
 62
7
100
AcDbLine
 10
255.560585
 20
314.900000
 30
0.0
 11
262.138765
 21
314.900000
 31
0.0
  0
LINE
  5
379
100
AcDbEntity
  8
Layer_1
 62
7
100
AcDbLine
 10
262.138765
 20
314.900000
 30
0.0
 11
262.138765
 21
314.900000
 31
0.0
  0
LINE
  5
37a
100
AcDbEntity
  8
Layer_1
 62
7
100
AcDbLine
 10
262.138765
 20
314.900000
 30
0.0
 11
268.228765
 21
314.900000
 31
0.0
  0
LINE
  5
37b
100
AcDbEntity
  8
Layer_1
 62
7
100
AcDbLine
 10
268.228765
 20
314.900000
 30
0.0
 11
268.228765
 21
314.900000
 31
0.0
  0
LINE
  5
37c
100
AcDbEntity
  8
Layer_1
 62
7
100
AcDbLine
 10
268.228765
 20
314.900000
 30
0.0
 11
274.806945
 21
314.900000
 31
0.0
  0
LINE
  5
37d
100
AcDbEntity
  8
Layer_1
 62
7
100
AcDbLine
 10
274.806945
 20
314.900000
 30
0.0
 11
274.806945
 21
314.900000
 31
0.0
  0
LINE
  5
37e
100
AcDbEntity
  8
Layer_1
 62
7
100
AcDbLine
 10
274.806945
 20
314.900000
 30
0.0
 11
280.896945
 21
314.900000
 31
0.0
  0
LINE
  5
37f
100
AcDbEntity
  8
Layer_1
 62
7
100
AcDbLine
 10
280.896945
 20
314.900000
 30
0.0
 11
280.896945
 21
314.900000
 31
0.0
  0
LINE
  5
380
100
AcDbEntity
  8
Layer_1
 62
7
100
AcDbLine
 10
280.896945
 20
314.900000
 30
0.0
 11
284.345125
 21
314.900000
 31
0.0
  0
LINE
  5
381
100
AcDbEntity
  8
Layer_1
 62
7
100
AcDbLine
 10
157.345125
 20
213.300000
 30
0.0
 11
157.345125
 21
216.741110
 31
0.0
  0
LINE
  5
382
100
AcDbEntity
  8
Layer_1
 62
7
100
AcDbLine
 10
157.345125
 20
216.741110
 30
0.0
 11
154.170125
 21
216.741110
 31
0.0
  0
LINE
  5
383
100
AcDbEntity
  8
Layer_1
 62
7
100
AcDbLine
 10
154.170125
 20
216.741110
 30
0.0
 11
154.170125
 21
222.831110
 31
0.0
  0
LINE
  5
384
100
AcDbEntity
  8
Layer_1
 62
7
100
AcDbLine
 10
154.170125
 20
222.831110
 30
0.0
 11
157.345125
 21
222.831110
 31
0.0
  0
LINE
  5
385
100
AcDbEntity
  8
Layer_1
 62
7
100
AcDbLine
 10
157.345125
 20
222.831110
 30
0.0
 11
157.345125
 21
229.402220
 31
0.0
  0
LINE
  5
386
100
AcDbEntity
  8
Layer_1
 62
7
100
AcDbLine
 10
157.345125
 20
229.402220
 30
0.0
 11
154.170125
 21
229.402220
 31
0.0
  0
LINE
  5
387
100
AcDbEntity
  8
Layer_1
 62
7
100
AcDbLine
 10
154.170125
 20
229.402220
 30
0.0
 11
154.170125
 21
235.492220
 31
0.0
  0
LINE
  5
388
100
AcDbEntity
  8
Layer_1
 62
7
100
AcDbLine
 10
154.170125
 20
235.492220
 30
0.0
 11
157.345125
 21
235.492220
 31
0.0
  0
LINE
  5
389
100
AcDbEntity
  8
Layer_1
 62
7
100
AcDbLine
 10
157.345125
 20
235.492220
 30
0.0
 11
157.345125
 21
242.063330
 31
0.0
  0
LINE
  5
38a
100
AcDbEntity
  8
Layer_1
 62
7
100
AcDbLine
 10
157.345125
 20
242.063330
 30
0.0
 11
154.170125
 21
242.063330
 31
0.0
  0
LINE
  5
38b
100
AcDbEntity
  8
Layer_1
 62
7
100
AcDbLine
 10
154.170125
 20
242.063330
 30
0.0
 11
154.170125
 21
248.153330
 31
0.0
  0
LINE
  5
38c
100
AcDbEntity
  8
Layer_1
 62
7
100
AcDbLine
 10
154.170125
 20
248.153330
 30
0.0
 11
157.345125
 21
248.153330
 31
0.0
  0
LINE
  5
38d
100
AcDbEntity
  8
Layer_1
 62
7
100
AcDbLine
 10
157.345125
 20
248.153330
 30
0.0
 11
157.345125
 21
254.724450
 31
0.0
  0
LINE
  5
38e
100
AcDbEntity
  8
Layer_1
 62
7
100
AcDbLine
 10
157.345125
 20
254.724450
 30
0.0
 11
154.170125
 21
254.724450
 31
0.0
  0
LINE
  5
38f
100
AcDbEntity
  8
Layer_1
 62
7
100
AcDbLine
 10
154.170125
 20
254.724450
 30
0.0
 11
154.170125
 21
260.814450
 31
0.0
  0
LINE
  5
390
100
AcDbEntity
  8
Layer_1
 62
7
100
AcDbLine
 10
154.170125
 20
260.814450
 30
0.0
 11
157.345125
 21
260.814450
 31
0.0
  0
LINE
  5
391
100
AcDbEntity
  8
Layer_1
 62
7
100
AcDbLine
 10
157.345125
 20
260.814450
 30
0.0
 11
157.345125
 21
267.385560
 31
0.0
  0
LINE
  5
392
100
AcDbEntity
  8
Layer_1
 62
7
100
AcDbLine
 10
157.345125
 20
267.385560
 30
0.0
 11
154.170125
 21
267.385560
 31
0.0
  0
LINE
  5
393
100
AcDbEntity
  8
Layer_1
 62
7
100
AcDbLine
 10
154.170125
 20
267.385560
 30
0.0
 11
154.170125
 21
273.475560
 31
0.0
  0
LINE
  5
394
100
AcDbEntity
  8
Layer_1
 62
7
100
AcDbLine
 10
154.170125
 20
273.475560
 30
0.0
 11
157.345125
 21
273.475560
 31
0.0
  0
LINE
  5
395
100
AcDbEntity
  8
Layer_1
 62
7
100
AcDbLine
 10
157.345125
 20
273.475560
 30
0.0
 11
157.345125
 21
280.046670
 31
0.0
  0
LINE
  5
396
100
AcDbEntity
  8
Layer_1
 62
7
100
AcDbLine
 10
157.345125
 20
280.046670
 30
0.0
 11
154.170125
 21
280.046670
 31
0.0
  0
LINE
  5
397
100
AcDbEntity
  8
Layer_1
 62
7
100
AcDbLine
 10
154.170125
 20
280.046670
 30
0.0
 11
154.170125
 21
286.136670
 31
0.0
  0
LINE
  5
398
100
AcDbEntity
  8
Layer_1
 62
7
100
AcDbLine
 10
154.170125
 20
286.136670
 30
0.0
 11
157.345125
 21
286.136670
 31
0.0
  0
LINE
  5
399
100
AcDbEntity
  8
Layer_1
 62
7
100
AcDbLine
 10
157.345125
 20
286.136670
 30
0.0
 11
157.345125
 21
292.707780
 31
0.0
  0
LINE
  5
39a
100
AcDbEntity
  8
Layer_1
 62
7
100
AcDbLine
 10
157.345125
 20
292.707780
 30
0.0
 11
154.170125
 21
292.707780
 31
0.0
  0
LINE
  5
39b
100
AcDbEntity
  8
Layer_1
 62
7
100
AcDbLine
 10
154.170125
 20
292.707780
 30
0.0
 11
154.170125
 21
298.797780
 31
0.0
  0
LINE
  5
39c
100
AcDbEntity
  8
Layer_1
 62
7
100
AcDbLine
 10
154.170125
 20
298.797780
 30
0.0
 11
157.345125
 21
298.797780
 31
0.0
  0
LINE
  5
39d
100
AcDbEntity
  8
Layer_1
 62
7
100
AcDbLine
 10
157.345125
 20
298.797780
 30
0.0
 11
157.345125
 21
305.368890
 31
0.0
  0
LINE
  5
39e
100
AcDbEntity
  8
Layer_1
 62
7
100
AcDbLine
 10
157.345125
 20
305.368890
 30
0.0
 11
154.170125
 21
305.368890
 31
0.0
  0
LINE
  5
39f
100
AcDbEntity
  8
Layer_1
 62
7
100
AcDbLine
 10
154.170125
 20
305.368890
 30
0.0
 11
154.170125
 21
311.458890
 31
0.0
  0
LINE
  5
3a0
100
AcDbEntity
  8
Layer_1
 62
7
100
AcDbLine
 10
154.170125
 20
311.458890
 30
0.0
 11
157.345125
 21
311.458890
 31
0.0
  0
LINE
  5
3a1
100
AcDbEntity
  8
Layer_1
 62
7
100
AcDbLine
 10
157.345125
 20
311.458890
 30
0.0
 11
157.345125
 21
314.900000
 31
0.0
  0
LINE
  5
3a2
100
AcDbEntity
  8
Layer_1
 62
7
100
AcDbLine
 10
284.345125
 20
314.900000
 30
0.0
 11
284.345125
 21
311.458890
 31
0.0
  0
LINE
  5
3a3
100
AcDbEntity
  8
Layer_1
 62
7
100
AcDbLine
 10
284.345125
 20
311.458890
 30
0.0
 11
287.520125
 21
311.458890
 31
0.0
  0
LINE
  5
3a4
100
AcDbEntity
  8
Layer_1
 62
7
100
AcDbLine
 10
287.520125
 20
311.458890
 30
0.0
 11
287.520125
 21
305.368890
 31
0.0
  0
LINE
  5
3a5
100
AcDbEntity
  8
Layer_1
 62
7
100
AcDbLine
 10
287.520125
 20
305.368890
 30
0.0
 11
284.345125
 21
305.368890
 31
0.0
  0
LINE
  5
3a6
100
AcDbEntity
  8
Layer_1
 62
7
100
AcDbLine
 10
284.345125
 20
305.368890
 30
0.0
 11
284.345125
 21
298.797780
 31
0.0
  0
LINE
  5
3a7
100
AcDbEntity
  8
Layer_1
 62
7
100
AcDbLine
 10
284.345125
 20
298.797780
 30
0.0
 11
287.520125
 21
298.797780
 31
0.0
  0
LINE
  5
3a8
100
AcDbEntity
  8
Layer_1
 62
7
100
AcDbLine
 10
287.520125
 20
298.797780
 30
0.0
 11
287.520125
 21
292.707780
 31
0.0
  0
LINE
  5
3a9
100
AcDbEntity
  8
Layer_1
 62
7
100
AcDbLine
 10
287.520125
 20
292.707780
 30
0.0
 11
284.345125
 21
292.707780
 31
0.0
  0
LINE
  5
3aa
100
AcDbEntity
  8
Layer_1
 62
7
100
AcDbLine
 10
284.345125
 20
292.707780
 30
0.0
 11
284.345125
 21
286.136670
 31
0.0
  0
LINE
  5
3ab
100
AcDbEntity
  8
Layer_1
 62
7
100
AcDbLine
 10
284.345125
 20
286.136670
 30
0.0
 11
287.520125
 21
286.136670
 31
0.0
  0
LINE
  5
3ac
100
AcDbEntity
  8
Layer_1
 62
7
100
AcDbLine
 10
287.520125
 20
286.136670
 30
0.0
 11
287.520125
 21
280.046670
 31
0.0
  0
LINE
  5
3ad
100
AcDbEntity
  8
Layer_1
 62
7
100
AcDbLine
 10
287.520125
 20
280.046670
 30
0.0
 11
284.345125
 21
280.046670
 31
0.0
  0
LINE
  5
3ae
100
AcDbEntity
  8
Layer_1
 62
7
100
AcDbLine
 10
284.345125
 20
280.046670
 30
0.0
 11
284.345125
 21
273.475560
 31
0.0
  0
LINE
  5
3af
100
AcDbEntity
  8
Layer_1
 62
7
100
AcDbLine
 10
284.345125
 20
273.475560
 30
0.0
 11
287.520125
 21
273.475560
 31
0.0
  0
LINE
  5
3b0
100
AcDbEntity
  8
Layer_1
 62
7
100
AcDbLine
 10
287.520125
 20
273.475560
 30
0.0
 11
287.520125
 21
267.385560
 31
0.0
  0
LINE
  5
3b1
100
AcDbEntity
  8
Layer_1
 62
7
100
AcDbLine
 10
287.520125
 20
267.385560
 30
0.0
 11
284.345125
 21
267.385560
 31
0.0
  0
LINE
  5
3b2
100
AcDbEntity
  8
Layer_1
 62
7
100
AcDbLine
 10
284.345125
 20
267.385560
 30
0.0
 11
284.345125
 21
260.814450
 31
0.0
  0
LINE
  5
3b3
100
AcDbEntity
  8
Layer_1
 62
7
100
AcDbLine
 10
284.345125
 20
260.814450
 30
0.0
 11
287.520125
 21
260.814450
 31
0.0
  0
LINE
  5
3b4
100
AcDbEntity
  8
Layer_1
 62
7
100
AcDbLine
 10
287.520125
 20
260.814450
 30
0.0
 11
287.520125
 21
254.724450
 31
0.0
  0
LINE
  5
3b5
100
AcDbEntity
  8
Layer_1
 62
7
100
AcDbLine
 10
287.520125
 20
254.724450
 30
0.0
 11
284.345125
 21
254.724450
 31
0.0
  0
LINE
  5
3b6
100
AcDbEntity
  8
Layer_1
 62
7
100
AcDbLine
 10
284.345125
 20
254.724450
 30
0.0
 11
284.345125
 21
248.153330
 31
0.0
  0
LINE
  5
3b7
100
AcDbEntity
  8
Layer_1
 62
7
100
AcDbLine
 10
284.345125
 20
248.153330
 30
0.0
 11
287.520125
 21
248.153330
 31
0.0
  0
LINE
  5
3b8
100
AcDbEntity
  8
Layer_1
 62
7
100
AcDbLine
 10
287.520125
 20
248.153330
 30
0.0
 11
287.520125
 21
242.063330
 31
0.0
  0
LINE
  5
3b9
100
AcDbEntity
  8
Layer_1
 62
7
100
AcDbLine
 10
287.520125
 20
242.063330
 30
0.0
 11
284.345125
 21
242.063330
 31
0.0
  0
LINE
  5
3ba
100
AcDbEntity
  8
Layer_1
 62
7
100
AcDbLine
 10
284.345125
 20
242.063330
 30
0.0
 11
284.345125
 21
235.492220
 31
0.0
  0
LINE
  5
3bb
100
AcDbEntity
  8
Layer_1
 62
7
100
AcDbLine
 10
284.345125
 20
235.492220
 30
0.0
 11
287.520125
 21
235.492220
 31
0.0
  0
LINE
  5
3bc
100
AcDbEntity
  8
Layer_1
 62
7
100
AcDbLine
 10
287.520125
 20
235.492220
 30
0.0
 11
287.520125
 21
229.402220
 31
0.0
  0
LINE
  5
3bd
100
AcDbEntity
  8
Layer_1
 62
7
100
AcDbLine
 10
287.520125
 20
229.402220
 30
0.0
 11
284.345125
 21
229.402220
 31
0.0
  0
LINE
  5
3be
100
AcDbEntity
  8
Layer_1
 62
7
100
AcDbLine
 10
284.345125
 20
229.402220
 30
0.0
 11
284.345125
 21
222.831110
 31
0.0
  0
LINE
  5
3bf
100
AcDbEntity
  8
Layer_1
 62
7
100
AcDbLine
 10
284.345125
 20
222.831110
 30
0.0
 11
287.520125
 21
222.831110
 31
0.0
  0
LINE
  5
3c0
100
AcDbEntity
  8
Layer_1
 62
7
100
AcDbLine
 10
287.520125
 20
222.831110
 30
0.0
 11
287.520125
 21
216.741110
 31
0.0
  0
LINE
  5
3c1
100
AcDbEntity
  8
Layer_1
 62
7
100
AcDbLine
 10
287.520125
 20
216.741110
 30
0.0
 11
284.345125
 21
216.741110
 31
0.0
  0
LINE
  5
3c2
100
AcDbEntity
  8
Layer_1
 62
7
100
AcDbLine
 10
284.345125
 20
216.741110
 30
0.0
 11
284.345125
 21
213.300000
 31
0.0
  0
SPLINE
  5
3c3
100
AcDbEntity
  8
Layer_1
 62
7
100
AcDbSpline
 70
8
 71
3
 72
8
 73
4
 74
0
 40
0
 40
0
 40
0
 40
0
 40
1
 40
1
 40
1
 40
1
 10
31.756108
 20
94.091762
 30
0.0
 10
31.756108
 20
92.500463
 30
0.0
 10
31.123967
 20
90.974340
 30
0.0
 10
29.998749
 20
89.849121
 30
0.0
  0
SPLINE
  5
3c4
100
AcDbEntity
  8
Layer_1
 62
7
100
AcDbSpline
 70
8
 71
3
 72
8
 73
4
 74
0
 40
0
 40
0
 40
0
 40
0
 40
1
 40
1
 40
1
 40
1
 10
29.998749
 20
89.849121
 30
0.0
 10
28.873530
 20
88.723903
 30
0.0
 10
27.347407
 20
88.091762
 30
0.0
 10
25.756108
 20
88.091762
 30
0.0
  0
SPLINE
  5
3c5
100
AcDbEntity
  8
Layer_1
 62
7
100
AcDbSpline
 70
8
 71
3
 72
8
 73
4
 74
0
 40
0
 40
0
 40
0
 40
0
 40
1
 40
1
 40
1
 40
1
 10
25.756108
 20
88.091762
 30
0.0
 10
24.164809
 20
88.091762
 30
0.0
 10
22.638685
 20
88.723903
 30
0.0
 10
21.513467
 20
89.849121
 30
0.0
  0
SPLINE
  5
3c6
100
AcDbEntity
  8
Layer_1
 62
7
100
AcDbSpline
 70
8
 71
3
 72
8
 73
4
 74
0
 40
0
 40
0
 40
0
 40
0
 40
1
 40
1
 40
1
 40
1
 10
21.513467
 20
89.849121
 30
0.0
 10
20.388249
 20
90.974340
 30
0.0
 10
19.756108
 20
92.500463
 30
0.0
 10
19.756108
 20
94.091762
 30
0.0
  0
SPLINE
  5
3c7
100
AcDbEntity
  8
Layer_1
 62
7
100
AcDbSpline
 70
8
 71
3
 72
8
 73
4
 74
0
 40
0
 40
0
 40
0
 40
0
 40
1
 40
1
 40
1
 40
1
 10
19.756108
 20
94.091762
 30
0.0
 10
19.756108
 20
95.683061
 30
0.0
 10
20.388249
 20
97.209184
 30
0.0
 10
21.513467
 20
98.334403
 30
0.0
  0
SPLINE
  5
3c8
100
AcDbEntity
  8
Layer_1
 62
7
100
AcDbSpline
 70
8
 71
3
 72
8
 73
4
 74
0
 40
0
 40
0
 40
0
 40
0
 40
1
 40
1
 40
1
 40
1
 10
21.513467
 20
98.334403
 30
0.0
 10
22.638685
 20
99.459621
 30
0.0
 10
24.164809
 20
100.091762
 30
0.0
 10
25.756108
 20
100.091762
 30
0.0
  0
SPLINE
  5
3c9
100
AcDbEntity
  8
Layer_1
 62
7
100
AcDbSpline
 70
8
 71
3
 72
8
 73
4
 74
0
 40
0
 40
0
 40
0
 40
0
 40
1
 40
1
 40
1
 40
1
 10
25.756108
 20
100.091762
 30
0.0
 10
27.347407
 20
100.091762
 30
0.0
 10
28.873530
 20
99.459621
 30
0.0
 10
29.998749
 20
98.334403
 30
0.0
  0
SPLINE
  5
3ca
100
AcDbEntity
  8
Layer_1
 62
7
100
AcDbSpline
 70
8
 71
3
 72
8
 73
4
 74
0
 40
0
 40
0
 40
0
 40
0
 40
1
 40
1
 40
1
 40
1
 10
29.998749
 20
98.334403
 30
0.0
 10
31.123967
 20
97.209184
 30
0.0
 10
31.756108
 20
95.683061
 30
0.0
 10
31.756108
 20
94.091762
 30
0.0
  0
LINE
  5
3cb
100
AcDbEntity
  8
Layer_1
 62
7
100
AcDbLine
 10
31.756108
 20
94.091762
 30
0.0
 11
31.756108
 21
94.091762
 31
0.0
  0
SPLINE
  5
3cc
100
AcDbEntity
  8
Layer_1
 62
7
100
AcDbSpline
 70
8
 71
3
 72
8
 73
4
 74
0
 40
0
 40
0
 40
0
 40
0
 40
1
 40
1
 40
1
 40
1
 10
31.756108
 20
27.708222
 30
0.0
 10
31.756108
 20
26.116923
 30
0.0
 10
31.123967
 20
24.590800
 30
0.0
 10
29.998749
 20
23.465581
 30
0.0
  0
SPLINE
  5
3cd
100
AcDbEntity
  8
Layer_1
 62
7
100
AcDbSpline
 70
8
 71
3
 72
8
 73
4
 74
0
 40
0
 40
0
 40
0
 40
0
 40
1
 40
1
 40
1
 40
1
 10
29.998749
 20
23.465581
 30
0.0
 10
28.873530
 20
22.340363
 30
0.0
 10
27.347407
 20
21.708222
 30
0.0
 10
25.756108
 20
21.708222
 30
0.0
  0
SPLINE
  5
3ce
100
AcDbEntity
  8
Layer_1
 62
7
100
AcDbSpline
 70
8
 71
3
 72
8
 73
4
 74
0
 40
0
 40
0
 40
0
 40
0
 40
1
 40
1
 40
1
 40
1
 10
25.756108
 20
21.708222
 30
0.0
 10
24.164809
 20
21.708222
 30
0.0
 10
22.638685
 20
22.340363
 30
0.0
 10
21.513467
 20
23.465581
 30
0.0
  0
SPLINE
  5
3cf
100
AcDbEntity
  8
Layer_1
 62
7
100
AcDbSpline
 70
8
 71
3
 72
8
 73
4
 74
0
 40
0
 40
0
 40
0
 40
0
 40
1
 40
1
 40
1
 40
1
 10
21.513467
 20
23.465581
 30
0.0
 10
20.388249
 20
24.590800
 30
0.0
 10
19.756108
 20
26.116923
 30
0.0
 10
19.756108
 20
27.708222
 30
0.0
  0
SPLINE
  5
3d0
100
AcDbEntity
  8
Layer_1
 62
7
100
AcDbSpline
 70
8
 71
3
 72
8
 73
4
 74
0
 40
0
 40
0
 40
0
 40
0
 40
1
 40
1
 40
1
 40
1
 10
19.756108
 20
27.708222
 30
0.0
 10
19.756108
 20
29.299521
 30
0.0
 10
20.388249
 20
30.825644
 30
0.0
 10
21.513467
 20
31.950863
 30
0.0
  0
SPLINE
  5
3d1
100
AcDbEntity
  8
Layer_1
 62
7
100
AcDbSpline
 70
8
 71
3
 72
8
 73
4
 74
0
 40
0
 40
0
 40
0
 40
0
 40
1
 40
1
 40
1
 40
1
 10
21.513467
 20
31.950863
 30
0.0
 10
22.638685
 20
33.076081
 30
0.0
 10
24.164809
 20
33.708222
 30
0.0
 10
25.756108
 20
33.708222
 30
0.0
  0
SPLINE
  5
3d2
100
AcDbEntity
  8
Layer_1
 62
7
100
AcDbSpline
 70
8
 71
3
 72
8
 73
4
 74
0
 40
0
 40
0
 40
0
 40
0
 40
1
 40
1
 40
1
 40
1
 10
25.756108
 20
33.708222
 30
0.0
 10
27.347407
 20
33.708222
 30
0.0
 10
28.873530
 20
33.076081
 30
0.0
 10
29.998749
 20
31.950863
 30
0.0
  0
SPLINE
  5
3d3
100
AcDbEntity
  8
Layer_1
 62
7
100
AcDbSpline
 70
8
 71
3
 72
8
 73
4
 74
0
 40
0
 40
0
 40
0
 40
0
 40
1
 40
1
 40
1
 40
1
 10
29.998749
 20
31.950863
 30
0.0
 10
31.123967
 20
30.825644
 30
0.0
 10
31.756108
 20
29.299521
 30
0.0
 10
31.756108
 20
27.708222
 30
0.0
  0
LINE
  5
3d4
100
AcDbEntity
  8
Layer_1
 62
7
100
AcDbLine
 10
31.756108
 20
27.708222
 30
0.0
 11
31.756108
 21
27.708222
 31
0.0
  0
SPLINE
  5
3d5
100
AcDbEntity
  8
Layer_1
 62
7
100
AcDbSpline
 70
8
 71
3
 72
8
 73
4
 74
0
 40
0
 40
0
 40
0
 40
0
 40
1
 40
1
 40
1
 40
1
 10
279.843885
 20
94.091762
 30
0.0
 10
279.843885
 20
92.500463
 30
0.0
 10
279.211744
 20
90.974340
 30
0.0
 10
278.086526
 20
89.849121
 30
0.0
  0
SPLINE
  5
3d6
100
AcDbEntity
  8
Layer_1
 62
7
100
AcDbSpline
 70
8
 71
3
 72
8
 73
4
 74
0
 40
0
 40
0
 40
0
 40
0
 40
1
 40
1
 40
1
 40
1
 10
278.086526
 20
89.849121
 30
0.0
 10
276.961307
 20
88.723903
 30
0.0
 10
275.435184
 20
88.091762
 30
0.0
 10
273.843885
 20
88.091762
 30
0.0
  0
SPLINE
  5
3d7
100
AcDbEntity
  8
Layer_1
 62
7
100
AcDbSpline
 70
8
 71
3
 72
8
 73
4
 74
0
 40
0
 40
0
 40
0
 40
0
 40
1
 40
1
 40
1
 40
1
 10
273.843885
 20
88.091762
 30
0.0
 10
272.252586
 20
88.091762
 30
0.0
 10
270.726463
 20
88.723903
 30
0.0
 10
269.601244
 20
89.849121
 30
0.0
  0
SPLINE
  5
3d8
100
AcDbEntity
  8
Layer_1
 62
7
100
AcDbSpline
 70
8
 71
3
 72
8
 73
4
 74
0
 40
0
 40
0
 40
0
 40
0
 40
1
 40
1
 40
1
 40
1
 10
269.601244
 20
89.849121
 30
0.0
 10
268.476026
 20
90.974340
 30
0.0
 10
267.843885
 20
92.500463
 30
0.0
 10
267.843885
 20
94.091762
 30
0.0
  0
SPLINE
  5
3d9
100
AcDbEntity
  8
Layer_1
 62
7
100
AcDbSpline
 70
8
 71
3
 72
8
 73
4
 74
0
 40
0
 40
0
 40
0
 40
0
 40
1
 40
1
 40
1
 40
1
 10
267.843885
 20
94.091762
 30
0.0
 10
267.843885
 20
95.683061
 30
0.0
 10
268.476026
 20
97.209184
 30
0.0
 10
269.601244
 20
98.334403
 30
0.0
  0
SPLINE
  5
3da
100
AcDbEntity
  8
Layer_1
 62
7
100
AcDbSpline
 70
8
 71
3
 72
8
 73
4
 74
0
 40
0
 40
0
 40
0
 40
0
 40
1
 40
1
 40
1
 40
1
 10
269.601244
 20
98.334403
 30
0.0
 10
270.726463
 20
99.459621
 30
0.0
 10
272.252586
 20
100.091762
 30
0.0
 10
273.843885
 20
100.091762
 30
0.0
  0
SPLINE
  5
3db
100
AcDbEntity
  8
Layer_1
 62
7
100
AcDbSpline
 70
8
 71
3
 72
8
 73
4
 74
0
 40
0
 40
0
 40
0
 40
0
 40
1
 40
1
 40
1
 40
1
 10
273.843885
 20
100.091762
 30
0.0
 10
275.435184
 20
100.091762
 30
0.0
 10
276.961307
 20
99.459621
 30
0.0
 10
278.086526
 20
98.334403
 30
0.0
  0
SPLINE
  5
3dc
100
AcDbEntity
  8
Layer_1
 62
7
100
AcDbSpline
 70
8
 71
3
 72
8
 73
4
 74
0
 40
0
 40
0
 40
0
 40
0
 40
1
 40
1
 40
1
 40
1
 10
278.086526
 20
98.334403
 30
0.0
 10
279.211744
 20
97.209184
 30
0.0
 10
279.843885
 20
95.683061
 30
0.0
 10
279.843885
 20
94.091762
 30
0.0
  0
LINE
  5
3dd
100
AcDbEntity
  8
Layer_1
 62
7
100
AcDbLine
 10
279.843885
 20
94.091762
 30
0.0
 11
279.843885
 21
94.091762
 31
0.0
  0
SPLINE
  5
3de
100
AcDbEntity
  8
Layer_1
 62
7
100
AcDbSpline
 70
8
 71
3
 72
8
 73
4
 74
0
 40
0
 40
0
 40
0
 40
0
 40
1
 40
1
 40
1
 40
1
 10
279.843885
 20
27.708222
 30
0.0
 10
279.843885
 20
26.116923
 30
0.0
 10
279.211744
 20
24.590800
 30
0.0
 10
278.086526
 20
23.465581
 30
0.0
  0
SPLINE
  5
3df
100
AcDbEntity
  8
Layer_1
 62
7
100
AcDbSpline
 70
8
 71
3
 72
8
 73
4
 74
0
 40
0
 40
0
 40
0
 40
0
 40
1
 40
1
 40
1
 40
1
 10
278.086526
 20
23.465581
 30
0.0
 10
276.961307
 20
22.340363
 30
0.0
 10
275.435184
 20
21.708222
 30
0.0
 10
273.843885
 20
21.708222
 30
0.0
  0
SPLINE
  5
3e0
100
AcDbEntity
  8
Layer_1
 62
7
100
AcDbSpline
 70
8
 71
3
 72
8
 73
4
 74
0
 40
0
 40
0
 40
0
 40
0
 40
1
 40
1
 40
1
 40
1
 10
273.843885
 20
21.708222
 30
0.0
 10
272.252586
 20
21.708222
 30
0.0
 10
270.726463
 20
22.340363
 30
0.0
 10
269.601244
 20
23.465581
 30
0.0
  0
SPLINE
  5
3e1
100
AcDbEntity
  8
Layer_1
 62
7
100
AcDbSpline
 70
8
 71
3
 72
8
 73
4
 74
0
 40
0
 40
0
 40
0
 40
0
 40
1
 40
1
 40
1
 40
1
 10
269.601244
 20
23.465581
 30
0.0
 10
268.476026
 20
24.590800
 30
0.0
 10
267.843885
 20
26.116923
 30
0.0
 10
267.843885
 20
27.708222
 30
0.0
  0
SPLINE
  5
3e2
100
AcDbEntity
  8
Layer_1
 62
7
100
AcDbSpline
 70
8
 71
3
 72
8
 73
4
 74
0
 40
0
 40
0
 40
0
 40
0
 40
1
 40
1
 40
1
 40
1
 10
267.843885
 20
27.708222
 30
0.0
 10
267.843885
 20
29.299521
 30
0.0
 10
268.476026
 20
30.825644
 30
0.0
 10
269.601244
 20
31.950863
 30
0.0
  0
SPLINE
  5
3e3
100
AcDbEntity
  8
Layer_1
 62
7
100
AcDbSpline
 70
8
 71
3
 72
8
 73
4
 74
0
 40
0
 40
0
 40
0
 40
0
 40
1
 40
1
 40
1
 40
1
 10
269.601244
 20
31.950863
 30
0.0
 10
270.726463
 20
33.076081
 30
0.0
 10
272.252586
 20
33.708222
 30
0.0
 10
273.843885
 20
33.708222
 30
0.0
  0
SPLINE
  5
3e4
100
AcDbEntity
  8
Layer_1
 62
7
100
AcDbSpline
 70
8
 71
3
 72
8
 73
4
 74
0
 40
0
 40
0
 40
0
 40
0
 40
1
 40
1
 40
1
 40
1
 10
273.843885
 20
33.708222
 30
0.0
 10
275.435184
 20
33.708222
 30
0.0
 10
276.961307
 20
33.076081
 30
0.0
 10
278.086526
 20
31.950863
 30
0.0
  0
SPLINE
  5
3e5
100
AcDbEntity
  8
Layer_1
 62
7
100
AcDbSpline
 70
8
 71
3
 72
8
 73
4
 74
0
 40
0
 40
0
 40
0
 40
0
 40
1
 40
1
 40
1
 40
1
 10
278.086526
 20
31.950863
 30
0.0
 10
279.211744
 20
30.825644
 30
0.0
 10
279.843885
 20
29.299521
 30
0.0
 10
279.843885
 20
27.708222
 30
0.0
  0
LINE
  5
3e6
100
AcDbEntity
  8
Layer_1
 62
7
100
AcDbLine
 10
279.843885
 20
27.708222
 30
0.0
 11
279.843885
 21
27.708222
 31
0.0
  0
ENDSEC
  0
SECTION
  2
OBJECTS
  0
DICTIONARY
  5
C
330
0
100
AcDbDictionary
  3
ACAD_GROUP
350
D
  3
ACAD_MLINESTYLE
350
17
  0
DICTIONARY
  5
D
330
C
100
AcDbDictionary
  0
DICTIONARY
  5
1A
330
C
100
AcDbDictionary
  0
DICTIONARY
  5
17
330
C
100
AcDbDictionary
  3
STANDARD
350
18
  0
DICTIONARY
  5
19
330
C
100
AcDbDictionary
  0
ENDSEC
  0
EOF
