  0
SECTION
  2
HEADER
  9
$ACADVER
  1
AC1014
  9
$HANDSEED
  5
FFFF
  9
$MEASUREMENT
 70
     1
  0
ENDSEC
  0
SECTION
  2
TABLES
  0
TABLE
  2
VPORT
  5
8
330
0
100
AcDbSymbolTable
 70
     4
  0
VPORT
  5
2E
330
8
100
AcDbSymbolTableRecord
100
AcDbViewportTableRecord
  2
*ACTIVE
 70
     0
 10
0.0
 20
0.0
 11
1.0
 21
1.0
 12
210.0
 22
148.5
 13
0.0
 23
0.0
 14
10.0
 24
10.0
 15
10.0
 25
10.0
 16
0.0
 26
0.0
 36
1.0
 17
0.0
 27
0.0
 37
0.0
 40
341.0
 41
1.24
 42
50.0
 43
0.0
 44
0.0
 50
0.0
 51
0.0
 71
     0
 72
   100
 73
     1
 74
     3
 75
     0
 76
     0
 77
     0
 78
     0
  0
ENDTAB
  0
TABLE
  2
LTYPE
  5
5
330
0
100
AcDbSymbolTable
 70
     1
  0
LTYPE
  5
14
330
5
100
AcDbSymbolTableRecord
100
AcDbLinetypeTableRecord
  2
BYBLOCK
 70
     0
  3

 72
    65
 73
     0
 40
0.0
  0
LTYPE
  5
15
330
5
100
AcDbSymbolTableRecord
100
AcDbLinetypeTableRecord
  2
BYLAYER
 70
     0
  3

 72
    65
 73
     0
 40
0.0
  0
LTYPE
  5
16
330
5
100
AcDbSymbolTableRecord
100
AcDbLinetypeTableRecord
  2
CONTINUOUS
 70
     0
  3
Solid line
 72
    65
 73
     0
 40
0.0
  0
ENDTAB
  0
TABLE
  2
LAYER
  5
2
100
AcDbSymbolTable
 70
3
  0
LAYER
  5
50
100
AcDbSymbolTableRecord
100
AcDbLayerTableRecord
  2
0
 70
0
  6
CONTINUOUS
  0
LAYER
  5
51
100
AcDbSymbolTableRecord
100
AcDbLayerTableRecord
  2
Layer_1
 70
0
  6
CONTINUOUS
  0
LAYER
  5
52
100
AcDbSymbolTableRecord
100
AcDbLayerTableRecord
  2
newlayer
 70
0
  6
CONTINUOUS
  0
ENDTAB
  0
TABLE
  2
STYLE
  5
3
330
0
100
AcDbSymbolTable
 70
     1
  0
STYLE
  5
11
330
3
100
AcDbSymbolTableRecord
100
AcDbTextStyleTableRecord
  2
STANDARD
 70
     0
 40
0.0
 41
1.0
 50
0.0
 71
     0
 42
2.5
  3
txt
  4

  0
ENDTAB
  0
TABLE
  2
VIEW
  5
6
330
0
100
AcDbSymbolTable
 70
     0
  0
ENDTAB
  0
TABLE
  2
UCS
  5
7
330
0
100
AcDbSymbolTable
 70
     0
  0
ENDTAB
  0
TABLE
  2
APPID
  5
9
330
0
100
AcDbSymbolTable
 70
     2
  0
APPID
  5
12
330
9
100
AcDbSymbolTableRecord
100
AcDbRegAppTableRecord
  2
ACAD
 70
     0
  0
ENDTAB
  0
TABLE
  2
DIMSTYLE
  5
A
330
0
100
AcDbSymbolTable
 70
     1
  0
DIMSTYLE
105
27
330
A
100
AcDbSymbolTableRecord
100
AcDbDimStyleTableRecord
  2
ISO-25
 70
     0
  3

  4

  5

  6

  7

 40
1.0
 41
2.5
 42
0.625
 43
3.75
 44
1.25
 45
0.0
 46
0.0
 47
0.0
 48
0.0
140
2.5
141
2.5
142
0.0
143
0.03937007874016
144
1.0
145
0.0
146
1.0
147
0.625
 71
     0
 72
     0
 73
     0
 74
     0
 75
     0
 76
     0
 77
     1
 78
     8
170
     0
171
     3
172
     1
173
     0
174
     0
175
     0
176
     0
177
     0
178
     0
270
     2
271
     2
272
     2
273
     2
274
     3
340
11
275
     0
280
     0
281
     0
282
     0
283
     0
284
     8
285
     0
286
     0
287
     3
288
     0
  0
ENDTAB
  0
TABLE
  2
BLOCK_RECORD
  5
1
330
0
100
AcDbSymbolTable
 70
     1
  0
BLOCK_RECORD
  5
1F
330
1
100
AcDbSymbolTableRecord
100
AcDbBlockTableRecord
  2
*MODEL_SPACE
  0
BLOCK_RECORD
  5
1B
330
1
100
AcDbSymbolTableRecord
100
AcDbBlockTableRecord
  2
*PAPER_SPACE
  0
ENDTAB
  0
ENDSEC
  0
SECTION
  2
BLOCKS
  0
BLOCK
  5
20
330
1F
100
AcDbEntity
  8
0
100
AcDbBlockBegin
  2
*MODEL_SPACE
 70
     0
 10
0.0
 20
0.0
 30
0.0
  3
*MODEL_SPACE
  1

  0
ENDBLK
  5
21
330
1F
100
AcDbEntity
  8
0
100
AcDbBlockEnd
  0
BLOCK
  5
1C
330
1B
100
AcDbEntity
 67
     1
  8
0
100
AcDbBlockBegin
  2
*PAPER_SPACE
  1

  0
ENDBLK
  5
1D
330
1B
100
AcDbEntity
 67
     1
  8
0
100
AcDbBlockEnd
  0
ENDSEC
  0
SECTION
  2
ENTITIES
  0
LINE
  5
100
100
AcDbEntity
  8
Layer_1
 62
7
100
AcDbLine
 10
16.408180
 20
272.405170
 30
0.0
 11
308.508190
 21
272.405170
 31
0.0
  0
LINE
  5
101
100
AcDbEntity
  8
Layer_1
 62
7
100
AcDbLine
 10
308.508190
 20
272.405170
 30
0.0
 11
308.508190
 21
132.705170
 31
0.0
  0
LINE
  5
102
100
AcDbEntity
  8
Layer_1
 62
7
100
AcDbLine
 10
308.508190
 20
132.705170
 30
0.0
 11
16.408180
 21
132.705170
 31
0.0
  0
LINE
  5
103
100
AcDbEntity
  8
Layer_1
 62
7
100
AcDbLine
 10
16.408180
 20
132.705170
 30
0.0
 11
16.408180
 21
272.405170
 31
0.0
  0
LINE
  5
104
100
AcDbEntity
  8
Layer_1
 62
7
100
AcDbLine
 10
22.758180
 20
278.755170
 30
0.0
 11
302.158170
 21
278.755170
 31
0.0
  0
LINE
  5
105
100
AcDbEntity
  8
Layer_1
 62
7
100
AcDbLine
 10
302.158170
 20
278.755170
 30
0.0
 11
302.158170
 21
266.055170
 31
0.0
  0
LINE
  5
106
100
AcDbEntity
  8
Layer_1
 62
7
100
AcDbLine
 10
302.158170
 20
266.055170
 30
0.0
 11
22.758180
 21
266.055170
 31
0.0
  0
LINE
  5
107
100
AcDbEntity
  8
Layer_1
 62
7
100
AcDbLine
 10
22.758180
 20
266.055170
 30
0.0
 11
22.758180
 21
278.755170
 31
0.0
  0
LINE
  5
108
100
AcDbEntity
  8
Layer_1
 62
7
100
AcDbLine
 10
22.758180
 20
132.705174
 30
0.0
 11
302.158170
 21
132.705174
 31
0.0
  0
LINE
  5
109
100
AcDbEntity
  8
Layer_1
 62
7
100
AcDbLine
 10
302.158170
 20
132.705174
 30
0.0
 11
302.158170
 21
126.355174
 31
0.0
  0
LINE
  5
10a
100
AcDbEntity
  8
Layer_1
 62
7
100
AcDbLine
 10
302.158170
 20
126.355174
 30
0.0
 11
22.758180
 21
126.355174
 31
0.0
  0
LINE
  5
10b
100
AcDbEntity
  8
Layer_1
 62
7
100
AcDbLine
 10
22.758180
 20
126.355174
 30
0.0
 11
22.758180
 21
132.705174
 31
0.0
  0
LINE
  5
10c
100
AcDbEntity
  8
Layer_1
 62
7
100
AcDbLine
 10
302.158186
 20
266.055172
 30
0.0
 11
314.858186
 21
266.055172
 31
0.0
  0
LINE
  5
10d
100
AcDbEntity
  8
Layer_1
 62
7
100
AcDbLine
 10
314.858186
 20
266.055172
 30
0.0
 11
314.858186
 21
139.055172
 31
0.0
  0
LINE
  5
10e
100
AcDbEntity
  8
Layer_1
 62
7
100
AcDbLine
 10
314.858186
 20
139.055172
 30
0.0
 11
302.158186
 21
139.055172
 31
0.0
  0
LINE
  5
10f
100
AcDbEntity
  8
Layer_1
 62
7
100
AcDbLine
 10
302.158186
 20
139.055172
 30
0.0
 11
302.158186
 21
266.055172
 31
0.0
  0
LINE
  5
110
100
AcDbEntity
  8
Layer_1
 62
7
100
AcDbLine
 10
10.058170
 20
266.055172
 30
0.0
 11
19.583170
 21
266.055172
 31
0.0
  0
LINE
  5
111
100
AcDbEntity
  8
Layer_1
 62
7
100
AcDbLine
 10
19.583170
 20
266.055172
 30
0.0
 11
19.583170
 21
139.055172
 31
0.0
  0
LINE
  5
112
100
AcDbEntity
  8
Layer_1
 62
7
100
AcDbLine
 10
19.583170
 20
139.055172
 30
0.0
 11
10.058170
 21
139.055172
 31
0.0
  0
LINE
  5
113
100
AcDbEntity
  8
Layer_1
 62
7
100
AcDbLine
 10
10.058170
 20
139.055172
 30
0.0
 11
10.058170
 21
266.055172
 31
0.0
  0
LINE
  5
114
100
AcDbEntity
  8
Layer_1
 62
7
100
AcDbLine
 10
19.583170
 20
266.055173
 30
0.0
 11
302.158180
 21
266.055173
 31
0.0
  0
LINE
  5
115
100
AcDbEntity
  8
Layer_1
 62
7
100
AcDbLine
 10
302.158180
 20
266.055173
 30
0.0
 11
302.158180
 21
132.705163
 31
0.0
  0
LINE
  5
116
100
AcDbEntity
  8
Layer_1
 62
7
100
AcDbLine
 10
302.158180
 20
132.705163
 30
0.0
 11
19.583170
 21
132.705163
 31
0.0
  0
LINE
  5
117
100
AcDbEntity
  8
Layer_1
 62
7
100
AcDbLine
 10
19.583170
 20
132.705163
 30
0.0
 11
19.583170
 21
266.055173
 31
0.0
  0
LINE
  5
118
100
AcDbEntity
  8
Layer_1
 62
7
100
AcDbLine
 10
349.666505
 20
99.000014
 30
0.0
 11
349.666505
 21
102.526264
 31
0.0
  0
LINE
  5
119
100
AcDbEntity
  8
Layer_1
 62
7
100
AcDbLine
 10
349.666505
 20
102.526264
 30
0.0
 11
352.841504
 21
102.526264
 31
0.0
  0
LINE
  5
11a
100
AcDbEntity
  8
Layer_1
 62
7
100
AcDbLine
 10
352.841504
 20
102.526264
 30
0.0
 11
352.841504
 21
108.436264
 31
0.0
  0
LINE
  5
11b
100
AcDbEntity
  8
Layer_1
 62
7
100
AcDbLine
 10
352.841504
 20
108.436264
 30
0.0
 11
349.666505
 21
108.436264
 31
0.0
  0
LINE
  5
11c
100
AcDbEntity
  8
Layer_1
 62
7
100
AcDbLine
 10
349.666505
 20
108.436264
 30
0.0
 11
349.666505
 21
115.182514
 31
0.0
  0
LINE
  5
11d
100
AcDbEntity
  8
Layer_1
 62
7
100
AcDbLine
 10
349.666505
 20
115.182514
 30
0.0
 11
352.841504
 21
115.182514
 31
0.0
  0
LINE
  5
11e
100
AcDbEntity
  8
Layer_1
 62
7
100
AcDbLine
 10
352.841504
 20
115.182514
 30
0.0
 11
352.841504
 21
121.092514
 31
0.0
  0
LINE
  5
11f
100
AcDbEntity
  8
Layer_1
 62
7
100
AcDbLine
 10
352.841504
 20
121.092514
 30
0.0
 11
349.666505
 21
121.092514
 31
0.0
  0
LINE
  5
120
100
AcDbEntity
  8
Layer_1
 62
7
100
AcDbLine
 10
349.666505
 20
121.092514
 30
0.0
 11
349.666505
 21
127.838764
 31
0.0
  0
LINE
  5
121
100
AcDbEntity
  8
Layer_1
 62
7
100
AcDbLine
 10
349.666505
 20
127.838764
 30
0.0
 11
352.841504
 21
127.838764
 31
0.0
  0
LINE
  5
122
100
AcDbEntity
  8
Layer_1
 62
7
100
AcDbLine
 10
352.841504
 20
127.838764
 30
0.0
 11
352.841504
 21
133.748764
 31
0.0
  0
LINE
  5
123
100
AcDbEntity
  8
Layer_1
 62
7
100
AcDbLine
 10
352.841504
 20
133.748764
 30
0.0
 11
349.666505
 21
133.748764
 31
0.0
  0
LINE
  5
124
100
AcDbEntity
  8
Layer_1
 62
7
100
AcDbLine
 10
349.666505
 20
133.748764
 30
0.0
 11
349.666505
 21
140.495014
 31
0.0
  0
LINE
  5
125
100
AcDbEntity
  8
Layer_1
 62
7
100
AcDbLine
 10
349.666505
 20
140.495014
 30
0.0
 11
352.841504
 21
140.495014
 31
0.0
  0
LINE
  5
126
100
AcDbEntity
  8
Layer_1
 62
7
100
AcDbLine
 10
352.841504
 20
140.495014
 30
0.0
 11
352.841504
 21
146.405014
 31
0.0
  0
LINE
  5
127
100
AcDbEntity
  8
Layer_1
 62
7
100
AcDbLine
 10
352.841504
 20
146.405014
 30
0.0
 11
349.666505
 21
146.405014
 31
0.0
  0
LINE
  5
128
100
AcDbEntity
  8
Layer_1
 62
7
100
AcDbLine
 10
349.666505
 20
146.405014
 30
0.0
 11
349.666505
 21
153.151264
 31
0.0
  0
LINE
  5
129
100
AcDbEntity
  8
Layer_1
 62
7
100
AcDbLine
 10
349.666505
 20
153.151264
 30
0.0
 11
352.841504
 21
153.151264
 31
0.0
  0
LINE
  5
12a
100
AcDbEntity
  8
Layer_1
 62
7
100
AcDbLine
 10
352.841504
 20
153.151264
 30
0.0
 11
352.841504
 21
159.061264
 31
0.0
  0
LINE
  5
12b
100
AcDbEntity
  8
Layer_1
 62
7
100
AcDbLine
 10
352.841504
 20
159.061264
 30
0.0
 11
349.666505
 21
159.061264
 31
0.0
  0
LINE
  5
12c
100
AcDbEntity
  8
Layer_1
 62
7
100
AcDbLine
 10
349.666505
 20
159.061264
 30
0.0
 11
349.666505
 21
165.807514
 31
0.0
  0
LINE
  5
12d
100
AcDbEntity
  8
Layer_1
 62
7
100
AcDbLine
 10
349.666505
 20
165.807514
 30
0.0
 11
352.841504
 21
165.807514
 31
0.0
  0
LINE
  5
12e
100
AcDbEntity
  8
Layer_1
 62
7
100
AcDbLine
 10
352.841504
 20
165.807514
 30
0.0
 11
352.841504
 21
171.717514
 31
0.0
  0
LINE
  5
12f
100
AcDbEntity
  8
Layer_1
 62
7
100
AcDbLine
 10
352.841504
 20
171.717514
 30
0.0
 11
349.666505
 21
171.717514
 31
0.0
  0
LINE
  5
130
100
AcDbEntity
  8
Layer_1
 62
7
100
AcDbLine
 10
349.666505
 20
171.717514
 30
0.0
 11
349.666505
 21
178.463761
 31
0.0
  0
LINE
  5
131
100
AcDbEntity
  8
Layer_1
 62
7
100
AcDbLine
 10
349.666505
 20
178.463761
 30
0.0
 11
352.841504
 21
178.463761
 31
0.0
  0
LINE
  5
132
100
AcDbEntity
  8
Layer_1
 62
7
100
AcDbLine
 10
352.841504
 20
178.463761
 30
0.0
 11
352.841504
 21
184.373758
 31
0.0
  0
LINE
  5
133
100
AcDbEntity
  8
Layer_1
 62
7
100
AcDbLine
 10
352.841504
 20
184.373758
 30
0.0
 11
349.666505
 21
184.373758
 31
0.0
  0
LINE
  5
134
100
AcDbEntity
  8
Layer_1
 62
7
100
AcDbLine
 10
349.666505
 20
184.373758
 30
0.0
 11
349.666505
 21
187.900005
 31
0.0
  0
LINE
  5
135
100
AcDbEntity
  8
Layer_1
 62
7
100
AcDbLine
 10
632.246430
 20
99.000014
 30
0.0
 11
626.267260
 21
99.000014
 31
0.0
  0
LINE
  5
136
100
AcDbEntity
  8
Layer_1
 62
7
100
AcDbLine
 10
626.267260
 20
99.000014
 30
0.0
 11
626.267260
 21
99.000014
 31
0.0
  0
LINE
  5
137
100
AcDbEntity
  8
Layer_1
 62
7
100
AcDbLine
 10
626.267260
 20
99.000014
 30
0.0
 11
620.177260
 21
99.000014
 31
0.0
  0
LINE
  5
138
100
AcDbEntity
  8
Layer_1
 62
7
100
AcDbLine
 10
620.177260
 20
99.000014
 30
0.0
 11
620.177260
 21
99.000014
 31
0.0
  0
LINE
  5
139
100
AcDbEntity
  8
Layer_1
 62
7
100
AcDbLine
 10
620.177260
 20
99.000014
 30
0.0
 11
614.243090
 21
99.000014
 31
0.0
  0
LINE
  5
13a
100
AcDbEntity
  8
Layer_1
 62
7
100
AcDbLine
 10
614.243090
 20
99.000014
 30
0.0
 11
614.243090
 21
99.000014
 31
0.0
  0
LINE
  5
13b
100
AcDbEntity
  8
Layer_1
 62
7
100
AcDbLine
 10
614.243090
 20
99.000014
 30
0.0
 11
608.153090
 21
99.000014
 31
0.0
  0
LINE
  5
13c
100
AcDbEntity
  8
Layer_1
 62
7
100
AcDbLine
 10
608.153090
 20
99.000014
 30
0.0
 11
608.153090
 21
99.000014
 31
0.0
  0
LINE
  5
13d
100
AcDbEntity
  8
Layer_1
 62
7
100
AcDbLine
 10
608.153090
 20
99.000014
 30
0.0
 11
602.218930
 21
99.000014
 31
0.0
  0
LINE
  5
13e
100
AcDbEntity
  8
Layer_1
 62
7
100
AcDbLine
 10
602.218930
 20
99.000014
 30
0.0
 11
602.218930
 21
99.000014
 31
0.0
  0
LINE
  5
13f
100
AcDbEntity
  8
Layer_1
 62
7
100
AcDbLine
 10
602.218930
 20
99.000014
 30
0.0
 11
596.128930
 21
99.000014
 31
0.0
  0
LINE
  5
140
100
AcDbEntity
  8
Layer_1
 62
7
100
AcDbLine
 10
596.128930
 20
99.000014
 30
0.0
 11
596.128930
 21
99.000014
 31
0.0
  0
LINE
  5
141
100
AcDbEntity
  8
Layer_1
 62
7
100
AcDbLine
 10
596.128930
 20
99.000014
 30
0.0
 11
590.194760
 21
99.000014
 31
0.0
  0
LINE
  5
142
100
AcDbEntity
  8
Layer_1
 62
7
100
AcDbLine
 10
590.194760
 20
99.000014
 30
0.0
 11
590.194760
 21
99.000014
 31
0.0
  0
LINE
  5
143
100
AcDbEntity
  8
Layer_1
 62
7
100
AcDbLine
 10
590.194760
 20
99.000014
 30
0.0
 11
584.104760
 21
99.000014
 31
0.0
  0
LINE
  5
144
100
AcDbEntity
  8
Layer_1
 62
7
100
AcDbLine
 10
584.104760
 20
99.000014
 30
0.0
 11
584.104760
 21
99.000014
 31
0.0
  0
LINE
  5
145
100
AcDbEntity
  8
Layer_1
 62
7
100
AcDbLine
 10
584.104760
 20
99.000014
 30
0.0
 11
578.170600
 21
99.000014
 31
0.0
  0
LINE
  5
146
100
AcDbEntity
  8
Layer_1
 62
7
100
AcDbLine
 10
578.170600
 20
99.000014
 30
0.0
 11
578.170600
 21
99.000014
 31
0.0
  0
LINE
  5
147
100
AcDbEntity
  8
Layer_1
 62
7
100
AcDbLine
 10
578.170600
 20
99.000014
 30
0.0
 11
572.080600
 21
99.000014
 31
0.0
  0
LINE
  5
148
100
AcDbEntity
  8
Layer_1
 62
7
100
AcDbLine
 10
572.080600
 20
99.000014
 30
0.0
 11
572.080600
 21
99.000014
 31
0.0
  0
LINE
  5
149
100
AcDbEntity
  8
Layer_1
 62
7
100
AcDbLine
 10
572.080600
 20
99.000014
 30
0.0
 11
566.146430
 21
99.000014
 31
0.0
  0
LINE
  5
14a
100
AcDbEntity
  8
Layer_1
 62
7
100
AcDbLine
 10
566.146430
 20
99.000014
 30
0.0
 11
566.146430
 21
99.000014
 31
0.0
  0
LINE
  5
14b
100
AcDbEntity
  8
Layer_1
 62
7
100
AcDbLine
 10
566.146430
 20
99.000014
 30
0.0
 11
560.056430
 21
99.000014
 31
0.0
  0
LINE
  5
14c
100
AcDbEntity
  8
Layer_1
 62
7
100
AcDbLine
 10
560.056430
 20
99.000014
 30
0.0
 11
560.056430
 21
99.000014
 31
0.0
  0
LINE
  5
14d
100
AcDbEntity
  8
Layer_1
 62
7
100
AcDbLine
 10
560.056430
 20
99.000014
 30
0.0
 11
554.122260
 21
99.000014
 31
0.0
  0
LINE
  5
14e
100
AcDbEntity
  8
Layer_1
 62
7
100
AcDbLine
 10
554.122260
 20
99.000014
 30
0.0
 11
554.122260
 21
99.000014
 31
0.0
  0
LINE
  5
14f
100
AcDbEntity
  8
Layer_1
 62
7
100
AcDbLine
 10
554.122260
 20
99.000014
 30
0.0
 11
548.032260
 21
99.000014
 31
0.0
  0
LINE
  5
150
100
AcDbEntity
  8
Layer_1
 62
7
100
AcDbLine
 10
548.032260
 20
99.000014
 30
0.0
 11
548.032260
 21
99.000014
 31
0.0
  0
LINE
  5
151
100
AcDbEntity
  8
Layer_1
 62
7
100
AcDbLine
 10
548.032260
 20
99.000014
 30
0.0
 11
542.098100
 21
99.000014
 31
0.0
  0
LINE
  5
152
100
AcDbEntity
  8
Layer_1
 62
7
100
AcDbLine
 10
542.098100
 20
99.000014
 30
0.0
 11
542.098100
 21
99.000014
 31
0.0
  0
LINE
  5
153
100
AcDbEntity
  8
Layer_1
 62
7
100
AcDbLine
 10
542.098100
 20
99.000014
 30
0.0
 11
536.008100
 21
99.000014
 31
0.0
  0
LINE
  5
154
100
AcDbEntity
  8
Layer_1
 62
7
100
AcDbLine
 10
536.008100
 20
99.000014
 30
0.0
 11
536.008100
 21
99.000014
 31
0.0
  0
LINE
  5
155
100
AcDbEntity
  8
Layer_1
 62
7
100
AcDbLine
 10
536.008100
 20
99.000014
 30
0.0
 11
530.073930
 21
99.000014
 31
0.0
  0
LINE
  5
156
100
AcDbEntity
  8
Layer_1
 62
7
100
AcDbLine
 10
530.073930
 20
99.000014
 30
0.0
 11
530.073930
 21
99.000014
 31
0.0
  0
LINE
  5
157
100
AcDbEntity
  8
Layer_1
 62
7
100
AcDbLine
 10
530.073930
 20
99.000014
 30
0.0
 11
523.983930
 21
99.000014
 31
0.0
  0
LINE
  5
158
100
AcDbEntity
  8
Layer_1
 62
7
100
AcDbLine
 10
523.983930
 20
99.000014
 30
0.0
 11
523.983930
 21
99.000014
 31
0.0
  0
LINE
  5
159
100
AcDbEntity
  8
Layer_1
 62
7
100
AcDbLine
 10
523.983930
 20
99.000014
 30
0.0
 11
518.049770
 21
99.000014
 31
0.0
  0
LINE
  5
15a
100
AcDbEntity
  8
Layer_1
 62
7
100
AcDbLine
 10
518.049770
 20
99.000014
 30
0.0
 11
518.049770
 21
99.000014
 31
0.0
  0
LINE
  5
15b
100
AcDbEntity
  8
Layer_1
 62
7
100
AcDbLine
 10
518.049770
 20
99.000014
 30
0.0
 11
511.959770
 21
99.000014
 31
0.0
  0
LINE
  5
15c
100
AcDbEntity
  8
Layer_1
 62
7
100
AcDbLine
 10
511.959770
 20
99.000014
 30
0.0
 11
511.959770
 21
99.000014
 31
0.0
  0
LINE
  5
15d
100
AcDbEntity
  8
Layer_1
 62
7
100
AcDbLine
 10
511.959770
 20
99.000014
 30
0.0
 11
506.025600
 21
99.000014
 31
0.0
  0
LINE
  5
15e
100
AcDbEntity
  8
Layer_1
 62
7
100
AcDbLine
 10
506.025600
 20
99.000014
 30
0.0
 11
506.025600
 21
99.000014
 31
0.0
  0
LINE
  5
15f
100
AcDbEntity
  8
Layer_1
 62
7
100
AcDbLine
 10
506.025600
 20
99.000014
 30
0.0
 11
499.935600
 21
99.000014
 31
0.0
  0
LINE
  5
160
100
AcDbEntity
  8
Layer_1
 62
7
100
AcDbLine
 10
499.935600
 20
99.000014
 30
0.0
 11
499.935600
 21
99.000014
 31
0.0
  0
LINE
  5
161
100
AcDbEntity
  8
Layer_1
 62
7
100
AcDbLine
 10
499.935600
 20
99.000014
 30
0.0
 11
494.001430
 21
99.000014
 31
0.0
  0
LINE
  5
162
100
AcDbEntity
  8
Layer_1
 62
7
100
AcDbLine
 10
494.001430
 20
99.000014
 30
0.0
 11
494.001430
 21
99.000014
 31
0.0
  0
LINE
  5
163
100
AcDbEntity
  8
Layer_1
 62
7
100
AcDbLine
 10
494.001430
 20
99.000014
 30
0.0
 11
487.911430
 21
99.000014
 31
0.0
  0
LINE
  5
164
100
AcDbEntity
  8
Layer_1
 62
7
100
AcDbLine
 10
487.911430
 20
99.000014
 30
0.0
 11
487.911430
 21
99.000014
 31
0.0
  0
LINE
  5
165
100
AcDbEntity
  8
Layer_1
 62
7
100
AcDbLine
 10
487.911430
 20
99.000014
 30
0.0
 11
481.977270
 21
99.000014
 31
0.0
  0
LINE
  5
166
100
AcDbEntity
  8
Layer_1
 62
7
100
AcDbLine
 10
481.977270
 20
99.000014
 30
0.0
 11
481.977270
 21
99.000014
 31
0.0
  0
LINE
  5
167
100
AcDbEntity
  8
Layer_1
 62
7
100
AcDbLine
 10
481.977270
 20
99.000014
 30
0.0
 11
475.887270
 21
99.000014
 31
0.0
  0
LINE
  5
168
100
AcDbEntity
  8
Layer_1
 62
7
100
AcDbLine
 10
475.887270
 20
99.000014
 30
0.0
 11
475.887270
 21
99.000014
 31
0.0
  0
LINE
  5
169
100
AcDbEntity
  8
Layer_1
 62
7
100
AcDbLine
 10
475.887270
 20
99.000014
 30
0.0
 11
469.953100
 21
99.000014
 31
0.0
  0
LINE
  5
16a
100
AcDbEntity
  8
Layer_1
 62
7
100
AcDbLine
 10
469.953100
 20
99.000014
 30
0.0
 11
469.953100
 21
99.000014
 31
0.0
  0
LINE
  5
16b
100
AcDbEntity
  8
Layer_1
 62
7
100
AcDbLine
 10
469.953100
 20
99.000014
 30
0.0
 11
463.863100
 21
99.000014
 31
0.0
  0
LINE
  5
16c
100
AcDbEntity
  8
Layer_1
 62
7
100
AcDbLine
 10
463.863100
 20
99.000014
 30
0.0
 11
463.863100
 21
99.000014
 31
0.0
  0
LINE
  5
16d
100
AcDbEntity
  8
Layer_1
 62
7
100
AcDbLine
 10
463.863100
 20
99.000014
 30
0.0
 11
457.928936
 21
99.000014
 31
0.0
  0
LINE
  5
16e
100
AcDbEntity
  8
Layer_1
 62
7
100
AcDbLine
 10
457.928936
 20
99.000014
 30
0.0
 11
457.928936
 21
99.000014
 31
0.0
  0
LINE
  5
16f
100
AcDbEntity
  8
Layer_1
 62
7
100
AcDbLine
 10
457.928936
 20
99.000014
 30
0.0
 11
451.838939
 21
99.000014
 31
0.0
  0
LINE
  5
170
100
AcDbEntity
  8
Layer_1
 62
7
100
AcDbLine
 10
451.838939
 20
99.000014
 30
0.0
 11
451.838939
 21
99.000014
 31
0.0
  0
LINE
  5
171
100
AcDbEntity
  8
Layer_1
 62
7
100
AcDbLine
 10
451.838939
 20
99.000014
 30
0.0
 11
445.904782
 21
99.000014
 31
0.0
  0
LINE
  5
172
100
AcDbEntity
  8
Layer_1
 62
7
100
AcDbLine
 10
445.904782
 20
99.000014
 30
0.0
 11
445.904782
 21
99.000014
 31
0.0
  0
LINE
  5
173
100
AcDbEntity
  8
Layer_1
 62
7
100
AcDbLine
 10
445.904782
 20
99.000014
 30
0.0
 11
439.814785
 21
99.000014
 31
0.0
  0
LINE
  5
174
100
AcDbEntity
  8
Layer_1
 62
7
100
AcDbLine
 10
439.814785
 20
99.000014
 30
0.0
 11
439.814785
 21
99.000014
 31
0.0
  0
LINE
  5
175
100
AcDbEntity
  8
Layer_1
 62
7
100
AcDbLine
 10
439.814785
 20
99.000014
 30
0.0
 11
433.880618
 21
99.000014
 31
0.0
  0
LINE
  5
176
100
AcDbEntity
  8
Layer_1
 62
7
100
AcDbLine
 10
433.880618
 20
99.000014
 30
0.0
 11
433.880618
 21
99.000014
 31
0.0
  0
LINE
  5
177
100
AcDbEntity
  8
Layer_1
 62
7
100
AcDbLine
 10
433.880618
 20
99.000014
 30
0.0
 11
427.790621
 21
99.000014
 31
0.0
  0
LINE
  5
178
100
AcDbEntity
  8
Layer_1
 62
7
100
AcDbLine
 10
427.790621
 20
99.000014
 30
0.0
 11
427.790621
 21
99.000014
 31
0.0
  0
LINE
  5
179
100
AcDbEntity
  8
Layer_1
 62
7
100
AcDbLine
 10
427.790621
 20
99.000014
 30
0.0
 11
421.856464
 21
99.000014
 31
0.0
  0
LINE
  5
17a
100
AcDbEntity
  8
Layer_1
 62
7
100
AcDbLine
 10
421.856464
 20
99.000014
 30
0.0
 11
421.856464
 21
99.000014
 31
0.0
  0
LINE
  5
17b
100
AcDbEntity
  8
Layer_1
 62
7
100
AcDbLine
 10
421.856464
 20
99.000014
 30
0.0
 11
415.766470
 21
99.000014
 31
0.0
  0
LINE
  5
17c
100
AcDbEntity
  8
Layer_1
 62
7
100
AcDbLine
 10
415.766470
 20
99.000014
 30
0.0
 11
415.766470
 21
99.000014
 31
0.0
  0
LINE
  5
17d
100
AcDbEntity
  8
Layer_1
 62
7
100
AcDbLine
 10
415.766470
 20
99.000014
 30
0.0
 11
409.832303
 21
99.000014
 31
0.0
  0
LINE
  5
17e
100
AcDbEntity
  8
Layer_1
 62
7
100
AcDbLine
 10
409.832303
 20
99.000014
 30
0.0
 11
409.832303
 21
99.000014
 31
0.0
  0
LINE
  5
17f
100
AcDbEntity
  8
Layer_1
 62
7
100
AcDbLine
 10
409.832303
 20
99.000014
 30
0.0
 11
403.742306
 21
99.000014
 31
0.0
  0
LINE
  5
180
100
AcDbEntity
  8
Layer_1
 62
7
100
AcDbLine
 10
403.742306
 20
99.000014
 30
0.0
 11
403.742306
 21
99.000014
 31
0.0
  0
LINE
  5
181
100
AcDbEntity
  8
Layer_1
 62
7
100
AcDbLine
 10
403.742306
 20
99.000014
 30
0.0
 11
397.808139
 21
99.000014
 31
0.0
  0
LINE
  5
182
100
AcDbEntity
  8
Layer_1
 62
7
100
AcDbLine
 10
397.808139
 20
99.000014
 30
0.0
 11
397.808139
 21
99.000014
 31
0.0
  0
LINE
  5
183
100
AcDbEntity
  8
Layer_1
 62
7
100
AcDbLine
 10
397.808139
 20
99.000014
 30
0.0
 11
391.718142
 21
99.000014
 31
0.0
  0
LINE
  5
184
100
AcDbEntity
  8
Layer_1
 62
7
100
AcDbLine
 10
391.718142
 20
99.000014
 30
0.0
 11
391.718142
 21
99.000014
 31
0.0
  0
LINE
  5
185
100
AcDbEntity
  8
Layer_1
 62
7
100
AcDbLine
 10
391.718142
 20
99.000014
 30
0.0
 11
385.783985
 21
99.000014
 31
0.0
  0
LINE
  5
186
100
AcDbEntity
  8
Layer_1
 62
7
100
AcDbLine
 10
385.783985
 20
99.000014
 30
0.0
 11
385.783985
 21
99.000014
 31
0.0
  0
LINE
  5
187
100
AcDbEntity
  8
Layer_1
 62
7
100
AcDbLine
 10
385.783985
 20
99.000014
 30
0.0
 11
379.693988
 21
99.000014
 31
0.0
  0
LINE
  5
188
100
AcDbEntity
  8
Layer_1
 62
7
100
AcDbLine
 10
379.693988
 20
99.000014
 30
0.0
 11
379.693988
 21
99.000014
 31
0.0
  0
LINE
  5
189
100
AcDbEntity
  8
Layer_1
 62
7
100
AcDbLine
 10
379.693988
 20
99.000014
 30
0.0
 11
373.759821
 21
99.000014
 31
0.0
  0
LINE
  5
18a
100
AcDbEntity
  8
Layer_1
 62
7
100
AcDbLine
 10
373.759821
 20
99.000014
 30
0.0
 11
373.759821
 21
99.000014
 31
0.0
  0
LINE
  5
18b
100
AcDbEntity
  8
Layer_1
 62
7
100
AcDbLine
 10
373.759821
 20
99.000014
 30
0.0
 11
367.669828
 21
99.000014
 31
0.0
  0
LINE
  5
18c
100
AcDbEntity
  8
Layer_1
 62
7
100
AcDbLine
 10
367.669828
 20
99.000014
 30
0.0
 11
367.669828
 21
99.000014
 31
0.0
  0
LINE
  5
18d
100
AcDbEntity
  8
Layer_1
 62
7
100
AcDbLine
 10
367.669828
 20
99.000014
 30
0.0
 11
361.735671
 21
99.000014
 31
0.0
  0
LINE
  5
18e
100
AcDbEntity
  8
Layer_1
 62
7
100
AcDbLine
 10
361.735671
 20
99.000014
 30
0.0
 11
361.735671
 21
99.000014
 31
0.0
  0
LINE
  5
18f
100
AcDbEntity
  8
Layer_1
 62
7
100
AcDbLine
 10
361.735671
 20
99.000014
 30
0.0
 11
355.645674
 21
99.000014
 31
0.0
  0
LINE
  5
190
100
AcDbEntity
  8
Layer_1
 62
7
100
AcDbLine
 10
355.645674
 20
99.000014
 30
0.0
 11
355.645674
 21
99.000014
 31
0.0
  0
LINE
  5
191
100
AcDbEntity
  8
Layer_1
 62
7
100
AcDbLine
 10
355.645674
 20
99.000014
 30
0.0
 11
349.666505
 21
99.000014
 31
0.0
  0
LINE
  5
192
100
AcDbEntity
  8
Layer_1
 62
7
100
AcDbLine
 10
632.246430
 20
187.900005
 30
0.0
 11
632.246430
 21
184.373758
 31
0.0
  0
LINE
  5
193
100
AcDbEntity
  8
Layer_1
 62
7
100
AcDbLine
 10
632.246430
 20
184.373758
 30
0.0
 11
629.071430
 21
184.373758
 31
0.0
  0
LINE
  5
194
100
AcDbEntity
  8
Layer_1
 62
7
100
AcDbLine
 10
629.071430
 20
184.373758
 30
0.0
 11
629.071430
 21
178.463761
 31
0.0
  0
LINE
  5
195
100
AcDbEntity
  8
Layer_1
 62
7
100
AcDbLine
 10
629.071430
 20
178.463761
 30
0.0
 11
632.246430
 21
178.463761
 31
0.0
  0
LINE
  5
196
100
AcDbEntity
  8
Layer_1
 62
7
100
AcDbLine
 10
632.246430
 20
178.463761
 30
0.0
 11
632.246430
 21
171.717514
 31
0.0
  0
LINE
  5
197
100
AcDbEntity
  8
Layer_1
 62
7
100
AcDbLine
 10
632.246430
 20
171.717514
 30
0.0
 11
629.071430
 21
171.717514
 31
0.0
  0
LINE
  5
198
100
AcDbEntity
  8
Layer_1
 62
7
100
AcDbLine
 10
629.071430
 20
171.717514
 30
0.0
 11
629.071430
 21
165.807514
 31
0.0
  0
LINE
  5
199
100
AcDbEntity
  8
Layer_1
 62
7
100
AcDbLine
 10
629.071430
 20
165.807514
 30
0.0
 11
632.246430
 21
165.807514
 31
0.0
  0
LINE
  5
19a
100
AcDbEntity
  8
Layer_1
 62
7
100
AcDbLine
 10
632.246430
 20
165.807514
 30
0.0
 11
632.246430
 21
159.061264
 31
0.0
  0
LINE
  5
19b
100
AcDbEntity
  8
Layer_1
 62
7
100
AcDbLine
 10
632.246430
 20
159.061264
 30
0.0
 11
629.071430
 21
159.061264
 31
0.0
  0
LINE
  5
19c
100
AcDbEntity
  8
Layer_1
 62
7
100
AcDbLine
 10
629.071430
 20
159.061264
 30
0.0
 11
629.071430
 21
153.151264
 31
0.0
  0
LINE
  5
19d
100
AcDbEntity
  8
Layer_1
 62
7
100
AcDbLine
 10
629.071430
 20
153.151264
 30
0.0
 11
632.246430
 21
153.151264
 31
0.0
  0
LINE
  5
19e
100
AcDbEntity
  8
Layer_1
 62
7
100
AcDbLine
 10
632.246430
 20
153.151264
 30
0.0
 11
632.246430
 21
146.405014
 31
0.0
  0
LINE
  5
19f
100
AcDbEntity
  8
Layer_1
 62
7
100
AcDbLine
 10
632.246430
 20
146.405014
 30
0.0
 11
629.071430
 21
146.405014
 31
0.0
  0
LINE
  5
1a0
100
AcDbEntity
  8
Layer_1
 62
7
100
AcDbLine
 10
629.071430
 20
146.405014
 30
0.0
 11
629.071430
 21
140.495014
 31
0.0
  0
LINE
  5
1a1
100
AcDbEntity
  8
Layer_1
 62
7
100
AcDbLine
 10
629.071430
 20
140.495014
 30
0.0
 11
632.246430
 21
140.495014
 31
0.0
  0
LINE
  5
1a2
100
AcDbEntity
  8
Layer_1
 62
7
100
AcDbLine
 10
632.246430
 20
140.495014
 30
0.0
 11
632.246430
 21
133.748764
 31
0.0
  0
LINE
  5
1a3
100
AcDbEntity
  8
Layer_1
 62
7
100
AcDbLine
 10
632.246430
 20
133.748764
 30
0.0
 11
629.071430
 21
133.748764
 31
0.0
  0
LINE
  5
1a4
100
AcDbEntity
  8
Layer_1
 62
7
100
AcDbLine
 10
629.071430
 20
133.748764
 30
0.0
 11
629.071430
 21
127.838764
 31
0.0
  0
LINE
  5
1a5
100
AcDbEntity
  8
Layer_1
 62
7
100
AcDbLine
 10
629.071430
 20
127.838764
 30
0.0
 11
632.246430
 21
127.838764
 31
0.0
  0
LINE
  5
1a6
100
AcDbEntity
  8
Layer_1
 62
7
100
AcDbLine
 10
632.246430
 20
127.838764
 30
0.0
 11
632.246430
 21
121.092514
 31
0.0
  0
LINE
  5
1a7
100
AcDbEntity
  8
Layer_1
 62
7
100
AcDbLine
 10
632.246430
 20
121.092514
 30
0.0
 11
629.071430
 21
121.092514
 31
0.0
  0
LINE
  5
1a8
100
AcDbEntity
  8
Layer_1
 62
7
100
AcDbLine
 10
629.071430
 20
121.092514
 30
0.0
 11
629.071430
 21
115.182514
 31
0.0
  0
LINE
  5
1a9
100
AcDbEntity
  8
Layer_1
 62
7
100
AcDbLine
 10
629.071430
 20
115.182514
 30
0.0
 11
632.246430
 21
115.182514
 31
0.0
  0
LINE
  5
1aa
100
AcDbEntity
  8
Layer_1
 62
7
100
AcDbLine
 10
632.246430
 20
115.182514
 30
0.0
 11
632.246430
 21
108.436264
 31
0.0
  0
LINE
  5
1ab
100
AcDbEntity
  8
Layer_1
 62
7
100
AcDbLine
 10
632.246430
 20
108.436264
 30
0.0
 11
629.071430
 21
108.436264
 31
0.0
  0
LINE
  5
1ac
100
AcDbEntity
  8
Layer_1
 62
7
100
AcDbLine
 10
629.071430
 20
108.436264
 30
0.0
 11
629.071430
 21
102.526264
 31
0.0
  0
LINE
  5
1ad
100
AcDbEntity
  8
Layer_1
 62
7
100
AcDbLine
 10
629.071430
 20
102.526264
 30
0.0
 11
632.246430
 21
102.526264
 31
0.0
  0
LINE
  5
1ae
100
AcDbEntity
  8
Layer_1
 62
7
100
AcDbLine
 10
632.246430
 20
102.526264
 30
0.0
 11
632.246430
 21
99.000014
 31
0.0
  0
LINE
  5
1af
100
AcDbEntity
  8
Layer_1
 62
7
100
AcDbLine
 10
349.666505
 20
187.900005
 30
0.0
 11
355.645674
 21
187.900005
 31
0.0
  0
LINE
  5
1b0
100
AcDbEntity
  8
Layer_1
 62
7
100
AcDbLine
 10
355.645674
 20
187.900005
 30
0.0
 11
355.645674
 21
187.900005
 31
0.0
  0
LINE
  5
1b1
100
AcDbEntity
  8
Layer_1
 62
7
100
AcDbLine
 10
355.645674
 20
187.900005
 30
0.0
 11
361.735671
 21
187.900005
 31
0.0
  0
LINE
  5
1b2
100
AcDbEntity
  8
Layer_1
 62
7
100
AcDbLine
 10
361.735671
 20
187.900005
 30
0.0
 11
361.735671
 21
187.900005
 31
0.0
  0
LINE
  5
1b3
100
AcDbEntity
  8
Layer_1
 62
7
100
AcDbLine
 10
361.735671
 20
187.900005
 30
0.0
 11
367.669828
 21
187.900005
 31
0.0
  0
LINE
  5
1b4
100
AcDbEntity
  8
Layer_1
 62
7
100
AcDbLine
 10
367.669828
 20
187.900005
 30
0.0
 11
367.669828
 21
187.900005
 31
0.0
  0
LINE
  5
1b5
100
AcDbEntity
  8
Layer_1
 62
7
100
AcDbLine
 10
367.669828
 20
187.900005
 30
0.0
 11
373.759821
 21
187.900005
 31
0.0
  0
LINE
  5
1b6
100
AcDbEntity
  8
Layer_1
 62
7
100
AcDbLine
 10
373.759821
 20
187.900005
 30
0.0
 11
373.759821
 21
187.900005
 31
0.0
  0
LINE
  5
1b7
100
AcDbEntity
  8
Layer_1
 62
7
100
AcDbLine
 10
373.759821
 20
187.900005
 30
0.0
 11
379.693988
 21
187.900005
 31
0.0
  0
LINE
  5
1b8
100
AcDbEntity
  8
Layer_1
 62
7
100
AcDbLine
 10
379.693988
 20
187.900005
 30
0.0
 11
379.693988
 21
187.900005
 31
0.0
  0
LINE
  5
1b9
100
AcDbEntity
  8
Layer_1
 62
7
100
AcDbLine
 10
379.693988
 20
187.900005
 30
0.0
 11
385.783985
 21
187.900005
 31
0.0
  0
LINE
  5
1ba
100
AcDbEntity
  8
Layer_1
 62
7
100
AcDbLine
 10
385.783985
 20
187.900005
 30
0.0
 11
385.783985
 21
187.900005
 31
0.0
  0
LINE
  5
1bb
100
AcDbEntity
  8
Layer_1
 62
7
100
AcDbLine
 10
385.783985
 20
187.900005
 30
0.0
 11
391.718142
 21
187.900005
 31
0.0
  0
LINE
  5
1bc
100
AcDbEntity
  8
Layer_1
 62
7
100
AcDbLine
 10
391.718142
 20
187.900005
 30
0.0
 11
391.718142
 21
187.900005
 31
0.0
  0
LINE
  5
1bd
100
AcDbEntity
  8
Layer_1
 62
7
100
AcDbLine
 10
391.718142
 20
187.900005
 30
0.0
 11
397.808139
 21
187.900005
 31
0.0
  0
LINE
  5
1be
100
AcDbEntity
  8
Layer_1
 62
7
100
AcDbLine
 10
397.808139
 20
187.900005
 30
0.0
 11
397.808139
 21
187.900005
 31
0.0
  0
LINE
  5
1bf
100
AcDbEntity
  8
Layer_1
 62
7
100
AcDbLine
 10
397.808139
 20
187.900005
 30
0.0
 11
403.742306
 21
187.900005
 31
0.0
  0
LINE
  5
1c0
100
AcDbEntity
  8
Layer_1
 62
7
100
AcDbLine
 10
403.742306
 20
187.900005
 30
0.0
 11
403.742306
 21
187.900005
 31
0.0
  0
LINE
  5
1c1
100
AcDbEntity
  8
Layer_1
 62
7
100
AcDbLine
 10
403.742306
 20
187.900005
 30
0.0
 11
409.832303
 21
187.900005
 31
0.0
  0
LINE
  5
1c2
100
AcDbEntity
  8
Layer_1
 62
7
100
AcDbLine
 10
409.832303
 20
187.900005
 30
0.0
 11
409.832303
 21
187.900005
 31
0.0
  0
LINE
  5
1c3
100
AcDbEntity
  8
Layer_1
 62
7
100
AcDbLine
 10
409.832303
 20
187.900005
 30
0.0
 11
415.766470
 21
187.900005
 31
0.0
  0
LINE
  5
1c4
100
AcDbEntity
  8
Layer_1
 62
7
100
AcDbLine
 10
415.766470
 20
187.900005
 30
0.0
 11
415.766470
 21
187.900005
 31
0.0
  0
LINE
  5
1c5
100
AcDbEntity
  8
Layer_1
 62
7
100
AcDbLine
 10
415.766470
 20
187.900005
 30
0.0
 11
421.856464
 21
187.900005
 31
0.0
  0
LINE
  5
1c6
100
AcDbEntity
  8
Layer_1
 62
7
100
AcDbLine
 10
421.856464
 20
187.900005
 30
0.0
 11
421.856464
 21
187.900005
 31
0.0
  0
LINE
  5
1c7
100
AcDbEntity
  8
Layer_1
 62
7
100
AcDbLine
 10
421.856464
 20
187.900005
 30
0.0
 11
427.790621
 21
187.900005
 31
0.0
  0
LINE
  5
1c8
100
AcDbEntity
  8
Layer_1
 62
7
100
AcDbLine
 10
427.790621
 20
187.900005
 30
0.0
 11
427.790621
 21
187.900005
 31
0.0
  0
LINE
  5
1c9
100
AcDbEntity
  8
Layer_1
 62
7
100
AcDbLine
 10
427.790621
 20
187.900005
 30
0.0
 11
433.880618
 21
187.900005
 31
0.0
  0
LINE
  5
1ca
100
AcDbEntity
  8
Layer_1
 62
7
100
AcDbLine
 10
433.880618
 20
187.900005
 30
0.0
 11
433.880618
 21
187.900005
 31
0.0
  0
LINE
  5
1cb
100
AcDbEntity
  8
Layer_1
 62
7
100
AcDbLine
 10
433.880618
 20
187.900005
 30
0.0
 11
439.814785
 21
187.900005
 31
0.0
  0
LINE
  5
1cc
100
AcDbEntity
  8
Layer_1
 62
7
100
AcDbLine
 10
439.814785
 20
187.900005
 30
0.0
 11
439.814785
 21
187.900005
 31
0.0
  0
LINE
  5
1cd
100
AcDbEntity
  8
Layer_1
 62
7
100
AcDbLine
 10
439.814785
 20
187.900005
 30
0.0
 11
445.904782
 21
187.900005
 31
0.0
  0
LINE
  5
1ce
100
AcDbEntity
  8
Layer_1
 62
7
100
AcDbLine
 10
445.904782
 20
187.900005
 30
0.0
 11
445.904782
 21
187.900005
 31
0.0
  0
LINE
  5
1cf
100
AcDbEntity
  8
Layer_1
 62
7
100
AcDbLine
 10
445.904782
 20
187.900005
 30
0.0
 11
451.838939
 21
187.900005
 31
0.0
  0
LINE
  5
1d0
100
AcDbEntity
  8
Layer_1
 62
7
100
AcDbLine
 10
451.838939
 20
187.900005
 30
0.0
 11
451.838939
 21
187.900005
 31
0.0
  0
LINE
  5
1d1
100
AcDbEntity
  8
Layer_1
 62
7
100
AcDbLine
 10
451.838939
 20
187.900005
 30
0.0
 11
457.928936
 21
187.900005
 31
0.0
  0
LINE
  5
1d2
100
AcDbEntity
  8
Layer_1
 62
7
100
AcDbLine
 10
457.928936
 20
187.900005
 30
0.0
 11
457.928936
 21
187.900005
 31
0.0
  0
LINE
  5
1d3
100
AcDbEntity
  8
Layer_1
 62
7
100
AcDbLine
 10
457.928936
 20
187.900005
 30
0.0
 11
463.863100
 21
187.900005
 31
0.0
  0
LINE
  5
1d4
100
AcDbEntity
  8
Layer_1
 62
7
100
AcDbLine
 10
463.863100
 20
187.900005
 30
0.0
 11
463.863100
 21
187.900005
 31
0.0
  0
LINE
  5
1d5
100
AcDbEntity
  8
Layer_1
 62
7
100
AcDbLine
 10
463.863100
 20
187.900005
 30
0.0
 11
469.953100
 21
187.900005
 31
0.0
  0
LINE
  5
1d6
100
AcDbEntity
  8
Layer_1
 62
7
100
AcDbLine
 10
469.953100
 20
187.900005
 30
0.0
 11
469.953100
 21
187.900005
 31
0.0
  0
LINE
  5
1d7
100
AcDbEntity
  8
Layer_1
 62
7
100
AcDbLine
 10
469.953100
 20
187.900005
 30
0.0
 11
475.887270
 21
187.900005
 31
0.0
  0
LINE
  5
1d8
100
AcDbEntity
  8
Layer_1
 62
7
100
AcDbLine
 10
475.887270
 20
187.900005
 30
0.0
 11
475.887270
 21
187.900005
 31
0.0
  0
LINE
  5
1d9
100
AcDbEntity
  8
Layer_1
 62
7
100
AcDbLine
 10
475.887270
 20
187.900005
 30
0.0
 11
481.977270
 21
187.900005
 31
0.0
  0
LINE
  5
1da
100
AcDbEntity
  8
Layer_1
 62
7
100
AcDbLine
 10
481.977270
 20
187.900005
 30
0.0
 11
481.977270
 21
187.900005
 31
0.0
  0
LINE
  5
1db
100
AcDbEntity
  8
Layer_1
 62
7
100
AcDbLine
 10
481.977270
 20
187.900005
 30
0.0
 11
487.911430
 21
187.900005
 31
0.0
  0
LINE
  5
1dc
100
AcDbEntity
  8
Layer_1
 62
7
100
AcDbLine
 10
487.911430
 20
187.900005
 30
0.0
 11
487.911430
 21
187.900005
 31
0.0
  0
LINE
  5
1dd
100
AcDbEntity
  8
Layer_1
 62
7
100
AcDbLine
 10
487.911430
 20
187.900005
 30
0.0
 11
494.001430
 21
187.900005
 31
0.0
  0
LINE
  5
1de
100
AcDbEntity
  8
Layer_1
 62
7
100
AcDbLine
 10
494.001430
 20
187.900005
 30
0.0
 11
494.001430
 21
187.900005
 31
0.0
  0
LINE
  5
1df
100
AcDbEntity
  8
Layer_1
 62
7
100
AcDbLine
 10
494.001430
 20
187.900005
 30
0.0
 11
499.935600
 21
187.900005
 31
0.0
  0
LINE
  5
1e0
100
AcDbEntity
  8
Layer_1
 62
7
100
AcDbLine
 10
499.935600
 20
187.900005
 30
0.0
 11
499.935600
 21
187.900005
 31
0.0
  0
LINE
  5
1e1
100
AcDbEntity
  8
Layer_1
 62
7
100
AcDbLine
 10
499.935600
 20
187.900005
 30
0.0
 11
506.025600
 21
187.900005
 31
0.0
  0
LINE
  5
1e2
100
AcDbEntity
  8
Layer_1
 62
7
100
AcDbLine
 10
506.025600
 20
187.900005
 30
0.0
 11
506.025600
 21
187.900005
 31
0.0
  0
LINE
  5
1e3
100
AcDbEntity
  8
Layer_1
 62
7
100
AcDbLine
 10
506.025600
 20
187.900005
 30
0.0
 11
511.959770
 21
187.900005
 31
0.0
  0
LINE
  5
1e4
100
AcDbEntity
  8
Layer_1
 62
7
100
AcDbLine
 10
511.959770
 20
187.900005
 30
0.0
 11
511.959770
 21
187.900005
 31
0.0
  0
LINE
  5
1e5
100
AcDbEntity
  8
Layer_1
 62
7
100
AcDbLine
 10
511.959770
 20
187.900005
 30
0.0
 11
518.049770
 21
187.900005
 31
0.0
  0
LINE
  5
1e6
100
AcDbEntity
  8
Layer_1
 62
7
100
AcDbLine
 10
518.049770
 20
187.900005
 30
0.0
 11
518.049770
 21
187.900005
 31
0.0
  0
LINE
  5
1e7
100
AcDbEntity
  8
Layer_1
 62
7
100
AcDbLine
 10
518.049770
 20
187.900005
 30
0.0
 11
523.983930
 21
187.900005
 31
0.0
  0
LINE
  5
1e8
100
AcDbEntity
  8
Layer_1
 62
7
100
AcDbLine
 10
523.983930
 20
187.900005
 30
0.0
 11
523.983930
 21
187.900005
 31
0.0
  0
LINE
  5
1e9
100
AcDbEntity
  8
Layer_1
 62
7
100
AcDbLine
 10
523.983930
 20
187.900005
 30
0.0
 11
530.073930
 21
187.900005
 31
0.0
  0
LINE
  5
1ea
100
AcDbEntity
  8
Layer_1
 62
7
100
AcDbLine
 10
530.073930
 20
187.900005
 30
0.0
 11
530.073930
 21
187.900005
 31
0.0
  0
LINE
  5
1eb
100
AcDbEntity
  8
Layer_1
 62
7
100
AcDbLine
 10
530.073930
 20
187.900005
 30
0.0
 11
536.008100
 21
187.900005
 31
0.0
  0
LINE
  5
1ec
100
AcDbEntity
  8
Layer_1
 62
7
100
AcDbLine
 10
536.008100
 20
187.900005
 30
0.0
 11
536.008100
 21
187.900005
 31
0.0
  0
LINE
  5
1ed
100
AcDbEntity
  8
Layer_1
 62
7
100
AcDbLine
 10
536.008100
 20
187.900005
 30
0.0
 11
542.098100
 21
187.900005
 31
0.0
  0
LINE
  5
1ee
100
AcDbEntity
  8
Layer_1
 62
7
100
AcDbLine
 10
542.098100
 20
187.900005
 30
0.0
 11
542.098100
 21
187.900005
 31
0.0
  0
LINE
  5
1ef
100
AcDbEntity
  8
Layer_1
 62
7
100
AcDbLine
 10
542.098100
 20
187.900005
 30
0.0
 11
548.032260
 21
187.900005
 31
0.0
  0
LINE
  5
1f0
100
AcDbEntity
  8
Layer_1
 62
7
100
AcDbLine
 10
548.032260
 20
187.900005
 30
0.0
 11
548.032260
 21
187.900005
 31
0.0
  0
LINE
  5
1f1
100
AcDbEntity
  8
Layer_1
 62
7
100
AcDbLine
 10
548.032260
 20
187.900005
 30
0.0
 11
554.122260
 21
187.900005
 31
0.0
  0
LINE
  5
1f2
100
AcDbEntity
  8
Layer_1
 62
7
100
AcDbLine
 10
554.122260
 20
187.900005
 30
0.0
 11
554.122260
 21
187.900005
 31
0.0
  0
LINE
  5
1f3
100
AcDbEntity
  8
Layer_1
 62
7
100
AcDbLine
 10
554.122260
 20
187.900005
 30
0.0
 11
560.056430
 21
187.900005
 31
0.0
  0
LINE
  5
1f4
100
AcDbEntity
  8
Layer_1
 62
7
100
AcDbLine
 10
560.056430
 20
187.900005
 30
0.0
 11
560.056430
 21
187.900005
 31
0.0
  0
LINE
  5
1f5
100
AcDbEntity
  8
Layer_1
 62
7
100
AcDbLine
 10
560.056430
 20
187.900005
 30
0.0
 11
566.146430
 21
187.900005
 31
0.0
  0
LINE
  5
1f6
100
AcDbEntity
  8
Layer_1
 62
7
100
AcDbLine
 10
566.146430
 20
187.900005
 30
0.0
 11
566.146430
 21
187.900005
 31
0.0
  0
LINE
  5
1f7
100
AcDbEntity
  8
Layer_1
 62
7
100
AcDbLine
 10
566.146430
 20
187.900005
 30
0.0
 11
572.080600
 21
187.900005
 31
0.0
  0
LINE
  5
1f8
100
AcDbEntity
  8
Layer_1
 62
7
100
AcDbLine
 10
572.080600
 20
187.900005
 30
0.0
 11
572.080600
 21
187.900005
 31
0.0
  0
LINE
  5
1f9
100
AcDbEntity
  8
Layer_1
 62
7
100
AcDbLine
 10
572.080600
 20
187.900005
 30
0.0
 11
578.170600
 21
187.900005
 31
0.0
  0
LINE
  5
1fa
100
AcDbEntity
  8
Layer_1
 62
7
100
AcDbLine
 10
578.170600
 20
187.900005
 30
0.0
 11
578.170600
 21
187.900005
 31
0.0
  0
LINE
  5
1fb
100
AcDbEntity
  8
Layer_1
 62
7
100
AcDbLine
 10
578.170600
 20
187.900005
 30
0.0
 11
584.104760
 21
187.900005
 31
0.0
  0
LINE
  5
1fc
100
AcDbEntity
  8
Layer_1
 62
7
100
AcDbLine
 10
584.104760
 20
187.900005
 30
0.0
 11
584.104760
 21
187.900005
 31
0.0
  0
LINE
  5
1fd
100
AcDbEntity
  8
Layer_1
 62
7
100
AcDbLine
 10
584.104760
 20
187.900005
 30
0.0
 11
590.194760
 21
187.900005
 31
0.0
  0
LINE
  5
1fe
100
AcDbEntity
  8
Layer_1
 62
7
100
AcDbLine
 10
590.194760
 20
187.900005
 30
0.0
 11
590.194760
 21
187.900005
 31
0.0
  0
LINE
  5
1ff
100
AcDbEntity
  8
Layer_1
 62
7
100
AcDbLine
 10
590.194760
 20
187.900005
 30
0.0
 11
596.128930
 21
187.900005
 31
0.0
  0
LINE
  5
200
100
AcDbEntity
  8
Layer_1
 62
7
100
AcDbLine
 10
596.128930
 20
187.900005
 30
0.0
 11
596.128930
 21
187.900005
 31
0.0
  0
LINE
  5
201
100
AcDbEntity
  8
Layer_1
 62
7
100
AcDbLine
 10
596.128930
 20
187.900005
 30
0.0
 11
602.218930
 21
187.900005
 31
0.0
  0
LINE
  5
202
100
AcDbEntity
  8
Layer_1
 62
7
100
AcDbLine
 10
602.218930
 20
187.900005
 30
0.0
 11
602.218930
 21
187.900005
 31
0.0
  0
LINE
  5
203
100
AcDbEntity
  8
Layer_1
 62
7
100
AcDbLine
 10
602.218930
 20
187.900005
 30
0.0
 11
608.153090
 21
187.900005
 31
0.0
  0
LINE
  5
204
100
AcDbEntity
  8
Layer_1
 62
7
100
AcDbLine
 10
608.153090
 20
187.900005
 30
0.0
 11
608.153090
 21
187.900005
 31
0.0
  0
LINE
  5
205
100
AcDbEntity
  8
Layer_1
 62
7
100
AcDbLine
 10
608.153090
 20
187.900005
 30
0.0
 11
614.243090
 21
187.900005
 31
0.0
  0
LINE
  5
206
100
AcDbEntity
  8
Layer_1
 62
7
100
AcDbLine
 10
614.243090
 20
187.900005
 30
0.0
 11
614.243090
 21
187.900005
 31
0.0
  0
LINE
  5
207
100
AcDbEntity
  8
Layer_1
 62
7
100
AcDbLine
 10
614.243090
 20
187.900005
 30
0.0
 11
620.177260
 21
187.900005
 31
0.0
  0
LINE
  5
208
100
AcDbEntity
  8
Layer_1
 62
7
100
AcDbLine
 10
620.177260
 20
187.900005
 30
0.0
 11
620.177260
 21
187.900005
 31
0.0
  0
LINE
  5
209
100
AcDbEntity
  8
Layer_1
 62
7
100
AcDbLine
 10
620.177260
 20
187.900005
 30
0.0
 11
626.267260
 21
187.900005
 31
0.0
  0
LINE
  5
20a
100
AcDbEntity
  8
Layer_1
 62
7
100
AcDbLine
 10
626.267260
 20
187.900005
 30
0.0
 11
626.267260
 21
187.900005
 31
0.0
  0
LINE
  5
20b
100
AcDbEntity
  8
Layer_1
 62
7
100
AcDbLine
 10
626.267260
 20
187.900005
 30
0.0
 11
632.246430
 21
187.900005
 31
0.0
  0
LINE
  5
20c
100
AcDbEntity
  8
Layer_1
 62
7
100
AcDbLine
 10
632.246430
 20
99.000014
 30
0.0
 11
632.246430
 21
95.473764
 31
0.0
  0
LINE
  5
20d
100
AcDbEntity
  8
Layer_1
 62
7
100
AcDbLine
 10
632.246430
 20
95.473764
 30
0.0
 11
629.071430
 21
95.473764
 31
0.0
  0
LINE
  5
20e
100
AcDbEntity
  8
Layer_1
 62
7
100
AcDbLine
 10
629.071430
 20
95.473764
 30
0.0
 11
629.071430
 21
89.563764
 31
0.0
  0
LINE
  5
20f
100
AcDbEntity
  8
Layer_1
 62
7
100
AcDbLine
 10
629.071430
 20
89.563764
 30
0.0
 11
632.246430
 21
89.563764
 31
0.0
  0
LINE
  5
210
100
AcDbEntity
  8
Layer_1
 62
7
100
AcDbLine
 10
632.246430
 20
89.563764
 30
0.0
 11
632.246430
 21
82.817514
 31
0.0
  0
LINE
  5
211
100
AcDbEntity
  8
Layer_1
 62
7
100
AcDbLine
 10
632.246430
 20
82.817514
 30
0.0
 11
629.071430
 21
82.817514
 31
0.0
  0
LINE
  5
212
100
AcDbEntity
  8
Layer_1
 62
7
100
AcDbLine
 10
629.071430
 20
82.817514
 30
0.0
 11
629.071430
 21
76.907514
 31
0.0
  0
LINE
  5
213
100
AcDbEntity
  8
Layer_1
 62
7
100
AcDbLine
 10
629.071430
 20
76.907514
 30
0.0
 11
632.246430
 21
76.907514
 31
0.0
  0
LINE
  5
214
100
AcDbEntity
  8
Layer_1
 62
7
100
AcDbLine
 10
632.246430
 20
76.907514
 30
0.0
 11
632.246430
 21
70.161264
 31
0.0
  0
LINE
  5
215
100
AcDbEntity
  8
Layer_1
 62
7
100
AcDbLine
 10
632.246430
 20
70.161264
 30
0.0
 11
629.071430
 21
70.161264
 31
0.0
  0
LINE
  5
216
100
AcDbEntity
  8
Layer_1
 62
7
100
AcDbLine
 10
629.071430
 20
70.161264
 30
0.0
 11
629.071430
 21
64.251264
 31
0.0
  0
LINE
  5
217
100
AcDbEntity
  8
Layer_1
 62
7
100
AcDbLine
 10
629.071430
 20
64.251264
 30
0.0
 11
632.246430
 21
64.251264
 31
0.0
  0
LINE
  5
218
100
AcDbEntity
  8
Layer_1
 62
7
100
AcDbLine
 10
632.246430
 20
64.251264
 30
0.0
 11
632.246430
 21
57.505014
 31
0.0
  0
LINE
  5
219
100
AcDbEntity
  8
Layer_1
 62
7
100
AcDbLine
 10
632.246430
 20
57.505014
 30
0.0
 11
629.071430
 21
57.505014
 31
0.0
  0
LINE
  5
21a
100
AcDbEntity
  8
Layer_1
 62
7
100
AcDbLine
 10
629.071430
 20
57.505014
 30
0.0
 11
629.071430
 21
51.595014
 31
0.0
  0
LINE
  5
21b
100
AcDbEntity
  8
Layer_1
 62
7
100
AcDbLine
 10
629.071430
 20
51.595014
 30
0.0
 11
632.246430
 21
51.595014
 31
0.0
  0
LINE
  5
21c
100
AcDbEntity
  8
Layer_1
 62
7
100
AcDbLine
 10
632.246430
 20
51.595014
 30
0.0
 11
632.246430
 21
44.848764
 31
0.0
  0
LINE
  5
21d
100
AcDbEntity
  8
Layer_1
 62
7
100
AcDbLine
 10
632.246430
 20
44.848764
 30
0.0
 11
629.071430
 21
44.848764
 31
0.0
  0
LINE
  5
21e
100
AcDbEntity
  8
Layer_1
 62
7
100
AcDbLine
 10
629.071430
 20
44.848764
 30
0.0
 11
629.071430
 21
38.938764
 31
0.0
  0
LINE
  5
21f
100
AcDbEntity
  8
Layer_1
 62
7
100
AcDbLine
 10
629.071430
 20
38.938764
 30
0.0
 11
632.246430
 21
38.938764
 31
0.0
  0
LINE
  5
220
100
AcDbEntity
  8
Layer_1
 62
7
100
AcDbLine
 10
632.246430
 20
38.938764
 30
0.0
 11
632.246430
 21
32.192514
 31
0.0
  0
LINE
  5
221
100
AcDbEntity
  8
Layer_1
 62
7
100
AcDbLine
 10
632.246430
 20
32.192514
 30
0.0
 11
629.071430
 21
32.192514
 31
0.0
  0
LINE
  5
222
100
AcDbEntity
  8
Layer_1
 62
7
100
AcDbLine
 10
629.071430
 20
32.192514
 30
0.0
 11
629.071430
 21
26.282514
 31
0.0
  0
LINE
  5
223
100
AcDbEntity
  8
Layer_1
 62
7
100
AcDbLine
 10
629.071430
 20
26.282514
 30
0.0
 11
632.246430
 21
26.282514
 31
0.0
  0
LINE
  5
224
100
AcDbEntity
  8
Layer_1
 62
7
100
AcDbLine
 10
632.246430
 20
26.282514
 30
0.0
 11
632.246430
 21
19.536264
 31
0.0
  0
LINE
  5
225
100
AcDbEntity
  8
Layer_1
 62
7
100
AcDbLine
 10
632.246430
 20
19.536264
 30
0.0
 11
629.071430
 21
19.536264
 31
0.0
  0
LINE
  5
226
100
AcDbEntity
  8
Layer_1
 62
7
100
AcDbLine
 10
629.071430
 20
19.536264
 30
0.0
 11
629.071430
 21
13.626264
 31
0.0
  0
LINE
  5
227
100
AcDbEntity
  8
Layer_1
 62
7
100
AcDbLine
 10
629.071430
 20
13.626264
 30
0.0
 11
632.246430
 21
13.626264
 31
0.0
  0
LINE
  5
228
100
AcDbEntity
  8
Layer_1
 62
7
100
AcDbLine
 10
632.246430
 20
13.626264
 30
0.0
 11
632.246430
 21
10.100014
 31
0.0
  0
LINE
  5
229
100
AcDbEntity
  8
Layer_1
 62
7
100
AcDbLine
 10
632.246430
 20
10.100014
 30
0.0
 11
626.267260
 21
10.100014
 31
0.0
  0
LINE
  5
22a
100
AcDbEntity
  8
Layer_1
 62
7
100
AcDbLine
 10
626.267260
 20
10.100014
 30
0.0
 11
626.267260
 21
10.100014
 31
0.0
  0
LINE
  5
22b
100
AcDbEntity
  8
Layer_1
 62
7
100
AcDbLine
 10
626.267260
 20
10.100014
 30
0.0
 11
620.177260
 21
10.100014
 31
0.0
  0
LINE
  5
22c
100
AcDbEntity
  8
Layer_1
 62
7
100
AcDbLine
 10
620.177260
 20
10.100014
 30
0.0
 11
620.177260
 21
10.100014
 31
0.0
  0
LINE
  5
22d
100
AcDbEntity
  8
Layer_1
 62
7
100
AcDbLine
 10
620.177260
 20
10.100014
 30
0.0
 11
614.243090
 21
10.100014
 31
0.0
  0
LINE
  5
22e
100
AcDbEntity
  8
Layer_1
 62
7
100
AcDbLine
 10
614.243090
 20
10.100014
 30
0.0
 11
614.243090
 21
10.100014
 31
0.0
  0
LINE
  5
22f
100
AcDbEntity
  8
Layer_1
 62
7
100
AcDbLine
 10
614.243090
 20
10.100014
 30
0.0
 11
608.153090
 21
10.100014
 31
0.0
  0
LINE
  5
230
100
AcDbEntity
  8
Layer_1
 62
7
100
AcDbLine
 10
608.153090
 20
10.100014
 30
0.0
 11
608.153090
 21
10.100014
 31
0.0
  0
LINE
  5
231
100
AcDbEntity
  8
Layer_1
 62
7
100
AcDbLine
 10
608.153090
 20
10.100014
 30
0.0
 11
602.218930
 21
10.100014
 31
0.0
  0
LINE
  5
232
100
AcDbEntity
  8
Layer_1
 62
7
100
AcDbLine
 10
602.218930
 20
10.100014
 30
0.0
 11
602.218930
 21
10.100014
 31
0.0
  0
LINE
  5
233
100
AcDbEntity
  8
Layer_1
 62
7
100
AcDbLine
 10
602.218930
 20
10.100014
 30
0.0
 11
596.128930
 21
10.100014
 31
0.0
  0
LINE
  5
234
100
AcDbEntity
  8
Layer_1
 62
7
100
AcDbLine
 10
596.128930
 20
10.100014
 30
0.0
 11
596.128930
 21
10.100014
 31
0.0
  0
LINE
  5
235
100
AcDbEntity
  8
Layer_1
 62
7
100
AcDbLine
 10
596.128930
 20
10.100014
 30
0.0
 11
590.194760
 21
10.100014
 31
0.0
  0
LINE
  5
236
100
AcDbEntity
  8
Layer_1
 62
7
100
AcDbLine
 10
590.194760
 20
10.100014
 30
0.0
 11
590.194760
 21
10.100014
 31
0.0
  0
LINE
  5
237
100
AcDbEntity
  8
Layer_1
 62
7
100
AcDbLine
 10
590.194760
 20
10.100014
 30
0.0
 11
584.104760
 21
10.100014
 31
0.0
  0
LINE
  5
238
100
AcDbEntity
  8
Layer_1
 62
7
100
AcDbLine
 10
584.104760
 20
10.100014
 30
0.0
 11
584.104760
 21
10.100014
 31
0.0
  0
LINE
  5
239
100
AcDbEntity
  8
Layer_1
 62
7
100
AcDbLine
 10
584.104760
 20
10.100014
 30
0.0
 11
578.170600
 21
10.100014
 31
0.0
  0
LINE
  5
23a
100
AcDbEntity
  8
Layer_1
 62
7
100
AcDbLine
 10
578.170600
 20
10.100014
 30
0.0
 11
578.170600
 21
10.100014
 31
0.0
  0
LINE
  5
23b
100
AcDbEntity
  8
Layer_1
 62
7
100
AcDbLine
 10
578.170600
 20
10.100014
 30
0.0
 11
572.080600
 21
10.100014
 31
0.0
  0
LINE
  5
23c
100
AcDbEntity
  8
Layer_1
 62
7
100
AcDbLine
 10
572.080600
 20
10.100014
 30
0.0
 11
572.080600
 21
10.100014
 31
0.0
  0
LINE
  5
23d
100
AcDbEntity
  8
Layer_1
 62
7
100
AcDbLine
 10
572.080600
 20
10.100014
 30
0.0
 11
566.146430
 21
10.100014
 31
0.0
  0
LINE
  5
23e
100
AcDbEntity
  8
Layer_1
 62
7
100
AcDbLine
 10
566.146430
 20
10.100014
 30
0.0
 11
566.146430
 21
10.100014
 31
0.0
  0
LINE
  5
23f
100
AcDbEntity
  8
Layer_1
 62
7
100
AcDbLine
 10
566.146430
 20
10.100014
 30
0.0
 11
560.056430
 21
10.100014
 31
0.0
  0
LINE
  5
240
100
AcDbEntity
  8
Layer_1
 62
7
100
AcDbLine
 10
560.056430
 20
10.100014
 30
0.0
 11
560.056430
 21
10.100014
 31
0.0
  0
LINE
  5
241
100
AcDbEntity
  8
Layer_1
 62
7
100
AcDbLine
 10
560.056430
 20
10.100014
 30
0.0
 11
554.122260
 21
10.100014
 31
0.0
  0
LINE
  5
242
100
AcDbEntity
  8
Layer_1
 62
7
100
AcDbLine
 10
554.122260
 20
10.100014
 30
0.0
 11
554.122260
 21
10.100014
 31
0.0
  0
LINE
  5
243
100
AcDbEntity
  8
Layer_1
 62
7
100
AcDbLine
 10
554.122260
 20
10.100014
 30
0.0
 11
548.032260
 21
10.100014
 31
0.0
  0
LINE
  5
244
100
AcDbEntity
  8
Layer_1
 62
7
100
AcDbLine
 10
548.032260
 20
10.100014
 30
0.0
 11
548.032260
 21
10.100014
 31
0.0
  0
LINE
  5
245
100
AcDbEntity
  8
Layer_1
 62
7
100
AcDbLine
 10
548.032260
 20
10.100014
 30
0.0
 11
542.098100
 21
10.100014
 31
0.0
  0
LINE
  5
246
100
AcDbEntity
  8
Layer_1
 62
7
100
AcDbLine
 10
542.098100
 20
10.100014
 30
0.0
 11
542.098100
 21
10.100014
 31
0.0
  0
LINE
  5
247
100
AcDbEntity
  8
Layer_1
 62
7
100
AcDbLine
 10
542.098100
 20
10.100014
 30
0.0
 11
536.008100
 21
10.100014
 31
0.0
  0
LINE
  5
248
100
AcDbEntity
  8
Layer_1
 62
7
100
AcDbLine
 10
536.008100
 20
10.100014
 30
0.0
 11
536.008100
 21
10.100014
 31
0.0
  0
LINE
  5
249
100
AcDbEntity
  8
Layer_1
 62
7
100
AcDbLine
 10
536.008100
 20
10.100014
 30
0.0
 11
530.073930
 21
10.100014
 31
0.0
  0
LINE
  5
24a
100
AcDbEntity
  8
Layer_1
 62
7
100
AcDbLine
 10
530.073930
 20
10.100014
 30
0.0
 11
530.073930
 21
10.100014
 31
0.0
  0
LINE
  5
24b
100
AcDbEntity
  8
Layer_1
 62
7
100
AcDbLine
 10
530.073930
 20
10.100014
 30
0.0
 11
523.983930
 21
10.100014
 31
0.0
  0
LINE
  5
24c
100
AcDbEntity
  8
Layer_1
 62
7
100
AcDbLine
 10
523.983930
 20
10.100014
 30
0.0
 11
523.983930
 21
10.100014
 31
0.0
  0
LINE
  5
24d
100
AcDbEntity
  8
Layer_1
 62
7
100
AcDbLine
 10
523.983930
 20
10.100014
 30
0.0
 11
518.049770
 21
10.100014
 31
0.0
  0
LINE
  5
24e
100
AcDbEntity
  8
Layer_1
 62
7
100
AcDbLine
 10
518.049770
 20
10.100014
 30
0.0
 11
518.049770
 21
10.100014
 31
0.0
  0
LINE
  5
24f
100
AcDbEntity
  8
Layer_1
 62
7
100
AcDbLine
 10
518.049770
 20
10.100014
 30
0.0
 11
511.959770
 21
10.100014
 31
0.0
  0
LINE
  5
250
100
AcDbEntity
  8
Layer_1
 62
7
100
AcDbLine
 10
511.959770
 20
10.100014
 30
0.0
 11
511.959770
 21
10.100014
 31
0.0
  0
LINE
  5
251
100
AcDbEntity
  8
Layer_1
 62
7
100
AcDbLine
 10
511.959770
 20
10.100014
 30
0.0
 11
506.025600
 21
10.100014
 31
0.0
  0
LINE
  5
252
100
AcDbEntity
  8
Layer_1
 62
7
100
AcDbLine
 10
506.025600
 20
10.100014
 30
0.0
 11
506.025600
 21
10.100014
 31
0.0
  0
LINE
  5
253
100
AcDbEntity
  8
Layer_1
 62
7
100
AcDbLine
 10
506.025600
 20
10.100014
 30
0.0
 11
499.935600
 21
10.100014
 31
0.0
  0
LINE
  5
254
100
AcDbEntity
  8
Layer_1
 62
7
100
AcDbLine
 10
499.935600
 20
10.100014
 30
0.0
 11
499.935600
 21
10.100014
 31
0.0
  0
LINE
  5
255
100
AcDbEntity
  8
Layer_1
 62
7
100
AcDbLine
 10
499.935600
 20
10.100014
 30
0.0
 11
494.001430
 21
10.100014
 31
0.0
  0
LINE
  5
256
100
AcDbEntity
  8
Layer_1
 62
7
100
AcDbLine
 10
494.001430
 20
10.100014
 30
0.0
 11
494.001430
 21
10.100014
 31
0.0
  0
LINE
  5
257
100
AcDbEntity
  8
Layer_1
 62
7
100
AcDbLine
 10
494.001430
 20
10.100014
 30
0.0
 11
487.911430
 21
10.100014
 31
0.0
  0
LINE
  5
258
100
AcDbEntity
  8
Layer_1
 62
7
100
AcDbLine
 10
487.911430
 20
10.100014
 30
0.0
 11
487.911430
 21
10.100014
 31
0.0
  0
LINE
  5
259
100
AcDbEntity
  8
Layer_1
 62
7
100
AcDbLine
 10
487.911430
 20
10.100014
 30
0.0
 11
481.977270
 21
10.100014
 31
0.0
  0
LINE
  5
25a
100
AcDbEntity
  8
Layer_1
 62
7
100
AcDbLine
 10
481.977270
 20
10.100014
 30
0.0
 11
481.977270
 21
10.100014
 31
0.0
  0
LINE
  5
25b
100
AcDbEntity
  8
Layer_1
 62
7
100
AcDbLine
 10
481.977270
 20
10.100014
 30
0.0
 11
475.887270
 21
10.100014
 31
0.0
  0
LINE
  5
25c
100
AcDbEntity
  8
Layer_1
 62
7
100
AcDbLine
 10
475.887270
 20
10.100014
 30
0.0
 11
475.887270
 21
10.100014
 31
0.0
  0
LINE
  5
25d
100
AcDbEntity
  8
Layer_1
 62
7
100
AcDbLine
 10
475.887270
 20
10.100014
 30
0.0
 11
469.953100
 21
10.100014
 31
0.0
  0
LINE
  5
25e
100
AcDbEntity
  8
Layer_1
 62
7
100
AcDbLine
 10
469.953100
 20
10.100014
 30
0.0
 11
469.953100
 21
10.100014
 31
0.0
  0
LINE
  5
25f
100
AcDbEntity
  8
Layer_1
 62
7
100
AcDbLine
 10
469.953100
 20
10.100014
 30
0.0
 11
463.863100
 21
10.100014
 31
0.0
  0
LINE
  5
260
100
AcDbEntity
  8
Layer_1
 62
7
100
AcDbLine
 10
463.863100
 20
10.100014
 30
0.0
 11
463.863100
 21
10.100014
 31
0.0
  0
LINE
  5
261
100
AcDbEntity
  8
Layer_1
 62
7
100
AcDbLine
 10
463.863100
 20
10.100014
 30
0.0
 11
457.928936
 21
10.100014
 31
0.0
  0
LINE
  5
262
100
AcDbEntity
  8
Layer_1
 62
7
100
AcDbLine
 10
457.928936
 20
10.100014
 30
0.0
 11
457.928936
 21
10.100014
 31
0.0
  0
LINE
  5
263
100
AcDbEntity
  8
Layer_1
 62
7
100
AcDbLine
 10
457.928936
 20
10.100014
 30
0.0
 11
451.838939
 21
10.100014
 31
0.0
  0
LINE
  5
264
100
AcDbEntity
  8
Layer_1
 62
7
100
AcDbLine
 10
451.838939
 20
10.100014
 30
0.0
 11
451.838939
 21
10.100014
 31
0.0
  0
LINE
  5
265
100
AcDbEntity
  8
Layer_1
 62
7
100
AcDbLine
 10
451.838939
 20
10.100014
 30
0.0
 11
445.904782
 21
10.100014
 31
0.0
  0
LINE
  5
266
100
AcDbEntity
  8
Layer_1
 62
7
100
AcDbLine
 10
445.904782
 20
10.100014
 30
0.0
 11
445.904782
 21
10.100014
 31
0.0
  0
LINE
  5
267
100
AcDbEntity
  8
Layer_1
 62
7
100
AcDbLine
 10
445.904782
 20
10.100014
 30
0.0
 11
439.814785
 21
10.100014
 31
0.0
  0
LINE
  5
268
100
AcDbEntity
  8
Layer_1
 62
7
100
AcDbLine
 10
439.814785
 20
10.100014
 30
0.0
 11
439.814785
 21
10.100014
 31
0.0
  0
LINE
  5
269
100
AcDbEntity
  8
Layer_1
 62
7
100
AcDbLine
 10
439.814785
 20
10.100014
 30
0.0
 11
433.880618
 21
10.100014
 31
0.0
  0
LINE
  5
26a
100
AcDbEntity
  8
Layer_1
 62
7
100
AcDbLine
 10
433.880618
 20
10.100014
 30
0.0
 11
433.880618
 21
10.100014
 31
0.0
  0
LINE
  5
26b
100
AcDbEntity
  8
Layer_1
 62
7
100
AcDbLine
 10
433.880618
 20
10.100014
 30
0.0
 11
427.790621
 21
10.100014
 31
0.0
  0
LINE
  5
26c
100
AcDbEntity
  8
Layer_1
 62
7
100
AcDbLine
 10
427.790621
 20
10.100014
 30
0.0
 11
427.790621
 21
10.100014
 31
0.0
  0
LINE
  5
26d
100
AcDbEntity
  8
Layer_1
 62
7
100
AcDbLine
 10
427.790621
 20
10.100014
 30
0.0
 11
421.856464
 21
10.100014
 31
0.0
  0
LINE
  5
26e
100
AcDbEntity
  8
Layer_1
 62
7
100
AcDbLine
 10
421.856464
 20
10.100014
 30
0.0
 11
421.856464
 21
10.100014
 31
0.0
  0
LINE
  5
26f
100
AcDbEntity
  8
Layer_1
 62
7
100
AcDbLine
 10
421.856464
 20
10.100014
 30
0.0
 11
415.766470
 21
10.100014
 31
0.0
  0
LINE
  5
270
100
AcDbEntity
  8
Layer_1
 62
7
100
AcDbLine
 10
415.766470
 20
10.100014
 30
0.0
 11
415.766470
 21
10.100014
 31
0.0
  0
LINE
  5
271
100
AcDbEntity
  8
Layer_1
 62
7
100
AcDbLine
 10
415.766470
 20
10.100014
 30
0.0
 11
409.832303
 21
10.100014
 31
0.0
  0
LINE
  5
272
100
AcDbEntity
  8
Layer_1
 62
7
100
AcDbLine
 10
409.832303
 20
10.100014
 30
0.0
 11
409.832303
 21
10.100014
 31
0.0
  0
LINE
  5
273
100
AcDbEntity
  8
Layer_1
 62
7
100
AcDbLine
 10
409.832303
 20
10.100014
 30
0.0
 11
403.742306
 21
10.100014
 31
0.0
  0
LINE
  5
274
100
AcDbEntity
  8
Layer_1
 62
7
100
AcDbLine
 10
403.742306
 20
10.100014
 30
0.0
 11
403.742306
 21
10.100014
 31
0.0
  0
LINE
  5
275
100
AcDbEntity
  8
Layer_1
 62
7
100
AcDbLine
 10
403.742306
 20
10.100014
 30
0.0
 11
397.808139
 21
10.100014
 31
0.0
  0
LINE
  5
276
100
AcDbEntity
  8
Layer_1
 62
7
100
AcDbLine
 10
397.808139
 20
10.100014
 30
0.0
 11
397.808139
 21
10.100014
 31
0.0
  0
LINE
  5
277
100
AcDbEntity
  8
Layer_1
 62
7
100
AcDbLine
 10
397.808139
 20
10.100014
 30
0.0
 11
391.718142
 21
10.100014
 31
0.0
  0
LINE
  5
278
100
AcDbEntity
  8
Layer_1
 62
7
100
AcDbLine
 10
391.718142
 20
10.100014
 30
0.0
 11
391.718142
 21
10.100014
 31
0.0
  0
LINE
  5
279
100
AcDbEntity
  8
Layer_1
 62
7
100
AcDbLine
 10
391.718142
 20
10.100014
 30
0.0
 11
385.783985
 21
10.100014
 31
0.0
  0
LINE
  5
27a
100
AcDbEntity
  8
Layer_1
 62
7
100
AcDbLine
 10
385.783985
 20
10.100014
 30
0.0
 11
385.783985
 21
10.100014
 31
0.0
  0
LINE
  5
27b
100
AcDbEntity
  8
Layer_1
 62
7
100
AcDbLine
 10
385.783985
 20
10.100014
 30
0.0
 11
379.693988
 21
10.100014
 31
0.0
  0
LINE
  5
27c
100
AcDbEntity
  8
Layer_1
 62
7
100
AcDbLine
 10
379.693988
 20
10.100014
 30
0.0
 11
379.693988
 21
10.100014
 31
0.0
  0
LINE
  5
27d
100
AcDbEntity
  8
Layer_1
 62
7
100
AcDbLine
 10
379.693988
 20
10.100014
 30
0.0
 11
373.759821
 21
10.100014
 31
0.0
  0
LINE
  5
27e
100
AcDbEntity
  8
Layer_1
 62
7
100
AcDbLine
 10
373.759821
 20
10.100014
 30
0.0
 11
373.759821
 21
10.100014
 31
0.0
  0
LINE
  5
27f
100
AcDbEntity
  8
Layer_1
 62
7
100
AcDbLine
 10
373.759821
 20
10.100014
 30
0.0
 11
367.669828
 21
10.100014
 31
0.0
  0
LINE
  5
280
100
AcDbEntity
  8
Layer_1
 62
7
100
AcDbLine
 10
367.669828
 20
10.100014
 30
0.0
 11
367.669828
 21
10.100014
 31
0.0
  0
LINE
  5
281
100
AcDbEntity
  8
Layer_1
 62
7
100
AcDbLine
 10
367.669828
 20
10.100014
 30
0.0
 11
361.735671
 21
10.100014
 31
0.0
  0
LINE
  5
282
100
AcDbEntity
  8
Layer_1
 62
7
100
AcDbLine
 10
361.735671
 20
10.100014
 30
0.0
 11
361.735671
 21
10.100014
 31
0.0
  0
LINE
  5
283
100
AcDbEntity
  8
Layer_1
 62
7
100
AcDbLine
 10
361.735671
 20
10.100014
 30
0.0
 11
355.645674
 21
10.100014
 31
0.0
  0
LINE
  5
284
100
AcDbEntity
  8
Layer_1
 62
7
100
AcDbLine
 10
355.645674
 20
10.100014
 30
0.0
 11
355.645674
 21
10.100014
 31
0.0
  0
LINE
  5
285
100
AcDbEntity
  8
Layer_1
 62
7
100
AcDbLine
 10
355.645674
 20
10.100014
 30
0.0
 11
349.666505
 21
10.100014
 31
0.0
  0
LINE
  5
286
100
AcDbEntity
  8
Layer_1
 62
7
100
AcDbLine
 10
349.666505
 20
10.100014
 30
0.0
 11
349.666505
 21
13.626264
 31
0.0
  0
LINE
  5
287
100
AcDbEntity
  8
Layer_1
 62
7
100
AcDbLine
 10
349.666505
 20
13.626264
 30
0.0
 11
352.841504
 21
13.626264
 31
0.0
  0
LINE
  5
288
100
AcDbEntity
  8
Layer_1
 62
7
100
AcDbLine
 10
352.841504
 20
13.626264
 30
0.0
 11
352.841504
 21
19.536264
 31
0.0
  0
LINE
  5
289
100
AcDbEntity
  8
Layer_1
 62
7
100
AcDbLine
 10
352.841504
 20
19.536264
 30
0.0
 11
349.666505
 21
19.536264
 31
0.0
  0
LINE
  5
28a
100
AcDbEntity
  8
Layer_1
 62
7
100
AcDbLine
 10
349.666505
 20
19.536264
 30
0.0
 11
349.666505
 21
26.282514
 31
0.0
  0
LINE
  5
28b
100
AcDbEntity
  8
Layer_1
 62
7
100
AcDbLine
 10
349.666505
 20
26.282514
 30
0.0
 11
352.841504
 21
26.282514
 31
0.0
  0
LINE
  5
28c
100
AcDbEntity
  8
Layer_1
 62
7
100
AcDbLine
 10
352.841504
 20
26.282514
 30
0.0
 11
352.841504
 21
32.192514
 31
0.0
  0
LINE
  5
28d
100
AcDbEntity
  8
Layer_1
 62
7
100
AcDbLine
 10
352.841504
 20
32.192514
 30
0.0
 11
349.666505
 21
32.192514
 31
0.0
  0
LINE
  5
28e
100
AcDbEntity
  8
Layer_1
 62
7
100
AcDbLine
 10
349.666505
 20
32.192514
 30
0.0
 11
349.666505
 21
38.938764
 31
0.0
  0
LINE
  5
28f
100
AcDbEntity
  8
Layer_1
 62
7
100
AcDbLine
 10
349.666505
 20
38.938764
 30
0.0
 11
352.841504
 21
38.938764
 31
0.0
  0
LINE
  5
290
100
AcDbEntity
  8
Layer_1
 62
7
100
AcDbLine
 10
352.841504
 20
38.938764
 30
0.0
 11
352.841504
 21
44.848764
 31
0.0
  0
LINE
  5
291
100
AcDbEntity
  8
Layer_1
 62
7
100
AcDbLine
 10
352.841504
 20
44.848764
 30
0.0
 11
349.666505
 21
44.848764
 31
0.0
  0
LINE
  5
292
100
AcDbEntity
  8
Layer_1
 62
7
100
AcDbLine
 10
349.666505
 20
44.848764
 30
0.0
 11
349.666505
 21
51.595014
 31
0.0
  0
LINE
  5
293
100
AcDbEntity
  8
Layer_1
 62
7
100
AcDbLine
 10
349.666505
 20
51.595014
 30
0.0
 11
352.841504
 21
51.595014
 31
0.0
  0
LINE
  5
294
100
AcDbEntity
  8
Layer_1
 62
7
100
AcDbLine
 10
352.841504
 20
51.595014
 30
0.0
 11
352.841504
 21
57.505014
 31
0.0
  0
LINE
  5
295
100
AcDbEntity
  8
Layer_1
 62
7
100
AcDbLine
 10
352.841504
 20
57.505014
 30
0.0
 11
349.666505
 21
57.505014
 31
0.0
  0
LINE
  5
296
100
AcDbEntity
  8
Layer_1
 62
7
100
AcDbLine
 10
349.666505
 20
57.505014
 30
0.0
 11
349.666505
 21
64.251264
 31
0.0
  0
LINE
  5
297
100
AcDbEntity
  8
Layer_1
 62
7
100
AcDbLine
 10
349.666505
 20
64.251264
 30
0.0
 11
352.841504
 21
64.251264
 31
0.0
  0
LINE
  5
298
100
AcDbEntity
  8
Layer_1
 62
7
100
AcDbLine
 10
352.841504
 20
64.251264
 30
0.0
 11
352.841504
 21
70.161264
 31
0.0
  0
LINE
  5
299
100
AcDbEntity
  8
Layer_1
 62
7
100
AcDbLine
 10
352.841504
 20
70.161264
 30
0.0
 11
349.666505
 21
70.161264
 31
0.0
  0
LINE
  5
29a
100
AcDbEntity
  8
Layer_1
 62
7
100
AcDbLine
 10
349.666505
 20
70.161264
 30
0.0
 11
349.666505
 21
76.907514
 31
0.0
  0
LINE
  5
29b
100
AcDbEntity
  8
Layer_1
 62
7
100
AcDbLine
 10
349.666505
 20
76.907514
 30
0.0
 11
352.841504
 21
76.907514
 31
0.0
  0
LINE
  5
29c
100
AcDbEntity
  8
Layer_1
 62
7
100
AcDbLine
 10
352.841504
 20
76.907514
 30
0.0
 11
352.841504
 21
82.817514
 31
0.0
  0
LINE
  5
29d
100
AcDbEntity
  8
Layer_1
 62
7
100
AcDbLine
 10
352.841504
 20
82.817514
 30
0.0
 11
349.666505
 21
82.817514
 31
0.0
  0
LINE
  5
29e
100
AcDbEntity
  8
Layer_1
 62
7
100
AcDbLine
 10
349.666505
 20
82.817514
 30
0.0
 11
349.666505
 21
89.563764
 31
0.0
  0
LINE
  5
29f
100
AcDbEntity
  8
Layer_1
 62
7
100
AcDbLine
 10
349.666505
 20
89.563764
 30
0.0
 11
352.841504
 21
89.563764
 31
0.0
  0
LINE
  5
2a0
100
AcDbEntity
  8
Layer_1
 62
7
100
AcDbLine
 10
352.841504
 20
89.563764
 30
0.0
 11
352.841504
 21
95.473764
 31
0.0
  0
LINE
  5
2a1
100
AcDbEntity
  8
Layer_1
 62
7
100
AcDbLine
 10
352.841504
 20
95.473764
 30
0.0
 11
349.666505
 21
95.473764
 31
0.0
  0
LINE
  5
2a2
100
AcDbEntity
  8
Layer_1
 62
7
100
AcDbLine
 10
349.666505
 20
95.473764
 30
0.0
 11
349.666505
 21
99.000014
 31
0.0
  0
LINE
  5
2a3
100
AcDbEntity
  8
Layer_1
 62
7
100
AcDbLine
 10
496.981250
 20
187.900015
 30
0.0
 11
496.981250
 21
191.336252
 31
0.0
  0
LINE
  5
2a4
100
AcDbEntity
  8
Layer_1
 62
7
100
AcDbLine
 10
496.981250
 20
191.336252
 30
0.0
 11
493.806250
 21
191.336252
 31
0.0
  0
LINE
  5
2a5
100
AcDbEntity
  8
Layer_1
 62
7
100
AcDbLine
 10
493.806250
 20
191.336252
 30
0.0
 11
493.806250
 21
197.426249
 31
0.0
  0
LINE
  5
2a6
100
AcDbEntity
  8
Layer_1
 62
7
100
AcDbLine
 10
493.806250
 20
197.426249
 30
0.0
 11
496.981250
 21
197.426249
 31
0.0
  0
LINE
  5
2a7
100
AcDbEntity
  8
Layer_1
 62
7
100
AcDbLine
 10
496.981250
 20
197.426249
 30
0.0
 11
496.981250
 21
203.992496
 31
0.0
  0
LINE
  5
2a8
100
AcDbEntity
  8
Layer_1
 62
7
100
AcDbLine
 10
496.981250
 20
203.992496
 30
0.0
 11
493.806250
 21
203.992496
 31
0.0
  0
LINE
  5
2a9
100
AcDbEntity
  8
Layer_1
 62
7
100
AcDbLine
 10
493.806250
 20
203.992496
 30
0.0
 11
493.806250
 21
210.082493
 31
0.0
  0
LINE
  5
2aa
100
AcDbEntity
  8
Layer_1
 62
7
100
AcDbLine
 10
493.806250
 20
210.082493
 30
0.0
 11
496.981250
 21
210.082493
 31
0.0
  0
LINE
  5
2ab
100
AcDbEntity
  8
Layer_1
 62
7
100
AcDbLine
 10
496.981250
 20
210.082493
 30
0.0
 11
496.981250
 21
216.648737
 31
0.0
  0
LINE
  5
2ac
100
AcDbEntity
  8
Layer_1
 62
7
100
AcDbLine
 10
496.981250
 20
216.648737
 30
0.0
 11
493.806250
 21
216.648737
 31
0.0
  0
LINE
  5
2ad
100
AcDbEntity
  8
Layer_1
 62
7
100
AcDbLine
 10
493.806250
 20
216.648737
 30
0.0
 11
493.806250
 21
222.738734
 31
0.0
  0
LINE
  5
2ae
100
AcDbEntity
  8
Layer_1
 62
7
100
AcDbLine
 10
493.806250
 20
222.738734
 30
0.0
 11
496.981250
 21
222.738734
 31
0.0
  0
LINE
  5
2af
100
AcDbEntity
  8
Layer_1
 62
7
100
AcDbLine
 10
496.981250
 20
222.738734
 30
0.0
 11
496.981250
 21
229.304981
 31
0.0
  0
LINE
  5
2b0
100
AcDbEntity
  8
Layer_1
 62
7
100
AcDbLine
 10
496.981250
 20
229.304981
 30
0.0
 11
493.806250
 21
229.304981
 31
0.0
  0
LINE
  5
2b1
100
AcDbEntity
  8
Layer_1
 62
7
100
AcDbLine
 10
493.806250
 20
229.304981
 30
0.0
 11
493.806250
 21
235.394978
 31
0.0
  0
LINE
  5
2b2
100
AcDbEntity
  8
Layer_1
 62
7
100
AcDbLine
 10
493.806250
 20
235.394978
 30
0.0
 11
496.981250
 21
235.394978
 31
0.0
  0
LINE
  5
2b3
100
AcDbEntity
  8
Layer_1
 62
7
100
AcDbLine
 10
496.981250
 20
235.394978
 30
0.0
 11
496.981250
 21
241.961225
 31
0.0
  0
LINE
  5
2b4
100
AcDbEntity
  8
Layer_1
 62
7
100
AcDbLine
 10
496.981250
 20
241.961225
 30
0.0
 11
493.806250
 21
241.961225
 31
0.0
  0
LINE
  5
2b5
100
AcDbEntity
  8
Layer_1
 62
7
100
AcDbLine
 10
493.806250
 20
241.961225
 30
0.0
 11
493.806250
 21
248.051222
 31
0.0
  0
LINE
  5
2b6
100
AcDbEntity
  8
Layer_1
 62
7
100
AcDbLine
 10
493.806250
 20
248.051222
 30
0.0
 11
496.981250
 21
248.051222
 31
0.0
  0
LINE
  5
2b7
100
AcDbEntity
  8
Layer_1
 62
7
100
AcDbLine
 10
496.981250
 20
248.051222
 30
0.0
 11
496.981250
 21
254.617466
 31
0.0
  0
LINE
  5
2b8
100
AcDbEntity
  8
Layer_1
 62
7
100
AcDbLine
 10
496.981250
 20
254.617466
 30
0.0
 11
493.806250
 21
254.617466
 31
0.0
  0
LINE
  5
2b9
100
AcDbEntity
  8
Layer_1
 62
7
100
AcDbLine
 10
493.806250
 20
254.617466
 30
0.0
 11
493.806250
 21
260.707463
 31
0.0
  0
LINE
  5
2ba
100
AcDbEntity
  8
Layer_1
 62
7
100
AcDbLine
 10
493.806250
 20
260.707463
 30
0.0
 11
496.981250
 21
260.707463
 31
0.0
  0
LINE
  5
2bb
100
AcDbEntity
  8
Layer_1
 62
7
100
AcDbLine
 10
496.981250
 20
260.707463
 30
0.0
 11
496.981250
 21
267.273710
 31
0.0
  0
LINE
  5
2bc
100
AcDbEntity
  8
Layer_1
 62
7
100
AcDbLine
 10
496.981250
 20
267.273710
 30
0.0
 11
493.806250
 21
267.273710
 31
0.0
  0
LINE
  5
2bd
100
AcDbEntity
  8
Layer_1
 62
7
100
AcDbLine
 10
493.806250
 20
267.273710
 30
0.0
 11
493.806250
 21
273.363706
 31
0.0
  0
LINE
  5
2be
100
AcDbEntity
  8
Layer_1
 62
7
100
AcDbLine
 10
493.806250
 20
273.363706
 30
0.0
 11
496.981250
 21
273.363706
 31
0.0
  0
LINE
  5
2bf
100
AcDbEntity
  8
Layer_1
 62
7
100
AcDbLine
 10
496.981250
 20
273.363706
 30
0.0
 11
496.981250
 21
276.799953
 31
0.0
  0
LINE
  5
2c0
100
AcDbEntity
  8
Layer_1
 62
7
100
AcDbLine
 10
496.981250
 20
276.799953
 30
0.0
 11
500.429430
 21
276.799953
 31
0.0
  0
LINE
  5
2c1
100
AcDbEntity
  8
Layer_1
 62
7
100
AcDbLine
 10
500.429430
 20
276.799953
 30
0.0
 11
500.429430
 21
276.799953
 31
0.0
  0
LINE
  5
2c2
100
AcDbEntity
  8
Layer_1
 62
7
100
AcDbLine
 10
500.429430
 20
276.799953
 30
0.0
 11
506.519430
 21
276.799953
 31
0.0
  0
LINE
  5
2c3
100
AcDbEntity
  8
Layer_1
 62
7
100
AcDbLine
 10
506.519430
 20
276.799953
 30
0.0
 11
506.519430
 21
276.799953
 31
0.0
  0
LINE
  5
2c4
100
AcDbEntity
  8
Layer_1
 62
7
100
AcDbLine
 10
506.519430
 20
276.799953
 30
0.0
 11
513.097610
 21
276.799953
 31
0.0
  0
LINE
  5
2c5
100
AcDbEntity
  8
Layer_1
 62
7
100
AcDbLine
 10
513.097610
 20
276.799953
 30
0.0
 11
513.097610
 21
276.799953
 31
0.0
  0
LINE
  5
2c6
100
AcDbEntity
  8
Layer_1
 62
7
100
AcDbLine
 10
513.097610
 20
276.799953
 30
0.0
 11
519.187610
 21
276.799953
 31
0.0
  0
LINE
  5
2c7
100
AcDbEntity
  8
Layer_1
 62
7
100
AcDbLine
 10
519.187610
 20
276.799953
 30
0.0
 11
519.187610
 21
276.799953
 31
0.0
  0
LINE
  5
2c8
100
AcDbEntity
  8
Layer_1
 62
7
100
AcDbLine
 10
519.187610
 20
276.799953
 30
0.0
 11
525.765800
 21
276.799953
 31
0.0
  0
LINE
  5
2c9
100
AcDbEntity
  8
Layer_1
 62
7
100
AcDbLine
 10
525.765800
 20
276.799953
 30
0.0
 11
525.765800
 21
276.799953
 31
0.0
  0
LINE
  5
2ca
100
AcDbEntity
  8
Layer_1
 62
7
100
AcDbLine
 10
525.765800
 20
276.799953
 30
0.0
 11
531.855800
 21
276.799953
 31
0.0
  0
LINE
  5
2cb
100
AcDbEntity
  8
Layer_1
 62
7
100
AcDbLine
 10
531.855800
 20
276.799953
 30
0.0
 11
531.855800
 21
276.799953
 31
0.0
  0
LINE
  5
2cc
100
AcDbEntity
  8
Layer_1
 62
7
100
AcDbLine
 10
531.855800
 20
276.799953
 30
0.0
 11
538.433980
 21
276.799953
 31
0.0
  0
LINE
  5
2cd
100
AcDbEntity
  8
Layer_1
 62
7
100
AcDbLine
 10
538.433980
 20
276.799953
 30
0.0
 11
538.433980
 21
276.799953
 31
0.0
  0
LINE
  5
2ce
100
AcDbEntity
  8
Layer_1
 62
7
100
AcDbLine
 10
538.433980
 20
276.799953
 30
0.0
 11
544.523980
 21
276.799953
 31
0.0
  0
LINE
  5
2cf
100
AcDbEntity
  8
Layer_1
 62
7
100
AcDbLine
 10
544.523980
 20
276.799953
 30
0.0
 11
544.523980
 21
276.799953
 31
0.0
  0
LINE
  5
2d0
100
AcDbEntity
  8
Layer_1
 62
7
100
AcDbLine
 10
544.523980
 20
276.799953
 30
0.0
 11
551.102160
 21
276.799953
 31
0.0
  0
LINE
  5
2d1
100
AcDbEntity
  8
Layer_1
 62
7
100
AcDbLine
 10
551.102160
 20
276.799953
 30
0.0
 11
551.102160
 21
276.799953
 31
0.0
  0
LINE
  5
2d2
100
AcDbEntity
  8
Layer_1
 62
7
100
AcDbLine
 10
551.102160
 20
276.799953
 30
0.0
 11
557.192160
 21
276.799953
 31
0.0
  0
LINE
  5
2d3
100
AcDbEntity
  8
Layer_1
 62
7
100
AcDbLine
 10
557.192160
 20
276.799953
 30
0.0
 11
557.192160
 21
276.799953
 31
0.0
  0
LINE
  5
2d4
100
AcDbEntity
  8
Layer_1
 62
7
100
AcDbLine
 10
557.192160
 20
276.799953
 30
0.0
 11
563.770340
 21
276.799953
 31
0.0
  0
LINE
  5
2d5
100
AcDbEntity
  8
Layer_1
 62
7
100
AcDbLine
 10
563.770340
 20
276.799953
 30
0.0
 11
563.770340
 21
276.799953
 31
0.0
  0
LINE
  5
2d6
100
AcDbEntity
  8
Layer_1
 62
7
100
AcDbLine
 10
563.770340
 20
276.799953
 30
0.0
 11
569.860340
 21
276.799953
 31
0.0
  0
LINE
  5
2d7
100
AcDbEntity
  8
Layer_1
 62
7
100
AcDbLine
 10
569.860340
 20
276.799953
 30
0.0
 11
569.860340
 21
276.799953
 31
0.0
  0
LINE
  5
2d8
100
AcDbEntity
  8
Layer_1
 62
7
100
AcDbLine
 10
569.860340
 20
276.799953
 30
0.0
 11
576.438530
 21
276.799953
 31
0.0
  0
LINE
  5
2d9
100
AcDbEntity
  8
Layer_1
 62
7
100
AcDbLine
 10
576.438530
 20
276.799953
 30
0.0
 11
576.438530
 21
276.799953
 31
0.0
  0
LINE
  5
2da
100
AcDbEntity
  8
Layer_1
 62
7
100
AcDbLine
 10
576.438530
 20
276.799953
 30
0.0
 11
582.528530
 21
276.799953
 31
0.0
  0
LINE
  5
2db
100
AcDbEntity
  8
Layer_1
 62
7
100
AcDbLine
 10
582.528530
 20
276.799953
 30
0.0
 11
582.528530
 21
276.799953
 31
0.0
  0
LINE
  5
2dc
100
AcDbEntity
  8
Layer_1
 62
7
100
AcDbLine
 10
582.528530
 20
276.799953
 30
0.0
 11
589.106710
 21
276.799953
 31
0.0
  0
LINE
  5
2dd
100
AcDbEntity
  8
Layer_1
 62
7
100
AcDbLine
 10
589.106710
 20
276.799953
 30
0.0
 11
589.106710
 21
276.799953
 31
0.0
  0
LINE
  5
2de
100
AcDbEntity
  8
Layer_1
 62
7
100
AcDbLine
 10
589.106710
 20
276.799953
 30
0.0
 11
595.196710
 21
276.799953
 31
0.0
  0
LINE
  5
2df
100
AcDbEntity
  8
Layer_1
 62
7
100
AcDbLine
 10
595.196710
 20
276.799953
 30
0.0
 11
595.196710
 21
276.799953
 31
0.0
  0
LINE
  5
2e0
100
AcDbEntity
  8
Layer_1
 62
7
100
AcDbLine
 10
595.196710
 20
276.799953
 30
0.0
 11
601.774890
 21
276.799953
 31
0.0
  0
LINE
  5
2e1
100
AcDbEntity
  8
Layer_1
 62
7
100
AcDbLine
 10
601.774890
 20
276.799953
 30
0.0
 11
601.774890
 21
276.799953
 31
0.0
  0
LINE
  5
2e2
100
AcDbEntity
  8
Layer_1
 62
7
100
AcDbLine
 10
601.774890
 20
276.799953
 30
0.0
 11
607.864890
 21
276.799953
 31
0.0
  0
LINE
  5
2e3
100
AcDbEntity
  8
Layer_1
 62
7
100
AcDbLine
 10
607.864890
 20
276.799953
 30
0.0
 11
607.864890
 21
276.799953
 31
0.0
  0
LINE
  5
2e4
100
AcDbEntity
  8
Layer_1
 62
7
100
AcDbLine
 10
607.864890
 20
276.799953
 30
0.0
 11
614.443070
 21
276.799953
 31
0.0
  0
LINE
  5
2e5
100
AcDbEntity
  8
Layer_1
 62
7
100
AcDbLine
 10
614.443070
 20
276.799953
 30
0.0
 11
614.443070
 21
276.799953
 31
0.0
  0
LINE
  5
2e6
100
AcDbEntity
  8
Layer_1
 62
7
100
AcDbLine
 10
614.443070
 20
276.799953
 30
0.0
 11
620.533070
 21
276.799953
 31
0.0
  0
LINE
  5
2e7
100
AcDbEntity
  8
Layer_1
 62
7
100
AcDbLine
 10
620.533070
 20
276.799953
 30
0.0
 11
620.533070
 21
276.799953
 31
0.0
  0
LINE
  5
2e8
100
AcDbEntity
  8
Layer_1
 62
7
100
AcDbLine
 10
620.533070
 20
276.799953
 30
0.0
 11
623.981260
 21
276.799953
 31
0.0
  0
LINE
  5
2e9
100
AcDbEntity
  8
Layer_1
 62
7
100
AcDbLine
 10
623.981260
 20
276.799953
 30
0.0
 11
623.981260
 21
273.363706
 31
0.0
  0
LINE
  5
2ea
100
AcDbEntity
  8
Layer_1
 62
7
100
AcDbLine
 10
623.981260
 20
273.363706
 30
0.0
 11
627.156260
 21
273.363706
 31
0.0
  0
LINE
  5
2eb
100
AcDbEntity
  8
Layer_1
 62
7
100
AcDbLine
 10
627.156260
 20
273.363706
 30
0.0
 11
627.156260
 21
267.273710
 31
0.0
  0
LINE
  5
2ec
100
AcDbEntity
  8
Layer_1
 62
7
100
AcDbLine
 10
627.156260
 20
267.273710
 30
0.0
 11
623.981260
 21
267.273710
 31
0.0
  0
LINE
  5
2ed
100
AcDbEntity
  8
Layer_1
 62
7
100
AcDbLine
 10
623.981260
 20
267.273710
 30
0.0
 11
623.981260
 21
260.707463
 31
0.0
  0
LINE
  5
2ee
100
AcDbEntity
  8
Layer_1
 62
7
100
AcDbLine
 10
623.981260
 20
260.707463
 30
0.0
 11
627.156260
 21
260.707463
 31
0.0
  0
LINE
  5
2ef
100
AcDbEntity
  8
Layer_1
 62
7
100
AcDbLine
 10
627.156260
 20
260.707463
 30
0.0
 11
627.156260
 21
254.617466
 31
0.0
  0
LINE
  5
2f0
100
AcDbEntity
  8
Layer_1
 62
7
100
AcDbLine
 10
627.156260
 20
254.617466
 30
0.0
 11
623.981260
 21
254.617466
 31
0.0
  0
LINE
  5
2f1
100
AcDbEntity
  8
Layer_1
 62
7
100
AcDbLine
 10
623.981260
 20
254.617466
 30
0.0
 11
623.981260
 21
248.051222
 31
0.0
  0
LINE
  5
2f2
100
AcDbEntity
  8
Layer_1
 62
7
100
AcDbLine
 10
623.981260
 20
248.051222
 30
0.0
 11
627.156260
 21
248.051222
 31
0.0
  0
LINE
  5
2f3
100
AcDbEntity
  8
Layer_1
 62
7
100
AcDbLine
 10
627.156260
 20
248.051222
 30
0.0
 11
627.156260
 21
241.961225
 31
0.0
  0
LINE
  5
2f4
100
AcDbEntity
  8
Layer_1
 62
7
100
AcDbLine
 10
627.156260
 20
241.961225
 30
0.0
 11
623.981260
 21
241.961225
 31
0.0
  0
LINE
  5
2f5
100
AcDbEntity
  8
Layer_1
 62
7
100
AcDbLine
 10
623.981260
 20
241.961225
 30
0.0
 11
623.981260
 21
235.394978
 31
0.0
  0
LINE
  5
2f6
100
AcDbEntity
  8
Layer_1
 62
7
100
AcDbLine
 10
623.981260
 20
235.394978
 30
0.0
 11
627.156260
 21
235.394978
 31
0.0
  0
LINE
  5
2f7
100
AcDbEntity
  8
Layer_1
 62
7
100
AcDbLine
 10
627.156260
 20
235.394978
 30
0.0
 11
627.156260
 21
229.304981
 31
0.0
  0
LINE
  5
2f8
100
AcDbEntity
  8
Layer_1
 62
7
100
AcDbLine
 10
627.156260
 20
229.304981
 30
0.0
 11
623.981260
 21
229.304981
 31
0.0
  0
LINE
  5
2f9
100
AcDbEntity
  8
Layer_1
 62
7
100
AcDbLine
 10
623.981260
 20
229.304981
 30
0.0
 11
623.981260
 21
222.738734
 31
0.0
  0
LINE
  5
2fa
100
AcDbEntity
  8
Layer_1
 62
7
100
AcDbLine
 10
623.981260
 20
222.738734
 30
0.0
 11
627.156260
 21
222.738734
 31
0.0
  0
LINE
  5
2fb
100
AcDbEntity
  8
Layer_1
 62
7
100
AcDbLine
 10
627.156260
 20
222.738734
 30
0.0
 11
627.156260
 21
216.648737
 31
0.0
  0
LINE
  5
2fc
100
AcDbEntity
  8
Layer_1
 62
7
100
AcDbLine
 10
627.156260
 20
216.648737
 30
0.0
 11
623.981260
 21
216.648737
 31
0.0
  0
LINE
  5
2fd
100
AcDbEntity
  8
Layer_1
 62
7
100
AcDbLine
 10
623.981260
 20
216.648737
 30
0.0
 11
623.981260
 21
210.082493
 31
0.0
  0
LINE
  5
2fe
100
AcDbEntity
  8
Layer_1
 62
7
100
AcDbLine
 10
623.981260
 20
210.082493
 30
0.0
 11
627.156260
 21
210.082493
 31
0.0
  0
LINE
  5
2ff
100
AcDbEntity
  8
Layer_1
 62
7
100
AcDbLine
 10
627.156260
 20
210.082493
 30
0.0
 11
627.156260
 21
203.992496
 31
0.0
  0
LINE
  5
300
100
AcDbEntity
  8
Layer_1
 62
7
100
AcDbLine
 10
627.156260
 20
203.992496
 30
0.0
 11
623.981260
 21
203.992496
 31
0.0
  0
LINE
  5
301
100
AcDbEntity
  8
Layer_1
 62
7
100
AcDbLine
 10
623.981260
 20
203.992496
 30
0.0
 11
623.981260
 21
197.426249
 31
0.0
  0
LINE
  5
302
100
AcDbEntity
  8
Layer_1
 62
7
100
AcDbLine
 10
623.981260
 20
197.426249
 30
0.0
 11
627.156260
 21
197.426249
 31
0.0
  0
LINE
  5
303
100
AcDbEntity
  8
Layer_1
 62
7
100
AcDbLine
 10
627.156260
 20
197.426249
 30
0.0
 11
627.156260
 21
191.336252
 31
0.0
  0
LINE
  5
304
100
AcDbEntity
  8
Layer_1
 62
7
100
AcDbLine
 10
627.156260
 20
191.336252
 30
0.0
 11
623.981260
 21
191.336252
 31
0.0
  0
LINE
  5
305
100
AcDbEntity
  8
Layer_1
 62
7
100
AcDbLine
 10
623.981260
 20
191.336252
 30
0.0
 11
623.981260
 21
187.900005
 31
0.0
  0
LINE
  5
306
100
AcDbEntity
  8
Layer_1
 62
7
100
AcDbLine
 10
484.931620
 20
276.799953
 30
0.0
 11
484.931620
 21
273.363706
 31
0.0
  0
LINE
  5
307
100
AcDbEntity
  8
Layer_1
 62
7
100
AcDbLine
 10
484.931620
 20
273.363706
 30
0.0
 11
488.106620
 21
273.363706
 31
0.0
  0
LINE
  5
308
100
AcDbEntity
  8
Layer_1
 62
7
100
AcDbLine
 10
488.106620
 20
273.363706
 30
0.0
 11
488.106620
 21
267.273710
 31
0.0
  0
LINE
  5
309
100
AcDbEntity
  8
Layer_1
 62
7
100
AcDbLine
 10
488.106620
 20
267.273710
 30
0.0
 11
484.931620
 21
267.273710
 31
0.0
  0
LINE
  5
30a
100
AcDbEntity
  8
Layer_1
 62
7
100
AcDbLine
 10
484.931620
 20
267.273710
 30
0.0
 11
484.931620
 21
260.707463
 31
0.0
  0
LINE
  5
30b
100
AcDbEntity
  8
Layer_1
 62
7
100
AcDbLine
 10
484.931620
 20
260.707463
 30
0.0
 11
488.106620
 21
260.707463
 31
0.0
  0
LINE
  5
30c
100
AcDbEntity
  8
Layer_1
 62
7
100
AcDbLine
 10
488.106620
 20
260.707463
 30
0.0
 11
488.106620
 21
254.617466
 31
0.0
  0
LINE
  5
30d
100
AcDbEntity
  8
Layer_1
 62
7
100
AcDbLine
 10
488.106620
 20
254.617466
 30
0.0
 11
484.931620
 21
254.617466
 31
0.0
  0
LINE
  5
30e
100
AcDbEntity
  8
Layer_1
 62
7
100
AcDbLine
 10
484.931620
 20
254.617466
 30
0.0
 11
484.931620
 21
248.051222
 31
0.0
  0
LINE
  5
30f
100
AcDbEntity
  8
Layer_1
 62
7
100
AcDbLine
 10
484.931620
 20
248.051222
 30
0.0
 11
488.106620
 21
248.051222
 31
0.0
  0
LINE
  5
310
100
AcDbEntity
  8
Layer_1
 62
7
100
AcDbLine
 10
488.106620
 20
248.051222
 30
0.0
 11
488.106620
 21
241.961225
 31
0.0
  0
LINE
  5
311
100
AcDbEntity
  8
Layer_1
 62
7
100
AcDbLine
 10
488.106620
 20
241.961225
 30
0.0
 11
484.931620
 21
241.961225
 31
0.0
  0
LINE
  5
312
100
AcDbEntity
  8
Layer_1
 62
7
100
AcDbLine
 10
484.931620
 20
241.961225
 30
0.0
 11
484.931620
 21
235.394978
 31
0.0
  0
LINE
  5
313
100
AcDbEntity
  8
Layer_1
 62
7
100
AcDbLine
 10
484.931620
 20
235.394978
 30
0.0
 11
488.106620
 21
235.394978
 31
0.0
  0
LINE
  5
314
100
AcDbEntity
  8
Layer_1
 62
7
100
AcDbLine
 10
488.106620
 20
235.394978
 30
0.0
 11
488.106620
 21
229.304981
 31
0.0
  0
LINE
  5
315
100
AcDbEntity
  8
Layer_1
 62
7
100
AcDbLine
 10
488.106620
 20
229.304981
 30
0.0
 11
484.931620
 21
229.304981
 31
0.0
  0
LINE
  5
316
100
AcDbEntity
  8
Layer_1
 62
7
100
AcDbLine
 10
484.931620
 20
229.304981
 30
0.0
 11
484.931620
 21
222.738734
 31
0.0
  0
LINE
  5
317
100
AcDbEntity
  8
Layer_1
 62
7
100
AcDbLine
 10
484.931620
 20
222.738734
 30
0.0
 11
488.106620
 21
222.738734
 31
0.0
  0
LINE
  5
318
100
AcDbEntity
  8
Layer_1
 62
7
100
AcDbLine
 10
488.106620
 20
222.738734
 30
0.0
 11
488.106620
 21
216.648737
 31
0.0
  0
LINE
  5
319
100
AcDbEntity
  8
Layer_1
 62
7
100
AcDbLine
 10
488.106620
 20
216.648737
 30
0.0
 11
484.931620
 21
216.648737
 31
0.0
  0
LINE
  5
31a
100
AcDbEntity
  8
Layer_1
 62
7
100
AcDbLine
 10
484.931620
 20
216.648737
 30
0.0
 11
484.931620
 21
210.082493
 31
0.0
  0
LINE
  5
31b
100
AcDbEntity
  8
Layer_1
 62
7
100
AcDbLine
 10
484.931620
 20
210.082493
 30
0.0
 11
488.106620
 21
210.082493
 31
0.0
  0
LINE
  5
31c
100
AcDbEntity
  8
Layer_1
 62
7
100
AcDbLine
 10
488.106620
 20
210.082493
 30
0.0
 11
488.106620
 21
203.992496
 31
0.0
  0
LINE
  5
31d
100
AcDbEntity
  8
Layer_1
 62
7
100
AcDbLine
 10
488.106620
 20
203.992496
 30
0.0
 11
484.931620
 21
203.992496
 31
0.0
  0
LINE
  5
31e
100
AcDbEntity
  8
Layer_1
 62
7
100
AcDbLine
 10
484.931620
 20
203.992496
 30
0.0
 11
484.931620
 21
197.426249
 31
0.0
  0
LINE
  5
31f
100
AcDbEntity
  8
Layer_1
 62
7
100
AcDbLine
 10
484.931620
 20
197.426249
 30
0.0
 11
488.106620
 21
197.426249
 31
0.0
  0
LINE
  5
320
100
AcDbEntity
  8
Layer_1
 62
7
100
AcDbLine
 10
488.106620
 20
197.426249
 30
0.0
 11
488.106620
 21
191.336252
 31
0.0
  0
LINE
  5
321
100
AcDbEntity
  8
Layer_1
 62
7
100
AcDbLine
 10
488.106620
 20
191.336252
 30
0.0
 11
484.931620
 21
191.336252
 31
0.0
  0
LINE
  5
322
100
AcDbEntity
  8
Layer_1
 62
7
100
AcDbLine
 10
484.931620
 20
191.336252
 30
0.0
 11
484.931620
 21
187.900005
 31
0.0
  0
LINE
  5
323
100
AcDbEntity
  8
Layer_1
 62
7
100
AcDbLine
 10
357.931671
 20
187.900005
 30
0.0
 11
357.931671
 21
191.336252
 31
0.0
  0
LINE
  5
324
100
AcDbEntity
  8
Layer_1
 62
7
100
AcDbLine
 10
357.931671
 20
191.336252
 30
0.0
 11
354.756674
 21
191.336252
 31
0.0
  0
LINE
  5
325
100
AcDbEntity
  8
Layer_1
 62
7
100
AcDbLine
 10
354.756674
 20
191.336252
 30
0.0
 11
354.756674
 21
197.426249
 31
0.0
  0
LINE
  5
326
100
AcDbEntity
  8
Layer_1
 62
7
100
AcDbLine
 10
354.756674
 20
197.426249
 30
0.0
 11
357.931671
 21
197.426249
 31
0.0
  0
LINE
  5
327
100
AcDbEntity
  8
Layer_1
 62
7
100
AcDbLine
 10
357.931671
 20
197.426249
 30
0.0
 11
357.931671
 21
203.992496
 31
0.0
  0
LINE
  5
328
100
AcDbEntity
  8
Layer_1
 62
7
100
AcDbLine
 10
357.931671
 20
203.992496
 30
0.0
 11
354.756674
 21
203.992496
 31
0.0
  0
LINE
  5
329
100
AcDbEntity
  8
Layer_1
 62
7
100
AcDbLine
 10
354.756674
 20
203.992496
 30
0.0
 11
354.756674
 21
210.082493
 31
0.0
  0
LINE
  5
32a
100
AcDbEntity
  8
Layer_1
 62
7
100
AcDbLine
 10
354.756674
 20
210.082493
 30
0.0
 11
357.931671
 21
210.082493
 31
0.0
  0
LINE
  5
32b
100
AcDbEntity
  8
Layer_1
 62
7
100
AcDbLine
 10
357.931671
 20
210.082493
 30
0.0
 11
357.931671
 21
216.648737
 31
0.0
  0
LINE
  5
32c
100
AcDbEntity
  8
Layer_1
 62
7
100
AcDbLine
 10
357.931671
 20
216.648737
 30
0.0
 11
354.756674
 21
216.648737
 31
0.0
  0
LINE
  5
32d
100
AcDbEntity
  8
Layer_1
 62
7
100
AcDbLine
 10
354.756674
 20
216.648737
 30
0.0
 11
354.756674
 21
222.738734
 31
0.0
  0
LINE
  5
32e
100
AcDbEntity
  8
Layer_1
 62
7
100
AcDbLine
 10
354.756674
 20
222.738734
 30
0.0
 11
357.931671
 21
222.738734
 31
0.0
  0
LINE
  5
32f
100
AcDbEntity
  8
Layer_1
 62
7
100
AcDbLine
 10
357.931671
 20
222.738734
 30
0.0
 11
357.931671
 21
229.304981
 31
0.0
  0
LINE
  5
330
100
AcDbEntity
  8
Layer_1
 62
7
100
AcDbLine
 10
357.931671
 20
229.304981
 30
0.0
 11
354.756674
 21
229.304981
 31
0.0
  0
LINE
  5
331
100
AcDbEntity
  8
Layer_1
 62
7
100
AcDbLine
 10
354.756674
 20
229.304981
 30
0.0
 11
354.756674
 21
235.394978
 31
0.0
  0
LINE
  5
332
100
AcDbEntity
  8
Layer_1
 62
7
100
AcDbLine
 10
354.756674
 20
235.394978
 30
0.0
 11
357.931671
 21
235.394978
 31
0.0
  0
LINE
  5
333
100
AcDbEntity
  8
Layer_1
 62
7
100
AcDbLine
 10
357.931671
 20
235.394978
 30
0.0
 11
357.931671
 21
241.961225
 31
0.0
  0
LINE
  5
334
100
AcDbEntity
  8
Layer_1
 62
7
100
AcDbLine
 10
357.931671
 20
241.961225
 30
0.0
 11
354.756674
 21
241.961225
 31
0.0
  0
LINE
  5
335
100
AcDbEntity
  8
Layer_1
 62
7
100
AcDbLine
 10
354.756674
 20
241.961225
 30
0.0
 11
354.756674
 21
248.051222
 31
0.0
  0
LINE
  5
336
100
AcDbEntity
  8
Layer_1
 62
7
100
AcDbLine
 10
354.756674
 20
248.051222
 30
0.0
 11
357.931671
 21
248.051222
 31
0.0
  0
LINE
  5
337
100
AcDbEntity
  8
Layer_1
 62
7
100
AcDbLine
 10
357.931671
 20
248.051222
 30
0.0
 11
357.931671
 21
254.617466
 31
0.0
  0
LINE
  5
338
100
AcDbEntity
  8
Layer_1
 62
7
100
AcDbLine
 10
357.931671
 20
254.617466
 30
0.0
 11
354.756674
 21
254.617466
 31
0.0
  0
LINE
  5
339
100
AcDbEntity
  8
Layer_1
 62
7
100
AcDbLine
 10
354.756674
 20
254.617466
 30
0.0
 11
354.756674
 21
260.707463
 31
0.0
  0
LINE
  5
33a
100
AcDbEntity
  8
Layer_1
 62
7
100
AcDbLine
 10
354.756674
 20
260.707463
 30
0.0
 11
357.931671
 21
260.707463
 31
0.0
  0
LINE
  5
33b
100
AcDbEntity
  8
Layer_1
 62
7
100
AcDbLine
 10
357.931671
 20
260.707463
 30
0.0
 11
357.931671
 21
267.273710
 31
0.0
  0
LINE
  5
33c
100
AcDbEntity
  8
Layer_1
 62
7
100
AcDbLine
 10
357.931671
 20
267.273710
 30
0.0
 11
354.756674
 21
267.273710
 31
0.0
  0
LINE
  5
33d
100
AcDbEntity
  8
Layer_1
 62
7
100
AcDbLine
 10
354.756674
 20
267.273710
 30
0.0
 11
354.756674
 21
273.363706
 31
0.0
  0
LINE
  5
33e
100
AcDbEntity
  8
Layer_1
 62
7
100
AcDbLine
 10
354.756674
 20
273.363706
 30
0.0
 11
357.931671
 21
273.363706
 31
0.0
  0
LINE
  5
33f
100
AcDbEntity
  8
Layer_1
 62
7
100
AcDbLine
 10
357.931671
 20
273.363706
 30
0.0
 11
357.931671
 21
276.799953
 31
0.0
  0
LINE
  5
340
100
AcDbEntity
  8
Layer_1
 62
7
100
AcDbLine
 10
357.931671
 20
276.799953
 30
0.0
 11
361.379861
 21
276.799953
 31
0.0
  0
LINE
  5
341
100
AcDbEntity
  8
Layer_1
 62
7
100
AcDbLine
 10
361.379861
 20
276.799953
 30
0.0
 11
361.379861
 21
276.799953
 31
0.0
  0
LINE
  5
342
100
AcDbEntity
  8
Layer_1
 62
7
100
AcDbLine
 10
361.379861
 20
276.799953
 30
0.0
 11
367.469858
 21
276.799953
 31
0.0
  0
LINE
  5
343
100
AcDbEntity
  8
Layer_1
 62
7
100
AcDbLine
 10
367.469858
 20
276.799953
 30
0.0
 11
367.469858
 21
276.799953
 31
0.0
  0
LINE
  5
344
100
AcDbEntity
  8
Layer_1
 62
7
100
AcDbLine
 10
367.469858
 20
276.799953
 30
0.0
 11
374.048031
 21
276.799953
 31
0.0
  0
LINE
  5
345
100
AcDbEntity
  8
Layer_1
 62
7
100
AcDbLine
 10
374.048031
 20
276.799953
 30
0.0
 11
374.048031
 21
276.799953
 31
0.0
  0
LINE
  5
346
100
AcDbEntity
  8
Layer_1
 62
7
100
AcDbLine
 10
374.048031
 20
276.799953
 30
0.0
 11
380.138028
 21
276.799953
 31
0.0
  0
LINE
  5
347
100
AcDbEntity
  8
Layer_1
 62
7
100
AcDbLine
 10
380.138028
 20
276.799953
 30
0.0
 11
380.138028
 21
276.799953
 31
0.0
  0
LINE
  5
348
100
AcDbEntity
  8
Layer_1
 62
7
100
AcDbLine
 10
380.138028
 20
276.799953
 30
0.0
 11
386.716205
 21
276.799953
 31
0.0
  0
LINE
  5
349
100
AcDbEntity
  8
Layer_1
 62
7
100
AcDbLine
 10
386.716205
 20
276.799953
 30
0.0
 11
386.716205
 21
276.799953
 31
0.0
  0
LINE
  5
34a
100
AcDbEntity
  8
Layer_1
 62
7
100
AcDbLine
 10
386.716205
 20
276.799953
 30
0.0
 11
392.806202
 21
276.799953
 31
0.0
  0
LINE
  5
34b
100
AcDbEntity
  8
Layer_1
 62
7
100
AcDbLine
 10
392.806202
 20
276.799953
 30
0.0
 11
392.806202
 21
276.799953
 31
0.0
  0
LINE
  5
34c
100
AcDbEntity
  8
Layer_1
 62
7
100
AcDbLine
 10
392.806202
 20
276.799953
 30
0.0
 11
399.384379
 21
276.799953
 31
0.0
  0
LINE
  5
34d
100
AcDbEntity
  8
Layer_1
 62
7
100
AcDbLine
 10
399.384379
 20
276.799953
 30
0.0
 11
399.384379
 21
276.799953
 31
0.0
  0
LINE
  5
34e
100
AcDbEntity
  8
Layer_1
 62
7
100
AcDbLine
 10
399.384379
 20
276.799953
 30
0.0
 11
405.474373
 21
276.799953
 31
0.0
  0
LINE
  5
34f
100
AcDbEntity
  8
Layer_1
 62
7
100
AcDbLine
 10
405.474373
 20
276.799953
 30
0.0
 11
405.474373
 21
276.799953
 31
0.0
  0
LINE
  5
350
100
AcDbEntity
  8
Layer_1
 62
7
100
AcDbLine
 10
405.474373
 20
276.799953
 30
0.0
 11
412.052560
 21
276.799953
 31
0.0
  0
LINE
  5
351
100
AcDbEntity
  8
Layer_1
 62
7
100
AcDbLine
 10
412.052560
 20
276.799953
 30
0.0
 11
412.052560
 21
276.799953
 31
0.0
  0
LINE
  5
352
100
AcDbEntity
  8
Layer_1
 62
7
100
AcDbLine
 10
412.052560
 20
276.799953
 30
0.0
 11
418.142557
 21
276.799953
 31
0.0
  0
LINE
  5
353
100
AcDbEntity
  8
Layer_1
 62
7
100
AcDbLine
 10
418.142557
 20
276.799953
 30
0.0
 11
418.142557
 21
276.799953
 31
0.0
  0
LINE
  5
354
100
AcDbEntity
  8
Layer_1
 62
7
100
AcDbLine
 10
418.142557
 20
276.799953
 30
0.0
 11
424.720734
 21
276.799953
 31
0.0
  0
LINE
  5
355
100
AcDbEntity
  8
Layer_1
 62
7
100
AcDbLine
 10
424.720734
 20
276.799953
 30
0.0
 11
424.720734
 21
276.799953
 31
0.0
  0
LINE
  5
356
100
AcDbEntity
  8
Layer_1
 62
7
100
AcDbLine
 10
424.720734
 20
276.799953
 30
0.0
 11
430.810731
 21
276.799953
 31
0.0
  0
LINE
  5
357
100
AcDbEntity
  8
Layer_1
 62
7
100
AcDbLine
 10
430.810731
 20
276.799953
 30
0.0
 11
430.810731
 21
276.799953
 31
0.0
  0
LINE
  5
358
100
AcDbEntity
  8
Layer_1
 62
7
100
AcDbLine
 10
430.810731
 20
276.799953
 30
0.0
 11
437.388905
 21
276.799953
 31
0.0
  0
LINE
  5
359
100
AcDbEntity
  8
Layer_1
 62
7
100
AcDbLine
 10
437.388905
 20
276.799953
 30
0.0
 11
437.388905
 21
276.799953
 31
0.0
  0
LINE
  5
35a
100
AcDbEntity
  8
Layer_1
 62
7
100
AcDbLine
 10
437.388905
 20
276.799953
 30
0.0
 11
443.478902
 21
276.799953
 31
0.0
  0
LINE
  5
35b
100
AcDbEntity
  8
Layer_1
 62
7
100
AcDbLine
 10
443.478902
 20
276.799953
 30
0.0
 11
443.478902
 21
276.799953
 31
0.0
  0
LINE
  5
35c
100
AcDbEntity
  8
Layer_1
 62
7
100
AcDbLine
 10
443.478902
 20
276.799953
 30
0.0
 11
450.057079
 21
276.799953
 31
0.0
  0
LINE
  5
35d
100
AcDbEntity
  8
Layer_1
 62
7
100
AcDbLine
 10
450.057079
 20
276.799953
 30
0.0
 11
450.057079
 21
276.799953
 31
0.0
  0
LINE
  5
35e
100
AcDbEntity
  8
Layer_1
 62
7
100
AcDbLine
 10
450.057079
 20
276.799953
 30
0.0
 11
456.147076
 21
276.799953
 31
0.0
  0
LINE
  5
35f
100
AcDbEntity
  8
Layer_1
 62
7
100
AcDbLine
 10
456.147076
 20
276.799953
 30
0.0
 11
456.147076
 21
276.799953
 31
0.0
  0
LINE
  5
360
100
AcDbEntity
  8
Layer_1
 62
7
100
AcDbLine
 10
456.147076
 20
276.799953
 30
0.0
 11
462.725263
 21
276.799953
 31
0.0
  0
LINE
  5
361
100
AcDbEntity
  8
Layer_1
 62
7
100
AcDbLine
 10
462.725263
 20
276.799953
 30
0.0
 11
462.725263
 21
276.799953
 31
0.0
  0
LINE
  5
362
100
AcDbEntity
  8
Layer_1
 62
7
100
AcDbLine
 10
462.725263
 20
276.799953
 30
0.0
 11
468.815260
 21
276.799953
 31
0.0
  0
LINE
  5
363
100
AcDbEntity
  8
Layer_1
 62
7
100
AcDbLine
 10
468.815260
 20
276.799953
 30
0.0
 11
468.815260
 21
276.799953
 31
0.0
  0
LINE
  5
364
100
AcDbEntity
  8
Layer_1
 62
7
100
AcDbLine
 10
468.815260
 20
276.799953
 30
0.0
 11
475.393440
 21
276.799953
 31
0.0
  0
LINE
  5
365
100
AcDbEntity
  8
Layer_1
 62
7
100
AcDbLine
 10
475.393440
 20
276.799953
 30
0.0
 11
475.393440
 21
276.799953
 31
0.0
  0
LINE
  5
366
100
AcDbEntity
  8
Layer_1
 62
7
100
AcDbLine
 10
475.393440
 20
276.799953
 30
0.0
 11
481.483440
 21
276.799953
 31
0.0
  0
LINE
  5
367
100
AcDbEntity
  8
Layer_1
 62
7
100
AcDbLine
 10
481.483440
 20
276.799953
 30
0.0
 11
481.483440
 21
276.799953
 31
0.0
  0
LINE
  5
368
100
AcDbEntity
  8
Layer_1
 62
7
100
AcDbLine
 10
481.483440
 20
276.799953
 30
0.0
 11
484.931620
 21
276.799953
 31
0.0
  0
LINE
  5
369
100
AcDbEntity
  8
Layer_1
 62
7
100
AcDbLine
 10
389.681662
 20
257.749966
 30
0.0
 11
453.181616
 21
257.749966
 31
0.0
  0
SPLINE
  5
36a
100
AcDbEntity
  8
Layer_1
 62
7
100
AcDbSpline
 70
8
 71
3
 72
8
 73
4
 74
0
 40
0
 40
0
 40
0
 40
0
 40
1
 40
1
 40
1
 40
1
 10
453.181616
 20
257.749966
 30
0.0
 10
456.699516
 20
257.749966
 30
0.0
 10
459.531613
 20
254.917866
 30
0.0
 10
459.531613
 20
251.399969
 30
0.0
  0
LINE
  5
36b
100
AcDbEntity
  8
Layer_1
 62
7
100
AcDbLine
 10
459.531613
 20
251.399969
 30
0.0
 11
459.531613
 21
213.299990
 31
0.0
  0
SPLINE
  5
36c
100
AcDbEntity
  8
Layer_1
 62
7
100
AcDbSpline
 70
8
 71
3
 72
8
 73
4
 74
0
 40
0
 40
0
 40
0
 40
0
 40
1
 40
1
 40
1
 40
1
 10
459.531613
 20
213.299990
 30
0.0
 10
459.531613
 20
209.782093
 30
0.0
 10
456.699516
 20
206.949993
 30
0.0
 10
453.181616
 20
206.949993
 30
0.0
  0
LINE
  5
36d
100
AcDbEntity
  8
Layer_1
 62
7
100
AcDbLine
 10
453.181616
 20
206.949993
 30
0.0
 11
389.681662
 21
206.949993
 31
0.0
  0
SPLINE
  5
36e
100
AcDbEntity
  8
Layer_1
 62
7
100
AcDbSpline
 70
8
 71
3
 72
8
 73
4
 74
0
 40
0
 40
0
 40
0
 40
0
 40
1
 40
1
 40
1
 40
1
 10
389.681662
 20
206.949993
 30
0.0
 10
386.163765
 20
206.949993
 30
0.0
 10
383.331668
 20
209.782093
 30
0.0
 10
383.331668
 20
213.299990
 30
0.0
  0
LINE
  5
36f
100
AcDbEntity
  8
Layer_1
 62
7
100
AcDbLine
 10
383.331668
 20
213.299990
 30
0.0
 11
383.331668
 21
251.399969
 31
0.0
  0
SPLINE
  5
370
100
AcDbEntity
  8
Layer_1
 62
7
100
AcDbSpline
 70
8
 71
3
 72
8
 73
4
 74
0
 40
0
 40
0
 40
0
 40
0
 40
1
 40
1
 40
1
 40
1
 10
383.331668
 20
251.399969
 30
0.0
 10
383.331668
 20
254.917866
 30
0.0
 10
386.163765
 20
257.749966
 30
0.0
 10
389.681662
 20
257.749966
 30
0.0
  0
LINE
  5
371
100
AcDbEntity
  8
Layer_1
 62
7
100
AcDbLine
 10
389.681662
 20
257.749966
 30
0.0
 11
389.681662
 21
257.749966
 31
0.0
  0
SPLINE
  5
372
100
AcDbEntity
  8
Layer_1
 62
7
100
AcDbSpline
 70
8
 71
3
 72
8
 73
4
 74
0
 40
0
 40
0
 40
0
 40
0
 40
1
 40
1
 40
1
 40
1
 10
553.474384
 20
277.944744
 30
0.0
 10
553.474384
 20
276.429031
 30
0.0
 10
552.872269
 20
274.975397
 30
0.0
 10
551.800498
 20
273.903626
 30
0.0
  0
SPLINE
  5
373
100
AcDbEntity
  8
Layer_1
 62
7
100
AcDbSpline
 70
8
 71
3
 72
8
 73
4
 74
0
 40
0
 40
0
 40
0
 40
0
 40
1
 40
1
 40
1
 40
1
 10
551.800498
 20
273.903626
 30
0.0
 10
550.728727
 20
272.831855
 30
0.0
 10
549.275094
 20
272.229741
 30
0.0
 10
547.759381
 20
272.229742
 30
0.0
  0
SPLINE
  5
374
100
AcDbEntity
  8
Layer_1
 62
7
100
AcDbSpline
 70
8
 71
3
 72
8
 73
4
 74
0
 40
0
 40
0
 40
0
 40
0
 40
1
 40
1
 40
1
 40
1
 10
547.759381
 20
272.229742
 30
0.0
 10
546.243669
 20
272.229741
 30
0.0
 10
544.790036
 20
272.831856
 30
0.0
 10
543.718266
 20
273.903627
 30
0.0
  0
SPLINE
  5
375
100
AcDbEntity
  8
Layer_1
 62
7
100
AcDbSpline
 70
8
 71
3
 72
8
 73
4
 74
0
 40
0
 40
0
 40
0
 40
0
 40
1
 40
1
 40
1
 40
1
 10
543.718266
 20
273.903627
 30
0.0
 10
542.646496
 20
274.975398
 30
0.0
 10
542.044381
 20
276.429031
 30
0.0
 10
542.044381
 20
277.944744
 30
0.0
  0
SPLINE
  5
376
100
AcDbEntity
  8
Layer_1
 62
7
100
AcDbSpline
 70
8
 71
3
 72
8
 73
4
 74
0
 40
0
 40
0
 40
0
 40
0
 40
1
 40
1
 40
1
 40
1
 10
542.044381
 20
277.944744
 30
0.0
 10
542.044383
 20
281.101052
 30
0.0
 10
544.603075
 20
283.659744
 30
0.0
 10
547.759381
 20
283.659744
 30
0.0
  0
SPLINE
  5
377
100
AcDbEntity
  8
Layer_1
 62
7
100
AcDbSpline
 70
8
 71
3
 72
8
 73
4
 74
0
 40
0
 40
0
 40
0
 40
0
 40
1
 40
1
 40
1
 40
1
 10
547.759381
 20
283.659744
 30
0.0
 10
549.275094
 20
283.659745
 30
0.0
 10
550.728727
 20
283.057631
 30
0.0
 10
551.800497
 20
281.985860
 30
0.0
  0
SPLINE
  5
378
100
AcDbEntity
  8
Layer_1
 62
7
100
AcDbSpline
 70
8
 71
3
 72
8
 73
4
 74
0
 40
0
 40
0
 40
0
 40
0
 40
1
 40
1
 40
1
 40
1
 10
551.800497
 20
281.985860
 30
0.0
 10
552.872268
 20
280.914090
 30
0.0
 10
553.474383
 20
279.460457
 30
0.0
 10
553.474384
 20
277.944744
 30
0.0
  0
LINE
  5
379
100
AcDbEntity
  8
Layer_1
 62
7
100
AcDbLine
 10
553.474384
 20
277.944744
 30
0.0
 11
553.474384
 21
277.944744
 31
0.0
  0
SPLINE
  5
37a
100
AcDbEntity
  8
Layer_1
 62
7
100
AcDbSpline
 70
8
 71
3
 72
8
 73
4
 74
0
 40
0
 40
0
 40
0
 40
0
 40
1
 40
1
 40
1
 40
1
 10
578.923705
 20
277.944744
 30
0.0
 10
578.923705
 20
276.429031
 30
0.0
 10
578.321591
 20
274.975398
 30
0.0
 10
577.249821
 20
273.903627
 30
0.0
  0
SPLINE
  5
37b
100
AcDbEntity
  8
Layer_1
 62
7
100
AcDbSpline
 70
8
 71
3
 72
8
 73
4
 74
0
 40
0
 40
0
 40
0
 40
0
 40
1
 40
1
 40
1
 40
1
 10
577.249821
 20
273.903627
 30
0.0
 10
576.178050
 20
272.831857
 30
0.0
 10
574.724417
 20
272.229742
 30
0.0
 10
573.208705
 20
272.229742
 30
0.0
  0
SPLINE
  5
37c
100
AcDbEntity
  8
Layer_1
 62
7
100
AcDbSpline
 70
8
 71
3
 72
8
 73
4
 74
0
 40
0
 40
0
 40
0
 40
0
 40
1
 40
1
 40
1
 40
1
 10
573.208705
 20
272.229742
 30
0.0
 10
571.692992
 20
272.229742
 30
0.0
 10
570.239359
 20
272.831857
 30
0.0
 10
569.167589
 20
273.903627
 30
0.0
  0
SPLINE
  5
37d
100
AcDbEntity
  8
Layer_1
 62
7
100
AcDbSpline
 70
8
 71
3
 72
8
 73
4
 74
0
 40
0
 40
0
 40
0
 40
0
 40
1
 40
1
 40
1
 40
1
 10
569.167589
 20
273.903627
 30
0.0
 10
568.095818
 20
274.975398
 30
0.0
 10
567.493704
 20
276.429031
 30
0.0
 10
567.493705
 20
277.944744
 30
0.0
  0
SPLINE
  5
37e
100
AcDbEntity
  8
Layer_1
 62
7
100
AcDbSpline
 70
8
 71
3
 72
8
 73
4
 74
0
 40
0
 40
0
 40
0
 40
0
 40
1
 40
1
 40
1
 40
1
 10
567.493705
 20
277.944744
 30
0.0
 10
567.493705
 20
281.101051
 30
0.0
 10
570.052397
 20
283.659744
 30
0.0
 10
573.208705
 20
283.659744
 30
0.0
  0
SPLINE
  5
37f
100
AcDbEntity
  8
Layer_1
 62
7
100
AcDbSpline
 70
8
 71
3
 72
8
 73
4
 74
0
 40
0
 40
0
 40
0
 40
0
 40
1
 40
1
 40
1
 40
1
 10
573.208705
 20
283.659744
 30
0.0
 10
576.365012
 20
283.659744
 30
0.0
 10
578.923704
 20
281.101051
 30
0.0
 10
578.923705
 20
277.944744
 30
0.0
  0
LINE
  5
380
100
AcDbEntity
  8
Layer_1
 62
7
100
AcDbLine
 10
578.923705
 20
277.944744
 30
0.0
 11
578.923705
 21
277.944744
 31
0.0
  0
SPLINE
  5
381
100
AcDbEntity
  8
Layer_1
 62
7
100
AcDbSpline
 70
8
 71
3
 72
8
 73
4
 74
0
 40
0
 40
0
 40
0
 40
0
 40
1
 40
1
 40
1
 40
1
 10
599.515762
 20
262.877851
 30
0.0
 10
599.515763
 20
261.362138
 30
0.0
 10
598.913649
 20
259.908505
 30
0.0
 10
597.841878
 20
258.836734
 30
0.0
  0
SPLINE
  5
382
100
AcDbEntity
  8
Layer_1
 62
7
100
AcDbSpline
 70
8
 71
3
 72
8
 73
4
 74
0
 40
0
 40
0
 40
0
 40
0
 40
1
 40
1
 40
1
 40
1
 10
597.841878
 20
258.836734
 30
0.0
 10
596.770108
 20
257.764963
 30
0.0
 10
595.316475
 20
257.162848
 30
0.0
 10
593.800762
 20
257.162848
 30
0.0
  0
SPLINE
  5
383
100
AcDbEntity
  8
Layer_1
 62
7
100
AcDbSpline
 70
8
 71
3
 72
8
 73
4
 74
0
 40
0
 40
0
 40
0
 40
0
 40
1
 40
1
 40
1
 40
1
 10
593.800762
 20
257.162848
 30
0.0
 10
592.285050
 20
257.162848
 30
0.0
 10
590.831417
 20
257.764963
 30
0.0
 10
589.759646
 20
258.836734
 30
0.0
  0
SPLINE
  5
384
100
AcDbEntity
  8
Layer_1
 62
7
100
AcDbSpline
 70
8
 71
3
 72
8
 73
4
 74
0
 40
0
 40
0
 40
0
 40
0
 40
1
 40
1
 40
1
 40
1
 10
589.759646
 20
258.836734
 30
0.0
 10
588.687876
 20
259.908505
 30
0.0
 10
588.085762
 20
261.362138
 30
0.0
 10
588.085762
 20
262.877851
 30
0.0
  0
SPLINE
  5
385
100
AcDbEntity
  8
Layer_1
 62
7
100
AcDbSpline
 70
8
 71
3
 72
8
 73
4
 74
0
 40
0
 40
0
 40
0
 40
0
 40
1
 40
1
 40
1
 40
1
 10
588.085762
 20
262.877851
 30
0.0
 10
588.085763
 20
266.034158
 30
0.0
 10
590.644455
 20
268.592850
 30
0.0
 10
593.800762
 20
268.592851
 30
0.0
  0
SPLINE
  5
386
100
AcDbEntity
  8
Layer_1
 62
7
100
AcDbSpline
 70
8
 71
3
 72
8
 73
4
 74
0
 40
0
 40
0
 40
0
 40
0
 40
1
 40
1
 40
1
 40
1
 10
593.800762
 20
268.592851
 30
0.0
 10
596.957069
 20
268.592850
 30
0.0
 10
599.515762
 20
266.034158
 30
0.0
 10
599.515762
 20
262.877851
 30
0.0
  0
LINE
  5
387
100
AcDbEntity
  8
Layer_1
 62
7
100
AcDbLine
 10
599.515762
 20
262.877851
 30
0.0
 11
599.515762
 21
262.877851
 31
0.0
  0
SPLINE
  5
388
100
AcDbEntity
  8
Layer_1
 62
7
100
AcDbSpline
 70
8
 71
3
 72
8
 73
4
 74
0
 40
0
 40
0
 40
0
 40
0
 40
1
 40
1
 40
1
 40
1
 10
607.367325
 20
238.571276
 30
0.0
 10
607.367326
 20
237.055563
 30
0.0
 10
606.765212
 20
235.601930
 30
0.0
 10
605.693441
 20
234.530159
 30
0.0
  0
SPLINE
  5
389
100
AcDbEntity
  8
Layer_1
 62
7
100
AcDbSpline
 70
8
 71
3
 72
8
 73
4
 74
0
 40
0
 40
0
 40
0
 40
0
 40
1
 40
1
 40
1
 40
1
 10
605.693441
 20
234.530159
 30
0.0
 10
604.621671
 20
233.458388
 30
0.0
 10
603.168038
 20
232.856274
 30
0.0
 10
601.652325
 20
232.856273
 30
0.0
  0
SPLINE
  5
38a
100
AcDbEntity
  8
Layer_1
 62
7
100
AcDbSpline
 70
8
 71
3
 72
8
 73
4
 74
0
 40
0
 40
0
 40
0
 40
0
 40
1
 40
1
 40
1
 40
1
 10
601.652325
 20
232.856273
 30
0.0
 10
600.136613
 20
232.856274
 30
0.0
 10
598.682980
 20
233.458388
 30
0.0
 10
597.611210
 20
234.530159
 30
0.0
  0
SPLINE
  5
38b
100
AcDbEntity
  8
Layer_1
 62
7
100
AcDbSpline
 70
8
 71
3
 72
8
 73
4
 74
0
 40
0
 40
0
 40
0
 40
0
 40
1
 40
1
 40
1
 40
1
 10
597.611210
 20
234.530159
 30
0.0
 10
596.539439
 20
235.601930
 30
0.0
 10
595.937325
 20
237.055563
 30
0.0
 10
595.937325
 20
238.571276
 30
0.0
  0
SPLINE
  5
38c
100
AcDbEntity
  8
Layer_1
 62
7
100
AcDbSpline
 70
8
 71
3
 72
8
 73
4
 74
0
 40
0
 40
0
 40
0
 40
0
 40
1
 40
1
 40
1
 40
1
 10
595.937325
 20
238.571276
 30
0.0
 10
595.937326
 20
241.727583
 30
0.0
 10
598.496018
 20
244.286275
 30
0.0
 10
601.652325
 20
244.286276
 30
0.0
  0
SPLINE
  5
38d
100
AcDbEntity
  8
Layer_1
 62
7
100
AcDbSpline
 70
8
 71
3
 72
8
 73
4
 74
0
 40
0
 40
0
 40
0
 40
0
 40
1
 40
1
 40
1
 40
1
 10
601.652325
 20
244.286276
 30
0.0
 10
604.808633
 20
244.286275
 30
0.0
 10
607.367325
 20
241.727583
 30
0.0
 10
607.367325
 20
238.571276
 30
0.0
  0
LINE
  5
38e
100
AcDbEntity
  8
Layer_1
 62
7
100
AcDbLine
 10
607.367325
 20
238.571276
 30
0.0
 11
607.367325
 21
238.571276
 31
0.0
  0
SPLINE
  5
38f
100
AcDbEntity
  8
Layer_1
 62
7
100
AcDbSpline
 70
8
 71
3
 72
8
 73
4
 74
0
 40
0
 40
0
 40
0
 40
0
 40
1
 40
1
 40
1
 40
1
 10
599.515762
 20
214.227252
 30
0.0
 10
599.515763
 20
212.711539
 30
0.0
 10
598.913649
 20
211.257906
 30
0.0
 10
597.841878
 20
210.186135
 30
0.0
  0
SPLINE
  5
390
100
AcDbEntity
  8
Layer_1
 62
7
100
AcDbSpline
 70
8
 71
3
 72
8
 73
4
 74
0
 40
0
 40
0
 40
0
 40
0
 40
1
 40
1
 40
1
 40
1
 10
597.841878
 20
210.186135
 30
0.0
 10
596.770108
 20
209.114365
 30
0.0
 10
595.316475
 20
208.512250
 30
0.0
 10
593.800762
 20
208.512250
 30
0.0
  0
SPLINE
  5
391
100
AcDbEntity
  8
Layer_1
 62
7
100
AcDbSpline
 70
8
 71
3
 72
8
 73
4
 74
0
 40
0
 40
0
 40
0
 40
0
 40
1
 40
1
 40
1
 40
1
 10
593.800762
 20
208.512250
 30
0.0
 10
592.285050
 20
208.512250
 30
0.0
 10
590.831417
 20
209.114365
 30
0.0
 10
589.759646
 20
210.186135
 30
0.0
  0
SPLINE
  5
392
100
AcDbEntity
  8
Layer_1
 62
7
100
AcDbSpline
 70
8
 71
3
 72
8
 73
4
 74
0
 40
0
 40
0
 40
0
 40
0
 40
1
 40
1
 40
1
 40
1
 10
589.759646
 20
210.186135
 30
0.0
 10
588.687876
 20
211.257906
 30
0.0
 10
588.085762
 20
212.711539
 30
0.0
 10
588.085762
 20
214.227252
 30
0.0
  0
SPLINE
  5
393
100
AcDbEntity
  8
Layer_1
 62
7
100
AcDbSpline
 70
8
 71
3
 72
8
 73
4
 74
0
 40
0
 40
0
 40
0
 40
0
 40
1
 40
1
 40
1
 40
1
 10
588.085762
 20
214.227252
 30
0.0
 10
588.085763
 20
217.383559
 30
0.0
 10
590.644455
 20
219.942252
 30
0.0
 10
593.800762
 20
219.942252
 30
0.0
  0
SPLINE
  5
394
100
AcDbEntity
  8
Layer_1
 62
7
100
AcDbSpline
 70
8
 71
3
 72
8
 73
4
 74
0
 40
0
 40
0
 40
0
 40
0
 40
1
 40
1
 40
1
 40
1
 10
593.800762
 20
219.942252
 30
0.0
 10
596.957069
 20
219.942252
 30
0.0
 10
599.515762
 20
217.383559
 30
0.0
 10
599.515762
 20
214.227252
 30
0.0
  0
LINE
  5
395
100
AcDbEntity
  8
Layer_1
 62
7
100
AcDbLine
 10
599.515762
 20
214.227252
 30
0.0
 11
599.515762
 21
214.227252
 31
0.0
  0
SPLINE
  5
396
100
AcDbEntity
  8
Layer_1
 62
7
100
AcDbSpline
 70
8
 71
3
 72
8
 73
4
 74
0
 40
0
 40
0
 40
0
 40
0
 40
1
 40
1
 40
1
 40
1
 10
578.923705
 20
199.226536
 30
0.0
 10
578.923705
 20
196.070229
 30
0.0
 10
576.365012
 20
193.511537
 30
0.0
 10
573.208705
 20
193.511536
 30
0.0
  0
SPLINE
  5
397
100
AcDbEntity
  8
Layer_1
 62
7
100
AcDbSpline
 70
8
 71
3
 72
8
 73
4
 74
0
 40
0
 40
0
 40
0
 40
0
 40
1
 40
1
 40
1
 40
1
 10
573.208705
 20
193.511536
 30
0.0
 10
570.052397
 20
193.511537
 30
0.0
 10
567.493704
 20
196.070229
 30
0.0
 10
567.493705
 20
199.226536
 30
0.0
  0
SPLINE
  5
398
100
AcDbEntity
  8
Layer_1
 62
7
100
AcDbSpline
 70
8
 71
3
 72
8
 73
4
 74
0
 40
0
 40
0
 40
0
 40
0
 40
1
 40
1
 40
1
 40
1
 10
567.493705
 20
199.226536
 30
0.0
 10
567.493704
 20
202.382843
 30
0.0
 10
570.052397
 20
204.941536
 30
0.0
 10
573.208705
 20
204.941536
 30
0.0
  0
SPLINE
  5
399
100
AcDbEntity
  8
Layer_1
 62
7
100
AcDbSpline
 70
8
 71
3
 72
8
 73
4
 74
0
 40
0
 40
0
 40
0
 40
0
 40
1
 40
1
 40
1
 40
1
 10
573.208705
 20
204.941536
 30
0.0
 10
576.365012
 20
204.941536
 30
0.0
 10
578.923705
 20
202.382843
 30
0.0
 10
578.923705
 20
199.226536
 30
0.0
  0
LINE
  5
39a
100
AcDbEntity
  8
Layer_1
 62
7
100
AcDbLine
 10
578.923705
 20
199.226536
 30
0.0
 11
578.923705
 21
199.226536
 31
0.0
  0
SPLINE
  5
39b
100
AcDbEntity
  8
Layer_1
 62
7
100
AcDbSpline
 70
8
 71
3
 72
8
 73
4
 74
0
 40
0
 40
0
 40
0
 40
0
 40
1
 40
1
 40
1
 40
1
 10
553.467462
 20
199.226536
 30
0.0
 10
553.467463
 20
196.070229
 30
0.0
 10
550.908770
 20
193.511537
 30
0.0
 10
547.752462
 20
193.511536
 30
0.0
  0
SPLINE
  5
39c
100
AcDbEntity
  8
Layer_1
 62
7
100
AcDbSpline
 70
8
 71
3
 72
8
 73
4
 74
0
 40
0
 40
0
 40
0
 40
0
 40
1
 40
1
 40
1
 40
1
 10
547.752462
 20
193.511536
 30
0.0
 10
544.596155
 20
193.511537
 30
0.0
 10
542.037462
 20
196.070229
 30
0.0
 10
542.037463
 20
199.226536
 30
0.0
  0
SPLINE
  5
39d
100
AcDbEntity
  8
Layer_1
 62
7
100
AcDbSpline
 70
8
 71
3
 72
8
 73
4
 74
0
 40
0
 40
0
 40
0
 40
0
 40
1
 40
1
 40
1
 40
1
 10
542.037463
 20
199.226536
 30
0.0
 10
542.037462
 20
202.382843
 30
0.0
 10
544.596155
 20
204.941536
 30
0.0
 10
547.752462
 20
204.941536
 30
0.0
  0
SPLINE
  5
39e
100
AcDbEntity
  8
Layer_1
 62
7
100
AcDbSpline
 70
8
 71
3
 72
8
 73
4
 74
0
 40
0
 40
0
 40
0
 40
0
 40
1
 40
1
 40
1
 40
1
 10
547.752462
 20
204.941536
 30
0.0
 10
550.908770
 20
204.941536
 30
0.0
 10
553.467463
 20
202.382843
 30
0.0
 10
553.467462
 20
199.226536
 30
0.0
  0
LINE
  5
39f
100
AcDbEntity
  8
Layer_1
 62
7
100
AcDbLine
 10
553.467462
 20
199.226536
 30
0.0
 11
553.467462
 21
199.226536
 31
0.0
  0
SPLINE
  5
3a0
100
AcDbEntity
  8
Layer_1
 62
7
100
AcDbSpline
 70
8
 71
3
 72
8
 73
4
 74
0
 40
0
 40
0
 40
0
 40
0
 40
1
 40
1
 40
1
 40
1
 10
532.860853
 20
214.227252
 30
0.0
 10
532.860853
 20
212.711539
 30
0.0
 10
532.258739
 20
211.257906
 30
0.0
 10
531.186969
 20
210.186135
 30
0.0
  0
SPLINE
  5
3a1
100
AcDbEntity
  8
Layer_1
 62
7
100
AcDbSpline
 70
8
 71
3
 72
8
 73
4
 74
0
 40
0
 40
0
 40
0
 40
0
 40
1
 40
1
 40
1
 40
1
 10
531.186969
 20
210.186135
 30
0.0
 10
530.115198
 20
209.114364
 30
0.0
 10
528.661565
 20
208.512249
 30
0.0
 10
527.145853
 20
208.512250
 30
0.0
  0
SPLINE
  5
3a2
100
AcDbEntity
  8
Layer_1
 62
7
100
AcDbSpline
 70
8
 71
3
 72
8
 73
4
 74
0
 40
0
 40
0
 40
0
 40
0
 40
1
 40
1
 40
1
 40
1
 10
527.145853
 20
208.512250
 30
0.0
 10
525.630140
 20
208.512249
 30
0.0
 10
524.176506
 20
209.114363
 30
0.0
 10
523.104735
 20
210.186134
 30
0.0
  0
SPLINE
  5
3a3
100
AcDbEntity
  8
Layer_1
 62
7
100
AcDbSpline
 70
8
 71
3
 72
8
 73
4
 74
0
 40
0
 40
0
 40
0
 40
0
 40
1
 40
1
 40
1
 40
1
 10
523.104735
 20
210.186134
 30
0.0
 10
522.032964
 20
211.257905
 30
0.0
 10
521.430850
 20
212.711539
 30
0.0
 10
521.430850
 20
214.227252
 30
0.0
  0
SPLINE
  5
3a4
100
AcDbEntity
  8
Layer_1
 62
7
100
AcDbSpline
 70
8
 71
3
 72
8
 73
4
 74
0
 40
0
 40
0
 40
0
 40
0
 40
1
 40
1
 40
1
 40
1
 10
521.430850
 20
214.227252
 30
0.0
 10
521.430850
 20
215.742965
 30
0.0
 10
522.032965
 20
217.196598
 30
0.0
 10
523.104736
 20
218.268368
 30
0.0
  0
SPLINE
  5
3a5
100
AcDbEntity
  8
Layer_1
 62
7
100
AcDbSpline
 70
8
 71
3
 72
8
 73
4
 74
0
 40
0
 40
0
 40
0
 40
0
 40
1
 40
1
 40
1
 40
1
 10
523.104736
 20
218.268368
 30
0.0
 10
524.176507
 20
219.340139
 30
0.0
 10
525.630140
 20
219.942253
 30
0.0
 10
527.145853
 20
219.942252
 30
0.0
  0
SPLINE
  5
3a6
100
AcDbEntity
  8
Layer_1
 62
7
100
AcDbSpline
 70
8
 71
3
 72
8
 73
4
 74
0
 40
0
 40
0
 40
0
 40
0
 40
1
 40
1
 40
1
 40
1
 10
527.145853
 20
219.942252
 30
0.0
 10
530.302160
 20
219.942252
 30
0.0
 10
532.860852
 20
217.383560
 30
0.0
 10
532.860853
 20
214.227252
 30
0.0
  0
LINE
  5
3a7
100
AcDbEntity
  8
Layer_1
 62
7
100
AcDbLine
 10
532.860853
 20
214.227252
 30
0.0
 11
532.860853
 21
214.227252
 31
0.0
  0
SPLINE
  5
3a8
100
AcDbEntity
  8
Layer_1
 62
7
100
AcDbSpline
 70
8
 71
3
 72
8
 73
4
 74
0
 40
0
 40
0
 40
0
 40
0
 40
1
 40
1
 40
1
 40
1
 10
525.022950
 20
238.571276
 30
0.0
 10
525.022950
 20
237.055563
 30
0.0
 10
524.420836
 20
235.601930
 30
0.0
 10
523.349066
 20
234.530159
 30
0.0
  0
SPLINE
  5
3a9
100
AcDbEntity
  8
Layer_1
 62
7
100
AcDbSpline
 70
8
 71
3
 72
8
 73
4
 74
0
 40
0
 40
0
 40
0
 40
0
 40
1
 40
1
 40
1
 40
1
 10
523.349066
 20
234.530159
 30
0.0
 10
522.277295
 20
233.458388
 30
0.0
 10
520.823663
 20
232.856273
 30
0.0
 10
519.307950
 20
232.856273
 30
0.0
  0
SPLINE
  5
3aa
100
AcDbEntity
  8
Layer_1
 62
7
100
AcDbSpline
 70
8
 71
3
 72
8
 73
4
 74
0
 40
0
 40
0
 40
0
 40
0
 40
1
 40
1
 40
1
 40
1
 10
519.307950
 20
232.856273
 30
0.0
 10
517.792237
 20
232.856273
 30
0.0
 10
516.338604
 20
233.458388
 30
0.0
 10
515.266834
 20
234.530159
 30
0.0
  0
SPLINE
  5
3ab
100
AcDbEntity
  8
Layer_1
 62
7
100
AcDbSpline
 70
8
 71
3
 72
8
 73
4
 74
0
 40
0
 40
0
 40
0
 40
0
 40
1
 40
1
 40
1
 40
1
 10
515.266834
 20
234.530159
 30
0.0
 10
514.195063
 20
235.601930
 30
0.0
 10
513.592949
 20
237.055563
 30
0.0
 10
513.592950
 20
238.571276
 30
0.0
  0
SPLINE
  5
3ac
100
AcDbEntity
  8
Layer_1
 62
7
100
AcDbSpline
 70
8
 71
3
 72
8
 73
4
 74
0
 40
0
 40
0
 40
0
 40
0
 40
1
 40
1
 40
1
 40
1
 10
513.592950
 20
238.571276
 30
0.0
 10
513.592950
 20
241.727583
 30
0.0
 10
516.151643
 20
244.286276
 30
0.0
 10
519.307950
 20
244.286276
 30
0.0
  0
SPLINE
  5
3ad
100
AcDbEntity
  8
Layer_1
 62
7
100
AcDbSpline
 70
8
 71
3
 72
8
 73
4
 74
0
 40
0
 40
0
 40
0
 40
0
 40
1
 40
1
 40
1
 40
1
 10
519.307950
 20
244.286276
 30
0.0
 10
522.464257
 20
244.286276
 30
0.0
 10
525.022950
 20
241.727583
 30
0.0
 10
525.022950
 20
238.571276
 30
0.0
  0
LINE
  5
3ae
100
AcDbEntity
  8
Layer_1
 62
7
100
AcDbLine
 10
525.022950
 20
238.571276
 30
0.0
 11
525.022950
 21
238.571276
 31
0.0
  0
SPLINE
  5
3af
100
AcDbEntity
  8
Layer_1
 62
7
100
AcDbSpline
 70
8
 71
3
 72
8
 73
4
 74
0
 40
0
 40
0
 40
0
 40
0
 40
1
 40
1
 40
1
 40
1
 10
532.860853
 20
262.877851
 30
0.0
 10
532.860853
 20
261.362138
 30
0.0
 10
532.258739
 20
259.908504
 30
0.0
 10
531.186969
 20
258.836733
 30
0.0
  0
SPLINE
  5
3b0
100
AcDbEntity
  8
Layer_1
 62
7
100
AcDbSpline
 70
8
 71
3
 72
8
 73
4
 74
0
 40
0
 40
0
 40
0
 40
0
 40
1
 40
1
 40
1
 40
1
 10
531.186969
 20
258.836733
 30
0.0
 10
530.115198
 20
257.764962
 30
0.0
 10
528.661565
 20
257.162848
 30
0.0
 10
527.145853
 20
257.162848
 30
0.0
  0
SPLINE
  5
3b1
100
AcDbEntity
  8
Layer_1
 62
7
100
AcDbSpline
 70
8
 71
3
 72
8
 73
4
 74
0
 40
0
 40
0
 40
0
 40
0
 40
1
 40
1
 40
1
 40
1
 10
527.145853
 20
257.162848
 30
0.0
 10
525.630140
 20
257.162847
 30
0.0
 10
524.176506
 20
257.764961
 30
0.0
 10
523.104735
 20
258.836733
 30
0.0
  0
SPLINE
  5
3b2
100
AcDbEntity
  8
Layer_1
 62
7
100
AcDbSpline
 70
8
 71
3
 72
8
 73
4
 74
0
 40
0
 40
0
 40
0
 40
0
 40
1
 40
1
 40
1
 40
1
 10
523.104735
 20
258.836733
 30
0.0
 10
522.032964
 20
259.908504
 30
0.0
 10
521.430850
 20
261.362137
 30
0.0
 10
521.430850
 20
262.877851
 30
0.0
  0
SPLINE
  5
3b3
100
AcDbEntity
  8
Layer_1
 62
7
100
AcDbSpline
 70
8
 71
3
 72
8
 73
4
 74
0
 40
0
 40
0
 40
0
 40
0
 40
1
 40
1
 40
1
 40
1
 10
521.430850
 20
262.877851
 30
0.0
 10
521.430850
 20
264.393563
 30
0.0
 10
522.032965
 20
265.847197
 30
0.0
 10
523.104736
 20
266.918967
 30
0.0
  0
SPLINE
  5
3b4
100
AcDbEntity
  8
Layer_1
 62
7
100
AcDbSpline
 70
8
 71
3
 72
8
 73
4
 74
0
 40
0
 40
0
 40
0
 40
0
 40
1
 40
1
 40
1
 40
1
 10
523.104736
 20
266.918967
 30
0.0
 10
524.176507
 20
267.990737
 30
0.0
 10
525.630140
 20
268.592851
 30
0.0
 10
527.145853
 20
268.592851
 30
0.0
  0
SPLINE
  5
3b5
100
AcDbEntity
  8
Layer_1
 62
7
100
AcDbSpline
 70
8
 71
3
 72
8
 73
4
 74
0
 40
0
 40
0
 40
0
 40
0
 40
1
 40
1
 40
1
 40
1
 10
527.145853
 20
268.592851
 30
0.0
 10
530.302160
 20
268.592851
 30
0.0
 10
532.860852
 20
266.034158
 30
0.0
 10
532.860853
 20
262.877851
 30
0.0
  0
LINE
  5
3b6
100
AcDbEntity
  8
Layer_1
 62
7
100
AcDbLine
 10
532.860853
 20
262.877851
 30
0.0
 11
532.860853
 21
262.877851
 31
0.0
  0
SPLINE
  5
3b7
100
AcDbEntity
  8
Layer_1
 62
7
100
AcDbSpline
 70
8
 71
3
 72
8
 73
4
 74
0
 40
0
 40
0
 40
0
 40
0
 40
1
 40
1
 40
1
 40
1
 10
578.922848
 20
238.585648
 30
0.0
 10
578.922848
 20
228.400636
 30
0.0
 10
570.666264
 20
220.144052
 30
0.0
 10
560.481252
 20
220.144052
 30
0.0
  0
SPLINE
  5
3b8
100
AcDbEntity
  8
Layer_1
 62
7
100
AcDbSpline
 70
8
 71
3
 72
8
 73
4
 74
0
 40
0
 40
0
 40
0
 40
0
 40
1
 40
1
 40
1
 40
1
 10
560.481252
 20
220.144052
 30
0.0
 10
550.296239
 20
220.144052
 30
0.0
 10
542.039655
 20
228.400636
 30
0.0
 10
542.039655
 20
238.585648
 30
0.0
  0
SPLINE
  5
3b9
100
AcDbEntity
  8
Layer_1
 62
7
100
AcDbSpline
 70
8
 71
3
 72
8
 73
4
 74
0
 40
0
 40
0
 40
0
 40
0
 40
1
 40
1
 40
1
 40
1
 10
542.039655
 20
238.585648
 30
0.0
 10
542.039655
 20
245.174196
 30
0.0
 10
545.554604
 20
251.262265
 30
0.0
 10
551.260453
 20
254.556539
 30
0.0
  0
SPLINE
  5
3ba
100
AcDbEntity
  8
Layer_1
 62
7
100
AcDbSpline
 70
8
 71
3
 72
8
 73
4
 74
0
 40
0
 40
0
 40
0
 40
0
 40
1
 40
1
 40
1
 40
1
 10
551.260453
 20
254.556539
 30
0.0
 10
556.966303
 20
257.850813
 30
0.0
 10
563.996200
 20
257.850813
 30
0.0
 10
569.702050
 20
254.556539
 30
0.0
  0
SPLINE
  5
3bb
100
AcDbEntity
  8
Layer_1
 62
7
100
AcDbSpline
 70
8
 71
3
 72
8
 73
4
 74
0
 40
0
 40
0
 40
0
 40
0
 40
1
 40
1
 40
1
 40
1
 10
569.702050
 20
254.556539
 30
0.0
 10
575.407900
 20
251.262265
 30
0.0
 10
578.922848
 20
245.174196
 30
0.0
 10
578.922848
 20
238.585648
 30
0.0
  0
LINE
  5
3bc
100
AcDbEntity
  8
Layer_1
 62
7
100
AcDbLine
 10
578.922848
 20
238.585648
 30
0.0
 11
578.922848
 21
238.585648
 31
0.0
  0
ENDSEC
  0
SECTION
  2
OBJECTS
  0
DICTIONARY
  5
C
330
0
100
AcDbDictionary
  3
ACAD_GROUP
350
D
  3
ACAD_MLINESTYLE
350
17
  0
DICTIONARY
  5
D
330
C
100
AcDbDictionary
  0
DICTIONARY
  5
1A
330
C
100
AcDbDictionary
  0
DICTIONARY
  5
17
330
C
100
AcDbDictionary
  3
STANDARD
350
18
  0
DICTIONARY
  5
19
330
C
100
AcDbDictionary
  0
ENDSEC
  0
EOF
