  0
SECTION
  2
HEADER
  9
$ACADVER
  1
AC1014
  9
$HANDSEED
  5
FFFF
  9
$MEASUREMENT
 70
     1
  0
ENDSEC
  0
SECTION
  2
TABLES
  0
TABLE
  2
VPORT
  5
8
330
0
100
AcDbSymbolTable
 70
     4
  0
VPORT
  5
2E
330
8
100
AcDbSymbolTableRecord
100
AcDbViewportTableRecord
  2
*ACTIVE
 70
     0
 10
0.0
 20
0.0
 11
1.0
 21
1.0
 12
210.0
 22
148.5
 13
0.0
 23
0.0
 14
10.0
 24
10.0
 15
10.0
 25
10.0
 16
0.0
 26
0.0
 36
1.0
 17
0.0
 27
0.0
 37
0.0
 40
341.0
 41
1.24
 42
50.0
 43
0.0
 44
0.0
 50
0.0
 51
0.0
 71
     0
 72
   100
 73
     1
 74
     3
 75
     0
 76
     0
 77
     0
 78
     0
  0
ENDTAB
  0
TABLE
  2
LTYPE
  5
5
330
0
100
AcDbSymbolTable
 70
     1
  0
LTYPE
  5
14
330
5
100
AcDbSymbolTableRecord
100
AcDbLinetypeTableRecord
  2
BYBLOCK
 70
     0
  3

 72
    65
 73
     0
 40
0.0
  0
LTYPE
  5
15
330
5
100
AcDbSymbolTableRecord
100
AcDbLinetypeTableRecord
  2
BYLAYER
 70
     0
  3

 72
    65
 73
     0
 40
0.0
  0
LTYPE
  5
16
330
5
100
AcDbSymbolTableRecord
100
AcDbLinetypeTableRecord
  2
CONTINUOUS
 70
     0
  3
Solid line
 72
    65
 73
     0
 40
0.0
  0
ENDTAB
  0
TABLE
  2
LAYER
  5
2
100
AcDbSymbolTable
 70
3
  0
LAYER
  5
50
100
AcDbSymbolTableRecord
100
AcDbLayerTableRecord
  2
0
 70
0
  6
CONTINUOUS
  0
LAYER
  5
51
100
AcDbSymbolTableRecord
100
AcDbLayerTableRecord
  2
Image
 70
0
  6
CONTINUOUS
  0
LAYER
  5
52
100
AcDbSymbolTableRecord
100
AcDbLayerTableRecord
  2
Outline
 70
0
  6
CONTINUOUS
  0
ENDTAB
  0
TABLE
  2
STYLE
  5
3
330
0
100
AcDbSymbolTable
 70
     1
  0
STYLE
  5
11
330
3
100
AcDbSymbolTableRecord
100
AcDbTextStyleTableRecord
  2
STANDARD
 70
     0
 40
0.0
 41
1.0
 50
0.0
 71
     0
 42
2.5
  3
txt
  4

  0
ENDTAB
  0
TABLE
  2
VIEW
  5
6
330
0
100
AcDbSymbolTable
 70
     0
  0
ENDTAB
  0
TABLE
  2
UCS
  5
7
330
0
100
AcDbSymbolTable
 70
     0
  0
ENDTAB
  0
TABLE
  2
APPID
  5
9
330
0
100
AcDbSymbolTable
 70
     2
  0
APPID
  5
12
330
9
100
AcDbSymbolTableRecord
100
AcDbRegAppTableRecord
  2
ACAD
 70
     0
  0
ENDTAB
  0
TABLE
  2
DIMSTYLE
  5
A
330
0
100
AcDbSymbolTable
 70
     1
  0
DIMSTYLE
105
27
330
A
100
AcDbSymbolTableRecord
100
AcDbDimStyleTableRecord
  2
ISO-25
 70
     0
  3

  4

  5

  6

  7

 40
1.0
 41
2.5
 42
0.625
 43
3.75
 44
1.25
 45
0.0
 46
0.0
 47
0.0
 48
0.0
140
2.5
141
2.5
142
0.0
143
0.03937007874016
144
1.0
145
0.0
146
1.0
147
0.625
 71
     0
 72
     0
 73
     0
 74
     0
 75
     0
 76
     0
 77
     1
 78
     8
170
     0
171
     3
172
     1
173
     0
174
     0
175
     0
176
     0
177
     0
178
     0
270
     2
271
     2
272
     2
273
     2
274
     3
340
11
275
     0
280
     0
281
     0
282
     0
283
     0
284
     8
285
     0
286
     0
287
     3
288
     0
  0
ENDTAB
  0
TABLE
  2
BLOCK_RECORD
  5
1
330
0
100
AcDbSymbolTable
 70
     1
  0
BLOCK_RECORD
  5
1F
330
1
100
AcDbSymbolTableRecord
100
AcDbBlockTableRecord
  2
*MODEL_SPACE
  0
BLOCK_RECORD
  5
1B
330
1
100
AcDbSymbolTableRecord
100
AcDbBlockTableRecord
  2
*PAPER_SPACE
  0
ENDTAB
  0
ENDSEC
  0
SECTION
  2
BLOCKS
  0
BLOCK
  5
20
330
1F
100
AcDbEntity
  8
0
100
AcDbBlockBegin
  2
*MODEL_SPACE
 70
     0
 10
0.0
 20
0.0
 30
0.0
  3
*MODEL_SPACE
  1

  0
ENDBLK
  5
21
330
1F
100
AcDbEntity
  8
0
100
AcDbBlockEnd
  0
BLOCK
  5
1C
330
1B
100
AcDbEntity
 67
     1
  8
0
100
AcDbBlockBegin
  2
*PAPER_SPACE
  1

  0
ENDBLK
  5
1D
330
1B
100
AcDbEntity
 67
     1
  8
0
100
AcDbBlockEnd
  0
ENDSEC
  0
SECTION
  2
ENTITIES
  0
LINE
  5
100
100
AcDbEntity
  8
Outline
 62
7
100
AcDbLine
 10
11.727394
 20
45.524858
 30
0.0
 11
13.622069
 21
34.013656
 31
0.0
  0
SPLINE
  5
101
100
AcDbEntity
  8
Outline
 62
7
100
AcDbSpline
 70
8
 71
3
 72
8
 73
4
 74
0
 40
0
 40
0
 40
0
 40
0
 40
1
 40
1
 40
1
 40
1
 10
13.622069
 20
34.013656
 30
0.0
 10
13.903045
 20
33.372202
 30
0.0
 10
14.274251
 20
33.091669
 30
0.0
 10
14.646575
 20
32.815612
 30
0.0
  0
SPLINE
  5
102
100
AcDbEntity
  8
Outline
 62
7
100
AcDbSpline
 70
8
 71
3
 72
8
 73
4
 74
0
 40
0
 40
0
 40
0
 40
0
 40
1
 40
1
 40
1
 40
1
 10
14.646575
 20
32.815612
 30
0.0
 10
14.646575
 20
32.815612
 30
0.0
 10
15.553044
 20
32.417922
 30
0.0
 10
16.034458
 20
32.320370
 30
0.0
  0
SPLINE
  5
103
100
AcDbEntity
  8
Outline
 62
7
100
AcDbSpline
 70
8
 71
3
 72
8
 73
4
 74
0
 40
0
 40
0
 40
0
 40
0
 40
1
 40
1
 40
1
 40
1
 10
16.034458
 20
32.320370
 30
0.0
 10
16.585897
 20
32.208629
 30
0.0
 10
17.189572
 20
32.286603
 30
0.0
 10
17.732039
 20
32.137270
 30
0.0
  0
SPLINE
  5
104
100
AcDbEntity
  8
Outline
 62
7
100
AcDbSpline
 70
8
 71
3
 72
8
 73
4
 74
0
 40
0
 40
0
 40
0
 40
0
 40
1
 40
1
 40
1
 40
1
 10
17.732039
 20
32.137270
 30
0.0
 10
18.217234
 20
32.003703
 30
0.0
 10
18.696403
 20
31.856960
 30
0.0
 10
19.058661
 20
31.526657
 30
0.0
  0
SPLINE
  5
105
100
AcDbEntity
  8
Outline
 62
7
100
AcDbSpline
 70
8
 71
3
 72
8
 73
4
 74
0
 40
0
 40
0
 40
0
 40
0
 40
1
 40
1
 40
1
 40
1
 10
19.058661
 20
31.526657
 30
0.0
 10
19.406401
 20
31.209591
 30
0.0
 10
19.829919
 20
30.048204
 30
0.0
 10
19.833488
 20
29.530224
 30
0.0
  0
LINE
  5
106
100
AcDbEntity
  8
Outline
 62
7
100
AcDbLine
 10
19.833488
 20
29.530224
 30
0.0
 11
19.973706
 21
9.175652
 31
0.0
  0
SPLINE
  5
107
100
AcDbEntity
  8
Outline
 62
7
100
AcDbSpline
 70
8
 71
3
 72
8
 73
4
 74
0
 40
0
 40
0
 40
0
 40
0
 40
1
 40
1
 40
1
 40
1
 10
19.973706
 20
9.175652
 30
0.0
 10
20.088303
 20
8.604519
 30
0.0
 10
20.631075
 20
7.840362
 30
0.0
 10
21.107879
 20
7.796079
 30
0.0
  0
LINE
  5
108
100
AcDbEntity
  8
Outline
 62
7
100
AcDbLine
 10
21.107879
 20
7.796079
 30
0.0
 11
24.212777
 21
7.881843
 31
0.0
  0
SPLINE
  5
109
100
AcDbEntity
  8
Outline
 62
7
100
AcDbSpline
 70
8
 71
3
 72
8
 73
4
 74
0
 40
0
 40
0
 40
0
 40
0
 40
1
 40
1
 40
1
 40
1
 10
24.212777
 20
7.881843
 30
0.0
 10
24.967877
 20
8.108637
 30
0.0
 10
25.049890
 20
9.034967
 30
0.0
 10
25.091846
 20
9.385983
 30
0.0
  0
LINE
  5
10a
100
AcDbEntity
  8
Outline
 62
7
100
AcDbLine
 10
25.091846
 20
9.385983
 30
0.0
 11
25.264994
 21
29.455861
 31
0.0
  0
SPLINE
  5
10b
100
AcDbEntity
  8
Outline
 62
7
100
AcDbSpline
 70
8
 71
3
 72
8
 73
4
 74
0
 40
0
 40
0
 40
0
 40
0
 40
1
 40
1
 40
1
 40
1
 10
25.264994
 20
29.455861
 30
0.0
 10
25.244703
 20
29.758803
 30
0.0
 10
25.595004
 20
31.087859
 30
0.0
 10
26.209376
 20
31.391213
 30
0.0
  0
LINE
  5
10c
100
AcDbEntity
  8
Outline
 62
7
100
AcDbLine
 10
26.209376
 20
31.391213
 30
0.0
 11
27.359951
 21
31.943525
 31
0.0
  0
LINE
  5
10d
100
AcDbEntity
  8
Outline
 62
7
100
AcDbLine
 10
27.359951
 20
31.943525
 30
0.0
 11
28.770040
 21
32.124337
 31
0.0
  0
SPLINE
  5
10e
100
AcDbEntity
  8
Outline
 62
7
100
AcDbSpline
 70
8
 71
3
 72
8
 73
4
 74
0
 40
0
 40
0
 40
0
 40
0
 40
1
 40
1
 40
1
 40
1
 10
28.770040
 20
32.124337
 30
0.0
 10
29.144697
 20
32.193944
 30
0.0
 10
29.597961
 20
32.215751
 30
0.0
 10
29.882281
 20
32.420863
 30
0.0
  0
LINE
  5
10f
100
AcDbEntity
  8
Outline
 62
7
100
AcDbLine
 10
29.882281
 20
32.420863
 30
0.0
 11
30.536026
 21
32.910962
 31
0.0
  0
SPLINE
  5
110
100
AcDbEntity
  8
Outline
 62
7
100
AcDbSpline
 70
8
 71
3
 72
8
 73
4
 74
0
 40
0
 40
0
 40
0
 40
0
 40
1
 40
1
 40
1
 40
1
 10
30.536026
 20
32.910962
 30
0.0
 10
30.859490
 20
33.178681
 30
0.0
 10
31.110175
 20
33.844482
 30
0.0
 10
31.204848
 20
34.203718
 30
0.0
  0
LINE
  5
111
100
AcDbEntity
  8
Outline
 62
7
100
AcDbLine
 10
31.204848
 20
34.203718
 30
0.0
 11
32.988950
 21
45.011207
 31
0.0
  0
SPLINE
  5
112
100
AcDbEntity
  8
Outline
 62
7
100
AcDbSpline
 70
8
 71
3
 72
8
 73
4
 74
0
 40
0
 40
0
 40
0
 40
0
 40
1
 40
1
 40
1
 40
1
 10
32.988950
 20
45.011207
 30
0.0
 10
33.032527
 20
45.498489
 30
0.0
 10
32.889728
 20
46.146251
 30
0.0
 10
32.655266
 20
46.818893
 30
0.0
  0
SPLINE
  5
113
100
AcDbEntity
  8
Outline
 62
7
100
AcDbSpline
 70
8
 71
3
 72
8
 73
4
 74
0
 40
0
 40
0
 40
0
 40
0
 40
1
 40
1
 40
1
 40
1
 10
32.655266
 20
46.818893
 30
0.0
 10
32.356918
 20
47.276770
 30
0.0
 10
31.906163
 20
47.615794
 30
0.0
 10
31.545860
 20
47.825852
 30
0.0
  0
LINE
  5
114
100
AcDbEntity
  8
Outline
 62
7
100
AcDbLine
 10
31.545860
 20
47.825852
 30
0.0
 11
24.338969
 21
50.516023
 31
0.0
  0
SPLINE
  5
115
100
AcDbEntity
  8
Outline
 62
7
100
AcDbSpline
 70
8
 71
3
 72
8
 73
4
 74
0
 40
0
 40
0
 40
0
 40
0
 40
1
 40
1
 40
1
 40
1
 10
24.338969
 20
50.516023
 30
0.0
 10
23.776921
 20
50.784261
 30
0.0
 10
23.046785
 20
50.794957
 30
0.0
 10
22.549767
 20
50.803076
 30
0.0
  0
SPLINE
  5
116
100
AcDbEntity
  8
Outline
 62
7
100
AcDbSpline
 70
8
 71
3
 72
8
 73
4
 74
0
 40
0
 40
0
 40
0
 40
0
 40
1
 40
1
 40
1
 40
1
 10
22.549767
 20
50.803076
 30
0.0
 10
22.118036
 20
50.774402
 30
0.0
 10
21.204430
 20
50.648038
 30
0.0
 10
20.870728
 20
50.455984
 30
0.0
  0
LINE
  5
117
100
AcDbEntity
  8
Outline
 62
7
100
AcDbLine
 10
20.870728
 20
50.455984
 30
0.0
 11
13.898142
 21
48.107477
 31
0.0
  0
SPLINE
  5
118
100
AcDbEntity
  8
Outline
 62
7
100
AcDbSpline
 70
8
 71
3
 72
8
 73
4
 74
0
 40
0
 40
0
 40
0
 40
0
 40
1
 40
1
 40
1
 40
1
 10
13.898142
 20
48.107477
 30
0.0
 10
13.381985
 20
47.854693
 30
0.0
 10
12.781155
 20
47.516437
 30
0.0
 10
12.378154
 20
47.082603
 30
0.0
  0
SPLINE
  5
119
100
AcDbEntity
  8
Outline
 62
7
100
AcDbSpline
 70
8
 71
3
 72
8
 73
4
 74
0
 40
0
 40
0
 40
0
 40
0
 40
1
 40
1
 40
1
 40
1
 10
12.378154
 20
47.082603
 30
0.0
 10
11.951619
 20
46.742658
 30
0.0
 10
11.790946
 20
46.159727
 30
0.0
 10
11.727394
 20
45.524858
 30
0.0
  0
LINE
  5
11a
100
AcDbEntity
  8
Outline
 62
7
100
AcDbLine
 10
11.727394
 20
45.524858
 30
0.0
 11
11.727394
 21
45.524858
 31
0.0
  0
LINE
  5
11b
100
AcDbEntity
  8
Outline
 62
7
100
AcDbLine
 10
12.202072
 20
55.415000
 30
0.0
 11
32.522072
 21
55.415000
 31
0.0
  0
SPLINE
  5
11c
100
AcDbEntity
  8
Outline
 62
7
100
AcDbSpline
 70
8
 71
3
 72
8
 73
4
 74
0
 40
0
 40
0
 40
0
 40
0
 40
1
 40
1
 40
1
 40
1
 10
32.522072
 20
55.415000
 30
0.0
 10
36.274498
 20
55.415000
 30
0.0
 10
39.295404
 20
52.394093
 30
0.0
 10
39.295404
 20
48.641666
 30
0.0
  0
LINE
  5
11d
100
AcDbEntity
  8
Outline
 62
7
100
AcDbLine
 10
39.295404
 20
48.641666
 30
0.0
 11
39.295404
 21
8.001666
 31
0.0
  0
SPLINE
  5
11e
100
AcDbEntity
  8
Outline
 62
7
100
AcDbSpline
 70
8
 71
3
 72
8
 73
4
 74
0
 40
0
 40
0
 40
0
 40
0
 40
1
 40
1
 40
1
 40
1
 10
39.295404
 20
8.001666
 30
0.0
 10
39.295404
 20
4.249240
 30
0.0
 10
36.274498
 20
1.228333
 30
0.0
 10
32.522072
 20
1.228333
 30
0.0
  0
LINE
  5
11f
100
AcDbEntity
  8
Outline
 62
7
100
AcDbLine
 10
32.522072
 20
1.228333
 30
0.0
 11
12.202072
 21
1.228333
 31
0.0
  0
SPLINE
  5
120
100
AcDbEntity
  8
Outline
 62
7
100
AcDbSpline
 70
8
 71
3
 72
8
 73
4
 74
0
 40
0
 40
0
 40
0
 40
0
 40
1
 40
1
 40
1
 40
1
 10
12.202072
 20
1.228333
 30
0.0
 10
8.449646
 20
1.228333
 30
0.0
 10
5.428739
 20
4.249240
 30
0.0
 10
5.428739
 20
8.001666
 30
0.0
  0
LINE
  5
121
100
AcDbEntity
  8
Outline
 62
7
100
AcDbLine
 10
5.428739
 20
8.001666
 30
0.0
 11
5.428739
 21
48.641666
 31
0.0
  0
SPLINE
  5
122
100
AcDbEntity
  8
Outline
 62
7
100
AcDbSpline
 70
8
 71
3
 72
8
 73
4
 74
0
 40
0
 40
0
 40
0
 40
0
 40
1
 40
1
 40
1
 40
1
 10
5.428739
 20
48.641666
 30
0.0
 10
5.428739
 20
52.394093
 30
0.0
 10
8.449646
 20
55.415000
 30
0.0
 10
12.202072
 20
55.415000
 30
0.0
  0
LINE
  5
123
100
AcDbEntity
  8
Outline
 62
7
100
AcDbLine
 10
12.202072
 20
55.415000
 30
0.0
 11
12.202072
 21
55.415000
 31
0.0
  0
SPLINE
  5
124
100
AcDbEntity
  8
Outline
 62
7
100
AcDbSpline
 70
8
 71
3
 72
8
 73
4
 74
0
 40
0
 40
0
 40
0
 40
0
 40
1
 40
1
 40
1
 40
1
 10
53.779644
 20
7.429568
 30
0.0
 10
53.779645
 20
6.439426
 30
0.0
 10
53.386312
 20
5.489838
 30
0.0
 10
52.686176
 20
4.789702
 30
0.0
  0
SPLINE
  5
125
100
AcDbEntity
  8
Outline
 62
7
100
AcDbSpline
 70
8
 71
3
 72
8
 73
4
 74
0
 40
0
 40
0
 40
0
 40
0
 40
1
 40
1
 40
1
 40
1
 10
52.686176
 20
4.789702
 30
0.0
 10
51.986040
 20
4.089566
 30
0.0
 10
51.036452
 20
3.696234
 30
0.0
 10
50.046310
 20
3.696234
 30
0.0
  0
SPLINE
  5
126
100
AcDbEntity
  8
Outline
 62
7
100
AcDbSpline
 70
8
 71
3
 72
8
 73
4
 74
0
 40
0
 40
0
 40
0
 40
0
 40
1
 40
1
 40
1
 40
1
 10
50.046310
 20
3.696234
 30
0.0
 10
47.984447
 20
3.696235
 30
0.0
 10
46.312978
 20
5.367706
 30
0.0
 10
46.312979
 20
7.429568
 30
0.0
  0
SPLINE
  5
127
100
AcDbEntity
  8
Outline
 62
7
100
AcDbSpline
 70
8
 71
3
 72
8
 73
4
 74
0
 40
0
 40
0
 40
0
 40
0
 40
1
 40
1
 40
1
 40
1
 10
46.312979
 20
7.429568
 30
0.0
 10
46.312978
 20
9.491431
 30
0.0
 10
47.984447
 20
11.162901
 30
0.0
 10
50.046310
 20
11.162903
 30
0.0
  0
SPLINE
  5
128
100
AcDbEntity
  8
Outline
 62
7
100
AcDbSpline
 70
8
 71
3
 72
8
 73
4
 74
0
 40
0
 40
0
 40
0
 40
0
 40
1
 40
1
 40
1
 40
1
 10
50.046310
 20
11.162903
 30
0.0
 10
51.036452
 20
11.162903
 30
0.0
 10
51.986040
 20
10.769570
 30
0.0
 10
52.686176
 20
10.069434
 30
0.0
  0
SPLINE
  5
129
100
AcDbEntity
  8
Outline
 62
7
100
AcDbSpline
 70
8
 71
3
 72
8
 73
4
 74
0
 40
0
 40
0
 40
0
 40
0
 40
1
 40
1
 40
1
 40
1
 10
52.686176
 20
10.069434
 30
0.0
 10
53.386312
 20
9.369298
 30
0.0
 10
53.779645
 20
8.419710
 30
0.0
 10
53.779644
 20
7.429568
 30
0.0
  0
LINE
  5
12a
100
AcDbEntity
  8
Outline
 62
7
100
AcDbLine
 10
53.779644
 20
7.429568
 30
0.0
 11
53.779644
 21
7.429568
 31
0.0
  0
LINE
  5
12b
100
AcDbEntity
  8
Outline
 62
7
100
AcDbLine
 10
48.917427
 20
55.415000
 30
0.0
 11
69.237396
 21
55.415000
 31
0.0
  0
SPLINE
  5
12c
100
AcDbEntity
  8
Outline
 62
7
100
AcDbSpline
 70
8
 71
3
 72
8
 73
4
 74
0
 40
0
 40
0
 40
0
 40
0
 40
1
 40
1
 40
1
 40
1
 10
69.237396
 20
55.415000
 30
0.0
 10
72.989803
 20
55.415000
 30
0.0
 10
76.010709
 20
52.394093
 30
0.0
 10
76.010709
 20
48.641666
 30
0.0
  0
LINE
  5
12d
100
AcDbEntity
  8
Outline
 62
7
100
AcDbLine
 10
76.010709
 20
48.641666
 30
0.0
 11
76.010709
 21
8.001666
 31
0.0
  0
SPLINE
  5
12e
100
AcDbEntity
  8
Outline
 62
7
100
AcDbSpline
 70
8
 71
3
 72
8
 73
4
 74
0
 40
0
 40
0
 40
0
 40
0
 40
1
 40
1
 40
1
 40
1
 10
76.010709
 20
8.001666
 30
0.0
 10
76.010709
 20
4.249240
 30
0.0
 10
72.989803
 20
1.228333
 30
0.0
 10
69.237396
 20
1.228333
 30
0.0
  0
LINE
  5
12f
100
AcDbEntity
  8
Outline
 62
7
100
AcDbLine
 10
69.237396
 20
1.228333
 30
0.0
 11
48.917427
 21
1.228333
 31
0.0
  0
SPLINE
  5
130
100
AcDbEntity
  8
Outline
 62
7
100
AcDbSpline
 70
8
 71
3
 72
8
 73
4
 74
0
 40
0
 40
0
 40
0
 40
0
 40
1
 40
1
 40
1
 40
1
 10
48.917427
 20
1.228333
 30
0.0
 10
45.164997
 20
1.228333
 30
0.0
 10
42.144091
 20
4.249240
 30
0.0
 10
42.144091
 20
8.001666
 30
0.0
  0
LINE
  5
131
100
AcDbEntity
  8
Outline
 62
7
100
AcDbLine
 10
42.144091
 20
8.001666
 30
0.0
 11
42.144091
 21
48.641666
 31
0.0
  0
SPLINE
  5
132
100
AcDbEntity
  8
Outline
 62
7
100
AcDbSpline
 70
8
 71
3
 72
8
 73
4
 74
0
 40
0
 40
0
 40
0
 40
0
 40
1
 40
1
 40
1
 40
1
 10
42.144091
 20
48.641666
 30
0.0
 10
42.144091
 20
52.394093
 30
0.0
 10
45.164997
 20
55.415000
 30
0.0
 10
48.917427
 20
55.415000
 30
0.0
  0
LINE
  5
133
100
AcDbEntity
  8
Outline
 62
7
100
AcDbLine
 10
48.917427
 20
55.415000
 30
0.0
 11
48.917427
 21
55.415000
 31
0.0
  0
SPLINE
  5
134
100
AcDbEntity
  8
Outline
 62
7
100
AcDbSpline
 70
8
 71
3
 72
8
 73
4
 74
0
 40
0
 40
0
 40
0
 40
0
 40
1
 40
1
 40
1
 40
1
 10
67.505186
 20
40.860921
 30
0.0
 10
67.505186
 20
38.625733
 30
0.0
 10
66.617261
 20
36.482092
 30
0.0
 10
65.036744
 20
34.901575
 30
0.0
  0
SPLINE
  5
135
100
AcDbEntity
  8
Outline
 62
7
100
AcDbSpline
 70
8
 71
3
 72
8
 73
4
 74
0
 40
0
 40
0
 40
0
 40
0
 40
1
 40
1
 40
1
 40
1
 10
65.036744
 20
34.901575
 30
0.0
 10
63.456228
 20
33.321059
 30
0.0
 10
61.312587
 20
32.433134
 30
0.0
 10
59.077399
 20
32.433134
 30
0.0
  0
SPLINE
  5
136
100
AcDbEntity
  8
Outline
 62
7
100
AcDbSpline
 70
8
 71
3
 72
8
 73
4
 74
0
 40
0
 40
0
 40
0
 40
0
 40
1
 40
1
 40
1
 40
1
 10
59.077399
 20
32.433134
 30
0.0
 10
54.422861
 20
32.433135
 30
0.0
 10
50.649614
 20
36.206383
 30
0.0
 10
50.649614
 20
40.860921
 30
0.0
  0
SPLINE
  5
137
100
AcDbEntity
  8
Outline
 62
7
100
AcDbSpline
 70
8
 71
3
 72
8
 73
4
 74
0
 40
0
 40
0
 40
0
 40
0
 40
1
 40
1
 40
1
 40
1
 10
50.649614
 20
40.860921
 30
0.0
 10
50.649614
 20
45.515458
 30
0.0
 10
54.422861
 20
49.288707
 30
0.0
 10
59.077399
 20
49.288708
 30
0.0
  0
SPLINE
  5
138
100
AcDbEntity
  8
Outline
 62
7
100
AcDbSpline
 70
8
 71
3
 72
8
 73
4
 74
0
 40
0
 40
0
 40
0
 40
0
 40
1
 40
1
 40
1
 40
1
 10
59.077399
 20
49.288708
 30
0.0
 10
61.312587
 20
49.288708
 30
0.0
 10
63.456228
 20
48.400783
 30
0.0
 10
65.036744
 20
46.820267
 30
0.0
  0
SPLINE
  5
139
100
AcDbEntity
  8
Outline
 62
7
100
AcDbSpline
 70
8
 71
3
 72
8
 73
4
 74
0
 40
0
 40
0
 40
0
 40
0
 40
1
 40
1
 40
1
 40
1
 10
65.036744
 20
46.820267
 30
0.0
 10
66.617261
 20
45.239750
 30
0.0
 10
67.505186
 20
43.096109
 30
0.0
 10
67.505186
 20
40.860921
 30
0.0
  0
LINE
  5
13a
100
AcDbEntity
  8
Outline
 62
7
100
AcDbLine
 10
67.505186
 20
40.860921
 30
0.0
 11
67.505186
 21
40.860921
 31
0.0
  0
SPLINE
  5
13b
100
AcDbEntity
  8
Outline
 62
7
100
AcDbSpline
 70
8
 71
3
 72
8
 73
4
 74
0
 40
0
 40
0
 40
0
 40
0
 40
1
 40
1
 40
1
 40
1
 10
15.464295
 20
7.429568
 30
0.0
 10
15.464295
 20
6.863773
 30
0.0
 10
15.239534
 20
6.321151
 30
0.0
 10
14.839456
 20
5.921073
 30
0.0
  0
SPLINE
  5
13c
100
AcDbEntity
  8
Outline
 62
7
100
AcDbSpline
 70
8
 71
3
 72
8
 73
4
 74
0
 40
0
 40
0
 40
0
 40
0
 40
1
 40
1
 40
1
 40
1
 10
14.839456
 20
5.921073
 30
0.0
 10
14.439378
 20
5.520995
 30
0.0
 10
13.896757
 20
5.296233
 30
0.0
 10
13.330961
 20
5.296233
 30
0.0
  0
SPLINE
  5
13d
100
AcDbEntity
  8
Outline
 62
7
100
AcDbSpline
 70
8
 71
3
 72
8
 73
4
 74
0
 40
0
 40
0
 40
0
 40
0
 40
1
 40
1
 40
1
 40
1
 10
13.330961
 20
5.296233
 30
0.0
 10
12.765166
 20
5.296233
 30
0.0
 10
12.222544
 20
5.520995
 30
0.0
 10
11.822466
 20
5.921073
 30
0.0
  0
SPLINE
  5
13e
100
AcDbEntity
  8
Outline
 62
7
100
AcDbSpline
 70
8
 71
3
 72
8
 73
4
 74
0
 40
0
 40
0
 40
0
 40
0
 40
1
 40
1
 40
1
 40
1
 10
11.822466
 20
5.921073
 30
0.0
 10
11.422388
 20
6.321151
 30
0.0
 10
11.197627
 20
6.863773
 30
0.0
 10
11.197628
 20
7.429568
 30
0.0
  0
SPLINE
  5
13f
100
AcDbEntity
  8
Outline
 62
7
100
AcDbSpline
 70
8
 71
3
 72
8
 73
4
 74
0
 40
0
 40
0
 40
0
 40
0
 40
1
 40
1
 40
1
 40
1
 10
11.197628
 20
7.429568
 30
0.0
 10
11.197628
 20
8.607775
 30
0.0
 10
12.152754
 20
9.562900
 30
0.0
 10
13.330961
 20
9.562900
 30
0.0
  0
SPLINE
  5
140
100
AcDbEntity
  8
Outline
 62
7
100
AcDbSpline
 70
8
 71
3
 72
8
 73
4
 74
0
 40
0
 40
0
 40
0
 40
0
 40
1
 40
1
 40
1
 40
1
 10
13.330961
 20
9.562900
 30
0.0
 10
14.509168
 20
9.562900
 30
0.0
 10
15.464294
 20
8.607775
 30
0.0
 10
15.464295
 20
7.429568
 30
0.0
  0
LINE
  5
141
100
AcDbEntity
  8
Outline
 62
7
100
AcDbLine
 10
15.464295
 20
7.429568
 30
0.0
 11
15.464295
 21
7.429568
 31
0.0
  0
ENDSEC
  0
SECTION
  2
OBJECTS
  0
DICTIONARY
  5
C
330
0
100
AcDbDictionary
  3
ACAD_GROUP
350
D
  3
ACAD_MLINESTYLE
350
17
  0
DICTIONARY
  5
D
330
C
100
AcDbDictionary
  0
DICTIONARY
  5
1A
330
C
100
AcDbDictionary
  0
DICTIONARY
  5
17
330
C
100
AcDbDictionary
  3
STANDARD
350
18
  0
DICTIONARY
  5
19
330
C
100
AcDbDictionary
  0
ENDSEC
  0
EOF
