  0
SECTION
  2
HEADER
  9
$ACADVER
  1
AC1014
  9
$HANDSEED
  5
FFFF
  9
$MEASUREMENT
 70
     1
  0
ENDSEC
  0
SECTION
  2
TABLES
  0
TABLE
  2
VPORT
  5
8
330
0
100
AcDbSymbolTable
 70
     4
  0
VPORT
  5
2E
330
8
100
AcDbSymbolTableRecord
100
AcDbViewportTableRecord
  2
*ACTIVE
 70
     0
 10
0.0
 20
0.0
 11
1.0
 21
1.0
 12
210.0
 22
148.5
 13
0.0
 23
0.0
 14
10.0
 24
10.0
 15
10.0
 25
10.0
 16
0.0
 26
0.0
 36
1.0
 17
0.0
 27
0.0
 37
0.0
 40
341.0
 41
1.24
 42
50.0
 43
0.0
 44
0.0
 50
0.0
 51
0.0
 71
     0
 72
   100
 73
     1
 74
     3
 75
     0
 76
     0
 77
     0
 78
     0
  0
ENDTAB
  0
TABLE
  2
LTYPE
  5
5
330
0
100
AcDbSymbolTable
 70
     1
  0
LTYPE
  5
14
330
5
100
AcDbSymbolTableRecord
100
AcDbLinetypeTableRecord
  2
BYBLOCK
 70
     0
  3

 72
    65
 73
     0
 40
0.0
  0
LTYPE
  5
15
330
5
100
AcDbSymbolTableRecord
100
AcDbLinetypeTableRecord
  2
BYLAYER
 70
     0
  3

 72
    65
 73
     0
 40
0.0
  0
LTYPE
  5
16
330
5
100
AcDbSymbolTableRecord
100
AcDbLinetypeTableRecord
  2
CONTINUOUS
 70
     0
  3
Solid line
 72
    65
 73
     0
 40
0.0
  0
ENDTAB
  0
TABLE
  2
LAYER
  5
2
100
AcDbSymbolTable
 70
3
  0
LAYER
  5
50
100
AcDbSymbolTableRecord
100
AcDbLayerTableRecord
  2
0
 70
0
  6
CONTINUOUS
  0
LAYER
  5
51
100
AcDbSymbolTableRecord
100
AcDbLayerTableRecord
  2
Image
 70
0
  6
CONTINUOUS
  0
LAYER
  5
52
100
AcDbSymbolTableRecord
100
AcDbLayerTableRecord
  2
Outline
 70
0
  6
CONTINUOUS
  0
ENDTAB
  0
TABLE
  2
STYLE
  5
3
330
0
100
AcDbSymbolTable
 70
     1
  0
STYLE
  5
11
330
3
100
AcDbSymbolTableRecord
100
AcDbTextStyleTableRecord
  2
STANDARD
 70
     0
 40
0.0
 41
1.0
 50
0.0
 71
     0
 42
2.5
  3
txt
  4

  0
ENDTAB
  0
TABLE
  2
VIEW
  5
6
330
0
100
AcDbSymbolTable
 70
     0
  0
ENDTAB
  0
TABLE
  2
UCS
  5
7
330
0
100
AcDbSymbolTable
 70
     0
  0
ENDTAB
  0
TABLE
  2
APPID
  5
9
330
0
100
AcDbSymbolTable
 70
     2
  0
APPID
  5
12
330
9
100
AcDbSymbolTableRecord
100
AcDbRegAppTableRecord
  2
ACAD
 70
     0
  0
ENDTAB
  0
TABLE
  2
DIMSTYLE
  5
A
330
0
100
AcDbSymbolTable
 70
     1
  0
DIMSTYLE
105
27
330
A
100
AcDbSymbolTableRecord
100
AcDbDimStyleTableRecord
  2
ISO-25
 70
     0
  3

  4

  5

  6

  7

 40
1.0
 41
2.5
 42
0.625
 43
3.75
 44
1.25
 45
0.0
 46
0.0
 47
0.0
 48
0.0
140
2.5
141
2.5
142
0.0
143
0.03937007874016
144
1.0
145
0.0
146
1.0
147
0.625
 71
     0
 72
     0
 73
     0
 74
     0
 75
     0
 76
     0
 77
     1
 78
     8
170
     0
171
     3
172
     1
173
     0
174
     0
175
     0
176
     0
177
     0
178
     0
270
     2
271
     2
272
     2
273
     2
274
     3
340
11
275
     0
280
     0
281
     0
282
     0
283
     0
284
     8
285
     0
286
     0
287
     3
288
     0
  0
ENDTAB
  0
TABLE
  2
BLOCK_RECORD
  5
1
330
0
100
AcDbSymbolTable
 70
     1
  0
BLOCK_RECORD
  5
1F
330
1
100
AcDbSymbolTableRecord
100
AcDbBlockTableRecord
  2
*MODEL_SPACE
  0
BLOCK_RECORD
  5
1B
330
1
100
AcDbSymbolTableRecord
100
AcDbBlockTableRecord
  2
*PAPER_SPACE
  0
ENDTAB
  0
ENDSEC
  0
SECTION
  2
BLOCKS
  0
BLOCK
  5
20
330
1F
100
AcDbEntity
  8
0
100
AcDbBlockBegin
  2
*MODEL_SPACE
 70
     0
 10
0.0
 20
0.0
 30
0.0
  3
*MODEL_SPACE
  1

  0
ENDBLK
  5
21
330
1F
100
AcDbEntity
  8
0
100
AcDbBlockEnd
  0
BLOCK
  5
1C
330
1B
100
AcDbEntity
 67
     1
  8
0
100
AcDbBlockBegin
  2
*PAPER_SPACE
  1

  0
ENDBLK
  5
1D
330
1B
100
AcDbEntity
 67
     1
  8
0
100
AcDbBlockEnd
  0
ENDSEC
  0
SECTION
  2
ENTITIES
  0
LINE
  5
100
100
AcDbEntity
  8
Outline
 62
7
100
AcDbLine
 10
10.994432
 20
46.617436
 30
0.0
 11
12.770690
 21
35.825684
 31
0.0
  0
SPLINE
  5
101
100
AcDbEntity
  8
Outline
 62
7
100
AcDbSpline
 70
8
 71
3
 72
8
 73
4
 74
0
 40
0
 40
0
 40
0
 40
0
 40
1
 40
1
 40
1
 40
1
 10
12.770690
 20
35.825684
 30
0.0
 10
13.034105
 20
35.224322
 30
0.0
 10
13.382110
 20
34.961322
 30
0.0
 10
13.731164
 20
34.702518
 30
0.0
  0
SPLINE
  5
102
100
AcDbEntity
  8
Outline
 62
7
100
AcDbSpline
 70
8
 71
3
 72
8
 73
4
 74
0
 40
0
 40
0
 40
0
 40
0
 40
1
 40
1
 40
1
 40
1
 10
13.731164
 20
34.702518
 30
0.0
 10
13.731164
 20
34.702518
 30
0.0
 10
14.580979
 20
34.329684
 30
0.0
 10
15.032305
 20
34.238229
 30
0.0
  0
SPLINE
  5
103
100
AcDbEntity
  8
Outline
 62
7
100
AcDbSpline
 70
8
 71
3
 72
8
 73
4
 74
0
 40
0
 40
0
 40
0
 40
0
 40
1
 40
1
 40
1
 40
1
 10
15.032305
 20
34.238229
 30
0.0
 10
15.549278
 20
34.133471
 30
0.0
 10
16.115224
 20
34.206573
 30
0.0
 10
16.623786
 20
34.066573
 30
0.0
  0
SPLINE
  5
104
100
AcDbEntity
  8
Outline
 62
7
100
AcDbSpline
 70
8
 71
3
 72
8
 73
4
 74
0
 40
0
 40
0
 40
0
 40
0
 40
1
 40
1
 40
1
 40
1
 10
16.623786
 20
34.066573
 30
0.0
 10
17.078657
 20
33.941353
 30
0.0
 10
17.527877
 20
33.803782
 30
0.0
 10
17.867495
 20
33.494122
 30
0.0
  0
SPLINE
  5
105
100
AcDbEntity
  8
Outline
 62
7
100
AcDbSpline
 70
8
 71
3
 72
8
 73
4
 74
0
 40
0
 40
0
 40
0
 40
0
 40
1
 40
1
 40
1
 40
1
 10
17.867495
 20
33.494122
 30
0.0
 10
18.193501
 20
33.196874
 30
0.0
 10
18.590549
 20
32.108074
 30
0.0
 10
18.593895
 20
31.622467
 30
0.0
  0
LINE
  5
106
100
AcDbEntity
  8
Outline
 62
7
100
AcDbLine
 10
18.593895
 20
31.622467
 30
0.0
 11
18.725350
 21
12.540055
 31
0.0
  0
SPLINE
  5
107
100
AcDbEntity
  8
Outline
 62
7
100
AcDbSpline
 70
8
 71
3
 72
8
 73
4
 74
0
 40
0
 40
0
 40
0
 40
0
 40
1
 40
1
 40
1
 40
1
 10
18.725350
 20
12.540055
 30
0.0
 10
18.832784
 20
12.004618
 30
0.0
 10
19.341632
 20
11.288222
 30
0.0
 10
19.788637
 20
11.246706
 30
0.0
  0
LINE
  5
108
100
AcDbEntity
  8
Outline
 62
7
100
AcDbLine
 10
19.788637
 20
11.246706
 30
0.0
 11
22.699478
 21
11.327110
 31
0.0
  0
SPLINE
  5
109
100
AcDbEntity
  8
Outline
 62
7
100
AcDbSpline
 70
8
 71
3
 72
8
 73
4
 74
0
 40
0
 40
0
 40
0
 40
0
 40
1
 40
1
 40
1
 40
1
 10
22.699478
 20
11.327110
 30
0.0
 10
23.407385
 20
11.539729
 30
0.0
 10
23.484272
 20
12.408163
 30
0.0
 10
23.523606
 20
12.737241
 30
0.0
  0
LINE
  5
10a
100
AcDbEntity
  8
Outline
 62
7
100
AcDbLine
 10
23.523606
 20
12.737241
 30
0.0
 11
23.685932
 21
31.552752
 31
0.0
  0
SPLINE
  5
10b
100
AcDbEntity
  8
Outline
 62
7
100
AcDbSpline
 70
8
 71
3
 72
8
 73
4
 74
0
 40
0
 40
0
 40
0
 40
0
 40
1
 40
1
 40
1
 40
1
 10
23.685932
 20
31.552752
 30
0.0
 10
23.666909
 20
31.836760
 30
0.0
 10
23.995316
 20
33.082750
 30
0.0
 10
24.571290
 20
33.367144
 30
0.0
  0
LINE
  5
10c
100
AcDbEntity
  8
Outline
 62
7
100
AcDbLine
 10
24.571290
 20
33.367144
 30
0.0
 11
25.649954
 21
33.884937
 31
0.0
  0
LINE
  5
10d
100
AcDbEntity
  8
Outline
 62
7
100
AcDbLine
 10
25.649954
 20
33.884937
 30
0.0
 11
26.971913
 21
34.054448
 31
0.0
  0
SPLINE
  5
10e
100
AcDbEntity
  8
Outline
 62
7
100
AcDbSpline
 70
8
 71
3
 72
8
 73
4
 74
0
 40
0
 40
0
 40
0
 40
0
 40
1
 40
1
 40
1
 40
1
 10
26.971913
 20
34.054448
 30
0.0
 10
27.323154
 20
34.119705
 30
0.0
 10
27.748088
 20
34.140149
 30
0.0
 10
28.014639
 20
34.332441
 30
0.0
  0
LINE
  5
10f
100
AcDbEntity
  8
Outline
 62
7
100
AcDbLine
 10
28.014639
 20
34.332441
 30
0.0
 11
28.627524
 21
34.791909
 31
0.0
  0
SPLINE
  5
110
100
AcDbEntity
  8
Outline
 62
7
100
AcDbSpline
 70
8
 71
3
 72
8
 73
4
 74
0
 40
0
 40
0
 40
0
 40
0
 40
1
 40
1
 40
1
 40
1
 10
28.627524
 20
34.791909
 30
0.0
 10
28.930771
 20
35.042896
 30
0.0
 10
29.165789
 20
35.667084
 30
0.0
 10
29.254545
 20
36.003868
 30
0.0
  0
LINE
  5
111
100
AcDbEntity
  8
Outline
 62
7
100
AcDbLine
 10
29.254545
 20
36.003868
 30
0.0
 11
30.927141
 21
46.135888
 31
0.0
  0
SPLINE
  5
112
100
AcDbEntity
  8
Outline
 62
7
100
AcDbSpline
 70
8
 71
3
 72
8
 73
4
 74
0
 40
0
 40
0
 40
0
 40
0
 40
1
 40
1
 40
1
 40
1
 10
30.927141
 20
46.135888
 30
0.0
 10
30.967994
 20
46.592715
 30
0.0
 10
30.834120
 20
47.199992
 30
0.0
 10
30.614312
 20
47.830594
 30
0.0
  0
SPLINE
  5
113
100
AcDbEntity
  8
Outline
 62
7
100
AcDbSpline
 70
8
 71
3
 72
8
 73
4
 74
0
 40
0
 40
0
 40
0
 40
0
 40
1
 40
1
 40
1
 40
1
 10
30.614312
 20
47.830594
 30
0.0
 10
30.334610
 20
48.259854
 30
0.0
 10
29.912028
 20
48.577689
 30
0.0
 10
29.574244
 20
48.774619
 30
0.0
  0
LINE
  5
114
100
AcDbEntity
  8
Outline
 62
7
100
AcDbLine
 10
29.574244
 20
48.774619
 30
0.0
 11
22.817784
 21
51.296653
 31
0.0
  0
SPLINE
  5
115
100
AcDbEntity
  8
Outline
 62
7
100
AcDbSpline
 70
8
 71
3
 72
8
 73
4
 74
0
 40
0
 40
0
 40
0
 40
0
 40
1
 40
1
 40
1
 40
1
 10
22.817784
 20
51.296653
 30
0.0
 10
22.290864
 20
51.548127
 30
0.0
 10
21.606361
 20
51.558154
 30
0.0
 10
21.140407
 20
51.565765
 30
0.0
  0
SPLINE
  5
116
100
AcDbEntity
  8
Outline
 62
7
100
AcDbSpline
 70
8
 71
3
 72
8
 73
4
 74
0
 40
0
 40
0
 40
0
 40
0
 40
1
 40
1
 40
1
 40
1
 10
21.140407
 20
51.565765
 30
0.0
 10
20.735659
 20
51.538884
 30
0.0
 10
19.879153
 20
51.420418
 30
0.0
 10
19.566307
 20
51.240367
 30
0.0
  0
LINE
  5
117
100
AcDbEntity
  8
Outline
 62
7
100
AcDbLine
 10
19.566307
 20
51.240367
 30
0.0
 11
13.029508
 21
49.038642
 31
0.0
  0
SPLINE
  5
118
100
AcDbEntity
  8
Outline
 62
7
100
AcDbSpline
 70
8
 71
3
 72
8
 73
4
 74
0
 40
0
 40
0
 40
0
 40
0
 40
1
 40
1
 40
1
 40
1
 10
13.029508
 20
49.038642
 30
0.0
 10
12.545611
 20
48.801657
 30
0.0
 10
11.982333
 20
48.484541
 30
0.0
 10
11.604520
 20
48.077822
 30
0.0
  0
SPLINE
  5
119
100
AcDbEntity
  8
Outline
 62
7
100
AcDbSpline
 70
8
 71
3
 72
8
 73
4
 74
0
 40
0
 40
0
 40
0
 40
0
 40
1
 40
1
 40
1
 40
1
 10
11.604520
 20
48.077822
 30
0.0
 10
11.204643
 20
47.759123
 30
0.0
 10
11.054012
 20
47.212626
 30
0.0
 10
10.994432
 20
46.617436
 30
0.0
  0
LINE
  5
11a
100
AcDbEntity
  8
Outline
 62
7
100
AcDbLine
 10
10.994432
 20
46.617436
 30
0.0
 11
10.994432
 21
46.617436
 31
0.0
  0
LINE
  5
11b
100
AcDbEntity
  8
Outline
 62
7
100
AcDbLine
 10
40.014444
 20
55.889444
 30
0.0
 11
71.764444
 21
55.889444
 31
0.0
  0
LINE
  5
11c
100
AcDbEntity
  8
Outline
 62
7
100
AcDbLine
 10
71.764444
 20
55.889444
 30
0.0
 11
71.764444
 21
5.089444
 31
0.0
  0
LINE
  5
11d
100
AcDbEntity
  8
Outline
 62
7
100
AcDbLine
 10
71.764444
 20
5.089444
 30
0.0
 11
40.014444
 21
5.089444
 31
0.0
  0
LINE
  5
11e
100
AcDbEntity
  8
Outline
 62
7
100
AcDbLine
 10
40.014444
 20
5.089444
 30
0.0
 11
40.014444
 21
55.889444
 31
0.0
  0
SPLINE
  5
11f
100
AcDbEntity
  8
Outline
 62
7
100
AcDbSpline
 70
8
 71
3
 72
8
 73
4
 74
0
 40
0
 40
0
 40
0
 40
0
 40
1
 40
1
 40
1
 40
1
 10
63.790495
 20
42.244995
 30
0.0
 10
63.790495
 20
39.422222
 30
0.0
 10
62.284563
 20
36.813872
 30
0.0
 10
59.839970
 20
35.402485
 30
0.0
  0
SPLINE
  5
120
100
AcDbEntity
  8
Outline
 62
7
100
AcDbSpline
 70
8
 71
3
 72
8
 73
4
 74
0
 40
0
 40
0
 40
0
 40
0
 40
1
 40
1
 40
1
 40
1
 10
59.839970
 20
35.402485
 30
0.0
 10
57.395376
 20
33.991098
 30
0.0
 10
54.383513
 20
33.991098
 30
0.0
 10
51.938919
 20
35.402485
 30
0.0
  0
SPLINE
  5
121
100
AcDbEntity
  8
Outline
 62
7
100
AcDbSpline
 70
8
 71
3
 72
8
 73
4
 74
0
 40
0
 40
0
 40
0
 40
0
 40
1
 40
1
 40
1
 40
1
 10
51.938919
 20
35.402485
 30
0.0
 10
49.494326
 20
36.813872
 30
0.0
 10
47.988394
 20
39.422222
 30
0.0
 10
47.988394
 20
42.244995
 30
0.0
  0
SPLINE
  5
122
100
AcDbEntity
  8
Outline
 62
7
100
AcDbSpline
 70
8
 71
3
 72
8
 73
4
 74
0
 40
0
 40
0
 40
0
 40
0
 40
1
 40
1
 40
1
 40
1
 10
47.988394
 20
42.244995
 30
0.0
 10
47.988394
 20
45.067769
 30
0.0
 10
49.494326
 20
47.676119
 30
0.0
 10
51.938919
 20
49.087506
 30
0.0
  0
SPLINE
  5
123
100
AcDbEntity
  8
Outline
 62
7
100
AcDbSpline
 70
8
 71
3
 72
8
 73
4
 74
0
 40
0
 40
0
 40
0
 40
0
 40
1
 40
1
 40
1
 40
1
 10
51.938919
 20
49.087506
 30
0.0
 10
54.383513
 20
50.498892
 30
0.0
 10
57.395376
 20
50.498892
 30
0.0
 10
59.839970
 20
49.087506
 30
0.0
  0
SPLINE
  5
124
100
AcDbEntity
  8
Outline
 62
7
100
AcDbSpline
 70
8
 71
3
 72
8
 73
4
 74
0
 40
0
 40
0
 40
0
 40
0
 40
1
 40
1
 40
1
 40
1
 10
59.839970
 20
49.087506
 30
0.0
 10
62.284563
 20
47.676119
 30
0.0
 10
63.790495
 20
45.067769
 30
0.0
 10
63.790495
 20
42.244995
 30
0.0
  0
LINE
  5
125
100
AcDbEntity
  8
Outline
 62
7
100
AcDbLine
 10
63.790495
 20
42.244995
 30
0.0
 11
63.790495
 21
42.244995
 31
0.0
  0
LINE
  5
126
100
AcDbEntity
  8
Outline
 62
7
100
AcDbLine
 10
5.089443
 20
55.889444
 30
0.0
 11
36.839443
 21
55.889444
 31
0.0
  0
LINE
  5
127
100
AcDbEntity
  8
Outline
 62
7
100
AcDbLine
 10
36.839443
 20
55.889444
 30
0.0
 11
36.839443
 21
5.089444
 31
0.0
  0
LINE
  5
128
100
AcDbEntity
  8
Outline
 62
7
100
AcDbLine
 10
36.839443
 20
5.089444
 30
0.0
 11
5.089443
 21
5.089444
 31
0.0
  0
LINE
  5
129
100
AcDbEntity
  8
Outline
 62
7
100
AcDbLine
 10
5.089443
 20
5.089444
 30
0.0
 11
5.089443
 21
55.889444
 31
0.0
  0
SPLINE
  5
12a
100
AcDbEntity
  8
Outline
 62
7
100
AcDbSpline
 70
8
 71
3
 72
8
 73
4
 74
0
 40
0
 40
0
 40
0
 40
0
 40
1
 40
1
 40
1
 40
1
 10
14.910777
 20
10.903102
 30
0.0
 10
14.910777
 20
9.570439
 30
0.0
 10
13.830440
 20
8.490102
 30
0.0
 10
12.497777
 20
8.490102
 30
0.0
  0
SPLINE
  5
12b
100
AcDbEntity
  8
Outline
 62
7
100
AcDbSpline
 70
8
 71
3
 72
8
 73
4
 74
0
 40
0
 40
0
 40
0
 40
0
 40
1
 40
1
 40
1
 40
1
 10
12.497777
 20
8.490102
 30
0.0
 10
11.165114
 20
8.490102
 30
0.0
 10
10.084777
 20
9.570439
 30
0.0
 10
10.084777
 20
10.903102
 30
0.0
  0
SPLINE
  5
12c
100
AcDbEntity
  8
Outline
 62
7
100
AcDbSpline
 70
8
 71
3
 72
8
 73
4
 74
0
 40
0
 40
0
 40
0
 40
0
 40
1
 40
1
 40
1
 40
1
 10
10.084777
 20
10.903102
 30
0.0
 10
10.084777
 20
11.765184
 30
0.0
 10
10.544692
 20
12.561780
 30
0.0
 10
11.291277
 20
12.992821
 30
0.0
  0
SPLINE
  5
12d
100
AcDbEntity
  8
Outline
 62
7
100
AcDbSpline
 70
8
 71
3
 72
8
 73
4
 74
0
 40
0
 40
0
 40
0
 40
0
 40
1
 40
1
 40
1
 40
1
 10
11.291277
 20
12.992821
 30
0.0
 10
12.037861
 20
13.423862
 30
0.0
 10
12.957692
 20
13.423862
 30
0.0
 10
13.704277
 20
12.992821
 30
0.0
  0
SPLINE
  5
12e
100
AcDbEntity
  8
Outline
 62
7
100
AcDbSpline
 70
8
 71
3
 72
8
 73
4
 74
0
 40
0
 40
0
 40
0
 40
0
 40
1
 40
1
 40
1
 40
1
 10
13.704277
 20
12.992821
 30
0.0
 10
14.450861
 20
12.561780
 30
0.0
 10
14.910777
 20
11.765184
 30
0.0
 10
14.910777
 20
10.903102
 30
0.0
  0
LINE
  5
12f
100
AcDbEntity
  8
Outline
 62
7
100
AcDbLine
 10
14.910777
 20
10.903102
 30
0.0
 11
14.910777
 21
10.903102
 31
0.0
  0
ENDSEC
  0
SECTION
  2
OBJECTS
  0
DICTIONARY
  5
C
330
0
100
AcDbDictionary
  3
ACAD_GROUP
350
D
  3
ACAD_MLINESTYLE
350
17
  0
DICTIONARY
  5
D
330
C
100
AcDbDictionary
  0
DICTIONARY
  5
1A
330
C
100
AcDbDictionary
  0
DICTIONARY
  5
17
330
C
100
AcDbDictionary
  3
STANDARD
350
18
  0
DICTIONARY
  5
19
330
C
100
AcDbDictionary
  0
ENDSEC
  0
EOF
