<?xml version="1.0" encoding="UTF-8" standalone="no"?>
<!-- Created with Inkscape (http://www.inkscape.org/) -->

<svg
   xmlns:dc="http://purl.org/dc/elements/1.1/"
   xmlns:cc="http://creativecommons.org/ns#"
   xmlns:rdf="http://www.w3.org/1999/02/22-rdf-syntax-ns#"
   xmlns:svg="http://www.w3.org/2000/svg"
   xmlns="http://www.w3.org/2000/svg"
   xmlns:sodipodi="http://sodipodi.sourceforge.net/DTD/sodipodi-0.dtd"
   xmlns:inkscape="http://www.inkscape.org/namespaces/inkscape"
   width="152.39999mm"
   height="127mm"
   viewBox="0 0 152.40001 127"
   version="1.1"
   id="svg4522"
   sodipodi:docname="peg_board_middle_layer.svg"
   inkscape:version="0.91 r13725">
  <defs
     id="defs4516" />
  <sodipodi:namedview
     id="base"
     pagecolor="#ffffff"
     bordercolor="#666666"
     borderopacity="1.0"
     inkscape:pageopacity="0.0"
     inkscape:pageshadow="2"
     inkscape:zoom="0.7"
     inkscape:cx="417.5279"
     inkscape:cy="239.25828"
     inkscape:document-units="mm"
     inkscape:current-layer="layer1-1"
     showgrid="false"
     fit-margin-top="0"
     fit-margin-left="0"
     fit-margin-right="0"
     fit-margin-bottom="0"
     units="mm"
     inkscape:window-width="1920"
     inkscape:window-height="1018"
     inkscape:window-x="-8"
     inkscape:window-y="-8"
     inkscape:window-maximized="1" />
  <metadata
     id="metadata4519">
    <rdf:RDF>
      <cc:Work
         rdf:about="">
        <dc:format>image/svg+xml</dc:format>
        <dc:type
           rdf:resource="http://purl.org/dc/dcmitype/StillImage" />
        <dc:title></dc:title>
      </cc:Work>
    </rdf:RDF>
  </metadata>
  <g
     inkscape:label="Layer 1"
     inkscape:groupmode="layer"
     id="layer1"
     transform="translate(431.77515,191.89828)">
    <g
       id="g5140"
       transform="matrix(0.26458333,0,0,0.26458333,-425.55149,-184.08809)">
      <g
         transform="translate(3.0393586,-555.95597)"
         id="layer1-1"
         inkscape:label="Cut">
        <path
           id="rect2985"
           d="M 21.440641,580.43597 H 501.43567 V 952.43835 H 21.440641 Z"
           style="fill:none;stroke:#000000;stroke-width:0.95999998;stroke-linecap:round;stroke-miterlimit:4;stroke-dasharray:none;stroke-opacity:1"
           inkscape:connector-curvature="0" />
        <path
           id="path2987"
           d="m 238.19552,617.62402 a 24.839999,24.840009 0 0 1 -24.84001,24.84001 24.839999,24.840009 0 0 1 -24.84,-24.84001 24.839999,24.840009 0 0 1 24.84,-24.84 24.839999,24.840009 0 0 1 24.84001,24.84 z"
           style="fill:none;stroke:#0000ff;stroke-width:0.86426884;stroke-linecap:round;stroke-miterlimit:4;stroke-dasharray:none;stroke-opacity:1"
           inkscape:connector-curvature="0" />
        <path
           id="path2987-8"
           d="m 334.38193,617.62402 a 24.840003,24.840003 0 0 1 -24.84,24.84001 24.840003,24.840003 0 0 1 -24.84,-24.84001 24.840003,24.840003 0 0 1 24.84,-24.84 24.840003,24.840003 0 0 1 24.84,24.84 z"
           style="fill:none;stroke:#0000ff;stroke-width:0.86426884;stroke-linecap:round;stroke-miterlimit:4;stroke-dasharray:none;stroke-opacity:1"
           inkscape:connector-curvature="0" />
        <path
           id="path2987-8-2"
           d="m 412.21018,674.56976 a 24.840003,24.840003 0 0 1 -24.84,24.84002 24.840003,24.840003 0 0 1 -24.84,-24.84002 24.840003,24.840003 0 0 1 24.84,-24.84 24.840003,24.840003 0 0 1 24.84,24.84 z"
           style="fill:none;stroke:#0000ff;stroke-width:0.86426884;stroke-linecap:round;stroke-miterlimit:4;stroke-dasharray:none;stroke-opacity:1"
           inkscape:connector-curvature="0" />
        <path
           id="path2987-8-3"
           d="m 441.88538,766.43713 a 24.840003,24.840003 0 0 1 -24.84,24.84001 24.840003,24.840003 0 0 1 -24.84,-24.84001 24.840003,24.840003 0 0 1 24.84,-24.84 24.840003,24.840003 0 0 1 24.84,24.84 z"
           style="fill:none;stroke:#0000ff;stroke-width:0.86426884;stroke-linecap:round;stroke-miterlimit:4;stroke-dasharray:none;stroke-opacity:1"
           inkscape:connector-curvature="0" />
        <path
           id="path2987-8-4"
           d="m 412.21018,858.44604 a 24.840003,24.840003 0 0 1 -24.84,24.84001 24.840003,24.840003 0 0 1 -24.84,-24.84001 24.840003,24.840003 0 0 1 24.84,-24.84 24.840003,24.840003 0 0 1 24.84,24.84 z"
           style="fill:none;stroke:#0000ff;stroke-width:0.86426884;stroke-linecap:round;stroke-miterlimit:4;stroke-dasharray:none;stroke-opacity:1"
           inkscape:connector-curvature="0" />
        <path
           id="path2987-8-34"
           d="m 334.38193,915.14166 a 24.840003,24.839998 0 0 1 -24.84,24.84 24.840003,24.839998 0 0 1 -24.84,-24.84 24.840003,24.839998 0 0 1 24.84,-24.84 24.840003,24.839998 0 0 1 24.84,24.84 z"
           style="fill:none;stroke:#0000ff;stroke-width:0.86426866;stroke-linecap:round;stroke-miterlimit:4;stroke-dasharray:none;stroke-opacity:1"
           inkscape:connector-curvature="0" />
        <path
           id="path2987-8-22"
           d="m 238.16936,915.14166 a 24.840003,24.839998 0 0 1 -24.84,24.84 24.840003,24.839998 0 0 1 -24.84,-24.84 24.840003,24.839998 0 0 1 24.84,-24.84 24.840003,24.839998 0 0 1 24.84,24.84 z"
           style="fill:none;stroke:#0000ff;stroke-width:0.86426866;stroke-linecap:round;stroke-miterlimit:4;stroke-dasharray:none;stroke-opacity:1"
           inkscape:connector-curvature="0" />
        <path
           id="path2987-8-1"
           d="m 160.28611,858.44604 a 24.839998,24.840003 0 0 1 -24.84,24.84001 24.839998,24.840003 0 0 1 -24.84001,-24.84001 24.839998,24.840003 0 0 1 24.84001,-24.84 24.839998,24.840003 0 0 1 24.84,24.84 z"
           style="fill:none;stroke:#0000ff;stroke-width:0.86426866;stroke-linecap:round;stroke-miterlimit:4;stroke-dasharray:none;stroke-opacity:1"
           inkscape:connector-curvature="0" />
        <path
           id="path2987-8-9"
           d="m 130.66254,766.43713 a 24.840002,24.840003 0 0 1 -24.84,24.84001 24.840002,24.840003 0 0 1 -24.840001,-24.84001 24.840002,24.840003 0 0 1 24.840001,-24.84 24.840002,24.840003 0 0 1 24.84,24.84 z"
           style="fill:none;stroke:#0000ff;stroke-width:0.86426884;stroke-linecap:round;stroke-miterlimit:4;stroke-dasharray:none;stroke-opacity:1"
           inkscape:connector-curvature="0" />
        <path
           id="path2987-8-20"
           d="m 160.28611,674.56976 a 24.839998,24.840003 0 0 1 -24.84,24.84002 24.839998,24.840003 0 0 1 -24.84001,-24.84002 24.839998,24.840003 0 0 1 24.84001,-24.84 24.839998,24.840003 0 0 1 24.84,24.84 z"
           style="fill:none;stroke:#0000ff;stroke-width:0.86426866;stroke-linecap:round;stroke-miterlimit:4;stroke-dasharray:none;stroke-opacity:1"
           inkscape:connector-curvature="0" />
        <path
           id="path2989-27-9"
           d="m 268.69023,727.67245 a 6.8544002,6.8543955 0 0 1 -6.8544,6.8544 6.8544002,6.8543955 0 0 1 -6.85441,-6.8544 6.8544002,6.8543955 0 0 1 6.85441,-6.85441 6.8544002,6.8543955 0 0 1 6.8544,6.85441 z"
           style="fill:none;stroke:#000000;stroke-width:0.73069978;stroke-linecap:round;stroke-miterlimit:4;stroke-dasharray:none;stroke-opacity:1"
           inkscape:connector-curvature="0" />
        <path
           id="path2989-27-9-8"
           d="m 292.07049,799.87772 a 6.8544002,6.8543955 0 0 1 -6.85441,6.85441 6.8544002,6.8543955 0 0 1 -6.8544,-6.85441 6.8544002,6.8543955 0 0 1 6.8544,-6.8544 6.8544002,6.8543955 0 0 1 6.85441,6.8544 z"
           style="fill:none;stroke:#000000;stroke-width:0.73069978;stroke-linecap:round;stroke-miterlimit:4;stroke-dasharray:none;stroke-opacity:1"
           inkscape:connector-curvature="0" />
        <path
           id="path2989-27-9-0"
           d="m 245.53304,799.87772 a 6.8544002,6.8543955 0 0 1 -6.85441,6.85441 6.8544002,6.8543955 0 0 1 -6.8544,-6.85441 6.8544002,6.8543955 0 0 1 6.8544,-6.8544 6.8544002,6.8543955 0 0 1 6.85441,6.8544 z"
           style="fill:none;stroke:#000000;stroke-width:0.73069978;stroke-linecap:round;stroke-miterlimit:4;stroke-dasharray:none;stroke-opacity:1"
           inkscape:connector-curvature="0" />
        <path
           id="path2989-27-9-7"
           d="m 230.60911,755.27164 a 6.8544053,6.8544007 0 0 1 -6.8544,6.8544 6.8544053,6.8544007 0 0 1 -6.8544,-6.8544 6.8544053,6.8544007 0 0 1 6.8544,-6.8544 6.8544053,6.8544007 0 0 1 6.8544,6.8544 z"
           style="fill:none;stroke:#000000;stroke-width:0.73070031;stroke-linecap:round;stroke-miterlimit:4;stroke-dasharray:none;stroke-opacity:1"
           inkscape:connector-curvature="0" />
        <path
           id="path2989-27-9-05"
           d="m 306.79543,755.27164 a 6.8544053,6.8544007 0 0 1 -6.8544,6.8544 6.8544053,6.8544007 0 0 1 -6.8544,-6.8544 6.8544053,6.8544007 0 0 1 6.8544,-6.8544 6.8544053,6.8544007 0 0 1 6.8544,6.8544 z"
           style="fill:none;stroke:#000000;stroke-width:0.73070031;stroke-linecap:round;stroke-miterlimit:4;stroke-dasharray:none;stroke-opacity:1"
           inkscape:connector-curvature="0" />
        <circle
           style="fill:none;fill-rule:evenodd;stroke:#0000ff;stroke-width:1.06666672px;stroke-linecap:butt;stroke-linejoin:miter;stroke-opacity:1"
           id="path4179"
           cx="261.43814"
           cy="766.43713"
           r="70.857155" />
      </g>
      <g
         transform="translate(1.3228286,1.32287)"
         inkscape:label="Engrave"
         id="layer3" />
      <g
         transform="translate(1.3228286,1.32287)"
         inkscape:label="Guide"
         id="layer2" />
    </g>
  </g>
</svg>
