<?xml version="1.0" encoding="UTF-8" standalone="no"?>
<!-- Created with Inkscape (http://www.inkscape.org/) -->

<svg
   xmlns:dc="http://purl.org/dc/elements/1.1/"
   xmlns:cc="http://creativecommons.org/ns#"
   xmlns:rdf="http://www.w3.org/1999/02/22-rdf-syntax-ns#"
   xmlns:svg="http://www.w3.org/2000/svg"
   xmlns="http://www.w3.org/2000/svg"
   xmlns:sodipodi="http://sodipodi.sourceforge.net/DTD/sodipodi-0.dtd"
   xmlns:inkscape="http://www.inkscape.org/namespaces/inkscape"
   width="100.3298mm"
   height="200.65981mm"
   viewBox="0 0 355.49929 710.9993"
   id="svg2"
   version="1.1"
   inkscape:version="0.91 r13725"
   sodipodi:docname="gear_cutout.svg">
  <defs
     id="defs4">
    <marker
       refY="0"
       refX="0"
       style="overflow:visible"
       id="DistanceX"
       orient="auto">
      <path
         inkscape:connector-curvature="0"
         style="stroke:#000000;stroke-width:0.5"
         d="M 3,-3 -3,3 M 0,-5 V 5"
         id="path4161" />
    </marker>
    <pattern
       height="8"
       width="8"
       patternUnits="userSpaceOnUse"
       y="0"
       x="0"
       id="Hatch">
      <path
         linecap="square"
         stroke="#000000"
         stroke-width="0.25"
         d="M8 4 l-4,4"
         id="path4164" />
      <path
         linecap="square"
         stroke="#000000"
         stroke-width="0.25"
         d="M6 2 l-4,4"
         id="path4166" />
      <path
         linecap="square"
         stroke="#000000"
         stroke-width="0.25"
         d="M4 0 l-4,4"
         id="path4168" />
    </pattern>
  </defs>
  <sodipodi:namedview
     id="base"
     pagecolor="#ffffff"
     bordercolor="#666666"
     borderopacity="1.0"
     inkscape:pageopacity="0.0"
     inkscape:pageshadow="2"
     inkscape:zoom="0.98994949"
     inkscape:cx="-60.943156"
     inkscape:cy="376.69138"
     inkscape:document-units="mm"
     inkscape:current-layer="layer1"
     showgrid="false"
     units="mm"
     fit-margin-top="0"
     fit-margin-left="0"
     fit-margin-right="0"
     fit-margin-bottom="0"
     inkscape:window-width="1920"
     inkscape:window-height="1018"
     inkscape:window-x="-8"
     inkscape:window-y="-8"
     inkscape:window-maximized="1" />
  <metadata
     id="metadata7">
    <rdf:RDF>
      <cc:Work
         rdf:about="">
        <dc:format>image/svg+xml</dc:format>
        <dc:type
           rdf:resource="http://purl.org/dc/dcmitype/StillImage" />
        <dc:title />
      </cc:Work>
    </rdf:RDF>
  </metadata>
  <g
     inkscape:label="Cut"
     inkscape:groupmode="layer"
     id="layer1"
     transform="translate(1966.3211,405.99459)">
    <path
       style="fill:none;fill-opacity:1;stroke:#000000;stroke-width:0.70866142;stroke-miterlimit:4;stroke-dasharray:none;stroke-opacity:1"
       d="m -1966.2761,-405.94959 355.4093,0 0,355.40928 -355.4093,0 z"
       id="rect5710"
       inkscape:connector-curvature="0" />
    <path
       style="fill:none;fill-opacity:1;stroke:#000000;stroke-width:0.70866142;stroke-miterlimit:4;stroke-dasharray:none;stroke-opacity:1"
       d="m -1610.8668,-50.44957 0,355.40928 -355.4093,0 0,-355.40928"
       id="rect5712"
       inkscape:connector-curvature="0"
       sodipodi:nodetypes="cccc" />
    <path
       style="color:#000000;fill:none;stroke:#000000;stroke-width:0.70866142;stroke-miterlimit:4;stroke-dasharray:none"
       inkscape:connector-curvature="0"
       d="m -1648.382,-222.52319 0.4302,0.0567 0.4293,0.0693 0.4284,0.0792 0.4283,0.0891 0.8559,0.20069 0.854,0.22858 1.7045,0.52826 1.6982,0.61285 1.6928,0.68755 1.6865,0.75774 1.6784,0.82254 1.6712,0.88463 1.6631,0.94402 1.6541,1.00163 -1.2914,11.08264 -1.8395,0.59486 -1.8359,0.53636 -1.8296,0.47606 -1.8233,0.41487 -1.8152,0.34917 -1.8052,0.28078 -1.7936,0.20518 -1.7801,0.12329 -0.8838,0.0252 -0.8792,-9e-4 -0.4374,-0.0126 -0.4356,-0.0207 -0.4337,-0.0315 -0.4311,-0.0441 -3.0031,12.44154 0.404,0.15749 0.4005,0.17009 0.3969,0.17998 0.3951,0.18899 0.782,0.39957 0.7749,0.42567 1.5281,0.92152 1.5029,1.00073 1.4786,1.07361 1.4561,1.13842 1.4327,1.2005 1.4111,1.25901 1.3896,1.3148 1.3661,1.36789 -3.9067,10.4518 -1.9286,0.13679 -1.9106,0.0819 -1.8907,0.0243 -1.8692,-0.0333 -1.8458,-0.0954 -1.8206,-0.15929 -1.7909,-0.22948 -1.7576,-0.30778 -0.8639,-0.18628 -0.8532,-0.21149 -0.4221,-0.11609 -0.4175,-0.12509 -0.414,-0.13409 -0.4077,-0.14579 -5.8937,11.36163 0.3545,0.24928 0.3483,0.26098 0.3429,0.26908 0.3375,0.27808 0.6641,0.57505 0.6507,0.59936 1.2635,1.2599 1.2195,1.3319 1.1789,1.39579 1.1402,1.45429 1.1051,1.50828 1.0683,1.56048 1.034,1.60818 0.999,1.65587 -6.2943,9.21349 -1.9051,-0.32938 -1.8746,-0.37797 -1.8413,-0.42836 -1.8071,-0.47967 -1.7702,-0.53456 -1.7288,-0.59035 -1.6838,-0.65155 -1.6334,-0.71904 -0.7947,-0.38787 -0.7775,-0.40947 -0.3816,-0.21419 -0.3753,-0.22048 -0.3698,-0.22948 -0.3609,-0.23938 -8.4415,9.62116 0.2844,0.32667 0.2754,0.33657 0.2681,0.34378 0.2619,0.35097 0.5076,0.71725 0.4878,0.73794 0.9251,1.52538 0.8649,1.58478 0.8108,1.63697 0.7596,1.68557 0.7118,1.72877 0.6642,1.77016 0.6182,1.80976 0.5742,1.84666 -8.3155,7.43883 -1.772,-0.77484 -1.7297,-0.81624 -1.6856,-0.85673 -1.6397,-0.89813 -1.5902,-0.94223 -1.5371,-0.98722 -1.4795,-1.03582 -1.4129,-1.08802 -0.6795,-0.56696 -0.6569,-0.58405 -0.3186,-0.29878 -0.3123,-0.30508 -0.3042,-0.31047 -0.2934,-0.31948 -10.4978,7.32184 0.198,0.38517 0.1863,0.39327 0.1781,0.39777 0.1701,0.40317 0.3213,0.81803 0.297,0.83244 0.5337,1.70267 0.4598,1.74587 0.396,1.78456 0.3339,1.817858 0.2772,1.848457 0.2214,1.878156 0.1673,1.905153 0.1161,1.929452 -9.8553,5.233097 -1.5344,-1.17621 -1.484,-1.205907 -1.4318,-1.235605 -1.3769,-1.264403 -1.3184,-1.295 -1.2564,-1.326498 -1.1888,-1.359795 -1.1114,-1.395792 -0.5238,-0.712746 -0.4986,-0.723544 -0.2384,-0.367172 -0.2295,-0.369871 -0.2205,-0.375271 -0.2088,-0.379771 -11.9459,4.596846 0.1,0.421168 0.088,0.425667 0.077,0.429267 0.069,0.431967 0.1152,0.872032 0.089,0.879233 0.1107,1.780963 0.03,1.805261 -0.043,1.826859 -0.1107,1.844858 -0.1737,1.861056 -0.2349,1.876356 -0.2925,1.889854 -0.3501,1.901554 -10.8209,2.72319 -1.2077,-1.510083 -1.1529,-1.526283 -1.0943,-1.541581 -1.034,-1.55778 -0.9711,-1.573079 -0.9017,-1.588378 -0.8289,-1.604576 -0.746,-1.620775 -0.3375,-0.817137 -0.3105,-0.822537 -0.1431,-0.413068 -0.135,-0.414868 -0.1242,-0.416668 -0.1115,-0.418468 -12.6983,1.603676 0,0.433767 -0.017,0.434667 -0.027,0.434666 -0.037,0.436466 -0.096,0.873833 -0.1233,0.874733 -0.3194,1.755765 -0.4032,1.760264 -0.4788,1.762964 -0.549,1.764764 -0.6146,1.766564 -0.6768,1.765664 -0.7361,1.763865 -0.7947,1.762964 -11.1584,0.054 -0.8118,-1.754865 -0.7532,-1.757565 -0.6939,-1.759364 -0.6317,-1.759365 -0.5652,-1.759364 -0.4959,-1.758465 -0.4212,-1.756665 -0.3356,-1.752165 -0.1323,-0.873832 -0.1044,-0.872933 -0.041,-0.435567 -0.032,-0.434666 -0.021,-0.434667 -0.01,-0.432866 -12.7135,-1.481286 -0.1071,0.419367 -0.1206,0.417568 -0.1305,0.416668 -0.1404,0.413968 -0.3024,0.825237 -0.3294,0.820736 -0.7298,1.627975 -0.8136,1.612676 -0.8864,1.597377 -0.9558,1.582078 -1.0187,1.567679 -1.0799,1.552381 -1.1376,1.537081 -1.1933,1.520883 -10.847,-2.617898 -0.3681,-1.897954 -0.3105,-1.886255 -0.2529,-1.874555 -0.1917,-1.859257 -0.1287,-1.843958 -0.06,-1.82596 0.012,-1.80616 0.093,-1.781863 0.081,-0.880132 0.1071,-0.872933 0.065,-0.431967 0.074,-0.430167 0.084,-0.426567 0.095,-0.422967 -11.9891,-4.480755 -0.2052,0.38247 -0.2169,0.376171 -0.2267,0.372571 -0.234,0.369872 -0.4914,0.728044 -0.5166,0.718145 -1.0988,1.405691 -1.1753,1.371495 -1.2429,1.338197 -1.3067,1.307599 -1.3643,1.278802 -1.4201,1.249103 -1.4723,1.219406 -1.5227,1.191509 -9.9048,-5.136805 0.097,-1.931251 0.1485,-1.906953 0.2033,-1.879955 0.2592,-1.851158 0.3168,-1.821464 0.378,-1.78726 0.4437,-1.75037 0.5165,-1.70807 0.2898,-0.83513 0.3123,-0.82164 0.1665,-0.40407 0.1746,-0.40047 0.1827,-0.39417 0.1943,-0.38697 -10.5689,-7.22014 -0.2898,0.32218 -0.3006,0.31317 -0.3096,0.30778 -0.3158,0.30237 -0.6516,0.59036 -0.6732,0.57325 -1.403,1.10242 -1.4696,1.04932 -1.5272,1.00252 -1.5812,0.95753 -1.6307,0.91433 -1.6775,0.87293 -1.7216,0.83244 -1.7639,0.79194 -8.3875,-7.35874 0.5562,-1.85206 0.6011,-1.81516 0.6471,-1.77646 0.6948,-1.73597 0.7433,-1.69186 0.7947,-1.64508 0.8495,-1.59378 0.9108,-1.53438 0.4805,-0.74244 0.5004,-0.72174 0.2583,-0.35368 0.2646,-0.34647 0.2727,-0.33927 0.2807,-0.32938 -8.5332,-9.53926 -0.3591,0.24298 -0.3672,0.23308 -0.3735,0.22498 -0.3798,0.21778 -0.7739,0.41667 -0.7902,0.39507 -1.6262,0.73525 -1.6784,0.66774 -1.7225,0.60746 -1.7648,0.55075 -1.8016,0.49767 -1.8377,0.44636 -1.871,0.39597 -1.9025,0.34737 -6.3824,-9.15229 0.9827,-1.66487 1.0188,-1.61898 1.0538,-1.57038 1.0889,-1.51908 1.1268,-1.46509 1.1654,-1.40659 1.2068,-1.34359 1.2509,-1.27251 0.6444,-0.60565 0.6588,-0.58136 0.3356,-0.28077 0.3402,-0.27358 0.3456,-0.26368 0.3519,-0.25288 -6.0027,-11.30403 -0.4067,0.14939 -0.4122,0.13859 -0.4167,0.12869 -0.4212,0.12059 -0.8504,0.21958 -0.8631,0.19528 -1.7539,0.32398 -1.7891,0.24658 -1.8188,0.17729 -1.8449,0.11339 -1.8683,0.0513 -1.8917,-0.006 -1.9106,-0.063 -1.9304,-0.11789 -4.0074,-10.414 1.3535,-1.38139 1.376,-1.3274 1.3985,-1.2725 1.4219,-1.21491 1.4445,-1.15281 1.4687,-1.08712 1.493,-1.01602 1.5191,-0.93593 0.7703,-0.43286 0.7794,-0.40767 0.3924,-0.19259 0.3959,-0.18358 0.3978,-0.17369 0.4023,-0.16109 -3.1228,-12.41274 -0.4302,0.0486 -0.4338,0.0351 -0.4355,0.0252 -0.4374,0.0171 -0.8784,0.01 -0.8837,-0.018 -1.7819,-0.10529 -1.7954,-0.18809 -1.808,-0.26278 -1.8188,-0.33207 -1.8269,-0.39687 -1.834,-0.45897 -1.8413,-0.51836 -1.8449,-0.57685 -1.3985,-11.07005 1.6442,-1.01692 1.6532,-0.96023 1.6631,-0.90083 1.6712,-0.83873 1.6784,-0.77394 1.6856,-0.70375 1.6928,-0.62905 1.6991,-0.54536 0.8522,-0.23668 0.8532,-0.20878 0.4274,-0.0927 0.4284,-0.0837 0.4284,-0.0738 0.4292,-0.0603 -0.062,-12.79882 -0.4293,-0.0558 -0.4293,-0.0693 -0.4293,-0.0801 -0.4283,-0.0882 -0.8559,-0.20159 -0.854,-0.22768 -1.7036,-0.52916 -1.6991,-0.61195 -1.6928,-0.68845 -1.6856,-0.75774 -1.6793,-0.82254 -1.6712,-0.88463 -1.6631,-0.94403 -1.6541,-1.00072 1.2914,-11.08355 1.8404,-0.59395 1.835,-0.53636 1.8305,-0.47696 1.8232,-0.41397 1.8143,-0.35007 1.8053,-0.27988 1.7945,-0.20609 1.7801,-0.12239 0.8838,-0.0261 0.8792,0.002 0.4374,0.0117 0.4356,0.0216 0.4328,0.0306 0.432,0.0441 3.0022,-12.44154 -0.4032,-0.15749 -0.4004,-0.17009 -0.3969,-0.17909 -0.3951,-0.18898 -0.7829,-0.39957 -0.7749,-0.42657 -1.5281,-0.92063 -1.5029,-1.00162 -1.4786,-1.07272 -1.4552,-1.13931 -1.4336,-1.20051 -1.4112,-1.259 -1.3886,-1.3139 -1.3661,-1.36879 3.9058,-10.4518 1.9286,-0.13679 1.9105,-0.081 1.8908,-0.0252 1.8701,0.0342 1.8458,0.0945 1.8197,0.16019 1.7909,0.22948 1.7576,0.30688 0.8648,0.18628 0.8532,0.21149 0.4212,0.11699 0.4184,0.12419 0.4131,0.13409 0.4086,0.14669 5.8928,-11.36163 -0.3546,-0.24928 -0.3473,-0.26098 -0.3429,-0.26998 -0.3384,-0.27718 -0.6642,-0.57595 -0.6497,-0.59936 -1.2635,-1.2599 -1.2195,-1.3319 -1.1789,-1.39579 -1.1411,-1.45429 -1.1043,-1.50828 -1.0691,-1.55958 -1.0331,-1.60908 -0.9999,-1.65497 6.2942,-9.21349 1.9052,0.32847 1.8746,0.37797 1.8422,0.42837 1.8071,0.48056 1.7693,0.53366 1.7288,0.59126 1.6838,0.65155 1.6334,0.71814 0.7946,0.38787 0.7776,0.40947 0.3816,0.21418 0.3761,0.22139 0.3699,0.22948 0.3609,0.23938 8.4406,-9.62116 -0.2844,-0.32757 -0.2754,-0.33658 -0.2682,-0.34377 -0.2618,-0.35007 -0.5067,-0.71815 -0.4878,-0.73704 -0.9251,-1.52538 -0.8658,-1.58568 -0.8108,-1.63698 -0.7596,-1.68467 -0.7109,-1.72966 -0.6642,-1.77017 -0.6192,-1.80976 -0.5741,-1.84575 8.3164,-7.43973 1.7711,0.77574 1.7297,0.81534 1.6856,0.85673 1.6397,0.89903 1.5902,0.94133 1.538,0.98722 1.4786,1.03582 1.4138,1.08892 0.6786,0.56695 0.6569,0.58316 0.3195,0.29968 0.3123,0.30417 0.3033,0.31138 0.2942,0.31857 10.4979,-7.32093 -0.198,-0.38607 -0.1872,-0.39237 -0.1773,-0.39867 -0.1709,-0.40227 -0.3204,-0.81894 -0.2979,-0.83243 -0.5328,-1.70267 -0.4607,-1.74587 -0.3951,-1.78366 -0.3348,-1.81786 -0.2763,-1.84936 -0.2214,-1.87725 -0.1683,-1.90516 -0.1152,-1.93035 9.8554,-5.23309 1.5335,1.17711 1.4849,1.2059 1.4318,1.23471 1.3769,1.2653 1.3184,1.295 1.2563,1.3265 1.188,1.35979 1.1123,1.3949 0.5238,0.71274 0.4976,0.72444 0.2385,0.36628 0.2304,0.37077 0.2205,0.37437 0.2088,0.37977 11.945,-4.59595 -0.1,-0.42206 -0.087,-0.42567 -0.077,-0.42927 -0.069,-0.43196 -0.1152,-0.87114 -0.09,-0.88013 -0.1098,-1.78096 -0.03,-1.80526 0.043,-1.82596 0.1107,-1.84486 0.1737,-1.86196 0.234,-1.87635 0.2934,-1.88986 0.3491,-1.90155 10.821,-2.72229 1.2086,1.50918 1.1519,1.52629 1.0953,1.54158 1.034,1.55778 0.9702,1.57308 0.9026,1.58837 0.828,1.60458 0.746,1.62167 0.3375,0.81714 0.3105,0.82164 0.144,0.41307 0.135,0.41486 0.1241,0.41667 0.1116,0.41937 12.6983,-1.60458 0,-0.43376 0.017,-0.43377 0.028,-0.43557 0.036,-0.43556 0.096,-0.87384 0.1242,-0.87563 0.3185,-1.75576 0.4041,-1.75937 0.4788,-1.76386 0.5489,-1.76477 0.6138,-1.76566 0.6768,-1.76566 0.737,-1.76477 0.7947,-1.76296 11.1575,-0.054 0.8118,1.75487 0.7541,1.75756 0.6939,1.75937 0.6308,1.76026 0.5661,1.75937 0.4959,1.75846 0.4202,1.75576 0.3366,1.75217 0.1323,0.87473 0.1044,0.87204 0.04,0.43556 0.032,0.43557 0.022,0.43376 0.01,0.43377 12.7126,1.48129 0.108,-0.42027 0.1206,-0.41757 0.1305,-0.41577 0.1395,-0.41486 0.3024,-0.82524 0.3303,-0.82074 0.7298,-1.62797 0.8127,-1.61178 0.8873,-1.59737 0.9549,-1.58298 1.0196,-1.56678 1.079,-1.55238 1.1376,-1.53708 1.1933,-1.52179 10.847,2.6179 0.3681,1.89796 0.3114,1.88715 0.2529,1.87366 0.1917,1.86015 0.1278,1.84396 0.061,1.82596 -0.013,1.80526 -0.093,1.78186 -0.081,0.88104 -0.1071,0.87203 -0.065,0.43287 -0.073,0.42926 -0.084,0.42747 -0.096,0.42207 11.99,4.48075 0.2043,-0.38157 0.2168,-0.37707 0.2268,-0.37257 0.2349,-0.36897 0.4914,-0.72895 0.5166,-0.71724 1.0979,-1.40659 1.1753,-1.3706 1.2437,-1.33909 1.3059,-1.3076 1.3643,-1.27791 1.4201,-1.2491 1.4723,-1.22031 1.5227,-1.1915 9.9057,5.1377 -0.097,1.93125 -0.1494,1.90606 -0.2034,1.87995 -0.2582,1.85206 -0.3168,1.82056 -0.378,1.78726 -0.4446,1.75037 -0.5165,1.70806 -0.2889,0.83604 -0.3132,0.82074 -0.1665,0.40497 -0.1737,0.39956 -0.1836,0.39417 -0.1935,0.38787 10.5681,7.21925 0.2907,-0.32128 0.3006,-0.31407 0.3096,-0.30778 0.3158,-0.30238 0.6516,-0.58945 0.6732,-0.57326 1.403,-1.10241 1.4687,-1.05022 1.5281,-1.00162 1.5812,-0.95753 1.6307,-0.91433 1.6775,-0.87293 1.7216,-0.83244 1.7639,-0.79284 8.3875,7.35874 -0.5562,1.85205 -0.6012,1.81516 -0.647,1.77647 -0.6948,1.73596 -0.7433,1.69277 -0.7947,1.64508 -0.8495,1.59287 -0.9108,1.53439 -0.4805,0.74244 -0.5004,0.72264 -0.2583,0.35278 -0.2655,0.34647 -0.2718,0.33927 -0.2817,0.32938 8.5342,9.53926 0.3591,-0.24298 0.3672,-0.23308 0.3735,-0.22408 0.3797,-0.21779 0.7731,-0.41756 0.7911,-0.39507 1.6262,-0.73435 1.6775,-0.66775 1.7233,-0.60745 1.7639,-0.55166 1.8026,-0.49676 1.8377,-0.44636 1.871,-0.39597 1.9016,-0.34738 6.3833,9.1514 -0.9836,1.66577 -1.0179,1.61808 -1.0538,1.57037 -1.0898,1.51909 -1.1268,1.46508 -1.1654,1.4075 -1.2059,1.34359 -1.2519,1.27161 -0.6443,0.60565 -0.6588,0.58225 -0.3348,0.28078 -0.3401,0.27268 -0.3456,0.26458 -0.3519,0.25288 6.0026,11.30403 0.4068,-0.15029 0.4122,-0.13859 0.4167,-0.12869 0.4202,-0.12059 0.8514,-0.21958 0.8621,-0.19439 1.7549,-0.32397 1.7891,-0.24748 1.8179,-0.17729 1.8449,-0.11249 1.8692,-0.0522 1.8908,0.007 1.9115,0.063 1.9294,0.11789 4.0075,10.4131 -1.3526,1.38139 -1.376,1.3283 -1.3994,1.2725 -1.4211,1.21401 -1.4453,1.15281 -1.4678,1.08802 -1.493,1.01512 -1.5191,0.93593 -0.7713,0.43376 -0.7784,0.40767 -0.3933,0.19169 -0.3951,0.18448 -0.3986,0.17369 -0.4023,0.16109 3.1228,12.41184 0.4311,-0.0486 0.4337,-0.0351 0.4347,-0.0252 0.4374,-0.0162 0.8792,-0.01 0.8838,0.0171 1.781,0.10529 1.7963,0.18809 1.808,0.26368 1.8179,0.33117 1.8268,0.39777 1.835,0.45806 1.8404,0.51926 1.8458,0.57596 1.3985,11.07005 -1.6442,1.01782 -1.6541,0.96023 -1.6622,0.89993 -1.6712,0.83963 -1.6784,0.77304 -1.6865,0.70465 -1.6919,0.62905 -1.6991,0.54446 -0.8522,0.23668 -0.8541,0.20968 -0.4274,0.0927 -0.4275,0.0837 -0.4284,0.0729 -0.4293,0.0603 z"
       id="path4182" />
  </g>
</svg>
