  0
SECTION
  2
HEADER
  9
$ACADVER
  1
AC1015
  9
$ACADMAINTVER
 70
     6
  9
$DWGCODEPAGE
  3
ANSI_932
  9
$INSBASE
 10
0.0
 20
0.0
 30
0.0
  9
$EXTMIN
 10
51.322621
 20
-68.692103
 30
1.000000E+20
  9
$EXTMAX
 10
151.877379
 20
132.192103
 30
-1.000000E+20
  9
$LIMMIN
 10
51.322621
 20
-68.692103
  9
$LIMMAX
 10
151.877379
 20
132.192103
  9
$ORTHOMODE
 70
     0
  9
$REGENMODE
 70
     1
  9
$FILLMODE
 70
     1
  9
$QTEXTMODE
 70
     0
  9
$MIRRTEXT
 70
     1
  9
$LTSCALE
 40
1.0
  9
$ATTMODE
 70
     1
  9
$TEXTSIZE
 40
0.2
  9
$TRACEWID
 40
0.05
  9
$TEXTSTYLE
  7
Standard
  9
$CLAYER
  8
0
  9
$CELTYPE
  6
Continuous
  9
$CECOLOR
 62
   256
  9
$CELTSCALE
 40
1.0
  9
$DISPSILH
 70
     0
  9
$DIMSCALE
 40
1.0
  9
$DIMASZ
 40
0.18
  9
$DIMEXO
 40
0.0625
  9
$DIMDLI
 40
0.38
  9
$DIMRND
 40
0.0
  9
$DIMDLE
 40
0.0
  9
$DIMEXE
 40
0.18
  9
$DIMTP
 40
0.0
  9
$DIMTM
 40
0.0
  9
$DIMTXT
 40
0.18
  9
$DIMCEN
 40
0.09
  9
$DIMTSZ
 40
0.0
  9
$DIMTOL
 70
     0
  9
$DIMLIM
 70
     0
  9
$DIMTIH
 70
     1
  9
$DIMTOH
 70
     1
  9
$DIMSE1
 70
     0
  9
$DIMSE2
 70
     0
  9
$DIMTAD
 70
     0
  9
$DIMZIN
 70
     0
  9
$DIMBLK
  1

  9
$DIMASO
 70
     1
  9
$DIMSHO
 70
     1
  9
$DIMPOST
  1

  9
$DIMAPOST
  1

  9
$DIMALT
 70
     0
  9
$DIMALTD
 70
     2
  9
$DIMALTF
 40
25.4
  9
$DIMLFAC
 40
1.0
  9
$DIMTOFL
 70
     0
  9
$DIMTVP
 40
0.0
  9
$DIMTIX
 70
     0
  9
$DIMSOXD
 70
     0
  9
$DIMSAH
 70
     0
  9
$DIMBLK1
  1

  9
$DIMBLK2
  1

  9
$DIMSTYLE
  2
Standard
  9
$DIMCLRD
 70
     0
  9
$DIMCLRE
 70
     0
  9
$DIMCLRT
 70
     0
  9
$DIMTFAC
 40
1.0
  9
$DIMGAP
 40
0.09
  9
$DIMJUST
 70
     0
  9
$DIMSD1
 70
     0
  9
$DIMSD2
 70
     0
  9
$DIMTOLJ
 70
     1
  9
$DIMTZIN
 70
     0
  9
$DIMALTZ
 70
     0
  9
$DIMALTTZ
 70
     0
  9
$DIMUPT
 70
     0
  9
$DIMDEC
 70
     4
  9
$DIMTDEC
 70
     4
  9
$DIMALTU
 70
     2
  9
$DIMALTTD
 70
     2
  9
$DIMTXSTY
  7
Standard
  9
$DIMAUNIT
 70
     0
  9
$DIMADEC
 70
     0
  9
$DIMALTRND
 40
0.0
  9
$DIMAZIN
 70
     0
  9
$DIMDSEP
 70
     0
  9
$DIMATFIT
 70
     3
  9
$DIMFRAC
 70
     0
  9
$DIMLDRBLK
  1

  9
$DIMLUNIT
 70
     2
  9
$DIMLWD
 70
     0
  9
$DIMLWE
 70
     0
  9
$DIMTMOVE
 70
     0
  9
$LUNITS
 70
     2
  9
$LUPREC
 70
     4
  9
$SKETCHINC
 40
0.1
  9
$FILLETRAD
 40
0.0
  9
$AUNITS
 70
     0
  9
$AUPREC
 70
     0
  9
$MENU
  1
acad
  9
$ELEVATION
 40
0.0
  9
$PELEVATION
 40
0.0
  9
$THICKNESS
 40
0.0
  9
$LIMCHECK
 70
     0
  9
$CHAMFERA
 40
0.0
  9
$CHAMFERB
 40
0.0
  9
$CHAMFERC
 40
0.0
  9
$CHAMFERD
 40
0.0
  9
$SKPOLY
 70
     0
  9
$TDCREATE
 40
0.000000000
  9
$TDUCREATE
 40
0.000000000
  9
$TDUPDATE
 40
0.000000000
  9
$TDUUPDATE
 40
0.000000000
  9
$TDINDWG
 40
0.0000000000
  9
$TDUSRTIMER
 40
0.0000000000
  9
$USRTIMER
 70
     1
  9
$ANGBASE
 50
0.0
  9
$ANGDIR
 70
     0
  9
$PDMODE
 70
     0
  9
$PDSIZE
 40
0.0
  9
$PLINEWID
 40
0.0
  9
$SPLFRAME
 70
     0
  9
$SPLINETYPE
 70
     6
  9
$SPLINESEGS
 70
     8
  9
$HANDSEED
  5
33D
  9
$SURFTAB1
 70
     6
  9
$SURFTAB2
 70
     6
  9
$SURFTYPE
 70
     6
  9
$SURFU
 70
     6
  9
$SURFV
 70
     6
  9
$UCSBASE
  2

  9
$UCSNAME
  2

  9
$UCSORG
 10
0.0
 20
0.0
 30
0.0
  9
$UCSXDIR
 10
1.0
 20
0.0
 30
0.0
  9
$UCSYDIR
 10
0.0
 20
1.0
 30
0.0
  9
$UCSORTHOREF
  2

  9
$UCSORTHOVIEW
 70
     0
  9
$UCSORGTOP
 10
0.0
 20
0.0
 30
0.0
  9
$UCSORGBOTTOM
 10
0.0
 20
0.0
 30
0.0
  9
$UCSORGLEFT
 10
0.0
 20
0.0
 30
0.0
  9
$UCSORGRIGHT
 10
0.0
 20
0.0
 30
0.0
  9
$UCSORGFRONT
 10
0.0
 20
0.0
 30
0.0
  9
$UCSORGBACK
 10
0.0
 20
0.0
 30
0.0
  9
$PUCSBASE
  2

  9
$PUCSNAME
  2

  9
$PUCSORG
 10
0.0
 20
0.0
 30
0.0
  9
$PUCSXDIR
 10
1.0
 20
0.0
 30
0.0
  9
$PUCSYDIR
 10
0.0
 20
1.0
 30
0.0
  9
$PUCSORTHOREF
  2

  9
$PUCSORTHOVIEW
 70
     0
  9
$PUCSORGTOP
 10
0.0
 20
0.0
 30
0.0
  9
$PUCSORGBOTTOM
 10
0.0
 20
0.0
 30
0.0
  9
$PUCSORGLEFT
 10
0.0
 20
0.0
 30
0.0
  9
$PUCSORGRIGHT
 10
0.0
 20
0.0
 30
0.0
  9
$PUCSORGFRONT
 10
0.0
 20
0.0
 30
0.0
  9
$PUCSORGBACK
 10
0.0
 20
0.0
 30
0.0
  9
$USERI1
 70
     0
  9
$USERI2
 70
     0
  9
$USERI3
 70
     0
  9
$USERI4
 70
     0
  9
$USERI5
 70
     0
  9
$USERR1
 40
0.0
  9
$USERR2
 40
0.0
  9
$USERR3
 40
0.0
  9
$USERR4
 40
0.0
  9
$USERR5
 40
0.0
  9
$WORLDVIEW
 70
     1
  9
$SHADEDGE
 70
     3
  9
$SHADEDIF
 70
    70
  9
$TILEMODE
 70
     1
  9
$MAXACTVP
 70
    16
  9
$PINSBASE
 10
0.0
 20
0.0
 30
0.0
  9
$PLIMCHECK
 70
     0
  9
$PEXTMIN
 10
1.000000E+20
 20
1.000000E+20
 30
1.000000E+20
  9
$PEXTMAX
 10
-1.000000E+20
 20
-1.000000E+20
 30
-1.000000E+20
  9
$PLIMMIN
 10
0.0
 20
0.0
  9
$PLIMMAX
 10
12.0
 20
9.0
  9
$UNITMODE
 70
     0
  9
$VISRETAIN
 70
     0
  9
$PLINEGEN
 70
     1
  9
$PSLTSCALE
 70
     0
  9
$TREEDEPTH
 70
  3020
  9
$CMLSTYLE
  2
Standard
  9
$CMLJUST
 70
     0
  9
$CMLSCALE
 40
1.0
  9
$PROXYGRAPHICS
 70
     0
  9
$MEASUREMENT
 70
     1
  9
$CELWEIGHT
370
     0
  9
$ENDCAPS
280
     0
  9
$JOINSTYLE
280
     0
  9
$LWDISPLAY
290
     0
  9
$INSUNITS
 70
     0
  9
$HYPERLINKBASE
  1

  9
$STYLESHEET
  1

  9
$XEDIT
290
     1
  9
$CEPSNTYPE
380
     0
  9
$PSTYLEMODE
290
     1
  9
$FINGERPRINTGUID
  2

  9
$VERSIONGUID
  2

  9
$EXTNAMES
290
     1
  9
$PSVPSCALE
 40
0.0
  0
ENDSEC
  0
SECTION
  2
CLASSES
  0
CLASS
  1
LWPOLYLINE
  2
AcDbPolyline
  3
AutoCAD 2000
 90
    32768
280
     0
281
     1
  0
CLASS
  1
IMAGE
  2
AcDbRasterImage
  3
ISM
 90
    32895
280
     0
281
     1
  0
CLASS
  1
OLE2FRAME
  2
AcDbOle2Frame
  3
AutoCAD 2000
 90
    32768
280
     0
281
     1
  0
CLASS
  1
HATCH
  2
AcDbHatch
  3
AutoCAD 2000
 90
    32768
280
     0
281
     1
  0
CLASS
  1
DICTIONARYVAR
  2
AcDbDictionaryVar
  3
AutoCAD 2000
 90
    32768
280
     0
281
     0
  0
CLASS
  1
RASTERVARIABLES
  2
AcDbRasterVariables
  3
ISM
 90
    32768
280
     0
281
     0
  0
CLASS
  1
IMAGEDEF
  2
AcDbRasterImageDef
  3
ISM
 90
    32768
280
     0
281
     0
  0
CLASS
  1
IMAGEDEF_REACTOR
  2
AcDbRasterImageDefReactor
  3
ISM
 90
    32769
280
     0
281
     0
  0
CLASS
  1
IDBUFFER
  2
AcDbIdBuffer
  3
AutoCAD 2000
 90
    32768
280
     0
281
     0
  0
CLASS
  1
SPATIAL_FILTER
  2
AcDbSpatialFilter
  3
AutoCAD 2000
 90
    32768
280
     0
281
     0
  0
CLASS
  1
XRECORD
  2
AcDbXrecord
  3
AutoCAD 2000
 90
    32768
280
     0
281
     0
  0
CLASS
  1
SORTENTSTABLE
  2
AcDbSortentsTable
  3
AutoCAD 2000
 90
    32768
280
     0
281
     0
  0
CLASS
  1
LAYER_INDEX
  2
AcDbLayerIndex
  3
AutoCAD 2000
 90
    32768
280
     0
281
     0
  0
CLASS
  1
SPATIAL_INDEX
  2
AcDbSpatialIndex
  3
AutoCAD 2000
 90
    32768
280
     0
281
     0
  0
CLASS
  1
OBJECT_PTR
  2
CAseDLPNTableRecord
  3
"ASE-LPNTableRecord"
 90
    32769
280
     0
281
     0
  0
CLASS
  1
LAYOUT
  2
AcDbLayout
  3
AutoCAD 2000
 90
        0
280
     0
281
     0
  0
CLASS
  1
PLOTSETTINGS
  2
AcDbPlotSettings
  3
AutoCAD 2000
 90
    32768
280
     0
281
     0
  0
CLASS
  1
ACDBDICTIONARYWDFLT
  2
AcDbDictionaryWithDefault
  3
AutoCAD 2000
 90
        0
280
     0
281
     0
  0
CLASS
  1
ACDBPLACEHOLDER
  2
AcDbPlaceHolder
  3
AutoCAD 2000
 90
        0
280
     0
281
     0
  0
CLASS
  1
VBA_PROJECT
  2
AcDbVbaProject
  3
acadvba
 90
    32768
280
     0
281
     0
  0
CLASS
  1
WIPEOUT
  2
AcDbWipeout
  3
WipeOut|AutoCAD Express Tool|expresstools@autodesk.com
 90
    32895
280
     0
281
     1
  0
CLASS
  1
WIPEOUTVARIABLES
  2
AcDbWipeoutVariables
  3
WipeOut|AutoCAD Express Tool|expresstools@autodesk.com
 90
        0
280
     0
281
     0
  0
CLASS
  1
RTEXT
  2
RText
  3
RText|AutoCAD Express Tool|expresstools@autodesk.com
 90
    32768
280
     0
281
     1
  0
CLASS
  1
ARCALIGNEDTEXT
  2
AcDbArcAlignedText
  3
ATEXT|AutoCAD Express Tool|expresstools@autodesk.com
 90
    32768
280
     0
281
     1
  0
ENDSEC
  0
SECTION
  2
TABLES
  0
TABLE
  2
VPORT
  5
7
100
AcDbSymbolTable
 70
     1
  0
VPORT
  5
15
100
AcDbSymbolTableRecord
100
AcDbViewportTableRecord
  2
*ACTIVE
 70
     0
 10
0.0
 20
0.0
 11
1.0
 21
1.0
 12
6.591288
 22
4.579184
 13
0.0
 23
0.0
 14
1.0
 24
1.0
 15
0.0
 25
0.0
 16
0.0
 26
0.0
 36
1.0
 17
0.0
 27
0.0
 37
0.0
 40
9.158369
 41
0.688564
 42
50.0
 43
0.0
 44
0.0
 50
0.0
 51
0.0
 71
     0
 72
   100
 73
     1
 74
     1
 75
     0
 76
     0
 77
     0
 78
     0
281
     0
 65
     0
110
0.0
120
0.0
130
0.0
111
1.0
121
0.0
131
0.0
112
0.0
122
1.0
132
0.0
345
0
346
0
 79
     0
146
0.0
  0
ENDTAB
  0
TABLE
  2
LTYPE
  5
4
100
AcDbSymbolTable
 70
     3
  0
LTYPE
  5
11
100
AcDbSymbolTableRecord
100
AcDbLinetypeTableRecord
  2
ByBlock
 70
    64
  3

 72
    65
 73
     0
 40
0.0
  0
LTYPE
  5
12
100
AcDbSymbolTableRecord
100
AcDbLinetypeTableRecord
  2
ByLayer
 70
    64
  3

 72
    65
 73
     0
 40
0.0
  0
LTYPE
  5
13
100
AcDbSymbolTableRecord
100
AcDbLinetypeTableRecord
  2
Continuous
 70
    64
  3
Solid line
 72
    65
 73
     0
 40
0.0
  0
ENDTAB
  0
TABLE
  2
LAYER
  5
2
100
AcDbSymbolTable
 70
     3
  0
LAYER
  5
14
100
AcDbSymbolTableRecord
100
AcDbLayerTableRecord
  2
0
 70
     0
 62
     7
  6
Continuous
290
     1
370
    -3
390
1D
  0
LAYER
  5
28
100
AcDbSymbolTableRecord
100
AcDbLayerTableRecord
  2
0
 70
     0
 62
     1
  6
Continuous
290
     1
370
    -3
390
1D
  0
LAYER
  5
29
100
AcDbSymbolTableRecord
100
AcDbLayerTableRecord
  2
CUT
 70
     0
 62
   160
  6
Continuous
290
     1
370
    -3
390
1D
  0
ENDTAB
  0
TABLE
  2
STYLE
  5
3
100
AcDbSymbolTable
 70
     5
  0
STYLE
  5
17
100
AcDbSymbolTableRecord
100
AcDbTextStyleTableRecord
  2
Standard
 70
     0
 40
0.0
 41
1.0
 50
0.0
 71
     0
 42
0.0
  3
txt
  4

  0
STYLE
  5
24
100
AcDbSymbolTableRecord
100
AcDbTextStyleTableRecord
  2
STD
 70
     0
 40
0.0
 41
1.0
 50
0.0
 71
     0
 42
0.0
  3
txt
  4

  0
STYLE
  5
25
100
AcDbSymbolTableRecord
100
AcDbTextStyleTableRecord
  2
TATESTD
 70
     4
 40
0.0
 41
1.0
 50
0.0
 71
     0
 42
0.0
  3
txt
  4

  0
STYLE
  5
26
100
AcDbSymbolTableRecord
100
AcDbTextStyleTableRecord
  2
KANJISTD
 70
     0
 40
0.0
 41
1.0
 50
0.0
 71
     0
 42
0.0
  3
txt
  4
extfont
  0
STYLE
  5
27
100
AcDbSymbolTableRecord
100
AcDbTextStyleTableRecord
  2
KANJITATE
 70
     4
 40
0.0
 41
1.0
 50
0.0
 71
     0
 42
0.0
  3
txt
  4
extfont
  0
ENDTAB
  0
TABLE
  2
VIEW
  5
5
100
AcDbSymbolTable
 70
     0
  0
ENDTAB
  0
TABLE
  2
UCS
  5
6
100
AcDbSymbolTable
 70
     0
  0
ENDTAB
  0
TABLE
  2
APPID
  5
8
100
AcDbSymbolTable
 70
     1
  0
APPID
  5
16
100
AcDbSymbolTableRecord
100
AcDbRegAppTableRecord
  2
ACAD
 70
     0
  0
ENDTAB
  0
TABLE
  2
DIMSTYLE
  5
9
100
AcDbSymbolTable
 70
     1
100
AcDbDimStyleTable
 71
     0
  0
DIMSTYLE
105
18
100
AcDbSymbolTableRecord
100
AcDbDimStyleTableRecord
  2
Standard
 70
     0
  3

  4

 40
1.0
 41
0.18
 42
0.0625
 43
0.38
 44
0.18
 45
0.0
 46
0.0
 47
0.0
 48
0.0
 71
     0
 72
     0
 73
     1
 74
     1
 75
     0
 76
     0
 77
     0
 78
     0
 79
     0
140
0.18
141
0.09
142
0.0
143
25.4
144
1.0
145
0.0
146
1.0
147
0.09
148
0.0
170
     0
171
     2
172
     0
173
     0
174
     0
175
     0
176
     0
177
     0
178
     0
179
     0
271
     4
272
     4
273
     2
274
     2
275
     0
276
     0
277
     2
278
    46
279
     0
280
     0
281
     0
282
     0
283
     1
284
     0
285
     0
286
     0
288
     0
340
17
341
0
342
0
343
0
344
0
371
    -2
372
    -2
  0
ENDTAB
  0
TABLE
  2
BLOCK_RECORD
  5
1
100
AcDbSymbolTable
 70
     0
  0
BLOCK_RECORD
  5
A
100
AcDbSymbolTableRecord
100
AcDbBlockTableRecord
  2
*MODEL_SPACE
340
20
  0
BLOCK_RECORD
  5
B
100
AcDbSymbolTableRecord
100
AcDbBlockTableRecord
  2
*PAPER_SPACE
340
21
  0
ENDTAB
  0
ENDSEC
  0
SECTION
  2
BLOCKS
  0
BLOCK
  5
D
100
AcDbEntity
  8
0
100
AcDbBlockBegin
  2
*MODEL_SPACE
 70
     0
 10
0.0
 20
0.0
 30
0.0
  3
*MODEL_SPACE
  1

  0
ENDBLK
  5
E
100
AcDbEntity
  8
0
100
AcDbBlockEnd
  0
BLOCK
  5
F
100
AcDbEntity
 67
     1
  8
0
100
AcDbBlockBegin
  2
*PAPER_SPACE
 70
     0
 10
0.0
 20
0.0
 30
0.0
  3
*PAPER_SPACE
  1

  0
ENDBLK
  5
10
100
AcDbEntity
 67
     1
  8
0
100
AcDbBlockEnd
  0
ENDSEC
  0
SECTION
  2
ENTITIES
  0
LINE
  5
33C
100
AcDbEntity
  8
CUT
 62
     7
100
AcDbLine
 10
51.447678
 20
132.067046
 30
0.0
 11
151.752322
 21
132.067046
 31
0.0
  0
LINE
  5
33B
100
AcDbEntity
  8
CUT
 62
     7
100
AcDbLine
 10
151.752322
 20
132.067046
 30
0.0
 11
151.752322
 21
31.762747
 31
0.0
  0
LINE
  5
33A
100
AcDbEntity
  8
CUT
 62
     7
100
AcDbLine
 10
151.752322
 20
31.762747
 30
0.0
 11
51.447678
 21
31.762747
 31
0.0
  0
LINE
  5
339
100
AcDbEntity
  8
CUT
 62
     7
100
AcDbLine
 10
51.447678
 20
31.762747
 30
0.0
 11
51.447678
 21
132.067046
 31
0.0
  0
LINE
  5
338
100
AcDbEntity
  8
CUT
 62
     7
100
AcDbLine
 10
151.752322
 20
31.737253
 30
0.0
 11
151.752322
 21
-68.567046
 31
0.0
  0
LINE
  5
337
100
AcDbEntity
  8
CUT
 62
     7
100
AcDbLine
 10
151.752322
 20
-68.567046
 30
0.0
 11
51.447678
 21
-68.567046
 31
0.0
  0
LINE
  5
336
100
AcDbEntity
  8
CUT
 62
     7
100
AcDbLine
 10
51.447678
 20
-68.567046
 30
0.0
 11
51.447678
 21
31.737253
 31
0.0
  0
LINE
  5
335
100
AcDbEntity
  8
CUT
 62
     7
100
AcDbLine
 10
141.16451
 20
80.300008
 30
0.0
 11
141.286122
 21
80.284161
 31
0.0
  0
LINE
  5
334
100
AcDbEntity
  8
CUT
 62
     7
100
AcDbLine
 10
141.286122
 20
80.284161
 30
0.0
 11
141.407045
 21
80.264524
 31
0.0
  0
LINE
  5
333
100
AcDbEntity
  8
CUT
 62
     7
100
AcDbLine
 10
141.407045
 20
80.264524
 30
0.0
 11
141.527968
 21
80.242131
 31
0.0
  0
LINE
  5
332
100
AcDbEntity
  8
CUT
 62
     7
100
AcDbLine
 10
141.527968
 20
80.242131
 30
0.0
 11
141.648891
 21
80.216981
 31
0.0
  0
LINE
  5
331
100
AcDbEntity
  8
CUT
 62
     7
100
AcDbLine
 10
141.648891
 20
80.216981
 30
0.0
 11
141.890392
 21
80.160482
 31
0.0
  0
LINE
  5
330
100
AcDbEntity
  8
CUT
 62
     7
100
AcDbLine
 10
141.890392
 20
80.160482
 30
0.0
 11
142.131548
 21
80.096058
 31
0.0
  0
LINE
  5
32F
100
AcDbEntity
  8
CUT
 62
     7
100
AcDbLine
 10
142.131548
 20
80.096058
 30
0.0
 11
142.612484
 21
79.946886
 31
0.0
  0
LINE
  5
32E
100
AcDbEntity
  8
CUT
 62
     7
100
AcDbLine
 10
142.612484
 20
79.946886
 30
0.0
 11
143.091697
 21
79.773942
 31
0.0
  0
LINE
  5
32D
100
AcDbEntity
  8
CUT
 62
     7
100
AcDbLine
 10
143.091697
 20
79.773942
 30
0.0
 11
143.569531
 21
79.579983
 31
0.0
  0
LINE
  5
32C
100
AcDbEntity
  8
CUT
 62
     7
100
AcDbLine
 10
143.569531
 20
79.579983
 30
0.0
 11
144.045643
 21
79.366043
 31
0.0
  0
LINE
  5
32B
100
AcDbEntity
  8
CUT
 62
     7
100
AcDbLine
 10
144.045643
 20
79.366043
 30
0.0
 11
144.519344
 21
79.133843
 31
0.0
  0
LINE
  5
32A
100
AcDbEntity
  8
CUT
 62
     7
100
AcDbLine
 10
144.519344
 20
79.133843
 30
0.0
 11
144.990978
 21
78.884074
 31
0.0
  0
LINE
  5
329
100
AcDbEntity
  8
CUT
 62
     7
100
AcDbLine
 10
144.990978
 20
78.884074
 30
0.0
 11
145.4602
 21
78.617768
 31
0.0
  0
LINE
  5
328
100
AcDbEntity
  8
CUT
 62
     7
100
AcDbLine
 10
145.4602
 20
78.617768
 30
0.0
 11
145.92701
 21
78.334926
 31
0.0
  0
LINE
  5
327
100
AcDbEntity
  8
CUT
 62
     7
100
AcDbLine
 10
145.92701
 20
78.334926
 30
0.0
 11
145.562519
 21
75.207123
 31
0.0
  0
LINE
  5
326
100
AcDbEntity
  8
CUT
 62
     7
100
AcDbLine
 10
145.562519
 20
75.207123
 30
0.0
 11
145.043343
 21
75.039347
 31
0.0
  0
LINE
  5
325
100
AcDbEntity
  8
CUT
 62
     7
100
AcDbLine
 10
145.043343
 20
75.039347
 30
0.0
 11
144.525201
 21
74.888108
 31
0.0
  0
LINE
  5
324
100
AcDbEntity
  8
CUT
 62
     7
100
AcDbLine
 10
144.525201
 20
74.888108
 30
0.0
 11
144.009125
 21
74.753749
 31
0.0
  0
LINE
  5
323
100
AcDbEntity
  8
CUT
 62
     7
100
AcDbLine
 10
144.009125
 20
74.753749
 30
0.0
 11
143.494428
 21
74.636616
 31
0.0
  0
LINE
  5
322
100
AcDbEntity
  8
CUT
 62
     7
100
AcDbLine
 10
143.494428
 20
74.636616
 30
0.0
 11
142.982142
 21
74.538086
 31
0.0
  0
LINE
  5
321
100
AcDbEntity
  8
CUT
 62
     7
100
AcDbLine
 10
142.982142
 20
74.538086
 30
0.0
 11
142.472613
 21
74.458849
 31
0.0
  0
LINE
  5
320
100
AcDbEntity
  8
CUT
 62
     7
100
AcDbLine
 10
142.472613
 20
74.458849
 30
0.0
 11
141.966528
 21
74.400971
 31
0.0
  0
LINE
  5
31F
100
AcDbEntity
  8
CUT
 62
     7
100
AcDbLine
 10
141.966528
 20
74.400971
 30
0.0
 11
141.463889
 21
74.366176
 31
0.0
  0
LINE
  5
31E
100
AcDbEntity
  8
CUT
 62
     7
100
AcDbLine
 10
141.463889
 20
74.366176
 30
0.0
 11
141.214464
 21
74.358941
 31
0.0
  0
LINE
  5
31D
100
AcDbEntity
  8
CUT
 62
     7
100
AcDbLine
 10
141.214464
 20
74.358941
 30
0.0
 11
140.966417
 21
74.359285
 31
0.0
  0
LINE
  5
31C
100
AcDbEntity
  8
CUT
 62
     7
100
AcDbLine
 10
140.966417
 20
74.359285
 30
0.0
 11
140.843083
 21
74.362731
 31
0.0
  0
LINE
  5
31B
100
AcDbEntity
  8
CUT
 62
     7
100
AcDbLine
 10
140.843083
 20
74.362731
 30
0.0
 11
140.720093
 21
74.368587
 31
0.0
  0
LINE
  5
31A
100
AcDbEntity
  8
CUT
 62
     7
100
AcDbLine
 10
140.720093
 20
74.368587
 30
0.0
 11
140.597792
 21
74.377544
 31
0.0
  0
LINE
  5
319
100
AcDbEntity
  8
CUT
 62
     7
100
AcDbLine
 10
140.597792
 20
74.377544
 30
0.0
 11
140.47618
 21
74.389947
 31
0.0
  0
LINE
  5
318
100
AcDbEntity
  8
CUT
 62
     7
100
AcDbLine
 10
140.47618
 20
74.389947
 30
0.0
 11
139.628342
 21
70.878706
 31
0.0
  0
LINE
  5
317
100
AcDbEntity
  8
CUT
 62
     7
100
AcDbLine
 10
139.628342
 20
70.878706
 30
0.0
 11
139.742375
 21
70.834264
 31
0.0
  0
LINE
  5
316
100
AcDbEntity
  8
CUT
 62
     7
100
AcDbLine
 10
139.742375
 20
70.834264
 30
0.0
 11
139.855718
 21
70.786377
 31
0.0
  0
LINE
  5
315
100
AcDbEntity
  8
CUT
 62
     7
100
AcDbLine
 10
139.855718
 20
70.786377
 30
0.0
 11
139.967684
 21
70.73539
 31
0.0
  0
LINE
  5
314
100
AcDbEntity
  8
CUT
 62
     7
100
AcDbLine
 10
139.967684
 20
70.73539
 30
0.0
 11
140.078961
 21
70.681991
 31
0.0
  0
LINE
  5
313
100
AcDbEntity
  8
CUT
 62
     7
100
AcDbLine
 10
140.078961
 20
70.681991
 30
0.0
 11
140.299791
 21
70.569336
 31
0.0
  0
LINE
  5
312
100
AcDbEntity
  8
CUT
 62
     7
100
AcDbLine
 10
140.299791
 20
70.569336
 30
0.0
 11
140.518555
 21
70.449102
 31
0.0
  0
LINE
  5
311
100
AcDbEntity
  8
CUT
 62
     7
100
AcDbLine
 10
140.518555
 20
70.449102
 30
0.0
 11
140.949881
 21
70.188997
 31
0.0
  0
LINE
  5
310
100
AcDbEntity
  8
CUT
 62
     7
100
AcDbLine
 10
140.949881
 20
70.188997
 30
0.0
 11
141.373972
 21
69.906844
 31
0.0
  0
LINE
  5
30F
100
AcDbEntity
  8
CUT
 62
     7
100
AcDbLine
 10
141.373972
 20
69.906844
 30
0.0
 11
141.791173
 21
69.603676
 31
0.0
  0
LINE
  5
30E
100
AcDbEntity
  8
CUT
 62
     7
100
AcDbLine
 10
141.791173
 20
69.603676
 30
0.0
 11
142.202173
 21
69.282593
 31
0.0
  0
LINE
  5
30D
100
AcDbEntity
  8
CUT
 62
     7
100
AcDbLine
 10
142.202173
 20
69.282593
 30
0.0
 11
142.606283
 21
68.943595
 31
0.0
  0
LINE
  5
30C
100
AcDbEntity
  8
CUT
 62
     7
100
AcDbLine
 10
142.606283
 20
68.943595
 30
0.0
 11
143.004536
 21
68.588406
 31
0.0
  0
LINE
  5
30B
100
AcDbEntity
  8
CUT
 62
     7
100
AcDbLine
 10
143.004536
 20
68.588406
 30
0.0
 11
143.396932
 21
68.217369
 31
0.0
  0
LINE
  5
30A
100
AcDbEntity
  8
CUT
 62
     7
100
AcDbLine
 10
143.396932
 20
68.217369
 30
0.0
 11
143.782438
 21
67.831174
 31
0.0
  0
LINE
  5
309
100
AcDbEntity
  8
CUT
 62
     7
100
AcDbLine
 10
143.782438
 20
67.831174
 30
0.0
 11
142.680008
 21
64.881483
 31
0.0
  0
LINE
  5
308
100
AcDbEntity
  8
CUT
 62
     7
100
AcDbLine
 10
142.680008
 20
64.881483
 30
0.0
 11
142.135683
 21
64.842898
 31
0.0
  0
LINE
  5
307
100
AcDbEntity
  8
CUT
 62
     7
100
AcDbLine
 10
142.135683
 20
64.842898
 30
0.0
 11
141.596181
 21
64.819816
 31
0.0
  0
LINE
  5
306
100
AcDbEntity
  8
CUT
 62
     7
100
AcDbLine
 10
141.596181
 20
64.819816
 30
0.0
 11
141.06288
 21
64.812926
 31
0.0
  0
LINE
  5
305
100
AcDbEntity
  8
CUT
 62
     7
100
AcDbLine
 10
141.06288
 20
64.812926
 30
0.0
 11
140.535091
 21
64.822228
 31
0.0
  0
LINE
  5
304
100
AcDbEntity
  8
CUT
 62
     7
100
AcDbLine
 10
140.535091
 20
64.822228
 30
0.0
 11
140.014193
 21
64.849099
 31
0.0
  0
LINE
  5
303
100
AcDbEntity
  8
CUT
 62
     7
100
AcDbLine
 10
140.014193
 20
64.849099
 30
0.0
 11
139.500529
 21
64.89423
 31
0.0
  0
LINE
  5
302
100
AcDbEntity
  8
CUT
 62
     7
100
AcDbLine
 10
139.500529
 20
64.89423
 30
0.0
 11
138.995133
 21
64.958998
 31
0.0
  0
LINE
  5
301
100
AcDbEntity
  8
CUT
 62
     7
100
AcDbLine
 10
138.995133
 20
64.958998
 30
0.0
 11
138.49904
 21
65.045814
 31
0.0
  0
LINE
  5
300
100
AcDbEntity
  8
CUT
 62
     7
100
AcDbLine
 10
138.49904
 20
65.045814
 30
0.0
 11
138.255127
 21
65.098524
 31
0.0
  0
LINE
  5
2FF
100
AcDbEntity
  8
CUT
 62
     7
100
AcDbLine
 10
138.255127
 20
65.098524
 30
0.0
 11
138.014315
 21
65.158124
 31
0.0
  0
LINE
  5
2FE
100
AcDbEntity
  8
CUT
 62
     7
100
AcDbLine
 10
138.014315
 20
65.158124
 30
0.0
 11
137.895459
 21
65.190853
 31
0.0
  0
LINE
  5
2FD
100
AcDbEntity
  8
CUT
 62
     7
100
AcDbLine
 10
137.895459
 20
65.190853
 30
0.0
 11
137.777637
 21
65.225993
 31
0.0
  0
LINE
  5
2FC
100
AcDbEntity
  8
CUT
 62
     7
100
AcDbLine
 10
137.777637
 20
65.225993
 30
0.0
 11
137.660503
 21
65.263889
 31
0.0
  0
LINE
  5
2FB
100
AcDbEntity
  8
CUT
 62
     7
100
AcDbLine
 10
137.660503
 20
65.263889
 30
0.0
 11
137.545437
 21
65.30523
 31
0.0
  0
LINE
  5
2FA
100
AcDbEntity
  8
CUT
 62
     7
100
AcDbLine
 10
137.545437
 20
65.30523
 30
0.0
 11
135.882145
 21
62.098535
 31
0.0
  0
LINE
  5
2F9
100
AcDbEntity
  8
CUT
 62
     7
100
AcDbLine
 10
135.882145
 20
62.098535
 30
0.0
 11
135.982397
 21
62.028255
 31
0.0
  0
LINE
  5
2F8
100
AcDbEntity
  8
CUT
 62
     7
100
AcDbLine
 10
135.982397
 20
62.028255
 30
0.0
 11
136.080583
 21
61.95453
 31
0.0
  0
LINE
  5
2F7
100
AcDbEntity
  8
CUT
 62
     7
100
AcDbLine
 10
136.080583
 20
61.95453
 30
0.0
 11
136.17739
 21
61.878738
 31
0.0
  0
LINE
  5
2F6
100
AcDbEntity
  8
CUT
 62
     7
100
AcDbLine
 10
136.17739
 20
61.878738
 30
0.0
 11
136.272475
 21
61.80019
 31
0.0
  0
LINE
  5
2F5
100
AcDbEntity
  8
CUT
 62
     7
100
AcDbLine
 10
136.272475
 20
61.80019
 30
0.0
 11
136.459888
 21
61.637926
 31
0.0
  0
LINE
  5
2F4
100
AcDbEntity
  8
CUT
 62
     7
100
AcDbLine
 10
136.459888
 20
61.637926
 30
0.0
 11
136.643511
 21
61.468772
 31
0.0
  0
LINE
  5
2F3
100
AcDbEntity
  8
CUT
 62
     7
100
AcDbLine
 10
136.643511
 20
61.468772
 30
0.0
 11
137.000423
 21
61.113238
 31
0.0
  0
LINE
  5
2F2
100
AcDbEntity
  8
CUT
 62
     7
100
AcDbLine
 10
137.000423
 20
61.113238
 30
0.0
 11
137.344244
 21
60.737378
 31
0.0
  0
LINE
  5
2F1
100
AcDbEntity
  8
CUT
 62
     7
100
AcDbLine
 10
137.344244
 20
60.737378
 30
0.0
 11
137.67704
 21
60.343259
 31
0.0
  0
LINE
  5
2F0
100
AcDbEntity
  8
CUT
 62
     7
100
AcDbLine
 10
137.67704
 20
60.343259
 30
0.0
 11
137.998812
 21
59.932948
 31
0.0
  0
LINE
  5
2EF
100
AcDbEntity
  8
CUT
 62
     7
100
AcDbLine
 10
137.998812
 20
59.932948
 30
0.0
 11
138.310937
 21
59.507134
 31
0.0
  0
LINE
  5
2EE
100
AcDbEntity
  8
CUT
 62
     7
100
AcDbLine
 10
138.310937
 20
59.507134
 30
0.0
 11
138.612383
 21
59.066851
 31
0.0
  0
LINE
  5
2ED
100
AcDbEntity
  8
CUT
 62
     7
100
AcDbLine
 10
138.612383
 20
59.066851
 30
0.0
 11
138.904183
 21
58.613132
 31
0.0
  0
LINE
  5
2EC
100
AcDbEntity
  8
CUT
 62
     7
100
AcDbLine
 10
138.904183
 20
58.613132
 30
0.0
 11
139.185992
 21
58.145633
 31
0.0
  0
LINE
  5
2EB
100
AcDbEntity
  8
CUT
 62
     7
100
AcDbLine
 10
139.185992
 20
58.145633
 30
0.0
 11
137.409701
 21
55.545275
 31
0.0
  0
LINE
  5
2EA
100
AcDbEntity
  8
CUT
 62
     7
100
AcDbLine
 10
137.409701
 20
55.545275
 30
0.0
 11
136.871921
 21
55.638292
 31
0.0
  0
LINE
  5
2E9
100
AcDbEntity
  8
CUT
 62
     7
100
AcDbLine
 10
136.871921
 20
55.638292
 30
0.0
 11
136.343099
 21
55.74509
 31
0.0
  0
LINE
  5
2E8
100
AcDbEntity
  8
CUT
 62
     7
100
AcDbLine
 10
136.343099
 20
55.74509
 30
0.0
 11
135.823234
 21
55.866013
 31
0.0
  0
LINE
  5
2E7
100
AcDbEntity
  8
CUT
 62
     7
100
AcDbLine
 10
135.823234
 20
55.866013
 30
0.0
 11
135.31336
 21
56.001405
 31
0.0
  0
LINE
  5
2E6
100
AcDbEntity
  8
CUT
 62
     7
100
AcDbLine
 10
135.31336
 20
56.001405
 30
0.0
 11
134.813821
 21
56.1523
 31
0.0
  0
LINE
  5
2E5
100
AcDbEntity
  8
CUT
 62
     7
100
AcDbLine
 10
134.813821
 20
56.1523
 30
0.0
 11
134.325651
 21
56.318698
 31
0.0
  0
LINE
  5
2E4
100
AcDbEntity
  8
CUT
 62
     7
100
AcDbLine
 10
134.325651
 20
56.318698
 30
0.0
 11
133.850572
 21
56.502667
 31
0.0
  0
LINE
  5
2E3
100
AcDbEntity
  8
CUT
 62
     7
100
AcDbLine
 10
133.850572
 20
56.502667
 30
0.0
 11
133.389619
 21
56.705583
 31
0.0
  0
LINE
  5
2E2
100
AcDbEntity
  8
CUT
 62
     7
100
AcDbLine
 10
133.389619
 20
56.705583
 30
0.0
 11
133.165343
 21
56.815137
 31
0.0
  0
LINE
  5
2E1
100
AcDbEntity
  8
CUT
 62
     7
100
AcDbLine
 10
133.165343
 20
56.815137
 30
0.0
 11
132.94589
 21
56.930547
 31
0.0
  0
LINE
  5
2E0
100
AcDbEntity
  8
CUT
 62
     7
100
AcDbLine
 10
132.94589
 20
56.930547
 30
0.0
 11
132.838059
 21
56.991181
 31
0.0
  0
LINE
  5
2DF
100
AcDbEntity
  8
CUT
 62
     7
100
AcDbLine
 10
132.838059
 20
56.991181
 30
0.0
 11
132.732294
 21
57.053193
 31
0.0
  0
LINE
  5
2DE
100
AcDbEntity
  8
CUT
 62
     7
100
AcDbLine
 10
132.732294
 20
57.053193
 30
0.0
 11
132.627908
 21
57.117961
 31
0.0
  0
LINE
  5
2DD
100
AcDbEntity
  8
CUT
 62
     7
100
AcDbLine
 10
132.627908
 20
57.117961
 30
0.0
 11
132.525933
 21
57.185484
 31
0.0
  0
LINE
  5
2DC
100
AcDbEntity
  8
CUT
 62
     7
100
AcDbLine
 10
132.525933
 20
57.185484
 30
0.0
 11
130.14365
 21
54.470405
 31
0.0
  0
LINE
  5
2DB
100
AcDbEntity
  8
CUT
 62
     7
100
AcDbLine
 10
130.14365
 20
54.470405
 30
0.0
 11
130.22392
 21
54.378076
 31
0.0
  0
LINE
  5
2DA
100
AcDbEntity
  8
CUT
 62
     7
100
AcDbLine
 10
130.22392
 20
54.378076
 30
0.0
 11
130.30178
 21
54.282992
 31
0.0
  0
LINE
  5
2D9
100
AcDbEntity
  8
CUT
 62
     7
100
AcDbLine
 10
130.30178
 20
54.282992
 30
0.0
 11
130.377227
 21
54.186184
 31
0.0
  0
LINE
  5
2D8
100
AcDbEntity
  8
CUT
 62
     7
100
AcDbLine
 10
130.377227
 20
54.186184
 30
0.0
 11
130.451297
 21
54.086966
 31
0.0
  0
LINE
  5
2D7
100
AcDbEntity
  8
CUT
 62
     7
100
AcDbLine
 10
130.451297
 20
54.086966
 30
0.0
 11
130.594613
 21
53.884738
 31
0.0
  0
LINE
  5
2D6
100
AcDbEntity
  8
CUT
 62
     7
100
AcDbLine
 10
130.594613
 20
53.884738
 30
0.0
 11
130.732072
 21
53.67631
 31
0.0
  0
LINE
  5
2D5
100
AcDbEntity
  8
CUT
 62
     7
100
AcDbLine
 10
130.732072
 20
53.67631
 30
0.0
 11
130.99321
 21
53.246018
 31
0.0
  0
LINE
  5
2D4
100
AcDbEntity
  8
CUT
 62
     7
100
AcDbLine
 10
130.99321
 20
53.246018
 30
0.0
 11
131.237467
 21
52.7985
 31
0.0
  0
LINE
  5
2D3
100
AcDbEntity
  8
CUT
 62
     7
100
AcDbLine
 10
131.237467
 20
52.7985
 30
0.0
 11
131.466222
 21
52.336513
 31
0.0
  0
LINE
  5
2D2
100
AcDbEntity
  8
CUT
 62
     7
100
AcDbLine
 10
131.466222
 20
52.336513
 30
0.0
 11
131.680507
 21
51.860745
 31
0.0
  0
LINE
  5
2D1
100
AcDbEntity
  8
CUT
 62
     7
100
AcDbLine
 10
131.680507
 20
51.860745
 30
0.0
 11
131.881356
 21
51.372919
 31
0.0
  0
LINE
  5
2D0
100
AcDbEntity
  8
CUT
 62
     7
100
AcDbLine
 10
131.881356
 20
51.372919
 30
0.0
 11
132.068769
 21
50.873381
 31
0.0
  0
LINE
  5
2CF
100
AcDbEntity
  8
CUT
 62
     7
100
AcDbLine
 10
132.068769
 20
50.873381
 30
0.0
 11
132.243435
 21
50.362817
 31
0.0
  0
LINE
  5
2CE
100
AcDbEntity
  8
CUT
 62
     7
100
AcDbLine
 10
132.243435
 20
50.362817
 30
0.0
 11
132.405355
 21
49.841574
 31
0.0
  0
LINE
  5
2CD
100
AcDbEntity
  8
CUT
 62
     7
100
AcDbLine
 10
132.405355
 20
49.841574
 30
0.0
 11
130.058556
 21
47.742133
 31
0.0
  0
LINE
  5
2CC
100
AcDbEntity
  8
CUT
 62
     7
100
AcDbLine
 10
130.058556
 20
47.742133
 30
0.0
 11
129.558328
 21
47.960897
 31
0.0
  0
LINE
  5
2CB
100
AcDbEntity
  8
CUT
 62
     7
100
AcDbLine
 10
129.558328
 20
47.960897
 30
0.0
 11
129.070502
 21
48.191029
 31
0.0
  0
LINE
  5
2CA
100
AcDbEntity
  8
CUT
 62
     7
100
AcDbLine
 10
129.070502
 20
48.191029
 30
0.0
 11
128.594735
 21
48.432875
 31
0.0
  0
LINE
  5
2C9
100
AcDbEntity
  8
CUT
 62
     7
100
AcDbLine
 10
128.594735
 20
48.432875
 30
0.0
 11
128.131714
 21
48.686434
 31
0.0
  0
LINE
  5
2C8
100
AcDbEntity
  8
CUT
 62
     7
100
AcDbLine
 10
128.131714
 20
48.686434
 30
0.0
 11
127.683162
 21
48.952395
 31
0.0
  0
LINE
  5
2C7
100
AcDbEntity
  8
CUT
 62
     7
100
AcDbLine
 10
127.683162
 20
48.952395
 30
0.0
 11
127.249425
 21
49.231104
 31
0.0
  0
LINE
  5
2C6
100
AcDbEntity
  8
CUT
 62
     7
100
AcDbLine
 10
127.249425
 20
49.231104
 30
0.0
 11
126.831879
 21
49.523248
 31
0.0
  0
LINE
  5
2C5
100
AcDbEntity
  8
CUT
 62
     7
100
AcDbLine
 10
126.831879
 20
49.523248
 30
0.0
 11
126.432937
 21
49.830206
 31
0.0
  0
LINE
  5
2C4
100
AcDbEntity
  8
CUT
 62
     7
100
AcDbLine
 10
126.432937
 20
49.830206
 30
0.0
 11
126.241045
 21
49.990403
 31
0.0
  0
LINE
  5
2C3
100
AcDbEntity
  8
CUT
 62
     7
100
AcDbLine
 10
126.241045
 20
49.990403
 30
0.0
 11
126.055699
 21
50.155078
 31
0.0
  0
LINE
  5
2C2
100
AcDbEntity
  8
CUT
 62
     7
100
AcDbLine
 10
126.055699
 20
50.155078
 30
0.0
 11
125.965782
 21
50.239483
 31
0.0
  0
LINE
  5
2C1
100
AcDbEntity
  8
CUT
 62
     7
100
AcDbLine
 10
125.965782
 20
50.239483
 30
0.0
 11
125.877588
 21
50.32561
 31
0.0
  0
LINE
  5
2C0
100
AcDbEntity
  8
CUT
 62
     7
100
AcDbLine
 10
125.877588
 20
50.32561
 30
0.0
 11
125.791805
 21
50.413116
 31
0.0
  0
LINE
  5
2BF
100
AcDbEntity
  8
CUT
 62
     7
100
AcDbLine
 10
125.791805
 20
50.413116
 30
0.0
 11
125.709123
 21
50.503377
 31
0.0
  0
LINE
  5
2BE
100
AcDbEntity
  8
CUT
 62
     7
100
AcDbLine
 10
125.709123
 20
50.503377
 30
0.0
 11
122.746341
 21
48.437009
 31
0.0
  0
LINE
  5
2BD
100
AcDbEntity
  8
CUT
 62
     7
100
AcDbLine
 10
122.746341
 20
48.437009
 30
0.0
 11
122.802151
 21
48.328144
 31
0.0
  0
LINE
  5
2BC
100
AcDbEntity
  8
CUT
 62
     7
100
AcDbLine
 10
122.802151
 20
48.328144
 30
0.0
 11
122.854861
 21
48.217212
 31
0.0
  0
LINE
  5
2BB
100
AcDbEntity
  8
CUT
 62
     7
100
AcDbLine
 10
122.854861
 20
48.217212
 30
0.0
 11
122.90516
 21
48.104902
 31
0.0
  0
LINE
  5
2BA
100
AcDbEntity
  8
CUT
 62
     7
100
AcDbLine
 10
122.90516
 20
48.104902
 30
0.0
 11
122.953046
 21
47.991214
 31
0.0
  0
LINE
  5
2B9
100
AcDbEntity
  8
CUT
 62
     7
100
AcDbLine
 10
122.953046
 20
47.991214
 30
0.0
 11
123.043652
 21
47.760392
 31
0.0
  0
LINE
  5
2B8
100
AcDbEntity
  8
CUT
 62
     7
100
AcDbLine
 10
123.043652
 20
47.760392
 30
0.0
 11
123.127713
 21
47.525437
 31
0.0
  0
LINE
  5
2B7
100
AcDbEntity
  8
CUT
 62
     7
100
AcDbLine
 10
123.127713
 20
47.525437
 30
0.0
 11
123.278263
 21
47.044846
 31
0.0
  0
LINE
  5
2B6
100
AcDbEntity
  8
CUT
 62
     7
100
AcDbLine
 10
123.278263
 20
47.044846
 30
0.0
 11
123.408143
 21
46.552197
 31
0.0
  0
LINE
  5
2B5
100
AcDbEntity
  8
CUT
 62
     7
100
AcDbLine
 10
123.408143
 20
46.552197
 30
0.0
 11
123.519765
 21
46.048524
 31
0.0
  0
LINE
  5
2B4
100
AcDbEntity
  8
CUT
 62
     7
100
AcDbLine
 10
123.519765
 20
46.048524
 30
0.0
 11
123.61416
 21
45.53555
 31
0.0
  0
LINE
  5
2B3
100
AcDbEntity
  8
CUT
 62
     7
100
AcDbLine
 10
123.61416
 20
45.53555
 30
0.0
 11
123.692364
 21
45.013962
 31
0.0
  0
LINE
  5
2B2
100
AcDbEntity
  8
CUT
 62
     7
100
AcDbLine
 10
123.692364
 20
45.013962
 30
0.0
 11
123.75472
 21
44.483762
 31
0.0
  0
LINE
  5
2B1
100
AcDbEntity
  8
CUT
 62
     7
100
AcDbLine
 10
123.75472
 20
44.483762
 30
0.0
 11
123.801918
 21
43.945983
 31
0.0
  0
LINE
  5
2B0
100
AcDbEntity
  8
CUT
 62
     7
100
AcDbLine
 10
123.801918
 20
43.945983
 30
0.0
 11
123.834646
 21
43.401657
 31
0.0
  0
LINE
  5
2AF
100
AcDbEntity
  8
CUT
 62
     7
100
AcDbLine
 10
123.834646
 20
43.401657
 30
0.0
 11
121.053421
 21
41.924745
 31
0.0
  0
LINE
  5
2AE
100
AcDbEntity
  8
CUT
 62
     7
100
AcDbLine
 10
121.053421
 20
41.924745
 30
0.0
 11
120.620372
 21
42.256508
 31
0.0
  0
LINE
  5
2AD
100
AcDbEntity
  8
CUT
 62
     7
100
AcDbLine
 10
120.620372
 20
42.256508
 30
0.0
 11
120.201449
 21
42.596883
 31
0.0
  0
LINE
  5
2AC
100
AcDbEntity
  8
CUT
 62
     7
100
AcDbLine
 10
120.201449
 20
42.596883
 30
0.0
 11
119.797339
 21
42.945527
 31
0.0
  0
LINE
  5
2AB
100
AcDbEntity
  8
CUT
 62
     7
100
AcDbLine
 10
119.797339
 20
42.945527
 30
0.0
 11
119.408732
 21
43.302439
 31
0.0
  0
LINE
  5
2AA
100
AcDbEntity
  8
CUT
 62
     7
100
AcDbLine
 10
119.408732
 20
43.302439
 30
0.0
 11
119.036662
 21
43.667963
 31
0.0
  0
LINE
  5
2A9
100
AcDbEntity
  8
CUT
 62
     7
100
AcDbLine
 10
119.036662
 20
43.667963
 30
0.0
 11
118.682161
 21
44.042445
 31
0.0
  0
LINE
  5
2A8
100
AcDbEntity
  8
CUT
 62
     7
100
AcDbLine
 10
118.682161
 20
44.042445
 30
0.0
 11
118.346609
 21
44.426229
 31
0.0
  0
LINE
  5
2A7
100
AcDbEntity
  8
CUT
 62
     7
100
AcDbLine
 10
118.346609
 20
44.426229
 30
0.0
 11
118.033105
 21
44.820003
 31
0.0
  0
LINE
  5
2A6
100
AcDbEntity
  8
CUT
 62
     7
100
AcDbLine
 10
118.033105
 20
44.820003
 30
0.0
 11
117.884966
 21
45.021197
 31
0.0
  0
LINE
  5
2A5
100
AcDbEntity
  8
CUT
 62
     7
100
AcDbLine
 10
117.884966
 20
45.021197
 30
0.0
 11
117.744406
 21
45.225491
 31
0.0
  0
LINE
  5
2A4
100
AcDbEntity
  8
CUT
 62
     7
100
AcDbLine
 10
117.744406
 20
45.225491
 30
0.0
 11
117.677227
 21
45.329188
 31
0.0
  0
LINE
  5
2A3
100
AcDbEntity
  8
CUT
 62
     7
100
AcDbLine
 10
117.677227
 20
45.329188
 30
0.0
 11
117.612459
 21
45.433575
 31
0.0
  0
LINE
  5
2A2
100
AcDbEntity
  8
CUT
 62
     7
100
AcDbLine
 10
117.612459
 20
45.433575
 30
0.0
 11
117.550103
 21
45.539339
 31
0.0
  0
LINE
  5
2A1
100
AcDbEntity
  8
CUT
 62
     7
100
AcDbLine
 10
117.550103
 20
45.539339
 30
0.0
 11
117.491192
 21
45.646482
 31
0.0
  0
LINE
  5
2A0
100
AcDbEntity
  8
CUT
 62
     7
100
AcDbLine
 10
117.491192
 20
45.646482
 30
0.0
 11
114.119822
 21
44.349059
 31
0.0
  0
LINE
  5
29F
100
AcDbEntity
  8
CUT
 62
     7
100
AcDbLine
 10
114.119822
 20
44.349059
 30
0.0
 11
114.148071
 21
44.230203
 31
0.0
  0
LINE
  5
29E
100
AcDbEntity
  8
CUT
 62
     7
100
AcDbLine
 10
114.148071
 20
44.230203
 30
0.0
 11
114.172876
 21
44.110314
 31
0.0
  0
LINE
  5
29D
100
AcDbEntity
  8
CUT
 62
     7
100
AcDbLine
 10
114.172876
 20
44.110314
 30
0.0
 11
114.19458
 21
43.989046
 31
0.0
  0
LINE
  5
29C
100
AcDbEntity
  8
CUT
 62
     7
100
AcDbLine
 10
114.19458
 20
43.989046
 30
0.0
 11
114.213873
 21
43.86709
 31
0.0
  0
LINE
  5
29B
100
AcDbEntity
  8
CUT
 62
     7
100
AcDbLine
 10
114.213873
 20
43.86709
 30
0.0
 11
114.246601
 21
43.62111
 31
0.0
  0
LINE
  5
29A
100
AcDbEntity
  8
CUT
 62
     7
100
AcDbLine
 10
114.246601
 20
43.62111
 30
0.0
 11
114.27175
 21
43.372719
 31
0.0
  0
LINE
  5
299
100
AcDbEntity
  8
CUT
 62
     7
100
AcDbLine
 10
114.27175
 20
43.372719
 30
0.0
 11
114.302756
 21
42.870079
 31
0.0
  0
LINE
  5
298
100
AcDbEntity
  8
CUT
 62
     7
100
AcDbLine
 10
114.302756
 20
42.870079
 30
0.0
 11
114.311369
 21
42.360894
 31
0.0
  0
LINE
  5
297
100
AcDbEntity
  8
CUT
 62
     7
100
AcDbLine
 10
114.311369
 20
42.360894
 30
0.0
 11
114.299311
 21
41.845163
 31
0.0
  0
LINE
  5
296
100
AcDbEntity
  8
CUT
 62
     7
100
AcDbLine
 10
114.299311
 20
41.845163
 30
0.0
 11
114.267961
 21
41.324609
 31
0.0
  0
LINE
  5
295
100
AcDbEntity
  8
CUT
 62
     7
100
AcDbLine
 10
114.267961
 20
41.324609
 30
0.0
 11
114.21904
 21
40.799232
 31
0.0
  0
LINE
  5
294
100
AcDbEntity
  8
CUT
 62
     7
100
AcDbLine
 10
114.21904
 20
40.799232
 30
0.0
 11
114.15255
 21
40.269721
 31
0.0
  0
LINE
  5
293
100
AcDbEntity
  8
CUT
 62
     7
100
AcDbLine
 10
114.15255
 20
40.269721
 30
0.0
 11
114.070212
 21
39.73642
 31
0.0
  0
LINE
  5
292
100
AcDbEntity
  8
CUT
 62
     7
100
AcDbLine
 10
114.070212
 20
39.73642
 30
0.0
 11
113.971338
 21
39.199674
 31
0.0
  0
LINE
  5
291
100
AcDbEntity
  8
CUT
 62
     7
100
AcDbLine
 10
113.971338
 20
39.199674
 30
0.0
 11
110.917605
 21
38.431074
 31
0.0
  0
LINE
  5
290
100
AcDbEntity
  8
CUT
 62
     7
100
AcDbLine
 10
110.917605
 20
38.431074
 30
0.0
 11
110.576541
 21
38.857232
 31
0.0
  0
LINE
  5
28F
100
AcDbEntity
  8
CUT
 62
     7
100
AcDbLine
 10
110.576541
 20
38.857232
 30
0.0
 11
110.251324
 21
39.288213
 31
0.0
  0
LINE
  5
28E
100
AcDbEntity
  8
CUT
 62
     7
100
AcDbLine
 10
110.251324
 20
39.288213
 30
0.0
 11
109.942299
 21
39.723329
 31
0.0
  0
LINE
  5
28D
100
AcDbEntity
  8
CUT
 62
     7
100
AcDbLine
 10
109.942299
 20
39.723329
 30
0.0
 11
109.650499
 21
40.162923
 31
0.0
  0
LINE
  5
28C
100
AcDbEntity
  8
CUT
 62
     7
100
AcDbLine
 10
109.650499
 20
40.162923
 30
0.0
 11
109.376614
 21
40.606651
 31
0.0
  0
LINE
  5
28B
100
AcDbEntity
  8
CUT
 62
     7
100
AcDbLine
 10
109.376614
 20
40.606651
 30
0.0
 11
109.122021
 21
41.055203
 31
0.0
  0
LINE
  5
28A
100
AcDbEntity
  8
CUT
 62
     7
100
AcDbLine
 10
109.122021
 20
41.055203
 30
0.0
 11
108.8881
 21
41.507888
 31
0.0
  0
LINE
  5
289
100
AcDbEntity
  8
CUT
 62
     7
100
AcDbLine
 10
108.8881
 20
41.507888
 30
0.0
 11
108.677604
 21
41.965397
 31
0.0
  0
LINE
  5
288
100
AcDbEntity
  8
CUT
 62
     7
100
AcDbLine
 10
108.677604
 20
41.965397
 30
0.0
 11
108.582175
 21
42.195874
 31
0.0
  0
LINE
  5
287
100
AcDbEntity
  8
CUT
 62
     7
100
AcDbLine
 10
108.582175
 20
42.195874
 30
0.0
 11
108.49467
 21
42.428073
 31
0.0
  0
LINE
  5
286
100
AcDbEntity
  8
CUT
 62
     7
100
AcDbLine
 10
108.49467
 20
42.428073
 30
0.0
 11
108.454362
 21
42.544518
 31
0.0
  0
LINE
  5
285
100
AcDbEntity
  8
CUT
 62
     7
100
AcDbLine
 10
108.454362
 20
42.544518
 30
0.0
 11
108.416121
 21
42.661651
 31
0.0
  0
LINE
  5
284
100
AcDbEntity
  8
CUT
 62
     7
100
AcDbLine
 10
108.416121
 20
42.661651
 30
0.0
 11
108.380981
 21
42.779473
 31
0.0
  0
LINE
  5
283
100
AcDbEntity
  8
CUT
 62
     7
100
AcDbLine
 10
108.380981
 20
42.779473
 30
0.0
 11
108.349631
 21
42.897295
 31
0.0
  0
LINE
  5
282
100
AcDbEntity
  8
CUT
 62
     7
100
AcDbLine
 10
108.349631
 20
42.897295
 30
0.0
 11
104.766043
 21
42.444954
 31
0.0
  0
LINE
  5
281
100
AcDbEntity
  8
CUT
 62
     7
100
AcDbLine
 10
104.766043
 20
42.444954
 30
0.0
 11
104.766043
 21
42.322309
 31
0.0
  0
LINE
  5
280
100
AcDbEntity
  8
CUT
 62
     7
100
AcDbLine
 10
104.766043
 20
42.322309
 30
0.0
 11
104.76122
 21
42.199664
 31
0.0
  0
LINE
  5
27F
100
AcDbEntity
  8
CUT
 62
     7
100
AcDbLine
 10
104.76122
 20
42.199664
 30
0.0
 11
104.75364
 21
42.077018
 31
0.0
  0
LINE
  5
27E
100
AcDbEntity
  8
CUT
 62
     7
100
AcDbLine
 10
104.75364
 20
42.077018
 30
0.0
 11
104.742961
 21
41.954028
 31
0.0
  0
LINE
  5
27D
100
AcDbEntity
  8
CUT
 62
     7
100
AcDbLine
 10
104.742961
 20
41.954028
 30
0.0
 11
104.716089
 21
41.707359
 31
0.0
  0
LINE
  5
27C
100
AcDbEntity
  8
CUT
 62
     7
100
AcDbLine
 10
104.716089
 20
41.707359
 30
0.0
 11
104.681293
 21
41.460346
 31
0.0
  0
LINE
  5
27B
100
AcDbEntity
  8
CUT
 62
     7
100
AcDbLine
 10
104.681293
 20
41.460346
 30
0.0
 11
104.591032
 21
40.964941
 31
0.0
  0
LINE
  5
27A
100
AcDbEntity
  8
CUT
 62
     7
100
AcDbLine
 10
104.591032
 20
40.964941
 30
0.0
 11
104.477344
 21
40.468159
 31
0.0
  0
LINE
  5
279
100
AcDbEntity
  8
CUT
 62
     7
100
AcDbLine
 10
104.477344
 20
40.468159
 30
0.0
 11
104.341951
 21
39.970687
 31
0.0
  0
LINE
  5
278
100
AcDbEntity
  8
CUT
 62
     7
100
AcDbLine
 10
104.341951
 20
39.970687
 30
0.0
 11
104.187267
 21
39.472526
 31
0.0
  0
LINE
  5
277
100
AcDbEntity
  8
CUT
 62
     7
100
AcDbLine
 10
104.187267
 20
39.472526
 30
0.0
 11
104.013634
 21
38.974021
 31
0.0
  0
LINE
  5
276
100
AcDbEntity
  8
CUT
 62
     7
100
AcDbLine
 10
104.013634
 20
38.974021
 30
0.0
 11
103.822776
 21
38.475515
 31
0.0
  0
LINE
  5
275
100
AcDbEntity
  8
CUT
 62
     7
100
AcDbLine
 10
103.822776
 20
38.475515
 30
0.0
 11
103.615036
 21
37.977699
 31
0.0
  0
LINE
  5
274
100
AcDbEntity
  8
CUT
 62
     7
100
AcDbLine
 10
103.615036
 20
37.977699
 30
0.0
 11
103.390761
 21
37.480227
 31
0.0
  0
LINE
  5
273
100
AcDbEntity
  8
CUT
 62
     7
100
AcDbLine
 10
103.390761
 20
37.480227
 30
0.0
 11
100.241599
 21
37.465069
 31
0.0
  0
LINE
  5
272
100
AcDbEntity
  8
CUT
 62
     7
100
AcDbLine
 10
100.241599
 20
37.465069
 30
0.0
 11
100.0125
 21
37.960129
 31
0.0
  0
LINE
  5
271
100
AcDbEntity
  8
CUT
 62
     7
100
AcDbLine
 10
100.0125
 20
37.960129
 30
0.0
 11
99.799938
 21
38.456223
 31
0.0
  0
LINE
  5
270
100
AcDbEntity
  8
CUT
 62
     7
100
AcDbLine
 10
99.799938
 20
38.456223
 30
0.0
 11
99.603912
 21
38.953006
 31
0.0
  0
LINE
  5
26F
100
AcDbEntity
  8
CUT
 62
     7
100
AcDbLine
 10
99.603912
 20
38.953006
 30
0.0
 11
99.4258
 21
39.449444
 31
0.0
  0
LINE
  5
26E
100
AcDbEntity
  8
CUT
 62
     7
100
AcDbLine
 10
99.4258
 20
39.449444
 30
0.0
 11
99.266292
 21
39.945882
 31
0.0
  0
LINE
  5
26D
100
AcDbEntity
  8
CUT
 62
     7
100
AcDbLine
 10
99.266292
 20
39.945882
 30
0.0
 11
99.126077
 21
40.44232
 31
0.0
  0
LINE
  5
26C
100
AcDbEntity
  8
CUT
 62
     7
100
AcDbLine
 10
99.126077
 20
40.44232
 30
0.0
 11
99.007221
 21
40.93807
 31
0.0
  0
LINE
  5
26B
100
AcDbEntity
  8
CUT
 62
     7
100
AcDbLine
 10
99.007221
 20
40.93807
 30
0.0
 11
98.912481
 21
41.432441
 31
0.0
  0
LINE
  5
26A
100
AcDbEntity
  8
CUT
 62
     7
100
AcDbLine
 10
98.912481
 20
41.432441
 30
0.0
 11
98.875274
 21
41.67911
 31
0.0
  0
LINE
  5
269
100
AcDbEntity
  8
CUT
 62
     7
100
AcDbLine
 10
98.875274
 20
41.67911
 30
0.0
 11
98.845646
 21
41.925434
 31
0.0
  0
LINE
  5
268
100
AcDbEntity
  8
CUT
 62
     7
100
AcDbLine
 10
98.845646
 20
41.925434
 30
0.0
 11
98.834277
 21
42.048424
 31
0.0
  0
LINE
  5
267
100
AcDbEntity
  8
CUT
 62
     7
100
AcDbLine
 10
98.834277
 20
42.048424
 30
0.0
 11
98.82532
 21
42.171069
 31
0.0
  0
LINE
  5
266
100
AcDbEntity
  8
CUT
 62
     7
100
AcDbLine
 10
98.82532
 20
42.171069
 30
0.0
 11
98.819119
 21
42.293715
 31
0.0
  0
LINE
  5
265
100
AcDbEntity
  8
CUT
 62
     7
100
AcDbLine
 10
98.819119
 20
42.293715
 30
0.0
 11
98.816363
 21
42.416016
 31
0.0
  0
LINE
  5
264
100
AcDbEntity
  8
CUT
 62
     7
100
AcDbLine
 10
98.816363
 20
42.416016
 30
0.0
 11
95.228296
 21
42.833906
 31
0.0
  0
LINE
  5
263
100
AcDbEntity
  8
CUT
 62
     7
100
AcDbLine
 10
95.228296
 20
42.833906
 30
0.0
 11
95.198324
 21
42.715739
 31
0.0
  0
LINE
  5
262
100
AcDbEntity
  8
CUT
 62
     7
100
AcDbLine
 10
95.198324
 20
42.715739
 30
0.0
 11
95.164217
 21
42.597572
 31
0.0
  0
LINE
  5
261
100
AcDbEntity
  8
CUT
 62
     7
100
AcDbLine
 10
95.164217
 20
42.597572
 30
0.0
 11
95.127355
 21
42.480094
 31
0.0
  0
LINE
  5
260
100
AcDbEntity
  8
CUT
 62
     7
100
AcDbLine
 10
95.127355
 20
42.480094
 30
0.0
 11
95.087736
 21
42.363306
 31
0.0
  0
LINE
  5
25F
100
AcDbEntity
  8
CUT
 62
     7
100
AcDbLine
 10
95.087736
 20
42.363306
 30
0.0
 11
95.002298
 21
42.130417
 31
0.0
  0
LINE
  5
25E
100
AcDbEntity
  8
CUT
 62
     7
100
AcDbLine
 10
95.002298
 20
42.130417
 30
0.0
 11
94.90928
 21
41.898907
 31
0.0
  0
LINE
  5
25D
100
AcDbEntity
  8
CUT
 62
     7
100
AcDbLine
 10
94.90928
 20
41.898907
 30
0.0
 11
94.703608
 21
41.439331
 31
0.0
  0
LINE
  5
25C
100
AcDbEntity
  8
CUT
 62
     7
100
AcDbLine
 10
94.703608
 20
41.439331
 30
0.0
 11
94.47382
 21
40.984234
 31
0.0
  0
LINE
  5
25B
100
AcDbEntity
  8
CUT
 62
     7
100
AcDbLine
 10
94.47382
 20
40.984234
 30
0.0
 11
94.223706
 21
40.533271
 31
0.0
  0
LINE
  5
25A
100
AcDbEntity
  8
CUT
 62
     7
100
AcDbLine
 10
94.223706
 20
40.533271
 30
0.0
 11
93.953955
 21
40.086787
 31
0.0
  0
LINE
  5
259
100
AcDbEntity
  8
CUT
 62
     7
100
AcDbLine
 10
93.953955
 20
40.086787
 30
0.0
 11
93.66629
 21
39.644436
 31
0.0
  0
LINE
  5
258
100
AcDbEntity
  8
CUT
 62
     7
100
AcDbLine
 10
93.66629
 20
39.644436
 30
0.0
 11
93.361743
 21
39.20622
 31
0.0
  0
LINE
  5
257
100
AcDbEntity
  8
CUT
 62
     7
100
AcDbLine
 10
93.361743
 20
39.20622
 30
0.0
 11
93.04066
 21
38.772483
 31
0.0
  0
LINE
  5
256
100
AcDbEntity
  8
CUT
 62
     7
100
AcDbLine
 10
93.04066
 20
38.772483
 30
0.0
 11
92.70373
 21
38.343224
 31
0.0
  0
LINE
  5
255
100
AcDbEntity
  8
CUT
 62
     7
100
AcDbLine
 10
92.70373
 20
38.343224
 30
0.0
 11
89.642418
 21
39.082197
 31
0.0
  0
LINE
  5
254
100
AcDbEntity
  8
CUT
 62
     7
100
AcDbLine
 10
89.642418
 20
39.082197
 30
0.0
 11
89.538721
 21
39.617909
 31
0.0
  0
LINE
  5
253
100
AcDbEntity
  8
CUT
 62
     7
100
AcDbLine
 10
89.538721
 20
39.617909
 30
0.0
 11
89.450871
 21
40.150176
 31
0.0
  0
LINE
  5
252
100
AcDbEntity
  8
CUT
 62
     7
100
AcDbLine
 10
89.450871
 20
40.150176
 30
0.0
 11
89.379557
 21
40.678998
 31
0.0
  0
LINE
  5
251
100
AcDbEntity
  8
CUT
 62
     7
100
AcDbLine
 10
89.379557
 20
40.678998
 30
0.0
 11
89.325469
 21
41.204031
 31
0.0
  0
LINE
  5
250
100
AcDbEntity
  8
CUT
 62
     7
100
AcDbLine
 10
89.325469
 20
41.204031
 30
0.0
 11
89.289296
 21
41.72424
 31
0.0
  0
LINE
  5
24F
100
AcDbEntity
  8
CUT
 62
     7
100
AcDbLine
 10
89.289296
 20
41.72424
 30
0.0
 11
89.272415
 21
42.239627
 31
0.0
  0
LINE
  5
24E
100
AcDbEntity
  8
CUT
 62
     7
100
AcDbLine
 10
89.272415
 20
42.239627
 30
0.0
 11
89.275515
 21
42.749501
 31
0.0
  0
LINE
  5
24D
100
AcDbEntity
  8
CUT
 62
     7
100
AcDbLine
 10
89.275515
 20
42.749501
 30
0.0
 11
89.302043
 21
43.25214
 31
0.0
  0
LINE
  5
24C
100
AcDbEntity
  8
CUT
 62
     7
100
AcDbLine
 10
89.302043
 20
43.25214
 30
0.0
 11
89.32478
 21
43.500532
 31
0.0
  0
LINE
  5
24B
100
AcDbEntity
  8
CUT
 62
     7
100
AcDbLine
 10
89.32478
 20
43.500532
 30
0.0
 11
89.355097
 21
43.746856
 31
0.0
  0
LINE
  5
24A
100
AcDbEntity
  8
CUT
 62
     7
100
AcDbLine
 10
89.355097
 20
43.746856
 30
0.0
 11
89.373356
 21
43.868812
 31
0.0
  0
LINE
  5
249
100
AcDbEntity
  8
CUT
 62
     7
100
AcDbLine
 10
89.373356
 20
43.868812
 30
0.0
 11
89.394371
 21
43.990424
 31
0.0
  0
LINE
  5
248
100
AcDbEntity
  8
CUT
 62
     7
100
AcDbLine
 10
89.394371
 20
43.990424
 30
0.0
 11
89.417798
 21
44.110658
 31
0.0
  0
LINE
  5
247
100
AcDbEntity
  8
CUT
 62
     7
100
AcDbLine
 10
89.417798
 20
44.110658
 30
0.0
 11
89.44467
 21
44.230203
 31
0.0
  0
LINE
  5
246
100
AcDbEntity
  8
CUT
 62
     7
100
AcDbLine
 10
89.44467
 20
44.230203
 30
0.0
 11
86.061241
 21
45.494553
 31
0.0
  0
LINE
  5
245
100
AcDbEntity
  8
CUT
 62
     7
100
AcDbLine
 10
86.061241
 20
45.494553
 30
0.0
 11
86.003364
 21
45.386721
 31
0.0
  0
LINE
  5
244
100
AcDbEntity
  8
CUT
 62
     7
100
AcDbLine
 10
86.003364
 20
45.386721
 30
0.0
 11
85.942041
 21
45.280613
 31
0.0
  0
LINE
  5
243
100
AcDbEntity
  8
CUT
 62
     7
100
AcDbLine
 10
85.942041
 20
45.280613
 30
0.0
 11
85.877962
 21
45.175537
 31
0.0
  0
LINE
  5
242
100
AcDbEntity
  8
CUT
 62
     7
100
AcDbLine
 10
85.877962
 20
45.175537
 30
0.0
 11
85.812161
 21
45.071151
 31
0.0
  0
LINE
  5
241
100
AcDbEntity
  8
CUT
 62
     7
100
AcDbLine
 10
85.812161
 20
45.071151
 30
0.0
 11
85.673324
 21
44.865479
 31
0.0
  0
LINE
  5
240
100
AcDbEntity
  8
CUT
 62
     7
100
AcDbLine
 10
85.673324
 20
44.865479
 30
0.0
 11
85.527596
 21
44.662907
 31
0.0
  0
LINE
  5
23F
100
AcDbEntity
  8
CUT
 62
     7
100
AcDbLine
 10
85.527596
 20
44.662907
 30
0.0
 11
85.217537
 21
44.266032
 31
0.0
  0
LINE
  5
23E
100
AcDbEntity
  8
CUT
 62
     7
100
AcDbLine
 10
85.217537
 20
44.266032
 30
0.0
 11
84.885775
 21
43.879148
 31
0.0
  0
LINE
  5
23D
100
AcDbEntity
  8
CUT
 62
     7
100
AcDbLine
 10
84.885775
 20
43.879148
 30
0.0
 11
84.535064
 21
43.501221
 31
0.0
  0
LINE
  5
23C
100
AcDbEntity
  8
CUT
 62
     7
100
AcDbLine
 10
84.535064
 20
43.501221
 30
0.0
 11
84.166094
 21
43.132251
 31
0.0
  0
LINE
  5
23B
100
AcDbEntity
  8
CUT
 62
     7
100
AcDbLine
 10
84.166094
 20
43.132251
 30
0.0
 11
83.781277
 21
42.771549
 31
0.0
  0
LINE
  5
23A
100
AcDbEntity
  8
CUT
 62
     7
100
AcDbLine
 10
83.781277
 20
42.771549
 30
0.0
 11
83.380268
 21
42.418772
 31
0.0
  0
LINE
  5
239
100
AcDbEntity
  8
CUT
 62
     7
100
AcDbLine
 10
83.380268
 20
42.418772
 30
0.0
 11
82.964789
 21
42.074951
 31
0.0
  0
LINE
  5
238
100
AcDbEntity
  8
CUT
 62
     7
100
AcDbLine
 10
82.964789
 20
42.074951
 30
0.0
 11
82.535186
 21
41.738365
 31
0.0
  0
LINE
  5
237
100
AcDbEntity
  8
CUT
 62
     7
100
AcDbLine
 10
82.535186
 20
41.738365
 30
0.0
 11
79.739836
 21
43.188062
 31
0.0
  0
LINE
  5
236
100
AcDbEntity
  8
CUT
 62
     7
100
AcDbLine
 10
79.739836
 20
43.188062
 30
0.0
 11
79.767052
 21
43.73342
 31
0.0
  0
LINE
  5
235
100
AcDbEntity
  8
CUT
 62
     7
100
AcDbLine
 10
79.767052
 20
43.73342
 30
0.0
 11
79.809082
 21
44.271544
 31
0.0
  0
LINE
  5
234
100
AcDbEntity
  8
CUT
 62
     7
100
AcDbLine
 10
79.809082
 20
44.271544
 30
0.0
 11
79.866271
 21
44.802089
 31
0.0
  0
LINE
  5
233
100
AcDbEntity
  8
CUT
 62
     7
100
AcDbLine
 10
79.866271
 20
44.802089
 30
0.0
 11
79.939651
 21
45.324365
 31
0.0
  0
LINE
  5
232
100
AcDbEntity
  8
CUT
 62
     7
100
AcDbLine
 10
79.939651
 20
45.324365
 30
0.0
 11
80.028879
 21
45.838373
 31
0.0
  0
LINE
  5
231
100
AcDbEntity
  8
CUT
 62
     7
100
AcDbLine
 10
80.028879
 20
45.838373
 30
0.0
 11
80.135677
 21
46.34308
 31
0.0
  0
LINE
  5
230
100
AcDbEntity
  8
CUT
 62
     7
100
AcDbLine
 10
80.135677
 20
46.34308
 30
0.0
 11
80.260734
 21
46.836762
 31
0.0
  0
LINE
  5
22F
100
AcDbEntity
  8
CUT
 62
     7
100
AcDbLine
 10
80.260734
 20
46.836762
 30
0.0
 11
80.406806
 21
47.319076
 31
0.0
  0
LINE
  5
22E
100
AcDbEntity
  8
CUT
 62
     7
100
AcDbLine
 10
80.406806
 20
47.319076
 30
0.0
 11
80.488455
 21
47.55472
 31
0.0
  0
LINE
  5
22D
100
AcDbEntity
  8
CUT
 62
     7
100
AcDbLine
 10
80.488455
 20
47.55472
 30
0.0
 11
80.576649
 21
47.786575
 31
0.0
  0
LINE
  5
22C
100
AcDbEntity
  8
CUT
 62
     7
100
AcDbLine
 10
80.576649
 20
47.786575
 30
0.0
 11
80.623503
 21
47.900608
 31
0.0
  0
LINE
  5
22B
100
AcDbEntity
  8
CUT
 62
     7
100
AcDbLine
 10
80.623503
 20
47.900608
 30
0.0
 11
80.672767
 21
48.013607
 31
0.0
  0
LINE
  5
22A
100
AcDbEntity
  8
CUT
 62
     7
100
AcDbLine
 10
80.672767
 20
48.013607
 30
0.0
 11
80.724444
 21
48.124883
 31
0.0
  0
LINE
  5
229
100
AcDbEntity
  8
CUT
 62
     7
100
AcDbLine
 10
80.724444
 20
48.124883
 30
0.0
 11
80.779221
 21
48.234093
 31
0.0
  0
LINE
  5
228
100
AcDbEntity
  8
CUT
 62
     7
100
AcDbLine
 10
80.779221
 20
48.234093
 30
0.0
 11
77.796457
 21
50.271867
 31
0.0
  0
LINE
  5
227
100
AcDbEntity
  8
CUT
 62
     7
100
AcDbLine
 10
77.796457
 20
50.271867
 30
0.0
 11
77.714808
 21
50.180916
 31
0.0
  0
LINE
  5
226
100
AcDbEntity
  8
CUT
 62
     7
100
AcDbLine
 10
77.714808
 20
50.180916
 30
0.0
 11
77.629715
 21
50.092377
 31
0.0
  0
LINE
  5
225
100
AcDbEntity
  8
CUT
 62
     7
100
AcDbLine
 10
77.629715
 20
50.092377
 30
0.0
 11
77.542554
 21
50.005561
 31
0.0
  0
LINE
  5
224
100
AcDbEntity
  8
CUT
 62
     7
100
AcDbLine
 10
77.542554
 20
50.005561
 30
0.0
 11
77.453326
 21
49.920123
 31
0.0
  0
LINE
  5
223
100
AcDbEntity
  8
CUT
 62
     7
100
AcDbLine
 10
77.453326
 20
49.920123
 30
0.0
 11
77.269358
 21
49.753725
 31
0.0
  0
LINE
  5
222
100
AcDbEntity
  8
CUT
 62
     7
100
AcDbLine
 10
77.269358
 20
49.753725
 30
0.0
 11
77.079533
 21
49.591805
 31
0.0
  0
LINE
  5
221
100
AcDbEntity
  8
CUT
 62
     7
100
AcDbLine
 10
77.079533
 20
49.591805
 30
0.0
 11
76.683347
 21
49.280713
 31
0.0
  0
LINE
  5
220
100
AcDbEntity
  8
CUT
 62
     7
100
AcDbLine
 10
76.683347
 20
49.280713
 30
0.0
 11
76.268902
 21
48.984435
 31
0.0
  0
LINE
  5
21F
100
AcDbEntity
  8
CUT
 62
     7
100
AcDbLine
 10
76.268902
 20
48.984435
 30
0.0
 11
75.837576
 21
48.701592
 31
0.0
  0
LINE
  5
21E
100
AcDbEntity
  8
CUT
 62
     7
100
AcDbLine
 10
75.837576
 20
48.701592
 30
0.0
 11
75.391436
 21
48.431497
 31
0.0
  0
LINE
  5
21D
100
AcDbEntity
  8
CUT
 62
     7
100
AcDbLine
 10
75.391436
 20
48.431497
 30
0.0
 11
74.931171
 21
48.173459
 31
0.0
  0
LINE
  5
21C
100
AcDbEntity
  8
CUT
 62
     7
100
AcDbLine
 10
74.931171
 20
48.173459
 30
0.0
 11
74.457815
 21
47.927135
 31
0.0
  0
LINE
  5
21B
100
AcDbEntity
  8
CUT
 62
     7
100
AcDbLine
 10
74.457815
 20
47.927135
 30
0.0
 11
73.972057
 21
47.692179
 31
0.0
  0
LINE
  5
21A
100
AcDbEntity
  8
CUT
 62
     7
100
AcDbLine
 10
73.972057
 20
47.692179
 30
0.0
 11
73.47424
 21
47.468593
 31
0.0
  0
LINE
  5
219
100
AcDbEntity
  8
CUT
 62
     7
100
AcDbLine
 10
73.47424
 20
47.468593
 30
0.0
 11
71.107115
 21
49.545296
 31
0.0
  0
LINE
  5
218
100
AcDbEntity
  8
CUT
 62
     7
100
AcDbLine
 10
71.107115
 20
49.545296
 30
0.0
 11
71.263867
 21
50.067917
 31
0.0
  0
LINE
  5
217
100
AcDbEntity
  8
CUT
 62
     7
100
AcDbLine
 10
71.263867
 20
50.067917
 30
0.0
 11
71.43371
 21
50.580203
 31
0.0
  0
LINE
  5
216
100
AcDbEntity
  8
CUT
 62
     7
100
AcDbLine
 10
71.43371
 20
50.580203
 30
0.0
 11
71.6163
 21
51.081809
 31
0.0
  0
LINE
  5
215
100
AcDbEntity
  8
CUT
 62
     7
100
AcDbLine
 10
71.6163
 20
51.081809
 30
0.0
 11
71.812326
 21
51.571701
 31
0.0
  0
LINE
  5
214
100
AcDbEntity
  8
CUT
 62
     7
100
AcDbLine
 10
71.812326
 20
51.571701
 30
0.0
 11
72.022133
 21
52.049192
 31
0.0
  0
LINE
  5
213
100
AcDbEntity
  8
CUT
 62
     7
100
AcDbLine
 10
72.022133
 20
52.049192
 30
0.0
 11
72.246408
 21
52.513246
 31
0.0
  0
LINE
  5
212
100
AcDbEntity
  8
CUT
 62
     7
100
AcDbLine
 10
72.246408
 20
52.513246
 30
0.0
 11
72.486187
 21
52.963175
 31
0.0
  0
LINE
  5
211
100
AcDbEntity
  8
CUT
 62
     7
100
AcDbLine
 10
72.486187
 20
52.963175
 30
0.0
 11
72.743191
 21
53.396224
 31
0.0
  0
LINE
  5
210
100
AcDbEntity
  8
CUT
 62
     7
100
AcDbLine
 10
72.743191
 20
53.396224
 30
0.0
 11
72.878928
 21
53.605686
 31
0.0
  0
LINE
  5
20F
100
AcDbEntity
  8
CUT
 62
     7
100
AcDbLine
 10
72.878928
 20
53.605686
 30
0.0
 11
73.020177
 21
53.809291
 31
0.0
  0
LINE
  5
20E
100
AcDbEntity
  8
CUT
 62
     7
100
AcDbLine
 10
73.020177
 20
53.809291
 30
0.0
 11
73.092868
 21
53.909199
 31
0.0
  0
LINE
  5
20D
100
AcDbEntity
  8
CUT
 62
     7
100
AcDbLine
 10
73.092868
 20
53.909199
 30
0.0
 11
73.167627
 21
54.007039
 31
0.0
  0
LINE
  5
20C
100
AcDbEntity
  8
CUT
 62
     7
100
AcDbLine
 10
73.167627
 20
54.007039
 30
0.0
 11
73.244453
 21
54.102813
 31
0.0
  0
LINE
  5
20B
100
AcDbEntity
  8
CUT
 62
     7
100
AcDbLine
 10
73.244453
 20
54.102813
 30
0.0
 11
73.32369
 21
54.195831
 31
0.0
  0
LINE
  5
20A
100
AcDbEntity
  8
CUT
 62
     7
100
AcDbLine
 10
73.32369
 20
54.195831
 30
0.0
 11
70.915568
 21
56.887828
 31
0.0
  0
LINE
  5
209
100
AcDbEntity
  8
CUT
 62
     7
100
AcDbLine
 10
70.915568
 20
56.887828
 30
0.0
 11
70.814282
 21
56.819271
 31
0.0
  0
LINE
  5
208
100
AcDbEntity
  8
CUT
 62
     7
100
AcDbLine
 10
70.814282
 20
56.819271
 30
0.0
 11
70.710585
 21
56.75347
 31
0.0
  0
LINE
  5
207
100
AcDbEntity
  8
CUT
 62
     7
100
AcDbLine
 10
70.710585
 20
56.75347
 30
0.0
 11
70.605165
 21
56.69008
 31
0.0
  0
LINE
  5
206
100
AcDbEntity
  8
CUT
 62
     7
100
AcDbLine
 10
70.605165
 20
56.69008
 30
0.0
 11
70.498022
 21
56.628757
 31
0.0
  0
LINE
  5
205
100
AcDbEntity
  8
CUT
 62
     7
100
AcDbLine
 10
70.498022
 20
56.628757
 30
0.0
 11
70.279603
 21
56.510935
 31
0.0
  0
LINE
  5
204
100
AcDbEntity
  8
CUT
 62
     7
100
AcDbLine
 10
70.279603
 20
56.510935
 30
0.0
 11
70.056361
 21
56.399658
 31
0.0
  0
LINE
  5
203
100
AcDbEntity
  8
CUT
 62
     7
100
AcDbLine
 10
70.056361
 20
56.399658
 30
0.0
 11
69.597475
 21
56.191919
 31
0.0
  0
LINE
  5
202
100
AcDbEntity
  8
CUT
 62
     7
100
AcDbLine
 10
69.597475
 20
56.191919
 30
0.0
 11
69.123774
 21
56.003472
 31
0.0
  0
LINE
  5
201
100
AcDbEntity
  8
CUT
 62
     7
100
AcDbLine
 10
69.123774
 20
56.003472
 30
0.0
 11
68.637671
 21
55.832251
 31
0.0
  0
LINE
  5
200
100
AcDbEntity
  8
CUT
 62
     7
100
AcDbLine
 10
68.637671
 20
55.832251
 30
0.0
 11
68.139855
 21
55.676533
 31
0.0
  0
LINE
  5
1FF
100
AcDbEntity
  8
CUT
 62
     7
100
AcDbLine
 10
68.139855
 20
55.676533
 30
0.0
 11
67.631359
 21
55.536317
 31
0.0
  0
LINE
  5
1FE
100
AcDbEntity
  8
CUT
 62
     7
100
AcDbLine
 10
67.631359
 20
55.536317
 30
0.0
 11
67.112527
 21
55.410227
 31
0.0
  0
LINE
  5
1FD
100
AcDbEntity
  8
CUT
 62
     7
100
AcDbLine
 10
67.112527
 20
55.410227
 30
0.0
 11
66.584394
 21
55.298606
 31
0.0
  0
LINE
  5
1FC
100
AcDbEntity
  8
CUT
 62
     7
100
AcDbLine
 10
66.584394
 20
55.298606
 30
0.0
 11
66.047648
 21
55.20042
 31
0.0
  0
LINE
  5
1FB
100
AcDbEntity
  8
CUT
 62
     7
100
AcDbLine
 10
66.047648
 20
55.20042
 30
0.0
 11
64.246552
 21
57.783553
 31
0.0
  0
LINE
  5
1FA
100
AcDbEntity
  8
CUT
 62
     7
100
AcDbLine
 10
64.246552
 20
57.783553
 30
0.0
 11
64.523882
 21
58.253464
 31
0.0
  0
LINE
  5
1F9
100
AcDbEntity
  8
CUT
 62
     7
100
AcDbLine
 10
64.523882
 20
58.253464
 30
0.0
 11
64.811203
 21
58.710284
 31
0.0
  0
LINE
  5
1F8
100
AcDbEntity
  8
CUT
 62
     7
100
AcDbLine
 10
64.811203
 20
58.710284
 30
0.0
 11
65.108515
 21
59.153323
 31
0.0
  0
LINE
  5
1F7
100
AcDbEntity
  8
CUT
 62
     7
100
AcDbLine
 10
65.108515
 20
59.153323
 30
0.0
 11
65.415818
 21
59.582237
 31
0.0
  0
LINE
  5
1F6
100
AcDbEntity
  8
CUT
 62
     7
100
AcDbLine
 10
65.415818
 20
59.582237
 30
0.0
 11
65.734144
 21
59.995649
 31
0.0
  0
LINE
  5
1F5
100
AcDbEntity
  8
CUT
 62
     7
100
AcDbLine
 10
65.734144
 20
59.995649
 30
0.0
 11
66.062807
 21
60.392524
 31
0.0
  0
LINE
  5
1F4
100
AcDbEntity
  8
CUT
 62
     7
100
AcDbLine
 10
66.062807
 20
60.392524
 30
0.0
 11
66.403526
 21
60.771829
 31
0.0
  0
LINE
  5
1F3
100
AcDbEntity
  8
CUT
 62
     7
100
AcDbLine
 10
66.403526
 20
60.771829
 30
0.0
 11
66.756649
 21
61.130808
 31
0.0
  0
LINE
  5
1F2
100
AcDbEntity
  8
CUT
 62
     7
100
AcDbLine
 10
66.756649
 20
61.130808
 30
0.0
 11
66.938205
 21
61.302029
 31
0.0
  0
LINE
  5
1F1
100
AcDbEntity
  8
CUT
 62
     7
100
AcDbLine
 10
66.938205
 20
61.302029
 30
0.0
 11
67.12424
 21
61.466016
 31
0.0
  0
LINE
  5
1F0
100
AcDbEntity
  8
CUT
 62
     7
100
AcDbLine
 10
67.12424
 20
61.466016
 30
0.0
 11
67.218981
 21
61.545253
 31
0.0
  0
LINE
  5
1EF
100
AcDbEntity
  8
CUT
 62
     7
100
AcDbLine
 10
67.218981
 20
61.545253
 30
0.0
 11
67.315099
 21
61.622423
 31
0.0
  0
LINE
  5
1EE
100
AcDbEntity
  8
CUT
 62
     7
100
AcDbLine
 10
67.315099
 20
61.622423
 30
0.0
 11
67.412595
 21
61.696837
 31
0.0
  0
LINE
  5
1ED
100
AcDbEntity
  8
CUT
 62
     7
100
AcDbLine
 10
67.412595
 20
61.696837
 30
0.0
 11
67.511814
 21
61.76815
 31
0.0
  0
LINE
  5
1EC
100
AcDbEntity
  8
CUT
 62
     7
100
AcDbLine
 10
67.511814
 20
61.76815
 30
0.0
 11
65.81786
 21
64.958309
 31
0.0
  0
LINE
  5
1EB
100
AcDbEntity
  8
CUT
 62
     7
100
AcDbLine
 10
65.81786
 20
64.958309
 30
0.0
 11
65.703139
 21
64.916279
 31
0.0
  0
LINE
  5
1EA
100
AcDbEntity
  8
CUT
 62
     7
100
AcDbLine
 10
65.703139
 20
64.916279
 30
0.0
 11
65.586694
 21
64.877005
 31
0.0
  0
LINE
  5
1E9
100
AcDbEntity
  8
CUT
 62
     7
100
AcDbLine
 10
65.586694
 20
64.877005
 30
0.0
 11
65.469217
 21
64.840831
 31
0.0
  0
LINE
  5
1E8
100
AcDbEntity
  8
CUT
 62
     7
100
AcDbLine
 10
65.469217
 20
64.840831
 30
0.0
 11
65.350016
 21
64.806725
 31
0.0
  0
LINE
  5
1E7
100
AcDbEntity
  8
CUT
 62
     7
100
AcDbLine
 10
65.350016
 20
64.806725
 30
0.0
 11
65.110238
 21
64.744713
 31
0.0
  0
LINE
  5
1E6
100
AcDbEntity
  8
CUT
 62
     7
100
AcDbLine
 10
65.110238
 20
64.744713
 30
0.0
 11
64.866669
 21
64.689591
 31
0.0
  0
LINE
  5
1E5
100
AcDbEntity
  8
CUT
 62
     7
100
AcDbLine
 10
64.866669
 20
64.689591
 30
0.0
 11
64.371609
 21
64.598296
 31
0.0
  0
LINE
  5
1E4
100
AcDbEntity
  8
CUT
 62
     7
100
AcDbLine
 10
64.371609
 20
64.598296
 30
0.0
 11
63.866558
 21
64.528706
 31
0.0
  0
LINE
  5
1E3
100
AcDbEntity
  8
CUT
 62
     7
100
AcDbLine
 10
63.866558
 20
64.528706
 30
0.0
 11
63.353239
 21
64.478752
 31
0.0
  0
LINE
  5
1E2
100
AcDbEntity
  8
CUT
 62
     7
100
AcDbLine
 10
63.353239
 20
64.478752
 30
0.0
 11
62.832685
 21
64.446712
 31
0.0
  0
LINE
  5
1E1
100
AcDbEntity
  8
CUT
 62
     7
100
AcDbLine
 10
62.832685
 20
64.446712
 30
0.0
 11
62.305585
 21
64.432243
 31
0.0
  0
LINE
  5
1E0
100
AcDbEntity
  8
CUT
 62
     7
100
AcDbLine
 10
62.305585
 20
64.432243
 30
0.0
 11
61.771596
 21
64.433965
 31
0.0
  0
LINE
  5
1DF
100
AcDbEntity
  8
CUT
 62
     7
100
AcDbLine
 10
61.771596
 20
64.433965
 30
0.0
 11
61.232438
 21
64.451535
 31
0.0
  0
LINE
  5
1DE
100
AcDbEntity
  8
CUT
 62
     7
100
AcDbLine
 10
61.232438
 20
64.451535
 30
0.0
 11
60.687424
 21
64.484953
 31
0.0
  0
LINE
  5
1DD
100
AcDbEntity
  8
CUT
 62
     7
100
AcDbLine
 10
60.687424
 20
64.484953
 30
0.0
 11
59.556399
 21
67.423964
 31
0.0
  0
LINE
  5
1DC
100
AcDbEntity
  8
CUT
 62
     7
100
AcDbLine
 10
59.556399
 20
67.423964
 30
0.0
 11
59.93846
 21
67.813949
 31
0.0
  0
LINE
  5
1DB
100
AcDbEntity
  8
CUT
 62
     7
100
AcDbLine
 10
59.93846
 20
67.813949
 30
0.0
 11
60.326723
 21
68.18843
 31
0.0
  0
LINE
  5
1DA
100
AcDbEntity
  8
CUT
 62
     7
100
AcDbLine
 10
60.326723
 20
68.18843
 30
0.0
 11
60.72153
 21
68.547754
 31
0.0
  0
LINE
  5
1D9
100
AcDbEntity
  8
CUT
 62
     7
100
AcDbLine
 10
60.72153
 20
68.547754
 30
0.0
 11
61.122884
 21
68.890541
 31
0.0
  0
LINE
  5
1D8
100
AcDbEntity
  8
CUT
 62
     7
100
AcDbLine
 10
61.122884
 20
68.890541
 30
0.0
 11
61.530439
 21
69.215758
 31
0.0
  0
LINE
  5
1D7
100
AcDbEntity
  8
CUT
 62
     7
100
AcDbLine
 10
61.530439
 20
69.215758
 30
0.0
 11
61.944884
 21
69.522716
 31
0.0
  0
LINE
  5
1D6
100
AcDbEntity
  8
CUT
 62
     7
100
AcDbLine
 10
61.944884
 20
69.522716
 30
0.0
 11
62.366219
 21
69.809348
 31
0.0
  0
LINE
  5
1D5
100
AcDbEntity
  8
CUT
 62
     7
100
AcDbLine
 10
62.366219
 20
69.809348
 30
0.0
 11
62.795133
 21
70.073587
 31
0.0
  0
LINE
  5
1D4
100
AcDbEntity
  8
CUT
 62
     7
100
AcDbLine
 10
62.795133
 20
70.073587
 30
0.0
 11
63.012519
 21
70.195543
 31
0.0
  0
LINE
  5
1D3
100
AcDbEntity
  8
CUT
 62
     7
100
AcDbLine
 10
63.012519
 20
70.195543
 30
0.0
 11
63.232316
 21
70.310609
 31
0.0
  0
LINE
  5
1D2
100
AcDbEntity
  8
CUT
 62
     7
100
AcDbLine
 10
63.232316
 20
70.310609
 30
0.0
 11
63.343248
 21
70.365042
 31
0.0
  0
LINE
  5
1D1
100
AcDbEntity
  8
CUT
 62
     7
100
AcDbLine
 10
63.343248
 20
70.365042
 30
0.0
 11
63.454869
 21
70.416718
 31
0.0
  0
LINE
  5
1D0
100
AcDbEntity
  8
CUT
 62
     7
100
AcDbLine
 10
63.454869
 20
70.416718
 30
0.0
 11
63.567179
 21
70.465983
 31
0.0
  0
LINE
  5
1CF
100
AcDbEntity
  8
CUT
 62
     7
100
AcDbLine
 10
63.567179
 20
70.465983
 30
0.0
 11
63.680868
 21
70.511458
 31
0.0
  0
LINE
  5
1CE
100
AcDbEntity
  8
CUT
 62
     7
100
AcDbLine
 10
63.680868
 20
70.511458
 30
0.0
 11
62.799268
 21
74.014431
 31
0.0
  0
LINE
  5
1CD
100
AcDbEntity
  8
CUT
 62
     7
100
AcDbLine
 10
62.799268
 20
74.014431
 30
0.0
 11
62.678
 21
74.000651
 31
0.0
  0
LINE
  5
1CC
100
AcDbEntity
  8
CUT
 62
     7
100
AcDbLine
 10
62.678
 20
74.000651
 30
0.0
 11
62.555699
 21
73.991005
 31
0.0
  0
LINE
  5
1CB
100
AcDbEntity
  8
CUT
 62
     7
100
AcDbLine
 10
62.555699
 20
73.991005
 30
0.0
 11
62.432709
 21
73.98377
 31
0.0
  0
LINE
  5
1CA
100
AcDbEntity
  8
CUT
 62
     7
100
AcDbLine
 10
62.432709
 20
73.98377
 30
0.0
 11
62.309375
 21
73.978947
 31
0.0
  0
LINE
  5
1C9
100
AcDbEntity
  8
CUT
 62
     7
100
AcDbLine
 10
62.309375
 20
73.978947
 30
0.0
 11
62.061328
 21
73.976191
 31
0.0
  0
LINE
  5
1C8
100
AcDbEntity
  8
CUT
 62
     7
100
AcDbLine
 10
62.061328
 20
73.976191
 30
0.0
 11
61.811903
 21
73.981359
 31
0.0
  0
LINE
  5
1C7
100
AcDbEntity
  8
CUT
 62
     7
100
AcDbLine
 10
61.811903
 20
73.981359
 30
0.0
 11
61.308919
 21
74.010986
 31
0.0
  0
LINE
  5
1C6
100
AcDbEntity
  8
CUT
 62
     7
100
AcDbLine
 10
61.308919
 20
74.010986
 30
0.0
 11
60.80249
 21
74.064041
 31
0.0
  0
LINE
  5
1C5
100
AcDbEntity
  8
CUT
 62
     7
100
AcDbLine
 10
60.80249
 20
74.064041
 30
0.0
 11
60.291927
 21
74.13811
 31
0.0
  0
LINE
  5
1C4
100
AcDbEntity
  8
CUT
 62
     7
100
AcDbLine
 10
60.291927
 20
74.13811
 30
0.0
 11
59.778608
 21
74.231817
 31
0.0
  0
LINE
  5
1C3
100
AcDbEntity
  8
CUT
 62
     7
100
AcDbLine
 10
59.778608
 20
74.231817
 30
0.0
 11
59.263222
 21
74.343783
 31
0.0
  0
LINE
  5
1C2
100
AcDbEntity
  8
CUT
 62
     7
100
AcDbLine
 10
59.263222
 20
74.343783
 30
0.0
 11
58.745424
 21
74.473318
 31
0.0
  0
LINE
  5
1C1
100
AcDbEntity
  8
CUT
 62
     7
100
AcDbLine
 10
58.745424
 20
74.473318
 30
0.0
 11
58.225903
 21
74.619735
 31
0.0
  0
LINE
  5
1C0
100
AcDbEntity
  8
CUT
 62
     7
100
AcDbLine
 10
58.225903
 20
74.619735
 30
0.0
 11
57.705349
 21
74.782688
 31
0.0
  0
LINE
  5
1BF
100
AcDbEntity
  8
CUT
 62
     7
100
AcDbLine
 10
57.705349
 20
74.782688
 30
0.0
 11
57.310541
 21
77.9067
 31
0.0
  0
LINE
  5
1BE
100
AcDbEntity
  8
CUT
 62
     7
100
AcDbLine
 10
57.310541
 20
77.9067
 30
0.0
 11
57.774596
 21
78.193677
 31
0.0
  0
LINE
  5
1BD
100
AcDbEntity
  8
CUT
 62
     7
100
AcDbLine
 10
57.774596
 20
78.193677
 30
0.0
 11
58.241062
 21
78.464806
 31
0.0
  0
LINE
  5
1BC
100
AcDbEntity
  8
CUT
 62
     7
100
AcDbLine
 10
58.241062
 20
78.464806
 30
0.0
 11
58.710628
 21
78.719054
 31
0.0
  0
LINE
  5
1BB
100
AcDbEntity
  8
CUT
 62
     7
100
AcDbLine
 10
58.710628
 20
78.719054
 30
0.0
 11
59.182262
 21
78.955732
 31
0.0
  0
LINE
  5
1BA
100
AcDbEntity
  8
CUT
 62
     7
100
AcDbLine
 10
59.182262
 20
78.955732
 30
0.0
 11
59.655962
 21
79.174151
 31
0.0
  0
LINE
  5
1B9
100
AcDbEntity
  8
CUT
 62
     7
100
AcDbLine
 10
59.655962
 20
79.174151
 30
0.0
 11
60.13173
 21
79.372588
 31
0.0
  0
LINE
  5
1B8
100
AcDbEntity
  8
CUT
 62
     7
100
AcDbLine
 10
60.13173
 20
79.372588
 30
0.0
 11
60.60922
 21
79.550355
 31
0.0
  0
LINE
  5
1B7
100
AcDbEntity
  8
CUT
 62
     7
100
AcDbLine
 10
60.60922
 20
79.550355
 30
0.0
 11
61.088778
 21
79.704007
 31
0.0
  0
LINE
  5
1B6
100
AcDbEntity
  8
CUT
 62
     7
100
AcDbLine
 10
61.088778
 20
79.704007
 30
0.0
 11
61.329245
 21
79.770841
 31
0.0
  0
LINE
  5
1B5
100
AcDbEntity
  8
CUT
 62
     7
100
AcDbLine
 10
61.329245
 20
79.770841
 30
0.0
 11
61.570058
 21
79.829753
 31
0.0
  0
LINE
  5
1B4
100
AcDbEntity
  8
CUT
 62
     7
100
AcDbLine
 10
61.570058
 20
79.829753
 30
0.0
 11
61.690636
 21
79.855935
 31
0.0
  0
LINE
  5
1B3
100
AcDbEntity
  8
CUT
 62
     7
100
AcDbLine
 10
61.690636
 20
79.855935
 30
0.0
 11
61.811559
 21
79.879706
 31
0.0
  0
LINE
  5
1B2
100
AcDbEntity
  8
CUT
 62
     7
100
AcDbLine
 10
61.811559
 20
79.879706
 30
0.0
 11
61.932482
 21
79.900377
 31
0.0
  0
LINE
  5
1B1
100
AcDbEntity
  8
CUT
 62
     7
100
AcDbLine
 10
61.932482
 20
79.900377
 30
0.0
 11
62.053749
 21
79.917603
 31
0.0
  0
LINE
  5
1B0
100
AcDbEntity
  8
CUT
 62
     7
100
AcDbLine
 10
62.053749
 20
79.917603
 30
0.0
 11
62.036179
 21
83.529785
 31
0.0
  0
LINE
  5
1AF
100
AcDbEntity
  8
CUT
 62
     7
100
AcDbLine
 10
62.036179
 20
83.529785
 30
0.0
 11
61.914912
 21
83.545288
 31
0.0
  0
LINE
  5
1AE
100
AcDbEntity
  8
CUT
 62
     7
100
AcDbLine
 10
61.914912
 20
83.545288
 30
0.0
 11
61.793989
 21
83.564925
 31
0.0
  0
LINE
  5
1AD
100
AcDbEntity
  8
CUT
 62
     7
100
AcDbLine
 10
61.793989
 20
83.564925
 30
0.0
 11
61.672721
 21
83.587663
 31
0.0
  0
LINE
  5
1AC
100
AcDbEntity
  8
CUT
 62
     7
100
AcDbLine
 10
61.672721
 20
83.587663
 30
0.0
 11
61.551799
 21
83.612467
 31
0.0
  0
LINE
  5
1AB
100
AcDbEntity
  8
CUT
 62
     7
100
AcDbLine
 10
61.551799
 20
83.612467
 30
0.0
 11
61.310297
 21
83.669312
 31
0.0
  0
LINE
  5
1AA
100
AcDbEntity
  8
CUT
 62
     7
100
AcDbLine
 10
61.310297
 20
83.669312
 30
0.0
 11
61.069141
 21
83.733735
 31
0.0
  0
LINE
  5
1A9
100
AcDbEntity
  8
CUT
 62
     7
100
AcDbLine
 10
61.069141
 20
83.733735
 30
0.0
 11
60.58855
 21
83.882907
 31
0.0
  0
LINE
  5
1A8
100
AcDbEntity
  8
CUT
 62
     7
100
AcDbLine
 10
60.58855
 20
83.882907
 30
0.0
 11
60.108993
 21
84.055507
 31
0.0
  0
LINE
  5
1A7
100
AcDbEntity
  8
CUT
 62
     7
100
AcDbLine
 10
60.108993
 20
84.055507
 30
0.0
 11
59.631158
 21
84.24981
 31
0.0
  0
LINE
  5
1A6
100
AcDbEntity
  8
CUT
 62
     7
100
AcDbLine
 10
59.631158
 20
84.24981
 30
0.0
 11
59.15539
 21
84.463751
 31
0.0
  0
LINE
  5
1A5
100
AcDbEntity
  8
CUT
 62
     7
100
AcDbLine
 10
59.15539
 20
84.463751
 30
0.0
 11
58.681689
 21
84.69595
 31
0.0
  0
LINE
  5
1A4
100
AcDbEntity
  8
CUT
 62
     7
100
AcDbLine
 10
58.681689
 20
84.69595
 30
0.0
 11
58.210056
 21
84.945719
 31
0.0
  0
LINE
  5
1A3
100
AcDbEntity
  8
CUT
 62
     7
100
AcDbLine
 10
58.210056
 20
84.945719
 30
0.0
 11
57.740489
 21
85.212025
 31
0.0
  0
LINE
  5
1A2
100
AcDbEntity
  8
CUT
 62
     7
100
AcDbLine
 10
57.740489
 20
85.212025
 30
0.0
 11
57.273679
 21
85.494523
 31
0.0
  0
LINE
  5
1A1
100
AcDbEntity
  8
CUT
 62
     7
100
AcDbLine
 10
57.273679
 20
85.494523
 30
0.0
 11
57.63817
 21
88.622325
 31
0.0
  0
LINE
  5
1A0
100
AcDbEntity
  8
CUT
 62
     7
100
AcDbLine
 10
57.63817
 20
88.622325
 30
0.0
 11
58.15769
 21
88.790101
 31
0.0
  0
LINE
  5
19F
100
AcDbEntity
  8
CUT
 62
     7
100
AcDbLine
 10
58.15769
 20
88.790101
 30
0.0
 11
58.675488
 21
88.941341
 31
0.0
  0
LINE
  5
19E
100
AcDbEntity
  8
CUT
 62
     7
100
AcDbLine
 10
58.675488
 20
88.941341
 30
0.0
 11
59.192253
 21
89.076044
 31
0.0
  0
LINE
  5
19D
100
AcDbEntity
  8
CUT
 62
     7
100
AcDbLine
 10
59.192253
 20
89.076044
 30
0.0
 11
59.706605
 21
89.192833
 31
0.0
  0
LINE
  5
19C
100
AcDbEntity
  8
CUT
 62
     7
100
AcDbLine
 10
59.706605
 20
89.192833
 30
0.0
 11
60.218547
 21
89.291707
 31
0.0
  0
LINE
  5
19B
100
AcDbEntity
  8
CUT
 62
     7
100
AcDbLine
 10
60.218547
 20
89.291707
 30
0.0
 11
60.728076
 21
89.3706
 31
0.0
  0
LINE
  5
19A
100
AcDbEntity
  8
CUT
 62
     7
100
AcDbLine
 10
60.728076
 20
89.3706
 30
0.0
 11
61.234505
 21
89.428822
 31
0.0
  0
LINE
  5
199
100
AcDbEntity
  8
CUT
 62
     7
100
AcDbLine
 10
61.234505
 20
89.428822
 30
0.0
 11
61.737145
 21
89.463273
 31
0.0
  0
LINE
  5
198
100
AcDbEntity
  8
CUT
 62
     7
100
AcDbLine
 10
61.737145
 20
89.463273
 30
0.0
 11
61.98657
 21
89.470852
 31
0.0
  0
LINE
  5
197
100
AcDbEntity
  8
CUT
 62
     7
100
AcDbLine
 10
61.98657
 20
89.470852
 30
0.0
 11
62.234616
 21
89.470163
 31
0.0
  0
LINE
  5
196
100
AcDbEntity
  8
CUT
 62
     7
100
AcDbLine
 10
62.234616
 20
89.470163
 30
0.0
 11
62.357951
 21
89.466718
 31
0.0
  0
LINE
  5
195
100
AcDbEntity
  8
CUT
 62
     7
100
AcDbLine
 10
62.357951
 20
89.466718
 30
0.0
 11
62.480941
 21
89.460862
 31
0.0
  0
LINE
  5
194
100
AcDbEntity
  8
CUT
 62
     7
100
AcDbLine
 10
62.480941
 20
89.460862
 30
0.0
 11
62.603242
 21
89.452249
 31
0.0
  0
LINE
  5
193
100
AcDbEntity
  8
CUT
 62
     7
100
AcDbLine
 10
62.603242
 20
89.452249
 30
0.0
 11
62.724854
 21
89.439846
 31
0.0
  0
LINE
  5
192
100
AcDbEntity
  8
CUT
 62
     7
100
AcDbLine
 10
62.724854
 20
89.439846
 30
0.0
 11
63.572347
 21
92.951088
 31
0.0
  0
LINE
  5
191
100
AcDbEntity
  8
CUT
 62
     7
100
AcDbLine
 10
63.572347
 20
92.951088
 30
0.0
 11
63.458659
 21
92.99553
 31
0.0
  0
LINE
  5
190
100
AcDbEntity
  8
CUT
 62
     7
100
AcDbLine
 10
63.458659
 20
92.99553
 30
0.0
 11
63.34566
 21
93.043416
 31
0.0
  0
LINE
  5
18F
100
AcDbEntity
  8
CUT
 62
     7
100
AcDbLine
 10
63.34566
 20
93.043416
 30
0.0
 11
63.23335
 21
93.094059
 31
0.0
  0
LINE
  5
18E
100
AcDbEntity
  8
CUT
 62
     7
100
AcDbLine
 10
63.23335
 20
93.094059
 30
0.0
 11
63.122073
 21
93.147458
 31
0.0
  0
LINE
  5
18D
100
AcDbEntity
  8
CUT
 62
     7
100
AcDbLine
 10
63.122073
 20
93.147458
 30
0.0
 11
62.900898
 21
93.260113
 31
0.0
  0
LINE
  5
18C
100
AcDbEntity
  8
CUT
 62
     7
100
AcDbLine
 10
62.900898
 20
93.260113
 30
0.0
 11
62.682479
 21
93.380347
 31
0.0
  0
LINE
  5
18B
100
AcDbEntity
  8
CUT
 62
     7
100
AcDbLine
 10
62.682479
 20
93.380347
 30
0.0
 11
62.251153
 21
93.640107
 31
0.0
  0
LINE
  5
18A
100
AcDbEntity
  8
CUT
 62
     7
100
AcDbLine
 10
62.251153
 20
93.640107
 30
0.0
 11
61.827062
 21
93.922949
 31
0.0
  0
LINE
  5
189
100
AcDbEntity
  8
CUT
 62
     7
100
AcDbLine
 10
61.827062
 20
93.922949
 30
0.0
 11
61.409516
 21
94.225773
 31
0.0
  0
LINE
  5
188
100
AcDbEntity
  8
CUT
 62
     7
100
AcDbLine
 10
61.409516
 20
94.225773
 30
0.0
 11
60.998861
 21
94.547201
 31
0.0
  0
LINE
  5
187
100
AcDbEntity
  8
CUT
 62
     7
100
AcDbLine
 10
60.998861
 20
94.547201
 30
0.0
 11
60.594406
 21
94.886198
 31
0.0
  0
LINE
  5
186
100
AcDbEntity
  8
CUT
 62
     7
100
AcDbLine
 10
60.594406
 20
94.886198
 30
0.0
 11
60.196153
 21
95.241387
 31
0.0
  0
LINE
  5
185
100
AcDbEntity
  8
CUT
 62
     7
100
AcDbLine
 10
60.196153
 20
95.241387
 30
0.0
 11
59.804102
 21
95.61208
 31
0.0
  0
LINE
  5
184
100
AcDbEntity
  8
CUT
 62
     7
100
AcDbLine
 10
59.804102
 20
95.61208
 30
0.0
 11
59.418595
 21
95.998619
 31
0.0
  0
LINE
  5
183
100
AcDbEntity
  8
CUT
 62
     7
100
AcDbLine
 10
59.418595
 20
95.998619
 30
0.0
 11
60.521026
 21
98.94831
 31
0.0
  0
LINE
  5
182
100
AcDbEntity
  8
CUT
 62
     7
100
AcDbLine
 10
60.521026
 20
98.94831
 30
0.0
 11
61.065351
 21
98.986895
 31
0.0
  0
LINE
  5
181
100
AcDbEntity
  8
CUT
 62
     7
100
AcDbLine
 10
61.065351
 20
98.986895
 30
0.0
 11
61.604508
 21
99.009633
 31
0.0
  0
LINE
  5
180
100
AcDbEntity
  8
CUT
 62
     7
100
AcDbLine
 10
61.604508
 20
99.009633
 30
0.0
 11
62.138154
 21
99.016867
 31
0.0
  0
LINE
  5
17F
100
AcDbEntity
  8
CUT
 62
     7
100
AcDbLine
 10
62.138154
 20
99.016867
 30
0.0
 11
62.665942
 21
99.007221
 31
0.0
  0
LINE
  5
17E
100
AcDbEntity
  8
CUT
 62
     7
100
AcDbLine
 10
62.665942
 20
99.007221
 30
0.0
 11
63.186841
 21
98.980349
 31
0.0
  0
LINE
  5
17D
100
AcDbEntity
  8
CUT
 62
     7
100
AcDbLine
 10
63.186841
 20
98.980349
 30
0.0
 11
63.70016
 21
98.935219
 31
0.0
  0
LINE
  5
17C
100
AcDbEntity
  8
CUT
 62
     7
100
AcDbLine
 10
63.70016
 20
98.935219
 30
0.0
 11
64.2059
 21
98.870451
 31
0.0
  0
LINE
  5
17B
100
AcDbEntity
  8
CUT
 62
     7
100
AcDbLine
 10
64.2059
 20
98.870451
 30
0.0
 11
64.701649
 21
98.783979
 31
0.0
  0
LINE
  5
17A
100
AcDbEntity
  8
CUT
 62
     7
100
AcDbLine
 10
64.701649
 20
98.783979
 30
0.0
 11
64.945907
 21
98.731269
 31
0.0
  0
LINE
  5
179
100
AcDbEntity
  8
CUT
 62
     7
100
AcDbLine
 10
64.945907
 20
98.731269
 30
0.0
 11
65.186719
 21
98.671669
 31
0.0
  0
LINE
  5
178
100
AcDbEntity
  8
CUT
 62
     7
100
AcDbLine
 10
65.186719
 20
98.671669
 30
0.0
 11
65.305575
 21
98.638596
 31
0.0
  0
LINE
  5
177
100
AcDbEntity
  8
CUT
 62
     7
100
AcDbLine
 10
65.305575
 20
98.638596
 30
0.0
 11
65.423741
 21
98.603456
 31
0.0
  0
LINE
  5
176
100
AcDbEntity
  8
CUT
 62
     7
100
AcDbLine
 10
65.423741
 20
98.603456
 30
0.0
 11
65.540186
 21
98.56556
 31
0.0
  0
LINE
  5
175
100
AcDbEntity
  8
CUT
 62
     7
100
AcDbLine
 10
65.540186
 20
98.56556
 30
0.0
 11
65.655596
 21
98.524219
 31
0.0
  0
LINE
  5
174
100
AcDbEntity
  8
CUT
 62
     7
100
AcDbLine
 10
65.655596
 20
98.524219
 30
0.0
 11
67.318544
 21
101.730914
 31
0.0
  0
LINE
  5
173
100
AcDbEntity
  8
CUT
 62
     7
100
AcDbLine
 10
67.318544
 20
101.730914
 30
0.0
 11
67.218636
 21
101.801194
 31
0.0
  0
LINE
  5
172
100
AcDbEntity
  8
CUT
 62
     7
100
AcDbLine
 10
67.218636
 20
101.801194
 30
0.0
 11
67.120451
 21
101.874919
 31
0.0
  0
LINE
  5
171
100
AcDbEntity
  8
CUT
 62
     7
100
AcDbLine
 10
67.120451
 20
101.874919
 30
0.0
 11
67.023644
 21
101.951055
 31
0.0
  0
LINE
  5
170
100
AcDbEntity
  8
CUT
 62
     7
100
AcDbLine
 10
67.023644
 20
101.951055
 30
0.0
 11
66.928215
 21
102.029259
 31
0.0
  0
LINE
  5
16F
100
AcDbEntity
  8
CUT
 62
     7
100
AcDbLine
 10
66.928215
 20
102.029259
 30
0.0
 11
66.740801
 21
102.191867
 31
0.0
  0
LINE
  5
16E
100
AcDbEntity
  8
CUT
 62
     7
100
AcDbLine
 10
66.740801
 20
102.191867
 30
0.0
 11
66.557522
 21
102.361022
 31
0.0
  0
LINE
  5
16D
100
AcDbEntity
  8
CUT
 62
     7
100
AcDbLine
 10
66.557522
 20
102.361022
 30
0.0
 11
66.200955
 21
102.716555
 31
0.0
  0
LINE
  5
16C
100
AcDbEntity
  8
CUT
 62
     7
100
AcDbLine
 10
66.200955
 20
102.716555
 30
0.0
 11
65.85679
 21
103.092415
 31
0.0
  0
LINE
  5
16B
100
AcDbEntity
  8
CUT
 62
     7
100
AcDbLine
 10
65.85679
 20
103.092415
 30
0.0
 11
65.523994
 21
103.48619
 31
0.0
  0
LINE
  5
16A
100
AcDbEntity
  8
CUT
 62
     7
100
AcDbLine
 10
65.523994
 20
103.48619
 30
0.0
 11
65.201877
 21
103.896845
 31
0.0
  0
LINE
  5
169
100
AcDbEntity
  8
CUT
 62
     7
100
AcDbLine
 10
65.201877
 20
103.896845
 30
0.0
 11
64.890096
 21
104.322314
 31
0.0
  0
LINE
  5
168
100
AcDbEntity
  8
CUT
 62
     7
100
AcDbLine
 10
64.890096
 20
104.322314
 30
0.0
 11
64.58865
 21
104.762598
 31
0.0
  0
LINE
  5
167
100
AcDbEntity
  8
CUT
 62
     7
100
AcDbLine
 10
64.58865
 20
104.762598
 30
0.0
 11
64.296851
 21
105.216661
 31
0.0
  0
LINE
  5
166
100
AcDbEntity
  8
CUT
 62
     7
100
AcDbLine
 10
64.296851
 20
105.216661
 30
0.0
 11
64.014697
 21
105.683816
 31
0.0
  0
LINE
  5
165
100
AcDbEntity
  8
CUT
 62
     7
100
AcDbLine
 10
64.014697
 20
105.683816
 30
0.0
 11
65.790988
 21
108.284174
 31
0.0
  0
LINE
  5
164
100
AcDbEntity
  8
CUT
 62
     7
100
AcDbLine
 10
65.790988
 20
108.284174
 30
0.0
 11
66.328768
 21
108.191157
 31
0.0
  0
LINE
  5
163
100
AcDbEntity
  8
CUT
 62
     7
100
AcDbLine
 10
66.328768
 20
108.191157
 30
0.0
 11
66.857935
 21
108.084703
 31
0.0
  0
LINE
  5
162
100
AcDbEntity
  8
CUT
 62
     7
100
AcDbLine
 10
66.857935
 20
108.084703
 30
0.0
 11
67.377799
 21
107.96378
 31
0.0
  0
LINE
  5
161
100
AcDbEntity
  8
CUT
 62
     7
100
AcDbLine
 10
67.377799
 20
107.96378
 30
0.0
 11
67.887674
 21
107.828044
 31
0.0
  0
LINE
  5
160
100
AcDbEntity
  8
CUT
 62
     7
100
AcDbLine
 10
67.887674
 20
107.828044
 30
0.0
 11
68.387212
 21
107.677493
 31
0.0
  0
LINE
  5
15F
100
AcDbEntity
  8
CUT
 62
     7
100
AcDbLine
 10
68.387212
 20
107.677493
 30
0.0
 11
68.875038
 21
107.51075
 31
0.0
  0
LINE
  5
15E
100
AcDbEntity
  8
CUT
 62
     7
100
AcDbLine
 10
68.875038
 20
107.51075
 30
0.0
 11
69.350117
 21
107.326782
 31
0.0
  0
LINE
  5
15D
100
AcDbEntity
  8
CUT
 62
     7
100
AcDbLine
 10
69.350117
 20
107.326782
 30
0.0
 11
69.81107
 21
107.124211
 31
0.0
  0
LINE
  5
15C
100
AcDbEntity
  8
CUT
 62
     7
100
AcDbLine
 10
69.81107
 20
107.124211
 30
0.0
 11
70.035346
 21
107.014657
 31
0.0
  0
LINE
  5
15B
100
AcDbEntity
  8
CUT
 62
     7
100
AcDbLine
 10
70.035346
 20
107.014657
 30
0.0
 11
70.254799
 21
106.898901
 31
0.0
  0
LINE
  5
15A
100
AcDbEntity
  8
CUT
 62
     7
100
AcDbLine
 10
70.254799
 20
106.898901
 30
0.0
 11
70.36263
 21
106.838612
 31
0.0
  0
LINE
  5
159
100
AcDbEntity
  8
CUT
 62
     7
100
AcDbLine
 10
70.36263
 20
106.838612
 30
0.0
 11
70.468739
 21
106.776256
 31
0.0
  0
LINE
  5
158
100
AcDbEntity
  8
CUT
 62
     7
100
AcDbLine
 10
70.468739
 20
106.776256
 30
0.0
 11
70.573126
 21
106.711488
 31
0.0
  0
LINE
  5
157
100
AcDbEntity
  8
CUT
 62
     7
100
AcDbLine
 10
70.573126
 20
106.711488
 30
0.0
 11
70.6751
 21
106.643964
 31
0.0
  0
LINE
  5
156
100
AcDbEntity
  8
CUT
 62
     7
100
AcDbLine
 10
70.6751
 20
106.643964
 30
0.0
 11
73.057039
 21
109.359044
 31
0.0
  0
LINE
  5
155
100
AcDbEntity
  8
CUT
 62
     7
100
AcDbLine
 10
73.057039
 20
109.359044
 30
0.0
 11
72.976769
 21
109.451717
 31
0.0
  0
LINE
  5
154
100
AcDbEntity
  8
CUT
 62
     7
100
AcDbLine
 10
72.976769
 20
109.451717
 30
0.0
 11
72.899254
 21
109.546457
 31
0.0
  0
LINE
  5
153
100
AcDbEntity
  8
CUT
 62
     7
100
AcDbLine
 10
72.899254
 20
109.546457
 30
0.0
 11
72.823462
 21
109.643609
 31
0.0
  0
LINE
  5
152
100
AcDbEntity
  8
CUT
 62
     7
100
AcDbLine
 10
72.823462
 20
109.643609
 30
0.0
 11
72.749392
 21
109.742483
 31
0.0
  0
LINE
  5
151
100
AcDbEntity
  8
CUT
 62
     7
100
AcDbLine
 10
72.749392
 20
109.742483
 30
0.0
 11
72.606421
 21
109.945055
 31
0.0
  0
LINE
  5
150
100
AcDbEntity
  8
CUT
 62
     7
100
AcDbLine
 10
72.606421
 20
109.945055
 30
0.0
 11
72.468962
 21
110.153139
 31
0.0
  0
LINE
  5
14F
100
AcDbEntity
  8
CUT
 62
     7
100
AcDbLine
 10
72.468962
 20
110.153139
 30
0.0
 11
72.207823
 21
110.583431
 31
0.0
  0
LINE
  5
14E
100
AcDbEntity
  8
CUT
 62
     7
100
AcDbLine
 10
72.207823
 20
110.583431
 30
0.0
 11
71.963566
 21
111.030949
 31
0.0
  0
LINE
  5
14D
100
AcDbEntity
  8
CUT
 62
     7
100
AcDbLine
 10
71.963566
 20
111.030949
 30
0.0
 11
71.734467
 21
111.492936
 31
0.0
  0
LINE
  5
14C
100
AcDbEntity
  8
CUT
 62
     7
100
AcDbLine
 10
71.734467
 20
111.492936
 30
0.0
 11
71.520182
 21
111.968359
 31
0.0
  0
LINE
  5
14B
100
AcDbEntity
  8
CUT
 62
     7
100
AcDbLine
 10
71.520182
 20
111.968359
 30
0.0
 11
71.319678
 21
112.456529
 31
0.0
  0
LINE
  5
14A
100
AcDbEntity
  8
CUT
 62
     7
100
AcDbLine
 10
71.319678
 20
112.456529
 30
0.0
 11
71.132265
 21
112.956413
 31
0.0
  0
LINE
  5
149
100
AcDbEntity
  8
CUT
 62
     7
100
AcDbLine
 10
71.132265
 20
112.956413
 30
0.0
 11
70.957254
 21
113.466976
 31
0.0
  0
LINE
  5
148
100
AcDbEntity
  8
CUT
 62
     7
100
AcDbLine
 10
70.957254
 20
113.466976
 30
0.0
 11
70.795334
 21
113.987874
 31
0.0
  0
LINE
  5
147
100
AcDbEntity
  8
CUT
 62
     7
100
AcDbLine
 10
70.795334
 20
113.987874
 30
0.0
 11
73.142478
 21
116.08766
 31
0.0
  0
LINE
  5
146
100
AcDbEntity
  8
CUT
 62
     7
100
AcDbLine
 10
73.142478
 20
116.08766
 30
0.0
 11
73.642361
 21
115.868552
 31
0.0
  0
LINE
  5
145
100
AcDbEntity
  8
CUT
 62
     7
100
AcDbLine
 10
73.642361
 20
115.868552
 30
0.0
 11
74.130531
 21
115.63842
 31
0.0
  0
LINE
  5
144
100
AcDbEntity
  8
CUT
 62
     7
100
AcDbLine
 10
74.130531
 20
115.63842
 30
0.0
 11
74.606299
 21
115.396918
 31
0.0
  0
LINE
  5
143
100
AcDbEntity
  8
CUT
 62
     7
100
AcDbLine
 10
74.606299
 20
115.396918
 30
0.0
 11
75.068975
 21
115.143015
 31
0.0
  0
LINE
  5
142
100
AcDbEntity
  8
CUT
 62
     7
100
AcDbLine
 10
75.068975
 20
115.143015
 30
0.0
 11
75.517871
 21
114.877398
 31
0.0
  0
LINE
  5
141
100
AcDbEntity
  8
CUT
 62
     7
100
AcDbLine
 10
75.517871
 20
114.877398
 30
0.0
 11
75.951609
 21
114.59869
 31
0.0
  0
LINE
  5
140
100
AcDbEntity
  8
CUT
 62
     7
100
AcDbLine
 10
75.951609
 20
114.59869
 30
0.0
 11
76.369154
 21
114.306546
 31
0.0
  0
LINE
  5
13F
100
AcDbEntity
  8
CUT
 62
     7
100
AcDbLine
 10
76.369154
 20
114.306546
 30
0.0
 11
76.768096
 21
113.999243
 31
0.0
  0
LINE
  5
13E
100
AcDbEntity
  8
CUT
 62
     7
100
AcDbLine
 10
76.768096
 20
113.999243
 30
0.0
 11
76.959644
 21
113.839046
 31
0.0
  0
LINE
  5
13D
100
AcDbEntity
  8
CUT
 62
     7
100
AcDbLine
 10
76.959644
 20
113.839046
 30
0.0
 11
77.14499
 21
113.674371
 31
0.0
  0
LINE
  5
13C
100
AcDbEntity
  8
CUT
 62
     7
100
AcDbLine
 10
77.14499
 20
113.674371
 30
0.0
 11
77.235251
 21
113.589966
 31
0.0
  0
LINE
  5
13B
100
AcDbEntity
  8
CUT
 62
     7
100
AcDbLine
 10
77.235251
 20
113.589966
 30
0.0
 11
77.323446
 21
113.504183
 31
0.0
  0
LINE
  5
13A
100
AcDbEntity
  8
CUT
 62
     7
100
AcDbLine
 10
77.323446
 20
113.504183
 30
0.0
 11
77.408884
 21
113.416333
 31
0.0
  0
LINE
  5
139
100
AcDbEntity
  8
CUT
 62
     7
100
AcDbLine
 10
77.408884
 20
113.416333
 30
0.0
 11
77.491911
 21
113.326416
 31
0.0
  0
LINE
  5
138
100
AcDbEntity
  8
CUT
 62
     7
100
AcDbLine
 10
77.491911
 20
113.326416
 30
0.0
 11
80.454693
 21
115.39244
 31
0.0
  0
LINE
  5
137
100
AcDbEntity
  8
CUT
 62
     7
100
AcDbLine
 10
80.454693
 20
115.39244
 30
0.0
 11
80.398882
 21
115.501305
 31
0.0
  0
LINE
  5
136
100
AcDbEntity
  8
CUT
 62
     7
100
AcDbLine
 10
80.398882
 20
115.501305
 30
0.0
 11
80.345828
 21
115.612237
 31
0.0
  0
LINE
  5
135
100
AcDbEntity
  8
CUT
 62
     7
100
AcDbLine
 10
80.345828
 20
115.612237
 30
0.0
 11
80.295874
 21
115.724547
 31
0.0
  0
LINE
  5
134
100
AcDbEntity
  8
CUT
 62
     7
100
AcDbLine
 10
80.295874
 20
115.724547
 30
0.0
 11
80.247643
 21
115.838235
 31
0.0
  0
LINE
  5
133
100
AcDbEntity
  8
CUT
 62
     7
100
AcDbLine
 10
80.247643
 20
115.838235
 30
0.0
 11
80.157381
 21
116.069401
 31
0.0
  0
LINE
  5
132
100
AcDbEntity
  8
CUT
 62
     7
100
AcDbLine
 10
80.157381
 20
116.069401
 30
0.0
 11
80.073321
 21
116.304357
 31
0.0
  0
LINE
  5
131
100
AcDbEntity
  8
CUT
 62
     7
100
AcDbLine
 10
80.073321
 20
116.304357
 30
0.0
 11
79.92277
 21
116.784603
 31
0.0
  0
LINE
  5
130
100
AcDbEntity
  8
CUT
 62
     7
100
AcDbLine
 10
79.92277
 20
116.784603
 30
0.0
 11
79.79289
 21
117.277596
 31
0.0
  0
LINE
  5
12F
100
AcDbEntity
  8
CUT
 62
     7
100
AcDbLine
 10
79.79289
 20
117.277596
 30
0.0
 11
79.681269
 21
117.780924
 31
0.0
  0
LINE
  5
12E
100
AcDbEntity
  8
CUT
 62
     7
100
AcDbLine
 10
79.681269
 20
117.780924
 30
0.0
 11
79.586873
 21
118.293899
 31
0.0
  0
LINE
  5
12D
100
AcDbEntity
  8
CUT
 62
     7
100
AcDbLine
 10
79.586873
 20
118.293899
 30
0.0
 11
79.50867
 21
118.815831
 31
0.0
  0
LINE
  5
12C
100
AcDbEntity
  8
CUT
 62
     7
100
AcDbLine
 10
79.50867
 20
118.815831
 30
0.0
 11
79.446313
 21
119.345687
 31
0.0
  0
LINE
  5
12B
100
AcDbEntity
  8
CUT
 62
     7
100
AcDbLine
 10
79.446313
 20
119.345687
 30
0.0
 11
79.398771
 21
119.883466
 31
0.0
  0
LINE
  5
12A
100
AcDbEntity
  8
CUT
 62
     7
100
AcDbLine
 10
79.398771
 20
119.883466
 30
0.0
 11
79.366387
 21
120.428136
 31
0.0
  0
LINE
  5
129
100
AcDbEntity
  8
CUT
 62
     7
100
AcDbLine
 10
79.366387
 20
120.428136
 30
0.0
 11
82.147613
 21
121.905048
 31
0.0
  0
LINE
  5
128
100
AcDbEntity
  8
CUT
 62
     7
100
AcDbLine
 10
82.147613
 20
121.905048
 30
0.0
 11
82.580661
 21
121.572941
 31
0.0
  0
LINE
  5
127
100
AcDbEntity
  8
CUT
 62
     7
100
AcDbLine
 10
82.580661
 20
121.572941
 30
0.0
 11
82.999585
 21
121.232566
 31
0.0
  0
LINE
  5
126
100
AcDbEntity
  8
CUT
 62
     7
100
AcDbLine
 10
82.999585
 20
121.232566
 30
0.0
 11
83.403695
 21
120.883922
 31
0.0
  0
LINE
  5
125
100
AcDbEntity
  8
CUT
 62
     7
100
AcDbLine
 10
83.403695
 20
120.883922
 30
0.0
 11
83.792301
 21
120.52701
 31
0.0
  0
LINE
  5
124
100
AcDbEntity
  8
CUT
 62
     7
100
AcDbLine
 10
83.792301
 20
120.52701
 30
0.0
 11
84.164372
 21
120.161485
 31
0.0
  0
LINE
  5
123
100
AcDbEntity
  8
CUT
 62
     7
100
AcDbLine
 10
84.164372
 20
120.161485
 30
0.0
 11
84.518872
 21
119.787004
 31
0.0
  0
LINE
  5
122
100
AcDbEntity
  8
CUT
 62
     7
100
AcDbLine
 10
84.518872
 20
119.787004
 30
0.0
 11
84.85408
 21
119.40322
 31
0.0
  0
LINE
  5
121
100
AcDbEntity
  8
CUT
 62
     7
100
AcDbLine
 10
84.85408
 20
119.40322
 30
0.0
 11
85.168273
 21
119.00979
 31
0.0
  0
LINE
  5
120
100
AcDbEntity
  8
CUT
 62
     7
100
AcDbLine
 10
85.168273
 20
119.00979
 30
0.0
 11
85.316067
 21
118.808596
 31
0.0
  0
LINE
  5
11F
100
AcDbEntity
  8
CUT
 62
     7
100
AcDbLine
 10
85.316067
 20
118.808596
 30
0.0
 11
85.456283
 21
118.603958
 31
0.0
  0
LINE
  5
11E
100
AcDbEntity
  8
CUT
 62
     7
100
AcDbLine
 10
85.456283
 20
118.603958
 30
0.0
 11
85.523806
 21
118.500605
 31
0.0
  0
LINE
  5
11D
100
AcDbEntity
  8
CUT
 62
     7
100
AcDbLine
 10
85.523806
 20
118.500605
 30
0.0
 11
85.588574
 21
118.395874
 31
0.0
  0
LINE
  5
11C
100
AcDbEntity
  8
CUT
 62
     7
100
AcDbLine
 10
85.588574
 20
118.395874
 30
0.0
 11
85.65093
 21
118.290454
 31
0.0
  0
LINE
  5
11B
100
AcDbEntity
  8
CUT
 62
     7
100
AcDbLine
 10
85.65093
 20
118.290454
 30
0.0
 11
85.709842
 21
118.183312
 31
0.0
  0
LINE
  5
11A
100
AcDbEntity
  8
CUT
 62
     7
100
AcDbLine
 10
85.709842
 20
118.183312
 30
0.0
 11
89.080868
 21
119.48039
 31
0.0
  0
LINE
  5
119
100
AcDbEntity
  8
CUT
 62
     7
100
AcDbLine
 10
89.080868
 20
119.48039
 30
0.0
 11
89.052618
 21
119.599246
 31
0.0
  0
LINE
  5
118
100
AcDbEntity
  8
CUT
 62
     7
100
AcDbLine
 10
89.052618
 20
119.599246
 30
0.0
 11
89.028158
 21
119.71948
 31
0.0
  0
LINE
  5
117
100
AcDbEntity
  8
CUT
 62
     7
100
AcDbLine
 10
89.028158
 20
119.71948
 30
0.0
 11
89.006453
 21
119.840747
 31
0.0
  0
LINE
  5
116
100
AcDbEntity
  8
CUT
 62
     7
100
AcDbLine
 10
89.006453
 20
119.840747
 30
0.0
 11
88.987161
 21
119.962703
 31
0.0
  0
LINE
  5
115
100
AcDbEntity
  8
CUT
 62
     7
100
AcDbLine
 10
88.987161
 20
119.962703
 30
0.0
 11
88.954433
 21
120.208339
 31
0.0
  0
LINE
  5
114
100
AcDbEntity
  8
CUT
 62
     7
100
AcDbLine
 10
88.954433
 20
120.208339
 30
0.0
 11
88.929283
 21
120.45673
 31
0.0
  0
LINE
  5
113
100
AcDbEntity
  8
CUT
 62
     7
100
AcDbLine
 10
88.929283
 20
120.45673
 30
0.0
 11
88.898277
 21
120.95937
 31
0.0
  0
LINE
  5
112
100
AcDbEntity
  8
CUT
 62
     7
100
AcDbLine
 10
88.898277
 20
120.95937
 30
0.0
 11
88.889665
 21
121.468899
 31
0.0
  0
LINE
  5
111
100
AcDbEntity
  8
CUT
 62
     7
100
AcDbLine
 10
88.889665
 20
121.468899
 30
0.0
 11
88.901723
 21
121.984285
 31
0.0
  0
LINE
  5
110
100
AcDbEntity
  8
CUT
 62
     7
100
AcDbLine
 10
88.901723
 20
121.984285
 30
0.0
 11
88.933073
 21
122.504839
 31
0.0
  0
LINE
  5
10F
100
AcDbEntity
  8
CUT
 62
     7
100
AcDbLine
 10
88.933073
 20
122.504839
 30
0.0
 11
88.981993
 21
123.030216
 31
0.0
  0
LINE
  5
10E
100
AcDbEntity
  8
CUT
 62
     7
100
AcDbLine
 10
88.981993
 20
123.030216
 30
0.0
 11
89.048139
 21
123.560072
 31
0.0
  0
LINE
  5
10D
100
AcDbEntity
  8
CUT
 62
     7
100
AcDbLine
 10
89.048139
 20
123.560072
 30
0.0
 11
89.130821
 21
124.093373
 31
0.0
  0
LINE
  5
10C
100
AcDbEntity
  8
CUT
 62
     7
100
AcDbLine
 10
89.130821
 20
124.093373
 30
0.0
 11
89.229351
 21
124.630119
 31
0.0
  0
LINE
  5
10B
100
AcDbEntity
  8
CUT
 62
     7
100
AcDbLine
 10
89.229351
 20
124.630119
 30
0.0
 11
92.283428
 21
125.398375
 31
0.0
  0
LINE
  5
10A
100
AcDbEntity
  8
CUT
 62
     7
100
AcDbLine
 10
92.283428
 20
125.398375
 30
0.0
 11
92.624493
 21
124.972217
 31
0.0
  0
LINE
  5
109
100
AcDbEntity
  8
CUT
 62
     7
100
AcDbLine
 10
92.624493
 20
124.972217
 30
0.0
 11
92.94971
 21
124.54158
 31
0.0
  0
LINE
  5
108
100
AcDbEntity
  8
CUT
 62
     7
100
AcDbLine
 10
92.94971
 20
124.54158
 30
0.0
 11
93.258735
 21
124.106464
 31
0.0
  0
LINE
  5
107
100
AcDbEntity
  8
CUT
 62
     7
100
AcDbLine
 10
93.258735
 20
124.106464
 30
0.0
 11
93.550534
 21
123.66687
 31
0.0
  0
LINE
  5
106
100
AcDbEntity
  8
CUT
 62
     7
100
AcDbLine
 10
93.550534
 20
123.66687
 30
0.0
 11
93.824419
 21
123.222797
 31
0.0
  0
LINE
  5
105
100
AcDbEntity
  8
CUT
 62
     7
100
AcDbLine
 10
93.824419
 20
123.222797
 30
0.0
 11
94.079012
 21
122.77459
 31
0.0
  0
LINE
  5
104
100
AcDbEntity
  8
CUT
 62
     7
100
AcDbLine
 10
94.079012
 20
122.77459
 30
0.0
 11
94.31259
 21
122.321905
 31
0.0
  0
LINE
  5
103
100
AcDbEntity
  8
CUT
 62
     7
100
AcDbLine
 10
94.31259
 20
122.321905
 30
0.0
 11
94.523085
 21
121.864052
 31
0.0
  0
LINE
  5
102
100
AcDbEntity
  8
CUT
 62
     7
100
AcDbLine
 10
94.523085
 20
121.864052
 30
0.0
 11
94.618514
 21
121.633575
 31
0.0
  0
LINE
  5
101
100
AcDbEntity
  8
CUT
 62
     7
100
AcDbLine
 10
94.618514
 20
121.633575
 30
0.0
 11
94.706019
 21
121.40172
 31
0.0
  0
LINE
  5
100
100
AcDbEntity
  8
CUT
 62
     7
100
AcDbLine
 10
94.706019
 20
121.40172
 30
0.0
 11
94.746672
 21
121.284931
 31
0.0
  0
LINE
  5
FF
100
AcDbEntity
  8
CUT
 62
     7
100
AcDbLine
 10
94.746672
 20
121.284931
 30
0.0
 11
94.784912
 21
121.167798
 31
0.0
  0
LINE
  5
FE
100
AcDbEntity
  8
CUT
 62
     7
100
AcDbLine
 10
94.784912
 20
121.167798
 30
0.0
 11
94.820052
 21
121.05032
 31
0.0
  0
LINE
  5
FD
100
AcDbEntity
  8
CUT
 62
     7
100
AcDbLine
 10
94.820052
 20
121.05032
 30
0.0
 11
94.851402
 21
120.932153
 31
0.0
  0
LINE
  5
FC
100
AcDbEntity
  8
CUT
 62
     7
100
AcDbLine
 10
94.851402
 20
120.932153
 30
0.0
 11
98.434991
 21
121.384839
 31
0.0
  0
LINE
  5
FB
100
AcDbEntity
  8
CUT
 62
     7
100
AcDbLine
 10
98.434991
 20
121.384839
 30
0.0
 11
98.434991
 21
121.50714
 31
0.0
  0
LINE
  5
FA
100
AcDbEntity
  8
CUT
 62
     7
100
AcDbLine
 10
98.434991
 20
121.50714
 30
0.0
 11
98.439814
 21
121.629785
 31
0.0
  0
LINE
  5
F9
100
AcDbEntity
  8
CUT
 62
     7
100
AcDbLine
 10
98.439814
 20
121.629785
 30
0.0
 11
98.447738
 21
121.752775
 31
0.0
  0
LINE
  5
F8
100
AcDbEntity
  8
CUT
 62
     7
100
AcDbLine
 10
98.447738
 20
121.752775
 30
0.0
 11
98.458073
 21
121.87542
 31
0.0
  0
LINE
  5
F7
100
AcDbEntity
  8
CUT
 62
     7
100
AcDbLine
 10
98.458073
 20
121.87542
 30
0.0
 11
98.484945
 21
122.122089
 31
0.0
  0
LINE
  5
F6
100
AcDbEntity
  8
CUT
 62
     7
100
AcDbLine
 10
98.484945
 20
122.122089
 30
0.0
 11
98.520085
 21
122.369103
 31
0.0
  0
LINE
  5
F5
100
AcDbEntity
  8
CUT
 62
     7
100
AcDbLine
 10
98.520085
 20
122.369103
 30
0.0
 11
98.610002
 21
122.864852
 31
0.0
  0
LINE
  5
F4
100
AcDbEntity
  8
CUT
 62
     7
100
AcDbLine
 10
98.610002
 20
122.864852
 30
0.0
 11
98.724034
 21
123.36129
 31
0.0
  0
LINE
  5
F3
100
AcDbEntity
  8
CUT
 62
     7
100
AcDbLine
 10
98.724034
 20
123.36129
 30
0.0
 11
98.859082
 21
123.859106
 31
0.0
  0
LINE
  5
F2
100
AcDbEntity
  8
CUT
 62
     7
100
AcDbLine
 10
98.859082
 20
123.859106
 30
0.0
 11
99.014111
 21
124.357267
 31
0.0
  0
LINE
  5
F1
100
AcDbEntity
  8
CUT
 62
     7
100
AcDbLine
 10
99.014111
 20
124.357267
 30
0.0
 11
99.1874
 21
124.855428
 31
0.0
  0
LINE
  5
F0
100
AcDbEntity
  8
CUT
 62
     7
100
AcDbLine
 10
99.1874
 20
124.855428
 30
0.0
 11
99.378258
 21
125.353933
 31
0.0
  0
LINE
  5
EF
100
AcDbEntity
  8
CUT
 62
     7
100
AcDbLine
 10
99.378258
 20
125.353933
 30
0.0
 11
99.586342
 21
125.85175
 31
0.0
  0
LINE
  5
EE
100
AcDbEntity
  8
CUT
 62
     7
100
AcDbLine
 10
99.586342
 20
125.85175
 30
0.0
 11
99.810617
 21
126.349566
 31
0.0
  0
LINE
  5
ED
100
AcDbEntity
  8
CUT
 62
     7
100
AcDbLine
 10
99.810617
 20
126.349566
 30
0.0
 11
102.959435
 21
126.364724
 31
0.0
  0
LINE
  5
EC
100
AcDbEntity
  8
CUT
 62
     7
100
AcDbLine
 10
102.959435
 20
126.364724
 30
0.0
 11
103.188534
 21
125.86932
 31
0.0
  0
LINE
  5
EB
100
AcDbEntity
  8
CUT
 62
     7
100
AcDbLine
 10
103.188534
 20
125.86932
 30
0.0
 11
103.40144
 21
125.373226
 31
0.0
  0
LINE
  5
EA
100
AcDbEntity
  8
CUT
 62
     7
100
AcDbLine
 10
103.40144
 20
125.373226
 30
0.0
 11
103.597466
 21
124.876788
 31
0.0
  0
LINE
  5
E9
100
AcDbEntity
  8
CUT
 62
     7
100
AcDbLine
 10
103.597466
 20
124.876788
 30
0.0
 11
103.775233
 21
124.380005
 31
0.0
  0
LINE
  5
E8
100
AcDbEntity
  8
CUT
 62
     7
100
AcDbLine
 10
103.775233
 20
124.380005
 30
0.0
 11
103.935086
 21
123.883567
 31
0.0
  0
LINE
  5
E7
100
AcDbEntity
  8
CUT
 62
     7
100
AcDbLine
 10
103.935086
 20
123.883567
 30
0.0
 11
104.074957
 21
123.387128
 31
0.0
  0
LINE
  5
E6
100
AcDbEntity
  8
CUT
 62
     7
100
AcDbLine
 10
104.074957
 20
123.387128
 30
0.0
 11
104.193812
 21
122.891724
 31
0.0
  0
LINE
  5
E5
100
AcDbEntity
  8
CUT
 62
     7
100
AcDbLine
 10
104.193812
 20
122.891724
 30
0.0
 11
104.288553
 21
122.397352
 31
0.0
  0
LINE
  5
E4
100
AcDbEntity
  8
CUT
 62
     7
100
AcDbLine
 10
104.288553
 20
122.397352
 30
0.0
 11
104.326104
 21
122.150339
 31
0.0
  0
LINE
  5
E3
100
AcDbEntity
  8
CUT
 62
     7
100
AcDbLine
 10
104.326104
 20
122.150339
 30
0.0
 11
104.355387
 21
121.904359
 31
0.0
  0
LINE
  5
E2
100
AcDbEntity
  8
CUT
 62
     7
100
AcDbLine
 10
104.355387
 20
121.904359
 30
0.0
 11
104.366756
 21
121.781369
 31
0.0
  0
LINE
  5
E1
100
AcDbEntity
  8
CUT
 62
     7
100
AcDbLine
 10
104.366756
 20
121.781369
 30
0.0
 11
104.375713
 21
121.658379
 31
0.0
  0
LINE
  5
E0
100
AcDbEntity
  8
CUT
 62
     7
100
AcDbLine
 10
104.375713
 20
121.658379
 30
0.0
 11
104.381915
 21
121.536079
 31
0.0
  0
LINE
  5
DF
100
AcDbEntity
  8
CUT
 62
     7
100
AcDbLine
 10
104.381915
 20
121.536079
 30
0.0
 11
104.385015
 21
121.413433
 31
0.0
  0
LINE
  5
DE
100
AcDbEntity
  8
CUT
 62
     7
100
AcDbLine
 10
104.385015
 20
121.413433
 30
0.0
 11
107.972738
 21
120.995543
 31
0.0
  0
LINE
  5
DD
100
AcDbEntity
  8
CUT
 62
     7
100
AcDbLine
 10
107.972738
 20
120.995543
 30
0.0
 11
108.003054
 21
121.114054
 31
0.0
  0
LINE
  5
DC
100
AcDbEntity
  8
CUT
 62
     7
100
AcDbLine
 10
108.003054
 20
121.114054
 30
0.0
 11
108.037161
 21
121.231877
 31
0.0
  0
LINE
  5
DB
100
AcDbEntity
  8
CUT
 62
     7
100
AcDbLine
 10
108.037161
 20
121.231877
 30
0.0
 11
108.074023
 21
121.349354
 31
0.0
  0
LINE
  5
DA
100
AcDbEntity
  8
CUT
 62
     7
100
AcDbLine
 10
108.074023
 20
121.349354
 30
0.0
 11
108.113298
 21
121.466488
 31
0.0
  0
LINE
  5
D9
100
AcDbEntity
  8
CUT
 62
     7
100
AcDbLine
 10
108.113298
 20
121.466488
 30
0.0
 11
108.198736
 21
121.699376
 31
0.0
  0
LINE
  5
D8
100
AcDbEntity
  8
CUT
 62
     7
100
AcDbLine
 10
108.198736
 20
121.699376
 30
0.0
 11
108.291753
 21
121.930887
 31
0.0
  0
LINE
  5
D7
100
AcDbEntity
  8
CUT
 62
     7
100
AcDbLine
 10
108.291753
 20
121.930887
 30
0.0
 11
108.49777
 21
122.390462
 31
0.0
  0
LINE
  5
D6
100
AcDbEntity
  8
CUT
 62
     7
100
AcDbLine
 10
108.49777
 20
122.390462
 30
0.0
 11
108.727214
 21
122.845215
 31
0.0
  0
LINE
  5
D5
100
AcDbEntity
  8
CUT
 62
     7
100
AcDbLine
 10
108.727214
 20
122.845215
 30
0.0
 11
108.977672
 21
123.296178
 31
0.0
  0
LINE
  5
D4
100
AcDbEntity
  8
CUT
 62
     7
100
AcDbLine
 10
108.977672
 20
123.296178
 30
0.0
 11
109.247078
 21
123.742662
 31
0.0
  0
LINE
  5
D3
100
AcDbEntity
  8
CUT
 62
     7
100
AcDbLine
 10
109.247078
 20
123.742662
 30
0.0
 11
109.534744
 21
124.185012
 31
0.0
  0
LINE
  5
D2
100
AcDbEntity
  8
CUT
 62
     7
100
AcDbLine
 10
109.534744
 20
124.185012
 30
0.0
 11
109.83929
 21
124.623229
 31
0.0
  0
LINE
  5
D1
100
AcDbEntity
  8
CUT
 62
     7
100
AcDbLine
 10
109.83929
 20
124.623229
 30
0.0
 11
110.160373
 21
125.056966
 31
0.0
  0
LINE
  5
D0
100
AcDbEntity
  8
CUT
 62
     7
100
AcDbLine
 10
110.160373
 20
125.056966
 30
0.0
 11
110.497304
 21
125.486225
 31
0.0
  0
LINE
  5
CF
100
AcDbEntity
  8
CUT
 62
     7
100
AcDbLine
 10
110.497304
 20
125.486225
 30
0.0
 11
113.558615
 21
124.747597
 31
0.0
  0
LINE
  5
CE
100
AcDbEntity
  8
CUT
 62
     7
100
AcDbLine
 10
113.558615
 20
124.747597
 30
0.0
 11
113.662313
 21
124.211884
 31
0.0
  0
LINE
  5
CD
100
AcDbEntity
  8
CUT
 62
     7
100
AcDbLine
 10
113.662313
 20
124.211884
 30
0.0
 11
113.750163
 21
123.679272
 31
0.0
  0
LINE
  5
CC
100
AcDbEntity
  8
CUT
 62
     7
100
AcDbLine
 10
113.750163
 20
123.679272
 30
0.0
 11
113.821821
 21
123.15045
 31
0.0
  0
LINE
  5
CB
100
AcDbEntity
  8
CUT
 62
     7
100
AcDbLine
 10
113.821821
 20
123.15045
 30
0.0
 11
113.875909
 21
122.625418
 31
0.0
  0
LINE
  5
CA
100
AcDbEntity
  8
CUT
 62
     7
100
AcDbLine
 10
113.875909
 20
122.625418
 30
0.0
 11
113.911738
 21
122.105208
 31
0.0
  0
LINE
  5
C9
100
AcDbEntity
  8
CUT
 62
     7
100
AcDbLine
 10
113.911738
 20
122.105208
 30
0.0
 11
113.928963
 21
121.589822
 31
0.0
  0
LINE
  5
C8
100
AcDbEntity
  8
CUT
 62
     7
100
AcDbLine
 10
113.928963
 20
121.589822
 30
0.0
 11
113.925518
 21
121.080292
 31
0.0
  0
LINE
  5
C7
100
AcDbEntity
  8
CUT
 62
     7
100
AcDbLine
 10
113.925518
 20
121.080292
 30
0.0
 11
113.898991
 21
120.577308
 31
0.0
  0
LINE
  5
C6
100
AcDbEntity
  8
CUT
 62
     7
100
AcDbLine
 10
113.898991
 20
120.577308
 30
0.0
 11
113.876253
 21
120.328917
 31
0.0
  0
LINE
  5
C5
100
AcDbEntity
  8
CUT
 62
     7
100
AcDbLine
 10
113.876253
 20
120.328917
 30
0.0
 11
113.845936
 21
120.082593
 31
0.0
  0
LINE
  5
C4
100
AcDbEntity
  8
CUT
 62
     7
100
AcDbLine
 10
113.845936
 20
120.082593
 30
0.0
 11
113.827677
 21
119.960636
 31
0.0
  0
LINE
  5
C3
100
AcDbEntity
  8
CUT
 62
     7
100
AcDbLine
 10
113.827677
 20
119.960636
 30
0.0
 11
113.807007
 21
119.839369
 31
0.0
  0
LINE
  5
C2
100
AcDbEntity
  8
CUT
 62
     7
100
AcDbLine
 10
113.807007
 20
119.839369
 30
0.0
 11
113.783236
 21
119.718791
 31
0.0
  0
LINE
  5
C1
100
AcDbEntity
  8
CUT
 62
     7
100
AcDbLine
 10
113.783236
 20
119.718791
 30
0.0
 11
113.756364
 21
119.59959
 31
0.0
  0
LINE
  5
C0
100
AcDbEntity
  8
CUT
 62
     7
100
AcDbLine
 10
113.756364
 20
119.59959
 30
0.0
 11
117.140137
 21
118.334896
 31
0.0
  0
LINE
  5
BF
100
AcDbEntity
  8
CUT
 62
     7
100
AcDbLine
 10
117.140137
 20
118.334896
 30
0.0
 11
117.19767
 21
118.442727
 31
0.0
  0
LINE
  5
BE
100
AcDbEntity
  8
CUT
 62
     7
100
AcDbLine
 10
117.19767
 20
118.442727
 30
0.0
 11
117.258993
 21
118.549181
 31
0.0
  0
LINE
  5
BD
100
AcDbEntity
  8
CUT
 62
     7
100
AcDbLine
 10
117.258993
 20
118.549181
 30
0.0
 11
117.323071
 21
118.654256
 31
0.0
  0
LINE
  5
BC
100
AcDbEntity
  8
CUT
 62
     7
100
AcDbLine
 10
117.323071
 20
118.654256
 30
0.0
 11
117.389217
 21
118.758298
 31
0.0
  0
LINE
  5
BB
100
AcDbEntity
  8
CUT
 62
     7
100
AcDbLine
 10
117.389217
 20
118.758298
 30
0.0
 11
117.528054
 21
118.964315
 31
0.0
  0
LINE
  5
BA
100
AcDbEntity
  8
CUT
 62
     7
100
AcDbLine
 10
117.528054
 20
118.964315
 30
0.0
 11
117.673782
 21
119.166542
 31
0.0
  0
LINE
  5
B9
100
AcDbEntity
  8
CUT
 62
     7
100
AcDbLine
 10
117.673782
 20
119.166542
 30
0.0
 11
117.983496
 21
119.563417
 31
0.0
  0
LINE
  5
B8
100
AcDbEntity
  8
CUT
 62
     7
100
AcDbLine
 10
117.983496
 20
119.563417
 30
0.0
 11
118.315259
 21
119.950301
 31
0.0
  0
LINE
  5
B7
100
AcDbEntity
  8
CUT
 62
     7
100
AcDbLine
 10
118.315259
 20
119.950301
 30
0.0
 11
118.666314
 21
120.328228
 31
0.0
  0
LINE
  5
B6
100
AcDbEntity
  8
CUT
 62
     7
100
AcDbLine
 10
118.666314
 20
120.328228
 30
0.0
 11
119.034939
 21
120.697198
 31
0.0
  0
LINE
  5
B5
100
AcDbEntity
  8
CUT
 62
     7
100
AcDbLine
 10
119.034939
 20
120.697198
 30
0.0
 11
119.419756
 21
121.057899
 31
0.0
  0
LINE
  5
B4
100
AcDbEntity
  8
CUT
 62
     7
100
AcDbLine
 10
119.419756
 20
121.057899
 30
0.0
 11
119.820766
 21
121.410333
 31
0.0
  0
LINE
  5
B3
100
AcDbEntity
  8
CUT
 62
     7
100
AcDbLine
 10
119.820766
 20
121.410333
 30
0.0
 11
120.236244
 21
121.754842
 31
0.0
  0
LINE
  5
B2
100
AcDbEntity
  8
CUT
 62
     7
100
AcDbLine
 10
120.236244
 20
121.754842
 30
0.0
 11
120.665847
 21
122.091083
 31
0.0
  0
LINE
  5
B1
100
AcDbEntity
  8
CUT
 62
     7
100
AcDbLine
 10
120.665847
 20
122.091083
 30
0.0
 11
123.461542
 21
120.641043
 31
0.0
  0
LINE
  5
B0
100
AcDbEntity
  8
CUT
 62
     7
100
AcDbLine
 10
123.461542
 20
120.641043
 30
0.0
 11
123.434326
 21
120.096029
 31
0.0
  0
LINE
  5
AF
100
AcDbEntity
  8
CUT
 62
     7
100
AcDbLine
 10
123.434326
 20
120.096029
 30
0.0
 11
123.391951
 21
119.558249
 31
0.0
  0
LINE
  5
AE
100
AcDbEntity
  8
CUT
 62
     7
100
AcDbLine
 10
123.391951
 20
119.558249
 30
0.0
 11
123.334763
 21
119.027705
 31
0.0
  0
LINE
  5
AD
100
AcDbEntity
  8
CUT
 62
     7
100
AcDbLine
 10
123.334763
 20
119.027705
 30
0.0
 11
123.261727
 21
118.505084
 31
0.0
  0
LINE
  5
AC
100
AcDbEntity
  8
CUT
 62
     7
100
AcDbLine
 10
123.261727
 20
118.505084
 30
0.0
 11
123.172154
 21
117.991075
 31
0.0
  0
LINE
  5
AB
100
AcDbEntity
  8
CUT
 62
     7
100
AcDbLine
 10
123.172154
 20
117.991075
 30
0.0
 11
123.065701
 21
117.486713
 31
0.0
  0
LINE
  5
AA
100
AcDbEntity
  8
CUT
 62
     7
100
AcDbLine
 10
123.065701
 20
117.486713
 30
0.0
 11
122.940299
 21
116.992687
 31
0.0
  0
LINE
  5
A9
100
AcDbEntity
  8
CUT
 62
     7
100
AcDbLine
 10
122.940299
 20
116.992687
 30
0.0
 11
122.794227
 21
116.510718
 31
0.0
  0
LINE
  5
A8
100
AcDbEntity
  8
CUT
 62
     7
100
AcDbLine
 10
122.794227
 20
116.510718
 30
0.0
 11
122.712923
 21
116.274729
 31
0.0
  0
LINE
  5
A7
100
AcDbEntity
  8
CUT
 62
     7
100
AcDbLine
 10
122.712923
 20
116.274729
 30
0.0
 11
122.624384
 21
116.043218
 31
0.0
  0
LINE
  5
A6
100
AcDbEntity
  8
CUT
 62
     7
100
AcDbLine
 10
122.624384
 20
116.043218
 30
0.0
 11
122.577531
 21
115.928841
 31
0.0
  0
LINE
  5
A5
100
AcDbEntity
  8
CUT
 62
     7
100
AcDbLine
 10
122.577531
 20
115.928841
 30
0.0
 11
122.528611
 21
115.816187
 31
0.0
  0
LINE
  5
A4
100
AcDbEntity
  8
CUT
 62
     7
100
AcDbLine
 10
122.528611
 20
115.816187
 30
0.0
 11
122.47659
 21
115.70491
 31
0.0
  0
LINE
  5
A3
100
AcDbEntity
  8
CUT
 62
     7
100
AcDbLine
 10
122.47659
 20
115.70491
 30
0.0
 11
122.422157
 21
115.595356
 31
0.0
  0
LINE
  5
A2
100
AcDbEntity
  8
CUT
 62
     7
100
AcDbLine
 10
122.422157
 20
115.595356
 30
0.0
 11
125.404576
 21
113.557926
 31
0.0
  0
LINE
  5
A1
100
AcDbEntity
  8
CUT
 62
     7
100
AcDbLine
 10
125.404576
 20
113.557926
 30
0.0
 11
125.48657
 21
113.648532
 31
0.0
  0
LINE
  5
A0
100
AcDbEntity
  8
CUT
 62
     7
100
AcDbLine
 10
125.48657
 20
113.648532
 30
0.0
 11
125.571319
 21
113.737071
 31
0.0
  0
LINE
  5
9F
100
AcDbEntity
  8
CUT
 62
     7
100
AcDbLine
 10
125.571319
 20
113.737071
 30
0.0
 11
125.658824
 21
113.824232
 31
0.0
  0
LINE
  5
9E
100
AcDbEntity
  8
CUT
 62
     7
100
AcDbLine
 10
125.658824
 20
113.824232
 30
0.0
 11
125.748052
 21
113.909326
 31
0.0
  0
LINE
  5
9D
100
AcDbEntity
  8
CUT
 62
     7
100
AcDbLine
 10
125.748052
 20
113.909326
 30
0.0
 11
125.93202
 21
114.075724
 31
0.0
  0
LINE
  5
9C
100
AcDbEntity
  8
CUT
 62
     7
100
AcDbLine
 10
125.93202
 20
114.075724
 30
0.0
 11
126.121845
 21
114.237644
 31
0.0
  0
LINE
  5
9B
100
AcDbEntity
  8
CUT
 62
     7
100
AcDbLine
 10
126.121845
 20
114.237644
 30
0.0
 11
126.517687
 21
114.548736
 31
0.0
  0
LINE
  5
9A
100
AcDbEntity
  8
CUT
 62
     7
100
AcDbLine
 10
126.517687
 20
114.548736
 30
0.0
 11
126.932476
 21
114.845014
 31
0.0
  0
LINE
  5
99
100
AcDbEntity
  8
CUT
 62
     7
100
AcDbLine
 10
126.932476
 20
114.845014
 30
0.0
 11
127.363458
 21
115.127856
 31
0.0
  0
LINE
  5
98
100
AcDbEntity
  8
CUT
 62
     7
100
AcDbLine
 10
127.363458
 20
115.127856
 30
0.0
 11
127.809942
 21
115.397952
 31
0.0
  0
LINE
  5
97
100
AcDbEntity
  8
CUT
 62
     7
100
AcDbLine
 10
127.809942
 20
115.397952
 30
0.0
 11
128.270207
 21
115.65599
 31
0.0
  0
LINE
  5
96
100
AcDbEntity
  8
CUT
 62
     7
100
AcDbLine
 10
128.270207
 20
115.65599
 30
0.0
 11
128.743563
 21
115.902314
 31
0.0
  0
LINE
  5
95
100
AcDbEntity
  8
CUT
 62
     7
100
AcDbLine
 10
128.743563
 20
115.902314
 30
0.0
 11
129.229321
 21
116.137269
 31
0.0
  0
LINE
  5
94
100
AcDbEntity
  8
CUT
 62
     7
100
AcDbLine
 10
129.229321
 20
116.137269
 30
0.0
 11
129.727138
 21
116.361201
 31
0.0
  0
LINE
  5
93
100
AcDbEntity
  8
CUT
 62
     7
100
AcDbLine
 10
129.727138
 20
116.361201
 30
0.0
 11
132.094263
 21
114.284153
 31
0.0
  0
LINE
  5
92
100
AcDbEntity
  8
CUT
 62
     7
100
AcDbLine
 10
132.094263
 20
114.284153
 30
0.0
 11
131.937166
 21
113.761532
 31
0.0
  0
LINE
  5
91
100
AcDbEntity
  8
CUT
 62
     7
100
AcDbLine
 10
131.937166
 20
113.761532
 30
0.0
 11
131.767668
 21
113.249246
 31
0.0
  0
LINE
  5
90
100
AcDbEntity
  8
CUT
 62
     7
100
AcDbLine
 10
131.767668
 20
113.249246
 30
0.0
 11
131.585078
 21
112.747984
 31
0.0
  0
LINE
  5
8F
100
AcDbEntity
  8
CUT
 62
     7
100
AcDbLine
 10
131.585078
 20
112.747984
 30
0.0
 11
131.389052
 21
112.258092
 31
0.0
  0
LINE
  5
8E
100
AcDbEntity
  8
CUT
 62
     7
100
AcDbLine
 10
131.389052
 20
112.258092
 30
0.0
 11
131.179245
 21
111.780257
 31
0.0
  0
LINE
  5
8D
100
AcDbEntity
  8
CUT
 62
     7
100
AcDbLine
 10
131.179245
 20
111.780257
 30
0.0
 11
130.95497
 21
111.316203
 31
0.0
  0
LINE
  5
8C
100
AcDbEntity
  8
CUT
 62
     7
100
AcDbLine
 10
130.95497
 20
111.316203
 30
0.0
 11
130.715191
 21
110.866618
 31
0.0
  0
LINE
  5
8B
100
AcDbEntity
  8
CUT
 62
     7
100
AcDbLine
 10
130.715191
 20
110.866618
 30
0.0
 11
130.458187
 21
110.433569
 31
0.0
  0
LINE
  5
8A
100
AcDbEntity
  8
CUT
 62
     7
100
AcDbLine
 10
130.458187
 20
110.433569
 30
0.0
 11
130.32245
 21
110.223763
 31
0.0
  0
LINE
  5
89
100
AcDbEntity
  8
CUT
 62
     7
100
AcDbLine
 10
130.32245
 20
110.223763
 30
0.0
 11
130.181201
 21
110.019813
 31
0.0
  0
LINE
  5
88
100
AcDbEntity
  8
CUT
 62
     7
100
AcDbLine
 10
130.181201
 20
110.019813
 30
0.0
 11
130.10851
 21
109.92025
 31
0.0
  0
LINE
  5
87
100
AcDbEntity
  8
CUT
 62
     7
100
AcDbLine
 10
130.10851
 20
109.92025
 30
0.0
 11
130.033407
 21
109.822754
 31
0.0
  0
LINE
  5
86
100
AcDbEntity
  8
CUT
 62
     7
100
AcDbLine
 10
130.033407
 20
109.822754
 30
0.0
 11
129.956581
 21
109.72698
 31
0.0
  0
LINE
  5
85
100
AcDbEntity
  8
CUT
 62
     7
100
AcDbLine
 10
129.956581
 20
109.72698
 30
0.0
 11
129.877344
 21
109.633963
 31
0.0
  0
LINE
  5
84
100
AcDbEntity
  8
CUT
 62
     7
100
AcDbLine
 10
129.877344
 20
109.633963
 30
0.0
 11
132.28581
 21
106.941621
 31
0.0
  0
LINE
  5
83
100
AcDbEntity
  8
CUT
 62
     7
100
AcDbLine
 10
132.28581
 20
106.941621
 30
0.0
 11
132.387096
 21
107.010178
 31
0.0
  0
LINE
  5
82
100
AcDbEntity
  8
CUT
 62
     7
100
AcDbLine
 10
132.387096
 20
107.010178
 30
0.0
 11
132.490793
 21
107.075979
 31
0.0
  0
LINE
  5
81
100
AcDbEntity
  8
CUT
 62
     7
100
AcDbLine
 10
132.490793
 20
107.075979
 30
0.0
 11
132.596213
 21
107.139369
 31
0.0
  0
LINE
  5
80
100
AcDbEntity
  8
CUT
 62
     7
100
AcDbLine
 10
132.596213
 20
107.139369
 30
0.0
 11
132.703356
 21
107.200692
 31
0.0
  0
LINE
  5
7F
100
AcDbEntity
  8
CUT
 62
     7
100
AcDbLine
 10
132.703356
 20
107.200692
 30
0.0
 11
132.92143
 21
107.318514
 31
0.0
  0
LINE
  5
7E
100
AcDbEntity
  8
CUT
 62
     7
100
AcDbLine
 10
132.92143
 20
107.318514
 30
0.0
 11
133.144672
 21
107.430135
 31
0.0
  0
LINE
  5
7D
100
AcDbEntity
  8
CUT
 62
     7
100
AcDbLine
 10
133.144672
 20
107.430135
 30
0.0
 11
133.603559
 21
107.63753
 31
0.0
  0
LINE
  5
7C
100
AcDbEntity
  8
CUT
 62
     7
100
AcDbLine
 10
133.603559
 20
107.63753
 30
0.0
 11
134.07726
 21
107.825977
 31
0.0
  0
LINE
  5
7B
100
AcDbEntity
  8
CUT
 62
     7
100
AcDbLine
 10
134.07726
 20
107.825977
 30
0.0
 11
134.563363
 21
107.997198
 31
0.0
  0
LINE
  5
7A
100
AcDbEntity
  8
CUT
 62
     7
100
AcDbLine
 10
134.563363
 20
107.997198
 30
0.0
 11
135.061179
 21
108.152916
 31
0.0
  0
LINE
  5
79
100
AcDbEntity
  8
CUT
 62
     7
100
AcDbLine
 10
135.061179
 20
108.152916
 30
0.0
 11
135.57002
 21
108.293132
 31
0.0
  0
LINE
  5
78
100
AcDbEntity
  8
CUT
 62
     7
100
AcDbLine
 10
135.57002
 20
108.293132
 30
0.0
 11
136.088851
 21
108.419222
 31
0.0
  0
LINE
  5
77
100
AcDbEntity
  8
CUT
 62
     7
100
AcDbLine
 10
136.088851
 20
108.419222
 30
0.0
 11
136.61664
 21
108.530843
 31
0.0
  0
LINE
  5
76
100
AcDbEntity
  8
CUT
 62
     7
100
AcDbLine
 10
136.61664
 20
108.530843
 30
0.0
 11
137.153385
 21
108.629028
 31
0.0
  0
LINE
  5
75
100
AcDbEntity
  8
CUT
 62
     7
100
AcDbLine
 10
137.153385
 20
108.629028
 30
0.0
 11
138.954826
 21
106.04624
 31
0.0
  0
LINE
  5
74
100
AcDbEntity
  8
CUT
 62
     7
100
AcDbLine
 10
138.954826
 20
106.04624
 30
0.0
 11
138.677496
 21
105.575985
 31
0.0
  0
LINE
  5
73
100
AcDbEntity
  8
CUT
 62
     7
100
AcDbLine
 10
138.677496
 20
105.575985
 30
0.0
 11
138.390175
 21
105.11951
 31
0.0
  0
LINE
  5
72
100
AcDbEntity
  8
CUT
 62
     7
100
AcDbLine
 10
138.390175
 20
105.11951
 30
0.0
 11
138.092518
 21
104.676126
 31
0.0
  0
LINE
  5
71
100
AcDbEntity
  8
CUT
 62
     7
100
AcDbLine
 10
138.092518
 20
104.676126
 30
0.0
 11
137.785216
 21
104.247556
 31
0.0
  0
LINE
  5
70
100
AcDbEntity
  8
CUT
 62
     7
100
AcDbLine
 10
137.785216
 20
104.247556
 30
0.0
 11
137.467234
 21
103.834144
 31
0.0
  0
LINE
  5
6F
100
AcDbEntity
  8
CUT
 62
     7
100
AcDbLine
 10
137.467234
 20
103.834144
 30
0.0
 11
137.138227
 21
103.436925
 31
0.0
  0
LINE
  5
6E
100
AcDbEntity
  8
CUT
 62
     7
100
AcDbLine
 10
137.138227
 20
103.436925
 30
0.0
 11
136.797852
 21
103.05762
 31
0.0
  0
LINE
  5
6D
100
AcDbEntity
  8
CUT
 62
     7
100
AcDbLine
 10
136.797852
 20
103.05762
 30
0.0
 11
136.444385
 21
102.698641
 31
0.0
  0
LINE
  5
6C
100
AcDbEntity
  8
CUT
 62
     7
100
AcDbLine
 10
136.444385
 20
102.698641
 30
0.0
 11
136.262828
 21
102.527764
 31
0.0
  0
LINE
  5
6B
100
AcDbEntity
  8
CUT
 62
     7
100
AcDbLine
 10
136.262828
 20
102.527764
 30
0.0
 11
136.076793
 21
102.363433
 31
0.0
  0
LINE
  5
6A
100
AcDbEntity
  8
CUT
 62
     7
100
AcDbLine
 10
136.076793
 20
102.363433
 30
0.0
 11
135.982397
 21
102.284196
 31
0.0
  0
LINE
  5
69
100
AcDbEntity
  8
CUT
 62
     7
100
AcDbLine
 10
135.982397
 20
102.284196
 30
0.0
 11
135.886279
 21
102.20737
 31
0.0
  0
LINE
  5
68
100
AcDbEntity
  8
CUT
 62
     7
100
AcDbLine
 10
135.886279
 20
102.20737
 30
0.0
 11
135.788783
 21
102.132612
 31
0.0
  0
LINE
  5
67
100
AcDbEntity
  8
CUT
 62
     7
100
AcDbLine
 10
135.788783
 20
102.132612
 30
0.0
 11
135.689564
 21
102.061298
 31
0.0
  0
LINE
  5
66
100
AcDbEntity
  8
CUT
 62
     7
100
AcDbLine
 10
135.689564
 20
102.061298
 30
0.0
 11
137.383518
 21
98.87114
 31
0.0
  0
LINE
  5
65
100
AcDbEntity
  8
CUT
 62
     7
100
AcDbLine
 10
137.383518
 20
98.87114
 30
0.0
 11
137.498239
 21
98.913515
 31
0.0
  0
LINE
  5
64
100
AcDbEntity
  8
CUT
 62
     7
100
AcDbLine
 10
137.498239
 20
98.913515
 30
0.0
 11
137.614684
 21
98.952444
 31
0.0
  0
LINE
  5
63
100
AcDbEntity
  8
CUT
 62
     7
100
AcDbLine
 10
137.614684
 20
98.952444
 30
0.0
 11
137.732161
 21
98.988962
 31
0.0
  0
LINE
  5
62
100
AcDbEntity
  8
CUT
 62
     7
100
AcDbLine
 10
137.732161
 20
98.988962
 30
0.0
 11
137.850673
 21
99.022724
 31
0.0
  0
LINE
  5
61
100
AcDbEntity
  8
CUT
 62
     7
100
AcDbLine
 10
137.850673
 20
99.022724
 30
0.0
 11
138.09114
 21
99.084736
 31
0.0
  0
LINE
  5
60
100
AcDbEntity
  8
CUT
 62
     7
100
AcDbLine
 10
138.09114
 20
99.084736
 30
0.0
 11
138.334364
 21
99.139857
 31
0.0
  0
LINE
  5
5F
100
AcDbEntity
  8
CUT
 62
     7
100
AcDbLine
 10
138.334364
 20
99.139857
 30
0.0
 11
138.829769
 21
99.231152
 31
0.0
  0
LINE
  5
5E
100
AcDbEntity
  8
CUT
 62
     7
100
AcDbLine
 10
138.829769
 20
99.231152
 30
0.0
 11
139.334475
 21
99.301088
 31
0.0
  0
LINE
  5
5D
100
AcDbEntity
  8
CUT
 62
     7
100
AcDbLine
 10
139.334475
 20
99.301088
 30
0.0
 11
139.847795
 21
99.351042
 31
0.0
  0
LINE
  5
5C
100
AcDbEntity
  8
CUT
 62
     7
100
AcDbLine
 10
139.847795
 20
99.351042
 30
0.0
 11
140.368349
 21
99.382737
 31
0.0
  0
LINE
  5
5B
100
AcDbEntity
  8
CUT
 62
     7
100
AcDbLine
 10
140.368349
 20
99.382737
 30
0.0
 11
140.895793
 21
99.39755
 31
0.0
  0
LINE
  5
5A
100
AcDbEntity
  8
CUT
 62
     7
100
AcDbLine
 10
140.895793
 20
99.39755
 30
0.0
 11
141.429438
 21
99.395483
 31
0.0
  0
LINE
  5
59
100
AcDbEntity
  8
CUT
 62
     7
100
AcDbLine
 10
141.429438
 20
99.395483
 30
0.0
 11
141.96894
 21
99.377913
 31
0.0
  0
LINE
  5
58
100
AcDbEntity
  8
CUT
 62
     7
100
AcDbLine
 10
141.96894
 20
99.377913
 30
0.0
 11
142.513609
 21
99.344496
 31
0.0
  0
LINE
  5
57
100
AcDbEntity
  8
CUT
 62
     7
100
AcDbLine
 10
142.513609
 20
99.344496
 30
0.0
 11
143.644634
 21
96.40583
 31
0.0
  0
LINE
  5
56
100
AcDbEntity
  8
CUT
 62
     7
100
AcDbLine
 10
143.644634
 20
96.40583
 30
0.0
 11
143.262918
 21
96.015845
 31
0.0
  0
LINE
  5
55
100
AcDbEntity
  8
CUT
 62
     7
100
AcDbLine
 10
143.262918
 20
96.015845
 30
0.0
 11
142.874311
 21
95.641018
 31
0.0
  0
LINE
  5
54
100
AcDbEntity
  8
CUT
 62
     7
100
AcDbLine
 10
142.874311
 20
95.641018
 30
0.0
 11
142.479503
 21
95.281695
 31
0.0
  0
LINE
  5
53
100
AcDbEntity
  8
CUT
 62
     7
100
AcDbLine
 10
142.479503
 20
95.281695
 30
0.0
 11
142.078494
 21
94.939252
 31
0.0
  0
LINE
  5
52
100
AcDbEntity
  8
CUT
 62
     7
100
AcDbLine
 10
142.078494
 20
94.939252
 30
0.0
 11
141.670595
 21
94.613691
 31
0.0
  0
LINE
  5
51
100
AcDbEntity
  8
CUT
 62
     7
100
AcDbLine
 10
141.670595
 20
94.613691
 30
0.0
 11
141.25615
 21
94.306733
 31
0.0
  0
LINE
  5
50
100
AcDbEntity
  8
CUT
 62
     7
100
AcDbLine
 10
141.25615
 20
94.306733
 30
0.0
 11
140.834814
 21
94.020445
 31
0.0
  0
LINE
  5
4F
100
AcDbEntity
  8
CUT
 62
     7
100
AcDbLine
 10
140.834814
 20
94.020445
 30
0.0
 11
140.406245
 21
93.756207
 31
0.0
  0
LINE
  5
4E
100
AcDbEntity
  8
CUT
 62
     7
100
AcDbLine
 10
140.406245
 20
93.756207
 30
0.0
 11
140.188515
 21
93.633561
 31
0.0
  0
LINE
  5
4D
100
AcDbEntity
  8
CUT
 62
     7
100
AcDbLine
 10
140.188515
 20
93.633561
 30
0.0
 11
139.968717
 21
93.51884
 31
0.0
  0
LINE
  5
4C
100
AcDbEntity
  8
CUT
 62
     7
100
AcDbLine
 10
139.968717
 20
93.51884
 30
0.0
 11
139.857785
 21
93.464407
 31
0.0
  0
LINE
  5
4B
100
AcDbEntity
  8
CUT
 62
     7
100
AcDbLine
 10
139.857785
 20
93.464407
 30
0.0
 11
139.746164
 21
93.412386
 31
0.0
  0
LINE
  5
4A
100
AcDbEntity
  8
CUT
 62
     7
100
AcDbLine
 10
139.746164
 20
93.412386
 30
0.0
 11
139.633854
 21
93.363466
 31
0.0
  0
LINE
  5
49
100
AcDbEntity
  8
CUT
 62
     7
100
AcDbLine
 10
139.633854
 20
93.363466
 30
0.0
 11
139.520166
 21
93.31799
 31
0.0
  0
LINE
  5
48
100
AcDbEntity
  8
CUT
 62
     7
100
AcDbLine
 10
139.520166
 20
93.31799
 30
0.0
 11
140.401766
 21
89.815017
 31
0.0
  0
LINE
  5
47
100
AcDbEntity
  8
CUT
 62
     7
100
AcDbLine
 10
140.401766
 20
89.815017
 30
0.0
 11
140.523378
 21
89.828798
 31
0.0
  0
LINE
  5
46
100
AcDbEntity
  8
CUT
 62
     7
100
AcDbLine
 10
140.523378
 20
89.828798
 30
0.0
 11
140.645679
 21
89.838789
 31
0.0
  0
LINE
  5
45
100
AcDbEntity
  8
CUT
 62
     7
100
AcDbLine
 10
140.645679
 20
89.838789
 30
0.0
 11
140.768324
 21
89.846023
 31
0.0
  0
LINE
  5
44
100
AcDbEntity
  8
CUT
 62
     7
100
AcDbLine
 10
140.768324
 20
89.846023
 30
0.0
 11
140.891659
 21
89.850502
 31
0.0
  0
LINE
  5
43
100
AcDbEntity
  8
CUT
 62
     7
100
AcDbLine
 10
140.891659
 20
89.850502
 30
0.0
 11
141.14005
 21
89.853258
 31
0.0
  0
LINE
  5
42
100
AcDbEntity
  8
CUT
 62
     7
100
AcDbLine
 10
141.14005
 20
89.853258
 30
0.0
 11
141.389475
 21
89.848435
 31
0.0
  0
LINE
  5
41
100
AcDbEntity
  8
CUT
 62
     7
100
AcDbLine
 10
141.389475
 20
89.848435
 30
0.0
 11
141.892114
 21
89.818807
 31
0.0
  0
LINE
  5
40
100
AcDbEntity
  8
CUT
 62
     7
100
AcDbLine
 10
141.892114
 20
89.818807
 30
0.0
 11
142.398888
 21
89.765752
 31
0.0
  0
LINE
  5
3F
100
AcDbEntity
  8
CUT
 62
     7
100
AcDbLine
 10
142.398888
 20
89.765752
 30
0.0
 11
142.909106
 21
89.691338
 31
0.0
  0
LINE
  5
3E
100
AcDbEntity
  8
CUT
 62
     7
100
AcDbLine
 10
142.909106
 20
89.691338
 30
0.0
 11
143.422426
 21
89.597632
 31
0.0
  0
LINE
  5
3D
100
AcDbEntity
  8
CUT
 62
     7
100
AcDbLine
 10
143.422426
 20
89.597632
 30
0.0
 11
143.937812
 21
89.485322
 31
0.0
  0
LINE
  5
3C
100
AcDbEntity
  8
CUT
 62
     7
100
AcDbLine
 10
143.937812
 20
89.485322
 30
0.0
 11
144.45561
 21
89.356131
 31
0.0
  0
LINE
  5
3B
100
AcDbEntity
  8
CUT
 62
     7
100
AcDbLine
 10
144.45561
 20
89.356131
 30
0.0
 11
144.97513
 21
89.209714
 31
0.0
  0
LINE
  5
3A
100
AcDbEntity
  8
CUT
 62
     7
100
AcDbLine
 10
144.97513
 20
89.209714
 30
0.0
 11
145.496029
 21
89.047106
 31
0.0
  0
LINE
  5
39
100
AcDbEntity
  8
CUT
 62
     7
100
AcDbLine
 10
145.496029
 20
89.047106
 30
0.0
 11
145.890837
 21
85.922748
 31
0.0
  0
LINE
  5
38
100
AcDbEntity
  8
CUT
 62
     7
100
AcDbLine
 10
145.890837
 20
85.922748
 30
0.0
 11
145.426782
 21
85.635772
 31
0.0
  0
LINE
  5
37
100
AcDbEntity
  8
CUT
 62
     7
100
AcDbLine
 10
145.426782
 20
85.635772
 30
0.0
 11
144.959972
 21
85.364643
 31
0.0
  0
LINE
  5
36
100
AcDbEntity
  8
CUT
 62
     7
100
AcDbLine
 10
144.959972
 20
85.364643
 30
0.0
 11
144.49075
 21
85.110739
 31
0.0
  0
LINE
  5
35
100
AcDbEntity
  8
CUT
 62
     7
100
AcDbLine
 10
144.49075
 20
85.110739
 30
0.0
 11
144.019116
 21
84.873717
 31
0.0
  0
LINE
  5
34
100
AcDbEntity
  8
CUT
 62
     7
100
AcDbLine
 10
144.019116
 20
84.873717
 30
0.0
 11
143.545416
 21
84.655642
 31
0.0
  0
LINE
  5
33
100
AcDbEntity
  8
CUT
 62
     7
100
AcDbLine
 10
143.545416
 20
84.655642
 30
0.0
 11
143.069303
 21
84.456516
 31
0.0
  0
LINE
  5
32
100
AcDbEntity
  8
CUT
 62
     7
100
AcDbLine
 10
143.069303
 20
84.456516
 30
0.0
 11
142.591813
 21
84.279093
 31
0.0
  0
LINE
  5
31
100
AcDbEntity
  8
CUT
 62
     7
100
AcDbLine
 10
142.591813
 20
84.279093
 30
0.0
 11
142.1126
 21
84.125442
 31
0.0
  0
LINE
  5
30
100
AcDbEntity
  8
CUT
 62
     7
100
AcDbLine
 10
142.1126
 20
84.125442
 30
0.0
 11
141.871788
 21
84.058607
 31
0.0
  0
LINE
  5
2F
100
AcDbEntity
  8
CUT
 62
     7
100
AcDbLine
 10
141.871788
 20
84.058607
 30
0.0
 11
141.630976
 21
83.999352
 31
0.0
  0
LINE
  5
2E
100
AcDbEntity
  8
CUT
 62
     7
100
AcDbLine
 10
141.630976
 20
83.999352
 30
0.0
 11
141.510398
 21
83.973513
 31
0.0
  0
LINE
  5
2D
100
AcDbEntity
  8
CUT
 62
     7
100
AcDbLine
 10
141.510398
 20
83.973513
 30
0.0
 11
141.389475
 21
83.949742
 31
0.0
  0
LINE
  5
2C
100
AcDbEntity
  8
CUT
 62
     7
100
AcDbLine
 10
141.389475
 20
83.949742
 30
0.0
 11
141.268552
 21
83.929072
 31
0.0
  0
LINE
  5
2B
100
AcDbEntity
  8
CUT
 62
     7
100
AcDbLine
 10
141.268552
 20
83.929072
 30
0.0
 11
141.147629
 21
83.912191
 31
0.0
  0
LINE
  5
2A
100
AcDbEntity
  8
CUT
 62
     7
100
AcDbLine
 10
141.147629
 20
83.912191
 30
0.0
 11
141.16451
 21
80.300008
 31
0.0
  0
ENDSEC
  0
SECTION
  2
OBJECTS
  0
DICTIONARY
  5
19
100
AcDbDictionary
280
     0
281
     1
  3
ACAD_GROUP
350
1A
  3
ACAD_MLINESTYLE
350
1B
  3
ACAD_LAYOUT
350
1E
  3
ACAD_PLOTSETTINGS
350
22
  3
ACAD_PLOTSTYLENAME
350
1F
  3
ACAD_WIPEOUT_VARS
350
23
  0
DICTIONARY
  5
1A
102
{ACAD_REACTORS
330
19
102
}
100
AcDbDictionary
280
     0
281
     1
  0
DICTIONARY
  5
1B
102
{ACAD_REACTORS
330
19
102
}
100
AcDbDictionary
280
     0
281
     1
  3
Standard
350
1C
  0
MLINESTYLE
  5
1C
102
{ACAD_REACTORS
330
1B
102
}
100
AcDbMlineStyle
  2
Standard
 70
     0
  3

 62
     0
 51
90.0
 52
90.0
 71
     2
 49
0.5
 62
   256
  6
ByLayer
 49
-0.5
 62
   256
  6
ByLayer
  0
ACDBDICTIONARYWDFLT
  5
1F
102
{ACAD_REACTORS
330
19
102
}
100
AcDbDictionary
281
     1
  3
Normal
350
1D
100
AcDbDictionaryWithDefault
340
1D
  0
ACDBPLACEHOLDER
  5
1D
102
{ACAD_REACTORS
330
1F
102
}
  0
LAYOUT
  5
20
102
{ACAD_REACTORS
330
1E
102
}
100
AcDbPlotSettings
  1

  2

  4

  6

 40
0.0
 41
0.0
 42
0.0
 43
0.0
 44
0.0
 45
0.0
 46
0.0
 47
0.0
 48
0.0
 49
0.0
140
0.0
141
0.0
142
1.0
143
1.0
 70
  1024
 72
     0
 73
     0
 74
     0
  7

 75
     0
147
1.0
148
0.0
149
0.0
100
AcDbLayout
  1
Model
 70
     0
 71
     0
 10
0.0
 20
0.0
 11
0.0
 21
0.0
 12
0.0
 22
0.0
 32
0.0
 14
0.0
 24
0.0
 34
0.0
 15
0.0
 25
0.0
 35
0.0
146
0.0
 13
0.0
 23
0.0
 33
0.0
 16
0.0
 26
0.0
 36
0.0
 17
0.0
 27
0.0
 37
0.0
 76
     0
330
A
331
0
345
0
346
0
  0
LAYOUT
  5
21
102
{ACAD_REACTORS
330
1E
102
}
100
AcDbPlotSettings
  1

  2

  4

  6

 40
0.0
 41
0.0
 42
0.0
 43
0.0
 44
0.0
 45
0.0
 46
0.0
 47
0.0
 48
0.0
 49
0.0
140
0.0
141
0.0
142
1.0
143
1.0
 70
     0
 72
     0
 73
     0
 74
     0
  7

 75
     0
147
1.0
148
0.0
149
0.0
100
AcDbLayout
  1
Layout1
 70
     0
 71
     0
 10
0.0
 20
0.0
 11
0.0
 21
0.0
 12
0.0
 22
0.0
 32
0.0
 14
0.0
 24
0.0
 34
0.0
 15
0.0
 25
0.0
 35
0.0
146
0.0
 13
0.0
 23
0.0
 33
0.0
 16
0.0
 26
0.0
 36
0.0
 17
0.0
 27
0.0
 37
0.0
 76
     0
330
B
331
0
345
0
346
0
  0
DICTIONARY
  5
1E
102
{ACAD_REACTORS
330
19
102
}
100
AcDbDictionary
280
     0
281
     1
  3
Layout1
350
21
  3
Model
350
20
  0
DICTIONARY
  5
22
102
{ACAD_REACTORS
330
19
102
}
100
AcDbDictionary
280
     0
281
     1
  0
WIPEOUTVARIABLES
  5
23
100
AcDbWipeoutVariables
 70
     1
  0
ENDSEC
  0
EOF
