  0
SECTION
  2
HEADER
  9
$ACADVER
  1
AC1015
  9
$ACADMAINTVER
 70
     6
  9
$DWGCODEPAGE
  3
ANSI_932
  9
$INSBASE
 10
0.0
 20
0.0
 30
0.0
  9
$EXTMIN
 10
247.222808
 20
-5.442217
 30
1.000000E+20
  9
$EXTMAX
 10
347.777222
 20
195.442334
 30
-1.000000E+20
  9
$LIMMIN
 10
247.222808
 20
-5.442217
  9
$LIMMAX
 10
347.777222
 20
195.442334
  9
$ORTHOMODE
 70
     0
  9
$REGENMODE
 70
     1
  9
$FILLMODE
 70
     1
  9
$QTEXTMODE
 70
     0
  9
$MIRRTEXT
 70
     1
  9
$LTSCALE
 40
1.0
  9
$ATTMODE
 70
     1
  9
$TEXTSIZE
 40
0.2
  9
$TRACEWID
 40
0.05
  9
$TEXTSTYLE
  7
Standard
  9
$CLAYER
  8
0
  9
$CELTYPE
  6
Continuous
  9
$CECOLOR
 62
   256
  9
$CELTSCALE
 40
1.0
  9
$DISPSILH
 70
     0
  9
$DIMSCALE
 40
1.0
  9
$DIMASZ
 40
0.18
  9
$DIMEXO
 40
0.0625
  9
$DIMDLI
 40
0.38
  9
$DIMRND
 40
0.0
  9
$DIMDLE
 40
0.0
  9
$DIMEXE
 40
0.18
  9
$DIMTP
 40
0.0
  9
$DIMTM
 40
0.0
  9
$DIMTXT
 40
0.18
  9
$DIMCEN
 40
0.09
  9
$DIMTSZ
 40
0.0
  9
$DIMTOL
 70
     0
  9
$DIMLIM
 70
     0
  9
$DIMTIH
 70
     1
  9
$DIMTOH
 70
     1
  9
$DIMSE1
 70
     0
  9
$DIMSE2
 70
     0
  9
$DIMTAD
 70
     0
  9
$DIMZIN
 70
     0
  9
$DIMBLK
  1

  9
$DIMASO
 70
     1
  9
$DIMSHO
 70
     1
  9
$DIMPOST
  1

  9
$DIMAPOST
  1

  9
$DIMALT
 70
     0
  9
$DIMALTD
 70
     2
  9
$DIMALTF
 40
25.4
  9
$DIMLFAC
 40
1.0
  9
$DIMTOFL
 70
     0
  9
$DIMTVP
 40
0.0
  9
$DIMTIX
 70
     0
  9
$DIMSOXD
 70
     0
  9
$DIMSAH
 70
     0
  9
$DIMBLK1
  1

  9
$DIMBLK2
  1

  9
$DIMSTYLE
  2
Standard
  9
$DIMCLRD
 70
     0
  9
$DIMCLRE
 70
     0
  9
$DIMCLRT
 70
     0
  9
$DIMTFAC
 40
1.0
  9
$DIMGAP
 40
0.09
  9
$DIMJUST
 70
     0
  9
$DIMSD1
 70
     0
  9
$DIMSD2
 70
     0
  9
$DIMTOLJ
 70
     1
  9
$DIMTZIN
 70
     0
  9
$DIMALTZ
 70
     0
  9
$DIMALTTZ
 70
     0
  9
$DIMUPT
 70
     0
  9
$DIMDEC
 70
     4
  9
$DIMTDEC
 70
     4
  9
$DIMALTU
 70
     2
  9
$DIMALTTD
 70
     2
  9
$DIMTXSTY
  7
Standard
  9
$DIMAUNIT
 70
     0
  9
$DIMADEC
 70
     0
  9
$DIMALTRND
 40
0.0
  9
$DIMAZIN
 70
     0
  9
$DIMDSEP
 70
     0
  9
$DIMATFIT
 70
     3
  9
$DIMFRAC
 70
     0
  9
$DIMLDRBLK
  1

  9
$DIMLUNIT
 70
     2
  9
$DIMLWD
 70
     0
  9
$DIMLWE
 70
     0
  9
$DIMTMOVE
 70
     0
  9
$LUNITS
 70
     2
  9
$LUPREC
 70
     4
  9
$SKETCHINC
 40
0.1
  9
$FILLETRAD
 40
0.0
  9
$AUNITS
 70
     0
  9
$AUPREC
 70
     0
  9
$MENU
  1
acad
  9
$ELEVATION
 40
0.0
  9
$PELEVATION
 40
0.0
  9
$THICKNESS
 40
0.0
  9
$LIMCHECK
 70
     0
  9
$CHAMFERA
 40
0.0
  9
$CHAMFERB
 40
0.0
  9
$CHAMFERC
 40
0.0
  9
$CHAMFERD
 40
0.0
  9
$SKPOLY
 70
     0
  9
$TDCREATE
 40
0.000000000
  9
$TDUCREATE
 40
0.000000000
  9
$TDUPDATE
 40
0.000000000
  9
$TDUUPDATE
 40
0.000000000
  9
$TDINDWG
 40
0.0000000000
  9
$TDUSRTIMER
 40
0.0000000000
  9
$USRTIMER
 70
     1
  9
$ANGBASE
 50
0.0
  9
$ANGDIR
 70
     0
  9
$PDMODE
 70
     0
  9
$PDSIZE
 40
0.0
  9
$PLINEWID
 40
0.0
  9
$SPLFRAME
 70
     0
  9
$SPLINETYPE
 70
     6
  9
$SPLINESEGS
 70
     8
  9
$HANDSEED
  5
33E
  9
$SURFTAB1
 70
     6
  9
$SURFTAB2
 70
     6
  9
$SURFTYPE
 70
     6
  9
$SURFU
 70
     6
  9
$SURFV
 70
     6
  9
$UCSBASE
  2

  9
$UCSNAME
  2

  9
$UCSORG
 10
0.0
 20
0.0
 30
0.0
  9
$UCSXDIR
 10
1.0
 20
0.0
 30
0.0
  9
$UCSYDIR
 10
0.0
 20
1.0
 30
0.0
  9
$UCSORTHOREF
  2

  9
$UCSORTHOVIEW
 70
     0
  9
$UCSORGTOP
 10
0.0
 20
0.0
 30
0.0
  9
$UCSORGBOTTOM
 10
0.0
 20
0.0
 30
0.0
  9
$UCSORGLEFT
 10
0.0
 20
0.0
 30
0.0
  9
$UCSORGRIGHT
 10
0.0
 20
0.0
 30
0.0
  9
$UCSORGFRONT
 10
0.0
 20
0.0
 30
0.0
  9
$UCSORGBACK
 10
0.0
 20
0.0
 30
0.0
  9
$PUCSBASE
  2

  9
$PUCSNAME
  2

  9
$PUCSORG
 10
0.0
 20
0.0
 30
0.0
  9
$PUCSXDIR
 10
1.0
 20
0.0
 30
0.0
  9
$PUCSYDIR
 10
0.0
 20
1.0
 30
0.0
  9
$PUCSORTHOREF
  2

  9
$PUCSORTHOVIEW
 70
     0
  9
$PUCSORGTOP
 10
0.0
 20
0.0
 30
0.0
  9
$PUCSORGBOTTOM
 10
0.0
 20
0.0
 30
0.0
  9
$PUCSORGLEFT
 10
0.0
 20
0.0
 30
0.0
  9
$PUCSORGRIGHT
 10
0.0
 20
0.0
 30
0.0
  9
$PUCSORGFRONT
 10
0.0
 20
0.0
 30
0.0
  9
$PUCSORGBACK
 10
0.0
 20
0.0
 30
0.0
  9
$USERI1
 70
     0
  9
$USERI2
 70
     0
  9
$USERI3
 70
     0
  9
$USERI4
 70
     0
  9
$USERI5
 70
     0
  9
$USERR1
 40
0.0
  9
$USERR2
 40
0.0
  9
$USERR3
 40
0.0
  9
$USERR4
 40
0.0
  9
$USERR5
 40
0.0
  9
$WORLDVIEW
 70
     1
  9
$SHADEDGE
 70
     3
  9
$SHADEDIF
 70
    70
  9
$TILEMODE
 70
     1
  9
$MAXACTVP
 70
    16
  9
$PINSBASE
 10
0.0
 20
0.0
 30
0.0
  9
$PLIMCHECK
 70
     0
  9
$PEXTMIN
 10
1.000000E+20
 20
1.000000E+20
 30
1.000000E+20
  9
$PEXTMAX
 10
-1.000000E+20
 20
-1.000000E+20
 30
-1.000000E+20
  9
$PLIMMIN
 10
0.0
 20
0.0
  9
$PLIMMAX
 10
12.0
 20
9.0
  9
$UNITMODE
 70
     0
  9
$VISRETAIN
 70
     0
  9
$PLINEGEN
 70
     1
  9
$PSLTSCALE
 70
     0
  9
$TREEDEPTH
 70
  3020
  9
$CMLSTYLE
  2
Standard
  9
$CMLJUST
 70
     0
  9
$CMLSCALE
 40
1.0
  9
$PROXYGRAPHICS
 70
     0
  9
$MEASUREMENT
 70
     1
  9
$CELWEIGHT
370
     0
  9
$ENDCAPS
280
     0
  9
$JOINSTYLE
280
     0
  9
$LWDISPLAY
290
     0
  9
$INSUNITS
 70
     0
  9
$HYPERLINKBASE
  1

  9
$STYLESHEET
  1

  9
$XEDIT
290
     1
  9
$CEPSNTYPE
380
     0
  9
$PSTYLEMODE
290
     1
  9
$FINGERPRINTGUID
  2

  9
$VERSIONGUID
  2

  9
$EXTNAMES
290
     1
  9
$PSVPSCALE
 40
0.0
  0
ENDSEC
  0
SECTION
  2
CLASSES
  0
CLASS
  1
LWPOLYLINE
  2
AcDbPolyline
  3
AutoCAD 2000
 90
    32768
280
     0
281
     1
  0
CLASS
  1
IMAGE
  2
AcDbRasterImage
  3
ISM
 90
    32895
280
     0
281
     1
  0
CLASS
  1
OLE2FRAME
  2
AcDbOle2Frame
  3
AutoCAD 2000
 90
    32768
280
     0
281
     1
  0
CLASS
  1
HATCH
  2
AcDbHatch
  3
AutoCAD 2000
 90
    32768
280
     0
281
     1
  0
CLASS
  1
DICTIONARYVAR
  2
AcDbDictionaryVar
  3
AutoCAD 2000
 90
    32768
280
     0
281
     0
  0
CLASS
  1
RASTERVARIABLES
  2
AcDbRasterVariables
  3
ISM
 90
    32768
280
     0
281
     0
  0
CLASS
  1
IMAGEDEF
  2
AcDbRasterImageDef
  3
ISM
 90
    32768
280
     0
281
     0
  0
CLASS
  1
IMAGEDEF_REACTOR
  2
AcDbRasterImageDefReactor
  3
ISM
 90
    32769
280
     0
281
     0
  0
CLASS
  1
IDBUFFER
  2
AcDbIdBuffer
  3
AutoCAD 2000
 90
    32768
280
     0
281
     0
  0
CLASS
  1
SPATIAL_FILTER
  2
AcDbSpatialFilter
  3
AutoCAD 2000
 90
    32768
280
     0
281
     0
  0
CLASS
  1
XRECORD
  2
AcDbXrecord
  3
AutoCAD 2000
 90
    32768
280
     0
281
     0
  0
CLASS
  1
SORTENTSTABLE
  2
AcDbSortentsTable
  3
AutoCAD 2000
 90
    32768
280
     0
281
     0
  0
CLASS
  1
LAYER_INDEX
  2
AcDbLayerIndex
  3
AutoCAD 2000
 90
    32768
280
     0
281
     0
  0
CLASS
  1
SPATIAL_INDEX
  2
AcDbSpatialIndex
  3
AutoCAD 2000
 90
    32768
280
     0
281
     0
  0
CLASS
  1
OBJECT_PTR
  2
CAseDLPNTableRecord
  3
"ASE-LPNTableRecord"
 90
    32769
280
     0
281
     0
  0
CLASS
  1
LAYOUT
  2
AcDbLayout
  3
AutoCAD 2000
 90
        0
280
     0
281
     0
  0
CLASS
  1
PLOTSETTINGS
  2
AcDbPlotSettings
  3
AutoCAD 2000
 90
    32768
280
     0
281
     0
  0
CLASS
  1
ACDBDICTIONARYWDFLT
  2
AcDbDictionaryWithDefault
  3
AutoCAD 2000
 90
        0
280
     0
281
     0
  0
CLASS
  1
ACDBPLACEHOLDER
  2
AcDbPlaceHolder
  3
AutoCAD 2000
 90
        0
280
     0
281
     0
  0
CLASS
  1
VBA_PROJECT
  2
AcDbVbaProject
  3
acadvba
 90
    32768
280
     0
281
     0
  0
CLASS
  1
WIPEOUT
  2
AcDbWipeout
  3
WipeOut|AutoCAD Express Tool|expresstools@autodesk.com
 90
    32895
280
     0
281
     1
  0
CLASS
  1
WIPEOUTVARIABLES
  2
AcDbWipeoutVariables
  3
WipeOut|AutoCAD Express Tool|expresstools@autodesk.com
 90
        0
280
     0
281
     0
  0
CLASS
  1
RTEXT
  2
RText
  3
RText|AutoCAD Express Tool|expresstools@autodesk.com
 90
    32768
280
     0
281
     1
  0
CLASS
  1
ARCALIGNEDTEXT
  2
AcDbArcAlignedText
  3
ATEXT|AutoCAD Express Tool|expresstools@autodesk.com
 90
    32768
280
     0
281
     1
  0
ENDSEC
  0
SECTION
  2
TABLES
  0
TABLE
  2
VPORT
  5
7
100
AcDbSymbolTable
 70
     1
  0
VPORT
  5
15
100
AcDbSymbolTableRecord
100
AcDbViewportTableRecord
  2
*ACTIVE
 70
     0
 10
0.0
 20
0.0
 11
1.0
 21
1.0
 12
6.591288
 22
4.579184
 13
0.0
 23
0.0
 14
1.0
 24
1.0
 15
0.0
 25
0.0
 16
0.0
 26
0.0
 36
1.0
 17
0.0
 27
0.0
 37
0.0
 40
9.158369
 41
0.688564
 42
50.0
 43
0.0
 44
0.0
 50
0.0
 51
0.0
 71
     0
 72
   100
 73
     1
 74
     1
 75
     0
 76
     0
 77
     0
 78
     0
281
     0
 65
     0
110
0.0
120
0.0
130
0.0
111
1.0
121
0.0
131
0.0
112
0.0
122
1.0
132
0.0
345
0
346
0
 79
     0
146
0.0
  0
ENDTAB
  0
TABLE
  2
LTYPE
  5
4
100
AcDbSymbolTable
 70
     3
  0
LTYPE
  5
11
100
AcDbSymbolTableRecord
100
AcDbLinetypeTableRecord
  2
ByBlock
 70
    64
  3

 72
    65
 73
     0
 40
0.0
  0
LTYPE
  5
12
100
AcDbSymbolTableRecord
100
AcDbLinetypeTableRecord
  2
ByLayer
 70
    64
  3

 72
    65
 73
     0
 40
0.0
  0
LTYPE
  5
13
100
AcDbSymbolTableRecord
100
AcDbLinetypeTableRecord
  2
Continuous
 70
    64
  3
Solid line
 72
    65
 73
     0
 40
0.0
  0
ENDTAB
  0
TABLE
  2
LAYER
  5
2
100
AcDbSymbolTable
 70
     3
  0
LAYER
  5
14
100
AcDbSymbolTableRecord
100
AcDbLayerTableRecord
  2
0
 70
     0
 62
     7
  6
Continuous
290
     1
370
    -3
390
1D
  0
LAYER
  5
28
100
AcDbSymbolTableRecord
100
AcDbLayerTableRecord
  2
0
 70
     0
 62
     1
  6
Continuous
290
     1
370
    -3
390
1D
  0
LAYER
  5
29
100
AcDbSymbolTableRecord
100
AcDbLayerTableRecord
  2
LAYER_1
 70
     0
 62
   160
  6
Continuous
290
     1
370
    -3
390
1D
  0
ENDTAB
  0
TABLE
  2
STYLE
  5
3
100
AcDbSymbolTable
 70
     5
  0
STYLE
  5
17
100
AcDbSymbolTableRecord
100
AcDbTextStyleTableRecord
  2
Standard
 70
     0
 40
0.0
 41
1.0
 50
0.0
 71
     0
 42
0.0
  3
txt
  4

  0
STYLE
  5
24
100
AcDbSymbolTableRecord
100
AcDbTextStyleTableRecord
  2
STD
 70
     0
 40
0.0
 41
1.0
 50
0.0
 71
     0
 42
0.0
  3
txt
  4

  0
STYLE
  5
25
100
AcDbSymbolTableRecord
100
AcDbTextStyleTableRecord
  2
TATESTD
 70
     4
 40
0.0
 41
1.0
 50
0.0
 71
     0
 42
0.0
  3
txt
  4

  0
STYLE
  5
26
100
AcDbSymbolTableRecord
100
AcDbTextStyleTableRecord
  2
KANJISTD
 70
     0
 40
0.0
 41
1.0
 50
0.0
 71
     0
 42
0.0
  3
txt
  4
extfont
  0
STYLE
  5
27
100
AcDbSymbolTableRecord
100
AcDbTextStyleTableRecord
  2
KANJITATE
 70
     4
 40
0.0
 41
1.0
 50
0.0
 71
     0
 42
0.0
  3
txt
  4
extfont
  0
ENDTAB
  0
TABLE
  2
VIEW
  5
5
100
AcDbSymbolTable
 70
     0
  0
ENDTAB
  0
TABLE
  2
UCS
  5
6
100
AcDbSymbolTable
 70
     0
  0
ENDTAB
  0
TABLE
  2
APPID
  5
8
100
AcDbSymbolTable
 70
     1
  0
APPID
  5
16
100
AcDbSymbolTableRecord
100
AcDbRegAppTableRecord
  2
ACAD
 70
     0
  0
ENDTAB
  0
TABLE
  2
DIMSTYLE
  5
9
100
AcDbSymbolTable
 70
     1
100
AcDbDimStyleTable
 71
     0
  0
DIMSTYLE
105
18
100
AcDbSymbolTableRecord
100
AcDbDimStyleTableRecord
  2
Standard
 70
     0
  3

  4

 40
1.0
 41
0.18
 42
0.0625
 43
0.38
 44
0.18
 45
0.0
 46
0.0
 47
0.0
 48
0.0
 71
     0
 72
     0
 73
     1
 74
     1
 75
     0
 76
     0
 77
     0
 78
     0
 79
     0
140
0.18
141
0.09
142
0.0
143
25.4
144
1.0
145
0.0
146
1.0
147
0.09
148
0.0
170
     0
171
     2
172
     0
173
     0
174
     0
175
     0
176
     0
177
     0
178
     0
179
     0
271
     4
272
     4
273
     2
274
     2
275
     0
276
     0
277
     2
278
    46
279
     0
280
     0
281
     0
282
     0
283
     1
284
     0
285
     0
286
     0
288
     0
340
17
341
0
342
0
343
0
344
0
371
    -2
372
    -2
  0
ENDTAB
  0
TABLE
  2
BLOCK_RECORD
  5
1
100
AcDbSymbolTable
 70
     0
  0
BLOCK_RECORD
  5
A
100
AcDbSymbolTableRecord
100
AcDbBlockTableRecord
  2
*MODEL_SPACE
340
20
  0
BLOCK_RECORD
  5
B
100
AcDbSymbolTableRecord
100
AcDbBlockTableRecord
  2
*PAPER_SPACE
340
21
  0
ENDTAB
  0
ENDSEC
  0
SECTION
  2
BLOCKS
  0
BLOCK
  5
D
100
AcDbEntity
  8
0
100
AcDbBlockBegin
  2
*MODEL_SPACE
 70
     0
 10
0.0
 20
0.0
 30
0.0
  3
*MODEL_SPACE
  1

  0
ENDBLK
  5
E
100
AcDbEntity
  8
0
100
AcDbBlockEnd
  0
BLOCK
  5
F
100
AcDbEntity
 67
     1
  8
0
100
AcDbBlockBegin
  2
*PAPER_SPACE
 70
     0
 10
0.0
 20
0.0
 30
0.0
  3
*PAPER_SPACE
  1

  0
ENDBLK
  5
10
100
AcDbEntity
 67
     1
  8
0
100
AcDbBlockEnd
  0
ENDSEC
  0
SECTION
  2
ENTITIES
  0
LINE
  5
33D
100
AcDbEntity
  8
LAYER_1
 62
     7
100
AcDbLine
 10
247.347865
 20
195.317277
 30
0.0
 11
347.652165
 21
195.317277
 31
0.0
  0
LINE
  5
33C
100
AcDbEntity
  8
LAYER_1
 62
     7
100
AcDbLine
 10
347.652165
 20
195.317277
 30
0.0
 11
347.652165
 21
95.012805
 31
0.0
  0
LINE
  5
33B
100
AcDbEntity
  8
LAYER_1
 62
     7
100
AcDbLine
 10
347.652165
 20
95.012805
 30
0.0
 11
247.347865
 21
95.012805
 31
0.0
  0
LINE
  5
33A
100
AcDbEntity
  8
LAYER_1
 62
     7
100
AcDbLine
 10
247.347865
 20
95.012805
 30
0.0
 11
247.347865
 21
195.317277
 31
0.0
  0
LINE
  5
339
100
AcDbEntity
  8
LAYER_1
 62
     7
100
AcDbLine
 10
247.347865
 20
94.987139
 30
0.0
 11
347.652165
 21
94.987139
 31
0.0
  0
LINE
  5
338
100
AcDbEntity
  8
LAYER_1
 62
     7
100
AcDbLine
 10
347.652165
 20
94.987139
 30
0.0
 11
347.652165
 21
-5.31716
 31
0.0
  0
LINE
  5
337
100
AcDbEntity
  8
LAYER_1
 62
     7
100
AcDbLine
 10
347.652165
 20
-5.31716
 30
0.0
 11
247.347865
 21
-5.31716
 31
0.0
  0
LINE
  5
336
100
AcDbEntity
  8
LAYER_1
 62
     7
100
AcDbLine
 10
247.347865
 20
-5.31716
 30
0.0
 11
247.347865
 21
94.987139
 31
0.0
  0
LINE
  5
335
100
AcDbEntity
  8
LAYER_1
 62
     7
100
AcDbLine
 10
337.064697
 20
143.550239
 30
0.0
 11
337.185965
 21
143.534219
 31
0.0
  0
LINE
  5
334
100
AcDbEntity
  8
LAYER_1
 62
     7
100
AcDbLine
 10
337.185965
 20
143.534219
 30
0.0
 11
337.307232
 21
143.514582
 31
0.0
  0
LINE
  5
333
100
AcDbEntity
  8
LAYER_1
 62
     7
100
AcDbLine
 10
337.307232
 20
143.514582
 30
0.0
 11
337.428155
 21
143.492361
 31
0.0
  0
LINE
  5
332
100
AcDbEntity
  8
LAYER_1
 62
     7
100
AcDbLine
 10
337.428155
 20
143.492361
 30
0.0
 11
337.549078
 21
143.467212
 31
0.0
  0
LINE
  5
331
100
AcDbEntity
  8
LAYER_1
 62
     7
100
AcDbLine
 10
337.549078
 20
143.467212
 30
0.0
 11
337.790579
 21
143.41054
 31
0.0
  0
LINE
  5
330
100
AcDbEntity
  8
LAYER_1
 62
     7
100
AcDbLine
 10
337.790579
 20
143.41054
 30
0.0
 11
338.031391
 21
143.345945
 31
0.0
  0
LINE
  5
32F
100
AcDbEntity
  8
LAYER_1
 62
     7
100
AcDbLine
 10
338.031391
 20
143.345945
 30
0.0
 11
338.512671
 21
143.196944
 31
0.0
  0
LINE
  5
32E
100
AcDbEntity
  8
LAYER_1
 62
     7
100
AcDbLine
 10
338.512671
 20
143.196944
 30
0.0
 11
338.991884
 21
143.024
 31
0.0
  0
LINE
  5
32D
100
AcDbEntity
  8
LAYER_1
 62
     7
100
AcDbLine
 10
338.991884
 20
143.024
 30
0.0
 11
339.469718
 21
142.829869
 31
0.0
  0
LINE
  5
32C
100
AcDbEntity
  8
LAYER_1
 62
     7
100
AcDbLine
 10
339.469718
 20
142.829869
 30
0.0
 11
339.945486
 21
142.616101
 31
0.0
  0
LINE
  5
32B
100
AcDbEntity
  8
LAYER_1
 62
     7
100
AcDbLine
 10
339.945486
 20
142.616101
 30
0.0
 11
340.419187
 21
142.383902
 31
0.0
  0
LINE
  5
32A
100
AcDbEntity
  8
LAYER_1
 62
     7
100
AcDbLine
 10
340.419187
 20
142.383902
 30
0.0
 11
340.89082
 21
142.134304
 31
0.0
  0
LINE
  5
329
100
AcDbEntity
  8
LAYER_1
 62
     7
100
AcDbLine
 10
340.89082
 20
142.134304
 30
0.0
 11
341.360387
 21
141.867826
 31
0.0
  0
LINE
  5
328
100
AcDbEntity
  8
LAYER_1
 62
     7
100
AcDbLine
 10
341.360387
 20
141.867826
 30
0.0
 11
341.827197
 21
141.585156
 31
0.0
  0
LINE
  5
327
100
AcDbEntity
  8
LAYER_1
 62
     7
100
AcDbLine
 10
341.827197
 20
141.585156
 30
0.0
 11
341.462706
 21
138.457354
 31
0.0
  0
LINE
  5
326
100
AcDbEntity
  8
LAYER_1
 62
     7
100
AcDbLine
 10
341.462706
 20
138.457354
 30
0.0
 11
340.94353
 21
138.289578
 31
0.0
  0
LINE
  5
325
100
AcDbEntity
  8
LAYER_1
 62
     7
100
AcDbLine
 10
340.94353
 20
138.289578
 30
0.0
 11
340.425388
 21
138.138166
 31
0.0
  0
LINE
  5
324
100
AcDbEntity
  8
LAYER_1
 62
     7
100
AcDbLine
 10
340.425388
 20
138.138166
 30
0.0
 11
339.908968
 21
138.003807
 31
0.0
  0
LINE
  5
323
100
AcDbEntity
  8
LAYER_1
 62
     7
100
AcDbLine
 10
339.908968
 20
138.003807
 30
0.0
 11
339.394271
 21
137.886674
 31
0.0
  0
LINE
  5
322
100
AcDbEntity
  8
LAYER_1
 62
     7
100
AcDbLine
 10
339.394271
 20
137.886674
 30
0.0
 11
338.881985
 21
137.788144
 31
0.0
  0
LINE
  5
321
100
AcDbEntity
  8
LAYER_1
 62
     7
100
AcDbLine
 10
338.881985
 20
137.788144
 30
0.0
 11
338.372456
 21
137.708907
 31
0.0
  0
LINE
  5
320
100
AcDbEntity
  8
LAYER_1
 62
     7
100
AcDbLine
 10
338.372456
 20
137.708907
 30
0.0
 11
337.866371
 21
137.651029
 31
0.0
  0
LINE
  5
31F
100
AcDbEntity
  8
LAYER_1
 62
     7
100
AcDbLine
 10
337.866371
 20
137.651029
 30
0.0
 11
337.364076
 21
137.616234
 31
0.0
  0
LINE
  5
31E
100
AcDbEntity
  8
LAYER_1
 62
     7
100
AcDbLine
 10
337.364076
 20
137.616234
 30
0.0
 11
337.114651
 21
137.609172
 31
0.0
  0
LINE
  5
31D
100
AcDbEntity
  8
LAYER_1
 62
     7
100
AcDbLine
 10
337.114651
 20
137.609172
 30
0.0
 11
336.866604
 21
137.609344
 31
0.0
  0
LINE
  5
31C
100
AcDbEntity
  8
LAYER_1
 62
     7
100
AcDbLine
 10
336.866604
 20
137.609344
 30
0.0
 11
336.742925
 21
137.612961
 31
0.0
  0
LINE
  5
31B
100
AcDbEntity
  8
LAYER_1
 62
     7
100
AcDbLine
 10
336.742925
 20
137.612961
 30
0.0
 11
336.62028
 21
137.618818
 31
0.0
  0
LINE
  5
31A
100
AcDbEntity
  8
LAYER_1
 62
     7
100
AcDbLine
 10
336.62028
 20
137.618818
 30
0.0
 11
336.497635
 21
137.627603
 31
0.0
  0
LINE
  5
319
100
AcDbEntity
  8
LAYER_1
 62
     7
100
AcDbLine
 10
336.497635
 20
137.627603
 30
0.0
 11
336.376023
 21
137.640005
 31
0.0
  0
LINE
  5
318
100
AcDbEntity
  8
LAYER_1
 62
     7
100
AcDbLine
 10
336.376023
 20
137.640005
 30
0.0
 11
335.528529
 21
134.128764
 31
0.0
  0
LINE
  5
317
100
AcDbEntity
  8
LAYER_1
 62
     7
100
AcDbLine
 10
335.528529
 20
134.128764
 30
0.0
 11
335.642562
 21
134.084322
 31
0.0
  0
LINE
  5
316
100
AcDbEntity
  8
LAYER_1
 62
     7
100
AcDbLine
 10
335.642562
 20
134.084322
 30
0.0
 11
335.755561
 21
134.036263
 31
0.0
  0
LINE
  5
315
100
AcDbEntity
  8
LAYER_1
 62
     7
100
AcDbLine
 10
335.755561
 20
134.036263
 30
0.0
 11
335.867527
 21
133.98562
 31
0.0
  0
LINE
  5
314
100
AcDbEntity
  8
LAYER_1
 62
     7
100
AcDbLine
 10
335.867527
 20
133.98562
 30
0.0
 11
335.979148
 21
133.932221
 31
0.0
  0
LINE
  5
313
100
AcDbEntity
  8
LAYER_1
 62
     7
100
AcDbLine
 10
335.979148
 20
133.932221
 30
0.0
 11
336.199634
 21
133.819394
 31
0.0
  0
LINE
  5
312
100
AcDbEntity
  8
LAYER_1
 62
     7
100
AcDbLine
 10
336.199634
 20
133.819394
 30
0.0
 11
336.418397
 21
133.699333
 31
0.0
  0
LINE
  5
311
100
AcDbEntity
  8
LAYER_1
 62
     7
100
AcDbLine
 10
336.418397
 20
133.699333
 30
0.0
 11
336.849723
 21
133.439228
 31
0.0
  0
LINE
  5
310
100
AcDbEntity
  8
LAYER_1
 62
     7
100
AcDbLine
 10
336.849723
 20
133.439228
 30
0.0
 11
337.273815
 21
133.15673
 31
0.0
  0
LINE
  5
30F
100
AcDbEntity
  8
LAYER_1
 62
     7
100
AcDbLine
 10
337.273815
 20
133.15673
 30
0.0
 11
337.691016
 21
132.853734
 31
0.0
  0
LINE
  5
30E
100
AcDbEntity
  8
LAYER_1
 62
     7
100
AcDbLine
 10
337.691016
 20
132.853734
 30
0.0
 11
338.102016
 21
132.532479
 31
0.0
  0
LINE
  5
30D
100
AcDbEntity
  8
LAYER_1
 62
     7
100
AcDbLine
 10
338.102016
 20
132.532479
 30
0.0
 11
338.50647
 21
132.193654
 31
0.0
  0
LINE
  5
30C
100
AcDbEntity
  8
LAYER_1
 62
     7
100
AcDbLine
 10
338.50647
 20
132.193654
 30
0.0
 11
338.904723
 21
131.838464
 31
0.0
  0
LINE
  5
30B
100
AcDbEntity
  8
LAYER_1
 62
     7
100
AcDbLine
 10
338.904723
 20
131.838464
 30
0.0
 11
339.296775
 21
131.467255
 31
0.0
  0
LINE
  5
30A
100
AcDbEntity
  8
LAYER_1
 62
     7
100
AcDbLine
 10
339.296775
 20
131.467255
 30
0.0
 11
339.682281
 21
131.081232
 31
0.0
  0
LINE
  5
309
100
AcDbEntity
  8
LAYER_1
 62
     7
100
AcDbLine
 10
339.682281
 20
131.081232
 30
0.0
 11
338.57985
 21
128.131542
 31
0.0
  0
LINE
  5
308
100
AcDbEntity
  8
LAYER_1
 62
     7
100
AcDbLine
 10
338.57985
 20
128.131542
 30
0.0
 11
338.035525
 21
128.092957
 31
0.0
  0
LINE
  5
307
100
AcDbEntity
  8
LAYER_1
 62
     7
100
AcDbLine
 10
338.035525
 20
128.092957
 30
0.0
 11
337.496368
 21
128.069874
 31
0.0
  0
LINE
  5
306
100
AcDbEntity
  8
LAYER_1
 62
     7
100
AcDbLine
 10
337.496368
 20
128.069874
 30
0.0
 11
336.962722
 21
128.062984
 31
0.0
  0
LINE
  5
305
100
AcDbEntity
  8
LAYER_1
 62
     7
100
AcDbLine
 10
336.962722
 20
128.062984
 30
0.0
 11
336.435278
 21
128.072458
 31
0.0
  0
LINE
  5
304
100
AcDbEntity
  8
LAYER_1
 62
     7
100
AcDbLine
 10
336.435278
 20
128.072458
 30
0.0
 11
335.91438
 21
128.09933
 31
0.0
  0
LINE
  5
303
100
AcDbEntity
  8
LAYER_1
 62
     7
100
AcDbLine
 10
335.91438
 20
128.09933
 30
0.0
 11
335.400372
 21
128.144288
 31
0.0
  0
LINE
  5
302
100
AcDbEntity
  8
LAYER_1
 62
     7
100
AcDbLine
 10
335.400372
 20
128.144288
 30
0.0
 11
334.894976
 21
128.209056
 31
0.0
  0
LINE
  5
301
100
AcDbEntity
  8
LAYER_1
 62
     7
100
AcDbLine
 10
334.894976
 20
128.209056
 30
0.0
 11
334.398882
 21
128.295873
 31
0.0
  0
LINE
  5
300
100
AcDbEntity
  8
LAYER_1
 62
     7
100
AcDbLine
 10
334.398882
 20
128.295873
 30
0.0
 11
334.155314
 21
128.34841
 31
0.0
  0
LINE
  5
2FF
100
AcDbEntity
  8
LAYER_1
 62
     7
100
AcDbLine
 10
334.155314
 20
128.34841
 30
0.0
 11
333.914502
 21
128.408183
 31
0.0
  0
LINE
  5
2FE
100
AcDbEntity
  8
LAYER_1
 62
     7
100
AcDbLine
 10
333.914502
 20
128.408183
 30
0.0
 11
333.795302
 21
128.440911
 31
0.0
  0
LINE
  5
2FD
100
AcDbEntity
  8
LAYER_1
 62
     7
100
AcDbLine
 10
333.795302
 20
128.440911
 30
0.0
 11
333.677479
 21
128.476223
 31
0.0
  0
LINE
  5
2FC
100
AcDbEntity
  8
LAYER_1
 62
     7
100
AcDbLine
 10
333.677479
 20
128.476223
 30
0.0
 11
333.560691
 21
128.514119
 31
0.0
  0
LINE
  5
2FB
100
AcDbEntity
  8
LAYER_1
 62
     7
100
AcDbLine
 10
333.560691
 20
128.514119
 30
0.0
 11
333.445624
 21
128.555116
 31
0.0
  0
LINE
  5
2FA
100
AcDbEntity
  8
LAYER_1
 62
     7
100
AcDbLine
 10
333.445624
 20
128.555116
 30
0.0
 11
331.782332
 21
125.348766
 31
0.0
  0
LINE
  5
2F9
100
AcDbEntity
  8
LAYER_1
 62
     7
100
AcDbLine
 10
331.782332
 20
125.348766
 30
0.0
 11
331.88224
 21
125.278314
 31
0.0
  0
LINE
  5
2F8
100
AcDbEntity
  8
LAYER_1
 62
     7
100
AcDbLine
 10
331.88224
 20
125.278314
 30
0.0
 11
331.980425
 21
125.204761
 31
0.0
  0
LINE
  5
2F7
100
AcDbEntity
  8
LAYER_1
 62
     7
100
AcDbLine
 10
331.980425
 20
125.204761
 30
0.0
 11
332.077233
 21
125.128796
 31
0.0
  0
LINE
  5
2F6
100
AcDbEntity
  8
LAYER_1
 62
     7
100
AcDbLine
 10
332.077233
 20
125.128796
 30
0.0
 11
332.172662
 21
125.050248
 31
0.0
  0
LINE
  5
2F5
100
AcDbEntity
  8
LAYER_1
 62
     7
100
AcDbLine
 10
332.172662
 20
125.050248
 30
0.0
 11
332.360075
 21
124.887984
 31
0.0
  0
LINE
  5
2F4
100
AcDbEntity
  8
LAYER_1
 62
     7
100
AcDbLine
 10
332.360075
 20
124.887984
 30
0.0
 11
332.543698
 21
124.71883
 31
0.0
  0
LINE
  5
2F3
100
AcDbEntity
  8
LAYER_1
 62
     7
100
AcDbLine
 10
332.543698
 20
124.71883
 30
0.0
 11
332.900266
 21
124.363296
 31
0.0
  0
LINE
  5
2F2
100
AcDbEntity
  8
LAYER_1
 62
     7
100
AcDbLine
 10
332.900266
 20
124.363296
 30
0.0
 11
333.244431
 21
123.987436
 31
0.0
  0
LINE
  5
2F1
100
AcDbEntity
  8
LAYER_1
 62
     7
100
AcDbLine
 10
333.244431
 20
123.987436
 30
0.0
 11
333.577227
 21
123.59349
 31
0.0
  0
LINE
  5
2F0
100
AcDbEntity
  8
LAYER_1
 62
     7
100
AcDbLine
 10
333.577227
 20
123.59349
 30
0.0
 11
333.898999
 21
123.183006
 31
0.0
  0
LINE
  5
2EF
100
AcDbEntity
  8
LAYER_1
 62
     7
100
AcDbLine
 10
333.898999
 20
123.183006
 30
0.0
 11
334.21078
 21
122.757365
 31
0.0
  0
LINE
  5
2EE
100
AcDbEntity
  8
LAYER_1
 62
     7
100
AcDbLine
 10
334.21078
 20
122.757365
 30
0.0
 11
334.512226
 21
122.316909
 31
0.0
  0
LINE
  5
2ED
100
AcDbEntity
  8
LAYER_1
 62
     7
100
AcDbLine
 10
334.512226
 20
122.316909
 30
0.0
 11
334.804026
 21
121.863018
 31
0.0
  0
LINE
  5
2EC
100
AcDbEntity
  8
LAYER_1
 62
     7
100
AcDbLine
 10
334.804026
 20
121.863018
 30
0.0
 11
335.086179
 21
121.395691
 31
0.0
  0
LINE
  5
2EB
100
AcDbEntity
  8
LAYER_1
 62
     7
100
AcDbLine
 10
335.086179
 20
121.395691
 30
0.0
 11
333.309543
 21
118.795505
 31
0.0
  0
LINE
  5
2EA
100
AcDbEntity
  8
LAYER_1
 62
     7
100
AcDbLine
 10
333.309543
 20
118.795505
 30
0.0
 11
332.772108
 21
118.888523
 31
0.0
  0
LINE
  5
2E9
100
AcDbEntity
  8
LAYER_1
 62
     7
100
AcDbLine
 10
332.772108
 20
118.888523
 30
0.0
 11
332.242942
 21
118.995148
 31
0.0
  0
LINE
  5
2E8
100
AcDbEntity
  8
LAYER_1
 62
     7
100
AcDbLine
 10
332.242942
 20
118.995148
 30
0.0
 11
331.723421
 21
119.116071
 31
0.0
  0
LINE
  5
2E7
100
AcDbEntity
  8
LAYER_1
 62
     7
100
AcDbLine
 10
331.723421
 20
119.116071
 30
0.0
 11
331.213203
 21
119.251291
 31
0.0
  0
LINE
  5
2E6
100
AcDbEntity
  8
LAYER_1
 62
     7
100
AcDbLine
 10
331.213203
 20
119.251291
 30
0.0
 11
330.713664
 21
119.402186
 31
0.0
  0
LINE
  5
2E5
100
AcDbEntity
  8
LAYER_1
 62
     7
100
AcDbLine
 10
330.713664
 20
119.402186
 30
0.0
 11
330.225838
 21
119.568929
 31
0.0
  0
LINE
  5
2E4
100
AcDbEntity
  8
LAYER_1
 62
     7
100
AcDbLine
 10
330.225838
 20
119.568929
 30
0.0
 11
329.75076
 21
119.752725
 31
0.0
  0
LINE
  5
2E3
100
AcDbEntity
  8
LAYER_1
 62
     7
100
AcDbLine
 10
329.75076
 20
119.752725
 30
0.0
 11
329.289806
 21
119.955641
 31
0.0
  0
LINE
  5
2E2
100
AcDbEntity
  8
LAYER_1
 62
     7
100
AcDbLine
 10
329.289806
 20
119.955641
 30
0.0
 11
329.065186
 21
120.065195
 31
0.0
  0
LINE
  5
2E1
100
AcDbEntity
  8
LAYER_1
 62
     7
100
AcDbLine
 10
329.065186
 20
120.065195
 30
0.0
 11
328.846077
 21
120.180778
 31
0.0
  0
LINE
  5
2E0
100
AcDbEntity
  8
LAYER_1
 62
     7
100
AcDbLine
 10
328.846077
 20
120.180778
 30
0.0
 11
328.738246
 21
120.241067
 31
0.0
  0
LINE
  5
2DF
100
AcDbEntity
  8
LAYER_1
 62
     7
100
AcDbLine
 10
328.738246
 20
120.241067
 30
0.0
 11
328.632482
 21
120.303423
 31
0.0
  0
LINE
  5
2DE
100
AcDbEntity
  8
LAYER_1
 62
     7
100
AcDbLine
 10
328.632482
 20
120.303423
 30
0.0
 11
328.527751
 21
120.368191
 31
0.0
  0
LINE
  5
2DD
100
AcDbEntity
  8
LAYER_1
 62
     7
100
AcDbLine
 10
328.527751
 20
120.368191
 30
0.0
 11
328.42612
 21
120.435715
 31
0.0
  0
LINE
  5
2DC
100
AcDbEntity
  8
LAYER_1
 62
     7
100
AcDbLine
 10
328.42612
 20
120.435715
 30
0.0
 11
326.043837
 21
117.720463
 31
0.0
  0
LINE
  5
2DB
100
AcDbEntity
  8
LAYER_1
 62
     7
100
AcDbLine
 10
326.043837
 20
117.720463
 30
0.0
 11
326.124108
 21
117.628134
 31
0.0
  0
LINE
  5
2DA
100
AcDbEntity
  8
LAYER_1
 62
     7
100
AcDbLine
 10
326.124108
 20
117.628134
 30
0.0
 11
326.201622
 21
117.533222
 31
0.0
  0
LINE
  5
2D9
100
AcDbEntity
  8
LAYER_1
 62
     7
100
AcDbLine
 10
326.201622
 20
117.533222
 30
0.0
 11
326.277414
 21
117.436243
 31
0.0
  0
LINE
  5
2D8
100
AcDbEntity
  8
LAYER_1
 62
     7
100
AcDbLine
 10
326.277414
 20
117.436243
 30
0.0
 11
326.351139
 21
117.337196
 31
0.0
  0
LINE
  5
2D7
100
AcDbEntity
  8
LAYER_1
 62
     7
100
AcDbLine
 10
326.351139
 20
117.337196
 30
0.0
 11
326.494455
 21
117.134625
 31
0.0
  0
LINE
  5
2D6
100
AcDbEntity
  8
LAYER_1
 62
     7
100
AcDbLine
 10
326.494455
 20
117.134625
 30
0.0
 11
326.632259
 21
116.926369
 31
0.0
  0
LINE
  5
2D5
100
AcDbEntity
  8
LAYER_1
 62
     7
100
AcDbLine
 10
326.632259
 20
116.926369
 30
0.0
 11
326.893397
 21
116.495904
 31
0.0
  0
LINE
  5
2D4
100
AcDbEntity
  8
LAYER_1
 62
     7
100
AcDbLine
 10
326.893397
 20
116.495904
 30
0.0
 11
327.13731
 21
116.04873
 31
0.0
  0
LINE
  5
2D3
100
AcDbEntity
  8
LAYER_1
 62
     7
100
AcDbLine
 10
327.13731
 20
116.04873
 30
0.0
 11
327.366064
 21
115.586743
 31
0.0
  0
LINE
  5
2D2
100
AcDbEntity
  8
LAYER_1
 62
     7
100
AcDbLine
 10
327.366064
 20
115.586743
 30
0.0
 11
327.580694
 21
115.110975
 31
0.0
  0
LINE
  5
2D1
100
AcDbEntity
  8
LAYER_1
 62
     7
100
AcDbLine
 10
327.580694
 20
115.110975
 30
0.0
 11
327.781543
 21
114.62315
 31
0.0
  0
LINE
  5
2D0
100
AcDbEntity
  8
LAYER_1
 62
     7
100
AcDbLine
 10
327.781543
 20
114.62315
 30
0.0
 11
327.968956
 21
114.123439
 31
0.0
  0
LINE
  5
2CF
100
AcDbEntity
  8
LAYER_1
 62
     7
100
AcDbLine
 10
327.968956
 20
114.123439
 30
0.0
 11
328.143278
 21
113.612703
 31
0.0
  0
LINE
  5
2CE
100
AcDbEntity
  8
LAYER_1
 62
     7
100
AcDbLine
 10
328.143278
 20
113.612703
 30
0.0
 11
328.305542
 21
113.091633
 31
0.0
  0
LINE
  5
2CD
100
AcDbEntity
  8
LAYER_1
 62
     7
100
AcDbLine
 10
328.305542
 20
113.091633
 30
0.0
 11
325.958743
 21
110.992192
 31
0.0
  0
LINE
  5
2CC
100
AcDbEntity
  8
LAYER_1
 62
     7
100
AcDbLine
 10
325.958743
 20
110.992192
 30
0.0
 11
325.458515
 21
111.210783
 31
0.0
  0
LINE
  5
2CB
100
AcDbEntity
  8
LAYER_1
 62
     7
100
AcDbLine
 10
325.458515
 20
111.210783
 30
0.0
 11
324.970345
 21
111.44126
 31
0.0
  0
LINE
  5
2CA
100
AcDbEntity
  8
LAYER_1
 62
     7
100
AcDbLine
 10
324.970345
 20
111.44126
 30
0.0
 11
324.494577
 21
111.683105
 31
0.0
  0
LINE
  5
2C9
100
AcDbEntity
  8
LAYER_1
 62
     7
100
AcDbLine
 10
324.494577
 20
111.683105
 30
0.0
 11
324.031901
 21
111.936492
 31
0.0
  0
LINE
  5
2C8
100
AcDbEntity
  8
LAYER_1
 62
     7
100
AcDbLine
 10
324.031901
 20
111.936492
 30
0.0
 11
323.583005
 21
112.202454
 31
0.0
  0
LINE
  5
2C7
100
AcDbEntity
  8
LAYER_1
 62
     7
100
AcDbLine
 10
323.583005
 20
112.202454
 30
0.0
 11
323.149268
 21
112.48099
 31
0.0
  0
LINE
  5
2C6
100
AcDbEntity
  8
LAYER_1
 62
     7
100
AcDbLine
 10
323.149268
 20
112.48099
 30
0.0
 11
322.731722
 21
112.773306
 31
0.0
  0
LINE
  5
2C5
100
AcDbEntity
  8
LAYER_1
 62
     7
100
AcDbLine
 10
322.731722
 20
112.773306
 30
0.0
 11
322.333124
 21
113.080436
 31
0.0
  0
LINE
  5
2C4
100
AcDbEntity
  8
LAYER_1
 62
     7
100
AcDbLine
 10
322.333124
 20
113.080436
 30
0.0
 11
322.141233
 21
113.240461
 31
0.0
  0
LINE
  5
2C3
100
AcDbEntity
  8
LAYER_1
 62
     7
100
AcDbLine
 10
322.141233
 20
113.240461
 30
0.0
 11
321.955887
 21
113.405309
 31
0.0
  0
LINE
  5
2C2
100
AcDbEntity
  8
LAYER_1
 62
     7
100
AcDbLine
 10
321.955887
 20
113.405309
 30
0.0
 11
321.86597
 21
113.489541
 31
0.0
  0
LINE
  5
2C1
100
AcDbEntity
  8
LAYER_1
 62
     7
100
AcDbLine
 10
321.86597
 20
113.489541
 30
0.0
 11
321.777775
 21
113.575669
 31
0.0
  0
LINE
  5
2C0
100
AcDbEntity
  8
LAYER_1
 62
     7
100
AcDbLine
 10
321.777775
 20
113.575669
 30
0.0
 11
321.691992
 21
113.663346
 31
0.0
  0
LINE
  5
2BF
100
AcDbEntity
  8
LAYER_1
 62
     7
100
AcDbLine
 10
321.691992
 20
113.663346
 30
0.0
 11
321.60931
 21
113.753436
 31
0.0
  0
LINE
  5
2BE
100
AcDbEntity
  8
LAYER_1
 62
     7
100
AcDbLine
 10
321.60931
 20
113.753436
 30
0.0
 11
318.646528
 21
111.687067
 31
0.0
  0
LINE
  5
2BD
100
AcDbEntity
  8
LAYER_1
 62
     7
100
AcDbLine
 10
318.646528
 20
111.687067
 30
0.0
 11
318.702338
 21
111.578375
 31
0.0
  0
LINE
  5
2BC
100
AcDbEntity
  8
LAYER_1
 62
     7
100
AcDbLine
 10
318.702338
 20
111.578375
 30
0.0
 11
318.754704
 21
111.467442
 31
0.0
  0
LINE
  5
2BB
100
AcDbEntity
  8
LAYER_1
 62
     7
100
AcDbLine
 10
318.754704
 20
111.467442
 30
0.0
 11
318.805002
 21
111.355132
 31
0.0
  0
LINE
  5
2BA
100
AcDbEntity
  8
LAYER_1
 62
     7
100
AcDbLine
 10
318.805002
 20
111.355132
 30
0.0
 11
318.853234
 21
111.241272
 31
0.0
  0
LINE
  5
2B9
100
AcDbEntity
  8
LAYER_1
 62
     7
100
AcDbLine
 10
318.853234
 20
111.241272
 30
0.0
 11
318.94384
 21
111.010451
 31
0.0
  0
LINE
  5
2B8
100
AcDbEntity
  8
LAYER_1
 62
     7
100
AcDbLine
 10
318.94384
 20
111.010451
 30
0.0
 11
319.027555
 21
110.775495
 31
0.0
  0
LINE
  5
2B7
100
AcDbEntity
  8
LAYER_1
 62
     7
100
AcDbLine
 10
319.027555
 20
110.775495
 30
0.0
 11
319.178106
 21
110.295076
 31
0.0
  0
LINE
  5
2B6
100
AcDbEntity
  8
LAYER_1
 62
     7
100
AcDbLine
 10
319.178106
 20
110.295076
 30
0.0
 11
319.307986
 21
109.802256
 31
0.0
  0
LINE
  5
2B5
100
AcDbEntity
  8
LAYER_1
 62
     7
100
AcDbLine
 10
319.307986
 20
109.802256
 30
0.0
 11
319.419607
 21
109.298583
 31
0.0
  0
LINE
  5
2B4
100
AcDbEntity
  8
LAYER_1
 62
     7
100
AcDbLine
 10
319.419607
 20
109.298583
 30
0.0
 11
319.514003
 21
108.785608
 31
0.0
  0
LINE
  5
2B3
100
AcDbEntity
  8
LAYER_1
 62
     7
100
AcDbLine
 10
319.514003
 20
108.785608
 30
0.0
 11
319.592206
 21
108.263848
 31
0.0
  0
LINE
  5
2B2
100
AcDbEntity
  8
LAYER_1
 62
     7
100
AcDbLine
 10
319.592206
 20
108.263848
 30
0.0
 11
319.654563
 21
107.73382
 31
0.0
  0
LINE
  5
2B1
100
AcDbEntity
  8
LAYER_1
 62
     7
100
AcDbLine
 10
319.654563
 20
107.73382
 30
0.0
 11
319.702105
 21
107.196213
 31
0.0
  0
LINE
  5
2B0
100
AcDbEntity
  8
LAYER_1
 62
     7
100
AcDbLine
 10
319.702105
 20
107.196213
 30
0.0
 11
319.734833
 21
106.651716
 31
0.0
  0
LINE
  5
2AF
100
AcDbEntity
  8
LAYER_1
 62
     7
100
AcDbLine
 10
319.734833
 20
106.651716
 30
0.0
 11
316.953263
 21
105.174803
 31
0.0
  0
LINE
  5
2AE
100
AcDbEntity
  8
LAYER_1
 62
     7
100
AcDbLine
 10
316.953263
 20
105.174803
 30
0.0
 11
316.520215
 21
105.506738
 31
0.0
  0
LINE
  5
2AD
100
AcDbEntity
  8
LAYER_1
 62
     7
100
AcDbLine
 10
316.520215
 20
105.506738
 30
0.0
 11
316.101291
 21
105.847114
 31
0.0
  0
LINE
  5
2AC
100
AcDbEntity
  8
LAYER_1
 62
     7
100
AcDbLine
 10
316.101291
 20
105.847114
 30
0.0
 11
315.697526
 21
106.195757
 31
0.0
  0
LINE
  5
2AB
100
AcDbEntity
  8
LAYER_1
 62
     7
100
AcDbLine
 10
315.697526
 20
106.195757
 30
0.0
 11
315.308919
 21
106.552669
 31
0.0
  0
LINE
  5
2AA
100
AcDbEntity
  8
LAYER_1
 62
     7
100
AcDbLine
 10
315.308919
 20
106.552669
 30
0.0
 11
314.936849
 21
106.918022
 31
0.0
  0
LINE
  5
2A9
100
AcDbEntity
  8
LAYER_1
 62
     7
100
AcDbLine
 10
314.936849
 20
106.918022
 30
0.0
 11
314.582004
 21
107.292504
 31
0.0
  0
LINE
  5
2A8
100
AcDbEntity
  8
LAYER_1
 62
     7
100
AcDbLine
 10
314.582004
 20
107.292504
 30
0.0
 11
314.246452
 21
107.676287
 31
0.0
  0
LINE
  5
2A7
100
AcDbEntity
  8
LAYER_1
 62
     7
100
AcDbLine
 10
314.246452
 20
107.676287
 30
0.0
 11
313.932948
 21
108.070234
 31
0.0
  0
LINE
  5
2A6
100
AcDbEntity
  8
LAYER_1
 62
     7
100
AcDbLine
 10
313.932948
 20
108.070234
 30
0.0
 11
313.785154
 21
108.271255
 31
0.0
  0
LINE
  5
2A5
100
AcDbEntity
  8
LAYER_1
 62
     7
100
AcDbLine
 10
313.785154
 20
108.271255
 30
0.0
 11
313.644249
 21
108.475549
 31
0.0
  0
LINE
  5
2A4
100
AcDbEntity
  8
LAYER_1
 62
     7
100
AcDbLine
 10
313.644249
 20
108.475549
 30
0.0
 11
313.57707
 21
108.579074
 31
0.0
  0
LINE
  5
2A3
100
AcDbEntity
  8
LAYER_1
 62
     7
100
AcDbLine
 10
313.57707
 20
108.579074
 30
0.0
 11
313.512302
 21
108.683461
 31
0.0
  0
LINE
  5
2A2
100
AcDbEntity
  8
LAYER_1
 62
     7
100
AcDbLine
 10
313.512302
 20
108.683461
 30
0.0
 11
313.449946
 21
108.789398
 31
0.0
  0
LINE
  5
2A1
100
AcDbEntity
  8
LAYER_1
 62
     7
100
AcDbLine
 10
313.449946
 20
108.789398
 30
0.0
 11
313.391379
 21
108.89654
 31
0.0
  0
LINE
  5
2A0
100
AcDbEntity
  8
LAYER_1
 62
     7
100
AcDbLine
 10
313.391379
 20
108.89654
 30
0.0
 11
310.019664
 21
107.599289
 31
0.0
  0
LINE
  5
29F
100
AcDbEntity
  8
LAYER_1
 62
     7
100
AcDbLine
 10
310.019664
 20
107.599289
 30
0.0
 11
310.047914
 21
107.480433
 31
0.0
  0
LINE
  5
29E
100
AcDbEntity
  8
LAYER_1
 62
     7
100
AcDbLine
 10
310.047914
 20
107.480433
 30
0.0
 11
310.073063
 21
107.3602
 31
0.0
  0
LINE
  5
29D
100
AcDbEntity
  8
LAYER_1
 62
     7
100
AcDbLine
 10
310.073063
 20
107.3602
 30
0.0
 11
310.094767
 21
107.239105
 31
0.0
  0
LINE
  5
29C
100
AcDbEntity
  8
LAYER_1
 62
     7
100
AcDbLine
 10
310.094767
 20
107.239105
 30
0.0
 11
310.114404
 21
107.117148
 31
0.0
  0
LINE
  5
29B
100
AcDbEntity
  8
LAYER_1
 62
     7
100
AcDbLine
 10
310.114404
 20
107.117148
 30
0.0
 11
310.146788
 21
106.871168
 31
0.0
  0
LINE
  5
29A
100
AcDbEntity
  8
LAYER_1
 62
     7
100
AcDbLine
 10
310.146788
 20
106.871168
 30
0.0
 11
310.171937
 21
106.622949
 31
0.0
  0
LINE
  5
299
100
AcDbEntity
  8
LAYER_1
 62
     7
100
AcDbLine
 10
310.171937
 20
106.622949
 30
0.0
 11
310.203288
 21
106.12031
 31
0.0
  0
LINE
  5
298
100
AcDbEntity
  8
LAYER_1
 62
     7
100
AcDbLine
 10
310.203288
 20
106.12031
 30
0.0
 11
310.211556
 21
105.61078
 31
0.0
  0
LINE
  5
297
100
AcDbEntity
  8
LAYER_1
 62
     7
100
AcDbLine
 10
310.211556
 20
105.61078
 30
0.0
 11
310.199498
 21
105.095222
 31
0.0
  0
LINE
  5
296
100
AcDbEntity
  8
LAYER_1
 62
     7
100
AcDbLine
 10
310.199498
 20
105.095222
 30
0.0
 11
310.168148
 21
104.574668
 31
0.0
  0
LINE
  5
295
100
AcDbEntity
  8
LAYER_1
 62
     7
100
AcDbLine
 10
310.168148
 20
104.574668
 30
0.0
 11
310.119227
 21
104.049463
 31
0.0
  0
LINE
  5
294
100
AcDbEntity
  8
LAYER_1
 62
     7
100
AcDbLine
 10
310.119227
 20
104.049463
 30
0.0
 11
310.052737
 21
103.519779
 31
0.0
  0
LINE
  5
293
100
AcDbEntity
  8
LAYER_1
 62
     7
100
AcDbLine
 10
310.052737
 20
103.519779
 30
0.0
 11
309.970399
 21
102.986479
 31
0.0
  0
LINE
  5
292
100
AcDbEntity
  8
LAYER_1
 62
     7
100
AcDbLine
 10
309.970399
 20
102.986479
 30
0.0
 11
309.871525
 21
102.449905
 31
0.0
  0
LINE
  5
291
100
AcDbEntity
  8
LAYER_1
 62
     7
100
AcDbLine
 10
309.871525
 20
102.449905
 30
0.0
 11
306.817448
 21
101.681304
 31
0.0
  0
LINE
  5
290
100
AcDbEntity
  8
LAYER_1
 62
     7
100
AcDbLine
 10
306.817448
 20
101.681304
 30
0.0
 11
306.476728
 21
102.107463
 31
0.0
  0
LINE
  5
28F
100
AcDbEntity
  8
LAYER_1
 62
     7
100
AcDbLine
 10
306.476728
 20
102.107463
 30
0.0
 11
306.151511
 21
102.538272
 31
0.0
  0
LINE
  5
28E
100
AcDbEntity
  8
LAYER_1
 62
     7
100
AcDbLine
 10
306.151511
 20
102.538272
 30
0.0
 11
305.842486
 21
102.973215
 31
0.0
  0
LINE
  5
28D
100
AcDbEntity
  8
LAYER_1
 62
     7
100
AcDbLine
 10
305.842486
 20
102.973215
 30
0.0
 11
305.550686
 21
103.412981
 31
0.0
  0
LINE
  5
28C
100
AcDbEntity
  8
LAYER_1
 62
     7
100
AcDbLine
 10
305.550686
 20
103.412981
 30
0.0
 11
305.276801
 21
103.856882
 31
0.0
  0
LINE
  5
28B
100
AcDbEntity
  8
LAYER_1
 62
     7
100
AcDbLine
 10
305.276801
 20
103.856882
 30
0.0
 11
305.022209
 21
104.305089
 31
0.0
  0
LINE
  5
28A
100
AcDbEntity
  8
LAYER_1
 62
     7
100
AcDbLine
 10
305.022209
 20
104.305089
 30
0.0
 11
304.788287
 21
104.757947
 31
0.0
  0
LINE
  5
289
100
AcDbEntity
  8
LAYER_1
 62
     7
100
AcDbLine
 10
304.788287
 20
104.757947
 30
0.0
 11
304.577791
 21
105.215455
 31
0.0
  0
LINE
  5
288
100
AcDbEntity
  8
LAYER_1
 62
     7
100
AcDbLine
 10
304.577791
 20
105.215455
 30
0.0
 11
304.482362
 21
105.446105
 31
0.0
  0
LINE
  5
287
100
AcDbEntity
  8
LAYER_1
 62
     7
100
AcDbLine
 10
304.482362
 20
105.446105
 30
0.0
 11
304.394857
 21
105.678132
 31
0.0
  0
LINE
  5
286
100
AcDbEntity
  8
LAYER_1
 62
     7
100
AcDbLine
 10
304.394857
 20
105.678132
 30
0.0
 11
304.354549
 21
105.794748
 31
0.0
  0
LINE
  5
285
100
AcDbEntity
  8
LAYER_1
 62
     7
100
AcDbLine
 10
304.354549
 20
105.794748
 30
0.0
 11
304.316309
 21
105.911882
 31
0.0
  0
LINE
  5
284
100
AcDbEntity
  8
LAYER_1
 62
     7
100
AcDbLine
 10
304.316309
 20
105.911882
 30
0.0
 11
304.281169
 21
106.029359
 31
0.0
  0
LINE
  5
283
100
AcDbEntity
  8
LAYER_1
 62
     7
100
AcDbLine
 10
304.281169
 20
106.029359
 30
0.0
 11
304.249818
 21
106.147526
 31
0.0
  0
LINE
  5
282
100
AcDbEntity
  8
LAYER_1
 62
     7
100
AcDbLine
 10
304.249818
 20
106.147526
 30
0.0
 11
300.665885
 21
105.69484
 31
0.0
  0
LINE
  5
281
100
AcDbEntity
  8
LAYER_1
 62
     7
100
AcDbLine
 10
300.665885
 20
105.69484
 30
0.0
 11
300.664852
 21
105.57254
 31
0.0
  0
LINE
  5
280
100
AcDbEntity
  8
LAYER_1
 62
     7
100
AcDbLine
 10
300.664852
 20
105.57254
 30
0.0
 11
300.660029
 21
105.449894
 31
0.0
  0
LINE
  5
27F
100
AcDbEntity
  8
LAYER_1
 62
     7
100
AcDbLine
 10
300.660029
 20
105.449894
 30
0.0
 11
300.65245
 21
105.327249
 31
0.0
  0
LINE
  5
27E
100
AcDbEntity
  8
LAYER_1
 62
     7
100
AcDbLine
 10
300.65245
 20
105.327249
 30
0.0
 11
300.64177
 21
105.203914
 31
0.0
  0
LINE
  5
27D
100
AcDbEntity
  8
LAYER_1
 62
     7
100
AcDbLine
 10
300.64177
 20
105.203914
 30
0.0
 11
300.614898
 21
104.957418
 31
0.0
  0
LINE
  5
27C
100
AcDbEntity
  8
LAYER_1
 62
     7
100
AcDbLine
 10
300.614898
 20
104.957418
 30
0.0
 11
300.580103
 21
104.710577
 31
0.0
  0
LINE
  5
27B
100
AcDbEntity
  8
LAYER_1
 62
     7
100
AcDbLine
 10
300.580103
 20
104.710577
 30
0.0
 11
300.489841
 21
104.215
 31
0.0
  0
LINE
  5
27A
100
AcDbEntity
  8
LAYER_1
 62
     7
100
AcDbLine
 10
300.489841
 20
104.215
 30
0.0
 11
300.376153
 21
103.718217
 31
0.0
  0
LINE
  5
279
100
AcDbEntity
  8
LAYER_1
 62
     7
100
AcDbLine
 10
300.376153
 20
103.718217
 30
0.0
 11
300.240761
 21
103.220573
 31
0.0
  0
LINE
  5
278
100
AcDbEntity
  8
LAYER_1
 62
     7
100
AcDbLine
 10
300.240761
 20
103.220573
 30
0.0
 11
300.086076
 21
102.722584
 31
0.0
  0
LINE
  5
277
100
AcDbEntity
  8
LAYER_1
 62
     7
100
AcDbLine
 10
300.086076
 20
102.722584
 30
0.0
 11
299.912443
 21
102.224079
 31
0.0
  0
LINE
  5
276
100
AcDbEntity
  8
LAYER_1
 62
     7
100
AcDbLine
 10
299.912443
 20
102.224079
 30
0.0
 11
299.721585
 21
101.725746
 31
0.0
  0
LINE
  5
275
100
AcDbEntity
  8
LAYER_1
 62
     7
100
AcDbLine
 10
299.721585
 20
101.725746
 30
0.0
 11
299.513845
 21
101.22793
 31
0.0
  0
LINE
  5
274
100
AcDbEntity
  8
LAYER_1
 62
     7
100
AcDbLine
 10
299.513845
 20
101.22793
 30
0.0
 11
299.28957
 21
100.730458
 31
0.0
  0
LINE
  5
273
100
AcDbEntity
  8
LAYER_1
 62
     7
100
AcDbLine
 10
299.28957
 20
100.730458
 30
0.0
 11
296.140236
 21
100.715127
 31
0.0
  0
LINE
  5
272
100
AcDbEntity
  8
LAYER_1
 62
     7
100
AcDbLine
 10
296.140236
 20
100.715127
 30
0.0
 11
295.911309
 21
101.21036
 31
0.0
  0
LINE
  5
271
100
AcDbEntity
  8
LAYER_1
 62
     7
100
AcDbLine
 10
295.911309
 20
101.21036
 30
0.0
 11
295.698574
 21
101.706453
 31
0.0
  0
LINE
  5
270
100
AcDbEntity
  8
LAYER_1
 62
     7
100
AcDbLine
 10
295.698574
 20
101.706453
 30
0.0
 11
295.502721
 21
102.202892
 31
0.0
  0
LINE
  5
26F
100
AcDbEntity
  8
LAYER_1
 62
     7
100
AcDbLine
 10
295.502721
 20
102.202892
 30
0.0
 11
295.324437
 21
102.699502
 31
0.0
  0
LINE
  5
26E
100
AcDbEntity
  8
LAYER_1
 62
     7
100
AcDbLine
 10
295.324437
 20
102.699502
 30
0.0
 11
295.165101
 21
103.19594
 31
0.0
  0
LINE
  5
26D
100
AcDbEntity
  8
LAYER_1
 62
     7
100
AcDbLine
 10
295.165101
 20
103.19594
 30
0.0
 11
295.025058
 21
103.692206
 31
0.0
  0
LINE
  5
26C
100
AcDbEntity
  8
LAYER_1
 62
     7
100
AcDbLine
 10
295.025058
 20
103.692206
 30
0.0
 11
294.906203
 21
104.188128
 31
0.0
  0
LINE
  5
26B
100
AcDbEntity
  8
LAYER_1
 62
     7
100
AcDbLine
 10
294.906203
 20
104.188128
 30
0.0
 11
294.811462
 21
104.682499
 31
0.0
  0
LINE
  5
26A
100
AcDbEntity
  8
LAYER_1
 62
     7
100
AcDbLine
 10
294.811462
 20
104.682499
 30
0.0
 11
294.774083
 21
104.929168
 31
0.0
  0
LINE
  5
269
100
AcDbEntity
  8
LAYER_1
 62
     7
100
AcDbLine
 10
294.774083
 20
104.929168
 30
0.0
 11
294.744628
 21
105.175492
 31
0.0
  0
LINE
  5
268
100
AcDbEntity
  8
LAYER_1
 62
     7
100
AcDbLine
 10
294.744628
 20
105.175492
 30
0.0
 11
294.732914
 21
105.298482
 31
0.0
  0
LINE
  5
267
100
AcDbEntity
  8
LAYER_1
 62
     7
100
AcDbLine
 10
294.732914
 20
105.298482
 30
0.0
 11
294.724129
 21
105.421128
 31
0.0
  0
LINE
  5
266
100
AcDbEntity
  8
LAYER_1
 62
     7
100
AcDbLine
 10
294.724129
 20
105.421128
 30
0.0
 11
294.718273
 21
105.543773
 31
0.0
  0
LINE
  5
265
100
AcDbEntity
  8
LAYER_1
 62
     7
100
AcDbLine
 10
294.718273
 20
105.543773
 30
0.0
 11
294.716033
 21
105.665902
 31
0.0
  0
LINE
  5
264
100
AcDbEntity
  8
LAYER_1
 62
     7
100
AcDbLine
 10
294.716033
 20
105.665902
 30
0.0
 11
291.127966
 21
106.083964
 31
0.0
  0
LINE
  5
263
100
AcDbEntity
  8
LAYER_1
 62
     7
100
AcDbLine
 10
291.127966
 20
106.083964
 30
0.0
 11
291.097649
 21
105.965625
 31
0.0
  0
LINE
  5
262
100
AcDbEntity
  8
LAYER_1
 62
     7
100
AcDbLine
 10
291.097649
 20
105.965625
 30
0.0
 11
291.063715
 21
105.847803
 31
0.0
  0
LINE
  5
261
100
AcDbEntity
  8
LAYER_1
 62
     7
100
AcDbLine
 10
291.063715
 20
105.847803
 30
0.0
 11
291.026853
 21
105.730153
 31
0.0
  0
LINE
  5
260
100
AcDbEntity
  8
LAYER_1
 62
     7
100
AcDbLine
 10
291.026853
 20
105.730153
 30
0.0
 11
290.987234
 21
105.613364
 31
0.0
  0
LINE
  5
25F
100
AcDbEntity
  8
LAYER_1
 62
     7
100
AcDbLine
 10
290.987234
 20
105.613364
 30
0.0
 11
290.901796
 21
105.380476
 31
0.0
  0
LINE
  5
25E
100
AcDbEntity
  8
LAYER_1
 62
     7
100
AcDbLine
 10
290.901796
 20
105.380476
 30
0.0
 11
290.80895
 21
105.148793
 31
0.0
  0
LINE
  5
25D
100
AcDbEntity
  8
LAYER_1
 62
     7
100
AcDbLine
 10
290.80895
 20
105.148793
 30
0.0
 11
290.602934
 21
104.689389
 31
0.0
  0
LINE
  5
25C
100
AcDbEntity
  8
LAYER_1
 62
     7
100
AcDbLine
 10
290.602934
 20
104.689389
 30
0.0
 11
290.373318
 21
104.234292
 31
0.0
  0
LINE
  5
25B
100
AcDbEntity
  8
LAYER_1
 62
     7
100
AcDbLine
 10
290.373318
 20
104.234292
 30
0.0
 11
290.123204
 21
103.783502
 31
0.0
  0
LINE
  5
25A
100
AcDbEntity
  8
LAYER_1
 62
     7
100
AcDbLine
 10
290.123204
 20
103.783502
 30
0.0
 11
289.853453
 21
103.337017
 31
0.0
  0
LINE
  5
259
100
AcDbEntity
  8
LAYER_1
 62
     7
100
AcDbLine
 10
289.853453
 20
103.337017
 30
0.0
 11
289.56596
 21
102.894495
 31
0.0
  0
LINE
  5
258
100
AcDbEntity
  8
LAYER_1
 62
     7
100
AcDbLine
 10
289.56596
 20
102.894495
 30
0.0
 11
289.261069
 21
102.456451
 31
0.0
  0
LINE
  5
257
100
AcDbEntity
  8
LAYER_1
 62
     7
100
AcDbLine
 10
289.261069
 20
102.456451
 30
0.0
 11
288.940158
 21
102.022541
 31
0.0
  0
LINE
  5
256
100
AcDbEntity
  8
LAYER_1
 62
     7
100
AcDbLine
 10
288.940158
 20
102.022541
 30
0.0
 11
288.603228
 21
101.593454
 31
0.0
  0
LINE
  5
255
100
AcDbEntity
  8
LAYER_1
 62
     7
100
AcDbLine
 10
288.603228
 20
101.593454
 30
0.0
 11
285.542088
 21
102.332255
 31
0.0
  0
LINE
  5
254
100
AcDbEntity
  8
LAYER_1
 62
     7
100
AcDbLine
 10
285.542088
 20
102.332255
 30
0.0
 11
285.438219
 21
102.867795
 31
0.0
  0
LINE
  5
253
100
AcDbEntity
  8
LAYER_1
 62
     7
100
AcDbLine
 10
285.438219
 20
102.867795
 30
0.0
 11
285.350541
 21
103.400235
 31
0.0
  0
LINE
  5
252
100
AcDbEntity
  8
LAYER_1
 62
     7
100
AcDbLine
 10
285.350541
 20
103.400235
 30
0.0
 11
285.279228
 21
103.929229
 31
0.0
  0
LINE
  5
251
100
AcDbEntity
  8
LAYER_1
 62
     7
100
AcDbLine
 10
285.279228
 20
103.929229
 30
0.0
 11
285.224967
 21
104.453917
 31
0.0
  0
LINE
  5
250
100
AcDbEntity
  8
LAYER_1
 62
     7
100
AcDbLine
 10
285.224967
 20
104.453917
 30
0.0
 11
285.188794
 21
104.974471
 31
0.0
  0
LINE
  5
24F
100
AcDbEntity
  8
LAYER_1
 62
     7
100
AcDbLine
 10
285.188794
 20
104.974471
 30
0.0
 11
285.171741
 21
105.489685
 31
0.0
  0
LINE
  5
24E
100
AcDbEntity
  8
LAYER_1
 62
     7
100
AcDbLine
 10
285.171741
 20
105.489685
 30
0.0
 11
285.175014
 21
105.999387
 31
0.0
  0
LINE
  5
24D
100
AcDbEntity
  8
LAYER_1
 62
     7
100
AcDbLine
 10
285.175014
 20
105.999387
 30
0.0
 11
285.201196
 21
106.502371
 31
0.0
  0
LINE
  5
24C
100
AcDbEntity
  8
LAYER_1
 62
     7
100
AcDbLine
 10
285.201196
 20
106.502371
 30
0.0
 11
285.224106
 21
106.750762
 31
0.0
  0
LINE
  5
24B
100
AcDbEntity
  8
LAYER_1
 62
     7
100
AcDbLine
 10
285.224106
 20
106.750762
 30
0.0
 11
285.254251
 21
106.997087
 31
0.0
  0
LINE
  5
24A
100
AcDbEntity
  8
LAYER_1
 62
     7
100
AcDbLine
 10
285.254251
 20
106.997087
 30
0.0
 11
285.27251
 21
107.119043
 31
0.0
  0
LINE
  5
249
100
AcDbEntity
  8
LAYER_1
 62
     7
100
AcDbLine
 10
285.27251
 20
107.119043
 30
0.0
 11
285.293353
 21
107.24031
 31
0.0
  0
LINE
  5
248
100
AcDbEntity
  8
LAYER_1
 62
     7
100
AcDbLine
 10
285.293353
 20
107.24031
 30
0.0
 11
285.316951
 21
107.360716
 31
0.0
  0
LINE
  5
247
100
AcDbEntity
  8
LAYER_1
 62
     7
100
AcDbLine
 10
285.316951
 20
107.360716
 30
0.0
 11
285.343995
 21
107.480089
 31
0.0
  0
LINE
  5
246
100
AcDbEntity
  8
LAYER_1
 62
     7
100
AcDbLine
 10
285.343995
 20
107.480089
 30
0.0
 11
281.960395
 21
108.744784
 31
0.0
  0
LINE
  5
245
100
AcDbEntity
  8
LAYER_1
 62
     7
100
AcDbLine
 10
281.960395
 20
108.744784
 30
0.0
 11
281.902517
 21
108.63678
 31
0.0
  0
LINE
  5
244
100
AcDbEntity
  8
LAYER_1
 62
     7
100
AcDbLine
 10
281.902517
 20
108.63678
 30
0.0
 11
281.841195
 21
108.530671
 31
0.0
  0
LINE
  5
243
100
AcDbEntity
  8
LAYER_1
 62
     7
100
AcDbLine
 10
281.841195
 20
108.530671
 30
0.0
 11
281.777288
 21
108.425423
 31
0.0
  0
LINE
  5
242
100
AcDbEntity
  8
LAYER_1
 62
     7
100
AcDbLine
 10
281.777288
 20
108.425423
 30
0.0
 11
281.711142
 21
108.321037
 31
0.0
  0
LINE
  5
241
100
AcDbEntity
  8
LAYER_1
 62
     7
100
AcDbLine
 10
281.711142
 20
108.321037
 30
0.0
 11
281.572477
 21
108.115537
 31
0.0
  0
LINE
  5
240
100
AcDbEntity
  8
LAYER_1
 62
     7
100
AcDbLine
 10
281.572477
 20
108.115537
 30
0.0
 11
281.42675
 21
107.912965
 31
0.0
  0
LINE
  5
23F
100
AcDbEntity
  8
LAYER_1
 62
     7
100
AcDbLine
 10
281.42675
 20
107.912965
 30
0.0
 11
281.116691
 21
107.516262
 31
0.0
  0
LINE
  5
23E
100
AcDbEntity
  8
LAYER_1
 62
     7
100
AcDbLine
 10
281.116691
 20
107.516262
 30
0.0
 11
280.784928
 21
107.129206
 31
0.0
  0
LINE
  5
23D
100
AcDbEntity
  8
LAYER_1
 62
     7
100
AcDbLine
 10
280.784928
 20
107.129206
 30
0.0
 11
280.434218
 21
106.751451
 31
0.0
  0
LINE
  5
23C
100
AcDbEntity
  8
LAYER_1
 62
     7
100
AcDbLine
 10
280.434218
 20
106.751451
 30
0.0
 11
280.06542
 21
106.382482
 31
0.0
  0
LINE
  5
23B
100
AcDbEntity
  8
LAYER_1
 62
     7
100
AcDbLine
 10
280.06542
 20
106.382482
 30
0.0
 11
279.680259
 21
106.021608
 31
0.0
  0
LINE
  5
23A
100
AcDbEntity
  8
LAYER_1
 62
     7
100
AcDbLine
 10
279.680259
 20
106.021608
 30
0.0
 11
279.279594
 21
105.669002
 31
0.0
  0
LINE
  5
239
100
AcDbEntity
  8
LAYER_1
 62
     7
100
AcDbLine
 10
279.279594
 20
105.669002
 30
0.0
 11
278.863943
 21
105.324837
 31
0.0
  0
LINE
  5
238
100
AcDbEntity
  8
LAYER_1
 62
     7
100
AcDbLine
 10
278.863943
 20
105.324837
 30
0.0
 11
278.43434
 21
104.988596
 31
0.0
  0
LINE
  5
237
100
AcDbEntity
  8
LAYER_1
 62
     7
100
AcDbLine
 10
278.43434
 20
104.988596
 30
0.0
 11
275.638989
 21
106.438292
 31
0.0
  0
LINE
  5
236
100
AcDbEntity
  8
LAYER_1
 62
     7
100
AcDbLine
 10
275.638989
 20
106.438292
 30
0.0
 11
275.666378
 21
106.983306
 31
0.0
  0
LINE
  5
235
100
AcDbEntity
  8
LAYER_1
 62
     7
100
AcDbLine
 10
275.666378
 20
106.983306
 30
0.0
 11
275.708236
 21
107.521602
 31
0.0
  0
LINE
  5
234
100
AcDbEntity
  8
LAYER_1
 62
     7
100
AcDbLine
 10
275.708236
 20
107.521602
 30
0.0
 11
275.765597
 21
108.052147
 31
0.0
  0
LINE
  5
233
100
AcDbEntity
  8
LAYER_1
 62
     7
100
AcDbLine
 10
275.765597
 20
108.052147
 30
0.0
 11
275.838805
 21
108.574596
 31
0.0
  0
LINE
  5
232
100
AcDbEntity
  8
LAYER_1
 62
     7
100
AcDbLine
 10
275.838805
 20
108.574596
 30
0.0
 11
275.928205
 21
109.088604
 31
0.0
  0
LINE
  5
231
100
AcDbEntity
  8
LAYER_1
 62
     7
100
AcDbLine
 10
275.928205
 20
109.088604
 30
0.0
 11
276.034831
 21
109.592966
 31
0.0
  0
LINE
  5
230
100
AcDbEntity
  8
LAYER_1
 62
     7
100
AcDbLine
 10
276.034831
 20
109.592966
 30
0.0
 11
276.16006
 21
110.086993
 31
0.0
  0
LINE
  5
22F
100
AcDbEntity
  8
LAYER_1
 62
     7
100
AcDbLine
 10
276.16006
 20
110.086993
 30
0.0
 11
276.30596
 21
110.569134
 31
0.0
  0
LINE
  5
22E
100
AcDbEntity
  8
LAYER_1
 62
     7
100
AcDbLine
 10
276.30596
 20
110.569134
 30
0.0
 11
276.387609
 21
110.804778
 31
0.0
  0
LINE
  5
22D
100
AcDbEntity
  8
LAYER_1
 62
     7
100
AcDbLine
 10
276.387609
 20
110.804778
 30
0.0
 11
276.475803
 21
111.036633
 31
0.0
  0
LINE
  5
22C
100
AcDbEntity
  8
LAYER_1
 62
     7
100
AcDbLine
 10
276.475803
 20
111.036633
 30
0.0
 11
276.522829
 21
111.150666
 31
0.0
  0
LINE
  5
22B
100
AcDbEntity
  8
LAYER_1
 62
     7
100
AcDbLine
 10
276.522829
 20
111.150666
 30
0.0
 11
276.572093
 21
111.263665
 31
0.0
  0
LINE
  5
22A
100
AcDbEntity
  8
LAYER_1
 62
     7
100
AcDbLine
 10
276.572093
 20
111.263665
 30
0.0
 11
276.623598
 21
111.374942
 31
0.0
  0
LINE
  5
229
100
AcDbEntity
  8
LAYER_1
 62
     7
100
AcDbLine
 10
276.623598
 20
111.374942
 30
0.0
 11
276.678547
 21
111.484151
 31
0.0
  0
LINE
  5
228
100
AcDbEntity
  8
LAYER_1
 62
     7
100
AcDbLine
 10
276.678547
 20
111.484151
 30
0.0
 11
273.695611
 21
113.521753
 31
0.0
  0
LINE
  5
227
100
AcDbEntity
  8
LAYER_1
 62
     7
100
AcDbLine
 10
273.695611
 20
113.521753
 30
0.0
 11
273.613962
 21
113.430975
 31
0.0
  0
LINE
  5
226
100
AcDbEntity
  8
LAYER_1
 62
     7
100
AcDbLine
 10
273.613962
 20
113.430975
 30
0.0
 11
273.529041
 21
113.342608
 31
0.0
  0
LINE
  5
225
100
AcDbEntity
  8
LAYER_1
 62
     7
100
AcDbLine
 10
273.529041
 20
113.342608
 30
0.0
 11
273.441707
 21
113.255619
 31
0.0
  0
LINE
  5
224
100
AcDbEntity
  8
LAYER_1
 62
     7
100
AcDbLine
 10
273.441707
 20
113.255619
 30
0.0
 11
273.352479
 21
113.170353
 31
0.0
  0
LINE
  5
223
100
AcDbEntity
  8
LAYER_1
 62
     7
100
AcDbLine
 10
273.352479
 20
113.170353
 30
0.0
 11
273.168684
 21
113.003783
 31
0.0
  0
LINE
  5
222
100
AcDbEntity
  8
LAYER_1
 62
     7
100
AcDbLine
 10
273.168684
 20
113.003783
 30
0.0
 11
272.978687
 21
112.841863
 31
0.0
  0
LINE
  5
221
100
AcDbEntity
  8
LAYER_1
 62
     7
100
AcDbLine
 10
272.978687
 20
112.841863
 30
0.0
 11
272.582673
 21
112.530771
 31
0.0
  0
LINE
  5
220
100
AcDbEntity
  8
LAYER_1
 62
     7
100
AcDbLine
 10
272.582673
 20
112.530771
 30
0.0
 11
272.168056
 21
112.234665
 31
0.0
  0
LINE
  5
21F
100
AcDbEntity
  8
LAYER_1
 62
     7
100
AcDbLine
 10
272.168056
 20
112.234665
 30
0.0
 11
271.736902
 21
111.951651
 31
0.0
  0
LINE
  5
21E
100
AcDbEntity
  8
LAYER_1
 62
     7
100
AcDbLine
 10
271.736902
 20
111.951651
 30
0.0
 11
271.290762
 21
111.681555
 31
0.0
  0
LINE
  5
21D
100
AcDbEntity
  8
LAYER_1
 62
     7
100
AcDbLine
 10
271.290762
 20
111.681555
 30
0.0
 11
270.830497
 21
111.423518
 31
0.0
  0
LINE
  5
21C
100
AcDbEntity
  8
LAYER_1
 62
     7
100
AcDbLine
 10
270.830497
 20
111.423518
 30
0.0
 11
270.356969
 21
111.177021
 31
0.0
  0
LINE
  5
21B
100
AcDbEntity
  8
LAYER_1
 62
     7
100
AcDbLine
 10
270.356969
 20
111.177021
 30
0.0
 11
269.87121
 21
110.942238
 31
0.0
  0
LINE
  5
21A
100
AcDbEntity
  8
LAYER_1
 62
     7
100
AcDbLine
 10
269.87121
 20
110.942238
 30
0.0
 11
269.373394
 21
110.718651
 31
0.0
  0
LINE
  5
219
100
AcDbEntity
  8
LAYER_1
 62
     7
100
AcDbLine
 10
269.373394
 20
110.718651
 30
0.0
 11
267.006269
 21
112.795527
 31
0.0
  0
LINE
  5
218
100
AcDbEntity
  8
LAYER_1
 62
     7
100
AcDbLine
 10
267.006269
 20
112.795527
 30
0.0
 11
267.163193
 21
113.318148
 31
0.0
  0
LINE
  5
217
100
AcDbEntity
  8
LAYER_1
 62
     7
100
AcDbLine
 10
267.163193
 20
113.318148
 30
0.0
 11
267.332864
 21
113.830433
 31
0.0
  0
LINE
  5
216
100
AcDbEntity
  8
LAYER_1
 62
     7
100
AcDbLine
 10
267.332864
 20
113.830433
 30
0.0
 11
267.515454
 21
114.331695
 31
0.0
  0
LINE
  5
215
100
AcDbEntity
  8
LAYER_1
 62
     7
100
AcDbLine
 10
267.515454
 20
114.331695
 30
0.0
 11
267.71148
 21
114.82176
 31
0.0
  0
LINE
  5
214
100
AcDbEntity
  8
LAYER_1
 62
     7
100
AcDbLine
 10
267.71148
 20
114.82176
 30
0.0
 11
267.921286
 21
115.29925
 31
0.0
  0
LINE
  5
213
100
AcDbEntity
  8
LAYER_1
 62
     7
100
AcDbLine
 10
267.921286
 20
115.29925
 30
0.0
 11
268.145562
 21
115.763477
 31
0.0
  0
LINE
  5
212
100
AcDbEntity
  8
LAYER_1
 62
     7
100
AcDbLine
 10
268.145562
 20
115.763477
 30
0.0
 11
268.385341
 21
116.213234
 31
0.0
  0
LINE
  5
211
100
AcDbEntity
  8
LAYER_1
 62
     7
100
AcDbLine
 10
268.385341
 20
116.213234
 30
0.0
 11
268.642345
 21
116.646282
 31
0.0
  0
LINE
  5
210
100
AcDbEntity
  8
LAYER_1
 62
     7
100
AcDbLine
 10
268.642345
 20
116.646282
 30
0.0
 11
268.778082
 21
116.855916
 31
0.0
  0
LINE
  5
20F
100
AcDbEntity
  8
LAYER_1
 62
     7
100
AcDbLine
 10
268.778082
 20
116.855916
 30
0.0
 11
268.919331
 21
117.059521
 31
0.0
  0
LINE
  5
20E
100
AcDbEntity
  8
LAYER_1
 62
     7
100
AcDbLine
 10
268.919331
 20
117.059521
 30
0.0
 11
268.992194
 21
117.159429
 31
0.0
  0
LINE
  5
20D
100
AcDbEntity
  8
LAYER_1
 62
     7
100
AcDbLine
 10
268.992194
 20
117.159429
 30
0.0
 11
269.066781
 21
117.257098
 31
0.0
  0
LINE
  5
20C
100
AcDbEntity
  8
LAYER_1
 62
     7
100
AcDbLine
 10
269.066781
 20
117.257098
 30
0.0
 11
269.143778
 21
117.352871
 31
0.0
  0
LINE
  5
20B
100
AcDbEntity
  8
LAYER_1
 62
     7
100
AcDbLine
 10
269.143778
 20
117.352871
 30
0.0
 11
269.223016
 21
117.445889
 31
0.0
  0
LINE
  5
20A
100
AcDbEntity
  8
LAYER_1
 62
     7
100
AcDbLine
 10
269.223016
 20
117.445889
 30
0.0
 11
266.814722
 21
120.138059
 31
0.0
  0
LINE
  5
209
100
AcDbEntity
  8
LAYER_1
 62
     7
100
AcDbLine
 10
266.814722
 20
120.138059
 30
0.0
 11
266.713436
 21
120.069501
 31
0.0
  0
LINE
  5
208
100
AcDbEntity
  8
LAYER_1
 62
     7
100
AcDbLine
 10
266.713436
 20
120.069501
 30
0.0
 11
266.609738
 21
120.0037
 31
0.0
  0
LINE
  5
207
100
AcDbEntity
  8
LAYER_1
 62
     7
100
AcDbLine
 10
266.609738
 20
120.0037
 30
0.0
 11
266.504319
 21
119.940138
 31
0.0
  0
LINE
  5
206
100
AcDbEntity
  8
LAYER_1
 62
     7
100
AcDbLine
 10
266.504319
 20
119.940138
 30
0.0
 11
266.397176
 21
119.878643
 31
0.0
  0
LINE
  5
205
100
AcDbEntity
  8
LAYER_1
 62
     7
100
AcDbLine
 10
266.397176
 20
119.878643
 30
0.0
 11
266.178757
 21
119.761165
 31
0.0
  0
LINE
  5
204
100
AcDbEntity
  8
LAYER_1
 62
     7
100
AcDbLine
 10
266.178757
 20
119.761165
 30
0.0
 11
265.955687
 21
119.649544
 31
0.0
  0
LINE
  5
203
100
AcDbEntity
  8
LAYER_1
 62
     7
100
AcDbLine
 10
265.955687
 20
119.649544
 30
0.0
 11
265.4968
 21
119.44215
 31
0.0
  0
LINE
  5
202
100
AcDbEntity
  8
LAYER_1
 62
     7
100
AcDbLine
 10
265.4968
 20
119.44215
 30
0.0
 11
265.0231
 21
119.253703
 31
0.0
  0
LINE
  5
201
100
AcDbEntity
  8
LAYER_1
 62
     7
100
AcDbLine
 10
265.0231
 20
119.253703
 30
0.0
 11
264.536997
 21
119.082309
 31
0.0
  0
LINE
  5
200
100
AcDbEntity
  8
LAYER_1
 62
     7
100
AcDbLine
 10
264.536997
 20
119.082309
 30
0.0
 11
264.039008
 21
118.926763
 31
0.0
  0
LINE
  5
1FF
100
AcDbEntity
  8
LAYER_1
 62
     7
100
AcDbLine
 10
264.039008
 20
118.926763
 30
0.0
 11
263.530512
 21
118.786376
 31
0.0
  0
LINE
  5
1FE
100
AcDbEntity
  8
LAYER_1
 62
     7
100
AcDbLine
 10
263.530512
 20
118.786376
 30
0.0
 11
263.011853
 21
118.660457
 31
0.0
  0
LINE
  5
1FD
100
AcDbEntity
  8
LAYER_1
 62
     7
100
AcDbLine
 10
263.011853
 20
118.660457
 30
0.0
 11
262.48372
 21
118.548664
 31
0.0
  0
LINE
  5
1FC
100
AcDbEntity
  8
LAYER_1
 62
     7
100
AcDbLine
 10
262.48372
 20
118.548664
 30
0.0
 11
261.946802
 21
118.450651
 31
0.0
  0
LINE
  5
1FB
100
AcDbEntity
  8
LAYER_1
 62
     7
100
AcDbLine
 10
261.946802
 20
118.450651
 30
0.0
 11
260.145534
 21
121.033611
 31
0.0
  0
LINE
  5
1FA
100
AcDbEntity
  8
LAYER_1
 62
     7
100
AcDbLine
 10
260.145534
 20
121.033611
 30
0.0
 11
260.423036
 21
121.50335
 31
0.0
  0
LINE
  5
1F9
100
AcDbEntity
  8
LAYER_1
 62
     7
100
AcDbLine
 10
260.423036
 20
121.50335
 30
0.0
 11
260.710529
 21
121.960342
 31
0.0
  0
LINE
  5
1F8
100
AcDbEntity
  8
LAYER_1
 62
     7
100
AcDbLine
 10
260.710529
 20
121.960342
 30
0.0
 11
261.007841
 21
122.403554
 31
0.0
  0
LINE
  5
1F7
100
AcDbEntity
  8
LAYER_1
 62
     7
100
AcDbLine
 10
261.007841
 20
122.403554
 30
0.0
 11
261.315144
 21
122.832296
 31
0.0
  0
LINE
  5
1F6
100
AcDbEntity
  8
LAYER_1
 62
     7
100
AcDbLine
 10
261.315144
 20
122.832296
 30
0.0
 11
261.633126
 21
123.245707
 31
0.0
  0
LINE
  5
1F5
100
AcDbEntity
  8
LAYER_1
 62
     7
100
AcDbLine
 10
261.633126
 20
123.245707
 30
0.0
 11
261.962132
 21
123.642754
 31
0.0
  0
LINE
  5
1F4
100
AcDbEntity
  8
LAYER_1
 62
     7
100
AcDbLine
 10
261.962132
 20
123.642754
 30
0.0
 11
262.30268
 21
124.021887
 31
0.0
  0
LINE
  5
1F3
100
AcDbEntity
  8
LAYER_1
 62
     7
100
AcDbLine
 10
262.30268
 20
124.021887
 30
0.0
 11
262.655802
 21
124.381038
 31
0.0
  0
LINE
  5
1F2
100
AcDbEntity
  8
LAYER_1
 62
     7
100
AcDbLine
 10
262.655802
 20
124.381038
 30
0.0
 11
262.837531
 21
124.551915
 31
0.0
  0
LINE
  5
1F1
100
AcDbEntity
  8
LAYER_1
 62
     7
100
AcDbLine
 10
262.837531
 20
124.551915
 30
0.0
 11
263.023566
 21
124.716074
 31
0.0
  0
LINE
  5
1F0
100
AcDbEntity
  8
LAYER_1
 62
     7
100
AcDbLine
 10
263.023566
 20
124.716074
 30
0.0
 11
263.118306
 21
124.795311
 31
0.0
  0
LINE
  5
1EF
100
AcDbEntity
  8
LAYER_1
 62
     7
100
AcDbLine
 10
263.118306
 20
124.795311
 30
0.0
 11
263.214252
 21
124.872481
 31
0.0
  0
LINE
  5
1EE
100
AcDbEntity
  8
LAYER_1
 62
     7
100
AcDbLine
 10
263.214252
 20
124.872481
 30
0.0
 11
263.311749
 21
124.946895
 31
0.0
  0
LINE
  5
1ED
100
AcDbEntity
  8
LAYER_1
 62
     7
100
AcDbLine
 10
263.311749
 20
124.946895
 30
0.0
 11
263.41114
 21
125.018209
 31
0.0
  0
LINE
  5
1EC
100
AcDbEntity
  8
LAYER_1
 62
     7
100
AcDbLine
 10
263.41114
 20
125.018209
 30
0.0
 11
261.717014
 21
128.208539
 31
0.0
  0
LINE
  5
1EB
100
AcDbEntity
  8
LAYER_1
 62
     7
100
AcDbLine
 10
261.717014
 20
128.208539
 30
0.0
 11
261.602292
 21
128.166337
 31
0.0
  0
LINE
  5
1EA
100
AcDbEntity
  8
LAYER_1
 62
     7
100
AcDbLine
 10
261.602292
 20
128.166337
 30
0.0
 11
261.485848
 21
128.127235
 31
0.0
  0
LINE
  5
1E9
100
AcDbEntity
  8
LAYER_1
 62
     7
100
AcDbLine
 10
261.485848
 20
128.127235
 30
0.0
 11
261.36837
 21
128.090889
 31
0.0
  0
LINE
  5
1E8
100
AcDbEntity
  8
LAYER_1
 62
     7
100
AcDbLine
 10
261.36837
 20
128.090889
 30
0.0
 11
261.249342
 21
128.056955
 31
0.0
  0
LINE
  5
1E7
100
AcDbEntity
  8
LAYER_1
 62
     7
100
AcDbLine
 10
261.249342
 20
128.056955
 30
0.0
 11
261.009391
 21
127.994944
 31
0.0
  0
LINE
  5
1E6
100
AcDbEntity
  8
LAYER_1
 62
     7
100
AcDbLine
 10
261.009391
 20
127.994944
 30
0.0
 11
260.765823
 21
127.939822
 31
0.0
  0
LINE
  5
1E5
100
AcDbEntity
  8
LAYER_1
 62
     7
100
AcDbLine
 10
260.765823
 20
127.939822
 30
0.0
 11
260.270763
 21
127.848355
 31
0.0
  0
LINE
  5
1E4
100
AcDbEntity
  8
LAYER_1
 62
     7
100
AcDbLine
 10
260.270763
 20
127.848355
 30
0.0
 11
259.765884
 21
127.778764
 31
0.0
  0
LINE
  5
1E3
100
AcDbEntity
  8
LAYER_1
 62
     7
100
AcDbLine
 10
259.765884
 20
127.778764
 30
0.0
 11
259.252565
 21
127.72881
 31
0.0
  0
LINE
  5
1E2
100
AcDbEntity
  8
LAYER_1
 62
     7
100
AcDbLine
 10
259.252565
 20
127.72881
 30
0.0
 11
258.731839
 21
127.696771
 31
0.0
  0
LINE
  5
1E1
100
AcDbEntity
  8
LAYER_1
 62
     7
100
AcDbLine
 10
258.731839
 20
127.696771
 30
0.0
 11
258.204739
 21
127.682301
 31
0.0
  0
LINE
  5
1E0
100
AcDbEntity
  8
LAYER_1
 62
     7
100
AcDbLine
 10
258.204739
 20
127.682301
 30
0.0
 11
257.670749
 21
127.684024
 31
0.0
  0
LINE
  5
1DF
100
AcDbEntity
  8
LAYER_1
 62
     7
100
AcDbLine
 10
257.670749
 20
127.684024
 30
0.0
 11
257.131592
 21
127.701766
 31
0.0
  0
LINE
  5
1DE
100
AcDbEntity
  8
LAYER_1
 62
     7
100
AcDbLine
 10
257.131592
 20
127.701766
 30
0.0
 11
256.58675
 21
127.735011
 31
0.0
  0
LINE
  5
1DD
100
AcDbEntity
  8
LAYER_1
 62
     7
100
AcDbLine
 10
256.58675
 20
127.735011
 30
0.0
 11
255.455725
 21
130.674194
 31
0.0
  0
LINE
  5
1DC
100
AcDbEntity
  8
LAYER_1
 62
     7
100
AcDbLine
 10
255.455725
 20
130.674194
 30
0.0
 11
255.837786
 21
131.064007
 31
0.0
  0
LINE
  5
1DB
100
AcDbEntity
  8
LAYER_1
 62
     7
100
AcDbLine
 10
255.837786
 20
131.064007
 30
0.0
 11
256.226048
 21
131.438661
 31
0.0
  0
LINE
  5
1DA
100
AcDbEntity
  8
LAYER_1
 62
     7
100
AcDbLine
 10
256.226048
 20
131.438661
 30
0.0
 11
256.620856
 21
131.797812
 31
0.0
  0
LINE
  5
1D9
100
AcDbEntity
  8
LAYER_1
 62
     7
100
AcDbLine
 10
256.620856
 20
131.797812
 30
0.0
 11
257.022038
 21
132.140599
 31
0.0
  0
LINE
  5
1D8
100
AcDbEntity
  8
LAYER_1
 62
     7
100
AcDbLine
 10
257.022038
 20
132.140599
 30
0.0
 11
257.429765
 21
132.465988
 31
0.0
  0
LINE
  5
1D7
100
AcDbEntity
  8
LAYER_1
 62
     7
100
AcDbLine
 10
257.429765
 20
132.465988
 30
0.0
 11
257.84421
 21
132.772774
 31
0.0
  0
LINE
  5
1D6
100
AcDbEntity
  8
LAYER_1
 62
     7
100
AcDbLine
 10
257.84421
 20
132.772774
 30
0.0
 11
258.265545
 21
133.059578
 31
0.0
  0
LINE
  5
1D5
100
AcDbEntity
  8
LAYER_1
 62
     7
100
AcDbLine
 10
258.265545
 20
133.059578
 30
0.0
 11
258.694287
 21
133.323645
 31
0.0
  0
LINE
  5
1D4
100
AcDbEntity
  8
LAYER_1
 62
     7
100
AcDbLine
 10
258.694287
 20
133.323645
 30
0.0
 11
258.911673
 21
133.445774
 31
0.0
  0
LINE
  5
1D3
100
AcDbEntity
  8
LAYER_1
 62
     7
100
AcDbLine
 10
258.911673
 20
133.445774
 30
0.0
 11
259.131642
 21
133.56084
 31
0.0
  0
LINE
  5
1D2
100
AcDbEntity
  8
LAYER_1
 62
     7
100
AcDbLine
 10
259.131642
 20
133.56084
 30
0.0
 11
259.242402
 21
133.615272
 31
0.0
  0
LINE
  5
1D1
100
AcDbEntity
  8
LAYER_1
 62
     7
100
AcDbLine
 10
259.242402
 20
133.615272
 30
0.0
 11
259.354195
 21
133.667121
 31
0.0
  0
LINE
  5
1D0
100
AcDbEntity
  8
LAYER_1
 62
     7
100
AcDbLine
 10
259.354195
 20
133.667121
 30
0.0
 11
259.466505
 21
133.716041
 31
0.0
  0
LINE
  5
1CF
100
AcDbEntity
  8
LAYER_1
 62
     7
100
AcDbLine
 10
259.466505
 20
133.716041
 30
0.0
 11
259.580021
 21
133.761517
 31
0.0
  0
LINE
  5
1CE
100
AcDbEntity
  8
LAYER_1
 62
     7
100
AcDbLine
 10
259.580021
 20
133.761517
 30
0.0
 11
258.698593
 21
137.264662
 31
0.0
  0
LINE
  5
1CD
100
AcDbEntity
  8
LAYER_1
 62
     7
100
AcDbLine
 10
258.698593
 20
137.264662
 30
0.0
 11
258.577154
 21
137.251054
 31
0.0
  0
LINE
  5
1CC
100
AcDbEntity
  8
LAYER_1
 62
     7
100
AcDbLine
 10
258.577154
 20
137.251054
 30
0.0
 11
258.454853
 21
137.241063
 31
0.0
  0
LINE
  5
1CB
100
AcDbEntity
  8
LAYER_1
 62
     7
100
AcDbLine
 10
258.454853
 20
137.241063
 30
0.0
 11
258.331863
 21
137.234001
 31
0.0
  0
LINE
  5
1CA
100
AcDbEntity
  8
LAYER_1
 62
     7
100
AcDbLine
 10
258.331863
 20
137.234001
 30
0.0
 11
258.208529
 21
137.229178
 31
0.0
  0
LINE
  5
1C9
100
AcDbEntity
  8
LAYER_1
 62
     7
100
AcDbLine
 10
258.208529
 20
137.229178
 30
0.0
 11
257.960482
 21
137.226421
 31
0.0
  0
LINE
  5
1C8
100
AcDbEntity
  8
LAYER_1
 62
     7
100
AcDbLine
 10
257.960482
 20
137.226421
 30
0.0
 11
257.711229
 21
137.231417
 31
0.0
  0
LINE
  5
1C7
100
AcDbEntity
  8
LAYER_1
 62
     7
100
AcDbLine
 10
257.711229
 20
137.231417
 30
0.0
 11
257.208245
 21
137.261217
 31
0.0
  0
LINE
  5
1C6
100
AcDbEntity
  8
LAYER_1
 62
     7
100
AcDbLine
 10
257.208245
 20
137.261217
 30
0.0
 11
256.701644
 21
137.314271
 31
0.0
  0
LINE
  5
1C5
100
AcDbEntity
  8
LAYER_1
 62
     7
100
AcDbLine
 10
256.701644
 20
137.314271
 30
0.0
 11
256.191253
 21
137.388341
 31
0.0
  0
LINE
  5
1C4
100
AcDbEntity
  8
LAYER_1
 62
     7
100
AcDbLine
 10
256.191253
 20
137.388341
 30
0.0
 11
255.677934
 21
137.482048
 31
0.0
  0
LINE
  5
1C3
100
AcDbEntity
  8
LAYER_1
 62
     7
100
AcDbLine
 10
255.677934
 20
137.482048
 30
0.0
 11
255.162375
 21
137.594013
 31
0.0
  0
LINE
  5
1C2
100
AcDbEntity
  8
LAYER_1
 62
     7
100
AcDbLine
 10
255.162375
 20
137.594013
 30
0.0
 11
254.64475
 21
137.723549
 31
0.0
  0
LINE
  5
1C1
100
AcDbEntity
  8
LAYER_1
 62
     7
100
AcDbLine
 10
254.64475
 20
137.723549
 30
0.0
 11
254.125057
 21
137.869965
 31
0.0
  0
LINE
  5
1C0
100
AcDbEntity
  8
LAYER_1
 62
     7
100
AcDbLine
 10
254.125057
 20
137.869965
 30
0.0
 11
253.604503
 21
138.032746
 31
0.0
  0
LINE
  5
1BF
100
AcDbEntity
  8
LAYER_1
 62
     7
100
AcDbLine
 10
253.604503
 20
138.032746
 30
0.0
 11
253.209695
 21
141.156931
 31
0.0
  0
LINE
  5
1BE
100
AcDbEntity
  8
LAYER_1
 62
     7
100
AcDbLine
 10
253.209695
 20
141.156931
 30
0.0
 11
253.673749
 21
141.443907
 31
0.0
  0
LINE
  5
1BD
100
AcDbEntity
  8
LAYER_1
 62
     7
100
AcDbLine
 10
253.673749
 20
141.443907
 30
0.0
 11
254.140388
 21
141.714864
 31
0.0
  0
LINE
  5
1BC
100
AcDbEntity
  8
LAYER_1
 62
     7
100
AcDbLine
 10
254.140388
 20
141.714864
 30
0.0
 11
254.609782
 21
141.969112
 31
0.0
  0
LINE
  5
1BB
100
AcDbEntity
  8
LAYER_1
 62
     7
100
AcDbLine
 10
254.609782
 20
141.969112
 30
0.0
 11
255.081415
 21
142.205962
 31
0.0
  0
LINE
  5
1BA
100
AcDbEntity
  8
LAYER_1
 62
     7
100
AcDbLine
 10
255.081415
 20
142.205962
 30
0.0
 11
255.555116
 21
142.424382
 31
0.0
  0
LINE
  5
1B9
100
AcDbEntity
  8
LAYER_1
 62
     7
100
AcDbLine
 10
255.555116
 20
142.424382
 30
0.0
 11
256.030884
 21
142.622991
 31
0.0
  0
LINE
  5
1B8
100
AcDbEntity
  8
LAYER_1
 62
     7
100
AcDbLine
 10
256.030884
 20
142.622991
 30
0.0
 11
256.508546
 21
142.800414
 31
0.0
  0
LINE
  5
1B7
100
AcDbEntity
  8
LAYER_1
 62
     7
100
AcDbLine
 10
256.508546
 20
142.800414
 30
0.0
 11
256.988104
 21
142.954409
 31
0.0
  0
LINE
  5
1B6
100
AcDbEntity
  8
LAYER_1
 62
     7
100
AcDbLine
 10
256.988104
 20
142.954409
 30
0.0
 11
257.228571
 21
143.021072
 31
0.0
  0
LINE
  5
1B5
100
AcDbEntity
  8
LAYER_1
 62
     7
100
AcDbLine
 10
257.228571
 20
143.021072
 30
0.0
 11
257.469383
 21
143.080155
 31
0.0
  0
LINE
  5
1B4
100
AcDbEntity
  8
LAYER_1
 62
     7
100
AcDbLine
 10
257.469383
 20
143.080155
 30
0.0
 11
257.589962
 21
143.106166
 31
0.0
  0
LINE
  5
1B3
100
AcDbEntity
  8
LAYER_1
 62
     7
100
AcDbLine
 10
257.589962
 20
143.106166
 30
0.0
 11
257.710885
 21
143.129937
 31
0.0
  0
LINE
  5
1B2
100
AcDbEntity
  8
LAYER_1
 62
     7
100
AcDbLine
 10
257.710885
 20
143.129937
 30
0.0
 11
257.831807
 21
143.150608
 31
0.0
  0
LINE
  5
1B1
100
AcDbEntity
  8
LAYER_1
 62
     7
100
AcDbLine
 10
257.831807
 20
143.150608
 30
0.0
 11
257.952903
 21
143.167661
 31
0.0
  0
LINE
  5
1B0
100
AcDbEntity
  8
LAYER_1
 62
     7
100
AcDbLine
 10
257.952903
 20
143.167661
 30
0.0
 11
257.935333
 21
146.779843
 31
0.0
  0
LINE
  5
1AF
100
AcDbEntity
  8
LAYER_1
 62
     7
100
AcDbLine
 10
257.935333
 20
146.779843
 30
0.0
 11
257.814237
 21
146.795519
 31
0.0
  0
LINE
  5
1AE
100
AcDbEntity
  8
LAYER_1
 62
     7
100
AcDbLine
 10
257.814237
 20
146.795519
 30
0.0
 11
257.693142
 21
146.815156
 31
0.0
  0
LINE
  5
1AD
100
AcDbEntity
  8
LAYER_1
 62
     7
100
AcDbLine
 10
257.693142
 20
146.815156
 30
0.0
 11
257.572047
 21
146.837721
 31
0.0
  0
LINE
  5
1AC
100
AcDbEntity
  8
LAYER_1
 62
     7
100
AcDbLine
 10
257.572047
 20
146.837721
 30
0.0
 11
257.451124
 21
146.862698
 31
0.0
  0
LINE
  5
1AB
100
AcDbEntity
  8
LAYER_1
 62
     7
100
AcDbLine
 10
257.451124
 20
146.862698
 30
0.0
 11
257.209451
 21
146.919542
 31
0.0
  0
LINE
  5
1AA
100
AcDbEntity
  8
LAYER_1
 62
     7
100
AcDbLine
 10
257.209451
 20
146.919542
 30
0.0
 11
256.968467
 21
146.983793
 31
0.0
  0
LINE
  5
1A9
100
AcDbEntity
  8
LAYER_1
 62
     7
100
AcDbLine
 10
256.968467
 20
146.983793
 30
0.0
 11
256.487703
 21
147.133138
 31
0.0
  0
LINE
  5
1A8
100
AcDbEntity
  8
LAYER_1
 62
     7
100
AcDbLine
 10
256.487703
 20
147.133138
 30
0.0
 11
256.008146
 21
147.305737
 31
0.0
  0
LINE
  5
1A7
100
AcDbEntity
  8
LAYER_1
 62
     7
100
AcDbLine
 10
256.008146
 20
147.305737
 30
0.0
 11
255.530484
 21
147.500041
 31
0.0
  0
LINE
  5
1A6
100
AcDbEntity
  8
LAYER_1
 62
     7
100
AcDbLine
 10
255.530484
 20
147.500041
 30
0.0
 11
255.054716
 21
147.713981
 31
0.0
  0
LINE
  5
1A5
100
AcDbEntity
  8
LAYER_1
 62
     7
100
AcDbLine
 10
255.054716
 20
147.713981
 30
0.0
 11
254.580843
 21
147.946181
 31
0.0
  0
LINE
  5
1A4
100
AcDbEntity
  8
LAYER_1
 62
     7
100
AcDbLine
 10
254.580843
 20
147.946181
 30
0.0
 11
254.10921
 21
148.195778
 31
0.0
  0
LINE
  5
1A3
100
AcDbEntity
  8
LAYER_1
 62
     7
100
AcDbLine
 10
254.10921
 20
148.195778
 30
0.0
 11
253.639815
 21
148.462256
 31
0.0
  0
LINE
  5
1A2
100
AcDbEntity
  8
LAYER_1
 62
     7
100
AcDbLine
 10
253.639815
 20
148.462256
 30
0.0
 11
253.173005
 21
148.744581
 31
0.0
  0
LINE
  5
1A1
100
AcDbEntity
  8
LAYER_1
 62
     7
100
AcDbLine
 10
253.173005
 20
148.744581
 30
0.0
 11
253.537496
 21
151.872556
 31
0.0
  0
LINE
  5
1A0
100
AcDbEntity
  8
LAYER_1
 62
     7
100
AcDbLine
 10
253.537496
 20
151.872556
 30
0.0
 11
254.056844
 21
152.040332
 31
0.0
  0
LINE
  5
19F
100
AcDbEntity
  8
LAYER_1
 62
     7
100
AcDbLine
 10
254.056844
 20
152.040332
 30
0.0
 11
254.574642
 21
152.191572
 31
0.0
  0
LINE
  5
19E
100
AcDbEntity
  8
LAYER_1
 62
     7
100
AcDbLine
 10
254.574642
 20
152.191572
 30
0.0
 11
255.091234
 21
152.326275
 31
0.0
  0
LINE
  5
19D
100
AcDbEntity
  8
LAYER_1
 62
     7
100
AcDbLine
 10
255.091234
 20
152.326275
 30
0.0
 11
255.605931
 21
152.443064
 31
0.0
  0
LINE
  5
19C
100
AcDbEntity
  8
LAYER_1
 62
     7
100
AcDbLine
 10
255.605931
 20
152.443064
 30
0.0
 11
256.117872
 21
152.541938
 31
0.0
  0
LINE
  5
19B
100
AcDbEntity
  8
LAYER_1
 62
     7
100
AcDbLine
 10
256.117872
 20
152.541938
 30
0.0
 11
256.627402
 21
152.620831
 31
0.0
  0
LINE
  5
19A
100
AcDbEntity
  8
LAYER_1
 62
     7
100
AcDbLine
 10
256.627402
 20
152.620831
 30
0.0
 11
257.133831
 21
152.679053
 31
0.0
  0
LINE
  5
199
100
AcDbEntity
  8
LAYER_1
 62
     7
100
AcDbLine
 10
257.133831
 20
152.679053
 30
0.0
 11
257.636298
 21
152.713504
 31
0.0
  0
LINE
  5
198
100
AcDbEntity
  8
LAYER_1
 62
     7
100
AcDbLine
 10
257.636298
 20
152.713504
 30
0.0
 11
257.885723
 21
152.720911
 31
0.0
  0
LINE
  5
197
100
AcDbEntity
  8
LAYER_1
 62
     7
100
AcDbLine
 10
257.885723
 20
152.720911
 30
0.0
 11
258.13377
 21
152.720394
 31
0.0
  0
LINE
  5
196
100
AcDbEntity
  8
LAYER_1
 62
     7
100
AcDbLine
 10
258.13377
 20
152.720394
 30
0.0
 11
258.257277
 21
152.717121
 31
0.0
  0
LINE
  5
195
100
AcDbEntity
  8
LAYER_1
 62
     7
100
AcDbLine
 10
258.257277
 20
152.717121
 30
0.0
 11
258.380094
 21
152.711092
 31
0.0
  0
LINE
  5
194
100
AcDbEntity
  8
LAYER_1
 62
     7
100
AcDbLine
 10
258.380094
 20
152.711092
 30
0.0
 11
258.502395
 21
152.702307
 31
0.0
  0
LINE
  5
193
100
AcDbEntity
  8
LAYER_1
 62
     7
100
AcDbLine
 10
258.502395
 20
152.702307
 30
0.0
 11
258.624179
 21
152.689905
 31
0.0
  0
LINE
  5
192
100
AcDbEntity
  8
LAYER_1
 62
     7
100
AcDbLine
 10
258.624179
 20
152.689905
 30
0.0
 11
259.471501
 21
156.201146
 31
0.0
  0
LINE
  5
191
100
AcDbEntity
  8
LAYER_1
 62
     7
100
AcDbLine
 10
259.471501
 20
156.201146
 30
0.0
 11
259.357812
 21
156.245588
 31
0.0
  0
LINE
  5
190
100
AcDbEntity
  8
LAYER_1
 62
     7
100
AcDbLine
 10
259.357812
 20
156.245588
 30
0.0
 11
259.244641
 21
156.293647
 31
0.0
  0
LINE
  5
18F
100
AcDbEntity
  8
LAYER_1
 62
     7
100
AcDbLine
 10
259.244641
 20
156.293647
 30
0.0
 11
259.132676
 21
156.34429
 31
0.0
  0
LINE
  5
18E
100
AcDbEntity
  8
LAYER_1
 62
     7
100
AcDbLine
 10
259.132676
 20
156.34429
 30
0.0
 11
259.021227
 21
156.397517
 31
0.0
  0
LINE
  5
18D
100
AcDbEntity
  8
LAYER_1
 62
     7
100
AcDbLine
 10
259.021227
 20
156.397517
 30
0.0
 11
258.800224
 21
156.510343
 31
0.0
  0
LINE
  5
18C
100
AcDbEntity
  8
LAYER_1
 62
     7
100
AcDbLine
 10
258.800224
 20
156.510343
 30
0.0
 11
258.581632
 21
156.63075
 31
0.0
  0
LINE
  5
18B
100
AcDbEntity
  8
LAYER_1
 62
     7
100
AcDbLine
 10
258.581632
 20
156.63075
 30
0.0
 11
258.150307
 21
156.89051
 31
0.0
  0
LINE
  5
18A
100
AcDbEntity
  8
LAYER_1
 62
     7
100
AcDbLine
 10
258.150307
 20
156.89051
 30
0.0
 11
257.726215
 21
157.17318
 31
0.0
  0
LINE
  5
189
100
AcDbEntity
  8
LAYER_1
 62
     7
100
AcDbLine
 10
257.726215
 20
157.17318
 30
0.0
 11
257.308842
 21
157.476004
 31
0.0
  0
LINE
  5
188
100
AcDbEntity
  8
LAYER_1
 62
     7
100
AcDbLine
 10
257.308842
 20
157.476004
 30
0.0
 11
256.898187
 21
157.797431
 31
0.0
  0
LINE
  5
187
100
AcDbEntity
  8
LAYER_1
 62
     7
100
AcDbLine
 10
256.898187
 20
157.797431
 30
0.0
 11
256.49356
 21
158.136256
 31
0.0
  0
LINE
  5
186
100
AcDbEntity
  8
LAYER_1
 62
     7
100
AcDbLine
 10
256.49356
 20
158.136256
 30
0.0
 11
256.095307
 21
158.491618
 31
0.0
  0
LINE
  5
185
100
AcDbEntity
  8
LAYER_1
 62
     7
100
AcDbLine
 10
256.095307
 20
158.491618
 30
0.0
 11
255.703427
 21
158.862482
 31
0.0
  0
LINE
  5
184
100
AcDbEntity
  8
LAYER_1
 62
     7
100
AcDbLine
 10
255.703427
 20
158.862482
 30
0.0
 11
255.317921
 21
159.248678
 31
0.0
  0
LINE
  5
183
100
AcDbEntity
  8
LAYER_1
 62
     7
100
AcDbLine
 10
255.317921
 20
159.248678
 30
0.0
 11
256.42018
 21
162.198541
 31
0.0
  0
LINE
  5
182
100
AcDbEntity
  8
LAYER_1
 62
     7
100
AcDbLine
 10
256.42018
 20
162.198541
 30
0.0
 11
256.964505
 21
162.237126
 31
0.0
  0
LINE
  5
181
100
AcDbEntity
  8
LAYER_1
 62
     7
100
AcDbLine
 10
256.964505
 20
162.237126
 30
0.0
 11
257.503662
 21
162.259863
 31
0.0
  0
LINE
  5
180
100
AcDbEntity
  8
LAYER_1
 62
     7
100
AcDbLine
 10
257.503662
 20
162.259863
 30
0.0
 11
258.037307
 21
162.267098
 31
0.0
  0
LINE
  5
17F
100
AcDbEntity
  8
LAYER_1
 62
     7
100
AcDbLine
 10
258.037307
 20
162.267098
 30
0.0
 11
258.565096
 21
162.257452
 31
0.0
  0
LINE
  5
17E
100
AcDbEntity
  8
LAYER_1
 62
     7
100
AcDbLine
 10
258.565096
 20
162.257452
 30
0.0
 11
259.085994
 21
162.230752
 31
0.0
  0
LINE
  5
17D
100
AcDbEntity
  8
LAYER_1
 62
     7
100
AcDbLine
 10
259.085994
 20
162.230752
 30
0.0
 11
259.599486
 21
162.185449
 31
0.0
  0
LINE
  5
17C
100
AcDbEntity
  8
LAYER_1
 62
     7
100
AcDbLine
 10
259.599486
 20
162.185449
 30
0.0
 11
260.105054
 21
162.120681
 31
0.0
  0
LINE
  5
17B
100
AcDbEntity
  8
LAYER_1
 62
     7
100
AcDbLine
 10
260.105054
 20
162.120681
 30
0.0
 11
260.600975
 21
162.03421
 31
0.0
  0
LINE
  5
17A
100
AcDbEntity
  8
LAYER_1
 62
     7
100
AcDbLine
 10
260.600975
 20
162.03421
 30
0.0
 11
260.84506
 21
161.9815
 31
0.0
  0
LINE
  5
179
100
AcDbEntity
  8
LAYER_1
 62
     7
100
AcDbLine
 10
260.84506
 20
161.9815
 30
0.0
 11
261.085872
 21
161.921899
 31
0.0
  0
LINE
  5
178
100
AcDbEntity
  8
LAYER_1
 62
     7
100
AcDbLine
 10
261.085872
 20
161.921899
 30
0.0
 11
261.204728
 21
161.888826
 31
0.0
  0
LINE
  5
177
100
AcDbEntity
  8
LAYER_1
 62
     7
100
AcDbLine
 10
261.204728
 20
161.888826
 30
0.0
 11
261.322895
 21
161.853859
 31
0.0
  0
LINE
  5
176
100
AcDbEntity
  8
LAYER_1
 62
     7
100
AcDbLine
 10
261.322895
 20
161.853859
 30
0.0
 11
261.439339
 21
161.815963
 31
0.0
  0
LINE
  5
175
100
AcDbEntity
  8
LAYER_1
 62
     7
100
AcDbLine
 10
261.439339
 20
161.815963
 30
0.0
 11
261.55475
 21
161.774622
 31
0.0
  0
LINE
  5
174
100
AcDbEntity
  8
LAYER_1
 62
     7
100
AcDbLine
 10
261.55475
 20
161.774622
 30
0.0
 11
263.21787
 21
164.981144
 31
0.0
  0
LINE
  5
173
100
AcDbEntity
  8
LAYER_1
 62
     7
100
AcDbLine
 10
263.21787
 20
164.981144
 30
0.0
 11
263.11779
 21
165.051424
 31
0.0
  0
LINE
  5
172
100
AcDbEntity
  8
LAYER_1
 62
     7
100
AcDbLine
 10
263.11779
 20
165.051424
 30
0.0
 11
263.019604
 21
165.125149
 31
0.0
  0
LINE
  5
171
100
AcDbEntity
  8
LAYER_1
 62
     7
100
AcDbLine
 10
263.019604
 20
165.125149
 30
0.0
 11
262.92297
 21
165.201286
 31
0.0
  0
LINE
  5
170
100
AcDbEntity
  8
LAYER_1
 62
     7
100
AcDbLine
 10
262.92297
 20
165.201286
 30
0.0
 11
262.827368
 21
165.279489
 31
0.0
  0
LINE
  5
16F
100
AcDbEntity
  8
LAYER_1
 62
     7
100
AcDbLine
 10
262.827368
 20
165.279489
 30
0.0
 11
262.639955
 21
165.442098
 31
0.0
  0
LINE
  5
16E
100
AcDbEntity
  8
LAYER_1
 62
     7
100
AcDbLine
 10
262.639955
 20
165.442098
 30
0.0
 11
262.456676
 21
165.611252
 31
0.0
  0
LINE
  5
16D
100
AcDbEntity
  8
LAYER_1
 62
     7
100
AcDbLine
 10
262.456676
 20
165.611252
 30
0.0
 11
262.099936
 21
165.966786
 31
0.0
  0
LINE
  5
16C
100
AcDbEntity
  8
LAYER_1
 62
     7
100
AcDbLine
 10
262.099936
 20
165.966786
 30
0.0
 11
261.755943
 21
166.342646
 31
0.0
  0
LINE
  5
16B
100
AcDbEntity
  8
LAYER_1
 62
     7
100
AcDbLine
 10
261.755943
 20
166.342646
 30
0.0
 11
261.423147
 21
166.736593
 31
0.0
  0
LINE
  5
16A
100
AcDbEntity
  8
LAYER_1
 62
     7
100
AcDbLine
 10
261.423147
 20
166.736593
 30
0.0
 11
261.101031
 21
167.147076
 31
0.0
  0
LINE
  5
169
100
AcDbEntity
  8
LAYER_1
 62
     7
100
AcDbLine
 10
261.101031
 20
167.147076
 30
0.0
 11
260.789422
 21
167.572717
 31
0.0
  0
LINE
  5
168
100
AcDbEntity
  8
LAYER_1
 62
     7
100
AcDbLine
 10
260.789422
 20
167.572717
 30
0.0
 11
260.487804
 21
168.012828
 31
0.0
  0
LINE
  5
167
100
AcDbEntity
  8
LAYER_1
 62
     7
100
AcDbLine
 10
260.487804
 20
168.012828
 30
0.0
 11
260.196176
 21
168.466892
 31
0.0
  0
LINE
  5
166
100
AcDbEntity
  8
LAYER_1
 62
     7
100
AcDbLine
 10
260.196176
 20
168.466892
 30
0.0
 11
259.914023
 21
168.934047
 31
0.0
  0
LINE
  5
165
100
AcDbEntity
  8
LAYER_1
 62
     7
100
AcDbLine
 10
259.914023
 20
168.934047
 30
0.0
 11
261.690314
 21
171.534233
 31
0.0
  0
LINE
  5
164
100
AcDbEntity
  8
LAYER_1
 62
     7
100
AcDbLine
 10
261.690314
 20
171.534233
 30
0.0
 11
262.228094
 21
171.44156
 31
0.0
  0
LINE
  5
163
100
AcDbEntity
  8
LAYER_1
 62
     7
100
AcDbLine
 10
262.228094
 20
171.44156
 30
0.0
 11
262.757088
 21
171.334934
 31
0.0
  0
LINE
  5
162
100
AcDbEntity
  8
LAYER_1
 62
     7
100
AcDbLine
 10
262.757088
 20
171.334934
 30
0.0
 11
263.276953
 21
171.214011
 31
0.0
  0
LINE
  5
161
100
AcDbEntity
  8
LAYER_1
 62
     7
100
AcDbLine
 10
263.276953
 20
171.214011
 30
0.0
 11
263.787
 21
171.078446
 31
0.0
  0
LINE
  5
160
100
AcDbEntity
  8
LAYER_1
 62
     7
100
AcDbLine
 10
263.787
 20
171.078446
 30
0.0
 11
264.286366
 21
170.927724
 31
0.0
  0
LINE
  5
15F
100
AcDbEntity
  8
LAYER_1
 62
     7
100
AcDbLine
 10
264.286366
 20
170.927724
 30
0.0
 11
264.774192
 21
170.760981
 31
0.0
  0
LINE
  5
15E
100
AcDbEntity
  8
LAYER_1
 62
     7
100
AcDbLine
 10
264.774192
 20
170.760981
 30
0.0
 11
265.249443
 21
170.577013
 31
0.0
  0
LINE
  5
15D
100
AcDbEntity
  8
LAYER_1
 62
     7
100
AcDbLine
 10
265.249443
 20
170.577013
 30
0.0
 11
265.710396
 21
170.374269
 31
0.0
  0
LINE
  5
15C
100
AcDbEntity
  8
LAYER_1
 62
     7
100
AcDbLine
 10
265.710396
 20
170.374269
 30
0.0
 11
265.934672
 21
170.264887
 31
0.0
  0
LINE
  5
15B
100
AcDbEntity
  8
LAYER_1
 62
     7
100
AcDbLine
 10
265.934672
 20
170.264887
 30
0.0
 11
266.154125
 21
170.149304
 31
0.0
  0
LINE
  5
15A
100
AcDbEntity
  8
LAYER_1
 62
     7
100
AcDbLine
 10
266.154125
 20
170.149304
 30
0.0
 11
266.261784
 21
170.088843
 31
0.0
  0
LINE
  5
159
100
AcDbEntity
  8
LAYER_1
 62
     7
100
AcDbLine
 10
266.261784
 20
170.088843
 30
0.0
 11
266.367893
 21
170.026314
 31
0.0
  0
LINE
  5
158
100
AcDbEntity
  8
LAYER_1
 62
     7
100
AcDbLine
 10
266.367893
 20
170.026314
 30
0.0
 11
266.472279
 21
169.961546
 31
0.0
  0
LINE
  5
157
100
AcDbEntity
  8
LAYER_1
 62
     7
100
AcDbLine
 10
266.472279
 20
169.961546
 30
0.0
 11
266.574254
 21
169.894023
 31
0.0
  0
LINE
  5
156
100
AcDbEntity
  8
LAYER_1
 62
     7
100
AcDbLine
 10
266.574254
 20
169.894023
 30
0.0
 11
268.956365
 21
172.609447
 31
0.0
  0
LINE
  5
155
100
AcDbEntity
  8
LAYER_1
 62
     7
100
AcDbLine
 10
268.956365
 20
172.609447
 30
0.0
 11
268.876095
 21
172.701775
 31
0.0
  0
LINE
  5
154
100
AcDbEntity
  8
LAYER_1
 62
     7
100
AcDbLine
 10
268.876095
 20
172.701775
 30
0.0
 11
268.798408
 21
172.79686
 31
0.0
  0
LINE
  5
153
100
AcDbEntity
  8
LAYER_1
 62
     7
100
AcDbLine
 10
268.798408
 20
172.79686
 30
0.0
 11
268.722616
 21
172.89384
 31
0.0
  0
LINE
  5
152
100
AcDbEntity
  8
LAYER_1
 62
     7
100
AcDbLine
 10
268.722616
 20
172.89384
 30
0.0
 11
268.648718
 21
172.992714
 31
0.0
  0
LINE
  5
151
100
AcDbEntity
  8
LAYER_1
 62
     7
100
AcDbLine
 10
268.648718
 20
172.992714
 30
0.0
 11
268.505747
 21
173.195285
 31
0.0
  0
LINE
  5
150
100
AcDbEntity
  8
LAYER_1
 62
     7
100
AcDbLine
 10
268.505747
 20
173.195285
 30
0.0
 11
268.368115
 21
173.403369
 31
0.0
  0
LINE
  5
14F
100
AcDbEntity
  8
LAYER_1
 62
     7
100
AcDbLine
 10
268.368115
 20
173.403369
 30
0.0
 11
268.106977
 21
173.833834
 31
0.0
  0
LINE
  5
14E
100
AcDbEntity
  8
LAYER_1
 62
     7
100
AcDbLine
 10
268.106977
 20
173.833834
 30
0.0
 11
267.86272
 21
174.281352
 31
0.0
  0
LINE
  5
14D
100
AcDbEntity
  8
LAYER_1
 62
     7
100
AcDbLine
 10
267.86272
 20
174.281352
 30
0.0
 11
267.633793
 21
174.743339
 31
0.0
  0
LINE
  5
14C
100
AcDbEntity
  8
LAYER_1
 62
     7
100
AcDbLine
 10
267.633793
 20
174.743339
 30
0.0
 11
267.419508
 21
175.218762
 31
0.0
  0
LINE
  5
14B
100
AcDbEntity
  8
LAYER_1
 62
     7
100
AcDbLine
 10
267.419508
 20
175.218762
 30
0.0
 11
267.218831
 21
175.706932
 31
0.0
  0
LINE
  5
14A
100
AcDbEntity
  8
LAYER_1
 62
     7
100
AcDbLine
 10
267.218831
 20
175.706932
 30
0.0
 11
267.031418
 21
176.206471
 31
0.0
  0
LINE
  5
149
100
AcDbEntity
  8
LAYER_1
 62
     7
100
AcDbLine
 10
267.031418
 20
176.206471
 30
0.0
 11
266.85658
 21
176.717206
 31
0.0
  0
LINE
  5
148
100
AcDbEntity
  8
LAYER_1
 62
     7
100
AcDbLine
 10
266.85658
 20
176.717206
 30
0.0
 11
266.69466
 21
177.238105
 31
0.0
  0
LINE
  5
147
100
AcDbEntity
  8
LAYER_1
 62
     7
100
AcDbLine
 10
266.69466
 20
177.238105
 30
0.0
 11
269.041631
 21
179.337891
 31
0.0
  0
LINE
  5
146
100
AcDbEntity
  8
LAYER_1
 62
     7
100
AcDbLine
 10
269.041631
 20
179.337891
 30
0.0
 11
269.541515
 21
179.118955
 31
0.0
  0
LINE
  5
145
100
AcDbEntity
  8
LAYER_1
 62
     7
100
AcDbLine
 10
269.541515
 20
179.118955
 30
0.0
 11
270.029685
 21
178.888822
 31
0.0
  0
LINE
  5
144
100
AcDbEntity
  8
LAYER_1
 62
     7
100
AcDbLine
 10
270.029685
 20
178.888822
 30
0.0
 11
270.505452
 21
178.646977
 31
0.0
  0
LINE
  5
143
100
AcDbEntity
  8
LAYER_1
 62
     7
100
AcDbLine
 10
270.505452
 20
178.646977
 30
0.0
 11
270.968129
 21
178.393245
 31
0.0
  0
LINE
  5
142
100
AcDbEntity
  8
LAYER_1
 62
     7
100
AcDbLine
 10
270.968129
 20
178.393245
 30
0.0
 11
271.417025
 21
178.127629
 31
0.0
  0
LINE
  5
141
100
AcDbEntity
  8
LAYER_1
 62
     7
100
AcDbLine
 10
271.417025
 20
178.127629
 30
0.0
 11
271.850935
 21
177.84892
 31
0.0
  0
LINE
  5
140
100
AcDbEntity
  8
LAYER_1
 62
     7
100
AcDbLine
 10
271.850935
 20
177.84892
 30
0.0
 11
272.268308
 21
177.556604
 31
0.0
  0
LINE
  5
13F
100
AcDbEntity
  8
LAYER_1
 62
     7
100
AcDbLine
 10
272.268308
 20
177.556604
 30
0.0
 11
272.66725
 21
177.249301
 31
0.0
  0
LINE
  5
13E
100
AcDbEntity
  8
LAYER_1
 62
     7
100
AcDbLine
 10
272.66725
 20
177.249301
 30
0.0
 11
272.858797
 21
177.089277
 31
0.0
  0
LINE
  5
13D
100
AcDbEntity
  8
LAYER_1
 62
     7
100
AcDbLine
 10
272.858797
 20
177.089277
 30
0.0
 11
273.044143
 21
176.924773
 31
0.0
  0
LINE
  5
13C
100
AcDbEntity
  8
LAYER_1
 62
     7
100
AcDbLine
 10
273.044143
 20
176.924773
 30
0.0
 11
273.134405
 21
176.840196
 31
0.0
  0
LINE
  5
13B
100
AcDbEntity
  8
LAYER_1
 62
     7
100
AcDbLine
 10
273.134405
 20
176.840196
 30
0.0
 11
273.222599
 21
176.754414
 31
0.0
  0
LINE
  5
13A
100
AcDbEntity
  8
LAYER_1
 62
     7
100
AcDbLine
 10
273.222599
 20
176.754414
 30
0.0
 11
273.308038
 21
176.666391
 31
0.0
  0
LINE
  5
139
100
AcDbEntity
  8
LAYER_1
 62
     7
100
AcDbLine
 10
273.308038
 20
176.666391
 30
0.0
 11
273.391064
 21
176.576474
 31
0.0
  0
LINE
  5
138
100
AcDbEntity
  8
LAYER_1
 62
     7
100
AcDbLine
 10
273.391064
 20
176.576474
 30
0.0
 11
276.353847
 21
178.64267
 31
0.0
  0
LINE
  5
137
100
AcDbEntity
  8
LAYER_1
 62
     7
100
AcDbLine
 10
276.353847
 20
178.64267
 30
0.0
 11
276.298036
 21
178.751708
 31
0.0
  0
LINE
  5
136
100
AcDbEntity
  8
LAYER_1
 62
     7
100
AcDbLine
 10
276.298036
 20
178.751708
 30
0.0
 11
276.245154
 21
178.862295
 31
0.0
  0
LINE
  5
135
100
AcDbEntity
  8
LAYER_1
 62
     7
100
AcDbLine
 10
276.245154
 20
178.862295
 30
0.0
 11
276.1952
 21
178.97495
 31
0.0
  0
LINE
  5
134
100
AcDbEntity
  8
LAYER_1
 62
     7
100
AcDbLine
 10
276.1952
 20
178.97495
 30
0.0
 11
276.146796
 21
179.088466
 31
0.0
  0
LINE
  5
133
100
AcDbEntity
  8
LAYER_1
 62
     7
100
AcDbLine
 10
276.146796
 20
179.088466
 30
0.0
 11
276.056535
 21
179.319459
 31
0.0
  0
LINE
  5
132
100
AcDbEntity
  8
LAYER_1
 62
     7
100
AcDbLine
 10
276.056535
 20
179.319459
 30
0.0
 11
275.972475
 21
179.554415
 31
0.0
  0
LINE
  5
131
100
AcDbEntity
  8
LAYER_1
 62
     7
100
AcDbLine
 10
275.972475
 20
179.554415
 30
0.0
 11
275.822096
 21
180.035006
 31
0.0
  0
LINE
  5
130
100
AcDbEntity
  8
LAYER_1
 62
     7
100
AcDbLine
 10
275.822096
 20
180.035006
 30
0.0
 11
275.692044
 21
180.527654
 31
0.0
  0
LINE
  5
12F
100
AcDbEntity
  8
LAYER_1
 62
     7
100
AcDbLine
 10
275.692044
 20
180.527654
 30
0.0
 11
275.580423
 21
181.031155
 31
0.0
  0
LINE
  5
12E
100
AcDbEntity
  8
LAYER_1
 62
     7
100
AcDbLine
 10
275.580423
 20
181.031155
 30
0.0
 11
275.486027
 21
181.54413
 31
0.0
  0
LINE
  5
12D
100
AcDbEntity
  8
LAYER_1
 62
     7
100
AcDbLine
 10
275.486027
 20
181.54413
 30
0.0
 11
275.407996
 21
182.066062
 31
0.0
  0
LINE
  5
12C
100
AcDbEntity
  8
LAYER_1
 62
     7
100
AcDbLine
 10
275.407996
 20
182.066062
 30
0.0
 11
275.345639
 21
182.595917
 31
0.0
  0
LINE
  5
12B
100
AcDbEntity
  8
LAYER_1
 62
     7
100
AcDbLine
 10
275.345639
 20
182.595917
 30
0.0
 11
275.298097
 21
183.133525
 31
0.0
  0
LINE
  5
12A
100
AcDbEntity
  8
LAYER_1
 62
     7
100
AcDbLine
 10
275.298097
 20
183.133525
 30
0.0
 11
275.265541
 21
183.678366
 31
0.0
  0
LINE
  5
129
100
AcDbEntity
  8
LAYER_1
 62
     7
100
AcDbLine
 10
275.265541
 20
183.678366
 30
0.0
 11
278.046939
 21
185.155279
 31
0.0
  0
LINE
  5
128
100
AcDbEntity
  8
LAYER_1
 62
     7
100
AcDbLine
 10
278.046939
 20
185.155279
 30
0.0
 11
278.479815
 21
184.822999
 31
0.0
  0
LINE
  5
127
100
AcDbEntity
  8
LAYER_1
 62
     7
100
AcDbLine
 10
278.479815
 20
184.822999
 30
0.0
 11
278.898739
 21
184.482796
 31
0.0
  0
LINE
  5
126
100
AcDbEntity
  8
LAYER_1
 62
     7
100
AcDbLine
 10
278.898739
 20
184.482796
 30
0.0
 11
279.302848
 21
184.134153
 31
0.0
  0
LINE
  5
125
100
AcDbEntity
  8
LAYER_1
 62
     7
100
AcDbLine
 10
279.302848
 20
184.134153
 30
0.0
 11
279.691455
 21
183.777241
 31
0.0
  0
LINE
  5
124
100
AcDbEntity
  8
LAYER_1
 62
     7
100
AcDbLine
 10
279.691455
 20
183.777241
 30
0.0
 11
280.063525
 21
183.411716
 31
0.0
  0
LINE
  5
123
100
AcDbEntity
  8
LAYER_1
 62
     7
100
AcDbLine
 10
280.063525
 20
183.411716
 30
0.0
 11
280.418198
 21
183.037234
 31
0.0
  0
LINE
  5
122
100
AcDbEntity
  8
LAYER_1
 62
     7
100
AcDbLine
 10
280.418198
 20
183.037234
 30
0.0
 11
280.753406
 21
182.653451
 31
0.0
  0
LINE
  5
121
100
AcDbEntity
  8
LAYER_1
 62
     7
100
AcDbLine
 10
280.753406
 20
182.653451
 30
0.0
 11
281.067426
 21
182.259848
 31
0.0
  0
LINE
  5
120
100
AcDbEntity
  8
LAYER_1
 62
     7
100
AcDbLine
 10
281.067426
 20
182.259848
 30
0.0
 11
281.215221
 21
182.058655
 31
0.0
  0
LINE
  5
11F
100
AcDbEntity
  8
LAYER_1
 62
     7
100
AcDbLine
 10
281.215221
 20
182.058655
 30
0.0
 11
281.355608
 21
181.854188
 31
0.0
  0
LINE
  5
11E
100
AcDbEntity
  8
LAYER_1
 62
     7
100
AcDbLine
 10
281.355608
 20
181.854188
 30
0.0
 11
281.42296
 21
181.750836
 31
0.0
  0
LINE
  5
11D
100
AcDbEntity
  8
LAYER_1
 62
     7
100
AcDbLine
 10
281.42296
 20
181.750836
 30
0.0
 11
281.4879
 21
181.646277
 31
0.0
  0
LINE
  5
11C
100
AcDbEntity
  8
LAYER_1
 62
     7
100
AcDbLine
 10
281.4879
 20
181.646277
 30
0.0
 11
281.550084
 21
181.540685
 31
0.0
  0
LINE
  5
11B
100
AcDbEntity
  8
LAYER_1
 62
     7
100
AcDbLine
 10
281.550084
 20
181.540685
 30
0.0
 11
281.608995
 21
181.43337
 31
0.0
  0
LINE
  5
11A
100
AcDbEntity
  8
LAYER_1
 62
     7
100
AcDbLine
 10
281.608995
 20
181.43337
 30
0.0
 11
284.980193
 21
182.730448
 31
0.0
  0
LINE
  5
119
100
AcDbEntity
  8
LAYER_1
 62
     7
100
AcDbLine
 10
284.980193
 20
182.730448
 30
0.0
 11
284.952116
 21
182.849649
 31
0.0
  0
LINE
  5
118
100
AcDbEntity
  8
LAYER_1
 62
     7
100
AcDbLine
 10
284.952116
 20
182.849649
 30
0.0
 11
284.927311
 21
182.96971
 31
0.0
  0
LINE
  5
117
100
AcDbEntity
  8
LAYER_1
 62
     7
100
AcDbLine
 10
284.927311
 20
182.96971
 30
0.0
 11
284.905607
 21
183.090978
 31
0.0
  0
LINE
  5
116
100
AcDbEntity
  8
LAYER_1
 62
     7
100
AcDbLine
 10
284.905607
 20
183.090978
 30
0.0
 11
284.88597
 21
183.212762
 31
0.0
  0
LINE
  5
115
100
AcDbEntity
  8
LAYER_1
 62
     7
100
AcDbLine
 10
284.88597
 20
183.212762
 30
0.0
 11
284.853414
 21
183.458569
 31
0.0
  0
LINE
  5
114
100
AcDbEntity
  8
LAYER_1
 62
     7
100
AcDbLine
 10
284.853414
 20
183.458569
 30
0.0
 11
284.828092
 21
183.706961
 31
0.0
  0
LINE
  5
113
100
AcDbEntity
  8
LAYER_1
 62
     7
100
AcDbLine
 10
284.828092
 20
183.706961
 30
0.0
 11
284.797087
 21
184.2096
 31
0.0
  0
LINE
  5
112
100
AcDbEntity
  8
LAYER_1
 62
     7
100
AcDbLine
 10
284.797087
 20
184.2096
 30
0.0
 11
284.788646
 21
184.71913
 31
0.0
  0
LINE
  5
111
100
AcDbEntity
  8
LAYER_1
 62
     7
100
AcDbLine
 10
284.788646
 20
184.71913
 30
0.0
 11
284.800876
 21
185.234516
 31
0.0
  0
LINE
  5
110
100
AcDbEntity
  8
LAYER_1
 62
     7
100
AcDbLine
 10
284.800876
 20
185.234516
 30
0.0
 11
284.832227
 21
185.75507
 31
0.0
  0
LINE
  5
10F
100
AcDbEntity
  8
LAYER_1
 62
     7
100
AcDbLine
 10
284.832227
 20
185.75507
 30
0.0
 11
284.881147
 21
186.280619
 31
0.0
  0
LINE
  5
10E
100
AcDbEntity
  8
LAYER_1
 62
     7
100
AcDbLine
 10
284.881147
 20
186.280619
 30
0.0
 11
284.947293
 21
186.81013
 31
0.0
  0
LINE
  5
10D
100
AcDbEntity
  8
LAYER_1
 62
     7
100
AcDbLine
 10
284.947293
 20
186.81013
 30
0.0
 11
285.029975
 21
187.343604
 31
0.0
  0
LINE
  5
10C
100
AcDbEntity
  8
LAYER_1
 62
     7
100
AcDbLine
 10
285.029975
 20
187.343604
 30
0.0
 11
285.128505
 21
187.880177
 31
0.0
  0
LINE
  5
10B
100
AcDbEntity
  8
LAYER_1
 62
     7
100
AcDbLine
 10
285.128505
 20
187.880177
 30
0.0
 11
288.18241
 21
188.648433
 31
0.0
  0
LINE
  5
10A
100
AcDbEntity
  8
LAYER_1
 62
     7
100
AcDbLine
 10
288.18241
 20
188.648433
 30
0.0
 11
288.523646
 21
188.22262
 31
0.0
  0
LINE
  5
109
100
AcDbEntity
  8
LAYER_1
 62
     7
100
AcDbLine
 10
288.523646
 20
188.22262
 30
0.0
 11
288.848691
 21
187.79181
 31
0.0
  0
LINE
  5
108
100
AcDbEntity
  8
LAYER_1
 62
     7
100
AcDbLine
 10
288.848691
 20
187.79181
 30
0.0
 11
289.157716
 21
187.356695
 31
0.0
  0
LINE
  5
107
100
AcDbEntity
  8
LAYER_1
 62
     7
100
AcDbLine
 10
289.157716
 20
187.356695
 30
0.0
 11
289.449516
 21
186.917101
 31
0.0
  0
LINE
  5
106
100
AcDbEntity
  8
LAYER_1
 62
     7
100
AcDbLine
 10
289.449516
 20
186.917101
 30
0.0
 11
289.723401
 21
186.4732
 31
0.0
  0
LINE
  5
105
100
AcDbEntity
  8
LAYER_1
 62
     7
100
AcDbLine
 10
289.723401
 20
186.4732
 30
0.0
 11
289.978166
 21
186.024821
 31
0.0
  0
LINE
  5
104
100
AcDbEntity
  8
LAYER_1
 62
     7
100
AcDbLine
 10
289.978166
 20
186.024821
 30
0.0
 11
290.211743
 21
185.571963
 31
0.0
  0
LINE
  5
103
100
AcDbEntity
  8
LAYER_1
 62
     7
100
AcDbLine
 10
290.211743
 20
185.571963
 30
0.0
 11
290.422411
 21
185.114282
 31
0.0
  0
LINE
  5
102
100
AcDbEntity
  8
LAYER_1
 62
     7
100
AcDbLine
 10
290.422411
 20
185.114282
 30
0.0
 11
290.517668
 21
184.883805
 31
0.0
  0
LINE
  5
101
100
AcDbEntity
  8
LAYER_1
 62
     7
100
AcDbLine
 10
290.517668
 20
184.883805
 30
0.0
 11
290.605173
 21
184.65195
 31
0.0
  0
LINE
  5
100
100
AcDbEntity
  8
LAYER_1
 62
     7
100
AcDbLine
 10
290.605173
 20
184.65195
 30
0.0
 11
290.645825
 21
184.535334
 31
0.0
  0
LINE
  5
FF
100
AcDbEntity
  8
LAYER_1
 62
     7
100
AcDbLine
 10
290.645825
 20
184.535334
 30
0.0
 11
290.683894
 21
184.418201
 31
0.0
  0
LINE
  5
FE
100
AcDbEntity
  8
LAYER_1
 62
     7
100
AcDbLine
 10
290.683894
 20
184.418201
 30
0.0
 11
290.719033
 21
184.300551
 31
0.0
  0
LINE
  5
FD
100
AcDbEntity
  8
LAYER_1
 62
     7
100
AcDbLine
 10
290.719033
 20
184.300551
 30
0.0
 11
290.750556
 21
184.182212
 31
0.0
  0
LINE
  5
FC
100
AcDbEntity
  8
LAYER_1
 62
     7
100
AcDbLine
 10
290.750556
 20
184.182212
 30
0.0
 11
294.334144
 21
184.635069
 31
0.0
  0
LINE
  5
FB
100
AcDbEntity
  8
LAYER_1
 62
     7
100
AcDbLine
 10
294.334144
 20
184.635069
 30
0.0
 11
294.335178
 21
184.757543
 31
0.0
  0
LINE
  5
FA
100
AcDbEntity
  8
LAYER_1
 62
     7
100
AcDbLine
 10
294.335178
 20
184.757543
 30
0.0
 11
294.340001
 21
184.880016
 31
0.0
  0
LINE
  5
F9
100
AcDbEntity
  8
LAYER_1
 62
     7
100
AcDbLine
 10
294.340001
 20
184.880016
 30
0.0
 11
294.347925
 21
185.002833
 31
0.0
  0
LINE
  5
F8
100
AcDbEntity
  8
LAYER_1
 62
     7
100
AcDbLine
 10
294.347925
 20
185.002833
 30
0.0
 11
294.358088
 21
185.125823
 31
0.0
  0
LINE
  5
F7
100
AcDbEntity
  8
LAYER_1
 62
     7
100
AcDbLine
 10
294.358088
 20
185.125823
 30
0.0
 11
294.385304
 21
185.37232
 31
0.0
  0
LINE
  5
F6
100
AcDbEntity
  8
LAYER_1
 62
     7
100
AcDbLine
 10
294.385304
 20
185.37232
 30
0.0
 11
294.420272
 21
185.619505
 31
0.0
  0
LINE
  5
F5
100
AcDbEntity
  8
LAYER_1
 62
     7
100
AcDbLine
 10
294.420272
 20
185.619505
 30
0.0
 11
294.510189
 21
186.115082
 31
0.0
  0
LINE
  5
F4
100
AcDbEntity
  8
LAYER_1
 62
     7
100
AcDbLine
 10
294.510189
 20
186.115082
 30
0.0
 11
294.624221
 21
186.611521
 31
0.0
  0
LINE
  5
F3
100
AcDbEntity
  8
LAYER_1
 62
     7
100
AcDbLine
 10
294.624221
 20
186.611521
 30
0.0
 11
294.759441
 21
187.109337
 31
0.0
  0
LINE
  5
F2
100
AcDbEntity
  8
LAYER_1
 62
     7
100
AcDbLine
 10
294.759441
 20
187.109337
 30
0.0
 11
294.914299
 21
187.607498
 31
0.0
  0
LINE
  5
F1
100
AcDbEntity
  8
LAYER_1
 62
     7
100
AcDbLine
 10
294.914299
 20
187.607498
 30
0.0
 11
295.087587
 21
188.105659
 31
0.0
  0
LINE
  5
F0
100
AcDbEntity
  8
LAYER_1
 62
     7
100
AcDbLine
 10
295.087587
 20
188.105659
 30
0.0
 11
295.278445
 21
188.603992
 31
0.0
  0
LINE
  5
EF
100
AcDbEntity
  8
LAYER_1
 62
     7
100
AcDbLine
 10
295.278445
 20
188.603992
 30
0.0
 11
295.486529
 21
189.102153
 31
0.0
  0
LINE
  5
EE
100
AcDbEntity
  8
LAYER_1
 62
     7
100
AcDbLine
 10
295.486529
 20
189.102153
 30
0.0
 11
295.710805
 21
189.599624
 31
0.0
  0
LINE
  5
ED
100
AcDbEntity
  8
LAYER_1
 62
     7
100
AcDbLine
 10
295.710805
 20
189.599624
 30
0.0
 11
298.859622
 21
189.614955
 31
0.0
  0
LINE
  5
EC
100
AcDbEntity
  8
LAYER_1
 62
     7
100
AcDbLine
 10
298.859622
 20
189.614955
 30
0.0
 11
299.088721
 21
189.11955
 31
0.0
  0
LINE
  5
EB
100
AcDbEntity
  8
LAYER_1
 62
     7
100
AcDbLine
 10
299.088721
 20
189.11955
 30
0.0
 11
299.301628
 21
188.623629
 31
0.0
  0
LINE
  5
EA
100
AcDbEntity
  8
LAYER_1
 62
     7
100
AcDbLine
 10
299.301628
 20
188.623629
 30
0.0
 11
299.497309
 21
188.127018
 31
0.0
  0
LINE
  5
E9
100
AcDbEntity
  8
LAYER_1
 62
     7
100
AcDbLine
 10
299.497309
 20
188.127018
 30
0.0
 11
299.67542
 21
187.630235
 31
0.0
  0
LINE
  5
E8
100
AcDbEntity
  8
LAYER_1
 62
     7
100
AcDbLine
 10
299.67542
 20
187.630235
 30
0.0
 11
299.835273
 21
187.133797
 31
0.0
  0
LINE
  5
E7
100
AcDbEntity
  8
LAYER_1
 62
     7
100
AcDbLine
 10
299.835273
 20
187.133797
 30
0.0
 11
299.975144
 21
186.637531
 31
0.0
  0
LINE
  5
E6
100
AcDbEntity
  8
LAYER_1
 62
     7
100
AcDbLine
 10
299.975144
 20
186.637531
 30
0.0
 11
300.094
 21
186.141954
 31
0.0
  0
LINE
  5
E5
100
AcDbEntity
  8
LAYER_1
 62
     7
100
AcDbLine
 10
300.094
 20
186.141954
 30
0.0
 11
300.18874
 21
185.647411
 31
0.0
  0
LINE
  5
E4
100
AcDbEntity
  8
LAYER_1
 62
     7
100
AcDbLine
 10
300.18874
 20
185.647411
 30
0.0
 11
300.226291
 21
185.40057
 31
0.0
  0
LINE
  5
E3
100
AcDbEntity
  8
LAYER_1
 62
     7
100
AcDbLine
 10
300.226291
 20
185.40057
 30
0.0
 11
300.255575
 21
185.154418
 31
0.0
  0
LINE
  5
E2
100
AcDbEntity
  8
LAYER_1
 62
     7
100
AcDbLine
 10
300.255575
 20
185.154418
 30
0.0
 11
300.266943
 21
185.0316
 31
0.0
  0
LINE
  5
E1
100
AcDbEntity
  8
LAYER_1
 62
     7
100
AcDbLine
 10
300.266943
 20
185.0316
 30
0.0
 11
300.275901
 21
184.90861
 31
0.0
  0
LINE
  5
E0
100
AcDbEntity
  8
LAYER_1
 62
     7
100
AcDbLine
 10
300.275901
 20
184.90861
 30
0.0
 11
300.282102
 21
184.786137
 31
0.0
  0
LINE
  5
DF
100
AcDbEntity
  8
LAYER_1
 62
     7
100
AcDbLine
 10
300.282102
 20
184.786137
 30
0.0
 11
300.284169
 21
184.663836
 31
0.0
  0
LINE
  5
DE
100
AcDbEntity
  8
LAYER_1
 62
     7
100
AcDbLine
 10
300.284169
 20
184.663836
 30
0.0
 11
303.872236
 21
184.245774
 31
0.0
  0
LINE
  5
DD
100
AcDbEntity
  8
LAYER_1
 62
     7
100
AcDbLine
 10
303.872236
 20
184.245774
 30
0.0
 11
303.902553
 21
184.364285
 31
0.0
  0
LINE
  5
DC
100
AcDbEntity
  8
LAYER_1
 62
     7
100
AcDbLine
 10
303.902553
 20
184.364285
 30
0.0
 11
303.936659
 21
184.482107
 31
0.0
  0
LINE
  5
DB
100
AcDbEntity
  8
LAYER_1
 62
     7
100
AcDbLine
 10
303.936659
 20
184.482107
 30
0.0
 11
303.973522
 21
184.599585
 31
0.0
  0
LINE
  5
DA
100
AcDbEntity
  8
LAYER_1
 62
     7
100
AcDbLine
 10
303.973522
 20
184.599585
 30
0.0
 11
304.012796
 21
184.716546
 31
0.0
  0
LINE
  5
D9
100
AcDbEntity
  8
LAYER_1
 62
     7
100
AcDbLine
 10
304.012796
 20
184.716546
 30
0.0
 11
304.098234
 21
184.949607
 31
0.0
  0
LINE
  5
D8
100
AcDbEntity
  8
LAYER_1
 62
     7
100
AcDbLine
 10
304.098234
 20
184.949607
 30
0.0
 11
304.191252
 21
185.181117
 31
0.0
  0
LINE
  5
D7
100
AcDbEntity
  8
LAYER_1
 62
     7
100
AcDbLine
 10
304.191252
 20
185.181117
 30
0.0
 11
304.397268
 21
185.640693
 31
0.0
  0
LINE
  5
D6
100
AcDbEntity
  8
LAYER_1
 62
     7
100
AcDbLine
 10
304.397268
 20
185.640693
 30
0.0
 11
304.626712
 21
186.095445
 31
0.0
  0
LINE
  5
D5
100
AcDbEntity
  8
LAYER_1
 62
     7
100
AcDbLine
 10
304.626712
 20
186.095445
 30
0.0
 11
304.87717
 21
186.546236
 31
0.0
  0
LINE
  5
D4
100
AcDbEntity
  8
LAYER_1
 62
     7
100
AcDbLine
 10
304.87717
 20
186.546236
 30
0.0
 11
305.146577
 21
186.993065
 31
0.0
  0
LINE
  5
D3
100
AcDbEntity
  8
LAYER_1
 62
     7
100
AcDbLine
 10
305.146577
 20
186.993065
 30
0.0
 11
305.434242
 21
187.435243
 31
0.0
  0
LINE
  5
D2
100
AcDbEntity
  8
LAYER_1
 62
     7
100
AcDbLine
 10
305.434242
 20
187.435243
 30
0.0
 11
305.738789
 21
187.873287
 31
0.0
  0
LINE
  5
D1
100
AcDbEntity
  8
LAYER_1
 62
     7
100
AcDbLine
 10
305.738789
 20
187.873287
 30
0.0
 11
306.059871
 21
188.307197
 31
0.0
  0
LINE
  5
D0
100
AcDbEntity
  8
LAYER_1
 62
     7
100
AcDbLine
 10
306.059871
 20
188.307197
 30
0.0
 11
306.396802
 21
188.736628
 31
0.0
  0
LINE
  5
CF
100
AcDbEntity
  8
LAYER_1
 62
     7
100
AcDbLine
 10
306.396802
 20
188.736628
 30
0.0
 11
309.458114
 21
187.997827
 31
0.0
  0
LINE
  5
CE
100
AcDbEntity
  8
LAYER_1
 62
     7
100
AcDbLine
 10
309.458114
 20
187.997827
 30
0.0
 11
309.561811
 21
187.462115
 31
0.0
  0
LINE
  5
CD
100
AcDbEntity
  8
LAYER_1
 62
     7
100
AcDbLine
 10
309.561811
 20
187.462115
 30
0.0
 11
309.649661
 21
186.929503
 31
0.0
  0
LINE
  5
CC
100
AcDbEntity
  8
LAYER_1
 62
     7
100
AcDbLine
 10
309.649661
 20
186.929503
 30
0.0
 11
309.720974
 21
186.400681
 31
0.0
  0
LINE
  5
CB
100
AcDbEntity
  8
LAYER_1
 62
     7
100
AcDbLine
 10
309.720974
 20
186.400681
 30
0.0
 11
309.775062
 21
185.875821
 31
0.0
  0
LINE
  5
CA
100
AcDbEntity
  8
LAYER_1
 62
     7
100
AcDbLine
 10
309.775062
 20
185.875821
 30
0.0
 11
309.811236
 21
185.355439
 31
0.0
  0
LINE
  5
C9
100
AcDbEntity
  8
LAYER_1
 62
     7
100
AcDbLine
 10
309.811236
 20
185.355439
 30
0.0
 11
309.828461
 21
184.840053
 31
0.0
  0
LINE
  5
C8
100
AcDbEntity
  8
LAYER_1
 62
     7
100
AcDbLine
 10
309.828461
 20
184.840053
 30
0.0
 11
309.825016
 21
184.330523
 31
0.0
  0
LINE
  5
C7
100
AcDbEntity
  8
LAYER_1
 62
     7
100
AcDbLine
 10
309.825016
 20
184.330523
 30
0.0
 11
309.798834
 21
183.827711
 31
0.0
  0
LINE
  5
C6
100
AcDbEntity
  8
LAYER_1
 62
     7
100
AcDbLine
 10
309.798834
 20
183.827711
 30
0.0
 11
309.776096
 21
183.578975
 31
0.0
  0
LINE
  5
C5
100
AcDbEntity
  8
LAYER_1
 62
     7
100
AcDbLine
 10
309.776096
 20
183.578975
 30
0.0
 11
309.745779
 21
183.332996
 31
0.0
  0
LINE
  5
C4
100
AcDbEntity
  8
LAYER_1
 62
     7
100
AcDbLine
 10
309.745779
 20
183.332996
 30
0.0
 11
309.72752
 21
183.210695
 31
0.0
  0
LINE
  5
C3
100
AcDbEntity
  8
LAYER_1
 62
     7
100
AcDbLine
 10
309.72752
 20
183.210695
 30
0.0
 11
309.70685
 21
183.0896
 31
0.0
  0
LINE
  5
C2
100
AcDbEntity
  8
LAYER_1
 62
     7
100
AcDbLine
 10
309.70685
 20
183.0896
 30
0.0
 11
309.683423
 21
182.969021
 31
0.0
  0
LINE
  5
C1
100
AcDbEntity
  8
LAYER_1
 62
     7
100
AcDbLine
 10
309.683423
 20
182.969021
 30
0.0
 11
309.656207
 21
182.849821
 31
0.0
  0
LINE
  5
C0
100
AcDbEntity
  8
LAYER_1
 62
     7
100
AcDbLine
 10
309.656207
 20
182.849821
 30
0.0
 11
313.039979
 21
181.585299
 31
0.0
  0
LINE
  5
BF
100
AcDbEntity
  8
LAYER_1
 62
     7
100
AcDbLine
 10
313.039979
 20
181.585299
 30
0.0
 11
313.097512
 21
181.692958
 31
0.0
  0
LINE
  5
BE
100
AcDbEntity
  8
LAYER_1
 62
     7
100
AcDbLine
 10
313.097512
 20
181.692958
 30
0.0
 11
313.158835
 21
181.799411
 31
0.0
  0
LINE
  5
BD
100
AcDbEntity
  8
LAYER_1
 62
     7
100
AcDbLine
 10
313.158835
 20
181.799411
 30
0.0
 11
313.222914
 21
181.904487
 31
0.0
  0
LINE
  5
BC
100
AcDbEntity
  8
LAYER_1
 62
     7
100
AcDbLine
 10
313.222914
 20
181.904487
 30
0.0
 11
313.28906
 21
182.008701
 31
0.0
  0
LINE
  5
BB
100
AcDbEntity
  8
LAYER_1
 62
     7
100
AcDbLine
 10
313.28906
 20
182.008701
 30
0.0
 11
313.427897
 21
182.214373
 31
0.0
  0
LINE
  5
BA
100
AcDbEntity
  8
LAYER_1
 62
     7
100
AcDbLine
 10
313.427897
 20
182.214373
 30
0.0
 11
313.573625
 21
182.416772
 31
0.0
  0
LINE
  5
B9
100
AcDbEntity
  8
LAYER_1
 62
     7
100
AcDbLine
 10
313.573625
 20
182.416772
 30
0.0
 11
313.883339
 21
182.81382
 31
0.0
  0
LINE
  5
B8
100
AcDbEntity
  8
LAYER_1
 62
     7
100
AcDbLine
 10
313.883339
 20
182.81382
 30
0.0
 11
314.215101
 21
183.200532
 31
0.0
  0
LINE
  5
B7
100
AcDbEntity
  8
LAYER_1
 62
     7
100
AcDbLine
 10
314.215101
 20
183.200532
 30
0.0
 11
314.566157
 21
183.578459
 31
0.0
  0
LINE
  5
B6
100
AcDbEntity
  8
LAYER_1
 62
     7
100
AcDbLine
 10
314.566157
 20
183.578459
 30
0.0
 11
314.934782
 21
183.947601
 31
0.0
  0
LINE
  5
B5
100
AcDbEntity
  8
LAYER_1
 62
     7
100
AcDbLine
 10
314.934782
 20
183.947601
 30
0.0
 11
315.319599
 21
184.30813
 31
0.0
  0
LINE
  5
B4
100
AcDbEntity
  8
LAYER_1
 62
     7
100
AcDbLine
 10
315.319599
 20
184.30813
 30
0.0
 11
315.720608
 21
184.660735
 31
0.0
  0
LINE
  5
B3
100
AcDbEntity
  8
LAYER_1
 62
     7
100
AcDbLine
 10
315.720608
 20
184.660735
 30
0.0
 11
316.136087
 21
185.005073
 31
0.0
  0
LINE
  5
B2
100
AcDbEntity
  8
LAYER_1
 62
     7
100
AcDbLine
 10
316.136087
 20
185.005073
 30
0.0
 11
316.56569
 21
185.341486
 31
0.0
  0
LINE
  5
B1
100
AcDbEntity
  8
LAYER_1
 62
     7
100
AcDbLine
 10
316.56569
 20
185.341486
 30
0.0
 11
319.361385
 21
183.891446
 31
0.0
  0
LINE
  5
B0
100
AcDbEntity
  8
LAYER_1
 62
     7
100
AcDbLine
 10
319.361385
 20
183.891446
 30
0.0
 11
319.333824
 21
183.346431
 31
0.0
  0
LINE
  5
AF
100
AcDbEntity
  8
LAYER_1
 62
     7
100
AcDbLine
 10
319.333824
 20
183.346431
 30
0.0
 11
319.291794
 21
182.80848
 31
0.0
  0
LINE
  5
AE
100
AcDbEntity
  8
LAYER_1
 62
     7
100
AcDbLine
 10
319.291794
 20
182.80848
 30
0.0
 11
319.234261
 21
182.277935
 31
0.0
  0
LINE
  5
AD
100
AcDbEntity
  8
LAYER_1
 62
     7
100
AcDbLine
 10
319.234261
 20
182.277935
 30
0.0
 11
319.16157
 21
181.755142
 31
0.0
  0
LINE
  5
AC
100
AcDbEntity
  8
LAYER_1
 62
     7
100
AcDbLine
 10
319.16157
 20
181.755142
 30
0.0
 11
319.071997
 21
181.241478
 31
0.0
  0
LINE
  5
AB
100
AcDbEntity
  8
LAYER_1
 62
     7
100
AcDbLine
 10
319.071997
 20
181.241478
 30
0.0
 11
318.965544
 21
180.736944
 31
0.0
  0
LINE
  5
AA
100
AcDbEntity
  8
LAYER_1
 62
     7
100
AcDbLine
 10
318.965544
 20
180.736944
 30
0.0
 11
318.839798
 21
180.242917
 31
0.0
  0
LINE
  5
A9
100
AcDbEntity
  8
LAYER_1
 62
     7
100
AcDbLine
 10
318.839798
 20
180.242917
 30
0.0
 11
318.69407
 21
179.760948
 31
0.0
  0
LINE
  5
A8
100
AcDbEntity
  8
LAYER_1
 62
     7
100
AcDbLine
 10
318.69407
 20
179.760948
 30
0.0
 11
318.612766
 21
179.524959
 31
0.0
  0
LINE
  5
A7
100
AcDbEntity
  8
LAYER_1
 62
     7
100
AcDbLine
 10
318.612766
 20
179.524959
 30
0.0
 11
318.524227
 21
179.293449
 31
0.0
  0
LINE
  5
A6
100
AcDbEntity
  8
LAYER_1
 62
     7
100
AcDbLine
 10
318.524227
 20
179.293449
 30
0.0
 11
318.477374
 21
179.179072
 31
0.0
  0
LINE
  5
A5
100
AcDbEntity
  8
LAYER_1
 62
     7
100
AcDbLine
 10
318.477374
 20
179.179072
 30
0.0
 11
318.428109
 21
179.066245
 31
0.0
  0
LINE
  5
A4
100
AcDbEntity
  8
LAYER_1
 62
     7
100
AcDbLine
 10
318.428109
 20
179.066245
 30
0.0
 11
318.376432
 21
178.955141
 31
0.0
  0
LINE
  5
A3
100
AcDbEntity
  8
LAYER_1
 62
     7
100
AcDbLine
 10
318.376432
 20
178.955141
 30
0.0
 11
318.321655
 21
178.845586
 31
0.0
  0
LINE
  5
A2
100
AcDbEntity
  8
LAYER_1
 62
     7
100
AcDbLine
 10
318.321655
 20
178.845586
 30
0.0
 11
321.304419
 21
176.808157
 31
0.0
  0
LINE
  5
A1
100
AcDbEntity
  8
LAYER_1
 62
     7
100
AcDbLine
 10
321.304419
 20
176.808157
 30
0.0
 11
321.386412
 21
176.898763
 31
0.0
  0
LINE
  5
A0
100
AcDbEntity
  8
LAYER_1
 62
     7
100
AcDbLine
 10
321.386412
 20
176.898763
 30
0.0
 11
321.471162
 21
176.987474
 31
0.0
  0
LINE
  5
9F
100
AcDbEntity
  8
LAYER_1
 62
     7
100
AcDbLine
 10
321.471162
 20
176.987474
 30
0.0
 11
321.558667
 21
177.074291
 31
0.0
  0
LINE
  5
9E
100
AcDbEntity
  8
LAYER_1
 62
     7
100
AcDbLine
 10
321.558667
 20
177.074291
 30
0.0
 11
321.647895
 21
177.159729
 31
0.0
  0
LINE
  5
9D
100
AcDbEntity
  8
LAYER_1
 62
     7
100
AcDbLine
 10
321.647895
 20
177.159729
 30
0.0
 11
321.831519
 21
177.325955
 31
0.0
  0
LINE
  5
9C
100
AcDbEntity
  8
LAYER_1
 62
     7
100
AcDbLine
 10
321.831519
 20
177.325955
 30
0.0
 11
322.021688
 21
177.487874
 31
0.0
  0
LINE
  5
9B
100
AcDbEntity
  8
LAYER_1
 62
     7
100
AcDbLine
 10
322.021688
 20
177.487874
 30
0.0
 11
322.417529
 21
177.798966
 31
0.0
  0
LINE
  5
9A
100
AcDbEntity
  8
LAYER_1
 62
     7
100
AcDbLine
 10
322.417529
 20
177.798966
 30
0.0
 11
322.831974
 21
178.095417
 31
0.0
  0
LINE
  5
99
100
AcDbEntity
  8
LAYER_1
 62
     7
100
AcDbLine
 10
322.831974
 20
178.095417
 30
0.0
 11
323.2633
 21
178.378087
 31
0.0
  0
LINE
  5
98
100
AcDbEntity
  8
LAYER_1
 62
     7
100
AcDbLine
 10
323.2633
 20
178.378087
 30
0.0
 11
323.70944
 21
178.648183
 31
0.0
  0
LINE
  5
97
100
AcDbEntity
  8
LAYER_1
 62
     7
100
AcDbLine
 10
323.70944
 20
178.648183
 30
0.0
 11
324.169705
 21
178.90622
 31
0.0
  0
LINE
  5
96
100
AcDbEntity
  8
LAYER_1
 62
     7
100
AcDbLine
 10
324.169705
 20
178.90622
 30
0.0
 11
324.643061
 21
179.152717
 31
0.0
  0
LINE
  5
95
100
AcDbEntity
  8
LAYER_1
 62
     7
100
AcDbLine
 10
324.643061
 20
179.152717
 30
0.0
 11
325.129164
 21
179.387672
 31
0.0
  0
LINE
  5
94
100
AcDbEntity
  8
LAYER_1
 62
     7
100
AcDbLine
 10
325.129164
 20
179.387672
 30
0.0
 11
325.62698
 21
179.611431
 31
0.0
  0
LINE
  5
93
100
AcDbEntity
  8
LAYER_1
 62
     7
100
AcDbLine
 10
325.62698
 20
179.611431
 30
0.0
 11
327.994105
 21
177.534555
 31
0.0
  0
LINE
  5
92
100
AcDbEntity
  8
LAYER_1
 62
     7
100
AcDbLine
 10
327.994105
 20
177.534555
 30
0.0
 11
327.837009
 21
177.011934
 31
0.0
  0
LINE
  5
91
100
AcDbEntity
  8
LAYER_1
 62
     7
100
AcDbLine
 10
327.837009
 20
177.011934
 30
0.0
 11
327.66751
 21
176.499649
 31
0.0
  0
LINE
  5
90
100
AcDbEntity
  8
LAYER_1
 62
     7
100
AcDbLine
 10
327.66751
 20
176.499649
 30
0.0
 11
327.48492
 21
175.998215
 31
0.0
  0
LINE
  5
8F
100
AcDbEntity
  8
LAYER_1
 62
     7
100
AcDbLine
 10
327.48492
 20
175.998215
 30
0.0
 11
327.288894
 21
175.508322
 31
0.0
  0
LINE
  5
8E
100
AcDbEntity
  8
LAYER_1
 62
     7
100
AcDbLine
 10
327.288894
 20
175.508322
 30
0.0
 11
327.079088
 21
175.030488
 31
0.0
  0
LINE
  5
8D
100
AcDbEntity
  8
LAYER_1
 62
     7
100
AcDbLine
 10
327.079088
 20
175.030488
 30
0.0
 11
326.854812
 21
174.566261
 31
0.0
  0
LINE
  5
8C
100
AcDbEntity
  8
LAYER_1
 62
     7
100
AcDbLine
 10
326.854812
 20
174.566261
 30
0.0
 11
326.615034
 21
174.116676
 31
0.0
  0
LINE
  5
8B
100
AcDbEntity
  8
LAYER_1
 62
     7
100
AcDbLine
 10
326.615034
 20
174.116676
 30
0.0
 11
326.35803
 21
173.6838
 31
0.0
  0
LINE
  5
8A
100
AcDbEntity
  8
LAYER_1
 62
     7
100
AcDbLine
 10
326.35803
 20
173.6838
 30
0.0
 11
326.222293
 21
173.474166
 31
0.0
  0
LINE
  5
89
100
AcDbEntity
  8
LAYER_1
 62
     7
100
AcDbLine
 10
326.222293
 20
173.474166
 30
0.0
 11
326.081044
 21
173.270216
 31
0.0
  0
LINE
  5
88
100
AcDbEntity
  8
LAYER_1
 62
     7
100
AcDbLine
 10
326.081044
 20
173.270216
 30
0.0
 11
326.008008
 21
173.170653
 31
0.0
  0
LINE
  5
87
100
AcDbEntity
  8
LAYER_1
 62
     7
100
AcDbLine
 10
326.008008
 20
173.170653
 30
0.0
 11
325.933249
 21
173.072812
 31
0.0
  0
LINE
  5
86
100
AcDbEntity
  8
LAYER_1
 62
     7
100
AcDbLine
 10
325.933249
 20
173.072812
 30
0.0
 11
325.856424
 21
172.977211
 31
0.0
  0
LINE
  5
85
100
AcDbEntity
  8
LAYER_1
 62
     7
100
AcDbLine
 10
325.856424
 20
172.977211
 30
0.0
 11
325.777186
 21
172.884193
 31
0.0
  0
LINE
  5
84
100
AcDbEntity
  8
LAYER_1
 62
     7
100
AcDbLine
 10
325.777186
 20
172.884193
 30
0.0
 11
328.185653
 21
170.192023
 31
0.0
  0
LINE
  5
83
100
AcDbEntity
  8
LAYER_1
 62
     7
100
AcDbLine
 10
328.185653
 20
170.192023
 30
0.0
 11
328.286938
 21
170.260581
 31
0.0
  0
LINE
  5
82
100
AcDbEntity
  8
LAYER_1
 62
     7
100
AcDbLine
 10
328.286938
 20
170.260581
 30
0.0
 11
328.390636
 21
170.326382
 31
0.0
  0
LINE
  5
81
100
AcDbEntity
  8
LAYER_1
 62
     7
100
AcDbLine
 10
328.390636
 20
170.326382
 30
0.0
 11
328.496056
 21
170.3896
 31
0.0
  0
LINE
  5
80
100
AcDbEntity
  8
LAYER_1
 62
     7
100
AcDbLine
 10
328.496056
 20
170.3896
 30
0.0
 11
328.603198
 21
170.451095
 31
0.0
  0
LINE
  5
7F
100
AcDbEntity
  8
LAYER_1
 62
     7
100
AcDbLine
 10
328.603198
 20
170.451095
 30
0.0
 11
328.821273
 21
170.568917
 31
0.0
  0
LINE
  5
7E
100
AcDbEntity
  8
LAYER_1
 62
     7
100
AcDbLine
 10
328.821273
 20
170.568917
 30
0.0
 11
329.044515
 21
170.680366
 31
0.0
  0
LINE
  5
7D
100
AcDbEntity
  8
LAYER_1
 62
     7
100
AcDbLine
 10
329.044515
 20
170.680366
 30
0.0
 11
329.503402
 21
170.887588
 31
0.0
  0
LINE
  5
7C
100
AcDbEntity
  8
LAYER_1
 62
     7
100
AcDbLine
 10
329.503402
 20
170.887588
 30
0.0
 11
329.976758
 21
171.076035
 31
0.0
  0
LINE
  5
7B
100
AcDbEntity
  8
LAYER_1
 62
     7
100
AcDbLine
 10
329.976758
 20
171.076035
 30
0.0
 11
330.463205
 21
171.247601
 31
0.0
  0
LINE
  5
7A
100
AcDbEntity
  8
LAYER_1
 62
     7
100
AcDbLine
 10
330.463205
 20
171.247601
 30
0.0
 11
330.961022
 21
171.403147
 31
0.0
  0
LINE
  5
79
100
AcDbEntity
  8
LAYER_1
 62
     7
100
AcDbLine
 10
330.961022
 20
171.403147
 30
0.0
 11
331.469862
 21
171.543362
 31
0.0
  0
LINE
  5
78
100
AcDbEntity
  8
LAYER_1
 62
     7
100
AcDbLine
 10
331.469862
 20
171.543362
 30
0.0
 11
331.988349
 21
171.669453
 31
0.0
  0
LINE
  5
77
100
AcDbEntity
  8
LAYER_1
 62
     7
100
AcDbLine
 10
331.988349
 20
171.669453
 30
0.0
 11
332.516482
 21
171.781074
 31
0.0
  0
LINE
  5
76
100
AcDbEntity
  8
LAYER_1
 62
     7
100
AcDbLine
 10
332.516482
 20
171.781074
 30
0.0
 11
333.053228
 21
171.879259
 31
0.0
  0
LINE
  5
75
100
AcDbEntity
  8
LAYER_1
 62
     7
100
AcDbLine
 10
333.053228
 20
171.879259
 30
0.0
 11
334.854669
 21
169.296471
 31
0.0
  0
LINE
  5
74
100
AcDbEntity
  8
LAYER_1
 62
     7
100
AcDbLine
 10
334.854669
 20
169.296471
 30
0.0
 11
334.576994
 21
168.826388
 31
0.0
  0
LINE
  5
73
100
AcDbEntity
  8
LAYER_1
 62
     7
100
AcDbLine
 10
334.576994
 20
168.826388
 30
0.0
 11
334.289673
 21
168.36974
 31
0.0
  0
LINE
  5
72
100
AcDbEntity
  8
LAYER_1
 62
     7
100
AcDbLine
 10
334.289673
 20
168.36974
 30
0.0
 11
333.992361
 21
167.926529
 31
0.0
  0
LINE
  5
71
100
AcDbEntity
  8
LAYER_1
 62
     7
100
AcDbLine
 10
333.992361
 20
167.926529
 30
0.0
 11
333.684714
 21
167.497786
 31
0.0
  0
LINE
  5
70
100
AcDbEntity
  8
LAYER_1
 62
     7
100
AcDbLine
 10
333.684714
 20
167.497786
 30
0.0
 11
333.366732
 21
167.084203
 31
0.0
  0
LINE
  5
6F
100
AcDbEntity
  8
LAYER_1
 62
     7
100
AcDbLine
 10
333.366732
 20
167.084203
 30
0.0
 11
333.03807
 21
166.686983
 31
0.0
  0
LINE
  5
6E
100
AcDbEntity
  8
LAYER_1
 62
     7
100
AcDbLine
 10
333.03807
 20
166.686983
 30
0.0
 11
332.697694
 21
166.30785
 31
0.0
  0
LINE
  5
6D
100
AcDbEntity
  8
LAYER_1
 62
     7
100
AcDbLine
 10
332.697694
 20
166.30785
 30
0.0
 11
332.344227
 21
165.949044
 31
0.0
  0
LINE
  5
6C
100
AcDbEntity
  8
LAYER_1
 62
     7
100
AcDbLine
 10
332.344227
 20
165.949044
 30
0.0
 11
332.162326
 21
165.777995
 31
0.0
  0
LINE
  5
6B
100
AcDbEntity
  8
LAYER_1
 62
     7
100
AcDbLine
 10
332.162326
 20
165.777995
 30
0.0
 11
331.976636
 21
165.613664
 31
0.0
  0
LINE
  5
6A
100
AcDbEntity
  8
LAYER_1
 62
     7
100
AcDbLine
 10
331.976636
 20
165.613664
 30
0.0
 11
331.881896
 21
165.534427
 31
0.0
  0
LINE
  5
69
100
AcDbEntity
  8
LAYER_1
 62
     7
100
AcDbLine
 10
331.881896
 20
165.534427
 30
0.0
 11
331.786122
 21
165.457601
 31
0.0
  0
LINE
  5
68
100
AcDbEntity
  8
LAYER_1
 62
     7
100
AcDbLine
 10
331.786122
 20
165.457601
 30
0.0
 11
331.688626
 21
165.382842
 31
0.0
  0
LINE
  5
67
100
AcDbEntity
  8
LAYER_1
 62
     7
100
AcDbLine
 10
331.688626
 20
165.382842
 30
0.0
 11
331.589062
 21
165.311529
 31
0.0
  0
LINE
  5
66
100
AcDbEntity
  8
LAYER_1
 62
     7
100
AcDbLine
 10
331.589062
 20
165.311529
 30
0.0
 11
333.28336
 21
162.121198
 31
0.0
  0
LINE
  5
65
100
AcDbEntity
  8
LAYER_1
 62
     7
100
AcDbLine
 10
333.28336
 20
162.121198
 30
0.0
 11
333.398082
 21
162.163745
 31
0.0
  0
LINE
  5
64
100
AcDbEntity
  8
LAYER_1
 62
     7
100
AcDbLine
 10
333.398082
 20
162.163745
 30
0.0
 11
333.514526
 21
162.202847
 31
0.0
  0
LINE
  5
63
100
AcDbEntity
  8
LAYER_1
 62
     7
100
AcDbLine
 10
333.514526
 20
162.202847
 30
0.0
 11
333.632004
 21
162.23902
 31
0.0
  0
LINE
  5
62
100
AcDbEntity
  8
LAYER_1
 62
     7
100
AcDbLine
 10
333.632004
 20
162.23902
 30
0.0
 11
333.750515
 21
162.273127
 31
0.0
  0
LINE
  5
61
100
AcDbEntity
  8
LAYER_1
 62
     7
100
AcDbLine
 10
333.750515
 20
162.273127
 30
0.0
 11
333.990983
 21
162.335139
 31
0.0
  0
LINE
  5
60
100
AcDbEntity
  8
LAYER_1
 62
     7
100
AcDbLine
 10
333.990983
 20
162.335139
 30
0.0
 11
334.234207
 21
162.389916
 31
0.0
  0
LINE
  5
5F
100
AcDbEntity
  8
LAYER_1
 62
     7
100
AcDbLine
 10
334.234207
 20
162.389916
 30
0.0
 11
334.729612
 21
162.481383
 31
0.0
  0
LINE
  5
5E
100
AcDbEntity
  8
LAYER_1
 62
     7
100
AcDbLine
 10
334.729612
 20
162.481383
 30
0.0
 11
335.234318
 21
162.551318
 31
0.0
  0
LINE
  5
5D
100
AcDbEntity
  8
LAYER_1
 62
     7
100
AcDbLine
 10
335.234318
 20
162.551318
 30
0.0
 11
335.747293
 21
162.601272
 31
0.0
  0
LINE
  5
5C
100
AcDbEntity
  8
LAYER_1
 62
     7
100
AcDbLine
 10
335.747293
 20
162.601272
 30
0.0
 11
336.268191
 21
162.632967
 31
0.0
  0
LINE
  5
5B
100
AcDbEntity
  8
LAYER_1
 62
     7
100
AcDbLine
 10
336.268191
 20
162.632967
 30
0.0
 11
336.795635
 21
162.647781
 31
0.0
  0
LINE
  5
5A
100
AcDbEntity
  8
LAYER_1
 62
     7
100
AcDbLine
 10
336.795635
 20
162.647781
 30
0.0
 11
337.329281
 21
162.645714
 31
0.0
  0
LINE
  5
59
100
AcDbEntity
  8
LAYER_1
 62
     7
100
AcDbLine
 10
337.329281
 20
162.645714
 30
0.0
 11
337.868783
 21
162.627972
 31
0.0
  0
LINE
  5
58
100
AcDbEntity
  8
LAYER_1
 62
     7
100
AcDbLine
 10
337.868783
 20
162.627972
 30
0.0
 11
338.413108
 21
162.594727
 31
0.0
  0
LINE
  5
57
100
AcDbEntity
  8
LAYER_1
 62
     7
100
AcDbLine
 10
338.413108
 20
162.594727
 30
0.0
 11
339.544132
 21
159.655888
 31
0.0
  0
LINE
  5
56
100
AcDbEntity
  8
LAYER_1
 62
     7
100
AcDbLine
 10
339.544132
 20
159.655888
 30
0.0
 11
339.162416
 21
159.266075
 31
0.0
  0
LINE
  5
55
100
AcDbEntity
  8
LAYER_1
 62
     7
100
AcDbLine
 10
339.162416
 20
159.266075
 30
0.0
 11
338.774154
 21
158.891077
 31
0.0
  0
LINE
  5
54
100
AcDbEntity
  8
LAYER_1
 62
     7
100
AcDbLine
 10
338.774154
 20
158.891077
 30
0.0
 11
338.379346
 21
158.531925
 31
0.0
  0
LINE
  5
53
100
AcDbEntity
  8
LAYER_1
 62
     7
100
AcDbLine
 10
338.379346
 20
158.531925
 30
0.0
 11
337.978337
 21
158.189311
 31
0.0
  0
LINE
  5
52
100
AcDbEntity
  8
LAYER_1
 62
     7
100
AcDbLine
 10
337.978337
 20
158.189311
 30
0.0
 11
337.570437
 21
157.864094
 31
0.0
  0
LINE
  5
51
100
AcDbEntity
  8
LAYER_1
 62
     7
100
AcDbLine
 10
337.570437
 20
157.864094
 30
0.0
 11
337.155992
 21
157.556963
 31
0.0
  0
LINE
  5
50
100
AcDbEntity
  8
LAYER_1
 62
     7
100
AcDbLine
 10
337.155992
 20
157.556963
 30
0.0
 11
336.734657
 21
157.270504
 31
0.0
  0
LINE
  5
4F
100
AcDbEntity
  8
LAYER_1
 62
     7
100
AcDbLine
 10
336.734657
 20
157.270504
 30
0.0
 11
336.306087
 21
157.006265
 31
0.0
  0
LINE
  5
4E
100
AcDbEntity
  8
LAYER_1
 62
     7
100
AcDbLine
 10
336.306087
 20
157.006265
 30
0.0
 11
336.088357
 21
156.883964
 31
0.0
  0
LINE
  5
4D
100
AcDbEntity
  8
LAYER_1
 62
     7
100
AcDbLine
 10
336.088357
 20
156.883964
 30
0.0
 11
335.86856
 21
156.768898
 31
0.0
  0
LINE
  5
4C
100
AcDbEntity
  8
LAYER_1
 62
     7
100
AcDbLine
 10
335.86856
 20
156.768898
 30
0.0
 11
335.757628
 21
156.71481
 31
0.0
  0
LINE
  5
4B
100
AcDbEntity
  8
LAYER_1
 62
     7
100
AcDbLine
 10
335.757628
 20
156.71481
 30
0.0
 11
335.646007
 21
156.662617
 31
0.0
  0
LINE
  5
4A
100
AcDbEntity
  8
LAYER_1
 62
     7
100
AcDbLine
 10
335.646007
 20
156.662617
 30
0.0
 11
335.533697
 21
156.613696
 31
0.0
  0
LINE
  5
49
100
AcDbEntity
  8
LAYER_1
 62
     7
100
AcDbLine
 10
335.533697
 20
156.613696
 30
0.0
 11
335.420009
 21
156.568221
 31
0.0
  0
LINE
  5
48
100
AcDbEntity
  8
LAYER_1
 62
     7
100
AcDbLine
 10
335.420009
 20
156.568221
 30
0.0
 11
336.301264
 21
153.065248
 31
0.0
  0
LINE
  5
47
100
AcDbEntity
  8
LAYER_1
 62
     7
100
AcDbLine
 10
336.301264
 20
153.065248
 30
0.0
 11
336.42322
 21
153.079028
 31
0.0
  0
LINE
  5
46
100
AcDbEntity
  8
LAYER_1
 62
     7
100
AcDbLine
 10
336.42322
 20
153.079028
 30
0.0
 11
336.545521
 21
153.089019
 31
0.0
  0
LINE
  5
45
100
AcDbEntity
  8
LAYER_1
 62
     7
100
AcDbLine
 10
336.545521
 20
153.089019
 30
0.0
 11
336.668167
 21
153.096082
 31
0.0
  0
LINE
  5
44
100
AcDbEntity
  8
LAYER_1
 62
     7
100
AcDbLine
 10
336.668167
 20
153.096082
 30
0.0
 11
336.791501
 21
153.10056
 31
0.0
  0
LINE
  5
43
100
AcDbEntity
  8
LAYER_1
 62
     7
100
AcDbLine
 10
336.791501
 20
153.10056
 30
0.0
 11
337.039893
 21
153.103488
 31
0.0
  0
LINE
  5
42
100
AcDbEntity
  8
LAYER_1
 62
     7
100
AcDbLine
 10
337.039893
 20
153.103488
 30
0.0
 11
337.288973
 21
153.098665
 31
0.0
  0
LINE
  5
41
100
AcDbEntity
  8
LAYER_1
 62
     7
100
AcDbLine
 10
337.288973
 20
153.098665
 30
0.0
 11
337.791612
 21
153.068865
 31
0.0
  0
LINE
  5
40
100
AcDbEntity
  8
LAYER_1
 62
     7
100
AcDbLine
 10
337.791612
 20
153.068865
 30
0.0
 11
338.29873
 21
153.015811
 31
0.0
  0
LINE
  5
3F
100
AcDbEntity
  8
LAYER_1
 62
     7
100
AcDbLine
 10
338.29873
 20
153.015811
 30
0.0
 11
338.808949
 21
152.941397
 31
0.0
  0
LINE
  5
3E
100
AcDbEntity
  8
LAYER_1
 62
     7
100
AcDbLine
 10
338.808949
 20
152.941397
 30
0.0
 11
339.321924
 21
152.847862
 31
0.0
  0
LINE
  5
3D
100
AcDbEntity
  8
LAYER_1
 62
     7
100
AcDbLine
 10
339.321924
 20
152.847862
 30
0.0
 11
339.837655
 21
152.735725
 31
0.0
  0
LINE
  5
3C
100
AcDbEntity
  8
LAYER_1
 62
     7
100
AcDbLine
 10
339.837655
 20
152.735725
 30
0.0
 11
340.355452
 21
152.606361
 31
0.0
  0
LINE
  5
3B
100
AcDbEntity
  8
LAYER_1
 62
     7
100
AcDbLine
 10
340.355452
 20
152.606361
 30
0.0
 11
340.874973
 21
152.459772
 31
0.0
  0
LINE
  5
3A
100
AcDbEntity
  8
LAYER_1
 62
     7
100
AcDbLine
 10
340.874973
 20
152.459772
 30
0.0
 11
341.395871
 21
152.297336
 31
0.0
  0
LINE
  5
39
100
AcDbEntity
  8
LAYER_1
 62
     7
100
AcDbLine
 10
341.395871
 20
152.297336
 30
0.0
 11
341.790679
 21
149.173151
 31
0.0
  0
LINE
  5
38
100
AcDbEntity
  8
LAYER_1
 62
     7
100
AcDbLine
 10
341.790679
 20
149.173151
 30
0.0
 11
341.326625
 21
148.88583
 31
0.0
  0
LINE
  5
37
100
AcDbEntity
  8
LAYER_1
 62
     7
100
AcDbLine
 10
341.326625
 20
148.88583
 30
0.0
 11
340.859814
 21
148.614874
 31
0.0
  0
LINE
  5
36
100
AcDbEntity
  8
LAYER_1
 62
     7
100
AcDbLine
 10
340.859814
 20
148.614874
 30
0.0
 11
340.390592
 21
148.360798
 31
0.0
  0
LINE
  5
35
100
AcDbEntity
  8
LAYER_1
 62
     7
100
AcDbLine
 10
340.390592
 20
148.360798
 30
0.0
 11
339.918959
 21
148.123947
 31
0.0
  0
LINE
  5
34
100
AcDbEntity
  8
LAYER_1
 62
     7
100
AcDbLine
 10
339.918959
 20
148.123947
 30
0.0
 11
339.445258
 21
147.905701
 31
0.0
  0
LINE
  5
33
100
AcDbEntity
  8
LAYER_1
 62
     7
100
AcDbLine
 10
339.445258
 20
147.905701
 30
0.0
 11
338.969146
 21
147.706919
 31
0.0
  0
LINE
  5
32
100
AcDbEntity
  8
LAYER_1
 62
     7
100
AcDbLine
 10
338.969146
 20
147.706919
 30
0.0
 11
338.491656
 21
147.529324
 31
0.0
  0
LINE
  5
31
100
AcDbEntity
  8
LAYER_1
 62
     7
100
AcDbLine
 10
338.491656
 20
147.529324
 30
0.0
 11
338.012099
 21
147.375673
 31
0.0
  0
LINE
  5
30
100
AcDbEntity
  8
LAYER_1
 62
     7
100
AcDbLine
 10
338.012099
 20
147.375673
 30
0.0
 11
337.771631
 21
147.308838
 31
0.0
  0
LINE
  5
2F
100
AcDbEntity
  8
LAYER_1
 62
     7
100
AcDbLine
 10
337.771631
 20
147.308838
 30
0.0
 11
337.530819
 21
147.249755
 31
0.0
  0
LINE
  5
2E
100
AcDbEntity
  8
LAYER_1
 62
     7
100
AcDbLine
 10
337.530819
 20
147.249755
 30
0.0
 11
337.409896
 21
147.223572
 31
0.0
  0
LINE
  5
2D
100
AcDbEntity
  8
LAYER_1
 62
     7
100
AcDbLine
 10
337.409896
 20
147.223572
 30
0.0
 11
337.289317
 21
147.199973
 31
0.0
  0
LINE
  5
2C
100
AcDbEntity
  8
LAYER_1
 62
     7
100
AcDbLine
 10
337.289317
 20
147.199973
 30
0.0
 11
337.168395
 21
147.179302
 31
0.0
  0
LINE
  5
2B
100
AcDbEntity
  8
LAYER_1
 62
     7
100
AcDbLine
 10
337.168395
 20
147.179302
 30
0.0
 11
337.047472
 21
147.162249
 31
0.0
  0
LINE
  5
2A
100
AcDbEntity
  8
LAYER_1
 62
     7
100
AcDbLine
 10
337.047472
 20
147.162249
 30
0.0
 11
337.064697
 21
143.550239
 31
0.0
  0
ENDSEC
  0
SECTION
  2
OBJECTS
  0
DICTIONARY
  5
19
100
AcDbDictionary
280
     0
281
     1
  3
ACAD_GROUP
350
1A
  3
ACAD_MLINESTYLE
350
1B
  3
ACAD_LAYOUT
350
1E
  3
ACAD_PLOTSETTINGS
350
22
  3
ACAD_PLOTSTYLENAME
350
1F
  3
ACAD_WIPEOUT_VARS
350
23
  0
DICTIONARY
  5
1A
102
{ACAD_REACTORS
330
19
102
}
100
AcDbDictionary
280
     0
281
     1
  0
DICTIONARY
  5
1B
102
{ACAD_REACTORS
330
19
102
}
100
AcDbDictionary
280
     0
281
     1
  3
Standard
350
1C
  0
MLINESTYLE
  5
1C
102
{ACAD_REACTORS
330
1B
102
}
100
AcDbMlineStyle
  2
Standard
 70
     0
  3

 62
     0
 51
90.0
 52
90.0
 71
     2
 49
0.5
 62
   256
  6
ByLayer
 49
-0.5
 62
   256
  6
ByLayer
  0
ACDBDICTIONARYWDFLT
  5
1F
102
{ACAD_REACTORS
330
19
102
}
100
AcDbDictionary
281
     1
  3
Normal
350
1D
100
AcDbDictionaryWithDefault
340
1D
  0
ACDBPLACEHOLDER
  5
1D
102
{ACAD_REACTORS
330
1F
102
}
  0
LAYOUT
  5
20
102
{ACAD_REACTORS
330
1E
102
}
100
AcDbPlotSettings
  1

  2

  4

  6

 40
0.0
 41
0.0
 42
0.0
 43
0.0
 44
0.0
 45
0.0
 46
0.0
 47
0.0
 48
0.0
 49
0.0
140
0.0
141
0.0
142
1.0
143
1.0
 70
  1024
 72
     0
 73
     0
 74
     0
  7

 75
     0
147
1.0
148
0.0
149
0.0
100
AcDbLayout
  1
Model
 70
     0
 71
     0
 10
0.0
 20
0.0
 11
0.0
 21
0.0
 12
0.0
 22
0.0
 32
0.0
 14
0.0
 24
0.0
 34
0.0
 15
0.0
 25
0.0
 35
0.0
146
0.0
 13
0.0
 23
0.0
 33
0.0
 16
0.0
 26
0.0
 36
0.0
 17
0.0
 27
0.0
 37
0.0
 76
     0
330
A
331
0
345
0
346
0
  0
LAYOUT
  5
21
102
{ACAD_REACTORS
330
1E
102
}
100
AcDbPlotSettings
  1

  2

  4

  6

 40
0.0
 41
0.0
 42
0.0
 43
0.0
 44
0.0
 45
0.0
 46
0.0
 47
0.0
 48
0.0
 49
0.0
140
0.0
141
0.0
142
1.0
143
1.0
 70
     0
 72
     0
 73
     0
 74
     0
  7

 75
     0
147
1.0
148
0.0
149
0.0
100
AcDbLayout
  1
Layout1
 70
     0
 71
     0
 10
0.0
 20
0.0
 11
0.0
 21
0.0
 12
0.0
 22
0.0
 32
0.0
 14
0.0
 24
0.0
 34
0.0
 15
0.0
 25
0.0
 35
0.0
146
0.0
 13
0.0
 23
0.0
 33
0.0
 16
0.0
 26
0.0
 36
0.0
 17
0.0
 27
0.0
 37
0.0
 76
     0
330
B
331
0
345
0
346
0
  0
DICTIONARY
  5
1E
102
{ACAD_REACTORS
330
19
102
}
100
AcDbDictionary
280
     0
281
     1
  3
Layout1
350
21
  3
Model
350
20
  0
DICTIONARY
  5
22
102
{ACAD_REACTORS
330
19
102
}
100
AcDbDictionary
280
     0
281
     1
  0
WIPEOUTVARIABLES
  5
23
100
AcDbWipeoutVariables
 70
     1
  0
ENDSEC
  0
EOF
