<?xml version="1.0" encoding="UTF-8" standalone="no"?>
<!-- Created with Inkscape (http://www.inkscape.org/) -->

<svg
   xmlns:dc="http://purl.org/dc/elements/1.1/"
   xmlns:cc="http://creativecommons.org/ns#"
   xmlns:rdf="http://www.w3.org/1999/02/22-rdf-syntax-ns#"
   xmlns:svg="http://www.w3.org/2000/svg"
   xmlns="http://www.w3.org/2000/svg"
   xmlns:sodipodi="http://sodipodi.sourceforge.net/DTD/sodipodi-0.dtd"
   xmlns:inkscape="http://www.inkscape.org/namespaces/inkscape"
   width="100.3298mm"
   height="200.65981mm"
   viewBox="0 0 355.49929 710.9993"
   id="svg2"
   version="1.1"
   inkscape:version="0.92.1 r15371"
   sodipodi:docname="gear-cutout.svg">
  <defs
     id="defs4">
    <marker
       refY="0"
       refX="0"
       style="overflow:visible"
       id="DistanceX"
       orient="auto">
      <path
         inkscape:connector-curvature="0"
         style="stroke:#000000;stroke-width:0.5"
         d="M 3,-3 -3,3 M 0,-5 V 5"
         id="path4161" />
    </marker>
    <pattern
       height="8"
       width="8"
       patternUnits="userSpaceOnUse"
       y="0"
       x="0"
       id="Hatch">
      <path
         linecap="square"
         stroke="#000000"
         stroke-width="0.25"
         d="M8 4 l-4,4"
         id="path4164" />
      <path
         linecap="square"
         stroke="#000000"
         stroke-width="0.25"
         d="M6 2 l-4,4"
         id="path4166" />
      <path
         linecap="square"
         stroke="#000000"
         stroke-width="0.25"
         d="M4 0 l-4,4"
         id="path4168" />
    </pattern>
  </defs>
  <sodipodi:namedview
     id="base"
     pagecolor="#ffffff"
     bordercolor="#666666"
     borderopacity="1.0"
     inkscape:pageopacity="0.0"
     inkscape:pageshadow="2"
     inkscape:zoom="0.98994949"
     inkscape:cx="230.99093"
     inkscape:cy="377.70153"
     inkscape:document-units="mm"
     inkscape:current-layer="layer1"
     showgrid="false"
     units="mm"
     fit-margin-top="0"
     fit-margin-left="0"
     fit-margin-right="0"
     fit-margin-bottom="0"
     inkscape:window-width="1680"
     inkscape:window-height="997"
     inkscape:window-x="-8"
     inkscape:window-y="-8"
     inkscape:window-maximized="1" />
  <metadata
     id="metadata7">
    <rdf:RDF>
      <cc:Work
         rdf:about="">
        <dc:format>image/svg+xml</dc:format>
        <dc:type
           rdf:resource="http://purl.org/dc/dcmitype/StillImage" />
        <dc:title></dc:title>
      </cc:Work>
    </rdf:RDF>
  </metadata>
  <g
     inkscape:label="Cut"
     inkscape:groupmode="layer"
     id="layer1"
     transform="translate(1966.3211,405.99459)">
    <g
       transform="translate(-11.428601,-31.428571)"
       id="layer1-8"
       inkscape:label="Layer 1"
       style="stroke:#000000">
      <g
         transform="translate(-1976.1535,-392.30886)"
         id="g4146"
         style="overflow:visible;stroke:#000000">
        <path
           style="fill:none;fill-opacity:1;stroke:#000000;stroke-width:0.09000001;stroke-miterlimit:4;stroke-dasharray:none;stroke-opacity:1"
           d="M 21.306035,17.787845 H 376.71531 V 373.19712 H 21.306035 Z"
           id="rect5710"
           inkscape:connector-curvature="0" />
        <path
           style="fill:none;fill-opacity:1;stroke:#000000;stroke-width:0.09000001;stroke-miterlimit:4;stroke-dasharray:none;stroke-opacity:1"
           d="M 376.71531,373.28786 V 728.69714 H 21.306035 V 373.28786"
           id="rect5712"
           inkscape:connector-curvature="0"
           sodipodi:nodetypes="cccc" />
        <g
           style="stroke:#000000;stroke-width:0.00100007;stroke-miterlimit:4;stroke-dasharray:none"
           id="draft"
           transform="matrix(89.994571,0,0,-89.99307,41.435128,353.06585)">
          <g
             style="color:#000000;fill:none;stroke:#000000;stroke-width:0.00100007;stroke-miterlimit:4;stroke-dasharray:none"
             id="ID_0">
            <path
               style="stroke:#000000;stroke-width:0.00100007;stroke-miterlimit:4;stroke-dasharray:none"
               inkscape:connector-curvature="0"
               d="M 3.3087,1.68737 3.31348,1.68674 3.31825,1.68597 3.32301,1.68509 3.32777,1.6841 3.33728,1.68187 3.34677,1.67933 3.36571,1.67346 3.38458,1.66665 3.40339,1.65901 3.42213,1.65059 3.44078,1.64145 3.45935,1.63162 3.47783,1.62113 3.49621,1.61 3.48186,1.48685 3.46142,1.48024 3.44102,1.47428 3.42069,1.46899 3.40043,1.46438 3.38026,1.4605 3.3602,1.45738 3.34027,1.4551 3.32049,1.45373 3.31067,1.45345 3.3009,1.45346 3.29604,1.4536 3.2912,1.45383 3.28638,1.45418 3.28159,1.45467 3.24822,1.31642 3.25271,1.31467 3.25716,1.31278 3.26157,1.31078 3.26596,1.30868 3.27465,1.30424 3.28326,1.29951 3.30024,1.28927 3.31694,1.27815 3.33337,1.26622 3.34955,1.25357 3.36547,1.24023 3.38115,1.22624 3.39659,1.21163 3.41177,1.19643 3.36836,1.08029 3.34693,1.07877 3.3257,1.07786 3.30469,1.07759 3.28392,1.07796 3.26341,1.07902 3.24318,1.08079 3.22328,1.08334 3.20375,1.08676 3.19415,1.08883 3.18467,1.09118 3.17998,1.09247 3.17534,1.09386 3.17074,1.09535 3.16621,1.09697 3.10072,0.97072 3.10466,0.96795 3.10853,0.96505 3.11234,0.96206 3.11609,0.95897 3.12347,0.95258 3.1307,0.94592 3.14474,0.93192 3.15829,0.91712 3.17139,0.90161 3.18406,0.88545 3.19634,0.86869 3.20821,0.85135 3.2197,0.83348 3.2308,0.81508 3.16086,0.7127 3.13969,0.71636 3.11886,0.72056 3.0984,0.72532 3.07832,0.73065 3.05865,0.73659 3.03944,0.74315 3.02073,0.75039 3.00258,0.75838 2.99375,0.76269 2.98511,0.76724 2.98087,0.76962 2.9767,0.77207 2.97259,0.77462 2.96858,0.77728 2.87478,0.67037 2.87794,0.66674 2.881,0.663 2.88398,0.65918 2.88689,0.65528 2.89253,0.64731 2.89795,0.63911 2.90823,0.62216 2.91784,0.60455 2.92685,0.58636 2.93529,0.56763 2.9432,0.54842 2.95058,0.52875 2.95745,0.50864 2.96383,0.48812 2.87143,0.40546 2.85174,0.41407 2.83252,0.42314 2.81379,0.43266 2.79557,0.44264 2.7779,0.45311 2.76082,0.46408 2.74438,0.47559 2.72868,0.48768 2.72113,0.49398 2.71383,0.50047 2.71029,0.50379 2.70682,0.50718 2.70344,0.51063 2.70018,0.51418 2.58353,0.43282 2.58573,0.42854 2.5878,0.42417 2.58978,0.41975 2.59167,0.41527 2.59524,0.40618 2.59854,0.39693 2.60447,0.37801 2.60958,0.35861 2.61398,0.33878 2.61769,0.31858 2.62077,0.29804 2.62323,0.27717 2.62509,0.256 2.62638,0.23456 2.51687,0.17641 2.49982,0.18948 2.48333,0.20288 2.46742,0.21661 2.45212,0.23066 2.43747,0.24505 2.42351,0.25979 2.4103,0.2749 2.39795,0.29041 2.39213,0.29833 2.38659,0.30637 2.38394,0.31045 2.38139,0.31456 2.37894,0.31873 2.37662,0.32295 2.24388,0.27187 2.24499,0.26719 2.24597,0.26246 2.24683,0.25769 2.2476,0.25289 2.24888,0.2432 2.24987,0.23343 2.2511,0.21364 2.25143,0.19358 2.25095,0.17328 2.24972,0.15278 2.24779,0.1321 2.24518,0.11125 2.24193,0.09025 2.23804,0.06912 2.1178,0.03886 2.10438,0.05564 2.09157,0.0726 2.07941,0.08973 2.06792,0.10704 2.05713,0.12452 2.04711,0.14217 2.0379,0.16 2.02961,0.17801 2.02586,0.18709 2.02241,0.19623 2.02082,0.20082 2.01932,0.20543 2.01794,0.21006 2.0167,0.21471 1.8756,0.19689 1.87555,0.19207 1.87536,0.18724 1.87506,0.18241 1.87465,0.17756 1.87358,0.16785 1.87221,0.15813 1.86866,0.13862 1.86418,0.11906 1.85886,0.09947 1.85276,0.07986 1.84593,0.06023 1.83841,0.04061 1.83023,0.02101 1.8214,0.00142 1.69741,8.2e-4 1.68839,0.02032 1.68002,0.03985 1.67231,0.0594 1.66529,0.07895 1.65901,0.0985 1.6535,0.11804 1.64882,0.13756 1.64509,0.15703 1.64362,0.16674 1.64246,0.17644 1.642,0.18128 1.64165,0.18611 1.64142,0.19094 1.64133,0.19575 1.50006,0.21221 1.49887,0.20755 1.49753,0.20291 1.49608,0.19828 1.49452,0.19368 1.49116,0.18451 1.4875,0.17539 1.47939,0.1573 1.47035,0.13938 1.4605,0.12163 1.44988,0.10405 1.43856,0.08663 1.42656,0.06938 1.41392,0.0523 1.40066,0.0354 1.28013,0.06449 1.27604,0.08558 1.27259,0.10654 1.26978,0.12737 1.26765,0.14803 1.26622,0.16852 l -6.7e-4,0.02029 1.3e-4,0.02007 0.00103,0.0198 9e-4,0.00978 0.00119,0.0097 7.2e-4,0.0048 8.2e-4,0.00478 9.3e-4,0.00474 0.00106,0.0047 L 1.13911,0.31697 1.13683,0.31272 1.13442,0.30854 1.1319,0.3044 1.1293,0.30029 1.12384,0.2922 1.1181,0.28422 1.10589,0.2686 1.09283,0.25336 1.07902,0.23849 1.0645,0.22396 1.04934,0.20975 1.03356,0.19587 1.0172,0.18232 1.00028,0.16908 0.89022,0.22616 0.8913,0.24762 0.89295,0.26881 0.89521,0.2897 0.89809,0.31027 0.90161,0.33051 0.90581,0.35037 0.91074,0.36982 0.91648,0.3888 0.9197,0.39808 0.92317,0.40721 0.92502,0.4117 0.92696,0.41615 0.92899,0.42053 0.93115,0.42483 0.81371,0.50506 0.81049,0.50148 0.80715,0.498 0.80371,0.49458 0.8002,0.49122 0.79296,0.48466 0.78548,0.47829 0.76989,0.46604 0.75356,0.45438 0.73659,0.44324 0.71902,0.4326 0.7009,0.42244 0.68226,0.41274 0.66313,0.40349 0.64353,0.39469 0.55033,0.47646 0.55651,0.49704 0.56319,0.51721 0.57038,0.53695 0.5781,0.55624 0.58636,0.57504 0.59519,0.59332 0.60463,0.61103 0.61475,0.62808 0.62009,0.63633 0.62565,0.64435 0.62852,0.64828 0.63146,0.65213 0.63449,0.6559 0.63761,0.65956 0.54279,0.76556 0.5388,0.76286 0.53472,0.76027 0.53057,0.75777 0.52635,0.75535 0.51775,0.75072 0.50897,0.74633 0.4909,0.73816 0.47225,0.73074 0.45311,0.72399 0.4335,0.71787 0.41348,0.71234 0.39306,0.70738 0.37227,0.70298 0.35113,0.69912 0.28021,0.80082 0.29113,0.81932 0.30245,0.83731 0.31416,0.85476 0.32626,0.87164 0.33878,0.88792 0.35173,0.90355 0.36514,0.91848 0.37904,0.93262 0.3862,0.93935 0.39352,0.94581 0.39725,0.94893 0.40103,0.95197 0.40487,0.9549 0.40878,0.95771 0.34208,1.08332 0.33756,1.08166 0.33298,1.08012 0.32835,1.07869 0.32367,1.07735 0.31422,1.07491 0.30463,1.07274 0.28514,1.06914 0.26526,1.0664 0.24505,1.06443 0.22455,1.06317 0.20379,1.0626 0.18277,1.06267 0.16154,1.06337 0.14009,1.06468 0.09556,1.1804 0.1106,1.19575 0.12589,1.2105 0.14143,1.22464 0.15723,1.23814 0.17328,1.25095 0.1896,1.26303 0.20619,1.27432 0.22307,1.28472 0.23163,1.28953 0.24029,1.29406 0.24465,1.2962 0.24905,1.29824 0.25347,1.30017 0.25794,1.30196 0.22324,1.43989 0.21846,1.43935 0.21364,1.43896 0.2088,1.43868 0.20394,1.43849 0.19418,1.43838 0.18436,1.43858 0.16456,1.43975 0.14461,1.44184 0.12452,1.44476 0.10431,1.44845 0.08401,1.45286 0.06363,1.45796 0.04317,1.46372 0.02267,1.47013 0.00713,1.59314 0.0254,1.60444 0.04377,1.61511 0.06225,1.62512 0.08082,1.63444 0.09947,1.64304 0.1182,1.65086 0.13701,1.65785 0.15589,1.66391 0.16536,1.66654 0.17484,1.66886 0.17959,1.66989 0.18435,1.67082 0.18911,1.67164 0.19388,1.67231 0.19319,1.81453 0.18842,1.81515 0.18365,1.81592 0.17888,1.81681 0.17412,1.81779 0.16461,1.82003 0.15512,1.82256 0.13619,1.82844 0.11731,1.83524 0.0985,1.84289 0.07977,1.85131 0.06111,1.86045 0.04254,1.87028 0.02406,1.88077 0.00568,1.89189 0.02003,2.01505 0.04048,2.02165 0.06087,2.02761 0.08121,2.03291 0.10147,2.03751 0.12163,2.0414 0.14169,2.04451 0.16163,2.0468 0.18141,2.04816 0.19123,2.04845 0.201,2.04843 0.20586,2.0483 0.2107,2.04806 0.21551,2.04772 0.22031,2.04723 0.25367,2.18548 0.24919,2.18723 0.24474,2.18912 0.24033,2.19111 0.23594,2.19321 0.22724,2.19765 0.21863,2.20239 0.20165,2.21262 0.18495,2.22375 0.16852,2.23567 0.15235,2.24833 0.13642,2.26167 0.12074,2.27566 0.10531,2.29026 0.09013,2.30547 0.13353,2.42161 0.15496,2.42313 0.17619,2.42403 0.1972,2.42431 0.21798,2.42393 0.23849,2.42288 0.25871,2.4211 0.27861,2.41855 0.29814,2.41514 0.30775,2.41307 0.31723,2.41072 0.32191,2.40942 0.32656,2.40804 0.33115,2.40655 0.33569,2.40492 0.40117,2.53117 0.39723,2.53394 0.39337,2.53684 0.38956,2.53984 0.3858,2.54292 0.37842,2.54932 0.3712,2.55598 0.35716,2.56998 0.34361,2.58478 0.33051,2.60029 0.31783,2.61645 0.30556,2.63321 0.29368,2.65054 0.2822,2.66842 0.27109,2.68681 0.34103,2.78919 0.3622,2.78554 0.38303,2.78134 0.4035,2.77658 0.42358,2.77124 0.44324,2.76531 0.46245,2.75874 0.48116,2.7515 0.49931,2.74352 0.50814,2.73921 0.51678,2.73466 0.52102,2.73228 0.5252,2.72982 0.52931,2.72727 0.53332,2.72461 0.62711,2.83152 0.62395,2.83516 0.62089,2.8389 0.61791,2.84272 0.615,2.84661 0.60937,2.85459 0.60395,2.86278 0.59367,2.87973 0.58405,2.89735 0.57504,2.91554 0.5666,2.93426 0.5587,2.95348 0.55132,2.97315 0.54444,2.99326 0.53806,3.01377 0.63047,3.09644 0.65015,3.08782 0.66937,3.07876 0.6881,3.06924 0.70632,3.05925 0.72399,3.04879 0.74108,3.03782 0.75751,3.02631 0.77322,3.01421 0.78076,3.00791 0.78806,3.00143 0.79161,2.9981 0.79508,2.99472 0.79845,2.99126 0.80172,2.98772 0.91837,3.06907 0.91617,3.07336 0.91409,3.07772 0.91212,3.08215 0.91022,3.08662 0.90666,3.09572 0.90335,3.10497 0.89743,3.12389 0.89231,3.14329 0.88792,3.16311 0.8842,3.18331 0.88113,3.20386 0.87867,3.22472 0.8768,3.24589 0.87552,3.26734 0.98503,3.32549 1.00207,3.31241 1.01857,3.29901 1.03448,3.28529 1.04978,3.27123 1.06443,3.25684 1.07839,3.2421 1.09159,3.22699 1.10395,3.21149 1.10977,3.20357 1.1153,3.19552 1.11795,3.19145 1.12051,3.18733 1.12296,3.18317 1.12528,3.17895 1.25801,3.23002 1.2569,3.23471 1.25593,3.23944 1.25507,3.24421 1.2543,3.24901 1.25302,3.25869 1.25202,3.26847 1.2508,3.28826 1.25047,3.30832 1.25095,3.32861 1.25218,3.34911 1.25411,3.3698 1.25671,3.39065 1.25997,3.41165 1.26385,3.43278 1.38409,3.46303 1.39752,3.44626 1.41032,3.4293 1.42249,3.41217 1.43398,3.39486 1.44476,3.37738 1.45479,3.35973 1.46399,3.3419 1.47228,3.32388 1.47603,3.3148 1.47948,3.30567 1.48108,3.30108 1.48258,3.29647 1.48396,3.29184 1.4852,3.28718 l 0.1411,0.01783 4e-5,0.00482 1.9e-4,0.00482 3.1e-4,0.00484 4e-4,0.00484 0.00107,0.00971 0.00138,0.00973 0.00354,0.01951 0.00449,0.01955 0.00532,0.0196 0.0061,0.01961 0.00682,0.01962 0.00752,0.01962 0.00819,0.01961 0.00883,0.01959 0.12398,6e-4 L 1.8135,3.48158 1.82188,3.46205 1.82959,3.4425 1.8366,3.42294 1.84289,3.40339 1.8484,3.38385 1.85307,3.36434 1.85681,3.34487 1.85828,3.33515 1.85944,3.32546 1.85989,3.32062 1.86024,3.31578 1.86048,3.31096 1.86057,3.30614 2.00183,3.28968 2.00303,3.29435 2.00437,3.29899 2.00582,3.30361 2.00737,3.30822 2.01073,3.31739 2.0144,3.32651 2.02251,3.3446 2.03154,3.36251 2.0414,3.38026 2.05201,3.39785 2.06334,3.41526 2.07533,3.43251 2.08797,3.44959 2.10123,3.4665 2.22176,3.43741 2.22585,3.41632 2.22931,3.39535 2.23212,3.37453 2.23425,3.35386 2.23567,3.33337 2.23635,3.31308 2.23621,3.29302 2.23518,3.27322 2.23428,3.26343 2.23309,3.25374 2.23237,3.24893 2.23156,3.24416 2.23063,3.23941 2.22956,3.23472 2.36279,3.18493 2.36506,3.18917 2.36747,3.19336 2.36999,3.1975 2.3726,3.2016 2.37806,3.2097 2.3838,3.21767 2.396,3.2333 2.40906,3.24853 2.42288,3.26341 2.43739,3.27794 2.45255,3.29214 2.46833,3.30602 2.48469,3.31958 2.50161,3.33282 2.61168,3.27573 2.6106,3.25427 2.60894,3.23309 2.60668,3.2122 2.60381,3.19162 2.60029,3.17139 2.59609,3.15153 2.59115,3.13208 2.58541,3.1131 2.5822,3.10381 2.57872,3.09469 2.57687,3.09019 2.57494,3.08575 2.5729,3.08137 2.57075,3.07706 2.68818,2.99684 2.69141,3.00041 2.69475,3.0039 2.69819,3.00732 2.7017,3.01068 2.70894,3.01723 2.71642,3.0236 2.73201,3.03585 2.74833,3.04752 2.76531,3.05865 2.78288,3.06929 2.801,3.07945 2.81964,3.08915 2.83877,3.0984 2.85837,3.10721 2.95157,3.02544 2.94539,3.00486 2.93871,2.98469 2.93152,2.96495 2.9238,2.94566 2.91554,2.92685 2.90671,2.90857 2.89727,2.89087 2.88715,2.87382 2.88181,2.86557 2.87625,2.85754 2.87338,2.85362 2.87043,2.84977 2.86741,2.846 2.86428,2.84234 2.95911,2.73634 2.9631,2.73904 2.96718,2.74163 2.97133,2.74412 2.97555,2.74654 2.98414,2.75118 2.99293,2.75557 3.011,2.76373 3.02964,2.77115 3.04879,2.7779 3.06839,2.78403 3.08842,2.78955 3.10884,2.79451 3.12963,2.79891 3.15076,2.80277 3.22169,2.70108 3.21076,2.68257 3.19945,2.66459 3.18774,2.64714 3.17563,2.63026 3.16311,2.61398 3.15016,2.59834 3.13676,2.58341 3.12285,2.56928 3.11569,2.56255 3.10837,2.55608 3.10465,2.55296 3.10087,2.54993 3.09703,2.54699 3.09312,2.54418 l 0.0667,-0.12561 0.00452,0.00167 0.00458,0.00154 0.00463,0.00143 0.00467,0.00134 0.00946,0.00244 0.00958,0.00216 0.0195,0.0036 0.01988,0.00275 0.0202,0.00197 0.0205,0.00125 0.02077,5.8e-4 0.02101,-8e-5 0.02124,-7e-4 L 3.3618,2.43721 3.40633,2.3215 3.3913,2.30615 3.37601,2.29139 3.36046,2.27725 3.34467,2.26376 3.32861,2.25095 3.3123,2.23886 3.29571,2.22758 3.27883,2.21718 3.27026,2.21236 3.26161,2.20783 3.25724,2.2057 3.25285,2.20365 3.24842,2.20172 3.24395,2.19993 3.27865,2.06201 3.28344,2.06255 3.28826,2.06294 3.29309,2.06322 3.29795,2.0634 3.30772,2.06351 3.31754,2.06332 3.33733,2.06215 3.35729,2.06006 3.37738,2.05713 3.39758,2.05345 3.41788,2.04903 3.43827,2.04394 3.45872,2.03817 3.47923,2.03177 3.49477,1.90876 3.4765,1.89745 3.45812,1.88678 3.43965,1.87678 3.42108,1.86745 3.40243,1.85886 3.38369,1.85103 3.36489,1.84404 3.34601,1.83799 3.33654,1.83536 3.32705,1.83303 3.3223,1.832 3.31755,1.83107 3.31279,1.83026 3.30802,1.82959 Z"
               id="path4182" />
          </g>
        </g>
      </g>
      <g
         inkscape:label="0"
         id="g4170"
         style="stroke:#000000" />
    </g>
  </g>
</svg>
