  0
SECTION
  2
HEADER
  9
$ACADVER
  1
AC1014
  9
$HANDSEED
  5
FFFF
  9
$MEASUREMENT
 70
     1
  0
ENDSEC
  0
SECTION
  2
TABLES
  0
TABLE
  2
VPORT
  5
8
330
0
100
AcDbSymbolTable
 70
     4
  0
VPORT
  5
2E
330
8
100
AcDbSymbolTableRecord
100
AcDbViewportTableRecord
  2
*ACTIVE
 70
     0
 10
0.0
 20
0.0
 11
1.0
 21
1.0
 12
210.0
 22
148.5
 13
0.0
 23
0.0
 14
10.0
 24
10.0
 15
10.0
 25
10.0
 16
0.0
 26
0.0
 36
1.0
 17
0.0
 27
0.0
 37
0.0
 40
341.0
 41
1.24
 42
50.0
 43
0.0
 44
0.0
 50
0.0
 51
0.0
 71
     0
 72
   100
 73
     1
 74
     3
 75
     0
 76
     0
 77
     0
 78
     0
  0
ENDTAB
  0
TABLE
  2
LTYPE
  5
5
330
0
100
AcDbSymbolTable
 70
     1
  0
LTYPE
  5
14
330
5
100
AcDbSymbolTableRecord
100
AcDbLinetypeTableRecord
  2
BYBLOCK
 70
     0
  3

 72
    65
 73
     0
 40
0.0
  0
LTYPE
  5
15
330
5
100
AcDbSymbolTableRecord
100
AcDbLinetypeTableRecord
  2
BYLAYER
 70
     0
  3

 72
    65
 73
     0
 40
0.0
  0
LTYPE
  5
16
330
5
100
AcDbSymbolTableRecord
100
AcDbLinetypeTableRecord
  2
CONTINUOUS
 70
     0
  3
Solid line
 72
    65
 73
     0
 40
0.0
  0
ENDTAB
  0
TABLE
  2
LAYER
  5
2
100
AcDbSymbolTable
 70
2
  0
LAYER
  5
50
100
AcDbSymbolTableRecord
100
AcDbLayerTableRecord
  2
0
 70
0
  6
CONTINUOUS
  0
LAYER
  5
51
100
AcDbSymbolTableRecord
100
AcDbLayerTableRecord
  2
Cut
 70
0
  6
CONTINUOUS
  0
ENDTAB
  0
TABLE
  2
STYLE
  5
3
330
0
100
AcDbSymbolTable
 70
     1
  0
STYLE
  5
11
330
3
100
AcDbSymbolTableRecord
100
AcDbTextStyleTableRecord
  2
STANDARD
 70
     0
 40
0.0
 41
1.0
 50
0.0
 71
     0
 42
2.5
  3
txt
  4

  0
ENDTAB
  0
TABLE
  2
VIEW
  5
6
330
0
100
AcDbSymbolTable
 70
     0
  0
ENDTAB
  0
TABLE
  2
UCS
  5
7
330
0
100
AcDbSymbolTable
 70
     0
  0
ENDTAB
  0
TABLE
  2
APPID
  5
9
330
0
100
AcDbSymbolTable
 70
     2
  0
APPID
  5
12
330
9
100
AcDbSymbolTableRecord
100
AcDbRegAppTableRecord
  2
ACAD
 70
     0
  0
ENDTAB
  0
TABLE
  2
DIMSTYLE
  5
A
330
0
100
AcDbSymbolTable
 70
     1
  0
DIMSTYLE
105
27
330
A
100
AcDbSymbolTableRecord
100
AcDbDimStyleTableRecord
  2
ISO-25
 70
     0
  3

  4

  5

  6

  7

 40
1.0
 41
2.5
 42
0.625
 43
3.75
 44
1.25
 45
0.0
 46
0.0
 47
0.0
 48
0.0
140
2.5
141
2.5
142
0.0
143
0.03937007874016
144
1.0
145
0.0
146
1.0
147
0.625
 71
     0
 72
     0
 73
     0
 74
     0
 75
     0
 76
     0
 77
     1
 78
     8
170
     0
171
     3
172
     1
173
     0
174
     0
175
     0
176
     0
177
     0
178
     0
270
     2
271
     2
272
     2
273
     2
274
     3
340
11
275
     0
280
     0
281
     0
282
     0
283
     0
284
     8
285
     0
286
     0
287
     3
288
     0
  0
ENDTAB
  0
TABLE
  2
BLOCK_RECORD
  5
1
330
0
100
AcDbSymbolTable
 70
     1
  0
BLOCK_RECORD
  5
1F
330
1
100
AcDbSymbolTableRecord
100
AcDbBlockTableRecord
  2
*MODEL_SPACE
  0
BLOCK_RECORD
  5
1B
330
1
100
AcDbSymbolTableRecord
100
AcDbBlockTableRecord
  2
*PAPER_SPACE
  0
ENDTAB
  0
ENDSEC
  0
SECTION
  2
BLOCKS
  0
BLOCK
  5
20
330
1F
100
AcDbEntity
  8
0
100
AcDbBlockBegin
  2
*MODEL_SPACE
 70
     0
 10
0.0
 20
0.0
 30
0.0
  3
*MODEL_SPACE
  1

  0
ENDBLK
  5
21
330
1F
100
AcDbEntity
  8
0
100
AcDbBlockEnd
  0
BLOCK
  5
1C
330
1B
100
AcDbEntity
 67
     1
  8
0
100
AcDbBlockBegin
  2
*PAPER_SPACE
  1

  0
ENDBLK
  5
1D
330
1B
100
AcDbEntity
 67
     1
  8
0
100
AcDbBlockEnd
  0
ENDSEC
  0
SECTION
  2
ENTITIES
  0
LINE
  5
100
100
AcDbEntity
  8
Cut
 62
7
100
AcDbLine
 10
0.011915
 20
200.647903
 30
0.0
 11
94.047286
 21
200.647903
 31
0.0
  0
LINE
  5
101
100
AcDbEntity
  8
Cut
 62
7
100
AcDbLine
 10
94.047286
 20
200.647903
 30
0.0
 11
94.047286
 21
106.612532
 31
0.0
  0
LINE
  5
102
100
AcDbEntity
  8
Cut
 62
7
100
AcDbLine
 10
94.047286
 20
106.612532
 30
0.0
 11
0.011915
 21
106.612532
 31
0.0
  0
LINE
  5
103
100
AcDbEntity
  8
Cut
 62
7
100
AcDbLine
 10
0.011915
 20
106.612532
 30
0.0
 11
0.011915
 21
200.647903
 31
0.0
  0
LINE
  5
104
100
AcDbEntity
  8
Cut
 62
7
100
AcDbLine
 10
94.047286
 20
106.588524
 30
0.0
 11
94.047286
 21
12.553152
 31
0.0
  0
LINE
  5
105
100
AcDbEntity
  8
Cut
 62
7
100
AcDbLine
 10
94.047286
 20
12.553152
 30
0.0
 11
0.011915
 21
12.553152
 31
0.0
  0
LINE
  5
106
100
AcDbEntity
  8
Cut
 62
7
100
AcDbLine
 10
0.011915
 20
12.553152
 30
0.0
 11
0.011915
 21
106.588524
 31
0.0
  0
LINE
  5
107
100
AcDbEntity
  8
Cut
 62
7
100
AcDbLine
 10
84.121404
 20
152.116335
 30
0.0
 11
84.235221
 21
152.101334
 31
0.0
  0
LINE
  5
108
100
AcDbEntity
  8
Cut
 62
7
100
AcDbLine
 10
84.235221
 20
152.101334
 30
0.0
 11
84.348799
 21
152.083000
 31
0.0
  0
LINE
  5
109
100
AcDbEntity
  8
Cut
 62
7
100
AcDbLine
 10
84.348799
 20
152.083000
 30
0.0
 11
84.462140
 21
152.062046
 31
0.0
  0
LINE
  5
10a
100
AcDbEntity
  8
Cut
 62
7
100
AcDbLine
 10
84.462140
 20
152.062046
 30
0.0
 11
84.575481
 21
152.038474
 31
0.0
  0
LINE
  5
10b
100
AcDbEntity
  8
Cut
 62
7
100
AcDbLine
 10
84.575481
 20
152.038474
 30
0.0
 11
84.801924
 21
151.985376
 31
0.0
  0
LINE
  5
10c
100
AcDbEntity
  8
Cut
 62
7
100
AcDbLine
 10
84.801924
 20
151.985376
 30
0.0
 11
85.027891
 21
151.924897
 31
0.0
  0
LINE
  5
10d
100
AcDbEntity
  8
Cut
 62
7
100
AcDbLine
 10
85.027891
 20
151.924897
 30
0.0
 11
85.478873
 21
151.785128
 31
0.0
  0
LINE
  5
10e
100
AcDbEntity
  8
Cut
 62
7
100
AcDbLine
 10
85.478873
 20
151.785128
 30
0.0
 11
85.928187
 21
151.622978
 31
0.0
  0
LINE
  5
10f
100
AcDbEntity
  8
Cut
 62
7
100
AcDbLine
 10
85.928187
 20
151.622978
 30
0.0
 11
86.376073
 21
151.441064
 31
0.0
  0
LINE
  5
110
100
AcDbEntity
  8
Cut
 62
7
100
AcDbLine
 10
86.376073
 20
151.441064
 30
0.0
 11
86.822293
 21
151.240578
 31
0.0
  0
LINE
  5
111
100
AcDbEntity
  8
Cut
 62
7
100
AcDbLine
 10
86.822293
 20
151.240578
 30
0.0
 11
87.266369
 21
151.022949
 31
0.0
  0
LINE
  5
112
100
AcDbEntity
  8
Cut
 62
7
100
AcDbLine
 10
87.266369
 20
151.022949
 30
0.0
 11
87.708541
 21
150.788890
 31
0.0
  0
LINE
  5
113
100
AcDbEntity
  8
Cut
 62
7
100
AcDbLine
 10
87.708541
 20
150.788890
 30
0.0
 11
88.148569
 21
150.539116
 31
0.0
  0
LINE
  5
114
100
AcDbEntity
  8
Cut
 62
7
100
AcDbLine
 10
88.148569
 20
150.539116
 30
0.0
 11
88.586216
 21
150.274104
 31
0.0
  0
LINE
  5
115
100
AcDbEntity
  8
Cut
 62
7
100
AcDbLine
 10
88.586216
 20
150.274104
 30
0.0
 11
88.244528
 21
147.341820
 31
0.0
  0
LINE
  5
116
100
AcDbEntity
  8
Cut
 62
7
100
AcDbLine
 10
88.244528
 20
147.341820
 30
0.0
 11
87.757829
 21
147.184431
 31
0.0
  0
LINE
  5
117
100
AcDbEntity
  8
Cut
 62
7
100
AcDbLine
 10
87.757829
 20
147.184431
 30
0.0
 11
87.272084
 21
147.042520
 31
0.0
  0
LINE
  5
118
100
AcDbEntity
  8
Cut
 62
7
100
AcDbLine
 10
87.272084
 20
147.042520
 30
0.0
 11
86.788005
 21
146.916561
 31
0.0
  0
LINE
  5
119
100
AcDbEntity
  8
Cut
 62
7
100
AcDbLine
 10
86.788005
 20
146.916561
 30
0.0
 11
86.305593
 21
146.806794
 31
0.0
  0
LINE
  5
11a
100
AcDbEntity
  8
Cut
 62
7
100
AcDbLine
 10
86.305593
 20
146.806794
 30
0.0
 11
85.825324
 21
146.714409
 31
0.0
  0
LINE
  5
11b
100
AcDbEntity
  8
Cut
 62
7
100
AcDbLine
 10
85.825324
 20
146.714409
 30
0.0
 11
85.347674
 21
146.640120
 31
0.0
  0
LINE
  5
11c
100
AcDbEntity
  8
Cut
 62
7
100
AcDbLine
 10
85.347674
 20
146.640120
 30
0.0
 11
84.873119
 21
146.585831
 31
0.0
  0
LINE
  5
11d
100
AcDbEntity
  8
Cut
 62
7
100
AcDbLine
 10
84.873119
 20
146.585831
 30
0.0
 11
84.402136
 21
146.553211
 31
0.0
  0
LINE
  5
11e
100
AcDbEntity
  8
Cut
 62
7
100
AcDbLine
 10
84.402136
 20
146.553211
 30
0.0
 11
84.168312
 21
146.546544
 31
0.0
  0
LINE
  5
11f
100
AcDbEntity
  8
Cut
 62
7
100
AcDbLine
 10
84.168312
 20
146.546544
 30
0.0
 11
83.935678
 21
146.546782
 31
0.0
  0
LINE
  5
120
100
AcDbEntity
  8
Cut
 62
7
100
AcDbLine
 10
83.935678
 20
146.546782
 30
0.0
 11
83.819956
 21
146.550115
 31
0.0
  0
LINE
  5
121
100
AcDbEntity
  8
Cut
 62
7
100
AcDbLine
 10
83.819956
 20
146.550115
 30
0.0
 11
83.704710
 21
146.555592
 31
0.0
  0
LINE
  5
122
100
AcDbEntity
  8
Cut
 62
7
100
AcDbLine
 10
83.704710
 20
146.555592
 30
0.0
 11
83.589941
 21
146.563925
 31
0.0
  0
LINE
  5
123
100
AcDbEntity
  8
Cut
 62
7
100
AcDbLine
 10
83.589941
 20
146.563925
 30
0.0
 11
83.475886
 21
146.575593
 31
0.0
  0
LINE
  5
124
100
AcDbEntity
  8
Cut
 62
7
100
AcDbLine
 10
83.475886
 20
146.575593
 30
0.0
 11
82.681311
 21
143.283768
 31
0.0
  0
LINE
  5
125
100
AcDbEntity
  8
Cut
 62
7
100
AcDbLine
 10
82.681311
 20
143.283768
 30
0.0
 11
82.788222
 21
143.242099
 31
0.0
  0
LINE
  5
126
100
AcDbEntity
  8
Cut
 62
7
100
AcDbLine
 10
82.788222
 20
143.242099
 30
0.0
 11
82.894182
 21
143.197097
 31
0.0
  0
LINE
  5
127
100
AcDbEntity
  8
Cut
 62
7
100
AcDbLine
 10
82.894182
 20
143.197097
 30
0.0
 11
82.999188
 21
143.149476
 31
0.0
  0
LINE
  5
128
100
AcDbEntity
  8
Cut
 62
7
100
AcDbLine
 10
82.999188
 20
143.149476
 30
0.0
 11
83.103719
 21
143.099473
 31
0.0
  0
LINE
  5
129
100
AcDbEntity
  8
Cut
 62
7
100
AcDbLine
 10
83.103719
 20
143.099473
 30
0.0
 11
83.310637
 21
142.993754
 31
0.0
  0
LINE
  5
12a
100
AcDbEntity
  8
Cut
 62
7
100
AcDbLine
 10
83.310637
 20
142.993754
 30
0.0
 11
83.515650
 21
142.881130
 31
0.0
  0
LINE
  5
12b
100
AcDbEntity
  8
Cut
 62
7
100
AcDbLine
 10
83.515650
 20
142.881130
 30
0.0
 11
83.919962
 21
142.637308
 31
0.0
  0
LINE
  5
12c
100
AcDbEntity
  8
Cut
 62
7
100
AcDbLine
 10
83.919962
 20
142.637308
 30
0.0
 11
84.317607
 21
142.372534
 31
0.0
  0
LINE
  5
12d
100
AcDbEntity
  8
Cut
 62
7
100
AcDbLine
 10
84.317607
 20
142.372534
 30
0.0
 11
84.708823
 21
142.088473
 31
0.0
  0
LINE
  5
12e
100
AcDbEntity
  8
Cut
 62
7
100
AcDbLine
 10
84.708823
 20
142.088473
 30
0.0
 11
85.094086
 21
141.787268
 31
0.0
  0
LINE
  5
12f
100
AcDbEntity
  8
Cut
 62
7
100
AcDbLine
 10
85.094086
 20
141.787268
 30
0.0
 11
85.473158
 21
141.469633
 31
0.0
  0
LINE
  5
130
100
AcDbEntity
  8
Cut
 62
7
100
AcDbLine
 10
85.473158
 20
141.469633
 30
0.0
 11
85.846515
 21
141.136522
 31
0.0
  0
LINE
  5
131
100
AcDbEntity
  8
Cut
 62
7
100
AcDbLine
 10
85.846515
 20
141.136522
 30
0.0
 11
86.214158
 21
140.788648
 31
0.0
  0
LINE
  5
132
100
AcDbEntity
  8
Cut
 62
7
100
AcDbLine
 10
86.214158
 20
140.788648
 30
0.0
 11
86.575610
 21
140.426726
 31
0.0
  0
LINE
  5
133
100
AcDbEntity
  8
Cut
 62
7
100
AcDbLine
 10
86.575610
 20
140.426726
 30
0.0
 11
85.541972
 21
137.661355
 31
0.0
  0
LINE
  5
134
100
AcDbEntity
  8
Cut
 62
7
100
AcDbLine
 10
85.541972
 20
137.661355
 30
0.0
 11
85.031701
 21
137.625163
 31
0.0
  0
LINE
  5
135
100
AcDbEntity
  8
Cut
 62
7
100
AcDbLine
 10
85.031701
 20
137.625163
 30
0.0
 11
84.526192
 21
137.603495
 31
0.0
  0
LINE
  5
136
100
AcDbEntity
  8
Cut
 62
7
100
AcDbLine
 10
84.526192
 20
137.603495
 30
0.0
 11
84.025921
 21
137.597067
 31
0.0
  0
LINE
  5
137
100
AcDbEntity
  8
Cut
 62
7
100
AcDbLine
 10
84.025921
 20
137.597067
 30
0.0
 11
83.531366
 21
137.605877
 31
0.0
  0
LINE
  5
138
100
AcDbEntity
  8
Cut
 62
7
100
AcDbLine
 10
83.531366
 20
137.605877
 30
0.0
 11
83.043001
 21
137.631116
 31
0.0
  0
LINE
  5
139
100
AcDbEntity
  8
Cut
 62
7
100
AcDbLine
 10
83.043001
 20
137.631116
 30
0.0
 11
82.561303
 21
137.673261
 31
0.0
  0
LINE
  5
13a
100
AcDbEntity
  8
Cut
 62
7
100
AcDbLine
 10
82.561303
 20
137.673261
 30
0.0
 11
82.087463
 21
137.733978
 31
0.0
  0
LINE
  5
13b
100
AcDbEntity
  8
Cut
 62
7
100
AcDbLine
 10
82.087463
 20
137.733978
 30
0.0
 11
81.622433
 21
137.815410
 31
0.0
  0
LINE
  5
13c
100
AcDbEntity
  8
Cut
 62
7
100
AcDbLine
 10
81.622433
 20
137.815410
 30
0.0
 11
81.393846
 21
137.864698
 31
0.0
  0
LINE
  5
13d
100
AcDbEntity
  8
Cut
 62
7
100
AcDbLine
 10
81.393846
 20
137.864698
 30
0.0
 11
81.168118
 21
137.920654
 31
0.0
  0
LINE
  5
13e
100
AcDbEntity
  8
Cut
 62
7
100
AcDbLine
 10
81.168118
 20
137.920654
 30
0.0
 11
81.056444
 21
137.951369
 31
0.0
  0
LINE
  5
13f
100
AcDbEntity
  8
Cut
 62
7
100
AcDbLine
 10
81.056444
 20
137.951369
 30
0.0
 11
80.945960
 21
137.984466
 31
0.0
  0
LINE
  5
140
100
AcDbEntity
  8
Cut
 62
7
100
AcDbLine
 10
80.945960
 20
137.984466
 30
0.0
 11
80.836429
 21
138.019944
 31
0.0
  0
LINE
  5
141
100
AcDbEntity
  8
Cut
 62
7
100
AcDbLine
 10
80.836429
 20
138.019944
 30
0.0
 11
80.728565
 21
138.058517
 31
0.0
  0
LINE
  5
142
100
AcDbEntity
  8
Cut
 62
7
100
AcDbLine
 10
80.728565
 20
138.058517
 30
0.0
 11
79.169179
 21
135.052421
 31
0.0
  0
LINE
  5
143
100
AcDbEntity
  8
Cut
 62
7
100
AcDbLine
 10
79.169179
 20
135.052421
 30
0.0
 11
79.262994
 21
134.986465
 31
0.0
  0
LINE
  5
144
100
AcDbEntity
  8
Cut
 62
7
100
AcDbLine
 10
79.262994
 20
134.986465
 30
0.0
 11
79.355143
 21
134.917414
 31
0.0
  0
LINE
  5
145
100
AcDbEntity
  8
Cut
 62
7
100
AcDbLine
 10
79.355143
 20
134.917414
 30
0.0
 11
79.445863
 21
134.846220
 31
0.0
  0
LINE
  5
146
100
AcDbEntity
  8
Cut
 62
7
100
AcDbLine
 10
79.445863
 20
134.846220
 30
0.0
 11
79.535155
 21
134.772645
 31
0.0
  0
LINE
  5
147
100
AcDbEntity
  8
Cut
 62
7
100
AcDbLine
 10
79.535155
 20
134.772645
 30
0.0
 11
79.710881
 21
134.620495
 31
0.0
  0
LINE
  5
148
100
AcDbEntity
  8
Cut
 62
7
100
AcDbLine
 10
79.710881
 20
134.620495
 30
0.0
 11
79.883035
 21
134.461916
 31
0.0
  0
LINE
  5
149
100
AcDbEntity
  8
Cut
 62
7
100
AcDbLine
 10
79.883035
 20
134.461916
 30
0.0
 11
80.217342
 21
134.128567
 31
0.0
  0
LINE
  5
14a
100
AcDbEntity
  8
Cut
 62
7
100
AcDbLine
 10
80.217342
 20
134.128567
 30
0.0
 11
80.539982
 21
133.776169
 31
0.0
  0
LINE
  5
14b
100
AcDbEntity
  8
Cut
 62
7
100
AcDbLine
 10
80.539982
 20
133.776169
 30
0.0
 11
80.851907
 21
133.406866
 31
0.0
  0
LINE
  5
14c
100
AcDbEntity
  8
Cut
 62
7
100
AcDbLine
 10
80.851907
 20
133.406866
 30
0.0
 11
81.153593
 21
133.022085
 31
0.0
  0
LINE
  5
14d
100
AcDbEntity
  8
Cut
 62
7
100
AcDbLine
 10
81.153593
 20
133.022085
 30
0.0
 11
81.445993
 21
132.623018
 31
0.0
  0
LINE
  5
14e
100
AcDbEntity
  8
Cut
 62
7
100
AcDbLine
 10
81.445993
 20
132.623018
 30
0.0
 11
81.728630
 21
132.210141
 31
0.0
  0
LINE
  5
14f
100
AcDbEntity
  8
Cut
 62
7
100
AcDbLine
 10
81.728630
 20
132.210141
 30
0.0
 11
82.002219
 21
131.784645
 31
0.0
  0
LINE
  5
150
100
AcDbEntity
  8
Cut
 62
7
100
AcDbLine
 10
82.002219
 20
131.784645
 30
0.0
 11
82.266522
 21
131.346529
 31
0.0
  0
LINE
  5
151
100
AcDbEntity
  8
Cut
 62
7
100
AcDbLine
 10
82.266522
 20
131.346529
 30
0.0
 11
80.601176
 21
128.908793
 31
0.0
  0
LINE
  5
152
100
AcDbEntity
  8
Cut
 62
7
100
AcDbLine
 10
80.601176
 20
128.908793
 30
0.0
 11
80.097096
 21
128.995940
 31
0.0
  0
LINE
  5
153
100
AcDbEntity
  8
Cut
 62
7
100
AcDbLine
 10
80.097096
 20
128.995940
 30
0.0
 11
79.601112
 21
129.095944
 31
0.0
  0
LINE
  5
154
100
AcDbEntity
  8
Cut
 62
7
100
AcDbLine
 10
79.601112
 20
129.095944
 30
0.0
 11
79.113937
 21
129.209283
 31
0.0
  0
LINE
  5
155
100
AcDbEntity
  8
Cut
 62
7
100
AcDbLine
 10
79.113937
 20
129.209283
 30
0.0
 11
78.635811
 21
129.336194
 31
0.0
  0
LINE
  5
156
100
AcDbEntity
  8
Cut
 62
7
100
AcDbLine
 10
78.635811
 20
129.336194
 30
0.0
 11
78.167447
 21
129.477629
 31
0.0
  0
LINE
  5
157
100
AcDbEntity
  8
Cut
 62
7
100
AcDbLine
 10
78.167447
 20
129.477629
 30
0.0
 11
77.710037
 21
129.633827
 31
0.0
  0
LINE
  5
158
100
AcDbEntity
  8
Cut
 62
7
100
AcDbLine
 10
77.710037
 20
129.633827
 30
0.0
 11
77.264532
 21
129.806217
 31
0.0
  0
LINE
  5
159
100
AcDbEntity
  8
Cut
 62
7
100
AcDbLine
 10
77.264532
 20
129.806217
 30
0.0
 11
76.832361
 21
129.996464
 31
0.0
  0
LINE
  5
15a
100
AcDbEntity
  8
Cut
 62
7
100
AcDbLine
 10
76.832361
 20
129.996464
 30
0.0
 11
76.622109
 21
130.099088
 31
0.0
  0
LINE
  5
15b
100
AcDbEntity
  8
Cut
 62
7
100
AcDbLine
 10
76.622109
 20
130.099088
 30
0.0
 11
76.416382
 21
130.207426
 31
0.0
  0
LINE
  5
15c
100
AcDbEntity
  8
Cut
 62
7
100
AcDbLine
 10
76.416382
 20
130.207426
 30
0.0
 11
76.315423
 21
130.264096
 31
0.0
  0
LINE
  5
15d
100
AcDbEntity
  8
Cut
 62
7
100
AcDbLine
 10
76.315423
 20
130.264096
 30
0.0
 11
76.216131
 21
130.322432
 31
0.0
  0
LINE
  5
15e
100
AcDbEntity
  8
Cut
 62
7
100
AcDbLine
 10
76.216131
 20
130.322432
 30
0.0
 11
76.118267
 21
130.383149
 31
0.0
  0
LINE
  5
15f
100
AcDbEntity
  8
Cut
 62
7
100
AcDbLine
 10
76.118267
 20
130.383149
 30
0.0
 11
76.022785
 21
130.446485
 31
0.0
  0
LINE
  5
160
100
AcDbEntity
  8
Cut
 62
7
100
AcDbLine
 10
76.022785
 20
130.446485
 30
0.0
 11
73.789307
 21
127.900887
 31
0.0
  0
LINE
  5
161
100
AcDbEntity
  8
Cut
 62
7
100
AcDbLine
 10
73.789307
 20
127.900887
 30
0.0
 11
73.864550
 21
127.814454
 31
0.0
  0
LINE
  5
162
100
AcDbEntity
  8
Cut
 62
7
100
AcDbLine
 10
73.864550
 20
127.814454
 30
0.0
 11
73.937412
 21
127.725402
 31
0.0
  0
LINE
  5
163
100
AcDbEntity
  8
Cut
 62
7
100
AcDbLine
 10
73.937412
 20
127.725402
 30
0.0
 11
74.008369
 21
127.634446
 31
0.0
  0
LINE
  5
164
100
AcDbEntity
  8
Cut
 62
7
100
AcDbLine
 10
74.008369
 20
127.634446
 30
0.0
 11
74.077659
 21
127.541584
 31
0.0
  0
LINE
  5
165
100
AcDbEntity
  8
Cut
 62
7
100
AcDbLine
 10
74.077659
 20
127.541584
 30
0.0
 11
74.211953
 21
127.351813
 31
0.0
  0
LINE
  5
166
100
AcDbEntity
  8
Cut
 62
7
100
AcDbLine
 10
74.211953
 20
127.351813
 30
0.0
 11
74.341009
 21
127.156566
 31
0.0
  0
LINE
  5
167
100
AcDbEntity
  8
Cut
 62
7
100
AcDbLine
 10
74.341009
 20
127.156566
 30
0.0
 11
74.585787
 21
126.752975
 31
0.0
  0
LINE
  5
168
100
AcDbEntity
  8
Cut
 62
7
100
AcDbLine
 10
74.585787
 20
126.752975
 30
0.0
 11
74.814612
 21
126.333669
 31
0.0
  0
LINE
  5
169
100
AcDbEntity
  8
Cut
 62
7
100
AcDbLine
 10
74.814612
 20
126.333669
 30
0.0
 11
75.029149
 21
125.900553
 31
0.0
  0
LINE
  5
16a
100
AcDbEntity
  8
Cut
 62
7
100
AcDbLine
 10
75.029149
 20
125.900553
 30
0.0
 11
75.230115
 21
125.454579
 31
0.0
  0
LINE
  5
16b
100
AcDbEntity
  8
Cut
 62
7
100
AcDbLine
 10
75.230115
 20
125.454579
 30
0.0
 11
75.418460
 21
124.997176
 31
0.0
  0
LINE
  5
16c
100
AcDbEntity
  8
Cut
 62
7
100
AcDbLine
 10
75.418460
 20
124.997176
 30
0.0
 11
75.594186
 21
124.528820
 31
0.0
  0
LINE
  5
16d
100
AcDbEntity
  8
Cut
 62
7
100
AcDbLine
 10
75.594186
 20
124.528820
 30
0.0
 11
75.757768
 21
124.049988
 31
0.0
  0
LINE
  5
16e
100
AcDbEntity
  8
Cut
 62
7
100
AcDbLine
 10
75.757768
 20
124.049988
 30
0.0
 11
75.909682
 21
123.561393
 31
0.0
  0
LINE
  5
16f
100
AcDbEntity
  8
Cut
 62
7
100
AcDbLine
 10
75.909682
 20
123.561393
 30
0.0
 11
73.709540
 21
121.593203
 31
0.0
  0
LINE
  5
170
100
AcDbEntity
  8
Cut
 62
7
100
AcDbLine
 10
73.709540
 20
121.593203
 30
0.0
 11
73.240700
 21
121.798213
 31
0.0
  0
LINE
  5
171
100
AcDbEntity
  8
Cut
 62
7
100
AcDbLine
 10
73.240700
 20
121.798213
 30
0.0
 11
72.783052
 21
122.014176
 31
0.0
  0
LINE
  5
172
100
AcDbEntity
  8
Cut
 62
7
100
AcDbLine
 10
72.783052
 20
122.014176
 30
0.0
 11
72.337070
 21
122.240853
 31
0.0
  0
LINE
  5
173
100
AcDbEntity
  8
Cut
 62
7
100
AcDbLine
 10
72.337070
 20
122.240853
 30
0.0
 11
71.903233
 21
122.478484
 31
0.0
  0
LINE
  5
174
100
AcDbEntity
  8
Cut
 62
7
100
AcDbLine
 10
71.903233
 20
122.478484
 30
0.0
 11
71.482491
 21
122.727782
 31
0.0
  0
LINE
  5
175
100
AcDbEntity
  8
Cut
 62
7
100
AcDbLine
 10
71.482491
 20
122.727782
 30
0.0
 11
71.075798
 21
122.988985
 31
0.0
  0
LINE
  5
176
100
AcDbEntity
  8
Cut
 62
7
100
AcDbLine
 10
71.075798
 20
122.988985
 30
0.0
 11
70.684344
 21
123.263045
 31
0.0
  0
LINE
  5
177
100
AcDbEntity
  8
Cut
 62
7
100
AcDbLine
 10
70.684344
 20
123.263045
 30
0.0
 11
70.310511
 21
123.550916
 31
0.0
  0
LINE
  5
178
100
AcDbEntity
  8
Cut
 62
7
100
AcDbLine
 10
70.310511
 20
123.550916
 30
0.0
 11
70.130737
 21
123.700924
 31
0.0
  0
LINE
  5
179
100
AcDbEntity
  8
Cut
 62
7
100
AcDbLine
 10
70.130737
 20
123.700924
 30
0.0
 11
69.956916
 21
123.855455
 31
0.0
  0
LINE
  5
17a
100
AcDbEntity
  8
Cut
 62
7
100
AcDbLine
 10
69.956916
 20
123.855455
 30
0.0
 11
69.872625
 21
123.934506
 31
0.0
  0
LINE
  5
17b
100
AcDbEntity
  8
Cut
 62
7
100
AcDbLine
 10
69.872625
 20
123.934506
 30
0.0
 11
69.790001
 21
124.015224
 31
0.0
  0
LINE
  5
17c
100
AcDbEntity
  8
Cut
 62
7
100
AcDbLine
 10
69.790001
 20
124.015224
 30
0.0
 11
69.709519
 21
124.097371
 31
0.0
  0
LINE
  5
17d
100
AcDbEntity
  8
Cut
 62
7
100
AcDbLine
 10
69.709519
 20
124.097371
 30
0.0
 11
69.631895
 21
124.181899
 31
0.0
  0
LINE
  5
17e
100
AcDbEntity
  8
Cut
 62
7
100
AcDbLine
 10
69.631895
 20
124.181899
 30
0.0
 11
66.854335
 21
122.244663
 31
0.0
  0
LINE
  5
17f
100
AcDbEntity
  8
Cut
 62
7
100
AcDbLine
 10
66.854335
 20
122.244663
 30
0.0
 11
66.906719
 21
122.142754
 31
0.0
  0
LINE
  5
180
100
AcDbEntity
  8
Cut
 62
7
100
AcDbLine
 10
66.906719
 20
122.142754
 30
0.0
 11
66.956008
 21
122.038701
 31
0.0
  0
LINE
  5
181
100
AcDbEntity
  8
Cut
 62
7
100
AcDbLine
 10
66.956008
 20
122.038701
 30
0.0
 11
67.003154
 21
121.933458
 31
0.0
  0
LINE
  5
182
100
AcDbEntity
  8
Cut
 62
7
100
AcDbLine
 10
67.003154
 20
121.933458
 30
0.0
 11
67.048157
 21
121.826786
 31
0.0
  0
LINE
  5
183
100
AcDbEntity
  8
Cut
 62
7
100
AcDbLine
 10
67.048157
 20
121.826786
 30
0.0
 11
67.133162
 21
121.610347
 31
0.0
  0
LINE
  5
184
100
AcDbEntity
  8
Cut
 62
7
100
AcDbLine
 10
67.133162
 20
121.610347
 30
0.0
 11
67.211739
 21
121.390098
 31
0.0
  0
LINE
  5
185
100
AcDbEntity
  8
Cut
 62
7
100
AcDbLine
 10
67.211739
 20
121.390098
 30
0.0
 11
67.352939
 21
120.939601
 31
0.0
  0
LINE
  5
186
100
AcDbEntity
  8
Cut
 62
7
100
AcDbLine
 10
67.352939
 20
120.939601
 30
0.0
 11
67.474613
 21
120.477674
 31
0.0
  0
LINE
  5
187
100
AcDbEntity
  8
Cut
 62
7
100
AcDbLine
 10
67.474613
 20
120.477674
 30
0.0
 11
67.579382
 21
120.005508
 31
0.0
  0
LINE
  5
188
100
AcDbEntity
  8
Cut
 62
7
100
AcDbLine
 10
67.579382
 20
120.005508
 30
0.0
 11
67.667721
 21
119.524533
 31
0.0
  0
LINE
  5
189
100
AcDbEntity
  8
Cut
 62
7
100
AcDbLine
 10
67.667721
 20
119.524533
 30
0.0
 11
67.741059
 21
119.035462
 31
0.0
  0
LINE
  5
18a
100
AcDbEntity
  8
Cut
 62
7
100
AcDbLine
 10
67.741059
 20
119.035462
 30
0.0
 11
67.799634
 21
118.538533
 31
0.0
  0
LINE
  5
18b
100
AcDbEntity
  8
Cut
 62
7
100
AcDbLine
 10
67.799634
 20
118.538533
 30
0.0
 11
67.843923
 21
118.034461
 31
0.0
  0
LINE
  5
18c
100
AcDbEntity
  8
Cut
 62
7
100
AcDbLine
 10
67.843923
 20
118.034461
 30
0.0
 11
67.874639
 21
117.523960
 31
0.0
  0
LINE
  5
18d
100
AcDbEntity
  8
Cut
 62
7
100
AcDbLine
 10
67.874639
 20
117.523960
 30
0.0
 11
65.267089
 21
116.139370
 31
0.0
  0
LINE
  5
18e
100
AcDbEntity
  8
Cut
 62
7
100
AcDbLine
 10
65.267089
 20
116.139370
 30
0.0
 11
64.861111
 21
116.450576
 31
0.0
  0
LINE
  5
18f
100
AcDbEntity
  8
Cut
 62
7
100
AcDbLine
 10
64.861111
 20
116.450576
 30
0.0
 11
64.468466
 21
116.769639
 31
0.0
  0
LINE
  5
190
100
AcDbEntity
  8
Cut
 62
7
100
AcDbLine
 10
64.468466
 20
116.769639
 30
0.0
 11
64.089632
 21
117.096559
 31
0.0
  0
LINE
  5
191
100
AcDbEntity
  8
Cut
 62
7
100
AcDbLine
 10
64.089632
 20
117.096559
 30
0.0
 11
63.725323
 21
117.431099
 31
0.0
  0
LINE
  5
192
100
AcDbEntity
  8
Cut
 62
7
100
AcDbLine
 10
63.725323
 20
117.431099
 30
0.0
 11
63.376491
 21
117.773734
 31
0.0
  0
LINE
  5
193
100
AcDbEntity
  8
Cut
 62
7
100
AcDbLine
 10
63.376491
 20
117.773734
 30
0.0
 11
63.044088
 21
118.124704
 31
0.0
  0
LINE
  5
194
100
AcDbEntity
  8
Cut
 62
7
100
AcDbLine
 10
63.044088
 20
118.124704
 30
0.0
 11
62.729544
 21
118.484483
 31
0.0
  0
LINE
  5
195
100
AcDbEntity
  8
Cut
 62
7
100
AcDbLine
 10
62.729544
 20
118.484483
 30
0.0
 11
62.435478
 21
118.853786
 31
0.0
  0
LINE
  5
196
100
AcDbEntity
  8
Cut
 62
7
100
AcDbLine
 10
62.435478
 20
118.853786
 30
0.0
 11
62.296897
 21
119.042367
 31
0.0
  0
LINE
  5
197
100
AcDbEntity
  8
Cut
 62
7
100
AcDbLine
 10
62.296897
 20
119.042367
 30
0.0
 11
62.164984
 21
119.233804
 31
0.0
  0
LINE
  5
198
100
AcDbEntity
  8
Cut
 62
7
100
AcDbLine
 10
62.164984
 20
119.233804
 30
0.0
 11
62.101885
 21
119.330952
 31
0.0
  0
LINE
  5
199
100
AcDbEntity
  8
Cut
 62
7
100
AcDbLine
 10
62.101885
 20
119.330952
 30
0.0
 11
62.041166
 21
119.428814
 31
0.0
  0
LINE
  5
19a
100
AcDbEntity
  8
Cut
 62
7
100
AcDbLine
 10
62.041166
 20
119.428814
 30
0.0
 11
61.982829
 21
119.528104
 31
0.0
  0
LINE
  5
19b
100
AcDbEntity
  8
Cut
 62
7
100
AcDbLine
 10
61.982829
 20
119.528104
 30
0.0
 11
61.927588
 21
119.628585
 31
0.0
  0
LINE
  5
19c
100
AcDbEntity
  8
Cut
 62
7
100
AcDbLine
 10
61.927588
 20
119.628585
 30
0.0
 11
58.766907
 21
118.412336
 31
0.0
  0
LINE
  5
19d
100
AcDbEntity
  8
Cut
 62
7
100
AcDbLine
 10
58.766907
 20
118.412336
 30
0.0
 11
58.793337
 21
118.300903
 31
0.0
  0
LINE
  5
19e
100
AcDbEntity
  8
Cut
 62
7
100
AcDbLine
 10
58.793337
 20
118.300903
 30
0.0
 11
58.816672
 21
118.188278
 31
0.0
  0
LINE
  5
19f
100
AcDbEntity
  8
Cut
 62
7
100
AcDbLine
 10
58.816672
 20
118.188278
 30
0.0
 11
58.837150
 21
118.074701
 31
0.0
  0
LINE
  5
1a0
100
AcDbEntity
  8
Cut
 62
7
100
AcDbLine
 10
58.837150
 20
118.074701
 30
0.0
 11
58.855484
 21
117.960410
 31
0.0
  0
LINE
  5
1a1
100
AcDbEntity
  8
Cut
 62
7
100
AcDbLine
 10
58.855484
 20
117.960410
 30
0.0
 11
58.885962
 21
117.729685
 31
0.0
  0
LINE
  5
1a2
100
AcDbEntity
  8
Cut
 62
7
100
AcDbLine
 10
58.885962
 20
117.729685
 30
0.0
 11
58.909535
 21
117.497054
 31
0.0
  0
LINE
  5
1a3
100
AcDbEntity
  8
Cut
 62
7
100
AcDbLine
 10
58.909535
 20
117.497054
 30
0.0
 11
58.938823
 21
117.025841
 31
0.0
  0
LINE
  5
1a4
100
AcDbEntity
  8
Cut
 62
7
100
AcDbLine
 10
58.938823
 20
117.025841
 30
0.0
 11
58.946681
 21
116.548199
 31
0.0
  0
LINE
  5
1a5
100
AcDbEntity
  8
Cut
 62
7
100
AcDbLine
 10
58.946681
 20
116.548199
 30
0.0
 11
58.935251
 21
116.064843
 31
0.0
  0
LINE
  5
1a6
100
AcDbEntity
  8
Cut
 62
7
100
AcDbLine
 10
58.935251
 20
116.064843
 30
0.0
 11
58.905964
 21
115.576724
 31
0.0
  0
LINE
  5
1a7
100
AcDbEntity
  8
Cut
 62
7
100
AcDbLine
 10
58.905964
 20
115.576724
 30
0.0
 11
58.860008
 21
115.084320
 31
0.0
  0
LINE
  5
1a8
100
AcDbEntity
  8
Cut
 62
7
100
AcDbLine
 10
58.860008
 20
115.084320
 30
0.0
 11
58.797861
 21
114.587867
 31
0.0
  0
LINE
  5
1a9
100
AcDbEntity
  8
Cut
 62
7
100
AcDbLine
 10
58.797861
 20
114.587867
 30
0.0
 11
58.720476
 21
114.087843
 31
0.0
  0
LINE
  5
1aa
100
AcDbEntity
  8
Cut
 62
7
100
AcDbLine
 10
58.720476
 20
114.087843
 30
0.0
 11
58.627850
 21
113.584724
 31
0.0
  0
LINE
  5
1ab
100
AcDbEntity
  8
Cut
 62
7
100
AcDbLine
 10
58.627850
 20
113.584724
 30
0.0
 11
55.764808
 21
112.864213
 31
0.0
  0
LINE
  5
1ac
100
AcDbEntity
  8
Cut
 62
7
100
AcDbLine
 10
55.764808
 20
112.864213
 30
0.0
 11
55.445264
 21
113.263756
 31
0.0
  0
LINE
  5
1ad
100
AcDbEntity
  8
Cut
 62
7
100
AcDbLine
 10
55.445264
 20
113.263756
 30
0.0
 11
55.140244
 21
113.667585
 31
0.0
  0
LINE
  5
1ae
100
AcDbEntity
  8
Cut
 62
7
100
AcDbLine
 10
55.140244
 20
113.667585
 30
0.0
 11
54.850701
 21
114.075462
 31
0.0
  0
LINE
  5
1af
100
AcDbEntity
  8
Cut
 62
7
100
AcDbLine
 10
54.850701
 20
114.075462
 30
0.0
 11
54.577112
 21
114.487624
 31
0.0
  0
LINE
  5
1b0
100
AcDbEntity
  8
Cut
 62
7
100
AcDbLine
 10
54.577112
 20
114.487624
 30
0.0
 11
54.320191
 21
114.903835
 31
0.0
  0
LINE
  5
1b1
100
AcDbEntity
  8
Cut
 62
7
100
AcDbLine
 10
54.320191
 20
114.903835
 30
0.0
 11
54.081604
 21
115.324093
 31
0.0
  0
LINE
  5
1b2
100
AcDbEntity
  8
Cut
 62
7
100
AcDbLine
 10
54.081604
 20
115.324093
 30
0.0
 11
53.862304
 21
115.748637
 31
0.0
  0
LINE
  5
1b3
100
AcDbEntity
  8
Cut
 62
7
100
AcDbLine
 10
53.862304
 20
115.748637
 30
0.0
 11
53.664911
 21
116.177467
 31
0.0
  0
LINE
  5
1b4
100
AcDbEntity
  8
Cut
 62
7
100
AcDbLine
 10
53.664911
 20
116.177467
 30
0.0
 11
53.575619
 21
116.393668
 31
0.0
  0
LINE
  5
1b5
100
AcDbEntity
  8
Cut
 62
7
100
AcDbLine
 10
53.575619
 20
116.393668
 30
0.0
 11
53.493471
 21
116.611298
 31
0.0
  0
LINE
  5
1b6
100
AcDbEntity
  8
Cut
 62
7
100
AcDbLine
 10
53.493471
 20
116.611298
 30
0.0
 11
53.455611
 21
116.720589
 31
0.0
  0
LINE
  5
1b7
100
AcDbEntity
  8
Cut
 62
7
100
AcDbLine
 10
53.455611
 20
116.720589
 30
0.0
 11
53.419895
 21
116.830356
 31
0.0
  0
LINE
  5
1b8
100
AcDbEntity
  8
Cut
 62
7
100
AcDbLine
 10
53.419895
 20
116.830356
 30
0.0
 11
53.387035
 21
116.940599
 31
0.0
  0
LINE
  5
1b9
100
AcDbEntity
  8
Cut
 62
7
100
AcDbLine
 10
53.387035
 20
116.940599
 30
0.0
 11
53.357510
 21
117.051319
 31
0.0
  0
LINE
  5
1ba
100
AcDbEntity
  8
Cut
 62
7
100
AcDbLine
 10
53.357510
 20
117.051319
 30
0.0
 11
49.997769
 21
116.627013
 31
0.0
  0
LINE
  5
1bb
100
AcDbEntity
  8
Cut
 62
7
100
AcDbLine
 10
49.997769
 20
116.627013
 30
0.0
 11
49.996578
 21
116.512245
 31
0.0
  0
LINE
  5
1bc
100
AcDbEntity
  8
Cut
 62
7
100
AcDbLine
 10
49.996578
 20
116.512245
 30
0.0
 11
49.992054
 21
116.397240
 31
0.0
  0
LINE
  5
1bd
100
AcDbEntity
  8
Cut
 62
7
100
AcDbLine
 10
49.992054
 20
116.397240
 30
0.0
 11
49.984911
 21
116.282234
 31
0.0
  0
LINE
  5
1be
100
AcDbEntity
  8
Cut
 62
7
100
AcDbLine
 10
49.984911
 20
116.282234
 30
0.0
 11
49.975148
 21
116.166752
 31
0.0
  0
LINE
  5
1bf
100
AcDbEntity
  8
Cut
 62
7
100
AcDbLine
 10
49.975148
 20
116.166752
 30
0.0
 11
49.949670
 21
115.935551
 31
0.0
  0
LINE
  5
1c0
100
AcDbEntity
  8
Cut
 62
7
100
AcDbLine
 10
49.949670
 20
115.935551
 30
0.0
 11
49.917049
 21
115.704111
 31
0.0
  0
LINE
  5
1c1
100
AcDbEntity
  8
Cut
 62
7
100
AcDbLine
 10
49.917049
 20
115.704111
 30
0.0
 11
49.832520
 21
115.239565
 31
0.0
  0
LINE
  5
1c2
100
AcDbEntity
  8
Cut
 62
7
100
AcDbLine
 10
49.832520
 20
115.239565
 30
0.0
 11
49.725846
 21
114.773828
 31
0.0
  0
LINE
  5
1c3
100
AcDbEntity
  8
Cut
 62
7
100
AcDbLine
 10
49.725846
 20
114.773828
 30
0.0
 11
49.599171
 21
114.307378
 31
0.0
  0
LINE
  5
1c4
100
AcDbEntity
  8
Cut
 62
7
100
AcDbLine
 10
49.599171
 20
114.307378
 30
0.0
 11
49.453924
 21
113.840450
 31
0.0
  0
LINE
  5
1c5
100
AcDbEntity
  8
Cut
 62
7
100
AcDbLine
 10
49.453924
 20
113.840450
 30
0.0
 11
49.291294
 21
113.373047
 31
0.0
  0
LINE
  5
1c6
100
AcDbEntity
  8
Cut
 62
7
100
AcDbLine
 10
49.291294
 20
113.373047
 30
0.0
 11
49.112235
 21
112.905882
 31
0.0
  0
LINE
  5
1c7
100
AcDbEntity
  8
Cut
 62
7
100
AcDbLine
 10
49.112235
 20
112.905882
 30
0.0
 11
48.917461
 21
112.439193
 31
0.0
  0
LINE
  5
1c8
100
AcDbEntity
  8
Cut
 62
7
100
AcDbLine
 10
48.917461
 20
112.439193
 30
0.0
 11
48.707209
 21
111.972742
 31
0.0
  0
LINE
  5
1c9
100
AcDbEntity
  8
Cut
 62
7
100
AcDbLine
 10
48.707209
 20
111.972742
 30
0.0
 11
45.754875
 21
111.958455
 31
0.0
  0
LINE
  5
1ca
100
AcDbEntity
  8
Cut
 62
7
100
AcDbLine
 10
45.754875
 20
111.958455
 30
0.0
 11
45.540099
 21
112.422763
 31
0.0
  0
LINE
  5
1cb
100
AcDbEntity
  8
Cut
 62
7
100
AcDbLine
 10
45.540099
 20
112.422763
 30
0.0
 11
45.340801
 21
112.887786
 31
0.0
  0
LINE
  5
1cc
100
AcDbEntity
  8
Cut
 62
7
100
AcDbLine
 10
45.340801
 20
112.887786
 30
0.0
 11
45.157217
 21
113.353284
 31
0.0
  0
LINE
  5
1cd
100
AcDbEntity
  8
Cut
 62
7
100
AcDbLine
 10
45.157217
 20
113.353284
 30
0.0
 11
44.990064
 21
113.818783
 31
0.0
  0
LINE
  5
1ce
100
AcDbEntity
  8
Cut
 62
7
100
AcDbLine
 10
44.990064
 20
113.818783
 30
0.0
 11
44.840530
 21
114.284281
 31
0.0
  0
LINE
  5
1cf
100
AcDbEntity
  8
Cut
 62
7
100
AcDbLine
 10
44.840530
 20
114.284281
 30
0.0
 11
44.709331
 21
114.749542
 31
0.0
  0
LINE
  5
1d0
100
AcDbEntity
  8
Cut
 62
7
100
AcDbLine
 10
44.709331
 20
114.749542
 30
0.0
 11
44.597896
 21
115.214326
 31
0.0
  0
LINE
  5
1d1
100
AcDbEntity
  8
Cut
 62
7
100
AcDbLine
 10
44.597896
 20
115.214326
 30
0.0
 11
44.509080
 21
115.677919
 31
0.0
  0
LINE
  5
1d2
100
AcDbEntity
  8
Cut
 62
7
100
AcDbLine
 10
44.509080
 20
115.677919
 30
0.0
 11
44.474078
 21
115.909121
 31
0.0
  0
LINE
  5
1d3
100
AcDbEntity
  8
Cut
 62
7
100
AcDbLine
 10
44.474078
 20
115.909121
 30
0.0
 11
44.446457
 21
116.140085
 31
0.0
  0
LINE
  5
1d4
100
AcDbEntity
  8
Cut
 62
7
100
AcDbLine
 10
44.446457
 20
116.140085
 30
0.0
 11
44.435504
 21
116.255328
 31
0.0
  0
LINE
  5
1d5
100
AcDbEntity
  8
Cut
 62
7
100
AcDbLine
 10
44.435504
 20
116.255328
 30
0.0
 11
44.427170
 21
116.370334
 31
0.0
  0
LINE
  5
1d6
100
AcDbEntity
  8
Cut
 62
7
100
AcDbLine
 10
44.427170
 20
116.370334
 30
0.0
 11
44.421694
 21
116.485339
 31
0.0
  0
LINE
  5
1d7
100
AcDbEntity
  8
Cut
 62
7
100
AcDbLine
 10
44.421694
 20
116.485339
 30
0.0
 11
44.419551
 21
116.599868
 31
0.0
  0
LINE
  5
1d8
100
AcDbEntity
  8
Cut
 62
7
100
AcDbLine
 10
44.419551
 20
116.599868
 30
0.0
 11
41.055762
 21
116.991792
 31
0.0
  0
LINE
  5
1d9
100
AcDbEntity
  8
Cut
 62
7
100
AcDbLine
 10
41.055762
 20
116.991792
 30
0.0
 11
41.027427
 21
116.880834
 31
0.0
  0
LINE
  5
1da
100
AcDbEntity
  8
Cut
 62
7
100
AcDbLine
 10
41.027427
 20
116.880834
 30
0.0
 11
40.995520
 21
116.770353
 31
0.0
  0
LINE
  5
1db
100
AcDbEntity
  8
Cut
 62
7
100
AcDbLine
 10
40.995520
 20
116.770353
 30
0.0
 11
40.960994
 21
116.660109
 31
0.0
  0
LINE
  5
1dc
100
AcDbEntity
  8
Cut
 62
7
100
AcDbLine
 10
40.960994
 20
116.660109
 30
0.0
 11
40.923849
 21
116.550580
 31
0.0
  0
LINE
  5
1dd
100
AcDbEntity
  8
Cut
 62
7
100
AcDbLine
 10
40.923849
 20
116.550580
 30
0.0
 11
40.843843
 21
116.332237
 31
0.0
  0
LINE
  5
1de
100
AcDbEntity
  8
Cut
 62
7
100
AcDbLine
 10
40.843843
 20
116.332237
 30
0.0
 11
40.756695
 21
116.115083
 31
0.0
  0
LINE
  5
1df
100
AcDbEntity
  8
Cut
 62
7
100
AcDbLine
 10
40.756695
 20
116.115083
 30
0.0
 11
40.563587
 21
115.684348
 31
0.0
  0
LINE
  5
1e0
100
AcDbEntity
  8
Cut
 62
7
100
AcDbLine
 10
40.563587
 20
115.684348
 30
0.0
 11
40.348335
 21
115.257661
 31
0.0
  0
LINE
  5
1e1
100
AcDbEntity
  8
Cut
 62
7
100
AcDbLine
 10
40.348335
 20
115.257661
 30
0.0
 11
40.113796
 21
114.835022
 31
0.0
  0
LINE
  5
1e2
100
AcDbEntity
  8
Cut
 62
7
100
AcDbLine
 10
40.113796
 20
114.835022
 30
0.0
 11
39.860923
 21
114.416430
 31
0.0
  0
LINE
  5
1e3
100
AcDbEntity
  8
Cut
 62
7
100
AcDbLine
 10
39.860923
 20
114.416430
 30
0.0
 11
39.591381
 21
114.001649
 31
0.0
  0
LINE
  5
1e4
100
AcDbEntity
  8
Cut
 62
7
100
AcDbLine
 10
39.591381
 20
114.001649
 30
0.0
 11
39.305649
 21
113.590915
 31
0.0
  0
LINE
  5
1e5
100
AcDbEntity
  8
Cut
 62
7
100
AcDbLine
 10
39.305649
 20
113.590915
 30
0.0
 11
39.004677
 21
113.184228
 31
0.0
  0
LINE
  5
1e6
100
AcDbEntity
  8
Cut
 62
7
100
AcDbLine
 10
39.004677
 20
113.184228
 30
0.0
 11
38.688942
 21
112.781828
 31
0.0
  0
LINE
  5
1e7
100
AcDbEntity
  8
Cut
 62
7
100
AcDbLine
 10
38.688942
 20
112.781828
 30
0.0
 11
35.818995
 21
113.474480
 31
0.0
  0
LINE
  5
1e8
100
AcDbEntity
  8
Cut
 62
7
100
AcDbLine
 10
35.818995
 20
113.474480
 30
0.0
 11
35.721607
 21
113.976647
 31
0.0
  0
LINE
  5
1e9
100
AcDbEntity
  8
Cut
 62
7
100
AcDbLine
 10
35.721607
 20
113.976647
 30
0.0
 11
35.639459
 21
114.475719
 31
0.0
  0
LINE
  5
1ea
100
AcDbEntity
  8
Cut
 62
7
100
AcDbLine
 10
35.639459
 20
114.475719
 30
0.0
 11
35.572550
 21
114.971695
 31
0.0
  0
LINE
  5
1eb
100
AcDbEntity
  8
Cut
 62
7
100
AcDbLine
 10
35.572550
 20
114.971695
 30
0.0
 11
35.521833
 21
115.463623
 31
0.0
  0
LINE
  5
1ec
100
AcDbEntity
  8
Cut
 62
7
100
AcDbLine
 10
35.521833
 20
115.463623
 30
0.0
 11
35.487783
 21
115.951504
 31
0.0
  0
LINE
  5
1ed
100
AcDbEntity
  8
Cut
 62
7
100
AcDbLine
 10
35.487783
 20
115.951504
 30
0.0
 11
35.471829
 21
116.434622
 31
0.0
  0
LINE
  5
1ee
100
AcDbEntity
  8
Cut
 62
7
100
AcDbLine
 10
35.471829
 20
116.434622
 30
0.0
 11
35.474925
 21
116.912503
 31
0.0
  0
LINE
  5
1ef
100
AcDbEntity
  8
Cut
 62
7
100
AcDbLine
 10
35.474925
 20
116.912503
 30
0.0
 11
35.499450
 21
117.383954
 31
0.0
  0
LINE
  5
1f0
100
AcDbEntity
  8
Cut
 62
7
100
AcDbLine
 10
35.499450
 20
117.383954
 30
0.0
 11
35.520880
 21
117.616822
 31
0.0
  0
LINE
  5
1f1
100
AcDbEntity
  8
Cut
 62
7
100
AcDbLine
 10
35.520880
 20
117.616822
 30
0.0
 11
35.549215
 21
117.847786
 31
0.0
  0
LINE
  5
1f2
100
AcDbEntity
  8
Cut
 62
7
100
AcDbLine
 10
35.549215
 20
117.847786
 30
0.0
 11
35.566359
 21
117.962077
 31
0.0
  0
LINE
  5
1f3
100
AcDbEntity
  8
Cut
 62
7
100
AcDbLine
 10
35.566359
 20
117.962077
 30
0.0
 11
35.585884
 21
118.075892
 31
0.0
  0
LINE
  5
1f4
100
AcDbEntity
  8
Cut
 62
7
100
AcDbLine
 10
35.585884
 20
118.075892
 30
0.0
 11
35.608029
 21
118.188754
 31
0.0
  0
LINE
  5
1f5
100
AcDbEntity
  8
Cut
 62
7
100
AcDbLine
 10
35.608029
 20
118.188754
 30
0.0
 11
35.633268
 21
118.300664
 31
0.0
  0
LINE
  5
1f6
100
AcDbEntity
  8
Cut
 62
7
100
AcDbLine
 10
35.633268
 20
118.300664
 30
0.0
 11
32.461158
 21
119.486197
 31
0.0
  0
LINE
  5
1f7
100
AcDbEntity
  8
Cut
 62
7
100
AcDbLine
 10
32.461158
 20
119.486197
 30
0.0
 11
32.406869
 21
119.385002
 31
0.0
  0
LINE
  5
1f8
100
AcDbEntity
  8
Cut
 62
7
100
AcDbLine
 10
32.406869
 20
119.385002
 30
0.0
 11
32.349485
 21
119.285474
 31
0.0
  0
LINE
  5
1f9
100
AcDbEntity
  8
Cut
 62
7
100
AcDbLine
 10
32.349485
 20
119.285474
 30
0.0
 11
32.289481
 21
119.186897
 31
0.0
  0
LINE
  5
1fa
100
AcDbEntity
  8
Cut
 62
7
100
AcDbLine
 10
32.289481
 20
119.186897
 30
0.0
 11
32.227572
 21
119.089036
 31
0.0
  0
LINE
  5
1fb
100
AcDbEntity
  8
Cut
 62
7
100
AcDbLine
 10
32.227572
 20
119.089036
 30
0.0
 11
32.097563
 21
118.896407
 31
0.0
  0
LINE
  5
1fc
100
AcDbEntity
  8
Cut
 62
7
100
AcDbLine
 10
32.097563
 20
118.896407
 30
0.0
 11
31.960888
 21
118.706398
 31
0.0
  0
LINE
  5
1fd
100
AcDbEntity
  8
Cut
 62
7
100
AcDbLine
 10
31.960888
 20
118.706398
 30
0.0
 11
31.670155
 21
118.334476
 31
0.0
  0
LINE
  5
1fe
100
AcDbEntity
  8
Cut
 62
7
100
AcDbLine
 10
31.670155
 20
118.334476
 30
0.0
 11
31.359182
 21
117.971601
 31
0.0
  0
LINE
  5
1ff
100
AcDbEntity
  8
Cut
 62
7
100
AcDbLine
 10
31.359182
 20
117.971601
 30
0.0
 11
31.030352
 21
117.617536
 31
0.0
  0
LINE
  5
200
100
AcDbEntity
  8
Cut
 62
7
100
AcDbLine
 10
31.030352
 20
117.617536
 30
0.0
 11
30.684615
 21
117.271567
 31
0.0
  0
LINE
  5
201
100
AcDbEntity
  8
Cut
 62
7
100
AcDbLine
 10
30.684615
 20
117.271567
 30
0.0
 11
30.323639
 21
116.933218
 31
0.0
  0
LINE
  5
202
100
AcDbEntity
  8
Cut
 62
7
100
AcDbLine
 10
30.323639
 20
116.933218
 30
0.0
 11
29.947901
 21
116.602726
 31
0.0
  0
LINE
  5
203
100
AcDbEntity
  8
Cut
 62
7
100
AcDbLine
 10
29.947901
 20
116.602726
 30
0.0
 11
29.558352
 21
116.280091
 31
0.0
  0
LINE
  5
204
100
AcDbEntity
  8
Cut
 62
7
100
AcDbLine
 10
29.558352
 20
116.280091
 30
0.0
 11
29.155468
 21
115.964838
 31
0.0
  0
LINE
  5
205
100
AcDbEntity
  8
Cut
 62
7
100
AcDbLine
 10
29.155468
 20
115.964838
 30
0.0
 11
26.534823
 21
117.323951
 31
0.0
  0
LINE
  5
206
100
AcDbEntity
  8
Cut
 62
7
100
AcDbLine
 10
26.534823
 20
117.323951
 30
0.0
 11
26.560539
 21
117.834928
 31
0.0
  0
LINE
  5
207
100
AcDbEntity
  8
Cut
 62
7
100
AcDbLine
 10
26.560539
 20
117.834928
 30
0.0
 11
26.599827
 21
118.339476
 31
0.0
  0
LINE
  5
208
100
AcDbEntity
  8
Cut
 62
7
100
AcDbLine
 10
26.599827
 20
118.339476
 30
0.0
 11
26.653640
 21
118.836881
 31
0.0
  0
LINE
  5
209
100
AcDbEntity
  8
Cut
 62
7
100
AcDbLine
 10
26.653640
 20
118.836881
 30
0.0
 11
26.722216
 21
119.326666
 31
0.0
  0
LINE
  5
20a
100
AcDbEntity
  8
Cut
 62
7
100
AcDbLine
 10
26.722216
 20
119.326666
 30
0.0
 11
26.806031
 21
119.808594
 31
0.0
  0
LINE
  5
20b
100
AcDbEntity
  8
Cut
 62
7
100
AcDbLine
 10
26.806031
 20
119.808594
 30
0.0
 11
26.906037
 21
120.281474
 31
0.0
  0
LINE
  5
20c
100
AcDbEntity
  8
Cut
 62
7
100
AcDbLine
 10
26.906037
 20
120.281474
 30
0.0
 11
27.023426
 21
120.744591
 31
0.0
  0
LINE
  5
20d
100
AcDbEntity
  8
Cut
 62
7
100
AcDbLine
 10
27.023426
 20
120.744591
 30
0.0
 11
27.160101
 21
121.196518
 31
0.0
  0
LINE
  5
20e
100
AcDbEntity
  8
Cut
 62
7
100
AcDbLine
 10
27.160101
 20
121.196518
 30
0.0
 11
27.236773
 21
121.417481
 31
0.0
  0
LINE
  5
20f
100
AcDbEntity
  8
Cut
 62
7
100
AcDbLine
 10
27.236773
 20
121.417481
 30
0.0
 11
27.319397
 21
121.634872
 31
0.0
  0
LINE
  5
210
100
AcDbEntity
  8
Cut
 62
7
100
AcDbLine
 10
27.319397
 20
121.634872
 30
0.0
 11
27.363448
 21
121.741782
 31
0.0
  0
LINE
  5
211
100
AcDbEntity
  8
Cut
 62
7
100
AcDbLine
 10
27.363448
 20
121.741782
 30
0.0
 11
27.409641
 21
121.847739
 31
0.0
  0
LINE
  5
212
100
AcDbEntity
  8
Cut
 62
7
100
AcDbLine
 10
27.409641
 20
121.847739
 30
0.0
 11
27.457978
 21
121.952030
 31
0.0
  0
LINE
  5
213
100
AcDbEntity
  8
Cut
 62
7
100
AcDbLine
 10
27.457978
 20
121.952030
 30
0.0
 11
27.509410
 21
122.054416
 31
0.0
  0
LINE
  5
214
100
AcDbEntity
  8
Cut
 62
7
100
AcDbLine
 10
27.509410
 20
122.054416
 30
0.0
 11
24.713038
 21
123.964746
 31
0.0
  0
LINE
  5
215
100
AcDbEntity
  8
Cut
 62
7
100
AcDbLine
 10
24.713038
 20
123.964746
 30
0.0
 11
24.636367
 21
123.879504
 31
0.0
  0
LINE
  5
216
100
AcDbEntity
  8
Cut
 62
7
100
AcDbLine
 10
24.636367
 20
123.879504
 30
0.0
 11
24.556838
 21
123.796642
 31
0.0
  0
LINE
  5
217
100
AcDbEntity
  8
Cut
 62
7
100
AcDbLine
 10
24.556838
 20
123.796642
 30
0.0
 11
24.474928
 21
123.715210
 31
0.0
  0
LINE
  5
218
100
AcDbEntity
  8
Cut
 62
7
100
AcDbLine
 10
24.474928
 20
123.715210
 30
0.0
 11
24.391351
 21
123.635206
 31
0.0
  0
LINE
  5
219
100
AcDbEntity
  8
Cut
 62
7
100
AcDbLine
 10
24.391351
 20
123.635206
 30
0.0
 11
24.218959
 21
123.479008
 31
0.0
  0
LINE
  5
21a
100
AcDbEntity
  8
Cut
 62
7
100
AcDbLine
 10
24.218959
 20
123.479008
 30
0.0
 11
24.040852
 21
123.327334
 31
0.0
  0
LINE
  5
21b
100
AcDbEntity
  8
Cut
 62
7
100
AcDbLine
 10
24.040852
 20
123.327334
 30
0.0
 11
23.669638
 21
123.035654
 31
0.0
  0
LINE
  5
21c
100
AcDbEntity
  8
Cut
 62
7
100
AcDbLine
 10
23.669638
 20
123.035654
 30
0.0
 11
23.280803
 21
122.758021
 31
0.0
  0
LINE
  5
21d
100
AcDbEntity
  8
Cut
 62
7
100
AcDbLine
 10
23.280803
 20
122.758021
 30
0.0
 11
22.876729
 21
122.492770
 31
0.0
  0
LINE
  5
21e
100
AcDbEntity
  8
Cut
 62
7
100
AcDbLine
 10
22.876729
 20
122.492770
 30
0.0
 11
22.458369
 21
122.239425
 31
0.0
  0
LINE
  5
21f
100
AcDbEntity
  8
Cut
 62
7
100
AcDbLine
 10
22.458369
 20
122.239425
 30
0.0
 11
22.026912
 21
121.997508
 31
0.0
  0
LINE
  5
220
100
AcDbEntity
  8
Cut
 62
7
100
AcDbLine
 10
22.026912
 20
121.997508
 30
0.0
 11
21.583074
 21
121.766545
 31
0.0
  0
LINE
  5
221
100
AcDbEntity
  8
Cut
 62
7
100
AcDbLine
 10
21.583074
 20
121.766545
 30
0.0
 11
21.127568
 21
121.546296
 31
0.0
  0
LINE
  5
222
100
AcDbEntity
  8
Cut
 62
7
100
AcDbLine
 10
21.127568
 20
121.546296
 30
0.0
 11
20.660872
 21
121.336762
 31
0.0
  0
LINE
  5
223
100
AcDbEntity
  8
Cut
 62
7
100
AcDbLine
 10
20.660872
 20
121.336762
 30
0.0
 11
18.441680
 21
123.283761
 31
0.0
  0
LINE
  5
224
100
AcDbEntity
  8
Cut
 62
7
100
AcDbLine
 10
18.441680
 20
123.283761
 30
0.0
 11
18.588833
 21
123.773784
 31
0.0
  0
LINE
  5
225
100
AcDbEntity
  8
Cut
 62
7
100
AcDbLine
 10
18.588833
 20
123.773784
 30
0.0
 11
18.747891
 21
124.254045
 31
0.0
  0
LINE
  5
226
100
AcDbEntity
  8
Cut
 62
7
100
AcDbLine
 10
18.747891
 20
124.254045
 30
0.0
 11
18.919092
 21
124.724068
 31
0.0
  0
LINE
  5
227
100
AcDbEntity
  8
Cut
 62
7
100
AcDbLine
 10
18.919092
 20
124.724068
 30
0.0
 11
19.102914
 21
125.183376
 31
0.0
  0
LINE
  5
228
100
AcDbEntity
  8
Cut
 62
7
100
AcDbLine
 10
19.102914
 20
125.183376
 30
0.0
 11
19.299593
 21
125.631016
 31
0.0
  0
LINE
  5
229
100
AcDbEntity
  8
Cut
 62
7
100
AcDbLine
 10
19.299593
 20
125.631016
 30
0.0
 11
19.509845
 21
126.066275
 31
0.0
  0
LINE
  5
22a
100
AcDbEntity
  8
Cut
 62
7
100
AcDbLine
 10
19.509845
 20
126.066275
 30
0.0
 11
19.734621
 21
126.487962
 31
0.0
  0
LINE
  5
22b
100
AcDbEntity
  8
Cut
 62
7
100
AcDbLine
 10
19.734621
 20
126.487962
 30
0.0
 11
19.975589
 21
126.893934
 31
0.0
  0
LINE
  5
22c
100
AcDbEntity
  8
Cut
 62
7
100
AcDbLine
 10
19.975589
 20
126.893934
 30
0.0
 11
20.102740
 21
127.090372
 31
0.0
  0
LINE
  5
22d
100
AcDbEntity
  8
Cut
 62
7
100
AcDbLine
 10
20.102740
 20
127.090372
 30
0.0
 11
20.235130
 21
127.281333
 31
0.0
  0
LINE
  5
22e
100
AcDbEntity
  8
Cut
 62
7
100
AcDbLine
 10
20.235130
 20
127.281333
 30
0.0
 11
20.303467
 21
127.374909
 31
0.0
  0
LINE
  5
22f
100
AcDbEntity
  8
Cut
 62
7
100
AcDbLine
 10
20.303467
 20
127.374909
 30
0.0
 11
20.373472
 21
127.466580
 31
0.0
  0
LINE
  5
230
100
AcDbEntity
  8
Cut
 62
7
100
AcDbLine
 10
20.373472
 20
127.466580
 30
0.0
 11
20.445619
 21
127.556347
 31
0.0
  0
LINE
  5
231
100
AcDbEntity
  8
Cut
 62
7
100
AcDbLine
 10
20.445619
 20
127.556347
 30
0.0
 11
20.519910
 21
127.643494
 31
0.0
  0
LINE
  5
232
100
AcDbEntity
  8
Cut
 62
7
100
AcDbLine
 10
20.519910
 20
127.643494
 30
0.0
 11
18.262145
 21
130.167424
 31
0.0
  0
LINE
  5
233
100
AcDbEntity
  8
Cut
 62
7
100
AcDbLine
 10
18.262145
 20
130.167424
 30
0.0
 11
18.167139
 21
130.103136
 31
0.0
  0
LINE
  5
234
100
AcDbEntity
  8
Cut
 62
7
100
AcDbLine
 10
18.167139
 20
130.103136
 30
0.0
 11
18.069990
 21
130.041466
 31
0.0
  0
LINE
  5
235
100
AcDbEntity
  8
Cut
 62
7
100
AcDbLine
 10
18.069990
 20
130.041466
 30
0.0
 11
17.971174
 21
129.981939
 31
0.0
  0
LINE
  5
236
100
AcDbEntity
  8
Cut
 62
7
100
AcDbLine
 10
17.971174
 20
129.981939
 30
0.0
 11
17.870691
 21
129.924317
 31
0.0
  0
LINE
  5
237
100
AcDbEntity
  8
Cut
 62
7
100
AcDbLine
 10
17.870691
 20
129.924317
 30
0.0
 11
17.665916
 21
129.814074
 31
0.0
  0
LINE
  5
238
100
AcDbEntity
  8
Cut
 62
7
100
AcDbLine
 10
17.665916
 20
129.814074
 30
0.0
 11
17.456855
 21
129.709545
 31
0.0
  0
LINE
  5
239
100
AcDbEntity
  8
Cut
 62
7
100
AcDbLine
 10
17.456855
 20
129.709545
 30
0.0
 11
17.026589
 21
129.515012
 31
0.0
  0
LINE
  5
23a
100
AcDbEntity
  8
Cut
 62
7
100
AcDbLine
 10
17.026589
 20
129.515012
 30
0.0
 11
16.582513
 21
129.338337
 31
0.0
  0
LINE
  5
23b
100
AcDbEntity
  8
Cut
 62
7
100
AcDbLine
 10
16.582513
 20
129.338337
 30
0.0
 11
16.126769
 21
129.177615
 31
0.0
  0
LINE
  5
23c
100
AcDbEntity
  8
Cut
 62
7
100
AcDbLine
 10
16.126769
 20
129.177615
 30
0.0
 11
15.659834
 21
129.031894
 31
0.0
  0
LINE
  5
23d
100
AcDbEntity
  8
Cut
 62
7
100
AcDbLine
 10
15.659834
 20
129.031894
 30
0.0
 11
15.183136
 21
128.900221
 31
0.0
  0
LINE
  5
23e
100
AcDbEntity
  8
Cut
 62
7
100
AcDbLine
 10
15.183136
 20
128.900221
 30
0.0
 11
14.696914
 21
128.782120
 31
0.0
  0
LINE
  5
23f
100
AcDbEntity
  8
Cut
 62
7
100
AcDbLine
 10
14.696914
 20
128.782120
 30
0.0
 11
14.201882
 21
128.677353
 31
0.0
  0
LINE
  5
240
100
AcDbEntity
  8
Cut
 62
7
100
AcDbLine
 10
14.201882
 20
128.677353
 30
0.0
 11
13.698517
 21
128.585444
 31
0.0
  0
LINE
  5
241
100
AcDbEntity
  8
Cut
 62
7
100
AcDbLine
 10
13.698517
 20
128.585444
 30
0.0
 11
12.009836
 21
131.006988
 31
0.0
  0
LINE
  5
242
100
AcDbEntity
  8
Cut
 62
7
100
AcDbLine
 10
12.009836
 20
131.006988
 30
0.0
 11
12.269853
 21
131.447486
 31
0.0
  0
LINE
  5
243
100
AcDbEntity
  8
Cut
 62
7
100
AcDbLine
 10
12.269853
 20
131.447486
 30
0.0
 11
12.539394
 21
131.875840
 31
0.0
  0
LINE
  5
244
100
AcDbEntity
  8
Cut
 62
7
100
AcDbLine
 10
12.539394
 20
131.875840
 30
0.0
 11
12.818222
 21
132.291336
 31
0.0
  0
LINE
  5
245
100
AcDbEntity
  8
Cut
 62
7
100
AcDbLine
 10
12.818222
 20
132.291336
 30
0.0
 11
13.106335
 21
132.693260
 31
0.0
  0
LINE
  5
246
100
AcDbEntity
  8
Cut
 62
7
100
AcDbLine
 10
13.106335
 20
132.693260
 30
0.0
 11
13.404450
 21
133.080897
 31
0.0
  0
LINE
  5
247
100
AcDbEntity
  8
Cut
 62
7
100
AcDbLine
 10
13.404450
 20
133.080897
 30
0.0
 11
13.712803
 21
133.453058
 31
0.0
  0
LINE
  5
248
100
AcDbEntity
  8
Cut
 62
7
100
AcDbLine
 10
13.712803
 20
133.453058
 30
0.0
 11
14.032110
 21
133.808551
 31
0.0
  0
LINE
  5
249
100
AcDbEntity
  8
Cut
 62
7
100
AcDbLine
 10
14.032110
 20
133.808551
 30
0.0
 11
14.363083
 21
134.145234
 31
0.0
  0
LINE
  5
24a
100
AcDbEntity
  8
Cut
 62
7
100
AcDbLine
 10
14.363083
 20
134.145234
 30
0.0
 11
14.533571
 21
134.305480
 31
0.0
  0
LINE
  5
24b
100
AcDbEntity
  8
Cut
 62
7
100
AcDbLine
 10
14.533571
 20
134.305480
 30
0.0
 11
14.707868
 21
134.459297
 31
0.0
  0
LINE
  5
24c
100
AcDbEntity
  8
Cut
 62
7
100
AcDbLine
 10
14.707868
 20
134.459297
 30
0.0
 11
14.796683
 21
134.533586
 31
0.0
  0
LINE
  5
24d
100
AcDbEntity
  8
Cut
 62
7
100
AcDbLine
 10
14.796683
 20
134.533586
 30
0.0
 11
14.886689
 21
134.605971
 31
0.0
  0
LINE
  5
24e
100
AcDbEntity
  8
Cut
 62
7
100
AcDbLine
 10
14.886689
 20
134.605971
 30
0.0
 11
14.978123
 21
134.675736
 31
0.0
  0
LINE
  5
24f
100
AcDbEntity
  8
Cut
 62
7
100
AcDbLine
 10
14.978123
 20
134.675736
 30
0.0
 11
15.071224
 21
134.742644
 31
0.0
  0
LINE
  5
250
100
AcDbEntity
  8
Cut
 62
7
100
AcDbLine
 10
15.071224
 20
134.742644
 30
0.0
 11
13.483026
 21
137.733502
 31
0.0
  0
LINE
  5
251
100
AcDbEntity
  8
Cut
 62
7
100
AcDbLine
 10
13.483026
 20
137.733502
 30
0.0
 11
13.375400
 21
137.693976
 31
0.0
  0
LINE
  5
252
100
AcDbEntity
  8
Cut
 62
7
100
AcDbLine
 10
13.375400
 20
137.693976
 30
0.0
 11
13.266346
 21
137.657308
 31
0.0
  0
LINE
  5
253
100
AcDbEntity
  8
Cut
 62
7
100
AcDbLine
 10
13.266346
 20
137.657308
 30
0.0
 11
13.156100
 21
137.623258
 31
0.0
  0
LINE
  5
254
100
AcDbEntity
  8
Cut
 62
7
100
AcDbLine
 10
13.156100
 20
137.623258
 30
0.0
 11
13.044665
 21
137.591352
 31
0.0
  0
LINE
  5
255
100
AcDbEntity
  8
Cut
 62
7
100
AcDbLine
 10
13.044665
 20
137.591352
 30
0.0
 11
12.819650
 21
137.533254
 31
0.0
  0
LINE
  5
256
100
AcDbEntity
  8
Cut
 62
7
100
AcDbLine
 10
12.819650
 20
137.533254
 30
0.0
 11
12.591302
 21
137.481585
 31
0.0
  0
LINE
  5
257
100
AcDbEntity
  8
Cut
 62
7
100
AcDbLine
 10
12.591302
 20
137.481585
 30
0.0
 11
12.127224
 21
137.395866
 31
0.0
  0
LINE
  5
258
100
AcDbEntity
  8
Cut
 62
7
100
AcDbLine
 10
12.127224
 20
137.395866
 30
0.0
 11
11.653860
 21
137.330625
 31
0.0
  0
LINE
  5
259
100
AcDbEntity
  8
Cut
 62
7
100
AcDbLine
 10
11.653860
 20
137.330625
 30
0.0
 11
11.172639
 21
137.283718
 31
0.0
  0
LINE
  5
25a
100
AcDbEntity
  8
Cut
 62
7
100
AcDbLine
 10
11.172639
 20
137.283718
 30
0.0
 11
10.684512
 21
137.253717
 31
0.0
  0
LINE
  5
25b
100
AcDbEntity
  8
Cut
 62
7
100
AcDbLine
 10
10.684512
 20
137.253717
 30
0.0
 11
10.190194
 21
137.240145
 31
0.0
  0
LINE
  5
25c
100
AcDbEntity
  8
Cut
 62
7
100
AcDbLine
 10
10.190194
 20
137.240145
 30
0.0
 11
9.689686
 21
137.241811
 31
0.0
  0
LINE
  5
25d
100
AcDbEntity
  8
Cut
 62
7
100
AcDbLine
 10
9.689686
 20
137.241811
 30
0.0
 11
9.184177
 21
137.258479
 31
0.0
  0
LINE
  5
25e
100
AcDbEntity
  8
Cut
 62
7
100
AcDbLine
 10
9.184177
 20
137.258479
 30
0.0
 11
8.673430
 21
137.289671
 31
0.0
  0
LINE
  5
25f
100
AcDbEntity
  8
Cut
 62
7
100
AcDbLine
 10
8.673430
 20
137.289671
 30
0.0
 11
7.613123
 21
140.045041
 31
0.0
  0
LINE
  5
260
100
AcDbEntity
  8
Cut
 62
7
100
AcDbLine
 10
7.613123
 20
140.045041
 30
0.0
 11
7.971241
 21
140.410535
 31
0.0
  0
LINE
  5
261
100
AcDbEntity
  8
Cut
 62
7
100
AcDbLine
 10
7.971241
 20
140.410535
 30
0.0
 11
8.335313
 21
140.761742
 31
0.0
  0
LINE
  5
262
100
AcDbEntity
  8
Cut
 62
7
100
AcDbLine
 10
8.335313
 20
140.761742
 30
0.0
 11
8.705336
 21
141.098425
 31
0.0
  0
LINE
  5
263
100
AcDbEntity
  8
Cut
 62
7
100
AcDbLine
 10
8.705336
 20
141.098425
 30
0.0
 11
9.081551
 21
141.419869
 31
0.0
  0
LINE
  5
264
100
AcDbEntity
  8
Cut
 62
7
100
AcDbLine
 10
9.081551
 20
141.419869
 30
0.0
 11
9.463719
 21
141.724884
 31
0.0
  0
LINE
  5
265
100
AcDbEntity
  8
Cut
 62
7
100
AcDbLine
 10
9.463719
 20
141.724884
 30
0.0
 11
9.852315
 21
142.012517
 31
0.0
  0
LINE
  5
266
100
AcDbEntity
  8
Cut
 62
7
100
AcDbLine
 10
9.852315
 20
142.012517
 30
0.0
 11
10.247341
 21
142.281339
 31
0.0
  0
LINE
  5
267
100
AcDbEntity
  8
Cut
 62
7
100
AcDbLine
 10
10.247341
 20
142.281339
 30
0.0
 11
10.649272
 21
142.528970
 31
0.0
  0
LINE
  5
268
100
AcDbEntity
  8
Cut
 62
7
100
AcDbLine
 10
10.649272
 20
142.528970
 30
0.0
 11
10.853094
 21
142.643499
 31
0.0
  0
LINE
  5
269
100
AcDbEntity
  8
Cut
 62
7
100
AcDbLine
 10
10.853094
 20
142.643499
 30
0.0
 11
11.059298
 21
142.751362
 31
0.0
  0
LINE
  5
26a
100
AcDbEntity
  8
Cut
 62
7
100
AcDbLine
 10
11.059298
 20
142.751362
 30
0.0
 11
11.163114
 21
142.802316
 31
0.0
  0
LINE
  5
26b
100
AcDbEntity
  8
Cut
 62
7
100
AcDbLine
 10
11.163114
 20
142.802316
 30
0.0
 11
11.267883
 21
142.850890
 31
0.0
  0
LINE
  5
26c
100
AcDbEntity
  8
Cut
 62
7
100
AcDbLine
 10
11.267883
 20
142.850890
 30
0.0
 11
11.373128
 21
142.896845
 31
0.0
  0
LINE
  5
26d
100
AcDbEntity
  8
Cut
 62
7
100
AcDbLine
 10
11.373128
 20
142.896845
 30
0.0
 11
11.479564
 21
142.939466
 31
0.0
  0
LINE
  5
26e
100
AcDbEntity
  8
Cut
 62
7
100
AcDbLine
 10
11.479564
 20
142.939466
 30
0.0
 11
10.653320
 21
146.223671
 31
0.0
  0
LINE
  5
26f
100
AcDbEntity
  8
Cut
 62
7
100
AcDbLine
 10
10.653320
 20
146.223671
 30
0.0
 11
10.539503
 21
146.210813
 31
0.0
  0
LINE
  5
270
100
AcDbEntity
  8
Cut
 62
7
100
AcDbLine
 10
10.539503
 20
146.210813
 30
0.0
 11
10.424733
 21
146.201527
 31
0.0
  0
LINE
  5
271
100
AcDbEntity
  8
Cut
 62
7
100
AcDbLine
 10
10.424733
 20
146.201527
 30
0.0
 11
10.309488
 21
146.194860
 31
0.0
  0
LINE
  5
272
100
AcDbEntity
  8
Cut
 62
7
100
AcDbLine
 10
10.309488
 20
146.194860
 30
0.0
 11
10.193766
 21
146.190336
 31
0.0
  0
LINE
  5
273
100
AcDbEntity
  8
Cut
 62
7
100
AcDbLine
 10
10.193766
 20
146.190336
 30
0.0
 11
9.961370
 21
146.187717
 31
0.0
  0
LINE
  5
274
100
AcDbEntity
  8
Cut
 62
7
100
AcDbLine
 10
9.961370
 20
146.187717
 30
0.0
 11
9.727545
 21
146.192479
 31
0.0
  0
LINE
  5
275
100
AcDbEntity
  8
Cut
 62
7
100
AcDbLine
 10
9.727545
 20
146.192479
 30
0.0
 11
9.256086
 21
146.220338
 31
0.0
  0
LINE
  5
276
100
AcDbEntity
  8
Cut
 62
7
100
AcDbLine
 10
9.256086
 20
146.220338
 30
0.0
 11
8.781056
 21
146.270102
 31
0.0
  0
LINE
  5
277
100
AcDbEntity
  8
Cut
 62
7
100
AcDbLine
 10
8.781056
 20
146.270102
 30
0.0
 11
8.302691
 21
146.339629
 31
0.0
  0
LINE
  5
278
100
AcDbEntity
  8
Cut
 62
7
100
AcDbLine
 10
8.302691
 20
146.339629
 30
0.0
 11
7.821470
 21
146.427490
 31
0.0
  0
LINE
  5
279
100
AcDbEntity
  8
Cut
 62
7
100
AcDbLine
 10
7.821470
 20
146.427490
 30
0.0
 11
7.338105
 21
146.532495
 31
0.0
  0
LINE
  5
27a
100
AcDbEntity
  8
Cut
 62
7
100
AcDbLine
 10
7.338105
 20
146.532495
 30
0.0
 11
6.852836
 21
146.653930
 31
0.0
  0
LINE
  5
27b
100
AcDbEntity
  8
Cut
 62
7
100
AcDbLine
 10
6.852836
 20
146.653930
 30
0.0
 11
6.365661
 21
146.791079
 31
0.0
  0
LINE
  5
27c
100
AcDbEntity
  8
Cut
 62
7
100
AcDbLine
 10
6.365661
 20
146.791079
 30
0.0
 11
5.877535
 21
146.943706
 31
0.0
  0
LINE
  5
27d
100
AcDbEntity
  8
Cut
 62
7
100
AcDbLine
 10
5.877535
 20
146.943706
 30
0.0
 11
5.507511
 21
149.872656
 31
0.0
  0
LINE
  5
27e
100
AcDbEntity
  8
Cut
 62
7
100
AcDbLine
 10
5.507511
 20
149.872656
 30
0.0
 11
5.942539
 21
150.141716
 31
0.0
  0
LINE
  5
27f
100
AcDbEntity
  8
Cut
 62
7
100
AcDbLine
 10
5.942539
 20
150.141716
 30
0.0
 11
6.379948
 21
150.395776
 31
0.0
  0
LINE
  5
280
100
AcDbEntity
  8
Cut
 62
7
100
AcDbLine
 10
6.379948
 20
150.395776
 30
0.0
 11
6.819976
 21
150.634121
 31
0.0
  0
LINE
  5
281
100
AcDbEntity
  8
Cut
 62
7
100
AcDbLine
 10
6.819976
 20
150.634121
 30
0.0
 11
7.262148
 21
150.856036
 31
0.0
  0
LINE
  5
282
100
AcDbEntity
  8
Cut
 62
7
100
AcDbLine
 10
7.262148
 20
150.856036
 30
0.0
 11
7.706224
 21
151.060808
 31
0.0
  0
LINE
  5
283
100
AcDbEntity
  8
Cut
 62
7
100
AcDbLine
 10
7.706224
 20
151.060808
 30
0.0
 11
8.152205
 21
151.247007
 31
0.0
  0
LINE
  5
284
100
AcDbEntity
  8
Cut
 62
7
100
AcDbLine
 10
8.152205
 20
151.247007
 30
0.0
 11
8.600092
 21
151.413444
 31
0.0
  0
LINE
  5
285
100
AcDbEntity
  8
Cut
 62
7
100
AcDbLine
 10
8.600092
 20
151.413444
 30
0.0
 11
9.049644
 21
151.557737
 31
0.0
  0
LINE
  5
286
100
AcDbEntity
  8
Cut
 62
7
100
AcDbLine
 10
9.049644
 20
151.557737
 30
0.0
 11
9.275135
 21
151.620359
 31
0.0
  0
LINE
  5
287
100
AcDbEntity
  8
Cut
 62
7
100
AcDbLine
 10
9.275135
 20
151.620359
 30
0.0
 11
9.500864
 21
151.675599
 31
0.0
  0
LINE
  5
288
100
AcDbEntity
  8
Cut
 62
7
100
AcDbLine
 10
9.500864
 20
151.675599
 30
0.0
 11
9.613967
 21
151.700124
 31
0.0
  0
LINE
  5
289
100
AcDbEntity
  8
Cut
 62
7
100
AcDbLine
 10
9.613967
 20
151.700124
 30
0.0
 11
9.727307
 21
151.722268
 31
0.0
  0
LINE
  5
28a
100
AcDbEntity
  8
Cut
 62
7
100
AcDbLine
 10
9.727307
 20
151.722268
 30
0.0
 11
9.840648
 21
151.741793
 31
0.0
  0
LINE
  5
28b
100
AcDbEntity
  8
Cut
 62
7
100
AcDbLine
 10
9.840648
 20
151.741793
 30
0.0
 11
9.954227
 21
151.757746
 31
0.0
  0
LINE
  5
28c
100
AcDbEntity
  8
Cut
 62
7
100
AcDbLine
 10
9.954227
 20
151.757746
 30
0.0
 11
9.937797
 21
155.144099
 31
0.0
  0
LINE
  5
28d
100
AcDbEntity
  8
Cut
 62
7
100
AcDbLine
 10
9.937797
 20
155.144099
 30
0.0
 11
9.824218
 21
155.158862
 31
0.0
  0
LINE
  5
28e
100
AcDbEntity
  8
Cut
 62
7
100
AcDbLine
 10
9.824218
 20
155.158862
 30
0.0
 11
9.710640
 21
155.177196
 31
0.0
  0
LINE
  5
28f
100
AcDbEntity
  8
Cut
 62
7
100
AcDbLine
 10
9.710640
 20
155.177196
 30
0.0
 11
9.597061
 21
155.198387
 31
0.0
  0
LINE
  5
290
100
AcDbEntity
  8
Cut
 62
7
100
AcDbLine
 10
9.597061
 20
155.198387
 30
0.0
 11
9.483720
 21
155.221722
 31
0.0
  0
LINE
  5
291
100
AcDbEntity
  8
Cut
 62
7
100
AcDbLine
 10
9.483720
 20
155.221722
 30
0.0
 11
9.257277
 21
155.275058
 31
0.0
  0
LINE
  5
292
100
AcDbEntity
  8
Cut
 62
7
100
AcDbLine
 10
9.257277
 20
155.275058
 30
0.0
 11
9.031310
 21
155.335299
 31
0.0
  0
LINE
  5
293
100
AcDbEntity
  8
Cut
 62
7
100
AcDbLine
 10
9.031310
 20
155.335299
 30
0.0
 11
8.580567
 21
155.475305
 31
0.0
  0
LINE
  5
294
100
AcDbEntity
  8
Cut
 62
7
100
AcDbLine
 10
8.580567
 20
155.475305
 30
0.0
 11
8.131014
 21
155.637218
 31
0.0
  0
LINE
  5
295
100
AcDbEntity
  8
Cut
 62
7
100
AcDbLine
 10
8.131014
 20
155.637218
 30
0.0
 11
7.683128
 21
155.819370
 31
0.0
  0
LINE
  5
296
100
AcDbEntity
  8
Cut
 62
7
100
AcDbLine
 10
7.683128
 20
155.819370
 30
0.0
 11
7.237146
 21
156.019855
 31
0.0
  0
LINE
  5
297
100
AcDbEntity
  8
Cut
 62
7
100
AcDbLine
 10
7.237146
 20
156.019855
 30
0.0
 11
6.792832
 21
156.237485
 31
0.0
  0
LINE
  5
298
100
AcDbEntity
  8
Cut
 62
7
100
AcDbLine
 10
6.792832
 20
156.237485
 30
0.0
 11
6.350660
 21
156.471544
 31
0.0
  0
LINE
  5
299
100
AcDbEntity
  8
Cut
 62
7
100
AcDbLine
 10
6.350660
 20
156.471544
 30
0.0
 11
5.910632
 21
156.721318
 31
0.0
  0
LINE
  5
29a
100
AcDbEntity
  8
Cut
 62
7
100
AcDbLine
 10
5.910632
 20
156.721318
 30
0.0
 11
5.472985
 21
156.986092
 31
0.0
  0
LINE
  5
29b
100
AcDbEntity
  8
Cut
 62
7
100
AcDbLine
 10
5.472985
 20
156.986092
 30
0.0
 11
5.814673
 21
159.918614
 31
0.0
  0
LINE
  5
29c
100
AcDbEntity
  8
Cut
 62
7
100
AcDbLine
 10
5.814673
 20
159.918614
 30
0.0
 11
6.301610
 21
160.075764
 31
0.0
  0
LINE
  5
29d
100
AcDbEntity
  8
Cut
 62
7
100
AcDbLine
 10
6.301610
 20
160.075764
 30
0.0
 11
6.787117
 21
160.217676
 31
0.0
  0
LINE
  5
29e
100
AcDbEntity
  8
Cut
 62
7
100
AcDbLine
 10
6.787117
 20
160.217676
 30
0.0
 11
7.271434
 21
160.343872
 31
0.0
  0
LINE
  5
29f
100
AcDbEntity
  8
Cut
 62
7
100
AcDbLine
 10
7.271434
 20
160.343872
 30
0.0
 11
7.753846
 21
160.453402
 31
0.0
  0
LINE
  5
2a0
100
AcDbEntity
  8
Cut
 62
7
100
AcDbLine
 10
7.753846
 20
160.453402
 30
0.0
 11
8.233877
 21
160.546025
 31
0.0
  0
LINE
  5
2a1
100
AcDbEntity
  8
Cut
 62
7
100
AcDbLine
 10
8.233877
 20
160.546025
 30
0.0
 11
8.711527
 21
160.620076
 31
0.0
  0
LINE
  5
2a2
100
AcDbEntity
  8
Cut
 62
7
100
AcDbLine
 10
8.711527
 20
160.620076
 30
0.0
 11
9.186320
 21
160.674603
 31
0.0
  0
LINE
  5
2a3
100
AcDbEntity
  8
Cut
 62
7
100
AcDbLine
 10
9.186320
 20
160.674603
 30
0.0
 11
9.657303
 21
160.706985
 31
0.0
  0
LINE
  5
2a4
100
AcDbEntity
  8
Cut
 62
7
100
AcDbLine
 10
9.657303
 20
160.706985
 30
0.0
 11
9.891127
 21
160.713890
 31
0.0
  0
LINE
  5
2a5
100
AcDbEntity
  8
Cut
 62
7
100
AcDbLine
 10
9.891127
 20
160.713890
 30
0.0
 11
10.123762
 21
160.713414
 31
0.0
  0
LINE
  5
2a6
100
AcDbEntity
  8
Cut
 62
7
100
AcDbLine
 10
10.123762
 20
160.713414
 30
0.0
 11
10.239483
 21
160.710319
 31
0.0
  0
LINE
  5
2a7
100
AcDbEntity
  8
Cut
 62
7
100
AcDbLine
 10
10.239483
 20
160.710319
 30
0.0
 11
10.354729
 21
160.704604
 31
0.0
  0
LINE
  5
2a8
100
AcDbEntity
  8
Cut
 62
7
100
AcDbLine
 10
10.354729
 20
160.704604
 30
0.0
 11
10.469260
 21
160.696508
 31
0.0
  0
LINE
  5
2a9
100
AcDbEntity
  8
Cut
 62
7
100
AcDbLine
 10
10.469260
 20
160.696508
 30
0.0
 11
10.583553
 21
160.684841
 31
0.0
  0
LINE
  5
2aa
100
AcDbEntity
  8
Cut
 62
7
100
AcDbLine
 10
10.583553
 20
160.684841
 30
0.0
 11
11.377890
 21
163.976666
 31
0.0
  0
LINE
  5
2ab
100
AcDbEntity
  8
Cut
 62
7
100
AcDbLine
 10
11.377890
 20
163.976666
 30
0.0
 11
11.271217
 21
164.018334
 31
0.0
  0
LINE
  5
2ac
100
AcDbEntity
  8
Cut
 62
7
100
AcDbLine
 10
11.271217
 20
164.018334
 30
0.0
 11
11.165257
 21
164.063337
 31
0.0
  0
LINE
  5
2ad
100
AcDbEntity
  8
Cut
 62
7
100
AcDbLine
 10
11.165257
 20
164.063337
 30
0.0
 11
11.060251
 21
164.110720
 31
0.0
  0
LINE
  5
2ae
100
AcDbEntity
  8
Cut
 62
7
100
AcDbLine
 10
11.060251
 20
164.110720
 30
0.0
 11
10.955720
 21
164.160722
 31
0.0
  0
LINE
  5
2af
100
AcDbEntity
  8
Cut
 62
7
100
AcDbLine
 10
10.955720
 20
164.160722
 30
0.0
 11
10.748564
 21
164.266442
 31
0.0
  0
LINE
  5
2b0
100
AcDbEntity
  8
Cut
 62
7
100
AcDbLine
 10
10.748564
 20
164.266442
 30
0.0
 11
10.543551
 21
164.379304
 31
0.0
  0
LINE
  5
2b1
100
AcDbEntity
  8
Cut
 62
7
100
AcDbLine
 10
10.543551
 20
164.379304
 30
0.0
 11
10.139239
 21
164.622887
 31
0.0
  0
LINE
  5
2b2
100
AcDbEntity
  8
Cut
 62
7
100
AcDbLine
 10
10.139239
 20
164.622887
 30
0.0
 11
9.741594
 21
164.887900
 31
0.0
  0
LINE
  5
2b3
100
AcDbEntity
  8
Cut
 62
7
100
AcDbLine
 10
9.741594
 20
164.887900
 30
0.0
 11
9.350378
 21
165.171723
 31
0.0
  0
LINE
  5
2b4
100
AcDbEntity
  8
Cut
 62
7
100
AcDbLine
 10
9.350378
 20
165.171723
 30
0.0
 11
8.965353
 21
165.473166
 31
0.0
  0
LINE
  5
2b5
100
AcDbEntity
  8
Cut
 62
7
100
AcDbLine
 10
8.965353
 20
165.473166
 30
0.0
 11
8.586043
 21
165.790801
 31
0.0
  0
LINE
  5
2b6
100
AcDbEntity
  8
Cut
 62
7
100
AcDbLine
 10
8.586043
 20
165.790801
 30
0.0
 11
8.212686
 21
166.123912
 31
0.0
  0
LINE
  5
2b7
100
AcDbEntity
  8
Cut
 62
7
100
AcDbLine
 10
8.212686
 20
166.123912
 30
0.0
 11
7.845281
 21
166.471547
 31
0.0
  0
LINE
  5
2b8
100
AcDbEntity
  8
Cut
 62
7
100
AcDbLine
 10
7.845281
 20
166.471547
 30
0.0
 11
7.483829
 21
166.833708
 31
0.0
  0
LINE
  5
2b9
100
AcDbEntity
  8
Cut
 62
7
100
AcDbLine
 10
7.483829
 20
166.833708
 30
0.0
 11
8.517229
 21
169.599078
 31
0.0
  0
LINE
  5
2ba
100
AcDbEntity
  8
Cut
 62
7
100
AcDbLine
 10
8.517229
 20
169.599078
 30
0.0
 11
9.027500
 21
169.635271
 31
0.0
  0
LINE
  5
2bb
100
AcDbEntity
  8
Cut
 62
7
100
AcDbLine
 10
9.027500
 20
169.635271
 30
0.0
 11
9.533009
 21
169.656700
 31
0.0
  0
LINE
  5
2bc
100
AcDbEntity
  8
Cut
 62
7
100
AcDbLine
 10
9.533009
 20
169.656700
 30
0.0
 11
10.033280
 21
169.663367
 31
0.0
  0
LINE
  5
2bd
100
AcDbEntity
  8
Cut
 62
7
100
AcDbLine
 10
10.033280
 20
169.663367
 30
0.0
 11
10.528073
 21
169.654319
 31
0.0
  0
LINE
  5
2be
100
AcDbEntity
  8
Cut
 62
7
100
AcDbLine
 10
10.528073
 20
169.654319
 30
0.0
 11
11.016438
 21
169.629318
 31
0.0
  0
LINE
  5
2bf
100
AcDbEntity
  8
Cut
 62
7
100
AcDbLine
 10
11.016438
 20
169.629318
 30
0.0
 11
11.497898
 21
169.586935
 31
0.0
  0
LINE
  5
2c0
100
AcDbEntity
  8
Cut
 62
7
100
AcDbLine
 10
11.497898
 20
169.586935
 30
0.0
 11
11.971738
 21
169.526218
 31
0.0
  0
LINE
  5
2c1
100
AcDbEntity
  8
Cut
 62
7
100
AcDbLine
 10
11.971738
 20
169.526218
 30
0.0
 11
12.436768
 21
169.445023
 31
0.0
  0
LINE
  5
2c2
100
AcDbEntity
  8
Cut
 62
7
100
AcDbLine
 10
12.436768
 20
169.445023
 30
0.0
 11
12.665593
 21
169.395735
 31
0.0
  0
LINE
  5
2c3
100
AcDbEntity
  8
Cut
 62
7
100
AcDbLine
 10
12.665593
 20
169.395735
 30
0.0
 11
12.891321
 21
169.339780
 31
0.0
  0
LINE
  5
2c4
100
AcDbEntity
  8
Cut
 62
7
100
AcDbLine
 10
12.891321
 20
169.339780
 30
0.0
 11
13.002757
 21
169.308826
 31
0.0
  0
LINE
  5
2c5
100
AcDbEntity
  8
Cut
 62
7
100
AcDbLine
 10
13.002757
 20
169.308826
 30
0.0
 11
13.113479
 21
169.275968
 31
0.0
  0
LINE
  5
2c6
100
AcDbEntity
  8
Cut
 62
7
100
AcDbLine
 10
13.113479
 20
169.275968
 30
0.0
 11
13.222771
 21
169.240490
 31
0.0
  0
LINE
  5
2c7
100
AcDbEntity
  8
Cut
 62
7
100
AcDbLine
 10
13.222771
 20
169.240490
 30
0.0
 11
13.330874
 21
169.201678
 31
0.0
  0
LINE
  5
2c8
100
AcDbEntity
  8
Cut
 62
7
100
AcDbLine
 10
13.330874
 20
169.201678
 30
0.0
 11
14.890022
 21
172.207775
 31
0.0
  0
LINE
  5
2c9
100
AcDbEntity
  8
Cut
 62
7
100
AcDbLine
 10
14.890022
 20
172.207775
 30
0.0
 11
14.796207
 21
172.273731
 31
0.0
  0
LINE
  5
2ca
100
AcDbEntity
  8
Cut
 62
7
100
AcDbLine
 10
14.796207
 20
172.273731
 30
0.0
 11
14.704296
 21
172.342782
 31
0.0
  0
LINE
  5
2cb
100
AcDbEntity
  8
Cut
 62
7
100
AcDbLine
 10
14.704296
 20
172.342782
 30
0.0
 11
14.613576
 21
172.414214
 31
0.0
  0
LINE
  5
2cc
100
AcDbEntity
  8
Cut
 62
7
100
AcDbLine
 10
14.613576
 20
172.414214
 30
0.0
 11
14.524046
 21
172.487550
 31
0.0
  0
LINE
  5
2cd
100
AcDbEntity
  8
Cut
 62
7
100
AcDbLine
 10
14.524046
 20
172.487550
 30
0.0
 11
14.348320
 21
172.639939
 31
0.0
  0
LINE
  5
2ce
100
AcDbEntity
  8
Cut
 62
7
100
AcDbLine
 10
14.348320
 20
172.639939
 30
0.0
 11
14.176405
 21
172.798518
 31
0.0
  0
LINE
  5
2cf
100
AcDbEntity
  8
Cut
 62
7
100
AcDbLine
 10
14.176405
 20
172.798518
 30
0.0
 11
13.842097
 21
173.131867
 31
0.0
  0
LINE
  5
2d0
100
AcDbEntity
  8
Cut
 62
7
100
AcDbLine
 10
13.842097
 20
173.131867
 30
0.0
 11
13.519457
 21
173.484265
 31
0.0
  0
LINE
  5
2d1
100
AcDbEntity
  8
Cut
 62
7
100
AcDbLine
 10
13.519457
 20
173.484265
 30
0.0
 11
13.207532
 21
173.853568
 31
0.0
  0
LINE
  5
2d2
100
AcDbEntity
  8
Cut
 62
7
100
AcDbLine
 10
13.207532
 20
173.853568
 30
0.0
 11
12.905608
 21
174.238349
 31
0.0
  0
LINE
  5
2d3
100
AcDbEntity
  8
Cut
 62
7
100
AcDbLine
 10
12.905608
 20
174.238349
 30
0.0
 11
12.613446
 21
174.637416
 31
0.0
  0
LINE
  5
2d4
100
AcDbEntity
  8
Cut
 62
7
100
AcDbLine
 10
12.613446
 20
174.637416
 30
0.0
 11
12.330571
 21
175.050054
 31
0.0
  0
LINE
  5
2d5
100
AcDbEntity
  8
Cut
 62
7
100
AcDbLine
 10
12.330571
 20
175.050054
 30
0.0
 11
12.057220
 21
175.475789
 31
0.0
  0
LINE
  5
2d6
100
AcDbEntity
  8
Cut
 62
7
100
AcDbLine
 10
12.057220
 20
175.475789
 30
0.0
 11
11.792679
 21
175.913667
 31
0.0
  0
LINE
  5
2d7
100
AcDbEntity
  8
Cut
 62
7
100
AcDbLine
 10
11.792679
 20
175.913667
 30
0.0
 11
13.458025
 21
178.351403
 31
0.0
  0
LINE
  5
2d8
100
AcDbEntity
  8
Cut
 62
7
100
AcDbLine
 10
13.458025
 20
178.351403
 30
0.0
 11
13.962105
 21
178.264494
 31
0.0
  0
LINE
  5
2d9
100
AcDbEntity
  8
Cut
 62
7
100
AcDbLine
 10
13.962105
 20
178.264494
 30
0.0
 11
14.458089
 21
178.164490
 31
0.0
  0
LINE
  5
2da
100
AcDbEntity
  8
Cut
 62
7
100
AcDbLine
 10
14.458089
 20
178.164490
 30
0.0
 11
14.945502
 21
178.051151
 31
0.0
  0
LINE
  5
2db
100
AcDbEntity
  8
Cut
 62
7
100
AcDbLine
 10
14.945502
 20
178.051151
 30
0.0
 11
15.423628
 21
177.924002
 31
0.0
  0
LINE
  5
2dc
100
AcDbEntity
  8
Cut
 62
7
100
AcDbLine
 10
15.423628
 20
177.924002
 30
0.0
 11
15.891754
 21
177.782805
 31
0.0
  0
LINE
  5
2dd
100
AcDbEntity
  8
Cut
 62
7
100
AcDbLine
 10
15.891754
 20
177.782805
 30
0.0
 11
16.349164
 21
177.626368
 31
0.0
  0
LINE
  5
2de
100
AcDbEntity
  8
Cut
 62
7
100
AcDbLine
 10
16.349164
 20
177.626368
 30
0.0
 11
16.794669
 21
177.453979
 31
0.0
  0
LINE
  5
2df
100
AcDbEntity
  8
Cut
 62
7
100
AcDbLine
 10
16.794669
 20
177.453979
 30
0.0
 11
17.226840
 21
177.263970
 31
0.0
  0
LINE
  5
2e0
100
AcDbEntity
  8
Cut
 62
7
100
AcDbLine
 10
17.226840
 20
177.263970
 30
0.0
 11
17.437092
 21
177.161346
 31
0.0
  0
LINE
  5
2e1
100
AcDbEntity
  8
Cut
 62
7
100
AcDbLine
 10
17.437092
 20
177.161346
 30
0.0
 11
17.642819
 21
177.053008
 31
0.0
  0
LINE
  5
2e2
100
AcDbEntity
  8
Cut
 62
7
100
AcDbLine
 10
17.642819
 20
177.053008
 30
0.0
 11
17.743778
 21
176.996338
 31
0.0
  0
LINE
  5
2e3
100
AcDbEntity
  8
Cut
 62
7
100
AcDbLine
 10
17.743778
 20
176.996338
 30
0.0
 11
17.843308
 21
176.937764
 31
0.0
  0
LINE
  5
2e4
100
AcDbEntity
  8
Cut
 62
7
100
AcDbLine
 10
17.843308
 20
176.937764
 30
0.0
 11
17.941172
 21
176.877047
 31
0.0
  0
LINE
  5
2e5
100
AcDbEntity
  8
Cut
 62
7
100
AcDbLine
 10
17.941172
 20
176.877047
 30
0.0
 11
18.036654
 21
176.813710
 31
0.0
  0
LINE
  5
2e6
100
AcDbEntity
  8
Cut
 62
7
100
AcDbLine
 10
18.036654
 20
176.813710
 30
0.0
 11
20.269894
 21
179.359309
 31
0.0
  0
LINE
  5
2e7
100
AcDbEntity
  8
Cut
 62
7
100
AcDbLine
 10
20.269894
 20
179.359309
 30
0.0
 11
20.194651
 21
179.445980
 31
0.0
  0
LINE
  5
2e8
100
AcDbEntity
  8
Cut
 62
7
100
AcDbLine
 10
20.194651
 20
179.445980
 30
0.0
 11
20.121789
 21
179.535031
 31
0.0
  0
LINE
  5
2e9
100
AcDbEntity
  8
Cut
 62
7
100
AcDbLine
 10
20.121789
 20
179.535031
 30
0.0
 11
20.050832
 21
179.625988
 31
0.0
  0
LINE
  5
2ea
100
AcDbEntity
  8
Cut
 62
7
100
AcDbLine
 10
20.050832
 20
179.625988
 30
0.0
 11
19.981542
 21
179.718612
 31
0.0
  0
LINE
  5
2eb
100
AcDbEntity
  8
Cut
 62
7
100
AcDbLine
 10
19.981542
 20
179.718612
 30
0.0
 11
19.847486
 21
179.908621
 31
0.0
  0
LINE
  5
2ec
100
AcDbEntity
  8
Cut
 62
7
100
AcDbLine
 10
19.847486
 20
179.908621
 30
0.0
 11
19.718430
 21
180.103630
 31
0.0
  0
LINE
  5
2ed
100
AcDbEntity
  8
Cut
 62
7
100
AcDbLine
 10
19.718430
 20
180.103630
 30
0.0
 11
19.473652
 21
180.507221
 31
0.0
  0
LINE
  5
2ee
100
AcDbEntity
  8
Cut
 62
7
100
AcDbLine
 10
19.473652
 20
180.507221
 30
0.0
 11
19.244589
 21
180.926765
 31
0.0
  0
LINE
  5
2ef
100
AcDbEntity
  8
Cut
 62
7
100
AcDbLine
 10
19.244589
 20
180.926765
 30
0.0
 11
19.030052
 21
181.359881
 31
0.0
  0
LINE
  5
2f0
100
AcDbEntity
  8
Cut
 62
7
100
AcDbLine
 10
19.030052
 20
181.359881
 30
0.0
 11
18.829086
 21
181.805617
 31
0.0
  0
LINE
  5
2f1
100
AcDbEntity
  8
Cut
 62
7
100
AcDbLine
 10
18.829086
 20
181.805617
 30
0.0
 11
18.640979
 21
182.263258
 31
0.0
  0
LINE
  5
2f2
100
AcDbEntity
  8
Cut
 62
7
100
AcDbLine
 10
18.640979
 20
182.263258
 30
0.0
 11
18.465253
 21
182.731613
 31
0.0
  0
LINE
  5
2f3
100
AcDbEntity
  8
Cut
 62
7
100
AcDbLine
 10
18.465253
 20
182.731613
 30
0.0
 11
18.301433
 21
183.210446
 31
0.0
  0
LINE
  5
2f4
100
AcDbEntity
  8
Cut
 62
7
100
AcDbLine
 10
18.301433
 20
183.210446
 30
0.0
 11
18.149519
 21
183.698803
 31
0.0
  0
LINE
  5
2f5
100
AcDbEntity
  8
Cut
 62
7
100
AcDbLine
 10
18.149519
 20
183.698803
 30
0.0
 11
20.349899
 21
185.667231
 31
0.0
  0
LINE
  5
2f6
100
AcDbEntity
  8
Cut
 62
7
100
AcDbLine
 10
20.349899
 20
185.667231
 30
0.0
 11
20.818501
 21
185.461983
 31
0.0
  0
LINE
  5
2f7
100
AcDbEntity
  8
Cut
 62
7
100
AcDbLine
 10
20.818501
 20
185.461983
 30
0.0
 11
21.276149
 21
185.246258
 31
0.0
  0
LINE
  5
2f8
100
AcDbEntity
  8
Cut
 62
7
100
AcDbLine
 10
21.276149
 20
185.246258
 30
0.0
 11
21.722131
 21
185.019580
 31
0.0
  0
LINE
  5
2f9
100
AcDbEntity
  8
Cut
 62
7
100
AcDbLine
 10
21.722131
 20
185.019580
 30
0.0
 11
22.155968
 21
184.781712
 31
0.0
  0
LINE
  5
2fa
100
AcDbEntity
  8
Cut
 62
7
100
AcDbLine
 10
22.155968
 20
184.781712
 30
0.0
 11
22.576710
 21
184.532652
 31
0.0
  0
LINE
  5
2fb
100
AcDbEntity
  8
Cut
 62
7
100
AcDbLine
 10
22.576710
 20
184.532652
 30
0.0
 11
22.983641
 21
184.271449
 31
0.0
  0
LINE
  5
2fc
100
AcDbEntity
  8
Cut
 62
7
100
AcDbLine
 10
22.983641
 20
184.271449
 30
0.0
 11
23.374857
 21
183.997388
 31
0.0
  0
LINE
  5
2fd
100
AcDbEntity
  8
Cut
 62
7
100
AcDbLine
 10
23.374857
 20
183.997388
 30
0.0
 11
23.748928
 21
183.709279
 31
0.0
  0
LINE
  5
2fe
100
AcDbEntity
  8
Cut
 62
7
100
AcDbLine
 10
23.748928
 20
183.709279
 30
0.0
 11
23.928464
 21
183.559272
 31
0.0
  0
LINE
  5
2ff
100
AcDbEntity
  8
Cut
 62
7
100
AcDbLine
 10
23.928464
 20
183.559272
 30
0.0
 11
24.102285
 21
183.404979
 31
0.0
  0
LINE
  5
300
100
AcDbEntity
  8
Cut
 62
7
100
AcDbLine
 10
24.102285
 20
183.404979
 30
0.0
 11
24.186814
 21
183.325690
 31
0.0
  0
LINE
  5
301
100
AcDbEntity
  8
Cut
 62
7
100
AcDbLine
 10
24.186814
 20
183.325690
 30
0.0
 11
24.269438
 21
183.245210
 31
0.0
  0
LINE
  5
302
100
AcDbEntity
  8
Cut
 62
7
100
AcDbLine
 10
24.269438
 20
183.245210
 30
0.0
 11
24.349681
 21
183.162825
 31
0.0
  0
LINE
  5
303
100
AcDbEntity
  8
Cut
 62
7
100
AcDbLine
 10
24.349681
 20
183.162825
 30
0.0
 11
24.427544
 21
183.078535
 31
0.0
  0
LINE
  5
304
100
AcDbEntity
  8
Cut
 62
7
100
AcDbLine
 10
24.427544
 20
183.078535
 30
0.0
 11
27.205104
 21
185.015533
 31
0.0
  0
LINE
  5
305
100
AcDbEntity
  8
Cut
 62
7
100
AcDbLine
 10
27.205104
 20
185.015533
 30
0.0
 11
27.152720
 21
185.117680
 31
0.0
  0
LINE
  5
306
100
AcDbEntity
  8
Cut
 62
7
100
AcDbLine
 10
27.152720
 20
185.117680
 30
0.0
 11
27.103193
 21
185.221495
 31
0.0
  0
LINE
  5
307
100
AcDbEntity
  8
Cut
 62
7
100
AcDbLine
 10
27.103193
 20
185.221495
 30
0.0
 11
27.056285
 21
185.326976
 31
0.0
  0
LINE
  5
308
100
AcDbEntity
  8
Cut
 62
7
100
AcDbLine
 10
27.056285
 20
185.326976
 30
0.0
 11
27.011044
 21
185.433410
 31
0.0
  0
LINE
  5
309
100
AcDbEntity
  8
Cut
 62
7
100
AcDbLine
 10
27.011044
 20
185.433410
 30
0.0
 11
26.926277
 21
185.650087
 31
0.0
  0
LINE
  5
30a
100
AcDbEntity
  8
Cut
 62
7
100
AcDbLine
 10
26.926277
 20
185.650087
 30
0.0
 11
26.847462
 21
185.870336
 31
0.0
  0
LINE
  5
30b
100
AcDbEntity
  8
Cut
 62
7
100
AcDbLine
 10
26.847462
 20
185.870336
 30
0.0
 11
26.706501
 21
186.320833
 31
0.0
  0
LINE
  5
30c
100
AcDbEntity
  8
Cut
 62
7
100
AcDbLine
 10
26.706501
 20
186.320833
 30
0.0
 11
26.584588
 21
186.782760
 31
0.0
  0
LINE
  5
30d
100
AcDbEntity
  8
Cut
 62
7
100
AcDbLine
 10
26.584588
 20
186.782760
 30
0.0
 11
26.480057
 21
187.254688
 31
0.0
  0
LINE
  5
30e
100
AcDbEntity
  8
Cut
 62
7
100
AcDbLine
 10
26.480057
 20
187.254688
 30
0.0
 11
26.391480
 21
187.735663
 31
0.0
  0
LINE
  5
30f
100
AcDbEntity
  8
Cut
 62
7
100
AcDbLine
 10
26.391480
 20
187.735663
 30
0.0
 11
26.318380
 21
188.224972
 31
0.0
  0
LINE
  5
310
100
AcDbEntity
  8
Cut
 62
7
100
AcDbLine
 10
26.318380
 20
188.224972
 30
0.0
 11
26.259805
 21
188.721663
 31
0.0
  0
LINE
  5
311
100
AcDbEntity
  8
Cut
 62
7
100
AcDbLine
 10
26.259805
 20
188.721663
 30
0.0
 11
26.215278
 21
189.225735
 31
0.0
  0
LINE
  5
312
100
AcDbEntity
  8
Cut
 62
7
100
AcDbLine
 10
26.215278
 20
189.225735
 30
0.0
 11
26.184800
 21
189.736473
 31
0.0
  0
LINE
  5
313
100
AcDbEntity
  8
Cut
 62
7
100
AcDbLine
 10
26.184800
 20
189.736473
 30
0.0
 11
28.792350
 21
191.121064
 31
0.0
  0
LINE
  5
314
100
AcDbEntity
  8
Cut
 62
7
100
AcDbLine
 10
28.792350
 20
191.121064
 30
0.0
 11
29.198090
 21
190.809620
 31
0.0
  0
LINE
  5
315
100
AcDbEntity
  8
Cut
 62
7
100
AcDbLine
 10
29.198090
 20
190.809620
 30
0.0
 11
29.590973
 21
190.490557
 31
0.0
  0
LINE
  5
316
100
AcDbEntity
  8
Cut
 62
7
100
AcDbLine
 10
29.590973
 20
190.490557
 30
0.0
 11
29.969807
 21
190.163875
 31
0.0
  0
LINE
  5
317
100
AcDbEntity
  8
Cut
 62
7
100
AcDbLine
 10
29.969807
 20
190.163875
 30
0.0
 11
30.334116
 21
189.829097
 31
0.0
  0
LINE
  5
318
100
AcDbEntity
  8
Cut
 62
7
100
AcDbLine
 10
30.334116
 20
189.829097
 30
0.0
 11
30.682948
 21
189.486461
 31
0.0
  0
LINE
  5
319
100
AcDbEntity
  8
Cut
 62
7
100
AcDbLine
 10
30.682948
 20
189.486461
 30
0.0
 11
31.015351
 21
189.135492
 31
0.0
  0
LINE
  5
31a
100
AcDbEntity
  8
Cut
 62
7
100
AcDbLine
 10
31.015351
 20
189.135492
 30
0.0
 11
31.329657
 21
188.775713
 31
0.0
  0
LINE
  5
31b
100
AcDbEntity
  8
Cut
 62
7
100
AcDbLine
 10
31.329657
 20
188.775713
 30
0.0
 11
31.623961
 21
188.406648
 31
0.0
  0
LINE
  5
31c
100
AcDbEntity
  8
Cut
 62
7
100
AcDbLine
 10
31.623961
 20
188.406648
 30
0.0
 11
31.762542
 21
188.218067
 31
0.0
  0
LINE
  5
31d
100
AcDbEntity
  8
Cut
 62
7
100
AcDbLine
 10
31.762542
 20
188.218067
 30
0.0
 11
31.894217
 21
188.026391
 31
0.0
  0
LINE
  5
31e
100
AcDbEntity
  8
Cut
 62
7
100
AcDbLine
 10
31.894217
 20
188.026391
 30
0.0
 11
31.957316
 21
187.929482
 31
0.0
  0
LINE
  5
31f
100
AcDbEntity
  8
Cut
 62
7
100
AcDbLine
 10
31.957316
 20
187.929482
 30
0.0
 11
32.018273
 21
187.831382
 31
0.0
  0
LINE
  5
320
100
AcDbEntity
  8
Cut
 62
7
100
AcDbLine
 10
32.018273
 20
187.831382
 30
0.0
 11
32.076610
 21
187.732330
 31
0.0
  0
LINE
  5
321
100
AcDbEntity
  8
Cut
 62
7
100
AcDbLine
 10
32.076610
 20
187.732330
 30
0.0
 11
32.131851
 21
187.631849
 31
0.0
  0
LINE
  5
322
100
AcDbEntity
  8
Cut
 62
7
100
AcDbLine
 10
32.131851
 20
187.631849
 30
0.0
 11
35.292294
 21
188.847859
 31
0.0
  0
LINE
  5
323
100
AcDbEntity
  8
Cut
 62
7
100
AcDbLine
 10
35.292294
 20
188.847859
 30
0.0
 11
35.265864
 21
188.959531
 31
0.0
  0
LINE
  5
324
100
AcDbEntity
  8
Cut
 62
7
100
AcDbLine
 10
35.265864
 20
188.959531
 30
0.0
 11
35.242767
 21
189.072156
 31
0.0
  0
LINE
  5
325
100
AcDbEntity
  8
Cut
 62
7
100
AcDbLine
 10
35.242767
 20
189.072156
 30
0.0
 11
35.222289
 21
189.185733
 31
0.0
  0
LINE
  5
326
100
AcDbEntity
  8
Cut
 62
7
100
AcDbLine
 10
35.222289
 20
189.185733
 30
0.0
 11
35.203955
 21
189.300024
 31
0.0
  0
LINE
  5
327
100
AcDbEntity
  8
Cut
 62
7
100
AcDbLine
 10
35.203955
 20
189.300024
 30
0.0
 11
35.173477
 21
189.530511
 31
0.0
  0
LINE
  5
328
100
AcDbEntity
  8
Cut
 62
7
100
AcDbLine
 10
35.173477
 20
189.530511
 30
0.0
 11
35.149666
 21
189.763379
 31
0.0
  0
LINE
  5
329
100
AcDbEntity
  8
Cut
 62
7
100
AcDbLine
 10
35.149666
 20
189.763379
 30
0.0
 11
35.120616
 21
190.234593
 31
0.0
  0
LINE
  5
32a
100
AcDbEntity
  8
Cut
 62
7
100
AcDbLine
 10
35.120616
 20
190.234593
 30
0.0
 11
35.112758
 21
190.712235
 31
0.0
  0
LINE
  5
32b
100
AcDbEntity
  8
Cut
 62
7
100
AcDbLine
 10
35.112758
 20
190.712235
 30
0.0
 11
35.124188
 21
191.195353
 31
0.0
  0
LINE
  5
32c
100
AcDbEntity
  8
Cut
 62
7
100
AcDbLine
 10
35.124188
 20
191.195353
 30
0.0
 11
35.153475
 21
191.683472
 31
0.0
  0
LINE
  5
32d
100
AcDbEntity
  8
Cut
 62
7
100
AcDbLine
 10
35.153475
 20
191.683472
 30
0.0
 11
35.199431
 21
192.176114
 31
0.0
  0
LINE
  5
32e
100
AcDbEntity
  8
Cut
 62
7
100
AcDbLine
 10
35.199431
 20
192.176114
 30
0.0
 11
35.261339
 21
192.672567
 31
0.0
  0
LINE
  5
32f
100
AcDbEntity
  8
Cut
 62
7
100
AcDbLine
 10
35.261339
 20
192.672567
 30
0.0
 11
35.338964
 21
193.172591
 31
0.0
  0
LINE
  5
330
100
AcDbEntity
  8
Cut
 62
7
100
AcDbLine
 10
35.338964
 20
193.172591
 30
0.0
 11
35.431350
 21
193.675710
 31
0.0
  0
LINE
  5
331
100
AcDbEntity
  8
Cut
 62
7
100
AcDbLine
 10
35.431350
 20
193.675710
 30
0.0
 11
38.294393
 21
194.395983
 31
0.0
  0
LINE
  5
332
100
AcDbEntity
  8
Cut
 62
7
100
AcDbLine
 10
38.294393
 20
194.395983
 30
0.0
 11
38.614175
 21
193.996678
 31
0.0
  0
LINE
  5
333
100
AcDbEntity
  8
Cut
 62
7
100
AcDbLine
 10
38.614175
 20
193.996678
 30
0.0
 11
38.918957
 21
193.592849
 31
0.0
  0
LINE
  5
334
100
AcDbEntity
  8
Cut
 62
7
100
AcDbLine
 10
38.918957
 20
193.592849
 30
0.0
 11
39.208738
 21
193.184972
 31
0.0
  0
LINE
  5
335
100
AcDbEntity
  8
Cut
 62
7
100
AcDbLine
 10
39.208738
 20
193.184972
 30
0.0
 11
39.482327
 21
192.772810
 31
0.0
  0
LINE
  5
336
100
AcDbEntity
  8
Cut
 62
7
100
AcDbLine
 10
39.482327
 20
192.772810
 30
0.0
 11
39.739010
 21
192.356599
 31
0.0
  0
LINE
  5
337
100
AcDbEntity
  8
Cut
 62
7
100
AcDbLine
 10
39.739010
 20
192.356599
 30
0.0
 11
39.977835
 21
191.936341
 31
0.0
  0
LINE
  5
338
100
AcDbEntity
  8
Cut
 62
7
100
AcDbLine
 10
39.977835
 20
191.936341
 30
0.0
 11
40.196897
 21
191.511797
 31
0.0
  0
LINE
  5
339
100
AcDbEntity
  8
Cut
 62
7
100
AcDbLine
 10
40.196897
 20
191.511797
 30
0.0
 11
40.394290
 21
191.082728
 31
0.0
  0
LINE
  5
33a
100
AcDbEntity
  8
Cut
 62
7
100
AcDbLine
 10
40.394290
 20
191.082728
 30
0.0
 11
40.483582
 21
190.866528
 31
0.0
  0
LINE
  5
33b
100
AcDbEntity
  8
Cut
 62
7
100
AcDbLine
 10
40.483582
 20
190.866528
 30
0.0
 11
40.565730
 21
190.649136
 31
0.0
  0
LINE
  5
33c
100
AcDbEntity
  8
Cut
 62
7
100
AcDbLine
 10
40.565730
 20
190.649136
 30
0.0
 11
40.603828
 21
190.539845
 31
0.0
  0
LINE
  5
33d
100
AcDbEntity
  8
Cut
 62
7
100
AcDbLine
 10
40.603828
 20
190.539845
 30
0.0
 11
40.639544
 21
190.430078
 31
0.0
  0
LINE
  5
33e
100
AcDbEntity
  8
Cut
 62
7
100
AcDbLine
 10
40.639544
 20
190.430078
 30
0.0
 11
40.672404
 21
190.319835
 31
0.0
  0
LINE
  5
33f
100
AcDbEntity
  8
Cut
 62
7
100
AcDbLine
 10
40.672404
 20
190.319835
 30
0.0
 11
40.701929
 21
190.208877
 31
0.0
  0
LINE
  5
340
100
AcDbEntity
  8
Cut
 62
7
100
AcDbLine
 10
40.701929
 20
190.208877
 30
0.0
 11
44.061670
 21
190.633421
 31
0.0
  0
LINE
  5
341
100
AcDbEntity
  8
Cut
 62
7
100
AcDbLine
 10
44.061670
 20
190.633421
 30
0.0
 11
44.062623
 21
190.748189
 31
0.0
  0
LINE
  5
342
100
AcDbEntity
  8
Cut
 62
7
100
AcDbLine
 10
44.062623
 20
190.748189
 30
0.0
 11
44.067147
 21
190.862956
 31
0.0
  0
LINE
  5
343
100
AcDbEntity
  8
Cut
 62
7
100
AcDbLine
 10
44.067147
 20
190.862956
 30
0.0
 11
44.074528
 21
190.978200
 31
0.0
  0
LINE
  5
344
100
AcDbEntity
  8
Cut
 62
7
100
AcDbLine
 10
44.074528
 20
190.978200
 30
0.0
 11
44.084053
 21
191.093443
 31
0.0
  0
LINE
  5
345
100
AcDbEntity
  8
Cut
 62
7
100
AcDbLine
 10
44.084053
 20
191.093443
 30
0.0
 11
44.109531
 21
191.324645
 31
0.0
  0
LINE
  5
346
100
AcDbEntity
  8
Cut
 62
7
100
AcDbLine
 10
44.109531
 20
191.324645
 30
0.0
 11
44.142390
 21
191.556323
 31
0.0
  0
LINE
  5
347
100
AcDbEntity
  8
Cut
 62
7
100
AcDbLine
 10
44.142390
 20
191.556323
 30
0.0
 11
44.226681
 21
192.020869
 31
0.0
  0
LINE
  5
348
100
AcDbEntity
  8
Cut
 62
7
100
AcDbLine
 10
44.226681
 20
192.020869
 30
0.0
 11
44.333593
 21
192.486367
 31
0.0
  0
LINE
  5
349
100
AcDbEntity
  8
Cut
 62
7
100
AcDbLine
 10
44.333593
 20
192.486367
 30
0.0
 11
44.460268
 21
192.953056
 31
0.0
  0
LINE
  5
34a
100
AcDbEntity
  8
Cut
 62
7
100
AcDbLine
 10
44.460268
 20
192.953056
 30
0.0
 11
44.605515
 21
193.419984
 31
0.0
  0
LINE
  5
34b
100
AcDbEntity
  8
Cut
 62
7
100
AcDbLine
 10
44.605515
 20
193.419984
 30
0.0
 11
44.767907
 21
193.887149
 31
0.0
  0
LINE
  5
34c
100
AcDbEntity
  8
Cut
 62
7
100
AcDbLine
 10
44.767907
 20
193.887149
 30
0.0
 11
44.946966
 21
194.354314
 31
0.0
  0
LINE
  5
34d
100
AcDbEntity
  8
Cut
 62
7
100
AcDbLine
 10
44.946966
 20
194.354314
 30
0.0
 11
45.141978
 21
194.821241
 31
0.0
  0
LINE
  5
34e
100
AcDbEntity
  8
Cut
 62
7
100
AcDbLine
 10
45.141978
 20
194.821241
 30
0.0
 11
45.352230
 21
195.287692
 31
0.0
  0
LINE
  5
34f
100
AcDbEntity
  8
Cut
 62
7
100
AcDbLine
 10
45.352230
 20
195.287692
 30
0.0
 11
48.304326
 21
195.301979
 31
0.0
  0
LINE
  5
350
100
AcDbEntity
  8
Cut
 62
7
100
AcDbLine
 10
48.304326
 20
195.301979
 30
0.0
 11
48.519102
 21
194.837671
 31
0.0
  0
LINE
  5
351
100
AcDbEntity
  8
Cut
 62
7
100
AcDbLine
 10
48.519102
 20
194.837671
 30
0.0
 11
48.718638
 21
194.372648
 31
0.0
  0
LINE
  5
352
100
AcDbEntity
  8
Cut
 62
7
100
AcDbLine
 10
48.718638
 20
194.372648
 30
0.0
 11
48.902222
 21
193.907150
 31
0.0
  0
LINE
  5
353
100
AcDbEntity
  8
Cut
 62
7
100
AcDbLine
 10
48.902222
 20
193.907150
 30
0.0
 11
49.069137
 21
193.441413
 31
0.0
  0
LINE
  5
354
100
AcDbEntity
  8
Cut
 62
7
100
AcDbLine
 10
49.069137
 20
193.441413
 30
0.0
 11
49.218909
 21
192.975915
 31
0.0
  0
LINE
  5
355
100
AcDbEntity
  8
Cut
 62
7
100
AcDbLine
 10
49.218909
 20
192.975915
 30
0.0
 11
49.350108
 21
192.510654
 31
0.0
  0
LINE
  5
356
100
AcDbEntity
  8
Cut
 62
7
100
AcDbLine
 10
49.350108
 20
192.510654
 30
0.0
 11
49.461305
 21
192.046108
 31
0.0
  0
LINE
  5
357
100
AcDbEntity
  8
Cut
 62
7
100
AcDbLine
 10
49.461305
 20
192.046108
 30
0.0
 11
49.550359
 21
191.582514
 31
0.0
  0
LINE
  5
358
100
AcDbEntity
  8
Cut
 62
7
100
AcDbLine
 10
49.550359
 20
191.582514
 30
0.0
 11
49.585361
 21
191.351075
 31
0.0
  0
LINE
  5
359
100
AcDbEntity
  8
Cut
 62
7
100
AcDbLine
 10
49.585361
 20
191.351075
 30
0.0
 11
49.612982
 21
191.120349
 31
0.0
  0
LINE
  5
35a
100
AcDbEntity
  8
Cut
 62
7
100
AcDbLine
 10
49.612982
 20
191.120349
 30
0.0
 11
49.623697
 21
191.005106
 31
0.0
  0
LINE
  5
35b
100
AcDbEntity
  8
Cut
 62
7
100
AcDbLine
 10
49.623697
 20
191.005106
 30
0.0
 11
49.632031
 21
190.889862
 31
0.0
  0
LINE
  5
35c
100
AcDbEntity
  8
Cut
 62
7
100
AcDbLine
 10
49.632031
 20
190.889862
 30
0.0
 11
49.637745
 21
190.775095
 31
0.0
  0
LINE
  5
35d
100
AcDbEntity
  8
Cut
 62
7
100
AcDbLine
 10
49.637745
 20
190.775095
 30
0.0
 11
49.639888
 21
190.660327
 31
0.0
  0
LINE
  5
35e
100
AcDbEntity
  8
Cut
 62
7
100
AcDbLine
 10
49.639888
 20
190.660327
 30
0.0
 11
53.003439
 21
190.268404
 31
0.0
  0
LINE
  5
35f
100
AcDbEntity
  8
Cut
 62
7
100
AcDbLine
 10
53.003439
 20
190.268404
 30
0.0
 11
53.032012
 21
190.379600
 31
0.0
  0
LINE
  5
360
100
AcDbEntity
  8
Cut
 62
7
100
AcDbLine
 10
53.032012
 20
190.379600
 30
0.0
 11
53.063919
 21
190.490081
 31
0.0
  0
LINE
  5
361
100
AcDbEntity
  8
Cut
 62
7
100
AcDbLine
 10
53.063919
 20
190.490081
 30
0.0
 11
53.098445
 21
190.600086
 31
0.0
  0
LINE
  5
362
100
AcDbEntity
  8
Cut
 62
7
100
AcDbLine
 10
53.098445
 20
190.600086
 30
0.0
 11
53.135352
 21
190.709853
 31
0.0
  0
LINE
  5
363
100
AcDbEntity
  8
Cut
 62
7
100
AcDbLine
 10
53.135352
 20
190.709853
 30
0.0
 11
53.215358
 21
190.928197
 31
0.0
  0
LINE
  5
364
100
AcDbEntity
  8
Cut
 62
7
100
AcDbLine
 10
53.215358
 20
190.928197
 30
0.0
 11
53.302744
 21
191.145351
 31
0.0
  0
LINE
  5
365
100
AcDbEntity
  8
Cut
 62
7
100
AcDbLine
 10
53.302744
 20
191.145351
 30
0.0
 11
53.495852
 21
191.576086
 31
0.0
  0
LINE
  5
366
100
AcDbEntity
  8
Cut
 62
7
100
AcDbLine
 10
53.495852
 20
191.576086
 30
0.0
 11
53.710866
 21
192.002535
 31
0.0
  0
LINE
  5
367
100
AcDbEntity
  8
Cut
 62
7
100
AcDbLine
 10
53.710866
 20
192.002535
 30
0.0
 11
53.945643
 21
192.425174
 31
0.0
  0
LINE
  5
368
100
AcDbEntity
  8
Cut
 62
7
100
AcDbLine
 10
53.945643
 20
192.425174
 30
0.0
 11
54.198278
 21
192.844003
 31
0.0
  0
LINE
  5
369
100
AcDbEntity
  8
Cut
 62
7
100
AcDbLine
 10
54.198278
 20
192.844003
 30
0.0
 11
54.468058
 21
193.258547
 31
0.0
  0
LINE
  5
36a
100
AcDbEntity
  8
Cut
 62
7
100
AcDbLine
 10
54.468058
 20
193.258547
 30
0.0
 11
54.753552
 21
193.669281
 31
0.0
  0
LINE
  5
36b
100
AcDbEntity
  8
Cut
 62
7
100
AcDbLine
 10
54.753552
 20
193.669281
 30
0.0
 11
55.054524
 21
194.075967
 31
0.0
  0
LINE
  5
36c
100
AcDbEntity
  8
Cut
 62
7
100
AcDbLine
 10
55.054524
 20
194.075967
 30
0.0
 11
55.370259
 21
194.478606
 31
0.0
  0
LINE
  5
36d
100
AcDbEntity
  8
Cut
 62
7
100
AcDbLine
 10
55.370259
 20
194.478606
 30
0.0
 11
58.240206
 21
193.785953
 31
0.0
  0
LINE
  5
36e
100
AcDbEntity
  8
Cut
 62
7
100
AcDbLine
 10
58.240206
 20
193.785953
 30
0.0
 11
58.337594
 21
193.283787
 31
0.0
  0
LINE
  5
36f
100
AcDbEntity
  8
Cut
 62
7
100
AcDbLine
 10
58.337594
 20
193.283787
 30
0.0
 11
58.419980
 21
192.784477
 31
0.0
  0
LINE
  5
370
100
AcDbEntity
  8
Cut
 62
7
100
AcDbLine
 10
58.419980
 20
192.784477
 30
0.0
 11
58.486889
 21
192.288739
 31
0.0
  0
LINE
  5
371
100
AcDbEntity
  8
Cut
 62
7
100
AcDbLine
 10
58.486889
 20
192.288739
 30
0.0
 11
58.537607
 21
191.796572
 31
0.0
  0
LINE
  5
372
100
AcDbEntity
  8
Cut
 62
7
100
AcDbLine
 10
58.537607
 20
191.796572
 30
0.0
 11
58.571418
 21
191.308692
 31
0.0
  0
LINE
  5
373
100
AcDbEntity
  8
Cut
 62
7
100
AcDbLine
 10
58.571418
 20
191.308692
 30
0.0
 11
58.587610
 21
190.825573
 31
0.0
  0
LINE
  5
374
100
AcDbEntity
  8
Cut
 62
7
100
AcDbLine
 10
58.587610
 20
190.825573
 30
0.0
 11
58.584276
 21
190.347931
 31
0.0
  0
LINE
  5
375
100
AcDbEntity
  8
Cut
 62
7
100
AcDbLine
 10
58.584276
 20
190.347931
 30
0.0
 11
58.559751
 21
189.876480
 31
0.0
  0
LINE
  5
376
100
AcDbEntity
  8
Cut
 62
7
100
AcDbLine
 10
58.559751
 20
189.876480
 30
0.0
 11
58.538321
 21
189.643374
 31
0.0
  0
LINE
  5
377
100
AcDbEntity
  8
Cut
 62
7
100
AcDbLine
 10
58.538321
 20
189.643374
 30
0.0
 11
58.509986
 21
189.412648
 31
0.0
  0
LINE
  5
378
100
AcDbEntity
  8
Cut
 62
7
100
AcDbLine
 10
58.509986
 20
189.412648
 30
0.0
 11
58.492842
 21
189.298119
 31
0.0
  0
LINE
  5
379
100
AcDbEntity
  8
Cut
 62
7
100
AcDbLine
 10
58.492842
 20
189.298119
 30
0.0
 11
58.473555
 21
189.184542
 31
0.0
  0
LINE
  5
37a
100
AcDbEntity
  8
Cut
 62
7
100
AcDbLine
 10
58.473555
 20
189.184542
 30
0.0
 11
58.451411
 21
189.071442
 31
0.0
  0
LINE
  5
37b
100
AcDbEntity
  8
Cut
 62
7
100
AcDbLine
 10
58.451411
 20
189.071442
 30
0.0
 11
58.425933
 21
188.959769
 31
0.0
  0
LINE
  5
37c
100
AcDbEntity
  8
Cut
 62
7
100
AcDbLine
 10
58.425933
 20
188.959769
 30
0.0
 11
61.598281
 21
187.774236
 31
0.0
  0
LINE
  5
37d
100
AcDbEntity
  8
Cut
 62
7
100
AcDbLine
 10
61.598281
 20
187.774236
 30
0.0
 11
61.652332
 21
187.875194
 31
0.0
  0
LINE
  5
37e
100
AcDbEntity
  8
Cut
 62
7
100
AcDbLine
 10
61.652332
 20
187.875194
 30
0.0
 11
61.709716
 21
187.974960
 31
0.0
  0
LINE
  5
37f
100
AcDbEntity
  8
Cut
 62
7
100
AcDbLine
 10
61.709716
 20
187.974960
 30
0.0
 11
61.769720
 21
188.073536
 31
0.0
  0
LINE
  5
380
100
AcDbEntity
  8
Cut
 62
7
100
AcDbLine
 10
61.769720
 20
188.073536
 30
0.0
 11
61.831867
 21
188.171160
 31
0.0
  0
LINE
  5
381
100
AcDbEntity
  8
Cut
 62
7
100
AcDbLine
 10
61.831867
 20
188.171160
 30
0.0
 11
61.961876
 21
188.364027
 31
0.0
  0
LINE
  5
382
100
AcDbEntity
  8
Cut
 62
7
100
AcDbLine
 10
61.961876
 20
188.364027
 30
0.0
 11
62.098551
 21
188.553798
 31
0.0
  0
LINE
  5
383
100
AcDbEntity
  8
Cut
 62
7
100
AcDbLine
 10
62.098551
 20
188.553798
 30
0.0
 11
62.389046
 21
188.925958
 31
0.0
  0
LINE
  5
384
100
AcDbEntity
  8
Cut
 62
7
100
AcDbLine
 10
62.389046
 20
188.925958
 30
0.0
 11
62.700019
 21
189.288595
 31
0.0
  0
LINE
  5
385
100
AcDbEntity
  8
Cut
 62
7
100
AcDbLine
 10
62.700019
 20
189.288595
 30
0.0
 11
63.029087
 21
189.642897
 31
0.0
  0
LINE
  5
386
100
AcDbEntity
  8
Cut
 62
7
100
AcDbLine
 10
63.029087
 20
189.642897
 30
0.0
 11
63.374586
 21
189.988866
 31
0.0
  0
LINE
  5
387
100
AcDbEntity
  8
Cut
 62
7
100
AcDbLine
 10
63.374586
 20
189.988866
 30
0.0
 11
63.735562
 21
190.326978
 31
0.0
  0
LINE
  5
388
100
AcDbEntity
  8
Cut
 62
7
100
AcDbLine
 10
63.735562
 20
190.326978
 30
0.0
 11
64.111300
 21
190.657470
 31
0.0
  0
LINE
  5
389
100
AcDbEntity
  8
Cut
 62
7
100
AcDbLine
 10
64.111300
 20
190.657470
 30
0.0
 11
64.500849
 21
190.980343
 31
0.0
  0
LINE
  5
38a
100
AcDbEntity
  8
Cut
 62
7
100
AcDbLine
 10
64.500849
 20
190.980343
 30
0.0
 11
64.903733
 21
191.295596
 31
0.0
  0
LINE
  5
38b
100
AcDbEntity
  8
Cut
 62
7
100
AcDbLine
 10
64.903733
 20
191.295596
 30
0.0
 11
67.524616
 21
189.936245
 31
0.0
  0
LINE
  5
38c
100
AcDbEntity
  8
Cut
 62
7
100
AcDbLine
 10
67.524616
 20
189.936245
 30
0.0
 11
67.498900
 21
189.425268
 31
0.0
  0
LINE
  5
38d
100
AcDbEntity
  8
Cut
 62
7
100
AcDbLine
 10
67.498900
 20
189.425268
 30
0.0
 11
67.459374
 21
188.920958
 31
0.0
  0
LINE
  5
38e
100
AcDbEntity
  8
Cut
 62
7
100
AcDbLine
 10
67.459374
 20
188.920958
 30
0.0
 11
67.405561
 21
188.423553
 31
0.0
  0
LINE
  5
38f
100
AcDbEntity
  8
Cut
 62
7
100
AcDbLine
 10
67.405561
 20
188.423553
 30
0.0
 11
67.337223
 21
187.933530
 31
0.0
  0
LINE
  5
390
100
AcDbEntity
  8
Cut
 62
7
100
AcDbLine
 10
67.337223
 20
187.933530
 30
0.0
 11
67.253408
 21
187.451840
 31
0.0
  0
LINE
  5
391
100
AcDbEntity
  8
Cut
 62
7
100
AcDbLine
 10
67.253408
 20
187.451840
 30
0.0
 11
67.153402
 21
186.978960
 31
0.0
  0
LINE
  5
392
100
AcDbEntity
  8
Cut
 62
7
100
AcDbLine
 10
67.153402
 20
186.978960
 30
0.0
 11
67.035775
 21
186.515843
 31
0.0
  0
LINE
  5
393
100
AcDbEntity
  8
Cut
 62
7
100
AcDbLine
 10
67.035775
 20
186.515843
 30
0.0
 11
66.899100
 21
186.063916
 31
0.0
  0
LINE
  5
394
100
AcDbEntity
  8
Cut
 62
7
100
AcDbLine
 10
66.899100
 20
186.063916
 30
0.0
 11
66.822666
 21
185.842715
 31
0.0
  0
LINE
  5
395
100
AcDbEntity
  8
Cut
 62
7
100
AcDbLine
 10
66.822666
 20
185.842715
 30
0.0
 11
66.739804
 21
185.625562
 31
0.0
  0
LINE
  5
396
100
AcDbEntity
  8
Cut
 62
7
100
AcDbLine
 10
66.739804
 20
185.625562
 30
0.0
 11
66.695753
 21
185.518414
 31
0.0
  0
LINE
  5
397
100
AcDbEntity
  8
Cut
 62
7
100
AcDbLine
 10
66.695753
 20
185.518414
 30
0.0
 11
66.649798
 21
185.412694
 31
0.0
  0
LINE
  5
398
100
AcDbEntity
  8
Cut
 62
7
100
AcDbLine
 10
66.649798
 20
185.412694
 30
0.0
 11
66.601223
 21
185.308404
 31
0.0
  0
LINE
  5
399
100
AcDbEntity
  8
Cut
 62
7
100
AcDbLine
 10
66.601223
 20
185.308404
 30
0.0
 11
66.550029
 21
185.205780
 31
0.0
  0
LINE
  5
39a
100
AcDbEntity
  8
Cut
 62
7
100
AcDbLine
 10
66.550029
 20
185.205780
 30
0.0
 11
69.346163
 21
183.295688
 31
0.0
  0
LINE
  5
39b
100
AcDbEntity
  8
Cut
 62
7
100
AcDbLine
 10
69.346163
 20
183.295688
 30
0.0
 11
69.423072
 21
183.380692
 31
0.0
  0
LINE
  5
39c
100
AcDbEntity
  8
Cut
 62
7
100
AcDbLine
 10
69.423072
 20
183.380692
 30
0.0
 11
69.502601
 21
183.463791
 31
0.0
  0
LINE
  5
39d
100
AcDbEntity
  8
Cut
 62
7
100
AcDbLine
 10
69.502601
 20
183.463791
 30
0.0
 11
69.584511
 21
183.545224
 31
0.0
  0
LINE
  5
39e
100
AcDbEntity
  8
Cut
 62
7
100
AcDbLine
 10
69.584511
 20
183.545224
 30
0.0
 11
69.668088
 21
183.625228
 31
0.0
  0
LINE
  5
39f
100
AcDbEntity
  8
Cut
 62
7
100
AcDbLine
 10
69.668088
 20
183.625228
 30
0.0
 11
69.840480
 21
183.781188
 31
0.0
  0
LINE
  5
3a0
100
AcDbEntity
  8
Cut
 62
7
100
AcDbLine
 10
69.840480
 20
183.781188
 30
0.0
 11
70.018587
 21
183.932862
 31
0.0
  0
LINE
  5
3a1
100
AcDbEntity
  8
Cut
 62
7
100
AcDbLine
 10
70.018587
 20
183.932862
 30
0.0
 11
70.389802
 21
184.224542
 31
0.0
  0
LINE
  5
3a2
100
AcDbEntity
  8
Cut
 62
7
100
AcDbLine
 10
70.389802
 20
184.224542
 30
0.0
 11
70.778398
 21
184.502413
 31
0.0
  0
LINE
  5
3a3
100
AcDbEntity
  8
Cut
 62
7
100
AcDbLine
 10
70.778398
 20
184.502413
 30
0.0
 11
71.182710
 21
184.767425
 31
0.0
  0
LINE
  5
3a4
100
AcDbEntity
  8
Cut
 62
7
100
AcDbLine
 10
71.182710
 20
184.767425
 30
0.0
 11
71.601070
 21
185.020771
 31
0.0
  0
LINE
  5
3a5
100
AcDbEntity
  8
Cut
 62
7
100
AcDbLine
 10
71.601070
 20
185.020771
 30
0.0
 11
72.032527
 21
185.262687
 31
0.0
  0
LINE
  5
3a6
100
AcDbEntity
  8
Cut
 62
7
100
AcDbLine
 10
72.032527
 20
185.262687
 30
0.0
 11
72.476365
 21
185.493651
 31
0.0
  0
LINE
  5
3a7
100
AcDbEntity
  8
Cut
 62
7
100
AcDbLine
 10
72.476365
 20
185.493651
 30
0.0
 11
72.931871
 21
185.713899
 31
0.0
  0
LINE
  5
3a8
100
AcDbEntity
  8
Cut
 62
7
100
AcDbLine
 10
72.931871
 20
185.713899
 30
0.0
 11
73.398568
 21
185.923671
 31
0.0
  0
LINE
  5
3a9
100
AcDbEntity
  8
Cut
 62
7
100
AcDbLine
 10
73.398568
 20
185.923671
 30
0.0
 11
75.617759
 21
183.976673
 31
0.0
  0
LINE
  5
3aa
100
AcDbEntity
  8
Cut
 62
7
100
AcDbLine
 10
75.617759
 20
183.976673
 30
0.0
 11
75.470606
 21
183.486650
 31
0.0
  0
LINE
  5
3ab
100
AcDbEntity
  8
Cut
 62
7
100
AcDbLine
 10
75.470606
 20
183.486650
 30
0.0
 11
75.311548
 21
183.006389
 31
0.0
  0
LINE
  5
3ac
100
AcDbEntity
  8
Cut
 62
7
100
AcDbLine
 10
75.311548
 20
183.006389
 30
0.0
 11
75.140347
 21
182.536366
 31
0.0
  0
LINE
  5
3ad
100
AcDbEntity
  8
Cut
 62
7
100
AcDbLine
 10
75.140347
 20
182.536366
 30
0.0
 11
74.956525
 21
182.077058
 31
0.0
  0
LINE
  5
3ae
100
AcDbEntity
  8
Cut
 62
7
100
AcDbLine
 10
74.956525
 20
182.077058
 30
0.0
 11
74.759846
 21
181.629180
 31
0.0
  0
LINE
  5
3af
100
AcDbEntity
  8
Cut
 62
7
100
AcDbLine
 10
74.759846
 20
181.629180
 30
0.0
 11
74.549594
 21
181.193921
 31
0.0
  0
LINE
  5
3b0
100
AcDbEntity
  8
Cut
 62
7
100
AcDbLine
 10
74.549594
 20
181.193921
 30
0.0
 11
74.324818
 21
180.772472
 31
0.0
  0
LINE
  5
3b1
100
AcDbEntity
  8
Cut
 62
7
100
AcDbLine
 10
74.324818
 20
180.772472
 30
0.0
 11
74.083850
 21
180.366500
 31
0.0
  0
LINE
  5
3b2
100
AcDbEntity
  8
Cut
 62
7
100
AcDbLine
 10
74.083850
 20
180.366500
 30
0.0
 11
73.956699
 21
180.170062
 31
0.0
  0
LINE
  5
3b3
100
AcDbEntity
  8
Cut
 62
7
100
AcDbLine
 10
73.956699
 20
180.170062
 30
0.0
 11
73.824309
 21
179.978862
 31
0.0
  0
LINE
  5
3b4
100
AcDbEntity
  8
Cut
 62
7
100
AcDbLine
 10
73.824309
 20
179.978862
 30
0.0
 11
73.755972
 21
179.885524
 31
0.0
  0
LINE
  5
3b5
100
AcDbEntity
  8
Cut
 62
7
100
AcDbLine
 10
73.755972
 20
179.885524
 30
0.0
 11
73.685729
 21
179.793853
 31
0.0
  0
LINE
  5
3b6
100
AcDbEntity
  8
Cut
 62
7
100
AcDbLine
 10
73.685729
 20
179.793853
 30
0.0
 11
73.613820
 21
179.704087
 31
0.0
  0
LINE
  5
3b7
100
AcDbEntity
  8
Cut
 62
7
100
AcDbLine
 10
73.613820
 20
179.704087
 30
0.0
 11
73.539291
 21
179.616940
 31
0.0
  0
LINE
  5
3b8
100
AcDbEntity
  8
Cut
 62
7
100
AcDbLine
 10
73.539291
 20
179.616940
 30
0.0
 11
75.797294
 21
177.093010
 31
0.0
  0
LINE
  5
3b9
100
AcDbEntity
  8
Cut
 62
7
100
AcDbLine
 10
75.797294
 20
177.093010
 30
0.0
 11
75.892300
 21
177.157298
 31
0.0
  0
LINE
  5
3ba
100
AcDbEntity
  8
Cut
 62
7
100
AcDbLine
 10
75.892300
 20
177.157298
 30
0.0
 11
75.989449
 21
177.218968
 31
0.0
  0
LINE
  5
3bb
100
AcDbEntity
  8
Cut
 62
7
100
AcDbLine
 10
75.989449
 20
177.218968
 30
0.0
 11
76.088265
 21
177.278257
 31
0.0
  0
LINE
  5
3bc
100
AcDbEntity
  8
Cut
 62
7
100
AcDbLine
 10
76.088265
 20
177.278257
 30
0.0
 11
76.188748
 21
177.335878
 31
0.0
  0
LINE
  5
3bd
100
AcDbEntity
  8
Cut
 62
7
100
AcDbLine
 10
76.188748
 20
177.335878
 30
0.0
 11
76.393285
 21
177.446360
 31
0.0
  0
LINE
  5
3be
100
AcDbEntity
  8
Cut
 62
7
100
AcDbLine
 10
76.393285
 20
177.446360
 30
0.0
 11
76.602584
 21
177.550889
 31
0.0
  0
LINE
  5
3bf
100
AcDbEntity
  8
Cut
 62
7
100
AcDbLine
 10
76.602584
 20
177.550889
 30
0.0
 11
77.032850
 21
177.745184
 31
0.0
  0
LINE
  5
3c0
100
AcDbEntity
  8
Cut
 62
7
100
AcDbLine
 10
77.032850
 20
177.745184
 30
0.0
 11
77.476688
 21
177.921859
 31
0.0
  0
LINE
  5
3c1
100
AcDbEntity
  8
Cut
 62
7
100
AcDbLine
 10
77.476688
 20
177.921859
 30
0.0
 11
77.932670
 21
178.082581
 31
0.0
  0
LINE
  5
3c2
100
AcDbEntity
  8
Cut
 62
7
100
AcDbLine
 10
77.932670
 20
178.082581
 30
0.0
 11
78.399367
 21
178.228540
 31
0.0
  0
LINE
  5
3c3
100
AcDbEntity
  8
Cut
 62
7
100
AcDbLine
 10
78.399367
 20
178.228540
 30
0.0
 11
78.876303
 21
178.359975
 31
0.0
  0
LINE
  5
3c4
100
AcDbEntity
  8
Cut
 62
7
100
AcDbLine
 10
78.876303
 20
178.359975
 30
0.0
 11
79.362525
 21
178.478076
 31
0.0
  0
LINE
  5
3c5
100
AcDbEntity
  8
Cut
 62
7
100
AcDbLine
 10
79.362525
 20
178.478076
 30
0.0
 11
79.857557
 21
178.582843
 31
0.0
  0
LINE
  5
3c6
100
AcDbEntity
  8
Cut
 62
7
100
AcDbLine
 10
79.857557
 20
178.582843
 30
0.0
 11
80.360684
 21
178.674752
 31
0.0
  0
LINE
  5
3c7
100
AcDbEntity
  8
Cut
 62
7
100
AcDbLine
 10
80.360684
 20
178.674752
 30
0.0
 11
82.049603
 21
176.253445
 31
0.0
  0
LINE
  5
3c8
100
AcDbEntity
  8
Cut
 62
7
100
AcDbLine
 10
82.049603
 20
176.253445
 30
0.0
 11
81.789348
 21
175.812710
 31
0.0
  0
LINE
  5
3c9
100
AcDbEntity
  8
Cut
 62
7
100
AcDbLine
 10
81.789348
 20
175.812710
 30
0.0
 11
81.520045
 21
175.384594
 31
0.0
  0
LINE
  5
3ca
100
AcDbEntity
  8
Cut
 62
7
100
AcDbLine
 10
81.520045
 20
175.384594
 30
0.0
 11
81.241218
 21
174.969098
 31
0.0
  0
LINE
  5
3cb
100
AcDbEntity
  8
Cut
 62
7
100
AcDbLine
 10
81.241218
 20
174.969098
 30
0.0
 11
80.952866
 21
174.567174
 31
0.0
  0
LINE
  5
3cc
100
AcDbEntity
  8
Cut
 62
7
100
AcDbLine
 10
80.952866
 20
174.567174
 30
0.0
 11
80.654751
 21
174.179536
 31
0.0
  0
LINE
  5
3cd
100
AcDbEntity
  8
Cut
 62
7
100
AcDbLine
 10
80.654751
 20
174.179536
 30
0.0
 11
80.346398
 21
173.807138
 31
0.0
  0
LINE
  5
3ce
100
AcDbEntity
  8
Cut
 62
7
100
AcDbLine
 10
80.346398
 20
173.807138
 30
0.0
 11
80.027330
 21
173.451644
 31
0.0
  0
LINE
  5
3cf
100
AcDbEntity
  8
Cut
 62
7
100
AcDbLine
 10
80.027330
 20
173.451644
 30
0.0
 11
79.696118
 21
173.115200
 31
0.0
  0
LINE
  5
3d0
100
AcDbEntity
  8
Cut
 62
7
100
AcDbLine
 10
79.696118
 20
173.115200
 30
0.0
 11
79.525630
 21
172.954954
 31
0.0
  0
LINE
  5
3d1
100
AcDbEntity
  8
Cut
 62
7
100
AcDbLine
 10
79.525630
 20
172.954954
 30
0.0
 11
79.351333
 21
172.800899
 31
0.0
  0
LINE
  5
3d2
100
AcDbEntity
  8
Cut
 62
7
100
AcDbLine
 10
79.351333
 20
172.800899
 30
0.0
 11
79.262756
 21
172.726610
 31
0.0
  0
LINE
  5
3d3
100
AcDbEntity
  8
Cut
 62
7
100
AcDbLine
 10
79.262756
 20
172.726610
 30
0.0
 11
79.172750
 21
172.654463
 31
0.0
  0
LINE
  5
3d4
100
AcDbEntity
  8
Cut
 62
7
100
AcDbLine
 10
79.172750
 20
172.654463
 30
0.0
 11
79.081316
 21
172.584460
 31
0.0
  0
LINE
  5
3d5
100
AcDbEntity
  8
Cut
 62
7
100
AcDbLine
 10
79.081316
 20
172.584460
 30
0.0
 11
78.988215
 21
172.517552
 31
0.0
  0
LINE
  5
3d6
100
AcDbEntity
  8
Cut
 62
7
100
AcDbLine
 10
78.988215
 20
172.517552
 30
0.0
 11
80.576413
 21
169.526694
 31
0.0
  0
LINE
  5
3d7
100
AcDbEntity
  8
Cut
 62
7
100
AcDbLine
 10
80.576413
 20
169.526694
 30
0.0
 11
80.684039
 21
169.566458
 31
0.0
  0
LINE
  5
3d8
100
AcDbEntity
  8
Cut
 62
7
100
AcDbLine
 10
80.684039
 20
169.566458
 30
0.0
 11
80.793093
 21
169.603126
 31
0.0
  0
LINE
  5
3d9
100
AcDbEntity
  8
Cut
 62
7
100
AcDbLine
 10
80.793093
 20
169.603126
 30
0.0
 11
80.903339
 21
169.637176
 31
0.0
  0
LINE
  5
3da
100
AcDbEntity
  8
Cut
 62
7
100
AcDbLine
 10
80.903339
 20
169.637176
 30
0.0
 11
81.014536
 21
169.669082
 31
0.0
  0
LINE
  5
3db
100
AcDbEntity
  8
Cut
 62
7
100
AcDbLine
 10
81.014536
 20
169.669082
 30
0.0
 11
81.239789
 21
169.727180
 31
0.0
  0
LINE
  5
3dc
100
AcDbEntity
  8
Cut
 62
7
100
AcDbLine
 10
81.239789
 20
169.727180
 30
0.0
 11
81.467899
 21
169.778611
 31
0.0
  0
LINE
  5
3dd
100
AcDbEntity
  8
Cut
 62
7
100
AcDbLine
 10
81.467899
 20
169.778611
 30
0.0
 11
81.932215
 21
169.864329
 31
0.0
  0
LINE
  5
3de
100
AcDbEntity
  8
Cut
 62
7
100
AcDbLine
 10
81.932215
 20
169.864329
 30
0.0
 11
82.405579
 21
169.929809
 31
0.0
  0
LINE
  5
3df
100
AcDbEntity
  8
Cut
 62
7
100
AcDbLine
 10
82.405579
 20
169.929809
 30
0.0
 11
82.886562
 21
169.976716
 31
0.0
  0
LINE
  5
3e0
100
AcDbEntity
  8
Cut
 62
7
100
AcDbLine
 10
82.886562
 20
169.976716
 30
0.0
 11
83.374689
 21
170.006479
 31
0.0
  0
LINE
  5
3e1
100
AcDbEntity
  8
Cut
 62
7
100
AcDbLine
 10
83.374689
 20
170.006479
 30
0.0
 11
83.869245
 21
170.020289
 31
0.0
  0
LINE
  5
3e2
100
AcDbEntity
  8
Cut
 62
7
100
AcDbLine
 10
83.869245
 20
170.020289
 30
0.0
 11
84.369515
 21
170.018384
 31
0.0
  0
LINE
  5
3e3
100
AcDbEntity
  8
Cut
 62
7
100
AcDbLine
 10
84.369515
 20
170.018384
 30
0.0
 11
84.875262
 21
170.001717
 31
0.0
  0
LINE
  5
3e4
100
AcDbEntity
  8
Cut
 62
7
100
AcDbLine
 10
84.875262
 20
170.001717
 30
0.0
 11
85.385771
 21
169.970525
 31
0.0
  0
LINE
  5
3e5
100
AcDbEntity
  8
Cut
 62
7
100
AcDbLine
 10
85.385771
 20
169.970525
 30
0.0
 11
86.446078
 21
167.215393
 31
0.0
  0
LINE
  5
3e6
100
AcDbEntity
  8
Cut
 62
7
100
AcDbLine
 10
86.446078
 20
167.215393
 30
0.0
 11
86.088198
 21
166.849899
 31
0.0
  0
LINE
  5
3e7
100
AcDbEntity
  8
Cut
 62
7
100
AcDbLine
 10
86.088198
 20
166.849899
 30
0.0
 11
85.724127
 21
166.498454
 31
0.0
  0
LINE
  5
3e8
100
AcDbEntity
  8
Cut
 62
7
100
AcDbLine
 10
85.724127
 20
166.498454
 30
0.0
 11
85.353864
 21
166.161771
 31
0.0
  0
LINE
  5
3e9
100
AcDbEntity
  8
Cut
 62
7
100
AcDbLine
 10
85.353864
 20
166.161771
 30
0.0
 11
84.977888
 21
165.840565
 31
0.0
  0
LINE
  5
3ea
100
AcDbEntity
  8
Cut
 62
7
100
AcDbLine
 10
84.977888
 20
165.840565
 30
0.0
 11
84.595482
 21
165.535550
 31
0.0
  0
LINE
  5
3eb
100
AcDbEntity
  8
Cut
 62
7
100
AcDbLine
 10
84.595482
 20
165.535550
 30
0.0
 11
84.207124
 21
165.247679
 31
0.0
  0
LINE
  5
3ec
100
AcDbEntity
  8
Cut
 62
7
100
AcDbLine
 10
84.207124
 20
165.247679
 30
0.0
 11
83.812098
 21
164.979095
 31
0.0
  0
LINE
  5
3ed
100
AcDbEntity
  8
Cut
 62
7
100
AcDbLine
 10
83.812098
 20
164.979095
 30
0.0
 11
83.410167
 21
164.731464
 31
0.0
  0
LINE
  5
3ee
100
AcDbEntity
  8
Cut
 62
7
100
AcDbLine
 10
83.410167
 20
164.731464
 30
0.0
 11
83.206107
 21
164.616697
 31
0.0
  0
LINE
  5
3ef
100
AcDbEntity
  8
Cut
 62
7
100
AcDbLine
 10
83.206107
 20
164.616697
 30
0.0
 11
83.000141
 21
164.508834
 31
0.0
  0
LINE
  5
3f0
100
AcDbEntity
  8
Cut
 62
7
100
AcDbLine
 10
83.000141
 20
164.508834
 30
0.0
 11
82.896086
 21
164.458118
 31
0.0
  0
LINE
  5
3f1
100
AcDbEntity
  8
Cut
 62
7
100
AcDbLine
 10
82.896086
 20
164.458118
 30
0.0
 11
82.791556
 21
164.409306
 31
0.0
  0
LINE
  5
3f2
100
AcDbEntity
  8
Cut
 62
7
100
AcDbLine
 10
82.791556
 20
164.409306
 30
0.0
 11
82.686073
 21
164.363351
 31
0.0
  0
LINE
  5
3f3
100
AcDbEntity
  8
Cut
 62
7
100
AcDbLine
 10
82.686073
 20
164.363351
 30
0.0
 11
82.579637
 21
164.320730
 31
0.0
  0
LINE
  5
3f4
100
AcDbEntity
  8
Cut
 62
7
100
AcDbLine
 10
82.579637
 20
164.320730
 30
0.0
 11
83.405881
 21
161.036763
 31
0.0
  0
LINE
  5
3f5
100
AcDbEntity
  8
Cut
 62
7
100
AcDbLine
 10
83.405881
 20
161.036763
 30
0.0
 11
83.519936
 21
161.049621
 31
0.0
  0
LINE
  5
3f6
100
AcDbEntity
  8
Cut
 62
7
100
AcDbLine
 10
83.519936
 20
161.049621
 30
0.0
 11
83.634706
 21
161.058907
 31
0.0
  0
LINE
  5
3f7
100
AcDbEntity
  8
Cut
 62
7
100
AcDbLine
 10
83.634706
 20
161.058907
 30
0.0
 11
83.749713
 21
161.065574
 31
0.0
  0
LINE
  5
3f8
100
AcDbEntity
  8
Cut
 62
7
100
AcDbLine
 10
83.749713
 20
161.065574
 30
0.0
 11
83.865435
 21
161.069860
 31
0.0
  0
LINE
  5
3f9
100
AcDbEntity
  8
Cut
 62
7
100
AcDbLine
 10
83.865435
 20
161.069860
 30
0.0
 11
84.098069
 21
161.072479
 31
0.0
  0
LINE
  5
3fa
100
AcDbEntity
  8
Cut
 62
7
100
AcDbLine
 10
84.098069
 20
161.072479
 30
0.0
 11
84.331894
 21
161.067955
 31
0.0
  0
LINE
  5
3fb
100
AcDbEntity
  8
Cut
 62
7
100
AcDbLine
 10
84.331894
 20
161.067955
 30
0.0
 11
84.803115
 21
161.040096
 31
0.0
  0
LINE
  5
3fc
100
AcDbEntity
  8
Cut
 62
7
100
AcDbLine
 10
84.803115
 20
161.040096
 30
0.0
 11
85.278383
 21
160.990332
 31
0.0
  0
LINE
  5
3fd
100
AcDbEntity
  8
Cut
 62
7
100
AcDbLine
 10
85.278383
 20
160.990332
 30
0.0
 11
85.756748
 21
160.920567
 31
0.0
  0
LINE
  5
3fe
100
AcDbEntity
  8
Cut
 62
7
100
AcDbLine
 10
85.756748
 20
160.920567
 30
0.0
 11
86.237731
 21
160.832944
 31
0.0
  0
LINE
  5
3ff
100
AcDbEntity
  8
Cut
 62
7
100
AcDbLine
 10
86.237731
 20
160.832944
 30
0.0
 11
86.721096
 21
160.727700
 31
0.0
  0
LINE
  5
400
100
AcDbEntity
  8
Cut
 62
7
100
AcDbLine
 10
86.721096
 20
160.727700
 30
0.0
 11
87.206603
 21
160.606504
 31
0.0
  0
LINE
  5
401
100
AcDbEntity
  8
Cut
 62
7
100
AcDbLine
 10
87.206603
 20
160.606504
 30
0.0
 11
87.693540
 21
160.469117
 31
0.0
  0
LINE
  5
402
100
AcDbEntity
  8
Cut
 62
7
100
AcDbLine
 10
87.693540
 20
160.469117
 30
0.0
 11
88.181904
 21
160.316728
 31
0.0
  0
LINE
  5
403
100
AcDbEntity
  8
Cut
 62
7
100
AcDbLine
 10
88.181904
 20
160.316728
 30
0.0
 11
88.551928
 21
157.387778
 31
0.0
  0
LINE
  5
404
100
AcDbEntity
  8
Cut
 62
7
100
AcDbLine
 10
88.551928
 20
157.387778
 30
0.0
 11
88.116900
 21
157.118480
 31
0.0
  0
LINE
  5
405
100
AcDbEntity
  8
Cut
 62
7
100
AcDbLine
 10
88.116900
 20
157.118480
 30
0.0
 11
87.679253
 21
156.864420
 31
0.0
  0
LINE
  5
406
100
AcDbEntity
  8
Cut
 62
7
100
AcDbLine
 10
87.679253
 20
156.864420
 30
0.0
 11
87.239463
 21
156.626313
 31
0.0
  0
LINE
  5
407
100
AcDbEntity
  8
Cut
 62
7
100
AcDbLine
 10
87.239463
 20
156.626313
 30
0.0
 11
86.797291
 21
156.404160
 31
0.0
  0
LINE
  5
408
100
AcDbEntity
  8
Cut
 62
7
100
AcDbLine
 10
86.797291
 20
156.404160
 30
0.0
 11
86.353215
 21
156.199626
 31
0.0
  0
LINE
  5
409
100
AcDbEntity
  8
Cut
 62
7
100
AcDbLine
 10
86.353215
 20
156.199626
 30
0.0
 11
85.906995
 21
156.013188
 31
0.0
  0
LINE
  5
40a
100
AcDbEntity
  8
Cut
 62
7
100
AcDbLine
 10
85.906995
 20
156.013188
 30
0.0
 11
85.459347
 21
155.846752
 31
0.0
  0
LINE
  5
40b
100
AcDbEntity
  8
Cut
 62
7
100
AcDbLine
 10
85.459347
 20
155.846752
 30
0.0
 11
85.009795
 21
155.702697
 31
0.0
  0
LINE
  5
40c
100
AcDbEntity
  8
Cut
 62
7
100
AcDbLine
 10
85.009795
 20
155.702697
 30
0.0
 11
84.784304
 21
155.640075
 31
0.0
  0
LINE
  5
40d
100
AcDbEntity
  8
Cut
 62
7
100
AcDbLine
 10
84.784304
 20
155.640075
 30
0.0
 11
84.558337
 21
155.584596
 31
0.0
  0
LINE
  5
40e
100
AcDbEntity
  8
Cut
 62
7
100
AcDbLine
 10
84.558337
 20
155.584596
 30
0.0
 11
84.445234
 21
155.560071
 31
0.0
  0
LINE
  5
40f
100
AcDbEntity
  8
Cut
 62
7
100
AcDbLine
 10
84.445234
 20
155.560071
 30
0.0
 11
84.332132
 21
155.537928
 31
0.0
  0
LINE
  5
410
100
AcDbEntity
  8
Cut
 62
7
100
AcDbLine
 10
84.332132
 20
155.537928
 30
0.0
 11
84.218791
 21
155.518641
 31
0.0
  0
LINE
  5
411
100
AcDbEntity
  8
Cut
 62
7
100
AcDbLine
 10
84.218791
 20
155.518641
 30
0.0
 11
84.105212
 21
155.502688
 31
0.0
  0
LINE
  5
412
100
AcDbEntity
  8
Cut
 62
7
100
AcDbLine
 10
84.105212
 20
155.502688
 30
0.0
 11
84.121404
 21
152.116335
 31
0.0
  0
ENDSEC
  0
SECTION
  2
OBJECTS
  0
DICTIONARY
  5
C
330
0
100
AcDbDictionary
  3
ACAD_GROUP
350
D
  3
ACAD_MLINESTYLE
350
17
  0
DICTIONARY
  5
D
330
C
100
AcDbDictionary
  0
DICTIONARY
  5
1A
330
C
100
AcDbDictionary
  0
DICTIONARY
  5
17
330
C
100
AcDbDictionary
  3
STANDARD
350
18
  0
DICTIONARY
  5
19
330
C
100
AcDbDictionary
  0
ENDSEC
  0
EOF
