  0
SECTION
  2
HEADER
  9
$ACADVER
  1
AC1014
  9
$HANDSEED
  5
FFFF
  9
$MEASUREMENT
 70
     1
  0
ENDSEC
  0
SECTION
  2
TABLES
  0
TABLE
  2
VPORT
  5
8
330
0
100
AcDbSymbolTable
 70
     4
  0
VPORT
  5
2E
330
8
100
AcDbSymbolTableRecord
100
AcDbViewportTableRecord
  2
*ACTIVE
 70
     0
 10
0.0
 20
0.0
 11
1.0
 21
1.0
 12
210.0
 22
148.5
 13
0.0
 23
0.0
 14
10.0
 24
10.0
 15
10.0
 25
10.0
 16
0.0
 26
0.0
 36
1.0
 17
0.0
 27
0.0
 37
0.0
 40
341.0
 41
1.24
 42
50.0
 43
0.0
 44
0.0
 50
0.0
 51
0.0
 71
     0
 72
   100
 73
     1
 74
     3
 75
     0
 76
     0
 77
     0
 78
     0
  0
ENDTAB
  0
TABLE
  2
LTYPE
  5
5
330
0
100
AcDbSymbolTable
 70
     1
  0
LTYPE
  5
14
330
5
100
AcDbSymbolTableRecord
100
AcDbLinetypeTableRecord
  2
BYBLOCK
 70
     0
  3

 72
    65
 73
     0
 40
0.0
  0
LTYPE
  5
15
330
5
100
AcDbSymbolTableRecord
100
AcDbLinetypeTableRecord
  2
BYLAYER
 70
     0
  3

 72
    65
 73
     0
 40
0.0
  0
LTYPE
  5
16
330
5
100
AcDbSymbolTableRecord
100
AcDbLinetypeTableRecord
  2
CONTINUOUS
 70
     0
  3
Solid line
 72
    65
 73
     0
 40
0.0
  0
ENDTAB
  0
TABLE
  2
LAYER
  5
2
100
AcDbSymbolTable
 70
2
  0
LAYER
  5
50
100
AcDbSymbolTableRecord
100
AcDbLayerTableRecord
  2
0
 70
0
  6
CONTINUOUS
  0
LAYER
  5
51
100
AcDbSymbolTableRecord
100
AcDbLayerTableRecord
  2
Layer_1
 70
0
  6
CONTINUOUS
  0
ENDTAB
  0
TABLE
  2
STYLE
  5
3
330
0
100
AcDbSymbolTable
 70
     1
  0
STYLE
  5
11
330
3
100
AcDbSymbolTableRecord
100
AcDbTextStyleTableRecord
  2
STANDARD
 70
     0
 40
0.0
 41
1.0
 50
0.0
 71
     0
 42
2.5
  3
txt
  4

  0
ENDTAB
  0
TABLE
  2
VIEW
  5
6
330
0
100
AcDbSymbolTable
 70
     0
  0
ENDTAB
  0
TABLE
  2
UCS
  5
7
330
0
100
AcDbSymbolTable
 70
     0
  0
ENDTAB
  0
TABLE
  2
APPID
  5
9
330
0
100
AcDbSymbolTable
 70
     2
  0
APPID
  5
12
330
9
100
AcDbSymbolTableRecord
100
AcDbRegAppTableRecord
  2
ACAD
 70
     0
  0
ENDTAB
  0
TABLE
  2
DIMSTYLE
  5
A
330
0
100
AcDbSymbolTable
 70
     1
  0
DIMSTYLE
105
27
330
A
100
AcDbSymbolTableRecord
100
AcDbDimStyleTableRecord
  2
ISO-25
 70
     0
  3

  4

  5

  6

  7

 40
1.0
 41
2.5
 42
0.625
 43
3.75
 44
1.25
 45
0.0
 46
0.0
 47
0.0
 48
0.0
140
2.5
141
2.5
142
0.0
143
0.03937007874016
144
1.0
145
0.0
146
1.0
147
0.625
 71
     0
 72
     0
 73
     0
 74
     0
 75
     0
 76
     0
 77
     1
 78
     8
170
     0
171
     3
172
     1
173
     0
174
     0
175
     0
176
     0
177
     0
178
     0
270
     2
271
     2
272
     2
273
     2
274
     3
340
11
275
     0
280
     0
281
     0
282
     0
283
     0
284
     8
285
     0
286
     0
287
     3
288
     0
  0
ENDTAB
  0
TABLE
  2
BLOCK_RECORD
  5
1
330
0
100
AcDbSymbolTable
 70
     1
  0
BLOCK_RECORD
  5
1F
330
1
100
AcDbSymbolTableRecord
100
AcDbBlockTableRecord
  2
*MODEL_SPACE
  0
BLOCK_RECORD
  5
1B
330
1
100
AcDbSymbolTableRecord
100
AcDbBlockTableRecord
  2
*PAPER_SPACE
  0
ENDTAB
  0
ENDSEC
  0
SECTION
  2
BLOCKS
  0
BLOCK
  5
20
330
1F
100
AcDbEntity
  8
0
100
AcDbBlockBegin
  2
*MODEL_SPACE
 70
     0
 10
0.0
 20
0.0
 30
0.0
  3
*MODEL_SPACE
  1

  0
ENDBLK
  5
21
330
1F
100
AcDbEntity
  8
0
100
AcDbBlockEnd
  0
BLOCK
  5
1C
330
1B
100
AcDbEntity
 67
     1
  8
0
100
AcDbBlockBegin
  2
*PAPER_SPACE
  1

  0
ENDBLK
  5
1D
330
1B
100
AcDbEntity
 67
     1
  8
0
100
AcDbBlockEnd
  0
ENDSEC
  0
SECTION
  2
ENTITIES
  0
LINE
  5
100
100
AcDbEntity
  8
Layer_1
 62
7
100
AcDbLine
 10
0.500000
 20
4.500000
 30
0.0
 11
5.500000
 21
4.500000
 31
0.0
  0
LINE
  5
101
100
AcDbEntity
  8
Layer_1
 62
7
100
AcDbLine
 10
5.500000
 20
4.500000
 30
0.0
 11
5.500000
 21
0.500000
 31
0.0
  0
LINE
  5
102
100
AcDbEntity
  8
Layer_1
 62
7
100
AcDbLine
 10
5.500000
 20
0.500000
 30
0.0
 11
0.500000
 21
0.500000
 31
0.0
  0
LINE
  5
103
100
AcDbEntity
  8
Layer_1
 62
7
100
AcDbLine
 10
0.500000
 20
0.500000
 30
0.0
 11
0.500000
 21
4.500000
 31
0.0
  0
SPLINE
  5
104
100
AcDbEntity
  8
Layer_1
 62
7
100
AcDbSpline
 70
8
 71
3
 72
8
 73
4
 74
0
 40
0
 40
0
 40
0
 40
0
 40
1
 40
1
 40
1
 40
1
 10
1.553665
 20
3.703784
 30
0.0
 10
1.553665
 20
3.637613
 30
0.0
 10
1.527379
 20
3.574152
 30
0.0
 10
1.480589
 20
3.527362
 30
0.0
  0
SPLINE
  5
105
100
AcDbEntity
  8
Layer_1
 62
7
100
AcDbSpline
 70
8
 71
3
 72
8
 73
4
 74
0
 40
0
 40
0
 40
0
 40
0
 40
1
 40
1
 40
1
 40
1
 10
1.480589
 20
3.527362
 30
0.0
 10
1.433799
 20
3.480572
 30
0.0
 10
1.370338
 20
3.454286
 30
0.0
 10
1.304167
 20
3.454286
 30
0.0
  0
SPLINE
  5
106
100
AcDbEntity
  8
Layer_1
 62
7
100
AcDbSpline
 70
8
 71
3
 72
8
 73
4
 74
0
 40
0
 40
0
 40
0
 40
0
 40
1
 40
1
 40
1
 40
1
 10
1.304167
 20
3.454286
 30
0.0
 10
1.166373
 20
3.454286
 30
0.0
 10
1.054669
 20
3.565990
 30
0.0
 10
1.054669
 20
3.703784
 30
0.0
  0
SPLINE
  5
107
100
AcDbEntity
  8
Layer_1
 62
7
100
AcDbSpline
 70
8
 71
3
 72
8
 73
4
 74
0
 40
0
 40
0
 40
0
 40
0
 40
1
 40
1
 40
1
 40
1
 10
1.054669
 20
3.703784
 30
0.0
 10
1.054669
 20
3.841578
 30
0.0
 10
1.166373
 20
3.953282
 30
0.0
 10
1.304167
 20
3.953282
 30
0.0
  0
SPLINE
  5
108
100
AcDbEntity
  8
Layer_1
 62
7
100
AcDbSpline
 70
8
 71
3
 72
8
 73
4
 74
0
 40
0
 40
0
 40
0
 40
0
 40
1
 40
1
 40
1
 40
1
 10
1.304167
 20
3.953282
 30
0.0
 10
1.370338
 20
3.953282
 30
0.0
 10
1.433799
 20
3.926996
 30
0.0
 10
1.480589
 20
3.880206
 30
0.0
  0
SPLINE
  5
109
100
AcDbEntity
  8
Layer_1
 62
7
100
AcDbSpline
 70
8
 71
3
 72
8
 73
4
 74
0
 40
0
 40
0
 40
0
 40
0
 40
1
 40
1
 40
1
 40
1
 10
1.480589
 20
3.880206
 30
0.0
 10
1.527379
 20
3.833416
 30
0.0
 10
1.553665
 20
3.769955
 30
0.0
 10
1.553665
 20
3.703784
 30
0.0
  0
LINE
  5
10a
100
AcDbEntity
  8
Layer_1
 62
7
100
AcDbLine
 10
1.553665
 20
3.703784
 30
0.0
 11
1.553665
 21
3.703784
 31
0.0
  0
SPLINE
  5
10b
100
AcDbEntity
  8
Layer_1
 62
7
100
AcDbSpline
 70
8
 71
3
 72
8
 73
4
 74
0
 40
0
 40
0
 40
0
 40
0
 40
1
 40
1
 40
1
 40
1
 10
2.231998
 20
3.703784
 30
0.0
 10
2.231998
 20
3.637613
 30
0.0
 10
2.205712
 20
3.574152
 30
0.0
 10
2.158922
 20
3.527362
 30
0.0
  0
SPLINE
  5
10c
100
AcDbEntity
  8
Layer_1
 62
7
100
AcDbSpline
 70
8
 71
3
 72
8
 73
4
 74
0
 40
0
 40
0
 40
0
 40
0
 40
1
 40
1
 40
1
 40
1
 10
2.158922
 20
3.527362
 30
0.0
 10
2.112132
 20
3.480572
 30
0.0
 10
2.048671
 20
3.454286
 30
0.0
 10
1.982500
 20
3.454286
 30
0.0
  0
SPLINE
  5
10d
100
AcDbEntity
  8
Layer_1
 62
7
100
AcDbSpline
 70
8
 71
3
 72
8
 73
4
 74
0
 40
0
 40
0
 40
0
 40
0
 40
1
 40
1
 40
1
 40
1
 10
1.982500
 20
3.454286
 30
0.0
 10
1.844706
 20
3.454286
 30
0.0
 10
1.733002
 20
3.565990
 30
0.0
 10
1.733002
 20
3.703784
 30
0.0
  0
SPLINE
  5
10e
100
AcDbEntity
  8
Layer_1
 62
7
100
AcDbSpline
 70
8
 71
3
 72
8
 73
4
 74
0
 40
0
 40
0
 40
0
 40
0
 40
1
 40
1
 40
1
 40
1
 10
1.733002
 20
3.703784
 30
0.0
 10
1.733002
 20
3.841578
 30
0.0
 10
1.844706
 20
3.953282
 30
0.0
 10
1.982500
 20
3.953282
 30
0.0
  0
SPLINE
  5
10f
100
AcDbEntity
  8
Layer_1
 62
7
100
AcDbSpline
 70
8
 71
3
 72
8
 73
4
 74
0
 40
0
 40
0
 40
0
 40
0
 40
1
 40
1
 40
1
 40
1
 10
1.982500
 20
3.953282
 30
0.0
 10
2.048671
 20
3.953282
 30
0.0
 10
2.112132
 20
3.926996
 30
0.0
 10
2.158922
 20
3.880206
 30
0.0
  0
SPLINE
  5
110
100
AcDbEntity
  8
Layer_1
 62
7
100
AcDbSpline
 70
8
 71
3
 72
8
 73
4
 74
0
 40
0
 40
0
 40
0
 40
0
 40
1
 40
1
 40
1
 40
1
 10
2.158922
 20
3.880206
 30
0.0
 10
2.205712
 20
3.833416
 30
0.0
 10
2.231998
 20
3.769955
 30
0.0
 10
2.231998
 20
3.703784
 30
0.0
  0
LINE
  5
111
100
AcDbEntity
  8
Layer_1
 62
7
100
AcDbLine
 10
2.231998
 20
3.703784
 30
0.0
 11
2.231998
 21
3.703784
 31
0.0
  0
SPLINE
  5
112
100
AcDbEntity
  8
Layer_1
 62
7
100
AcDbSpline
 70
8
 71
3
 72
8
 73
4
 74
0
 40
0
 40
0
 40
0
 40
0
 40
1
 40
1
 40
1
 40
1
 10
2.910331
 20
3.703784
 30
0.0
 10
2.910331
 20
3.565990
 30
0.0
 10
2.798627
 20
3.454286
 30
0.0
 10
2.660833
 20
3.454286
 30
0.0
  0
SPLINE
  5
113
100
AcDbEntity
  8
Layer_1
 62
7
100
AcDbSpline
 70
8
 71
3
 72
8
 73
4
 74
0
 40
0
 40
0
 40
0
 40
0
 40
1
 40
1
 40
1
 40
1
 10
2.660833
 20
3.454286
 30
0.0
 10
2.523039
 20
3.454286
 30
0.0
 10
2.411335
 20
3.565990
 30
0.0
 10
2.411335
 20
3.703784
 30
0.0
  0
SPLINE
  5
114
100
AcDbEntity
  8
Layer_1
 62
7
100
AcDbSpline
 70
8
 71
3
 72
8
 73
4
 74
0
 40
0
 40
0
 40
0
 40
0
 40
1
 40
1
 40
1
 40
1
 10
2.411335
 20
3.703784
 30
0.0
 10
2.411335
 20
3.841578
 30
0.0
 10
2.523039
 20
3.953282
 30
0.0
 10
2.660833
 20
3.953282
 30
0.0
  0
SPLINE
  5
115
100
AcDbEntity
  8
Layer_1
 62
7
100
AcDbSpline
 70
8
 71
3
 72
8
 73
4
 74
0
 40
0
 40
0
 40
0
 40
0
 40
1
 40
1
 40
1
 40
1
 10
2.660833
 20
3.953282
 30
0.0
 10
2.798627
 20
3.953282
 30
0.0
 10
2.910331
 20
3.841578
 30
0.0
 10
2.910331
 20
3.703784
 30
0.0
  0
LINE
  5
116
100
AcDbEntity
  8
Layer_1
 62
7
100
AcDbLine
 10
2.910331
 20
3.703784
 30
0.0
 11
2.910331
 21
3.703784
 31
0.0
  0
SPLINE
  5
117
100
AcDbEntity
  8
Layer_1
 62
7
100
AcDbSpline
 70
8
 71
3
 72
8
 73
4
 74
0
 40
0
 40
0
 40
0
 40
0
 40
1
 40
1
 40
1
 40
1
 10
3.588665
 20
3.703784
 30
0.0
 10
3.588665
 20
3.565990
 30
0.0
 10
3.476961
 20
3.454286
 30
0.0
 10
3.339167
 20
3.454286
 30
0.0
  0
SPLINE
  5
118
100
AcDbEntity
  8
Layer_1
 62
7
100
AcDbSpline
 70
8
 71
3
 72
8
 73
4
 74
0
 40
0
 40
0
 40
0
 40
0
 40
1
 40
1
 40
1
 40
1
 10
3.339167
 20
3.454286
 30
0.0
 10
3.201373
 20
3.454286
 30
0.0
 10
3.089669
 20
3.565990
 30
0.0
 10
3.089669
 20
3.703784
 30
0.0
  0
SPLINE
  5
119
100
AcDbEntity
  8
Layer_1
 62
7
100
AcDbSpline
 70
8
 71
3
 72
8
 73
4
 74
0
 40
0
 40
0
 40
0
 40
0
 40
1
 40
1
 40
1
 40
1
 10
3.089669
 20
3.703784
 30
0.0
 10
3.089669
 20
3.841578
 30
0.0
 10
3.201373
 20
3.953282
 30
0.0
 10
3.339167
 20
3.953282
 30
0.0
  0
SPLINE
  5
11a
100
AcDbEntity
  8
Layer_1
 62
7
100
AcDbSpline
 70
8
 71
3
 72
8
 73
4
 74
0
 40
0
 40
0
 40
0
 40
0
 40
1
 40
1
 40
1
 40
1
 10
3.339167
 20
3.953282
 30
0.0
 10
3.476961
 20
3.953282
 30
0.0
 10
3.588665
 20
3.841578
 30
0.0
 10
3.588665
 20
3.703784
 30
0.0
  0
LINE
  5
11b
100
AcDbEntity
  8
Layer_1
 62
7
100
AcDbLine
 10
3.588665
 20
3.703784
 30
0.0
 11
3.588665
 21
3.703784
 31
0.0
  0
SPLINE
  5
11c
100
AcDbEntity
  8
Layer_1
 62
7
100
AcDbSpline
 70
8
 71
3
 72
8
 73
4
 74
0
 40
0
 40
0
 40
0
 40
0
 40
1
 40
1
 40
1
 40
1
 10
4.266998
 20
3.703784
 30
0.0
 10
4.266998
 20
3.637613
 30
0.0
 10
4.240712
 20
3.574152
 30
0.0
 10
4.193922
 20
3.527362
 30
0.0
  0
SPLINE
  5
11d
100
AcDbEntity
  8
Layer_1
 62
7
100
AcDbSpline
 70
8
 71
3
 72
8
 73
4
 74
0
 40
0
 40
0
 40
0
 40
0
 40
1
 40
1
 40
1
 40
1
 10
4.193922
 20
3.527362
 30
0.0
 10
4.147132
 20
3.480572
 30
0.0
 10
4.083671
 20
3.454286
 30
0.0
 10
4.017500
 20
3.454286
 30
0.0
  0
SPLINE
  5
11e
100
AcDbEntity
  8
Layer_1
 62
7
100
AcDbSpline
 70
8
 71
3
 72
8
 73
4
 74
0
 40
0
 40
0
 40
0
 40
0
 40
1
 40
1
 40
1
 40
1
 10
4.017500
 20
3.454286
 30
0.0
 10
3.879706
 20
3.454286
 30
0.0
 10
3.768002
 20
3.565990
 30
0.0
 10
3.768002
 20
3.703784
 30
0.0
  0
SPLINE
  5
11f
100
AcDbEntity
  8
Layer_1
 62
7
100
AcDbSpline
 70
8
 71
3
 72
8
 73
4
 74
0
 40
0
 40
0
 40
0
 40
0
 40
1
 40
1
 40
1
 40
1
 10
3.768002
 20
3.703784
 30
0.0
 10
3.768002
 20
3.841578
 30
0.0
 10
3.879706
 20
3.953282
 30
0.0
 10
4.017500
 20
3.953282
 30
0.0
  0
SPLINE
  5
120
100
AcDbEntity
  8
Layer_1
 62
7
100
AcDbSpline
 70
8
 71
3
 72
8
 73
4
 74
0
 40
0
 40
0
 40
0
 40
0
 40
1
 40
1
 40
1
 40
1
 10
4.017500
 20
3.953282
 30
0.0
 10
4.083671
 20
3.953282
 30
0.0
 10
4.147132
 20
3.926996
 30
0.0
 10
4.193922
 20
3.880206
 30
0.0
  0
SPLINE
  5
121
100
AcDbEntity
  8
Layer_1
 62
7
100
AcDbSpline
 70
8
 71
3
 72
8
 73
4
 74
0
 40
0
 40
0
 40
0
 40
0
 40
1
 40
1
 40
1
 40
1
 10
4.193922
 20
3.880206
 30
0.0
 10
4.240712
 20
3.833416
 30
0.0
 10
4.266998
 20
3.769955
 30
0.0
 10
4.266998
 20
3.703784
 30
0.0
  0
LINE
  5
122
100
AcDbEntity
  8
Layer_1
 62
7
100
AcDbLine
 10
4.266998
 20
3.703784
 30
0.0
 11
4.266998
 21
3.703784
 31
0.0
  0
SPLINE
  5
123
100
AcDbEntity
  8
Layer_1
 62
7
100
AcDbSpline
 70
8
 71
3
 72
8
 73
4
 74
0
 40
0
 40
0
 40
0
 40
0
 40
1
 40
1
 40
1
 40
1
 10
4.945331
 20
3.703784
 30
0.0
 10
4.945331
 20
3.565990
 30
0.0
 10
4.833627
 20
3.454286
 30
0.0
 10
4.695833
 20
3.454286
 30
0.0
  0
SPLINE
  5
124
100
AcDbEntity
  8
Layer_1
 62
7
100
AcDbSpline
 70
8
 71
3
 72
8
 73
4
 74
0
 40
0
 40
0
 40
0
 40
0
 40
1
 40
1
 40
1
 40
1
 10
4.695833
 20
3.454286
 30
0.0
 10
4.558039
 20
3.454286
 30
0.0
 10
4.446335
 20
3.565990
 30
0.0
 10
4.446335
 20
3.703784
 30
0.0
  0
SPLINE
  5
125
100
AcDbEntity
  8
Layer_1
 62
7
100
AcDbSpline
 70
8
 71
3
 72
8
 73
4
 74
0
 40
0
 40
0
 40
0
 40
0
 40
1
 40
1
 40
1
 40
1
 10
4.446335
 20
3.703784
 30
0.0
 10
4.446335
 20
3.841578
 30
0.0
 10
4.558039
 20
3.953282
 30
0.0
 10
4.695833
 20
3.953282
 30
0.0
  0
SPLINE
  5
126
100
AcDbEntity
  8
Layer_1
 62
7
100
AcDbSpline
 70
8
 71
3
 72
8
 73
4
 74
0
 40
0
 40
0
 40
0
 40
0
 40
1
 40
1
 40
1
 40
1
 10
4.695833
 20
3.953282
 30
0.0
 10
4.833627
 20
3.953282
 30
0.0
 10
4.945331
 20
3.841578
 30
0.0
 10
4.945331
 20
3.703784
 30
0.0
  0
LINE
  5
127
100
AcDbEntity
  8
Layer_1
 62
7
100
AcDbLine
 10
4.945331
 20
3.703784
 30
0.0
 11
4.945331
 21
3.703784
 31
0.0
  0
SPLINE
  5
128
100
AcDbEntity
  8
Layer_1
 62
7
100
AcDbSpline
 70
8
 71
3
 72
8
 73
4
 74
0
 40
0
 40
0
 40
0
 40
0
 40
1
 40
1
 40
1
 40
1
 10
1.553665
 20
3.025503
 30
0.0
 10
1.553665
 20
2.959332
 30
0.0
 10
1.527379
 20
2.895871
 30
0.0
 10
1.480589
 20
2.849081
 30
0.0
  0
SPLINE
  5
129
100
AcDbEntity
  8
Layer_1
 62
7
100
AcDbSpline
 70
8
 71
3
 72
8
 73
4
 74
0
 40
0
 40
0
 40
0
 40
0
 40
1
 40
1
 40
1
 40
1
 10
1.480589
 20
2.849081
 30
0.0
 10
1.433799
 20
2.802291
 30
0.0
 10
1.370338
 20
2.776005
 30
0.0
 10
1.304167
 20
2.776005
 30
0.0
  0
SPLINE
  5
12a
100
AcDbEntity
  8
Layer_1
 62
7
100
AcDbSpline
 70
8
 71
3
 72
8
 73
4
 74
0
 40
0
 40
0
 40
0
 40
0
 40
1
 40
1
 40
1
 40
1
 10
1.304167
 20
2.776005
 30
0.0
 10
1.166373
 20
2.776005
 30
0.0
 10
1.054669
 20
2.887709
 30
0.0
 10
1.054669
 20
3.025503
 30
0.0
  0
SPLINE
  5
12b
100
AcDbEntity
  8
Layer_1
 62
7
100
AcDbSpline
 70
8
 71
3
 72
8
 73
4
 74
0
 40
0
 40
0
 40
0
 40
0
 40
1
 40
1
 40
1
 40
1
 10
1.054669
 20
3.025503
 30
0.0
 10
1.054669
 20
3.163297
 30
0.0
 10
1.166373
 20
3.275001
 30
0.0
 10
1.304167
 20
3.275002
 30
0.0
  0
SPLINE
  5
12c
100
AcDbEntity
  8
Layer_1
 62
7
100
AcDbSpline
 70
8
 71
3
 72
8
 73
4
 74
0
 40
0
 40
0
 40
0
 40
0
 40
1
 40
1
 40
1
 40
1
 10
1.304167
 20
3.275002
 30
0.0
 10
1.370338
 20
3.275002
 30
0.0
 10
1.433799
 20
3.248715
 30
0.0
 10
1.480589
 20
3.201925
 30
0.0
  0
SPLINE
  5
12d
100
AcDbEntity
  8
Layer_1
 62
7
100
AcDbSpline
 70
8
 71
3
 72
8
 73
4
 74
0
 40
0
 40
0
 40
0
 40
0
 40
1
 40
1
 40
1
 40
1
 10
1.480589
 20
3.201925
 30
0.0
 10
1.527379
 20
3.155135
 30
0.0
 10
1.553665
 20
3.091674
 30
0.0
 10
1.553665
 20
3.025503
 30
0.0
  0
LINE
  5
12e
100
AcDbEntity
  8
Layer_1
 62
7
100
AcDbLine
 10
1.553665
 20
3.025503
 30
0.0
 11
1.553665
 21
3.025503
 31
0.0
  0
SPLINE
  5
12f
100
AcDbEntity
  8
Layer_1
 62
7
100
AcDbSpline
 70
8
 71
3
 72
8
 73
4
 74
0
 40
0
 40
0
 40
0
 40
0
 40
1
 40
1
 40
1
 40
1
 10
2.231998
 20
3.025503
 30
0.0
 10
2.231998
 20
2.959332
 30
0.0
 10
2.205712
 20
2.895871
 30
0.0
 10
2.158922
 20
2.849081
 30
0.0
  0
SPLINE
  5
130
100
AcDbEntity
  8
Layer_1
 62
7
100
AcDbSpline
 70
8
 71
3
 72
8
 73
4
 74
0
 40
0
 40
0
 40
0
 40
0
 40
1
 40
1
 40
1
 40
1
 10
2.158922
 20
2.849081
 30
0.0
 10
2.112132
 20
2.802291
 30
0.0
 10
2.048671
 20
2.776005
 30
0.0
 10
1.982500
 20
2.776005
 30
0.0
  0
SPLINE
  5
131
100
AcDbEntity
  8
Layer_1
 62
7
100
AcDbSpline
 70
8
 71
3
 72
8
 73
4
 74
0
 40
0
 40
0
 40
0
 40
0
 40
1
 40
1
 40
1
 40
1
 10
1.982500
 20
2.776005
 30
0.0
 10
1.844706
 20
2.776005
 30
0.0
 10
1.733002
 20
2.887709
 30
0.0
 10
1.733002
 20
3.025503
 30
0.0
  0
SPLINE
  5
132
100
AcDbEntity
  8
Layer_1
 62
7
100
AcDbSpline
 70
8
 71
3
 72
8
 73
4
 74
0
 40
0
 40
0
 40
0
 40
0
 40
1
 40
1
 40
1
 40
1
 10
1.733002
 20
3.025503
 30
0.0
 10
1.733002
 20
3.163297
 30
0.0
 10
1.844706
 20
3.275001
 30
0.0
 10
1.982500
 20
3.275002
 30
0.0
  0
SPLINE
  5
133
100
AcDbEntity
  8
Layer_1
 62
7
100
AcDbSpline
 70
8
 71
3
 72
8
 73
4
 74
0
 40
0
 40
0
 40
0
 40
0
 40
1
 40
1
 40
1
 40
1
 10
1.982500
 20
3.275002
 30
0.0
 10
2.048671
 20
3.275002
 30
0.0
 10
2.112132
 20
3.248715
 30
0.0
 10
2.158922
 20
3.201925
 30
0.0
  0
SPLINE
  5
134
100
AcDbEntity
  8
Layer_1
 62
7
100
AcDbSpline
 70
8
 71
3
 72
8
 73
4
 74
0
 40
0
 40
0
 40
0
 40
0
 40
1
 40
1
 40
1
 40
1
 10
2.158922
 20
3.201925
 30
0.0
 10
2.205712
 20
3.155135
 30
0.0
 10
2.231998
 20
3.091674
 30
0.0
 10
2.231998
 20
3.025503
 30
0.0
  0
LINE
  5
135
100
AcDbEntity
  8
Layer_1
 62
7
100
AcDbLine
 10
2.231998
 20
3.025503
 30
0.0
 11
2.231998
 21
3.025503
 31
0.0
  0
SPLINE
  5
136
100
AcDbEntity
  8
Layer_1
 62
7
100
AcDbSpline
 70
8
 71
3
 72
8
 73
4
 74
0
 40
0
 40
0
 40
0
 40
0
 40
1
 40
1
 40
1
 40
1
 10
2.910331
 20
3.025503
 30
0.0
 10
2.910331
 20
2.887709
 30
0.0
 10
2.798627
 20
2.776005
 30
0.0
 10
2.660833
 20
2.776005
 30
0.0
  0
SPLINE
  5
137
100
AcDbEntity
  8
Layer_1
 62
7
100
AcDbSpline
 70
8
 71
3
 72
8
 73
4
 74
0
 40
0
 40
0
 40
0
 40
0
 40
1
 40
1
 40
1
 40
1
 10
2.660833
 20
2.776005
 30
0.0
 10
2.523039
 20
2.776005
 30
0.0
 10
2.411335
 20
2.887709
 30
0.0
 10
2.411335
 20
3.025503
 30
0.0
  0
SPLINE
  5
138
100
AcDbEntity
  8
Layer_1
 62
7
100
AcDbSpline
 70
8
 71
3
 72
8
 73
4
 74
0
 40
0
 40
0
 40
0
 40
0
 40
1
 40
1
 40
1
 40
1
 10
2.411335
 20
3.025503
 30
0.0
 10
2.411335
 20
3.163297
 30
0.0
 10
2.523039
 20
3.275001
 30
0.0
 10
2.660833
 20
3.275002
 30
0.0
  0
SPLINE
  5
139
100
AcDbEntity
  8
Layer_1
 62
7
100
AcDbSpline
 70
8
 71
3
 72
8
 73
4
 74
0
 40
0
 40
0
 40
0
 40
0
 40
1
 40
1
 40
1
 40
1
 10
2.660833
 20
3.275002
 30
0.0
 10
2.798627
 20
3.275001
 30
0.0
 10
2.910331
 20
3.163297
 30
0.0
 10
2.910331
 20
3.025503
 30
0.0
  0
LINE
  5
13a
100
AcDbEntity
  8
Layer_1
 62
7
100
AcDbLine
 10
2.910331
 20
3.025503
 30
0.0
 11
2.910331
 21
3.025503
 31
0.0
  0
SPLINE
  5
13b
100
AcDbEntity
  8
Layer_1
 62
7
100
AcDbSpline
 70
8
 71
3
 72
8
 73
4
 74
0
 40
0
 40
0
 40
0
 40
0
 40
1
 40
1
 40
1
 40
1
 10
3.588665
 20
3.025503
 30
0.0
 10
3.588665
 20
2.887709
 30
0.0
 10
3.476961
 20
2.776005
 30
0.0
 10
3.339167
 20
2.776005
 30
0.0
  0
SPLINE
  5
13c
100
AcDbEntity
  8
Layer_1
 62
7
100
AcDbSpline
 70
8
 71
3
 72
8
 73
4
 74
0
 40
0
 40
0
 40
0
 40
0
 40
1
 40
1
 40
1
 40
1
 10
3.339167
 20
2.776005
 30
0.0
 10
3.201373
 20
2.776005
 30
0.0
 10
3.089669
 20
2.887709
 30
0.0
 10
3.089669
 20
3.025503
 30
0.0
  0
SPLINE
  5
13d
100
AcDbEntity
  8
Layer_1
 62
7
100
AcDbSpline
 70
8
 71
3
 72
8
 73
4
 74
0
 40
0
 40
0
 40
0
 40
0
 40
1
 40
1
 40
1
 40
1
 10
3.089669
 20
3.025503
 30
0.0
 10
3.089669
 20
3.163297
 30
0.0
 10
3.201373
 20
3.275001
 30
0.0
 10
3.339167
 20
3.275002
 30
0.0
  0
SPLINE
  5
13e
100
AcDbEntity
  8
Layer_1
 62
7
100
AcDbSpline
 70
8
 71
3
 72
8
 73
4
 74
0
 40
0
 40
0
 40
0
 40
0
 40
1
 40
1
 40
1
 40
1
 10
3.339167
 20
3.275002
 30
0.0
 10
3.476961
 20
3.275001
 30
0.0
 10
3.588665
 20
3.163297
 30
0.0
 10
3.588665
 20
3.025503
 30
0.0
  0
LINE
  5
13f
100
AcDbEntity
  8
Layer_1
 62
7
100
AcDbLine
 10
3.588665
 20
3.025503
 30
0.0
 11
3.588665
 21
3.025503
 31
0.0
  0
SPLINE
  5
140
100
AcDbEntity
  8
Layer_1
 62
7
100
AcDbSpline
 70
8
 71
3
 72
8
 73
4
 74
0
 40
0
 40
0
 40
0
 40
0
 40
1
 40
1
 40
1
 40
1
 10
4.266998
 20
3.025503
 30
0.0
 10
4.266998
 20
2.959332
 30
0.0
 10
4.240712
 20
2.895871
 30
0.0
 10
4.193922
 20
2.849081
 30
0.0
  0
SPLINE
  5
141
100
AcDbEntity
  8
Layer_1
 62
7
100
AcDbSpline
 70
8
 71
3
 72
8
 73
4
 74
0
 40
0
 40
0
 40
0
 40
0
 40
1
 40
1
 40
1
 40
1
 10
4.193922
 20
2.849081
 30
0.0
 10
4.147132
 20
2.802291
 30
0.0
 10
4.083671
 20
2.776005
 30
0.0
 10
4.017500
 20
2.776005
 30
0.0
  0
SPLINE
  5
142
100
AcDbEntity
  8
Layer_1
 62
7
100
AcDbSpline
 70
8
 71
3
 72
8
 73
4
 74
0
 40
0
 40
0
 40
0
 40
0
 40
1
 40
1
 40
1
 40
1
 10
4.017500
 20
2.776005
 30
0.0
 10
3.879706
 20
2.776005
 30
0.0
 10
3.768002
 20
2.887709
 30
0.0
 10
3.768002
 20
3.025503
 30
0.0
  0
SPLINE
  5
143
100
AcDbEntity
  8
Layer_1
 62
7
100
AcDbSpline
 70
8
 71
3
 72
8
 73
4
 74
0
 40
0
 40
0
 40
0
 40
0
 40
1
 40
1
 40
1
 40
1
 10
3.768002
 20
3.025503
 30
0.0
 10
3.768002
 20
3.163297
 30
0.0
 10
3.879706
 20
3.275001
 30
0.0
 10
4.017500
 20
3.275002
 30
0.0
  0
SPLINE
  5
144
100
AcDbEntity
  8
Layer_1
 62
7
100
AcDbSpline
 70
8
 71
3
 72
8
 73
4
 74
0
 40
0
 40
0
 40
0
 40
0
 40
1
 40
1
 40
1
 40
1
 10
4.017500
 20
3.275002
 30
0.0
 10
4.083671
 20
3.275002
 30
0.0
 10
4.147132
 20
3.248715
 30
0.0
 10
4.193922
 20
3.201925
 30
0.0
  0
SPLINE
  5
145
100
AcDbEntity
  8
Layer_1
 62
7
100
AcDbSpline
 70
8
 71
3
 72
8
 73
4
 74
0
 40
0
 40
0
 40
0
 40
0
 40
1
 40
1
 40
1
 40
1
 10
4.193922
 20
3.201925
 30
0.0
 10
4.240712
 20
3.155135
 30
0.0
 10
4.266998
 20
3.091674
 30
0.0
 10
4.266998
 20
3.025503
 30
0.0
  0
LINE
  5
146
100
AcDbEntity
  8
Layer_1
 62
7
100
AcDbLine
 10
4.266998
 20
3.025503
 30
0.0
 11
4.266998
 21
3.025503
 31
0.0
  0
SPLINE
  5
147
100
AcDbEntity
  8
Layer_1
 62
7
100
AcDbSpline
 70
8
 71
3
 72
8
 73
4
 74
0
 40
0
 40
0
 40
0
 40
0
 40
1
 40
1
 40
1
 40
1
 10
4.945331
 20
3.025503
 30
0.0
 10
4.945331
 20
2.887709
 30
0.0
 10
4.833627
 20
2.776005
 30
0.0
 10
4.695833
 20
2.776005
 30
0.0
  0
SPLINE
  5
148
100
AcDbEntity
  8
Layer_1
 62
7
100
AcDbSpline
 70
8
 71
3
 72
8
 73
4
 74
0
 40
0
 40
0
 40
0
 40
0
 40
1
 40
1
 40
1
 40
1
 10
4.695833
 20
2.776005
 30
0.0
 10
4.558039
 20
2.776005
 30
0.0
 10
4.446335
 20
2.887709
 30
0.0
 10
4.446335
 20
3.025503
 30
0.0
  0
SPLINE
  5
149
100
AcDbEntity
  8
Layer_1
 62
7
100
AcDbSpline
 70
8
 71
3
 72
8
 73
4
 74
0
 40
0
 40
0
 40
0
 40
0
 40
1
 40
1
 40
1
 40
1
 10
4.446335
 20
3.025503
 30
0.0
 10
4.446335
 20
3.163297
 30
0.0
 10
4.558039
 20
3.275001
 30
0.0
 10
4.695833
 20
3.275002
 30
0.0
  0
SPLINE
  5
14a
100
AcDbEntity
  8
Layer_1
 62
7
100
AcDbSpline
 70
8
 71
3
 72
8
 73
4
 74
0
 40
0
 40
0
 40
0
 40
0
 40
1
 40
1
 40
1
 40
1
 10
4.695833
 20
3.275002
 30
0.0
 10
4.833627
 20
3.275001
 30
0.0
 10
4.945331
 20
3.163297
 30
0.0
 10
4.945331
 20
3.025503
 30
0.0
  0
LINE
  5
14b
100
AcDbEntity
  8
Layer_1
 62
7
100
AcDbLine
 10
4.945331
 20
3.025503
 30
0.0
 11
4.945331
 21
3.025503
 31
0.0
  0
SPLINE
  5
14c
100
AcDbEntity
  8
Layer_1
 62
7
100
AcDbSpline
 70
8
 71
3
 72
8
 73
4
 74
0
 40
0
 40
0
 40
0
 40
0
 40
1
 40
1
 40
1
 40
1
 10
1.553665
 20
2.347222
 30
0.0
 10
1.553665
 20
2.281051
 30
0.0
 10
1.527379
 20
2.217590
 30
0.0
 10
1.480589
 20
2.170801
 30
0.0
  0
SPLINE
  5
14d
100
AcDbEntity
  8
Layer_1
 62
7
100
AcDbSpline
 70
8
 71
3
 72
8
 73
4
 74
0
 40
0
 40
0
 40
0
 40
0
 40
1
 40
1
 40
1
 40
1
 10
1.480589
 20
2.170801
 30
0.0
 10
1.433799
 20
2.124011
 30
0.0
 10
1.370338
 20
2.097724
 30
0.0
 10
1.304167
 20
2.097724
 30
0.0
  0
SPLINE
  5
14e
100
AcDbEntity
  8
Layer_1
 62
7
100
AcDbSpline
 70
8
 71
3
 72
8
 73
4
 74
0
 40
0
 40
0
 40
0
 40
0
 40
1
 40
1
 40
1
 40
1
 10
1.304167
 20
2.097724
 30
0.0
 10
1.166373
 20
2.097724
 30
0.0
 10
1.054669
 20
2.209428
 30
0.0
 10
1.054669
 20
2.347222
 30
0.0
  0
SPLINE
  5
14f
100
AcDbEntity
  8
Layer_1
 62
7
100
AcDbSpline
 70
8
 71
3
 72
8
 73
4
 74
0
 40
0
 40
0
 40
0
 40
0
 40
1
 40
1
 40
1
 40
1
 10
1.054669
 20
2.347222
 30
0.0
 10
1.054669
 20
2.485016
 30
0.0
 10
1.166373
 20
2.596721
 30
0.0
 10
1.304167
 20
2.596721
 30
0.0
  0
SPLINE
  5
150
100
AcDbEntity
  8
Layer_1
 62
7
100
AcDbSpline
 70
8
 71
3
 72
8
 73
4
 74
0
 40
0
 40
0
 40
0
 40
0
 40
1
 40
1
 40
1
 40
1
 10
1.304167
 20
2.596721
 30
0.0
 10
1.370338
 20
2.596721
 30
0.0
 10
1.433799
 20
2.570434
 30
0.0
 10
1.480589
 20
2.523644
 30
0.0
  0
SPLINE
  5
151
100
AcDbEntity
  8
Layer_1
 62
7
100
AcDbSpline
 70
8
 71
3
 72
8
 73
4
 74
0
 40
0
 40
0
 40
0
 40
0
 40
1
 40
1
 40
1
 40
1
 10
1.480589
 20
2.523644
 30
0.0
 10
1.527379
 20
2.476854
 30
0.0
 10
1.553665
 20
2.413394
 30
0.0
 10
1.553665
 20
2.347222
 30
0.0
  0
LINE
  5
152
100
AcDbEntity
  8
Layer_1
 62
7
100
AcDbLine
 10
1.553665
 20
2.347222
 30
0.0
 11
1.553665
 21
2.347222
 31
0.0
  0
SPLINE
  5
153
100
AcDbEntity
  8
Layer_1
 62
7
100
AcDbSpline
 70
8
 71
3
 72
8
 73
4
 74
0
 40
0
 40
0
 40
0
 40
0
 40
1
 40
1
 40
1
 40
1
 10
2.231998
 20
2.347222
 30
0.0
 10
2.231998
 20
2.281051
 30
0.0
 10
2.205712
 20
2.217590
 30
0.0
 10
2.158922
 20
2.170801
 30
0.0
  0
SPLINE
  5
154
100
AcDbEntity
  8
Layer_1
 62
7
100
AcDbSpline
 70
8
 71
3
 72
8
 73
4
 74
0
 40
0
 40
0
 40
0
 40
0
 40
1
 40
1
 40
1
 40
1
 10
2.158922
 20
2.170801
 30
0.0
 10
2.112132
 20
2.124011
 30
0.0
 10
2.048671
 20
2.097724
 30
0.0
 10
1.982500
 20
2.097724
 30
0.0
  0
SPLINE
  5
155
100
AcDbEntity
  8
Layer_1
 62
7
100
AcDbSpline
 70
8
 71
3
 72
8
 73
4
 74
0
 40
0
 40
0
 40
0
 40
0
 40
1
 40
1
 40
1
 40
1
 10
1.982500
 20
2.097724
 30
0.0
 10
1.844706
 20
2.097724
 30
0.0
 10
1.733002
 20
2.209428
 30
0.0
 10
1.733002
 20
2.347222
 30
0.0
  0
SPLINE
  5
156
100
AcDbEntity
  8
Layer_1
 62
7
100
AcDbSpline
 70
8
 71
3
 72
8
 73
4
 74
0
 40
0
 40
0
 40
0
 40
0
 40
1
 40
1
 40
1
 40
1
 10
1.733002
 20
2.347222
 30
0.0
 10
1.733002
 20
2.485016
 30
0.0
 10
1.844706
 20
2.596721
 30
0.0
 10
1.982500
 20
2.596721
 30
0.0
  0
SPLINE
  5
157
100
AcDbEntity
  8
Layer_1
 62
7
100
AcDbSpline
 70
8
 71
3
 72
8
 73
4
 74
0
 40
0
 40
0
 40
0
 40
0
 40
1
 40
1
 40
1
 40
1
 10
1.982500
 20
2.596721
 30
0.0
 10
2.048671
 20
2.596721
 30
0.0
 10
2.112132
 20
2.570434
 30
0.0
 10
2.158922
 20
2.523644
 30
0.0
  0
SPLINE
  5
158
100
AcDbEntity
  8
Layer_1
 62
7
100
AcDbSpline
 70
8
 71
3
 72
8
 73
4
 74
0
 40
0
 40
0
 40
0
 40
0
 40
1
 40
1
 40
1
 40
1
 10
2.158922
 20
2.523644
 30
0.0
 10
2.205712
 20
2.476854
 30
0.0
 10
2.231998
 20
2.413394
 30
0.0
 10
2.231998
 20
2.347222
 30
0.0
  0
LINE
  5
159
100
AcDbEntity
  8
Layer_1
 62
7
100
AcDbLine
 10
2.231998
 20
2.347222
 30
0.0
 11
2.231998
 21
2.347222
 31
0.0
  0
SPLINE
  5
15a
100
AcDbEntity
  8
Layer_1
 62
7
100
AcDbSpline
 70
8
 71
3
 72
8
 73
4
 74
0
 40
0
 40
0
 40
0
 40
0
 40
1
 40
1
 40
1
 40
1
 10
2.910331
 20
2.347222
 30
0.0
 10
2.910331
 20
2.209428
 30
0.0
 10
2.798627
 20
2.097724
 30
0.0
 10
2.660833
 20
2.097724
 30
0.0
  0
SPLINE
  5
15b
100
AcDbEntity
  8
Layer_1
 62
7
100
AcDbSpline
 70
8
 71
3
 72
8
 73
4
 74
0
 40
0
 40
0
 40
0
 40
0
 40
1
 40
1
 40
1
 40
1
 10
2.660833
 20
2.097724
 30
0.0
 10
2.523039
 20
2.097724
 30
0.0
 10
2.411335
 20
2.209428
 30
0.0
 10
2.411335
 20
2.347222
 30
0.0
  0
SPLINE
  5
15c
100
AcDbEntity
  8
Layer_1
 62
7
100
AcDbSpline
 70
8
 71
3
 72
8
 73
4
 74
0
 40
0
 40
0
 40
0
 40
0
 40
1
 40
1
 40
1
 40
1
 10
2.411335
 20
2.347222
 30
0.0
 10
2.411335
 20
2.485016
 30
0.0
 10
2.523039
 20
2.596721
 30
0.0
 10
2.660833
 20
2.596721
 30
0.0
  0
SPLINE
  5
15d
100
AcDbEntity
  8
Layer_1
 62
7
100
AcDbSpline
 70
8
 71
3
 72
8
 73
4
 74
0
 40
0
 40
0
 40
0
 40
0
 40
1
 40
1
 40
1
 40
1
 10
2.660833
 20
2.596721
 30
0.0
 10
2.798627
 20
2.596721
 30
0.0
 10
2.910331
 20
2.485016
 30
0.0
 10
2.910331
 20
2.347222
 30
0.0
  0
LINE
  5
15e
100
AcDbEntity
  8
Layer_1
 62
7
100
AcDbLine
 10
2.910331
 20
2.347222
 30
0.0
 11
2.910331
 21
2.347222
 31
0.0
  0
SPLINE
  5
15f
100
AcDbEntity
  8
Layer_1
 62
7
100
AcDbSpline
 70
8
 71
3
 72
8
 73
4
 74
0
 40
0
 40
0
 40
0
 40
0
 40
1
 40
1
 40
1
 40
1
 10
3.588665
 20
2.347222
 30
0.0
 10
3.588665
 20
2.209428
 30
0.0
 10
3.476961
 20
2.097724
 30
0.0
 10
3.339167
 20
2.097724
 30
0.0
  0
SPLINE
  5
160
100
AcDbEntity
  8
Layer_1
 62
7
100
AcDbSpline
 70
8
 71
3
 72
8
 73
4
 74
0
 40
0
 40
0
 40
0
 40
0
 40
1
 40
1
 40
1
 40
1
 10
3.339167
 20
2.097724
 30
0.0
 10
3.201373
 20
2.097724
 30
0.0
 10
3.089669
 20
2.209428
 30
0.0
 10
3.089669
 20
2.347222
 30
0.0
  0
SPLINE
  5
161
100
AcDbEntity
  8
Layer_1
 62
7
100
AcDbSpline
 70
8
 71
3
 72
8
 73
4
 74
0
 40
0
 40
0
 40
0
 40
0
 40
1
 40
1
 40
1
 40
1
 10
3.089669
 20
2.347222
 30
0.0
 10
3.089669
 20
2.485016
 30
0.0
 10
3.201373
 20
2.596721
 30
0.0
 10
3.339167
 20
2.596721
 30
0.0
  0
SPLINE
  5
162
100
AcDbEntity
  8
Layer_1
 62
7
100
AcDbSpline
 70
8
 71
3
 72
8
 73
4
 74
0
 40
0
 40
0
 40
0
 40
0
 40
1
 40
1
 40
1
 40
1
 10
3.339167
 20
2.596721
 30
0.0
 10
3.476961
 20
2.596721
 30
0.0
 10
3.588665
 20
2.485016
 30
0.0
 10
3.588665
 20
2.347222
 30
0.0
  0
LINE
  5
163
100
AcDbEntity
  8
Layer_1
 62
7
100
AcDbLine
 10
3.588665
 20
2.347222
 30
0.0
 11
3.588665
 21
2.347222
 31
0.0
  0
SPLINE
  5
164
100
AcDbEntity
  8
Layer_1
 62
7
100
AcDbSpline
 70
8
 71
3
 72
8
 73
4
 74
0
 40
0
 40
0
 40
0
 40
0
 40
1
 40
1
 40
1
 40
1
 10
4.266998
 20
2.347222
 30
0.0
 10
4.266998
 20
2.281051
 30
0.0
 10
4.240712
 20
2.217590
 30
0.0
 10
4.193922
 20
2.170801
 30
0.0
  0
SPLINE
  5
165
100
AcDbEntity
  8
Layer_1
 62
7
100
AcDbSpline
 70
8
 71
3
 72
8
 73
4
 74
0
 40
0
 40
0
 40
0
 40
0
 40
1
 40
1
 40
1
 40
1
 10
4.193922
 20
2.170801
 30
0.0
 10
4.147132
 20
2.124011
 30
0.0
 10
4.083671
 20
2.097724
 30
0.0
 10
4.017500
 20
2.097724
 30
0.0
  0
SPLINE
  5
166
100
AcDbEntity
  8
Layer_1
 62
7
100
AcDbSpline
 70
8
 71
3
 72
8
 73
4
 74
0
 40
0
 40
0
 40
0
 40
0
 40
1
 40
1
 40
1
 40
1
 10
4.017500
 20
2.097724
 30
0.0
 10
3.879706
 20
2.097724
 30
0.0
 10
3.768002
 20
2.209428
 30
0.0
 10
3.768002
 20
2.347222
 30
0.0
  0
SPLINE
  5
167
100
AcDbEntity
  8
Layer_1
 62
7
100
AcDbSpline
 70
8
 71
3
 72
8
 73
4
 74
0
 40
0
 40
0
 40
0
 40
0
 40
1
 40
1
 40
1
 40
1
 10
3.768002
 20
2.347222
 30
0.0
 10
3.768002
 20
2.485016
 30
0.0
 10
3.879706
 20
2.596721
 30
0.0
 10
4.017500
 20
2.596721
 30
0.0
  0
SPLINE
  5
168
100
AcDbEntity
  8
Layer_1
 62
7
100
AcDbSpline
 70
8
 71
3
 72
8
 73
4
 74
0
 40
0
 40
0
 40
0
 40
0
 40
1
 40
1
 40
1
 40
1
 10
4.017500
 20
2.596721
 30
0.0
 10
4.083671
 20
2.596721
 30
0.0
 10
4.147132
 20
2.570434
 30
0.0
 10
4.193922
 20
2.523644
 30
0.0
  0
SPLINE
  5
169
100
AcDbEntity
  8
Layer_1
 62
7
100
AcDbSpline
 70
8
 71
3
 72
8
 73
4
 74
0
 40
0
 40
0
 40
0
 40
0
 40
1
 40
1
 40
1
 40
1
 10
4.193922
 20
2.523644
 30
0.0
 10
4.240712
 20
2.476854
 30
0.0
 10
4.266998
 20
2.413394
 30
0.0
 10
4.266998
 20
2.347222
 30
0.0
  0
LINE
  5
16a
100
AcDbEntity
  8
Layer_1
 62
7
100
AcDbLine
 10
4.266998
 20
2.347222
 30
0.0
 11
4.266998
 21
2.347222
 31
0.0
  0
SPLINE
  5
16b
100
AcDbEntity
  8
Layer_1
 62
7
100
AcDbSpline
 70
8
 71
3
 72
8
 73
4
 74
0
 40
0
 40
0
 40
0
 40
0
 40
1
 40
1
 40
1
 40
1
 10
4.945331
 20
2.347222
 30
0.0
 10
4.945331
 20
2.209428
 30
0.0
 10
4.833627
 20
2.097724
 30
0.0
 10
4.695833
 20
2.097724
 30
0.0
  0
SPLINE
  5
16c
100
AcDbEntity
  8
Layer_1
 62
7
100
AcDbSpline
 70
8
 71
3
 72
8
 73
4
 74
0
 40
0
 40
0
 40
0
 40
0
 40
1
 40
1
 40
1
 40
1
 10
4.695833
 20
2.097724
 30
0.0
 10
4.558039
 20
2.097724
 30
0.0
 10
4.446335
 20
2.209428
 30
0.0
 10
4.446335
 20
2.347222
 30
0.0
  0
SPLINE
  5
16d
100
AcDbEntity
  8
Layer_1
 62
7
100
AcDbSpline
 70
8
 71
3
 72
8
 73
4
 74
0
 40
0
 40
0
 40
0
 40
0
 40
1
 40
1
 40
1
 40
1
 10
4.446335
 20
2.347222
 30
0.0
 10
4.446335
 20
2.485016
 30
0.0
 10
4.558039
 20
2.596721
 30
0.0
 10
4.695833
 20
2.596721
 30
0.0
  0
SPLINE
  5
16e
100
AcDbEntity
  8
Layer_1
 62
7
100
AcDbSpline
 70
8
 71
3
 72
8
 73
4
 74
0
 40
0
 40
0
 40
0
 40
0
 40
1
 40
1
 40
1
 40
1
 10
4.695833
 20
2.596721
 30
0.0
 10
4.833627
 20
2.596721
 30
0.0
 10
4.945331
 20
2.485016
 30
0.0
 10
4.945331
 20
2.347222
 30
0.0
  0
LINE
  5
16f
100
AcDbEntity
  8
Layer_1
 62
7
100
AcDbLine
 10
4.945331
 20
2.347222
 30
0.0
 11
4.945331
 21
2.347222
 31
0.0
  0
SPLINE
  5
170
100
AcDbEntity
  8
Layer_1
 62
7
100
AcDbSpline
 70
8
 71
3
 72
8
 73
4
 74
0
 40
0
 40
0
 40
0
 40
0
 40
1
 40
1
 40
1
 40
1
 10
4.945331
 20
1.668941
 30
0.0
 10
4.945331
 20
1.531147
 30
0.0
 10
4.833627
 20
1.419443
 30
0.0
 10
4.695833
 20
1.419443
 30
0.0
  0
SPLINE
  5
171
100
AcDbEntity
  8
Layer_1
 62
7
100
AcDbSpline
 70
8
 71
3
 72
8
 73
4
 74
0
 40
0
 40
0
 40
0
 40
0
 40
1
 40
1
 40
1
 40
1
 10
4.695833
 20
1.419443
 30
0.0
 10
4.558039
 20
1.419443
 30
0.0
 10
4.446335
 20
1.531147
 30
0.0
 10
4.446335
 20
1.668941
 30
0.0
  0
SPLINE
  5
172
100
AcDbEntity
  8
Layer_1
 62
7
100
AcDbSpline
 70
8
 71
3
 72
8
 73
4
 74
0
 40
0
 40
0
 40
0
 40
0
 40
1
 40
1
 40
1
 40
1
 10
4.446335
 20
1.668941
 30
0.0
 10
4.446335
 20
1.806735
 30
0.0
 10
4.558039
 20
1.918439
 30
0.0
 10
4.695833
 20
1.918439
 30
0.0
  0
SPLINE
  5
173
100
AcDbEntity
  8
Layer_1
 62
7
100
AcDbSpline
 70
8
 71
3
 72
8
 73
4
 74
0
 40
0
 40
0
 40
0
 40
0
 40
1
 40
1
 40
1
 40
1
 10
4.695833
 20
1.918439
 30
0.0
 10
4.833627
 20
1.918439
 30
0.0
 10
4.945331
 20
1.806735
 30
0.0
 10
4.945331
 20
1.668941
 30
0.0
  0
LINE
  5
174
100
AcDbEntity
  8
Layer_1
 62
7
100
AcDbLine
 10
4.945331
 20
1.668941
 30
0.0
 11
4.945331
 21
1.668941
 31
0.0
  0
SPLINE
  5
175
100
AcDbEntity
  8
Layer_1
 62
7
100
AcDbSpline
 70
8
 71
3
 72
8
 73
4
 74
0
 40
0
 40
0
 40
0
 40
0
 40
1
 40
1
 40
1
 40
1
 10
4.266998
 20
1.668941
 30
0.0
 10
4.266998
 20
1.602770
 30
0.0
 10
4.240712
 20
1.539309
 30
0.0
 10
4.193922
 20
1.492519
 30
0.0
  0
SPLINE
  5
176
100
AcDbEntity
  8
Layer_1
 62
7
100
AcDbSpline
 70
8
 71
3
 72
8
 73
4
 74
0
 40
0
 40
0
 40
0
 40
0
 40
1
 40
1
 40
1
 40
1
 10
4.193922
 20
1.492519
 30
0.0
 10
4.147132
 20
1.445729
 30
0.0
 10
4.083671
 20
1.419443
 30
0.0
 10
4.017500
 20
1.419443
 30
0.0
  0
SPLINE
  5
177
100
AcDbEntity
  8
Layer_1
 62
7
100
AcDbSpline
 70
8
 71
3
 72
8
 73
4
 74
0
 40
0
 40
0
 40
0
 40
0
 40
1
 40
1
 40
1
 40
1
 10
4.017500
 20
1.419443
 30
0.0
 10
3.879706
 20
1.419443
 30
0.0
 10
3.768002
 20
1.531147
 30
0.0
 10
3.768002
 20
1.668941
 30
0.0
  0
SPLINE
  5
178
100
AcDbEntity
  8
Layer_1
 62
7
100
AcDbSpline
 70
8
 71
3
 72
8
 73
4
 74
0
 40
0
 40
0
 40
0
 40
0
 40
1
 40
1
 40
1
 40
1
 10
3.768002
 20
1.668941
 30
0.0
 10
3.768002
 20
1.806735
 30
0.0
 10
3.879706
 20
1.918439
 30
0.0
 10
4.017500
 20
1.918439
 30
0.0
  0
SPLINE
  5
179
100
AcDbEntity
  8
Layer_1
 62
7
100
AcDbSpline
 70
8
 71
3
 72
8
 73
4
 74
0
 40
0
 40
0
 40
0
 40
0
 40
1
 40
1
 40
1
 40
1
 10
4.017500
 20
1.918439
 30
0.0
 10
4.083671
 20
1.918439
 30
0.0
 10
4.147132
 20
1.892153
 30
0.0
 10
4.193922
 20
1.845363
 30
0.0
  0
SPLINE
  5
17a
100
AcDbEntity
  8
Layer_1
 62
7
100
AcDbSpline
 70
8
 71
3
 72
8
 73
4
 74
0
 40
0
 40
0
 40
0
 40
0
 40
1
 40
1
 40
1
 40
1
 10
4.193922
 20
1.845363
 30
0.0
 10
4.240712
 20
1.798573
 30
0.0
 10
4.266998
 20
1.735112
 30
0.0
 10
4.266998
 20
1.668941
 30
0.0
  0
LINE
  5
17b
100
AcDbEntity
  8
Layer_1
 62
7
100
AcDbLine
 10
4.266998
 20
1.668941
 30
0.0
 11
4.266998
 21
1.668941
 31
0.0
  0
SPLINE
  5
17c
100
AcDbEntity
  8
Layer_1
 62
7
100
AcDbSpline
 70
8
 71
3
 72
8
 73
4
 74
0
 40
0
 40
0
 40
0
 40
0
 40
1
 40
1
 40
1
 40
1
 10
3.588665
 20
1.668941
 30
0.0
 10
3.588665
 20
1.531147
 30
0.0
 10
3.476961
 20
1.419443
 30
0.0
 10
3.339167
 20
1.419443
 30
0.0
  0
SPLINE
  5
17d
100
AcDbEntity
  8
Layer_1
 62
7
100
AcDbSpline
 70
8
 71
3
 72
8
 73
4
 74
0
 40
0
 40
0
 40
0
 40
0
 40
1
 40
1
 40
1
 40
1
 10
3.339167
 20
1.419443
 30
0.0
 10
3.201373
 20
1.419443
 30
0.0
 10
3.089669
 20
1.531147
 30
0.0
 10
3.089669
 20
1.668941
 30
0.0
  0
SPLINE
  5
17e
100
AcDbEntity
  8
Layer_1
 62
7
100
AcDbSpline
 70
8
 71
3
 72
8
 73
4
 74
0
 40
0
 40
0
 40
0
 40
0
 40
1
 40
1
 40
1
 40
1
 10
3.089669
 20
1.668941
 30
0.0
 10
3.089669
 20
1.806735
 30
0.0
 10
3.201373
 20
1.918439
 30
0.0
 10
3.339167
 20
1.918439
 30
0.0
  0
SPLINE
  5
17f
100
AcDbEntity
  8
Layer_1
 62
7
100
AcDbSpline
 70
8
 71
3
 72
8
 73
4
 74
0
 40
0
 40
0
 40
0
 40
0
 40
1
 40
1
 40
1
 40
1
 10
3.339167
 20
1.918439
 30
0.0
 10
3.476961
 20
1.918439
 30
0.0
 10
3.588665
 20
1.806735
 30
0.0
 10
3.588665
 20
1.668941
 30
0.0
  0
LINE
  5
180
100
AcDbEntity
  8
Layer_1
 62
7
100
AcDbLine
 10
3.588665
 20
1.668941
 30
0.0
 11
3.588665
 21
1.668941
 31
0.0
  0
SPLINE
  5
181
100
AcDbEntity
  8
Layer_1
 62
7
100
AcDbSpline
 70
8
 71
3
 72
8
 73
4
 74
0
 40
0
 40
0
 40
0
 40
0
 40
1
 40
1
 40
1
 40
1
 10
2.910331
 20
1.668941
 30
0.0
 10
2.910331
 20
1.531147
 30
0.0
 10
2.798627
 20
1.419443
 30
0.0
 10
2.660833
 20
1.419443
 30
0.0
  0
SPLINE
  5
182
100
AcDbEntity
  8
Layer_1
 62
7
100
AcDbSpline
 70
8
 71
3
 72
8
 73
4
 74
0
 40
0
 40
0
 40
0
 40
0
 40
1
 40
1
 40
1
 40
1
 10
2.660833
 20
1.419443
 30
0.0
 10
2.523039
 20
1.419443
 30
0.0
 10
2.411335
 20
1.531147
 30
0.0
 10
2.411335
 20
1.668941
 30
0.0
  0
SPLINE
  5
183
100
AcDbEntity
  8
Layer_1
 62
7
100
AcDbSpline
 70
8
 71
3
 72
8
 73
4
 74
0
 40
0
 40
0
 40
0
 40
0
 40
1
 40
1
 40
1
 40
1
 10
2.411335
 20
1.668941
 30
0.0
 10
2.411335
 20
1.806735
 30
0.0
 10
2.523039
 20
1.918439
 30
0.0
 10
2.660833
 20
1.918439
 30
0.0
  0
SPLINE
  5
184
100
AcDbEntity
  8
Layer_1
 62
7
100
AcDbSpline
 70
8
 71
3
 72
8
 73
4
 74
0
 40
0
 40
0
 40
0
 40
0
 40
1
 40
1
 40
1
 40
1
 10
2.660833
 20
1.918439
 30
0.0
 10
2.798627
 20
1.918439
 30
0.0
 10
2.910331
 20
1.806735
 30
0.0
 10
2.910331
 20
1.668941
 30
0.0
  0
LINE
  5
185
100
AcDbEntity
  8
Layer_1
 62
7
100
AcDbLine
 10
2.910331
 20
1.668941
 30
0.0
 11
2.910331
 21
1.668941
 31
0.0
  0
SPLINE
  5
186
100
AcDbEntity
  8
Layer_1
 62
7
100
AcDbSpline
 70
8
 71
3
 72
8
 73
4
 74
0
 40
0
 40
0
 40
0
 40
0
 40
1
 40
1
 40
1
 40
1
 10
2.231998
 20
1.668941
 30
0.0
 10
2.231998
 20
1.602770
 30
0.0
 10
2.205712
 20
1.539309
 30
0.0
 10
2.158922
 20
1.492519
 30
0.0
  0
SPLINE
  5
187
100
AcDbEntity
  8
Layer_1
 62
7
100
AcDbSpline
 70
8
 71
3
 72
8
 73
4
 74
0
 40
0
 40
0
 40
0
 40
0
 40
1
 40
1
 40
1
 40
1
 10
2.158922
 20
1.492519
 30
0.0
 10
2.112132
 20
1.445729
 30
0.0
 10
2.048671
 20
1.419443
 30
0.0
 10
1.982500
 20
1.419443
 30
0.0
  0
SPLINE
  5
188
100
AcDbEntity
  8
Layer_1
 62
7
100
AcDbSpline
 70
8
 71
3
 72
8
 73
4
 74
0
 40
0
 40
0
 40
0
 40
0
 40
1
 40
1
 40
1
 40
1
 10
1.982500
 20
1.419443
 30
0.0
 10
1.844706
 20
1.419443
 30
0.0
 10
1.733002
 20
1.531147
 30
0.0
 10
1.733002
 20
1.668941
 30
0.0
  0
SPLINE
  5
189
100
AcDbEntity
  8
Layer_1
 62
7
100
AcDbSpline
 70
8
 71
3
 72
8
 73
4
 74
0
 40
0
 40
0
 40
0
 40
0
 40
1
 40
1
 40
1
 40
1
 10
1.733002
 20
1.668941
 30
0.0
 10
1.733002
 20
1.806735
 30
0.0
 10
1.844706
 20
1.918439
 30
0.0
 10
1.982500
 20
1.918439
 30
0.0
  0
SPLINE
  5
18a
100
AcDbEntity
  8
Layer_1
 62
7
100
AcDbSpline
 70
8
 71
3
 72
8
 73
4
 74
0
 40
0
 40
0
 40
0
 40
0
 40
1
 40
1
 40
1
 40
1
 10
1.982500
 20
1.918439
 30
0.0
 10
2.048671
 20
1.918439
 30
0.0
 10
2.112132
 20
1.892153
 30
0.0
 10
2.158922
 20
1.845363
 30
0.0
  0
SPLINE
  5
18b
100
AcDbEntity
  8
Layer_1
 62
7
100
AcDbSpline
 70
8
 71
3
 72
8
 73
4
 74
0
 40
0
 40
0
 40
0
 40
0
 40
1
 40
1
 40
1
 40
1
 10
2.158922
 20
1.845363
 30
0.0
 10
2.205712
 20
1.798573
 30
0.0
 10
2.231998
 20
1.735112
 30
0.0
 10
2.231998
 20
1.668941
 30
0.0
  0
LINE
  5
18c
100
AcDbEntity
  8
Layer_1
 62
7
100
AcDbLine
 10
2.231998
 20
1.668941
 30
0.0
 11
2.231998
 21
1.668941
 31
0.0
  0
SPLINE
  5
18d
100
AcDbEntity
  8
Layer_1
 62
7
100
AcDbSpline
 70
8
 71
3
 72
8
 73
4
 74
0
 40
0
 40
0
 40
0
 40
0
 40
1
 40
1
 40
1
 40
1
 10
1.553665
 20
1.668941
 30
0.0
 10
1.553665
 20
1.602770
 30
0.0
 10
1.527379
 20
1.539309
 30
0.0
 10
1.480589
 20
1.492519
 30
0.0
  0
SPLINE
  5
18e
100
AcDbEntity
  8
Layer_1
 62
7
100
AcDbSpline
 70
8
 71
3
 72
8
 73
4
 74
0
 40
0
 40
0
 40
0
 40
0
 40
1
 40
1
 40
1
 40
1
 10
1.480589
 20
1.492519
 30
0.0
 10
1.433799
 20
1.445729
 30
0.0
 10
1.370338
 20
1.419443
 30
0.0
 10
1.304167
 20
1.419443
 30
0.0
  0
SPLINE
  5
18f
100
AcDbEntity
  8
Layer_1
 62
7
100
AcDbSpline
 70
8
 71
3
 72
8
 73
4
 74
0
 40
0
 40
0
 40
0
 40
0
 40
1
 40
1
 40
1
 40
1
 10
1.304167
 20
1.419443
 30
0.0
 10
1.166373
 20
1.419443
 30
0.0
 10
1.054669
 20
1.531147
 30
0.0
 10
1.054669
 20
1.668941
 30
0.0
  0
SPLINE
  5
190
100
AcDbEntity
  8
Layer_1
 62
7
100
AcDbSpline
 70
8
 71
3
 72
8
 73
4
 74
0
 40
0
 40
0
 40
0
 40
0
 40
1
 40
1
 40
1
 40
1
 10
1.054669
 20
1.668941
 30
0.0
 10
1.054669
 20
1.806735
 30
0.0
 10
1.166373
 20
1.918439
 30
0.0
 10
1.304167
 20
1.918439
 30
0.0
  0
SPLINE
  5
191
100
AcDbEntity
  8
Layer_1
 62
7
100
AcDbSpline
 70
8
 71
3
 72
8
 73
4
 74
0
 40
0
 40
0
 40
0
 40
0
 40
1
 40
1
 40
1
 40
1
 10
1.304167
 20
1.918439
 30
0.0
 10
1.370338
 20
1.918439
 30
0.0
 10
1.433799
 20
1.892153
 30
0.0
 10
1.480589
 20
1.845363
 30
0.0
  0
SPLINE
  5
192
100
AcDbEntity
  8
Layer_1
 62
7
100
AcDbSpline
 70
8
 71
3
 72
8
 73
4
 74
0
 40
0
 40
0
 40
0
 40
0
 40
1
 40
1
 40
1
 40
1
 10
1.480589
 20
1.845363
 30
0.0
 10
1.527379
 20
1.798573
 30
0.0
 10
1.553665
 20
1.735112
 30
0.0
 10
1.553665
 20
1.668941
 30
0.0
  0
LINE
  5
193
100
AcDbEntity
  8
Layer_1
 62
7
100
AcDbLine
 10
1.553665
 20
1.668941
 30
0.0
 11
1.553665
 21
1.668941
 31
0.0
  0
SPLINE
  5
194
100
AcDbEntity
  8
Layer_1
 62
7
100
AcDbSpline
 70
8
 71
3
 72
8
 73
4
 74
0
 40
0
 40
0
 40
0
 40
0
 40
1
 40
1
 40
1
 40
1
 10
1.553665
 20
0.990660
 30
0.0
 10
1.553665
 20
0.924489
 30
0.0
 10
1.527379
 20
0.861028
 30
0.0
 10
1.480589
 20
0.814238
 30
0.0
  0
SPLINE
  5
195
100
AcDbEntity
  8
Layer_1
 62
7
100
AcDbSpline
 70
8
 71
3
 72
8
 73
4
 74
0
 40
0
 40
0
 40
0
 40
0
 40
1
 40
1
 40
1
 40
1
 10
1.480589
 20
0.814238
 30
0.0
 10
1.433799
 20
0.767448
 30
0.0
 10
1.370338
 20
0.741162
 30
0.0
 10
1.304167
 20
0.741162
 30
0.0
  0
SPLINE
  5
196
100
AcDbEntity
  8
Layer_1
 62
7
100
AcDbSpline
 70
8
 71
3
 72
8
 73
4
 74
0
 40
0
 40
0
 40
0
 40
0
 40
1
 40
1
 40
1
 40
1
 10
1.304167
 20
0.741162
 30
0.0
 10
1.166373
 20
0.741162
 30
0.0
 10
1.054669
 20
0.852866
 30
0.0
 10
1.054669
 20
0.990660
 30
0.0
  0
SPLINE
  5
197
100
AcDbEntity
  8
Layer_1
 62
7
100
AcDbSpline
 70
8
 71
3
 72
8
 73
4
 74
0
 40
0
 40
0
 40
0
 40
0
 40
1
 40
1
 40
1
 40
1
 10
1.054669
 20
0.990660
 30
0.0
 10
1.054669
 20
1.128454
 30
0.0
 10
1.166373
 20
1.240158
 30
0.0
 10
1.304167
 20
1.240158
 30
0.0
  0
SPLINE
  5
198
100
AcDbEntity
  8
Layer_1
 62
7
100
AcDbSpline
 70
8
 71
3
 72
8
 73
4
 74
0
 40
0
 40
0
 40
0
 40
0
 40
1
 40
1
 40
1
 40
1
 10
1.304167
 20
1.240158
 30
0.0
 10
1.370338
 20
1.240159
 30
0.0
 10
1.433799
 20
1.213872
 30
0.0
 10
1.480589
 20
1.167082
 30
0.0
  0
SPLINE
  5
199
100
AcDbEntity
  8
Layer_1
 62
7
100
AcDbSpline
 70
8
 71
3
 72
8
 73
4
 74
0
 40
0
 40
0
 40
0
 40
0
 40
1
 40
1
 40
1
 40
1
 10
1.480589
 20
1.167082
 30
0.0
 10
1.527379
 20
1.120292
 30
0.0
 10
1.553665
 20
1.056831
 30
0.0
 10
1.553665
 20
0.990660
 30
0.0
  0
LINE
  5
19a
100
AcDbEntity
  8
Layer_1
 62
7
100
AcDbLine
 10
1.553665
 20
0.990660
 30
0.0
 11
1.553665
 21
0.990660
 31
0.0
  0
SPLINE
  5
19b
100
AcDbEntity
  8
Layer_1
 62
7
100
AcDbSpline
 70
8
 71
3
 72
8
 73
4
 74
0
 40
0
 40
0
 40
0
 40
0
 40
1
 40
1
 40
1
 40
1
 10
2.231998
 20
0.990660
 30
0.0
 10
2.231998
 20
0.924489
 30
0.0
 10
2.205712
 20
0.861028
 30
0.0
 10
2.158922
 20
0.814238
 30
0.0
  0
SPLINE
  5
19c
100
AcDbEntity
  8
Layer_1
 62
7
100
AcDbSpline
 70
8
 71
3
 72
8
 73
4
 74
0
 40
0
 40
0
 40
0
 40
0
 40
1
 40
1
 40
1
 40
1
 10
2.158922
 20
0.814238
 30
0.0
 10
2.112132
 20
0.767448
 30
0.0
 10
2.048671
 20
0.741162
 30
0.0
 10
1.982500
 20
0.741162
 30
0.0
  0
SPLINE
  5
19d
100
AcDbEntity
  8
Layer_1
 62
7
100
AcDbSpline
 70
8
 71
3
 72
8
 73
4
 74
0
 40
0
 40
0
 40
0
 40
0
 40
1
 40
1
 40
1
 40
1
 10
1.982500
 20
0.741162
 30
0.0
 10
1.844706
 20
0.741162
 30
0.0
 10
1.733002
 20
0.852866
 30
0.0
 10
1.733002
 20
0.990660
 30
0.0
  0
SPLINE
  5
19e
100
AcDbEntity
  8
Layer_1
 62
7
100
AcDbSpline
 70
8
 71
3
 72
8
 73
4
 74
0
 40
0
 40
0
 40
0
 40
0
 40
1
 40
1
 40
1
 40
1
 10
1.733002
 20
0.990660
 30
0.0
 10
1.733002
 20
1.128454
 30
0.0
 10
1.844706
 20
1.240158
 30
0.0
 10
1.982500
 20
1.240158
 30
0.0
  0
SPLINE
  5
19f
100
AcDbEntity
  8
Layer_1
 62
7
100
AcDbSpline
 70
8
 71
3
 72
8
 73
4
 74
0
 40
0
 40
0
 40
0
 40
0
 40
1
 40
1
 40
1
 40
1
 10
1.982500
 20
1.240158
 30
0.0
 10
2.048671
 20
1.240159
 30
0.0
 10
2.112132
 20
1.213872
 30
0.0
 10
2.158922
 20
1.167082
 30
0.0
  0
SPLINE
  5
1a0
100
AcDbEntity
  8
Layer_1
 62
7
100
AcDbSpline
 70
8
 71
3
 72
8
 73
4
 74
0
 40
0
 40
0
 40
0
 40
0
 40
1
 40
1
 40
1
 40
1
 10
2.158922
 20
1.167082
 30
0.0
 10
2.205712
 20
1.120292
 30
0.0
 10
2.231998
 20
1.056831
 30
0.0
 10
2.231998
 20
0.990660
 30
0.0
  0
LINE
  5
1a1
100
AcDbEntity
  8
Layer_1
 62
7
100
AcDbLine
 10
2.231998
 20
0.990660
 30
0.0
 11
2.231998
 21
0.990660
 31
0.0
  0
SPLINE
  5
1a2
100
AcDbEntity
  8
Layer_1
 62
7
100
AcDbSpline
 70
8
 71
3
 72
8
 73
4
 74
0
 40
0
 40
0
 40
0
 40
0
 40
1
 40
1
 40
1
 40
1
 10
2.910331
 20
0.990660
 30
0.0
 10
2.910331
 20
0.852866
 30
0.0
 10
2.798627
 20
0.741162
 30
0.0
 10
2.660833
 20
0.741162
 30
0.0
  0
SPLINE
  5
1a3
100
AcDbEntity
  8
Layer_1
 62
7
100
AcDbSpline
 70
8
 71
3
 72
8
 73
4
 74
0
 40
0
 40
0
 40
0
 40
0
 40
1
 40
1
 40
1
 40
1
 10
2.660833
 20
0.741162
 30
0.0
 10
2.523039
 20
0.741162
 30
0.0
 10
2.411335
 20
0.852866
 30
0.0
 10
2.411335
 20
0.990660
 30
0.0
  0
SPLINE
  5
1a4
100
AcDbEntity
  8
Layer_1
 62
7
100
AcDbSpline
 70
8
 71
3
 72
8
 73
4
 74
0
 40
0
 40
0
 40
0
 40
0
 40
1
 40
1
 40
1
 40
1
 10
2.411335
 20
0.990660
 30
0.0
 10
2.411335
 20
1.128454
 30
0.0
 10
2.523039
 20
1.240158
 30
0.0
 10
2.660833
 20
1.240158
 30
0.0
  0
SPLINE
  5
1a5
100
AcDbEntity
  8
Layer_1
 62
7
100
AcDbSpline
 70
8
 71
3
 72
8
 73
4
 74
0
 40
0
 40
0
 40
0
 40
0
 40
1
 40
1
 40
1
 40
1
 10
2.660833
 20
1.240158
 30
0.0
 10
2.798627
 20
1.240158
 30
0.0
 10
2.910332
 20
1.128454
 30
0.0
 10
2.910331
 20
0.990660
 30
0.0
  0
LINE
  5
1a6
100
AcDbEntity
  8
Layer_1
 62
7
100
AcDbLine
 10
2.910331
 20
0.990660
 30
0.0
 11
2.910331
 21
0.990660
 31
0.0
  0
SPLINE
  5
1a7
100
AcDbEntity
  8
Layer_1
 62
7
100
AcDbSpline
 70
8
 71
3
 72
8
 73
4
 74
0
 40
0
 40
0
 40
0
 40
0
 40
1
 40
1
 40
1
 40
1
 10
3.588665
 20
0.990660
 30
0.0
 10
3.588665
 20
0.852866
 30
0.0
 10
3.476961
 20
0.741162
 30
0.0
 10
3.339167
 20
0.741162
 30
0.0
  0
SPLINE
  5
1a8
100
AcDbEntity
  8
Layer_1
 62
7
100
AcDbSpline
 70
8
 71
3
 72
8
 73
4
 74
0
 40
0
 40
0
 40
0
 40
0
 40
1
 40
1
 40
1
 40
1
 10
3.339167
 20
0.741162
 30
0.0
 10
3.201373
 20
0.741162
 30
0.0
 10
3.089669
 20
0.852866
 30
0.0
 10
3.089669
 20
0.990660
 30
0.0
  0
SPLINE
  5
1a9
100
AcDbEntity
  8
Layer_1
 62
7
100
AcDbSpline
 70
8
 71
3
 72
8
 73
4
 74
0
 40
0
 40
0
 40
0
 40
0
 40
1
 40
1
 40
1
 40
1
 10
3.089669
 20
0.990660
 30
0.0
 10
3.089668
 20
1.128454
 30
0.0
 10
3.201373
 20
1.240158
 30
0.0
 10
3.339167
 20
1.240158
 30
0.0
  0
SPLINE
  5
1aa
100
AcDbEntity
  8
Layer_1
 62
7
100
AcDbSpline
 70
8
 71
3
 72
8
 73
4
 74
0
 40
0
 40
0
 40
0
 40
0
 40
1
 40
1
 40
1
 40
1
 10
3.339167
 20
1.240158
 30
0.0
 10
3.476961
 20
1.240158
 30
0.0
 10
3.588665
 20
1.128454
 30
0.0
 10
3.588665
 20
0.990660
 30
0.0
  0
LINE
  5
1ab
100
AcDbEntity
  8
Layer_1
 62
7
100
AcDbLine
 10
3.588665
 20
0.990660
 30
0.0
 11
3.588665
 21
0.990660
 31
0.0
  0
SPLINE
  5
1ac
100
AcDbEntity
  8
Layer_1
 62
7
100
AcDbSpline
 70
8
 71
3
 72
8
 73
4
 74
0
 40
0
 40
0
 40
0
 40
0
 40
1
 40
1
 40
1
 40
1
 10
4.266998
 20
0.990660
 30
0.0
 10
4.266998
 20
0.924489
 30
0.0
 10
4.240712
 20
0.861028
 30
0.0
 10
4.193922
 20
0.814238
 30
0.0
  0
SPLINE
  5
1ad
100
AcDbEntity
  8
Layer_1
 62
7
100
AcDbSpline
 70
8
 71
3
 72
8
 73
4
 74
0
 40
0
 40
0
 40
0
 40
0
 40
1
 40
1
 40
1
 40
1
 10
4.193922
 20
0.814238
 30
0.0
 10
4.147132
 20
0.767448
 30
0.0
 10
4.083671
 20
0.741162
 30
0.0
 10
4.017500
 20
0.741162
 30
0.0
  0
SPLINE
  5
1ae
100
AcDbEntity
  8
Layer_1
 62
7
100
AcDbSpline
 70
8
 71
3
 72
8
 73
4
 74
0
 40
0
 40
0
 40
0
 40
0
 40
1
 40
1
 40
1
 40
1
 10
4.017500
 20
0.741162
 30
0.0
 10
3.879706
 20
0.741162
 30
0.0
 10
3.768002
 20
0.852866
 30
0.0
 10
3.768002
 20
0.990660
 30
0.0
  0
SPLINE
  5
1af
100
AcDbEntity
  8
Layer_1
 62
7
100
AcDbSpline
 70
8
 71
3
 72
8
 73
4
 74
0
 40
0
 40
0
 40
0
 40
0
 40
1
 40
1
 40
1
 40
1
 10
3.768002
 20
0.990660
 30
0.0
 10
3.768002
 20
1.128454
 30
0.0
 10
3.879706
 20
1.240158
 30
0.0
 10
4.017500
 20
1.240158
 30
0.0
  0
SPLINE
  5
1b0
100
AcDbEntity
  8
Layer_1
 62
7
100
AcDbSpline
 70
8
 71
3
 72
8
 73
4
 74
0
 40
0
 40
0
 40
0
 40
0
 40
1
 40
1
 40
1
 40
1
 10
4.017500
 20
1.240158
 30
0.0
 10
4.083671
 20
1.240159
 30
0.0
 10
4.147132
 20
1.213872
 30
0.0
 10
4.193922
 20
1.167082
 30
0.0
  0
SPLINE
  5
1b1
100
AcDbEntity
  8
Layer_1
 62
7
100
AcDbSpline
 70
8
 71
3
 72
8
 73
4
 74
0
 40
0
 40
0
 40
0
 40
0
 40
1
 40
1
 40
1
 40
1
 10
4.193922
 20
1.167082
 30
0.0
 10
4.240712
 20
1.120292
 30
0.0
 10
4.266998
 20
1.056831
 30
0.0
 10
4.266998
 20
0.990660
 30
0.0
  0
LINE
  5
1b2
100
AcDbEntity
  8
Layer_1
 62
7
100
AcDbLine
 10
4.266998
 20
0.990660
 30
0.0
 11
4.266998
 21
0.990660
 31
0.0
  0
SPLINE
  5
1b3
100
AcDbEntity
  8
Layer_1
 62
7
100
AcDbSpline
 70
8
 71
3
 72
8
 73
4
 74
0
 40
0
 40
0
 40
0
 40
0
 40
1
 40
1
 40
1
 40
1
 10
4.945331
 20
0.990660
 30
0.0
 10
4.945331
 20
0.852866
 30
0.0
 10
4.833627
 20
0.741162
 30
0.0
 10
4.695833
 20
0.741162
 30
0.0
  0
SPLINE
  5
1b4
100
AcDbEntity
  8
Layer_1
 62
7
100
AcDbSpline
 70
8
 71
3
 72
8
 73
4
 74
0
 40
0
 40
0
 40
0
 40
0
 40
1
 40
1
 40
1
 40
1
 10
4.695833
 20
0.741162
 30
0.0
 10
4.558039
 20
0.741162
 30
0.0
 10
4.446335
 20
0.852866
 30
0.0
 10
4.446335
 20
0.990660
 30
0.0
  0
SPLINE
  5
1b5
100
AcDbEntity
  8
Layer_1
 62
7
100
AcDbSpline
 70
8
 71
3
 72
8
 73
4
 74
0
 40
0
 40
0
 40
0
 40
0
 40
1
 40
1
 40
1
 40
1
 10
4.446335
 20
0.990660
 30
0.0
 10
4.446335
 20
1.128454
 30
0.0
 10
4.558039
 20
1.240158
 30
0.0
 10
4.695833
 20
1.240158
 30
0.0
  0
SPLINE
  5
1b6
100
AcDbEntity
  8
Layer_1
 62
7
100
AcDbSpline
 70
8
 71
3
 72
8
 73
4
 74
0
 40
0
 40
0
 40
0
 40
0
 40
1
 40
1
 40
1
 40
1
 10
4.695833
 20
1.240158
 30
0.0
 10
4.833627
 20
1.240158
 30
0.0
 10
4.945332
 20
1.128454
 30
0.0
 10
4.945331
 20
0.990660
 30
0.0
  0
LINE
  5
1b7
100
AcDbEntity
  8
Layer_1
 62
7
100
AcDbLine
 10
4.945331
 20
0.990660
 30
0.0
 11
4.945331
 21
0.990660
 31
0.0
  0
SPLINE
  5
1b8
100
AcDbEntity
  8
Layer_1
 62
3
100
AcDbSpline
 70
8
 71
3
 72
8
 73
4
 74
0
 40
0
 40
0
 40
0
 40
0
 40
1
 40
1
 40
1
 40
1
 10
1.364928
 20
4.091667
 30
0.0
 10
1.367460
 20
4.091667
 30
0.0
 10
1.369540
 20
4.092526
 30
0.0
 10
1.371167
 20
4.094244
 30
0.0
  0
SPLINE
  5
1b9
100
AcDbEntity
  8
Layer_1
 62
3
100
AcDbSpline
 70
8
 71
3
 72
8
 73
4
 74
0
 40
0
 40
0
 40
0
 40
0
 40
1
 40
1
 40
1
 40
1
 10
1.371167
 20
4.094244
 30
0.0
 10
1.372794
 20
4.095962
 30
0.0
 10
1.373608
 20
4.097996
 30
0.0
 10
1.373608
 20
4.100347
 30
0.0
  0
LINE
  5
1ba
100
AcDbEntity
  8
Layer_1
 62
3
100
AcDbLine
 10
1.373608
 20
4.100347
 30
0.0
 11
1.373608
 21
4.152431
 31
0.0
  0
SPLINE
  5
1bb
100
AcDbEntity
  8
Layer_1
 62
3
100
AcDbSpline
 70
8
 71
3
 72
8
 73
4
 74
0
 40
0
 40
0
 40
0
 40
0
 40
1
 40
1
 40
1
 40
1
 10
1.373608
 20
4.152431
 30
0.0
 10
1.373608
 20
4.154782
 30
0.0
 10
1.372748
 20
4.156816
 30
0.0
 10
1.371029
 20
4.158534
 30
0.0
  0
SPLINE
  5
1bc
100
AcDbEntity
  8
Layer_1
 62
3
100
AcDbSpline
 70
8
 71
3
 72
8
 73
4
 74
0
 40
0
 40
0
 40
0
 40
0
 40
1
 40
1
 40
1
 40
1
 10
1.371029
 20
4.158534
 30
0.0
 10
1.369310
 20
4.160252
 30
0.0
 10
1.367275
 20
4.161111
 30
0.0
 10
1.364926
 20
4.161111
 30
0.0
  0
LINE
  5
1bd
100
AcDbEntity
  8
Layer_1
 62
3
100
AcDbLine
 10
1.364926
 20
4.161111
 30
0.0
 11
1.243398
 21
4.161111
 31
0.0
  0
SPLINE
  5
1be
100
AcDbEntity
  8
Layer_1
 62
3
100
AcDbSpline
 70
8
 71
3
 72
8
 73
4
 74
0
 40
0
 40
0
 40
0
 40
0
 40
1
 40
1
 40
1
 40
1
 10
1.243398
 20
4.161111
 30
0.0
 10
1.241046
 20
4.161111
 30
0.0
 10
1.239012
 20
4.160297
 30
0.0
 10
1.237294
 20
4.158670
 30
0.0
  0
SPLINE
  5
1bf
100
AcDbEntity
  8
Layer_1
 62
3
100
AcDbSpline
 70
8
 71
3
 72
8
 73
4
 74
0
 40
0
 40
0
 40
0
 40
0
 40
1
 40
1
 40
1
 40
1
 10
1.237294
 20
4.158670
 30
0.0
 10
1.235575
 20
4.157042
 30
0.0
 10
1.234716
 20
4.154963
 30
0.0
 10
1.234716
 20
4.152431
 30
0.0
  0
LINE
  5
1c0
100
AcDbEntity
  8
Layer_1
 62
3
100
AcDbLine
 10
1.234716
 20
4.152431
 30
0.0
 11
1.234716
 21
4.100347
 31
0.0
  0
SPLINE
  5
1c1
100
AcDbEntity
  8
Layer_1
 62
3
100
AcDbSpline
 70
8
 71
3
 72
8
 73
4
 74
0
 40
0
 40
0
 40
0
 40
0
 40
1
 40
1
 40
1
 40
1
 10
1.234716
 20
4.100347
 30
0.0
 10
1.234716
 20
4.097816
 30
0.0
 10
1.235529
 20
4.095736
 30
0.0
 10
1.237157
 20
4.094108
 30
0.0
  0
SPLINE
  5
1c2
100
AcDbEntity
  8
Layer_1
 62
3
100
AcDbSpline
 70
8
 71
3
 72
8
 73
4
 74
0
 40
0
 40
0
 40
0
 40
0
 40
1
 40
1
 40
1
 40
1
 10
1.237157
 20
4.094108
 30
0.0
 10
1.238784
 20
4.092481
 30
0.0
 10
1.240864
 20
4.091667
 30
0.0
 10
1.243396
 20
4.091667
 30
0.0
  0
LINE
  5
1c3
100
AcDbEntity
  8
Layer_1
 62
3
100
AcDbLine
 10
1.243396
 20
4.091667
 30
0.0
 11
1.364928
 21
4.091667
 31
0.0
  0
SPLINE
  5
1c4
100
AcDbEntity
  8
Layer_1
 62
3
100
AcDbSpline
 70
8
 71
3
 72
8
 73
4
 74
0
 40
0
 40
0
 40
0
 40
0
 40
1
 40
1
 40
1
 40
1
 10
1.364928
 20
4.195833
 30
0.0
 10
1.367460
 20
4.195833
 30
0.0
 10
1.369540
 20
4.196692
 30
0.0
 10
1.371167
 20
4.198410
 30
0.0
  0
SPLINE
  5
1c5
100
AcDbEntity
  8
Layer_1
 62
3
100
AcDbSpline
 70
8
 71
3
 72
8
 73
4
 74
0
 40
0
 40
0
 40
0
 40
0
 40
1
 40
1
 40
1
 40
1
 10
1.371167
 20
4.198410
 30
0.0
 10
1.372794
 20
4.200129
 30
0.0
 10
1.373608
 20
4.202163
 30
0.0
 10
1.373608
 20
4.204514
 30
0.0
  0
LINE
  5
1c6
100
AcDbEntity
  8
Layer_1
 62
3
100
AcDbLine
 10
1.373608
 20
4.204514
 30
0.0
 11
1.373608
 21
4.256597
 31
0.0
  0
SPLINE
  5
1c7
100
AcDbEntity
  8
Layer_1
 62
3
100
AcDbSpline
 70
8
 71
3
 72
8
 73
4
 74
0
 40
0
 40
0
 40
0
 40
0
 40
1
 40
1
 40
1
 40
1
 10
1.373608
 20
4.256597
 30
0.0
 10
1.373608
 20
4.258948
 30
0.0
 10
1.372748
 20
4.260983
 30
0.0
 10
1.371029
 20
4.262701
 30
0.0
  0
SPLINE
  5
1c8
100
AcDbEntity
  8
Layer_1
 62
3
100
AcDbSpline
 70
8
 71
3
 72
8
 73
4
 74
0
 40
0
 40
0
 40
0
 40
0
 40
1
 40
1
 40
1
 40
1
 10
1.371029
 20
4.262701
 30
0.0
 10
1.369310
 20
4.264419
 30
0.0
 10
1.367275
 20
4.265278
 30
0.0
 10
1.364926
 20
4.265278
 30
0.0
  0
LINE
  5
1c9
100
AcDbEntity
  8
Layer_1
 62
3
100
AcDbLine
 10
1.364926
 20
4.265278
 30
0.0
 11
1.243398
 21
4.265278
 31
0.0
  0
SPLINE
  5
1ca
100
AcDbEntity
  8
Layer_1
 62
3
100
AcDbSpline
 70
8
 71
3
 72
8
 73
4
 74
0
 40
0
 40
0
 40
0
 40
0
 40
1
 40
1
 40
1
 40
1
 10
1.243398
 20
4.265278
 30
0.0
 10
1.241046
 20
4.265278
 30
0.0
 10
1.239012
 20
4.264464
 30
0.0
 10
1.237294
 20
4.262837
 30
0.0
  0
SPLINE
  5
1cb
100
AcDbEntity
  8
Layer_1
 62
3
100
AcDbSpline
 70
8
 71
3
 72
8
 73
4
 74
0
 40
0
 40
0
 40
0
 40
0
 40
1
 40
1
 40
1
 40
1
 10
1.237294
 20
4.262837
 30
0.0
 10
1.235575
 20
4.261209
 30
0.0
 10
1.234716
 20
4.259129
 30
0.0
 10
1.234716
 20
4.256597
 30
0.0
  0
LINE
  5
1cc
100
AcDbEntity
  8
Layer_1
 62
3
100
AcDbLine
 10
1.234716
 20
4.256597
 30
0.0
 11
1.234716
 21
4.204514
 31
0.0
  0
SPLINE
  5
1cd
100
AcDbEntity
  8
Layer_1
 62
3
100
AcDbSpline
 70
8
 71
3
 72
8
 73
4
 74
0
 40
0
 40
0
 40
0
 40
0
 40
1
 40
1
 40
1
 40
1
 10
1.234716
 20
4.204514
 30
0.0
 10
1.234716
 20
4.201982
 30
0.0
 10
1.235529
 20
4.199903
 30
0.0
 10
1.237157
 20
4.198275
 30
0.0
  0
SPLINE
  5
1ce
100
AcDbEntity
  8
Layer_1
 62
3
100
AcDbSpline
 70
8
 71
3
 72
8
 73
4
 74
0
 40
0
 40
0
 40
0
 40
0
 40
1
 40
1
 40
1
 40
1
 10
1.237157
 20
4.198275
 30
0.0
 10
1.238784
 20
4.196647
 30
0.0
 10
1.240864
 20
4.195834
 30
0.0
 10
1.243396
 20
4.195834
 30
0.0
  0
LINE
  5
1cf
100
AcDbEntity
  8
Layer_1
 62
3
100
AcDbLine
 10
1.243396
 20
4.195834
 30
0.0
 11
1.364928
 21
4.195833
 31
0.0
  0
SPLINE
  5
1d0
100
AcDbEntity
  8
Layer_1
 62
3
100
AcDbSpline
 70
8
 71
3
 72
8
 73
4
 74
0
 40
0
 40
0
 40
0
 40
0
 40
1
 40
1
 40
1
 40
1
 10
1.217358
 20
4.056944
 30
0.0
 10
1.214917
 20
4.056944
 30
0.0
 10
1.212612
 20
4.057396
 30
0.0
 10
1.210441
 20
4.058301
 30
0.0
  0
SPLINE
  5
1d1
100
AcDbEntity
  8
Layer_1
 62
3
100
AcDbSpline
 70
8
 71
3
 72
8
 73
4
 74
0
 40
0
 40
0
 40
0
 40
0
 40
1
 40
1
 40
1
 40
1
 10
1.210441
 20
4.058301
 30
0.0
 10
1.208362
 20
4.059205
 30
0.0
 10
1.206554
 20
4.060426
 30
0.0
 10
1.205015
 20
4.061963
 30
0.0
  0
SPLINE
  5
1d2
100
AcDbEntity
  8
Layer_1
 62
3
100
AcDbSpline
 70
8
 71
3
 72
8
 73
4
 74
0
 40
0
 40
0
 40
0
 40
0
 40
1
 40
1
 40
1
 40
1
 10
1.205015
 20
4.061963
 30
0.0
 10
1.203477
 20
4.063500
 30
0.0
 10
1.202257
 20
4.065309
 30
0.0
 10
1.201354
 20
4.067388
 30
0.0
  0
SPLINE
  5
1d3
100
AcDbEntity
  8
Layer_1
 62
3
100
AcDbSpline
 70
8
 71
3
 72
8
 73
4
 74
0
 40
0
 40
0
 40
0
 40
0
 40
1
 40
1
 40
1
 40
1
 10
1.201354
 20
4.067388
 30
0.0
 10
1.200451
 20
4.069558
 30
0.0
 10
1.200000
 20
4.071864
 30
0.0
 10
1.200000
 20
4.074306
 30
0.0
  0
LINE
  5
1d4
100
AcDbEntity
  8
Layer_1
 62
3
100
AcDbLine
 10
1.200000
 20
4.074306
 30
0.0
 11
1.200000
 21
4.282639
 31
0.0
  0
SPLINE
  5
1d5
100
AcDbEntity
  8
Layer_1
 62
3
100
AcDbSpline
 70
8
 71
3
 72
8
 73
4
 74
0
 40
0
 40
0
 40
0
 40
0
 40
1
 40
1
 40
1
 40
1
 10
1.200000
 20
4.282639
 30
0.0
 10
1.200000
 20
4.284990
 30
0.0
 10
1.200451
 20
4.287205
 30
0.0
 10
1.201354
 20
4.289285
 30
0.0
  0
SPLINE
  5
1d6
100
AcDbEntity
  8
Layer_1
 62
3
100
AcDbSpline
 70
8
 71
3
 72
8
 73
4
 74
0
 40
0
 40
0
 40
0
 40
0
 40
1
 40
1
 40
1
 40
1
 10
1.201354
 20
4.289285
 30
0.0
 10
1.202349
 20
4.291365
 30
0.0
 10
1.203615
 20
4.293173
 30
0.0
 10
1.205153
 20
4.294710
 30
0.0
  0
SPLINE
  5
1d7
100
AcDbEntity
  8
Layer_1
 62
3
100
AcDbSpline
 70
8
 71
3
 72
8
 73
4
 74
0
 40
0
 40
0
 40
0
 40
0
 40
1
 40
1
 40
1
 40
1
 10
1.205153
 20
4.294710
 30
0.0
 10
1.206780
 20
4.296338
 30
0.0
 10
1.208634
 20
4.297604
 30
0.0
 10
1.210714
 20
4.298508
 30
0.0
  0
SPLINE
  5
1d8
100
AcDbEntity
  8
Layer_1
 62
3
100
AcDbSpline
 70
8
 71
3
 72
8
 73
4
 74
0
 40
0
 40
0
 40
0
 40
0
 40
1
 40
1
 40
1
 40
1
 10
1.210714
 20
4.298508
 30
0.0
 10
1.212793
 20
4.299503
 30
0.0
 10
1.215008
 20
4.300000
 30
0.0
 10
1.217360
 20
4.300000
 30
0.0
  0
LINE
  5
1d9
100
AcDbEntity
  8
Layer_1
 62
3
100
AcDbLine
 10
1.217360
 20
4.300000
 30
0.0
 11
1.390971
 21
4.300000
 31
0.0
  0
SPLINE
  5
1da
100
AcDbEntity
  8
Layer_1
 62
3
100
AcDbSpline
 70
8
 71
3
 72
8
 73
4
 74
0
 40
0
 40
0
 40
0
 40
0
 40
1
 40
1
 40
1
 40
1
 10
1.390971
 20
4.300000
 30
0.0
 10
1.393323
 20
4.300000
 30
0.0
 10
1.395538
 20
4.299503
 30
0.0
 10
1.397617
 20
4.298508
 30
0.0
  0
SPLINE
  5
1db
100
AcDbEntity
  8
Layer_1
 62
3
100
AcDbSpline
 70
8
 71
3
 72
8
 73
4
 74
0
 40
0
 40
0
 40
0
 40
0
 40
1
 40
1
 40
1
 40
1
 10
1.397617
 20
4.298508
 30
0.0
 10
1.399696
 20
4.297604
 30
0.0
 10
1.401504
 20
4.296338
 30
0.0
 10
1.403043
 20
4.294710
 30
0.0
  0
SPLINE
  5
1dc
100
AcDbEntity
  8
Layer_1
 62
3
100
AcDbSpline
 70
8
 71
3
 72
8
 73
4
 74
0
 40
0
 40
0
 40
0
 40
0
 40
1
 40
1
 40
1
 40
1
 10
1.403043
 20
4.294710
 30
0.0
 10
1.404670
 20
4.293173
 30
0.0
 10
1.405936
 20
4.291365
 30
0.0
 10
1.406842
 20
4.289285
 30
0.0
  0
SPLINE
  5
1dd
100
AcDbEntity
  8
Layer_1
 62
3
100
AcDbSpline
 70
8
 71
3
 72
8
 73
4
 74
0
 40
0
 40
0
 40
0
 40
0
 40
1
 40
1
 40
1
 40
1
 10
1.406842
 20
4.289285
 30
0.0
 10
1.407836
 20
4.287205
 30
0.0
 10
1.408334
 20
4.284990
 30
0.0
 10
1.408334
 20
4.282639
 30
0.0
  0
LINE
  5
1de
100
AcDbEntity
  8
Layer_1
 62
3
100
AcDbLine
 10
1.408334
 20
4.282639
 30
0.0
 11
1.408334
 21
4.074306
 31
0.0
  0
SPLINE
  5
1df
100
AcDbEntity
  8
Layer_1
 62
3
100
AcDbSpline
 70
8
 71
3
 72
8
 73
4
 74
0
 40
0
 40
0
 40
0
 40
0
 40
1
 40
1
 40
1
 40
1
 10
1.408334
 20
4.074306
 30
0.0
 10
1.408334
 20
4.071955
 30
0.0
 10
1.407836
 20
4.069739
 30
0.0
 10
1.406842
 20
4.067659
 30
0.0
  0
SPLINE
  5
1e0
100
AcDbEntity
  8
Layer_1
 62
3
100
AcDbSpline
 70
8
 71
3
 72
8
 73
4
 74
0
 40
0
 40
0
 40
0
 40
0
 40
1
 40
1
 40
1
 40
1
 10
1.406842
 20
4.067659
 30
0.0
 10
1.405936
 20
4.065580
 30
0.0
 10
1.404670
 20
4.063726
 30
0.0
 10
1.403043
 20
4.062099
 30
0.0
  0
SPLINE
  5
1e1
100
AcDbEntity
  8
Layer_1
 62
3
100
AcDbSpline
 70
8
 71
3
 72
8
 73
4
 74
0
 40
0
 40
0
 40
0
 40
0
 40
1
 40
1
 40
1
 40
1
 10
1.403043
 20
4.062099
 30
0.0
 10
1.401504
 20
4.060561
 30
0.0
 10
1.399696
 20
4.059295
 30
0.0
 10
1.397617
 20
4.058301
 30
0.0
  0
SPLINE
  5
1e2
100
AcDbEntity
  8
Layer_1
 62
3
100
AcDbSpline
 70
8
 71
3
 72
8
 73
4
 74
0
 40
0
 40
0
 40
0
 40
0
 40
1
 40
1
 40
1
 40
1
 10
1.397617
 20
4.058301
 30
0.0
 10
1.395539
 20
4.057397
 30
0.0
 10
1.393323
 20
4.056945
 30
0.0
 10
1.390971
 20
4.056945
 30
0.0
  0
LINE
  5
1e3
100
AcDbEntity
  8
Layer_1
 62
3
100
AcDbLine
 10
1.390971
 20
4.056945
 30
0.0
 11
1.217358
 21
4.056944
 31
0.0
  0
SPLINE
  5
1e4
100
AcDbEntity
  8
Layer_1
 62
3
100
AcDbSpline
 70
8
 71
3
 72
8
 73
4
 74
0
 40
0
 40
0
 40
0
 40
0
 40
1
 40
1
 40
1
 40
1
 10
1.887013
 20
4.056944
 30
0.0
 10
1.884480
 20
4.056944
 30
0.0
 10
1.882400
 20
4.057758
 30
0.0
 10
1.880774
 20
4.059386
 30
0.0
  0
SPLINE
  5
1e5
100
AcDbEntity
  8
Layer_1
 62
3
100
AcDbSpline
 70
8
 71
3
 72
8
 73
4
 74
0
 40
0
 40
0
 40
0
 40
0
 40
1
 40
1
 40
1
 40
1
 10
1.880774
 20
4.059386
 30
0.0
 10
1.879146
 20
4.061013
 30
0.0
 10
1.878333
 20
4.063093
 30
0.0
 10
1.878333
 20
4.065625
 30
0.0
  0
LINE
  5
1e6
100
AcDbEntity
  8
Layer_1
 62
3
100
AcDbLine
 10
1.878333
 20
4.065625
 30
0.0
 11
1.878333
 21
4.282639
 31
0.0
  0
SPLINE
  5
1e7
100
AcDbEntity
  8
Layer_1
 62
3
100
AcDbSpline
 70
8
 71
3
 72
8
 73
4
 74
0
 40
0
 40
0
 40
0
 40
0
 40
1
 40
1
 40
1
 40
1
 10
1.878333
 20
4.282639
 30
0.0
 10
1.878333
 20
4.284990
 30
0.0
 10
1.878784
 20
4.287205
 30
0.0
 10
1.879687
 20
4.289285
 30
0.0
  0
SPLINE
  5
1e8
100
AcDbEntity
  8
Layer_1
 62
3
100
AcDbSpline
 70
8
 71
3
 72
8
 73
4
 74
0
 40
0
 40
0
 40
0
 40
0
 40
1
 40
1
 40
1
 40
1
 10
1.879687
 20
4.289285
 30
0.0
 10
1.880682
 20
4.291365
 30
0.0
 10
1.881948
 20
4.293173
 30
0.0
 10
1.883486
 20
4.294710
 30
0.0
  0
SPLINE
  5
1e9
100
AcDbEntity
  8
Layer_1
 62
3
100
AcDbSpline
 70
8
 71
3
 72
8
 73
4
 74
0
 40
0
 40
0
 40
0
 40
0
 40
1
 40
1
 40
1
 40
1
 10
1.883486
 20
4.294710
 30
0.0
 10
1.885114
 20
4.296338
 30
0.0
 10
1.886967
 20
4.297604
 30
0.0
 10
1.889047
 20
4.298508
 30
0.0
  0
SPLINE
  5
1ea
100
AcDbEntity
  8
Layer_1
 62
3
100
AcDbSpline
 70
8
 71
3
 72
8
 73
4
 74
0
 40
0
 40
0
 40
0
 40
0
 40
1
 40
1
 40
1
 40
1
 10
1.889047
 20
4.298508
 30
0.0
 10
1.891126
 20
4.299503
 30
0.0
 10
1.893341
 20
4.300000
 30
0.0
 10
1.895693
 20
4.300000
 30
0.0
  0
LINE
  5
1eb
100
AcDbEntity
  8
Layer_1
 62
3
100
AcDbLine
 10
1.895693
 20
4.300000
 30
0.0
 11
2.069304
 21
4.300000
 31
0.0
  0
SPLINE
  5
1ec
100
AcDbEntity
  8
Layer_1
 62
3
100
AcDbSpline
 70
8
 71
3
 72
8
 73
4
 74
0
 40
0
 40
0
 40
0
 40
0
 40
1
 40
1
 40
1
 40
1
 10
2.069304
 20
4.300000
 30
0.0
 10
2.071656
 20
4.300000
 30
0.0
 10
2.073871
 20
4.299503
 30
0.0
 10
2.075950
 20
4.298508
 30
0.0
  0
SPLINE
  5
1ed
100
AcDbEntity
  8
Layer_1
 62
3
100
AcDbSpline
 70
8
 71
3
 72
8
 73
4
 74
0
 40
0
 40
0
 40
0
 40
0
 40
1
 40
1
 40
1
 40
1
 10
2.075950
 20
4.298508
 30
0.0
 10
2.078029
 20
4.297604
 30
0.0
 10
2.079838
 20
4.296338
 30
0.0
 10
2.081376
 20
4.294710
 30
0.0
  0
SPLINE
  5
1ee
100
AcDbEntity
  8
Layer_1
 62
3
100
AcDbSpline
 70
8
 71
3
 72
8
 73
4
 74
0
 40
0
 40
0
 40
0
 40
0
 40
1
 40
1
 40
1
 40
1
 10
2.081376
 20
4.294710
 30
0.0
 10
2.083003
 20
4.293173
 30
0.0
 10
2.084270
 20
4.291364
 30
0.0
 10
2.085175
 20
4.289285
 30
0.0
  0
SPLINE
  5
1ef
100
AcDbEntity
  8
Layer_1
 62
3
100
AcDbSpline
 70
8
 71
3
 72
8
 73
4
 74
0
 40
0
 40
0
 40
0
 40
0
 40
1
 40
1
 40
1
 40
1
 10
2.085175
 20
4.289285
 30
0.0
 10
2.086170
 20
4.287205
 30
0.0
 10
2.086667
 20
4.284990
 30
0.0
 10
2.086667
 20
4.282639
 30
0.0
  0
LINE
  5
1f0
100
AcDbEntity
  8
Layer_1
 62
3
100
AcDbLine
 10
2.086667
 20
4.282639
 30
0.0
 11
2.086667
 21
4.169792
 31
0.0
  0
SPLINE
  5
1f1
100
AcDbEntity
  8
Layer_1
 62
3
100
AcDbSpline
 70
8
 71
3
 72
8
 73
4
 74
0
 40
0
 40
0
 40
0
 40
0
 40
1
 40
1
 40
1
 40
1
 10
2.086667
 20
4.169792
 30
0.0
 10
2.086667
 20
4.167441
 30
0.0
 10
2.085854
 20
4.165406
 30
0.0
 10
2.084226
 20
4.163688
 30
0.0
  0
SPLINE
  5
1f2
100
AcDbEntity
  8
Layer_1
 62
3
100
AcDbSpline
 70
8
 71
3
 72
8
 73
4
 74
0
 40
0
 40
0
 40
0
 40
0
 40
1
 40
1
 40
1
 40
1
 10
2.084226
 20
4.163688
 30
0.0
 10
2.082599
 20
4.161970
 30
0.0
 10
2.080519
 20
4.161111
 30
0.0
 10
2.077987
 20
4.161111
 30
0.0
  0
LINE
  5
1f3
100
AcDbEntity
  8
Layer_1
 62
3
100
AcDbLine
 10
2.077987
 20
4.161111
 30
0.0
 11
2.060626
 21
4.161111
 31
0.0
  0
SPLINE
  5
1f4
100
AcDbEntity
  8
Layer_1
 62
3
100
AcDbSpline
 70
8
 71
3
 72
8
 73
4
 74
0
 40
0
 40
0
 40
0
 40
0
 40
1
 40
1
 40
1
 40
1
 10
2.060626
 20
4.161111
 30
0.0
 10
2.058094
 20
4.161111
 30
0.0
 10
2.056014
 20
4.161925
 30
0.0
 10
2.054387
 20
4.163552
 30
0.0
  0
SPLINE
  5
1f5
100
AcDbEntity
  8
Layer_1
 62
3
100
AcDbSpline
 70
8
 71
3
 72
8
 73
4
 74
0
 40
0
 40
0
 40
0
 40
0
 40
1
 40
1
 40
1
 40
1
 10
2.054387
 20
4.163552
 30
0.0
 10
2.052760
 20
4.165180
 30
0.0
 10
2.051946
 20
4.167259
 30
0.0
 10
2.051946
 20
4.169791
 30
0.0
  0
LINE
  5
1f6
100
AcDbEntity
  8
Layer_1
 62
3
100
AcDbLine
 10
2.051946
 20
4.169791
 30
0.0
 11
2.051946
 21
4.256597
 31
0.0
  0
SPLINE
  5
1f7
100
AcDbEntity
  8
Layer_1
 62
3
100
AcDbSpline
 70
8
 71
3
 72
8
 73
4
 74
0
 40
0
 40
0
 40
0
 40
0
 40
1
 40
1
 40
1
 40
1
 10
2.051946
 20
4.256597
 30
0.0
 10
2.051946
 20
4.258948
 30
0.0
 10
2.051086
 20
4.260982
 30
0.0
 10
2.049367
 20
4.262700
 30
0.0
  0
SPLINE
  5
1f8
100
AcDbEntity
  8
Layer_1
 62
3
100
AcDbSpline
 70
8
 71
3
 72
8
 73
4
 74
0
 40
0
 40
0
 40
0
 40
0
 40
1
 40
1
 40
1
 40
1
 10
2.049367
 20
4.262700
 30
0.0
 10
2.047651
 20
4.264419
 30
0.0
 10
2.045616
 20
4.265278
 30
0.0
 10
2.043264
 20
4.265278
 30
0.0
  0
LINE
  5
1f9
100
AcDbEntity
  8
Layer_1
 62
3
100
AcDbLine
 10
2.043264
 20
4.265278
 30
0.0
 11
1.921736
 21
4.265278
 31
0.0
  0
SPLINE
  5
1fa
100
AcDbEntity
  8
Layer_1
 62
3
100
AcDbSpline
 70
8
 71
3
 72
8
 73
4
 74
0
 40
0
 40
0
 40
0
 40
0
 40
1
 40
1
 40
1
 40
1
 10
1.921736
 20
4.265278
 30
0.0
 10
1.919385
 20
4.265278
 30
0.0
 10
1.917350
 20
4.264464
 30
0.0
 10
1.915633
 20
4.262836
 30
0.0
  0
SPLINE
  5
1fb
100
AcDbEntity
  8
Layer_1
 62
3
100
AcDbSpline
 70
8
 71
3
 72
8
 73
4
 74
0
 40
0
 40
0
 40
0
 40
0
 40
1
 40
1
 40
1
 40
1
 10
1.915633
 20
4.262836
 30
0.0
 10
1.913914
 20
4.261209
 30
0.0
 10
1.913054
 20
4.259129
 30
0.0
 10
1.913054
 20
4.256597
 30
0.0
  0
LINE
  5
1fc
100
AcDbEntity
  8
Layer_1
 62
3
100
AcDbLine
 10
1.913054
 20
4.256597
 30
0.0
 11
1.913054
 21
4.065625
 31
0.0
  0
SPLINE
  5
1fd
100
AcDbEntity
  8
Layer_1
 62
3
100
AcDbSpline
 70
8
 71
3
 72
8
 73
4
 74
0
 40
0
 40
0
 40
0
 40
0
 40
1
 40
1
 40
1
 40
1
 10
1.913054
 20
4.065625
 30
0.0
 10
1.913054
 20
4.063274
 30
0.0
 10
1.912240
 20
4.061239
 30
0.0
 10
1.910613
 20
4.059521
 30
0.0
  0
SPLINE
  5
1fe
100
AcDbEntity
  8
Layer_1
 62
3
100
AcDbSpline
 70
8
 71
3
 72
8
 73
4
 74
0
 40
0
 40
0
 40
0
 40
0
 40
1
 40
1
 40
1
 40
1
 10
1.910613
 20
4.059521
 30
0.0
 10
1.908986
 20
4.057803
 30
0.0
 10
1.906906
 20
4.056944
 30
0.0
 10
1.904374
 20
4.056944
 30
0.0
  0
LINE
  5
1ff
100
AcDbEntity
  8
Layer_1
 62
3
100
AcDbLine
 10
1.904374
 20
4.056944
 30
0.0
 11
1.887013
 21
4.056944
 31
0.0
  0
SPLINE
  5
200
100
AcDbEntity
  8
Layer_1
 62
3
100
AcDbSpline
 70
8
 71
3
 72
8
 73
4
 74
0
 40
0
 40
0
 40
0
 40
0
 40
1
 40
1
 40
1
 40
1
 10
2.565342
 20
4.056944
 30
0.0
 10
2.562809
 20
4.056944
 30
0.0
 10
2.560730
 20
4.057758
 30
0.0
 10
2.559103
 20
4.059386
 30
0.0
  0
SPLINE
  5
201
100
AcDbEntity
  8
Layer_1
 62
3
100
AcDbSpline
 70
8
 71
3
 72
8
 73
4
 74
0
 40
0
 40
0
 40
0
 40
0
 40
1
 40
1
 40
1
 40
1
 10
2.559103
 20
4.059386
 30
0.0
 10
2.557475
 20
4.061013
 30
0.0
 10
2.556662
 20
4.063093
 30
0.0
 10
2.556662
 20
4.065625
 30
0.0
  0
LINE
  5
202
100
AcDbEntity
  8
Layer_1
 62
3
100
AcDbLine
 10
2.556662
 20
4.065625
 30
0.0
 11
2.556662
 21
4.082986
 31
0.0
  0
SPLINE
  5
203
100
AcDbEntity
  8
Layer_1
 62
3
100
AcDbSpline
 70
8
 71
3
 72
8
 73
4
 74
0
 40
0
 40
0
 40
0
 40
0
 40
1
 40
1
 40
1
 40
1
 10
2.556662
 20
4.082986
 30
0.0
 10
2.556662
 20
4.085518
 30
0.0
 10
2.557521
 20
4.087597
 30
0.0
 10
2.559241
 20
4.089225
 30
0.0
  0
SPLINE
  5
204
100
AcDbEntity
  8
Layer_1
 62
3
100
AcDbSpline
 70
8
 71
3
 72
8
 73
4
 74
0
 40
0
 40
0
 40
0
 40
0
 40
1
 40
1
 40
1
 40
1
 10
2.559241
 20
4.089225
 30
0.0
 10
2.560957
 20
4.090853
 30
0.0
 10
2.562992
 20
4.091666
 30
0.0
 10
2.565344
 20
4.091666
 30
0.0
  0
LINE
  5
205
100
AcDbEntity
  8
Layer_1
 62
3
100
AcDbLine
 10
2.565344
 20
4.091666
 30
0.0
 11
2.721594
 21
4.091666
 31
0.0
  0
SPLINE
  5
206
100
AcDbEntity
  8
Layer_1
 62
3
100
AcDbSpline
 70
8
 71
3
 72
8
 73
4
 74
0
 40
0
 40
0
 40
0
 40
0
 40
1
 40
1
 40
1
 40
1
 10
2.721594
 20
4.091666
 30
0.0
 10
2.724127
 20
4.091666
 30
0.0
 10
2.726207
 20
4.092526
 30
0.0
 10
2.727833
 20
4.094244
 30
0.0
  0
SPLINE
  5
207
100
AcDbEntity
  8
Layer_1
 62
3
100
AcDbSpline
 70
8
 71
3
 72
8
 73
4
 74
0
 40
0
 40
0
 40
0
 40
0
 40
1
 40
1
 40
1
 40
1
 10
2.727833
 20
4.094244
 30
0.0
 10
2.729460
 20
4.095962
 30
0.0
 10
2.730274
 20
4.097996
 30
0.0
 10
2.730274
 20
4.100347
 30
0.0
  0
LINE
  5
208
100
AcDbEntity
  8
Layer_1
 62
3
100
AcDbLine
 10
2.730274
 20
4.100347
 30
0.0
 11
2.730274
 21
4.117708
 31
0.0
  0
SPLINE
  5
209
100
AcDbEntity
  8
Layer_1
 62
3
100
AcDbSpline
 70
8
 71
3
 72
8
 73
4
 74
0
 40
0
 40
0
 40
0
 40
0
 40
1
 40
1
 40
1
 40
1
 10
2.730274
 20
4.117708
 30
0.0
 10
2.730274
 20
4.120059
 30
0.0
 10
2.729416
 20
4.122094
 30
0.0
 10
2.727699
 20
4.123812
 30
0.0
  0
SPLINE
  5
20a
100
AcDbEntity
  8
Layer_1
 62
3
100
AcDbSpline
 70
8
 71
3
 72
8
 73
4
 74
0
 40
0
 40
0
 40
0
 40
0
 40
1
 40
1
 40
1
 40
1
 10
2.727699
 20
4.123812
 30
0.0
 10
2.725980
 20
4.125530
 30
0.0
 10
2.723946
 20
4.126389
 30
0.0
 10
2.721596
 20
4.126389
 30
0.0
  0
LINE
  5
20b
100
AcDbEntity
  8
Layer_1
 62
3
100
AcDbLine
 10
2.721596
 20
4.126389
 30
0.0
 11
2.608748
 21
4.126389
 31
0.0
  0
SPLINE
  5
20c
100
AcDbEntity
  8
Layer_1
 62
3
100
AcDbSpline
 70
8
 71
3
 72
8
 73
4
 74
0
 40
0
 40
0
 40
0
 40
0
 40
1
 40
1
 40
1
 40
1
 10
2.608748
 20
4.126389
 30
0.0
 10
2.606307
 20
4.126389
 30
0.0
 10
2.604002
 20
4.126841
 30
0.0
 10
2.601831
 20
4.127745
 30
0.0
  0
SPLINE
  5
20d
100
AcDbEntity
  8
Layer_1
 62
3
100
AcDbSpline
 70
8
 71
3
 72
8
 73
4
 74
0
 40
0
 40
0
 40
0
 40
0
 40
1
 40
1
 40
1
 40
1
 10
2.601831
 20
4.127745
 30
0.0
 10
2.599752
 20
4.128649
 30
0.0
 10
2.597944
 20
4.129870
 30
0.0
 10
2.596406
 20
4.131407
 30
0.0
  0
SPLINE
  5
20e
100
AcDbEntity
  8
Layer_1
 62
3
100
AcDbSpline
 70
8
 71
3
 72
8
 73
4
 74
0
 40
0
 40
0
 40
0
 40
0
 40
1
 40
1
 40
1
 40
1
 10
2.596406
 20
4.131407
 30
0.0
 10
2.594867
 20
4.132945
 30
0.0
 10
2.593647
 20
4.134753
 30
0.0
 10
2.592744
 20
4.136833
 30
0.0
  0
SPLINE
  5
20f
100
AcDbEntity
  8
Layer_1
 62
3
100
AcDbSpline
 70
8
 71
3
 72
8
 73
4
 74
0
 40
0
 40
0
 40
0
 40
0
 40
1
 40
1
 40
1
 40
1
 10
2.592744
 20
4.136833
 30
0.0
 10
2.591839
 20
4.139003
 30
0.0
 10
2.591386
 20
4.141309
 30
0.0
 10
2.591386
 20
4.143750
 30
0.0
  0
LINE
  5
210
100
AcDbEntity
  8
Layer_1
 62
3
100
AcDbLine
 10
2.591386
 20
4.143750
 30
0.0
 11
2.591386
 21
4.213195
 31
0.0
  0
SPLINE
  5
211
100
AcDbEntity
  8
Layer_1
 62
3
100
AcDbSpline
 70
8
 71
3
 72
8
 73
4
 74
0
 40
0
 40
0
 40
0
 40
0
 40
1
 40
1
 40
1
 40
1
 10
2.591386
 20
4.213195
 30
0.0
 10
2.591386
 20
4.215545
 30
0.0
 10
2.591839
 20
4.217761
 30
0.0
 10
2.592744
 20
4.219841
 30
0.0
  0
SPLINE
  5
212
100
AcDbEntity
  8
Layer_1
 62
3
100
AcDbSpline
 70
8
 71
3
 72
8
 73
4
 74
0
 40
0
 40
0
 40
0
 40
0
 40
1
 40
1
 40
1
 40
1
 10
2.592744
 20
4.219841
 30
0.0
 10
2.593739
 20
4.221920
 30
0.0
 10
2.595005
 20
4.223729
 30
0.0
 10
2.596543
 20
4.225266
 30
0.0
  0
SPLINE
  5
213
100
AcDbEntity
  8
Layer_1
 62
3
100
AcDbSpline
 70
8
 71
3
 72
8
 73
4
 74
0
 40
0
 40
0
 40
0
 40
0
 40
1
 40
1
 40
1
 40
1
 10
2.596543
 20
4.225266
 30
0.0
 10
2.598171
 20
4.226894
 30
0.0
 10
2.600024
 20
4.228159
 30
0.0
 10
2.602104
 20
4.229064
 30
0.0
  0
SPLINE
  5
214
100
AcDbEntity
  8
Layer_1
 62
3
100
AcDbSpline
 70
8
 71
3
 72
8
 73
4
 74
0
 40
0
 40
0
 40
0
 40
0
 40
1
 40
1
 40
1
 40
1
 10
2.602104
 20
4.229064
 30
0.0
 10
2.604183
 20
4.230058
 30
0.0
 10
2.606398
 20
4.230556
 30
0.0
 10
2.608750
 20
4.230556
 30
0.0
  0
LINE
  5
215
100
AcDbEntity
  8
Layer_1
 62
3
100
AcDbLine
 10
2.608750
 20
4.230556
 30
0.0
 11
2.721598
 21
4.230556
 31
0.0
  0
SPLINE
  5
216
100
AcDbEntity
  8
Layer_1
 62
3
100
AcDbSpline
 70
8
 71
3
 72
8
 73
4
 74
0
 40
0
 40
0
 40
0
 40
0
 40
1
 40
1
 40
1
 40
1
 10
2.721598
 20
4.230556
 30
0.0
 10
2.724130
 20
4.230556
 30
0.0
 10
2.726210
 20
4.231415
 30
0.0
 10
2.727837
 20
4.233133
 30
0.0
  0
SPLINE
  5
217
100
AcDbEntity
  8
Layer_1
 62
3
100
AcDbSpline
 70
8
 71
3
 72
8
 73
4
 74
0
 40
0
 40
0
 40
0
 40
0
 40
1
 40
1
 40
1
 40
1
 10
2.727837
 20
4.233133
 30
0.0
 10
2.729464
 20
4.234851
 30
0.0
 10
2.730278
 20
4.236885
 30
0.0
 10
2.730278
 20
4.239236
 30
0.0
  0
LINE
  5
218
100
AcDbEntity
  8
Layer_1
 62
3
100
AcDbLine
 10
2.730278
 20
4.239236
 30
0.0
 11
2.730278
 21
4.256597
 31
0.0
  0
SPLINE
  5
219
100
AcDbEntity
  8
Layer_1
 62
3
100
AcDbSpline
 70
8
 71
3
 72
8
 73
4
 74
0
 40
0
 40
0
 40
0
 40
0
 40
1
 40
1
 40
1
 40
1
 10
2.730278
 20
4.256597
 30
0.0
 10
2.730278
 20
4.258948
 30
0.0
 10
2.729419
 20
4.260983
 30
0.0
 10
2.727703
 20
4.262701
 30
0.0
  0
SPLINE
  5
21a
100
AcDbEntity
  8
Layer_1
 62
3
100
AcDbSpline
 70
8
 71
3
 72
8
 73
4
 74
0
 40
0
 40
0
 40
0
 40
0
 40
1
 40
1
 40
1
 40
1
 10
2.727703
 20
4.262701
 30
0.0
 10
2.725984
 20
4.264419
 30
0.0
 10
2.723949
 20
4.265278
 30
0.0
 10
2.721599
 20
4.265278
 30
0.0
  0
LINE
  5
21b
100
AcDbEntity
  8
Layer_1
 62
3
100
AcDbLine
 10
2.721599
 20
4.265278
 30
0.0
 11
2.565349
 21
4.265278
 31
0.0
  0
SPLINE
  5
21c
100
AcDbEntity
  8
Layer_1
 62
3
100
AcDbSpline
 70
8
 71
3
 72
8
 73
4
 74
0
 40
0
 40
0
 40
0
 40
0
 40
1
 40
1
 40
1
 40
1
 10
2.565349
 20
4.265278
 30
0.0
 10
2.562816
 20
4.265278
 30
0.0
 10
2.560737
 20
4.266092
 30
0.0
 10
2.559110
 20
4.267719
 30
0.0
  0
SPLINE
  5
21d
100
AcDbEntity
  8
Layer_1
 62
3
100
AcDbSpline
 70
8
 71
3
 72
8
 73
4
 74
0
 40
0
 40
0
 40
0
 40
0
 40
1
 40
1
 40
1
 40
1
 10
2.559110
 20
4.267719
 30
0.0
 10
2.557483
 20
4.269347
 30
0.0
 10
2.556669
 20
4.271427
 30
0.0
 10
2.556669
 20
4.273959
 30
0.0
  0
LINE
  5
21e
100
AcDbEntity
  8
Layer_1
 62
3
100
AcDbLine
 10
2.556669
 20
4.273959
 30
0.0
 11
2.556669
 21
4.291320
 31
0.0
  0
SPLINE
  5
21f
100
AcDbEntity
  8
Layer_1
 62
3
100
AcDbSpline
 70
8
 71
3
 72
8
 73
4
 74
0
 40
0
 40
0
 40
0
 40
0
 40
1
 40
1
 40
1
 40
1
 10
2.556669
 20
4.291320
 30
0.0
 10
2.556669
 20
4.293852
 30
0.0
 10
2.557528
 20
4.295931
 30
0.0
 10
2.559248
 20
4.297559
 30
0.0
  0
SPLINE
  5
220
100
AcDbEntity
  8
Layer_1
 62
3
100
AcDbSpline
 70
8
 71
3
 72
8
 73
4
 74
0
 40
0
 40
0
 40
0
 40
0
 40
1
 40
1
 40
1
 40
1
 10
2.559248
 20
4.297559
 30
0.0
 10
2.560964
 20
4.299186
 30
0.0
 10
2.562999
 20
4.300000
 30
0.0
 10
2.565351
 20
4.300000
 30
0.0
  0
LINE
  5
221
100
AcDbEntity
  8
Layer_1
 62
3
100
AcDbLine
 10
2.565351
 20
4.300000
 30
0.0
 11
2.747643
 21
4.300000
 31
0.0
  0
SPLINE
  5
222
100
AcDbEntity
  8
Layer_1
 62
3
100
AcDbSpline
 70
8
 71
3
 72
8
 73
4
 74
0
 40
0
 40
0
 40
0
 40
0
 40
1
 40
1
 40
1
 40
1
 10
2.747643
 20
4.300000
 30
0.0
 10
2.749995
 20
4.300000
 30
0.0
 10
2.752210
 20
4.299503
 30
0.0
 10
2.754289
 20
4.298508
 30
0.0
  0
SPLINE
  5
223
100
AcDbEntity
  8
Layer_1
 62
3
100
AcDbSpline
 70
8
 71
3
 72
8
 73
4
 74
0
 40
0
 40
0
 40
0
 40
0
 40
1
 40
1
 40
1
 40
1
 10
2.754289
 20
4.298508
 30
0.0
 10
2.756368
 20
4.297604
 30
0.0
 10
2.758176
 20
4.296338
 30
0.0
 10
2.759715
 20
4.294710
 30
0.0
  0
SPLINE
  5
224
100
AcDbEntity
  8
Layer_1
 62
3
100
AcDbSpline
 70
8
 71
3
 72
8
 73
4
 74
0
 40
0
 40
0
 40
0
 40
0
 40
1
 40
1
 40
1
 40
1
 10
2.759715
 20
4.294710
 30
0.0
 10
2.761342
 20
4.293173
 30
0.0
 10
2.762608
 20
4.291365
 30
0.0
 10
2.763514
 20
4.289285
 30
0.0
  0
SPLINE
  5
225
100
AcDbEntity
  8
Layer_1
 62
3
100
AcDbSpline
 70
8
 71
3
 72
8
 73
4
 74
0
 40
0
 40
0
 40
0
 40
0
 40
1
 40
1
 40
1
 40
1
 10
2.763514
 20
4.289285
 30
0.0
 10
2.764509
 20
4.287205
 30
0.0
 10
2.765006
 20
4.284990
 30
0.0
 10
2.765006
 20
4.282639
 30
0.0
  0
LINE
  5
226
100
AcDbEntity
  8
Layer_1
 62
3
100
AcDbLine
 10
2.765006
 20
4.282639
 30
0.0
 11
2.765006
 21
4.213195
 31
0.0
  0
SPLINE
  5
227
100
AcDbEntity
  8
Layer_1
 62
3
100
AcDbSpline
 70
8
 71
3
 72
8
 73
4
 74
0
 40
0
 40
0
 40
0
 40
0
 40
1
 40
1
 40
1
 40
1
 10
2.765006
 20
4.213195
 30
0.0
 10
2.765006
 20
4.210844
 30
0.0
 10
2.764509
 20
4.208628
 30
0.0
 10
2.763514
 20
4.206549
 30
0.0
  0
SPLINE
  5
228
100
AcDbEntity
  8
Layer_1
 62
3
100
AcDbSpline
 70
8
 71
3
 72
8
 73
4
 74
0
 40
0
 40
0
 40
0
 40
0
 40
1
 40
1
 40
1
 40
1
 10
2.763514
 20
4.206549
 30
0.0
 10
2.762611
 20
4.204469
 30
0.0
 10
2.761344
 20
4.202615
 30
0.0
 10
2.759715
 20
4.200988
 30
0.0
  0
SPLINE
  5
229
100
AcDbEntity
  8
Layer_1
 62
3
100
AcDbSpline
 70
8
 71
3
 72
8
 73
4
 74
0
 40
0
 40
0
 40
0
 40
0
 40
1
 40
1
 40
1
 40
1
 10
2.759715
 20
4.200988
 30
0.0
 10
2.758177
 20
4.199450
 30
0.0
 10
2.756368
 20
4.198184
 30
0.0
 10
2.754289
 20
4.197190
 30
0.0
  0
SPLINE
  5
22a
100
AcDbEntity
  8
Layer_1
 62
3
100
AcDbSpline
 70
8
 71
3
 72
8
 73
4
 74
0
 40
0
 40
0
 40
0
 40
0
 40
1
 40
1
 40
1
 40
1
 10
2.754289
 20
4.197190
 30
0.0
 10
2.752210
 20
4.196286
 30
0.0
 10
2.749995
 20
4.195834
 30
0.0
 10
2.747643
 20
4.195834
 30
0.0
  0
LINE
  5
22b
100
AcDbEntity
  8
Layer_1
 62
3
100
AcDbLine
 10
2.747643
 20
4.195834
 30
0.0
 11
2.634796
 21
4.195834
 31
0.0
  0
SPLINE
  5
22c
100
AcDbEntity
  8
Layer_1
 62
3
100
AcDbSpline
 70
8
 71
3
 72
8
 73
4
 74
0
 40
0
 40
0
 40
0
 40
0
 40
1
 40
1
 40
1
 40
1
 10
2.634796
 20
4.195834
 30
0.0
 10
2.632444
 20
4.195834
 30
0.0
 10
2.630409
 20
4.195020
 30
0.0
 10
2.628692
 20
4.193392
 30
0.0
  0
SPLINE
  5
22d
100
AcDbEntity
  8
Layer_1
 62
3
100
AcDbSpline
 70
8
 71
3
 72
8
 73
4
 74
0
 40
0
 40
0
 40
0
 40
0
 40
1
 40
1
 40
1
 40
1
 10
2.628692
 20
4.193392
 30
0.0
 10
2.626973
 20
4.191765
 30
0.0
 10
2.626113
 20
4.189685
 30
0.0
 10
2.626113
 20
4.187153
 30
0.0
  0
LINE
  5
22e
100
AcDbEntity
  8
Layer_1
 62
3
100
AcDbLine
 10
2.626113
 20
4.187153
 30
0.0
 11
2.626113
 21
4.169792
 31
0.0
  0
SPLINE
  5
22f
100
AcDbEntity
  8
Layer_1
 62
3
100
AcDbSpline
 70
8
 71
3
 72
8
 73
4
 74
0
 40
0
 40
0
 40
0
 40
0
 40
1
 40
1
 40
1
 40
1
 10
2.626113
 20
4.169792
 30
0.0
 10
2.626113
 20
4.167260
 30
0.0
 10
2.626927
 20
4.165181
 30
0.0
 10
2.628554
 20
4.163553
 30
0.0
  0
SPLINE
  5
230
100
AcDbEntity
  8
Layer_1
 62
3
100
AcDbSpline
 70
8
 71
3
 72
8
 73
4
 74
0
 40
0
 40
0
 40
0
 40
0
 40
1
 40
1
 40
1
 40
1
 10
2.628554
 20
4.163553
 30
0.0
 10
2.630182
 20
4.161925
 30
0.0
 10
2.632261
 20
4.161112
 30
0.0
 10
2.634793
 20
4.161112
 30
0.0
  0
LINE
  5
231
100
AcDbEntity
  8
Layer_1
 62
3
100
AcDbLine
 10
2.634793
 20
4.161112
 30
0.0
 11
2.747641
 21
4.161112
 31
0.0
  0
SPLINE
  5
232
100
AcDbEntity
  8
Layer_1
 62
3
100
AcDbSpline
 70
8
 71
3
 72
8
 73
4
 74
0
 40
0
 40
0
 40
0
 40
0
 40
1
 40
1
 40
1
 40
1
 10
2.747641
 20
4.161112
 30
0.0
 10
2.749992
 20
4.161112
 30
0.0
 10
2.752208
 20
4.160614
 30
0.0
 10
2.754287
 20
4.159619
 30
0.0
  0
SPLINE
  5
233
100
AcDbEntity
  8
Layer_1
 62
3
100
AcDbSpline
 70
8
 71
3
 72
8
 73
4
 74
0
 40
0
 40
0
 40
0
 40
0
 40
1
 40
1
 40
1
 40
1
 10
2.754287
 20
4.159619
 30
0.0
 10
2.756365
 20
4.158715
 30
0.0
 10
2.758174
 20
4.157449
 30
0.0
 10
2.759712
 20
4.155822
 30
0.0
  0
SPLINE
  5
234
100
AcDbEntity
  8
Layer_1
 62
3
100
AcDbSpline
 70
8
 71
3
 72
8
 73
4
 74
0
 40
0
 40
0
 40
0
 40
0
 40
1
 40
1
 40
1
 40
1
 10
2.759712
 20
4.155822
 30
0.0
 10
2.761340
 20
4.154285
 30
0.0
 10
2.762606
 20
4.152476
 30
0.0
 10
2.763511
 20
4.150396
 30
0.0
  0
SPLINE
  5
235
100
AcDbEntity
  8
Layer_1
 62
3
100
AcDbSpline
 70
8
 71
3
 72
8
 73
4
 74
0
 40
0
 40
0
 40
0
 40
0
 40
1
 40
1
 40
1
 40
1
 10
2.763511
 20
4.150396
 30
0.0
 10
2.764506
 20
4.148317
 30
0.0
 10
2.765004
 20
4.146101
 30
0.0
 10
2.765004
 20
4.143750
 30
0.0
  0
LINE
  5
236
100
AcDbEntity
  8
Layer_1
 62
3
100
AcDbLine
 10
2.765004
 20
4.143750
 30
0.0
 11
2.765004
 21
4.074306
 31
0.0
  0
SPLINE
  5
237
100
AcDbEntity
  8
Layer_1
 62
3
100
AcDbSpline
 70
8
 71
3
 72
8
 73
4
 74
0
 40
0
 40
0
 40
0
 40
0
 40
1
 40
1
 40
1
 40
1
 10
2.765004
 20
4.074306
 30
0.0
 10
2.765004
 20
4.071955
 30
0.0
 10
2.764506
 20
4.069740
 30
0.0
 10
2.763511
 20
4.067660
 30
0.0
  0
SPLINE
  5
238
100
AcDbEntity
  8
Layer_1
 62
3
100
AcDbSpline
 70
8
 71
3
 72
8
 73
4
 74
0
 40
0
 40
0
 40
0
 40
0
 40
1
 40
1
 40
1
 40
1
 10
2.763511
 20
4.067660
 30
0.0
 10
2.762609
 20
4.065580
 30
0.0
 10
2.761342
 20
4.063726
 30
0.0
 10
2.759712
 20
4.062099
 30
0.0
  0
SPLINE
  5
239
100
AcDbEntity
  8
Layer_1
 62
3
100
AcDbSpline
 70
8
 71
3
 72
8
 73
4
 74
0
 40
0
 40
0
 40
0
 40
0
 40
1
 40
1
 40
1
 40
1
 10
2.759712
 20
4.062099
 30
0.0
 10
2.758174
 20
4.060562
 30
0.0
 10
2.756366
 20
4.059296
 30
0.0
 10
2.754287
 20
4.058301
 30
0.0
  0
SPLINE
  5
23a
100
AcDbEntity
  8
Layer_1
 62
3
100
AcDbSpline
 70
8
 71
3
 72
8
 73
4
 74
0
 40
0
 40
0
 40
0
 40
0
 40
1
 40
1
 40
1
 40
1
 10
2.754287
 20
4.058301
 30
0.0
 10
2.752208
 20
4.057397
 30
0.0
 10
2.749993
 20
4.056945
 30
0.0
 10
2.747641
 20
4.056945
 30
0.0
  0
LINE
  5
23b
100
AcDbEntity
  8
Layer_1
 62
3
100
AcDbLine
 10
2.747641
 20
4.056945
 30
0.0
 11
2.565342
 21
4.056944
 31
0.0
  0
SPLINE
  5
23c
100
AcDbEntity
  8
Layer_1
 62
3
100
AcDbSpline
 70
8
 71
3
 72
8
 73
4
 74
0
 40
0
 40
0
 40
0
 40
0
 40
1
 40
1
 40
1
 40
1
 10
3.252358
 20
4.056944
 30
0.0
 10
3.249917
 20
4.056944
 30
0.0
 10
3.247611
 20
4.057396
 30
0.0
 10
3.245441
 20
4.058301
 30
0.0
  0
SPLINE
  5
23d
100
AcDbEntity
  8
Layer_1
 62
3
100
AcDbSpline
 70
8
 71
3
 72
8
 73
4
 74
0
 40
0
 40
0
 40
0
 40
0
 40
1
 40
1
 40
1
 40
1
 10
3.245441
 20
4.058301
 30
0.0
 10
3.243362
 20
4.059205
 30
0.0
 10
3.241553
 20
4.060426
 30
0.0
 10
3.240015
 20
4.061963
 30
0.0
  0
SPLINE
  5
23e
100
AcDbEntity
  8
Layer_1
 62
3
100
AcDbSpline
 70
8
 71
3
 72
8
 73
4
 74
0
 40
0
 40
0
 40
0
 40
0
 40
1
 40
1
 40
1
 40
1
 10
3.240015
 20
4.061963
 30
0.0
 10
3.238477
 20
4.063500
 30
0.0
 10
3.237257
 20
4.065309
 30
0.0
 10
3.236354
 20
4.067388
 30
0.0
  0
SPLINE
  5
23f
100
AcDbEntity
  8
Layer_1
 62
3
100
AcDbSpline
 70
8
 71
3
 72
8
 73
4
 74
0
 40
0
 40
0
 40
0
 40
0
 40
1
 40
1
 40
1
 40
1
 10
3.236354
 20
4.067388
 30
0.0
 10
3.235451
 20
4.069558
 30
0.0
 10
3.235000
 20
4.071864
 30
0.0
 10
3.235000
 20
4.074306
 30
0.0
  0
LINE
  5
240
100
AcDbEntity
  8
Layer_1
 62
3
100
AcDbLine
 10
3.235000
 20
4.074306
 30
0.0
 11
3.235000
 21
4.291319
 31
0.0
  0
SPLINE
  5
241
100
AcDbEntity
  8
Layer_1
 62
3
100
AcDbSpline
 70
8
 71
3
 72
8
 73
4
 74
0
 40
0
 40
0
 40
0
 40
0
 40
1
 40
1
 40
1
 40
1
 10
3.235000
 20
4.291319
 30
0.0
 10
3.235000
 20
4.293851
 30
0.0
 10
3.235859
 20
4.295931
 30
0.0
 10
3.237578
 20
4.297559
 30
0.0
  0
SPLINE
  5
242
100
AcDbEntity
  8
Layer_1
 62
3
100
AcDbSpline
 70
8
 71
3
 72
8
 73
4
 74
0
 40
0
 40
0
 40
0
 40
0
 40
1
 40
1
 40
1
 40
1
 10
3.237578
 20
4.297559
 30
0.0
 10
3.239295
 20
4.299186
 30
0.0
 10
3.241329
 20
4.300000
 30
0.0
 10
3.243681
 20
4.300000
 30
0.0
  0
LINE
  5
243
100
AcDbEntity
  8
Layer_1
 62
3
100
AcDbLine
 10
3.243681
 20
4.300000
 30
0.0
 11
3.261043
 21
4.300000
 31
0.0
  0
SPLINE
  5
244
100
AcDbEntity
  8
Layer_1
 62
3
100
AcDbSpline
 70
8
 71
3
 72
8
 73
4
 74
0
 40
0
 40
0
 40
0
 40
0
 40
1
 40
1
 40
1
 40
1
 10
3.261043
 20
4.300000
 30
0.0
 10
3.263395
 20
4.300000
 30
0.0
 10
3.265429
 20
4.299141
 30
0.0
 10
3.267146
 20
4.297423
 30
0.0
  0
SPLINE
  5
245
100
AcDbEntity
  8
Layer_1
 62
3
100
AcDbSpline
 70
8
 71
3
 72
8
 73
4
 74
0
 40
0
 40
0
 40
0
 40
0
 40
1
 40
1
 40
1
 40
1
 10
3.267146
 20
4.297423
 30
0.0
 10
3.268863
 20
4.295705
 30
0.0
 10
3.269721
 20
4.293670
 30
0.0
 10
3.269721
 20
4.291319
 30
0.0
  0
LINE
  5
246
100
AcDbEntity
  8
Layer_1
 62
3
100
AcDbLine
 10
3.269721
 20
4.291319
 30
0.0
 11
3.269721
 21
4.204514
 31
0.0
  0
SPLINE
  5
247
100
AcDbEntity
  8
Layer_1
 62
3
100
AcDbSpline
 70
8
 71
3
 72
8
 73
4
 74
0
 40
0
 40
0
 40
0
 40
0
 40
1
 40
1
 40
1
 40
1
 10
3.269721
 20
4.204514
 30
0.0
 10
3.269721
 20
4.201982
 30
0.0
 10
3.270535
 20
4.199902
 30
0.0
 10
3.272162
 20
4.198275
 30
0.0
  0
SPLINE
  5
248
100
AcDbEntity
  8
Layer_1
 62
3
100
AcDbSpline
 70
8
 71
3
 72
8
 73
4
 74
0
 40
0
 40
0
 40
0
 40
0
 40
1
 40
1
 40
1
 40
1
 10
3.272162
 20
4.198275
 30
0.0
 10
3.273790
 20
4.196647
 30
0.0
 10
3.275869
 20
4.195833
 30
0.0
 10
3.278402
 20
4.195833
 30
0.0
  0
LINE
  5
249
100
AcDbEntity
  8
Layer_1
 62
3
100
AcDbLine
 10
3.278402
 20
4.195833
 30
0.0
 11
3.313124
 21
4.195833
 31
0.0
  0
SPLINE
  5
24a
100
AcDbEntity
  8
Layer_1
 62
3
100
AcDbSpline
 70
8
 71
3
 72
8
 73
4
 74
0
 40
0
 40
0
 40
0
 40
0
 40
1
 40
1
 40
1
 40
1
 10
3.313124
 20
4.195833
 30
0.0
 10
3.315656
 20
4.195833
 30
0.0
 10
3.317736
 20
4.196692
 30
0.0
 10
3.319363
 20
4.198410
 30
0.0
  0
SPLINE
  5
24b
100
AcDbEntity
  8
Layer_1
 62
3
100
AcDbSpline
 70
8
 71
3
 72
8
 73
4
 74
0
 40
0
 40
0
 40
0
 40
0
 40
1
 40
1
 40
1
 40
1
 10
3.319363
 20
4.198410
 30
0.0
 10
3.320990
 20
4.200128
 30
0.0
 10
3.321804
 20
4.202163
 30
0.0
 10
3.321804
 20
4.204514
 30
0.0
  0
LINE
  5
24c
100
AcDbEntity
  8
Layer_1
 62
3
100
AcDbLine
 10
3.321804
 20
4.204514
 30
0.0
 11
3.321804
 21
4.291319
 31
0.0
  0
SPLINE
  5
24d
100
AcDbEntity
  8
Layer_1
 62
3
100
AcDbSpline
 70
8
 71
3
 72
8
 73
4
 74
0
 40
0
 40
0
 40
0
 40
0
 40
1
 40
1
 40
1
 40
1
 10
3.321804
 20
4.291319
 30
0.0
 10
3.321804
 20
4.293851
 30
0.0
 10
3.322664
 20
4.295931
 30
0.0
 10
3.324383
 20
4.297559
 30
0.0
  0
SPLINE
  5
24e
100
AcDbEntity
  8
Layer_1
 62
3
100
AcDbSpline
 70
8
 71
3
 72
8
 73
4
 74
0
 40
0
 40
0
 40
0
 40
0
 40
1
 40
1
 40
1
 40
1
 10
3.324383
 20
4.297559
 30
0.0
 10
3.326099
 20
4.299186
 30
0.0
 10
3.328134
 20
4.300000
 30
0.0
 10
3.330486
 20
4.300000
 30
0.0
  0
LINE
  5
24f
100
AcDbEntity
  8
Layer_1
 62
3
100
AcDbLine
 10
3.330486
 20
4.300000
 30
0.0
 11
3.347847
 21
4.300000
 31
0.0
  0
SPLINE
  5
250
100
AcDbEntity
  8
Layer_1
 62
3
100
AcDbSpline
 70
8
 71
3
 72
8
 73
4
 74
0
 40
0
 40
0
 40
0
 40
0
 40
1
 40
1
 40
1
 40
1
 10
3.347847
 20
4.300000
 30
0.0
 10
3.350199
 20
4.300000
 30
0.0
 10
3.352233
 20
4.299141
 30
0.0
 10
3.353951
 20
4.297423
 30
0.0
  0
SPLINE
  5
251
100
AcDbEntity
  8
Layer_1
 62
3
100
AcDbSpline
 70
8
 71
3
 72
8
 73
4
 74
0
 40
0
 40
0
 40
0
 40
0
 40
1
 40
1
 40
1
 40
1
 10
3.353951
 20
4.297423
 30
0.0
 10
3.355670
 20
4.295705
 30
0.0
 10
3.356530
 20
4.293670
 30
0.0
 10
3.356530
 20
4.291319
 30
0.0
  0
LINE
  5
252
100
AcDbEntity
  8
Layer_1
 62
3
100
AcDbLine
 10
3.356530
 20
4.291319
 30
0.0
 11
3.356530
 21
4.204514
 31
0.0
  0
SPLINE
  5
253
100
AcDbEntity
  8
Layer_1
 62
3
100
AcDbSpline
 70
8
 71
3
 72
8
 73
4
 74
0
 40
0
 40
0
 40
0
 40
0
 40
1
 40
1
 40
1
 40
1
 10
3.356530
 20
4.204514
 30
0.0
 10
3.356530
 20
4.201982
 30
0.0
 10
3.357343
 20
4.199902
 30
0.0
 10
3.358970
 20
4.198275
 30
0.0
  0
SPLINE
  5
254
100
AcDbEntity
  8
Layer_1
 62
3
100
AcDbSpline
 70
8
 71
3
 72
8
 73
4
 74
0
 40
0
 40
0
 40
0
 40
0
 40
1
 40
1
 40
1
 40
1
 10
3.358970
 20
4.198275
 30
0.0
 10
3.360598
 20
4.196647
 30
0.0
 10
3.362677
 20
4.195833
 30
0.0
 10
3.365209
 20
4.195833
 30
0.0
  0
LINE
  5
255
100
AcDbEntity
  8
Layer_1
 62
3
100
AcDbLine
 10
3.365209
 20
4.195833
 30
0.0
 11
3.399931
 21
4.195833
 31
0.0
  0
SPLINE
  5
256
100
AcDbEntity
  8
Layer_1
 62
3
100
AcDbSpline
 70
8
 71
3
 72
8
 73
4
 74
0
 40
0
 40
0
 40
0
 40
0
 40
1
 40
1
 40
1
 40
1
 10
3.399931
 20
4.195833
 30
0.0
 10
3.402464
 20
4.195833
 30
0.0
 10
3.404544
 20
4.196692
 30
0.0
 10
3.406171
 20
4.198410
 30
0.0
  0
SPLINE
  5
257
100
AcDbEntity
  8
Layer_1
 62
3
100
AcDbSpline
 70
8
 71
3
 72
8
 73
4
 74
0
 40
0
 40
0
 40
0
 40
0
 40
1
 40
1
 40
1
 40
1
 10
3.406171
 20
4.198410
 30
0.0
 10
3.407798
 20
4.200128
 30
0.0
 10
3.408612
 20
4.202163
 30
0.0
 10
3.408612
 20
4.204514
 30
0.0
  0
LINE
  5
258
100
AcDbEntity
  8
Layer_1
 62
3
100
AcDbLine
 10
3.408612
 20
4.204514
 30
0.0
 11
3.408612
 21
4.291319
 31
0.0
  0
SPLINE
  5
259
100
AcDbEntity
  8
Layer_1
 62
3
100
AcDbSpline
 70
8
 71
3
 72
8
 73
4
 74
0
 40
0
 40
0
 40
0
 40
0
 40
1
 40
1
 40
1
 40
1
 10
3.408612
 20
4.291319
 30
0.0
 10
3.408612
 20
4.293851
 30
0.0
 10
3.409471
 20
4.295931
 30
0.0
 10
3.411191
 20
4.297559
 30
0.0
  0
SPLINE
  5
25a
100
AcDbEntity
  8
Layer_1
 62
3
100
AcDbSpline
 70
8
 71
3
 72
8
 73
4
 74
0
 40
0
 40
0
 40
0
 40
0
 40
1
 40
1
 40
1
 40
1
 10
3.411191
 20
4.297559
 30
0.0
 10
3.412907
 20
4.299186
 30
0.0
 10
3.414942
 20
4.300000
 30
0.0
 10
3.417294
 20
4.300000
 30
0.0
  0
LINE
  5
25b
100
AcDbEntity
  8
Layer_1
 62
3
100
AcDbLine
 10
3.417294
 20
4.300000
 30
0.0
 11
3.434655
 21
4.300000
 31
0.0
  0
SPLINE
  5
25c
100
AcDbEntity
  8
Layer_1
 62
3
100
AcDbSpline
 70
8
 71
3
 72
8
 73
4
 74
0
 40
0
 40
0
 40
0
 40
0
 40
1
 40
1
 40
1
 40
1
 10
3.434655
 20
4.300000
 30
0.0
 10
3.437007
 20
4.300000
 30
0.0
 10
3.439041
 20
4.299141
 30
0.0
 10
3.440759
 20
4.297423
 30
0.0
  0
SPLINE
  5
25d
100
AcDbEntity
  8
Layer_1
 62
3
100
AcDbSpline
 70
8
 71
3
 72
8
 73
4
 74
0
 40
0
 40
0
 40
0
 40
0
 40
1
 40
1
 40
1
 40
1
 10
3.440759
 20
4.297423
 30
0.0
 10
3.442475
 20
4.295705
 30
0.0
 10
3.443333
 20
4.293670
 30
0.0
 10
3.443333
 20
4.291319
 30
0.0
  0
LINE
  5
25e
100
AcDbEntity
  8
Layer_1
 62
3
100
AcDbLine
 10
3.443333
 20
4.291319
 30
0.0
 11
3.443333
 21
4.178472
 31
0.0
  0
SPLINE
  5
25f
100
AcDbEntity
  8
Layer_1
 62
3
100
AcDbSpline
 70
8
 71
3
 72
8
 73
4
 74
0
 40
0
 40
0
 40
0
 40
0
 40
1
 40
1
 40
1
 40
1
 10
3.443333
 20
4.178472
 30
0.0
 10
3.443333
 20
4.176121
 30
0.0
 10
3.442836
 20
4.173906
 30
0.0
 10
3.441841
 20
4.171826
 30
0.0
  0
SPLINE
  5
260
100
AcDbEntity
  8
Layer_1
 62
3
100
AcDbSpline
 70
8
 71
3
 72
8
 73
4
 74
0
 40
0
 40
0
 40
0
 40
0
 40
1
 40
1
 40
1
 40
1
 10
3.441841
 20
4.171826
 30
0.0
 10
3.440938
 20
4.169746
 30
0.0
 10
3.439672
 20
4.167893
 30
0.0
 10
3.438042
 20
4.166265
 30
0.0
  0
SPLINE
  5
261
100
AcDbEntity
  8
Layer_1
 62
3
100
AcDbSpline
 70
8
 71
3
 72
8
 73
4
 74
0
 40
0
 40
0
 40
0
 40
0
 40
1
 40
1
 40
1
 40
1
 10
3.438042
 20
4.166265
 30
0.0
 10
3.436504
 20
4.164728
 30
0.0
 10
3.434696
 20
4.163462
 30
0.0
 10
3.432617
 20
4.162467
 30
0.0
  0
SPLINE
  5
262
100
AcDbEntity
  8
Layer_1
 62
3
100
AcDbSpline
 70
8
 71
3
 72
8
 73
4
 74
0
 40
0
 40
0
 40
0
 40
0
 40
1
 40
1
 40
1
 40
1
 10
3.432617
 20
4.162467
 30
0.0
 10
3.430538
 20
4.161563
 30
0.0
 10
3.428322
 20
4.161111
 30
0.0
 10
3.425970
 20
4.161111
 30
0.0
  0
LINE
  5
263
100
AcDbEntity
  8
Layer_1
 62
3
100
AcDbLine
 10
3.425970
 20
4.161111
 30
0.0
 11
3.278401
 21
4.161111
 31
0.0
  0
SPLINE
  5
264
100
AcDbEntity
  8
Layer_1
 62
3
100
AcDbSpline
 70
8
 71
3
 72
8
 73
4
 74
0
 40
0
 40
0
 40
0
 40
0
 40
1
 40
1
 40
1
 40
1
 10
3.278401
 20
4.161111
 30
0.0
 10
3.276049
 20
4.161111
 30
0.0
 10
3.274015
 20
4.160297
 30
0.0
 10
3.272298
 20
4.158670
 30
0.0
  0
SPLINE
  5
265
100
AcDbEntity
  8
Layer_1
 62
3
100
AcDbSpline
 70
8
 71
3
 72
8
 73
4
 74
0
 40
0
 40
0
 40
0
 40
0
 40
1
 40
1
 40
1
 40
1
 10
3.272298
 20
4.158670
 30
0.0
 10
3.270578
 20
4.157042
 30
0.0
 10
3.269719
 20
4.154962
 30
0.0
 10
3.269719
 20
4.152431
 30
0.0
  0
LINE
  5
266
100
AcDbEntity
  8
Layer_1
 62
3
100
AcDbLine
 10
3.269719
 20
4.152431
 30
0.0
 11
3.269719
 21
4.100347
 31
0.0
  0
SPLINE
  5
267
100
AcDbEntity
  8
Layer_1
 62
3
100
AcDbSpline
 70
8
 71
3
 72
8
 73
4
 74
0
 40
0
 40
0
 40
0
 40
0
 40
1
 40
1
 40
1
 40
1
 10
3.269719
 20
4.100347
 30
0.0
 10
3.269719
 20
4.097815
 30
0.0
 10
3.270533
 20
4.095736
 30
0.0
 10
3.272160
 20
4.094108
 30
0.0
  0
SPLINE
  5
268
100
AcDbEntity
  8
Layer_1
 62
3
100
AcDbSpline
 70
8
 71
3
 72
8
 73
4
 74
0
 40
0
 40
0
 40
0
 40
0
 40
1
 40
1
 40
1
 40
1
 10
3.272160
 20
4.094108
 30
0.0
 10
3.273787
 20
4.092481
 30
0.0
 10
3.275867
 20
4.091667
 30
0.0
 10
3.278399
 20
4.091667
 30
0.0
  0
LINE
  5
269
100
AcDbEntity
  8
Layer_1
 62
3
100
AcDbLine
 10
3.278399
 20
4.091667
 30
0.0
 11
3.434649
 21
4.091667
 31
0.0
  0
SPLINE
  5
26a
100
AcDbEntity
  8
Layer_1
 62
3
100
AcDbSpline
 70
8
 71
3
 72
8
 73
4
 74
0
 40
0
 40
0
 40
0
 40
0
 40
1
 40
1
 40
1
 40
1
 10
3.434649
 20
4.091667
 30
0.0
 10
3.437001
 20
4.091667
 30
0.0
 10
3.439035
 20
4.090808
 30
0.0
 10
3.440753
 20
4.089090
 30
0.0
  0
SPLINE
  5
26b
100
AcDbEntity
  8
Layer_1
 62
3
100
AcDbSpline
 70
8
 71
3
 72
8
 73
4
 74
0
 40
0
 40
0
 40
0
 40
0
 40
1
 40
1
 40
1
 40
1
 10
3.440753
 20
4.089090
 30
0.0
 10
3.442469
 20
4.087371
 30
0.0
 10
3.443328
 20
4.085337
 30
0.0
 10
3.443328
 20
4.082986
 30
0.0
  0
LINE
  5
26c
100
AcDbEntity
  8
Layer_1
 62
3
100
AcDbLine
 10
3.443328
 20
4.082986
 30
0.0
 11
3.443328
 21
4.065625
 31
0.0
  0
SPLINE
  5
26d
100
AcDbEntity
  8
Layer_1
 62
3
100
AcDbSpline
 70
8
 71
3
 72
8
 73
4
 74
0
 40
0
 40
0
 40
0
 40
0
 40
1
 40
1
 40
1
 40
1
 10
3.443328
 20
4.065625
 30
0.0
 10
3.443328
 20
4.063274
 30
0.0
 10
3.442514
 20
4.061240
 30
0.0
 10
3.440887
 20
4.059521
 30
0.0
  0
SPLINE
  5
26e
100
AcDbEntity
  8
Layer_1
 62
3
100
AcDbSpline
 70
8
 71
3
 72
8
 73
4
 74
0
 40
0
 40
0
 40
0
 40
0
 40
1
 40
1
 40
1
 40
1
 10
3.440887
 20
4.059521
 30
0.0
 10
3.439259
 20
4.057803
 30
0.0
 10
3.437180
 20
4.056944
 30
0.0
 10
3.434648
 20
4.056944
 30
0.0
  0
LINE
  5
26f
100
AcDbEntity
  8
Layer_1
 62
3
100
AcDbLine
 10
3.434648
 20
4.056944
 30
0.0
 11
3.252358
 21
4.056944
 31
0.0
  0
SPLINE
  5
270
100
AcDbEntity
  8
Layer_1
 62
3
100
AcDbSpline
 70
8
 71
3
 72
8
 73
4
 74
0
 40
0
 40
0
 40
0
 40
0
 40
1
 40
1
 40
1
 40
1
 10
3.991457
 20
4.091667
 30
0.0
 10
3.993990
 20
4.091667
 30
0.0
 10
3.996070
 20
4.092526
 30
0.0
 10
3.997696
 20
4.094244
 30
0.0
  0
SPLINE
  5
271
100
AcDbEntity
  8
Layer_1
 62
3
100
AcDbSpline
 70
8
 71
3
 72
8
 73
4
 74
0
 40
0
 40
0
 40
0
 40
0
 40
1
 40
1
 40
1
 40
1
 10
3.997696
 20
4.094244
 30
0.0
 10
3.999324
 20
4.095962
 30
0.0
 10
4.000137
 20
4.097996
 30
0.0
 10
4.000137
 20
4.100347
 30
0.0
  0
LINE
  5
272
100
AcDbEntity
  8
Layer_1
 62
3
100
AcDbLine
 10
4.000137
 20
4.100347
 30
0.0
 11
4.000137
 21
4.152431
 31
0.0
  0
SPLINE
  5
273
100
AcDbEntity
  8
Layer_1
 62
3
100
AcDbSpline
 70
8
 71
3
 72
8
 73
4
 74
0
 40
0
 40
0
 40
0
 40
0
 40
1
 40
1
 40
1
 40
1
 10
4.000137
 20
4.152431
 30
0.0
 10
4.000137
 20
4.154782
 30
0.0
 10
3.999278
 20
4.156816
 30
0.0
 10
3.997559
 20
4.158534
 30
0.0
  0
SPLINE
  5
274
100
AcDbEntity
  8
Layer_1
 62
3
100
AcDbSpline
 70
8
 71
3
 72
8
 73
4
 74
0
 40
0
 40
0
 40
0
 40
0
 40
1
 40
1
 40
1
 40
1
 10
3.997559
 20
4.158534
 30
0.0
 10
3.995840
 20
4.160252
 30
0.0
 10
3.993805
 20
4.161111
 30
0.0
 10
3.991455
 20
4.161111
 30
0.0
  0
LINE
  5
275
100
AcDbEntity
  8
Layer_1
 62
3
100
AcDbLine
 10
3.991455
 20
4.161111
 30
0.0
 11
3.956733
 21
4.161111
 31
0.0
  0
SPLINE
  5
276
100
AcDbEntity
  8
Layer_1
 62
3
100
AcDbSpline
 70
8
 71
3
 72
8
 73
4
 74
0
 40
0
 40
0
 40
0
 40
0
 40
1
 40
1
 40
1
 40
1
 10
3.956733
 20
4.161111
 30
0.0
 10
3.954381
 20
4.161111
 30
0.0
 10
3.952347
 20
4.160297
 30
0.0
 10
3.950630
 20
4.158670
 30
0.0
  0
SPLINE
  5
277
100
AcDbEntity
  8
Layer_1
 62
3
100
AcDbSpline
 70
8
 71
3
 72
8
 73
4
 74
0
 40
0
 40
0
 40
0
 40
0
 40
1
 40
1
 40
1
 40
1
 10
3.950630
 20
4.158670
 30
0.0
 10
3.948910
 20
4.157042
 30
0.0
 10
3.948051
 20
4.154963
 30
0.0
 10
3.948051
 20
4.152431
 30
0.0
  0
LINE
  5
278
100
AcDbEntity
  8
Layer_1
 62
3
100
AcDbLine
 10
3.948051
 20
4.152431
 30
0.0
 11
3.948051
 21
4.100347
 31
0.0
  0
SPLINE
  5
279
100
AcDbEntity
  8
Layer_1
 62
3
100
AcDbSpline
 70
8
 71
3
 72
8
 73
4
 74
0
 40
0
 40
0
 40
0
 40
0
 40
1
 40
1
 40
1
 40
1
 10
3.948051
 20
4.100347
 30
0.0
 10
3.948051
 20
4.097816
 30
0.0
 10
3.948864
 20
4.095736
 30
0.0
 10
3.950492
 20
4.094108
 30
0.0
  0
SPLINE
  5
27a
100
AcDbEntity
  8
Layer_1
 62
3
100
AcDbSpline
 70
8
 71
3
 72
8
 73
4
 74
0
 40
0
 40
0
 40
0
 40
0
 40
1
 40
1
 40
1
 40
1
 10
3.950492
 20
4.094108
 30
0.0
 10
3.952119
 20
4.092481
 30
0.0
 10
3.954199
 20
4.091667
 30
0.0
 10
3.956731
 20
4.091667
 30
0.0
  0
LINE
  5
27b
100
AcDbEntity
  8
Layer_1
 62
3
100
AcDbLine
 10
3.956731
 20
4.091667
 30
0.0
 11
3.991457
 21
4.091667
 31
0.0
  0
SPLINE
  5
27c
100
AcDbEntity
  8
Layer_1
 62
3
100
AcDbSpline
 70
8
 71
3
 72
8
 73
4
 74
0
 40
0
 40
0
 40
0
 40
0
 40
1
 40
1
 40
1
 40
1
 10
4.078263
 20
4.091667
 30
0.0
 10
4.080796
 20
4.091667
 30
0.0
 10
4.082875
 20
4.092526
 30
0.0
 10
4.084502
 20
4.094244
 30
0.0
  0
SPLINE
  5
27d
100
AcDbEntity
  8
Layer_1
 62
3
100
AcDbSpline
 70
8
 71
3
 72
8
 73
4
 74
0
 40
0
 40
0
 40
0
 40
0
 40
1
 40
1
 40
1
 40
1
 10
4.084502
 20
4.094244
 30
0.0
 10
4.086129
 20
4.095962
 30
0.0
 10
4.086943
 20
4.097996
 30
0.0
 10
4.086943
 20
4.100347
 30
0.0
  0
LINE
  5
27e
100
AcDbEntity
  8
Layer_1
 62
3
100
AcDbLine
 10
4.086943
 20
4.100347
 30
0.0
 11
4.086943
 21
4.152431
 31
0.0
  0
SPLINE
  5
27f
100
AcDbEntity
  8
Layer_1
 62
3
100
AcDbSpline
 70
8
 71
3
 72
8
 73
4
 74
0
 40
0
 40
0
 40
0
 40
0
 40
1
 40
1
 40
1
 40
1
 10
4.086943
 20
4.152431
 30
0.0
 10
4.086943
 20
4.154782
 30
0.0
 10
4.086083
 20
4.156816
 30
0.0
 10
4.084364
 20
4.158534
 30
0.0
  0
SPLINE
  5
280
100
AcDbEntity
  8
Layer_1
 62
3
100
AcDbSpline
 70
8
 71
3
 72
8
 73
4
 74
0
 40
0
 40
0
 40
0
 40
0
 40
1
 40
1
 40
1
 40
1
 10
4.084364
 20
4.158534
 30
0.0
 10
4.082645
 20
4.160252
 30
0.0
 10
4.080610
 20
4.161111
 30
0.0
 10
4.078261
 20
4.161111
 30
0.0
  0
LINE
  5
281
100
AcDbEntity
  8
Layer_1
 62
3
100
AcDbLine
 10
4.078261
 20
4.161111
 30
0.0
 11
4.043539
 21
4.161111
 31
0.0
  0
SPLINE
  5
282
100
AcDbEntity
  8
Layer_1
 62
3
100
AcDbSpline
 70
8
 71
3
 72
8
 73
4
 74
0
 40
0
 40
0
 40
0
 40
0
 40
1
 40
1
 40
1
 40
1
 10
4.043539
 20
4.161111
 30
0.0
 10
4.041187
 20
4.161111
 30
0.0
 10
4.039152
 20
4.160297
 30
0.0
 10
4.037435
 20
4.158670
 30
0.0
  0
SPLINE
  5
283
100
AcDbEntity
  8
Layer_1
 62
3
100
AcDbSpline
 70
8
 71
3
 72
8
 73
4
 74
0
 40
0
 40
0
 40
0
 40
0
 40
1
 40
1
 40
1
 40
1
 10
4.037435
 20
4.158670
 30
0.0
 10
4.035716
 20
4.157042
 30
0.0
 10
4.034856
 20
4.154963
 30
0.0
 10
4.034856
 20
4.152431
 30
0.0
  0
LINE
  5
284
100
AcDbEntity
  8
Layer_1
 62
3
100
AcDbLine
 10
4.034856
 20
4.152431
 30
0.0
 11
4.034856
 21
4.100347
 31
0.0
  0
SPLINE
  5
285
100
AcDbEntity
  8
Layer_1
 62
3
100
AcDbSpline
 70
8
 71
3
 72
8
 73
4
 74
0
 40
0
 40
0
 40
0
 40
0
 40
1
 40
1
 40
1
 40
1
 10
4.034856
 20
4.100347
 30
0.0
 10
4.034856
 20
4.097816
 30
0.0
 10
4.035670
 20
4.095736
 30
0.0
 10
4.037297
 20
4.094108
 30
0.0
  0
SPLINE
  5
286
100
AcDbEntity
  8
Layer_1
 62
3
100
AcDbSpline
 70
8
 71
3
 72
8
 73
4
 74
0
 40
0
 40
0
 40
0
 40
0
 40
1
 40
1
 40
1
 40
1
 10
4.037297
 20
4.094108
 30
0.0
 10
4.038925
 20
4.092481
 30
0.0
 10
4.041004
 20
4.091667
 30
0.0
 10
4.043537
 20
4.091667
 30
0.0
  0
LINE
  5
287
100
AcDbEntity
  8
Layer_1
 62
3
100
AcDbLine
 10
4.043537
 20
4.091667
 30
0.0
 11
4.078263
 21
4.091667
 31
0.0
  0
SPLINE
  5
288
100
AcDbEntity
  8
Layer_1
 62
3
100
AcDbSpline
 70
8
 71
3
 72
8
 73
4
 74
0
 40
0
 40
0
 40
0
 40
0
 40
1
 40
1
 40
1
 40
1
 10
3.991457
 20
4.195833
 30
0.0
 10
3.993990
 20
4.195833
 30
0.0
 10
3.996070
 20
4.196692
 30
0.0
 10
3.997696
 20
4.198410
 30
0.0
  0
SPLINE
  5
289
100
AcDbEntity
  8
Layer_1
 62
3
100
AcDbSpline
 70
8
 71
3
 72
8
 73
4
 74
0
 40
0
 40
0
 40
0
 40
0
 40
1
 40
1
 40
1
 40
1
 10
3.997696
 20
4.198410
 30
0.0
 10
3.999324
 20
4.200129
 30
0.0
 10
4.000137
 20
4.202163
 30
0.0
 10
4.000137
 20
4.204514
 30
0.0
  0
LINE
  5
28a
100
AcDbEntity
  8
Layer_1
 62
3
100
AcDbLine
 10
4.000137
 20
4.204514
 30
0.0
 11
4.000137
 21
4.256597
 31
0.0
  0
SPLINE
  5
28b
100
AcDbEntity
  8
Layer_1
 62
3
100
AcDbSpline
 70
8
 71
3
 72
8
 73
4
 74
0
 40
0
 40
0
 40
0
 40
0
 40
1
 40
1
 40
1
 40
1
 10
4.000137
 20
4.256597
 30
0.0
 10
4.000137
 20
4.258948
 30
0.0
 10
3.999278
 20
4.260983
 30
0.0
 10
3.997559
 20
4.262701
 30
0.0
  0
SPLINE
  5
28c
100
AcDbEntity
  8
Layer_1
 62
3
100
AcDbSpline
 70
8
 71
3
 72
8
 73
4
 74
0
 40
0
 40
0
 40
0
 40
0
 40
1
 40
1
 40
1
 40
1
 10
3.997559
 20
4.262701
 30
0.0
 10
3.995840
 20
4.264419
 30
0.0
 10
3.993805
 20
4.265278
 30
0.0
 10
3.991455
 20
4.265278
 30
0.0
  0
LINE
  5
28d
100
AcDbEntity
  8
Layer_1
 62
3
100
AcDbLine
 10
3.991455
 20
4.265278
 30
0.0
 11
3.956733
 21
4.265278
 31
0.0
  0
SPLINE
  5
28e
100
AcDbEntity
  8
Layer_1
 62
3
100
AcDbSpline
 70
8
 71
3
 72
8
 73
4
 74
0
 40
0
 40
0
 40
0
 40
0
 40
1
 40
1
 40
1
 40
1
 10
3.956733
 20
4.265278
 30
0.0
 10
3.954381
 20
4.265278
 30
0.0
 10
3.952347
 20
4.264464
 30
0.0
 10
3.950630
 20
4.262837
 30
0.0
  0
SPLINE
  5
28f
100
AcDbEntity
  8
Layer_1
 62
3
100
AcDbSpline
 70
8
 71
3
 72
8
 73
4
 74
0
 40
0
 40
0
 40
0
 40
0
 40
1
 40
1
 40
1
 40
1
 10
3.950630
 20
4.262837
 30
0.0
 10
3.948910
 20
4.261209
 30
0.0
 10
3.948051
 20
4.259129
 30
0.0
 10
3.948051
 20
4.256597
 30
0.0
  0
LINE
  5
290
100
AcDbEntity
  8
Layer_1
 62
3
100
AcDbLine
 10
3.948051
 20
4.256597
 30
0.0
 11
3.948051
 21
4.204514
 31
0.0
  0
SPLINE
  5
291
100
AcDbEntity
  8
Layer_1
 62
3
100
AcDbSpline
 70
8
 71
3
 72
8
 73
4
 74
0
 40
0
 40
0
 40
0
 40
0
 40
1
 40
1
 40
1
 40
1
 10
3.948051
 20
4.204514
 30
0.0
 10
3.948051
 20
4.201982
 30
0.0
 10
3.948864
 20
4.199903
 30
0.0
 10
3.950492
 20
4.198275
 30
0.0
  0
SPLINE
  5
292
100
AcDbEntity
  8
Layer_1
 62
3
100
AcDbSpline
 70
8
 71
3
 72
8
 73
4
 74
0
 40
0
 40
0
 40
0
 40
0
 40
1
 40
1
 40
1
 40
1
 10
3.950492
 20
4.198275
 30
0.0
 10
3.952119
 20
4.196647
 30
0.0
 10
3.954199
 20
4.195834
 30
0.0
 10
3.956731
 20
4.195834
 30
0.0
  0
LINE
  5
293
100
AcDbEntity
  8
Layer_1
 62
3
100
AcDbLine
 10
3.956731
 20
4.195834
 30
0.0
 11
3.991457
 21
4.195833
 31
0.0
  0
SPLINE
  5
294
100
AcDbEntity
  8
Layer_1
 62
3
100
AcDbSpline
 70
8
 71
3
 72
8
 73
4
 74
0
 40
0
 40
0
 40
0
 40
0
 40
1
 40
1
 40
1
 40
1
 10
4.078263
 20
4.195833
 30
0.0
 10
4.080796
 20
4.195833
 30
0.0
 10
4.082875
 20
4.196692
 30
0.0
 10
4.084502
 20
4.198410
 30
0.0
  0
SPLINE
  5
295
100
AcDbEntity
  8
Layer_1
 62
3
100
AcDbSpline
 70
8
 71
3
 72
8
 73
4
 74
0
 40
0
 40
0
 40
0
 40
0
 40
1
 40
1
 40
1
 40
1
 10
4.084502
 20
4.198410
 30
0.0
 10
4.086129
 20
4.200129
 30
0.0
 10
4.086943
 20
4.202163
 30
0.0
 10
4.086943
 20
4.204514
 30
0.0
  0
LINE
  5
296
100
AcDbEntity
  8
Layer_1
 62
3
100
AcDbLine
 10
4.086943
 20
4.204514
 30
0.0
 11
4.086943
 21
4.256597
 31
0.0
  0
SPLINE
  5
297
100
AcDbEntity
  8
Layer_1
 62
3
100
AcDbSpline
 70
8
 71
3
 72
8
 73
4
 74
0
 40
0
 40
0
 40
0
 40
0
 40
1
 40
1
 40
1
 40
1
 10
4.086943
 20
4.256597
 30
0.0
 10
4.086943
 20
4.258948
 30
0.0
 10
4.086083
 20
4.260983
 30
0.0
 10
4.084364
 20
4.262701
 30
0.0
  0
SPLINE
  5
298
100
AcDbEntity
  8
Layer_1
 62
3
100
AcDbSpline
 70
8
 71
3
 72
8
 73
4
 74
0
 40
0
 40
0
 40
0
 40
0
 40
1
 40
1
 40
1
 40
1
 10
4.084364
 20
4.262701
 30
0.0
 10
4.082645
 20
4.264419
 30
0.0
 10
4.080610
 20
4.265278
 30
0.0
 10
4.078261
 20
4.265278
 30
0.0
  0
LINE
  5
299
100
AcDbEntity
  8
Layer_1
 62
3
100
AcDbLine
 10
4.078261
 20
4.265278
 30
0.0
 11
4.043539
 21
4.265278
 31
0.0
  0
SPLINE
  5
29a
100
AcDbEntity
  8
Layer_1
 62
3
100
AcDbSpline
 70
8
 71
3
 72
8
 73
4
 74
0
 40
0
 40
0
 40
0
 40
0
 40
1
 40
1
 40
1
 40
1
 10
4.043539
 20
4.265278
 30
0.0
 10
4.041187
 20
4.265278
 30
0.0
 10
4.039152
 20
4.264464
 30
0.0
 10
4.037435
 20
4.262837
 30
0.0
  0
SPLINE
  5
29b
100
AcDbEntity
  8
Layer_1
 62
3
100
AcDbSpline
 70
8
 71
3
 72
8
 73
4
 74
0
 40
0
 40
0
 40
0
 40
0
 40
1
 40
1
 40
1
 40
1
 10
4.037435
 20
4.262837
 30
0.0
 10
4.035716
 20
4.261209
 30
0.0
 10
4.034856
 20
4.259129
 30
0.0
 10
4.034856
 20
4.256597
 30
0.0
  0
LINE
  5
29c
100
AcDbEntity
  8
Layer_1
 62
3
100
AcDbLine
 10
4.034856
 20
4.256597
 30
0.0
 11
4.034856
 21
4.204514
 31
0.0
  0
SPLINE
  5
29d
100
AcDbEntity
  8
Layer_1
 62
3
100
AcDbSpline
 70
8
 71
3
 72
8
 73
4
 74
0
 40
0
 40
0
 40
0
 40
0
 40
1
 40
1
 40
1
 40
1
 10
4.034856
 20
4.204514
 30
0.0
 10
4.034856
 20
4.201982
 30
0.0
 10
4.035670
 20
4.199903
 30
0.0
 10
4.037297
 20
4.198275
 30
0.0
  0
SPLINE
  5
29e
100
AcDbEntity
  8
Layer_1
 62
3
100
AcDbSpline
 70
8
 71
3
 72
8
 73
4
 74
0
 40
0
 40
0
 40
0
 40
0
 40
1
 40
1
 40
1
 40
1
 10
4.037297
 20
4.198275
 30
0.0
 10
4.038925
 20
4.196647
 30
0.0
 10
4.041004
 20
4.195834
 30
0.0
 10
4.043537
 20
4.195834
 30
0.0
  0
LINE
  5
29f
100
AcDbEntity
  8
Layer_1
 62
3
100
AcDbLine
 10
4.043537
 20
4.195834
 30
0.0
 11
4.078263
 21
4.195833
 31
0.0
  0
SPLINE
  5
2a0
100
AcDbEntity
  8
Layer_1
 62
3
100
AcDbSpline
 70
8
 71
3
 72
8
 73
4
 74
0
 40
0
 40
0
 40
0
 40
0
 40
1
 40
1
 40
1
 40
1
 10
3.930694
 20
4.056944
 30
0.0
 10
3.928253
 20
4.056944
 30
0.0
 10
3.925947
 20
4.057396
 30
0.0
 10
3.923776
 20
4.058301
 30
0.0
  0
SPLINE
  5
2a1
100
AcDbEntity
  8
Layer_1
 62
3
100
AcDbSpline
 70
8
 71
3
 72
8
 73
4
 74
0
 40
0
 40
0
 40
0
 40
0
 40
1
 40
1
 40
1
 40
1
 10
3.923776
 20
4.058301
 30
0.0
 10
3.921698
 20
4.059205
 30
0.0
 10
3.919889
 20
4.060426
 30
0.0
 10
3.918351
 20
4.061963
 30
0.0
  0
SPLINE
  5
2a2
100
AcDbEntity
  8
Layer_1
 62
3
100
AcDbSpline
 70
8
 71
3
 72
8
 73
4
 74
0
 40
0
 40
0
 40
0
 40
0
 40
1
 40
1
 40
1
 40
1
 10
3.918351
 20
4.061963
 30
0.0
 10
3.916813
 20
4.063500
 30
0.0
 10
3.915592
 20
4.065309
 30
0.0
 10
3.914689
 20
4.067388
 30
0.0
  0
SPLINE
  5
2a3
100
AcDbEntity
  8
Layer_1
 62
3
100
AcDbSpline
 70
8
 71
3
 72
8
 73
4
 74
0
 40
0
 40
0
 40
0
 40
0
 40
1
 40
1
 40
1
 40
1
 10
3.914689
 20
4.067388
 30
0.0
 10
3.913784
 20
4.069558
 30
0.0
 10
3.913331
 20
4.071864
 30
0.0
 10
3.913331
 20
4.074306
 30
0.0
  0
LINE
  5
2a4
100
AcDbEntity
  8
Layer_1
 62
3
100
AcDbLine
 10
3.913331
 20
4.074306
 30
0.0
 11
3.913331
 21
4.282639
 31
0.0
  0
SPLINE
  5
2a5
100
AcDbEntity
  8
Layer_1
 62
3
100
AcDbSpline
 70
8
 71
3
 72
8
 73
4
 74
0
 40
0
 40
0
 40
0
 40
0
 40
1
 40
1
 40
1
 40
1
 10
3.913331
 20
4.282639
 30
0.0
 10
3.913331
 20
4.284990
 30
0.0
 10
3.913784
 20
4.287205
 30
0.0
 10
3.914689
 20
4.289285
 30
0.0
  0
SPLINE
  5
2a6
100
AcDbEntity
  8
Layer_1
 62
3
100
AcDbSpline
 70
8
 71
3
 72
8
 73
4
 74
0
 40
0
 40
0
 40
0
 40
0
 40
1
 40
1
 40
1
 40
1
 10
3.914689
 20
4.289285
 30
0.0
 10
3.915684
 20
4.291365
 30
0.0
 10
3.916951
 20
4.293173
 30
0.0
 10
3.918489
 20
4.294710
 30
0.0
  0
SPLINE
  5
2a7
100
AcDbEntity
  8
Layer_1
 62
3
100
AcDbSpline
 70
8
 71
3
 72
8
 73
4
 74
0
 40
0
 40
0
 40
0
 40
0
 40
1
 40
1
 40
1
 40
1
 10
3.918489
 20
4.294710
 30
0.0
 10
3.920116
 20
4.296338
 30
0.0
 10
3.921970
 20
4.297604
 30
0.0
 10
3.924050
 20
4.298508
 30
0.0
  0
SPLINE
  5
2a8
100
AcDbEntity
  8
Layer_1
 62
3
100
AcDbSpline
 70
8
 71
3
 72
8
 73
4
 74
0
 40
0
 40
0
 40
0
 40
0
 40
1
 40
1
 40
1
 40
1
 10
3.924050
 20
4.298508
 30
0.0
 10
3.926128
 20
4.299503
 30
0.0
 10
3.928344
 20
4.300000
 30
0.0
 10
3.930696
 20
4.300000
 30
0.0
  0
LINE
  5
2a9
100
AcDbEntity
  8
Layer_1
 62
3
100
AcDbLine
 10
3.930696
 20
4.300000
 30
0.0
 11
4.104307
 21
4.300000
 31
0.0
  0
SPLINE
  5
2aa
100
AcDbEntity
  8
Layer_1
 62
3
100
AcDbSpline
 70
8
 71
3
 72
8
 73
4
 74
0
 40
0
 40
0
 40
0
 40
0
 40
1
 40
1
 40
1
 40
1
 10
4.104307
 20
4.300000
 30
0.0
 10
4.106658
 20
4.300000
 30
0.0
 10
4.108874
 20
4.299503
 30
0.0
 10
4.110953
 20
4.298508
 30
0.0
  0
SPLINE
  5
2ab
100
AcDbEntity
  8
Layer_1
 62
3
100
AcDbSpline
 70
8
 71
3
 72
8
 73
4
 74
0
 40
0
 40
0
 40
0
 40
0
 40
1
 40
1
 40
1
 40
1
 10
4.110953
 20
4.298508
 30
0.0
 10
4.113031
 20
4.297604
 30
0.0
 10
4.114840
 20
4.296338
 30
0.0
 10
4.116378
 20
4.294710
 30
0.0
  0
SPLINE
  5
2ac
100
AcDbEntity
  8
Layer_1
 62
3
100
AcDbSpline
 70
8
 71
3
 72
8
 73
4
 74
0
 40
0
 40
0
 40
0
 40
0
 40
1
 40
1
 40
1
 40
1
 10
4.116378
 20
4.294710
 30
0.0
 10
4.118005
 20
4.293173
 30
0.0
 10
4.119272
 20
4.291365
 30
0.0
 10
4.120177
 20
4.289285
 30
0.0
  0
SPLINE
  5
2ad
100
AcDbEntity
  8
Layer_1
 62
3
100
AcDbSpline
 70
8
 71
3
 72
8
 73
4
 74
0
 40
0
 40
0
 40
0
 40
0
 40
1
 40
1
 40
1
 40
1
 10
4.120177
 20
4.289285
 30
0.0
 10
4.121172
 20
4.287205
 30
0.0
 10
4.121669
 20
4.284990
 30
0.0
 10
4.121669
 20
4.282639
 30
0.0
  0
LINE
  5
2ae
100
AcDbEntity
  8
Layer_1
 62
3
100
AcDbLine
 10
4.121669
 20
4.282639
 30
0.0
 11
4.121669
 21
4.074306
 31
0.0
  0
SPLINE
  5
2af
100
AcDbEntity
  8
Layer_1
 62
3
100
AcDbSpline
 70
8
 71
3
 72
8
 73
4
 74
0
 40
0
 40
0
 40
0
 40
0
 40
1
 40
1
 40
1
 40
1
 10
4.121669
 20
4.074306
 30
0.0
 10
4.121669
 20
4.071955
 30
0.0
 10
4.121172
 20
4.069739
 30
0.0
 10
4.120177
 20
4.067659
 30
0.0
  0
SPLINE
  5
2b0
100
AcDbEntity
  8
Layer_1
 62
3
100
AcDbSpline
 70
8
 71
3
 72
8
 73
4
 74
0
 40
0
 40
0
 40
0
 40
0
 40
1
 40
1
 40
1
 40
1
 10
4.120177
 20
4.067659
 30
0.0
 10
4.119274
 20
4.065580
 30
0.0
 10
4.118008
 20
4.063726
 30
0.0
 10
4.116378
 20
4.062099
 30
0.0
  0
SPLINE
  5
2b1
100
AcDbEntity
  8
Layer_1
 62
3
100
AcDbSpline
 70
8
 71
3
 72
8
 73
4
 74
0
 40
0
 40
0
 40
0
 40
0
 40
1
 40
1
 40
1
 40
1
 10
4.116378
 20
4.062099
 30
0.0
 10
4.114840
 20
4.060561
 30
0.0
 10
4.113031
 20
4.059295
 30
0.0
 10
4.110953
 20
4.058301
 30
0.0
  0
SPLINE
  5
2b2
100
AcDbEntity
  8
Layer_1
 62
3
100
AcDbSpline
 70
8
 71
3
 72
8
 73
4
 74
0
 40
0
 40
0
 40
0
 40
0
 40
1
 40
1
 40
1
 40
1
 10
4.110953
 20
4.058301
 30
0.0
 10
4.108874
 20
4.057397
 30
0.0
 10
4.106659
 20
4.056945
 30
0.0
 10
4.104307
 20
4.056945
 30
0.0
  0
LINE
  5
2b3
100
AcDbEntity
  8
Layer_1
 62
3
100
AcDbLine
 10
4.104307
 20
4.056945
 30
0.0
 11
3.930694
 21
4.056944
 31
0.0
  0
SPLINE
  5
2b4
100
AcDbEntity
  8
Layer_1
 62
3
100
AcDbSpline
 70
8
 71
3
 72
8
 73
4
 74
0
 40
0
 40
0
 40
0
 40
0
 40
1
 40
1
 40
1
 40
1
 10
4.695829
 20
4.056944
 30
0.0
 10
4.693388
 20
4.056944
 30
0.0
 10
4.691082
 20
4.057396
 30
0.0
 10
4.688912
 20
4.058301
 30
0.0
  0
SPLINE
  5
2b5
100
AcDbEntity
  8
Layer_1
 62
3
100
AcDbSpline
 70
8
 71
3
 72
8
 73
4
 74
0
 40
0
 40
0
 40
0
 40
0
 40
1
 40
1
 40
1
 40
1
 10
4.688912
 20
4.058301
 30
0.0
 10
4.686833
 20
4.059205
 30
0.0
 10
4.685025
 20
4.060426
 30
0.0
 10
4.683487
 20
4.061963
 30
0.0
  0
SPLINE
  5
2b6
100
AcDbEntity
  8
Layer_1
 62
3
100
AcDbSpline
 70
8
 71
3
 72
8
 73
4
 74
0
 40
0
 40
0
 40
0
 40
0
 40
1
 40
1
 40
1
 40
1
 10
4.683487
 20
4.061963
 30
0.0
 10
4.681949
 20
4.063500
 30
0.0
 10
4.680728
 20
4.065309
 30
0.0
 10
4.679825
 20
4.067388
 30
0.0
  0
SPLINE
  5
2b7
100
AcDbEntity
  8
Layer_1
 62
3
100
AcDbSpline
 70
8
 71
3
 72
8
 73
4
 74
0
 40
0
 40
0
 40
0
 40
0
 40
1
 40
1
 40
1
 40
1
 10
4.679825
 20
4.067388
 30
0.0
 10
4.678922
 20
4.069558
 30
0.0
 10
4.678471
 20
4.071864
 30
0.0
 10
4.678471
 20
4.074306
 30
0.0
  0
LINE
  5
2b8
100
AcDbEntity
  8
Layer_1
 62
3
100
AcDbLine
 10
4.678471
 20
4.074306
 30
0.0
 11
4.678471
 21
4.256597
 31
0.0
  0
SPLINE
  5
2b9
100
AcDbEntity
  8
Layer_1
 62
3
100
AcDbSpline
 70
8
 71
3
 72
8
 73
4
 74
0
 40
0
 40
0
 40
0
 40
0
 40
1
 40
1
 40
1
 40
1
 10
4.678471
 20
4.256597
 30
0.0
 10
4.678471
 20
4.258948
 30
0.0
 10
4.677611
 20
4.260983
 30
0.0
 10
4.675892
 20
4.262701
 30
0.0
  0
SPLINE
  5
2ba
100
AcDbEntity
  8
Layer_1
 62
3
100
AcDbSpline
 70
8
 71
3
 72
8
 73
4
 74
0
 40
0
 40
0
 40
0
 40
0
 40
1
 40
1
 40
1
 40
1
 10
4.675892
 20
4.262701
 30
0.0
 10
4.674176
 20
4.264419
 30
0.0
 10
4.672141
 20
4.265278
 30
0.0
 10
4.669789
 20
4.265278
 30
0.0
  0
LINE
  5
2bb
100
AcDbEntity
  8
Layer_1
 62
3
100
AcDbLine
 10
4.669789
 20
4.265278
 30
0.0
 11
4.635067
 21
4.265278
 31
0.0
  0
SPLINE
  5
2bc
100
AcDbEntity
  8
Layer_1
 62
3
100
AcDbSpline
 70
8
 71
3
 72
8
 73
4
 74
0
 40
0
 40
0
 40
0
 40
0
 40
1
 40
1
 40
1
 40
1
 10
4.635067
 20
4.265278
 30
0.0
 10
4.632715
 20
4.265278
 30
0.0
 10
4.630680
 20
4.264464
 30
0.0
 10
4.628963
 20
4.262837
 30
0.0
  0
SPLINE
  5
2bd
100
AcDbEntity
  8
Layer_1
 62
3
100
AcDbSpline
 70
8
 71
3
 72
8
 73
4
 74
0
 40
0
 40
0
 40
0
 40
0
 40
1
 40
1
 40
1
 40
1
 10
4.628963
 20
4.262837
 30
0.0
 10
4.627244
 20
4.261209
 30
0.0
 10
4.626384
 20
4.259129
 30
0.0
 10
4.626384
 20
4.256597
 30
0.0
  0
LINE
  5
2be
100
AcDbEntity
  8
Layer_1
 62
3
100
AcDbLine
 10
4.626384
 20
4.256597
 30
0.0
 11
4.626384
 21
4.169792
 31
0.0
  0
SPLINE
  5
2bf
100
AcDbEntity
  8
Layer_1
 62
3
100
AcDbSpline
 70
8
 71
3
 72
8
 73
4
 74
0
 40
0
 40
0
 40
0
 40
0
 40
1
 40
1
 40
1
 40
1
 10
4.626384
 20
4.169792
 30
0.0
 10
4.626384
 20
4.167441
 30
0.0
 10
4.625571
 20
4.165406
 30
0.0
 10
4.623943
 20
4.163688
 30
0.0
  0
SPLINE
  5
2c0
100
AcDbEntity
  8
Layer_1
 62
3
100
AcDbSpline
 70
8
 71
3
 72
8
 73
4
 74
0
 40
0
 40
0
 40
0
 40
0
 40
1
 40
1
 40
1
 40
1
 10
4.623943
 20
4.163688
 30
0.0
 10
4.622316
 20
4.161970
 30
0.0
 10
4.620236
 20
4.161111
 30
0.0
 10
4.617704
 20
4.161111
 30
0.0
  0
LINE
  5
2c1
100
AcDbEntity
  8
Layer_1
 62
3
100
AcDbLine
 10
4.617704
 20
4.161111
 30
0.0
 11
4.600343
 21
4.161111
 31
0.0
  0
SPLINE
  5
2c2
100
AcDbEntity
  8
Layer_1
 62
3
100
AcDbSpline
 70
8
 71
3
 72
8
 73
4
 74
0
 40
0
 40
0
 40
0
 40
0
 40
1
 40
1
 40
1
 40
1
 10
4.600343
 20
4.161111
 30
0.0
 10
4.597810
 20
4.161111
 30
0.0
 10
4.595731
 20
4.161925
 30
0.0
 10
4.594104
 20
4.163553
 30
0.0
  0
SPLINE
  5
2c3
100
AcDbEntity
  8
Layer_1
 62
3
100
AcDbSpline
 70
8
 71
3
 72
8
 73
4
 74
0
 40
0
 40
0
 40
0
 40
0
 40
1
 40
1
 40
1
 40
1
 10
4.594104
 20
4.163553
 30
0.0
 10
4.592477
 20
4.165180
 30
0.0
 10
4.591663
 20
4.167260
 30
0.0
 10
4.591663
 20
4.169792
 30
0.0
  0
LINE
  5
2c4
100
AcDbEntity
  8
Layer_1
 62
3
100
AcDbLine
 10
4.591663
 20
4.169792
 30
0.0
 11
4.591663
 21
4.282639
 31
0.0
  0
SPLINE
  5
2c5
100
AcDbEntity
  8
Layer_1
 62
3
100
AcDbSpline
 70
8
 71
3
 72
8
 73
4
 74
0
 40
0
 40
0
 40
0
 40
0
 40
1
 40
1
 40
1
 40
1
 10
4.591663
 20
4.282639
 30
0.0
 10
4.591663
 20
4.284990
 30
0.0
 10
4.592116
 20
4.287205
 30
0.0
 10
4.593021
 20
4.289285
 30
0.0
  0
SPLINE
  5
2c6
100
AcDbEntity
  8
Layer_1
 62
3
100
AcDbSpline
 70
8
 71
3
 72
8
 73
4
 74
0
 40
0
 40
0
 40
0
 40
0
 40
1
 40
1
 40
1
 40
1
 10
4.593021
 20
4.289285
 30
0.0
 10
4.594016
 20
4.291365
 30
0.0
 10
4.595282
 20
4.293173
 30
0.0
 10
4.596820
 20
4.294710
 30
0.0
  0
SPLINE
  5
2c7
100
AcDbEntity
  8
Layer_1
 62
3
100
AcDbSpline
 70
8
 71
3
 72
8
 73
4
 74
0
 40
0
 40
0
 40
0
 40
0
 40
1
 40
1
 40
1
 40
1
 10
4.596820
 20
4.294710
 30
0.0
 10
4.598448
 20
4.296338
 30
0.0
 10
4.600301
 20
4.297604
 30
0.0
 10
4.602381
 20
4.298508
 30
0.0
  0
SPLINE
  5
2c8
100
AcDbEntity
  8
Layer_1
 62
3
100
AcDbSpline
 70
8
 71
3
 72
8
 73
4
 74
0
 40
0
 40
0
 40
0
 40
0
 40
1
 40
1
 40
1
 40
1
 10
4.602381
 20
4.298508
 30
0.0
 10
4.604460
 20
4.299503
 30
0.0
 10
4.606676
 20
4.300000
 30
0.0
 10
4.609028
 20
4.300000
 30
0.0
  0
LINE
  5
2c9
100
AcDbEntity
  8
Layer_1
 62
3
100
AcDbLine
 10
4.609028
 20
4.300000
 30
0.0
 11
4.695833
 21
4.300000
 31
0.0
  0
SPLINE
  5
2ca
100
AcDbEntity
  8
Layer_1
 62
3
100
AcDbSpline
 70
8
 71
3
 72
8
 73
4
 74
0
 40
0
 40
0
 40
0
 40
0
 40
1
 40
1
 40
1
 40
1
 10
4.695833
 20
4.300000
 30
0.0
 10
4.698185
 20
4.300000
 30
0.0
 10
4.700400
 20
4.299503
 30
0.0
 10
4.702479
 20
4.298508
 30
0.0
  0
SPLINE
  5
2cb
100
AcDbEntity
  8
Layer_1
 62
3
100
AcDbSpline
 70
8
 71
3
 72
8
 73
4
 74
0
 40
0
 40
0
 40
0
 40
0
 40
1
 40
1
 40
1
 40
1
 10
4.702479
 20
4.298508
 30
0.0
 10
4.704558
 20
4.297604
 30
0.0
 10
4.706366
 20
4.296338
 30
0.0
 10
4.707905
 20
4.294710
 30
0.0
  0
SPLINE
  5
2cc
100
AcDbEntity
  8
Layer_1
 62
3
100
AcDbSpline
 70
8
 71
3
 72
8
 73
4
 74
0
 40
0
 40
0
 40
0
 40
0
 40
1
 40
1
 40
1
 40
1
 10
4.707905
 20
4.294710
 30
0.0
 10
4.709532
 20
4.293173
 30
0.0
 10
4.710798
 20
4.291365
 30
0.0
 10
4.711704
 20
4.289285
 30
0.0
  0
SPLINE
  5
2cd
100
AcDbEntity
  8
Layer_1
 62
3
100
AcDbSpline
 70
8
 71
3
 72
8
 73
4
 74
0
 40
0
 40
0
 40
0
 40
0
 40
1
 40
1
 40
1
 40
1
 10
4.711704
 20
4.289285
 30
0.0
 10
4.712699
 20
4.287205
 30
0.0
 10
4.713196
 20
4.284990
 30
0.0
 10
4.713196
 20
4.282639
 30
0.0
  0
LINE
  5
2ce
100
AcDbEntity
  8
Layer_1
 62
3
100
AcDbLine
 10
4.713196
 20
4.282639
 30
0.0
 11
4.713196
 21
4.100347
 31
0.0
  0
SPLINE
  5
2cf
100
AcDbEntity
  8
Layer_1
 62
3
100
AcDbSpline
 70
8
 71
3
 72
8
 73
4
 74
0
 40
0
 40
0
 40
0
 40
0
 40
1
 40
1
 40
1
 40
1
 10
4.713196
 20
4.100347
 30
0.0
 10
4.713196
 20
4.097815
 30
0.0
 10
4.714010
 20
4.095736
 30
0.0
 10
4.715637
 20
4.094108
 30
0.0
  0
SPLINE
  5
2d0
100
AcDbEntity
  8
Layer_1
 62
3
100
AcDbSpline
 70
8
 71
3
 72
8
 73
4
 74
0
 40
0
 40
0
 40
0
 40
0
 40
1
 40
1
 40
1
 40
1
 10
4.715637
 20
4.094108
 30
0.0
 10
4.717264
 20
4.092481
 30
0.0
 10
4.719344
 20
4.091667
 30
0.0
 10
4.721876
 20
4.091667
 30
0.0
  0
LINE
  5
2d1
100
AcDbEntity
  8
Layer_1
 62
3
100
AcDbLine
 10
4.721876
 20
4.091667
 30
0.0
 11
4.756598
 21
4.091667
 31
0.0
  0
SPLINE
  5
2d2
100
AcDbEntity
  8
Layer_1
 62
3
100
AcDbSpline
 70
8
 71
3
 72
8
 73
4
 74
0
 40
0
 40
0
 40
0
 40
0
 40
1
 40
1
 40
1
 40
1
 10
4.756598
 20
4.091667
 30
0.0
 10
4.759131
 20
4.091667
 30
0.0
 10
4.761211
 20
4.092526
 30
0.0
 10
4.762837
 20
4.094244
 30
0.0
  0
SPLINE
  5
2d3
100
AcDbEntity
  8
Layer_1
 62
3
100
AcDbSpline
 70
8
 71
3
 72
8
 73
4
 74
0
 40
0
 40
0
 40
0
 40
0
 40
1
 40
1
 40
1
 40
1
 10
4.762837
 20
4.094244
 30
0.0
 10
4.764465
 20
4.095962
 30
0.0
 10
4.765278
 20
4.097997
 30
0.0
 10
4.765278
 20
4.100347
 30
0.0
  0
LINE
  5
2d4
100
AcDbEntity
  8
Layer_1
 62
3
100
AcDbLine
 10
4.765278
 20
4.100347
 30
0.0
 11
4.765278
 21
4.187153
 31
0.0
  0
SPLINE
  5
2d5
100
AcDbEntity
  8
Layer_1
 62
3
100
AcDbSpline
 70
8
 71
3
 72
8
 73
4
 74
0
 40
0
 40
0
 40
0
 40
0
 40
1
 40
1
 40
1
 40
1
 10
4.765278
 20
4.187153
 30
0.0
 10
4.765278
 20
4.189685
 30
0.0
 10
4.766138
 20
4.191764
 30
0.0
 10
4.767857
 20
4.193392
 30
0.0
  0
SPLINE
  5
2d6
100
AcDbEntity
  8
Layer_1
 62
3
100
AcDbSpline
 70
8
 71
3
 72
8
 73
4
 74
0
 40
0
 40
0
 40
0
 40
0
 40
1
 40
1
 40
1
 40
1
 10
4.767857
 20
4.193392
 30
0.0
 10
4.769574
 20
4.195020
 30
0.0
 10
4.771608
 20
4.195833
 30
0.0
 10
4.773961
 20
4.195833
 30
0.0
  0
LINE
  5
2d7
100
AcDbEntity
  8
Layer_1
 62
3
100
AcDbLine
 10
4.773961
 20
4.195833
 30
0.0
 11
4.791322
 21
4.195833
 31
0.0
  0
SPLINE
  5
2d8
100
AcDbEntity
  8
Layer_1
 62
3
100
AcDbSpline
 70
8
 71
3
 72
8
 73
4
 74
0
 40
0
 40
0
 40
0
 40
0
 40
1
 40
1
 40
1
 40
1
 10
4.791322
 20
4.195833
 30
0.0
 10
4.793673
 20
4.195833
 30
0.0
 10
4.795708
 20
4.194974
 30
0.0
 10
4.797425
 20
4.193256
 30
0.0
  0
SPLINE
  5
2d9
100
AcDbEntity
  8
Layer_1
 62
3
100
AcDbSpline
 70
8
 71
3
 72
8
 73
4
 74
0
 40
0
 40
0
 40
0
 40
0
 40
1
 40
1
 40
1
 40
1
 10
4.797425
 20
4.193256
 30
0.0
 10
4.799144
 20
4.191538
 30
0.0
 10
4.800004
 20
4.189504
 30
0.0
 10
4.800004
 20
4.187153
 30
0.0
  0
LINE
  5
2da
100
AcDbEntity
  8
Layer_1
 62
3
100
AcDbLine
 10
4.800004
 20
4.187153
 30
0.0
 11
4.800004
 21
4.074306
 31
0.0
  0
SPLINE
  5
2db
100
AcDbEntity
  8
Layer_1
 62
3
100
AcDbSpline
 70
8
 71
3
 72
8
 73
4
 74
0
 40
0
 40
0
 40
0
 40
0
 40
1
 40
1
 40
1
 40
1
 10
4.800004
 20
4.074306
 30
0.0
 10
4.800004
 20
4.071955
 30
0.0
 10
4.799507
 20
4.069739
 30
0.0
 10
4.798512
 20
4.067659
 30
0.0
  0
SPLINE
  5
2dc
100
AcDbEntity
  8
Layer_1
 62
3
100
AcDbSpline
 70
8
 71
3
 72
8
 73
4
 74
0
 40
0
 40
0
 40
0
 40
0
 40
1
 40
1
 40
1
 40
1
 10
4.798512
 20
4.067659
 30
0.0
 10
4.797609
 20
4.065580
 30
0.0
 10
4.796343
 20
4.063726
 30
0.0
 10
4.794713
 20
4.062099
 30
0.0
  0
SPLINE
  5
2dd
100
AcDbEntity
  8
Layer_1
 62
3
100
AcDbSpline
 70
8
 71
3
 72
8
 73
4
 74
0
 40
0
 40
0
 40
0
 40
0
 40
1
 40
1
 40
1
 40
1
 10
4.794713
 20
4.062099
 30
0.0
 10
4.793175
 20
4.060561
 30
0.0
 10
4.791366
 20
4.059295
 30
0.0
 10
4.789287
 20
4.058301
 30
0.0
  0
SPLINE
  5
2de
100
AcDbEntity
  8
Layer_1
 62
3
100
AcDbSpline
 70
8
 71
3
 72
8
 73
4
 74
0
 40
0
 40
0
 40
0
 40
0
 40
1
 40
1
 40
1
 40
1
 10
4.789287
 20
4.058301
 30
0.0
 10
4.787208
 20
4.057397
 30
0.0
 10
4.784993
 20
4.056945
 30
0.0
 10
4.782641
 20
4.056945
 30
0.0
  0
LINE
  5
2df
100
AcDbEntity
  8
Layer_1
 62
3
100
AcDbLine
 10
4.782641
 20
4.056945
 30
0.0
 11
4.695829
 21
4.056944
 31
0.0
  0
SPLINE
  5
2e0
100
AcDbEntity
  8
Layer_1
 62
3
100
AcDbSpline
 70
8
 71
3
 72
8
 73
4
 74
0
 40
0
 40
0
 40
0
 40
0
 40
1
 40
1
 40
1
 40
1
 10
0.774989
 20
3.634340
 30
0.0
 10
0.777522
 20
3.634340
 30
0.0
 10
0.779602
 20
3.635199
 30
0.0
 10
0.781228
 20
3.636917
 30
0.0
  0
SPLINE
  5
2e1
100
AcDbEntity
  8
Layer_1
 62
3
100
AcDbSpline
 70
8
 71
3
 72
8
 73
4
 74
0
 40
0
 40
0
 40
0
 40
0
 40
1
 40
1
 40
1
 40
1
 10
0.781228
 20
3.636917
 30
0.0
 10
0.782856
 20
3.638635
 30
0.0
 10
0.783669
 20
3.640669
 30
0.0
 10
0.783669
 20
3.643020
 30
0.0
  0
LINE
  5
2e2
100
AcDbEntity
  8
Layer_1
 62
3
100
AcDbLine
 10
0.783669
 20
3.643020
 30
0.0
 11
0.783669
 21
3.764548
 31
0.0
  0
SPLINE
  5
2e3
100
AcDbEntity
  8
Layer_1
 62
3
100
AcDbSpline
 70
8
 71
3
 72
8
 73
4
 74
0
 40
0
 40
0
 40
0
 40
0
 40
1
 40
1
 40
1
 40
1
 10
0.783669
 20
3.764548
 30
0.0
 10
0.783669
 20
3.766899
 30
0.0
 10
0.782810
 20
3.768934
 30
0.0
 10
0.781091
 20
3.770652
 30
0.0
  0
SPLINE
  5
2e4
100
AcDbEntity
  8
Layer_1
 62
3
100
AcDbSpline
 70
8
 71
3
 72
8
 73
4
 74
0
 40
0
 40
0
 40
0
 40
0
 40
1
 40
1
 40
1
 40
1
 10
0.781091
 20
3.770652
 30
0.0
 10
0.779371
 20
3.772370
 30
0.0
 10
0.777337
 20
3.773229
 30
0.0
 10
0.774987
 20
3.773229
 30
0.0
  0
LINE
  5
2e5
100
AcDbEntity
  8
Layer_1
 62
3
100
AcDbLine
 10
0.774987
 20
3.773229
 30
0.0
 11
0.740265
 21
3.773229
 31
0.0
  0
SPLINE
  5
2e6
100
AcDbEntity
  8
Layer_1
 62
3
100
AcDbSpline
 70
8
 71
3
 72
8
 73
4
 74
0
 40
0
 40
0
 40
0
 40
0
 40
1
 40
1
 40
1
 40
1
 10
0.740265
 20
3.773229
 30
0.0
 10
0.737913
 20
3.773229
 30
0.0
 10
0.735879
 20
3.772415
 30
0.0
 10
0.734161
 20
3.770787
 30
0.0
  0
SPLINE
  5
2e7
100
AcDbEntity
  8
Layer_1
 62
3
100
AcDbSpline
 70
8
 71
3
 72
8
 73
4
 74
0
 40
0
 40
0
 40
0
 40
0
 40
1
 40
1
 40
1
 40
1
 10
0.734161
 20
3.770787
 30
0.0
 10
0.732442
 20
3.769160
 30
0.0
 10
0.731583
 20
3.767080
 30
0.0
 10
0.731583
 20
3.764548
 30
0.0
  0
LINE
  5
2e8
100
AcDbEntity
  8
Layer_1
 62
3
100
AcDbLine
 10
0.731583
 20
3.764548
 30
0.0
 11
0.731583
 21
3.643021
 31
0.0
  0
SPLINE
  5
2e9
100
AcDbEntity
  8
Layer_1
 62
3
100
AcDbSpline
 70
8
 71
3
 72
8
 73
4
 74
0
 40
0
 40
0
 40
0
 40
0
 40
1
 40
1
 40
1
 40
1
 10
0.731583
 20
3.643021
 30
0.0
 10
0.731583
 20
3.640489
 30
0.0
 10
0.732396
 20
3.638409
 30
0.0
 10
0.734024
 20
3.636781
 30
0.0
  0
SPLINE
  5
2ea
100
AcDbEntity
  8
Layer_1
 62
3
100
AcDbSpline
 70
8
 71
3
 72
8
 73
4
 74
0
 40
0
 40
0
 40
0
 40
0
 40
1
 40
1
 40
1
 40
1
 10
0.734024
 20
3.636781
 30
0.0
 10
0.735651
 20
3.635154
 30
0.0
 10
0.737731
 20
3.634340
 30
0.0
 10
0.740263
 20
3.634340
 30
0.0
  0
LINE
  5
2eb
100
AcDbEntity
  8
Layer_1
 62
3
100
AcDbLine
 10
0.740263
 20
3.634340
 30
0.0
 11
0.774989
 21
3.634340
 31
0.0
  0
SPLINE
  5
2ec
100
AcDbEntity
  8
Layer_1
 62
3
100
AcDbSpline
 70
8
 71
3
 72
8
 73
4
 74
0
 40
0
 40
0
 40
0
 40
0
 40
1
 40
1
 40
1
 40
1
 10
0.861794
 20
3.634340
 30
0.0
 10
0.864327
 20
3.634340
 30
0.0
 10
0.866407
 20
3.635199
 30
0.0
 10
0.868034
 20
3.636917
 30
0.0
  0
SPLINE
  5
2ed
100
AcDbEntity
  8
Layer_1
 62
3
100
AcDbSpline
 70
8
 71
3
 72
8
 73
4
 74
0
 40
0
 40
0
 40
0
 40
0
 40
1
 40
1
 40
1
 40
1
 10
0.868034
 20
3.636917
 30
0.0
 10
0.869661
 20
3.638635
 30
0.0
 10
0.870475
 20
3.640669
 30
0.0
 10
0.870475
 20
3.643020
 30
0.0
  0
LINE
  5
2ee
100
AcDbEntity
  8
Layer_1
 62
3
100
AcDbLine
 10
0.870475
 20
3.643020
 30
0.0
 11
0.870475
 21
3.764548
 31
0.0
  0
SPLINE
  5
2ef
100
AcDbEntity
  8
Layer_1
 62
3
100
AcDbSpline
 70
8
 71
3
 72
8
 73
4
 74
0
 40
0
 40
0
 40
0
 40
0
 40
1
 40
1
 40
1
 40
1
 10
0.870475
 20
3.764548
 30
0.0
 10
0.870475
 20
3.766899
 30
0.0
 10
0.869615
 20
3.768934
 30
0.0
 10
0.867896
 20
3.770652
 30
0.0
  0
SPLINE
  5
2f0
100
AcDbEntity
  8
Layer_1
 62
3
100
AcDbSpline
 70
8
 71
3
 72
8
 73
4
 74
0
 40
0
 40
0
 40
0
 40
0
 40
1
 40
1
 40
1
 40
1
 10
0.867896
 20
3.770652
 30
0.0
 10
0.866180
 20
3.772370
 30
0.0
 10
0.864145
 20
3.773229
 30
0.0
 10
0.861793
 20
3.773229
 30
0.0
  0
LINE
  5
2f1
100
AcDbEntity
  8
Layer_1
 62
3
100
AcDbLine
 10
0.861793
 20
3.773229
 30
0.0
 11
0.827070
 21
3.773229
 31
0.0
  0
SPLINE
  5
2f2
100
AcDbEntity
  8
Layer_1
 62
3
100
AcDbSpline
 70
8
 71
3
 72
8
 73
4
 74
0
 40
0
 40
0
 40
0
 40
0
 40
1
 40
1
 40
1
 40
1
 10
0.827070
 20
3.773229
 30
0.0
 10
0.824719
 20
3.773229
 30
0.0
 10
0.822684
 20
3.772415
 30
0.0
 10
0.820967
 20
3.770787
 30
0.0
  0
SPLINE
  5
2f3
100
AcDbEntity
  8
Layer_1
 62
3
100
AcDbSpline
 70
8
 71
3
 72
8
 73
4
 74
0
 40
0
 40
0
 40
0
 40
0
 40
1
 40
1
 40
1
 40
1
 10
0.820967
 20
3.770787
 30
0.0
 10
0.819248
 20
3.769160
 30
0.0
 10
0.818388
 20
3.767080
 30
0.0
 10
0.818388
 20
3.764548
 30
0.0
  0
LINE
  5
2f4
100
AcDbEntity
  8
Layer_1
 62
3
100
AcDbLine
 10
0.818388
 20
3.764548
 30
0.0
 11
0.818388
 21
3.643021
 31
0.0
  0
SPLINE
  5
2f5
100
AcDbEntity
  8
Layer_1
 62
3
100
AcDbSpline
 70
8
 71
3
 72
8
 73
4
 74
0
 40
0
 40
0
 40
0
 40
0
 40
1
 40
1
 40
1
 40
1
 10
0.818388
 20
3.643021
 30
0.0
 10
0.818388
 20
3.640489
 30
0.0
 10
0.819202
 20
3.638409
 30
0.0
 10
0.820829
 20
3.636781
 30
0.0
  0
SPLINE
  5
2f6
100
AcDbEntity
  8
Layer_1
 62
3
100
AcDbSpline
 70
8
 71
3
 72
8
 73
4
 74
0
 40
0
 40
0
 40
0
 40
0
 40
1
 40
1
 40
1
 40
1
 10
0.820829
 20
3.636781
 30
0.0
 10
0.822456
 20
3.635154
 30
0.0
 10
0.824536
 20
3.634340
 30
0.0
 10
0.827069
 20
3.634340
 30
0.0
  0
LINE
  5
2f7
100
AcDbEntity
  8
Layer_1
 62
3
100
AcDbLine
 10
0.827069
 20
3.634340
 30
0.0
 11
0.861794
 21
3.634340
 31
0.0
  0
SPLINE
  5
2f8
100
AcDbEntity
  8
Layer_1
 62
3
100
AcDbSpline
 70
8
 71
3
 72
8
 73
4
 74
0
 40
0
 40
0
 40
0
 40
0
 40
1
 40
1
 40
1
 40
1
 10
0.705544
 20
3.582256
 30
0.0
 10
0.703012
 20
3.582256
 30
0.0
 10
0.700932
 20
3.583070
 30
0.0
 10
0.699306
 20
3.584698
 30
0.0
  0
SPLINE
  5
2f9
100
AcDbEntity
  8
Layer_1
 62
3
100
AcDbSpline
 70
8
 71
3
 72
8
 73
4
 74
0
 40
0
 40
0
 40
0
 40
0
 40
1
 40
1
 40
1
 40
1
 10
0.699306
 20
3.584698
 30
0.0
 10
0.697678
 20
3.586325
 30
0.0
 10
0.696865
 20
3.588405
 30
0.0
 10
0.696865
 20
3.590937
 30
0.0
  0
LINE
  5
2fa
100
AcDbEntity
  8
Layer_1
 62
3
100
AcDbLine
 10
0.696865
 20
3.590937
 30
0.0
 11
0.696865
 21
3.816631
 31
0.0
  0
SPLINE
  5
2fb
100
AcDbEntity
  8
Layer_1
 62
3
100
AcDbSpline
 70
8
 71
3
 72
8
 73
4
 74
0
 40
0
 40
0
 40
0
 40
0
 40
1
 40
1
 40
1
 40
1
 10
0.696865
 20
3.816631
 30
0.0
 10
0.696865
 20
3.819163
 30
0.0
 10
0.697723
 20
3.821243
 30
0.0
 10
0.699439
 20
3.822870
 30
0.0
  0
SPLINE
  5
2fc
100
AcDbEntity
  8
Layer_1
 62
3
100
AcDbSpline
 70
8
 71
3
 72
8
 73
4
 74
0
 40
0
 40
0
 40
0
 40
0
 40
1
 40
1
 40
1
 40
1
 10
0.699439
 20
3.822870
 30
0.0
 10
0.701159
 20
3.824498
 30
0.0
 10
0.703193
 20
3.825312
 30
0.0
 10
0.705543
 20
3.825312
 30
0.0
  0
LINE
  5
2fd
100
AcDbEntity
  8
Layer_1
 62
3
100
AcDbLine
 10
0.705543
 20
3.825312
 30
0.0
 11
0.722904
 21
3.825312
 31
0.0
  0
SPLINE
  5
2fe
100
AcDbEntity
  8
Layer_1
 62
3
100
AcDbSpline
 70
8
 71
3
 72
8
 73
4
 74
0
 40
0
 40
0
 40
0
 40
0
 40
1
 40
1
 40
1
 40
1
 10
0.722904
 20
3.825312
 30
0.0
 10
0.724983
 20
3.825312
 30
0.0
 10
0.726520
 20
3.824860
 30
0.0
 10
0.727516
 20
3.823956
 30
0.0
  0
SPLINE
  5
2ff
100
AcDbEntity
  8
Layer_1
 62
3
100
AcDbSpline
 70
8
 71
3
 72
8
 73
4
 74
0
 40
0
 40
0
 40
0
 40
0
 40
1
 40
1
 40
1
 40
1
 10
0.727516
 20
3.823956
 30
0.0
 10
0.728600
 20
3.823142
 30
0.0
 10
0.729413
 20
3.822102
 30
0.0
 10
0.729957
 20
3.820836
 30
0.0
  0
SPLINE
  5
300
100
AcDbEntity
  8
Layer_1
 62
3
100
AcDbSpline
 70
8
 71
3
 72
8
 73
4
 74
0
 40
0
 40
0
 40
0
 40
0
 40
1
 40
1
 40
1
 40
1
 10
0.729957
 20
3.820836
 30
0.0
 10
0.730589
 20
3.819570
 30
0.0
 10
0.731041
 20
3.818168
 30
0.0
 10
0.731311
 20
3.816631
 30
0.0
  0
SPLINE
  5
301
100
AcDbEntity
  8
Layer_1
 62
3
100
AcDbSpline
 70
8
 71
3
 72
8
 73
4
 74
0
 40
0
 40
0
 40
0
 40
0
 40
1
 40
1
 40
1
 40
1
 10
0.731311
 20
3.816631
 30
0.0
 10
0.731673
 20
3.815094
 30
0.0
 10
0.732125
 20
3.813692
 30
0.0
 10
0.732665
 20
3.812427
 30
0.0
  0
SPLINE
  5
302
100
AcDbEntity
  8
Layer_1
 62
3
100
AcDbSpline
 70
8
 71
3
 72
8
 73
4
 74
0
 40
0
 40
0
 40
0
 40
0
 40
1
 40
1
 40
1
 40
1
 10
0.732665
 20
3.812427
 30
0.0
 10
0.733298
 20
3.811161
 30
0.0
 10
0.734157
 20
3.810076
 30
0.0
 10
0.735244
 20
3.809171
 30
0.0
  0
SPLINE
  5
303
100
AcDbEntity
  8
Layer_1
 62
3
100
AcDbSpline
 70
8
 71
3
 72
8
 73
4
 74
0
 40
0
 40
0
 40
0
 40
0
 40
1
 40
1
 40
1
 40
1
 10
0.735244
 20
3.809171
 30
0.0
 10
0.736420
 20
3.808358
 30
0.0
 10
0.738093
 20
3.807951
 30
0.0
 10
0.740263
 20
3.807951
 30
0.0
  0
LINE
  5
304
100
AcDbEntity
  8
Layer_1
 62
3
100
AcDbLine
 10
0.740263
 20
3.807951
 30
0.0
 11
0.861790
 21
3.807951
 31
0.0
  0
SPLINE
  5
305
100
AcDbEntity
  8
Layer_1
 62
3
100
AcDbSpline
 70
8
 71
3
 72
8
 73
4
 74
0
 40
0
 40
0
 40
0
 40
0
 40
1
 40
1
 40
1
 40
1
 10
0.861790
 20
3.807951
 30
0.0
 10
0.863780
 20
3.807951
 30
0.0
 10
0.865317
 20
3.808358
 30
0.0
 10
0.866402
 20
3.809171
 30
0.0
  0
SPLINE
  5
306
100
AcDbEntity
  8
Layer_1
 62
3
100
AcDbSpline
 70
8
 71
3
 72
8
 73
4
 74
0
 40
0
 40
0
 40
0
 40
0
 40
1
 40
1
 40
1
 40
1
 10
0.866402
 20
3.809171
 30
0.0
 10
0.867486
 20
3.810076
 30
0.0
 10
0.868344
 20
3.811161
 30
0.0
 10
0.868977
 20
3.812427
 30
0.0
  0
SPLINE
  5
307
100
AcDbEntity
  8
Layer_1
 62
3
100
AcDbSpline
 70
8
 71
3
 72
8
 73
4
 74
0
 40
0
 40
0
 40
0
 40
0
 40
1
 40
1
 40
1
 40
1
 10
0.868977
 20
3.812427
 30
0.0
 10
0.869609
 20
3.813692
 30
0.0
 10
0.870107
 20
3.815094
 30
0.0
 10
0.870469
 20
3.816631
 30
0.0
  0
SPLINE
  5
308
100
AcDbEntity
  8
Layer_1
 62
3
100
AcDbSpline
 70
8
 71
3
 72
8
 73
4
 74
0
 40
0
 40
0
 40
0
 40
0
 40
1
 40
1
 40
1
 40
1
 10
0.870469
 20
3.816631
 30
0.0
 10
0.870831
 20
3.818168
 30
0.0
 10
0.871328
 20
3.819570
 30
0.0
 10
0.871961
 20
3.820836
 30
0.0
  0
SPLINE
  5
309
100
AcDbEntity
  8
Layer_1
 62
3
100
AcDbSpline
 70
8
 71
3
 72
8
 73
4
 74
0
 40
0
 40
0
 40
0
 40
0
 40
1
 40
1
 40
1
 40
1
 10
0.871961
 20
3.820836
 30
0.0
 10
0.872594
 20
3.822102
 30
0.0
 10
0.873452
 20
3.823142
 30
0.0
 10
0.874536
 20
3.823956
 30
0.0
  0
SPLINE
  5
30a
100
AcDbEntity
  8
Layer_1
 62
3
100
AcDbSpline
 70
8
 71
3
 72
8
 73
4
 74
0
 40
0
 40
0
 40
0
 40
0
 40
1
 40
1
 40
1
 40
1
 10
0.874536
 20
3.823956
 30
0.0
 10
0.875620
 20
3.824860
 30
0.0
 10
0.877157
 20
3.825312
 30
0.0
 10
0.879148
 20
3.825312
 30
0.0
  0
LINE
  5
30b
100
AcDbEntity
  8
Layer_1
 62
3
100
AcDbLine
 10
0.879148
 20
3.825312
 30
0.0
 11
0.896509
 21
3.825312
 31
0.0
  0
SPLINE
  5
30c
100
AcDbEntity
  8
Layer_1
 62
3
100
AcDbSpline
 70
8
 71
3
 72
8
 73
4
 74
0
 40
0
 40
0
 40
0
 40
0
 40
1
 40
1
 40
1
 40
1
 10
0.896509
 20
3.825312
 30
0.0
 10
0.898860
 20
3.825312
 30
0.0
 10
0.900895
 20
3.824453
 30
0.0
 10
0.902612
 20
3.822735
 30
0.0
  0
SPLINE
  5
30d
100
AcDbEntity
  8
Layer_1
 62
3
100
AcDbSpline
 70
8
 71
3
 72
8
 73
4
 74
0
 40
0
 40
0
 40
0
 40
0
 40
1
 40
1
 40
1
 40
1
 10
0.902612
 20
3.822735
 30
0.0
 10
0.904329
 20
3.821017
 30
0.0
 10
0.905187
 20
3.818982
 30
0.0
 10
0.905187
 20
3.816631
 30
0.0
  0
LINE
  5
30e
100
AcDbEntity
  8
Layer_1
 62
3
100
AcDbLine
 10
0.905187
 20
3.816631
 30
0.0
 11
0.905187
 21
3.590937
 31
0.0
  0
SPLINE
  5
30f
100
AcDbEntity
  8
Layer_1
 62
3
100
AcDbSpline
 70
8
 71
3
 72
8
 73
4
 74
0
 40
0
 40
0
 40
0
 40
0
 40
1
 40
1
 40
1
 40
1
 10
0.905187
 20
3.590937
 30
0.0
 10
0.905187
 20
3.588586
 30
0.0
 10
0.904373
 20
3.586551
 30
0.0
 10
0.902746
 20
3.584833
 30
0.0
  0
SPLINE
  5
310
100
AcDbEntity
  8
Layer_1
 62
3
100
AcDbSpline
 70
8
 71
3
 72
8
 73
4
 74
0
 40
0
 40
0
 40
0
 40
0
 40
1
 40
1
 40
1
 40
1
 10
0.902746
 20
3.584833
 30
0.0
 10
0.901119
 20
3.583115
 30
0.0
 10
0.899039
 20
3.582256
 30
0.0
 10
0.896507
 20
3.582256
 30
0.0
  0
LINE
  5
311
100
AcDbEntity
  8
Layer_1
 62
3
100
AcDbLine
 10
0.896507
 20
3.582256
 30
0.0
 11
0.879146
 21
3.582256
 31
0.0
  0
SPLINE
  5
312
100
AcDbEntity
  8
Layer_1
 62
3
100
AcDbSpline
 70
8
 71
3
 72
8
 73
4
 74
0
 40
0
 40
0
 40
0
 40
0
 40
1
 40
1
 40
1
 40
1
 10
0.879146
 20
3.582256
 30
0.0
 10
0.876975
 20
3.582256
 30
0.0
 10
0.875348
 20
3.582663
 30
0.0
 10
0.874263
 20
3.583477
 30
0.0
  0
SPLINE
  5
313
100
AcDbEntity
  8
Layer_1
 62
3
100
AcDbSpline
 70
8
 71
3
 72
8
 73
4
 74
0
 40
0
 40
0
 40
0
 40
0
 40
1
 40
1
 40
1
 40
1
 10
0.874263
 20
3.583477
 30
0.0
 10
0.873179
 20
3.584381
 30
0.0
 10
0.872319
 20
3.585466
 30
0.0
 10
0.871684
 20
3.586732
 30
0.0
  0
SPLINE
  5
314
100
AcDbEntity
  8
Layer_1
 62
3
100
AcDbSpline
 70
8
 71
3
 72
8
 73
4
 74
0
 40
0
 40
0
 40
0
 40
0
 40
1
 40
1
 40
1
 40
1
 10
0.871684
 20
3.586732
 30
0.0
 10
0.871141
 20
3.587998
 30
0.0
 10
0.870734
 20
3.589399
 30
0.0
 10
0.870464
 20
3.590937
 30
0.0
  0
SPLINE
  5
315
100
AcDbEntity
  8
Layer_1
 62
3
100
AcDbSpline
 70
8
 71
3
 72
8
 73
4
 74
0
 40
0
 40
0
 40
0
 40
0
 40
1
 40
1
 40
1
 40
1
 10
0.870464
 20
3.590937
 30
0.0
 10
0.870193
 20
3.592474
 30
0.0
 10
0.869741
 20
3.593875
 30
0.0
 10
0.869106
 20
3.595141
 30
0.0
  0
SPLINE
  5
316
100
AcDbEntity
  8
Layer_1
 62
3
100
AcDbSpline
 70
8
 71
3
 72
8
 73
4
 74
0
 40
0
 40
0
 40
0
 40
0
 40
1
 40
1
 40
1
 40
1
 10
0.869106
 20
3.595141
 30
0.0
 10
0.868562
 20
3.596407
 30
0.0
 10
0.867749
 20
3.597447
 30
0.0
 10
0.866665
 20
3.598261
 30
0.0
  0
SPLINE
  5
317
100
AcDbEntity
  8
Layer_1
 62
3
100
AcDbSpline
 70
8
 71
3
 72
8
 73
4
 74
0
 40
0
 40
0
 40
0
 40
0
 40
1
 40
1
 40
1
 40
1
 10
0.866665
 20
3.598261
 30
0.0
 10
0.865581
 20
3.599165
 30
0.0
 10
0.863953
 20
3.599617
 30
0.0
 10
0.861781
 20
3.599617
 30
0.0
  0
LINE
  5
318
100
AcDbEntity
  8
Layer_1
 62
3
100
AcDbLine
 10
0.861781
 20
3.599617
 30
0.0
 11
0.740254
 21
3.599617
 31
0.0
  0
SPLINE
  5
319
100
AcDbEntity
  8
Layer_1
 62
3
100
AcDbSpline
 70
8
 71
3
 72
8
 73
4
 74
0
 40
0
 40
0
 40
0
 40
0
 40
1
 40
1
 40
1
 40
1
 10
0.740254
 20
3.599617
 30
0.0
 10
0.738083
 20
3.599617
 30
0.0
 10
0.736456
 20
3.599165
 30
0.0
 10
0.735371
 20
3.598261
 30
0.0
  0
SPLINE
  5
31a
100
AcDbEntity
  8
Layer_1
 62
3
100
AcDbSpline
 70
8
 71
3
 72
8
 73
4
 74
0
 40
0
 40
0
 40
0
 40
0
 40
1
 40
1
 40
1
 40
1
 10
0.735371
 20
3.598261
 30
0.0
 10
0.734287
 20
3.597447
 30
0.0
 10
0.733429
 20
3.596407
 30
0.0
 10
0.732796
 20
3.595141
 30
0.0
  0
SPLINE
  5
31b
100
AcDbEntity
  8
Layer_1
 62
3
100
AcDbSpline
 70
8
 71
3
 72
8
 73
4
 74
0
 40
0
 40
0
 40
0
 40
0
 40
1
 40
1
 40
1
 40
1
 10
0.732796
 20
3.595141
 30
0.0
 10
0.732253
 20
3.593875
 30
0.0
 10
0.731846
 20
3.592474
 30
0.0
 10
0.731576
 20
3.590937
 30
0.0
  0
SPLINE
  5
31c
100
AcDbEntity
  8
Layer_1
 62
3
100
AcDbSpline
 70
8
 71
3
 72
8
 73
4
 74
0
 40
0
 40
0
 40
0
 40
0
 40
1
 40
1
 40
1
 40
1
 10
0.731576
 20
3.590937
 30
0.0
 10
0.731305
 20
3.589399
 30
0.0
 10
0.730854
 20
3.587998
 30
0.0
 10
0.730221
 20
3.586732
 30
0.0
  0
SPLINE
  5
31d
100
AcDbEntity
  8
Layer_1
 62
3
100
AcDbSpline
 70
8
 71
3
 72
8
 73
4
 74
0
 40
0
 40
0
 40
0
 40
0
 40
1
 40
1
 40
1
 40
1
 10
0.730221
 20
3.586732
 30
0.0
 10
0.729678
 20
3.585466
 30
0.0
 10
0.728864
 20
3.584381
 30
0.0
 10
0.727780
 20
3.583477
 30
0.0
  0
SPLINE
  5
31e
100
AcDbEntity
  8
Layer_1
 62
3
100
AcDbSpline
 70
8
 71
3
 72
8
 73
4
 74
0
 40
0
 40
0
 40
0
 40
0
 40
1
 40
1
 40
1
 40
1
 10
0.727780
 20
3.583477
 30
0.0
 10
0.726696
 20
3.582663
 30
0.0
 10
0.725069
 20
3.582256
 30
0.0
 10
0.722898
 20
3.582256
 30
0.0
  0
LINE
  5
31f
100
AcDbEntity
  8
Layer_1
 62
3
100
AcDbLine
 10
0.722898
 20
3.582256
 30
0.0
 11
0.705544
 21
3.582256
 31
0.0
  0
SPLINE
  5
320
100
AcDbEntity
  8
Layer_1
 62
3
100
AcDbSpline
 70
8
 71
3
 72
8
 73
4
 74
0
 40
0
 40
0
 40
0
 40
0
 40
1
 40
1
 40
1
 40
1
 10
0.705544
 20
2.903975
 30
0.0
 10
0.703012
 20
2.903975
 30
0.0
 10
0.700932
 20
2.904789
 30
0.0
 10
0.699306
 20
2.906417
 30
0.0
  0
SPLINE
  5
321
100
AcDbEntity
  8
Layer_1
 62
3
100
AcDbSpline
 70
8
 71
3
 72
8
 73
4
 74
0
 40
0
 40
0
 40
0
 40
0
 40
1
 40
1
 40
1
 40
1
 10
0.699306
 20
2.906417
 30
0.0
 10
0.697678
 20
2.908044
 30
0.0
 10
0.696865
 20
2.910124
 30
0.0
 10
0.696865
 20
2.912656
 30
0.0
  0
LINE
  5
322
100
AcDbEntity
  8
Layer_1
 62
3
100
AcDbLine
 10
0.696865
 20
2.912656
 30
0.0
 11
0.696865
 21
2.930017
 31
0.0
  0
SPLINE
  5
323
100
AcDbEntity
  8
Layer_1
 62
3
100
AcDbSpline
 70
8
 71
3
 72
8
 73
4
 74
0
 40
0
 40
0
 40
0
 40
0
 40
1
 40
1
 40
1
 40
1
 10
0.696865
 20
2.930017
 30
0.0
 10
0.696865
 20
2.932006
 30
0.0
 10
0.697271
 20
2.933543
 30
0.0
 10
0.698085
 20
2.934628
 30
0.0
  0
SPLINE
  5
324
100
AcDbEntity
  8
Layer_1
 62
3
100
AcDbSpline
 70
8
 71
3
 72
8
 73
4
 74
0
 40
0
 40
0
 40
0
 40
0
 40
1
 40
1
 40
1
 40
1
 10
0.698085
 20
2.934628
 30
0.0
 10
0.698988
 20
2.935713
 30
0.0
 10
0.700073
 20
2.936573
 30
0.0
 10
0.701341
 20
2.937206
 30
0.0
  0
SPLINE
  5
325
100
AcDbEntity
  8
Layer_1
 62
3
100
AcDbSpline
 70
8
 71
3
 72
8
 73
4
 74
0
 40
0
 40
0
 40
0
 40
0
 40
1
 40
1
 40
1
 40
1
 10
0.701341
 20
2.937206
 30
0.0
 10
0.702606
 20
2.937839
 30
0.0
 10
0.704008
 20
2.938336
 30
0.0
 10
0.705546
 20
2.938698
 30
0.0
  0
SPLINE
  5
326
100
AcDbEntity
  8
Layer_1
 62
3
100
AcDbSpline
 70
8
 71
3
 72
8
 73
4
 74
0
 40
0
 40
0
 40
0
 40
0
 40
1
 40
1
 40
1
 40
1
 10
0.705546
 20
2.938698
 30
0.0
 10
0.707084
 20
2.939059
 30
0.0
 10
0.708485
 20
2.939557
 30
0.0
 10
0.709750
 20
2.940190
 30
0.0
  0
SPLINE
  5
327
100
AcDbEntity
  8
Layer_1
 62
3
100
AcDbSpline
 70
8
 71
3
 72
8
 73
4
 74
0
 40
0
 40
0
 40
0
 40
0
 40
1
 40
1
 40
1
 40
1
 10
0.709750
 20
2.940190
 30
0.0
 10
0.711015
 20
2.940823
 30
0.0
 10
0.712055
 20
2.941682
 30
0.0
 10
0.712869
 20
2.942767
 30
0.0
  0
SPLINE
  5
328
100
AcDbEntity
  8
Layer_1
 62
3
100
AcDbSpline
 70
8
 71
3
 72
8
 73
4
 74
0
 40
0
 40
0
 40
0
 40
0
 40
1
 40
1
 40
1
 40
1
 10
0.712869
 20
2.942767
 30
0.0
 10
0.713774
 20
2.943852
 30
0.0
 10
0.714227
 20
2.945389
 30
0.0
 10
0.714227
 20
2.947379
 30
0.0
  0
LINE
  5
329
100
AcDbEntity
  8
Layer_1
 62
3
100
AcDbLine
 10
0.714227
 20
2.947379
 30
0.0
 11
0.714227
 21
3.129670
 31
0.0
  0
SPLINE
  5
32a
100
AcDbEntity
  8
Layer_1
 62
3
100
AcDbSpline
 70
8
 71
3
 72
8
 73
4
 74
0
 40
0
 40
0
 40
0
 40
0
 40
1
 40
1
 40
1
 40
1
 10
0.714227
 20
3.129670
 30
0.0
 10
0.714227
 20
3.132021
 30
0.0
 10
0.714678
 20
3.134237
 30
0.0
 10
0.715581
 20
3.136316
 30
0.0
  0
SPLINE
  5
32b
100
AcDbEntity
  8
Layer_1
 62
3
100
AcDbSpline
 70
8
 71
3
 72
8
 73
4
 74
0
 40
0
 40
0
 40
0
 40
0
 40
1
 40
1
 40
1
 40
1
 10
0.715581
 20
3.136316
 30
0.0
 10
0.716576
 20
3.138396
 30
0.0
 10
0.717842
 20
3.140205
 30
0.0
 10
0.719380
 20
3.141742
 30
0.0
  0
SPLINE
  5
32c
100
AcDbEntity
  8
Layer_1
 62
3
100
AcDbSpline
 70
8
 71
3
 72
8
 73
4
 74
0
 40
0
 40
0
 40
0
 40
0
 40
1
 40
1
 40
1
 40
1
 10
0.719380
 20
3.141742
 30
0.0
 10
0.721008
 20
3.143369
 30
0.0
 10
0.722861
 20
3.144635
 30
0.0
 10
0.724941
 20
3.145539
 30
0.0
  0
SPLINE
  5
32d
100
AcDbEntity
  8
Layer_1
 62
3
100
AcDbSpline
 70
8
 71
3
 72
8
 73
4
 74
0
 40
0
 40
0
 40
0
 40
0
 40
1
 40
1
 40
1
 40
1
 10
0.724941
 20
3.145539
 30
0.0
 10
0.727020
 20
3.146534
 30
0.0
 10
0.729235
 20
3.147031
 30
0.0
 10
0.731587
 20
3.147031
 30
0.0
  0
LINE
  5
32e
100
AcDbEntity
  8
Layer_1
 62
3
100
AcDbLine
 10
0.731587
 20
3.147031
 30
0.0
 11
0.887837
 21
3.147031
 31
0.0
  0
SPLINE
  5
32f
100
AcDbEntity
  8
Layer_1
 62
3
100
AcDbSpline
 70
8
 71
3
 72
8
 73
4
 74
0
 40
0
 40
0
 40
0
 40
0
 40
1
 40
1
 40
1
 40
1
 10
0.887837
 20
3.147031
 30
0.0
 10
0.890189
 20
3.147031
 30
0.0
 10
0.892404
 20
3.146534
 30
0.0
 10
0.894483
 20
3.145539
 30
0.0
  0
SPLINE
  5
330
100
AcDbEntity
  8
Layer_1
 62
3
100
AcDbSpline
 70
8
 71
3
 72
8
 73
4
 74
0
 40
0
 40
0
 40
0
 40
0
 40
1
 40
1
 40
1
 40
1
 10
0.894483
 20
3.145539
 30
0.0
 10
0.896562
 20
3.144635
 30
0.0
 10
0.898371
 20
3.143369
 30
0.0
 10
0.899909
 20
3.141742
 30
0.0
  0
SPLINE
  5
331
100
AcDbEntity
  8
Layer_1
 62
3
100
AcDbSpline
 70
8
 71
3
 72
8
 73
4
 74
0
 40
0
 40
0
 40
0
 40
0
 40
1
 40
1
 40
1
 40
1
 10
0.899909
 20
3.141742
 30
0.0
 10
0.901536
 20
3.140204
 30
0.0
 10
0.902802
 20
3.138396
 30
0.0
 10
0.903708
 20
3.136316
 30
0.0
  0
SPLINE
  5
332
100
AcDbEntity
  8
Layer_1
 62
3
100
AcDbSpline
 70
8
 71
3
 72
8
 73
4
 74
0
 40
0
 40
0
 40
0
 40
0
 40
1
 40
1
 40
1
 40
1
 10
0.903708
 20
3.136316
 30
0.0
 10
0.904703
 20
3.134237
 30
0.0
 10
0.905200
 20
3.132021
 30
0.0
 10
0.905200
 20
3.129670
 30
0.0
  0
LINE
  5
333
100
AcDbEntity
  8
Layer_1
 62
3
100
AcDbLine
 10
0.905200
 20
3.129670
 30
0.0
 11
0.905200
 21
2.912656
 31
0.0
  0
SPLINE
  5
334
100
AcDbEntity
  8
Layer_1
 62
3
100
AcDbSpline
 70
8
 71
3
 72
8
 73
4
 74
0
 40
0
 40
0
 40
0
 40
0
 40
1
 40
1
 40
1
 40
1
 10
0.905200
 20
2.912656
 30
0.0
 10
0.905200
 20
2.910305
 30
0.0
 10
0.904386
 20
2.908271
 30
0.0
 10
0.902759
 20
2.906553
 30
0.0
  0
SPLINE
  5
335
100
AcDbEntity
  8
Layer_1
 62
3
100
AcDbSpline
 70
8
 71
3
 72
8
 73
4
 74
0
 40
0
 40
0
 40
0
 40
0
 40
1
 40
1
 40
1
 40
1
 10
0.902759
 20
2.906553
 30
0.0
 10
0.901132
 20
2.904835
 30
0.0
 10
0.899052
 20
2.903976
 30
0.0
 10
0.896520
 20
2.903976
 30
0.0
  0
LINE
  5
336
100
AcDbEntity
  8
Layer_1
 62
3
100
AcDbLine
 10
0.896520
 20
2.903976
 30
0.0
 11
0.879159
 21
2.903976
 31
0.0
  0
SPLINE
  5
337
100
AcDbEntity
  8
Layer_1
 62
3
100
AcDbSpline
 70
8
 71
3
 72
8
 73
4
 74
0
 40
0
 40
0
 40
0
 40
0
 40
1
 40
1
 40
1
 40
1
 10
0.879159
 20
2.903976
 30
0.0
 10
0.876626
 20
2.903976
 30
0.0
 10
0.874546
 20
2.904789
 30
0.0
 10
0.872920
 20
2.906417
 30
0.0
  0
SPLINE
  5
338
100
AcDbEntity
  8
Layer_1
 62
3
100
AcDbSpline
 70
8
 71
3
 72
8
 73
4
 74
0
 40
0
 40
0
 40
0
 40
0
 40
1
 40
1
 40
1
 40
1
 10
0.872920
 20
2.906417
 30
0.0
 10
0.871292
 20
2.908045
 30
0.0
 10
0.870479
 20
2.910124
 30
0.0
 10
0.870479
 20
2.912656
 30
0.0
  0
LINE
  5
339
100
AcDbEntity
  8
Layer_1
 62
3
100
AcDbLine
 10
0.870479
 20
2.912656
 30
0.0
 11
0.870479
 21
3.103628
 31
0.0
  0
SPLINE
  5
33a
100
AcDbEntity
  8
Layer_1
 62
3
100
AcDbSpline
 70
8
 71
3
 72
8
 73
4
 74
0
 40
0
 40
0
 40
0
 40
0
 40
1
 40
1
 40
1
 40
1
 10
0.870479
 20
3.103628
 30
0.0
 10
0.870479
 20
3.105979
 30
0.0
 10
0.869619
 20
3.108014
 30
0.0
 10
0.867900
 20
3.109732
 30
0.0
  0
SPLINE
  5
33b
100
AcDbEntity
  8
Layer_1
 62
3
100
AcDbSpline
 70
8
 71
3
 72
8
 73
4
 74
0
 40
0
 40
0
 40
0
 40
0
 40
1
 40
1
 40
1
 40
1
 10
0.867900
 20
3.109732
 30
0.0
 10
0.866183
 20
3.111450
 30
0.0
 10
0.864149
 20
3.112309
 30
0.0
 10
0.861796
 20
3.112309
 30
0.0
  0
LINE
  5
33c
100
AcDbEntity
  8
Layer_1
 62
3
100
AcDbLine
 10
0.861796
 20
3.112309
 30
0.0
 11
0.757630
 21
3.112309
 31
0.0
  0
SPLINE
  5
33d
100
AcDbEntity
  8
Layer_1
 62
3
100
AcDbSpline
 70
8
 71
3
 72
8
 73
4
 74
0
 40
0
 40
0
 40
0
 40
0
 40
1
 40
1
 40
1
 40
1
 10
0.757630
 20
3.112309
 30
0.0
 10
0.755278
 20
3.112309
 30
0.0
 10
0.753244
 20
3.111495
 30
0.0
 10
0.751526
 20
3.109868
 30
0.0
  0
SPLINE
  5
33e
100
AcDbEntity
  8
Layer_1
 62
3
100
AcDbSpline
 70
8
 71
3
 72
8
 73
4
 74
0
 40
0
 40
0
 40
0
 40
0
 40
1
 40
1
 40
1
 40
1
 10
0.751526
 20
3.109868
 30
0.0
 10
0.749807
 20
3.108240
 30
0.0
 10
0.748948
 20
3.106160
 30
0.0
 10
0.748948
 20
3.103629
 30
0.0
  0
LINE
  5
33f
100
AcDbEntity
  8
Layer_1
 62
3
100
AcDbLine
 10
0.748948
 20
3.103629
 30
0.0
 11
0.748948
 21
2.921337
 31
0.0
  0
SPLINE
  5
340
100
AcDbEntity
  8
Layer_1
 62
3
100
AcDbSpline
 70
8
 71
3
 72
8
 73
4
 74
0
 40
0
 40
0
 40
0
 40
0
 40
1
 40
1
 40
1
 40
1
 10
0.748948
 20
2.921337
 30
0.0
 10
0.748948
 20
2.918986
 30
0.0
 10
0.748450
 20
2.916771
 30
0.0
 10
0.747456
 20
2.914691
 30
0.0
  0
SPLINE
  5
341
100
AcDbEntity
  8
Layer_1
 62
3
100
AcDbSpline
 70
8
 71
3
 72
8
 73
4
 74
0
 40
0
 40
0
 40
0
 40
0
 40
1
 40
1
 40
1
 40
1
 10
0.747456
 20
2.914691
 30
0.0
 10
0.746553
 20
2.912611
 30
0.0
 10
0.745286
 20
2.910757
 30
0.0
 10
0.743656
 20
2.909130
 30
0.0
  0
SPLINE
  5
342
100
AcDbEntity
  8
Layer_1
 62
3
100
AcDbSpline
 70
8
 71
3
 72
8
 73
4
 74
0
 40
0
 40
0
 40
0
 40
0
 40
1
 40
1
 40
1
 40
1
 10
0.743656
 20
2.909130
 30
0.0
 10
0.742118
 20
2.907593
 30
0.0
 10
0.740310
 20
2.906327
 30
0.0
 10
0.738231
 20
2.905332
 30
0.0
  0
SPLINE
  5
343
100
AcDbEntity
  8
Layer_1
 62
3
100
AcDbSpline
 70
8
 71
3
 72
8
 73
4
 74
0
 40
0
 40
0
 40
0
 40
0
 40
1
 40
1
 40
1
 40
1
 10
0.738231
 20
2.905332
 30
0.0
 10
0.736152
 20
2.904428
 30
0.0
 10
0.733937
 20
2.903976
 30
0.0
 10
0.731585
 20
2.903976
 30
0.0
  0
LINE
  5
344
100
AcDbEntity
  8
Layer_1
 62
3
100
AcDbLine
 10
0.731585
 20
2.903976
 30
0.0
 11
0.705544
 21
2.903975
 31
0.0
  0
SPLINE
  5
345
100
AcDbEntity
  8
Layer_1
 62
3
100
AcDbSpline
 70
8
 71
3
 72
8
 73
4
 74
0
 40
0
 40
0
 40
0
 40
0
 40
1
 40
1
 40
1
 40
1
 10
0.705544
 20
2.225695
 30
0.0
 10
0.703012
 20
2.225695
 30
0.0
 10
0.700932
 20
2.226508
 30
0.0
 10
0.699306
 20
2.228136
 30
0.0
  0
SPLINE
  5
346
100
AcDbEntity
  8
Layer_1
 62
3
100
AcDbSpline
 70
8
 71
3
 72
8
 73
4
 74
0
 40
0
 40
0
 40
0
 40
0
 40
1
 40
1
 40
1
 40
1
 10
0.699306
 20
2.228136
 30
0.0
 10
0.697678
 20
2.229764
 30
0.0
 10
0.696865
 20
2.231843
 30
0.0
 10
0.696865
 20
2.234375
 30
0.0
  0
LINE
  5
347
100
AcDbEntity
  8
Layer_1
 62
3
100
AcDbLine
 10
0.696865
 20
2.234375
 30
0.0
 11
0.696865
 21
2.251736
 31
0.0
  0
SPLINE
  5
348
100
AcDbEntity
  8
Layer_1
 62
3
100
AcDbSpline
 70
8
 71
3
 72
8
 73
4
 74
0
 40
0
 40
0
 40
0
 40
0
 40
1
 40
1
 40
1
 40
1
 10
0.696865
 20
2.251736
 30
0.0
 10
0.696865
 20
2.254268
 30
0.0
 10
0.697723
 20
2.256348
 30
0.0
 10
0.699439
 20
2.257975
 30
0.0
  0
SPLINE
  5
349
100
AcDbEntity
  8
Layer_1
 62
3
100
AcDbSpline
 70
8
 71
3
 72
8
 73
4
 74
0
 40
0
 40
0
 40
0
 40
0
 40
1
 40
1
 40
1
 40
1
 10
0.699439
 20
2.257975
 30
0.0
 10
0.701159
 20
2.259603
 30
0.0
 10
0.703193
 20
2.260417
 30
0.0
 10
0.705543
 20
2.260417
 30
0.0
  0
LINE
  5
34a
100
AcDbEntity
  8
Layer_1
 62
3
100
AcDbLine
 10
0.705543
 20
2.260417
 30
0.0
 11
0.774987
 21
2.260417
 31
0.0
  0
SPLINE
  5
34b
100
AcDbEntity
  8
Layer_1
 62
3
100
AcDbSpline
 70
8
 71
3
 72
8
 73
4
 74
0
 40
0
 40
0
 40
0
 40
0
 40
1
 40
1
 40
1
 40
1
 10
0.774987
 20
2.260417
 30
0.0
 10
0.777520
 20
2.260417
 30
0.0
 10
0.779600
 20
2.261276
 30
0.0
 10
0.781227
 20
2.262994
 30
0.0
  0
SPLINE
  5
34c
100
AcDbEntity
  8
Layer_1
 62
3
100
AcDbSpline
 70
8
 71
3
 72
8
 73
4
 74
0
 40
0
 40
0
 40
0
 40
0
 40
1
 40
1
 40
1
 40
1
 10
0.781227
 20
2.262994
 30
0.0
 10
0.782854
 20
2.264712
 30
0.0
 10
0.783668
 20
2.266746
 30
0.0
 10
0.783668
 20
2.269097
 30
0.0
  0
LINE
  5
34d
100
AcDbEntity
  8
Layer_1
 62
3
100
AcDbLine
 10
0.783668
 20
2.269097
 30
0.0
 11
0.783668
 21
2.321181
 31
0.0
  0
SPLINE
  5
34e
100
AcDbEntity
  8
Layer_1
 62
3
100
AcDbSpline
 70
8
 71
3
 72
8
 73
4
 74
0
 40
0
 40
0
 40
0
 40
0
 40
1
 40
1
 40
1
 40
1
 10
0.783668
 20
2.321181
 30
0.0
 10
0.783668
 20
2.323532
 30
0.0
 10
0.782808
 20
2.325566
 30
0.0
 10
0.781089
 20
2.327284
 30
0.0
  0
SPLINE
  5
34f
100
AcDbEntity
  8
Layer_1
 62
3
100
AcDbSpline
 70
8
 71
3
 72
8
 73
4
 74
0
 40
0
 40
0
 40
0
 40
0
 40
1
 40
1
 40
1
 40
1
 10
0.781089
 20
2.327284
 30
0.0
 10
0.779370
 20
2.329002
 30
0.0
 10
0.777335
 20
2.329861
 30
0.0
 10
0.774985
 20
2.329861
 30
0.0
  0
LINE
  5
350
100
AcDbEntity
  8
Layer_1
 62
3
100
AcDbLine
 10
0.774985
 20
2.329861
 30
0.0
 11
0.714222
 21
2.329861
 31
0.0
  0
SPLINE
  5
351
100
AcDbEntity
  8
Layer_1
 62
3
100
AcDbSpline
 70
8
 71
3
 72
8
 73
4
 74
0
 40
0
 40
0
 40
0
 40
0
 40
1
 40
1
 40
1
 40
1
 10
0.714222
 20
2.329861
 30
0.0
 10
0.711781
 20
2.329861
 30
0.0
 10
0.709475
 20
2.330314
 30
0.0
 10
0.707304
 20
2.331218
 30
0.0
  0
SPLINE
  5
352
100
AcDbEntity
  8
Layer_1
 62
3
100
AcDbSpline
 70
8
 71
3
 72
8
 73
4
 74
0
 40
0
 40
0
 40
0
 40
0
 40
1
 40
1
 40
1
 40
1
 10
0.707304
 20
2.331218
 30
0.0
 10
0.705226
 20
2.332122
 30
0.0
 10
0.703417
 20
2.333343
 30
0.0
 10
0.701879
 20
2.334880
 30
0.0
  0
SPLINE
  5
353
100
AcDbEntity
  8
Layer_1
 62
3
100
AcDbSpline
 70
8
 71
3
 72
8
 73
4
 74
0
 40
0
 40
0
 40
0
 40
0
 40
1
 40
1
 40
1
 40
1
 10
0.701879
 20
2.334880
 30
0.0
 10
0.700341
 20
2.336417
 30
0.0
 10
0.699121
 20
2.338226
 30
0.0
 10
0.698218
 20
2.340305
 30
0.0
  0
SPLINE
  5
354
100
AcDbEntity
  8
Layer_1
 62
3
100
AcDbSpline
 70
8
 71
3
 72
8
 73
4
 74
0
 40
0
 40
0
 40
0
 40
0
 40
1
 40
1
 40
1
 40
1
 10
0.698218
 20
2.340305
 30
0.0
 10
0.697312
 20
2.342475
 30
0.0
 10
0.696859
 20
2.344781
 30
0.0
 10
0.696859
 20
2.347223
 30
0.0
  0
LINE
  5
355
100
AcDbEntity
  8
Layer_1
 62
3
100
AcDbLine
 10
0.696859
 20
2.347223
 30
0.0
 11
0.696859
 21
2.460070
 31
0.0
  0
SPLINE
  5
356
100
AcDbEntity
  8
Layer_1
 62
3
100
AcDbSpline
 70
8
 71
3
 72
8
 73
4
 74
0
 40
0
 40
0
 40
0
 40
0
 40
1
 40
1
 40
1
 40
1
 10
0.696859
 20
2.460070
 30
0.0
 10
0.696859
 20
2.462602
 30
0.0
 10
0.697718
 20
2.464681
 30
0.0
 10
0.699434
 20
2.466309
 30
0.0
  0
SPLINE
  5
357
100
AcDbEntity
  8
Layer_1
 62
3
100
AcDbSpline
 70
8
 71
3
 72
8
 73
4
 74
0
 40
0
 40
0
 40
0
 40
0
 40
1
 40
1
 40
1
 40
1
 10
0.699434
 20
2.466309
 30
0.0
 10
0.701153
 20
2.467936
 30
0.0
 10
0.703188
 20
2.468750
 30
0.0
 10
0.705538
 20
2.468750
 30
0.0
  0
LINE
  5
358
100
AcDbEntity
  8
Layer_1
 62
3
100
AcDbLine
 10
0.705538
 20
2.468750
 30
0.0
 11
0.722899
 21
2.468750
 31
0.0
  0
SPLINE
  5
359
100
AcDbEntity
  8
Layer_1
 62
3
100
AcDbSpline
 70
8
 71
3
 72
8
 73
4
 74
0
 40
0
 40
0
 40
0
 40
0
 40
1
 40
1
 40
1
 40
1
 10
0.722899
 20
2.468750
 30
0.0
 10
0.725251
 20
2.468750
 30
0.0
 10
0.727285
 20
2.467891
 30
0.0
 10
0.729002
 20
2.466173
 30
0.0
  0
SPLINE
  5
35a
100
AcDbEntity
  8
Layer_1
 62
3
100
AcDbSpline
 70
8
 71
3
 72
8
 73
4
 74
0
 40
0
 40
0
 40
0
 40
0
 40
1
 40
1
 40
1
 40
1
 10
0.729002
 20
2.466173
 30
0.0
 10
0.730722
 20
2.464455
 30
0.0
 10
0.731581
 20
2.462420
 30
0.0
 10
0.731581
 20
2.460070
 30
0.0
  0
LINE
  5
35b
100
AcDbEntity
  8
Layer_1
 62
3
100
AcDbLine
 10
0.731581
 20
2.460070
 30
0.0
 11
0.731581
 21
2.373264
 31
0.0
  0
SPLINE
  5
35c
100
AcDbEntity
  8
Layer_1
 62
3
100
AcDbSpline
 70
8
 71
3
 72
8
 73
4
 74
0
 40
0
 40
0
 40
0
 40
0
 40
1
 40
1
 40
1
 40
1
 10
0.731581
 20
2.373264
 30
0.0
 10
0.731581
 20
2.370732
 30
0.0
 10
0.732395
 20
2.368653
 30
0.0
 10
0.734022
 20
2.367025
 30
0.0
  0
SPLINE
  5
35d
100
AcDbEntity
  8
Layer_1
 62
3
100
AcDbSpline
 70
8
 71
3
 72
8
 73
4
 74
0
 40
0
 40
0
 40
0
 40
0
 40
1
 40
1
 40
1
 40
1
 10
0.734022
 20
2.367025
 30
0.0
 10
0.735649
 20
2.365397
 30
0.0
 10
0.737729
 20
2.364584
 30
0.0
 10
0.740261
 20
2.364584
 30
0.0
  0
LINE
  5
35e
100
AcDbEntity
  8
Layer_1
 62
3
100
AcDbLine
 10
0.740261
 20
2.364584
 30
0.0
 11
0.861789
 21
2.364584
 31
0.0
  0
SPLINE
  5
35f
100
AcDbEntity
  8
Layer_1
 62
3
100
AcDbSpline
 70
8
 71
3
 72
8
 73
4
 74
0
 40
0
 40
0
 40
0
 40
0
 40
1
 40
1
 40
1
 40
1
 10
0.861789
 20
2.364584
 30
0.0
 10
0.864322
 20
2.364584
 30
0.0
 10
0.866402
 20
2.365443
 30
0.0
 10
0.868028
 20
2.367161
 30
0.0
  0
SPLINE
  5
360
100
AcDbEntity
  8
Layer_1
 62
3
100
AcDbSpline
 70
8
 71
3
 72
8
 73
4
 74
0
 40
0
 40
0
 40
0
 40
0
 40
1
 40
1
 40
1
 40
1
 10
0.868028
 20
2.367161
 30
0.0
 10
0.869656
 20
2.368879
 30
0.0
 10
0.870469
 20
2.370913
 30
0.0
 10
0.870469
 20
2.373264
 30
0.0
  0
LINE
  5
361
100
AcDbEntity
  8
Layer_1
 62
3
100
AcDbLine
 10
0.870469
 20
2.373264
 30
0.0
 11
0.870469
 21
2.460070
 31
0.0
  0
SPLINE
  5
362
100
AcDbEntity
  8
Layer_1
 62
3
100
AcDbSpline
 70
8
 71
3
 72
8
 73
4
 74
0
 40
0
 40
0
 40
0
 40
0
 40
1
 40
1
 40
1
 40
1
 10
0.870469
 20
2.460070
 30
0.0
 10
0.870469
 20
2.462602
 30
0.0
 10
0.871329
 20
2.464681
 30
0.0
 10
0.873048
 20
2.466309
 30
0.0
  0
SPLINE
  5
363
100
AcDbEntity
  8
Layer_1
 62
3
100
AcDbSpline
 70
8
 71
3
 72
8
 73
4
 74
0
 40
0
 40
0
 40
0
 40
0
 40
1
 40
1
 40
1
 40
1
 10
0.873048
 20
2.466309
 30
0.0
 10
0.874765
 20
2.467936
 30
0.0
 10
0.876799
 20
2.468750
 30
0.0
 10
0.879152
 20
2.468750
 30
0.0
  0
LINE
  5
364
100
AcDbEntity
  8
Layer_1
 62
3
100
AcDbLine
 10
0.879152
 20
2.468750
 30
0.0
 11
0.896513
 21
2.468750
 31
0.0
  0
SPLINE
  5
365
100
AcDbEntity
  8
Layer_1
 62
3
100
AcDbSpline
 70
8
 71
3
 72
8
 73
4
 74
0
 40
0
 40
0
 40
0
 40
0
 40
1
 40
1
 40
1
 40
1
 10
0.896513
 20
2.468750
 30
0.0
 10
0.898864
 20
2.468750
 30
0.0
 10
0.900899
 20
2.467891
 30
0.0
 10
0.902616
 20
2.466173
 30
0.0
  0
SPLINE
  5
366
100
AcDbEntity
  8
Layer_1
 62
3
100
AcDbSpline
 70
8
 71
3
 72
8
 73
4
 74
0
 40
0
 40
0
 40
0
 40
0
 40
1
 40
1
 40
1
 40
1
 10
0.902616
 20
2.466173
 30
0.0
 10
0.904333
 20
2.464455
 30
0.0
 10
0.905191
 20
2.462420
 30
0.0
 10
0.905191
 20
2.460070
 30
0.0
  0
LINE
  5
367
100
AcDbEntity
  8
Layer_1
 62
3
100
AcDbLine
 10
0.905191
 20
2.460070
 30
0.0
 11
0.905191
 21
2.347222
 31
0.0
  0
SPLINE
  5
368
100
AcDbEntity
  8
Layer_1
 62
3
100
AcDbSpline
 70
8
 71
3
 72
8
 73
4
 74
0
 40
0
 40
0
 40
0
 40
0
 40
1
 40
1
 40
1
 40
1
 10
0.905191
 20
2.347222
 30
0.0
 10
0.905191
 20
2.344871
 30
0.0
 10
0.904694
 20
2.342656
 30
0.0
 10
0.903699
 20
2.340576
 30
0.0
  0
SPLINE
  5
369
100
AcDbEntity
  8
Layer_1
 62
3
100
AcDbSpline
 70
8
 71
3
 72
8
 73
4
 74
0
 40
0
 40
0
 40
0
 40
0
 40
1
 40
1
 40
1
 40
1
 10
0.903699
 20
2.340576
 30
0.0
 10
0.902796
 20
2.338497
 30
0.0
 10
0.901530
 20
2.336643
 30
0.0
 10
0.899900
 20
2.335015
 30
0.0
  0
SPLINE
  5
36a
100
AcDbEntity
  8
Layer_1
 62
3
100
AcDbSpline
 70
8
 71
3
 72
8
 73
4
 74
0
 40
0
 40
0
 40
0
 40
0
 40
1
 40
1
 40
1
 40
1
 10
0.899900
 20
2.335015
 30
0.0
 10
0.898362
 20
2.333478
 30
0.0
 10
0.896553
 20
2.332212
 30
0.0
 10
0.894474
 20
2.331218
 30
0.0
  0
SPLINE
  5
36b
100
AcDbEntity
  8
Layer_1
 62
3
100
AcDbSpline
 70
8
 71
3
 72
8
 73
4
 74
0
 40
0
 40
0
 40
0
 40
0
 40
1
 40
1
 40
1
 40
1
 10
0.894474
 20
2.331218
 30
0.0
 10
0.892396
 20
2.330313
 30
0.0
 10
0.890180
 20
2.329861
 30
0.0
 10
0.887828
 20
2.329861
 30
0.0
  0
LINE
  5
36c
100
AcDbEntity
  8
Layer_1
 62
3
100
AcDbLine
 10
0.887828
 20
2.329861
 30
0.0
 11
0.827065
 21
2.329861
 31
0.0
  0
SPLINE
  5
36d
100
AcDbEntity
  8
Layer_1
 62
3
100
AcDbSpline
 70
8
 71
3
 72
8
 73
4
 74
0
 40
0
 40
0
 40
0
 40
0
 40
1
 40
1
 40
1
 40
1
 10
0.827065
 20
2.329861
 30
0.0
 10
0.824713
 20
2.329861
 30
0.0
 10
0.822678
 20
2.329048
 30
0.0
 10
0.820961
 20
2.327420
 30
0.0
  0
SPLINE
  5
36e
100
AcDbEntity
  8
Layer_1
 62
3
100
AcDbSpline
 70
8
 71
3
 72
8
 73
4
 74
0
 40
0
 40
0
 40
0
 40
0
 40
1
 40
1
 40
1
 40
1
 10
0.820961
 20
2.327420
 30
0.0
 10
0.819242
 20
2.325792
 30
0.0
 10
0.818382
 20
2.323713
 30
0.0
 10
0.818382
 20
2.321181
 30
0.0
  0
LINE
  5
36f
100
AcDbEntity
  8
Layer_1
 62
3
100
AcDbLine
 10
0.818382
 20
2.321181
 30
0.0
 11
0.818382
 21
2.269098
 31
0.0
  0
SPLINE
  5
370
100
AcDbEntity
  8
Layer_1
 62
3
100
AcDbSpline
 70
8
 71
3
 72
8
 73
4
 74
0
 40
0
 40
0
 40
0
 40
0
 40
1
 40
1
 40
1
 40
1
 10
0.818382
 20
2.269098
 30
0.0
 10
0.818382
 20
2.266566
 30
0.0
 10
0.819196
 20
2.264486
 30
0.0
 10
0.820823
 20
2.262859
 30
0.0
  0
SPLINE
  5
371
100
AcDbEntity
  8
Layer_1
 62
3
100
AcDbSpline
 70
8
 71
3
 72
8
 73
4
 74
0
 40
0
 40
0
 40
0
 40
0
 40
1
 40
1
 40
1
 40
1
 10
0.820823
 20
2.262859
 30
0.0
 10
0.822451
 20
2.261231
 30
0.0
 10
0.824530
 20
2.260417
 30
0.0
 10
0.827063
 20
2.260417
 30
0.0
  0
LINE
  5
372
100
AcDbEntity
  8
Layer_1
 62
3
100
AcDbLine
 10
0.827063
 20
2.260417
 30
0.0
 11
0.896507
 21
2.260417
 31
0.0
  0
SPLINE
  5
373
100
AcDbEntity
  8
Layer_1
 62
3
100
AcDbSpline
 70
8
 71
3
 72
8
 73
4
 74
0
 40
0
 40
0
 40
0
 40
0
 40
1
 40
1
 40
1
 40
1
 10
0.896507
 20
2.260417
 30
0.0
 10
0.898859
 20
2.260417
 30
0.0
 10
0.900893
 20
2.259558
 30
0.0
 10
0.902611
 20
2.257840
 30
0.0
  0
SPLINE
  5
374
100
AcDbEntity
  8
Layer_1
 62
3
100
AcDbSpline
 70
8
 71
3
 72
8
 73
4
 74
0
 40
0
 40
0
 40
0
 40
0
 40
1
 40
1
 40
1
 40
1
 10
0.902611
 20
2.257840
 30
0.0
 10
0.904327
 20
2.256122
 30
0.0
 10
0.905185
 20
2.254087
 30
0.0
 10
0.905185
 20
2.251736
 30
0.0
  0
LINE
  5
375
100
AcDbEntity
  8
Layer_1
 62
3
100
AcDbLine
 10
0.905185
 20
2.251736
 30
0.0
 11
0.905185
 21
2.234375
 31
0.0
  0
SPLINE
  5
376
100
AcDbEntity
  8
Layer_1
 62
3
100
AcDbSpline
 70
8
 71
3
 72
8
 73
4
 74
0
 40
0
 40
0
 40
0
 40
0
 40
1
 40
1
 40
1
 40
1
 10
0.905185
 20
2.234375
 30
0.0
 10
0.905185
 20
2.232024
 30
0.0
 10
0.904372
 20
2.229990
 30
0.0
 10
0.902744
 20
2.228272
 30
0.0
  0
SPLINE
  5
377
100
AcDbEntity
  8
Layer_1
 62
3
100
AcDbSpline
 70
8
 71
3
 72
8
 73
4
 74
0
 40
0
 40
0
 40
0
 40
0
 40
1
 40
1
 40
1
 40
1
 10
0.902744
 20
2.228272
 30
0.0
 10
0.901117
 20
2.226554
 30
0.0
 10
0.899038
 20
2.225695
 30
0.0
 10
0.896506
 20
2.225695
 30
0.0
  0
LINE
  5
378
100
AcDbEntity
  8
Layer_1
 62
3
100
AcDbLine
 10
0.896506
 20
2.225695
 30
0.0
 11
0.705544
 21
2.225695
 31
0.0
  0
SPLINE
  5
379
100
AcDbEntity
  8
Layer_1
 62
3
100
AcDbSpline
 70
8
 71
3
 72
8
 73
4
 74
0
 40
0
 40
0
 40
0
 40
0
 40
1
 40
1
 40
1
 40
1
 10
0.774989
 20
1.651580
 30
0.0
 10
0.777522
 20
1.651580
 30
0.0
 10
0.779602
 20
1.652439
 30
0.0
 10
0.781228
 20
1.654157
 30
0.0
  0
SPLINE
  5
37a
100
AcDbEntity
  8
Layer_1
 62
3
100
AcDbSpline
 70
8
 71
3
 72
8
 73
4
 74
0
 40
0
 40
0
 40
0
 40
0
 40
1
 40
1
 40
1
 40
1
 10
0.781228
 20
1.654157
 30
0.0
 10
0.782856
 20
1.655875
 30
0.0
 10
0.783669
 20
1.657910
 30
0.0
 10
0.783669
 20
1.660261
 30
0.0
  0
LINE
  5
37b
100
AcDbEntity
  8
Layer_1
 62
3
100
AcDbLine
 10
0.783669
 20
1.660261
 30
0.0
 11
0.783669
 21
1.747066
 31
0.0
  0
SPLINE
  5
37c
100
AcDbEntity
  8
Layer_1
 62
3
100
AcDbSpline
 70
8
 71
3
 72
8
 73
4
 74
0
 40
0
 40
0
 40
0
 40
0
 40
1
 40
1
 40
1
 40
1
 10
0.783669
 20
1.747066
 30
0.0
 10
0.783669
 20
1.749417
 30
0.0
 10
0.782810
 20
1.751452
 30
0.0
 10
0.781091
 20
1.753170
 30
0.0
  0
SPLINE
  5
37d
100
AcDbEntity
  8
Layer_1
 62
3
100
AcDbSpline
 70
8
 71
3
 72
8
 73
4
 74
0
 40
0
 40
0
 40
0
 40
0
 40
1
 40
1
 40
1
 40
1
 10
0.781091
 20
1.753170
 30
0.0
 10
0.779371
 20
1.754888
 30
0.0
 10
0.777337
 20
1.755747
 30
0.0
 10
0.774987
 20
1.755747
 30
0.0
  0
LINE
  5
37e
100
AcDbEntity
  8
Layer_1
 62
3
100
AcDbLine
 10
0.774987
 20
1.755747
 30
0.0
 11
0.740265
 21
1.755747
 31
0.0
  0
SPLINE
  5
37f
100
AcDbEntity
  8
Layer_1
 62
3
100
AcDbSpline
 70
8
 71
3
 72
8
 73
4
 74
0
 40
0
 40
0
 40
0
 40
0
 40
1
 40
1
 40
1
 40
1
 10
0.740265
 20
1.755747
 30
0.0
 10
0.737913
 20
1.755747
 30
0.0
 10
0.735879
 20
1.754933
 30
0.0
 10
0.734161
 20
1.753305
 30
0.0
  0
SPLINE
  5
380
100
AcDbEntity
  8
Layer_1
 62
3
100
AcDbSpline
 70
8
 71
3
 72
8
 73
4
 74
0
 40
0
 40
0
 40
0
 40
0
 40
1
 40
1
 40
1
 40
1
 10
0.734161
 20
1.753305
 30
0.0
 10
0.732442
 20
1.751678
 30
0.0
 10
0.731583
 20
1.749598
 30
0.0
 10
0.731583
 20
1.747066
 30
0.0
  0
LINE
  5
381
100
AcDbEntity
  8
Layer_1
 62
3
100
AcDbLine
 10
0.731583
 20
1.747066
 30
0.0
 11
0.731583
 21
1.660261
 31
0.0
  0
SPLINE
  5
382
100
AcDbEntity
  8
Layer_1
 62
3
100
AcDbSpline
 70
8
 71
3
 72
8
 73
4
 74
0
 40
0
 40
0
 40
0
 40
0
 40
1
 40
1
 40
1
 40
1
 10
0.731583
 20
1.660261
 30
0.0
 10
0.731583
 20
1.657729
 30
0.0
 10
0.732396
 20
1.655649
 30
0.0
 10
0.734024
 20
1.654021
 30
0.0
  0
SPLINE
  5
383
100
AcDbEntity
  8
Layer_1
 62
3
100
AcDbSpline
 70
8
 71
3
 72
8
 73
4
 74
0
 40
0
 40
0
 40
0
 40
0
 40
1
 40
1
 40
1
 40
1
 10
0.734024
 20
1.654021
 30
0.0
 10
0.735651
 20
1.652394
 30
0.0
 10
0.737731
 20
1.651580
 30
0.0
 10
0.740263
 20
1.651580
 30
0.0
  0
LINE
  5
384
100
AcDbEntity
  8
Layer_1
 62
3
100
AcDbLine
 10
0.740263
 20
1.651580
 30
0.0
 11
0.774989
 21
1.651580
 31
0.0
  0
SPLINE
  5
385
100
AcDbEntity
  8
Layer_1
 62
3
100
AcDbSpline
 70
8
 71
3
 72
8
 73
4
 74
0
 40
0
 40
0
 40
0
 40
0
 40
1
 40
1
 40
1
 40
1
 10
0.705544
 20
1.547413
 30
0.0
 10
0.703012
 20
1.547413
 30
0.0
 10
0.700932
 20
1.548227
 30
0.0
 10
0.699306
 20
1.549855
 30
0.0
  0
SPLINE
  5
386
100
AcDbEntity
  8
Layer_1
 62
3
100
AcDbSpline
 70
8
 71
3
 72
8
 73
4
 74
0
 40
0
 40
0
 40
0
 40
0
 40
1
 40
1
 40
1
 40
1
 10
0.699306
 20
1.549855
 30
0.0
 10
0.697678
 20
1.551482
 30
0.0
 10
0.696865
 20
1.553562
 30
0.0
 10
0.696865
 20
1.556094
 30
0.0
  0
LINE
  5
387
100
AcDbEntity
  8
Layer_1
 62
3
100
AcDbLine
 10
0.696865
 20
1.556094
 30
0.0
 11
0.696865
 21
1.573455
 31
0.0
  0
SPLINE
  5
388
100
AcDbEntity
  8
Layer_1
 62
3
100
AcDbSpline
 70
8
 71
3
 72
8
 73
4
 74
0
 40
0
 40
0
 40
0
 40
0
 40
1
 40
1
 40
1
 40
1
 10
0.696865
 20
1.573455
 30
0.0
 10
0.696865
 20
1.575987
 30
0.0
 10
0.697723
 20
1.578067
 30
0.0
 10
0.699439
 20
1.579694
 30
0.0
  0
SPLINE
  5
389
100
AcDbEntity
  8
Layer_1
 62
3
100
AcDbSpline
 70
8
 71
3
 72
8
 73
4
 74
0
 40
0
 40
0
 40
0
 40
0
 40
1
 40
1
 40
1
 40
1
 10
0.699439
 20
1.579694
 30
0.0
 10
0.701159
 20
1.581322
 30
0.0
 10
0.703193
 20
1.582136
 30
0.0
 10
0.705543
 20
1.582136
 30
0.0
  0
LINE
  5
38a
100
AcDbEntity
  8
Layer_1
 62
3
100
AcDbLine
 10
0.705543
 20
1.582136
 30
0.0
 11
0.861793
 21
1.582136
 31
0.0
  0
SPLINE
  5
38b
100
AcDbEntity
  8
Layer_1
 62
3
100
AcDbSpline
 70
8
 71
3
 72
8
 73
4
 74
0
 40
0
 40
0
 40
0
 40
0
 40
1
 40
1
 40
1
 40
1
 10
0.861793
 20
1.582136
 30
0.0
 10
0.864326
 20
1.582136
 30
0.0
 10
0.866406
 20
1.582995
 30
0.0
 10
0.868032
 20
1.584713
 30
0.0
  0
SPLINE
  5
38c
100
AcDbEntity
  8
Layer_1
 62
3
100
AcDbSpline
 70
8
 71
3
 72
8
 73
4
 74
0
 40
0
 40
0
 40
0
 40
0
 40
1
 40
1
 40
1
 40
1
 10
0.868032
 20
1.584713
 30
0.0
 10
0.869660
 20
1.586431
 30
0.0
 10
0.870473
 20
1.588465
 30
0.0
 10
0.870473
 20
1.590816
 30
0.0
  0
LINE
  5
38d
100
AcDbEntity
  8
Layer_1
 62
3
100
AcDbLine
 10
0.870473
 20
1.590816
 30
0.0
 11
0.870473
 21
1.642900
 31
0.0
  0
SPLINE
  5
38e
100
AcDbEntity
  8
Layer_1
 62
3
100
AcDbSpline
 70
8
 71
3
 72
8
 73
4
 74
0
 40
0
 40
0
 40
0
 40
0
 40
1
 40
1
 40
1
 40
1
 10
0.870473
 20
1.642900
 30
0.0
 10
0.870473
 20
1.645251
 30
0.0
 10
0.869614
 20
1.647285
 30
0.0
 10
0.867894
 20
1.649003
 30
0.0
  0
SPLINE
  5
38f
100
AcDbEntity
  8
Layer_1
 62
3
100
AcDbSpline
 70
8
 71
3
 72
8
 73
4
 74
0
 40
0
 40
0
 40
0
 40
0
 40
1
 40
1
 40
1
 40
1
 10
0.867894
 20
1.649003
 30
0.0
 10
0.866178
 20
1.650721
 30
0.0
 10
0.864143
 20
1.651580
 30
0.0
 10
0.861791
 20
1.651580
 30
0.0
  0
LINE
  5
390
100
AcDbEntity
  8
Layer_1
 62
3
100
AcDbLine
 10
0.861791
 20
1.651580
 30
0.0
 11
0.827069
 21
1.651580
 31
0.0
  0
SPLINE
  5
391
100
AcDbEntity
  8
Layer_1
 62
3
100
AcDbSpline
 70
8
 71
3
 72
8
 73
4
 74
0
 40
0
 40
0
 40
0
 40
0
 40
1
 40
1
 40
1
 40
1
 10
0.827069
 20
1.651580
 30
0.0
 10
0.824717
 20
1.651580
 30
0.0
 10
0.822683
 20
1.650766
 30
0.0
 10
0.820965
 20
1.649139
 30
0.0
  0
SPLINE
  5
392
100
AcDbEntity
  8
Layer_1
 62
3
100
AcDbSpline
 70
8
 71
3
 72
8
 73
4
 74
0
 40
0
 40
0
 40
0
 40
0
 40
1
 40
1
 40
1
 40
1
 10
0.820965
 20
1.649139
 30
0.0
 10
0.819246
 20
1.647511
 30
0.0
 10
0.818387
 20
1.645431
 30
0.0
 10
0.818387
 20
1.642900
 30
0.0
  0
LINE
  5
393
100
AcDbEntity
  8
Layer_1
 62
3
100
AcDbLine
 10
0.818387
 20
1.642900
 30
0.0
 11
0.818387
 21
1.634219
 31
0.0
  0
SPLINE
  5
394
100
AcDbEntity
  8
Layer_1
 62
3
100
AcDbSpline
 70
8
 71
3
 72
8
 73
4
 74
0
 40
0
 40
0
 40
0
 40
0
 40
1
 40
1
 40
1
 40
1
 10
0.818387
 20
1.634219
 30
0.0
 10
0.818387
 20
1.631868
 30
0.0
 10
0.817889
 20
1.629653
 30
0.0
 10
0.816894
 20
1.627573
 30
0.0
  0
SPLINE
  5
395
100
AcDbEntity
  8
Layer_1
 62
3
100
AcDbSpline
 70
8
 71
3
 72
8
 73
4
 74
0
 40
0
 40
0
 40
0
 40
0
 40
1
 40
1
 40
1
 40
1
 10
0.816894
 20
1.627573
 30
0.0
 10
0.815992
 20
1.625493
 30
0.0
 10
0.814725
 20
1.623640
 30
0.0
 10
0.813095
 20
1.622012
 30
0.0
  0
SPLINE
  5
396
100
AcDbEntity
  8
Layer_1
 62
3
100
AcDbSpline
 70
8
 71
3
 72
8
 73
4
 74
0
 40
0
 40
0
 40
0
 40
0
 40
1
 40
1
 40
1
 40
1
 10
0.813095
 20
1.622012
 30
0.0
 10
0.811557
 20
1.620475
 30
0.0
 10
0.809749
 20
1.619209
 30
0.0
 10
0.807670
 20
1.618214
 30
0.0
  0
SPLINE
  5
397
100
AcDbEntity
  8
Layer_1
 62
3
100
AcDbSpline
 70
8
 71
3
 72
8
 73
4
 74
0
 40
0
 40
0
 40
0
 40
0
 40
1
 40
1
 40
1
 40
1
 10
0.807670
 20
1.618214
 30
0.0
 10
0.805591
 20
1.617310
 30
0.0
 10
0.803376
 20
1.616858
 30
0.0
 10
0.801024
 20
1.616858
 30
0.0
  0
LINE
  5
398
100
AcDbEntity
  8
Layer_1
 62
3
100
AcDbLine
 10
0.801024
 20
1.616858
 30
0.0
 11
0.714219
 21
1.616858
 31
0.0
  0
SPLINE
  5
399
100
AcDbEntity
  8
Layer_1
 62
3
100
AcDbSpline
 70
8
 71
3
 72
8
 73
4
 74
0
 40
0
 40
0
 40
0
 40
0
 40
1
 40
1
 40
1
 40
1
 10
0.714219
 20
1.616858
 30
0.0
 10
0.711778
 20
1.616858
 30
0.0
 10
0.709472
 20
1.617310
 30
0.0
 10
0.707301
 20
1.618214
 30
0.0
  0
SPLINE
  5
39a
100
AcDbEntity
  8
Layer_1
 62
3
100
AcDbSpline
 70
8
 71
3
 72
8
 73
4
 74
0
 40
0
 40
0
 40
0
 40
0
 40
1
 40
1
 40
1
 40
1
 10
0.707301
 20
1.618214
 30
0.0
 10
0.705222
 20
1.619118
 30
0.0
 10
0.703414
 20
1.620339
 30
0.0
 10
0.701876
 20
1.621876
 30
0.0
  0
SPLINE
  5
39b
100
AcDbEntity
  8
Layer_1
 62
3
100
AcDbSpline
 70
8
 71
3
 72
8
 73
4
 74
0
 40
0
 40
0
 40
0
 40
0
 40
1
 40
1
 40
1
 40
1
 10
0.701876
 20
1.621876
 30
0.0
 10
0.700338
 20
1.623414
 30
0.0
 10
0.699117
 20
1.625222
 30
0.0
 10
0.698215
 20
1.627302
 30
0.0
  0
SPLINE
  5
39c
100
AcDbEntity
  8
Layer_1
 62
3
100
AcDbSpline
 70
8
 71
3
 72
8
 73
4
 74
0
 40
0
 40
0
 40
0
 40
0
 40
1
 40
1
 40
1
 40
1
 10
0.698215
 20
1.627302
 30
0.0
 10
0.697309
 20
1.629472
 30
0.0
 10
0.696856
 20
1.631778
 30
0.0
 10
0.696856
 20
1.634219
 30
0.0
  0
LINE
  5
39d
100
AcDbEntity
  8
Layer_1
 62
3
100
AcDbLine
 10
0.696856
 20
1.634219
 30
0.0
 11
0.696856
 21
1.773108
 31
0.0
  0
SPLINE
  5
39e
100
AcDbEntity
  8
Layer_1
 62
3
100
AcDbSpline
 70
8
 71
3
 72
8
 73
4
 74
0
 40
0
 40
0
 40
0
 40
0
 40
1
 40
1
 40
1
 40
1
 10
0.696856
 20
1.773108
 30
0.0
 10
0.696856
 20
1.775459
 30
0.0
 10
0.697309
 20
1.777674
 30
0.0
 10
0.698215
 20
1.779754
 30
0.0
  0
SPLINE
  5
39f
100
AcDbEntity
  8
Layer_1
 62
3
100
AcDbSpline
 70
8
 71
3
 72
8
 73
4
 74
0
 40
0
 40
0
 40
0
 40
0
 40
1
 40
1
 40
1
 40
1
 10
0.698215
 20
1.779754
 30
0.0
 10
0.699209
 20
1.781834
 30
0.0
 10
0.700476
 20
1.783642
 30
0.0
 10
0.702014
 20
1.785179
 30
0.0
  0
SPLINE
  5
3a0
100
AcDbEntity
  8
Layer_1
 62
3
100
AcDbSpline
 70
8
 71
3
 72
8
 73
4
 74
0
 40
0
 40
0
 40
0
 40
0
 40
1
 40
1
 40
1
 40
1
 10
0.702014
 20
1.785179
 30
0.0
 10
0.703641
 20
1.786807
 30
0.0
 10
0.705495
 20
1.788073
 30
0.0
 10
0.707575
 20
1.788977
 30
0.0
  0
SPLINE
  5
3a1
100
AcDbEntity
  8
Layer_1
 62
3
100
AcDbSpline
 70
8
 71
3
 72
8
 73
4
 74
0
 40
0
 40
0
 40
0
 40
0
 40
1
 40
1
 40
1
 40
1
 10
0.707575
 20
1.788977
 30
0.0
 10
0.709654
 20
1.789972
 30
0.0
 10
0.711869
 20
1.790469
 30
0.0
 10
0.714221
 20
1.790469
 30
0.0
  0
LINE
  5
3a2
100
AcDbEntity
  8
Layer_1
 62
3
100
AcDbLine
 10
0.714221
 20
1.790469
 30
0.0
 11
0.801026
 21
1.790469
 31
0.0
  0
SPLINE
  5
3a3
100
AcDbEntity
  8
Layer_1
 62
3
100
AcDbSpline
 70
8
 71
3
 72
8
 73
4
 74
0
 40
0
 40
0
 40
0
 40
0
 40
1
 40
1
 40
1
 40
1
 10
0.801026
 20
1.790469
 30
0.0
 10
0.803378
 20
1.790469
 30
0.0
 10
0.805593
 20
1.789972
 30
0.0
 10
0.807672
 20
1.788977
 30
0.0
  0
SPLINE
  5
3a4
100
AcDbEntity
  8
Layer_1
 62
3
100
AcDbSpline
 70
8
 71
3
 72
8
 73
4
 74
0
 40
0
 40
0
 40
0
 40
0
 40
1
 40
1
 40
1
 40
1
 10
0.807672
 20
1.788977
 30
0.0
 10
0.809751
 20
1.788073
 30
0.0
 10
0.811560
 20
1.786807
 30
0.0
 10
0.813098
 20
1.785179
 30
0.0
  0
SPLINE
  5
3a5
100
AcDbEntity
  8
Layer_1
 62
3
100
AcDbSpline
 70
8
 71
3
 72
8
 73
4
 74
0
 40
0
 40
0
 40
0
 40
0
 40
1
 40
1
 40
1
 40
1
 10
0.813098
 20
1.785179
 30
0.0
 10
0.814725
 20
1.783642
 30
0.0
 10
0.815991
 20
1.781834
 30
0.0
 10
0.816897
 20
1.779754
 30
0.0
  0
SPLINE
  5
3a6
100
AcDbEntity
  8
Layer_1
 62
3
100
AcDbSpline
 70
8
 71
3
 72
8
 73
4
 74
0
 40
0
 40
0
 40
0
 40
0
 40
1
 40
1
 40
1
 40
1
 10
0.816897
 20
1.779754
 30
0.0
 10
0.817892
 20
1.777674
 30
0.0
 10
0.818389
 20
1.775459
 30
0.0
 10
0.818389
 20
1.773108
 30
0.0
  0
LINE
  5
3a7
100
AcDbEntity
  8
Layer_1
 62
3
100
AcDbLine
 10
0.818389
 20
1.773108
 30
0.0
 11
0.818389
 21
1.694983
 31
0.0
  0
SPLINE
  5
3a8
100
AcDbEntity
  8
Layer_1
 62
3
100
AcDbSpline
 70
8
 71
3
 72
8
 73
4
 74
0
 40
0
 40
0
 40
0
 40
0
 40
1
 40
1
 40
1
 40
1
 10
0.818389
 20
1.694983
 30
0.0
 10
0.818389
 20
1.692451
 30
0.0
 10
0.819203
 20
1.690371
 30
0.0
 10
0.820830
 20
1.688744
 30
0.0
  0
SPLINE
  5
3a9
100
AcDbEntity
  8
Layer_1
 62
3
100
AcDbSpline
 70
8
 71
3
 72
8
 73
4
 74
0
 40
0
 40
0
 40
0
 40
0
 40
1
 40
1
 40
1
 40
1
 10
0.820830
 20
1.688744
 30
0.0
 10
0.822457
 20
1.687116
 30
0.0
 10
0.824537
 20
1.686302
 30
0.0
 10
0.827069
 20
1.686302
 30
0.0
  0
LINE
  5
3aa
100
AcDbEntity
  8
Layer_1
 62
3
100
AcDbLine
 10
0.827069
 20
1.686302
 30
0.0
 11
0.887833
 21
1.686302
 31
0.0
  0
SPLINE
  5
3ab
100
AcDbEntity
  8
Layer_1
 62
3
100
AcDbSpline
 70
8
 71
3
 72
8
 73
4
 74
0
 40
0
 40
0
 40
0
 40
0
 40
1
 40
1
 40
1
 40
1
 10
0.887833
 20
1.686302
 30
0.0
 10
0.890185
 20
1.686302
 30
0.0
 10
0.892400
 20
1.685805
 30
0.0
 10
0.894479
 20
1.684810
 30
0.0
  0
SPLINE
  5
3ac
100
AcDbEntity
  8
Layer_1
 62
3
100
AcDbSpline
 70
8
 71
3
 72
8
 73
4
 74
0
 40
0
 40
0
 40
0
 40
0
 40
1
 40
1
 40
1
 40
1
 10
0.894479
 20
1.684810
 30
0.0
 10
0.896558
 20
1.683906
 30
0.0
 10
0.898366
 20
1.682640
 30
0.0
 10
0.899904
 20
1.681013
 30
0.0
  0
SPLINE
  5
3ad
100
AcDbEntity
  8
Layer_1
 62
3
100
AcDbSpline
 70
8
 71
3
 72
8
 73
4
 74
0
 40
0
 40
0
 40
0
 40
0
 40
1
 40
1
 40
1
 40
1
 10
0.899904
 20
1.681013
 30
0.0
 10
0.901532
 20
1.679475
 30
0.0
 10
0.902798
 20
1.677667
 30
0.0
 10
0.903704
 20
1.675587
 30
0.0
  0
SPLINE
  5
3ae
100
AcDbEntity
  8
Layer_1
 62
3
100
AcDbSpline
 70
8
 71
3
 72
8
 73
4
 74
0
 40
0
 40
0
 40
0
 40
0
 40
1
 40
1
 40
1
 40
1
 10
0.903704
 20
1.675587
 30
0.0
 10
0.904698
 20
1.673508
 30
0.0
 10
0.905196
 20
1.671292
 30
0.0
 10
0.905196
 20
1.668941
 30
0.0
  0
LINE
  5
3af
100
AcDbEntity
  8
Layer_1
 62
3
100
AcDbLine
 10
0.905196
 20
1.668941
 30
0.0
 11
0.905196
 21
1.564775
 31
0.0
  0
SPLINE
  5
3b0
100
AcDbEntity
  8
Layer_1
 62
3
100
AcDbSpline
 70
8
 71
3
 72
8
 73
4
 74
0
 40
0
 40
0
 40
0
 40
0
 40
1
 40
1
 40
1
 40
1
 10
0.905196
 20
1.564775
 30
0.0
 10
0.905196
 20
1.562424
 30
0.0
 10
0.904698
 20
1.560208
 30
0.0
 10
0.903704
 20
1.558128
 30
0.0
  0
SPLINE
  5
3b1
100
AcDbEntity
  8
Layer_1
 62
3
100
AcDbSpline
 70
8
 71
3
 72
8
 73
4
 74
0
 40
0
 40
0
 40
0
 40
0
 40
1
 40
1
 40
1
 40
1
 10
0.903704
 20
1.558128
 30
0.0
 10
0.902801
 20
1.556049
 30
0.0
 10
0.901534
 20
1.554195
 30
0.0
 10
0.899904
 20
1.552567
 30
0.0
  0
SPLINE
  5
3b2
100
AcDbEntity
  8
Layer_1
 62
3
100
AcDbSpline
 70
8
 71
3
 72
8
 73
4
 74
0
 40
0
 40
0
 40
0
 40
0
 40
1
 40
1
 40
1
 40
1
 10
0.899904
 20
1.552567
 30
0.0
 10
0.898366
 20
1.551030
 30
0.0
 10
0.896558
 20
1.549764
 30
0.0
 10
0.894479
 20
1.548770
 30
0.0
  0
SPLINE
  5
3b3
100
AcDbEntity
  8
Layer_1
 62
3
100
AcDbSpline
 70
8
 71
3
 72
8
 73
4
 74
0
 40
0
 40
0
 40
0
 40
0
 40
1
 40
1
 40
1
 40
1
 10
0.894479
 20
1.548770
 30
0.0
 10
0.892400
 20
1.547866
 30
0.0
 10
0.890185
 20
1.547413
 30
0.0
 10
0.887833
 20
1.547413
 30
0.0
  0
LINE
  5
3b4
100
AcDbEntity
  8
Layer_1
 62
3
100
AcDbLine
 10
0.887833
 20
1.547413
 30
0.0
 11
0.705544
 21
1.547413
 31
0.0
  0
SPLINE
  5
3b5
100
AcDbEntity
  8
Layer_1
 62
3
100
AcDbSpline
 70
8
 71
3
 72
8
 73
4
 74
0
 40
0
 40
0
 40
0
 40
0
 40
1
 40
1
 40
1
 40
1
 10
0.705544
 20
0.869132
 30
0.0
 10
0.703012
 20
0.869132
 30
0.0
 10
0.700932
 20
0.869946
 30
0.0
 10
0.699306
 20
0.871574
 30
0.0
  0
SPLINE
  5
3b6
100
AcDbEntity
  8
Layer_1
 62
3
100
AcDbSpline
 70
8
 71
3
 72
8
 73
4
 74
0
 40
0
 40
0
 40
0
 40
0
 40
1
 40
1
 40
1
 40
1
 10
0.699306
 20
0.871574
 30
0.0
 10
0.697678
 20
0.873201
 30
0.0
 10
0.696865
 20
0.875281
 30
0.0
 10
0.696865
 20
0.877813
 30
0.0
  0
LINE
  5
3b7
100
AcDbEntity
  8
Layer_1
 62
3
100
AcDbLine
 10
0.696865
 20
0.877813
 30
0.0
 11
0.696865
 21
0.895174
 31
0.0
  0
SPLINE
  5
3b8
100
AcDbEntity
  8
Layer_1
 62
3
100
AcDbSpline
 70
8
 71
3
 72
8
 73
4
 74
0
 40
0
 40
0
 40
0
 40
0
 40
1
 40
1
 40
1
 40
1
 10
0.696865
 20
0.895174
 30
0.0
 10
0.696865
 20
0.897163
 30
0.0
 10
0.697271
 20
0.898700
 30
0.0
 10
0.698085
 20
0.899785
 30
0.0
  0
SPLINE
  5
3b9
100
AcDbEntity
  8
Layer_1
 62
3
100
AcDbSpline
 70
8
 71
3
 72
8
 73
4
 74
0
 40
0
 40
0
 40
0
 40
0
 40
1
 40
1
 40
1
 40
1
 10
0.698085
 20
0.899785
 30
0.0
 10
0.698988
 20
0.900870
 30
0.0
 10
0.700073
 20
0.901729
 30
0.0
 10
0.701341
 20
0.902363
 30
0.0
  0
SPLINE
  5
3ba
100
AcDbEntity
  8
Layer_1
 62
3
100
AcDbSpline
 70
8
 71
3
 72
8
 73
4
 74
0
 40
0
 40
0
 40
0
 40
0
 40
1
 40
1
 40
1
 40
1
 10
0.701341
 20
0.902363
 30
0.0
 10
0.702606
 20
0.902995
 30
0.0
 10
0.704008
 20
0.903492
 30
0.0
 10
0.705546
 20
0.903855
 30
0.0
  0
SPLINE
  5
3bb
100
AcDbEntity
  8
Layer_1
 62
3
100
AcDbSpline
 70
8
 71
3
 72
8
 73
4
 74
0
 40
0
 40
0
 40
0
 40
0
 40
1
 40
1
 40
1
 40
1
 10
0.705546
 20
0.903855
 30
0.0
 10
0.707084
 20
0.904216
 30
0.0
 10
0.708485
 20
0.904713
 30
0.0
 10
0.709750
 20
0.905347
 30
0.0
  0
SPLINE
  5
3bc
100
AcDbEntity
  8
Layer_1
 62
3
100
AcDbSpline
 70
8
 71
3
 72
8
 73
4
 74
0
 40
0
 40
0
 40
0
 40
0
 40
1
 40
1
 40
1
 40
1
 10
0.709750
 20
0.905347
 30
0.0
 10
0.711015
 20
0.905980
 30
0.0
 10
0.712055
 20
0.906839
 30
0.0
 10
0.712869
 20
0.907924
 30
0.0
  0
SPLINE
  5
3bd
100
AcDbEntity
  8
Layer_1
 62
3
100
AcDbSpline
 70
8
 71
3
 72
8
 73
4
 74
0
 40
0
 40
0
 40
0
 40
0
 40
1
 40
1
 40
1
 40
1
 10
0.712869
 20
0.907924
 30
0.0
 10
0.713774
 20
0.909009
 30
0.0
 10
0.714227
 20
0.910546
 30
0.0
 10
0.714227
 20
0.912536
 30
0.0
  0
LINE
  5
3be
100
AcDbEntity
  8
Layer_1
 62
3
100
AcDbLine
 10
0.714227
 20
0.912536
 30
0.0
 11
0.714227
 21
1.068786
 31
0.0
  0
SPLINE
  5
3bf
100
AcDbEntity
  8
Layer_1
 62
3
100
AcDbSpline
 70
8
 71
3
 72
8
 73
4
 74
0
 40
0
 40
0
 40
0
 40
0
 40
1
 40
1
 40
1
 40
1
 10
0.714227
 20
1.068786
 30
0.0
 10
0.714227
 20
1.070865
 30
0.0
 10
0.713774
 20
1.072402
 30
0.0
 10
0.712869
 20
1.073397
 30
0.0
  0
SPLINE
  5
3c0
100
AcDbEntity
  8
Layer_1
 62
3
100
AcDbSpline
 70
8
 71
3
 72
8
 73
4
 74
0
 40
0
 40
0
 40
0
 40
0
 40
1
 40
1
 40
1
 40
1
 10
0.712869
 20
1.073397
 30
0.0
 10
0.712055
 20
1.074482
 30
0.0
 10
0.711015
 20
1.075296
 30
0.0
 10
0.709750
 20
1.075838
 30
0.0
  0
SPLINE
  5
3c1
100
AcDbEntity
  8
Layer_1
 62
3
100
AcDbSpline
 70
8
 71
3
 72
8
 73
4
 74
0
 40
0
 40
0
 40
0
 40
0
 40
1
 40
1
 40
1
 40
1
 10
0.709750
 20
1.075838
 30
0.0
 10
0.708485
 20
1.076471
 30
0.0
 10
0.707084
 20
1.076923
 30
0.0
 10
0.705546
 20
1.077195
 30
0.0
  0
SPLINE
  5
3c2
100
AcDbEntity
  8
Layer_1
 62
3
100
AcDbSpline
 70
8
 71
3
 72
8
 73
4
 74
0
 40
0
 40
0
 40
0
 40
0
 40
1
 40
1
 40
1
 40
1
 10
0.705546
 20
1.077195
 30
0.0
 10
0.704008
 20
1.077556
 30
0.0
 10
0.702606
 20
1.078008
 30
0.0
 10
0.701341
 20
1.078551
 30
0.0
  0
SPLINE
  5
3c3
100
AcDbEntity
  8
Layer_1
 62
3
100
AcDbSpline
 70
8
 71
3
 72
8
 73
4
 74
0
 40
0
 40
0
 40
0
 40
0
 40
1
 40
1
 40
1
 40
1
 10
0.701341
 20
1.078551
 30
0.0
 10
0.700076
 20
1.079184
 30
0.0
 10
0.698991
 20
1.080043
 30
0.0
 10
0.698085
 20
1.081128
 30
0.0
  0
SPLINE
  5
3c4
100
AcDbEntity
  8
Layer_1
 62
3
100
AcDbSpline
 70
8
 71
3
 72
8
 73
4
 74
0
 40
0
 40
0
 40
0
 40
0
 40
1
 40
1
 40
1
 40
1
 10
0.698085
 20
1.081128
 30
0.0
 10
0.697271
 20
1.082304
 30
0.0
 10
0.696865
 20
1.083977
 30
0.0
 10
0.696865
 20
1.086147
 30
0.0
  0
LINE
  5
3c5
100
AcDbEntity
  8
Layer_1
 62
3
100
AcDbLine
 10
0.696865
 20
1.086147
 30
0.0
 11
0.696865
 21
1.103508
 31
0.0
  0
SPLINE
  5
3c6
100
AcDbEntity
  8
Layer_1
 62
3
100
AcDbSpline
 70
8
 71
3
 72
8
 73
4
 74
0
 40
0
 40
0
 40
0
 40
0
 40
1
 40
1
 40
1
 40
1
 10
0.696865
 20
1.103508
 30
0.0
 10
0.696865
 20
1.106040
 30
0.0
 10
0.697723
 20
1.108119
 30
0.0
 10
0.699439
 20
1.109747
 30
0.0
  0
SPLINE
  5
3c7
100
AcDbEntity
  8
Layer_1
 62
3
100
AcDbSpline
 70
8
 71
3
 72
8
 73
4
 74
0
 40
0
 40
0
 40
0
 40
0
 40
1
 40
1
 40
1
 40
1
 10
0.699439
 20
1.109747
 30
0.0
 10
0.701159
 20
1.111375
 30
0.0
 10
0.703193
 20
1.112188
 30
0.0
 10
0.705543
 20
1.112188
 30
0.0
  0
LINE
  5
3c8
100
AcDbEntity
  8
Layer_1
 62
3
100
AcDbLine
 10
0.705543
 20
1.112188
 30
0.0
 11
0.896515
 21
1.112188
 31
0.0
  0
SPLINE
  5
3c9
100
AcDbEntity
  8
Layer_1
 62
3
100
AcDbSpline
 70
8
 71
3
 72
8
 73
4
 74
0
 40
0
 40
0
 40
0
 40
0
 40
1
 40
1
 40
1
 40
1
 10
0.896515
 20
1.112188
 30
0.0
 10
0.898867
 20
1.112188
 30
0.0
 10
0.900902
 20
1.111329
 30
0.0
 10
0.902619
 20
1.109611
 30
0.0
  0
SPLINE
  5
3ca
100
AcDbEntity
  8
Layer_1
 62
3
100
AcDbSpline
 70
8
 71
3
 72
8
 73
4
 74
0
 40
0
 40
0
 40
0
 40
0
 40
1
 40
1
 40
1
 40
1
 10
0.902619
 20
1.109611
 30
0.0
 10
0.904335
 20
1.107893
 30
0.0
 10
0.905194
 20
1.105859
 30
0.0
 10
0.905194
 20
1.103508
 30
0.0
  0
LINE
  5
3cb
100
AcDbEntity
  8
Layer_1
 62
3
100
AcDbLine
 10
0.905194
 20
1.103508
 30
0.0
 11
0.905194
 21
1.086146
 31
0.0
  0
SPLINE
  5
3cc
100
AcDbEntity
  8
Layer_1
 62
3
100
AcDbSpline
 70
8
 71
3
 72
8
 73
4
 74
0
 40
0
 40
0
 40
0
 40
0
 40
1
 40
1
 40
1
 40
1
 10
0.905194
 20
1.086146
 30
0.0
 10
0.905194
 20
1.083796
 30
0.0
 10
0.904380
 20
1.081761
 30
0.0
 10
0.902753
 20
1.080043
 30
0.0
  0
SPLINE
  5
3cd
100
AcDbEntity
  8
Layer_1
 62
3
100
AcDbSpline
 70
8
 71
3
 72
8
 73
4
 74
0
 40
0
 40
0
 40
0
 40
0
 40
1
 40
1
 40
1
 40
1
 10
0.902753
 20
1.080043
 30
0.0
 10
0.901125
 20
1.078325
 30
0.0
 10
0.899046
 20
1.077466
 30
0.0
 10
0.896514
 20
1.077466
 30
0.0
  0
LINE
  5
3ce
100
AcDbEntity
  8
Layer_1
 62
3
100
AcDbLine
 10
0.896514
 20
1.077466
 30
0.0
 11
0.757625
 21
1.077466
 31
0.0
  0
SPLINE
  5
3cf
100
AcDbEntity
  8
Layer_1
 62
3
100
AcDbSpline
 70
8
 71
3
 72
8
 73
4
 74
0
 40
0
 40
0
 40
0
 40
0
 40
1
 40
1
 40
1
 40
1
 10
0.757625
 20
1.077466
 30
0.0
 10
0.755273
 20
1.077466
 30
0.0
 10
0.753239
 20
1.076652
 30
0.0
 10
0.751521
 20
1.075025
 30
0.0
  0
SPLINE
  5
3d0
100
AcDbEntity
  8
Layer_1
 62
3
100
AcDbSpline
 70
8
 71
3
 72
8
 73
4
 74
0
 40
0
 40
0
 40
0
 40
0
 40
1
 40
1
 40
1
 40
1
 10
0.751521
 20
1.075025
 30
0.0
 10
0.749802
 20
1.073397
 30
0.0
 10
0.748943
 20
1.071317
 30
0.0
 10
0.748943
 20
1.068785
 30
0.0
  0
LINE
  5
3d1
100
AcDbEntity
  8
Layer_1
 62
3
100
AcDbLine
 10
0.748943
 20
1.068785
 30
0.0
 11
0.748943
 21
1.016702
 31
0.0
  0
SPLINE
  5
3d2
100
AcDbEntity
  8
Layer_1
 62
3
100
AcDbSpline
 70
8
 71
3
 72
8
 73
4
 74
0
 40
0
 40
0
 40
0
 40
0
 40
1
 40
1
 40
1
 40
1
 10
0.748943
 20
1.016702
 30
0.0
 10
0.748943
 20
1.014170
 30
0.0
 10
0.749756
 20
1.012090
 30
0.0
 10
0.751383
 20
1.010463
 30
0.0
  0
SPLINE
  5
3d3
100
AcDbEntity
  8
Layer_1
 62
3
100
AcDbSpline
 70
8
 71
3
 72
8
 73
4
 74
0
 40
0
 40
0
 40
0
 40
0
 40
1
 40
1
 40
1
 40
1
 10
0.751383
 20
1.010463
 30
0.0
 10
0.753011
 20
1.008835
 30
0.0
 10
0.755090
 20
1.008021
 30
0.0
 10
0.757622
 20
1.008021
 30
0.0
  0
LINE
  5
3d4
100
AcDbEntity
  8
Layer_1
 62
3
100
AcDbLine
 10
0.757622
 20
1.008021
 30
0.0
 11
0.887831
 21
1.008021
 31
0.0
  0
SPLINE
  5
3d5
100
AcDbEntity
  8
Layer_1
 62
3
100
AcDbSpline
 70
8
 71
3
 72
8
 73
4
 74
0
 40
0
 40
0
 40
0
 40
0
 40
1
 40
1
 40
1
 40
1
 10
0.887831
 20
1.008021
 30
0.0
 10
0.890182
 20
1.008021
 30
0.0
 10
0.892398
 20
1.007524
 30
0.0
 10
0.894477
 20
1.006529
 30
0.0
  0
SPLINE
  5
3d6
100
AcDbEntity
  8
Layer_1
 62
3
100
AcDbSpline
 70
8
 71
3
 72
8
 73
4
 74
0
 40
0
 40
0
 40
0
 40
0
 40
1
 40
1
 40
1
 40
1
 10
0.894477
 20
1.006529
 30
0.0
 10
0.896556
 20
1.005625
 30
0.0
 10
0.898364
 20
1.004359
 30
0.0
 10
0.899902
 20
1.002732
 30
0.0
  0
SPLINE
  5
3d7
100
AcDbEntity
  8
Layer_1
 62
3
100
AcDbSpline
 70
8
 71
3
 72
8
 73
4
 74
0
 40
0
 40
0
 40
0
 40
0
 40
1
 40
1
 40
1
 40
1
 10
0.899902
 20
1.002732
 30
0.0
 10
0.901529
 20
1.001194
 30
0.0
 10
0.902796
 20
0.999386
 30
0.0
 10
0.903701
 20
0.997306
 30
0.0
  0
SPLINE
  5
3d8
100
AcDbEntity
  8
Layer_1
 62
3
100
AcDbSpline
 70
8
 71
3
 72
8
 73
4
 74
0
 40
0
 40
0
 40
0
 40
0
 40
1
 40
1
 40
1
 40
1
 10
0.903701
 20
0.997306
 30
0.0
 10
0.904696
 20
0.995227
 30
0.0
 10
0.905193
 20
0.993011
 30
0.0
 10
0.905193
 20
0.990660
 30
0.0
  0
LINE
  5
3d9
100
AcDbEntity
  8
Layer_1
 62
3
100
AcDbLine
 10
0.905193
 20
0.990660
 30
0.0
 11
0.905193
 21
0.877813
 31
0.0
  0
SPLINE
  5
3da
100
AcDbEntity
  8
Layer_1
 62
3
100
AcDbSpline
 70
8
 71
3
 72
8
 73
4
 74
0
 40
0
 40
0
 40
0
 40
0
 40
1
 40
1
 40
1
 40
1
 10
0.905193
 20
0.877813
 30
0.0
 10
0.905193
 20
0.875462
 30
0.0
 10
0.904380
 20
0.873428
 30
0.0
 10
0.902752
 20
0.871710
 30
0.0
  0
SPLINE
  5
3db
100
AcDbEntity
  8
Layer_1
 62
3
100
AcDbSpline
 70
8
 71
3
 72
8
 73
4
 74
0
 40
0
 40
0
 40
0
 40
0
 40
1
 40
1
 40
1
 40
1
 10
0.902752
 20
0.871710
 30
0.0
 10
0.901125
 20
0.869991
 30
0.0
 10
0.899045
 20
0.869132
 30
0.0
 10
0.896513
 20
0.869132
 30
0.0
  0
LINE
  5
3dc
100
AcDbEntity
  8
Layer_1
 62
3
100
AcDbLine
 10
0.896513
 20
0.869132
 30
0.0
 11
0.879152
 21
0.869132
 31
0.0
  0
SPLINE
  5
3dd
100
AcDbEntity
  8
Layer_1
 62
3
100
AcDbSpline
 70
8
 71
3
 72
8
 73
4
 74
0
 40
0
 40
0
 40
0
 40
0
 40
1
 40
1
 40
1
 40
1
 10
0.879152
 20
0.869132
 30
0.0
 10
0.876620
 20
0.869132
 30
0.0
 10
0.874540
 20
0.869946
 30
0.0
 10
0.872913
 20
0.871574
 30
0.0
  0
SPLINE
  5
3de
100
AcDbEntity
  8
Layer_1
 62
3
100
AcDbSpline
 70
8
 71
3
 72
8
 73
4
 74
0
 40
0
 40
0
 40
0
 40
0
 40
1
 40
1
 40
1
 40
1
 10
0.872913
 20
0.871574
 30
0.0
 10
0.871286
 20
0.873201
 30
0.0
 10
0.870472
 20
0.875281
 30
0.0
 10
0.870472
 20
0.877813
 30
0.0
  0
LINE
  5
3df
100
AcDbEntity
  8
Layer_1
 62
3
100
AcDbLine
 10
0.870472
 20
0.877813
 30
0.0
 11
0.870472
 21
0.964618
 31
0.0
  0
SPLINE
  5
3e0
100
AcDbEntity
  8
Layer_1
 62
3
100
AcDbSpline
 70
8
 71
3
 72
8
 73
4
 74
0
 40
0
 40
0
 40
0
 40
0
 40
1
 40
1
 40
1
 40
1
 10
0.870472
 20
0.964618
 30
0.0
 10
0.870472
 20
0.966969
 30
0.0
 10
0.869612
 20
0.969004
 30
0.0
 10
0.867893
 20
0.970722
 30
0.0
  0
SPLINE
  5
3e1
100
AcDbEntity
  8
Layer_1
 62
3
100
AcDbSpline
 70
8
 71
3
 72
8
 73
4
 74
0
 40
0
 40
0
 40
0
 40
0
 40
1
 40
1
 40
1
 40
1
 10
0.867893
 20
0.970722
 30
0.0
 10
0.866177
 20
0.972440
 30
0.0
 10
0.864142
 20
0.973299
 30
0.0
 10
0.861790
 20
0.973299
 30
0.0
  0
LINE
  5
3e2
100
AcDbEntity
  8
Layer_1
 62
3
100
AcDbLine
 10
0.861790
 20
0.973299
 30
0.0
 11
0.757623
 21
0.973299
 31
0.0
  0
SPLINE
  5
3e3
100
AcDbEntity
  8
Layer_1
 62
3
100
AcDbSpline
 70
8
 71
3
 72
8
 73
4
 74
0
 40
0
 40
0
 40
0
 40
0
 40
1
 40
1
 40
1
 40
1
 10
0.757623
 20
0.973299
 30
0.0
 10
0.755272
 20
0.973299
 30
0.0
 10
0.753237
 20
0.972485
 30
0.0
 10
0.751520
 20
0.970858
 30
0.0
  0
SPLINE
  5
3e4
100
AcDbEntity
  8
Layer_1
 62
3
100
AcDbSpline
 70
8
 71
3
 72
8
 73
4
 74
0
 40
0
 40
0
 40
0
 40
0
 40
1
 40
1
 40
1
 40
1
 10
0.751520
 20
0.970858
 30
0.0
 10
0.749801
 20
0.969230
 30
0.0
 10
0.748941
 20
0.967150
 30
0.0
 10
0.748941
 20
0.964619
 30
0.0
  0
LINE
  5
3e5
100
AcDbEntity
  8
Layer_1
 62
3
100
AcDbLine
 10
0.748941
 20
0.964619
 30
0.0
 11
0.748941
 21
0.886494
 31
0.0
  0
SPLINE
  5
3e6
100
AcDbEntity
  8
Layer_1
 62
3
100
AcDbSpline
 70
8
 71
3
 72
8
 73
4
 74
0
 40
0
 40
0
 40
0
 40
0
 40
1
 40
1
 40
1
 40
1
 10
0.748941
 20
0.886494
 30
0.0
 10
0.748941
 20
0.884143
 30
0.0
 10
0.748444
 20
0.881927
 30
0.0
 10
0.747449
 20
0.879848
 30
0.0
  0
SPLINE
  5
3e7
100
AcDbEntity
  8
Layer_1
 62
3
100
AcDbSpline
 70
8
 71
3
 72
8
 73
4
 74
0
 40
0
 40
0
 40
0
 40
0
 40
1
 40
1
 40
1
 40
1
 10
0.747449
 20
0.879848
 30
0.0
 10
0.746546
 20
0.877768
 30
0.0
 10
0.745280
 20
0.875914
 30
0.0
 10
0.743650
 20
0.874286
 30
0.0
  0
SPLINE
  5
3e8
100
AcDbEntity
  8
Layer_1
 62
3
100
AcDbSpline
 70
8
 71
3
 72
8
 73
4
 74
0
 40
0
 40
0
 40
0
 40
0
 40
1
 40
1
 40
1
 40
1
 10
0.743650
 20
0.874286
 30
0.0
 10
0.742112
 20
0.872749
 30
0.0
 10
0.740303
 20
0.871483
 30
0.0
 10
0.738224
 20
0.870489
 30
0.0
  0
SPLINE
  5
3e9
100
AcDbEntity
  8
Layer_1
 62
3
100
AcDbSpline
 70
8
 71
3
 72
8
 73
4
 74
0
 40
0
 40
0
 40
0
 40
0
 40
1
 40
1
 40
1
 40
1
 10
0.738224
 20
0.870489
 30
0.0
 10
0.736146
 20
0.869585
 30
0.0
 10
0.733930
 20
0.869133
 30
0.0
 10
0.731578
 20
0.869133
 30
0.0
  0
LINE
  5
3ea
100
AcDbEntity
  8
Layer_1
 62
3
100
AcDbLine
 10
0.731578
 20
0.869133
 30
0.0
 11
0.705544
 21
0.869132
 31
0.0
  0
ENDSEC
  0
SECTION
  2
OBJECTS
  0
DICTIONARY
  5
C
330
0
100
AcDbDictionary
  3
ACAD_GROUP
350
D
  3
ACAD_MLINESTYLE
350
17
  0
DICTIONARY
  5
D
330
C
100
AcDbDictionary
  0
DICTIONARY
  5
1A
330
C
100
AcDbDictionary
  0
DICTIONARY
  5
17
330
C
100
AcDbDictionary
  3
STANDARD
350
18
  0
DICTIONARY
  5
19
330
C
100
AcDbDictionary
  0
ENDSEC
  0
EOF
