  0
SECTION
  2
HEADER
  9
$ACADVER
  1
AC1014
  9
$HANDSEED
  5
FFFF
  9
$MEASUREMENT
 70
     1
  0
ENDSEC
  0
SECTION
  2
TABLES
  0
TABLE
  2
VPORT
  5
8
330
0
100
AcDbSymbolTable
 70
     4
  0
VPORT
  5
2E
330
8
100
AcDbSymbolTableRecord
100
AcDbViewportTableRecord
  2
*ACTIVE
 70
     0
 10
0.0
 20
0.0
 11
1.0
 21
1.0
 12
210.0
 22
148.5
 13
0.0
 23
0.0
 14
10.0
 24
10.0
 15
10.0
 25
10.0
 16
0.0
 26
0.0
 36
1.0
 17
0.0
 27
0.0
 37
0.0
 40
341.0
 41
1.24
 42
50.0
 43
0.0
 44
0.0
 50
0.0
 51
0.0
 71
     0
 72
   100
 73
     1
 74
     3
 75
     0
 76
     0
 77
     0
 78
     0
  0
ENDTAB
  0
TABLE
  2
LTYPE
  5
5
330
0
100
AcDbSymbolTable
 70
     1
  0
LTYPE
  5
14
330
5
100
AcDbSymbolTableRecord
100
AcDbLinetypeTableRecord
  2
BYBLOCK
 70
     0
  3

 72
    65
 73
     0
 40
0.0
  0
LTYPE
  5
15
330
5
100
AcDbSymbolTableRecord
100
AcDbLinetypeTableRecord
  2
BYLAYER
 70
     0
  3

 72
    65
 73
     0
 40
0.0
  0
LTYPE
  5
16
330
5
100
AcDbSymbolTableRecord
100
AcDbLinetypeTableRecord
  2
CONTINUOUS
 70
     0
  3
Solid line
 72
    65
 73
     0
 40
0.0
  0
ENDTAB
  0
TABLE
  2
LAYER
  5
2
100
AcDbSymbolTable
 70
2
  0
LAYER
  5
50
100
AcDbSymbolTableRecord
100
AcDbLayerTableRecord
  2
0
 70
0
  6
CONTINUOUS
  0
LAYER
  5
51
100
AcDbSymbolTableRecord
100
AcDbLayerTableRecord
  2
Layer_1
 70
0
  6
CONTINUOUS
  0
ENDTAB
  0
TABLE
  2
STYLE
  5
3
330
0
100
AcDbSymbolTable
 70
     1
  0
STYLE
  5
11
330
3
100
AcDbSymbolTableRecord
100
AcDbTextStyleTableRecord
  2
STANDARD
 70
     0
 40
0.0
 41
1.0
 50
0.0
 71
     0
 42
2.5
  3
txt
  4

  0
ENDTAB
  0
TABLE
  2
VIEW
  5
6
330
0
100
AcDbSymbolTable
 70
     0
  0
ENDTAB
  0
TABLE
  2
UCS
  5
7
330
0
100
AcDbSymbolTable
 70
     0
  0
ENDTAB
  0
TABLE
  2
APPID
  5
9
330
0
100
AcDbSymbolTable
 70
     2
  0
APPID
  5
12
330
9
100
AcDbSymbolTableRecord
100
AcDbRegAppTableRecord
  2
ACAD
 70
     0
  0
ENDTAB
  0
TABLE
  2
DIMSTYLE
  5
A
330
0
100
AcDbSymbolTable
 70
     1
  0
DIMSTYLE
105
27
330
A
100
AcDbSymbolTableRecord
100
AcDbDimStyleTableRecord
  2
ISO-25
 70
     0
  3

  4

  5

  6

  7

 40
1.0
 41
2.5
 42
0.625
 43
3.75
 44
1.25
 45
0.0
 46
0.0
 47
0.0
 48
0.0
140
2.5
141
2.5
142
0.0
143
0.03937007874016
144
1.0
145
0.0
146
1.0
147
0.625
 71
     0
 72
     0
 73
     0
 74
     0
 75
     0
 76
     0
 77
     1
 78
     8
170
     0
171
     3
172
     1
173
     0
174
     0
175
     0
176
     0
177
     0
178
     0
270
     2
271
     2
272
     2
273
     2
274
     3
340
11
275
     0
280
     0
281
     0
282
     0
283
     0
284
     8
285
     0
286
     0
287
     3
288
     0
  0
ENDTAB
  0
TABLE
  2
BLOCK_RECORD
  5
1
330
0
100
AcDbSymbolTable
 70
     1
  0
BLOCK_RECORD
  5
1F
330
1
100
AcDbSymbolTableRecord
100
AcDbBlockTableRecord
  2
*MODEL_SPACE
  0
BLOCK_RECORD
  5
1B
330
1
100
AcDbSymbolTableRecord
100
AcDbBlockTableRecord
  2
*PAPER_SPACE
  0
ENDTAB
  0
ENDSEC
  0
SECTION
  2
BLOCKS
  0
BLOCK
  5
20
330
1F
100
AcDbEntity
  8
0
100
AcDbBlockBegin
  2
*MODEL_SPACE
 70
     0
 10
0.0
 20
0.0
 30
0.0
  3
*MODEL_SPACE
  1

  0
ENDBLK
  5
21
330
1F
100
AcDbEntity
  8
0
100
AcDbBlockEnd
  0
BLOCK
  5
1C
330
1B
100
AcDbEntity
 67
     1
  8
0
100
AcDbBlockBegin
  2
*PAPER_SPACE
  1

  0
ENDBLK
  5
1D
330
1B
100
AcDbEntity
 67
     1
  8
0
100
AcDbBlockEnd
  0
ENDSEC
  0
SECTION
  2
ENTITIES
  0
LINE
  5
100
100
AcDbEntity
  8
Layer_1
 62
7
100
AcDbLine
 10
3.363608
 20
29.818448
 30
0.0
 11
36.958888
 21
29.818448
 31
0.0
  0
LINE
  5
101
100
AcDbEntity
  8
Layer_1
 62
7
100
AcDbLine
 10
36.958888
 20
29.818448
 30
0.0
 11
36.958888
 21
3.783635
 31
0.0
  0
LINE
  5
102
100
AcDbEntity
  8
Layer_1
 62
7
100
AcDbLine
 10
36.958888
 20
3.783635
 30
0.0
 11
3.363608
 21
3.783635
 31
0.0
  0
LINE
  5
103
100
AcDbEntity
  8
Layer_1
 62
7
100
AcDbLine
 10
3.363608
 20
3.783635
 30
0.0
 11
3.363608
 21
29.818448
 31
0.0
  0
SPLINE
  5
104
100
AcDbEntity
  8
Layer_1
 62
7
100
AcDbSpline
 70
8
 71
3
 72
8
 73
4
 74
0
 40
0
 40
0
 40
0
 40
0
 40
1
 40
1
 40
1
 40
1
 10
10.441276
 20
24.890971
 30
0.0
 10
10.441276
 20
24.446274
 30
0.0
 10
10.264620
 20
24.019790
 30
0.0
 10
9.950172
 20
23.705342
 30
0.0
  0
SPLINE
  5
105
100
AcDbEntity
  8
Layer_1
 62
7
100
AcDbSpline
 70
8
 71
3
 72
8
 73
4
 74
0
 40
0
 40
0
 40
0
 40
0
 40
1
 40
1
 40
1
 40
1
 10
9.950172
 20
23.705342
 30
0.0
 10
9.635723
 20
23.390894
 30
0.0
 10
9.209240
 20
23.214239
 30
0.0
 10
8.764543
 20
23.214240
 30
0.0
  0
SPLINE
  5
106
100
AcDbEntity
  8
Layer_1
 62
7
100
AcDbSpline
 70
8
 71
3
 72
8
 73
4
 74
0
 40
0
 40
0
 40
0
 40
0
 40
1
 40
1
 40
1
 40
1
 10
8.764543
 20
23.214240
 30
0.0
 10
7.838510
 20
23.214240
 30
0.0
 10
7.087812
 20
23.964938
 30
0.0
 10
7.087812
 20
24.890971
 30
0.0
  0
SPLINE
  5
107
100
AcDbEntity
  8
Layer_1
 62
7
100
AcDbSpline
 70
8
 71
3
 72
8
 73
4
 74
0
 40
0
 40
0
 40
0
 40
0
 40
1
 40
1
 40
1
 40
1
 10
7.087812
 20
24.890971
 30
0.0
 10
7.087812
 20
25.817004
 30
0.0
 10
7.838510
 20
26.567702
 30
0.0
 10
8.764543
 20
26.567703
 30
0.0
  0
SPLINE
  5
108
100
AcDbEntity
  8
Layer_1
 62
7
100
AcDbSpline
 70
8
 71
3
 72
8
 73
4
 74
0
 40
0
 40
0
 40
0
 40
0
 40
1
 40
1
 40
1
 40
1
 10
8.764543
 20
26.567703
 30
0.0
 10
9.209240
 20
26.567703
 30
0.0
 10
9.635723
 20
26.391048
 30
0.0
 10
9.950172
 20
26.076600
 30
0.0
  0
SPLINE
  5
109
100
AcDbEntity
  8
Layer_1
 62
7
100
AcDbSpline
 70
8
 71
3
 72
8
 73
4
 74
0
 40
0
 40
0
 40
0
 40
0
 40
1
 40
1
 40
1
 40
1
 10
9.950172
 20
26.076600
 30
0.0
 10
10.264620
 20
25.762152
 30
0.0
 10
10.441276
 20
25.335668
 30
0.0
 10
10.441276
 20
24.890971
 30
0.0
  0
LINE
  5
10a
100
AcDbEntity
  8
Layer_1
 62
7
100
AcDbLine
 10
10.441276
 20
24.890971
 30
0.0
 11
10.441276
 21
24.890971
 31
0.0
  0
SPLINE
  5
10b
100
AcDbEntity
  8
Layer_1
 62
7
100
AcDbSpline
 70
8
 71
3
 72
8
 73
4
 74
0
 40
0
 40
0
 40
0
 40
0
 40
1
 40
1
 40
1
 40
1
 10
14.999957
 20
24.890971
 30
0.0
 10
14.999957
 20
24.446274
 30
0.0
 10
14.823301
 20
24.019790
 30
0.0
 10
14.508853
 20
23.705342
 30
0.0
  0
SPLINE
  5
10c
100
AcDbEntity
  8
Layer_1
 62
7
100
AcDbSpline
 70
8
 71
3
 72
8
 73
4
 74
0
 40
0
 40
0
 40
0
 40
0
 40
1
 40
1
 40
1
 40
1
 10
14.508853
 20
23.705342
 30
0.0
 10
14.194404
 20
23.390894
 30
0.0
 10
13.767921
 20
23.214239
 30
0.0
 10
13.323223
 20
23.214240
 30
0.0
  0
SPLINE
  5
10d
100
AcDbEntity
  8
Layer_1
 62
7
100
AcDbSpline
 70
8
 71
3
 72
8
 73
4
 74
0
 40
0
 40
0
 40
0
 40
0
 40
1
 40
1
 40
1
 40
1
 10
13.323223
 20
23.214240
 30
0.0
 10
12.397190
 20
23.214240
 30
0.0
 10
11.646493
 20
23.964938
 30
0.0
 10
11.646493
 20
24.890971
 30
0.0
  0
SPLINE
  5
10e
100
AcDbEntity
  8
Layer_1
 62
7
100
AcDbSpline
 70
8
 71
3
 72
8
 73
4
 74
0
 40
0
 40
0
 40
0
 40
0
 40
1
 40
1
 40
1
 40
1
 10
11.646493
 20
24.890971
 30
0.0
 10
11.646493
 20
25.817004
 30
0.0
 10
12.397190
 20
26.567702
 30
0.0
 10
13.323223
 20
26.567703
 30
0.0
  0
SPLINE
  5
10f
100
AcDbEntity
  8
Layer_1
 62
7
100
AcDbSpline
 70
8
 71
3
 72
8
 73
4
 74
0
 40
0
 40
0
 40
0
 40
0
 40
1
 40
1
 40
1
 40
1
 10
13.323223
 20
26.567703
 30
0.0
 10
13.767921
 20
26.567703
 30
0.0
 10
14.194404
 20
26.391048
 30
0.0
 10
14.508853
 20
26.076600
 30
0.0
  0
SPLINE
  5
110
100
AcDbEntity
  8
Layer_1
 62
7
100
AcDbSpline
 70
8
 71
3
 72
8
 73
4
 74
0
 40
0
 40
0
 40
0
 40
0
 40
1
 40
1
 40
1
 40
1
 10
14.508853
 20
26.076600
 30
0.0
 10
14.823301
 20
25.762152
 30
0.0
 10
14.999957
 20
25.335668
 30
0.0
 10
14.999957
 20
24.890971
 30
0.0
  0
LINE
  5
111
100
AcDbEntity
  8
Layer_1
 62
7
100
AcDbLine
 10
14.999957
 20
24.890971
 30
0.0
 11
14.999957
 21
24.890971
 31
0.0
  0
SPLINE
  5
112
100
AcDbEntity
  8
Layer_1
 62
7
100
AcDbSpline
 70
8
 71
3
 72
8
 73
4
 74
0
 40
0
 40
0
 40
0
 40
0
 40
1
 40
1
 40
1
 40
1
 10
19.558640
 20
24.890971
 30
0.0
 10
19.558640
 20
23.964938
 30
0.0
 10
18.807942
 20
23.214240
 30
0.0
 10
17.881910
 20
23.214240
 30
0.0
  0
SPLINE
  5
113
100
AcDbEntity
  8
Layer_1
 62
7
100
AcDbSpline
 70
8
 71
3
 72
8
 73
4
 74
0
 40
0
 40
0
 40
0
 40
0
 40
1
 40
1
 40
1
 40
1
 10
17.881910
 20
23.214240
 30
0.0
 10
16.955877
 20
23.214240
 30
0.0
 10
16.205179
 20
23.964938
 30
0.0
 10
16.205179
 20
24.890971
 30
0.0
  0
SPLINE
  5
114
100
AcDbEntity
  8
Layer_1
 62
7
100
AcDbSpline
 70
8
 71
3
 72
8
 73
4
 74
0
 40
0
 40
0
 40
0
 40
0
 40
1
 40
1
 40
1
 40
1
 10
16.205179
 20
24.890971
 30
0.0
 10
16.205179
 20
25.817004
 30
0.0
 10
16.955877
 20
26.567702
 30
0.0
 10
17.881910
 20
26.567703
 30
0.0
  0
SPLINE
  5
115
100
AcDbEntity
  8
Layer_1
 62
7
100
AcDbSpline
 70
8
 71
3
 72
8
 73
4
 74
0
 40
0
 40
0
 40
0
 40
0
 40
1
 40
1
 40
1
 40
1
 10
17.881910
 20
26.567703
 30
0.0
 10
18.807942
 20
26.567702
 30
0.0
 10
19.558640
 20
25.817004
 30
0.0
 10
19.558640
 20
24.890971
 30
0.0
  0
LINE
  5
116
100
AcDbEntity
  8
Layer_1
 62
7
100
AcDbLine
 10
19.558640
 20
24.890971
 30
0.0
 11
19.558640
 21
24.890971
 31
0.0
  0
SPLINE
  5
117
100
AcDbEntity
  8
Layer_1
 62
7
100
AcDbSpline
 70
8
 71
3
 72
8
 73
4
 74
0
 40
0
 40
0
 40
0
 40
0
 40
1
 40
1
 40
1
 40
1
 10
24.117321
 20
24.890971
 30
0.0
 10
24.117321
 20
23.964938
 30
0.0
 10
23.366623
 20
23.214240
 30
0.0
 10
22.440590
 20
23.214240
 30
0.0
  0
SPLINE
  5
118
100
AcDbEntity
  8
Layer_1
 62
7
100
AcDbSpline
 70
8
 71
3
 72
8
 73
4
 74
0
 40
0
 40
0
 40
0
 40
0
 40
1
 40
1
 40
1
 40
1
 10
22.440590
 20
23.214240
 30
0.0
 10
21.514558
 20
23.214240
 30
0.0
 10
20.763860
 20
23.964938
 30
0.0
 10
20.763860
 20
24.890971
 30
0.0
  0
SPLINE
  5
119
100
AcDbEntity
  8
Layer_1
 62
7
100
AcDbSpline
 70
8
 71
3
 72
8
 73
4
 74
0
 40
0
 40
0
 40
0
 40
0
 40
1
 40
1
 40
1
 40
1
 10
20.763860
 20
24.890971
 30
0.0
 10
20.763860
 20
25.817004
 30
0.0
 10
21.514558
 20
26.567702
 30
0.0
 10
22.440590
 20
26.567703
 30
0.0
  0
SPLINE
  5
11a
100
AcDbEntity
  8
Layer_1
 62
7
100
AcDbSpline
 70
8
 71
3
 72
8
 73
4
 74
0
 40
0
 40
0
 40
0
 40
0
 40
1
 40
1
 40
1
 40
1
 10
22.440590
 20
26.567703
 30
0.0
 10
23.366623
 20
26.567702
 30
0.0
 10
24.117321
 20
25.817004
 30
0.0
 10
24.117321
 20
24.890971
 30
0.0
  0
LINE
  5
11b
100
AcDbEntity
  8
Layer_1
 62
7
100
AcDbLine
 10
24.117321
 20
24.890971
 30
0.0
 11
24.117321
 21
24.890971
 31
0.0
  0
SPLINE
  5
11c
100
AcDbEntity
  8
Layer_1
 62
7
100
AcDbSpline
 70
8
 71
3
 72
8
 73
4
 74
0
 40
0
 40
0
 40
0
 40
0
 40
1
 40
1
 40
1
 40
1
 10
28.676007
 20
24.890971
 30
0.0
 10
28.676007
 20
24.446274
 30
0.0
 10
28.499352
 20
24.019790
 30
0.0
 10
28.184903
 20
23.705342
 30
0.0
  0
SPLINE
  5
11d
100
AcDbEntity
  8
Layer_1
 62
7
100
AcDbSpline
 70
8
 71
3
 72
8
 73
4
 74
0
 40
0
 40
0
 40
0
 40
0
 40
1
 40
1
 40
1
 40
1
 10
28.184903
 20
23.705342
 30
0.0
 10
27.870455
 20
23.390894
 30
0.0
 10
27.443971
 20
23.214239
 30
0.0
 10
26.999274
 20
23.214240
 30
0.0
  0
SPLINE
  5
11e
100
AcDbEntity
  8
Layer_1
 62
7
100
AcDbSpline
 70
8
 71
3
 72
8
 73
4
 74
0
 40
0
 40
0
 40
0
 40
0
 40
1
 40
1
 40
1
 40
1
 10
26.999274
 20
23.214240
 30
0.0
 10
26.073241
 20
23.214240
 30
0.0
 10
25.322543
 20
23.964938
 30
0.0
 10
25.322543
 20
24.890971
 30
0.0
  0
SPLINE
  5
11f
100
AcDbEntity
  8
Layer_1
 62
7
100
AcDbSpline
 70
8
 71
3
 72
8
 73
4
 74
0
 40
0
 40
0
 40
0
 40
0
 40
1
 40
1
 40
1
 40
1
 10
25.322543
 20
24.890971
 30
0.0
 10
25.322543
 20
25.817004
 30
0.0
 10
26.073241
 20
26.567702
 30
0.0
 10
26.999274
 20
26.567703
 30
0.0
  0
SPLINE
  5
120
100
AcDbEntity
  8
Layer_1
 62
7
100
AcDbSpline
 70
8
 71
3
 72
8
 73
4
 74
0
 40
0
 40
0
 40
0
 40
0
 40
1
 40
1
 40
1
 40
1
 10
26.999274
 20
26.567703
 30
0.0
 10
27.443971
 20
26.567703
 30
0.0
 10
27.870455
 20
26.391048
 30
0.0
 10
28.184903
 20
26.076600
 30
0.0
  0
SPLINE
  5
121
100
AcDbEntity
  8
Layer_1
 62
7
100
AcDbSpline
 70
8
 71
3
 72
8
 73
4
 74
0
 40
0
 40
0
 40
0
 40
0
 40
1
 40
1
 40
1
 40
1
 10
28.184903
 20
26.076600
 30
0.0
 10
28.499352
 20
25.762152
 30
0.0
 10
28.676007
 20
25.335668
 30
0.0
 10
28.676007
 20
24.890971
 30
0.0
  0
LINE
  5
122
100
AcDbEntity
  8
Layer_1
 62
7
100
AcDbLine
 10
28.676007
 20
24.890971
 30
0.0
 11
28.676007
 21
24.890971
 31
0.0
  0
SPLINE
  5
123
100
AcDbEntity
  8
Layer_1
 62
7
100
AcDbSpline
 70
8
 71
3
 72
8
 73
4
 74
0
 40
0
 40
0
 40
0
 40
0
 40
1
 40
1
 40
1
 40
1
 10
33.234688
 20
24.890971
 30
0.0
 10
33.234688
 20
23.964938
 30
0.0
 10
32.483990
 20
23.214240
 30
0.0
 10
31.557957
 20
23.214240
 30
0.0
  0
SPLINE
  5
124
100
AcDbEntity
  8
Layer_1
 62
7
100
AcDbSpline
 70
8
 71
3
 72
8
 73
4
 74
0
 40
0
 40
0
 40
0
 40
0
 40
1
 40
1
 40
1
 40
1
 10
31.557957
 20
23.214240
 30
0.0
 10
30.631925
 20
23.214240
 30
0.0
 10
29.881227
 20
23.964938
 30
0.0
 10
29.881227
 20
24.890971
 30
0.0
  0
SPLINE
  5
125
100
AcDbEntity
  8
Layer_1
 62
7
100
AcDbSpline
 70
8
 71
3
 72
8
 73
4
 74
0
 40
0
 40
0
 40
0
 40
0
 40
1
 40
1
 40
1
 40
1
 10
29.881227
 20
24.890971
 30
0.0
 10
29.881227
 20
25.817004
 30
0.0
 10
30.631925
 20
26.567702
 30
0.0
 10
31.557957
 20
26.567703
 30
0.0
  0
SPLINE
  5
126
100
AcDbEntity
  8
Layer_1
 62
7
100
AcDbSpline
 70
8
 71
3
 72
8
 73
4
 74
0
 40
0
 40
0
 40
0
 40
0
 40
1
 40
1
 40
1
 40
1
 10
31.557957
 20
26.567703
 30
0.0
 10
32.483990
 20
26.567702
 30
0.0
 10
33.234688
 20
25.817004
 30
0.0
 10
33.234688
 20
24.890971
 30
0.0
  0
LINE
  5
127
100
AcDbEntity
  8
Layer_1
 62
7
100
AcDbLine
 10
33.234688
 20
24.890971
 30
0.0
 11
33.234688
 21
24.890971
 31
0.0
  0
SPLINE
  5
128
100
AcDbEntity
  8
Layer_1
 62
7
100
AcDbSpline
 70
8
 71
3
 72
8
 73
4
 74
0
 40
0
 40
0
 40
0
 40
0
 40
1
 40
1
 40
1
 40
1
 10
10.441276
 20
20.332643
 30
0.0
 10
10.441276
 20
19.887946
 30
0.0
 10
10.264620
 20
19.461463
 30
0.0
 10
9.950172
 20
19.147014
 30
0.0
  0
SPLINE
  5
129
100
AcDbEntity
  8
Layer_1
 62
7
100
AcDbSpline
 70
8
 71
3
 72
8
 73
4
 74
0
 40
0
 40
0
 40
0
 40
0
 40
1
 40
1
 40
1
 40
1
 10
9.950172
 20
19.147014
 30
0.0
 10
9.635723
 20
18.832566
 30
0.0
 10
9.209240
 20
18.655911
 30
0.0
 10
8.764543
 20
18.655912
 30
0.0
  0
SPLINE
  5
12a
100
AcDbEntity
  8
Layer_1
 62
7
100
AcDbSpline
 70
8
 71
3
 72
8
 73
4
 74
0
 40
0
 40
0
 40
0
 40
0
 40
1
 40
1
 40
1
 40
1
 10
8.764543
 20
18.655912
 30
0.0
 10
7.838510
 20
18.655912
 30
0.0
 10
7.087812
 20
19.406610
 30
0.0
 10
7.087812
 20
20.332643
 30
0.0
  0
SPLINE
  5
12b
100
AcDbEntity
  8
Layer_1
 62
7
100
AcDbSpline
 70
8
 71
3
 72
8
 73
4
 74
0
 40
0
 40
0
 40
0
 40
0
 40
1
 40
1
 40
1
 40
1
 10
7.087812
 20
20.332643
 30
0.0
 10
7.087812
 20
21.258676
 30
0.0
 10
7.838510
 20
22.009375
 30
0.0
 10
8.764543
 20
22.009375
 30
0.0
  0
SPLINE
  5
12c
100
AcDbEntity
  8
Layer_1
 62
7
100
AcDbSpline
 70
8
 71
3
 72
8
 73
4
 74
0
 40
0
 40
0
 40
0
 40
0
 40
1
 40
1
 40
1
 40
1
 10
8.764543
 20
22.009375
 30
0.0
 10
9.209240
 20
22.009375
 30
0.0
 10
9.635723
 20
21.832721
 30
0.0
 10
9.950172
 20
21.518272
 30
0.0
  0
SPLINE
  5
12d
100
AcDbEntity
  8
Layer_1
 62
7
100
AcDbSpline
 70
8
 71
3
 72
8
 73
4
 74
0
 40
0
 40
0
 40
0
 40
0
 40
1
 40
1
 40
1
 40
1
 10
9.950172
 20
21.518272
 30
0.0
 10
10.264620
 20
21.203824
 30
0.0
 10
10.441276
 20
20.777341
 30
0.0
 10
10.441276
 20
20.332643
 30
0.0
  0
LINE
  5
12e
100
AcDbEntity
  8
Layer_1
 62
7
100
AcDbLine
 10
10.441276
 20
20.332643
 30
0.0
 11
10.441276
 21
20.332643
 31
0.0
  0
SPLINE
  5
12f
100
AcDbEntity
  8
Layer_1
 62
7
100
AcDbSpline
 70
8
 71
3
 72
8
 73
4
 74
0
 40
0
 40
0
 40
0
 40
0
 40
1
 40
1
 40
1
 40
1
 10
14.999957
 20
20.332643
 30
0.0
 10
14.999957
 20
19.887946
 30
0.0
 10
14.823301
 20
19.461463
 30
0.0
 10
14.508853
 20
19.147014
 30
0.0
  0
SPLINE
  5
130
100
AcDbEntity
  8
Layer_1
 62
7
100
AcDbSpline
 70
8
 71
3
 72
8
 73
4
 74
0
 40
0
 40
0
 40
0
 40
0
 40
1
 40
1
 40
1
 40
1
 10
14.508853
 20
19.147014
 30
0.0
 10
14.194404
 20
18.832566
 30
0.0
 10
13.767921
 20
18.655911
 30
0.0
 10
13.323223
 20
18.655912
 30
0.0
  0
SPLINE
  5
131
100
AcDbEntity
  8
Layer_1
 62
7
100
AcDbSpline
 70
8
 71
3
 72
8
 73
4
 74
0
 40
0
 40
0
 40
0
 40
0
 40
1
 40
1
 40
1
 40
1
 10
13.323223
 20
18.655912
 30
0.0
 10
12.397190
 20
18.655912
 30
0.0
 10
11.646493
 20
19.406610
 30
0.0
 10
11.646493
 20
20.332643
 30
0.0
  0
SPLINE
  5
132
100
AcDbEntity
  8
Layer_1
 62
7
100
AcDbSpline
 70
8
 71
3
 72
8
 73
4
 74
0
 40
0
 40
0
 40
0
 40
0
 40
1
 40
1
 40
1
 40
1
 10
11.646493
 20
20.332643
 30
0.0
 10
11.646493
 20
21.258676
 30
0.0
 10
12.397190
 20
22.009375
 30
0.0
 10
13.323223
 20
22.009375
 30
0.0
  0
SPLINE
  5
133
100
AcDbEntity
  8
Layer_1
 62
7
100
AcDbSpline
 70
8
 71
3
 72
8
 73
4
 74
0
 40
0
 40
0
 40
0
 40
0
 40
1
 40
1
 40
1
 40
1
 10
13.323223
 20
22.009375
 30
0.0
 10
13.767921
 20
22.009375
 30
0.0
 10
14.194404
 20
21.832721
 30
0.0
 10
14.508853
 20
21.518272
 30
0.0
  0
SPLINE
  5
134
100
AcDbEntity
  8
Layer_1
 62
7
100
AcDbSpline
 70
8
 71
3
 72
8
 73
4
 74
0
 40
0
 40
0
 40
0
 40
0
 40
1
 40
1
 40
1
 40
1
 10
14.508853
 20
21.518272
 30
0.0
 10
14.823301
 20
21.203824
 30
0.0
 10
14.999957
 20
20.777341
 30
0.0
 10
14.999957
 20
20.332643
 30
0.0
  0
LINE
  5
135
100
AcDbEntity
  8
Layer_1
 62
7
100
AcDbLine
 10
14.999957
 20
20.332643
 30
0.0
 11
14.999957
 21
20.332643
 31
0.0
  0
SPLINE
  5
136
100
AcDbEntity
  8
Layer_1
 62
7
100
AcDbSpline
 70
8
 71
3
 72
8
 73
4
 74
0
 40
0
 40
0
 40
0
 40
0
 40
1
 40
1
 40
1
 40
1
 10
19.558640
 20
20.332643
 30
0.0
 10
19.558640
 20
19.406610
 30
0.0
 10
18.807942
 20
18.655912
 30
0.0
 10
17.881910
 20
18.655912
 30
0.0
  0
SPLINE
  5
137
100
AcDbEntity
  8
Layer_1
 62
7
100
AcDbSpline
 70
8
 71
3
 72
8
 73
4
 74
0
 40
0
 40
0
 40
0
 40
0
 40
1
 40
1
 40
1
 40
1
 10
17.881910
 20
18.655912
 30
0.0
 10
16.955877
 20
18.655912
 30
0.0
 10
16.205179
 20
19.406610
 30
0.0
 10
16.205179
 20
20.332643
 30
0.0
  0
SPLINE
  5
138
100
AcDbEntity
  8
Layer_1
 62
7
100
AcDbSpline
 70
8
 71
3
 72
8
 73
4
 74
0
 40
0
 40
0
 40
0
 40
0
 40
1
 40
1
 40
1
 40
1
 10
16.205179
 20
20.332643
 30
0.0
 10
16.205179
 20
21.258676
 30
0.0
 10
16.955877
 20
22.009375
 30
0.0
 10
17.881910
 20
22.009375
 30
0.0
  0
SPLINE
  5
139
100
AcDbEntity
  8
Layer_1
 62
7
100
AcDbSpline
 70
8
 71
3
 72
8
 73
4
 74
0
 40
0
 40
0
 40
0
 40
0
 40
1
 40
1
 40
1
 40
1
 10
17.881910
 20
22.009375
 30
0.0
 10
18.807942
 20
22.009375
 30
0.0
 10
19.558640
 20
21.258676
 30
0.0
 10
19.558640
 20
20.332643
 30
0.0
  0
LINE
  5
13a
100
AcDbEntity
  8
Layer_1
 62
7
100
AcDbLine
 10
19.558640
 20
20.332643
 30
0.0
 11
19.558640
 21
20.332643
 31
0.0
  0
SPLINE
  5
13b
100
AcDbEntity
  8
Layer_1
 62
7
100
AcDbSpline
 70
8
 71
3
 72
8
 73
4
 74
0
 40
0
 40
0
 40
0
 40
0
 40
1
 40
1
 40
1
 40
1
 10
24.117321
 20
20.332643
 30
0.0
 10
24.117321
 20
19.406610
 30
0.0
 10
23.366623
 20
18.655912
 30
0.0
 10
22.440590
 20
18.655912
 30
0.0
  0
SPLINE
  5
13c
100
AcDbEntity
  8
Layer_1
 62
7
100
AcDbSpline
 70
8
 71
3
 72
8
 73
4
 74
0
 40
0
 40
0
 40
0
 40
0
 40
1
 40
1
 40
1
 40
1
 10
22.440590
 20
18.655912
 30
0.0
 10
21.514558
 20
18.655912
 30
0.0
 10
20.763860
 20
19.406610
 30
0.0
 10
20.763860
 20
20.332643
 30
0.0
  0
SPLINE
  5
13d
100
AcDbEntity
  8
Layer_1
 62
7
100
AcDbSpline
 70
8
 71
3
 72
8
 73
4
 74
0
 40
0
 40
0
 40
0
 40
0
 40
1
 40
1
 40
1
 40
1
 10
20.763860
 20
20.332643
 30
0.0
 10
20.763860
 20
21.258676
 30
0.0
 10
21.514558
 20
22.009375
 30
0.0
 10
22.440590
 20
22.009375
 30
0.0
  0
SPLINE
  5
13e
100
AcDbEntity
  8
Layer_1
 62
7
100
AcDbSpline
 70
8
 71
3
 72
8
 73
4
 74
0
 40
0
 40
0
 40
0
 40
0
 40
1
 40
1
 40
1
 40
1
 10
22.440590
 20
22.009375
 30
0.0
 10
23.366623
 20
22.009375
 30
0.0
 10
24.117321
 20
21.258676
 30
0.0
 10
24.117321
 20
20.332643
 30
0.0
  0
LINE
  5
13f
100
AcDbEntity
  8
Layer_1
 62
7
100
AcDbLine
 10
24.117321
 20
20.332643
 30
0.0
 11
24.117321
 21
20.332643
 31
0.0
  0
SPLINE
  5
140
100
AcDbEntity
  8
Layer_1
 62
7
100
AcDbSpline
 70
8
 71
3
 72
8
 73
4
 74
0
 40
0
 40
0
 40
0
 40
0
 40
1
 40
1
 40
1
 40
1
 10
28.676007
 20
20.332643
 30
0.0
 10
28.676007
 20
19.887946
 30
0.0
 10
28.499352
 20
19.461463
 30
0.0
 10
28.184903
 20
19.147014
 30
0.0
  0
SPLINE
  5
141
100
AcDbEntity
  8
Layer_1
 62
7
100
AcDbSpline
 70
8
 71
3
 72
8
 73
4
 74
0
 40
0
 40
0
 40
0
 40
0
 40
1
 40
1
 40
1
 40
1
 10
28.184903
 20
19.147014
 30
0.0
 10
27.870455
 20
18.832566
 30
0.0
 10
27.443971
 20
18.655911
 30
0.0
 10
26.999274
 20
18.655912
 30
0.0
  0
SPLINE
  5
142
100
AcDbEntity
  8
Layer_1
 62
7
100
AcDbSpline
 70
8
 71
3
 72
8
 73
4
 74
0
 40
0
 40
0
 40
0
 40
0
 40
1
 40
1
 40
1
 40
1
 10
26.999274
 20
18.655912
 30
0.0
 10
26.073241
 20
18.655912
 30
0.0
 10
25.322543
 20
19.406610
 30
0.0
 10
25.322543
 20
20.332643
 30
0.0
  0
SPLINE
  5
143
100
AcDbEntity
  8
Layer_1
 62
7
100
AcDbSpline
 70
8
 71
3
 72
8
 73
4
 74
0
 40
0
 40
0
 40
0
 40
0
 40
1
 40
1
 40
1
 40
1
 10
25.322543
 20
20.332643
 30
0.0
 10
25.322543
 20
21.258676
 30
0.0
 10
26.073241
 20
22.009375
 30
0.0
 10
26.999274
 20
22.009375
 30
0.0
  0
SPLINE
  5
144
100
AcDbEntity
  8
Layer_1
 62
7
100
AcDbSpline
 70
8
 71
3
 72
8
 73
4
 74
0
 40
0
 40
0
 40
0
 40
0
 40
1
 40
1
 40
1
 40
1
 10
26.999274
 20
22.009375
 30
0.0
 10
27.443971
 20
22.009375
 30
0.0
 10
27.870455
 20
21.832721
 30
0.0
 10
28.184903
 20
21.518272
 30
0.0
  0
SPLINE
  5
145
100
AcDbEntity
  8
Layer_1
 62
7
100
AcDbSpline
 70
8
 71
3
 72
8
 73
4
 74
0
 40
0
 40
0
 40
0
 40
0
 40
1
 40
1
 40
1
 40
1
 10
28.184903
 20
21.518272
 30
0.0
 10
28.499352
 20
21.203824
 30
0.0
 10
28.676007
 20
20.777341
 30
0.0
 10
28.676007
 20
20.332643
 30
0.0
  0
LINE
  5
146
100
AcDbEntity
  8
Layer_1
 62
7
100
AcDbLine
 10
28.676007
 20
20.332643
 30
0.0
 11
28.676007
 21
20.332643
 31
0.0
  0
SPLINE
  5
147
100
AcDbEntity
  8
Layer_1
 62
7
100
AcDbSpline
 70
8
 71
3
 72
8
 73
4
 74
0
 40
0
 40
0
 40
0
 40
0
 40
1
 40
1
 40
1
 40
1
 10
33.234688
 20
20.332643
 30
0.0
 10
33.234688
 20
19.406610
 30
0.0
 10
32.483990
 20
18.655912
 30
0.0
 10
31.557957
 20
18.655912
 30
0.0
  0
SPLINE
  5
148
100
AcDbEntity
  8
Layer_1
 62
7
100
AcDbSpline
 70
8
 71
3
 72
8
 73
4
 74
0
 40
0
 40
0
 40
0
 40
0
 40
1
 40
1
 40
1
 40
1
 10
31.557957
 20
18.655912
 30
0.0
 10
30.631925
 20
18.655912
 30
0.0
 10
29.881227
 20
19.406610
 30
0.0
 10
29.881227
 20
20.332643
 30
0.0
  0
SPLINE
  5
149
100
AcDbEntity
  8
Layer_1
 62
7
100
AcDbSpline
 70
8
 71
3
 72
8
 73
4
 74
0
 40
0
 40
0
 40
0
 40
0
 40
1
 40
1
 40
1
 40
1
 10
29.881227
 20
20.332643
 30
0.0
 10
29.881227
 20
21.258676
 30
0.0
 10
30.631925
 20
22.009375
 30
0.0
 10
31.557957
 20
22.009375
 30
0.0
  0
SPLINE
  5
14a
100
AcDbEntity
  8
Layer_1
 62
7
100
AcDbSpline
 70
8
 71
3
 72
8
 73
4
 74
0
 40
0
 40
0
 40
0
 40
0
 40
1
 40
1
 40
1
 40
1
 10
31.557957
 20
22.009375
 30
0.0
 10
32.483990
 20
22.009375
 30
0.0
 10
33.234688
 20
21.258676
 30
0.0
 10
33.234688
 20
20.332643
 30
0.0
  0
LINE
  5
14b
100
AcDbEntity
  8
Layer_1
 62
7
100
AcDbLine
 10
33.234688
 20
20.332643
 30
0.0
 11
33.234688
 21
20.332643
 31
0.0
  0
SPLINE
  5
14c
100
AcDbEntity
  8
Layer_1
 62
7
100
AcDbSpline
 70
8
 71
3
 72
8
 73
4
 74
0
 40
0
 40
0
 40
0
 40
0
 40
1
 40
1
 40
1
 40
1
 10
10.441276
 20
15.774313
 30
0.0
 10
10.441276
 20
15.329616
 30
0.0
 10
10.264620
 20
14.903132
 30
0.0
 10
9.950172
 20
14.588684
 30
0.0
  0
SPLINE
  5
14d
100
AcDbEntity
  8
Layer_1
 62
7
100
AcDbSpline
 70
8
 71
3
 72
8
 73
4
 74
0
 40
0
 40
0
 40
0
 40
0
 40
1
 40
1
 40
1
 40
1
 10
9.950172
 20
14.588684
 30
0.0
 10
9.635723
 20
14.274236
 30
0.0
 10
9.209240
 20
14.097581
 30
0.0
 10
8.764543
 20
14.097581
 30
0.0
  0
SPLINE
  5
14e
100
AcDbEntity
  8
Layer_1
 62
7
100
AcDbSpline
 70
8
 71
3
 72
8
 73
4
 74
0
 40
0
 40
0
 40
0
 40
0
 40
1
 40
1
 40
1
 40
1
 10
8.764543
 20
14.097581
 30
0.0
 10
7.838510
 20
14.097582
 30
0.0
 10
7.087812
 20
14.848280
 30
0.0
 10
7.087812
 20
15.774313
 30
0.0
  0
SPLINE
  5
14f
100
AcDbEntity
  8
Layer_1
 62
7
100
AcDbSpline
 70
8
 71
3
 72
8
 73
4
 74
0
 40
0
 40
0
 40
0
 40
0
 40
1
 40
1
 40
1
 40
1
 10
7.087812
 20
15.774313
 30
0.0
 10
7.087812
 20
16.700346
 30
0.0
 10
7.838510
 20
17.451044
 30
0.0
 10
8.764543
 20
17.451044
 30
0.0
  0
SPLINE
  5
150
100
AcDbEntity
  8
Layer_1
 62
7
100
AcDbSpline
 70
8
 71
3
 72
8
 73
4
 74
0
 40
0
 40
0
 40
0
 40
0
 40
1
 40
1
 40
1
 40
1
 10
8.764543
 20
17.451044
 30
0.0
 10
9.209240
 20
17.451045
 30
0.0
 10
9.635723
 20
17.274390
 30
0.0
 10
9.950172
 20
16.959942
 30
0.0
  0
SPLINE
  5
151
100
AcDbEntity
  8
Layer_1
 62
7
100
AcDbSpline
 70
8
 71
3
 72
8
 73
4
 74
0
 40
0
 40
0
 40
0
 40
0
 40
1
 40
1
 40
1
 40
1
 10
9.950172
 20
16.959942
 30
0.0
 10
10.264620
 20
16.645494
 30
0.0
 10
10.441276
 20
16.219010
 30
0.0
 10
10.441276
 20
15.774313
 30
0.0
  0
LINE
  5
152
100
AcDbEntity
  8
Layer_1
 62
7
100
AcDbLine
 10
10.441276
 20
15.774313
 30
0.0
 11
10.441276
 21
15.774313
 31
0.0
  0
SPLINE
  5
153
100
AcDbEntity
  8
Layer_1
 62
7
100
AcDbSpline
 70
8
 71
3
 72
8
 73
4
 74
0
 40
0
 40
0
 40
0
 40
0
 40
1
 40
1
 40
1
 40
1
 10
14.999957
 20
15.774313
 30
0.0
 10
14.999957
 20
15.329616
 30
0.0
 10
14.823301
 20
14.903132
 30
0.0
 10
14.508853
 20
14.588684
 30
0.0
  0
SPLINE
  5
154
100
AcDbEntity
  8
Layer_1
 62
7
100
AcDbSpline
 70
8
 71
3
 72
8
 73
4
 74
0
 40
0
 40
0
 40
0
 40
0
 40
1
 40
1
 40
1
 40
1
 10
14.508853
 20
14.588684
 30
0.0
 10
14.194404
 20
14.274236
 30
0.0
 10
13.767921
 20
14.097581
 30
0.0
 10
13.323223
 20
14.097581
 30
0.0
  0
SPLINE
  5
155
100
AcDbEntity
  8
Layer_1
 62
7
100
AcDbSpline
 70
8
 71
3
 72
8
 73
4
 74
0
 40
0
 40
0
 40
0
 40
0
 40
1
 40
1
 40
1
 40
1
 10
13.323223
 20
14.097581
 30
0.0
 10
12.397190
 20
14.097582
 30
0.0
 10
11.646493
 20
14.848280
 30
0.0
 10
11.646493
 20
15.774313
 30
0.0
  0
SPLINE
  5
156
100
AcDbEntity
  8
Layer_1
 62
7
100
AcDbSpline
 70
8
 71
3
 72
8
 73
4
 74
0
 40
0
 40
0
 40
0
 40
0
 40
1
 40
1
 40
1
 40
1
 10
11.646493
 20
15.774313
 30
0.0
 10
11.646493
 20
16.700346
 30
0.0
 10
12.397190
 20
17.451044
 30
0.0
 10
13.323223
 20
17.451044
 30
0.0
  0
SPLINE
  5
157
100
AcDbEntity
  8
Layer_1
 62
7
100
AcDbSpline
 70
8
 71
3
 72
8
 73
4
 74
0
 40
0
 40
0
 40
0
 40
0
 40
1
 40
1
 40
1
 40
1
 10
13.323223
 20
17.451044
 30
0.0
 10
13.767921
 20
17.451045
 30
0.0
 10
14.194404
 20
17.274390
 30
0.0
 10
14.508853
 20
16.959942
 30
0.0
  0
SPLINE
  5
158
100
AcDbEntity
  8
Layer_1
 62
7
100
AcDbSpline
 70
8
 71
3
 72
8
 73
4
 74
0
 40
0
 40
0
 40
0
 40
0
 40
1
 40
1
 40
1
 40
1
 10
14.508853
 20
16.959942
 30
0.0
 10
14.823301
 20
16.645494
 30
0.0
 10
14.999957
 20
16.219010
 30
0.0
 10
14.999957
 20
15.774313
 30
0.0
  0
LINE
  5
159
100
AcDbEntity
  8
Layer_1
 62
7
100
AcDbLine
 10
14.999957
 20
15.774313
 30
0.0
 11
14.999957
 21
15.774313
 31
0.0
  0
SPLINE
  5
15a
100
AcDbEntity
  8
Layer_1
 62
7
100
AcDbSpline
 70
8
 71
3
 72
8
 73
4
 74
0
 40
0
 40
0
 40
0
 40
0
 40
1
 40
1
 40
1
 40
1
 10
19.558640
 20
15.774313
 30
0.0
 10
19.558640
 20
14.848280
 30
0.0
 10
18.807942
 20
14.097582
 30
0.0
 10
17.881910
 20
14.097581
 30
0.0
  0
SPLINE
  5
15b
100
AcDbEntity
  8
Layer_1
 62
7
100
AcDbSpline
 70
8
 71
3
 72
8
 73
4
 74
0
 40
0
 40
0
 40
0
 40
0
 40
1
 40
1
 40
1
 40
1
 10
17.881910
 20
14.097581
 30
0.0
 10
16.955877
 20
14.097582
 30
0.0
 10
16.205179
 20
14.848280
 30
0.0
 10
16.205179
 20
15.774313
 30
0.0
  0
SPLINE
  5
15c
100
AcDbEntity
  8
Layer_1
 62
7
100
AcDbSpline
 70
8
 71
3
 72
8
 73
4
 74
0
 40
0
 40
0
 40
0
 40
0
 40
1
 40
1
 40
1
 40
1
 10
16.205179
 20
15.774313
 30
0.0
 10
16.205179
 20
16.700346
 30
0.0
 10
16.955877
 20
17.451044
 30
0.0
 10
17.881910
 20
17.451044
 30
0.0
  0
SPLINE
  5
15d
100
AcDbEntity
  8
Layer_1
 62
7
100
AcDbSpline
 70
8
 71
3
 72
8
 73
4
 74
0
 40
0
 40
0
 40
0
 40
0
 40
1
 40
1
 40
1
 40
1
 10
17.881910
 20
17.451044
 30
0.0
 10
18.807942
 20
17.451044
 30
0.0
 10
19.558640
 20
16.700346
 30
0.0
 10
19.558640
 20
15.774313
 30
0.0
  0
LINE
  5
15e
100
AcDbEntity
  8
Layer_1
 62
7
100
AcDbLine
 10
19.558640
 20
15.774313
 30
0.0
 11
19.558640
 21
15.774313
 31
0.0
  0
SPLINE
  5
15f
100
AcDbEntity
  8
Layer_1
 62
7
100
AcDbSpline
 70
8
 71
3
 72
8
 73
4
 74
0
 40
0
 40
0
 40
0
 40
0
 40
1
 40
1
 40
1
 40
1
 10
24.117321
 20
15.774313
 30
0.0
 10
24.117321
 20
14.848280
 30
0.0
 10
23.366623
 20
14.097582
 30
0.0
 10
22.440590
 20
14.097581
 30
0.0
  0
SPLINE
  5
160
100
AcDbEntity
  8
Layer_1
 62
7
100
AcDbSpline
 70
8
 71
3
 72
8
 73
4
 74
0
 40
0
 40
0
 40
0
 40
0
 40
1
 40
1
 40
1
 40
1
 10
22.440590
 20
14.097581
 30
0.0
 10
21.514558
 20
14.097582
 30
0.0
 10
20.763860
 20
14.848280
 30
0.0
 10
20.763860
 20
15.774313
 30
0.0
  0
SPLINE
  5
161
100
AcDbEntity
  8
Layer_1
 62
7
100
AcDbSpline
 70
8
 71
3
 72
8
 73
4
 74
0
 40
0
 40
0
 40
0
 40
0
 40
1
 40
1
 40
1
 40
1
 10
20.763860
 20
15.774313
 30
0.0
 10
20.763860
 20
16.700346
 30
0.0
 10
21.514558
 20
17.451044
 30
0.0
 10
22.440590
 20
17.451044
 30
0.0
  0
SPLINE
  5
162
100
AcDbEntity
  8
Layer_1
 62
7
100
AcDbSpline
 70
8
 71
3
 72
8
 73
4
 74
0
 40
0
 40
0
 40
0
 40
0
 40
1
 40
1
 40
1
 40
1
 10
22.440590
 20
17.451044
 30
0.0
 10
23.366623
 20
17.451044
 30
0.0
 10
24.117321
 20
16.700346
 30
0.0
 10
24.117321
 20
15.774313
 30
0.0
  0
LINE
  5
163
100
AcDbEntity
  8
Layer_1
 62
7
100
AcDbLine
 10
24.117321
 20
15.774313
 30
0.0
 11
24.117321
 21
15.774313
 31
0.0
  0
SPLINE
  5
164
100
AcDbEntity
  8
Layer_1
 62
7
100
AcDbSpline
 70
8
 71
3
 72
8
 73
4
 74
0
 40
0
 40
0
 40
0
 40
0
 40
1
 40
1
 40
1
 40
1
 10
28.676007
 20
15.774313
 30
0.0
 10
28.676007
 20
15.329616
 30
0.0
 10
28.499352
 20
14.903132
 30
0.0
 10
28.184903
 20
14.588684
 30
0.0
  0
SPLINE
  5
165
100
AcDbEntity
  8
Layer_1
 62
7
100
AcDbSpline
 70
8
 71
3
 72
8
 73
4
 74
0
 40
0
 40
0
 40
0
 40
0
 40
1
 40
1
 40
1
 40
1
 10
28.184903
 20
14.588684
 30
0.0
 10
27.870455
 20
14.274236
 30
0.0
 10
27.443971
 20
14.097581
 30
0.0
 10
26.999274
 20
14.097581
 30
0.0
  0
SPLINE
  5
166
100
AcDbEntity
  8
Layer_1
 62
7
100
AcDbSpline
 70
8
 71
3
 72
8
 73
4
 74
0
 40
0
 40
0
 40
0
 40
0
 40
1
 40
1
 40
1
 40
1
 10
26.999274
 20
14.097581
 30
0.0
 10
26.073241
 20
14.097582
 30
0.0
 10
25.322543
 20
14.848280
 30
0.0
 10
25.322543
 20
15.774313
 30
0.0
  0
SPLINE
  5
167
100
AcDbEntity
  8
Layer_1
 62
7
100
AcDbSpline
 70
8
 71
3
 72
8
 73
4
 74
0
 40
0
 40
0
 40
0
 40
0
 40
1
 40
1
 40
1
 40
1
 10
25.322543
 20
15.774313
 30
0.0
 10
25.322543
 20
16.700346
 30
0.0
 10
26.073241
 20
17.451044
 30
0.0
 10
26.999274
 20
17.451044
 30
0.0
  0
SPLINE
  5
168
100
AcDbEntity
  8
Layer_1
 62
7
100
AcDbSpline
 70
8
 71
3
 72
8
 73
4
 74
0
 40
0
 40
0
 40
0
 40
0
 40
1
 40
1
 40
1
 40
1
 10
26.999274
 20
17.451044
 30
0.0
 10
27.443971
 20
17.451045
 30
0.0
 10
27.870455
 20
17.274390
 30
0.0
 10
28.184903
 20
16.959942
 30
0.0
  0
SPLINE
  5
169
100
AcDbEntity
  8
Layer_1
 62
7
100
AcDbSpline
 70
8
 71
3
 72
8
 73
4
 74
0
 40
0
 40
0
 40
0
 40
0
 40
1
 40
1
 40
1
 40
1
 10
28.184903
 20
16.959942
 30
0.0
 10
28.499352
 20
16.645494
 30
0.0
 10
28.676007
 20
16.219010
 30
0.0
 10
28.676007
 20
15.774313
 30
0.0
  0
LINE
  5
16a
100
AcDbEntity
  8
Layer_1
 62
7
100
AcDbLine
 10
28.676007
 20
15.774313
 30
0.0
 11
28.676007
 21
15.774313
 31
0.0
  0
SPLINE
  5
16b
100
AcDbEntity
  8
Layer_1
 62
7
100
AcDbSpline
 70
8
 71
3
 72
8
 73
4
 74
0
 40
0
 40
0
 40
0
 40
0
 40
1
 40
1
 40
1
 40
1
 10
33.234688
 20
15.774313
 30
0.0
 10
33.234688
 20
14.848280
 30
0.0
 10
32.483990
 20
14.097582
 30
0.0
 10
31.557957
 20
14.097581
 30
0.0
  0
SPLINE
  5
16c
100
AcDbEntity
  8
Layer_1
 62
7
100
AcDbSpline
 70
8
 71
3
 72
8
 73
4
 74
0
 40
0
 40
0
 40
0
 40
0
 40
1
 40
1
 40
1
 40
1
 10
31.557957
 20
14.097581
 30
0.0
 10
30.631925
 20
14.097582
 30
0.0
 10
29.881227
 20
14.848280
 30
0.0
 10
29.881227
 20
15.774313
 30
0.0
  0
SPLINE
  5
16d
100
AcDbEntity
  8
Layer_1
 62
7
100
AcDbSpline
 70
8
 71
3
 72
8
 73
4
 74
0
 40
0
 40
0
 40
0
 40
0
 40
1
 40
1
 40
1
 40
1
 10
29.881227
 20
15.774313
 30
0.0
 10
29.881227
 20
16.700346
 30
0.0
 10
30.631925
 20
17.451044
 30
0.0
 10
31.557957
 20
17.451044
 30
0.0
  0
SPLINE
  5
16e
100
AcDbEntity
  8
Layer_1
 62
7
100
AcDbSpline
 70
8
 71
3
 72
8
 73
4
 74
0
 40
0
 40
0
 40
0
 40
0
 40
1
 40
1
 40
1
 40
1
 10
31.557957
 20
17.451044
 30
0.0
 10
32.483990
 20
17.451044
 30
0.0
 10
33.234688
 20
16.700346
 30
0.0
 10
33.234688
 20
15.774313
 30
0.0
  0
LINE
  5
16f
100
AcDbEntity
  8
Layer_1
 62
7
100
AcDbLine
 10
33.234688
 20
15.774313
 30
0.0
 11
33.234688
 21
15.774313
 31
0.0
  0
SPLINE
  5
170
100
AcDbEntity
  8
Layer_1
 62
7
100
AcDbSpline
 70
8
 71
3
 72
8
 73
4
 74
0
 40
0
 40
0
 40
0
 40
0
 40
1
 40
1
 40
1
 40
1
 10
33.234688
 20
11.215981
 30
0.0
 10
33.234688
 20
10.289948
 30
0.0
 10
32.483990
 20
9.539249
 30
0.0
 10
31.557957
 20
9.539249
 30
0.0
  0
SPLINE
  5
171
100
AcDbEntity
  8
Layer_1
 62
7
100
AcDbSpline
 70
8
 71
3
 72
8
 73
4
 74
0
 40
0
 40
0
 40
0
 40
0
 40
1
 40
1
 40
1
 40
1
 10
31.557957
 20
9.539249
 30
0.0
 10
30.631925
 20
9.539249
 30
0.0
 10
29.881227
 20
10.289948
 30
0.0
 10
29.881227
 20
11.215981
 30
0.0
  0
SPLINE
  5
172
100
AcDbEntity
  8
Layer_1
 62
7
100
AcDbSpline
 70
8
 71
3
 72
8
 73
4
 74
0
 40
0
 40
0
 40
0
 40
0
 40
1
 40
1
 40
1
 40
1
 10
29.881227
 20
11.215981
 30
0.0
 10
29.881227
 20
12.142014
 30
0.0
 10
30.631925
 20
12.892712
 30
0.0
 10
31.557957
 20
12.892712
 30
0.0
  0
SPLINE
  5
173
100
AcDbEntity
  8
Layer_1
 62
7
100
AcDbSpline
 70
8
 71
3
 72
8
 73
4
 74
0
 40
0
 40
0
 40
0
 40
0
 40
1
 40
1
 40
1
 40
1
 10
31.557957
 20
12.892712
 30
0.0
 10
32.483990
 20
12.892712
 30
0.0
 10
33.234688
 20
12.142014
 30
0.0
 10
33.234688
 20
11.215981
 30
0.0
  0
LINE
  5
174
100
AcDbEntity
  8
Layer_1
 62
7
100
AcDbLine
 10
33.234688
 20
11.215981
 30
0.0
 11
33.234688
 21
11.215981
 31
0.0
  0
SPLINE
  5
175
100
AcDbEntity
  8
Layer_1
 62
7
100
AcDbSpline
 70
8
 71
3
 72
8
 73
4
 74
0
 40
0
 40
0
 40
0
 40
0
 40
1
 40
1
 40
1
 40
1
 10
28.676007
 20
11.215981
 30
0.0
 10
28.676007
 20
10.771283
 30
0.0
 10
28.499352
 20
10.344800
 30
0.0
 10
28.184903
 20
10.030352
 30
0.0
  0
SPLINE
  5
176
100
AcDbEntity
  8
Layer_1
 62
7
100
AcDbSpline
 70
8
 71
3
 72
8
 73
4
 74
0
 40
0
 40
0
 40
0
 40
0
 40
1
 40
1
 40
1
 40
1
 10
28.184903
 20
10.030352
 30
0.0
 10
27.870455
 20
9.715903
 30
0.0
 10
27.443971
 20
9.539249
 30
0.0
 10
26.999274
 20
9.539249
 30
0.0
  0
SPLINE
  5
177
100
AcDbEntity
  8
Layer_1
 62
7
100
AcDbSpline
 70
8
 71
3
 72
8
 73
4
 74
0
 40
0
 40
0
 40
0
 40
0
 40
1
 40
1
 40
1
 40
1
 10
26.999274
 20
9.539249
 30
0.0
 10
26.073241
 20
9.539249
 30
0.0
 10
25.322543
 20
10.289948
 30
0.0
 10
25.322543
 20
11.215981
 30
0.0
  0
SPLINE
  5
178
100
AcDbEntity
  8
Layer_1
 62
7
100
AcDbSpline
 70
8
 71
3
 72
8
 73
4
 74
0
 40
0
 40
0
 40
0
 40
0
 40
1
 40
1
 40
1
 40
1
 10
25.322543
 20
11.215981
 30
0.0
 10
25.322543
 20
12.142014
 30
0.0
 10
26.073241
 20
12.892712
 30
0.0
 10
26.999274
 20
12.892712
 30
0.0
  0
SPLINE
  5
179
100
AcDbEntity
  8
Layer_1
 62
7
100
AcDbSpline
 70
8
 71
3
 72
8
 73
4
 74
0
 40
0
 40
0
 40
0
 40
0
 40
1
 40
1
 40
1
 40
1
 10
26.999274
 20
12.892712
 30
0.0
 10
27.443971
 20
12.892713
 30
0.0
 10
27.870455
 20
12.716058
 30
0.0
 10
28.184903
 20
12.401610
 30
0.0
  0
SPLINE
  5
17a
100
AcDbEntity
  8
Layer_1
 62
7
100
AcDbSpline
 70
8
 71
3
 72
8
 73
4
 74
0
 40
0
 40
0
 40
0
 40
0
 40
1
 40
1
 40
1
 40
1
 10
28.184903
 20
12.401610
 30
0.0
 10
28.499352
 20
12.087161
 30
0.0
 10
28.676007
 20
11.660678
 30
0.0
 10
28.676007
 20
11.215981
 30
0.0
  0
LINE
  5
17b
100
AcDbEntity
  8
Layer_1
 62
7
100
AcDbLine
 10
28.676007
 20
11.215981
 30
0.0
 11
28.676007
 21
11.215981
 31
0.0
  0
SPLINE
  5
17c
100
AcDbEntity
  8
Layer_1
 62
7
100
AcDbSpline
 70
8
 71
3
 72
8
 73
4
 74
0
 40
0
 40
0
 40
0
 40
0
 40
1
 40
1
 40
1
 40
1
 10
24.117321
 20
11.215981
 30
0.0
 10
24.117321
 20
10.289948
 30
0.0
 10
23.366623
 20
9.539249
 30
0.0
 10
22.440590
 20
9.539249
 30
0.0
  0
SPLINE
  5
17d
100
AcDbEntity
  8
Layer_1
 62
7
100
AcDbSpline
 70
8
 71
3
 72
8
 73
4
 74
0
 40
0
 40
0
 40
0
 40
0
 40
1
 40
1
 40
1
 40
1
 10
22.440590
 20
9.539249
 30
0.0
 10
21.514558
 20
9.539249
 30
0.0
 10
20.763860
 20
10.289948
 30
0.0
 10
20.763860
 20
11.215981
 30
0.0
  0
SPLINE
  5
17e
100
AcDbEntity
  8
Layer_1
 62
7
100
AcDbSpline
 70
8
 71
3
 72
8
 73
4
 74
0
 40
0
 40
0
 40
0
 40
0
 40
1
 40
1
 40
1
 40
1
 10
20.763860
 20
11.215981
 30
0.0
 10
20.763860
 20
12.142014
 30
0.0
 10
21.514558
 20
12.892712
 30
0.0
 10
22.440590
 20
12.892712
 30
0.0
  0
SPLINE
  5
17f
100
AcDbEntity
  8
Layer_1
 62
7
100
AcDbSpline
 70
8
 71
3
 72
8
 73
4
 74
0
 40
0
 40
0
 40
0
 40
0
 40
1
 40
1
 40
1
 40
1
 10
22.440590
 20
12.892712
 30
0.0
 10
23.366623
 20
12.892712
 30
0.0
 10
24.117321
 20
12.142014
 30
0.0
 10
24.117321
 20
11.215981
 30
0.0
  0
LINE
  5
180
100
AcDbEntity
  8
Layer_1
 62
7
100
AcDbLine
 10
24.117321
 20
11.215981
 30
0.0
 11
24.117321
 21
11.215981
 31
0.0
  0
SPLINE
  5
181
100
AcDbEntity
  8
Layer_1
 62
7
100
AcDbSpline
 70
8
 71
3
 72
8
 73
4
 74
0
 40
0
 40
0
 40
0
 40
0
 40
1
 40
1
 40
1
 40
1
 10
19.558640
 20
11.215981
 30
0.0
 10
19.558640
 20
10.289948
 30
0.0
 10
18.807942
 20
9.539249
 30
0.0
 10
17.881910
 20
9.539249
 30
0.0
  0
SPLINE
  5
182
100
AcDbEntity
  8
Layer_1
 62
7
100
AcDbSpline
 70
8
 71
3
 72
8
 73
4
 74
0
 40
0
 40
0
 40
0
 40
0
 40
1
 40
1
 40
1
 40
1
 10
17.881910
 20
9.539249
 30
0.0
 10
16.955877
 20
9.539249
 30
0.0
 10
16.205179
 20
10.289948
 30
0.0
 10
16.205179
 20
11.215981
 30
0.0
  0
SPLINE
  5
183
100
AcDbEntity
  8
Layer_1
 62
7
100
AcDbSpline
 70
8
 71
3
 72
8
 73
4
 74
0
 40
0
 40
0
 40
0
 40
0
 40
1
 40
1
 40
1
 40
1
 10
16.205179
 20
11.215981
 30
0.0
 10
16.205179
 20
12.142014
 30
0.0
 10
16.955877
 20
12.892712
 30
0.0
 10
17.881910
 20
12.892712
 30
0.0
  0
SPLINE
  5
184
100
AcDbEntity
  8
Layer_1
 62
7
100
AcDbSpline
 70
8
 71
3
 72
8
 73
4
 74
0
 40
0
 40
0
 40
0
 40
0
 40
1
 40
1
 40
1
 40
1
 10
17.881910
 20
12.892712
 30
0.0
 10
18.807942
 20
12.892712
 30
0.0
 10
19.558640
 20
12.142014
 30
0.0
 10
19.558640
 20
11.215981
 30
0.0
  0
LINE
  5
185
100
AcDbEntity
  8
Layer_1
 62
7
100
AcDbLine
 10
19.558640
 20
11.215981
 30
0.0
 11
19.558640
 21
11.215981
 31
0.0
  0
SPLINE
  5
186
100
AcDbEntity
  8
Layer_1
 62
7
100
AcDbSpline
 70
8
 71
3
 72
8
 73
4
 74
0
 40
0
 40
0
 40
0
 40
0
 40
1
 40
1
 40
1
 40
1
 10
14.999957
 20
11.215981
 30
0.0
 10
14.999957
 20
10.771283
 30
0.0
 10
14.823301
 20
10.344800
 30
0.0
 10
14.508853
 20
10.030352
 30
0.0
  0
SPLINE
  5
187
100
AcDbEntity
  8
Layer_1
 62
7
100
AcDbSpline
 70
8
 71
3
 72
8
 73
4
 74
0
 40
0
 40
0
 40
0
 40
0
 40
1
 40
1
 40
1
 40
1
 10
14.508853
 20
10.030352
 30
0.0
 10
14.194404
 20
9.715903
 30
0.0
 10
13.767921
 20
9.539249
 30
0.0
 10
13.323223
 20
9.539249
 30
0.0
  0
SPLINE
  5
188
100
AcDbEntity
  8
Layer_1
 62
7
100
AcDbSpline
 70
8
 71
3
 72
8
 73
4
 74
0
 40
0
 40
0
 40
0
 40
0
 40
1
 40
1
 40
1
 40
1
 10
13.323223
 20
9.539249
 30
0.0
 10
12.397190
 20
9.539249
 30
0.0
 10
11.646493
 20
10.289948
 30
0.0
 10
11.646493
 20
11.215981
 30
0.0
  0
SPLINE
  5
189
100
AcDbEntity
  8
Layer_1
 62
7
100
AcDbSpline
 70
8
 71
3
 72
8
 73
4
 74
0
 40
0
 40
0
 40
0
 40
0
 40
1
 40
1
 40
1
 40
1
 10
11.646493
 20
11.215981
 30
0.0
 10
11.646493
 20
12.142014
 30
0.0
 10
12.397190
 20
12.892712
 30
0.0
 10
13.323223
 20
12.892712
 30
0.0
  0
SPLINE
  5
18a
100
AcDbEntity
  8
Layer_1
 62
7
100
AcDbSpline
 70
8
 71
3
 72
8
 73
4
 74
0
 40
0
 40
0
 40
0
 40
0
 40
1
 40
1
 40
1
 40
1
 10
13.323223
 20
12.892712
 30
0.0
 10
13.767921
 20
12.892713
 30
0.0
 10
14.194404
 20
12.716058
 30
0.0
 10
14.508853
 20
12.401610
 30
0.0
  0
SPLINE
  5
18b
100
AcDbEntity
  8
Layer_1
 62
7
100
AcDbSpline
 70
8
 71
3
 72
8
 73
4
 74
0
 40
0
 40
0
 40
0
 40
0
 40
1
 40
1
 40
1
 40
1
 10
14.508853
 20
12.401610
 30
0.0
 10
14.823301
 20
12.087161
 30
0.0
 10
14.999957
 20
11.660678
 30
0.0
 10
14.999957
 20
11.215981
 30
0.0
  0
LINE
  5
18c
100
AcDbEntity
  8
Layer_1
 62
7
100
AcDbLine
 10
14.999957
 20
11.215981
 30
0.0
 11
14.999957
 21
11.215981
 31
0.0
  0
SPLINE
  5
18d
100
AcDbEntity
  8
Layer_1
 62
7
100
AcDbSpline
 70
8
 71
3
 72
8
 73
4
 74
0
 40
0
 40
0
 40
0
 40
0
 40
1
 40
1
 40
1
 40
1
 10
10.441276
 20
11.215981
 30
0.0
 10
10.441276
 20
10.771283
 30
0.0
 10
10.264621
 20
10.344800
 30
0.0
 10
9.950172
 20
10.030352
 30
0.0
  0
SPLINE
  5
18e
100
AcDbEntity
  8
Layer_1
 62
7
100
AcDbSpline
 70
8
 71
3
 72
8
 73
4
 74
0
 40
0
 40
0
 40
0
 40
0
 40
1
 40
1
 40
1
 40
1
 10
9.950172
 20
10.030352
 30
0.0
 10
9.635723
 20
9.715903
 30
0.0
 10
9.209240
 20
9.539249
 30
0.0
 10
8.764543
 20
9.539249
 30
0.0
  0
SPLINE
  5
18f
100
AcDbEntity
  8
Layer_1
 62
7
100
AcDbSpline
 70
8
 71
3
 72
8
 73
4
 74
0
 40
0
 40
0
 40
0
 40
0
 40
1
 40
1
 40
1
 40
1
 10
8.764543
 20
9.539249
 30
0.0
 10
7.838510
 20
9.539249
 30
0.0
 10
7.087812
 20
10.289948
 30
0.0
 10
7.087812
 20
11.215981
 30
0.0
  0
SPLINE
  5
190
100
AcDbEntity
  8
Layer_1
 62
7
100
AcDbSpline
 70
8
 71
3
 72
8
 73
4
 74
0
 40
0
 40
0
 40
0
 40
0
 40
1
 40
1
 40
1
 40
1
 10
7.087812
 20
11.215981
 30
0.0
 10
7.087812
 20
12.142014
 30
0.0
 10
7.838510
 20
12.892712
 30
0.0
 10
8.764543
 20
12.892712
 30
0.0
  0
SPLINE
  5
191
100
AcDbEntity
  8
Layer_1
 62
7
100
AcDbSpline
 70
8
 71
3
 72
8
 73
4
 74
0
 40
0
 40
0
 40
0
 40
0
 40
1
 40
1
 40
1
 40
1
 10
8.764543
 20
12.892712
 30
0.0
 10
9.209240
 20
12.892713
 30
0.0
 10
9.635723
 20
12.716058
 30
0.0
 10
9.950172
 20
12.401610
 30
0.0
  0
SPLINE
  5
192
100
AcDbEntity
  8
Layer_1
 62
7
100
AcDbSpline
 70
8
 71
3
 72
8
 73
4
 74
0
 40
0
 40
0
 40
0
 40
0
 40
1
 40
1
 40
1
 40
1
 10
9.950172
 20
12.401610
 30
0.0
 10
10.264621
 20
12.087161
 30
0.0
 10
10.441276
 20
11.660678
 30
0.0
 10
10.441276
 20
11.215981
 30
0.0
  0
LINE
  5
193
100
AcDbEntity
  8
Layer_1
 62
7
100
AcDbLine
 10
10.441276
 20
11.215981
 30
0.0
 11
10.441276
 21
11.215981
 31
0.0
  0
SPLINE
  5
194
100
AcDbEntity
  8
Layer_1
 62
7
100
AcDbSpline
 70
8
 71
3
 72
8
 73
4
 74
0
 40
0
 40
0
 40
0
 40
0
 40
1
 40
1
 40
1
 40
1
 10
10.441276
 20
6.657650
 30
0.0
 10
10.441276
 20
6.212953
 30
0.0
 10
10.264620
 20
5.786469
 30
0.0
 10
9.950172
 20
5.472021
 30
0.0
  0
SPLINE
  5
195
100
AcDbEntity
  8
Layer_1
 62
7
100
AcDbSpline
 70
8
 71
3
 72
8
 73
4
 74
0
 40
0
 40
0
 40
0
 40
0
 40
1
 40
1
 40
1
 40
1
 10
9.950172
 20
5.472021
 30
0.0
 10
9.635723
 20
5.157573
 30
0.0
 10
9.209240
 20
4.980918
 30
0.0
 10
8.764543
 20
4.980918
 30
0.0
  0
SPLINE
  5
196
100
AcDbEntity
  8
Layer_1
 62
7
100
AcDbSpline
 70
8
 71
3
 72
8
 73
4
 74
0
 40
0
 40
0
 40
0
 40
0
 40
1
 40
1
 40
1
 40
1
 10
8.764543
 20
4.980918
 30
0.0
 10
7.838510
 20
4.980919
 30
0.0
 10
7.087812
 20
5.731617
 30
0.0
 10
7.087812
 20
6.657650
 30
0.0
  0
SPLINE
  5
197
100
AcDbEntity
  8
Layer_1
 62
7
100
AcDbSpline
 70
8
 71
3
 72
8
 73
4
 74
0
 40
0
 40
0
 40
0
 40
0
 40
1
 40
1
 40
1
 40
1
 10
7.087812
 20
6.657650
 30
0.0
 10
7.087812
 20
7.583683
 30
0.0
 10
7.838510
 20
8.334381
 30
0.0
 10
8.764543
 20
8.334381
 30
0.0
  0
SPLINE
  5
198
100
AcDbEntity
  8
Layer_1
 62
7
100
AcDbSpline
 70
8
 71
3
 72
8
 73
4
 74
0
 40
0
 40
0
 40
0
 40
0
 40
1
 40
1
 40
1
 40
1
 10
8.764543
 20
8.334381
 30
0.0
 10
9.209240
 20
8.334382
 30
0.0
 10
9.635723
 20
8.157727
 30
0.0
 10
9.950172
 20
7.843279
 30
0.0
  0
SPLINE
  5
199
100
AcDbEntity
  8
Layer_1
 62
7
100
AcDbSpline
 70
8
 71
3
 72
8
 73
4
 74
0
 40
0
 40
0
 40
0
 40
0
 40
1
 40
1
 40
1
 40
1
 10
9.950172
 20
7.843279
 30
0.0
 10
10.264621
 20
7.528831
 30
0.0
 10
10.441276
 20
7.102347
 30
0.0
 10
10.441276
 20
6.657650
 30
0.0
  0
LINE
  5
19a
100
AcDbEntity
  8
Layer_1
 62
7
100
AcDbLine
 10
10.441276
 20
6.657650
 30
0.0
 11
10.441276
 21
6.657650
 31
0.0
  0
SPLINE
  5
19b
100
AcDbEntity
  8
Layer_1
 62
7
100
AcDbSpline
 70
8
 71
3
 72
8
 73
4
 74
0
 40
0
 40
0
 40
0
 40
0
 40
1
 40
1
 40
1
 40
1
 10
14.999957
 20
6.657650
 30
0.0
 10
14.999957
 20
6.212953
 30
0.0
 10
14.823301
 20
5.786469
 30
0.0
 10
14.508853
 20
5.472021
 30
0.0
  0
SPLINE
  5
19c
100
AcDbEntity
  8
Layer_1
 62
7
100
AcDbSpline
 70
8
 71
3
 72
8
 73
4
 74
0
 40
0
 40
0
 40
0
 40
0
 40
1
 40
1
 40
1
 40
1
 10
14.508853
 20
5.472021
 30
0.0
 10
14.194404
 20
5.157573
 30
0.0
 10
13.767921
 20
4.980918
 30
0.0
 10
13.323223
 20
4.980918
 30
0.0
  0
SPLINE
  5
19d
100
AcDbEntity
  8
Layer_1
 62
7
100
AcDbSpline
 70
8
 71
3
 72
8
 73
4
 74
0
 40
0
 40
0
 40
0
 40
0
 40
1
 40
1
 40
1
 40
1
 10
13.323223
 20
4.980918
 30
0.0
 10
12.397190
 20
4.980919
 30
0.0
 10
11.646493
 20
5.731617
 30
0.0
 10
11.646493
 20
6.657650
 30
0.0
  0
SPLINE
  5
19e
100
AcDbEntity
  8
Layer_1
 62
7
100
AcDbSpline
 70
8
 71
3
 72
8
 73
4
 74
0
 40
0
 40
0
 40
0
 40
0
 40
1
 40
1
 40
1
 40
1
 10
11.646493
 20
6.657650
 30
0.0
 10
11.646493
 20
7.583683
 30
0.0
 10
12.397190
 20
8.334381
 30
0.0
 10
13.323223
 20
8.334381
 30
0.0
  0
SPLINE
  5
19f
100
AcDbEntity
  8
Layer_1
 62
7
100
AcDbSpline
 70
8
 71
3
 72
8
 73
4
 74
0
 40
0
 40
0
 40
0
 40
0
 40
1
 40
1
 40
1
 40
1
 10
13.323223
 20
8.334381
 30
0.0
 10
13.767921
 20
8.334382
 30
0.0
 10
14.194404
 20
8.157727
 30
0.0
 10
14.508853
 20
7.843279
 30
0.0
  0
SPLINE
  5
1a0
100
AcDbEntity
  8
Layer_1
 62
7
100
AcDbSpline
 70
8
 71
3
 72
8
 73
4
 74
0
 40
0
 40
0
 40
0
 40
0
 40
1
 40
1
 40
1
 40
1
 10
14.508853
 20
7.843279
 30
0.0
 10
14.823301
 20
7.528831
 30
0.0
 10
14.999957
 20
7.102347
 30
0.0
 10
14.999957
 20
6.657650
 30
0.0
  0
LINE
  5
1a1
100
AcDbEntity
  8
Layer_1
 62
7
100
AcDbLine
 10
14.999957
 20
6.657650
 30
0.0
 11
14.999957
 21
6.657650
 31
0.0
  0
SPLINE
  5
1a2
100
AcDbEntity
  8
Layer_1
 62
7
100
AcDbSpline
 70
8
 71
3
 72
8
 73
4
 74
0
 40
0
 40
0
 40
0
 40
0
 40
1
 40
1
 40
1
 40
1
 10
19.558640
 20
6.657650
 30
0.0
 10
19.558640
 20
5.731617
 30
0.0
 10
18.807942
 20
4.980919
 30
0.0
 10
17.881910
 20
4.980918
 30
0.0
  0
SPLINE
  5
1a3
100
AcDbEntity
  8
Layer_1
 62
7
100
AcDbSpline
 70
8
 71
3
 72
8
 73
4
 74
0
 40
0
 40
0
 40
0
 40
0
 40
1
 40
1
 40
1
 40
1
 10
17.881910
 20
4.980918
 30
0.0
 10
16.955877
 20
4.980919
 30
0.0
 10
16.205179
 20
5.731617
 30
0.0
 10
16.205179
 20
6.657650
 30
0.0
  0
SPLINE
  5
1a4
100
AcDbEntity
  8
Layer_1
 62
7
100
AcDbSpline
 70
8
 71
3
 72
8
 73
4
 74
0
 40
0
 40
0
 40
0
 40
0
 40
1
 40
1
 40
1
 40
1
 10
16.205179
 20
6.657650
 30
0.0
 10
16.205179
 20
7.583683
 30
0.0
 10
16.955877
 20
8.334381
 30
0.0
 10
17.881910
 20
8.334381
 30
0.0
  0
SPLINE
  5
1a5
100
AcDbEntity
  8
Layer_1
 62
7
100
AcDbSpline
 70
8
 71
3
 72
8
 73
4
 74
0
 40
0
 40
0
 40
0
 40
0
 40
1
 40
1
 40
1
 40
1
 10
17.881910
 20
8.334381
 30
0.0
 10
18.807943
 20
8.334381
 30
0.0
 10
19.558640
 20
7.583683
 30
0.0
 10
19.558640
 20
6.657650
 30
0.0
  0
LINE
  5
1a6
100
AcDbEntity
  8
Layer_1
 62
7
100
AcDbLine
 10
19.558640
 20
6.657650
 30
0.0
 11
19.558640
 21
6.657650
 31
0.0
  0
SPLINE
  5
1a7
100
AcDbEntity
  8
Layer_1
 62
7
100
AcDbSpline
 70
8
 71
3
 72
8
 73
4
 74
0
 40
0
 40
0
 40
0
 40
0
 40
1
 40
1
 40
1
 40
1
 10
24.117321
 20
6.657650
 30
0.0
 10
24.117321
 20
5.731617
 30
0.0
 10
23.366623
 20
4.980919
 30
0.0
 10
22.440590
 20
4.980918
 30
0.0
  0
SPLINE
  5
1a8
100
AcDbEntity
  8
Layer_1
 62
7
100
AcDbSpline
 70
8
 71
3
 72
8
 73
4
 74
0
 40
0
 40
0
 40
0
 40
0
 40
1
 40
1
 40
1
 40
1
 10
22.440590
 20
4.980918
 30
0.0
 10
21.514558
 20
4.980919
 30
0.0
 10
20.763860
 20
5.731617
 30
0.0
 10
20.763860
 20
6.657650
 30
0.0
  0
SPLINE
  5
1a9
100
AcDbEntity
  8
Layer_1
 62
7
100
AcDbSpline
 70
8
 71
3
 72
8
 73
4
 74
0
 40
0
 40
0
 40
0
 40
0
 40
1
 40
1
 40
1
 40
1
 10
20.763860
 20
6.657650
 30
0.0
 10
20.763860
 20
7.583683
 30
0.0
 10
21.514557
 20
8.334381
 30
0.0
 10
22.440590
 20
8.334381
 30
0.0
  0
SPLINE
  5
1aa
100
AcDbEntity
  8
Layer_1
 62
7
100
AcDbSpline
 70
8
 71
3
 72
8
 73
4
 74
0
 40
0
 40
0
 40
0
 40
0
 40
1
 40
1
 40
1
 40
1
 10
22.440590
 20
8.334381
 30
0.0
 10
23.366623
 20
8.334381
 30
0.0
 10
24.117321
 20
7.583683
 30
0.0
 10
24.117321
 20
6.657650
 30
0.0
  0
LINE
  5
1ab
100
AcDbEntity
  8
Layer_1
 62
7
100
AcDbLine
 10
24.117321
 20
6.657650
 30
0.0
 11
24.117321
 21
6.657650
 31
0.0
  0
SPLINE
  5
1ac
100
AcDbEntity
  8
Layer_1
 62
7
100
AcDbSpline
 70
8
 71
3
 72
8
 73
4
 74
0
 40
0
 40
0
 40
0
 40
0
 40
1
 40
1
 40
1
 40
1
 10
28.676007
 20
6.657650
 30
0.0
 10
28.676007
 20
6.212953
 30
0.0
 10
28.499352
 20
5.786469
 30
0.0
 10
28.184903
 20
5.472021
 30
0.0
  0
SPLINE
  5
1ad
100
AcDbEntity
  8
Layer_1
 62
7
100
AcDbSpline
 70
8
 71
3
 72
8
 73
4
 74
0
 40
0
 40
0
 40
0
 40
0
 40
1
 40
1
 40
1
 40
1
 10
28.184903
 20
5.472021
 30
0.0
 10
27.870455
 20
5.157573
 30
0.0
 10
27.443971
 20
4.980918
 30
0.0
 10
26.999274
 20
4.980918
 30
0.0
  0
SPLINE
  5
1ae
100
AcDbEntity
  8
Layer_1
 62
7
100
AcDbSpline
 70
8
 71
3
 72
8
 73
4
 74
0
 40
0
 40
0
 40
0
 40
0
 40
1
 40
1
 40
1
 40
1
 10
26.999274
 20
4.980918
 30
0.0
 10
26.073241
 20
4.980919
 30
0.0
 10
25.322543
 20
5.731617
 30
0.0
 10
25.322543
 20
6.657650
 30
0.0
  0
SPLINE
  5
1af
100
AcDbEntity
  8
Layer_1
 62
7
100
AcDbSpline
 70
8
 71
3
 72
8
 73
4
 74
0
 40
0
 40
0
 40
0
 40
0
 40
1
 40
1
 40
1
 40
1
 10
25.322543
 20
6.657650
 30
0.0
 10
25.322543
 20
7.583683
 30
0.0
 10
26.073241
 20
8.334381
 30
0.0
 10
26.999274
 20
8.334381
 30
0.0
  0
SPLINE
  5
1b0
100
AcDbEntity
  8
Layer_1
 62
7
100
AcDbSpline
 70
8
 71
3
 72
8
 73
4
 74
0
 40
0
 40
0
 40
0
 40
0
 40
1
 40
1
 40
1
 40
1
 10
26.999274
 20
8.334381
 30
0.0
 10
27.443971
 20
8.334382
 30
0.0
 10
27.870455
 20
8.157727
 30
0.0
 10
28.184903
 20
7.843279
 30
0.0
  0
SPLINE
  5
1b1
100
AcDbEntity
  8
Layer_1
 62
7
100
AcDbSpline
 70
8
 71
3
 72
8
 73
4
 74
0
 40
0
 40
0
 40
0
 40
0
 40
1
 40
1
 40
1
 40
1
 10
28.184903
 20
7.843279
 30
0.0
 10
28.499352
 20
7.528831
 30
0.0
 10
28.676007
 20
7.102347
 30
0.0
 10
28.676007
 20
6.657650
 30
0.0
  0
LINE
  5
1b2
100
AcDbEntity
  8
Layer_1
 62
7
100
AcDbLine
 10
28.676007
 20
6.657650
 30
0.0
 11
28.676007
 21
6.657650
 31
0.0
  0
SPLINE
  5
1b3
100
AcDbEntity
  8
Layer_1
 62
7
100
AcDbSpline
 70
8
 71
3
 72
8
 73
4
 74
0
 40
0
 40
0
 40
0
 40
0
 40
1
 40
1
 40
1
 40
1
 10
33.234688
 20
6.657650
 30
0.0
 10
33.234688
 20
5.731617
 30
0.0
 10
32.483990
 20
4.980919
 30
0.0
 10
31.557957
 20
4.980918
 30
0.0
  0
SPLINE
  5
1b4
100
AcDbEntity
  8
Layer_1
 62
7
100
AcDbSpline
 70
8
 71
3
 72
8
 73
4
 74
0
 40
0
 40
0
 40
0
 40
0
 40
1
 40
1
 40
1
 40
1
 10
31.557957
 20
4.980918
 30
0.0
 10
30.631925
 20
4.980919
 30
0.0
 10
29.881227
 20
5.731617
 30
0.0
 10
29.881227
 20
6.657650
 30
0.0
  0
SPLINE
  5
1b5
100
AcDbEntity
  8
Layer_1
 62
7
100
AcDbSpline
 70
8
 71
3
 72
8
 73
4
 74
0
 40
0
 40
0
 40
0
 40
0
 40
1
 40
1
 40
1
 40
1
 10
29.881227
 20
6.657650
 30
0.0
 10
29.881227
 20
7.583683
 30
0.0
 10
30.631925
 20
8.334381
 30
0.0
 10
31.557957
 20
8.334381
 30
0.0
  0
SPLINE
  5
1b6
100
AcDbEntity
  8
Layer_1
 62
7
100
AcDbSpline
 70
8
 71
3
 72
8
 73
4
 74
0
 40
0
 40
0
 40
0
 40
0
 40
1
 40
1
 40
1
 40
1
 10
31.557957
 20
8.334381
 30
0.0
 10
32.483990
 20
8.334381
 30
0.0
 10
33.234688
 20
7.583683
 30
0.0
 10
33.234688
 20
6.657650
 30
0.0
  0
LINE
  5
1b7
100
AcDbEntity
  8
Layer_1
 62
7
100
AcDbLine
 10
33.234688
 20
6.657650
 30
0.0
 11
33.234688
 21
6.657650
 31
0.0
  0
SPLINE
  5
1b8
100
AcDbEntity
  8
Layer_1
 62
3
100
AcDbSpline
 70
8
 71
3
 72
8
 73
4
 74
0
 40
0
 40
0
 40
0
 40
0
 40
1
 40
1
 40
1
 40
1
 10
9.172882
 20
27.497704
 30
0.0
 10
9.189903
 20
27.497704
 30
0.0
 10
9.203880
 20
27.503477
 30
0.0
 10
9.214813
 20
27.515024
 30
0.0
  0
SPLINE
  5
1b9
100
AcDbEntity
  8
Layer_1
 62
3
100
AcDbSpline
 70
8
 71
3
 72
8
 73
4
 74
0
 40
0
 40
0
 40
0
 40
0
 40
1
 40
1
 40
1
 40
1
 10
9.214813
 20
27.515024
 30
0.0
 10
9.225749
 20
27.526570
 30
0.0
 10
9.231217
 20
27.540243
 30
0.0
 10
9.231217
 20
27.556042
 30
0.0
  0
LINE
  5
1ba
100
AcDbEntity
  8
Layer_1
 62
3
100
AcDbLine
 10
9.231217
 20
27.556042
 30
0.0
 11
9.231217
 21
27.906064
 31
0.0
  0
SPLINE
  5
1bb
100
AcDbEntity
  8
Layer_1
 62
3
100
AcDbSpline
 70
8
 71
3
 72
8
 73
4
 74
0
 40
0
 40
0
 40
0
 40
0
 40
1
 40
1
 40
1
 40
1
 10
9.231217
 20
27.906064
 30
0.0
 10
9.231217
 20
27.921863
 30
0.0
 10
9.225441
 20
27.935536
 30
0.0
 10
9.213887
 20
27.947082
 30
0.0
  0
SPLINE
  5
1bc
100
AcDbEntity
  8
Layer_1
 62
3
100
AcDbSpline
 70
8
 71
3
 72
8
 73
4
 74
0
 40
0
 40
0
 40
0
 40
0
 40
1
 40
1
 40
1
 40
1
 10
9.213887
 20
27.947082
 30
0.0
 10
9.202334
 20
27.958628
 30
0.0
 10
9.188661
 20
27.964401
 30
0.0
 10
9.172869
 20
27.964401
 30
0.0
  0
LINE
  5
1bd
100
AcDbEntity
  8
Layer_1
 62
3
100
AcDbLine
 10
9.172869
 20
27.964401
 30
0.0
 11
8.356153
 21
27.964401
 31
0.0
  0
SPLINE
  5
1be
100
AcDbEntity
  8
Layer_1
 62
3
100
AcDbSpline
 70
8
 71
3
 72
8
 73
4
 74
0
 40
0
 40
0
 40
0
 40
0
 40
1
 40
1
 40
1
 40
1
 10
8.356153
 20
27.964401
 30
0.0
 10
8.340348
 20
27.964401
 30
0.0
 10
8.326676
 20
27.958933
 30
0.0
 10
8.315134
 20
27.947995
 30
0.0
  0
SPLINE
  5
1bf
100
AcDbEntity
  8
Layer_1
 62
3
100
AcDbSpline
 70
8
 71
3
 72
8
 73
4
 74
0
 40
0
 40
0
 40
0
 40
0
 40
1
 40
1
 40
1
 40
1
 10
8.315134
 20
27.947995
 30
0.0
 10
8.303581
 20
27.937057
 30
0.0
 10
8.297804
 20
27.923080
 30
0.0
 10
8.297804
 20
27.906065
 30
0.0
  0
LINE
  5
1c0
100
AcDbEntity
  8
Layer_1
 62
3
100
AcDbLine
 10
8.297804
 20
27.906065
 30
0.0
 11
8.297804
 21
27.556043
 31
0.0
  0
SPLINE
  5
1c1
100
AcDbEntity
  8
Layer_1
 62
3
100
AcDbSpline
 70
8
 71
3
 72
8
 73
4
 74
0
 40
0
 40
0
 40
0
 40
0
 40
1
 40
1
 40
1
 40
1
 10
8.297804
 20
27.556043
 30
0.0
 10
8.297804
 20
27.539029
 30
0.0
 10
8.303272
 20
27.525052
 30
0.0
 10
8.314208
 20
27.514114
 30
0.0
  0
SPLINE
  5
1c2
100
AcDbEntity
  8
Layer_1
 62
3
100
AcDbSpline
 70
8
 71
3
 72
8
 73
4
 74
0
 40
0
 40
0
 40
0
 40
0
 40
1
 40
1
 40
1
 40
1
 10
8.314208
 20
27.514114
 30
0.0
 10
8.325145
 20
27.503176
 30
0.0
 10
8.339122
 20
27.497707
 30
0.0
 10
8.356140
 20
27.497707
 30
0.0
  0
LINE
  5
1c3
100
AcDbEntity
  8
Layer_1
 62
3
100
AcDbLine
 10
8.356140
 20
27.497707
 30
0.0
 11
9.172882
 21
27.497704
 31
0.0
  0
SPLINE
  5
1c4
100
AcDbEntity
  8
Layer_1
 62
3
100
AcDbSpline
 70
8
 71
3
 72
8
 73
4
 74
0
 40
0
 40
0
 40
0
 40
0
 40
1
 40
1
 40
1
 40
1
 10
9.172882
 20
28.197748
 30
0.0
 10
9.189903
 20
28.197748
 30
0.0
 10
9.203880
 20
28.203521
 30
0.0
 10
9.214813
 20
28.215067
 30
0.0
  0
SPLINE
  5
1c5
100
AcDbEntity
  8
Layer_1
 62
3
100
AcDbSpline
 70
8
 71
3
 72
8
 73
4
 74
0
 40
0
 40
0
 40
0
 40
0
 40
1
 40
1
 40
1
 40
1
 10
9.214813
 20
28.215067
 30
0.0
 10
9.225749
 20
28.226614
 30
0.0
 10
9.231217
 20
28.240286
 30
0.0
 10
9.231217
 20
28.256085
 30
0.0
  0
LINE
  5
1c6
100
AcDbEntity
  8
Layer_1
 62
3
100
AcDbLine
 10
9.231217
 20
28.256085
 30
0.0
 11
9.231217
 21
28.606107
 31
0.0
  0
SPLINE
  5
1c7
100
AcDbEntity
  8
Layer_1
 62
3
100
AcDbSpline
 70
8
 71
3
 72
8
 73
4
 74
0
 40
0
 40
0
 40
0
 40
0
 40
1
 40
1
 40
1
 40
1
 10
9.231217
 20
28.606107
 30
0.0
 10
9.231217
 20
28.621906
 30
0.0
 10
9.225441
 20
28.635579
 30
0.0
 10
9.213887
 20
28.647125
 30
0.0
  0
SPLINE
  5
1c8
100
AcDbEntity
  8
Layer_1
 62
3
100
AcDbSpline
 70
8
 71
3
 72
8
 73
4
 74
0
 40
0
 40
0
 40
0
 40
0
 40
1
 40
1
 40
1
 40
1
 10
9.213887
 20
28.647125
 30
0.0
 10
9.202334
 20
28.658672
 30
0.0
 10
9.188661
 20
28.664445
 30
0.0
 10
9.172869
 20
28.664445
 30
0.0
  0
LINE
  5
1c9
100
AcDbEntity
  8
Layer_1
 62
3
100
AcDbLine
 10
9.172869
 20
28.664445
 30
0.0
 11
8.356153
 21
28.664445
 31
0.0
  0
SPLINE
  5
1ca
100
AcDbEntity
  8
Layer_1
 62
3
100
AcDbSpline
 70
8
 71
3
 72
8
 73
4
 74
0
 40
0
 40
0
 40
0
 40
0
 40
1
 40
1
 40
1
 40
1
 10
8.356153
 20
28.664445
 30
0.0
 10
8.340348
 20
28.664445
 30
0.0
 10
8.326676
 20
28.658976
 30
0.0
 10
8.315134
 20
28.648038
 30
0.0
  0
SPLINE
  5
1cb
100
AcDbEntity
  8
Layer_1
 62
3
100
AcDbSpline
 70
8
 71
3
 72
8
 73
4
 74
0
 40
0
 40
0
 40
0
 40
0
 40
1
 40
1
 40
1
 40
1
 10
8.315134
 20
28.648038
 30
0.0
 10
8.303581
 20
28.637100
 30
0.0
 10
8.297804
 20
28.623124
 30
0.0
 10
8.297804
 20
28.606108
 30
0.0
  0
LINE
  5
1cc
100
AcDbEntity
  8
Layer_1
 62
3
100
AcDbLine
 10
8.297804
 20
28.606108
 30
0.0
 11
8.297804
 21
28.256087
 31
0.0
  0
SPLINE
  5
1cd
100
AcDbEntity
  8
Layer_1
 62
3
100
AcDbSpline
 70
8
 71
3
 72
8
 73
4
 74
0
 40
0
 40
0
 40
0
 40
0
 40
1
 40
1
 40
1
 40
1
 10
8.297804
 20
28.256087
 30
0.0
 10
8.297804
 20
28.239072
 30
0.0
 10
8.303272
 20
28.225096
 30
0.0
 10
8.314208
 20
28.214157
 30
0.0
  0
SPLINE
  5
1ce
100
AcDbEntity
  8
Layer_1
 62
3
100
AcDbSpline
 70
8
 71
3
 72
8
 73
4
 74
0
 40
0
 40
0
 40
0
 40
0
 40
1
 40
1
 40
1
 40
1
 10
8.314208
 20
28.214157
 30
0.0
 10
8.325145
 20
28.203219
 30
0.0
 10
8.339122
 20
28.197750
 30
0.0
 10
8.356140
 20
28.197750
 30
0.0
  0
LINE
  5
1cf
100
AcDbEntity
  8
Layer_1
 62
3
100
AcDbLine
 10
8.356140
 20
28.197750
 30
0.0
 11
9.172882
 21
28.197748
 31
0.0
  0
SPLINE
  5
1d0
100
AcDbEntity
  8
Layer_1
 62
3
100
AcDbSpline
 70
8
 71
3
 72
8
 73
4
 74
0
 40
0
 40
0
 40
0
 40
0
 40
1
 40
1
 40
1
 40
1
 10
8.181155
 20
27.264357
 30
0.0
 10
8.164751
 20
27.264357
 30
0.0
 10
8.149255
 20
27.267395
 30
0.0
 10
8.134667
 20
27.273471
 30
0.0
  0
SPLINE
  5
1d1
100
AcDbEntity
  8
Layer_1
 62
3
100
AcDbSpline
 70
8
 71
3
 72
8
 73
4
 74
0
 40
0
 40
0
 40
0
 40
0
 40
1
 40
1
 40
1
 40
1
 10
8.134667
 20
27.273471
 30
0.0
 10
8.120698
 20
27.279548
 30
0.0
 10
8.108543
 20
27.287752
 30
0.0
 10
8.098205
 20
27.298083
 30
0.0
  0
SPLINE
  5
1d2
100
AcDbEntity
  8
Layer_1
 62
3
100
AcDbSpline
 70
8
 71
3
 72
8
 73
4
 74
0
 40
0
 40
0
 40
0
 40
0
 40
1
 40
1
 40
1
 40
1
 10
8.098205
 20
27.298083
 30
0.0
 10
8.087869
 20
27.308414
 30
0.0
 10
8.079667
 20
27.320568
 30
0.0
 10
8.073599
 20
27.334544
 30
0.0
  0
SPLINE
  5
1d3
100
AcDbEntity
  8
Layer_1
 62
3
100
AcDbSpline
 70
8
 71
3
 72
8
 73
4
 74
0
 40
0
 40
0
 40
0
 40
0
 40
1
 40
1
 40
1
 40
1
 10
8.073599
 20
27.334544
 30
0.0
 10
8.067531
 20
27.349127
 30
0.0
 10
8.064497
 20
27.364623
 30
0.0
 10
8.064497
 20
27.381031
 30
0.0
  0
LINE
  5
1d4
100
AcDbEntity
  8
Layer_1
 62
3
100
AcDbLine
 10
8.064497
 20
27.381031
 30
0.0
 11
8.064497
 21
28.781118
 31
0.0
  0
SPLINE
  5
1d5
100
AcDbEntity
  8
Layer_1
 62
3
100
AcDbSpline
 70
8
 71
3
 72
8
 73
4
 74
0
 40
0
 40
0
 40
0
 40
0
 40
1
 40
1
 40
1
 40
1
 10
8.064497
 20
28.781118
 30
0.0
 10
8.064497
 20
28.796917
 30
0.0
 10
8.067531
 20
28.811805
 30
0.0
 10
8.073599
 20
28.825782
 30
0.0
  0
SPLINE
  5
1d6
100
AcDbEntity
  8
Layer_1
 62
3
100
AcDbSpline
 70
8
 71
3
 72
8
 73
4
 74
0
 40
0
 40
0
 40
0
 40
0
 40
1
 40
1
 40
1
 40
1
 10
8.073599
 20
28.825782
 30
0.0
 10
8.080284
 20
28.839759
 30
0.0
 10
8.088795
 20
28.851912
 30
0.0
 10
8.099131
 20
28.862243
 30
0.0
  0
SPLINE
  5
1d7
100
AcDbEntity
  8
Layer_1
 62
3
100
AcDbSpline
 70
8
 71
3
 72
8
 73
4
 74
0
 40
0
 40
0
 40
0
 40
0
 40
1
 40
1
 40
1
 40
1
 10
8.099131
 20
28.862243
 30
0.0
 10
8.110067
 20
28.873180
 30
0.0
 10
8.122525
 20
28.881688
 30
0.0
 10
8.136504
 20
28.887764
 30
0.0
  0
SPLINE
  5
1d8
100
AcDbEntity
  8
Layer_1
 62
3
100
AcDbSpline
 70
8
 71
3
 72
8
 73
4
 74
0
 40
0
 40
0
 40
0
 40
0
 40
1
 40
1
 40
1
 40
1
 10
8.136504
 20
28.887764
 30
0.0
 10
8.150474
 20
28.894449
 30
0.0
 10
8.165362
 20
28.897792
 30
0.0
 10
8.181168
 20
28.897792
 30
0.0
  0
LINE
  5
1d9
100
AcDbEntity
  8
Layer_1
 62
3
100
AcDbLine
 10
8.181168
 20
28.897792
 30
0.0
 11
9.347906
 21
28.897792
 31
0.0
  0
SPLINE
  5
1da
100
AcDbEntity
  8
Layer_1
 62
3
100
AcDbSpline
 70
8
 71
3
 72
8
 73
4
 74
0
 40
0
 40
0
 40
0
 40
0
 40
1
 40
1
 40
1
 40
1
 10
9.347906
 20
28.897792
 30
0.0
 10
9.363711
 20
28.897792
 30
0.0
 10
9.378599
 20
28.894449
 30
0.0
 10
9.392571
 20
28.887764
 30
0.0
  0
SPLINE
  5
1db
100
AcDbEntity
  8
Layer_1
 62
3
100
AcDbSpline
 70
8
 71
3
 72
8
 73
4
 74
0
 40
0
 40
0
 40
0
 40
0
 40
1
 40
1
 40
1
 40
1
 10
9.392571
 20
28.887764
 30
0.0
 10
9.406541
 20
28.881688
 30
0.0
 10
9.418694
 20
28.873180
 30
0.0
 10
9.429030
 20
28.862243
 30
0.0
  0
SPLINE
  5
1dc
100
AcDbEntity
  8
Layer_1
 62
3
100
AcDbSpline
 70
8
 71
3
 72
8
 73
4
 74
0
 40
0
 40
0
 40
0
 40
0
 40
1
 40
1
 40
1
 40
1
 10
9.429030
 20
28.862243
 30
0.0
 10
9.439966
 20
28.851911
 30
0.0
 10
9.448477
 20
28.839758
 30
0.0
 10
9.454563
 20
28.825782
 30
0.0
  0
SPLINE
  5
1dd
100
AcDbEntity
  8
Layer_1
 62
3
100
AcDbSpline
 70
8
 71
3
 72
8
 73
4
 74
0
 40
0
 40
0
 40
0
 40
0
 40
1
 40
1
 40
1
 40
1
 10
9.454563
 20
28.825782
 30
0.0
 10
9.461248
 20
28.811805
 30
0.0
 10
9.464590
 20
28.796917
 30
0.0
 10
9.464590
 20
28.781118
 30
0.0
  0
LINE
  5
1de
100
AcDbEntity
  8
Layer_1
 62
3
100
AcDbLine
 10
9.464590
 20
28.781118
 30
0.0
 11
9.464590
 21
27.381031
 31
0.0
  0
SPLINE
  5
1df
100
AcDbEntity
  8
Layer_1
 62
3
100
AcDbSpline
 70
8
 71
3
 72
8
 73
4
 74
0
 40
0
 40
0
 40
0
 40
0
 40
1
 40
1
 40
1
 40
1
 10
9.464590
 20
27.381031
 30
0.0
 10
9.464590
 20
27.365232
 30
0.0
 10
9.461248
 20
27.350344
 30
0.0
 10
9.454563
 20
27.336367
 30
0.0
  0
SPLINE
  5
1e0
100
AcDbEntity
  8
Layer_1
 62
3
100
AcDbSpline
 70
8
 71
3
 72
8
 73
4
 74
0
 40
0
 40
0
 40
0
 40
0
 40
1
 40
1
 40
1
 40
1
 10
9.454563
 20
27.336367
 30
0.0
 10
9.448477
 20
27.322390
 30
0.0
 10
9.439966
 20
27.309932
 30
0.0
 10
9.429030
 20
27.298994
 30
0.0
  0
SPLINE
  5
1e1
100
AcDbEntity
  8
Layer_1
 62
3
100
AcDbSpline
 70
8
 71
3
 72
8
 73
4
 74
0
 40
0
 40
0
 40
0
 40
0
 40
1
 40
1
 40
1
 40
1
 10
9.429030
 20
27.298994
 30
0.0
 10
9.418694
 20
27.288663
 30
0.0
 10
9.406541
 20
27.280156
 30
0.0
 10
9.392571
 20
27.273473
 30
0.0
  0
SPLINE
  5
1e2
100
AcDbEntity
  8
Layer_1
 62
3
100
AcDbSpline
 70
8
 71
3
 72
8
 73
4
 74
0
 40
0
 40
0
 40
0
 40
0
 40
1
 40
1
 40
1
 40
1
 10
9.392571
 20
27.273473
 30
0.0
 10
9.378601
 20
27.267396
 30
0.0
 10
9.363713
 20
27.264358
 30
0.0
 10
9.347906
 20
27.264358
 30
0.0
  0
LINE
  5
1e3
100
AcDbEntity
  8
Layer_1
 62
3
100
AcDbLine
 10
9.347906
 20
27.264358
 30
0.0
 11
8.181155
 21
27.264357
 31
0.0
  0
SPLINE
  5
1e4
100
AcDbEntity
  8
Layer_1
 62
3
100
AcDbSpline
 70
8
 71
3
 72
8
 73
4
 74
0
 40
0
 40
0
 40
0
 40
0
 40
1
 40
1
 40
1
 40
1
 10
12.681511
 20
27.264357
 30
0.0
 10
12.664489
 20
27.264357
 30
0.0
 10
12.650513
 20
27.269825
 30
0.0
 10
12.639582
 20
27.280763
 30
0.0
  0
SPLINE
  5
1e5
100
AcDbEntity
  8
Layer_1
 62
3
100
AcDbSpline
 70
8
 71
3
 72
8
 73
4
 74
0
 40
0
 40
0
 40
0
 40
0
 40
1
 40
1
 40
1
 40
1
 10
12.639582
 20
27.280763
 30
0.0
 10
12.628646
 20
27.291701
 30
0.0
 10
12.623178
 20
27.305678
 30
0.0
 10
12.623178
 20
27.322693
 30
0.0
  0
LINE
  5
1e6
100
AcDbEntity
  8
Layer_1
 62
3
100
AcDbLine
 10
12.623178
 20
27.322693
 30
0.0
 11
12.623178
 21
28.781117
 31
0.0
  0
SPLINE
  5
1e7
100
AcDbEntity
  8
Layer_1
 62
3
100
AcDbSpline
 70
8
 71
3
 72
8
 73
4
 74
0
 40
0
 40
0
 40
0
 40
0
 40
1
 40
1
 40
1
 40
1
 10
12.623178
 20
28.781117
 30
0.0
 10
12.623178
 20
28.796916
 30
0.0
 10
12.626212
 20
28.811804
 30
0.0
 10
12.632280
 20
28.825781
 30
0.0
  0
SPLINE
  5
1e8
100
AcDbEntity
  8
Layer_1
 62
3
100
AcDbSpline
 70
8
 71
3
 72
8
 73
4
 74
0
 40
0
 40
0
 40
0
 40
0
 40
1
 40
1
 40
1
 40
1
 10
12.632280
 20
28.825781
 30
0.0
 10
12.638965
 20
28.839758
 30
0.0
 10
12.647476
 20
28.851912
 30
0.0
 10
12.657812
 20
28.862242
 30
0.0
  0
SPLINE
  5
1e9
100
AcDbEntity
  8
Layer_1
 62
3
100
AcDbSpline
 70
8
 71
3
 72
8
 73
4
 74
0
 40
0
 40
0
 40
0
 40
0
 40
1
 40
1
 40
1
 40
1
 10
12.657812
 20
28.862242
 30
0.0
 10
12.668748
 20
28.873180
 30
0.0
 10
12.681206
 20
28.881687
 30
0.0
 10
12.695185
 20
28.887763
 30
0.0
  0
SPLINE
  5
1ea
100
AcDbEntity
  8
Layer_1
 62
3
100
AcDbSpline
 70
8
 71
3
 72
8
 73
4
 74
0
 40
0
 40
0
 40
0
 40
0
 40
1
 40
1
 40
1
 40
1
 10
12.695185
 20
28.887763
 30
0.0
 10
12.709155
 20
28.894449
 30
0.0
 10
12.724043
 20
28.897791
 30
0.0
 10
12.739849
 20
28.897791
 30
0.0
  0
LINE
  5
1eb
100
AcDbEntity
  8
Layer_1
 62
3
100
AcDbLine
 10
12.739849
 20
28.897791
 30
0.0
 11
13.906587
 21
28.897791
 31
0.0
  0
SPLINE
  5
1ec
100
AcDbEntity
  8
Layer_1
 62
3
100
AcDbSpline
 70
8
 71
3
 72
8
 73
4
 74
0
 40
0
 40
0
 40
0
 40
0
 40
1
 40
1
 40
1
 40
1
 10
13.906587
 20
28.897791
 30
0.0
 10
13.922392
 20
28.897791
 30
0.0
 10
13.937280
 20
28.894449
 30
0.0
 10
13.951252
 20
28.887763
 30
0.0
  0
SPLINE
  5
1ed
100
AcDbEntity
  8
Layer_1
 62
3
100
AcDbSpline
 70
8
 71
3
 72
8
 73
4
 74
0
 40
0
 40
0
 40
0
 40
0
 40
1
 40
1
 40
1
 40
1
 10
13.951252
 20
28.887763
 30
0.0
 10
13.965222
 20
28.881687
 30
0.0
 10
13.977376
 20
28.873180
 30
0.0
 10
13.987714
 20
28.862242
 30
0.0
  0
SPLINE
  5
1ee
100
AcDbEntity
  8
Layer_1
 62
3
100
AcDbSpline
 70
8
 71
3
 72
8
 73
4
 74
0
 40
0
 40
0
 40
0
 40
0
 40
1
 40
1
 40
1
 40
1
 10
13.987714
 20
28.862242
 30
0.0
 10
13.998650
 20
28.851911
 30
0.0
 10
14.007161
 20
28.839757
 30
0.0
 10
14.013246
 20
28.825781
 30
0.0
  0
SPLINE
  5
1ef
100
AcDbEntity
  8
Layer_1
 62
3
100
AcDbSpline
 70
8
 71
3
 72
8
 73
4
 74
0
 40
0
 40
0
 40
0
 40
0
 40
1
 40
1
 40
1
 40
1
 10
14.013246
 20
28.825781
 30
0.0
 10
14.019931
 20
28.811804
 30
0.0
 10
14.023274
 20
28.796916
 30
0.0
 10
14.023274
 20
28.781117
 30
0.0
  0
LINE
  5
1f0
100
AcDbEntity
  8
Layer_1
 62
3
100
AcDbLine
 10
14.023274
 20
28.781117
 30
0.0
 11
14.023274
 21
28.022737
 31
0.0
  0
SPLINE
  5
1f1
100
AcDbEntity
  8
Layer_1
 62
3
100
AcDbSpline
 70
8
 71
3
 72
8
 73
4
 74
0
 40
0
 40
0
 40
0
 40
0
 40
1
 40
1
 40
1
 40
1
 10
14.023274
 20
28.022737
 30
0.0
 10
14.023274
 20
28.006937
 30
0.0
 10
14.017806
 20
27.993265
 30
0.0
 10
14.006870
 20
27.981718
 30
0.0
  0
SPLINE
  5
1f2
100
AcDbEntity
  8
Layer_1
 62
3
100
AcDbSpline
 70
8
 71
3
 72
8
 73
4
 74
0
 40
0
 40
0
 40
0
 40
0
 40
1
 40
1
 40
1
 40
1
 10
14.006870
 20
27.981718
 30
0.0
 10
13.995934
 20
27.970172
 30
0.0
 10
13.981957
 20
27.964399
 30
0.0
 10
13.964941
 20
27.964399
 30
0.0
  0
LINE
  5
1f3
100
AcDbEntity
  8
Layer_1
 62
3
100
AcDbLine
 10
13.964941
 20
27.964399
 30
0.0
 11
13.848268
 21
27.964399
 31
0.0
  0
SPLINE
  5
1f4
100
AcDbEntity
  8
Layer_1
 62
3
100
AcDbSpline
 70
8
 71
3
 72
8
 73
4
 74
0
 40
0
 40
0
 40
0
 40
0
 40
1
 40
1
 40
1
 40
1
 10
13.848268
 20
27.964399
 30
0.0
 10
13.831246
 20
27.964399
 30
0.0
 10
13.817269
 20
27.969868
 30
0.0
 10
13.806337
 20
27.980806
 30
0.0
  0
SPLINE
  5
1f5
100
AcDbEntity
  8
Layer_1
 62
3
100
AcDbSpline
 70
8
 71
3
 72
8
 73
4
 74
0
 40
0
 40
0
 40
0
 40
0
 40
1
 40
1
 40
1
 40
1
 10
13.806337
 20
27.980806
 30
0.0
 10
13.795401
 20
27.991744
 30
0.0
 10
13.789933
 20
28.005720
 30
0.0
 10
13.789933
 20
28.022735
 30
0.0
  0
LINE
  5
1f6
100
AcDbEntity
  8
Layer_1
 62
3
100
AcDbLine
 10
13.789933
 20
28.022735
 30
0.0
 11
13.789933
 21
28.606105
 31
0.0
  0
SPLINE
  5
1f7
100
AcDbEntity
  8
Layer_1
 62
3
100
AcDbSpline
 70
8
 71
3
 72
8
 73
4
 74
0
 40
0
 40
0
 40
0
 40
0
 40
1
 40
1
 40
1
 40
1
 10
13.789933
 20
28.606105
 30
0.0
 10
13.789933
 20
28.621904
 30
0.0
 10
13.784156
 20
28.635577
 30
0.0
 10
13.772602
 20
28.647123
 30
0.0
  0
SPLINE
  5
1f8
100
AcDbEntity
  8
Layer_1
 62
3
100
AcDbSpline
 70
8
 71
3
 72
8
 73
4
 74
0
 40
0
 40
0
 40
0
 40
0
 40
1
 40
1
 40
1
 40
1
 10
13.772602
 20
28.647123
 30
0.0
 10
13.761066
 20
28.658669
 30
0.0
 10
13.747394
 20
28.664442
 30
0.0
 10
13.731584
 20
28.664442
 30
0.0
  0
LINE
  5
1f9
100
AcDbEntity
  8
Layer_1
 62
3
100
AcDbLine
 10
13.731584
 20
28.664442
 30
0.0
 11
12.914868
 21
28.664442
 31
0.0
  0
SPLINE
  5
1fa
100
AcDbEntity
  8
Layer_1
 62
3
100
AcDbSpline
 70
8
 71
3
 72
8
 73
4
 74
0
 40
0
 40
0
 40
0
 40
0
 40
1
 40
1
 40
1
 40
1
 10
12.914868
 20
28.664442
 30
0.0
 10
12.899064
 20
28.664442
 30
0.0
 10
12.885391
 20
28.658973
 30
0.0
 10
12.873850
 20
28.648036
 30
0.0
  0
SPLINE
  5
1fb
100
AcDbEntity
  8
Layer_1
 62
3
100
AcDbSpline
 70
8
 71
3
 72
8
 73
4
 74
0
 40
0
 40
0
 40
0
 40
0
 40
1
 40
1
 40
1
 40
1
 10
12.873850
 20
28.648036
 30
0.0
 10
12.862296
 20
28.637098
 30
0.0
 10
12.856520
 20
28.623121
 30
0.0
 10
12.856520
 20
28.606106
 30
0.0
  0
LINE
  5
1fc
100
AcDbEntity
  8
Layer_1
 62
3
100
AcDbLine
 10
12.856520
 20
28.606106
 30
0.0
 11
12.856520
 21
27.322693
 31
0.0
  0
SPLINE
  5
1fd
100
AcDbEntity
  8
Layer_1
 62
3
100
AcDbSpline
 70
8
 71
3
 72
8
 73
4
 74
0
 40
0
 40
0
 40
0
 40
0
 40
1
 40
1
 40
1
 40
1
 10
12.856520
 20
27.322693
 30
0.0
 10
12.856520
 20
27.306894
 30
0.0
 10
12.851052
 20
27.293221
 30
0.0
 10
12.840115
 20
27.281675
 30
0.0
  0
SPLINE
  5
1fe
100
AcDbEntity
  8
Layer_1
 62
3
100
AcDbSpline
 70
8
 71
3
 72
8
 73
4
 74
0
 40
0
 40
0
 40
0
 40
0
 40
1
 40
1
 40
1
 40
1
 10
12.840115
 20
27.281675
 30
0.0
 10
12.829179
 20
27.270129
 30
0.0
 10
12.815203
 20
27.264356
 30
0.0
 10
12.798187
 20
27.264356
 30
0.0
  0
LINE
  5
1ff
100
AcDbEntity
  8
Layer_1
 62
3
100
AcDbLine
 10
12.798187
 20
27.264356
 30
0.0
 11
12.681511
 21
27.264357
 31
0.0
  0
SPLINE
  5
200
100
AcDbEntity
  8
Layer_1
 62
3
100
AcDbSpline
 70
8
 71
3
 72
8
 73
4
 74
0
 40
0
 40
0
 40
0
 40
0
 40
1
 40
1
 40
1
 40
1
 10
17.240168
 20
27.264357
 30
0.0
 10
17.223146
 20
27.264357
 30
0.0
 10
17.209169
 20
27.269825
 30
0.0
 10
17.198237
 20
27.280763
 30
0.0
  0
SPLINE
  5
201
100
AcDbEntity
  8
Layer_1
 62
3
100
AcDbSpline
 70
8
 71
3
 72
8
 73
4
 74
0
 40
0
 40
0
 40
0
 40
0
 40
1
 40
1
 40
1
 40
1
 10
17.198237
 20
27.280763
 30
0.0
 10
17.187301
 20
27.291701
 30
0.0
 10
17.181833
 20
27.305678
 30
0.0
 10
17.181833
 20
27.322693
 30
0.0
  0
LINE
  5
202
100
AcDbEntity
  8
Layer_1
 62
3
100
AcDbLine
 10
17.181833
 20
27.322693
 30
0.0
 11
17.181833
 21
27.439367
 31
0.0
  0
SPLINE
  5
203
100
AcDbEntity
  8
Layer_1
 62
3
100
AcDbSpline
 70
8
 71
3
 72
8
 73
4
 74
0
 40
0
 40
0
 40
0
 40
0
 40
1
 40
1
 40
1
 40
1
 10
17.181833
 20
27.439367
 30
0.0
 10
17.181833
 20
27.456382
 30
0.0
 10
17.187609
 20
27.470358
 30
0.0
 10
17.199163
 20
27.481297
 30
0.0
  0
SPLINE
  5
204
100
AcDbEntity
  8
Layer_1
 62
3
100
AcDbSpline
 70
8
 71
3
 72
8
 73
4
 74
0
 40
0
 40
0
 40
0
 40
0
 40
1
 40
1
 40
1
 40
1
 10
17.199163
 20
27.481297
 30
0.0
 10
17.210699
 20
27.492235
 30
0.0
 10
17.224371
 20
27.497703
 30
0.0
 10
17.240181
 20
27.497703
 30
0.0
  0
LINE
  5
205
100
AcDbEntity
  8
Layer_1
 62
3
100
AcDbLine
 10
17.240181
 20
27.497703
 30
0.0
 11
18.290246
 21
27.497703
 31
0.0
  0
SPLINE
  5
206
100
AcDbEntity
  8
Layer_1
 62
3
100
AcDbSpline
 70
8
 71
3
 72
8
 73
4
 74
0
 40
0
 40
0
 40
0
 40
0
 40
1
 40
1
 40
1
 40
1
 10
18.290246
 20
27.497703
 30
0.0
 10
18.307268
 20
27.497703
 30
0.0
 10
18.321244
 20
27.503477
 30
0.0
 10
18.332175
 20
27.515023
 30
0.0
  0
SPLINE
  5
207
100
AcDbEntity
  8
Layer_1
 62
3
100
AcDbSpline
 70
8
 71
3
 72
8
 73
4
 74
0
 40
0
 40
0
 40
0
 40
0
 40
1
 40
1
 40
1
 40
1
 10
18.332175
 20
27.515023
 30
0.0
 10
18.343111
 20
27.526569
 30
0.0
 10
18.348579
 20
27.540242
 30
0.0
 10
18.348579
 20
27.556041
 30
0.0
  0
LINE
  5
208
100
AcDbEntity
  8
Layer_1
 62
3
100
AcDbLine
 10
18.348579
 20
27.556041
 30
0.0
 11
18.348579
 21
27.672715
 31
0.0
  0
SPLINE
  5
209
100
AcDbEntity
  8
Layer_1
 62
3
100
AcDbSpline
 70
8
 71
3
 72
8
 73
4
 74
0
 40
0
 40
0
 40
0
 40
0
 40
1
 40
1
 40
1
 40
1
 10
18.348579
 20
27.672715
 30
0.0
 10
18.348579
 20
27.688514
 30
0.0
 10
18.342811
 20
27.702187
 30
0.0
 10
18.331275
 20
27.713733
 30
0.0
  0
SPLINE
  5
20a
100
AcDbEntity
  8
Layer_1
 62
3
100
AcDbSpline
 70
8
 71
3
 72
8
 73
4
 74
0
 40
0
 40
0
 40
0
 40
0
 40
1
 40
1
 40
1
 40
1
 10
18.331275
 20
27.713733
 30
0.0
 10
18.319722
 20
27.725280
 30
0.0
 10
18.306049
 20
27.731053
 30
0.0
 10
18.290257
 20
27.731053
 30
0.0
  0
LINE
  5
20b
100
AcDbEntity
  8
Layer_1
 62
3
100
AcDbLine
 10
18.290257
 20
27.731053
 30
0.0
 11
17.531876
 21
27.731053
 31
0.0
  0
SPLINE
  5
20c
100
AcDbEntity
  8
Layer_1
 62
3
100
AcDbSpline
 70
8
 71
3
 72
8
 73
4
 74
0
 40
0
 40
0
 40
0
 40
0
 40
1
 40
1
 40
1
 40
1
 10
17.531876
 20
27.731053
 30
0.0
 10
17.515472
 20
27.731053
 30
0.0
 10
17.499976
 20
27.734091
 30
0.0
 10
17.485389
 20
27.740168
 30
0.0
  0
SPLINE
  5
20d
100
AcDbEntity
  8
Layer_1
 62
3
100
AcDbSpline
 70
8
 71
3
 72
8
 73
4
 74
0
 40
0
 40
0
 40
0
 40
0
 40
1
 40
1
 40
1
 40
1
 10
17.485389
 20
27.740168
 30
0.0
 10
17.471419
 20
27.746244
 30
0.0
 10
17.459265
 20
27.754448
 30
0.0
 10
17.448927
 20
27.764779
 30
0.0
  0
SPLINE
  5
20e
100
AcDbEntity
  8
Layer_1
 62
3
100
AcDbSpline
 70
8
 71
3
 72
8
 73
4
 74
0
 40
0
 40
0
 40
0
 40
0
 40
1
 40
1
 40
1
 40
1
 10
17.448927
 20
27.764779
 30
0.0
 10
17.438590
 20
27.775111
 30
0.0
 10
17.430388
 20
27.787264
 30
0.0
 10
17.424321
 20
27.801240
 30
0.0
  0
SPLINE
  5
20f
100
AcDbEntity
  8
Layer_1
 62
3
100
AcDbSpline
 70
8
 71
3
 72
8
 73
4
 74
0
 40
0
 40
0
 40
0
 40
0
 40
1
 40
1
 40
1
 40
1
 10
17.424321
 20
27.801240
 30
0.0
 10
17.418235
 20
27.815824
 30
0.0
 10
17.415192
 20
27.831320
 30
0.0
 10
17.415192
 20
27.847727
 30
0.0
  0
LINE
  5
210
100
AcDbEntity
  8
Layer_1
 62
3
100
AcDbLine
 10
17.415192
 20
27.847727
 30
0.0
 11
17.415192
 21
28.314423
 31
0.0
  0
SPLINE
  5
211
100
AcDbEntity
  8
Layer_1
 62
3
100
AcDbSpline
 70
8
 71
3
 72
8
 73
4
 74
0
 40
0
 40
0
 40
0
 40
0
 40
1
 40
1
 40
1
 40
1
 10
17.415192
 20
28.314423
 30
0.0
 10
17.415192
 20
28.330222
 30
0.0
 10
17.418235
 20
28.345110
 30
0.0
 10
17.424321
 20
28.359087
 30
0.0
  0
SPLINE
  5
212
100
AcDbEntity
  8
Layer_1
 62
3
100
AcDbSpline
 70
8
 71
3
 72
8
 73
4
 74
0
 40
0
 40
0
 40
0
 40
0
 40
1
 40
1
 40
1
 40
1
 10
17.424321
 20
28.359087
 30
0.0
 10
17.431006
 20
28.373064
 30
0.0
 10
17.439517
 20
28.385218
 30
0.0
 10
17.449853
 20
28.395548
 30
0.0
  0
SPLINE
  5
213
100
AcDbEntity
  8
Layer_1
 62
3
100
AcDbSpline
 70
8
 71
3
 72
8
 73
4
 74
0
 40
0
 40
0
 40
0
 40
0
 40
1
 40
1
 40
1
 40
1
 10
17.449853
 20
28.395548
 30
0.0
 10
17.460789
 20
28.406486
 30
0.0
 10
17.473246
 20
28.414993
 30
0.0
 10
17.487225
 20
28.421069
 30
0.0
  0
SPLINE
  5
214
100
AcDbEntity
  8
Layer_1
 62
3
100
AcDbSpline
 70
8
 71
3
 72
8
 73
4
 74
0
 40
0
 40
0
 40
0
 40
0
 40
1
 40
1
 40
1
 40
1
 10
17.487225
 20
28.421069
 30
0.0
 10
17.501195
 20
28.427755
 30
0.0
 10
17.516083
 20
28.431097
 30
0.0
 10
17.531890
 20
28.431097
 30
0.0
  0
LINE
  5
215
100
AcDbEntity
  8
Layer_1
 62
3
100
AcDbLine
 10
17.531890
 20
28.431097
 30
0.0
 11
18.290270
 21
28.431097
 31
0.0
  0
SPLINE
  5
216
100
AcDbEntity
  8
Layer_1
 62
3
100
AcDbSpline
 70
8
 71
3
 72
8
 73
4
 74
0
 40
0
 40
0
 40
0
 40
0
 40
1
 40
1
 40
1
 40
1
 10
18.290270
 20
28.431097
 30
0.0
 10
18.307292
 20
28.431097
 30
0.0
 10
18.321268
 20
28.436870
 30
0.0
 10
18.332199
 20
28.448417
 30
0.0
  0
SPLINE
  5
217
100
AcDbEntity
  8
Layer_1
 62
3
100
AcDbSpline
 70
8
 71
3
 72
8
 73
4
 74
0
 40
0
 40
0
 40
0
 40
0
 40
1
 40
1
 40
1
 40
1
 10
18.332199
 20
28.448417
 30
0.0
 10
18.343135
 20
28.459963
 30
0.0
 10
18.348603
 20
28.473636
 30
0.0
 10
18.348603
 20
28.489435
 30
0.0
  0
LINE
  5
218
100
AcDbEntity
  8
Layer_1
 62
3
100
AcDbLine
 10
18.348603
 20
28.489435
 30
0.0
 11
18.348603
 21
28.606109
 31
0.0
  0
SPLINE
  5
219
100
AcDbEntity
  8
Layer_1
 62
3
100
AcDbSpline
 70
8
 71
3
 72
8
 73
4
 74
0
 40
0
 40
0
 40
0
 40
0
 40
1
 40
1
 40
1
 40
1
 10
18.348603
 20
28.606109
 30
0.0
 10
18.348603
 20
28.621908
 30
0.0
 10
18.342835
 20
28.635580
 30
0.0
 10
18.331299
 20
28.647127
 30
0.0
  0
SPLINE
  5
21a
100
AcDbEntity
  8
Layer_1
 62
3
100
AcDbSpline
 70
8
 71
3
 72
8
 73
4
 74
0
 40
0
 40
0
 40
0
 40
0
 40
1
 40
1
 40
1
 40
1
 10
18.331299
 20
28.647127
 30
0.0
 10
18.319746
 20
28.658673
 30
0.0
 10
18.306073
 20
28.664446
 30
0.0
 10
18.290281
 20
28.664446
 30
0.0
  0
LINE
  5
21b
100
AcDbEntity
  8
Layer_1
 62
3
100
AcDbLine
 10
18.290281
 20
28.664446
 30
0.0
 11
17.240216
 21
28.664446
 31
0.0
  0
SPLINE
  5
21c
100
AcDbEntity
  8
Layer_1
 62
3
100
AcDbSpline
 70
8
 71
3
 72
8
 73
4
 74
0
 40
0
 40
0
 40
0
 40
0
 40
1
 40
1
 40
1
 40
1
 10
17.240216
 20
28.664446
 30
0.0
 10
17.223194
 20
28.664446
 30
0.0
 10
17.209217
 20
28.669915
 30
0.0
 10
17.198284
 20
28.680853
 30
0.0
  0
SPLINE
  5
21d
100
AcDbEntity
  8
Layer_1
 62
3
100
AcDbSpline
 70
8
 71
3
 72
8
 73
4
 74
0
 40
0
 40
0
 40
0
 40
0
 40
1
 40
1
 40
1
 40
1
 10
17.198284
 20
28.680853
 30
0.0
 10
17.187348
 20
28.691791
 30
0.0
 10
17.181880
 20
28.705768
 30
0.0
 10
17.181880
 20
28.722783
 30
0.0
  0
LINE
  5
21e
100
AcDbEntity
  8
Layer_1
 62
3
100
AcDbLine
 10
17.181880
 20
28.722783
 30
0.0
 11
17.181880
 21
28.839457
 31
0.0
  0
SPLINE
  5
21f
100
AcDbEntity
  8
Layer_1
 62
3
100
AcDbSpline
 70
8
 71
3
 72
8
 73
4
 74
0
 40
0
 40
0
 40
0
 40
0
 40
1
 40
1
 40
1
 40
1
 10
17.181880
 20
28.839457
 30
0.0
 10
17.181880
 20
28.856471
 30
0.0
 10
17.187657
 20
28.870448
 30
0.0
 10
17.199210
 20
28.881386
 30
0.0
  0
SPLINE
  5
220
100
AcDbEntity
  8
Layer_1
 62
3
100
AcDbSpline
 70
8
 71
3
 72
8
 73
4
 74
0
 40
0
 40
0
 40
0
 40
0
 40
1
 40
1
 40
1
 40
1
 10
17.199210
 20
28.881386
 30
0.0
 10
17.210746
 20
28.892324
 30
0.0
 10
17.224419
 20
28.897793
 30
0.0
 10
17.240229
 20
28.897793
 30
0.0
  0
LINE
  5
221
100
AcDbEntity
  8
Layer_1
 62
3
100
AcDbLine
 10
17.240229
 20
28.897793
 30
0.0
 11
18.465305
 21
28.897793
 31
0.0
  0
SPLINE
  5
222
100
AcDbEntity
  8
Layer_1
 62
3
100
AcDbSpline
 70
8
 71
3
 72
8
 73
4
 74
0
 40
0
 40
0
 40
0
 40
0
 40
1
 40
1
 40
1
 40
1
 10
18.465305
 20
28.897793
 30
0.0
 10
18.481110
 20
28.897793
 30
0.0
 10
18.495998
 20
28.894451
 30
0.0
 10
18.509970
 20
28.887766
 30
0.0
  0
SPLINE
  5
223
100
AcDbEntity
  8
Layer_1
 62
3
100
AcDbSpline
 70
8
 71
3
 72
8
 73
4
 74
0
 40
0
 40
0
 40
0
 40
0
 40
1
 40
1
 40
1
 40
1
 10
18.509970
 20
28.887766
 30
0.0
 10
18.523940
 20
28.881689
 30
0.0
 10
18.536094
 20
28.873182
 30
0.0
 10
18.546432
 20
28.862244
 30
0.0
  0
SPLINE
  5
224
100
AcDbEntity
  8
Layer_1
 62
3
100
AcDbSpline
 70
8
 71
3
 72
8
 73
4
 74
0
 40
0
 40
0
 40
0
 40
0
 40
1
 40
1
 40
1
 40
1
 10
18.546432
 20
28.862244
 30
0.0
 10
18.557368
 20
28.851913
 30
0.0
 10
18.565879
 20
28.839759
 30
0.0
 10
18.571964
 20
28.825783
 30
0.0
  0
SPLINE
  5
225
100
AcDbEntity
  8
Layer_1
 62
3
100
AcDbSpline
 70
8
 71
3
 72
8
 73
4
 74
0
 40
0
 40
0
 40
0
 40
0
 40
1
 40
1
 40
1
 40
1
 10
18.571964
 20
28.825783
 30
0.0
 10
18.578649
 20
28.811806
 30
0.0
 10
18.581992
 20
28.796918
 30
0.0
 10
18.581992
 20
28.781119
 30
0.0
  0
LINE
  5
226
100
AcDbEntity
  8
Layer_1
 62
3
100
AcDbLine
 10
18.581992
 20
28.781119
 30
0.0
 11
18.581992
 21
28.314424
 31
0.0
  0
SPLINE
  5
227
100
AcDbEntity
  8
Layer_1
 62
3
100
AcDbSpline
 70
8
 71
3
 72
8
 73
4
 74
0
 40
0
 40
0
 40
0
 40
0
 40
1
 40
1
 40
1
 40
1
 10
18.581992
 20
28.314424
 30
0.0
 10
18.581992
 20
28.298624
 30
0.0
 10
18.578649
 20
28.283736
 30
0.0
 10
18.571964
 20
28.269759
 30
0.0
  0
SPLINE
  5
228
100
AcDbEntity
  8
Layer_1
 62
3
100
AcDbSpline
 70
8
 71
3
 72
8
 73
4
 74
0
 40
0
 40
0
 40
0
 40
0
 40
1
 40
1
 40
1
 40
1
 10
18.571964
 20
28.269759
 30
0.0
 10
18.565896
 20
28.255782
 30
0.0
 10
18.557386
 20
28.243325
 30
0.0
 10
18.546432
 20
28.232387
 30
0.0
  0
SPLINE
  5
229
100
AcDbEntity
  8
Layer_1
 62
3
100
AcDbSpline
 70
8
 71
3
 72
8
 73
4
 74
0
 40
0
 40
0
 40
0
 40
0
 40
1
 40
1
 40
1
 40
1
 10
18.546432
 20
28.232387
 30
0.0
 10
18.536095
 20
28.222056
 30
0.0
 10
18.523941
 20
28.213549
 30
0.0
 10
18.509970
 20
28.206865
 30
0.0
  0
SPLINE
  5
22a
100
AcDbEntity
  8
Layer_1
 62
3
100
AcDbSpline
 70
8
 71
3
 72
8
 73
4
 74
0
 40
0
 40
0
 40
0
 40
0
 40
1
 40
1
 40
1
 40
1
 10
18.509970
 20
28.206865
 30
0.0
 10
18.496000
 20
28.200789
 30
0.0
 10
18.481111
 20
28.197750
 30
0.0
 10
18.465305
 20
28.197750
 30
0.0
  0
LINE
  5
22b
100
AcDbEntity
  8
Layer_1
 62
3
100
AcDbLine
 10
18.465305
 20
28.197750
 30
0.0
 11
17.706925
 21
28.197750
 31
0.0
  0
SPLINE
  5
22c
100
AcDbEntity
  8
Layer_1
 62
3
100
AcDbSpline
 70
8
 71
3
 72
8
 73
4
 74
0
 40
0
 40
0
 40
0
 40
0
 40
1
 40
1
 40
1
 40
1
 10
17.706925
 20
28.197750
 30
0.0
 10
17.691120
 20
28.197750
 30
0.0
 10
17.677447
 20
28.192282
 30
0.0
 10
17.665906
 20
28.181344
 30
0.0
  0
SPLINE
  5
22d
100
AcDbEntity
  8
Layer_1
 62
3
100
AcDbSpline
 70
8
 71
3
 72
8
 73
4
 74
0
 40
0
 40
0
 40
0
 40
0
 40
1
 40
1
 40
1
 40
1
 10
17.665906
 20
28.181344
 30
0.0
 10
17.654353
 20
28.170406
 30
0.0
 10
17.648576
 20
28.156429
 30
0.0
 10
17.648576
 20
28.139414
 30
0.0
  0
LINE
  5
22e
100
AcDbEntity
  8
Layer_1
 62
3
100
AcDbLine
 10
17.648576
 20
28.139414
 30
0.0
 11
17.648576
 21
28.022740
 31
0.0
  0
SPLINE
  5
22f
100
AcDbEntity
  8
Layer_1
 62
3
100
AcDbSpline
 70
8
 71
3
 72
8
 73
4
 74
0
 40
0
 40
0
 40
0
 40
0
 40
1
 40
1
 40
1
 40
1
 10
17.648576
 20
28.022740
 30
0.0
 10
17.648576
 20
28.005725
 30
0.0
 10
17.654044
 20
27.991749
 30
0.0
 10
17.664980
 20
27.980810
 30
0.0
  0
SPLINE
  5
230
100
AcDbEntity
  8
Layer_1
 62
3
100
AcDbSpline
 70
8
 71
3
 72
8
 73
4
 74
0
 40
0
 40
0
 40
0
 40
0
 40
1
 40
1
 40
1
 40
1
 10
17.664980
 20
27.980810
 30
0.0
 10
17.675916
 20
27.969873
 30
0.0
 10
17.689893
 20
27.964404
 30
0.0
 10
17.706909
 20
27.964404
 30
0.0
  0
LINE
  5
231
100
AcDbEntity
  8
Layer_1
 62
3
100
AcDbLine
 10
17.706909
 20
27.964404
 30
0.0
 11
18.465289
 21
27.964404
 31
0.0
  0
SPLINE
  5
232
100
AcDbEntity
  8
Layer_1
 62
3
100
AcDbSpline
 70
8
 71
3
 72
8
 73
4
 74
0
 40
0
 40
0
 40
0
 40
0
 40
1
 40
1
 40
1
 40
1
 10
18.465289
 20
27.964404
 30
0.0
 10
18.481094
 20
27.964404
 30
0.0
 10
18.495982
 20
27.961061
 30
0.0
 10
18.509954
 20
27.954376
 30
0.0
  0
SPLINE
  5
233
100
AcDbEntity
  8
Layer_1
 62
3
100
AcDbSpline
 70
8
 71
3
 72
8
 73
4
 74
0
 40
0
 40
0
 40
0
 40
0
 40
1
 40
1
 40
1
 40
1
 10
18.509954
 20
27.954376
 30
0.0
 10
18.523924
 20
27.948299
 30
0.0
 10
18.536078
 20
27.939792
 30
0.0
 10
18.546416
 20
27.928854
 30
0.0
  0
SPLINE
  5
234
100
AcDbEntity
  8
Layer_1
 62
3
100
AcDbSpline
 70
8
 71
3
 72
8
 73
4
 74
0
 40
0
 40
0
 40
0
 40
0
 40
1
 40
1
 40
1
 40
1
 10
18.546416
 20
27.928854
 30
0.0
 10
18.557352
 20
27.918523
 30
0.0
 10
18.565863
 20
27.906370
 30
0.0
 10
18.571948
 20
27.892394
 30
0.0
  0
SPLINE
  5
235
100
AcDbEntity
  8
Layer_1
 62
3
100
AcDbSpline
 70
8
 71
3
 72
8
 73
4
 74
0
 40
0
 40
0
 40
0
 40
0
 40
1
 40
1
 40
1
 40
1
 10
18.571948
 20
27.892394
 30
0.0
 10
18.578633
 20
27.878416
 30
0.0
 10
18.581976
 20
27.863528
 30
0.0
 10
18.581976
 20
27.847729
 30
0.0
  0
LINE
  5
236
100
AcDbEntity
  8
Layer_1
 62
3
100
AcDbLine
 10
18.581976
 20
27.847729
 30
0.0
 11
18.581976
 21
27.381034
 31
0.0
  0
SPLINE
  5
237
100
AcDbEntity
  8
Layer_1
 62
3
100
AcDbSpline
 70
8
 71
3
 72
8
 73
4
 74
0
 40
0
 40
0
 40
0
 40
0
 40
1
 40
1
 40
1
 40
1
 10
18.581976
 20
27.381034
 30
0.0
 10
18.581976
 20
27.365235
 30
0.0
 10
18.578633
 20
27.350347
 30
0.0
 10
18.571948
 20
27.336370
 30
0.0
  0
SPLINE
  5
238
100
AcDbEntity
  8
Layer_1
 62
3
100
AcDbSpline
 70
8
 71
3
 72
8
 73
4
 74
0
 40
0
 40
0
 40
0
 40
0
 40
1
 40
1
 40
1
 40
1
 10
18.571948
 20
27.336370
 30
0.0
 10
18.565880
 20
27.322392
 30
0.0
 10
18.557370
 20
27.309935
 30
0.0
 10
18.546416
 20
27.298997
 30
0.0
  0
SPLINE
  5
239
100
AcDbEntity
  8
Layer_1
 62
3
100
AcDbSpline
 70
8
 71
3
 72
8
 73
4
 74
0
 40
0
 40
0
 40
0
 40
0
 40
1
 40
1
 40
1
 40
1
 10
18.546416
 20
27.298997
 30
0.0
 10
18.536080
 20
27.288666
 30
0.0
 10
18.523925
 20
27.280159
 30
0.0
 10
18.509954
 20
27.273476
 30
0.0
  0
SPLINE
  5
23a
100
AcDbEntity
  8
Layer_1
 62
3
100
AcDbSpline
 70
8
 71
3
 72
8
 73
4
 74
0
 40
0
 40
0
 40
0
 40
0
 40
1
 40
1
 40
1
 40
1
 10
18.509954
 20
27.273476
 30
0.0
 10
18.495984
 20
27.267399
 30
0.0
 10
18.481096
 20
27.264361
 30
0.0
 10
18.465289
 20
27.264361
 30
0.0
  0
LINE
  5
23b
100
AcDbEntity
  8
Layer_1
 62
3
100
AcDbLine
 10
18.465289
 20
27.264361
 30
0.0
 11
17.240168
 21
27.264357
 31
0.0
  0
SPLINE
  5
23c
100
AcDbEntity
  8
Layer_1
 62
3
100
AcDbSpline
 70
8
 71
3
 72
8
 73
4
 74
0
 40
0
 40
0
 40
0
 40
0
 40
1
 40
1
 40
1
 40
1
 10
21.857200
 20
27.264357
 30
0.0
 10
21.840796
 20
27.264357
 30
0.0
 10
21.825300
 20
27.267395
 30
0.0
 10
21.810713
 20
27.273471
 30
0.0
  0
SPLINE
  5
23d
100
AcDbEntity
  8
Layer_1
 62
3
100
AcDbSpline
 70
8
 71
3
 72
8
 73
4
 74
0
 40
0
 40
0
 40
0
 40
0
 40
1
 40
1
 40
1
 40
1
 10
21.810713
 20
27.273471
 30
0.0
 10
21.796743
 20
27.279548
 30
0.0
 10
21.784590
 20
27.287752
 30
0.0
 10
21.774253
 20
27.298083
 30
0.0
  0
SPLINE
  5
23e
100
AcDbEntity
  8
Layer_1
 62
3
100
AcDbSpline
 70
8
 71
3
 72
8
 73
4
 74
0
 40
0
 40
0
 40
0
 40
0
 40
1
 40
1
 40
1
 40
1
 10
21.774253
 20
27.298083
 30
0.0
 10
21.763917
 20
27.308414
 30
0.0
 10
21.755715
 20
27.320568
 30
0.0
 10
21.749647
 20
27.334544
 30
0.0
  0
SPLINE
  5
23f
100
AcDbEntity
  8
Layer_1
 62
3
100
AcDbSpline
 70
8
 71
3
 72
8
 73
4
 74
0
 40
0
 40
0
 40
0
 40
0
 40
1
 40
1
 40
1
 40
1
 10
21.749647
 20
27.334544
 30
0.0
 10
21.743579
 20
27.349127
 30
0.0
 10
21.740545
 20
27.364623
 30
0.0
 10
21.740545
 20
27.381031
 30
0.0
  0
LINE
  5
240
100
AcDbEntity
  8
Layer_1
 62
3
100
AcDbLine
 10
21.740545
 20
27.381031
 30
0.0
 11
21.740545
 21
28.839455
 31
0.0
  0
SPLINE
  5
241
100
AcDbEntity
  8
Layer_1
 62
3
100
AcDbSpline
 70
8
 71
3
 72
8
 73
4
 74
0
 40
0
 40
0
 40
0
 40
0
 40
1
 40
1
 40
1
 40
1
 10
21.740545
 20
28.839455
 30
0.0
 10
21.740545
 20
28.856469
 30
0.0
 10
21.746322
 20
28.870446
 30
0.0
 10
21.757875
 20
28.881384
 30
0.0
  0
SPLINE
  5
242
100
AcDbEntity
  8
Layer_1
 62
3
100
AcDbSpline
 70
8
 71
3
 72
8
 73
4
 74
0
 40
0
 40
0
 40
0
 40
0
 40
1
 40
1
 40
1
 40
1
 10
21.757875
 20
28.881384
 30
0.0
 10
21.769411
 20
28.892322
 30
0.0
 10
21.783083
 20
28.897791
 30
0.0
 10
21.798891
 20
28.897791
 30
0.0
  0
LINE
  5
243
100
AcDbEntity
  8
Layer_1
 62
3
100
AcDbLine
 10
21.798891
 20
28.897791
 30
0.0
 11
21.915567
 21
28.897791
 31
0.0
  0
SPLINE
  5
244
100
AcDbEntity
  8
Layer_1
 62
3
100
AcDbSpline
 70
8
 71
3
 72
8
 73
4
 74
0
 40
0
 40
0
 40
0
 40
0
 40
1
 40
1
 40
1
 40
1
 10
21.915567
 20
28.897791
 30
0.0
 10
21.931372
 20
28.897791
 30
0.0
 10
21.945044
 20
28.892018
 30
0.0
 10
21.956586
 20
28.880472
 30
0.0
  0
SPLINE
  5
245
100
AcDbEntity
  8
Layer_1
 62
3
100
AcDbSpline
 70
8
 71
3
 72
8
 73
4
 74
0
 40
0
 40
0
 40
0
 40
0
 40
1
 40
1
 40
1
 40
1
 10
21.956586
 20
28.880472
 30
0.0
 10
21.968121
 20
28.868925
 30
0.0
 10
21.973889
 20
28.855252
 30
0.0
 10
21.973889
 20
28.839453
 30
0.0
  0
LINE
  5
246
100
AcDbEntity
  8
Layer_1
 62
3
100
AcDbLine
 10
21.973889
 20
28.839453
 30
0.0
 11
21.973889
 21
28.256084
 31
0.0
  0
SPLINE
  5
247
100
AcDbEntity
  8
Layer_1
 62
3
100
AcDbSpline
 70
8
 71
3
 72
8
 73
4
 74
0
 40
0
 40
0
 40
0
 40
0
 40
1
 40
1
 40
1
 40
1
 10
21.973889
 20
28.256084
 30
0.0
 10
21.973889
 20
28.239069
 30
0.0
 10
21.979357
 20
28.225093
 30
0.0
 10
21.990293
 20
28.214154
 30
0.0
  0
SPLINE
  5
248
100
AcDbEntity
  8
Layer_1
 62
3
100
AcDbSpline
 70
8
 71
3
 72
8
 73
4
 74
0
 40
0
 40
0
 40
0
 40
0
 40
1
 40
1
 40
1
 40
1
 10
21.990293
 20
28.214154
 30
0.0
 10
22.001230
 20
28.203216
 30
0.0
 10
22.015207
 20
28.197747
 30
0.0
 10
22.032225
 20
28.197747
 30
0.0
  0
LINE
  5
249
100
AcDbEntity
  8
Layer_1
 62
3
100
AcDbLine
 10
22.032225
 20
28.197747
 30
0.0
 11
22.265571
 21
28.197747
 31
0.0
  0
SPLINE
  5
24a
100
AcDbEntity
  8
Layer_1
 62
3
100
AcDbSpline
 70
8
 71
3
 72
8
 73
4
 74
0
 40
0
 40
0
 40
0
 40
0
 40
1
 40
1
 40
1
 40
1
 10
22.265571
 20
28.197747
 30
0.0
 10
22.282593
 20
28.197747
 30
0.0
 10
22.296570
 20
28.203521
 30
0.0
 10
22.307502
 20
28.215067
 30
0.0
  0
SPLINE
  5
24b
100
AcDbEntity
  8
Layer_1
 62
3
100
AcDbSpline
 70
8
 71
3
 72
8
 73
4
 74
0
 40
0
 40
0
 40
0
 40
0
 40
1
 40
1
 40
1
 40
1
 10
22.307502
 20
28.215067
 30
0.0
 10
22.318438
 20
28.226613
 30
0.0
 10
22.323907
 20
28.240286
 30
0.0
 10
22.323907
 20
28.256085
 30
0.0
  0
LINE
  5
24c
100
AcDbEntity
  8
Layer_1
 62
3
100
AcDbLine
 10
22.323907
 20
28.256085
 30
0.0
 11
22.323907
 21
28.839455
 31
0.0
  0
SPLINE
  5
24d
100
AcDbEntity
  8
Layer_1
 62
3
100
AcDbSpline
 70
8
 71
3
 72
8
 73
4
 74
0
 40
0
 40
0
 40
0
 40
0
 40
1
 40
1
 40
1
 40
1
 10
22.323907
 20
28.839455
 30
0.0
 10
22.323907
 20
28.856469
 30
0.0
 10
22.329683
 20
28.870446
 30
0.0
 10
22.341237
 20
28.881384
 30
0.0
  0
SPLINE
  5
24e
100
AcDbEntity
  8
Layer_1
 62
3
100
AcDbSpline
 70
8
 71
3
 72
8
 73
4
 74
0
 40
0
 40
0
 40
0
 40
0
 40
1
 40
1
 40
1
 40
1
 10
22.341237
 20
28.881384
 30
0.0
 10
22.352773
 20
28.892322
 30
0.0
 10
22.366445
 20
28.897791
 30
0.0
 10
22.382255
 20
28.897791
 30
0.0
  0
LINE
  5
24f
100
AcDbEntity
  8
Layer_1
 62
3
100
AcDbLine
 10
22.382255
 20
28.897791
 30
0.0
 11
22.498928
 21
28.897791
 31
0.0
  0
SPLINE
  5
250
100
AcDbEntity
  8
Layer_1
 62
3
100
AcDbSpline
 70
8
 71
3
 72
8
 73
4
 74
0
 40
0
 40
0
 40
0
 40
0
 40
1
 40
1
 40
1
 40
1
 10
22.498928
 20
28.897791
 30
0.0
 10
22.514733
 20
28.897791
 30
0.0
 10
22.528406
 20
28.892018
 30
0.0
 10
22.539947
 20
28.880472
 30
0.0
  0
SPLINE
  5
251
100
AcDbEntity
  8
Layer_1
 62
3
100
AcDbSpline
 70
8
 71
3
 72
8
 73
4
 74
0
 40
0
 40
0
 40
0
 40
0
 40
1
 40
1
 40
1
 40
1
 10
22.539947
 20
28.880472
 30
0.0
 10
22.551500
 20
28.868925
 30
0.0
 10
22.557277
 20
28.855252
 30
0.0
 10
22.557277
 20
28.839453
 30
0.0
  0
LINE
  5
252
100
AcDbEntity
  8
Layer_1
 62
3
100
AcDbLine
 10
22.557277
 20
28.839453
 30
0.0
 11
22.557277
 21
28.256084
 31
0.0
  0
SPLINE
  5
253
100
AcDbEntity
  8
Layer_1
 62
3
100
AcDbSpline
 70
8
 71
3
 72
8
 73
4
 74
0
 40
0
 40
0
 40
0
 40
0
 40
1
 40
1
 40
1
 40
1
 10
22.557277
 20
28.256084
 30
0.0
 10
22.557277
 20
28.239069
 30
0.0
 10
22.562745
 20
28.225093
 30
0.0
 10
22.573681
 20
28.214154
 30
0.0
  0
SPLINE
  5
254
100
AcDbEntity
  8
Layer_1
 62
3
100
AcDbSpline
 70
8
 71
3
 72
8
 73
4
 74
0
 40
0
 40
0
 40
0
 40
0
 40
1
 40
1
 40
1
 40
1
 10
22.573681
 20
28.214154
 30
0.0
 10
22.584617
 20
28.203216
 30
0.0
 10
22.598593
 20
28.197747
 30
0.0
 10
22.615610
 20
28.197747
 30
0.0
  0
LINE
  5
255
100
AcDbEntity
  8
Layer_1
 62
3
100
AcDbLine
 10
22.615610
 20
28.197747
 30
0.0
 11
22.848956
 21
28.197747
 31
0.0
  0
SPLINE
  5
256
100
AcDbEntity
  8
Layer_1
 62
3
100
AcDbSpline
 70
8
 71
3
 72
8
 73
4
 74
0
 40
0
 40
0
 40
0
 40
0
 40
1
 40
1
 40
1
 40
1
 10
22.848956
 20
28.197747
 30
0.0
 10
22.865978
 20
28.197747
 30
0.0
 10
22.879955
 20
28.203521
 30
0.0
 10
22.890887
 20
28.215067
 30
0.0
  0
SPLINE
  5
257
100
AcDbEntity
  8
Layer_1
 62
3
100
AcDbSpline
 70
8
 71
3
 72
8
 73
4
 74
0
 40
0
 40
0
 40
0
 40
0
 40
1
 40
1
 40
1
 40
1
 10
22.890887
 20
28.215067
 30
0.0
 10
22.901824
 20
28.226613
 30
0.0
 10
22.907292
 20
28.240286
 30
0.0
 10
22.907292
 20
28.256085
 30
0.0
  0
LINE
  5
258
100
AcDbEntity
  8
Layer_1
 62
3
100
AcDbLine
 10
22.907292
 20
28.256085
 30
0.0
 11
22.907292
 21
28.839455
 31
0.0
  0
SPLINE
  5
259
100
AcDbEntity
  8
Layer_1
 62
3
100
AcDbSpline
 70
8
 71
3
 72
8
 73
4
 74
0
 40
0
 40
0
 40
0
 40
0
 40
1
 40
1
 40
1
 40
1
 10
22.907292
 20
28.839455
 30
0.0
 10
22.907292
 20
28.856469
 30
0.0
 10
22.913068
 20
28.870446
 30
0.0
 10
22.924622
 20
28.881384
 30
0.0
  0
SPLINE
  5
25a
100
AcDbEntity
  8
Layer_1
 62
3
100
AcDbSpline
 70
8
 71
3
 72
8
 73
4
 74
0
 40
0
 40
0
 40
0
 40
0
 40
1
 40
1
 40
1
 40
1
 10
22.924622
 20
28.881384
 30
0.0
 10
22.936158
 20
28.892322
 30
0.0
 10
22.949830
 20
28.897791
 30
0.0
 10
22.965640
 20
28.897791
 30
0.0
  0
LINE
  5
25b
100
AcDbEntity
  8
Layer_1
 62
3
100
AcDbLine
 10
22.965640
 20
28.897791
 30
0.0
 11
23.082313
 21
28.897791
 31
0.0
  0
SPLINE
  5
25c
100
AcDbEntity
  8
Layer_1
 62
3
100
AcDbSpline
 70
8
 71
3
 72
8
 73
4
 74
0
 40
0
 40
0
 40
0
 40
0
 40
1
 40
1
 40
1
 40
1
 10
23.082313
 20
28.897791
 30
0.0
 10
23.098118
 20
28.897791
 30
0.0
 10
23.111791
 20
28.892018
 30
0.0
 10
23.123332
 20
28.880472
 30
0.0
  0
SPLINE
  5
25d
100
AcDbEntity
  8
Layer_1
 62
3
100
AcDbSpline
 70
8
 71
3
 72
8
 73
4
 74
0
 40
0
 40
0
 40
0
 40
0
 40
1
 40
1
 40
1
 40
1
 10
23.123332
 20
28.880472
 30
0.0
 10
23.134868
 20
28.868925
 30
0.0
 10
23.140636
 20
28.855252
 30
0.0
 10
23.140636
 20
28.839453
 30
0.0
  0
LINE
  5
25e
100
AcDbEntity
  8
Layer_1
 62
3
100
AcDbLine
 10
23.140636
 20
28.839453
 30
0.0
 11
23.140636
 21
28.081073
 31
0.0
  0
SPLINE
  5
25f
100
AcDbEntity
  8
Layer_1
 62
3
100
AcDbSpline
 70
8
 71
3
 72
8
 73
4
 74
0
 40
0
 40
0
 40
0
 40
0
 40
1
 40
1
 40
1
 40
1
 10
23.140636
 20
28.081073
 30
0.0
 10
23.140636
 20
28.065274
 30
0.0
 10
23.137293
 20
28.050386
 30
0.0
 10
23.130608
 20
28.036409
 30
0.0
  0
SPLINE
  5
260
100
AcDbEntity
  8
Layer_1
 62
3
100
AcDbSpline
 70
8
 71
3
 72
8
 73
4
 74
0
 40
0
 40
0
 40
0
 40
0
 40
1
 40
1
 40
1
 40
1
 10
23.130608
 20
28.036409
 30
0.0
 10
23.124540
 20
28.022432
 30
0.0
 10
23.116029
 20
28.009974
 30
0.0
 10
23.105076
 20
27.999037
 30
0.0
  0
SPLINE
  5
261
100
AcDbEntity
  8
Layer_1
 62
3
100
AcDbSpline
 70
8
 71
3
 72
8
 73
4
 74
0
 40
0
 40
0
 40
0
 40
0
 40
1
 40
1
 40
1
 40
1
 10
23.105076
 20
27.999037
 30
0.0
 10
23.094739
 20
27.988706
 30
0.0
 10
23.082585
 20
27.980198
 30
0.0
 10
23.068613
 20
27.973515
 30
0.0
  0
SPLINE
  5
262
100
AcDbEntity
  8
Layer_1
 62
3
100
AcDbSpline
 70
8
 71
3
 72
8
 73
4
 74
0
 40
0
 40
0
 40
0
 40
0
 40
1
 40
1
 40
1
 40
1
 10
23.068613
 20
27.973515
 30
0.0
 10
23.054643
 20
27.967438
 30
0.0
 10
23.039755
 20
27.964400
 30
0.0
 10
23.023949
 20
27.964400
 30
0.0
  0
LINE
  5
263
100
AcDbEntity
  8
Layer_1
 62
3
100
AcDbLine
 10
23.023949
 20
27.964400
 30
0.0
 11
22.032222
 21
27.964400
 31
0.0
  0
SPLINE
  5
264
100
AcDbEntity
  8
Layer_1
 62
3
100
AcDbSpline
 70
8
 71
3
 72
8
 73
4
 74
0
 40
0
 40
0
 40
0
 40
0
 40
1
 40
1
 40
1
 40
1
 10
22.032222
 20
27.964400
 30
0.0
 10
22.016417
 20
27.964400
 30
0.0
 10
22.002745
 20
27.958931
 30
0.0
 10
21.991204
 20
27.947993
 30
0.0
  0
SPLINE
  5
265
100
AcDbEntity
  8
Layer_1
 62
3
100
AcDbSpline
 70
8
 71
3
 72
8
 73
4
 74
0
 40
0
 40
0
 40
0
 40
0
 40
1
 40
1
 40
1
 40
1
 10
21.991204
 20
27.947993
 30
0.0
 10
21.979650
 20
27.937055
 30
0.0
 10
21.973873
 20
27.923079
 30
0.0
 10
21.973873
 20
27.906064
 30
0.0
  0
LINE
  5
266
100
AcDbEntity
  8
Layer_1
 62
3
100
AcDbLine
 10
21.973873
 20
27.906064
 30
0.0
 11
21.973873
 21
27.556042
 31
0.0
  0
SPLINE
  5
267
100
AcDbEntity
  8
Layer_1
 62
3
100
AcDbSpline
 70
8
 71
3
 72
8
 73
4
 74
0
 40
0
 40
0
 40
0
 40
0
 40
1
 40
1
 40
1
 40
1
 10
21.973873
 20
27.556042
 30
0.0
 10
21.973873
 20
27.539027
 30
0.0
 10
21.979341
 20
27.525051
 30
0.0
 10
21.990278
 20
27.514112
 30
0.0
  0
SPLINE
  5
268
100
AcDbEntity
  8
Layer_1
 62
3
100
AcDbSpline
 70
8
 71
3
 72
8
 73
4
 74
0
 40
0
 40
0
 40
0
 40
0
 40
1
 40
1
 40
1
 40
1
 10
21.990278
 20
27.514112
 30
0.0
 10
22.001214
 20
27.503175
 30
0.0
 10
22.015191
 20
27.497706
 30
0.0
 10
22.032209
 20
27.497706
 30
0.0
  0
LINE
  5
269
100
AcDbEntity
  8
Layer_1
 62
3
100
AcDbLine
 10
22.032209
 20
27.497706
 30
0.0
 11
23.082274
 21
27.497706
 31
0.0
  0
SPLINE
  5
26a
100
AcDbEntity
  8
Layer_1
 62
3
100
AcDbSpline
 70
8
 71
3
 72
8
 73
4
 74
0
 40
0
 40
0
 40
0
 40
0
 40
1
 40
1
 40
1
 40
1
 10
23.082274
 20
27.497706
 30
0.0
 10
23.098078
 20
27.497706
 30
0.0
 10
23.111751
 20
27.491932
 30
0.0
 10
23.123292
 20
27.480386
 30
0.0
  0
SPLINE
  5
26b
100
AcDbEntity
  8
Layer_1
 62
3
100
AcDbSpline
 70
8
 71
3
 72
8
 73
4
 74
0
 40
0
 40
0
 40
0
 40
0
 40
1
 40
1
 40
1
 40
1
 10
23.123292
 20
27.480386
 30
0.0
 10
23.134828
 20
27.468840
 30
0.0
 10
23.140596
 20
27.455167
 30
0.0
 10
23.140596
 20
27.439368
 30
0.0
  0
LINE
  5
26c
100
AcDbEntity
  8
Layer_1
 62
3
100
AcDbLine
 10
23.140596
 20
27.439368
 30
0.0
 11
23.140596
 21
27.322694
 31
0.0
  0
SPLINE
  5
26d
100
AcDbEntity
  8
Layer_1
 62
3
100
AcDbSpline
 70
8
 71
3
 72
8
 73
4
 74
0
 40
0
 40
0
 40
0
 40
0
 40
1
 40
1
 40
1
 40
1
 10
23.140596
 20
27.322694
 30
0.0
 10
23.140596
 20
27.306895
 30
0.0
 10
23.135128
 20
27.293222
 30
0.0
 10
23.124192
 20
27.281676
 30
0.0
  0
SPLINE
  5
26e
100
AcDbEntity
  8
Layer_1
 62
3
100
AcDbSpline
 70
8
 71
3
 72
8
 73
4
 74
0
 40
0
 40
0
 40
0
 40
0
 40
1
 40
1
 40
1
 40
1
 10
23.124192
 20
27.281676
 30
0.0
 10
23.113256
 20
27.270130
 30
0.0
 10
23.099279
 20
27.264356
 30
0.0
 10
23.082263
 20
27.264356
 30
0.0
  0
LINE
  5
26f
100
AcDbEntity
  8
Layer_1
 62
3
100
AcDbLine
 10
23.082263
 20
27.264356
 30
0.0
 11
21.857200
 21
27.264357
 31
0.0
  0
SPLINE
  5
270
100
AcDbEntity
  8
Layer_1
 62
3
100
AcDbSpline
 70
8
 71
3
 72
8
 73
4
 74
0
 40
0
 40
0
 40
0
 40
0
 40
1
 40
1
 40
1
 40
1
 10
26.824257
 20
27.497704
 30
0.0
 10
26.841279
 20
27.497704
 30
0.0
 10
26.855255
 20
27.503477
 30
0.0
 10
26.866186
 20
27.515024
 30
0.0
  0
SPLINE
  5
271
100
AcDbEntity
  8
Layer_1
 62
3
100
AcDbSpline
 70
8
 71
3
 72
8
 73
4
 74
0
 40
0
 40
0
 40
0
 40
0
 40
1
 40
1
 40
1
 40
1
 10
26.866186
 20
27.515024
 30
0.0
 10
26.877122
 20
27.526570
 30
0.0
 10
26.882590
 20
27.540243
 30
0.0
 10
26.882590
 20
27.556042
 30
0.0
  0
LINE
  5
272
100
AcDbEntity
  8
Layer_1
 62
3
100
AcDbLine
 10
26.882590
 20
27.556042
 30
0.0
 11
26.882590
 21
27.906064
 31
0.0
  0
SPLINE
  5
273
100
AcDbEntity
  8
Layer_1
 62
3
100
AcDbSpline
 70
8
 71
3
 72
8
 73
4
 74
0
 40
0
 40
0
 40
0
 40
0
 40
1
 40
1
 40
1
 40
1
 10
26.882590
 20
27.906064
 30
0.0
 10
26.882590
 20
27.921863
 30
0.0
 10
26.876813
 20
27.935536
 30
0.0
 10
26.865260
 20
27.947082
 30
0.0
  0
SPLINE
  5
274
100
AcDbEntity
  8
Layer_1
 62
3
100
AcDbSpline
 70
8
 71
3
 72
8
 73
4
 74
0
 40
0
 40
0
 40
0
 40
0
 40
1
 40
1
 40
1
 40
1
 10
26.865260
 20
27.947082
 30
0.0
 10
26.853706
 20
27.958628
 30
0.0
 10
26.840034
 20
27.964401
 30
0.0
 10
26.824241
 20
27.964401
 30
0.0
  0
LINE
  5
275
100
AcDbEntity
  8
Layer_1
 62
3
100
AcDbLine
 10
26.824241
 20
27.964401
 30
0.0
 11
26.590892
 21
27.964401
 31
0.0
  0
SPLINE
  5
276
100
AcDbEntity
  8
Layer_1
 62
3
100
AcDbSpline
 70
8
 71
3
 72
8
 73
4
 74
0
 40
0
 40
0
 40
0
 40
0
 40
1
 40
1
 40
1
 40
1
 10
26.590892
 20
27.964401
 30
0.0
 10
26.575088
 20
27.964401
 30
0.0
 10
26.561416
 20
27.958933
 30
0.0
 10
26.549877
 20
27.947995
 30
0.0
  0
SPLINE
  5
277
100
AcDbEntity
  8
Layer_1
 62
3
100
AcDbSpline
 70
8
 71
3
 72
8
 73
4
 74
0
 40
0
 40
0
 40
0
 40
0
 40
1
 40
1
 40
1
 40
1
 10
26.549877
 20
27.947995
 30
0.0
 10
26.538323
 20
27.937057
 30
0.0
 10
26.532546
 20
27.923080
 30
0.0
 10
26.532546
 20
27.906065
 30
0.0
  0
LINE
  5
278
100
AcDbEntity
  8
Layer_1
 62
3
100
AcDbLine
 10
26.532546
 20
27.906065
 30
0.0
 11
26.532546
 21
27.556043
 31
0.0
  0
SPLINE
  5
279
100
AcDbEntity
  8
Layer_1
 62
3
100
AcDbSpline
 70
8
 71
3
 72
8
 73
4
 74
0
 40
0
 40
0
 40
0
 40
0
 40
1
 40
1
 40
1
 40
1
 10
26.532546
 20
27.556043
 30
0.0
 10
26.532546
 20
27.539029
 30
0.0
 10
26.538014
 20
27.525052
 30
0.0
 10
26.548950
 20
27.514114
 30
0.0
  0
SPLINE
  5
27a
100
AcDbEntity
  8
Layer_1
 62
3
100
AcDbSpline
 70
8
 71
3
 72
8
 73
4
 74
0
 40
0
 40
0
 40
0
 40
0
 40
1
 40
1
 40
1
 40
1
 10
26.548950
 20
27.514114
 30
0.0
 10
26.559887
 20
27.503176
 30
0.0
 10
26.573863
 20
27.497707
 30
0.0
 10
26.590879
 20
27.497707
 30
0.0
  0
LINE
  5
27b
100
AcDbEntity
  8
Layer_1
 62
3
100
AcDbLine
 10
26.590879
 20
27.497707
 30
0.0
 11
26.824257
 21
27.497704
 31
0.0
  0
SPLINE
  5
27c
100
AcDbEntity
  8
Layer_1
 62
3
100
AcDbSpline
 70
8
 71
3
 72
8
 73
4
 74
0
 40
0
 40
0
 40
0
 40
0
 40
1
 40
1
 40
1
 40
1
 10
27.407627
 20
27.497704
 30
0.0
 10
27.424648
 20
27.497704
 30
0.0
 10
27.438624
 20
27.503477
 30
0.0
 10
27.449555
 20
27.515024
 30
0.0
  0
SPLINE
  5
27d
100
AcDbEntity
  8
Layer_1
 62
3
100
AcDbSpline
 70
8
 71
3
 72
8
 73
4
 74
0
 40
0
 40
0
 40
0
 40
0
 40
1
 40
1
 40
1
 40
1
 10
27.449555
 20
27.515024
 30
0.0
 10
27.460491
 20
27.526570
 30
0.0
 10
27.465959
 20
27.540243
 30
0.0
 10
27.465959
 20
27.556042
 30
0.0
  0
LINE
  5
27e
100
AcDbEntity
  8
Layer_1
 62
3
100
AcDbLine
 10
27.465959
 20
27.556042
 30
0.0
 11
27.465959
 21
27.906064
 31
0.0
  0
SPLINE
  5
27f
100
AcDbEntity
  8
Layer_1
 62
3
100
AcDbSpline
 70
8
 71
3
 72
8
 73
4
 74
0
 40
0
 40
0
 40
0
 40
0
 40
1
 40
1
 40
1
 40
1
 10
27.465959
 20
27.906064
 30
0.0
 10
27.465959
 20
27.921863
 30
0.0
 10
27.460183
 20
27.935536
 30
0.0
 10
27.448629
 20
27.947082
 30
0.0
  0
SPLINE
  5
280
100
AcDbEntity
  8
Layer_1
 62
3
100
AcDbSpline
 70
8
 71
3
 72
8
 73
4
 74
0
 40
0
 40
0
 40
0
 40
0
 40
1
 40
1
 40
1
 40
1
 10
27.448629
 20
27.947082
 30
0.0
 10
27.437076
 20
27.958628
 30
0.0
 10
27.423403
 20
27.964401
 30
0.0
 10
27.407611
 20
27.964401
 30
0.0
  0
LINE
  5
281
100
AcDbEntity
  8
Layer_1
 62
3
100
AcDbLine
 10
27.407611
 20
27.964401
 30
0.0
 11
27.174264
 21
27.964401
 31
0.0
  0
SPLINE
  5
282
100
AcDbEntity
  8
Layer_1
 62
3
100
AcDbSpline
 70
8
 71
3
 72
8
 73
4
 74
0
 40
0
 40
0
 40
0
 40
0
 40
1
 40
1
 40
1
 40
1
 10
27.174264
 20
27.964401
 30
0.0
 10
27.158460
 20
27.964401
 30
0.0
 10
27.144787
 20
27.958933
 30
0.0
 10
27.133246
 20
27.947995
 30
0.0
  0
SPLINE
  5
283
100
AcDbEntity
  8
Layer_1
 62
3
100
AcDbSpline
 70
8
 71
3
 72
8
 73
4
 74
0
 40
0
 40
0
 40
0
 40
0
 40
1
 40
1
 40
1
 40
1
 10
27.133246
 20
27.947995
 30
0.0
 10
27.121692
 20
27.937057
 30
0.0
 10
27.115916
 20
27.923080
 30
0.0
 10
27.115916
 20
27.906065
 30
0.0
  0
LINE
  5
284
100
AcDbEntity
  8
Layer_1
 62
3
100
AcDbLine
 10
27.115916
 20
27.906065
 30
0.0
 11
27.115916
 21
27.556043
 31
0.0
  0
SPLINE
  5
285
100
AcDbEntity
  8
Layer_1
 62
3
100
AcDbSpline
 70
8
 71
3
 72
8
 73
4
 74
0
 40
0
 40
0
 40
0
 40
0
 40
1
 40
1
 40
1
 40
1
 10
27.115916
 20
27.556043
 30
0.0
 10
27.115916
 20
27.539029
 30
0.0
 10
27.121384
 20
27.525052
 30
0.0
 10
27.132320
 20
27.514114
 30
0.0
  0
SPLINE
  5
286
100
AcDbEntity
  8
Layer_1
 62
3
100
AcDbSpline
 70
8
 71
3
 72
8
 73
4
 74
0
 40
0
 40
0
 40
0
 40
0
 40
1
 40
1
 40
1
 40
1
 10
27.132320
 20
27.514114
 30
0.0
 10
27.143256
 20
27.503176
 30
0.0
 10
27.157233
 20
27.497707
 30
0.0
 10
27.174251
 20
27.497707
 30
0.0
  0
LINE
  5
287
100
AcDbEntity
  8
Layer_1
 62
3
100
AcDbLine
 10
27.174251
 20
27.497707
 30
0.0
 11
27.407627
 21
27.497704
 31
0.0
  0
SPLINE
  5
288
100
AcDbEntity
  8
Layer_1
 62
3
100
AcDbSpline
 70
8
 71
3
 72
8
 73
4
 74
0
 40
0
 40
0
 40
0
 40
0
 40
1
 40
1
 40
1
 40
1
 10
26.824257
 20
28.197748
 30
0.0
 10
26.841279
 20
28.197748
 30
0.0
 10
26.855255
 20
28.203521
 30
0.0
 10
26.866186
 20
28.215067
 30
0.0
  0
SPLINE
  5
289
100
AcDbEntity
  8
Layer_1
 62
3
100
AcDbSpline
 70
8
 71
3
 72
8
 73
4
 74
0
 40
0
 40
0
 40
0
 40
0
 40
1
 40
1
 40
1
 40
1
 10
26.866186
 20
28.215067
 30
0.0
 10
26.877122
 20
28.226614
 30
0.0
 10
26.882590
 20
28.240286
 30
0.0
 10
26.882590
 20
28.256085
 30
0.0
  0
LINE
  5
28a
100
AcDbEntity
  8
Layer_1
 62
3
100
AcDbLine
 10
26.882590
 20
28.256085
 30
0.0
 11
26.882590
 21
28.606107
 31
0.0
  0
SPLINE
  5
28b
100
AcDbEntity
  8
Layer_1
 62
3
100
AcDbSpline
 70
8
 71
3
 72
8
 73
4
 74
0
 40
0
 40
0
 40
0
 40
0
 40
1
 40
1
 40
1
 40
1
 10
26.882590
 20
28.606107
 30
0.0
 10
26.882590
 20
28.621906
 30
0.0
 10
26.876813
 20
28.635579
 30
0.0
 10
26.865260
 20
28.647125
 30
0.0
  0
SPLINE
  5
28c
100
AcDbEntity
  8
Layer_1
 62
3
100
AcDbSpline
 70
8
 71
3
 72
8
 73
4
 74
0
 40
0
 40
0
 40
0
 40
0
 40
1
 40
1
 40
1
 40
1
 10
26.865260
 20
28.647125
 30
0.0
 10
26.853706
 20
28.658672
 30
0.0
 10
26.840034
 20
28.664445
 30
0.0
 10
26.824241
 20
28.664445
 30
0.0
  0
LINE
  5
28d
100
AcDbEntity
  8
Layer_1
 62
3
100
AcDbLine
 10
26.824241
 20
28.664445
 30
0.0
 11
26.590892
 21
28.664445
 31
0.0
  0
SPLINE
  5
28e
100
AcDbEntity
  8
Layer_1
 62
3
100
AcDbSpline
 70
8
 71
3
 72
8
 73
4
 74
0
 40
0
 40
0
 40
0
 40
0
 40
1
 40
1
 40
1
 40
1
 10
26.590892
 20
28.664445
 30
0.0
 10
26.575088
 20
28.664445
 30
0.0
 10
26.561416
 20
28.658976
 30
0.0
 10
26.549877
 20
28.648038
 30
0.0
  0
SPLINE
  5
28f
100
AcDbEntity
  8
Layer_1
 62
3
100
AcDbSpline
 70
8
 71
3
 72
8
 73
4
 74
0
 40
0
 40
0
 40
0
 40
0
 40
1
 40
1
 40
1
 40
1
 10
26.549877
 20
28.648038
 30
0.0
 10
26.538323
 20
28.637100
 30
0.0
 10
26.532546
 20
28.623124
 30
0.0
 10
26.532546
 20
28.606108
 30
0.0
  0
LINE
  5
290
100
AcDbEntity
  8
Layer_1
 62
3
100
AcDbLine
 10
26.532546
 20
28.606108
 30
0.0
 11
26.532546
 21
28.256087
 31
0.0
  0
SPLINE
  5
291
100
AcDbEntity
  8
Layer_1
 62
3
100
AcDbSpline
 70
8
 71
3
 72
8
 73
4
 74
0
 40
0
 40
0
 40
0
 40
0
 40
1
 40
1
 40
1
 40
1
 10
26.532546
 20
28.256087
 30
0.0
 10
26.532546
 20
28.239072
 30
0.0
 10
26.538014
 20
28.225096
 30
0.0
 10
26.548950
 20
28.214157
 30
0.0
  0
SPLINE
  5
292
100
AcDbEntity
  8
Layer_1
 62
3
100
AcDbSpline
 70
8
 71
3
 72
8
 73
4
 74
0
 40
0
 40
0
 40
0
 40
0
 40
1
 40
1
 40
1
 40
1
 10
26.548950
 20
28.214157
 30
0.0
 10
26.559887
 20
28.203219
 30
0.0
 10
26.573863
 20
28.197750
 30
0.0
 10
26.590879
 20
28.197750
 30
0.0
  0
LINE
  5
293
100
AcDbEntity
  8
Layer_1
 62
3
100
AcDbLine
 10
26.590879
 20
28.197750
 30
0.0
 11
26.824257
 21
28.197748
 31
0.0
  0
SPLINE
  5
294
100
AcDbEntity
  8
Layer_1
 62
3
100
AcDbSpline
 70
8
 71
3
 72
8
 73
4
 74
0
 40
0
 40
0
 40
0
 40
0
 40
1
 40
1
 40
1
 40
1
 10
27.407627
 20
28.197748
 30
0.0
 10
27.424648
 20
28.197748
 30
0.0
 10
27.438624
 20
28.203521
 30
0.0
 10
27.449555
 20
28.215067
 30
0.0
  0
SPLINE
  5
295
100
AcDbEntity
  8
Layer_1
 62
3
100
AcDbSpline
 70
8
 71
3
 72
8
 73
4
 74
0
 40
0
 40
0
 40
0
 40
0
 40
1
 40
1
 40
1
 40
1
 10
27.449555
 20
28.215067
 30
0.0
 10
27.460491
 20
28.226614
 30
0.0
 10
27.465959
 20
28.240286
 30
0.0
 10
27.465959
 20
28.256085
 30
0.0
  0
LINE
  5
296
100
AcDbEntity
  8
Layer_1
 62
3
100
AcDbLine
 10
27.465959
 20
28.256085
 30
0.0
 11
27.465959
 21
28.606107
 31
0.0
  0
SPLINE
  5
297
100
AcDbEntity
  8
Layer_1
 62
3
100
AcDbSpline
 70
8
 71
3
 72
8
 73
4
 74
0
 40
0
 40
0
 40
0
 40
0
 40
1
 40
1
 40
1
 40
1
 10
27.465959
 20
28.606107
 30
0.0
 10
27.465959
 20
28.621906
 30
0.0
 10
27.460183
 20
28.635579
 30
0.0
 10
27.448629
 20
28.647125
 30
0.0
  0
SPLINE
  5
298
100
AcDbEntity
  8
Layer_1
 62
3
100
AcDbSpline
 70
8
 71
3
 72
8
 73
4
 74
0
 40
0
 40
0
 40
0
 40
0
 40
1
 40
1
 40
1
 40
1
 10
27.448629
 20
28.647125
 30
0.0
 10
27.437076
 20
28.658672
 30
0.0
 10
27.423403
 20
28.664445
 30
0.0
 10
27.407611
 20
28.664445
 30
0.0
  0
LINE
  5
299
100
AcDbEntity
  8
Layer_1
 62
3
100
AcDbLine
 10
27.407611
 20
28.664445
 30
0.0
 11
27.174264
 21
28.664445
 31
0.0
  0
SPLINE
  5
29a
100
AcDbEntity
  8
Layer_1
 62
3
100
AcDbSpline
 70
8
 71
3
 72
8
 73
4
 74
0
 40
0
 40
0
 40
0
 40
0
 40
1
 40
1
 40
1
 40
1
 10
27.174264
 20
28.664445
 30
0.0
 10
27.158460
 20
28.664445
 30
0.0
 10
27.144787
 20
28.658976
 30
0.0
 10
27.133246
 20
28.648038
 30
0.0
  0
SPLINE
  5
29b
100
AcDbEntity
  8
Layer_1
 62
3
100
AcDbSpline
 70
8
 71
3
 72
8
 73
4
 74
0
 40
0
 40
0
 40
0
 40
0
 40
1
 40
1
 40
1
 40
1
 10
27.133246
 20
28.648038
 30
0.0
 10
27.121692
 20
28.637100
 30
0.0
 10
27.115916
 20
28.623124
 30
0.0
 10
27.115916
 20
28.606108
 30
0.0
  0
LINE
  5
29c
100
AcDbEntity
  8
Layer_1
 62
3
100
AcDbLine
 10
27.115916
 20
28.606108
 30
0.0
 11
27.115916
 21
28.256087
 31
0.0
  0
SPLINE
  5
29d
100
AcDbEntity
  8
Layer_1
 62
3
100
AcDbSpline
 70
8
 71
3
 72
8
 73
4
 74
0
 40
0
 40
0
 40
0
 40
0
 40
1
 40
1
 40
1
 40
1
 10
27.115916
 20
28.256087
 30
0.0
 10
27.115916
 20
28.239072
 30
0.0
 10
27.121384
 20
28.225096
 30
0.0
 10
27.132320
 20
28.214157
 30
0.0
  0
SPLINE
  5
29e
100
AcDbEntity
  8
Layer_1
 62
3
100
AcDbSpline
 70
8
 71
3
 72
8
 73
4
 74
0
 40
0
 40
0
 40
0
 40
0
 40
1
 40
1
 40
1
 40
1
 10
27.132320
 20
28.214157
 30
0.0
 10
27.143256
 20
28.203219
 30
0.0
 10
27.157233
 20
28.197750
 30
0.0
 10
27.174251
 20
28.197750
 30
0.0
  0
LINE
  5
29f
100
AcDbEntity
  8
Layer_1
 62
3
100
AcDbLine
 10
27.174251
 20
28.197750
 30
0.0
 11
27.407627
 21
28.197748
 31
0.0
  0
SPLINE
  5
2a0
100
AcDbEntity
  8
Layer_1
 62
3
100
AcDbSpline
 70
8
 71
3
 72
8
 73
4
 74
0
 40
0
 40
0
 40
0
 40
0
 40
1
 40
1
 40
1
 40
1
 10
26.415899
 20
27.264357
 30
0.0
 10
26.399495
 20
27.264357
 30
0.0
 10
26.384000
 20
27.267395
 30
0.0
 10
26.369412
 20
27.273471
 30
0.0
  0
SPLINE
  5
2a1
100
AcDbEntity
  8
Layer_1
 62
3
100
AcDbSpline
 70
8
 71
3
 72
8
 73
4
 74
0
 40
0
 40
0
 40
0
 40
0
 40
1
 40
1
 40
1
 40
1
 10
26.369412
 20
27.273471
 30
0.0
 10
26.355442
 20
27.279548
 30
0.0
 10
26.343288
 20
27.287752
 30
0.0
 10
26.332950
 20
27.298083
 30
0.0
  0
SPLINE
  5
2a2
100
AcDbEntity
  8
Layer_1
 62
3
100
AcDbSpline
 70
8
 71
3
 72
8
 73
4
 74
0
 40
0
 40
0
 40
0
 40
0
 40
1
 40
1
 40
1
 40
1
 10
26.332950
 20
27.298083
 30
0.0
 10
26.322614
 20
27.308414
 30
0.0
 10
26.314411
 20
27.320568
 30
0.0
 10
26.308344
 20
27.334544
 30
0.0
  0
SPLINE
  5
2a3
100
AcDbEntity
  8
Layer_1
 62
3
100
AcDbSpline
 70
8
 71
3
 72
8
 73
4
 74
0
 40
0
 40
0
 40
0
 40
0
 40
1
 40
1
 40
1
 40
1
 10
26.308344
 20
27.334544
 30
0.0
 10
26.302258
 20
27.349127
 30
0.0
 10
26.299216
 20
27.364623
 30
0.0
 10
26.299216
 20
27.381031
 30
0.0
  0
LINE
  5
2a4
100
AcDbEntity
  8
Layer_1
 62
3
100
AcDbLine
 10
26.299216
 20
27.381031
 30
0.0
 11
26.299216
 21
28.781118
 31
0.0
  0
SPLINE
  5
2a5
100
AcDbEntity
  8
Layer_1
 62
3
100
AcDbSpline
 70
8
 71
3
 72
8
 73
4
 74
0
 40
0
 40
0
 40
0
 40
0
 40
1
 40
1
 40
1
 40
1
 10
26.299216
 20
28.781118
 30
0.0
 10
26.299216
 20
28.796917
 30
0.0
 10
26.302258
 20
28.811805
 30
0.0
 10
26.308344
 20
28.825782
 30
0.0
  0
SPLINE
  5
2a6
100
AcDbEntity
  8
Layer_1
 62
3
100
AcDbSpline
 70
8
 71
3
 72
8
 73
4
 74
0
 40
0
 40
0
 40
0
 40
0
 40
1
 40
1
 40
1
 40
1
 10
26.308344
 20
28.825782
 30
0.0
 10
26.315029
 20
28.839759
 30
0.0
 10
26.323540
 20
28.851912
 30
0.0
 10
26.333876
 20
28.862243
 30
0.0
  0
SPLINE
  5
2a7
100
AcDbEntity
  8
Layer_1
 62
3
100
AcDbSpline
 70
8
 71
3
 72
8
 73
4
 74
0
 40
0
 40
0
 40
0
 40
0
 40
1
 40
1
 40
1
 40
1
 10
26.333876
 20
28.862243
 30
0.0
 10
26.344812
 20
28.873180
 30
0.0
 10
26.357270
 20
28.881688
 30
0.0
 10
26.371248
 20
28.887764
 30
0.0
  0
SPLINE
  5
2a8
100
AcDbEntity
  8
Layer_1
 62
3
100
AcDbSpline
 70
8
 71
3
 72
8
 73
4
 74
0
 40
0
 40
0
 40
0
 40
0
 40
1
 40
1
 40
1
 40
1
 10
26.371248
 20
28.887764
 30
0.0
 10
26.385218
 20
28.894449
 30
0.0
 10
26.400106
 20
28.897792
 30
0.0
 10
26.415913
 20
28.897792
 30
0.0
  0
LINE
  5
2a9
100
AcDbEntity
  8
Layer_1
 62
3
100
AcDbLine
 10
26.415913
 20
28.897792
 30
0.0
 11
27.582651
 21
28.897792
 31
0.0
  0
SPLINE
  5
2aa
100
AcDbEntity
  8
Layer_1
 62
3
100
AcDbSpline
 70
8
 71
3
 72
8
 73
4
 74
0
 40
0
 40
0
 40
0
 40
0
 40
1
 40
1
 40
1
 40
1
 10
27.582651
 20
28.897792
 30
0.0
 10
27.598456
 20
28.897792
 30
0.0
 10
27.613344
 20
28.894449
 30
0.0
 10
27.627315
 20
28.887764
 30
0.0
  0
SPLINE
  5
2ab
100
AcDbEntity
  8
Layer_1
 62
3
100
AcDbSpline
 70
8
 71
3
 72
8
 73
4
 74
0
 40
0
 40
0
 40
0
 40
0
 40
1
 40
1
 40
1
 40
1
 10
27.627315
 20
28.887764
 30
0.0
 10
27.641285
 20
28.881688
 30
0.0
 10
27.653439
 20
28.873180
 30
0.0
 10
27.663775
 20
28.862243
 30
0.0
  0
SPLINE
  5
2ac
100
AcDbEntity
  8
Layer_1
 62
3
100
AcDbSpline
 70
8
 71
3
 72
8
 73
4
 74
0
 40
0
 40
0
 40
0
 40
0
 40
1
 40
1
 40
1
 40
1
 10
27.663775
 20
28.862243
 30
0.0
 10
27.674711
 20
28.851911
 30
0.0
 10
27.683222
 20
28.839758
 30
0.0
 10
27.689307
 20
28.825782
 30
0.0
  0
SPLINE
  5
2ad
100
AcDbEntity
  8
Layer_1
 62
3
100
AcDbSpline
 70
8
 71
3
 72
8
 73
4
 74
0
 40
0
 40
0
 40
0
 40
0
 40
1
 40
1
 40
1
 40
1
 10
27.689307
 20
28.825782
 30
0.0
 10
27.695992
 20
28.811805
 30
0.0
 10
27.699335
 20
28.796917
 30
0.0
 10
27.699335
 20
28.781118
 30
0.0
  0
LINE
  5
2ae
100
AcDbEntity
  8
Layer_1
 62
3
100
AcDbLine
 10
27.699335
 20
28.781118
 30
0.0
 11
27.699335
 21
27.381031
 31
0.0
  0
SPLINE
  5
2af
100
AcDbEntity
  8
Layer_1
 62
3
100
AcDbSpline
 70
8
 71
3
 72
8
 73
4
 74
0
 40
0
 40
0
 40
0
 40
0
 40
1
 40
1
 40
1
 40
1
 10
27.699335
 20
27.381031
 30
0.0
 10
27.699335
 20
27.365232
 30
0.0
 10
27.695992
 20
27.350344
 30
0.0
 10
27.689307
 20
27.336367
 30
0.0
  0
SPLINE
  5
2b0
100
AcDbEntity
  8
Layer_1
 62
3
100
AcDbSpline
 70
8
 71
3
 72
8
 73
4
 74
0
 40
0
 40
0
 40
0
 40
0
 40
1
 40
1
 40
1
 40
1
 10
27.689307
 20
27.336367
 30
0.0
 10
27.683240
 20
27.322390
 30
0.0
 10
27.674729
 20
27.309932
 30
0.0
 10
27.663775
 20
27.298994
 30
0.0
  0
SPLINE
  5
2b1
100
AcDbEntity
  8
Layer_1
 62
3
100
AcDbSpline
 70
8
 71
3
 72
8
 73
4
 74
0
 40
0
 40
0
 40
0
 40
0
 40
1
 40
1
 40
1
 40
1
 10
27.663775
 20
27.298994
 30
0.0
 10
27.653439
 20
27.288663
 30
0.0
 10
27.641285
 20
27.280156
 30
0.0
 10
27.627315
 20
27.273473
 30
0.0
  0
SPLINE
  5
2b2
100
AcDbEntity
  8
Layer_1
 62
3
100
AcDbSpline
 70
8
 71
3
 72
8
 73
4
 74
0
 40
0
 40
0
 40
0
 40
0
 40
1
 40
1
 40
1
 40
1
 10
27.627315
 20
27.273473
 30
0.0
 10
27.613345
 20
27.267396
 30
0.0
 10
27.598457
 20
27.264358
 30
0.0
 10
27.582651
 20
27.264358
 30
0.0
  0
LINE
  5
2b3
100
AcDbEntity
  8
Layer_1
 62
3
100
AcDbLine
 10
27.582651
 20
27.264358
 30
0.0
 11
26.415899
 21
27.264357
 31
0.0
  0
SPLINE
  5
2b4
100
AcDbEntity
  8
Layer_1
 62
3
100
AcDbSpline
 70
8
 71
3
 72
8
 73
4
 74
0
 40
0
 40
0
 40
0
 40
0
 40
1
 40
1
 40
1
 40
1
 10
31.557928
 20
27.264357
 30
0.0
 10
31.541524
 20
27.264357
 30
0.0
 10
31.526028
 20
27.267395
 30
0.0
 10
31.511441
 20
27.273471
 30
0.0
  0
SPLINE
  5
2b5
100
AcDbEntity
  8
Layer_1
 62
3
100
AcDbSpline
 70
8
 71
3
 72
8
 73
4
 74
0
 40
0
 40
0
 40
0
 40
0
 40
1
 40
1
 40
1
 40
1
 10
31.511441
 20
27.273471
 30
0.0
 10
31.497471
 20
27.279548
 30
0.0
 10
31.485318
 20
27.287752
 30
0.0
 10
31.474981
 20
27.298083
 30
0.0
  0
SPLINE
  5
2b6
100
AcDbEntity
  8
Layer_1
 62
3
100
AcDbSpline
 70
8
 71
3
 72
8
 73
4
 74
0
 40
0
 40
0
 40
0
 40
0
 40
1
 40
1
 40
1
 40
1
 10
31.474981
 20
27.298083
 30
0.0
 10
31.464645
 20
27.308414
 30
0.0
 10
31.456443
 20
27.320568
 30
0.0
 10
31.450375
 20
27.334544
 30
0.0
  0
SPLINE
  5
2b7
100
AcDbEntity
  8
Layer_1
 62
3
100
AcDbSpline
 70
8
 71
3
 72
8
 73
4
 74
0
 40
0
 40
0
 40
0
 40
0
 40
1
 40
1
 40
1
 40
1
 10
31.450375
 20
27.334544
 30
0.0
 10
31.444307
 20
27.349127
 30
0.0
 10
31.441274
 20
27.364623
 30
0.0
 10
31.441274
 20
27.381031
 30
0.0
  0
LINE
  5
2b8
100
AcDbEntity
  8
Layer_1
 62
3
100
AcDbLine
 10
31.441274
 20
27.381031
 30
0.0
 11
31.441274
 21
28.606107
 31
0.0
  0
SPLINE
  5
2b9
100
AcDbEntity
  8
Layer_1
 62
3
100
AcDbSpline
 70
8
 71
3
 72
8
 73
4
 74
0
 40
0
 40
0
 40
0
 40
0
 40
1
 40
1
 40
1
 40
1
 10
31.441274
 20
28.606107
 30
0.0
 10
31.441274
 20
28.621906
 30
0.0
 10
31.435497
 20
28.635579
 30
0.0
 10
31.423943
 20
28.647125
 30
0.0
  0
SPLINE
  5
2ba
100
AcDbEntity
  8
Layer_1
 62
3
100
AcDbSpline
 70
8
 71
3
 72
8
 73
4
 74
0
 40
0
 40
0
 40
0
 40
0
 40
1
 40
1
 40
1
 40
1
 10
31.423943
 20
28.647125
 30
0.0
 10
31.412408
 20
28.658671
 30
0.0
 10
31.398735
 20
28.664445
 30
0.0
 10
31.382925
 20
28.664445
 30
0.0
  0
LINE
  5
2bb
100
AcDbEntity
  8
Layer_1
 62
3
100
AcDbLine
 10
31.382925
 20
28.664445
 30
0.0
 11
31.149578
 21
28.664445
 31
0.0
  0
SPLINE
  5
2bc
100
AcDbEntity
  8
Layer_1
 62
3
100
AcDbSpline
 70
8
 71
3
 72
8
 73
4
 74
0
 40
0
 40
0
 40
0
 40
0
 40
1
 40
1
 40
1
 40
1
 10
31.149578
 20
28.664445
 30
0.0
 10
31.133774
 20
28.664445
 30
0.0
 10
31.120101
 20
28.658976
 30
0.0
 10
31.108560
 20
28.648038
 30
0.0
  0
SPLINE
  5
2bd
100
AcDbEntity
  8
Layer_1
 62
3
100
AcDbSpline
 70
8
 71
3
 72
8
 73
4
 74
0
 40
0
 40
0
 40
0
 40
0
 40
1
 40
1
 40
1
 40
1
 10
31.108560
 20
28.648038
 30
0.0
 10
31.097007
 20
28.637100
 30
0.0
 10
31.091230
 20
28.623123
 30
0.0
 10
31.091230
 20
28.606108
 30
0.0
  0
LINE
  5
2be
100
AcDbEntity
  8
Layer_1
 62
3
100
AcDbLine
 10
31.091230
 20
28.606108
 30
0.0
 11
31.091230
 21
28.022739
 31
0.0
  0
SPLINE
  5
2bf
100
AcDbEntity
  8
Layer_1
 62
3
100
AcDbSpline
 70
8
 71
3
 72
8
 73
4
 74
0
 40
0
 40
0
 40
0
 40
0
 40
1
 40
1
 40
1
 40
1
 10
31.091230
 20
28.022739
 30
0.0
 10
31.091230
 20
28.006939
 30
0.0
 10
31.085762
 20
27.993267
 30
0.0
 10
31.074826
 20
27.981721
 30
0.0
  0
SPLINE
  5
2c0
100
AcDbEntity
  8
Layer_1
 62
3
100
AcDbSpline
 70
8
 71
3
 72
8
 73
4
 74
0
 40
0
 40
0
 40
0
 40
0
 40
1
 40
1
 40
1
 40
1
 10
31.074826
 20
27.981721
 30
0.0
 10
31.063890
 20
27.970174
 30
0.0
 10
31.049913
 20
27.964401
 30
0.0
 10
31.032897
 20
27.964401
 30
0.0
  0
LINE
  5
2c1
100
AcDbEntity
  8
Layer_1
 62
3
100
AcDbLine
 10
31.032897
 20
27.964401
 30
0.0
 11
30.916224
 21
27.964401
 31
0.0
  0
SPLINE
  5
2c2
100
AcDbEntity
  8
Layer_1
 62
3
100
AcDbSpline
 70
8
 71
3
 72
8
 73
4
 74
0
 40
0
 40
0
 40
0
 40
0
 40
1
 40
1
 40
1
 40
1
 10
30.916224
 20
27.964401
 30
0.0
 10
30.899202
 20
27.964401
 30
0.0
 10
30.885225
 20
27.969870
 30
0.0
 10
30.874293
 20
27.980808
 30
0.0
  0
SPLINE
  5
2c3
100
AcDbEntity
  8
Layer_1
 62
3
100
AcDbSpline
 70
8
 71
3
 72
8
 73
4
 74
0
 40
0
 40
0
 40
0
 40
0
 40
1
 40
1
 40
1
 40
1
 10
30.874293
 20
27.980808
 30
0.0
 10
30.863357
 20
27.991746
 30
0.0
 10
30.857889
 20
28.005722
 30
0.0
 10
30.857889
 20
28.022737
 30
0.0
  0
LINE
  5
2c4
100
AcDbEntity
  8
Layer_1
 62
3
100
AcDbLine
 10
30.857889
 20
28.022737
 30
0.0
 11
30.857889
 21
28.781118
 31
0.0
  0
SPLINE
  5
2c5
100
AcDbEntity
  8
Layer_1
 62
3
100
AcDbSpline
 70
8
 71
3
 72
8
 73
4
 74
0
 40
0
 40
0
 40
0
 40
0
 40
1
 40
1
 40
1
 40
1
 10
30.857889
 20
28.781118
 30
0.0
 10
30.857889
 20
28.796917
 30
0.0
 10
30.860931
 20
28.811805
 30
0.0
 10
30.867017
 20
28.825782
 30
0.0
  0
SPLINE
  5
2c6
100
AcDbEntity
  8
Layer_1
 62
3
100
AcDbSpline
 70
8
 71
3
 72
8
 73
4
 74
0
 40
0
 40
0
 40
0
 40
0
 40
1
 40
1
 40
1
 40
1
 10
30.867017
 20
28.825782
 30
0.0
 10
30.873702
 20
28.839759
 30
0.0
 10
30.882213
 20
28.851912
 30
0.0
 10
30.892549
 20
28.862243
 30
0.0
  0
SPLINE
  5
2c7
100
AcDbEntity
  8
Layer_1
 62
3
100
AcDbSpline
 70
8
 71
3
 72
8
 73
4
 74
0
 40
0
 40
0
 40
0
 40
0
 40
1
 40
1
 40
1
 40
1
 10
30.892549
 20
28.862243
 30
0.0
 10
30.903485
 20
28.873180
 30
0.0
 10
30.915942
 20
28.881688
 30
0.0
 10
30.929921
 20
28.887764
 30
0.0
  0
SPLINE
  5
2c8
100
AcDbEntity
  8
Layer_1
 62
3
100
AcDbSpline
 70
8
 71
3
 72
8
 73
4
 74
0
 40
0
 40
0
 40
0
 40
0
 40
1
 40
1
 40
1
 40
1
 10
30.929921
 20
28.887764
 30
0.0
 10
30.943891
 20
28.894449
 30
0.0
 10
30.958779
 20
28.897792
 30
0.0
 10
30.974586
 20
28.897792
 30
0.0
  0
LINE
  5
2c9
100
AcDbEntity
  8
Layer_1
 62
3
100
AcDbLine
 10
30.974586
 20
28.897792
 30
0.0
 11
31.557955
 21
28.897792
 31
0.0
  0
SPLINE
  5
2ca
100
AcDbEntity
  8
Layer_1
 62
3
100
AcDbSpline
 70
8
 71
3
 72
8
 73
4
 74
0
 40
0
 40
0
 40
0
 40
0
 40
1
 40
1
 40
1
 40
1
 10
31.557955
 20
28.897792
 30
0.0
 10
31.573759
 20
28.897792
 30
0.0
 10
31.588647
 20
28.894449
 30
0.0
 10
31.602619
 20
28.887764
 30
0.0
  0
SPLINE
  5
2cb
100
AcDbEntity
  8
Layer_1
 62
3
100
AcDbSpline
 70
8
 71
3
 72
8
 73
4
 74
0
 40
0
 40
0
 40
0
 40
0
 40
1
 40
1
 40
1
 40
1
 10
31.602619
 20
28.887764
 30
0.0
 10
31.616589
 20
28.881688
 30
0.0
 10
31.628743
 20
28.873180
 30
0.0
 10
31.639081
 20
28.862243
 30
0.0
  0
SPLINE
  5
2cc
100
AcDbEntity
  8
Layer_1
 62
3
100
AcDbSpline
 70
8
 71
3
 72
8
 73
4
 74
0
 40
0
 40
0
 40
0
 40
0
 40
1
 40
1
 40
1
 40
1
 10
31.639081
 20
28.862243
 30
0.0
 10
31.650017
 20
28.851911
 30
0.0
 10
31.658528
 20
28.839758
 30
0.0
 10
31.664614
 20
28.825782
 30
0.0
  0
SPLINE
  5
2cd
100
AcDbEntity
  8
Layer_1
 62
3
100
AcDbSpline
 70
8
 71
3
 72
8
 73
4
 74
0
 40
0
 40
0
 40
0
 40
0
 40
1
 40
1
 40
1
 40
1
 10
31.664614
 20
28.825782
 30
0.0
 10
31.671299
 20
28.811805
 30
0.0
 10
31.674641
 20
28.796917
 30
0.0
 10
31.674641
 20
28.781118
 30
0.0
  0
LINE
  5
2ce
100
AcDbEntity
  8
Layer_1
 62
3
100
AcDbLine
 10
31.674641
 20
28.781118
 30
0.0
 11
31.674641
 21
27.556042
 31
0.0
  0
SPLINE
  5
2cf
100
AcDbEntity
  8
Layer_1
 62
3
100
AcDbSpline
 70
8
 71
3
 72
8
 73
4
 74
0
 40
0
 40
0
 40
0
 40
0
 40
1
 40
1
 40
1
 40
1
 10
31.674641
 20
27.556042
 30
0.0
 10
31.674641
 20
27.539027
 30
0.0
 10
31.680109
 20
27.525051
 30
0.0
 10
31.691046
 20
27.514112
 30
0.0
  0
SPLINE
  5
2d0
100
AcDbEntity
  8
Layer_1
 62
3
100
AcDbSpline
 70
8
 71
3
 72
8
 73
4
 74
0
 40
0
 40
0
 40
0
 40
0
 40
1
 40
1
 40
1
 40
1
 10
31.691046
 20
27.514112
 30
0.0
 10
31.701982
 20
27.503174
 30
0.0
 10
31.715958
 20
27.497705
 30
0.0
 10
31.732974
 20
27.497705
 30
0.0
  0
LINE
  5
2d1
100
AcDbEntity
  8
Layer_1
 62
3
100
AcDbLine
 10
31.732974
 20
27.497705
 30
0.0
 11
31.966321
 21
27.497705
 31
0.0
  0
SPLINE
  5
2d2
100
AcDbEntity
  8
Layer_1
 62
3
100
AcDbSpline
 70
8
 71
3
 72
8
 73
4
 74
0
 40
0
 40
0
 40
0
 40
0
 40
1
 40
1
 40
1
 40
1
 10
31.966321
 20
27.497705
 30
0.0
 10
31.983342
 20
27.497705
 30
0.0
 10
31.997319
 20
27.503479
 30
0.0
 10
32.008252
 20
27.515025
 30
0.0
  0
SPLINE
  5
2d3
100
AcDbEntity
  8
Layer_1
 62
3
100
AcDbSpline
 70
8
 71
3
 72
8
 73
4
 74
0
 40
0
 40
0
 40
0
 40
0
 40
1
 40
1
 40
1
 40
1
 10
32.008252
 20
27.515025
 30
0.0
 10
32.019188
 20
27.526571
 30
0.0
 10
32.024656
 20
27.540244
 30
0.0
 10
32.024656
 20
27.556043
 30
0.0
  0
LINE
  5
2d4
100
AcDbEntity
  8
Layer_1
 62
3
100
AcDbLine
 10
32.024656
 20
27.556043
 30
0.0
 11
32.024656
 21
28.139412
 31
0.0
  0
SPLINE
  5
2d5
100
AcDbEntity
  8
Layer_1
 62
3
100
AcDbSpline
 70
8
 71
3
 72
8
 73
4
 74
0
 40
0
 40
0
 40
0
 40
0
 40
1
 40
1
 40
1
 40
1
 10
32.024656
 20
28.139412
 30
0.0
 10
32.024656
 20
28.156427
 30
0.0
 10
32.030433
 20
28.170404
 30
0.0
 10
32.041986
 20
28.181342
 30
0.0
  0
SPLINE
  5
2d6
100
AcDbEntity
  8
Layer_1
 62
3
100
AcDbSpline
 70
8
 71
3
 72
8
 73
4
 74
0
 40
0
 40
0
 40
0
 40
0
 40
1
 40
1
 40
1
 40
1
 10
32.041986
 20
28.181342
 30
0.0
 10
32.053522
 20
28.192280
 30
0.0
 10
32.067195
 20
28.197749
 30
0.0
 10
32.083005
 20
28.197749
 30
0.0
  0
LINE
  5
2d7
100
AcDbEntity
  8
Layer_1
 62
3
100
AcDbLine
 10
32.083005
 20
28.197749
 30
0.0
 11
32.199678
 21
28.197749
 31
0.0
  0
SPLINE
  5
2d8
100
AcDbEntity
  8
Layer_1
 62
3
100
AcDbSpline
 70
8
 71
3
 72
8
 73
4
 74
0
 40
0
 40
0
 40
0
 40
0
 40
1
 40
1
 40
1
 40
1
 10
32.199678
 20
28.197749
 30
0.0
 10
32.215482
 20
28.197749
 30
0.0
 10
32.229155
 20
28.191976
 30
0.0
 10
32.240696
 20
28.180430
 30
0.0
  0
SPLINE
  5
2d9
100
AcDbEntity
  8
Layer_1
 62
3
100
AcDbSpline
 70
8
 71
3
 72
8
 73
4
 74
0
 40
0
 40
0
 40
0
 40
0
 40
1
 40
1
 40
1
 40
1
 10
32.240696
 20
28.180430
 30
0.0
 10
32.252250
 20
28.168883
 30
0.0
 10
32.258026
 20
28.155210
 30
0.0
 10
32.258026
 20
28.139411
 30
0.0
  0
LINE
  5
2da
100
AcDbEntity
  8
Layer_1
 62
3
100
AcDbLine
 10
32.258026
 20
28.139411
 30
0.0
 11
32.258026
 21
27.381031
 31
0.0
  0
SPLINE
  5
2db
100
AcDbEntity
  8
Layer_1
 62
3
100
AcDbSpline
 70
8
 71
3
 72
8
 73
4
 74
0
 40
0
 40
0
 40
0
 40
0
 40
1
 40
1
 40
1
 40
1
 10
32.258026
 20
27.381031
 30
0.0
 10
32.258026
 20
27.365232
 30
0.0
 10
32.254684
 20
27.350344
 30
0.0
 10
32.247999
 20
27.336367
 30
0.0
  0
SPLINE
  5
2dc
100
AcDbEntity
  8
Layer_1
 62
3
100
AcDbSpline
 70
8
 71
3
 72
8
 73
4
 74
0
 40
0
 40
0
 40
0
 40
0
 40
1
 40
1
 40
1
 40
1
 10
32.247999
 20
27.336367
 30
0.0
 10
32.241931
 20
27.322390
 30
0.0
 10
32.233420
 20
27.309932
 30
0.0
 10
32.222466
 20
27.298994
 30
0.0
  0
SPLINE
  5
2dd
100
AcDbEntity
  8
Layer_1
 62
3
100
AcDbSpline
 70
8
 71
3
 72
8
 73
4
 74
0
 40
0
 40
0
 40
0
 40
0
 40
1
 40
1
 40
1
 40
1
 10
32.222466
 20
27.298994
 30
0.0
 10
32.212130
 20
27.288663
 30
0.0
 10
32.199976
 20
27.280156
 30
0.0
 10
32.186004
 20
27.273473
 30
0.0
  0
SPLINE
  5
2de
100
AcDbEntity
  8
Layer_1
 62
3
100
AcDbSpline
 70
8
 71
3
 72
8
 73
4
 74
0
 40
0
 40
0
 40
0
 40
0
 40
1
 40
1
 40
1
 40
1
 10
32.186004
 20
27.273473
 30
0.0
 10
32.172034
 20
27.267396
 30
0.0
 10
32.157146
 20
27.264358
 30
0.0
 10
32.141340
 20
27.264358
 30
0.0
  0
LINE
  5
2df
100
AcDbEntity
  8
Layer_1
 62
3
100
AcDbLine
 10
32.141340
 20
27.264358
 30
0.0
 11
31.557928
 21
27.264357
 31
0.0
  0
SPLINE
  5
2e0
100
AcDbEntity
  8
Layer_1
 62
3
100
AcDbSpline
 70
8
 71
3
 72
8
 73
4
 74
0
 40
0
 40
0
 40
0
 40
0
 40
1
 40
1
 40
1
 40
1
 10
5.208249
 20
24.424277
 30
0.0
 10
5.225270
 20
24.424277
 30
0.0
 10
5.239247
 20
24.430050
 30
0.0
 10
5.250180
 20
24.441597
 30
0.0
  0
SPLINE
  5
2e1
100
AcDbEntity
  8
Layer_1
 62
3
100
AcDbSpline
 70
8
 71
3
 72
8
 73
4
 74
0
 40
0
 40
0
 40
0
 40
0
 40
1
 40
1
 40
1
 40
1
 10
5.250180
 20
24.441597
 30
0.0
 10
5.261116
 20
24.453143
 30
0.0
 10
5.266584
 20
24.466816
 30
0.0
 10
5.266584
 20
24.482615
 30
0.0
  0
LINE
  5
2e2
100
AcDbEntity
  8
Layer_1
 62
3
100
AcDbLine
 10
5.266584
 20
24.482615
 30
0.0
 11
5.266584
 21
25.299332
 31
0.0
  0
SPLINE
  5
2e3
100
AcDbEntity
  8
Layer_1
 62
3
100
AcDbSpline
 70
8
 71
3
 72
8
 73
4
 74
0
 40
0
 40
0
 40
0
 40
0
 40
1
 40
1
 40
1
 40
1
 10
5.266584
 20
25.299332
 30
0.0
 10
5.266584
 20
25.315131
 30
0.0
 10
5.260807
 20
25.328804
 30
0.0
 10
5.249254
 20
25.340350
 30
0.0
  0
SPLINE
  5
2e4
100
AcDbEntity
  8
Layer_1
 62
3
100
AcDbSpline
 70
8
 71
3
 72
8
 73
4
 74
0
 40
0
 40
0
 40
0
 40
0
 40
1
 40
1
 40
1
 40
1
 10
5.249254
 20
25.340350
 30
0.0
 10
5.237700
 20
25.351897
 30
0.0
 10
5.224028
 20
25.357670
 30
0.0
 10
5.208236
 20
25.357670
 30
0.0
  0
LINE
  5
2e5
100
AcDbEntity
  8
Layer_1
 62
3
100
AcDbLine
 10
5.208236
 20
25.357670
 30
0.0
 11
4.974889
 21
25.357670
 31
0.0
  0
SPLINE
  5
2e6
100
AcDbEntity
  8
Layer_1
 62
3
100
AcDbSpline
 70
8
 71
3
 72
8
 73
4
 74
0
 40
0
 40
0
 40
0
 40
0
 40
1
 40
1
 40
1
 40
1
 10
4.974889
 20
25.357670
 30
0.0
 10
4.959085
 20
25.357670
 30
0.0
 10
4.945412
 20
25.352201
 30
0.0
 10
4.933871
 20
25.341263
 30
0.0
  0
SPLINE
  5
2e7
100
AcDbEntity
  8
Layer_1
 62
3
100
AcDbSpline
 70
8
 71
3
 72
8
 73
4
 74
0
 40
0
 40
0
 40
0
 40
0
 40
1
 40
1
 40
1
 40
1
 10
4.933871
 20
25.341263
 30
0.0
 10
4.922317
 20
25.330325
 30
0.0
 10
4.916540
 20
25.316349
 30
0.0
 10
4.916540
 20
25.299333
 30
0.0
  0
LINE
  5
2e8
100
AcDbEntity
  8
Layer_1
 62
3
100
AcDbLine
 10
4.916540
 20
25.299333
 30
0.0
 11
4.916540
 21
24.482616
 31
0.0
  0
SPLINE
  5
2e9
100
AcDbEntity
  8
Layer_1
 62
3
100
AcDbSpline
 70
8
 71
3
 72
8
 73
4
 74
0
 40
0
 40
0
 40
0
 40
0
 40
1
 40
1
 40
1
 40
1
 10
4.916540
 20
24.482616
 30
0.0
 10
4.916540
 20
24.465602
 30
0.0
 10
4.922008
 20
24.451625
 30
0.0
 10
4.932945
 20
24.440686
 30
0.0
  0
SPLINE
  5
2ea
100
AcDbEntity
  8
Layer_1
 62
3
100
AcDbSpline
 70
8
 71
3
 72
8
 73
4
 74
0
 40
0
 40
0
 40
0
 40
0
 40
1
 40
1
 40
1
 40
1
 10
4.932945
 20
24.440686
 30
0.0
 10
4.943881
 20
24.429749
 30
0.0
 10
4.957858
 20
24.424280
 30
0.0
 10
4.974876
 20
24.424280
 30
0.0
  0
LINE
  5
2eb
100
AcDbEntity
  8
Layer_1
 62
3
100
AcDbLine
 10
4.974876
 20
24.424280
 30
0.0
 11
5.208249
 21
24.424277
 31
0.0
  0
SPLINE
  5
2ec
100
AcDbEntity
  8
Layer_1
 62
3
100
AcDbSpline
 70
8
 71
3
 72
8
 73
4
 74
0
 40
0
 40
0
 40
0
 40
0
 40
1
 40
1
 40
1
 40
1
 10
5.791618
 20
24.424277
 30
0.0
 10
5.808640
 20
24.424277
 30
0.0
 10
5.822617
 20
24.430050
 30
0.0
 10
5.833549
 20
24.441597
 30
0.0
  0
SPLINE
  5
2ed
100
AcDbEntity
  8
Layer_1
 62
3
100
AcDbSpline
 70
8
 71
3
 72
8
 73
4
 74
0
 40
0
 40
0
 40
0
 40
0
 40
1
 40
1
 40
1
 40
1
 10
5.833549
 20
24.441597
 30
0.0
 10
5.844485
 20
24.453143
 30
0.0
 10
5.849953
 20
24.466816
 30
0.0
 10
5.849953
 20
24.482615
 30
0.0
  0
LINE
  5
2ee
100
AcDbEntity
  8
Layer_1
 62
3
100
AcDbLine
 10
5.849953
 20
24.482615
 30
0.0
 11
5.849953
 21
25.299332
 31
0.0
  0
SPLINE
  5
2ef
100
AcDbEntity
  8
Layer_1
 62
3
100
AcDbSpline
 70
8
 71
3
 72
8
 73
4
 74
0
 40
0
 40
0
 40
0
 40
0
 40
1
 40
1
 40
1
 40
1
 10
5.849953
 20
25.299332
 30
0.0
 10
5.849953
 20
25.315131
 30
0.0
 10
5.844177
 20
25.328804
 30
0.0
 10
5.832623
 20
25.340350
 30
0.0
  0
SPLINE
  5
2f0
100
AcDbEntity
  8
Layer_1
 62
3
100
AcDbSpline
 70
8
 71
3
 72
8
 73
4
 74
0
 40
0
 40
0
 40
0
 40
0
 40
1
 40
1
 40
1
 40
1
 10
5.832623
 20
25.340350
 30
0.0
 10
5.821087
 20
25.351897
 30
0.0
 10
5.807415
 20
25.357670
 30
0.0
 10
5.791605
 20
25.357670
 30
0.0
  0
LINE
  5
2f1
100
AcDbEntity
  8
Layer_1
 62
3
100
AcDbLine
 10
5.791605
 20
25.357670
 30
0.0
 11
5.558258
 21
25.357670
 31
0.0
  0
SPLINE
  5
2f2
100
AcDbEntity
  8
Layer_1
 62
3
100
AcDbSpline
 70
8
 71
3
 72
8
 73
4
 74
0
 40
0
 40
0
 40
0
 40
0
 40
1
 40
1
 40
1
 40
1
 10
5.558258
 20
25.357670
 30
0.0
 10
5.542454
 20
25.357670
 30
0.0
 10
5.528781
 20
25.352201
 30
0.0
 10
5.517240
 20
25.341263
 30
0.0
  0
SPLINE
  5
2f3
100
AcDbEntity
  8
Layer_1
 62
3
100
AcDbSpline
 70
8
 71
3
 72
8
 73
4
 74
0
 40
0
 40
0
 40
0
 40
0
 40
1
 40
1
 40
1
 40
1
 10
5.517240
 20
25.341263
 30
0.0
 10
5.505686
 20
25.330325
 30
0.0
 10
5.499910
 20
25.316349
 30
0.0
 10
5.499910
 20
25.299333
 30
0.0
  0
LINE
  5
2f4
100
AcDbEntity
  8
Layer_1
 62
3
100
AcDbLine
 10
5.499910
 20
25.299333
 30
0.0
 11
5.499910
 21
24.482616
 31
0.0
  0
SPLINE
  5
2f5
100
AcDbEntity
  8
Layer_1
 62
3
100
AcDbSpline
 70
8
 71
3
 72
8
 73
4
 74
0
 40
0
 40
0
 40
0
 40
0
 40
1
 40
1
 40
1
 40
1
 10
5.499910
 20
24.482616
 30
0.0
 10
5.499910
 20
24.465602
 30
0.0
 10
5.505378
 20
24.451625
 30
0.0
 10
5.516314
 20
24.440686
 30
0.0
  0
SPLINE
  5
2f6
100
AcDbEntity
  8
Layer_1
 62
3
100
AcDbSpline
 70
8
 71
3
 72
8
 73
4
 74
0
 40
0
 40
0
 40
0
 40
0
 40
1
 40
1
 40
1
 40
1
 10
5.516314
 20
24.440686
 30
0.0
 10
5.527250
 20
24.429749
 30
0.0
 10
5.541227
 20
24.424280
 30
0.0
 10
5.558245
 20
24.424280
 30
0.0
  0
LINE
  5
2f7
100
AcDbEntity
  8
Layer_1
 62
3
100
AcDbLine
 10
5.558245
 20
24.424280
 30
0.0
 11
5.791618
 21
24.424277
 31
0.0
  0
SPLINE
  5
2f8
100
AcDbEntity
  8
Layer_1
 62
3
100
AcDbSpline
 70
8
 71
3
 72
8
 73
4
 74
0
 40
0
 40
0
 40
0
 40
0
 40
1
 40
1
 40
1
 40
1
 10
4.741553
 20
24.074255
 30
0.0
 10
4.724531
 20
24.074255
 30
0.0
 10
4.710555
 20
24.079724
 30
0.0
 10
4.699624
 20
24.090662
 30
0.0
  0
SPLINE
  5
2f9
100
AcDbEntity
  8
Layer_1
 62
3
100
AcDbSpline
 70
8
 71
3
 72
8
 73
4
 74
0
 40
0
 40
0
 40
0
 40
0
 40
1
 40
1
 40
1
 40
1
 10
4.699624
 20
24.090662
 30
0.0
 10
4.688688
 20
24.101600
 30
0.0
 10
4.683220
 20
24.115577
 30
0.0
 10
4.683220
 20
24.132592
 30
0.0
  0
LINE
  5
2fa
100
AcDbEntity
  8
Layer_1
 62
3
100
AcDbLine
 10
4.683220
 20
24.132592
 30
0.0
 11
4.683220
 21
25.649353
 31
0.0
  0
SPLINE
  5
2fb
100
AcDbEntity
  8
Layer_1
 62
3
100
AcDbSpline
 70
8
 71
3
 72
8
 73
4
 74
0
 40
0
 40
0
 40
0
 40
0
 40
1
 40
1
 40
1
 40
1
 10
4.683220
 20
25.649353
 30
0.0
 10
4.683220
 20
25.666367
 30
0.0
 10
4.688988
 20
25.680344
 30
0.0
 10
4.700524
 20
25.691282
 30
0.0
  0
SPLINE
  5
2fc
100
AcDbEntity
  8
Layer_1
 62
3
100
AcDbSpline
 70
8
 71
3
 72
8
 73
4
 74
0
 40
0
 40
0
 40
0
 40
0
 40
1
 40
1
 40
1
 40
1
 10
4.700524
 20
25.691282
 30
0.0
 10
4.712077
 20
25.702220
 30
0.0
 10
4.725750
 20
25.707689
 30
0.0
 10
4.741542
 20
25.707689
 30
0.0
  0
LINE
  5
2fd
100
AcDbEntity
  8
Layer_1
 62
3
100
AcDbLine
 10
4.741542
 20
25.707689
 30
0.0
 11
4.858218
 21
25.707689
 31
0.0
  0
SPLINE
  5
2fe
100
AcDbEntity
  8
Layer_1
 62
3
100
AcDbSpline
 70
8
 71
3
 72
8
 73
4
 74
0
 40
0
 40
0
 40
0
 40
0
 40
1
 40
1
 40
1
 40
1
 10
4.858218
 20
25.707689
 30
0.0
 10
4.872188
 20
25.707689
 30
0.0
 10
4.882519
 20
25.704651
 30
0.0
 10
4.889209
 20
25.698574
 30
0.0
  0
SPLINE
  5
2ff
100
AcDbEntity
  8
Layer_1
 62
3
100
AcDbSpline
 70
8
 71
3
 72
8
 73
4
 74
0
 40
0
 40
0
 40
0
 40
0
 40
1
 40
1
 40
1
 40
1
 10
4.889209
 20
25.698574
 30
0.0
 10
4.896494
 20
25.693105
 30
0.0
 10
4.901962
 20
25.686116
 30
0.0
 10
4.905613
 20
25.677609
 30
0.0
  0
SPLINE
  5
300
100
AcDbEntity
  8
Layer_1
 62
3
100
AcDbSpline
 70
8
 71
3
 72
8
 73
4
 74
0
 40
0
 40
0
 40
0
 40
0
 40
1
 40
1
 40
1
 40
1
 10
4.905613
 20
25.677609
 30
0.0
 10
4.909864
 20
25.669102
 30
0.0
 10
4.912898
 20
25.659683
 30
0.0
 10
4.914715
 20
25.649352
 30
0.0
  0
SPLINE
  5
301
100
AcDbEntity
  8
Layer_1
 62
3
100
AcDbSpline
 70
8
 71
3
 72
8
 73
4
 74
0
 40
0
 40
0
 40
0
 40
0
 40
1
 40
1
 40
1
 40
1
 10
4.914715
 20
25.649352
 30
0.0
 10
4.917149
 20
25.639021
 30
0.0
 10
4.920183
 20
25.629602
 30
0.0
 10
4.923816
 20
25.621095
 30
0.0
  0
SPLINE
  5
302
100
AcDbEntity
  8
Layer_1
 62
3
100
AcDbSpline
 70
8
 71
3
 72
8
 73
4
 74
0
 40
0
 40
0
 40
0
 40
0
 40
1
 40
1
 40
1
 40
1
 10
4.923816
 20
25.621095
 30
0.0
 10
4.928067
 20
25.612588
 30
0.0
 10
4.933844
 20
25.605296
 30
0.0
 10
4.941147
 20
25.599219
 30
0.0
  0
SPLINE
  5
303
100
AcDbEntity
  8
Layer_1
 62
3
100
AcDbSpline
 70
8
 71
3
 72
8
 73
4
 74
0
 40
0
 40
0
 40
0
 40
0
 40
1
 40
1
 40
1
 40
1
 10
4.941147
 20
25.599219
 30
0.0
 10
4.949049
 20
25.593750
 30
0.0
 10
4.960291
 20
25.591015
 30
0.0
 10
4.974873
 20
25.591015
 30
0.0
  0
LINE
  5
304
100
AcDbEntity
  8
Layer_1
 62
3
100
AcDbLine
 10
4.974873
 20
25.591015
 30
0.0
 11
5.791589
 21
25.591015
 31
0.0
  0
SPLINE
  5
305
100
AcDbEntity
  8
Layer_1
 62
3
100
AcDbSpline
 70
8
 71
3
 72
8
 73
4
 74
0
 40
0
 40
0
 40
0
 40
0
 40
1
 40
1
 40
1
 40
1
 10
5.791589
 20
25.591015
 30
0.0
 10
5.804959
 20
25.591015
 30
0.0
 10
5.815290
 20
25.593750
 30
0.0
 10
5.822582
 20
25.599219
 30
0.0
  0
SPLINE
  5
306
100
AcDbEntity
  8
Layer_1
 62
3
100
AcDbSpline
 70
8
 71
3
 72
8
 73
4
 74
0
 40
0
 40
0
 40
0
 40
0
 40
1
 40
1
 40
1
 40
1
 10
5.822582
 20
25.599219
 30
0.0
 10
5.829867
 20
25.605296
 30
0.0
 10
5.835635
 20
25.612588
 30
0.0
 10
5.839886
 20
25.621095
 30
0.0
  0
SPLINE
  5
307
100
AcDbEntity
  8
Layer_1
 62
3
100
AcDbSpline
 70
8
 71
3
 72
8
 73
4
 74
0
 40
0
 40
0
 40
0
 40
0
 40
1
 40
1
 40
1
 40
1
 10
5.839886
 20
25.621095
 30
0.0
 10
5.844137
 20
25.629602
 30
0.0
 10
5.847480
 20
25.639021
 30
0.0
 10
5.849914
 20
25.649352
 30
0.0
  0
SPLINE
  5
308
100
AcDbEntity
  8
Layer_1
 62
3
100
AcDbSpline
 70
8
 71
3
 72
8
 73
4
 74
0
 40
0
 40
0
 40
0
 40
0
 40
1
 40
1
 40
1
 40
1
 10
5.849914
 20
25.649352
 30
0.0
 10
5.852348
 20
25.659683
 30
0.0
 10
5.855690
 20
25.669102
 30
0.0
 10
5.859941
 20
25.677609
 30
0.0
  0
SPLINE
  5
309
100
AcDbEntity
  8
Layer_1
 62
3
100
AcDbSpline
 70
8
 71
3
 72
8
 73
4
 74
0
 40
0
 40
0
 40
0
 40
0
 40
1
 40
1
 40
1
 40
1
 10
5.859941
 20
25.677609
 30
0.0
 10
5.864192
 20
25.686116
 30
0.0
 10
5.869960
 20
25.693105
 30
0.0
 10
5.877245
 20
25.698574
 30
0.0
  0
SPLINE
  5
30a
100
AcDbEntity
  8
Layer_1
 62
3
100
AcDbSpline
 70
8
 71
3
 72
8
 73
4
 74
0
 40
0
 40
0
 40
0
 40
0
 40
1
 40
1
 40
1
 40
1
 10
5.877245
 20
25.698574
 30
0.0
 10
5.884530
 20
25.704651
 30
0.0
 10
5.894861
 20
25.707689
 30
0.0
 10
5.908238
 20
25.707689
 30
0.0
  0
LINE
  5
30b
100
AcDbEntity
  8
Layer_1
 62
3
100
AcDbLine
 10
5.908238
 20
25.707689
 30
0.0
 11
6.024912
 21
25.707689
 31
0.0
  0
SPLINE
  5
30c
100
AcDbEntity
  8
Layer_1
 62
3
100
AcDbSpline
 70
8
 71
3
 72
8
 73
4
 74
0
 40
0
 40
0
 40
0
 40
0
 40
1
 40
1
 40
1
 40
1
 10
6.024912
 20
25.707689
 30
0.0
 10
6.040716
 20
25.707689
 30
0.0
 10
6.054389
 20
25.701916
 30
0.0
 10
6.065930
 20
25.690370
 30
0.0
  0
SPLINE
  5
30d
100
AcDbEntity
  8
Layer_1
 62
3
100
AcDbSpline
 70
8
 71
3
 72
8
 73
4
 74
0
 40
0
 40
0
 40
0
 40
0
 40
1
 40
1
 40
1
 40
1
 10
6.065930
 20
25.690370
 30
0.0
 10
6.077466
 20
25.678823
 30
0.0
 10
6.083234
 20
25.665150
 30
0.0
 10
6.083234
 20
25.649351
 30
0.0
  0
LINE
  5
30e
100
AcDbEntity
  8
Layer_1
 62
3
100
AcDbLine
 10
6.083234
 20
25.649351
 30
0.0
 11
6.083234
 21
24.132591
 31
0.0
  0
SPLINE
  5
30f
100
AcDbEntity
  8
Layer_1
 62
3
100
AcDbSpline
 70
8
 71
3
 72
8
 73
4
 74
0
 40
0
 40
0
 40
0
 40
0
 40
1
 40
1
 40
1
 40
1
 10
6.083234
 20
24.132591
 30
0.0
 10
6.083234
 20
24.116792
 30
0.0
 10
6.077766
 20
24.103119
 30
0.0
 10
6.066830
 20
24.091572
 30
0.0
  0
SPLINE
  5
310
100
AcDbEntity
  8
Layer_1
 62
3
100
AcDbSpline
 70
8
 71
3
 72
8
 73
4
 74
0
 40
0
 40
0
 40
0
 40
0
 40
1
 40
1
 40
1
 40
1
 10
6.066830
 20
24.091572
 30
0.0
 10
6.055894
 20
24.080026
 30
0.0
 10
6.041917
 20
24.074253
 30
0.0
 10
6.024901
 20
24.074253
 30
0.0
  0
LINE
  5
311
100
AcDbEntity
  8
Layer_1
 62
3
100
AcDbLine
 10
6.024901
 20
24.074253
 30
0.0
 11
5.908228
 21
24.074253
 31
0.0
  0
SPLINE
  5
312
100
AcDbEntity
  8
Layer_1
 62
3
100
AcDbSpline
 70
8
 71
3
 72
8
 73
4
 74
0
 40
0
 40
0
 40
0
 40
0
 40
1
 40
1
 40
1
 40
1
 10
5.908228
 20
24.074253
 30
0.0
 10
5.893640
 20
24.074253
 30
0.0
 10
5.882702
 20
24.076988
 30
0.0
 10
5.875412
 20
24.082458
 30
0.0
  0
SPLINE
  5
313
100
AcDbEntity
  8
Layer_1
 62
3
100
AcDbSpline
 70
8
 71
3
 72
8
 73
4
 74
0
 40
0
 40
0
 40
0
 40
0
 40
1
 40
1
 40
1
 40
1
 10
5.875412
 20
24.082458
 30
0.0
 10
5.868127
 20
24.088534
 30
0.0
 10
5.862350
 20
24.095826
 30
0.0
 10
5.858081
 20
24.104333
 30
0.0
  0
SPLINE
  5
314
100
AcDbEntity
  8
Layer_1
 62
3
100
AcDbSpline
 70
8
 71
3
 72
8
 73
4
 74
0
 40
0
 40
0
 40
0
 40
0
 40
1
 40
1
 40
1
 40
1
 10
5.858081
 20
24.104333
 30
0.0
 10
5.854430
 20
24.112841
 30
0.0
 10
5.851696
 20
24.122260
 30
0.0
 10
5.849879
 20
24.132590
 30
0.0
  0
SPLINE
  5
315
100
AcDbEntity
  8
Layer_1
 62
3
100
AcDbSpline
 70
8
 71
3
 72
8
 73
4
 74
0
 40
0
 40
0
 40
0
 40
0
 40
1
 40
1
 40
1
 40
1
 10
5.849879
 20
24.132590
 30
0.0
 10
5.848062
 20
24.142921
 30
0.0
 10
5.845020
 20
24.152340
 30
0.0
 10
5.840751
 20
24.160847
 30
0.0
  0
SPLINE
  5
316
100
AcDbEntity
  8
Layer_1
 62
3
100
AcDbSpline
 70
8
 71
3
 72
8
 73
4
 74
0
 40
0
 40
0
 40
0
 40
0
 40
1
 40
1
 40
1
 40
1
 10
5.840751
 20
24.160847
 30
0.0
 10
5.837100
 20
24.169354
 30
0.0
 10
5.831632
 20
24.176343
 30
0.0
 10
5.824347
 20
24.181813
 30
0.0
  0
SPLINE
  5
317
100
AcDbEntity
  8
Layer_1
 62
3
100
AcDbSpline
 70
8
 71
3
 72
8
 73
4
 74
0
 40
0
 40
0
 40
0
 40
0
 40
1
 40
1
 40
1
 40
1
 10
5.824347
 20
24.181813
 30
0.0
 10
5.817062
 20
24.187889
 30
0.0
 10
5.806123
 20
24.190928
 30
0.0
 10
5.791531
 20
24.190928
 30
0.0
  0
LINE
  5
318
100
AcDbEntity
  8
Layer_1
 62
3
100
AcDbLine
 10
5.791531
 20
24.190928
 30
0.0
 11
4.974815
 21
24.190928
 31
0.0
  0
SPLINE
  5
319
100
AcDbEntity
  8
Layer_1
 62
3
100
AcDbSpline
 70
8
 71
3
 72
8
 73
4
 74
0
 40
0
 40
0
 40
0
 40
0
 40
1
 40
1
 40
1
 40
1
 10
4.974815
 20
24.190928
 30
0.0
 10
4.960228
 20
24.190928
 30
0.0
 10
4.949289
 20
24.187889
 30
0.0
 10
4.941999
 20
24.181813
 30
0.0
  0
SPLINE
  5
31a
100
AcDbEntity
  8
Layer_1
 62
3
100
AcDbSpline
 70
8
 71
3
 72
8
 73
4
 74
0
 40
0
 40
0
 40
0
 40
0
 40
1
 40
1
 40
1
 40
1
 10
4.941999
 20
24.181813
 30
0.0
 10
4.934714
 20
24.176343
 30
0.0
 10
4.928946
 20
24.169354
 30
0.0
 10
4.924695
 20
24.160847
 30
0.0
  0
SPLINE
  5
31b
100
AcDbEntity
  8
Layer_1
 62
3
100
AcDbSpline
 70
8
 71
3
 72
8
 73
4
 74
0
 40
0
 40
0
 40
0
 40
0
 40
1
 40
1
 40
1
 40
1
 10
4.924695
 20
24.160847
 30
0.0
 10
4.921044
 20
24.152340
 30
0.0
 10
4.918310
 20
24.142921
 30
0.0
 10
4.916493
 20
24.132590
 30
0.0
  0
SPLINE
  5
31c
100
AcDbEntity
  8
Layer_1
 62
3
100
AcDbSpline
 70
8
 71
3
 72
8
 73
4
 74
0
 40
0
 40
0
 40
0
 40
0
 40
1
 40
1
 40
1
 40
1
 10
4.916493
 20
24.132590
 30
0.0
 10
4.914676
 20
24.122259
 30
0.0
 10
4.911642
 20
24.112840
 30
0.0
 10
4.907391
 20
24.104333
 30
0.0
  0
SPLINE
  5
31d
100
AcDbEntity
  8
Layer_1
 62
3
100
AcDbSpline
 70
8
 71
3
 72
8
 73
4
 74
0
 40
0
 40
0
 40
0
 40
0
 40
1
 40
1
 40
1
 40
1
 10
4.907391
 20
24.104333
 30
0.0
 10
4.903740
 20
24.095826
 30
0.0
 10
4.898272
 20
24.088534
 30
0.0
 10
4.890987
 20
24.082458
 30
0.0
  0
SPLINE
  5
31e
100
AcDbEntity
  8
Layer_1
 62
3
100
AcDbSpline
 70
8
 71
3
 72
8
 73
4
 74
0
 40
0
 40
0
 40
0
 40
0
 40
1
 40
1
 40
1
 40
1
 10
4.890987
 20
24.082458
 30
0.0
 10
4.883702
 20
24.076988
 30
0.0
 10
4.872764
 20
24.074253
 30
0.0
 10
4.858173
 20
24.074253
 30
0.0
  0
LINE
  5
31f
100
AcDbEntity
  8
Layer_1
 62
3
100
AcDbLine
 10
4.858173
 20
24.074253
 30
0.0
 11
4.741553
 21
24.074255
 31
0.0
  0
SPLINE
  5
320
100
AcDbEntity
  8
Layer_1
 62
3
100
AcDbSpline
 70
8
 71
3
 72
8
 73
4
 74
0
 40
0
 40
0
 40
0
 40
0
 40
1
 40
1
 40
1
 40
1
 10
4.741553
 20
19.515924
 30
0.0
 10
4.724531
 20
19.515924
 30
0.0
 10
4.710555
 20
19.521393
 30
0.0
 10
4.699624
 20
19.532331
 30
0.0
  0
SPLINE
  5
321
100
AcDbEntity
  8
Layer_1
 62
3
100
AcDbSpline
 70
8
 71
3
 72
8
 73
4
 74
0
 40
0
 40
0
 40
0
 40
0
 40
1
 40
1
 40
1
 40
1
 10
4.699624
 20
19.532331
 30
0.0
 10
4.688688
 20
19.543269
 30
0.0
 10
4.683220
 20
19.557245
 30
0.0
 10
4.683220
 20
19.574260
 30
0.0
  0
LINE
  5
322
100
AcDbEntity
  8
Layer_1
 62
3
100
AcDbLine
 10
4.683220
 20
19.574260
 30
0.0
 11
4.683220
 21
19.690934
 31
0.0
  0
SPLINE
  5
323
100
AcDbEntity
  8
Layer_1
 62
3
100
AcDbSpline
 70
8
 71
3
 72
8
 73
4
 74
0
 40
0
 40
0
 40
0
 40
0
 40
1
 40
1
 40
1
 40
1
 10
4.683220
 20
19.690934
 30
0.0
 10
4.683220
 20
19.704303
 30
0.0
 10
4.685954
 20
19.714633
 30
0.0
 10
4.691422
 20
19.721926
 30
0.0
  0
SPLINE
  5
324
100
AcDbEntity
  8
Layer_1
 62
3
100
AcDbSpline
 70
8
 71
3
 72
8
 73
4
 74
0
 40
0
 40
0
 40
0
 40
0
 40
1
 40
1
 40
1
 40
1
 10
4.691422
 20
19.721926
 30
0.0
 10
4.697490
 20
19.729218
 30
0.0
 10
4.704784
 20
19.734991
 30
0.0
 10
4.713303
 20
19.739245
 30
0.0
  0
SPLINE
  5
325
100
AcDbEntity
  8
Layer_1
 62
3
100
AcDbSpline
 70
8
 71
3
 72
8
 73
4
 74
0
 40
0
 40
0
 40
0
 40
0
 40
1
 40
1
 40
1
 40
1
 10
4.713303
 20
19.739245
 30
0.0
 10
4.721805
 20
19.743502
 30
0.0
 10
4.731224
 20
19.746844
 30
0.0
 10
4.741561
 20
19.749273
 30
0.0
  0
SPLINE
  5
326
100
AcDbEntity
  8
Layer_1
 62
3
100
AcDbSpline
 70
8
 71
3
 72
8
 73
4
 74
0
 40
0
 40
0
 40
0
 40
0
 40
1
 40
1
 40
1
 40
1
 10
4.741561
 20
19.749273
 30
0.0
 10
4.751897
 20
19.751702
 30
0.0
 10
4.761316
 20
19.755045
 30
0.0
 10
4.769818
 20
19.759301
 30
0.0
  0
SPLINE
  5
327
100
AcDbEntity
  8
Layer_1
 62
3
100
AcDbSpline
 70
8
 71
3
 72
8
 73
4
 74
0
 40
0
 40
0
 40
0
 40
0
 40
1
 40
1
 40
1
 40
1
 10
4.769818
 20
19.759301
 30
0.0
 10
4.778320
 20
19.763557
 30
0.0
 10
4.785305
 20
19.769330
 30
0.0
 10
4.790773
 20
19.776620
 30
0.0
  0
SPLINE
  5
328
100
AcDbEntity
  8
Layer_1
 62
3
100
AcDbSpline
 70
8
 71
3
 72
8
 73
4
 74
0
 40
0
 40
0
 40
0
 40
0
 40
1
 40
1
 40
1
 40
1
 10
4.790773
 20
19.776620
 30
0.0
 10
4.796859
 20
19.783912
 30
0.0
 10
4.799901
 20
19.794243
 30
0.0
 10
4.799901
 20
19.807612
 30
0.0
  0
LINE
  5
329
100
AcDbEntity
  8
Layer_1
 62
3
100
AcDbLine
 10
4.799901
 20
19.807612
 30
0.0
 11
4.799901
 21
21.032688
 31
0.0
  0
SPLINE
  5
32a
100
AcDbEntity
  8
Layer_1
 62
3
100
AcDbSpline
 70
8
 71
3
 72
8
 73
4
 74
0
 40
0
 40
0
 40
0
 40
0
 40
1
 40
1
 40
1
 40
1
 10
4.799901
 20
21.032688
 30
0.0
 10
4.799901
 20
21.048487
 30
0.0
 10
4.802935
 20
21.063375
 30
0.0
 10
4.809003
 20
21.077353
 30
0.0
  0
SPLINE
  5
32b
100
AcDbEntity
  8
Layer_1
 62
3
100
AcDbSpline
 70
8
 71
3
 72
8
 73
4
 74
0
 40
0
 40
0
 40
0
 40
0
 40
1
 40
1
 40
1
 40
1
 10
4.809003
 20
21.077353
 30
0.0
 10
4.815688
 20
21.091330
 30
0.0
 10
4.824199
 20
21.103483
 30
0.0
 10
4.834535
 20
21.113813
 30
0.0
  0
SPLINE
  5
32c
100
AcDbEntity
  8
Layer_1
 62
3
100
AcDbSpline
 70
8
 71
3
 72
8
 73
4
 74
0
 40
0
 40
0
 40
0
 40
0
 40
1
 40
1
 40
1
 40
1
 10
4.834535
 20
21.113813
 30
0.0
 10
4.845472
 20
21.124751
 30
0.0
 10
4.857929
 20
21.133258
 30
0.0
 10
4.871908
 20
21.139335
 30
0.0
  0
SPLINE
  5
32d
100
AcDbEntity
  8
Layer_1
 62
3
100
AcDbSpline
 70
8
 71
3
 72
8
 73
4
 74
0
 40
0
 40
0
 40
0
 40
0
 40
1
 40
1
 40
1
 40
1
 10
4.871908
 20
21.139335
 30
0.0
 10
4.885878
 20
21.146020
 30
0.0
 10
4.900766
 20
21.149362
 30
0.0
 10
4.916572
 20
21.149362
 30
0.0
  0
LINE
  5
32e
100
AcDbEntity
  8
Layer_1
 62
3
100
AcDbLine
 10
4.916572
 20
21.149362
 30
0.0
 11
5.966637
 21
21.149362
 31
0.0
  0
SPLINE
  5
32f
100
AcDbEntity
  8
Layer_1
 62
3
100
AcDbSpline
 70
8
 71
3
 72
8
 73
4
 74
0
 40
0
 40
0
 40
0
 40
0
 40
1
 40
1
 40
1
 40
1
 10
5.966637
 20
21.149362
 30
0.0
 10
5.982442
 20
21.149362
 30
0.0
 10
5.997330
 20
21.146020
 30
0.0
 10
6.011302
 20
21.139335
 30
0.0
  0
SPLINE
  5
330
100
AcDbEntity
  8
Layer_1
 62
3
100
AcDbSpline
 70
8
 71
3
 72
8
 73
4
 74
0
 40
0
 40
0
 40
0
 40
0
 40
1
 40
1
 40
1
 40
1
 10
6.011302
 20
21.139335
 30
0.0
 10
6.025272
 20
21.133258
 30
0.0
 10
6.037425
 20
21.124751
 30
0.0
 10
6.047761
 20
21.113813
 30
0.0
  0
SPLINE
  5
331
100
AcDbEntity
  8
Layer_1
 62
3
100
AcDbSpline
 70
8
 71
3
 72
8
 73
4
 74
0
 40
0
 40
0
 40
0
 40
0
 40
1
 40
1
 40
1
 40
1
 10
6.047761
 20
21.113813
 30
0.0
 10
6.058697
 20
21.103482
 30
0.0
 10
6.067208
 20
21.091328
 30
0.0
 10
6.073293
 20
21.077353
 30
0.0
  0
SPLINE
  5
332
100
AcDbEntity
  8
Layer_1
 62
3
100
AcDbSpline
 70
8
 71
3
 72
8
 73
4
 74
0
 40
0
 40
0
 40
0
 40
0
 40
1
 40
1
 40
1
 40
1
 10
6.073293
 20
21.077353
 30
0.0
 10
6.079979
 20
21.063376
 30
0.0
 10
6.083321
 20
21.048487
 30
0.0
 10
6.083321
 20
21.032688
 30
0.0
  0
LINE
  5
333
100
AcDbEntity
  8
Layer_1
 62
3
100
AcDbLine
 10
6.083321
 20
21.032688
 30
0.0
 11
6.083321
 21
19.574264
 31
0.0
  0
SPLINE
  5
334
100
AcDbEntity
  8
Layer_1
 62
3
100
AcDbSpline
 70
8
 71
3
 72
8
 73
4
 74
0
 40
0
 40
0
 40
0
 40
0
 40
1
 40
1
 40
1
 40
1
 10
6.083321
 20
19.574264
 30
0.0
 10
6.083321
 20
19.558465
 30
0.0
 10
6.077853
 20
19.544792
 30
0.0
 10
6.066917
 20
19.533246
 30
0.0
  0
SPLINE
  5
335
100
AcDbEntity
  8
Layer_1
 62
3
100
AcDbSpline
 70
8
 71
3
 72
8
 73
4
 74
0
 40
0
 40
0
 40
0
 40
0
 40
1
 40
1
 40
1
 40
1
 10
6.066917
 20
19.533246
 30
0.0
 10
6.055981
 20
19.521699
 30
0.0
 10
6.042005
 20
19.515926
 30
0.0
 10
6.024988
 20
19.515926
 30
0.0
  0
LINE
  5
336
100
AcDbEntity
  8
Layer_1
 62
3
100
AcDbLine
 10
6.024988
 20
19.515926
 30
0.0
 11
5.908315
 21
19.515926
 31
0.0
  0
SPLINE
  5
337
100
AcDbEntity
  8
Layer_1
 62
3
100
AcDbSpline
 70
8
 71
3
 72
8
 73
4
 74
0
 40
0
 40
0
 40
0
 40
0
 40
1
 40
1
 40
1
 40
1
 10
5.908315
 20
19.515926
 30
0.0
 10
5.891294
 20
19.515926
 30
0.0
 10
5.877317
 20
19.521395
 30
0.0
 10
5.866384
 20
19.532333
 30
0.0
  0
SPLINE
  5
338
100
AcDbEntity
  8
Layer_1
 62
3
100
AcDbSpline
 70
8
 71
3
 72
8
 73
4
 74
0
 40
0
 40
0
 40
0
 40
0
 40
1
 40
1
 40
1
 40
1
 10
5.866384
 20
19.532333
 30
0.0
 10
5.855448
 20
19.543271
 30
0.0
 10
5.849980
 20
19.557247
 30
0.0
 10
5.849980
 20
19.574262
 30
0.0
  0
LINE
  5
339
100
AcDbEntity
  8
Layer_1
 62
3
100
AcDbLine
 10
5.849980
 20
19.574262
 30
0.0
 11
5.849980
 21
20.857675
 31
0.0
  0
SPLINE
  5
33a
100
AcDbEntity
  8
Layer_1
 62
3
100
AcDbSpline
 70
8
 71
3
 72
8
 73
4
 74
0
 40
0
 40
0
 40
0
 40
0
 40
1
 40
1
 40
1
 40
1
 10
5.849980
 20
20.857675
 30
0.0
 10
5.849980
 20
20.873474
 30
0.0
 10
5.844203
 20
20.887147
 30
0.0
 10
5.832650
 20
20.898694
 30
0.0
  0
SPLINE
  5
33b
100
AcDbEntity
  8
Layer_1
 62
3
100
AcDbSpline
 70
8
 71
3
 72
8
 73
4
 74
0
 40
0
 40
0
 40
0
 40
0
 40
1
 40
1
 40
1
 40
1
 10
5.832650
 20
20.898694
 30
0.0
 10
5.821114
 20
20.910240
 30
0.0
 10
5.807441
 20
20.916013
 30
0.0
 10
5.791631
 20
20.916013
 30
0.0
  0
LINE
  5
33c
100
AcDbEntity
  8
Layer_1
 62
3
100
AcDbLine
 10
5.791631
 20
20.916013
 30
0.0
 11
5.091589
 21
20.916013
 31
0.0
  0
SPLINE
  5
33d
100
AcDbEntity
  8
Layer_1
 62
3
100
AcDbSpline
 70
8
 71
3
 72
8
 73
4
 74
0
 40
0
 40
0
 40
0
 40
0
 40
1
 40
1
 40
1
 40
1
 10
5.091589
 20
20.916013
 30
0.0
 10
5.075784
 20
20.916013
 30
0.0
 10
5.062112
 20
20.910544
 30
0.0
 10
5.050570
 20
20.899607
 30
0.0
  0
SPLINE
  5
33e
100
AcDbEntity
  8
Layer_1
 62
3
100
AcDbSpline
 70
8
 71
3
 72
8
 73
4
 74
0
 40
0
 40
0
 40
0
 40
0
 40
1
 40
1
 40
1
 40
1
 10
5.050570
 20
20.899607
 30
0.0
 10
5.039017
 20
20.888669
 30
0.0
 10
5.033240
 20
20.874692
 30
0.0
 10
5.033240
 20
20.857677
 30
0.0
  0
LINE
  5
33f
100
AcDbEntity
  8
Layer_1
 62
3
100
AcDbLine
 10
5.033240
 20
20.857677
 30
0.0
 11
5.033240
 21
19.632601
 31
0.0
  0
SPLINE
  5
340
100
AcDbEntity
  8
Layer_1
 62
3
100
AcDbSpline
 70
8
 71
3
 72
8
 73
4
 74
0
 40
0
 40
0
 40
0
 40
0
 40
1
 40
1
 40
1
 40
1
 10
5.033240
 20
19.632601
 30
0.0
 10
5.033240
 20
19.616802
 30
0.0
 10
5.029898
 20
19.601914
 30
0.0
 10
5.023212
 20
19.587937
 30
0.0
  0
SPLINE
  5
341
100
AcDbEntity
  8
Layer_1
 62
3
100
AcDbSpline
 70
8
 71
3
 72
8
 73
4
 74
0
 40
0
 40
0
 40
0
 40
0
 40
1
 40
1
 40
1
 40
1
 10
5.023212
 20
19.587937
 30
0.0
 10
5.017145
 20
19.573960
 30
0.0
 10
5.008634
 20
19.561503
 30
0.0
 10
4.997680
 20
19.550565
 30
0.0
  0
SPLINE
  5
342
100
AcDbEntity
  8
Layer_1
 62
3
100
AcDbSpline
 70
8
 71
3
 72
8
 73
4
 74
0
 40
0
 40
0
 40
0
 40
0
 40
1
 40
1
 40
1
 40
1
 10
4.997680
 20
19.550565
 30
0.0
 10
4.987344
 20
19.540234
 30
0.0
 10
4.975191
 20
19.531727
 30
0.0
 10
4.961221
 20
19.525043
 30
0.0
  0
SPLINE
  5
343
100
AcDbEntity
  8
Layer_1
 62
3
100
AcDbSpline
 70
8
 71
3
 72
8
 73
4
 74
0
 40
0
 40
0
 40
0
 40
0
 40
1
 40
1
 40
1
 40
1
 10
4.961221
 20
19.525043
 30
0.0
 10
4.947251
 20
19.518967
 30
0.0
 10
4.932363
 20
19.515928
 30
0.0
 10
4.916556
 20
19.515928
 30
0.0
  0
LINE
  5
344
100
AcDbEntity
  8
Layer_1
 62
3
100
AcDbLine
 10
4.916556
 20
19.515928
 30
0.0
 11
4.741553
 21
19.515924
 31
0.0
  0
SPLINE
  5
345
100
AcDbEntity
  8
Layer_1
 62
3
100
AcDbSpline
 70
8
 71
3
 72
8
 73
4
 74
0
 40
0
 40
0
 40
0
 40
0
 40
1
 40
1
 40
1
 40
1
 10
4.741553
 20
14.957595
 30
0.0
 10
4.724531
 20
14.957595
 30
0.0
 10
4.710555
 20
14.963064
 30
0.0
 10
4.699624
 20
14.974002
 30
0.0
  0
SPLINE
  5
346
100
AcDbEntity
  8
Layer_1
 62
3
100
AcDbSpline
 70
8
 71
3
 72
8
 73
4
 74
0
 40
0
 40
0
 40
0
 40
0
 40
1
 40
1
 40
1
 40
1
 10
4.699624
 20
14.974002
 30
0.0
 10
4.688688
 20
14.984940
 30
0.0
 10
4.683220
 20
14.998917
 30
0.0
 10
4.683220
 20
15.015932
 30
0.0
  0
LINE
  5
347
100
AcDbEntity
  8
Layer_1
 62
3
100
AcDbLine
 10
4.683220
 20
15.015932
 30
0.0
 11
4.683220
 21
15.132606
 31
0.0
  0
SPLINE
  5
348
100
AcDbEntity
  8
Layer_1
 62
3
100
AcDbSpline
 70
8
 71
3
 72
8
 73
4
 74
0
 40
0
 40
0
 40
0
 40
0
 40
1
 40
1
 40
1
 40
1
 10
4.683220
 20
15.132606
 30
0.0
 10
4.683220
 20
15.149620
 30
0.0
 10
4.688988
 20
15.163597
 30
0.0
 10
4.700524
 20
15.174535
 30
0.0
  0
SPLINE
  5
349
100
AcDbEntity
  8
Layer_1
 62
3
100
AcDbSpline
 70
8
 71
3
 72
8
 73
4
 74
0
 40
0
 40
0
 40
0
 40
0
 40
1
 40
1
 40
1
 40
1
 10
4.700524
 20
15.174535
 30
0.0
 10
4.712077
 20
15.185473
 30
0.0
 10
4.725750
 20
15.190942
 30
0.0
 10
4.741542
 20
15.190942
 30
0.0
  0
LINE
  5
34a
100
AcDbEntity
  8
Layer_1
 62
3
100
AcDbLine
 10
4.741542
 20
15.190942
 30
0.0
 11
5.208238
 21
15.190942
 31
0.0
  0
SPLINE
  5
34b
100
AcDbEntity
  8
Layer_1
 62
3
100
AcDbSpline
 70
8
 71
3
 72
8
 73
4
 74
0
 40
0
 40
0
 40
0
 40
0
 40
1
 40
1
 40
1
 40
1
 10
5.208238
 20
15.190942
 30
0.0
 10
5.225260
 20
15.190942
 30
0.0
 10
5.239237
 20
15.196715
 30
0.0
 10
5.250169
 20
15.208261
 30
0.0
  0
SPLINE
  5
34c
100
AcDbEntity
  8
Layer_1
 62
3
100
AcDbSpline
 70
8
 71
3
 72
8
 73
4
 74
0
 40
0
 40
0
 40
0
 40
0
 40
1
 40
1
 40
1
 40
1
 10
5.250169
 20
15.208261
 30
0.0
 10
5.261106
 20
15.219808
 30
0.0
 10
5.266574
 20
15.233481
 30
0.0
 10
5.266574
 20
15.249280
 30
0.0
  0
LINE
  5
34d
100
AcDbEntity
  8
Layer_1
 62
3
100
AcDbLine
 10
5.266574
 20
15.249280
 30
0.0
 11
5.266574
 21
15.599302
 31
0.0
  0
SPLINE
  5
34e
100
AcDbEntity
  8
Layer_1
 62
3
100
AcDbSpline
 70
8
 71
3
 72
8
 73
4
 74
0
 40
0
 40
0
 40
0
 40
0
 40
1
 40
1
 40
1
 40
1
 10
5.266574
 20
15.599302
 30
0.0
 10
5.266574
 20
15.615101
 30
0.0
 10
5.260797
 20
15.628773
 30
0.0
 10
5.249243
 20
15.640320
 30
0.0
  0
SPLINE
  5
34f
100
AcDbEntity
  8
Layer_1
 62
3
100
AcDbSpline
 70
8
 71
3
 72
8
 73
4
 74
0
 40
0
 40
0
 40
0
 40
0
 40
1
 40
1
 40
1
 40
1
 10
5.249243
 20
15.640320
 30
0.0
 10
5.237690
 20
15.651866
 30
0.0
 10
5.224017
 20
15.657639
 30
0.0
 10
5.208225
 20
15.657639
 30
0.0
  0
LINE
  5
350
100
AcDbEntity
  8
Layer_1
 62
3
100
AcDbLine
 10
5.208225
 20
15.657639
 30
0.0
 11
4.799867
 21
15.657639
 31
0.0
  0
SPLINE
  5
351
100
AcDbEntity
  8
Layer_1
 62
3
100
AcDbSpline
 70
8
 71
3
 72
8
 73
4
 74
0
 40
0
 40
0
 40
0
 40
0
 40
1
 40
1
 40
1
 40
1
 10
4.799867
 20
15.657639
 30
0.0
 10
4.783463
 20
15.657639
 30
0.0
 10
4.767967
 20
15.660678
 30
0.0
 10
4.753380
 20
15.666754
 30
0.0
  0
SPLINE
  5
352
100
AcDbEntity
  8
Layer_1
 62
3
100
AcDbSpline
 70
8
 71
3
 72
8
 73
4
 74
0
 40
0
 40
0
 40
0
 40
0
 40
1
 40
1
 40
1
 40
1
 10
4.753380
 20
15.666754
 30
0.0
 10
4.739410
 20
15.672831
 30
0.0
 10
4.727257
 20
15.681035
 30
0.0
 10
4.716920
 20
15.691366
 30
0.0
  0
SPLINE
  5
353
100
AcDbEntity
  8
Layer_1
 62
3
100
AcDbSpline
 70
8
 71
3
 72
8
 73
4
 74
0
 40
0
 40
0
 40
0
 40
0
 40
1
 40
1
 40
1
 40
1
 10
4.716920
 20
15.691366
 30
0.0
 10
4.706584
 20
15.701697
 30
0.0
 10
4.698382
 20
15.713851
 30
0.0
 10
4.692314
 20
15.727827
 30
0.0
  0
SPLINE
  5
354
100
AcDbEntity
  8
Layer_1
 62
3
100
AcDbSpline
 70
8
 71
3
 72
8
 73
4
 74
0
 40
0
 40
0
 40
0
 40
0
 40
1
 40
1
 40
1
 40
1
 10
4.692314
 20
15.727827
 30
0.0
 10
4.686229
 20
15.742410
 30
0.0
 10
4.683186
 20
15.757906
 30
0.0
 10
4.683186
 20
15.774314
 30
0.0
  0
LINE
  5
355
100
AcDbEntity
  8
Layer_1
 62
3
100
AcDbLine
 10
4.683186
 20
15.774314
 30
0.0
 11
4.683186
 21
16.532694
 31
0.0
  0
SPLINE
  5
356
100
AcDbEntity
  8
Layer_1
 62
3
100
AcDbSpline
 70
8
 71
3
 72
8
 73
4
 74
0
 40
0
 40
0
 40
0
 40
0
 40
1
 40
1
 40
1
 40
1
 10
4.683186
 20
16.532694
 30
0.0
 10
4.683186
 20
16.549709
 30
0.0
 10
4.688954
 20
16.563685
 30
0.0
 10
4.700490
 20
16.574624
 30
0.0
  0
SPLINE
  5
357
100
AcDbEntity
  8
Layer_1
 62
3
100
AcDbSpline
 70
8
 71
3
 72
8
 73
4
 74
0
 40
0
 40
0
 40
0
 40
0
 40
1
 40
1
 40
1
 40
1
 10
4.700490
 20
16.574624
 30
0.0
 10
4.712043
 20
16.585562
 30
0.0
 10
4.725716
 20
16.591030
 30
0.0
 10
4.741508
 20
16.591030
 30
0.0
  0
LINE
  5
358
100
AcDbEntity
  8
Layer_1
 62
3
100
AcDbLine
 10
4.741508
 20
16.591030
 30
0.0
 11
4.858184
 21
16.591030
 31
0.0
  0
SPLINE
  5
359
100
AcDbEntity
  8
Layer_1
 62
3
100
AcDbSpline
 70
8
 71
3
 72
8
 73
4
 74
0
 40
0
 40
0
 40
0
 40
0
 40
1
 40
1
 40
1
 40
1
 10
4.858184
 20
16.591030
 30
0.0
 10
4.873988
 20
16.591030
 30
0.0
 10
4.887660
 20
16.585257
 30
0.0
 10
4.899200
 20
16.573711
 30
0.0
  0
SPLINE
  5
35a
100
AcDbEntity
  8
Layer_1
 62
3
100
AcDbSpline
 70
8
 71
3
 72
8
 73
4
 74
0
 40
0
 40
0
 40
0
 40
0
 40
1
 40
1
 40
1
 40
1
 10
4.899200
 20
16.573711
 30
0.0
 10
4.910753
 20
16.562164
 30
0.0
 10
4.916530
 20
16.548492
 30
0.0
 10
4.916530
 20
16.532692
 30
0.0
  0
LINE
  5
35b
100
AcDbEntity
  8
Layer_1
 62
3
100
AcDbLine
 10
4.916530
 20
16.532692
 30
0.0
 11
4.916530
 21
15.949323
 31
0.0
  0
SPLINE
  5
35c
100
AcDbEntity
  8
Layer_1
 62
3
100
AcDbSpline
 70
8
 71
3
 72
8
 73
4
 74
0
 40
0
 40
0
 40
0
 40
0
 40
1
 40
1
 40
1
 40
1
 10
4.916530
 20
15.949323
 30
0.0
 10
4.916530
 20
15.932308
 30
0.0
 10
4.921998
 20
15.918332
 30
0.0
 10
4.932934
 20
15.907393
 30
0.0
  0
SPLINE
  5
35d
100
AcDbEntity
  8
Layer_1
 62
3
100
AcDbSpline
 70
8
 71
3
 72
8
 73
4
 74
0
 40
0
 40
0
 40
0
 40
0
 40
1
 40
1
 40
1
 40
1
 10
4.932934
 20
15.907393
 30
0.0
 10
4.943870
 20
15.896456
 30
0.0
 10
4.957847
 20
15.890987
 30
0.0
 10
4.974865
 20
15.890987
 30
0.0
  0
LINE
  5
35e
100
AcDbEntity
  8
Layer_1
 62
3
100
AcDbLine
 10
4.974865
 20
15.890987
 30
0.0
 11
5.791581
 21
15.890987
 31
0.0
  0
SPLINE
  5
35f
100
AcDbEntity
  8
Layer_1
 62
3
100
AcDbSpline
 70
8
 71
3
 72
8
 73
4
 74
0
 40
0
 40
0
 40
0
 40
0
 40
1
 40
1
 40
1
 40
1
 10
5.791581
 20
15.890987
 30
0.0
 10
5.808603
 20
15.890987
 30
0.0
 10
5.822580
 20
15.896760
 30
0.0
 10
5.833512
 20
15.908306
 30
0.0
  0
SPLINE
  5
360
100
AcDbEntity
  8
Layer_1
 62
3
100
AcDbSpline
 70
8
 71
3
 72
8
 73
4
 74
0
 40
0
 40
0
 40
0
 40
0
 40
1
 40
1
 40
1
 40
1
 10
5.833512
 20
15.908306
 30
0.0
 10
5.844448
 20
15.919853
 30
0.0
 10
5.849916
 20
15.933525
 30
0.0
 10
5.849916
 20
15.949325
 30
0.0
  0
LINE
  5
361
100
AcDbEntity
  8
Layer_1
 62
3
100
AcDbLine
 10
5.849916
 20
15.949325
 30
0.0
 11
5.849916
 21
16.532694
 31
0.0
  0
SPLINE
  5
362
100
AcDbEntity
  8
Layer_1
 62
3
100
AcDbSpline
 70
8
 71
3
 72
8
 73
4
 74
0
 40
0
 40
0
 40
0
 40
0
 40
1
 40
1
 40
1
 40
1
 10
5.849916
 20
16.532694
 30
0.0
 10
5.849916
 20
16.549709
 30
0.0
 10
5.855693
 20
16.563685
 30
0.0
 10
5.867247
 20
16.574624
 30
0.0
  0
SPLINE
  5
363
100
AcDbEntity
  8
Layer_1
 62
3
100
AcDbSpline
 70
8
 71
3
 72
8
 73
4
 74
0
 40
0
 40
0
 40
0
 40
0
 40
1
 40
1
 40
1
 40
1
 10
5.867247
 20
16.574624
 30
0.0
 10
5.878782
 20
16.585562
 30
0.0
 10
5.892455
 20
16.591030
 30
0.0
 10
5.908265
 20
16.591030
 30
0.0
  0
LINE
  5
364
100
AcDbEntity
  8
Layer_1
 62
3
100
AcDbLine
 10
5.908265
 20
16.591030
 30
0.0
 11
6.024938
 21
16.591030
 31
0.0
  0
SPLINE
  5
365
100
AcDbEntity
  8
Layer_1
 62
3
100
AcDbSpline
 70
8
 71
3
 72
8
 73
4
 74
0
 40
0
 40
0
 40
0
 40
0
 40
1
 40
1
 40
1
 40
1
 10
6.024938
 20
16.591030
 30
0.0
 10
6.040743
 20
16.591030
 30
0.0
 10
6.054415
 20
16.585257
 30
0.0
 10
6.065957
 20
16.573711
 30
0.0
  0
SPLINE
  5
366
100
AcDbEntity
  8
Layer_1
 62
3
100
AcDbSpline
 70
8
 71
3
 72
8
 73
4
 74
0
 40
0
 40
0
 40
0
 40
0
 40
1
 40
1
 40
1
 40
1
 10
6.065957
 20
16.573711
 30
0.0
 10
6.077492
 20
16.562164
 30
0.0
 10
6.083260
 20
16.548492
 30
0.0
 10
6.083260
 20
16.532692
 30
0.0
  0
LINE
  5
367
100
AcDbEntity
  8
Layer_1
 62
3
100
AcDbLine
 10
6.083260
 20
16.532692
 30
0.0
 11
6.083260
 21
15.774312
 31
0.0
  0
SPLINE
  5
368
100
AcDbEntity
  8
Layer_1
 62
3
100
AcDbSpline
 70
8
 71
3
 72
8
 73
4
 74
0
 40
0
 40
0
 40
0
 40
0
 40
1
 40
1
 40
1
 40
1
 10
6.083260
 20
15.774312
 30
0.0
 10
6.083260
 20
15.758513
 30
0.0
 10
6.079918
 20
15.743625
 30
0.0
 10
6.073233
 20
15.729648
 30
0.0
  0
SPLINE
  5
369
100
AcDbEntity
  8
Layer_1
 62
3
100
AcDbSpline
 70
8
 71
3
 72
8
 73
4
 74
0
 40
0
 40
0
 40
0
 40
0
 40
1
 40
1
 40
1
 40
1
 10
6.073233
 20
15.729648
 30
0.0
 10
6.067165
 20
15.715671
 30
0.0
 10
6.058654
 20
15.703214
 30
0.0
 10
6.047700
 20
15.692276
 30
0.0
  0
SPLINE
  5
36a
100
AcDbEntity
  8
Layer_1
 62
3
100
AcDbSpline
 70
8
 71
3
 72
8
 73
4
 74
0
 40
0
 40
0
 40
0
 40
0
 40
1
 40
1
 40
1
 40
1
 10
6.047700
 20
15.692276
 30
0.0
 10
6.037364
 20
15.681945
 30
0.0
 10
6.025211
 20
15.673438
 30
0.0
 10
6.011241
 20
15.666754
 30
0.0
  0
SPLINE
  5
36b
100
AcDbEntity
  8
Layer_1
 62
3
100
AcDbSpline
 70
8
 71
3
 72
8
 73
4
 74
0
 40
0
 40
0
 40
0
 40
0
 40
1
 40
1
 40
1
 40
1
 10
6.011241
 20
15.666754
 30
0.0
 10
5.997271
 20
15.660678
 30
0.0
 10
5.982383
 20
15.657639
 30
0.0
 10
5.966576
 20
15.657639
 30
0.0
  0
LINE
  5
36c
100
AcDbEntity
  8
Layer_1
 62
3
100
AcDbLine
 10
5.966576
 20
15.657639
 30
0.0
 11
5.558219
 21
15.657639
 31
0.0
  0
SPLINE
  5
36d
100
AcDbEntity
  8
Layer_1
 62
3
100
AcDbSpline
 70
8
 71
3
 72
8
 73
4
 74
0
 40
0
 40
0
 40
0
 40
0
 40
1
 40
1
 40
1
 40
1
 10
5.558219
 20
15.657639
 30
0.0
 10
5.542414
 20
15.657639
 30
0.0
 10
5.528741
 20
15.652170
 30
0.0
 10
5.517200
 20
15.641232
 30
0.0
  0
SPLINE
  5
36e
100
AcDbEntity
  8
Layer_1
 62
3
100
AcDbSpline
 70
8
 71
3
 72
8
 73
4
 74
0
 40
0
 40
0
 40
0
 40
0
 40
1
 40
1
 40
1
 40
1
 10
5.517200
 20
15.641232
 30
0.0
 10
5.505647
 20
15.630295
 30
0.0
 10
5.499870
 20
15.616318
 30
0.0
 10
5.499870
 20
15.599303
 30
0.0
  0
LINE
  5
36f
100
AcDbEntity
  8
Layer_1
 62
3
100
AcDbLine
 10
5.499870
 20
15.599303
 30
0.0
 11
5.499870
 21
15.249281
 31
0.0
  0
SPLINE
  5
370
100
AcDbEntity
  8
Layer_1
 62
3
100
AcDbSpline
 70
8
 71
3
 72
8
 73
4
 74
0
 40
0
 40
0
 40
0
 40
0
 40
1
 40
1
 40
1
 40
1
 10
5.499870
 20
15.249281
 30
0.0
 10
5.499870
 20
15.232267
 30
0.0
 10
5.505338
 20
15.218290
 30
0.0
 10
5.516274
 20
15.207352
 30
0.0
  0
SPLINE
  5
371
100
AcDbEntity
  8
Layer_1
 62
3
100
AcDbSpline
 70
8
 71
3
 72
8
 73
4
 74
0
 40
0
 40
0
 40
0
 40
0
 40
1
 40
1
 40
1
 40
1
 10
5.516274
 20
15.207352
 30
0.0
 10
5.527210
 20
15.196414
 30
0.0
 10
5.541187
 20
15.190945
 30
0.0
 10
5.558205
 20
15.190945
 30
0.0
  0
LINE
  5
372
100
AcDbEntity
  8
Layer_1
 62
3
100
AcDbLine
 10
5.558205
 20
15.190945
 30
0.0
 11
6.024901
 21
15.190945
 31
0.0
  0
SPLINE
  5
373
100
AcDbEntity
  8
Layer_1
 62
3
100
AcDbSpline
 70
8
 71
3
 72
8
 73
4
 74
0
 40
0
 40
0
 40
0
 40
0
 40
1
 40
1
 40
1
 40
1
 10
6.024901
 20
15.190945
 30
0.0
 10
6.040706
 20
15.190945
 30
0.0
 10
6.054378
 20
15.185172
 30
0.0
 10
6.065920
 20
15.173626
 30
0.0
  0
SPLINE
  5
374
100
AcDbEntity
  8
Layer_1
 62
3
100
AcDbSpline
 70
8
 71
3
 72
8
 73
4
 74
0
 40
0
 40
0
 40
0
 40
0
 40
1
 40
1
 40
1
 40
1
 10
6.065920
 20
15.173626
 30
0.0
 10
6.077455
 20
15.162079
 30
0.0
 10
6.083223
 20
15.148406
 30
0.0
 10
6.083223
 20
15.132607
 30
0.0
  0
LINE
  5
375
100
AcDbEntity
  8
Layer_1
 62
3
100
AcDbLine
 10
6.083223
 20
15.132607
 30
0.0
 11
6.083223
 21
15.015933
 31
0.0
  0
SPLINE
  5
376
100
AcDbEntity
  8
Layer_1
 62
3
100
AcDbSpline
 70
8
 71
3
 72
8
 73
4
 74
0
 40
0
 40
0
 40
0
 40
0
 40
1
 40
1
 40
1
 40
1
 10
6.083223
 20
15.015933
 30
0.0
 10
6.083223
 20
15.000134
 30
0.0
 10
6.077755
 20
14.986461
 30
0.0
 10
6.066819
 20
14.974915
 30
0.0
  0
SPLINE
  5
377
100
AcDbEntity
  8
Layer_1
 62
3
100
AcDbSpline
 70
8
 71
3
 72
8
 73
4
 74
0
 40
0
 40
0
 40
0
 40
0
 40
1
 40
1
 40
1
 40
1
 10
6.066819
 20
14.974915
 30
0.0
 10
6.055883
 20
14.963368
 30
0.0
 10
6.041907
 20
14.957595
 30
0.0
 10
6.024891
 20
14.957595
 30
0.0
  0
LINE
  5
378
100
AcDbEntity
  8
Layer_1
 62
3
100
AcDbLine
 10
6.024891
 20
14.957595
 30
0.0
 11
4.741553
 21
14.957595
 31
0.0
  0
SPLINE
  5
379
100
AcDbEntity
  8
Layer_1
 62
3
100
AcDbSpline
 70
8
 71
3
 72
8
 73
4
 74
0
 40
0
 40
0
 40
0
 40
0
 40
1
 40
1
 40
1
 40
1
 10
5.208249
 20
11.099307
 30
0.0
 10
5.225270
 20
11.099307
 30
0.0
 10
5.239247
 20
11.105079
 30
0.0
 10
5.250180
 20
11.116625
 30
0.0
  0
SPLINE
  5
37a
100
AcDbEntity
  8
Layer_1
 62
3
100
AcDbSpline
 70
8
 71
3
 72
8
 73
4
 74
0
 40
0
 40
0
 40
0
 40
0
 40
1
 40
1
 40
1
 40
1
 10
5.250180
 20
11.116625
 30
0.0
 10
5.261116
 20
11.128171
 30
0.0
 10
5.266584
 20
11.141844
 30
0.0
 10
5.266584
 20
11.157644
 30
0.0
  0
LINE
  5
37b
100
AcDbEntity
  8
Layer_1
 62
3
100
AcDbLine
 10
5.266584
 20
11.157644
 30
0.0
 11
5.266584
 21
11.741013
 31
0.0
  0
SPLINE
  5
37c
100
AcDbEntity
  8
Layer_1
 62
3
100
AcDbSpline
 70
8
 71
3
 72
8
 73
4
 74
0
 40
0
 40
0
 40
0
 40
0
 40
1
 40
1
 40
1
 40
1
 10
5.266584
 20
11.741013
 30
0.0
 10
5.266584
 20
11.756813
 30
0.0
 10
5.260807
 20
11.770485
 30
0.0
 10
5.249254
 20
11.782031
 30
0.0
  0
SPLINE
  5
37d
100
AcDbEntity
  8
Layer_1
 62
3
100
AcDbSpline
 70
8
 71
3
 72
8
 73
4
 74
0
 40
0
 40
0
 40
0
 40
0
 40
1
 40
1
 40
1
 40
1
 10
5.249254
 20
11.782031
 30
0.0
 10
5.237700
 20
11.793577
 30
0.0
 10
5.224028
 20
11.799350
 30
0.0
 10
5.208236
 20
11.799350
 30
0.0
  0
LINE
  5
37e
100
AcDbEntity
  8
Layer_1
 62
3
100
AcDbLine
 10
5.208236
 20
11.799350
 30
0.0
 11
4.974889
 21
11.799350
 31
0.0
  0
SPLINE
  5
37f
100
AcDbEntity
  8
Layer_1
 62
3
100
AcDbSpline
 70
8
 71
3
 72
8
 73
4
 74
0
 40
0
 40
0
 40
0
 40
0
 40
1
 40
1
 40
1
 40
1
 10
4.974889
 20
11.799350
 30
0.0
 10
4.959085
 20
11.799350
 30
0.0
 10
4.945412
 20
11.793881
 30
0.0
 10
4.933871
 20
11.782942
 30
0.0
  0
SPLINE
  5
380
100
AcDbEntity
  8
Layer_1
 62
3
100
AcDbSpline
 70
8
 71
3
 72
8
 73
4
 74
0
 40
0
 40
0
 40
0
 40
0
 40
1
 40
1
 40
1
 40
1
 10
4.933871
 20
11.782942
 30
0.0
 10
4.922317
 20
11.772004
 30
0.0
 10
4.916540
 20
11.758028
 30
0.0
 10
4.916540
 20
11.741013
 30
0.0
  0
LINE
  5
381
100
AcDbEntity
  8
Layer_1
 62
3
100
AcDbLine
 10
4.916540
 20
11.741013
 30
0.0
 11
4.916540
 21
11.157644
 31
0.0
  0
SPLINE
  5
382
100
AcDbEntity
  8
Layer_1
 62
3
100
AcDbSpline
 70
8
 71
3
 72
8
 73
4
 74
0
 40
0
 40
0
 40
0
 40
0
 40
1
 40
1
 40
1
 40
1
 10
4.916540
 20
11.157644
 30
0.0
 10
4.916540
 20
11.140628
 30
0.0
 10
4.922008
 20
11.126652
 30
0.0
 10
4.932945
 20
11.115713
 30
0.0
  0
SPLINE
  5
383
100
AcDbEntity
  8
Layer_1
 62
3
100
AcDbSpline
 70
8
 71
3
 72
8
 73
4
 74
0
 40
0
 40
0
 40
0
 40
0
 40
1
 40
1
 40
1
 40
1
 10
4.932945
 20
11.115713
 30
0.0
 10
4.943881
 20
11.104776
 30
0.0
 10
4.957858
 20
11.099307
 30
0.0
 10
4.974876
 20
11.099307
 30
0.0
  0
LINE
  5
384
100
AcDbEntity
  8
Layer_1
 62
3
100
AcDbLine
 10
4.974876
 20
11.099307
 30
0.0
 11
5.208249
 21
11.099307
 31
0.0
  0
SPLINE
  5
385
100
AcDbEntity
  8
Layer_1
 62
3
100
AcDbSpline
 70
8
 71
3
 72
8
 73
4
 74
0
 40
0
 40
0
 40
0
 40
0
 40
1
 40
1
 40
1
 40
1
 10
4.741553
 20
10.399263
 30
0.0
 10
4.724531
 20
10.399263
 30
0.0
 10
4.710555
 20
10.404732
 30
0.0
 10
4.699624
 20
10.415670
 30
0.0
  0
SPLINE
  5
386
100
AcDbEntity
  8
Layer_1
 62
3
100
AcDbSpline
 70
8
 71
3
 72
8
 73
4
 74
0
 40
0
 40
0
 40
0
 40
0
 40
1
 40
1
 40
1
 40
1
 10
4.699624
 20
10.415670
 30
0.0
 10
4.688688
 20
10.426608
 30
0.0
 10
4.683220
 20
10.440585
 30
0.0
 10
4.683220
 20
10.457600
 30
0.0
  0
LINE
  5
387
100
AcDbEntity
  8
Layer_1
 62
3
100
AcDbLine
 10
4.683220
 20
10.457600
 30
0.0
 11
4.683220
 21
10.574274
 31
0.0
  0
SPLINE
  5
388
100
AcDbEntity
  8
Layer_1
 62
3
100
AcDbSpline
 70
8
 71
3
 72
8
 73
4
 74
0
 40
0
 40
0
 40
0
 40
0
 40
1
 40
1
 40
1
 40
1
 10
4.683220
 20
10.574274
 30
0.0
 10
4.683220
 20
10.591289
 30
0.0
 10
4.688988
 20
10.605265
 30
0.0
 10
4.700524
 20
10.616203
 30
0.0
  0
SPLINE
  5
389
100
AcDbEntity
  8
Layer_1
 62
3
100
AcDbSpline
 70
8
 71
3
 72
8
 73
4
 74
0
 40
0
 40
0
 40
0
 40
0
 40
1
 40
1
 40
1
 40
1
 10
4.700524
 20
10.616203
 30
0.0
 10
4.712077
 20
10.627142
 30
0.0
 10
4.725750
 20
10.632611
 30
0.0
 10
4.741542
 20
10.632611
 30
0.0
  0
LINE
  5
38a
100
AcDbEntity
  8
Layer_1
 62
3
100
AcDbLine
 10
4.741542
 20
10.632611
 30
0.0
 11
5.791607
 21
10.632611
 31
0.0
  0
SPLINE
  5
38b
100
AcDbEntity
  8
Layer_1
 62
3
100
AcDbSpline
 70
8
 71
3
 72
8
 73
4
 74
0
 40
0
 40
0
 40
0
 40
0
 40
1
 40
1
 40
1
 40
1
 10
5.791607
 20
10.632611
 30
0.0
 10
5.808629
 20
10.632611
 30
0.0
 10
5.822606
 20
10.638384
 30
0.0
 10
5.833539
 20
10.649930
 30
0.0
  0
SPLINE
  5
38c
100
AcDbEntity
  8
Layer_1
 62
3
100
AcDbSpline
 70
8
 71
3
 72
8
 73
4
 74
0
 40
0
 40
0
 40
0
 40
0
 40
1
 40
1
 40
1
 40
1
 10
5.833539
 20
10.649930
 30
0.0
 10
5.844475
 20
10.661475
 30
0.0
 10
5.849943
 20
10.675148
 30
0.0
 10
5.849943
 20
10.690948
 30
0.0
  0
LINE
  5
38d
100
AcDbEntity
  8
Layer_1
 62
3
100
AcDbLine
 10
5.849943
 20
10.690948
 30
0.0
 11
5.849943
 21
11.040970
 31
0.0
  0
SPLINE
  5
38e
100
AcDbEntity
  8
Layer_1
 62
3
100
AcDbSpline
 70
8
 71
3
 72
8
 73
4
 74
0
 40
0
 40
0
 40
0
 40
0
 40
1
 40
1
 40
1
 40
1
 10
5.849943
 20
11.040970
 30
0.0
 10
5.849943
 20
11.056769
 30
0.0
 10
5.844166
 20
11.070442
 30
0.0
 10
5.832613
 20
11.081987
 30
0.0
  0
SPLINE
  5
38f
100
AcDbEntity
  8
Layer_1
 62
3
100
AcDbSpline
 70
8
 71
3
 72
8
 73
4
 74
0
 40
0
 40
0
 40
0
 40
0
 40
1
 40
1
 40
1
 40
1
 10
5.832613
 20
11.081987
 30
0.0
 10
5.821077
 20
11.093534
 30
0.0
 10
5.807404
 20
11.099307
 30
0.0
 10
5.791594
 20
11.099307
 30
0.0
  0
LINE
  5
390
100
AcDbEntity
  8
Layer_1
 62
3
100
AcDbLine
 10
5.791594
 20
11.099307
 30
0.0
 11
5.558248
 21
11.099307
 31
0.0
  0
SPLINE
  5
391
100
AcDbEntity
  8
Layer_1
 62
3
100
AcDbSpline
 70
8
 71
3
 72
8
 73
4
 74
0
 40
0
 40
0
 40
0
 40
0
 40
1
 40
1
 40
1
 40
1
 10
5.558248
 20
11.099307
 30
0.0
 10
5.542443
 20
11.099307
 30
0.0
 10
5.528770
 20
11.093838
 30
0.0
 10
5.517229
 20
11.082899
 30
0.0
  0
SPLINE
  5
392
100
AcDbEntity
  8
Layer_1
 62
3
100
AcDbSpline
 70
8
 71
3
 72
8
 73
4
 74
0
 40
0
 40
0
 40
0
 40
0
 40
1
 40
1
 40
1
 40
1
 10
5.517229
 20
11.082899
 30
0.0
 10
5.505676
 20
11.071961
 30
0.0
 10
5.499899
 20
11.057984
 30
0.0
 10
5.499899
 20
11.040970
 30
0.0
  0
LINE
  5
393
100
AcDbEntity
  8
Layer_1
 62
3
100
AcDbLine
 10
5.499899
 20
11.040970
 30
0.0
 11
5.499899
 21
10.982633
 31
0.0
  0
SPLINE
  5
394
100
AcDbEntity
  8
Layer_1
 62
3
100
AcDbSpline
 70
8
 71
3
 72
8
 73
4
 74
0
 40
0
 40
0
 40
0
 40
0
 40
1
 40
1
 40
1
 40
1
 10
5.499899
 20
10.982633
 30
0.0
 10
5.499899
 20
10.966833
 30
0.0
 10
5.496556
 20
10.951945
 30
0.0
 10
5.489871
 20
10.937968
 30
0.0
  0
SPLINE
  5
395
100
AcDbEntity
  8
Layer_1
 62
3
100
AcDbSpline
 70
8
 71
3
 72
8
 73
4
 74
0
 40
0
 40
0
 40
0
 40
0
 40
1
 40
1
 40
1
 40
1
 10
5.489871
 20
10.937968
 30
0.0
 10
5.483804
 20
10.923992
 30
0.0
 10
5.475293
 20
10.911534
 30
0.0
 10
5.464339
 20
10.900596
 30
0.0
  0
SPLINE
  5
396
100
AcDbEntity
  8
Layer_1
 62
3
100
AcDbSpline
 70
8
 71
3
 72
8
 73
4
 74
0
 40
0
 40
0
 40
0
 40
0
 40
1
 40
1
 40
1
 40
1
 10
5.464339
 20
10.900596
 30
0.0
 10
5.454003
 20
10.890265
 30
0.0
 10
5.441849
 20
10.881758
 30
0.0
 10
5.427879
 20
10.875074
 30
0.0
  0
SPLINE
  5
397
100
AcDbEntity
  8
Layer_1
 62
3
100
AcDbSpline
 70
8
 71
3
 72
8
 73
4
 74
0
 40
0
 40
0
 40
0
 40
0
 40
1
 40
1
 40
1
 40
1
 10
5.427879
 20
10.875074
 30
0.0
 10
5.413909
 20
10.868997
 30
0.0
 10
5.399021
 20
10.865959
 30
0.0
 10
5.383215
 20
10.865959
 30
0.0
  0
LINE
  5
398
100
AcDbEntity
  8
Layer_1
 62
3
100
AcDbLine
 10
5.383215
 20
10.865959
 30
0.0
 11
4.799846
 21
10.865959
 31
0.0
  0
SPLINE
  5
399
100
AcDbEntity
  8
Layer_1
 62
3
100
AcDbSpline
 70
8
 71
3
 72
8
 73
4
 74
0
 40
0
 40
0
 40
0
 40
0
 40
1
 40
1
 40
1
 40
1
 10
4.799846
 20
10.865959
 30
0.0
 10
4.783442
 20
10.865959
 30
0.0
 10
4.767946
 20
10.868997
 30
0.0
 10
4.753359
 20
10.875074
 30
0.0
  0
SPLINE
  5
39a
100
AcDbEntity
  8
Layer_1
 62
3
100
AcDbSpline
 70
8
 71
3
 72
8
 73
4
 74
0
 40
0
 40
0
 40
0
 40
0
 40
1
 40
1
 40
1
 40
1
 10
4.753359
 20
10.875074
 30
0.0
 10
4.739389
 20
10.881151
 30
0.0
 10
4.727235
 20
10.889354
 30
0.0
 10
4.716899
 20
10.899685
 30
0.0
  0
SPLINE
  5
39b
100
AcDbEntity
  8
Layer_1
 62
3
100
AcDbSpline
 70
8
 71
3
 72
8
 73
4
 74
0
 40
0
 40
0
 40
0
 40
0
 40
1
 40
1
 40
1
 40
1
 10
4.716899
 20
10.899685
 30
0.0
 10
4.706563
 20
10.910016
 30
0.0
 10
4.698361
 20
10.922169
 30
0.0
 10
4.692293
 20
10.936145
 30
0.0
  0
SPLINE
  5
39c
100
AcDbEntity
  8
Layer_1
 62
3
100
AcDbSpline
 70
8
 71
3
 72
8
 73
4
 74
0
 40
0
 40
0
 40
0
 40
0
 40
1
 40
1
 40
1
 40
1
 10
4.692293
 20
10.936145
 30
0.0
 10
4.686207
 20
10.950730
 30
0.0
 10
4.683165
 20
10.966226
 30
0.0
 10
4.683165
 20
10.982633
 30
0.0
  0
LINE
  5
39d
100
AcDbEntity
  8
Layer_1
 62
3
100
AcDbLine
 10
4.683165
 20
10.982633
 30
0.0
 11
4.683165
 21
11.916024
 31
0.0
  0
SPLINE
  5
39e
100
AcDbEntity
  8
Layer_1
 62
3
100
AcDbSpline
 70
8
 71
3
 72
8
 73
4
 74
0
 40
0
 40
0
 40
0
 40
0
 40
1
 40
1
 40
1
 40
1
 10
4.683165
 20
11.916024
 30
0.0
 10
4.683165
 20
11.931824
 30
0.0
 10
4.686207
 20
11.946711
 30
0.0
 10
4.692293
 20
11.960688
 30
0.0
  0
SPLINE
  5
39f
100
AcDbEntity
  8
Layer_1
 62
3
100
AcDbSpline
 70
8
 71
3
 72
8
 73
4
 74
0
 40
0
 40
0
 40
0
 40
0
 40
1
 40
1
 40
1
 40
1
 10
4.692293
 20
11.960688
 30
0.0
 10
4.698978
 20
11.974664
 30
0.0
 10
4.707489
 20
11.986818
 30
0.0
 10
4.717825
 20
11.997148
 30
0.0
  0
SPLINE
  5
3a0
100
AcDbEntity
  8
Layer_1
 62
3
100
AcDbSpline
 70
8
 71
3
 72
8
 73
4
 74
0
 40
0
 40
0
 40
0
 40
0
 40
1
 40
1
 40
1
 40
1
 10
4.717825
 20
11.997148
 30
0.0
 10
4.728761
 20
12.008087
 30
0.0
 10
4.741219
 20
12.016594
 30
0.0
 10
4.755198
 20
12.022671
 30
0.0
  0
SPLINE
  5
3a1
100
AcDbEntity
  8
Layer_1
 62
3
100
AcDbSpline
 70
8
 71
3
 72
8
 73
4
 74
0
 40
0
 40
0
 40
0
 40
0
 40
1
 40
1
 40
1
 40
1
 10
4.755198
 20
12.022671
 30
0.0
 10
4.769168
 20
12.029356
 30
0.0
 10
4.784056
 20
12.032698
 30
0.0
 10
4.799862
 20
12.032698
 30
0.0
  0
LINE
  5
3a2
100
AcDbEntity
  8
Layer_1
 62
3
100
AcDbLine
 10
4.799862
 20
12.032698
 30
0.0
 11
5.383231
 21
12.032698
 31
0.0
  0
SPLINE
  5
3a3
100
AcDbEntity
  8
Layer_1
 62
3
100
AcDbSpline
 70
8
 71
3
 72
8
 73
4
 74
0
 40
0
 40
0
 40
0
 40
0
 40
1
 40
1
 40
1
 40
1
 10
5.383231
 20
12.032698
 30
0.0
 10
5.399035
 20
12.032698
 30
0.0
 10
5.413924
 20
12.029356
 30
0.0
 10
5.427895
 20
12.022671
 30
0.0
  0
SPLINE
  5
3a4
100
AcDbEntity
  8
Layer_1
 62
3
100
AcDbSpline
 70
8
 71
3
 72
8
 73
4
 74
0
 40
0
 40
0
 40
0
 40
0
 40
1
 40
1
 40
1
 40
1
 10
5.427895
 20
12.022671
 30
0.0
 10
5.441865
 20
12.016594
 30
0.0
 10
5.454019
 20
12.008087
 30
0.0
 10
5.464355
 20
11.997148
 30
0.0
  0
SPLINE
  5
3a5
100
AcDbEntity
  8
Layer_1
 62
3
100
AcDbSpline
 70
8
 71
3
 72
8
 73
4
 74
0
 40
0
 40
0
 40
0
 40
0
 40
1
 40
1
 40
1
 40
1
 10
5.464355
 20
11.997148
 30
0.0
 10
5.475291
 20
11.986818
 30
0.0
 10
5.483802
 20
11.974664
 30
0.0
 10
5.489887
 20
11.960688
 30
0.0
  0
SPLINE
  5
3a6
100
AcDbEntity
  8
Layer_1
 62
3
100
AcDbSpline
 70
8
 71
3
 72
8
 73
4
 74
0
 40
0
 40
0
 40
0
 40
0
 40
1
 40
1
 40
1
 40
1
 10
5.489887
 20
11.960688
 30
0.0
 10
5.496572
 20
11.946711
 30
0.0
 10
5.499915
 20
11.931823
 30
0.0
 10
5.499915
 20
11.916024
 30
0.0
  0
LINE
  5
3a7
100
AcDbEntity
  8
Layer_1
 62
3
100
AcDbLine
 10
5.499915
 20
11.916024
 30
0.0
 11
5.499915
 21
11.390991
 31
0.0
  0
SPLINE
  5
3a8
100
AcDbEntity
  8
Layer_1
 62
3
100
AcDbSpline
 70
8
 71
3
 72
8
 73
4
 74
0
 40
0
 40
0
 40
0
 40
0
 40
1
 40
1
 40
1
 40
1
 10
5.499915
 20
11.390991
 30
0.0
 10
5.499915
 20
11.373976
 30
0.0
 10
5.505383
 20
11.360000
 30
0.0
 10
5.516319
 20
11.349061
 30
0.0
  0
SPLINE
  5
3a9
100
AcDbEntity
  8
Layer_1
 62
3
100
AcDbSpline
 70
8
 71
3
 72
8
 73
4
 74
0
 40
0
 40
0
 40
0
 40
0
 40
1
 40
1
 40
1
 40
1
 10
5.516319
 20
11.349061
 30
0.0
 10
5.527255
 20
11.338123
 30
0.0
 10
5.541232
 20
11.332654
 30
0.0
 10
5.558250
 20
11.332654
 30
0.0
  0
LINE
  5
3aa
100
AcDbEntity
  8
Layer_1
 62
3
100
AcDbLine
 10
5.558250
 20
11.332654
 30
0.0
 11
5.966608
 21
11.332654
 31
0.0
  0
SPLINE
  5
3ab
100
AcDbEntity
  8
Layer_1
 62
3
100
AcDbSpline
 70
8
 71
3
 72
8
 73
4
 74
0
 40
0
 40
0
 40
0
 40
0
 40
1
 40
1
 40
1
 40
1
 10
5.966608
 20
11.332654
 30
0.0
 10
5.982413
 20
11.332654
 30
0.0
 10
5.997301
 20
11.329312
 30
0.0
 10
6.011272
 20
11.322628
 30
0.0
  0
SPLINE
  5
3ac
100
AcDbEntity
  8
Layer_1
 62
3
100
AcDbSpline
 70
8
 71
3
 72
8
 73
4
 74
0
 40
0
 40
0
 40
0
 40
0
 40
1
 40
1
 40
1
 40
1
 10
6.011272
 20
11.322628
 30
0.0
 10
6.025242
 20
11.316551
 30
0.0
 10
6.037396
 20
11.308043
 30
0.0
 10
6.047732
 20
11.297105
 30
0.0
  0
SPLINE
  5
3ad
100
AcDbEntity
  8
Layer_1
 62
3
100
AcDbSpline
 70
8
 71
3
 72
8
 73
4
 74
0
 40
0
 40
0
 40
0
 40
0
 40
1
 40
1
 40
1
 40
1
 10
6.047732
 20
11.297105
 30
0.0
 10
6.058668
 20
11.286774
 30
0.0
 10
6.067179
 20
11.274621
 30
0.0
 10
6.073264
 20
11.260644
 30
0.0
  0
SPLINE
  5
3ae
100
AcDbEntity
  8
Layer_1
 62
3
100
AcDbSpline
 70
8
 71
3
 72
8
 73
4
 74
0
 40
0
 40
0
 40
0
 40
0
 40
1
 40
1
 40
1
 40
1
 10
6.073264
 20
11.260644
 30
0.0
 10
6.079949
 20
11.246668
 30
0.0
 10
6.083292
 20
11.231780
 30
0.0
 10
6.083292
 20
11.215980
 30
0.0
  0
LINE
  5
3af
100
AcDbEntity
  8
Layer_1
 62
3
100
AcDbLine
 10
6.083292
 20
11.215980
 30
0.0
 11
6.083292
 21
10.515937
 31
0.0
  0
SPLINE
  5
3b0
100
AcDbEntity
  8
Layer_1
 62
3
100
AcDbSpline
 70
8
 71
3
 72
8
 73
4
 74
0
 40
0
 40
0
 40
0
 40
0
 40
1
 40
1
 40
1
 40
1
 10
6.083292
 20
10.515937
 30
0.0
 10
6.083292
 20
10.500137
 30
0.0
 10
6.079949
 20
10.485249
 30
0.0
 10
6.073264
 20
10.471272
 30
0.0
  0
SPLINE
  5
3b1
100
AcDbEntity
  8
Layer_1
 62
3
100
AcDbSpline
 70
8
 71
3
 72
8
 73
4
 74
0
 40
0
 40
0
 40
0
 40
0
 40
1
 40
1
 40
1
 40
1
 10
6.073264
 20
10.471272
 30
0.0
 10
6.067197
 20
10.457296
 30
0.0
 10
6.058686
 20
10.444838
 30
0.0
 10
6.047732
 20
10.433900
 30
0.0
  0
SPLINE
  5
3b2
100
AcDbEntity
  8
Layer_1
 62
3
100
AcDbSpline
 70
8
 71
3
 72
8
 73
4
 74
0
 40
0
 40
0
 40
0
 40
0
 40
1
 40
1
 40
1
 40
1
 10
6.047732
 20
10.433900
 30
0.0
 10
6.037396
 20
10.423570
 30
0.0
 10
6.025242
 20
10.415062
 30
0.0
 10
6.011272
 20
10.408378
 30
0.0
  0
SPLINE
  5
3b3
100
AcDbEntity
  8
Layer_1
 62
3
100
AcDbSpline
 70
8
 71
3
 72
8
 73
4
 74
0
 40
0
 40
0
 40
0
 40
0
 40
1
 40
1
 40
1
 40
1
 10
6.011272
 20
10.408378
 30
0.0
 10
5.997302
 20
10.402302
 30
0.0
 10
5.982414
 20
10.399263
 30
0.0
 10
5.966608
 20
10.399263
 30
0.0
  0
LINE
  5
3b4
100
AcDbEntity
  8
Layer_1
 62
3
100
AcDbLine
 10
5.966608
 20
10.399263
 30
0.0
 11
4.741553
 21
10.399263
 31
0.0
  0
SPLINE
  5
3b5
100
AcDbEntity
  8
Layer_1
 62
3
100
AcDbSpline
 70
8
 71
3
 72
8
 73
4
 74
0
 40
0
 40
0
 40
0
 40
0
 40
1
 40
1
 40
1
 40
1
 10
4.741553
 20
5.840931
 30
0.0
 10
4.724531
 20
5.840931
 30
0.0
 10
4.710555
 20
5.846400
 30
0.0
 10
4.699624
 20
5.857338
 30
0.0
  0
SPLINE
  5
3b6
100
AcDbEntity
  8
Layer_1
 62
3
100
AcDbSpline
 70
8
 71
3
 72
8
 73
4
 74
0
 40
0
 40
0
 40
0
 40
0
 40
1
 40
1
 40
1
 40
1
 10
4.699624
 20
5.857338
 30
0.0
 10
4.688688
 20
5.868276
 30
0.0
 10
4.683220
 20
5.882252
 30
0.0
 10
4.683220
 20
5.899267
 30
0.0
  0
LINE
  5
3b7
100
AcDbEntity
  8
Layer_1
 62
3
100
AcDbLine
 10
4.683220
 20
5.899267
 30
0.0
 11
4.683220
 21
6.015941
 31
0.0
  0
SPLINE
  5
3b8
100
AcDbEntity
  8
Layer_1
 62
3
100
AcDbSpline
 70
8
 71
3
 72
8
 73
4
 74
0
 40
0
 40
0
 40
0
 40
0
 40
1
 40
1
 40
1
 40
1
 10
4.683220
 20
6.015941
 30
0.0
 10
4.683220
 20
6.029310
 30
0.0
 10
4.685954
 20
6.039640
 30
0.0
 10
4.691422
 20
6.046933
 30
0.0
  0
SPLINE
  5
3b9
100
AcDbEntity
  8
Layer_1
 62
3
100
AcDbSpline
 70
8
 71
3
 72
8
 73
4
 74
0
 40
0
 40
0
 40
0
 40
0
 40
1
 40
1
 40
1
 40
1
 10
4.691422
 20
6.046933
 30
0.0
 10
4.697490
 20
6.054225
 30
0.0
 10
4.704784
 20
6.059998
 30
0.0
 10
4.713303
 20
6.064252
 30
0.0
  0
SPLINE
  5
3ba
100
AcDbEntity
  8
Layer_1
 62
3
100
AcDbSpline
 70
8
 71
3
 72
8
 73
4
 74
0
 40
0
 40
0
 40
0
 40
0
 40
1
 40
1
 40
1
 40
1
 10
4.713303
 20
6.064252
 30
0.0
 10
4.721805
 20
6.068503
 30
0.0
 10
4.731224
 20
6.071846
 30
0.0
 10
4.741561
 20
6.074280
 30
0.0
  0
SPLINE
  5
3bb
100
AcDbEntity
  8
Layer_1
 62
3
100
AcDbSpline
 70
8
 71
3
 72
8
 73
4
 74
0
 40
0
 40
0
 40
0
 40
0
 40
1
 40
1
 40
1
 40
1
 10
4.741561
 20
6.074280
 30
0.0
 10
4.751897
 20
6.076709
 30
0.0
 10
4.761316
 20
6.080052
 30
0.0
 10
4.769818
 20
6.084308
 30
0.0
  0
SPLINE
  5
3bc
100
AcDbEntity
  8
Layer_1
 62
3
100
AcDbSpline
 70
8
 71
3
 72
8
 73
4
 74
0
 40
0
 40
0
 40
0
 40
0
 40
1
 40
1
 40
1
 40
1
 10
4.769818
 20
6.084308
 30
0.0
 10
4.778320
 20
6.088564
 30
0.0
 10
4.785305
 20
6.094337
 30
0.0
 10
4.790773
 20
6.101627
 30
0.0
  0
SPLINE
  5
3bd
100
AcDbEntity
  8
Layer_1
 62
3
100
AcDbSpline
 70
8
 71
3
 72
8
 73
4
 74
0
 40
0
 40
0
 40
0
 40
0
 40
1
 40
1
 40
1
 40
1
 10
4.790773
 20
6.101627
 30
0.0
 10
4.796859
 20
6.108919
 30
0.0
 10
4.799901
 20
6.119250
 30
0.0
 10
4.799901
 20
6.132619
 30
0.0
  0
LINE
  5
3be
100
AcDbEntity
  8
Layer_1
 62
3
100
AcDbLine
 10
4.799901
 20
6.132619
 30
0.0
 11
4.799901
 21
7.182684
 31
0.0
  0
SPLINE
  5
3bf
100
AcDbEntity
  8
Layer_1
 62
3
100
AcDbSpline
 70
8
 71
3
 72
8
 73
4
 74
0
 40
0
 40
0
 40
0
 40
0
 40
1
 40
1
 40
1
 40
1
 10
4.799901
 20
7.182684
 30
0.0
 10
4.799901
 20
7.196661
 30
0.0
 10
4.796859
 20
7.206992
 30
0.0
 10
4.790773
 20
7.213676
 30
0.0
  0
SPLINE
  5
3c0
100
AcDbEntity
  8
Layer_1
 62
3
100
AcDbSpline
 70
8
 71
3
 72
8
 73
4
 74
0
 40
0
 40
0
 40
0
 40
0
 40
1
 40
1
 40
1
 40
1
 10
4.790773
 20
7.213676
 30
0.0
 10
4.785305
 20
7.220968
 30
0.0
 10
4.778320
 20
7.226437
 30
0.0
 10
4.769818
 20
7.230082
 30
0.0
  0
SPLINE
  5
3c1
100
AcDbEntity
  8
Layer_1
 62
3
100
AcDbSpline
 70
8
 71
3
 72
8
 73
4
 74
0
 40
0
 40
0
 40
0
 40
0
 40
1
 40
1
 40
1
 40
1
 10
4.769818
 20
7.230082
 30
0.0
 10
4.761316
 20
7.234333
 30
0.0
 10
4.751897
 20
7.237372
 30
0.0
 10
4.741561
 20
7.239197
 30
0.0
  0
SPLINE
  5
3c2
100
AcDbEntity
  8
Layer_1
 62
3
100
AcDbSpline
 70
8
 71
3
 72
8
 73
4
 74
0
 40
0
 40
0
 40
0
 40
0
 40
1
 40
1
 40
1
 40
1
 10
4.741561
 20
7.239197
 30
0.0
 10
4.731224
 20
7.241626
 30
0.0
 10
4.721805
 20
7.244665
 30
0.0
 10
4.713303
 20
7.248312
 30
0.0
  0
SPLINE
  5
3c3
100
AcDbEntity
  8
Layer_1
 62
3
100
AcDbSpline
 70
8
 71
3
 72
8
 73
4
 74
0
 40
0
 40
0
 40
0
 40
0
 40
1
 40
1
 40
1
 40
1
 10
4.713303
 20
7.248312
 30
0.0
 10
4.704801
 20
7.252563
 30
0.0
 10
4.697508
 20
7.258336
 30
0.0
 10
4.691422
 20
7.265632
 30
0.0
  0
SPLINE
  5
3c4
100
AcDbEntity
  8
Layer_1
 62
3
100
AcDbSpline
 70
8
 71
3
 72
8
 73
4
 74
0
 40
0
 40
0
 40
0
 40
0
 40
1
 40
1
 40
1
 40
1
 10
4.691422
 20
7.265632
 30
0.0
 10
4.685954
 20
7.273532
 30
0.0
 10
4.683220
 20
7.284774
 30
0.0
 10
4.683220
 20
7.299358
 30
0.0
  0
LINE
  5
3c5
100
AcDbEntity
  8
Layer_1
 62
3
100
AcDbLine
 10
4.683220
 20
7.299358
 30
0.0
 11
4.683220
 21
7.416032
 31
0.0
  0
SPLINE
  5
3c6
100
AcDbEntity
  8
Layer_1
 62
3
100
AcDbSpline
 70
8
 71
3
 72
8
 73
4
 74
0
 40
0
 40
0
 40
0
 40
0
 40
1
 40
1
 40
1
 40
1
 10
4.683220
 20
7.416032
 30
0.0
 10
4.683220
 20
7.433046
 30
0.0
 10
4.688988
 20
7.447023
 30
0.0
 10
4.700524
 20
7.457962
 30
0.0
  0
SPLINE
  5
3c7
100
AcDbEntity
  8
Layer_1
 62
3
100
AcDbSpline
 70
8
 71
3
 72
8
 73
4
 74
0
 40
0
 40
0
 40
0
 40
0
 40
1
 40
1
 40
1
 40
1
 10
4.700524
 20
7.457962
 30
0.0
 10
4.712077
 20
7.468900
 30
0.0
 10
4.725750
 20
7.474369
 30
0.0
 10
4.741542
 20
7.474369
 30
0.0
  0
LINE
  5
3c8
100
AcDbEntity
  8
Layer_1
 62
3
100
AcDbLine
 10
4.741542
 20
7.474369
 30
0.0
 11
6.024957
 21
7.474369
 31
0.0
  0
SPLINE
  5
3c9
100
AcDbEntity
  8
Layer_1
 62
3
100
AcDbSpline
 70
8
 71
3
 72
8
 73
4
 74
0
 40
0
 40
0
 40
0
 40
0
 40
1
 40
1
 40
1
 40
1
 10
6.024957
 20
7.474369
 30
0.0
 10
6.040761
 20
7.474369
 30
0.0
 10
6.054434
 20
7.468596
 30
0.0
 10
6.065975
 20
7.457049
 30
0.0
  0
SPLINE
  5
3ca
100
AcDbEntity
  8
Layer_1
 62
3
100
AcDbSpline
 70
8
 71
3
 72
8
 73
4
 74
0
 40
0
 40
0
 40
0
 40
0
 40
1
 40
1
 40
1
 40
1
 10
6.065975
 20
7.457049
 30
0.0
 10
6.077511
 20
7.445503
 30
0.0
 10
6.083279
 20
7.431830
 30
0.0
 10
6.083279
 20
7.416031
 30
0.0
  0
LINE
  5
3cb
100
AcDbEntity
  8
Layer_1
 62
3
100
AcDbLine
 10
6.083279
 20
7.416031
 30
0.0
 11
6.083279
 21
7.299357
 31
0.0
  0
SPLINE
  5
3cc
100
AcDbEntity
  8
Layer_1
 62
3
100
AcDbSpline
 70
8
 71
3
 72
8
 73
4
 74
0
 40
0
 40
0
 40
0
 40
0
 40
1
 40
1
 40
1
 40
1
 10
6.083279
 20
7.299357
 30
0.0
 10
6.083279
 20
7.283558
 30
0.0
 10
6.077811
 20
7.269885
 30
0.0
 10
6.066875
 20
7.258339
 30
0.0
  0
SPLINE
  5
3cd
100
AcDbEntity
  8
Layer_1
 62
3
100
AcDbSpline
 70
8
 71
3
 72
8
 73
4
 74
0
 40
0
 40
0
 40
0
 40
0
 40
1
 40
1
 40
1
 40
1
 10
6.066875
 20
7.258339
 30
0.0
 10
6.055939
 20
7.246793
 30
0.0
 10
6.041962
 20
7.241020
 30
0.0
 10
6.024946
 20
7.241020
 30
0.0
  0
LINE
  5
3ce
100
AcDbEntity
  8
Layer_1
 62
3
100
AcDbLine
 10
6.024946
 20
7.241020
 30
0.0
 11
5.091554
 21
7.241020
 31
0.0
  0
SPLINE
  5
3cf
100
AcDbEntity
  8
Layer_1
 62
3
100
AcDbSpline
 70
8
 71
3
 72
8
 73
4
 74
0
 40
0
 40
0
 40
0
 40
0
 40
1
 40
1
 40
1
 40
1
 10
5.091554
 20
7.241020
 30
0.0
 10
5.075750
 20
7.241020
 30
0.0
 10
5.062077
 20
7.235551
 30
0.0
 10
5.050536
 20
7.224613
 30
0.0
  0
SPLINE
  5
3d0
100
AcDbEntity
  8
Layer_1
 62
3
100
AcDbSpline
 70
8
 71
3
 72
8
 73
4
 74
0
 40
0
 40
0
 40
0
 40
0
 40
1
 40
1
 40
1
 40
1
 10
5.050536
 20
7.224613
 30
0.0
 10
5.038983
 20
7.213675
 30
0.0
 10
5.033206
 20
7.199698
 30
0.0
 10
5.033206
 20
7.182682
 30
0.0
  0
LINE
  5
3d1
100
AcDbEntity
  8
Layer_1
 62
3
100
AcDbLine
 10
5.033206
 20
7.182682
 30
0.0
 11
5.033206
 21
6.832661
 31
0.0
  0
SPLINE
  5
3d2
100
AcDbEntity
  8
Layer_1
 62
3
100
AcDbSpline
 70
8
 71
3
 72
8
 73
4
 74
0
 40
0
 40
0
 40
0
 40
0
 40
1
 40
1
 40
1
 40
1
 10
5.033206
 20
6.832661
 30
0.0
 10
5.033206
 20
6.815646
 30
0.0
 10
5.038674
 20
6.801670
 30
0.0
 10
5.049610
 20
6.790731
 30
0.0
  0
SPLINE
  5
3d3
100
AcDbEntity
  8
Layer_1
 62
3
100
AcDbSpline
 70
8
 71
3
 72
8
 73
4
 74
0
 40
0
 40
0
 40
0
 40
0
 40
1
 40
1
 40
1
 40
1
 10
5.049610
 20
6.790731
 30
0.0
 10
5.060546
 20
6.779793
 30
0.0
 10
5.074522
 20
6.774324
 30
0.0
 10
5.091538
 20
6.774324
 30
0.0
  0
LINE
  5
3d4
100
AcDbEntity
  8
Layer_1
 62
3
100
AcDbLine
 10
5.091538
 20
6.774324
 30
0.0
 11
5.966592
 21
6.774324
 31
0.0
  0
SPLINE
  5
3d5
100
AcDbEntity
  8
Layer_1
 62
3
100
AcDbSpline
 70
8
 71
3
 72
8
 73
4
 74
0
 40
0
 40
0
 40
0
 40
0
 40
1
 40
1
 40
1
 40
1
 10
5.966592
 20
6.774324
 30
0.0
 10
5.982397
 20
6.774324
 30
0.0
 10
5.997285
 20
6.770982
 30
0.0
 10
6.011257
 20
6.764297
 30
0.0
  0
SPLINE
  5
3d6
100
AcDbEntity
  8
Layer_1
 62
3
100
AcDbSpline
 70
8
 71
3
 72
8
 73
4
 74
0
 40
0
 40
0
 40
0
 40
0
 40
1
 40
1
 40
1
 40
1
 10
6.011257
 20
6.764297
 30
0.0
 10
6.025227
 20
6.758220
 30
0.0
 10
6.037380
 20
6.749713
 30
0.0
 10
6.047716
 20
6.738775
 30
0.0
  0
SPLINE
  5
3d7
100
AcDbEntity
  8
Layer_1
 62
3
100
AcDbSpline
 70
8
 71
3
 72
8
 73
4
 74
0
 40
0
 40
0
 40
0
 40
0
 40
1
 40
1
 40
1
 40
1
 10
6.047716
 20
6.738775
 30
0.0
 10
6.058652
 20
6.728444
 30
0.0
 10
6.067163
 20
6.716290
 30
0.0
 10
6.073248
 20
6.702315
 30
0.0
  0
SPLINE
  5
3d8
100
AcDbEntity
  8
Layer_1
 62
3
100
AcDbSpline
 70
8
 71
3
 72
8
 73
4
 74
0
 40
0
 40
0
 40
0
 40
0
 40
1
 40
1
 40
1
 40
1
 10
6.073248
 20
6.702315
 30
0.0
 10
6.079934
 20
6.688338
 30
0.0
 10
6.083276
 20
6.673449
 30
0.0
 10
6.083276
 20
6.657650
 30
0.0
  0
LINE
  5
3d9
100
AcDbEntity
  8
Layer_1
 62
3
100
AcDbLine
 10
6.083276
 20
6.657650
 30
0.0
 11
6.083276
 21
5.899270
 31
0.0
  0
SPLINE
  5
3da
100
AcDbEntity
  8
Layer_1
 62
3
100
AcDbSpline
 70
8
 71
3
 72
8
 73
4
 74
0
 40
0
 40
0
 40
0
 40
0
 40
1
 40
1
 40
1
 40
1
 10
6.083276
 20
5.899270
 30
0.0
 10
6.083276
 20
5.883470
 30
0.0
 10
6.077808
 20
5.869798
 30
0.0
 10
6.066872
 20
5.858252
 30
0.0
  0
SPLINE
  5
3db
100
AcDbEntity
  8
Layer_1
 62
3
100
AcDbSpline
 70
8
 71
3
 72
8
 73
4
 74
0
 40
0
 40
0
 40
0
 40
0
 40
1
 40
1
 40
1
 40
1
 10
6.066872
 20
5.858252
 30
0.0
 10
6.055936
 20
5.846705
 30
0.0
 10
6.041960
 20
5.840932
 30
0.0
 10
6.024943
 20
5.840932
 30
0.0
  0
LINE
  5
3dc
100
AcDbEntity
  8
Layer_1
 62
3
100
AcDbLine
 10
6.024943
 20
5.840932
 30
0.0
 11
5.908270
 21
5.840932
 31
0.0
  0
SPLINE
  5
3dd
100
AcDbEntity
  8
Layer_1
 62
3
100
AcDbSpline
 70
8
 71
3
 72
8
 73
4
 74
0
 40
0
 40
0
 40
0
 40
0
 40
1
 40
1
 40
1
 40
1
 10
5.908270
 20
5.840932
 30
0.0
 10
5.891249
 20
5.840932
 30
0.0
 10
5.877272
 20
5.846401
 30
0.0
 10
5.866339
 20
5.857339
 30
0.0
  0
SPLINE
  5
3de
100
AcDbEntity
  8
Layer_1
 62
3
100
AcDbSpline
 70
8
 71
3
 72
8
 73
4
 74
0
 40
0
 40
0
 40
0
 40
0
 40
1
 40
1
 40
1
 40
1
 10
5.866339
 20
5.857339
 30
0.0
 10
5.855403
 20
5.868277
 30
0.0
 10
5.849935
 20
5.882253
 30
0.0
 10
5.849935
 20
5.899269
 30
0.0
  0
LINE
  5
3df
100
AcDbEntity
  8
Layer_1
 62
3
100
AcDbLine
 10
5.849935
 20
5.899269
 30
0.0
 11
5.849935
 21
6.482637
 31
0.0
  0
SPLINE
  5
3e0
100
AcDbEntity
  8
Layer_1
 62
3
100
AcDbSpline
 70
8
 71
3
 72
8
 73
4
 74
0
 40
0
 40
0
 40
0
 40
0
 40
1
 40
1
 40
1
 40
1
 10
5.849935
 20
6.482637
 30
0.0
 10
5.849935
 20
6.498436
 30
0.0
 10
5.844158
 20
6.512109
 30
0.0
 10
5.832605
 20
6.523656
 30
0.0
  0
SPLINE
  5
3e1
100
AcDbEntity
  8
Layer_1
 62
3
100
AcDbSpline
 70
8
 71
3
 72
8
 73
4
 74
0
 40
0
 40
0
 40
0
 40
0
 40
1
 40
1
 40
1
 40
1
 10
5.832605
 20
6.523656
 30
0.0
 10
5.821069
 20
6.535202
 30
0.0
 10
5.807396
 20
6.540975
 30
0.0
 10
5.791586
 20
6.540975
 30
0.0
  0
LINE
  5
3e2
100
AcDbEntity
  8
Layer_1
 62
3
100
AcDbLine
 10
5.791586
 20
6.540975
 30
0.0
 11
5.091544
 21
6.540975
 31
0.0
  0
SPLINE
  5
3e3
100
AcDbEntity
  8
Layer_1
 62
3
100
AcDbSpline
 70
8
 71
3
 72
8
 73
4
 74
0
 40
0
 40
0
 40
0
 40
0
 40
1
 40
1
 40
1
 40
1
 10
5.091544
 20
6.540975
 30
0.0
 10
5.075739
 20
6.540975
 30
0.0
 10
5.062067
 20
6.535506
 30
0.0
 10
5.050525
 20
6.524568
 30
0.0
  0
SPLINE
  5
3e4
100
AcDbEntity
  8
Layer_1
 62
3
100
AcDbSpline
 70
8
 71
3
 72
8
 73
4
 74
0
 40
0
 40
0
 40
0
 40
0
 40
1
 40
1
 40
1
 40
1
 10
5.050525
 20
6.524568
 30
0.0
 10
5.038972
 20
6.513631
 30
0.0
 10
5.033195
 20
6.499654
 30
0.0
 10
5.033195
 20
6.482638
 30
0.0
  0
LINE
  5
3e5
100
AcDbEntity
  8
Layer_1
 62
3
100
AcDbLine
 10
5.033195
 20
6.482638
 30
0.0
 11
5.033195
 21
5.957606
 31
0.0
  0
SPLINE
  5
3e6
100
AcDbEntity
  8
Layer_1
 62
3
100
AcDbSpline
 70
8
 71
3
 72
8
 73
4
 74
0
 40
0
 40
0
 40
0
 40
0
 40
1
 40
1
 40
1
 40
1
 10
5.033195
 20
5.957606
 30
0.0
 10
5.033195
 20
5.941807
 30
0.0
 10
5.029853
 20
5.926919
 30
0.0
 10
5.023168
 20
5.912942
 30
0.0
  0
SPLINE
  5
3e7
100
AcDbEntity
  8
Layer_1
 62
3
100
AcDbSpline
 70
8
 71
3
 72
8
 73
4
 74
0
 40
0
 40
0
 40
0
 40
0
 40
1
 40
1
 40
1
 40
1
 10
5.023168
 20
5.912942
 30
0.0
 10
5.017100
 20
5.898965
 30
0.0
 10
5.008589
 20
5.886507
 30
0.0
 10
4.997635
 20
5.875570
 30
0.0
  0
SPLINE
  5
3e8
100
AcDbEntity
  8
Layer_1
 62
3
100
AcDbSpline
 70
8
 71
3
 72
8
 73
4
 74
0
 40
0
 40
0
 40
0
 40
0
 40
1
 40
1
 40
1
 40
1
 10
4.997635
 20
5.875570
 30
0.0
 10
4.987299
 20
5.865238
 30
0.0
 10
4.975146
 20
5.856731
 30
0.0
 10
4.961176
 20
5.850048
 30
0.0
  0
SPLINE
  5
3e9
100
AcDbEntity
  8
Layer_1
 62
3
100
AcDbSpline
 70
8
 71
3
 72
8
 73
4
 74
0
 40
0
 40
0
 40
0
 40
0
 40
1
 40
1
 40
1
 40
1
 10
4.961176
 20
5.850048
 30
0.0
 10
4.947206
 20
5.843971
 30
0.0
 10
4.932318
 20
5.840933
 30
0.0
 10
4.916511
 20
5.840933
 30
0.0
  0
LINE
  5
3ea
100
AcDbEntity
  8
Layer_1
 62
3
100
AcDbLine
 10
4.916511
 20
5.840933
 30
0.0
 11
4.741553
 21
5.840931
 31
0.0
  0
ENDSEC
  0
SECTION
  2
OBJECTS
  0
DICTIONARY
  5
C
330
0
100
AcDbDictionary
  3
ACAD_GROUP
350
D
  3
ACAD_MLINESTYLE
350
17
  0
DICTIONARY
  5
D
330
C
100
AcDbDictionary
  0
DICTIONARY
  5
1A
330
C
100
AcDbDictionary
  0
DICTIONARY
  5
17
330
C
100
AcDbDictionary
  3
STANDARD
350
18
  0
DICTIONARY
  5
19
330
C
100
AcDbDictionary
  0
ENDSEC
  0
EOF
