  0
SECTION
  2
HEADER
  9
$ACADVER
  1
AC1014
  9
$HANDSEED
  5
FFFF
  9
$MEASUREMENT
 70
     1
  0
ENDSEC
  0
SECTION
  2
TABLES
  0
TABLE
  2
VPORT
  5
8
330
0
100
AcDbSymbolTable
 70
     4
  0
VPORT
  5
2E
330
8
100
AcDbSymbolTableRecord
100
AcDbViewportTableRecord
  2
*ACTIVE
 70
     0
 10
0.0
 20
0.0
 11
1.0
 21
1.0
 12
210.0
 22
148.5
 13
0.0
 23
0.0
 14
10.0
 24
10.0
 15
10.0
 25
10.0
 16
0.0
 26
0.0
 36
1.0
 17
0.0
 27
0.0
 37
0.0
 40
341.0
 41
1.24
 42
50.0
 43
0.0
 44
0.0
 50
0.0
 51
0.0
 71
     0
 72
   100
 73
     1
 74
     3
 75
     0
 76
     0
 77
     0
 78
     0
  0
ENDTAB
  0
TABLE
  2
LTYPE
  5
5
330
0
100
AcDbSymbolTable
 70
     1
  0
LTYPE
  5
14
330
5
100
AcDbSymbolTableRecord
100
AcDbLinetypeTableRecord
  2
BYBLOCK
 70
     0
  3

 72
    65
 73
     0
 40
0.0
  0
LTYPE
  5
15
330
5
100
AcDbSymbolTableRecord
100
AcDbLinetypeTableRecord
  2
BYLAYER
 70
     0
  3

 72
    65
 73
     0
 40
0.0
  0
LTYPE
  5
16
330
5
100
AcDbSymbolTableRecord
100
AcDbLinetypeTableRecord
  2
CONTINUOUS
 70
     0
  3
Solid line
 72
    65
 73
     0
 40
0.0
  0
ENDTAB
  0
TABLE
  2
LAYER
  5
2
100
AcDbSymbolTable
 70
2
  0
LAYER
  5
50
100
AcDbSymbolTableRecord
100
AcDbLayerTableRecord
  2
0
 70
0
  6
CONTINUOUS
  0
LAYER
  5
51
100
AcDbSymbolTableRecord
100
AcDbLayerTableRecord
  2
Layer_1
 70
0
  6
CONTINUOUS
  0
ENDTAB
  0
TABLE
  2
STYLE
  5
3
330
0
100
AcDbSymbolTable
 70
     1
  0
STYLE
  5
11
330
3
100
AcDbSymbolTableRecord
100
AcDbTextStyleTableRecord
  2
STANDARD
 70
     0
 40
0.0
 41
1.0
 50
0.0
 71
     0
 42
2.5
  3
txt
  4

  0
ENDTAB
  0
TABLE
  2
VIEW
  5
6
330
0
100
AcDbSymbolTable
 70
     0
  0
ENDTAB
  0
TABLE
  2
UCS
  5
7
330
0
100
AcDbSymbolTable
 70
     0
  0
ENDTAB
  0
TABLE
  2
APPID
  5
9
330
0
100
AcDbSymbolTable
 70
     2
  0
APPID
  5
12
330
9
100
AcDbSymbolTableRecord
100
AcDbRegAppTableRecord
  2
ACAD
 70
     0
  0
ENDTAB
  0
TABLE
  2
DIMSTYLE
  5
A
330
0
100
AcDbSymbolTable
 70
     1
  0
DIMSTYLE
105
27
330
A
100
AcDbSymbolTableRecord
100
AcDbDimStyleTableRecord
  2
ISO-25
 70
     0
  3

  4

  5

  6

  7

 40
1.0
 41
2.5
 42
0.625
 43
3.75
 44
1.25
 45
0.0
 46
0.0
 47
0.0
 48
0.0
140
2.5
141
2.5
142
0.0
143
0.03937007874016
144
1.0
145
0.0
146
1.0
147
0.625
 71
     0
 72
     0
 73
     0
 74
     0
 75
     0
 76
     0
 77
     1
 78
     8
170
     0
171
     3
172
     1
173
     0
174
     0
175
     0
176
     0
177
     0
178
     0
270
     2
271
     2
272
     2
273
     2
274
     3
340
11
275
     0
280
     0
281
     0
282
     0
283
     0
284
     8
285
     0
286
     0
287
     3
288
     0
  0
ENDTAB
  0
TABLE
  2
BLOCK_RECORD
  5
1
330
0
100
AcDbSymbolTable
 70
     1
  0
BLOCK_RECORD
  5
1F
330
1
100
AcDbSymbolTableRecord
100
AcDbBlockTableRecord
  2
*MODEL_SPACE
  0
BLOCK_RECORD
  5
1B
330
1
100
AcDbSymbolTableRecord
100
AcDbBlockTableRecord
  2
*PAPER_SPACE
  0
ENDTAB
  0
ENDSEC
  0
SECTION
  2
BLOCKS
  0
BLOCK
  5
20
330
1F
100
AcDbEntity
  8
0
100
AcDbBlockBegin
  2
*MODEL_SPACE
 70
     0
 10
0.0
 20
0.0
 30
0.0
  3
*MODEL_SPACE
  1

  0
ENDBLK
  5
21
330
1F
100
AcDbEntity
  8
0
100
AcDbBlockEnd
  0
BLOCK
  5
1C
330
1B
100
AcDbEntity
 67
     1
  8
0
100
AcDbBlockBegin
  2
*PAPER_SPACE
  1

  0
ENDBLK
  5
1D
330
1B
100
AcDbEntity
 67
     1
  8
0
100
AcDbBlockEnd
  0
ENDSEC
  0
SECTION
  2
ENTITIES
  0
LINE
  5
100
100
AcDbEntity
  8
Layer_1
 62
7
100
AcDbLine
 10
0.500506
 20
4.436994
 30
0.0
 11
5.499494
 21
4.436994
 31
0.0
  0
LINE
  5
101
100
AcDbEntity
  8
Layer_1
 62
7
100
AcDbLine
 10
5.499494
 20
4.436994
 30
0.0
 11
5.499494
 21
0.563006
 31
0.0
  0
LINE
  5
102
100
AcDbEntity
  8
Layer_1
 62
7
100
AcDbLine
 10
5.499494
 20
0.563006
 30
0.0
 11
0.500506
 21
0.563006
 31
0.0
  0
LINE
  5
103
100
AcDbEntity
  8
Layer_1
 62
7
100
AcDbLine
 10
0.500506
 20
0.563006
 30
0.0
 11
0.500506
 21
4.436994
 31
0.0
  0
SPLINE
  5
104
100
AcDbEntity
  8
Layer_1
 62
7
100
AcDbSpline
 70
8
 71
3
 72
8
 73
4
 74
0
 40
0
 40
0
 40
0
 40
0
 40
1
 40
1
 40
1
 40
1
 10
1.553665
 20
3.703784
 30
0.0
 10
1.553665
 20
3.637613
 30
0.0
 10
1.527379
 20
3.574152
 30
0.0
 10
1.480589
 20
3.527362
 30
0.0
  0
SPLINE
  5
105
100
AcDbEntity
  8
Layer_1
 62
7
100
AcDbSpline
 70
8
 71
3
 72
8
 73
4
 74
0
 40
0
 40
0
 40
0
 40
0
 40
1
 40
1
 40
1
 40
1
 10
1.480589
 20
3.527362
 30
0.0
 10
1.433799
 20
3.480572
 30
0.0
 10
1.370338
 20
3.454286
 30
0.0
 10
1.304167
 20
3.454286
 30
0.0
  0
SPLINE
  5
106
100
AcDbEntity
  8
Layer_1
 62
7
100
AcDbSpline
 70
8
 71
3
 72
8
 73
4
 74
0
 40
0
 40
0
 40
0
 40
0
 40
1
 40
1
 40
1
 40
1
 10
1.304167
 20
3.454286
 30
0.0
 10
1.166373
 20
3.454286
 30
0.0
 10
1.054669
 20
3.565990
 30
0.0
 10
1.054669
 20
3.703784
 30
0.0
  0
SPLINE
  5
107
100
AcDbEntity
  8
Layer_1
 62
7
100
AcDbSpline
 70
8
 71
3
 72
8
 73
4
 74
0
 40
0
 40
0
 40
0
 40
0
 40
1
 40
1
 40
1
 40
1
 10
1.054669
 20
3.703784
 30
0.0
 10
1.054669
 20
3.841578
 30
0.0
 10
1.166373
 20
3.953282
 30
0.0
 10
1.304167
 20
3.953282
 30
0.0
  0
SPLINE
  5
108
100
AcDbEntity
  8
Layer_1
 62
7
100
AcDbSpline
 70
8
 71
3
 72
8
 73
4
 74
0
 40
0
 40
0
 40
0
 40
0
 40
1
 40
1
 40
1
 40
1
 10
1.304167
 20
3.953282
 30
0.0
 10
1.370338
 20
3.953282
 30
0.0
 10
1.433799
 20
3.926996
 30
0.0
 10
1.480589
 20
3.880206
 30
0.0
  0
SPLINE
  5
109
100
AcDbEntity
  8
Layer_1
 62
7
100
AcDbSpline
 70
8
 71
3
 72
8
 73
4
 74
0
 40
0
 40
0
 40
0
 40
0
 40
1
 40
1
 40
1
 40
1
 10
1.480589
 20
3.880206
 30
0.0
 10
1.527379
 20
3.833416
 30
0.0
 10
1.553665
 20
3.769955
 30
0.0
 10
1.553665
 20
3.703784
 30
0.0
  0
LINE
  5
10a
100
AcDbEntity
  8
Layer_1
 62
7
100
AcDbLine
 10
1.553665
 20
3.703784
 30
0.0
 11
1.553665
 21
3.703784
 31
0.0
  0
SPLINE
  5
10b
100
AcDbEntity
  8
Layer_1
 62
7
100
AcDbSpline
 70
8
 71
3
 72
8
 73
4
 74
0
 40
0
 40
0
 40
0
 40
0
 40
1
 40
1
 40
1
 40
1
 10
2.231998
 20
3.703784
 30
0.0
 10
2.231998
 20
3.637613
 30
0.0
 10
2.205712
 20
3.574152
 30
0.0
 10
2.158922
 20
3.527362
 30
0.0
  0
SPLINE
  5
10c
100
AcDbEntity
  8
Layer_1
 62
7
100
AcDbSpline
 70
8
 71
3
 72
8
 73
4
 74
0
 40
0
 40
0
 40
0
 40
0
 40
1
 40
1
 40
1
 40
1
 10
2.158922
 20
3.527362
 30
0.0
 10
2.112132
 20
3.480572
 30
0.0
 10
2.048671
 20
3.454286
 30
0.0
 10
1.982500
 20
3.454286
 30
0.0
  0
SPLINE
  5
10d
100
AcDbEntity
  8
Layer_1
 62
7
100
AcDbSpline
 70
8
 71
3
 72
8
 73
4
 74
0
 40
0
 40
0
 40
0
 40
0
 40
1
 40
1
 40
1
 40
1
 10
1.982500
 20
3.454286
 30
0.0
 10
1.844706
 20
3.454286
 30
0.0
 10
1.733002
 20
3.565990
 30
0.0
 10
1.733002
 20
3.703784
 30
0.0
  0
SPLINE
  5
10e
100
AcDbEntity
  8
Layer_1
 62
7
100
AcDbSpline
 70
8
 71
3
 72
8
 73
4
 74
0
 40
0
 40
0
 40
0
 40
0
 40
1
 40
1
 40
1
 40
1
 10
1.733002
 20
3.703784
 30
0.0
 10
1.733002
 20
3.841578
 30
0.0
 10
1.844706
 20
3.953282
 30
0.0
 10
1.982500
 20
3.953282
 30
0.0
  0
SPLINE
  5
10f
100
AcDbEntity
  8
Layer_1
 62
7
100
AcDbSpline
 70
8
 71
3
 72
8
 73
4
 74
0
 40
0
 40
0
 40
0
 40
0
 40
1
 40
1
 40
1
 40
1
 10
1.982500
 20
3.953282
 30
0.0
 10
2.048671
 20
3.953282
 30
0.0
 10
2.112132
 20
3.926996
 30
0.0
 10
2.158922
 20
3.880206
 30
0.0
  0
SPLINE
  5
110
100
AcDbEntity
  8
Layer_1
 62
7
100
AcDbSpline
 70
8
 71
3
 72
8
 73
4
 74
0
 40
0
 40
0
 40
0
 40
0
 40
1
 40
1
 40
1
 40
1
 10
2.158922
 20
3.880206
 30
0.0
 10
2.205712
 20
3.833416
 30
0.0
 10
2.231998
 20
3.769955
 30
0.0
 10
2.231998
 20
3.703784
 30
0.0
  0
LINE
  5
111
100
AcDbEntity
  8
Layer_1
 62
7
100
AcDbLine
 10
2.231998
 20
3.703784
 30
0.0
 11
2.231998
 21
3.703784
 31
0.0
  0
SPLINE
  5
112
100
AcDbEntity
  8
Layer_1
 62
7
100
AcDbSpline
 70
8
 71
3
 72
8
 73
4
 74
0
 40
0
 40
0
 40
0
 40
0
 40
1
 40
1
 40
1
 40
1
 10
2.910331
 20
3.703784
 30
0.0
 10
2.910331
 20
3.565990
 30
0.0
 10
2.798627
 20
3.454286
 30
0.0
 10
2.660833
 20
3.454286
 30
0.0
  0
SPLINE
  5
113
100
AcDbEntity
  8
Layer_1
 62
7
100
AcDbSpline
 70
8
 71
3
 72
8
 73
4
 74
0
 40
0
 40
0
 40
0
 40
0
 40
1
 40
1
 40
1
 40
1
 10
2.660833
 20
3.454286
 30
0.0
 10
2.523039
 20
3.454286
 30
0.0
 10
2.411335
 20
3.565990
 30
0.0
 10
2.411335
 20
3.703784
 30
0.0
  0
SPLINE
  5
114
100
AcDbEntity
  8
Layer_1
 62
7
100
AcDbSpline
 70
8
 71
3
 72
8
 73
4
 74
0
 40
0
 40
0
 40
0
 40
0
 40
1
 40
1
 40
1
 40
1
 10
2.411335
 20
3.703784
 30
0.0
 10
2.411335
 20
3.841578
 30
0.0
 10
2.523039
 20
3.953282
 30
0.0
 10
2.660833
 20
3.953282
 30
0.0
  0
SPLINE
  5
115
100
AcDbEntity
  8
Layer_1
 62
7
100
AcDbSpline
 70
8
 71
3
 72
8
 73
4
 74
0
 40
0
 40
0
 40
0
 40
0
 40
1
 40
1
 40
1
 40
1
 10
2.660833
 20
3.953282
 30
0.0
 10
2.798627
 20
3.953282
 30
0.0
 10
2.910331
 20
3.841578
 30
0.0
 10
2.910331
 20
3.703784
 30
0.0
  0
LINE
  5
116
100
AcDbEntity
  8
Layer_1
 62
7
100
AcDbLine
 10
2.910331
 20
3.703784
 30
0.0
 11
2.910331
 21
3.703784
 31
0.0
  0
SPLINE
  5
117
100
AcDbEntity
  8
Layer_1
 62
7
100
AcDbSpline
 70
8
 71
3
 72
8
 73
4
 74
0
 40
0
 40
0
 40
0
 40
0
 40
1
 40
1
 40
1
 40
1
 10
3.588665
 20
3.703784
 30
0.0
 10
3.588665
 20
3.565990
 30
0.0
 10
3.476961
 20
3.454286
 30
0.0
 10
3.339167
 20
3.454286
 30
0.0
  0
SPLINE
  5
118
100
AcDbEntity
  8
Layer_1
 62
7
100
AcDbSpline
 70
8
 71
3
 72
8
 73
4
 74
0
 40
0
 40
0
 40
0
 40
0
 40
1
 40
1
 40
1
 40
1
 10
3.339167
 20
3.454286
 30
0.0
 10
3.201373
 20
3.454286
 30
0.0
 10
3.089669
 20
3.565990
 30
0.0
 10
3.089669
 20
3.703784
 30
0.0
  0
SPLINE
  5
119
100
AcDbEntity
  8
Layer_1
 62
7
100
AcDbSpline
 70
8
 71
3
 72
8
 73
4
 74
0
 40
0
 40
0
 40
0
 40
0
 40
1
 40
1
 40
1
 40
1
 10
3.089669
 20
3.703784
 30
0.0
 10
3.089669
 20
3.841578
 30
0.0
 10
3.201373
 20
3.953282
 30
0.0
 10
3.339167
 20
3.953282
 30
0.0
  0
SPLINE
  5
11a
100
AcDbEntity
  8
Layer_1
 62
7
100
AcDbSpline
 70
8
 71
3
 72
8
 73
4
 74
0
 40
0
 40
0
 40
0
 40
0
 40
1
 40
1
 40
1
 40
1
 10
3.339167
 20
3.953282
 30
0.0
 10
3.476961
 20
3.953282
 30
0.0
 10
3.588665
 20
3.841578
 30
0.0
 10
3.588665
 20
3.703784
 30
0.0
  0
LINE
  5
11b
100
AcDbEntity
  8
Layer_1
 62
7
100
AcDbLine
 10
3.588665
 20
3.703784
 30
0.0
 11
3.588665
 21
3.703784
 31
0.0
  0
SPLINE
  5
11c
100
AcDbEntity
  8
Layer_1
 62
7
100
AcDbSpline
 70
8
 71
3
 72
8
 73
4
 74
0
 40
0
 40
0
 40
0
 40
0
 40
1
 40
1
 40
1
 40
1
 10
4.266998
 20
3.703784
 30
0.0
 10
4.266998
 20
3.637613
 30
0.0
 10
4.240712
 20
3.574152
 30
0.0
 10
4.193922
 20
3.527362
 30
0.0
  0
SPLINE
  5
11d
100
AcDbEntity
  8
Layer_1
 62
7
100
AcDbSpline
 70
8
 71
3
 72
8
 73
4
 74
0
 40
0
 40
0
 40
0
 40
0
 40
1
 40
1
 40
1
 40
1
 10
4.193922
 20
3.527362
 30
0.0
 10
4.147132
 20
3.480572
 30
0.0
 10
4.083671
 20
3.454286
 30
0.0
 10
4.017500
 20
3.454286
 30
0.0
  0
SPLINE
  5
11e
100
AcDbEntity
  8
Layer_1
 62
7
100
AcDbSpline
 70
8
 71
3
 72
8
 73
4
 74
0
 40
0
 40
0
 40
0
 40
0
 40
1
 40
1
 40
1
 40
1
 10
4.017500
 20
3.454286
 30
0.0
 10
3.879706
 20
3.454286
 30
0.0
 10
3.768002
 20
3.565990
 30
0.0
 10
3.768002
 20
3.703784
 30
0.0
  0
SPLINE
  5
11f
100
AcDbEntity
  8
Layer_1
 62
7
100
AcDbSpline
 70
8
 71
3
 72
8
 73
4
 74
0
 40
0
 40
0
 40
0
 40
0
 40
1
 40
1
 40
1
 40
1
 10
3.768002
 20
3.703784
 30
0.0
 10
3.768002
 20
3.841578
 30
0.0
 10
3.879706
 20
3.953282
 30
0.0
 10
4.017500
 20
3.953282
 30
0.0
  0
SPLINE
  5
120
100
AcDbEntity
  8
Layer_1
 62
7
100
AcDbSpline
 70
8
 71
3
 72
8
 73
4
 74
0
 40
0
 40
0
 40
0
 40
0
 40
1
 40
1
 40
1
 40
1
 10
4.017500
 20
3.953282
 30
0.0
 10
4.083671
 20
3.953282
 30
0.0
 10
4.147132
 20
3.926996
 30
0.0
 10
4.193922
 20
3.880206
 30
0.0
  0
SPLINE
  5
121
100
AcDbEntity
  8
Layer_1
 62
7
100
AcDbSpline
 70
8
 71
3
 72
8
 73
4
 74
0
 40
0
 40
0
 40
0
 40
0
 40
1
 40
1
 40
1
 40
1
 10
4.193922
 20
3.880206
 30
0.0
 10
4.240712
 20
3.833416
 30
0.0
 10
4.266998
 20
3.769955
 30
0.0
 10
4.266998
 20
3.703784
 30
0.0
  0
LINE
  5
122
100
AcDbEntity
  8
Layer_1
 62
7
100
AcDbLine
 10
4.266998
 20
3.703784
 30
0.0
 11
4.266998
 21
3.703784
 31
0.0
  0
SPLINE
  5
123
100
AcDbEntity
  8
Layer_1
 62
7
100
AcDbSpline
 70
8
 71
3
 72
8
 73
4
 74
0
 40
0
 40
0
 40
0
 40
0
 40
1
 40
1
 40
1
 40
1
 10
4.945331
 20
3.703784
 30
0.0
 10
4.945331
 20
3.565990
 30
0.0
 10
4.833627
 20
3.454286
 30
0.0
 10
4.695833
 20
3.454286
 30
0.0
  0
SPLINE
  5
124
100
AcDbEntity
  8
Layer_1
 62
7
100
AcDbSpline
 70
8
 71
3
 72
8
 73
4
 74
0
 40
0
 40
0
 40
0
 40
0
 40
1
 40
1
 40
1
 40
1
 10
4.695833
 20
3.454286
 30
0.0
 10
4.558039
 20
3.454286
 30
0.0
 10
4.446335
 20
3.565990
 30
0.0
 10
4.446335
 20
3.703784
 30
0.0
  0
SPLINE
  5
125
100
AcDbEntity
  8
Layer_1
 62
7
100
AcDbSpline
 70
8
 71
3
 72
8
 73
4
 74
0
 40
0
 40
0
 40
0
 40
0
 40
1
 40
1
 40
1
 40
1
 10
4.446335
 20
3.703784
 30
0.0
 10
4.446335
 20
3.841578
 30
0.0
 10
4.558039
 20
3.953282
 30
0.0
 10
4.695833
 20
3.953282
 30
0.0
  0
SPLINE
  5
126
100
AcDbEntity
  8
Layer_1
 62
7
100
AcDbSpline
 70
8
 71
3
 72
8
 73
4
 74
0
 40
0
 40
0
 40
0
 40
0
 40
1
 40
1
 40
1
 40
1
 10
4.695833
 20
3.953282
 30
0.0
 10
4.833627
 20
3.953282
 30
0.0
 10
4.945331
 20
3.841578
 30
0.0
 10
4.945331
 20
3.703784
 30
0.0
  0
LINE
  5
127
100
AcDbEntity
  8
Layer_1
 62
7
100
AcDbLine
 10
4.945331
 20
3.703784
 30
0.0
 11
4.945331
 21
3.703784
 31
0.0
  0
SPLINE
  5
128
100
AcDbEntity
  8
Layer_1
 62
7
100
AcDbSpline
 70
8
 71
3
 72
8
 73
4
 74
0
 40
0
 40
0
 40
0
 40
0
 40
1
 40
1
 40
1
 40
1
 10
1.553665
 20
3.025503
 30
0.0
 10
1.553665
 20
2.959332
 30
0.0
 10
1.527379
 20
2.895871
 30
0.0
 10
1.480589
 20
2.849081
 30
0.0
  0
SPLINE
  5
129
100
AcDbEntity
  8
Layer_1
 62
7
100
AcDbSpline
 70
8
 71
3
 72
8
 73
4
 74
0
 40
0
 40
0
 40
0
 40
0
 40
1
 40
1
 40
1
 40
1
 10
1.480589
 20
2.849081
 30
0.0
 10
1.433799
 20
2.802291
 30
0.0
 10
1.370338
 20
2.776005
 30
0.0
 10
1.304167
 20
2.776005
 30
0.0
  0
SPLINE
  5
12a
100
AcDbEntity
  8
Layer_1
 62
7
100
AcDbSpline
 70
8
 71
3
 72
8
 73
4
 74
0
 40
0
 40
0
 40
0
 40
0
 40
1
 40
1
 40
1
 40
1
 10
1.304167
 20
2.776005
 30
0.0
 10
1.166373
 20
2.776005
 30
0.0
 10
1.054669
 20
2.887709
 30
0.0
 10
1.054669
 20
3.025503
 30
0.0
  0
SPLINE
  5
12b
100
AcDbEntity
  8
Layer_1
 62
7
100
AcDbSpline
 70
8
 71
3
 72
8
 73
4
 74
0
 40
0
 40
0
 40
0
 40
0
 40
1
 40
1
 40
1
 40
1
 10
1.054669
 20
3.025503
 30
0.0
 10
1.054669
 20
3.163297
 30
0.0
 10
1.166373
 20
3.275001
 30
0.0
 10
1.304167
 20
3.275002
 30
0.0
  0
SPLINE
  5
12c
100
AcDbEntity
  8
Layer_1
 62
7
100
AcDbSpline
 70
8
 71
3
 72
8
 73
4
 74
0
 40
0
 40
0
 40
0
 40
0
 40
1
 40
1
 40
1
 40
1
 10
1.304167
 20
3.275002
 30
0.0
 10
1.370338
 20
3.275002
 30
0.0
 10
1.433799
 20
3.248715
 30
0.0
 10
1.480589
 20
3.201925
 30
0.0
  0
SPLINE
  5
12d
100
AcDbEntity
  8
Layer_1
 62
7
100
AcDbSpline
 70
8
 71
3
 72
8
 73
4
 74
0
 40
0
 40
0
 40
0
 40
0
 40
1
 40
1
 40
1
 40
1
 10
1.480589
 20
3.201925
 30
0.0
 10
1.527379
 20
3.155135
 30
0.0
 10
1.553665
 20
3.091674
 30
0.0
 10
1.553665
 20
3.025503
 30
0.0
  0
LINE
  5
12e
100
AcDbEntity
  8
Layer_1
 62
7
100
AcDbLine
 10
1.553665
 20
3.025503
 30
0.0
 11
1.553665
 21
3.025503
 31
0.0
  0
SPLINE
  5
12f
100
AcDbEntity
  8
Layer_1
 62
7
100
AcDbSpline
 70
8
 71
3
 72
8
 73
4
 74
0
 40
0
 40
0
 40
0
 40
0
 40
1
 40
1
 40
1
 40
1
 10
2.231998
 20
3.025503
 30
0.0
 10
2.231998
 20
2.959332
 30
0.0
 10
2.205712
 20
2.895871
 30
0.0
 10
2.158922
 20
2.849081
 30
0.0
  0
SPLINE
  5
130
100
AcDbEntity
  8
Layer_1
 62
7
100
AcDbSpline
 70
8
 71
3
 72
8
 73
4
 74
0
 40
0
 40
0
 40
0
 40
0
 40
1
 40
1
 40
1
 40
1
 10
2.158922
 20
2.849081
 30
0.0
 10
2.112132
 20
2.802291
 30
0.0
 10
2.048671
 20
2.776005
 30
0.0
 10
1.982500
 20
2.776005
 30
0.0
  0
SPLINE
  5
131
100
AcDbEntity
  8
Layer_1
 62
7
100
AcDbSpline
 70
8
 71
3
 72
8
 73
4
 74
0
 40
0
 40
0
 40
0
 40
0
 40
1
 40
1
 40
1
 40
1
 10
1.982500
 20
2.776005
 30
0.0
 10
1.844706
 20
2.776005
 30
0.0
 10
1.733002
 20
2.887709
 30
0.0
 10
1.733002
 20
3.025503
 30
0.0
  0
SPLINE
  5
132
100
AcDbEntity
  8
Layer_1
 62
7
100
AcDbSpline
 70
8
 71
3
 72
8
 73
4
 74
0
 40
0
 40
0
 40
0
 40
0
 40
1
 40
1
 40
1
 40
1
 10
1.733002
 20
3.025503
 30
0.0
 10
1.733002
 20
3.163297
 30
0.0
 10
1.844706
 20
3.275001
 30
0.0
 10
1.982500
 20
3.275002
 30
0.0
  0
SPLINE
  5
133
100
AcDbEntity
  8
Layer_1
 62
7
100
AcDbSpline
 70
8
 71
3
 72
8
 73
4
 74
0
 40
0
 40
0
 40
0
 40
0
 40
1
 40
1
 40
1
 40
1
 10
1.982500
 20
3.275002
 30
0.0
 10
2.048671
 20
3.275002
 30
0.0
 10
2.112132
 20
3.248715
 30
0.0
 10
2.158922
 20
3.201925
 30
0.0
  0
SPLINE
  5
134
100
AcDbEntity
  8
Layer_1
 62
7
100
AcDbSpline
 70
8
 71
3
 72
8
 73
4
 74
0
 40
0
 40
0
 40
0
 40
0
 40
1
 40
1
 40
1
 40
1
 10
2.158922
 20
3.201925
 30
0.0
 10
2.205712
 20
3.155135
 30
0.0
 10
2.231998
 20
3.091674
 30
0.0
 10
2.231998
 20
3.025503
 30
0.0
  0
LINE
  5
135
100
AcDbEntity
  8
Layer_1
 62
7
100
AcDbLine
 10
2.231998
 20
3.025503
 30
0.0
 11
2.231998
 21
3.025503
 31
0.0
  0
SPLINE
  5
136
100
AcDbEntity
  8
Layer_1
 62
7
100
AcDbSpline
 70
8
 71
3
 72
8
 73
4
 74
0
 40
0
 40
0
 40
0
 40
0
 40
1
 40
1
 40
1
 40
1
 10
2.910331
 20
3.025503
 30
0.0
 10
2.910331
 20
2.887709
 30
0.0
 10
2.798627
 20
2.776005
 30
0.0
 10
2.660833
 20
2.776005
 30
0.0
  0
SPLINE
  5
137
100
AcDbEntity
  8
Layer_1
 62
7
100
AcDbSpline
 70
8
 71
3
 72
8
 73
4
 74
0
 40
0
 40
0
 40
0
 40
0
 40
1
 40
1
 40
1
 40
1
 10
2.660833
 20
2.776005
 30
0.0
 10
2.523039
 20
2.776005
 30
0.0
 10
2.411335
 20
2.887709
 30
0.0
 10
2.411335
 20
3.025503
 30
0.0
  0
SPLINE
  5
138
100
AcDbEntity
  8
Layer_1
 62
7
100
AcDbSpline
 70
8
 71
3
 72
8
 73
4
 74
0
 40
0
 40
0
 40
0
 40
0
 40
1
 40
1
 40
1
 40
1
 10
2.411335
 20
3.025503
 30
0.0
 10
2.411335
 20
3.163297
 30
0.0
 10
2.523039
 20
3.275001
 30
0.0
 10
2.660833
 20
3.275002
 30
0.0
  0
SPLINE
  5
139
100
AcDbEntity
  8
Layer_1
 62
7
100
AcDbSpline
 70
8
 71
3
 72
8
 73
4
 74
0
 40
0
 40
0
 40
0
 40
0
 40
1
 40
1
 40
1
 40
1
 10
2.660833
 20
3.275002
 30
0.0
 10
2.798627
 20
3.275001
 30
0.0
 10
2.910331
 20
3.163297
 30
0.0
 10
2.910331
 20
3.025503
 30
0.0
  0
LINE
  5
13a
100
AcDbEntity
  8
Layer_1
 62
7
100
AcDbLine
 10
2.910331
 20
3.025503
 30
0.0
 11
2.910331
 21
3.025503
 31
0.0
  0
SPLINE
  5
13b
100
AcDbEntity
  8
Layer_1
 62
7
100
AcDbSpline
 70
8
 71
3
 72
8
 73
4
 74
0
 40
0
 40
0
 40
0
 40
0
 40
1
 40
1
 40
1
 40
1
 10
3.588665
 20
3.025503
 30
0.0
 10
3.588665
 20
2.887709
 30
0.0
 10
3.476961
 20
2.776005
 30
0.0
 10
3.339167
 20
2.776005
 30
0.0
  0
SPLINE
  5
13c
100
AcDbEntity
  8
Layer_1
 62
7
100
AcDbSpline
 70
8
 71
3
 72
8
 73
4
 74
0
 40
0
 40
0
 40
0
 40
0
 40
1
 40
1
 40
1
 40
1
 10
3.339167
 20
2.776005
 30
0.0
 10
3.201373
 20
2.776005
 30
0.0
 10
3.089669
 20
2.887709
 30
0.0
 10
3.089669
 20
3.025503
 30
0.0
  0
SPLINE
  5
13d
100
AcDbEntity
  8
Layer_1
 62
7
100
AcDbSpline
 70
8
 71
3
 72
8
 73
4
 74
0
 40
0
 40
0
 40
0
 40
0
 40
1
 40
1
 40
1
 40
1
 10
3.089669
 20
3.025503
 30
0.0
 10
3.089669
 20
3.163297
 30
0.0
 10
3.201373
 20
3.275001
 30
0.0
 10
3.339167
 20
3.275002
 30
0.0
  0
SPLINE
  5
13e
100
AcDbEntity
  8
Layer_1
 62
7
100
AcDbSpline
 70
8
 71
3
 72
8
 73
4
 74
0
 40
0
 40
0
 40
0
 40
0
 40
1
 40
1
 40
1
 40
1
 10
3.339167
 20
3.275002
 30
0.0
 10
3.476961
 20
3.275001
 30
0.0
 10
3.588665
 20
3.163297
 30
0.0
 10
3.588665
 20
3.025503
 30
0.0
  0
LINE
  5
13f
100
AcDbEntity
  8
Layer_1
 62
7
100
AcDbLine
 10
3.588665
 20
3.025503
 30
0.0
 11
3.588665
 21
3.025503
 31
0.0
  0
SPLINE
  5
140
100
AcDbEntity
  8
Layer_1
 62
7
100
AcDbSpline
 70
8
 71
3
 72
8
 73
4
 74
0
 40
0
 40
0
 40
0
 40
0
 40
1
 40
1
 40
1
 40
1
 10
4.266998
 20
3.025503
 30
0.0
 10
4.266998
 20
2.959332
 30
0.0
 10
4.240712
 20
2.895871
 30
0.0
 10
4.193922
 20
2.849081
 30
0.0
  0
SPLINE
  5
141
100
AcDbEntity
  8
Layer_1
 62
7
100
AcDbSpline
 70
8
 71
3
 72
8
 73
4
 74
0
 40
0
 40
0
 40
0
 40
0
 40
1
 40
1
 40
1
 40
1
 10
4.193922
 20
2.849081
 30
0.0
 10
4.147132
 20
2.802291
 30
0.0
 10
4.083671
 20
2.776005
 30
0.0
 10
4.017500
 20
2.776005
 30
0.0
  0
SPLINE
  5
142
100
AcDbEntity
  8
Layer_1
 62
7
100
AcDbSpline
 70
8
 71
3
 72
8
 73
4
 74
0
 40
0
 40
0
 40
0
 40
0
 40
1
 40
1
 40
1
 40
1
 10
4.017500
 20
2.776005
 30
0.0
 10
3.879706
 20
2.776005
 30
0.0
 10
3.768002
 20
2.887709
 30
0.0
 10
3.768002
 20
3.025503
 30
0.0
  0
SPLINE
  5
143
100
AcDbEntity
  8
Layer_1
 62
7
100
AcDbSpline
 70
8
 71
3
 72
8
 73
4
 74
0
 40
0
 40
0
 40
0
 40
0
 40
1
 40
1
 40
1
 40
1
 10
3.768002
 20
3.025503
 30
0.0
 10
3.768002
 20
3.163297
 30
0.0
 10
3.879706
 20
3.275001
 30
0.0
 10
4.017500
 20
3.275002
 30
0.0
  0
SPLINE
  5
144
100
AcDbEntity
  8
Layer_1
 62
7
100
AcDbSpline
 70
8
 71
3
 72
8
 73
4
 74
0
 40
0
 40
0
 40
0
 40
0
 40
1
 40
1
 40
1
 40
1
 10
4.017500
 20
3.275002
 30
0.0
 10
4.083671
 20
3.275002
 30
0.0
 10
4.147132
 20
3.248715
 30
0.0
 10
4.193922
 20
3.201925
 30
0.0
  0
SPLINE
  5
145
100
AcDbEntity
  8
Layer_1
 62
7
100
AcDbSpline
 70
8
 71
3
 72
8
 73
4
 74
0
 40
0
 40
0
 40
0
 40
0
 40
1
 40
1
 40
1
 40
1
 10
4.193922
 20
3.201925
 30
0.0
 10
4.240712
 20
3.155135
 30
0.0
 10
4.266998
 20
3.091674
 30
0.0
 10
4.266998
 20
3.025503
 30
0.0
  0
LINE
  5
146
100
AcDbEntity
  8
Layer_1
 62
7
100
AcDbLine
 10
4.266998
 20
3.025503
 30
0.0
 11
4.266998
 21
3.025503
 31
0.0
  0
SPLINE
  5
147
100
AcDbEntity
  8
Layer_1
 62
7
100
AcDbSpline
 70
8
 71
3
 72
8
 73
4
 74
0
 40
0
 40
0
 40
0
 40
0
 40
1
 40
1
 40
1
 40
1
 10
4.945331
 20
3.025503
 30
0.0
 10
4.945331
 20
2.887709
 30
0.0
 10
4.833627
 20
2.776005
 30
0.0
 10
4.695833
 20
2.776005
 30
0.0
  0
SPLINE
  5
148
100
AcDbEntity
  8
Layer_1
 62
7
100
AcDbSpline
 70
8
 71
3
 72
8
 73
4
 74
0
 40
0
 40
0
 40
0
 40
0
 40
1
 40
1
 40
1
 40
1
 10
4.695833
 20
2.776005
 30
0.0
 10
4.558039
 20
2.776005
 30
0.0
 10
4.446335
 20
2.887709
 30
0.0
 10
4.446335
 20
3.025503
 30
0.0
  0
SPLINE
  5
149
100
AcDbEntity
  8
Layer_1
 62
7
100
AcDbSpline
 70
8
 71
3
 72
8
 73
4
 74
0
 40
0
 40
0
 40
0
 40
0
 40
1
 40
1
 40
1
 40
1
 10
4.446335
 20
3.025503
 30
0.0
 10
4.446335
 20
3.163297
 30
0.0
 10
4.558039
 20
3.275001
 30
0.0
 10
4.695833
 20
3.275002
 30
0.0
  0
SPLINE
  5
14a
100
AcDbEntity
  8
Layer_1
 62
7
100
AcDbSpline
 70
8
 71
3
 72
8
 73
4
 74
0
 40
0
 40
0
 40
0
 40
0
 40
1
 40
1
 40
1
 40
1
 10
4.695833
 20
3.275002
 30
0.0
 10
4.833627
 20
3.275001
 30
0.0
 10
4.945331
 20
3.163297
 30
0.0
 10
4.945331
 20
3.025503
 30
0.0
  0
LINE
  5
14b
100
AcDbEntity
  8
Layer_1
 62
7
100
AcDbLine
 10
4.945331
 20
3.025503
 30
0.0
 11
4.945331
 21
3.025503
 31
0.0
  0
SPLINE
  5
14c
100
AcDbEntity
  8
Layer_1
 62
7
100
AcDbSpline
 70
8
 71
3
 72
8
 73
4
 74
0
 40
0
 40
0
 40
0
 40
0
 40
1
 40
1
 40
1
 40
1
 10
1.553665
 20
2.347222
 30
0.0
 10
1.553665
 20
2.281051
 30
0.0
 10
1.527379
 20
2.217590
 30
0.0
 10
1.480589
 20
2.170801
 30
0.0
  0
SPLINE
  5
14d
100
AcDbEntity
  8
Layer_1
 62
7
100
AcDbSpline
 70
8
 71
3
 72
8
 73
4
 74
0
 40
0
 40
0
 40
0
 40
0
 40
1
 40
1
 40
1
 40
1
 10
1.480589
 20
2.170801
 30
0.0
 10
1.433799
 20
2.124011
 30
0.0
 10
1.370338
 20
2.097724
 30
0.0
 10
1.304167
 20
2.097724
 30
0.0
  0
SPLINE
  5
14e
100
AcDbEntity
  8
Layer_1
 62
7
100
AcDbSpline
 70
8
 71
3
 72
8
 73
4
 74
0
 40
0
 40
0
 40
0
 40
0
 40
1
 40
1
 40
1
 40
1
 10
1.304167
 20
2.097724
 30
0.0
 10
1.166373
 20
2.097724
 30
0.0
 10
1.054669
 20
2.209428
 30
0.0
 10
1.054669
 20
2.347222
 30
0.0
  0
SPLINE
  5
14f
100
AcDbEntity
  8
Layer_1
 62
7
100
AcDbSpline
 70
8
 71
3
 72
8
 73
4
 74
0
 40
0
 40
0
 40
0
 40
0
 40
1
 40
1
 40
1
 40
1
 10
1.054669
 20
2.347222
 30
0.0
 10
1.054669
 20
2.485016
 30
0.0
 10
1.166373
 20
2.596721
 30
0.0
 10
1.304167
 20
2.596721
 30
0.0
  0
SPLINE
  5
150
100
AcDbEntity
  8
Layer_1
 62
7
100
AcDbSpline
 70
8
 71
3
 72
8
 73
4
 74
0
 40
0
 40
0
 40
0
 40
0
 40
1
 40
1
 40
1
 40
1
 10
1.304167
 20
2.596721
 30
0.0
 10
1.370338
 20
2.596721
 30
0.0
 10
1.433799
 20
2.570434
 30
0.0
 10
1.480589
 20
2.523644
 30
0.0
  0
SPLINE
  5
151
100
AcDbEntity
  8
Layer_1
 62
7
100
AcDbSpline
 70
8
 71
3
 72
8
 73
4
 74
0
 40
0
 40
0
 40
0
 40
0
 40
1
 40
1
 40
1
 40
1
 10
1.480589
 20
2.523644
 30
0.0
 10
1.527379
 20
2.476854
 30
0.0
 10
1.553665
 20
2.413394
 30
0.0
 10
1.553665
 20
2.347222
 30
0.0
  0
LINE
  5
152
100
AcDbEntity
  8
Layer_1
 62
7
100
AcDbLine
 10
1.553665
 20
2.347222
 30
0.0
 11
1.553665
 21
2.347222
 31
0.0
  0
SPLINE
  5
153
100
AcDbEntity
  8
Layer_1
 62
7
100
AcDbSpline
 70
8
 71
3
 72
8
 73
4
 74
0
 40
0
 40
0
 40
0
 40
0
 40
1
 40
1
 40
1
 40
1
 10
2.231998
 20
2.347222
 30
0.0
 10
2.231998
 20
2.281051
 30
0.0
 10
2.205712
 20
2.217590
 30
0.0
 10
2.158922
 20
2.170801
 30
0.0
  0
SPLINE
  5
154
100
AcDbEntity
  8
Layer_1
 62
7
100
AcDbSpline
 70
8
 71
3
 72
8
 73
4
 74
0
 40
0
 40
0
 40
0
 40
0
 40
1
 40
1
 40
1
 40
1
 10
2.158922
 20
2.170801
 30
0.0
 10
2.112132
 20
2.124011
 30
0.0
 10
2.048671
 20
2.097724
 30
0.0
 10
1.982500
 20
2.097724
 30
0.0
  0
SPLINE
  5
155
100
AcDbEntity
  8
Layer_1
 62
7
100
AcDbSpline
 70
8
 71
3
 72
8
 73
4
 74
0
 40
0
 40
0
 40
0
 40
0
 40
1
 40
1
 40
1
 40
1
 10
1.982500
 20
2.097724
 30
0.0
 10
1.844706
 20
2.097724
 30
0.0
 10
1.733002
 20
2.209428
 30
0.0
 10
1.733002
 20
2.347222
 30
0.0
  0
SPLINE
  5
156
100
AcDbEntity
  8
Layer_1
 62
7
100
AcDbSpline
 70
8
 71
3
 72
8
 73
4
 74
0
 40
0
 40
0
 40
0
 40
0
 40
1
 40
1
 40
1
 40
1
 10
1.733002
 20
2.347222
 30
0.0
 10
1.733002
 20
2.485016
 30
0.0
 10
1.844706
 20
2.596721
 30
0.0
 10
1.982500
 20
2.596721
 30
0.0
  0
SPLINE
  5
157
100
AcDbEntity
  8
Layer_1
 62
7
100
AcDbSpline
 70
8
 71
3
 72
8
 73
4
 74
0
 40
0
 40
0
 40
0
 40
0
 40
1
 40
1
 40
1
 40
1
 10
1.982500
 20
2.596721
 30
0.0
 10
2.048671
 20
2.596721
 30
0.0
 10
2.112132
 20
2.570434
 30
0.0
 10
2.158922
 20
2.523644
 30
0.0
  0
SPLINE
  5
158
100
AcDbEntity
  8
Layer_1
 62
7
100
AcDbSpline
 70
8
 71
3
 72
8
 73
4
 74
0
 40
0
 40
0
 40
0
 40
0
 40
1
 40
1
 40
1
 40
1
 10
2.158922
 20
2.523644
 30
0.0
 10
2.205712
 20
2.476854
 30
0.0
 10
2.231998
 20
2.413394
 30
0.0
 10
2.231998
 20
2.347222
 30
0.0
  0
LINE
  5
159
100
AcDbEntity
  8
Layer_1
 62
7
100
AcDbLine
 10
2.231998
 20
2.347222
 30
0.0
 11
2.231998
 21
2.347222
 31
0.0
  0
SPLINE
  5
15a
100
AcDbEntity
  8
Layer_1
 62
7
100
AcDbSpline
 70
8
 71
3
 72
8
 73
4
 74
0
 40
0
 40
0
 40
0
 40
0
 40
1
 40
1
 40
1
 40
1
 10
2.910331
 20
2.347222
 30
0.0
 10
2.910331
 20
2.209428
 30
0.0
 10
2.798627
 20
2.097724
 30
0.0
 10
2.660833
 20
2.097724
 30
0.0
  0
SPLINE
  5
15b
100
AcDbEntity
  8
Layer_1
 62
7
100
AcDbSpline
 70
8
 71
3
 72
8
 73
4
 74
0
 40
0
 40
0
 40
0
 40
0
 40
1
 40
1
 40
1
 40
1
 10
2.660833
 20
2.097724
 30
0.0
 10
2.523039
 20
2.097724
 30
0.0
 10
2.411335
 20
2.209428
 30
0.0
 10
2.411335
 20
2.347222
 30
0.0
  0
SPLINE
  5
15c
100
AcDbEntity
  8
Layer_1
 62
7
100
AcDbSpline
 70
8
 71
3
 72
8
 73
4
 74
0
 40
0
 40
0
 40
0
 40
0
 40
1
 40
1
 40
1
 40
1
 10
2.411335
 20
2.347222
 30
0.0
 10
2.411335
 20
2.485016
 30
0.0
 10
2.523039
 20
2.596721
 30
0.0
 10
2.660833
 20
2.596721
 30
0.0
  0
SPLINE
  5
15d
100
AcDbEntity
  8
Layer_1
 62
7
100
AcDbSpline
 70
8
 71
3
 72
8
 73
4
 74
0
 40
0
 40
0
 40
0
 40
0
 40
1
 40
1
 40
1
 40
1
 10
2.660833
 20
2.596721
 30
0.0
 10
2.798627
 20
2.596721
 30
0.0
 10
2.910331
 20
2.485016
 30
0.0
 10
2.910331
 20
2.347222
 30
0.0
  0
LINE
  5
15e
100
AcDbEntity
  8
Layer_1
 62
7
100
AcDbLine
 10
2.910331
 20
2.347222
 30
0.0
 11
2.910331
 21
2.347222
 31
0.0
  0
SPLINE
  5
15f
100
AcDbEntity
  8
Layer_1
 62
7
100
AcDbSpline
 70
8
 71
3
 72
8
 73
4
 74
0
 40
0
 40
0
 40
0
 40
0
 40
1
 40
1
 40
1
 40
1
 10
3.588665
 20
2.347222
 30
0.0
 10
3.588665
 20
2.209428
 30
0.0
 10
3.476961
 20
2.097724
 30
0.0
 10
3.339167
 20
2.097724
 30
0.0
  0
SPLINE
  5
160
100
AcDbEntity
  8
Layer_1
 62
7
100
AcDbSpline
 70
8
 71
3
 72
8
 73
4
 74
0
 40
0
 40
0
 40
0
 40
0
 40
1
 40
1
 40
1
 40
1
 10
3.339167
 20
2.097724
 30
0.0
 10
3.201373
 20
2.097724
 30
0.0
 10
3.089669
 20
2.209428
 30
0.0
 10
3.089669
 20
2.347222
 30
0.0
  0
SPLINE
  5
161
100
AcDbEntity
  8
Layer_1
 62
7
100
AcDbSpline
 70
8
 71
3
 72
8
 73
4
 74
0
 40
0
 40
0
 40
0
 40
0
 40
1
 40
1
 40
1
 40
1
 10
3.089669
 20
2.347222
 30
0.0
 10
3.089669
 20
2.485016
 30
0.0
 10
3.201373
 20
2.596721
 30
0.0
 10
3.339167
 20
2.596721
 30
0.0
  0
SPLINE
  5
162
100
AcDbEntity
  8
Layer_1
 62
7
100
AcDbSpline
 70
8
 71
3
 72
8
 73
4
 74
0
 40
0
 40
0
 40
0
 40
0
 40
1
 40
1
 40
1
 40
1
 10
3.339167
 20
2.596721
 30
0.0
 10
3.476961
 20
2.596721
 30
0.0
 10
3.588665
 20
2.485016
 30
0.0
 10
3.588665
 20
2.347222
 30
0.0
  0
LINE
  5
163
100
AcDbEntity
  8
Layer_1
 62
7
100
AcDbLine
 10
3.588665
 20
2.347222
 30
0.0
 11
3.588665
 21
2.347222
 31
0.0
  0
SPLINE
  5
164
100
AcDbEntity
  8
Layer_1
 62
7
100
AcDbSpline
 70
8
 71
3
 72
8
 73
4
 74
0
 40
0
 40
0
 40
0
 40
0
 40
1
 40
1
 40
1
 40
1
 10
4.266998
 20
2.347222
 30
0.0
 10
4.266998
 20
2.281051
 30
0.0
 10
4.240712
 20
2.217590
 30
0.0
 10
4.193922
 20
2.170801
 30
0.0
  0
SPLINE
  5
165
100
AcDbEntity
  8
Layer_1
 62
7
100
AcDbSpline
 70
8
 71
3
 72
8
 73
4
 74
0
 40
0
 40
0
 40
0
 40
0
 40
1
 40
1
 40
1
 40
1
 10
4.193922
 20
2.170801
 30
0.0
 10
4.147132
 20
2.124011
 30
0.0
 10
4.083671
 20
2.097724
 30
0.0
 10
4.017500
 20
2.097724
 30
0.0
  0
SPLINE
  5
166
100
AcDbEntity
  8
Layer_1
 62
7
100
AcDbSpline
 70
8
 71
3
 72
8
 73
4
 74
0
 40
0
 40
0
 40
0
 40
0
 40
1
 40
1
 40
1
 40
1
 10
4.017500
 20
2.097724
 30
0.0
 10
3.879706
 20
2.097724
 30
0.0
 10
3.768002
 20
2.209428
 30
0.0
 10
3.768002
 20
2.347222
 30
0.0
  0
SPLINE
  5
167
100
AcDbEntity
  8
Layer_1
 62
7
100
AcDbSpline
 70
8
 71
3
 72
8
 73
4
 74
0
 40
0
 40
0
 40
0
 40
0
 40
1
 40
1
 40
1
 40
1
 10
3.768002
 20
2.347222
 30
0.0
 10
3.768002
 20
2.485016
 30
0.0
 10
3.879706
 20
2.596721
 30
0.0
 10
4.017500
 20
2.596721
 30
0.0
  0
SPLINE
  5
168
100
AcDbEntity
  8
Layer_1
 62
7
100
AcDbSpline
 70
8
 71
3
 72
8
 73
4
 74
0
 40
0
 40
0
 40
0
 40
0
 40
1
 40
1
 40
1
 40
1
 10
4.017500
 20
2.596721
 30
0.0
 10
4.083671
 20
2.596721
 30
0.0
 10
4.147132
 20
2.570434
 30
0.0
 10
4.193922
 20
2.523644
 30
0.0
  0
SPLINE
  5
169
100
AcDbEntity
  8
Layer_1
 62
7
100
AcDbSpline
 70
8
 71
3
 72
8
 73
4
 74
0
 40
0
 40
0
 40
0
 40
0
 40
1
 40
1
 40
1
 40
1
 10
4.193922
 20
2.523644
 30
0.0
 10
4.240712
 20
2.476854
 30
0.0
 10
4.266998
 20
2.413394
 30
0.0
 10
4.266998
 20
2.347222
 30
0.0
  0
LINE
  5
16a
100
AcDbEntity
  8
Layer_1
 62
7
100
AcDbLine
 10
4.266998
 20
2.347222
 30
0.0
 11
4.266998
 21
2.347222
 31
0.0
  0
SPLINE
  5
16b
100
AcDbEntity
  8
Layer_1
 62
7
100
AcDbSpline
 70
8
 71
3
 72
8
 73
4
 74
0
 40
0
 40
0
 40
0
 40
0
 40
1
 40
1
 40
1
 40
1
 10
4.945331
 20
2.347222
 30
0.0
 10
4.945331
 20
2.209428
 30
0.0
 10
4.833627
 20
2.097724
 30
0.0
 10
4.695833
 20
2.097724
 30
0.0
  0
SPLINE
  5
16c
100
AcDbEntity
  8
Layer_1
 62
7
100
AcDbSpline
 70
8
 71
3
 72
8
 73
4
 74
0
 40
0
 40
0
 40
0
 40
0
 40
1
 40
1
 40
1
 40
1
 10
4.695833
 20
2.097724
 30
0.0
 10
4.558039
 20
2.097724
 30
0.0
 10
4.446335
 20
2.209428
 30
0.0
 10
4.446335
 20
2.347222
 30
0.0
  0
SPLINE
  5
16d
100
AcDbEntity
  8
Layer_1
 62
7
100
AcDbSpline
 70
8
 71
3
 72
8
 73
4
 74
0
 40
0
 40
0
 40
0
 40
0
 40
1
 40
1
 40
1
 40
1
 10
4.446335
 20
2.347222
 30
0.0
 10
4.446335
 20
2.485016
 30
0.0
 10
4.558039
 20
2.596721
 30
0.0
 10
4.695833
 20
2.596721
 30
0.0
  0
SPLINE
  5
16e
100
AcDbEntity
  8
Layer_1
 62
7
100
AcDbSpline
 70
8
 71
3
 72
8
 73
4
 74
0
 40
0
 40
0
 40
0
 40
0
 40
1
 40
1
 40
1
 40
1
 10
4.695833
 20
2.596721
 30
0.0
 10
4.833627
 20
2.596721
 30
0.0
 10
4.945331
 20
2.485016
 30
0.0
 10
4.945331
 20
2.347222
 30
0.0
  0
LINE
  5
16f
100
AcDbEntity
  8
Layer_1
 62
7
100
AcDbLine
 10
4.945331
 20
2.347222
 30
0.0
 11
4.945331
 21
2.347222
 31
0.0
  0
SPLINE
  5
170
100
AcDbEntity
  8
Layer_1
 62
7
100
AcDbSpline
 70
8
 71
3
 72
8
 73
4
 74
0
 40
0
 40
0
 40
0
 40
0
 40
1
 40
1
 40
1
 40
1
 10
4.945331
 20
1.668941
 30
0.0
 10
4.945331
 20
1.531147
 30
0.0
 10
4.833627
 20
1.419443
 30
0.0
 10
4.695833
 20
1.419443
 30
0.0
  0
SPLINE
  5
171
100
AcDbEntity
  8
Layer_1
 62
7
100
AcDbSpline
 70
8
 71
3
 72
8
 73
4
 74
0
 40
0
 40
0
 40
0
 40
0
 40
1
 40
1
 40
1
 40
1
 10
4.695833
 20
1.419443
 30
0.0
 10
4.558039
 20
1.419443
 30
0.0
 10
4.446335
 20
1.531147
 30
0.0
 10
4.446335
 20
1.668941
 30
0.0
  0
SPLINE
  5
172
100
AcDbEntity
  8
Layer_1
 62
7
100
AcDbSpline
 70
8
 71
3
 72
8
 73
4
 74
0
 40
0
 40
0
 40
0
 40
0
 40
1
 40
1
 40
1
 40
1
 10
4.446335
 20
1.668941
 30
0.0
 10
4.446335
 20
1.806735
 30
0.0
 10
4.558039
 20
1.918439
 30
0.0
 10
4.695833
 20
1.918439
 30
0.0
  0
SPLINE
  5
173
100
AcDbEntity
  8
Layer_1
 62
7
100
AcDbSpline
 70
8
 71
3
 72
8
 73
4
 74
0
 40
0
 40
0
 40
0
 40
0
 40
1
 40
1
 40
1
 40
1
 10
4.695833
 20
1.918439
 30
0.0
 10
4.833627
 20
1.918439
 30
0.0
 10
4.945331
 20
1.806735
 30
0.0
 10
4.945331
 20
1.668941
 30
0.0
  0
LINE
  5
174
100
AcDbEntity
  8
Layer_1
 62
7
100
AcDbLine
 10
4.945331
 20
1.668941
 30
0.0
 11
4.945331
 21
1.668941
 31
0.0
  0
SPLINE
  5
175
100
AcDbEntity
  8
Layer_1
 62
7
100
AcDbSpline
 70
8
 71
3
 72
8
 73
4
 74
0
 40
0
 40
0
 40
0
 40
0
 40
1
 40
1
 40
1
 40
1
 10
4.266998
 20
1.668941
 30
0.0
 10
4.266998
 20
1.602770
 30
0.0
 10
4.240712
 20
1.539309
 30
0.0
 10
4.193922
 20
1.492519
 30
0.0
  0
SPLINE
  5
176
100
AcDbEntity
  8
Layer_1
 62
7
100
AcDbSpline
 70
8
 71
3
 72
8
 73
4
 74
0
 40
0
 40
0
 40
0
 40
0
 40
1
 40
1
 40
1
 40
1
 10
4.193922
 20
1.492519
 30
0.0
 10
4.147132
 20
1.445729
 30
0.0
 10
4.083671
 20
1.419443
 30
0.0
 10
4.017500
 20
1.419443
 30
0.0
  0
SPLINE
  5
177
100
AcDbEntity
  8
Layer_1
 62
7
100
AcDbSpline
 70
8
 71
3
 72
8
 73
4
 74
0
 40
0
 40
0
 40
0
 40
0
 40
1
 40
1
 40
1
 40
1
 10
4.017500
 20
1.419443
 30
0.0
 10
3.879706
 20
1.419443
 30
0.0
 10
3.768002
 20
1.531147
 30
0.0
 10
3.768002
 20
1.668941
 30
0.0
  0
SPLINE
  5
178
100
AcDbEntity
  8
Layer_1
 62
7
100
AcDbSpline
 70
8
 71
3
 72
8
 73
4
 74
0
 40
0
 40
0
 40
0
 40
0
 40
1
 40
1
 40
1
 40
1
 10
3.768002
 20
1.668941
 30
0.0
 10
3.768002
 20
1.806735
 30
0.0
 10
3.879706
 20
1.918439
 30
0.0
 10
4.017500
 20
1.918439
 30
0.0
  0
SPLINE
  5
179
100
AcDbEntity
  8
Layer_1
 62
7
100
AcDbSpline
 70
8
 71
3
 72
8
 73
4
 74
0
 40
0
 40
0
 40
0
 40
0
 40
1
 40
1
 40
1
 40
1
 10
4.017500
 20
1.918439
 30
0.0
 10
4.083671
 20
1.918439
 30
0.0
 10
4.147132
 20
1.892153
 30
0.0
 10
4.193922
 20
1.845363
 30
0.0
  0
SPLINE
  5
17a
100
AcDbEntity
  8
Layer_1
 62
7
100
AcDbSpline
 70
8
 71
3
 72
8
 73
4
 74
0
 40
0
 40
0
 40
0
 40
0
 40
1
 40
1
 40
1
 40
1
 10
4.193922
 20
1.845363
 30
0.0
 10
4.240712
 20
1.798573
 30
0.0
 10
4.266998
 20
1.735112
 30
0.0
 10
4.266998
 20
1.668941
 30
0.0
  0
LINE
  5
17b
100
AcDbEntity
  8
Layer_1
 62
7
100
AcDbLine
 10
4.266998
 20
1.668941
 30
0.0
 11
4.266998
 21
1.668941
 31
0.0
  0
SPLINE
  5
17c
100
AcDbEntity
  8
Layer_1
 62
7
100
AcDbSpline
 70
8
 71
3
 72
8
 73
4
 74
0
 40
0
 40
0
 40
0
 40
0
 40
1
 40
1
 40
1
 40
1
 10
3.588665
 20
1.668941
 30
0.0
 10
3.588665
 20
1.531147
 30
0.0
 10
3.476961
 20
1.419443
 30
0.0
 10
3.339167
 20
1.419443
 30
0.0
  0
SPLINE
  5
17d
100
AcDbEntity
  8
Layer_1
 62
7
100
AcDbSpline
 70
8
 71
3
 72
8
 73
4
 74
0
 40
0
 40
0
 40
0
 40
0
 40
1
 40
1
 40
1
 40
1
 10
3.339167
 20
1.419443
 30
0.0
 10
3.201373
 20
1.419443
 30
0.0
 10
3.089669
 20
1.531147
 30
0.0
 10
3.089669
 20
1.668941
 30
0.0
  0
SPLINE
  5
17e
100
AcDbEntity
  8
Layer_1
 62
7
100
AcDbSpline
 70
8
 71
3
 72
8
 73
4
 74
0
 40
0
 40
0
 40
0
 40
0
 40
1
 40
1
 40
1
 40
1
 10
3.089669
 20
1.668941
 30
0.0
 10
3.089669
 20
1.806735
 30
0.0
 10
3.201373
 20
1.918439
 30
0.0
 10
3.339167
 20
1.918439
 30
0.0
  0
SPLINE
  5
17f
100
AcDbEntity
  8
Layer_1
 62
7
100
AcDbSpline
 70
8
 71
3
 72
8
 73
4
 74
0
 40
0
 40
0
 40
0
 40
0
 40
1
 40
1
 40
1
 40
1
 10
3.339167
 20
1.918439
 30
0.0
 10
3.476961
 20
1.918439
 30
0.0
 10
3.588665
 20
1.806735
 30
0.0
 10
3.588665
 20
1.668941
 30
0.0
  0
LINE
  5
180
100
AcDbEntity
  8
Layer_1
 62
7
100
AcDbLine
 10
3.588665
 20
1.668941
 30
0.0
 11
3.588665
 21
1.668941
 31
0.0
  0
SPLINE
  5
181
100
AcDbEntity
  8
Layer_1
 62
7
100
AcDbSpline
 70
8
 71
3
 72
8
 73
4
 74
0
 40
0
 40
0
 40
0
 40
0
 40
1
 40
1
 40
1
 40
1
 10
2.910331
 20
1.668941
 30
0.0
 10
2.910331
 20
1.531147
 30
0.0
 10
2.798627
 20
1.419443
 30
0.0
 10
2.660833
 20
1.419443
 30
0.0
  0
SPLINE
  5
182
100
AcDbEntity
  8
Layer_1
 62
7
100
AcDbSpline
 70
8
 71
3
 72
8
 73
4
 74
0
 40
0
 40
0
 40
0
 40
0
 40
1
 40
1
 40
1
 40
1
 10
2.660833
 20
1.419443
 30
0.0
 10
2.523039
 20
1.419443
 30
0.0
 10
2.411335
 20
1.531147
 30
0.0
 10
2.411335
 20
1.668941
 30
0.0
  0
SPLINE
  5
183
100
AcDbEntity
  8
Layer_1
 62
7
100
AcDbSpline
 70
8
 71
3
 72
8
 73
4
 74
0
 40
0
 40
0
 40
0
 40
0
 40
1
 40
1
 40
1
 40
1
 10
2.411335
 20
1.668941
 30
0.0
 10
2.411335
 20
1.806735
 30
0.0
 10
2.523039
 20
1.918439
 30
0.0
 10
2.660833
 20
1.918439
 30
0.0
  0
SPLINE
  5
184
100
AcDbEntity
  8
Layer_1
 62
7
100
AcDbSpline
 70
8
 71
3
 72
8
 73
4
 74
0
 40
0
 40
0
 40
0
 40
0
 40
1
 40
1
 40
1
 40
1
 10
2.660833
 20
1.918439
 30
0.0
 10
2.798627
 20
1.918439
 30
0.0
 10
2.910331
 20
1.806735
 30
0.0
 10
2.910331
 20
1.668941
 30
0.0
  0
LINE
  5
185
100
AcDbEntity
  8
Layer_1
 62
7
100
AcDbLine
 10
2.910331
 20
1.668941
 30
0.0
 11
2.910331
 21
1.668941
 31
0.0
  0
SPLINE
  5
186
100
AcDbEntity
  8
Layer_1
 62
7
100
AcDbSpline
 70
8
 71
3
 72
8
 73
4
 74
0
 40
0
 40
0
 40
0
 40
0
 40
1
 40
1
 40
1
 40
1
 10
2.231998
 20
1.668941
 30
0.0
 10
2.231998
 20
1.602770
 30
0.0
 10
2.205712
 20
1.539309
 30
0.0
 10
2.158922
 20
1.492519
 30
0.0
  0
SPLINE
  5
187
100
AcDbEntity
  8
Layer_1
 62
7
100
AcDbSpline
 70
8
 71
3
 72
8
 73
4
 74
0
 40
0
 40
0
 40
0
 40
0
 40
1
 40
1
 40
1
 40
1
 10
2.158922
 20
1.492519
 30
0.0
 10
2.112132
 20
1.445729
 30
0.0
 10
2.048671
 20
1.419443
 30
0.0
 10
1.982500
 20
1.419443
 30
0.0
  0
SPLINE
  5
188
100
AcDbEntity
  8
Layer_1
 62
7
100
AcDbSpline
 70
8
 71
3
 72
8
 73
4
 74
0
 40
0
 40
0
 40
0
 40
0
 40
1
 40
1
 40
1
 40
1
 10
1.982500
 20
1.419443
 30
0.0
 10
1.844706
 20
1.419443
 30
0.0
 10
1.733002
 20
1.531147
 30
0.0
 10
1.733002
 20
1.668941
 30
0.0
  0
SPLINE
  5
189
100
AcDbEntity
  8
Layer_1
 62
7
100
AcDbSpline
 70
8
 71
3
 72
8
 73
4
 74
0
 40
0
 40
0
 40
0
 40
0
 40
1
 40
1
 40
1
 40
1
 10
1.733002
 20
1.668941
 30
0.0
 10
1.733002
 20
1.806735
 30
0.0
 10
1.844706
 20
1.918439
 30
0.0
 10
1.982500
 20
1.918439
 30
0.0
  0
SPLINE
  5
18a
100
AcDbEntity
  8
Layer_1
 62
7
100
AcDbSpline
 70
8
 71
3
 72
8
 73
4
 74
0
 40
0
 40
0
 40
0
 40
0
 40
1
 40
1
 40
1
 40
1
 10
1.982500
 20
1.918439
 30
0.0
 10
2.048671
 20
1.918439
 30
0.0
 10
2.112132
 20
1.892153
 30
0.0
 10
2.158922
 20
1.845363
 30
0.0
  0
SPLINE
  5
18b
100
AcDbEntity
  8
Layer_1
 62
7
100
AcDbSpline
 70
8
 71
3
 72
8
 73
4
 74
0
 40
0
 40
0
 40
0
 40
0
 40
1
 40
1
 40
1
 40
1
 10
2.158922
 20
1.845363
 30
0.0
 10
2.205712
 20
1.798573
 30
0.0
 10
2.231998
 20
1.735112
 30
0.0
 10
2.231998
 20
1.668941
 30
0.0
  0
LINE
  5
18c
100
AcDbEntity
  8
Layer_1
 62
7
100
AcDbLine
 10
2.231998
 20
1.668941
 30
0.0
 11
2.231998
 21
1.668941
 31
0.0
  0
SPLINE
  5
18d
100
AcDbEntity
  8
Layer_1
 62
7
100
AcDbSpline
 70
8
 71
3
 72
8
 73
4
 74
0
 40
0
 40
0
 40
0
 40
0
 40
1
 40
1
 40
1
 40
1
 10
1.553665
 20
1.668941
 30
0.0
 10
1.553665
 20
1.602770
 30
0.0
 10
1.527379
 20
1.539309
 30
0.0
 10
1.480589
 20
1.492519
 30
0.0
  0
SPLINE
  5
18e
100
AcDbEntity
  8
Layer_1
 62
7
100
AcDbSpline
 70
8
 71
3
 72
8
 73
4
 74
0
 40
0
 40
0
 40
0
 40
0
 40
1
 40
1
 40
1
 40
1
 10
1.480589
 20
1.492519
 30
0.0
 10
1.433799
 20
1.445729
 30
0.0
 10
1.370338
 20
1.419443
 30
0.0
 10
1.304167
 20
1.419443
 30
0.0
  0
SPLINE
  5
18f
100
AcDbEntity
  8
Layer_1
 62
7
100
AcDbSpline
 70
8
 71
3
 72
8
 73
4
 74
0
 40
0
 40
0
 40
0
 40
0
 40
1
 40
1
 40
1
 40
1
 10
1.304167
 20
1.419443
 30
0.0
 10
1.166373
 20
1.419443
 30
0.0
 10
1.054669
 20
1.531147
 30
0.0
 10
1.054669
 20
1.668941
 30
0.0
  0
SPLINE
  5
190
100
AcDbEntity
  8
Layer_1
 62
7
100
AcDbSpline
 70
8
 71
3
 72
8
 73
4
 74
0
 40
0
 40
0
 40
0
 40
0
 40
1
 40
1
 40
1
 40
1
 10
1.054669
 20
1.668941
 30
0.0
 10
1.054669
 20
1.806735
 30
0.0
 10
1.166373
 20
1.918439
 30
0.0
 10
1.304167
 20
1.918439
 30
0.0
  0
SPLINE
  5
191
100
AcDbEntity
  8
Layer_1
 62
7
100
AcDbSpline
 70
8
 71
3
 72
8
 73
4
 74
0
 40
0
 40
0
 40
0
 40
0
 40
1
 40
1
 40
1
 40
1
 10
1.304167
 20
1.918439
 30
0.0
 10
1.370338
 20
1.918439
 30
0.0
 10
1.433799
 20
1.892153
 30
0.0
 10
1.480589
 20
1.845363
 30
0.0
  0
SPLINE
  5
192
100
AcDbEntity
  8
Layer_1
 62
7
100
AcDbSpline
 70
8
 71
3
 72
8
 73
4
 74
0
 40
0
 40
0
 40
0
 40
0
 40
1
 40
1
 40
1
 40
1
 10
1.480589
 20
1.845363
 30
0.0
 10
1.527379
 20
1.798573
 30
0.0
 10
1.553665
 20
1.735112
 30
0.0
 10
1.553665
 20
1.668941
 30
0.0
  0
LINE
  5
193
100
AcDbEntity
  8
Layer_1
 62
7
100
AcDbLine
 10
1.553665
 20
1.668941
 30
0.0
 11
1.553665
 21
1.668941
 31
0.0
  0
SPLINE
  5
194
100
AcDbEntity
  8
Layer_1
 62
7
100
AcDbSpline
 70
8
 71
3
 72
8
 73
4
 74
0
 40
0
 40
0
 40
0
 40
0
 40
1
 40
1
 40
1
 40
1
 10
1.553665
 20
0.990660
 30
0.0
 10
1.553665
 20
0.924489
 30
0.0
 10
1.527379
 20
0.861028
 30
0.0
 10
1.480589
 20
0.814238
 30
0.0
  0
SPLINE
  5
195
100
AcDbEntity
  8
Layer_1
 62
7
100
AcDbSpline
 70
8
 71
3
 72
8
 73
4
 74
0
 40
0
 40
0
 40
0
 40
0
 40
1
 40
1
 40
1
 40
1
 10
1.480589
 20
0.814238
 30
0.0
 10
1.433799
 20
0.767448
 30
0.0
 10
1.370338
 20
0.741162
 30
0.0
 10
1.304167
 20
0.741162
 30
0.0
  0
SPLINE
  5
196
100
AcDbEntity
  8
Layer_1
 62
7
100
AcDbSpline
 70
8
 71
3
 72
8
 73
4
 74
0
 40
0
 40
0
 40
0
 40
0
 40
1
 40
1
 40
1
 40
1
 10
1.304167
 20
0.741162
 30
0.0
 10
1.166373
 20
0.741162
 30
0.0
 10
1.054669
 20
0.852866
 30
0.0
 10
1.054669
 20
0.990660
 30
0.0
  0
SPLINE
  5
197
100
AcDbEntity
  8
Layer_1
 62
7
100
AcDbSpline
 70
8
 71
3
 72
8
 73
4
 74
0
 40
0
 40
0
 40
0
 40
0
 40
1
 40
1
 40
1
 40
1
 10
1.054669
 20
0.990660
 30
0.0
 10
1.054669
 20
1.128454
 30
0.0
 10
1.166373
 20
1.240158
 30
0.0
 10
1.304167
 20
1.240158
 30
0.0
  0
SPLINE
  5
198
100
AcDbEntity
  8
Layer_1
 62
7
100
AcDbSpline
 70
8
 71
3
 72
8
 73
4
 74
0
 40
0
 40
0
 40
0
 40
0
 40
1
 40
1
 40
1
 40
1
 10
1.304167
 20
1.240158
 30
0.0
 10
1.370338
 20
1.240159
 30
0.0
 10
1.433799
 20
1.213872
 30
0.0
 10
1.480589
 20
1.167082
 30
0.0
  0
SPLINE
  5
199
100
AcDbEntity
  8
Layer_1
 62
7
100
AcDbSpline
 70
8
 71
3
 72
8
 73
4
 74
0
 40
0
 40
0
 40
0
 40
0
 40
1
 40
1
 40
1
 40
1
 10
1.480589
 20
1.167082
 30
0.0
 10
1.527379
 20
1.120292
 30
0.0
 10
1.553665
 20
1.056831
 30
0.0
 10
1.553665
 20
0.990660
 30
0.0
  0
LINE
  5
19a
100
AcDbEntity
  8
Layer_1
 62
7
100
AcDbLine
 10
1.553665
 20
0.990660
 30
0.0
 11
1.553665
 21
0.990660
 31
0.0
  0
SPLINE
  5
19b
100
AcDbEntity
  8
Layer_1
 62
7
100
AcDbSpline
 70
8
 71
3
 72
8
 73
4
 74
0
 40
0
 40
0
 40
0
 40
0
 40
1
 40
1
 40
1
 40
1
 10
2.231998
 20
0.990660
 30
0.0
 10
2.231998
 20
0.924489
 30
0.0
 10
2.205712
 20
0.861028
 30
0.0
 10
2.158922
 20
0.814238
 30
0.0
  0
SPLINE
  5
19c
100
AcDbEntity
  8
Layer_1
 62
7
100
AcDbSpline
 70
8
 71
3
 72
8
 73
4
 74
0
 40
0
 40
0
 40
0
 40
0
 40
1
 40
1
 40
1
 40
1
 10
2.158922
 20
0.814238
 30
0.0
 10
2.112132
 20
0.767448
 30
0.0
 10
2.048671
 20
0.741162
 30
0.0
 10
1.982500
 20
0.741162
 30
0.0
  0
SPLINE
  5
19d
100
AcDbEntity
  8
Layer_1
 62
7
100
AcDbSpline
 70
8
 71
3
 72
8
 73
4
 74
0
 40
0
 40
0
 40
0
 40
0
 40
1
 40
1
 40
1
 40
1
 10
1.982500
 20
0.741162
 30
0.0
 10
1.844706
 20
0.741162
 30
0.0
 10
1.733002
 20
0.852866
 30
0.0
 10
1.733002
 20
0.990660
 30
0.0
  0
SPLINE
  5
19e
100
AcDbEntity
  8
Layer_1
 62
7
100
AcDbSpline
 70
8
 71
3
 72
8
 73
4
 74
0
 40
0
 40
0
 40
0
 40
0
 40
1
 40
1
 40
1
 40
1
 10
1.733002
 20
0.990660
 30
0.0
 10
1.733002
 20
1.128454
 30
0.0
 10
1.844706
 20
1.240158
 30
0.0
 10
1.982500
 20
1.240158
 30
0.0
  0
SPLINE
  5
19f
100
AcDbEntity
  8
Layer_1
 62
7
100
AcDbSpline
 70
8
 71
3
 72
8
 73
4
 74
0
 40
0
 40
0
 40
0
 40
0
 40
1
 40
1
 40
1
 40
1
 10
1.982500
 20
1.240158
 30
0.0
 10
2.048671
 20
1.240159
 30
0.0
 10
2.112132
 20
1.213872
 30
0.0
 10
2.158922
 20
1.167082
 30
0.0
  0
SPLINE
  5
1a0
100
AcDbEntity
  8
Layer_1
 62
7
100
AcDbSpline
 70
8
 71
3
 72
8
 73
4
 74
0
 40
0
 40
0
 40
0
 40
0
 40
1
 40
1
 40
1
 40
1
 10
2.158922
 20
1.167082
 30
0.0
 10
2.205712
 20
1.120292
 30
0.0
 10
2.231998
 20
1.056831
 30
0.0
 10
2.231998
 20
0.990660
 30
0.0
  0
LINE
  5
1a1
100
AcDbEntity
  8
Layer_1
 62
7
100
AcDbLine
 10
2.231998
 20
0.990660
 30
0.0
 11
2.231998
 21
0.990660
 31
0.0
  0
SPLINE
  5
1a2
100
AcDbEntity
  8
Layer_1
 62
7
100
AcDbSpline
 70
8
 71
3
 72
8
 73
4
 74
0
 40
0
 40
0
 40
0
 40
0
 40
1
 40
1
 40
1
 40
1
 10
2.910331
 20
0.990660
 30
0.0
 10
2.910331
 20
0.852866
 30
0.0
 10
2.798627
 20
0.741162
 30
0.0
 10
2.660833
 20
0.741162
 30
0.0
  0
SPLINE
  5
1a3
100
AcDbEntity
  8
Layer_1
 62
7
100
AcDbSpline
 70
8
 71
3
 72
8
 73
4
 74
0
 40
0
 40
0
 40
0
 40
0
 40
1
 40
1
 40
1
 40
1
 10
2.660833
 20
0.741162
 30
0.0
 10
2.523039
 20
0.741162
 30
0.0
 10
2.411335
 20
0.852866
 30
0.0
 10
2.411335
 20
0.990660
 30
0.0
  0
SPLINE
  5
1a4
100
AcDbEntity
  8
Layer_1
 62
7
100
AcDbSpline
 70
8
 71
3
 72
8
 73
4
 74
0
 40
0
 40
0
 40
0
 40
0
 40
1
 40
1
 40
1
 40
1
 10
2.411335
 20
0.990660
 30
0.0
 10
2.411335
 20
1.128454
 30
0.0
 10
2.523039
 20
1.240158
 30
0.0
 10
2.660833
 20
1.240158
 30
0.0
  0
SPLINE
  5
1a5
100
AcDbEntity
  8
Layer_1
 62
7
100
AcDbSpline
 70
8
 71
3
 72
8
 73
4
 74
0
 40
0
 40
0
 40
0
 40
0
 40
1
 40
1
 40
1
 40
1
 10
2.660833
 20
1.240158
 30
0.0
 10
2.798627
 20
1.240158
 30
0.0
 10
2.910332
 20
1.128454
 30
0.0
 10
2.910331
 20
0.990660
 30
0.0
  0
LINE
  5
1a6
100
AcDbEntity
  8
Layer_1
 62
7
100
AcDbLine
 10
2.910331
 20
0.990660
 30
0.0
 11
2.910331
 21
0.990660
 31
0.0
  0
SPLINE
  5
1a7
100
AcDbEntity
  8
Layer_1
 62
7
100
AcDbSpline
 70
8
 71
3
 72
8
 73
4
 74
0
 40
0
 40
0
 40
0
 40
0
 40
1
 40
1
 40
1
 40
1
 10
3.588665
 20
0.990660
 30
0.0
 10
3.588665
 20
0.852866
 30
0.0
 10
3.476961
 20
0.741162
 30
0.0
 10
3.339167
 20
0.741162
 30
0.0
  0
SPLINE
  5
1a8
100
AcDbEntity
  8
Layer_1
 62
7
100
AcDbSpline
 70
8
 71
3
 72
8
 73
4
 74
0
 40
0
 40
0
 40
0
 40
0
 40
1
 40
1
 40
1
 40
1
 10
3.339167
 20
0.741162
 30
0.0
 10
3.201373
 20
0.741162
 30
0.0
 10
3.089669
 20
0.852866
 30
0.0
 10
3.089669
 20
0.990660
 30
0.0
  0
SPLINE
  5
1a9
100
AcDbEntity
  8
Layer_1
 62
7
100
AcDbSpline
 70
8
 71
3
 72
8
 73
4
 74
0
 40
0
 40
0
 40
0
 40
0
 40
1
 40
1
 40
1
 40
1
 10
3.089669
 20
0.990660
 30
0.0
 10
3.089668
 20
1.128454
 30
0.0
 10
3.201373
 20
1.240158
 30
0.0
 10
3.339167
 20
1.240158
 30
0.0
  0
SPLINE
  5
1aa
100
AcDbEntity
  8
Layer_1
 62
7
100
AcDbSpline
 70
8
 71
3
 72
8
 73
4
 74
0
 40
0
 40
0
 40
0
 40
0
 40
1
 40
1
 40
1
 40
1
 10
3.339167
 20
1.240158
 30
0.0
 10
3.476961
 20
1.240158
 30
0.0
 10
3.588665
 20
1.128454
 30
0.0
 10
3.588665
 20
0.990660
 30
0.0
  0
LINE
  5
1ab
100
AcDbEntity
  8
Layer_1
 62
7
100
AcDbLine
 10
3.588665
 20
0.990660
 30
0.0
 11
3.588665
 21
0.990660
 31
0.0
  0
SPLINE
  5
1ac
100
AcDbEntity
  8
Layer_1
 62
7
100
AcDbSpline
 70
8
 71
3
 72
8
 73
4
 74
0
 40
0
 40
0
 40
0
 40
0
 40
1
 40
1
 40
1
 40
1
 10
4.266998
 20
0.990660
 30
0.0
 10
4.266998
 20
0.924489
 30
0.0
 10
4.240712
 20
0.861028
 30
0.0
 10
4.193922
 20
0.814238
 30
0.0
  0
SPLINE
  5
1ad
100
AcDbEntity
  8
Layer_1
 62
7
100
AcDbSpline
 70
8
 71
3
 72
8
 73
4
 74
0
 40
0
 40
0
 40
0
 40
0
 40
1
 40
1
 40
1
 40
1
 10
4.193922
 20
0.814238
 30
0.0
 10
4.147132
 20
0.767448
 30
0.0
 10
4.083671
 20
0.741162
 30
0.0
 10
4.017500
 20
0.741162
 30
0.0
  0
SPLINE
  5
1ae
100
AcDbEntity
  8
Layer_1
 62
7
100
AcDbSpline
 70
8
 71
3
 72
8
 73
4
 74
0
 40
0
 40
0
 40
0
 40
0
 40
1
 40
1
 40
1
 40
1
 10
4.017500
 20
0.741162
 30
0.0
 10
3.879706
 20
0.741162
 30
0.0
 10
3.768002
 20
0.852866
 30
0.0
 10
3.768002
 20
0.990660
 30
0.0
  0
SPLINE
  5
1af
100
AcDbEntity
  8
Layer_1
 62
7
100
AcDbSpline
 70
8
 71
3
 72
8
 73
4
 74
0
 40
0
 40
0
 40
0
 40
0
 40
1
 40
1
 40
1
 40
1
 10
3.768002
 20
0.990660
 30
0.0
 10
3.768002
 20
1.128454
 30
0.0
 10
3.879706
 20
1.240158
 30
0.0
 10
4.017500
 20
1.240158
 30
0.0
  0
SPLINE
  5
1b0
100
AcDbEntity
  8
Layer_1
 62
7
100
AcDbSpline
 70
8
 71
3
 72
8
 73
4
 74
0
 40
0
 40
0
 40
0
 40
0
 40
1
 40
1
 40
1
 40
1
 10
4.017500
 20
1.240158
 30
0.0
 10
4.083671
 20
1.240159
 30
0.0
 10
4.147132
 20
1.213872
 30
0.0
 10
4.193922
 20
1.167082
 30
0.0
  0
SPLINE
  5
1b1
100
AcDbEntity
  8
Layer_1
 62
7
100
AcDbSpline
 70
8
 71
3
 72
8
 73
4
 74
0
 40
0
 40
0
 40
0
 40
0
 40
1
 40
1
 40
1
 40
1
 10
4.193922
 20
1.167082
 30
0.0
 10
4.240712
 20
1.120292
 30
0.0
 10
4.266998
 20
1.056831
 30
0.0
 10
4.266998
 20
0.990660
 30
0.0
  0
LINE
  5
1b2
100
AcDbEntity
  8
Layer_1
 62
7
100
AcDbLine
 10
4.266998
 20
0.990660
 30
0.0
 11
4.266998
 21
0.990660
 31
0.0
  0
SPLINE
  5
1b3
100
AcDbEntity
  8
Layer_1
 62
7
100
AcDbSpline
 70
8
 71
3
 72
8
 73
4
 74
0
 40
0
 40
0
 40
0
 40
0
 40
1
 40
1
 40
1
 40
1
 10
4.945331
 20
0.990660
 30
0.0
 10
4.945331
 20
0.852866
 30
0.0
 10
4.833627
 20
0.741162
 30
0.0
 10
4.695833
 20
0.741162
 30
0.0
  0
SPLINE
  5
1b4
100
AcDbEntity
  8
Layer_1
 62
7
100
AcDbSpline
 70
8
 71
3
 72
8
 73
4
 74
0
 40
0
 40
0
 40
0
 40
0
 40
1
 40
1
 40
1
 40
1
 10
4.695833
 20
0.741162
 30
0.0
 10
4.558039
 20
0.741162
 30
0.0
 10
4.446335
 20
0.852866
 30
0.0
 10
4.446335
 20
0.990660
 30
0.0
  0
SPLINE
  5
1b5
100
AcDbEntity
  8
Layer_1
 62
7
100
AcDbSpline
 70
8
 71
3
 72
8
 73
4
 74
0
 40
0
 40
0
 40
0
 40
0
 40
1
 40
1
 40
1
 40
1
 10
4.446335
 20
0.990660
 30
0.0
 10
4.446335
 20
1.128454
 30
0.0
 10
4.558039
 20
1.240158
 30
0.0
 10
4.695833
 20
1.240158
 30
0.0
  0
SPLINE
  5
1b6
100
AcDbEntity
  8
Layer_1
 62
7
100
AcDbSpline
 70
8
 71
3
 72
8
 73
4
 74
0
 40
0
 40
0
 40
0
 40
0
 40
1
 40
1
 40
1
 40
1
 10
4.695833
 20
1.240158
 30
0.0
 10
4.833627
 20
1.240158
 30
0.0
 10
4.945332
 20
1.128454
 30
0.0
 10
4.945331
 20
0.990660
 30
0.0
  0
LINE
  5
1b7
100
AcDbEntity
  8
Layer_1
 62
7
100
AcDbLine
 10
4.945331
 20
0.990660
 30
0.0
 11
4.945331
 21
0.990660
 31
0.0
  0
SPLINE
  5
1b8
100
AcDbEntity
  8
Layer_1
 62
3
100
AcDbSpline
 70
8
 71
3
 72
8
 73
4
 74
0
 40
0
 40
0
 40
0
 40
0
 40
1
 40
1
 40
1
 40
1
 10
1.354514
 20
4.091667
 30
0.0
 10
1.357046
 20
4.091667
 30
0.0
 10
1.359126
 20
4.092526
 30
0.0
 10
1.360754
 20
4.094244
 30
0.0
  0
SPLINE
  5
1b9
100
AcDbEntity
  8
Layer_1
 62
3
100
AcDbSpline
 70
8
 71
3
 72
8
 73
4
 74
0
 40
0
 40
0
 40
0
 40
0
 40
1
 40
1
 40
1
 40
1
 10
1.360754
 20
4.094244
 30
0.0
 10
1.362381
 20
4.095962
 30
0.0
 10
1.363195
 20
4.097996
 30
0.0
 10
1.363195
 20
4.100347
 30
0.0
  0
LINE
  5
1ba
100
AcDbEntity
  8
Layer_1
 62
3
100
AcDbLine
 10
1.363195
 20
4.100347
 30
0.0
 11
1.363195
 21
4.152430
 31
0.0
  0
SPLINE
  5
1bb
100
AcDbEntity
  8
Layer_1
 62
3
100
AcDbSpline
 70
8
 71
3
 72
8
 73
4
 74
0
 40
0
 40
0
 40
0
 40
0
 40
1
 40
1
 40
1
 40
1
 10
1.363195
 20
4.152430
 30
0.0
 10
1.363195
 20
4.154781
 30
0.0
 10
1.362336
 20
4.156816
 30
0.0
 10
1.360618
 20
4.158534
 30
0.0
  0
SPLINE
  5
1bc
100
AcDbEntity
  8
Layer_1
 62
3
100
AcDbSpline
 70
8
 71
3
 72
8
 73
4
 74
0
 40
0
 40
0
 40
0
 40
0
 40
1
 40
1
 40
1
 40
1
 10
1.360618
 20
4.158534
 30
0.0
 10
1.358900
 20
4.160252
 30
0.0
 10
1.356865
 20
4.161111
 30
0.0
 10
1.354514
 20
4.161111
 30
0.0
  0
LINE
  5
1bd
100
AcDbEntity
  8
Layer_1
 62
3
100
AcDbLine
 10
1.354514
 20
4.161111
 30
0.0
 11
1.232987
 21
4.161111
 31
0.0
  0
SPLINE
  5
1be
100
AcDbEntity
  8
Layer_1
 62
3
100
AcDbSpline
 70
8
 71
3
 72
8
 73
4
 74
0
 40
0
 40
0
 40
0
 40
0
 40
1
 40
1
 40
1
 40
1
 10
1.232987
 20
4.161111
 30
0.0
 10
1.230635
 20
4.161111
 30
0.0
 10
1.228601
 20
4.160297
 30
0.0
 10
1.226883
 20
4.158670
 30
0.0
  0
SPLINE
  5
1bf
100
AcDbEntity
  8
Layer_1
 62
3
100
AcDbSpline
 70
8
 71
3
 72
8
 73
4
 74
0
 40
0
 40
0
 40
0
 40
0
 40
1
 40
1
 40
1
 40
1
 10
1.226883
 20
4.158670
 30
0.0
 10
1.225165
 20
4.157042
 30
0.0
 10
1.224306
 20
4.154962
 30
0.0
 10
1.224306
 20
4.152430
 30
0.0
  0
LINE
  5
1c0
100
AcDbEntity
  8
Layer_1
 62
3
100
AcDbLine
 10
1.224306
 20
4.152430
 30
0.0
 11
1.224306
 21
4.100347
 31
0.0
  0
SPLINE
  5
1c1
100
AcDbEntity
  8
Layer_1
 62
3
100
AcDbSpline
 70
8
 71
3
 72
8
 73
4
 74
0
 40
0
 40
0
 40
0
 40
0
 40
1
 40
1
 40
1
 40
1
 10
1.224306
 20
4.100347
 30
0.0
 10
1.224306
 20
4.097815
 30
0.0
 10
1.225120
 20
4.095736
 30
0.0
 10
1.226747
 20
4.094108
 30
0.0
  0
SPLINE
  5
1c2
100
AcDbEntity
  8
Layer_1
 62
3
100
AcDbSpline
 70
8
 71
3
 72
8
 73
4
 74
0
 40
0
 40
0
 40
0
 40
0
 40
1
 40
1
 40
1
 40
1
 10
1.226747
 20
4.094108
 30
0.0
 10
1.228375
 20
4.092480
 30
0.0
 10
1.230455
 20
4.091667
 30
0.0
 10
1.232987
 20
4.091667
 30
0.0
  0
LINE
  5
1c3
100
AcDbEntity
  8
Layer_1
 62
3
100
AcDbLine
 10
1.232987
 20
4.091667
 30
0.0
 11
1.354514
 21
4.091667
 31
0.0
  0
SPLINE
  5
1c4
100
AcDbEntity
  8
Layer_1
 62
3
100
AcDbSpline
 70
8
 71
3
 72
8
 73
4
 74
0
 40
0
 40
0
 40
0
 40
0
 40
1
 40
1
 40
1
 40
1
 10
1.354514
 20
4.195833
 30
0.0
 10
1.357046
 20
4.195833
 30
0.0
 10
1.359126
 20
4.196692
 30
0.0
 10
1.360754
 20
4.198410
 30
0.0
  0
SPLINE
  5
1c5
100
AcDbEntity
  8
Layer_1
 62
3
100
AcDbSpline
 70
8
 71
3
 72
8
 73
4
 74
0
 40
0
 40
0
 40
0
 40
0
 40
1
 40
1
 40
1
 40
1
 10
1.360754
 20
4.198410
 30
0.0
 10
1.362381
 20
4.200128
 30
0.0
 10
1.363195
 20
4.202163
 30
0.0
 10
1.363195
 20
4.204514
 30
0.0
  0
LINE
  5
1c6
100
AcDbEntity
  8
Layer_1
 62
3
100
AcDbLine
 10
1.363195
 20
4.204514
 30
0.0
 11
1.363195
 21
4.256597
 31
0.0
  0
SPLINE
  5
1c7
100
AcDbEntity
  8
Layer_1
 62
3
100
AcDbSpline
 70
8
 71
3
 72
8
 73
4
 74
0
 40
0
 40
0
 40
0
 40
0
 40
1
 40
1
 40
1
 40
1
 10
1.363195
 20
4.256597
 30
0.0
 10
1.363195
 20
4.258948
 30
0.0
 10
1.362336
 20
4.260983
 30
0.0
 10
1.360618
 20
4.262701
 30
0.0
  0
SPLINE
  5
1c8
100
AcDbEntity
  8
Layer_1
 62
3
100
AcDbSpline
 70
8
 71
3
 72
8
 73
4
 74
0
 40
0
 40
0
 40
0
 40
0
 40
1
 40
1
 40
1
 40
1
 10
1.360618
 20
4.262701
 30
0.0
 10
1.358900
 20
4.264419
 30
0.0
 10
1.356865
 20
4.265278
 30
0.0
 10
1.354514
 20
4.265278
 30
0.0
  0
LINE
  5
1c9
100
AcDbEntity
  8
Layer_1
 62
3
100
AcDbLine
 10
1.354514
 20
4.265278
 30
0.0
 11
1.232987
 21
4.265278
 31
0.0
  0
SPLINE
  5
1ca
100
AcDbEntity
  8
Layer_1
 62
3
100
AcDbSpline
 70
8
 71
3
 72
8
 73
4
 74
0
 40
0
 40
0
 40
0
 40
0
 40
1
 40
1
 40
1
 40
1
 10
1.232987
 20
4.265278
 30
0.0
 10
1.230635
 20
4.265278
 30
0.0
 10
1.228601
 20
4.264464
 30
0.0
 10
1.226883
 20
4.262836
 30
0.0
  0
SPLINE
  5
1cb
100
AcDbEntity
  8
Layer_1
 62
3
100
AcDbSpline
 70
8
 71
3
 72
8
 73
4
 74
0
 40
0
 40
0
 40
0
 40
0
 40
1
 40
1
 40
1
 40
1
 10
1.226883
 20
4.262836
 30
0.0
 10
1.225165
 20
4.261209
 30
0.0
 10
1.224306
 20
4.259129
 30
0.0
 10
1.224306
 20
4.256597
 30
0.0
  0
LINE
  5
1cc
100
AcDbEntity
  8
Layer_1
 62
3
100
AcDbLine
 10
1.224306
 20
4.256597
 30
0.0
 11
1.224306
 21
4.204514
 31
0.0
  0
SPLINE
  5
1cd
100
AcDbEntity
  8
Layer_1
 62
3
100
AcDbSpline
 70
8
 71
3
 72
8
 73
4
 74
0
 40
0
 40
0
 40
0
 40
0
 40
1
 40
1
 40
1
 40
1
 10
1.224306
 20
4.204514
 30
0.0
 10
1.224306
 20
4.201982
 30
0.0
 10
1.225120
 20
4.199902
 30
0.0
 10
1.226747
 20
4.198275
 30
0.0
  0
SPLINE
  5
1ce
100
AcDbEntity
  8
Layer_1
 62
3
100
AcDbSpline
 70
8
 71
3
 72
8
 73
4
 74
0
 40
0
 40
0
 40
0
 40
0
 40
1
 40
1
 40
1
 40
1
 10
1.226747
 20
4.198275
 30
0.0
 10
1.228375
 20
4.196647
 30
0.0
 10
1.230455
 20
4.195833
 30
0.0
 10
1.232987
 20
4.195833
 30
0.0
  0
LINE
  5
1cf
100
AcDbEntity
  8
Layer_1
 62
3
100
AcDbLine
 10
1.232987
 20
4.195833
 30
0.0
 11
1.354514
 21
4.195833
 31
0.0
  0
SPLINE
  5
1d0
100
AcDbEntity
  8
Layer_1
 62
3
100
AcDbSpline
 70
8
 71
3
 72
8
 73
4
 74
0
 40
0
 40
0
 40
0
 40
0
 40
1
 40
1
 40
1
 40
1
 10
1.206945
 20
4.056944
 30
0.0
 10
1.204503
 20
4.056944
 30
0.0
 10
1.202198
 20
4.057396
 30
0.0
 10
1.200028
 20
4.058301
 30
0.0
  0
SPLINE
  5
1d1
100
AcDbEntity
  8
Layer_1
 62
3
100
AcDbSpline
 70
8
 71
3
 72
8
 73
4
 74
0
 40
0
 40
0
 40
0
 40
0
 40
1
 40
1
 40
1
 40
1
 10
1.200028
 20
4.058301
 30
0.0
 10
1.197948
 20
4.059205
 30
0.0
 10
1.196139
 20
4.060426
 30
0.0
 10
1.194602
 20
4.061963
 30
0.0
  0
SPLINE
  5
1d2
100
AcDbEntity
  8
Layer_1
 62
3
100
AcDbSpline
 70
8
 71
3
 72
8
 73
4
 74
0
 40
0
 40
0
 40
0
 40
0
 40
1
 40
1
 40
1
 40
1
 10
1.194602
 20
4.061963
 30
0.0
 10
1.193065
 20
4.063500
 30
0.0
 10
1.191844
 20
4.065308
 30
0.0
 10
1.190940
 20
4.067388
 30
0.0
  0
SPLINE
  5
1d3
100
AcDbEntity
  8
Layer_1
 62
3
100
AcDbSpline
 70
8
 71
3
 72
8
 73
4
 74
0
 40
0
 40
0
 40
0
 40
0
 40
1
 40
1
 40
1
 40
1
 10
1.190940
 20
4.067388
 30
0.0
 10
1.190036
 20
4.069558
 30
0.0
 10
1.189584
 20
4.071864
 30
0.0
 10
1.189584
 20
4.074305
 30
0.0
  0
LINE
  5
1d4
100
AcDbEntity
  8
Layer_1
 62
3
100
AcDbLine
 10
1.189584
 20
4.074305
 30
0.0
 11
1.189584
 21
4.282639
 31
0.0
  0
SPLINE
  5
1d5
100
AcDbEntity
  8
Layer_1
 62
3
100
AcDbSpline
 70
8
 71
3
 72
8
 73
4
 74
0
 40
0
 40
0
 40
0
 40
0
 40
1
 40
1
 40
1
 40
1
 10
1.189584
 20
4.282639
 30
0.0
 10
1.189584
 20
4.284990
 30
0.0
 10
1.190036
 20
4.287205
 30
0.0
 10
1.190940
 20
4.289285
 30
0.0
  0
SPLINE
  5
1d6
100
AcDbEntity
  8
Layer_1
 62
3
100
AcDbSpline
 70
8
 71
3
 72
8
 73
4
 74
0
 40
0
 40
0
 40
0
 40
0
 40
1
 40
1
 40
1
 40
1
 10
1.190940
 20
4.289285
 30
0.0
 10
1.191935
 20
4.291365
 30
0.0
 10
1.193201
 20
4.293173
 30
0.0
 10
1.194738
 20
4.294710
 30
0.0
  0
SPLINE
  5
1d7
100
AcDbEntity
  8
Layer_1
 62
3
100
AcDbSpline
 70
8
 71
3
 72
8
 73
4
 74
0
 40
0
 40
0
 40
0
 40
0
 40
1
 40
1
 40
1
 40
1
 10
1.194738
 20
4.294710
 30
0.0
 10
1.196365
 20
4.296338
 30
0.0
 10
1.198219
 20
4.297604
 30
0.0
 10
1.200299
 20
4.298508
 30
0.0
  0
SPLINE
  5
1d8
100
AcDbEntity
  8
Layer_1
 62
3
100
AcDbSpline
 70
8
 71
3
 72
8
 73
4
 74
0
 40
0
 40
0
 40
0
 40
0
 40
1
 40
1
 40
1
 40
1
 10
1.200299
 20
4.298508
 30
0.0
 10
1.202378
 20
4.299503
 30
0.0
 10
1.204594
 20
4.300000
 30
0.0
 10
1.206945
 20
4.300000
 30
0.0
  0
LINE
  5
1d9
100
AcDbEntity
  8
Layer_1
 62
3
100
AcDbLine
 10
1.206945
 20
4.300000
 30
0.0
 11
1.380556
 21
4.300000
 31
0.0
  0
SPLINE
  5
1da
100
AcDbEntity
  8
Layer_1
 62
3
100
AcDbSpline
 70
8
 71
3
 72
8
 73
4
 74
0
 40
0
 40
0
 40
0
 40
0
 40
1
 40
1
 40
1
 40
1
 10
1.380556
 20
4.300000
 30
0.0
 10
1.382907
 20
4.300000
 30
0.0
 10
1.385122
 20
4.299503
 30
0.0
 10
1.387202
 20
4.298508
 30
0.0
  0
SPLINE
  5
1db
100
AcDbEntity
  8
Layer_1
 62
3
100
AcDbSpline
 70
8
 71
3
 72
8
 73
4
 74
0
 40
0
 40
0
 40
0
 40
0
 40
1
 40
1
 40
1
 40
1
 10
1.387202
 20
4.298508
 30
0.0
 10
1.389282
 20
4.297604
 30
0.0
 10
1.391090
 20
4.296338
 30
0.0
 10
1.392627
 20
4.294710
 30
0.0
  0
SPLINE
  5
1dc
100
AcDbEntity
  8
Layer_1
 62
3
100
AcDbSpline
 70
8
 71
3
 72
8
 73
4
 74
0
 40
0
 40
0
 40
0
 40
0
 40
1
 40
1
 40
1
 40
1
 10
1.392627
 20
4.294710
 30
0.0
 10
1.394255
 20
4.293173
 30
0.0
 10
1.395521
 20
4.291365
 30
0.0
 10
1.396425
 20
4.289285
 30
0.0
  0
SPLINE
  5
1dd
100
AcDbEntity
  8
Layer_1
 62
3
100
AcDbSpline
 70
8
 71
3
 72
8
 73
4
 74
0
 40
0
 40
0
 40
0
 40
0
 40
1
 40
1
 40
1
 40
1
 10
1.396425
 20
4.289285
 30
0.0
 10
1.397420
 20
4.287205
 30
0.0
 10
1.397917
 20
4.284990
 30
0.0
 10
1.397917
 20
4.282639
 30
0.0
  0
LINE
  5
1de
100
AcDbEntity
  8
Layer_1
 62
3
100
AcDbLine
 10
1.397917
 20
4.282639
 30
0.0
 11
1.397917
 21
4.074305
 31
0.0
  0
SPLINE
  5
1df
100
AcDbEntity
  8
Layer_1
 62
3
100
AcDbSpline
 70
8
 71
3
 72
8
 73
4
 74
0
 40
0
 40
0
 40
0
 40
0
 40
1
 40
1
 40
1
 40
1
 10
1.397917
 20
4.074305
 30
0.0
 10
1.397917
 20
4.071954
 30
0.0
 10
1.397420
 20
4.069739
 30
0.0
 10
1.396425
 20
4.067659
 30
0.0
  0
SPLINE
  5
1e0
100
AcDbEntity
  8
Layer_1
 62
3
100
AcDbSpline
 70
8
 71
3
 72
8
 73
4
 74
0
 40
0
 40
0
 40
0
 40
0
 40
1
 40
1
 40
1
 40
1
 10
1.396425
 20
4.067659
 30
0.0
 10
1.395521
 20
4.065580
 30
0.0
 10
1.394255
 20
4.063726
 30
0.0
 10
1.392627
 20
4.062098
 30
0.0
  0
SPLINE
  5
1e1
100
AcDbEntity
  8
Layer_1
 62
3
100
AcDbSpline
 70
8
 71
3
 72
8
 73
4
 74
0
 40
0
 40
0
 40
0
 40
0
 40
1
 40
1
 40
1
 40
1
 10
1.392627
 20
4.062098
 30
0.0
 10
1.391090
 20
4.060561
 30
0.0
 10
1.389282
 20
4.059295
 30
0.0
 10
1.387202
 20
4.058301
 30
0.0
  0
SPLINE
  5
1e2
100
AcDbEntity
  8
Layer_1
 62
3
100
AcDbSpline
 70
8
 71
3
 72
8
 73
4
 74
0
 40
0
 40
0
 40
0
 40
0
 40
1
 40
1
 40
1
 40
1
 10
1.387202
 20
4.058301
 30
0.0
 10
1.385122
 20
4.057396
 30
0.0
 10
1.382907
 20
4.056944
 30
0.0
 10
1.380556
 20
4.056944
 30
0.0
  0
LINE
  5
1e3
100
AcDbEntity
  8
Layer_1
 62
3
100
AcDbLine
 10
1.380556
 20
4.056944
 30
0.0
 11
1.206945
 21
4.056944
 31
0.0
  0
SPLINE
  5
1e4
100
AcDbEntity
  8
Layer_1
 62
3
100
AcDbSpline
 70
8
 71
3
 72
8
 73
4
 74
0
 40
0
 40
0
 40
0
 40
0
 40
1
 40
1
 40
1
 40
1
 10
1.878570
 20
4.056944
 30
0.0
 10
1.876038
 20
4.056944
 30
0.0
 10
1.873958
 20
4.057758
 30
0.0
 10
1.872331
 20
4.059386
 30
0.0
  0
SPLINE
  5
1e5
100
AcDbEntity
  8
Layer_1
 62
3
100
AcDbSpline
 70
8
 71
3
 72
8
 73
4
 74
0
 40
0
 40
0
 40
0
 40
0
 40
1
 40
1
 40
1
 40
1
 10
1.872331
 20
4.059386
 30
0.0
 10
1.870703
 20
4.061013
 30
0.0
 10
1.869889
 20
4.063093
 30
0.0
 10
1.869889
 20
4.065625
 30
0.0
  0
LINE
  5
1e6
100
AcDbEntity
  8
Layer_1
 62
3
100
AcDbLine
 10
1.869889
 20
4.065625
 30
0.0
 11
1.869889
 21
4.282639
 31
0.0
  0
SPLINE
  5
1e7
100
AcDbEntity
  8
Layer_1
 62
3
100
AcDbSpline
 70
8
 71
3
 72
8
 73
4
 74
0
 40
0
 40
0
 40
0
 40
0
 40
1
 40
1
 40
1
 40
1
 10
1.869889
 20
4.282639
 30
0.0
 10
1.869889
 20
4.284990
 30
0.0
 10
1.870341
 20
4.287205
 30
0.0
 10
1.871246
 20
4.289285
 30
0.0
  0
SPLINE
  5
1e8
100
AcDbEntity
  8
Layer_1
 62
3
100
AcDbSpline
 70
8
 71
3
 72
8
 73
4
 74
0
 40
0
 40
0
 40
0
 40
0
 40
1
 40
1
 40
1
 40
1
 10
1.871246
 20
4.289285
 30
0.0
 10
1.872240
 20
4.291365
 30
0.0
 10
1.873506
 20
4.293173
 30
0.0
 10
1.875043
 20
4.294710
 30
0.0
  0
SPLINE
  5
1e9
100
AcDbEntity
  8
Layer_1
 62
3
100
AcDbSpline
 70
8
 71
3
 72
8
 73
4
 74
0
 40
0
 40
0
 40
0
 40
0
 40
1
 40
1
 40
1
 40
1
 10
1.875043
 20
4.294710
 30
0.0
 10
1.876671
 20
4.296338
 30
0.0
 10
1.878525
 20
4.297604
 30
0.0
 10
1.880604
 20
4.298508
 30
0.0
  0
SPLINE
  5
1ea
100
AcDbEntity
  8
Layer_1
 62
3
100
AcDbSpline
 70
8
 71
3
 72
8
 73
4
 74
0
 40
0
 40
0
 40
0
 40
0
 40
1
 40
1
 40
1
 40
1
 10
1.880604
 20
4.298508
 30
0.0
 10
1.882684
 20
4.299503
 30
0.0
 10
1.884899
 20
4.300000
 30
0.0
 10
1.887250
 20
4.300000
 30
0.0
  0
LINE
  5
1eb
100
AcDbEntity
  8
Layer_1
 62
3
100
AcDbLine
 10
1.887250
 20
4.300000
 30
0.0
 11
2.060861
 21
4.300000
 31
0.0
  0
SPLINE
  5
1ec
100
AcDbEntity
  8
Layer_1
 62
3
100
AcDbSpline
 70
8
 71
3
 72
8
 73
4
 74
0
 40
0
 40
0
 40
0
 40
0
 40
1
 40
1
 40
1
 40
1
 10
2.060861
 20
4.300000
 30
0.0
 10
2.063212
 20
4.300000
 30
0.0
 10
2.065428
 20
4.299503
 30
0.0
 10
2.067507
 20
4.298508
 30
0.0
  0
SPLINE
  5
1ed
100
AcDbEntity
  8
Layer_1
 62
3
100
AcDbSpline
 70
8
 71
3
 72
8
 73
4
 74
0
 40
0
 40
0
 40
0
 40
0
 40
1
 40
1
 40
1
 40
1
 10
2.067507
 20
4.298508
 30
0.0
 10
2.069587
 20
4.297604
 30
0.0
 10
2.071396
 20
4.296338
 30
0.0
 10
2.072933
 20
4.294710
 30
0.0
  0
SPLINE
  5
1ee
100
AcDbEntity
  8
Layer_1
 62
3
100
AcDbSpline
 70
8
 71
3
 72
8
 73
4
 74
0
 40
0
 40
0
 40
0
 40
0
 40
1
 40
1
 40
1
 40
1
 10
2.072933
 20
4.294710
 30
0.0
 10
2.074561
 20
4.293173
 30
0.0
 10
2.075827
 20
4.291365
 30
0.0
 10
2.076731
 20
4.289285
 30
0.0
  0
SPLINE
  5
1ef
100
AcDbEntity
  8
Layer_1
 62
3
100
AcDbSpline
 70
8
 71
3
 72
8
 73
4
 74
0
 40
0
 40
0
 40
0
 40
0
 40
1
 40
1
 40
1
 40
1
 10
2.076731
 20
4.289285
 30
0.0
 10
2.077725
 20
4.287205
 30
0.0
 10
2.078222
 20
4.284990
 30
0.0
 10
2.078222
 20
4.282639
 30
0.0
  0
LINE
  5
1f0
100
AcDbEntity
  8
Layer_1
 62
3
100
AcDbLine
 10
2.078222
 20
4.282639
 30
0.0
 11
2.078222
 21
4.169792
 31
0.0
  0
SPLINE
  5
1f1
100
AcDbEntity
  8
Layer_1
 62
3
100
AcDbSpline
 70
8
 71
3
 72
8
 73
4
 74
0
 40
0
 40
0
 40
0
 40
0
 40
1
 40
1
 40
1
 40
1
 10
2.078222
 20
4.169792
 30
0.0
 10
2.078222
 20
4.167441
 30
0.0
 10
2.077409
 20
4.165406
 30
0.0
 10
2.075781
 20
4.163688
 30
0.0
  0
SPLINE
  5
1f2
100
AcDbEntity
  8
Layer_1
 62
3
100
AcDbSpline
 70
8
 71
3
 72
8
 73
4
 74
0
 40
0
 40
0
 40
0
 40
0
 40
1
 40
1
 40
1
 40
1
 10
2.075781
 20
4.163688
 30
0.0
 10
2.074154
 20
4.161970
 30
0.0
 10
2.072074
 20
4.161111
 30
0.0
 10
2.069542
 20
4.161111
 30
0.0
  0
LINE
  5
1f3
100
AcDbEntity
  8
Layer_1
 62
3
100
AcDbLine
 10
2.069542
 20
4.161111
 30
0.0
 11
2.052181
 21
4.161111
 31
0.0
  0
SPLINE
  5
1f4
100
AcDbEntity
  8
Layer_1
 62
3
100
AcDbSpline
 70
8
 71
3
 72
8
 73
4
 74
0
 40
0
 40
0
 40
0
 40
0
 40
1
 40
1
 40
1
 40
1
 10
2.052181
 20
4.161111
 30
0.0
 10
2.049649
 20
4.161111
 30
0.0
 10
2.047569
 20
4.161925
 30
0.0
 10
2.045942
 20
4.163552
 30
0.0
  0
SPLINE
  5
1f5
100
AcDbEntity
  8
Layer_1
 62
3
100
AcDbSpline
 70
8
 71
3
 72
8
 73
4
 74
0
 40
0
 40
0
 40
0
 40
0
 40
1
 40
1
 40
1
 40
1
 10
2.045942
 20
4.163552
 30
0.0
 10
2.044314
 20
4.165180
 30
0.0
 10
2.043500
 20
4.167260
 30
0.0
 10
2.043500
 20
4.169792
 30
0.0
  0
LINE
  5
1f6
100
AcDbEntity
  8
Layer_1
 62
3
100
AcDbLine
 10
2.043500
 20
4.169792
 30
0.0
 11
2.043500
 21
4.256597
 31
0.0
  0
SPLINE
  5
1f7
100
AcDbEntity
  8
Layer_1
 62
3
100
AcDbSpline
 70
8
 71
3
 72
8
 73
4
 74
0
 40
0
 40
0
 40
0
 40
0
 40
1
 40
1
 40
1
 40
1
 10
2.043500
 20
4.256597
 30
0.0
 10
2.043500
 20
4.258948
 30
0.0
 10
2.042641
 20
4.260983
 30
0.0
 10
2.040923
 20
4.262701
 30
0.0
  0
SPLINE
  5
1f8
100
AcDbEntity
  8
Layer_1
 62
3
100
AcDbSpline
 70
8
 71
3
 72
8
 73
4
 74
0
 40
0
 40
0
 40
0
 40
0
 40
1
 40
1
 40
1
 40
1
 10
2.040923
 20
4.262701
 30
0.0
 10
2.039205
 20
4.264419
 30
0.0
 10
2.037171
 20
4.265278
 30
0.0
 10
2.034820
 20
4.265278
 30
0.0
  0
LINE
  5
1f9
100
AcDbEntity
  8
Layer_1
 62
3
100
AcDbLine
 10
2.034820
 20
4.265278
 30
0.0
 11
1.913292
 21
4.265278
 31
0.0
  0
SPLINE
  5
1fa
100
AcDbEntity
  8
Layer_1
 62
3
100
AcDbSpline
 70
8
 71
3
 72
8
 73
4
 74
0
 40
0
 40
0
 40
0
 40
0
 40
1
 40
1
 40
1
 40
1
 10
1.913292
 20
4.265278
 30
0.0
 10
1.910941
 20
4.265278
 30
0.0
 10
1.908907
 20
4.264464
 30
0.0
 10
1.907189
 20
4.262836
 30
0.0
  0
SPLINE
  5
1fb
100
AcDbEntity
  8
Layer_1
 62
3
100
AcDbSpline
 70
8
 71
3
 72
8
 73
4
 74
0
 40
0
 40
0
 40
0
 40
0
 40
1
 40
1
 40
1
 40
1
 10
1.907189
 20
4.262836
 30
0.0
 10
1.905470
 20
4.261209
 30
0.0
 10
1.904611
 20
4.259129
 30
0.0
 10
1.904611
 20
4.256597
 30
0.0
  0
LINE
  5
1fc
100
AcDbEntity
  8
Layer_1
 62
3
100
AcDbLine
 10
1.904611
 20
4.256597
 30
0.0
 11
1.904611
 21
4.065625
 31
0.0
  0
SPLINE
  5
1fd
100
AcDbEntity
  8
Layer_1
 62
3
100
AcDbSpline
 70
8
 71
3
 72
8
 73
4
 74
0
 40
0
 40
0
 40
0
 40
0
 40
1
 40
1
 40
1
 40
1
 10
1.904611
 20
4.065625
 30
0.0
 10
1.904611
 20
4.063274
 30
0.0
 10
1.903798
 20
4.061239
 30
0.0
 10
1.902170
 20
4.059521
 30
0.0
  0
SPLINE
  5
1fe
100
AcDbEntity
  8
Layer_1
 62
3
100
AcDbSpline
 70
8
 71
3
 72
8
 73
4
 74
0
 40
0
 40
0
 40
0
 40
0
 40
1
 40
1
 40
1
 40
1
 10
1.902170
 20
4.059521
 30
0.0
 10
1.900543
 20
4.057803
 30
0.0
 10
1.898463
 20
4.056944
 30
0.0
 10
1.895931
 20
4.056944
 30
0.0
  0
LINE
  5
1ff
100
AcDbEntity
  8
Layer_1
 62
3
100
AcDbLine
 10
1.895931
 20
4.056944
 30
0.0
 11
1.878570
 21
4.056944
 31
0.0
  0
SPLINE
  5
200
100
AcDbEntity
  8
Layer_1
 62
3
100
AcDbSpline
 70
8
 71
3
 72
8
 73
4
 74
0
 40
0
 40
0
 40
0
 40
0
 40
1
 40
1
 40
1
 40
1
 10
2.558876
 20
4.056944
 30
0.0
 10
2.556344
 20
4.056944
 30
0.0
 10
2.554264
 20
4.057758
 30
0.0
 10
2.552636
 20
4.059386
 30
0.0
  0
SPLINE
  5
201
100
AcDbEntity
  8
Layer_1
 62
3
100
AcDbSpline
 70
8
 71
3
 72
8
 73
4
 74
0
 40
0
 40
0
 40
0
 40
0
 40
1
 40
1
 40
1
 40
1
 10
2.552636
 20
4.059386
 30
0.0
 10
2.551009
 20
4.061013
 30
0.0
 10
2.550195
 20
4.063093
 30
0.0
 10
2.550195
 20
4.065625
 30
0.0
  0
LINE
  5
202
100
AcDbEntity
  8
Layer_1
 62
3
100
AcDbLine
 10
2.550195
 20
4.065625
 30
0.0
 11
2.550195
 21
4.082986
 31
0.0
  0
SPLINE
  5
203
100
AcDbEntity
  8
Layer_1
 62
3
100
AcDbSpline
 70
8
 71
3
 72
8
 73
4
 74
0
 40
0
 40
0
 40
0
 40
0
 40
1
 40
1
 40
1
 40
1
 10
2.550195
 20
4.082986
 30
0.0
 10
2.550195
 20
4.085518
 30
0.0
 10
2.551054
 20
4.087598
 30
0.0
 10
2.552772
 20
4.089225
 30
0.0
  0
SPLINE
  5
204
100
AcDbEntity
  8
Layer_1
 62
3
100
AcDbSpline
 70
8
 71
3
 72
8
 73
4
 74
0
 40
0
 40
0
 40
0
 40
0
 40
1
 40
1
 40
1
 40
1
 10
2.552772
 20
4.089225
 30
0.0
 10
2.554490
 20
4.090853
 30
0.0
 10
2.556524
 20
4.091667
 30
0.0
 10
2.558876
 20
4.091667
 30
0.0
  0
LINE
  5
205
100
AcDbEntity
  8
Layer_1
 62
3
100
AcDbLine
 10
2.558876
 20
4.091667
 30
0.0
 11
2.715126
 21
4.091667
 31
0.0
  0
SPLINE
  5
206
100
AcDbEntity
  8
Layer_1
 62
3
100
AcDbSpline
 70
8
 71
3
 72
8
 73
4
 74
0
 40
0
 40
0
 40
0
 40
0
 40
1
 40
1
 40
1
 40
1
 10
2.715126
 20
4.091667
 30
0.0
 10
2.717657
 20
4.091667
 30
0.0
 10
2.719737
 20
4.092526
 30
0.0
 10
2.721365
 20
4.094244
 30
0.0
  0
SPLINE
  5
207
100
AcDbEntity
  8
Layer_1
 62
3
100
AcDbSpline
 70
8
 71
3
 72
8
 73
4
 74
0
 40
0
 40
0
 40
0
 40
0
 40
1
 40
1
 40
1
 40
1
 10
2.721365
 20
4.094244
 30
0.0
 10
2.722992
 20
4.095962
 30
0.0
 10
2.723806
 20
4.097996
 30
0.0
 10
2.723806
 20
4.100347
 30
0.0
  0
LINE
  5
208
100
AcDbEntity
  8
Layer_1
 62
3
100
AcDbLine
 10
2.723806
 20
4.100347
 30
0.0
 11
2.723806
 21
4.117708
 31
0.0
  0
SPLINE
  5
209
100
AcDbEntity
  8
Layer_1
 62
3
100
AcDbSpline
 70
8
 71
3
 72
8
 73
4
 74
0
 40
0
 40
0
 40
0
 40
0
 40
1
 40
1
 40
1
 40
1
 10
2.723806
 20
4.117708
 30
0.0
 10
2.723806
 20
4.120059
 30
0.0
 10
2.722947
 20
4.122094
 30
0.0
 10
2.721229
 20
4.123812
 30
0.0
  0
SPLINE
  5
20a
100
AcDbEntity
  8
Layer_1
 62
3
100
AcDbSpline
 70
8
 71
3
 72
8
 73
4
 74
0
 40
0
 40
0
 40
0
 40
0
 40
1
 40
1
 40
1
 40
1
 10
2.721229
 20
4.123812
 30
0.0
 10
2.719511
 20
4.125530
 30
0.0
 10
2.717477
 20
4.126389
 30
0.0
 10
2.715126
 20
4.126389
 30
0.0
  0
LINE
  5
20b
100
AcDbEntity
  8
Layer_1
 62
3
100
AcDbLine
 10
2.715126
 20
4.126389
 30
0.0
 11
2.602278
 21
4.126389
 31
0.0
  0
SPLINE
  5
20c
100
AcDbEntity
  8
Layer_1
 62
3
100
AcDbSpline
 70
8
 71
3
 72
8
 73
4
 74
0
 40
0
 40
0
 40
0
 40
0
 40
1
 40
1
 40
1
 40
1
 10
2.602278
 20
4.126389
 30
0.0
 10
2.599837
 20
4.126389
 30
0.0
 10
2.597531
 20
4.126841
 30
0.0
 10
2.595361
 20
4.127745
 30
0.0
  0
SPLINE
  5
20d
100
AcDbEntity
  8
Layer_1
 62
3
100
AcDbSpline
 70
8
 71
3
 72
8
 73
4
 74
0
 40
0
 40
0
 40
0
 40
0
 40
1
 40
1
 40
1
 40
1
 10
2.595361
 20
4.127745
 30
0.0
 10
2.593281
 20
4.128649
 30
0.0
 10
2.591473
 20
4.129870
 30
0.0
 10
2.589935
 20
4.131407
 30
0.0
  0
SPLINE
  5
20e
100
AcDbEntity
  8
Layer_1
 62
3
100
AcDbSpline
 70
8
 71
3
 72
8
 73
4
 74
0
 40
0
 40
0
 40
0
 40
0
 40
1
 40
1
 40
1
 40
1
 10
2.589935
 20
4.131407
 30
0.0
 10
2.588398
 20
4.132944
 30
0.0
 10
2.587178
 20
4.134753
 30
0.0
 10
2.586274
 20
4.136833
 30
0.0
  0
SPLINE
  5
20f
100
AcDbEntity
  8
Layer_1
 62
3
100
AcDbSpline
 70
8
 71
3
 72
8
 73
4
 74
0
 40
0
 40
0
 40
0
 40
0
 40
1
 40
1
 40
1
 40
1
 10
2.586274
 20
4.136833
 30
0.0
 10
2.585369
 20
4.139003
 30
0.0
 10
2.584917
 20
4.141309
 30
0.0
 10
2.584917
 20
4.143750
 30
0.0
  0
LINE
  5
210
100
AcDbEntity
  8
Layer_1
 62
3
100
AcDbLine
 10
2.584917
 20
4.143750
 30
0.0
 11
2.584917
 21
4.213194
 31
0.0
  0
SPLINE
  5
211
100
AcDbEntity
  8
Layer_1
 62
3
100
AcDbSpline
 70
8
 71
3
 72
8
 73
4
 74
0
 40
0
 40
0
 40
0
 40
0
 40
1
 40
1
 40
1
 40
1
 10
2.584917
 20
4.213194
 30
0.0
 10
2.584917
 20
4.215545
 30
0.0
 10
2.585369
 20
4.217761
 30
0.0
 10
2.586274
 20
4.219840
 30
0.0
  0
SPLINE
  5
212
100
AcDbEntity
  8
Layer_1
 62
3
100
AcDbSpline
 70
8
 71
3
 72
8
 73
4
 74
0
 40
0
 40
0
 40
0
 40
0
 40
1
 40
1
 40
1
 40
1
 10
2.586274
 20
4.219840
 30
0.0
 10
2.587268
 20
4.221920
 30
0.0
 10
2.588534
 20
4.223729
 30
0.0
 10
2.590071
 20
4.225266
 30
0.0
  0
SPLINE
  5
213
100
AcDbEntity
  8
Layer_1
 62
3
100
AcDbSpline
 70
8
 71
3
 72
8
 73
4
 74
0
 40
0
 40
0
 40
0
 40
0
 40
1
 40
1
 40
1
 40
1
 10
2.590071
 20
4.225266
 30
0.0
 10
2.591699
 20
4.226893
 30
0.0
 10
2.593552
 20
4.228159
 30
0.0
 10
2.595632
 20
4.229064
 30
0.0
  0
SPLINE
  5
214
100
AcDbEntity
  8
Layer_1
 62
3
100
AcDbSpline
 70
8
 71
3
 72
8
 73
4
 74
0
 40
0
 40
0
 40
0
 40
0
 40
1
 40
1
 40
1
 40
1
 10
2.595632
 20
4.229064
 30
0.0
 10
2.597712
 20
4.230058
 30
0.0
 10
2.599927
 20
4.230555
 30
0.0
 10
2.602278
 20
4.230555
 30
0.0
  0
LINE
  5
215
100
AcDbEntity
  8
Layer_1
 62
3
100
AcDbLine
 10
2.602278
 20
4.230555
 30
0.0
 11
2.715126
 21
4.230555
 31
0.0
  0
SPLINE
  5
216
100
AcDbEntity
  8
Layer_1
 62
3
100
AcDbSpline
 70
8
 71
3
 72
8
 73
4
 74
0
 40
0
 40
0
 40
0
 40
0
 40
1
 40
1
 40
1
 40
1
 10
2.715126
 20
4.230555
 30
0.0
 10
2.717657
 20
4.230555
 30
0.0
 10
2.719737
 20
4.231414
 30
0.0
 10
2.721365
 20
4.233133
 30
0.0
  0
SPLINE
  5
217
100
AcDbEntity
  8
Layer_1
 62
3
100
AcDbSpline
 70
8
 71
3
 72
8
 73
4
 74
0
 40
0
 40
0
 40
0
 40
0
 40
1
 40
1
 40
1
 40
1
 10
2.721365
 20
4.233133
 30
0.0
 10
2.722992
 20
4.234851
 30
0.0
 10
2.723806
 20
4.236885
 30
0.0
 10
2.723806
 20
4.239236
 30
0.0
  0
LINE
  5
218
100
AcDbEntity
  8
Layer_1
 62
3
100
AcDbLine
 10
2.723806
 20
4.239236
 30
0.0
 11
2.723806
 21
4.256597
 31
0.0
  0
SPLINE
  5
219
100
AcDbEntity
  8
Layer_1
 62
3
100
AcDbSpline
 70
8
 71
3
 72
8
 73
4
 74
0
 40
0
 40
0
 40
0
 40
0
 40
1
 40
1
 40
1
 40
1
 10
2.723806
 20
4.256597
 30
0.0
 10
2.723806
 20
4.258948
 30
0.0
 10
2.722947
 20
4.260983
 30
0.0
 10
2.721229
 20
4.262701
 30
0.0
  0
SPLINE
  5
21a
100
AcDbEntity
  8
Layer_1
 62
3
100
AcDbSpline
 70
8
 71
3
 72
8
 73
4
 74
0
 40
0
 40
0
 40
0
 40
0
 40
1
 40
1
 40
1
 40
1
 10
2.721229
 20
4.262701
 30
0.0
 10
2.719511
 20
4.264419
 30
0.0
 10
2.717477
 20
4.265278
 30
0.0
 10
2.715126
 20
4.265278
 30
0.0
  0
LINE
  5
21b
100
AcDbEntity
  8
Layer_1
 62
3
100
AcDbLine
 10
2.715126
 20
4.265278
 30
0.0
 11
2.558876
 21
4.265278
 31
0.0
  0
SPLINE
  5
21c
100
AcDbEntity
  8
Layer_1
 62
3
100
AcDbSpline
 70
8
 71
3
 72
8
 73
4
 74
0
 40
0
 40
0
 40
0
 40
0
 40
1
 40
1
 40
1
 40
1
 10
2.558876
 20
4.265278
 30
0.0
 10
2.556344
 20
4.265278
 30
0.0
 10
2.554264
 20
4.266091
 30
0.0
 10
2.552636
 20
4.267719
 30
0.0
  0
SPLINE
  5
21d
100
AcDbEntity
  8
Layer_1
 62
3
100
AcDbSpline
 70
8
 71
3
 72
8
 73
4
 74
0
 40
0
 40
0
 40
0
 40
0
 40
1
 40
1
 40
1
 40
1
 10
2.552636
 20
4.267719
 30
0.0
 10
2.551009
 20
4.269347
 30
0.0
 10
2.550195
 20
4.271426
 30
0.0
 10
2.550195
 20
4.273958
 30
0.0
  0
LINE
  5
21e
100
AcDbEntity
  8
Layer_1
 62
3
100
AcDbLine
 10
2.550195
 20
4.273958
 30
0.0
 11
2.550195
 21
4.291319
 31
0.0
  0
SPLINE
  5
21f
100
AcDbEntity
  8
Layer_1
 62
3
100
AcDbSpline
 70
8
 71
3
 72
8
 73
4
 74
0
 40
0
 40
0
 40
0
 40
0
 40
1
 40
1
 40
1
 40
1
 10
2.550195
 20
4.291319
 30
0.0
 10
2.550195
 20
4.293851
 30
0.0
 10
2.551054
 20
4.295931
 30
0.0
 10
2.552772
 20
4.297559
 30
0.0
  0
SPLINE
  5
220
100
AcDbEntity
  8
Layer_1
 62
3
100
AcDbSpline
 70
8
 71
3
 72
8
 73
4
 74
0
 40
0
 40
0
 40
0
 40
0
 40
1
 40
1
 40
1
 40
1
 10
2.552772
 20
4.297559
 30
0.0
 10
2.554490
 20
4.299186
 30
0.0
 10
2.556524
 20
4.300000
 30
0.0
 10
2.558876
 20
4.300000
 30
0.0
  0
LINE
  5
221
100
AcDbEntity
  8
Layer_1
 62
3
100
AcDbLine
 10
2.558876
 20
4.300000
 30
0.0
 11
2.741167
 21
4.300000
 31
0.0
  0
SPLINE
  5
222
100
AcDbEntity
  8
Layer_1
 62
3
100
AcDbSpline
 70
8
 71
3
 72
8
 73
4
 74
0
 40
0
 40
0
 40
0
 40
0
 40
1
 40
1
 40
1
 40
1
 10
2.741167
 20
4.300000
 30
0.0
 10
2.743518
 20
4.300000
 30
0.0
 10
2.745733
 20
4.299503
 30
0.0
 10
2.747813
 20
4.298508
 30
0.0
  0
SPLINE
  5
223
100
AcDbEntity
  8
Layer_1
 62
3
100
AcDbSpline
 70
8
 71
3
 72
8
 73
4
 74
0
 40
0
 40
0
 40
0
 40
0
 40
1
 40
1
 40
1
 40
1
 10
2.747813
 20
4.298508
 30
0.0
 10
2.749893
 20
4.297604
 30
0.0
 10
2.751701
 20
4.296338
 30
0.0
 10
2.753239
 20
4.294710
 30
0.0
  0
SPLINE
  5
224
100
AcDbEntity
  8
Layer_1
 62
3
100
AcDbSpline
 70
8
 71
3
 72
8
 73
4
 74
0
 40
0
 40
0
 40
0
 40
0
 40
1
 40
1
 40
1
 40
1
 10
2.753239
 20
4.294710
 30
0.0
 10
2.754866
 20
4.293173
 30
0.0
 10
2.756132
 20
4.291365
 30
0.0
 10
2.757036
 20
4.289285
 30
0.0
  0
SPLINE
  5
225
100
AcDbEntity
  8
Layer_1
 62
3
100
AcDbSpline
 70
8
 71
3
 72
8
 73
4
 74
0
 40
0
 40
0
 40
0
 40
0
 40
1
 40
1
 40
1
 40
1
 10
2.757036
 20
4.289285
 30
0.0
 10
2.758031
 20
4.287205
 30
0.0
 10
2.758528
 20
4.284990
 30
0.0
 10
2.758528
 20
4.282639
 30
0.0
  0
LINE
  5
226
100
AcDbEntity
  8
Layer_1
 62
3
100
AcDbLine
 10
2.758528
 20
4.282639
 30
0.0
 11
2.758528
 21
4.213194
 31
0.0
  0
SPLINE
  5
227
100
AcDbEntity
  8
Layer_1
 62
3
100
AcDbSpline
 70
8
 71
3
 72
8
 73
4
 74
0
 40
0
 40
0
 40
0
 40
0
 40
1
 40
1
 40
1
 40
1
 10
2.758528
 20
4.213194
 30
0.0
 10
2.758528
 20
4.210843
 30
0.0
 10
2.758031
 20
4.208628
 30
0.0
 10
2.757036
 20
4.206548
 30
0.0
  0
SPLINE
  5
228
100
AcDbEntity
  8
Layer_1
 62
3
100
AcDbSpline
 70
8
 71
3
 72
8
 73
4
 74
0
 40
0
 40
0
 40
0
 40
0
 40
1
 40
1
 40
1
 40
1
 10
2.757036
 20
4.206548
 30
0.0
 10
2.756132
 20
4.204469
 30
0.0
 10
2.754866
 20
4.202615
 30
0.0
 10
2.753239
 20
4.200987
 30
0.0
  0
SPLINE
  5
229
100
AcDbEntity
  8
Layer_1
 62
3
100
AcDbSpline
 70
8
 71
3
 72
8
 73
4
 74
0
 40
0
 40
0
 40
0
 40
0
 40
1
 40
1
 40
1
 40
1
 10
2.753239
 20
4.200987
 30
0.0
 10
2.751701
 20
4.199450
 30
0.0
 10
2.749893
 20
4.198184
 30
0.0
 10
2.747813
 20
4.197190
 30
0.0
  0
SPLINE
  5
22a
100
AcDbEntity
  8
Layer_1
 62
3
100
AcDbSpline
 70
8
 71
3
 72
8
 73
4
 74
0
 40
0
 40
0
 40
0
 40
0
 40
1
 40
1
 40
1
 40
1
 10
2.747813
 20
4.197190
 30
0.0
 10
2.745733
 20
4.196285
 30
0.0
 10
2.743518
 20
4.195833
 30
0.0
 10
2.741167
 20
4.195833
 30
0.0
  0
LINE
  5
22b
100
AcDbEntity
  8
Layer_1
 62
3
100
AcDbLine
 10
2.741167
 20
4.195833
 30
0.0
 11
2.628320
 21
4.195833
 31
0.0
  0
SPLINE
  5
22c
100
AcDbEntity
  8
Layer_1
 62
3
100
AcDbSpline
 70
8
 71
3
 72
8
 73
4
 74
0
 40
0
 40
0
 40
0
 40
0
 40
1
 40
1
 40
1
 40
1
 10
2.628320
 20
4.195833
 30
0.0
 10
2.625969
 20
4.195833
 30
0.0
 10
2.623934
 20
4.195019
 30
0.0
 10
2.622217
 20
4.193392
 30
0.0
  0
SPLINE
  5
22d
100
AcDbEntity
  8
Layer_1
 62
3
100
AcDbSpline
 70
8
 71
3
 72
8
 73
4
 74
0
 40
0
 40
0
 40
0
 40
0
 40
1
 40
1
 40
1
 40
1
 10
2.622217
 20
4.193392
 30
0.0
 10
2.620498
 20
4.191764
 30
0.0
 10
2.619639
 20
4.189685
 30
0.0
 10
2.619639
 20
4.187153
 30
0.0
  0
LINE
  5
22e
100
AcDbEntity
  8
Layer_1
 62
3
100
AcDbLine
 10
2.619639
 20
4.187153
 30
0.0
 11
2.619639
 21
4.169792
 31
0.0
  0
SPLINE
  5
22f
100
AcDbEntity
  8
Layer_1
 62
3
100
AcDbSpline
 70
8
 71
3
 72
8
 73
4
 74
0
 40
0
 40
0
 40
0
 40
0
 40
1
 40
1
 40
1
 40
1
 10
2.619639
 20
4.169792
 30
0.0
 10
2.619639
 20
4.167260
 30
0.0
 10
2.620453
 20
4.165180
 30
0.0
 10
2.622081
 20
4.163552
 30
0.0
  0
SPLINE
  5
230
100
AcDbEntity
  8
Layer_1
 62
3
100
AcDbSpline
 70
8
 71
3
 72
8
 73
4
 74
0
 40
0
 40
0
 40
0
 40
0
 40
1
 40
1
 40
1
 40
1
 10
2.622081
 20
4.163552
 30
0.0
 10
2.623708
 20
4.161925
 30
0.0
 10
2.625788
 20
4.161111
 30
0.0
 10
2.628320
 20
4.161111
 30
0.0
  0
LINE
  5
231
100
AcDbEntity
  8
Layer_1
 62
3
100
AcDbLine
 10
2.628320
 20
4.161111
 30
0.0
 11
2.741167
 21
4.161111
 31
0.0
  0
SPLINE
  5
232
100
AcDbEntity
  8
Layer_1
 62
3
100
AcDbSpline
 70
8
 71
3
 72
8
 73
4
 74
0
 40
0
 40
0
 40
0
 40
0
 40
1
 40
1
 40
1
 40
1
 10
2.741167
 20
4.161111
 30
0.0
 10
2.743518
 20
4.161111
 30
0.0
 10
2.745733
 20
4.160614
 30
0.0
 10
2.747813
 20
4.159619
 30
0.0
  0
SPLINE
  5
233
100
AcDbEntity
  8
Layer_1
 62
3
100
AcDbSpline
 70
8
 71
3
 72
8
 73
4
 74
0
 40
0
 40
0
 40
0
 40
0
 40
1
 40
1
 40
1
 40
1
 10
2.747813
 20
4.159619
 30
0.0
 10
2.749893
 20
4.158715
 30
0.0
 10
2.751701
 20
4.157449
 30
0.0
 10
2.753239
 20
4.155821
 30
0.0
  0
SPLINE
  5
234
100
AcDbEntity
  8
Layer_1
 62
3
100
AcDbSpline
 70
8
 71
3
 72
8
 73
4
 74
0
 40
0
 40
0
 40
0
 40
0
 40
1
 40
1
 40
1
 40
1
 10
2.753239
 20
4.155821
 30
0.0
 10
2.754866
 20
4.154284
 30
0.0
 10
2.756132
 20
4.152476
 30
0.0
 10
2.757036
 20
4.150396
 30
0.0
  0
SPLINE
  5
235
100
AcDbEntity
  8
Layer_1
 62
3
100
AcDbSpline
 70
8
 71
3
 72
8
 73
4
 74
0
 40
0
 40
0
 40
0
 40
0
 40
1
 40
1
 40
1
 40
1
 10
2.757036
 20
4.150396
 30
0.0
 10
2.758031
 20
4.148316
 30
0.0
 10
2.758528
 20
4.146101
 30
0.0
 10
2.758528
 20
4.143750
 30
0.0
  0
LINE
  5
236
100
AcDbEntity
  8
Layer_1
 62
3
100
AcDbLine
 10
2.758528
 20
4.143750
 30
0.0
 11
2.758528
 21
4.074305
 31
0.0
  0
SPLINE
  5
237
100
AcDbEntity
  8
Layer_1
 62
3
100
AcDbSpline
 70
8
 71
3
 72
8
 73
4
 74
0
 40
0
 40
0
 40
0
 40
0
 40
1
 40
1
 40
1
 40
1
 10
2.758528
 20
4.074305
 30
0.0
 10
2.758528
 20
4.071954
 30
0.0
 10
2.758031
 20
4.069739
 30
0.0
 10
2.757036
 20
4.067659
 30
0.0
  0
SPLINE
  5
238
100
AcDbEntity
  8
Layer_1
 62
3
100
AcDbSpline
 70
8
 71
3
 72
8
 73
4
 74
0
 40
0
 40
0
 40
0
 40
0
 40
1
 40
1
 40
1
 40
1
 10
2.757036
 20
4.067659
 30
0.0
 10
2.756132
 20
4.065580
 30
0.0
 10
2.754866
 20
4.063726
 30
0.0
 10
2.753239
 20
4.062098
 30
0.0
  0
SPLINE
  5
239
100
AcDbEntity
  8
Layer_1
 62
3
100
AcDbSpline
 70
8
 71
3
 72
8
 73
4
 74
0
 40
0
 40
0
 40
0
 40
0
 40
1
 40
1
 40
1
 40
1
 10
2.753239
 20
4.062098
 30
0.0
 10
2.751701
 20
4.060561
 30
0.0
 10
2.749893
 20
4.059295
 30
0.0
 10
2.747813
 20
4.058301
 30
0.0
  0
SPLINE
  5
23a
100
AcDbEntity
  8
Layer_1
 62
3
100
AcDbSpline
 70
8
 71
3
 72
8
 73
4
 74
0
 40
0
 40
0
 40
0
 40
0
 40
1
 40
1
 40
1
 40
1
 10
2.747813
 20
4.058301
 30
0.0
 10
2.745733
 20
4.057396
 30
0.0
 10
2.743518
 20
4.056944
 30
0.0
 10
2.741167
 20
4.056944
 30
0.0
  0
LINE
  5
23b
100
AcDbEntity
  8
Layer_1
 62
3
100
AcDbLine
 10
2.741167
 20
4.056944
 30
0.0
 11
2.558876
 21
4.056944
 31
0.0
  0
SPLINE
  5
23c
100
AcDbEntity
  8
Layer_1
 62
3
100
AcDbSpline
 70
8
 71
3
 72
8
 73
4
 74
0
 40
0
 40
0
 40
0
 40
0
 40
1
 40
1
 40
1
 40
1
 10
3.247861
 20
4.056944
 30
0.0
 10
3.245420
 20
4.056944
 30
0.0
 10
3.243114
 20
4.057396
 30
0.0
 10
3.240944
 20
4.058301
 30
0.0
  0
SPLINE
  5
23d
100
AcDbEntity
  8
Layer_1
 62
3
100
AcDbSpline
 70
8
 71
3
 72
8
 73
4
 74
0
 40
0
 40
0
 40
0
 40
0
 40
1
 40
1
 40
1
 40
1
 10
3.240944
 20
4.058301
 30
0.0
 10
3.238864
 20
4.059205
 30
0.0
 10
3.237056
 20
4.060426
 30
0.0
 10
3.235519
 20
4.061963
 30
0.0
  0
SPLINE
  5
23e
100
AcDbEntity
  8
Layer_1
 62
3
100
AcDbSpline
 70
8
 71
3
 72
8
 73
4
 74
0
 40
0
 40
0
 40
0
 40
0
 40
1
 40
1
 40
1
 40
1
 10
3.235519
 20
4.061963
 30
0.0
 10
3.233982
 20
4.063500
 30
0.0
 10
3.232761
 20
4.065308
 30
0.0
 10
3.231857
 20
4.067388
 30
0.0
  0
SPLINE
  5
23f
100
AcDbEntity
  8
Layer_1
 62
3
100
AcDbSpline
 70
8
 71
3
 72
8
 73
4
 74
0
 40
0
 40
0
 40
0
 40
0
 40
1
 40
1
 40
1
 40
1
 10
3.231857
 20
4.067388
 30
0.0
 10
3.230952
 20
4.069558
 30
0.0
 10
3.230500
 20
4.071864
 30
0.0
 10
3.230500
 20
4.074305
 30
0.0
  0
LINE
  5
240
100
AcDbEntity
  8
Layer_1
 62
3
100
AcDbLine
 10
3.230500
 20
4.074305
 30
0.0
 11
3.230500
 21
4.291319
 31
0.0
  0
SPLINE
  5
241
100
AcDbEntity
  8
Layer_1
 62
3
100
AcDbSpline
 70
8
 71
3
 72
8
 73
4
 74
0
 40
0
 40
0
 40
0
 40
0
 40
1
 40
1
 40
1
 40
1
 10
3.230500
 20
4.291319
 30
0.0
 10
3.230500
 20
4.293851
 30
0.0
 10
3.231359
 20
4.295931
 30
0.0
 10
3.233078
 20
4.297559
 30
0.0
  0
SPLINE
  5
242
100
AcDbEntity
  8
Layer_1
 62
3
100
AcDbSpline
 70
8
 71
3
 72
8
 73
4
 74
0
 40
0
 40
0
 40
0
 40
0
 40
1
 40
1
 40
1
 40
1
 10
3.233078
 20
4.297559
 30
0.0
 10
3.234795
 20
4.299186
 30
0.0
 10
3.236830
 20
4.300000
 30
0.0
 10
3.239181
 20
4.300000
 30
0.0
  0
LINE
  5
243
100
AcDbEntity
  8
Layer_1
 62
3
100
AcDbLine
 10
3.239181
 20
4.300000
 30
0.0
 11
3.256542
 21
4.300000
 31
0.0
  0
SPLINE
  5
244
100
AcDbEntity
  8
Layer_1
 62
3
100
AcDbSpline
 70
8
 71
3
 72
8
 73
4
 74
0
 40
0
 40
0
 40
0
 40
0
 40
1
 40
1
 40
1
 40
1
 10
3.256542
 20
4.300000
 30
0.0
 10
3.258893
 20
4.300000
 30
0.0
 10
3.260928
 20
4.299141
 30
0.0
 10
3.262646
 20
4.297423
 30
0.0
  0
SPLINE
  5
245
100
AcDbEntity
  8
Layer_1
 62
3
100
AcDbSpline
 70
8
 71
3
 72
8
 73
4
 74
0
 40
0
 40
0
 40
0
 40
0
 40
1
 40
1
 40
1
 40
1
 10
3.262646
 20
4.297423
 30
0.0
 10
3.264364
 20
4.295705
 30
0.0
 10
3.265222
 20
4.293670
 30
0.0
 10
3.265222
 20
4.291319
 30
0.0
  0
LINE
  5
246
100
AcDbEntity
  8
Layer_1
 62
3
100
AcDbLine
 10
3.265222
 20
4.291319
 30
0.0
 11
3.265222
 21
4.204514
 31
0.0
  0
SPLINE
  5
247
100
AcDbEntity
  8
Layer_1
 62
3
100
AcDbSpline
 70
8
 71
3
 72
8
 73
4
 74
0
 40
0
 40
0
 40
0
 40
0
 40
1
 40
1
 40
1
 40
1
 10
3.265222
 20
4.204514
 30
0.0
 10
3.265222
 20
4.201982
 30
0.0
 10
3.266036
 20
4.199902
 30
0.0
 10
3.267664
 20
4.198275
 30
0.0
  0
SPLINE
  5
248
100
AcDbEntity
  8
Layer_1
 62
3
100
AcDbSpline
 70
8
 71
3
 72
8
 73
4
 74
0
 40
0
 40
0
 40
0
 40
0
 40
1
 40
1
 40
1
 40
1
 10
3.267664
 20
4.198275
 30
0.0
 10
3.269292
 20
4.196647
 30
0.0
 10
3.271371
 20
4.195833
 30
0.0
 10
3.273903
 20
4.195833
 30
0.0
  0
LINE
  5
249
100
AcDbEntity
  8
Layer_1
 62
3
100
AcDbLine
 10
3.273903
 20
4.195833
 30
0.0
 11
3.308625
 21
4.195833
 31
0.0
  0
SPLINE
  5
24a
100
AcDbEntity
  8
Layer_1
 62
3
100
AcDbSpline
 70
8
 71
3
 72
8
 73
4
 74
0
 40
0
 40
0
 40
0
 40
0
 40
1
 40
1
 40
1
 40
1
 10
3.308625
 20
4.195833
 30
0.0
 10
3.311157
 20
4.195833
 30
0.0
 10
3.313237
 20
4.196692
 30
0.0
 10
3.314865
 20
4.198410
 30
0.0
  0
SPLINE
  5
24b
100
AcDbEntity
  8
Layer_1
 62
3
100
AcDbSpline
 70
8
 71
3
 72
8
 73
4
 74
0
 40
0
 40
0
 40
0
 40
0
 40
1
 40
1
 40
1
 40
1
 10
3.314865
 20
4.198410
 30
0.0
 10
3.316492
 20
4.200128
 30
0.0
 10
3.317306
 20
4.202163
 30
0.0
 10
3.317306
 20
4.204514
 30
0.0
  0
LINE
  5
24c
100
AcDbEntity
  8
Layer_1
 62
3
100
AcDbLine
 10
3.317306
 20
4.204514
 30
0.0
 11
3.317306
 21
4.291319
 31
0.0
  0
SPLINE
  5
24d
100
AcDbEntity
  8
Layer_1
 62
3
100
AcDbSpline
 70
8
 71
3
 72
8
 73
4
 74
0
 40
0
 40
0
 40
0
 40
0
 40
1
 40
1
 40
1
 40
1
 10
3.317306
 20
4.291319
 30
0.0
 10
3.317306
 20
4.293851
 30
0.0
 10
3.318165
 20
4.295931
 30
0.0
 10
3.319883
 20
4.297559
 30
0.0
  0
SPLINE
  5
24e
100
AcDbEntity
  8
Layer_1
 62
3
100
AcDbSpline
 70
8
 71
3
 72
8
 73
4
 74
0
 40
0
 40
0
 40
0
 40
0
 40
1
 40
1
 40
1
 40
1
 10
3.319883
 20
4.297559
 30
0.0
 10
3.321601
 20
4.299186
 30
0.0
 10
3.323635
 20
4.300000
 30
0.0
 10
3.325987
 20
4.300000
 30
0.0
  0
LINE
  5
24f
100
AcDbEntity
  8
Layer_1
 62
3
100
AcDbLine
 10
3.325987
 20
4.300000
 30
0.0
 11
3.343348
 21
4.300000
 31
0.0
  0
SPLINE
  5
250
100
AcDbEntity
  8
Layer_1
 62
3
100
AcDbSpline
 70
8
 71
3
 72
8
 73
4
 74
0
 40
0
 40
0
 40
0
 40
0
 40
1
 40
1
 40
1
 40
1
 10
3.343348
 20
4.300000
 30
0.0
 10
3.345699
 20
4.300000
 30
0.0
 10
3.347733
 20
4.299141
 30
0.0
 10
3.349451
 20
4.297423
 30
0.0
  0
SPLINE
  5
251
100
AcDbEntity
  8
Layer_1
 62
3
100
AcDbSpline
 70
8
 71
3
 72
8
 73
4
 74
0
 40
0
 40
0
 40
0
 40
0
 40
1
 40
1
 40
1
 40
1
 10
3.349451
 20
4.297423
 30
0.0
 10
3.351169
 20
4.295705
 30
0.0
 10
3.352028
 20
4.293670
 30
0.0
 10
3.352028
 20
4.291319
 30
0.0
  0
LINE
  5
252
100
AcDbEntity
  8
Layer_1
 62
3
100
AcDbLine
 10
3.352028
 20
4.291319
 30
0.0
 11
3.352028
 21
4.204514
 31
0.0
  0
SPLINE
  5
253
100
AcDbEntity
  8
Layer_1
 62
3
100
AcDbSpline
 70
8
 71
3
 72
8
 73
4
 74
0
 40
0
 40
0
 40
0
 40
0
 40
1
 40
1
 40
1
 40
1
 10
3.352028
 20
4.204514
 30
0.0
 10
3.352028
 20
4.201982
 30
0.0
 10
3.352842
 20
4.199902
 30
0.0
 10
3.354470
 20
4.198275
 30
0.0
  0
SPLINE
  5
254
100
AcDbEntity
  8
Layer_1
 62
3
100
AcDbSpline
 70
8
 71
3
 72
8
 73
4
 74
0
 40
0
 40
0
 40
0
 40
0
 40
1
 40
1
 40
1
 40
1
 10
3.354470
 20
4.198275
 30
0.0
 10
3.356097
 20
4.196647
 30
0.0
 10
3.358177
 20
4.195833
 30
0.0
 10
3.360709
 20
4.195833
 30
0.0
  0
LINE
  5
255
100
AcDbEntity
  8
Layer_1
 62
3
100
AcDbLine
 10
3.360709
 20
4.195833
 30
0.0
 11
3.395431
 21
4.195833
 31
0.0
  0
SPLINE
  5
256
100
AcDbEntity
  8
Layer_1
 62
3
100
AcDbSpline
 70
8
 71
3
 72
8
 73
4
 74
0
 40
0
 40
0
 40
0
 40
0
 40
1
 40
1
 40
1
 40
1
 10
3.395431
 20
4.195833
 30
0.0
 10
3.397963
 20
4.195833
 30
0.0
 10
3.400043
 20
4.196692
 30
0.0
 10
3.401670
 20
4.198410
 30
0.0
  0
SPLINE
  5
257
100
AcDbEntity
  8
Layer_1
 62
3
100
AcDbSpline
 70
8
 71
3
 72
8
 73
4
 74
0
 40
0
 40
0
 40
0
 40
0
 40
1
 40
1
 40
1
 40
1
 10
3.401670
 20
4.198410
 30
0.0
 10
3.403298
 20
4.200128
 30
0.0
 10
3.404111
 20
4.202163
 30
0.0
 10
3.404111
 20
4.204514
 30
0.0
  0
LINE
  5
258
100
AcDbEntity
  8
Layer_1
 62
3
100
AcDbLine
 10
3.404111
 20
4.204514
 30
0.0
 11
3.404111
 21
4.291319
 31
0.0
  0
SPLINE
  5
259
100
AcDbEntity
  8
Layer_1
 62
3
100
AcDbSpline
 70
8
 71
3
 72
8
 73
4
 74
0
 40
0
 40
0
 40
0
 40
0
 40
1
 40
1
 40
1
 40
1
 10
3.404111
 20
4.291319
 30
0.0
 10
3.404111
 20
4.293851
 30
0.0
 10
3.404970
 20
4.295931
 30
0.0
 10
3.406689
 20
4.297559
 30
0.0
  0
SPLINE
  5
25a
100
AcDbEntity
  8
Layer_1
 62
3
100
AcDbSpline
 70
8
 71
3
 72
8
 73
4
 74
0
 40
0
 40
0
 40
0
 40
0
 40
1
 40
1
 40
1
 40
1
 10
3.406689
 20
4.297559
 30
0.0
 10
3.408406
 20
4.299186
 30
0.0
 10
3.410441
 20
4.300000
 30
0.0
 10
3.412792
 20
4.300000
 30
0.0
  0
LINE
  5
25b
100
AcDbEntity
  8
Layer_1
 62
3
100
AcDbLine
 10
3.412792
 20
4.300000
 30
0.0
 11
3.430153
 21
4.300000
 31
0.0
  0
SPLINE
  5
25c
100
AcDbEntity
  8
Layer_1
 62
3
100
AcDbSpline
 70
8
 71
3
 72
8
 73
4
 74
0
 40
0
 40
0
 40
0
 40
0
 40
1
 40
1
 40
1
 40
1
 10
3.430153
 20
4.300000
 30
0.0
 10
3.432504
 20
4.300000
 30
0.0
 10
3.434539
 20
4.299141
 30
0.0
 10
3.436257
 20
4.297423
 30
0.0
  0
SPLINE
  5
25d
100
AcDbEntity
  8
Layer_1
 62
3
100
AcDbSpline
 70
8
 71
3
 72
8
 73
4
 74
0
 40
0
 40
0
 40
0
 40
0
 40
1
 40
1
 40
1
 40
1
 10
3.436257
 20
4.297423
 30
0.0
 10
3.437975
 20
4.295705
 30
0.0
 10
3.438833
 20
4.293670
 30
0.0
 10
3.438833
 20
4.291319
 30
0.0
  0
LINE
  5
25e
100
AcDbEntity
  8
Layer_1
 62
3
100
AcDbLine
 10
3.438833
 20
4.291319
 30
0.0
 11
3.438833
 21
4.178472
 31
0.0
  0
SPLINE
  5
25f
100
AcDbEntity
  8
Layer_1
 62
3
100
AcDbSpline
 70
8
 71
3
 72
8
 73
4
 74
0
 40
0
 40
0
 40
0
 40
0
 40
1
 40
1
 40
1
 40
1
 10
3.438833
 20
4.178472
 30
0.0
 10
3.438833
 20
4.176121
 30
0.0
 10
3.438336
 20
4.173906
 30
0.0
 10
3.437342
 20
4.171826
 30
0.0
  0
SPLINE
  5
260
100
AcDbEntity
  8
Layer_1
 62
3
100
AcDbSpline
 70
8
 71
3
 72
8
 73
4
 74
0
 40
0
 40
0
 40
0
 40
0
 40
1
 40
1
 40
1
 40
1
 10
3.437342
 20
4.171826
 30
0.0
 10
3.436438
 20
4.169746
 30
0.0
 10
3.435172
 20
4.167893
 30
0.0
 10
3.433544
 20
4.166265
 30
0.0
  0
SPLINE
  5
261
100
AcDbEntity
  8
Layer_1
 62
3
100
AcDbSpline
 70
8
 71
3
 72
8
 73
4
 74
0
 40
0
 40
0
 40
0
 40
0
 40
1
 40
1
 40
1
 40
1
 10
3.433544
 20
4.166265
 30
0.0
 10
3.432007
 20
4.164728
 30
0.0
 10
3.430198
 20
4.163462
 30
0.0
 10
3.428119
 20
4.162467
 30
0.0
  0
SPLINE
  5
262
100
AcDbEntity
  8
Layer_1
 62
3
100
AcDbSpline
 70
8
 71
3
 72
8
 73
4
 74
0
 40
0
 40
0
 40
0
 40
0
 40
1
 40
1
 40
1
 40
1
 10
3.428119
 20
4.162467
 30
0.0
 10
3.426039
 20
4.161563
 30
0.0
 10
3.423823
 20
4.161111
 30
0.0
 10
3.421472
 20
4.161111
 30
0.0
  0
LINE
  5
263
100
AcDbEntity
  8
Layer_1
 62
3
100
AcDbLine
 10
3.421472
 20
4.161111
 30
0.0
 11
3.273903
 21
4.161111
 31
0.0
  0
SPLINE
  5
264
100
AcDbEntity
  8
Layer_1
 62
3
100
AcDbSpline
 70
8
 71
3
 72
8
 73
4
 74
0
 40
0
 40
0
 40
0
 40
0
 40
1
 40
1
 40
1
 40
1
 10
3.273903
 20
4.161111
 30
0.0
 10
3.271552
 20
4.161111
 30
0.0
 10
3.269518
 20
4.160297
 30
0.0
 10
3.267800
 20
4.158670
 30
0.0
  0
SPLINE
  5
265
100
AcDbEntity
  8
Layer_1
 62
3
100
AcDbSpline
 70
8
 71
3
 72
8
 73
4
 74
0
 40
0
 40
0
 40
0
 40
0
 40
1
 40
1
 40
1
 40
1
 10
3.267800
 20
4.158670
 30
0.0
 10
3.266081
 20
4.157042
 30
0.0
 10
3.265222
 20
4.154962
 30
0.0
 10
3.265222
 20
4.152430
 30
0.0
  0
LINE
  5
266
100
AcDbEntity
  8
Layer_1
 62
3
100
AcDbLine
 10
3.265222
 20
4.152430
 30
0.0
 11
3.265222
 21
4.100347
 31
0.0
  0
SPLINE
  5
267
100
AcDbEntity
  8
Layer_1
 62
3
100
AcDbSpline
 70
8
 71
3
 72
8
 73
4
 74
0
 40
0
 40
0
 40
0
 40
0
 40
1
 40
1
 40
1
 40
1
 10
3.265222
 20
4.100347
 30
0.0
 10
3.265222
 20
4.097815
 30
0.0
 10
3.266036
 20
4.095736
 30
0.0
 10
3.267664
 20
4.094108
 30
0.0
  0
SPLINE
  5
268
100
AcDbEntity
  8
Layer_1
 62
3
100
AcDbSpline
 70
8
 71
3
 72
8
 73
4
 74
0
 40
0
 40
0
 40
0
 40
0
 40
1
 40
1
 40
1
 40
1
 10
3.267664
 20
4.094108
 30
0.0
 10
3.269292
 20
4.092480
 30
0.0
 10
3.271371
 20
4.091667
 30
0.0
 10
3.273903
 20
4.091667
 30
0.0
  0
LINE
  5
269
100
AcDbEntity
  8
Layer_1
 62
3
100
AcDbLine
 10
3.273903
 20
4.091667
 30
0.0
 11
3.430153
 21
4.091667
 31
0.0
  0
SPLINE
  5
26a
100
AcDbEntity
  8
Layer_1
 62
3
100
AcDbSpline
 70
8
 71
3
 72
8
 73
4
 74
0
 40
0
 40
0
 40
0
 40
0
 40
1
 40
1
 40
1
 40
1
 10
3.430153
 20
4.091667
 30
0.0
 10
3.432504
 20
4.091667
 30
0.0
 10
3.434539
 20
4.090808
 30
0.0
 10
3.436257
 20
4.089090
 30
0.0
  0
SPLINE
  5
26b
100
AcDbEntity
  8
Layer_1
 62
3
100
AcDbSpline
 70
8
 71
3
 72
8
 73
4
 74
0
 40
0
 40
0
 40
0
 40
0
 40
1
 40
1
 40
1
 40
1
 10
3.436257
 20
4.089090
 30
0.0
 10
3.437975
 20
4.087371
 30
0.0
 10
3.438833
 20
4.085337
 30
0.0
 10
3.438833
 20
4.082986
 30
0.0
  0
LINE
  5
26c
100
AcDbEntity
  8
Layer_1
 62
3
100
AcDbLine
 10
3.438833
 20
4.082986
 30
0.0
 11
3.438833
 21
4.065625
 31
0.0
  0
SPLINE
  5
26d
100
AcDbEntity
  8
Layer_1
 62
3
100
AcDbSpline
 70
8
 71
3
 72
8
 73
4
 74
0
 40
0
 40
0
 40
0
 40
0
 40
1
 40
1
 40
1
 40
1
 10
3.438833
 20
4.065625
 30
0.0
 10
3.438833
 20
4.063274
 30
0.0
 10
3.438020
 20
4.061239
 30
0.0
 10
3.436392
 20
4.059521
 30
0.0
  0
SPLINE
  5
26e
100
AcDbEntity
  8
Layer_1
 62
3
100
AcDbSpline
 70
8
 71
3
 72
8
 73
4
 74
0
 40
0
 40
0
 40
0
 40
0
 40
1
 40
1
 40
1
 40
1
 10
3.436392
 20
4.059521
 30
0.0
 10
3.434765
 20
4.057803
 30
0.0
 10
3.432685
 20
4.056944
 30
0.0
 10
3.430153
 20
4.056944
 30
0.0
  0
LINE
  5
26f
100
AcDbEntity
  8
Layer_1
 62
3
100
AcDbLine
 10
3.430153
 20
4.056944
 30
0.0
 11
3.247861
 21
4.056944
 31
0.0
  0
SPLINE
  5
270
100
AcDbEntity
  8
Layer_1
 62
3
100
AcDbSpline
 70
8
 71
3
 72
8
 73
4
 74
0
 40
0
 40
0
 40
0
 40
0
 40
1
 40
1
 40
1
 40
1
 10
3.988931
 20
4.091667
 30
0.0
 10
3.991463
 20
4.091667
 30
0.0
 10
3.993543
 20
4.092526
 30
0.0
 10
3.995170
 20
4.094244
 30
0.0
  0
SPLINE
  5
271
100
AcDbEntity
  8
Layer_1
 62
3
100
AcDbSpline
 70
8
 71
3
 72
8
 73
4
 74
0
 40
0
 40
0
 40
0
 40
0
 40
1
 40
1
 40
1
 40
1
 10
3.995170
 20
4.094244
 30
0.0
 10
3.996798
 20
4.095962
 30
0.0
 10
3.997612
 20
4.097996
 30
0.0
 10
3.997612
 20
4.100347
 30
0.0
  0
LINE
  5
272
100
AcDbEntity
  8
Layer_1
 62
3
100
AcDbLine
 10
3.997612
 20
4.100347
 30
0.0
 11
3.997612
 21
4.152430
 31
0.0
  0
SPLINE
  5
273
100
AcDbEntity
  8
Layer_1
 62
3
100
AcDbSpline
 70
8
 71
3
 72
8
 73
4
 74
0
 40
0
 40
0
 40
0
 40
0
 40
1
 40
1
 40
1
 40
1
 10
3.997612
 20
4.152430
 30
0.0
 10
3.997612
 20
4.154781
 30
0.0
 10
3.996753
 20
4.156816
 30
0.0
 10
3.995035
 20
4.158534
 30
0.0
  0
SPLINE
  5
274
100
AcDbEntity
  8
Layer_1
 62
3
100
AcDbSpline
 70
8
 71
3
 72
8
 73
4
 74
0
 40
0
 40
0
 40
0
 40
0
 40
1
 40
1
 40
1
 40
1
 10
3.995035
 20
4.158534
 30
0.0
 10
3.993317
 20
4.160252
 30
0.0
 10
3.991282
 20
4.161111
 30
0.0
 10
3.988931
 20
4.161111
 30
0.0
  0
LINE
  5
275
100
AcDbEntity
  8
Layer_1
 62
3
100
AcDbLine
 10
3.988931
 20
4.161111
 30
0.0
 11
3.954209
 21
4.161111
 31
0.0
  0
SPLINE
  5
276
100
AcDbEntity
  8
Layer_1
 62
3
100
AcDbSpline
 70
8
 71
3
 72
8
 73
4
 74
0
 40
0
 40
0
 40
0
 40
0
 40
1
 40
1
 40
1
 40
1
 10
3.954209
 20
4.161111
 30
0.0
 10
3.951858
 20
4.161111
 30
0.0
 10
3.949823
 20
4.160297
 30
0.0
 10
3.948106
 20
4.158670
 30
0.0
  0
SPLINE
  5
277
100
AcDbEntity
  8
Layer_1
 62
3
100
AcDbSpline
 70
8
 71
3
 72
8
 73
4
 74
0
 40
0
 40
0
 40
0
 40
0
 40
1
 40
1
 40
1
 40
1
 10
3.948106
 20
4.158670
 30
0.0
 10
3.946387
 20
4.157042
 30
0.0
 10
3.945528
 20
4.154962
 30
0.0
 10
3.945528
 20
4.152430
 30
0.0
  0
LINE
  5
278
100
AcDbEntity
  8
Layer_1
 62
3
100
AcDbLine
 10
3.945528
 20
4.152430
 30
0.0
 11
3.945528
 21
4.100347
 31
0.0
  0
SPLINE
  5
279
100
AcDbEntity
  8
Layer_1
 62
3
100
AcDbSpline
 70
8
 71
3
 72
8
 73
4
 74
0
 40
0
 40
0
 40
0
 40
0
 40
1
 40
1
 40
1
 40
1
 10
3.945528
 20
4.100347
 30
0.0
 10
3.945528
 20
4.097815
 30
0.0
 10
3.946342
 20
4.095736
 30
0.0
 10
3.947970
 20
4.094108
 30
0.0
  0
SPLINE
  5
27a
100
AcDbEntity
  8
Layer_1
 62
3
100
AcDbSpline
 70
8
 71
3
 72
8
 73
4
 74
0
 40
0
 40
0
 40
0
 40
0
 40
1
 40
1
 40
1
 40
1
 10
3.947970
 20
4.094108
 30
0.0
 10
3.949597
 20
4.092480
 30
0.0
 10
3.951677
 20
4.091667
 30
0.0
 10
3.954209
 20
4.091667
 30
0.0
  0
LINE
  5
27b
100
AcDbEntity
  8
Layer_1
 62
3
100
AcDbLine
 10
3.954209
 20
4.091667
 30
0.0
 11
3.988931
 21
4.091667
 31
0.0
  0
SPLINE
  5
27c
100
AcDbEntity
  8
Layer_1
 62
3
100
AcDbSpline
 70
8
 71
3
 72
8
 73
4
 74
0
 40
0
 40
0
 40
0
 40
0
 40
1
 40
1
 40
1
 40
1
 10
4.075737
 20
4.091667
 30
0.0
 10
4.078268
 20
4.091667
 30
0.0
 10
4.080348
 20
4.092526
 30
0.0
 10
4.081976
 20
4.094244
 30
0.0
  0
SPLINE
  5
27d
100
AcDbEntity
  8
Layer_1
 62
3
100
AcDbSpline
 70
8
 71
3
 72
8
 73
4
 74
0
 40
0
 40
0
 40
0
 40
0
 40
1
 40
1
 40
1
 40
1
 10
4.081976
 20
4.094244
 30
0.0
 10
4.083603
 20
4.095962
 30
0.0
 10
4.084417
 20
4.097996
 30
0.0
 10
4.084417
 20
4.100347
 30
0.0
  0
LINE
  5
27e
100
AcDbEntity
  8
Layer_1
 62
3
100
AcDbLine
 10
4.084417
 20
4.100347
 30
0.0
 11
4.084417
 21
4.152430
 31
0.0
  0
SPLINE
  5
27f
100
AcDbEntity
  8
Layer_1
 62
3
100
AcDbSpline
 70
8
 71
3
 72
8
 73
4
 74
0
 40
0
 40
0
 40
0
 40
0
 40
1
 40
1
 40
1
 40
1
 10
4.084417
 20
4.152430
 30
0.0
 10
4.084417
 20
4.154781
 30
0.0
 10
4.083558
 20
4.156816
 30
0.0
 10
4.081840
 20
4.158534
 30
0.0
  0
SPLINE
  5
280
100
AcDbEntity
  8
Layer_1
 62
3
100
AcDbSpline
 70
8
 71
3
 72
8
 73
4
 74
0
 40
0
 40
0
 40
0
 40
0
 40
1
 40
1
 40
1
 40
1
 10
4.081840
 20
4.158534
 30
0.0
 10
4.080122
 20
4.160252
 30
0.0
 10
4.078088
 20
4.161111
 30
0.0
 10
4.075737
 20
4.161111
 30
0.0
  0
LINE
  5
281
100
AcDbEntity
  8
Layer_1
 62
3
100
AcDbLine
 10
4.075737
 20
4.161111
 30
0.0
 11
4.041015
 21
4.161111
 31
0.0
  0
SPLINE
  5
282
100
AcDbEntity
  8
Layer_1
 62
3
100
AcDbSpline
 70
8
 71
3
 72
8
 73
4
 74
0
 40
0
 40
0
 40
0
 40
0
 40
1
 40
1
 40
1
 40
1
 10
4.041015
 20
4.161111
 30
0.0
 10
4.038663
 20
4.161111
 30
0.0
 10
4.036629
 20
4.160297
 30
0.0
 10
4.034911
 20
4.158670
 30
0.0
  0
SPLINE
  5
283
100
AcDbEntity
  8
Layer_1
 62
3
100
AcDbSpline
 70
8
 71
3
 72
8
 73
4
 74
0
 40
0
 40
0
 40
0
 40
0
 40
1
 40
1
 40
1
 40
1
 10
4.034911
 20
4.158670
 30
0.0
 10
4.033193
 20
4.157042
 30
0.0
 10
4.032334
 20
4.154962
 30
0.0
 10
4.032334
 20
4.152430
 30
0.0
  0
LINE
  5
284
100
AcDbEntity
  8
Layer_1
 62
3
100
AcDbLine
 10
4.032334
 20
4.152430
 30
0.0
 11
4.032334
 21
4.100347
 31
0.0
  0
SPLINE
  5
285
100
AcDbEntity
  8
Layer_1
 62
3
100
AcDbSpline
 70
8
 71
3
 72
8
 73
4
 74
0
 40
0
 40
0
 40
0
 40
0
 40
1
 40
1
 40
1
 40
1
 10
4.032334
 20
4.100347
 30
0.0
 10
4.032334
 20
4.097815
 30
0.0
 10
4.033148
 20
4.095736
 30
0.0
 10
4.034775
 20
4.094108
 30
0.0
  0
SPLINE
  5
286
100
AcDbEntity
  8
Layer_1
 62
3
100
AcDbSpline
 70
8
 71
3
 72
8
 73
4
 74
0
 40
0
 40
0
 40
0
 40
0
 40
1
 40
1
 40
1
 40
1
 10
4.034775
 20
4.094108
 30
0.0
 10
4.036403
 20
4.092480
 30
0.0
 10
4.038483
 20
4.091667
 30
0.0
 10
4.041015
 20
4.091667
 30
0.0
  0
LINE
  5
287
100
AcDbEntity
  8
Layer_1
 62
3
100
AcDbLine
 10
4.041015
 20
4.091667
 30
0.0
 11
4.075737
 21
4.091667
 31
0.0
  0
SPLINE
  5
288
100
AcDbEntity
  8
Layer_1
 62
3
100
AcDbSpline
 70
8
 71
3
 72
8
 73
4
 74
0
 40
0
 40
0
 40
0
 40
0
 40
1
 40
1
 40
1
 40
1
 10
3.988931
 20
4.195833
 30
0.0
 10
3.991463
 20
4.195833
 30
0.0
 10
3.993543
 20
4.196692
 30
0.0
 10
3.995170
 20
4.198410
 30
0.0
  0
SPLINE
  5
289
100
AcDbEntity
  8
Layer_1
 62
3
100
AcDbSpline
 70
8
 71
3
 72
8
 73
4
 74
0
 40
0
 40
0
 40
0
 40
0
 40
1
 40
1
 40
1
 40
1
 10
3.995170
 20
4.198410
 30
0.0
 10
3.996798
 20
4.200128
 30
0.0
 10
3.997612
 20
4.202163
 30
0.0
 10
3.997612
 20
4.204514
 30
0.0
  0
LINE
  5
28a
100
AcDbEntity
  8
Layer_1
 62
3
100
AcDbLine
 10
3.997612
 20
4.204514
 30
0.0
 11
3.997612
 21
4.256597
 31
0.0
  0
SPLINE
  5
28b
100
AcDbEntity
  8
Layer_1
 62
3
100
AcDbSpline
 70
8
 71
3
 72
8
 73
4
 74
0
 40
0
 40
0
 40
0
 40
0
 40
1
 40
1
 40
1
 40
1
 10
3.997612
 20
4.256597
 30
0.0
 10
3.997612
 20
4.258948
 30
0.0
 10
3.996753
 20
4.260983
 30
0.0
 10
3.995035
 20
4.262701
 30
0.0
  0
SPLINE
  5
28c
100
AcDbEntity
  8
Layer_1
 62
3
100
AcDbSpline
 70
8
 71
3
 72
8
 73
4
 74
0
 40
0
 40
0
 40
0
 40
0
 40
1
 40
1
 40
1
 40
1
 10
3.995035
 20
4.262701
 30
0.0
 10
3.993317
 20
4.264419
 30
0.0
 10
3.991282
 20
4.265278
 30
0.0
 10
3.988931
 20
4.265278
 30
0.0
  0
LINE
  5
28d
100
AcDbEntity
  8
Layer_1
 62
3
100
AcDbLine
 10
3.988931
 20
4.265278
 30
0.0
 11
3.954209
 21
4.265278
 31
0.0
  0
SPLINE
  5
28e
100
AcDbEntity
  8
Layer_1
 62
3
100
AcDbSpline
 70
8
 71
3
 72
8
 73
4
 74
0
 40
0
 40
0
 40
0
 40
0
 40
1
 40
1
 40
1
 40
1
 10
3.954209
 20
4.265278
 30
0.0
 10
3.951858
 20
4.265278
 30
0.0
 10
3.949823
 20
4.264464
 30
0.0
 10
3.948106
 20
4.262836
 30
0.0
  0
SPLINE
  5
28f
100
AcDbEntity
  8
Layer_1
 62
3
100
AcDbSpline
 70
8
 71
3
 72
8
 73
4
 74
0
 40
0
 40
0
 40
0
 40
0
 40
1
 40
1
 40
1
 40
1
 10
3.948106
 20
4.262836
 30
0.0
 10
3.946387
 20
4.261209
 30
0.0
 10
3.945528
 20
4.259129
 30
0.0
 10
3.945528
 20
4.256597
 30
0.0
  0
LINE
  5
290
100
AcDbEntity
  8
Layer_1
 62
3
100
AcDbLine
 10
3.945528
 20
4.256597
 30
0.0
 11
3.945528
 21
4.204514
 31
0.0
  0
SPLINE
  5
291
100
AcDbEntity
  8
Layer_1
 62
3
100
AcDbSpline
 70
8
 71
3
 72
8
 73
4
 74
0
 40
0
 40
0
 40
0
 40
0
 40
1
 40
1
 40
1
 40
1
 10
3.945528
 20
4.204514
 30
0.0
 10
3.945528
 20
4.201982
 30
0.0
 10
3.946342
 20
4.199902
 30
0.0
 10
3.947970
 20
4.198275
 30
0.0
  0
SPLINE
  5
292
100
AcDbEntity
  8
Layer_1
 62
3
100
AcDbSpline
 70
8
 71
3
 72
8
 73
4
 74
0
 40
0
 40
0
 40
0
 40
0
 40
1
 40
1
 40
1
 40
1
 10
3.947970
 20
4.198275
 30
0.0
 10
3.949597
 20
4.196647
 30
0.0
 10
3.951677
 20
4.195833
 30
0.0
 10
3.954209
 20
4.195833
 30
0.0
  0
LINE
  5
293
100
AcDbEntity
  8
Layer_1
 62
3
100
AcDbLine
 10
3.954209
 20
4.195833
 30
0.0
 11
3.988931
 21
4.195833
 31
0.0
  0
SPLINE
  5
294
100
AcDbEntity
  8
Layer_1
 62
3
100
AcDbSpline
 70
8
 71
3
 72
8
 73
4
 74
0
 40
0
 40
0
 40
0
 40
0
 40
1
 40
1
 40
1
 40
1
 10
4.075737
 20
4.195833
 30
0.0
 10
4.078268
 20
4.195833
 30
0.0
 10
4.080348
 20
4.196692
 30
0.0
 10
4.081976
 20
4.198410
 30
0.0
  0
SPLINE
  5
295
100
AcDbEntity
  8
Layer_1
 62
3
100
AcDbSpline
 70
8
 71
3
 72
8
 73
4
 74
0
 40
0
 40
0
 40
0
 40
0
 40
1
 40
1
 40
1
 40
1
 10
4.081976
 20
4.198410
 30
0.0
 10
4.083603
 20
4.200128
 30
0.0
 10
4.084417
 20
4.202163
 30
0.0
 10
4.084417
 20
4.204514
 30
0.0
  0
LINE
  5
296
100
AcDbEntity
  8
Layer_1
 62
3
100
AcDbLine
 10
4.084417
 20
4.204514
 30
0.0
 11
4.084417
 21
4.256597
 31
0.0
  0
SPLINE
  5
297
100
AcDbEntity
  8
Layer_1
 62
3
100
AcDbSpline
 70
8
 71
3
 72
8
 73
4
 74
0
 40
0
 40
0
 40
0
 40
0
 40
1
 40
1
 40
1
 40
1
 10
4.084417
 20
4.256597
 30
0.0
 10
4.084417
 20
4.258948
 30
0.0
 10
4.083558
 20
4.260983
 30
0.0
 10
4.081840
 20
4.262701
 30
0.0
  0
SPLINE
  5
298
100
AcDbEntity
  8
Layer_1
 62
3
100
AcDbSpline
 70
8
 71
3
 72
8
 73
4
 74
0
 40
0
 40
0
 40
0
 40
0
 40
1
 40
1
 40
1
 40
1
 10
4.081840
 20
4.262701
 30
0.0
 10
4.080122
 20
4.264419
 30
0.0
 10
4.078088
 20
4.265278
 30
0.0
 10
4.075737
 20
4.265278
 30
0.0
  0
LINE
  5
299
100
AcDbEntity
  8
Layer_1
 62
3
100
AcDbLine
 10
4.075737
 20
4.265278
 30
0.0
 11
4.041015
 21
4.265278
 31
0.0
  0
SPLINE
  5
29a
100
AcDbEntity
  8
Layer_1
 62
3
100
AcDbSpline
 70
8
 71
3
 72
8
 73
4
 74
0
 40
0
 40
0
 40
0
 40
0
 40
1
 40
1
 40
1
 40
1
 10
4.041015
 20
4.265278
 30
0.0
 10
4.038663
 20
4.265278
 30
0.0
 10
4.036629
 20
4.264464
 30
0.0
 10
4.034911
 20
4.262836
 30
0.0
  0
SPLINE
  5
29b
100
AcDbEntity
  8
Layer_1
 62
3
100
AcDbSpline
 70
8
 71
3
 72
8
 73
4
 74
0
 40
0
 40
0
 40
0
 40
0
 40
1
 40
1
 40
1
 40
1
 10
4.034911
 20
4.262836
 30
0.0
 10
4.033193
 20
4.261209
 30
0.0
 10
4.032334
 20
4.259129
 30
0.0
 10
4.032334
 20
4.256597
 30
0.0
  0
LINE
  5
29c
100
AcDbEntity
  8
Layer_1
 62
3
100
AcDbLine
 10
4.032334
 20
4.256597
 30
0.0
 11
4.032334
 21
4.204514
 31
0.0
  0
SPLINE
  5
29d
100
AcDbEntity
  8
Layer_1
 62
3
100
AcDbSpline
 70
8
 71
3
 72
8
 73
4
 74
0
 40
0
 40
0
 40
0
 40
0
 40
1
 40
1
 40
1
 40
1
 10
4.032334
 20
4.204514
 30
0.0
 10
4.032334
 20
4.201982
 30
0.0
 10
4.033148
 20
4.199902
 30
0.0
 10
4.034775
 20
4.198275
 30
0.0
  0
SPLINE
  5
29e
100
AcDbEntity
  8
Layer_1
 62
3
100
AcDbSpline
 70
8
 71
3
 72
8
 73
4
 74
0
 40
0
 40
0
 40
0
 40
0
 40
1
 40
1
 40
1
 40
1
 10
4.034775
 20
4.198275
 30
0.0
 10
4.036403
 20
4.196647
 30
0.0
 10
4.038483
 20
4.195833
 30
0.0
 10
4.041015
 20
4.195833
 30
0.0
  0
LINE
  5
29f
100
AcDbEntity
  8
Layer_1
 62
3
100
AcDbLine
 10
4.041015
 20
4.195833
 30
0.0
 11
4.075737
 21
4.195833
 31
0.0
  0
SPLINE
  5
2a0
100
AcDbEntity
  8
Layer_1
 62
3
100
AcDbSpline
 70
8
 71
3
 72
8
 73
4
 74
0
 40
0
 40
0
 40
0
 40
0
 40
1
 40
1
 40
1
 40
1
 10
3.928167
 20
4.056944
 30
0.0
 10
3.925726
 20
4.056944
 30
0.0
 10
3.923420
 20
4.057396
 30
0.0
 10
3.921250
 20
4.058301
 30
0.0
  0
SPLINE
  5
2a1
100
AcDbEntity
  8
Layer_1
 62
3
100
AcDbSpline
 70
8
 71
3
 72
8
 73
4
 74
0
 40
0
 40
0
 40
0
 40
0
 40
1
 40
1
 40
1
 40
1
 10
3.921250
 20
4.058301
 30
0.0
 10
3.919170
 20
4.059205
 30
0.0
 10
3.917362
 20
4.060426
 30
0.0
 10
3.915824
 20
4.061963
 30
0.0
  0
SPLINE
  5
2a2
100
AcDbEntity
  8
Layer_1
 62
3
100
AcDbSpline
 70
8
 71
3
 72
8
 73
4
 74
0
 40
0
 40
0
 40
0
 40
0
 40
1
 40
1
 40
1
 40
1
 10
3.915824
 20
4.061963
 30
0.0
 10
3.914287
 20
4.063500
 30
0.0
 10
3.913067
 20
4.065308
 30
0.0
 10
3.912163
 20
4.067388
 30
0.0
  0
SPLINE
  5
2a3
100
AcDbEntity
  8
Layer_1
 62
3
100
AcDbSpline
 70
8
 71
3
 72
8
 73
4
 74
0
 40
0
 40
0
 40
0
 40
0
 40
1
 40
1
 40
1
 40
1
 10
3.912163
 20
4.067388
 30
0.0
 10
3.911258
 20
4.069558
 30
0.0
 10
3.910806
 20
4.071864
 30
0.0
 10
3.910806
 20
4.074305
 30
0.0
  0
LINE
  5
2a4
100
AcDbEntity
  8
Layer_1
 62
3
100
AcDbLine
 10
3.910806
 20
4.074305
 30
0.0
 11
3.910806
 21
4.282639
 31
0.0
  0
SPLINE
  5
2a5
100
AcDbEntity
  8
Layer_1
 62
3
100
AcDbSpline
 70
8
 71
3
 72
8
 73
4
 74
0
 40
0
 40
0
 40
0
 40
0
 40
1
 40
1
 40
1
 40
1
 10
3.910806
 20
4.282639
 30
0.0
 10
3.910806
 20
4.284990
 30
0.0
 10
3.911258
 20
4.287205
 30
0.0
 10
3.912163
 20
4.289285
 30
0.0
  0
SPLINE
  5
2a6
100
AcDbEntity
  8
Layer_1
 62
3
100
AcDbSpline
 70
8
 71
3
 72
8
 73
4
 74
0
 40
0
 40
0
 40
0
 40
0
 40
1
 40
1
 40
1
 40
1
 10
3.912163
 20
4.289285
 30
0.0
 10
3.913157
 20
4.291365
 30
0.0
 10
3.914423
 20
4.293173
 30
0.0
 10
3.915960
 20
4.294710
 30
0.0
  0
SPLINE
  5
2a7
100
AcDbEntity
  8
Layer_1
 62
3
100
AcDbSpline
 70
8
 71
3
 72
8
 73
4
 74
0
 40
0
 40
0
 40
0
 40
0
 40
1
 40
1
 40
1
 40
1
 10
3.915960
 20
4.294710
 30
0.0
 10
3.917588
 20
4.296338
 30
0.0
 10
3.919441
 20
4.297604
 30
0.0
 10
3.921521
 20
4.298508
 30
0.0
  0
SPLINE
  5
2a8
100
AcDbEntity
  8
Layer_1
 62
3
100
AcDbSpline
 70
8
 71
3
 72
8
 73
4
 74
0
 40
0
 40
0
 40
0
 40
0
 40
1
 40
1
 40
1
 40
1
 10
3.921521
 20
4.298508
 30
0.0
 10
3.923601
 20
4.299503
 30
0.0
 10
3.925816
 20
4.300000
 30
0.0
 10
3.928167
 20
4.300000
 30
0.0
  0
LINE
  5
2a9
100
AcDbEntity
  8
Layer_1
 62
3
100
AcDbLine
 10
3.928167
 20
4.300000
 30
0.0
 11
4.101778
 21
4.300000
 31
0.0
  0
SPLINE
  5
2aa
100
AcDbEntity
  8
Layer_1
 62
3
100
AcDbSpline
 70
8
 71
3
 72
8
 73
4
 74
0
 40
0
 40
0
 40
0
 40
0
 40
1
 40
1
 40
1
 40
1
 10
4.101778
 20
4.300000
 30
0.0
 10
4.104129
 20
4.300000
 30
0.0
 10
4.106345
 20
4.299503
 30
0.0
 10
4.108424
 20
4.298508
 30
0.0
  0
SPLINE
  5
2ab
100
AcDbEntity
  8
Layer_1
 62
3
100
AcDbSpline
 70
8
 71
3
 72
8
 73
4
 74
0
 40
0
 40
0
 40
0
 40
0
 40
1
 40
1
 40
1
 40
1
 10
4.108424
 20
4.298508
 30
0.0
 10
4.110504
 20
4.297604
 30
0.0
 10
4.112313
 20
4.296338
 30
0.0
 10
4.113850
 20
4.294710
 30
0.0
  0
SPLINE
  5
2ac
100
AcDbEntity
  8
Layer_1
 62
3
100
AcDbSpline
 70
8
 71
3
 72
8
 73
4
 74
0
 40
0
 40
0
 40
0
 40
0
 40
1
 40
1
 40
1
 40
1
 10
4.113850
 20
4.294710
 30
0.0
 10
4.115477
 20
4.293173
 30
0.0
 10
4.116743
 20
4.291365
 30
0.0
 10
4.117647
 20
4.289285
 30
0.0
  0
SPLINE
  5
2ad
100
AcDbEntity
  8
Layer_1
 62
3
100
AcDbSpline
 70
8
 71
3
 72
8
 73
4
 74
0
 40
0
 40
0
 40
0
 40
0
 40
1
 40
1
 40
1
 40
1
 10
4.117647
 20
4.289285
 30
0.0
 10
4.118642
 20
4.287205
 30
0.0
 10
4.119139
 20
4.284990
 30
0.0
 10
4.119139
 20
4.282639
 30
0.0
  0
LINE
  5
2ae
100
AcDbEntity
  8
Layer_1
 62
3
100
AcDbLine
 10
4.119139
 20
4.282639
 30
0.0
 11
4.119139
 21
4.074305
 31
0.0
  0
SPLINE
  5
2af
100
AcDbEntity
  8
Layer_1
 62
3
100
AcDbSpline
 70
8
 71
3
 72
8
 73
4
 74
0
 40
0
 40
0
 40
0
 40
0
 40
1
 40
1
 40
1
 40
1
 10
4.119139
 20
4.074305
 30
0.0
 10
4.119139
 20
4.071954
 30
0.0
 10
4.118642
 20
4.069739
 30
0.0
 10
4.117647
 20
4.067659
 30
0.0
  0
SPLINE
  5
2b0
100
AcDbEntity
  8
Layer_1
 62
3
100
AcDbSpline
 70
8
 71
3
 72
8
 73
4
 74
0
 40
0
 40
0
 40
0
 40
0
 40
1
 40
1
 40
1
 40
1
 10
4.117647
 20
4.067659
 30
0.0
 10
4.116743
 20
4.065580
 30
0.0
 10
4.115477
 20
4.063726
 30
0.0
 10
4.113850
 20
4.062098
 30
0.0
  0
SPLINE
  5
2b1
100
AcDbEntity
  8
Layer_1
 62
3
100
AcDbSpline
 70
8
 71
3
 72
8
 73
4
 74
0
 40
0
 40
0
 40
0
 40
0
 40
1
 40
1
 40
1
 40
1
 10
4.113850
 20
4.062098
 30
0.0
 10
4.112313
 20
4.060561
 30
0.0
 10
4.110504
 20
4.059295
 30
0.0
 10
4.108424
 20
4.058301
 30
0.0
  0
SPLINE
  5
2b2
100
AcDbEntity
  8
Layer_1
 62
3
100
AcDbSpline
 70
8
 71
3
 72
8
 73
4
 74
0
 40
0
 40
0
 40
0
 40
0
 40
1
 40
1
 40
1
 40
1
 10
4.108424
 20
4.058301
 30
0.0
 10
4.106345
 20
4.057396
 30
0.0
 10
4.104129
 20
4.056944
 30
0.0
 10
4.101778
 20
4.056944
 30
0.0
  0
LINE
  5
2b3
100
AcDbEntity
  8
Layer_1
 62
3
100
AcDbLine
 10
4.101778
 20
4.056944
 30
0.0
 11
3.928167
 21
4.056944
 31
0.0
  0
SPLINE
  5
2b4
100
AcDbEntity
  8
Layer_1
 62
3
100
AcDbSpline
 70
8
 71
3
 72
8
 73
4
 74
0
 40
0
 40
0
 40
0
 40
0
 40
1
 40
1
 40
1
 40
1
 10
4.695278
 20
4.056944
 30
0.0
 10
4.692836
 20
4.056944
 30
0.0
 10
4.690531
 20
4.057396
 30
0.0
 10
4.688361
 20
4.058301
 30
0.0
  0
SPLINE
  5
2b5
100
AcDbEntity
  8
Layer_1
 62
3
100
AcDbSpline
 70
8
 71
3
 72
8
 73
4
 74
0
 40
0
 40
0
 40
0
 40
0
 40
1
 40
1
 40
1
 40
1
 10
4.688361
 20
4.058301
 30
0.0
 10
4.686281
 20
4.059205
 30
0.0
 10
4.684473
 20
4.060426
 30
0.0
 10
4.682935
 20
4.061963
 30
0.0
  0
SPLINE
  5
2b6
100
AcDbEntity
  8
Layer_1
 62
3
100
AcDbSpline
 70
8
 71
3
 72
8
 73
4
 74
0
 40
0
 40
0
 40
0
 40
0
 40
1
 40
1
 40
1
 40
1
 10
4.682935
 20
4.061963
 30
0.0
 10
4.681398
 20
4.063500
 30
0.0
 10
4.680177
 20
4.065308
 30
0.0
 10
4.679273
 20
4.067388
 30
0.0
  0
SPLINE
  5
2b7
100
AcDbEntity
  8
Layer_1
 62
3
100
AcDbSpline
 70
8
 71
3
 72
8
 73
4
 74
0
 40
0
 40
0
 40
0
 40
0
 40
1
 40
1
 40
1
 40
1
 10
4.679273
 20
4.067388
 30
0.0
 10
4.678369
 20
4.069558
 30
0.0
 10
4.677917
 20
4.071864
 30
0.0
 10
4.677917
 20
4.074305
 30
0.0
  0
LINE
  5
2b8
100
AcDbEntity
  8
Layer_1
 62
3
100
AcDbLine
 10
4.677917
 20
4.074305
 30
0.0
 11
4.677917
 21
4.256597
 31
0.0
  0
SPLINE
  5
2b9
100
AcDbEntity
  8
Layer_1
 62
3
100
AcDbSpline
 70
8
 71
3
 72
8
 73
4
 74
0
 40
0
 40
0
 40
0
 40
0
 40
1
 40
1
 40
1
 40
1
 10
4.677917
 20
4.256597
 30
0.0
 10
4.677917
 20
4.258948
 30
0.0
 10
4.677058
 20
4.260983
 30
0.0
 10
4.675340
 20
4.262701
 30
0.0
  0
SPLINE
  5
2ba
100
AcDbEntity
  8
Layer_1
 62
3
100
AcDbSpline
 70
8
 71
3
 72
8
 73
4
 74
0
 40
0
 40
0
 40
0
 40
0
 40
1
 40
1
 40
1
 40
1
 10
4.675340
 20
4.262701
 30
0.0
 10
4.673622
 20
4.264419
 30
0.0
 10
4.671587
 20
4.265278
 30
0.0
 10
4.669236
 20
4.265278
 30
0.0
  0
LINE
  5
2bb
100
AcDbEntity
  8
Layer_1
 62
3
100
AcDbLine
 10
4.669236
 20
4.265278
 30
0.0
 11
4.634514
 21
4.265278
 31
0.0
  0
SPLINE
  5
2bc
100
AcDbEntity
  8
Layer_1
 62
3
100
AcDbSpline
 70
8
 71
3
 72
8
 73
4
 74
0
 40
0
 40
0
 40
0
 40
0
 40
1
 40
1
 40
1
 40
1
 10
4.634514
 20
4.265278
 30
0.0
 10
4.632163
 20
4.265278
 30
0.0
 10
4.630129
 20
4.264464
 30
0.0
 10
4.628411
 20
4.262836
 30
0.0
  0
SPLINE
  5
2bd
100
AcDbEntity
  8
Layer_1
 62
3
100
AcDbSpline
 70
8
 71
3
 72
8
 73
4
 74
0
 40
0
 40
0
 40
0
 40
0
 40
1
 40
1
 40
1
 40
1
 10
4.628411
 20
4.262836
 30
0.0
 10
4.626693
 20
4.261209
 30
0.0
 10
4.625833
 20
4.259129
 30
0.0
 10
4.625833
 20
4.256597
 30
0.0
  0
LINE
  5
2be
100
AcDbEntity
  8
Layer_1
 62
3
100
AcDbLine
 10
4.625833
 20
4.256597
 30
0.0
 11
4.625833
 21
4.169792
 31
0.0
  0
SPLINE
  5
2bf
100
AcDbEntity
  8
Layer_1
 62
3
100
AcDbSpline
 70
8
 71
3
 72
8
 73
4
 74
0
 40
0
 40
0
 40
0
 40
0
 40
1
 40
1
 40
1
 40
1
 10
4.625833
 20
4.169792
 30
0.0
 10
4.625833
 20
4.167441
 30
0.0
 10
4.625020
 20
4.165406
 30
0.0
 10
4.623392
 20
4.163688
 30
0.0
  0
SPLINE
  5
2c0
100
AcDbEntity
  8
Layer_1
 62
3
100
AcDbSpline
 70
8
 71
3
 72
8
 73
4
 74
0
 40
0
 40
0
 40
0
 40
0
 40
1
 40
1
 40
1
 40
1
 10
4.623392
 20
4.163688
 30
0.0
 10
4.621765
 20
4.161970
 30
0.0
 10
4.619685
 20
4.161111
 30
0.0
 10
4.617153
 20
4.161111
 30
0.0
  0
LINE
  5
2c1
100
AcDbEntity
  8
Layer_1
 62
3
100
AcDbLine
 10
4.617153
 20
4.161111
 30
0.0
 11
4.599792
 21
4.161111
 31
0.0
  0
SPLINE
  5
2c2
100
AcDbEntity
  8
Layer_1
 62
3
100
AcDbSpline
 70
8
 71
3
 72
8
 73
4
 74
0
 40
0
 40
0
 40
0
 40
0
 40
1
 40
1
 40
1
 40
1
 10
4.599792
 20
4.161111
 30
0.0
 10
4.597260
 20
4.161111
 30
0.0
 10
4.595180
 20
4.161925
 30
0.0
 10
4.593553
 20
4.163552
 30
0.0
  0
SPLINE
  5
2c3
100
AcDbEntity
  8
Layer_1
 62
3
100
AcDbSpline
 70
8
 71
3
 72
8
 73
4
 74
0
 40
0
 40
0
 40
0
 40
0
 40
1
 40
1
 40
1
 40
1
 10
4.593553
 20
4.163552
 30
0.0
 10
4.591925
 20
4.165180
 30
0.0
 10
4.591111
 20
4.167260
 30
0.0
 10
4.591111
 20
4.169792
 30
0.0
  0
LINE
  5
2c4
100
AcDbEntity
  8
Layer_1
 62
3
100
AcDbLine
 10
4.591111
 20
4.169792
 30
0.0
 11
4.591111
 21
4.282639
 31
0.0
  0
SPLINE
  5
2c5
100
AcDbEntity
  8
Layer_1
 62
3
100
AcDbSpline
 70
8
 71
3
 72
8
 73
4
 74
0
 40
0
 40
0
 40
0
 40
0
 40
1
 40
1
 40
1
 40
1
 10
4.591111
 20
4.282639
 30
0.0
 10
4.591111
 20
4.284990
 30
0.0
 10
4.591564
 20
4.287205
 30
0.0
 10
4.592468
 20
4.289285
 30
0.0
  0
SPLINE
  5
2c6
100
AcDbEntity
  8
Layer_1
 62
3
100
AcDbSpline
 70
8
 71
3
 72
8
 73
4
 74
0
 40
0
 40
0
 40
0
 40
0
 40
1
 40
1
 40
1
 40
1
 10
4.592468
 20
4.289285
 30
0.0
 10
4.593462
 20
4.291365
 30
0.0
 10
4.594728
 20
4.293173
 30
0.0
 10
4.596265
 20
4.294710
 30
0.0
  0
SPLINE
  5
2c7
100
AcDbEntity
  8
Layer_1
 62
3
100
AcDbSpline
 70
8
 71
3
 72
8
 73
4
 74
0
 40
0
 40
0
 40
0
 40
0
 40
1
 40
1
 40
1
 40
1
 10
4.596265
 20
4.294710
 30
0.0
 10
4.597893
 20
4.296338
 30
0.0
 10
4.599747
 20
4.297604
 30
0.0
 10
4.601826
 20
4.298508
 30
0.0
  0
SPLINE
  5
2c8
100
AcDbEntity
  8
Layer_1
 62
3
100
AcDbSpline
 70
8
 71
3
 72
8
 73
4
 74
0
 40
0
 40
0
 40
0
 40
0
 40
1
 40
1
 40
1
 40
1
 10
4.601826
 20
4.298508
 30
0.0
 10
4.603906
 20
4.299503
 30
0.0
 10
4.606122
 20
4.300000
 30
0.0
 10
4.608472
 20
4.300000
 30
0.0
  0
LINE
  5
2c9
100
AcDbEntity
  8
Layer_1
 62
3
100
AcDbLine
 10
4.608472
 20
4.300000
 30
0.0
 11
4.695278
 21
4.300000
 31
0.0
  0
SPLINE
  5
2ca
100
AcDbEntity
  8
Layer_1
 62
3
100
AcDbSpline
 70
8
 71
3
 72
8
 73
4
 74
0
 40
0
 40
0
 40
0
 40
0
 40
1
 40
1
 40
1
 40
1
 10
4.695278
 20
4.300000
 30
0.0
 10
4.697629
 20
4.300000
 30
0.0
 10
4.699844
 20
4.299503
 30
0.0
 10
4.701924
 20
4.298508
 30
0.0
  0
SPLINE
  5
2cb
100
AcDbEntity
  8
Layer_1
 62
3
100
AcDbSpline
 70
8
 71
3
 72
8
 73
4
 74
0
 40
0
 40
0
 40
0
 40
0
 40
1
 40
1
 40
1
 40
1
 10
4.701924
 20
4.298508
 30
0.0
 10
4.704004
 20
4.297604
 30
0.0
 10
4.705812
 20
4.296338
 30
0.0
 10
4.707350
 20
4.294710
 30
0.0
  0
SPLINE
  5
2cc
100
AcDbEntity
  8
Layer_1
 62
3
100
AcDbSpline
 70
8
 71
3
 72
8
 73
4
 74
0
 40
0
 40
0
 40
0
 40
0
 40
1
 40
1
 40
1
 40
1
 10
4.707350
 20
4.294710
 30
0.0
 10
4.708977
 20
4.293173
 30
0.0
 10
4.710243
 20
4.291365
 30
0.0
 10
4.711147
 20
4.289285
 30
0.0
  0
SPLINE
  5
2cd
100
AcDbEntity
  8
Layer_1
 62
3
100
AcDbSpline
 70
8
 71
3
 72
8
 73
4
 74
0
 40
0
 40
0
 40
0
 40
0
 40
1
 40
1
 40
1
 40
1
 10
4.711147
 20
4.289285
 30
0.0
 10
4.712142
 20
4.287205
 30
0.0
 10
4.712639
 20
4.284990
 30
0.0
 10
4.712639
 20
4.282639
 30
0.0
  0
LINE
  5
2ce
100
AcDbEntity
  8
Layer_1
 62
3
100
AcDbLine
 10
4.712639
 20
4.282639
 30
0.0
 11
4.712639
 21
4.100347
 31
0.0
  0
SPLINE
  5
2cf
100
AcDbEntity
  8
Layer_1
 62
3
100
AcDbSpline
 70
8
 71
3
 72
8
 73
4
 74
0
 40
0
 40
0
 40
0
 40
0
 40
1
 40
1
 40
1
 40
1
 10
4.712639
 20
4.100347
 30
0.0
 10
4.712639
 20
4.097815
 30
0.0
 10
4.713453
 20
4.095736
 30
0.0
 10
4.715081
 20
4.094108
 30
0.0
  0
SPLINE
  5
2d0
100
AcDbEntity
  8
Layer_1
 62
3
100
AcDbSpline
 70
8
 71
3
 72
8
 73
4
 74
0
 40
0
 40
0
 40
0
 40
0
 40
1
 40
1
 40
1
 40
1
 10
4.715081
 20
4.094108
 30
0.0
 10
4.716708
 20
4.092480
 30
0.0
 10
4.718788
 20
4.091667
 30
0.0
 10
4.721320
 20
4.091667
 30
0.0
  0
LINE
  5
2d1
100
AcDbEntity
  8
Layer_1
 62
3
100
AcDbLine
 10
4.721320
 20
4.091667
 30
0.0
 11
4.756042
 21
4.091667
 31
0.0
  0
SPLINE
  5
2d2
100
AcDbEntity
  8
Layer_1
 62
3
100
AcDbSpline
 70
8
 71
3
 72
8
 73
4
 74
0
 40
0
 40
0
 40
0
 40
0
 40
1
 40
1
 40
1
 40
1
 10
4.756042
 20
4.091667
 30
0.0
 10
4.758574
 20
4.091667
 30
0.0
 10
4.760654
 20
4.092526
 30
0.0
 10
4.762281
 20
4.094244
 30
0.0
  0
SPLINE
  5
2d3
100
AcDbEntity
  8
Layer_1
 62
3
100
AcDbSpline
 70
8
 71
3
 72
8
 73
4
 74
0
 40
0
 40
0
 40
0
 40
0
 40
1
 40
1
 40
1
 40
1
 10
4.762281
 20
4.094244
 30
0.0
 10
4.763909
 20
4.095962
 30
0.0
 10
4.764722
 20
4.097996
 30
0.0
 10
4.764722
 20
4.100347
 30
0.0
  0
LINE
  5
2d4
100
AcDbEntity
  8
Layer_1
 62
3
100
AcDbLine
 10
4.764722
 20
4.100347
 30
0.0
 11
4.764722
 21
4.187153
 31
0.0
  0
SPLINE
  5
2d5
100
AcDbEntity
  8
Layer_1
 62
3
100
AcDbSpline
 70
8
 71
3
 72
8
 73
4
 74
0
 40
0
 40
0
 40
0
 40
0
 40
1
 40
1
 40
1
 40
1
 10
4.764722
 20
4.187153
 30
0.0
 10
4.764722
 20
4.189685
 30
0.0
 10
4.765581
 20
4.191764
 30
0.0
 10
4.767300
 20
4.193392
 30
0.0
  0
SPLINE
  5
2d6
100
AcDbEntity
  8
Layer_1
 62
3
100
AcDbSpline
 70
8
 71
3
 72
8
 73
4
 74
0
 40
0
 40
0
 40
0
 40
0
 40
1
 40
1
 40
1
 40
1
 10
4.767300
 20
4.193392
 30
0.0
 10
4.769017
 20
4.195019
 30
0.0
 10
4.771052
 20
4.195833
 30
0.0
 10
4.773403
 20
4.195833
 30
0.0
  0
LINE
  5
2d7
100
AcDbEntity
  8
Layer_1
 62
3
100
AcDbLine
 10
4.773403
 20
4.195833
 30
0.0
 11
4.790764
 21
4.195833
 31
0.0
  0
SPLINE
  5
2d8
100
AcDbEntity
  8
Layer_1
 62
3
100
AcDbSpline
 70
8
 71
3
 72
8
 73
4
 74
0
 40
0
 40
0
 40
0
 40
0
 40
1
 40
1
 40
1
 40
1
 10
4.790764
 20
4.195833
 30
0.0
 10
4.793115
 20
4.195833
 30
0.0
 10
4.795150
 20
4.194974
 30
0.0
 10
4.796868
 20
4.193256
 30
0.0
  0
SPLINE
  5
2d9
100
AcDbEntity
  8
Layer_1
 62
3
100
AcDbSpline
 70
8
 71
3
 72
8
 73
4
 74
0
 40
0
 40
0
 40
0
 40
0
 40
1
 40
1
 40
1
 40
1
 10
4.796868
 20
4.193256
 30
0.0
 10
4.798586
 20
4.191538
 30
0.0
 10
4.799445
 20
4.189504
 30
0.0
 10
4.799445
 20
4.187153
 30
0.0
  0
LINE
  5
2da
100
AcDbEntity
  8
Layer_1
 62
3
100
AcDbLine
 10
4.799445
 20
4.187153
 30
0.0
 11
4.799445
 21
4.074305
 31
0.0
  0
SPLINE
  5
2db
100
AcDbEntity
  8
Layer_1
 62
3
100
AcDbSpline
 70
8
 71
3
 72
8
 73
4
 74
0
 40
0
 40
0
 40
0
 40
0
 40
1
 40
1
 40
1
 40
1
 10
4.799445
 20
4.074305
 30
0.0
 10
4.799445
 20
4.071954
 30
0.0
 10
4.798948
 20
4.069739
 30
0.0
 10
4.797953
 20
4.067659
 30
0.0
  0
SPLINE
  5
2dc
100
AcDbEntity
  8
Layer_1
 62
3
100
AcDbSpline
 70
8
 71
3
 72
8
 73
4
 74
0
 40
0
 40
0
 40
0
 40
0
 40
1
 40
1
 40
1
 40
1
 10
4.797953
 20
4.067659
 30
0.0
 10
4.797049
 20
4.065580
 30
0.0
 10
4.795783
 20
4.063726
 30
0.0
 10
4.794155
 20
4.062098
 30
0.0
  0
SPLINE
  5
2dd
100
AcDbEntity
  8
Layer_1
 62
3
100
AcDbSpline
 70
8
 71
3
 72
8
 73
4
 74
0
 40
0
 40
0
 40
0
 40
0
 40
1
 40
1
 40
1
 40
1
 10
4.794155
 20
4.062098
 30
0.0
 10
4.792618
 20
4.060561
 30
0.0
 10
4.790809
 20
4.059295
 30
0.0
 10
4.788730
 20
4.058301
 30
0.0
  0
SPLINE
  5
2de
100
AcDbEntity
  8
Layer_1
 62
3
100
AcDbSpline
 70
8
 71
3
 72
8
 73
4
 74
0
 40
0
 40
0
 40
0
 40
0
 40
1
 40
1
 40
1
 40
1
 10
4.788730
 20
4.058301
 30
0.0
 10
4.786650
 20
4.057396
 30
0.0
 10
4.784435
 20
4.056944
 30
0.0
 10
4.782083
 20
4.056944
 30
0.0
  0
LINE
  5
2df
100
AcDbEntity
  8
Layer_1
 62
3
100
AcDbLine
 10
4.782083
 20
4.056944
 30
0.0
 11
4.695278
 21
4.056944
 31
0.0
  0
SPLINE
  5
2e0
100
AcDbEntity
  8
Layer_1
 62
3
100
AcDbSpline
 70
8
 71
3
 72
8
 73
4
 74
0
 40
0
 40
0
 40
0
 40
0
 40
1
 40
1
 40
1
 40
1
 10
0.774989
 20
3.626800
 30
0.0
 10
0.777521
 20
3.626800
 30
0.0
 10
0.779601
 20
3.627659
 30
0.0
 10
0.781228
 20
3.629377
 30
0.0
  0
SPLINE
  5
2e1
100
AcDbEntity
  8
Layer_1
 62
3
100
AcDbSpline
 70
8
 71
3
 72
8
 73
4
 74
0
 40
0
 40
0
 40
0
 40
0
 40
1
 40
1
 40
1
 40
1
 10
0.781228
 20
3.629377
 30
0.0
 10
0.782856
 20
3.631095
 30
0.0
 10
0.783670
 20
3.633130
 30
0.0
 10
0.783670
 20
3.635481
 30
0.0
  0
LINE
  5
2e2
100
AcDbEntity
  8
Layer_1
 62
3
100
AcDbLine
 10
0.783670
 20
3.635481
 30
0.0
 11
0.783670
 21
3.757008
 31
0.0
  0
SPLINE
  5
2e3
100
AcDbEntity
  8
Layer_1
 62
3
100
AcDbSpline
 70
8
 71
3
 72
8
 73
4
 74
0
 40
0
 40
0
 40
0
 40
0
 40
1
 40
1
 40
1
 40
1
 10
0.783670
 20
3.757008
 30
0.0
 10
0.783670
 20
3.759359
 30
0.0
 10
0.782811
 20
3.761394
 30
0.0
 10
0.781093
 20
3.763112
 30
0.0
  0
SPLINE
  5
2e4
100
AcDbEntity
  8
Layer_1
 62
3
100
AcDbSpline
 70
8
 71
3
 72
8
 73
4
 74
0
 40
0
 40
0
 40
0
 40
0
 40
1
 40
1
 40
1
 40
1
 10
0.781093
 20
3.763112
 30
0.0
 10
0.779375
 20
3.764830
 30
0.0
 10
0.777340
 20
3.765689
 30
0.0
 10
0.774989
 20
3.765689
 30
0.0
  0
LINE
  5
2e5
100
AcDbEntity
  8
Layer_1
 62
3
100
AcDbLine
 10
0.774989
 20
3.765689
 30
0.0
 11
0.740267
 21
3.765689
 31
0.0
  0
SPLINE
  5
2e6
100
AcDbEntity
  8
Layer_1
 62
3
100
AcDbSpline
 70
8
 71
3
 72
8
 73
4
 74
0
 40
0
 40
0
 40
0
 40
0
 40
1
 40
1
 40
1
 40
1
 10
0.740267
 20
3.765689
 30
0.0
 10
0.737916
 20
3.765689
 30
0.0
 10
0.735881
 20
3.764875
 30
0.0
 10
0.734163
 20
3.763248
 30
0.0
  0
SPLINE
  5
2e7
100
AcDbEntity
  8
Layer_1
 62
3
100
AcDbSpline
 70
8
 71
3
 72
8
 73
4
 74
0
 40
0
 40
0
 40
0
 40
0
 40
1
 40
1
 40
1
 40
1
 10
0.734163
 20
3.763248
 30
0.0
 10
0.732445
 20
3.761620
 30
0.0
 10
0.731586
 20
3.759540
 30
0.0
 10
0.731586
 20
3.757008
 30
0.0
  0
LINE
  5
2e8
100
AcDbEntity
  8
Layer_1
 62
3
100
AcDbLine
 10
0.731586
 20
3.757008
 30
0.0
 11
0.731586
 21
3.635481
 31
0.0
  0
SPLINE
  5
2e9
100
AcDbEntity
  8
Layer_1
 62
3
100
AcDbSpline
 70
8
 71
3
 72
8
 73
4
 74
0
 40
0
 40
0
 40
0
 40
0
 40
1
 40
1
 40
1
 40
1
 10
0.731586
 20
3.635481
 30
0.0
 10
0.731586
 20
3.632949
 30
0.0
 10
0.732400
 20
3.630869
 30
0.0
 10
0.734028
 20
3.629242
 30
0.0
  0
SPLINE
  5
2ea
100
AcDbEntity
  8
Layer_1
 62
3
100
AcDbSpline
 70
8
 71
3
 72
8
 73
4
 74
0
 40
0
 40
0
 40
0
 40
0
 40
1
 40
1
 40
1
 40
1
 10
0.734028
 20
3.629242
 30
0.0
 10
0.735655
 20
3.627614
 30
0.0
 10
0.737735
 20
3.626800
 30
0.0
 10
0.740267
 20
3.626800
 30
0.0
  0
LINE
  5
2eb
100
AcDbEntity
  8
Layer_1
 62
3
100
AcDbLine
 10
0.740267
 20
3.626800
 30
0.0
 11
0.774989
 21
3.626800
 31
0.0
  0
SPLINE
  5
2ec
100
AcDbEntity
  8
Layer_1
 62
3
100
AcDbSpline
 70
8
 71
3
 72
8
 73
4
 74
0
 40
0
 40
0
 40
0
 40
0
 40
1
 40
1
 40
1
 40
1
 10
0.861795
 20
3.626800
 30
0.0
 10
0.864326
 20
3.626800
 30
0.0
 10
0.866406
 20
3.627659
 30
0.0
 10
0.868034
 20
3.629377
 30
0.0
  0
SPLINE
  5
2ed
100
AcDbEntity
  8
Layer_1
 62
3
100
AcDbSpline
 70
8
 71
3
 72
8
 73
4
 74
0
 40
0
 40
0
 40
0
 40
0
 40
1
 40
1
 40
1
 40
1
 10
0.868034
 20
3.629377
 30
0.0
 10
0.869661
 20
3.631095
 30
0.0
 10
0.870475
 20
3.633130
 30
0.0
 10
0.870475
 20
3.635481
 30
0.0
  0
LINE
  5
2ee
100
AcDbEntity
  8
Layer_1
 62
3
100
AcDbLine
 10
0.870475
 20
3.635481
 30
0.0
 11
0.870475
 21
3.757008
 31
0.0
  0
SPLINE
  5
2ef
100
AcDbEntity
  8
Layer_1
 62
3
100
AcDbSpline
 70
8
 71
3
 72
8
 73
4
 74
0
 40
0
 40
0
 40
0
 40
0
 40
1
 40
1
 40
1
 40
1
 10
0.870475
 20
3.757008
 30
0.0
 10
0.870475
 20
3.759359
 30
0.0
 10
0.869616
 20
3.761394
 30
0.0
 10
0.867898
 20
3.763112
 30
0.0
  0
SPLINE
  5
2f0
100
AcDbEntity
  8
Layer_1
 62
3
100
AcDbSpline
 70
8
 71
3
 72
8
 73
4
 74
0
 40
0
 40
0
 40
0
 40
0
 40
1
 40
1
 40
1
 40
1
 10
0.867898
 20
3.763112
 30
0.0
 10
0.866180
 20
3.764830
 30
0.0
 10
0.864146
 20
3.765689
 30
0.0
 10
0.861795
 20
3.765689
 30
0.0
  0
LINE
  5
2f1
100
AcDbEntity
  8
Layer_1
 62
3
100
AcDbLine
 10
0.861795
 20
3.765689
 30
0.0
 11
0.827072
 21
3.765689
 31
0.0
  0
SPLINE
  5
2f2
100
AcDbEntity
  8
Layer_1
 62
3
100
AcDbSpline
 70
8
 71
3
 72
8
 73
4
 74
0
 40
0
 40
0
 40
0
 40
0
 40
1
 40
1
 40
1
 40
1
 10
0.827072
 20
3.765689
 30
0.0
 10
0.824721
 20
3.765689
 30
0.0
 10
0.822687
 20
3.764875
 30
0.0
 10
0.820969
 20
3.763248
 30
0.0
  0
SPLINE
  5
2f3
100
AcDbEntity
  8
Layer_1
 62
3
100
AcDbSpline
 70
8
 71
3
 72
8
 73
4
 74
0
 40
0
 40
0
 40
0
 40
0
 40
1
 40
1
 40
1
 40
1
 10
0.820969
 20
3.763248
 30
0.0
 10
0.819251
 20
3.761620
 30
0.0
 10
0.818392
 20
3.759540
 30
0.0
 10
0.818392
 20
3.757008
 30
0.0
  0
LINE
  5
2f4
100
AcDbEntity
  8
Layer_1
 62
3
100
AcDbLine
 10
0.818392
 20
3.757008
 30
0.0
 11
0.818392
 21
3.635481
 31
0.0
  0
SPLINE
  5
2f5
100
AcDbEntity
  8
Layer_1
 62
3
100
AcDbSpline
 70
8
 71
3
 72
8
 73
4
 74
0
 40
0
 40
0
 40
0
 40
0
 40
1
 40
1
 40
1
 40
1
 10
0.818392
 20
3.635481
 30
0.0
 10
0.818392
 20
3.632949
 30
0.0
 10
0.819206
 20
3.630869
 30
0.0
 10
0.820833
 20
3.629242
 30
0.0
  0
SPLINE
  5
2f6
100
AcDbEntity
  8
Layer_1
 62
3
100
AcDbSpline
 70
8
 71
3
 72
8
 73
4
 74
0
 40
0
 40
0
 40
0
 40
0
 40
1
 40
1
 40
1
 40
1
 10
0.820833
 20
3.629242
 30
0.0
 10
0.822461
 20
3.627614
 30
0.0
 10
0.824541
 20
3.626800
 30
0.0
 10
0.827072
 20
3.626800
 30
0.0
  0
LINE
  5
2f7
100
AcDbEntity
  8
Layer_1
 62
3
100
AcDbLine
 10
0.827072
 20
3.626800
 30
0.0
 11
0.861795
 21
3.626800
 31
0.0
  0
SPLINE
  5
2f8
100
AcDbEntity
  8
Layer_1
 62
3
100
AcDbSpline
 70
8
 71
3
 72
8
 73
4
 74
0
 40
0
 40
0
 40
0
 40
0
 40
1
 40
1
 40
1
 40
1
 10
0.705545
 20
3.574717
 30
0.0
 10
0.703013
 20
3.574717
 30
0.0
 10
0.700933
 20
3.575531
 30
0.0
 10
0.699305
 20
3.577158
 30
0.0
  0
SPLINE
  5
2f9
100
AcDbEntity
  8
Layer_1
 62
3
100
AcDbSpline
 70
8
 71
3
 72
8
 73
4
 74
0
 40
0
 40
0
 40
0
 40
0
 40
1
 40
1
 40
1
 40
1
 10
0.699305
 20
3.577158
 30
0.0
 10
0.697678
 20
3.578786
 30
0.0
 10
0.696864
 20
3.580866
 30
0.0
 10
0.696864
 20
3.583397
 30
0.0
  0
LINE
  5
2fa
100
AcDbEntity
  8
Layer_1
 62
3
100
AcDbLine
 10
0.696864
 20
3.583397
 30
0.0
 11
0.696864
 21
3.809092
 31
0.0
  0
SPLINE
  5
2fb
100
AcDbEntity
  8
Layer_1
 62
3
100
AcDbSpline
 70
8
 71
3
 72
8
 73
4
 74
0
 40
0
 40
0
 40
0
 40
0
 40
1
 40
1
 40
1
 40
1
 10
0.696864
 20
3.809092
 30
0.0
 10
0.696864
 20
3.811624
 30
0.0
 10
0.697723
 20
3.813703
 30
0.0
 10
0.699441
 20
3.815331
 30
0.0
  0
SPLINE
  5
2fc
100
AcDbEntity
  8
Layer_1
 62
3
100
AcDbSpline
 70
8
 71
3
 72
8
 73
4
 74
0
 40
0
 40
0
 40
0
 40
0
 40
1
 40
1
 40
1
 40
1
 10
0.699441
 20
3.815331
 30
0.0
 10
0.701159
 20
3.816959
 30
0.0
 10
0.703194
 20
3.817772
 30
0.0
 10
0.705545
 20
3.817772
 30
0.0
  0
LINE
  5
2fd
100
AcDbEntity
  8
Layer_1
 62
3
100
AcDbLine
 10
0.705545
 20
3.817772
 30
0.0
 11
0.722906
 21
3.817772
 31
0.0
  0
SPLINE
  5
2fe
100
AcDbEntity
  8
Layer_1
 62
3
100
AcDbSpline
 70
8
 71
3
 72
8
 73
4
 74
0
 40
0
 40
0
 40
0
 40
0
 40
1
 40
1
 40
1
 40
1
 10
0.722906
 20
3.817772
 30
0.0
 10
0.724985
 20
3.817772
 30
0.0
 10
0.726523
 20
3.817320
 30
0.0
 10
0.727517
 20
3.816416
 30
0.0
  0
SPLINE
  5
2ff
100
AcDbEntity
  8
Layer_1
 62
3
100
AcDbSpline
 70
8
 71
3
 72
8
 73
4
 74
0
 40
0
 40
0
 40
0
 40
0
 40
1
 40
1
 40
1
 40
1
 10
0.727517
 20
3.816416
 30
0.0
 10
0.728602
 20
3.815602
 30
0.0
 10
0.729416
 20
3.814562
 30
0.0
 10
0.729959
 20
3.813296
 30
0.0
  0
SPLINE
  5
300
100
AcDbEntity
  8
Layer_1
 62
3
100
AcDbSpline
 70
8
 71
3
 72
8
 73
4
 74
0
 40
0
 40
0
 40
0
 40
0
 40
1
 40
1
 40
1
 40
1
 10
0.729959
 20
3.813296
 30
0.0
 10
0.730592
 20
3.812031
 30
0.0
 10
0.731044
 20
3.810629
 30
0.0
 10
0.731315
 20
3.809092
 30
0.0
  0
SPLINE
  5
301
100
AcDbEntity
  8
Layer_1
 62
3
100
AcDbSpline
 70
8
 71
3
 72
8
 73
4
 74
0
 40
0
 40
0
 40
0
 40
0
 40
1
 40
1
 40
1
 40
1
 10
0.731315
 20
3.809092
 30
0.0
 10
0.731677
 20
3.807555
 30
0.0
 10
0.732129
 20
3.806153
 30
0.0
 10
0.732671
 20
3.804887
 30
0.0
  0
SPLINE
  5
302
100
AcDbEntity
  8
Layer_1
 62
3
100
AcDbSpline
 70
8
 71
3
 72
8
 73
4
 74
0
 40
0
 40
0
 40
0
 40
0
 40
1
 40
1
 40
1
 40
1
 10
0.732671
 20
3.804887
 30
0.0
 10
0.733304
 20
3.803621
 30
0.0
 10
0.734163
 20
3.802536
 30
0.0
 10
0.735248
 20
3.801632
 30
0.0
  0
SPLINE
  5
303
100
AcDbEntity
  8
Layer_1
 62
3
100
AcDbSpline
 70
8
 71
3
 72
8
 73
4
 74
0
 40
0
 40
0
 40
0
 40
0
 40
1
 40
1
 40
1
 40
1
 10
0.735248
 20
3.801632
 30
0.0
 10
0.736424
 20
3.800818
 30
0.0
 10
0.738097
 20
3.800411
 30
0.0
 10
0.740267
 20
3.800411
 30
0.0
  0
LINE
  5
304
100
AcDbEntity
  8
Layer_1
 62
3
100
AcDbLine
 10
0.740267
 20
3.800411
 30
0.0
 11
0.861795
 21
3.800411
 31
0.0
  0
SPLINE
  5
305
100
AcDbEntity
  8
Layer_1
 62
3
100
AcDbSpline
 70
8
 71
3
 72
8
 73
4
 74
0
 40
0
 40
0
 40
0
 40
0
 40
1
 40
1
 40
1
 40
1
 10
0.861795
 20
3.800411
 30
0.0
 10
0.863784
 20
3.800411
 30
0.0
 10
0.865321
 20
3.800818
 30
0.0
 10
0.866406
 20
3.801632
 30
0.0
  0
SPLINE
  5
306
100
AcDbEntity
  8
Layer_1
 62
3
100
AcDbSpline
 70
8
 71
3
 72
8
 73
4
 74
0
 40
0
 40
0
 40
0
 40
0
 40
1
 40
1
 40
1
 40
1
 10
0.866406
 20
3.801632
 30
0.0
 10
0.867491
 20
3.802536
 30
0.0
 10
0.868350
 20
3.803621
 30
0.0
 10
0.868983
 20
3.804887
 30
0.0
  0
SPLINE
  5
307
100
AcDbEntity
  8
Layer_1
 62
3
100
AcDbSpline
 70
8
 71
3
 72
8
 73
4
 74
0
 40
0
 40
0
 40
0
 40
0
 40
1
 40
1
 40
1
 40
1
 10
0.868983
 20
3.804887
 30
0.0
 10
0.869616
 20
3.806153
 30
0.0
 10
0.870113
 20
3.807555
 30
0.0
 10
0.870475
 20
3.809092
 30
0.0
  0
SPLINE
  5
308
100
AcDbEntity
  8
Layer_1
 62
3
100
AcDbSpline
 70
8
 71
3
 72
8
 73
4
 74
0
 40
0
 40
0
 40
0
 40
0
 40
1
 40
1
 40
1
 40
1
 10
0.870475
 20
3.809092
 30
0.0
 10
0.870837
 20
3.810629
 30
0.0
 10
0.871334
 20
3.812031
 30
0.0
 10
0.871967
 20
3.813296
 30
0.0
  0
SPLINE
  5
309
100
AcDbEntity
  8
Layer_1
 62
3
100
AcDbSpline
 70
8
 71
3
 72
8
 73
4
 74
0
 40
0
 40
0
 40
0
 40
0
 40
1
 40
1
 40
1
 40
1
 10
0.871967
 20
3.813296
 30
0.0
 10
0.872600
 20
3.814562
 30
0.0
 10
0.873459
 20
3.815602
 30
0.0
 10
0.874544
 20
3.816416
 30
0.0
  0
SPLINE
  5
30a
100
AcDbEntity
  8
Layer_1
 62
3
100
AcDbSpline
 70
8
 71
3
 72
8
 73
4
 74
0
 40
0
 40
0
 40
0
 40
0
 40
1
 40
1
 40
1
 40
1
 10
0.874544
 20
3.816416
 30
0.0
 10
0.875629
 20
3.817320
 30
0.0
 10
0.877166
 20
3.817772
 30
0.0
 10
0.879156
 20
3.817772
 30
0.0
  0
LINE
  5
30b
100
AcDbEntity
  8
Layer_1
 62
3
100
AcDbLine
 10
0.879156
 20
3.817772
 30
0.0
 11
0.896517
 21
3.817772
 31
0.0
  0
SPLINE
  5
30c
100
AcDbEntity
  8
Layer_1
 62
3
100
AcDbSpline
 70
8
 71
3
 72
8
 73
4
 74
0
 40
0
 40
0
 40
0
 40
0
 40
1
 40
1
 40
1
 40
1
 10
0.896517
 20
3.817772
 30
0.0
 10
0.898868
 20
3.817772
 30
0.0
 10
0.900902
 20
3.816913
 30
0.0
 10
0.902620
 20
3.815195
 30
0.0
  0
SPLINE
  5
30d
100
AcDbEntity
  8
Layer_1
 62
3
100
AcDbSpline
 70
8
 71
3
 72
8
 73
4
 74
0
 40
0
 40
0
 40
0
 40
0
 40
1
 40
1
 40
1
 40
1
 10
0.902620
 20
3.815195
 30
0.0
 10
0.904338
 20
3.813477
 30
0.0
 10
0.905197
 20
3.811443
 30
0.0
 10
0.905197
 20
3.809092
 30
0.0
  0
LINE
  5
30e
100
AcDbEntity
  8
Layer_1
 62
3
100
AcDbLine
 10
0.905197
 20
3.809092
 30
0.0
 11
0.905197
 21
3.583397
 31
0.0
  0
SPLINE
  5
30f
100
AcDbEntity
  8
Layer_1
 62
3
100
AcDbSpline
 70
8
 71
3
 72
8
 73
4
 74
0
 40
0
 40
0
 40
0
 40
0
 40
1
 40
1
 40
1
 40
1
 10
0.905197
 20
3.583397
 30
0.0
 10
0.905197
 20
3.581046
 30
0.0
 10
0.904384
 20
3.579012
 30
0.0
 10
0.902756
 20
3.577294
 30
0.0
  0
SPLINE
  5
310
100
AcDbEntity
  8
Layer_1
 62
3
100
AcDbSpline
 70
8
 71
3
 72
8
 73
4
 74
0
 40
0
 40
0
 40
0
 40
0
 40
1
 40
1
 40
1
 40
1
 10
0.902756
 20
3.577294
 30
0.0
 10
0.901128
 20
3.575576
 30
0.0
 10
0.899049
 20
3.574717
 30
0.0
 10
0.896517
 20
3.574717
 30
0.0
  0
LINE
  5
311
100
AcDbEntity
  8
Layer_1
 62
3
100
AcDbLine
 10
0.896517
 20
3.574717
 30
0.0
 11
0.879156
 21
3.574717
 31
0.0
  0
SPLINE
  5
312
100
AcDbEntity
  8
Layer_1
 62
3
100
AcDbSpline
 70
8
 71
3
 72
8
 73
4
 74
0
 40
0
 40
0
 40
0
 40
0
 40
1
 40
1
 40
1
 40
1
 10
0.879156
 20
3.574717
 30
0.0
 10
0.876986
 20
3.574717
 30
0.0
 10
0.875358
 20
3.575124
 30
0.0
 10
0.874273
 20
3.575937
 30
0.0
  0
SPLINE
  5
313
100
AcDbEntity
  8
Layer_1
 62
3
100
AcDbSpline
 70
8
 71
3
 72
8
 73
4
 74
0
 40
0
 40
0
 40
0
 40
0
 40
1
 40
1
 40
1
 40
1
 10
0.874273
 20
3.575937
 30
0.0
 10
0.873188
 20
3.576842
 30
0.0
 10
0.872329
 20
3.577927
 30
0.0
 10
0.871696
 20
3.579193
 30
0.0
  0
SPLINE
  5
314
100
AcDbEntity
  8
Layer_1
 62
3
100
AcDbSpline
 70
8
 71
3
 72
8
 73
4
 74
0
 40
0
 40
0
 40
0
 40
0
 40
1
 40
1
 40
1
 40
1
 10
0.871696
 20
3.579193
 30
0.0
 10
0.871153
 20
3.580459
 30
0.0
 10
0.870746
 20
3.581860
 30
0.0
 10
0.870475
 20
3.583397
 30
0.0
  0
SPLINE
  5
315
100
AcDbEntity
  8
Layer_1
 62
3
100
AcDbSpline
 70
8
 71
3
 72
8
 73
4
 74
0
 40
0
 40
0
 40
0
 40
0
 40
1
 40
1
 40
1
 40
1
 10
0.870475
 20
3.583397
 30
0.0
 10
0.870204
 20
3.584935
 30
0.0
 10
0.869752
 20
3.586336
 30
0.0
 10
0.869119
 20
3.587602
 30
0.0
  0
SPLINE
  5
316
100
AcDbEntity
  8
Layer_1
 62
3
100
AcDbSpline
 70
8
 71
3
 72
8
 73
4
 74
0
 40
0
 40
0
 40
0
 40
0
 40
1
 40
1
 40
1
 40
1
 10
0.869119
 20
3.587602
 30
0.0
 10
0.868576
 20
3.588868
 30
0.0
 10
0.867763
 20
3.589908
 30
0.0
 10
0.866677
 20
3.590722
 30
0.0
  0
SPLINE
  5
317
100
AcDbEntity
  8
Layer_1
 62
3
100
AcDbSpline
 70
8
 71
3
 72
8
 73
4
 74
0
 40
0
 40
0
 40
0
 40
0
 40
1
 40
1
 40
1
 40
1
 10
0.866677
 20
3.590722
 30
0.0
 10
0.865592
 20
3.591626
 30
0.0
 10
0.863965
 20
3.592078
 30
0.0
 10
0.861795
 20
3.592078
 30
0.0
  0
LINE
  5
318
100
AcDbEntity
  8
Layer_1
 62
3
100
AcDbLine
 10
0.861795
 20
3.592078
 30
0.0
 11
0.740267
 21
3.592078
 31
0.0
  0
SPLINE
  5
319
100
AcDbEntity
  8
Layer_1
 62
3
100
AcDbSpline
 70
8
 71
3
 72
8
 73
4
 74
0
 40
0
 40
0
 40
0
 40
0
 40
1
 40
1
 40
1
 40
1
 10
0.740267
 20
3.592078
 30
0.0
 10
0.738097
 20
3.592078
 30
0.0
 10
0.736469
 20
3.591626
 30
0.0
 10
0.735384
 20
3.590722
 30
0.0
  0
SPLINE
  5
31a
100
AcDbEntity
  8
Layer_1
 62
3
100
AcDbSpline
 70
8
 71
3
 72
8
 73
4
 74
0
 40
0
 40
0
 40
0
 40
0
 40
1
 40
1
 40
1
 40
1
 10
0.735384
 20
3.590722
 30
0.0
 10
0.734299
 20
3.589908
 30
0.0
 10
0.733440
 20
3.588868
 30
0.0
 10
0.732807
 20
3.587602
 30
0.0
  0
SPLINE
  5
31b
100
AcDbEntity
  8
Layer_1
 62
3
100
AcDbSpline
 70
8
 71
3
 72
8
 73
4
 74
0
 40
0
 40
0
 40
0
 40
0
 40
1
 40
1
 40
1
 40
1
 10
0.732807
 20
3.587602
 30
0.0
 10
0.732264
 20
3.586336
 30
0.0
 10
0.731858
 20
3.584935
 30
0.0
 10
0.731586
 20
3.583397
 30
0.0
  0
SPLINE
  5
31c
100
AcDbEntity
  8
Layer_1
 62
3
100
AcDbSpline
 70
8
 71
3
 72
8
 73
4
 74
0
 40
0
 40
0
 40
0
 40
0
 40
1
 40
1
 40
1
 40
1
 10
0.731586
 20
3.583397
 30
0.0
 10
0.731315
 20
3.581860
 30
0.0
 10
0.730863
 20
3.580459
 30
0.0
 10
0.730230
 20
3.579193
 30
0.0
  0
SPLINE
  5
31d
100
AcDbEntity
  8
Layer_1
 62
3
100
AcDbSpline
 70
8
 71
3
 72
8
 73
4
 74
0
 40
0
 40
0
 40
0
 40
0
 40
1
 40
1
 40
1
 40
1
 10
0.730230
 20
3.579193
 30
0.0
 10
0.729687
 20
3.577927
 30
0.0
 10
0.728874
 20
3.576842
 30
0.0
 10
0.727789
 20
3.575937
 30
0.0
  0
SPLINE
  5
31e
100
AcDbEntity
  8
Layer_1
 62
3
100
AcDbSpline
 70
8
 71
3
 72
8
 73
4
 74
0
 40
0
 40
0
 40
0
 40
0
 40
1
 40
1
 40
1
 40
1
 10
0.727789
 20
3.575937
 30
0.0
 10
0.726703
 20
3.575124
 30
0.0
 10
0.725076
 20
3.574717
 30
0.0
 10
0.722906
 20
3.574717
 30
0.0
  0
LINE
  5
31f
100
AcDbEntity
  8
Layer_1
 62
3
100
AcDbLine
 10
0.722906
 20
3.574717
 30
0.0
 11
0.705545
 21
3.574717
 31
0.0
  0
SPLINE
  5
320
100
AcDbEntity
  8
Layer_1
 62
3
100
AcDbSpline
 70
8
 71
3
 72
8
 73
4
 74
0
 40
0
 40
0
 40
0
 40
0
 40
1
 40
1
 40
1
 40
1
 10
0.705545
 20
2.901050
 30
0.0
 10
0.703013
 20
2.901050
 30
0.0
 10
0.700933
 20
2.901864
 30
0.0
 10
0.699305
 20
2.903492
 30
0.0
  0
SPLINE
  5
321
100
AcDbEntity
  8
Layer_1
 62
3
100
AcDbSpline
 70
8
 71
3
 72
8
 73
4
 74
0
 40
0
 40
0
 40
0
 40
0
 40
1
 40
1
 40
1
 40
1
 10
0.699305
 20
2.903492
 30
0.0
 10
0.697678
 20
2.905119
 30
0.0
 10
0.696864
 20
2.907199
 30
0.0
 10
0.696864
 20
2.909731
 30
0.0
  0
LINE
  5
322
100
AcDbEntity
  8
Layer_1
 62
3
100
AcDbLine
 10
0.696864
 20
2.909731
 30
0.0
 11
0.696864
 21
2.927092
 31
0.0
  0
SPLINE
  5
323
100
AcDbEntity
  8
Layer_1
 62
3
100
AcDbSpline
 70
8
 71
3
 72
8
 73
4
 74
0
 40
0
 40
0
 40
0
 40
0
 40
1
 40
1
 40
1
 40
1
 10
0.696864
 20
2.927092
 30
0.0
 10
0.696864
 20
2.929081
 30
0.0
 10
0.697271
 20
2.930618
 30
0.0
 10
0.698085
 20
2.931703
 30
0.0
  0
SPLINE
  5
324
100
AcDbEntity
  8
Layer_1
 62
3
100
AcDbSpline
 70
8
 71
3
 72
8
 73
4
 74
0
 40
0
 40
0
 40
0
 40
0
 40
1
 40
1
 40
1
 40
1
 10
0.698085
 20
2.931703
 30
0.0
 10
0.698989
 20
2.932788
 30
0.0
 10
0.700074
 20
2.933647
 30
0.0
 10
0.701340
 20
2.934280
 30
0.0
  0
SPLINE
  5
325
100
AcDbEntity
  8
Layer_1
 62
3
100
AcDbSpline
 70
8
 71
3
 72
8
 73
4
 74
0
 40
0
 40
0
 40
0
 40
0
 40
1
 40
1
 40
1
 40
1
 10
0.701340
 20
2.934280
 30
0.0
 10
0.702606
 20
2.934914
 30
0.0
 10
0.704007
 20
2.935411
 30
0.0
 10
0.705545
 20
2.935772
 30
0.0
  0
SPLINE
  5
326
100
AcDbEntity
  8
Layer_1
 62
3
100
AcDbSpline
 70
8
 71
3
 72
8
 73
4
 74
0
 40
0
 40
0
 40
0
 40
0
 40
1
 40
1
 40
1
 40
1
 10
0.705545
 20
2.935772
 30
0.0
 10
0.707082
 20
2.936134
 30
0.0
 10
0.708483
 20
2.936631
 30
0.0
 10
0.709749
 20
2.937264
 30
0.0
  0
SPLINE
  5
327
100
AcDbEntity
  8
Layer_1
 62
3
100
AcDbSpline
 70
8
 71
3
 72
8
 73
4
 74
0
 40
0
 40
0
 40
0
 40
0
 40
1
 40
1
 40
1
 40
1
 10
0.709749
 20
2.937264
 30
0.0
 10
0.711015
 20
2.937898
 30
0.0
 10
0.712055
 20
2.938757
 30
0.0
 10
0.712869
 20
2.939841
 30
0.0
  0
SPLINE
  5
328
100
AcDbEntity
  8
Layer_1
 62
3
100
AcDbSpline
 70
8
 71
3
 72
8
 73
4
 74
0
 40
0
 40
0
 40
0
 40
0
 40
1
 40
1
 40
1
 40
1
 10
0.712869
 20
2.939841
 30
0.0
 10
0.713773
 20
2.940927
 30
0.0
 10
0.714225
 20
2.942464
 30
0.0
 10
0.714225
 20
2.944453
 30
0.0
  0
LINE
  5
329
100
AcDbEntity
  8
Layer_1
 62
3
100
AcDbLine
 10
0.714225
 20
2.944453
 30
0.0
 11
0.714225
 21
3.126745
 31
0.0
  0
SPLINE
  5
32a
100
AcDbEntity
  8
Layer_1
 62
3
100
AcDbSpline
 70
8
 71
3
 72
8
 73
4
 74
0
 40
0
 40
0
 40
0
 40
0
 40
1
 40
1
 40
1
 40
1
 10
0.714225
 20
3.126745
 30
0.0
 10
0.714225
 20
3.129096
 30
0.0
 10
0.714677
 20
3.131311
 30
0.0
 10
0.715582
 20
3.133391
 30
0.0
  0
SPLINE
  5
32b
100
AcDbEntity
  8
Layer_1
 62
3
100
AcDbSpline
 70
8
 71
3
 72
8
 73
4
 74
0
 40
0
 40
0
 40
0
 40
0
 40
1
 40
1
 40
1
 40
1
 10
0.715582
 20
3.133391
 30
0.0
 10
0.716576
 20
3.135470
 30
0.0
 10
0.717842
 20
3.137279
 30
0.0
 10
0.719379
 20
3.138816
 30
0.0
  0
SPLINE
  5
32c
100
AcDbEntity
  8
Layer_1
 62
3
100
AcDbSpline
 70
8
 71
3
 72
8
 73
4
 74
0
 40
0
 40
0
 40
0
 40
0
 40
1
 40
1
 40
1
 40
1
 10
0.719379
 20
3.138816
 30
0.0
 10
0.721007
 20
3.140444
 30
0.0
 10
0.722861
 20
3.141710
 30
0.0
 10
0.724940
 20
3.142614
 30
0.0
  0
SPLINE
  5
32d
100
AcDbEntity
  8
Layer_1
 62
3
100
AcDbSpline
 70
8
 71
3
 72
8
 73
4
 74
0
 40
0
 40
0
 40
0
 40
0
 40
1
 40
1
 40
1
 40
1
 10
0.724940
 20
3.142614
 30
0.0
 10
0.727020
 20
3.143608
 30
0.0
 10
0.729235
 20
3.144106
 30
0.0
 10
0.731586
 20
3.144106
 30
0.0
  0
LINE
  5
32e
100
AcDbEntity
  8
Layer_1
 62
3
100
AcDbLine
 10
0.731586
 20
3.144106
 30
0.0
 11
0.887836
 21
3.144106
 31
0.0
  0
SPLINE
  5
32f
100
AcDbEntity
  8
Layer_1
 62
3
100
AcDbSpline
 70
8
 71
3
 72
8
 73
4
 74
0
 40
0
 40
0
 40
0
 40
0
 40
1
 40
1
 40
1
 40
1
 10
0.887836
 20
3.144106
 30
0.0
 10
0.890187
 20
3.144106
 30
0.0
 10
0.892403
 20
3.143608
 30
0.0
 10
0.894482
 20
3.142614
 30
0.0
  0
SPLINE
  5
330
100
AcDbEntity
  8
Layer_1
 62
3
100
AcDbSpline
 70
8
 71
3
 72
8
 73
4
 74
0
 40
0
 40
0
 40
0
 40
0
 40
1
 40
1
 40
1
 40
1
 10
0.894482
 20
3.142614
 30
0.0
 10
0.896562
 20
3.141710
 30
0.0
 10
0.898370
 20
3.140444
 30
0.0
 10
0.899908
 20
3.138816
 30
0.0
  0
SPLINE
  5
331
100
AcDbEntity
  8
Layer_1
 62
3
100
AcDbSpline
 70
8
 71
3
 72
8
 73
4
 74
0
 40
0
 40
0
 40
0
 40
0
 40
1
 40
1
 40
1
 40
1
 10
0.899908
 20
3.138816
 30
0.0
 10
0.901535
 20
3.137279
 30
0.0
 10
0.902801
 20
3.135470
 30
0.0
 10
0.903705
 20
3.133391
 30
0.0
  0
SPLINE
  5
332
100
AcDbEntity
  8
Layer_1
 62
3
100
AcDbSpline
 70
8
 71
3
 72
8
 73
4
 74
0
 40
0
 40
0
 40
0
 40
0
 40
1
 40
1
 40
1
 40
1
 10
0.903705
 20
3.133391
 30
0.0
 10
0.904700
 20
3.131311
 30
0.0
 10
0.905197
 20
3.129096
 30
0.0
 10
0.905197
 20
3.126745
 30
0.0
  0
LINE
  5
333
100
AcDbEntity
  8
Layer_1
 62
3
100
AcDbLine
 10
0.905197
 20
3.126745
 30
0.0
 11
0.905197
 21
2.909731
 31
0.0
  0
SPLINE
  5
334
100
AcDbEntity
  8
Layer_1
 62
3
100
AcDbSpline
 70
8
 71
3
 72
8
 73
4
 74
0
 40
0
 40
0
 40
0
 40
0
 40
1
 40
1
 40
1
 40
1
 10
0.905197
 20
2.909731
 30
0.0
 10
0.905197
 20
2.907380
 30
0.0
 10
0.904384
 20
2.905345
 30
0.0
 10
0.902756
 20
2.903627
 30
0.0
  0
SPLINE
  5
335
100
AcDbEntity
  8
Layer_1
 62
3
100
AcDbSpline
 70
8
 71
3
 72
8
 73
4
 74
0
 40
0
 40
0
 40
0
 40
0
 40
1
 40
1
 40
1
 40
1
 10
0.902756
 20
2.903627
 30
0.0
 10
0.901128
 20
2.901909
 30
0.0
 10
0.899049
 20
2.901050
 30
0.0
 10
0.896517
 20
2.901050
 30
0.0
  0
LINE
  5
336
100
AcDbEntity
  8
Layer_1
 62
3
100
AcDbLine
 10
0.896517
 20
2.901050
 30
0.0
 11
0.879156
 21
2.901050
 31
0.0
  0
SPLINE
  5
337
100
AcDbEntity
  8
Layer_1
 62
3
100
AcDbSpline
 70
8
 71
3
 72
8
 73
4
 74
0
 40
0
 40
0
 40
0
 40
0
 40
1
 40
1
 40
1
 40
1
 10
0.879156
 20
2.901050
 30
0.0
 10
0.876624
 20
2.901050
 30
0.0
 10
0.874544
 20
2.901864
 30
0.0
 10
0.872917
 20
2.903492
 30
0.0
  0
SPLINE
  5
338
100
AcDbEntity
  8
Layer_1
 62
3
100
AcDbSpline
 70
8
 71
3
 72
8
 73
4
 74
0
 40
0
 40
0
 40
0
 40
0
 40
1
 40
1
 40
1
 40
1
 10
0.872917
 20
2.903492
 30
0.0
 10
0.871289
 20
2.905119
 30
0.0
 10
0.870475
 20
2.907199
 30
0.0
 10
0.870475
 20
2.909731
 30
0.0
  0
LINE
  5
339
100
AcDbEntity
  8
Layer_1
 62
3
100
AcDbLine
 10
0.870475
 20
2.909731
 30
0.0
 11
0.870475
 21
3.100703
 31
0.0
  0
SPLINE
  5
33a
100
AcDbEntity
  8
Layer_1
 62
3
100
AcDbSpline
 70
8
 71
3
 72
8
 73
4
 74
0
 40
0
 40
0
 40
0
 40
0
 40
1
 40
1
 40
1
 40
1
 10
0.870475
 20
3.100703
 30
0.0
 10
0.870475
 20
3.103054
 30
0.0
 10
0.869616
 20
3.105088
 30
0.0
 10
0.867898
 20
3.106807
 30
0.0
  0
SPLINE
  5
33b
100
AcDbEntity
  8
Layer_1
 62
3
100
AcDbSpline
 70
8
 71
3
 72
8
 73
4
 74
0
 40
0
 40
0
 40
0
 40
0
 40
1
 40
1
 40
1
 40
1
 10
0.867898
 20
3.106807
 30
0.0
 10
0.866180
 20
3.108525
 30
0.0
 10
0.864146
 20
3.109384
 30
0.0
 10
0.861795
 20
3.109384
 30
0.0
  0
LINE
  5
33c
100
AcDbEntity
  8
Layer_1
 62
3
100
AcDbLine
 10
0.861795
 20
3.109384
 30
0.0
 11
0.757628
 21
3.109384
 31
0.0
  0
SPLINE
  5
33d
100
AcDbEntity
  8
Layer_1
 62
3
100
AcDbSpline
 70
8
 71
3
 72
8
 73
4
 74
0
 40
0
 40
0
 40
0
 40
0
 40
1
 40
1
 40
1
 40
1
 10
0.757628
 20
3.109384
 30
0.0
 10
0.755277
 20
3.109384
 30
0.0
 10
0.753242
 20
3.108570
 30
0.0
 10
0.751524
 20
3.106942
 30
0.0
  0
SPLINE
  5
33e
100
AcDbEntity
  8
Layer_1
 62
3
100
AcDbSpline
 70
8
 71
3
 72
8
 73
4
 74
0
 40
0
 40
0
 40
0
 40
0
 40
1
 40
1
 40
1
 40
1
 10
0.751524
 20
3.106942
 30
0.0
 10
0.749806
 20
3.105315
 30
0.0
 10
0.748947
 20
3.103235
 30
0.0
 10
0.748947
 20
3.100703
 30
0.0
  0
LINE
  5
33f
100
AcDbEntity
  8
Layer_1
 62
3
100
AcDbLine
 10
0.748947
 20
3.100703
 30
0.0
 11
0.748947
 21
2.918411
 31
0.0
  0
SPLINE
  5
340
100
AcDbEntity
  8
Layer_1
 62
3
100
AcDbSpline
 70
8
 71
3
 72
8
 73
4
 74
0
 40
0
 40
0
 40
0
 40
0
 40
1
 40
1
 40
1
 40
1
 10
0.748947
 20
2.918411
 30
0.0
 10
0.748947
 20
2.916060
 30
0.0
 10
0.748450
 20
2.913845
 30
0.0
 10
0.747455
 20
2.911765
 30
0.0
  0
SPLINE
  5
341
100
AcDbEntity
  8
Layer_1
 62
3
100
AcDbSpline
 70
8
 71
3
 72
8
 73
4
 74
0
 40
0
 40
0
 40
0
 40
0
 40
1
 40
1
 40
1
 40
1
 10
0.747455
 20
2.911765
 30
0.0
 10
0.746551
 20
2.909686
 30
0.0
 10
0.745285
 20
2.907832
 30
0.0
 10
0.743658
 20
2.906204
 30
0.0
  0
SPLINE
  5
342
100
AcDbEntity
  8
Layer_1
 62
3
100
AcDbSpline
 70
8
 71
3
 72
8
 73
4
 74
0
 40
0
 40
0
 40
0
 40
0
 40
1
 40
1
 40
1
 40
1
 10
0.743658
 20
2.906204
 30
0.0
 10
0.742120
 20
2.904667
 30
0.0
 10
0.740312
 20
2.903401
 30
0.0
 10
0.738232
 20
2.902407
 30
0.0
  0
SPLINE
  5
343
100
AcDbEntity
  8
Layer_1
 62
3
100
AcDbSpline
 70
8
 71
3
 72
8
 73
4
 74
0
 40
0
 40
0
 40
0
 40
0
 40
1
 40
1
 40
1
 40
1
 10
0.738232
 20
2.902407
 30
0.0
 10
0.736153
 20
2.901502
 30
0.0
 10
0.733937
 20
2.901050
 30
0.0
 10
0.731586
 20
2.901050
 30
0.0
  0
LINE
  5
344
100
AcDbEntity
  8
Layer_1
 62
3
100
AcDbLine
 10
0.731586
 20
2.901050
 30
0.0
 11
0.705545
 21
2.901050
 31
0.0
  0
SPLINE
  5
345
100
AcDbEntity
  8
Layer_1
 62
3
100
AcDbSpline
 70
8
 71
3
 72
8
 73
4
 74
0
 40
0
 40
0
 40
0
 40
0
 40
1
 40
1
 40
1
 40
1
 10
0.705545
 20
2.227384
 30
0.0
 10
0.703013
 20
2.227384
 30
0.0
 10
0.700933
 20
2.228197
 30
0.0
 10
0.699305
 20
2.229825
 30
0.0
  0
SPLINE
  5
346
100
AcDbEntity
  8
Layer_1
 62
3
100
AcDbSpline
 70
8
 71
3
 72
8
 73
4
 74
0
 40
0
 40
0
 40
0
 40
0
 40
1
 40
1
 40
1
 40
1
 10
0.699305
 20
2.229825
 30
0.0
 10
0.697678
 20
2.231453
 30
0.0
 10
0.696864
 20
2.233532
 30
0.0
 10
0.696864
 20
2.236064
 30
0.0
  0
LINE
  5
347
100
AcDbEntity
  8
Layer_1
 62
3
100
AcDbLine
 10
0.696864
 20
2.236064
 30
0.0
 11
0.696864
 21
2.253425
 31
0.0
  0
SPLINE
  5
348
100
AcDbEntity
  8
Layer_1
 62
3
100
AcDbSpline
 70
8
 71
3
 72
8
 73
4
 74
0
 40
0
 40
0
 40
0
 40
0
 40
1
 40
1
 40
1
 40
1
 10
0.696864
 20
2.253425
 30
0.0
 10
0.696864
 20
2.255957
 30
0.0
 10
0.697723
 20
2.258037
 30
0.0
 10
0.699441
 20
2.259664
 30
0.0
  0
SPLINE
  5
349
100
AcDbEntity
  8
Layer_1
 62
3
100
AcDbSpline
 70
8
 71
3
 72
8
 73
4
 74
0
 40
0
 40
0
 40
0
 40
0
 40
1
 40
1
 40
1
 40
1
 10
0.699441
 20
2.259664
 30
0.0
 10
0.701159
 20
2.261292
 30
0.0
 10
0.703194
 20
2.262106
 30
0.0
 10
0.705545
 20
2.262106
 30
0.0
  0
LINE
  5
34a
100
AcDbEntity
  8
Layer_1
 62
3
100
AcDbLine
 10
0.705545
 20
2.262106
 30
0.0
 11
0.774989
 21
2.262106
 31
0.0
  0
SPLINE
  5
34b
100
AcDbEntity
  8
Layer_1
 62
3
100
AcDbSpline
 70
8
 71
3
 72
8
 73
4
 74
0
 40
0
 40
0
 40
0
 40
0
 40
1
 40
1
 40
1
 40
1
 10
0.774989
 20
2.262106
 30
0.0
 10
0.777521
 20
2.262106
 30
0.0
 10
0.779601
 20
2.262965
 30
0.0
 10
0.781228
 20
2.264683
 30
0.0
  0
SPLINE
  5
34c
100
AcDbEntity
  8
Layer_1
 62
3
100
AcDbSpline
 70
8
 71
3
 72
8
 73
4
 74
0
 40
0
 40
0
 40
0
 40
0
 40
1
 40
1
 40
1
 40
1
 10
0.781228
 20
2.264683
 30
0.0
 10
0.782856
 20
2.266401
 30
0.0
 10
0.783670
 20
2.268435
 30
0.0
 10
0.783670
 20
2.270786
 30
0.0
  0
LINE
  5
34d
100
AcDbEntity
  8
Layer_1
 62
3
100
AcDbLine
 10
0.783670
 20
2.270786
 30
0.0
 11
0.783670
 21
2.322870
 31
0.0
  0
SPLINE
  5
34e
100
AcDbEntity
  8
Layer_1
 62
3
100
AcDbSpline
 70
8
 71
3
 72
8
 73
4
 74
0
 40
0
 40
0
 40
0
 40
0
 40
1
 40
1
 40
1
 40
1
 10
0.783670
 20
2.322870
 30
0.0
 10
0.783670
 20
2.325221
 30
0.0
 10
0.782811
 20
2.327255
 30
0.0
 10
0.781093
 20
2.328973
 30
0.0
  0
SPLINE
  5
34f
100
AcDbEntity
  8
Layer_1
 62
3
100
AcDbSpline
 70
8
 71
3
 72
8
 73
4
 74
0
 40
0
 40
0
 40
0
 40
0
 40
1
 40
1
 40
1
 40
1
 10
0.781093
 20
2.328973
 30
0.0
 10
0.779375
 20
2.330691
 30
0.0
 10
0.777340
 20
2.331550
 30
0.0
 10
0.774989
 20
2.331550
 30
0.0
  0
LINE
  5
350
100
AcDbEntity
  8
Layer_1
 62
3
100
AcDbLine
 10
0.774989
 20
2.331550
 30
0.0
 11
0.714225
 21
2.331550
 31
0.0
  0
SPLINE
  5
351
100
AcDbEntity
  8
Layer_1
 62
3
100
AcDbSpline
 70
8
 71
3
 72
8
 73
4
 74
0
 40
0
 40
0
 40
0
 40
0
 40
1
 40
1
 40
1
 40
1
 10
0.714225
 20
2.331550
 30
0.0
 10
0.711784
 20
2.331550
 30
0.0
 10
0.709478
 20
2.332002
 30
0.0
 10
0.707308
 20
2.332907
 30
0.0
  0
SPLINE
  5
352
100
AcDbEntity
  8
Layer_1
 62
3
100
AcDbSpline
 70
8
 71
3
 72
8
 73
4
 74
0
 40
0
 40
0
 40
0
 40
0
 40
1
 40
1
 40
1
 40
1
 10
0.707308
 20
2.332907
 30
0.0
 10
0.705228
 20
2.333811
 30
0.0
 10
0.703420
 20
2.335032
 30
0.0
 10
0.701882
 20
2.336569
 30
0.0
  0
SPLINE
  5
353
100
AcDbEntity
  8
Layer_1
 62
3
100
AcDbSpline
 70
8
 71
3
 72
8
 73
4
 74
0
 40
0
 40
0
 40
0
 40
0
 40
1
 40
1
 40
1
 40
1
 10
0.701882
 20
2.336569
 30
0.0
 10
0.700345
 20
2.338106
 30
0.0
 10
0.699125
 20
2.339914
 30
0.0
 10
0.698220
 20
2.341994
 30
0.0
  0
SPLINE
  5
354
100
AcDbEntity
  8
Layer_1
 62
3
100
AcDbSpline
 70
8
 71
3
 72
8
 73
4
 74
0
 40
0
 40
0
 40
0
 40
0
 40
1
 40
1
 40
1
 40
1
 10
0.698220
 20
2.341994
 30
0.0
 10
0.697316
 20
2.344164
 30
0.0
 10
0.696864
 20
2.346470
 30
0.0
 10
0.696864
 20
2.348911
 30
0.0
  0
LINE
  5
355
100
AcDbEntity
  8
Layer_1
 62
3
100
AcDbLine
 10
0.696864
 20
2.348911
 30
0.0
 11
0.696864
 21
2.461759
 31
0.0
  0
SPLINE
  5
356
100
AcDbEntity
  8
Layer_1
 62
3
100
AcDbSpline
 70
8
 71
3
 72
8
 73
4
 74
0
 40
0
 40
0
 40
0
 40
0
 40
1
 40
1
 40
1
 40
1
 10
0.696864
 20
2.461759
 30
0.0
 10
0.696864
 20
2.464291
 30
0.0
 10
0.697723
 20
2.466370
 30
0.0
 10
0.699441
 20
2.467998
 30
0.0
  0
SPLINE
  5
357
100
AcDbEntity
  8
Layer_1
 62
3
100
AcDbSpline
 70
8
 71
3
 72
8
 73
4
 74
0
 40
0
 40
0
 40
0
 40
0
 40
1
 40
1
 40
1
 40
1
 10
0.699441
 20
2.467998
 30
0.0
 10
0.701159
 20
2.469625
 30
0.0
 10
0.703194
 20
2.470439
 30
0.0
 10
0.705545
 20
2.470439
 30
0.0
  0
LINE
  5
358
100
AcDbEntity
  8
Layer_1
 62
3
100
AcDbLine
 10
0.705545
 20
2.470439
 30
0.0
 11
0.722906
 21
2.470439
 31
0.0
  0
SPLINE
  5
359
100
AcDbEntity
  8
Layer_1
 62
3
100
AcDbSpline
 70
8
 71
3
 72
8
 73
4
 74
0
 40
0
 40
0
 40
0
 40
0
 40
1
 40
1
 40
1
 40
1
 10
0.722906
 20
2.470439
 30
0.0
 10
0.725257
 20
2.470439
 30
0.0
 10
0.727291
 20
2.469580
 30
0.0
 10
0.729009
 20
2.467862
 30
0.0
  0
SPLINE
  5
35a
100
AcDbEntity
  8
Layer_1
 62
3
100
AcDbSpline
 70
8
 71
3
 72
8
 73
4
 74
0
 40
0
 40
0
 40
0
 40
0
 40
1
 40
1
 40
1
 40
1
 10
0.729009
 20
2.467862
 30
0.0
 10
0.730727
 20
2.466144
 30
0.0
 10
0.731586
 20
2.464110
 30
0.0
 10
0.731586
 20
2.461759
 30
0.0
  0
LINE
  5
35b
100
AcDbEntity
  8
Layer_1
 62
3
100
AcDbLine
 10
0.731586
 20
2.461759
 30
0.0
 11
0.731586
 21
2.374953
 31
0.0
  0
SPLINE
  5
35c
100
AcDbEntity
  8
Layer_1
 62
3
100
AcDbSpline
 70
8
 71
3
 72
8
 73
4
 74
0
 40
0
 40
0
 40
0
 40
0
 40
1
 40
1
 40
1
 40
1
 10
0.731586
 20
2.374953
 30
0.0
 10
0.731586
 20
2.372421
 30
0.0
 10
0.732400
 20
2.370342
 30
0.0
 10
0.734028
 20
2.368714
 30
0.0
  0
SPLINE
  5
35d
100
AcDbEntity
  8
Layer_1
 62
3
100
AcDbSpline
 70
8
 71
3
 72
8
 73
4
 74
0
 40
0
 40
0
 40
0
 40
0
 40
1
 40
1
 40
1
 40
1
 10
0.734028
 20
2.368714
 30
0.0
 10
0.735655
 20
2.367086
 30
0.0
 10
0.737735
 20
2.366273
 30
0.0
 10
0.740267
 20
2.366273
 30
0.0
  0
LINE
  5
35e
100
AcDbEntity
  8
Layer_1
 62
3
100
AcDbLine
 10
0.740267
 20
2.366273
 30
0.0
 11
0.861795
 21
2.366273
 31
0.0
  0
SPLINE
  5
35f
100
AcDbEntity
  8
Layer_1
 62
3
100
AcDbSpline
 70
8
 71
3
 72
8
 73
4
 74
0
 40
0
 40
0
 40
0
 40
0
 40
1
 40
1
 40
1
 40
1
 10
0.861795
 20
2.366273
 30
0.0
 10
0.864326
 20
2.366273
 30
0.0
 10
0.866406
 20
2.367132
 30
0.0
 10
0.868034
 20
2.368850
 30
0.0
  0
SPLINE
  5
360
100
AcDbEntity
  8
Layer_1
 62
3
100
AcDbSpline
 70
8
 71
3
 72
8
 73
4
 74
0
 40
0
 40
0
 40
0
 40
0
 40
1
 40
1
 40
1
 40
1
 10
0.868034
 20
2.368850
 30
0.0
 10
0.869661
 20
2.370568
 30
0.0
 10
0.870475
 20
2.372602
 30
0.0
 10
0.870475
 20
2.374953
 30
0.0
  0
LINE
  5
361
100
AcDbEntity
  8
Layer_1
 62
3
100
AcDbLine
 10
0.870475
 20
2.374953
 30
0.0
 11
0.870475
 21
2.461759
 31
0.0
  0
SPLINE
  5
362
100
AcDbEntity
  8
Layer_1
 62
3
100
AcDbSpline
 70
8
 71
3
 72
8
 73
4
 74
0
 40
0
 40
0
 40
0
 40
0
 40
1
 40
1
 40
1
 40
1
 10
0.870475
 20
2.461759
 30
0.0
 10
0.870475
 20
2.464291
 30
0.0
 10
0.871334
 20
2.466370
 30
0.0
 10
0.873052
 20
2.467998
 30
0.0
  0
SPLINE
  5
363
100
AcDbEntity
  8
Layer_1
 62
3
100
AcDbSpline
 70
8
 71
3
 72
8
 73
4
 74
0
 40
0
 40
0
 40
0
 40
0
 40
1
 40
1
 40
1
 40
1
 10
0.873052
 20
2.467998
 30
0.0
 10
0.874770
 20
2.469625
 30
0.0
 10
0.876805
 20
2.470439
 30
0.0
 10
0.879156
 20
2.470439
 30
0.0
  0
LINE
  5
364
100
AcDbEntity
  8
Layer_1
 62
3
100
AcDbLine
 10
0.879156
 20
2.470439
 30
0.0
 11
0.896517
 21
2.470439
 31
0.0
  0
SPLINE
  5
365
100
AcDbEntity
  8
Layer_1
 62
3
100
AcDbSpline
 70
8
 71
3
 72
8
 73
4
 74
0
 40
0
 40
0
 40
0
 40
0
 40
1
 40
1
 40
1
 40
1
 10
0.896517
 20
2.470439
 30
0.0
 10
0.898868
 20
2.470439
 30
0.0
 10
0.900902
 20
2.469580
 30
0.0
 10
0.902620
 20
2.467862
 30
0.0
  0
SPLINE
  5
366
100
AcDbEntity
  8
Layer_1
 62
3
100
AcDbSpline
 70
8
 71
3
 72
8
 73
4
 74
0
 40
0
 40
0
 40
0
 40
0
 40
1
 40
1
 40
1
 40
1
 10
0.902620
 20
2.467862
 30
0.0
 10
0.904338
 20
2.466144
 30
0.0
 10
0.905197
 20
2.464110
 30
0.0
 10
0.905197
 20
2.461759
 30
0.0
  0
LINE
  5
367
100
AcDbEntity
  8
Layer_1
 62
3
100
AcDbLine
 10
0.905197
 20
2.461759
 30
0.0
 11
0.905197
 21
2.348911
 31
0.0
  0
SPLINE
  5
368
100
AcDbEntity
  8
Layer_1
 62
3
100
AcDbSpline
 70
8
 71
3
 72
8
 73
4
 74
0
 40
0
 40
0
 40
0
 40
0
 40
1
 40
1
 40
1
 40
1
 10
0.905197
 20
2.348911
 30
0.0
 10
0.905197
 20
2.346560
 30
0.0
 10
0.904700
 20
2.344345
 30
0.0
 10
0.903705
 20
2.342265
 30
0.0
  0
SPLINE
  5
369
100
AcDbEntity
  8
Layer_1
 62
3
100
AcDbSpline
 70
8
 71
3
 72
8
 73
4
 74
0
 40
0
 40
0
 40
0
 40
0
 40
1
 40
1
 40
1
 40
1
 10
0.903705
 20
2.342265
 30
0.0
 10
0.902801
 20
2.340186
 30
0.0
 10
0.901535
 20
2.338332
 30
0.0
 10
0.899908
 20
2.336704
 30
0.0
  0
SPLINE
  5
36a
100
AcDbEntity
  8
Layer_1
 62
3
100
AcDbSpline
 70
8
 71
3
 72
8
 73
4
 74
0
 40
0
 40
0
 40
0
 40
0
 40
1
 40
1
 40
1
 40
1
 10
0.899908
 20
2.336704
 30
0.0
 10
0.898370
 20
2.335167
 30
0.0
 10
0.896562
 20
2.333901
 30
0.0
 10
0.894482
 20
2.332907
 30
0.0
  0
SPLINE
  5
36b
100
AcDbEntity
  8
Layer_1
 62
3
100
AcDbSpline
 70
8
 71
3
 72
8
 73
4
 74
0
 40
0
 40
0
 40
0
 40
0
 40
1
 40
1
 40
1
 40
1
 10
0.894482
 20
2.332907
 30
0.0
 10
0.892403
 20
2.332002
 30
0.0
 10
0.890187
 20
2.331550
 30
0.0
 10
0.887836
 20
2.331550
 30
0.0
  0
LINE
  5
36c
100
AcDbEntity
  8
Layer_1
 62
3
100
AcDbLine
 10
0.887836
 20
2.331550
 30
0.0
 11
0.827072
 21
2.331550
 31
0.0
  0
SPLINE
  5
36d
100
AcDbEntity
  8
Layer_1
 62
3
100
AcDbSpline
 70
8
 71
3
 72
8
 73
4
 74
0
 40
0
 40
0
 40
0
 40
0
 40
1
 40
1
 40
1
 40
1
 10
0.827072
 20
2.331550
 30
0.0
 10
0.824721
 20
2.331550
 30
0.0
 10
0.822687
 20
2.330737
 30
0.0
 10
0.820969
 20
2.329109
 30
0.0
  0
SPLINE
  5
36e
100
AcDbEntity
  8
Layer_1
 62
3
100
AcDbSpline
 70
8
 71
3
 72
8
 73
4
 74
0
 40
0
 40
0
 40
0
 40
0
 40
1
 40
1
 40
1
 40
1
 10
0.820969
 20
2.329109
 30
0.0
 10
0.819251
 20
2.327481
 30
0.0
 10
0.818392
 20
2.325402
 30
0.0
 10
0.818392
 20
2.322870
 30
0.0
  0
LINE
  5
36f
100
AcDbEntity
  8
Layer_1
 62
3
100
AcDbLine
 10
0.818392
 20
2.322870
 30
0.0
 11
0.818392
 21
2.270786
 31
0.0
  0
SPLINE
  5
370
100
AcDbEntity
  8
Layer_1
 62
3
100
AcDbSpline
 70
8
 71
3
 72
8
 73
4
 74
0
 40
0
 40
0
 40
0
 40
0
 40
1
 40
1
 40
1
 40
1
 10
0.818392
 20
2.270786
 30
0.0
 10
0.818392
 20
2.268255
 30
0.0
 10
0.819206
 20
2.266175
 30
0.0
 10
0.820833
 20
2.264547
 30
0.0
  0
SPLINE
  5
371
100
AcDbEntity
  8
Layer_1
 62
3
100
AcDbSpline
 70
8
 71
3
 72
8
 73
4
 74
0
 40
0
 40
0
 40
0
 40
0
 40
1
 40
1
 40
1
 40
1
 10
0.820833
 20
2.264547
 30
0.0
 10
0.822461
 20
2.262920
 30
0.0
 10
0.824541
 20
2.262106
 30
0.0
 10
0.827072
 20
2.262106
 30
0.0
  0
LINE
  5
372
100
AcDbEntity
  8
Layer_1
 62
3
100
AcDbLine
 10
0.827072
 20
2.262106
 30
0.0
 11
0.896517
 21
2.262106
 31
0.0
  0
SPLINE
  5
373
100
AcDbEntity
  8
Layer_1
 62
3
100
AcDbSpline
 70
8
 71
3
 72
8
 73
4
 74
0
 40
0
 40
0
 40
0
 40
0
 40
1
 40
1
 40
1
 40
1
 10
0.896517
 20
2.262106
 30
0.0
 10
0.898868
 20
2.262106
 30
0.0
 10
0.900902
 20
2.261247
 30
0.0
 10
0.902620
 20
2.259529
 30
0.0
  0
SPLINE
  5
374
100
AcDbEntity
  8
Layer_1
 62
3
100
AcDbSpline
 70
8
 71
3
 72
8
 73
4
 74
0
 40
0
 40
0
 40
0
 40
0
 40
1
 40
1
 40
1
 40
1
 10
0.902620
 20
2.259529
 30
0.0
 10
0.904338
 20
2.257811
 30
0.0
 10
0.905197
 20
2.255776
 30
0.0
 10
0.905197
 20
2.253425
 30
0.0
  0
LINE
  5
375
100
AcDbEntity
  8
Layer_1
 62
3
100
AcDbLine
 10
0.905197
 20
2.253425
 30
0.0
 11
0.905197
 21
2.236064
 31
0.0
  0
SPLINE
  5
376
100
AcDbEntity
  8
Layer_1
 62
3
100
AcDbSpline
 70
8
 71
3
 72
8
 73
4
 74
0
 40
0
 40
0
 40
0
 40
0
 40
1
 40
1
 40
1
 40
1
 10
0.905197
 20
2.236064
 30
0.0
 10
0.905197
 20
2.233713
 30
0.0
 10
0.904384
 20
2.231679
 30
0.0
 10
0.902756
 20
2.229961
 30
0.0
  0
SPLINE
  5
377
100
AcDbEntity
  8
Layer_1
 62
3
100
AcDbSpline
 70
8
 71
3
 72
8
 73
4
 74
0
 40
0
 40
0
 40
0
 40
0
 40
1
 40
1
 40
1
 40
1
 10
0.902756
 20
2.229961
 30
0.0
 10
0.901128
 20
2.228243
 30
0.0
 10
0.899049
 20
2.227384
 30
0.0
 10
0.896517
 20
2.227384
 30
0.0
  0
LINE
  5
378
100
AcDbEntity
  8
Layer_1
 62
3
100
AcDbLine
 10
0.896517
 20
2.227384
 30
0.0
 11
0.705545
 21
2.227384
 31
0.0
  0
SPLINE
  5
379
100
AcDbEntity
  8
Layer_1
 62
3
100
AcDbSpline
 70
8
 71
3
 72
8
 73
4
 74
0
 40
0
 40
0
 40
0
 40
0
 40
1
 40
1
 40
1
 40
1
 10
0.774989
 20
1.657884
 30
0.0
 10
0.777521
 20
1.657884
 30
0.0
 10
0.779601
 20
1.658743
 30
0.0
 10
0.781228
 20
1.660461
 30
0.0
  0
SPLINE
  5
37a
100
AcDbEntity
  8
Layer_1
 62
3
100
AcDbSpline
 70
8
 71
3
 72
8
 73
4
 74
0
 40
0
 40
0
 40
0
 40
0
 40
1
 40
1
 40
1
 40
1
 10
0.781228
 20
1.660461
 30
0.0
 10
0.782856
 20
1.662179
 30
0.0
 10
0.783670
 20
1.664213
 30
0.0
 10
0.783670
 20
1.666564
 30
0.0
  0
LINE
  5
37b
100
AcDbEntity
  8
Layer_1
 62
3
100
AcDbLine
 10
0.783670
 20
1.666564
 30
0.0
 11
0.783670
 21
1.753370
 31
0.0
  0
SPLINE
  5
37c
100
AcDbEntity
  8
Layer_1
 62
3
100
AcDbSpline
 70
8
 71
3
 72
8
 73
4
 74
0
 40
0
 40
0
 40
0
 40
0
 40
1
 40
1
 40
1
 40
1
 10
0.783670
 20
1.753370
 30
0.0
 10
0.783670
 20
1.755721
 30
0.0
 10
0.782811
 20
1.757755
 30
0.0
 10
0.781093
 20
1.759473
 30
0.0
  0
SPLINE
  5
37d
100
AcDbEntity
  8
Layer_1
 62
3
100
AcDbSpline
 70
8
 71
3
 72
8
 73
4
 74
0
 40
0
 40
0
 40
0
 40
0
 40
1
 40
1
 40
1
 40
1
 10
0.781093
 20
1.759473
 30
0.0
 10
0.779375
 20
1.761191
 30
0.0
 10
0.777340
 20
1.762050
 30
0.0
 10
0.774989
 20
1.762050
 30
0.0
  0
LINE
  5
37e
100
AcDbEntity
  8
Layer_1
 62
3
100
AcDbLine
 10
0.774989
 20
1.762050
 30
0.0
 11
0.740267
 21
1.762050
 31
0.0
  0
SPLINE
  5
37f
100
AcDbEntity
  8
Layer_1
 62
3
100
AcDbSpline
 70
8
 71
3
 72
8
 73
4
 74
0
 40
0
 40
0
 40
0
 40
0
 40
1
 40
1
 40
1
 40
1
 10
0.740267
 20
1.762050
 30
0.0
 10
0.737916
 20
1.762050
 30
0.0
 10
0.735881
 20
1.761237
 30
0.0
 10
0.734163
 20
1.759609
 30
0.0
  0
SPLINE
  5
380
100
AcDbEntity
  8
Layer_1
 62
3
100
AcDbSpline
 70
8
 71
3
 72
8
 73
4
 74
0
 40
0
 40
0
 40
0
 40
0
 40
1
 40
1
 40
1
 40
1
 10
0.734163
 20
1.759609
 30
0.0
 10
0.732445
 20
1.757981
 30
0.0
 10
0.731586
 20
1.755902
 30
0.0
 10
0.731586
 20
1.753370
 30
0.0
  0
LINE
  5
381
100
AcDbEntity
  8
Layer_1
 62
3
100
AcDbLine
 10
0.731586
 20
1.753370
 30
0.0
 11
0.731586
 21
1.666564
 31
0.0
  0
SPLINE
  5
382
100
AcDbEntity
  8
Layer_1
 62
3
100
AcDbSpline
 70
8
 71
3
 72
8
 73
4
 74
0
 40
0
 40
0
 40
0
 40
0
 40
1
 40
1
 40
1
 40
1
 10
0.731586
 20
1.666564
 30
0.0
 10
0.731586
 20
1.664032
 30
0.0
 10
0.732400
 20
1.661953
 30
0.0
 10
0.734028
 20
1.660325
 30
0.0
  0
SPLINE
  5
383
100
AcDbEntity
  8
Layer_1
 62
3
100
AcDbSpline
 70
8
 71
3
 72
8
 73
4
 74
0
 40
0
 40
0
 40
0
 40
0
 40
1
 40
1
 40
1
 40
1
 10
0.734028
 20
1.660325
 30
0.0
 10
0.735655
 20
1.658697
 30
0.0
 10
0.737735
 20
1.657884
 30
0.0
 10
0.740267
 20
1.657884
 30
0.0
  0
LINE
  5
384
100
AcDbEntity
  8
Layer_1
 62
3
100
AcDbLine
 10
0.740267
 20
1.657884
 30
0.0
 11
0.774989
 21
1.657884
 31
0.0
  0
SPLINE
  5
385
100
AcDbEntity
  8
Layer_1
 62
3
100
AcDbSpline
 70
8
 71
3
 72
8
 73
4
 74
0
 40
0
 40
0
 40
0
 40
0
 40
1
 40
1
 40
1
 40
1
 10
0.705545
 20
1.553717
 30
0.0
 10
0.703013
 20
1.553717
 30
0.0
 10
0.700933
 20
1.554531
 30
0.0
 10
0.699305
 20
1.556158
 30
0.0
  0
SPLINE
  5
386
100
AcDbEntity
  8
Layer_1
 62
3
100
AcDbSpline
 70
8
 71
3
 72
8
 73
4
 74
0
 40
0
 40
0
 40
0
 40
0
 40
1
 40
1
 40
1
 40
1
 10
0.699305
 20
1.556158
 30
0.0
 10
0.697678
 20
1.557786
 30
0.0
 10
0.696864
 20
1.559866
 30
0.0
 10
0.696864
 20
1.562398
 30
0.0
  0
LINE
  5
387
100
AcDbEntity
  8
Layer_1
 62
3
100
AcDbLine
 10
0.696864
 20
1.562398
 30
0.0
 11
0.696864
 21
1.579759
 31
0.0
  0
SPLINE
  5
388
100
AcDbEntity
  8
Layer_1
 62
3
100
AcDbSpline
 70
8
 71
3
 72
8
 73
4
 74
0
 40
0
 40
0
 40
0
 40
0
 40
1
 40
1
 40
1
 40
1
 10
0.696864
 20
1.579759
 30
0.0
 10
0.696864
 20
1.582290
 30
0.0
 10
0.697723
 20
1.584370
 30
0.0
 10
0.699441
 20
1.585998
 30
0.0
  0
SPLINE
  5
389
100
AcDbEntity
  8
Layer_1
 62
3
100
AcDbSpline
 70
8
 71
3
 72
8
 73
4
 74
0
 40
0
 40
0
 40
0
 40
0
 40
1
 40
1
 40
1
 40
1
 10
0.699441
 20
1.585998
 30
0.0
 10
0.701159
 20
1.587625
 30
0.0
 10
0.703194
 20
1.588439
 30
0.0
 10
0.705545
 20
1.588439
 30
0.0
  0
LINE
  5
38a
100
AcDbEntity
  8
Layer_1
 62
3
100
AcDbLine
 10
0.705545
 20
1.588439
 30
0.0
 11
0.861795
 21
1.588439
 31
0.0
  0
SPLINE
  5
38b
100
AcDbEntity
  8
Layer_1
 62
3
100
AcDbSpline
 70
8
 71
3
 72
8
 73
4
 74
0
 40
0
 40
0
 40
0
 40
0
 40
1
 40
1
 40
1
 40
1
 10
0.861795
 20
1.588439
 30
0.0
 10
0.864326
 20
1.588439
 30
0.0
 10
0.866406
 20
1.589298
 30
0.0
 10
0.868034
 20
1.591016
 30
0.0
  0
SPLINE
  5
38c
100
AcDbEntity
  8
Layer_1
 62
3
100
AcDbSpline
 70
8
 71
3
 72
8
 73
4
 74
0
 40
0
 40
0
 40
0
 40
0
 40
1
 40
1
 40
1
 40
1
 10
0.868034
 20
1.591016
 30
0.0
 10
0.869661
 20
1.592734
 30
0.0
 10
0.870475
 20
1.594769
 30
0.0
 10
0.870475
 20
1.597120
 30
0.0
  0
LINE
  5
38d
100
AcDbEntity
  8
Layer_1
 62
3
100
AcDbLine
 10
0.870475
 20
1.597120
 30
0.0
 11
0.870475
 21
1.649203
 31
0.0
  0
SPLINE
  5
38e
100
AcDbEntity
  8
Layer_1
 62
3
100
AcDbSpline
 70
8
 71
3
 72
8
 73
4
 74
0
 40
0
 40
0
 40
0
 40
0
 40
1
 40
1
 40
1
 40
1
 10
0.870475
 20
1.649203
 30
0.0
 10
0.870475
 20
1.651554
 30
0.0
 10
0.869616
 20
1.653589
 30
0.0
 10
0.867898
 20
1.655307
 30
0.0
  0
SPLINE
  5
38f
100
AcDbEntity
  8
Layer_1
 62
3
100
AcDbSpline
 70
8
 71
3
 72
8
 73
4
 74
0
 40
0
 40
0
 40
0
 40
0
 40
1
 40
1
 40
1
 40
1
 10
0.867898
 20
1.655307
 30
0.0
 10
0.866180
 20
1.657025
 30
0.0
 10
0.864146
 20
1.657884
 30
0.0
 10
0.861795
 20
1.657884
 30
0.0
  0
LINE
  5
390
100
AcDbEntity
  8
Layer_1
 62
3
100
AcDbLine
 10
0.861795
 20
1.657884
 30
0.0
 11
0.827072
 21
1.657884
 31
0.0
  0
SPLINE
  5
391
100
AcDbEntity
  8
Layer_1
 62
3
100
AcDbSpline
 70
8
 71
3
 72
8
 73
4
 74
0
 40
0
 40
0
 40
0
 40
0
 40
1
 40
1
 40
1
 40
1
 10
0.827072
 20
1.657884
 30
0.0
 10
0.824721
 20
1.657884
 30
0.0
 10
0.822687
 20
1.657070
 30
0.0
 10
0.820969
 20
1.655442
 30
0.0
  0
SPLINE
  5
392
100
AcDbEntity
  8
Layer_1
 62
3
100
AcDbSpline
 70
8
 71
3
 72
8
 73
4
 74
0
 40
0
 40
0
 40
0
 40
0
 40
1
 40
1
 40
1
 40
1
 10
0.820969
 20
1.655442
 30
0.0
 10
0.819251
 20
1.653815
 30
0.0
 10
0.818392
 20
1.651735
 30
0.0
 10
0.818392
 20
1.649203
 30
0.0
  0
LINE
  5
393
100
AcDbEntity
  8
Layer_1
 62
3
100
AcDbLine
 10
0.818392
 20
1.649203
 30
0.0
 11
0.818392
 21
1.640523
 31
0.0
  0
SPLINE
  5
394
100
AcDbEntity
  8
Layer_1
 62
3
100
AcDbSpline
 70
8
 71
3
 72
8
 73
4
 74
0
 40
0
 40
0
 40
0
 40
0
 40
1
 40
1
 40
1
 40
1
 10
0.818392
 20
1.640523
 30
0.0
 10
0.818392
 20
1.638172
 30
0.0
 10
0.817895
 20
1.635956
 30
0.0
 10
0.816900
 20
1.633876
 30
0.0
  0
SPLINE
  5
395
100
AcDbEntity
  8
Layer_1
 62
3
100
AcDbSpline
 70
8
 71
3
 72
8
 73
4
 74
0
 40
0
 40
0
 40
0
 40
0
 40
1
 40
1
 40
1
 40
1
 10
0.816900
 20
1.633876
 30
0.0
 10
0.815996
 20
1.631797
 30
0.0
 10
0.814730
 20
1.629943
 30
0.0
 10
0.813102
 20
1.628315
 30
0.0
  0
SPLINE
  5
396
100
AcDbEntity
  8
Layer_1
 62
3
100
AcDbSpline
 70
8
 71
3
 72
8
 73
4
 74
0
 40
0
 40
0
 40
0
 40
0
 40
1
 40
1
 40
1
 40
1
 10
0.813102
 20
1.628315
 30
0.0
 10
0.811565
 20
1.626778
 30
0.0
 10
0.809756
 20
1.625512
 30
0.0
 10
0.807677
 20
1.624518
 30
0.0
  0
SPLINE
  5
397
100
AcDbEntity
  8
Layer_1
 62
3
100
AcDbSpline
 70
8
 71
3
 72
8
 73
4
 74
0
 40
0
 40
0
 40
0
 40
0
 40
1
 40
1
 40
1
 40
1
 10
0.807677
 20
1.624518
 30
0.0
 10
0.805597
 20
1.623614
 30
0.0
 10
0.803382
 20
1.623161
 30
0.0
 10
0.801031
 20
1.623161
 30
0.0
  0
LINE
  5
398
100
AcDbEntity
  8
Layer_1
 62
3
100
AcDbLine
 10
0.801031
 20
1.623161
 30
0.0
 11
0.714225
 21
1.623161
 31
0.0
  0
SPLINE
  5
399
100
AcDbEntity
  8
Layer_1
 62
3
100
AcDbSpline
 70
8
 71
3
 72
8
 73
4
 74
0
 40
0
 40
0
 40
0
 40
0
 40
1
 40
1
 40
1
 40
1
 10
0.714225
 20
1.623161
 30
0.0
 10
0.711784
 20
1.623161
 30
0.0
 10
0.709478
 20
1.623614
 30
0.0
 10
0.707308
 20
1.624518
 30
0.0
  0
SPLINE
  5
39a
100
AcDbEntity
  8
Layer_1
 62
3
100
AcDbSpline
 70
8
 71
3
 72
8
 73
4
 74
0
 40
0
 40
0
 40
0
 40
0
 40
1
 40
1
 40
1
 40
1
 10
0.707308
 20
1.624518
 30
0.0
 10
0.705228
 20
1.625422
 30
0.0
 10
0.703420
 20
1.626643
 30
0.0
 10
0.701882
 20
1.628180
 30
0.0
  0
SPLINE
  5
39b
100
AcDbEntity
  8
Layer_1
 62
3
100
AcDbSpline
 70
8
 71
3
 72
8
 73
4
 74
0
 40
0
 40
0
 40
0
 40
0
 40
1
 40
1
 40
1
 40
1
 10
0.701882
 20
1.628180
 30
0.0
 10
0.700345
 20
1.629717
 30
0.0
 10
0.699125
 20
1.631526
 30
0.0
 10
0.698220
 20
1.633605
 30
0.0
  0
SPLINE
  5
39c
100
AcDbEntity
  8
Layer_1
 62
3
100
AcDbSpline
 70
8
 71
3
 72
8
 73
4
 74
0
 40
0
 40
0
 40
0
 40
0
 40
1
 40
1
 40
1
 40
1
 10
0.698220
 20
1.633605
 30
0.0
 10
0.697316
 20
1.635775
 30
0.0
 10
0.696864
 20
1.638081
 30
0.0
 10
0.696864
 20
1.640523
 30
0.0
  0
LINE
  5
39d
100
AcDbEntity
  8
Layer_1
 62
3
100
AcDbLine
 10
0.696864
 20
1.640523
 30
0.0
 11
0.696864
 21
1.779411
 31
0.0
  0
SPLINE
  5
39e
100
AcDbEntity
  8
Layer_1
 62
3
100
AcDbSpline
 70
8
 71
3
 72
8
 73
4
 74
0
 40
0
 40
0
 40
0
 40
0
 40
1
 40
1
 40
1
 40
1
 10
0.696864
 20
1.779411
 30
0.0
 10
0.696864
 20
1.781762
 30
0.0
 10
0.697316
 20
1.783978
 30
0.0
 10
0.698220
 20
1.786057
 30
0.0
  0
SPLINE
  5
39f
100
AcDbEntity
  8
Layer_1
 62
3
100
AcDbSpline
 70
8
 71
3
 72
8
 73
4
 74
0
 40
0
 40
0
 40
0
 40
0
 40
1
 40
1
 40
1
 40
1
 10
0.698220
 20
1.786057
 30
0.0
 10
0.699215
 20
1.788137
 30
0.0
 10
0.700481
 20
1.789946
 30
0.0
 10
0.702018
 20
1.791483
 30
0.0
  0
SPLINE
  5
3a0
100
AcDbEntity
  8
Layer_1
 62
3
100
AcDbSpline
 70
8
 71
3
 72
8
 73
4
 74
0
 40
0
 40
0
 40
0
 40
0
 40
1
 40
1
 40
1
 40
1
 10
0.702018
 20
1.791483
 30
0.0
 10
0.703646
 20
1.793110
 30
0.0
 10
0.705499
 20
1.794376
 30
0.0
 10
0.707579
 20
1.795281
 30
0.0
  0
SPLINE
  5
3a1
100
AcDbEntity
  8
Layer_1
 62
3
100
AcDbSpline
 70
8
 71
3
 72
8
 73
4
 74
0
 40
0
 40
0
 40
0
 40
0
 40
1
 40
1
 40
1
 40
1
 10
0.707579
 20
1.795281
 30
0.0
 10
0.709659
 20
1.796275
 30
0.0
 10
0.711874
 20
1.796773
 30
0.0
 10
0.714225
 20
1.796773
 30
0.0
  0
LINE
  5
3a2
100
AcDbEntity
  8
Layer_1
 62
3
100
AcDbLine
 10
0.714225
 20
1.796773
 30
0.0
 11
0.801031
 21
1.796773
 31
0.0
  0
SPLINE
  5
3a3
100
AcDbEntity
  8
Layer_1
 62
3
100
AcDbSpline
 70
8
 71
3
 72
8
 73
4
 74
0
 40
0
 40
0
 40
0
 40
0
 40
1
 40
1
 40
1
 40
1
 10
0.801031
 20
1.796773
 30
0.0
 10
0.803382
 20
1.796773
 30
0.0
 10
0.805597
 20
1.796275
 30
0.0
 10
0.807677
 20
1.795281
 30
0.0
  0
SPLINE
  5
3a4
100
AcDbEntity
  8
Layer_1
 62
3
100
AcDbSpline
 70
8
 71
3
 72
8
 73
4
 74
0
 40
0
 40
0
 40
0
 40
0
 40
1
 40
1
 40
1
 40
1
 10
0.807677
 20
1.795281
 30
0.0
 10
0.809756
 20
1.794376
 30
0.0
 10
0.811565
 20
1.793110
 30
0.0
 10
0.813102
 20
1.791483
 30
0.0
  0
SPLINE
  5
3a5
100
AcDbEntity
  8
Layer_1
 62
3
100
AcDbSpline
 70
8
 71
3
 72
8
 73
4
 74
0
 40
0
 40
0
 40
0
 40
0
 40
1
 40
1
 40
1
 40
1
 10
0.813102
 20
1.791483
 30
0.0
 10
0.814730
 20
1.789946
 30
0.0
 10
0.815996
 20
1.788137
 30
0.0
 10
0.816900
 20
1.786057
 30
0.0
  0
SPLINE
  5
3a6
100
AcDbEntity
  8
Layer_1
 62
3
100
AcDbSpline
 70
8
 71
3
 72
8
 73
4
 74
0
 40
0
 40
0
 40
0
 40
0
 40
1
 40
1
 40
1
 40
1
 10
0.816900
 20
1.786057
 30
0.0
 10
0.817895
 20
1.783978
 30
0.0
 10
0.818392
 20
1.781762
 30
0.0
 10
0.818392
 20
1.779411
 30
0.0
  0
LINE
  5
3a7
100
AcDbEntity
  8
Layer_1
 62
3
100
AcDbLine
 10
0.818392
 20
1.779411
 30
0.0
 11
0.818392
 21
1.701286
 31
0.0
  0
SPLINE
  5
3a8
100
AcDbEntity
  8
Layer_1
 62
3
100
AcDbSpline
 70
8
 71
3
 72
8
 73
4
 74
0
 40
0
 40
0
 40
0
 40
0
 40
1
 40
1
 40
1
 40
1
 10
0.818392
 20
1.701286
 30
0.0
 10
0.818392
 20
1.698755
 30
0.0
 10
0.819206
 20
1.696675
 30
0.0
 10
0.820833
 20
1.695047
 30
0.0
  0
SPLINE
  5
3a9
100
AcDbEntity
  8
Layer_1
 62
3
100
AcDbSpline
 70
8
 71
3
 72
8
 73
4
 74
0
 40
0
 40
0
 40
0
 40
0
 40
1
 40
1
 40
1
 40
1
 10
0.820833
 20
1.695047
 30
0.0
 10
0.822461
 20
1.693420
 30
0.0
 10
0.824541
 20
1.692606
 30
0.0
 10
0.827072
 20
1.692606
 30
0.0
  0
LINE
  5
3aa
100
AcDbEntity
  8
Layer_1
 62
3
100
AcDbLine
 10
0.827072
 20
1.692606
 30
0.0
 11
0.887836
 21
1.692606
 31
0.0
  0
SPLINE
  5
3ab
100
AcDbEntity
  8
Layer_1
 62
3
100
AcDbSpline
 70
8
 71
3
 72
8
 73
4
 74
0
 40
0
 40
0
 40
0
 40
0
 40
1
 40
1
 40
1
 40
1
 10
0.887836
 20
1.692606
 30
0.0
 10
0.890187
 20
1.692606
 30
0.0
 10
0.892403
 20
1.692109
 30
0.0
 10
0.894482
 20
1.691114
 30
0.0
  0
SPLINE
  5
3ac
100
AcDbEntity
  8
Layer_1
 62
3
100
AcDbSpline
 70
8
 71
3
 72
8
 73
4
 74
0
 40
0
 40
0
 40
0
 40
0
 40
1
 40
1
 40
1
 40
1
 10
0.894482
 20
1.691114
 30
0.0
 10
0.896562
 20
1.690210
 30
0.0
 10
0.898370
 20
1.688944
 30
0.0
 10
0.899908
 20
1.687316
 30
0.0
  0
SPLINE
  5
3ad
100
AcDbEntity
  8
Layer_1
 62
3
100
AcDbSpline
 70
8
 71
3
 72
8
 73
4
 74
0
 40
0
 40
0
 40
0
 40
0
 40
1
 40
1
 40
1
 40
1
 10
0.899908
 20
1.687316
 30
0.0
 10
0.901535
 20
1.685779
 30
0.0
 10
0.902801
 20
1.683971
 30
0.0
 10
0.903705
 20
1.681891
 30
0.0
  0
SPLINE
  5
3ae
100
AcDbEntity
  8
Layer_1
 62
3
100
AcDbSpline
 70
8
 71
3
 72
8
 73
4
 74
0
 40
0
 40
0
 40
0
 40
0
 40
1
 40
1
 40
1
 40
1
 10
0.903705
 20
1.681891
 30
0.0
 10
0.904700
 20
1.679811
 30
0.0
 10
0.905197
 20
1.677596
 30
0.0
 10
0.905197
 20
1.675245
 30
0.0
  0
LINE
  5
3af
100
AcDbEntity
  8
Layer_1
 62
3
100
AcDbLine
 10
0.905197
 20
1.675245
 30
0.0
 11
0.905197
 21
1.571078
 31
0.0
  0
SPLINE
  5
3b0
100
AcDbEntity
  8
Layer_1
 62
3
100
AcDbSpline
 70
8
 71
3
 72
8
 73
4
 74
0
 40
0
 40
0
 40
0
 40
0
 40
1
 40
1
 40
1
 40
1
 10
0.905197
 20
1.571078
 30
0.0
 10
0.905197
 20
1.568727
 30
0.0
 10
0.904700
 20
1.566512
 30
0.0
 10
0.903705
 20
1.564432
 30
0.0
  0
SPLINE
  5
3b1
100
AcDbEntity
  8
Layer_1
 62
3
100
AcDbSpline
 70
8
 71
3
 72
8
 73
4
 74
0
 40
0
 40
0
 40
0
 40
0
 40
1
 40
1
 40
1
 40
1
 10
0.903705
 20
1.564432
 30
0.0
 10
0.902801
 20
1.562352
 30
0.0
 10
0.901535
 20
1.560499
 30
0.0
 10
0.899908
 20
1.558871
 30
0.0
  0
SPLINE
  5
3b2
100
AcDbEntity
  8
Layer_1
 62
3
100
AcDbSpline
 70
8
 71
3
 72
8
 73
4
 74
0
 40
0
 40
0
 40
0
 40
0
 40
1
 40
1
 40
1
 40
1
 10
0.899908
 20
1.558871
 30
0.0
 10
0.898370
 20
1.557334
 30
0.0
 10
0.896562
 20
1.556068
 30
0.0
 10
0.894482
 20
1.555073
 30
0.0
  0
SPLINE
  5
3b3
100
AcDbEntity
  8
Layer_1
 62
3
100
AcDbSpline
 70
8
 71
3
 72
8
 73
4
 74
0
 40
0
 40
0
 40
0
 40
0
 40
1
 40
1
 40
1
 40
1
 10
0.894482
 20
1.555073
 30
0.0
 10
0.892403
 20
1.554169
 30
0.0
 10
0.890187
 20
1.553717
 30
0.0
 10
0.887836
 20
1.553717
 30
0.0
  0
LINE
  5
3b4
100
AcDbEntity
  8
Layer_1
 62
3
100
AcDbLine
 10
0.887836
 20
1.553717
 30
0.0
 11
0.705545
 21
1.553717
 31
0.0
  0
SPLINE
  5
3b5
100
AcDbEntity
  8
Layer_1
 62
3
100
AcDbSpline
 70
8
 71
3
 72
8
 73
4
 74
0
 40
0
 40
0
 40
0
 40
0
 40
1
 40
1
 40
1
 40
1
 10
0.705545
 20
0.880051
 30
0.0
 10
0.703013
 20
0.880051
 30
0.0
 10
0.700933
 20
0.880864
 30
0.0
 10
0.699305
 20
0.882492
 30
0.0
  0
SPLINE
  5
3b6
100
AcDbEntity
  8
Layer_1
 62
3
100
AcDbSpline
 70
8
 71
3
 72
8
 73
4
 74
0
 40
0
 40
0
 40
0
 40
0
 40
1
 40
1
 40
1
 40
1
 10
0.699305
 20
0.882492
 30
0.0
 10
0.697678
 20
0.884120
 30
0.0
 10
0.696864
 20
0.886199
 30
0.0
 10
0.696864
 20
0.888731
 30
0.0
  0
LINE
  5
3b7
100
AcDbEntity
  8
Layer_1
 62
3
100
AcDbLine
 10
0.696864
 20
0.888731
 30
0.0
 11
0.696864
 21
0.906092
 31
0.0
  0
SPLINE
  5
3b8
100
AcDbEntity
  8
Layer_1
 62
3
100
AcDbSpline
 70
8
 71
3
 72
8
 73
4
 74
0
 40
0
 40
0
 40
0
 40
0
 40
1
 40
1
 40
1
 40
1
 10
0.696864
 20
0.906092
 30
0.0
 10
0.696864
 20
0.908082
 30
0.0
 10
0.697271
 20
0.909619
 30
0.0
 10
0.698085
 20
0.910704
 30
0.0
  0
SPLINE
  5
3b9
100
AcDbEntity
  8
Layer_1
 62
3
100
AcDbSpline
 70
8
 71
3
 72
8
 73
4
 74
0
 40
0
 40
0
 40
0
 40
0
 40
1
 40
1
 40
1
 40
1
 10
0.698085
 20
0.910704
 30
0.0
 10
0.698989
 20
0.911789
 30
0.0
 10
0.700074
 20
0.912648
 30
0.0
 10
0.701340
 20
0.913281
 30
0.0
  0
SPLINE
  5
3ba
100
AcDbEntity
  8
Layer_1
 62
3
100
AcDbSpline
 70
8
 71
3
 72
8
 73
4
 74
0
 40
0
 40
0
 40
0
 40
0
 40
1
 40
1
 40
1
 40
1
 10
0.701340
 20
0.913281
 30
0.0
 10
0.702606
 20
0.913913
 30
0.0
 10
0.704007
 20
0.914411
 30
0.0
 10
0.705545
 20
0.914773
 30
0.0
  0
SPLINE
  5
3bb
100
AcDbEntity
  8
Layer_1
 62
3
100
AcDbSpline
 70
8
 71
3
 72
8
 73
4
 74
0
 40
0
 40
0
 40
0
 40
0
 40
1
 40
1
 40
1
 40
1
 10
0.705545
 20
0.914773
 30
0.0
 10
0.707082
 20
0.915134
 30
0.0
 10
0.708483
 20
0.915632
 30
0.0
 10
0.709749
 20
0.916265
 30
0.0
  0
SPLINE
  5
3bc
100
AcDbEntity
  8
Layer_1
 62
3
100
AcDbSpline
 70
8
 71
3
 72
8
 73
4
 74
0
 40
0
 40
0
 40
0
 40
0
 40
1
 40
1
 40
1
 40
1
 10
0.709749
 20
0.916265
 30
0.0
 10
0.711015
 20
0.916898
 30
0.0
 10
0.712055
 20
0.917757
 30
0.0
 10
0.712869
 20
0.918842
 30
0.0
  0
SPLINE
  5
3bd
100
AcDbEntity
  8
Layer_1
 62
3
100
AcDbSpline
 70
8
 71
3
 72
8
 73
4
 74
0
 40
0
 40
0
 40
0
 40
0
 40
1
 40
1
 40
1
 40
1
 10
0.712869
 20
0.918842
 30
0.0
 10
0.713773
 20
0.919927
 30
0.0
 10
0.714225
 20
0.921464
 30
0.0
 10
0.714225
 20
0.923453
 30
0.0
  0
LINE
  5
3be
100
AcDbEntity
  8
Layer_1
 62
3
100
AcDbLine
 10
0.714225
 20
0.923453
 30
0.0
 11
0.714225
 21
1.079703
 31
0.0
  0
SPLINE
  5
3bf
100
AcDbEntity
  8
Layer_1
 62
3
100
AcDbSpline
 70
8
 71
3
 72
8
 73
4
 74
0
 40
0
 40
0
 40
0
 40
0
 40
1
 40
1
 40
1
 40
1
 10
0.714225
 20
1.079703
 30
0.0
 10
0.714225
 20
1.081783
 30
0.0
 10
0.713773
 20
1.083320
 30
0.0
 10
0.712869
 20
1.084315
 30
0.0
  0
SPLINE
  5
3c0
100
AcDbEntity
  8
Layer_1
 62
3
100
AcDbSpline
 70
8
 71
3
 72
8
 73
4
 74
0
 40
0
 40
0
 40
0
 40
0
 40
1
 40
1
 40
1
 40
1
 10
0.712869
 20
1.084315
 30
0.0
 10
0.712055
 20
1.085400
 30
0.0
 10
0.711015
 20
1.086214
 30
0.0
 10
0.709749
 20
1.086756
 30
0.0
  0
SPLINE
  5
3c1
100
AcDbEntity
  8
Layer_1
 62
3
100
AcDbSpline
 70
8
 71
3
 72
8
 73
4
 74
0
 40
0
 40
0
 40
0
 40
0
 40
1
 40
1
 40
1
 40
1
 10
0.709749
 20
1.086756
 30
0.0
 10
0.708483
 20
1.087389
 30
0.0
 10
0.707082
 20
1.087841
 30
0.0
 10
0.705545
 20
1.088113
 30
0.0
  0
SPLINE
  5
3c2
100
AcDbEntity
  8
Layer_1
 62
3
100
AcDbSpline
 70
8
 71
3
 72
8
 73
4
 74
0
 40
0
 40
0
 40
0
 40
0
 40
1
 40
1
 40
1
 40
1
 10
0.705545
 20
1.088113
 30
0.0
 10
0.704007
 20
1.088474
 30
0.0
 10
0.702606
 20
1.088926
 30
0.0
 10
0.701340
 20
1.089469
 30
0.0
  0
SPLINE
  5
3c3
100
AcDbEntity
  8
Layer_1
 62
3
100
AcDbSpline
 70
8
 71
3
 72
8
 73
4
 74
0
 40
0
 40
0
 40
0
 40
0
 40
1
 40
1
 40
1
 40
1
 10
0.701340
 20
1.089469
 30
0.0
 10
0.700074
 20
1.090102
 30
0.0
 10
0.698989
 20
1.090961
 30
0.0
 10
0.698085
 20
1.092046
 30
0.0
  0
SPLINE
  5
3c4
100
AcDbEntity
  8
Layer_1
 62
3
100
AcDbSpline
 70
8
 71
3
 72
8
 73
4
 74
0
 40
0
 40
0
 40
0
 40
0
 40
1
 40
1
 40
1
 40
1
 10
0.698085
 20
1.092046
 30
0.0
 10
0.697271
 20
1.093222
 30
0.0
 10
0.696864
 20
1.094894
 30
0.0
 10
0.696864
 20
1.097064
 30
0.0
  0
LINE
  5
3c5
100
AcDbEntity
  8
Layer_1
 62
3
100
AcDbLine
 10
0.696864
 20
1.097064
 30
0.0
 11
0.696864
 21
1.114426
 31
0.0
  0
SPLINE
  5
3c6
100
AcDbEntity
  8
Layer_1
 62
3
100
AcDbSpline
 70
8
 71
3
 72
8
 73
4
 74
0
 40
0
 40
0
 40
0
 40
0
 40
1
 40
1
 40
1
 40
1
 10
0.696864
 20
1.114426
 30
0.0
 10
0.696864
 20
1.116957
 30
0.0
 10
0.697723
 20
1.119037
 30
0.0
 10
0.699441
 20
1.120665
 30
0.0
  0
SPLINE
  5
3c7
100
AcDbEntity
  8
Layer_1
 62
3
100
AcDbSpline
 70
8
 71
3
 72
8
 73
4
 74
0
 40
0
 40
0
 40
0
 40
0
 40
1
 40
1
 40
1
 40
1
 10
0.699441
 20
1.120665
 30
0.0
 10
0.701159
 20
1.122292
 30
0.0
 10
0.703194
 20
1.123106
 30
0.0
 10
0.705545
 20
1.123106
 30
0.0
  0
LINE
  5
3c8
100
AcDbEntity
  8
Layer_1
 62
3
100
AcDbLine
 10
0.705545
 20
1.123106
 30
0.0
 11
0.896517
 21
1.123106
 31
0.0
  0
SPLINE
  5
3c9
100
AcDbEntity
  8
Layer_1
 62
3
100
AcDbSpline
 70
8
 71
3
 72
8
 73
4
 74
0
 40
0
 40
0
 40
0
 40
0
 40
1
 40
1
 40
1
 40
1
 10
0.896517
 20
1.123106
 30
0.0
 10
0.898868
 20
1.123106
 30
0.0
 10
0.900902
 20
1.122247
 30
0.0
 10
0.902620
 20
1.120529
 30
0.0
  0
SPLINE
  5
3ca
100
AcDbEntity
  8
Layer_1
 62
3
100
AcDbSpline
 70
8
 71
3
 72
8
 73
4
 74
0
 40
0
 40
0
 40
0
 40
0
 40
1
 40
1
 40
1
 40
1
 10
0.902620
 20
1.120529
 30
0.0
 10
0.904338
 20
1.118811
 30
0.0
 10
0.905197
 20
1.116777
 30
0.0
 10
0.905197
 20
1.114426
 30
0.0
  0
LINE
  5
3cb
100
AcDbEntity
  8
Layer_1
 62
3
100
AcDbLine
 10
0.905197
 20
1.114426
 30
0.0
 11
0.905197
 21
1.097064
 31
0.0
  0
SPLINE
  5
3cc
100
AcDbEntity
  8
Layer_1
 62
3
100
AcDbSpline
 70
8
 71
3
 72
8
 73
4
 74
0
 40
0
 40
0
 40
0
 40
0
 40
1
 40
1
 40
1
 40
1
 10
0.905197
 20
1.097064
 30
0.0
 10
0.905197
 20
1.094714
 30
0.0
 10
0.904384
 20
1.092679
 30
0.0
 10
0.902756
 20
1.090961
 30
0.0
  0
SPLINE
  5
3cd
100
AcDbEntity
  8
Layer_1
 62
3
100
AcDbSpline
 70
8
 71
3
 72
8
 73
4
 74
0
 40
0
 40
0
 40
0
 40
0
 40
1
 40
1
 40
1
 40
1
 10
0.902756
 20
1.090961
 30
0.0
 10
0.901128
 20
1.089243
 30
0.0
 10
0.899049
 20
1.088384
 30
0.0
 10
0.896517
 20
1.088384
 30
0.0
  0
LINE
  5
3ce
100
AcDbEntity
  8
Layer_1
 62
3
100
AcDbLine
 10
0.896517
 20
1.088384
 30
0.0
 11
0.757628
 21
1.088384
 31
0.0
  0
SPLINE
  5
3cf
100
AcDbEntity
  8
Layer_1
 62
3
100
AcDbSpline
 70
8
 71
3
 72
8
 73
4
 74
0
 40
0
 40
0
 40
0
 40
0
 40
1
 40
1
 40
1
 40
1
 10
0.757628
 20
1.088384
 30
0.0
 10
0.755277
 20
1.088384
 30
0.0
 10
0.753242
 20
1.087570
 30
0.0
 10
0.751524
 20
1.085943
 30
0.0
  0
SPLINE
  5
3d0
100
AcDbEntity
  8
Layer_1
 62
3
100
AcDbSpline
 70
8
 71
3
 72
8
 73
4
 74
0
 40
0
 40
0
 40
0
 40
0
 40
1
 40
1
 40
1
 40
1
 10
0.751524
 20
1.085943
 30
0.0
 10
0.749806
 20
1.084315
 30
0.0
 10
0.748947
 20
1.082235
 30
0.0
 10
0.748947
 20
1.079703
 30
0.0
  0
LINE
  5
3d1
100
AcDbEntity
  8
Layer_1
 62
3
100
AcDbLine
 10
0.748947
 20
1.079703
 30
0.0
 11
0.748947
 21
1.027620
 31
0.0
  0
SPLINE
  5
3d2
100
AcDbEntity
  8
Layer_1
 62
3
100
AcDbSpline
 70
8
 71
3
 72
8
 73
4
 74
0
 40
0
 40
0
 40
0
 40
0
 40
1
 40
1
 40
1
 40
1
 10
0.748947
 20
1.027620
 30
0.0
 10
0.748947
 20
1.025088
 30
0.0
 10
0.749761
 20
1.023009
 30
0.0
 10
0.751389
 20
1.021381
 30
0.0
  0
SPLINE
  5
3d3
100
AcDbEntity
  8
Layer_1
 62
3
100
AcDbSpline
 70
8
 71
3
 72
8
 73
4
 74
0
 40
0
 40
0
 40
0
 40
0
 40
1
 40
1
 40
1
 40
1
 10
0.751389
 20
1.021381
 30
0.0
 10
0.753016
 20
1.019753
 30
0.0
 10
0.755096
 20
1.018939
 30
0.0
 10
0.757628
 20
1.018939
 30
0.0
  0
LINE
  5
3d4
100
AcDbEntity
  8
Layer_1
 62
3
100
AcDbLine
 10
0.757628
 20
1.018939
 30
0.0
 11
0.887836
 21
1.018939
 31
0.0
  0
SPLINE
  5
3d5
100
AcDbEntity
  8
Layer_1
 62
3
100
AcDbSpline
 70
8
 71
3
 72
8
 73
4
 74
0
 40
0
 40
0
 40
0
 40
0
 40
1
 40
1
 40
1
 40
1
 10
0.887836
 20
1.018939
 30
0.0
 10
0.890187
 20
1.018939
 30
0.0
 10
0.892403
 20
1.018442
 30
0.0
 10
0.894482
 20
1.017447
 30
0.0
  0
SPLINE
  5
3d6
100
AcDbEntity
  8
Layer_1
 62
3
100
AcDbSpline
 70
8
 71
3
 72
8
 73
4
 74
0
 40
0
 40
0
 40
0
 40
0
 40
1
 40
1
 40
1
 40
1
 10
0.894482
 20
1.017447
 30
0.0
 10
0.896562
 20
1.016543
 30
0.0
 10
0.898370
 20
1.015277
 30
0.0
 10
0.899908
 20
1.013650
 30
0.0
  0
SPLINE
  5
3d7
100
AcDbEntity
  8
Layer_1
 62
3
100
AcDbSpline
 70
8
 71
3
 72
8
 73
4
 74
0
 40
0
 40
0
 40
0
 40
0
 40
1
 40
1
 40
1
 40
1
 10
0.899908
 20
1.013650
 30
0.0
 10
0.901535
 20
1.012113
 30
0.0
 10
0.902801
 20
1.010304
 30
0.0
 10
0.903705
 20
1.008224
 30
0.0
  0
SPLINE
  5
3d8
100
AcDbEntity
  8
Layer_1
 62
3
100
AcDbSpline
 70
8
 71
3
 72
8
 73
4
 74
0
 40
0
 40
0
 40
0
 40
0
 40
1
 40
1
 40
1
 40
1
 10
0.903705
 20
1.008224
 30
0.0
 10
0.904700
 20
1.006145
 30
0.0
 10
0.905197
 20
1.003929
 30
0.0
 10
0.905197
 20
1.001578
 30
0.0
  0
LINE
  5
3d9
100
AcDbEntity
  8
Layer_1
 62
3
100
AcDbLine
 10
0.905197
 20
1.001578
 30
0.0
 11
0.905197
 21
0.888731
 31
0.0
  0
SPLINE
  5
3da
100
AcDbEntity
  8
Layer_1
 62
3
100
AcDbSpline
 70
8
 71
3
 72
8
 73
4
 74
0
 40
0
 40
0
 40
0
 40
0
 40
1
 40
1
 40
1
 40
1
 10
0.905197
 20
0.888731
 30
0.0
 10
0.905197
 20
0.886380
 30
0.0
 10
0.904384
 20
0.884346
 30
0.0
 10
0.902756
 20
0.882628
 30
0.0
  0
SPLINE
  5
3db
100
AcDbEntity
  8
Layer_1
 62
3
100
AcDbSpline
 70
8
 71
3
 72
8
 73
4
 74
0
 40
0
 40
0
 40
0
 40
0
 40
1
 40
1
 40
1
 40
1
 10
0.902756
 20
0.882628
 30
0.0
 10
0.901128
 20
0.880910
 30
0.0
 10
0.899049
 20
0.880051
 30
0.0
 10
0.896517
 20
0.880051
 30
0.0
  0
LINE
  5
3dc
100
AcDbEntity
  8
Layer_1
 62
3
100
AcDbLine
 10
0.896517
 20
0.880051
 30
0.0
 11
0.879156
 21
0.880051
 31
0.0
  0
SPLINE
  5
3dd
100
AcDbEntity
  8
Layer_1
 62
3
100
AcDbSpline
 70
8
 71
3
 72
8
 73
4
 74
0
 40
0
 40
0
 40
0
 40
0
 40
1
 40
1
 40
1
 40
1
 10
0.879156
 20
0.880051
 30
0.0
 10
0.876624
 20
0.880051
 30
0.0
 10
0.874544
 20
0.880864
 30
0.0
 10
0.872917
 20
0.882492
 30
0.0
  0
SPLINE
  5
3de
100
AcDbEntity
  8
Layer_1
 62
3
100
AcDbSpline
 70
8
 71
3
 72
8
 73
4
 74
0
 40
0
 40
0
 40
0
 40
0
 40
1
 40
1
 40
1
 40
1
 10
0.872917
 20
0.882492
 30
0.0
 10
0.871289
 20
0.884120
 30
0.0
 10
0.870475
 20
0.886199
 30
0.0
 10
0.870475
 20
0.888731
 30
0.0
  0
LINE
  5
3df
100
AcDbEntity
  8
Layer_1
 62
3
100
AcDbLine
 10
0.870475
 20
0.888731
 30
0.0
 11
0.870475
 21
0.975537
 31
0.0
  0
SPLINE
  5
3e0
100
AcDbEntity
  8
Layer_1
 62
3
100
AcDbSpline
 70
8
 71
3
 72
8
 73
4
 74
0
 40
0
 40
0
 40
0
 40
0
 40
1
 40
1
 40
1
 40
1
 10
0.870475
 20
0.975537
 30
0.0
 10
0.870475
 20
0.977888
 30
0.0
 10
0.869616
 20
0.979922
 30
0.0
 10
0.867898
 20
0.981640
 30
0.0
  0
SPLINE
  5
3e1
100
AcDbEntity
  8
Layer_1
 62
3
100
AcDbSpline
 70
8
 71
3
 72
8
 73
4
 74
0
 40
0
 40
0
 40
0
 40
0
 40
1
 40
1
 40
1
 40
1
 10
0.867898
 20
0.981640
 30
0.0
 10
0.866180
 20
0.983358
 30
0.0
 10
0.864146
 20
0.984217
 30
0.0
 10
0.861795
 20
0.984217
 30
0.0
  0
LINE
  5
3e2
100
AcDbEntity
  8
Layer_1
 62
3
100
AcDbLine
 10
0.861795
 20
0.984217
 30
0.0
 11
0.757628
 21
0.984217
 31
0.0
  0
SPLINE
  5
3e3
100
AcDbEntity
  8
Layer_1
 62
3
100
AcDbSpline
 70
8
 71
3
 72
8
 73
4
 74
0
 40
0
 40
0
 40
0
 40
0
 40
1
 40
1
 40
1
 40
1
 10
0.757628
 20
0.984217
 30
0.0
 10
0.755277
 20
0.984217
 30
0.0
 10
0.753242
 20
0.983403
 30
0.0
 10
0.751524
 20
0.981776
 30
0.0
  0
SPLINE
  5
3e4
100
AcDbEntity
  8
Layer_1
 62
3
100
AcDbSpline
 70
8
 71
3
 72
8
 73
4
 74
0
 40
0
 40
0
 40
0
 40
0
 40
1
 40
1
 40
1
 40
1
 10
0.751524
 20
0.981776
 30
0.0
 10
0.749806
 20
0.980148
 30
0.0
 10
0.748947
 20
0.978069
 30
0.0
 10
0.748947
 20
0.975537
 30
0.0
  0
LINE
  5
3e5
100
AcDbEntity
  8
Layer_1
 62
3
100
AcDbLine
 10
0.748947
 20
0.975537
 30
0.0
 11
0.748947
 21
0.897412
 31
0.0
  0
SPLINE
  5
3e6
100
AcDbEntity
  8
Layer_1
 62
3
100
AcDbSpline
 70
8
 71
3
 72
8
 73
4
 74
0
 40
0
 40
0
 40
0
 40
0
 40
1
 40
1
 40
1
 40
1
 10
0.748947
 20
0.897412
 30
0.0
 10
0.748947
 20
0.895061
 30
0.0
 10
0.748450
 20
0.892845
 30
0.0
 10
0.747455
 20
0.890766
 30
0.0
  0
SPLINE
  5
3e7
100
AcDbEntity
  8
Layer_1
 62
3
100
AcDbSpline
 70
8
 71
3
 72
8
 73
4
 74
0
 40
0
 40
0
 40
0
 40
0
 40
1
 40
1
 40
1
 40
1
 10
0.747455
 20
0.890766
 30
0.0
 10
0.746551
 20
0.888686
 30
0.0
 10
0.745285
 20
0.886832
 30
0.0
 10
0.743658
 20
0.885205
 30
0.0
  0
SPLINE
  5
3e8
100
AcDbEntity
  8
Layer_1
 62
3
100
AcDbSpline
 70
8
 71
3
 72
8
 73
4
 74
0
 40
0
 40
0
 40
0
 40
0
 40
1
 40
1
 40
1
 40
1
 10
0.743658
 20
0.885205
 30
0.0
 10
0.742120
 20
0.883668
 30
0.0
 10
0.740312
 20
0.882402
 30
0.0
 10
0.738232
 20
0.881407
 30
0.0
  0
SPLINE
  5
3e9
100
AcDbEntity
  8
Layer_1
 62
3
100
AcDbSpline
 70
8
 71
3
 72
8
 73
4
 74
0
 40
0
 40
0
 40
0
 40
0
 40
1
 40
1
 40
1
 40
1
 10
0.738232
 20
0.881407
 30
0.0
 10
0.736153
 20
0.880503
 30
0.0
 10
0.733937
 20
0.880051
 30
0.0
 10
0.731586
 20
0.880051
 30
0.0
  0
LINE
  5
3ea
100
AcDbEntity
  8
Layer_1
 62
3
100
AcDbLine
 10
0.731586
 20
0.880051
 30
0.0
 11
0.705545
 21
0.880051
 31
0.0
  0
ENDSEC
  0
SECTION
  2
OBJECTS
  0
DICTIONARY
  5
C
330
0
100
AcDbDictionary
  3
ACAD_GROUP
350
D
  3
ACAD_MLINESTYLE
350
17
  0
DICTIONARY
  5
D
330
C
100
AcDbDictionary
  0
DICTIONARY
  5
1A
330
C
100
AcDbDictionary
  0
DICTIONARY
  5
17
330
C
100
AcDbDictionary
  3
STANDARD
350
18
  0
DICTIONARY
  5
19
330
C
100
AcDbDictionary
  0
ENDSEC
  0
EOF
