  0
SECTION
  2
HEADER
  9
$ACADVER
  1
AC1014
  9
$HANDSEED
  5
FFFF
  9
$MEASUREMENT
 70
     1
  0
ENDSEC
  0
SECTION
  2
TABLES
  0
TABLE
  2
VPORT
  5
8
330
0
100
AcDbSymbolTable
 70
     4
  0
VPORT
  5
2E
330
8
100
AcDbSymbolTableRecord
100
AcDbViewportTableRecord
  2
*ACTIVE
 70
     0
 10
0.0
 20
0.0
 11
1.0
 21
1.0
 12
210.0
 22
148.5
 13
0.0
 23
0.0
 14
10.0
 24
10.0
 15
10.0
 25
10.0
 16
0.0
 26
0.0
 36
1.0
 17
0.0
 27
0.0
 37
0.0
 40
341.0
 41
1.24
 42
50.0
 43
0.0
 44
0.0
 50
0.0
 51
0.0
 71
     0
 72
   100
 73
     1
 74
     3
 75
     0
 76
     0
 77
     0
 78
     0
  0
ENDTAB
  0
TABLE
  2
LTYPE
  5
5
330
0
100
AcDbSymbolTable
 70
     1
  0
LTYPE
  5
14
330
5
100
AcDbSymbolTableRecord
100
AcDbLinetypeTableRecord
  2
BYBLOCK
 70
     0
  3

 72
    65
 73
     0
 40
0.0
  0
LTYPE
  5
15
330
5
100
AcDbSymbolTableRecord
100
AcDbLinetypeTableRecord
  2
BYLAYER
 70
     0
  3

 72
    65
 73
     0
 40
0.0
  0
LTYPE
  5
16
330
5
100
AcDbSymbolTableRecord
100
AcDbLinetypeTableRecord
  2
CONTINUOUS
 70
     0
  3
Solid line
 72
    65
 73
     0
 40
0.0
  0
ENDTAB
  0
TABLE
  2
LAYER
  5
2
100
AcDbSymbolTable
 70
2
  0
LAYER
  5
50
100
AcDbSymbolTableRecord
100
AcDbLayerTableRecord
  2
0
 70
0
  6
CONTINUOUS
  0
LAYER
  5
51
100
AcDbSymbolTableRecord
100
AcDbLayerTableRecord
  2
Layer_1
 70
0
  6
CONTINUOUS
  0
ENDTAB
  0
TABLE
  2
STYLE
  5
3
330
0
100
AcDbSymbolTable
 70
     1
  0
STYLE
  5
11
330
3
100
AcDbSymbolTableRecord
100
AcDbTextStyleTableRecord
  2
STANDARD
 70
     0
 40
0.0
 41
1.0
 50
0.0
 71
     0
 42
2.5
  3
txt
  4

  0
ENDTAB
  0
TABLE
  2
VIEW
  5
6
330
0
100
AcDbSymbolTable
 70
     0
  0
ENDTAB
  0
TABLE
  2
UCS
  5
7
330
0
100
AcDbSymbolTable
 70
     0
  0
ENDTAB
  0
TABLE
  2
APPID
  5
9
330
0
100
AcDbSymbolTable
 70
     2
  0
APPID
  5
12
330
9
100
AcDbSymbolTableRecord
100
AcDbRegAppTableRecord
  2
ACAD
 70
     0
  0
ENDTAB
  0
TABLE
  2
DIMSTYLE
  5
A
330
0
100
AcDbSymbolTable
 70
     1
  0
DIMSTYLE
105
27
330
A
100
AcDbSymbolTableRecord
100
AcDbDimStyleTableRecord
  2
ISO-25
 70
     0
  3

  4

  5

  6

  7

 40
1.0
 41
2.5
 42
0.625
 43
3.75
 44
1.25
 45
0.0
 46
0.0
 47
0.0
 48
0.0
140
2.5
141
2.5
142
0.0
143
0.03937007874016
144
1.0
145
0.0
146
1.0
147
0.625
 71
     0
 72
     0
 73
     0
 74
     0
 75
     0
 76
     0
 77
     1
 78
     8
170
     0
171
     3
172
     1
173
     0
174
     0
175
     0
176
     0
177
     0
178
     0
270
     2
271
     2
272
     2
273
     2
274
     3
340
11
275
     0
280
     0
281
     0
282
     0
283
     0
284
     8
285
     0
286
     0
287
     3
288
     0
  0
ENDTAB
  0
TABLE
  2
BLOCK_RECORD
  5
1
330
0
100
AcDbSymbolTable
 70
     1
  0
BLOCK_RECORD
  5
1F
330
1
100
AcDbSymbolTableRecord
100
AcDbBlockTableRecord
  2
*MODEL_SPACE
  0
BLOCK_RECORD
  5
1B
330
1
100
AcDbSymbolTableRecord
100
AcDbBlockTableRecord
  2
*PAPER_SPACE
  0
ENDTAB
  0
ENDSEC
  0
SECTION
  2
BLOCKS
  0
BLOCK
  5
20
330
1F
100
AcDbEntity
  8
0
100
AcDbBlockBegin
  2
*MODEL_SPACE
 70
     0
 10
0.0
 20
0.0
 30
0.0
  3
*MODEL_SPACE
  1

  0
ENDBLK
  5
21
330
1F
100
AcDbEntity
  8
0
100
AcDbBlockEnd
  0
BLOCK
  5
1C
330
1B
100
AcDbEntity
 67
     1
  8
0
100
AcDbBlockBegin
  2
*PAPER_SPACE
  1

  0
ENDBLK
  5
1D
330
1B
100
AcDbEntity
 67
     1
  8
0
100
AcDbBlockEnd
  0
ENDSEC
  0
SECTION
  2
ENTITIES
  0
LINE
  5
100
100
AcDbEntity
  8
Layer_1
 62
7
100
AcDbLine
 10
3.394271
 20
30.207813
 30
0.0
 11
36.928229
 21
30.207813
 31
0.0
  0
LINE
  5
101
100
AcDbEntity
  8
Layer_1
 62
7
100
AcDbLine
 10
36.928229
 20
30.207813
 30
0.0
 11
36.928229
 21
3.394268
 31
0.0
  0
LINE
  5
102
100
AcDbEntity
  8
Layer_1
 62
7
100
AcDbLine
 10
36.928229
 20
3.394268
 30
0.0
 11
3.394271
 21
3.394268
 31
0.0
  0
LINE
  5
103
100
AcDbEntity
  8
Layer_1
 62
7
100
AcDbLine
 10
3.394271
 20
3.394268
 30
0.0
 11
3.394271
 21
30.207813
 31
0.0
  0
SPLINE
  5
104
100
AcDbEntity
  8
Layer_1
 62
7
100
AcDbSpline
 70
8
 71
3
 72
8
 73
4
 74
0
 40
0
 40
0
 40
0
 40
0
 40
1
 40
1
 40
1
 40
1
 10
18.307351
 20
27.218606
 30
0.0
 10
18.307351
 20
26.817574
 30
0.0
 10
18.148042
 20
26.432966
 30
0.0
 10
17.864469
 20
26.149394
 30
0.0
  0
SPLINE
  5
105
100
AcDbEntity
  8
Layer_1
 62
7
100
AcDbSpline
 70
8
 71
3
 72
8
 73
4
 74
0
 40
0
 40
0
 40
0
 40
0
 40
1
 40
1
 40
1
 40
1
 10
17.864469
 20
26.149394
 30
0.0
 10
17.580896
 20
25.865821
 30
0.0
 10
17.196289
 20
25.706511
 30
0.0
 10
16.795257
 20
25.706512
 30
0.0
  0
SPLINE
  5
106
100
AcDbEntity
  8
Layer_1
 62
7
100
AcDbSpline
 70
8
 71
3
 72
8
 73
4
 74
0
 40
0
 40
0
 40
0
 40
0
 40
1
 40
1
 40
1
 40
1
 10
16.795257
 20
25.706512
 30
0.0
 10
16.394224
 20
25.706512
 30
0.0
 10
16.009617
 20
25.865821
 30
0.0
 10
15.726045
 20
26.149394
 30
0.0
  0
SPLINE
  5
107
100
AcDbEntity
  8
Layer_1
 62
7
100
AcDbSpline
 70
8
 71
3
 72
8
 73
4
 74
0
 40
0
 40
0
 40
0
 40
0
 40
1
 40
1
 40
1
 40
1
 10
15.726045
 20
26.149394
 30
0.0
 10
15.442472
 20
26.432967
 30
0.0
 10
15.283163
 20
26.817574
 30
0.0
 10
15.283163
 20
27.218606
 30
0.0
  0
SPLINE
  5
108
100
AcDbEntity
  8
Layer_1
 62
7
100
AcDbSpline
 70
8
 71
3
 72
8
 73
4
 74
0
 40
0
 40
0
 40
0
 40
0
 40
1
 40
1
 40
1
 40
1
 10
15.283163
 20
27.218606
 30
0.0
 10
15.283163
 20
28.053713
 30
0.0
 10
15.960150
 20
28.730700
 30
0.0
 10
16.795257
 20
28.730700
 30
0.0
  0
SPLINE
  5
109
100
AcDbEntity
  8
Layer_1
 62
7
100
AcDbSpline
 70
8
 71
3
 72
8
 73
4
 74
0
 40
0
 40
0
 40
0
 40
0
 40
1
 40
1
 40
1
 40
1
 10
16.795257
 20
28.730700
 30
0.0
 10
17.196289
 20
28.730700
 30
0.0
 10
17.580896
 20
28.571391
 30
0.0
 10
17.864469
 20
28.287818
 30
0.0
  0
SPLINE
  5
10a
100
AcDbEntity
  8
Layer_1
 62
7
100
AcDbSpline
 70
8
 71
3
 72
8
 73
4
 74
0
 40
0
 40
0
 40
0
 40
0
 40
1
 40
1
 40
1
 40
1
 10
17.864469
 20
28.287818
 30
0.0
 10
18.148041
 20
28.004246
 30
0.0
 10
18.307351
 20
27.619639
 30
0.0
 10
18.307351
 20
27.218606
 30
0.0
  0
LINE
  5
10b
100
AcDbEntity
  8
Layer_1
 62
7
100
AcDbLine
 10
18.307351
 20
27.218606
 30
0.0
 11
18.307351
 21
27.218606
 31
0.0
  0
LINE
  5
10c
100
AcDbEntity
  8
Layer_1
 62
1
100
AcDbLine
 10
31.060500
 20
16.801042
 30
0.0
 11
28.978929
 21
10.363202
 31
0.0
  0
LINE
  5
10d
100
AcDbEntity
  8
Layer_1
 62
1
100
AcDbLine
 10
28.978929
 20
10.363202
 30
0.0
 11
23.529304
 21
6.384397
 31
0.0
  0
LINE
  5
10e
100
AcDbEntity
  8
Layer_1
 62
1
100
AcDbLine
 10
23.529304
 20
6.384397
 30
0.0
 11
16.793198
 21
6.384397
 31
0.0
  0
LINE
  5
10f
100
AcDbEntity
  8
Layer_1
 62
1
100
AcDbLine
 10
16.793198
 20
6.384397
 30
0.0
 11
11.343572
 21
10.363201
 31
0.0
  0
LINE
  5
110
100
AcDbEntity
  8
Layer_1
 62
1
100
AcDbLine
 10
11.343572
 20
10.363201
 30
0.0
 11
9.262001
 21
16.801042
 31
0.0
  0
LINE
  5
111
100
AcDbEntity
  8
Layer_1
 62
1
100
AcDbLine
 10
9.262001
 20
16.801042
 30
0.0
 11
11.343572
 21
23.238882
 31
0.0
  0
LINE
  5
112
100
AcDbEntity
  8
Layer_1
 62
1
100
AcDbLine
 10
11.343572
 20
23.238882
 30
0.0
 11
16.793197
 21
27.217687
 31
0.0
  0
LINE
  5
113
100
AcDbEntity
  8
Layer_1
 62
1
100
AcDbLine
 10
16.793197
 20
27.217687
 30
0.0
 11
23.529303
 21
27.217687
 31
0.0
  0
LINE
  5
114
100
AcDbEntity
  8
Layer_1
 62
1
100
AcDbLine
 10
23.529303
 20
27.217687
 30
0.0
 11
28.978928
 21
23.238883
 31
0.0
  0
LINE
  5
115
100
AcDbEntity
  8
Layer_1
 62
1
100
AcDbLine
 10
28.978928
 20
23.238883
 30
0.0
 11
31.060500
 21
16.801042
 31
0.0
  0
SPLINE
  5
116
100
AcDbEntity
  8
Layer_1
 62
7
100
AcDbSpline
 70
8
 71
3
 72
8
 73
4
 74
0
 40
0
 40
0
 40
0
 40
0
 40
1
 40
1
 40
1
 40
1
 10
25.040817
 20
27.218606
 30
0.0
 10
25.040817
 20
26.817574
 30
0.0
 10
24.881508
 20
26.432967
 30
0.0
 10
24.597935
 20
26.149394
 30
0.0
  0
SPLINE
  5
117
100
AcDbEntity
  8
Layer_1
 62
7
100
AcDbSpline
 70
8
 71
3
 72
8
 73
4
 74
0
 40
0
 40
0
 40
0
 40
0
 40
1
 40
1
 40
1
 40
1
 10
24.597935
 20
26.149394
 30
0.0
 10
24.314363
 20
25.865821
 30
0.0
 10
23.929756
 20
25.706512
 30
0.0
 10
23.528723
 20
25.706512
 30
0.0
  0
SPLINE
  5
118
100
AcDbEntity
  8
Layer_1
 62
7
100
AcDbSpline
 70
8
 71
3
 72
8
 73
4
 74
0
 40
0
 40
0
 40
0
 40
0
 40
1
 40
1
 40
1
 40
1
 10
23.528723
 20
25.706512
 30
0.0
 10
23.127691
 20
25.706512
 30
0.0
 10
22.743084
 20
25.865821
 30
0.0
 10
22.459511
 20
26.149394
 30
0.0
  0
SPLINE
  5
119
100
AcDbEntity
  8
Layer_1
 62
7
100
AcDbSpline
 70
8
 71
3
 72
8
 73
4
 74
0
 40
0
 40
0
 40
0
 40
0
 40
1
 40
1
 40
1
 40
1
 10
22.459511
 20
26.149394
 30
0.0
 10
22.175939
 20
26.432967
 30
0.0
 10
22.016629
 20
26.817574
 30
0.0
 10
22.016630
 20
27.218606
 30
0.0
  0
SPLINE
  5
11a
100
AcDbEntity
  8
Layer_1
 62
7
100
AcDbSpline
 70
8
 71
3
 72
8
 73
4
 74
0
 40
0
 40
0
 40
0
 40
0
 40
1
 40
1
 40
1
 40
1
 10
22.016630
 20
27.218606
 30
0.0
 10
22.016630
 20
28.053712
 30
0.0
 10
22.693617
 20
28.730700
 30
0.0
 10
23.528723
 20
28.730700
 30
0.0
  0
SPLINE
  5
11b
100
AcDbEntity
  8
Layer_1
 62
7
100
AcDbSpline
 70
8
 71
3
 72
8
 73
4
 74
0
 40
0
 40
0
 40
0
 40
0
 40
1
 40
1
 40
1
 40
1
 10
23.528723
 20
28.730700
 30
0.0
 10
24.363830
 20
28.730700
 30
0.0
 10
25.040817
 20
28.053712
 30
0.0
 10
25.040817
 20
27.218606
 30
0.0
  0
LINE
  5
11c
100
AcDbEntity
  8
Layer_1
 62
7
100
AcDbLine
 10
25.040817
 20
27.218606
 30
0.0
 11
25.040817
 21
27.218606
 31
0.0
  0
SPLINE
  5
11d
100
AcDbEntity
  8
Layer_1
 62
7
100
AcDbSpline
 70
8
 71
3
 72
8
 73
4
 74
0
 40
0
 40
0
 40
0
 40
0
 40
1
 40
1
 40
1
 40
1
 10
30.489132
 20
23.232157
 30
0.0
 10
30.489132
 20
22.831125
 30
0.0
 10
30.329823
 20
22.446518
 30
0.0
 10
30.046250
 20
22.162945
 30
0.0
  0
SPLINE
  5
11e
100
AcDbEntity
  8
Layer_1
 62
7
100
AcDbSpline
 70
8
 71
3
 72
8
 73
4
 74
0
 40
0
 40
0
 40
0
 40
0
 40
1
 40
1
 40
1
 40
1
 10
30.046250
 20
22.162945
 30
0.0
 10
29.762678
 20
21.879372
 30
0.0
 10
29.378071
 20
21.720063
 30
0.0
 10
28.977039
 20
21.720063
 30
0.0
  0
SPLINE
  5
11f
100
AcDbEntity
  8
Layer_1
 62
7
100
AcDbSpline
 70
8
 71
3
 72
8
 73
4
 74
0
 40
0
 40
0
 40
0
 40
0
 40
1
 40
1
 40
1
 40
1
 10
28.977039
 20
21.720063
 30
0.0
 10
28.576006
 20
21.720063
 30
0.0
 10
28.191399
 20
21.879372
 30
0.0
 10
27.907827
 20
22.162945
 30
0.0
  0
SPLINE
  5
120
100
AcDbEntity
  8
Layer_1
 62
7
100
AcDbSpline
 70
8
 71
3
 72
8
 73
4
 74
0
 40
0
 40
0
 40
0
 40
0
 40
1
 40
1
 40
1
 40
1
 10
27.907827
 20
22.162945
 30
0.0
 10
27.624254
 20
22.446518
 30
0.0
 10
27.464945
 20
22.831125
 30
0.0
 10
27.464945
 20
23.232157
 30
0.0
  0
SPLINE
  5
121
100
AcDbEntity
  8
Layer_1
 62
7
100
AcDbSpline
 70
8
 71
3
 72
8
 73
4
 74
0
 40
0
 40
0
 40
0
 40
0
 40
1
 40
1
 40
1
 40
1
 10
27.464945
 20
23.232157
 30
0.0
 10
27.464945
 20
24.067263
 30
0.0
 10
28.141932
 20
24.744251
 30
0.0
 10
28.977039
 20
24.744251
 30
0.0
  0
SPLINE
  5
122
100
AcDbEntity
  8
Layer_1
 62
7
100
AcDbSpline
 70
8
 71
3
 72
8
 73
4
 74
0
 40
0
 40
0
 40
0
 40
0
 40
1
 40
1
 40
1
 40
1
 10
28.977039
 20
24.744251
 30
0.0
 10
29.812145
 20
24.744251
 30
0.0
 10
30.489132
 20
24.067263
 30
0.0
 10
30.489132
 20
23.232157
 30
0.0
  0
LINE
  5
123
100
AcDbEntity
  8
Layer_1
 62
7
100
AcDbLine
 10
30.489132
 20
23.232157
 30
0.0
 11
30.489132
 21
23.232157
 31
0.0
  0
SPLINE
  5
124
100
AcDbEntity
  8
Layer_1
 62
7
100
AcDbSpline
 70
8
 71
3
 72
8
 73
4
 74
0
 40
0
 40
0
 40
0
 40
0
 40
1
 40
1
 40
1
 40
1
 10
32.566525
 20
16.801043
 30
0.0
 10
32.566525
 20
16.400010
 30
0.0
 10
32.407216
 20
16.015403
 30
0.0
 10
32.123643
 20
15.731831
 30
0.0
  0
SPLINE
  5
125
100
AcDbEntity
  8
Layer_1
 62
7
100
AcDbSpline
 70
8
 71
3
 72
8
 73
4
 74
0
 40
0
 40
0
 40
0
 40
0
 40
1
 40
1
 40
1
 40
1
 10
32.123643
 20
15.731831
 30
0.0
 10
31.840071
 20
15.448258
 30
0.0
 10
31.455464
 20
15.288948
 30
0.0
 10
31.054431
 20
15.288948
 30
0.0
  0
SPLINE
  5
126
100
AcDbEntity
  8
Layer_1
 62
7
100
AcDbSpline
 70
8
 71
3
 72
8
 73
4
 74
0
 40
0
 40
0
 40
0
 40
0
 40
1
 40
1
 40
1
 40
1
 10
31.054431
 20
15.288948
 30
0.0
 10
30.653399
 20
15.288948
 30
0.0
 10
30.268792
 20
15.448258
 30
0.0
 10
29.985219
 20
15.731831
 30
0.0
  0
SPLINE
  5
127
100
AcDbEntity
  8
Layer_1
 62
7
100
AcDbSpline
 70
8
 71
3
 72
8
 73
4
 74
0
 40
0
 40
0
 40
0
 40
0
 40
1
 40
1
 40
1
 40
1
 10
29.985219
 20
15.731831
 30
0.0
 10
29.701647
 20
16.015403
 30
0.0
 10
29.542337
 20
16.400010
 30
0.0
 10
29.542338
 20
16.801043
 30
0.0
  0
SPLINE
  5
128
100
AcDbEntity
  8
Layer_1
 62
7
100
AcDbSpline
 70
8
 71
3
 72
8
 73
4
 74
0
 40
0
 40
0
 40
0
 40
0
 40
1
 40
1
 40
1
 40
1
 10
29.542338
 20
16.801043
 30
0.0
 10
29.542338
 20
17.636149
 30
0.0
 10
30.219325
 20
18.313136
 30
0.0
 10
31.054431
 20
18.313136
 30
0.0
  0
SPLINE
  5
129
100
AcDbEntity
  8
Layer_1
 62
7
100
AcDbSpline
 70
8
 71
3
 72
8
 73
4
 74
0
 40
0
 40
0
 40
0
 40
0
 40
1
 40
1
 40
1
 40
1
 10
31.054431
 20
18.313136
 30
0.0
 10
31.889538
 20
18.313136
 30
0.0
 10
32.566525
 20
17.636149
 30
0.0
 10
32.566525
 20
16.801043
 30
0.0
  0
LINE
  5
12a
100
AcDbEntity
  8
Layer_1
 62
7
100
AcDbLine
 10
32.566525
 20
16.801043
 30
0.0
 11
32.566525
 21
16.801043
 31
0.0
  0
SPLINE
  5
12b
100
AcDbEntity
  8
Layer_1
 62
7
100
AcDbSpline
 70
8
 71
3
 72
8
 73
4
 74
0
 40
0
 40
0
 40
0
 40
0
 40
1
 40
1
 40
1
 40
1
 10
30.489132
 20
10.360020
 30
0.0
 10
30.489132
 20
9.958987
 30
0.0
 10
30.329823
 20
9.574380
 30
0.0
 10
30.046250
 20
9.290808
 30
0.0
  0
SPLINE
  5
12c
100
AcDbEntity
  8
Layer_1
 62
7
100
AcDbSpline
 70
8
 71
3
 72
8
 73
4
 74
0
 40
0
 40
0
 40
0
 40
0
 40
1
 40
1
 40
1
 40
1
 10
30.046250
 20
9.290808
 30
0.0
 10
29.762678
 20
9.007235
 30
0.0
 10
29.378071
 20
8.847925
 30
0.0
 10
28.977039
 20
8.847925
 30
0.0
  0
SPLINE
  5
12d
100
AcDbEntity
  8
Layer_1
 62
7
100
AcDbSpline
 70
8
 71
3
 72
8
 73
4
 74
0
 40
0
 40
0
 40
0
 40
0
 40
1
 40
1
 40
1
 40
1
 10
28.977039
 20
8.847925
 30
0.0
 10
28.576006
 20
8.847925
 30
0.0
 10
28.191399
 20
9.007235
 30
0.0
 10
27.907827
 20
9.290808
 30
0.0
  0
SPLINE
  5
12e
100
AcDbEntity
  8
Layer_1
 62
7
100
AcDbSpline
 70
8
 71
3
 72
8
 73
4
 74
0
 40
0
 40
0
 40
0
 40
0
 40
1
 40
1
 40
1
 40
1
 10
27.907827
 20
9.290808
 30
0.0
 10
27.624254
 20
9.574380
 30
0.0
 10
27.464945
 20
9.958987
 30
0.0
 10
27.464945
 20
10.360020
 30
0.0
  0
SPLINE
  5
12f
100
AcDbEntity
  8
Layer_1
 62
7
100
AcDbSpline
 70
8
 71
3
 72
8
 73
4
 74
0
 40
0
 40
0
 40
0
 40
0
 40
1
 40
1
 40
1
 40
1
 10
27.464945
 20
10.360020
 30
0.0
 10
27.464945
 20
11.195126
 30
0.0
 10
28.141932
 20
11.872113
 30
0.0
 10
28.977039
 20
11.872113
 30
0.0
  0
SPLINE
  5
130
100
AcDbEntity
  8
Layer_1
 62
7
100
AcDbSpline
 70
8
 71
3
 72
8
 73
4
 74
0
 40
0
 40
0
 40
0
 40
0
 40
1
 40
1
 40
1
 40
1
 10
28.977039
 20
11.872113
 30
0.0
 10
29.812145
 20
11.872113
 30
0.0
 10
30.489132
 20
11.195126
 30
0.0
 10
30.489132
 20
10.360020
 30
0.0
  0
LINE
  5
131
100
AcDbEntity
  8
Layer_1
 62
7
100
AcDbLine
 10
30.489132
 20
10.360020
 30
0.0
 11
30.489132
 21
10.360020
 31
0.0
  0
SPLINE
  5
132
100
AcDbEntity
  8
Layer_1
 62
7
100
AcDbSpline
 70
8
 71
3
 72
8
 73
4
 74
0
 40
0
 40
0
 40
0
 40
0
 40
1
 40
1
 40
1
 40
1
 10
25.040817
 20
6.391080
 30
0.0
 10
25.040817
 20
5.555974
 30
0.0
 10
24.363830
 20
4.878987
 30
0.0
 10
23.528723
 20
4.878987
 30
0.0
  0
SPLINE
  5
133
100
AcDbEntity
  8
Layer_1
 62
7
100
AcDbSpline
 70
8
 71
3
 72
8
 73
4
 74
0
 40
0
 40
0
 40
0
 40
0
 40
1
 40
1
 40
1
 40
1
 10
23.528723
 20
4.878987
 30
0.0
 10
22.693617
 20
4.878987
 30
0.0
 10
22.016630
 20
5.555974
 30
0.0
 10
22.016630
 20
6.391080
 30
0.0
  0
SPLINE
  5
134
100
AcDbEntity
  8
Layer_1
 62
7
100
AcDbSpline
 70
8
 71
3
 72
8
 73
4
 74
0
 40
0
 40
0
 40
0
 40
0
 40
1
 40
1
 40
1
 40
1
 10
22.016630
 20
6.391080
 30
0.0
 10
22.016630
 20
7.226186
 30
0.0
 10
22.693617
 20
7.903174
 30
0.0
 10
23.528723
 20
7.903174
 30
0.0
  0
SPLINE
  5
135
100
AcDbEntity
  8
Layer_1
 62
7
100
AcDbSpline
 70
8
 71
3
 72
8
 73
4
 74
0
 40
0
 40
0
 40
0
 40
0
 40
1
 40
1
 40
1
 40
1
 10
23.528723
 20
7.903174
 30
0.0
 10
24.363830
 20
7.903174
 30
0.0
 10
25.040817
 20
7.226186
 30
0.0
 10
25.040817
 20
6.391080
 30
0.0
  0
LINE
  5
136
100
AcDbEntity
  8
Layer_1
 62
7
100
AcDbLine
 10
25.040817
 20
6.391080
 30
0.0
 11
25.040817
 21
6.391080
 31
0.0
  0
SPLINE
  5
137
100
AcDbEntity
  8
Layer_1
 62
7
100
AcDbSpline
 70
8
 71
3
 72
8
 73
4
 74
0
 40
0
 40
0
 40
0
 40
0
 40
1
 40
1
 40
1
 40
1
 10
18.305520
 20
6.391080
 30
0.0
 10
18.305520
 20
5.555974
 30
0.0
 10
17.628532
 20
4.878987
 30
0.0
 10
16.793426
 20
4.878987
 30
0.0
  0
SPLINE
  5
138
100
AcDbEntity
  8
Layer_1
 62
7
100
AcDbSpline
 70
8
 71
3
 72
8
 73
4
 74
0
 40
0
 40
0
 40
0
 40
0
 40
1
 40
1
 40
1
 40
1
 10
16.793426
 20
4.878987
 30
0.0
 10
15.958320
 20
4.878987
 30
0.0
 10
15.281332
 20
5.555974
 30
0.0
 10
15.281332
 20
6.391080
 30
0.0
  0
SPLINE
  5
139
100
AcDbEntity
  8
Layer_1
 62
7
100
AcDbSpline
 70
8
 71
3
 72
8
 73
4
 74
0
 40
0
 40
0
 40
0
 40
0
 40
1
 40
1
 40
1
 40
1
 10
15.281332
 20
6.391080
 30
0.0
 10
15.281332
 20
7.226186
 30
0.0
 10
15.958320
 20
7.903174
 30
0.0
 10
16.793426
 20
7.903174
 30
0.0
  0
SPLINE
  5
13a
100
AcDbEntity
  8
Layer_1
 62
7
100
AcDbSpline
 70
8
 71
3
 72
8
 73
4
 74
0
 40
0
 40
0
 40
0
 40
0
 40
1
 40
1
 40
1
 40
1
 10
16.793426
 20
7.903174
 30
0.0
 10
17.628532
 20
7.903174
 30
0.0
 10
18.305520
 20
7.226186
 30
0.0
 10
18.305520
 20
6.391080
 30
0.0
  0
LINE
  5
13b
100
AcDbEntity
  8
Layer_1
 62
7
100
AcDbLine
 10
18.305520
 20
6.391080
 30
0.0
 11
18.305520
 21
6.391080
 31
0.0
  0
SPLINE
  5
13c
100
AcDbEntity
  8
Layer_1
 62
7
100
AcDbSpline
 70
8
 71
3
 72
8
 73
4
 74
0
 40
0
 40
0
 40
0
 40
0
 40
1
 40
1
 40
1
 40
1
 10
12.853354
 20
10.360020
 30
0.0
 10
12.853354
 20
9.958987
 30
0.0
 10
12.694045
 20
9.574380
 30
0.0
 10
12.410472
 20
9.290807
 30
0.0
  0
SPLINE
  5
13d
100
AcDbEntity
  8
Layer_1
 62
7
100
AcDbSpline
 70
8
 71
3
 72
8
 73
4
 74
0
 40
0
 40
0
 40
0
 40
0
 40
1
 40
1
 40
1
 40
1
 10
12.410472
 20
9.290807
 30
0.0
 10
12.126900
 20
9.007235
 30
0.0
 10
11.742293
 20
8.847925
 30
0.0
 10
11.341260
 20
8.847925
 30
0.0
  0
SPLINE
  5
13e
100
AcDbEntity
  8
Layer_1
 62
7
100
AcDbSpline
 70
8
 71
3
 72
8
 73
4
 74
0
 40
0
 40
0
 40
0
 40
0
 40
1
 40
1
 40
1
 40
1
 10
11.341260
 20
8.847925
 30
0.0
 10
10.940228
 20
8.847925
 30
0.0
 10
10.555621
 20
9.007234
 30
0.0
 10
10.272048
 20
9.290807
 30
0.0
  0
SPLINE
  5
13f
100
AcDbEntity
  8
Layer_1
 62
7
100
AcDbSpline
 70
8
 71
3
 72
8
 73
4
 74
0
 40
0
 40
0
 40
0
 40
0
 40
1
 40
1
 40
1
 40
1
 10
10.272048
 20
9.290807
 30
0.0
 10
9.988475
 20
9.574380
 30
0.0
 10
9.829166
 20
9.958987
 30
0.0
 10
9.829166
 20
10.360020
 30
0.0
  0
SPLINE
  5
140
100
AcDbEntity
  8
Layer_1
 62
7
100
AcDbSpline
 70
8
 71
3
 72
8
 73
4
 74
0
 40
0
 40
0
 40
0
 40
0
 40
1
 40
1
 40
1
 40
1
 10
9.829166
 20
10.360020
 30
0.0
 10
9.829166
 20
10.761052
 30
0.0
 10
9.988476
 20
11.145659
 30
0.0
 10
10.272048
 20
11.429232
 30
0.0
  0
SPLINE
  5
141
100
AcDbEntity
  8
Layer_1
 62
7
100
AcDbSpline
 70
8
 71
3
 72
8
 73
4
 74
0
 40
0
 40
0
 40
0
 40
0
 40
1
 40
1
 40
1
 40
1
 10
10.272048
 20
11.429232
 30
0.0
 10
10.555621
 20
11.712804
 30
0.0
 10
10.940228
 20
11.872114
 30
0.0
 10
11.341260
 20
11.872113
 30
0.0
  0
SPLINE
  5
142
100
AcDbEntity
  8
Layer_1
 62
7
100
AcDbSpline
 70
8
 71
3
 72
8
 73
4
 74
0
 40
0
 40
0
 40
0
 40
0
 40
1
 40
1
 40
1
 40
1
 10
11.341260
 20
11.872113
 30
0.0
 10
12.176367
 20
11.872114
 30
0.0
 10
12.853354
 20
11.195126
 30
0.0
 10
12.853354
 20
10.360020
 30
0.0
  0
LINE
  5
143
100
AcDbEntity
  8
Layer_1
 62
7
100
AcDbLine
 10
12.853354
 20
10.360020
 30
0.0
 11
12.853354
 21
10.360020
 31
0.0
  0
SPLINE
  5
144
100
AcDbEntity
  8
Layer_1
 62
7
100
AcDbSpline
 70
8
 71
3
 72
8
 73
4
 74
0
 40
0
 40
0
 40
0
 40
0
 40
1
 40
1
 40
1
 40
1
 10
10.779576
 20
16.801043
 30
0.0
 10
10.779576
 20
16.400010
 30
0.0
 10
10.620267
 20
16.015403
 30
0.0
 10
10.336694
 20
15.731831
 30
0.0
  0
SPLINE
  5
145
100
AcDbEntity
  8
Layer_1
 62
7
100
AcDbSpline
 70
8
 71
3
 72
8
 73
4
 74
0
 40
0
 40
0
 40
0
 40
0
 40
1
 40
1
 40
1
 40
1
 10
10.336694
 20
15.731831
 30
0.0
 10
10.053121
 20
15.448258
 30
0.0
 10
9.668514
 20
15.288948
 30
0.0
 10
9.267482
 20
15.288948
 30
0.0
  0
SPLINE
  5
146
100
AcDbEntity
  8
Layer_1
 62
7
100
AcDbSpline
 70
8
 71
3
 72
8
 73
4
 74
0
 40
0
 40
0
 40
0
 40
0
 40
1
 40
1
 40
1
 40
1
 10
9.267482
 20
15.288948
 30
0.0
 10
8.866450
 20
15.288948
 30
0.0
 10
8.481843
 20
15.448258
 30
0.0
 10
8.198270
 20
15.731830
 30
0.0
  0
SPLINE
  5
147
100
AcDbEntity
  8
Layer_1
 62
7
100
AcDbSpline
 70
8
 71
3
 72
8
 73
4
 74
0
 40
0
 40
0
 40
0
 40
0
 40
1
 40
1
 40
1
 40
1
 10
8.198270
 20
15.731830
 30
0.0
 10
7.914697
 20
16.015403
 30
0.0
 10
7.755388
 20
16.400010
 30
0.0
 10
7.755388
 20
16.801043
 30
0.0
  0
SPLINE
  5
148
100
AcDbEntity
  8
Layer_1
 62
7
100
AcDbSpline
 70
8
 71
3
 72
8
 73
4
 74
0
 40
0
 40
0
 40
0
 40
0
 40
1
 40
1
 40
1
 40
1
 10
7.755388
 20
16.801043
 30
0.0
 10
7.755388
 20
17.636149
 30
0.0
 10
8.432376
 20
18.313136
 30
0.0
 10
9.267482
 20
18.313136
 30
0.0
  0
SPLINE
  5
149
100
AcDbEntity
  8
Layer_1
 62
7
100
AcDbSpline
 70
8
 71
3
 72
8
 73
4
 74
0
 40
0
 40
0
 40
0
 40
0
 40
1
 40
1
 40
1
 40
1
 10
9.267482
 20
18.313136
 30
0.0
 10
10.102588
 20
18.313136
 30
0.0
 10
10.779576
 20
17.636149
 30
0.0
 10
10.779576
 20
16.801043
 30
0.0
  0
LINE
  5
14a
100
AcDbEntity
  8
Layer_1
 62
7
100
AcDbLine
 10
10.779576
 20
16.801043
 30
0.0
 11
10.779576
 21
16.801043
 31
0.0
  0
SPLINE
  5
14b
100
AcDbEntity
  8
Layer_1
 62
7
100
AcDbSpline
 70
8
 71
3
 72
8
 73
4
 74
0
 40
0
 40
0
 40
0
 40
0
 40
1
 40
1
 40
1
 40
1
 10
12.853354
 20
23.232157
 30
0.0
 10
12.853354
 20
22.831125
 30
0.0
 10
12.694045
 20
22.446518
 30
0.0
 10
12.410472
 20
22.162945
 30
0.0
  0
SPLINE
  5
14c
100
AcDbEntity
  8
Layer_1
 62
7
100
AcDbSpline
 70
8
 71
3
 72
8
 73
4
 74
0
 40
0
 40
0
 40
0
 40
0
 40
1
 40
1
 40
1
 40
1
 10
12.410472
 20
22.162945
 30
0.0
 10
12.126900
 20
21.879372
 30
0.0
 10
11.742293
 20
21.720063
 30
0.0
 10
11.341260
 20
21.720063
 30
0.0
  0
SPLINE
  5
14d
100
AcDbEntity
  8
Layer_1
 62
7
100
AcDbSpline
 70
8
 71
3
 72
8
 73
4
 74
0
 40
0
 40
0
 40
0
 40
0
 40
1
 40
1
 40
1
 40
1
 10
11.341260
 20
21.720063
 30
0.0
 10
10.940228
 20
21.720063
 30
0.0
 10
10.555621
 20
21.879372
 30
0.0
 10
10.272048
 20
22.162945
 30
0.0
  0
SPLINE
  5
14e
100
AcDbEntity
  8
Layer_1
 62
7
100
AcDbSpline
 70
8
 71
3
 72
8
 73
4
 74
0
 40
0
 40
0
 40
0
 40
0
 40
1
 40
1
 40
1
 40
1
 10
10.272048
 20
22.162945
 30
0.0
 10
9.988475
 20
22.446517
 30
0.0
 10
9.829166
 20
22.831125
 30
0.0
 10
9.829166
 20
23.232157
 30
0.0
  0
SPLINE
  5
14f
100
AcDbEntity
  8
Layer_1
 62
7
100
AcDbSpline
 70
8
 71
3
 72
8
 73
4
 74
0
 40
0
 40
0
 40
0
 40
0
 40
1
 40
1
 40
1
 40
1
 10
9.829166
 20
23.232157
 30
0.0
 10
9.829166
 20
23.633190
 30
0.0
 10
9.988476
 20
24.017797
 30
0.0
 10
10.272048
 20
24.301369
 30
0.0
  0
SPLINE
  5
150
100
AcDbEntity
  8
Layer_1
 62
7
100
AcDbSpline
 70
8
 71
3
 72
8
 73
4
 74
0
 40
0
 40
0
 40
0
 40
0
 40
1
 40
1
 40
1
 40
1
 10
10.272048
 20
24.301369
 30
0.0
 10
10.555621
 20
24.584942
 30
0.0
 10
10.940228
 20
24.744251
 30
0.0
 10
11.341260
 20
24.744251
 30
0.0
  0
SPLINE
  5
151
100
AcDbEntity
  8
Layer_1
 62
7
100
AcDbSpline
 70
8
 71
3
 72
8
 73
4
 74
0
 40
0
 40
0
 40
0
 40
0
 40
1
 40
1
 40
1
 40
1
 10
11.341260
 20
24.744251
 30
0.0
 10
12.176367
 20
24.744251
 30
0.0
 10
12.853354
 20
24.067264
 30
0.0
 10
12.853354
 20
23.232157
 30
0.0
  0
LINE
  5
152
100
AcDbEntity
  8
Layer_1
 62
7
100
AcDbLine
 10
12.853354
 20
23.232157
 30
0.0
 11
12.853354
 21
23.232157
 31
0.0
  0
SPLINE
  5
153
100
AcDbEntity
  8
Layer_1
 62
1
100
AcDbSpline
 70
8
 71
3
 72
8
 73
4
 74
0
 40
0
 40
0
 40
0
 40
0
 40
1
 40
1
 40
1
 40
1
 10
21.893092
 20
23.699636
 30
0.0
 10
25.703081
 20
22.743167
 30
0.0
 10
28.016316
 20
18.879189
 30
0.0
 10
27.059847
 20
15.069199
 30
0.0
  0
SPLINE
  5
154
100
AcDbEntity
  8
Layer_1
 62
1
100
AcDbSpline
 70
8
 71
3
 72
8
 73
4
 74
0
 40
0
 40
0
 40
0
 40
0
 40
1
 40
1
 40
1
 40
1
 10
27.059847
 20
15.069199
 30
0.0
 10
26.103377
 20
11.259210
 30
0.0
 10
22.239399
 20
8.945975
 30
0.0
 10
18.429410
 20
9.902444
 30
0.0
  0
SPLINE
  5
155
100
AcDbEntity
  8
Layer_1
 62
1
100
AcDbSpline
 70
8
 71
3
 72
8
 73
4
 74
0
 40
0
 40
0
 40
0
 40
0
 40
1
 40
1
 40
1
 40
1
 10
18.429410
 20
9.902444
 30
0.0
 10
14.619421
 20
10.858914
 30
0.0
 10
12.306186
 20
14.722891
 30
0.0
 10
13.262654
 20
18.532881
 30
0.0
  0
SPLINE
  5
156
100
AcDbEntity
  8
Layer_1
 62
1
100
AcDbSpline
 70
8
 71
3
 72
8
 73
4
 74
0
 40
0
 40
0
 40
0
 40
0
 40
1
 40
1
 40
1
 40
1
 10
13.262654
 20
18.532881
 30
0.0
 10
14.219124
 20
22.342870
 30
0.0
 10
18.083102
 20
24.656105
 30
0.0
 10
21.893092
 20
23.699636
 30
0.0
  0
LINE
  5
157
100
AcDbEntity
  8
Layer_1
 62
1
100
AcDbLine
 10
21.893092
 20
23.699636
 30
0.0
 11
21.893092
 21
23.699636
 31
0.0
  0
SPLINE
  5
158
100
AcDbEntity
  8
Layer_1
 62
3
100
AcDbSpline
 70
8
 71
3
 72
8
 73
4
 74
0
 40
0
 40
0
 40
0
 40
0
 40
1
 40
1
 40
1
 40
1
 10
22.156831
 20
23.905371
 30
0.0
 10
22.193992
 20
23.850598
 30
0.0
 10
22.245346
 20
23.812678
 30
0.0
 10
22.310893
 20
23.791610
 30
0.0
  0
SPLINE
  5
159
100
AcDbEntity
  8
Layer_1
 62
3
100
AcDbSpline
 70
8
 71
3
 72
8
 73
4
 74
0
 40
0
 40
0
 40
0
 40
0
 40
1
 40
1
 40
1
 40
1
 10
22.310893
 20
23.791610
 30
0.0
 10
22.389805
 20
23.766247
 30
0.0
 10
22.466261
 20
23.772566
 30
0.0
 10
22.540262
 20
23.810568
 30
0.0
  0
SPLINE
  5
15a
100
AcDbEntity
  8
Layer_1
 62
3
100
AcDbSpline
 70
8
 71
3
 72
8
 73
4
 74
0
 40
0
 40
0
 40
0
 40
0
 40
1
 40
1
 40
1
 40
1
 10
22.540262
 20
23.810568
 30
0.0
 10
22.614263
 20
23.848570
 30
0.0
 10
22.663945
 20
23.907027
 30
0.0
 10
22.689308
 20
23.985939
 30
0.0
  0
LINE
  5
15b
100
AcDbEntity
  8
Layer_1
 62
3
100
AcDbLine
 10
22.689308
 20
23.985939
 30
0.0
 11
22.842713
 21
24.463224
 31
0.0
  0
SPLINE
  5
15c
100
AcDbEntity
  8
Layer_1
 62
3
100
AcDbSpline
 70
8
 71
3
 72
8
 73
4
 74
0
 40
0
 40
0
 40
0
 40
0
 40
1
 40
1
 40
1
 40
1
 10
22.842713
 20
24.463224
 30
0.0
 10
22.846601
 20
24.475315
 30
0.0
 10
22.849748
 20
24.487293
 30
0.0
 10
22.852156
 20
24.499157
 30
0.0
  0
LINE
  5
15d
100
AcDbEntity
  8
Layer_1
 62
3
100
AcDbLine
 10
22.852156
 20
24.499157
 30
0.0
 11
22.156831
 21
23.905371
 31
0.0
  0
LINE
  5
15e
100
AcDbEntity
  8
Layer_1
 62
3
100
AcDbLine
 10
22.107122
 20
24.134092
 30
0.0
 11
22.802447
 21
24.727878
 31
0.0
  0
SPLINE
  5
15f
100
AcDbEntity
  8
Layer_1
 62
3
100
AcDbSpline
 70
8
 71
3
 72
8
 73
4
 74
0
 40
0
 40
0
 40
0
 40
0
 40
1
 40
1
 40
1
 40
1
 10
22.802447
 20
24.727878
 30
0.0
 10
22.765286
 20
24.782651
 30
0.0
 10
22.713932
 20
24.820572
 30
0.0
 10
22.648385
 20
24.841640
 30
0.0
  0
SPLINE
  5
160
100
AcDbEntity
  8
Layer_1
 62
3
100
AcDbSpline
 70
8
 71
3
 72
8
 73
4
 74
0
 40
0
 40
0
 40
0
 40
0
 40
1
 40
1
 40
1
 40
1
 10
22.648385
 20
24.841640
 30
0.0
 10
22.569473
 20
24.867002
 30
0.0
 10
22.493017
 20
24.860682
 30
0.0
 10
22.419016
 20
24.822680
 30
0.0
  0
SPLINE
  5
161
100
AcDbEntity
  8
Layer_1
 62
3
100
AcDbSpline
 70
8
 71
3
 72
8
 73
4
 74
0
 40
0
 40
0
 40
0
 40
0
 40
1
 40
1
 40
1
 40
1
 10
22.419016
 20
24.822680
 30
0.0
 10
22.345015
 20
24.784679
 30
0.0
 10
22.295333
 20
24.726222
 30
0.0
 10
22.269970
 20
24.647310
 30
0.0
  0
LINE
  5
162
100
AcDbEntity
  8
Layer_1
 62
3
100
AcDbLine
 10
22.269970
 20
24.647310
 30
0.0
 11
22.116565
 21
24.170025
 31
0.0
  0
SPLINE
  5
163
100
AcDbEntity
  8
Layer_1
 62
3
100
AcDbSpline
 70
8
 71
3
 72
8
 73
4
 74
0
 40
0
 40
0
 40
0
 40
0
 40
1
 40
1
 40
1
 40
1
 10
22.116565
 20
24.170025
 30
0.0
 10
22.112677
 20
24.157933
 30
0.0
 10
22.109530
 20
24.145956
 30
0.0
 10
22.107122
 20
24.134092
 30
0.0
  0
LINE
  5
164
100
AcDbEntity
  8
Layer_1
 62
3
100
AcDbLine
 10
22.107122
 20
24.134092
 30
0.0
 11
22.107122
 21
24.134092
 31
0.0
  0
SPLINE
  5
165
100
AcDbEntity
  8
Layer_1
 62
3
100
AcDbSpline
 70
8
 71
3
 72
8
 73
4
 74
0
 40
0
 40
0
 40
0
 40
0
 40
1
 40
1
 40
1
 40
1
 10
23.046647
 20
24.665187
 30
0.0
 10
23.066807
 20
24.579367
 30
0.0
 10
23.062467
 20
24.491592
 30
0.0
 10
23.033627
 20
24.401863
 30
0.0
  0
LINE
  5
166
100
AcDbEntity
  8
Layer_1
 62
3
100
AcDbLine
 10
23.033627
 20
24.401863
 30
0.0
 11
22.880223
 21
23.924576
 31
0.0
  0
SPLINE
  5
167
100
AcDbEntity
  8
Layer_1
 62
3
100
AcDbSpline
 70
8
 71
3
 72
8
 73
4
 74
0
 40
0
 40
0
 40
0
 40
0
 40
1
 40
1
 40
1
 40
1
 10
22.880223
 20
23.924576
 30
0.0
 10
22.837883
 20
23.792846
 30
0.0
 10
22.754905
 20
23.695240
 30
0.0
 10
22.631289
 20
23.631759
 30
0.0
  0
SPLINE
  5
168
100
AcDbEntity
  8
Layer_1
 62
3
100
AcDbSpline
 70
8
 71
3
 72
8
 73
4
 74
0
 40
0
 40
0
 40
0
 40
0
 40
1
 40
1
 40
1
 40
1
 10
22.631289
 20
23.631759
 30
0.0
 10
22.508515
 20
23.568711
 30
0.0
 10
22.381263
 20
23.558356
 30
0.0
 10
22.249531
 20
23.600696
 30
0.0
  0
SPLINE
  5
169
100
AcDbEntity
  8
Layer_1
 62
3
100
AcDbSpline
 70
8
 71
3
 72
8
 73
4
 74
0
 40
0
 40
0
 40
0
 40
0
 40
1
 40
1
 40
1
 40
1
 10
22.249531
 20
23.600696
 30
0.0
 10
22.147074
 20
23.633626
 30
0.0
 10
22.065173
 20
23.691195
 30
0.0
 10
22.003830
 20
23.773401
 30
0.0
  0
SPLINE
  5
16a
100
AcDbEntity
  8
Layer_1
 62
3
100
AcDbSpline
 70
8
 71
3
 72
8
 73
4
 74
0
 40
0
 40
0
 40
0
 40
0
 40
1
 40
1
 40
1
 40
1
 10
22.003830
 20
23.773401
 30
0.0
 10
21.985421
 20
23.755445
 30
0.0
 10
21.965704
 20
23.741069
 30
0.0
 10
21.944681
 20
23.730274
 30
0.0
  0
SPLINE
  5
16b
100
AcDbEntity
  8
Layer_1
 62
3
100
AcDbSpline
 70
8
 71
3
 72
8
 73
4
 74
0
 40
0
 40
0
 40
0
 40
0
 40
1
 40
1
 40
1
 40
1
 10
21.944681
 20
23.730274
 30
0.0
 10
21.919454
 20
23.717318
 30
0.0
 10
21.893795
 20
23.715034
 30
0.0
 10
21.867703
 20
23.723420
 30
0.0
  0
SPLINE
  5
16c
100
AcDbEntity
  8
Layer_1
 62
3
100
AcDbSpline
 70
8
 71
3
 72
8
 73
4
 74
0
 40
0
 40
0
 40
0
 40
0
 40
1
 40
1
 40
1
 40
1
 10
21.867703
 20
23.723420
 30
0.0
 10
21.841611
 20
23.731806
 30
0.0
 10
21.821985
 20
23.748295
 30
0.0
 10
21.808825
 20
23.772887
 30
0.0
  0
SPLINE
  5
16d
100
AcDbEntity
  8
Layer_1
 62
3
100
AcDbSpline
 70
8
 71
3
 72
8
 73
4
 74
0
 40
0
 40
0
 40
0
 40
0
 40
1
 40
1
 40
1
 40
1
 10
21.808825
 20
23.772887
 30
0.0
 10
21.796507
 20
23.797910
 30
0.0
 10
21.794540
 20
23.823467
 30
0.0
 10
21.802924
 20
23.849558
 30
0.0
  0
SPLINE
  5
16e
100
AcDbEntity
  8
Layer_1
 62
3
100
AcDbSpline
 70
8
 71
3
 72
8
 73
4
 74
0
 40
0
 40
0
 40
0
 40
0
 40
1
 40
1
 40
1
 40
1
 10
21.802924
 20
23.849558
 30
0.0
 10
21.811310
 20
23.875650
 30
0.0
 10
21.834265
 20
23.903378
 30
0.0
 10
21.871789
 20
23.932743
 30
0.0
  0
LINE
  5
16f
100
AcDbEntity
  8
Layer_1
 62
3
100
AcDbLine
 10
21.871789
 20
23.932743
 30
0.0
 11
21.912630
 21
23.968063
 31
0.0
  0
SPLINE
  5
170
100
AcDbEntity
  8
Layer_1
 62
3
100
AcDbSpline
 70
8
 71
3
 72
8
 73
4
 74
0
 40
0
 40
0
 40
0
 40
0
 40
1
 40
1
 40
1
 40
1
 10
21.912630
 20
23.968063
 30
0.0
 10
21.892469
 20
24.053882
 30
0.0
 10
21.896809
 20
24.141657
 30
0.0
 10
21.925648
 20
24.231387
 30
0.0
  0
LINE
  5
171
100
AcDbEntity
  8
Layer_1
 62
3
100
AcDbLine
 10
21.925648
 20
24.231387
 30
0.0
 11
22.079053
 21
24.708673
 31
0.0
  0
SPLINE
  5
172
100
AcDbEntity
  8
Layer_1
 62
3
100
AcDbSpline
 70
8
 71
3
 72
8
 73
4
 74
0
 40
0
 40
0
 40
0
 40
0
 40
1
 40
1
 40
1
 40
1
 10
22.079053
 20
24.708673
 30
0.0
 10
22.121393
 20
24.840404
 30
0.0
 10
22.203950
 20
24.937794
 30
0.0
 10
22.326725
 20
25.000843
 30
0.0
  0
SPLINE
  5
173
100
AcDbEntity
  8
Layer_1
 62
3
100
AcDbSpline
 70
8
 71
3
 72
8
 73
4
 74
0
 40
0
 40
0
 40
0
 40
0
 40
1
 40
1
 40
1
 40
1
 10
22.326725
 20
25.000843
 30
0.0
 10
22.450340
 20
25.064324
 30
0.0
 10
22.578013
 20
25.074894
 30
0.0
 10
22.709745
 20
25.032554
 30
0.0
  0
SPLINE
  5
174
100
AcDbEntity
  8
Layer_1
 62
3
100
AcDbSpline
 70
8
 71
3
 72
8
 73
4
 74
0
 40
0
 40
0
 40
0
 40
0
 40
1
 40
1
 40
1
 40
1
 10
22.709745
 20
25.032554
 30
0.0
 10
22.812202
 20
24.999623
 30
0.0
 10
22.894102
 20
24.942055
 30
0.0
 10
22.955446
 20
24.859850
 30
0.0
  0
SPLINE
  5
175
100
AcDbEntity
  8
Layer_1
 62
3
100
AcDbSpline
 70
8
 71
3
 72
8
 73
4
 74
0
 40
0
 40
0
 40
0
 40
0
 40
1
 40
1
 40
1
 40
1
 10
22.955446
 20
24.859850
 30
0.0
 10
22.973855
 20
24.877805
 30
0.0
 10
22.993992
 20
24.892396
 30
0.0
 10
23.015856
 20
24.903624
 30
0.0
  0
SPLINE
  5
176
100
AcDbEntity
  8
Layer_1
 62
3
100
AcDbSpline
 70
8
 71
3
 72
8
 73
4
 74
0
 40
0
 40
0
 40
0
 40
0
 40
1
 40
1
 40
1
 40
1
 10
23.015856
 20
24.903624
 30
0.0
 10
23.040242
 20
24.916148
 30
0.0
 10
23.065481
 20
24.918215
 30
0.0
 10
23.091573
 20
24.909827
 30
0.0
  0
SPLINE
  5
177
100
AcDbEntity
  8
Layer_1
 62
3
100
AcDbSpline
 70
8
 71
3
 72
8
 73
4
 74
0
 40
0
 40
0
 40
0
 40
0
 40
1
 40
1
 40
1
 40
1
 10
23.091573
 20
24.909827
 30
0.0
 10
23.117665
 20
24.901440
 30
0.0
 10
23.136870
 20
24.884735
 30
0.0
 10
23.149189
 20
24.859713
 30
0.0
  0
SPLINE
  5
178
100
AcDbEntity
  8
Layer_1
 62
3
100
AcDbSpline
 70
8
 71
3
 72
8
 73
4
 74
0
 40
0
 40
0
 40
0
 40
0
 40
1
 40
1
 40
1
 40
1
 10
23.149189
 20
24.859713
 30
0.0
 10
23.162349
 20
24.835121
 30
0.0
 10
23.164736
 20
24.809780
 30
0.0
 10
23.156353
 20
24.783689
 30
0.0
  0
SPLINE
  5
179
100
AcDbEntity
  8
Layer_1
 62
3
100
AcDbSpline
 70
8
 71
3
 72
8
 73
4
 74
0
 40
0
 40
0
 40
0
 40
0
 40
1
 40
1
 40
1
 40
1
 10
23.156353
 20
24.783689
 30
0.0
 10
23.147966
 20
24.757597
 30
0.0
 10
23.125011
 20
24.729869
 30
0.0
 10
23.087488
 20
24.700504
 30
0.0
  0
LINE
  5
17a
100
AcDbEntity
  8
Layer_1
 62
3
100
AcDbLine
 10
23.087488
 20
24.700504
 30
0.0
 11
23.046647
 21
24.665187
 31
0.0
  0
LINE
  5
17b
100
AcDbEntity
  8
Layer_1
 62
3
100
AcDbLine
 10
26.021739
 20
21.180667
 30
0.0
 11
26.923095
 21
21.816292
 31
0.0
  0
LINE
  5
17c
100
AcDbEntity
  8
Layer_1
 62
3
100
AcDbLine
 10
26.923095
 20
21.816292
 30
0.0
 11
26.749743
 21
22.062117
 31
0.0
  0
SPLINE
  5
17d
100
AcDbEntity
  8
Layer_1
 62
3
100
AcDbSpline
 70
8
 71
3
 72
8
 73
4
 74
0
 40
0
 40
0
 40
0
 40
0
 40
1
 40
1
 40
1
 40
1
 10
26.749743
 20
22.062117
 30
0.0
 10
26.733949
 20
22.084514
 30
0.0
 10
26.728194
 20
22.109493
 30
0.0
 10
26.732480
 20
22.137053
 30
0.0
  0
SPLINE
  5
17e
100
AcDbEntity
  8
Layer_1
 62
3
100
AcDbSpline
 70
8
 71
3
 72
8
 73
4
 74
0
 40
0
 40
0
 40
0
 40
0
 40
1
 40
1
 40
1
 40
1
 10
26.732480
 20
22.137053
 30
0.0
 10
26.737696
 20
22.164451
 30
0.0
 10
26.751503
 20
22.186048
 30
0.0
 10
26.773900
 20
22.201842
 30
0.0
  0
SPLINE
  5
17f
100
AcDbEntity
  8
Layer_1
 62
3
100
AcDbSpline
 70
8
 71
3
 72
8
 73
4
 74
0
 40
0
 40
0
 40
0
 40
0
 40
1
 40
1
 40
1
 40
1
 10
26.773900
 20
22.201842
 30
0.0
 10
26.796298
 20
22.217636
 30
0.0
 10
26.821004
 20
22.223198
 30
0.0
 10
26.848017
 20
22.218528
 30
0.0
  0
SPLINE
  5
180
100
AcDbEntity
  8
Layer_1
 62
3
100
AcDbSpline
 70
8
 71
3
 72
8
 73
4
 74
0
 40
0
 40
0
 40
0
 40
0
 40
1
 40
1
 40
1
 40
1
 10
26.848017
 20
22.218528
 30
0.0
 10
26.875962
 20
22.213696
 30
0.0
 10
26.897832
 20
22.200082
 30
0.0
 10
26.913626
 20
22.177685
 30
0.0
  0
LINE
  5
181
100
AcDbEntity
  8
Layer_1
 62
3
100
AcDbLine
 10
26.913626
 20
22.177685
 30
0.0
 11
27.144762
 21
21.849919
 31
0.0
  0
SPLINE
  5
182
100
AcDbEntity
  8
Layer_1
 62
3
100
AcDbSpline
 70
8
 71
3
 72
8
 73
4
 74
0
 40
0
 40
0
 40
0
 40
0
 40
1
 40
1
 40
1
 40
1
 10
27.144762
 20
21.849919
 30
0.0
 10
27.160556
 20
21.827522
 30
0.0
 10
27.165845
 20
21.802624
 30
0.0
 10
27.160629
 20
21.775225
 30
0.0
  0
SPLINE
  5
183
100
AcDbEntity
  8
Layer_1
 62
3
100
AcDbSpline
 70
8
 71
3
 72
8
 73
4
 74
0
 40
0
 40
0
 40
0
 40
0
 40
1
 40
1
 40
1
 40
1
 10
27.160629
 20
21.775225
 30
0.0
 10
27.156345
 20
21.747665
 30
0.0
 10
27.143003
 20
21.725988
 30
0.0
 10
27.120605
 20
21.710194
 30
0.0
  0
LINE
  5
184
100
AcDbEntity
  8
Layer_1
 62
3
100
AcDbLine
 10
27.120605
 20
21.710194
 30
0.0
 11
26.137308
 21
21.016784
 31
0.0
  0
LINE
  5
185
100
AcDbEntity
  8
Layer_1
 62
3
100
AcDbLine
 10
26.137308
 20
21.016784
 30
0.0
 11
26.310659
 21
20.770961
 31
0.0
  0
SPLINE
  5
186
100
AcDbEntity
  8
Layer_1
 62
3
100
AcDbSpline
 70
8
 71
3
 72
8
 73
4
 74
0
 40
0
 40
0
 40
0
 40
0
 40
1
 40
1
 40
1
 40
1
 10
26.310659
 20
20.770961
 30
0.0
 10
26.326454
 20
20.748563
 30
0.0
 10
26.331743
 20
20.723665
 30
0.0
 10
26.326527
 20
20.696266
 30
0.0
  0
SPLINE
  5
187
100
AcDbEntity
  8
Layer_1
 62
3
100
AcDbSpline
 70
8
 71
3
 72
8
 73
4
 74
0
 40
0
 40
0
 40
0
 40
0
 40
1
 40
1
 40
1
 40
1
 10
26.326527
 20
20.696266
 30
0.0
 10
26.322242
 20
20.668706
 30
0.0
 10
26.308901
 20
20.647029
 30
0.0
 10
26.286503
 20
20.631235
 30
0.0
  0
SPLINE
  5
188
100
AcDbEntity
  8
Layer_1
 62
3
100
AcDbSpline
 70
8
 71
3
 72
8
 73
4
 74
0
 40
0
 40
0
 40
0
 40
0
 40
1
 40
1
 40
1
 40
1
 10
26.286503
 20
20.631235
 30
0.0
 10
26.264105
 20
20.615441
 30
0.0
 10
26.238934
 20
20.609959
 30
0.0
 10
26.210989
 20
20.614790
 30
0.0
  0
SPLINE
  5
189
100
AcDbEntity
  8
Layer_1
 62
3
100
AcDbSpline
 70
8
 71
3
 72
8
 73
4
 74
0
 40
0
 40
0
 40
0
 40
0
 40
1
 40
1
 40
1
 40
1
 10
26.210989
 20
20.614790
 30
0.0
 10
26.183975
 20
20.619461
 30
0.0
 10
26.162571
 20
20.632995
 30
0.0
 10
26.146777
 20
20.655392
 30
0.0
  0
LINE
  5
18a
100
AcDbEntity
  8
Layer_1
 62
3
100
AcDbLine
 10
26.146777
 20
20.655392
 30
0.0
 11
25.684504
 21
21.310924
 31
0.0
  0
SPLINE
  5
18b
100
AcDbEntity
  8
Layer_1
 62
3
100
AcDbSpline
 70
8
 71
3
 72
8
 73
4
 74
0
 40
0
 40
0
 40
0
 40
0
 40
1
 40
1
 40
1
 40
1
 10
25.684504
 20
21.310924
 30
0.0
 10
25.668710
 20
21.333321
 30
0.0
 10
25.662955
 20
21.358299
 30
0.0
 10
25.667240
 20
21.385859
 30
0.0
  0
SPLINE
  5
18c
100
AcDbEntity
  8
Layer_1
 62
3
100
AcDbSpline
 70
8
 71
3
 72
8
 73
4
 74
0
 40
0
 40
0
 40
0
 40
0
 40
1
 40
1
 40
1
 40
1
 10
25.667240
 20
21.385859
 30
0.0
 10
25.672457
 20
21.413259
 30
0.0
 10
25.686264
 20
21.434855
 30
0.0
 10
25.708662
 20
21.450649
 30
0.0
  0
SPLINE
  5
18d
100
AcDbEntity
  8
Layer_1
 62
3
100
AcDbSpline
 70
8
 71
3
 72
8
 73
4
 74
0
 40
0
 40
0
 40
0
 40
0
 40
1
 40
1
 40
1
 40
1
 10
25.708662
 20
21.450649
 30
0.0
 10
25.731059
 20
21.466443
 30
0.0
 10
25.755765
 20
21.472005
 30
0.0
 10
25.782778
 20
21.467335
 30
0.0
  0
SPLINE
  5
18e
100
AcDbEntity
  8
Layer_1
 62
3
100
AcDbSpline
 70
8
 71
3
 72
8
 73
4
 74
0
 40
0
 40
0
 40
0
 40
0
 40
1
 40
1
 40
1
 40
1
 10
25.782778
 20
21.467335
 30
0.0
 10
25.810724
 20
21.462504
 30
0.0
 10
25.832593
 20
21.448889
 30
0.0
 10
25.848388
 20
21.426492
 30
0.0
  0
LINE
  5
18f
100
AcDbEntity
  8
Layer_1
 62
3
100
AcDbLine
 10
25.848388
 20
21.426492
 30
0.0
 11
26.021739
 21
21.180667
 31
0.0
  0
SPLINE
  5
190
100
AcDbEntity
  8
Layer_1
 62
3
100
AcDbSpline
 70
8
 71
3
 72
8
 73
4
 74
0
 40
0
 40
0
 40
0
 40
0
 40
1
 40
1
 40
1
 40
1
 10
27.710976
 20
17.288507
 30
0.0
 10
27.828607
 20
17.286635
 30
0.0
 10
27.928203
 20
17.243604
 30
0.0
 10
28.009762
 20
17.159412
 30
0.0
  0
SPLINE
  5
191
100
AcDbEntity
  8
Layer_1
 62
3
100
AcDbSpline
 70
8
 71
3
 72
8
 73
4
 74
0
 40
0
 40
0
 40
0
 40
0
 40
1
 40
1
 40
1
 40
1
 10
28.009762
 20
17.159412
 30
0.0
 10
28.091979
 20
17.074539
 30
0.0
 10
28.132153
 20
16.973287
 30
0.0
 10
28.130284
 20
16.855656
 30
0.0
  0
LINE
  5
192
100
AcDbEntity
  8
Layer_1
 62
3
100
AcDbLine
 10
28.130284
 20
16.855656
 30
0.0
 11
28.127897
 21
16.705275
 31
0.0
  0
SPLINE
  5
193
100
AcDbEntity
  8
Layer_1
 62
3
100
AcDbSpline
 70
8
 71
3
 72
8
 73
4
 74
0
 40
0
 40
0
 40
0
 40
0
 40
1
 40
1
 40
1
 40
1
 10
28.127897
 20
16.705275
 30
0.0
 10
28.126908
 20
16.643117
 30
0.0
 10
28.148119
 20
16.589632
 30
0.0
 10
28.191532
 20
16.544819
 30
0.0
  0
SPLINE
  5
194
100
AcDbEntity
  8
Layer_1
 62
3
100
AcDbSpline
 70
8
 71
3
 72
8
 73
4
 74
0
 40
0
 40
0
 40
0
 40
0
 40
1
 40
1
 40
1
 40
1
 10
28.191532
 20
16.544819
 30
0.0
 10
28.234942
 20
16.500007
 30
0.0
 10
28.287726
 20
16.477106
 30
0.0
 10
28.349884
 20
16.476118
 30
0.0
  0
SPLINE
  5
195
100
AcDbEntity
  8
Layer_1
 62
3
100
AcDbSpline
 70
8
 71
3
 72
8
 73
4
 74
0
 40
0
 40
0
 40
0
 40
0
 40
1
 40
1
 40
1
 40
1
 10
28.349884
 20
16.476118
 30
0.0
 10
28.412041
 20
16.475133
 30
0.0
 10
28.465526
 20
16.496345
 30
0.0
 10
28.510339
 20
16.539752
 30
0.0
  0
SPLINE
  5
196
100
AcDbEntity
  8
Layer_1
 62
3
100
AcDbSpline
 70
8
 71
3
 72
8
 73
4
 74
0
 40
0
 40
0
 40
0
 40
0
 40
1
 40
1
 40
1
 40
1
 10
28.510339
 20
16.539752
 30
0.0
 10
28.555152
 20
16.583163
 30
0.0
 10
28.578052
 20
16.635947
 30
0.0
 10
28.579040
 20
16.698104
 30
0.0
  0
LINE
  5
197
100
AcDbEntity
  8
Layer_1
 62
3
100
AcDbLine
 10
28.579040
 20
16.698104
 30
0.0
 11
28.581427
 21
16.848485
 31
0.0
  0
SPLINE
  5
198
100
AcDbEntity
  8
Layer_1
 62
3
100
AcDbSpline
 70
8
 71
3
 72
8
 73
4
 74
0
 40
0
 40
0
 40
0
 40
0
 40
1
 40
1
 40
1
 40
1
 10
28.581427
 20
16.848485
 30
0.0
 10
28.582417
 20
16.910643
 30
0.0
 10
28.561205
 20
16.964128
 30
0.0
 10
28.517793
 20
17.008941
 30
0.0
  0
SPLINE
  5
199
100
AcDbEntity
  8
Layer_1
 62
3
100
AcDbSpline
 70
8
 71
3
 72
8
 73
4
 74
0
 40
0
 40
0
 40
0
 40
0
 40
1
 40
1
 40
1
 40
1
 10
28.517793
 20
17.008941
 30
0.0
 10
28.474383
 20
17.053754
 30
0.0
 10
28.421598
 20
17.076654
 30
0.0
 10
28.359441
 20
17.077642
 30
0.0
  0
SPLINE
  5
19a
100
AcDbEntity
  8
Layer_1
 62
3
100
AcDbSpline
 70
8
 71
3
 72
8
 73
4
 74
0
 40
0
 40
0
 40
0
 40
0
 40
1
 40
1
 40
1
 40
1
 10
28.359441
 20
17.077642
 30
0.0
 10
28.332038
 20
17.078062
 30
0.0
 10
28.308471
 20
17.088465
 30
0.0
 10
28.288738
 20
17.108850
 30
0.0
  0
SPLINE
  5
19b
100
AcDbEntity
  8
Layer_1
 62
3
100
AcDbSpline
 70
8
 71
3
 72
8
 73
4
 74
0
 40
0
 40
0
 40
0
 40
0
 40
1
 40
1
 40
1
 40
1
 10
28.288738
 20
17.108850
 30
0.0
 10
28.269664
 20
17.128540
 30
0.0
 10
28.260345
 20
17.152087
 30
0.0
 10
28.260780
 20
17.179490
 30
0.0
  0
SPLINE
  5
19c
100
AcDbEntity
  8
Layer_1
 62
3
100
AcDbSpline
 70
8
 71
3
 72
8
 73
4
 74
0
 40
0
 40
0
 40
0
 40
0
 40
1
 40
1
 40
1
 40
1
 10
28.260780
 20
17.179490
 30
0.0
 10
28.261200
 20
17.206893
 30
0.0
 10
28.271269
 20
17.230465
 30
0.0
 10
28.290986
 20
17.250208
 30
0.0
  0
SPLINE
  5
19d
100
AcDbEntity
  8
Layer_1
 62
3
100
AcDbSpline
 70
8
 71
3
 72
8
 73
4
 74
0
 40
0
 40
0
 40
0
 40
0
 40
1
 40
1
 40
1
 40
1
 10
28.290986
 20
17.250208
 30
0.0
 10
28.311344
 20
17.269271
 30
0.0
 10
28.335225
 20
17.278585
 30
0.0
 10
28.362628
 20
17.278150
 30
0.0
  0
SPLINE
  5
19e
100
AcDbEntity
  8
Layer_1
 62
3
100
AcDbSpline
 70
8
 71
3
 72
8
 73
4
 74
0
 40
0
 40
0
 40
0
 40
0
 40
1
 40
1
 40
1
 40
1
 10
28.362628
 20
17.278150
 30
0.0
 10
28.480259
 20
17.276279
 30
0.0
 10
28.579854
 20
17.233247
 30
0.0
 10
28.661414
 20
17.149055
 30
0.0
  0
SPLINE
  5
19f
100
AcDbEntity
  8
Layer_1
 62
3
100
AcDbSpline
 70
8
 71
3
 72
8
 73
4
 74
0
 40
0
 40
0
 40
0
 40
0
 40
1
 40
1
 40
1
 40
1
 10
28.661414
 20
17.149055
 30
0.0
 10
28.743631
 20
17.064182
 30
0.0
 10
28.783805
 20
16.962931
 30
0.0
 10
28.781935
 20
16.845299
 30
0.0
  0
LINE
  5
1a0
100
AcDbEntity
  8
Layer_1
 62
3
100
AcDbLine
 10
28.781935
 20
16.845299
 30
0.0
 11
28.779548
 21
16.694918
 31
0.0
  0
SPLINE
  5
1a1
100
AcDbEntity
  8
Layer_1
 62
3
100
AcDbSpline
 70
8
 71
3
 72
8
 73
4
 74
0
 40
0
 40
0
 40
0
 40
0
 40
1
 40
1
 40
1
 40
1
 10
28.779548
 20
16.694918
 30
0.0
 10
28.777676
 20
16.577287
 30
0.0
 10
28.734311
 20
16.477697
 30
0.0
 10
28.649451
 20
16.396147
 30
0.0
  0
SPLINE
  5
1a2
100
AcDbEntity
  8
Layer_1
 62
3
100
AcDbSpline
 70
8
 71
3
 72
8
 73
4
 74
0
 40
0
 40
0
 40
0
 40
0
 40
1
 40
1
 40
1
 40
1
 10
28.649451
 20
16.396147
 30
0.0
 10
28.565246
 20
16.313920
 30
0.0
 10
28.464328
 20
16.273741
 30
0.0
 10
28.346697
 20
16.275610
 30
0.0
  0
SPLINE
  5
1a3
100
AcDbEntity
  8
Layer_1
 62
3
100
AcDbSpline
 70
8
 71
3
 72
8
 73
4
 74
0
 40
0
 40
0
 40
0
 40
0
 40
1
 40
1
 40
1
 40
1
 10
28.346697
 20
16.275610
 30
0.0
 10
28.229066
 20
16.277481
 30
0.0
 10
28.129142
 20
16.320853
 30
0.0
 10
28.046924
 20
16.405724
 30
0.0
  0
SPLINE
  5
1a4
100
AcDbEntity
  8
Layer_1
 62
3
100
AcDbSpline
 70
8
 71
3
 72
8
 73
4
 74
0
 40
0
 40
0
 40
0
 40
0
 40
1
 40
1
 40
1
 40
1
 10
28.046924
 20
16.405724
 30
0.0
 10
27.965365
 20
16.489918
 30
0.0
 10
27.925520
 20
16.590830
 30
0.0
 10
27.927389
 20
16.708461
 30
0.0
  0
LINE
  5
1a5
100
AcDbEntity
  8
Layer_1
 62
3
100
AcDbLine
 10
27.927389
 20
16.708461
 30
0.0
 11
27.929776
 21
16.858842
 31
0.0
  0
SPLINE
  5
1a6
100
AcDbEntity
  8
Layer_1
 62
3
100
AcDbSpline
 70
8
 71
3
 72
8
 73
4
 74
0
 40
0
 40
0
 40
0
 40
0
 40
1
 40
1
 40
1
 40
1
 10
27.929776
 20
16.858842
 30
0.0
 10
27.930766
 20
16.921000
 30
0.0
 10
27.909554
 20
16.974485
 30
0.0
 10
27.866141
 20
17.019298
 30
0.0
  0
SPLINE
  5
1a7
100
AcDbEntity
  8
Layer_1
 62
3
100
AcDbSpline
 70
8
 71
3
 72
8
 73
4
 74
0
 40
0
 40
0
 40
0
 40
0
 40
1
 40
1
 40
1
 40
1
 10
27.866141
 20
17.019298
 30
0.0
 10
27.822730
 20
17.064111
 30
0.0
 10
27.769947
 20
17.087011
 30
0.0
 10
27.707790
 20
17.087999
 30
0.0
  0
LINE
  5
1a8
100
AcDbEntity
  8
Layer_1
 62
3
100
AcDbLine
 10
27.707790
 20
17.087999
 30
0.0
 11
27.482218
 21
17.091583
 31
0.0
  0
LINE
  5
1a9
100
AcDbEntity
  8
Layer_1
 62
3
100
AcDbLine
 10
27.482218
 20
17.091583
 30
0.0
 11
27.471065
 21
16.389805
 31
0.0
  0
SPLINE
  5
1aa
100
AcDbEntity
  8
Layer_1
 62
3
100
AcDbSpline
 70
8
 71
3
 72
8
 73
4
 74
0
 40
0
 40
0
 40
0
 40
0
 40
1
 40
1
 40
1
 40
1
 10
27.471065
 20
16.389805
 30
0.0
 10
27.470645
 20
16.362402
 30
0.0
 10
27.460248
 20
16.339169
 30
0.0
 10
27.439873
 20
16.320106
 30
0.0
  0
SPLINE
  5
1ab
100
AcDbEntity
  8
Layer_1
 62
3
100
AcDbSpline
 70
8
 71
3
 72
8
 73
4
 74
0
 40
0
 40
0
 40
0
 40
0
 40
1
 40
1
 40
1
 40
1
 10
27.439873
 20
16.320106
 30
0.0
 10
27.420172
 20
16.300363
 30
0.0
 10
27.396620
 20
16.290709
 30
0.0
 10
27.369217
 20
16.291144
 30
0.0
  0
SPLINE
  5
1ac
100
AcDbEntity
  8
Layer_1
 62
3
100
AcDbSpline
 70
8
 71
3
 72
8
 73
4
 74
0
 40
0
 40
0
 40
0
 40
0
 40
1
 40
1
 40
1
 40
1
 10
27.369217
 20
16.291144
 30
0.0
 10
27.341815
 20
16.291564
 30
0.0
 10
27.318247
 20
16.301967
 30
0.0
 10
27.298515
 20
16.322352
 30
0.0
  0
SPLINE
  5
1ad
100
AcDbEntity
  8
Layer_1
 62
3
100
AcDbSpline
 70
8
 71
3
 72
8
 73
4
 74
0
 40
0
 40
0
 40
0
 40
0
 40
1
 40
1
 40
1
 40
1
 10
27.298515
 20
16.322352
 30
0.0
 10
27.279441
 20
16.342043
 30
0.0
 10
27.270121
 20
16.365589
 30
0.0
 10
27.270556
 20
16.392992
 30
0.0
  0
LINE
  5
1ae
100
AcDbEntity
  8
Layer_1
 62
3
100
AcDbLine
 10
27.270556
 20
16.392992
 30
0.0
 11
27.283304
 21
17.195024
 31
0.0
  0
SPLINE
  5
1af
100
AcDbEntity
  8
Layer_1
 62
3
100
AcDbSpline
 70
8
 71
3
 72
8
 73
4
 74
0
 40
0
 40
0
 40
0
 40
0
 40
1
 40
1
 40
1
 40
1
 10
27.283304
 20
17.195024
 30
0.0
 10
27.283724
 20
17.222427
 30
0.0
 10
27.293792
 20
17.245999
 30
0.0
 10
27.313508
 20
17.265742
 30
0.0
  0
SPLINE
  5
1b0
100
AcDbEntity
  8
Layer_1
 62
3
100
AcDbSpline
 70
8
 71
3
 72
8
 73
4
 74
0
 40
0
 40
0
 40
0
 40
0
 40
1
 40
1
 40
1
 40
1
 10
27.313508
 20
17.265742
 30
0.0
 10
27.333867
 20
17.284806
 30
0.0
 10
27.357748
 20
17.294120
 30
0.0
 10
27.385150
 20
17.293684
 30
0.0
  0
LINE
  5
1b1
100
AcDbEntity
  8
Layer_1
 62
3
100
AcDbLine
 10
27.385150
 20
17.293684
 30
0.0
 11
27.710976
 21
17.288507
 31
0.0
  0
SPLINE
  5
1b2
100
AcDbEntity
  8
Layer_1
 62
3
100
AcDbSpline
 70
8
 71
3
 72
8
 73
4
 74
0
 40
0
 40
0
 40
0
 40
0
 40
1
 40
1
 40
1
 40
1
 10
26.551627
 20
12.750636
 30
0.0
 10
26.573528
 20
12.734160
 30
0.0
 10
26.586397
 20
12.712350
 30
0.0
 10
26.590234
 20
12.685205
 30
0.0
  0
SPLINE
  5
1b3
100
AcDbEntity
  8
Layer_1
 62
3
100
AcDbSpline
 70
8
 71
3
 72
8
 73
4
 74
0
 40
0
 40
0
 40
0
 40
0
 40
1
 40
1
 40
1
 40
1
 10
26.590234
 20
12.685205
 30
0.0
 10
26.594201
 20
12.657125
 30
0.0
 10
26.587948
 20
12.632134
 30
0.0
 10
26.571474
 20
12.610234
 30
0.0
  0
SPLINE
  5
1b4
100
AcDbEntity
  8
Layer_1
 62
3
100
AcDbSpline
 70
8
 71
3
 72
8
 73
4
 74
0
 40
0
 40
0
 40
0
 40
0
 40
1
 40
1
 40
1
 40
1
 10
26.571474
 20
12.610234
 30
0.0
 10
26.554998
 20
12.588333
 30
0.0
 10
26.532920
 20
12.575665
 30
0.0
 10
26.505242
 20
12.572230
 30
0.0
  0
SPLINE
  5
1b5
100
AcDbEntity
  8
Layer_1
 62
3
100
AcDbSpline
 70
8
 71
3
 72
8
 73
4
 74
0
 40
0
 40
0
 40
0
 40
0
 40
1
 40
1
 40
1
 40
1
 10
26.505242
 20
12.572230
 30
0.0
 10
26.477696
 20
12.567857
 30
0.0
 10
26.452972
 20
12.573909
 30
0.0
 10
26.431071
 20
12.590387
 30
0.0
  0
SPLINE
  5
1b6
100
AcDbEntity
  8
Layer_1
 62
3
100
AcDbSpline
 70
8
 71
3
 72
8
 73
4
 74
0
 40
0
 40
0
 40
0
 40
0
 40
1
 40
1
 40
1
 40
1
 10
26.431071
 20
12.590387
 30
0.0
 10
26.381394
 20
12.627759
 30
0.0
 10
26.325666
 20
12.642079
 30
0.0
 10
26.263889
 20
12.633346
 30
0.0
  0
SPLINE
  5
1b7
100
AcDbEntity
  8
Layer_1
 62
3
100
AcDbSpline
 70
8
 71
3
 72
8
 73
4
 74
0
 40
0
 40
0
 40
0
 40
0
 40
1
 40
1
 40
1
 40
1
 10
26.263889
 20
12.633346
 30
0.0
 10
26.202113
 20
12.624614
 30
0.0
 10
26.152538
 20
12.595409
 30
0.0
 10
26.115165
 20
12.545732
 30
0.0
  0
LINE
  5
1b8
100
AcDbEntity
  8
Layer_1
 62
3
100
AcDbLine
 10
26.115165
 20
12.545732
 30
0.0
 11
26.024749
 21
12.425545
 31
0.0
  0
SPLINE
  5
1b9
100
AcDbEntity
  8
Layer_1
 62
3
100
AcDbSpline
 70
8
 71
3
 72
8
 73
4
 74
0
 40
0
 40
0
 40
0
 40
0
 40
1
 40
1
 40
1
 40
1
 10
26.024749
 20
12.425545
 30
0.0
 10
25.987377
 20
12.375867
 30
0.0
 10
25.973056
 20
12.320140
 30
0.0
 10
25.981789
 20
12.258362
 30
0.0
  0
SPLINE
  5
1ba
100
AcDbEntity
  8
Layer_1
 62
3
100
AcDbSpline
 70
8
 71
3
 72
8
 73
4
 74
0
 40
0
 40
0
 40
0
 40
0
 40
1
 40
1
 40
1
 40
1
 10
25.981789
 20
12.258362
 30
0.0
 10
25.990522
 20
12.196585
 30
0.0
 10
26.019727
 20
12.147011
 30
0.0
 10
26.069404
 20
12.109639
 30
0.0
  0
SPLINE
  5
1bb
100
AcDbEntity
  8
Layer_1
 62
3
100
AcDbSpline
 70
8
 71
3
 72
8
 73
4
 74
0
 40
0
 40
0
 40
0
 40
0
 40
1
 40
1
 40
1
 40
1
 10
26.069404
 20
12.109639
 30
0.0
 10
26.119081
 20
12.072267
 30
0.0
 10
26.174808
 20
12.057947
 30
0.0
 10
26.236586
 20
12.066679
 30
0.0
  0
SPLINE
  5
1bc
100
AcDbEntity
  8
Layer_1
 62
3
100
AcDbSpline
 70
8
 71
3
 72
8
 73
4
 74
0
 40
0
 40
0
 40
0
 40
0
 40
1
 40
1
 40
1
 40
1
 10
26.236586
 20
12.066679
 30
0.0
 10
26.298363
 20
12.075412
 30
0.0
 10
26.347938
 20
12.104617
 30
0.0
 10
26.385310
 20
12.154294
 30
0.0
  0
LINE
  5
1bd
100
AcDbEntity
  8
Layer_1
 62
3
100
AcDbLine
 10
26.385310
 20
12.154294
 30
0.0
 11
26.490796
 21
12.294512
 31
0.0
  0
SPLINE
  5
1be
100
AcDbEntity
  8
Layer_1
 62
3
100
AcDbSpline
 70
8
 71
3
 72
8
 73
4
 74
0
 40
0
 40
0
 40
0
 40
0
 40
1
 40
1
 40
1
 40
1
 10
26.490796
 20
12.294512
 30
0.0
 10
26.507272
 20
12.316413
 30
0.0
 10
26.529283
 20
12.329549
 30
0.0
 10
26.556830
 20
12.333920
 30
0.0
  0
SPLINE
  5
1bf
100
AcDbEntity
  8
Layer_1
 62
3
100
AcDbSpline
 70
8
 71
3
 72
8
 73
4
 74
0
 40
0
 40
0
 40
0
 40
0
 40
1
 40
1
 40
1
 40
1
 10
26.556830
 20
12.333920
 30
0.0
 10
26.584508
 20
12.337350
 30
0.0
 10
26.609298
 20
12.330830
 30
0.0
 10
26.631199
 20
12.314360
 30
0.0
  0
SPLINE
  5
1c0
100
AcDbEntity
  8
Layer_1
 62
3
100
AcDbSpline
 70
8
 71
3
 72
8
 73
4
 74
0
 40
0
 40
0
 40
0
 40
0
 40
1
 40
1
 40
1
 40
1
 10
26.631199
 20
12.314360
 30
0.0
 10
26.653100
 20
12.297883
 30
0.0
 10
26.665969
 20
12.276073
 30
0.0
 10
26.669805
 20
12.248929
 30
0.0
  0
SPLINE
  5
1c1
100
AcDbEntity
  8
Layer_1
 62
3
100
AcDbSpline
 70
8
 71
3
 72
8
 73
4
 74
0
 40
0
 40
0
 40
0
 40
0
 40
1
 40
1
 40
1
 40
1
 10
26.669805
 20
12.248929
 30
0.0
 10
26.673772
 20
12.220848
 30
0.0
 10
26.667519
 20
12.195857
 30
0.0
 10
26.651046
 20
12.173956
 30
0.0
  0
LINE
  5
1c2
100
AcDbEntity
  8
Layer_1
 62
3
100
AcDbLine
 10
26.651046
 20
12.173956
 30
0.0
 11
26.545559
 21
12.033739
 31
0.0
  0
SPLINE
  5
1c3
100
AcDbEntity
  8
Layer_1
 62
3
100
AcDbSpline
 70
8
 71
3
 72
8
 73
4
 74
0
 40
0
 40
0
 40
0
 40
0
 40
1
 40
1
 40
1
 40
1
 10
26.545559
 20
12.033739
 30
0.0
 10
26.508187
 20
11.984061
 30
0.0
 10
26.493867
 20
11.928333
 30
0.0
 10
26.502600
 20
11.866556
 30
0.0
  0
SPLINE
  5
1c4
100
AcDbEntity
  8
Layer_1
 62
3
100
AcDbSpline
 70
8
 71
3
 72
8
 73
4
 74
0
 40
0
 40
0
 40
0
 40
0
 40
1
 40
1
 40
1
 40
1
 10
26.502600
 20
11.866556
 30
0.0
 10
26.511332
 20
11.804780
 30
0.0
 10
26.540537
 20
11.755205
 30
0.0
 10
26.590215
 20
11.717832
 30
0.0
  0
SPLINE
  5
1c5
100
AcDbEntity
  8
Layer_1
 62
3
100
AcDbSpline
 70
8
 71
3
 72
8
 73
4
 74
0
 40
0
 40
0
 40
0
 40
0
 40
1
 40
1
 40
1
 40
1
 10
26.590215
 20
11.717832
 30
0.0
 10
26.639892
 20
11.680460
 30
0.0
 10
26.695619
 20
11.666140
 30
0.0
 10
26.757396
 20
11.674873
 30
0.0
  0
SPLINE
  5
1c6
100
AcDbEntity
  8
Layer_1
 62
3
100
AcDbSpline
 70
8
 71
3
 72
8
 73
4
 74
0
 40
0
 40
0
 40
0
 40
0
 40
1
 40
1
 40
1
 40
1
 10
26.757396
 20
11.674873
 30
0.0
 10
26.819173
 20
11.683606
 30
0.0
 10
26.868748
 20
11.712810
 30
0.0
 10
26.906120
 20
11.762487
 30
0.0
  0
LINE
  5
1c7
100
AcDbEntity
  8
Layer_1
 62
3
100
AcDbLine
 10
26.906120
 20
11.762487
 30
0.0
 11
26.996537
 21
11.882675
 31
0.0
  0
SPLINE
  5
1c8
100
AcDbEntity
  8
Layer_1
 62
3
100
AcDbSpline
 70
8
 71
3
 72
8
 73
4
 74
0
 40
0
 40
0
 40
0
 40
0
 40
1
 40
1
 40
1
 40
1
 10
26.996537
 20
11.882675
 30
0.0
 10
27.033909
 20
11.932352
 30
0.0
 10
27.048229
 20
11.988079
 30
0.0
 10
27.039497
 20
12.049857
 30
0.0
  0
SPLINE
  5
1c9
100
AcDbEntity
  8
Layer_1
 62
3
100
AcDbSpline
 70
8
 71
3
 72
8
 73
4
 74
0
 40
0
 40
0
 40
0
 40
0
 40
1
 40
1
 40
1
 40
1
 10
27.039497
 20
12.049857
 30
0.0
 10
27.030764
 20
12.111634
 30
0.0
 10
27.001559
 20
12.161208
 30
0.0
 10
26.951882
 20
12.198581
 30
0.0
  0
SPLINE
  5
1ca
100
AcDbEntity
  8
Layer_1
 62
3
100
AcDbSpline
 70
8
 71
3
 72
8
 73
4
 74
0
 40
0
 40
0
 40
0
 40
0
 40
1
 40
1
 40
1
 40
1
 10
26.951882
 20
12.198581
 30
0.0
 10
26.929981
 20
12.215057
 30
0.0
 10
26.917046
 20
12.237335
 30
0.0
 10
26.913077
 20
12.265415
 30
0.0
  0
SPLINE
  5
1cb
100
AcDbEntity
  8
Layer_1
 62
3
100
AcDbSpline
 70
8
 71
3
 72
8
 73
4
 74
0
 40
0
 40
0
 40
0
 40
0
 40
1
 40
1
 40
1
 40
1
 10
26.913077
 20
12.265415
 30
0.0
 10
26.909241
 20
12.292560
 30
0.0
 10
26.915560
 20
12.317082
 30
0.0
 10
26.932035
 20
12.338984
 30
0.0
  0
SPLINE
  5
1cc
100
AcDbEntity
  8
Layer_1
 62
3
100
AcDbSpline
 70
8
 71
3
 72
8
 73
4
 74
0
 40
0
 40
0
 40
0
 40
0
 40
1
 40
1
 40
1
 40
1
 10
26.932035
 20
12.338984
 30
0.0
 10
26.948511
 20
12.360884
 30
0.0
 10
26.970522
 20
12.374020
 30
0.0
 10
26.998069
 20
12.378391
 30
0.0
  0
SPLINE
  5
1cd
100
AcDbEntity
  8
Layer_1
 62
3
100
AcDbSpline
 70
8
 71
3
 72
8
 73
4
 74
0
 40
0
 40
0
 40
0
 40
0
 40
1
 40
1
 40
1
 40
1
 10
26.998069
 20
12.378391
 30
0.0
 10
27.025747
 20
12.381831
 30
0.0
 10
27.050537
 20
12.375310
 30
0.0
 10
27.072437
 20
12.358830
 30
0.0
  0
SPLINE
  5
1ce
100
AcDbEntity
  8
Layer_1
 62
3
100
AcDbSpline
 70
8
 71
3
 72
8
 73
4
 74
0
 40
0
 40
0
 40
0
 40
0
 40
1
 40
1
 40
1
 40
1
 10
27.072437
 20
12.358830
 30
0.0
 10
27.166451
 20
12.288104
 30
0.0
 10
27.221661
 20
12.194708
 30
0.0
 10
27.238068
 20
12.078642
 30
0.0
  0
SPLINE
  5
1cf
100
AcDbEntity
  8
Layer_1
 62
3
100
AcDbSpline
 70
8
 71
3
 72
8
 73
4
 74
0
 40
0
 40
0
 40
0
 40
0
 40
1
 40
1
 40
1
 40
1
 10
27.238068
 20
12.078642
 30
0.0
 10
27.254607
 20
11.961640
 30
0.0
 10
27.227513
 20
11.856132
 30
0.0
 10
27.156787
 20
11.762119
 30
0.0
  0
LINE
  5
1d0
100
AcDbEntity
  8
Layer_1
 62
3
100
AcDbLine
 10
27.156787
 20
11.762119
 30
0.0
 11
27.066370
 21
11.641932
 31
0.0
  0
SPLINE
  5
1d1
100
AcDbEntity
  8
Layer_1
 62
3
100
AcDbSpline
 70
8
 71
3
 72
8
 73
4
 74
0
 40
0
 40
0
 40
0
 40
0
 40
1
 40
1
 40
1
 40
1
 10
27.066370
 20
11.641932
 30
0.0
 10
26.995644
 20
11.547919
 30
0.0
 10
26.901981
 20
11.492910
 30
0.0
 10
26.785380
 20
11.476905
 30
0.0
  0
SPLINE
  5
1d2
100
AcDbEntity
  8
Layer_1
 62
3
100
AcDbSpline
 70
8
 71
3
 72
8
 73
4
 74
0
 40
0
 40
0
 40
0
 40
0
 40
1
 40
1
 40
1
 40
1
 10
26.785380
 20
11.476905
 30
0.0
 10
26.668912
 20
11.459964
 30
0.0
 10
26.563672
 20
11.486857
 30
0.0
 10
26.469659
 20
11.557583
 30
0.0
  0
SPLINE
  5
1d3
100
AcDbEntity
  8
Layer_1
 62
3
100
AcDbSpline
 70
8
 71
3
 72
8
 73
4
 74
0
 40
0
 40
0
 40
0
 40
0
 40
1
 40
1
 40
1
 40
1
 10
26.469659
 20
11.557583
 30
0.0
 10
26.375646
 20
11.628309
 30
0.0
 10
26.320436
 20
11.721705
 30
0.0
 10
26.304029
 20
11.837771
 30
0.0
  0
SPLINE
  5
1d4
100
AcDbEntity
  8
Layer_1
 62
3
100
AcDbSpline
 70
8
 71
3
 72
8
 73
4
 74
0
 40
0
 40
0
 40
0
 40
0
 40
1
 40
1
 40
1
 40
1
 10
26.304029
 20
11.837771
 30
0.0
 10
26.302307
 20
11.849939
 30
0.0
 10
26.301054
 20
11.862174
 30
0.0
 10
26.300270
 20
11.874475
 30
0.0
  0
SPLINE
  5
1d5
100
AcDbEntity
  8
Layer_1
 62
3
100
AcDbSpline
 70
8
 71
3
 72
8
 73
4
 74
0
 40
0
 40
0
 40
0
 40
0
 40
1
 40
1
 40
1
 40
1
 10
26.300270
 20
11.874475
 30
0.0
 10
26.288234
 20
11.871819
 30
0.0
 10
26.276399
 20
11.869431
 30
0.0
 10
26.264765
 20
11.867309
 30
0.0
  0
SPLINE
  5
1d6
100
AcDbEntity
  8
Layer_1
 62
3
100
AcDbSpline
 70
8
 71
3
 72
8
 73
4
 74
0
 40
0
 40
0
 40
0
 40
0
 40
1
 40
1
 40
1
 40
1
 10
26.264765
 20
11.867309
 30
0.0
 10
26.148165
 20
11.851304
 30
0.0
 10
26.042858
 20
11.878665
 30
0.0
 10
25.948845
 20
11.949391
 30
0.0
  0
SPLINE
  5
1d7
100
AcDbEntity
  8
Layer_1
 62
3
100
AcDbSpline
 70
8
 71
3
 72
8
 73
4
 74
0
 40
0
 40
0
 40
0
 40
0
 40
1
 40
1
 40
1
 40
1
 10
25.948845
 20
11.949391
 30
0.0
 10
25.854832
 20
12.020117
 30
0.0
 10
25.799556
 20
12.113981
 30
0.0
 10
25.783017
 20
12.230983
 30
0.0
  0
SPLINE
  5
1d8
100
AcDbEntity
  8
Layer_1
 62
3
100
AcDbSpline
 70
8
 71
3
 72
8
 73
4
 74
0
 40
0
 40
0
 40
0
 40
0
 40
1
 40
1
 40
1
 40
1
 10
25.783017
 20
12.230983
 30
0.0
 10
25.766610
 20
12.347049
 30
0.0
 10
25.793770
 20
12.452089
 30
0.0
 10
25.864496
 20
12.546101
 30
0.0
  0
LINE
  5
1d9
100
AcDbEntity
  8
Layer_1
 62
3
100
AcDbLine
 10
25.864496
 20
12.546101
 30
0.0
 11
25.954913
 21
12.666289
 31
0.0
  0
SPLINE
  5
1da
100
AcDbEntity
  8
Layer_1
 62
3
100
AcDbSpline
 70
8
 71
3
 72
8
 73
4
 74
0
 40
0
 40
0
 40
0
 40
0
 40
1
 40
1
 40
1
 40
1
 10
25.954913
 20
12.666289
 30
0.0
 10
26.025639
 20
12.760302
 30
0.0
 10
26.119236
 20
12.815779
 30
0.0
 10
26.235704
 20
12.832719
 30
0.0
  0
SPLINE
  5
1db
100
AcDbEntity
  8
Layer_1
 62
3
100
AcDbSpline
 70
8
 71
3
 72
8
 73
4
 74
0
 40
0
 40
0
 40
0
 40
0
 40
1
 40
1
 40
1
 40
1
 10
26.235704
 20
12.832719
 30
0.0
 10
26.352305
 20
12.848725
 30
0.0
 10
26.457612
 20
12.821364
 30
0.0
 10
26.551624
 20
12.750638
 30
0.0
  0
LINE
  5
1dc
100
AcDbEntity
  8
Layer_1
 62
3
100
AcDbLine
 10
26.551624
 20
12.750638
 30
0.0
 11
26.551627
 21
12.750636
 31
0.0
  0
LINE
  5
1dd
100
AcDbEntity
  8
Layer_1
 62
3
100
AcDbLine
 10
22.462554
 20
8.596608
 30
0.0
 11
22.227282
 21
9.363462
 31
0.0
  0
LINE
  5
1de
100
AcDbEntity
  8
Layer_1
 62
3
100
AcDbLine
 10
22.227282
 20
9.363462
 30
0.0
 11
22.131426
 21
9.334053
 31
0.0
  0
SPLINE
  5
1df
100
AcDbEntity
  8
Layer_1
 62
3
100
AcDbSpline
 70
8
 71
3
 72
8
 73
4
 74
0
 40
0
 40
0
 40
0
 40
0
 40
1
 40
1
 40
1
 40
1
 10
22.131426
 20
9.334053
 30
0.0
 10
22.105225
 20
9.326014
 30
0.0
 10
22.079917
 20
9.328738
 30
0.0
 10
22.055503
 20
9.342224
 30
0.0
  0
SPLINE
  5
1e0
100
AcDbEntity
  8
Layer_1
 62
3
100
AcDbSpline
 70
8
 71
3
 72
8
 73
4
 74
0
 40
0
 40
0
 40
0
 40
0
 40
1
 40
1
 40
1
 40
1
 10
22.055503
 20
9.342224
 30
0.0
 10
22.030646
 20
9.354874
 30
0.0
 10
22.014198
 20
9.374300
 30
0.0
 10
22.006160
 20
9.400500
 30
0.0
  0
SPLINE
  5
1e1
100
AcDbEntity
  8
Layer_1
 62
3
100
AcDbSpline
 70
8
 71
3
 72
8
 73
4
 74
0
 40
0
 40
0
 40
0
 40
0
 40
1
 40
1
 40
1
 40
1
 10
22.006160
 20
9.400500
 30
0.0
 10
21.998121
 20
9.426701
 30
0.0
 10
22.000747
 20
9.452328
 30
0.0
 10
22.014037
 20
9.477382
 30
0.0
  0
SPLINE
  5
1e2
100
AcDbEntity
  8
Layer_1
 62
3
100
AcDbSpline
 70
8
 71
3
 72
8
 73
4
 74
0
 40
0
 40
0
 40
0
 40
0
 40
1
 40
1
 40
1
 40
1
 10
22.014037
 20
9.477382
 30
0.0
 10
22.026883
 20
9.501600
 30
0.0
 10
22.046406
 20
9.517728
 30
0.0
 10
22.072607
 20
9.525766
 30
0.0
  0
LINE
  5
1e3
100
AcDbEntity
  8
Layer_1
 62
3
100
AcDbLine
 10
22.072607
 20
9.525766
 30
0.0
 11
22.168464
 21
9.555175
 31
0.0
  0
LINE
  5
1e4
100
AcDbEntity
  8
Layer_1
 62
3
100
AcDbLine
 10
22.168464
 20
9.555175
 30
0.0
 11
22.080238
 21
9.842745
 31
0.0
  0
SPLINE
  5
1e5
100
AcDbEntity
  8
Layer_1
 62
3
100
AcDbSpline
 70
8
 71
3
 72
8
 73
4
 74
0
 40
0
 40
0
 40
0
 40
0
 40
1
 40
1
 40
1
 40
1
 10
22.080238
 20
9.842745
 30
0.0
 10
22.072199
 20
9.868946
 30
0.0
 10
22.074824
 20
9.894573
 30
0.0
 10
22.088114
 20
9.919626
 30
0.0
  0
SPLINE
  5
1e6
100
AcDbEntity
  8
Layer_1
 62
3
100
AcDbSpline
 70
8
 71
3
 72
8
 73
4
 74
0
 40
0
 40
0
 40
0
 40
0
 40
1
 40
1
 40
1
 40
1
 10
22.088114
 20
9.919626
 30
0.0
 10
22.100961
 20
9.943844
 30
0.0
 10
22.120484
 20
9.959972
 30
0.0
 10
22.146685
 20
9.968011
 30
0.0
  0
SPLINE
  5
1e7
100
AcDbEntity
  8
Layer_1
 62
3
100
AcDbSpline
 70
8
 71
3
 72
8
 73
4
 74
0
 40
0
 40
0
 40
0
 40
0
 40
1
 40
1
 40
1
 40
1
 10
22.146685
 20
9.968011
 30
0.0
 10
22.172886
 20
9.976049
 30
0.0
 10
22.198415
 20
9.973744
 30
0.0
 10
22.223272
 20
9.961094
 30
0.0
  0
SPLINE
  5
1e8
100
AcDbEntity
  8
Layer_1
 62
3
100
AcDbSpline
 70
8
 71
3
 72
8
 73
4
 74
0
 40
0
 40
0
 40
0
 40
0
 40
1
 40
1
 40
1
 40
1
 10
22.223272
 20
9.961094
 30
0.0
 10
22.247686
 20
9.947609
 30
0.0
 10
22.263912
 20
9.927766
 30
0.0
 10
22.271951
 20
9.901565
 30
0.0
  0
LINE
  5
1e9
100
AcDbEntity
  8
Layer_1
 62
3
100
AcDbLine
 10
22.271951
 20
9.901565
 30
0.0
 11
22.360177
 21
9.613995
 31
0.0
  0
LINE
  5
1ea
100
AcDbEntity
  8
Layer_1
 62
3
100
AcDbLine
 10
22.360177
 20
9.613995
 30
0.0
 11
22.839461
 21
9.761039
 31
0.0
  0
SPLINE
  5
1eb
100
AcDbEntity
  8
Layer_1
 62
3
100
AcDbSpline
 70
8
 71
3
 72
8
 73
4
 74
0
 40
0
 40
0
 40
0
 40
0
 40
1
 40
1
 40
1
 40
1
 10
22.839461
 20
9.761039
 30
0.0
 10
22.865662
 20
9.769078
 30
0.0
 10
22.891191
 20
9.766773
 30
0.0
 10
22.916047
 20
9.754123
 30
0.0
  0
SPLINE
  5
1ec
100
AcDbEntity
  8
Layer_1
 62
3
100
AcDbSpline
 70
8
 71
3
 72
8
 73
4
 74
0
 40
0
 40
0
 40
0
 40
0
 40
1
 40
1
 40
1
 40
1
 10
22.916047
 20
9.754123
 30
0.0
 10
22.940462
 20
9.740637
 30
0.0
 10
22.956688
 20
9.720794
 30
0.0
 10
22.964727
 20
9.694593
 30
0.0
  0
SPLINE
  5
1ed
100
AcDbEntity
  8
Layer_1
 62
3
100
AcDbSpline
 70
8
 71
3
 72
8
 73
4
 74
0
 40
0
 40
0
 40
0
 40
0
 40
1
 40
1
 40
1
 40
1
 10
22.964727
 20
9.694593
 30
0.0
 10
22.972765
 20
9.668392
 30
0.0
 10
22.970140
 20
9.642765
 30
0.0
 10
22.956850
 20
9.617713
 30
0.0
  0
LINE
  5
1ee
100
AcDbEntity
  8
Layer_1
 62
3
100
AcDbLine
 10
22.956850
 20
9.617713
 30
0.0
 11
22.951817
 21
9.593095
 31
0.0
  0
LINE
  5
1ef
100
AcDbEntity
  8
Layer_1
 62
3
100
AcDbLine
 10
22.951817
 20
9.593095
 30
0.0
 11
22.668928
 21
8.645244
 31
0.0
  0
SPLINE
  5
1f0
100
AcDbEntity
  8
Layer_1
 62
3
100
AcDbSpline
 70
8
 71
3
 72
8
 73
4
 74
0
 40
0
 40
0
 40
0
 40
0
 40
1
 40
1
 40
1
 40
1
 10
22.668928
 20
8.645244
 30
0.0
 10
22.663256
 20
8.620431
 30
0.0
 10
22.656630
 20
8.599869
 30
0.0
 10
22.649048
 20
8.583558
 30
0.0
  0
SPLINE
  5
1f1
100
AcDbEntity
  8
Layer_1
 62
3
100
AcDbSpline
 70
8
 71
3
 72
8
 73
4
 74
0
 40
0
 40
0
 40
0
 40
0
 40
1
 40
1
 40
1
 40
1
 10
22.649048
 20
8.583558
 30
0.0
 10
22.648166
 20
8.581887
 30
0.0
 10
22.647279
 20
8.580217
 30
0.0
 10
22.646388
 20
8.578546
 30
0.0
  0
SPLINE
  5
1f2
100
AcDbEntity
  8
Layer_1
 62
3
100
AcDbSpline
 70
8
 71
3
 72
8
 73
4
 74
0
 40
0
 40
0
 40
0
 40
0
 40
1
 40
1
 40
1
 40
1
 10
22.646388
 20
8.578546
 30
0.0
 10
22.633541
 20
8.554328
 30
0.0
 10
22.614017
 20
8.538200
 30
0.0
 10
22.587816
 20
8.530162
 30
0.0
  0
SPLINE
  5
1f3
100
AcDbEntity
  8
Layer_1
 62
3
100
AcDbSpline
 70
8
 71
3
 72
8
 73
4
 74
0
 40
0
 40
0
 40
0
 40
0
 40
1
 40
1
 40
1
 40
1
 10
22.587816
 20
8.530162
 30
0.0
 10
22.561615
 20
8.522123
 30
0.0
 10
22.536087
 20
8.524429
 30
0.0
 10
22.511230
 20
8.537078
 30
0.0
  0
SPLINE
  5
1f4
100
AcDbEntity
  8
Layer_1
 62
3
100
AcDbSpline
 70
8
 71
3
 72
8
 73
4
 74
0
 40
0
 40
0
 40
0
 40
0
 40
1
 40
1
 40
1
 40
1
 10
22.511230
 20
8.537078
 30
0.0
 10
22.486816
 20
8.550564
 30
0.0
 10
22.470589
 20
8.570408
 30
0.0
 10
22.462550
 20
8.596608
 30
0.0
  0
LINE
  5
1f5
100
AcDbEntity
  8
Layer_1
 62
3
100
AcDbLine
 10
22.462550
 20
8.596608
 30
0.0
 11
22.462554
 21
8.596608
 31
0.0
  0
LINE
  5
1f6
100
AcDbEntity
  8
Layer_1
 62
3
100
AcDbLine
 10
22.719027
 20
9.514330
 30
0.0
 11
22.418996
 21
9.422279
 31
0.0
  0
LINE
  5
1f7
100
AcDbEntity
  8
Layer_1
 62
3
100
AcDbLine
 10
22.418996
 20
9.422279
 30
0.0
 11
22.557218
 21
8.971753
 31
0.0
  0
LINE
  5
1f8
100
AcDbEntity
  8
Layer_1
 62
3
100
AcDbLine
 10
22.557218
 20
8.971753
 30
0.0
 11
22.719027
 21
9.514330
 31
0.0
  0
LINE
  5
1f9
100
AcDbEntity
  8
Layer_1
 62
3
100
AcDbLine
 10
17.793745
 20
8.713992
 30
0.0
 11
17.891679
 21
8.998403
 31
0.0
  0
LINE
  5
1fa
100
AcDbEntity
  8
Layer_1
 62
3
100
AcDbLine
 10
17.891679
 20
8.998403
 30
0.0
 11
17.536166
 21
9.120821
 31
0.0
  0
SPLINE
  5
1fb
100
AcDbEntity
  8
Layer_1
 62
3
100
AcDbSpline
 70
8
 71
3
 72
8
 73
4
 74
0
 40
0
 40
0
 40
0
 40
0
 40
1
 40
1
 40
1
 40
1
 10
17.536166
 20
9.120821
 30
0.0
 10
17.424929
 20
9.159124
 30
0.0
 10
17.343728
 20
9.231270
 30
0.0
 10
17.292561
 20
9.337260
 30
0.0
  0
SPLINE
  5
1fc
100
AcDbEntity
  8
Layer_1
 62
3
100
AcDbSpline
 70
8
 71
3
 72
8
 73
4
 74
0
 40
0
 40
0
 40
0
 40
0
 40
1
 40
1
 40
1
 40
1
 10
17.292561
 20
9.337260
 30
0.0
 10
17.240545
 20
9.442835
 30
0.0
 10
17.233688
 20
9.551240
 30
0.0
 10
17.271991
 20
9.662476
 30
0.0
  0
LINE
  5
1fd
100
AcDbEntity
  8
Layer_1
 62
3
100
AcDbLine
 10
17.271991
 20
9.662476
 30
0.0
 11
17.320958
 21
9.804682
 31
0.0
  0
SPLINE
  5
1fe
100
AcDbEntity
  8
Layer_1
 62
3
100
AcDbSpline
 70
8
 71
3
 72
8
 73
4
 74
0
 40
0
 40
0
 40
0
 40
0
 40
1
 40
1
 40
1
 40
1
 10
17.320958
 20
9.804682
 30
0.0
 10
17.359261
 20
9.915918
 30
0.0
 10
17.431516
 20
9.997436
 30
0.0
 10
17.537723
 20
10.049235
 30
0.0
  0
SPLINE
  5
1ff
100
AcDbEntity
  8
Layer_1
 62
3
100
AcDbSpline
 70
8
 71
3
 72
8
 73
4
 74
0
 40
0
 40
0
 40
0
 40
0
 40
1
 40
1
 40
1
 40
1
 10
17.537723
 20
10.049235
 30
0.0
 10
17.643081
 20
10.100619
 30
0.0
 10
17.751378
 20
10.107160
 30
0.0
 10
17.862614
 20
10.068857
 30
0.0
  0
LINE
  5
200
100
AcDbEntity
  8
Layer_1
 62
3
100
AcDbLine
 10
17.862614
 20
10.068857
 30
0.0
 11
18.004819
 21
10.019890
 31
0.0
  0
SPLINE
  5
201
100
AcDbEntity
  8
Layer_1
 62
3
100
AcDbSpline
 70
8
 71
3
 72
8
 73
4
 74
0
 40
0
 40
0
 40
0
 40
0
 40
1
 40
1
 40
1
 40
1
 10
18.004819
 20
10.019890
 30
0.0
 10
18.116055
 20
9.981586
 30
0.0
 10
18.197682
 20
9.909647
 30
0.0
 10
18.249698
 20
9.804072
 30
0.0
  0
SPLINE
  5
202
100
AcDbEntity
  8
Layer_1
 62
3
100
AcDbSpline
 70
8
 71
3
 72
8
 73
4
 74
0
 40
0
 40
0
 40
0
 40
0
 40
1
 40
1
 40
1
 40
1
 10
18.249698
 20
9.804072
 30
0.0
 10
18.300865
 20
9.698082
 30
0.0
 10
18.307297
 20
9.589470
 30
0.0
 10
18.268993
 20
9.478234
 30
0.0
  0
SPLINE
  5
203
100
AcDbEntity
  8
Layer_1
 62
3
100
AcDbSpline
 70
8
 71
3
 72
8
 73
4
 74
0
 40
0
 40
0
 40
0
 40
0
 40
1
 40
1
 40
1
 40
1
 10
18.268993
 20
9.478234
 30
0.0
 10
18.260071
 20
9.452321
 30
0.0
 10
18.243289
 20
9.433355
 30
0.0
 10
18.218649
 20
9.421338
 30
0.0
  0
SPLINE
  5
204
100
AcDbEntity
  8
Layer_1
 62
3
100
AcDbSpline
 70
8
 71
3
 72
8
 73
4
 74
0
 40
0
 40
0
 40
0
 40
0
 40
1
 40
1
 40
1
 40
1
 10
18.218649
 20
9.421338
 30
0.0
 10
18.193160
 20
9.408906
 30
0.0
 10
18.167458
 20
9.407152
 30
0.0
 10
18.141546
 20
9.416073
 30
0.0
  0
SPLINE
  5
205
100
AcDbEntity
  8
Layer_1
 62
3
100
AcDbSpline
 70
8
 71
3
 72
8
 73
4
 74
0
 40
0
 40
0
 40
0
 40
0
 40
1
 40
1
 40
1
 40
1
 10
18.141546
 20
9.416073
 30
0.0
 10
18.115632
 20
9.424996
 30
0.0
 10
18.096776
 20
9.442094
 30
0.0
 10
18.084976
 20
9.467366
 30
0.0
  0
SPLINE
  5
206
100
AcDbEntity
  8
Layer_1
 62
3
100
AcDbSpline
 70
8
 71
3
 72
8
 73
4
 74
0
 40
0
 40
0
 40
0
 40
0
 40
1
 40
1
 40
1
 40
1
 10
18.084976
 20
9.467366
 30
0.0
 10
18.072327
 20
9.492224
 30
0.0
 10
18.070462
 20
9.517609
 30
0.0
 10
18.079383
 20
9.543522
 30
0.0
  0
SPLINE
  5
207
100
AcDbEntity
  8
Layer_1
 62
3
100
AcDbSpline
 70
8
 71
3
 72
8
 73
4
 74
0
 40
0
 40
0
 40
0
 40
0
 40
1
 40
1
 40
1
 40
1
 10
18.079383
 20
9.543522
 30
0.0
 10
18.099623
 20
9.602300
 30
0.0
 10
18.096068
 20
9.659728
 30
0.0
 10
18.068718
 20
9.715805
 30
0.0
  0
SPLINE
  5
208
100
AcDbEntity
  8
Layer_1
 62
3
100
AcDbSpline
 70
8
 71
3
 72
8
 73
4
 74
0
 40
0
 40
0
 40
0
 40
0
 40
1
 40
1
 40
1
 40
1
 10
18.068718
 20
9.715805
 30
0.0
 10
18.041368
 20
9.771882
 30
0.0
 10
17.998304
 20
9.810041
 30
0.0
 10
17.939526
 20
9.830281
 30
0.0
  0
LINE
  5
209
100
AcDbEntity
  8
Layer_1
 62
3
100
AcDbLine
 10
17.939526
 20
9.830281
 30
0.0
 11
17.797320
 21
9.879248
 31
0.0
  0
SPLINE
  5
20a
100
AcDbEntity
  8
Layer_1
 62
3
100
AcDbSpline
 70
8
 71
3
 72
8
 73
4
 74
0
 40
0
 40
0
 40
0
 40
0
 40
1
 40
1
 40
1
 40
1
 10
17.797320
 20
9.879248
 30
0.0
 10
17.738542
 20
9.899488
 30
0.0
 10
17.681115
 20
9.895933
 30
0.0
 10
17.625038
 20
9.868583
 30
0.0
  0
SPLINE
  5
20b
100
AcDbEntity
  8
Layer_1
 62
3
100
AcDbSpline
 70
8
 71
3
 72
8
 73
4
 74
0
 40
0
 40
0
 40
0
 40
0
 40
1
 40
1
 40
1
 40
1
 10
17.625038
 20
9.868583
 30
0.0
 10
17.568960
 20
9.841233
 30
0.0
 10
17.530802
 20
9.798169
 30
0.0
 10
17.510562
 20
9.739391
 30
0.0
  0
LINE
  5
20c
100
AcDbEntity
  8
Layer_1
 62
3
100
AcDbLine
 10
17.510562
 20
9.739391
 30
0.0
 11
17.461268
 21
9.596237
 31
0.0
  0
SPLINE
  5
20d
100
AcDbEntity
  8
Layer_1
 62
3
100
AcDbSpline
 70
8
 71
3
 72
8
 73
4
 74
0
 40
0
 40
0
 40
0
 40
0
 40
1
 40
1
 40
1
 40
1
 10
17.461268
 20
9.596237
 30
0.0
 10
17.441246
 20
9.538091
 30
0.0
 10
17.444910
 20
9.480980
 30
0.0
 10
17.472260
 20
9.424902
 30
0.0
  0
SPLINE
  5
20e
100
AcDbEntity
  8
Layer_1
 62
3
100
AcDbSpline
 70
8
 71
3
 72
8
 73
4
 74
0
 40
0
 40
0
 40
0
 40
0
 40
1
 40
1
 40
1
 40
1
 10
17.472260
 20
9.424902
 30
0.0
 10
17.499610
 20
9.368825
 30
0.0
 10
17.542674
 20
9.330666
 30
0.0
 10
17.601452
 20
9.310427
 30
0.0
  0
LINE
  5
20f
100
AcDbEntity
  8
Layer_1
 62
3
100
AcDbLine
 10
17.601452
 20
9.310427
 30
0.0
 11
18.051769
 21
9.155363
 31
0.0
  0
SPLINE
  5
210
100
AcDbEntity
  8
Layer_1
 62
3
100
AcDbSpline
 70
8
 71
3
 72
8
 73
4
 74
0
 40
0
 40
0
 40
0
 40
0
 40
1
 40
1
 40
1
 40
1
 10
18.051769
 20
9.155363
 30
0.0
 10
18.077682
 20
9.146441
 30
0.0
 10
18.096963
 20
9.129550
 30
0.0
 10
18.109612
 20
9.104693
 30
0.0
  0
SPLINE
  5
211
100
AcDbEntity
  8
Layer_1
 62
3
100
AcDbSpline
 70
8
 71
3
 72
8
 73
4
 74
0
 40
0
 40
0
 40
0
 40
0
 40
1
 40
1
 40
1
 40
1
 10
18.109612
 20
9.104693
 30
0.0
 10
18.121412
 20
9.079421
 30
0.0
 10
18.122850
 20
9.053829
 30
0.0
 10
18.113924
 20
9.027916
 30
0.0
  0
LINE
  5
212
100
AcDbEntity
  8
Layer_1
 62
3
100
AcDbLine
 10
18.113924
 20
9.027916
 30
0.0
 11
17.950700
 21
8.553898
 31
0.0
  0
SPLINE
  5
213
100
AcDbEntity
  8
Layer_1
 62
3
100
AcDbSpline
 70
8
 71
3
 72
8
 73
4
 74
0
 40
0
 40
0
 40
0
 40
0
 40
1
 40
1
 40
1
 40
1
 10
17.950700
 20
8.553898
 30
0.0
 10
17.941777
 20
8.527985
 30
0.0
 10
17.924996
 20
8.509019
 30
0.0
 10
17.900356
 20
8.497002
 30
0.0
  0
SPLINE
  5
214
100
AcDbEntity
  8
Layer_1
 62
3
100
AcDbSpline
 70
8
 71
3
 72
8
 73
4
 74
0
 40
0
 40
0
 40
0
 40
0
 40
1
 40
1
 40
1
 40
1
 10
17.900356
 20
8.497002
 30
0.0
 10
17.874866
 20
8.484570
 30
0.0
 10
17.849164
 20
8.482815
 30
0.0
 10
17.823251
 20
8.491738
 30
0.0
  0
LINE
  5
215
100
AcDbEntity
  8
Layer_1
 62
3
100
AcDbLine
 10
17.823251
 20
8.491738
 30
0.0
 11
17.064823
 21
8.752896
 31
0.0
  0
SPLINE
  5
216
100
AcDbEntity
  8
Layer_1
 62
3
100
AcDbSpline
 70
8
 71
3
 72
8
 73
4
 74
0
 40
0
 40
0
 40
0
 40
0
 40
1
 40
1
 40
1
 40
1
 10
17.064823
 20
8.752896
 30
0.0
 10
17.038910
 20
8.761819
 30
0.0
 10
17.020054
 20
8.778916
 30
0.0
 10
17.008254
 20
8.804188
 30
0.0
  0
SPLINE
  5
217
100
AcDbEntity
  8
Layer_1
 62
3
100
AcDbSpline
 70
8
 71
3
 72
8
 73
4
 74
0
 40
0
 40
0
 40
0
 40
0
 40
1
 40
1
 40
1
 40
1
 10
17.008254
 20
8.804188
 30
0.0
 10
16.995605
 20
8.829046
 30
0.0
 10
16.993743
 20
8.854431
 30
0.0
 10
17.002667
 20
8.880344
 30
0.0
  0
SPLINE
  5
218
100
AcDbEntity
  8
Layer_1
 62
3
100
AcDbSpline
 70
8
 71
3
 72
8
 73
4
 74
0
 40
0
 40
0
 40
0
 40
0
 40
1
 40
1
 40
1
 40
1
 10
17.002667
 20
8.880344
 30
0.0
 10
17.011590
 20
8.906257
 30
0.0
 10
17.028796
 20
8.925429
 30
0.0
 10
17.054286
 20
8.937861
 30
0.0
  0
SPLINE
  5
219
100
AcDbEntity
  8
Layer_1
 62
3
100
AcDbSpline
 70
8
 71
3
 72
8
 73
4
 74
0
 40
0
 40
0
 40
0
 40
0
 40
1
 40
1
 40
1
 40
1
 10
17.054286
 20
8.937861
 30
0.0
 10
17.078926
 20
8.949879
 30
0.0
 10
17.104203
 20
8.951426
 30
0.0
 10
17.130116
 20
8.942503
 30
0.0
  0
LINE
  5
21a
100
AcDbEntity
  8
Layer_1
 62
3
100
AcDbLine
 10
17.130116
 20
8.942503
 30
0.0
 11
17.793745
 21
8.713992
 31
0.0
  0
SPLINE
  5
21b
100
AcDbEntity
  8
Layer_1
 62
3
100
AcDbSpline
 70
8
 71
3
 72
8
 73
4
 74
0
 40
0
 40
0
 40
0
 40
0
 40
1
 40
1
 40
1
 40
1
 10
13.641454
 20
12.225920
 30
0.0
 10
13.574219
 20
12.322460
 30
0.0
 10
13.551200
 20
12.428615
 30
0.0
 10
13.572395
 20
12.544385
 30
0.0
  0
SPLINE
  5
21c
100
AcDbEntity
  8
Layer_1
 62
3
100
AcDbSpline
 70
8
 71
3
 72
8
 73
4
 74
0
 40
0
 40
0
 40
0
 40
0
 40
1
 40
1
 40
1
 40
1
 10
13.572395
 20
12.544385
 30
0.0
 10
13.592661
 20
12.660320
 30
0.0
 10
13.651063
 20
12.751906
 30
0.0
 10
13.747604
 20
12.819141
 30
0.0
  0
SPLINE
  5
21d
100
AcDbEntity
  8
Layer_1
 62
3
100
AcDbSpline
 70
8
 71
3
 72
8
 73
4
 74
0
 40
0
 40
0
 40
0
 40
0
 40
1
 40
1
 40
1
 40
1
 10
13.747604
 20
12.819141
 30
0.0
 10
13.844144
 20
12.886376
 30
0.0
 10
13.950573
 20
12.909586
 30
0.0
 10
14.066891
 20
12.888773
 30
0.0
  0
SPLINE
  5
21e
100
AcDbEntity
  8
Layer_1
 62
3
100
AcDbSpline
 70
8
 71
3
 72
8
 73
4
 74
0
 40
0
 40
0
 40
0
 40
0
 40
1
 40
1
 40
1
 40
1
 10
14.066891
 20
12.888773
 30
0.0
 10
14.182279
 20
12.868126
 30
0.0
 10
14.273590
 20
12.809532
 30
0.0
 10
14.340825
 20
12.712992
 30
0.0
  0
LINE
  5
21f
100
AcDbEntity
  8
Layer_1
 62
3
100
AcDbLine
 10
14.340825
 20
12.712992
 30
0.0
 11
14.426779
 21
12.589573
 31
0.0
  0
SPLINE
  5
220
100
AcDbEntity
  8
Layer_1
 62
3
100
AcDbSpline
 70
8
 71
3
 72
8
 73
4
 74
0
 40
0
 40
0
 40
0
 40
0
 40
1
 40
1
 40
1
 40
1
 10
14.426779
 20
12.589573
 30
0.0
 10
14.494014
 20
12.493033
 30
0.0
 10
14.517499
 20
12.386794
 30
0.0
 10
14.497233
 20
12.270859
 30
0.0
  0
SPLINE
  5
221
100
AcDbEntity
  8
Layer_1
 62
3
100
AcDbSpline
 70
8
 71
3
 72
8
 73
4
 74
0
 40
0
 40
0
 40
0
 40
0
 40
1
 40
1
 40
1
 40
1
 10
14.497233
 20
12.270859
 30
0.0
 10
14.476038
 20
12.155089
 30
0.0
 10
14.417170
 20
12.063587
 30
0.0
 10
14.320629
 20
11.996352
 30
0.0
  0
LINE
  5
222
100
AcDbEntity
  8
Layer_1
 62
3
100
AcDbLine
 10
14.320629
 20
11.996352
 30
0.0
 11
13.785816
 21
11.623886
 31
0.0
  0
SPLINE
  5
223
100
AcDbEntity
  8
Layer_1
 62
3
100
AcDbSpline
 70
8
 71
3
 72
8
 73
4
 74
0
 40
0
 40
0
 40
0
 40
0
 40
1
 40
1
 40
1
 40
1
 10
13.785816
 20
11.623886
 30
0.0
 10
13.689276
 20
11.556650
 30
0.0
 10
13.583312
 20
11.533356
 30
0.0
 10
13.467924
 20
11.554004
 30
0.0
  0
SPLINE
  5
224
100
AcDbEntity
  8
Layer_1
 62
3
100
AcDbSpline
 70
8
 71
3
 72
8
 73
4
 74
0
 40
0
 40
0
 40
0
 40
0
 40
1
 40
1
 40
1
 40
1
 10
13.467924
 20
11.554004
 30
0.0
 10
13.351607
 20
11.574818
 30
0.0
 10
13.259830
 20
11.633495
 30
0.0
 10
13.192595
 20
11.730035
 30
0.0
  0
LINE
  5
225
100
AcDbEntity
  8
Layer_1
 62
3
100
AcDbLine
 10
13.192595
 20
11.730035
 30
0.0
 11
13.106641
 21
11.853454
 31
0.0
  0
SPLINE
  5
226
100
AcDbEntity
  8
Layer_1
 62
3
100
AcDbSpline
 70
8
 71
3
 72
8
 73
4
 74
0
 40
0
 40
0
 40
0
 40
0
 40
1
 40
1
 40
1
 40
1
 10
13.106641
 20
11.853454
 30
0.0
 10
13.039407
 20
11.949994
 30
0.0
 10
13.016387
 20
12.056149
 30
0.0
 10
13.037582
 20
12.171918
 30
0.0
  0
SPLINE
  5
227
100
AcDbEntity
  8
Layer_1
 62
3
100
AcDbSpline
 70
8
 71
3
 72
8
 73
4
 74
0
 40
0
 40
0
 40
0
 40
0
 40
1
 40
1
 40
1
 40
1
 10
13.037582
 20
12.171918
 30
0.0
 10
13.057847
 20
12.287854
 30
0.0
 10
13.116250
 20
12.379440
 30
0.0
 10
13.212791
 20
12.446674
 30
0.0
  0
SPLINE
  5
228
100
AcDbEntity
  8
Layer_1
 62
3
100
AcDbSpline
 70
8
 71
3
 72
8
 73
4
 74
0
 40
0
 40
0
 40
0
 40
0
 40
1
 40
1
 40
1
 40
1
 10
13.212791
 20
12.446674
 30
0.0
 10
13.235280
 20
12.462337
 30
0.0
 10
13.260483
 20
12.467671
 30
0.0
 10
13.288400
 20
12.462676
 30
0.0
  0
SPLINE
  5
229
100
AcDbEntity
  8
Layer_1
 62
3
100
AcDbSpline
 70
8
 71
3
 72
8
 73
4
 74
0
 40
0
 40
0
 40
0
 40
0
 40
1
 40
1
 40
1
 40
1
 10
13.288400
 20
12.462676
 30
0.0
 10
13.315385
 20
12.457847
 30
0.0
 10
13.336710
 20
12.444188
 30
0.0
 10
13.352372
 20
12.421699
 30
0.0
  0
SPLINE
  5
22a
100
AcDbEntity
  8
Layer_1
 62
3
100
AcDbSpline
 70
8
 71
3
 72
8
 73
4
 74
0
 40
0
 40
0
 40
0
 40
0
 40
1
 40
1
 40
1
 40
1
 10
13.352372
 20
12.421699
 30
0.0
 10
13.368035
 20
12.399209
 30
0.0
 10
13.373643
 20
12.374197
 30
0.0
 10
13.369196
 20
12.346663
 30
0.0
  0
SPLINE
  5
22b
100
AcDbEntity
  8
Layer_1
 62
3
100
AcDbSpline
 70
8
 71
3
 72
8
 73
4
 74
0
 40
0
 40
0
 40
0
 40
0
 40
1
 40
1
 40
1
 40
1
 10
13.369196
 20
12.346663
 30
0.0
 10
13.363819
 20
12.319295
 30
0.0
 10
13.349885
 20
12.297779
 30
0.0
 10
13.327396
 20
12.282116
 30
0.0
  0
SPLINE
  5
22c
100
AcDbEntity
  8
Layer_1
 62
3
100
AcDbSpline
 70
8
 71
3
 72
8
 73
4
 74
0
 40
0
 40
0
 40
0
 40
0
 40
1
 40
1
 40
1
 40
1
 10
13.327396
 20
12.282116
 30
0.0
 10
13.276383
 20
12.246589
 30
0.0
 10
13.245382
 20
12.198118
 30
0.0
 10
13.234392
 20
12.136702
 30
0.0
  0
SPLINE
  5
22d
100
AcDbEntity
  8
Layer_1
 62
3
100
AcDbSpline
 70
8
 71
3
 72
8
 73
4
 74
0
 40
0
 40
0
 40
0
 40
0
 40
1
 40
1
 40
1
 40
1
 10
13.234392
 20
12.136702
 30
0.0
 10
13.223403
 20
12.075286
 30
0.0
 10
13.235672
 20
12.019071
 30
0.0
 10
13.271199
 20
11.968059
 30
0.0
  0
LINE
  5
22e
100
AcDbEntity
  8
Layer_1
 62
3
100
AcDbLine
 10
13.271199
 20
11.968059
 30
0.0
 11
13.357152
 21
11.844640
 31
0.0
  0
SPLINE
  5
22f
100
AcDbEntity
  8
Layer_1
 62
3
100
AcDbSpline
 70
8
 71
3
 72
8
 73
4
 74
0
 40
0
 40
0
 40
0
 40
0
 40
1
 40
1
 40
1
 40
1
 10
13.357152
 20
11.844640
 30
0.0
 10
13.392680
 20
11.793627
 30
0.0
 10
13.441152
 20
11.762626
 30
0.0
 10
13.502568
 20
11.751637
 30
0.0
  0
SPLINE
  5
230
100
AcDbEntity
  8
Layer_1
 62
3
100
AcDbSpline
 70
8
 71
3
 72
8
 73
4
 74
0
 40
0
 40
0
 40
0
 40
0
 40
1
 40
1
 40
1
 40
1
 10
13.502568
 20
11.751637
 30
0.0
 10
13.563984
 20
11.740647
 30
0.0
 10
13.620198
 20
11.752916
 30
0.0
 10
13.671211
 20
11.788444
 30
0.0
  0
LINE
  5
231
100
AcDbEntity
  8
Layer_1
 62
3
100
AcDbLine
 10
13.671211
 20
11.788444
 30
0.0
 11
13.908175
 21
11.953475
 31
0.0
  0
SPLINE
  5
232
100
AcDbEntity
  8
Layer_1
 62
3
100
AcDbSpline
 70
8
 71
3
 72
8
 73
4
 74
0
 40
0
 40
0
 40
0
 40
0
 40
1
 40
1
 40
1
 40
1
 10
13.908175
 20
11.953475
 30
0.0
 10
13.835798
 20
11.983711
 30
0.0
 10
13.775542
 20
12.033387
 30
0.0
 10
13.727408
 20
12.102502
 30
0.0
  0
LINE
  5
233
100
AcDbEntity
  8
Layer_1
 62
3
100
AcDbLine
 10
13.727408
 20
12.102502
 30
0.0
 11
13.641454
 21
12.225920
 31
0.0
  0
SPLINE
  5
234
100
AcDbEntity
  8
Layer_1
 62
3
100
AcDbSpline
 70
8
 71
3
 72
8
 73
4
 74
0
 40
0
 40
0
 40
0
 40
0
 40
1
 40
1
 40
1
 40
1
 10
13.891965
 20
12.217107
 30
0.0
 10
13.927493
 20
12.166094
 30
0.0
 10
13.975965
 20
12.135092
 30
0.0
 10
14.037381
 20
12.124103
 30
0.0
  0
SPLINE
  5
235
100
AcDbEntity
  8
Layer_1
 62
3
100
AcDbSpline
 70
8
 71
3
 72
8
 73
4
 74
0
 40
0
 40
0
 40
0
 40
0
 40
1
 40
1
 40
1
 40
1
 10
14.037381
 20
12.124103
 30
0.0
 10
14.098797
 20
12.113113
 30
0.0
 10
14.155011
 20
12.125382
 30
0.0
 10
14.206024
 20
12.160909
 30
0.0
  0
SPLINE
  5
236
100
AcDbEntity
  8
Layer_1
 62
3
100
AcDbSpline
 70
8
 71
3
 72
8
 73
4
 74
0
 40
0
 40
0
 40
0
 40
0
 40
1
 40
1
 40
1
 40
1
 10
14.206024
 20
12.160909
 30
0.0
 10
14.257037
 20
12.196437
 30
0.0
 10
14.288038
 20
12.244909
 30
0.0
 10
14.299028
 20
12.306325
 30
0.0
  0
SPLINE
  5
237
100
AcDbEntity
  8
Layer_1
 62
3
100
AcDbSpline
 70
8
 71
3
 72
8
 73
4
 74
0
 40
0
 40
0
 40
0
 40
0
 40
1
 40
1
 40
1
 40
1
 10
14.299028
 20
12.306325
 30
0.0
 10
14.310017
 20
12.367741
 30
0.0
 10
14.297748
 20
12.423955
 30
0.0
 10
14.262221
 20
12.474968
 30
0.0
  0
LINE
  5
238
100
AcDbEntity
  8
Layer_1
 62
3
100
AcDbLine
 10
14.262221
 20
12.474968
 30
0.0
 11
14.176267
 21
12.598387
 31
0.0
  0
SPLINE
  5
239
100
AcDbEntity
  8
Layer_1
 62
3
100
AcDbSpline
 70
8
 71
3
 72
8
 73
4
 74
0
 40
0
 40
0
 40
0
 40
0
 40
1
 40
1
 40
1
 40
1
 10
14.176267
 20
12.598387
 30
0.0
 10
14.140740
 20
12.649399
 30
0.0
 10
14.092268
 20
12.680401
 30
0.0
 10
14.030852
 20
12.691390
 30
0.0
  0
SPLINE
  5
23a
100
AcDbEntity
  8
Layer_1
 62
3
100
AcDbSpline
 70
8
 71
3
 72
8
 73
4
 74
0
 40
0
 40
0
 40
0
 40
0
 40
1
 40
1
 40
1
 40
1
 10
14.030852
 20
12.691390
 30
0.0
 10
13.969436
 20
12.702380
 30
0.0
 10
13.913222
 20
12.690111
 30
0.0
 10
13.862208
 20
12.654583
 30
0.0
  0
SPLINE
  5
23b
100
AcDbEntity
  8
Layer_1
 62
3
100
AcDbSpline
 70
8
 71
3
 72
8
 73
4
 74
0
 40
0
 40
0
 40
0
 40
0
 40
1
 40
1
 40
1
 40
1
 10
13.862208
 20
12.654583
 30
0.0
 10
13.811196
 20
12.619056
 30
0.0
 10
13.780195
 20
12.570584
 30
0.0
 10
13.769205
 20
12.509168
 30
0.0
  0
SPLINE
  5
23c
100
AcDbEntity
  8
Layer_1
 62
3
100
AcDbSpline
 70
8
 71
3
 72
8
 73
4
 74
0
 40
0
 40
0
 40
0
 40
0
 40
1
 40
1
 40
1
 40
1
 10
13.769205
 20
12.509168
 30
0.0
 10
13.758216
 20
12.447752
 30
0.0
 10
13.770485
 20
12.391538
 30
0.0
 10
13.806012
 20
12.340525
 30
0.0
  0
LINE
  5
23d
100
AcDbEntity
  8
Layer_1
 62
3
100
AcDbLine
 10
13.806012
 20
12.340525
 30
0.0
 11
13.891965
 21
12.217107
 31
0.0
  0
LINE
  5
23e
100
AcDbEntity
  8
Layer_1
 62
3
100
AcDbLine
 10
12.193910
 20
16.807819
 30
0.0
 11
11.748877
 21
17.095335
 31
0.0
  0
LINE
  5
23f
100
AcDbEntity
  8
Layer_1
 62
3
100
AcDbLine
 10
11.748877
 20
17.095335
 30
0.0
 11
11.735358
 21
16.475835
 31
0.0
  0
SPLINE
  5
240
100
AcDbEntity
  8
Layer_1
 62
3
100
AcDbSpline
 70
8
 71
3
 72
8
 73
4
 74
0
 40
0
 40
0
 40
0
 40
0
 40
1
 40
1
 40
1
 40
1
 10
11.735358
 20
16.475835
 30
0.0
 10
11.734761
 20
16.448435
 30
0.0
 10
11.724553
 20
16.424922
 30
0.0
 10
11.704736
 20
16.405296
 30
0.0
  0
SPLINE
  5
241
100
AcDbEntity
  8
Layer_1
 62
3
100
AcDbSpline
 70
8
 71
3
 72
8
 73
4
 74
0
 40
0
 40
0
 40
0
 40
0
 40
1
 40
1
 40
1
 40
1
 10
11.704736
 20
16.405296
 30
0.0
 10
11.684264
 20
16.386354
 30
0.0
 10
11.660328
 20
16.377181
 30
0.0
 10
11.632928
 20
16.377780
 30
0.0
  0
SPLINE
  5
242
100
AcDbEntity
  8
Layer_1
 62
3
100
AcDbSpline
 70
8
 71
3
 72
8
 73
4
 74
0
 40
0
 40
0
 40
0
 40
0
 40
1
 40
1
 40
1
 40
1
 10
11.632928
 20
16.377780
 30
0.0
 10
11.605528
 20
16.378377
 30
0.0
 10
11.582350
 20
16.388577
 30
0.0
 10
11.563393
 20
16.408381
 30
0.0
  0
SPLINE
  5
243
100
AcDbEntity
  8
Layer_1
 62
3
100
AcDbSpline
 70
8
 71
3
 72
8
 73
4
 74
0
 40
0
 40
0
 40
0
 40
0
 40
1
 40
1
 40
1
 40
1
 10
11.563393
 20
16.408381
 30
0.0
 10
11.543782
 20
16.428867
 30
0.0
 10
11.534275
 20
16.452810
 30
0.0
 10
11.534873
 20
16.480209
 30
0.0
  0
LINE
  5
244
100
AcDbEntity
  8
Layer_1
 62
3
100
AcDbLine
 10
11.534873
 20
16.480209
 30
0.0
 11
11.552372
 21
17.282152
 31
0.0
  0
SPLINE
  5
245
100
AcDbEntity
  8
Layer_1
 62
3
100
AcDbSpline
 70
8
 71
3
 72
8
 73
4
 74
0
 40
0
 40
0
 40
0
 40
0
 40
1
 40
1
 40
1
 40
1
 10
11.552372
 20
17.282152
 30
0.0
 10
11.552969
 20
17.309551
 30
0.0
 10
11.563504
 20
17.332722
 30
0.0
 10
11.583976
 20
17.351665
 30
0.0
  0
SPLINE
  5
246
100
AcDbEntity
  8
Layer_1
 62
3
100
AcDbSpline
 70
8
 71
3
 72
8
 73
4
 74
0
 40
0
 40
0
 40
0
 40
0
 40
1
 40
1
 40
1
 40
1
 10
11.583976
 20
17.351665
 30
0.0
 10
11.603794
 20
17.371291
 30
0.0
 10
11.627402
 20
17.380805
 30
0.0
 10
11.654802
 20
17.380207
 30
0.0
  0
SPLINE
  5
247
100
AcDbEntity
  8
Layer_1
 62
3
100
AcDbSpline
 70
8
 71
3
 72
8
 73
4
 74
0
 40
0
 40
0
 40
0
 40
0
 40
1
 40
1
 40
1
 40
1
 10
11.654802
 20
17.380207
 30
0.0
 10
11.682202
 20
17.379609
 30
0.0
 10
11.715324
 20
17.365514
 30
0.0
 10
11.754170
 20
17.337922
 30
0.0
  0
LINE
  5
248
100
AcDbEntity
  8
Layer_1
 62
3
100
AcDbLine
 10
11.754170
 20
17.337922
 30
0.0
 11
12.199204
 21
17.050407
 31
0.0
  0
LINE
  5
249
100
AcDbEntity
  8
Layer_1
 62
3
100
AcDbLine
 10
12.199204
 20
17.050407
 30
0.0
 11
12.201759
 21
17.167691
 31
0.0
  0
SPLINE
  5
24a
100
AcDbEntity
  8
Layer_1
 62
3
100
AcDbSpline
 70
8
 71
3
 72
8
 73
4
 74
0
 40
0
 40
0
 40
0
 40
0
 40
1
 40
1
 40
1
 40
1
 10
12.201759
 20
17.167691
 30
0.0
 10
12.202356
 20
17.195091
 30
0.0
 10
12.212891
 20
17.218262
 30
0.0
 10
12.233362
 20
17.237204
 30
0.0
  0
SPLINE
  5
24b
100
AcDbEntity
  8
Layer_1
 62
3
100
AcDbSpline
 70
8
 71
3
 72
8
 73
4
 74
0
 40
0
 40
0
 40
0
 40
0
 40
1
 40
1
 40
1
 40
1
 10
12.233362
 20
17.237204
 30
0.0
 10
12.253180
 20
17.256830
 30
0.0
 10
12.276789
 20
17.266344
 30
0.0
 10
12.304188
 20
17.265746
 30
0.0
  0
SPLINE
  5
24c
100
AcDbEntity
  8
Layer_1
 62
3
100
AcDbSpline
 70
8
 71
3
 72
8
 73
4
 74
0
 40
0
 40
0
 40
0
 40
0
 40
1
 40
1
 40
1
 40
1
 10
12.304188
 20
17.265746
 30
0.0
 10
12.331588
 20
17.265149
 30
0.0
 10
12.355093
 20
17.254607
 30
0.0
 10
12.374704
 20
17.234120
 30
0.0
  0
SPLINE
  5
24d
100
AcDbEntity
  8
Layer_1
 62
3
100
AcDbSpline
 70
8
 71
3
 72
8
 73
4
 74
0
 40
0
 40
0
 40
0
 40
0
 40
1
 40
1
 40
1
 40
1
 10
12.374704
 20
17.234120
 30
0.0
 10
12.393662
 20
17.214317
 30
0.0
 10
12.402842
 20
17.190716
 30
0.0
 10
12.402244
 20
17.163316
 30
0.0
  0
LINE
  5
24e
100
AcDbEntity
  8
Layer_1
 62
3
100
AcDbLine
 10
12.402244
 20
17.163316
 30
0.0
 11
12.396973
 21
16.921731
 31
0.0
  0
LINE
  5
24f
100
AcDbEntity
  8
Layer_1
 62
3
100
AcDbLine
 10
12.396973
 20
16.921731
 30
0.0
 11
12.940893
 21
16.569877
 31
0.0
  0
SPLINE
  5
250
100
AcDbEntity
  8
Layer_1
 62
3
100
AcDbSpline
 70
8
 71
3
 72
8
 73
4
 74
0
 40
0
 40
0
 40
0
 40
0
 40
1
 40
1
 40
1
 40
1
 10
12.940893
 20
16.569877
 30
0.0
 10
12.968001
 20
16.555914
 30
0.0
 10
12.991361
 20
16.538689
 30
0.0
 10
13.010972
 20
16.518203
 30
0.0
  0
SPLINE
  5
251
100
AcDbEntity
  8
Layer_1
 62
3
100
AcDbSpline
 70
8
 71
3
 72
8
 73
4
 74
0
 40
0
 40
0
 40
0
 40
0
 40
1
 40
1
 40
1
 40
1
 10
13.010972
 20
16.518203
 30
0.0
 10
13.029929
 20
16.498399
 30
0.0
 10
13.039109
 20
16.474798
 30
0.0
 10
13.038511
 20
16.447398
 30
0.0
  0
SPLINE
  5
252
100
AcDbEntity
  8
Layer_1
 62
3
100
AcDbSpline
 70
8
 71
3
 72
8
 73
4
 74
0
 40
0
 40
0
 40
0
 40
0
 40
1
 40
1
 40
1
 40
1
 10
13.038511
 20
16.447398
 30
0.0
 10
13.037913
 20
16.419999
 30
0.0
 10
13.027706
 20
16.396486
 30
0.0
 10
13.007887
 20
16.376860
 30
0.0
  0
SPLINE
  5
253
100
AcDbEntity
  8
Layer_1
 62
3
100
AcDbSpline
 70
8
 71
3
 72
8
 73
4
 74
0
 40
0
 40
0
 40
0
 40
0
 40
1
 40
1
 40
1
 40
1
 10
13.007887
 20
16.376860
 30
0.0
 10
12.987416
 20
16.357917
 30
0.0
 10
12.963481
 20
16.348745
 30
0.0
 10
12.936081
 20
16.349343
 30
0.0
  0
SPLINE
  5
254
100
AcDbEntity
  8
Layer_1
 62
3
100
AcDbSpline
 70
8
 71
3
 72
8
 73
4
 74
0
 40
0
 40
0
 40
0
 40
0
 40
1
 40
1
 40
1
 40
1
 10
12.936081
 20
16.349343
 30
0.0
 10
12.908681
 20
16.349941
 30
0.0
 10
12.875559
 20
16.364035
 30
0.0
 10
12.836713
 20
16.391627
 30
0.0
  0
LINE
  5
255
100
AcDbEntity
  8
Layer_1
 62
3
100
AcDbLine
 10
12.836713
 20
16.391627
 30
0.0
 11
12.391680
 21
16.679143
 31
0.0
  0
LINE
  5
256
100
AcDbEntity
  8
Layer_1
 62
3
100
AcDbLine
 10
12.391680
 20
16.679143
 30
0.0
 11
12.389125
 21
16.561860
 31
0.0
  0
SPLINE
  5
257
100
AcDbEntity
  8
Layer_1
 62
3
100
AcDbSpline
 70
8
 71
3
 72
8
 73
4
 74
0
 40
0
 40
0
 40
0
 40
0
 40
1
 40
1
 40
1
 40
1
 10
12.389125
 20
16.561860
 30
0.0
 10
12.388527
 20
16.534460
 30
0.0
 10
12.378319
 20
16.510947
 30
0.0
 10
12.358501
 20
16.491321
 30
0.0
  0
SPLINE
  5
258
100
AcDbEntity
  8
Layer_1
 62
3
100
AcDbSpline
 70
8
 71
3
 72
8
 73
4
 74
0
 40
0
 40
0
 40
0
 40
0
 40
1
 40
1
 40
1
 40
1
 10
12.358501
 20
16.491321
 30
0.0
 10
12.338030
 20
16.472378
 30
0.0
 10
12.314094
 20
16.463206
 30
0.0
 10
12.286694
 20
16.463804
 30
0.0
  0
SPLINE
  5
259
100
AcDbEntity
  8
Layer_1
 62
3
100
AcDbSpline
 70
8
 71
3
 72
8
 73
4
 74
0
 40
0
 40
0
 40
0
 40
0
 40
1
 40
1
 40
1
 40
1
 10
12.286694
 20
16.463804
 30
0.0
 10
12.259295
 20
16.464401
 30
0.0
 10
12.236116
 20
16.474602
 30
0.0
 10
12.217159
 20
16.494405
 30
0.0
  0
SPLINE
  5
25a
100
AcDbEntity
  8
Layer_1
 62
3
100
AcDbSpline
 70
8
 71
3
 72
8
 73
4
 74
0
 40
0
 40
0
 40
0
 40
0
 40
1
 40
1
 40
1
 40
1
 10
12.217159
 20
16.494405
 30
0.0
 10
12.197547
 20
16.514892
 30
0.0
 10
12.188041
 20
16.538834
 30
0.0
 10
12.188639
 20
16.566234
 30
0.0
  0
LINE
  5
25b
100
AcDbEntity
  8
Layer_1
 62
3
100
AcDbLine
 10
12.188639
 20
16.566234
 30
0.0
 11
12.193910
 21
16.807819
 31
0.0
  0
SPLINE
  5
25c
100
AcDbEntity
  8
Layer_1
 62
3
100
AcDbSpline
 70
8
 71
3
 72
8
 73
4
 74
0
 40
0
 40
0
 40
0
 40
0
 40
1
 40
1
 40
1
 40
1
 10
13.875082
 20
21.363094
 30
0.0
 10
13.837415
 20
21.313639
 30
0.0
 10
13.822765
 20
21.257998
 30
0.0
 10
13.831132
 20
21.196170
 30
0.0
  0
SPLINE
  5
25d
100
AcDbEntity
  8
Layer_1
 62
3
100
AcDbSpline
 70
8
 71
3
 72
8
 73
4
 74
0
 40
0
 40
0
 40
0
 40
0
 40
1
 40
1
 40
1
 40
1
 10
13.831132
 20
21.196170
 30
0.0
 10
13.839498
 20
21.134342
 30
0.0
 10
13.868408
 20
21.084594
 30
0.0
 10
13.917863
 20
21.046928
 30
0.0
  0
SPLINE
  5
25e
100
AcDbEntity
  8
Layer_1
 62
3
100
AcDbSpline
 70
8
 71
3
 72
8
 73
4
 74
0
 40
0
 40
0
 40
0
 40
0
 40
1
 40
1
 40
1
 40
1
 10
13.917863
 20
21.046928
 30
0.0
 10
13.967319
 20
21.009262
 30
0.0
 10
14.022960
 20
20.994612
 30
0.0
 10
14.084788
 20
21.002979
 30
0.0
  0
SPLINE
  5
25f
100
AcDbEntity
  8
Layer_1
 62
3
100
AcDbSpline
 70
8
 71
3
 72
8
 73
4
 74
0
 40
0
 40
0
 40
0
 40
0
 40
1
 40
1
 40
1
 40
1
 10
14.084788
 20
21.002979
 30
0.0
 10
14.146615
 20
21.011345
 30
0.0
 10
14.196362
 20
21.040256
 30
0.0
 10
14.234028
 20
21.089712
 30
0.0
  0
LINE
  5
260
100
AcDbEntity
  8
Layer_1
 62
3
100
AcDbLine
 10
14.234028
 20
21.089712
 30
0.0
 11
14.325156
 21
21.209360
 31
0.0
  0
SPLINE
  5
261
100
AcDbEntity
  8
Layer_1
 62
3
100
AcDbSpline
 70
8
 71
3
 72
8
 73
4
 74
0
 40
0
 40
0
 40
0
 40
0
 40
1
 40
1
 40
1
 40
1
 10
14.325156
 20
21.209360
 30
0.0
 10
14.362822
 20
21.258815
 30
0.0
 10
14.377472
 20
21.314456
 30
0.0
 10
14.369106
 20
21.376284
 30
0.0
  0
SPLINE
  5
262
100
AcDbEntity
  8
Layer_1
 62
3
100
AcDbSpline
 70
8
 71
3
 72
8
 73
4
 74
0
 40
0
 40
0
 40
0
 40
0
 40
1
 40
1
 40
1
 40
1
 10
14.369106
 20
21.376284
 30
0.0
 10
14.360739
 20
21.438112
 30
0.0
 10
14.331829
 20
21.487860
 30
0.0
 10
14.282374
 20
21.525526
 30
0.0
  0
SPLINE
  5
263
100
AcDbEntity
  8
Layer_1
 62
3
100
AcDbSpline
 70
8
 71
3
 72
8
 73
4
 74
0
 40
0
 40
0
 40
0
 40
0
 40
1
 40
1
 40
1
 40
1
 10
14.282374
 20
21.525526
 30
0.0
 10
14.232919
 20
21.563192
 30
0.0
 10
14.177278
 20
21.577842
 30
0.0
 10
14.115450
 20
21.569475
 30
0.0
  0
SPLINE
  5
264
100
AcDbEntity
  8
Layer_1
 62
3
100
AcDbSpline
 70
8
 71
3
 72
8
 73
4
 74
0
 40
0
 40
0
 40
0
 40
0
 40
1
 40
1
 40
1
 40
1
 10
14.115450
 20
21.569475
 30
0.0
 10
14.053622
 20
21.561109
 30
0.0
 10
14.003875
 20
21.532198
 30
0.0
 10
13.966209
 20
21.482742
 30
0.0
  0
LINE
  5
265
100
AcDbEntity
  8
Layer_1
 62
3
100
AcDbLine
 10
13.966209
 20
21.482742
 30
0.0
 11
13.875082
 21
21.363094
 31
0.0
  0
SPLINE
  5
266
100
AcDbEntity
  8
Layer_1
 62
3
100
AcDbSpline
 70
8
 71
3
 72
8
 73
4
 74
0
 40
0
 40
0
 40
0
 40
0
 40
1
 40
1
 40
1
 40
1
 10
14.052902
 20
21.762053
 30
0.0
 10
14.064954
 20
21.764639
 30
0.0
 10
14.076803
 20
21.766958
 30
0.0
 10
14.088449
 20
21.769012
 30
0.0
  0
SPLINE
  5
267
100
AcDbEntity
  8
Layer_1
 62
3
100
AcDbSpline
 70
8
 71
3
 72
8
 73
4
 74
0
 40
0
 40
0
 40
0
 40
0
 40
1
 40
1
 40
1
 40
1
 10
14.088449
 20
21.769012
 30
0.0
 10
14.205143
 20
21.784325
 30
0.0
 10
14.310285
 20
21.756341
 30
0.0
 10
14.403877
 20
21.685059
 30
0.0
  0
SPLINE
  5
268
100
AcDbEntity
  8
Layer_1
 62
3
100
AcDbSpline
 70
8
 71
3
 72
8
 73
4
 74
0
 40
0
 40
0
 40
0
 40
0
 40
1
 40
1
 40
1
 40
1
 10
14.403877
 20
21.685059
 30
0.0
 10
14.497470
 20
21.613777
 30
0.0
 10
14.552188
 20
21.519587
 30
0.0
 10
14.568033
 20
21.402488
 30
0.0
  0
SPLINE
  5
269
100
AcDbEntity
  8
Layer_1
 62
3
100
AcDbSpline
 70
8
 71
3
 72
8
 73
4
 74
0
 40
0
 40
0
 40
0
 40
0
 40
1
 40
1
 40
1
 40
1
 10
14.568033
 20
21.402488
 30
0.0
 10
14.583752
 20
21.286327
 30
0.0
 10
14.555970
 20
21.181451
 30
0.0
 10
14.484688
 20
21.087858
 30
0.0
  0
LINE
  5
26a
100
AcDbEntity
  8
Layer_1
 62
3
100
AcDbLine
 10
14.484688
 20
21.087858
 30
0.0
 11
14.393561
 21
20.968208
 31
0.0
  0
SPLINE
  5
26b
100
AcDbEntity
  8
Layer_1
 62
3
100
AcDbSpline
 70
8
 71
3
 72
8
 73
4
 74
0
 40
0
 40
0
 40
0
 40
0
 40
1
 40
1
 40
1
 40
1
 10
14.393561
 20
20.968208
 30
0.0
 10
14.322278
 20
20.874616
 30
0.0
 10
14.228354
 20
20.819695
 30
0.0
 10
14.111788
 20
20.803445
 30
0.0
  0
SPLINE
  5
26c
100
AcDbEntity
  8
Layer_1
 62
3
100
AcDbSpline
 70
8
 71
3
 72
8
 73
4
 74
0
 40
0
 40
0
 40
0
 40
0
 40
1
 40
1
 40
1
 40
1
 10
14.111788
 20
20.803445
 30
0.0
 10
13.995094
 20
20.788132
 30
0.0
 10
13.889952
 20
20.816116
 30
0.0
 10
13.796360
 20
20.887398
 30
0.0
  0
SPLINE
  5
26d
100
AcDbEntity
  8
Layer_1
 62
3
100
AcDbSpline
 70
8
 71
3
 72
8
 73
4
 74
0
 40
0
 40
0
 40
0
 40
0
 40
1
 40
1
 40
1
 40
1
 10
13.796360
 20
20.887398
 30
0.0
 10
13.702767
 20
20.958680
 30
0.0
 10
13.648049
 20
21.052870
 30
0.0
 10
13.632204
 20
21.169969
 30
0.0
  0
SPLINE
  5
26e
100
AcDbEntity
  8
Layer_1
 62
3
100
AcDbSpline
 70
8
 71
3
 72
8
 73
4
 74
0
 40
0
 40
0
 40
0
 40
0
 40
1
 40
1
 40
1
 40
1
 10
13.632204
 20
21.169969
 30
0.0
 10
13.630682
 20
21.181210
 30
0.0
 10
13.629567
 20
21.192983
 30
0.0
 10
13.628857
 20
21.205288
 30
0.0
  0
SPLINE
  5
26f
100
AcDbEntity
  8
Layer_1
 62
3
100
AcDbSpline
 70
8
 71
3
 72
8
 73
4
 74
0
 40
0
 40
0
 40
0
 40
0
 40
1
 40
1
 40
1
 40
1
 10
13.628857
 20
21.205288
 30
0.0
 10
13.616806
 20
21.202702
 30
0.0
 10
13.604894
 20
21.200852
 30
0.0
 10
13.593121
 20
21.199737
 30
0.0
  0
SPLINE
  5
270
100
AcDbEntity
  8
Layer_1
 62
3
100
AcDbSpline
 70
8
 71
3
 72
8
 73
4
 74
0
 40
0
 40
0
 40
0
 40
0
 40
1
 40
1
 40
1
 40
1
 10
13.593121
 20
21.199737
 30
0.0
 10
13.476554
 20
21.183486
 30
0.0
 10
13.371475
 20
21.211002
 30
0.0
 10
13.277883
 20
21.282285
 30
0.0
  0
SPLINE
  5
271
100
AcDbEntity
  8
Layer_1
 62
3
100
AcDbSpline
 70
8
 71
3
 72
8
 73
4
 74
0
 40
0
 40
0
 40
0
 40
0
 40
1
 40
1
 40
1
 40
1
 10
13.277883
 20
21.282285
 30
0.0
 10
13.184291
 20
21.353567
 30
0.0
 10
13.129635
 20
21.447288
 30
0.0
 10
13.113917
 20
21.563449
 30
0.0
  0
SPLINE
  5
272
100
AcDbEntity
  8
Layer_1
 62
3
100
AcDbSpline
 70
8
 71
3
 72
8
 73
4
 74
0
 40
0
 40
0
 40
0
 40
0
 40
1
 40
1
 40
1
 40
1
 10
13.113917
 20
21.563449
 30
0.0
 10
13.098072
 20
21.680548
 30
0.0
 10
13.125790
 20
21.785893
 30
0.0
 10
13.197072
 20
21.879485
 30
0.0
  0
LINE
  5
273
100
AcDbEntity
  8
Layer_1
 62
3
100
AcDbLine
 10
13.197072
 20
21.879485
 30
0.0
 11
13.288199
 21
21.999134
 31
0.0
  0
SPLINE
  5
274
100
AcDbEntity
  8
Layer_1
 62
3
100
AcDbSpline
 70
8
 71
3
 72
8
 73
4
 74
0
 40
0
 40
0
 40
0
 40
0
 40
1
 40
1
 40
1
 40
1
 10
13.288199
 20
21.999134
 30
0.0
 10
13.359482
 20
22.092726
 30
0.0
 10
13.453469
 20
22.147179
 30
0.0
 10
13.570162
 20
22.162492
 30
0.0
  0
SPLINE
  5
275
100
AcDbEntity
  8
Layer_1
 62
3
100
AcDbSpline
 70
8
 71
3
 72
8
 73
4
 74
0
 40
0
 40
0
 40
0
 40
0
 40
1
 40
1
 40
1
 40
1
 10
13.570162
 20
22.162492
 30
0.0
 10
13.686729
 20
22.178743
 30
0.0
 10
13.791808
 20
22.151227
 30
0.0
 10
13.885400
 20
22.079945
 30
0.0
  0
SPLINE
  5
276
100
AcDbEntity
  8
Layer_1
 62
3
100
AcDbSpline
 70
8
 71
3
 72
8
 73
4
 74
0
 40
0
 40
0
 40
0
 40
0
 40
1
 40
1
 40
1
 40
1
 10
13.885400
 20
22.079945
 30
0.0
 10
13.978992
 20
22.008663
 30
0.0
 10
14.033647
 20
21.914941
 30
0.0
 10
14.049366
 20
21.798780
 30
0.0
  0
SPLINE
  5
277
100
AcDbEntity
  8
Layer_1
 62
3
100
AcDbSpline
 70
8
 71
3
 72
8
 73
4
 74
0
 40
0
 40
0
 40
0
 40
0
 40
1
 40
1
 40
1
 40
1
 10
14.049366
 20
21.798780
 30
0.0
 10
14.051018
 20
21.786601
 30
0.0
 10
14.052199
 20
21.774360
 30
0.0
 10
14.052908
 20
21.762055
 30
0.0
  0
LINE
  5
278
100
AcDbEntity
  8
Layer_1
 62
3
100
AcDbLine
 10
14.052908
 20
21.762055
 30
0.0
 11
14.052902
 21
21.762053
 31
0.0
  0
SPLINE
  5
279
100
AcDbEntity
  8
Layer_1
 62
3
100
AcDbSpline
 70
8
 71
3
 72
8
 73
4
 74
0
 40
0
 40
0
 40
0
 40
0
 40
1
 40
1
 40
1
 40
1
 10
13.763894
 20
21.920411
 30
0.0
 10
13.714440
 20
21.958077
 30
0.0
 10
13.658798
 20
21.972727
 30
0.0
 10
13.596970
 20
21.964361
 30
0.0
  0
SPLINE
  5
27a
100
AcDbEntity
  8
Layer_1
 62
3
100
AcDbSpline
 70
8
 71
3
 72
8
 73
4
 74
0
 40
0
 40
0
 40
0
 40
0
 40
1
 40
1
 40
1
 40
1
 10
13.596970
 20
21.964361
 30
0.0
 10
13.535143
 20
21.955995
 30
0.0
 10
13.485396
 20
21.927084
 30
0.0
 10
13.447730
 20
21.877629
 30
0.0
  0
LINE
  5
27b
100
AcDbEntity
  8
Layer_1
 62
3
100
AcDbLine
 10
13.447730
 20
21.877629
 30
0.0
 11
13.356601
 21
21.757980
 31
0.0
  0
SPLINE
  5
27c
100
AcDbEntity
  8
Layer_1
 62
3
100
AcDbSpline
 70
8
 71
3
 72
8
 73
4
 74
0
 40
0
 40
0
 40
0
 40
0
 40
1
 40
1
 40
1
 40
1
 10
13.356601
 20
21.757980
 30
0.0
 10
13.318935
 20
21.708525
 30
0.0
 10
13.304286
 20
21.652884
 30
0.0
 10
13.312652
 20
21.591056
 30
0.0
  0
SPLINE
  5
27d
100
AcDbEntity
  8
Layer_1
 62
3
100
AcDbSpline
 70
8
 71
3
 72
8
 73
4
 74
0
 40
0
 40
0
 40
0
 40
0
 40
1
 40
1
 40
1
 40
1
 10
13.312652
 20
21.591056
 30
0.0
 10
13.321018
 20
21.529228
 30
0.0
 10
13.349929
 20
21.479481
 30
0.0
 10
13.399385
 20
21.441815
 30
0.0
  0
SPLINE
  5
27e
100
AcDbEntity
  8
Layer_1
 62
3
100
AcDbSpline
 70
8
 71
3
 72
8
 73
4
 74
0
 40
0
 40
0
 40
0
 40
0
 40
1
 40
1
 40
1
 40
1
 10
13.399385
 20
21.441815
 30
0.0
 10
13.448839
 20
21.404149
 30
0.0
 10
13.504480
 20
21.389499
 30
0.0
 10
13.566308
 20
21.397866
 30
0.0
  0
SPLINE
  5
27f
100
AcDbEntity
  8
Layer_1
 62
3
100
AcDbSpline
 70
8
 71
3
 72
8
 73
4
 74
0
 40
0
 40
0
 40
0
 40
0
 40
1
 40
1
 40
1
 40
1
 10
13.566308
 20
21.397866
 30
0.0
 10
13.628136
 20
21.406232
 30
0.0
 10
13.677883
 20
21.435142
 30
0.0
 10
13.715549
 20
21.484597
 30
0.0
  0
LINE
  5
280
100
AcDbEntity
  8
Layer_1
 62
3
100
AcDbLine
 10
13.715549
 20
21.484597
 30
0.0
 11
13.806676
 21
21.604246
 31
0.0
  0
SPLINE
  5
281
100
AcDbEntity
  8
Layer_1
 62
3
100
AcDbSpline
 70
8
 71
3
 72
8
 73
4
 74
0
 40
0
 40
0
 40
0
 40
0
 40
1
 40
1
 40
1
 40
1
 10
13.806676
 20
21.604246
 30
0.0
 10
13.844343
 20
21.653701
 30
0.0
 10
13.858993
 20
21.709343
 30
0.0
 10
13.850626
 20
21.771171
 30
0.0
  0
SPLINE
  5
282
100
AcDbEntity
  8
Layer_1
 62
3
100
AcDbSpline
 70
8
 71
3
 72
8
 73
4
 74
0
 40
0
 40
0
 40
0
 40
0
 40
1
 40
1
 40
1
 40
1
 10
13.850626
 20
21.771171
 30
0.0
 10
13.842260
 20
21.832998
 30
0.0
 10
13.813349
 20
21.882745
 30
0.0
 10
13.763894
 20
21.920411
 30
0.0
  0
LINE
  5
283
100
AcDbEntity
  8
Layer_1
 62
3
100
AcDbLine
 10
13.763894
 20
21.920411
 30
0.0
 11
13.763894
 21
21.920411
 31
0.0
  0
SPLINE
  5
284
100
AcDbEntity
  8
Layer_1
 62
3
100
AcDbSpline
 70
8
 71
3
 72
8
 73
4
 74
0
 40
0
 40
0
 40
0
 40
0
 40
1
 40
1
 40
1
 40
1
 10
17.766063
 20
24.188911
 30
0.0
 10
17.653389
 20
24.155069
 30
0.0
 10
17.545119
 20
24.165822
 30
0.0
 10
17.441252
 20
24.221170
 30
0.0
  0
SPLINE
  5
285
100
AcDbEntity
  8
Layer_1
 62
3
100
AcDbSpline
 70
8
 71
3
 72
8
 73
4
 74
0
 40
0
 40
0
 40
0
 40
0
 40
1
 40
1
 40
1
 40
1
 10
17.441252
 20
24.221170
 30
0.0
 10
17.337832
 20
24.277350
 30
0.0
 10
17.269202
 20
24.361778
 30
0.0
 10
17.235360
 20
24.474452
 30
0.0
  0
SPLINE
  5
286
100
AcDbEntity
  8
Layer_1
 62
3
100
AcDbSpline
 70
8
 71
3
 72
8
 73
4
 74
0
 40
0
 40
0
 40
0
 40
0
 40
1
 40
1
 40
1
 40
1
 10
17.235360
 20
24.474452
 30
0.0
 10
17.201518
 20
24.587126
 30
0.0
 10
17.212367
 20
24.695076
 30
0.0
 10
17.267908
 20
24.798303
 30
0.0
  0
SPLINE
  5
287
100
AcDbEntity
  8
Layer_1
 62
3
100
AcDbSpline
 70
8
 71
3
 72
8
 73
4
 74
0
 40
0
 40
0
 40
0
 40
0
 40
1
 40
1
 40
1
 40
1
 10
17.267908
 20
24.798303
 30
0.0
 10
17.323896
 20
24.902362
 30
0.0
 10
17.408227
 20
24.971312
 30
0.0
 10
17.520901
 20
25.005154
 30
0.0
  0
LINE
  5
288
100
AcDbEntity
  8
Layer_1
 62
3
100
AcDbLine
 10
17.520901
 20
25.005154
 30
0.0
 11
17.664944
 21
25.048418
 31
0.0
  0
SPLINE
  5
289
100
AcDbEntity
  8
Layer_1
 62
3
100
AcDbSpline
 70
8
 71
3
 72
8
 73
4
 74
0
 40
0
 40
0
 40
0
 40
0
 40
1
 40
1
 40
1
 40
1
 10
17.664944
 20
25.048418
 30
0.0
 10
17.777618
 20
25.082260
 30
0.0
 10
17.885664
 20
25.071090
 30
0.0
 10
17.989083
 20
25.014909
 30
0.0
  0
SPLINE
  5
28a
100
AcDbEntity
  8
Layer_1
 62
3
100
AcDbSpline
 70
8
 71
3
 72
8
 73
4
 74
0
 40
0
 40
0
 40
0
 40
0
 40
1
 40
1
 40
1
 40
1
 10
17.989083
 20
25.014909
 30
0.0
 10
18.092950
 20
24.959561
 30
0.0
 10
18.161804
 20
24.875550
 30
0.0
 10
18.195646
 20
24.762877
 30
0.0
  0
LINE
  5
28b
100
AcDbEntity
  8
Layer_1
 62
3
100
AcDbLine
 10
18.195646
 20
24.762877
 30
0.0
 11
18.383123
 21
24.138690
 31
0.0
  0
SPLINE
  5
28c
100
AcDbEntity
  8
Layer_1
 62
3
100
AcDbSpline
 70
8
 71
3
 72
8
 73
4
 74
0
 40
0
 40
0
 40
0
 40
0
 40
1
 40
1
 40
1
 40
1
 10
18.383123
 20
24.138690
 30
0.0
 10
18.416965
 20
24.026017
 30
0.0
 10
18.405892
 20
23.917650
 30
0.0
 10
18.349903
 20
23.813591
 30
0.0
  0
SPLINE
  5
28d
100
AcDbEntity
  8
Layer_1
 62
3
100
AcDbSpline
 70
8
 71
3
 72
8
 73
4
 74
0
 40
0
 40
0
 40
0
 40
0
 40
1
 40
1
 40
1
 40
1
 10
18.349903
 20
23.813591
 30
0.0
 10
18.294363
 20
23.710364
 30
0.0
 10
18.210256
 20
23.641830
 30
0.0
 10
18.097582
 20
23.607987
 30
0.0
  0
LINE
  5
28e
100
AcDbEntity
  8
Layer_1
 62
3
100
AcDbLine
 10
18.097582
 20
23.607987
 30
0.0
 11
17.953539
 21
23.564724
 31
0.0
  0
SPLINE
  5
28f
100
AcDbEntity
  8
Layer_1
 62
3
100
AcDbSpline
 70
8
 71
3
 72
8
 73
4
 74
0
 40
0
 40
0
 40
0
 40
0
 40
1
 40
1
 40
1
 40
1
 10
17.953539
 20
23.564724
 30
0.0
 10
17.840865
 20
23.530882
 30
0.0
 10
17.732595
 20
23.541635
 30
0.0
 10
17.628727
 20
23.596984
 30
0.0
  0
SPLINE
  5
290
100
AcDbEntity
  8
Layer_1
 62
3
100
AcDbSpline
 70
8
 71
3
 72
8
 73
4
 74
0
 40
0
 40
0
 40
0
 40
0
 40
1
 40
1
 40
1
 40
1
 10
17.628727
 20
23.596984
 30
0.0
 10
17.525309
 20
23.653164
 30
0.0
 10
17.456678
 20
23.737592
 30
0.0
 10
17.422836
 20
23.850265
 30
0.0
  0
SPLINE
  5
291
100
AcDbEntity
  8
Layer_1
 62
3
100
AcDbSpline
 70
8
 71
3
 72
8
 73
4
 74
0
 40
0
 40
0
 40
0
 40
0
 40
1
 40
1
 40
1
 40
1
 10
17.422836
 20
23.850265
 30
0.0
 10
17.414952
 20
23.876513
 30
0.0
 10
17.417505
 20
23.901707
 30
0.0
 10
17.430495
 20
23.925849
 30
0.0
  0
SPLINE
  5
292
100
AcDbEntity
  8
Layer_1
 62
3
100
AcDbSpline
 70
8
 71
3
 72
8
 73
4
 74
0
 40
0
 40
0
 40
0
 40
0
 40
1
 40
1
 40
1
 40
1
 10
17.430495
 20
23.925849
 30
0.0
 10
17.443932
 20
23.950823
 30
0.0
 10
17.463774
 20
23.967252
 30
0.0
 10
17.490022
 20
23.975136
 30
0.0
  0
SPLINE
  5
293
100
AcDbEntity
  8
Layer_1
 62
3
100
AcDbSpline
 70
8
 71
3
 72
8
 73
4
 74
0
 40
0
 40
0
 40
0
 40
0
 40
1
 40
1
 40
1
 40
1
 10
17.490022
 20
23.975136
 30
0.0
 10
17.516270
 20
23.983020
 30
0.0
 10
17.541561
 20
23.980147
 30
0.0
 10
17.565895
 20
23.966517
 30
0.0
  0
SPLINE
  5
294
100
AcDbEntity
  8
Layer_1
 62
3
100
AcDbSpline
 70
8
 71
3
 72
8
 73
4
 74
0
 40
0
 40
0
 40
0
 40
0
 40
1
 40
1
 40
1
 40
1
 10
17.565895
 20
23.966517
 30
0.0
 10
17.590677
 20
23.953720
 30
0.0
 10
17.607010
 20
23.934198
 30
0.0
 10
17.614893
 20
23.907950
 30
0.0
  0
SPLINE
  5
295
100
AcDbEntity
  8
Layer_1
 62
3
100
AcDbSpline
 70
8
 71
3
 72
8
 73
4
 74
0
 40
0
 40
0
 40
0
 40
0
 40
1
 40
1
 40
1
 40
1
 10
17.614893
 20
23.907950
 30
0.0
 10
17.632776
 20
23.848413
 30
0.0
 10
17.669189
 20
23.803863
 30
0.0
 10
17.724132
 20
23.774301
 30
0.0
  0
SPLINE
  5
296
100
AcDbEntity
  8
Layer_1
 62
3
100
AcDbSpline
 70
8
 71
3
 72
8
 73
4
 74
0
 40
0
 40
0
 40
0
 40
0
 40
1
 40
1
 40
1
 40
1
 10
17.724132
 20
23.774301
 30
0.0
 10
17.779075
 20
23.744739
 30
0.0
 10
17.836316
 20
23.738899
 30
0.0
 10
17.895854
 20
23.756781
 30
0.0
  0
LINE
  5
297
100
AcDbEntity
  8
Layer_1
 62
3
100
AcDbLine
 10
17.895854
 20
23.756781
 30
0.0
 11
18.039897
 21
23.800045
 31
0.0
  0
SPLINE
  5
298
100
AcDbEntity
  8
Layer_1
 62
3
100
AcDbSpline
 70
8
 71
3
 72
8
 73
4
 74
0
 40
0
 40
0
 40
0
 40
0
 40
1
 40
1
 40
1
 40
1
 10
18.039897
 20
23.800045
 30
0.0
 10
18.099435
 20
23.817927
 30
0.0
 10
18.143985
 20
23.854340
 30
0.0
 10
18.173546
 20
23.909283
 30
0.0
  0
SPLINE
  5
299
100
AcDbEntity
  8
Layer_1
 62
3
100
AcDbSpline
 70
8
 71
3
 72
8
 73
4
 74
0
 40
0
 40
0
 40
0
 40
0
 40
1
 40
1
 40
1
 40
1
 10
18.173546
 20
23.909283
 30
0.0
 10
18.203108
 20
23.964227
 30
0.0
 10
18.208948
 20
24.021468
 30
0.0
 10
18.191065
 20
24.081005
 30
0.0
  0
LINE
  5
29a
100
AcDbEntity
  8
Layer_1
 62
3
100
AcDbLine
 10
18.191065
 20
24.081005
 30
0.0
 11
18.108000
 21
24.357568
 31
0.0
  0
SPLINE
  5
29b
100
AcDbEntity
  8
Layer_1
 62
3
100
AcDbSpline
 70
8
 71
3
 72
8
 73
4
 74
0
 40
0
 40
0
 40
0
 40
0
 40
1
 40
1
 40
1
 40
1
 10
18.108000
 20
24.357568
 30
0.0
 10
18.056734
 20
24.298200
 30
0.0
 10
17.990769
 20
24.256402
 30
0.0
 10
17.910105
 20
24.232174
 30
0.0
  0
LINE
  5
29c
100
AcDbEntity
  8
Layer_1
 62
3
100
AcDbLine
 10
17.910105
 20
24.232174
 30
0.0
 11
17.766063
 21
24.188911
 31
0.0
  0
SPLINE
  5
29d
100
AcDbEntity
  8
Layer_1
 62
3
100
AcDbSpline
 70
8
 71
3
 72
8
 73
4
 74
0
 40
0
 40
0
 40
0
 40
0
 40
1
 40
1
 40
1
 40
1
 10
17.852420
 20
24.424232
 30
0.0
 10
17.911958
 20
24.442114
 30
0.0
 10
17.956508
 20
24.478527
 30
0.0
 10
17.986070
 20
24.533470
 30
0.0
  0
SPLINE
  5
29e
100
AcDbEntity
  8
Layer_1
 62
3
100
AcDbSpline
 70
8
 71
3
 72
8
 73
4
 74
0
 40
0
 40
0
 40
0
 40
0
 40
1
 40
1
 40
1
 40
1
 10
17.986070
 20
24.533470
 30
0.0
 10
18.015632
 20
24.588414
 30
0.0
 10
18.021472
 20
24.645654
 30
0.0
 10
18.003590
 20
24.705192
 30
0.0
  0
SPLINE
  5
29f
100
AcDbEntity
  8
Layer_1
 62
3
100
AcDbSpline
 70
8
 71
3
 72
8
 73
4
 74
0
 40
0
 40
0
 40
0
 40
0
 40
1
 40
1
 40
1
 40
1
 10
18.003590
 20
24.705192
 30
0.0
 10
17.985707
 20
24.764730
 30
0.0
 10
17.949294
 20
24.809280
 30
0.0
 10
17.894351
 20
24.838842
 30
0.0
  0
SPLINE
  5
2a0
100
AcDbEntity
  8
Layer_1
 62
3
100
AcDbSpline
 70
8
 71
3
 72
8
 73
4
 74
0
 40
0
 40
0
 40
0
 40
0
 40
1
 40
1
 40
1
 40
1
 10
17.894351
 20
24.838842
 30
0.0
 10
17.839407
 20
24.868403
 30
0.0
 10
17.782167
 20
24.874243
 30
0.0
 10
17.722629
 20
24.856361
 30
0.0
  0
LINE
  5
2a1
100
AcDbEntity
  8
Layer_1
 62
3
100
AcDbLine
 10
17.722629
 20
24.856361
 30
0.0
 11
17.578586
 21
24.813097
 31
0.0
  0
SPLINE
  5
2a2
100
AcDbEntity
  8
Layer_1
 62
3
100
AcDbSpline
 70
8
 71
3
 72
8
 73
4
 74
0
 40
0
 40
0
 40
0
 40
0
 40
1
 40
1
 40
1
 40
1
 10
17.578586
 20
24.813097
 30
0.0
 10
17.519048
 20
24.795215
 30
0.0
 10
17.474499
 20
24.758802
 30
0.0
 10
17.444937
 20
24.703858
 30
0.0
  0
SPLINE
  5
2a3
100
AcDbEntity
  8
Layer_1
 62
3
100
AcDbSpline
 70
8
 71
3
 72
8
 73
4
 74
0
 40
0
 40
0
 40
0
 40
0
 40
1
 40
1
 40
1
 40
1
 10
17.444937
 20
24.703858
 30
0.0
 10
17.415375
 20
24.648915
 30
0.0
 10
17.409535
 20
24.591675
 30
0.0
 10
17.427417
 20
24.532137
 30
0.0
  0
SPLINE
  5
2a4
100
AcDbEntity
  8
Layer_1
 62
3
100
AcDbSpline
 70
8
 71
3
 72
8
 73
4
 74
0
 40
0
 40
0
 40
0
 40
0
 40
1
 40
1
 40
1
 40
1
 10
17.427417
 20
24.532137
 30
0.0
 10
17.445299
 20
24.472599
 30
0.0
 10
17.481712
 20
24.428049
 30
0.0
 10
17.536656
 20
24.398487
 30
0.0
  0
SPLINE
  5
2a5
100
AcDbEntity
  8
Layer_1
 62
3
100
AcDbSpline
 70
8
 71
3
 72
8
 73
4
 74
0
 40
0
 40
0
 40
0
 40
0
 40
1
 40
1
 40
1
 40
1
 10
17.536656
 20
24.398487
 30
0.0
 10
17.591599
 20
24.368925
 30
0.0
 10
17.648840
 20
24.363085
 30
0.0
 10
17.708378
 20
24.380968
 30
0.0
  0
LINE
  5
2a6
100
AcDbEntity
  8
Layer_1
 62
3
100
AcDbLine
 10
17.708378
 20
24.380968
 30
0.0
 11
17.852420
 21
24.424232
 31
0.0
  0
SPLINE
  5
2a7
100
AcDbEntity
  8
Layer_1
 62
7
100
AcDbSpline
 70
8
 71
3
 72
8
 73
4
 74
0
 40
0
 40
0
 40
0
 40
0
 40
1
 40
1
 40
1
 40
1
 10
17.870524
 20
27.218606
 30
0.0
 10
17.870524
 20
26.933427
 30
0.0
 10
17.757237
 20
26.659929
 30
0.0
 10
17.555586
 20
26.458277
 30
0.0
  0
SPLINE
  5
2a8
100
AcDbEntity
  8
Layer_1
 62
7
100
AcDbSpline
 70
8
 71
3
 72
8
 73
4
 74
0
 40
0
 40
0
 40
0
 40
0
 40
1
 40
1
 40
1
 40
1
 10
17.555586
 20
26.458277
 30
0.0
 10
17.353934
 20
26.256625
 30
0.0
 10
17.080435
 20
26.143339
 30
0.0
 10
16.795257
 20
26.143339
 30
0.0
  0
SPLINE
  5
2a9
100
AcDbEntity
  8
Layer_1
 62
7
100
AcDbSpline
 70
8
 71
3
 72
8
 73
4
 74
0
 40
0
 40
0
 40
0
 40
0
 40
1
 40
1
 40
1
 40
1
 10
16.795257
 20
26.143339
 30
0.0
 10
16.510078
 20
26.143339
 30
0.0
 10
16.236580
 20
26.256626
 30
0.0
 10
16.034928
 20
26.458277
 30
0.0
  0
SPLINE
  5
2aa
100
AcDbEntity
  8
Layer_1
 62
7
100
AcDbSpline
 70
8
 71
3
 72
8
 73
4
 74
0
 40
0
 40
0
 40
0
 40
0
 40
1
 40
1
 40
1
 40
1
 10
16.034928
 20
26.458277
 30
0.0
 10
15.833276
 20
26.659929
 30
0.0
 10
15.719990
 20
26.933428
 30
0.0
 10
15.719990
 20
27.218606
 30
0.0
  0
SPLINE
  5
2ab
100
AcDbEntity
  8
Layer_1
 62
7
100
AcDbSpline
 70
8
 71
3
 72
8
 73
4
 74
0
 40
0
 40
0
 40
0
 40
0
 40
1
 40
1
 40
1
 40
1
 10
15.719990
 20
27.218606
 30
0.0
 10
15.719990
 20
27.812459
 30
0.0
 10
16.201403
 20
28.293873
 30
0.0
 10
16.795257
 20
28.293873
 30
0.0
  0
SPLINE
  5
2ac
100
AcDbEntity
  8
Layer_1
 62
7
100
AcDbSpline
 70
8
 71
3
 72
8
 73
4
 74
0
 40
0
 40
0
 40
0
 40
0
 40
1
 40
1
 40
1
 40
1
 10
16.795257
 20
28.293873
 30
0.0
 10
17.080435
 20
28.293873
 30
0.0
 10
17.353934
 20
28.180586
 30
0.0
 10
17.555585
 20
27.978935
 30
0.0
  0
SPLINE
  5
2ad
100
AcDbEntity
  8
Layer_1
 62
7
100
AcDbSpline
 70
8
 71
3
 72
8
 73
4
 74
0
 40
0
 40
0
 40
0
 40
0
 40
1
 40
1
 40
1
 40
1
 10
17.555585
 20
27.978935
 30
0.0
 10
17.757237
 20
27.777283
 30
0.0
 10
17.870524
 20
27.503785
 30
0.0
 10
17.870524
 20
27.218606
 30
0.0
  0
LINE
  5
2ae
100
AcDbEntity
  8
Layer_1
 62
7
100
AcDbLine
 10
17.870524
 20
27.218606
 30
0.0
 11
17.870524
 21
27.218606
 31
0.0
  0
SPLINE
  5
2af
100
AcDbEntity
  8
Layer_1
 62
7
100
AcDbSpline
 70
8
 71
3
 72
8
 73
4
 74
0
 40
0
 40
0
 40
0
 40
0
 40
1
 40
1
 40
1
 40
1
 10
24.603991
 20
27.218606
 30
0.0
 10
24.603991
 20
26.933427
 30
0.0
 10
24.490704
 20
26.659929
 30
0.0
 10
24.289052
 20
26.458277
 30
0.0
  0
SPLINE
  5
2b0
100
AcDbEntity
  8
Layer_1
 62
7
100
AcDbSpline
 70
8
 71
3
 72
8
 73
4
 74
0
 40
0
 40
0
 40
0
 40
0
 40
1
 40
1
 40
1
 40
1
 10
24.289052
 20
26.458277
 30
0.0
 10
24.087401
 20
26.256625
 30
0.0
 10
23.813902
 20
26.143339
 30
0.0
 10
23.528723
 20
26.143339
 30
0.0
  0
SPLINE
  5
2b1
100
AcDbEntity
  8
Layer_1
 62
7
100
AcDbSpline
 70
8
 71
3
 72
8
 73
4
 74
0
 40
0
 40
0
 40
0
 40
0
 40
1
 40
1
 40
1
 40
1
 10
23.528723
 20
26.143339
 30
0.0
 10
23.243545
 20
26.143339
 30
0.0
 10
22.970046
 20
26.256626
 30
0.0
 10
22.768395
 20
26.458277
 30
0.0
  0
SPLINE
  5
2b2
100
AcDbEntity
  8
Layer_1
 62
7
100
AcDbSpline
 70
8
 71
3
 72
8
 73
4
 74
0
 40
0
 40
0
 40
0
 40
0
 40
1
 40
1
 40
1
 40
1
 10
22.768395
 20
26.458277
 30
0.0
 10
22.566743
 20
26.659929
 30
0.0
 10
22.453457
 20
26.933428
 30
0.0
 10
22.453457
 20
27.218606
 30
0.0
  0
SPLINE
  5
2b3
100
AcDbEntity
  8
Layer_1
 62
7
100
AcDbSpline
 70
8
 71
3
 72
8
 73
4
 74
0
 40
0
 40
0
 40
0
 40
0
 40
1
 40
1
 40
1
 40
1
 10
22.453457
 20
27.218606
 30
0.0
 10
22.453457
 20
27.812459
 30
0.0
 10
22.934870
 20
28.293873
 30
0.0
 10
23.528723
 20
28.293873
 30
0.0
  0
SPLINE
  5
2b4
100
AcDbEntity
  8
Layer_1
 62
7
100
AcDbSpline
 70
8
 71
3
 72
8
 73
4
 74
0
 40
0
 40
0
 40
0
 40
0
 40
1
 40
1
 40
1
 40
1
 10
23.528723
 20
28.293873
 30
0.0
 10
23.813902
 20
28.293873
 30
0.0
 10
24.087400
 20
28.180586
 30
0.0
 10
24.289052
 20
27.978935
 30
0.0
  0
SPLINE
  5
2b5
100
AcDbEntity
  8
Layer_1
 62
7
100
AcDbSpline
 70
8
 71
3
 72
8
 73
4
 74
0
 40
0
 40
0
 40
0
 40
0
 40
1
 40
1
 40
1
 40
1
 10
24.289052
 20
27.978935
 30
0.0
 10
24.490704
 20
27.777283
 30
0.0
 10
24.603991
 20
27.503785
 30
0.0
 10
24.603991
 20
27.218606
 30
0.0
  0
LINE
  5
2b6
100
AcDbEntity
  8
Layer_1
 62
7
100
AcDbLine
 10
24.603991
 20
27.218606
 30
0.0
 11
24.603991
 21
27.218606
 31
0.0
  0
SPLINE
  5
2b7
100
AcDbEntity
  8
Layer_1
 62
7
100
AcDbSpline
 70
8
 71
3
 72
8
 73
4
 74
0
 40
0
 40
0
 40
0
 40
0
 40
1
 40
1
 40
1
 40
1
 10
30.052305
 20
23.232157
 30
0.0
 10
30.052305
 20
22.946979
 30
0.0
 10
29.939019
 20
22.673480
 30
0.0
 10
29.737367
 20
22.471828
 30
0.0
  0
SPLINE
  5
2b8
100
AcDbEntity
  8
Layer_1
 62
7
100
AcDbSpline
 70
8
 71
3
 72
8
 73
4
 74
0
 40
0
 40
0
 40
0
 40
0
 40
1
 40
1
 40
1
 40
1
 10
29.737367
 20
22.471828
 30
0.0
 10
29.535715
 20
22.270177
 30
0.0
 10
29.262217
 20
22.156890
 30
0.0
 10
28.977039
 20
22.156890
 30
0.0
  0
SPLINE
  5
2b9
100
AcDbEntity
  8
Layer_1
 62
7
100
AcDbSpline
 70
8
 71
3
 72
8
 73
4
 74
0
 40
0
 40
0
 40
0
 40
0
 40
1
 40
1
 40
1
 40
1
 10
28.977039
 20
22.156890
 30
0.0
 10
28.691860
 20
22.156890
 30
0.0
 10
28.418361
 20
22.270176
 30
0.0
 10
28.216710
 20
22.471828
 30
0.0
  0
SPLINE
  5
2ba
100
AcDbEntity
  8
Layer_1
 62
7
100
AcDbSpline
 70
8
 71
3
 72
8
 73
4
 74
0
 40
0
 40
0
 40
0
 40
0
 40
1
 40
1
 40
1
 40
1
 10
28.216710
 20
22.471828
 30
0.0
 10
28.015058
 20
22.673480
 30
0.0
 10
27.901771
 20
22.946979
 30
0.0
 10
27.901771
 20
23.232157
 30
0.0
  0
SPLINE
  5
2bb
100
AcDbEntity
  8
Layer_1
 62
7
100
AcDbSpline
 70
8
 71
3
 72
8
 73
4
 74
0
 40
0
 40
0
 40
0
 40
0
 40
1
 40
1
 40
1
 40
1
 10
27.901771
 20
23.232157
 30
0.0
 10
27.901771
 20
23.517336
 30
0.0
 10
28.015058
 20
23.790834
 30
0.0
 10
28.216710
 20
23.992486
 30
0.0
  0
SPLINE
  5
2bc
100
AcDbEntity
  8
Layer_1
 62
7
100
AcDbSpline
 70
8
 71
3
 72
8
 73
4
 74
0
 40
0
 40
0
 40
0
 40
0
 40
1
 40
1
 40
1
 40
1
 10
28.216710
 20
23.992486
 30
0.0
 10
28.418362
 20
24.194137
 30
0.0
 10
28.691860
 20
24.307424
 30
0.0
 10
28.977039
 20
24.307424
 30
0.0
  0
SPLINE
  5
2bd
100
AcDbEntity
  8
Layer_1
 62
7
100
AcDbSpline
 70
8
 71
3
 72
8
 73
4
 74
0
 40
0
 40
0
 40
0
 40
0
 40
1
 40
1
 40
1
 40
1
 10
28.977039
 20
24.307424
 30
0.0
 10
29.570892
 20
24.307424
 30
0.0
 10
30.052305
 20
23.826011
 30
0.0
 10
30.052305
 20
23.232157
 30
0.0
  0
LINE
  5
2be
100
AcDbEntity
  8
Layer_1
 62
7
100
AcDbLine
 10
30.052305
 20
23.232157
 30
0.0
 11
30.052305
 21
23.232157
 31
0.0
  0
SPLINE
  5
2bf
100
AcDbEntity
  8
Layer_1
 62
7
100
AcDbSpline
 70
8
 71
3
 72
8
 73
4
 74
0
 40
0
 40
0
 40
0
 40
0
 40
1
 40
1
 40
1
 40
1
 10
32.129698
 20
16.801043
 30
0.0
 10
32.129698
 20
16.515864
 30
0.0
 10
32.016412
 20
16.242366
 30
0.0
 10
31.814760
 20
16.040714
 30
0.0
  0
SPLINE
  5
2c0
100
AcDbEntity
  8
Layer_1
 62
7
100
AcDbSpline
 70
8
 71
3
 72
8
 73
4
 74
0
 40
0
 40
0
 40
0
 40
0
 40
1
 40
1
 40
1
 40
1
 10
31.814760
 20
16.040714
 30
0.0
 10
31.613108
 20
15.839062
 30
0.0
 10
31.339610
 20
15.725775
 30
0.0
 10
31.054431
 20
15.725775
 30
0.0
  0
SPLINE
  5
2c1
100
AcDbEntity
  8
Layer_1
 62
7
100
AcDbSpline
 70
8
 71
3
 72
8
 73
4
 74
0
 40
0
 40
0
 40
0
 40
0
 40
1
 40
1
 40
1
 40
1
 10
31.054431
 20
15.725775
 30
0.0
 10
30.769253
 20
15.725775
 30
0.0
 10
30.495754
 20
15.839062
 30
0.0
 10
30.294103
 20
16.040714
 30
0.0
  0
SPLINE
  5
2c2
100
AcDbEntity
  8
Layer_1
 62
7
100
AcDbSpline
 70
8
 71
3
 72
8
 73
4
 74
0
 40
0
 40
0
 40
0
 40
0
 40
1
 40
1
 40
1
 40
1
 10
30.294103
 20
16.040714
 30
0.0
 10
30.092451
 20
16.242366
 30
0.0
 10
29.979165
 20
16.515864
 30
0.0
 10
29.979165
 20
16.801043
 30
0.0
  0
SPLINE
  5
2c3
100
AcDbEntity
  8
Layer_1
 62
7
100
AcDbSpline
 70
8
 71
3
 72
8
 73
4
 74
0
 40
0
 40
0
 40
0
 40
0
 40
1
 40
1
 40
1
 40
1
 10
29.979165
 20
16.801043
 30
0.0
 10
29.979165
 20
17.086221
 30
0.0
 10
30.092451
 20
17.359720
 30
0.0
 10
30.294103
 20
17.561371
 30
0.0
  0
SPLINE
  5
2c4
100
AcDbEntity
  8
Layer_1
 62
7
100
AcDbSpline
 70
8
 71
3
 72
8
 73
4
 74
0
 40
0
 40
0
 40
0
 40
0
 40
1
 40
1
 40
1
 40
1
 10
30.294103
 20
17.561371
 30
0.0
 10
30.495755
 20
17.763023
 30
0.0
 10
30.769253
 20
17.876309
 30
0.0
 10
31.054431
 20
17.876309
 30
0.0
  0
SPLINE
  5
2c5
100
AcDbEntity
  8
Layer_1
 62
7
100
AcDbSpline
 70
8
 71
3
 72
8
 73
4
 74
0
 40
0
 40
0
 40
0
 40
0
 40
1
 40
1
 40
1
 40
1
 10
31.054431
 20
17.876309
 30
0.0
 10
31.339610
 20
17.876309
 30
0.0
 10
31.613108
 20
17.763023
 30
0.0
 10
31.814760
 20
17.561371
 30
0.0
  0
SPLINE
  5
2c6
100
AcDbEntity
  8
Layer_1
 62
7
100
AcDbSpline
 70
8
 71
3
 72
8
 73
4
 74
0
 40
0
 40
0
 40
0
 40
0
 40
1
 40
1
 40
1
 40
1
 10
31.814760
 20
17.561371
 30
0.0
 10
32.016411
 20
17.359720
 30
0.0
 10
32.129698
 20
17.086221
 30
0.0
 10
32.129698
 20
16.801043
 30
0.0
  0
LINE
  5
2c7
100
AcDbEntity
  8
Layer_1
 62
7
100
AcDbLine
 10
32.129698
 20
16.801043
 30
0.0
 11
32.129698
 21
16.801043
 31
0.0
  0
SPLINE
  5
2c8
100
AcDbEntity
  8
Layer_1
 62
7
100
AcDbSpline
 70
8
 71
3
 72
8
 73
4
 74
0
 40
0
 40
0
 40
0
 40
0
 40
1
 40
1
 40
1
 40
1
 10
30.052305
 20
10.360020
 30
0.0
 10
30.052305
 20
10.074841
 30
0.0
 10
29.939019
 20
9.801343
 30
0.0
 10
29.737367
 20
9.599691
 30
0.0
  0
SPLINE
  5
2c9
100
AcDbEntity
  8
Layer_1
 62
7
100
AcDbSpline
 70
8
 71
3
 72
8
 73
4
 74
0
 40
0
 40
0
 40
0
 40
0
 40
1
 40
1
 40
1
 40
1
 10
29.737367
 20
9.599691
 30
0.0
 10
29.535715
 20
9.398039
 30
0.0
 10
29.262217
 20
9.284752
 30
0.0
 10
28.977039
 20
9.284752
 30
0.0
  0
SPLINE
  5
2ca
100
AcDbEntity
  8
Layer_1
 62
7
100
AcDbSpline
 70
8
 71
3
 72
8
 73
4
 74
0
 40
0
 40
0
 40
0
 40
0
 40
1
 40
1
 40
1
 40
1
 10
28.977039
 20
9.284752
 30
0.0
 10
28.691860
 20
9.284752
 30
0.0
 10
28.418361
 20
9.398039
 30
0.0
 10
28.216710
 20
9.599691
 30
0.0
  0
SPLINE
  5
2cb
100
AcDbEntity
  8
Layer_1
 62
7
100
AcDbSpline
 70
8
 71
3
 72
8
 73
4
 74
0
 40
0
 40
0
 40
0
 40
0
 40
1
 40
1
 40
1
 40
1
 10
28.216710
 20
9.599691
 30
0.0
 10
28.015058
 20
9.801342
 30
0.0
 10
27.901771
 20
10.074841
 30
0.0
 10
27.901771
 20
10.360020
 30
0.0
  0
SPLINE
  5
2cc
100
AcDbEntity
  8
Layer_1
 62
7
100
AcDbSpline
 70
8
 71
3
 72
8
 73
4
 74
0
 40
0
 40
0
 40
0
 40
0
 40
1
 40
1
 40
1
 40
1
 10
27.901771
 20
10.360020
 30
0.0
 10
27.901771
 20
10.645198
 30
0.0
 10
28.015058
 20
10.918697
 30
0.0
 10
28.216710
 20
11.120348
 30
0.0
  0
SPLINE
  5
2cd
100
AcDbEntity
  8
Layer_1
 62
7
100
AcDbSpline
 70
8
 71
3
 72
8
 73
4
 74
0
 40
0
 40
0
 40
0
 40
0
 40
1
 40
1
 40
1
 40
1
 10
28.216710
 20
11.120348
 30
0.0
 10
28.418362
 20
11.322000
 30
0.0
 10
28.691860
 20
11.435287
 30
0.0
 10
28.977039
 20
11.435286
 30
0.0
  0
SPLINE
  5
2ce
100
AcDbEntity
  8
Layer_1
 62
7
100
AcDbSpline
 70
8
 71
3
 72
8
 73
4
 74
0
 40
0
 40
0
 40
0
 40
0
 40
1
 40
1
 40
1
 40
1
 10
28.977039
 20
11.435286
 30
0.0
 10
29.570892
 20
11.435286
 30
0.0
 10
30.052305
 20
10.953873
 30
0.0
 10
30.052305
 20
10.360020
 30
0.0
  0
LINE
  5
2cf
100
AcDbEntity
  8
Layer_1
 62
7
100
AcDbLine
 10
30.052305
 20
10.360020
 30
0.0
 11
30.052305
 21
10.360020
 31
0.0
  0
SPLINE
  5
2d0
100
AcDbEntity
  8
Layer_1
 62
7
100
AcDbSpline
 70
8
 71
3
 72
8
 73
4
 74
0
 40
0
 40
0
 40
0
 40
0
 40
1
 40
1
 40
1
 40
1
 10
24.603991
 20
6.391080
 30
0.0
 10
24.603991
 20
6.105902
 30
0.0
 10
24.490704
 20
5.832403
 30
0.0
 10
24.289052
 20
5.630751
 30
0.0
  0
SPLINE
  5
2d1
100
AcDbEntity
  8
Layer_1
 62
7
100
AcDbSpline
 70
8
 71
3
 72
8
 73
4
 74
0
 40
0
 40
0
 40
0
 40
0
 40
1
 40
1
 40
1
 40
1
 10
24.289052
 20
5.630751
 30
0.0
 10
24.087401
 20
5.429099
 30
0.0
 10
23.813902
 20
5.315813
 30
0.0
 10
23.528723
 20
5.315813
 30
0.0
  0
SPLINE
  5
2d2
100
AcDbEntity
  8
Layer_1
 62
7
100
AcDbSpline
 70
8
 71
3
 72
8
 73
4
 74
0
 40
0
 40
0
 40
0
 40
0
 40
1
 40
1
 40
1
 40
1
 10
23.528723
 20
5.315813
 30
0.0
 10
23.243545
 20
5.315813
 30
0.0
 10
22.970046
 20
5.429100
 30
0.0
 10
22.768395
 20
5.630752
 30
0.0
  0
SPLINE
  5
2d3
100
AcDbEntity
  8
Layer_1
 62
7
100
AcDbSpline
 70
8
 71
3
 72
8
 73
4
 74
0
 40
0
 40
0
 40
0
 40
0
 40
1
 40
1
 40
1
 40
1
 10
22.768395
 20
5.630752
 30
0.0
 10
22.566743
 20
5.832403
 30
0.0
 10
22.453457
 20
6.105902
 30
0.0
 10
22.453457
 20
6.391080
 30
0.0
  0
SPLINE
  5
2d4
100
AcDbEntity
  8
Layer_1
 62
7
100
AcDbSpline
 70
8
 71
3
 72
8
 73
4
 74
0
 40
0
 40
0
 40
0
 40
0
 40
1
 40
1
 40
1
 40
1
 10
22.453457
 20
6.391080
 30
0.0
 10
22.453457
 20
6.984934
 30
0.0
 10
22.934870
 20
7.466347
 30
0.0
 10
23.528723
 20
7.466347
 30
0.0
  0
SPLINE
  5
2d5
100
AcDbEntity
  8
Layer_1
 62
7
100
AcDbSpline
 70
8
 71
3
 72
8
 73
4
 74
0
 40
0
 40
0
 40
0
 40
0
 40
1
 40
1
 40
1
 40
1
 10
23.528723
 20
7.466347
 30
0.0
 10
23.813902
 20
7.466347
 30
0.0
 10
24.087400
 20
7.353060
 30
0.0
 10
24.289052
 20
7.151409
 30
0.0
  0
SPLINE
  5
2d6
100
AcDbEntity
  8
Layer_1
 62
7
100
AcDbSpline
 70
8
 71
3
 72
8
 73
4
 74
0
 40
0
 40
0
 40
0
 40
0
 40
1
 40
1
 40
1
 40
1
 10
24.289052
 20
7.151409
 30
0.0
 10
24.490704
 20
6.949757
 30
0.0
 10
24.603991
 20
6.676259
 30
0.0
 10
24.603991
 20
6.391080
 30
0.0
  0
LINE
  5
2d7
100
AcDbEntity
  8
Layer_1
 62
7
100
AcDbLine
 10
24.603991
 20
6.391080
 30
0.0
 11
24.603991
 21
6.391080
 31
0.0
  0
SPLINE
  5
2d8
100
AcDbEntity
  8
Layer_1
 62
7
100
AcDbSpline
 70
8
 71
3
 72
8
 73
4
 74
0
 40
0
 40
0
 40
0
 40
0
 40
1
 40
1
 40
1
 40
1
 10
17.868693
 20
6.391080
 30
0.0
 10
17.868693
 20
6.105902
 30
0.0
 10
17.755406
 20
5.832403
 30
0.0
 10
17.553754
 20
5.630751
 30
0.0
  0
SPLINE
  5
2d9
100
AcDbEntity
  8
Layer_1
 62
7
100
AcDbSpline
 70
8
 71
3
 72
8
 73
4
 74
0
 40
0
 40
0
 40
0
 40
0
 40
1
 40
1
 40
1
 40
1
 10
17.553754
 20
5.630751
 30
0.0
 10
17.352103
 20
5.429100
 30
0.0
 10
17.078604
 20
5.315813
 30
0.0
 10
16.793426
 20
5.315813
 30
0.0
  0
SPLINE
  5
2da
100
AcDbEntity
  8
Layer_1
 62
7
100
AcDbSpline
 70
8
 71
3
 72
8
 73
4
 74
0
 40
0
 40
0
 40
0
 40
0
 40
1
 40
1
 40
1
 40
1
 10
16.793426
 20
5.315813
 30
0.0
 10
16.508247
 20
5.315813
 30
0.0
 10
16.234749
 20
5.429100
 30
0.0
 10
16.033097
 20
5.630751
 30
0.0
  0
SPLINE
  5
2db
100
AcDbEntity
  8
Layer_1
 62
7
100
AcDbSpline
 70
8
 71
3
 72
8
 73
4
 74
0
 40
0
 40
0
 40
0
 40
0
 40
1
 40
1
 40
1
 40
1
 10
16.033097
 20
5.630751
 30
0.0
 10
15.831446
 20
5.832403
 30
0.0
 10
15.718159
 20
6.105902
 30
0.0
 10
15.718159
 20
6.391080
 30
0.0
  0
SPLINE
  5
2dc
100
AcDbEntity
  8
Layer_1
 62
7
100
AcDbSpline
 70
8
 71
3
 72
8
 73
4
 74
0
 40
0
 40
0
 40
0
 40
0
 40
1
 40
1
 40
1
 40
1
 10
15.718159
 20
6.391080
 30
0.0
 10
15.718159
 20
6.676259
 30
0.0
 10
15.831446
 20
6.949757
 30
0.0
 10
16.033098
 20
7.151409
 30
0.0
  0
SPLINE
  5
2dd
100
AcDbEntity
  8
Layer_1
 62
7
100
AcDbSpline
 70
8
 71
3
 72
8
 73
4
 74
0
 40
0
 40
0
 40
0
 40
0
 40
1
 40
1
 40
1
 40
1
 10
16.033098
 20
7.151409
 30
0.0
 10
16.234749
 20
7.353060
 30
0.0
 10
16.508248
 20
7.466347
 30
0.0
 10
16.793426
 20
7.466347
 30
0.0
  0
SPLINE
  5
2de
100
AcDbEntity
  8
Layer_1
 62
7
100
AcDbSpline
 70
8
 71
3
 72
8
 73
4
 74
0
 40
0
 40
0
 40
0
 40
0
 40
1
 40
1
 40
1
 40
1
 10
16.793426
 20
7.466347
 30
0.0
 10
17.078604
 20
7.466347
 30
0.0
 10
17.352103
 20
7.353060
 30
0.0
 10
17.553754
 20
7.151409
 30
0.0
  0
SPLINE
  5
2df
100
AcDbEntity
  8
Layer_1
 62
7
100
AcDbSpline
 70
8
 71
3
 72
8
 73
4
 74
0
 40
0
 40
0
 40
0
 40
0
 40
1
 40
1
 40
1
 40
1
 10
17.553754
 20
7.151409
 30
0.0
 10
17.755406
 20
6.949757
 30
0.0
 10
17.868693
 20
6.676259
 30
0.0
 10
17.868693
 20
6.391080
 30
0.0
  0
LINE
  5
2e0
100
AcDbEntity
  8
Layer_1
 62
7
100
AcDbLine
 10
17.868693
 20
6.391080
 30
0.0
 11
17.868693
 21
6.391080
 31
0.0
  0
SPLINE
  5
2e1
100
AcDbEntity
  8
Layer_1
 62
7
100
AcDbSpline
 70
8
 71
3
 72
8
 73
4
 74
0
 40
0
 40
0
 40
0
 40
0
 40
1
 40
1
 40
1
 40
1
 10
12.416527
 20
10.360020
 30
0.0
 10
12.416527
 20
10.074841
 30
0.0
 10
12.303241
 20
9.801343
 30
0.0
 10
12.101589
 20
9.599691
 30
0.0
  0
SPLINE
  5
2e2
100
AcDbEntity
  8
Layer_1
 62
7
100
AcDbSpline
 70
8
 71
3
 72
8
 73
4
 74
0
 40
0
 40
0
 40
0
 40
0
 40
1
 40
1
 40
1
 40
1
 10
12.101589
 20
9.599691
 30
0.0
 10
11.899937
 20
9.398039
 30
0.0
 10
11.626439
 20
9.284752
 30
0.0
 10
11.341260
 20
9.284752
 30
0.0
  0
SPLINE
  5
2e3
100
AcDbEntity
  8
Layer_1
 62
7
100
AcDbSpline
 70
8
 71
3
 72
8
 73
4
 74
0
 40
0
 40
0
 40
0
 40
0
 40
1
 40
1
 40
1
 40
1
 10
11.341260
 20
9.284752
 30
0.0
 10
11.056082
 20
9.284752
 30
0.0
 10
10.782583
 20
9.398039
 30
0.0
 10
10.580931
 20
9.599691
 30
0.0
  0
SPLINE
  5
2e4
100
AcDbEntity
  8
Layer_1
 62
7
100
AcDbSpline
 70
8
 71
3
 72
8
 73
4
 74
0
 40
0
 40
0
 40
0
 40
0
 40
1
 40
1
 40
1
 40
1
 10
10.580931
 20
9.599691
 30
0.0
 10
10.379280
 20
9.801342
 30
0.0
 10
10.265993
 20
10.074841
 30
0.0
 10
10.265993
 20
10.360020
 30
0.0
  0
SPLINE
  5
2e5
100
AcDbEntity
  8
Layer_1
 62
7
100
AcDbSpline
 70
8
 71
3
 72
8
 73
4
 74
0
 40
0
 40
0
 40
0
 40
0
 40
1
 40
1
 40
1
 40
1
 10
10.265993
 20
10.360020
 30
0.0
 10
10.265993
 20
10.645198
 30
0.0
 10
10.379280
 20
10.918697
 30
0.0
 10
10.580932
 20
11.120348
 30
0.0
  0
SPLINE
  5
2e6
100
AcDbEntity
  8
Layer_1
 62
7
100
AcDbSpline
 70
8
 71
3
 72
8
 73
4
 74
0
 40
0
 40
0
 40
0
 40
0
 40
1
 40
1
 40
1
 40
1
 10
10.580932
 20
11.120348
 30
0.0
 10
10.782583
 20
11.322000
 30
0.0
 10
11.056082
 20
11.435287
 30
0.0
 10
11.341260
 20
11.435286
 30
0.0
  0
SPLINE
  5
2e7
100
AcDbEntity
  8
Layer_1
 62
7
100
AcDbSpline
 70
8
 71
3
 72
8
 73
4
 74
0
 40
0
 40
0
 40
0
 40
0
 40
1
 40
1
 40
1
 40
1
 10
11.341260
 20
11.435286
 30
0.0
 10
11.935114
 20
11.435286
 30
0.0
 10
12.416527
 20
10.953873
 30
0.0
 10
12.416527
 20
10.360020
 30
0.0
  0
LINE
  5
2e8
100
AcDbEntity
  8
Layer_1
 62
7
100
AcDbLine
 10
12.416527
 20
10.360020
 30
0.0
 11
12.416527
 21
10.360020
 31
0.0
  0
SPLINE
  5
2e9
100
AcDbEntity
  8
Layer_1
 62
7
100
AcDbSpline
 70
8
 71
3
 72
8
 73
4
 74
0
 40
0
 40
0
 40
0
 40
0
 40
1
 40
1
 40
1
 40
1
 10
10.342749
 20
16.801043
 30
0.0
 10
10.342749
 20
16.515864
 30
0.0
 10
10.229462
 20
16.242366
 30
0.0
 10
10.027811
 20
16.040714
 30
0.0
  0
SPLINE
  5
2ea
100
AcDbEntity
  8
Layer_1
 62
7
100
AcDbSpline
 70
8
 71
3
 72
8
 73
4
 74
0
 40
0
 40
0
 40
0
 40
0
 40
1
 40
1
 40
1
 40
1
 10
10.027811
 20
16.040714
 30
0.0
 10
9.826159
 20
15.839062
 30
0.0
 10
9.552661
 20
15.725775
 30
0.0
 10
9.267482
 20
15.725775
 30
0.0
  0
SPLINE
  5
2eb
100
AcDbEntity
  8
Layer_1
 62
7
100
AcDbSpline
 70
8
 71
3
 72
8
 73
4
 74
0
 40
0
 40
0
 40
0
 40
0
 40
1
 40
1
 40
1
 40
1
 10
9.267482
 20
15.725775
 30
0.0
 10
8.982303
 20
15.725775
 30
0.0
 10
8.708805
 20
15.839062
 30
0.0
 10
8.507154
 20
16.040714
 30
0.0
  0
SPLINE
  5
2ec
100
AcDbEntity
  8
Layer_1
 62
7
100
AcDbSpline
 70
8
 71
3
 72
8
 73
4
 74
0
 40
0
 40
0
 40
0
 40
0
 40
1
 40
1
 40
1
 40
1
 10
8.507154
 20
16.040714
 30
0.0
 10
8.305502
 20
16.242366
 30
0.0
 10
8.192215
 20
16.515864
 30
0.0
 10
8.192215
 20
16.801043
 30
0.0
  0
SPLINE
  5
2ed
100
AcDbEntity
  8
Layer_1
 62
7
100
AcDbSpline
 70
8
 71
3
 72
8
 73
4
 74
0
 40
0
 40
0
 40
0
 40
0
 40
1
 40
1
 40
1
 40
1
 10
8.192215
 20
16.801043
 30
0.0
 10
8.192216
 20
17.394896
 30
0.0
 10
8.673629
 20
17.876309
 30
0.0
 10
9.267482
 20
17.876309
 30
0.0
  0
SPLINE
  5
2ee
100
AcDbEntity
  8
Layer_1
 62
7
100
AcDbSpline
 70
8
 71
3
 72
8
 73
4
 74
0
 40
0
 40
0
 40
0
 40
0
 40
1
 40
1
 40
1
 40
1
 10
9.267482
 20
17.876309
 30
0.0
 10
9.552660
 20
17.876309
 30
0.0
 10
9.826159
 20
17.763023
 30
0.0
 10
10.027810
 20
17.561371
 30
0.0
  0
SPLINE
  5
2ef
100
AcDbEntity
  8
Layer_1
 62
7
100
AcDbSpline
 70
8
 71
3
 72
8
 73
4
 74
0
 40
0
 40
0
 40
0
 40
0
 40
1
 40
1
 40
1
 40
1
 10
10.027810
 20
17.561371
 30
0.0
 10
10.229462
 20
17.359719
 30
0.0
 10
10.342749
 20
17.086221
 30
0.0
 10
10.342749
 20
16.801043
 30
0.0
  0
LINE
  5
2f0
100
AcDbEntity
  8
Layer_1
 62
7
100
AcDbLine
 10
10.342749
 20
16.801043
 30
0.0
 11
10.342749
 21
16.801043
 31
0.0
  0
SPLINE
  5
2f1
100
AcDbEntity
  8
Layer_1
 62
7
100
AcDbSpline
 70
8
 71
3
 72
8
 73
4
 74
0
 40
0
 40
0
 40
0
 40
0
 40
1
 40
1
 40
1
 40
1
 10
12.416527
 20
23.232157
 30
0.0
 10
12.416527
 20
22.946979
 30
0.0
 10
12.303241
 20
22.673480
 30
0.0
 10
12.101589
 20
22.471828
 30
0.0
  0
SPLINE
  5
2f2
100
AcDbEntity
  8
Layer_1
 62
7
100
AcDbSpline
 70
8
 71
3
 72
8
 73
4
 74
0
 40
0
 40
0
 40
0
 40
0
 40
1
 40
1
 40
1
 40
1
 10
12.101589
 20
22.471828
 30
0.0
 10
11.899937
 20
22.270177
 30
0.0
 10
11.626439
 20
22.156890
 30
0.0
 10
11.341260
 20
22.156890
 30
0.0
  0
SPLINE
  5
2f3
100
AcDbEntity
  8
Layer_1
 62
7
100
AcDbSpline
 70
8
 71
3
 72
8
 73
4
 74
0
 40
0
 40
0
 40
0
 40
0
 40
1
 40
1
 40
1
 40
1
 10
11.341260
 20
22.156890
 30
0.0
 10
11.056082
 20
22.156890
 30
0.0
 10
10.782583
 20
22.270176
 30
0.0
 10
10.580931
 20
22.471828
 30
0.0
  0
SPLINE
  5
2f4
100
AcDbEntity
  8
Layer_1
 62
7
100
AcDbSpline
 70
8
 71
3
 72
8
 73
4
 74
0
 40
0
 40
0
 40
0
 40
0
 40
1
 40
1
 40
1
 40
1
 10
10.580931
 20
22.471828
 30
0.0
 10
10.379280
 20
22.673480
 30
0.0
 10
10.265993
 20
22.946979
 30
0.0
 10
10.265993
 20
23.232157
 30
0.0
  0
SPLINE
  5
2f5
100
AcDbEntity
  8
Layer_1
 62
7
100
AcDbSpline
 70
8
 71
3
 72
8
 73
4
 74
0
 40
0
 40
0
 40
0
 40
0
 40
1
 40
1
 40
1
 40
1
 10
10.265993
 20
23.232157
 30
0.0
 10
10.265993
 20
23.517336
 30
0.0
 10
10.379280
 20
23.790834
 30
0.0
 10
10.580932
 20
23.992486
 30
0.0
  0
SPLINE
  5
2f6
100
AcDbEntity
  8
Layer_1
 62
7
100
AcDbSpline
 70
8
 71
3
 72
8
 73
4
 74
0
 40
0
 40
0
 40
0
 40
0
 40
1
 40
1
 40
1
 40
1
 10
10.580932
 20
23.992486
 30
0.0
 10
10.782583
 20
24.194137
 30
0.0
 10
11.056082
 20
24.307424
 30
0.0
 10
11.341260
 20
24.307424
 30
0.0
  0
SPLINE
  5
2f7
100
AcDbEntity
  8
Layer_1
 62
7
100
AcDbSpline
 70
8
 71
3
 72
8
 73
4
 74
0
 40
0
 40
0
 40
0
 40
0
 40
1
 40
1
 40
1
 40
1
 10
11.341260
 20
24.307424
 30
0.0
 10
11.935114
 20
24.307424
 30
0.0
 10
12.416527
 20
23.826011
 30
0.0
 10
12.416527
 20
23.232157
 30
0.0
  0
LINE
  5
2f8
100
AcDbEntity
  8
Layer_1
 62
7
100
AcDbLine
 10
12.416527
 20
23.232157
 30
0.0
 11
12.416527
 21
23.232157
 31
0.0
  0
SPLINE
  5
2f9
100
AcDbEntity
  8
Layer_1
 62
7
100
AcDbSpline
 70
8
 71
3
 72
8
 73
4
 74
0
 40
0
 40
0
 40
0
 40
0
 40
1
 40
1
 40
1
 40
1
 10
22.271711
 20
19.585453
 30
0.0
 10
22.271711
 20
19.458193
 30
0.0
 10
22.221157
 20
19.336144
 30
0.0
 10
22.131170
 20
19.246157
 30
0.0
  0
SPLINE
  5
2fa
100
AcDbEntity
  8
Layer_1
 62
7
100
AcDbSpline
 70
8
 71
3
 72
8
 73
4
 74
0
 40
0
 40
0
 40
0
 40
0
 40
1
 40
1
 40
1
 40
1
 10
22.131170
 20
19.246157
 30
0.0
 10
22.041183
 20
19.156170
 30
0.0
 10
21.919135
 20
19.105616
 30
0.0
 10
21.791874
 20
19.105616
 30
0.0
  0
SPLINE
  5
2fb
100
AcDbEntity
  8
Layer_1
 62
7
100
AcDbSpline
 70
8
 71
3
 72
8
 73
4
 74
0
 40
0
 40
0
 40
0
 40
0
 40
1
 40
1
 40
1
 40
1
 10
21.791874
 20
19.105616
 30
0.0
 10
21.664613
 20
19.105615
 30
0.0
 10
21.542564
 20
19.156170
 30
0.0
 10
21.452577
 20
19.246157
 30
0.0
  0
SPLINE
  5
2fc
100
AcDbEntity
  8
Layer_1
 62
7
100
AcDbSpline
 70
8
 71
3
 72
8
 73
4
 74
0
 40
0
 40
0
 40
0
 40
0
 40
1
 40
1
 40
1
 40
1
 10
21.452577
 20
19.246157
 30
0.0
 10
21.362589
 20
19.336144
 30
0.0
 10
21.312035
 20
19.458192
 30
0.0
 10
21.312035
 20
19.585453
 30
0.0
  0
SPLINE
  5
2fd
100
AcDbEntity
  8
Layer_1
 62
7
100
AcDbSpline
 70
8
 71
3
 72
8
 73
4
 74
0
 40
0
 40
0
 40
0
 40
0
 40
1
 40
1
 40
1
 40
1
 10
21.312035
 20
19.585453
 30
0.0
 10
21.312035
 20
19.712714
 30
0.0
 10
21.362589
 20
19.834763
 30
0.0
 10
21.452576
 20
19.924751
 30
0.0
  0
SPLINE
  5
2fe
100
AcDbEntity
  8
Layer_1
 62
7
100
AcDbSpline
 70
8
 71
3
 72
8
 73
4
 74
0
 40
0
 40
0
 40
0
 40
0
 40
1
 40
1
 40
1
 40
1
 10
21.452576
 20
19.924751
 30
0.0
 10
21.542564
 20
20.014738
 30
0.0
 10
21.664612
 20
20.065292
 30
0.0
 10
21.791874
 20
20.065292
 30
0.0
  0
SPLINE
  5
2ff
100
AcDbEntity
  8
Layer_1
 62
7
100
AcDbSpline
 70
8
 71
3
 72
8
 73
4
 74
0
 40
0
 40
0
 40
0
 40
0
 40
1
 40
1
 40
1
 40
1
 10
21.791874
 20
20.065292
 30
0.0
 10
21.919135
 20
20.065292
 30
0.0
 10
22.041183
 20
20.014738
 30
0.0
 10
22.131171
 20
19.924750
 30
0.0
  0
SPLINE
  5
300
100
AcDbEntity
  8
Layer_1
 62
7
100
AcDbSpline
 70
8
 71
3
 72
8
 73
4
 74
0
 40
0
 40
0
 40
0
 40
0
 40
1
 40
1
 40
1
 40
1
 10
22.131171
 20
19.924750
 30
0.0
 10
22.221158
 20
19.834763
 30
0.0
 10
22.271712
 20
19.712714
 30
0.0
 10
22.271711
 20
19.585453
 30
0.0
  0
LINE
  5
301
100
AcDbEntity
  8
Layer_1
 62
7
100
AcDbLine
 10
22.271711
 20
19.585453
 30
0.0
 11
22.271711
 21
19.585453
 31
0.0
  0
SPLINE
  5
302
100
AcDbEntity
  8
Layer_1
 62
7
100
AcDbSpline
 70
8
 71
3
 72
8
 73
4
 74
0
 40
0
 40
0
 40
0
 40
0
 40
1
 40
1
 40
1
 40
1
 10
22.271711
 20
14.028349
 30
0.0
 10
22.271712
 20
13.901088
 30
0.0
 10
22.221158
 20
13.779039
 30
0.0
 10
22.131170
 20
13.689051
 30
0.0
  0
SPLINE
  5
303
100
AcDbEntity
  8
Layer_1
 62
7
100
AcDbSpline
 70
8
 71
3
 72
8
 73
4
 74
0
 40
0
 40
0
 40
0
 40
0
 40
1
 40
1
 40
1
 40
1
 10
22.131170
 20
13.689051
 30
0.0
 10
22.041183
 20
13.599064
 30
0.0
 10
21.919134
 20
13.548510
 30
0.0
 10
21.791873
 20
13.548510
 30
0.0
  0
SPLINE
  5
304
100
AcDbEntity
  8
Layer_1
 62
7
100
AcDbSpline
 70
8
 71
3
 72
8
 73
4
 74
0
 40
0
 40
0
 40
0
 40
0
 40
1
 40
1
 40
1
 40
1
 10
21.791873
 20
13.548510
 30
0.0
 10
21.664612
 20
13.548510
 30
0.0
 10
21.542563
 20
13.599064
 30
0.0
 10
21.452576
 20
13.689052
 30
0.0
  0
SPLINE
  5
305
100
AcDbEntity
  8
Layer_1
 62
7
100
AcDbSpline
 70
8
 71
3
 72
8
 73
4
 74
0
 40
0
 40
0
 40
0
 40
0
 40
1
 40
1
 40
1
 40
1
 10
21.452576
 20
13.689052
 30
0.0
 10
21.362589
 20
13.779039
 30
0.0
 10
21.312035
 20
13.901088
 30
0.0
 10
21.312035
 20
14.028349
 30
0.0
  0
SPLINE
  5
306
100
AcDbEntity
  8
Layer_1
 62
7
100
AcDbSpline
 70
8
 71
3
 72
8
 73
4
 74
0
 40
0
 40
0
 40
0
 40
0
 40
1
 40
1
 40
1
 40
1
 10
21.312035
 20
14.028349
 30
0.0
 10
21.312035
 20
14.155609
 30
0.0
 10
21.362589
 20
14.277658
 30
0.0
 10
21.452576
 20
14.367645
 30
0.0
  0
SPLINE
  5
307
100
AcDbEntity
  8
Layer_1
 62
7
100
AcDbSpline
 70
8
 71
3
 72
8
 73
4
 74
0
 40
0
 40
0
 40
0
 40
0
 40
1
 40
1
 40
1
 40
1
 10
21.452576
 20
14.367645
 30
0.0
 10
21.542563
 20
14.457632
 30
0.0
 10
21.664612
 20
14.508186
 30
0.0
 10
21.791873
 20
14.508186
 30
0.0
  0
SPLINE
  5
308
100
AcDbEntity
  8
Layer_1
 62
7
100
AcDbSpline
 70
8
 71
3
 72
8
 73
4
 74
0
 40
0
 40
0
 40
0
 40
0
 40
1
 40
1
 40
1
 40
1
 10
21.791873
 20
14.508186
 30
0.0
 10
21.919134
 20
14.508187
 30
0.0
 10
22.041183
 20
14.457632
 30
0.0
 10
22.131170
 20
14.367645
 30
0.0
  0
SPLINE
  5
309
100
AcDbEntity
  8
Layer_1
 62
7
100
AcDbSpline
 70
8
 71
3
 72
8
 73
4
 74
0
 40
0
 40
0
 40
0
 40
0
 40
1
 40
1
 40
1
 40
1
 10
22.131170
 20
14.367645
 30
0.0
 10
22.221157
 20
14.277658
 30
0.0
 10
22.271711
 20
14.155610
 30
0.0
 10
22.271711
 20
14.028349
 30
0.0
  0
LINE
  5
30a
100
AcDbEntity
  8
Layer_1
 62
7
100
AcDbLine
 10
22.271711
 20
14.028349
 30
0.0
 11
22.271711
 21
14.028349
 31
0.0
  0
SPLINE
  5
30b
100
AcDbEntity
  8
Layer_1
 62
7
100
AcDbSpline
 70
8
 71
3
 72
8
 73
4
 74
0
 40
0
 40
0
 40
0
 40
0
 40
1
 40
1
 40
1
 40
1
 10
19.027820
 20
14.028349
 30
0.0
 10
19.027820
 20
13.901088
 30
0.0
 10
18.977266
 20
13.779039
 30
0.0
 10
18.887279
 20
13.689051
 30
0.0
  0
SPLINE
  5
30c
100
AcDbEntity
  8
Layer_1
 62
7
100
AcDbSpline
 70
8
 71
3
 72
8
 73
4
 74
0
 40
0
 40
0
 40
0
 40
0
 40
1
 40
1
 40
1
 40
1
 10
18.887279
 20
13.689051
 30
0.0
 10
18.797292
 20
13.599064
 30
0.0
 10
18.675243
 20
13.548510
 30
0.0
 10
18.547982
 20
13.548510
 30
0.0
  0
SPLINE
  5
30d
100
AcDbEntity
  8
Layer_1
 62
7
100
AcDbSpline
 70
8
 71
3
 72
8
 73
4
 74
0
 40
0
 40
0
 40
0
 40
0
 40
1
 40
1
 40
1
 40
1
 10
18.547982
 20
13.548510
 30
0.0
 10
18.420721
 20
13.548510
 30
0.0
 10
18.298672
 20
13.599064
 30
0.0
 10
18.208685
 20
13.689052
 30
0.0
  0
SPLINE
  5
30e
100
AcDbEntity
  8
Layer_1
 62
7
100
AcDbSpline
 70
8
 71
3
 72
8
 73
4
 74
0
 40
0
 40
0
 40
0
 40
0
 40
1
 40
1
 40
1
 40
1
 10
18.208685
 20
13.689052
 30
0.0
 10
18.118698
 20
13.779039
 30
0.0
 10
18.068144
 20
13.901088
 30
0.0
 10
18.068144
 20
14.028349
 30
0.0
  0
SPLINE
  5
30f
100
AcDbEntity
  8
Layer_1
 62
7
100
AcDbSpline
 70
8
 71
3
 72
8
 73
4
 74
0
 40
0
 40
0
 40
0
 40
0
 40
1
 40
1
 40
1
 40
1
 10
18.068144
 20
14.028349
 30
0.0
 10
18.068144
 20
14.155609
 30
0.0
 10
18.118698
 20
14.277658
 30
0.0
 10
18.208685
 20
14.367645
 30
0.0
  0
SPLINE
  5
310
100
AcDbEntity
  8
Layer_1
 62
7
100
AcDbSpline
 70
8
 71
3
 72
8
 73
4
 74
0
 40
0
 40
0
 40
0
 40
0
 40
1
 40
1
 40
1
 40
1
 10
18.208685
 20
14.367645
 30
0.0
 10
18.298672
 20
14.457632
 30
0.0
 10
18.420721
 20
14.508186
 30
0.0
 10
18.547982
 20
14.508186
 30
0.0
  0
SPLINE
  5
311
100
AcDbEntity
  8
Layer_1
 62
7
100
AcDbSpline
 70
8
 71
3
 72
8
 73
4
 74
0
 40
0
 40
0
 40
0
 40
0
 40
1
 40
1
 40
1
 40
1
 10
18.547982
 20
14.508186
 30
0.0
 10
18.675243
 20
14.508187
 30
0.0
 10
18.797292
 20
14.457632
 30
0.0
 10
18.887279
 20
14.367645
 30
0.0
  0
SPLINE
  5
312
100
AcDbEntity
  8
Layer_1
 62
7
100
AcDbSpline
 70
8
 71
3
 72
8
 73
4
 74
0
 40
0
 40
0
 40
0
 40
0
 40
1
 40
1
 40
1
 40
1
 10
18.887279
 20
14.367645
 30
0.0
 10
18.977266
 20
14.277658
 30
0.0
 10
19.027820
 20
14.155610
 30
0.0
 10
19.027820
 20
14.028349
 30
0.0
  0
LINE
  5
313
100
AcDbEntity
  8
Layer_1
 62
7
100
AcDbLine
 10
19.027820
 20
14.028349
 30
0.0
 11
19.027820
 21
14.028349
 31
0.0
  0
SPLINE
  5
314
100
AcDbEntity
  8
Layer_1
 62
7
100
AcDbSpline
 70
8
 71
3
 72
8
 73
4
 74
0
 40
0
 40
0
 40
0
 40
0
 40
1
 40
1
 40
1
 40
1
 10
17.402229
 20
16.801042
 30
0.0
 10
17.402229
 20
16.536035
 30
0.0
 10
17.187399
 20
16.321204
 30
0.0
 10
16.922391
 20
16.321204
 30
0.0
  0
SPLINE
  5
315
100
AcDbEntity
  8
Layer_1
 62
7
100
AcDbSpline
 70
8
 71
3
 72
8
 73
4
 74
0
 40
0
 40
0
 40
0
 40
0
 40
1
 40
1
 40
1
 40
1
 10
16.922391
 20
16.321204
 30
0.0
 10
16.657384
 20
16.321204
 30
0.0
 10
16.442554
 20
16.536035
 30
0.0
 10
16.442554
 20
16.801042
 30
0.0
  0
SPLINE
  5
316
100
AcDbEntity
  8
Layer_1
 62
7
100
AcDbSpline
 70
8
 71
3
 72
8
 73
4
 74
0
 40
0
 40
0
 40
0
 40
0
 40
1
 40
1
 40
1
 40
1
 10
16.442554
 20
16.801042
 30
0.0
 10
16.442554
 20
17.066049
 30
0.0
 10
16.657384
 20
17.280880
 30
0.0
 10
16.922391
 20
17.280880
 30
0.0
  0
SPLINE
  5
317
100
AcDbEntity
  8
Layer_1
 62
7
100
AcDbSpline
 70
8
 71
3
 72
8
 73
4
 74
0
 40
0
 40
0
 40
0
 40
0
 40
1
 40
1
 40
1
 40
1
 10
16.922391
 20
17.280880
 30
0.0
 10
17.187399
 20
17.280880
 30
0.0
 10
17.402229
 20
17.066049
 30
0.0
 10
17.402229
 20
16.801042
 30
0.0
  0
LINE
  5
318
100
AcDbEntity
  8
Layer_1
 62
7
100
AcDbLine
 10
17.402229
 20
16.801042
 30
0.0
 11
17.402229
 21
16.801042
 31
0.0
  0
SPLINE
  5
319
100
AcDbEntity
  8
Layer_1
 62
7
100
AcDbSpline
 70
8
 71
3
 72
8
 73
4
 74
0
 40
0
 40
0
 40
0
 40
0
 40
1
 40
1
 40
1
 40
1
 10
23.879945
 20
16.801042
 30
0.0
 10
23.879945
 20
16.536035
 30
0.0
 10
23.665114
 20
16.321204
 30
0.0
 10
23.400107
 20
16.321204
 30
0.0
  0
SPLINE
  5
31a
100
AcDbEntity
  8
Layer_1
 62
7
100
AcDbSpline
 70
8
 71
3
 72
8
 73
4
 74
0
 40
0
 40
0
 40
0
 40
0
 40
1
 40
1
 40
1
 40
1
 10
23.400107
 20
16.321204
 30
0.0
 10
23.135100
 20
16.321204
 30
0.0
 10
22.920269
 20
16.536035
 30
0.0
 10
22.920269
 20
16.801042
 30
0.0
  0
SPLINE
  5
31b
100
AcDbEntity
  8
Layer_1
 62
7
100
AcDbSpline
 70
8
 71
3
 72
8
 73
4
 74
0
 40
0
 40
0
 40
0
 40
0
 40
1
 40
1
 40
1
 40
1
 10
22.920269
 20
16.801042
 30
0.0
 10
22.920269
 20
17.066049
 30
0.0
 10
23.135100
 20
17.280880
 30
0.0
 10
23.400107
 20
17.280880
 30
0.0
  0
SPLINE
  5
31c
100
AcDbEntity
  8
Layer_1
 62
7
100
AcDbSpline
 70
8
 71
3
 72
8
 73
4
 74
0
 40
0
 40
0
 40
0
 40
0
 40
1
 40
1
 40
1
 40
1
 10
23.400107
 20
17.280880
 30
0.0
 10
23.665114
 20
17.280880
 30
0.0
 10
23.879945
 20
17.066049
 30
0.0
 10
23.879945
 20
16.801042
 30
0.0
  0
LINE
  5
31d
100
AcDbEntity
  8
Layer_1
 62
7
100
AcDbLine
 10
23.879945
 20
16.801042
 30
0.0
 11
23.879945
 21
16.801042
 31
0.0
  0
LINE
  5
31e
100
AcDbEntity
  8
Layer_1
 62
1
100
AcDbLine
 10
21.540760
 20
14.411661
 30
0.0
 11
18.781739
 21
14.411661
 31
0.0
  0
LINE
  5
31f
100
AcDbEntity
  8
Layer_1
 62
1
100
AcDbLine
 10
18.781739
 20
14.411661
 30
0.0
 11
17.402229
 21
16.801043
 31
0.0
  0
LINE
  5
320
100
AcDbEntity
  8
Layer_1
 62
1
100
AcDbLine
 10
17.402229
 20
16.801043
 30
0.0
 11
18.781740
 21
19.190424
 31
0.0
  0
LINE
  5
321
100
AcDbEntity
  8
Layer_1
 62
1
100
AcDbLine
 10
18.781740
 20
19.190424
 30
0.0
 11
21.540760
 21
19.190424
 31
0.0
  0
LINE
  5
322
100
AcDbEntity
  8
Layer_1
 62
1
100
AcDbLine
 10
21.540760
 20
19.190424
 30
0.0
 11
22.920269
 21
16.801042
 31
0.0
  0
LINE
  5
323
100
AcDbEntity
  8
Layer_1
 62
1
100
AcDbLine
 10
22.920269
 20
16.801042
 30
0.0
 11
21.540760
 21
14.411661
 31
0.0
  0
SPLINE
  5
324
100
AcDbEntity
  8
Layer_1
 62
7
100
AcDbSpline
 70
8
 71
3
 72
8
 73
4
 74
0
 40
0
 40
0
 40
0
 40
0
 40
1
 40
1
 40
1
 40
1
 10
19.027820
 20
19.585453
 30
0.0
 10
19.027820
 20
19.458193
 30
0.0
 10
18.977266
 20
19.336144
 30
0.0
 10
18.887279
 20
19.246157
 30
0.0
  0
SPLINE
  5
325
100
AcDbEntity
  8
Layer_1
 62
7
100
AcDbSpline
 70
8
 71
3
 72
8
 73
4
 74
0
 40
0
 40
0
 40
0
 40
0
 40
1
 40
1
 40
1
 40
1
 10
18.887279
 20
19.246157
 30
0.0
 10
18.797292
 20
19.156170
 30
0.0
 10
18.675243
 20
19.105616
 30
0.0
 10
18.547982
 20
19.105616
 30
0.0
  0
SPLINE
  5
326
100
AcDbEntity
  8
Layer_1
 62
7
100
AcDbSpline
 70
8
 71
3
 72
8
 73
4
 74
0
 40
0
 40
0
 40
0
 40
0
 40
1
 40
1
 40
1
 40
1
 10
18.547982
 20
19.105616
 30
0.0
 10
18.420721
 20
19.105615
 30
0.0
 10
18.298673
 20
19.156170
 30
0.0
 10
18.208685
 20
19.246157
 30
0.0
  0
SPLINE
  5
327
100
AcDbEntity
  8
Layer_1
 62
7
100
AcDbSpline
 70
8
 71
3
 72
8
 73
4
 74
0
 40
0
 40
0
 40
0
 40
0
 40
1
 40
1
 40
1
 40
1
 10
18.208685
 20
19.246157
 30
0.0
 10
18.118698
 20
19.336144
 30
0.0
 10
18.068144
 20
19.458192
 30
0.0
 10
18.068144
 20
19.585453
 30
0.0
  0
SPLINE
  5
328
100
AcDbEntity
  8
Layer_1
 62
7
100
AcDbSpline
 70
8
 71
3
 72
8
 73
4
 74
0
 40
0
 40
0
 40
0
 40
0
 40
1
 40
1
 40
1
 40
1
 10
18.068144
 20
19.585453
 30
0.0
 10
18.068144
 20
19.712714
 30
0.0
 10
18.118698
 20
19.834763
 30
0.0
 10
18.208685
 20
19.924751
 30
0.0
  0
SPLINE
  5
329
100
AcDbEntity
  8
Layer_1
 62
7
100
AcDbSpline
 70
8
 71
3
 72
8
 73
4
 74
0
 40
0
 40
0
 40
0
 40
0
 40
1
 40
1
 40
1
 40
1
 10
18.208685
 20
19.924751
 30
0.0
 10
18.298672
 20
20.014738
 30
0.0
 10
18.420721
 20
20.065292
 30
0.0
 10
18.547982
 20
20.065292
 30
0.0
  0
SPLINE
  5
32a
100
AcDbEntity
  8
Layer_1
 62
7
100
AcDbSpline
 70
8
 71
3
 72
8
 73
4
 74
0
 40
0
 40
0
 40
0
 40
0
 40
1
 40
1
 40
1
 40
1
 10
18.547982
 20
20.065292
 30
0.0
 10
18.675244
 20
20.065292
 30
0.0
 10
18.797292
 20
20.014738
 30
0.0
 10
18.887279
 20
19.924750
 30
0.0
  0
SPLINE
  5
32b
100
AcDbEntity
  8
Layer_1
 62
7
100
AcDbSpline
 70
8
 71
3
 72
8
 73
4
 74
0
 40
0
 40
0
 40
0
 40
0
 40
1
 40
1
 40
1
 40
1
 10
18.887279
 20
19.924750
 30
0.0
 10
18.977266
 20
19.834763
 30
0.0
 10
19.027820
 20
19.712714
 30
0.0
 10
19.027820
 20
19.585453
 30
0.0
  0
LINE
  5
32c
100
AcDbEntity
  8
Layer_1
 62
7
100
AcDbLine
 10
19.027820
 20
19.585453
 30
0.0
 11
19.027820
 21
19.585453
 31
0.0
  0
ENDSEC
  0
SECTION
  2
OBJECTS
  0
DICTIONARY
  5
C
330
0
100
AcDbDictionary
  3
ACAD_GROUP
350
D
  3
ACAD_MLINESTYLE
350
17
  0
DICTIONARY
  5
D
330
C
100
AcDbDictionary
  0
DICTIONARY
  5
1A
330
C
100
AcDbDictionary
  0
DICTIONARY
  5
17
330
C
100
AcDbDictionary
  3
STANDARD
350
18
  0
DICTIONARY
  5
19
330
C
100
AcDbDictionary
  0
ENDSEC
  0
EOF
