  0
SECTION
  2
HEADER
  9
$ACADVER
  1
AC1015
  9
$ACADMAINTVER
 70
     6
  9
$DWGCODEPAGE
  3
ANSI_932
  9
$INSBASE
 10
0.0
 20
0.0
 30
0.0
  9
$EXTMIN
 10
83.553901
 20
17.736041
 30
1.000000E+20
  9
$EXTMAX
 10
119.646099
 20
45.763959
 30
-1.000000E+20
  9
$LIMMIN
 10
83.553901
 20
17.736041
  9
$LIMMAX
 10
119.646099
 20
45.763959
  9
$ORTHOMODE
 70
     0
  9
$REGENMODE
 70
     1
  9
$FILLMODE
 70
     1
  9
$QTEXTMODE
 70
     0
  9
$MIRRTEXT
 70
     1
  9
$LTSCALE
 40
1.0
  9
$ATTMODE
 70
     1
  9
$TEXTSIZE
 40
0.2
  9
$TRACEWID
 40
0.05
  9
$TEXTSTYLE
  7
Standard
  9
$CLAYER
  8
0
  9
$CELTYPE
  6
Continuous
  9
$CECOLOR
 62
   256
  9
$CELTSCALE
 40
1.0
  9
$DISPSILH
 70
     0
  9
$DIMSCALE
 40
1.0
  9
$DIMASZ
 40
0.18
  9
$DIMEXO
 40
0.0625
  9
$DIMDLI
 40
0.38
  9
$DIMRND
 40
0.0
  9
$DIMDLE
 40
0.0
  9
$DIMEXE
 40
0.18
  9
$DIMTP
 40
0.0
  9
$DIMTM
 40
0.0
  9
$DIMTXT
 40
0.18
  9
$DIMCEN
 40
0.09
  9
$DIMTSZ
 40
0.0
  9
$DIMTOL
 70
     0
  9
$DIMLIM
 70
     0
  9
$DIMTIH
 70
     1
  9
$DIMTOH
 70
     1
  9
$DIMSE1
 70
     0
  9
$DIMSE2
 70
     0
  9
$DIMTAD
 70
     0
  9
$DIMZIN
 70
     0
  9
$DIMBLK
  1

  9
$DIMASO
 70
     1
  9
$DIMSHO
 70
     1
  9
$DIMPOST
  1

  9
$DIMAPOST
  1

  9
$DIMALT
 70
     0
  9
$DIMALTD
 70
     2
  9
$DIMALTF
 40
25.4
  9
$DIMLFAC
 40
1.0
  9
$DIMTOFL
 70
     0
  9
$DIMTVP
 40
0.0
  9
$DIMTIX
 70
     0
  9
$DIMSOXD
 70
     0
  9
$DIMSAH
 70
     0
  9
$DIMBLK1
  1

  9
$DIMBLK2
  1

  9
$DIMSTYLE
  2
Standard
  9
$DIMCLRD
 70
     0
  9
$DIMCLRE
 70
     0
  9
$DIMCLRT
 70
     0
  9
$DIMTFAC
 40
1.0
  9
$DIMGAP
 40
0.09
  9
$DIMJUST
 70
     0
  9
$DIMSD1
 70
     0
  9
$DIMSD2
 70
     0
  9
$DIMTOLJ
 70
     1
  9
$DIMTZIN
 70
     0
  9
$DIMALTZ
 70
     0
  9
$DIMALTTZ
 70
     0
  9
$DIMUPT
 70
     0
  9
$DIMDEC
 70
     4
  9
$DIMTDEC
 70
     4
  9
$DIMALTU
 70
     2
  9
$DIMALTTD
 70
     2
  9
$DIMTXSTY
  7
Standard
  9
$DIMAUNIT
 70
     0
  9
$DIMADEC
 70
     0
  9
$DIMALTRND
 40
0.0
  9
$DIMAZIN
 70
     0
  9
$DIMDSEP
 70
     0
  9
$DIMATFIT
 70
     3
  9
$DIMFRAC
 70
     0
  9
$DIMLDRBLK
  1

  9
$DIMLUNIT
 70
     2
  9
$DIMLWD
 70
     0
  9
$DIMLWE
 70
     0
  9
$DIMTMOVE
 70
     0
  9
$LUNITS
 70
     2
  9
$LUPREC
 70
     4
  9
$SKETCHINC
 40
0.1
  9
$FILLETRAD
 40
0.0
  9
$AUNITS
 70
     0
  9
$AUPREC
 70
     0
  9
$MENU
  1
acad
  9
$ELEVATION
 40
0.0
  9
$PELEVATION
 40
0.0
  9
$THICKNESS
 40
0.0
  9
$LIMCHECK
 70
     0
  9
$CHAMFERA
 40
0.0
  9
$CHAMFERB
 40
0.0
  9
$CHAMFERC
 40
0.0
  9
$CHAMFERD
 40
0.0
  9
$SKPOLY
 70
     0
  9
$TDCREATE
 40
0.000000000
  9
$TDUCREATE
 40
0.000000000
  9
$TDUPDATE
 40
0.000000000
  9
$TDUUPDATE
 40
0.000000000
  9
$TDINDWG
 40
0.0000000000
  9
$TDUSRTIMER
 40
0.0000000000
  9
$USRTIMER
 70
     1
  9
$ANGBASE
 50
0.0
  9
$ANGDIR
 70
     0
  9
$PDMODE
 70
     0
  9
$PDSIZE
 40
0.0
  9
$PLINEWID
 40
0.0
  9
$SPLFRAME
 70
     0
  9
$SPLINETYPE
 70
     6
  9
$SPLINESEGS
 70
     8
  9
$HANDSEED
  5
3D
  9
$SURFTAB1
 70
     6
  9
$SURFTAB2
 70
     6
  9
$SURFTYPE
 70
     6
  9
$SURFU
 70
     6
  9
$SURFV
 70
     6
  9
$UCSBASE
  2

  9
$UCSNAME
  2

  9
$UCSORG
 10
0.0
 20
0.0
 30
0.0
  9
$UCSXDIR
 10
1.0
 20
0.0
 30
0.0
  9
$UCSYDIR
 10
0.0
 20
1.0
 30
0.0
  9
$UCSORTHOREF
  2

  9
$UCSORTHOVIEW
 70
     0
  9
$UCSORGTOP
 10
0.0
 20
0.0
 30
0.0
  9
$UCSORGBOTTOM
 10
0.0
 20
0.0
 30
0.0
  9
$UCSORGLEFT
 10
0.0
 20
0.0
 30
0.0
  9
$UCSORGRIGHT
 10
0.0
 20
0.0
 30
0.0
  9
$UCSORGFRONT
 10
0.0
 20
0.0
 30
0.0
  9
$UCSORGBACK
 10
0.0
 20
0.0
 30
0.0
  9
$PUCSBASE
  2

  9
$PUCSNAME
  2

  9
$PUCSORG
 10
0.0
 20
0.0
 30
0.0
  9
$PUCSXDIR
 10
1.0
 20
0.0
 30
0.0
  9
$PUCSYDIR
 10
0.0
 20
1.0
 30
0.0
  9
$PUCSORTHOREF
  2

  9
$PUCSORTHOVIEW
 70
     0
  9
$PUCSORGTOP
 10
0.0
 20
0.0
 30
0.0
  9
$PUCSORGBOTTOM
 10
0.0
 20
0.0
 30
0.0
  9
$PUCSORGLEFT
 10
0.0
 20
0.0
 30
0.0
  9
$PUCSORGRIGHT
 10
0.0
 20
0.0
 30
0.0
  9
$PUCSORGFRONT
 10
0.0
 20
0.0
 30
0.0
  9
$PUCSORGBACK
 10
0.0
 20
0.0
 30
0.0
  9
$USERI1
 70
     0
  9
$USERI2
 70
     0
  9
$USERI3
 70
     0
  9
$USERI4
 70
     0
  9
$USERI5
 70
     0
  9
$USERR1
 40
0.0
  9
$USERR2
 40
0.0
  9
$USERR3
 40
0.0
  9
$USERR4
 40
0.0
  9
$USERR5
 40
0.0
  9
$WORLDVIEW
 70
     1
  9
$SHADEDGE
 70
     3
  9
$SHADEDIF
 70
    70
  9
$TILEMODE
 70
     1
  9
$MAXACTVP
 70
    16
  9
$PINSBASE
 10
0.0
 20
0.0
 30
0.0
  9
$PLIMCHECK
 70
     0
  9
$PEXTMIN
 10
1.000000E+20
 20
1.000000E+20
 30
1.000000E+20
  9
$PEXTMAX
 10
-1.000000E+20
 20
-1.000000E+20
 30
-1.000000E+20
  9
$PLIMMIN
 10
0.0
 20
0.0
  9
$PLIMMAX
 10
12.0
 20
9.0
  9
$UNITMODE
 70
     0
  9
$VISRETAIN
 70
     0
  9
$PLINEGEN
 70
     1
  9
$PSLTSCALE
 70
     0
  9
$TREEDEPTH
 70
  3020
  9
$CMLSTYLE
  2
Standard
  9
$CMLJUST
 70
     0
  9
$CMLSCALE
 40
1.0
  9
$PROXYGRAPHICS
 70
     0
  9
$MEASUREMENT
 70
     1
  9
$CELWEIGHT
370
     0
  9
$ENDCAPS
280
     0
  9
$JOINSTYLE
280
     0
  9
$LWDISPLAY
290
     0
  9
$INSUNITS
 70
     0
  9
$HYPERLINKBASE
  1

  9
$STYLESHEET
  1

  9
$XEDIT
290
     1
  9
$CEPSNTYPE
380
     0
  9
$PSTYLEMODE
290
     1
  9
$FINGERPRINTGUID
  2

  9
$VERSIONGUID
  2

  9
$EXTNAMES
290
     1
  9
$PSVPSCALE
 40
0.0
  0
ENDSEC
  0
SECTION
  2
CLASSES
  0
CLASS
  1
LWPOLYLINE
  2
AcDbPolyline
  3
AutoCAD 2000
 90
    32768
280
     0
281
     1
  0
CLASS
  1
IMAGE
  2
AcDbRasterImage
  3
ISM
 90
    32895
280
     0
281
     1
  0
CLASS
  1
OLE2FRAME
  2
AcDbOle2Frame
  3
AutoCAD 2000
 90
    32768
280
     0
281
     1
  0
CLASS
  1
HATCH
  2
AcDbHatch
  3
AutoCAD 2000
 90
    32768
280
     0
281
     1
  0
CLASS
  1
DICTIONARYVAR
  2
AcDbDictionaryVar
  3
AutoCAD 2000
 90
    32768
280
     0
281
     0
  0
CLASS
  1
RASTERVARIABLES
  2
AcDbRasterVariables
  3
ISM
 90
    32768
280
     0
281
     0
  0
CLASS
  1
IMAGEDEF
  2
AcDbRasterImageDef
  3
ISM
 90
    32768
280
     0
281
     0
  0
CLASS
  1
IMAGEDEF_REACTOR
  2
AcDbRasterImageDefReactor
  3
ISM
 90
    32769
280
     0
281
     0
  0
CLASS
  1
IDBUFFER
  2
AcDbIdBuffer
  3
AutoCAD 2000
 90
    32768
280
     0
281
     0
  0
CLASS
  1
SPATIAL_FILTER
  2
AcDbSpatialFilter
  3
AutoCAD 2000
 90
    32768
280
     0
281
     0
  0
CLASS
  1
XRECORD
  2
AcDbXrecord
  3
AutoCAD 2000
 90
    32768
280
     0
281
     0
  0
CLASS
  1
SORTENTSTABLE
  2
AcDbSortentsTable
  3
AutoCAD 2000
 90
    32768
280
     0
281
     0
  0
CLASS
  1
LAYER_INDEX
  2
AcDbLayerIndex
  3
AutoCAD 2000
 90
    32768
280
     0
281
     0
  0
CLASS
  1
SPATIAL_INDEX
  2
AcDbSpatialIndex
  3
AutoCAD 2000
 90
    32768
280
     0
281
     0
  0
CLASS
  1
OBJECT_PTR
  2
CAseDLPNTableRecord
  3
"ASE-LPNTableRecord"
 90
    32769
280
     0
281
     0
  0
CLASS
  1
LAYOUT
  2
AcDbLayout
  3
AutoCAD 2000
 90
        0
280
     0
281
     0
  0
CLASS
  1
PLOTSETTINGS
  2
AcDbPlotSettings
  3
AutoCAD 2000
 90
    32768
280
     0
281
     0
  0
CLASS
  1
ACDBDICTIONARYWDFLT
  2
AcDbDictionaryWithDefault
  3
AutoCAD 2000
 90
        0
280
     0
281
     0
  0
CLASS
  1
ACDBPLACEHOLDER
  2
AcDbPlaceHolder
  3
AutoCAD 2000
 90
        0
280
     0
281
     0
  0
CLASS
  1
VBA_PROJECT
  2
AcDbVbaProject
  3
acadvba
 90
    32768
280
     0
281
     0
  0
CLASS
  1
WIPEOUT
  2
AcDbWipeout
  3
WipeOut|AutoCAD Express Tool|expresstools@autodesk.com
 90
    32895
280
     0
281
     1
  0
CLASS
  1
WIPEOUTVARIABLES
  2
AcDbWipeoutVariables
  3
WipeOut|AutoCAD Express Tool|expresstools@autodesk.com
 90
        0
280
     0
281
     0
  0
CLASS
  1
RTEXT
  2
RText
  3
RText|AutoCAD Express Tool|expresstools@autodesk.com
 90
    32768
280
     0
281
     1
  0
CLASS
  1
ARCALIGNEDTEXT
  2
AcDbArcAlignedText
  3
ATEXT|AutoCAD Express Tool|expresstools@autodesk.com
 90
    32768
280
     0
281
     1
  0
ENDSEC
  0
SECTION
  2
TABLES
  0
TABLE
  2
VPORT
  5
7
100
AcDbSymbolTable
 70
     1
  0
VPORT
  5
15
100
AcDbSymbolTableRecord
100
AcDbViewportTableRecord
  2
*ACTIVE
 70
     0
 10
0.0
 20
0.0
 11
1.0
 21
1.0
 12
6.591288
 22
4.579184
 13
0.0
 23
0.0
 14
1.0
 24
1.0
 15
0.0
 25
0.0
 16
0.0
 26
0.0
 36
1.0
 17
0.0
 27
0.0
 37
0.0
 40
9.158369
 41
0.688564
 42
50.0
 43
0.0
 44
0.0
 50
0.0
 51
0.0
 71
     0
 72
   100
 73
     1
 74
     1
 75
     0
 76
     0
 77
     0
 78
     0
281
     0
 65
     0
110
0.0
120
0.0
130
0.0
111
1.0
121
0.0
131
0.0
112
0.0
122
1.0
132
0.0
345
0
346
0
 79
     0
146
0.0
  0
ENDTAB
  0
TABLE
  2
LTYPE
  5
4
100
AcDbSymbolTable
 70
     3
  0
LTYPE
  5
11
100
AcDbSymbolTableRecord
100
AcDbLinetypeTableRecord
  2
ByBlock
 70
    64
  3

 72
    65
 73
     0
 40
0.0
  0
LTYPE
  5
12
100
AcDbSymbolTableRecord
100
AcDbLinetypeTableRecord
  2
ByLayer
 70
    64
  3

 72
    65
 73
     0
 40
0.0
  0
LTYPE
  5
13
100
AcDbSymbolTableRecord
100
AcDbLinetypeTableRecord
  2
Continuous
 70
    64
  3
Solid line
 72
    65
 73
     0
 40
0.0
  0
ENDTAB
  0
TABLE
  2
LAYER
  5
2
100
AcDbSymbolTable
 70
     3
  0
LAYER
  5
14
100
AcDbSymbolTableRecord
100
AcDbLayerTableRecord
  2
0
 70
     0
 62
     7
  6
Continuous
290
     1
370
    -3
390
1D
  0
LAYER
  5
28
100
AcDbSymbolTableRecord
100
AcDbLayerTableRecord
  2
0
 70
     0
 62
     1
  6
Continuous
290
     1
370
    -3
390
1D
  0
LAYER
  5
29
100
AcDbSymbolTableRecord
100
AcDbLayerTableRecord
  2
LAYER_1
 70
     0
 62
   160
  6
Continuous
290
     1
370
    -3
390
1D
  0
ENDTAB
  0
TABLE
  2
STYLE
  5
3
100
AcDbSymbolTable
 70
     5
  0
STYLE
  5
17
100
AcDbSymbolTableRecord
100
AcDbTextStyleTableRecord
  2
Standard
 70
     0
 40
0.0
 41
1.0
 50
0.0
 71
     0
 42
0.0
  3
txt
  4

  0
STYLE
  5
24
100
AcDbSymbolTableRecord
100
AcDbTextStyleTableRecord
  2
STD
 70
     0
 40
0.0
 41
1.0
 50
0.0
 71
     0
 42
0.0
  3
txt
  4

  0
STYLE
  5
25
100
AcDbSymbolTableRecord
100
AcDbTextStyleTableRecord
  2
TATESTD
 70
     4
 40
0.0
 41
1.0
 50
0.0
 71
     0
 42
0.0
  3
txt
  4

  0
STYLE
  5
26
100
AcDbSymbolTableRecord
100
AcDbTextStyleTableRecord
  2
KANJISTD
 70
     0
 40
0.0
 41
1.0
 50
0.0
 71
     0
 42
0.0
  3
txt
  4
extfont
  0
STYLE
  5
27
100
AcDbSymbolTableRecord
100
AcDbTextStyleTableRecord
  2
KANJITATE
 70
     4
 40
0.0
 41
1.0
 50
0.0
 71
     0
 42
0.0
  3
txt
  4
extfont
  0
ENDTAB
  0
TABLE
  2
VIEW
  5
5
100
AcDbSymbolTable
 70
     0
  0
ENDTAB
  0
TABLE
  2
UCS
  5
6
100
AcDbSymbolTable
 70
     0
  0
ENDTAB
  0
TABLE
  2
APPID
  5
8
100
AcDbSymbolTable
 70
     1
  0
APPID
  5
16
100
AcDbSymbolTableRecord
100
AcDbRegAppTableRecord
  2
ACAD
 70
     0
  0
ENDTAB
  0
TABLE
  2
DIMSTYLE
  5
9
100
AcDbSymbolTable
 70
     1
100
AcDbDimStyleTable
 71
     0
  0
DIMSTYLE
105
18
100
AcDbSymbolTableRecord
100
AcDbDimStyleTableRecord
  2
Standard
 70
     0
  3

  4

 40
1.0
 41
0.18
 42
0.0625
 43
0.38
 44
0.18
 45
0.0
 46
0.0
 47
0.0
 48
0.0
 71
     0
 72
     0
 73
     1
 74
     1
 75
     0
 76
     0
 77
     0
 78
     0
 79
     0
140
0.18
141
0.09
142
0.0
143
25.4
144
1.0
145
0.0
146
1.0
147
0.09
148
0.0
170
     0
171
     2
172
     0
173
     0
174
     0
175
     0
176
     0
177
     0
178
     0
179
     0
271
     4
272
     4
273
     2
274
     2
275
     0
276
     0
277
     2
278
    46
279
     0
280
     0
281
     0
282
     0
283
     1
284
     0
285
     0
286
     0
288
     0
340
17
341
0
342
0
343
0
344
0
371
    -2
372
    -2
  0
ENDTAB
  0
TABLE
  2
BLOCK_RECORD
  5
1
100
AcDbSymbolTable
 70
     0
  0
BLOCK_RECORD
  5
A
100
AcDbSymbolTableRecord
100
AcDbBlockTableRecord
  2
*MODEL_SPACE
340
20
  0
BLOCK_RECORD
  5
B
100
AcDbSymbolTableRecord
100
AcDbBlockTableRecord
  2
*PAPER_SPACE
340
21
  0
ENDTAB
  0
ENDSEC
  0
SECTION
  2
BLOCKS
  0
BLOCK
  5
D
100
AcDbEntity
  8
0
100
AcDbBlockBegin
  2
*MODEL_SPACE
 70
     0
 10
0.0
 20
0.0
 30
0.0
  3
*MODEL_SPACE
  1

  0
ENDBLK
  5
E
100
AcDbEntity
  8
0
100
AcDbBlockEnd
  0
BLOCK
  5
F
100
AcDbEntity
 67
     1
  8
0
100
AcDbBlockBegin
  2
*PAPER_SPACE
 70
     0
 10
0.0
 20
0.0
 30
0.0
  3
*PAPER_SPACE
  1

  0
ENDBLK
  5
10
100
AcDbEntity
 67
     1
  8
0
100
AcDbBlockEnd
  0
ENDSEC
  0
SECTION
  2
ENTITIES
  0
LINE
  5
3C
100
AcDbEntity
  8
LAYER_1
 62
     7
100
AcDbLine
 10
83.678958
 20
45.638902
 30
0.0
 11
119.521042
 21
45.638902
 31
0.0
  0
LINE
  5
3B
100
AcDbEntity
  8
LAYER_1
 62
     7
100
AcDbLine
 10
119.521042
 20
45.638902
 30
0.0
 11
119.521042
 21
17.861098
 31
0.0
  0
LINE
  5
3A
100
AcDbEntity
  8
LAYER_1
 62
     7
100
AcDbLine
 10
119.521042
 20
17.861098
 30
0.0
 11
83.678958
 21
17.861098
 31
0.0
  0
LINE
  5
39
100
AcDbEntity
  8
LAYER_1
 62
     7
100
AcDbLine
 10
83.678958
 20
17.861098
 30
0.0
 11
83.678958
 21
45.638902
 31
0.0
  0
SPLINE
  5
38
100
AcDbEntity
  8
LAYER_1
 62
     5
100
AcDbSpline
210
0.0
220
0.0
230
1.0
 70
     8
 71
     3
 72
    68
 73
    64
 74
     0
 42
0.00000001
 43
0.00000001
 40
0.0
 40
0.0
 40
0.0
 40
0.0
 40
1.0
 40
1.0
 40
1.0
 40
2.0
 40
2.0
 40
2.0
 40
3.0
 40
3.0
 40
3.0
 40
4.0
 40
4.0
 40
4.0
 40
5.0
 40
5.0
 40
5.0
 40
6.0
 40
6.0
 40
6.0
 40
7.0
 40
7.0
 40
7.0
 40
8.0
 40
8.0
 40
8.0
 40
9.0
 40
9.0
 40
9.0
 40
10.0
 40
10.0
 40
10.0
 40
11.0
 40
11.0
 40
11.0
 40
12.0
 40
12.0
 40
12.0
 40
13.0
 40
13.0
 40
13.0
 40
14.0
 40
14.0
 40
14.0
 40
15.0
 40
15.0
 40
15.0
 40
16.0
 40
16.0
 40
16.0
 40
17.0
 40
17.0
 40
17.0
 40
18.0
 40
18.0
 40
18.0
 40
19.0
 40
19.0
 40
19.0
 40
20.0
 40
20.0
 40
20.0
 40
21.0
 40
21.0
 40
21.0
 40
21.0
 10
99.864360894097217
 20
42.862155490451386
 30
0.0
 10
99.785468207465271
 20
42.136446126302083
 30
0.0
 10
99.912592230902774
 20
43.099350314670133
 30
0.0
 10
99.800971137152771
 20
42.380703396267357
 30
0.0
 10
99.551201714409714
 20
41.70339762369791
 30
0.0
 10
99.9198269314236
 20
42.59309353298611
 30
0.0
 10
99.616658528645829
 20
41.935769314236104
 30
0.0
 10
99.19360080295138
 20
41.341662597656246
 30
0.0
 10
99.784779188368049
 20
42.112330457899304
 30
0.0
 10
99.321069335937494
 20
41.550435384114579
 30
0.0
 10
98.75951877170138
 20
41.086208767361107
 30
0.0
 10
99.530186631944431
 20
41.67721489800347
 30
0.0
 10
98.935907660590274
 20
41.25501844618055
 30
0.0
 10
98.278238932291657
 20
40.954433865017357
 30
0.0
 10
99.168107096354163
 20
41.323059082031243
 30
0.0
 10
98.490801323784709
 20
41.070705837673607
 30
0.0
 10
97.772498914930551
 20
40.949093967013887
 30
0.0
 10
98.735058593749997
 20
41.076217990451383
 30
0.0
 10
98.009521484374986
 20
41.007316080729161
 30
0.0
 10
97.283984374999989
 20
41.076217990451383
 30
0.0
 10
98.246888563368046
 20
40.949093967013887
 30
0.0
 10
97.528241644965263
 20
41.070705837673607
 30
0.0
 10
96.850935872395823
 20
41.323059082031243
 30
0.0
 10
97.740459526909717
 20
40.954433865017357
 30
0.0
 10
97.083135308159711
 20
41.25501844618055
 30
0.0
 10
96.489200846354152
 20
41.67721489800347
 30
0.0
 10
97.259868706597217
 20
41.086208767361107
 30
0.0
 10
96.697973632812491
 20
41.550435384114579
 30
0.0
 10
96.233574761284714
 20
42.112330457899304
 30
0.0
 10
96.824753146701383
 20
41.341662597656246
 30
0.0
 10
96.402384440104157
 20
41.935769314236104
 30
0.0
 10
96.101972113715263
 20
42.593265787760416
 30
0.0
 10
96.470597330729163
 20
41.70339762369791
 30
0.0
 10
96.218071831597214
 20
42.380703396267357
 30
0.0
 10
96.096459960937494
 20
43.098833550347216
 30
0.0
 10
96.223583984374997
 20
42.136101616753471
 30
0.0
 10
96.154682074652769
 20
42.862155490451386
 30
0.0
 10
96.432012261284711
 20
44.292731391059021
 30
0.0
 10
95.925583224826383
 20
42.420494249131941
 30
0.0
 10
96.40789659288194
 20
43.798187934027773
 30
0.0
 10
97.334282769097214
 20
44.868062337239579
 30
0.0
 10
96.003442382812494
 20
43.537221950954859
 30
0.0
 10
97.073489040798606
 20
44.463608127170133
 30
0.0
 10
98.451182725694437
 20
44.94592149522569
 30
0.0
 10
96.578773328993051
 20
44.439492458767354
 30
0.0
 10
98.009521484374986
 20
44.716822645399304
 30
0.0
 10
98.735403103298609
 20
44.648092990451381
 30
0.0
 10
97.772843424479163
 20
44.775217013888884
 30
0.0
 10
98.490801323784709
 20
44.653432888454859
 30
0.0
 10
99.168107096354163
 20
44.401079644097216
 30
0.0
 10
98.278238932291657
 20
44.769532606336803
 30
0.0
 10
98.935907660590274
 20
44.469120279947916
 30
0.0
 10
99.530186631944431
 20
44.046923828124996
 30
0.0
 10
98.75951877170138
 20
44.637929958767359
 30
0.0
 10
99.321069335937494
 20
44.173703342013887
 30
0.0
 10
99.784779188368049
 20
43.611808268229161
 30
0.0
 10
99.19360080295138
 20
44.38247612847222
 30
0.0
 10
99.616658528645829
 20
43.788369411892354
 30
0.0
 10
99.9198269314236
 20
43.131045193142356
 30
0.0
 10
99.551201714409714
 20
44.020741102430549
 30
0.0
 10
99.800971137152771
 20
43.343435329861109
 30
0.0
 10
99.912592230902774
 20
42.624788411458333
 30
0.0
 10
99.785468207465271
 20
43.587692599826383
 30
0.0
 10
99.864360894097217
 20
42.862155490451386
 30
0.0
  0
SPLINE
  5
37
100
AcDbEntity
  8
LAYER_1
 62
     5
100
AcDbSpline
210
0.0
220
0.0
230
1.0
 70
     8
 71
     3
 72
    59
 73
    55
 74
     0
 42
0.00000001
 43
0.00000001
 40
0.0
 40
0.0
 40
0.0
 40
0.0
 40
1.0
 40
1.0
 40
1.0
 40
2.0
 40
2.0
 40
2.0
 40
3.0
 40
3.0
 40
3.0
 40
4.0
 40
4.0
 40
4.0
 40
5.0
 40
5.0
 40
5.0
 40
6.0
 40
6.0
 40
6.0
 40
7.0
 40
7.0
 40
7.0
 40
8.0
 40
8.0
 40
8.0
 40
9.0
 40
9.0
 40
9.0
 40
10.0
 40
10.0
 40
10.0
 40
11.0
 40
11.0
 40
11.0
 40
12.0
 40
12.0
 40
12.0
 40
13.0
 40
13.0
 40
13.0
 40
14.0
 40
14.0
 40
14.0
 40
15.0
 40
15.0
 40
15.0
 40
16.0
 40
16.0
 40
16.0
 40
17.0
 40
17.0
 40
17.0
 40
18.0
 40
18.0
 40
18.0
 40
18.0
 10
107.04669596354165
 20
42.862155490451386
 30
0.0
 10
106.96814778645832
 20
42.136618381076389
 30
0.0
 10
107.09527180989582
 20
43.099350314670133
 30
0.0
 10
106.98330620659721
 20
42.380703396267357
 30
0.0
 10
106.73353678385416
 20
41.70339762369791
 30
0.0
 10
107.10216200086805
 20
42.59309353298611
 30
0.0
 10
106.79899359809026
 20
41.935769314236104
 30
0.0
 10
106.37628038194444
 20
41.341662597656246
 30
0.0
 10
106.9671142578125
 20
42.112330457899304
 30
0.0
 10
106.50340440538193
 20
41.550435384114579
 30
0.0
 10
105.94185384114583
 20
41.086208767361107
 30
0.0
 10
106.71252170138888
 20
41.67721489800347
 30
0.0
 10
106.11824273003471
 20
41.25501844618055
 30
0.0
 10
105.46091851128472
 20
40.954433865017357
 30
0.0
 10
106.3504421657986
 20
41.323059082031243
 30
0.0
 10
105.67348090277777
 20
41.070705837673607
 30
0.0
 10
104.95483398437499
 20
40.949093967013887
 30
0.0
 10
105.91739366319443
 20
41.076217990451383
 30
0.0
 10
105.19185655381943
 20
41.007316080729161
 30
0.0
 10
104.46631944444444
 20
41.076217990451383
 30
0.0
 10
105.42922363281249
 20
40.949093967013887
 30
0.0
 10
104.71057671440971
 20
41.070705837673607
 30
0.0
 10
104.03327094184027
 20
41.323059082031243
 30
0.0
 10
104.92313910590276
 20
40.954433865017357
 30
0.0
 10
104.26581488715277
 20
41.25501844618055
 30
0.0
 10
103.6715359157986
 20
41.67721489800347
 30
0.0
 10
104.44220377604165
 20
41.086208767361107
 30
0.0
 10
103.88030870225694
 20
41.550435384114579
 30
0.0
 10
103.41625434027777
 20
42.112330457899304
 30
0.0
 10
104.00708821614582
 20
41.341662597656246
 30
0.0
 10
103.58506401909722
 20
41.935769314236104
 30
0.0
 10
103.28465169270832
 20
42.593265787760416
 30
0.0
 10
103.6529324001736
 20
41.703569878472216
 30
0.0
 10
103.40075141059027
 20
42.380703396267357
 30
0.0
 10
103.27879503038193
 20
43.098833550347216
 30
0.0
 10
103.40591905381943
 20
42.136101616753471
 30
0.0
 10
103.33701714409722
 20
42.862155490451386
 30
0.0
 10
103.61469184027777
 20
44.292903645833327
 30
0.0
 10
103.10791829427082
 20
42.420494249131941
 30
0.0
 10
103.59023166232637
 20
43.798187934027773
 30
0.0
 10
104.51696234809027
 20
44.868062337239579
 30
0.0
 10
103.18612196180554
 20
43.537049696180553
 30
0.0
 10
104.25582411024304
 20
44.463608127170133
 30
0.0
 10
105.63282877604166
 20
44.946438259548607
 30
0.0
 10
103.76041937934026
 20
44.439836968315966
 30
0.0
 10
105.19185655381943
 20
44.716822645399304
 30
0.0
 10
106.62122667100694
 20
44.440009223090271
 30
0.0
 10
104.74881727430555
 20
44.946610514322913
 30
0.0
 10
106.12823350694444
 20
44.463608127170133
 30
0.0
 10
107.20792643229166
 20
43.536705186631941
 30
0.0
 10
105.87708604600694
 20
44.867545572916661
 30
0.0
 10
106.79348144531249
 20
43.798187934027773
 30
0.0
 10
107.23617621527777
 20
42.422044542100693
 30
0.0
 10
106.72974717881944
 20
44.294281684027773
 30
0.0
 10
107.04669596354165
 20
42.862155490451386
 30
0.0
  0
SPLINE
  5
36
100
AcDbEntity
  8
LAYER_1
 62
     5
100
AcDbSpline
210
0.0
220
0.0
230
1.0
 70
     8
 71
     3
 72
    59
 73
    55
 74
     0
 42
0.00000001
 43
0.00000001
 40
0.0
 40
0.0
 40
0.0
 40
0.0
 40
1.0
 40
1.0
 40
1.0
 40
2.0
 40
2.0
 40
2.0
 40
3.0
 40
3.0
 40
3.0
 40
4.0
 40
4.0
 40
4.0
 40
5.0
 40
5.0
 40
5.0
 40
6.0
 40
6.0
 40
6.0
 40
7.0
 40
7.0
 40
7.0
 40
8.0
 40
8.0
 40
8.0
 40
9.0
 40
9.0
 40
9.0
 40
10.0
 40
10.0
 40
10.0
 40
11.0
 40
11.0
 40
11.0
 40
12.0
 40
12.0
 40
12.0
 40
13.0
 40
13.0
 40
13.0
 40
14.0
 40
14.0
 40
14.0
 40
15.0
 40
15.0
 40
15.0
 40
16.0
 40
16.0
 40
16.0
 40
17.0
 40
17.0
 40
17.0
 40
18.0
 40
18.0
 40
18.0
 40
18.0
 10
112.85822753906248
 20
38.609874131944444
 30
0.0
 10
112.77967936197916
 20
37.88433702256944
 30
0.0
 10
112.90680338541665
 20
38.847068956163191
 30
0.0
 10
112.79483778211805
 20
38.128422037760416
 30
0.0
 10
112.54506835937499
 20
37.451116265190969
 30
0.0
 10
112.91369357638888
 20
38.340984429253467
 30
0.0
 10
112.61052517361109
 20
37.683660210503469
 30
0.0
 10
112.18781195746527
 20
37.08955349392361
 30
0.0
 10
112.77864583333333
 20
37.860049099392356
 30
0.0
 10
112.31493598090277
 20
37.298326280381943
 30
0.0
 10
111.75338541666666
 20
36.834099663628471
 30
0.0
 10
112.52405327690971
 20
37.424933539496521
 30
0.0
 10
111.92977430555554
 20
37.002909342447914
 30
0.0
 10
111.27245008680555
 20
36.702324761284721
 30
0.0
 10
112.16197374131943
 20
37.070777723524301
 30
0.0
 10
111.4850124782986
 20
36.818596733940971
 30
0.0
 10
110.76636555989582
 20
36.696984863281244
 30
0.0
 10
111.72892523871526
 20
36.823936631944441
 30
0.0
 10
111.00338812934027
 20
36.75503472222222
 30
0.0
 10
110.27785101996527
 20
36.823936631944441
 30
0.0
 10
111.24075520833333
 20
36.696984863281244
 30
0.0
 10
110.52210828993054
 20
36.818596733940971
 30
0.0
 10
109.8448025173611
 20
37.070777723524301
 30
0.0
 10
110.73467068142359
 20
36.702324761284721
 30
0.0
 10
110.0773464626736
 20
37.002909342447914
 30
0.0
 10
109.48306749131943
 20
37.424933539496521
 30
0.0
 10
110.25373535156248
 20
36.834099663628471
 30
0.0
 10
109.69184027777777
 20
37.298326280381943
 30
0.0
 10
109.22778591579861
 20
37.860049099392356
 30
0.0
 10
109.81861979166666
 20
37.089381239149304
 30
0.0
 10
109.39659559461805
 20
37.683660210503469
 30
0.0
 10
109.09583875868054
 20
38.340984429253467
 30
0.0
 10
109.46446397569443
 20
37.451288519965274
 30
0.0
 10
109.21228298611111
 20
38.128422037760416
 30
0.0
 10
109.09032660590277
 20
38.84672444661458
 30
0.0
 10
109.21745062934026
 20
37.883992513020829
 30
0.0
 10
109.14854871961805
 20
38.609874131944444
 30
0.0
 10
109.4262234157986
 20
40.040622287326386
 30
0.0
 10
108.91944986979166
 20
38.168212890625
 30
0.0
 10
109.40176323784721
 20
39.546078830295137
 30
0.0
 10
110.32849392361111
 20
40.615780978732637
 30
0.0
 10
108.99765353732639
 20
39.28494059244791
 30
0.0
 10
110.06735568576389
 20
40.211499023437497
 30
0.0
 10
111.44436035156249
 20
40.694156901041666
 30
0.0
 10
109.57195095486109
 20
40.18772786458333
 30
0.0
 10
111.00338812934027
 20
40.464713541666661
 30
0.0
 10
112.43275824652777
 20
40.187900119357636
 30
0.0
 10
110.56034884982638
 20
40.694329155815971
 30
0.0
 10
111.93976508246527
 20
40.211499023437497
 30
0.0
 10
113.01945800781249
 20
39.284596082899299
 30
0.0
 10
111.68861762152777
 20
40.615436469184026
 30
0.0
 10
112.60501302083333
 20
39.546078830295137
 30
0.0
 10
113.0477077907986
 20
38.169763183593744
 30
0.0
 10
112.54127875434027
 20
40.042172580295137
 30
0.0
 10
112.85822753906248
 20
38.609874131944444
 30
0.0
  0
SPLINE
  5
35
100
AcDbEntity
  8
LAYER_1
 62
     5
100
AcDbSpline
210
0.0
220
0.0
230
1.0
 70
     8
 71
     3
 72
    59
 73
    55
 74
     0
 42
0.00000001
 43
0.00000001
 40
0.0
 40
0.0
 40
0.0
 40
0.0
 40
1.0
 40
1.0
 40
1.0
 40
2.0
 40
2.0
 40
2.0
 40
3.0
 40
3.0
 40
3.0
 40
4.0
 40
4.0
 40
4.0
 40
5.0
 40
5.0
 40
5.0
 40
6.0
 40
6.0
 40
6.0
 40
7.0
 40
7.0
 40
7.0
 40
8.0
 40
8.0
 40
8.0
 40
9.0
 40
9.0
 40
9.0
 40
10.0
 40
10.0
 40
10.0
 40
11.0
 40
11.0
 40
11.0
 40
12.0
 40
12.0
 40
12.0
 40
13.0
 40
13.0
 40
13.0
 40
14.0
 40
14.0
 40
14.0
 40
15.0
 40
15.0
 40
15.0
 40
16.0
 40
16.0
 40
16.0
 40
17.0
 40
17.0
 40
17.0
 40
18.0
 40
18.0
 40
18.0
 40
18.0
 10
115.07411295572916
 20
31.749999999999996
 30
0.0
 10
114.99556477864583
 20
31.024462890624996
 30
0.0
 10
115.12268880208332
 20
31.987194824218747
 30
0.0
 10
115.01072319878472
 20
31.268720160590274
 30
0.0
 10
114.76095377604166
 20
30.59141438802083
 30
0.0
 10
115.12957899305555
 20
31.481110297309026
 30
0.0
 10
114.82641059027777
 20
30.823613823784719
 30
0.0
 10
114.40369737413194
 20
30.229679361979162
 30
0.0
 10
114.99453124999999
 20
31.000347222222221
 30
0.0
 10
114.53082139756944
 20
30.438452148437499
 30
0.0
 10
113.96927083333333
 20
29.974053276909718
 30
0.0
 10
114.73993869357638
 20
30.565231662326386
 30
0.0
 10
114.14565972222221
 20
30.142862955729164
 30
0.0
 10
113.48833550347221
 20
29.842450629340274
 30
0.0
 10
114.37785915798609
 20
30.211075846354163
 30
0.0
 10
113.70089789496527
 20
29.958550347222218
 30
0.0
 10
112.98225097656248
 20
29.836938476562498
 30
0.0
 10
113.94481065538193
 20
29.964062499999997
 30
0.0
 10
113.21927354600693
 20
29.895160590277776
 30
0.0
 10
112.49373643663193
 20
29.964062499999997
 30
0.0
 10
113.45664062499999
 20
29.836938476562498
 30
0.0
 10
112.73799370659721
 20
29.958550347222218
 30
0.0
 10
112.06068793402777
 20
30.211075846354163
 30
0.0
 10
112.95055609809027
 20
29.842450629340274
 30
0.0
 10
112.29323187934027
 20
30.142862955729164
 30
0.0
 10
111.6989529079861
 20
30.565231662326386
 30
0.0
 10
112.46962076822916
 20
29.974053276909718
 30
0.0
 10
111.90772569444444
 20
30.438452148437499
 30
0.0
 10
111.44367133246527
 20
31.000347222222221
 30
0.0
 10
112.03450520833333
 20
30.229679361979162
 30
0.0
 10
111.61248101128471
 20
30.823613823784719
 30
0.0
 10
111.31172417534721
 20
31.481110297309026
 30
0.0
 10
111.68034939236109
 20
30.59141438802083
 30
0.0
 10
111.42816840277777
 20
31.268720160590274
 30
0.0
 10
111.30621202256944
 20
31.986850314670136
 30
0.0
 10
111.43333604600693
 20
31.024118381076384
 30
0.0
 10
111.36443413628471
 20
31.749999999999996
 30
0.0
 10
111.64210883246527
 20
33.180748155381941
 30
0.0
 10
111.13533528645833
 20
31.308338758680552
 30
0.0
 10
111.61764865451389
 20
32.686204698350693
 30
0.0
 10
112.54437934027777
 20
33.755906846788193
 30
0.0
 10
111.21353895399305
 20
32.425066460503466
 30
0.0
 10
112.28324110243055
 20
33.351624891493053
 30
0.0
 10
113.66024576822916
 20
33.834282769097221
 30
0.0
 10
111.78783637152777
 20
33.327853732638886
 30
0.0
 10
113.21927354600693
 20
33.604839409722217
 30
0.0
 10
114.64864366319443
 20
33.328025987413191
 30
0.0
 10
112.77623426649305
 20
33.834455023871527
 30
0.0
 10
114.15565049913194
 20
33.351624891493053
 30
0.0
 10
115.23534342447915
 20
32.424721950954861
 30
0.0
 10
113.90450303819443
 20
33.755562337239581
 30
0.0
 10
114.82089843749999
 20
32.686204698350693
 30
0.0
 10
115.26359320746526
 20
31.310061306423609
 30
0.0
 10
114.75716417100693
 20
33.182298448350693
 30
0.0
 10
115.07411295572916
 20
31.749999999999996
 30
0.0
  0
SPLINE
  5
34
100
AcDbEntity
  8
LAYER_1
 62
     5
100
AcDbSpline
210
0.0
220
0.0
230
1.0
 70
     8
 71
     3
 72
    59
 73
    55
 74
     0
 42
0.00000001
 43
0.00000001
 40
0.0
 40
0.0
 40
0.0
 40
0.0
 40
1.0
 40
1.0
 40
1.0
 40
2.0
 40
2.0
 40
2.0
 40
3.0
 40
3.0
 40
3.0
 40
4.0
 40
4.0
 40
4.0
 40
5.0
 40
5.0
 40
5.0
 40
6.0
 40
6.0
 40
6.0
 40
7.0
 40
7.0
 40
7.0
 40
8.0
 40
8.0
 40
8.0
 40
9.0
 40
9.0
 40
9.0
 40
10.0
 40
10.0
 40
10.0
 40
11.0
 40
11.0
 40
11.0
 40
12.0
 40
12.0
 40
12.0
 40
13.0
 40
13.0
 40
13.0
 40
14.0
 40
14.0
 40
14.0
 40
15.0
 40
15.0
 40
15.0
 40
16.0
 40
16.0
 40
16.0
 40
17.0
 40
17.0
 40
17.0
 40
18.0
 40
18.0
 40
18.0
 40
18.0
 10
112.85822753906248
 20
24.879446072048609
 30
0.0
 10
112.77967936197916
 20
24.153908962673608
 30
0.0
 10
112.90680338541665
 20
25.116813151041665
 30
0.0
 10
112.79483778211805
 20
24.398166232638886
 30
0.0
 10
112.54506835937499
 20
23.720860460069442
 30
0.0
 10
112.91369357638888
 20
24.610728624131941
 30
0.0
 10
112.61052517361109
 20
23.953404405381942
 30
0.0
 10
112.18781195746527
 20
23.359125434027774
 30
0.0
 10
112.77864583333333
 20
24.129793294270833
 30
0.0
 10
112.31493598090277
 20
23.567898220486111
 30
0.0
 10
111.75338541666666
 20
23.103843858506941
 30
0.0
 10
112.52405327690971
 20
23.694677734374999
 30
0.0
 10
111.92977430555554
 20
23.272653537326388
 30
0.0
 10
111.27245008680555
 20
22.971896701388886
 30
0.0
 10
112.16197374131943
 20
23.340521918402775
 30
0.0
 10
111.4850124782986
 20
23.088340928819441
 30
0.0
 10
110.76636555989582
 20
22.966729058159721
 30
0.0
 10
111.72892523871526
 20
23.093853081597221
 30
0.0
 10
111.00338812934027
 20
23.024606662326388
 30
0.0
 10
110.27785101996527
 20
23.093853081597221
 30
0.0
 10
111.24075520833333
 20
22.966729058159721
 30
0.0
 10
110.52210828993054
 20
23.088340928819441
 30
0.0
 10
109.8448025173611
 20
23.340521918402775
 30
0.0
 10
110.73467068142359
 20
22.971896701388886
 30
0.0
 10
110.0773464626736
 20
23.272653537326388
 30
0.0
 10
109.48306749131943
 20
23.694677734374999
 30
0.0
 10
110.25373535156248
 20
23.103843858506941
 30
0.0
 10
109.69184027777777
 20
23.567898220486111
 30
0.0
 10
109.22778591579861
 20
24.129793294270833
 30
0.0
 10
109.81861979166666
 20
23.359125434027774
 30
0.0
 10
109.39659559461805
 20
23.953404405381942
 30
0.0
 10
109.09583875868054
 20
24.610728624131941
 30
0.0
 10
109.46446397569443
 20
23.720860460069442
 30
0.0
 10
109.21228298611111
 20
24.398166232638886
 30
0.0
 10
109.09032660590277
 20
25.116468641493054
 30
0.0
 10
109.21745062934026
 20
24.153564453124996
 30
0.0
 10
109.14854871961805
 20
24.879446072048609
 30
0.0
 10
109.4262234157986
 20
26.310194227430554
 30
0.0
 10
108.91944986979166
 20
24.438129340277776
 30
0.0
 10
109.40176323784721
 20
25.815823025173607
 30
0.0
 10
110.32849392361111
 20
26.885525173611107
 30
0.0
 10
108.99765353732639
 20
25.554684787326387
 30
0.0
 10
110.06735568576389
 20
26.481070963541665
 30
0.0
 10
111.44436035156249
 20
26.964073350694441
 30
0.0
 10
109.57195095486109
 20
26.457299804687498
 30
0.0
 10
111.00338812934027
 20
26.734285481770829
 30
0.0
 10
112.43275824652777
 20
26.457644314236109
 30
0.0
 10
110.56034884982638
 20
26.964073350694441
 30
0.0
 10
111.93976508246527
 20
26.481070963541665
 30
0.0
 10
113.01945800781249
 20
25.554340277777776
 30
0.0
 10
111.68861762152777
 20
26.885180664062499
 30
0.0
 10
112.60501302083333
 20
25.815823025173607
 30
0.0
 10
113.0477077907986
 20
24.439507378472221
 30
0.0
 10
112.54127875434027
 20
26.311916775173607
 30
0.0
 10
112.85822753906248
 20
24.879446072048609
 30
0.0
  0
SPLINE
  5
33
100
AcDbEntity
  8
LAYER_1
 62
     5
100
AcDbSpline
210
0.0
220
0.0
230
1.0
 70
     8
 71
     3
 72
    41
 73
    37
 74
     0
 42
0.00000001
 43
0.00000001
 40
0.0
 40
0.0
 40
0.0
 40
0.0
 40
1.0
 40
1.0
 40
1.0
 40
2.0
 40
2.0
 40
2.0
 40
3.0
 40
3.0
 40
3.0
 40
4.0
 40
4.0
 40
4.0
 40
5.0
 40
5.0
 40
5.0
 40
6.0
 40
6.0
 40
6.0
 40
7.0
 40
7.0
 40
7.0
 40
8.0
 40
8.0
 40
8.0
 40
9.0
 40
9.0
 40
9.0
 40
10.0
 40
10.0
 40
10.0
 40
11.0
 40
11.0
 40
11.0
 40
12.0
 40
12.0
 40
12.0
 40
12.0
 10
107.04669596354165
 20
20.646112738715274
 30
0.0
 10
106.72974717881944
 20
19.213642035590276
 30
0.0
 10
107.23617621527777
 20
21.086051432291665
 30
0.0
 10
106.79348144531249
 20
19.709735785590276
 30
0.0
 10
105.87708604600694
 20
18.640378146701387
 30
0.0
 10
107.20792643229166
 20
19.971218532986111
 30
0.0
 10
106.12823350694444
 20
19.044487847222221
 30
0.0
 10
104.74881727430555
 20
18.561485460069441
 30
0.0
 10
106.62122667100694
 20
19.068259006076389
 30
0.0
 10
105.19185655381943
 20
18.791273328993054
 30
0.0
 10
103.76041937934026
 20
19.068259006076389
 30
0.0
 10
105.63282877604166
 20
18.561485460069441
 30
0.0
 10
104.25582411024304
 20
19.044487847222221
 30
0.0
 10
103.18612196180554
 20
19.971218532986111
 30
0.0
 10
104.51696234809027
 20
18.640378146701387
 30
0.0
 10
103.59023166232637
 20
19.709735785590276
 30
0.0
 10
103.10757378472221
 20
21.086051432291665
 30
0.0
 10
103.61400282118055
 20
19.213642035590276
 30
0.0
 10
103.33701714409722
 20
20.646112738715274
 30
0.0
 10
103.61400282118055
 20
22.078238932291665
 30
0.0
 10
103.10757378472221
 20
20.205829535590276
 30
0.0
 10
103.59023166232637
 20
21.582145182291665
 30
0.0
 10
104.51696234809027
 20
22.651502821180554
 30
0.0
 10
103.18612196180554
 20
21.32066243489583
 30
0.0
 10
104.25582411024304
 20
22.247737630208331
 30
0.0
 10
105.63282877604166
 20
22.730395507812499
 30
0.0
 10
103.76041937934026
 20
22.223966471354164
 30
0.0
 10
105.19185655381943
 20
22.500952148437499
 30
0.0
 10
106.62122667100694
 20
22.223966471354164
 30
0.0
 10
104.74881727430555
 20
22.730395507812499
 30
0.0
 10
106.12823350694444
 20
22.247737630208331
 30
0.0
 10
107.20792643229166
 20
21.32066243489583
 30
0.0
 10
105.87708604600694
 20
22.651502821180554
 30
0.0
 10
106.79348144531249
 20
21.582145182291665
 30
0.0
 10
107.23617621527777
 20
20.205829535590276
 30
0.0
 10
106.72974717881944
 20
22.078238932291665
 30
0.0
 10
107.04669596354165
 20
20.646112738715274
 30
0.0
  0
SPLINE
  5
32
100
AcDbEntity
  8
LAYER_1
 62
     5
100
AcDbSpline
210
0.0
220
0.0
230
1.0
 70
     8
 71
     3
 72
    41
 73
    37
 74
     0
 42
0.00000001
 43
0.00000001
 40
0.0
 40
0.0
 40
0.0
 40
0.0
 40
1.0
 40
1.0
 40
1.0
 40
2.0
 40
2.0
 40
2.0
 40
3.0
 40
3.0
 40
3.0
 40
4.0
 40
4.0
 40
4.0
 40
5.0
 40
5.0
 40
5.0
 40
6.0
 40
6.0
 40
6.0
 40
7.0
 40
7.0
 40
7.0
 40
8.0
 40
8.0
 40
8.0
 40
9.0
 40
9.0
 40
9.0
 40
10.0
 40
10.0
 40
10.0
 40
11.0
 40
11.0
 40
11.0
 40
12.0
 40
12.0
 40
12.0
 40
12.0
 10
99.862293836805549
 20
20.646112738715274
 30
0.0
 10
99.54534505208332
 20
19.213642035590276
 30
0.0
 10
100.05177408854166
 20
21.086051432291665
 30
0.0
 10
99.609079318576377
 20
19.709735785590276
 30
0.0
 10
98.69268391927082
 20
18.640378146701387
 30
0.0
 10
100.02352430555554
 20
19.971218532986111
 30
0.0
 10
98.943831380208323
 20
19.044487847222221
 30
0.0
 10
97.564415147569434
 20
18.561485460069441
 30
0.0
 10
99.43682454427082
 20
19.068259006076389
 30
0.0
 10
98.007454427083331
 20
18.791273328993054
 30
0.0
 10
96.57601725260416
 20
19.068259006076389
 30
0.0
 10
98.448426649305546
 20
18.561485460069441
 30
0.0
 10
97.071421983506937
 20
19.044487847222221
 30
0.0
 10
96.001719835069437
 20
19.971218532986111
 30
0.0
 10
97.332560221354157
 20
18.640378146701387
 30
0.0
 10
96.405829535590271
 20
19.709735785590276
 30
0.0
 10
95.923171657986103
 20
21.086051432291665
 30
0.0
 10
96.429600694444431
 20
19.213642035590276
 30
0.0
 10
96.1526150173611
 20
20.646112738715274
 30
0.0
 10
96.429600694444431
 20
22.078238932291665
 30
0.0
 10
95.923171657986103
 20
20.205829535590276
 30
0.0
 10
96.405829535590271
 20
21.582145182291665
 30
0.0
 10
97.332560221354157
 20
22.651502821180554
 30
0.0
 10
96.001719835069437
 20
21.32066243489583
 30
0.0
 10
97.071421983506937
 20
22.247737630208331
 30
0.0
 10
98.448426649305546
 20
22.730395507812499
 30
0.0
 10
96.57601725260416
 20
22.223966471354164
 30
0.0
 10
98.007454427083331
 20
22.500952148437499
 30
0.0
 10
99.43682454427082
 20
22.223966471354164
 30
0.0
 10
97.564415147569434
 20
22.730395507812499
 30
0.0
 10
98.943831380208323
 20
22.247737630208331
 30
0.0
 10
100.02352430555554
 20
21.32066243489583
 30
0.0
 10
98.69268391927082
 20
22.651502821180554
 30
0.0
 10
99.609079318576377
 20
21.582145182291665
 30
0.0
 10
100.05177408854166
 20
20.205829535590276
 30
0.0
 10
99.54534505208332
 20
22.078238932291665
 30
0.0
 10
99.862293836805549
 20
20.646112738715274
 30
0.0
  0
SPLINE
  5
31
100
AcDbEntity
  8
LAYER_1
 62
     5
100
AcDbSpline
210
0.0
220
0.0
230
1.0
 70
     8
 71
     3
 72
    68
 73
    64
 74
     0
 42
0.00000001
 43
0.00000001
 40
0.0
 40
0.0
 40
0.0
 40
0.0
 40
1.0
 40
1.0
 40
1.0
 40
2.0
 40
2.0
 40
2.0
 40
3.0
 40
3.0
 40
3.0
 40
4.0
 40
4.0
 40
4.0
 40
5.0
 40
5.0
 40
5.0
 40
6.0
 40
6.0
 40
6.0
 40
7.0
 40
7.0
 40
7.0
 40
8.0
 40
8.0
 40
8.0
 40
9.0
 40
9.0
 40
9.0
 40
10.0
 40
10.0
 40
10.0
 40
11.0
 40
11.0
 40
11.0
 40
12.0
 40
12.0
 40
12.0
 40
13.0
 40
13.0
 40
13.0
 40
14.0
 40
14.0
 40
14.0
 40
15.0
 40
15.0
 40
15.0
 40
16.0
 40
16.0
 40
16.0
 40
17.0
 40
17.0
 40
17.0
 40
18.0
 40
18.0
 40
18.0
 40
19.0
 40
19.0
 40
19.0
 40
20.0
 40
20.0
 40
20.0
 40
21.0
 40
21.0
 40
21.0
 40
21.0
 10
94.04662814670138
 20
24.879446072048609
 30
0.0
 10
93.968079969618046
 20
24.153908962673608
 30
0.0
 10
94.095203993055549
 20
25.116813151041665
 30
0.0
 10
93.983238389756934
 20
24.398166232638886
 30
0.0
 10
93.733468967013877
 20
23.720860460069442
 30
0.0
 10
94.102094184027763
 20
24.610728624131941
 30
0.0
 10
93.798925781249991
 20
23.953404405381942
 30
0.0
 10
93.376212565104154
 20
23.359125434027774
 30
0.0
 10
93.967046440972211
 20
24.129793294270833
 30
0.0
 10
93.503336588541657
 20
23.567898220486111
 30
0.0
 10
92.941786024305543
 20
23.103843858506941
 30
0.0
 10
93.712453884548609
 20
23.694677734374999
 30
0.0
 10
93.118174913194437
 20
23.272653537326388
 30
0.0
 10
92.460850694444431
 20
22.971896701388886
 30
0.0
 10
93.350718858506937
 20
23.340521918402775
 30
0.0
 10
92.673413085937497
 20
23.088340928819441
 30
0.0
 10
91.954766167534714
 20
22.966729058159721
 30
0.0
 10
92.91732584635416
 20
23.093853081597221
 30
0.0
 10
92.191788736979163
 20
23.024606662326388
 30
0.0
 10
91.466251627604152
 20
23.093853081597221
 30
0.0
 10
92.429155815972209
 20
22.966729058159721
 30
0.0
 10
91.71050889756944
 20
23.088340928819441
 30
0.0
 10
91.033203124999986
 20
23.340521918402775
 30
0.0
 10
91.923071289062491
 20
22.971896701388886
 30
0.0
 10
91.265747070312486
 20
23.272653537326388
 30
0.0
 10
90.671468098958329
 20
23.694677734374999
 30
0.0
 10
91.44213595920138
 20
23.103843858506941
 30
0.0
 10
90.880240885416654
 20
23.567898220486111
 30
0.0
 10
90.416186523437489
 20
24.129793294270833
 30
0.0
 10
91.007020399305546
 20
23.359125434027774
 30
0.0
 10
90.584996202256931
 20
23.953404405381942
 30
0.0
 10
90.28423936631944
 20
24.610728624131941
 30
0.0
 10
90.652864583333326
 20
23.720860460069442
 30
0.0
 10
90.400683593749989
 20
24.398166232638886
 30
0.0
 10
90.279071723090269
 20
25.116813151041665
 30
0.0
 10
90.406195746527771
 20
24.153908962673608
 30
0.0
 10
90.336949327256931
 20
24.879446072048609
 30
0.0
 10
90.406195746527771
 20
25.604983181423609
 30
0.0
 10
90.279071723090269
 20
24.642423502604164
 30
0.0
 10
90.400683593749989
 20
25.361070421006943
 30
0.0
 10
90.652864583333326
 20
26.038376193576386
 30
0.0
 10
90.28423936631944
 20
25.148508029513888
 30
0.0
 10
90.584996202256931
 20
25.805832248263886
 30
0.0
 10
91.007020399305546
 20
26.400111219618054
 30
0.0
 10
90.416186523437489
 20
25.629443359374999
 30
0.0
 10
90.880240885416654
 20
26.19099392361111
 30
0.0
 10
91.44213595920138
 20
26.655392795138887
 30
0.0
 10
90.671468098958329
 20
26.06455891927083
 30
0.0
 10
91.265747070312486
 20
26.486583116319441
 30
0.0
 10
91.923071289062491
 20
26.786995442708331
 30
0.0
 10
91.033203124999986
 20
26.418370225694442
 30
0.0
 10
91.71050889756944
 20
26.670895724826387
 30
0.0
 10
92.429155815972209
 20
26.792852105034719
 30
0.0
 10
91.466251627604152
 20
26.665728081597219
 30
0.0
 10
92.191788736979163
 20
26.734285481770829
 30
0.0
 10
93.620125325520831
 20
26.456955295138886
 30
0.0
 10
91.747715928819431
 20
26.963384331597219
 30
0.0
 10
93.128165690104154
 20
26.481070963541665
 30
0.0
 10
94.208203124999997
 20
25.554340277777776
 30
0.0
 10
92.877362738715263
 20
26.885180664062499
 30
0.0
 10
93.793413628472209
 20
25.815823025173607
 30
0.0
 10
94.236108398437494
 20
24.439507378472221
 30
0.0
 10
93.72933485243054
 20
26.311916775173607
 30
0.0
 10
94.04662814670138
 20
24.879446072048609
 30
0.0
  0
SPLINE
  5
30
100
AcDbEntity
  8
LAYER_1
 62
     5
100
AcDbSpline
210
0.0
220
0.0
230
1.0
 70
     8
 71
     3
 72
    59
 73
    55
 74
     0
 42
0.00000001
 43
0.00000001
 40
0.0
 40
0.0
 40
0.0
 40
0.0
 40
1.0
 40
1.0
 40
1.0
 40
2.0
 40
2.0
 40
2.0
 40
3.0
 40
3.0
 40
3.0
 40
4.0
 40
4.0
 40
4.0
 40
5.0
 40
5.0
 40
5.0
 40
6.0
 40
6.0
 40
6.0
 40
7.0
 40
7.0
 40
7.0
 40
8.0
 40
8.0
 40
8.0
 40
9.0
 40
9.0
 40
9.0
 40
10.0
 40
10.0
 40
10.0
 40
11.0
 40
11.0
 40
11.0
 40
12.0
 40
12.0
 40
12.0
 40
13.0
 40
13.0
 40
13.0
 40
14.0
 40
14.0
 40
14.0
 40
15.0
 40
15.0
 40
15.0
 40
16.0
 40
16.0
 40
16.0
 40
17.0
 40
17.0
 40
17.0
 40
18.0
 40
18.0
 40
18.0
 40
18.0
 10
91.834876844618051
 20
31.749999999999996
 30
0.0
 10
91.755984157986106
 20
31.024462890624996
 30
0.0
 10
91.883108181423609
 20
31.987194824218747
 30
0.0
 10
91.771142578124994
 20
31.268720160590274
 30
0.0
 10
91.521373155381937
 20
30.59141438802083
 30
0.0
 10
91.889998372395823
 20
31.481110297309026
 30
0.0
 10
91.586829969618051
 20
30.823613823784719
 30
0.0
 10
91.164116753472214
 20
30.229679361979162
 30
0.0
 10
91.754950629340271
 20
31.000347222222221
 30
0.0
 10
91.291585286458329
 20
30.438452148437499
 30
0.0
 10
90.729690212673603
 20
29.974053276909718
 30
0.0
 10
91.500358072916654
 20
30.565231662326386
 30
0.0
 10
90.906079101562497
 20
30.142862955729164
 30
0.0
 10
90.248754882812491
 20
29.842450629340274
 30
0.0
 10
91.138623046874997
 20
30.211075846354163
 30
0.0
 10
90.461317274305543
 20
29.958550347222218
 30
0.0
 10
89.742670355902774
 20
29.836938476562498
 30
0.0
 10
90.705574544270831
 20
29.964062499999997
 30
0.0
 10
89.98003743489582
 20
29.895160590277776
 30
0.0
 10
89.254500325520823
 20
29.964062499999997
 30
0.0
 10
90.217060004340269
 20
29.836938476562498
 30
0.0
 10
89.498413085937486
 20
29.958550347222218
 30
0.0
 10
88.821107313368046
 20
30.211075846354163
 30
0.0
 10
89.710975477430551
 20
29.842450629340274
 30
0.0
 10
89.053651258680546
 20
30.142862955729164
 30
0.0
 10
88.459372287326374
 20
30.565231662326386
 30
0.0
 10
89.23004014756944
 20
29.974053276909718
 30
0.0
 10
88.668489583333326
 20
30.438452148437499
 30
0.0
 10
88.204090711805549
 20
31.000347222222221
 30
0.0
 10
88.794924587673606
 20
30.229679361979162
 30
0.0
 10
88.372900390624991
 20
30.823613823784719
 30
0.0
 10
88.072488064236097
 20
31.481110297309026
 30
0.0
 10
88.441113281249997
 20
30.59141438802083
 30
0.0
 10
88.188587782118049
 20
31.268720160590274
 30
0.0
 10
88.066631401909717
 20
31.986850314670136
 30
0.0
 10
88.19375542534722
 20
31.024118381076384
 30
0.0
 10
88.125198025173603
 20
31.749999999999996
 30
0.0
 10
88.402528211805546
 20
33.180748155381941
 30
0.0
 10
87.896099175347217
 20
31.308338758680552
 30
0.0
 10
88.378412543402774
 20
32.686204698350693
 30
0.0
 10
89.304798719618049
 20
33.755906846788193
 30
0.0
 10
87.973958333333329
 20
32.425066460503466
 30
0.0
 10
89.043660481770829
 20
33.351624891493053
 30
0.0
 10
90.420665147569437
 20
33.834282769097221
 30
0.0
 10
88.548600260416663
 20
33.327853732638886
 30
0.0
 10
89.98003743489582
 20
33.604839409722217
 30
0.0
 10
91.409063042534711
 20
33.328025987413191
 30
0.0
 10
89.536998155381937
 20
33.834455023871527
 30
0.0
 10
90.916069878472214
 20
33.351624891493053
 30
0.0
 10
91.995762803819431
 20
32.424721950954861
 30
0.0
 10
90.664922417534711
 20
33.755562337239581
 30
0.0
 10
91.58166232638888
 20
32.686204698350693
 30
0.0
 10
92.024012586805554
 20
31.310061306423609
 30
0.0
 10
91.517583550347211
 20
33.182298448350693
 30
0.0
 10
91.834876844618051
 20
31.749999999999996
 30
0.0
  0
SPLINE
  5
2F
100
AcDbEntity
  8
LAYER_1
 62
     5
100
AcDbSpline
210
0.0
220
0.0
230
1.0
 70
     8
 71
     3
 72
    68
 73
    64
 74
     0
 42
0.00000001
 43
0.00000001
 40
0.0
 40
0.0
 40
0.0
 40
0.0
 40
1.0
 40
1.0
 40
1.0
 40
2.0
 40
2.0
 40
2.0
 40
3.0
 40
3.0
 40
3.0
 40
4.0
 40
4.0
 40
4.0
 40
5.0
 40
5.0
 40
5.0
 40
6.0
 40
6.0
 40
6.0
 40
7.0
 40
7.0
 40
7.0
 40
8.0
 40
8.0
 40
8.0
 40
9.0
 40
9.0
 40
9.0
 40
10.0
 40
10.0
 40
10.0
 40
11.0
 40
11.0
 40
11.0
 40
12.0
 40
12.0
 40
12.0
 40
13.0
 40
13.0
 40
13.0
 40
14.0
 40
14.0
 40
14.0
 40
15.0
 40
15.0
 40
15.0
 40
16.0
 40
16.0
 40
16.0
 40
17.0
 40
17.0
 40
17.0
 40
18.0
 40
18.0
 40
18.0
 40
19.0
 40
19.0
 40
19.0
 40
20.0
 40
20.0
 40
20.0
 40
21.0
 40
21.0
 40
21.0
 40
21.0
 10
94.04662814670138
 20
38.609874131944444
 30
0.0
 10
93.968079969618046
 20
37.88433702256944
 30
0.0
 10
94.095203993055549
 20
38.847068956163191
 30
0.0
 10
93.983238389756934
 20
38.128422037760416
 30
0.0
 10
93.733468967013877
 20
37.451116265190969
 30
0.0
 10
94.102094184027763
 20
38.340984429253467
 30
0.0
 10
93.798925781249991
 20
37.683660210503469
 30
0.0
 10
93.376212565104154
 20
37.08955349392361
 30
0.0
 10
93.967046440972211
 20
37.860049099392356
 30
0.0
 10
93.503336588541657
 20
37.298326280381943
 30
0.0
 10
92.941786024305543
 20
36.834099663628471
 30
0.0
 10
93.712453884548609
 20
37.424933539496521
 30
0.0
 10
93.118174913194437
 20
37.002909342447914
 30
0.0
 10
92.460850694444431
 20
36.702324761284721
 30
0.0
 10
93.350718858506937
 20
37.070777723524301
 30
0.0
 10
92.673413085937497
 20
36.818596733940971
 30
0.0
 10
91.954766167534714
 20
36.696984863281244
 30
0.0
 10
92.91732584635416
 20
36.823936631944441
 30
0.0
 10
92.191788736979163
 20
36.75503472222222
 30
0.0
 10
91.466251627604152
 20
36.823936631944441
 30
0.0
 10
92.429155815972209
 20
36.696984863281244
 30
0.0
 10
91.71050889756944
 20
36.818596733940971
 30
0.0
 10
91.033203124999986
 20
37.070777723524301
 30
0.0
 10
91.923071289062491
 20
36.702324761284721
 30
0.0
 10
91.265747070312486
 20
37.002909342447914
 30
0.0
 10
90.671468098958329
 20
37.424933539496521
 30
0.0
 10
91.44213595920138
 20
36.834099663628471
 30
0.0
 10
90.880240885416654
 20
37.298326280381943
 30
0.0
 10
90.416186523437489
 20
37.860049099392356
 30
0.0
 10
91.007020399305546
 20
37.08955349392361
 30
0.0
 10
90.584996202256931
 20
37.683660210503469
 30
0.0
 10
90.28423936631944
 20
38.340984429253467
 30
0.0
 10
90.652864583333326
 20
37.451116265190969
 30
0.0
 10
90.400683593749989
 20
38.128422037760416
 30
0.0
 10
90.279071723090269
 20
38.847068956163191
 30
0.0
 10
90.406195746527771
 20
37.88433702256944
 30
0.0
 10
90.336949327256931
 20
38.609874131944444
 30
0.0
 10
90.406195746527771
 20
39.335411241319441
 30
0.0
 10
90.279071723090269
 20
38.37267930772569
 30
0.0
 10
90.400683593749989
 20
39.09115397135416
 30
0.0
 10
90.652864583333326
 20
39.768459743923607
 30
0.0
 10
90.28423936631944
 20
38.878763834635414
 30
0.0
 10
90.584996202256931
 20
39.536088053385413
 30
0.0
 10
91.007020399305546
 20
40.130194769965271
 30
0.0
 10
90.416186523437489
 20
39.35952690972222
 30
0.0
 10
90.880240885416654
 20
39.921421983506939
 30
0.0
 10
91.44213595920138
 20
40.38564860026041
 30
0.0
 10
90.671468098958329
 20
39.79481472439236
 30
0.0
 10
91.265747070312486
 20
40.216838921440967
 30
0.0
 10
91.923071289062491
 20
40.51742350260416
 30
0.0
 10
91.033203124999986
 20
40.148798285590274
 30
0.0
 10
91.71050889756944
 20
40.40115152994791
 30
0.0
 10
92.429155815972209
 20
40.522935655381943
 30
0.0
 10
91.466251627604152
 20
40.395983886718746
 30
0.0
 10
92.191788736979163
 20
40.464713541666661
 30
0.0
 10
93.620125325520831
 20
40.187383355034719
 30
0.0
 10
91.747715928819431
 20
40.693812391493054
 30
0.0
 10
93.128165690104154
 20
40.211499023437497
 30
0.0
 10
94.208203124999997
 20
39.284596082899299
 30
0.0
 10
92.877362738715263
 20
40.615436469184026
 30
0.0
 10
93.793413628472209
 20
39.546078830295137
 30
0.0
 10
94.236108398437494
 20
38.169763183593744
 30
0.0
 10
93.72933485243054
 20
40.042000325520831
 30
0.0
 10
94.04662814670138
 20
38.609874131944444
 30
0.0
  0
SPLINE
  5
2E
100
AcDbEntity
  8
LAYER_1
 62
     7
100
AcDbSpline
210
0.0
220
0.0
230
1.0
 70
     8
 71
     3
 72
    77
 73
    73
 74
     0
 42
0.00000001
 43
0.00000001
 40
0.0
 40
0.0
 40
0.0
 40
0.0
 40
1.0
 40
1.0
 40
1.0
 40
2.0
 40
2.0
 40
2.0
 40
3.0
 40
3.0
 40
3.0
 40
4.0
 40
4.0
 40
4.0
 40
5.0
 40
5.0
 40
5.0
 40
6.0
 40
6.0
 40
6.0
 40
7.0
 40
7.0
 40
7.0
 40
8.0
 40
8.0
 40
8.0
 40
9.0
 40
9.0
 40
9.0
 40
10.0
 40
10.0
 40
10.0
 40
11.0
 40
11.0
 40
11.0
 40
12.0
 40
12.0
 40
12.0
 40
13.0
 40
13.0
 40
13.0
 40
14.0
 40
14.0
 40
14.0
 40
15.0
 40
15.0
 40
15.0
 40
16.0
 40
16.0
 40
16.0
 40
17.0
 40
17.0
 40
17.0
 40
18.0
 40
18.0
 40
18.0
 40
19.0
 40
19.0
 40
19.0
 40
20.0
 40
20.0
 40
20.0
 40
21.0
 40
21.0
 40
21.0
 40
22.0
 40
22.0
 40
22.0
 40
23.0
 40
23.0
 40
23.0
 40
24.0
 40
24.0
 40
24.0
 40
24.0
 10
102.14156901041666
 20
34.644569227430551
 30
0.0
 10
102.11986490885415
 20
34.444409179687497
 30
0.0
 10
102.15500488281249
 20
34.710026041666666
 30
0.0
 10
102.12399902343749
 20
34.511760796440967
 30
0.0
 10
102.05509711371526
 20
34.324864366319439
 30
0.0
 10
102.15672743055555
 20
34.57032741970486
 30
0.0
 10
102.07301161024304
 20
34.388943142361107
 30
0.0
 10
101.95656738281249
 20
34.225128851996523
 30
0.0
 10
102.11952039930554
 20
34.437691243489581
 30
0.0
 10
101.99170735677082
 20
34.282661946614581
 30
0.0
 10
101.83667805989582
 20
34.15467664930555
 30
0.0
 10
102.04924045138888
 20
34.317629665798606
 30
0.0
 10
101.88525390624999
 20
34.20118543836805
 30
0.0
 10
101.70369737413193
 20
34.118158637152774
 30
0.0
 10
101.94933268229165
 20
34.219961208767359
 30
0.0
 10
101.76260850694443
 20
34.150370279947914
 30
0.0
 10
101.56417100694443
 20
34.116780598958329
 30
0.0
 10
101.8297878689236
 20
34.15174831814236
 30
0.0
 10
101.62962782118055
 20
34.132800292968746
 30
0.0
 10
101.42946777343749
 20
34.15174831814236
 30
0.0
 10
101.69508463541666
 20
34.116780598958329
 30
0.0
 10
101.49664713541665
 20
34.150370279947914
 30
0.0
 10
101.30992296006943
 20
34.219961208767359
 30
0.0
 10
101.55555826822916
 20
34.118158637152774
 30
0.0
 10
101.3740017361111
 20
34.20118543836805
 30
0.0
 10
101.21001519097221
 20
34.317629665798606
 30
0.0
 10
101.42257758246527
 20
34.15467664930555
 30
0.0
 10
101.26754828559027
 20
34.282661946614581
 30
0.0
 10
101.13973524305554
 20
34.437691243489581
 30
0.0
 10
101.3026882595486
 20
34.225128851996523
 30
0.0
 10
101.18624403211804
 20
34.388943142361107
 30
0.0
 10
101.10321723090277
 20
34.57032741970486
 30
0.0
 10
101.20484754774304
 20
34.324864366319439
 30
0.0
 10
101.13525661892361
 20
34.511760796440967
 30
0.0
 10
101.10183919270833
 20
34.710026041666666
 30
0.0
 10
101.13697916666666
 20
34.444409179687497
 30
0.0
 10
101.11768663194444
 20
34.644569227430551
 30
0.0
 10
101.13697916666666
 20
34.844901529947911
 30
0.0
 10
101.10183919270833
 20
34.579112413194444
 30
0.0
 10
101.13525661892361
 20
34.777377658420136
 30
0.0
 10
101.20484754774304
 20
34.964274088541664
 30
0.0
 10
101.10321723090277
 20
34.71881103515625
 30
0.0
 10
101.18624403211804
 20
34.900195312499996
 30
0.0
 10
101.3026882595486
 20
35.064181857638886
 30
0.0
 10
101.13973524305554
 20
34.851447211371521
 30
0.0
 10
101.26754828559027
 20
35.006476508246521
 30
0.0
 10
101.42257758246527
 20
35.134634060329859
 30
0.0
 10
101.21001519097221
 20
34.971508789062497
 30
0.0
 10
101.3740017361111
 20
35.088125271267359
 30
0.0
 10
101.55555826822916
 20
35.170979817708329
 30
0.0
 10
101.30992296006943
 20
35.06934950086805
 30
0.0
 10
101.49664713541665
 20
35.138940429687494
 30
0.0
 10
101.69508463541666
 20
35.17253011067708
 30
0.0
 10
101.42946777343749
 20
35.13739013671875
 30
0.0
 10
101.62962782118055
 20
35.156510416666663
 30
0.0
 10
101.8297878689236
 20
35.13739013671875
 30
0.0
 10
101.56417100694443
 20
35.17253011067708
 30
0.0
 10
101.76260850694443
 20
35.138940429687494
 30
0.0
 10
101.94933268229165
 20
35.06934950086805
 30
0.0
 10
101.70369737413193
 20
35.170979817708329
 30
0.0
 10
101.88525390624999
 20
35.088125271267359
 30
0.0
 10
102.04924045138888
 20
34.971508789062497
 30
0.0
 10
101.83667805989582
 20
35.134634060329859
 30
0.0
 10
101.99170735677082
 20
35.006476508246521
 30
0.0
 10
102.11952039930554
 20
34.851447211371521
 30
0.0
 10
101.95656738281249
 20
35.064181857638886
 30
0.0
 10
102.07301161024304
 20
34.900195312499996
 30
0.0
 10
102.15672743055555
 20
34.71881103515625
 30
0.0
 10
102.05509711371526
 20
34.964274088541664
 30
0.0
 10
102.12399902343749
 20
34.777377658420136
 30
0.0
 10
102.15500488281249
 20
34.579112413194444
 30
0.0
 10
102.11986490885415
 20
34.844901529947911
 30
0.0
 10
102.14156901041666
 20
34.644569227430551
 30
0.0
  0
SPLINE
  5
2D
100
AcDbEntity
  8
LAYER_1
 62
     7
100
AcDbSpline
210
0.0
220
0.0
230
1.0
 70
     8
 71
     3
 72
    77
 73
    73
 74
     0
 42
0.00000001
 43
0.00000001
 40
0.0
 40
0.0
 40
0.0
 40
0.0
 40
1.0
 40
1.0
 40
1.0
 40
2.0
 40
2.0
 40
2.0
 40
3.0
 40
3.0
 40
3.0
 40
4.0
 40
4.0
 40
4.0
 40
5.0
 40
5.0
 40
5.0
 40
6.0
 40
6.0
 40
6.0
 40
7.0
 40
7.0
 40
7.0
 40
8.0
 40
8.0
 40
8.0
 40
9.0
 40
9.0
 40
9.0
 40
10.0
 40
10.0
 40
10.0
 40
11.0
 40
11.0
 40
11.0
 40
12.0
 40
12.0
 40
12.0
 40
13.0
 40
13.0
 40
13.0
 40
14.0
 40
14.0
 40
14.0
 40
15.0
 40
15.0
 40
15.0
 40
16.0
 40
16.0
 40
16.0
 40
17.0
 40
17.0
 40
17.0
 40
18.0
 40
18.0
 40
18.0
 40
19.0
 40
19.0
 40
19.0
 40
20.0
 40
20.0
 40
20.0
 40
21.0
 40
21.0
 40
21.0
 40
22.0
 40
22.0
 40
22.0
 40
23.0
 40
23.0
 40
23.0
 40
24.0
 40
24.0
 40
24.0
 40
24.0
 10
103.88719889322915
 20
29.252994791666666
 30
0.0
 10
103.86549479166666
 20
29.052834743923608
 30
0.0
 10
103.90063476562499
 20
29.318451605902776
 30
0.0
 10
103.8699734157986
 20
29.120014105902776
 30
0.0
 10
103.80107150607638
 20
28.933289930555553
 30
0.0
 10
103.90270182291665
 20
29.178580729166665
 30
0.0
 10
103.81898600260416
 20
28.997368706597218
 30
0.0
 10
103.70219726562499
 20
28.833382161458331
 30
0.0
 10
103.86549479166666
 20
29.045944552951386
 30
0.0
 10
103.73733723958333
 20
28.890915256076386
 30
0.0
 10
103.58230794270833
 20
28.762757703993053
 30
0.0
 10
103.79521484374999
 20
28.92605523003472
 30
0.0
 10
103.63122829861111
 20
28.809611002604164
 30
0.0
 10
103.44967176649304
 20
28.726584201388885
 30
0.0
 10
103.69530707465277
 20
28.828214518229164
 30
0.0
 10
103.50823838975694
 20
28.758623589409719
 30
0.0
 10
103.31014539930554
 20
28.725206163194443
 30
0.0
 10
103.57576226128471
 20
28.760001627604165
 30
0.0
 10
103.37560221354165
 20
28.741053602430554
 30
0.0
 10
103.1754421657986
 20
28.760001627604165
 30
0.0
 10
103.44105902777777
 20
28.725206163194443
 30
0.0
 10
103.24262152777777
 20
28.758623589409719
 30
0.0
 10
103.05589735243055
 20
28.828214518229164
 30
0.0
 10
103.30118815104166
 20
28.726584201388885
 30
0.0
 10
103.11997612847222
 20
28.809611002604164
 30
0.0
 10
102.95598958333332
 20
28.92605523003472
 30
0.0
 10
103.16855197482639
 20
28.762757703993053
 30
0.0
 10
103.01352267795139
 20
28.890915256076386
 30
0.0
 10
102.88536512586805
 20
29.045944552951386
 30
0.0
 10
103.04866265190971
 20
28.833382161458331
 30
0.0
 10
102.93221842447916
 20
28.997368706597218
 30
0.0
 10
102.84919162326388
 20
29.178580729166665
 30
0.0
 10
102.95082194010416
 20
28.933289930555553
 30
0.0
 10
102.88123101128471
 20
29.120014105902776
 30
0.0
 10
102.84781358506943
 20
29.318451605902776
 30
0.0
 10
102.88260904947916
 20
29.052834743923608
 30
0.0
 10
102.86366102430554
 20
29.252994791666666
 30
0.0
 10
102.88260904947916
 20
29.45315483940972
 30
0.0
 10
102.84781358506943
 20
29.187537977430551
 30
0.0
 10
102.88123101128471
 20
29.385630967881941
 30
0.0
 10
102.95082194010416
 20
29.572699652777775
 30
0.0
 10
102.84919162326388
 20
29.327064344618051
 30
0.0
 10
102.93221842447916
 20
29.50862087673611
 30
0.0
 10
103.04866265190971
 20
29.672607421874996
 30
0.0
 10
102.88536512586805
 20
29.45970052083333
 30
0.0
 10
103.01352267795139
 20
29.61472981770833
 30
0.0
 10
103.16855197482639
 20
29.742887369791664
 30
0.0
 10
102.95598958333332
 20
29.579934353298608
 30
0.0
 10
103.11997612847222
 20
29.696378580729164
 30
0.0
 10
103.30118815104166
 20
29.779405381944443
 30
0.0
 10
103.05589735243055
 20
29.677775065104164
 30
0.0
 10
103.24262152777777
 20
29.747365993923609
 30
0.0
 10
103.44105902777777
 20
29.780783420138885
 30
0.0
 10
103.1754421657986
 20
29.745643446180551
 30
0.0
 10
103.37560221354165
 20
29.764935980902774
 30
0.0
 10
103.57576226128471
 20
29.745643446180551
 30
0.0
 10
103.31014539930554
 20
29.780783420138885
 30
0.0
 10
103.50823838975694
 20
29.747365993923609
 30
0.0
 10
103.69530707465277
 20
29.677775065104164
 30
0.0
 10
103.44967176649304
 20
29.779405381944443
 30
0.0
 10
103.63122829861111
 20
29.696378580729164
 30
0.0
 10
103.79521484374999
 20
29.579934353298608
 30
0.0
 10
103.58230794270833
 20
29.742887369791664
 30
0.0
 10
103.73733723958333
 20
29.61472981770833
 30
0.0
 10
103.86549479166666
 20
29.45970052083333
 30
0.0
 10
103.70219726562499
 20
29.672607421874996
 30
0.0
 10
103.81898600260416
 20
29.50862087673611
 30
0.0
 10
103.90270182291665
 20
29.327064344618051
 30
0.0
 10
103.80107150607638
 20
29.572699652777775
 30
0.0
 10
103.8699734157986
 20
29.385630967881941
 30
0.0
 10
103.90063476562499
 20
29.187537977430551
 30
0.0
 10
103.86549479166666
 20
29.45315483940972
 30
0.0
 10
103.88719889322915
 20
29.252994791666666
 30
0.0
  0
SPLINE
  5
2C
100
AcDbEntity
  8
LAYER_1
 62
     7
100
AcDbSpline
210
0.0
220
0.0
230
1.0
 70
     8
 71
     3
 72
    77
 73
    73
 74
     0
 42
0.00000001
 43
0.00000001
 40
0.0
 40
0.0
 40
0.0
 40
0.0
 40
1.0
 40
1.0
 40
1.0
 40
2.0
 40
2.0
 40
2.0
 40
3.0
 40
3.0
 40
3.0
 40
4.0
 40
4.0
 40
4.0
 40
5.0
 40
5.0
 40
5.0
 40
6.0
 40
6.0
 40
6.0
 40
7.0
 40
7.0
 40
7.0
 40
8.0
 40
8.0
 40
8.0
 40
9.0
 40
9.0
 40
9.0
 40
10.0
 40
10.0
 40
10.0
 40
11.0
 40
11.0
 40
11.0
 40
12.0
 40
12.0
 40
12.0
 40
13.0
 40
13.0
 40
13.0
 40
14.0
 40
14.0
 40
14.0
 40
15.0
 40
15.0
 40
15.0
 40
16.0
 40
16.0
 40
16.0
 40
17.0
 40
17.0
 40
17.0
 40
18.0
 40
18.0
 40
18.0
 40
19.0
 40
19.0
 40
19.0
 40
20.0
 40
20.0
 40
20.0
 40
21.0
 40
21.0
 40
21.0
 40
22.0
 40
22.0
 40
22.0
 40
23.0
 40
23.0
 40
23.0
 40
24.0
 40
24.0
 40
24.0
 40
24.0
 10
100.41213107638887
 20
29.252994791666666
 30
0.0
 10
100.39042697482638
 20
29.052834743923608
 30
0.0
 10
100.42556694878472
 20
29.318451605902776
 30
0.0
 10
100.39456108940972
 20
29.120014105902776
 30
0.0
 10
100.32565917968749
 20
28.933289930555553
 30
0.0
 10
100.42763400607637
 20
29.178580729166665
 30
0.0
 10
100.34391818576388
 20
28.997368706597218
 30
0.0
 10
100.22712944878471
 20
28.833382161458331
 30
0.0
 10
100.39042697482638
 20
29.045944552951386
 30
0.0
 10
100.26226942274305
 20
28.890915256076386
 30
0.0
 10
100.10724012586805
 20
28.762757703993053
 30
0.0
 10
100.32014702690971
 20
28.92605523003472
 30
0.0
 10
100.15616048177083
 20
28.809611002604164
 30
0.0
 10
99.974603949652774
 20
28.726584201388885
 30
0.0
 10
100.22023925781249
 20
28.828214518229164
 30
0.0
 10
100.03317057291666
 20
28.758623589409719
 30
0.0
 10
99.835077582465274
 20
28.725206163194443
 30
0.0
 10
100.10069444444443
 20
28.760001627604165
 30
0.0
 10
99.900534396701374
 20
28.741053602430554
 30
0.0
 10
99.70037434895832
 20
28.760001627604165
 30
0.0
 10
99.965991210937489
 20
28.725206163194443
 30
0.0
 10
99.767553710937491
 20
28.758623589409719
 30
0.0
 10
99.580829535590269
 20
28.828214518229164
 30
0.0
 10
99.826120334201377
 20
28.726584201388885
 30
0.0
 10
99.644908311631937
 20
28.809611002604164
 30
0.0
 10
99.48092176649304
 20
28.92605523003472
 30
0.0
 10
99.693484157986106
 20
28.762757703993053
 30
0.0
 10
99.538454861111106
 20
28.890915256076386
 30
0.0
 10
99.410297309027769
 20
29.045944552951386
 30
0.0
 10
99.573594835069429
 20
28.833382161458331
 30
0.0
 10
99.45715060763888
 20
28.997368706597218
 30
0.0
 10
99.374123806423597
 20
29.178580729166665
 30
0.0
 10
99.475754123263883
 20
28.933289930555553
 30
0.0
 10
99.406163194444431
 20
29.120014105902776
 30
0.0
 10
99.372745768229152
 20
29.318451605902776
 30
0.0
 10
99.407541232638877
 20
29.052834743923608
 30
0.0
 10
99.388593207465263
 20
29.252994791666666
 30
0.0
 10
99.407541232638877
 20
29.45315483940972
 30
0.0
 10
99.372745768229152
 20
29.187537977430551
 30
0.0
 10
99.406163194444431
 20
29.385630967881941
 30
0.0
 10
99.475754123263883
 20
29.572699652777775
 30
0.0
 10
99.374123806423597
 20
29.327064344618051
 30
0.0
 10
99.45715060763888
 20
29.50862087673611
 30
0.0
 10
99.573594835069429
 20
29.672607421874996
 30
0.0
 10
99.410297309027769
 20
29.45970052083333
 30
0.0
 10
99.538454861111106
 20
29.61472981770833
 30
0.0
 10
99.693484157986106
 20
29.742887369791664
 30
0.0
 10
99.48092176649304
 20
29.579934353298608
 30
0.0
 10
99.644908311631937
 20
29.696378580729164
 30
0.0
 10
99.826120334201377
 20
29.779405381944443
 30
0.0
 10
99.580829535590269
 20
29.677775065104164
 30
0.0
 10
99.767553710937491
 20
29.747365993923609
 30
0.0
 10
99.965991210937489
 20
29.780783420138885
 30
0.0
 10
99.70037434895832
 20
29.745643446180551
 30
0.0
 10
99.900534396701374
 20
29.764935980902774
 30
0.0
 10
100.10069444444443
 20
29.745643446180551
 30
0.0
 10
99.835077582465274
 20
29.780783420138885
 30
0.0
 10
100.03317057291666
 20
29.747365993923609
 30
0.0
 10
100.22023925781249
 20
29.677775065104164
 30
0.0
 10
99.974603949652774
 20
29.779405381944443
 30
0.0
 10
100.15616048177083
 20
29.696378580729164
 30
0.0
 10
100.32014702690971
 20
29.579934353298608
 30
0.0
 10
100.10724012586805
 20
29.742887369791664
 30
0.0
 10
100.26226942274305
 20
29.61472981770833
 30
0.0
 10
100.39042697482638
 20
29.45970052083333
 30
0.0
 10
100.22712944878471
 20
29.672607421874996
 30
0.0
 10
100.34391818576388
 20
29.50862087673611
 30
0.0
 10
100.42763400607637
 20
29.327064344618051
 30
0.0
 10
100.32565917968749
 20
29.572699652777775
 30
0.0
 10
100.39456108940972
 20
29.385630967881941
 30
0.0
 10
100.42556694878472
 20
29.187537977430551
 30
0.0
 10
100.39042697482638
 20
29.45315483940972
 30
0.0
 10
100.41213107638887
 20
29.252994791666666
 30
0.0
  0
SPLINE
  5
2B
100
AcDbEntity
  8
LAYER_1
 62
     7
100
AcDbSpline
210
0.0
220
0.0
230
1.0
 70
     8
 71
     3
 72
    41
 73
    37
 74
     0
 42
0.00000001
 43
0.00000001
 40
0.0
 40
0.0
 40
0.0
 40
0.0
 40
1.0
 40
1.0
 40
1.0
 40
2.0
 40
2.0
 40
2.0
 40
3.0
 40
3.0
 40
3.0
 40
4.0
 40
4.0
 40
4.0
 40
5.0
 40
5.0
 40
5.0
 40
6.0
 40
6.0
 40
6.0
 40
7.0
 40
7.0
 40
7.0
 40
8.0
 40
8.0
 40
8.0
 40
9.0
 40
9.0
 40
9.0
 40
10.0
 40
10.0
 40
10.0
 40
11.0
 40
11.0
 40
11.0
 40
12.0
 40
12.0
 40
12.0
 40
12.0
 10
99.297987196180543
 20
32.583713107638886
 30
0.0
 10
99.210481770833326
 20
32.188560655381941
 30
0.0
 10
99.350008138020826
 20
32.7051527235243
 30
0.0
 10
99.228051757812494
 20
32.32533094618055
 30
0.0
 10
98.975181749131934
 20
32.030258517795133
 30
0.0
 10
99.342428927951374
 20
32.39750569661458
 30
0.0
 10
99.044428168402774
 20
32.141879611545136
 30
0.0
 10
98.663745117187489
 20
32.008554416232634
 30
0.0
 10
99.18050944010416
 20
32.14825303819444
 30
0.0
 10
98.786046006944431
 20
32.07194417317708
 30
0.0
 10
98.390893554687494
 20
32.14825303819444
 30
0.0
 10
98.907657877604152
 20
32.008554416232634
 30
0.0
 10
98.527663845486103
 20
32.141879611545136
 30
0.0
 10
98.23241916232638
 20
32.39750569661458
 30
0.0
 10
98.59966634114582
 20
32.030258517795133
 30
0.0
 10
98.344040256076383
 20
32.32533094618055
 30
0.0
 10
98.210715060763874
 20
32.7051527235243
 30
0.0
 10
98.350585937499986
 20
32.188560655381941
 30
0.0
 10
98.27410481770832
 20
32.583713107638886
 30
0.0
 10
98.350585937499986
 20
32.979037814670136
 30
0.0
 10
98.210715060763874
 20
32.462273491753471
 30
0.0
 10
98.344040256076383
 20
32.842095269097221
 30
0.0
 10
98.59966634114582
 20
33.137167697482639
 30
0.0
 10
98.23241916232638
 20
32.769920518663191
 30
0.0
 10
98.527663845486103
 20
33.025718858506941
 30
0.0
 10
98.907657877604152
 20
33.158871799045137
 30
0.0
 10
98.390893554687494
 20
33.019173177083331
 30
0.0
 10
98.786046006944431
 20
33.095654296874997
 30
0.0
 10
99.18050944010416
 20
33.019173177083331
 30
0.0
 10
98.663745117187489
 20
33.158871799045137
 30
0.0
 10
99.044428168402774
 20
33.025718858506941
 30
0.0
 10
99.342428927951374
 20
32.769920518663191
 30
0.0
 10
98.975181749131934
 20
33.137167697482639
 30
0.0
 10
99.228051757812494
 20
32.842095269097221
 30
0.0
 10
99.350008138020826
 20
32.462273491753471
 30
0.0
 10
99.210481770833326
 20
32.979037814670136
 30
0.0
 10
99.297987196180543
 20
32.583713107638886
 30
0.0
  0
SPLINE
  5
2A
100
AcDbEntity
  8
LAYER_1
 62
     7
100
AcDbSpline
210
0.0
220
0.0
230
1.0
 70
     8
 71
     3
 72
    41
 73
    37
 74
     0
 42
0.00000001
 43
0.00000001
 40
0.0
 40
0.0
 40
0.0
 40
0.0
 40
1.0
 40
1.0
 40
1.0
 40
2.0
 40
2.0
 40
2.0
 40
3.0
 40
3.0
 40
3.0
 40
4.0
 40
4.0
 40
4.0
 40
5.0
 40
5.0
 40
5.0
 40
6.0
 40
6.0
 40
6.0
 40
7.0
 40
7.0
 40
7.0
 40
8.0
 40
8.0
 40
8.0
 40
9.0
 40
9.0
 40
9.0
 40
10.0
 40
10.0
 40
10.0
 40
11.0
 40
11.0
 40
11.0
 40
12.0
 40
12.0
 40
12.0
 40
12.0
 10
104.98687337239582
 20
32.583713107638886
 30
0.0
 10
104.8993679470486
 20
32.188560655381941
 30
0.0
 10
105.03923882378471
 20
32.7051527235243
 30
0.0
 10
104.91693793402777
 20
32.32533094618055
 30
0.0
 10
104.66406792534721
 20
32.030258517795133
 30
0.0
 10
105.03131510416665
 20
32.39750569661458
 30
0.0
 10
104.73331434461805
 20
32.141879611545136
 30
0.0
 10
104.35297580295138
 20
32.008554416232634
 30
0.0
 10
104.86939561631944
 20
32.14825303819444
 30
0.0
 10
104.47493218315971
 20
32.07194417317708
 30
0.0
 10
104.08012424045138
 20
32.14825303819444
 30
0.0
 10
104.59654405381943
 20
32.008554416232634
 30
0.0
 10
104.21689453124999
 20
32.141879611545136
 30
0.0
 10
103.92164984809027
 20
32.39750569661458
 30
0.0
 10
104.28889702690971
 20
32.030258517795133
 30
0.0
 10
104.03327094184027
 20
32.32533094618055
 30
0.0
 10
103.89994574652776
 20
32.7051527235243
 30
0.0
 10
104.03981662326387
 20
32.188560655381941
 30
0.0
 10
103.96333550347221
 20
32.583713107638886
 30
0.0
 10
104.03981662326387
 20
32.979037814670136
 30
0.0
 10
103.89994574652776
 20
32.462273491753471
 30
0.0
 10
104.03327094184027
 20
32.842095269097221
 30
0.0
 10
104.28889702690971
 20
33.137167697482639
 30
0.0
 10
103.92164984809027
 20
32.769920518663191
 30
0.0
 10
104.21689453124999
 20
33.025718858506941
 30
0.0
 10
104.59654405381943
 20
33.158871799045137
 30
0.0
 10
104.08012424045138
 20
33.019173177083331
 30
0.0
 10
104.47493218315971
 20
33.095654296874997
 30
0.0
 10
104.86939561631944
 20
33.019173177083331
 30
0.0
 10
104.35297580295138
 20
33.158871799045137
 30
0.0
 10
104.73331434461805
 20
33.025718858506941
 30
0.0
 10
105.03131510416665
 20
32.769920518663191
 30
0.0
 10
104.66406792534721
 20
33.137167697482639
 30
0.0
 10
104.91693793402777
 20
32.842095269097221
 30
0.0
 10
105.03923882378471
 20
32.462273491753471
 30
0.0
 10
104.8993679470486
 20
32.979037814670136
 30
0.0
 10
104.98687337239582
 20
32.583713107638886
 30
0.0
  0
ENDSEC
  0
SECTION
  2
OBJECTS
  0
DICTIONARY
  5
19
100
AcDbDictionary
280
     0
281
     1
  3
ACAD_GROUP
350
1A
  3
ACAD_MLINESTYLE
350
1B
  3
ACAD_LAYOUT
350
1E
  3
ACAD_PLOTSETTINGS
350
22
  3
ACAD_PLOTSTYLENAME
350
1F
  3
ACAD_WIPEOUT_VARS
350
23
  0
DICTIONARY
  5
1A
102
{ACAD_REACTORS
330
19
102
}
100
AcDbDictionary
280
     0
281
     1
  0
DICTIONARY
  5
1B
102
{ACAD_REACTORS
330
19
102
}
100
AcDbDictionary
280
     0
281
     1
  3
Standard
350
1C
  0
MLINESTYLE
  5
1C
102
{ACAD_REACTORS
330
1B
102
}
100
AcDbMlineStyle
  2
Standard
 70
     0
  3

 62
     0
 51
90.0
 52
90.0
 71
     2
 49
0.5
 62
   256
  6
ByLayer
 49
-0.5
 62
   256
  6
ByLayer
  0
ACDBDICTIONARYWDFLT
  5
1F
102
{ACAD_REACTORS
330
19
102
}
100
AcDbDictionary
281
     1
  3
Normal
350
1D
100
AcDbDictionaryWithDefault
340
1D
  0
ACDBPLACEHOLDER
  5
1D
102
{ACAD_REACTORS
330
1F
102
}
  0
LAYOUT
  5
20
102
{ACAD_REACTORS
330
1E
102
}
100
AcDbPlotSettings
  1

  2

  4

  6

 40
0.0
 41
0.0
 42
0.0
 43
0.0
 44
0.0
 45
0.0
 46
0.0
 47
0.0
 48
0.0
 49
0.0
140
0.0
141
0.0
142
1.0
143
1.0
 70
  1024
 72
     0
 73
     0
 74
     0
  7

 75
     0
147
1.0
148
0.0
149
0.0
100
AcDbLayout
  1
Model
 70
     0
 71
     0
 10
0.0
 20
0.0
 11
0.0
 21
0.0
 12
0.0
 22
0.0
 32
0.0
 14
0.0
 24
0.0
 34
0.0
 15
0.0
 25
0.0
 35
0.0
146
0.0
 13
0.0
 23
0.0
 33
0.0
 16
0.0
 26
0.0
 36
0.0
 17
0.0
 27
0.0
 37
0.0
 76
     0
330
A
331
0
345
0
346
0
  0
LAYOUT
  5
21
102
{ACAD_REACTORS
330
1E
102
}
100
AcDbPlotSettings
  1

  2

  4

  6

 40
0.0
 41
0.0
 42
0.0
 43
0.0
 44
0.0
 45
0.0
 46
0.0
 47
0.0
 48
0.0
 49
0.0
140
0.0
141
0.0
142
1.0
143
1.0
 70
     0
 72
     0
 73
     0
 74
     0
  7

 75
     0
147
1.0
148
0.0
149
0.0
100
AcDbLayout
  1
Layout1
 70
     0
 71
     0
 10
0.0
 20
0.0
 11
0.0
 21
0.0
 12
0.0
 22
0.0
 32
0.0
 14
0.0
 24
0.0
 34
0.0
 15
0.0
 25
0.0
 35
0.0
146
0.0
 13
0.0
 23
0.0
 33
0.0
 16
0.0
 26
0.0
 36
0.0
 17
0.0
 27
0.0
 37
0.0
 76
     0
330
B
331
0
345
0
346
0
  0
DICTIONARY
  5
1E
102
{ACAD_REACTORS
330
19
102
}
100
AcDbDictionary
280
     0
281
     1
  3
Layout1
350
21
  3
Model
350
20
  0
DICTIONARY
  5
22
102
{ACAD_REACTORS
330
19
102
}
100
AcDbDictionary
280
     0
281
     1
  0
WIPEOUTVARIABLES
  5
23
100
AcDbWipeoutVariables
 70
     1
  0
ENDSEC
  0
EOF
