<?xml version="1.0" encoding="UTF-8" standalone="no"?>
<!-- Created with Inkscape (http://www.inkscape.org/) -->

<svg
   xmlns:dc="http://purl.org/dc/elements/1.1/"
   xmlns:cc="http://creativecommons.org/ns#"
   xmlns:rdf="http://www.w3.org/1999/02/22-rdf-syntax-ns#"
   xmlns:svg="http://www.w3.org/2000/svg"
   xmlns="http://www.w3.org/2000/svg"
   xmlns:sodipodi="http://sodipodi.sourceforge.net/DTD/sodipodi-0.dtd"
   xmlns:inkscape="http://www.inkscape.org/namespaces/inkscape"
   width="5.9999995in"
   height="5in"
   viewBox="0 0 152.40001 127"
   version="1.1"
   id="svg4522"
   sodipodi:docname="peg_board.svg"
   inkscape:version="0.92.1 r15371">
  <defs
     id="defs4516" />
  <sodipodi:namedview
     id="base"
     pagecolor="#ffffff"
     bordercolor="#666666"
     borderopacity="1.0"
     inkscape:pageopacity="0.0"
     inkscape:pageshadow="2"
     inkscape:zoom="0.98994949"
     inkscape:cx="366.61938"
     inkscape:cy="238.55129"
     inkscape:document-units="in"
     inkscape:current-layer="layer1-1"
     showgrid="false"
     fit-margin-top="0"
     fit-margin-left="0"
     fit-margin-right="0"
     fit-margin-bottom="0"
     units="in"
     inkscape:window-width="1366"
     inkscape:window-height="716"
     inkscape:window-x="-8"
     inkscape:window-y="-8"
     inkscape:window-maximized="1"
     inkscape:object-nodes="true" />
  <metadata
     id="metadata4519">
    <rdf:RDF>
      <cc:Work
         rdf:about="">
        <dc:format>image/svg+xml</dc:format>
        <dc:type
           rdf:resource="http://purl.org/dc/dcmitype/StillImage" />
        <dc:title></dc:title>
      </cc:Work>
    </rdf:RDF>
  </metadata>
  <g
     inkscape:label="Layer 1"
     inkscape:groupmode="layer"
     id="layer1"
     transform="translate(431.77515,191.89828)">
    <g
       id="g5140"
       transform="matrix(0.26458333,0,0,0.26458333,-425.55149,-184.08809)">
      <g
         transform="translate(3.0393586,-555.95597)"
         id="layer1-1"
         inkscape:label="Cut">
        <path
           id="rect2985"
           d="M 21.924721,574.92371 H 500.95158 v 383.0269 H 21.924721 Z"
           style="fill:none;stroke:#000000;stroke-width:0.97313833;stroke-linecap:round;stroke-miterlimit:4;stroke-dasharray:none;stroke-opacity:1"
           inkscape:connector-curvature="0" />
        <path
           id="path2987"
           d="m 234.95552,617.62402 a 21.599999,21.600008 0 0 1 -21.60001,21.60001 21.599999,21.600008 0 0 1 -21.6,-21.60001 21.599999,21.600008 0 0 1 21.6,-21.6 21.599999,21.600008 0 0 1 21.60001,21.6 z"
           style="fill:none;stroke:#000000;stroke-width:0.86426878;stroke-linecap:round;stroke-miterlimit:4;stroke-dasharray:none;stroke-opacity:1"
           inkscape:connector-curvature="0" />
        <path
           id="path3763"
           d="m 314.15744,436.17337 -70.65907,-22.95852 -43.66972,-60.1062 V 278.8133 l 43.66971,-60.10621 70.65908,-22.95852 70.65907,22.95852 43.66972,60.1062 v 74.29535 l -43.66971,60.1062 z"
           style="fill:none;stroke:#ff0000;stroke-width:0.69155157;stroke-linecap:round;stroke-miterlimit:4;stroke-dasharray:none;stroke-opacity:1"
           transform="matrix(0,-1.3015094,1.2951568,0,-147.78084,1175.316)"
           inkscape:connector-curvature="0" />
        <path
           id="path2987-8"
           d="m 331.14193,617.62402 a 21.600003,21.600003 0 0 1 -21.6,21.60001 21.600003,21.600003 0 0 1 -21.6,-21.60001 21.600003,21.600003 0 0 1 21.6,-21.6 21.600003,21.600003 0 0 1 21.6,21.6 z"
           style="fill:none;stroke:#000000;stroke-width:0.86426878;stroke-linecap:round;stroke-miterlimit:4;stroke-dasharray:none;stroke-opacity:1"
           inkscape:connector-curvature="0" />
        <path
           id="path2987-8-2"
           d="m 408.97018,674.56976 a 21.600003,21.600003 0 0 1 -21.6,21.60001 21.600003,21.600003 0 0 1 -21.6,-21.60001 21.600003,21.600003 0 0 1 21.6,-21.6 21.600003,21.600003 0 0 1 21.6,21.6 z"
           style="fill:none;stroke:#000000;stroke-width:0.86426878;stroke-linecap:round;stroke-miterlimit:4;stroke-dasharray:none;stroke-opacity:1"
           inkscape:connector-curvature="0" />
        <path
           id="path2987-8-3"
           d="m 438.64538,766.43713 a 21.600003,21.600003 0 0 1 -21.6,21.60001 21.600003,21.600003 0 0 1 -21.6,-21.60001 21.600003,21.600003 0 0 1 21.6,-21.6 21.600003,21.600003 0 0 1 21.6,21.6 z"
           style="fill:none;stroke:#000000;stroke-width:0.86426878;stroke-linecap:round;stroke-miterlimit:4;stroke-dasharray:none;stroke-opacity:1"
           inkscape:connector-curvature="0" />
        <path
           id="path2987-8-4"
           d="m 408.97018,858.44604 a 21.600003,21.600003 0 0 1 -21.6,21.60001 21.600003,21.600003 0 0 1 -21.6,-21.60001 21.600003,21.600003 0 0 1 21.6,-21.6 21.600003,21.600003 0 0 1 21.6,21.6 z"
           style="fill:none;stroke:#000000;stroke-width:0.86426878;stroke-linecap:round;stroke-miterlimit:4;stroke-dasharray:none;stroke-opacity:1"
           inkscape:connector-curvature="0" />
        <path
           id="path2987-8-34"
           d="m 331.14193,915.14166 a 21.600003,21.599998 0 0 1 -21.6,21.6 21.600003,21.599998 0 0 1 -21.6,-21.6 21.600003,21.599998 0 0 1 21.6,-21.6 21.600003,21.599998 0 0 1 21.6,21.6 z"
           style="fill:none;stroke:#000000;stroke-width:0.86426866;stroke-linecap:round;stroke-miterlimit:4;stroke-dasharray:none;stroke-opacity:1"
           inkscape:connector-curvature="0" />
        <path
           id="path2987-8-22"
           d="m 234.92936,915.14166 a 21.600003,21.599998 0 0 1 -21.6,21.6 21.600003,21.599998 0 0 1 -21.6,-21.6 21.600003,21.599998 0 0 1 21.6,-21.6 21.600003,21.599998 0 0 1 21.6,21.6 z"
           style="fill:none;stroke:#000000;stroke-width:0.86426866;stroke-linecap:round;stroke-miterlimit:4;stroke-dasharray:none;stroke-opacity:1"
           inkscape:connector-curvature="0" />
        <path
           id="path2987-8-1"
           d="m 157.04611,858.44604 a 21.599998,21.600003 0 0 1 -21.6,21.60001 21.599998,21.600003 0 0 1 -21.60001,-21.60001 21.599998,21.600003 0 0 1 21.60001,-21.6 21.599998,21.600003 0 0 1 21.6,21.6 z"
           style="fill:none;stroke:#000000;stroke-width:0.86426866;stroke-linecap:round;stroke-miterlimit:4;stroke-dasharray:none;stroke-opacity:1"
           inkscape:connector-curvature="0" />
        <path
           id="path2987-8-9"
           d="m 127.42254,766.43713 a 21.600002,21.600003 0 0 1 -21.6,21.60001 21.600002,21.600003 0 0 1 -21.600001,-21.60001 21.600002,21.600003 0 0 1 21.600001,-21.6 21.600002,21.600003 0 0 1 21.6,21.6 z"
           style="fill:none;stroke:#000000;stroke-width:0.86426878;stroke-linecap:round;stroke-miterlimit:4;stroke-dasharray:none;stroke-opacity:1"
           inkscape:connector-curvature="0" />
        <path
           id="path2987-8-20"
           d="m 157.04611,674.56976 a 21.599998,21.600003 0 0 1 -21.6,21.60001 21.599998,21.600003 0 0 1 -21.60001,-21.60001 21.599998,21.600003 0 0 1 21.60001,-21.6 21.599998,21.600003 0 0 1 21.6,21.6 z"
           style="fill:none;stroke:#000000;stroke-width:0.86426866;stroke-linecap:round;stroke-miterlimit:4;stroke-dasharray:none;stroke-opacity:1"
           inkscape:connector-curvature="0" />
        <path
           id="path3854"
           d="M 286.17721,667.8919 A 101.60311,101.60311 0 0 1 359.98343,791.17622 101.60311,101.60311 0 0 1 236.69911,864.98243 101.60311,101.60311 0 0 1 162.89289,741.69812 101.60311,101.60311 0 0 1 286.17721,667.8919 Z"
           style="fill:none;stroke:#ff0000;stroke-width:0.76465744;stroke-opacity:1"
           inkscape:connector-curvature="0" />
        <path
           inkscape:connector-curvature="0"
           id="path188"
           style="font-style:normal;font-weight:normal;font-size:medium;line-height:0%;font-family:sans-serif;letter-spacing:48.29000092px;word-spacing:0px;fill:none;stroke:#00ff00;stroke-width:0.95999998;stroke-miterlimit:4;stroke-dasharray:none;stroke-opacity:1"
           d="m 289.94469,664.95301 q 0.79625,1.17364 2.20074,1.62506 1.69086,0.54346 3.2765,-0.27081 1.58563,-0.81428 2.12909,-2.50514 l 2.19137,-6.81794 q 0.0833,-0.25908 0.13489,-0.5133 z m -0.71009,-3.26723 9.93259,-8.48213 q -0.79625,-1.17364 -2.20074,-1.62507 -1.69086,-0.54345 -3.2765,0.27083 -1.58563,0.81427 -2.12909,2.50513 l -2.19137,6.81794 q -0.0833,0.25909 -0.13489,0.5133 z m 13.42095,-7.5866 q 0.43198,1.83888 -0.18598,3.76154 l -2.19136,6.81795 q -0.90723,2.82263 -3.55597,4.18284 -2.63071,1.35096 -5.45335,0.44374 -2.19538,-0.70561 -3.5098,-2.46706 -0.39446,0.38474 -0.84493,0.61606 -0.54055,0.2776 -1.09962,0.0979 -0.55908,-0.17969 -0.84106,-0.70662 -0.26395,-0.53617 -0.0843,-1.09524 0.1797,-0.55907 0.98372,-1.18828 l 0.58341,-0.50454 q -0.43199,-1.83887 0.18597,-3.76154 l 2.19136,-6.81795 q 0.90723,-2.82263 3.53795,-4.17359 2.64873,-1.36022 5.47137,-0.45299 2.19538,0.70562 3.5098,2.46705 0.39446,-0.38473 0.86295,-0.62531 0.52253,-0.26834 1.0816,-0.0886 0.55908,0.1797 0.82304,0.71587 0.28197,0.52692 0.10233,1.08599 -0.1797,0.55907 -0.98372,1.18828 z" />
        <path
           inkscape:connector-curvature="0"
           id="path190"
           style="font-style:normal;font-variant:normal;font-weight:normal;font-stretch:normal;font-size:29.33333397px;line-height:0%;font-family:Instruction;-inkscape-font-specification:Instruction;letter-spacing:46.77999878px;word-spacing:0px;fill:none;stroke:#00ff00;stroke-width:0.95999998;stroke-miterlimit:4;stroke-dasharray:none;stroke-opacity:1"
           d="m 345.15423,703.87494 12.87572,-9.07979 -2.47631,-3.51156 q -0.33842,-0.47992 -0.2466,-1.07045 0.11178,-0.58708 0.59169,-0.92551 0.47992,-0.33842 1.05874,-0.23835 0.59879,0.10353 0.93722,0.58344 l 3.30173,4.68207 q 0.33843,0.47992 0.22666,1.067 -0.0918,0.59053 -0.57173,0.92896 l -14.04624,9.90523 2.4763,3.51155 q 0.33843,0.47992 0.22666,1.067 -0.0918,0.59053 -0.57173,0.92896 -0.47992,0.33843 -1.07871,0.23491 -0.57882,-0.10008 -0.91725,-0.57999 l -6.60349,-9.36416 q -0.33843,-0.47991 -0.24661,-1.07044 0.11178,-0.58709 0.5917,-0.92551 0.47991,-0.33843 1.05874,-0.23836 0.59879,0.10353 0.93722,0.58344 z" />
        <path
           inkscape:connector-curvature="0"
           id="path192"
           style="font-style:normal;font-variant:normal;font-weight:normal;font-stretch:normal;font-size:29.33333397px;line-height:0%;font-family:Instruction;-inkscape-font-specification:Instruction;letter-spacing:46.77999878px;word-spacing:0px;fill:none;stroke:#00ff00;stroke-width:0.95999998;stroke-miterlimit:4;stroke-dasharray:none;stroke-opacity:1"
           d="m 369.28469,759.47379 q 2.52052,0.0401 4.26811,1.8441 1.76169,1.81859 1.72164,4.3391 l -0.0341,2.14817 q -0.0212,1.33186 0.90901,2.29208 0.93017,0.96021 2.26203,0.98138 1.33186,0.0211 2.29208,-0.909 0.96021,-0.93018 0.98138,-2.26203 l 0.0341,-2.14817 q 0.0212,-1.33187 -0.909,-2.29208 -0.93017,-0.96022 -2.26204,-0.98139 -0.58716,-0.009 -1.00997,-0.44579 -0.40871,-0.42192 -0.39938,-1.00908 0.009,-0.58717 0.43148,-1.0102 0.43623,-0.40847 1.0234,-0.39915 2.52051,0.0401 4.26811,1.8441 1.76168,1.81859 1.72162,4.3391 l -0.0341,2.14817 q -0.0401,2.52051 -1.85841,4.26789 -1.80428,1.76191 -4.32479,1.72186 -2.52051,-0.0401 -4.2822,-1.85866 -1.7476,-1.80404 -1.70754,-4.32455 l 0.0341,-2.14817 q 0.0212,-1.33186 -0.90902,-2.29208 -0.93017,-0.96021 -2.26202,-0.98138 l -3.22225,-0.0512 -0.15933,10.02478 q -0.009,0.58716 -0.44556,0.99564 -0.42214,0.42304 -1.00931,0.41371 -0.58716,-0.009 -1.00997,-0.4458 -0.40871,-0.42191 -0.39939,-1.00908 l 0.1821,-11.45688 q 0.009,-0.58717 0.43146,-1.0102 0.43624,-0.40849 1.0234,-0.39915 z" />
        <path
           inkscape:connector-curvature="0"
           id="path194"
           style="font-style:normal;font-variant:normal;font-weight:normal;font-stretch:normal;font-size:29.33333397px;line-height:0%;font-family:Instruction;-inkscape-font-specification:Instruction;letter-spacing:46.77999878px;word-spacing:0px;fill:none;stroke:#00ff00;stroke-width:0.95999998;stroke-miterlimit:4;stroke-dasharray:none;stroke-opacity:1"
           d="m 352.72359,824.29649 q 0.46928,0.35304 0.5515,0.93467 0.085,0.60169 -0.26799,1.07096 -0.35304,0.46927 -0.94611,0.54288 -0.59024,0.0937 -1.05952,-0.25938 -1.06445,-0.80078 -2.38816,-0.61366 -1.32371,0.18711 -2.1245,1.25156 l -1.29158,1.71685 q -0.80079,1.06445 -0.61368,2.38817 0.18712,1.32371 1.25157,2.12449 1.06444,0.80078 2.38816,0.61367 1.32372,-0.18712 2.1245,-1.25156 l 1.50685,-2.00299 q 0.35304,-0.46927 0.94328,-0.56294 0.59308,-0.0735 1.06235,0.27942 0.46928,0.35304 0.55149,0.93467 0.085,0.60169 -0.26798,1.07097 l -1.50686,2.00298 q -0.80078,1.06446 -0.61366,2.38817 0.18711,1.32371 1.25156,2.1245 1.06445,0.80078 2.38816,0.61367 1.32371,-0.18712 2.1245,-1.25156 l 1.29159,-1.71686 q 0.80078,-1.06444 0.61367,-2.38816 -0.18712,-1.32371 -1.25156,-2.1245 -0.46928,-0.35304 -0.55433,-0.95472 -0.0822,-0.58163 0.27082,-1.05091 0.35303,-0.46927 0.94328,-0.56293 0.59307,-0.0737 1.06234,0.27943 2.01444,1.51546 2.366,4.00244 0.35438,2.50703 -1.16108,4.52147 l -1.2916,1.71685 q -1.51546,2.01444 -4.01388,2.35739 -2.49559,0.36299 -4.51003,-1.15247 -2.01444,-1.51547 -2.36599,-4.00244 -0.0369,-0.26074 -0.0537,-0.52431 -0.25789,0.0569 -0.50718,0.10236 -2.49842,0.34294 -4.51286,-1.17252 -2.01444,-1.51547 -2.36883,-4.0225 -0.35155,-2.48698 1.16391,-4.50141 l 1.2916,-1.71686 q 1.51546,-2.01444 4.01105,-2.37743 2.49843,-0.34295 4.51286,1.17252 z" />
        <path
           inkscape:connector-curvature="0"
           id="path196"
           style="font-style:normal;font-variant:normal;font-weight:normal;font-stretch:normal;font-size:29.33333397px;line-height:0%;font-family:Instruction;-inkscape-font-specification:Instruction;letter-spacing:46.77999878px;word-spacing:0px;fill:none;stroke:#00ff00;stroke-width:0.95999998;stroke-miterlimit:4;stroke-dasharray:none;stroke-opacity:1"
           d="m 294.31188,883.63607 -3.36082,-10.95437 -1.36929,0.4201 q -0.56141,0.17225 -1.08454,-0.11672 -0.53262,-0.27106 -0.70486,-0.83247 -0.17224,-0.56141 0.11252,-1.09824 0.27526,-0.51892 0.83667,-0.69116 l 1.3693,-0.4201 -1.2603,-4.10789 q -0.17225,-0.56141 0.11251,-1.09823 0.27527,-0.51893 0.83668,-0.69117 0.56141,-0.17224 1.09403,0.0988 0.52313,0.28895 0.69537,0.85036 l 1.2603,4.10789 6.84649,-2.1005 q 0.56141,-0.17225 1.09402,0.0988 0.52313,0.28897 0.69538,0.85038 0.17224,0.56141 -0.11252,1.09822 l -0.0719,0.35166 -4.04102,13.53989 q -0.12153,0.53168 -0.28398,0.88117 -0.0189,0.0358 -0.038,0.0716 -0.27527,0.51892 -0.83669,0.69116 -0.56141,0.17224 -1.09402,-0.0988 -0.52313,-0.28897 -0.69538,-0.85038 z m 3.66368,-13.1095 -4.2859,1.31493 1.97448,6.43569 z" />
        <path
           inkscape:connector-curvature="0"
           id="path198"
           style="font-style:normal;font-variant:normal;font-weight:normal;font-stretch:normal;font-size:29.33333397px;line-height:0%;font-family:Instruction;-inkscape-font-specification:Instruction;letter-spacing:46.77999878px;word-spacing:0px;fill:none;stroke:#00ff00;stroke-width:0.95999998;stroke-miterlimit:4;stroke-dasharray:none;stroke-opacity:1"
           d="m 227.61874,881.95926 1.39898,-4.06276 -5.07845,-1.74872 q -2.38349,-0.82073 -3.47985,-3.09179 -1.11457,-2.26218 -0.29384,-4.64566 l 0.69949,-2.03138 q 0.82073,-2.38349 3.09645,-3.4934 2.25752,-1.10102 4.64101,-0.2803 l 2.03137,0.69949 q 2.38349,0.82074 3.49806,3.08292 1.09636,2.27106 0.27563,4.65454 -0.19119,0.55525 -0.71916,0.81275 -0.54617,0.26637 -1.10141,0.0752 -0.55525,-0.19119 -0.80809,-0.7327 -0.27104,-0.53264 -0.0799,-1.08788 0.43369,-1.25945 -0.15234,-2.46103 -0.58603,-1.20159 -1.84549,-1.63527 l -2.03138,-0.69949 q -1.25945,-0.43368 -2.46103,0.15235 -1.20158,0.58604 -1.63527,1.84548 l -0.70415,2.04493 q -0.42902,1.24591 0.15702,2.44749 0.58603,1.20159 1.84548,1.63526 l 6.4327,2.21506 q 0.55525,0.19119 0.82628,0.72382 0.25285,0.5415 0.0616,1.09675 l -2.33163,6.77126 q -0.19119,0.55525 -0.71916,0.81275 -0.54618,0.26638 -1.10142,0.0752 l -10.83402,-3.7306 q -0.55524,-0.19119 -0.80808,-0.7327 -0.27103,-0.53264 -0.0798,-1.08788 0.19119,-0.55524 0.73736,-0.82162 0.52797,-0.2575 1.08322,-0.0663 z" />
        <path
           inkscape:connector-curvature="0"
           id="path200"
           style="font-style:normal;font-variant:normal;font-weight:normal;font-stretch:normal;font-size:29.33333397px;line-height:0%;font-family:Instruction;-inkscape-font-specification:Instruction;letter-spacing:46.77999878px;word-spacing:0px;fill:none;stroke:#00ff00;stroke-width:0.95999998;stroke-miterlimit:4;stroke-dasharray:none;stroke-opacity:1"
           d="m 168.30398,831.79198 q -1.44065,-2.0686 -0.98649,-4.54922 0.43423,-2.48418 2.50282,-3.92485 2.0686,-1.44065 4.56097,-0.99468 2.47243,0.44241 3.91309,2.51101 l 1.22784,1.76301 q 1.44066,2.0686 1.00643,4.55278 -0.45416,2.48062 -2.52276,3.92128 l -7.63971,5.32062 q -2.0686,1.44067 -4.54103,0.99825 -2.49237,-0.44598 -3.93303,-2.51457 l -1.22784,-1.76302 q -1.44065,-2.0686 -0.9865,-4.54921 0.43423,-2.48419 2.50283,-3.92484 0.48189,-0.33561 1.08006,-0.22858 0.57823,0.10346 0.91384,0.58535 0.33561,0.4819 0.24032,1.07187 -0.11522,0.58642 -0.59711,0.92204 -1.09306,0.76125 -1.32854,2.07722 -0.23547,1.31598 0.52578,2.40904 l 1.22783,1.76301 q 0.76127,1.09307 2.07724,1.32854 1.31597,0.23548 2.40904,-0.52578 l 3.38498,-2.35744 q -1.55084,-0.64789 -2.58222,-2.12883 z m 3.57851,0.12589 q 0.76127,1.09307 2.07724,1.32854 1.31597,0.23548 2.40904,-0.52577 1.09306,-0.76127 1.32854,-2.07724 0.23547,-1.31597 -0.52578,-2.40904 l -1.22784,-1.76301 q -0.76125,-1.09306 -2.07722,-1.32854 -1.31598,-0.23548 -2.40905,0.52578 -1.09306,0.76126 -1.32854,2.07724 -0.23547,1.31597 0.52578,2.40903 z" />
        <path
           inkscape:connector-curvature="0"
           id="path202"
           style="font-style:normal;font-variant:normal;font-weight:normal;font-stretch:normal;font-size:29.33333397px;line-height:0%;font-family:Instruction;-inkscape-font-specification:Instruction;letter-spacing:46.77999878px;word-spacing:0px;fill:none;stroke:#00ff00;stroke-width:0.95999998;stroke-miterlimit:4;stroke-dasharray:none;stroke-opacity:1"
           d="m 147.62606,766.34033 -6.35722,-4.10712 -0.19311,8.84946 q -0.0128,0.5871 -0.43744,1.00763 -0.43866,0.40589 -1.02576,0.39307 -0.5871,-0.0128 -0.99329,-0.43713 -0.42021,-0.43896 -0.40741,-1.02606 l 0.24997,-11.45561 q 0.0128,-0.5871 0.45146,-0.99298 0.42464,-0.42053 1.01174,-0.40772 0.5871,0.0128 1.41945,0.60403 l 6.35723,4.10711 0.0365,-1.67539 q 0.0128,-0.5871 0.45145,-0.99298 0.42464,-0.42053 1.01174,-0.40772 0.5871,0.0128 1.00731,0.45177 0.40621,0.42433 0.3934,1.01143 l -0.0753,3.451 7.76981,5.02617 q 0.58085,0.2992 1.00106,0.73816 0.40621,0.42433 0.39339,1.01143 -0.0128,0.5871 -0.43745,1.00762 -0.43864,0.4059 -1.02574,0.39308 -0.5871,-0.0128 -1.41946,-0.60402 l -6.35722,-4.10712 -0.0365,1.67538 q -0.0128,0.5871 -0.43745,1.00763 -0.43865,0.40589 -1.02575,0.39308 -0.5871,-0.0128 -0.9933,-0.43714 -0.42022,-0.43896 -0.4074,-1.02606 z" />
        <path
           inkscape:connector-curvature="0"
           id="path204"
           style="font-style:normal;font-variant:normal;font-weight:normal;font-stretch:normal;font-size:29.33333397px;line-height:0%;font-family:Instruction;-inkscape-font-specification:Instruction;letter-spacing:46.77999878px;word-spacing:0px;fill:none;stroke:#00ff00;stroke-width:0.95999998;stroke-miterlimit:4;stroke-dasharray:none;stroke-opacity:1"
           d="m 171.64131,701.26901 q -0.80709,1.05968 -0.62781,2.38448 0.17926,1.32481 1.23894,2.13189 1.05969,0.80708 2.38449,0.62781 1.32479,-0.17927 2.13187,-1.23896 l 1.30175,-1.70916 q 0.80708,-1.05968 0.62782,-2.38448 -0.17928,-1.32481 -1.23896,-2.13189 -1.05968,-0.80708 -2.38448,-0.62781 -1.3248,0.17927 -2.13188,1.23896 z m 2.54014,-5.69907 q 0.25824,-0.0554 0.50778,-0.0994 2.50042,-0.32812 4.50584,1.19926 2.00542,1.52737 2.34494,4.03647 0.3368,2.48901 -1.19057,4.49443 l -1.30174,1.70918 q -1.52739,2.00542 -4.02508,2.35362 -2.50042,0.32812 -4.50584,-1.19926 -2.00542,-1.52737 -2.34494,-4.03647 -0.0326,-0.24086 -0.0478,-0.50453 -0.25823,0.0554 -0.51049,0.0793 -2.4977,0.3482 -4.50312,-1.17919 -2.00542,-1.52737 -2.34223,-4.01638 -0.33951,-2.5091 1.18786,-4.51452 l 1.30174,-1.70916 q 1.52738,-2.00543 4.02779,-2.33355 2.4977,-0.3482 4.50312,1.17917 2.00542,1.52739 2.34222,4.0164 0.0354,0.26095 0.0506,0.52461 z m -4.12843,-2.26211 q -1.05968,-0.80708 -2.38448,-0.62782 -1.3248,0.17927 -2.13188,1.23895 l -1.30175,1.70917 q -0.80708,1.05968 -0.62781,2.38448 0.17927,1.3248 1.23896,2.13188 1.05968,0.80708 2.38447,0.62781 1.32481,-0.17926 2.13189,-1.23894 l 1.30173,-1.70917 q 0.80709,-1.05969 0.62782,-2.38449 -0.17927,-1.32479 -1.23895,-2.13187 z" />
        <path
           inkscape:connector-curvature="0"
           id="path206"
           style="font-style:normal;font-variant:normal;font-weight:normal;font-stretch:normal;font-size:29.33333397px;line-height:0%;font-family:Instruction;-inkscape-font-specification:Instruction;letter-spacing:46.77999878px;word-spacing:0px;fill:none;stroke:#00ff00;stroke-width:0.95999998;stroke-miterlimit:4;stroke-dasharray:none;stroke-opacity:1"
           d="m 227.22331,660.9027 q -2.41429,0.72514 -4.63987,-0.46082 -2.21599,-1.20379 -2.94113,-3.61809 -0.72514,-2.41428 0.46495,-4.62615 1.19967,-2.2297 3.61395,-2.95484 l 2.05764,-0.61802 q 2.41428,-0.72513 4.63027,0.47867 2.22558,1.18596 2.95072,3.60024 l 2.67807,8.9164 q 0.72514,2.41428 -0.47454,4.64399 -1.19008,2.21186 -3.60436,2.93701 l -2.05764,0.61801 q -2.41428,0.72514 -4.63987,-0.46083 -2.21598,-1.20379 -2.94112,-3.61808 -0.16893,-0.56241 0.1094,-1.0797 0.28792,-0.53513 0.85034,-0.70406 0.56242,-0.16893 1.08383,0.12312 0.53101,0.27421 0.69993,0.83662 0.38318,1.27573 1.56046,1.90916 1.17728,0.63343 2.45301,0.25027 l 2.05764,-0.61802 q 1.27573,-0.38317 1.90915,-1.56045 0.63343,-1.17729 0.25026,-2.45302 l -1.18658,-3.95065 q -1.09848,1.2721 -2.82689,1.79123 z m 1.2336,-3.36152 q 1.27573,-0.38317 1.90916,-1.56045 0.63344,-1.17729 0.25027,-2.45302 -0.38317,-1.27573 -1.56046,-1.90916 -1.17728,-0.63343 -2.45301,-0.25026 l -2.05763,0.61801 q -1.27573,0.38318 -1.90916,1.56046 -0.63343,1.17728 -0.25026,2.45301 0.38316,1.27573 1.56045,1.90917 1.17729,0.63343 2.45302,0.25026 z" />
        <path
           id="path2989-3"
           d="m 228.71552,617.62402 a 15.360001,15.360001 0 0 1 -15.36001,15.36001 15.360001,15.360001 0 0 1 -15.36,-15.36001 15.360001,15.360001 0 0 1 15.36,-15.36 15.360001,15.360001 0 0 1 15.36001,15.36 z"
           style="fill:none;stroke:#000000;stroke-width:1.22782314;stroke-linecap:round;stroke-miterlimit:4;stroke-dasharray:none;stroke-opacity:1"
           inkscape:connector-curvature="0" />
        <path
           id="path2989-5"
           d="m 324.90194,617.62402 a 15.360001,15.360001 0 0 1 -15.36001,15.36001 15.360001,15.360001 0 0 1 -15.36,-15.36001 15.360001,15.360001 0 0 1 15.36,-15.36 15.360001,15.360001 0 0 1 15.36001,15.36 z"
           style="fill:none;stroke:#000000;stroke-width:1.22782314;stroke-linecap:round;stroke-miterlimit:4;stroke-dasharray:none;stroke-opacity:1"
           inkscape:connector-curvature="0" />
        <path
           id="path2989-14"
           d="m 402.73018,674.56976 a 15.360001,15.360001 0 0 1 -15.36,15.36001 15.360001,15.360001 0 0 1 -15.36001,-15.36001 15.360001,15.360001 0 0 1 15.36001,-15.36 15.360001,15.360001 0 0 1 15.36,15.36 z"
           style="fill:none;stroke:#000000;stroke-width:1.22782314;stroke-linecap:round;stroke-miterlimit:4;stroke-dasharray:none;stroke-opacity:1"
           inkscape:connector-curvature="0" />
        <path
           id="path2989-6"
           d="m 432.40538,766.43713 a 15.359995,15.360001 0 0 1 -15.36,15.36001 15.359995,15.360001 0 0 1 -15.36,-15.36001 15.359995,15.360001 0 0 1 15.36,-15.36 15.359995,15.360001 0 0 1 15.36,15.36 z"
           style="fill:none;stroke:#000000;stroke-width:1.2278229;stroke-linecap:round;stroke-miterlimit:4;stroke-dasharray:none;stroke-opacity:1"
           inkscape:connector-curvature="0" />
        <path
           id="path2989-39"
           d="m 402.73018,858.44604 a 15.360001,15.360001 0 0 1 -15.36,15.36001 15.360001,15.360001 0 0 1 -15.36001,-15.36001 15.360001,15.360001 0 0 1 15.36001,-15.36 15.360001,15.360001 0 0 1 15.36,15.36 z"
           style="fill:none;stroke:#000000;stroke-width:1.22782314;stroke-linecap:round;stroke-miterlimit:4;stroke-dasharray:none;stroke-opacity:1"
           inkscape:connector-curvature="0" />
        <path
           id="path2989-4"
           d="m 324.90194,915.14166 a 15.360001,15.360001 0 0 1 -15.36001,15.36001 15.360001,15.360001 0 0 1 -15.36,-15.36001 15.360001,15.360001 0 0 1 15.36,-15.36 15.360001,15.360001 0 0 1 15.36001,15.36 z"
           style="fill:none;stroke:#000000;stroke-width:1.22782314;stroke-linecap:round;stroke-miterlimit:4;stroke-dasharray:none;stroke-opacity:1"
           inkscape:connector-curvature="0" />
        <path
           id="path2989-13"
           d="m 228.68936,915.14166 a 15.359995,15.360001 0 0 1 -15.36,15.36001 15.359995,15.360001 0 0 1 -15.36,-15.36001 15.359995,15.360001 0 0 1 15.36,-15.36 15.359995,15.360001 0 0 1 15.36,15.36 z"
           style="fill:none;stroke:#000000;stroke-width:1.2278229;stroke-linecap:round;stroke-miterlimit:4;stroke-dasharray:none;stroke-opacity:1"
           inkscape:connector-curvature="0" />
        <path
           id="path2989-2"
           d="m 150.80611,858.44604 a 15.360001,15.360001 0 0 1 -15.36,15.36001 15.360001,15.360001 0 0 1 -15.36001,-15.36001 15.360001,15.360001 0 0 1 15.36001,-15.36 15.360001,15.360001 0 0 1 15.36,15.36 z"
           style="fill:none;stroke:#000000;stroke-width:1.22782314;stroke-linecap:round;stroke-miterlimit:4;stroke-dasharray:none;stroke-opacity:1"
           inkscape:connector-curvature="0" />
        <path
           id="path2989-51"
           d="m 121.18254,766.43713 a 15.359998,15.360001 0 0 1 -15.36,15.36001 15.359998,15.360001 0 0 1 -15.359998,-15.36001 15.359998,15.360001 0 0 1 15.359998,-15.36 15.359998,15.360001 0 0 1 15.36,15.36 z"
           style="fill:none;stroke:#000000;stroke-width:1.22782302;stroke-linecap:round;stroke-miterlimit:4;stroke-dasharray:none;stroke-opacity:1"
           inkscape:connector-curvature="0" />
        <path
           id="path2989-27"
           d="m 150.80611,674.56976 a 15.360001,15.360001 0 0 1 -15.36,15.36001 15.360001,15.360001 0 0 1 -15.36001,-15.36001 15.360001,15.360001 0 0 1 15.36001,-15.36 15.360001,15.360001 0 0 1 15.36,15.36 z"
           style="fill:none;stroke:#000000;stroke-width:1.22782314;stroke-linecap:round;stroke-miterlimit:4;stroke-dasharray:none;stroke-opacity:1"
           inkscape:connector-curvature="0" />
        <path
           id="path2989-27-9"
           d="m 291.58573,726.6623 a 6.8544002,6.8543955 0 0 1 -6.8544,6.8544 6.8544002,6.8543955 0 0 1 -6.85441,-6.8544 6.8544002,6.8543955 0 0 1 6.85441,-6.85441 6.8544002,6.8543955 0 0 1 6.8544,6.85441 z"
           style="fill:none;stroke:#000000;stroke-width:0.73069978;stroke-linecap:round;stroke-miterlimit:4;stroke-dasharray:none;stroke-opacity:1"
           inkscape:connector-curvature="0" />
        <path
           id="path2989-27-9-8"
           d="m 291.58573,806.04459 a 6.8544002,6.8543955 0 0 1 -6.85441,6.85441 6.8544002,6.8543955 0 0 1 -6.8544,-6.85441 6.8544002,6.8543955 0 0 1 6.8544,-6.8544 6.8544002,6.8543955 0 0 1 6.85441,6.8544 z"
           style="fill:none;stroke:#000000;stroke-width:0.73069978;stroke-linecap:round;stroke-miterlimit:4;stroke-dasharray:none;stroke-opacity:1"
           inkscape:connector-curvature="0" />
        <path
           id="path2989-27-9-0"
           d="m 245.2473,806.04459 a 6.8544002,6.8543955 0 0 1 -6.85441,6.85441 6.8544002,6.8543955 0 0 1 -6.8544,-6.85441 6.8544002,6.8543955 0 0 1 6.8544,-6.8544 6.8544002,6.8543955 0 0 1 6.85441,6.8544 z"
           style="fill:none;stroke:#000000;stroke-width:0.73069978;stroke-linecap:round;stroke-miterlimit:4;stroke-dasharray:none;stroke-opacity:1"
           inkscape:connector-curvature="0" />
        <path
           id="path2989-27-9-7"
           d="m 222.02601,766.43714 a 6.8544053,6.8544007 0 0 1 -6.8544,6.8544 6.8544053,6.8544007 0 0 1 -6.8544,-6.8544 6.8544053,6.8544007 0 0 1 6.8544,-6.8544 6.8544053,6.8544007 0 0 1 6.8544,6.8544 z"
           style="fill:none;stroke:#000000;stroke-width:0.73070031;stroke-linecap:round;stroke-miterlimit:4;stroke-dasharray:none;stroke-opacity:1"
           inkscape:connector-curvature="0" />
        <path
           id="path2989-27-9-05"
           d="m 314.55907,766.43714 a 6.8544053,6.8544007 0 0 1 -6.8544,6.8544 6.8544053,6.8544007 0 0 1 -6.8544,-6.8544 6.8544053,6.8544007 0 0 1 6.8544,-6.8544 6.8544053,6.8544007 0 0 1 6.8544,6.8544 z"
           style="fill:none;stroke:#000000;stroke-width:0.73070031;stroke-linecap:round;stroke-miterlimit:4;stroke-dasharray:none;stroke-opacity:1"
           inkscape:connector-curvature="0" />
        <path
           style="fill:none;stroke:#ff0000;stroke-width:0.94488192;stroke-miterlimit:4;stroke-dasharray:none"
           inkscape:transform-center-y="-1.0350174e-006"
           d="m 281.14421,800.56904 -39.41214,0 -19.70606,-34.13191 19.70607,-34.1319 39.41213,0 19.70606,34.13191 z"
           id="path4623" />
        <path
           id="path2989-27-9-3"
           d="m 245.2473,726.6623 a 6.8544003,6.8543956 0 0 1 -6.8544,6.8544 6.8544003,6.8543956 0 0 1 -6.85441,-6.8544 6.8544003,6.8543956 0 0 1 6.85441,-6.85441 6.8544003,6.8543956 0 0 1 6.8544,6.85441 z"
           style="fill:none;stroke:#000000;stroke-width:0.73069978;stroke-linecap:round;stroke-miterlimit:4;stroke-dasharray:none;stroke-opacity:1"
           inkscape:connector-curvature="0" />
      </g>
      <g
         transform="translate(1.3228286,1.32287)"
         inkscape:label="Engrave"
         id="layer3" />
      <g
         transform="translate(1.3228286,1.32287)"
         inkscape:label="Guide"
         id="layer2" />
    </g>
  </g>
</svg>
