  0
SECTION
  2
HEADER
  9
$ACADVER
  1
AC1014
  9
$HANDSEED
  5
FFFF
  9
$MEASUREMENT
 70
     1
  0
ENDSEC
  0
SECTION
  2
TABLES
  0
TABLE
  2
VPORT
  5
8
330
0
100
AcDbSymbolTable
 70
     4
  0
VPORT
  5
2E
330
8
100
AcDbSymbolTableRecord
100
AcDbViewportTableRecord
  2
*ACTIVE
 70
     0
 10
0.0
 20
0.0
 11
1.0
 21
1.0
 12
210.0
 22
148.5
 13
0.0
 23
0.0
 14
10.0
 24
10.0
 15
10.0
 25
10.0
 16
0.0
 26
0.0
 36
1.0
 17
0.0
 27
0.0
 37
0.0
 40
341.0
 41
1.24
 42
50.0
 43
0.0
 44
0.0
 50
0.0
 51
0.0
 71
     0
 72
   100
 73
     1
 74
     3
 75
     0
 76
     0
 77
     0
 78
     0
  0
ENDTAB
  0
TABLE
  2
LTYPE
  5
5
330
0
100
AcDbSymbolTable
 70
     1
  0
LTYPE
  5
14
330
5
100
AcDbSymbolTableRecord
100
AcDbLinetypeTableRecord
  2
BYBLOCK
 70
     0
  3

 72
    65
 73
     0
 40
0.0
  0
LTYPE
  5
15
330
5
100
AcDbSymbolTableRecord
100
AcDbLinetypeTableRecord
  2
BYLAYER
 70
     0
  3

 72
    65
 73
     0
 40
0.0
  0
LTYPE
  5
16
330
5
100
AcDbSymbolTableRecord
100
AcDbLinetypeTableRecord
  2
CONTINUOUS
 70
     0
  3
Solid line
 72
    65
 73
     0
 40
0.0
  0
ENDTAB
  0
TABLE
  2
LAYER
  5
2
100
AcDbSymbolTable
 70
2
  0
LAYER
  5
50
100
AcDbSymbolTableRecord
100
AcDbLayerTableRecord
  2
0
 70
0
  6
CONTINUOUS
  0
LAYER
  5
51
100
AcDbSymbolTableRecord
100
AcDbLayerTableRecord
  2
Layer_1
 70
0
  6
CONTINUOUS
  0
ENDTAB
  0
TABLE
  2
STYLE
  5
3
330
0
100
AcDbSymbolTable
 70
     1
  0
STYLE
  5
11
330
3
100
AcDbSymbolTableRecord
100
AcDbTextStyleTableRecord
  2
STANDARD
 70
     0
 40
0.0
 41
1.0
 50
0.0
 71
     0
 42
2.5
  3
txt
  4

  0
ENDTAB
  0
TABLE
  2
VIEW
  5
6
330
0
100
AcDbSymbolTable
 70
     0
  0
ENDTAB
  0
TABLE
  2
UCS
  5
7
330
0
100
AcDbSymbolTable
 70
     0
  0
ENDTAB
  0
TABLE
  2
APPID
  5
9
330
0
100
AcDbSymbolTable
 70
     2
  0
APPID
  5
12
330
9
100
AcDbSymbolTableRecord
100
AcDbRegAppTableRecord
  2
ACAD
 70
     0
  0
ENDTAB
  0
TABLE
  2
DIMSTYLE
  5
A
330
0
100
AcDbSymbolTable
 70
     1
  0
DIMSTYLE
105
27
330
A
100
AcDbSymbolTableRecord
100
AcDbDimStyleTableRecord
  2
ISO-25
 70
     0
  3

  4

  5

  6

  7

 40
1.0
 41
2.5
 42
0.625
 43
3.75
 44
1.25
 45
0.0
 46
0.0
 47
0.0
 48
0.0
140
2.5
141
2.5
142
0.0
143
0.03937007874016
144
1.0
145
0.0
146
1.0
147
0.625
 71
     0
 72
     0
 73
     0
 74
     0
 75
     0
 76
     0
 77
     1
 78
     8
170
     0
171
     3
172
     1
173
     0
174
     0
175
     0
176
     0
177
     0
178
     0
270
     2
271
     2
272
     2
273
     2
274
     3
340
11
275
     0
280
     0
281
     0
282
     0
283
     0
284
     8
285
     0
286
     0
287
     3
288
     0
  0
ENDTAB
  0
TABLE
  2
BLOCK_RECORD
  5
1
330
0
100
AcDbSymbolTable
 70
     1
  0
BLOCK_RECORD
  5
1F
330
1
100
AcDbSymbolTableRecord
100
AcDbBlockTableRecord
  2
*MODEL_SPACE
  0
BLOCK_RECORD
  5
1B
330
1
100
AcDbSymbolTableRecord
100
AcDbBlockTableRecord
  2
*PAPER_SPACE
  0
ENDTAB
  0
ENDSEC
  0
SECTION
  2
BLOCKS
  0
BLOCK
  5
20
330
1F
100
AcDbEntity
  8
0
100
AcDbBlockBegin
  2
*MODEL_SPACE
 70
     0
 10
0.0
 20
0.0
 30
0.0
  3
*MODEL_SPACE
  1

  0
ENDBLK
  5
21
330
1F
100
AcDbEntity
  8
0
100
AcDbBlockEnd
  0
BLOCK
  5
1C
330
1B
100
AcDbEntity
 67
     1
  8
0
100
AcDbBlockBegin
  2
*PAPER_SPACE
  1

  0
ENDBLK
  5
1D
330
1B
100
AcDbEntity
 67
     1
  8
0
100
AcDbBlockEnd
  0
ENDSEC
  0
SECTION
  2
ENTITIES
  0
LINE
  5
100
100
AcDbEntity
  8
Layer_1
 62
7
100
AcDbLine
 10
0.500026
 20
4.437512
 30
0.0
 11
5.499974
 21
4.437512
 31
0.0
  0
LINE
  5
101
100
AcDbEntity
  8
Layer_1
 62
7
100
AcDbLine
 10
5.499974
 20
4.437512
 30
0.0
 11
5.499974
 21
0.562487
 31
0.0
  0
LINE
  5
102
100
AcDbEntity
  8
Layer_1
 62
7
100
AcDbLine
 10
5.499974
 20
0.562487
 30
0.0
 11
0.500026
 21
0.562487
 31
0.0
  0
LINE
  5
103
100
AcDbEntity
  8
Layer_1
 62
7
100
AcDbLine
 10
0.500026
 20
0.562487
 30
0.0
 11
0.500026
 21
4.437512
 31
0.0
  0
SPLINE
  5
104
100
AcDbEntity
  8
Layer_1
 62
7
100
AcDbSpline
 70
8
 71
3
 72
8
 73
4
 74
0
 40
0
 40
0
 40
0
 40
0
 40
1
 40
1
 40
1
 40
1
 10
2.724139
 20
4.050137
 30
0.0
 10
2.724139
 20
3.990463
 30
0.0
 10
2.700434
 20
3.933233
 30
0.0
 10
2.658238
 20
3.891038
 30
0.0
  0
SPLINE
  5
105
100
AcDbEntity
  8
Layer_1
 62
7
100
AcDbSpline
 70
8
 71
3
 72
8
 73
4
 74
0
 40
0
 40
0
 40
0
 40
0
 40
1
 40
1
 40
1
 40
1
 10
2.658238
 20
3.891038
 30
0.0
 10
2.616043
 20
3.848842
 30
0.0
 10
2.558813
 20
3.825137
 30
0.0
 10
2.499139
 20
3.825137
 30
0.0
  0
SPLINE
  5
106
100
AcDbEntity
  8
Layer_1
 62
7
100
AcDbSpline
 70
8
 71
3
 72
8
 73
4
 74
0
 40
0
 40
0
 40
0
 40
0
 40
1
 40
1
 40
1
 40
1
 10
2.499139
 20
3.825137
 30
0.0
 10
2.439465
 20
3.825137
 30
0.0
 10
2.382236
 20
3.848842
 30
0.0
 10
2.340040
 20
3.891038
 30
0.0
  0
SPLINE
  5
107
100
AcDbEntity
  8
Layer_1
 62
7
100
AcDbSpline
 70
8
 71
3
 72
8
 73
4
 74
0
 40
0
 40
0
 40
0
 40
0
 40
1
 40
1
 40
1
 40
1
 10
2.340040
 20
3.891038
 30
0.0
 10
2.297844
 20
3.933233
 30
0.0
 10
2.274139
 20
3.990463
 30
0.0
 10
2.274139
 20
4.050137
 30
0.0
  0
SPLINE
  5
108
100
AcDbEntity
  8
Layer_1
 62
7
100
AcDbSpline
 70
8
 71
3
 72
8
 73
4
 74
0
 40
0
 40
0
 40
0
 40
0
 40
1
 40
1
 40
1
 40
1
 10
2.274139
 20
4.050137
 30
0.0
 10
2.274139
 20
4.174401
 30
0.0
 10
2.374875
 20
4.275137
 30
0.0
 10
2.499139
 20
4.275137
 30
0.0
  0
SPLINE
  5
109
100
AcDbEntity
  8
Layer_1
 62
7
100
AcDbSpline
 70
8
 71
3
 72
8
 73
4
 74
0
 40
0
 40
0
 40
0
 40
0
 40
1
 40
1
 40
1
 40
1
 10
2.499139
 20
4.275137
 30
0.0
 10
2.558813
 20
4.275137
 30
0.0
 10
2.616043
 20
4.251431
 30
0.0
 10
2.658238
 20
4.209236
 30
0.0
  0
SPLINE
  5
10a
100
AcDbEntity
  8
Layer_1
 62
7
100
AcDbSpline
 70
8
 71
3
 72
8
 73
4
 74
0
 40
0
 40
0
 40
0
 40
0
 40
1
 40
1
 40
1
 40
1
 10
2.658238
 20
4.209236
 30
0.0
 10
2.700434
 20
4.167040
 30
0.0
 10
2.724139
 20
4.109810
 30
0.0
 10
2.724139
 20
4.050137
 30
0.0
  0
LINE
  5
10b
100
AcDbEntity
  8
Layer_1
 62
7
100
AcDbLine
 10
2.724139
 20
4.050137
 30
0.0
 11
2.724139
 21
4.050137
 31
0.0
  0
LINE
  5
10c
100
AcDbEntity
  8
Layer_1
 62
1
100
AcDbLine
 10
4.621812
 20
2.500000
 30
0.0
 11
4.312073
 21
1.542048
 31
0.0
  0
LINE
  5
10d
100
AcDbEntity
  8
Layer_1
 62
1
100
AcDbLine
 10
4.312073
 20
1.542048
 30
0.0
 11
3.501167
 21
0.950000
 31
0.0
  0
LINE
  5
10e
100
AcDbEntity
  8
Layer_1
 62
1
100
AcDbLine
 10
3.501167
 20
0.950000
 30
0.0
 11
2.498833
 21
0.950000
 31
0.0
  0
LINE
  5
10f
100
AcDbEntity
  8
Layer_1
 62
1
100
AcDbLine
 10
2.498833
 20
0.950000
 30
0.0
 11
1.687927
 21
1.542047
 31
0.0
  0
LINE
  5
110
100
AcDbEntity
  8
Layer_1
 62
1
100
AcDbLine
 10
1.687927
 20
1.542047
 30
0.0
 11
1.378189
 21
2.500000
 31
0.0
  0
LINE
  5
111
100
AcDbEntity
  8
Layer_1
 62
1
100
AcDbLine
 10
1.378189
 20
2.500000
 30
0.0
 11
1.687927
 21
3.457953
 31
0.0
  0
LINE
  5
112
100
AcDbEntity
  8
Layer_1
 62
1
100
AcDbLine
 10
1.687927
 20
3.457953
 30
0.0
 11
2.498833
 21
4.050000
 31
0.0
  0
LINE
  5
113
100
AcDbEntity
  8
Layer_1
 62
1
100
AcDbLine
 10
2.498833
 20
4.050000
 30
0.0
 11
3.501167
 21
4.050000
 31
0.0
  0
LINE
  5
114
100
AcDbEntity
  8
Layer_1
 62
1
100
AcDbLine
 10
3.501167
 20
4.050000
 30
0.0
 11
4.312073
 21
3.457953
 31
0.0
  0
LINE
  5
115
100
AcDbEntity
  8
Layer_1
 62
1
100
AcDbLine
 10
4.312073
 20
3.457953
 30
0.0
 11
4.621812
 21
2.500000
 31
0.0
  0
SPLINE
  5
116
100
AcDbEntity
  8
Layer_1
 62
7
100
AcDbSpline
 70
8
 71
3
 72
8
 73
4
 74
0
 40
0
 40
0
 40
0
 40
0
 40
1
 40
1
 40
1
 40
1
 10
3.726081
 20
4.050137
 30
0.0
 10
3.726081
 20
3.990463
 30
0.0
 10
3.702376
 20
3.933233
 30
0.0
 10
3.660180
 20
3.891038
 30
0.0
  0
SPLINE
  5
117
100
AcDbEntity
  8
Layer_1
 62
7
100
AcDbSpline
 70
8
 71
3
 72
8
 73
4
 74
0
 40
0
 40
0
 40
0
 40
0
 40
1
 40
1
 40
1
 40
1
 10
3.660180
 20
3.891038
 30
0.0
 10
3.617984
 20
3.848842
 30
0.0
 10
3.560755
 20
3.825137
 30
0.0
 10
3.501081
 20
3.825137
 30
0.0
  0
SPLINE
  5
118
100
AcDbEntity
  8
Layer_1
 62
7
100
AcDbSpline
 70
8
 71
3
 72
8
 73
4
 74
0
 40
0
 40
0
 40
0
 40
0
 40
1
 40
1
 40
1
 40
1
 10
3.501081
 20
3.825137
 30
0.0
 10
3.441407
 20
3.825137
 30
0.0
 10
3.384178
 20
3.848842
 30
0.0
 10
3.341982
 20
3.891038
 30
0.0
  0
SPLINE
  5
119
100
AcDbEntity
  8
Layer_1
 62
7
100
AcDbSpline
 70
8
 71
3
 72
8
 73
4
 74
0
 40
0
 40
0
 40
0
 40
0
 40
1
 40
1
 40
1
 40
1
 10
3.341982
 20
3.891038
 30
0.0
 10
3.299786
 20
3.933233
 30
0.0
 10
3.276081
 20
3.990463
 30
0.0
 10
3.276081
 20
4.050137
 30
0.0
  0
SPLINE
  5
11a
100
AcDbEntity
  8
Layer_1
 62
7
100
AcDbSpline
 70
8
 71
3
 72
8
 73
4
 74
0
 40
0
 40
0
 40
0
 40
0
 40
1
 40
1
 40
1
 40
1
 10
3.276081
 20
4.050137
 30
0.0
 10
3.276081
 20
4.174401
 30
0.0
 10
3.376817
 20
4.275137
 30
0.0
 10
3.501081
 20
4.275137
 30
0.0
  0
SPLINE
  5
11b
100
AcDbEntity
  8
Layer_1
 62
7
100
AcDbSpline
 70
8
 71
3
 72
8
 73
4
 74
0
 40
0
 40
0
 40
0
 40
0
 40
1
 40
1
 40
1
 40
1
 10
3.501081
 20
4.275137
 30
0.0
 10
3.625345
 20
4.275137
 30
0.0
 10
3.726081
 20
4.174401
 30
0.0
 10
3.726081
 20
4.050137
 30
0.0
  0
LINE
  5
11c
100
AcDbEntity
  8
Layer_1
 62
7
100
AcDbLine
 10
3.726081
 20
4.050137
 30
0.0
 11
3.726081
 21
4.050137
 31
0.0
  0
SPLINE
  5
11d
100
AcDbEntity
  8
Layer_1
 62
7
100
AcDbSpline
 70
8
 71
3
 72
8
 73
4
 74
0
 40
0
 40
0
 40
0
 40
0
 40
1
 40
1
 40
1
 40
1
 10
4.536792
 20
3.456952
 30
0.0
 10
4.536792
 20
3.397278
 30
0.0
 10
4.513087
 20
3.340049
 30
0.0
 10
4.470891
 20
3.297853
 30
0.0
  0
SPLINE
  5
11e
100
AcDbEntity
  8
Layer_1
 62
7
100
AcDbSpline
 70
8
 71
3
 72
8
 73
4
 74
0
 40
0
 40
0
 40
0
 40
0
 40
1
 40
1
 40
1
 40
1
 10
4.470891
 20
3.297853
 30
0.0
 10
4.428695
 20
3.255657
 30
0.0
 10
4.371466
 20
3.231952
 30
0.0
 10
4.311792
 20
3.231952
 30
0.0
  0
SPLINE
  5
11f
100
AcDbEntity
  8
Layer_1
 62
7
100
AcDbSpline
 70
8
 71
3
 72
8
 73
4
 74
0
 40
0
 40
0
 40
0
 40
0
 40
1
 40
1
 40
1
 40
1
 10
4.311792
 20
3.231952
 30
0.0
 10
4.252118
 20
3.231952
 30
0.0
 10
4.194889
 20
3.255657
 30
0.0
 10
4.152693
 20
3.297853
 30
0.0
  0
SPLINE
  5
120
100
AcDbEntity
  8
Layer_1
 62
7
100
AcDbSpline
 70
8
 71
3
 72
8
 73
4
 74
0
 40
0
 40
0
 40
0
 40
0
 40
1
 40
1
 40
1
 40
1
 10
4.152693
 20
3.297853
 30
0.0
 10
4.110497
 20
3.340049
 30
0.0
 10
4.086792
 20
3.397278
 30
0.0
 10
4.086792
 20
3.456952
 30
0.0
  0
SPLINE
  5
121
100
AcDbEntity
  8
Layer_1
 62
7
100
AcDbSpline
 70
8
 71
3
 72
8
 73
4
 74
0
 40
0
 40
0
 40
0
 40
0
 40
1
 40
1
 40
1
 40
1
 10
4.086792
 20
3.456952
 30
0.0
 10
4.086792
 20
3.581216
 30
0.0
 10
4.187528
 20
3.681952
 30
0.0
 10
4.311792
 20
3.681952
 30
0.0
  0
SPLINE
  5
122
100
AcDbEntity
  8
Layer_1
 62
7
100
AcDbSpline
 70
8
 71
3
 72
8
 73
4
 74
0
 40
0
 40
0
 40
0
 40
0
 40
1
 40
1
 40
1
 40
1
 10
4.311792
 20
3.681952
 30
0.0
 10
4.436056
 20
3.681952
 30
0.0
 10
4.536792
 20
3.581216
 30
0.0
 10
4.536792
 20
3.456952
 30
0.0
  0
LINE
  5
123
100
AcDbEntity
  8
Layer_1
 62
7
100
AcDbLine
 10
4.536792
 20
3.456952
 30
0.0
 11
4.536792
 21
3.456952
 31
0.0
  0
SPLINE
  5
124
100
AcDbEntity
  8
Layer_1
 62
7
100
AcDbSpline
 70
8
 71
3
 72
8
 73
4
 74
0
 40
0
 40
0
 40
0
 40
0
 40
1
 40
1
 40
1
 40
1
 10
4.845909
 20
2.500000
 30
0.0
 10
4.845909
 20
2.440326
 30
0.0
 10
4.822203
 20
2.383097
 30
0.0
 10
4.780008
 20
2.340901
 30
0.0
  0
SPLINE
  5
125
100
AcDbEntity
  8
Layer_1
 62
7
100
AcDbSpline
 70
8
 71
3
 72
8
 73
4
 74
0
 40
0
 40
0
 40
0
 40
0
 40
1
 40
1
 40
1
 40
1
 10
4.780008
 20
2.340901
 30
0.0
 10
4.737812
 20
2.298705
 30
0.0
 10
4.680582
 20
2.275000
 30
0.0
 10
4.620909
 20
2.275000
 30
0.0
  0
SPLINE
  5
126
100
AcDbEntity
  8
Layer_1
 62
7
100
AcDbSpline
 70
8
 71
3
 72
8
 73
4
 74
0
 40
0
 40
0
 40
0
 40
0
 40
1
 40
1
 40
1
 40
1
 10
4.620909
 20
2.275000
 30
0.0
 10
4.561235
 20
2.275000
 30
0.0
 10
4.504005
 20
2.298705
 30
0.0
 10
4.461810
 20
2.340901
 30
0.0
  0
SPLINE
  5
127
100
AcDbEntity
  8
Layer_1
 62
7
100
AcDbSpline
 70
8
 71
3
 72
8
 73
4
 74
0
 40
0
 40
0
 40
0
 40
0
 40
1
 40
1
 40
1
 40
1
 10
4.461810
 20
2.340901
 30
0.0
 10
4.419614
 20
2.383097
 30
0.0
 10
4.395909
 20
2.440326
 30
0.0
 10
4.395909
 20
2.500000
 30
0.0
  0
SPLINE
  5
128
100
AcDbEntity
  8
Layer_1
 62
7
100
AcDbSpline
 70
8
 71
3
 72
8
 73
4
 74
0
 40
0
 40
0
 40
0
 40
0
 40
1
 40
1
 40
1
 40
1
 10
4.395909
 20
2.500000
 30
0.0
 10
4.395909
 20
2.624264
 30
0.0
 10
4.496645
 20
2.725000
 30
0.0
 10
4.620909
 20
2.725000
 30
0.0
  0
SPLINE
  5
129
100
AcDbEntity
  8
Layer_1
 62
7
100
AcDbSpline
 70
8
 71
3
 72
8
 73
4
 74
0
 40
0
 40
0
 40
0
 40
0
 40
1
 40
1
 40
1
 40
1
 10
4.620909
 20
2.725000
 30
0.0
 10
4.745173
 20
2.725000
 30
0.0
 10
4.845909
 20
2.624264
 30
0.0
 10
4.845909
 20
2.500000
 30
0.0
  0
LINE
  5
12a
100
AcDbEntity
  8
Layer_1
 62
7
100
AcDbLine
 10
4.845909
 20
2.500000
 30
0.0
 11
4.845909
 21
2.500000
 31
0.0
  0
SPLINE
  5
12b
100
AcDbEntity
  8
Layer_1
 62
7
100
AcDbSpline
 70
8
 71
3
 72
8
 73
4
 74
0
 40
0
 40
0
 40
0
 40
0
 40
1
 40
1
 40
1
 40
1
 10
4.536792
 20
1.541574
 30
0.0
 10
4.536792
 20
1.481900
 30
0.0
 10
4.513087
 20
1.424671
 30
0.0
 10
4.470891
 20
1.382475
 30
0.0
  0
SPLINE
  5
12c
100
AcDbEntity
  8
Layer_1
 62
7
100
AcDbSpline
 70
8
 71
3
 72
8
 73
4
 74
0
 40
0
 40
0
 40
0
 40
0
 40
1
 40
1
 40
1
 40
1
 10
4.470891
 20
1.382475
 30
0.0
 10
4.428695
 20
1.340279
 30
0.0
 10
4.371466
 20
1.316574
 30
0.0
 10
4.311792
 20
1.316574
 30
0.0
  0
SPLINE
  5
12d
100
AcDbEntity
  8
Layer_1
 62
7
100
AcDbSpline
 70
8
 71
3
 72
8
 73
4
 74
0
 40
0
 40
0
 40
0
 40
0
 40
1
 40
1
 40
1
 40
1
 10
4.311792
 20
1.316574
 30
0.0
 10
4.252118
 20
1.316574
 30
0.0
 10
4.194889
 20
1.340279
 30
0.0
 10
4.152693
 20
1.382475
 30
0.0
  0
SPLINE
  5
12e
100
AcDbEntity
  8
Layer_1
 62
7
100
AcDbSpline
 70
8
 71
3
 72
8
 73
4
 74
0
 40
0
 40
0
 40
0
 40
0
 40
1
 40
1
 40
1
 40
1
 10
4.152693
 20
1.382475
 30
0.0
 10
4.110497
 20
1.424671
 30
0.0
 10
4.086792
 20
1.481900
 30
0.0
 10
4.086792
 20
1.541574
 30
0.0
  0
SPLINE
  5
12f
100
AcDbEntity
  8
Layer_1
 62
7
100
AcDbSpline
 70
8
 71
3
 72
8
 73
4
 74
0
 40
0
 40
0
 40
0
 40
0
 40
1
 40
1
 40
1
 40
1
 10
4.086792
 20
1.541574
 30
0.0
 10
4.086792
 20
1.665838
 30
0.0
 10
4.187528
 20
1.766574
 30
0.0
 10
4.311792
 20
1.766574
 30
0.0
  0
SPLINE
  5
130
100
AcDbEntity
  8
Layer_1
 62
7
100
AcDbSpline
 70
8
 71
3
 72
8
 73
4
 74
0
 40
0
 40
0
 40
0
 40
0
 40
1
 40
1
 40
1
 40
1
 10
4.311792
 20
1.766574
 30
0.0
 10
4.436056
 20
1.766574
 30
0.0
 10
4.536792
 20
1.665838
 30
0.0
 10
4.536792
 20
1.541574
 30
0.0
  0
LINE
  5
131
100
AcDbEntity
  8
Layer_1
 62
7
100
AcDbLine
 10
4.536792
 20
1.541574
 30
0.0
 11
4.536792
 21
1.541574
 31
0.0
  0
SPLINE
  5
132
100
AcDbEntity
  8
Layer_1
 62
7
100
AcDbSpline
 70
8
 71
3
 72
8
 73
4
 74
0
 40
0
 40
0
 40
0
 40
0
 40
1
 40
1
 40
1
 40
1
 10
3.726081
 20
0.950995
 30
0.0
 10
3.726081
 20
0.826731
 30
0.0
 10
3.625345
 20
0.725995
 30
0.0
 10
3.501081
 20
0.725995
 30
0.0
  0
SPLINE
  5
133
100
AcDbEntity
  8
Layer_1
 62
7
100
AcDbSpline
 70
8
 71
3
 72
8
 73
4
 74
0
 40
0
 40
0
 40
0
 40
0
 40
1
 40
1
 40
1
 40
1
 10
3.501081
 20
0.725995
 30
0.0
 10
3.376817
 20
0.725995
 30
0.0
 10
3.276081
 20
0.826731
 30
0.0
 10
3.276081
 20
0.950995
 30
0.0
  0
SPLINE
  5
134
100
AcDbEntity
  8
Layer_1
 62
7
100
AcDbSpline
 70
8
 71
3
 72
8
 73
4
 74
0
 40
0
 40
0
 40
0
 40
0
 40
1
 40
1
 40
1
 40
1
 10
3.276081
 20
0.950995
 30
0.0
 10
3.276081
 20
1.075259
 30
0.0
 10
3.376817
 20
1.175995
 30
0.0
 10
3.501081
 20
1.175995
 30
0.0
  0
SPLINE
  5
135
100
AcDbEntity
  8
Layer_1
 62
7
100
AcDbSpline
 70
8
 71
3
 72
8
 73
4
 74
0
 40
0
 40
0
 40
0
 40
0
 40
1
 40
1
 40
1
 40
1
 10
3.501081
 20
1.175995
 30
0.0
 10
3.625345
 20
1.175995
 30
0.0
 10
3.726081
 20
1.075259
 30
0.0
 10
3.726081
 20
0.950995
 30
0.0
  0
LINE
  5
136
100
AcDbEntity
  8
Layer_1
 62
7
100
AcDbLine
 10
3.726081
 20
0.950995
 30
0.0
 11
3.726081
 21
0.950995
 31
0.0
  0
SPLINE
  5
137
100
AcDbEntity
  8
Layer_1
 62
7
100
AcDbSpline
 70
8
 71
3
 72
8
 73
4
 74
0
 40
0
 40
0
 40
0
 40
0
 40
1
 40
1
 40
1
 40
1
 10
2.723867
 20
0.950995
 30
0.0
 10
2.723867
 20
0.826731
 30
0.0
 10
2.623131
 20
0.725995
 30
0.0
 10
2.498867
 20
0.725995
 30
0.0
  0
SPLINE
  5
138
100
AcDbEntity
  8
Layer_1
 62
7
100
AcDbSpline
 70
8
 71
3
 72
8
 73
4
 74
0
 40
0
 40
0
 40
0
 40
0
 40
1
 40
1
 40
1
 40
1
 10
2.498867
 20
0.725995
 30
0.0
 10
2.374603
 20
0.725995
 30
0.0
 10
2.273867
 20
0.826731
 30
0.0
 10
2.273867
 20
0.950995
 30
0.0
  0
SPLINE
  5
139
100
AcDbEntity
  8
Layer_1
 62
7
100
AcDbSpline
 70
8
 71
3
 72
8
 73
4
 74
0
 40
0
 40
0
 40
0
 40
0
 40
1
 40
1
 40
1
 40
1
 10
2.273867
 20
0.950995
 30
0.0
 10
2.273867
 20
1.075259
 30
0.0
 10
2.374603
 20
1.175995
 30
0.0
 10
2.498867
 20
1.175995
 30
0.0
  0
SPLINE
  5
13a
100
AcDbEntity
  8
Layer_1
 62
7
100
AcDbSpline
 70
8
 71
3
 72
8
 73
4
 74
0
 40
0
 40
0
 40
0
 40
0
 40
1
 40
1
 40
1
 40
1
 10
2.498867
 20
1.175995
 30
0.0
 10
2.623131
 20
1.175995
 30
0.0
 10
2.723867
 20
1.075259
 30
0.0
 10
2.723867
 20
0.950995
 30
0.0
  0
LINE
  5
13b
100
AcDbEntity
  8
Layer_1
 62
7
100
AcDbLine
 10
2.723867
 20
0.950995
 30
0.0
 11
2.723867
 21
0.950995
 31
0.0
  0
SPLINE
  5
13c
100
AcDbEntity
  8
Layer_1
 62
7
100
AcDbSpline
 70
8
 71
3
 72
8
 73
4
 74
0
 40
0
 40
0
 40
0
 40
0
 40
1
 40
1
 40
1
 40
1
 10
1.912583
 20
1.541574
 30
0.0
 10
1.912583
 20
1.481900
 30
0.0
 10
1.888878
 20
1.424671
 30
0.0
 10
1.846682
 20
1.382475
 30
0.0
  0
SPLINE
  5
13d
100
AcDbEntity
  8
Layer_1
 62
7
100
AcDbSpline
 70
8
 71
3
 72
8
 73
4
 74
0
 40
0
 40
0
 40
0
 40
0
 40
1
 40
1
 40
1
 40
1
 10
1.846682
 20
1.382475
 30
0.0
 10
1.804486
 20
1.340279
 30
0.0
 10
1.747257
 20
1.316574
 30
0.0
 10
1.687583
 20
1.316574
 30
0.0
  0
SPLINE
  5
13e
100
AcDbEntity
  8
Layer_1
 62
7
100
AcDbSpline
 70
8
 71
3
 72
8
 73
4
 74
0
 40
0
 40
0
 40
0
 40
0
 40
1
 40
1
 40
1
 40
1
 10
1.687583
 20
1.316574
 30
0.0
 10
1.627909
 20
1.316574
 30
0.0
 10
1.570680
 20
1.340279
 30
0.0
 10
1.528484
 20
1.382475
 30
0.0
  0
SPLINE
  5
13f
100
AcDbEntity
  8
Layer_1
 62
7
100
AcDbSpline
 70
8
 71
3
 72
8
 73
4
 74
0
 40
0
 40
0
 40
0
 40
0
 40
1
 40
1
 40
1
 40
1
 10
1.528484
 20
1.382475
 30
0.0
 10
1.486288
 20
1.424671
 30
0.0
 10
1.462583
 20
1.481900
 30
0.0
 10
1.462583
 20
1.541574
 30
0.0
  0
SPLINE
  5
140
100
AcDbEntity
  8
Layer_1
 62
7
100
AcDbSpline
 70
8
 71
3
 72
8
 73
4
 74
0
 40
0
 40
0
 40
0
 40
0
 40
1
 40
1
 40
1
 40
1
 10
1.462583
 20
1.541574
 30
0.0
 10
1.462583
 20
1.601248
 30
0.0
 10
1.486288
 20
1.658477
 30
0.0
 10
1.528484
 20
1.700673
 30
0.0
  0
SPLINE
  5
141
100
AcDbEntity
  8
Layer_1
 62
7
100
AcDbSpline
 70
8
 71
3
 72
8
 73
4
 74
0
 40
0
 40
0
 40
0
 40
0
 40
1
 40
1
 40
1
 40
1
 10
1.528484
 20
1.700673
 30
0.0
 10
1.570680
 20
1.742869
 30
0.0
 10
1.627909
 20
1.766574
 30
0.0
 10
1.687583
 20
1.766574
 30
0.0
  0
SPLINE
  5
142
100
AcDbEntity
  8
Layer_1
 62
7
100
AcDbSpline
 70
8
 71
3
 72
8
 73
4
 74
0
 40
0
 40
0
 40
0
 40
0
 40
1
 40
1
 40
1
 40
1
 10
1.687583
 20
1.766574
 30
0.0
 10
1.811847
 20
1.766574
 30
0.0
 10
1.912583
 20
1.665838
 30
0.0
 10
1.912583
 20
1.541574
 30
0.0
  0
LINE
  5
143
100
AcDbEntity
  8
Layer_1
 62
7
100
AcDbLine
 10
1.912583
 20
1.541574
 30
0.0
 11
1.912583
 21
1.541574
 31
0.0
  0
SPLINE
  5
144
100
AcDbEntity
  8
Layer_1
 62
7
100
AcDbSpline
 70
8
 71
3
 72
8
 73
4
 74
0
 40
0
 40
0
 40
0
 40
0
 40
1
 40
1
 40
1
 40
1
 10
1.604004
 20
2.500000
 30
0.0
 10
1.604004
 20
2.440326
 30
0.0
 10
1.580299
 20
2.383097
 30
0.0
 10
1.538103
 20
2.340901
 30
0.0
  0
SPLINE
  5
145
100
AcDbEntity
  8
Layer_1
 62
7
100
AcDbSpline
 70
8
 71
3
 72
8
 73
4
 74
0
 40
0
 40
0
 40
0
 40
0
 40
1
 40
1
 40
1
 40
1
 10
1.538103
 20
2.340901
 30
0.0
 10
1.495907
 20
2.298705
 30
0.0
 10
1.438678
 20
2.275000
 30
0.0
 10
1.379004
 20
2.275000
 30
0.0
  0
SPLINE
  5
146
100
AcDbEntity
  8
Layer_1
 62
7
100
AcDbSpline
 70
8
 71
3
 72
8
 73
4
 74
0
 40
0
 40
0
 40
0
 40
0
 40
1
 40
1
 40
1
 40
1
 10
1.379004
 20
2.275000
 30
0.0
 10
1.319330
 20
2.275000
 30
0.0
 10
1.262101
 20
2.298705
 30
0.0
 10
1.219905
 20
2.340901
 30
0.0
  0
SPLINE
  5
147
100
AcDbEntity
  8
Layer_1
 62
7
100
AcDbSpline
 70
8
 71
3
 72
8
 73
4
 74
0
 40
0
 40
0
 40
0
 40
0
 40
1
 40
1
 40
1
 40
1
 10
1.219905
 20
2.340901
 30
0.0
 10
1.177709
 20
2.383097
 30
0.0
 10
1.154004
 20
2.440326
 30
0.0
 10
1.154004
 20
2.500000
 30
0.0
  0
SPLINE
  5
148
100
AcDbEntity
  8
Layer_1
 62
7
100
AcDbSpline
 70
8
 71
3
 72
8
 73
4
 74
0
 40
0
 40
0
 40
0
 40
0
 40
1
 40
1
 40
1
 40
1
 10
1.154004
 20
2.500000
 30
0.0
 10
1.154004
 20
2.624264
 30
0.0
 10
1.254740
 20
2.725000
 30
0.0
 10
1.379004
 20
2.725000
 30
0.0
  0
SPLINE
  5
149
100
AcDbEntity
  8
Layer_1
 62
7
100
AcDbSpline
 70
8
 71
3
 72
8
 73
4
 74
0
 40
0
 40
0
 40
0
 40
0
 40
1
 40
1
 40
1
 40
1
 10
1.379004
 20
2.725000
 30
0.0
 10
1.503268
 20
2.725000
 30
0.0
 10
1.604004
 20
2.624264
 30
0.0
 10
1.604004
 20
2.500000
 30
0.0
  0
LINE
  5
14a
100
AcDbEntity
  8
Layer_1
 62
7
100
AcDbLine
 10
1.604004
 20
2.500000
 30
0.0
 11
1.604004
 21
2.500000
 31
0.0
  0
SPLINE
  5
14b
100
AcDbEntity
  8
Layer_1
 62
7
100
AcDbSpline
 70
8
 71
3
 72
8
 73
4
 74
0
 40
0
 40
0
 40
0
 40
0
 40
1
 40
1
 40
1
 40
1
 10
1.912583
 20
3.456952
 30
0.0
 10
1.912583
 20
3.397278
 30
0.0
 10
1.888878
 20
3.340049
 30
0.0
 10
1.846682
 20
3.297853
 30
0.0
  0
SPLINE
  5
14c
100
AcDbEntity
  8
Layer_1
 62
7
100
AcDbSpline
 70
8
 71
3
 72
8
 73
4
 74
0
 40
0
 40
0
 40
0
 40
0
 40
1
 40
1
 40
1
 40
1
 10
1.846682
 20
3.297853
 30
0.0
 10
1.804486
 20
3.255657
 30
0.0
 10
1.747257
 20
3.231952
 30
0.0
 10
1.687583
 20
3.231952
 30
0.0
  0
SPLINE
  5
14d
100
AcDbEntity
  8
Layer_1
 62
7
100
AcDbSpline
 70
8
 71
3
 72
8
 73
4
 74
0
 40
0
 40
0
 40
0
 40
0
 40
1
 40
1
 40
1
 40
1
 10
1.687583
 20
3.231952
 30
0.0
 10
1.627909
 20
3.231952
 30
0.0
 10
1.570680
 20
3.255657
 30
0.0
 10
1.528484
 20
3.297853
 30
0.0
  0
SPLINE
  5
14e
100
AcDbEntity
  8
Layer_1
 62
7
100
AcDbSpline
 70
8
 71
3
 72
8
 73
4
 74
0
 40
0
 40
0
 40
0
 40
0
 40
1
 40
1
 40
1
 40
1
 10
1.528484
 20
3.297853
 30
0.0
 10
1.486288
 20
3.340048
 30
0.0
 10
1.462583
 20
3.397278
 30
0.0
 10
1.462583
 20
3.456952
 30
0.0
  0
SPLINE
  5
14f
100
AcDbEntity
  8
Layer_1
 62
7
100
AcDbSpline
 70
8
 71
3
 72
8
 73
4
 74
0
 40
0
 40
0
 40
0
 40
0
 40
1
 40
1
 40
1
 40
1
 10
1.462583
 20
3.456952
 30
0.0
 10
1.462583
 20
3.516626
 30
0.0
 10
1.486288
 20
3.573855
 30
0.0
 10
1.528484
 20
3.616051
 30
0.0
  0
SPLINE
  5
150
100
AcDbEntity
  8
Layer_1
 62
7
100
AcDbSpline
 70
8
 71
3
 72
8
 73
4
 74
0
 40
0
 40
0
 40
0
 40
0
 40
1
 40
1
 40
1
 40
1
 10
1.528484
 20
3.616051
 30
0.0
 10
1.570680
 20
3.658247
 30
0.0
 10
1.627909
 20
3.681952
 30
0.0
 10
1.687583
 20
3.681952
 30
0.0
  0
SPLINE
  5
151
100
AcDbEntity
  8
Layer_1
 62
7
100
AcDbSpline
 70
8
 71
3
 72
8
 73
4
 74
0
 40
0
 40
0
 40
0
 40
0
 40
1
 40
1
 40
1
 40
1
 10
1.687583
 20
3.681952
 30
0.0
 10
1.811847
 20
3.681952
 30
0.0
 10
1.912583
 20
3.581216
 30
0.0
 10
1.912583
 20
3.456952
 30
0.0
  0
LINE
  5
152
100
AcDbEntity
  8
Layer_1
 62
7
100
AcDbLine
 10
1.912583
 20
3.456952
 30
0.0
 11
1.912583
 21
3.456952
 31
0.0
  0
LINE
  5
153
100
AcDbEntity
  8
Layer_1
 62
1
100
AcDbLine
 10
3.004098
 20
2.823887
 30
0.0
 11
3.322991
 21
2.592197
 31
0.0
  0
LINE
  5
154
100
AcDbEntity
  8
Layer_1
 62
1
100
AcDbLine
 10
3.322991
 20
2.592197
 30
0.0
 11
3.201185
 21
2.217316
 31
0.0
  0
LINE
  5
155
100
AcDbEntity
  8
Layer_1
 62
1
100
AcDbLine
 10
3.201185
 20
2.217316
 30
0.0
 11
2.807011
 21
2.217316
 31
0.0
  0
LINE
  5
156
100
AcDbEntity
  8
Layer_1
 62
1
100
AcDbLine
 10
2.807011
 20
2.217316
 30
0.0
 11
2.685205
 21
2.592197
 31
0.0
  0
LINE
  5
157
100
AcDbEntity
  8
Layer_1
 62
1
100
AcDbLine
 10
2.685205
 20
2.592197
 30
0.0
 11
3.004098
 21
2.823887
 31
0.0
  0
SPLINE
  5
158
100
AcDbEntity
  8
Layer_1
 62
1
100
AcDbSpline
 70
8
 71
3
 72
8
 73
4
 74
0
 40
0
 40
0
 40
0
 40
0
 40
1
 40
1
 40
1
 40
1
 10
3.257699
 20
3.526513
 30
0.0
 10
3.824626
 20
3.384190
 30
0.0
 10
4.168836
 20
2.809229
 30
0.0
 10
4.026513
 20
2.242301
 30
0.0
  0
SPLINE
  5
159
100
AcDbEntity
  8
Layer_1
 62
1
100
AcDbSpline
 70
8
 71
3
 72
8
 73
4
 74
0
 40
0
 40
0
 40
0
 40
0
 40
1
 40
1
 40
1
 40
1
 10
4.026513
 20
2.242301
 30
0.0
 10
3.884190
 20
1.675374
 30
0.0
 10
3.309229
 20
1.331164
 30
0.0
 10
2.742302
 20
1.473487
 30
0.0
  0
SPLINE
  5
15a
100
AcDbEntity
  8
Layer_1
 62
1
100
AcDbSpline
 70
8
 71
3
 72
8
 73
4
 74
0
 40
0
 40
0
 40
0
 40
0
 40
1
 40
1
 40
1
 40
1
 10
2.742302
 20
1.473487
 30
0.0
 10
2.175374
 20
1.615810
 30
0.0
 10
1.831164
 20
2.190771
 30
0.0
 10
1.973487
 20
2.757698
 30
0.0
  0
SPLINE
  5
15b
100
AcDbEntity
  8
Layer_1
 62
1
100
AcDbSpline
 70
8
 71
3
 72
8
 73
4
 74
0
 40
0
 40
0
 40
0
 40
0
 40
1
 40
1
 40
1
 40
1
 10
1.973487
 20
2.757698
 30
0.0
 10
2.115810
 20
3.324626
 30
0.0
 10
2.690771
 20
3.668836
 30
0.0
 10
3.257699
 20
3.526513
 30
0.0
  0
LINE
  5
15c
100
AcDbEntity
  8
Layer_1
 62
1
100
AcDbLine
 10
3.257699
 20
3.526513
 30
0.0
 11
3.257699
 21
3.526513
 31
0.0
  0
SPLINE
  5
15d
100
AcDbEntity
  8
Layer_1
 62
3
100
AcDbSpline
 70
8
 71
3
 72
8
 73
4
 74
0
 40
0
 40
0
 40
0
 40
0
 40
1
 40
1
 40
1
 40
1
 10
3.296943
 20
3.557126
 30
0.0
 10
3.302473
 20
3.548976
 30
0.0
 10
3.310114
 20
3.543334
 30
0.0
 10
3.319867
 20
3.540199
 30
0.0
  0
SPLINE
  5
15e
100
AcDbEntity
  8
Layer_1
 62
3
100
AcDbSpline
 70
8
 71
3
 72
8
 73
4
 74
0
 40
0
 40
0
 40
0
 40
0
 40
1
 40
1
 40
1
 40
1
 10
3.319867
 20
3.540199
 30
0.0
 10
3.331610
 20
3.536425
 30
0.0
 10
3.342986
 20
3.537365
 30
0.0
 10
3.353998
 20
3.543020
 30
0.0
  0
SPLINE
  5
15f
100
AcDbEntity
  8
Layer_1
 62
3
100
AcDbSpline
 70
8
 71
3
 72
8
 73
4
 74
0
 40
0
 40
0
 40
0
 40
0
 40
1
 40
1
 40
1
 40
1
 10
3.353998
 20
3.543020
 30
0.0
 10
3.365009
 20
3.548674
 30
0.0
 10
3.372402
 20
3.557373
 30
0.0
 10
3.376176
 20
3.569115
 30
0.0
  0
LINE
  5
160
100
AcDbEntity
  8
Layer_1
 62
3
100
AcDbLine
 10
3.376176
 20
3.569115
 30
0.0
 11
3.399002
 21
3.640135
 31
0.0
  0
SPLINE
  5
161
100
AcDbEntity
  8
Layer_1
 62
3
100
AcDbSpline
 70
8
 71
3
 72
8
 73
4
 74
0
 40
0
 40
0
 40
0
 40
0
 40
1
 40
1
 40
1
 40
1
 10
3.399002
 20
3.640135
 30
0.0
 10
3.399581
 20
3.641934
 30
0.0
 10
3.400049
 20
3.643716
 30
0.0
 10
3.400408
 20
3.645482
 30
0.0
  0
LINE
  5
162
100
AcDbEntity
  8
Layer_1
 62
3
100
AcDbLine
 10
3.400408
 20
3.645482
 30
0.0
 11
3.296943
 21
3.557126
 31
0.0
  0
LINE
  5
163
100
AcDbEntity
  8
Layer_1
 62
3
100
AcDbLine
 10
3.289546
 20
3.591160
 30
0.0
 11
3.393011
 21
3.679516
 31
0.0
  0
SPLINE
  5
164
100
AcDbEntity
  8
Layer_1
 62
3
100
AcDbSpline
 70
8
 71
3
 72
8
 73
4
 74
0
 40
0
 40
0
 40
0
 40
0
 40
1
 40
1
 40
1
 40
1
 10
3.393011
 20
3.679516
 30
0.0
 10
3.387481
 20
3.687666
 30
0.0
 10
3.379840
 20
3.693308
 30
0.0
 10
3.370086
 20
3.696443
 30
0.0
  0
SPLINE
  5
165
100
AcDbEntity
  8
Layer_1
 62
3
100
AcDbSpline
 70
8
 71
3
 72
8
 73
4
 74
0
 40
0
 40
0
 40
0
 40
0
 40
1
 40
1
 40
1
 40
1
 10
3.370086
 20
3.696443
 30
0.0
 10
3.358344
 20
3.700217
 30
0.0
 10
3.346968
 20
3.699277
 30
0.0
 10
3.335956
 20
3.693622
 30
0.0
  0
SPLINE
  5
166
100
AcDbEntity
  8
Layer_1
 62
3
100
AcDbSpline
 70
8
 71
3
 72
8
 73
4
 74
0
 40
0
 40
0
 40
0
 40
0
 40
1
 40
1
 40
1
 40
1
 10
3.335956
 20
3.693622
 30
0.0
 10
3.324945
 20
3.687968
 30
0.0
 10
3.317552
 20
3.679269
 30
0.0
 10
3.313778
 20
3.667527
 30
0.0
  0
LINE
  5
167
100
AcDbEntity
  8
Layer_1
 62
3
100
AcDbLine
 10
3.313778
 20
3.667527
 30
0.0
 11
3.290951
 21
3.596507
 31
0.0
  0
SPLINE
  5
168
100
AcDbEntity
  8
Layer_1
 62
3
100
AcDbSpline
 70
8
 71
3
 72
8
 73
4
 74
0
 40
0
 40
0
 40
0
 40
0
 40
1
 40
1
 40
1
 40
1
 10
3.290951
 20
3.596507
 30
0.0
 10
3.290373
 20
3.594708
 30
0.0
 10
3.289905
 20
3.592925
 30
0.0
 10
3.289546
 20
3.591160
 30
0.0
  0
LINE
  5
169
100
AcDbEntity
  8
Layer_1
 62
3
100
AcDbLine
 10
3.289546
 20
3.591160
 30
0.0
 11
3.289546
 21
3.591160
 31
0.0
  0
SPLINE
  5
16a
100
AcDbEntity
  8
Layer_1
 62
3
100
AcDbSpline
 70
8
 71
3
 72
8
 73
4
 74
0
 40
0
 40
0
 40
0
 40
0
 40
1
 40
1
 40
1
 40
1
 10
3.429348
 20
3.670187
 30
0.0
 10
3.432348
 20
3.657417
 30
0.0
 10
3.431702
 20
3.644356
 30
0.0
 10
3.427411
 20
3.631004
 30
0.0
  0
LINE
  5
16b
100
AcDbEntity
  8
Layer_1
 62
3
100
AcDbLine
 10
3.427411
 20
3.631004
 30
0.0
 11
3.404584
 21
3.559984
 31
0.0
  0
SPLINE
  5
16c
100
AcDbEntity
  8
Layer_1
 62
3
100
AcDbSpline
 70
8
 71
3
 72
8
 73
4
 74
0
 40
0
 40
0
 40
0
 40
0
 40
1
 40
1
 40
1
 40
1
 10
3.404584
 20
3.559984
 30
0.0
 10
3.398284
 20
3.540382
 30
0.0
 10
3.385937
 20
3.525859
 30
0.0
 10
3.367543
 20
3.516413
 30
0.0
  0
SPLINE
  5
16d
100
AcDbEntity
  8
Layer_1
 62
3
100
AcDbSpline
 70
8
 71
3
 72
8
 73
4
 74
0
 40
0
 40
0
 40
0
 40
0
 40
1
 40
1
 40
1
 40
1
 10
3.367543
 20
3.516413
 30
0.0
 10
3.349274
 20
3.507031
 30
0.0
 10
3.330339
 20
3.505490
 30
0.0
 10
3.310737
 20
3.511791
 30
0.0
  0
SPLINE
  5
16e
100
AcDbEntity
  8
Layer_1
 62
3
100
AcDbSpline
 70
8
 71
3
 72
8
 73
4
 74
0
 40
0
 40
0
 40
0
 40
0
 40
1
 40
1
 40
1
 40
1
 10
3.310737
 20
3.511791
 30
0.0
 10
3.295491
 20
3.516691
 30
0.0
 10
3.283304
 20
3.525257
 30
0.0
 10
3.274176
 20
3.537489
 30
0.0
  0
SPLINE
  5
16f
100
AcDbEntity
  8
Layer_1
 62
3
100
AcDbSpline
 70
8
 71
3
 72
8
 73
4
 74
0
 40
0
 40
0
 40
0
 40
0
 40
1
 40
1
 40
1
 40
1
 10
3.274176
 20
3.537489
 30
0.0
 10
3.271437
 20
3.534817
 30
0.0
 10
3.268503
 20
3.532678
 30
0.0
 10
3.265375
 20
3.531072
 30
0.0
  0
SPLINE
  5
170
100
AcDbEntity
  8
Layer_1
 62
3
100
AcDbSpline
 70
8
 71
3
 72
8
 73
4
 74
0
 40
0
 40
0
 40
0
 40
0
 40
1
 40
1
 40
1
 40
1
 10
3.265375
 20
3.531072
 30
0.0
 10
3.261621
 20
3.529144
 30
0.0
 10
3.257803
 20
3.528804
 30
0.0
 10
3.253921
 20
3.530052
 30
0.0
  0
SPLINE
  5
171
100
AcDbEntity
  8
Layer_1
 62
3
100
AcDbSpline
 70
8
 71
3
 72
8
 73
4
 74
0
 40
0
 40
0
 40
0
 40
0
 40
1
 40
1
 40
1
 40
1
 10
3.253921
 20
3.530052
 30
0.0
 10
3.250038
 20
3.531300
 30
0.0
 10
3.247118
 20
3.533753
 30
0.0
 10
3.245160
 20
3.537413
 30
0.0
  0
SPLINE
  5
172
100
AcDbEntity
  8
Layer_1
 62
3
100
AcDbSpline
 70
8
 71
3
 72
8
 73
4
 74
0
 40
0
 40
0
 40
0
 40
0
 40
1
 40
1
 40
1
 40
1
 10
3.245160
 20
3.537413
 30
0.0
 10
3.243327
 20
3.541136
 30
0.0
 10
3.243034
 20
3.544939
 30
0.0
 10
3.244282
 20
3.548821
 30
0.0
  0
SPLINE
  5
173
100
AcDbEntity
  8
Layer_1
 62
3
100
AcDbSpline
 70
8
 71
3
 72
8
 73
4
 74
0
 40
0
 40
0
 40
0
 40
0
 40
1
 40
1
 40
1
 40
1
 10
3.244282
 20
3.548821
 30
0.0
 10
3.245529
 20
3.552704
 30
0.0
 10
3.248945
 20
3.556830
 30
0.0
 10
3.254529
 20
3.561199
 30
0.0
  0
LINE
  5
174
100
AcDbEntity
  8
Layer_1
 62
3
100
AcDbLine
 10
3.254529
 20
3.561199
 30
0.0
 11
3.260606
 21
3.566455
 31
0.0
  0
SPLINE
  5
175
100
AcDbEntity
  8
Layer_1
 62
3
100
AcDbSpline
 70
8
 71
3
 72
8
 73
4
 74
0
 40
0
 40
0
 40
0
 40
0
 40
1
 40
1
 40
1
 40
1
 10
3.260606
 20
3.566455
 30
0.0
 10
3.257606
 20
3.579225
 30
0.0
 10
3.258252
 20
3.592286
 30
0.0
 10
3.262543
 20
3.605638
 30
0.0
  0
LINE
  5
176
100
AcDbEntity
  8
Layer_1
 62
3
100
AcDbLine
 10
3.262543
 20
3.605638
 30
0.0
 11
3.285370
 21
3.676658
 31
0.0
  0
SPLINE
  5
177
100
AcDbEntity
  8
Layer_1
 62
3
100
AcDbSpline
 70
8
 71
3
 72
8
 73
4
 74
0
 40
0
 40
0
 40
0
 40
0
 40
1
 40
1
 40
1
 40
1
 10
3.285370
 20
3.676658
 30
0.0
 10
3.291670
 20
3.696260
 30
0.0
 10
3.303954
 20
3.710751
 30
0.0
 10
3.322223
 20
3.720133
 30
0.0
  0
SPLINE
  5
178
100
AcDbEntity
  8
Layer_1
 62
3
100
AcDbSpline
 70
8
 71
3
 72
8
 73
4
 74
0
 40
0
 40
0
 40
0
 40
0
 40
1
 40
1
 40
1
 40
1
 10
3.322223
 20
3.720133
 30
0.0
 10
3.340617
 20
3.729579
 30
0.0
 10
3.359615
 20
3.731152
 30
0.0
 10
3.379217
 20
3.724851
 30
0.0
  0
SPLINE
  5
179
100
AcDbEntity
  8
Layer_1
 62
3
100
AcDbSpline
 70
8
 71
3
 72
8
 73
4
 74
0
 40
0
 40
0
 40
0
 40
0
 40
1
 40
1
 40
1
 40
1
 10
3.379217
 20
3.724851
 30
0.0
 10
3.394462
 20
3.719951
 30
0.0
 10
3.406649
 20
3.711385
 30
0.0
 10
3.415777
 20
3.699153
 30
0.0
  0
SPLINE
  5
17a
100
AcDbEntity
  8
Layer_1
 62
3
100
AcDbSpline
 70
8
 71
3
 72
8
 73
4
 74
0
 40
0
 40
0
 40
0
 40
0
 40
1
 40
1
 40
1
 40
1
 10
3.415777
 20
3.699153
 30
0.0
 10
3.418516
 20
3.701825
 30
0.0
 10
3.421513
 20
3.703996
 30
0.0
 10
3.424766
 20
3.705667
 30
0.0
  0
SPLINE
  5
17b
100
AcDbEntity
  8
Layer_1
 62
3
100
AcDbSpline
 70
8
 71
3
 72
8
 73
4
 74
0
 40
0
 40
0
 40
0
 40
0
 40
1
 40
1
 40
1
 40
1
 10
3.424766
 20
3.705667
 30
0.0
 10
3.428395
 20
3.707530
 30
0.0
 10
3.432150
 20
3.707838
 30
0.0
 10
3.436033
 20
3.706590
 30
0.0
  0
SPLINE
  5
17c
100
AcDbEntity
  8
Layer_1
 62
3
100
AcDbSpline
 70
8
 71
3
 72
8
 73
4
 74
0
 40
0
 40
0
 40
0
 40
0
 40
1
 40
1
 40
1
 40
1
 10
3.436033
 20
3.706590
 30
0.0
 10
3.439915
 20
3.705342
 30
0.0
 10
3.442773
 20
3.702856
 30
0.0
 10
3.444606
 20
3.699133
 30
0.0
  0
SPLINE
  5
17d
100
AcDbEntity
  8
Layer_1
 62
3
100
AcDbSpline
 70
8
 71
3
 72
8
 73
4
 74
0
 40
0
 40
0
 40
0
 40
0
 40
1
 40
1
 40
1
 40
1
 10
3.444606
 20
3.699133
 30
0.0
 10
3.446564
 20
3.695473
 30
0.0
 10
3.446920
 20
3.691703
 30
0.0
 10
3.445672
 20
3.687820
 30
0.0
  0
SPLINE
  5
17e
100
AcDbEntity
  8
Layer_1
 62
3
100
AcDbSpline
 70
8
 71
3
 72
8
 73
4
 74
0
 40
0
 40
0
 40
0
 40
0
 40
1
 40
1
 40
1
 40
1
 10
3.445672
 20
3.687820
 30
0.0
 10
3.444424
 20
3.683938
 30
0.0
 10
3.441009
 20
3.679812
 30
0.0
 10
3.435425
 20
3.675442
 30
0.0
  0
LINE
  5
17f
100
AcDbEntity
  8
Layer_1
 62
3
100
AcDbLine
 10
3.435425
 20
3.675442
 30
0.0
 11
3.429348
 21
3.670187
 31
0.0
  0
LINE
  5
180
100
AcDbEntity
  8
Layer_1
 62
3
100
AcDbLine
 10
3.872042
 20
3.151690
 30
0.0
 11
4.006165
 21
3.246271
 31
0.0
  0
LINE
  5
181
100
AcDbEntity
  8
Layer_1
 62
3
100
AcDbLine
 10
4.006165
 20
3.246271
 30
0.0
 11
3.980370
 21
3.282850
 31
0.0
  0
SPLINE
  5
182
100
AcDbEntity
  8
Layer_1
 62
3
100
AcDbSpline
 70
8
 71
3
 72
8
 73
4
 74
0
 40
0
 40
0
 40
0
 40
0
 40
1
 40
1
 40
1
 40
1
 10
3.980370
 20
3.282850
 30
0.0
 10
3.978020
 20
3.286182
 30
0.0
 10
3.977163
 20
3.289899
 30
0.0
 10
3.977801
 20
3.294000
 30
0.0
  0
SPLINE
  5
183
100
AcDbEntity
  8
Layer_1
 62
3
100
AcDbSpline
 70
8
 71
3
 72
8
 73
4
 74
0
 40
0
 40
0
 40
0
 40
0
 40
1
 40
1
 40
1
 40
1
 10
3.977801
 20
3.294000
 30
0.0
 10
3.978577
 20
3.298077
 30
0.0
 10
3.980632
 20
3.301291
 30
0.0
 10
3.983964
 20
3.303641
 30
0.0
  0
SPLINE
  5
184
100
AcDbEntity
  8
Layer_1
 62
3
100
AcDbSpline
 70
8
 71
3
 72
8
 73
4
 74
0
 40
0
 40
0
 40
0
 40
0
 40
1
 40
1
 40
1
 40
1
 10
3.983964
 20
3.303641
 30
0.0
 10
3.987297
 20
3.305991
 30
0.0
 10
3.990973
 20
3.306819
 30
0.0
 10
3.994993
 20
3.306124
 30
0.0
  0
SPLINE
  5
185
100
AcDbEntity
  8
Layer_1
 62
3
100
AcDbSpline
 70
8
 71
3
 72
8
 73
4
 74
0
 40
0
 40
0
 40
0
 40
0
 40
1
 40
1
 40
1
 40
1
 10
3.994993
 20
3.306124
 30
0.0
 10
3.999151
 20
3.305405
 30
0.0
 10
4.002405
 20
3.303379
 30
0.0
 10
4.004756
 20
3.300046
 30
0.0
  0
LINE
  5
186
100
AcDbEntity
  8
Layer_1
 62
3
100
AcDbLine
 10
4.004756
 20
3.300046
 30
0.0
 11
4.039149
 21
3.251275
 31
0.0
  0
SPLINE
  5
187
100
AcDbEntity
  8
Layer_1
 62
3
100
AcDbSpline
 70
8
 71
3
 72
8
 73
4
 74
0
 40
0
 40
0
 40
0
 40
0
 40
1
 40
1
 40
1
 40
1
 10
4.039149
 20
3.251275
 30
0.0
 10
4.041499
 20
3.247942
 30
0.0
 10
4.042286
 20
3.244237
 30
0.0
 10
4.041510
 20
3.240160
 30
0.0
  0
SPLINE
  5
188
100
AcDbEntity
  8
Layer_1
 62
3
100
AcDbSpline
 70
8
 71
3
 72
8
 73
4
 74
0
 40
0
 40
0
 40
0
 40
0
 40
1
 40
1
 40
1
 40
1
 10
4.041510
 20
3.240160
 30
0.0
 10
4.040872
 20
3.236059
 30
0.0
 10
4.038887
 20
3.232833
 30
0.0
 10
4.035554
 20
3.230483
 30
0.0
  0
LINE
  5
189
100
AcDbEntity
  8
Layer_1
 62
3
100
AcDbLine
 10
4.035554
 20
3.230483
 30
0.0
 11
3.889239
 21
3.127304
 31
0.0
  0
LINE
  5
18a
100
AcDbEntity
  8
Layer_1
 62
3
100
AcDbLine
 10
3.889239
 20
3.127304
 30
0.0
 11
3.915034
 21
3.090725
 31
0.0
  0
SPLINE
  5
18b
100
AcDbEntity
  8
Layer_1
 62
3
100
AcDbSpline
 70
8
 71
3
 72
8
 73
4
 74
0
 40
0
 40
0
 40
0
 40
0
 40
1
 40
1
 40
1
 40
1
 10
3.915034
 20
3.090725
 30
0.0
 10
3.917384
 20
3.087392
 30
0.0
 10
3.918171
 20
3.083688
 30
0.0
 10
3.917395
 20
3.079611
 30
0.0
  0
SPLINE
  5
18c
100
AcDbEntity
  8
Layer_1
 62
3
100
AcDbSpline
 70
8
 71
3
 72
8
 73
4
 74
0
 40
0
 40
0
 40
0
 40
0
 40
1
 40
1
 40
1
 40
1
 10
3.917395
 20
3.079611
 30
0.0
 10
3.916757
 20
3.075510
 30
0.0
 10
3.914772
 20
3.072284
 30
0.0
 10
3.911439
 20
3.069934
 30
0.0
  0
SPLINE
  5
18d
100
AcDbEntity
  8
Layer_1
 62
3
100
AcDbSpline
 70
8
 71
3
 72
8
 73
4
 74
0
 40
0
 40
0
 40
0
 40
0
 40
1
 40
1
 40
1
 40
1
 10
3.911439
 20
3.069934
 30
0.0
 10
3.908107
 20
3.067584
 30
0.0
 10
3.904361
 20
3.066768
 30
0.0
 10
3.900203
 20
3.067487
 30
0.0
  0
SPLINE
  5
18e
100
AcDbEntity
  8
Layer_1
 62
3
100
AcDbSpline
 70
8
 71
3
 72
8
 73
4
 74
0
 40
0
 40
0
 40
0
 40
0
 40
1
 40
1
 40
1
 40
1
 10
3.900203
 20
3.067487
 30
0.0
 10
3.896183
 20
3.068182
 30
0.0
 10
3.892998
 20
3.070196
 30
0.0
 10
3.890648
 20
3.073528
 30
0.0
  0
LINE
  5
18f
100
AcDbEntity
  8
Layer_1
 62
3
100
AcDbLine
 10
3.890648
 20
3.073528
 30
0.0
 11
3.821862
 21
3.171072
 31
0.0
  0
SPLINE
  5
190
100
AcDbEntity
  8
Layer_1
 62
3
100
AcDbSpline
 70
8
 71
3
 72
8
 73
4
 74
0
 40
0
 40
0
 40
0
 40
0
 40
1
 40
1
 40
1
 40
1
 10
3.821862
 20
3.171072
 30
0.0
 10
3.819512
 20
3.174405
 30
0.0
 10
3.818655
 20
3.178121
 30
0.0
 10
3.819293
 20
3.182222
 30
0.0
  0
SPLINE
  5
191
100
AcDbEntity
  8
Layer_1
 62
3
100
AcDbSpline
 70
8
 71
3
 72
8
 73
4
 74
0
 40
0
 40
0
 40
0
 40
0
 40
1
 40
1
 40
1
 40
1
 10
3.819293
 20
3.182222
 30
0.0
 10
3.820069
 20
3.186299
 30
0.0
 10
3.822124
 20
3.189513
 30
0.0
 10
3.825457
 20
3.191863
 30
0.0
  0
SPLINE
  5
192
100
AcDbEntity
  8
Layer_1
 62
3
100
AcDbSpline
 70
8
 71
3
 72
8
 73
4
 74
0
 40
0
 40
0
 40
0
 40
0
 40
1
 40
1
 40
1
 40
1
 10
3.825457
 20
3.191863
 30
0.0
 10
3.828789
 20
3.194213
 30
0.0
 10
3.832465
 20
3.195041
 30
0.0
 10
3.836485
 20
3.194346
 30
0.0
  0
SPLINE
  5
193
100
AcDbEntity
  8
Layer_1
 62
3
100
AcDbSpline
 70
8
 71
3
 72
8
 73
4
 74
0
 40
0
 40
0
 40
0
 40
0
 40
1
 40
1
 40
1
 40
1
 10
3.836485
 20
3.194346
 30
0.0
 10
3.840643
 20
3.193627
 30
0.0
 10
3.843898
 20
3.191601
 30
0.0
 10
3.846248
 20
3.188268
 30
0.0
  0
LINE
  5
194
100
AcDbEntity
  8
Layer_1
 62
3
100
AcDbLine
 10
3.846248
 20
3.188268
 30
0.0
 11
3.872042
 21
3.151690
 31
0.0
  0
SPLINE
  5
195
100
AcDbEntity
  8
Layer_1
 62
3
100
AcDbSpline
 70
8
 71
3
 72
8
 73
4
 74
0
 40
0
 40
0
 40
0
 40
0
 40
1
 40
1
 40
1
 40
1
 10
4.123401
 20
2.572535
 30
0.0
 10
4.140905
 20
2.572256
 30
0.0
 10
4.155725
 20
2.565853
 30
0.0
 10
4.167861
 20
2.553326
 30
0.0
  0
SPLINE
  5
196
100
AcDbEntity
  8
Layer_1
 62
3
100
AcDbSpline
 70
8
 71
3
 72
8
 73
4
 74
0
 40
0
 40
0
 40
0
 40
0
 40
1
 40
1
 40
1
 40
1
 10
4.167861
 20
2.553326
 30
0.0
 10
4.180095
 20
2.540696
 30
0.0
 10
4.186073
 20
2.525630
 30
0.0
 10
4.185795
 20
2.508127
 30
0.0
  0
LINE
  5
197
100
AcDbEntity
  8
Layer_1
 62
3
100
AcDbLine
 10
4.185795
 20
2.508127
 30
0.0
 11
4.185439
 21
2.485750
 31
0.0
  0
SPLINE
  5
198
100
AcDbEntity
  8
Layer_1
 62
3
100
AcDbSpline
 70
8
 71
3
 72
8
 73
4
 74
0
 40
0
 40
0
 40
0
 40
0
 40
1
 40
1
 40
1
 40
1
 10
4.185439
 20
2.485750
 30
0.0
 10
4.185292
 20
2.476501
 30
0.0
 10
4.188449
 20
2.468542
 30
0.0
 10
4.194908
 20
2.461874
 30
0.0
  0
SPLINE
  5
199
100
AcDbEntity
  8
Layer_1
 62
3
100
AcDbSpline
 70
8
 71
3
 72
8
 73
4
 74
0
 40
0
 40
0
 40
0
 40
0
 40
1
 40
1
 40
1
 40
1
 10
4.194908
 20
2.461874
 30
0.0
 10
4.201368
 20
2.455206
 30
0.0
 10
4.209222
 20
2.451798
 30
0.0
 10
4.218471
 20
2.451651
 30
0.0
  0
SPLINE
  5
19a
100
AcDbEntity
  8
Layer_1
 62
3
100
AcDbSpline
 70
8
 71
3
 72
8
 73
4
 74
0
 40
0
 40
0
 40
0
 40
0
 40
1
 40
1
 40
1
 40
1
 10
4.218471
 20
2.451651
 30
0.0
 10
4.227720
 20
2.451505
 30
0.0
 10
4.235679
 20
2.454661
 30
0.0
 10
4.242347
 20
2.461120
 30
0.0
  0
SPLINE
  5
19b
100
AcDbEntity
  8
Layer_1
 62
3
100
AcDbSpline
 70
8
 71
3
 72
8
 73
4
 74
0
 40
0
 40
0
 40
0
 40
0
 40
1
 40
1
 40
1
 40
1
 10
4.242347
 20
2.461120
 30
0.0
 10
4.249015
 20
2.467580
 30
0.0
 10
4.252423
 20
2.475434
 30
0.0
 10
4.252570
 20
2.484683
 30
0.0
  0
LINE
  5
19c
100
AcDbEntity
  8
Layer_1
 62
3
100
AcDbLine
 10
4.252570
 20
2.484683
 30
0.0
 11
4.252925
 21
2.507060
 31
0.0
  0
SPLINE
  5
19d
100
AcDbEntity
  8
Layer_1
 62
3
100
AcDbSpline
 70
8
 71
3
 72
8
 73
4
 74
0
 40
0
 40
0
 40
0
 40
0
 40
1
 40
1
 40
1
 40
1
 10
4.252925
 20
2.507060
 30
0.0
 10
4.253072
 20
2.516309
 30
0.0
 10
4.249916
 20
2.524267
 30
0.0
 10
4.243456
 20
2.530935
 30
0.0
  0
SPLINE
  5
19e
100
AcDbEntity
  8
Layer_1
 62
3
100
AcDbSpline
 70
8
 71
3
 72
8
 73
4
 74
0
 40
0
 40
0
 40
0
 40
0
 40
1
 40
1
 40
1
 40
1
 10
4.243456
 20
2.530935
 30
0.0
 10
4.236997
 20
2.537604
 30
0.0
 10
4.229142
 20
2.541011
 30
0.0
 10
4.219893
 20
2.541158
 30
0.0
  0
SPLINE
  5
19f
100
AcDbEntity
  8
Layer_1
 62
3
100
AcDbSpline
 70
8
 71
3
 72
8
 73
4
 74
0
 40
0
 40
0
 40
0
 40
0
 40
1
 40
1
 40
1
 40
1
 10
4.219893
 20
2.541158
 30
0.0
 10
4.215816
 20
2.541221
 30
0.0
 10
4.212309
 20
2.542769
 30
0.0
 10
4.209373
 20
2.545802
 30
0.0
  0
SPLINE
  5
1a0
100
AcDbEntity
  8
Layer_1
 62
3
100
AcDbSpline
 70
8
 71
3
 72
8
 73
4
 74
0
 40
0
 40
0
 40
0
 40
0
 40
1
 40
1
 40
1
 40
1
 10
4.209373
 20
2.545802
 30
0.0
 10
4.206534
 20
2.548732
 30
0.0
 10
4.205148
 20
2.552236
 30
0.0
 10
4.205212
 20
2.556313
 30
0.0
  0
SPLINE
  5
1a1
100
AcDbEntity
  8
Layer_1
 62
3
100
AcDbSpline
 70
8
 71
3
 72
8
 73
4
 74
0
 40
0
 40
0
 40
0
 40
0
 40
1
 40
1
 40
1
 40
1
 10
4.205212
 20
2.556313
 30
0.0
 10
4.205275
 20
2.560391
 30
0.0
 10
4.206773
 20
2.563898
 30
0.0
 10
4.209707
 20
2.566836
 30
0.0
  0
SPLINE
  5
1a2
100
AcDbEntity
  8
Layer_1
 62
3
100
AcDbSpline
 70
8
 71
3
 72
8
 73
4
 74
0
 40
0
 40
0
 40
0
 40
0
 40
1
 40
1
 40
1
 40
1
 10
4.209707
 20
2.566836
 30
0.0
 10
4.212736
 20
2.569673
 30
0.0
 10
4.216290
 20
2.571059
 30
0.0
 10
4.220367
 20
2.570994
 30
0.0
  0
SPLINE
  5
1a3
100
AcDbEntity
  8
Layer_1
 62
3
100
AcDbSpline
 70
8
 71
3
 72
8
 73
4
 74
0
 40
0
 40
0
 40
0
 40
0
 40
1
 40
1
 40
1
 40
1
 10
4.220367
 20
2.570994
 30
0.0
 10
4.237871
 20
2.570715
 30
0.0
 10
4.252691
 20
2.564312
 30
0.0
 10
4.264827
 20
2.551785
 30
0.0
  0
SPLINE
  5
1a4
100
AcDbEntity
  8
Layer_1
 62
3
100
AcDbSpline
 70
8
 71
3
 72
8
 73
4
 74
0
 40
0
 40
0
 40
0
 40
0
 40
1
 40
1
 40
1
 40
1
 10
4.264827
 20
2.551785
 30
0.0
 10
4.277061
 20
2.539155
 30
0.0
 10
4.283039
 20
2.524089
 30
0.0
 10
4.282761
 20
2.506586
 30
0.0
  0
LINE
  5
1a5
100
AcDbEntity
  8
Layer_1
 62
3
100
AcDbLine
 10
4.282761
 20
2.506586
 30
0.0
 11
4.282405
 21
2.484209
 31
0.0
  0
SPLINE
  5
1a6
100
AcDbEntity
  8
Layer_1
 62
3
100
AcDbSpline
 70
8
 71
3
 72
8
 73
4
 74
0
 40
0
 40
0
 40
0
 40
0
 40
1
 40
1
 40
1
 40
1
 10
4.282405
 20
2.484209
 30
0.0
 10
4.282127
 20
2.466705
 30
0.0
 10
4.275674
 20
2.451886
 30
0.0
 10
4.263047
 20
2.439752
 30
0.0
  0
SPLINE
  5
1a7
100
AcDbEntity
  8
Layer_1
 62
3
100
AcDbSpline
 70
8
 71
3
 72
8
 73
4
 74
0
 40
0
 40
0
 40
0
 40
0
 40
1
 40
1
 40
1
 40
1
 10
4.263047
 20
2.439752
 30
0.0
 10
4.250517
 20
2.427516
 30
0.0
 10
4.235501
 20
2.421537
 30
0.0
 10
4.217997
 20
2.421816
 30
0.0
  0
SPLINE
  5
1a8
100
AcDbEntity
  8
Layer_1
 62
3
100
AcDbSpline
 70
8
 71
3
 72
8
 73
4
 74
0
 40
0
 40
0
 40
0
 40
0
 40
1
 40
1
 40
1
 40
1
 10
4.217997
 20
2.421816
 30
0.0
 10
4.200493
 20
2.422094
 30
0.0
 10
4.185625
 20
2.428548
 30
0.0
 10
4.173391
 20
2.441177
 30
0.0
  0
SPLINE
  5
1a9
100
AcDbEntity
  8
Layer_1
 62
3
100
AcDbSpline
 70
8
 71
3
 72
8
 73
4
 74
0
 40
0
 40
0
 40
0
 40
0
 40
1
 40
1
 40
1
 40
1
 10
4.173391
 20
2.441177
 30
0.0
 10
4.161255
 20
2.453705
 30
0.0
 10
4.155326
 20
2.468720
 30
0.0
 10
4.155604
 20
2.486224
 30
0.0
  0
LINE
  5
1aa
100
AcDbEntity
  8
Layer_1
 62
3
100
AcDbLine
 10
4.155604
 20
2.486224
 30
0.0
 11
4.155959
 21
2.508601
 31
0.0
  0
SPLINE
  5
1ab
100
AcDbEntity
  8
Layer_1
 62
3
100
AcDbSpline
 70
8
 71
3
 72
8
 73
4
 74
0
 40
0
 40
0
 40
0
 40
0
 40
1
 40
1
 40
1
 40
1
 10
4.155959
 20
2.508601
 30
0.0
 10
4.156106
 20
2.517850
 30
0.0
 10
4.152950
 20
2.525808
 30
0.0
 10
4.146490
 20
2.532477
 30
0.0
  0
SPLINE
  5
1ac
100
AcDbEntity
  8
Layer_1
 62
3
100
AcDbSpline
 70
8
 71
3
 72
8
 73
4
 74
0
 40
0
 40
0
 40
0
 40
0
 40
1
 40
1
 40
1
 40
1
 10
4.146490
 20
2.532477
 30
0.0
 10
4.140031
 20
2.539145
 30
0.0
 10
4.132176
 20
2.542552
 30
0.0
 10
4.122927
 20
2.542699
 30
0.0
  0
LINE
  5
1ad
100
AcDbEntity
  8
Layer_1
 62
3
100
AcDbLine
 10
4.122927
 20
2.542699
 30
0.0
 11
4.089362
 21
2.543233
 31
0.0
  0
LINE
  5
1ae
100
AcDbEntity
  8
Layer_1
 62
3
100
AcDbLine
 10
4.089362
 20
2.543233
 30
0.0
 11
4.087703
 21
2.438808
 31
0.0
  0
SPLINE
  5
1af
100
AcDbEntity
  8
Layer_1
 62
3
100
AcDbSpline
 70
8
 71
3
 72
8
 73
4
 74
0
 40
0
 40
0
 40
0
 40
0
 40
1
 40
1
 40
1
 40
1
 10
4.087703
 20
2.438808
 30
0.0
 10
4.087640
 20
2.434730
 30
0.0
 10
4.086093
 20
2.431273
 30
0.0
 10
4.083061
 20
2.428437
 30
0.0
  0
SPLINE
  5
1b0
100
AcDbEntity
  8
Layer_1
 62
3
100
AcDbSpline
 70
8
 71
3
 72
8
 73
4
 74
0
 40
0
 40
0
 40
0
 40
0
 40
1
 40
1
 40
1
 40
1
 10
4.083061
 20
2.428437
 30
0.0
 10
4.080130
 20
2.425499
 30
0.0
 10
4.076625
 20
2.424062
 30
0.0
 10
4.072548
 20
2.424127
 30
0.0
  0
SPLINE
  5
1b1
100
AcDbEntity
  8
Layer_1
 62
3
100
AcDbSpline
 70
8
 71
3
 72
8
 73
4
 74
0
 40
0
 40
0
 40
0
 40
0
 40
1
 40
1
 40
1
 40
1
 10
4.072548
 20
2.424127
 30
0.0
 10
4.068470
 20
2.424190
 30
0.0
 10
4.064963
 20
2.425738
 30
0.0
 10
4.062027
 20
2.428771
 30
0.0
  0
SPLINE
  5
1b2
100
AcDbEntity
  8
Layer_1
 62
3
100
AcDbSpline
 70
8
 71
3
 72
8
 73
4
 74
0
 40
0
 40
0
 40
0
 40
0
 40
1
 40
1
 40
1
 40
1
 10
4.062027
 20
2.428771
 30
0.0
 10
4.059189
 20
2.431701
 30
0.0
 10
4.057802
 20
2.435205
 30
0.0
 10
4.057867
 20
2.439282
 30
0.0
  0
LINE
  5
1b3
100
AcDbEntity
  8
Layer_1
 62
3
100
AcDbLine
 10
4.057867
 20
2.439282
 30
0.0
 11
4.059764
 21
2.558625
 31
0.0
  0
SPLINE
  5
1b4
100
AcDbEntity
  8
Layer_1
 62
3
100
AcDbSpline
 70
8
 71
3
 72
8
 73
4
 74
0
 40
0
 40
0
 40
0
 40
0
 40
1
 40
1
 40
1
 40
1
 10
4.059764
 20
2.558625
 30
0.0
 10
4.059826
 20
2.562702
 30
0.0
 10
4.061324
 20
2.566210
 30
0.0
 10
4.064258
 20
2.569148
 30
0.0
  0
SPLINE
  5
1b5
100
AcDbEntity
  8
Layer_1
 62
3
100
AcDbSpline
 70
8
 71
3
 72
8
 73
4
 74
0
 40
0
 40
0
 40
0
 40
0
 40
1
 40
1
 40
1
 40
1
 10
4.064258
 20
2.569148
 30
0.0
 10
4.067288
 20
2.571984
 30
0.0
 10
4.070841
 20
2.573370
 30
0.0
 10
4.074919
 20
2.573305
 30
0.0
  0
LINE
  5
1b6
100
AcDbEntity
  8
Layer_1
 62
3
100
AcDbLine
 10
4.074919
 20
2.573305
 30
0.0
 11
4.123401
 21
2.572535
 31
0.0
  0
SPLINE
  5
1b7
100
AcDbEntity
  8
Layer_1
 62
3
100
AcDbSpline
 70
8
 71
3
 72
8
 73
4
 74
0
 40
0
 40
0
 40
0
 40
0
 40
1
 40
1
 40
1
 40
1
 10
3.950890
 20
1.897298
 30
0.0
 10
3.954149
 20
1.894847
 30
0.0
 10
3.956064
 20
1.891601
 30
0.0
 10
3.956635
 20
1.887562
 30
0.0
  0
SPLINE
  5
1b8
100
AcDbEntity
  8
Layer_1
 62
3
100
AcDbSpline
 70
8
 71
3
 72
8
 73
4
 74
0
 40
0
 40
0
 40
0
 40
0
 40
1
 40
1
 40
1
 40
1
 10
3.956635
 20
1.887562
 30
0.0
 10
3.957225
 20
1.883384
 30
0.0
 10
3.956295
 20
1.879665
 30
0.0
 10
3.953843
 20
1.876407
 30
0.0
  0
SPLINE
  5
1b9
100
AcDbEntity
  8
Layer_1
 62
3
100
AcDbSpline
 70
8
 71
3
 72
8
 73
4
 74
0
 40
0
 40
0
 40
0
 40
0
 40
1
 40
1
 40
1
 40
1
 10
3.953843
 20
1.876407
 30
0.0
 10
3.951392
 20
1.873148
 30
0.0
 10
3.948106
 20
1.871263
 30
0.0
 10
3.943988
 20
1.870752
 30
0.0
  0
SPLINE
  5
1ba
100
AcDbEntity
  8
Layer_1
 62
3
100
AcDbSpline
 70
8
 71
3
 72
8
 73
4
 74
0
 40
0
 40
0
 40
0
 40
0
 40
1
 40
1
 40
1
 40
1
 10
3.943988
 20
1.870752
 30
0.0
 10
3.939889
 20
1.870101
 30
0.0
 10
3.936210
 20
1.871001
 30
0.0
 10
3.932951
 20
1.873453
 30
0.0
  0
SPLINE
  5
1bb
100
AcDbEntity
  8
Layer_1
 62
3
100
AcDbSpline
 70
8
 71
3
 72
8
 73
4
 74
0
 40
0
 40
0
 40
0
 40
0
 40
1
 40
1
 40
1
 40
1
 10
3.932951
 20
1.873453
 30
0.0
 10
3.925559
 20
1.879014
 30
0.0
 10
3.917267
 20
1.881145
 30
0.0
 10
3.908075
 20
1.879846
 30
0.0
  0
SPLINE
  5
1bc
100
AcDbEntity
  8
Layer_1
 62
3
100
AcDbSpline
 70
8
 71
3
 72
8
 73
4
 74
0
 40
0
 40
0
 40
0
 40
0
 40
1
 40
1
 40
1
 40
1
 10
3.908075
 20
1.879846
 30
0.0
 10
3.898882
 20
1.878546
 30
0.0
 10
3.891505
 20
1.874201
 30
0.0
 10
3.885944
 20
1.866809
 30
0.0
  0
LINE
  5
1bd
100
AcDbEntity
  8
Layer_1
 62
3
100
AcDbLine
 10
3.885944
 20
1.866809
 30
0.0
 11
3.872490
 21
1.848925
 31
0.0
  0
SPLINE
  5
1be
100
AcDbEntity
  8
Layer_1
 62
3
100
AcDbSpline
 70
8
 71
3
 72
8
 73
4
 74
0
 40
0
 40
0
 40
0
 40
0
 40
1
 40
1
 40
1
 40
1
 10
3.872490
 20
1.848925
 30
0.0
 10
3.866929
 20
1.841533
 30
0.0
 10
3.864799
 20
1.833240
 30
0.0
 10
3.866098
 20
1.824048
 30
0.0
  0
SPLINE
  5
1bf
100
AcDbEntity
  8
Layer_1
 62
3
100
AcDbSpline
 70
8
 71
3
 72
8
 73
4
 74
0
 40
0
 40
0
 40
0
 40
0
 40
1
 40
1
 40
1
 40
1
 10
3.866098
 20
1.824048
 30
0.0
 10
3.867397
 20
1.814856
 30
0.0
 10
3.871743
 20
1.807479
 30
0.0
 10
3.879135
 20
1.801918
 30
0.0
  0
SPLINE
  5
1c0
100
AcDbEntity
  8
Layer_1
 62
3
100
AcDbSpline
 70
8
 71
3
 72
8
 73
4
 74
0
 40
0
 40
0
 40
0
 40
0
 40
1
 40
1
 40
1
 40
1
 10
3.879135
 20
1.801918
 30
0.0
 10
3.886527
 20
1.796357
 30
0.0
 10
3.894819
 20
1.794226
 30
0.0
 10
3.904012
 20
1.795525
 30
0.0
  0
SPLINE
  5
1c1
100
AcDbEntity
  8
Layer_1
 62
3
100
AcDbSpline
 70
8
 71
3
 72
8
 73
4
 74
0
 40
0
 40
0
 40
0
 40
0
 40
1
 40
1
 40
1
 40
1
 10
3.904012
 20
1.795525
 30
0.0
 10
3.913204
 20
1.796825
 30
0.0
 10
3.920581
 20
1.801171
 30
0.0
 10
3.926142
 20
1.808563
 30
0.0
  0
LINE
  5
1c2
100
AcDbEntity
  8
Layer_1
 62
3
100
AcDbLine
 10
3.926142
 20
1.808563
 30
0.0
 11
3.941838
 21
1.829427
 31
0.0
  0
SPLINE
  5
1c3
100
AcDbEntity
  8
Layer_1
 62
3
100
AcDbSpline
 70
8
 71
3
 72
8
 73
4
 74
0
 40
0
 40
0
 40
0
 40
0
 40
1
 40
1
 40
1
 40
1
 10
3.941838
 20
1.829427
 30
0.0
 10
3.944290
 20
1.832686
 30
0.0
 10
3.947565
 20
1.834641
 30
0.0
 10
3.951664
 20
1.835291
 30
0.0
  0
SPLINE
  5
1c4
100
AcDbEntity
  8
Layer_1
 62
3
100
AcDbSpline
 70
8
 71
3
 72
8
 73
4
 74
0
 40
0
 40
0
 40
0
 40
0
 40
1
 40
1
 40
1
 40
1
 10
3.951664
 20
1.835291
 30
0.0
 10
3.955783
 20
1.835801
 30
0.0
 10
3.959471
 20
1.834831
 30
0.0
 10
3.962730
 20
1.832380
 30
0.0
  0
SPLINE
  5
1c5
100
AcDbEntity
  8
Layer_1
 62
3
100
AcDbSpline
 70
8
 71
3
 72
8
 73
4
 74
0
 40
0
 40
0
 40
0
 40
0
 40
1
 40
1
 40
1
 40
1
 10
3.962730
 20
1.832380
 30
0.0
 10
3.965989
 20
1.829929
 30
0.0
 10
3.967904
 20
1.826683
 30
0.0
 10
3.968475
 20
1.822644
 30
0.0
  0
SPLINE
  5
1c6
100
AcDbEntity
  8
Layer_1
 62
3
100
AcDbSpline
 70
8
 71
3
 72
8
 73
4
 74
0
 40
0
 40
0
 40
0
 40
0
 40
1
 40
1
 40
1
 40
1
 10
3.968475
 20
1.822644
 30
0.0
 10
3.969065
 20
1.818466
 30
0.0
 10
3.968135
 20
1.814747
 30
0.0
 10
3.965684
 20
1.811488
 30
0.0
  0
LINE
  5
1c7
100
AcDbEntity
  8
Layer_1
 62
3
100
AcDbLine
 10
3.965684
 20
1.811488
 30
0.0
 11
3.949987
 21
1.790624
 31
0.0
  0
SPLINE
  5
1c8
100
AcDbEntity
  8
Layer_1
 62
3
100
AcDbSpline
 70
8
 71
3
 72
8
 73
4
 74
0
 40
0
 40
0
 40
0
 40
0
 40
1
 40
1
 40
1
 40
1
 10
3.949987
 20
1.790624
 30
0.0
 10
3.944426
 20
1.783232
 30
0.0
 10
3.942295
 20
1.774940
 30
0.0
 10
3.943595
 20
1.765747
 30
0.0
  0
SPLINE
  5
1c9
100
AcDbEntity
  8
Layer_1
 62
3
100
AcDbSpline
 70
8
 71
3
 72
8
 73
4
 74
0
 40
0
 40
0
 40
0
 40
0
 40
1
 40
1
 40
1
 40
1
 10
3.943595
 20
1.765747
 30
0.0
 10
3.944894
 20
1.756555
 30
0.0
 10
3.949240
 20
1.749178
 30
0.0
 10
3.956632
 20
1.743617
 30
0.0
  0
SPLINE
  5
1ca
100
AcDbEntity
  8
Layer_1
 62
3
100
AcDbSpline
 70
8
 71
3
 72
8
 73
4
 74
0
 40
0
 40
0
 40
0
 40
0
 40
1
 40
1
 40
1
 40
1
 10
3.956632
 20
1.743617
 30
0.0
 10
3.964024
 20
1.738056
 30
0.0
 10
3.972316
 20
1.735925
 30
0.0
 10
3.981509
 20
1.737225
 30
0.0
  0
SPLINE
  5
1cb
100
AcDbEntity
  8
Layer_1
 62
3
100
AcDbSpline
 70
8
 71
3
 72
8
 73
4
 74
0
 40
0
 40
0
 40
0
 40
0
 40
1
 40
1
 40
1
 40
1
 10
3.981509
 20
1.737225
 30
0.0
 10
3.990701
 20
1.738524
 30
0.0
 10
3.998078
 20
1.742870
 30
0.0
 10
4.003639
 20
1.750262
 30
0.0
  0
LINE
  5
1cc
100
AcDbEntity
  8
Layer_1
 62
3
100
AcDbLine
 10
4.003639
 20
1.750262
 30
0.0
 11
4.017093
 21
1.768146
 31
0.0
  0
SPLINE
  5
1cd
100
AcDbEntity
  8
Layer_1
 62
3
100
AcDbSpline
 70
8
 71
3
 72
8
 73
4
 74
0
 40
0
 40
0
 40
0
 40
0
 40
1
 40
1
 40
1
 40
1
 10
4.017093
 20
1.768146
 30
0.0
 10
4.022654
 20
1.775538
 30
0.0
 10
4.024785
 20
1.783830
 30
0.0
 10
4.023485
 20
1.793022
 30
0.0
  0
SPLINE
  5
1ce
100
AcDbEntity
  8
Layer_1
 62
3
100
AcDbSpline
 70
8
 71
3
 72
8
 73
4
 74
0
 40
0
 40
0
 40
0
 40
0
 40
1
 40
1
 40
1
 40
1
 10
4.023485
 20
1.793022
 30
0.0
 10
4.022186
 20
1.802215
 30
0.0
 10
4.017840
 20
1.809591
 30
0.0
 10
4.010448
 20
1.815152
 30
0.0
  0
SPLINE
  5
1cf
100
AcDbEntity
  8
Layer_1
 62
3
100
AcDbSpline
 70
8
 71
3
 72
8
 73
4
 74
0
 40
0
 40
0
 40
0
 40
0
 40
1
 40
1
 40
1
 40
1
 10
4.010448
 20
1.815152
 30
0.0
 10
4.007189
 20
1.817604
 30
0.0
 10
4.005264
 20
1.820919
 30
0.0
 10
4.004674
 20
1.825097
 30
0.0
  0
SPLINE
  5
1d0
100
AcDbEntity
  8
Layer_1
 62
3
100
AcDbSpline
 70
8
 71
3
 72
8
 73
4
 74
0
 40
0
 40
0
 40
0
 40
0
 40
1
 40
1
 40
1
 40
1
 10
4.004674
 20
1.825097
 30
0.0
 10
4.004103
 20
1.829137
 30
0.0
 10
4.005043
 20
1.832786
 30
0.0
 10
4.007495
 20
1.836044
 30
0.0
  0
SPLINE
  5
1d1
100
AcDbEntity
  8
Layer_1
 62
3
100
AcDbSpline
 70
8
 71
3
 72
8
 73
4
 74
0
 40
0
 40
0
 40
0
 40
0
 40
1
 40
1
 40
1
 40
1
 10
4.007495
 20
1.836044
 30
0.0
 10
4.009946
 20
1.839303
 30
0.0
 10
4.013222
 20
1.841258
 30
0.0
 10
4.017321
 20
1.841908
 30
0.0
  0
SPLINE
  5
1d2
100
AcDbEntity
  8
Layer_1
 62
3
100
AcDbSpline
 70
8
 71
3
 72
8
 73
4
 74
0
 40
0
 40
0
 40
0
 40
0
 40
1
 40
1
 40
1
 40
1
 10
4.017321
 20
1.841908
 30
0.0
 10
4.021439
 20
1.842420
 30
0.0
 10
4.025128
 20
1.841450
 30
0.0
 10
4.028387
 20
1.838998
 30
0.0
  0
SPLINE
  5
1d3
100
AcDbEntity
  8
Layer_1
 62
3
100
AcDbSpline
 70
8
 71
3
 72
8
 73
4
 74
0
 40
0
 40
0
 40
0
 40
0
 40
1
 40
1
 40
1
 40
1
 10
4.028387
 20
1.838998
 30
0.0
 10
4.042376
 20
1.828474
 30
0.0
 10
4.050591
 20
1.814576
 30
0.0
 10
4.053033
 20
1.797305
 30
0.0
  0
SPLINE
  5
1d4
100
AcDbEntity
  8
Layer_1
 62
3
100
AcDbSpline
 70
8
 71
3
 72
8
 73
4
 74
0
 40
0
 40
0
 40
0
 40
0
 40
1
 40
1
 40
1
 40
1
 10
4.053033
 20
1.797305
 30
0.0
 10
4.055494
 20
1.779896
 30
0.0
 10
4.051462
 20
1.764196
 30
0.0
 10
4.040938
 20
1.750207
 30
0.0
  0
LINE
  5
1d5
100
AcDbEntity
  8
Layer_1
 62
3
100
AcDbLine
 10
4.040938
 20
1.750207
 30
0.0
 11
4.027484
 21
1.732323
 31
0.0
  0
SPLINE
  5
1d6
100
AcDbEntity
  8
Layer_1
 62
3
100
AcDbSpline
 70
8
 71
3
 72
8
 73
4
 74
0
 40
0
 40
0
 40
0
 40
0
 40
1
 40
1
 40
1
 40
1
 10
4.027484
 20
1.732323
 30
0.0
 10
4.016960
 20
1.718334
 30
0.0
 10
4.003023
 20
1.710148
 30
0.0
 10
3.985673
 20
1.707767
 30
0.0
  0
SPLINE
  5
1d7
100
AcDbEntity
  8
Layer_1
 62
3
100
AcDbSpline
 70
8
 71
3
 72
8
 73
4
 74
0
 40
0
 40
0
 40
0
 40
0
 40
1
 40
1
 40
1
 40
1
 10
3.985673
 20
1.707767
 30
0.0
 10
3.968342
 20
1.705246
 30
0.0
 10
3.952682
 20
1.709248
 30
0.0
 10
3.938693
 20
1.719772
 30
0.0
  0
SPLINE
  5
1d8
100
AcDbEntity
  8
Layer_1
 62
3
100
AcDbSpline
 70
8
 71
3
 72
8
 73
4
 74
0
 40
0
 40
0
 40
0
 40
0
 40
1
 40
1
 40
1
 40
1
 10
3.938693
 20
1.719772
 30
0.0
 10
3.924704
 20
1.730296
 30
0.0
 10
3.916489
 20
1.744193
 30
0.0
 10
3.914047
 20
1.761464
 30
0.0
  0
SPLINE
  5
1d9
100
AcDbEntity
  8
Layer_1
 62
3
100
AcDbSpline
 70
8
 71
3
 72
8
 73
4
 74
0
 40
0
 40
0
 40
0
 40
0
 40
1
 40
1
 40
1
 40
1
 10
3.914047
 20
1.761464
 30
0.0
 10
3.913791
 20
1.763274
 30
0.0
 10
3.913605
 20
1.765095
 30
0.0
 10
3.913488
 20
1.766925
 30
0.0
  0
SPLINE
  5
1da
100
AcDbEntity
  8
Layer_1
 62
3
100
AcDbSpline
 70
8
 71
3
 72
8
 73
4
 74
0
 40
0
 40
0
 40
0
 40
0
 40
1
 40
1
 40
1
 40
1
 10
3.913488
 20
1.766925
 30
0.0
 10
3.911697
 20
1.766530
 30
0.0
 10
3.909936
 20
1.766175
 30
0.0
 10
3.908205
 20
1.765859
 30
0.0
  0
SPLINE
  5
1db
100
AcDbEntity
  8
Layer_1
 62
3
100
AcDbSpline
 70
8
 71
3
 72
8
 73
4
 74
0
 40
0
 40
0
 40
0
 40
0
 40
1
 40
1
 40
1
 40
1
 10
3.908205
 20
1.765859
 30
0.0
 10
3.890855
 20
1.763478
 30
0.0
 10
3.875185
 20
1.767549
 30
0.0
 10
3.861196
 20
1.778073
 30
0.0
  0
SPLINE
  5
1dc
100
AcDbEntity
  8
Layer_1
 62
3
100
AcDbSpline
 70
8
 71
3
 72
8
 73
4
 74
0
 40
0
 40
0
 40
0
 40
0
 40
1
 40
1
 40
1
 40
1
 10
3.861196
 20
1.778073
 30
0.0
 10
3.847207
 20
1.788597
 30
0.0
 10
3.838982
 20
1.802564
 30
0.0
 10
3.836521
 20
1.819974
 30
0.0
  0
SPLINE
  5
1dd
100
AcDbEntity
  8
Layer_1
 62
3
100
AcDbSpline
 70
8
 71
3
 72
8
 73
4
 74
0
 40
0
 40
0
 40
0
 40
0
 40
1
 40
1
 40
1
 40
1
 10
3.836521
 20
1.819974
 30
0.0
 10
3.834079
 20
1.837245
 30
0.0
 10
3.838121
 20
1.852874
 30
0.0
 10
3.848645
 20
1.866864
 30
0.0
  0
LINE
  5
1de
100
AcDbEntity
  8
Layer_1
 62
3
100
AcDbLine
 10
3.848645
 20
1.866864
 30
0.0
 11
3.862099
 21
1.884748
 31
0.0
  0
SPLINE
  5
1df
100
AcDbEntity
  8
Layer_1
 62
3
100
AcDbSpline
 70
8
 71
3
 72
8
 73
4
 74
0
 40
0
 40
0
 40
0
 40
0
 40
1
 40
1
 40
1
 40
1
 10
3.862099
 20
1.884748
 30
0.0
 10
3.872623
 20
1.898737
 30
0.0
 10
3.886550
 20
1.906992
 30
0.0
 10
3.903881
 20
1.909512
 30
0.0
  0
SPLINE
  5
1e0
100
AcDbEntity
  8
Layer_1
 62
3
100
AcDbSpline
 70
8
 71
3
 72
8
 73
4
 74
0
 40
0
 40
0
 40
0
 40
0
 40
1
 40
1
 40
1
 40
1
 10
3.903881
 20
1.909512
 30
0.0
 10
3.921231
 20
1.911894
 30
0.0
 10
3.936900
 20
1.907823
 30
0.0
 10
3.950890
 20
1.897299
 30
0.0
  0
LINE
  5
1e1
100
AcDbEntity
  8
Layer_1
 62
3
100
AcDbLine
 10
3.950890
 20
1.897299
 30
0.0
 11
3.950890
 21
1.897298
 31
0.0
  0
LINE
  5
1e2
100
AcDbEntity
  8
Layer_1
 62
3
100
AcDbLine
 10
3.342435
 20
1.279178
 30
0.0
 11
3.307426
 21
1.393286
 31
0.0
  0
LINE
  5
1e3
100
AcDbEntity
  8
Layer_1
 62
3
100
AcDbLine
 10
3.307426
 20
1.393286
 30
0.0
 11
3.293163
 21
1.388910
 31
0.0
  0
SPLINE
  5
1e4
100
AcDbEntity
  8
Layer_1
 62
3
100
AcDbSpline
 70
8
 71
3
 72
8
 73
4
 74
0
 40
0
 40
0
 40
0
 40
0
 40
1
 40
1
 40
1
 40
1
 10
3.293163
 20
1.388910
 30
0.0
 10
3.289264
 20
1.387714
 30
0.0
 10
3.285498
 20
1.388119
 30
0.0
 10
3.281865
 20
1.390126
 30
0.0
  0
SPLINE
  5
1e5
100
AcDbEntity
  8
Layer_1
 62
3
100
AcDbSpline
 70
8
 71
3
 72
8
 73
4
 74
0
 40
0
 40
0
 40
0
 40
0
 40
1
 40
1
 40
1
 40
1
 10
3.281865
 20
1.390126
 30
0.0
 10
3.278167
 20
1.392008
 30
0.0
 10
3.275719
 20
1.394899
 30
0.0
 10
3.274523
 20
1.398797
 30
0.0
  0
SPLINE
  5
1e6
100
AcDbEntity
  8
Layer_1
 62
3
100
AcDbSpline
 70
8
 71
3
 72
8
 73
4
 74
0
 40
0
 40
0
 40
0
 40
0
 40
1
 40
1
 40
1
 40
1
 10
3.274523
 20
1.398797
 30
0.0
 10
3.273327
 20
1.402696
 30
0.0
 10
3.273718
 20
1.406509
 30
0.0
 10
3.275695
 20
1.410237
 30
0.0
  0
SPLINE
  5
1e7
100
AcDbEntity
  8
Layer_1
 62
3
100
AcDbSpline
 70
8
 71
3
 72
8
 73
4
 74
0
 40
0
 40
0
 40
0
 40
0
 40
1
 40
1
 40
1
 40
1
 10
3.275695
 20
1.410237
 30
0.0
 10
3.277607
 20
1.413841
 30
0.0
 10
3.280512
 20
1.416241
 30
0.0
 10
3.284411
 20
1.417437
 30
0.0
  0
LINE
  5
1e8
100
AcDbEntity
  8
Layer_1
 62
3
100
AcDbLine
 10
3.284411
 20
1.417437
 30
0.0
 11
3.298674
 21
1.421813
 31
0.0
  0
LINE
  5
1e9
100
AcDbEntity
  8
Layer_1
 62
3
100
AcDbLine
 10
3.298674
 20
1.421813
 30
0.0
 11
3.285546
 21
1.464603
 31
0.0
  0
SPLINE
  5
1ea
100
AcDbEntity
  8
Layer_1
 62
3
100
AcDbSpline
 70
8
 71
3
 72
8
 73
4
 74
0
 40
0
 40
0
 40
0
 40
0
 40
1
 40
1
 40
1
 40
1
 10
3.285546
 20
1.464603
 30
0.0
 10
3.284350
 20
1.468502
 30
0.0
 10
3.284740
 20
1.472315
 30
0.0
 10
3.286718
 20
1.476043
 30
0.0
  0
SPLINE
  5
1eb
100
AcDbEntity
  8
Layer_1
 62
3
100
AcDbSpline
 70
8
 71
3
 72
8
 73
4
 74
0
 40
0
 40
0
 40
0
 40
0
 40
1
 40
1
 40
1
 40
1
 10
3.286718
 20
1.476043
 30
0.0
 10
3.288630
 20
1.479647
 30
0.0
 10
3.291535
 20
1.482047
 30
0.0
 10
3.295433
 20
1.483243
 30
0.0
  0
SPLINE
  5
1ec
100
AcDbEntity
  8
Layer_1
 62
3
100
AcDbSpline
 70
8
 71
3
 72
8
 73
4
 74
0
 40
0
 40
0
 40
0
 40
0
 40
1
 40
1
 40
1
 40
1
 10
3.295433
 20
1.483243
 30
0.0
 10
3.299332
 20
1.484439
 30
0.0
 10
3.303131
 20
1.484096
 30
0.0
 10
3.306829
 20
1.482214
 30
0.0
  0
SPLINE
  5
1ed
100
AcDbEntity
  8
Layer_1
 62
3
100
AcDbSpline
 70
8
 71
3
 72
8
 73
4
 74
0
 40
0
 40
0
 40
0
 40
0
 40
1
 40
1
 40
1
 40
1
 10
3.306829
 20
1.482214
 30
0.0
 10
3.310462
 20
1.480207
 30
0.0
 10
3.312877
 20
1.477255
 30
0.0
 10
3.314073
 20
1.473356
 30
0.0
  0
LINE
  5
1ee
100
AcDbEntity
  8
Layer_1
 62
3
100
AcDbLine
 10
3.314073
 20
1.473356
 30
0.0
 11
3.327201
 21
1.430565
 31
0.0
  0
LINE
  5
1ef
100
AcDbEntity
  8
Layer_1
 62
3
100
AcDbLine
 10
3.327201
 20
1.430565
 30
0.0
 11
3.398519
 21
1.452446
 31
0.0
  0
SPLINE
  5
1f0
100
AcDbEntity
  8
Layer_1
 62
3
100
AcDbSpline
 70
8
 71
3
 72
8
 73
4
 74
0
 40
0
 40
0
 40
0
 40
0
 40
1
 40
1
 40
1
 40
1
 10
3.398519
 20
1.452446
 30
0.0
 10
3.402417
 20
1.453642
 30
0.0
 10
3.406216
 20
1.453299
 30
0.0
 10
3.409915
 20
1.451416
 30
0.0
  0
SPLINE
  5
1f1
100
AcDbEntity
  8
Layer_1
 62
3
100
AcDbSpline
 70
8
 71
3
 72
8
 73
4
 74
0
 40
0
 40
0
 40
0
 40
0
 40
1
 40
1
 40
1
 40
1
 10
3.409915
 20
1.451416
 30
0.0
 10
3.413548
 20
1.449410
 30
0.0
 10
3.415962
 20
1.446457
 30
0.0
 10
3.417158
 20
1.442558
 30
0.0
  0
SPLINE
  5
1f2
100
AcDbEntity
  8
Layer_1
 62
3
100
AcDbSpline
 70
8
 71
3
 72
8
 73
4
 74
0
 40
0
 40
0
 40
0
 40
0
 40
1
 40
1
 40
1
 40
1
 10
3.417158
 20
1.442558
 30
0.0
 10
3.418354
 20
1.438660
 30
0.0
 10
3.417964
 20
1.434846
 30
0.0
 10
3.415986
 20
1.431118
 30
0.0
  0
LINE
  5
1f3
100
AcDbEntity
  8
Layer_1
 62
3
100
AcDbLine
 10
3.415986
 20
1.431118
 30
0.0
 11
3.415237
 21
1.427455
 31
0.0
  0
LINE
  5
1f4
100
AcDbEntity
  8
Layer_1
 62
3
100
AcDbLine
 10
3.415237
 20
1.427455
 30
0.0
 11
3.373143
 21
1.286415
 31
0.0
  0
SPLINE
  5
1f5
100
AcDbEntity
  8
Layer_1
 62
3
100
AcDbSpline
 70
8
 71
3
 72
8
 73
4
 74
0
 40
0
 40
0
 40
0
 40
0
 40
1
 40
1
 40
1
 40
1
 10
3.373143
 20
1.286415
 30
0.0
 10
3.372299
 20
1.282723
 30
0.0
 10
3.371313
 20
1.279663
 30
0.0
 10
3.370185
 20
1.277236
 30
0.0
  0
SPLINE
  5
1f6
100
AcDbEntity
  8
Layer_1
 62
3
100
AcDbSpline
 70
8
 71
3
 72
8
 73
4
 74
0
 40
0
 40
0
 40
0
 40
0
 40
1
 40
1
 40
1
 40
1
 10
3.370185
 20
1.277236
 30
0.0
 10
3.370054
 20
1.276987
 30
0.0
 10
3.369922
 20
1.276739
 30
0.0
 10
3.369789
 20
1.276490
 30
0.0
  0
SPLINE
  5
1f7
100
AcDbEntity
  8
Layer_1
 62
3
100
AcDbSpline
 70
8
 71
3
 72
8
 73
4
 74
0
 40
0
 40
0
 40
0
 40
0
 40
1
 40
1
 40
1
 40
1
 10
3.369789
 20
1.276490
 30
0.0
 10
3.367878
 20
1.272887
 30
0.0
 10
3.364972
 20
1.270487
 30
0.0
 10
3.361074
 20
1.269291
 30
0.0
  0
SPLINE
  5
1f8
100
AcDbEntity
  8
Layer_1
 62
3
100
AcDbSpline
 70
8
 71
3
 72
8
 73
4
 74
0
 40
0
 40
0
 40
0
 40
0
 40
1
 40
1
 40
1
 40
1
 10
3.361074
 20
1.269291
 30
0.0
 10
3.357175
 20
1.268094
 30
0.0
 10
3.353376
 20
1.268438
 30
0.0
 10
3.349678
 20
1.270320
 30
0.0
  0
SPLINE
  5
1f9
100
AcDbEntity
  8
Layer_1
 62
3
100
AcDbSpline
 70
8
 71
3
 72
8
 73
4
 74
0
 40
0
 40
0
 40
0
 40
0
 40
1
 40
1
 40
1
 40
1
 10
3.349678
 20
1.270320
 30
0.0
 10
3.346045
 20
1.272326
 30
0.0
 10
3.343630
 20
1.275279
 30
0.0
 10
3.342434
 20
1.279178
 30
0.0
  0
LINE
  5
1fa
100
AcDbEntity
  8
Layer_1
 62
3
100
AcDbLine
 10
3.342434
 20
1.279178
 30
0.0
 11
3.342435
 21
1.279178
 31
0.0
  0
LINE
  5
1fb
100
AcDbEntity
  8
Layer_1
 62
3
100
AcDbLine
 10
3.380598
 20
1.415735
 30
0.0
 11
3.335953
 21
1.402038
 31
0.0
  0
LINE
  5
1fc
100
AcDbEntity
  8
Layer_1
 62
3
100
AcDbLine
 10
3.335953
 20
1.402038
 30
0.0
 11
3.356521
 21
1.335000
 31
0.0
  0
LINE
  5
1fd
100
AcDbEntity
  8
Layer_1
 62
3
100
AcDbLine
 10
3.356521
 20
1.335000
 30
0.0
 11
3.380598
 21
1.415735
 31
0.0
  0
LINE
  5
1fe
100
AcDbEntity
  8
Layer_1
 62
3
100
AcDbLine
 10
2.647714
 20
1.296645
 30
0.0
 11
2.662287
 21
1.338965
 31
0.0
  0
LINE
  5
1ff
100
AcDbEntity
  8
Layer_1
 62
3
100
AcDbLine
 10
2.662287
 20
1.338965
 30
0.0
 11
2.609387
 21
1.357181
 31
0.0
  0
SPLINE
  5
200
100
AcDbEntity
  8
Layer_1
 62
3
100
AcDbSpline
 70
8
 71
3
 72
8
 73
4
 74
0
 40
0
 40
0
 40
0
 40
0
 40
1
 40
1
 40
1
 40
1
 10
2.609387
 20
1.357181
 30
0.0
 10
2.592835
 20
1.362880
 30
0.0
 10
2.580752
 20
1.373616
 30
0.0
 10
2.573138
 20
1.389387
 30
0.0
  0
SPLINE
  5
201
100
AcDbEntity
  8
Layer_1
 62
3
100
AcDbSpline
 70
8
 71
3
 72
8
 73
4
 74
0
 40
0
 40
0
 40
0
 40
0
 40
1
 40
1
 40
1
 40
1
 10
2.573138
 20
1.389387
 30
0.0
 10
2.565398
 20
1.405097
 30
0.0
 10
2.564378
 20
1.421227
 30
0.0
 10
2.570077
 20
1.437779
 30
0.0
  0
LINE
  5
202
100
AcDbEntity
  8
Layer_1
 62
3
100
AcDbLine
 10
2.570077
 20
1.437779
 30
0.0
 11
2.577364
 21
1.458940
 31
0.0
  0
SPLINE
  5
203
100
AcDbEntity
  8
Layer_1
 62
3
100
AcDbSpline
 70
8
 71
3
 72
8
 73
4
 74
0
 40
0
 40
0
 40
0
 40
0
 40
1
 40
1
 40
1
 40
1
 10
2.577364
 20
1.458940
 30
0.0
 10
2.583063
 20
1.475492
 30
0.0
 10
2.593815
 20
1.487621
 30
0.0
 10
2.609618
 20
1.495329
 30
0.0
  0
SPLINE
  5
204
100
AcDbEntity
  8
Layer_1
 62
3
100
AcDbSpline
 70
8
 71
3
 72
8
 73
4
 74
0
 40
0
 40
0
 40
0
 40
0
 40
1
 40
1
 40
1
 40
1
 10
2.609618
 20
1.495329
 30
0.0
 10
2.625296
 20
1.502975
 30
0.0
 10
2.641410
 20
1.503948
 30
0.0
 10
2.657962
 20
1.498249
 30
0.0
  0
LINE
  5
205
100
AcDbEntity
  8
Layer_1
 62
3
100
AcDbLine
 10
2.657962
 20
1.498249
 30
0.0
 11
2.679122
 21
1.490963
 31
0.0
  0
SPLINE
  5
206
100
AcDbEntity
  8
Layer_1
 62
3
100
AcDbSpline
 70
8
 71
3
 72
8
 73
4
 74
0
 40
0
 40
0
 40
0
 40
0
 40
1
 40
1
 40
1
 40
1
 10
2.679122
 20
1.490963
 30
0.0
 10
2.695674
 20
1.485263
 30
0.0
 10
2.707820
 20
1.474558
 30
0.0
 10
2.715561
 20
1.458849
 30
0.0
  0
SPLINE
  5
207
100
AcDbEntity
  8
Layer_1
 62
3
100
AcDbSpline
 70
8
 71
3
 72
8
 73
4
 74
0
 40
0
 40
0
 40
0
 40
0
 40
1
 40
1
 40
1
 40
1
 10
2.715561
 20
1.458849
 30
0.0
 10
2.723174
 20
1.443078
 30
0.0
 10
2.724131
 20
1.426916
 30
0.0
 10
2.718432
 20
1.410364
 30
0.0
  0
SPLINE
  5
208
100
AcDbEntity
  8
Layer_1
 62
3
100
AcDbSpline
 70
8
 71
3
 72
8
 73
4
 74
0
 40
0
 40
0
 40
0
 40
0
 40
1
 40
1
 40
1
 40
1
 10
2.718432
 20
1.410364
 30
0.0
 10
2.717104
 20
1.406508
 30
0.0
 10
2.714607
 20
1.403686
 30
0.0
 10
2.710940
 20
1.401898
 30
0.0
  0
SPLINE
  5
209
100
AcDbEntity
  8
Layer_1
 62
3
100
AcDbSpline
 70
8
 71
3
 72
8
 73
4
 74
0
 40
0
 40
0
 40
0
 40
0
 40
1
 40
1
 40
1
 40
1
 10
2.710940
 20
1.401898
 30
0.0
 10
2.707148
 20
1.400048
 30
0.0
 10
2.703323
 20
1.399787
 30
0.0
 10
2.699467
 20
1.401115
 30
0.0
  0
SPLINE
  5
20a
100
AcDbEntity
  8
Layer_1
 62
3
100
AcDbSpline
 70
8
 71
3
 72
8
 73
4
 74
0
 40
0
 40
0
 40
0
 40
0
 40
1
 40
1
 40
1
 40
1
 10
2.699467
 20
1.401115
 30
0.0
 10
2.695611
 20
1.402442
 30
0.0
 10
2.692806
 20
1.404986
 30
0.0
 10
2.691050
 20
1.408747
 30
0.0
  0
SPLINE
  5
20b
100
AcDbEntity
  8
Layer_1
 62
3
100
AcDbSpline
 70
8
 71
3
 72
8
 73
4
 74
0
 40
0
 40
0
 40
0
 40
0
 40
1
 40
1
 40
1
 40
1
 10
2.691050
 20
1.408747
 30
0.0
 10
2.689168
 20
1.412446
 30
0.0
 10
2.688890
 20
1.416223
 30
0.0
 10
2.690218
 20
1.420079
 30
0.0
  0
SPLINE
  5
20c
100
AcDbEntity
  8
Layer_1
 62
3
100
AcDbSpline
 70
8
 71
3
 72
8
 73
4
 74
0
 40
0
 40
0
 40
0
 40
0
 40
1
 40
1
 40
1
 40
1
 10
2.690218
 20
1.420079
 30
0.0
 10
2.693229
 20
1.428825
 30
0.0
 10
2.692700
 20
1.437370
 30
0.0
 10
2.688631
 20
1.445715
 30
0.0
  0
SPLINE
  5
20d
100
AcDbEntity
  8
Layer_1
 62
3
100
AcDbSpline
 70
8
 71
3
 72
8
 73
4
 74
0
 40
0
 40
0
 40
0
 40
0
 40
1
 40
1
 40
1
 40
1
 10
2.688631
 20
1.445715
 30
0.0
 10
2.684561
 20
1.454059
 30
0.0
 10
2.678153
 20
1.459737
 30
0.0
 10
2.669407
 20
1.462749
 30
0.0
  0
LINE
  5
20e
100
AcDbEntity
  8
Layer_1
 62
3
100
AcDbLine
 10
2.669407
 20
1.462749
 30
0.0
 11
2.648247
 21
1.470035
 31
0.0
  0
SPLINE
  5
20f
100
AcDbEntity
  8
Layer_1
 62
3
100
AcDbSpline
 70
8
 71
3
 72
8
 73
4
 74
0
 40
0
 40
0
 40
0
 40
0
 40
1
 40
1
 40
1
 40
1
 10
2.648247
 20
1.470035
 30
0.0
 10
2.639500
 20
1.473047
 30
0.0
 10
2.630955
 20
1.472518
 30
0.0
 10
2.622611
 20
1.468448
 30
0.0
  0
SPLINE
  5
210
100
AcDbEntity
  8
Layer_1
 62
3
100
AcDbSpline
 70
8
 71
3
 72
8
 73
4
 74
0
 40
0
 40
0
 40
0
 40
0
 40
1
 40
1
 40
1
 40
1
 10
2.622611
 20
1.468448
 30
0.0
 10
2.614267
 20
1.464378
 30
0.0
 10
2.608589
 20
1.457970
 30
0.0
 10
2.605577
 20
1.449224
 30
0.0
  0
LINE
  5
211
100
AcDbEntity
  8
Layer_1
 62
3
100
AcDbLine
 10
2.605577
 20
1.449224
 30
0.0
 11
2.598242
 21
1.427923
 31
0.0
  0
SPLINE
  5
212
100
AcDbEntity
  8
Layer_1
 62
3
100
AcDbSpline
 70
8
 71
3
 72
8
 73
4
 74
0
 40
0
 40
0
 40
0
 40
0
 40
1
 40
1
 40
1
 40
1
 10
2.598242
 20
1.427923
 30
0.0
 10
2.595263
 20
1.419271
 30
0.0
 10
2.595808
 20
1.410773
 30
0.0
 10
2.599878
 20
1.402428
 30
0.0
  0
SPLINE
  5
213
100
AcDbEntity
  8
Layer_1
 62
3
100
AcDbSpline
 70
8
 71
3
 72
8
 73
4
 74
0
 40
0
 40
0
 40
0
 40
0
 40
1
 40
1
 40
1
 40
1
 10
2.599878
 20
1.402428
 30
0.0
 10
2.603947
 20
1.394084
 30
0.0
 10
2.610355
 20
1.388406
 30
0.0
 10
2.619101
 20
1.385394
 30
0.0
  0
LINE
  5
214
100
AcDbEntity
  8
Layer_1
 62
3
100
AcDbLine
 10
2.619101
 20
1.385394
 30
0.0
 11
2.686109
 21
1.362321
 31
0.0
  0
SPLINE
  5
215
100
AcDbEntity
  8
Layer_1
 62
3
100
AcDbSpline
 70
8
 71
3
 72
8
 73
4
 74
0
 40
0
 40
0
 40
0
 40
0
 40
1
 40
1
 40
1
 40
1
 10
2.686109
 20
1.362321
 30
0.0
 10
2.689964
 20
1.360993
 30
0.0
 10
2.692833
 20
1.358480
 30
0.0
 10
2.694716
 20
1.354781
 30
0.0
  0
SPLINE
  5
216
100
AcDbEntity
  8
Layer_1
 62
3
100
AcDbSpline
 70
8
 71
3
 72
8
 73
4
 74
0
 40
0
 40
0
 40
0
 40
0
 40
1
 40
1
 40
1
 40
1
 10
2.694716
 20
1.354781
 30
0.0
 10
2.696472
 20
1.351021
 30
0.0
 10
2.696685
 20
1.347212
 30
0.0
 10
2.695357
 20
1.343357
 30
0.0
  0
LINE
  5
217
100
AcDbEntity
  8
Layer_1
 62
3
100
AcDbLine
 10
2.695357
 20
1.343357
 30
0.0
 11
2.671069
 21
1.272823
 31
0.0
  0
SPLINE
  5
218
100
AcDbEntity
  8
Layer_1
 62
3
100
AcDbSpline
 70
8
 71
3
 72
8
 73
4
 74
0
 40
0
 40
0
 40
0
 40
0
 40
1
 40
1
 40
1
 40
1
 10
2.671069
 20
1.272823
 30
0.0
 10
2.669742
 20
1.268967
 30
0.0
 10
2.667245
 20
1.266145
 30
0.0
 10
2.663578
 20
1.264356
 30
0.0
  0
SPLINE
  5
219
100
AcDbEntity
  8
Layer_1
 62
3
100
AcDbSpline
 70
8
 71
3
 72
8
 73
4
 74
0
 40
0
 40
0
 40
0
 40
0
 40
1
 40
1
 40
1
 40
1
 10
2.663578
 20
1.264356
 30
0.0
 10
2.659785
 20
1.262507
 30
0.0
 10
2.655961
 20
1.262245
 30
0.0
 10
2.652105
 20
1.263573
 30
0.0
  0
LINE
  5
21a
100
AcDbEntity
  8
Layer_1
 62
3
100
AcDbLine
 10
2.652105
 20
1.263573
 30
0.0
 11
2.539251
 21
1.302433
 31
0.0
  0
SPLINE
  5
21b
100
AcDbEntity
  8
Layer_1
 62
3
100
AcDbSpline
 70
8
 71
3
 72
8
 73
4
 74
0
 40
0
 40
0
 40
0
 40
0
 40
1
 40
1
 40
1
 40
1
 10
2.539251
 20
1.302433
 30
0.0
 10
2.535395
 20
1.303761
 30
0.0
 10
2.532589
 20
1.306305
 30
0.0
 10
2.530833
 20
1.310066
 30
0.0
  0
SPLINE
  5
21c
100
AcDbEntity
  8
Layer_1
 62
3
100
AcDbSpline
 70
8
 71
3
 72
8
 73
4
 74
0
 40
0
 40
0
 40
0
 40
0
 40
1
 40
1
 40
1
 40
1
 10
2.530833
 20
1.310066
 30
0.0
 10
2.528951
 20
1.313765
 30
0.0
 10
2.528674
 20
1.317542
 30
0.0
 10
2.530002
 20
1.321398
 30
0.0
  0
SPLINE
  5
21d
100
AcDbEntity
  8
Layer_1
 62
3
100
AcDbSpline
 70
8
 71
3
 72
8
 73
4
 74
0
 40
0
 40
0
 40
0
 40
0
 40
1
 40
1
 40
1
 40
1
 10
2.530002
 20
1.321398
 30
0.0
 10
2.531330
 20
1.325254
 30
0.0
 10
2.533890
 20
1.328107
 30
0.0
 10
2.537683
 20
1.329956
 30
0.0
  0
SPLINE
  5
21e
100
AcDbEntity
  8
Layer_1
 62
3
100
AcDbSpline
 70
8
 71
3
 72
8
 73
4
 74
0
 40
0
 40
0
 40
0
 40
0
 40
1
 40
1
 40
1
 40
1
 10
2.537683
 20
1.329956
 30
0.0
 10
2.541349
 20
1.331745
 30
0.0
 10
2.545110
 20
1.331975
 30
0.0
 10
2.548966
 20
1.330647
 30
0.0
  0
LINE
  5
21f
100
AcDbEntity
  8
Layer_1
 62
3
100
AcDbLine
 10
2.548966
 20
1.330647
 30
0.0
 11
2.647714
 21
1.296645
 31
0.0
  0
SPLINE
  5
220
100
AcDbEntity
  8
Layer_1
 62
3
100
AcDbSpline
 70
8
 71
3
 72
8
 73
4
 74
0
 40
0
 40
0
 40
0
 40
0
 40
1
 40
1
 40
1
 40
1
 10
2.029852
 20
1.819220
 30
0.0
 10
2.019848
 20
1.833586
 30
0.0
 10
2.016423
 20
1.849382
 30
0.0
 10
2.019576
 20
1.866608
 30
0.0
  0
SPLINE
  5
221
100
AcDbEntity
  8
Layer_1
 62
3
100
AcDbSpline
 70
8
 71
3
 72
8
 73
4
 74
0
 40
0
 40
0
 40
0
 40
0
 40
1
 40
1
 40
1
 40
1
 10
2.019576
 20
1.866608
 30
0.0
 10
2.022592
 20
1.883859
 30
0.0
 10
2.031282
 20
1.897487
 30
0.0
 10
2.045648
 20
1.907492
 30
0.0
  0
SPLINE
  5
222
100
AcDbEntity
  8
Layer_1
 62
3
100
AcDbSpline
 70
8
 71
3
 72
8
 73
4
 74
0
 40
0
 40
0
 40
0
 40
0
 40
1
 40
1
 40
1
 40
1
 10
2.045648
 20
1.907492
 30
0.0
 10
2.060013
 20
1.917497
 30
0.0
 10
2.075849
 20
1.920950
 30
0.0
 10
2.093158
 20
1.917853
 30
0.0
  0
SPLINE
  5
223
100
AcDbEntity
  8
Layer_1
 62
3
100
AcDbSpline
 70
8
 71
3
 72
8
 73
4
 74
0
 40
0
 40
0
 40
0
 40
0
 40
1
 40
1
 40
1
 40
1
 10
2.093158
 20
1.917853
 30
0.0
 10
2.110327
 20
1.914781
 30
0.0
 10
2.123914
 20
1.906062
 30
0.0
 10
2.133919
 20
1.891697
 30
0.0
  0
LINE
  5
224
100
AcDbEntity
  8
Layer_1
 62
3
100
AcDbLine
 10
2.133919
 20
1.891697
 30
0.0
 11
2.146709
 21
1.873332
 31
0.0
  0
SPLINE
  5
225
100
AcDbEntity
  8
Layer_1
 62
3
100
AcDbSpline
 70
8
 71
3
 72
8
 73
4
 74
0
 40
0
 40
0
 40
0
 40
0
 40
1
 40
1
 40
1
 40
1
 10
2.146709
 20
1.873332
 30
0.0
 10
2.156714
 20
1.858967
 30
0.0
 10
2.160208
 20
1.843159
 30
0.0
 10
2.157193
 20
1.825907
 30
0.0
  0
SPLINE
  5
226
100
AcDbEntity
  8
Layer_1
 62
3
100
AcDbSpline
 70
8
 71
3
 72
8
 73
4
 74
0
 40
0
 40
0
 40
0
 40
0
 40
1
 40
1
 40
1
 40
1
 10
2.157193
 20
1.825907
 30
0.0
 10
2.154039
 20
1.808681
 30
0.0
 10
2.145279
 20
1.795065
 30
0.0
 10
2.130914
 20
1.785061
 30
0.0
  0
LINE
  5
227
100
AcDbEntity
  8
Layer_1
 62
3
100
AcDbLine
 10
2.130914
 20
1.785061
 30
0.0
 11
2.051334
 21
1.729638
 31
0.0
  0
SPLINE
  5
228
100
AcDbEntity
  8
Layer_1
 62
3
100
AcDbSpline
 70
8
 71
3
 72
8
 73
4
 74
0
 40
0
 40
0
 40
0
 40
0
 40
1
 40
1
 40
1
 40
1
 10
2.051334
 20
1.729638
 30
0.0
 10
2.036968
 20
1.719633
 30
0.0
 10
2.021201
 20
1.716167
 30
0.0
 10
2.004031
 20
1.719239
 30
0.0
  0
SPLINE
  5
229
100
AcDbEntity
  8
Layer_1
 62
3
100
AcDbSpline
 70
8
 71
3
 72
8
 73
4
 74
0
 40
0
 40
0
 40
0
 40
0
 40
1
 40
1
 40
1
 40
1
 10
2.004031
 20
1.719239
 30
0.0
 10
1.986723
 20
1.722336
 30
0.0
 10
1.973067
 20
1.731067
 30
0.0
 10
1.963062
 20
1.745433
 30
0.0
  0
LINE
  5
22a
100
AcDbEntity
  8
Layer_1
 62
3
100
AcDbLine
 10
1.963062
 20
1.745433
 30
0.0
 11
1.950272
 21
1.763797
 31
0.0
  0
SPLINE
  5
22b
100
AcDbEntity
  8
Layer_1
 62
3
100
AcDbSpline
 70
8
 71
3
 72
8
 73
4
 74
0
 40
0
 40
0
 40
0
 40
0
 40
1
 40
1
 40
1
 40
1
 10
1.950272
 20
1.763797
 30
0.0
 10
1.940268
 20
1.778163
 30
0.0
 10
1.936842
 20
1.793959
 30
0.0
 10
1.939996
 20
1.811185
 30
0.0
  0
SPLINE
  5
22c
100
AcDbEntity
  8
Layer_1
 62
3
100
AcDbSpline
 70
8
 71
3
 72
8
 73
4
 74
0
 40
0
 40
0
 40
0
 40
0
 40
1
 40
1
 40
1
 40
1
 10
1.939996
 20
1.811185
 30
0.0
 10
1.943012
 20
1.828436
 30
0.0
 10
1.951702
 20
1.842064
 30
0.0
 10
1.966067
 20
1.852069
 30
0.0
  0
SPLINE
  5
22d
100
AcDbEntity
  8
Layer_1
 62
3
100
AcDbSpline
 70
8
 71
3
 72
8
 73
4
 74
0
 40
0
 40
0
 40
0
 40
0
 40
1
 40
1
 40
1
 40
1
 10
1.966067
 20
1.852069
 30
0.0
 10
1.969414
 20
1.854399
 30
0.0
 10
1.973164
 20
1.855193
 30
0.0
 10
1.977318
 20
1.854450
 30
0.0
  0
SPLINE
  5
22e
100
AcDbEntity
  8
Layer_1
 62
3
100
AcDbSpline
 70
8
 71
3
 72
8
 73
4
 74
0
 40
0
 40
0
 40
0
 40
0
 40
1
 40
1
 40
1
 40
1
 10
1.977318
 20
1.854450
 30
0.0
 10
1.981333
 20
1.853731
 30
0.0
 10
1.984506
 20
1.851699
 30
0.0
 10
1.986837
 20
1.848352
 30
0.0
  0
SPLINE
  5
22f
100
AcDbEntity
  8
Layer_1
 62
3
100
AcDbSpline
 70
8
 71
3
 72
8
 73
4
 74
0
 40
0
 40
0
 40
0
 40
0
 40
1
 40
1
 40
1
 40
1
 10
1.986837
 20
1.848352
 30
0.0
 10
1.989168
 20
1.845006
 30
0.0
 10
1.990002
 20
1.841284
 30
0.0
 10
1.989340
 20
1.837187
 30
0.0
  0
SPLINE
  5
230
100
AcDbEntity
  8
Layer_1
 62
3
100
AcDbSpline
 70
8
 71
3
 72
8
 73
4
 74
0
 40
0
 40
0
 40
0
 40
0
 40
1
 40
1
 40
1
 40
1
 10
1.989340
 20
1.837187
 30
0.0
 10
1.988540
 20
1.833115
 30
0.0
 10
1.986467
 20
1.829913
 30
0.0
 10
1.983120
 20
1.827583
 30
0.0
  0
SPLINE
  5
231
100
AcDbEntity
  8
Layer_1
 62
3
100
AcDbSpline
 70
8
 71
3
 72
8
 73
4
 74
0
 40
0
 40
0
 40
0
 40
0
 40
1
 40
1
 40
1
 40
1
 10
1.983120
 20
1.827583
 30
0.0
 10
1.975530
 20
1.822296
 30
0.0
 10
1.970917
 20
1.815084
 30
0.0
 10
1.969281
 20
1.805945
 30
0.0
  0
SPLINE
  5
232
100
AcDbEntity
  8
Layer_1
 62
3
100
AcDbSpline
 70
8
 71
3
 72
8
 73
4
 74
0
 40
0
 40
0
 40
0
 40
0
 40
1
 40
1
 40
1
 40
1
 10
1.969281
 20
1.805945
 30
0.0
 10
1.967646
 20
1.796806
 30
0.0
 10
1.969472
 20
1.788441
 30
0.0
 10
1.974758
 20
1.780851
 30
0.0
  0
LINE
  5
233
100
AcDbEntity
  8
Layer_1
 62
3
100
AcDbLine
 10
1.974758
 20
1.780851
 30
0.0
 11
1.987548
 21
1.762486
 31
0.0
  0
SPLINE
  5
234
100
AcDbEntity
  8
Layer_1
 62
3
100
AcDbSpline
 70
8
 71
3
 72
8
 73
4
 74
0
 40
0
 40
0
 40
0
 40
0
 40
1
 40
1
 40
1
 40
1
 10
1.987548
 20
1.762486
 30
0.0
 10
1.992835
 20
1.754895
 30
0.0
 10
2.000047
 20
1.750282
 30
0.0
 10
2.009186
 20
1.748647
 30
0.0
  0
SPLINE
  5
235
100
AcDbEntity
  8
Layer_1
 62
3
100
AcDbSpline
 70
8
 71
3
 72
8
 73
4
 74
0
 40
0
 40
0
 40
0
 40
0
 40
1
 40
1
 40
1
 40
1
 10
2.009186
 20
1.748647
 30
0.0
 10
2.018325
 20
1.747012
 30
0.0
 10
2.026690
 20
1.748837
 30
0.0
 10
2.034280
 20
1.754124
 30
0.0
  0
LINE
  5
236
100
AcDbEntity
  8
Layer_1
 62
3
100
AcDbLine
 10
2.034280
 20
1.754124
 30
0.0
 11
2.069541
 21
1.778681
 31
0.0
  0
SPLINE
  5
237
100
AcDbEntity
  8
Layer_1
 62
3
100
AcDbSpline
 70
8
 71
3
 72
8
 73
4
 74
0
 40
0
 40
0
 40
0
 40
0
 40
1
 40
1
 40
1
 40
1
 10
2.069541
 20
1.778681
 30
0.0
 10
2.058771
 20
1.783180
 30
0.0
 10
2.049805
 20
1.790572
 30
0.0
 10
2.042642
 20
1.800856
 30
0.0
  0
LINE
  5
238
100
AcDbEntity
  8
Layer_1
 62
3
100
AcDbLine
 10
2.042642
 20
1.800856
 30
0.0
 11
2.029852
 21
1.819220
 31
0.0
  0
SPLINE
  5
239
100
AcDbEntity
  8
Layer_1
 62
3
100
AcDbSpline
 70
8
 71
3
 72
8
 73
4
 74
0
 40
0
 40
0
 40
0
 40
0
 40
1
 40
1
 40
1
 40
1
 10
2.067129
 20
1.817909
 30
0.0
 10
2.072415
 20
1.810318
 30
0.0
 10
2.079628
 20
1.805705
 30
0.0
 10
2.088766
 20
1.804070
 30
0.0
  0
SPLINE
  5
23a
100
AcDbEntity
  8
Layer_1
 62
3
100
AcDbSpline
 70
8
 71
3
 72
8
 73
4
 74
0
 40
0
 40
0
 40
0
 40
0
 40
1
 40
1
 40
1
 40
1
 10
2.088766
 20
1.804070
 30
0.0
 10
2.097905
 20
1.802435
 30
0.0
 10
2.106270
 20
1.804260
 30
0.0
 10
2.113861
 20
1.809547
 30
0.0
  0
SPLINE
  5
23b
100
AcDbEntity
  8
Layer_1
 62
3
100
AcDbSpline
 70
8
 71
3
 72
8
 73
4
 74
0
 40
0
 40
0
 40
0
 40
0
 40
1
 40
1
 40
1
 40
1
 10
2.113861
 20
1.809547
 30
0.0
 10
2.121451
 20
1.814834
 30
0.0
 10
2.126064
 20
1.822046
 30
0.0
 10
2.127700
 20
1.831185
 30
0.0
  0
SPLINE
  5
23c
100
AcDbEntity
  8
Layer_1
 62
3
100
AcDbSpline
 70
8
 71
3
 72
8
 73
4
 74
0
 40
0
 40
0
 40
0
 40
0
 40
1
 40
1
 40
1
 40
1
 10
2.127700
 20
1.831185
 30
0.0
 10
2.129335
 20
1.840324
 30
0.0
 10
2.127509
 20
1.848688
 30
0.0
 10
2.122223
 20
1.856279
 30
0.0
  0
LINE
  5
23d
100
AcDbEntity
  8
Layer_1
 62
3
100
AcDbLine
 10
2.122223
 20
1.856279
 30
0.0
 11
2.109433
 21
1.874644
 31
0.0
  0
SPLINE
  5
23e
100
AcDbEntity
  8
Layer_1
 62
3
100
AcDbSpline
 70
8
 71
3
 72
8
 73
4
 74
0
 40
0
 40
0
 40
0
 40
0
 40
1
 40
1
 40
1
 40
1
 10
2.109433
 20
1.874644
 30
0.0
 10
2.104146
 20
1.882234
 30
0.0
 10
2.096934
 20
1.886847
 30
0.0
 10
2.087795
 20
1.888483
 30
0.0
  0
SPLINE
  5
23f
100
AcDbEntity
  8
Layer_1
 62
3
100
AcDbSpline
 70
8
 71
3
 72
8
 73
4
 74
0
 40
0
 40
0
 40
0
 40
0
 40
1
 40
1
 40
1
 40
1
 10
2.087795
 20
1.888483
 30
0.0
 10
2.078656
 20
1.890118
 30
0.0
 10
2.070292
 20
1.888292
 30
0.0
 10
2.062701
 20
1.883006
 30
0.0
  0
SPLINE
  5
240
100
AcDbEntity
  8
Layer_1
 62
3
100
AcDbSpline
 70
8
 71
3
 72
8
 73
4
 74
0
 40
0
 40
0
 40
0
 40
0
 40
1
 40
1
 40
1
 40
1
 10
2.062701
 20
1.883006
 30
0.0
 10
2.055110
 20
1.877719
 30
0.0
 10
2.050497
 20
1.870507
 30
0.0
 10
2.048862
 20
1.861368
 30
0.0
  0
SPLINE
  5
241
100
AcDbEntity
  8
Layer_1
 62
3
100
AcDbSpline
 70
8
 71
3
 72
8
 73
4
 74
0
 40
0
 40
0
 40
0
 40
0
 40
1
 40
1
 40
1
 40
1
 10
2.048862
 20
1.861368
 30
0.0
 10
2.047227
 20
1.852229
 30
0.0
 10
2.049052
 20
1.843864
 30
0.0
 10
2.054339
 20
1.836274
 30
0.0
  0
LINE
  5
242
100
AcDbEntity
  8
Layer_1
 62
3
100
AcDbLine
 10
2.054339
 20
1.836274
 30
0.0
 11
2.067129
 21
1.817909
 31
0.0
  0
LINE
  5
243
100
AcDbEntity
  8
Layer_1
 62
3
100
AcDbLine
 10
1.814457
 20
2.501008
 30
0.0
 11
1.748236
 21
2.543791
 31
0.0
  0
LINE
  5
244
100
AcDbEntity
  8
Layer_1
 62
3
100
AcDbLine
 10
1.748236
 20
2.543791
 30
0.0
 11
1.746225
 21
2.451609
 31
0.0
  0
SPLINE
  5
245
100
AcDbEntity
  8
Layer_1
 62
3
100
AcDbSpline
 70
8
 71
3
 72
8
 73
4
 74
0
 40
0
 40
0
 40
0
 40
0
 40
1
 40
1
 40
1
 40
1
 10
1.746225
 20
2.451609
 30
0.0
 10
1.746136
 20
2.447532
 30
0.0
 10
1.744617
 20
2.444033
 30
0.0
 10
1.741668
 20
2.441113
 30
0.0
  0
SPLINE
  5
246
100
AcDbEntity
  8
Layer_1
 62
3
100
AcDbSpline
 70
8
 71
3
 72
8
 73
4
 74
0
 40
0
 40
0
 40
0
 40
0
 40
1
 40
1
 40
1
 40
1
 10
1.741668
 20
2.441113
 30
0.0
 10
1.738622
 20
2.438294
 30
0.0
 10
1.735060
 20
2.436929
 30
0.0
 10
1.730983
 20
2.437018
 30
0.0
  0
SPLINE
  5
247
100
AcDbEntity
  8
Layer_1
 62
3
100
AcDbSpline
 70
8
 71
3
 72
8
 73
4
 74
0
 40
0
 40
0
 40
0
 40
0
 40
1
 40
1
 40
1
 40
1
 10
1.730983
 20
2.437018
 30
0.0
 10
1.726906
 20
2.437107
 30
0.0
 10
1.723457
 20
2.438625
 30
0.0
 10
1.720636
 20
2.441572
 30
0.0
  0
SPLINE
  5
248
100
AcDbEntity
  8
Layer_1
 62
3
100
AcDbSpline
 70
8
 71
3
 72
8
 73
4
 74
0
 40
0
 40
0
 40
0
 40
0
 40
1
 40
1
 40
1
 40
1
 10
1.720636
 20
2.441572
 30
0.0
 10
1.717718
 20
2.444620
 30
0.0
 10
1.716304
 20
2.448183
 30
0.0
 10
1.716393
 20
2.452260
 30
0.0
  0
LINE
  5
249
100
AcDbEntity
  8
Layer_1
 62
3
100
AcDbLine
 10
1.716393
 20
2.452260
 30
0.0
 11
1.718996
 21
2.571589
 31
0.0
  0
SPLINE
  5
24a
100
AcDbEntity
  8
Layer_1
 62
3
100
AcDbSpline
 70
8
 71
3
 72
8
 73
4
 74
0
 40
0
 40
0
 40
0
 40
0
 40
1
 40
1
 40
1
 40
1
 10
1.718996
 20
2.571589
 30
0.0
 10
1.719085
 20
2.575666
 30
0.0
 10
1.720653
 20
2.579114
 30
0.0
 10
1.723699
 20
2.581933
 30
0.0
  0
SPLINE
  5
24b
100
AcDbEntity
  8
Layer_1
 62
3
100
AcDbSpline
 70
8
 71
3
 72
8
 73
4
 74
0
 40
0
 40
0
 40
0
 40
0
 40
1
 40
1
 40
1
 40
1
 10
1.723699
 20
2.581933
 30
0.0
 10
1.726648
 20
2.584853
 30
0.0
 10
1.730161
 20
2.586269
 30
0.0
 10
1.734238
 20
2.586180
 30
0.0
  0
SPLINE
  5
24c
100
AcDbEntity
  8
Layer_1
 62
3
100
AcDbSpline
 70
8
 71
3
 72
8
 73
4
 74
0
 40
0
 40
0
 40
0
 40
0
 40
1
 40
1
 40
1
 40
1
 10
1.734238
 20
2.586180
 30
0.0
 10
1.738315
 20
2.586091
 30
0.0
 10
1.743244
 20
2.583994
 30
0.0
 10
1.749024
 20
2.579888
 30
0.0
  0
LINE
  5
24d
100
AcDbEntity
  8
Layer_1
 62
3
100
AcDbLine
 10
1.749024
 20
2.579888
 30
0.0
 11
1.815245
 21
2.537106
 31
0.0
  0
LINE
  5
24e
100
AcDbEntity
  8
Layer_1
 62
3
100
AcDbLine
 10
1.815245
 20
2.537106
 30
0.0
 11
1.815625
 21
2.554558
 31
0.0
  0
SPLINE
  5
24f
100
AcDbEntity
  8
Layer_1
 62
3
100
AcDbSpline
 70
8
 71
3
 72
8
 73
4
 74
0
 40
0
 40
0
 40
0
 40
0
 40
1
 40
1
 40
1
 40
1
 10
1.815625
 20
2.554558
 30
0.0
 10
1.815714
 20
2.558635
 30
0.0
 10
1.817282
 20
2.562082
 30
0.0
 10
1.820328
 20
2.564901
 30
0.0
  0
SPLINE
  5
250
100
AcDbEntity
  8
Layer_1
 62
3
100
AcDbSpline
 70
8
 71
3
 72
8
 73
4
 74
0
 40
0
 40
0
 40
0
 40
0
 40
1
 40
1
 40
1
 40
1
 10
1.820328
 20
2.564901
 30
0.0
 10
1.823277
 20
2.567821
 30
0.0
 10
1.826790
 20
2.569237
 30
0.0
 10
1.830867
 20
2.569148
 30
0.0
  0
SPLINE
  5
251
100
AcDbEntity
  8
Layer_1
 62
3
100
AcDbSpline
 70
8
 71
3
 72
8
 73
4
 74
0
 40
0
 40
0
 40
0
 40
0
 40
1
 40
1
 40
1
 40
1
 10
1.830867
 20
2.569148
 30
0.0
 10
1.834944
 20
2.569059
 30
0.0
 10
1.838442
 20
2.567491
 30
0.0
 10
1.841360
 20
2.564442
 30
0.0
  0
SPLINE
  5
252
100
AcDbEntity
  8
Layer_1
 62
3
100
AcDbSpline
 70
8
 71
3
 72
8
 73
4
 74
0
 40
0
 40
0
 40
0
 40
0
 40
1
 40
1
 40
1
 40
1
 10
1.841360
 20
2.564442
 30
0.0
 10
1.844181
 20
2.561495
 30
0.0
 10
1.845547
 20
2.557984
 30
0.0
 10
1.845458
 20
2.553907
 30
0.0
  0
LINE
  5
253
100
AcDbEntity
  8
Layer_1
 62
3
100
AcDbLine
 10
1.845458
 20
2.553907
 30
0.0
 11
1.844673
 21
2.517959
 31
0.0
  0
LINE
  5
254
100
AcDbEntity
  8
Layer_1
 62
3
100
AcDbLine
 10
1.844673
 20
2.517959
 30
0.0
 11
1.925609
 21
2.465603
 31
0.0
  0
SPLINE
  5
255
100
AcDbEntity
  8
Layer_1
 62
3
100
AcDbSpline
 70
8
 71
3
 72
8
 73
4
 74
0
 40
0
 40
0
 40
0
 40
0
 40
1
 40
1
 40
1
 40
1
 10
1.925609
 20
2.465603
 30
0.0
 10
1.929642
 20
2.463525
 30
0.0
 10
1.933118
 20
2.460962
 30
0.0
 10
1.936036
 20
2.457913
 30
0.0
  0
SPLINE
  5
256
100
AcDbEntity
  8
Layer_1
 62
3
100
AcDbSpline
 70
8
 71
3
 72
8
 73
4
 74
0
 40
0
 40
0
 40
0
 40
0
 40
1
 40
1
 40
1
 40
1
 10
1.936036
 20
2.457913
 30
0.0
 10
1.938857
 20
2.454967
 30
0.0
 10
1.940223
 20
2.451455
 30
0.0
 10
1.940134
 20
2.447378
 30
0.0
  0
SPLINE
  5
257
100
AcDbEntity
  8
Layer_1
 62
3
100
AcDbSpline
 70
8
 71
3
 72
8
 73
4
 74
0
 40
0
 40
0
 40
0
 40
0
 40
1
 40
1
 40
1
 40
1
 10
1.940134
 20
2.447378
 30
0.0
 10
1.940045
 20
2.443301
 30
0.0
 10
1.938526
 20
2.439802
 30
0.0
 10
1.935578
 20
2.436882
 30
0.0
  0
SPLINE
  5
258
100
AcDbEntity
  8
Layer_1
 62
3
100
AcDbSpline
 70
8
 71
3
 72
8
 73
4
 74
0
 40
0
 40
0
 40
0
 40
0
 40
1
 40
1
 40
1
 40
1
 10
1.935578
 20
2.436882
 30
0.0
 10
1.932531
 20
2.434063
 30
0.0
 10
1.928970
 20
2.432698
 30
0.0
 10
1.924893
 20
2.432787
 30
0.0
  0
SPLINE
  5
259
100
AcDbEntity
  8
Layer_1
 62
3
100
AcDbSpline
 70
8
 71
3
 72
8
 73
4
 74
0
 40
0
 40
0
 40
0
 40
0
 40
1
 40
1
 40
1
 40
1
 10
1.924893
 20
2.432787
 30
0.0
 10
1.920816
 20
2.432876
 30
0.0
 10
1.915887
 20
2.434973
 30
0.0
 10
1.910107
 20
2.439079
 30
0.0
  0
LINE
  5
25a
100
AcDbEntity
  8
Layer_1
 62
3
100
AcDbLine
 10
1.910107
 20
2.439079
 30
0.0
 11
1.843886
 21
2.481862
 31
0.0
  0
LINE
  5
25b
100
AcDbEntity
  8
Layer_1
 62
3
100
AcDbLine
 10
1.843886
 20
2.481862
 30
0.0
 11
1.843505
 21
2.464410
 31
0.0
  0
SPLINE
  5
25c
100
AcDbEntity
  8
Layer_1
 62
3
100
AcDbSpline
 70
8
 71
3
 72
8
 73
4
 74
0
 40
0
 40
0
 40
0
 40
0
 40
1
 40
1
 40
1
 40
1
 10
1.843505
 20
2.464410
 30
0.0
 10
1.843417
 20
2.460333
 30
0.0
 10
1.841898
 20
2.456834
 30
0.0
 10
1.838949
 20
2.453913
 30
0.0
  0
SPLINE
  5
25d
100
AcDbEntity
  8
Layer_1
 62
3
100
AcDbSpline
 70
8
 71
3
 72
8
 73
4
 74
0
 40
0
 40
0
 40
0
 40
0
 40
1
 40
1
 40
1
 40
1
 10
1.838949
 20
2.453913
 30
0.0
 10
1.835902
 20
2.451095
 30
0.0
 10
1.832341
 20
2.449730
 30
0.0
 10
1.828264
 20
2.449819
 30
0.0
  0
SPLINE
  5
25e
100
AcDbEntity
  8
Layer_1
 62
3
100
AcDbSpline
 70
8
 71
3
 72
8
 73
4
 74
0
 40
0
 40
0
 40
0
 40
0
 40
1
 40
1
 40
1
 40
1
 10
1.828264
 20
2.449819
 30
0.0
 10
1.824187
 20
2.449908
 30
0.0
 10
1.820738
 20
2.451426
 30
0.0
 10
1.817917
 20
2.454372
 30
0.0
  0
SPLINE
  5
25f
100
AcDbEntity
  8
Layer_1
 62
3
100
AcDbSpline
 70
8
 71
3
 72
8
 73
4
 74
0
 40
0
 40
0
 40
0
 40
0
 40
1
 40
1
 40
1
 40
1
 10
1.817917
 20
2.454372
 30
0.0
 10
1.814999
 20
2.457421
 30
0.0
 10
1.813584
 20
2.460983
 30
0.0
 10
1.813673
 20
2.465061
 30
0.0
  0
LINE
  5
260
100
AcDbEntity
  8
Layer_1
 62
3
100
AcDbLine
 10
1.813673
 20
2.465061
 30
0.0
 11
1.814457
 21
2.501008
 31
0.0
  0
SPLINE
  5
261
100
AcDbEntity
  8
Layer_1
 62
3
100
AcDbSpline
 70
8
 71
3
 72
8
 73
4
 74
0
 40
0
 40
0
 40
0
 40
0
 40
1
 40
1
 40
1
 40
1
 10
2.064616
 20
3.178835
 30
0.0
 10
2.059011
 20
3.171476
 30
0.0
 10
2.056832
 20
3.163196
 30
0.0
 10
2.058077
 20
3.153996
 30
0.0
  0
SPLINE
  5
262
100
AcDbEntity
  8
Layer_1
 62
3
100
AcDbSpline
 70
8
 71
3
 72
8
 73
4
 74
0
 40
0
 40
0
 40
0
 40
0
 40
1
 40
1
 40
1
 40
1
 10
2.058077
 20
3.153996
 30
0.0
 10
2.059321
 20
3.144796
 30
0.0
 10
2.063623
 20
3.137394
 30
0.0
 10
2.070982
 20
3.131789
 30
0.0
  0
SPLINE
  5
263
100
AcDbEntity
  8
Layer_1
 62
3
100
AcDbSpline
 70
8
 71
3
 72
8
 73
4
 74
0
 40
0
 40
0
 40
0
 40
0
 40
1
 40
1
 40
1
 40
1
 10
2.070982
 20
3.131789
 30
0.0
 10
2.078341
 20
3.126184
 30
0.0
 10
2.086621
 20
3.124005
 30
0.0
 10
2.095821
 20
3.125250
 30
0.0
  0
SPLINE
  5
264
100
AcDbEntity
  8
Layer_1
 62
3
100
AcDbSpline
 70
8
 71
3
 72
8
 73
4
 74
0
 40
0
 40
0
 40
0
 40
0
 40
1
 40
1
 40
1
 40
1
 10
2.095821
 20
3.125250
 30
0.0
 10
2.105021
 20
3.126494
 30
0.0
 10
2.112423
 20
3.130796
 30
0.0
 10
2.118028
 20
3.138155
 30
0.0
  0
LINE
  5
265
100
AcDbEntity
  8
Layer_1
 62
3
100
AcDbLine
 10
2.118028
 20
3.138155
 30
0.0
 11
2.131588
 21
3.155959
 31
0.0
  0
SPLINE
  5
266
100
AcDbEntity
  8
Layer_1
 62
3
100
AcDbSpline
 70
8
 71
3
 72
8
 73
4
 74
0
 40
0
 40
0
 40
0
 40
0
 40
1
 40
1
 40
1
 40
1
 10
2.131588
 20
3.155959
 30
0.0
 10
2.137192
 20
3.163318
 30
0.0
 10
2.139372
 20
3.171597
 30
0.0
 10
2.138127
 20
3.180797
 30
0.0
  0
SPLINE
  5
267
100
AcDbEntity
  8
Layer_1
 62
3
100
AcDbSpline
 70
8
 71
3
 72
8
 73
4
 74
0
 40
0
 40
0
 40
0
 40
0
 40
1
 40
1
 40
1
 40
1
 10
2.138127
 20
3.180797
 30
0.0
 10
2.136882
 20
3.189998
 30
0.0
 10
2.132580
 20
3.197400
 30
0.0
 10
2.125221
 20
3.203005
 30
0.0
  0
SPLINE
  5
268
100
AcDbEntity
  8
Layer_1
 62
3
100
AcDbSpline
 70
8
 71
3
 72
8
 73
4
 74
0
 40
0
 40
0
 40
0
 40
0
 40
1
 40
1
 40
1
 40
1
 10
2.125221
 20
3.203005
 30
0.0
 10
2.117863
 20
3.208609
 30
0.0
 10
2.109583
 20
3.210789
 30
0.0
 10
2.100383
 20
3.209544
 30
0.0
  0
SPLINE
  5
269
100
AcDbEntity
  8
Layer_1
 62
3
100
AcDbSpline
 70
8
 71
3
 72
8
 73
4
 74
0
 40
0
 40
0
 40
0
 40
0
 40
1
 40
1
 40
1
 40
1
 10
2.100383
 20
3.209544
 30
0.0
 10
2.091183
 20
3.208299
 30
0.0
 10
2.083781
 20
3.203997
 30
0.0
 10
2.078176
 20
3.196638
 30
0.0
  0
LINE
  5
26a
100
AcDbEntity
  8
Layer_1
 62
3
100
AcDbLine
 10
2.078176
 20
3.196638
 30
0.0
 11
2.064616
 21
3.178835
 31
0.0
  0
SPLINE
  5
26b
100
AcDbEntity
  8
Layer_1
 62
3
100
AcDbSpline
 70
8
 71
3
 72
8
 73
4
 74
0
 40
0
 40
0
 40
0
 40
0
 40
1
 40
1
 40
1
 40
1
 10
2.091076
 20
3.238200
 30
0.0
 10
2.092869
 20
3.238585
 30
0.0
 10
2.094633
 20
3.238930
 30
0.0
 10
2.096365
 20
3.239235
 30
0.0
  0
SPLINE
  5
26c
100
AcDbEntity
  8
Layer_1
 62
3
100
AcDbSpline
 70
8
 71
3
 72
8
 73
4
 74
0
 40
0
 40
0
 40
0
 40
0
 40
1
 40
1
 40
1
 40
1
 10
2.096365
 20
3.239235
 30
0.0
 10
2.113729
 20
3.241514
 30
0.0
 10
2.129375
 20
3.237350
 30
0.0
 10
2.143301
 20
3.226743
 30
0.0
  0
SPLINE
  5
26d
100
AcDbEntity
  8
Layer_1
 62
3
100
AcDbSpline
 70
8
 71
3
 72
8
 73
4
 74
0
 40
0
 40
0
 40
0
 40
0
 40
1
 40
1
 40
1
 40
1
 10
2.143301
 20
3.226743
 30
0.0
 10
2.157228
 20
3.216136
 30
0.0
 10
2.165370
 20
3.202121
 30
0.0
 10
2.167728
 20
3.184697
 30
0.0
  0
SPLINE
  5
26e
100
AcDbEntity
  8
Layer_1
 62
3
100
AcDbSpline
 70
8
 71
3
 72
8
 73
4
 74
0
 40
0
 40
0
 40
0
 40
0
 40
1
 40
1
 40
1
 40
1
 10
2.167728
 20
3.184697
 30
0.0
 10
2.170067
 20
3.167412
 30
0.0
 10
2.165933
 20
3.151806
 30
0.0
 10
2.155326
 20
3.137880
 30
0.0
  0
LINE
  5
26f
100
AcDbEntity
  8
Layer_1
 62
3
100
AcDbLine
 10
2.155326
 20
3.137880
 30
0.0
 11
2.141766
 21
3.120076
 31
0.0
  0
SPLINE
  5
270
100
AcDbEntity
  8
Layer_1
 62
3
100
AcDbSpline
 70
8
 71
3
 72
8
 73
4
 74
0
 40
0
 40
0
 40
0
 40
0
 40
1
 40
1
 40
1
 40
1
 10
2.141766
 20
3.120076
 30
0.0
 10
2.131159
 20
3.106149
 30
0.0
 10
2.117183
 20
3.097977
 30
0.0
 10
2.099838
 20
3.095559
 30
0.0
  0
SPLINE
  5
271
100
AcDbEntity
  8
Layer_1
 62
3
100
AcDbSpline
 70
8
 71
3
 72
8
 73
4
 74
0
 40
0
 40
0
 40
0
 40
0
 40
1
 40
1
 40
1
 40
1
 10
2.099838
 20
3.095559
 30
0.0
 10
2.082474
 20
3.093280
 30
0.0
 10
2.066829
 20
3.097444
 30
0.0
 10
2.052902
 20
3.108051
 30
0.0
  0
SPLINE
  5
272
100
AcDbEntity
  8
Layer_1
 62
3
100
AcDbSpline
 70
8
 71
3
 72
8
 73
4
 74
0
 40
0
 40
0
 40
0
 40
0
 40
1
 40
1
 40
1
 40
1
 10
2.052902
 20
3.108051
 30
0.0
 10
2.038976
 20
3.118658
 30
0.0
 10
2.030834
 20
3.132673
 30
0.0
 10
2.028476
 20
3.150098
 30
0.0
  0
SPLINE
  5
273
100
AcDbEntity
  8
Layer_1
 62
3
100
AcDbSpline
 70
8
 71
3
 72
8
 73
4
 74
0
 40
0
 40
0
 40
0
 40
0
 40
1
 40
1
 40
1
 40
1
 10
2.028476
 20
3.150098
 30
0.0
 10
2.028250
 20
3.151770
 30
0.0
 10
2.028084
 20
3.153522
 30
0.0
 10
2.027978
 20
3.155353
 30
0.0
  0
SPLINE
  5
274
100
AcDbEntity
  8
Layer_1
 62
3
100
AcDbSpline
 70
8
 71
3
 72
8
 73
4
 74
0
 40
0
 40
0
 40
0
 40
0
 40
1
 40
1
 40
1
 40
1
 10
2.027978
 20
3.155353
 30
0.0
 10
2.026185
 20
3.154968
 30
0.0
 10
2.024412
 20
3.154693
 30
0.0
 10
2.022660
 20
3.154527
 30
0.0
  0
SPLINE
  5
275
100
AcDbEntity
  8
Layer_1
 62
3
100
AcDbSpline
 70
8
 71
3
 72
8
 73
4
 74
0
 40
0
 40
0
 40
0
 40
0
 40
1
 40
1
 40
1
 40
1
 10
2.022660
 20
3.154527
 30
0.0
 10
2.005315
 20
3.152109
 30
0.0
 10
1.989679
 20
3.156203
 30
0.0
 10
1.975753
 20
3.166810
 30
0.0
  0
SPLINE
  5
276
100
AcDbEntity
  8
Layer_1
 62
3
100
AcDbSpline
 70
8
 71
3
 72
8
 73
4
 74
0
 40
0
 40
0
 40
0
 40
0
 40
1
 40
1
 40
1
 40
1
 10
1.975753
 20
3.166810
 30
0.0
 10
1.961826
 20
3.177417
 30
0.0
 10
1.953694
 20
3.191363
 30
0.0
 10
1.951355
 20
3.208648
 30
0.0
  0
SPLINE
  5
277
100
AcDbEntity
  8
Layer_1
 62
3
100
AcDbSpline
 70
8
 71
3
 72
8
 73
4
 74
0
 40
0
 40
0
 40
0
 40
0
 40
1
 40
1
 40
1
 40
1
 10
1.951355
 20
3.208648
 30
0.0
 10
1.948997
 20
3.226072
 30
0.0
 10
1.953122
 20
3.241747
 30
0.0
 10
1.963728
 20
3.255674
 30
0.0
  0
LINE
  5
278
100
AcDbEntity
  8
Layer_1
 62
3
100
AcDbLine
 10
1.963728
 20
3.255674
 30
0.0
 11
1.977288
 21
3.273478
 31
0.0
  0
SPLINE
  5
279
100
AcDbEntity
  8
Layer_1
 62
3
100
AcDbSpline
 70
8
 71
3
 72
8
 73
4
 74
0
 40
0
 40
0
 40
0
 40
0
 40
1
 40
1
 40
1
 40
1
 10
1.977288
 20
3.273478
 30
0.0
 10
1.987895
 20
3.287404
 30
0.0
 10
2.001880
 20
3.295507
 30
0.0
 10
2.019244
 20
3.297785
 30
0.0
  0
SPLINE
  5
27a
100
AcDbEntity
  8
Layer_1
 62
3
100
AcDbSpline
 70
8
 71
3
 72
8
 73
4
 74
0
 40
0
 40
0
 40
0
 40
0
 40
1
 40
1
 40
1
 40
1
 10
2.019244
 20
3.297785
 30
0.0
 10
2.036589
 20
3.300204
 30
0.0
 10
2.052225
 20
3.296109
 30
0.0
 10
2.066152
 20
3.285502
 30
0.0
  0
SPLINE
  5
27b
100
AcDbEntity
  8
Layer_1
 62
3
100
AcDbSpline
 70
8
 71
3
 72
8
 73
4
 74
0
 40
0
 40
0
 40
0
 40
0
 40
1
 40
1
 40
1
 40
1
 10
2.066152
 20
3.285502
 30
0.0
 10
2.080078
 20
3.274896
 30
0.0
 10
2.088211
 20
3.260950
 30
0.0
 10
2.090550
 20
3.243665
 30
0.0
  0
SPLINE
  5
27c
100
AcDbEntity
  8
Layer_1
 62
3
100
AcDbSpline
 70
8
 71
3
 72
8
 73
4
 74
0
 40
0
 40
0
 40
0
 40
0
 40
1
 40
1
 40
1
 40
1
 10
2.090550
 20
3.243665
 30
0.0
 10
2.090796
 20
3.241853
 30
0.0
 10
2.090971
 20
3.240031
 30
0.0
 10
2.091077
 20
3.238200
 30
0.0
  0
LINE
  5
27d
100
AcDbEntity
  8
Layer_1
 62
3
100
AcDbLine
 10
2.091077
 20
3.238200
 30
0.0
 11
2.091076
 21
3.238200
 31
0.0
  0
SPLINE
  5
27e
100
AcDbEntity
  8
Layer_1
 62
3
100
AcDbSpline
 70
8
 71
3
 72
8
 73
4
 74
0
 40
0
 40
0
 40
0
 40
0
 40
1
 40
1
 40
1
 40
1
 10
2.048072
 20
3.261764
 30
0.0
 10
2.040713
 20
3.267368
 30
0.0
 10
2.032433
 20
3.269548
 30
0.0
 10
2.023233
 20
3.268303
 30
0.0
  0
SPLINE
  5
27f
100
AcDbEntity
  8
Layer_1
 62
3
100
AcDbSpline
 70
8
 71
3
 72
8
 73
4
 74
0
 40
0
 40
0
 40
0
 40
0
 40
1
 40
1
 40
1
 40
1
 10
2.023233
 20
3.268303
 30
0.0
 10
2.014033
 20
3.267059
 30
0.0
 10
2.006631
 20
3.262757
 30
0.0
 10
2.001026
 20
3.255398
 30
0.0
  0
LINE
  5
280
100
AcDbEntity
  8
Layer_1
 62
3
100
AcDbLine
 10
2.001026
 20
3.255398
 30
0.0
 11
1.987466
 21
3.237594
 31
0.0
  0
SPLINE
  5
281
100
AcDbEntity
  8
Layer_1
 62
3
100
AcDbSpline
 70
8
 71
3
 72
8
 73
4
 74
0
 40
0
 40
0
 40
0
 40
0
 40
1
 40
1
 40
1
 40
1
 10
1.987466
 20
3.237594
 30
0.0
 10
1.981862
 20
3.230235
 30
0.0
 10
1.979682
 20
3.221956
 30
0.0
 10
1.980927
 20
3.212756
 30
0.0
  0
SPLINE
  5
282
100
AcDbEntity
  8
Layer_1
 62
3
100
AcDbSpline
 70
8
 71
3
 72
8
 73
4
 74
0
 40
0
 40
0
 40
0
 40
0
 40
1
 40
1
 40
1
 40
1
 10
1.980927
 20
3.212756
 30
0.0
 10
1.982172
 20
3.203556
 30
0.0
 10
1.986473
 20
3.196153
 30
0.0
 10
1.993832
 20
3.190548
 30
0.0
  0
SPLINE
  5
283
100
AcDbEntity
  8
Layer_1
 62
3
100
AcDbSpline
 70
8
 71
3
 72
8
 73
4
 74
0
 40
0
 40
0
 40
0
 40
0
 40
1
 40
1
 40
1
 40
1
 10
1.993832
 20
3.190548
 30
0.0
 10
2.001191
 20
3.184944
 30
0.0
 10
2.009471
 20
3.182764
 30
0.0
 10
2.018671
 20
3.184009
 30
0.0
  0
SPLINE
  5
284
100
AcDbEntity
  8
Layer_1
 62
3
100
AcDbSpline
 70
8
 71
3
 72
8
 73
4
 74
0
 40
0
 40
0
 40
0
 40
0
 40
1
 40
1
 40
1
 40
1
 10
2.018671
 20
3.184009
 30
0.0
 10
2.027871
 20
3.185254
 30
0.0
 10
2.035273
 20
3.189556
 30
0.0
 10
2.040878
 20
3.196914
 30
0.0
  0
LINE
  5
285
100
AcDbEntity
  8
Layer_1
 62
3
100
AcDbLine
 10
2.040878
 20
3.196914
 30
0.0
 11
2.054438
 21
3.214718
 31
0.0
  0
SPLINE
  5
286
100
AcDbEntity
  8
Layer_1
 62
3
100
AcDbSpline
 70
8
 71
3
 72
8
 73
4
 74
0
 40
0
 40
0
 40
0
 40
0
 40
1
 40
1
 40
1
 40
1
 10
2.054438
 20
3.214718
 30
0.0
 10
2.060042
 20
3.222077
 30
0.0
 10
2.062222
 20
3.230357
 30
0.0
 10
2.060977
 20
3.239557
 30
0.0
  0
SPLINE
  5
287
100
AcDbEntity
  8
Layer_1
 62
3
100
AcDbSpline
 70
8
 71
3
 72
8
 73
4
 74
0
 40
0
 40
0
 40
0
 40
0
 40
1
 40
1
 40
1
 40
1
 10
2.060977
 20
3.239557
 30
0.0
 10
2.059732
 20
3.248757
 30
0.0
 10
2.055430
 20
3.256159
 30
0.0
 10
2.048072
 20
3.261764
 30
0.0
  0
LINE
  5
288
100
AcDbEntity
  8
Layer_1
 62
3
100
AcDbLine
 10
2.048072
 20
3.261764
 30
0.0
 11
2.048072
 21
3.261764
 31
0.0
  0
SPLINE
  5
289
100
AcDbEntity
  8
Layer_1
 62
3
100
AcDbSpline
 70
8
 71
3
 72
8
 73
4
 74
0
 40
0
 40
0
 40
0
 40
0
 40
1
 40
1
 40
1
 40
1
 10
2.643595
 20
3.599317
 30
0.0
 10
2.626830
 20
3.594281
 30
0.0
 10
2.610719
 20
3.595881
 30
0.0
 10
2.595263
 20
3.604117
 30
0.0
  0
SPLINE
  5
28a
100
AcDbEntity
  8
Layer_1
 62
3
100
AcDbSpline
 70
8
 71
3
 72
8
 73
4
 74
0
 40
0
 40
0
 40
0
 40
0
 40
1
 40
1
 40
1
 40
1
 10
2.595263
 20
3.604117
 30
0.0
 10
2.579875
 20
3.612477
 30
0.0
 10
2.569662
 20
3.625040
 30
0.0
 10
2.564627
 20
3.641806
 30
0.0
  0
SPLINE
  5
28b
100
AcDbEntity
  8
Layer_1
 62
3
100
AcDbSpline
 70
8
 71
3
 72
8
 73
4
 74
0
 40
0
 40
0
 40
0
 40
0
 40
1
 40
1
 40
1
 40
1
 10
2.564627
 20
3.641806
 30
0.0
 10
2.559591
 20
3.658572
 30
0.0
 10
2.561205
 20
3.674635
 30
0.0
 10
2.569470
 20
3.689995
 30
0.0
  0
SPLINE
  5
28c
100
AcDbEntity
  8
Layer_1
 62
3
100
AcDbSpline
 70
8
 71
3
 72
8
 73
4
 74
0
 40
0
 40
0
 40
0
 40
0
 40
1
 40
1
 40
1
 40
1
 10
2.569470
 20
3.689995
 30
0.0
 10
2.577801
 20
3.705479
 30
0.0
 10
2.590349
 20
3.715739
 30
0.0
 10
2.607115
 20
3.720774
 30
0.0
  0
LINE
  5
28d
100
AcDbEntity
  8
Layer_1
 62
3
100
AcDbLine
 10
2.607115
 20
3.720774
 30
0.0
 11
2.628549
 21
3.727212
 31
0.0
  0
SPLINE
  5
28e
100
AcDbEntity
  8
Layer_1
 62
3
100
AcDbSpline
 70
8
 71
3
 72
8
 73
4
 74
0
 40
0
 40
0
 40
0
 40
0
 40
1
 40
1
 40
1
 40
1
 10
2.628549
 20
3.727212
 30
0.0
 10
2.645315
 20
3.732248
 30
0.0
 10
2.661392
 20
3.730586
 30
0.0
 10
2.676781
 20
3.722226
 30
0.0
  0
SPLINE
  5
28f
100
AcDbEntity
  8
Layer_1
 62
3
100
AcDbSpline
 70
8
 71
3
 72
8
 73
4
 74
0
 40
0
 40
0
 40
0
 40
0
 40
1
 40
1
 40
1
 40
1
 10
2.676781
 20
3.722226
 30
0.0
 10
2.692236
 20
3.713990
 30
0.0
 10
2.702482
 20
3.701489
 30
0.0
 10
2.707518
 20
3.684723
 30
0.0
  0
LINE
  5
290
100
AcDbEntity
  8
Layer_1
 62
3
100
AcDbLine
 10
2.707518
 20
3.684723
 30
0.0
 11
2.735414
 21
3.591844
 31
0.0
  0
SPLINE
  5
291
100
AcDbEntity
  8
Layer_1
 62
3
100
AcDbSpline
 70
8
 71
3
 72
8
 73
4
 74
0
 40
0
 40
0
 40
0
 40
0
 40
1
 40
1
 40
1
 40
1
 10
2.735414
 20
3.591844
 30
0.0
 10
2.740450
 20
3.575078
 30
0.0
 10
2.738802
 20
3.558954
 30
0.0
 10
2.730471
 20
3.543469
 30
0.0
  0
SPLINE
  5
292
100
AcDbEntity
  8
Layer_1
 62
3
100
AcDbSpline
 70
8
 71
3
 72
8
 73
4
 74
0
 40
0
 40
0
 40
0
 40
0
 40
1
 40
1
 40
1
 40
1
 10
2.730471
 20
3.543469
 30
0.0
 10
2.722207
 20
3.528109
 30
0.0
 10
2.709691
 20
3.517911
 30
0.0
 10
2.692926
 20
3.512876
 30
0.0
  0
LINE
  5
293
100
AcDbEntity
  8
Layer_1
 62
3
100
AcDbLine
 10
2.692926
 20
3.512876
 30
0.0
 11
2.671492
 21
3.506438
 31
0.0
  0
SPLINE
  5
294
100
AcDbEntity
  8
Layer_1
 62
3
100
AcDbSpline
 70
8
 71
3
 72
8
 73
4
 74
0
 40
0
 40
0
 40
0
 40
0
 40
1
 40
1
 40
1
 40
1
 10
2.671492
 20
3.506438
 30
0.0
 10
2.654726
 20
3.501402
 30
0.0
 10
2.638615
 20
3.503002
 30
0.0
 10
2.623160
 20
3.511238
 30
0.0
  0
SPLINE
  5
295
100
AcDbEntity
  8
Layer_1
 62
3
100
AcDbSpline
 70
8
 71
3
 72
8
 73
4
 74
0
 40
0
 40
0
 40
0
 40
0
 40
1
 40
1
 40
1
 40
1
 10
2.623160
 20
3.511238
 30
0.0
 10
2.607771
 20
3.519598
 30
0.0
 10
2.597559
 20
3.532161
 30
0.0
 10
2.592523
 20
3.548927
 30
0.0
  0
SPLINE
  5
296
100
AcDbEntity
  8
Layer_1
 62
3
100
AcDbSpline
 70
8
 71
3
 72
8
 73
4
 74
0
 40
0
 40
0
 40
0
 40
0
 40
1
 40
1
 40
1
 40
1
 10
2.592523
 20
3.548927
 30
0.0
 10
2.591350
 20
3.552832
 30
0.0
 10
2.591730
 20
3.556581
 30
0.0
 10
2.593663
 20
3.560173
 30
0.0
  0
SPLINE
  5
297
100
AcDbEntity
  8
Layer_1
 62
3
100
AcDbSpline
 70
8
 71
3
 72
8
 73
4
 74
0
 40
0
 40
0
 40
0
 40
0
 40
1
 40
1
 40
1
 40
1
 10
2.593663
 20
3.560173
 30
0.0
 10
2.595662
 20
3.563890
 30
0.0
 10
2.598615
 20
3.566334
 30
0.0
 10
2.602521
 20
3.567507
 30
0.0
  0
SPLINE
  5
298
100
AcDbEntity
  8
Layer_1
 62
3
100
AcDbSpline
 70
8
 71
3
 72
8
 73
4
 74
0
 40
0
 40
0
 40
0
 40
0
 40
1
 40
1
 40
1
 40
1
 10
2.602521
 20
3.567507
 30
0.0
 10
2.606426
 20
3.568681
 30
0.0
 10
2.610190
 20
3.568253
 30
0.0
 10
2.613810
 20
3.566225
 30
0.0
  0
SPLINE
  5
299
100
AcDbEntity
  8
Layer_1
 62
3
100
AcDbSpline
 70
8
 71
3
 72
8
 73
4
 74
0
 40
0
 40
0
 40
0
 40
0
 40
1
 40
1
 40
1
 40
1
 10
2.613810
 20
3.566225
 30
0.0
 10
2.617498
 20
3.564321
 30
0.0
 10
2.619928
 20
3.561416
 30
0.0
 10
2.621101
 20
3.557510
 30
0.0
  0
SPLINE
  5
29a
100
AcDbEntity
  8
Layer_1
 62
3
100
AcDbSpline
 70
8
 71
3
 72
8
 73
4
 74
0
 40
0
 40
0
 40
0
 40
0
 40
1
 40
1
 40
1
 40
1
 10
2.621101
 20
3.557510
 30
0.0
 10
2.623762
 20
3.548651
 30
0.0
 10
2.629181
 20
3.542022
 30
0.0
 10
2.637356
 20
3.537623
 30
0.0
  0
SPLINE
  5
29b
100
AcDbEntity
  8
Layer_1
 62
3
100
AcDbSpline
 70
8
 71
3
 72
8
 73
4
 74
0
 40
0
 40
0
 40
0
 40
0
 40
1
 40
1
 40
1
 40
1
 10
2.637356
 20
3.537623
 30
0.0
 10
2.645532
 20
3.533224
 30
0.0
 10
2.654049
 20
3.532355
 30
0.0
 10
2.662908
 20
3.535016
 30
0.0
  0
LINE
  5
29c
100
AcDbEntity
  8
Layer_1
 62
3
100
AcDbLine
 10
2.662908
 20
3.535016
 30
0.0
 11
2.684342
 21
3.541454
 31
0.0
  0
SPLINE
  5
29d
100
AcDbEntity
  8
Layer_1
 62
3
100
AcDbSpline
 70
8
 71
3
 72
8
 73
4
 74
0
 40
0
 40
0
 40
0
 40
0
 40
1
 40
1
 40
1
 40
1
 10
2.684342
 20
3.541454
 30
0.0
 10
2.693201
 20
3.544115
 30
0.0
 10
2.699830
 20
3.549533
 30
0.0
 10
2.704229
 20
3.557708
 30
0.0
  0
SPLINE
  5
29e
100
AcDbEntity
  8
Layer_1
 62
3
100
AcDbSpline
 70
8
 71
3
 72
8
 73
4
 74
0
 40
0
 40
0
 40
0
 40
0
 40
1
 40
1
 40
1
 40
1
 10
2.704229
 20
3.557708
 30
0.0
 10
2.708628
 20
3.565884
 30
0.0
 10
2.709497
 20
3.574402
 30
0.0
 10
2.706836
 20
3.583261
 30
0.0
  0
LINE
  5
29f
100
AcDbEntity
  8
Layer_1
 62
3
100
AcDbLine
 10
2.706836
 20
3.583261
 30
0.0
 11
2.694476
 21
3.624413
 31
0.0
  0
SPLINE
  5
2a0
100
AcDbEntity
  8
Layer_1
 62
3
100
AcDbSpline
 70
8
 71
3
 72
8
 73
4
 74
0
 40
0
 40
0
 40
0
 40
0
 40
1
 40
1
 40
1
 40
1
 10
2.694476
 20
3.624413
 30
0.0
 10
2.686847
 20
3.615579
 30
0.0
 10
2.677032
 20
3.609360
 30
0.0
 10
2.665029
 20
3.605755
 30
0.0
  0
LINE
  5
2a1
100
AcDbEntity
  8
Layer_1
 62
3
100
AcDbLine
 10
2.665029
 20
3.605755
 30
0.0
 11
2.643595
 21
3.599317
 31
0.0
  0
SPLINE
  5
2a2
100
AcDbEntity
  8
Layer_1
 62
3
100
AcDbSpline
 70
8
 71
3
 72
8
 73
4
 74
0
 40
0
 40
0
 40
0
 40
0
 40
1
 40
1
 40
1
 40
1
 10
2.656445
 20
3.634333
 30
0.0
 10
2.665305
 20
3.636994
 30
0.0
 10
2.671934
 20
3.642412
 30
0.0
 10
2.676333
 20
3.650588
 30
0.0
  0
SPLINE
  5
2a3
100
AcDbEntity
  8
Layer_1
 62
3
100
AcDbSpline
 70
8
 71
3
 72
8
 73
4
 74
0
 40
0
 40
0
 40
0
 40
0
 40
1
 40
1
 40
1
 40
1
 10
2.676333
 20
3.650588
 30
0.0
 10
2.680731
 20
3.658763
 30
0.0
 10
2.681600
 20
3.667281
 30
0.0
 10
2.678939
 20
3.676140
 30
0.0
  0
SPLINE
  5
2a4
100
AcDbEntity
  8
Layer_1
 62
3
100
AcDbSpline
 70
8
 71
3
 72
8
 73
4
 74
0
 40
0
 40
0
 40
0
 40
0
 40
1
 40
1
 40
1
 40
1
 10
2.678939
 20
3.676140
 30
0.0
 10
2.676279
 20
3.684999
 30
0.0
 10
2.670860
 20
3.691628
 30
0.0
 10
2.662685
 20
3.696027
 30
0.0
  0
SPLINE
  5
2a5
100
AcDbEntity
  8
Layer_1
 62
3
100
AcDbSpline
 70
8
 71
3
 72
8
 73
4
 74
0
 40
0
 40
0
 40
0
 40
0
 40
1
 40
1
 40
1
 40
1
 10
2.662685
 20
3.696027
 30
0.0
 10
2.654509
 20
3.700426
 30
0.0
 10
2.645992
 20
3.701295
 30
0.0
 10
2.637133
 20
3.698634
 30
0.0
  0
LINE
  5
2a6
100
AcDbEntity
  8
Layer_1
 62
3
100
AcDbLine
 10
2.637133
 20
3.698634
 30
0.0
 11
2.615699
 21
3.692196
 31
0.0
  0
SPLINE
  5
2a7
100
AcDbEntity
  8
Layer_1
 62
3
100
AcDbSpline
 70
8
 71
3
 72
8
 73
4
 74
0
 40
0
 40
0
 40
0
 40
0
 40
1
 40
1
 40
1
 40
1
 10
2.615699
 20
3.692196
 30
0.0
 10
2.606840
 20
3.689535
 30
0.0
 10
2.600211
 20
3.684117
 30
0.0
 10
2.595812
 20
3.675941
 30
0.0
  0
SPLINE
  5
2a8
100
AcDbEntity
  8
Layer_1
 62
3
100
AcDbSpline
 70
8
 71
3
 72
8
 73
4
 74
0
 40
0
 40
0
 40
0
 40
0
 40
1
 40
1
 40
1
 40
1
 10
2.595812
 20
3.675941
 30
0.0
 10
2.591413
 20
3.667766
 30
0.0
 10
2.590544
 20
3.659249
 30
0.0
 10
2.593205
 20
3.650389
 30
0.0
  0
SPLINE
  5
2a9
100
AcDbEntity
  8
Layer_1
 62
3
100
AcDbSpline
 70
8
 71
3
 72
8
 73
4
 74
0
 40
0
 40
0
 40
0
 40
0
 40
1
 40
1
 40
1
 40
1
 10
2.593205
 20
3.650389
 30
0.0
 10
2.595866
 20
3.641530
 30
0.0
 10
2.601284
 20
3.634901
 30
0.0
 10
2.609460
 20
3.630502
 30
0.0
  0
SPLINE
  5
2aa
100
AcDbEntity
  8
Layer_1
 62
3
100
AcDbSpline
 70
8
 71
3
 72
8
 73
4
 74
0
 40
0
 40
0
 40
0
 40
0
 40
1
 40
1
 40
1
 40
1
 10
2.609460
 20
3.630502
 30
0.0
 10
2.617635
 20
3.626103
 30
0.0
 10
2.626153
 20
3.625234
 30
0.0
 10
2.635012
 20
3.627895
 30
0.0
  0
LINE
  5
2ab
100
AcDbEntity
  8
Layer_1
 62
3
100
AcDbLine
 10
2.635012
 20
3.627895
 30
0.0
 11
2.656445
 21
3.634333
 31
0.0
  0
SPLINE
  5
2ac
100
AcDbEntity
  8
Layer_1
 62
7
100
AcDbSpline
 70
8
 71
3
 72
8
 73
4
 74
0
 40
0
 40
0
 40
0
 40
0
 40
1
 40
1
 40
1
 40
1
 10
2.659139
 20
4.050137
 30
0.0
 10
2.659139
 20
4.007702
 30
0.0
 10
2.642282
 20
3.967005
 30
0.0
 10
2.612276
 20
3.937000
 30
0.0
  0
SPLINE
  5
2ad
100
AcDbEntity
  8
Layer_1
 62
7
100
AcDbSpline
 70
8
 71
3
 72
8
 73
4
 74
0
 40
0
 40
0
 40
0
 40
0
 40
1
 40
1
 40
1
 40
1
 10
2.612276
 20
3.937000
 30
0.0
 10
2.582271
 20
3.906994
 30
0.0
 10
2.541574
 20
3.890137
 30
0.0
 10
2.499139
 20
3.890137
 30
0.0
  0
SPLINE
  5
2ae
100
AcDbEntity
  8
Layer_1
 62
7
100
AcDbSpline
 70
8
 71
3
 72
8
 73
4
 74
0
 40
0
 40
0
 40
0
 40
0
 40
1
 40
1
 40
1
 40
1
 10
2.499139
 20
3.890137
 30
0.0
 10
2.456705
 20
3.890137
 30
0.0
 10
2.416008
 20
3.906994
 30
0.0
 10
2.386002
 20
3.937000
 30
0.0
  0
SPLINE
  5
2af
100
AcDbEntity
  8
Layer_1
 62
7
100
AcDbSpline
 70
8
 71
3
 72
8
 73
4
 74
0
 40
0
 40
0
 40
0
 40
0
 40
1
 40
1
 40
1
 40
1
 10
2.386002
 20
3.937000
 30
0.0
 10
2.355996
 20
3.967005
 30
0.0
 10
2.339139
 20
4.007702
 30
0.0
 10
2.339139
 20
4.050137
 30
0.0
  0
SPLINE
  5
2b0
100
AcDbEntity
  8
Layer_1
 62
7
100
AcDbSpline
 70
8
 71
3
 72
8
 73
4
 74
0
 40
0
 40
0
 40
0
 40
0
 40
1
 40
1
 40
1
 40
1
 10
2.339139
 20
4.050137
 30
0.0
 10
2.339139
 20
4.138502
 30
0.0
 10
2.410774
 20
4.210137
 30
0.0
 10
2.499139
 20
4.210137
 30
0.0
  0
SPLINE
  5
2b1
100
AcDbEntity
  8
Layer_1
 62
7
100
AcDbSpline
 70
8
 71
3
 72
8
 73
4
 74
0
 40
0
 40
0
 40
0
 40
0
 40
1
 40
1
 40
1
 40
1
 10
2.499139
 20
4.210137
 30
0.0
 10
2.541574
 20
4.210137
 30
0.0
 10
2.582270
 20
4.193280
 30
0.0
 10
2.612276
 20
4.163274
 30
0.0
  0
SPLINE
  5
2b2
100
AcDbEntity
  8
Layer_1
 62
7
100
AcDbSpline
 70
8
 71
3
 72
8
 73
4
 74
0
 40
0
 40
0
 40
0
 40
0
 40
1
 40
1
 40
1
 40
1
 10
2.612276
 20
4.163274
 30
0.0
 10
2.642282
 20
4.133268
 30
0.0
 10
2.659139
 20
4.092571
 30
0.0
 10
2.659139
 20
4.050137
 30
0.0
  0
LINE
  5
2b3
100
AcDbEntity
  8
Layer_1
 62
7
100
AcDbLine
 10
2.659139
 20
4.050137
 30
0.0
 11
2.659139
 21
4.050137
 31
0.0
  0
SPLINE
  5
2b4
100
AcDbEntity
  8
Layer_1
 62
7
100
AcDbSpline
 70
8
 71
3
 72
8
 73
4
 74
0
 40
0
 40
0
 40
0
 40
0
 40
1
 40
1
 40
1
 40
1
 10
3.661081
 20
4.050137
 30
0.0
 10
3.661081
 20
4.007702
 30
0.0
 10
3.644224
 20
3.967005
 30
0.0
 10
3.614218
 20
3.937000
 30
0.0
  0
SPLINE
  5
2b5
100
AcDbEntity
  8
Layer_1
 62
7
100
AcDbSpline
 70
8
 71
3
 72
8
 73
4
 74
0
 40
0
 40
0
 40
0
 40
0
 40
1
 40
1
 40
1
 40
1
 10
3.614218
 20
3.937000
 30
0.0
 10
3.584212
 20
3.906994
 30
0.0
 10
3.543516
 20
3.890137
 30
0.0
 10
3.501081
 20
3.890137
 30
0.0
  0
SPLINE
  5
2b6
100
AcDbEntity
  8
Layer_1
 62
7
100
AcDbSpline
 70
8
 71
3
 72
8
 73
4
 74
0
 40
0
 40
0
 40
0
 40
0
 40
1
 40
1
 40
1
 40
1
 10
3.501081
 20
3.890137
 30
0.0
 10
3.458646
 20
3.890137
 30
0.0
 10
3.417950
 20
3.906994
 30
0.0
 10
3.387944
 20
3.937000
 30
0.0
  0
SPLINE
  5
2b7
100
AcDbEntity
  8
Layer_1
 62
7
100
AcDbSpline
 70
8
 71
3
 72
8
 73
4
 74
0
 40
0
 40
0
 40
0
 40
0
 40
1
 40
1
 40
1
 40
1
 10
3.387944
 20
3.937000
 30
0.0
 10
3.357938
 20
3.967005
 30
0.0
 10
3.341081
 20
4.007702
 30
0.0
 10
3.341081
 20
4.050137
 30
0.0
  0
SPLINE
  5
2b8
100
AcDbEntity
  8
Layer_1
 62
7
100
AcDbSpline
 70
8
 71
3
 72
8
 73
4
 74
0
 40
0
 40
0
 40
0
 40
0
 40
1
 40
1
 40
1
 40
1
 10
3.341081
 20
4.050137
 30
0.0
 10
3.341081
 20
4.138502
 30
0.0
 10
3.412715
 20
4.210137
 30
0.0
 10
3.501081
 20
4.210137
 30
0.0
  0
SPLINE
  5
2b9
100
AcDbEntity
  8
Layer_1
 62
7
100
AcDbSpline
 70
8
 71
3
 72
8
 73
4
 74
0
 40
0
 40
0
 40
0
 40
0
 40
1
 40
1
 40
1
 40
1
 10
3.501081
 20
4.210137
 30
0.0
 10
3.543516
 20
4.210137
 30
0.0
 10
3.584212
 20
4.193280
 30
0.0
 10
3.614218
 20
4.163274
 30
0.0
  0
SPLINE
  5
2ba
100
AcDbEntity
  8
Layer_1
 62
7
100
AcDbSpline
 70
8
 71
3
 72
8
 73
4
 74
0
 40
0
 40
0
 40
0
 40
0
 40
1
 40
1
 40
1
 40
1
 10
3.614218
 20
4.163274
 30
0.0
 10
3.644224
 20
4.133268
 30
0.0
 10
3.661081
 20
4.092571
 30
0.0
 10
3.661081
 20
4.050137
 30
0.0
  0
LINE
  5
2bb
100
AcDbEntity
  8
Layer_1
 62
7
100
AcDbLine
 10
3.661081
 20
4.050137
 30
0.0
 11
3.661081
 21
4.050137
 31
0.0
  0
SPLINE
  5
2bc
100
AcDbEntity
  8
Layer_1
 62
7
100
AcDbSpline
 70
8
 71
3
 72
8
 73
4
 74
0
 40
0
 40
0
 40
0
 40
0
 40
1
 40
1
 40
1
 40
1
 10
4.471792
 20
3.456952
 30
0.0
 10
4.471792
 20
3.414517
 30
0.0
 10
4.454935
 20
3.373821
 30
0.0
 10
4.424929
 20
3.343815
 30
0.0
  0
SPLINE
  5
2bd
100
AcDbEntity
  8
Layer_1
 62
7
100
AcDbSpline
 70
8
 71
3
 72
8
 73
4
 74
0
 40
0
 40
0
 40
0
 40
0
 40
1
 40
1
 40
1
 40
1
 10
4.424929
 20
3.343815
 30
0.0
 10
4.394923
 20
3.313809
 30
0.0
 10
4.354227
 20
3.296952
 30
0.0
 10
4.311792
 20
3.296952
 30
0.0
  0
SPLINE
  5
2be
100
AcDbEntity
  8
Layer_1
 62
7
100
AcDbSpline
 70
8
 71
3
 72
8
 73
4
 74
0
 40
0
 40
0
 40
0
 40
0
 40
1
 40
1
 40
1
 40
1
 10
4.311792
 20
3.296952
 30
0.0
 10
4.269357
 20
3.296952
 30
0.0
 10
4.228661
 20
3.313809
 30
0.0
 10
4.198655
 20
3.343815
 30
0.0
  0
SPLINE
  5
2bf
100
AcDbEntity
  8
Layer_1
 62
7
100
AcDbSpline
 70
8
 71
3
 72
8
 73
4
 74
0
 40
0
 40
0
 40
0
 40
0
 40
1
 40
1
 40
1
 40
1
 10
4.198655
 20
3.343815
 30
0.0
 10
4.168649
 20
3.373821
 30
0.0
 10
4.151792
 20
3.414517
 30
0.0
 10
4.151792
 20
3.456952
 30
0.0
  0
SPLINE
  5
2c0
100
AcDbEntity
  8
Layer_1
 62
7
100
AcDbSpline
 70
8
 71
3
 72
8
 73
4
 74
0
 40
0
 40
0
 40
0
 40
0
 40
1
 40
1
 40
1
 40
1
 10
4.151792
 20
3.456952
 30
0.0
 10
4.151792
 20
3.499387
 30
0.0
 10
4.168649
 20
3.540083
 30
0.0
 10
4.198655
 20
3.570089
 30
0.0
  0
SPLINE
  5
2c1
100
AcDbEntity
  8
Layer_1
 62
7
100
AcDbSpline
 70
8
 71
3
 72
8
 73
4
 74
0
 40
0
 40
0
 40
0
 40
0
 40
1
 40
1
 40
1
 40
1
 10
4.198655
 20
3.570089
 30
0.0
 10
4.228661
 20
3.600095
 30
0.0
 10
4.269357
 20
3.616952
 30
0.0
 10
4.311792
 20
3.616952
 30
0.0
  0
SPLINE
  5
2c2
100
AcDbEntity
  8
Layer_1
 62
7
100
AcDbSpline
 70
8
 71
3
 72
8
 73
4
 74
0
 40
0
 40
0
 40
0
 40
0
 40
1
 40
1
 40
1
 40
1
 10
4.311792
 20
3.616952
 30
0.0
 10
4.400158
 20
3.616952
 30
0.0
 10
4.471792
 20
3.545317
 30
0.0
 10
4.471792
 20
3.456952
 30
0.0
  0
LINE
  5
2c3
100
AcDbEntity
  8
Layer_1
 62
7
100
AcDbLine
 10
4.471792
 20
3.456952
 30
0.0
 11
4.471792
 21
3.456952
 31
0.0
  0
SPLINE
  5
2c4
100
AcDbEntity
  8
Layer_1
 62
7
100
AcDbSpline
 70
8
 71
3
 72
8
 73
4
 74
0
 40
0
 40
0
 40
0
 40
0
 40
1
 40
1
 40
1
 40
1
 10
4.780909
 20
2.500000
 30
0.0
 10
4.780909
 20
2.457565
 30
0.0
 10
4.764052
 20
2.416869
 30
0.0
 10
4.734046
 20
2.386863
 30
0.0
  0
SPLINE
  5
2c5
100
AcDbEntity
  8
Layer_1
 62
7
100
AcDbSpline
 70
8
 71
3
 72
8
 73
4
 74
0
 40
0
 40
0
 40
0
 40
0
 40
1
 40
1
 40
1
 40
1
 10
4.734046
 20
2.386863
 30
0.0
 10
4.704040
 20
2.356857
 30
0.0
 10
4.663343
 20
2.340000
 30
0.0
 10
4.620909
 20
2.340000
 30
0.0
  0
SPLINE
  5
2c6
100
AcDbEntity
  8
Layer_1
 62
7
100
AcDbSpline
 70
8
 71
3
 72
8
 73
4
 74
0
 40
0
 40
0
 40
0
 40
0
 40
1
 40
1
 40
1
 40
1
 10
4.620909
 20
2.340000
 30
0.0
 10
4.578474
 20
2.340000
 30
0.0
 10
4.537777
 20
2.356857
 30
0.0
 10
4.507772
 20
2.386863
 30
0.0
  0
SPLINE
  5
2c7
100
AcDbEntity
  8
Layer_1
 62
7
100
AcDbSpline
 70
8
 71
3
 72
8
 73
4
 74
0
 40
0
 40
0
 40
0
 40
0
 40
1
 40
1
 40
1
 40
1
 10
4.507772
 20
2.386863
 30
0.0
 10
4.477766
 20
2.416869
 30
0.0
 10
4.460909
 20
2.457565
 30
0.0
 10
4.460909
 20
2.500000
 30
0.0
  0
SPLINE
  5
2c8
100
AcDbEntity
  8
Layer_1
 62
7
100
AcDbSpline
 70
8
 71
3
 72
8
 73
4
 74
0
 40
0
 40
0
 40
0
 40
0
 40
1
 40
1
 40
1
 40
1
 10
4.460909
 20
2.500000
 30
0.0
 10
4.460909
 20
2.542435
 30
0.0
 10
4.477766
 20
2.583131
 30
0.0
 10
4.507772
 20
2.613137
 30
0.0
  0
SPLINE
  5
2c9
100
AcDbEntity
  8
Layer_1
 62
7
100
AcDbSpline
 70
8
 71
3
 72
8
 73
4
 74
0
 40
0
 40
0
 40
0
 40
0
 40
1
 40
1
 40
1
 40
1
 10
4.507772
 20
2.613137
 30
0.0
 10
4.537777
 20
2.643143
 30
0.0
 10
4.578474
 20
2.660000
 30
0.0
 10
4.620909
 20
2.660000
 30
0.0
  0
SPLINE
  5
2ca
100
AcDbEntity
  8
Layer_1
 62
7
100
AcDbSpline
 70
8
 71
3
 72
8
 73
4
 74
0
 40
0
 40
0
 40
0
 40
0
 40
1
 40
1
 40
1
 40
1
 10
4.620909
 20
2.660000
 30
0.0
 10
4.663343
 20
2.660000
 30
0.0
 10
4.704040
 20
2.643143
 30
0.0
 10
4.734046
 20
2.613137
 30
0.0
  0
SPLINE
  5
2cb
100
AcDbEntity
  8
Layer_1
 62
7
100
AcDbSpline
 70
8
 71
3
 72
8
 73
4
 74
0
 40
0
 40
0
 40
0
 40
0
 40
1
 40
1
 40
1
 40
1
 10
4.734046
 20
2.613137
 30
0.0
 10
4.764052
 20
2.583131
 30
0.0
 10
4.780909
 20
2.542435
 30
0.0
 10
4.780909
 20
2.500000
 30
0.0
  0
LINE
  5
2cc
100
AcDbEntity
  8
Layer_1
 62
7
100
AcDbLine
 10
4.780909
 20
2.500000
 30
0.0
 11
4.780909
 21
2.500000
 31
0.0
  0
SPLINE
  5
2cd
100
AcDbEntity
  8
Layer_1
 62
7
100
AcDbSpline
 70
8
 71
3
 72
8
 73
4
 74
0
 40
0
 40
0
 40
0
 40
0
 40
1
 40
1
 40
1
 40
1
 10
4.471792
 20
1.541574
 30
0.0
 10
4.471792
 20
1.499139
 30
0.0
 10
4.454935
 20
1.458443
 30
0.0
 10
4.424929
 20
1.428437
 30
0.0
  0
SPLINE
  5
2ce
100
AcDbEntity
  8
Layer_1
 62
7
100
AcDbSpline
 70
8
 71
3
 72
8
 73
4
 74
0
 40
0
 40
0
 40
0
 40
0
 40
1
 40
1
 40
1
 40
1
 10
4.424929
 20
1.428437
 30
0.0
 10
4.394923
 20
1.398431
 30
0.0
 10
4.354227
 20
1.381574
 30
0.0
 10
4.311792
 20
1.381574
 30
0.0
  0
SPLINE
  5
2cf
100
AcDbEntity
  8
Layer_1
 62
7
100
AcDbSpline
 70
8
 71
3
 72
8
 73
4
 74
0
 40
0
 40
0
 40
0
 40
0
 40
1
 40
1
 40
1
 40
1
 10
4.311792
 20
1.381574
 30
0.0
 10
4.269357
 20
1.381574
 30
0.0
 10
4.228661
 20
1.398431
 30
0.0
 10
4.198655
 20
1.428437
 30
0.0
  0
SPLINE
  5
2d0
100
AcDbEntity
  8
Layer_1
 62
7
100
AcDbSpline
 70
8
 71
3
 72
8
 73
4
 74
0
 40
0
 40
0
 40
0
 40
0
 40
1
 40
1
 40
1
 40
1
 10
4.198655
 20
1.428437
 30
0.0
 10
4.168649
 20
1.458443
 30
0.0
 10
4.151792
 20
1.499139
 30
0.0
 10
4.151792
 20
1.541574
 30
0.0
  0
SPLINE
  5
2d1
100
AcDbEntity
  8
Layer_1
 62
7
100
AcDbSpline
 70
8
 71
3
 72
8
 73
4
 74
0
 40
0
 40
0
 40
0
 40
0
 40
1
 40
1
 40
1
 40
1
 10
4.151792
 20
1.541574
 30
0.0
 10
4.151792
 20
1.584009
 30
0.0
 10
4.168649
 20
1.624705
 30
0.0
 10
4.198655
 20
1.654711
 30
0.0
  0
SPLINE
  5
2d2
100
AcDbEntity
  8
Layer_1
 62
7
100
AcDbSpline
 70
8
 71
3
 72
8
 73
4
 74
0
 40
0
 40
0
 40
0
 40
0
 40
1
 40
1
 40
1
 40
1
 10
4.198655
 20
1.654711
 30
0.0
 10
4.228661
 20
1.684717
 30
0.0
 10
4.269357
 20
1.701574
 30
0.0
 10
4.311792
 20
1.701574
 30
0.0
  0
SPLINE
  5
2d3
100
AcDbEntity
  8
Layer_1
 62
7
100
AcDbSpline
 70
8
 71
3
 72
8
 73
4
 74
0
 40
0
 40
0
 40
0
 40
0
 40
1
 40
1
 40
1
 40
1
 10
4.311792
 20
1.701574
 30
0.0
 10
4.400158
 20
1.701574
 30
0.0
 10
4.471792
 20
1.629940
 30
0.0
 10
4.471792
 20
1.541574
 30
0.0
  0
LINE
  5
2d4
100
AcDbEntity
  8
Layer_1
 62
7
100
AcDbLine
 10
4.471792
 20
1.541574
 30
0.0
 11
4.471792
 21
1.541574
 31
0.0
  0
SPLINE
  5
2d5
100
AcDbEntity
  8
Layer_1
 62
7
100
AcDbSpline
 70
8
 71
3
 72
8
 73
4
 74
0
 40
0
 40
0
 40
0
 40
0
 40
1
 40
1
 40
1
 40
1
 10
3.661081
 20
0.950995
 30
0.0
 10
3.661081
 20
0.908560
 30
0.0
 10
3.644224
 20
0.867863
 30
0.0
 10
3.614218
 20
0.837857
 30
0.0
  0
SPLINE
  5
2d6
100
AcDbEntity
  8
Layer_1
 62
7
100
AcDbSpline
 70
8
 71
3
 72
8
 73
4
 74
0
 40
0
 40
0
 40
0
 40
0
 40
1
 40
1
 40
1
 40
1
 10
3.614218
 20
0.837857
 30
0.0
 10
3.584212
 20
0.807852
 30
0.0
 10
3.543516
 20
0.790995
 30
0.0
 10
3.501081
 20
0.790995
 30
0.0
  0
SPLINE
  5
2d7
100
AcDbEntity
  8
Layer_1
 62
7
100
AcDbSpline
 70
8
 71
3
 72
8
 73
4
 74
0
 40
0
 40
0
 40
0
 40
0
 40
1
 40
1
 40
1
 40
1
 10
3.501081
 20
0.790995
 30
0.0
 10
3.458646
 20
0.790995
 30
0.0
 10
3.417950
 20
0.807852
 30
0.0
 10
3.387944
 20
0.837857
 30
0.0
  0
SPLINE
  5
2d8
100
AcDbEntity
  8
Layer_1
 62
7
100
AcDbSpline
 70
8
 71
3
 72
8
 73
4
 74
0
 40
0
 40
0
 40
0
 40
0
 40
1
 40
1
 40
1
 40
1
 10
3.387944
 20
0.837857
 30
0.0
 10
3.357938
 20
0.867863
 30
0.0
 10
3.341081
 20
0.908560
 30
0.0
 10
3.341081
 20
0.950995
 30
0.0
  0
SPLINE
  5
2d9
100
AcDbEntity
  8
Layer_1
 62
7
100
AcDbSpline
 70
8
 71
3
 72
8
 73
4
 74
0
 40
0
 40
0
 40
0
 40
0
 40
1
 40
1
 40
1
 40
1
 10
3.341081
 20
0.950995
 30
0.0
 10
3.341081
 20
1.039360
 30
0.0
 10
3.412715
 20
1.110995
 30
0.0
 10
3.501081
 20
1.110995
 30
0.0
  0
SPLINE
  5
2da
100
AcDbEntity
  8
Layer_1
 62
7
100
AcDbSpline
 70
8
 71
3
 72
8
 73
4
 74
0
 40
0
 40
0
 40
0
 40
0
 40
1
 40
1
 40
1
 40
1
 10
3.501081
 20
1.110995
 30
0.0
 10
3.543516
 20
1.110995
 30
0.0
 10
3.584212
 20
1.094138
 30
0.0
 10
3.614218
 20
1.064132
 30
0.0
  0
SPLINE
  5
2db
100
AcDbEntity
  8
Layer_1
 62
7
100
AcDbSpline
 70
8
 71
3
 72
8
 73
4
 74
0
 40
0
 40
0
 40
0
 40
0
 40
1
 40
1
 40
1
 40
1
 10
3.614218
 20
1.064132
 30
0.0
 10
3.644224
 20
1.034126
 30
0.0
 10
3.661081
 20
0.993429
 30
0.0
 10
3.661081
 20
0.950995
 30
0.0
  0
LINE
  5
2dc
100
AcDbEntity
  8
Layer_1
 62
7
100
AcDbLine
 10
3.661081
 20
0.950995
 30
0.0
 11
3.661081
 21
0.950995
 31
0.0
  0
SPLINE
  5
2dd
100
AcDbEntity
  8
Layer_1
 62
7
100
AcDbSpline
 70
8
 71
3
 72
8
 73
4
 74
0
 40
0
 40
0
 40
0
 40
0
 40
1
 40
1
 40
1
 40
1
 10
2.658867
 20
0.950995
 30
0.0
 10
2.658867
 20
0.908560
 30
0.0
 10
2.642010
 20
0.867863
 30
0.0
 10
2.612004
 20
0.837857
 30
0.0
  0
SPLINE
  5
2de
100
AcDbEntity
  8
Layer_1
 62
7
100
AcDbSpline
 70
8
 71
3
 72
8
 73
4
 74
0
 40
0
 40
0
 40
0
 40
0
 40
1
 40
1
 40
1
 40
1
 10
2.612004
 20
0.837857
 30
0.0
 10
2.581998
 20
0.807852
 30
0.0
 10
2.541301
 20
0.790995
 30
0.0
 10
2.498867
 20
0.790995
 30
0.0
  0
SPLINE
  5
2df
100
AcDbEntity
  8
Layer_1
 62
7
100
AcDbSpline
 70
8
 71
3
 72
8
 73
4
 74
0
 40
0
 40
0
 40
0
 40
0
 40
1
 40
1
 40
1
 40
1
 10
2.498867
 20
0.790995
 30
0.0
 10
2.456432
 20
0.790995
 30
0.0
 10
2.415735
 20
0.807852
 30
0.0
 10
2.385730
 20
0.837857
 30
0.0
  0
SPLINE
  5
2e0
100
AcDbEntity
  8
Layer_1
 62
7
100
AcDbSpline
 70
8
 71
3
 72
8
 73
4
 74
0
 40
0
 40
0
 40
0
 40
0
 40
1
 40
1
 40
1
 40
1
 10
2.385730
 20
0.837857
 30
0.0
 10
2.355724
 20
0.867863
 30
0.0
 10
2.338867
 20
0.908560
 30
0.0
 10
2.338867
 20
0.950995
 30
0.0
  0
SPLINE
  5
2e1
100
AcDbEntity
  8
Layer_1
 62
7
100
AcDbSpline
 70
8
 71
3
 72
8
 73
4
 74
0
 40
0
 40
0
 40
0
 40
0
 40
1
 40
1
 40
1
 40
1
 10
2.338867
 20
0.950995
 30
0.0
 10
2.338867
 20
0.993429
 30
0.0
 10
2.355724
 20
1.034126
 30
0.0
 10
2.385730
 20
1.064132
 30
0.0
  0
SPLINE
  5
2e2
100
AcDbEntity
  8
Layer_1
 62
7
100
AcDbSpline
 70
8
 71
3
 72
8
 73
4
 74
0
 40
0
 40
0
 40
0
 40
0
 40
1
 40
1
 40
1
 40
1
 10
2.385730
 20
1.064132
 30
0.0
 10
2.415736
 20
1.094138
 30
0.0
 10
2.456432
 20
1.110995
 30
0.0
 10
2.498867
 20
1.110995
 30
0.0
  0
SPLINE
  5
2e3
100
AcDbEntity
  8
Layer_1
 62
7
100
AcDbSpline
 70
8
 71
3
 72
8
 73
4
 74
0
 40
0
 40
0
 40
0
 40
0
 40
1
 40
1
 40
1
 40
1
 10
2.498867
 20
1.110995
 30
0.0
 10
2.541301
 20
1.110995
 30
0.0
 10
2.581998
 20
1.094138
 30
0.0
 10
2.612004
 20
1.064132
 30
0.0
  0
SPLINE
  5
2e4
100
AcDbEntity
  8
Layer_1
 62
7
100
AcDbSpline
 70
8
 71
3
 72
8
 73
4
 74
0
 40
0
 40
0
 40
0
 40
0
 40
1
 40
1
 40
1
 40
1
 10
2.612004
 20
1.064132
 30
0.0
 10
2.642010
 20
1.034126
 30
0.0
 10
2.658867
 20
0.993429
 30
0.0
 10
2.658867
 20
0.950995
 30
0.0
  0
LINE
  5
2e5
100
AcDbEntity
  8
Layer_1
 62
7
100
AcDbLine
 10
2.658867
 20
0.950995
 30
0.0
 11
2.658867
 21
0.950995
 31
0.0
  0
SPLINE
  5
2e6
100
AcDbEntity
  8
Layer_1
 62
7
100
AcDbSpline
 70
8
 71
3
 72
8
 73
4
 74
0
 40
0
 40
0
 40
0
 40
0
 40
1
 40
1
 40
1
 40
1
 10
1.847583
 20
1.541574
 30
0.0
 10
1.847583
 20
1.499139
 30
0.0
 10
1.830726
 20
1.458443
 30
0.0
 10
1.800720
 20
1.428437
 30
0.0
  0
SPLINE
  5
2e7
100
AcDbEntity
  8
Layer_1
 62
7
100
AcDbSpline
 70
8
 71
3
 72
8
 73
4
 74
0
 40
0
 40
0
 40
0
 40
0
 40
1
 40
1
 40
1
 40
1
 10
1.800720
 20
1.428437
 30
0.0
 10
1.770714
 20
1.398431
 30
0.0
 10
1.730018
 20
1.381574
 30
0.0
 10
1.687583
 20
1.381574
 30
0.0
  0
SPLINE
  5
2e8
100
AcDbEntity
  8
Layer_1
 62
7
100
AcDbSpline
 70
8
 71
3
 72
8
 73
4
 74
0
 40
0
 40
0
 40
0
 40
0
 40
1
 40
1
 40
1
 40
1
 10
1.687583
 20
1.381574
 30
0.0
 10
1.645148
 20
1.381574
 30
0.0
 10
1.604452
 20
1.398431
 30
0.0
 10
1.574446
 20
1.428437
 30
0.0
  0
SPLINE
  5
2e9
100
AcDbEntity
  8
Layer_1
 62
7
100
AcDbSpline
 70
8
 71
3
 72
8
 73
4
 74
0
 40
0
 40
0
 40
0
 40
0
 40
1
 40
1
 40
1
 40
1
 10
1.574446
 20
1.428437
 30
0.0
 10
1.544440
 20
1.458443
 30
0.0
 10
1.527583
 20
1.499139
 30
0.0
 10
1.527583
 20
1.541574
 30
0.0
  0
SPLINE
  5
2ea
100
AcDbEntity
  8
Layer_1
 62
7
100
AcDbSpline
 70
8
 71
3
 72
8
 73
4
 74
0
 40
0
 40
0
 40
0
 40
0
 40
1
 40
1
 40
1
 40
1
 10
1.527583
 20
1.541574
 30
0.0
 10
1.527583
 20
1.584009
 30
0.0
 10
1.544440
 20
1.624705
 30
0.0
 10
1.574446
 20
1.654711
 30
0.0
  0
SPLINE
  5
2eb
100
AcDbEntity
  8
Layer_1
 62
7
100
AcDbSpline
 70
8
 71
3
 72
8
 73
4
 74
0
 40
0
 40
0
 40
0
 40
0
 40
1
 40
1
 40
1
 40
1
 10
1.574446
 20
1.654711
 30
0.0
 10
1.604452
 20
1.684717
 30
0.0
 10
1.645148
 20
1.701574
 30
0.0
 10
1.687583
 20
1.701574
 30
0.0
  0
SPLINE
  5
2ec
100
AcDbEntity
  8
Layer_1
 62
7
100
AcDbSpline
 70
8
 71
3
 72
8
 73
4
 74
0
 40
0
 40
0
 40
0
 40
0
 40
1
 40
1
 40
1
 40
1
 10
1.687583
 20
1.701574
 30
0.0
 10
1.775948
 20
1.701574
 30
0.0
 10
1.847583
 20
1.629940
 30
0.0
 10
1.847583
 20
1.541574
 30
0.0
  0
LINE
  5
2ed
100
AcDbEntity
  8
Layer_1
 62
7
100
AcDbLine
 10
1.847583
 20
1.541574
 30
0.0
 11
1.847583
 21
1.541574
 31
0.0
  0
SPLINE
  5
2ee
100
AcDbEntity
  8
Layer_1
 62
7
100
AcDbSpline
 70
8
 71
3
 72
8
 73
4
 74
0
 40
0
 40
0
 40
0
 40
0
 40
1
 40
1
 40
1
 40
1
 10
1.539004
 20
2.500000
 30
0.0
 10
1.539004
 20
2.457565
 30
0.0
 10
1.522147
 20
2.416869
 30
0.0
 10
1.492141
 20
2.386863
 30
0.0
  0
SPLINE
  5
2ef
100
AcDbEntity
  8
Layer_1
 62
7
100
AcDbSpline
 70
8
 71
3
 72
8
 73
4
 74
0
 40
0
 40
0
 40
0
 40
0
 40
1
 40
1
 40
1
 40
1
 10
1.492141
 20
2.386863
 30
0.0
 10
1.462135
 20
2.356857
 30
0.0
 10
1.421439
 20
2.340000
 30
0.0
 10
1.379004
 20
2.340000
 30
0.0
  0
SPLINE
  5
2f0
100
AcDbEntity
  8
Layer_1
 62
7
100
AcDbSpline
 70
8
 71
3
 72
8
 73
4
 74
0
 40
0
 40
0
 40
0
 40
0
 40
1
 40
1
 40
1
 40
1
 10
1.379004
 20
2.340000
 30
0.0
 10
1.336569
 20
2.340000
 30
0.0
 10
1.295873
 20
2.356857
 30
0.0
 10
1.265867
 20
2.386863
 30
0.0
  0
SPLINE
  5
2f1
100
AcDbEntity
  8
Layer_1
 62
7
100
AcDbSpline
 70
8
 71
3
 72
8
 73
4
 74
0
 40
0
 40
0
 40
0
 40
0
 40
1
 40
1
 40
1
 40
1
 10
1.265867
 20
2.386863
 30
0.0
 10
1.235861
 20
2.416869
 30
0.0
 10
1.219004
 20
2.457565
 30
0.0
 10
1.219004
 20
2.500000
 30
0.0
  0
SPLINE
  5
2f2
100
AcDbEntity
  8
Layer_1
 62
7
100
AcDbSpline
 70
8
 71
3
 72
8
 73
4
 74
0
 40
0
 40
0
 40
0
 40
0
 40
1
 40
1
 40
1
 40
1
 10
1.219004
 20
2.500000
 30
0.0
 10
1.219004
 20
2.588366
 30
0.0
 10
1.290639
 20
2.660000
 30
0.0
 10
1.379004
 20
2.660000
 30
0.0
  0
SPLINE
  5
2f3
100
AcDbEntity
  8
Layer_1
 62
7
100
AcDbSpline
 70
8
 71
3
 72
8
 73
4
 74
0
 40
0
 40
0
 40
0
 40
0
 40
1
 40
1
 40
1
 40
1
 10
1.379004
 20
2.660000
 30
0.0
 10
1.421439
 20
2.660000
 30
0.0
 10
1.462135
 20
2.643143
 30
0.0
 10
1.492141
 20
2.613137
 30
0.0
  0
SPLINE
  5
2f4
100
AcDbEntity
  8
Layer_1
 62
7
100
AcDbSpline
 70
8
 71
3
 72
8
 73
4
 74
0
 40
0
 40
0
 40
0
 40
0
 40
1
 40
1
 40
1
 40
1
 10
1.492141
 20
2.613137
 30
0.0
 10
1.522147
 20
2.583131
 30
0.0
 10
1.539004
 20
2.542435
 30
0.0
 10
1.539004
 20
2.500000
 30
0.0
  0
LINE
  5
2f5
100
AcDbEntity
  8
Layer_1
 62
7
100
AcDbLine
 10
1.539004
 20
2.500000
 30
0.0
 11
1.539004
 21
2.500000
 31
0.0
  0
SPLINE
  5
2f6
100
AcDbEntity
  8
Layer_1
 62
7
100
AcDbSpline
 70
8
 71
3
 72
8
 73
4
 74
0
 40
0
 40
0
 40
0
 40
0
 40
1
 40
1
 40
1
 40
1
 10
1.847583
 20
3.456952
 30
0.0
 10
1.847583
 20
3.414517
 30
0.0
 10
1.830726
 20
3.373821
 30
0.0
 10
1.800720
 20
3.343815
 30
0.0
  0
SPLINE
  5
2f7
100
AcDbEntity
  8
Layer_1
 62
7
100
AcDbSpline
 70
8
 71
3
 72
8
 73
4
 74
0
 40
0
 40
0
 40
0
 40
0
 40
1
 40
1
 40
1
 40
1
 10
1.800720
 20
3.343815
 30
0.0
 10
1.770714
 20
3.313809
 30
0.0
 10
1.730018
 20
3.296952
 30
0.0
 10
1.687583
 20
3.296952
 30
0.0
  0
SPLINE
  5
2f8
100
AcDbEntity
  8
Layer_1
 62
7
100
AcDbSpline
 70
8
 71
3
 72
8
 73
4
 74
0
 40
0
 40
0
 40
0
 40
0
 40
1
 40
1
 40
1
 40
1
 10
1.687583
 20
3.296952
 30
0.0
 10
1.645148
 20
3.296952
 30
0.0
 10
1.604452
 20
3.313809
 30
0.0
 10
1.574446
 20
3.343815
 30
0.0
  0
SPLINE
  5
2f9
100
AcDbEntity
  8
Layer_1
 62
7
100
AcDbSpline
 70
8
 71
3
 72
8
 73
4
 74
0
 40
0
 40
0
 40
0
 40
0
 40
1
 40
1
 40
1
 40
1
 10
1.574446
 20
3.343815
 30
0.0
 10
1.544440
 20
3.373821
 30
0.0
 10
1.527583
 20
3.414517
 30
0.0
 10
1.527583
 20
3.456952
 30
0.0
  0
SPLINE
  5
2fa
100
AcDbEntity
  8
Layer_1
 62
7
100
AcDbSpline
 70
8
 71
3
 72
8
 73
4
 74
0
 40
0
 40
0
 40
0
 40
0
 40
1
 40
1
 40
1
 40
1
 10
1.527583
 20
3.456952
 30
0.0
 10
1.527583
 20
3.499387
 30
0.0
 10
1.544440
 20
3.540083
 30
0.0
 10
1.574446
 20
3.570089
 30
0.0
  0
SPLINE
  5
2fb
100
AcDbEntity
  8
Layer_1
 62
7
100
AcDbSpline
 70
8
 71
3
 72
8
 73
4
 74
0
 40
0
 40
0
 40
0
 40
0
 40
1
 40
1
 40
1
 40
1
 10
1.574446
 20
3.570089
 30
0.0
 10
1.604452
 20
3.600095
 30
0.0
 10
1.645148
 20
3.616952
 30
0.0
 10
1.687583
 20
3.616952
 30
0.0
  0
SPLINE
  5
2fc
100
AcDbEntity
  8
Layer_1
 62
7
100
AcDbSpline
 70
8
 71
3
 72
8
 73
4
 74
0
 40
0
 40
0
 40
0
 40
0
 40
1
 40
1
 40
1
 40
1
 10
1.687583
 20
3.616952
 30
0.0
 10
1.775948
 20
3.616952
 30
0.0
 10
1.847583
 20
3.545317
 30
0.0
 10
1.847583
 20
3.456952
 30
0.0
  0
LINE
  5
2fd
100
AcDbEntity
  8
Layer_1
 62
7
100
AcDbLine
 10
1.847583
 20
3.456952
 30
0.0
 11
1.847583
 21
3.456952
 31
0.0
  0
SPLINE
  5
2fe
100
AcDbEntity
  8
Layer_1
 62
7
100
AcDbSpline
 70
8
 71
3
 72
8
 73
4
 74
0
 40
0
 40
0
 40
0
 40
0
 40
1
 40
1
 40
1
 40
1
 10
3.075542
 20
2.903799
 30
0.0
 10
3.075543
 20
2.884862
 30
0.0
 10
3.068020
 20
2.866702
 30
0.0
 10
3.054630
 20
2.853311
 30
0.0
  0
SPLINE
  5
2ff
100
AcDbEntity
  8
Layer_1
 62
7
100
AcDbSpline
 70
8
 71
3
 72
8
 73
4
 74
0
 40
0
 40
0
 40
0
 40
0
 40
1
 40
1
 40
1
 40
1
 10
3.054630
 20
2.853311
 30
0.0
 10
3.041240
 20
2.839921
 30
0.0
 10
3.023079
 20
2.832399
 30
0.0
 10
3.004142
 20
2.832399
 30
0.0
  0
SPLINE
  5
300
100
AcDbEntity
  8
Layer_1
 62
7
100
AcDbSpline
 70
8
 71
3
 72
8
 73
4
 74
0
 40
0
 40
0
 40
0
 40
0
 40
1
 40
1
 40
1
 40
1
 10
3.004142
 20
2.832399
 30
0.0
 10
2.985206
 20
2.832399
 30
0.0
 10
2.967045
 20
2.839921
 30
0.0
 10
2.953655
 20
2.853311
 30
0.0
  0
SPLINE
  5
301
100
AcDbEntity
  8
Layer_1
 62
7
100
AcDbSpline
 70
8
 71
3
 72
8
 73
4
 74
0
 40
0
 40
0
 40
0
 40
0
 40
1
 40
1
 40
1
 40
1
 10
2.953655
 20
2.853311
 30
0.0
 10
2.940265
 20
2.866702
 30
0.0
 10
2.932742
 20
2.884862
 30
0.0
 10
2.932742
 20
2.903799
 30
0.0
  0
SPLINE
  5
302
100
AcDbEntity
  8
Layer_1
 62
7
100
AcDbSpline
 70
8
 71
3
 72
8
 73
4
 74
0
 40
0
 40
0
 40
0
 40
0
 40
1
 40
1
 40
1
 40
1
 10
2.932742
 20
2.903799
 30
0.0
 10
2.932742
 20
2.922735
 30
0.0
 10
2.940265
 20
2.940896
 30
0.0
 10
2.953655
 20
2.954286
 30
0.0
  0
SPLINE
  5
303
100
AcDbEntity
  8
Layer_1
 62
7
100
AcDbSpline
 70
8
 71
3
 72
8
 73
4
 74
0
 40
0
 40
0
 40
0
 40
0
 40
1
 40
1
 40
1
 40
1
 10
2.953655
 20
2.954286
 30
0.0
 10
2.967045
 20
2.967677
 30
0.0
 10
2.985206
 20
2.975199
 30
0.0
 10
3.004142
 20
2.975199
 30
0.0
  0
SPLINE
  5
304
100
AcDbEntity
  8
Layer_1
 62
7
100
AcDbSpline
 70
8
 71
3
 72
8
 73
4
 74
0
 40
0
 40
0
 40
0
 40
0
 40
1
 40
1
 40
1
 40
1
 10
3.004142
 20
2.975199
 30
0.0
 10
3.023079
 20
2.975199
 30
0.0
 10
3.041240
 20
2.967677
 30
0.0
 10
3.054630
 20
2.954286
 30
0.0
  0
SPLINE
  5
305
100
AcDbEntity
  8
Layer_1
 62
7
100
AcDbSpline
 70
8
 71
3
 72
8
 73
4
 74
0
 40
0
 40
0
 40
0
 40
0
 40
1
 40
1
 40
1
 40
1
 10
3.054630
 20
2.954286
 30
0.0
 10
3.068020
 20
2.940896
 30
0.0
 10
3.075543
 20
2.922735
 30
0.0
 10
3.075542
 20
2.903799
 30
0.0
  0
LINE
  5
306
100
AcDbEntity
  8
Layer_1
 62
7
100
AcDbLine
 10
3.075542
 20
2.903799
 30
0.0
 11
3.075542
 21
2.903799
 31
0.0
  0
SPLINE
  5
307
100
AcDbEntity
  8
Layer_1
 62
7
100
AcDbSpline
 70
8
 71
3
 72
8
 73
4
 74
0
 40
0
 40
0
 40
0
 40
0
 40
1
 40
1
 40
1
 40
1
 10
3.319087
 20
2.151661
 30
0.0
 10
3.319087
 20
2.132724
 30
0.0
 10
3.311564
 20
2.114563
 30
0.0
 10
3.298174
 20
2.101173
 30
0.0
  0
SPLINE
  5
308
100
AcDbEntity
  8
Layer_1
 62
7
100
AcDbSpline
 70
8
 71
3
 72
8
 73
4
 74
0
 40
0
 40
0
 40
0
 40
0
 40
1
 40
1
 40
1
 40
1
 10
3.298174
 20
2.101173
 30
0.0
 10
3.284784
 20
2.087783
 30
0.0
 10
3.266623
 20
2.080261
 30
0.0
 10
3.247687
 20
2.080261
 30
0.0
  0
SPLINE
  5
309
100
AcDbEntity
  8
Layer_1
 62
7
100
AcDbSpline
 70
8
 71
3
 72
8
 73
4
 74
0
 40
0
 40
0
 40
0
 40
0
 40
1
 40
1
 40
1
 40
1
 10
3.247687
 20
2.080261
 30
0.0
 10
3.228750
 20
2.080261
 30
0.0
 10
3.210589
 20
2.087783
 30
0.0
 10
3.197199
 20
2.101173
 30
0.0
  0
SPLINE
  5
30a
100
AcDbEntity
  8
Layer_1
 62
7
100
AcDbSpline
 70
8
 71
3
 72
8
 73
4
 74
0
 40
0
 40
0
 40
0
 40
0
 40
1
 40
1
 40
1
 40
1
 10
3.197199
 20
2.101173
 30
0.0
 10
3.183809
 20
2.114563
 30
0.0
 10
3.176287
 20
2.132724
 30
0.0
 10
3.176287
 20
2.151661
 30
0.0
  0
SPLINE
  5
30b
100
AcDbEntity
  8
Layer_1
 62
7
100
AcDbSpline
 70
8
 71
3
 72
8
 73
4
 74
0
 40
0
 40
0
 40
0
 40
0
 40
1
 40
1
 40
1
 40
1
 10
3.176287
 20
2.151661
 30
0.0
 10
3.176287
 20
2.170597
 30
0.0
 10
3.183809
 20
2.188758
 30
0.0
 10
3.197199
 20
2.202148
 30
0.0
  0
SPLINE
  5
30c
100
AcDbEntity
  8
Layer_1
 62
7
100
AcDbSpline
 70
8
 71
3
 72
8
 73
4
 74
0
 40
0
 40
0
 40
0
 40
0
 40
1
 40
1
 40
1
 40
1
 10
3.197199
 20
2.202148
 30
0.0
 10
3.210589
 20
2.215538
 30
0.0
 10
3.228750
 20
2.223061
 30
0.0
 10
3.247687
 20
2.223061
 30
0.0
  0
SPLINE
  5
30d
100
AcDbEntity
  8
Layer_1
 62
7
100
AcDbSpline
 70
8
 71
3
 72
8
 73
4
 74
0
 40
0
 40
0
 40
0
 40
0
 40
1
 40
1
 40
1
 40
1
 10
3.247687
 20
2.223061
 30
0.0
 10
3.266623
 20
2.223061
 30
0.0
 10
3.284784
 20
2.215538
 30
0.0
 10
3.298174
 20
2.202148
 30
0.0
  0
SPLINE
  5
30e
100
AcDbEntity
  8
Layer_1
 62
7
100
AcDbSpline
 70
8
 71
3
 72
8
 73
4
 74
0
 40
0
 40
0
 40
0
 40
0
 40
1
 40
1
 40
1
 40
1
 10
3.298174
 20
2.202148
 30
0.0
 10
3.311564
 20
2.188758
 30
0.0
 10
3.319087
 20
2.170597
 30
0.0
 10
3.319087
 20
2.151661
 30
0.0
  0
LINE
  5
30f
100
AcDbEntity
  8
Layer_1
 62
7
100
AcDbLine
 10
3.319087
 20
2.151661
 30
0.0
 11
3.319087
 21
2.151661
 31
0.0
  0
SPLINE
  5
310
100
AcDbEntity
  8
Layer_1
 62
7
100
AcDbSpline
 70
8
 71
3
 72
8
 73
4
 74
0
 40
0
 40
0
 40
0
 40
0
 40
1
 40
1
 40
1
 40
1
 10
2.834322
 20
2.151661
 30
0.0
 10
2.834322
 20
2.132724
 30
0.0
 10
2.826799
 20
2.114563
 30
0.0
 10
2.813409
 20
2.101173
 30
0.0
  0
SPLINE
  5
311
100
AcDbEntity
  8
Layer_1
 62
7
100
AcDbSpline
 70
8
 71
3
 72
8
 73
4
 74
0
 40
0
 40
0
 40
0
 40
0
 40
1
 40
1
 40
1
 40
1
 10
2.813409
 20
2.101173
 30
0.0
 10
2.800019
 20
2.087783
 30
0.0
 10
2.781858
 20
2.080261
 30
0.0
 10
2.762922
 20
2.080261
 30
0.0
  0
SPLINE
  5
312
100
AcDbEntity
  8
Layer_1
 62
7
100
AcDbSpline
 70
8
 71
3
 72
8
 73
4
 74
0
 40
0
 40
0
 40
0
 40
0
 40
1
 40
1
 40
1
 40
1
 10
2.762922
 20
2.080261
 30
0.0
 10
2.743985
 20
2.080261
 30
0.0
 10
2.725824
 20
2.087783
 30
0.0
 10
2.712434
 20
2.101173
 30
0.0
  0
SPLINE
  5
313
100
AcDbEntity
  8
Layer_1
 62
7
100
AcDbSpline
 70
8
 71
3
 72
8
 73
4
 74
0
 40
0
 40
0
 40
0
 40
0
 40
1
 40
1
 40
1
 40
1
 10
2.712434
 20
2.101173
 30
0.0
 10
2.699044
 20
2.114563
 30
0.0
 10
2.691522
 20
2.132724
 30
0.0
 10
2.691522
 20
2.151661
 30
0.0
  0
SPLINE
  5
314
100
AcDbEntity
  8
Layer_1
 62
7
100
AcDbSpline
 70
8
 71
3
 72
8
 73
4
 74
0
 40
0
 40
0
 40
0
 40
0
 40
1
 40
1
 40
1
 40
1
 10
2.691522
 20
2.151661
 30
0.0
 10
2.691522
 20
2.170597
 30
0.0
 10
2.699044
 20
2.188758
 30
0.0
 10
2.712434
 20
2.202148
 30
0.0
  0
SPLINE
  5
315
100
AcDbEntity
  8
Layer_1
 62
7
100
AcDbSpline
 70
8
 71
3
 72
8
 73
4
 74
0
 40
0
 40
0
 40
0
 40
0
 40
1
 40
1
 40
1
 40
1
 10
2.712434
 20
2.202148
 30
0.0
 10
2.725824
 20
2.215538
 30
0.0
 10
2.743985
 20
2.223061
 30
0.0
 10
2.762922
 20
2.223061
 30
0.0
  0
SPLINE
  5
316
100
AcDbEntity
  8
Layer_1
 62
7
100
AcDbSpline
 70
8
 71
3
 72
8
 73
4
 74
0
 40
0
 40
0
 40
0
 40
0
 40
1
 40
1
 40
1
 40
1
 10
2.762922
 20
2.223061
 30
0.0
 10
2.781858
 20
2.223061
 30
0.0
 10
2.800019
 20
2.215538
 30
0.0
 10
2.813409
 20
2.202148
 30
0.0
  0
SPLINE
  5
317
100
AcDbEntity
  8
Layer_1
 62
7
100
AcDbSpline
 70
8
 71
3
 72
8
 73
4
 74
0
 40
0
 40
0
 40
0
 40
0
 40
1
 40
1
 40
1
 40
1
 10
2.813409
 20
2.202148
 30
0.0
 10
2.826799
 20
2.188758
 30
0.0
 10
2.834322
 20
2.170597
 30
0.0
 10
2.834322
 20
2.151661
 30
0.0
  0
LINE
  5
318
100
AcDbEntity
  8
Layer_1
 62
7
100
AcDbLine
 10
2.834322
 20
2.151661
 30
0.0
 11
2.834322
 21
2.151661
 31
0.0
  0
SPLINE
  5
319
100
AcDbEntity
  8
Layer_1
 62
7
100
AcDbSpline
 70
8
 71
3
 72
8
 73
4
 74
0
 40
0
 40
0
 40
0
 40
0
 40
1
 40
1
 40
1
 40
1
 10
2.678864
 20
2.616307
 30
0.0
 10
2.678864
 20
2.576874
 30
0.0
 10
2.646897
 20
2.544907
 30
0.0
 10
2.607464
 20
2.544907
 30
0.0
  0
SPLINE
  5
31a
100
AcDbEntity
  8
Layer_1
 62
7
100
AcDbSpline
 70
8
 71
3
 72
8
 73
4
 74
0
 40
0
 40
0
 40
0
 40
0
 40
1
 40
1
 40
1
 40
1
 10
2.607464
 20
2.544907
 30
0.0
 10
2.568031
 20
2.544907
 30
0.0
 10
2.536064
 20
2.576874
 30
0.0
 10
2.536064
 20
2.616307
 30
0.0
  0
SPLINE
  5
31b
100
AcDbEntity
  8
Layer_1
 62
7
100
AcDbSpline
 70
8
 71
3
 72
8
 73
4
 74
0
 40
0
 40
0
 40
0
 40
0
 40
1
 40
1
 40
1
 40
1
 10
2.536064
 20
2.616307
 30
0.0
 10
2.536064
 20
2.655740
 30
0.0
 10
2.568031
 20
2.687707
 30
0.0
 10
2.607464
 20
2.687707
 30
0.0
  0
SPLINE
  5
31c
100
AcDbEntity
  8
Layer_1
 62
7
100
AcDbSpline
 70
8
 71
3
 72
8
 73
4
 74
0
 40
0
 40
0
 40
0
 40
0
 40
1
 40
1
 40
1
 40
1
 10
2.607464
 20
2.687707
 30
0.0
 10
2.646897
 20
2.687707
 30
0.0
 10
2.678864
 20
2.655740
 30
0.0
 10
2.678864
 20
2.616307
 30
0.0
  0
LINE
  5
31d
100
AcDbEntity
  8
Layer_1
 62
7
100
AcDbLine
 10
2.678864
 20
2.616307
 30
0.0
 11
2.678864
 21
2.616307
 31
0.0
  0
SPLINE
  5
31e
100
AcDbEntity
  8
Layer_1
 62
7
100
AcDbSpline
 70
8
 71
3
 72
8
 73
4
 74
0
 40
0
 40
0
 40
0
 40
0
 40
1
 40
1
 40
1
 40
1
 10
3.472472
 20
2.616307
 30
0.0
 10
3.472472
 20
2.576874
 30
0.0
 10
3.440505
 20
2.544907
 30
0.0
 10
3.401072
 20
2.544907
 30
0.0
  0
SPLINE
  5
31f
100
AcDbEntity
  8
Layer_1
 62
7
100
AcDbSpline
 70
8
 71
3
 72
8
 73
4
 74
0
 40
0
 40
0
 40
0
 40
0
 40
1
 40
1
 40
1
 40
1
 10
3.401072
 20
2.544907
 30
0.0
 10
3.361639
 20
2.544907
 30
0.0
 10
3.329672
 20
2.576874
 30
0.0
 10
3.329672
 20
2.616307
 30
0.0
  0
SPLINE
  5
320
100
AcDbEntity
  8
Layer_1
 62
7
100
AcDbSpline
 70
8
 71
3
 72
8
 73
4
 74
0
 40
0
 40
0
 40
0
 40
0
 40
1
 40
1
 40
1
 40
1
 10
3.329672
 20
2.616307
 30
0.0
 10
3.329672
 20
2.655740
 30
0.0
 10
3.361639
 20
2.687707
 30
0.0
 10
3.401072
 20
2.687707
 30
0.0
  0
SPLINE
  5
321
100
AcDbEntity
  8
Layer_1
 62
7
100
AcDbSpline
 70
8
 71
3
 72
8
 73
4
 74
0
 40
0
 40
0
 40
0
 40
0
 40
1
 40
1
 40
1
 40
1
 10
3.401072
 20
2.687707
 30
0.0
 10
3.440505
 20
2.687707
 30
0.0
 10
3.472472
 20
2.655740
 30
0.0
 10
3.472472
 20
2.616307
 30
0.0
  0
LINE
  5
322
100
AcDbEntity
  8
Layer_1
 62
7
100
AcDbLine
 10
3.472472
 20
2.616307
 30
0.0
 11
3.472472
 21
2.616307
 31
0.0
  0
ENDSEC
  0
SECTION
  2
OBJECTS
  0
DICTIONARY
  5
C
330
0
100
AcDbDictionary
  3
ACAD_GROUP
350
D
  3
ACAD_MLINESTYLE
350
17
  0
DICTIONARY
  5
D
330
C
100
AcDbDictionary
  0
DICTIONARY
  5
1A
330
C
100
AcDbDictionary
  0
DICTIONARY
  5
17
330
C
100
AcDbDictionary
  3
STANDARD
350
18
  0
DICTIONARY
  5
19
330
C
100
AcDbDictionary
  0
ENDSEC
  0
EOF
