<?xml version="1.0" encoding="UTF-8" standalone="no"?>
<!-- Created with Inkscape (http://www.inkscape.org/) -->

<svg
   xmlns:dc="http://purl.org/dc/elements/1.1/"
   xmlns:cc="http://creativecommons.org/ns#"
   xmlns:rdf="http://www.w3.org/1999/02/22-rdf-syntax-ns#"
   xmlns:svg="http://www.w3.org/2000/svg"
   xmlns="http://www.w3.org/2000/svg"
   xmlns:sodipodi="http://sodipodi.sourceforge.net/DTD/sodipodi-0.dtd"
   xmlns:inkscape="http://www.inkscape.org/namespaces/inkscape"
   width="152.39999mm"
   height="127mm"
   viewBox="0 0 152.40001 127"
   version="1.1"
   id="svg4522"
   sodipodi:docname="peg_board.svg"
   inkscape:version="0.92.1 r15371">
  <defs
     id="defs4516" />
  <sodipodi:namedview
     id="base"
     pagecolor="#ffffff"
     bordercolor="#666666"
     borderopacity="1.0"
     inkscape:pageopacity="0.0"
     inkscape:pageshadow="2"
     inkscape:zoom="2.8"
     inkscape:cx="199.27009"
     inkscape:cy="246.89655"
     inkscape:document-units="mm"
     inkscape:current-layer="layer1-1"
     showgrid="false"
     fit-margin-top="0"
     fit-margin-left="0"
     fit-margin-right="0"
     fit-margin-bottom="0"
     units="mm"
     inkscape:window-width="1920"
     inkscape:window-height="986"
     inkscape:window-x="-11"
     inkscape:window-y="-11"
     inkscape:window-maximized="1" />
  <metadata
     id="metadata4519">
    <rdf:RDF>
      <cc:Work
         rdf:about="">
        <dc:format>image/svg+xml</dc:format>
        <dc:type
           rdf:resource="http://purl.org/dc/dcmitype/StillImage" />
        <dc:title />
      </cc:Work>
    </rdf:RDF>
  </metadata>
  <g
     inkscape:label="Layer 1"
     inkscape:groupmode="layer"
     id="layer1"
     transform="translate(431.77515,191.89828)">
    <g
       id="g5140"
       transform="matrix(0.26458333,0,0,0.26458333,-425.55149,-184.08809)">
      <g
         transform="translate(3.0393586,-555.95597)"
         id="layer1-1"
         inkscape:label="Cut">
        <path
           id="rect2985"
           d="M 21.440641,580.43597 H 501.43567 V 952.43835 H 21.440641 Z"
           style="fill:none;stroke:#000000;stroke-width:0.95999998;stroke-linecap:round;stroke-miterlimit:4;stroke-dasharray:none;stroke-opacity:1"
           inkscape:connector-curvature="0" />
        <path
           id="path2987"
           d="M 234.95552,617.62402 A 21.599999,21.600008 0 0 1 213.35551,639.22403 21.599999,21.600008 0 0 1 191.75551,617.62402 21.599999,21.600008 0 0 1 213.35551,596.02402 21.599999,21.600008 0 0 1 234.95552,617.62402 Z"
           style="fill:none;stroke:#000000;stroke-width:0.86426878;stroke-linecap:round;stroke-miterlimit:4;stroke-dasharray:none;stroke-opacity:1"
           inkscape:connector-curvature="0" />
        <path
           id="path3763"
           d="M 314.15744,436.17337 243.49837,413.21485 199.82865,353.10865 V 278.8133 L 243.49836,218.70709 314.15744,195.74857 384.81651,218.70709 428.48623,278.81329 V 353.10864 L 384.81652,413.21484 Z"
           style="fill:none;stroke:#ff0000;stroke-width:0.69155157;stroke-linecap:round;stroke-miterlimit:4;stroke-dasharray:none;stroke-opacity:1"
           transform="matrix(0,-1.3015094,1.2951568,0,-147.78084,1175.316)"
           inkscape:connector-curvature="0" />
        <path
           id="path2987-8"
           d="M 331.14193,617.62402 A 21.600003,21.600003 0 0 1 309.54193,639.22403 21.600003,21.600003 0 0 1 287.94193,617.62402 21.600003,21.600003 0 0 1 309.54193,596.02402 21.600003,21.600003 0 0 1 331.14193,617.62402 Z"
           style="fill:none;stroke:#000000;stroke-width:0.86426878;stroke-linecap:round;stroke-miterlimit:4;stroke-dasharray:none;stroke-opacity:1"
           inkscape:connector-curvature="0" />
        <path
           id="path2987-8-2"
           d="M 408.97018,674.56976 A 21.600003,21.600003 0 0 1 387.37018,696.16977 21.600003,21.600003 0 0 1 365.77018,674.56976 21.600003,21.600003 0 0 1 387.37018,652.96976 21.600003,21.600003 0 0 1 408.97018,674.56976 Z"
           style="fill:none;stroke:#000000;stroke-width:0.86426878;stroke-linecap:round;stroke-miterlimit:4;stroke-dasharray:none;stroke-opacity:1"
           inkscape:connector-curvature="0" />
        <path
           id="path2987-8-3"
           d="M 438.64538,766.43713 A 21.600003,21.600003 0 0 1 417.04538,788.03714 21.600003,21.600003 0 0 1 395.44538,766.43713 21.600003,21.600003 0 0 1 417.04538,744.83713 21.600003,21.600003 0 0 1 438.64538,766.43713 Z"
           style="fill:none;stroke:#000000;stroke-width:0.86426878;stroke-linecap:round;stroke-miterlimit:4;stroke-dasharray:none;stroke-opacity:1"
           inkscape:connector-curvature="0" />
        <path
           id="path2987-8-4"
           d="M 408.97018,858.44604 A 21.600003,21.600003 0 0 1 387.37018,880.04605 21.600003,21.600003 0 0 1 365.77018,858.44604 21.600003,21.600003 0 0 1 387.37018,836.84604 21.600003,21.600003 0 0 1 408.97018,858.44604 Z"
           style="fill:none;stroke:#000000;stroke-width:0.86426878;stroke-linecap:round;stroke-miterlimit:4;stroke-dasharray:none;stroke-opacity:1"
           inkscape:connector-curvature="0" />
        <path
           id="path2987-8-34"
           d="M 331.14193,915.14166 A 21.600003,21.599998 0 0 1 309.54193,936.74166 21.600003,21.599998 0 0 1 287.94193,915.14166 21.600003,21.599998 0 0 1 309.54193,893.54166 21.600003,21.599998 0 0 1 331.14193,915.14166 Z"
           style="fill:none;stroke:#000000;stroke-width:0.86426866;stroke-linecap:round;stroke-miterlimit:4;stroke-dasharray:none;stroke-opacity:1"
           inkscape:connector-curvature="0" />
        <path
           id="path2987-8-22"
           d="M 234.92936,915.14166 A 21.600003,21.599998 0 0 1 213.32936,936.74166 21.600003,21.599998 0 0 1 191.72936,915.14166 21.600003,21.599998 0 0 1 213.32936,893.54166 21.600003,21.599998 0 0 1 234.92936,915.14166 Z"
           style="fill:none;stroke:#000000;stroke-width:0.86426866;stroke-linecap:round;stroke-miterlimit:4;stroke-dasharray:none;stroke-opacity:1"
           inkscape:connector-curvature="0" />
        <path
           id="path2987-8-1"
           d="M 157.04611,858.44604 A 21.599998,21.600003 0 0 1 135.44611,880.04605 21.599998,21.600003 0 0 1 113.8461,858.44604 21.599998,21.600003 0 0 1 135.44611,836.84604 21.599998,21.600003 0 0 1 157.04611,858.44604 Z"
           style="fill:none;stroke:#000000;stroke-width:0.86426866;stroke-linecap:round;stroke-miterlimit:4;stroke-dasharray:none;stroke-opacity:1"
           inkscape:connector-curvature="0" />
        <path
           id="path2987-8-9"
           d="M 127.42254,766.43713 A 21.600002,21.600003 0 0 1 105.82254,788.03714 21.600002,21.600003 0 0 1 84.222539,766.43713 21.600002,21.600003 0 0 1 105.82254,744.83713 21.600002,21.600003 0 0 1 127.42254,766.43713 Z"
           style="fill:none;stroke:#000000;stroke-width:0.86426878;stroke-linecap:round;stroke-miterlimit:4;stroke-dasharray:none;stroke-opacity:1"
           inkscape:connector-curvature="0" />
        <path
           id="path2987-8-20"
           d="M 157.04611,674.56976 A 21.599998,21.600003 0 0 1 135.44611,696.16977 21.599998,21.600003 0 0 1 113.8461,674.56976 21.599998,21.600003 0 0 1 135.44611,652.96976 21.599998,21.600003 0 0 1 157.04611,674.56976 Z"
           style="fill:none;stroke:#000000;stroke-width:0.86426866;stroke-linecap:round;stroke-miterlimit:4;stroke-dasharray:none;stroke-opacity:1"
           inkscape:connector-curvature="0" />
        <path
           id="path3850"
           d="M 261.83154,735.34401 292.44527,757.58619 280.75187,793.57479 H 242.91121 L 231.21781,757.58619 Z"
           inkscape:transform-center-y="-0.4173741"
           style="fill:none;stroke:#ff0000;stroke-width:0.69323742;stroke-linecap:round;stroke-miterlimit:4;stroke-dasharray:none;stroke-opacity:1"
           inkscape:connector-curvature="0" />
        <path
           id="path3854"
           d="M 286.17721,667.8919 A 101.60311,101.60311 0 0 1 359.98343,791.17622 101.60311,101.60311 0 0 1 236.69911,864.98243 101.60311,101.60311 0 0 1 162.89289,741.69812 101.60311,101.60311 0 0 1 286.17721,667.8919 Z"
           style="fill:none;stroke:#ff0000;stroke-width:0.76465744;stroke-opacity:1"
           inkscape:connector-curvature="0" />
        <g
           aria-label="0123456789"
           transform="rotate(-1.0663121,262.07672,765.87004)"
           style="font-style:normal;font-weight:normal;font-size:29.33333397px;line-height:0%;font-family:sans-serif;letter-spacing:58.77333069px;word-spacing:0px;fill:none;stroke:#00ff00;stroke-width:0.95999998;stroke-miterlimit:4;stroke-dasharray:none;stroke-opacity:1"
           id="text3856">
          <path
             d="m 291.81789,665.4891 q 0.77427,1.18825 2.17012,1.66573 1.68045,0.57483 3.28097,-0.20979 1.60051,-0.78463 2.17534,-2.46508 l 2.31787,-6.77598 q 0.0881,-0.25749 0.14442,-0.5107 z m -0.64917,-3.27988 10.08872,-8.29582 q -0.77427,-1.18826 -2.17012,-1.66574 -1.68045,-0.57483 -3.28097,0.2098 -1.60051,0.78463 -2.17534,2.46508 l -2.31787,6.77598 q -0.0881,0.25749 -0.14442,0.5107 z m 13.55981,-7.33553 q 0.39769,1.8466 -0.25595,3.75743 l -2.31786,6.77599 q -0.9596,2.80526 -3.63319,4.11594 -2.6554,1.30177 -5.46066,0.34218 -2.18187,-0.74635 -3.46329,-2.53195 -0.40155,0.37733 -0.85624,0.60023 -0.54563,0.26749 -1.10126,0.0774 -0.55563,-0.19007 -0.82776,-0.72215 -0.25393,-0.54099 -0.0639,-1.09662 0.19007,-0.55563 1.00566,-1.16977 l 0.5927,-0.49359 q -0.3977,-1.8466 0.25594,-3.75743 l 2.31786,-6.77599 q 0.9596,-2.80526 3.615,-4.10703 2.67359,-1.31069 5.47885,-0.35109 2.18187,0.74635 3.46329,2.53194 0.40155,-0.37732 0.87443,-0.60914 0.52744,-0.25857 1.08307,-0.0685 0.55563,0.19007 0.80957,0.73106 0.27212,0.53208 0.0821,1.08771 -0.19007,0.55563 -1.00566,1.16977 z"
             style="letter-spacing:48.29000092px"
             id="path188" />
          <path
             d="m 346.29355,705.43171 13.04246,-8.8386 -2.41053,-3.55704 q -0.32944,-0.48613 -0.22664,-1.07485 0.12268,-0.5849 0.60881,-0.91434 0.48613,-0.32943 1.06299,-0.21861 0.59676,0.11466 0.9262,0.60078 l 3.21403,4.74271 q 0.32944,0.48613 0.20676,1.07103 -0.1028,0.58872 -0.58892,0.91816 l -14.22814,9.64212 2.41053,3.55703 q 0.32944,0.48613 0.20676,1.07103 -0.1028,0.58872 -0.58892,0.91816 -0.48613,0.32944 -1.08289,0.21479 -0.57686,-0.11083 -0.9063,-0.59696 l -6.42808,-9.48542 q -0.32944,-0.48613 -0.22665,-1.07485 0.12269,-0.5849 0.60882,-0.91434 0.48613,-0.32944 1.06299,-0.21861 0.59676,0.11465 0.9262,0.60078 z"
             style="font-style:normal;font-variant:normal;font-weight:normal;font-stretch:normal;font-size:29.33333397px;font-family:Instruction;-inkscape-font-specification:Instruction;letter-spacing:46.77999878px;fill:none;stroke:#00ff00;stroke-width:0.95999998;stroke-miterlimit:4;stroke-dasharray:none;stroke-opacity:1"
             id="path190" />
          <path
             d="m 369.38516,761.46999 q 2.51933,0.087 4.23305,1.92321 1.72754,1.85106 1.64059,4.37039 l -0.0741,2.14716 q -0.046,1.33124 0.8662,2.3086 0.91214,0.97736 2.24337,1.02331 1.33124,0.0459 2.3086,-0.86619 0.97736,-0.91215 1.02331,-2.24338 l 0.0741,-2.14716 q 0.046,-1.33124 -0.86619,-2.3086 -0.91214,-0.97736 -2.24338,-1.02331 -0.58689,-0.0203 -1.0015,-0.46451 -0.40079,-0.42945 -0.38053,-1.01634 0.0203,-0.58689 0.4502,-1.00199 0.44376,-0.40029 1.03065,-0.38004 2.51933,0.087 4.23305,1.92321 1.72754,1.85106 1.64058,4.37039 l -0.0741,2.14716 q -0.087,2.51933 -1.93752,4.23256 -1.83675,1.72803 -4.35608,1.64108 -2.51933,-0.087 -4.24687,-1.93802 -1.71372,-1.83625 -1.62677,-4.35558 l 0.0741,-2.14716 q 0.046,-1.33124 -0.8662,-2.3086 -0.91214,-0.97736 -2.24337,-1.02331 l -3.22074,-0.11117 -0.34586,10.02008 q -0.0202,0.58689 -0.46401,0.98718 -0.42994,0.41511 -1.01683,0.39485 -0.58689,-0.0203 -1.0015,-0.46451 -0.40079,-0.42945 -0.38054,-1.01634 l 0.39527,-11.45151 q 0.0202,-0.58689 0.45019,-1.00199 0.44376,-0.4003 1.03065,-0.38004 z"
             style="font-style:normal;font-variant:normal;font-weight:normal;font-stretch:normal;font-size:29.33333397px;font-family:Instruction;-inkscape-font-specification:Instruction;letter-spacing:46.77999878px;fill:none;stroke:#00ff00;stroke-width:0.95999998;stroke-miterlimit:4;stroke-dasharray:none;stroke-opacity:1"
             id="path192" />
          <path
             d="m 351.6206,825.97327 q 0.46263,0.36171 0.53401,0.94477 0.0738,0.60317 -0.28787,1.06579 -0.36171,0.46262 -0.95605,0.52518 -0.59188,0.0827 -1.05451,-0.27905 -1.04936,-0.82045 -2.37633,-0.658 -1.32696,0.16245 -2.14742,1.21181 l -1.32331,1.69252 q -0.82046,1.04936 -0.65801,2.37633 0.16245,1.32696 1.21181,2.14742 1.04936,0.82045 2.37633,0.658 1.32697,-0.16245 2.14742,-1.21181 l 1.54387,-1.9746 q 0.36171,-0.46262 0.95359,-0.54529 0.59435,-0.0625 1.05697,0.29915 0.46262,0.36171 0.534,0.94477 0.0738,0.60317 -0.28787,1.06579 l -1.54387,1.9746 q -0.82045,1.04937 -0.658,2.37633 0.16245,1.32697 1.21181,2.14743 1.04936,0.82045 2.37633,0.658 1.32696,-0.16245 2.14742,-1.21181 l 1.32332,-1.69252 q 0.82045,-1.04936 0.658,-2.37633 -0.16245,-1.32696 -1.21181,-2.14742 -0.46262,-0.36171 -0.53646,-0.96487 -0.0714,-0.58306 0.29033,-1.04569 0.3617,-0.46262 0.95359,-0.54528 0.59434,-0.0626 1.05696,0.29915 1.98589,1.55269 2.2911,4.04578 0.30767,2.51319 -1.24502,4.49908 l -1.32332,1.69252 q -1.55269,1.98589 -4.05706,2.28228 -2.50191,0.31649 -4.4878,-1.2362 -1.98589,-1.55269 -2.2911,-4.04578 -0.032,-0.26138 -0.0439,-0.52521 -0.25891,0.0521 -0.509,0.0929 -2.50437,0.29639 -4.49026,-1.2563 -1.98589,-1.55269 -2.29356,-4.06589 -0.30521,-2.49309 1.24748,-4.47897 l 1.32332,-1.69252 q 1.55269,-1.98589 4.0546,-2.30238 2.50438,-0.29639 4.49026,1.2563 z"
             style="font-style:normal;font-variant:normal;font-weight:normal;font-stretch:normal;font-size:29.33333397px;font-family:Instruction;-inkscape-font-specification:Instruction;letter-spacing:46.77999878px;fill:none;stroke:#00ff00;stroke-width:0.95999998;stroke-miterlimit:4;stroke-dasharray:none;stroke-opacity:1"
             id="path194" />
          <path
             d="m 292.11472,884.21556 -3.15638,-11.01502 -1.37687,0.39455 q -0.56452,0.16177 -1.08218,-0.13688 -0.52748,-0.28093 -0.68925,-0.84545 -0.16176,-0.56452 0.13294,-1.09595 0.28487,-0.51371 0.84939,-0.67547 l 1.37688,-0.39455 -1.18364,-4.13063 q -0.16177,-0.56452 0.13293,-1.09595 0.28488,-0.51371 0.8494,-0.67548 0.56452,-0.16176 1.092,0.11917 0.51766,0.29864 0.67942,0.86316 l 1.18364,4.13063 6.88439,-1.97273 q 0.56452,-0.16177 1.092,0.11916 0.51766,0.29865 0.67943,0.86317 0.16176,0.56452 -0.13294,1.09594 l -0.0784,0.35026 -4.29229,13.46234 q -0.1314,0.52933 -0.30033,0.87573 -0.0196,0.0354 -0.0393,0.0709 -0.28488,0.51371 -0.8494,0.67547 -0.56452,0.16177 -1.092,-0.11916 -0.51766,-0.29865 -0.67943,-0.86317 z m 3.90701,-13.03905 -4.30963,1.23494 1.85437,6.47132 z"
             style="font-style:normal;font-variant:normal;font-weight:normal;font-stretch:normal;font-size:29.33333397px;font-family:Instruction;-inkscape-font-specification:Instruction;letter-spacing:46.77999878px;fill:none;stroke:#00ff00;stroke-width:0.95999998;stroke-miterlimit:4;stroke-dasharray:none;stroke-opacity:1"
             id="path196" />
          <path
             d="m 225.46434,881.29791 1.47434,-4.03602 -5.04503,-1.84293 q -2.3678,-0.86494 -3.42171,-3.15601 -1.07228,-2.28253 -0.20733,-4.65033 l 0.73717,-2.01801 q 0.86494,-2.3678 3.16092,-3.43517 2.27762,-1.05882 4.64542,-0.19388 l 2.01801,0.73717 q 2.3678,0.86495 3.44008,3.14748 1.05391,2.29107 0.18896,4.65887 -0.20149,0.55159 -0.73416,0.79922 -0.55103,0.25616 -1.10262,0.0547 -0.55159,-0.20149 -0.79431,-0.74761 -0.26108,-0.53759 -0.0596,-1.08918 0.45705,-1.25116 -0.10652,-2.46344 -0.56357,-1.21228 -1.81474,-1.66933 l -2.01801,-0.73717 q -1.25116,-0.45704 -2.46344,0.10653 -1.21228,0.56357 -1.66933,1.81473 l -0.74208,2.03147 q -0.45213,1.23771 0.11144,2.44999 0.56357,1.21228 1.81473,1.66932 l 6.39037,2.33438 q 0.55159,0.20149 0.81267,0.73907 0.24272,0.54612 0.0412,1.09771 l -2.45723,6.7267 q -0.20149,0.55159 -0.73416,0.79922 -0.55104,0.25617 -1.10263,0.0547 l -10.76272,-3.93157 q -0.55159,-0.20149 -0.7943,-0.74761 -0.26108,-0.53759 -0.0596,-1.08918 0.20149,-0.55158 0.75253,-0.80775 0.53267,-0.24763 1.08426,-0.0461 z"
             style="font-style:normal;font-variant:normal;font-weight:normal;font-stretch:normal;font-size:29.33333397px;font-family:Instruction;-inkscape-font-specification:Instruction;letter-spacing:46.77999878px;fill:none;stroke:#00ff00;stroke-width:0.95999998;stroke-miterlimit:4;stroke-dasharray:none;stroke-opacity:1"
             id="path198" />
          <path
             d="m 167.09344,830.03549 q -1.40191,-2.09505 -0.90166,-4.56679 0.48038,-2.47567 2.57543,-3.87759 2.09505,-1.40191 4.57869,-0.90963 2.46377,0.48834 3.86568,2.58339 l 1.19482,1.78556 q 1.40191,2.09505 0.92153,4.57072 -0.50025,2.47174 -2.5953,3.87365 l -7.7374,5.17753 q -2.09505,1.40192 -4.55882,0.91357 -2.48364,-0.49228 -3.88555,-2.58733 l -1.19482,-1.78556 q -1.40191,-2.09505 -0.90167,-4.56678 0.48038,-2.47568 2.57543,-3.87759 0.48806,-0.32658 1.08413,-0.20844 0.5762,0.11421 0.90279,0.60226 0.32658,0.48806 0.22033,1.07616 -0.12611,0.58417 -0.61416,0.91076 -1.10704,0.74078 -1.36697,2.05214 -0.25992,1.31137 0.48086,2.41841 l 1.19481,1.78555 q 0.74079,1.10705 2.05215,1.36697 1.31136,0.25993 2.41841,-0.48086 l 3.42826,-2.29404 q -1.53851,-0.67664 -2.54215,-2.17651 z m 3.57555,0.19247 q 0.74079,1.10704 2.05215,1.36696 1.31136,0.25993 2.41841,-0.48085 1.10704,-0.74079 1.36697,-2.05215 0.25992,-1.31136 -0.48086,-2.41841 l -1.19482,-1.78555 q -0.74078,-1.10704 -2.05214,-1.36697 -1.31137,-0.25993 -2.41841,0.48086 -1.10704,0.74078 -1.36697,2.05215 -0.25992,1.31136 0.48086,2.4184 z"
             style="font-style:normal;font-variant:normal;font-weight:normal;font-stretch:normal;font-size:29.33333397px;font-family:Instruction;-inkscape-font-specification:Instruction;letter-spacing:46.77999878px;fill:none;stroke:#00ff00;stroke-width:0.95999998;stroke-miterlimit:4;stroke-dasharray:none;stroke-opacity:1"
             id="path200" />
          <path
             d="m 147.63713,764.21037 -6.27969,-4.22471 -0.35776,8.84433 q -0.0237,0.58676 -0.45612,0.99931 -0.44613,0.39766 -1.03289,0.37392 -0.58676,-0.0237 -0.98499,-0.45554 -0.41197,-0.44671 -0.38824,-1.03347 l 0.46311,-11.44897 q 0.0237,-0.58676 0.46986,-0.98441 0.43239,-0.41255 1.01915,-0.38882 0.58676,0.0237 1.40797,0.63034 l 6.27969,4.22471 0.0677,-1.67442 q 0.0237,-0.58676 0.46986,-0.98441 0.43239,-0.41255 1.01915,-0.38882 0.58676,0.0237 0.99873,0.47044 0.39824,0.43181 0.37451,1.01857 l -0.13952,3.449 7.67493,5.1699 q 0.57518,0.30995 0.98715,0.75666 0.39824,0.43181 0.3745,1.01857 -0.0237,0.58676 -0.45613,0.99931 -0.44612,0.39766 -1.03288,0.37392 -0.58676,-0.0237 -1.40797,-0.63033 l -6.27969,-4.22471 -0.0677,1.67441 q -0.0237,0.58676 -0.45613,0.99931 -0.44612,0.39766 -1.03288,0.37392 -0.58676,-0.0237 -0.985,-0.45555 -0.41197,-0.4467 -0.38823,-1.03346 z"
             style="font-style:normal;font-variant:normal;font-weight:normal;font-stretch:normal;font-size:29.33333397px;font-family:Instruction;-inkscape-font-specification:Instruction;letter-spacing:46.77999878px;fill:none;stroke:#00ff00;stroke-width:0.95999998;stroke-miterlimit:4;stroke-dasharray:none;stroke-opacity:1"
             id="path202" />
          <path
             d="m 172.85917,699.59723 q -0.82667,1.04448 -0.67208,2.37239 0.15458,1.32791 1.19906,2.15457 1.04448,0.82666 2.37239,0.67208 1.3279,-0.15459 2.15456,-1.19907 l 1.33333,-1.68464 q 0.82666,-1.04448 0.67208,-2.37239 -0.15459,-1.32791 -1.19907,-2.15457 -1.04448,-0.82666 -2.37238,-0.67208 -1.32791,0.15459 -2.15457,1.19907 z m 2.64576,-5.65081 q 0.25922,-0.0506 0.50954,-0.0899 2.50609,-0.28153 4.48274,1.2829 1.97665,1.56443 2.26942,4.07941 0.29042,2.49485 -1.27401,4.4715 l -1.33332,1.68465 q -1.56444,1.97665 -4.06818,2.27831 -2.50609,0.28153 -4.48274,-1.2829 -1.97665,-1.56443 -2.26942,-4.07941 -0.0281,-0.24143 -0.0384,-0.50533 -0.25922,0.0506 -0.51188,0.0698 -2.50375,0.30166 -4.4804,-1.26278 -1.97665,-1.56443 -2.26708,-4.05928 -0.29276,-2.51498 1.27167,-4.49163 l 1.33332,-1.68464 q 1.56444,-1.97666 4.07052,-2.25819 2.50375,-0.30166 4.4804,1.26277 1.97665,1.56444 2.26707,4.05929 0.0305,0.26156 0.0408,0.52546 z m -4.08562,-2.33855 q -1.04448,-0.82666 -2.37239,-0.67208 -1.3279,0.15458 -2.15456,1.19906 l -1.33333,1.68465 q -0.82666,1.04448 -0.67208,2.37238 0.15459,1.32791 1.19907,2.15457 1.04448,0.82666 2.37238,0.67208 1.32791,-0.15458 2.15457,-1.19906 l 1.33332,-1.68465 q 0.82667,-1.04448 0.67208,-2.37239 -0.15458,-1.3279 -1.19906,-2.15456 z"
             style="font-style:normal;font-variant:normal;font-weight:normal;font-stretch:normal;font-size:29.33333397px;font-family:Instruction;-inkscape-font-specification:Instruction;letter-spacing:46.77999878px;fill:none;stroke:#00ff00;stroke-width:0.95999998;stroke-miterlimit:4;stroke-dasharray:none;stroke-opacity:1"
             id="path204" />
          <path
             d="m 229.18274,660.27227 q -2.42736,0.68009 -4.63049,-0.54709 -2.1932,-1.24482 -2.87329,-3.67219 -0.68008,-2.42736 0.55096,-4.6167 1.24096,-2.20699 3.66832,-2.88707 l 2.06878,-0.57962 q 2.42736,-0.68008 4.62056,0.56475 2.20313,1.22717 2.88321,3.65453 l 2.51168,8.96469 q 0.68008,2.42736 -0.56088,4.63436 -1.23104,2.18933 -3.6584,2.86942 l -2.06878,0.57961 q -2.42736,0.68009 -4.63049,-0.54709 -2.1932,-1.24482 -2.87328,-3.67219 -0.15843,-0.56546 0.12947,-1.07748 0.29783,-0.52968 0.8633,-0.68811 0.56546,-0.15843 1.08135,0.14327 0.52581,0.28404 0.68424,0.8495 0.35937,1.28264 1.52466,1.93787 1.16529,0.65523 2.44793,0.29587 l 2.06878,-0.57962 q 1.28264,-0.35936 1.93786,-1.52465 0.65523,-1.1653 0.29587,-2.44794 l -1.11286,-3.97204 q -1.12196,1.25143 -2.85973,1.73831 z m 1.29595,-3.33798 q 1.28264,-0.35936 1.93787,-1.52465 0.65523,-1.1653 0.29587,-2.44794 -0.35936,-1.28264 -1.52466,-1.93787 -1.16529,-0.65523 -2.44793,-0.29586 l -2.06877,0.57961 q -1.28264,0.35937 -1.93787,1.52466 -0.65523,1.16529 -0.29587,2.44793 0.35936,1.28264 1.52465,1.93787 1.1653,0.65523 2.44794,0.29587 z"
             style="font-style:normal;font-variant:normal;font-weight:normal;font-stretch:normal;font-size:29.33333397px;font-family:Instruction;-inkscape-font-specification:Instruction;letter-spacing:46.77999878px;fill:none;stroke:#00ff00;stroke-width:0.95999998;stroke-miterlimit:4;stroke-dasharray:none;stroke-opacity:1"
             id="path206" />
        </g>
        <path
           id="path2989-3"
           d="M 228.71552,617.62402 A 15.360001,15.360001 0 0 1 213.35551,632.98403 15.360001,15.360001 0 0 1 197.99551,617.62402 15.360001,15.360001 0 0 1 213.35551,602.26402 15.360001,15.360001 0 0 1 228.71552,617.62402 Z"
           style="fill:none;stroke:#000000;stroke-width:1.22782314;stroke-linecap:round;stroke-miterlimit:4;stroke-dasharray:none;stroke-opacity:1"
           inkscape:connector-curvature="0" />
        <path
           id="path2989-5"
           d="M 324.90194,617.62402 A 15.360001,15.360001 0 0 1 309.54193,632.98403 15.360001,15.360001 0 0 1 294.18193,617.62402 15.360001,15.360001 0 0 1 309.54193,602.26402 15.360001,15.360001 0 0 1 324.90194,617.62402 Z"
           style="fill:none;stroke:#000000;stroke-width:1.22782314;stroke-linecap:round;stroke-miterlimit:4;stroke-dasharray:none;stroke-opacity:1"
           inkscape:connector-curvature="0" />
        <path
           id="path2989-14"
           d="M 402.73018,674.56976 A 15.360001,15.360001 0 0 1 387.37018,689.92977 15.360001,15.360001 0 0 1 372.01017,674.56976 15.360001,15.360001 0 0 1 387.37018,659.20976 15.360001,15.360001 0 0 1 402.73018,674.56976 Z"
           style="fill:none;stroke:#000000;stroke-width:1.22782314;stroke-linecap:round;stroke-miterlimit:4;stroke-dasharray:none;stroke-opacity:1"
           inkscape:connector-curvature="0" />
        <path
           id="path2989-6"
           d="M 432.40538,766.43713 A 15.359995,15.360001 0 0 1 417.04538,781.79714 15.359995,15.360001 0 0 1 401.68538,766.43713 15.359995,15.360001 0 0 1 417.04538,751.07713 15.359995,15.360001 0 0 1 432.40538,766.43713 Z"
           style="fill:none;stroke:#000000;stroke-width:1.2278229;stroke-linecap:round;stroke-miterlimit:4;stroke-dasharray:none;stroke-opacity:1"
           inkscape:connector-curvature="0" />
        <path
           id="path2989-39"
           d="M 402.73018,858.44604 A 15.360001,15.360001 0 0 1 387.37018,873.80605 15.360001,15.360001 0 0 1 372.01017,858.44604 15.360001,15.360001 0 0 1 387.37018,843.08604 15.360001,15.360001 0 0 1 402.73018,858.44604 Z"
           style="fill:none;stroke:#000000;stroke-width:1.22782314;stroke-linecap:round;stroke-miterlimit:4;stroke-dasharray:none;stroke-opacity:1"
           inkscape:connector-curvature="0" />
        <path
           id="path2989-4"
           d="M 324.90194,915.14166 A 15.360001,15.360001 0 0 1 309.54193,930.50167 15.360001,15.360001 0 0 1 294.18193,915.14166 15.360001,15.360001 0 0 1 309.54193,899.78166 15.360001,15.360001 0 0 1 324.90194,915.14166 Z"
           style="fill:none;stroke:#000000;stroke-width:1.22782314;stroke-linecap:round;stroke-miterlimit:4;stroke-dasharray:none;stroke-opacity:1"
           inkscape:connector-curvature="0" />
        <path
           id="path2989-13"
           d="M 228.68936,915.14166 A 15.359995,15.360001 0 0 1 213.32936,930.50167 15.359995,15.360001 0 0 1 197.96936,915.14166 15.359995,15.360001 0 0 1 213.32936,899.78166 15.359995,15.360001 0 0 1 228.68936,915.14166 Z"
           style="fill:none;stroke:#000000;stroke-width:1.2278229;stroke-linecap:round;stroke-miterlimit:4;stroke-dasharray:none;stroke-opacity:1"
           inkscape:connector-curvature="0" />
        <path
           id="path2989-2"
           d="M 150.80611,858.44604 A 15.360001,15.360001 0 0 1 135.44611,873.80605 15.360001,15.360001 0 0 1 120.0861,858.44604 15.360001,15.360001 0 0 1 135.44611,843.08604 15.360001,15.360001 0 0 1 150.80611,858.44604 Z"
           style="fill:none;stroke:#000000;stroke-width:1.22782314;stroke-linecap:round;stroke-miterlimit:4;stroke-dasharray:none;stroke-opacity:1"
           inkscape:connector-curvature="0" />
        <path
           id="path2989-51"
           d="M 121.18254,766.43713 A 15.359998,15.360001 0 0 1 105.82254,781.79714 15.359998,15.360001 0 0 1 90.462542,766.43713 15.359998,15.360001 0 0 1 105.82254,751.07713 15.359998,15.360001 0 0 1 121.18254,766.43713 Z"
           style="fill:none;stroke:#000000;stroke-width:1.22782302;stroke-linecap:round;stroke-miterlimit:4;stroke-dasharray:none;stroke-opacity:1"
           inkscape:connector-curvature="0" />
        <path
           id="path2989-27"
           d="M 150.80611,674.56976 A 15.360001,15.360001 0 0 1 135.44611,689.92977 15.360001,15.360001 0 0 1 120.0861,674.56976 15.360001,15.360001 0 0 1 135.44611,659.20976 15.360001,15.360001 0 0 1 150.80611,674.56976 Z"
           style="fill:none;stroke:#000000;stroke-width:1.22782314;stroke-linecap:round;stroke-miterlimit:4;stroke-dasharray:none;stroke-opacity:1"
           inkscape:connector-curvature="0" />
        <path
           id="path2989-27-9"
           d="m 268.69023,727.67245 a 6.8544002,6.8543955 0 0 1 -6.8544,6.8544 6.8544002,6.8543955 0 0 1 -6.85441,-6.8544 6.8544002,6.8543955 0 0 1 6.85441,-6.85441 6.8544002,6.8543955 0 0 1 6.8544,6.85441 z"
           style="fill:none;stroke:#000000;stroke-width:0.73069978;stroke-linecap:round;stroke-miterlimit:4;stroke-dasharray:none;stroke-opacity:1"
           inkscape:connector-curvature="0" />
        <path
           id="path2989-27-9-8"
           d="m 292.07049,799.87772 a 6.8544002,6.8543955 0 0 1 -6.85441,6.85441 6.8544002,6.8543955 0 0 1 -6.8544,-6.85441 6.8544002,6.8543955 0 0 1 6.8544,-6.8544 6.8544002,6.8543955 0 0 1 6.85441,6.8544 z"
           style="fill:none;stroke:#000000;stroke-width:0.73069978;stroke-linecap:round;stroke-miterlimit:4;stroke-dasharray:none;stroke-opacity:1"
           inkscape:connector-curvature="0" />
        <path
           id="path2989-27-9-0"
           d="m 245.53304,799.87772 a 6.8544002,6.8543955 0 0 1 -6.85441,6.85441 6.8544002,6.8543955 0 0 1 -6.8544,-6.85441 6.8544002,6.8543955 0 0 1 6.8544,-6.8544 6.8544002,6.8543955 0 0 1 6.85441,6.8544 z"
           style="fill:none;stroke:#000000;stroke-width:0.73069978;stroke-linecap:round;stroke-miterlimit:4;stroke-dasharray:none;stroke-opacity:1"
           inkscape:connector-curvature="0" />
        <path
           id="path2989-27-9-7"
           d="m 230.60911,755.27164 a 6.8544053,6.8544007 0 0 1 -6.8544,6.8544 6.8544053,6.8544007 0 0 1 -6.8544,-6.8544 6.8544053,6.8544007 0 0 1 6.8544,-6.8544 6.8544053,6.8544007 0 0 1 6.8544,6.8544 z"
           style="fill:none;stroke:#000000;stroke-width:0.73070031;stroke-linecap:round;stroke-miterlimit:4;stroke-dasharray:none;stroke-opacity:1"
           inkscape:connector-curvature="0" />
        <path
           id="path2989-27-9-05"
           d="m 306.79543,755.27164 a 6.8544053,6.8544007 0 0 1 -6.8544,6.8544 6.8544053,6.8544007 0 0 1 -6.8544,-6.8544 6.8544053,6.8544007 0 0 1 6.8544,-6.8544 6.8544053,6.8544007 0 0 1 6.8544,6.8544 z"
           style="fill:none;stroke:#000000;stroke-width:0.73070031;stroke-linecap:round;stroke-miterlimit:4;stroke-dasharray:none;stroke-opacity:1"
           inkscape:connector-curvature="0" />
      </g>
      <g
         transform="translate(1.3228286,1.32287)"
         inkscape:label="Engrave"
         id="layer3" />
      <g
         transform="translate(1.3228286,1.32287)"
         inkscape:label="Guide"
         id="layer2" />
    </g>
  </g>
</svg>
