  0
SECTION
  2
HEADER
  9
$ACADVER
  1
AC1014
  9
$HANDSEED
  5
FFFF
  9
$MEASUREMENT
 70
     1
  0
ENDSEC
  0
SECTION
  2
TABLES
  0
TABLE
  2
VPORT
  5
8
330
0
100
AcDbSymbolTable
 70
     4
  0
VPORT
  5
2E
330
8
100
AcDbSymbolTableRecord
100
AcDbViewportTableRecord
  2
*ACTIVE
 70
     0
 10
0.0
 20
0.0
 11
1.0
 21
1.0
 12
210.0
 22
148.5
 13
0.0
 23
0.0
 14
10.0
 24
10.0
 15
10.0
 25
10.0
 16
0.0
 26
0.0
 36
1.0
 17
0.0
 27
0.0
 37
0.0
 40
341.0
 41
1.24
 42
50.0
 43
0.0
 44
0.0
 50
0.0
 51
0.0
 71
     0
 72
   100
 73
     1
 74
     3
 75
     0
 76
     0
 77
     0
 78
     0
  0
ENDTAB
  0
TABLE
  2
LTYPE
  5
5
330
0
100
AcDbSymbolTable
 70
     1
  0
LTYPE
  5
14
330
5
100
AcDbSymbolTableRecord
100
AcDbLinetypeTableRecord
  2
BYBLOCK
 70
     0
  3

 72
    65
 73
     0
 40
0.0
  0
LTYPE
  5
15
330
5
100
AcDbSymbolTableRecord
100
AcDbLinetypeTableRecord
  2
BYLAYER
 70
     0
  3

 72
    65
 73
     0
 40
0.0
  0
LTYPE
  5
16
330
5
100
AcDbSymbolTableRecord
100
AcDbLinetypeTableRecord
  2
CONTINUOUS
 70
     0
  3
Solid line
 72
    65
 73
     0
 40
0.0
  0
ENDTAB
  0
TABLE
  2
LAYER
  5
2
100
AcDbSymbolTable
 70
2
  0
LAYER
  5
50
100
AcDbSymbolTableRecord
100
AcDbLayerTableRecord
  2
0
 70
0
  6
CONTINUOUS
  0
LAYER
  5
51
100
AcDbSymbolTableRecord
100
AcDbLayerTableRecord
  2
Layer_1
 70
0
  6
CONTINUOUS
  0
ENDTAB
  0
TABLE
  2
STYLE
  5
3
330
0
100
AcDbSymbolTable
 70
     1
  0
STYLE
  5
11
330
3
100
AcDbSymbolTableRecord
100
AcDbTextStyleTableRecord
  2
STANDARD
 70
     0
 40
0.0
 41
1.0
 50
0.0
 71
     0
 42
2.5
  3
txt
  4

  0
ENDTAB
  0
TABLE
  2
VIEW
  5
6
330
0
100
AcDbSymbolTable
 70
     0
  0
ENDTAB
  0
TABLE
  2
UCS
  5
7
330
0
100
AcDbSymbolTable
 70
     0
  0
ENDTAB
  0
TABLE
  2
APPID
  5
9
330
0
100
AcDbSymbolTable
 70
     2
  0
APPID
  5
12
330
9
100
AcDbSymbolTableRecord
100
AcDbRegAppTableRecord
  2
ACAD
 70
     0
  0
ENDTAB
  0
TABLE
  2
DIMSTYLE
  5
A
330
0
100
AcDbSymbolTable
 70
     1
  0
DIMSTYLE
105
27
330
A
100
AcDbSymbolTableRecord
100
AcDbDimStyleTableRecord
  2
ISO-25
 70
     0
  3

  4

  5

  6

  7

 40
1.0
 41
2.5
 42
0.625
 43
3.75
 44
1.25
 45
0.0
 46
0.0
 47
0.0
 48
0.0
140
2.5
141
2.5
142
0.0
143
0.03937007874016
144
1.0
145
0.0
146
1.0
147
0.625
 71
     0
 72
     0
 73
     0
 74
     0
 75
     0
 76
     0
 77
     1
 78
     8
170
     0
171
     3
172
     1
173
     0
174
     0
175
     0
176
     0
177
     0
178
     0
270
     2
271
     2
272
     2
273
     2
274
     3
340
11
275
     0
280
     0
281
     0
282
     0
283
     0
284
     8
285
     0
286
     0
287
     3
288
     0
  0
ENDTAB
  0
TABLE
  2
BLOCK_RECORD
  5
1
330
0
100
AcDbSymbolTable
 70
     1
  0
BLOCK_RECORD
  5
1F
330
1
100
AcDbSymbolTableRecord
100
AcDbBlockTableRecord
  2
*MODEL_SPACE
  0
BLOCK_RECORD
  5
1B
330
1
100
AcDbSymbolTableRecord
100
AcDbBlockTableRecord
  2
*PAPER_SPACE
  0
ENDTAB
  0
ENDSEC
  0
SECTION
  2
BLOCKS
  0
BLOCK
  5
20
330
1F
100
AcDbEntity
  8
0
100
AcDbBlockBegin
  2
*MODEL_SPACE
 70
     0
 10
0.0
 20
0.0
 30
0.0
  3
*MODEL_SPACE
  1

  0
ENDBLK
  5
21
330
1F
100
AcDbEntity
  8
0
100
AcDbBlockEnd
  0
BLOCK
  5
1C
330
1B
100
AcDbEntity
 67
     1
  8
0
100
AcDbBlockBegin
  2
*PAPER_SPACE
  1

  0
ENDBLK
  5
1D
330
1B
100
AcDbEntity
 67
     1
  8
0
100
AcDbBlockEnd
  0
ENDSEC
  0
SECTION
  2
ENTITIES
  0
LINE
  5
100
100
AcDbEntity
  8
Layer_1
 62
7
100
AcDbLine
 10
0.500026
 20
4.437512
 30
0.0
 11
5.499974
 21
4.437512
 31
0.0
  0
LINE
  5
101
100
AcDbEntity
  8
Layer_1
 62
7
100
AcDbLine
 10
5.499974
 20
4.437512
 30
0.0
 11
5.499974
 21
0.562487
 31
0.0
  0
LINE
  5
102
100
AcDbEntity
  8
Layer_1
 62
7
100
AcDbLine
 10
5.499974
 20
0.562487
 30
0.0
 11
0.500026
 21
0.562487
 31
0.0
  0
LINE
  5
103
100
AcDbEntity
  8
Layer_1
 62
7
100
AcDbLine
 10
0.500026
 20
0.562487
 30
0.0
 11
0.500026
 21
4.437512
 31
0.0
  0
SPLINE
  5
104
100
AcDbEntity
  8
Layer_1
 62
7
100
AcDbSpline
 70
8
 71
3
 72
8
 73
4
 74
0
 40
0
 40
0
 40
0
 40
0
 40
1
 40
1
 40
1
 40
1
 10
2.724139
 20
4.050137
 30
0.0
 10
2.724139
 20
3.990463
 30
0.0
 10
2.700434
 20
3.933233
 30
0.0
 10
2.658238
 20
3.891038
 30
0.0
  0
SPLINE
  5
105
100
AcDbEntity
  8
Layer_1
 62
7
100
AcDbSpline
 70
8
 71
3
 72
8
 73
4
 74
0
 40
0
 40
0
 40
0
 40
0
 40
1
 40
1
 40
1
 40
1
 10
2.658238
 20
3.891038
 30
0.0
 10
2.616043
 20
3.848842
 30
0.0
 10
2.558813
 20
3.825137
 30
0.0
 10
2.499139
 20
3.825137
 30
0.0
  0
SPLINE
  5
106
100
AcDbEntity
  8
Layer_1
 62
7
100
AcDbSpline
 70
8
 71
3
 72
8
 73
4
 74
0
 40
0
 40
0
 40
0
 40
0
 40
1
 40
1
 40
1
 40
1
 10
2.499139
 20
3.825137
 30
0.0
 10
2.439465
 20
3.825137
 30
0.0
 10
2.382236
 20
3.848842
 30
0.0
 10
2.340040
 20
3.891038
 30
0.0
  0
SPLINE
  5
107
100
AcDbEntity
  8
Layer_1
 62
7
100
AcDbSpline
 70
8
 71
3
 72
8
 73
4
 74
0
 40
0
 40
0
 40
0
 40
0
 40
1
 40
1
 40
1
 40
1
 10
2.340040
 20
3.891038
 30
0.0
 10
2.297844
 20
3.933233
 30
0.0
 10
2.274139
 20
3.990463
 30
0.0
 10
2.274139
 20
4.050137
 30
0.0
  0
SPLINE
  5
108
100
AcDbEntity
  8
Layer_1
 62
7
100
AcDbSpline
 70
8
 71
3
 72
8
 73
4
 74
0
 40
0
 40
0
 40
0
 40
0
 40
1
 40
1
 40
1
 40
1
 10
2.274139
 20
4.050137
 30
0.0
 10
2.274139
 20
4.174401
 30
0.0
 10
2.374875
 20
4.275137
 30
0.0
 10
2.499139
 20
4.275137
 30
0.0
  0
SPLINE
  5
109
100
AcDbEntity
  8
Layer_1
 62
7
100
AcDbSpline
 70
8
 71
3
 72
8
 73
4
 74
0
 40
0
 40
0
 40
0
 40
0
 40
1
 40
1
 40
1
 40
1
 10
2.499139
 20
4.275137
 30
0.0
 10
2.558813
 20
4.275137
 30
0.0
 10
2.616043
 20
4.251431
 30
0.0
 10
2.658238
 20
4.209236
 30
0.0
  0
SPLINE
  5
10a
100
AcDbEntity
  8
Layer_1
 62
7
100
AcDbSpline
 70
8
 71
3
 72
8
 73
4
 74
0
 40
0
 40
0
 40
0
 40
0
 40
1
 40
1
 40
1
 40
1
 10
2.658238
 20
4.209236
 30
0.0
 10
2.700434
 20
4.167040
 30
0.0
 10
2.724139
 20
4.109810
 30
0.0
 10
2.724139
 20
4.050137
 30
0.0
  0
LINE
  5
10b
100
AcDbEntity
  8
Layer_1
 62
7
100
AcDbLine
 10
2.724139
 20
4.050137
 30
0.0
 11
2.724139
 21
4.050137
 31
0.0
  0
LINE
  5
10c
100
AcDbEntity
  8
Layer_1
 62
1
100
AcDbLine
 10
4.621812
 20
2.500000
 30
0.0
 11
4.312073
 21
1.542048
 31
0.0
  0
LINE
  5
10d
100
AcDbEntity
  8
Layer_1
 62
1
100
AcDbLine
 10
4.312073
 20
1.542048
 30
0.0
 11
3.501167
 21
0.950000
 31
0.0
  0
LINE
  5
10e
100
AcDbEntity
  8
Layer_1
 62
1
100
AcDbLine
 10
3.501167
 20
0.950000
 30
0.0
 11
2.498833
 21
0.950000
 31
0.0
  0
LINE
  5
10f
100
AcDbEntity
  8
Layer_1
 62
1
100
AcDbLine
 10
2.498833
 20
0.950000
 30
0.0
 11
1.687927
 21
1.542047
 31
0.0
  0
LINE
  5
110
100
AcDbEntity
  8
Layer_1
 62
1
100
AcDbLine
 10
1.687927
 20
1.542047
 30
0.0
 11
1.378189
 21
2.500000
 31
0.0
  0
LINE
  5
111
100
AcDbEntity
  8
Layer_1
 62
1
100
AcDbLine
 10
1.378189
 20
2.500000
 30
0.0
 11
1.687927
 21
3.457953
 31
0.0
  0
LINE
  5
112
100
AcDbEntity
  8
Layer_1
 62
1
100
AcDbLine
 10
1.687927
 20
3.457953
 30
0.0
 11
2.498833
 21
4.050000
 31
0.0
  0
LINE
  5
113
100
AcDbEntity
  8
Layer_1
 62
1
100
AcDbLine
 10
2.498833
 20
4.050000
 30
0.0
 11
3.501167
 21
4.050000
 31
0.0
  0
LINE
  5
114
100
AcDbEntity
  8
Layer_1
 62
1
100
AcDbLine
 10
3.501167
 20
4.050000
 30
0.0
 11
4.312073
 21
3.457953
 31
0.0
  0
LINE
  5
115
100
AcDbEntity
  8
Layer_1
 62
1
100
AcDbLine
 10
4.312073
 20
3.457953
 30
0.0
 11
4.621812
 21
2.500000
 31
0.0
  0
SPLINE
  5
116
100
AcDbEntity
  8
Layer_1
 62
7
100
AcDbSpline
 70
8
 71
3
 72
8
 73
4
 74
0
 40
0
 40
0
 40
0
 40
0
 40
1
 40
1
 40
1
 40
1
 10
3.726081
 20
4.050137
 30
0.0
 10
3.726081
 20
3.990463
 30
0.0
 10
3.702376
 20
3.933233
 30
0.0
 10
3.660180
 20
3.891038
 30
0.0
  0
SPLINE
  5
117
100
AcDbEntity
  8
Layer_1
 62
7
100
AcDbSpline
 70
8
 71
3
 72
8
 73
4
 74
0
 40
0
 40
0
 40
0
 40
0
 40
1
 40
1
 40
1
 40
1
 10
3.660180
 20
3.891038
 30
0.0
 10
3.617984
 20
3.848842
 30
0.0
 10
3.560755
 20
3.825137
 30
0.0
 10
3.501081
 20
3.825137
 30
0.0
  0
SPLINE
  5
118
100
AcDbEntity
  8
Layer_1
 62
7
100
AcDbSpline
 70
8
 71
3
 72
8
 73
4
 74
0
 40
0
 40
0
 40
0
 40
0
 40
1
 40
1
 40
1
 40
1
 10
3.501081
 20
3.825137
 30
0.0
 10
3.441407
 20
3.825137
 30
0.0
 10
3.384178
 20
3.848842
 30
0.0
 10
3.341982
 20
3.891038
 30
0.0
  0
SPLINE
  5
119
100
AcDbEntity
  8
Layer_1
 62
7
100
AcDbSpline
 70
8
 71
3
 72
8
 73
4
 74
0
 40
0
 40
0
 40
0
 40
0
 40
1
 40
1
 40
1
 40
1
 10
3.341982
 20
3.891038
 30
0.0
 10
3.299786
 20
3.933233
 30
0.0
 10
3.276081
 20
3.990463
 30
0.0
 10
3.276081
 20
4.050137
 30
0.0
  0
SPLINE
  5
11a
100
AcDbEntity
  8
Layer_1
 62
7
100
AcDbSpline
 70
8
 71
3
 72
8
 73
4
 74
0
 40
0
 40
0
 40
0
 40
0
 40
1
 40
1
 40
1
 40
1
 10
3.276081
 20
4.050137
 30
0.0
 10
3.276081
 20
4.174401
 30
0.0
 10
3.376817
 20
4.275137
 30
0.0
 10
3.501081
 20
4.275137
 30
0.0
  0
SPLINE
  5
11b
100
AcDbEntity
  8
Layer_1
 62
7
100
AcDbSpline
 70
8
 71
3
 72
8
 73
4
 74
0
 40
0
 40
0
 40
0
 40
0
 40
1
 40
1
 40
1
 40
1
 10
3.501081
 20
4.275137
 30
0.0
 10
3.625345
 20
4.275137
 30
0.0
 10
3.726081
 20
4.174401
 30
0.0
 10
3.726081
 20
4.050137
 30
0.0
  0
LINE
  5
11c
100
AcDbEntity
  8
Layer_1
 62
7
100
AcDbLine
 10
3.726081
 20
4.050137
 30
0.0
 11
3.726081
 21
4.050137
 31
0.0
  0
SPLINE
  5
11d
100
AcDbEntity
  8
Layer_1
 62
7
100
AcDbSpline
 70
8
 71
3
 72
8
 73
4
 74
0
 40
0
 40
0
 40
0
 40
0
 40
1
 40
1
 40
1
 40
1
 10
4.536792
 20
3.456952
 30
0.0
 10
4.536792
 20
3.397278
 30
0.0
 10
4.513087
 20
3.340049
 30
0.0
 10
4.470891
 20
3.297853
 30
0.0
  0
SPLINE
  5
11e
100
AcDbEntity
  8
Layer_1
 62
7
100
AcDbSpline
 70
8
 71
3
 72
8
 73
4
 74
0
 40
0
 40
0
 40
0
 40
0
 40
1
 40
1
 40
1
 40
1
 10
4.470891
 20
3.297853
 30
0.0
 10
4.428695
 20
3.255657
 30
0.0
 10
4.371466
 20
3.231952
 30
0.0
 10
4.311792
 20
3.231952
 30
0.0
  0
SPLINE
  5
11f
100
AcDbEntity
  8
Layer_1
 62
7
100
AcDbSpline
 70
8
 71
3
 72
8
 73
4
 74
0
 40
0
 40
0
 40
0
 40
0
 40
1
 40
1
 40
1
 40
1
 10
4.311792
 20
3.231952
 30
0.0
 10
4.252118
 20
3.231952
 30
0.0
 10
4.194889
 20
3.255657
 30
0.0
 10
4.152693
 20
3.297853
 30
0.0
  0
SPLINE
  5
120
100
AcDbEntity
  8
Layer_1
 62
7
100
AcDbSpline
 70
8
 71
3
 72
8
 73
4
 74
0
 40
0
 40
0
 40
0
 40
0
 40
1
 40
1
 40
1
 40
1
 10
4.152693
 20
3.297853
 30
0.0
 10
4.110497
 20
3.340049
 30
0.0
 10
4.086792
 20
3.397278
 30
0.0
 10
4.086792
 20
3.456952
 30
0.0
  0
SPLINE
  5
121
100
AcDbEntity
  8
Layer_1
 62
7
100
AcDbSpline
 70
8
 71
3
 72
8
 73
4
 74
0
 40
0
 40
0
 40
0
 40
0
 40
1
 40
1
 40
1
 40
1
 10
4.086792
 20
3.456952
 30
0.0
 10
4.086792
 20
3.581216
 30
0.0
 10
4.187528
 20
3.681952
 30
0.0
 10
4.311792
 20
3.681952
 30
0.0
  0
SPLINE
  5
122
100
AcDbEntity
  8
Layer_1
 62
7
100
AcDbSpline
 70
8
 71
3
 72
8
 73
4
 74
0
 40
0
 40
0
 40
0
 40
0
 40
1
 40
1
 40
1
 40
1
 10
4.311792
 20
3.681952
 30
0.0
 10
4.436056
 20
3.681952
 30
0.0
 10
4.536792
 20
3.581216
 30
0.0
 10
4.536792
 20
3.456952
 30
0.0
  0
LINE
  5
123
100
AcDbEntity
  8
Layer_1
 62
7
100
AcDbLine
 10
4.536792
 20
3.456952
 30
0.0
 11
4.536792
 21
3.456952
 31
0.0
  0
SPLINE
  5
124
100
AcDbEntity
  8
Layer_1
 62
7
100
AcDbSpline
 70
8
 71
3
 72
8
 73
4
 74
0
 40
0
 40
0
 40
0
 40
0
 40
1
 40
1
 40
1
 40
1
 10
4.845909
 20
2.500000
 30
0.0
 10
4.845909
 20
2.440326
 30
0.0
 10
4.822203
 20
2.383097
 30
0.0
 10
4.780008
 20
2.340901
 30
0.0
  0
SPLINE
  5
125
100
AcDbEntity
  8
Layer_1
 62
7
100
AcDbSpline
 70
8
 71
3
 72
8
 73
4
 74
0
 40
0
 40
0
 40
0
 40
0
 40
1
 40
1
 40
1
 40
1
 10
4.780008
 20
2.340901
 30
0.0
 10
4.737812
 20
2.298705
 30
0.0
 10
4.680582
 20
2.275000
 30
0.0
 10
4.620909
 20
2.275000
 30
0.0
  0
SPLINE
  5
126
100
AcDbEntity
  8
Layer_1
 62
7
100
AcDbSpline
 70
8
 71
3
 72
8
 73
4
 74
0
 40
0
 40
0
 40
0
 40
0
 40
1
 40
1
 40
1
 40
1
 10
4.620909
 20
2.275000
 30
0.0
 10
4.561235
 20
2.275000
 30
0.0
 10
4.504005
 20
2.298705
 30
0.0
 10
4.461810
 20
2.340901
 30
0.0
  0
SPLINE
  5
127
100
AcDbEntity
  8
Layer_1
 62
7
100
AcDbSpline
 70
8
 71
3
 72
8
 73
4
 74
0
 40
0
 40
0
 40
0
 40
0
 40
1
 40
1
 40
1
 40
1
 10
4.461810
 20
2.340901
 30
0.0
 10
4.419614
 20
2.383097
 30
0.0
 10
4.395909
 20
2.440326
 30
0.0
 10
4.395909
 20
2.500000
 30
0.0
  0
SPLINE
  5
128
100
AcDbEntity
  8
Layer_1
 62
7
100
AcDbSpline
 70
8
 71
3
 72
8
 73
4
 74
0
 40
0
 40
0
 40
0
 40
0
 40
1
 40
1
 40
1
 40
1
 10
4.395909
 20
2.500000
 30
0.0
 10
4.395909
 20
2.624264
 30
0.0
 10
4.496645
 20
2.725000
 30
0.0
 10
4.620909
 20
2.725000
 30
0.0
  0
SPLINE
  5
129
100
AcDbEntity
  8
Layer_1
 62
7
100
AcDbSpline
 70
8
 71
3
 72
8
 73
4
 74
0
 40
0
 40
0
 40
0
 40
0
 40
1
 40
1
 40
1
 40
1
 10
4.620909
 20
2.725000
 30
0.0
 10
4.745173
 20
2.725000
 30
0.0
 10
4.845909
 20
2.624264
 30
0.0
 10
4.845909
 20
2.500000
 30
0.0
  0
LINE
  5
12a
100
AcDbEntity
  8
Layer_1
 62
7
100
AcDbLine
 10
4.845909
 20
2.500000
 30
0.0
 11
4.845909
 21
2.500000
 31
0.0
  0
SPLINE
  5
12b
100
AcDbEntity
  8
Layer_1
 62
7
100
AcDbSpline
 70
8
 71
3
 72
8
 73
4
 74
0
 40
0
 40
0
 40
0
 40
0
 40
1
 40
1
 40
1
 40
1
 10
4.536792
 20
1.541574
 30
0.0
 10
4.536792
 20
1.481900
 30
0.0
 10
4.513087
 20
1.424671
 30
0.0
 10
4.470891
 20
1.382475
 30
0.0
  0
SPLINE
  5
12c
100
AcDbEntity
  8
Layer_1
 62
7
100
AcDbSpline
 70
8
 71
3
 72
8
 73
4
 74
0
 40
0
 40
0
 40
0
 40
0
 40
1
 40
1
 40
1
 40
1
 10
4.470891
 20
1.382475
 30
0.0
 10
4.428695
 20
1.340279
 30
0.0
 10
4.371466
 20
1.316574
 30
0.0
 10
4.311792
 20
1.316574
 30
0.0
  0
SPLINE
  5
12d
100
AcDbEntity
  8
Layer_1
 62
7
100
AcDbSpline
 70
8
 71
3
 72
8
 73
4
 74
0
 40
0
 40
0
 40
0
 40
0
 40
1
 40
1
 40
1
 40
1
 10
4.311792
 20
1.316574
 30
0.0
 10
4.252118
 20
1.316574
 30
0.0
 10
4.194889
 20
1.340279
 30
0.0
 10
4.152693
 20
1.382475
 30
0.0
  0
SPLINE
  5
12e
100
AcDbEntity
  8
Layer_1
 62
7
100
AcDbSpline
 70
8
 71
3
 72
8
 73
4
 74
0
 40
0
 40
0
 40
0
 40
0
 40
1
 40
1
 40
1
 40
1
 10
4.152693
 20
1.382475
 30
0.0
 10
4.110497
 20
1.424671
 30
0.0
 10
4.086792
 20
1.481900
 30
0.0
 10
4.086792
 20
1.541574
 30
0.0
  0
SPLINE
  5
12f
100
AcDbEntity
  8
Layer_1
 62
7
100
AcDbSpline
 70
8
 71
3
 72
8
 73
4
 74
0
 40
0
 40
0
 40
0
 40
0
 40
1
 40
1
 40
1
 40
1
 10
4.086792
 20
1.541574
 30
0.0
 10
4.086792
 20
1.665838
 30
0.0
 10
4.187528
 20
1.766574
 30
0.0
 10
4.311792
 20
1.766574
 30
0.0
  0
SPLINE
  5
130
100
AcDbEntity
  8
Layer_1
 62
7
100
AcDbSpline
 70
8
 71
3
 72
8
 73
4
 74
0
 40
0
 40
0
 40
0
 40
0
 40
1
 40
1
 40
1
 40
1
 10
4.311792
 20
1.766574
 30
0.0
 10
4.436056
 20
1.766574
 30
0.0
 10
4.536792
 20
1.665838
 30
0.0
 10
4.536792
 20
1.541574
 30
0.0
  0
LINE
  5
131
100
AcDbEntity
  8
Layer_1
 62
7
100
AcDbLine
 10
4.536792
 20
1.541574
 30
0.0
 11
4.536792
 21
1.541574
 31
0.0
  0
SPLINE
  5
132
100
AcDbEntity
  8
Layer_1
 62
7
100
AcDbSpline
 70
8
 71
3
 72
8
 73
4
 74
0
 40
0
 40
0
 40
0
 40
0
 40
1
 40
1
 40
1
 40
1
 10
3.726081
 20
0.950995
 30
0.0
 10
3.726081
 20
0.826731
 30
0.0
 10
3.625345
 20
0.725995
 30
0.0
 10
3.501081
 20
0.725995
 30
0.0
  0
SPLINE
  5
133
100
AcDbEntity
  8
Layer_1
 62
7
100
AcDbSpline
 70
8
 71
3
 72
8
 73
4
 74
0
 40
0
 40
0
 40
0
 40
0
 40
1
 40
1
 40
1
 40
1
 10
3.501081
 20
0.725995
 30
0.0
 10
3.376817
 20
0.725995
 30
0.0
 10
3.276081
 20
0.826731
 30
0.0
 10
3.276081
 20
0.950995
 30
0.0
  0
SPLINE
  5
134
100
AcDbEntity
  8
Layer_1
 62
7
100
AcDbSpline
 70
8
 71
3
 72
8
 73
4
 74
0
 40
0
 40
0
 40
0
 40
0
 40
1
 40
1
 40
1
 40
1
 10
3.276081
 20
0.950995
 30
0.0
 10
3.276081
 20
1.075259
 30
0.0
 10
3.376817
 20
1.175995
 30
0.0
 10
3.501081
 20
1.175995
 30
0.0
  0
SPLINE
  5
135
100
AcDbEntity
  8
Layer_1
 62
7
100
AcDbSpline
 70
8
 71
3
 72
8
 73
4
 74
0
 40
0
 40
0
 40
0
 40
0
 40
1
 40
1
 40
1
 40
1
 10
3.501081
 20
1.175995
 30
0.0
 10
3.625345
 20
1.175995
 30
0.0
 10
3.726081
 20
1.075259
 30
0.0
 10
3.726081
 20
0.950995
 30
0.0
  0
LINE
  5
136
100
AcDbEntity
  8
Layer_1
 62
7
100
AcDbLine
 10
3.726081
 20
0.950995
 30
0.0
 11
3.726081
 21
0.950995
 31
0.0
  0
SPLINE
  5
137
100
AcDbEntity
  8
Layer_1
 62
7
100
AcDbSpline
 70
8
 71
3
 72
8
 73
4
 74
0
 40
0
 40
0
 40
0
 40
0
 40
1
 40
1
 40
1
 40
1
 10
2.723867
 20
0.950995
 30
0.0
 10
2.723867
 20
0.826731
 30
0.0
 10
2.623131
 20
0.725995
 30
0.0
 10
2.498867
 20
0.725995
 30
0.0
  0
SPLINE
  5
138
100
AcDbEntity
  8
Layer_1
 62
7
100
AcDbSpline
 70
8
 71
3
 72
8
 73
4
 74
0
 40
0
 40
0
 40
0
 40
0
 40
1
 40
1
 40
1
 40
1
 10
2.498867
 20
0.725995
 30
0.0
 10
2.374603
 20
0.725995
 30
0.0
 10
2.273867
 20
0.826731
 30
0.0
 10
2.273867
 20
0.950995
 30
0.0
  0
SPLINE
  5
139
100
AcDbEntity
  8
Layer_1
 62
7
100
AcDbSpline
 70
8
 71
3
 72
8
 73
4
 74
0
 40
0
 40
0
 40
0
 40
0
 40
1
 40
1
 40
1
 40
1
 10
2.273867
 20
0.950995
 30
0.0
 10
2.273867
 20
1.075259
 30
0.0
 10
2.374603
 20
1.175995
 30
0.0
 10
2.498867
 20
1.175995
 30
0.0
  0
SPLINE
  5
13a
100
AcDbEntity
  8
Layer_1
 62
7
100
AcDbSpline
 70
8
 71
3
 72
8
 73
4
 74
0
 40
0
 40
0
 40
0
 40
0
 40
1
 40
1
 40
1
 40
1
 10
2.498867
 20
1.175995
 30
0.0
 10
2.623131
 20
1.175995
 30
0.0
 10
2.723867
 20
1.075259
 30
0.0
 10
2.723867
 20
0.950995
 30
0.0
  0
LINE
  5
13b
100
AcDbEntity
  8
Layer_1
 62
7
100
AcDbLine
 10
2.723867
 20
0.950995
 30
0.0
 11
2.723867
 21
0.950995
 31
0.0
  0
SPLINE
  5
13c
100
AcDbEntity
  8
Layer_1
 62
7
100
AcDbSpline
 70
8
 71
3
 72
8
 73
4
 74
0
 40
0
 40
0
 40
0
 40
0
 40
1
 40
1
 40
1
 40
1
 10
1.912583
 20
1.541574
 30
0.0
 10
1.912583
 20
1.481900
 30
0.0
 10
1.888878
 20
1.424671
 30
0.0
 10
1.846682
 20
1.382475
 30
0.0
  0
SPLINE
  5
13d
100
AcDbEntity
  8
Layer_1
 62
7
100
AcDbSpline
 70
8
 71
3
 72
8
 73
4
 74
0
 40
0
 40
0
 40
0
 40
0
 40
1
 40
1
 40
1
 40
1
 10
1.846682
 20
1.382475
 30
0.0
 10
1.804486
 20
1.340279
 30
0.0
 10
1.747257
 20
1.316574
 30
0.0
 10
1.687583
 20
1.316574
 30
0.0
  0
SPLINE
  5
13e
100
AcDbEntity
  8
Layer_1
 62
7
100
AcDbSpline
 70
8
 71
3
 72
8
 73
4
 74
0
 40
0
 40
0
 40
0
 40
0
 40
1
 40
1
 40
1
 40
1
 10
1.687583
 20
1.316574
 30
0.0
 10
1.627909
 20
1.316574
 30
0.0
 10
1.570680
 20
1.340279
 30
0.0
 10
1.528484
 20
1.382475
 30
0.0
  0
SPLINE
  5
13f
100
AcDbEntity
  8
Layer_1
 62
7
100
AcDbSpline
 70
8
 71
3
 72
8
 73
4
 74
0
 40
0
 40
0
 40
0
 40
0
 40
1
 40
1
 40
1
 40
1
 10
1.528484
 20
1.382475
 30
0.0
 10
1.486288
 20
1.424671
 30
0.0
 10
1.462583
 20
1.481900
 30
0.0
 10
1.462583
 20
1.541574
 30
0.0
  0
SPLINE
  5
140
100
AcDbEntity
  8
Layer_1
 62
7
100
AcDbSpline
 70
8
 71
3
 72
8
 73
4
 74
0
 40
0
 40
0
 40
0
 40
0
 40
1
 40
1
 40
1
 40
1
 10
1.462583
 20
1.541574
 30
0.0
 10
1.462583
 20
1.601248
 30
0.0
 10
1.486288
 20
1.658477
 30
0.0
 10
1.528484
 20
1.700673
 30
0.0
  0
SPLINE
  5
141
100
AcDbEntity
  8
Layer_1
 62
7
100
AcDbSpline
 70
8
 71
3
 72
8
 73
4
 74
0
 40
0
 40
0
 40
0
 40
0
 40
1
 40
1
 40
1
 40
1
 10
1.528484
 20
1.700673
 30
0.0
 10
1.570680
 20
1.742869
 30
0.0
 10
1.627909
 20
1.766574
 30
0.0
 10
1.687583
 20
1.766574
 30
0.0
  0
SPLINE
  5
142
100
AcDbEntity
  8
Layer_1
 62
7
100
AcDbSpline
 70
8
 71
3
 72
8
 73
4
 74
0
 40
0
 40
0
 40
0
 40
0
 40
1
 40
1
 40
1
 40
1
 10
1.687583
 20
1.766574
 30
0.0
 10
1.811847
 20
1.766574
 30
0.0
 10
1.912583
 20
1.665838
 30
0.0
 10
1.912583
 20
1.541574
 30
0.0
  0
LINE
  5
143
100
AcDbEntity
  8
Layer_1
 62
7
100
AcDbLine
 10
1.912583
 20
1.541574
 30
0.0
 11
1.912583
 21
1.541574
 31
0.0
  0
SPLINE
  5
144
100
AcDbEntity
  8
Layer_1
 62
7
100
AcDbSpline
 70
8
 71
3
 72
8
 73
4
 74
0
 40
0
 40
0
 40
0
 40
0
 40
1
 40
1
 40
1
 40
1
 10
1.604004
 20
2.500000
 30
0.0
 10
1.604004
 20
2.440326
 30
0.0
 10
1.580299
 20
2.383097
 30
0.0
 10
1.538103
 20
2.340901
 30
0.0
  0
SPLINE
  5
145
100
AcDbEntity
  8
Layer_1
 62
7
100
AcDbSpline
 70
8
 71
3
 72
8
 73
4
 74
0
 40
0
 40
0
 40
0
 40
0
 40
1
 40
1
 40
1
 40
1
 10
1.538103
 20
2.340901
 30
0.0
 10
1.495907
 20
2.298705
 30
0.0
 10
1.438678
 20
2.275000
 30
0.0
 10
1.379004
 20
2.275000
 30
0.0
  0
SPLINE
  5
146
100
AcDbEntity
  8
Layer_1
 62
7
100
AcDbSpline
 70
8
 71
3
 72
8
 73
4
 74
0
 40
0
 40
0
 40
0
 40
0
 40
1
 40
1
 40
1
 40
1
 10
1.379004
 20
2.275000
 30
0.0
 10
1.319330
 20
2.275000
 30
0.0
 10
1.262101
 20
2.298705
 30
0.0
 10
1.219905
 20
2.340901
 30
0.0
  0
SPLINE
  5
147
100
AcDbEntity
  8
Layer_1
 62
7
100
AcDbSpline
 70
8
 71
3
 72
8
 73
4
 74
0
 40
0
 40
0
 40
0
 40
0
 40
1
 40
1
 40
1
 40
1
 10
1.219905
 20
2.340901
 30
0.0
 10
1.177709
 20
2.383097
 30
0.0
 10
1.154004
 20
2.440326
 30
0.0
 10
1.154004
 20
2.500000
 30
0.0
  0
SPLINE
  5
148
100
AcDbEntity
  8
Layer_1
 62
7
100
AcDbSpline
 70
8
 71
3
 72
8
 73
4
 74
0
 40
0
 40
0
 40
0
 40
0
 40
1
 40
1
 40
1
 40
1
 10
1.154004
 20
2.500000
 30
0.0
 10
1.154004
 20
2.624264
 30
0.0
 10
1.254740
 20
2.725000
 30
0.0
 10
1.379004
 20
2.725000
 30
0.0
  0
SPLINE
  5
149
100
AcDbEntity
  8
Layer_1
 62
7
100
AcDbSpline
 70
8
 71
3
 72
8
 73
4
 74
0
 40
0
 40
0
 40
0
 40
0
 40
1
 40
1
 40
1
 40
1
 10
1.379004
 20
2.725000
 30
0.0
 10
1.503268
 20
2.725000
 30
0.0
 10
1.604004
 20
2.624264
 30
0.0
 10
1.604004
 20
2.500000
 30
0.0
  0
LINE
  5
14a
100
AcDbEntity
  8
Layer_1
 62
7
100
AcDbLine
 10
1.604004
 20
2.500000
 30
0.0
 11
1.604004
 21
2.500000
 31
0.0
  0
SPLINE
  5
14b
100
AcDbEntity
  8
Layer_1
 62
7
100
AcDbSpline
 70
8
 71
3
 72
8
 73
4
 74
0
 40
0
 40
0
 40
0
 40
0
 40
1
 40
1
 40
1
 40
1
 10
1.912583
 20
3.456952
 30
0.0
 10
1.912583
 20
3.397278
 30
0.0
 10
1.888878
 20
3.340049
 30
0.0
 10
1.846682
 20
3.297853
 30
0.0
  0
SPLINE
  5
14c
100
AcDbEntity
  8
Layer_1
 62
7
100
AcDbSpline
 70
8
 71
3
 72
8
 73
4
 74
0
 40
0
 40
0
 40
0
 40
0
 40
1
 40
1
 40
1
 40
1
 10
1.846682
 20
3.297853
 30
0.0
 10
1.804486
 20
3.255657
 30
0.0
 10
1.747257
 20
3.231952
 30
0.0
 10
1.687583
 20
3.231952
 30
0.0
  0
SPLINE
  5
14d
100
AcDbEntity
  8
Layer_1
 62
7
100
AcDbSpline
 70
8
 71
3
 72
8
 73
4
 74
0
 40
0
 40
0
 40
0
 40
0
 40
1
 40
1
 40
1
 40
1
 10
1.687583
 20
3.231952
 30
0.0
 10
1.627909
 20
3.231952
 30
0.0
 10
1.570680
 20
3.255657
 30
0.0
 10
1.528484
 20
3.297853
 30
0.0
  0
SPLINE
  5
14e
100
AcDbEntity
  8
Layer_1
 62
7
100
AcDbSpline
 70
8
 71
3
 72
8
 73
4
 74
0
 40
0
 40
0
 40
0
 40
0
 40
1
 40
1
 40
1
 40
1
 10
1.528484
 20
3.297853
 30
0.0
 10
1.486288
 20
3.340048
 30
0.0
 10
1.462583
 20
3.397278
 30
0.0
 10
1.462583
 20
3.456952
 30
0.0
  0
SPLINE
  5
14f
100
AcDbEntity
  8
Layer_1
 62
7
100
AcDbSpline
 70
8
 71
3
 72
8
 73
4
 74
0
 40
0
 40
0
 40
0
 40
0
 40
1
 40
1
 40
1
 40
1
 10
1.462583
 20
3.456952
 30
0.0
 10
1.462583
 20
3.516626
 30
0.0
 10
1.486288
 20
3.573855
 30
0.0
 10
1.528484
 20
3.616051
 30
0.0
  0
SPLINE
  5
150
100
AcDbEntity
  8
Layer_1
 62
7
100
AcDbSpline
 70
8
 71
3
 72
8
 73
4
 74
0
 40
0
 40
0
 40
0
 40
0
 40
1
 40
1
 40
1
 40
1
 10
1.528484
 20
3.616051
 30
0.0
 10
1.570680
 20
3.658247
 30
0.0
 10
1.627909
 20
3.681952
 30
0.0
 10
1.687583
 20
3.681952
 30
0.0
  0
SPLINE
  5
151
100
AcDbEntity
  8
Layer_1
 62
7
100
AcDbSpline
 70
8
 71
3
 72
8
 73
4
 74
0
 40
0
 40
0
 40
0
 40
0
 40
1
 40
1
 40
1
 40
1
 10
1.687583
 20
3.681952
 30
0.0
 10
1.811847
 20
3.681952
 30
0.0
 10
1.912583
 20
3.581216
 30
0.0
 10
1.912583
 20
3.456952
 30
0.0
  0
LINE
  5
152
100
AcDbEntity
  8
Layer_1
 62
7
100
AcDbLine
 10
1.912583
 20
3.456952
 30
0.0
 11
1.912583
 21
3.456952
 31
0.0
  0
LINE
  5
153
100
AcDbEntity
  8
Layer_1
 62
1
100
AcDbLine
 10
3.004098
 20
2.823887
 30
0.0
 11
3.322991
 21
2.592197
 31
0.0
  0
LINE
  5
154
100
AcDbEntity
  8
Layer_1
 62
1
100
AcDbLine
 10
3.322991
 20
2.592197
 30
0.0
 11
3.201185
 21
2.217316
 31
0.0
  0
LINE
  5
155
100
AcDbEntity
  8
Layer_1
 62
1
100
AcDbLine
 10
3.201185
 20
2.217316
 30
0.0
 11
2.807011
 21
2.217316
 31
0.0
  0
LINE
  5
156
100
AcDbEntity
  8
Layer_1
 62
1
100
AcDbLine
 10
2.807011
 20
2.217316
 30
0.0
 11
2.685205
 21
2.592197
 31
0.0
  0
LINE
  5
157
100
AcDbEntity
  8
Layer_1
 62
1
100
AcDbLine
 10
2.685205
 20
2.592197
 30
0.0
 11
3.004098
 21
2.823887
 31
0.0
  0
SPLINE
  5
158
100
AcDbEntity
  8
Layer_1
 62
1
100
AcDbSpline
 70
8
 71
3
 72
8
 73
4
 74
0
 40
0
 40
0
 40
0
 40
0
 40
1
 40
1
 40
1
 40
1
 10
3.274909
 20
3.595070
 30
0.0
 10
3.565340
 20
3.522160
 30
0.0
 10
3.814912
 20
3.336862
 30
0.0
 10
3.968722
 20
3.079941
 30
0.0
  0
SPLINE
  5
159
100
AcDbEntity
  8
Layer_1
 62
1
100
AcDbSpline
 70
8
 71
3
 72
8
 73
4
 74
0
 40
0
 40
0
 40
0
 40
0
 40
1
 40
1
 40
1
 40
1
 10
3.968722
 20
3.079941
 30
0.0
 10
4.122532
 20
2.823020
 30
0.0
 10
4.167981
 20
2.515521
 30
0.0
 10
4.095071
 20
2.225091
 30
0.0
  0
SPLINE
  5
15a
100
AcDbEntity
  8
Layer_1
 62
1
100
AcDbSpline
 70
8
 71
3
 72
8
 73
4
 74
0
 40
0
 40
0
 40
0
 40
0
 40
1
 40
1
 40
1
 40
1
 10
4.095071
 20
2.225091
 30
0.0
 10
3.943242
 20
1.620300
 30
0.0
 10
3.329882
 20
1.253101
 30
0.0
 10
2.725091
 20
1.404929
 30
0.0
  0
SPLINE
  5
15b
100
AcDbEntity
  8
Layer_1
 62
1
100
AcDbSpline
 70
8
 71
3
 72
8
 73
4
 74
0
 40
0
 40
0
 40
0
 40
0
 40
1
 40
1
 40
1
 40
1
 10
2.725091
 20
1.404929
 30
0.0
 10
2.120300
 20
1.556758
 30
0.0
 10
1.753102
 20
2.170118
 30
0.0
 10
1.904930
 20
2.774909
 30
0.0
  0
SPLINE
  5
15c
100
AcDbEntity
  8
Layer_1
 62
1
100
AcDbSpline
 70
8
 71
3
 72
8
 73
4
 74
0
 40
0
 40
0
 40
0
 40
0
 40
1
 40
1
 40
1
 40
1
 10
1.904930
 20
2.774909
 30
0.0
 10
2.056758
 20
3.379700
 30
0.0
 10
2.670119
 20
3.746898
 30
0.0
 10
3.274909
 20
3.595070
 30
0.0
  0
LINE
  5
15d
100
AcDbEntity
  8
Layer_1
 62
1
100
AcDbLine
 10
3.274909
 20
3.595070
 30
0.0
 11
3.274909
 21
3.595070
 31
0.0
  0
SPLINE
  5
15e
100
AcDbEntity
  8
Layer_1
 62
3
100
AcDbSpline
 70
8
 71
3
 72
8
 73
4
 74
0
 40
0
 40
0
 40
0
 40
0
 40
1
 40
1
 40
1
 40
1
 10
3.334151
 20
3.619987
 30
0.0
 10
3.339567
 20
3.611761
 30
0.0
 10
3.347130
 20
3.606013
 30
0.0
 10
3.356839
 20
3.602744
 30
0.0
  0
SPLINE
  5
15f
100
AcDbEntity
  8
Layer_1
 62
3
100
AcDbSpline
 70
8
 71
3
 72
8
 73
4
 74
0
 40
0
 40
0
 40
0
 40
0
 40
1
 40
1
 40
1
 40
1
 10
3.356839
 20
3.602744
 30
0.0
 10
3.368528
 20
3.598808
 30
0.0
 10
3.379917
 20
3.599591
 30
0.0
 10
3.391005
 20
3.605094
 30
0.0
  0
SPLINE
  5
160
100
AcDbEntity
  8
Layer_1
 62
3
100
AcDbSpline
 70
8
 71
3
 72
8
 73
4
 74
0
 40
0
 40
0
 40
0
 40
0
 40
1
 40
1
 40
1
 40
1
 10
3.391005
 20
3.605094
 30
0.0
 10
3.402094
 20
3.610596
 30
0.0
 10
3.409606
 20
3.619191
 30
0.0
 10
3.413541
 20
3.630880
 30
0.0
  0
LINE
  5
161
100
AcDbEntity
  8
Layer_1
 62
3
100
AcDbLine
 10
3.413541
 20
3.630880
 30
0.0
 11
3.437346
 21
3.701579
 31
0.0
  0
SPLINE
  5
162
100
AcDbEntity
  8
Layer_1
 62
3
100
AcDbSpline
 70
8
 71
3
 72
8
 73
4
 74
0
 40
0
 40
0
 40
0
 40
0
 40
1
 40
1
 40
1
 40
1
 10
3.437346
 20
3.701579
 30
0.0
 10
3.437949
 20
3.703370
 30
0.0
 10
3.438442
 20
3.705145
 30
0.0
 10
3.438825
 20
3.706905
 30
0.0
  0
LINE
  5
163
100
AcDbEntity
  8
Layer_1
 62
3
100
AcDbLine
 10
3.438825
 20
3.706905
 30
0.0
 11
3.334151
 21
3.619987
 31
0.0
  0
LINE
  5
164
100
AcDbEntity
  8
Layer_1
 62
3
100
AcDbLine
 10
3.327224
 20
3.654119
 30
0.0
 11
3.431899
 21
3.741038
 31
0.0
  0
SPLINE
  5
165
100
AcDbEntity
  8
Layer_1
 62
3
100
AcDbSpline
 70
8
 71
3
 72
8
 73
4
 74
0
 40
0
 40
0
 40
0
 40
0
 40
1
 40
1
 40
1
 40
1
 10
3.431899
 20
3.741038
 30
0.0
 10
3.426482
 20
3.749264
 30
0.0
 10
3.418919
 20
3.755011
 30
0.0
 10
3.409210
 20
3.758281
 30
0.0
  0
SPLINE
  5
166
100
AcDbEntity
  8
Layer_1
 62
3
100
AcDbSpline
 70
8
 71
3
 72
8
 73
4
 74
0
 40
0
 40
0
 40
0
 40
0
 40
1
 40
1
 40
1
 40
1
 10
3.409210
 20
3.758281
 30
0.0
 10
3.397521
 20
3.762216
 30
0.0
 10
3.386133
 20
3.761433
 30
0.0
 10
3.375044
 20
3.755931
 30
0.0
  0
SPLINE
  5
167
100
AcDbEntity
  8
Layer_1
 62
3
100
AcDbSpline
 70
8
 71
3
 72
8
 73
4
 74
0
 40
0
 40
0
 40
0
 40
0
 40
1
 40
1
 40
1
 40
1
 10
3.375044
 20
3.755931
 30
0.0
 10
3.363956
 20
3.750429
 30
0.0
 10
3.356444
 20
3.741833
 30
0.0
 10
3.352508
 20
3.730144
 30
0.0
  0
LINE
  5
168
100
AcDbEntity
  8
Layer_1
 62
3
100
AcDbLine
 10
3.352508
 20
3.730144
 30
0.0
 11
3.328703
 21
3.659446
 31
0.0
  0
SPLINE
  5
169
100
AcDbEntity
  8
Layer_1
 62
3
100
AcDbSpline
 70
8
 71
3
 72
8
 73
4
 74
0
 40
0
 40
0
 40
0
 40
0
 40
1
 40
1
 40
1
 40
1
 10
3.328703
 20
3.659446
 30
0.0
 10
3.328100
 20
3.657655
 30
0.0
 10
3.327607
 20
3.655879
 30
0.0
 10
3.327224
 20
3.654119
 30
0.0
  0
LINE
  5
16a
100
AcDbEntity
  8
Layer_1
 62
3
100
AcDbLine
 10
3.327224
 20
3.654119
 30
0.0
 11
3.327224
 21
3.654119
 31
0.0
  0
SPLINE
  5
16b
100
AcDbEntity
  8
Layer_1
 62
3
100
AcDbSpline
 70
8
 71
3
 72
8
 73
4
 74
0
 40
0
 40
0
 40
0
 40
0
 40
1
 40
1
 40
1
 40
1
 10
3.468104
 20
3.731209
 30
0.0
 10
3.470927
 20
3.718399
 30
0.0
 10
3.470101
 20
3.705348
 30
0.0
 10
3.465626
 20
3.692057
 30
0.0
  0
LINE
  5
16c
100
AcDbEntity
  8
Layer_1
 62
3
100
AcDbLine
 10
3.465626
 20
3.692057
 30
0.0
 11
3.441821
 21
3.621358
 31
0.0
  0
SPLINE
  5
16d
100
AcDbEntity
  8
Layer_1
 62
3
100
AcDbSpline
 70
8
 71
3
 72
8
 73
4
 74
0
 40
0
 40
0
 40
0
 40
0
 40
1
 40
1
 40
1
 40
1
 10
3.441821
 20
3.621358
 30
0.0
 10
3.435251
 20
3.601845
 30
0.0
 10
3.422704
 20
3.587493
 30
0.0
 10
3.404182
 20
3.578302
 30
0.0
  0
SPLINE
  5
16e
100
AcDbEntity
  8
Layer_1
 62
3
100
AcDbSpline
 70
8
 71
3
 72
8
 73
4
 74
0
 40
0
 40
0
 40
0
 40
0
 40
1
 40
1
 40
1
 40
1
 10
3.404182
 20
3.578302
 30
0.0
 10
3.385785
 20
3.569174
 30
0.0
 10
3.366830
 20
3.567894
 30
0.0
 10
3.347317
 20
3.574465
 30
0.0
  0
SPLINE
  5
16f
100
AcDbEntity
  8
Layer_1
 62
3
100
AcDbSpline
 70
8
 71
3
 72
8
 73
4
 74
0
 40
0
 40
0
 40
0
 40
0
 40
1
 40
1
 40
1
 40
1
 10
3.347317
 20
3.574465
 30
0.0
 10
3.332141
 20
3.579575
 30
0.0
 10
3.320073
 20
3.588308
 30
0.0
 10
3.311115
 20
3.600665
 30
0.0
  0
SPLINE
  5
170
100
AcDbEntity
  8
Layer_1
 62
3
100
AcDbSpline
 70
8
 71
3
 72
8
 73
4
 74
0
 40
0
 40
0
 40
0
 40
0
 40
1
 40
1
 40
1
 40
1
 10
3.311115
 20
3.600665
 30
0.0
 10
3.308339
 20
3.598032
 30
0.0
 10
3.305376
 20
3.595933
 30
0.0
 10
3.302226
 20
3.594370
 30
0.0
  0
SPLINE
  5
171
100
AcDbEntity
  8
Layer_1
 62
3
100
AcDbSpline
 70
8
 71
3
 72
8
 73
4
 74
0
 40
0
 40
0
 40
0
 40
0
 40
1
 40
1
 40
1
 40
1
 10
3.302226
 20
3.594370
 30
0.0
 10
3.298446
 20
3.592494
 30
0.0
 10
3.294624
 20
3.592207
 30
0.0
 10
3.290759
 20
3.593509
 30
0.0
  0
SPLINE
  5
172
100
AcDbEntity
  8
Layer_1
 62
3
100
AcDbSpline
 70
8
 71
3
 72
8
 73
4
 74
0
 40
0
 40
0
 40
0
 40
0
 40
1
 40
1
 40
1
 40
1
 10
3.290759
 20
3.593509
 30
0.0
 10
3.286894
 20
3.594810
 30
0.0
 10
3.284008
 20
3.597303
 30
0.0
 10
3.282100
 20
3.600989
 30
0.0
  0
SPLINE
  5
173
100
AcDbEntity
  8
Layer_1
 62
3
100
AcDbSpline
 70
8
 71
3
 72
8
 73
4
 74
0
 40
0
 40
0
 40
0
 40
0
 40
1
 40
1
 40
1
 40
1
 10
3.282100
 20
3.600989
 30
0.0
 10
3.280319
 20
3.604738
 30
0.0
 10
3.280079
 20
3.608544
 30
0.0
 10
3.281380
 20
3.612409
 30
0.0
  0
SPLINE
  5
174
100
AcDbEntity
  8
Layer_1
 62
3
100
AcDbSpline
 70
8
 71
3
 72
8
 73
4
 74
0
 40
0
 40
0
 40
0
 40
0
 40
1
 40
1
 40
1
 40
1
 10
3.281380
 20
3.612409
 30
0.0
 10
3.282681
 20
3.616274
 30
0.0
 10
3.286154
 20
3.620352
 30
0.0
 10
3.291797
 20
3.624644
 30
0.0
  0
LINE
  5
175
100
AcDbEntity
  8
Layer_1
 62
3
100
AcDbLine
 10
3.291797
 20
3.624644
 30
0.0
 11
3.297946
 21
3.629816
 31
0.0
  0
SPLINE
  5
176
100
AcDbEntity
  8
Layer_1
 62
3
100
AcDbSpline
 70
8
 71
3
 72
8
 73
4
 74
0
 40
0
 40
0
 40
0
 40
0
 40
1
 40
1
 40
1
 40
1
 10
3.297946
 20
3.629816
 30
0.0
 10
3.295123
 20
3.642626
 30
0.0
 10
3.295949
 20
3.655677
 30
0.0
 10
3.300424
 20
3.668968
 30
0.0
  0
LINE
  5
177
100
AcDbEntity
  8
Layer_1
 62
3
100
AcDbLine
 10
3.300424
 20
3.668968
 30
0.0
 11
3.324229
 21
3.739666
 31
0.0
  0
SPLINE
  5
178
100
AcDbEntity
  8
Layer_1
 62
3
100
AcDbSpline
 70
8
 71
3
 72
8
 73
4
 74
0
 40
0
 40
0
 40
0
 40
0
 40
1
 40
1
 40
1
 40
1
 10
3.324229
 20
3.739666
 30
0.0
 10
3.330799
 20
3.759179
 30
0.0
 10
3.343282
 20
3.773500
 30
0.0
 10
3.361679
 20
3.782628
 30
0.0
  0
SPLINE
  5
179
100
AcDbEntity
  8
Layer_1
 62
3
100
AcDbSpline
 70
8
 71
3
 72
8
 73
4
 74
0
 40
0
 40
0
 40
0
 40
0
 40
1
 40
1
 40
1
 40
1
 10
3.361679
 20
3.782628
 30
0.0
 10
3.380202
 20
3.791820
 30
0.0
 10
3.399219
 20
3.793130
 30
0.0
 10
3.418732
 20
3.786560
 30
0.0
  0
SPLINE
  5
17a
100
AcDbEntity
  8
Layer_1
 62
3
100
AcDbSpline
 70
8
 71
3
 72
8
 73
4
 74
0
 40
0
 40
0
 40
0
 40
0
 40
1
 40
1
 40
1
 40
1
 10
3.418732
 20
3.786560
 30
0.0
 10
3.433909
 20
3.781450
 30
0.0
 10
3.445976
 20
3.772716
 30
0.0
 10
3.454934
 20
3.760359
 30
0.0
  0
SPLINE
  5
17b
100
AcDbEntity
  8
Layer_1
 62
3
100
AcDbSpline
 70
8
 71
3
 72
8
 73
4
 74
0
 40
0
 40
0
 40
0
 40
0
 40
1
 40
1
 40
1
 40
1
 10
3.454934
 20
3.760359
 30
0.0
 10
3.457710
 20
3.762993
 30
0.0
 10
3.460736
 20
3.765123
 30
0.0
 10
3.464012
 20
3.766748
 30
0.0
  0
SPLINE
  5
17c
100
AcDbEntity
  8
Layer_1
 62
3
100
AcDbSpline
 70
8
 71
3
 72
8
 73
4
 74
0
 40
0
 40
0
 40
0
 40
0
 40
1
 40
1
 40
1
 40
1
 10
3.464012
 20
3.766748
 30
0.0
 10
3.467666
 20
3.768561
 30
0.0
 10
3.471426
 20
3.768817
 30
0.0
 10
3.475291
 20
3.767516
 30
0.0
  0
SPLINE
  5
17d
100
AcDbEntity
  8
Layer_1
 62
3
100
AcDbSpline
 70
8
 71
3
 72
8
 73
4
 74
0
 40
0
 40
0
 40
0
 40
0
 40
1
 40
1
 40
1
 40
1
 10
3.475291
 20
3.767516
 30
0.0
 10
3.479156
 20
3.766215
 30
0.0
 10
3.481979
 20
3.763690
 30
0.0
 10
3.483760
 20
3.759941
 30
0.0
  0
SPLINE
  5
17e
100
AcDbEntity
  8
Layer_1
 62
3
100
AcDbSpline
 70
8
 71
3
 72
8
 73
4
 74
0
 40
0
 40
0
 40
0
 40
0
 40
1
 40
1
 40
1
 40
1
 10
3.483760
 20
3.759941
 30
0.0
 10
3.485668
 20
3.756256
 30
0.0
 10
3.485971
 20
3.752480
 30
0.0
 10
3.484670
 20
3.748615
 30
0.0
  0
SPLINE
  5
17f
100
AcDbEntity
  8
Layer_1
 62
3
100
AcDbSpline
 70
8
 71
3
 72
8
 73
4
 74
0
 40
0
 40
0
 40
0
 40
0
 40
1
 40
1
 40
1
 40
1
 10
3.484670
 20
3.748615
 30
0.0
 10
3.483368
 20
3.744751
 30
0.0
 10
3.479896
 20
3.740672
 30
0.0
 10
3.474253
 20
3.736380
 30
0.0
  0
LINE
  5
180
100
AcDbEntity
  8
Layer_1
 62
3
100
AcDbLine
 10
3.474253
 20
3.736380
 30
0.0
 11
3.468104
 21
3.731209
 31
0.0
  0
LINE
  5
181
100
AcDbEntity
  8
Layer_1
 62
3
100
AcDbLine
 10
3.929157
 20
3.193469
 30
0.0
 11
4.063194
 21
3.288169
 31
0.0
  0
LINE
  5
182
100
AcDbEntity
  8
Layer_1
 62
3
100
AcDbLine
 10
4.063194
 20
3.288169
 30
0.0
 11
4.037367
 21
3.324725
 31
0.0
  0
SPLINE
  5
183
100
AcDbEntity
  8
Layer_1
 62
3
100
AcDbSpline
 70
8
 71
3
 72
8
 73
4
 74
0
 40
0
 40
0
 40
0
 40
0
 40
1
 40
1
 40
1
 40
1
 10
4.037367
 20
3.324725
 30
0.0
 10
4.035013
 20
3.328056
 30
0.0
 10
4.034154
 20
3.331772
 30
0.0
 10
4.034788
 20
3.335873
 30
0.0
  0
SPLINE
  5
184
100
AcDbEntity
  8
Layer_1
 62
3
100
AcDbSpline
 70
8
 71
3
 72
8
 73
4
 74
0
 40
0
 40
0
 40
0
 40
0
 40
1
 40
1
 40
1
 40
1
 10
4.034788
 20
3.335873
 30
0.0
 10
4.035560
 20
3.339951
 30
0.0
 10
4.037612
 20
3.343166
 30
0.0
 10
4.040943
 20
3.345520
 30
0.0
  0
SPLINE
  5
185
100
AcDbEntity
  8
Layer_1
 62
3
100
AcDbSpline
 70
8
 71
3
 72
8
 73
4
 74
0
 40
0
 40
0
 40
0
 40
0
 40
1
 40
1
 40
1
 40
1
 10
4.040943
 20
3.345520
 30
0.0
 10
4.044273
 20
3.347873
 30
0.0
 10
4.047949
 20
3.348704
 30
0.0
 10
4.051969
 20
3.348012
 30
0.0
  0
SPLINE
  5
186
100
AcDbEntity
  8
Layer_1
 62
3
100
AcDbSpline
 70
8
 71
3
 72
8
 73
4
 74
0
 40
0
 40
0
 40
0
 40
0
 40
1
 40
1
 40
1
 40
1
 10
4.051969
 20
3.348012
 30
0.0
 10
4.056128
 20
3.347297
 30
0.0
 10
4.059384
 20
3.345274
 30
0.0
 10
4.061737
 20
3.341943
 30
0.0
  0
LINE
  5
187
100
AcDbEntity
  8
Layer_1
 62
3
100
AcDbLine
 10
4.061737
 20
3.341943
 30
0.0
 11
4.096174
 21
3.293203
 31
0.0
  0
SPLINE
  5
188
100
AcDbEntity
  8
Layer_1
 62
3
100
AcDbSpline
 70
8
 71
3
 72
8
 73
4
 74
0
 40
0
 40
0
 40
0
 40
0
 40
1
 40
1
 40
1
 40
1
 10
4.096174
 20
3.293203
 30
0.0
 10
4.098527
 20
3.289872
 30
0.0
 10
4.099317
 20
3.286168
 30
0.0
 10
4.098544
 20
3.282090
 30
0.0
  0
SPLINE
  5
189
100
AcDbEntity
  8
Layer_1
 62
3
100
AcDbSpline
 70
8
 71
3
 72
8
 73
4
 74
0
 40
0
 40
0
 40
0
 40
0
 40
1
 40
1
 40
1
 40
1
 10
4.098544
 20
3.282090
 30
0.0
 10
4.097911
 20
3.277989
 30
0.0
 10
4.095928
 20
3.274761
 30
0.0
 10
4.092598
 20
3.272408
 30
0.0
  0
LINE
  5
18a
100
AcDbEntity
  8
Layer_1
 62
3
100
AcDbLine
 10
4.092598
 20
3.272408
 30
0.0
 11
3.946375
 21
3.169098
 31
0.0
  0
LINE
  5
18b
100
AcDbEntity
  8
Layer_1
 62
3
100
AcDbLine
 10
3.946375
 20
3.169098
 30
0.0
 11
3.972202
 21
3.132542
 31
0.0
  0
SPLINE
  5
18c
100
AcDbEntity
  8
Layer_1
 62
3
100
AcDbSpline
 70
8
 71
3
 72
8
 73
4
 74
0
 40
0
 40
0
 40
0
 40
0
 40
1
 40
1
 40
1
 40
1
 10
3.972202
 20
3.132542
 30
0.0
 10
3.974556
 20
3.129212
 30
0.0
 10
3.975346
 20
3.125508
 30
0.0
 10
3.974573
 20
3.121430
 30
0.0
  0
SPLINE
  5
18d
100
AcDbEntity
  8
Layer_1
 62
3
100
AcDbSpline
 70
8
 71
3
 72
8
 73
4
 74
0
 40
0
 40
0
 40
0
 40
0
 40
1
 40
1
 40
1
 40
1
 10
3.974573
 20
3.121430
 30
0.0
 10
3.973939
 20
3.117329
 30
0.0
 10
3.971957
 20
3.114101
 30
0.0
 10
3.968626
 20
3.111748
 30
0.0
  0
SPLINE
  5
18e
100
AcDbEntity
  8
Layer_1
 62
3
100
AcDbSpline
 70
8
 71
3
 72
8
 73
4
 74
0
 40
0
 40
0
 40
0
 40
0
 40
1
 40
1
 40
1
 40
1
 10
3.968626
 20
3.111748
 30
0.0
 10
3.965296
 20
3.109395
 30
0.0
 10
3.961551
 20
3.108576
 30
0.0
 10
3.957392
 20
3.109291
 30
0.0
  0
SPLINE
  5
18f
100
AcDbEntity
  8
Layer_1
 62
3
100
AcDbSpline
 70
8
 71
3
 72
8
 73
4
 74
0
 40
0
 40
0
 40
0
 40
0
 40
1
 40
1
 40
1
 40
1
 10
3.957392
 20
3.109291
 30
0.0
 10
3.953372
 20
3.109982
 30
0.0
 10
3.950185
 20
3.111993
 30
0.0
 10
3.947832
 20
3.115324
 30
0.0
  0
LINE
  5
190
100
AcDbEntity
  8
Layer_1
 62
3
100
AcDbLine
 10
3.947832
 20
3.115324
 30
0.0
 11
3.878959
 21
3.212806
 31
0.0
  0
SPLINE
  5
191
100
AcDbEntity
  8
Layer_1
 62
3
100
AcDbSpline
 70
8
 71
3
 72
8
 73
4
 74
0
 40
0
 40
0
 40
0
 40
0
 40
1
 40
1
 40
1
 40
1
 10
3.878959
 20
3.212806
 30
0.0
 10
3.876605
 20
3.216137
 30
0.0
 10
3.875746
 20
3.219853
 30
0.0
 10
3.876380
 20
3.223954
 30
0.0
  0
SPLINE
  5
192
100
AcDbEntity
  8
Layer_1
 62
3
100
AcDbSpline
 70
8
 71
3
 72
8
 73
4
 74
0
 40
0
 40
0
 40
0
 40
0
 40
1
 40
1
 40
1
 40
1
 10
3.876380
 20
3.223954
 30
0.0
 10
3.877152
 20
3.228032
 30
0.0
 10
3.879204
 20
3.231247
 30
0.0
 10
3.882535
 20
3.233600
 30
0.0
  0
SPLINE
  5
193
100
AcDbEntity
  8
Layer_1
 62
3
100
AcDbSpline
 70
8
 71
3
 72
8
 73
4
 74
0
 40
0
 40
0
 40
0
 40
0
 40
1
 40
1
 40
1
 40
1
 10
3.882535
 20
3.233600
 30
0.0
 10
3.885865
 20
3.235954
 30
0.0
 10
3.889541
 20
3.236784
 30
0.0
 10
3.893561
 20
3.236093
 30
0.0
  0
SPLINE
  5
194
100
AcDbEntity
  8
Layer_1
 62
3
100
AcDbSpline
 70
8
 71
3
 72
8
 73
4
 74
0
 40
0
 40
0
 40
0
 40
0
 40
1
 40
1
 40
1
 40
1
 10
3.893561
 20
3.236093
 30
0.0
 10
3.897720
 20
3.235378
 30
0.0
 10
3.900976
 20
3.233355
 30
0.0
 10
3.903329
 20
3.230024
 30
0.0
  0
LINE
  5
195
100
AcDbEntity
  8
Layer_1
 62
3
100
AcDbLine
 10
3.903329
 20
3.230024
 30
0.0
 11
3.929157
 21
3.193469
 31
0.0
  0
SPLINE
  5
196
100
AcDbEntity
  8
Layer_1
 62
3
100
AcDbSpline
 70
8
 71
3
 72
8
 73
4
 74
0
 40
0
 40
0
 40
0
 40
0
 40
1
 40
1
 40
1
 40
1
 10
4.194081
 20
2.572678
 30
0.0
 10
4.211585
 20
2.572418
 30
0.0
 10
4.226411
 20
2.566030
 30
0.0
 10
4.238560
 20
2.553515
 30
0.0
  0
SPLINE
  5
197
100
AcDbEntity
  8
Layer_1
 62
3
100
AcDbSpline
 70
8
 71
3
 72
8
 73
4
 74
0
 40
0
 40
0
 40
0
 40
0
 40
1
 40
1
 40
1
 40
1
 10
4.238560
 20
2.553515
 30
0.0
 10
4.250808
 20
2.540898
 30
0.0
 10
4.256801
 20
2.525838
 30
0.0
 10
4.256541
 20
2.508335
 30
0.0
  0
LINE
  5
198
100
AcDbEntity
  8
Layer_1
 62
3
100
AcDbLine
 10
4.256541
 20
2.508335
 30
0.0
 11
4.256209
 21
2.485958
 31
0.0
  0
SPLINE
  5
199
100
AcDbEntity
  8
Layer_1
 62
3
100
AcDbSpline
 70
8
 71
3
 72
8
 73
4
 74
0
 40
0
 40
0
 40
0
 40
0
 40
1
 40
1
 40
1
 40
1
 10
4.256209
 20
2.485958
 30
0.0
 10
4.256071
 20
2.476708
 30
0.0
 10
4.259236
 20
2.468753
 30
0.0
 10
4.265702
 20
2.462091
 30
0.0
  0
SPLINE
  5
19a
100
AcDbEntity
  8
Layer_1
 62
3
100
AcDbSpline
 70
8
 71
3
 72
8
 73
4
 74
0
 40
0
 40
0
 40
0
 40
0
 40
1
 40
1
 40
1
 40
1
 10
4.265702
 20
2.462091
 30
0.0
 10
4.272169
 20
2.455430
 30
0.0
 10
4.280026
 20
2.452031
 30
0.0
 10
4.289276
 20
2.451893
 30
0.0
  0
SPLINE
  5
19b
100
AcDbEntity
  8
Layer_1
 62
3
100
AcDbSpline
 70
8
 71
3
 72
8
 73
4
 74
0
 40
0
 40
0
 40
0
 40
0
 40
1
 40
1
 40
1
 40
1
 10
4.289276
 20
2.451893
 30
0.0
 10
4.298525
 20
2.451756
 30
0.0
 10
4.306480
 20
2.454920
 30
0.0
 10
4.313142
 20
2.461387
 30
0.0
  0
SPLINE
  5
19c
100
AcDbEntity
  8
Layer_1
 62
3
100
AcDbSpline
 70
8
 71
3
 72
8
 73
4
 74
0
 40
0
 40
0
 40
0
 40
0
 40
1
 40
1
 40
1
 40
1
 10
4.313142
 20
2.461387
 30
0.0
 10
4.319803
 20
2.467853
 30
0.0
 10
4.323203
 20
2.475711
 30
0.0
 10
4.323340
 20
2.484960
 30
0.0
  0
LINE
  5
19d
100
AcDbEntity
  8
Layer_1
 62
3
100
AcDbLine
 10
4.323340
 20
2.484960
 30
0.0
 11
4.323672
 21
2.507337
 31
0.0
  0
SPLINE
  5
19e
100
AcDbEntity
  8
Layer_1
 62
3
100
AcDbSpline
 70
8
 71
3
 72
8
 73
4
 74
0
 40
0
 40
0
 40
0
 40
0
 40
1
 40
1
 40
1
 40
1
 10
4.323672
 20
2.507337
 30
0.0
 10
4.323810
 20
2.516587
 30
0.0
 10
4.320645
 20
2.524542
 30
0.0
 10
4.314179
 20
2.531203
 30
0.0
  0
SPLINE
  5
19f
100
AcDbEntity
  8
Layer_1
 62
3
100
AcDbSpline
 70
8
 71
3
 72
8
 73
4
 74
0
 40
0
 40
0
 40
0
 40
0
 40
1
 40
1
 40
1
 40
1
 10
4.314179
 20
2.531203
 30
0.0
 10
4.307712
 20
2.537865
 30
0.0
 10
4.299854
 20
2.541264
 30
0.0
 10
4.290605
 20
2.541402
 30
0.0
  0
SPLINE
  5
1a0
100
AcDbEntity
  8
Layer_1
 62
3
100
AcDbSpline
 70
8
 71
3
 72
8
 73
4
 74
0
 40
0
 40
0
 40
0
 40
0
 40
1
 40
1
 40
1
 40
1
 10
4.290605
 20
2.541402
 30
0.0
 10
4.286528
 20
2.541462
 30
0.0
 10
4.283019
 20
2.543006
 30
0.0
 10
4.280080
 20
2.546034
 30
0.0
  0
SPLINE
  5
1a1
100
AcDbEntity
  8
Layer_1
 62
3
100
AcDbSpline
 70
8
 71
3
 72
8
 73
4
 74
0
 40
0
 40
0
 40
0
 40
0
 40
1
 40
1
 40
1
 40
1
 10
4.280080
 20
2.546034
 30
0.0
 10
4.277239
 20
2.548961
 30
0.0
 10
4.275848
 20
2.552464
 30
0.0
 10
4.275909
 20
2.556541
 30
0.0
  0
SPLINE
  5
1a2
100
AcDbEntity
  8
Layer_1
 62
3
100
AcDbSpline
 70
8
 71
3
 72
8
 73
4
 74
0
 40
0
 40
0
 40
0
 40
0
 40
1
 40
1
 40
1
 40
1
 10
4.275909
 20
2.556541
 30
0.0
 10
4.275969
 20
2.560619
 30
0.0
 10
4.277464
 20
2.564128
 30
0.0
 10
4.280392
 20
2.567069
 30
0.0
  0
SPLINE
  5
1a3
100
AcDbEntity
  8
Layer_1
 62
3
100
AcDbSpline
 70
8
 71
3
 72
8
 73
4
 74
0
 40
0
 40
0
 40
0
 40
0
 40
1
 40
1
 40
1
 40
1
 10
4.280392
 20
2.567069
 30
0.0
 10
4.283419
 20
2.569909
 30
0.0
 10
4.286971
 20
2.571298
 30
0.0
 10
4.291048
 20
2.571238
 30
0.0
  0
SPLINE
  5
1a4
100
AcDbEntity
  8
Layer_1
 62
3
100
AcDbSpline
 70
8
 71
3
 72
8
 73
4
 74
0
 40
0
 40
0
 40
0
 40
0
 40
1
 40
1
 40
1
 40
1
 10
4.291048
 20
2.571238
 30
0.0
 10
4.308552
 20
2.570978
 30
0.0
 10
4.323379
 20
2.564590
 30
0.0
 10
4.335528
 20
2.552075
 30
0.0
  0
SPLINE
  5
1a5
100
AcDbEntity
  8
Layer_1
 62
3
100
AcDbSpline
 70
8
 71
3
 72
8
 73
4
 74
0
 40
0
 40
0
 40
0
 40
0
 40
1
 40
1
 40
1
 40
1
 10
4.335528
 20
2.552075
 30
0.0
 10
4.347775
 20
2.539458
 30
0.0
 10
4.353768
 20
2.524398
 30
0.0
 10
4.353508
 20
2.506894
 30
0.0
  0
LINE
  5
1a6
100
AcDbEntity
  8
Layer_1
 62
3
100
AcDbLine
 10
4.353508
 20
2.506894
 30
0.0
 11
4.353176
 21
2.484517
 31
0.0
  0
SPLINE
  5
1a7
100
AcDbEntity
  8
Layer_1
 62
3
100
AcDbSpline
 70
8
 71
3
 72
8
 73
4
 74
0
 40
0
 40
0
 40
0
 40
0
 40
1
 40
1
 40
1
 40
1
 10
4.353176
 20
2.484517
 30
0.0
 10
4.352916
 20
2.467013
 30
0.0
 10
4.346479
 20
2.452188
 30
0.0
 10
4.333864
 20
2.440040
 30
0.0
  0
SPLINE
  5
1a8
100
AcDbEntity
  8
Layer_1
 62
3
100
AcDbSpline
 70
8
 71
3
 72
8
 73
4
 74
0
 40
0
 40
0
 40
0
 40
0
 40
1
 40
1
 40
1
 40
1
 10
4.333864
 20
2.440040
 30
0.0
 10
4.321347
 20
2.427791
 30
0.0
 10
4.306336
 20
2.421797
 30
0.0
 10
4.288833
 20
2.422057
 30
0.0
  0
SPLINE
  5
1a9
100
AcDbEntity
  8
Layer_1
 62
3
100
AcDbSpline
 70
8
 71
3
 72
8
 73
4
 74
0
 40
0
 40
0
 40
0
 40
0
 40
1
 40
1
 40
1
 40
1
 10
4.288833
 20
2.422057
 30
0.0
 10
4.271329
 20
2.422317
 30
0.0
 10
4.256453
 20
2.428755
 30
0.0
 10
4.244206
 20
2.441372
 30
0.0
  0
SPLINE
  5
1aa
100
AcDbEntity
  8
Layer_1
 62
3
100
AcDbSpline
 70
8
 71
3
 72
8
 73
4
 74
0
 40
0
 40
0
 40
0
 40
0
 40
1
 40
1
 40
1
 40
1
 10
4.244206
 20
2.441372
 30
0.0
 10
4.232057
 20
2.453887
 30
0.0
 10
4.226113
 20
2.468897
 30
0.0
 10
4.226373
 20
2.486401
 30
0.0
  0
LINE
  5
1ab
100
AcDbEntity
  8
Layer_1
 62
3
100
AcDbLine
 10
4.226373
 20
2.486401
 30
0.0
 11
4.226705
 21
2.508778
 31
0.0
  0
SPLINE
  5
1ac
100
AcDbEntity
  8
Layer_1
 62
3
100
AcDbSpline
 70
8
 71
3
 72
8
 73
4
 74
0
 40
0
 40
0
 40
0
 40
0
 40
1
 40
1
 40
1
 40
1
 10
4.226705
 20
2.508778
 30
0.0
 10
4.226842
 20
2.518027
 30
0.0
 10
4.223678
 20
2.525982
 30
0.0
 10
4.217211
 20
2.532644
 30
0.0
  0
SPLINE
  5
1ad
100
AcDbEntity
  8
Layer_1
 62
3
100
AcDbSpline
 70
8
 71
3
 72
8
 73
4
 74
0
 40
0
 40
0
 40
0
 40
0
 40
1
 40
1
 40
1
 40
1
 10
4.217211
 20
2.532644
 30
0.0
 10
4.210745
 20
2.539305
 30
0.0
 10
4.202887
 20
2.542705
 30
0.0
 10
4.193638
 20
2.542842
 30
0.0
  0
LINE
  5
1ae
100
AcDbEntity
  8
Layer_1
 62
3
100
AcDbLine
 10
4.193638
 20
2.542842
 30
0.0
 11
4.160072
 21
2.543341
 31
0.0
  0
LINE
  5
1af
100
AcDbEntity
  8
Layer_1
 62
3
100
AcDbLine
 10
4.160072
 20
2.543341
 30
0.0
 11
4.158521
 21
2.438914
 31
0.0
  0
SPLINE
  5
1b0
100
AcDbEntity
  8
Layer_1
 62
3
100
AcDbSpline
 70
8
 71
3
 72
8
 73
4
 74
0
 40
0
 40
0
 40
0
 40
0
 40
1
 40
1
 40
1
 40
1
 10
4.158521
 20
2.438914
 30
0.0
 10
4.158461
 20
2.434837
 30
0.0
 10
4.156917
 20
2.431378
 30
0.0
 10
4.153891
 20
2.428538
 30
0.0
  0
SPLINE
  5
1b1
100
AcDbEntity
  8
Layer_1
 62
3
100
AcDbSpline
 70
8
 71
3
 72
8
 73
4
 74
0
 40
0
 40
0
 40
0
 40
0
 40
1
 40
1
 40
1
 40
1
 10
4.153891
 20
2.428538
 30
0.0
 10
4.150962
 20
2.425597
 30
0.0
 10
4.147459
 20
2.424157
 30
0.0
 10
4.143381
 20
2.424218
 30
0.0
  0
SPLINE
  5
1b2
100
AcDbEntity
  8
Layer_1
 62
3
100
AcDbSpline
 70
8
 71
3
 72
8
 73
4
 74
0
 40
0
 40
0
 40
0
 40
0
 40
1
 40
1
 40
1
 40
1
 10
4.143381
 20
2.424218
 30
0.0
 10
4.139304
 20
2.424278
 30
0.0
 10
4.135795
 20
2.425822
 30
0.0
 10
4.132856
 20
2.428850
 30
0.0
  0
SPLINE
  5
1b3
100
AcDbEntity
  8
Layer_1
 62
3
100
AcDbSpline
 70
8
 71
3
 72
8
 73
4
 74
0
 40
0
 40
0
 40
0
 40
0
 40
1
 40
1
 40
1
 40
1
 10
4.132856
 20
2.428850
 30
0.0
 10
4.130015
 20
2.431777
 30
0.0
 10
4.128624
 20
2.435280
 30
0.0
 10
4.128685
 20
2.439357
 30
0.0
  0
LINE
  5
1b4
100
AcDbEntity
  8
Layer_1
 62
3
100
AcDbLine
 10
4.128685
 20
2.439357
 30
0.0
 11
4.130458
 21
2.558702
 31
0.0
  0
SPLINE
  5
1b5
100
AcDbEntity
  8
Layer_1
 62
3
100
AcDbSpline
 70
8
 71
3
 72
8
 73
4
 74
0
 40
0
 40
0
 40
0
 40
0
 40
1
 40
1
 40
1
 40
1
 10
4.130458
 20
2.558702
 30
0.0
 10
4.130518
 20
2.562779
 30
0.0
 10
4.132013
 20
2.566289
 30
0.0
 10
4.134941
 20
2.569229
 30
0.0
  0
SPLINE
  5
1b6
100
AcDbEntity
  8
Layer_1
 62
3
100
AcDbSpline
 70
8
 71
3
 72
8
 73
4
 74
0
 40
0
 40
0
 40
0
 40
0
 40
1
 40
1
 40
1
 40
1
 10
4.134941
 20
2.569229
 30
0.0
 10
4.137968
 20
2.572069
 30
0.0
 10
4.141520
 20
2.573459
 30
0.0
 10
4.145597
 20
2.573398
 30
0.0
  0
LINE
  5
1b7
100
AcDbEntity
  8
Layer_1
 62
3
100
AcDbLine
 10
4.145597
 20
2.573398
 30
0.0
 11
4.194081
 21
2.572678
 31
0.0
  0
SPLINE
  5
1b8
100
AcDbEntity
  8
Layer_1
 62
3
100
AcDbSpline
 70
8
 71
3
 72
8
 73
4
 74
0
 40
0
 40
0
 40
0
 40
0
 40
1
 40
1
 40
1
 40
1
 10
4.008012
 20
1.855776
 30
0.0
 10
4.011273
 20
1.853327
 30
0.0
 10
4.013191
 20
1.850084
 30
0.0
 10
4.013766
 20
1.846045
 30
0.0
  0
SPLINE
  5
1b9
100
AcDbEntity
  8
Layer_1
 62
3
100
AcDbSpline
 70
8
 71
3
 72
8
 73
4
 74
0
 40
0
 40
0
 40
0
 40
0
 40
1
 40
1
 40
1
 40
1
 10
4.013766
 20
1.846045
 30
0.0
 10
4.014360
 20
1.841867
 30
0.0
 10
4.013434
 20
1.838148
 30
0.0
 10
4.010985
 20
1.834887
 30
0.0
  0
SPLINE
  5
1ba
100
AcDbEntity
  8
Layer_1
 62
3
100
AcDbSpline
 70
8
 71
3
 72
8
 73
4
 74
0
 40
0
 40
0
 40
0
 40
0
 40
1
 40
1
 40
1
 40
1
 10
4.010985
 20
1.834887
 30
0.0
 10
4.008537
 20
1.831626
 30
0.0
 10
4.005253
 20
1.829737
 30
0.0
 10
4.001135
 20
1.829222
 30
0.0
  0
SPLINE
  5
1bb
100
AcDbEntity
  8
Layer_1
 62
3
100
AcDbSpline
 70
8
 71
3
 72
8
 73
4
 74
0
 40
0
 40
0
 40
0
 40
0
 40
1
 40
1
 40
1
 40
1
 10
4.001135
 20
1.829222
 30
0.0
 10
3.997037
 20
1.828568
 30
0.0
 10
3.993357
 20
1.829465
 30
0.0
 10
3.990096
 20
1.831913
 30
0.0
  0
SPLINE
  5
1bc
100
AcDbEntity
  8
Layer_1
 62
3
100
AcDbSpline
 70
8
 71
3
 72
8
 73
4
 74
0
 40
0
 40
0
 40
0
 40
0
 40
1
 40
1
 40
1
 40
1
 10
3.990096
 20
1.831913
 30
0.0
 10
3.982699
 20
1.837467
 30
0.0
 10
3.974404
 20
1.839590
 30
0.0
 10
3.965213
 20
1.838282
 30
0.0
  0
SPLINE
  5
1bd
100
AcDbEntity
  8
Layer_1
 62
3
100
AcDbSpline
 70
8
 71
3
 72
8
 73
4
 74
0
 40
0
 40
0
 40
0
 40
0
 40
1
 40
1
 40
1
 40
1
 10
3.965213
 20
1.838282
 30
0.0
 10
3.956022
 20
1.836973
 30
0.0
 10
3.948649
 20
1.832620
 30
0.0
 10
3.943096
 20
1.825223
 30
0.0
  0
LINE
  5
1be
100
AcDbEntity
  8
Layer_1
 62
3
100
AcDbLine
 10
3.943096
 20
1.825223
 30
0.0
 11
3.929659
 21
1.807326
 31
0.0
  0
SPLINE
  5
1bf
100
AcDbEntity
  8
Layer_1
 62
3
100
AcDbSpline
 70
8
 71
3
 72
8
 73
4
 74
0
 40
0
 40
0
 40
0
 40
0
 40
1
 40
1
 40
1
 40
1
 10
3.929659
 20
1.807326
 30
0.0
 10
3.924105
 20
1.799929
 30
0.0
 10
3.921982
 20
1.791634
 30
0.0
 10
3.923291
 20
1.782443
 30
0.0
  0
SPLINE
  5
1c0
100
AcDbEntity
  8
Layer_1
 62
3
100
AcDbSpline
 70
8
 71
3
 72
8
 73
4
 74
0
 40
0
 40
0
 40
0
 40
0
 40
1
 40
1
 40
1
 40
1
 10
3.923291
 20
1.782443
 30
0.0
 10
3.924599
 20
1.773252
 30
0.0
 10
3.928952
 20
1.765880
 30
0.0
 10
3.936349
 20
1.760326
 30
0.0
  0
SPLINE
  5
1c1
100
AcDbEntity
  8
Layer_1
 62
3
100
AcDbSpline
 70
8
 71
3
 72
8
 73
4
 74
0
 40
0
 40
0
 40
0
 40
0
 40
1
 40
1
 40
1
 40
1
 10
3.936349
 20
1.760326
 30
0.0
 10
3.943747
 20
1.754772
 30
0.0
 10
3.952041
 20
1.752649
 30
0.0
 10
3.961232
 20
1.753957
 30
0.0
  0
SPLINE
  5
1c2
100
AcDbEntity
  8
Layer_1
 62
3
100
AcDbSpline
 70
8
 71
3
 72
8
 73
4
 74
0
 40
0
 40
0
 40
0
 40
0
 40
1
 40
1
 40
1
 40
1
 10
3.961232
 20
1.753957
 30
0.0
 10
3.970423
 20
1.755266
 30
0.0
 10
3.977796
 20
1.759619
 30
0.0
 10
3.983350
 20
1.767016
 30
0.0
  0
LINE
  5
1c3
100
AcDbEntity
  8
Layer_1
 62
3
100
AcDbLine
 10
3.983350
 20
1.767016
 30
0.0
 11
3.999026
 21
1.787896
 31
0.0
  0
SPLINE
  5
1c4
100
AcDbEntity
  8
Layer_1
 62
3
100
AcDbSpline
 70
8
 71
3
 72
8
 73
4
 74
0
 40
0
 40
0
 40
0
 40
0
 40
1
 40
1
 40
1
 40
1
 10
3.999026
 20
1.787896
 30
0.0
 10
4.001474
 20
1.791157
 30
0.0
 10
4.004748
 20
1.793115
 30
0.0
 10
4.008846
 20
1.793769
 30
0.0
  0
SPLINE
  5
1c5
100
AcDbEntity
  8
Layer_1
 62
3
100
AcDbSpline
 70
8
 71
3
 72
8
 73
4
 74
0
 40
0
 40
0
 40
0
 40
0
 40
1
 40
1
 40
1
 40
1
 10
4.008846
 20
1.793769
 30
0.0
 10
4.012964
 20
1.794284
 30
0.0
 10
4.016654
 20
1.793318
 30
0.0
 10
4.019915
 20
1.790869
 30
0.0
  0
SPLINE
  5
1c6
100
AcDbEntity
  8
Layer_1
 62
3
100
AcDbSpline
 70
8
 71
3
 72
8
 73
4
 74
0
 40
0
 40
0
 40
0
 40
0
 40
1
 40
1
 40
1
 40
1
 10
4.019915
 20
1.790869
 30
0.0
 10
4.023176
 20
1.788421
 30
0.0
 10
4.025094
 20
1.785177
 30
0.0
 10
4.025669
 20
1.781139
 30
0.0
  0
SPLINE
  5
1c7
100
AcDbEntity
  8
Layer_1
 62
3
100
AcDbSpline
 70
8
 71
3
 72
8
 73
4
 74
0
 40
0
 40
0
 40
0
 40
0
 40
1
 40
1
 40
1
 40
1
 10
4.025669
 20
1.781139
 30
0.0
 10
4.026264
 20
1.776961
 30
0.0
 10
4.025337
 20
1.773241
 30
0.0
 10
4.022888
 20
1.769980
 30
0.0
  0
LINE
  5
1c8
100
AcDbEntity
  8
Layer_1
 62
3
100
AcDbLine
 10
4.022888
 20
1.769980
 30
0.0
 11
4.007212
 21
1.749100
 31
0.0
  0
SPLINE
  5
1c9
100
AcDbEntity
  8
Layer_1
 62
3
100
AcDbSpline
 70
8
 71
3
 72
8
 73
4
 74
0
 40
0
 40
0
 40
0
 40
0
 40
1
 40
1
 40
1
 40
1
 10
4.007212
 20
1.749100
 30
0.0
 10
4.001658
 20
1.741703
 30
0.0
 10
3.999535
 20
1.733409
 30
0.0
 10
4.000844
 20
1.724217
 30
0.0
  0
SPLINE
  5
1ca
100
AcDbEntity
  8
Layer_1
 62
3
100
AcDbSpline
 70
8
 71
3
 72
8
 73
4
 74
0
 40
0
 40
0
 40
0
 40
0
 40
1
 40
1
 40
1
 40
1
 10
4.000844
 20
1.724217
 30
0.0
 10
4.002152
 20
1.715026
 30
0.0
 10
4.006505
 20
1.707654
 30
0.0
 10
4.013902
 20
1.702100
 30
0.0
  0
SPLINE
  5
1cb
100
AcDbEntity
  8
Layer_1
 62
3
100
AcDbSpline
 70
8
 71
3
 72
8
 73
4
 74
0
 40
0
 40
0
 40
0
 40
0
 40
1
 40
1
 40
1
 40
1
 10
4.013902
 20
1.702100
 30
0.0
 10
4.021300
 20
1.696546
 30
0.0
 10
4.029594
 20
1.694423
 30
0.0
 10
4.038785
 20
1.695732
 30
0.0
  0
SPLINE
  5
1cc
100
AcDbEntity
  8
Layer_1
 62
3
100
AcDbSpline
 70
8
 71
3
 72
8
 73
4
 74
0
 40
0
 40
0
 40
0
 40
0
 40
1
 40
1
 40
1
 40
1
 10
4.038785
 20
1.695732
 30
0.0
 10
4.047976
 20
1.697040
 30
0.0
 10
4.055349
 20
1.701393
 30
0.0
 10
4.060903
 20
1.708790
 30
0.0
  0
LINE
  5
1cd
100
AcDbEntity
  8
Layer_1
 62
3
100
AcDbLine
 10
4.060903
 20
1.708790
 30
0.0
 11
4.074339
 21
1.726687
 31
0.0
  0
SPLINE
  5
1ce
100
AcDbEntity
  8
Layer_1
 62
3
100
AcDbSpline
 70
8
 71
3
 72
8
 73
4
 74
0
 40
0
 40
0
 40
0
 40
0
 40
1
 40
1
 40
1
 40
1
 10
4.074339
 20
1.726687
 30
0.0
 10
4.079893
 20
1.734084
 30
0.0
 10
4.082016
 20
1.742379
 30
0.0
 10
4.080708
 20
1.751570
 30
0.0
  0
SPLINE
  5
1cf
100
AcDbEntity
  8
Layer_1
 62
3
100
AcDbSpline
 70
8
 71
3
 72
8
 73
4
 74
0
 40
0
 40
0
 40
0
 40
0
 40
1
 40
1
 40
1
 40
1
 10
4.080708
 20
1.751570
 30
0.0
 10
4.079399
 20
1.760761
 30
0.0
 10
4.075047
 20
1.768134
 30
0.0
 10
4.067649
 20
1.773688
 30
0.0
  0
SPLINE
  5
1d0
100
AcDbEntity
  8
Layer_1
 62
3
100
AcDbSpline
 70
8
 71
3
 72
8
 73
4
 74
0
 40
0
 40
0
 40
0
 40
0
 40
1
 40
1
 40
1
 40
1
 10
4.067649
 20
1.773688
 30
0.0
 10
4.064388
 20
1.776136
 30
0.0
 10
4.062460
 20
1.779449
 30
0.0
 10
4.061865
 20
1.783627
 30
0.0
  0
SPLINE
  5
1d1
100
AcDbEntity
  8
Layer_1
 62
3
100
AcDbSpline
 70
8
 71
3
 72
8
 73
4
 74
0
 40
0
 40
0
 40
0
 40
0
 40
1
 40
1
 40
1
 40
1
 10
4.061865
 20
1.783627
 30
0.0
 10
4.061291
 20
1.787665
 30
0.0
 10
4.062227
 20
1.791315
 30
0.0
 10
4.064676
 20
1.794577
 30
0.0
  0
SPLINE
  5
1d2
100
AcDbEntity
  8
Layer_1
 62
3
100
AcDbSpline
 70
8
 71
3
 72
8
 73
4
 74
0
 40
0
 40
0
 40
0
 40
0
 40
1
 40
1
 40
1
 40
1
 10
4.064676
 20
1.794577
 30
0.0
 10
4.067124
 20
1.797838
 30
0.0
 10
4.070398
 20
1.799796
 30
0.0
 10
4.074496
 20
1.800450
 30
0.0
  0
SPLINE
  5
1d3
100
AcDbEntity
  8
Layer_1
 62
3
100
AcDbSpline
 70
8
 71
3
 72
8
 73
4
 74
0
 40
0
 40
0
 40
0
 40
0
 40
1
 40
1
 40
1
 40
1
 10
4.074496
 20
1.800450
 30
0.0
 10
4.078614
 20
1.800965
 30
0.0
 10
4.082304
 20
1.799999
 30
0.0
 10
4.085565
 20
1.797550
 30
0.0
  0
SPLINE
  5
1d4
100
AcDbEntity
  8
Layer_1
 62
3
100
AcDbSpline
 70
8
 71
3
 72
8
 73
4
 74
0
 40
0
 40
0
 40
0
 40
0
 40
1
 40
1
 40
1
 40
1
 10
4.085565
 20
1.797550
 30
0.0
 10
4.099564
 20
1.787040
 30
0.0
 10
4.107793
 20
1.773150
 30
0.0
 10
4.110251
 20
1.755882
 30
0.0
  0
SPLINE
  5
1d5
100
AcDbEntity
  8
Layer_1
 62
3
100
AcDbSpline
 70
8
 71
3
 72
8
 73
4
 74
0
 40
0
 40
0
 40
0
 40
0
 40
1
 40
1
 40
1
 40
1
 10
4.110251
 20
1.755882
 30
0.0
 10
4.112729
 20
1.738474
 30
0.0
 10
4.108713
 20
1.722771
 30
0.0
 10
4.098202
 20
1.708771
 30
0.0
  0
LINE
  5
1d6
100
AcDbEntity
  8
Layer_1
 62
3
100
AcDbLine
 10
4.098202
 20
1.708771
 30
0.0
 11
4.084765
 21
1.690874
 31
0.0
  0
SPLINE
  5
1d7
100
AcDbEntity
  8
Layer_1
 62
3
100
AcDbSpline
 70
8
 71
3
 72
8
 73
4
 74
0
 40
0
 40
0
 40
0
 40
0
 40
1
 40
1
 40
1
 40
1
 10
4.084765
 20
1.690874
 30
0.0
 10
4.074255
 20
1.676875
 30
0.0
 10
4.060326
 20
1.668676
 30
0.0
 10
4.042978
 20
1.666278
 30
0.0
  0
SPLINE
  5
1d8
100
AcDbEntity
  8
Layer_1
 62
3
100
AcDbSpline
 70
8
 71
3
 72
8
 73
4
 74
0
 40
0
 40
0
 40
0
 40
0
 40
1
 40
1
 40
1
 40
1
 10
4.042978
 20
1.666278
 30
0.0
 10
4.025650
 20
1.663740
 30
0.0
 10
4.009986
 20
1.667727
 30
0.0
 10
3.995987
 20
1.678237
 30
0.0
  0
SPLINE
  5
1d9
100
AcDbEntity
  8
Layer_1
 62
3
100
AcDbSpline
 70
8
 71
3
 72
8
 73
4
 74
0
 40
0
 40
0
 40
0
 40
0
 40
1
 40
1
 40
1
 40
1
 10
3.995987
 20
1.678237
 30
0.0
 10
3.981987
 20
1.688748
 30
0.0
 10
3.973759
 20
1.702637
 30
0.0
 10
3.971301
 20
1.719906
 30
0.0
  0
SPLINE
  5
1da
100
AcDbEntity
  8
Layer_1
 62
3
100
AcDbSpline
 70
8
 71
3
 72
8
 73
4
 74
0
 40
0
 40
0
 40
0
 40
0
 40
1
 40
1
 40
1
 40
1
 10
3.971301
 20
1.719906
 30
0.0
 10
3.971043
 20
1.721716
 30
0.0
 10
3.970855
 20
1.723536
 30
0.0
 10
3.970736
 20
1.725366
 30
0.0
  0
SPLINE
  5
1db
100
AcDbEntity
  8
Layer_1
 62
3
100
AcDbSpline
 70
8
 71
3
 72
8
 73
4
 74
0
 40
0
 40
0
 40
0
 40
0
 40
1
 40
1
 40
1
 40
1
 10
3.970736
 20
1.725366
 30
0.0
 10
3.968946
 20
1.724969
 30
0.0
 10
3.967185
 20
1.724612
 30
0.0
 10
3.965454
 20
1.724295
 30
0.0
  0
SPLINE
  5
1dc
100
AcDbEntity
  8
Layer_1
 62
3
100
AcDbSpline
 70
8
 71
3
 72
8
 73
4
 74
0
 40
0
 40
0
 40
0
 40
0
 40
1
 40
1
 40
1
 40
1
 10
3.965454
 20
1.724295
 30
0.0
 10
3.948106
 20
1.721897
 30
0.0
 10
3.932433
 20
1.725953
 30
0.0
 10
3.918433
 20
1.736463
 30
0.0
  0
SPLINE
  5
1dd
100
AcDbEntity
  8
Layer_1
 62
3
100
AcDbSpline
 70
8
 71
3
 72
8
 73
4
 74
0
 40
0
 40
0
 40
0
 40
0
 40
1
 40
1
 40
1
 40
1
 10
3.918433
 20
1.736463
 30
0.0
 10
3.904434
 20
1.746974
 30
0.0
 10
3.896195
 20
1.760933
 30
0.0
 10
3.893718
 20
1.778340
 30
0.0
  0
SPLINE
  5
1de
100
AcDbEntity
  8
Layer_1
 62
3
100
AcDbSpline
 70
8
 71
3
 72
8
 73
4
 74
0
 40
0
 40
0
 40
0
 40
0
 40
1
 40
1
 40
1
 40
1
 10
3.893718
 20
1.778340
 30
0.0
 10
3.891260
 20
1.795609
 30
0.0
 10
3.895286
 20
1.811242
 30
0.0
 10
3.905796
 20
1.825242
 30
0.0
  0
LINE
  5
1df
100
AcDbEntity
  8
Layer_1
 62
3
100
AcDbLine
 10
3.905796
 20
1.825242
 30
0.0
 11
3.919233
 21
1.843139
 31
0.0
  0
SPLINE
  5
1e0
100
AcDbEntity
  8
Layer_1
 62
3
100
AcDbSpline
 70
8
 71
3
 72
8
 73
4
 74
0
 40
0
 40
0
 40
0
 40
0
 40
1
 40
1
 40
1
 40
1
 10
3.919233
 20
1.843139
 30
0.0
 10
3.929744
 20
1.857138
 30
0.0
 10
3.943663
 20
1.865406
 30
0.0
 10
3.960991
 20
1.867944
 30
0.0
  0
SPLINE
  5
1e1
100
AcDbEntity
  8
Layer_1
 62
3
100
AcDbSpline
 70
8
 71
3
 72
8
 73
4
 74
0
 40
0
 40
0
 40
0
 40
0
 40
1
 40
1
 40
1
 40
1
 10
3.960991
 20
1.867944
 30
0.0
 10
3.978339
 20
1.870342
 30
0.0
 10
3.994012
 20
1.866286
 30
0.0
 10
4.008012
 20
1.855776
 30
0.0
  0
LINE
  5
1e2
100
AcDbEntity
  8
Layer_1
 62
3
100
AcDbLine
 10
4.008012
 20
1.855776
 30
0.0
 11
4.008012
 21
1.855776
 31
0.0
  0
LINE
  5
1e3
100
AcDbEntity
  8
Layer_1
 62
3
100
AcDbLine
 10
3.364163
 20
1.211965
 30
0.0
 11
3.329062
 21
1.326044
 31
0.0
  0
LINE
  5
1e4
100
AcDbEntity
  8
Layer_1
 62
3
100
AcDbLine
 10
3.329062
 20
1.326044
 30
0.0
 11
3.314802
 21
1.321657
 31
0.0
  0
SPLINE
  5
1e5
100
AcDbEntity
  8
Layer_1
 62
3
100
AcDbSpline
 70
8
 71
3
 72
8
 73
4
 74
0
 40
0
 40
0
 40
0
 40
0
 40
1
 40
1
 40
1
 40
1
 10
3.314802
 20
1.321657
 30
0.0
 10
3.310905
 20
1.320457
 30
0.0
 10
3.307139
 20
1.320860
 30
0.0
 10
3.303504
 20
1.322863
 30
0.0
  0
SPLINE
  5
1e6
100
AcDbEntity
  8
Layer_1
 62
3
100
AcDbSpline
 70
8
 71
3
 72
8
 73
4
 74
0
 40
0
 40
0
 40
0
 40
0
 40
1
 40
1
 40
1
 40
1
 10
3.303504
 20
1.322863
 30
0.0
 10
3.299804
 20
1.324743
 30
0.0
 10
3.297354
 20
1.327631
 30
0.0
 10
3.296155
 20
1.331529
 30
0.0
  0
SPLINE
  5
1e7
100
AcDbEntity
  8
Layer_1
 62
3
100
AcDbSpline
 70
8
 71
3
 72
8
 73
4
 74
0
 40
0
 40
0
 40
0
 40
0
 40
1
 40
1
 40
1
 40
1
 10
3.296155
 20
1.331529
 30
0.0
 10
3.294956
 20
1.335427
 30
0.0
 10
3.295343
 20
1.339241
 30
0.0
 10
3.297318
 20
1.342970
 30
0.0
  0
SPLINE
  5
1e8
100
AcDbEntity
  8
Layer_1
 62
3
100
AcDbSpline
 70
8
 71
3
 72
8
 73
4
 74
0
 40
0
 40
0
 40
0
 40
0
 40
1
 40
1
 40
1
 40
1
 10
3.297318
 20
1.342970
 30
0.0
 10
3.299226
 20
1.346575
 30
0.0
 10
3.302130
 20
1.348977
 30
0.0
 10
3.306027
 20
1.350177
 30
0.0
  0
LINE
  5
1e9
100
AcDbEntity
  8
Layer_1
 62
3
100
AcDbLine
 10
3.306027
 20
1.350177
 30
0.0
 11
3.320287
 21
1.354564
 31
0.0
  0
LINE
  5
1ea
100
AcDbEntity
  8
Layer_1
 62
3
100
AcDbLine
 10
3.320287
 20
1.354564
 30
0.0
 11
3.307125
 21
1.397344
 31
0.0
  0
SPLINE
  5
1eb
100
AcDbEntity
  8
Layer_1
 62
3
100
AcDbSpline
 70
8
 71
3
 72
8
 73
4
 74
0
 40
0
 40
0
 40
0
 40
0
 40
1
 40
1
 40
1
 40
1
 10
3.307125
 20
1.397344
 30
0.0
 10
3.305925
 20
1.401242
 30
0.0
 10
3.306313
 20
1.405056
 30
0.0
 10
3.308287
 20
1.408785
 30
0.0
  0
SPLINE
  5
1ec
100
AcDbEntity
  8
Layer_1
 62
3
100
AcDbSpline
 70
8
 71
3
 72
8
 73
4
 74
0
 40
0
 40
0
 40
0
 40
0
 40
1
 40
1
 40
1
 40
1
 10
3.308287
 20
1.408785
 30
0.0
 10
3.310196
 20
1.412390
 30
0.0
 10
3.313099
 20
1.414792
 30
0.0
 10
3.316997
 20
1.415992
 30
0.0
  0
SPLINE
  5
1ed
100
AcDbEntity
  8
Layer_1
 62
3
100
AcDbSpline
 70
8
 71
3
 72
8
 73
4
 74
0
 40
0
 40
0
 40
0
 40
0
 40
1
 40
1
 40
1
 40
1
 10
3.316997
 20
1.415992
 30
0.0
 10
3.320895
 20
1.417191
 30
0.0
 10
3.324694
 20
1.416851
 30
0.0
 10
3.328394
 20
1.414971
 30
0.0
  0
SPLINE
  5
1ee
100
AcDbEntity
  8
Layer_1
 62
3
100
AcDbSpline
 70
8
 71
3
 72
8
 73
4
 74
0
 40
0
 40
0
 40
0
 40
0
 40
1
 40
1
 40
1
 40
1
 10
3.328394
 20
1.414971
 30
0.0
 10
3.332029
 20
1.412968
 30
0.0
 10
3.334445
 20
1.410017
 30
0.0
 10
3.335645
 20
1.406119
 30
0.0
  0
LINE
  5
1ef
100
AcDbEntity
  8
Layer_1
 62
3
100
AcDbLine
 10
3.335645
 20
1.406119
 30
0.0
 11
3.348807
 21
1.363339
 31
0.0
  0
LINE
  5
1f0
100
AcDbEntity
  8
Layer_1
 62
3
100
AcDbLine
 10
3.348807
 20
1.363339
 30
0.0
 11
3.420107
 21
1.385277
 31
0.0
  0
SPLINE
  5
1f1
100
AcDbEntity
  8
Layer_1
 62
3
100
AcDbSpline
 70
8
 71
3
 72
8
 73
4
 74
0
 40
0
 40
0
 40
0
 40
0
 40
1
 40
1
 40
1
 40
1
 10
3.420107
 20
1.385277
 30
0.0
 10
3.424005
 20
1.386476
 30
0.0
 10
3.427804
 20
1.386136
 30
0.0
 10
3.431504
 20
1.384257
 30
0.0
  0
SPLINE
  5
1f2
100
AcDbEntity
  8
Layer_1
 62
3
100
AcDbSpline
 70
8
 71
3
 72
8
 73
4
 74
0
 40
0
 40
0
 40
0
 40
0
 40
1
 40
1
 40
1
 40
1
 10
3.431504
 20
1.384257
 30
0.0
 10
3.435139
 20
1.382253
 30
0.0
 10
3.437555
 20
1.379302
 30
0.0
 10
3.438755
 20
1.375405
 30
0.0
  0
SPLINE
  5
1f3
100
AcDbEntity
  8
Layer_1
 62
3
100
AcDbSpline
 70
8
 71
3
 72
8
 73
4
 74
0
 40
0
 40
0
 40
0
 40
0
 40
1
 40
1
 40
1
 40
1
 10
3.438755
 20
1.375405
 30
0.0
 10
3.439954
 20
1.371507
 30
0.0
 10
3.439566
 20
1.367693
 30
0.0
 10
3.437592
 20
1.363964
 30
0.0
  0
LINE
  5
1f4
100
AcDbEntity
  8
Layer_1
 62
3
100
AcDbLine
 10
3.437592
 20
1.363964
 30
0.0
 11
3.436846
 21
1.360300
 31
0.0
  0
LINE
  5
1f5
100
AcDbEntity
  8
Layer_1
 62
3
100
AcDbLine
 10
3.436846
 20
1.360300
 30
0.0
 11
3.394866
 21
1.219226
 31
0.0
  0
SPLINE
  5
1f6
100
AcDbEntity
  8
Layer_1
 62
3
100
AcDbSpline
 70
8
 71
3
 72
8
 73
4
 74
0
 40
0
 40
0
 40
0
 40
0
 40
1
 40
1
 40
1
 40
1
 10
3.394866
 20
1.219226
 30
0.0
 10
3.394025
 20
1.215533
 30
0.0
 10
3.393041
 20
1.212472
 30
0.0
 10
3.391915
 20
1.210045
 30
0.0
  0
SPLINE
  5
1f7
100
AcDbEntity
  8
Layer_1
 62
3
100
AcDbSpline
 70
8
 71
3
 72
8
 73
4
 74
0
 40
0
 40
0
 40
0
 40
0
 40
1
 40
1
 40
1
 40
1
 10
3.391915
 20
1.210045
 30
0.0
 10
3.391783
 20
1.209796
 30
0.0
 10
3.391652
 20
1.209547
 30
0.0
 10
3.391520
 20
1.209299
 30
0.0
  0
SPLINE
  5
1f8
100
AcDbEntity
  8
Layer_1
 62
3
100
AcDbSpline
 70
8
 71
3
 72
8
 73
4
 74
0
 40
0
 40
0
 40
0
 40
0
 40
1
 40
1
 40
1
 40
1
 10
3.391520
 20
1.209299
 30
0.0
 10
3.389611
 20
1.205694
 30
0.0
 10
3.386708
 20
1.203291
 30
0.0
 10
3.382810
 20
1.202092
 30
0.0
  0
SPLINE
  5
1f9
100
AcDbEntity
  8
Layer_1
 62
3
100
AcDbSpline
 70
8
 71
3
 72
8
 73
4
 74
0
 40
0
 40
0
 40
0
 40
0
 40
1
 40
1
 40
1
 40
1
 10
3.382810
 20
1.202092
 30
0.0
 10
3.378913
 20
1.200893
 30
0.0
 10
3.375114
 20
1.201233
 30
0.0
 10
3.371413
 20
1.203112
 30
0.0
  0
SPLINE
  5
1fa
100
AcDbEntity
  8
Layer_1
 62
3
100
AcDbSpline
 70
8
 71
3
 72
8
 73
4
 74
0
 40
0
 40
0
 40
0
 40
0
 40
1
 40
1
 40
1
 40
1
 10
3.371413
 20
1.203112
 30
0.0
 10
3.367779
 20
1.205116
 30
0.0
 10
3.365362
 20
1.208067
 30
0.0
 10
3.364163
 20
1.211965
 30
0.0
  0
LINE
  5
1fb
100
AcDbEntity
  8
Layer_1
 62
3
100
AcDbLine
 10
3.364163
 20
1.211965
 30
0.0
 11
3.364163
 21
1.211965
 31
0.0
  0
LINE
  5
1fc
100
AcDbEntity
  8
Layer_1
 62
3
100
AcDbLine
 10
3.402216
 20
1.348552
 30
0.0
 11
3.357582
 21
1.334819
 31
0.0
  0
LINE
  5
1fd
100
AcDbEntity
  8
Layer_1
 62
3
100
AcDbLine
 10
3.357582
 20
1.334819
 30
0.0
 11
3.378204
 21
1.267798
 31
0.0
  0
LINE
  5
1fe
100
AcDbEntity
  8
Layer_1
 62
3
100
AcDbLine
 10
3.378204
 20
1.267798
 30
0.0
 11
3.402216
 21
1.348552
 31
0.0
  0
LINE
  5
1ff
100
AcDbEntity
  8
Layer_1
 62
3
100
AcDbLine
 10
2.625568
 20
1.229675
 30
0.0
 11
2.640115
 21
1.272005
 31
0.0
  0
LINE
  5
200
100
AcDbEntity
  8
Layer_1
 62
3
100
AcDbLine
 10
2.640115
 20
1.272005
 30
0.0
 11
2.587203
 21
1.290188
 31
0.0
  0
SPLINE
  5
201
100
AcDbEntity
  8
Layer_1
 62
3
100
AcDbSpline
 70
8
 71
3
 72
8
 73
4
 74
0
 40
0
 40
0
 40
0
 40
0
 40
1
 40
1
 40
1
 40
1
 10
2.587203
 20
1.290188
 30
0.0
 10
2.570647
 20
1.295877
 30
0.0
 10
2.558558
 20
1.306605
 30
0.0
 10
2.550934
 20
1.322371
 30
0.0
  0
SPLINE
  5
202
100
AcDbEntity
  8
Layer_1
 62
3
100
AcDbSpline
 70
8
 71
3
 72
8
 73
4
 74
0
 40
0
 40
0
 40
0
 40
0
 40
1
 40
1
 40
1
 40
1
 10
2.550934
 20
1.322371
 30
0.0
 10
2.543184
 20
1.338076
 30
0.0
 10
2.542154
 20
1.354206
 30
0.0
 10
2.547843
 20
1.370761
 30
0.0
  0
LINE
  5
203
100
AcDbEntity
  8
Layer_1
 62
3
100
AcDbLine
 10
2.547843
 20
1.370761
 30
0.0
 11
2.555116
 21
1.391926
 31
0.0
  0
SPLINE
  5
204
100
AcDbEntity
  8
Layer_1
 62
3
100
AcDbSpline
 70
8
 71
3
 72
8
 73
4
 74
0
 40
0
 40
0
 40
0
 40
0
 40
1
 40
1
 40
1
 40
1
 10
2.555116
 20
1.391926
 30
0.0
 10
2.560805
 20
1.408482
 30
0.0
 10
2.571549
 20
1.420618
 30
0.0
 10
2.587348
 20
1.428336
 30
0.0
  0
SPLINE
  5
205
100
AcDbEntity
  8
Layer_1
 62
3
100
AcDbSpline
 70
8
 71
3
 72
8
 73
4
 74
0
 40
0
 40
0
 40
0
 40
0
 40
1
 40
1
 40
1
 40
1
 10
2.587348
 20
1.428336
 30
0.0
 10
2.603021
 20
1.435992
 30
0.0
 10
2.619135
 20
1.436975
 30
0.0
 10
2.635690
 20
1.431286
 30
0.0
  0
LINE
  5
206
100
AcDbEntity
  8
Layer_1
 62
3
100
AcDbLine
 10
2.635690
 20
1.431286
 30
0.0
 11
2.656855
 21
1.424013
 31
0.0
  0
SPLINE
  5
207
100
AcDbEntity
  8
Layer_1
 62
3
100
AcDbSpline
 70
8
 71
3
 72
8
 73
4
 74
0
 40
0
 40
0
 40
0
 40
0
 40
1
 40
1
 40
1
 40
1
 10
2.656855
 20
1.424013
 30
0.0
 10
2.673410
 20
1.418324
 30
0.0
 10
2.685563
 20
1.407627
 30
0.0
 10
2.693313
 20
1.391922
 30
0.0
  0
SPLINE
  5
208
100
AcDbEntity
  8
Layer_1
 62
3
100
AcDbSpline
 70
8
 71
3
 72
8
 73
4
 74
0
 40
0
 40
0
 40
0
 40
0
 40
1
 40
1
 40
1
 40
1
 10
2.693313
 20
1.391922
 30
0.0
 10
2.700937
 20
1.376155
 30
0.0
 10
2.701904
 20
1.359994
 30
0.0
 10
2.696215
 20
1.343439
 30
0.0
  0
SPLINE
  5
209
100
AcDbEntity
  8
Layer_1
 62
3
100
AcDbSpline
 70
8
 71
3
 72
8
 73
4
 74
0
 40
0
 40
0
 40
0
 40
0
 40
1
 40
1
 40
1
 40
1
 10
2.696215
 20
1.343439
 30
0.0
 10
2.694889
 20
1.339582
 30
0.0
 10
2.692394
 20
1.336759
 30
0.0
 10
2.688729
 20
1.334968
 30
0.0
  0
SPLINE
  5
20a
100
AcDbEntity
  8
Layer_1
 62
3
100
AcDbSpline
 70
8
 71
3
 72
8
 73
4
 74
0
 40
0
 40
0
 40
0
 40
0
 40
1
 40
1
 40
1
 40
1
 10
2.688729
 20
1.334968
 30
0.0
 10
2.684937
 20
1.333116
 30
0.0
 10
2.681113
 20
1.332852
 30
0.0
 10
2.677256
 20
1.334178
 30
0.0
  0
SPLINE
  5
20b
100
AcDbEntity
  8
Layer_1
 62
3
100
AcDbSpline
 70
8
 71
3
 72
8
 73
4
 74
0
 40
0
 40
0
 40
0
 40
0
 40
1
 40
1
 40
1
 40
1
 10
2.677256
 20
1.334178
 30
0.0
 10
2.673399
 20
1.335503
 30
0.0
 10
2.670592
 20
1.338045
 30
0.0
 10
2.668834
 20
1.341805
 30
0.0
  0
SPLINE
  5
20c
100
AcDbEntity
  8
Layer_1
 62
3
100
AcDbSpline
 70
8
 71
3
 72
8
 73
4
 74
0
 40
0
 40
0
 40
0
 40
0
 40
1
 40
1
 40
1
 40
1
 10
2.668834
 20
1.341805
 30
0.0
 10
2.666949
 20
1.345502
 30
0.0
 10
2.666670
 20
1.349280
 30
0.0
 10
2.667995
 20
1.353136
 30
0.0
  0
SPLINE
  5
20d
100
AcDbEntity
  8
Layer_1
 62
3
100
AcDbSpline
 70
8
 71
3
 72
8
 73
4
 74
0
 40
0
 40
0
 40
0
 40
0
 40
1
 40
1
 40
1
 40
1
 10
2.667995
 20
1.353136
 30
0.0
 10
2.671001
 20
1.361884
 30
0.0
 10
2.670467
 20
1.370429
 30
0.0
 10
2.666392
 20
1.378771
 30
0.0
  0
SPLINE
  5
20e
100
AcDbEntity
  8
Layer_1
 62
3
100
AcDbSpline
 70
8
 71
3
 72
8
 73
4
 74
0
 40
0
 40
0
 40
0
 40
0
 40
1
 40
1
 40
1
 40
1
 10
2.666392
 20
1.378771
 30
0.0
 10
2.662317
 20
1.387113
 30
0.0
 10
2.655906
 20
1.392787
 30
0.0
 10
2.647157
 20
1.395793
 30
0.0
  0
LINE
  5
20f
100
AcDbEntity
  8
Layer_1
 62
3
100
AcDbLine
 10
2.647157
 20
1.395793
 30
0.0
 11
2.625993
 21
1.403066
 31
0.0
  0
SPLINE
  5
210
100
AcDbEntity
  8
Layer_1
 62
3
100
AcDbSpline
 70
8
 71
3
 72
8
 73
4
 74
0
 40
0
 40
0
 40
0
 40
0
 40
1
 40
1
 40
1
 40
1
 10
2.625993
 20
1.403066
 30
0.0
 10
2.617245
 20
1.406072
 30
0.0
 10
2.608700
 20
1.405538
 30
0.0
 10
2.600358
 20
1.401463
 30
0.0
  0
SPLINE
  5
211
100
AcDbEntity
  8
Layer_1
 62
3
100
AcDbSpline
 70
8
 71
3
 72
8
 73
4
 74
0
 40
0
 40
0
 40
0
 40
0
 40
1
 40
1
 40
1
 40
1
 10
2.600358
 20
1.401463
 30
0.0
 10
2.592016
 20
1.397388
 30
0.0
 10
2.586342
 20
1.390977
 30
0.0
 10
2.583336
 20
1.382229
 30
0.0
  0
LINE
  5
212
100
AcDbEntity
  8
Layer_1
 62
3
100
AcDbLine
 10
2.583336
 20
1.382229
 30
0.0
 11
2.576014
 21
1.360923
 31
0.0
  0
SPLINE
  5
213
100
AcDbEntity
  8
Layer_1
 62
3
100
AcDbSpline
 70
8
 71
3
 72
8
 73
4
 74
0
 40
0
 40
0
 40
0
 40
0
 40
1
 40
1
 40
1
 40
1
 10
2.576014
 20
1.360923
 30
0.0
 10
2.573040
 20
1.352269
 30
0.0
 10
2.573591
 20
1.343771
 30
0.0
 10
2.577666
 20
1.335429
 30
0.0
  0
SPLINE
  5
214
100
AcDbEntity
  8
Layer_1
 62
3
100
AcDbSpline
 70
8
 71
3
 72
8
 73
4
 74
0
 40
0
 40
0
 40
0
 40
0
 40
1
 40
1
 40
1
 40
1
 10
2.577666
 20
1.335429
 30
0.0
 10
2.581741
 20
1.327087
 30
0.0
 10
2.588152
 20
1.321413
 30
0.0
 10
2.596900
 20
1.318407
 30
0.0
  0
LINE
  5
215
100
AcDbEntity
  8
Layer_1
 62
3
100
AcDbLine
 10
2.596900
 20
1.318407
 30
0.0
 11
2.663922
 21
1.295376
 31
0.0
  0
SPLINE
  5
216
100
AcDbEntity
  8
Layer_1
 62
3
100
AcDbSpline
 70
8
 71
3
 72
8
 73
4
 74
0
 40
0
 40
0
 40
0
 40
0
 40
1
 40
1
 40
1
 40
1
 10
2.663922
 20
1.295376
 30
0.0
 10
2.667779
 20
1.294050
 30
0.0
 10
2.670649
 20
1.291539
 30
0.0
 10
2.672534
 20
1.287841
 30
0.0
  0
SPLINE
  5
217
100
AcDbEntity
  8
Layer_1
 62
3
100
AcDbSpline
 70
8
 71
3
 72
8
 73
4
 74
0
 40
0
 40
0
 40
0
 40
0
 40
1
 40
1
 40
1
 40
1
 10
2.672534
 20
1.287841
 30
0.0
 10
2.674292
 20
1.284082
 30
0.0
 10
2.674508
 20
1.280274
 30
0.0
 10
2.673183
 20
1.276417
 30
0.0
  0
LINE
  5
218
100
AcDbEntity
  8
Layer_1
 62
3
100
AcDbLine
 10
2.673183
 20
1.276417
 30
0.0
 11
2.648939
 21
1.205868
 31
0.0
  0
SPLINE
  5
219
100
AcDbEntity
  8
Layer_1
 62
3
100
AcDbSpline
 70
8
 71
3
 72
8
 73
4
 74
0
 40
0
 40
0
 40
0
 40
0
 40
1
 40
1
 40
1
 40
1
 10
2.648939
 20
1.205868
 30
0.0
 10
2.647614
 20
1.202011
 30
0.0
 10
2.645119
 20
1.199188
 30
0.0
 10
2.641453
 20
1.197397
 30
0.0
  0
SPLINE
  5
21a
100
AcDbEntity
  8
Layer_1
 62
3
100
AcDbSpline
 70
8
 71
3
 72
8
 73
4
 74
0
 40
0
 40
0
 40
0
 40
0
 40
1
 40
1
 40
1
 40
1
 10
2.641453
 20
1.197397
 30
0.0
 10
2.637662
 20
1.195545
 30
0.0
 10
2.633837
 20
1.195282
 30
0.0
 10
2.629981
 20
1.196607
 30
0.0
  0
LINE
  5
21b
100
AcDbEntity
  8
Layer_1
 62
3
100
AcDbLine
 10
2.629981
 20
1.196607
 30
0.0
 11
2.517102
 21
1.235397
 31
0.0
  0
SPLINE
  5
21c
100
AcDbEntity
  8
Layer_1
 62
3
100
AcDbSpline
 70
8
 71
3
 72
8
 73
4
 74
0
 40
0
 40
0
 40
0
 40
0
 40
1
 40
1
 40
1
 40
1
 10
2.517102
 20
1.235397
 30
0.0
 10
2.513245
 20
1.236722
 30
0.0
 10
2.510438
 20
1.239265
 30
0.0
 10
2.508680
 20
1.243024
 30
0.0
  0
SPLINE
  5
21d
100
AcDbEntity
  8
Layer_1
 62
3
100
AcDbSpline
 70
8
 71
3
 72
8
 73
4
 74
0
 40
0
 40
0
 40
0
 40
0
 40
1
 40
1
 40
1
 40
1
 10
2.508680
 20
1.243024
 30
0.0
 10
2.506795
 20
1.246722
 30
0.0
 10
2.506516
 20
1.250499
 30
0.0
 10
2.507841
 20
1.254355
 30
0.0
  0
SPLINE
  5
21e
100
AcDbEntity
  8
Layer_1
 62
3
100
AcDbSpline
 70
8
 71
3
 72
8
 73
4
 74
0
 40
0
 40
0
 40
0
 40
0
 40
1
 40
1
 40
1
 40
1
 10
2.507841
 20
1.254355
 30
0.0
 10
2.509166
 20
1.258212
 30
0.0
 10
2.511725
 20
1.261067
 30
0.0
 10
2.515517
 20
1.262919
 30
0.0
  0
SPLINE
  5
21f
100
AcDbEntity
  8
Layer_1
 62
3
100
AcDbSpline
 70
8
 71
3
 72
8
 73
4
 74
0
 40
0
 40
0
 40
0
 40
0
 40
1
 40
1
 40
1
 40
1
 10
2.515517
 20
1.262919
 30
0.0
 10
2.519182
 20
1.264709
 30
0.0
 10
2.522943
 20
1.264942
 30
0.0
 10
2.526800
 20
1.263616
 30
0.0
  0
LINE
  5
220
100
AcDbEntity
  8
Layer_1
 62
3
100
AcDbLine
 10
2.526800
 20
1.263616
 30
0.0
 11
2.625568
 21
1.229675
 31
0.0
  0
SPLINE
  5
221
100
AcDbEntity
  8
Layer_1
 62
3
100
AcDbSpline
 70
8
 71
3
 72
8
 73
4
 74
0
 40
0
 40
0
 40
0
 40
0
 40
1
 40
1
 40
1
 40
1
 10
1.972353
 20
1.778240
 30
0.0
 10
1.962340
 20
1.792600
 30
0.0
 10
1.958907
 20
1.808394
 30
0.0
 10
1.962052
 20
1.825622
 30
0.0
  0
SPLINE
  5
222
100
AcDbEntity
  8
Layer_1
 62
3
100
AcDbSpline
 70
8
 71
3
 72
8
 73
4
 74
0
 40
0
 40
0
 40
0
 40
0
 40
1
 40
1
 40
1
 40
1
 10
1.962052
 20
1.825622
 30
0.0
 10
1.965058
 20
1.842875
 30
0.0
 10
1.973741
 20
1.856507
 30
0.0
 10
1.988101
 20
1.866520
 30
0.0
  0
SPLINE
  5
223
100
AcDbEntity
  8
Layer_1
 62
3
100
AcDbSpline
 70
8
 71
3
 72
8
 73
4
 74
0
 40
0
 40
0
 40
0
 40
0
 40
1
 40
1
 40
1
 40
1
 10
1.988101
 20
1.866520
 30
0.0
 10
2.002461
 20
1.876532
 30
0.0
 10
2.018296
 20
1.879994
 30
0.0
 10
2.035605
 20
1.876906
 30
0.0
  0
SPLINE
  5
224
100
AcDbEntity
  8
Layer_1
 62
3
100
AcDbSpline
 70
8
 71
3
 72
8
 73
4
 74
0
 40
0
 40
0
 40
0
 40
0
 40
1
 40
1
 40
1
 40
1
 10
2.035605
 20
1.876906
 30
0.0
 10
2.052777
 20
1.873843
 30
0.0
 10
2.066369
 20
1.865131
 30
0.0
 10
2.076381
 20
1.850771
 30
0.0
  0
LINE
  5
225
100
AcDbEntity
  8
Layer_1
 62
3
100
AcDbLine
 10
2.076381
 20
1.850771
 30
0.0
 11
2.089180
 21
1.832414
 31
0.0
  0
SPLINE
  5
226
100
AcDbEntity
  8
Layer_1
 62
3
100
AcDbSpline
 70
8
 71
3
 72
8
 73
4
 74
0
 40
0
 40
0
 40
0
 40
0
 40
1
 40
1
 40
1
 40
1
 10
2.089180
 20
1.832414
 30
0.0
 10
2.099193
 20
1.818054
 30
0.0
 10
2.102696
 20
1.802247
 30
0.0
 10
2.099689
 20
1.784994
 30
0.0
  0
SPLINE
  5
227
100
AcDbEntity
  8
Layer_1
 62
3
100
AcDbSpline
 70
8
 71
3
 72
8
 73
4
 74
0
 40
0
 40
0
 40
0
 40
0
 40
1
 40
1
 40
1
 40
1
 10
2.099689
 20
1.784994
 30
0.0
 10
2.096545
 20
1.767766
 30
0.0
 10
2.087792
 20
1.754146
 30
0.0
 10
2.073432
 20
1.744134
 30
0.0
  0
LINE
  5
228
100
AcDbEntity
  8
Layer_1
 62
3
100
AcDbLine
 10
2.073432
 20
1.744134
 30
0.0
 11
1.993881
 21
1.688668
 31
0.0
  0
SPLINE
  5
229
100
AcDbEntity
  8
Layer_1
 62
3
100
AcDbSpline
 70
8
 71
3
 72
8
 73
4
 74
0
 40
0
 40
0
 40
0
 40
0
 40
1
 40
1
 40
1
 40
1
 10
1.993881
 20
1.688668
 30
0.0
 10
1.979521
 20
1.678656
 30
0.0
 10
1.963756
 20
1.675182
 30
0.0
 10
1.946585
 20
1.678245
 30
0.0
  0
SPLINE
  5
22a
100
AcDbEntity
  8
Layer_1
 62
3
100
AcDbSpline
 70
8
 71
3
 72
8
 73
4
 74
0
 40
0
 40
0
 40
0
 40
0
 40
1
 40
1
 40
1
 40
1
 10
1.946585
 20
1.678245
 30
0.0
 10
1.929275
 20
1.681333
 30
0.0
 10
1.915614
 20
1.690057
 30
0.0
 10
1.905602
 20
1.704416
 30
0.0
  0
LINE
  5
22b
100
AcDbEntity
  8
Layer_1
 62
3
100
AcDbLine
 10
1.905602
 20
1.704416
 30
0.0
 11
1.892802
 21
1.722774
 31
0.0
  0
SPLINE
  5
22c
100
AcDbEntity
  8
Layer_1
 62
3
100
AcDbSpline
 70
8
 71
3
 72
8
 73
4
 74
0
 40
0
 40
0
 40
0
 40
0
 40
1
 40
1
 40
1
 40
1
 10
1.892802
 20
1.722774
 30
0.0
 10
1.882790
 20
1.737134
 30
0.0
 10
1.879356
 20
1.752928
 30
0.0
 10
1.882501
 20
1.770157
 30
0.0
  0
SPLINE
  5
22d
100
AcDbEntity
  8
Layer_1
 62
3
100
AcDbSpline
 70
8
 71
3
 72
8
 73
4
 74
0
 40
0
 40
0
 40
0
 40
0
 40
1
 40
1
 40
1
 40
1
 10
1.882501
 20
1.770157
 30
0.0
 10
1.885507
 20
1.787409
 30
0.0
 10
1.894190
 20
1.801042
 30
0.0
 10
1.908550
 20
1.811054
 30
0.0
  0
SPLINE
  5
22e
100
AcDbEntity
  8
Layer_1
 62
3
100
AcDbSpline
 70
8
 71
3
 72
8
 73
4
 74
0
 40
0
 40
0
 40
0
 40
0
 40
1
 40
1
 40
1
 40
1
 10
1.908550
 20
1.811054
 30
0.0
 10
1.911895
 20
1.813387
 30
0.0
 10
1.915645
 20
1.814182
 30
0.0
 10
1.919799
 20
1.813441
 30
0.0
  0
SPLINE
  5
22f
100
AcDbEntity
  8
Layer_1
 62
3
100
AcDbSpline
 70
8
 71
3
 72
8
 73
4
 74
0
 40
0
 40
0
 40
0
 40
0
 40
1
 40
1
 40
1
 40
1
 10
1.919799
 20
1.813441
 30
0.0
 10
1.923815
 20
1.812725
 30
0.0
 10
1.926989
 20
1.810694
 30
0.0
 10
1.929322
 20
1.807349
 30
0.0
  0
SPLINE
  5
230
100
AcDbEntity
  8
Layer_1
 62
3
100
AcDbSpline
 70
8
 71
3
 72
8
 73
4
 74
0
 40
0
 40
0
 40
0
 40
0
 40
1
 40
1
 40
1
 40
1
 10
1.929322
 20
1.807349
 30
0.0
 10
1.931654
 20
1.804004
 30
0.0
 10
1.932491
 20
1.800282
 30
0.0
 10
1.931831
 20
1.796185
 30
0.0
  0
SPLINE
  5
231
100
AcDbEntity
  8
Layer_1
 62
3
100
AcDbSpline
 70
8
 71
3
 72
8
 73
4
 74
0
 40
0
 40
0
 40
0
 40
0
 40
1
 40
1
 40
1
 40
1
 10
1.931831
 20
1.796185
 30
0.0
 10
1.931033
 20
1.792112
 30
0.0
 10
1.928961
 20
1.788909
 30
0.0
 10
1.925616
 20
1.786577
 30
0.0
  0
SPLINE
  5
232
100
AcDbEntity
  8
Layer_1
 62
3
100
AcDbSpline
 70
8
 71
3
 72
8
 73
4
 74
0
 40
0
 40
0
 40
0
 40
0
 40
1
 40
1
 40
1
 40
1
 10
1.925616
 20
1.786577
 30
0.0
 10
1.918028
 20
1.781287
 30
0.0
 10
1.913419
 20
1.774071
 30
0.0
 10
1.911789
 20
1.764932
 30
0.0
  0
SPLINE
  5
233
100
AcDbEntity
  8
Layer_1
 62
3
100
AcDbSpline
 70
8
 71
3
 72
8
 73
4
 74
0
 40
0
 40
0
 40
0
 40
0
 40
1
 40
1
 40
1
 40
1
 10
1.911789
 20
1.764932
 30
0.0
 10
1.910158
 20
1.755792
 30
0.0
 10
1.911988
 20
1.747429
 30
0.0
 10
1.917279
 20
1.739841
 30
0.0
  0
LINE
  5
234
100
AcDbEntity
  8
Layer_1
 62
3
100
AcDbLine
 10
1.917279
 20
1.739841
 30
0.0
 11
1.930079
 21
1.721483
 31
0.0
  0
SPLINE
  5
235
100
AcDbEntity
  8
Layer_1
 62
3
100
AcDbSpline
 70
8
 71
3
 72
8
 73
4
 74
0
 40
0
 40
0
 40
0
 40
0
 40
1
 40
1
 40
1
 40
1
 10
1.930079
 20
1.721483
 30
0.0
 10
1.935369
 20
1.713895
 30
0.0
 10
1.942584
 20
1.709286
 30
0.0
 10
1.951724
 20
1.707655
 30
0.0
  0
SPLINE
  5
236
100
AcDbEntity
  8
Layer_1
 62
3
100
AcDbSpline
 70
8
 71
3
 72
8
 73
4
 74
0
 40
0
 40
0
 40
0
 40
0
 40
1
 40
1
 40
1
 40
1
 10
1.951724
 20
1.707655
 30
0.0
 10
1.960863
 20
1.706025
 30
0.0
 10
1.969227
 20
1.707855
 30
0.0
 10
1.976815
 20
1.713145
 30
0.0
  0
LINE
  5
237
100
AcDbEntity
  8
Layer_1
 62
3
100
AcDbLine
 10
1.976815
 20
1.713145
 30
0.0
 11
2.012062
 21
1.737721
 31
0.0
  0
SPLINE
  5
238
100
AcDbEntity
  8
Layer_1
 62
3
100
AcDbSpline
 70
8
 71
3
 72
8
 73
4
 74
0
 40
0
 40
0
 40
0
 40
0
 40
1
 40
1
 40
1
 40
1
 10
2.012062
 20
1.737721
 30
0.0
 10
2.001290
 20
1.742215
 30
0.0
 10
1.992320
 20
1.749601
 30
0.0
 10
1.985152
 20
1.759882
 30
0.0
  0
LINE
  5
239
100
AcDbEntity
  8
Layer_1
 62
3
100
AcDbLine
 10
1.985152
 20
1.759882
 30
0.0
 11
1.972353
 21
1.778240
 31
0.0
  0
SPLINE
  5
23a
100
AcDbEntity
  8
Layer_1
 62
3
100
AcDbSpline
 70
8
 71
3
 72
8
 73
4
 74
0
 40
0
 40
0
 40
0
 40
0
 40
1
 40
1
 40
1
 40
1
 10
2.009630
 20
1.776948
 30
0.0
 10
2.014920
 20
1.769360
 30
0.0
 10
2.022135
 20
1.764751
 30
0.0
 10
2.031275
 20
1.763121
 30
0.0
  0
SPLINE
  5
23b
100
AcDbEntity
  8
Layer_1
 62
3
100
AcDbSpline
 70
8
 71
3
 72
8
 73
4
 74
0
 40
0
 40
0
 40
0
 40
0
 40
1
 40
1
 40
1
 40
1
 10
2.031275
 20
1.763121
 30
0.0
 10
2.040414
 20
1.761490
 30
0.0
 10
2.048778
 20
1.763320
 30
0.0
 10
2.056366
 20
1.768611
 30
0.0
  0
SPLINE
  5
23c
100
AcDbEntity
  8
Layer_1
 62
3
100
AcDbSpline
 70
8
 71
3
 72
8
 73
4
 74
0
 40
0
 40
0
 40
0
 40
0
 40
1
 40
1
 40
1
 40
1
 10
2.056366
 20
1.768611
 30
0.0
 10
2.063954
 20
1.773901
 30
0.0
 10
2.068563
 20
1.781116
 30
0.0
 10
2.070193
 20
1.790256
 30
0.0
  0
SPLINE
  5
23d
100
AcDbEntity
  8
Layer_1
 62
3
100
AcDbSpline
 70
8
 71
3
 72
8
 73
4
 74
0
 40
0
 40
0
 40
0
 40
0
 40
1
 40
1
 40
1
 40
1
 10
2.070193
 20
1.790256
 30
0.0
 10
2.071824
 20
1.799396
 30
0.0
 10
2.069994
 20
1.807759
 30
0.0
 10
2.064703
 20
1.815347
 30
0.0
  0
LINE
  5
23e
100
AcDbEntity
  8
Layer_1
 62
3
100
AcDbLine
 10
2.064703
 20
1.815347
 30
0.0
 11
2.051904
 21
1.833705
 31
0.0
  0
SPLINE
  5
23f
100
AcDbEntity
  8
Layer_1
 62
3
100
AcDbSpline
 70
8
 71
3
 72
8
 73
4
 74
0
 40
0
 40
0
 40
0
 40
0
 40
1
 40
1
 40
1
 40
1
 10
2.051904
 20
1.833705
 30
0.0
 10
2.046613
 20
1.841293
 30
0.0
 10
2.039398
 20
1.845902
 30
0.0
 10
2.030258
 20
1.847533
 30
0.0
  0
SPLINE
  5
240
100
AcDbEntity
  8
Layer_1
 62
3
100
AcDbSpline
 70
8
 71
3
 72
8
 73
4
 74
0
 40
0
 40
0
 40
0
 40
0
 40
1
 40
1
 40
1
 40
1
 10
2.030258
 20
1.847533
 30
0.0
 10
2.021119
 20
1.849163
 30
0.0
 10
2.012755
 20
1.847333
 30
0.0
 10
2.005167
 20
1.842042
 30
0.0
  0
SPLINE
  5
241
100
AcDbEntity
  8
Layer_1
 62
3
100
AcDbSpline
 70
8
 71
3
 72
8
 73
4
 74
0
 40
0
 40
0
 40
0
 40
0
 40
1
 40
1
 40
1
 40
1
 10
2.005167
 20
1.842042
 30
0.0
 10
1.997579
 20
1.836752
 30
0.0
 10
1.992970
 20
1.829537
 30
0.0
 10
1.991340
 20
1.820397
 30
0.0
  0
SPLINE
  5
242
100
AcDbEntity
  8
Layer_1
 62
3
100
AcDbSpline
 70
8
 71
3
 72
8
 73
4
 74
0
 40
0
 40
0
 40
0
 40
0
 40
1
 40
1
 40
1
 40
1
 10
1.991340
 20
1.820397
 30
0.0
 10
1.989709
 20
1.811258
 30
0.0
 10
1.991539
 20
1.802894
 30
0.0
 10
1.996830
 20
1.795306
 30
0.0
  0
LINE
  5
243
100
AcDbEntity
  8
Layer_1
 62
3
100
AcDbLine
 10
1.996830
 20
1.795306
 30
0.0
 11
2.009630
 21
1.776948
 31
0.0
  0
LINE
  5
244
100
AcDbEntity
  8
Layer_1
 62
7
100
AcDbLine
 10
1.743798
 20
2.501847
 30
0.0
 11
1.677549
 21
2.544585
 31
0.0
  0
LINE
  5
245
100
AcDbEntity
  8
Layer_1
 62
7
100
AcDbLine
 10
1.677549
 20
2.544585
 30
0.0
 11
1.675599
 21
2.452402
 31
0.0
  0
SPLINE
  5
246
100
AcDbEntity
  8
Layer_1
 62
7
100
AcDbSpline
 70
8
 71
3
 72
8
 73
4
 74
0
 40
0
 40
0
 40
0
 40
0
 40
1
 40
1
 40
1
 40
1
 10
1.675599
 20
2.452402
 30
0.0
 10
1.675512
 20
2.448325
 30
0.0
 10
1.673996
 20
2.444825
 30
0.0
 10
1.671049
 20
2.441903
 30
0.0
  0
SPLINE
  5
247
100
AcDbEntity
  8
Layer_1
 62
7
100
AcDbSpline
 70
8
 71
3
 72
8
 73
4
 74
0
 40
0
 40
0
 40
0
 40
0
 40
1
 40
1
 40
1
 40
1
 10
1.671049
 20
2.441903
 30
0.0
 10
1.668005
 20
2.439082
 30
0.0
 10
1.664444
 20
2.437715
 30
0.0
 10
1.660367
 20
2.437801
 30
0.0
  0
SPLINE
  5
248
100
AcDbEntity
  8
Layer_1
 62
7
100
AcDbSpline
 70
8
 71
3
 72
8
 73
4
 74
0
 40
0
 40
0
 40
0
 40
0
 40
1
 40
1
 40
1
 40
1
 10
1.660367
 20
2.437801
 30
0.0
 10
1.656290
 20
2.437887
 30
0.0
 10
1.652840
 20
2.439403
 30
0.0
 10
1.650017
 20
2.442347
 30
0.0
  0
SPLINE
  5
249
100
AcDbEntity
  8
Layer_1
 62
7
100
AcDbSpline
 70
8
 71
3
 72
8
 73
4
 74
0
 40
0
 40
0
 40
0
 40
0
 40
1
 40
1
 40
1
 40
1
 10
1.650017
 20
2.442347
 30
0.0
 10
1.647097
 20
2.445394
 30
0.0
 10
1.645680
 20
2.448956
 30
0.0
 10
1.645766
 20
2.453033
 30
0.0
  0
LINE
  5
24a
100
AcDbEntity
  8
Layer_1
 62
7
100
AcDbLine
 10
1.645766
 20
2.453033
 30
0.0
 11
1.648290
 21
2.572364
 31
0.0
  0
SPLINE
  5
24b
100
AcDbEntity
  8
Layer_1
 62
7
100
AcDbSpline
 70
8
 71
3
 72
8
 73
4
 74
0
 40
0
 40
0
 40
0
 40
0
 40
1
 40
1
 40
1
 40
1
 10
1.648290
 20
2.572364
 30
0.0
 10
1.648376
 20
2.576441
 30
0.0
 10
1.649941
 20
2.579890
 30
0.0
 10
1.652986
 20
2.582710
 30
0.0
  0
SPLINE
  5
24c
100
AcDbEntity
  8
Layer_1
 62
7
100
AcDbSpline
 70
8
 71
3
 72
8
 73
4
 74
0
 40
0
 40
0
 40
0
 40
0
 40
1
 40
1
 40
1
 40
1
 10
1.652986
 20
2.582710
 30
0.0
 10
1.655933
 20
2.585633
 30
0.0
 10
1.659445
 20
2.587051
 30
0.0
 10
1.663522
 20
2.586964
 30
0.0
  0
SPLINE
  5
24d
100
AcDbEntity
  8
Layer_1
 62
7
100
AcDbSpline
 70
8
 71
3
 72
8
 73
4
 74
0
 40
0
 40
0
 40
0
 40
0
 40
1
 40
1
 40
1
 40
1
 10
1.663522
 20
2.586964
 30
0.0
 10
1.667599
 20
2.586878
 30
0.0
 10
1.672529
 20
2.584784
 30
0.0
 10
1.678312
 20
2.580682
 30
0.0
  0
LINE
  5
24e
100
AcDbEntity
  8
Layer_1
 62
7
100
AcDbLine
 10
1.678312
 20
2.580682
 30
0.0
 11
1.744562
 21
2.537944
 31
0.0
  0
LINE
  5
24f
100
AcDbEntity
  8
Layer_1
 62
7
100
AcDbLine
 10
1.744562
 20
2.537944
 30
0.0
 11
1.744931
 21
2.555397
 31
0.0
  0
SPLINE
  5
250
100
AcDbEntity
  8
Layer_1
 62
7
100
AcDbSpline
 70
8
 71
3
 72
8
 73
4
 74
0
 40
0
 40
0
 40
0
 40
0
 40
1
 40
1
 40
1
 40
1
 10
1.744931
 20
2.555397
 30
0.0
 10
1.745017
 20
2.559474
 30
0.0
 10
1.746582
 20
2.562923
 30
0.0
 10
1.749627
 20
2.565743
 30
0.0
  0
SPLINE
  5
251
100
AcDbEntity
  8
Layer_1
 62
7
100
AcDbSpline
 70
8
 71
3
 72
8
 73
4
 74
0
 40
0
 40
0
 40
0
 40
0
 40
1
 40
1
 40
1
 40
1
 10
1.749627
 20
2.565743
 30
0.0
 10
1.752574
 20
2.568666
 30
0.0
 10
1.756086
 20
2.570084
 30
0.0
 10
1.760163
 20
2.569997
 30
0.0
  0
SPLINE
  5
252
100
AcDbEntity
  8
Layer_1
 62
7
100
AcDbSpline
 70
8
 71
3
 72
8
 73
4
 74
0
 40
0
 40
0
 40
0
 40
0
 40
1
 40
1
 40
1
 40
1
 10
1.760163
 20
2.569997
 30
0.0
 10
1.764240
 20
2.569911
 30
0.0
 10
1.767739
 20
2.568345
 30
0.0
 10
1.770659
 20
2.565298
 30
0.0
  0
SPLINE
  5
253
100
AcDbEntity
  8
Layer_1
 62
7
100
AcDbSpline
 70
8
 71
3
 72
8
 73
4
 74
0
 40
0
 40
0
 40
0
 40
0
 40
1
 40
1
 40
1
 40
1
 10
1.770659
 20
2.565298
 30
0.0
 10
1.773482
 20
2.562354
 30
0.0
 10
1.774850
 20
2.558843
 30
0.0
 10
1.774764
 20
2.554766
 30
0.0
  0
LINE
  5
254
100
AcDbEntity
  8
Layer_1
 62
7
100
AcDbLine
 10
1.774764
 20
2.554766
 30
0.0
 11
1.774003
 21
2.518817
 31
0.0
  0
LINE
  5
255
100
AcDbEntity
  8
Layer_1
 62
7
100
AcDbLine
 10
1.774003
 20
2.518817
 30
0.0
 11
1.854974
 21
2.466515
 31
0.0
  0
SPLINE
  5
256
100
AcDbEntity
  8
Layer_1
 62
7
100
AcDbSpline
 70
8
 71
3
 72
8
 73
4
 74
0
 40
0
 40
0
 40
0
 40
0
 40
1
 40
1
 40
1
 40
1
 10
1.854974
 20
2.466515
 30
0.0
 10
1.859009
 20
2.464440
 30
0.0
 10
1.862486
 20
2.461880
 30
0.0
 10
1.865407
 20
2.458833
 30
0.0
  0
SPLINE
  5
257
100
AcDbEntity
  8
Layer_1
 62
7
100
AcDbSpline
 70
8
 71
3
 72
8
 73
4
 74
0
 40
0
 40
0
 40
0
 40
0
 40
1
 40
1
 40
1
 40
1
 10
1.865407
 20
2.458833
 30
0.0
 10
1.868230
 20
2.455888
 30
0.0
 10
1.869598
 20
2.452377
 30
0.0
 10
1.869511
 20
2.448300
 30
0.0
  0
SPLINE
  5
258
100
AcDbEntity
  8
Layer_1
 62
7
100
AcDbSpline
 70
8
 71
3
 72
8
 73
4
 74
0
 40
0
 40
0
 40
0
 40
0
 40
1
 40
1
 40
1
 40
1
 10
1.869511
 20
2.448300
 30
0.0
 10
1.869425
 20
2.444223
 30
0.0
 10
1.867909
 20
2.440723
 30
0.0
 10
1.864962
 20
2.437801
 30
0.0
  0
SPLINE
  5
259
100
AcDbEntity
  8
Layer_1
 62
7
100
AcDbSpline
 70
8
 71
3
 72
8
 73
4
 74
0
 40
0
 40
0
 40
0
 40
0
 40
1
 40
1
 40
1
 40
1
 10
1.864962
 20
2.437801
 30
0.0
 10
1.861918
 20
2.434980
 30
0.0
 10
1.858357
 20
2.433613
 30
0.0
 10
1.854280
 20
2.433699
 30
0.0
  0
SPLINE
  5
25a
100
AcDbEntity
  8
Layer_1
 62
7
100
AcDbSpline
 70
8
 71
3
 72
8
 73
4
 74
0
 40
0
 40
0
 40
0
 40
0
 40
1
 40
1
 40
1
 40
1
 10
1.854280
 20
2.433699
 30
0.0
 10
1.850203
 20
2.433786
 30
0.0
 10
1.845272
 20
2.435880
 30
0.0
 10
1.839489
 20
2.439981
 30
0.0
  0
LINE
  5
25b
100
AcDbEntity
  8
Layer_1
 62
7
100
AcDbLine
 10
1.839489
 20
2.439981
 30
0.0
 11
1.773240
 21
2.482719
 31
0.0
  0
LINE
  5
25c
100
AcDbEntity
  8
Layer_1
 62
7
100
AcDbLine
 10
1.773240
 20
2.482719
 30
0.0
 11
1.772871
 21
2.465267
 31
0.0
  0
SPLINE
  5
25d
100
AcDbEntity
  8
Layer_1
 62
7
100
AcDbSpline
 70
8
 71
3
 72
8
 73
4
 74
0
 40
0
 40
0
 40
0
 40
0
 40
1
 40
1
 40
1
 40
1
 10
1.772871
 20
2.465267
 30
0.0
 10
1.772784
 20
2.461190
 30
0.0
 10
1.771268
 20
2.457691
 30
0.0
 10
1.768321
 20
2.454768
 30
0.0
  0
SPLINE
  5
25e
100
AcDbEntity
  8
Layer_1
 62
7
100
AcDbSpline
 70
8
 71
3
 72
8
 73
4
 74
0
 40
0
 40
0
 40
0
 40
0
 40
1
 40
1
 40
1
 40
1
 10
1.768321
 20
2.454768
 30
0.0
 10
1.765277
 20
2.451948
 30
0.0
 10
1.761716
 20
2.450580
 30
0.0
 10
1.757639
 20
2.450666
 30
0.0
  0
SPLINE
  5
25f
100
AcDbEntity
  8
Layer_1
 62
7
100
AcDbSpline
 70
8
 71
3
 72
8
 73
4
 74
0
 40
0
 40
0
 40
0
 40
0
 40
1
 40
1
 40
1
 40
1
 10
1.757639
 20
2.450666
 30
0.0
 10
1.753562
 20
2.450753
 30
0.0
 10
1.750112
 20
2.452268
 30
0.0
 10
1.747289
 20
2.455213
 30
0.0
  0
SPLINE
  5
260
100
AcDbEntity
  8
Layer_1
 62
7
100
AcDbSpline
 70
8
 71
3
 72
8
 73
4
 74
0
 40
0
 40
0
 40
0
 40
0
 40
1
 40
1
 40
1
 40
1
 10
1.747289
 20
2.455213
 30
0.0
 10
1.744369
 20
2.458259
 30
0.0
 10
1.742952
 20
2.461821
 30
0.0
 10
1.743038
 20
2.465898
 30
0.0
  0
LINE
  5
261
100
AcDbEntity
  8
Layer_1
 62
7
100
AcDbLine
 10
1.743038
 20
2.465898
 30
0.0
 11
1.743798
 21
2.501847
 31
0.0
  0
SPLINE
  5
262
100
AcDbEntity
  8
Layer_1
 62
7
100
AcDbSpline
 70
8
 71
3
 72
8
 73
4
 74
0
 40
0
 40
0
 40
0
 40
0
 40
1
 40
1
 40
1
 40
1
 10
1.994552
 20
3.202344
 30
0.0
 10
1.989092
 20
3.194876
 30
0.0
 10
1.987075
 20
3.186556
 30
0.0
 10
1.988501
 20
3.177382
 30
0.0
  0
SPLINE
  5
263
100
AcDbEntity
  8
Layer_1
 62
7
100
AcDbSpline
 70
8
 71
3
 72
8
 73
4
 74
0
 40
0
 40
0
 40
0
 40
0
 40
1
 40
1
 40
1
 40
1
 10
1.988501
 20
3.177382
 30
0.0
 10
1.989926
 20
3.168208
 30
0.0
 10
1.994372
 20
3.160892
 30
0.0
 10
2.001840
 20
3.155432
 30
0.0
  0
SPLINE
  5
264
100
AcDbEntity
  8
Layer_1
 62
7
100
AcDbSpline
 70
8
 71
3
 72
8
 73
4
 74
0
 40
0
 40
0
 40
0
 40
0
 40
1
 40
1
 40
1
 40
1
 10
2.001840
 20
3.155432
 30
0.0
 10
2.009307
 20
3.149973
 30
0.0
 10
2.017628
 20
3.147956
 30
0.0
 10
2.026802
 20
3.149381
 30
0.0
  0
SPLINE
  5
265
100
AcDbEntity
  8
Layer_1
 62
7
100
AcDbSpline
 70
8
 71
3
 72
8
 73
4
 74
0
 40
0
 40
0
 40
0
 40
0
 40
1
 40
1
 40
1
 40
1
 10
2.026802
 20
3.149381
 30
0.0
 10
2.035976
 20
3.150807
 30
0.0
 10
2.043292
 20
3.155253
 30
0.0
 10
2.048751
 20
3.162721
 30
0.0
  0
LINE
  5
266
100
AcDbEntity
  8
Layer_1
 62
7
100
AcDbLine
 10
2.048751
 20
3.162721
 30
0.0
 11
2.061959
 21
3.180787
 31
0.0
  0
SPLINE
  5
267
100
AcDbEntity
  8
Layer_1
 62
7
100
AcDbSpline
 70
8
 71
3
 72
8
 73
4
 74
0
 40
0
 40
0
 40
0
 40
0
 40
1
 40
1
 40
1
 40
1
 10
2.061959
 20
3.180787
 30
0.0
 10
2.067418
 20
3.188255
 30
0.0
 10
2.069435
 20
3.196575
 30
0.0
 10
2.068010
 20
3.205749
 30
0.0
  0
SPLINE
  5
268
100
AcDbEntity
  8
Layer_1
 62
7
100
AcDbSpline
 70
8
 71
3
 72
8
 73
4
 74
0
 40
0
 40
0
 40
0
 40
0
 40
1
 40
1
 40
1
 40
1
 10
2.068010
 20
3.205749
 30
0.0
 10
2.066585
 20
3.214923
 30
0.0
 10
2.062138
 20
3.222239
 30
0.0
 10
2.054671
 20
3.227699
 30
0.0
  0
SPLINE
  5
269
100
AcDbEntity
  8
Layer_1
 62
7
100
AcDbSpline
 70
8
 71
3
 72
8
 73
4
 74
0
 40
0
 40
0
 40
0
 40
0
 40
1
 40
1
 40
1
 40
1
 10
2.054671
 20
3.227699
 30
0.0
 10
2.047203
 20
3.233158
 30
0.0
 10
2.038883
 20
3.235175
 30
0.0
 10
2.029709
 20
3.233749
 30
0.0
  0
SPLINE
  5
26a
100
AcDbEntity
  8
Layer_1
 62
7
100
AcDbSpline
 70
8
 71
3
 72
8
 73
4
 74
0
 40
0
 40
0
 40
0
 40
0
 40
1
 40
1
 40
1
 40
1
 10
2.029709
 20
3.233749
 30
0.0
 10
2.020535
 20
3.232324
 30
0.0
 10
2.013219
 20
3.227878
 30
0.0
 10
2.007759
 20
3.220410
 30
0.0
  0
LINE
  5
26b
100
AcDbEntity
  8
Layer_1
 62
7
100
AcDbLine
 10
2.007759
 20
3.220410
 30
0.0
 11
1.994552
 21
3.202344
 31
0.0
  0
SPLINE
  5
26c
100
AcDbEntity
  8
Layer_1
 62
7
100
AcDbSpline
 70
8
 71
3
 72
8
 73
4
 74
0
 40
0
 40
0
 40
0
 40
0
 40
1
 40
1
 40
1
 40
1
 10
2.019841
 20
3.262217
 30
0.0
 10
2.021627
 20
3.262637
 30
0.0
 10
2.023383
 20
3.263016
 30
0.0
 10
2.025109
 20
3.263356
 30
0.0
  0
SPLINE
  5
26d
100
AcDbEntity
  8
Layer_1
 62
7
100
AcDbSpline
 70
8
 71
3
 72
8
 73
4
 74
0
 40
0
 40
0
 40
0
 40
0
 40
1
 40
1
 40
1
 40
1
 10
2.025109
 20
3.263356
 30
0.0
 10
2.042425
 20
3.265975
 30
0.0
 10
2.058149
 20
3.262119
 30
0.0
 10
2.072281
 20
3.251787
 30
0.0
  0
SPLINE
  5
26e
100
AcDbEntity
  8
Layer_1
 62
7
100
AcDbSpline
 70
8
 71
3
 72
8
 73
4
 74
0
 40
0
 40
0
 40
0
 40
0
 40
1
 40
1
 40
1
 40
1
 10
2.072281
 20
3.251787
 30
0.0
 10
2.086413
 20
3.241456
 30
0.0
 10
2.094829
 20
3.227603
 30
0.0
 10
2.097528
 20
3.210228
 30
0.0
  0
SPLINE
  5
26f
100
AcDbEntity
  8
Layer_1
 62
7
100
AcDbSpline
 70
8
 71
3
 72
8
 73
4
 74
0
 40
0
 40
0
 40
0
 40
0
 40
1
 40
1
 40
1
 40
1
 10
2.097528
 20
3.210228
 30
0.0
 10
2.100206
 20
3.192993
 30
0.0
 10
2.096379
 20
3.177309
 30
0.0
 10
2.086048
 20
3.163177
 30
0.0
  0
LINE
  5
270
100
AcDbEntity
  8
Layer_1
 62
7
100
AcDbLine
 10
2.086048
 20
3.163177
 30
0.0
 11
2.072840
 21
3.145110
 31
0.0
  0
SPLINE
  5
271
100
AcDbEntity
  8
Layer_1
 62
7
100
AcDbSpline
 70
8
 71
3
 72
8
 73
4
 74
0
 40
0
 40
0
 40
0
 40
0
 40
1
 40
1
 40
1
 40
1
 10
2.072840
 20
3.145110
 30
0.0
 10
2.062509
 20
3.130978
 30
0.0
 10
2.048696
 20
3.122533
 30
0.0
 10
2.031401
 20
3.119775
 30
0.0
  0
SPLINE
  5
272
100
AcDbEntity
  8
Layer_1
 62
7
100
AcDbSpline
 70
8
 71
3
 72
8
 73
4
 74
0
 40
0
 40
0
 40
0
 40
0
 40
1
 40
1
 40
1
 40
1
 10
2.031401
 20
3.119775
 30
0.0
 10
2.014086
 20
3.117156
 30
0.0
 10
1.998362
 20
3.121012
 30
0.0
 10
1.984230
 20
3.131344
 30
0.0
  0
SPLINE
  5
273
100
AcDbEntity
  8
Layer_1
 62
7
100
AcDbSpline
 70
8
 71
3
 72
8
 73
4
 74
0
 40
0
 40
0
 40
0
 40
0
 40
1
 40
1
 40
1
 40
1
 10
1.984230
 20
3.131344
 30
0.0
 10
1.970097
 20
3.141675
 30
0.0
 10
1.961682
 20
3.155528
 30
0.0
 10
1.958982
 20
3.172903
 30
0.0
  0
SPLINE
  5
274
100
AcDbEntity
  8
Layer_1
 62
7
100
AcDbSpline
 70
8
 71
3
 72
8
 73
4
 74
0
 40
0
 40
0
 40
0
 40
0
 40
1
 40
1
 40
1
 40
1
 10
1.958982
 20
3.172903
 30
0.0
 10
1.958723
 20
3.174571
 30
0.0
 10
1.958523
 20
3.176319
 30
0.0
 10
1.958381
 20
3.178147
 30
0.0
  0
SPLINE
  5
275
100
AcDbEntity
  8
Layer_1
 62
7
100
AcDbSpline
 70
8
 71
3
 72
8
 73
4
 74
0
 40
0
 40
0
 40
0
 40
0
 40
1
 40
1
 40
1
 40
1
 10
1.958381
 20
3.178147
 30
0.0
 10
1.956596
 20
3.177728
 30
0.0
 10
1.954829
 20
3.177418
 30
0.0
 10
1.953081
 20
3.177217
 30
0.0
  0
SPLINE
  5
276
100
AcDbEntity
  8
Layer_1
 62
7
100
AcDbSpline
 70
8
 71
3
 72
8
 73
4
 74
0
 40
0
 40
0
 40
0
 40
0
 40
1
 40
1
 40
1
 40
1
 10
1.953081
 20
3.177217
 30
0.0
 10
1.935786
 20
3.174459
 30
0.0
 10
1.920073
 20
3.178246
 30
0.0
 10
1.905941
 20
3.188577
 30
0.0
  0
SPLINE
  5
277
100
AcDbEntity
  8
Layer_1
 62
7
100
AcDbSpline
 70
8
 71
3
 72
8
 73
4
 74
0
 40
0
 40
0
 40
0
 40
0
 40
1
 40
1
 40
1
 40
1
 10
1.905941
 20
3.188577
 30
0.0
 10
1.891809
 20
3.198909
 30
0.0
 10
1.883404
 20
3.212692
 30
0.0
 10
1.880727
 20
3.229928
 30
0.0
  0
SPLINE
  5
278
100
AcDbEntity
  8
Layer_1
 62
7
100
AcDbSpline
 70
8
 71
3
 72
8
 73
4
 74
0
 40
0
 40
0
 40
0
 40
0
 40
1
 40
1
 40
1
 40
1
 10
1.880727
 20
3.229928
 30
0.0
 10
1.878027
 20
3.247302
 30
0.0
 10
1.881843
 20
3.263056
 30
0.0
 10
1.892175
 20
3.277188
 30
0.0
  0
LINE
  5
279
100
AcDbEntity
  8
Layer_1
 62
7
100
AcDbLine
 10
1.892175
 20
3.277188
 30
0.0
 11
1.905382
 21
3.295254
 31
0.0
  0
SPLINE
  5
27a
100
AcDbEntity
  8
Layer_1
 62
7
100
AcDbSpline
 70
8
 71
3
 72
8
 73
4
 74
0
 40
0
 40
0
 40
0
 40
0
 40
1
 40
1
 40
1
 40
1
 10
1.905382
 20
3.295254
 30
0.0
 10
1.915714
 20
3.309386
 30
0.0
 10
1.929537
 20
3.317762
 30
0.0
 10
1.946853
 20
3.320381
 30
0.0
  0
SPLINE
  5
27b
100
AcDbEntity
  8
Layer_1
 62
7
100
AcDbSpline
 70
8
 71
3
 72
8
 73
4
 74
0
 40
0
 40
0
 40
0
 40
0
 40
1
 40
1
 40
1
 40
1
 10
1.946853
 20
3.320381
 30
0.0
 10
1.964148
 20
3.323139
 30
0.0
 10
1.979861
 20
3.319352
 30
0.0
 10
1.993993
 20
3.309021
 30
0.0
  0
SPLINE
  5
27c
100
AcDbEntity
  8
Layer_1
 62
7
100
AcDbSpline
 70
8
 71
3
 72
8
 73
4
 74
0
 40
0
 40
0
 40
0
 40
0
 40
1
 40
1
 40
1
 40
1
 10
1.993993
 20
3.309021
 30
0.0
 10
2.008125
 20
3.298690
 30
0.0
 10
2.016530
 20
3.284906
 30
0.0
 10
2.019208
 20
3.267670
 30
0.0
  0
SPLINE
  5
27d
100
AcDbEntity
  8
Layer_1
 62
7
100
AcDbSpline
 70
8
 71
3
 72
8
 73
4
 74
0
 40
0
 40
0
 40
0
 40
0
 40
1
 40
1
 40
1
 40
1
 10
2.019208
 20
3.267670
 30
0.0
 10
2.019488
 20
3.265863
 30
0.0
 10
2.019699
 20
3.264046
 30
0.0
 10
2.019841
 20
3.262217
 30
0.0
  0
LINE
  5
27e
100
AcDbEntity
  8
Layer_1
 62
7
100
AcDbLine
 10
2.019841
 20
3.262217
 30
0.0
 11
2.019841
 21
3.262217
 31
0.0
  0
SPLINE
  5
27f
100
AcDbEntity
  8
Layer_1
 62
7
100
AcDbSpline
 70
8
 71
3
 72
8
 73
4
 74
0
 40
0
 40
0
 40
0
 40
0
 40
1
 40
1
 40
1
 40
1
 10
1.976382
 20
3.284932
 30
0.0
 10
1.968915
 20
3.290391
 30
0.0
 10
1.960594
 20
3.292408
 30
0.0
 10
1.951421
 20
3.290983
 30
0.0
  0
SPLINE
  5
280
100
AcDbEntity
  8
Layer_1
 62
7
100
AcDbSpline
 70
8
 71
3
 72
8
 73
4
 74
0
 40
0
 40
0
 40
0
 40
0
 40
1
 40
1
 40
1
 40
1
 10
1.951421
 20
3.290983
 30
0.0
 10
1.942247
 20
3.289558
 30
0.0
 10
1.934930
 20
3.285112
 30
0.0
 10
1.929471
 20
3.277644
 30
0.0
  0
LINE
  5
281
100
AcDbEntity
  8
Layer_1
 62
7
100
AcDbLine
 10
1.929471
 20
3.277644
 30
0.0
 11
1.916263
 21
3.259577
 31
0.0
  0
SPLINE
  5
282
100
AcDbEntity
  8
Layer_1
 62
7
100
AcDbSpline
 70
8
 71
3
 72
8
 73
4
 74
0
 40
0
 40
0
 40
0
 40
0
 40
1
 40
1
 40
1
 40
1
 10
1.916263
 20
3.259577
 30
0.0
 10
1.910804
 20
3.252110
 30
0.0
 10
1.908787
 20
3.243789
 30
0.0
 10
1.910212
 20
3.234615
 30
0.0
  0
SPLINE
  5
283
100
AcDbEntity
  8
Layer_1
 62
7
100
AcDbSpline
 70
8
 71
3
 72
8
 73
4
 74
0
 40
0
 40
0
 40
0
 40
0
 40
1
 40
1
 40
1
 40
1
 10
1.910212
 20
3.234615
 30
0.0
 10
1.911638
 20
3.225442
 30
0.0
 10
1.916084
 20
3.218125
 30
0.0
 10
1.923552
 20
3.212666
 30
0.0
  0
SPLINE
  5
284
100
AcDbEntity
  8
Layer_1
 62
7
100
AcDbSpline
 70
8
 71
3
 72
8
 73
4
 74
0
 40
0
 40
0
 40
0
 40
0
 40
1
 40
1
 40
1
 40
1
 10
1.923552
 20
3.212666
 30
0.0
 10
1.931019
 20
3.207207
 30
0.0
 10
1.939340
 20
3.205190
 30
0.0
 10
1.948513
 20
3.206615
 30
0.0
  0
SPLINE
  5
285
100
AcDbEntity
  8
Layer_1
 62
7
100
AcDbSpline
 70
8
 71
3
 72
8
 73
4
 74
0
 40
0
 40
0
 40
0
 40
0
 40
1
 40
1
 40
1
 40
1
 10
1.948513
 20
3.206615
 30
0.0
 10
1.957687
 20
3.208040
 30
0.0
 10
1.965004
 20
3.212487
 30
0.0
 10
1.970463
 20
3.219954
 30
0.0
  0
LINE
  5
286
100
AcDbEntity
  8
Layer_1
 62
7
100
AcDbLine
 10
1.970463
 20
3.219954
 30
0.0
 11
1.983671
 21
3.238021
 31
0.0
  0
SPLINE
  5
287
100
AcDbEntity
  8
Layer_1
 62
7
100
AcDbSpline
 70
8
 71
3
 72
8
 73
4
 74
0
 40
0
 40
0
 40
0
 40
0
 40
1
 40
1
 40
1
 40
1
 10
1.983671
 20
3.238021
 30
0.0
 10
1.989130
 20
3.245488
 30
0.0
 10
1.991147
 20
3.253809
 30
0.0
 10
1.989722
 20
3.262983
 30
0.0
  0
SPLINE
  5
288
100
AcDbEntity
  8
Layer_1
 62
7
100
AcDbSpline
 70
8
 71
3
 72
8
 73
4
 74
0
 40
0
 40
0
 40
0
 40
0
 40
1
 40
1
 40
1
 40
1
 10
1.989722
 20
3.262983
 30
0.0
 10
1.988296
 20
3.272156
 30
0.0
 10
1.983850
 20
3.279473
 30
0.0
 10
1.976382
 20
3.284932
 30
0.0
  0
LINE
  5
289
100
AcDbEntity
  8
Layer_1
 62
7
100
AcDbLine
 10
1.976382
 20
3.284932
 30
0.0
 11
1.976382
 21
3.284932
 31
0.0
  0
SPLINE
  5
28a
100
AcDbEntity
  8
Layer_1
 62
3
100
AcDbSpline
 70
8
 71
3
 72
8
 73
4
 74
0
 40
0
 40
0
 40
0
 40
0
 40
1
 40
1
 40
1
 40
1
 10
2.619754
 20
3.665933
 30
0.0
 10
2.603004
 20
3.660845
 30
0.0
 10
2.586888
 20
3.662395
 30
0.0
 10
2.571407
 20
3.670582
 30
0.0
  0
SPLINE
  5
28b
100
AcDbEntity
  8
Layer_1
 62
3
100
AcDbSpline
 70
8
 71
3
 72
8
 73
4
 74
0
 40
0
 40
0
 40
0
 40
0
 40
1
 40
1
 40
1
 40
1
 10
2.571407
 20
3.670582
 30
0.0
 10
2.555992
 20
3.678894
 30
0.0
 10
2.545741
 20
3.691425
 30
0.0
 10
2.540653
 20
3.708175
 30
0.0
  0
SPLINE
  5
28c
100
AcDbEntity
  8
Layer_1
 62
3
100
AcDbSpline
 70
8
 71
3
 72
8
 73
4
 74
0
 40
0
 40
0
 40
0
 40
0
 40
1
 40
1
 40
1
 40
1
 10
2.540653
 20
3.708175
 30
0.0
 10
2.535564
 20
3.724925
 30
0.0
 10
2.537129
 20
3.740993
 30
0.0
 10
2.545345
 20
3.756379
 30
0.0
  0
SPLINE
  5
28d
100
AcDbEntity
  8
Layer_1
 62
3
100
AcDbSpline
 70
8
 71
3
 72
8
 73
4
 74
0
 40
0
 40
0
 40
0
 40
0
 40
1
 40
1
 40
1
 40
1
 10
2.545345
 20
3.756379
 30
0.0
 10
2.553628
 20
3.771889
 30
0.0
 10
2.566144
 20
3.782188
 30
0.0
 10
2.582894
 20
3.787276
 30
0.0
  0
LINE
  5
28e
100
AcDbEntity
  8
Layer_1
 62
3
100
AcDbLine
 10
2.582894
 20
3.787276
 30
0.0
 11
2.604308
 21
3.793780
 31
0.0
  0
SPLINE
  5
28f
100
AcDbEntity
  8
Layer_1
 62
3
100
AcDbSpline
 70
8
 71
3
 72
8
 73
4
 74
0
 40
0
 40
0
 40
0
 40
0
 40
1
 40
1
 40
1
 40
1
 10
2.604308
 20
3.793780
 30
0.0
 10
2.621058
 20
3.798868
 30
0.0
 10
2.637140
 20
3.797257
 30
0.0
 10
2.652555
 20
3.788945
 30
0.0
  0
SPLINE
  5
290
100
AcDbEntity
  8
Layer_1
 62
3
100
AcDbSpline
 70
8
 71
3
 72
8
 73
4
 74
0
 40
0
 40
0
 40
0
 40
0
 40
1
 40
1
 40
1
 40
1
 10
2.652555
 20
3.788945
 30
0.0
 10
2.668036
 20
3.780758
 30
0.0
 10
2.678321
 20
3.768289
 30
0.0
 10
2.683409
 20
3.751539
 30
0.0
  0
LINE
  5
291
100
AcDbEntity
  8
Layer_1
 62
3
100
AcDbLine
 10
2.683409
 20
3.751539
 30
0.0
 11
2.711595
 21
3.658747
 31
0.0
  0
SPLINE
  5
292
100
AcDbEntity
  8
Layer_1
 62
3
100
AcDbSpline
 70
8
 71
3
 72
8
 73
4
 74
0
 40
0
 40
0
 40
0
 40
0
 40
1
 40
1
 40
1
 40
1
 10
2.711595
 20
3.658747
 30
0.0
 10
2.716683
 20
3.641997
 30
0.0
 10
2.715086
 20
3.625867
 30
0.0
 10
2.706803
 20
3.610357
 30
0.0
  0
SPLINE
  5
293
100
AcDbEntity
  8
Layer_1
 62
3
100
AcDbSpline
 70
8
 71
3
 72
8
 73
4
 74
0
 40
0
 40
0
 40
0
 40
0
 40
1
 40
1
 40
1
 40
1
 10
2.706803
 20
3.610357
 30
0.0
 10
2.698587
 20
3.594971
 30
0.0
 10
2.686104
 20
3.584734
 30
0.0
 10
2.669354
 20
3.579646
 30
0.0
  0
LINE
  5
294
100
AcDbEntity
  8
Layer_1
 62
3
100
AcDbLine
 10
2.669354
 20
3.579646
 30
0.0
 11
2.647940
 21
3.573142
 31
0.0
  0
SPLINE
  5
295
100
AcDbEntity
  8
Layer_1
 62
3
100
AcDbSpline
 70
8
 71
3
 72
8
 73
4
 74
0
 40
0
 40
0
 40
0
 40
0
 40
1
 40
1
 40
1
 40
1
 10
2.647940
 20
3.573142
 30
0.0
 10
2.631190
 20
3.568053
 30
0.0
 10
2.615075
 20
3.569603
 30
0.0
 10
2.599593
 20
3.577791
 30
0.0
  0
SPLINE
  5
296
100
AcDbEntity
  8
Layer_1
 62
3
100
AcDbSpline
 70
8
 71
3
 72
8
 73
4
 74
0
 40
0
 40
0
 40
0
 40
0
 40
1
 40
1
 40
1
 40
1
 10
2.599593
 20
3.577791
 30
0.0
 10
2.584179
 20
3.586102
 30
0.0
 10
2.573927
 20
3.598633
 30
0.0
 10
2.568839
 20
3.615383
 30
0.0
  0
SPLINE
  5
297
100
AcDbEntity
  8
Layer_1
 62
3
100
AcDbSpline
 70
8
 71
3
 72
8
 73
4
 74
0
 40
0
 40
0
 40
0
 40
0
 40
1
 40
1
 40
1
 40
1
 10
2.568839
 20
3.615383
 30
0.0
 10
2.567654
 20
3.619285
 30
0.0
 10
2.568022
 20
3.623035
 30
0.0
 10
2.569944
 20
3.626634
 30
0.0
  0
SPLINE
  5
298
100
AcDbEntity
  8
Layer_1
 62
3
100
AcDbSpline
 70
8
 71
3
 72
8
 73
4
 74
0
 40
0
 40
0
 40
0
 40
0
 40
1
 40
1
 40
1
 40
1
 10
2.569944
 20
3.626634
 30
0.0
 10
2.571931
 20
3.630356
 30
0.0
 10
2.574876
 20
3.632810
 30
0.0
 10
2.578778
 20
3.633995
 30
0.0
  0
SPLINE
  5
299
100
AcDbEntity
  8
Layer_1
 62
3
100
AcDbSpline
 70
8
 71
3
 72
8
 73
4
 74
0
 40
0
 40
0
 40
0
 40
0
 40
1
 40
1
 40
1
 40
1
 10
2.578778
 20
3.633995
 30
0.0
 10
2.582680
 20
3.635180
 30
0.0
 10
2.586445
 20
3.634765
 30
0.0
 10
2.590072
 20
3.632748
 30
0.0
  0
SPLINE
  5
29a
100
AcDbEntity
  8
Layer_1
 62
3
100
AcDbSpline
 70
8
 71
3
 72
8
 73
4
 74
0
 40
0
 40
0
 40
0
 40
0
 40
1
 40
1
 40
1
 40
1
 10
2.590072
 20
3.632748
 30
0.0
 10
2.593766
 20
3.630855
 30
0.0
 10
2.596205
 20
3.627958
 30
0.0
 10
2.597390
 20
3.624056
 30
0.0
  0
SPLINE
  5
29b
100
AcDbEntity
  8
Layer_1
 62
3
100
AcDbSpline
 70
8
 71
3
 72
8
 73
4
 74
0
 40
0
 40
0
 40
0
 40
0
 40
1
 40
1
 40
1
 40
1
 10
2.597390
 20
3.624056
 30
0.0
 10
2.600079
 20
3.615205
 30
0.0
 10
2.605518
 20
3.608593
 30
0.0
 10
2.613707
 20
3.604220
 30
0.0
  0
SPLINE
  5
29c
100
AcDbEntity
  8
Layer_1
 62
3
100
AcDbSpline
 70
8
 71
3
 72
8
 73
4
 74
0
 40
0
 40
0
 40
0
 40
0
 40
1
 40
1
 40
1
 40
1
 10
2.613707
 20
3.604220
 30
0.0
 10
2.621896
 20
3.599847
 30
0.0
 10
2.630417
 20
3.599004
 30
0.0
 10
2.639267
 20
3.601693
 30
0.0
  0
LINE
  5
29d
100
AcDbEntity
  8
Layer_1
 62
3
100
AcDbLine
 10
2.639267
 20
3.601693
 30
0.0
 11
2.660681
 21
3.608197
 31
0.0
  0
SPLINE
  5
29e
100
AcDbEntity
  8
Layer_1
 62
3
100
AcDbSpline
 70
8
 71
3
 72
8
 73
4
 74
0
 40
0
 40
0
 40
0
 40
0
 40
1
 40
1
 40
1
 40
1
 10
2.660681
 20
3.608197
 30
0.0
 10
2.669532
 20
3.610886
 30
0.0
 10
2.676144
 20
3.616325
 30
0.0
 10
2.680517
 20
3.624514
 30
0.0
  0
SPLINE
  5
29f
100
AcDbEntity
  8
Layer_1
 62
3
100
AcDbSpline
 70
8
 71
3
 72
8
 73
4
 74
0
 40
0
 40
0
 40
0
 40
0
 40
1
 40
1
 40
1
 40
1
 10
2.680517
 20
3.624514
 30
0.0
 10
2.684890
 20
3.632703
 30
0.0
 10
2.685733
 20
3.641224
 30
0.0
 10
2.683044
 20
3.650074
 30
0.0
  0
LINE
  5
2a0
100
AcDbEntity
  8
Layer_1
 62
3
100
AcDbLine
 10
2.683044
 20
3.650074
 30
0.0
 11
2.670555
 21
3.691188
 31
0.0
  0
SPLINE
  5
2a1
100
AcDbEntity
  8
Layer_1
 62
3
100
AcDbSpline
 70
8
 71
3
 72
8
 73
4
 74
0
 40
0
 40
0
 40
0
 40
0
 40
1
 40
1
 40
1
 40
1
 10
2.670555
 20
3.691188
 30
0.0
 10
2.662955
 20
3.682330
 30
0.0
 10
2.653159
 20
3.676080
 30
0.0
 10
2.641167
 20
3.672438
 30
0.0
  0
LINE
  5
2a2
100
AcDbEntity
  8
Layer_1
 62
3
100
AcDbLine
 10
2.641167
 20
3.672438
 30
0.0
 11
2.619754
 21
3.665933
 31
0.0
  0
SPLINE
  5
2a3
100
AcDbEntity
  8
Layer_1
 62
3
100
AcDbSpline
 70
8
 71
3
 72
8
 73
4
 74
0
 40
0
 40
0
 40
0
 40
0
 40
1
 40
1
 40
1
 40
1
 10
2.632494
 20
3.700989
 30
0.0
 10
2.641345
 20
3.703677
 30
0.0
 10
2.647957
 20
3.709116
 30
0.0
 10
2.652330
 20
3.717306
 30
0.0
  0
SPLINE
  5
2a4
100
AcDbEntity
  8
Layer_1
 62
3
100
AcDbSpline
 70
8
 71
3
 72
8
 73
4
 74
0
 40
0
 40
0
 40
0
 40
0
 40
1
 40
1
 40
1
 40
1
 10
2.652330
 20
3.717306
 30
0.0
 10
2.656704
 20
3.725495
 30
0.0
 10
2.657546
 20
3.734015
 30
0.0
 10
2.654857
 20
3.742866
 30
0.0
  0
SPLINE
  5
2a5
100
AcDbEntity
  8
Layer_1
 62
3
100
AcDbSpline
 70
8
 71
3
 72
8
 73
4
 74
0
 40
0
 40
0
 40
0
 40
0
 40
1
 40
1
 40
1
 40
1
 10
2.654857
 20
3.742866
 30
0.0
 10
2.652169
 20
3.751717
 30
0.0
 10
2.646730
 20
3.758329
 30
0.0
 10
2.638541
 20
3.762702
 30
0.0
  0
SPLINE
  5
2a6
100
AcDbEntity
  8
Layer_1
 62
3
100
AcDbSpline
 70
8
 71
3
 72
8
 73
4
 74
0
 40
0
 40
0
 40
0
 40
0
 40
1
 40
1
 40
1
 40
1
 10
2.638541
 20
3.762702
 30
0.0
 10
2.630351
 20
3.767075
 30
0.0
 10
2.621831
 20
3.767918
 30
0.0
 10
2.612980
 20
3.765229
 30
0.0
  0
LINE
  5
2a7
100
AcDbEntity
  8
Layer_1
 62
3
100
AcDbLine
 10
2.612980
 20
3.765229
 30
0.0
 11
2.591567
 21
3.758724
 31
0.0
  0
SPLINE
  5
2a8
100
AcDbEntity
  8
Layer_1
 62
3
100
AcDbSpline
 70
8
 71
3
 72
8
 73
4
 74
0
 40
0
 40
0
 40
0
 40
0
 40
1
 40
1
 40
1
 40
1
 10
2.591567
 20
3.758724
 30
0.0
 10
2.582716
 20
3.756036
 30
0.0
 10
2.576104
 20
3.750597
 30
0.0
 10
2.571731
 20
3.742408
 30
0.0
  0
SPLINE
  5
2a9
100
AcDbEntity
  8
Layer_1
 62
3
100
AcDbSpline
 70
8
 71
3
 72
8
 73
4
 74
0
 40
0
 40
0
 40
0
 40
0
 40
1
 40
1
 40
1
 40
1
 10
2.571731
 20
3.742408
 30
0.0
 10
2.567357
 20
3.734218
 30
0.0
 10
2.566515
 20
3.725698
 30
0.0
 10
2.569204
 20
3.716848
 30
0.0
  0
SPLINE
  5
2aa
100
AcDbEntity
  8
Layer_1
 62
3
100
AcDbSpline
 70
8
 71
3
 72
8
 73
4
 74
0
 40
0
 40
0
 40
0
 40
0
 40
1
 40
1
 40
1
 40
1
 10
2.569204
 20
3.716848
 30
0.0
 10
2.571892
 20
3.707997
 30
0.0
 10
2.577331
 20
3.701385
 30
0.0
 10
2.585521
 20
3.697011
 30
0.0
  0
SPLINE
  5
2ab
100
AcDbEntity
  8
Layer_1
 62
3
100
AcDbSpline
 70
8
 71
3
 72
8
 73
4
 74
0
 40
0
 40
0
 40
0
 40
0
 40
1
 40
1
 40
1
 40
1
 10
2.585521
 20
3.697011
 30
0.0
 10
2.593710
 20
3.692638
 30
0.0
 10
2.602230
 20
3.691796
 30
0.0
 10
2.611081
 20
3.694484
 30
0.0
  0
LINE
  5
2ac
100
AcDbEntity
  8
Layer_1
 62
3
100
AcDbLine
 10
2.611081
 20
3.694484
 30
0.0
 11
2.632494
 21
3.700989
 31
0.0
  0
SPLINE
  5
2ad
100
AcDbEntity
  8
Layer_1
 62
7
100
AcDbSpline
 70
8
 71
3
 72
8
 73
4
 74
0
 40
0
 40
0
 40
0
 40
0
 40
1
 40
1
 40
1
 40
1
 10
2.659139
 20
4.050137
 30
0.0
 10
2.659139
 20
4.007702
 30
0.0
 10
2.642282
 20
3.967005
 30
0.0
 10
2.612276
 20
3.937000
 30
0.0
  0
SPLINE
  5
2ae
100
AcDbEntity
  8
Layer_1
 62
7
100
AcDbSpline
 70
8
 71
3
 72
8
 73
4
 74
0
 40
0
 40
0
 40
0
 40
0
 40
1
 40
1
 40
1
 40
1
 10
2.612276
 20
3.937000
 30
0.0
 10
2.582271
 20
3.906994
 30
0.0
 10
2.541574
 20
3.890137
 30
0.0
 10
2.499139
 20
3.890137
 30
0.0
  0
SPLINE
  5
2af
100
AcDbEntity
  8
Layer_1
 62
7
100
AcDbSpline
 70
8
 71
3
 72
8
 73
4
 74
0
 40
0
 40
0
 40
0
 40
0
 40
1
 40
1
 40
1
 40
1
 10
2.499139
 20
3.890137
 30
0.0
 10
2.456705
 20
3.890137
 30
0.0
 10
2.416008
 20
3.906994
 30
0.0
 10
2.386002
 20
3.937000
 30
0.0
  0
SPLINE
  5
2b0
100
AcDbEntity
  8
Layer_1
 62
7
100
AcDbSpline
 70
8
 71
3
 72
8
 73
4
 74
0
 40
0
 40
0
 40
0
 40
0
 40
1
 40
1
 40
1
 40
1
 10
2.386002
 20
3.937000
 30
0.0
 10
2.355996
 20
3.967005
 30
0.0
 10
2.339139
 20
4.007702
 30
0.0
 10
2.339139
 20
4.050137
 30
0.0
  0
SPLINE
  5
2b1
100
AcDbEntity
  8
Layer_1
 62
7
100
AcDbSpline
 70
8
 71
3
 72
8
 73
4
 74
0
 40
0
 40
0
 40
0
 40
0
 40
1
 40
1
 40
1
 40
1
 10
2.339139
 20
4.050137
 30
0.0
 10
2.339139
 20
4.138502
 30
0.0
 10
2.410774
 20
4.210137
 30
0.0
 10
2.499139
 20
4.210137
 30
0.0
  0
SPLINE
  5
2b2
100
AcDbEntity
  8
Layer_1
 62
7
100
AcDbSpline
 70
8
 71
3
 72
8
 73
4
 74
0
 40
0
 40
0
 40
0
 40
0
 40
1
 40
1
 40
1
 40
1
 10
2.499139
 20
4.210137
 30
0.0
 10
2.541574
 20
4.210137
 30
0.0
 10
2.582270
 20
4.193280
 30
0.0
 10
2.612276
 20
4.163274
 30
0.0
  0
SPLINE
  5
2b3
100
AcDbEntity
  8
Layer_1
 62
7
100
AcDbSpline
 70
8
 71
3
 72
8
 73
4
 74
0
 40
0
 40
0
 40
0
 40
0
 40
1
 40
1
 40
1
 40
1
 10
2.612276
 20
4.163274
 30
0.0
 10
2.642282
 20
4.133268
 30
0.0
 10
2.659139
 20
4.092571
 30
0.0
 10
2.659139
 20
4.050137
 30
0.0
  0
LINE
  5
2b4
100
AcDbEntity
  8
Layer_1
 62
7
100
AcDbLine
 10
2.659139
 20
4.050137
 30
0.0
 11
2.659139
 21
4.050137
 31
0.0
  0
SPLINE
  5
2b5
100
AcDbEntity
  8
Layer_1
 62
7
100
AcDbSpline
 70
8
 71
3
 72
8
 73
4
 74
0
 40
0
 40
0
 40
0
 40
0
 40
1
 40
1
 40
1
 40
1
 10
3.661081
 20
4.050137
 30
0.0
 10
3.661081
 20
4.007702
 30
0.0
 10
3.644224
 20
3.967005
 30
0.0
 10
3.614218
 20
3.937000
 30
0.0
  0
SPLINE
  5
2b6
100
AcDbEntity
  8
Layer_1
 62
7
100
AcDbSpline
 70
8
 71
3
 72
8
 73
4
 74
0
 40
0
 40
0
 40
0
 40
0
 40
1
 40
1
 40
1
 40
1
 10
3.614218
 20
3.937000
 30
0.0
 10
3.584212
 20
3.906994
 30
0.0
 10
3.543516
 20
3.890137
 30
0.0
 10
3.501081
 20
3.890137
 30
0.0
  0
SPLINE
  5
2b7
100
AcDbEntity
  8
Layer_1
 62
7
100
AcDbSpline
 70
8
 71
3
 72
8
 73
4
 74
0
 40
0
 40
0
 40
0
 40
0
 40
1
 40
1
 40
1
 40
1
 10
3.501081
 20
3.890137
 30
0.0
 10
3.458646
 20
3.890137
 30
0.0
 10
3.417950
 20
3.906994
 30
0.0
 10
3.387944
 20
3.937000
 30
0.0
  0
SPLINE
  5
2b8
100
AcDbEntity
  8
Layer_1
 62
7
100
AcDbSpline
 70
8
 71
3
 72
8
 73
4
 74
0
 40
0
 40
0
 40
0
 40
0
 40
1
 40
1
 40
1
 40
1
 10
3.387944
 20
3.937000
 30
0.0
 10
3.357938
 20
3.967005
 30
0.0
 10
3.341081
 20
4.007702
 30
0.0
 10
3.341081
 20
4.050137
 30
0.0
  0
SPLINE
  5
2b9
100
AcDbEntity
  8
Layer_1
 62
7
100
AcDbSpline
 70
8
 71
3
 72
8
 73
4
 74
0
 40
0
 40
0
 40
0
 40
0
 40
1
 40
1
 40
1
 40
1
 10
3.341081
 20
4.050137
 30
0.0
 10
3.341081
 20
4.138502
 30
0.0
 10
3.412715
 20
4.210137
 30
0.0
 10
3.501081
 20
4.210137
 30
0.0
  0
SPLINE
  5
2ba
100
AcDbEntity
  8
Layer_1
 62
7
100
AcDbSpline
 70
8
 71
3
 72
8
 73
4
 74
0
 40
0
 40
0
 40
0
 40
0
 40
1
 40
1
 40
1
 40
1
 10
3.501081
 20
4.210137
 30
0.0
 10
3.543516
 20
4.210137
 30
0.0
 10
3.584212
 20
4.193280
 30
0.0
 10
3.614218
 20
4.163274
 30
0.0
  0
SPLINE
  5
2bb
100
AcDbEntity
  8
Layer_1
 62
7
100
AcDbSpline
 70
8
 71
3
 72
8
 73
4
 74
0
 40
0
 40
0
 40
0
 40
0
 40
1
 40
1
 40
1
 40
1
 10
3.614218
 20
4.163274
 30
0.0
 10
3.644224
 20
4.133268
 30
0.0
 10
3.661081
 20
4.092571
 30
0.0
 10
3.661081
 20
4.050137
 30
0.0
  0
LINE
  5
2bc
100
AcDbEntity
  8
Layer_1
 62
7
100
AcDbLine
 10
3.661081
 20
4.050137
 30
0.0
 11
3.661081
 21
4.050137
 31
0.0
  0
SPLINE
  5
2bd
100
AcDbEntity
  8
Layer_1
 62
7
100
AcDbSpline
 70
8
 71
3
 72
8
 73
4
 74
0
 40
0
 40
0
 40
0
 40
0
 40
1
 40
1
 40
1
 40
1
 10
4.471792
 20
3.456952
 30
0.0
 10
4.471792
 20
3.414517
 30
0.0
 10
4.454935
 20
3.373821
 30
0.0
 10
4.424929
 20
3.343815
 30
0.0
  0
SPLINE
  5
2be
100
AcDbEntity
  8
Layer_1
 62
7
100
AcDbSpline
 70
8
 71
3
 72
8
 73
4
 74
0
 40
0
 40
0
 40
0
 40
0
 40
1
 40
1
 40
1
 40
1
 10
4.424929
 20
3.343815
 30
0.0
 10
4.394923
 20
3.313809
 30
0.0
 10
4.354227
 20
3.296952
 30
0.0
 10
4.311792
 20
3.296952
 30
0.0
  0
SPLINE
  5
2bf
100
AcDbEntity
  8
Layer_1
 62
7
100
AcDbSpline
 70
8
 71
3
 72
8
 73
4
 74
0
 40
0
 40
0
 40
0
 40
0
 40
1
 40
1
 40
1
 40
1
 10
4.311792
 20
3.296952
 30
0.0
 10
4.269357
 20
3.296952
 30
0.0
 10
4.228661
 20
3.313809
 30
0.0
 10
4.198655
 20
3.343815
 30
0.0
  0
SPLINE
  5
2c0
100
AcDbEntity
  8
Layer_1
 62
7
100
AcDbSpline
 70
8
 71
3
 72
8
 73
4
 74
0
 40
0
 40
0
 40
0
 40
0
 40
1
 40
1
 40
1
 40
1
 10
4.198655
 20
3.343815
 30
0.0
 10
4.168649
 20
3.373821
 30
0.0
 10
4.151792
 20
3.414517
 30
0.0
 10
4.151792
 20
3.456952
 30
0.0
  0
SPLINE
  5
2c1
100
AcDbEntity
  8
Layer_1
 62
7
100
AcDbSpline
 70
8
 71
3
 72
8
 73
4
 74
0
 40
0
 40
0
 40
0
 40
0
 40
1
 40
1
 40
1
 40
1
 10
4.151792
 20
3.456952
 30
0.0
 10
4.151792
 20
3.499387
 30
0.0
 10
4.168649
 20
3.540083
 30
0.0
 10
4.198655
 20
3.570089
 30
0.0
  0
SPLINE
  5
2c2
100
AcDbEntity
  8
Layer_1
 62
7
100
AcDbSpline
 70
8
 71
3
 72
8
 73
4
 74
0
 40
0
 40
0
 40
0
 40
0
 40
1
 40
1
 40
1
 40
1
 10
4.198655
 20
3.570089
 30
0.0
 10
4.228661
 20
3.600095
 30
0.0
 10
4.269357
 20
3.616952
 30
0.0
 10
4.311792
 20
3.616952
 30
0.0
  0
SPLINE
  5
2c3
100
AcDbEntity
  8
Layer_1
 62
7
100
AcDbSpline
 70
8
 71
3
 72
8
 73
4
 74
0
 40
0
 40
0
 40
0
 40
0
 40
1
 40
1
 40
1
 40
1
 10
4.311792
 20
3.616952
 30
0.0
 10
4.400158
 20
3.616952
 30
0.0
 10
4.471792
 20
3.545317
 30
0.0
 10
4.471792
 20
3.456952
 30
0.0
  0
LINE
  5
2c4
100
AcDbEntity
  8
Layer_1
 62
7
100
AcDbLine
 10
4.471792
 20
3.456952
 30
0.0
 11
4.471792
 21
3.456952
 31
0.0
  0
SPLINE
  5
2c5
100
AcDbEntity
  8
Layer_1
 62
7
100
AcDbSpline
 70
8
 71
3
 72
8
 73
4
 74
0
 40
0
 40
0
 40
0
 40
0
 40
1
 40
1
 40
1
 40
1
 10
4.780909
 20
2.500000
 30
0.0
 10
4.780909
 20
2.457565
 30
0.0
 10
4.764052
 20
2.416869
 30
0.0
 10
4.734046
 20
2.386863
 30
0.0
  0
SPLINE
  5
2c6
100
AcDbEntity
  8
Layer_1
 62
7
100
AcDbSpline
 70
8
 71
3
 72
8
 73
4
 74
0
 40
0
 40
0
 40
0
 40
0
 40
1
 40
1
 40
1
 40
1
 10
4.734046
 20
2.386863
 30
0.0
 10
4.704040
 20
2.356857
 30
0.0
 10
4.663343
 20
2.340000
 30
0.0
 10
4.620909
 20
2.340000
 30
0.0
  0
SPLINE
  5
2c7
100
AcDbEntity
  8
Layer_1
 62
7
100
AcDbSpline
 70
8
 71
3
 72
8
 73
4
 74
0
 40
0
 40
0
 40
0
 40
0
 40
1
 40
1
 40
1
 40
1
 10
4.620909
 20
2.340000
 30
0.0
 10
4.578474
 20
2.340000
 30
0.0
 10
4.537777
 20
2.356857
 30
0.0
 10
4.507772
 20
2.386863
 30
0.0
  0
SPLINE
  5
2c8
100
AcDbEntity
  8
Layer_1
 62
7
100
AcDbSpline
 70
8
 71
3
 72
8
 73
4
 74
0
 40
0
 40
0
 40
0
 40
0
 40
1
 40
1
 40
1
 40
1
 10
4.507772
 20
2.386863
 30
0.0
 10
4.477766
 20
2.416869
 30
0.0
 10
4.460909
 20
2.457565
 30
0.0
 10
4.460909
 20
2.500000
 30
0.0
  0
SPLINE
  5
2c9
100
AcDbEntity
  8
Layer_1
 62
7
100
AcDbSpline
 70
8
 71
3
 72
8
 73
4
 74
0
 40
0
 40
0
 40
0
 40
0
 40
1
 40
1
 40
1
 40
1
 10
4.460909
 20
2.500000
 30
0.0
 10
4.460909
 20
2.542435
 30
0.0
 10
4.477766
 20
2.583131
 30
0.0
 10
4.507772
 20
2.613137
 30
0.0
  0
SPLINE
  5
2ca
100
AcDbEntity
  8
Layer_1
 62
7
100
AcDbSpline
 70
8
 71
3
 72
8
 73
4
 74
0
 40
0
 40
0
 40
0
 40
0
 40
1
 40
1
 40
1
 40
1
 10
4.507772
 20
2.613137
 30
0.0
 10
4.537777
 20
2.643143
 30
0.0
 10
4.578474
 20
2.660000
 30
0.0
 10
4.620909
 20
2.660000
 30
0.0
  0
SPLINE
  5
2cb
100
AcDbEntity
  8
Layer_1
 62
7
100
AcDbSpline
 70
8
 71
3
 72
8
 73
4
 74
0
 40
0
 40
0
 40
0
 40
0
 40
1
 40
1
 40
1
 40
1
 10
4.620909
 20
2.660000
 30
0.0
 10
4.663343
 20
2.660000
 30
0.0
 10
4.704040
 20
2.643143
 30
0.0
 10
4.734046
 20
2.613137
 30
0.0
  0
SPLINE
  5
2cc
100
AcDbEntity
  8
Layer_1
 62
7
100
AcDbSpline
 70
8
 71
3
 72
8
 73
4
 74
0
 40
0
 40
0
 40
0
 40
0
 40
1
 40
1
 40
1
 40
1
 10
4.734046
 20
2.613137
 30
0.0
 10
4.764052
 20
2.583131
 30
0.0
 10
4.780909
 20
2.542435
 30
0.0
 10
4.780909
 20
2.500000
 30
0.0
  0
LINE
  5
2cd
100
AcDbEntity
  8
Layer_1
 62
7
100
AcDbLine
 10
4.780909
 20
2.500000
 30
0.0
 11
4.780909
 21
2.500000
 31
0.0
  0
SPLINE
  5
2ce
100
AcDbEntity
  8
Layer_1
 62
7
100
AcDbSpline
 70
8
 71
3
 72
8
 73
4
 74
0
 40
0
 40
0
 40
0
 40
0
 40
1
 40
1
 40
1
 40
1
 10
4.471792
 20
1.541574
 30
0.0
 10
4.471792
 20
1.499139
 30
0.0
 10
4.454935
 20
1.458443
 30
0.0
 10
4.424929
 20
1.428437
 30
0.0
  0
SPLINE
  5
2cf
100
AcDbEntity
  8
Layer_1
 62
7
100
AcDbSpline
 70
8
 71
3
 72
8
 73
4
 74
0
 40
0
 40
0
 40
0
 40
0
 40
1
 40
1
 40
1
 40
1
 10
4.424929
 20
1.428437
 30
0.0
 10
4.394923
 20
1.398431
 30
0.0
 10
4.354227
 20
1.381574
 30
0.0
 10
4.311792
 20
1.381574
 30
0.0
  0
SPLINE
  5
2d0
100
AcDbEntity
  8
Layer_1
 62
7
100
AcDbSpline
 70
8
 71
3
 72
8
 73
4
 74
0
 40
0
 40
0
 40
0
 40
0
 40
1
 40
1
 40
1
 40
1
 10
4.311792
 20
1.381574
 30
0.0
 10
4.269357
 20
1.381574
 30
0.0
 10
4.228661
 20
1.398431
 30
0.0
 10
4.198655
 20
1.428437
 30
0.0
  0
SPLINE
  5
2d1
100
AcDbEntity
  8
Layer_1
 62
7
100
AcDbSpline
 70
8
 71
3
 72
8
 73
4
 74
0
 40
0
 40
0
 40
0
 40
0
 40
1
 40
1
 40
1
 40
1
 10
4.198655
 20
1.428437
 30
0.0
 10
4.168649
 20
1.458443
 30
0.0
 10
4.151792
 20
1.499139
 30
0.0
 10
4.151792
 20
1.541574
 30
0.0
  0
SPLINE
  5
2d2
100
AcDbEntity
  8
Layer_1
 62
7
100
AcDbSpline
 70
8
 71
3
 72
8
 73
4
 74
0
 40
0
 40
0
 40
0
 40
0
 40
1
 40
1
 40
1
 40
1
 10
4.151792
 20
1.541574
 30
0.0
 10
4.151792
 20
1.584009
 30
0.0
 10
4.168649
 20
1.624705
 30
0.0
 10
4.198655
 20
1.654711
 30
0.0
  0
SPLINE
  5
2d3
100
AcDbEntity
  8
Layer_1
 62
7
100
AcDbSpline
 70
8
 71
3
 72
8
 73
4
 74
0
 40
0
 40
0
 40
0
 40
0
 40
1
 40
1
 40
1
 40
1
 10
4.198655
 20
1.654711
 30
0.0
 10
4.228661
 20
1.684717
 30
0.0
 10
4.269357
 20
1.701574
 30
0.0
 10
4.311792
 20
1.701574
 30
0.0
  0
SPLINE
  5
2d4
100
AcDbEntity
  8
Layer_1
 62
7
100
AcDbSpline
 70
8
 71
3
 72
8
 73
4
 74
0
 40
0
 40
0
 40
0
 40
0
 40
1
 40
1
 40
1
 40
1
 10
4.311792
 20
1.701574
 30
0.0
 10
4.400158
 20
1.701574
 30
0.0
 10
4.471792
 20
1.629940
 30
0.0
 10
4.471792
 20
1.541574
 30
0.0
  0
LINE
  5
2d5
100
AcDbEntity
  8
Layer_1
 62
7
100
AcDbLine
 10
4.471792
 20
1.541574
 30
0.0
 11
4.471792
 21
1.541574
 31
0.0
  0
SPLINE
  5
2d6
100
AcDbEntity
  8
Layer_1
 62
7
100
AcDbSpline
 70
8
 71
3
 72
8
 73
4
 74
0
 40
0
 40
0
 40
0
 40
0
 40
1
 40
1
 40
1
 40
1
 10
3.661081
 20
0.950995
 30
0.0
 10
3.661081
 20
0.908560
 30
0.0
 10
3.644224
 20
0.867863
 30
0.0
 10
3.614218
 20
0.837857
 30
0.0
  0
SPLINE
  5
2d7
100
AcDbEntity
  8
Layer_1
 62
7
100
AcDbSpline
 70
8
 71
3
 72
8
 73
4
 74
0
 40
0
 40
0
 40
0
 40
0
 40
1
 40
1
 40
1
 40
1
 10
3.614218
 20
0.837857
 30
0.0
 10
3.584212
 20
0.807852
 30
0.0
 10
3.543516
 20
0.790995
 30
0.0
 10
3.501081
 20
0.790995
 30
0.0
  0
SPLINE
  5
2d8
100
AcDbEntity
  8
Layer_1
 62
7
100
AcDbSpline
 70
8
 71
3
 72
8
 73
4
 74
0
 40
0
 40
0
 40
0
 40
0
 40
1
 40
1
 40
1
 40
1
 10
3.501081
 20
0.790995
 30
0.0
 10
3.458646
 20
0.790995
 30
0.0
 10
3.417950
 20
0.807852
 30
0.0
 10
3.387944
 20
0.837857
 30
0.0
  0
SPLINE
  5
2d9
100
AcDbEntity
  8
Layer_1
 62
7
100
AcDbSpline
 70
8
 71
3
 72
8
 73
4
 74
0
 40
0
 40
0
 40
0
 40
0
 40
1
 40
1
 40
1
 40
1
 10
3.387944
 20
0.837857
 30
0.0
 10
3.357938
 20
0.867863
 30
0.0
 10
3.341081
 20
0.908560
 30
0.0
 10
3.341081
 20
0.950995
 30
0.0
  0
SPLINE
  5
2da
100
AcDbEntity
  8
Layer_1
 62
7
100
AcDbSpline
 70
8
 71
3
 72
8
 73
4
 74
0
 40
0
 40
0
 40
0
 40
0
 40
1
 40
1
 40
1
 40
1
 10
3.341081
 20
0.950995
 30
0.0
 10
3.341081
 20
1.039360
 30
0.0
 10
3.412715
 20
1.110995
 30
0.0
 10
3.501081
 20
1.110995
 30
0.0
  0
SPLINE
  5
2db
100
AcDbEntity
  8
Layer_1
 62
7
100
AcDbSpline
 70
8
 71
3
 72
8
 73
4
 74
0
 40
0
 40
0
 40
0
 40
0
 40
1
 40
1
 40
1
 40
1
 10
3.501081
 20
1.110995
 30
0.0
 10
3.543516
 20
1.110995
 30
0.0
 10
3.584212
 20
1.094138
 30
0.0
 10
3.614218
 20
1.064132
 30
0.0
  0
SPLINE
  5
2dc
100
AcDbEntity
  8
Layer_1
 62
7
100
AcDbSpline
 70
8
 71
3
 72
8
 73
4
 74
0
 40
0
 40
0
 40
0
 40
0
 40
1
 40
1
 40
1
 40
1
 10
3.614218
 20
1.064132
 30
0.0
 10
3.644224
 20
1.034126
 30
0.0
 10
3.661081
 20
0.993429
 30
0.0
 10
3.661081
 20
0.950995
 30
0.0
  0
LINE
  5
2dd
100
AcDbEntity
  8
Layer_1
 62
7
100
AcDbLine
 10
3.661081
 20
0.950995
 30
0.0
 11
3.661081
 21
0.950995
 31
0.0
  0
SPLINE
  5
2de
100
AcDbEntity
  8
Layer_1
 62
7
100
AcDbSpline
 70
8
 71
3
 72
8
 73
4
 74
0
 40
0
 40
0
 40
0
 40
0
 40
1
 40
1
 40
1
 40
1
 10
2.658867
 20
0.950995
 30
0.0
 10
2.658867
 20
0.908560
 30
0.0
 10
2.642010
 20
0.867863
 30
0.0
 10
2.612004
 20
0.837857
 30
0.0
  0
SPLINE
  5
2df
100
AcDbEntity
  8
Layer_1
 62
7
100
AcDbSpline
 70
8
 71
3
 72
8
 73
4
 74
0
 40
0
 40
0
 40
0
 40
0
 40
1
 40
1
 40
1
 40
1
 10
2.612004
 20
0.837857
 30
0.0
 10
2.581998
 20
0.807852
 30
0.0
 10
2.541301
 20
0.790995
 30
0.0
 10
2.498867
 20
0.790995
 30
0.0
  0
SPLINE
  5
2e0
100
AcDbEntity
  8
Layer_1
 62
7
100
AcDbSpline
 70
8
 71
3
 72
8
 73
4
 74
0
 40
0
 40
0
 40
0
 40
0
 40
1
 40
1
 40
1
 40
1
 10
2.498867
 20
0.790995
 30
0.0
 10
2.456432
 20
0.790995
 30
0.0
 10
2.415735
 20
0.807852
 30
0.0
 10
2.385730
 20
0.837857
 30
0.0
  0
SPLINE
  5
2e1
100
AcDbEntity
  8
Layer_1
 62
7
100
AcDbSpline
 70
8
 71
3
 72
8
 73
4
 74
0
 40
0
 40
0
 40
0
 40
0
 40
1
 40
1
 40
1
 40
1
 10
2.385730
 20
0.837857
 30
0.0
 10
2.355724
 20
0.867863
 30
0.0
 10
2.338867
 20
0.908560
 30
0.0
 10
2.338867
 20
0.950995
 30
0.0
  0
SPLINE
  5
2e2
100
AcDbEntity
  8
Layer_1
 62
7
100
AcDbSpline
 70
8
 71
3
 72
8
 73
4
 74
0
 40
0
 40
0
 40
0
 40
0
 40
1
 40
1
 40
1
 40
1
 10
2.338867
 20
0.950995
 30
0.0
 10
2.338867
 20
0.993429
 30
0.0
 10
2.355724
 20
1.034126
 30
0.0
 10
2.385730
 20
1.064132
 30
0.0
  0
SPLINE
  5
2e3
100
AcDbEntity
  8
Layer_1
 62
7
100
AcDbSpline
 70
8
 71
3
 72
8
 73
4
 74
0
 40
0
 40
0
 40
0
 40
0
 40
1
 40
1
 40
1
 40
1
 10
2.385730
 20
1.064132
 30
0.0
 10
2.415736
 20
1.094138
 30
0.0
 10
2.456432
 20
1.110995
 30
0.0
 10
2.498867
 20
1.110995
 30
0.0
  0
SPLINE
  5
2e4
100
AcDbEntity
  8
Layer_1
 62
7
100
AcDbSpline
 70
8
 71
3
 72
8
 73
4
 74
0
 40
0
 40
0
 40
0
 40
0
 40
1
 40
1
 40
1
 40
1
 10
2.498867
 20
1.110995
 30
0.0
 10
2.541301
 20
1.110995
 30
0.0
 10
2.581998
 20
1.094138
 30
0.0
 10
2.612004
 20
1.064132
 30
0.0
  0
SPLINE
  5
2e5
100
AcDbEntity
  8
Layer_1
 62
7
100
AcDbSpline
 70
8
 71
3
 72
8
 73
4
 74
0
 40
0
 40
0
 40
0
 40
0
 40
1
 40
1
 40
1
 40
1
 10
2.612004
 20
1.064132
 30
0.0
 10
2.642010
 20
1.034126
 30
0.0
 10
2.658867
 20
0.993429
 30
0.0
 10
2.658867
 20
0.950995
 30
0.0
  0
LINE
  5
2e6
100
AcDbEntity
  8
Layer_1
 62
7
100
AcDbLine
 10
2.658867
 20
0.950995
 30
0.0
 11
2.658867
 21
0.950995
 31
0.0
  0
SPLINE
  5
2e7
100
AcDbEntity
  8
Layer_1
 62
7
100
AcDbSpline
 70
8
 71
3
 72
8
 73
4
 74
0
 40
0
 40
0
 40
0
 40
0
 40
1
 40
1
 40
1
 40
1
 10
1.847583
 20
1.541574
 30
0.0
 10
1.847583
 20
1.499139
 30
0.0
 10
1.830726
 20
1.458443
 30
0.0
 10
1.800720
 20
1.428437
 30
0.0
  0
SPLINE
  5
2e8
100
AcDbEntity
  8
Layer_1
 62
7
100
AcDbSpline
 70
8
 71
3
 72
8
 73
4
 74
0
 40
0
 40
0
 40
0
 40
0
 40
1
 40
1
 40
1
 40
1
 10
1.800720
 20
1.428437
 30
0.0
 10
1.770714
 20
1.398431
 30
0.0
 10
1.730018
 20
1.381574
 30
0.0
 10
1.687583
 20
1.381574
 30
0.0
  0
SPLINE
  5
2e9
100
AcDbEntity
  8
Layer_1
 62
7
100
AcDbSpline
 70
8
 71
3
 72
8
 73
4
 74
0
 40
0
 40
0
 40
0
 40
0
 40
1
 40
1
 40
1
 40
1
 10
1.687583
 20
1.381574
 30
0.0
 10
1.645148
 20
1.381574
 30
0.0
 10
1.604452
 20
1.398431
 30
0.0
 10
1.574446
 20
1.428437
 30
0.0
  0
SPLINE
  5
2ea
100
AcDbEntity
  8
Layer_1
 62
7
100
AcDbSpline
 70
8
 71
3
 72
8
 73
4
 74
0
 40
0
 40
0
 40
0
 40
0
 40
1
 40
1
 40
1
 40
1
 10
1.574446
 20
1.428437
 30
0.0
 10
1.544440
 20
1.458443
 30
0.0
 10
1.527583
 20
1.499139
 30
0.0
 10
1.527583
 20
1.541574
 30
0.0
  0
SPLINE
  5
2eb
100
AcDbEntity
  8
Layer_1
 62
7
100
AcDbSpline
 70
8
 71
3
 72
8
 73
4
 74
0
 40
0
 40
0
 40
0
 40
0
 40
1
 40
1
 40
1
 40
1
 10
1.527583
 20
1.541574
 30
0.0
 10
1.527583
 20
1.584009
 30
0.0
 10
1.544440
 20
1.624705
 30
0.0
 10
1.574446
 20
1.654711
 30
0.0
  0
SPLINE
  5
2ec
100
AcDbEntity
  8
Layer_1
 62
7
100
AcDbSpline
 70
8
 71
3
 72
8
 73
4
 74
0
 40
0
 40
0
 40
0
 40
0
 40
1
 40
1
 40
1
 40
1
 10
1.574446
 20
1.654711
 30
0.0
 10
1.604452
 20
1.684717
 30
0.0
 10
1.645148
 20
1.701574
 30
0.0
 10
1.687583
 20
1.701574
 30
0.0
  0
SPLINE
  5
2ed
100
AcDbEntity
  8
Layer_1
 62
7
100
AcDbSpline
 70
8
 71
3
 72
8
 73
4
 74
0
 40
0
 40
0
 40
0
 40
0
 40
1
 40
1
 40
1
 40
1
 10
1.687583
 20
1.701574
 30
0.0
 10
1.775948
 20
1.701574
 30
0.0
 10
1.847583
 20
1.629940
 30
0.0
 10
1.847583
 20
1.541574
 30
0.0
  0
LINE
  5
2ee
100
AcDbEntity
  8
Layer_1
 62
7
100
AcDbLine
 10
1.847583
 20
1.541574
 30
0.0
 11
1.847583
 21
1.541574
 31
0.0
  0
SPLINE
  5
2ef
100
AcDbEntity
  8
Layer_1
 62
7
100
AcDbSpline
 70
8
 71
3
 72
8
 73
4
 74
0
 40
0
 40
0
 40
0
 40
0
 40
1
 40
1
 40
1
 40
1
 10
1.539004
 20
2.500000
 30
0.0
 10
1.539004
 20
2.457565
 30
0.0
 10
1.522147
 20
2.416869
 30
0.0
 10
1.492141
 20
2.386863
 30
0.0
  0
SPLINE
  5
2f0
100
AcDbEntity
  8
Layer_1
 62
7
100
AcDbSpline
 70
8
 71
3
 72
8
 73
4
 74
0
 40
0
 40
0
 40
0
 40
0
 40
1
 40
1
 40
1
 40
1
 10
1.492141
 20
2.386863
 30
0.0
 10
1.462135
 20
2.356857
 30
0.0
 10
1.421439
 20
2.340000
 30
0.0
 10
1.379004
 20
2.340000
 30
0.0
  0
SPLINE
  5
2f1
100
AcDbEntity
  8
Layer_1
 62
7
100
AcDbSpline
 70
8
 71
3
 72
8
 73
4
 74
0
 40
0
 40
0
 40
0
 40
0
 40
1
 40
1
 40
1
 40
1
 10
1.379004
 20
2.340000
 30
0.0
 10
1.336569
 20
2.340000
 30
0.0
 10
1.295873
 20
2.356857
 30
0.0
 10
1.265867
 20
2.386863
 30
0.0
  0
SPLINE
  5
2f2
100
AcDbEntity
  8
Layer_1
 62
7
100
AcDbSpline
 70
8
 71
3
 72
8
 73
4
 74
0
 40
0
 40
0
 40
0
 40
0
 40
1
 40
1
 40
1
 40
1
 10
1.265867
 20
2.386863
 30
0.0
 10
1.235861
 20
2.416869
 30
0.0
 10
1.219004
 20
2.457565
 30
0.0
 10
1.219004
 20
2.500000
 30
0.0
  0
SPLINE
  5
2f3
100
AcDbEntity
  8
Layer_1
 62
7
100
AcDbSpline
 70
8
 71
3
 72
8
 73
4
 74
0
 40
0
 40
0
 40
0
 40
0
 40
1
 40
1
 40
1
 40
1
 10
1.219004
 20
2.500000
 30
0.0
 10
1.219004
 20
2.588366
 30
0.0
 10
1.290639
 20
2.660000
 30
0.0
 10
1.379004
 20
2.660000
 30
0.0
  0
SPLINE
  5
2f4
100
AcDbEntity
  8
Layer_1
 62
7
100
AcDbSpline
 70
8
 71
3
 72
8
 73
4
 74
0
 40
0
 40
0
 40
0
 40
0
 40
1
 40
1
 40
1
 40
1
 10
1.379004
 20
2.660000
 30
0.0
 10
1.421439
 20
2.660000
 30
0.0
 10
1.462135
 20
2.643143
 30
0.0
 10
1.492141
 20
2.613137
 30
0.0
  0
SPLINE
  5
2f5
100
AcDbEntity
  8
Layer_1
 62
7
100
AcDbSpline
 70
8
 71
3
 72
8
 73
4
 74
0
 40
0
 40
0
 40
0
 40
0
 40
1
 40
1
 40
1
 40
1
 10
1.492141
 20
2.613137
 30
0.0
 10
1.522147
 20
2.583131
 30
0.0
 10
1.539004
 20
2.542435
 30
0.0
 10
1.539004
 20
2.500000
 30
0.0
  0
LINE
  5
2f6
100
AcDbEntity
  8
Layer_1
 62
7
100
AcDbLine
 10
1.539004
 20
2.500000
 30
0.0
 11
1.539004
 21
2.500000
 31
0.0
  0
SPLINE
  5
2f7
100
AcDbEntity
  8
Layer_1
 62
7
100
AcDbSpline
 70
8
 71
3
 72
8
 73
4
 74
0
 40
0
 40
0
 40
0
 40
0
 40
1
 40
1
 40
1
 40
1
 10
1.847583
 20
3.456952
 30
0.0
 10
1.847583
 20
3.414517
 30
0.0
 10
1.830726
 20
3.373821
 30
0.0
 10
1.800720
 20
3.343815
 30
0.0
  0
SPLINE
  5
2f8
100
AcDbEntity
  8
Layer_1
 62
7
100
AcDbSpline
 70
8
 71
3
 72
8
 73
4
 74
0
 40
0
 40
0
 40
0
 40
0
 40
1
 40
1
 40
1
 40
1
 10
1.800720
 20
3.343815
 30
0.0
 10
1.770714
 20
3.313809
 30
0.0
 10
1.730018
 20
3.296952
 30
0.0
 10
1.687583
 20
3.296952
 30
0.0
  0
SPLINE
  5
2f9
100
AcDbEntity
  8
Layer_1
 62
7
100
AcDbSpline
 70
8
 71
3
 72
8
 73
4
 74
0
 40
0
 40
0
 40
0
 40
0
 40
1
 40
1
 40
1
 40
1
 10
1.687583
 20
3.296952
 30
0.0
 10
1.645148
 20
3.296952
 30
0.0
 10
1.604452
 20
3.313809
 30
0.0
 10
1.574446
 20
3.343815
 30
0.0
  0
SPLINE
  5
2fa
100
AcDbEntity
  8
Layer_1
 62
7
100
AcDbSpline
 70
8
 71
3
 72
8
 73
4
 74
0
 40
0
 40
0
 40
0
 40
0
 40
1
 40
1
 40
1
 40
1
 10
1.574446
 20
3.343815
 30
0.0
 10
1.544440
 20
3.373821
 30
0.0
 10
1.527583
 20
3.414517
 30
0.0
 10
1.527583
 20
3.456952
 30
0.0
  0
SPLINE
  5
2fb
100
AcDbEntity
  8
Layer_1
 62
7
100
AcDbSpline
 70
8
 71
3
 72
8
 73
4
 74
0
 40
0
 40
0
 40
0
 40
0
 40
1
 40
1
 40
1
 40
1
 10
1.527583
 20
3.456952
 30
0.0
 10
1.527583
 20
3.499387
 30
0.0
 10
1.544440
 20
3.540083
 30
0.0
 10
1.574446
 20
3.570089
 30
0.0
  0
SPLINE
  5
2fc
100
AcDbEntity
  8
Layer_1
 62
7
100
AcDbSpline
 70
8
 71
3
 72
8
 73
4
 74
0
 40
0
 40
0
 40
0
 40
0
 40
1
 40
1
 40
1
 40
1
 10
1.574446
 20
3.570089
 30
0.0
 10
1.604452
 20
3.600095
 30
0.0
 10
1.645148
 20
3.616952
 30
0.0
 10
1.687583
 20
3.616952
 30
0.0
  0
SPLINE
  5
2fd
100
AcDbEntity
  8
Layer_1
 62
7
100
AcDbSpline
 70
8
 71
3
 72
8
 73
4
 74
0
 40
0
 40
0
 40
0
 40
0
 40
1
 40
1
 40
1
 40
1
 10
1.687583
 20
3.616952
 30
0.0
 10
1.775948
 20
3.616952
 30
0.0
 10
1.847583
 20
3.545317
 30
0.0
 10
1.847583
 20
3.456952
 30
0.0
  0
LINE
  5
2fe
100
AcDbEntity
  8
Layer_1
 62
7
100
AcDbLine
 10
1.847583
 20
3.456952
 30
0.0
 11
1.847583
 21
3.456952
 31
0.0
  0
SPLINE
  5
2ff
100
AcDbEntity
  8
Layer_1
 62
7
100
AcDbSpline
 70
8
 71
3
 72
8
 73
4
 74
0
 40
0
 40
0
 40
0
 40
0
 40
1
 40
1
 40
1
 40
1
 10
3.074142
 20
2.903799
 30
0.0
 10
3.074143
 20
2.885234
 30
0.0
 10
3.066768
 20
2.867429
 30
0.0
 10
3.053640
 20
2.854301
 30
0.0
  0
SPLINE
  5
300
100
AcDbEntity
  8
Layer_1
 62
7
100
AcDbSpline
 70
8
 71
3
 72
8
 73
4
 74
0
 40
0
 40
0
 40
0
 40
0
 40
1
 40
1
 40
1
 40
1
 10
3.053640
 20
2.854301
 30
0.0
 10
3.040512
 20
2.841174
 30
0.0
 10
3.022708
 20
2.833799
 30
0.0
 10
3.004142
 20
2.833799
 30
0.0
  0
SPLINE
  5
301
100
AcDbEntity
  8
Layer_1
 62
7
100
AcDbSpline
 70
8
 71
3
 72
8
 73
4
 74
0
 40
0
 40
0
 40
0
 40
0
 40
1
 40
1
 40
1
 40
1
 10
3.004142
 20
2.833799
 30
0.0
 10
2.985577
 20
2.833799
 30
0.0
 10
2.967773
 20
2.841174
 30
0.0
 10
2.954645
 20
2.854301
 30
0.0
  0
SPLINE
  5
302
100
AcDbEntity
  8
Layer_1
 62
7
100
AcDbSpline
 70
8
 71
3
 72
8
 73
4
 74
0
 40
0
 40
0
 40
0
 40
0
 40
1
 40
1
 40
1
 40
1
 10
2.954645
 20
2.854301
 30
0.0
 10
2.941517
 20
2.867429
 30
0.0
 10
2.934142
 20
2.885234
 30
0.0
 10
2.934142
 20
2.903799
 30
0.0
  0
SPLINE
  5
303
100
AcDbEntity
  8
Layer_1
 62
7
100
AcDbSpline
 70
8
 71
3
 72
8
 73
4
 74
0
 40
0
 40
0
 40
0
 40
0
 40
1
 40
1
 40
1
 40
1
 10
2.934142
 20
2.903799
 30
0.0
 10
2.934142
 20
2.922364
 30
0.0
 10
2.941517
 20
2.940169
 30
0.0
 10
2.954645
 20
2.953296
 30
0.0
  0
SPLINE
  5
304
100
AcDbEntity
  8
Layer_1
 62
7
100
AcDbSpline
 70
8
 71
3
 72
8
 73
4
 74
0
 40
0
 40
0
 40
0
 40
0
 40
1
 40
1
 40
1
 40
1
 10
2.954645
 20
2.953296
 30
0.0
 10
2.967772
 20
2.966424
 30
0.0
 10
2.985577
 20
2.973799
 30
0.0
 10
3.004142
 20
2.973799
 30
0.0
  0
SPLINE
  5
305
100
AcDbEntity
  8
Layer_1
 62
7
100
AcDbSpline
 70
8
 71
3
 72
8
 73
4
 74
0
 40
0
 40
0
 40
0
 40
0
 40
1
 40
1
 40
1
 40
1
 10
3.004142
 20
2.973799
 30
0.0
 10
3.022708
 20
2.973799
 30
0.0
 10
3.040512
 20
2.966424
 30
0.0
 10
3.053640
 20
2.953296
 30
0.0
  0
SPLINE
  5
306
100
AcDbEntity
  8
Layer_1
 62
7
100
AcDbSpline
 70
8
 71
3
 72
8
 73
4
 74
0
 40
0
 40
0
 40
0
 40
0
 40
1
 40
1
 40
1
 40
1
 10
3.053640
 20
2.953296
 30
0.0
 10
3.066768
 20
2.940169
 30
0.0
 10
3.074143
 20
2.922364
 30
0.0
 10
3.074142
 20
2.903799
 30
0.0
  0
LINE
  5
307
100
AcDbEntity
  8
Layer_1
 62
7
100
AcDbLine
 10
3.074142
 20
2.903799
 30
0.0
 11
3.074142
 21
2.903799
 31
0.0
  0
SPLINE
  5
308
100
AcDbEntity
  8
Layer_1
 62
7
100
AcDbSpline
 70
8
 71
3
 72
8
 73
4
 74
0
 40
0
 40
0
 40
0
 40
0
 40
1
 40
1
 40
1
 40
1
 10
3.317687
 20
2.151661
 30
0.0
 10
3.317687
 20
2.133095
 30
0.0
 10
3.310312
 20
2.115291
 30
0.0
 10
3.297184
 20
2.102163
 30
0.0
  0
SPLINE
  5
309
100
AcDbEntity
  8
Layer_1
 62
7
100
AcDbSpline
 70
8
 71
3
 72
8
 73
4
 74
0
 40
0
 40
0
 40
0
 40
0
 40
1
 40
1
 40
1
 40
1
 10
3.297184
 20
2.102163
 30
0.0
 10
3.284057
 20
2.089036
 30
0.0
 10
3.266252
 20
2.081661
 30
0.0
 10
3.247687
 20
2.081661
 30
0.0
  0
SPLINE
  5
30a
100
AcDbEntity
  8
Layer_1
 62
7
100
AcDbSpline
 70
8
 71
3
 72
8
 73
4
 74
0
 40
0
 40
0
 40
0
 40
0
 40
1
 40
1
 40
1
 40
1
 10
3.247687
 20
2.081661
 30
0.0
 10
3.229122
 20
2.081661
 30
0.0
 10
3.211317
 20
2.089036
 30
0.0
 10
3.198189
 20
2.102163
 30
0.0
  0
SPLINE
  5
30b
100
AcDbEntity
  8
Layer_1
 62
7
100
AcDbSpline
 70
8
 71
3
 72
8
 73
4
 74
0
 40
0
 40
0
 40
0
 40
0
 40
1
 40
1
 40
1
 40
1
 10
3.198189
 20
2.102163
 30
0.0
 10
3.185062
 20
2.115291
 30
0.0
 10
3.177687
 20
2.133096
 30
0.0
 10
3.177687
 20
2.151661
 30
0.0
  0
SPLINE
  5
30c
100
AcDbEntity
  8
Layer_1
 62
7
100
AcDbSpline
 70
8
 71
3
 72
8
 73
4
 74
0
 40
0
 40
0
 40
0
 40
0
 40
1
 40
1
 40
1
 40
1
 10
3.177687
 20
2.151661
 30
0.0
 10
3.177687
 20
2.170226
 30
0.0
 10
3.185062
 20
2.188031
 30
0.0
 10
3.198189
 20
2.201158
 30
0.0
  0
SPLINE
  5
30d
100
AcDbEntity
  8
Layer_1
 62
7
100
AcDbSpline
 70
8
 71
3
 72
8
 73
4
 74
0
 40
0
 40
0
 40
0
 40
0
 40
1
 40
1
 40
1
 40
1
 10
3.198189
 20
2.201158
 30
0.0
 10
3.211317
 20
2.214286
 30
0.0
 10
3.229122
 20
2.221661
 30
0.0
 10
3.247687
 20
2.221661
 30
0.0
  0
SPLINE
  5
30e
100
AcDbEntity
  8
Layer_1
 62
7
100
AcDbSpline
 70
8
 71
3
 72
8
 73
4
 74
0
 40
0
 40
0
 40
0
 40
0
 40
1
 40
1
 40
1
 40
1
 10
3.247687
 20
2.221661
 30
0.0
 10
3.266252
 20
2.221661
 30
0.0
 10
3.284057
 20
2.214286
 30
0.0
 10
3.297184
 20
2.201158
 30
0.0
  0
SPLINE
  5
30f
100
AcDbEntity
  8
Layer_1
 62
7
100
AcDbSpline
 70
8
 71
3
 72
8
 73
4
 74
0
 40
0
 40
0
 40
0
 40
0
 40
1
 40
1
 40
1
 40
1
 10
3.297184
 20
2.201158
 30
0.0
 10
3.310312
 20
2.188031
 30
0.0
 10
3.317687
 20
2.170226
 30
0.0
 10
3.317687
 20
2.151661
 30
0.0
  0
LINE
  5
310
100
AcDbEntity
  8
Layer_1
 62
7
100
AcDbLine
 10
3.317687
 20
2.151661
 30
0.0
 11
3.317687
 21
2.151661
 31
0.0
  0
SPLINE
  5
311
100
AcDbEntity
  8
Layer_1
 62
7
100
AcDbSpline
 70
8
 71
3
 72
8
 73
4
 74
0
 40
0
 40
0
 40
0
 40
0
 40
1
 40
1
 40
1
 40
1
 10
2.832922
 20
2.151661
 30
0.0
 10
2.832922
 20
2.133095
 30
0.0
 10
2.825547
 20
2.115291
 30
0.0
 10
2.812419
 20
2.102163
 30
0.0
  0
SPLINE
  5
312
100
AcDbEntity
  8
Layer_1
 62
7
100
AcDbSpline
 70
8
 71
3
 72
8
 73
4
 74
0
 40
0
 40
0
 40
0
 40
0
 40
1
 40
1
 40
1
 40
1
 10
2.812419
 20
2.102163
 30
0.0
 10
2.799292
 20
2.089036
 30
0.0
 10
2.781487
 20
2.081661
 30
0.0
 10
2.762922
 20
2.081661
 30
0.0
  0
SPLINE
  5
313
100
AcDbEntity
  8
Layer_1
 62
7
100
AcDbSpline
 70
8
 71
3
 72
8
 73
4
 74
0
 40
0
 40
0
 40
0
 40
0
 40
1
 40
1
 40
1
 40
1
 10
2.762922
 20
2.081661
 30
0.0
 10
2.744356
 20
2.081661
 30
0.0
 10
2.726552
 20
2.089036
 30
0.0
 10
2.713424
 20
2.102163
 30
0.0
  0
SPLINE
  5
314
100
AcDbEntity
  8
Layer_1
 62
7
100
AcDbSpline
 70
8
 71
3
 72
8
 73
4
 74
0
 40
0
 40
0
 40
0
 40
0
 40
1
 40
1
 40
1
 40
1
 10
2.713424
 20
2.102163
 30
0.0
 10
2.700297
 20
2.115291
 30
0.0
 10
2.692922
 20
2.133096
 30
0.0
 10
2.692922
 20
2.151661
 30
0.0
  0
SPLINE
  5
315
100
AcDbEntity
  8
Layer_1
 62
7
100
AcDbSpline
 70
8
 71
3
 72
8
 73
4
 74
0
 40
0
 40
0
 40
0
 40
0
 40
1
 40
1
 40
1
 40
1
 10
2.692922
 20
2.151661
 30
0.0
 10
2.692922
 20
2.170226
 30
0.0
 10
2.700297
 20
2.188031
 30
0.0
 10
2.713424
 20
2.201158
 30
0.0
  0
SPLINE
  5
316
100
AcDbEntity
  8
Layer_1
 62
7
100
AcDbSpline
 70
8
 71
3
 72
8
 73
4
 74
0
 40
0
 40
0
 40
0
 40
0
 40
1
 40
1
 40
1
 40
1
 10
2.713424
 20
2.201158
 30
0.0
 10
2.726552
 20
2.214286
 30
0.0
 10
2.744357
 20
2.221661
 30
0.0
 10
2.762922
 20
2.221661
 30
0.0
  0
SPLINE
  5
317
100
AcDbEntity
  8
Layer_1
 62
7
100
AcDbSpline
 70
8
 71
3
 72
8
 73
4
 74
0
 40
0
 40
0
 40
0
 40
0
 40
1
 40
1
 40
1
 40
1
 10
2.762922
 20
2.221661
 30
0.0
 10
2.781487
 20
2.221661
 30
0.0
 10
2.799292
 20
2.214286
 30
0.0
 10
2.812419
 20
2.201158
 30
0.0
  0
SPLINE
  5
318
100
AcDbEntity
  8
Layer_1
 62
7
100
AcDbSpline
 70
8
 71
3
 72
8
 73
4
 74
0
 40
0
 40
0
 40
0
 40
0
 40
1
 40
1
 40
1
 40
1
 10
2.812419
 20
2.201158
 30
0.0
 10
2.825547
 20
2.188031
 30
0.0
 10
2.832922
 20
2.170226
 30
0.0
 10
2.832922
 20
2.151661
 30
0.0
  0
LINE
  5
319
100
AcDbEntity
  8
Layer_1
 62
7
100
AcDbLine
 10
2.832922
 20
2.151661
 30
0.0
 11
2.832922
 21
2.151661
 31
0.0
  0
SPLINE
  5
31a
100
AcDbEntity
  8
Layer_1
 62
7
100
AcDbSpline
 70
8
 71
3
 72
8
 73
4
 74
0
 40
0
 40
0
 40
0
 40
0
 40
1
 40
1
 40
1
 40
1
 10
2.677464
 20
2.616307
 30
0.0
 10
2.677464
 20
2.577647
 30
0.0
 10
2.646124
 20
2.546307
 30
0.0
 10
2.607464
 20
2.546307
 30
0.0
  0
SPLINE
  5
31b
100
AcDbEntity
  8
Layer_1
 62
7
100
AcDbSpline
 70
8
 71
3
 72
8
 73
4
 74
0
 40
0
 40
0
 40
0
 40
0
 40
1
 40
1
 40
1
 40
1
 10
2.607464
 20
2.546307
 30
0.0
 10
2.568804
 20
2.546307
 30
0.0
 10
2.537464
 20
2.577647
 30
0.0
 10
2.537464
 20
2.616307
 30
0.0
  0
SPLINE
  5
31c
100
AcDbEntity
  8
Layer_1
 62
7
100
AcDbSpline
 70
8
 71
3
 72
8
 73
4
 74
0
 40
0
 40
0
 40
0
 40
0
 40
1
 40
1
 40
1
 40
1
 10
2.537464
 20
2.616307
 30
0.0
 10
2.537464
 20
2.654967
 30
0.0
 10
2.568804
 20
2.686307
 30
0.0
 10
2.607464
 20
2.686307
 30
0.0
  0
SPLINE
  5
31d
100
AcDbEntity
  8
Layer_1
 62
7
100
AcDbSpline
 70
8
 71
3
 72
8
 73
4
 74
0
 40
0
 40
0
 40
0
 40
0
 40
1
 40
1
 40
1
 40
1
 10
2.607464
 20
2.686307
 30
0.0
 10
2.646124
 20
2.686307
 30
0.0
 10
2.677464
 20
2.654967
 30
0.0
 10
2.677464
 20
2.616307
 30
0.0
  0
LINE
  5
31e
100
AcDbEntity
  8
Layer_1
 62
7
100
AcDbLine
 10
2.677464
 20
2.616307
 30
0.0
 11
2.677464
 21
2.616307
 31
0.0
  0
SPLINE
  5
31f
100
AcDbEntity
  8
Layer_1
 62
7
100
AcDbSpline
 70
8
 71
3
 72
8
 73
4
 74
0
 40
0
 40
0
 40
0
 40
0
 40
1
 40
1
 40
1
 40
1
 10
3.471072
 20
2.616307
 30
0.0
 10
3.471072
 20
2.577647
 30
0.0
 10
3.439732
 20
2.546307
 30
0.0
 10
3.401072
 20
2.546307
 30
0.0
  0
SPLINE
  5
320
100
AcDbEntity
  8
Layer_1
 62
7
100
AcDbSpline
 70
8
 71
3
 72
8
 73
4
 74
0
 40
0
 40
0
 40
0
 40
0
 40
1
 40
1
 40
1
 40
1
 10
3.401072
 20
2.546307
 30
0.0
 10
3.362412
 20
2.546307
 30
0.0
 10
3.331072
 20
2.577647
 30
0.0
 10
3.331072
 20
2.616307
 30
0.0
  0
SPLINE
  5
321
100
AcDbEntity
  8
Layer_1
 62
7
100
AcDbSpline
 70
8
 71
3
 72
8
 73
4
 74
0
 40
0
 40
0
 40
0
 40
0
 40
1
 40
1
 40
1
 40
1
 10
3.331072
 20
2.616307
 30
0.0
 10
3.331072
 20
2.654967
 30
0.0
 10
3.362412
 20
2.686307
 30
0.0
 10
3.401072
 20
2.686307
 30
0.0
  0
SPLINE
  5
322
100
AcDbEntity
  8
Layer_1
 62
7
100
AcDbSpline
 70
8
 71
3
 72
8
 73
4
 74
0
 40
0
 40
0
 40
0
 40
0
 40
1
 40
1
 40
1
 40
1
 10
3.401072
 20
2.686307
 30
0.0
 10
3.439732
 20
2.686307
 30
0.0
 10
3.471072
 20
2.654967
 30
0.0
 10
3.471072
 20
2.616307
 30
0.0
  0
LINE
  5
323
100
AcDbEntity
  8
Layer_1
 62
7
100
AcDbLine
 10
3.471072
 20
2.616307
 30
0.0
 11
3.471072
 21
2.616307
 31
0.0
  0
ENDSEC
  0
SECTION
  2
OBJECTS
  0
DICTIONARY
  5
C
330
0
100
AcDbDictionary
  3
ACAD_GROUP
350
D
  3
ACAD_MLINESTYLE
350
17
  0
DICTIONARY
  5
D
330
C
100
AcDbDictionary
  0
DICTIONARY
  5
1A
330
C
100
AcDbDictionary
  0
DICTIONARY
  5
17
330
C
100
AcDbDictionary
  3
STANDARD
350
18
  0
DICTIONARY
  5
19
330
C
100
AcDbDictionary
  0
ENDSEC
  0
EOF
