  0
SECTION
  2
HEADER
  9
$ACADVER
  1
AC1014
  9
$HANDSEED
  5
FFFF
  9
$MEASUREMENT
 70
     1
  0
ENDSEC
  0
SECTION
  2
TABLES
  0
TABLE
  2
VPORT
  5
8
330
0
100
AcDbSymbolTable
 70
     4
  0
VPORT
  5
2E
330
8
100
AcDbSymbolTableRecord
100
AcDbViewportTableRecord
  2
*ACTIVE
 70
     0
 10
0.0
 20
0.0
 11
1.0
 21
1.0
 12
210.0
 22
148.5
 13
0.0
 23
0.0
 14
10.0
 24
10.0
 15
10.0
 25
10.0
 16
0.0
 26
0.0
 36
1.0
 17
0.0
 27
0.0
 37
0.0
 40
341.0
 41
1.24
 42
50.0
 43
0.0
 44
0.0
 50
0.0
 51
0.0
 71
     0
 72
   100
 73
     1
 74
     3
 75
     0
 76
     0
 77
     0
 78
     0
  0
ENDTAB
  0
TABLE
  2
LTYPE
  5
5
330
0
100
AcDbSymbolTable
 70
     1
  0
LTYPE
  5
14
330
5
100
AcDbSymbolTableRecord
100
AcDbLinetypeTableRecord
  2
BYBLOCK
 70
     0
  3

 72
    65
 73
     0
 40
0.0
  0
LTYPE
  5
15
330
5
100
AcDbSymbolTableRecord
100
AcDbLinetypeTableRecord
  2
BYLAYER
 70
     0
  3

 72
    65
 73
     0
 40
0.0
  0
LTYPE
  5
16
330
5
100
AcDbSymbolTableRecord
100
AcDbLinetypeTableRecord
  2
CONTINUOUS
 70
     0
  3
Solid line
 72
    65
 73
     0
 40
0.0
  0
ENDTAB
  0
TABLE
  2
LAYER
  5
2
100
AcDbSymbolTable
 70
3
  0
LAYER
  5
50
100
AcDbSymbolTableRecord
100
AcDbLayerTableRecord
  2
0
 70
0
  6
CONTINUOUS
  0
LAYER
  5
51
100
AcDbSymbolTableRecord
100
AcDbLayerTableRecord
  2
Layer_1
 70
0
  6
CONTINUOUS
  0
LAYER
  5
52
100
AcDbSymbolTableRecord
100
AcDbLayerTableRecord
  2
Letters
 70
0
  6
CONTINUOUS
  0
ENDTAB
  0
TABLE
  2
STYLE
  5
3
330
0
100
AcDbSymbolTable
 70
     1
  0
STYLE
  5
11
330
3
100
AcDbSymbolTableRecord
100
AcDbTextStyleTableRecord
  2
STANDARD
 70
     0
 40
0.0
 41
1.0
 50
0.0
 71
     0
 42
2.5
  3
txt
  4

  0
ENDTAB
  0
TABLE
  2
VIEW
  5
6
330
0
100
AcDbSymbolTable
 70
     0
  0
ENDTAB
  0
TABLE
  2
UCS
  5
7
330
0
100
AcDbSymbolTable
 70
     0
  0
ENDTAB
  0
TABLE
  2
APPID
  5
9
330
0
100
AcDbSymbolTable
 70
     2
  0
APPID
  5
12
330
9
100
AcDbSymbolTableRecord
100
AcDbRegAppTableRecord
  2
ACAD
 70
     0
  0
ENDTAB
  0
TABLE
  2
DIMSTYLE
  5
A
330
0
100
AcDbSymbolTable
 70
     1
  0
DIMSTYLE
105
27
330
A
100
AcDbSymbolTableRecord
100
AcDbDimStyleTableRecord
  2
ISO-25
 70
     0
  3

  4

  5

  6

  7

 40
1.0
 41
2.5
 42
0.625
 43
3.75
 44
1.25
 45
0.0
 46
0.0
 47
0.0
 48
0.0
140
2.5
141
2.5
142
0.0
143
0.03937007874016
144
1.0
145
0.0
146
1.0
147
0.625
 71
     0
 72
     0
 73
     0
 74
     0
 75
     0
 76
     0
 77
     1
 78
     8
170
     0
171
     3
172
     1
173
     0
174
     0
175
     0
176
     0
177
     0
178
     0
270
     2
271
     2
272
     2
273
     2
274
     3
340
11
275
     0
280
     0
281
     0
282
     0
283
     0
284
     8
285
     0
286
     0
287
     3
288
     0
  0
ENDTAB
  0
TABLE
  2
BLOCK_RECORD
  5
1
330
0
100
AcDbSymbolTable
 70
     1
  0
BLOCK_RECORD
  5
1F
330
1
100
AcDbSymbolTableRecord
100
AcDbBlockTableRecord
  2
*MODEL_SPACE
  0
BLOCK_RECORD
  5
1B
330
1
100
AcDbSymbolTableRecord
100
AcDbBlockTableRecord
  2
*PAPER_SPACE
  0
ENDTAB
  0
ENDSEC
  0
SECTION
  2
BLOCKS
  0
BLOCK
  5
20
330
1F
100
AcDbEntity
  8
0
100
AcDbBlockBegin
  2
*MODEL_SPACE
 70
     0
 10
0.0
 20
0.0
 30
0.0
  3
*MODEL_SPACE
  1

  0
ENDBLK
  5
21
330
1F
100
AcDbEntity
  8
0
100
AcDbBlockEnd
  0
BLOCK
  5
1C
330
1B
100
AcDbEntity
 67
     1
  8
0
100
AcDbBlockBegin
  2
*PAPER_SPACE
  1

  0
ENDBLK
  5
1D
330
1B
100
AcDbEntity
 67
     1
  8
0
100
AcDbBlockEnd
  0
ENDSEC
  0
SECTION
  2
ENTITIES
  0
SPLINE
  5
100
100
AcDbEntity
  8
Layer_1
 62
7
100
AcDbSpline
 70
8
 71
3
 72
8
 73
4
 74
0
 40
0
 40
0
 40
0
 40
0
 40
1
 40
1
 40
1
 40
1
 10
15.205300
 20
81.949950
 30
0.0
 10
12.390990
 20
81.949950
 30
0.0
 10
10.125000
 20
84.215930
 30
0.0
 10
10.125000
 20
87.030250
 30
0.0
  0
LINE
  5
101
100
AcDbEntity
  8
Layer_1
 62
7
100
AcDbLine
 10
10.125000
 20
87.030250
 30
0.0
 11
10.125000
 21
146.720140
 31
0.0
  0
SPLINE
  5
102
100
AcDbEntity
  8
Layer_1
 62
7
100
AcDbSpline
 70
8
 71
3
 72
8
 73
4
 74
0
 40
0
 40
0
 40
0
 40
0
 40
1
 40
1
 40
1
 40
1
 10
10.125000
 20
146.720140
 30
0.0
 10
10.125000
 20
149.534460
 30
0.0
 10
12.390990
 20
151.799940
 30
0.0
 10
15.205300
 20
151.799940
 30
0.0
  0
LINE
  5
103
100
AcDbEntity
  8
Layer_1
 62
7
100
AcDbLine
 10
15.205300
 20
151.799940
 30
0.0
 11
220.945191
 21
151.799940
 31
0.0
  0
SPLINE
  5
104
100
AcDbEntity
  8
Layer_1
 62
7
100
AcDbSpline
 70
8
 71
3
 72
8
 73
4
 74
0
 40
0
 40
0
 40
0
 40
0
 40
1
 40
1
 40
1
 40
1
 10
220.945191
 20
151.799940
 30
0.0
 10
223.759511
 20
151.799940
 30
0.0
 10
226.024981
 20
149.534460
 30
0.0
 10
226.024981
 20
146.720140
 30
0.0
  0
LINE
  5
105
100
AcDbEntity
  8
Layer_1
 62
7
100
AcDbLine
 10
226.024981
 20
146.720140
 30
0.0
 11
226.024981
 21
87.030250
 31
0.0
  0
SPLINE
  5
106
100
AcDbEntity
  8
Layer_1
 62
7
100
AcDbSpline
 70
8
 71
3
 72
8
 73
4
 74
0
 40
0
 40
0
 40
0
 40
0
 40
1
 40
1
 40
1
 40
1
 10
226.024981
 20
87.030250
 30
0.0
 10
226.024981
 20
84.215930
 30
0.0
 10
223.759511
 20
81.949950
 30
0.0
 10
220.945191
 20
81.949950
 30
0.0
  0
LINE
  5
107
100
AcDbEntity
  8
Layer_1
 62
7
100
AcDbLine
 10
220.945191
 20
81.949950
 30
0.0
 11
15.205300
 21
81.949950
 31
0.0
  0
LINE
  5
108
100
AcDbEntity
  8
Layer_1
 62
1
100
AcDbLine
 10
96.039124
 20
136.803960
 30
0.0
 11
127.411371
 21
136.803960
 31
0.0
  0
LINE
  5
109
100
AcDbEntity
  8
Layer_1
 62
1
100
AcDbLine
 10
127.411371
 20
136.803960
 30
0.0
 11
127.411371
 21
148.653360
 31
0.0
  0
LINE
  5
10a
100
AcDbEntity
  8
Layer_1
 62
1
100
AcDbLine
 10
127.411371
 20
148.653360
 30
0.0
 11
96.039124
 21
148.653360
 31
0.0
  0
LINE
  5
10b
100
AcDbEntity
  8
Layer_1
 62
1
100
AcDbLine
 10
96.039124
 20
148.653360
 30
0.0
 11
96.039124
 21
136.803960
 31
0.0
  0
LINE
  5
10c
100
AcDbEntity
  8
Layer_1
 62
1
100
AcDbLine
 10
28.305800
 20
136.426200
 30
0.0
 11
59.677519
 21
136.426200
 31
0.0
  0
LINE
  5
10d
100
AcDbEntity
  8
Layer_1
 62
1
100
AcDbLine
 10
59.677519
 20
136.426200
 30
0.0
 11
59.677519
 21
148.275610
 31
0.0
  0
LINE
  5
10e
100
AcDbEntity
  8
Layer_1
 62
1
100
AcDbLine
 10
59.677519
 20
148.275610
 30
0.0
 11
28.305800
 21
148.275610
 31
0.0
  0
LINE
  5
10f
100
AcDbEntity
  8
Layer_1
 62
1
100
AcDbLine
 10
28.305800
 20
148.275610
 30
0.0
 11
28.305800
 21
136.426200
 31
0.0
  0
LINE
  5
110
100
AcDbEntity
  8
Layer_1
 62
1
100
AcDbLine
 10
179.118291
 20
126.371520
 30
0.0
 11
210.490531
 21
126.371520
 31
0.0
  0
LINE
  5
111
100
AcDbEntity
  8
Layer_1
 62
1
100
AcDbLine
 10
210.490531
 20
126.371520
 30
0.0
 11
210.490531
 21
138.221440
 31
0.0
  0
LINE
  5
112
100
AcDbEntity
  8
Layer_1
 62
1
100
AcDbLine
 10
210.490531
 20
138.221440
 30
0.0
 11
179.118291
 21
138.221440
 31
0.0
  0
LINE
  5
113
100
AcDbEntity
  8
Layer_1
 62
1
100
AcDbLine
 10
179.118291
 20
138.221440
 30
0.0
 11
179.118291
 21
126.371520
 31
0.0
  0
LINE
  5
114
100
AcDbEntity
  8
Layer_1
 62
1
100
AcDbLine
 10
125.823871
 20
116.317350
 30
0.0
 11
157.195599
 21
116.317350
 31
0.0
  0
LINE
  5
115
100
AcDbEntity
  8
Layer_1
 62
1
100
AcDbLine
 10
157.195599
 20
116.317350
 30
0.0
 11
157.195599
 21
128.167270
 31
0.0
  0
LINE
  5
116
100
AcDbEntity
  8
Layer_1
 62
1
100
AcDbLine
 10
157.195599
 20
128.167270
 30
0.0
 11
125.823871
 21
128.167270
 31
0.0
  0
LINE
  5
117
100
AcDbEntity
  8
Layer_1
 62
1
100
AcDbLine
 10
125.823871
 20
128.167270
 30
0.0
 11
125.823871
 21
116.317350
 31
0.0
  0
LINE
  5
118
100
AcDbEntity
  8
Layer_1
 62
1
100
AcDbLine
 10
58.468291
 20
106.263190
 30
0.0
 11
89.840020
 21
106.263190
 31
0.0
  0
LINE
  5
119
100
AcDbEntity
  8
Layer_1
 62
1
100
AcDbLine
 10
89.840020
 20
106.263190
 30
0.0
 11
89.840020
 21
118.113110
 31
0.0
  0
LINE
  5
11a
100
AcDbEntity
  8
Layer_1
 62
1
100
AcDbLine
 10
89.840020
 20
118.113110
 30
0.0
 11
58.468291
 21
118.113110
 31
0.0
  0
LINE
  5
11b
100
AcDbEntity
  8
Layer_1
 62
1
100
AcDbLine
 10
58.468291
 20
118.113110
 30
0.0
 11
58.468291
 21
106.263190
 31
0.0
  0
LINE
  5
11c
100
AcDbEntity
  8
Layer_1
 62
1
100
AcDbLine
 10
163.470150
 20
96.360430
 30
0.0
 11
194.841881
 21
96.360430
 31
0.0
  0
LINE
  5
11d
100
AcDbEntity
  8
Layer_1
 62
1
100
AcDbLine
 10
194.841881
 20
96.360430
 30
0.0
 11
194.841881
 21
108.209840
 31
0.0
  0
LINE
  5
11e
100
AcDbEntity
  8
Layer_1
 62
1
100
AcDbLine
 10
194.841881
 20
108.209840
 30
0.0
 11
163.470150
 21
108.209840
 31
0.0
  0
LINE
  5
11f
100
AcDbEntity
  8
Layer_1
 62
1
100
AcDbLine
 10
163.470150
 20
108.209840
 30
0.0
 11
163.470150
 21
96.360430
 31
0.0
  0
LINE
  5
120
100
AcDbEntity
  8
Layer_1
 62
1
100
AcDbLine
 10
35.827300
 20
86.419440
 30
0.0
 11
67.199541
 21
86.419440
 31
0.0
  0
LINE
  5
121
100
AcDbEntity
  8
Layer_1
 62
1
100
AcDbLine
 10
67.199541
 20
86.419440
 30
0.0
 11
67.199541
 21
98.269360
 31
0.0
  0
LINE
  5
122
100
AcDbEntity
  8
Layer_1
 62
1
100
AcDbLine
 10
67.199541
 20
98.269360
 30
0.0
 11
35.827300
 21
98.269360
 31
0.0
  0
LINE
  5
123
100
AcDbEntity
  8
Layer_1
 62
1
100
AcDbLine
 10
35.827300
 20
98.269360
 30
0.0
 11
35.827300
 21
86.419440
 31
0.0
  0
SPLINE
  5
124
100
AcDbEntity
  8
Layer_1
 62
3
100
AcDbSpline
 70
8
 71
3
 72
8
 73
4
 74
0
 40
0
 40
0
 40
0
 40
0
 40
1
 40
1
 40
1
 40
1
 10
219.752501
 20
141.324090
 30
0.0
 10
222.099610
 20
141.324162
 30
0.0
 10
224.002299
 20
143.226851
 30
0.0
 10
224.002371
 20
145.573960
 30
0.0
  0
SPLINE
  5
125
100
AcDbEntity
  8
Layer_1
 62
3
100
AcDbSpline
 70
8
 71
3
 72
8
 73
4
 74
0
 40
0
 40
0
 40
0
 40
0
 40
1
 40
1
 40
1
 40
1
 10
224.002371
 20
145.573960
 30
0.0
 10
224.002299
 20
147.921069
 30
0.0
 10
222.099610
 20
149.823758
 30
0.0
 10
219.752501
 20
149.823830
 30
0.0
  0
SPLINE
  5
126
100
AcDbEntity
  8
Layer_1
 62
3
100
AcDbSpline
 70
8
 71
3
 72
8
 73
4
 74
0
 40
0
 40
0
 40
0
 40
0
 40
1
 40
1
 40
1
 40
1
 10
219.752501
 20
149.823830
 30
0.0
 10
218.625286
 20
149.823933
 30
0.0
 10
217.544201
 20
149.376230
 30
0.0
 10
216.747091
 20
148.579218
 30
0.0
  0
SPLINE
  5
127
100
AcDbEntity
  8
Layer_1
 62
3
100
AcDbSpline
 70
8
 71
3
 72
8
 73
4
 74
0
 40
0
 40
0
 40
0
 40
0
 40
1
 40
1
 40
1
 40
1
 10
216.747091
 20
148.579218
 30
0.0
 10
215.949981
 20
147.782205
 30
0.0
 10
215.502145
 20
146.701175
 30
0.0
 10
215.502111
 20
145.573960
 30
0.0
  0
SPLINE
  5
128
100
AcDbEntity
  8
Layer_1
 62
3
100
AcDbSpline
 70
8
 71
3
 72
8
 73
4
 74
0
 40
0
 40
0
 40
0
 40
0
 40
1
 40
1
 40
1
 40
1
 10
215.502111
 20
145.573960
 30
0.0
 10
215.502145
 20
144.446745
 30
0.0
 10
215.949981
 20
143.365715
 30
0.0
 10
216.747091
 20
142.568702
 30
0.0
  0
SPLINE
  5
129
100
AcDbEntity
  8
Layer_1
 62
3
100
AcDbSpline
 70
8
 71
3
 72
8
 73
4
 74
0
 40
0
 40
0
 40
0
 40
0
 40
1
 40
1
 40
1
 40
1
 10
216.747091
 20
142.568702
 30
0.0
 10
217.544201
 20
141.771690
 30
0.0
 10
218.625286
 20
141.323987
 30
0.0
 10
219.752501
 20
141.324090
 30
0.0
  0
LINE
  5
12a
100
AcDbEntity
  8
Layer_1
 62
3
100
AcDbLine
 10
219.752501
 20
141.324090
 30
0.0
 11
219.752501
 21
141.324090
 31
0.0
  0
SPLINE
  5
12b
100
AcDbEntity
  8
Layer_1
 62
3
100
AcDbSpline
 70
8
 71
3
 72
8
 73
4
 74
0
 40
0
 40
0
 40
0
 40
0
 40
1
 40
1
 40
1
 40
1
 10
16.291540
 20
83.901760
 30
0.0
 10
18.638649
 20
83.901832
 30
0.0
 10
20.541338
 20
85.804521
 30
0.0
 10
20.541410
 20
88.151630
 30
0.0
  0
SPLINE
  5
12c
100
AcDbEntity
  8
Layer_1
 62
3
100
AcDbSpline
 70
8
 71
3
 72
8
 73
4
 74
0
 40
0
 40
0
 40
0
 40
0
 40
1
 40
1
 40
1
 40
1
 10
20.541410
 20
88.151630
 30
0.0
 10
20.541344
 20
90.498743
 30
0.0
 10
18.638653
 20
92.401438
 30
0.0
 10
16.291540
 20
92.401510
 30
0.0
  0
SPLINE
  5
12d
100
AcDbEntity
  8
Layer_1
 62
3
100
AcDbSpline
 70
8
 71
3
 72
8
 73
4
 74
0
 40
0
 40
0
 40
0
 40
0
 40
1
 40
1
 40
1
 40
1
 10
16.291540
 20
92.401510
 30
0.0
 10
13.944431
 20
92.401433
 30
0.0
 10
12.041746
 20
90.498739
 30
0.0
 10
12.041680
 20
88.151630
 30
0.0
  0
SPLINE
  5
12e
100
AcDbEntity
  8
Layer_1
 62
3
100
AcDbSpline
 70
8
 71
3
 72
8
 73
4
 74
0
 40
0
 40
0
 40
0
 40
0
 40
1
 40
1
 40
1
 40
1
 10
12.041680
 20
88.151630
 30
0.0
 10
12.041752
 20
85.804525
 30
0.0
 10
13.944435
 20
83.901837
 30
0.0
 10
16.291540
 20
83.901760
 30
0.0
  0
LINE
  5
12f
100
AcDbEntity
  8
Layer_1
 62
3
100
AcDbLine
 10
16.291540
 20
83.901760
 30
0.0
 11
16.291540
 21
83.901760
 31
0.0
  0
SPLINE
  5
130
100
AcDbEntity
  8
Layer_1
 62
5
100
AcDbSpline
 70
8
 71
3
 72
8
 73
4
 74
0
 40
0
 40
0
 40
0
 40
0
 40
1
 40
1
 40
1
 40
1
 10
214.561292
 20
148.826060
 30
0.0
 10
214.380974
 20
148.828610
 30
0.0
 10
214.213251
 20
148.733872
 30
0.0
 10
214.122348
 20
148.578124
 30
0.0
  0
SPLINE
  5
131
100
AcDbEntity
  8
Layer_1
 62
5
100
AcDbSpline
 70
8
 71
3
 72
8
 73
4
 74
0
 40
0
 40
0
 40
0
 40
0
 40
1
 40
1
 40
1
 40
1
 10
214.122348
 20
148.578124
 30
0.0
 10
214.031445
 20
148.422375
 30
0.0
 10
214.031445
 20
148.229745
 30
0.0
 10
214.122348
 20
148.073996
 30
0.0
  0
SPLINE
  5
132
100
AcDbEntity
  8
Layer_1
 62
5
100
AcDbSpline
 70
8
 71
3
 72
8
 73
4
 74
0
 40
0
 40
0
 40
0
 40
0
 40
1
 40
1
 40
1
 40
1
 10
214.122348
 20
148.073996
 30
0.0
 10
214.213251
 20
147.918248
 30
0.0
 10
214.380974
 20
147.823510
 30
0.0
 10
214.561292
 20
147.826060
 30
0.0
  0
LINE
  5
133
100
AcDbEntity
  8
Layer_1
 62
5
100
AcDbLine
 10
214.561292
 20
147.826060
 30
0.0
 11
222.379651
 21
147.826060
 31
0.0
  0
SPLINE
  5
134
100
AcDbEntity
  8
Layer_1
 62
5
100
AcDbSpline
 70
8
 71
3
 72
8
 73
4
 74
0
 40
0
 40
0
 40
0
 40
0
 40
1
 40
1
 40
1
 40
1
 10
222.379651
 20
147.826060
 30
0.0
 10
222.559969
 20
147.823510
 30
0.0
 10
222.727692
 20
147.918248
 30
0.0
 10
222.818595
 20
148.073996
 30
0.0
  0
SPLINE
  5
135
100
AcDbEntity
  8
Layer_1
 62
5
100
AcDbSpline
 70
8
 71
3
 72
8
 73
4
 74
0
 40
0
 40
0
 40
0
 40
0
 40
1
 40
1
 40
1
 40
1
 10
222.818595
 20
148.073996
 30
0.0
 10
222.909498
 20
148.229745
 30
0.0
 10
222.909498
 20
148.422375
 30
0.0
 10
222.818595
 20
148.578124
 30
0.0
  0
SPLINE
  5
136
100
AcDbEntity
  8
Layer_1
 62
5
100
AcDbSpline
 70
8
 71
3
 72
8
 73
4
 74
0
 40
0
 40
0
 40
0
 40
0
 40
1
 40
1
 40
1
 40
1
 10
222.818595
 20
148.578124
 30
0.0
 10
222.727692
 20
148.733872
 30
0.0
 10
222.559969
 20
148.828610
 30
0.0
 10
222.379651
 20
148.826060
 30
0.0
  0
LINE
  5
137
100
AcDbEntity
  8
Layer_1
 62
5
100
AcDbLine
 10
222.379651
 20
148.826060
 30
0.0
 11
214.561292
 21
148.826060
 31
0.0
  0
SPLINE
  5
138
100
AcDbEntity
  8
Layer_1
 62
5
100
AcDbSpline
 70
8
 71
3
 72
8
 73
4
 74
0
 40
0
 40
0
 40
0
 40
0
 40
1
 40
1
 40
1
 40
1
 10
218.481214
 20
147.773330
 30
0.0
 10
218.366312
 20
147.774310
 30
0.0
 10
218.254578
 20
147.735687
 30
0.0
 10
218.164808
 20
147.663960
 30
0.0
  0
SPLINE
  5
139
100
AcDbEntity
  8
Layer_1
 62
5
100
AcDbSpline
 70
8
 71
3
 72
8
 73
4
 74
0
 40
0
 40
0
 40
0
 40
0
 40
1
 40
1
 40
1
 40
1
 10
218.164808
 20
147.663960
 30
0.0
 10
218.154717
 20
147.655875
 30
0.0
 10
218.144943
 20
147.647402
 30
0.0
 10
218.135508
 20
147.638560
 30
0.0
  0
SPLINE
  5
13a
100
AcDbEntity
  8
Layer_1
 62
5
100
AcDbSpline
 70
8
 71
3
 72
8
 73
4
 74
0
 40
0
 40
0
 40
0
 40
0
 40
1
 40
1
 40
1
 40
1
 10
218.135508
 20
147.638560
 30
0.0
 10
218.131550
 20
147.635287
 30
0.0
 10
218.127643
 20
147.631953
 30
0.0
 10
218.123788
 20
147.628560
 30
0.0
  0
SPLINE
  5
13b
100
AcDbEntity
  8
Layer_1
 62
5
100
AcDbSpline
 70
8
 71
3
 72
8
 73
4
 74
0
 40
0
 40
0
 40
0
 40
0
 40
1
 40
1
 40
1
 40
1
 10
218.123788
 20
147.628560
 30
0.0
 10
218.114326
 20
147.619816
 30
0.0
 10
218.105206
 20
147.610709
 30
0.0
 10
218.096448
 20
147.601260
 30
0.0
  0
SPLINE
  5
13c
100
AcDbEntity
  8
Layer_1
 62
5
100
AcDbSpline
 70
8
 71
3
 72
8
 73
4
 74
0
 40
0
 40
0
 40
0
 40
0
 40
1
 40
1
 40
1
 40
1
 10
218.096448
 20
147.601260
 30
0.0
 10
218.095134
 20
147.599269
 30
0.0
 10
218.093834
 20
147.597269
 30
0.0
 10
218.092548
 20
147.595260
 30
0.0
  0
SPLINE
  5
13d
100
AcDbEntity
  8
Layer_1
 62
5
100
AcDbSpline
 70
8
 71
3
 72
8
 73
4
 74
0
 40
0
 40
0
 40
0
 40
0
 40
1
 40
1
 40
1
 40
1
 10
218.092548
 20
147.595260
 30
0.0
 10
218.092548
 20
147.595260
 30
0.0
 10
215.961688
 20
145.208540
 30
0.0
 10
215.961688
 20
145.208540
 30
0.0
  0
SPLINE
  5
13e
100
AcDbEntity
  8
Layer_1
 62
5
100
AcDbSpline
 70
8
 71
3
 72
8
 73
4
 74
0
 40
0
 40
0
 40
0
 40
0
 40
1
 40
1
 40
1
 40
1
 10
215.961688
 20
145.208540
 30
0.0
 10
215.777772
 20
145.002512
 30
0.0
 10
215.795697
 20
144.686399
 30
0.0
 10
216.001725
 20
144.502483
 30
0.0
  0
SPLINE
  5
13f
100
AcDbEntity
  8
Layer_1
 62
5
100
AcDbSpline
 70
8
 71
3
 72
8
 73
4
 74
0
 40
0
 40
0
 40
0
 40
0
 40
1
 40
1
 40
1
 40
1
 10
216.001725
 20
144.502483
 30
0.0
 10
216.207753
 20
144.318567
 30
0.0
 10
216.523866
 20
144.336492
 30
0.0
 10
216.707782
 20
144.542520
 30
0.0
  0
LINE
  5
140
100
AcDbEntity
  8
Layer_1
 62
5
100
AcDbLine
 10
216.707782
 20
144.542520
 30
0.0
 11
217.969501
 21
145.956580
 31
0.0
  0
LINE
  5
141
100
AcDbEntity
  8
Layer_1
 62
5
100
AcDbLine
 10
217.969501
 20
145.956580
 30
0.0
 11
217.969501
 21
139.046430
 31
0.0
  0
SPLINE
  5
142
100
AcDbEntity
  8
Layer_1
 62
5
100
AcDbSpline
 70
8
 71
3
 72
8
 73
4
 74
0
 40
0
 40
0
 40
0
 40
0
 40
1
 40
1
 40
1
 40
1
 10
217.969501
 20
139.046430
 30
0.0
 10
217.966951
 20
138.866112
 30
0.0
 10
218.061689
 20
138.698389
 30
0.0
 10
218.217437
 20
138.607486
 30
0.0
  0
SPLINE
  5
143
100
AcDbEntity
  8
Layer_1
 62
5
100
AcDbSpline
 70
8
 71
3
 72
8
 73
4
 74
0
 40
0
 40
0
 40
0
 40
0
 40
1
 40
1
 40
1
 40
1
 10
218.217437
 20
138.607486
 30
0.0
 10
218.373186
 20
138.516583
 30
0.0
 10
218.565816
 20
138.516583
 30
0.0
 10
218.721565
 20
138.607486
 30
0.0
  0
SPLINE
  5
144
100
AcDbEntity
  8
Layer_1
 62
5
100
AcDbSpline
 70
8
 71
3
 72
8
 73
4
 74
0
 40
0
 40
0
 40
0
 40
0
 40
1
 40
1
 40
1
 40
1
 10
218.721565
 20
138.607486
 30
0.0
 10
218.877313
 20
138.698389
 30
0.0
 10
218.972051
 20
138.866112
 30
0.0
 10
218.969501
 20
139.046430
 30
0.0
  0
LINE
  5
145
100
AcDbEntity
  8
Layer_1
 62
5
100
AcDbLine
 10
218.969501
 20
139.046430
 30
0.0
 11
218.969501
 21
145.956580
 31
0.0
  0
LINE
  5
146
100
AcDbEntity
  8
Layer_1
 62
5
100
AcDbLine
 10
218.969501
 20
145.956580
 30
0.0
 11
220.231220
 21
144.542520
 31
0.0
  0
SPLINE
  5
147
100
AcDbEntity
  8
Layer_1
 62
5
100
AcDbSpline
 70
8
 71
3
 72
8
 73
4
 74
0
 40
0
 40
0
 40
0
 40
0
 40
1
 40
1
 40
1
 40
1
 10
220.231220
 20
144.542520
 30
0.0
 10
220.350187
 20
144.408871
 30
0.0
 10
220.531422
 20
144.348848
 30
0.0
 10
220.706646
 20
144.385065
 30
0.0
  0
SPLINE
  5
148
100
AcDbEntity
  8
Layer_1
 62
5
100
AcDbSpline
 70
8
 71
3
 72
8
 73
4
 74
0
 40
0
 40
0
 40
0
 40
0
 40
1
 40
1
 40
1
 40
1
 10
220.706646
 20
144.385065
 30
0.0
 10
220.881871
 20
144.421281
 30
0.0
 10
221.024460
 20
144.548235
 30
0.0
 10
221.080694
 20
144.718097
 30
0.0
  0
SPLINE
  5
149
100
AcDbEntity
  8
Layer_1
 62
5
100
AcDbSpline
 70
8
 71
3
 72
8
 73
4
 74
0
 40
0
 40
0
 40
0
 40
0
 40
1
 40
1
 40
1
 40
1
 10
221.080694
 20
144.718097
 30
0.0
 10
221.136929
 20
144.887958
 30
0.0
 10
221.098264
 20
145.074918
 30
0.0
 10
220.979267
 20
145.208540
 30
0.0
  0
LINE
  5
14a
100
AcDbEntity
  8
Layer_1
 62
5
100
AcDbLine
 10
220.979267
 20
145.208540
 30
0.0
 11
218.899188
 21
147.536660
 31
0.0
  0
SPLINE
  5
14b
100
AcDbEntity
  8
Layer_1
 62
5
100
AcDbSpline
 70
8
 71
3
 72
8
 73
4
 74
0
 40
0
 40
0
 40
0
 40
0
 40
1
 40
1
 40
1
 40
1
 10
218.899188
 20
147.536660
 30
0.0
 10
218.897902
 20
147.538669
 30
0.0
 10
218.896602
 20
147.540669
 30
0.0
 10
218.895288
 20
147.542660
 30
0.0
  0
SPLINE
  5
14c
100
AcDbEntity
  8
Layer_1
 62
5
100
AcDbSpline
 70
8
 71
3
 72
8
 73
4
 74
0
 40
0
 40
0
 40
0
 40
0
 40
1
 40
1
 40
1
 40
1
 10
218.895288
 20
147.542660
 30
0.0
 10
218.804742
 20
147.684157
 30
0.0
 10
218.649197
 20
147.770734
 30
0.0
 10
218.481226
 20
147.773130
 30
0.0
  0
LINE
  5
14d
100
AcDbEntity
  8
Layer_1
 62
5
100
AcDbLine
 10
218.481226
 20
147.773130
 30
0.0
 11
218.481214
 21
147.773330
 31
0.0
  0
LINE
  5
14e
100
AcDbEntity
  8
Layer_1
 62
5
100
AcDbLine
 10
209.696357
 20
141.357270
 30
0.0
 11
209.412137
 21
140.427090
 31
0.0
  0
SPLINE
  5
14f
100
AcDbEntity
  8
Layer_1
 62
5
100
AcDbSpline
 70
8
 71
3
 72
8
 73
4
 74
0
 40
0
 40
0
 40
0
 40
0
 40
1
 40
1
 40
1
 40
1
 10
209.412137
 20
140.427090
 30
0.0
 10
209.343230
 20
140.216943
 30
0.0
 10
209.265714
 20
140.060193
 30
0.0
 10
209.179587
 20
139.956840
 30
0.0
  0
SPLINE
  5
150
100
AcDbEntity
  8
Layer_1
 62
5
100
AcDbSpline
 70
8
 71
3
 72
8
 73
4
 74
0
 40
0
 40
0
 40
0
 40
0
 40
1
 40
1
 40
1
 40
1
 10
209.179587
 20
139.956840
 30
0.0
 10
209.096907
 20
139.856933
 30
0.0
 10
208.984944
 20
139.806980
 30
0.0
 10
208.843697
 20
139.806980
 30
0.0
  0
SPLINE
  5
151
100
AcDbEntity
  8
Layer_1
 62
5
100
AcDbSpline
 70
8
 71
3
 72
8
 73
4
 74
0
 40
0
 40
0
 40
0
 40
0
 40
1
 40
1
 40
1
 40
1
 10
208.843697
 20
139.806980
 30
0.0
 10
208.702444
 20
139.806980
 30
0.0
 10
208.580140
 20
139.856933
 30
0.0
 10
208.476787
 20
139.956840
 30
0.0
  0
SPLINE
  5
152
100
AcDbEntity
  8
Layer_1
 62
5
100
AcDbSpline
 70
8
 71
3
 72
8
 73
4
 74
0
 40
0
 40
0
 40
0
 40
0
 40
1
 40
1
 40
1
 40
1
 10
208.476787
 20
139.956840
 30
0.0
 10
208.376880
 20
140.060193
 30
0.0
 10
208.326927
 20
140.182493
 30
0.0
 10
208.326927
 20
140.323740
 30
0.0
  0
SPLINE
  5
153
100
AcDbEntity
  8
Layer_1
 62
5
100
AcDbSpline
 70
8
 71
3
 72
8
 73
4
 74
0
 40
0
 40
0
 40
0
 40
0
 40
1
 40
1
 40
1
 40
1
 10
208.326927
 20
140.323740
 30
0.0
 10
208.326927
 20
140.440873
 30
0.0
 10
208.361380
 20
140.578677
 30
0.0
 10
208.430287
 20
140.737150
 30
0.0
  0
LINE
  5
154
100
AcDbEntity
  8
Layer_1
 62
5
100
AcDbLine
 10
208.430287
 20
140.737150
 30
0.0
 11
210.393987
 21
147.145030
 31
0.0
  0
LINE
  5
155
100
AcDbEntity
  8
Layer_1
 62
5
100
AcDbLine
 10
210.393987
 20
147.145030
 30
0.0
 11
210.404287
 21
147.145030
 31
0.0
  0
SPLINE
  5
156
100
AcDbEntity
  8
Layer_1
 62
5
100
AcDbSpline
 70
8
 71
3
 72
8
 73
4
 74
0
 40
0
 40
0
 40
0
 40
0
 40
1
 40
1
 40
1
 40
1
 10
210.404287
 20
147.145030
 30
0.0
 10
210.421487
 20
147.241490
 30
0.0
 10
210.469717
 20
147.327617
 30
0.0
 10
210.548977
 20
147.403410
 30
0.0
  0
SPLINE
  5
157
100
AcDbEntity
  8
Layer_1
 62
5
100
AcDbSpline
 70
8
 71
3
 72
8
 73
4
 74
0
 40
0
 40
0
 40
0
 40
0
 40
1
 40
1
 40
1
 40
1
 10
210.548977
 20
147.403410
 30
0.0
 10
210.648884
 20
147.506763
 30
0.0
 10
210.769460
 20
147.558440
 30
0.0
 10
210.910707
 20
147.558440
 30
0.0
  0
SPLINE
  5
158
100
AcDbEntity
  8
Layer_1
 62
5
100
AcDbSpline
 70
8
 71
3
 72
8
 73
4
 74
0
 40
0
 40
0
 40
0
 40
0
 40
1
 40
1
 40
1
 40
1
 10
210.910707
 20
147.558440
 30
0.0
 10
211.051960
 20
147.558440
 30
0.0
 10
211.174264
 20
147.506763
 30
0.0
 10
211.277617
 20
147.403410
 30
0.0
  0
SPLINE
  5
159
100
AcDbEntity
  8
Layer_1
 62
5
100
AcDbSpline
 70
8
 71
3
 72
8
 73
4
 74
0
 40
0
 40
0
 40
0
 40
0
 40
1
 40
1
 40
1
 40
1
 10
211.277617
 20
147.403410
 30
0.0
 10
211.353410
 20
147.327617
 30
0.0
 10
211.399917
 20
147.241490
 30
0.0
 10
211.417137
 20
147.145030
 30
0.0
  0
LINE
  5
15a
100
AcDbEntity
  8
Layer_1
 62
5
100
AcDbLine
 10
211.417137
 20
147.145030
 30
0.0
 11
211.427437
 21
147.145030
 31
0.0
  0
LINE
  5
15b
100
AcDbEntity
  8
Layer_1
 62
5
100
AcDbLine
 10
211.427437
 20
147.145030
 30
0.0
 11
213.391137
 21
140.737150
 31
0.0
  0
SPLINE
  5
15c
100
AcDbEntity
  8
Layer_1
 62
5
100
AcDbSpline
 70
8
 71
3
 72
8
 73
4
 74
0
 40
0
 40
0
 40
0
 40
0
 40
1
 40
1
 40
1
 40
1
 10
213.391137
 20
140.737150
 30
0.0
 10
213.460044
 20
140.578677
 30
0.0
 10
213.494497
 20
140.440873
 30
0.0
 10
213.494497
 20
140.323740
 30
0.0
  0
SPLINE
  5
15d
100
AcDbEntity
  8
Layer_1
 62
5
100
AcDbSpline
 70
8
 71
3
 72
8
 73
4
 74
0
 40
0
 40
0
 40
0
 40
0
 40
1
 40
1
 40
1
 40
1
 10
213.494497
 20
140.323740
 30
0.0
 10
213.494497
 20
140.182493
 30
0.0
 10
213.442820
 20
140.060193
 30
0.0
 10
213.339467
 20
139.956840
 30
0.0
  0
SPLINE
  5
15e
100
AcDbEntity
  8
Layer_1
 62
5
100
AcDbSpline
 70
8
 71
3
 72
8
 73
4
 74
0
 40
0
 40
0
 40
0
 40
0
 40
1
 40
1
 40
1
 40
1
 10
213.339467
 20
139.956840
 30
0.0
 10
213.239554
 20
139.856933
 30
0.0
 10
213.118974
 20
139.806980
 30
0.0
 10
212.977727
 20
139.806980
 30
0.0
  0
SPLINE
  5
15f
100
AcDbEntity
  8
Layer_1
 62
5
100
AcDbSpline
 70
8
 71
3
 72
8
 73
4
 74
0
 40
0
 40
0
 40
0
 40
0
 40
1
 40
1
 40
1
 40
1
 10
212.977727
 20
139.806980
 30
0.0
 10
212.836480
 20
139.806980
 30
0.0
 10
212.722794
 20
139.856933
 30
0.0
 10
212.636667
 20
139.956840
 30
0.0
  0
SPLINE
  5
160
100
AcDbEntity
  8
Layer_1
 62
5
100
AcDbSpline
 70
8
 71
3
 72
8
 73
4
 74
0
 40
0
 40
0
 40
0
 40
0
 40
1
 40
1
 40
1
 40
1
 10
212.636667
 20
139.956840
 30
0.0
 10
212.553980
 20
140.060193
 30
0.0
 10
212.478187
 20
140.216943
 30
0.0
 10
212.409287
 20
140.427090
 30
0.0
  0
LINE
  5
161
100
AcDbEntity
  8
Layer_1
 62
5
100
AcDbLine
 10
212.409287
 20
140.427090
 30
0.0
 11
212.125067
 21
141.357270
 31
0.0
  0
LINE
  5
162
100
AcDbEntity
  8
Layer_1
 62
5
100
AcDbLine
 10
212.125067
 20
141.357270
 30
0.0
 11
209.696357
 21
141.357270
 31
0.0
  0
LINE
  5
163
100
AcDbEntity
  8
Layer_1
 62
5
100
AcDbLine
 10
211.809917
 20
142.390800
 30
0.0
 11
210.910747
 21
145.346690
 31
0.0
  0
LINE
  5
164
100
AcDbEntity
  8
Layer_1
 62
5
100
AcDbLine
 10
210.910747
 20
145.346690
 30
0.0
 11
210.011577
 21
142.390800
 31
0.0
  0
LINE
  5
165
100
AcDbEntity
  8
Layer_1
 62
5
100
AcDbLine
 10
210.011577
 20
142.390800
 30
0.0
 11
211.809917
 21
142.390800
 31
0.0
  0
SPLINE
  5
166
100
AcDbEntity
  8
Layer_1
 62
7
100
AcDbSpline
 70
8
 71
3
 72
8
 73
4
 74
0
 40
0
 40
0
 40
0
 40
0
 40
1
 40
1
 40
1
 40
1
 10
15.205300
 20
79.974990
 30
0.0
 10
12.390990
 20
79.974990
 30
0.0
 10
10.125000
 20
77.709010
 30
0.0
 10
10.125000
 20
74.894690
 30
0.0
  0
LINE
  5
167
100
AcDbEntity
  8
Layer_1
 62
7
100
AcDbLine
 10
10.125000
 20
74.894690
 30
0.0
 11
10.125000
 21
15.204800
 31
0.0
  0
SPLINE
  5
168
100
AcDbEntity
  8
Layer_1
 62
7
100
AcDbSpline
 70
8
 71
3
 72
8
 73
4
 74
0
 40
0
 40
0
 40
0
 40
0
 40
1
 40
1
 40
1
 40
1
 10
10.125000
 20
15.204800
 30
0.0
 10
10.125000
 20
12.390480
 30
0.0
 10
12.390990
 20
10.125000
 30
0.0
 10
15.205300
 20
10.125000
 30
0.0
  0
LINE
  5
169
100
AcDbEntity
  8
Layer_1
 62
7
100
AcDbLine
 10
15.205300
 20
10.125000
 30
0.0
 11
220.945189
 21
10.125000
 31
0.0
  0
SPLINE
  5
16a
100
AcDbEntity
  8
Layer_1
 62
7
100
AcDbSpline
 70
8
 71
3
 72
8
 73
4
 74
0
 40
0
 40
0
 40
0
 40
0
 40
1
 40
1
 40
1
 40
1
 10
220.945189
 20
10.125000
 30
0.0
 10
223.759509
 20
10.125000
 30
0.0
 10
226.024980
 20
12.390480
 30
0.0
 10
226.024980
 20
15.204800
 30
0.0
  0
LINE
  5
16b
100
AcDbEntity
  8
Layer_1
 62
7
100
AcDbLine
 10
226.024980
 20
15.204800
 30
0.0
 11
226.024980
 21
74.894690
 31
0.0
  0
SPLINE
  5
16c
100
AcDbEntity
  8
Layer_1
 62
7
100
AcDbSpline
 70
8
 71
3
 72
8
 73
4
 74
0
 40
0
 40
0
 40
0
 40
0
 40
1
 40
1
 40
1
 40
1
 10
226.024980
 20
74.894690
 30
0.0
 10
226.024980
 20
77.709010
 30
0.0
 10
223.759509
 20
79.974990
 30
0.0
 10
220.945189
 20
79.974990
 30
0.0
  0
LINE
  5
16d
100
AcDbEntity
  8
Layer_1
 62
7
100
AcDbLine
 10
220.945189
 20
79.974990
 30
0.0
 11
15.205300
 21
79.974990
 31
0.0
  0
SPLINE
  5
16e
100
AcDbEntity
  8
Layer_1
 62
3
100
AcDbSpline
 70
8
 71
3
 72
8
 73
4
 74
0
 40
0
 40
0
 40
0
 40
0
 40
1
 40
1
 40
1
 40
1
 10
16.291540
 20
78.023180
 30
0.0
 10
18.638649
 20
78.023108
 30
0.0
 10
20.541338
 20
76.120419
 30
0.0
 10
20.541410
 20
73.773310
 30
0.0
  0
SPLINE
  5
16f
100
AcDbEntity
  8
Layer_1
 62
3
100
AcDbSpline
 70
8
 71
3
 72
8
 73
4
 74
0
 40
0
 40
0
 40
0
 40
0
 40
1
 40
1
 40
1
 40
1
 10
20.541410
 20
73.773310
 30
0.0
 10
20.541344
 20
71.426197
 30
0.0
 10
18.638653
 20
69.523502
 30
0.0
 10
16.291540
 20
69.523430
 30
0.0
  0
SPLINE
  5
170
100
AcDbEntity
  8
Layer_1
 62
3
100
AcDbSpline
 70
8
 71
3
 72
8
 73
4
 74
0
 40
0
 40
0
 40
0
 40
0
 40
1
 40
1
 40
1
 40
1
 10
16.291540
 20
69.523430
 30
0.0
 10
13.944431
 20
69.523507
 30
0.0
 10
12.041746
 20
71.426201
 30
0.0
 10
12.041680
 20
73.773310
 30
0.0
  0
SPLINE
  5
171
100
AcDbEntity
  8
Layer_1
 62
3
100
AcDbSpline
 70
8
 71
3
 72
8
 73
4
 74
0
 40
0
 40
0
 40
0
 40
0
 40
1
 40
1
 40
1
 40
1
 10
12.041680
 20
73.773310
 30
0.0
 10
12.041752
 20
76.120415
 30
0.0
 10
13.944435
 20
78.023103
 30
0.0
 10
16.291540
 20
78.023180
 30
0.0
  0
LINE
  5
172
100
AcDbEntity
  8
Layer_1
 62
3
100
AcDbLine
 10
16.291540
 20
78.023180
 30
0.0
 11
16.291540
 21
78.023180
 31
0.0
  0
LINE
  5
173
100
AcDbEntity
  8
Layer_1
 62
1
100
AcDbLine
 10
96.039123
 20
25.120980
 30
0.0
 11
127.411369
 21
25.120980
 31
0.0
  0
LINE
  5
174
100
AcDbEntity
  8
Layer_1
 62
1
100
AcDbLine
 10
127.411369
 20
25.120980
 30
0.0
 11
127.411369
 21
13.271580
 31
0.0
  0
LINE
  5
175
100
AcDbEntity
  8
Layer_1
 62
1
100
AcDbLine
 10
127.411369
 20
13.271580
 30
0.0
 11
96.039123
 21
13.271580
 31
0.0
  0
LINE
  5
176
100
AcDbEntity
  8
Layer_1
 62
1
100
AcDbLine
 10
96.039123
 20
13.271580
 30
0.0
 11
96.039123
 21
25.120980
 31
0.0
  0
LINE
  5
177
100
AcDbEntity
  8
Layer_1
 62
1
100
AcDbLine
 10
28.305800
 20
25.498740
 30
0.0
 11
59.677518
 21
25.498740
 31
0.0
  0
LINE
  5
178
100
AcDbEntity
  8
Layer_1
 62
1
100
AcDbLine
 10
59.677518
 20
25.498740
 30
0.0
 11
59.677518
 21
13.649330
 31
0.0
  0
LINE
  5
179
100
AcDbEntity
  8
Layer_1
 62
1
100
AcDbLine
 10
59.677518
 20
13.649330
 30
0.0
 11
28.305800
 21
13.649330
 31
0.0
  0
LINE
  5
17a
100
AcDbEntity
  8
Layer_1
 62
1
100
AcDbLine
 10
28.305800
 20
13.649330
 30
0.0
 11
28.305800
 21
25.498740
 31
0.0
  0
LINE
  5
17b
100
AcDbEntity
  8
Layer_1
 62
1
100
AcDbLine
 10
179.118289
 20
35.553420
 30
0.0
 11
210.490530
 21
35.553420
 31
0.0
  0
LINE
  5
17c
100
AcDbEntity
  8
Layer_1
 62
1
100
AcDbLine
 10
210.490530
 20
35.553420
 30
0.0
 11
210.490530
 21
23.703500
 31
0.0
  0
LINE
  5
17d
100
AcDbEntity
  8
Layer_1
 62
1
100
AcDbLine
 10
210.490530
 20
23.703500
 30
0.0
 11
179.118289
 21
23.703500
 31
0.0
  0
LINE
  5
17e
100
AcDbEntity
  8
Layer_1
 62
1
100
AcDbLine
 10
179.118289
 20
23.703500
 30
0.0
 11
179.118289
 21
35.553420
 31
0.0
  0
LINE
  5
17f
100
AcDbEntity
  8
Layer_1
 62
1
100
AcDbLine
 10
125.823869
 20
45.607590
 30
0.0
 11
157.195597
 21
45.607590
 31
0.0
  0
LINE
  5
180
100
AcDbEntity
  8
Layer_1
 62
1
100
AcDbLine
 10
157.195597
 20
45.607590
 30
0.0
 11
157.195597
 21
33.757670
 31
0.0
  0
LINE
  5
181
100
AcDbEntity
  8
Layer_1
 62
1
100
AcDbLine
 10
157.195597
 20
33.757670
 30
0.0
 11
125.823869
 21
33.757670
 31
0.0
  0
LINE
  5
182
100
AcDbEntity
  8
Layer_1
 62
1
100
AcDbLine
 10
125.823869
 20
33.757670
 30
0.0
 11
125.823869
 21
45.607590
 31
0.0
  0
LINE
  5
183
100
AcDbEntity
  8
Layer_1
 62
1
100
AcDbLine
 10
58.468288
 20
55.661750
 30
0.0
 11
89.840017
 21
55.661750
 31
0.0
  0
LINE
  5
184
100
AcDbEntity
  8
Layer_1
 62
1
100
AcDbLine
 10
89.840017
 20
55.661750
 30
0.0
 11
89.840017
 21
43.811830
 31
0.0
  0
LINE
  5
185
100
AcDbEntity
  8
Layer_1
 62
1
100
AcDbLine
 10
89.840017
 20
43.811830
 30
0.0
 11
58.468288
 21
43.811830
 31
0.0
  0
LINE
  5
186
100
AcDbEntity
  8
Layer_1
 62
1
100
AcDbLine
 10
58.468288
 20
43.811830
 30
0.0
 11
58.468288
 21
55.661750
 31
0.0
  0
LINE
  5
187
100
AcDbEntity
  8
Layer_1
 62
1
100
AcDbLine
 10
163.470148
 20
65.564510
 30
0.0
 11
194.841879
 21
65.564510
 31
0.0
  0
LINE
  5
188
100
AcDbEntity
  8
Layer_1
 62
1
100
AcDbLine
 10
194.841879
 20
65.564510
 30
0.0
 11
194.841879
 21
53.715100
 31
0.0
  0
LINE
  5
189
100
AcDbEntity
  8
Layer_1
 62
1
100
AcDbLine
 10
194.841879
 20
53.715100
 30
0.0
 11
163.470148
 21
53.715100
 31
0.0
  0
LINE
  5
18a
100
AcDbEntity
  8
Layer_1
 62
1
100
AcDbLine
 10
163.470148
 20
53.715100
 30
0.0
 11
163.470148
 21
65.564510
 31
0.0
  0
LINE
  5
18b
100
AcDbEntity
  8
Layer_1
 62
1
100
AcDbLine
 10
35.827300
 20
75.505500
 30
0.0
 11
67.199538
 21
75.505500
 31
0.0
  0
LINE
  5
18c
100
AcDbEntity
  8
Layer_1
 62
1
100
AcDbLine
 10
67.199538
 20
75.505500
 30
0.0
 11
67.199538
 21
63.655580
 31
0.0
  0
LINE
  5
18d
100
AcDbEntity
  8
Layer_1
 62
1
100
AcDbLine
 10
67.199538
 20
63.655580
 30
0.0
 11
35.827300
 21
63.655580
 31
0.0
  0
LINE
  5
18e
100
AcDbEntity
  8
Layer_1
 62
1
100
AcDbLine
 10
35.827300
 20
63.655580
 30
0.0
 11
35.827300
 21
75.505500
 31
0.0
  0
SPLINE
  5
18f
100
AcDbEntity
  8
Layer_1
 62
3
100
AcDbSpline
 70
8
 71
3
 72
8
 73
4
 74
0
 40
0
 40
0
 40
0
 40
0
 40
1
 40
1
 40
1
 40
1
 10
219.752500
 20
20.600850
 30
0.0
 10
222.099609
 20
20.600778
 30
0.0
 10
224.002298
 20
18.698089
 30
0.0
 10
224.002370
 20
16.350980
 30
0.0
  0
SPLINE
  5
190
100
AcDbEntity
  8
Layer_1
 62
3
100
AcDbSpline
 70
8
 71
3
 72
8
 73
4
 74
0
 40
0
 40
0
 40
0
 40
0
 40
1
 40
1
 40
1
 40
1
 10
224.002370
 20
16.350980
 30
0.0
 10
224.002298
 20
14.003871
 30
0.0
 10
222.099609
 20
12.101182
 30
0.0
 10
219.752500
 20
12.101110
 30
0.0
  0
SPLINE
  5
191
100
AcDbEntity
  8
Layer_1
 62
3
100
AcDbSpline
 70
8
 71
3
 72
8
 73
4
 74
0
 40
0
 40
0
 40
0
 40
0
 40
1
 40
1
 40
1
 40
1
 10
219.752500
 20
12.101110
 30
0.0
 10
218.625285
 20
12.101006
 30
0.0
 10
217.544200
 20
12.548709
 30
0.0
 10
216.747089
 20
13.345722
 30
0.0
  0
SPLINE
  5
192
100
AcDbEntity
  8
Layer_1
 62
3
100
AcDbSpline
 70
8
 71
3
 72
8
 73
4
 74
0
 40
0
 40
0
 40
0
 40
0
 40
1
 40
1
 40
1
 40
1
 10
216.747089
 20
13.345722
 30
0.0
 10
215.949979
 20
14.142735
 30
0.0
 10
215.502143
 20
15.223765
 30
0.0
 10
215.502109
 20
16.350980
 30
0.0
  0
SPLINE
  5
193
100
AcDbEntity
  8
Layer_1
 62
3
100
AcDbSpline
 70
8
 71
3
 72
8
 73
4
 74
0
 40
0
 40
0
 40
0
 40
0
 40
1
 40
1
 40
1
 40
1
 10
215.502109
 20
16.350980
 30
0.0
 10
215.502143
 20
17.478195
 30
0.0
 10
215.949979
 20
18.559225
 30
0.0
 10
216.747089
 20
19.356238
 30
0.0
  0
SPLINE
  5
194
100
AcDbEntity
  8
Layer_1
 62
3
100
AcDbSpline
 70
8
 71
3
 72
8
 73
4
 74
0
 40
0
 40
0
 40
0
 40
0
 40
1
 40
1
 40
1
 40
1
 10
216.747089
 20
19.356238
 30
0.0
 10
217.544200
 20
20.153251
 30
0.0
 10
218.625285
 20
20.600954
 30
0.0
 10
219.752500
 20
20.600850
 30
0.0
  0
LINE
  5
195
100
AcDbEntity
  8
Layer_1
 62
3
100
AcDbLine
 10
219.752500
 20
20.600850
 30
0.0
 11
219.752500
 21
20.600850
 31
0.0
  0
SPLINE
  5
196
100
AcDbEntity
  8
Layer_1
 62
5
100
AcDbSpline
 70
8
 71
3
 72
8
 73
4
 74
0
 40
0
 40
0
 40
0
 40
0
 40
1
 40
1
 40
1
 40
1
 10
214.561292
 20
76.652240
 30
0.0
 10
214.380974
 20
76.654790
 30
0.0
 10
214.213251
 20
76.560052
 30
0.0
 10
214.122348
 20
76.404304
 30
0.0
  0
SPLINE
  5
197
100
AcDbEntity
  8
Layer_1
 62
5
100
AcDbSpline
 70
8
 71
3
 72
8
 73
4
 74
0
 40
0
 40
0
 40
0
 40
0
 40
1
 40
1
 40
1
 40
1
 10
214.122348
 20
76.404304
 30
0.0
 10
214.031445
 20
76.248555
 30
0.0
 10
214.031445
 20
76.055925
 30
0.0
 10
214.122348
 20
75.900176
 30
0.0
  0
SPLINE
  5
198
100
AcDbEntity
  8
Layer_1
 62
5
100
AcDbSpline
 70
8
 71
3
 72
8
 73
4
 74
0
 40
0
 40
0
 40
0
 40
0
 40
1
 40
1
 40
1
 40
1
 10
214.122348
 20
75.900176
 30
0.0
 10
214.213251
 20
75.744428
 30
0.0
 10
214.380974
 20
75.649690
 30
0.0
 10
214.561292
 20
75.652240
 30
0.0
  0
LINE
  5
199
100
AcDbEntity
  8
Layer_1
 62
5
100
AcDbLine
 10
214.561292
 20
75.652240
 30
0.0
 11
222.379651
 21
75.652240
 31
0.0
  0
SPLINE
  5
19a
100
AcDbEntity
  8
Layer_1
 62
5
100
AcDbSpline
 70
8
 71
3
 72
8
 73
4
 74
0
 40
0
 40
0
 40
0
 40
0
 40
1
 40
1
 40
1
 40
1
 10
222.379651
 20
75.652240
 30
0.0
 10
222.559969
 20
75.649690
 30
0.0
 10
222.727692
 20
75.744428
 30
0.0
 10
222.818595
 20
75.900176
 30
0.0
  0
SPLINE
  5
19b
100
AcDbEntity
  8
Layer_1
 62
5
100
AcDbSpline
 70
8
 71
3
 72
8
 73
4
 74
0
 40
0
 40
0
 40
0
 40
0
 40
1
 40
1
 40
1
 40
1
 10
222.818595
 20
75.900176
 30
0.0
 10
222.909498
 20
76.055925
 30
0.0
 10
222.909498
 20
76.248555
 30
0.0
 10
222.818595
 20
76.404304
 30
0.0
  0
SPLINE
  5
19c
100
AcDbEntity
  8
Layer_1
 62
5
100
AcDbSpline
 70
8
 71
3
 72
8
 73
4
 74
0
 40
0
 40
0
 40
0
 40
0
 40
1
 40
1
 40
1
 40
1
 10
222.818595
 20
76.404304
 30
0.0
 10
222.727692
 20
76.560052
 30
0.0
 10
222.559969
 20
76.654790
 30
0.0
 10
222.379651
 20
76.652240
 30
0.0
  0
LINE
  5
19d
100
AcDbEntity
  8
Layer_1
 62
5
100
AcDbLine
 10
222.379651
 20
76.652240
 30
0.0
 11
214.561292
 21
76.652240
 31
0.0
  0
SPLINE
  5
19e
100
AcDbEntity
  8
Layer_1
 62
5
100
AcDbSpline
 70
8
 71
3
 72
8
 73
4
 74
0
 40
0
 40
0
 40
0
 40
0
 40
1
 40
1
 40
1
 40
1
 10
218.432386
 20
75.597550
 30
0.0
 10
218.334370
 20
75.588228
 30
0.0
 10
218.241287
 20
75.550178
 30
0.0
 10
218.164808
 20
75.488170
 30
0.0
  0
SPLINE
  5
19f
100
AcDbEntity
  8
Layer_1
 62
5
100
AcDbSpline
 70
8
 71
3
 72
8
 73
4
 74
0
 40
0
 40
0
 40
0
 40
0
 40
1
 40
1
 40
1
 40
1
 10
218.164808
 20
75.488170
 30
0.0
 10
218.160182
 20
75.484352
 30
0.0
 10
218.155624
 20
75.480452
 30
0.0
 10
218.151138
 20
75.476470
 30
0.0
  0
SPLINE
  5
1a0
100
AcDbEntity
  8
Layer_1
 62
5
100
AcDbSpline
 70
8
 71
3
 72
8
 73
4
 74
0
 40
0
 40
0
 40
0
 40
0
 40
1
 40
1
 40
1
 40
1
 10
218.151138
 20
75.476470
 30
0.0
 10
218.141047
 20
75.468385
 30
0.0
 10
218.131273
 20
75.459912
 30
0.0
 10
218.121838
 20
75.451070
 30
0.0
  0
SPLINE
  5
1a1
100
AcDbEntity
  8
Layer_1
 62
5
100
AcDbSpline
 70
8
 71
3
 72
8
 73
4
 74
0
 40
0
 40
0
 40
0
 40
0
 40
1
 40
1
 40
1
 40
1
 10
218.121838
 20
75.451070
 30
0.0
 10
218.117849
 20
75.446574
 30
0.0
 10
218.113942
 20
75.442007
 30
0.0
 10
218.110118
 20
75.437370
 30
0.0
  0
SPLINE
  5
1a2
100
AcDbEntity
  8
Layer_1
 62
5
100
AcDbSpline
 70
8
 71
3
 72
8
 73
4
 74
0
 40
0
 40
0
 40
0
 40
0
 40
1
 40
1
 40
1
 40
1
 10
218.110118
 20
75.437370
 30
0.0
 10
218.105492
 20
75.433552
 30
0.0
 10
218.100934
 20
75.429652
 30
0.0
 10
218.096448
 20
75.425670
 30
0.0
  0
SPLINE
  5
1a3
100
AcDbEntity
  8
Layer_1
 62
5
100
AcDbSpline
 70
8
 71
3
 72
8
 73
4
 74
0
 40
0
 40
0
 40
0
 40
0
 40
1
 40
1
 40
1
 40
1
 10
218.096448
 20
75.425670
 30
0.0
 10
218.095134
 20
75.423679
 30
0.0
 10
218.093834
 20
75.421679
 30
0.0
 10
218.092548
 20
75.419670
 30
0.0
  0
SPLINE
  5
1a4
100
AcDbEntity
  8
Layer_1
 62
5
100
AcDbSpline
 70
8
 71
3
 72
8
 73
4
 74
0
 40
0
 40
0
 40
0
 40
0
 40
1
 40
1
 40
1
 40
1
 10
218.092548
 20
75.419670
 30
0.0
 10
218.092548
 20
75.419670
 30
0.0
 10
215.961688
 20
73.032960
 30
0.0
 10
215.961688
 20
73.032960
 30
0.0
  0
SPLINE
  5
1a5
100
AcDbEntity
  8
Layer_1
 62
5
100
AcDbSpline
 70
8
 71
3
 72
8
 73
4
 74
0
 40
0
 40
0
 40
0
 40
0
 40
1
 40
1
 40
1
 40
1
 10
215.961688
 20
73.032960
 30
0.0
 10
215.842715
 20
72.899683
 30
0.0
 10
215.803882
 20
72.713059
 30
0.0
 10
215.859816
 20
72.543387
 30
0.0
  0
SPLINE
  5
1a6
100
AcDbEntity
  8
Layer_1
 62
5
100
AcDbSpline
 70
8
 71
3
 72
8
 73
4
 74
0
 40
0
 40
0
 40
0
 40
0
 40
1
 40
1
 40
1
 40
1
 10
215.859816
 20
72.543387
 30
0.0
 10
215.915751
 20
72.373715
 30
0.0
 10
216.057956
 20
72.246772
 30
0.0
 10
216.232863
 20
72.210377
 30
0.0
  0
SPLINE
  5
1a7
100
AcDbEntity
  8
Layer_1
 62
5
100
AcDbSpline
 70
8
 71
3
 72
8
 73
4
 74
0
 40
0
 40
0
 40
0
 40
0
 40
1
 40
1
 40
1
 40
1
 10
216.232863
 20
72.210377
 30
0.0
 10
216.407771
 20
72.173982
 30
0.0
 10
216.588809
 20
72.233663
 30
0.0
 10
216.707782
 20
72.366940
 30
0.0
  0
LINE
  5
1a8
100
AcDbEntity
  8
Layer_1
 62
5
100
AcDbLine
 10
216.707782
 20
72.366940
 30
0.0
 11
217.969501
 21
73.781000
 31
0.0
  0
LINE
  5
1a9
100
AcDbEntity
  8
Layer_1
 62
5
100
AcDbLine
 10
217.969501
 20
73.781000
 30
0.0
 11
217.969501
 21
66.872800
 31
0.0
  0
SPLINE
  5
1aa
100
AcDbEntity
  8
Layer_1
 62
5
100
AcDbSpline
 70
8
 71
3
 72
8
 73
4
 74
0
 40
0
 40
0
 40
0
 40
0
 40
1
 40
1
 40
1
 40
1
 10
217.969501
 20
66.872800
 30
0.0
 10
217.966951
 20
66.692482
 30
0.0
 10
218.061689
 20
66.524759
 30
0.0
 10
218.217437
 20
66.433856
 30
0.0
  0
SPLINE
  5
1ab
100
AcDbEntity
  8
Layer_1
 62
5
100
AcDbSpline
 70
8
 71
3
 72
8
 73
4
 74
0
 40
0
 40
0
 40
0
 40
0
 40
1
 40
1
 40
1
 40
1
 10
218.217437
 20
66.433856
 30
0.0
 10
218.373186
 20
66.342953
 30
0.0
 10
218.565816
 20
66.342953
 30
0.0
 10
218.721565
 20
66.433856
 30
0.0
  0
SPLINE
  5
1ac
100
AcDbEntity
  8
Layer_1
 62
5
100
AcDbSpline
 70
8
 71
3
 72
8
 73
4
 74
0
 40
0
 40
0
 40
0
 40
0
 40
1
 40
1
 40
1
 40
1
 10
218.721565
 20
66.433856
 30
0.0
 10
218.877313
 20
66.524759
 30
0.0
 10
218.972051
 20
66.692482
 30
0.0
 10
218.969501
 20
66.872800
 30
0.0
  0
LINE
  5
1ad
100
AcDbEntity
  8
Layer_1
 62
5
100
AcDbLine
 10
218.969501
 20
66.872800
 30
0.0
 11
218.969501
 21
73.781000
 31
0.0
  0
LINE
  5
1ae
100
AcDbEntity
  8
Layer_1
 62
5
100
AcDbLine
 10
218.969501
 20
73.781000
 30
0.0
 11
220.231220
 21
72.366940
 31
0.0
  0
SPLINE
  5
1af
100
AcDbEntity
  8
Layer_1
 62
5
100
AcDbSpline
 70
8
 71
3
 72
8
 73
4
 74
0
 40
0
 40
0
 40
0
 40
0
 40
1
 40
1
 40
1
 40
1
 10
220.231220
 20
72.366940
 30
0.0
 10
220.350187
 20
72.233291
 30
0.0
 10
220.531422
 20
72.173268
 30
0.0
 10
220.706646
 20
72.209485
 30
0.0
  0
SPLINE
  5
1b0
100
AcDbEntity
  8
Layer_1
 62
5
100
AcDbSpline
 70
8
 71
3
 72
8
 73
4
 74
0
 40
0
 40
0
 40
0
 40
0
 40
1
 40
1
 40
1
 40
1
 10
220.706646
 20
72.209485
 30
0.0
 10
220.881871
 20
72.245701
 30
0.0
 10
221.024460
 20
72.372655
 30
0.0
 10
221.080694
 20
72.542517
 30
0.0
  0
SPLINE
  5
1b1
100
AcDbEntity
  8
Layer_1
 62
5
100
AcDbSpline
 70
8
 71
3
 72
8
 73
4
 74
0
 40
0
 40
0
 40
0
 40
0
 40
1
 40
1
 40
1
 40
1
 10
221.080694
 20
72.542517
 30
0.0
 10
221.136929
 20
72.712378
 30
0.0
 10
221.098264
 20
72.899338
 30
0.0
 10
220.979267
 20
73.032960
 30
0.0
  0
LINE
  5
1b2
100
AcDbEntity
  8
Layer_1
 62
5
100
AcDbLine
 10
220.979267
 20
73.032960
 30
0.0
 11
218.901142
 21
75.361080
 31
0.0
  0
LINE
  5
1b3
100
AcDbEntity
  8
Layer_1
 62
5
100
AcDbLine
 10
218.901142
 20
75.361080
 30
0.0
 11
218.899142
 21
75.363080
 31
0.0
  0
SPLINE
  5
1b4
100
AcDbEntity
  8
Layer_1
 62
5
100
AcDbSpline
 70
8
 71
3
 72
8
 73
4
 74
0
 40
0
 40
0
 40
0
 40
0
 40
1
 40
1
 40
1
 40
1
 10
218.899142
 20
75.363080
 30
0.0
 10
218.799954
 20
75.522722
 30
0.0
 10
218.619627
 20
75.613265
 30
0.0
 10
218.432346
 20
75.597460
 30
0.0
  0
LINE
  5
1b5
100
AcDbEntity
  8
Layer_1
 62
5
100
AcDbLine
 10
218.432346
 20
75.597460
 30
0.0
 11
218.432386
 21
75.597550
 31
0.0
  0
LINE
  5
1b6
100
AcDbEntity
  8
Layer_1
 62
5
100
AcDbLine
 10
211.298327
 20
67.633250
 30
0.0
 11
208.843697
 21
67.633250
 31
0.0
  0
SPLINE
  5
1b7
100
AcDbEntity
  8
Layer_1
 62
5
100
AcDbSpline
 70
8
 71
3
 72
8
 73
4
 74
0
 40
0
 40
0
 40
0
 40
0
 40
1
 40
1
 40
1
 40
1
 10
208.843697
 20
67.633250
 30
0.0
 10
208.702444
 20
67.633250
 30
0.0
 10
208.580140
 20
67.683203
 30
0.0
 10
208.476787
 20
67.783110
 30
0.0
  0
SPLINE
  5
1b8
100
AcDbEntity
  8
Layer_1
 62
5
100
AcDbSpline
 70
8
 71
3
 72
8
 73
4
 74
0
 40
0
 40
0
 40
0
 40
0
 40
1
 40
1
 40
1
 40
1
 10
208.476787
 20
67.783110
 30
0.0
 10
208.376880
 20
67.886463
 30
0.0
 10
208.326927
 20
68.008763
 30
0.0
 10
208.326927
 20
68.150010
 30
0.0
  0
LINE
  5
1b9
100
AcDbEntity
  8
Layer_1
 62
5
100
AcDbLine
 10
208.326927
 20
68.150010
 30
0.0
 11
208.326927
 21
74.867950
 31
0.0
  0
SPLINE
  5
1ba
100
AcDbEntity
  8
Layer_1
 62
5
100
AcDbSpline
 70
8
 71
3
 72
8
 73
4
 74
0
 40
0
 40
0
 40
0
 40
0
 40
1
 40
1
 40
1
 40
1
 10
208.326927
 20
74.867950
 30
0.0
 10
208.326927
 20
75.009197
 30
0.0
 10
208.376880
 20
75.129773
 30
0.0
 10
208.476787
 20
75.229680
 30
0.0
  0
SPLINE
  5
1bb
100
AcDbEntity
  8
Layer_1
 62
5
100
AcDbSpline
 70
8
 71
3
 72
8
 73
4
 74
0
 40
0
 40
0
 40
0
 40
0
 40
1
 40
1
 40
1
 40
1
 10
208.476787
 20
75.229680
 30
0.0
 10
208.580140
 20
75.333033
 30
0.0
 10
208.702444
 20
75.384710
 30
0.0
 10
208.843697
 20
75.384710
 30
0.0
  0
LINE
  5
1bc
100
AcDbEntity
  8
Layer_1
 62
5
100
AcDbLine
 10
208.843697
 20
75.384710
 30
0.0
 11
211.298327
 21
75.384710
 31
0.0
  0
SPLINE
  5
1bd
100
AcDbEntity
  8
Layer_1
 62
5
100
AcDbSpline
 70
8
 71
3
 72
8
 73
4
 74
0
 40
0
 40
0
 40
0
 40
0
 40
1
 40
1
 40
1
 40
1
 10
211.298327
 20
75.384710
 30
0.0
 10
211.904660
 20
75.384710
 30
0.0
 10
212.421424
 20
75.169393
 30
0.0
 10
212.848617
 20
74.738760
 30
0.0
  0
SPLINE
  5
1be
100
AcDbEntity
  8
Layer_1
 62
5
100
AcDbSpline
 70
8
 71
3
 72
8
 73
4
 74
0
 40
0
 40
0
 40
0
 40
0
 40
1
 40
1
 40
1
 40
1
 10
212.848617
 20
74.738760
 30
0.0
 10
213.279250
 20
74.311567
 30
0.0
 10
213.494567
 20
73.794800
 30
0.0
 10
213.494567
 20
73.188460
 30
0.0
  0
SPLINE
  5
1bf
100
AcDbEntity
  8
Layer_1
 62
5
100
AcDbSpline
 70
8
 71
3
 72
8
 73
4
 74
0
 40
0
 40
0
 40
0
 40
0
 40
1
 40
1
 40
1
 40
1
 10
213.494567
 20
73.188460
 30
0.0
 10
213.494567
 20
72.582127
 30
0.0
 10
213.280974
 20
72.065363
 30
0.0
 10
212.853787
 20
71.638170
 30
0.0
  0
SPLINE
  5
1c0
100
AcDbEntity
  8
Layer_1
 62
5
100
AcDbSpline
 70
8
 71
3
 72
8
 73
4
 74
0
 40
0
 40
0
 40
0
 40
0
 40
1
 40
1
 40
1
 40
1
 10
212.853787
 20
71.638170
 30
0.0
 10
212.808987
 20
71.593370
 30
0.0
 10
212.762477
 20
71.550307
 30
0.0
 10
212.714257
 20
71.508980
 30
0.0
  0
SPLINE
  5
1c1
100
AcDbEntity
  8
Layer_1
 62
5
100
AcDbSpline
 70
8
 71
3
 72
8
 73
4
 74
0
 40
0
 40
0
 40
0
 40
0
 40
1
 40
1
 40
1
 40
1
 10
212.714257
 20
71.508980
 30
0.0
 10
212.762524
 20
71.467647
 30
0.0
 10
212.809034
 20
71.426303
 30
0.0
 10
212.853787
 20
71.384950
 30
0.0
  0
SPLINE
  5
1c2
100
AcDbEntity
  8
Layer_1
 62
5
100
AcDbSpline
 70
8
 71
3
 72
8
 73
4
 74
0
 40
0
 40
0
 40
0
 40
0
 40
1
 40
1
 40
1
 40
1
 10
212.853787
 20
71.384950
 30
0.0
 10
213.280974
 20
70.954317
 30
0.0
 10
213.494567
 20
70.435830
 30
0.0
 10
213.494567
 20
69.829490
 30
0.0
  0
SPLINE
  5
1c3
100
AcDbEntity
  8
Layer_1
 62
5
100
AcDbSpline
 70
8
 71
3
 72
8
 73
4
 74
0
 40
0
 40
0
 40
0
 40
0
 40
1
 40
1
 40
1
 40
1
 10
213.494567
 20
69.829490
 30
0.0
 10
213.494567
 20
69.223157
 30
0.0
 10
213.279250
 20
68.704670
 30
0.0
 10
212.848617
 20
68.274030
 30
0.0
  0
SPLINE
  5
1c4
100
AcDbEntity
  8
Layer_1
 62
5
100
AcDbSpline
 70
8
 71
3
 72
8
 73
4
 74
0
 40
0
 40
0
 40
0
 40
0
 40
1
 40
1
 40
1
 40
1
 10
212.848617
 20
68.274030
 30
0.0
 10
212.421424
 20
67.846843
 30
0.0
 10
211.904660
 20
67.633250
 30
0.0
 10
211.298327
 20
67.633250
 30
0.0
  0
LINE
  5
1c5
100
AcDbEntity
  8
Layer_1
 62
5
100
AcDbLine
 10
211.298327
 20
67.633250
 30
0.0
 11
211.298327
 21
67.633250
 31
0.0
  0
LINE
  5
1c6
100
AcDbEntity
  8
Layer_1
 62
5
100
AcDbLine
 10
211.298327
 20
74.351180
 30
0.0
 11
209.360457
 21
74.351180
 31
0.0
  0
LINE
  5
1c7
100
AcDbEntity
  8
Layer_1
 62
5
100
AcDbLine
 10
209.360457
 20
74.351180
 30
0.0
 11
209.360457
 21
72.025740
 31
0.0
  0
LINE
  5
1c8
100
AcDbEntity
  8
Layer_1
 62
5
100
AcDbLine
 10
209.360457
 20
72.025740
 30
0.0
 11
211.298327
 21
72.025740
 31
0.0
  0
SPLINE
  5
1c9
100
AcDbEntity
  8
Layer_1
 62
5
100
AcDbSpline
 70
8
 71
3
 72
8
 73
4
 74
0
 40
0
 40
0
 40
0
 40
0
 40
1
 40
1
 40
1
 40
1
 10
211.298327
 20
72.025740
 30
0.0
 10
211.618720
 20
72.025740
 30
0.0
 10
211.892604
 20
72.139430
 30
0.0
 10
212.119977
 20
72.366810
 30
0.0
  0
SPLINE
  5
1ca
100
AcDbEntity
  8
Layer_1
 62
5
100
AcDbSpline
 70
8
 71
3
 72
8
 73
4
 74
0
 40
0
 40
0
 40
0
 40
0
 40
1
 40
1
 40
1
 40
1
 10
212.119977
 20
72.366810
 30
0.0
 10
212.347357
 20
72.594183
 30
0.0
 10
212.461047
 20
72.868067
 30
0.0
 10
212.461047
 20
73.188460
 30
0.0
  0
SPLINE
  5
1cb
100
AcDbEntity
  8
Layer_1
 62
5
100
AcDbSpline
 70
8
 71
3
 72
8
 73
4
 74
0
 40
0
 40
0
 40
0
 40
0
 40
1
 40
1
 40
1
 40
1
 10
212.461047
 20
73.188460
 30
0.0
 10
212.461047
 20
73.508853
 30
0.0
 10
212.347357
 20
73.782740
 30
0.0
 10
212.119977
 20
74.010120
 30
0.0
  0
SPLINE
  5
1cc
100
AcDbEntity
  8
Layer_1
 62
5
100
AcDbSpline
 70
8
 71
3
 72
8
 73
4
 74
0
 40
0
 40
0
 40
0
 40
0
 40
1
 40
1
 40
1
 40
1
 10
212.119977
 20
74.010120
 30
0.0
 10
211.892604
 20
74.237493
 30
0.0
 10
211.618720
 20
74.351180
 30
0.0
 10
211.298327
 20
74.351180
 30
0.0
  0
LINE
  5
1cd
100
AcDbEntity
  8
Layer_1
 62
5
100
AcDbLine
 10
211.298327
 20
74.351180
 30
0.0
 11
211.298327
 21
74.351180
 31
0.0
  0
LINE
  5
1ce
100
AcDbEntity
  8
Layer_1
 62
5
100
AcDbLine
 10
211.298327
 20
70.992210
 30
0.0
 11
209.360457
 21
70.992210
 31
0.0
  0
LINE
  5
1cf
100
AcDbEntity
  8
Layer_1
 62
5
100
AcDbLine
 10
209.360457
 20
70.992210
 30
0.0
 11
209.360457
 21
68.666770
 31
0.0
  0
LINE
  5
1d0
100
AcDbEntity
  8
Layer_1
 62
5
100
AcDbLine
 10
209.360457
 20
68.666770
 30
0.0
 11
211.298327
 21
68.666770
 31
0.0
  0
SPLINE
  5
1d1
100
AcDbEntity
  8
Layer_1
 62
5
100
AcDbSpline
 70
8
 71
3
 72
8
 73
4
 74
0
 40
0
 40
0
 40
0
 40
0
 40
1
 40
1
 40
1
 40
1
 10
211.298327
 20
68.666770
 30
0.0
 10
211.618720
 20
68.666770
 30
0.0
 10
211.892604
 20
68.780460
 30
0.0
 10
212.119977
 20
69.007840
 30
0.0
  0
SPLINE
  5
1d2
100
AcDbEntity
  8
Layer_1
 62
5
100
AcDbSpline
 70
8
 71
3
 72
8
 73
4
 74
0
 40
0
 40
0
 40
0
 40
0
 40
1
 40
1
 40
1
 40
1
 10
212.119977
 20
69.007840
 30
0.0
 10
212.347357
 20
69.235213
 30
0.0
 10
212.461047
 20
69.509097
 30
0.0
 10
212.461047
 20
69.829490
 30
0.0
  0
SPLINE
  5
1d3
100
AcDbEntity
  8
Layer_1
 62
5
100
AcDbSpline
 70
8
 71
3
 72
8
 73
4
 74
0
 40
0
 40
0
 40
0
 40
0
 40
1
 40
1
 40
1
 40
1
 10
212.461047
 20
69.829490
 30
0.0
 10
212.461047
 20
70.149890
 30
0.0
 10
212.347357
 20
70.423777
 30
0.0
 10
212.119977
 20
70.651150
 30
0.0
  0
SPLINE
  5
1d4
100
AcDbEntity
  8
Layer_1
 62
5
100
AcDbSpline
 70
8
 71
3
 72
8
 73
4
 74
0
 40
0
 40
0
 40
0
 40
0
 40
1
 40
1
 40
1
 40
1
 10
212.119977
 20
70.651150
 30
0.0
 10
211.892604
 20
70.878523
 30
0.0
 10
211.618720
 20
70.992210
 30
0.0
 10
211.298327
 20
70.992210
 30
0.0
  0
LINE
  5
1d5
100
AcDbEntity
  8
Layer_1
 62
5
100
AcDbLine
 10
211.298327
 20
70.992210
 30
0.0
 11
211.298327
 21
70.992210
 31
0.0
  0
ENDSEC
  0
SECTION
  2
OBJECTS
  0
DICTIONARY
  5
C
330
0
100
AcDbDictionary
  3
ACAD_GROUP
350
D
  3
ACAD_MLINESTYLE
350
17
  0
DICTIONARY
  5
D
330
C
100
AcDbDictionary
  0
DICTIONARY
  5
1A
330
C
100
AcDbDictionary
  0
DICTIONARY
  5
17
330
C
100
AcDbDictionary
  3
STANDARD
350
18
  0
DICTIONARY
  5
19
330
C
100
AcDbDictionary
  0
ENDSEC
  0
EOF
