<?xml version="1.0" encoding="UTF-8" standalone="no"?>
<!-- Created with Inkscape (http://www.inkscape.org/) -->

<svg
   xmlns:dc="http://purl.org/dc/elements/1.1/"
   xmlns:cc="http://creativecommons.org/ns#"
   xmlns:rdf="http://www.w3.org/1999/02/22-rdf-syntax-ns#"
   xmlns:svg="http://www.w3.org/2000/svg"
   xmlns="http://www.w3.org/2000/svg"
   xmlns:sodipodi="http://sodipodi.sourceforge.net/DTD/sodipodi-0.dtd"
   xmlns:inkscape="http://www.inkscape.org/namespaces/inkscape"
   width="236.14998mm"
   height="161.92494mm"
   viewBox="0 0 236.14998 161.92495"
   version="1.1"
   id="svg8"
   inkscape:version="0.92.1 unknown"
   sodipodi:docname="letter_mask.svg">
  <defs
     id="defs2" />
  <sodipodi:namedview
     id="base"
     pagecolor="#ffffff"
     bordercolor="#666666"
     borderopacity="1.0"
     inkscape:pageopacity="0.0"
     inkscape:pageshadow="2"
     inkscape:zoom="0.7"
     inkscape:cx="406.59943"
     inkscape:cy="183.36218"
     inkscape:document-units="mm"
     inkscape:current-layer="layer1"
     showgrid="false"
     fit-margin-top="10"
     fit-margin-left="10"
     fit-margin-right="10"
     fit-margin-bottom="10"
     inkscape:object-nodes="false"
     inkscape:window-width="1557"
     inkscape:window-height="879"
     inkscape:window-x="43"
     inkscape:window-y="21"
     inkscape:window-maximized="1" />
  <metadata
     id="metadata5">
    <rdf:RDF>
      <cc:Work
         rdf:about="">
        <dc:format>image/svg+xml</dc:format>
        <dc:type
           rdf:resource="http://purl.org/dc/dcmitype/StillImage" />
        <dc:title></dc:title>
      </cc:Work>
    </rdf:RDF>
  </metadata>
  <g
     inkscape:label="Layer 1"
     inkscape:groupmode="layer"
     id="layer1"
     transform="translate(143.17262,-99.37964)">
    <text
       xml:space="preserve"
       style="font-style:normal;font-variant:normal;font-weight:normal;font-stretch:normal;font-size:10.58333302px;line-height:125%;font-family:Instruction;-inkscape-font-specification:Instruction;letter-spacing:0px;word-spacing:0px;fill:#000000;fill-opacity:1;stroke:none;stroke-width:0.26458332px;stroke-linecap:butt;stroke-linejoin:miter;stroke-opacity:1"
       x="67.360115"
       y="5.0464277"
       id="text4495"><tspan
         sodipodi:role="line"
         id="tspan4493"
         x="67.360115"
         y="16.952677"
         style="stroke-width:0.26458332px" /></text>
    <text
       xml:space="preserve"
       style="font-style:normal;font-variant:normal;font-weight:normal;font-stretch:normal;font-size:10.58333302px;line-height:125%;font-family:Instruction;-inkscape-font-specification:Instruction;letter-spacing:0px;word-spacing:0px;fill:#000000;fill-opacity:1;stroke:none;stroke-width:0.26458332px;stroke-linecap:butt;stroke-linejoin:miter;stroke-opacity:1"
       x="175.0833"
       y="15.629761"
       id="text4499"><tspan
         sodipodi:role="line"
         id="tspan4497"
         x="175.0833"
         y="27.536011"
         style="stroke-width:0.26458332px" /></text>
    <g
       id="g6359">
      <path
         id="path6317"
         d="m -127.96732,179.35463 c -2.81431,0 -5.0803,-2.26598 -5.0803,-5.0803 v -59.68989 c 0,-2.81432 2.26599,-5.0798 5.0803,-5.0798 H 77.772571 c 2.81432,0 5.07979,2.26548 5.07979,5.0798 v 59.68989 c 0,2.81432 -2.26547,5.0803 -5.07979,5.0803 z"
         style="fill:none;fill-opacity:0.51204816;stroke:#000000;stroke-width:0.25;stroke-miterlimit:4;stroke-dasharray:none"
         inkscape:connector-curvature="0" />
      <path
         d="m -47.133496,124.50062 h 31.372247 v -11.8494 h -31.372247 z m -67.733324,0.37776 h 31.371719 v -11.84941 h -31.371719 z m 150.812491,10.05468 h 31.37224 v -11.84992 h -31.37224 z m -53.29442,10.05417 h 31.371728 v -11.84992 h -31.371728 z m -67.35558,10.05416 H -53.3326 V 143.19147 H -84.704329 Z M 20.29753,164.94415 H 51.669261 V 153.09474 H 20.29753 Z m -127.64285,9.94099 h 31.372241 v -11.84992 h -31.372241 z"
         style="fill:none;fill-opacity:0.51204816;stroke:#ff0000;stroke-width:0.25;stroke-miterlimit:4;stroke-dasharray:none"
         id="path6301"
         inkscape:connector-curvature="0" />
      <path
         d="m 76.579881,119.98049 a 4.25,4.25 0 0 0 4.24987,-4.24987 4.25,4.25 0 0 0 -4.24987,-4.24987 4.25,4.25 0 0 0 -4.25039,4.24987 4.25,4.25 0 0 0 4.25039,4.24987 z m -203.460961,57.42233 a 4.25,4.25 0 0 0 4.24987,-4.24987 4.25,4.25 0 0 0 -4.24987,-4.24988 4.25,4.25 0 0 0 -4.24986,4.24988 4.25,4.25 0 0 0 4.24986,4.24987 z"
         style="fill:none;fill-opacity:0.51204816;stroke:#00ff00;stroke-width:0.25;stroke-miterlimit:4;stroke-dasharray:none"
         id="rect4519-8-9"
         inkscape:connector-curvature="0" />
      <path
         style="color:#000000;font-style:normal;font-variant:normal;font-weight:normal;font-stretch:normal;font-size:medium;line-height:normal;font-family:sans-serif;font-variant-ligatures:normal;font-variant-position:normal;font-variant-caps:normal;font-variant-numeric:normal;font-variant-alternates:normal;font-feature-settings:normal;text-indent:0;text-align:start;text-decoration:none;text-decoration-line:none;text-decoration-style:solid;text-decoration-color:#000000;letter-spacing:normal;word-spacing:normal;text-transform:none;writing-mode:lr-tb;direction:ltr;text-orientation:mixed;dominant-baseline:auto;baseline-shift:baseline;text-anchor:start;white-space:normal;shape-padding:0;clip-rule:nonzero;display:inline;overflow:visible;visibility:visible;opacity:1;isolation:auto;mix-blend-mode:normal;color-interpolation:sRGB;color-interpolation-filters:linearRGB;solid-color:#000000;solid-opacity:1;vector-effect:none;fill:none;fill-opacity:1;fill-rule:evenodd;stroke:#0000ff;stroke-width:0.25;stroke-linecap:round;stroke-linejoin:round;stroke-miterlimit:4;stroke-dasharray:none;stroke-dashoffset:0;stroke-opacity:1;color-rendering:auto;image-rendering:auto;shape-rendering:auto;text-rendering:auto;enable-background:accumulate"
         d="m 71.388672,112.47852 a 0.50005,0.50005 0 1 0 0,1 h 7.818359 a 0.50005,0.50005 0 1 0 0,-1 z m 3.919922,1.05273 a 0.50005,0.50005 0 0 0 -0.316406,0.10937 0.50005,0.50005 0 0 0 -0.0293,0.0254 0.50005,0.50005 0 0 0 -0.01172,0.01 0.50005,0.50005 0 0 0 -0.02734,0.0273 0.50005,0.50005 0 0 0 -0.0039,0.006 l -2.13086,2.38672 a 0.50005972,0.50005972 0 1 0 0.746094,0.66602 l 1.261719,-1.41406 v 6.91015 a 0.50005,0.50005 0 1 0 1,0 V 115.348 l 1.261719,1.41406 a 0.50078862,0.50078862 0 1 0 0.748047,-0.66602 l -2.080079,-2.32812 a 0.50005,0.50005 0 0 0 -0.0039,-0.006 0.50005,0.50005 0 0 0 -0.414062,-0.23047 z"
         id="path7398"
         inkscape:connector-curvature="0" />
      <path
         inkscape:connector-curvature="0"
         id="path5493-4"
         style="font-style:normal;font-variant:normal;font-weight:normal;font-stretch:normal;font-size:10.58333302px;line-height:10.00125027px;font-family:Instruction;-inkscape-font-specification:Instruction;letter-spacing:1.32291663px;word-spacing:0px;fill:none;fill-opacity:1;stroke:#0000ff;stroke-width:0.26458332px;stroke-linecap:butt;stroke-linejoin:miter;stroke-opacity:1"
         d="m 66.523737,119.94731 -0.28422,0.93018 q -0.10336,0.31522 -0.23255,0.47025 -0.12402,0.14986 -0.33589,0.14986 -0.21188,0 -0.36691,-0.14986 -0.14986,-0.15503 -0.14986,-0.3669 0,-0.1757 0.10336,-0.41341 l 1.9637,-6.40788 h 0.0103 q 0.0258,-0.14469 0.14469,-0.25838 0.14986,-0.15503 0.36173,-0.15503 0.21188,0 0.36691,0.15503 0.11369,0.11369 0.13952,0.25838 h 0.0103 l 1.9637,6.40788 q 0.10336,0.23771 0.10336,0.41341 0,0.21187 -0.15503,0.3669 -0.14987,0.14986 -0.36174,0.14986 -0.21187,0 -0.34106,-0.14986 -0.12403,-0.15503 -0.22738,-0.47025 l -0.28422,-0.93018 z m 2.11356,-1.03353 -0.89917,-2.95589 -0.89917,2.95589 z" />
    </g>
    <g
       id="g6367">
      <path
         id="path6346"
         d="m -127.96732,181.32959 c -2.81431,0 -5.0803,2.26598 -5.0803,5.0803 v 59.68989 c 0,2.81432 2.26599,5.0798 5.0803,5.0798 H 77.772569 c 2.81432,0 5.079791,-2.26548 5.079791,-5.0798 v -59.68989 c 0,-2.81432 -2.265471,-5.0803 -5.079791,-5.0803 z"
         style="fill:none;fill-opacity:0.51204816;stroke:#000000;stroke-width:0.25;stroke-miterlimit:4;stroke-dasharray:none" />
      <path
         id="path6344"
         d="m -126.88108,183.2814 a 4.25,4.25 0 0 1 4.24987,4.24987 4.25,4.25 0 0 1 -4.24987,4.24988 4.25,4.25 0 0 1 -4.24986,-4.24988 4.25,4.25 0 0 1 4.24986,-4.24987 z"
         style="fill:none;fill-opacity:0.51204816;stroke:#00ff00;stroke-width:0.25;stroke-miterlimit:4;stroke-dasharray:none" />
      <path
         d="m -47.133497,236.1836 h 31.372246 v 11.8494 h -31.372246 z m -67.733323,-0.37776 h 31.371718 v 11.84941 H -114.86682 Z M 35.945669,225.75116 H 67.31791 v 11.84992 H 35.945669 Z m -53.29442,-10.05417 h 31.371728 v 11.84992 h -31.371728 z m -67.355581,-10.05416 h 31.371729 v 11.84992 h -31.371729 z m 105.00186,-9.90276 h 31.371731 v 11.84941 H 20.297528 Z m -127.642848,-9.94099 h 31.372238 V 197.649 h -31.372238 z"
         style="fill:none;fill-opacity:0.51204816;stroke:#ff0000;stroke-width:0.25;stroke-miterlimit:4;stroke-dasharray:none"
         id="path6330" />
      <path
         id="rect4519-8-9-4"
         d="m 76.57988,240.70373 a 4.25,4.25 0 0 1 4.24987,4.24987 4.25,4.25 0 0 1 -4.24987,4.24987 4.25,4.25 0 0 1 -4.250391,-4.24987 4.25,4.25 0 0 1 4.250391,-4.24987 z"
         style="fill:none;fill-opacity:0.51204816;stroke:#00ff00;stroke-width:0.25;stroke-miterlimit:4;stroke-dasharray:none" />
      <path
         style="color:#000000;font-style:normal;font-variant:normal;font-weight:normal;font-stretch:normal;font-size:medium;line-height:normal;font-family:sans-serif;font-variant-ligatures:normal;font-variant-position:normal;font-variant-caps:normal;font-variant-numeric:normal;font-variant-alternates:normal;font-feature-settings:normal;text-indent:0;text-align:start;text-decoration:none;text-decoration-line:none;text-decoration-style:solid;text-decoration-color:#000000;letter-spacing:normal;word-spacing:normal;text-transform:none;writing-mode:lr-tb;direction:ltr;text-orientation:mixed;dominant-baseline:auto;baseline-shift:baseline;text-anchor:start;white-space:normal;shape-padding:0;clip-rule:nonzero;display:inline;overflow:visible;visibility:visible;opacity:1;isolation:auto;mix-blend-mode:normal;color-interpolation:sRGB;color-interpolation-filters:linearRGB;solid-color:#000000;solid-opacity:1;vector-effect:none;fill:none;fill-opacity:1;fill-rule:evenodd;stroke:#0000ff;stroke-width:0.25;stroke-linecap:round;stroke-linejoin:round;stroke-miterlimit:4;stroke-dasharray:none;stroke-dashoffset:0;stroke-opacity:1;color-rendering:auto;image-rendering:auto;shape-rendering:auto;text-rendering:auto;enable-background:accumulate"
         d="m 71.388672,184.65234 a 0.50005,0.50005 0 1 0 0,1 h 7.818359 a 0.50005,0.50005 0 1 0 0,-1 z m 3.871094,1.05469 a 0.50005,0.50005 0 0 0 -0.267578,0.10938 0.50005,0.50005 0 0 0 -0.01367,0.0117 0.50005,0.50005 0 0 0 -0.0293,0.0254 0.50005,0.50005 0 0 0 -0.01172,0.0137 0.50005,0.50005 0 0 0 -0.01367,0.0117 0.50005,0.50005 0 0 0 -0.0039,0.006 l -2.13086,2.38671 a 0.50005972,0.50005972 0 1 0 0.746094,0.66602 l 1.261719,-1.41406 v 6.9082 a 0.50005,0.50005 0 1 0 1,0 v -6.9082 l 1.261719,1.41406 a 0.50078862,0.50078862 0 1 0 0.748047,-0.66602 l -2.078125,-2.32812 -0.002,-0.002 a 0.50005,0.50005 0 0 0 -0.466796,-0.23438 z"
         id="path7398-2"
         inkscape:connector-curvature="0" />
      <path
         inkscape:connector-curvature="0"
         id="path5637-7"
         style="font-style:normal;font-variant:normal;font-weight:normal;font-stretch:normal;font-size:10.58333302px;line-height:10.00125027px;font-family:Instruction;-inkscape-font-specification:Instruction;letter-spacing:1.32291663px;word-spacing:0px;fill:none;fill-opacity:1;stroke:#0000ff;stroke-width:0.26458332px;stroke-linecap:butt;stroke-linejoin:miter;stroke-opacity:1"
         d="m 68.125707,193.67133 h -2.45463 q -0.21188,0 -0.36691,-0.14986 -0.14986,-0.15503 -0.14986,-0.3669 v -6.71794 q 0,-0.21187 0.14986,-0.36173 0.15503,-0.15503 0.36691,-0.15503 h 2.45463 q 0.9095,0 1.55029,0.64595 0.64595,0.64079 0.64595,1.5503 0,0.9095 -0.64078,1.55029 -0.0672,0.0672 -0.13953,0.12919 0.0724,0.062 0.13953,0.12403 0.64078,0.64595 0.64078,1.55546 0,0.9095 -0.64595,1.55546 -0.64079,0.64078 -1.55029,0.64078 z m 0,-6.71793 h -1.93787 v 2.32544 h 1.93787 q 0.48059,0 0.82165,-0.34107 0.34107,-0.34106 0.34107,-0.82165 0,-0.48059 -0.34107,-0.82166 -0.34106,-0.34106 -0.82165,-0.34106 z m 0,3.35897 h -1.93787 v 2.32544 h 1.93787 q 0.48059,0 0.82165,-0.34107 0.34107,-0.34106 0.34107,-0.82165 0,-0.4806 -0.34107,-0.82166 -0.34106,-0.34106 -0.82165,-0.34106 z" />
    </g>
  </g>
  <g
     inkscape:groupmode="layer"
     id="layer2"
     inkscape:label="Letters"
     transform="translate(0,-103.54631)" />
</svg>
