  0
SECTION
  2
HEADER
  9
$ACADVER
  1
AC1015
  9
$ACADMAINTVER
 70
     6
  9
$DWGCODEPAGE
  3
ANSI_932
  9
$INSBASE
 10
0.0
 20
0.0
 30
0.0
  9
$EXTMIN
 10
-6.475057
 20
-39.212421
 30
1.000000E+20
  9
$EXTMAX
 10
209.675057
 20
102.712421
 30
-1.000000E+20
  9
$LIMMIN
 10
-6.475057
 20
-39.212421
  9
$LIMMAX
 10
209.675057
 20
102.712421
  9
$ORTHOMODE
 70
     0
  9
$REGENMODE
 70
     1
  9
$FILLMODE
 70
     1
  9
$QTEXTMODE
 70
     0
  9
$MIRRTEXT
 70
     1
  9
$LTSCALE
 40
1.0
  9
$ATTMODE
 70
     1
  9
$TEXTSIZE
 40
0.2
  9
$TRACEWID
 40
0.05
  9
$TEXTSTYLE
  7
Standard
  9
$CLAYER
  8
0
  9
$CELTYPE
  6
Continuous
  9
$CECOLOR
 62
   256
  9
$CELTSCALE
 40
1.0
  9
$DISPSILH
 70
     0
  9
$DIMSCALE
 40
1.0
  9
$DIMASZ
 40
0.18
  9
$DIMEXO
 40
0.0625
  9
$DIMDLI
 40
0.38
  9
$DIMRND
 40
0.0
  9
$DIMDLE
 40
0.0
  9
$DIMEXE
 40
0.18
  9
$DIMTP
 40
0.0
  9
$DIMTM
 40
0.0
  9
$DIMTXT
 40
0.18
  9
$DIMCEN
 40
0.09
  9
$DIMTSZ
 40
0.0
  9
$DIMTOL
 70
     0
  9
$DIMLIM
 70
     0
  9
$DIMTIH
 70
     1
  9
$DIMTOH
 70
     1
  9
$DIMSE1
 70
     0
  9
$DIMSE2
 70
     0
  9
$DIMTAD
 70
     0
  9
$DIMZIN
 70
     0
  9
$DIMBLK
  1

  9
$DIMASO
 70
     1
  9
$DIMSHO
 70
     1
  9
$DIMPOST
  1

  9
$DIMAPOST
  1

  9
$DIMALT
 70
     0
  9
$DIMALTD
 70
     2
  9
$DIMALTF
 40
25.4
  9
$DIMLFAC
 40
1.0
  9
$DIMTOFL
 70
     0
  9
$DIMTVP
 40
0.0
  9
$DIMTIX
 70
     0
  9
$DIMSOXD
 70
     0
  9
$DIMSAH
 70
     0
  9
$DIMBLK1
  1

  9
$DIMBLK2
  1

  9
$DIMSTYLE
  2
Standard
  9
$DIMCLRD
 70
     0
  9
$DIMCLRE
 70
     0
  9
$DIMCLRT
 70
     0
  9
$DIMTFAC
 40
1.0
  9
$DIMGAP
 40
0.09
  9
$DIMJUST
 70
     0
  9
$DIMSD1
 70
     0
  9
$DIMSD2
 70
     0
  9
$DIMTOLJ
 70
     1
  9
$DIMTZIN
 70
     0
  9
$DIMALTZ
 70
     0
  9
$DIMALTTZ
 70
     0
  9
$DIMUPT
 70
     0
  9
$DIMDEC
 70
     4
  9
$DIMTDEC
 70
     4
  9
$DIMALTU
 70
     2
  9
$DIMALTTD
 70
     2
  9
$DIMTXSTY
  7
Standard
  9
$DIMAUNIT
 70
     0
  9
$DIMADEC
 70
     0
  9
$DIMALTRND
 40
0.0
  9
$DIMAZIN
 70
     0
  9
$DIMDSEP
 70
     0
  9
$DIMATFIT
 70
     3
  9
$DIMFRAC
 70
     0
  9
$DIMLDRBLK
  1

  9
$DIMLUNIT
 70
     2
  9
$DIMLWD
 70
     0
  9
$DIMLWE
 70
     0
  9
$DIMTMOVE
 70
     0
  9
$LUNITS
 70
     2
  9
$LUPREC
 70
     4
  9
$SKETCHINC
 40
0.1
  9
$FILLETRAD
 40
0.0
  9
$AUNITS
 70
     0
  9
$AUPREC
 70
     0
  9
$MENU
  1
acad
  9
$ELEVATION
 40
0.0
  9
$PELEVATION
 40
0.0
  9
$THICKNESS
 40
0.0
  9
$LIMCHECK
 70
     0
  9
$CHAMFERA
 40
0.0
  9
$CHAMFERB
 40
0.0
  9
$CHAMFERC
 40
0.0
  9
$CHAMFERD
 40
0.0
  9
$SKPOLY
 70
     0
  9
$TDCREATE
 40
0.000000000
  9
$TDUCREATE
 40
0.000000000
  9
$TDUPDATE
 40
0.000000000
  9
$TDUUPDATE
 40
0.000000000
  9
$TDINDWG
 40
0.0000000000
  9
$TDUSRTIMER
 40
0.0000000000
  9
$USRTIMER
 70
     1
  9
$ANGBASE
 50
0.0
  9
$ANGDIR
 70
     0
  9
$PDMODE
 70
     0
  9
$PDSIZE
 40
0.0
  9
$PLINEWID
 40
0.0
  9
$SPLFRAME
 70
     0
  9
$SPLINETYPE
 70
     6
  9
$SPLINESEGS
 70
     8
  9
$HANDSEED
  5
EB
  9
$SURFTAB1
 70
     6
  9
$SURFTAB2
 70
     6
  9
$SURFTYPE
 70
     6
  9
$SURFU
 70
     6
  9
$SURFV
 70
     6
  9
$UCSBASE
  2

  9
$UCSNAME
  2

  9
$UCSORG
 10
0.0
 20
0.0
 30
0.0
  9
$UCSXDIR
 10
1.0
 20
0.0
 30
0.0
  9
$UCSYDIR
 10
0.0
 20
1.0
 30
0.0
  9
$UCSORTHOREF
  2

  9
$UCSORTHOVIEW
 70
     0
  9
$UCSORGTOP
 10
0.0
 20
0.0
 30
0.0
  9
$UCSORGBOTTOM
 10
0.0
 20
0.0
 30
0.0
  9
$UCSORGLEFT
 10
0.0
 20
0.0
 30
0.0
  9
$UCSORGRIGHT
 10
0.0
 20
0.0
 30
0.0
  9
$UCSORGFRONT
 10
0.0
 20
0.0
 30
0.0
  9
$UCSORGBACK
 10
0.0
 20
0.0
 30
0.0
  9
$PUCSBASE
  2

  9
$PUCSNAME
  2

  9
$PUCSORG
 10
0.0
 20
0.0
 30
0.0
  9
$PUCSXDIR
 10
1.0
 20
0.0
 30
0.0
  9
$PUCSYDIR
 10
0.0
 20
1.0
 30
0.0
  9
$PUCSORTHOREF
  2

  9
$PUCSORTHOVIEW
 70
     0
  9
$PUCSORGTOP
 10
0.0
 20
0.0
 30
0.0
  9
$PUCSORGBOTTOM
 10
0.0
 20
0.0
 30
0.0
  9
$PUCSORGLEFT
 10
0.0
 20
0.0
 30
0.0
  9
$PUCSORGRIGHT
 10
0.0
 20
0.0
 30
0.0
  9
$PUCSORGFRONT
 10
0.0
 20
0.0
 30
0.0
  9
$PUCSORGBACK
 10
0.0
 20
0.0
 30
0.0
  9
$USERI1
 70
     0
  9
$USERI2
 70
     0
  9
$USERI3
 70
     0
  9
$USERI4
 70
     0
  9
$USERI5
 70
     0
  9
$USERR1
 40
0.0
  9
$USERR2
 40
0.0
  9
$USERR3
 40
0.0
  9
$USERR4
 40
0.0
  9
$USERR5
 40
0.0
  9
$WORLDVIEW
 70
     1
  9
$SHADEDGE
 70
     3
  9
$SHADEDIF
 70
    70
  9
$TILEMODE
 70
     1
  9
$MAXACTVP
 70
    16
  9
$PINSBASE
 10
0.0
 20
0.0
 30
0.0
  9
$PLIMCHECK
 70
     0
  9
$PEXTMIN
 10
1.000000E+20
 20
1.000000E+20
 30
1.000000E+20
  9
$PEXTMAX
 10
-1.000000E+20
 20
-1.000000E+20
 30
-1.000000E+20
  9
$PLIMMIN
 10
0.0
 20
0.0
  9
$PLIMMAX
 10
12.0
 20
9.0
  9
$UNITMODE
 70
     0
  9
$VISRETAIN
 70
     0
  9
$PLINEGEN
 70
     1
  9
$PSLTSCALE
 70
     0
  9
$TREEDEPTH
 70
  3020
  9
$CMLSTYLE
  2
Standard
  9
$CMLJUST
 70
     0
  9
$CMLSCALE
 40
1.0
  9
$PROXYGRAPHICS
 70
     0
  9
$MEASUREMENT
 70
     1
  9
$CELWEIGHT
370
     0
  9
$ENDCAPS
280
     0
  9
$JOINSTYLE
280
     0
  9
$LWDISPLAY
290
     0
  9
$INSUNITS
 70
     0
  9
$HYPERLINKBASE
  1

  9
$STYLESHEET
  1

  9
$XEDIT
290
     1
  9
$CEPSNTYPE
380
     0
  9
$PSTYLEMODE
290
     1
  9
$FINGERPRINTGUID
  2

  9
$VERSIONGUID
  2

  9
$EXTNAMES
290
     1
  9
$PSVPSCALE
 40
0.0
  0
ENDSEC
  0
SECTION
  2
CLASSES
  0
CLASS
  1
LWPOLYLINE
  2
AcDbPolyline
  3
AutoCAD 2000
 90
    32768
280
     0
281
     1
  0
CLASS
  1
IMAGE
  2
AcDbRasterImage
  3
ISM
 90
    32895
280
     0
281
     1
  0
CLASS
  1
OLE2FRAME
  2
AcDbOle2Frame
  3
AutoCAD 2000
 90
    32768
280
     0
281
     1
  0
CLASS
  1
HATCH
  2
AcDbHatch
  3
AutoCAD 2000
 90
    32768
280
     0
281
     1
  0
CLASS
  1
DICTIONARYVAR
  2
AcDbDictionaryVar
  3
AutoCAD 2000
 90
    32768
280
     0
281
     0
  0
CLASS
  1
RASTERVARIABLES
  2
AcDbRasterVariables
  3
ISM
 90
    32768
280
     0
281
     0
  0
CLASS
  1
IMAGEDEF
  2
AcDbRasterImageDef
  3
ISM
 90
    32768
280
     0
281
     0
  0
CLASS
  1
IMAGEDEF_REACTOR
  2
AcDbRasterImageDefReactor
  3
ISM
 90
    32769
280
     0
281
     0
  0
CLASS
  1
IDBUFFER
  2
AcDbIdBuffer
  3
AutoCAD 2000
 90
    32768
280
     0
281
     0
  0
CLASS
  1
SPATIAL_FILTER
  2
AcDbSpatialFilter
  3
AutoCAD 2000
 90
    32768
280
     0
281
     0
  0
CLASS
  1
XRECORD
  2
AcDbXrecord
  3
AutoCAD 2000
 90
    32768
280
     0
281
     0
  0
CLASS
  1
SORTENTSTABLE
  2
AcDbSortentsTable
  3
AutoCAD 2000
 90
    32768
280
     0
281
     0
  0
CLASS
  1
LAYER_INDEX
  2
AcDbLayerIndex
  3
AutoCAD 2000
 90
    32768
280
     0
281
     0
  0
CLASS
  1
SPATIAL_INDEX
  2
AcDbSpatialIndex
  3
AutoCAD 2000
 90
    32768
280
     0
281
     0
  0
CLASS
  1
OBJECT_PTR
  2
CAseDLPNTableRecord
  3
"ASE-LPNTableRecord"
 90
    32769
280
     0
281
     0
  0
CLASS
  1
LAYOUT
  2
AcDbLayout
  3
AutoCAD 2000
 90
        0
280
     0
281
     0
  0
CLASS
  1
PLOTSETTINGS
  2
AcDbPlotSettings
  3
AutoCAD 2000
 90
    32768
280
     0
281
     0
  0
CLASS
  1
ACDBDICTIONARYWDFLT
  2
AcDbDictionaryWithDefault
  3
AutoCAD 2000
 90
        0
280
     0
281
     0
  0
CLASS
  1
ACDBPLACEHOLDER
  2
AcDbPlaceHolder
  3
AutoCAD 2000
 90
        0
280
     0
281
     0
  0
CLASS
  1
VBA_PROJECT
  2
AcDbVbaProject
  3
acadvba
 90
    32768
280
     0
281
     0
  0
CLASS
  1
WIPEOUT
  2
AcDbWipeout
  3
WipeOut|AutoCAD Express Tool|expresstools@autodesk.com
 90
    32895
280
     0
281
     1
  0
CLASS
  1
WIPEOUTVARIABLES
  2
AcDbWipeoutVariables
  3
WipeOut|AutoCAD Express Tool|expresstools@autodesk.com
 90
        0
280
     0
281
     0
  0
CLASS
  1
RTEXT
  2
RText
  3
RText|AutoCAD Express Tool|expresstools@autodesk.com
 90
    32768
280
     0
281
     1
  0
CLASS
  1
ARCALIGNEDTEXT
  2
AcDbArcAlignedText
  3
ATEXT|AutoCAD Express Tool|expresstools@autodesk.com
 90
    32768
280
     0
281
     1
  0
ENDSEC
  0
SECTION
  2
TABLES
  0
TABLE
  2
VPORT
  5
7
100
AcDbSymbolTable
 70
     1
  0
VPORT
  5
15
100
AcDbSymbolTableRecord
100
AcDbViewportTableRecord
  2
*ACTIVE
 70
     0
 10
0.0
 20
0.0
 11
1.0
 21
1.0
 12
6.591288
 22
4.579184
 13
0.0
 23
0.0
 14
1.0
 24
1.0
 15
0.0
 25
0.0
 16
0.0
 26
0.0
 36
1.0
 17
0.0
 27
0.0
 37
0.0
 40
9.158369
 41
0.688564
 42
50.0
 43
0.0
 44
0.0
 50
0.0
 51
0.0
 71
     0
 72
   100
 73
     1
 74
     1
 75
     0
 76
     0
 77
     0
 78
     0
281
     0
 65
     0
110
0.0
120
0.0
130
0.0
111
1.0
121
0.0
131
0.0
112
0.0
122
1.0
132
0.0
345
0
346
0
 79
     0
146
0.0
  0
ENDTAB
  0
TABLE
  2
LTYPE
  5
4
100
AcDbSymbolTable
 70
     3
  0
LTYPE
  5
11
100
AcDbSymbolTableRecord
100
AcDbLinetypeTableRecord
  2
ByBlock
 70
    64
  3

 72
    65
 73
     0
 40
0.0
  0
LTYPE
  5
12
100
AcDbSymbolTableRecord
100
AcDbLinetypeTableRecord
  2
ByLayer
 70
    64
  3

 72
    65
 73
     0
 40
0.0
  0
LTYPE
  5
13
100
AcDbSymbolTableRecord
100
AcDbLinetypeTableRecord
  2
Continuous
 70
    64
  3
Solid line
 72
    65
 73
     0
 40
0.0
  0
ENDTAB
  0
TABLE
  2
LAYER
  5
2
100
AcDbSymbolTable
 70
     4
  0
LAYER
  5
14
100
AcDbSymbolTableRecord
100
AcDbLayerTableRecord
  2
0
 70
     0
 62
     7
  6
Continuous
290
     1
370
    -3
390
1D
  0
LAYER
  5
28
100
AcDbSymbolTableRecord
100
AcDbLayerTableRecord
  2
0
 70
     0
 62
     3
  6
Continuous
290
     1
370
    -3
390
1D
  0
LAYER
  5
29
100
AcDbSymbolTableRecord
100
AcDbLayerTableRecord
  2
LAYER_1
 70
     0
 62
     1
  6
Continuous
290
     1
370
    -3
390
1D
  0
LAYER
  5
EA
100
AcDbSymbolTableRecord
100
AcDbLayerTableRecord
  2
LETTERS
 70
     0
 62
   160
  6
Continuous
290
     1
370
    -3
390
1D
  0
ENDTAB
  0
TABLE
  2
STYLE
  5
3
100
AcDbSymbolTable
 70
     5
  0
STYLE
  5
17
100
AcDbSymbolTableRecord
100
AcDbTextStyleTableRecord
  2
Standard
 70
     0
 40
0.0
 41
1.0
 50
0.0
 71
     0
 42
0.0
  3
txt
  4

  0
STYLE
  5
24
100
AcDbSymbolTableRecord
100
AcDbTextStyleTableRecord
  2
STD
 70
     0
 40
0.0
 41
1.0
 50
0.0
 71
     0
 42
0.0
  3
txt
  4

  0
STYLE
  5
25
100
AcDbSymbolTableRecord
100
AcDbTextStyleTableRecord
  2
TATESTD
 70
     4
 40
0.0
 41
1.0
 50
0.0
 71
     0
 42
0.0
  3
txt
  4

  0
STYLE
  5
26
100
AcDbSymbolTableRecord
100
AcDbTextStyleTableRecord
  2
KANJISTD
 70
     0
 40
0.0
 41
1.0
 50
0.0
 71
     0
 42
0.0
  3
txt
  4
extfont
  0
STYLE
  5
27
100
AcDbSymbolTableRecord
100
AcDbTextStyleTableRecord
  2
KANJITATE
 70
     4
 40
0.0
 41
1.0
 50
0.0
 71
     0
 42
0.0
  3
txt
  4
extfont
  0
ENDTAB
  0
TABLE
  2
VIEW
  5
5
100
AcDbSymbolTable
 70
     0
  0
ENDTAB
  0
TABLE
  2
UCS
  5
6
100
AcDbSymbolTable
 70
     0
  0
ENDTAB
  0
TABLE
  2
APPID
  5
8
100
AcDbSymbolTable
 70
     1
  0
APPID
  5
16
100
AcDbSymbolTableRecord
100
AcDbRegAppTableRecord
  2
ACAD
 70
     0
  0
ENDTAB
  0
TABLE
  2
DIMSTYLE
  5
9
100
AcDbSymbolTable
 70
     1
100
AcDbDimStyleTable
 71
     0
  0
DIMSTYLE
105
18
100
AcDbSymbolTableRecord
100
AcDbDimStyleTableRecord
  2
Standard
 70
     0
  3

  4

 40
1.0
 41
0.18
 42
0.0625
 43
0.38
 44
0.18
 45
0.0
 46
0.0
 47
0.0
 48
0.0
 71
     0
 72
     0
 73
     1
 74
     1
 75
     0
 76
     0
 77
     0
 78
     0
 79
     0
140
0.18
141
0.09
142
0.0
143
25.4
144
1.0
145
0.0
146
1.0
147
0.09
148
0.0
170
     0
171
     2
172
     0
173
     0
174
     0
175
     0
176
     0
177
     0
178
     0
179
     0
271
     4
272
     4
273
     2
274
     2
275
     0
276
     0
277
     2
278
    46
279
     0
280
     0
281
     0
282
     0
283
     1
284
     0
285
     0
286
     0
288
     0
340
17
341
0
342
0
343
0
344
0
371
    -2
372
    -2
  0
ENDTAB
  0
TABLE
  2
BLOCK_RECORD
  5
1
100
AcDbSymbolTable
 70
     0
  0
BLOCK_RECORD
  5
A
100
AcDbSymbolTableRecord
100
AcDbBlockTableRecord
  2
*MODEL_SPACE
340
20
  0
BLOCK_RECORD
  5
B
100
AcDbSymbolTableRecord
100
AcDbBlockTableRecord
  2
*PAPER_SPACE
340
21
  0
ENDTAB
  0
ENDSEC
  0
SECTION
  2
BLOCKS
  0
BLOCK
  5
D
100
AcDbEntity
  8
0
100
AcDbBlockBegin
  2
*MODEL_SPACE
 70
     0
 10
0.0
 20
0.0
 30
0.0
  3
*MODEL_SPACE
  1

  0
ENDBLK
  5
E
100
AcDbEntity
  8
0
100
AcDbBlockEnd
  0
BLOCK
  5
F
100
AcDbEntity
 67
     1
  8
0
100
AcDbBlockBegin
  2
*PAPER_SPACE
 70
     0
 10
0.0
 20
0.0
 30
0.0
  3
*PAPER_SPACE
  1

  0
ENDBLK
  5
10
100
AcDbEntity
 67
     1
  8
0
100
AcDbBlockEnd
  0
ENDSEC
  0
SECTION
  2
ENTITIES
  0
SPLINE
  5
E9
100
AcDbEntity
  8
LAYER_1
 62
     7
100
AcDbSpline
210
0.0
220
0.0
230
1.0
 70
     8
 71
     3
 72
     8
 73
     4
 74
     0
 42
0.00000001
 43
0.00000001
 40
0.0
 40
0.0
 40
0.0
 40
0.0
 40
1.0
 40
1.0
 40
1.0
 40
1.0
 10
-1.2696899414062499
 20
32.73736436631944
 30
0.0
 10
-4.0839884440104166
 20
32.73736436631944
 30
0.0
 10
-6.3499999999999996
 20
35.00320366753472
 30
0.0
 10
-6.3499999999999996
 20
37.817846679687499
 30
0.0
  0
LINE
  5
E8
100
AcDbEntity
  8
LAYER_1
 62
     7
100
AcDbLine
 10
-6.35
 20
37.817847
 30
0.0
 11
-6.35
 21
97.507571
 31
0.0
  0
SPLINE
  5
E7
100
AcDbEntity
  8
LAYER_1
 62
     7
100
AcDbSpline
210
0.0
220
0.0
230
1.0
 70
     8
 71
     3
 72
     8
 73
     4
 74
     0
 42
0.00000001
 43
0.00000001
 40
0.0
 40
0.0
 40
0.0
 40
0.0
 40
1.0
 40
1.0
 40
1.0
 40
1.0
 10
-6.3499999999999996
 20
97.507571072048606
 30
0.0
 10
-6.3499999999999996
 20
100.32186957465277
 30
0.0
 10
-4.0839884440104166
 20
102.58736436631943
 30
0.0
 10
-1.2696899414062499
 20
102.58736436631943
 30
0.0
  0
LINE
  5
E6
100
AcDbEntity
  8
LAYER_1
 62
     7
100
AcDbLine
 10
-1.26969
 20
102.587364
 30
0.0
 11
204.470207
 21
102.587364
 31
0.0
  0
SPLINE
  5
E5
100
AcDbEntity
  8
LAYER_1
 62
     7
100
AcDbSpline
210
0.0
220
0.0
230
1.0
 70
     8
 71
     3
 72
     8
 73
     4
 74
     0
 42
0.00000001
 43
0.00000001
 40
0.0
 40
0.0
 40
0.0
 40
0.0
 40
1.0
 40
1.0
 40
1.0
 40
1.0
 10
204.47020670572914
 20
102.58736436631943
 30
0.0
 10
207.28450520833331
 20
102.58736436631943
 30
0.0
 10
209.54999999999998
 20
100.32186957465277
 30
0.0
 10
209.54999999999998
 20
97.507571072048606
 30
0.0
  0
LINE
  5
E4
100
AcDbEntity
  8
LAYER_1
 62
     7
100
AcDbLine
 10
209.55
 20
97.507571
 30
0.0
 11
209.55
 21
37.817847
 31
0.0
  0
SPLINE
  5
E3
100
AcDbEntity
  8
LAYER_1
 62
     7
100
AcDbSpline
210
0.0
220
0.0
230
1.0
 70
     8
 71
     3
 72
     8
 73
     4
 74
     0
 42
0.00000001
 43
0.00000001
 40
0.0
 40
0.0
 40
0.0
 40
0.0
 40
1.0
 40
1.0
 40
1.0
 40
1.0
 10
209.54999999999998
 20
37.817846679687499
 30
0.0
 10
209.54999999999998
 20
35.00320366753472
 30
0.0
 10
207.28450520833331
 20
32.73736436631944
 30
0.0
 10
204.47020670572914
 20
32.73736436631944
 30
0.0
  0
LINE
  5
E2
100
AcDbEntity
  8
LAYER_1
 62
     7
100
AcDbLine
 10
204.470207
 20
32.737364
 30
0.0
 11
-1.26969
 21
32.737364
 31
0.0
  0
LINE
  5
E1
100
AcDbEntity
  8
LAYER_1
 62
     1
100
AcDbLine
 10
79.564136
 20
87.591553
 30
0.0
 11
110.936209
 21
87.591553
 31
0.0
  0
LINE
  5
E0
100
AcDbEntity
  8
LAYER_1
 62
     1
100
AcDbLine
 10
110.936209
 20
87.591553
 30
0.0
 11
110.936209
 21
99.440959
 31
0.0
  0
LINE
  5
DF
100
AcDbEntity
  8
LAYER_1
 62
     1
100
AcDbLine
 10
110.936209
 20
99.440959
 30
0.0
 11
79.564136
 21
99.440959
 31
0.0
  0
LINE
  5
DE
100
AcDbEntity
  8
LAYER_1
 62
     1
100
AcDbLine
 10
79.564136
 20
99.440959
 30
0.0
 11
79.564136
 21
87.591553
 31
0.0
  0
LINE
  5
DD
100
AcDbEntity
  8
LAYER_1
 62
     1
100
AcDbLine
 10
11.830802
 20
87.213626
 30
0.0
 11
43.202531
 21
87.213626
 31
0.0
  0
LINE
  5
DC
100
AcDbEntity
  8
LAYER_1
 62
     1
100
AcDbLine
 10
43.202531
 20
87.213626
 30
0.0
 11
43.202531
 21
99.063032
 31
0.0
  0
LINE
  5
DB
100
AcDbEntity
  8
LAYER_1
 62
     1
100
AcDbLine
 10
43.202531
 20
99.063032
 30
0.0
 11
11.830802
 21
99.063032
 31
0.0
  0
LINE
  5
DA
100
AcDbEntity
  8
LAYER_1
 62
     1
100
AcDbLine
 10
11.830802
 20
99.063032
 30
0.0
 11
11.830802
 21
87.213626
 31
0.0
  0
LINE
  5
D9
100
AcDbEntity
  8
LAYER_1
 62
     1
100
AcDbLine
 10
162.643302
 20
77.159115
 30
0.0
 11
194.015375
 21
77.159115
 31
0.0
  0
LINE
  5
D8
100
AcDbEntity
  8
LAYER_1
 62
     1
100
AcDbLine
 10
194.015375
 20
77.159115
 30
0.0
 11
194.015375
 21
89.008865
 31
0.0
  0
LINE
  5
D7
100
AcDbEntity
  8
LAYER_1
 62
     1
100
AcDbLine
 10
194.015375
 20
89.008865
 30
0.0
 11
162.643302
 21
89.008865
 31
0.0
  0
LINE
  5
D6
100
AcDbEntity
  8
LAYER_1
 62
     1
100
AcDbLine
 10
162.643302
 20
89.008865
 30
0.0
 11
162.643302
 21
77.159115
 31
0.0
  0
LINE
  5
D5
100
AcDbEntity
  8
LAYER_1
 62
     1
100
AcDbLine
 10
109.348709
 20
67.104948
 30
0.0
 11
140.720437
 21
67.104948
 31
0.0
  0
LINE
  5
D4
100
AcDbEntity
  8
LAYER_1
 62
     1
100
AcDbLine
 10
140.720437
 20
67.104948
 30
0.0
 11
140.720437
 21
78.954698
 31
0.0
  0
LINE
  5
D3
100
AcDbEntity
  8
LAYER_1
 62
     1
100
AcDbLine
 10
140.720437
 20
78.954698
 30
0.0
 11
109.348709
 21
78.954698
 31
0.0
  0
LINE
  5
D2
100
AcDbEntity
  8
LAYER_1
 62
     1
100
AcDbLine
 10
109.348709
 20
78.954698
 30
0.0
 11
109.348709
 21
67.104948
 31
0.0
  0
LINE
  5
D1
100
AcDbEntity
  8
LAYER_1
 62
     1
100
AcDbLine
 10
41.993302
 20
57.050781
 30
0.0
 11
73.365031
 21
57.050781
 31
0.0
  0
LINE
  5
D0
100
AcDbEntity
  8
LAYER_1
 62
     1
100
AcDbLine
 10
73.365031
 20
57.050781
 30
0.0
 11
73.365031
 21
68.900532
 31
0.0
  0
LINE
  5
CF
100
AcDbEntity
  8
LAYER_1
 62
     1
100
AcDbLine
 10
73.365031
 20
68.900532
 30
0.0
 11
41.993302
 21
68.900532
 31
0.0
  0
LINE
  5
CE
100
AcDbEntity
  8
LAYER_1
 62
     1
100
AcDbLine
 10
41.993302
 20
68.900532
 30
0.0
 11
41.993302
 21
57.050781
 31
0.0
  0
LINE
  5
CD
100
AcDbEntity
  8
LAYER_1
 62
     1
100
AcDbLine
 10
146.995334
 20
47.147854
 30
0.0
 11
178.367063
 21
47.147854
 31
0.0
  0
LINE
  5
CC
100
AcDbEntity
  8
LAYER_1
 62
     1
100
AcDbLine
 10
178.367063
 20
47.147854
 30
0.0
 11
178.367063
 21
58.99726
 31
0.0
  0
LINE
  5
CB
100
AcDbEntity
  8
LAYER_1
 62
     1
100
AcDbLine
 10
178.367063
 20
58.99726
 30
0.0
 11
146.995334
 21
58.99726
 31
0.0
  0
LINE
  5
CA
100
AcDbEntity
  8
LAYER_1
 62
     1
100
AcDbLine
 10
146.995334
 20
58.99726
 30
0.0
 11
146.995334
 21
47.147854
 31
0.0
  0
LINE
  5
C9
100
AcDbEntity
  8
LAYER_1
 62
     1
100
AcDbLine
 10
19.352307
 20
37.207031
 30
0.0
 11
50.724552
 21
37.207031
 31
0.0
  0
LINE
  5
C8
100
AcDbEntity
  8
LAYER_1
 62
     1
100
AcDbLine
 10
50.724552
 20
37.207031
 30
0.0
 11
50.724552
 21
49.056782
 31
0.0
  0
LINE
  5
C7
100
AcDbEntity
  8
LAYER_1
 62
     1
100
AcDbLine
 10
50.724552
 20
49.056782
 30
0.0
 11
19.352307
 21
49.056782
 31
0.0
  0
LINE
  5
C6
100
AcDbEntity
  8
LAYER_1
 62
     1
100
AcDbLine
 10
19.352307
 20
49.056782
 30
0.0
 11
19.352307
 21
37.207031
 31
0.0
  0
SPLINE
  5
C5
100
AcDbEntity
  8
LAYER_1
 62
     3
100
AcDbSpline
210
0.0
220
0.0
230
1.0
 70
     8
 71
     3
 72
     8
 73
     4
 74
     0
 42
0.00000001
 43
0.00000001
 40
0.0
 40
0.0
 40
0.0
 40
0.0
 40
1.0
 40
1.0
 40
1.0
 40
1.0
 10
203.27751464843749
 20
92.111518012152771
 30
0.0
 10
205.62465820312499
 20
92.111518012152771
 30
0.0
 10
207.52738444010416
 20
94.014244249131934
 30
0.0
 10
207.52738444010416
 20
96.36138780381944
 30
0.0
  0
SPLINE
  5
C4
100
AcDbEntity
  8
LAYER_1
 62
     3
100
AcDbSpline
210
0.0
220
0.0
230
1.0
 70
     8
 71
     3
 72
     8
 73
     4
 74
     0
 42
0.00000001
 43
0.00000001
 40
0.0
 40
0.0
 40
0.0
 40
0.0
 40
1.0
 40
1.0
 40
1.0
 40
1.0
 10
207.52738444010416
 20
96.36138780381944
 30
0.0
 10
207.52738444010416
 20
98.708531358506931
 30
0.0
 10
205.62465820312499
 20
100.61125759548611
 30
0.0
 10
203.27751464843749
 20
100.61125759548611
 30
0.0
  0
SPLINE
  5
C3
100
AcDbEntity
  8
LAYER_1
 62
     3
100
AcDbSpline
210
0.0
220
0.0
230
1.0
 70
     8
 71
     3
 72
     8
 73
     4
 74
     0
 42
0.00000001
 43
0.00000001
 40
0.0
 40
0.0
 40
0.0
 40
0.0
 40
1.0
 40
1.0
 40
1.0
 40
1.0
 10
203.27751464843749
 20
100.61125759548611
 30
0.0
 10
202.15027940538192
 20
100.61125759548611
 30
0.0
 10
201.06920844184026
 20
100.16373969184026
 30
0.0
 10
200.27201334635416
 20
99.36654459635416
 30
0.0
  0
SPLINE
  5
C2
100
AcDbEntity
  8
LAYER_1
 62
     3
100
AcDbSpline
210
0.0
220
0.0
230
1.0
 70
     8
 71
     3
 72
     8
 73
     4
 74
     0
 42
0.00000001
 43
0.00000001
 40
0.0
 40
0.0
 40
0.0
 40
0.0
 40
1.0
 40
1.0
 40
1.0
 40
1.0
 10
200.27201334635416
 20
99.36654459635416
 30
0.0
 10
199.47516276041665
 20
98.569694010416654
 30
0.0
 10
199.02730034722219
 20
97.488623046874991
 30
0.0
 10
199.02730034722219
 20
96.36138780381944
 30
0.0
  0
SPLINE
  5
C1
100
AcDbEntity
  8
LAYER_1
 62
     3
100
AcDbSpline
210
0.0
220
0.0
230
1.0
 70
     8
 71
     3
 72
     8
 73
     4
 74
     0
 42
0.00000001
 43
0.00000001
 40
0.0
 40
0.0
 40
0.0
 40
0.0
 40
1.0
 40
1.0
 40
1.0
 40
1.0
 10
199.02730034722219
 20
96.36138780381944
 30
0.0
 10
199.02730034722219
 20
95.234152560763874
 30
0.0
 10
199.47516276041665
 20
94.153081597222211
 30
0.0
 10
200.27201334635416
 20
93.35623101128472
 30
0.0
  0
SPLINE
  5
C0
100
AcDbEntity
  8
LAYER_1
 62
     3
100
AcDbSpline
210
0.0
220
0.0
230
1.0
 70
     8
 71
     3
 72
     8
 73
     4
 74
     0
 42
0.00000001
 43
0.00000001
 40
0.0
 40
0.0
 40
0.0
 40
0.0
 40
1.0
 40
1.0
 40
1.0
 40
1.0
 10
200.27201334635416
 20
93.35623101128472
 30
0.0
 10
201.06920844184026
 20
92.559035915798603
 30
0.0
 10
202.15027940538192
 20
92.111518012152771
 30
0.0
 10
203.27751464843749
 20
92.111518012152771
 30
0.0
  0
SPLINE
  5
BF
100
AcDbEntity
  8
LAYER_1
 62
     3
100
AcDbSpline
210
0.0
220
0.0
230
1.0
 70
     8
 71
     3
 72
     8
 73
     4
 74
     0
 42
0.00000001
 43
0.00000001
 40
0.0
 40
0.0
 40
0.0
 40
0.0
 40
1.0
 40
1.0
 40
1.0
 40
1.0
 10
-0.1834513346354167
 20
34.689355468749994
 30
0.0
 10
2.1636922200520829
 20
34.689355468749994
 30
0.0
 10
4.0664184570312498
 20
36.592081705729164
 30
0.0
 10
4.0664184570312498
 20
38.939225260416663
 30
0.0
  0
SPLINE
  5
BE
100
AcDbEntity
  8
LAYER_1
 62
     3
100
AcDbSpline
210
0.0
220
0.0
230
1.0
 70
     8
 71
     3
 72
     8
 73
     4
 74
     0
 42
0.00000001
 43
0.00000001
 40
0.0
 40
0.0
 40
0.0
 40
0.0
 40
1.0
 40
1.0
 40
1.0
 40
1.0
 10
4.0664184570312498
 20
38.939225260416663
 30
0.0
 10
4.0664184570312498
 20
41.28602430555555
 30
0.0
 10
2.1636922200520829
 20
43.18875054253472
 30
0.0
 10
-0.1834513346354167
 20
43.189095052083331
 30
0.0
  0
SPLINE
  5
BD
100
AcDbEntity
  8
LAYER_1
 62
     3
100
AcDbSpline
210
0.0
220
0.0
230
1.0
 70
     8
 71
     3
 72
     8
 73
     4
 74
     0
 42
0.00000001
 43
0.00000001
 40
0.0
 40
0.0
 40
0.0
 40
0.0
 40
1.0
 40
1.0
 40
1.0
 40
1.0
 10
-0.1834513346354167
 20
43.189095052083331
 30
0.0
 10
-2.5305948893229164
 20
43.18875054253472
 30
0.0
 10
-4.4333211263020829
 20
41.28602430555555
 30
0.0
 10
-4.4333211263020829
 20
38.939225260416663
 30
0.0
  0
SPLINE
  5
BC
100
AcDbEntity
  8
LAYER_1
 62
     3
100
AcDbSpline
210
0.0
220
0.0
230
1.0
 70
     8
 71
     3
 72
     8
 73
     4
 74
     0
 42
0.00000001
 43
0.00000001
 40
0.0
 40
0.0
 40
0.0
 40
0.0
 40
1.0
 40
1.0
 40
1.0
 40
1.0
 10
-4.4333211263020829
 20
38.939225260416663
 30
0.0
 10
-4.4333211263020829
 20
36.592081705729164
 30
0.0
 10
-2.5305948893229164
 20
34.689355468749994
 30
0.0
 10
-0.1834513346354167
 20
34.689355468749994
 30
0.0
  0
SPLINE
  5
BB
100
AcDbEntity
  8
LAYER_1
 62
     5
100
AcDbSpline
210
0.0
220
0.0
230
1.0
 70
     8
 71
     3
 72
     8
 73
     4
 74
     0
 42
0.00000001
 43
0.00000001
 40
0.0
 40
0.0
 40
0.0
 40
0.0
 40
1.0
 40
1.0
 40
1.0
 40
1.0
 10
198.08644476996525
 20
99.613557942708326
 30
0.0
 10
197.90592176649304
 20
99.615969509548606
 30
0.0
 10
197.73814561631943
 20
99.521229383680549
 30
0.0
 10
197.6471950954861
 20
99.365511067708326
 30
0.0
  0
SPLINE
  5
BA
100
AcDbEntity
  8
LAYER_1
 62
     5
100
AcDbSpline
210
0.0
220
0.0
230
1.0
 70
     8
 71
     3
 72
     8
 73
     4
 74
     0
 42
0.00000001
 43
0.00000001
 40
0.0
 40
0.0
 40
0.0
 40
0.0
 40
1.0
 40
1.0
 40
1.0
 40
1.0
 10
197.6471950954861
 20
99.365511067708326
 30
0.0
 10
197.55658908420136
 20
99.209792751736103
 30
0.0
 10
197.55658908420136
 20
99.017211914062486
 30
0.0
 10
197.6471950954861
 20
98.861493598090263
 30
0.0
  0
SPLINE
  5
B9
100
AcDbEntity
  8
LAYER_1
 62
     5
100
AcDbSpline
210
0.0
220
0.0
230
1.0
 70
     8
 71
     3
 72
     8
 73
     4
 74
     0
 42
0.00000001
 43
0.00000001
 40
0.0
 40
0.0
 40
0.0
 40
0.0
 40
1.0
 40
1.0
 40
1.0
 40
1.0
 10
197.6471950954861
 20
98.861493598090263
 30
0.0
 10
197.73814561631943
 20
98.70577528211804
 30
0.0
 10
197.90592176649304
 20
98.611035156249997
 30
0.0
 10
198.08644476996525
 20
98.613446723090263
 30
0.0
  0
LINE
  5
B8
100
AcDbEntity
  8
LAYER_1
 62
     5
100
AcDbLine
 10
198.086445
 20
98.613447
 30
0.0
 11
205.904744
 21
98.613447
 31
0.0
  0
SPLINE
  5
B7
100
AcDbEntity
  8
LAYER_1
 62
     5
100
AcDbSpline
210
0.0
220
0.0
230
1.0
 70
     8
 71
     3
 72
     8
 73
     4
 74
     0
 42
0.00000001
 43
0.00000001
 40
0.0
 40
0.0
 40
0.0
 40
0.0
 40
1.0
 40
1.0
 40
1.0
 40
1.0
 10
205.90474446614581
 20
98.613446723090263
 30
0.0
 10
206.08492296006943
 20
98.611035156249997
 30
0.0
 10
206.25269911024304
 20
98.70577528211804
 30
0.0
 10
206.34364963107637
 20
98.861493598090263
 30
0.0
  0
SPLINE
  5
B6
100
AcDbEntity
  8
LAYER_1
 62
     5
100
AcDbSpline
210
0.0
220
0.0
230
1.0
 70
     8
 71
     3
 72
     8
 73
     4
 74
     0
 42
0.00000001
 43
0.00000001
 40
0.0
 40
0.0
 40
0.0
 40
0.0
 40
1.0
 40
1.0
 40
1.0
 40
1.0
 10
206.34364963107637
 20
98.861493598090263
 30
0.0
 10
206.43460015190971
 20
99.017211914062486
 30
0.0
 10
206.43460015190971
 20
99.209792751736103
 30
0.0
 10
206.34364963107637
 20
99.365511067708326
 30
0.0
  0
SPLINE
  5
B5
100
AcDbEntity
  8
LAYER_1
 62
     5
100
AcDbSpline
210
0.0
220
0.0
230
1.0
 70
     8
 71
     3
 72
     8
 73
     4
 74
     0
 42
0.00000001
 43
0.00000001
 40
0.0
 40
0.0
 40
0.0
 40
0.0
 40
1.0
 40
1.0
 40
1.0
 40
1.0
 10
206.34364963107637
 20
99.365511067708326
 30
0.0
 10
206.25269911024304
 20
99.521229383680549
 30
0.0
 10
206.08492296006943
 20
99.615969509548606
 30
0.0
 10
205.90474446614581
 20
99.613557942708326
 30
0.0
  0
LINE
  5
B4
100
AcDbEntity
  8
LAYER_1
 62
     5
100
AcDbLine
 10
205.904744
 20
99.613558
 30
0.0
 11
198.086445
 21
99.613558
 31
0.0
  0
SPLINE
  5
B3
100
AcDbEntity
  8
LAYER_1
 62
     5
100
AcDbSpline
210
0.0
220
0.0
230
1.0
 70
     8
 71
     3
 72
     8
 73
     4
 74
     0
 42
0.00000001
 43
0.00000001
 40
0.0
 40
0.0
 40
0.0
 40
0.0
 40
1.0
 40
1.0
 40
1.0
 40
1.0
 10
202.00627441406249
 20
98.560736762152771
 30
0.0
 10
201.89120822482636
 20
98.561770290798606
 30
0.0
 10
201.77958713107637
 20
98.523185221354154
 30
0.0
 10
201.68967013888886
 20
98.451527235243049
 30
0.0
  0
LINE
  5
B2
100
AcDbEntity
  8
LAYER_1
 62
     5
100
AcDbLine
 10
201.617668
 20
98.382625
 30
0.0
 11
199.486876
 21
95.995863
 31
0.0
  0
SPLINE
  5
B1
100
AcDbEntity
  8
LAYER_1
 62
     5
100
AcDbSpline
210
0.0
220
0.0
230
1.0
 70
     8
 71
     3
 72
     8
 73
     4
 74
     0
 42
0.00000001
 43
0.00000001
 40
0.0
 40
0.0
 40
0.0
 40
0.0
 40
1.0
 40
1.0
 40
1.0
 40
1.0
 10
199.48687608506944
 20
95.995863172743043
 30
0.0
 10
199.30290798611108
 20
95.789846462673609
 30
0.0
 10
199.32082248263887
 20
95.473931206597214
 30
0.0
 10
199.52683919270831
 20
95.289963107638883
 30
0.0
  0
SPLINE
  5
B0
100
AcDbEntity
  8
LAYER_1
 62
     5
100
AcDbSpline
210
0.0
220
0.0
230
1.0
 70
     8
 71
     3
 72
     8
 73
     4
 74
     0
 42
0.00000001
 43
0.00000001
 40
0.0
 40
0.0
 40
0.0
 40
0.0
 40
1.0
 40
1.0
 40
1.0
 40
1.0
 10
199.52683919270831
 20
95.289963107638883
 30
0.0
 10
199.73285590277777
 20
95.105995008680551
 30
0.0
 10
200.04877115885415
 20
95.123909505208331
 30
0.0
 10
200.23273925781248
 20
95.329926215277766
 30
0.0
  0
LINE
  5
AF
100
AcDbEntity
  8
LAYER_1
 62
     5
100
AcDbLine
 10
200.232739
 20
95.329926
 30
0.0
 11
201.494678
 21
96.744138
 31
0.0
  0
LINE
  5
AE
100
AcDbEntity
  8
LAYER_1
 62
     5
100
AcDbLine
 10
201.494678
 20
96.744138
 30
0.0
 11
201.494678
 21
89.833965
 31
0.0
  0
SPLINE
  5
AD
100
AcDbEntity
  8
LAYER_1
 62
     5
100
AcDbSpline
210
0.0
220
0.0
230
1.0
 70
     8
 71
     3
 72
     8
 73
     4
 74
     0
 42
0.00000001
 43
0.00000001
 40
0.0
 40
0.0
 40
0.0
 40
0.0
 40
1.0
 40
1.0
 40
1.0
 40
1.0
 10
201.49467773437499
 20
89.833965386284717
 30
0.0
 10
201.4919216579861
 20
89.653442382812486
 30
0.0
 10
201.58666178385414
 20
89.485666232638877
 30
0.0
 10
201.74238009982636
 20
89.395060221354157
 30
0.0
  0
SPLINE
  5
AC
100
AcDbEntity
  8
LAYER_1
 62
     5
100
AcDbSpline
210
0.0
220
0.0
230
1.0
 70
     8
 71
     3
 72
     8
 73
     4
 74
     0
 42
0.00000001
 43
0.00000001
 40
0.0
 40
0.0
 40
0.0
 40
0.0
 40
1.0
 40
1.0
 40
1.0
 40
1.0
 10
201.74238009982636
 20
89.395060221354157
 30
0.0
 10
201.89809841579859
 20
89.304109700520826
 30
0.0
 10
202.09067925347222
 20
89.304109700520826
 30
0.0
 10
202.24639756944444
 20
89.395060221354157
 30
0.0
  0
SPLINE
  5
AB
100
AcDbEntity
  8
LAYER_1
 62
     5
100
AcDbSpline
210
0.0
220
0.0
230
1.0
 70
     8
 71
     3
 72
     8
 73
     4
 74
     0
 42
0.00000001
 43
0.00000001
 40
0.0
 40
0.0
 40
0.0
 40
0.0
 40
1.0
 40
1.0
 40
1.0
 40
1.0
 10
202.24639756944444
 20
89.395060221354157
 30
0.0
 10
202.40246039496526
 20
89.485666232638877
 30
0.0
 10
202.4972005208333
 20
89.653442382812486
 30
0.0
 10
202.49444444444444
 20
89.833965386284717
 30
0.0
  0
LINE
  5
AA
100
AcDbEntity
  8
LAYER_1
 62
     5
100
AcDbLine
 10
202.494444
 20
89.833965
 30
0.0
 11
202.494444
 21
96.744138
 31
0.0
  0
LINE
  5
A9
100
AcDbEntity
  8
LAYER_1
 62
     5
100
AcDbLine
 10
202.494444
 20
96.744138
 30
0.0
 11
203.756383
 21
95.329926
 31
0.0
  0
SPLINE
  5
A8
100
AcDbEntity
  8
LAYER_1
 62
     5
100
AcDbSpline
210
0.0
220
0.0
230
1.0
 70
     8
 71
     3
 72
     8
 73
     4
 74
     0
 42
0.00000001
 43
0.00000001
 40
0.0
 40
0.0
 40
0.0
 40
0.0
 40
1.0
 40
1.0
 40
1.0
 40
1.0
 10
203.75638292100692
 20
95.329926215277766
 30
0.0
 10
203.87523871527776
 20
95.19625651041666
 30
0.0
 10
204.0564507378472
 20
95.136311848958329
 30
0.0
 10
204.23180609809026
 20
95.172485351562486
 30
0.0
  0
SPLINE
  5
A7
100
AcDbEntity
  8
LAYER_1
 62
     5
100
AcDbSpline
210
0.0
220
0.0
230
1.0
 70
     8
 71
     3
 72
     8
 73
     4
 74
     0
 42
0.00000001
 43
0.00000001
 40
0.0
 40
0.0
 40
0.0
 40
0.0
 40
1.0
 40
1.0
 40
1.0
 40
1.0
 10
204.23180609809026
 20
95.172485351562486
 30
0.0
 10
204.40681694878469
 20
95.208658854166657
 30
0.0
 10
204.54944390190971
 20
95.33578287760416
 30
0.0
 10
204.6055989583333
 20
95.505626085069437
 30
0.0
  0
SPLINE
  5
A6
100
AcDbEntity
  8
LAYER_1
 62
     5
100
AcDbSpline
210
0.0
220
0.0
230
1.0
 70
     8
 71
     3
 72
     8
 73
     4
 74
     0
 42
0.00000001
 43
0.00000001
 40
0.0
 40
0.0
 40
0.0
 40
0.0
 40
1.0
 40
1.0
 40
1.0
 40
1.0
 10
204.6055989583333
 20
95.505626085069437
 30
0.0
 10
204.66209852430555
 20
95.675469292534714
 30
0.0
 10
204.62316894531247
 20
95.862537977430549
 30
0.0
 10
204.50431315104166
 20
95.995863172743043
 30
0.0
  0
LINE
  5
A5
100
AcDbEntity
  8
LAYER_1
 62
     5
100
AcDbLine
 10
204.504313
 20
95.995863
 30
0.0
 11
202.424164
 21
98.324059
 31
0.0
  0
SPLINE
  5
A4
100
AcDbEntity
  8
LAYER_1
 62
     5
100
AcDbSpline
210
0.0
220
0.0
230
1.0
 70
     8
 71
     3
 72
     8
 73
     4
 74
     0
 42
0.00000001
 43
0.00000001
 40
0.0
 40
0.0
 40
0.0
 40
0.0
 40
1.0
 40
1.0
 40
1.0
 40
1.0
 10
202.42037489149303
 20
98.33025987413194
 30
0.0
 10
202.32976888020832
 20
98.471508789062497
 30
0.0
 10
202.1740505642361
 20
98.558325195312491
 30
0.0
 10
202.00627441406249
 20
98.560736762152771
 30
0.0
  0
LINE
  5
A3
100
AcDbEntity
  8
LAYER_1
 62
     5
100
AcDbLine
 10
193.221281
 20
92.144591
 30
0.0
 11
192.937061
 21
91.214415
 31
0.0
  0
SPLINE
  5
A2
100
AcDbEntity
  8
LAYER_1
 62
     5
100
AcDbSpline
210
0.0
220
0.0
230
1.0
 70
     8
 71
     3
 72
     8
 73
     4
 74
     0
 42
0.00000001
 43
0.00000001
 40
0.0
 40
0.0
 40
0.0
 40
0.0
 40
1.0
 40
1.0
 40
1.0
 40
1.0
 10
192.93706054687499
 20
91.21441514756944
 30
0.0
 10
192.86815863715276
 20
91.004264322916654
 30
0.0
 10
192.79064398871526
 20
90.847512478298597
 30
0.0
 10
192.70451660156249
 20
90.744159613715269
 30
0.0
  0
SPLINE
  5
A1
100
AcDbEntity
  8
LAYER_1
 62
     5
100
AcDbSpline
210
0.0
220
0.0
230
1.0
 70
     8
 71
     3
 72
     8
 73
     4
 74
     0
 42
0.00000001
 43
0.00000001
 40
0.0
 40
0.0
 40
0.0
 40
0.0
 40
1.0
 40
1.0
 40
1.0
 40
1.0
 10
192.70451660156249
 20
90.744159613715269
 30
0.0
 10
192.6218343098958
 20
90.644251844618054
 30
0.0
 10
192.50986870659722
 20
90.59429796006944
 30
0.0
 10
192.36861979166665
 20
90.59429796006944
 30
0.0
  0
SPLINE
  5
A0
100
AcDbEntity
  8
LAYER_1
 62
     5
100
AcDbSpline
210
0.0
220
0.0
230
1.0
 70
     8
 71
     3
 72
     8
 73
     4
 74
     0
 42
0.00000001
 43
0.00000001
 40
0.0
 40
0.0
 40
0.0
 40
0.0
 40
1.0
 40
1.0
 40
1.0
 40
1.0
 10
192.36861979166665
 20
90.59429796006944
 30
0.0
 10
192.2273708767361
 20
90.59429796006944
 30
0.0
 10
192.10506998697915
 20
90.644251844618054
 30
0.0
 10
192.0017171223958
 20
90.744159613715269
 30
0.0
  0
SPLINE
  5
9F
100
AcDbEntity
  8
LAYER_1
 62
     5
100
AcDbSpline
210
0.0
220
0.0
230
1.0
 70
     8
 71
     3
 72
     8
 73
     4
 74
     0
 42
0.00000001
 43
0.00000001
 40
0.0
 40
0.0
 40
0.0
 40
0.0
 40
1.0
 40
1.0
 40
1.0
 40
1.0
 10
192.0017171223958
 20
90.744159613715269
 30
0.0
 10
191.9018093532986
 20
90.847512478298597
 30
0.0
 10
191.85185546874999
 20
90.969813368055554
 30
0.0
 10
191.85185546874999
 20
91.111062282986097
 30
0.0
  0
SPLINE
  5
9E
100
AcDbEntity
  8
LAYER_1
 62
     5
100
AcDbSpline
210
0.0
220
0.0
230
1.0
 70
     8
 71
     3
 72
     8
 73
     4
 74
     0
 42
0.00000001
 43
0.00000001
 40
0.0
 40
0.0
 40
0.0
 40
0.0
 40
1.0
 40
1.0
 40
1.0
 40
1.0
 10
191.85185546874999
 20
91.111062282986097
 30
0.0
 10
191.85185546874999
 20
91.228195529513883
 30
0.0
 10
191.8863064236111
 20
91.365999348958326
 30
0.0
 10
191.9552083333333
 20
91.52447374131944
 30
0.0
  0
LINE
  5
9D
100
AcDbEntity
  8
LAYER_1
 62
     5
100
AcDbLine
 10
191.955208
 20
91.524474
 30
0.0
 11
193.918913
 21
97.932351
 31
0.0
  0
SPLINE
  5
9C
100
AcDbEntity
  8
LAYER_1
 62
     5
100
AcDbSpline
210
0.0
220
0.0
230
1.0
 70
     8
 71
     3
 72
     8
 73
     4
 74
     0
 42
0.00000001
 43
0.00000001
 40
0.0
 40
0.0
 40
0.0
 40
0.0
 40
1.0
 40
1.0
 40
1.0
 40
1.0
 10
193.92924804687499
 20
97.932351345486097
 30
0.0
 10
193.94647352430553
 20
98.028814019097211
 30
0.0
 10
193.9947048611111
 20
98.114941406249997
 30
0.0
 10
194.07394205729165
 20
98.19073350694444
 30
0.0
  0
SPLINE
  5
9B
100
AcDbEntity
  8
LAYER_1
 62
     5
100
AcDbSpline
210
0.0
220
0.0
230
1.0
 70
     8
 71
     3
 72
     8
 73
     4
 74
     0
 42
0.00000001
 43
0.00000001
 40
0.0
 40
0.0
 40
0.0
 40
0.0
 40
1.0
 40
1.0
 40
1.0
 40
1.0
 10
194.07394205729165
 20
98.19073350694444
 30
0.0
 10
194.17384982638887
 20
98.294086371527769
 30
0.0
 10
194.29442816840276
 20
98.34576280381944
 30
0.0
 10
194.4356770833333
 20
98.34576280381944
 30
0.0
  0
SPLINE
  5
9A
100
AcDbEntity
  8
LAYER_1
 62
     5
100
AcDbSpline
210
0.0
220
0.0
230
1.0
 70
     8
 71
     3
 72
     8
 73
     4
 74
     0
 42
0.00000001
 43
0.00000001
 40
0.0
 40
0.0
 40
0.0
 40
0.0
 40
1.0
 40
1.0
 40
1.0
 40
1.0
 10
194.4356770833333
 20
98.34576280381944
 30
0.0
 10
194.57692599826387
 20
98.34576280381944
 30
0.0
 10
194.6992268880208
 20
98.294086371527769
 30
0.0
 10
194.80257975260415
 20
98.19073350694444
 30
0.0
  0
SPLINE
  5
99
100
AcDbEntity
  8
LAYER_1
 62
     5
100
AcDbSpline
210
0.0
220
0.0
230
1.0
 70
     8
 71
     3
 72
     8
 73
     4
 74
     0
 42
0.00000001
 43
0.00000001
 40
0.0
 40
0.0
 40
0.0
 40
0.0
 40
1.0
 40
1.0
 40
1.0
 40
1.0
 10
194.80257975260415
 20
98.19073350694444
 30
0.0
 10
194.8783718532986
 20
98.114941406249997
 30
0.0
 10
194.9248806423611
 20
98.028814019097211
 30
0.0
 10
194.94210611979165
 20
97.932351345486097
 30
0.0
  0
LINE
  5
98
100
AcDbEntity
  8
LAYER_1
 62
     5
100
AcDbLine
 10
194.952441
 20
97.932351
 30
0.0
 11
196.916146
 21
91.524474
 31
0.0
  0
SPLINE
  5
97
100
AcDbEntity
  8
LAYER_1
 62
     5
100
AcDbSpline
210
0.0
220
0.0
230
1.0
 70
     8
 71
     3
 72
     8
 73
     4
 74
     0
 42
0.00000001
 43
0.00000001
 40
0.0
 40
0.0
 40
0.0
 40
0.0
 40
1.0
 40
1.0
 40
1.0
 40
1.0
 10
196.9161458333333
 20
91.52447374131944
 30
0.0
 10
196.98504774305553
 20
91.365999348958326
 30
0.0
 10
197.01949869791665
 20
91.228195529513883
 30
0.0
 10
197.01949869791665
 20
91.111062282986097
 30
0.0
  0
SPLINE
  5
96
100
AcDbEntity
  8
LAYER_1
 62
     5
100
AcDbSpline
210
0.0
220
0.0
230
1.0
 70
     8
 71
     3
 72
     8
 73
     4
 74
     0
 42
0.00000001
 43
0.00000001
 40
0.0
 40
0.0
 40
0.0
 40
0.0
 40
1.0
 40
1.0
 40
1.0
 40
1.0
 10
197.01949869791665
 20
91.111062282986097
 30
0.0
 10
197.01949869791665
 20
90.969813368055554
 30
0.0
 10
196.96782226562499
 20
90.847512478298597
 30
0.0
 10
196.86446940104165
 20
90.744159613715269
 30
0.0
  0
SPLINE
  5
95
100
AcDbEntity
  8
LAYER_1
 62
     5
100
AcDbSpline
210
0.0
220
0.0
230
1.0
 70
     8
 71
     3
 72
     8
 73
     4
 74
     0
 42
0.00000001
 43
0.00000001
 40
0.0
 40
0.0
 40
0.0
 40
0.0
 40
1.0
 40
1.0
 40
1.0
 40
1.0
 10
196.86446940104165
 20
90.744159613715269
 30
0.0
 10
196.76456163194442
 20
90.644251844618054
 30
0.0
 10
196.64398328993053
 20
90.59429796006944
 30
0.0
 10
196.50273437499999
 20
90.59429796006944
 30
0.0
  0
SPLINE
  5
94
100
AcDbEntity
  8
LAYER_1
 62
     5
100
AcDbSpline
210
0.0
220
0.0
230
1.0
 70
     8
 71
     3
 72
     8
 73
     4
 74
     0
 42
0.00000001
 43
0.00000001
 40
0.0
 40
0.0
 40
0.0
 40
0.0
 40
1.0
 40
1.0
 40
1.0
 40
1.0
 10
196.50273437499999
 20
90.59429796006944
 30
0.0
 10
196.36148546006942
 20
90.59429796006944
 30
0.0
 10
196.24779730902776
 20
90.644251844618054
 30
0.0
 10
196.16166992187499
 20
90.744159613715269
 30
0.0
  0
SPLINE
  5
93
100
AcDbEntity
  8
LAYER_1
 62
     5
100
AcDbSpline
210
0.0
220
0.0
230
1.0
 70
     8
 71
     3
 72
     8
 73
     4
 74
     0
 42
0.00000001
 43
0.00000001
 40
0.0
 40
0.0
 40
0.0
 40
0.0
 40
1.0
 40
1.0
 40
1.0
 40
1.0
 10
196.16166992187499
 20
90.744159613715269
 30
0.0
 10
196.0789876302083
 20
90.847512478298597
 30
0.0
 10
196.00319552951387
 20
91.004264322916654
 30
0.0
 10
195.93429361979165
 20
91.21441514756944
 30
0.0
  0
LINE
  5
92
100
AcDbEntity
  8
LAYER_1
 62
     5
100
AcDbLine
 10
195.934294
 20
91.214415
 30
0.0
 11
195.650073
 21
92.144591
 31
0.0
  0
LINE
  5
91
100
AcDbEntity
  8
LAYER_1
 62
     5
100
AcDbLine
 10
195.650073
 20
92.144591
 30
0.0
 11
193.221281
 21
92.144591
 31
0.0
  0
LINE
  5
90
100
AcDbEntity
  8
LAYER_1
 62
     5
100
AcDbLine
 10
195.334847
 20
93.17812
 30
0.0
 11
194.435677
 21
96.134012
 31
0.0
  0
LINE
  5
8F
100
AcDbEntity
  8
LAYER_1
 62
     5
100
AcDbLine
 10
194.435677
 20
96.134012
 30
0.0
 11
193.536507
 21
93.17812
 31
0.0
  0
LINE
  5
8E
100
AcDbEntity
  8
LAYER_1
 62
     5
100
AcDbLine
 10
193.536507
 20
93.17812
 30
0.0
 11
195.334847
 21
93.17812
 31
0.0
  0
SPLINE
  5
8D
100
AcDbEntity
  8
LAYER_1
 62
     7
100
AcDbSpline
210
0.0
220
0.0
230
1.0
 70
     8
 71
     3
 72
     8
 73
     4
 74
     0
 42
0.00000001
 43
0.00000001
 40
0.0
 40
0.0
 40
0.0
 40
0.0
 40
1.0
 40
1.0
 40
1.0
 40
1.0
 10
-1.2696899414062499
 20
30.762635633680553
 30
0.0
 10
-4.0839884440104166
 20
30.762635633680553
 30
0.0
 10
-6.3499999999999996
 20
28.496451822916665
 30
0.0
 10
-6.3499999999999996
 20
25.682153320312498
 30
0.0
  0
LINE
  5
8C
100
AcDbEntity
  8
LAYER_1
 62
     7
100
AcDbLine
 10
-6.35
 20
25.682153
 30
0.0
 11
-6.35
 21
-34.007571
 31
0.0
  0
SPLINE
  5
8B
100
AcDbEntity
  8
LAYER_1
 62
     7
100
AcDbSpline
210
0.0
220
0.0
230
1.0
 70
     8
 71
     3
 72
     8
 73
     4
 74
     0
 42
0.00000001
 43
0.00000001
 40
0.0
 40
0.0
 40
0.0
 40
0.0
 40
1.0
 40
1.0
 40
1.0
 40
1.0
 10
-6.3499999999999996
 20
-34.007571072048606
 30
0.0
 10
-6.3499999999999996
 20
-36.821869574652773
 30
0.0
 10
-4.0839884440104166
 20
-39.087364366319441
 30
0.0
 10
-1.2696899414062499
 20
-39.087364366319441
 30
0.0
  0
LINE
  5
8A
100
AcDbEntity
  8
LAYER_1
 62
     7
100
AcDbLine
 10
-1.26969
 20
-39.087364
 30
0.0
 11
204.470207
 21
-39.087364
 31
0.0
  0
SPLINE
  5
89
100
AcDbEntity
  8
LAYER_1
 62
     7
100
AcDbSpline
210
0.0
220
0.0
230
1.0
 70
     8
 71
     3
 72
     8
 73
     4
 74
     0
 42
0.00000001
 43
0.00000001
 40
0.0
 40
0.0
 40
0.0
 40
0.0
 40
1.0
 40
1.0
 40
1.0
 40
1.0
 10
204.47020670572914
 20
-39.087364366319441
 30
0.0
 10
207.28450520833331
 20
-39.087364366319441
 30
0.0
 10
209.54999999999998
 20
-36.821869574652773
 30
0.0
 10
209.54999999999998
 20
-34.007571072048606
 30
0.0
  0
LINE
  5
88
100
AcDbEntity
  8
LAYER_1
 62
     7
100
AcDbLine
 10
209.55
 20
-34.007571
 30
0.0
 11
209.55
 21
25.682153
 31
0.0
  0
SPLINE
  5
87
100
AcDbEntity
  8
LAYER_1
 62
     7
100
AcDbSpline
210
0.0
220
0.0
230
1.0
 70
     8
 71
     3
 72
     8
 73
     4
 74
     0
 42
0.00000001
 43
0.00000001
 40
0.0
 40
0.0
 40
0.0
 40
0.0
 40
1.0
 40
1.0
 40
1.0
 40
1.0
 10
209.54999999999998
 20
25.682153320312498
 30
0.0
 10
209.54999999999998
 20
28.496451822916665
 30
0.0
 10
207.28450520833331
 20
30.762635633680553
 30
0.0
 10
204.47020670572914
 20
30.762635633680553
 30
0.0
  0
LINE
  5
86
100
AcDbEntity
  8
LAYER_1
 62
     7
100
AcDbLine
 10
204.470207
 20
30.762636
 30
0.0
 11
-1.26969
 21
30.762636
 31
0.0
  0
SPLINE
  5
85
100
AcDbEntity
  8
LAYER_1
 62
     3
100
AcDbSpline
210
0.0
220
0.0
230
1.0
 70
     8
 71
     3
 72
     8
 73
     4
 74
     0
 42
0.00000001
 43
0.00000001
 40
0.0
 40
0.0
 40
0.0
 40
0.0
 40
1.0
 40
1.0
 40
1.0
 40
1.0
 10
-0.1834513346354167
 20
28.810644531249999
 30
0.0
 10
2.1636922200520829
 20
28.810644531249999
 30
0.0
 10
4.0664184570312498
 20
26.907918294270832
 30
0.0
 10
4.0664184570312498
 20
24.56077473958333
 30
0.0
  0
SPLINE
  5
84
100
AcDbEntity
  8
LAYER_1
 62
     3
100
AcDbSpline
210
0.0
220
0.0
230
1.0
 70
     8
 71
     3
 72
     8
 73
     4
 74
     0
 42
0.00000001
 43
0.00000001
 40
0.0
 40
0.0
 40
0.0
 40
0.0
 40
1.0
 40
1.0
 40
1.0
 40
1.0
 10
4.0664184570312498
 20
24.56077473958333
 30
0.0
 10
4.0664184570312498
 20
22.213631184895831
 30
0.0
 10
2.1636922200520829
 20
20.310904947916665
 30
0.0
 10
-0.1834513346354167
 20
20.310904947916665
 30
0.0
  0
SPLINE
  5
83
100
AcDbEntity
  8
LAYER_1
 62
     3
100
AcDbSpline
210
0.0
220
0.0
230
1.0
 70
     8
 71
     3
 72
     8
 73
     4
 74
     0
 42
0.00000001
 43
0.00000001
 40
0.0
 40
0.0
 40
0.0
 40
0.0
 40
1.0
 40
1.0
 40
1.0
 40
1.0
 10
-0.1834513346354167
 20
20.310904947916665
 30
0.0
 10
-2.5305948893229164
 20
20.310904947916665
 30
0.0
 10
-4.4333211263020829
 20
22.213631184895831
 30
0.0
 10
-4.4333211263020829
 20
24.56077473958333
 30
0.0
  0
SPLINE
  5
82
100
AcDbEntity
  8
LAYER_1
 62
     3
100
AcDbSpline
210
0.0
220
0.0
230
1.0
 70
     8
 71
     3
 72
     8
 73
     4
 74
     0
 42
0.00000001
 43
0.00000001
 40
0.0
 40
0.0
 40
0.0
 40
0.0
 40
1.0
 40
1.0
 40
1.0
 40
1.0
 10
-4.4333211263020829
 20
24.56077473958333
 30
0.0
 10
-4.4333211263020829
 20
26.907918294270832
 30
0.0
 10
-2.5305948893229164
 20
28.810644531249999
 30
0.0
 10
-0.1834513346354167
 20
28.810644531249999
 30
0.0
  0
LINE
  5
81
100
AcDbEntity
  8
LAYER_1
 62
     1
100
AcDbLine
 10
79.564136
 20
-24.091553
 30
0.0
 11
110.936209
 21
-24.091553
 31
0.0
  0
LINE
  5
80
100
AcDbEntity
  8
LAYER_1
 62
     1
100
AcDbLine
 10
110.936209
 20
-24.091553
 30
0.0
 11
110.936209
 21
-35.940959
 31
0.0
  0
LINE
  5
7F
100
AcDbEntity
  8
LAYER_1
 62
     1
100
AcDbLine
 10
110.936209
 20
-35.940959
 30
0.0
 11
79.564136
 21
-35.940959
 31
0.0
  0
LINE
  5
7E
100
AcDbEntity
  8
LAYER_1
 62
     1
100
AcDbLine
 10
79.564136
 20
-35.940959
 30
0.0
 11
79.564136
 21
-24.091553
 31
0.0
  0
LINE
  5
7D
100
AcDbEntity
  8
LAYER_1
 62
     1
100
AcDbLine
 10
11.830802
 20
-23.713626
 30
0.0
 11
43.202531
 21
-23.713626
 31
0.0
  0
LINE
  5
7C
100
AcDbEntity
  8
LAYER_1
 62
     1
100
AcDbLine
 10
43.202531
 20
-23.713626
 30
0.0
 11
43.202531
 21
-35.563032
 31
0.0
  0
LINE
  5
7B
100
AcDbEntity
  8
LAYER_1
 62
     1
100
AcDbLine
 10
43.202531
 20
-35.563032
 30
0.0
 11
11.830802
 21
-35.563032
 31
0.0
  0
LINE
  5
7A
100
AcDbEntity
  8
LAYER_1
 62
     1
100
AcDbLine
 10
11.830802
 20
-35.563032
 30
0.0
 11
11.830802
 21
-23.713626
 31
0.0
  0
LINE
  5
79
100
AcDbEntity
  8
LAYER_1
 62
     1
100
AcDbLine
 10
162.643302
 20
-13.659115
 30
0.0
 11
194.015375
 21
-13.659115
 31
0.0
  0
LINE
  5
78
100
AcDbEntity
  8
LAYER_1
 62
     1
100
AcDbLine
 10
194.015375
 20
-13.659115
 30
0.0
 11
194.015375
 21
-25.508865
 31
0.0
  0
LINE
  5
77
100
AcDbEntity
  8
LAYER_1
 62
     1
100
AcDbLine
 10
194.015375
 20
-25.508865
 30
0.0
 11
162.643302
 21
-25.508865
 31
0.0
  0
LINE
  5
76
100
AcDbEntity
  8
LAYER_1
 62
     1
100
AcDbLine
 10
162.643302
 20
-25.508865
 30
0.0
 11
162.643302
 21
-13.659115
 31
0.0
  0
LINE
  5
75
100
AcDbEntity
  8
LAYER_1
 62
     1
100
AcDbLine
 10
109.348709
 20
-3.604948
 30
0.0
 11
140.720437
 21
-3.604948
 31
0.0
  0
LINE
  5
74
100
AcDbEntity
  8
LAYER_1
 62
     1
100
AcDbLine
 10
140.720437
 20
-3.604948
 30
0.0
 11
140.720437
 21
-15.454698
 31
0.0
  0
LINE
  5
73
100
AcDbEntity
  8
LAYER_1
 62
     1
100
AcDbLine
 10
140.720437
 20
-15.454698
 30
0.0
 11
109.348709
 21
-15.454698
 31
0.0
  0
LINE
  5
72
100
AcDbEntity
  8
LAYER_1
 62
     1
100
AcDbLine
 10
109.348709
 20
-15.454698
 30
0.0
 11
109.348709
 21
-3.604948
 31
0.0
  0
LINE
  5
71
100
AcDbEntity
  8
LAYER_1
 62
     1
100
AcDbLine
 10
41.993302
 20
6.449219
 30
0.0
 11
73.365031
 21
6.449219
 31
0.0
  0
LINE
  5
70
100
AcDbEntity
  8
LAYER_1
 62
     1
100
AcDbLine
 10
73.365031
 20
6.449219
 30
0.0
 11
73.365031
 21
-5.400532
 31
0.0
  0
LINE
  5
6F
100
AcDbEntity
  8
LAYER_1
 62
     1
100
AcDbLine
 10
73.365031
 20
-5.400532
 30
0.0
 11
41.993302
 21
-5.400532
 31
0.0
  0
LINE
  5
6E
100
AcDbEntity
  8
LAYER_1
 62
     1
100
AcDbLine
 10
41.993302
 20
-5.400532
 30
0.0
 11
41.993302
 21
6.449219
 31
0.0
  0
LINE
  5
6D
100
AcDbEntity
  8
LAYER_1
 62
     1
100
AcDbLine
 10
146.995334
 20
16.352146
 30
0.0
 11
178.367063
 21
16.352146
 31
0.0
  0
LINE
  5
6C
100
AcDbEntity
  8
LAYER_1
 62
     1
100
AcDbLine
 10
178.367063
 20
16.352146
 30
0.0
 11
178.367063
 21
4.50274
 31
0.0
  0
LINE
  5
6B
100
AcDbEntity
  8
LAYER_1
 62
     1
100
AcDbLine
 10
178.367063
 20
4.50274
 30
0.0
 11
146.995334
 21
4.50274
 31
0.0
  0
LINE
  5
6A
100
AcDbEntity
  8
LAYER_1
 62
     1
100
AcDbLine
 10
146.995334
 20
4.50274
 30
0.0
 11
146.995334
 21
16.352146
 31
0.0
  0
LINE
  5
69
100
AcDbEntity
  8
LAYER_1
 62
     1
100
AcDbLine
 10
19.352307
 20
26.292969
 30
0.0
 11
50.724552
 21
26.292969
 31
0.0
  0
LINE
  5
68
100
AcDbEntity
  8
LAYER_1
 62
     1
100
AcDbLine
 10
50.724552
 20
26.292969
 30
0.0
 11
50.724552
 21
14.443218
 31
0.0
  0
LINE
  5
67
100
AcDbEntity
  8
LAYER_1
 62
     1
100
AcDbLine
 10
50.724552
 20
14.443218
 30
0.0
 11
19.352307
 21
14.443218
 31
0.0
  0
LINE
  5
66
100
AcDbEntity
  8
LAYER_1
 62
     1
100
AcDbLine
 10
19.352307
 20
14.443218
 30
0.0
 11
19.352307
 21
26.292969
 31
0.0
  0
SPLINE
  5
65
100
AcDbEntity
  8
LAYER_1
 62
     3
100
AcDbSpline
210
0.0
220
0.0
230
1.0
 70
     8
 71
     3
 72
     8
 73
     4
 74
     0
 42
0.00000001
 43
0.00000001
 40
0.0
 40
0.0
 40
0.0
 40
0.0
 40
1.0
 40
1.0
 40
1.0
 40
1.0
 10
203.27751464843749
 20
-28.611518012152775
 30
0.0
 10
205.62465820312499
 20
-28.611862521701386
 30
0.0
 10
207.52738444010416
 20
-30.514244249131941
 30
0.0
 10
207.52738444010416
 20
-32.86138780381944
 30
0.0
  0
SPLINE
  5
64
100
AcDbEntity
  8
LAYER_1
 62
     3
100
AcDbSpline
210
0.0
220
0.0
230
1.0
 70
     8
 71
     3
 72
     8
 73
     4
 74
     0
 42
0.00000001
 43
0.00000001
 40
0.0
 40
0.0
 40
0.0
 40
0.0
 40
1.0
 40
1.0
 40
1.0
 40
1.0
 10
207.52738444010416
 20
-32.86138780381944
 30
0.0
 10
207.52738444010416
 20
-35.208531358506939
 30
0.0
 10
205.62465820312499
 20
-37.111257595486109
 30
0.0
 10
203.27751464843749
 20
-37.111257595486109
 30
0.0
  0
SPLINE
  5
63
100
AcDbEntity
  8
LAYER_1
 62
     3
100
AcDbSpline
210
0.0
220
0.0
230
1.0
 70
     8
 71
     3
 72
     8
 73
     4
 74
     0
 42
0.00000001
 43
0.00000001
 40
0.0
 40
0.0
 40
0.0
 40
0.0
 40
1.0
 40
1.0
 40
1.0
 40
1.0
 10
203.27751464843749
 20
-37.111257595486109
 30
0.0
 10
202.15027940538192
 20
-37.11160210503472
 30
0.0
 10
201.06920844184026
 20
-36.663739691840277
 30
0.0
 10
200.27201334635416
 20
-35.866889105902771
 30
0.0
  0
SPLINE
  5
62
100
AcDbEntity
  8
LAYER_1
 62
     3
100
AcDbSpline
210
0.0
220
0.0
230
1.0
 70
     8
 71
     3
 72
     8
 73
     4
 74
     0
 42
0.00000001
 43
0.00000001
 40
0.0
 40
0.0
 40
0.0
 40
0.0
 40
1.0
 40
1.0
 40
1.0
 40
1.0
 10
200.27201334635416
 20
-35.866889105902771
 30
0.0
 10
199.47516276041665
 20
-35.069694010416661
 30
0.0
 10
199.02730034722219
 20
-33.988623046874999
 30
0.0
 10
199.02730034722219
 20
-32.86138780381944
 30
0.0
  0
SPLINE
  5
61
100
AcDbEntity
  8
LAYER_1
 62
     3
100
AcDbSpline
210
0.0
220
0.0
230
1.0
 70
     8
 71
     3
 72
     8
 73
     4
 74
     0
 42
0.00000001
 43
0.00000001
 40
0.0
 40
0.0
 40
0.0
 40
0.0
 40
1.0
 40
1.0
 40
1.0
 40
1.0
 10
199.02730034722219
 20
-32.86138780381944
 30
0.0
 10
199.02730034722219
 20
-31.734152560763885
 30
0.0
 10
199.47516276041665
 20
-30.653081597222219
 30
0.0
 10
200.27201334635416
 20
-29.85623101128472
 30
0.0
  0
SPLINE
  5
60
100
AcDbEntity
  8
LAYER_1
 62
     3
100
AcDbSpline
210
0.0
220
0.0
230
1.0
 70
     8
 71
     3
 72
     8
 73
     4
 74
     0
 42
0.00000001
 43
0.00000001
 40
0.0
 40
0.0
 40
0.0
 40
0.0
 40
1.0
 40
1.0
 40
1.0
 40
1.0
 10
200.27201334635416
 20
-29.85623101128472
 30
0.0
 10
201.06920844184026
 20
-29.059380425347218
 30
0.0
 10
202.15027940538192
 20
-28.611518012152775
 30
0.0
 10
203.27751464843749
 20
-28.611518012152775
 30
0.0
  0
SPLINE
  5
5F
100
AcDbEntity
  8
LAYER_1
 62
     5
100
AcDbSpline
210
0.0
220
0.0
230
1.0
 70
     8
 71
     3
 72
     8
 73
     4
 74
     0
 42
0.00000001
 43
0.00000001
 40
0.0
 40
0.0
 40
0.0
 40
0.0
 40
1.0
 40
1.0
 40
1.0
 40
1.0
 10
198.08644476996525
 20
27.439841037326385
 30
0.0
 10
197.90592176649304
 20
27.442252604166665
 30
0.0
 10
197.73814561631943
 20
27.347512478298608
 30
0.0
 10
197.6471950954861
 20
27.191794162326385
 30
0.0
  0
SPLINE
  5
5E
100
AcDbEntity
  8
LAYER_1
 62
     5
100
AcDbSpline
210
0.0
220
0.0
230
1.0
 70
     8
 71
     3
 72
     8
 73
     4
 74
     0
 42
0.00000001
 43
0.00000001
 40
0.0
 40
0.0
 40
0.0
 40
0.0
 40
1.0
 40
1.0
 40
1.0
 40
1.0
 10
197.6471950954861
 20
27.191794162326385
 30
0.0
 10
197.55658908420136
 20
27.036075846354166
 30
0.0
 10
197.55658908420136
 20
26.843495008680552
 30
0.0
 10
197.6471950954861
 20
26.687776692708329
 30
0.0
  0
SPLINE
  5
5D
100
AcDbEntity
  8
LAYER_1
 62
     5
100
AcDbSpline
210
0.0
220
0.0
230
1.0
 70
     8
 71
     3
 72
     8
 73
     4
 74
     0
 42
0.00000001
 43
0.00000001
 40
0.0
 40
0.0
 40
0.0
 40
0.0
 40
1.0
 40
1.0
 40
1.0
 40
1.0
 10
197.6471950954861
 20
26.687776692708329
 30
0.0
 10
197.73814561631943
 20
26.53205837673611
 30
0.0
 10
197.90592176649304
 20
26.437318250868053
 30
0.0
 10
198.08644476996525
 20
26.439729817708329
 30
0.0
  0
LINE
  5
5C
100
AcDbEntity
  8
LAYER_1
 62
     5
100
AcDbLine
 10
198.086445
 20
26.43973
 30
0.0
 11
205.904744
 21
26.43973
 31
0.0
  0
SPLINE
  5
5B
100
AcDbEntity
  8
LAYER_1
 62
     5
100
AcDbSpline
210
0.0
220
0.0
230
1.0
 70
     8
 71
     3
 72
     8
 73
     4
 74
     0
 42
0.00000001
 43
0.00000001
 40
0.0
 40
0.0
 40
0.0
 40
0.0
 40
1.0
 40
1.0
 40
1.0
 40
1.0
 10
205.90474446614581
 20
26.439729817708329
 30
0.0
 10
206.08492296006943
 20
26.437318250868053
 30
0.0
 10
206.25269911024304
 20
26.53205837673611
 30
0.0
 10
206.34364963107637
 20
26.687776692708329
 30
0.0
  0
SPLINE
  5
5A
100
AcDbEntity
  8
LAYER_1
 62
     5
100
AcDbSpline
210
0.0
220
0.0
230
1.0
 70
     8
 71
     3
 72
     8
 73
     4
 74
     0
 42
0.00000001
 43
0.00000001
 40
0.0
 40
0.0
 40
0.0
 40
0.0
 40
1.0
 40
1.0
 40
1.0
 40
1.0
 10
206.34364963107637
 20
26.687776692708329
 30
0.0
 10
206.43460015190971
 20
26.843495008680552
 30
0.0
 10
206.43460015190971
 20
27.036075846354166
 30
0.0
 10
206.34364963107637
 20
27.191794162326385
 30
0.0
  0
SPLINE
  5
59
100
AcDbEntity
  8
LAYER_1
 62
     5
100
AcDbSpline
210
0.0
220
0.0
230
1.0
 70
     8
 71
     3
 72
     8
 73
     4
 74
     0
 42
0.00000001
 43
0.00000001
 40
0.0
 40
0.0
 40
0.0
 40
0.0
 40
1.0
 40
1.0
 40
1.0
 40
1.0
 10
206.34364963107637
 20
27.191794162326385
 30
0.0
 10
206.25269911024304
 20
27.347512478298608
 30
0.0
 10
206.08492296006943
 20
27.442252604166665
 30
0.0
 10
205.90474446614581
 20
27.439841037326385
 30
0.0
  0
LINE
  5
58
100
AcDbEntity
  8
LAYER_1
 62
     5
100
AcDbLine
 10
205.904744
 20
27.439841
 30
0.0
 11
198.086445
 21
27.439841
 31
0.0
  0
SPLINE
  5
57
100
AcDbEntity
  8
LAYER_1
 62
     5
100
AcDbSpline
210
0.0
220
0.0
230
1.0
 70
     8
 71
     3
 72
     8
 73
     4
 74
     0
 42
0.00000001
 43
0.00000001
 40
0.0
 40
0.0
 40
0.0
 40
0.0
 40
1.0
 40
1.0
 40
1.0
 40
1.0
 10
201.95735405815969
 20
26.384952799479166
 30
0.0
 10
201.85951334635413
 20
26.375651041666664
 30
0.0
 10
201.76615125868054
 20
26.337754991319443
 30
0.0
 10
201.68967013888886
 20
26.275743272569443
 30
0.0
  0
LINE
  5
56
100
AcDbEntity
  8
LAYER_1
 62
     5
100
AcDbLine
 10
201.617668
 20
26.207186
 30
0.0
 11
199.486876
 21
23.820424
 31
0.0
  0
SPLINE
  5
55
100
AcDbEntity
  8
LAYER_1
 62
     5
100
AcDbSpline
210
0.0
220
0.0
230
1.0
 70
     8
 71
     3
 72
     8
 73
     4
 74
     0
 42
0.00000001
 43
0.00000001
 40
0.0
 40
0.0
 40
0.0
 40
0.0
 40
1.0
 40
1.0
 40
1.0
 40
1.0
 10
199.48687608506944
 20
23.820423719618052
 30
0.0
 10
199.36767578124997
 20
23.687098524305554
 30
0.0
 10
199.32874620225692
 20
23.500718858506943
 30
0.0
 10
199.38490125868054
 20
23.330875651041666
 30
0.0
  0
SPLINE
  5
54
100
AcDbEntity
  8
LAYER_1
 62
     5
100
AcDbSpline
210
0.0
220
0.0
230
1.0
 70
     8
 71
     3
 72
     8
 73
     4
 74
     0
 42
0.00000001
 43
0.00000001
 40
0.0
 40
0.0
 40
0.0
 40
0.0
 40
1.0
 40
1.0
 40
1.0
 40
1.0
 10
199.38490125868054
 20
23.330875651041666
 30
0.0
 10
199.44071180555554
 20
23.161376953124996
 30
0.0
 10
199.58299424913193
 20
23.034252929687497
 30
0.0
 10
199.75800509982636
 20
22.998079427083333
 30
0.0
  0
SPLINE
  5
53
100
AcDbEntity
  8
LAYER_1
 62
     5
100
AcDbSpline
210
0.0
220
0.0
230
1.0
 70
     8
 71
     3
 72
     8
 73
     4
 74
     0
 42
0.00000001
 43
0.00000001
 40
0.0
 40
0.0
 40
0.0
 40
0.0
 40
1.0
 40
1.0
 40
1.0
 40
1.0
 10
199.75800509982636
 20
22.998079427083333
 30
0.0
 10
199.9326714409722
 20
22.961561414930554
 30
0.0
 10
200.11388346354164
 20
23.021161566840277
 30
0.0
 10
200.23273925781248
 20
23.154486762152775
 30
0.0
  0
LINE
  5
52
100
AcDbEntity
  8
LAYER_1
 62
     5
100
AcDbLine
 10
200.232739
 20
23.154487
 30
0.0
 11
201.494678
 21
24.568698
 31
0.0
  0
LINE
  5
51
100
AcDbEntity
  8
LAYER_1
 62
     5
100
AcDbLine
 10
201.494678
 20
24.568698
 30
0.0
 11
201.494678
 21
17.660248
 31
0.0
  0
SPLINE
  5
50
100
AcDbEntity
  8
LAYER_1
 62
     5
100
AcDbSpline
210
0.0
220
0.0
230
1.0
 70
     8
 71
     3
 72
     8
 73
     4
 74
     0
 42
0.00000001
 43
0.00000001
 40
0.0
 40
0.0
 40
0.0
 40
0.0
 40
1.0
 40
1.0
 40
1.0
 40
1.0
 10
201.49467773437499
 20
17.660248480902776
 30
0.0
 10
201.4919216579861
 20
17.480069986979164
 30
0.0
 10
201.58666178385414
 20
17.312293836805555
 30
0.0
 10
201.74238009982636
 20
17.22134331597222
 30
0.0
  0
SPLINE
  5
4F
100
AcDbEntity
  8
LAYER_1
 62
     5
100
AcDbSpline
210
0.0
220
0.0
230
1.0
 70
     8
 71
     3
 72
     8
 73
     4
 74
     0
 42
0.00000001
 43
0.00000001
 40
0.0
 40
0.0
 40
0.0
 40
0.0
 40
1.0
 40
1.0
 40
1.0
 40
1.0
 10
201.74238009982636
 20
17.22134331597222
 30
0.0
 10
201.89809841579859
 20
17.130392795138889
 30
0.0
 10
202.09067925347222
 20
17.130392795138889
 30
0.0
 10
202.24639756944444
 20
17.22134331597222
 30
0.0
  0
SPLINE
  5
4E
100
AcDbEntity
  8
LAYER_1
 62
     5
100
AcDbSpline
210
0.0
220
0.0
230
1.0
 70
     8
 71
     3
 72
     8
 73
     4
 74
     0
 42
0.00000001
 43
0.00000001
 40
0.0
 40
0.0
 40
0.0
 40
0.0
 40
1.0
 40
1.0
 40
1.0
 40
1.0
 10
202.24639756944444
 20
17.22134331597222
 30
0.0
 10
202.40246039496526
 20
17.312293836805555
 30
0.0
 10
202.4972005208333
 20
17.480069986979164
 30
0.0
 10
202.49444444444444
 20
17.660248480902776
 30
0.0
  0
LINE
  5
4D
100
AcDbEntity
  8
LAYER_1
 62
     5
100
AcDbLine
 10
202.494444
 20
17.660248
 30
0.0
 11
202.494444
 21
24.568698
 31
0.0
  0
LINE
  5
4C
100
AcDbEntity
  8
LAYER_1
 62
     5
100
AcDbLine
 10
202.494444
 20
24.568698
 30
0.0
 11
203.756383
 21
23.154487
 31
0.0
  0
SPLINE
  5
4B
100
AcDbEntity
  8
LAYER_1
 62
     5
100
AcDbSpline
210
0.0
220
0.0
230
1.0
 70
     8
 71
     3
 72
     8
 73
     4
 74
     0
 42
0.00000001
 43
0.00000001
 40
0.0
 40
0.0
 40
0.0
 40
0.0
 40
1.0
 40
1.0
 40
1.0
 40
1.0
 10
203.75638292100692
 20
23.154486762152775
 30
0.0
 10
203.87523871527776
 20
23.020817057291666
 30
0.0
 10
204.0564507378472
 20
22.960872395833331
 30
0.0
 10
204.23180609809026
 20
22.997045898437499
 30
0.0
  0
SPLINE
  5
4A
100
AcDbEntity
  8
LAYER_1
 62
     5
100
AcDbSpline
210
0.0
220
0.0
230
1.0
 70
     8
 71
     3
 72
     8
 73
     4
 74
     0
 42
0.00000001
 43
0.00000001
 40
0.0
 40
0.0
 40
0.0
 40
0.0
 40
1.0
 40
1.0
 40
1.0
 40
1.0
 10
204.23180609809026
 20
22.997045898437499
 30
0.0
 10
204.40681694878469
 20
23.033219401041663
 30
0.0
 10
204.54944390190971
 20
23.160343424479166
 30
0.0
 10
204.6055989583333
 20
23.330186631944443
 30
0.0
  0
SPLINE
  5
49
100
AcDbEntity
  8
LAYER_1
 62
     5
100
AcDbSpline
210
0.0
220
0.0
230
1.0
 70
     8
 71
     3
 72
     8
 73
     4
 74
     0
 42
0.00000001
 43
0.00000001
 40
0.0
 40
0.0
 40
0.0
 40
0.0
 40
1.0
 40
1.0
 40
1.0
 40
1.0
 10
204.6055989583333
 20
23.330186631944443
 30
0.0
 10
204.66209852430555
 20
23.50002983940972
 30
0.0
 10
204.62316894531247
 20
23.686754014756943
 30
0.0
 10
204.50431315104166
 20
23.820423719618052
 30
0.0
  0
LINE
  5
48
100
AcDbEntity
  8
LAYER_1
 62
     5
100
AcDbLine
 10
204.504313
 20
23.820424
 30
0.0
 11
202.426232
 21
26.148619
 31
0.0
  0
SPLINE
  5
47
100
AcDbEntity
  8
LAYER_1
 62
     5
100
AcDbSpline
210
0.0
220
0.0
230
1.0
 70
     8
 71
     3
 72
     8
 73
     4
 74
     0
 42
0.00000001
 43
0.00000001
 40
0.0
 40
0.0
 40
0.0
 40
0.0
 40
1.0
 40
1.0
 40
1.0
 40
1.0
 10
202.42416449652777
 20
26.150686306423609
 30
0.0
 10
202.32494574652776
 20
26.310194227430554
 30
0.0
 10
202.14476725260414
 20
26.400800238715277
 30
0.0
 10
201.95735405815969
 20
26.384952799479166
 30
0.0
  0
LINE
  5
46
100
AcDbEntity
  8
LAYER_1
 62
     5
100
AcDbLine
 10
194.82325
 20
18.420926
 30
0.0
 11
192.36862
 21
18.420926
 31
0.0
  0
SPLINE
  5
45
100
AcDbEntity
  8
LAYER_1
 62
     5
100
AcDbSpline
210
0.0
220
0.0
230
1.0
 70
     8
 71
     3
 72
     8
 73
     4
 74
     0
 42
0.00000001
 43
0.00000001
 40
0.0
 40
0.0
 40
0.0
 40
0.0
 40
1.0
 40
1.0
 40
1.0
 40
1.0
 10
192.36861979166665
 20
18.420925564236111
 30
0.0
 10
192.2273708767361
 20
18.420925564236111
 30
0.0
 10
192.10506998697915
 20
18.470879448784721
 30
0.0
 10
192.0017171223958
 20
18.570787217881943
 30
0.0
  0
SPLINE
  5
44
100
AcDbEntity
  8
LAYER_1
 62
     5
100
AcDbSpline
210
0.0
220
0.0
230
1.0
 70
     8
 71
     3
 72
     8
 73
     4
 74
     0
 42
0.00000001
 43
0.00000001
 40
0.0
 40
0.0
 40
0.0
 40
0.0
 40
1.0
 40
1.0
 40
1.0
 40
1.0
 10
192.0017171223958
 20
18.570787217881943
 30
0.0
 10
191.9018093532986
 20
18.674140082465275
 30
0.0
 10
191.85185546874999
 20
18.796440972222221
 30
0.0
 10
191.85185546874999
 20
18.937689887152775
 30
0.0
  0
LINE
  5
43
100
AcDbEntity
  8
LAYER_1
 62
     5
100
AcDbLine
 10
191.851855
 20
18.93769
 30
0.0
 11
191.851855
 21
25.655626
 31
0.0
  0
SPLINE
  5
42
100
AcDbEntity
  8
LAYER_1
 62
     5
100
AcDbSpline
210
0.0
220
0.0
230
1.0
 70
     8
 71
     3
 72
     8
 73
     4
 74
     0
 42
0.00000001
 43
0.00000001
 40
0.0
 40
0.0
 40
0.0
 40
0.0
 40
1.0
 40
1.0
 40
1.0
 40
1.0
 10
191.85185546874999
 20
25.655626085069443
 30
0.0
 10
191.85185546874999
 20
25.796874999999996
 30
0.0
 10
191.9018093532986
 20
25.917453342013886
 30
0.0
 10
192.0017171223958
 20
26.017361111111107
 30
0.0
  0
SPLINE
  5
41
100
AcDbEntity
  8
LAYER_1
 62
     5
100
AcDbSpline
210
0.0
220
0.0
230
1.0
 70
     8
 71
     3
 72
     8
 73
     4
 74
     0
 42
0.00000001
 43
0.00000001
 40
0.0
 40
0.0
 40
0.0
 40
0.0
 40
1.0
 40
1.0
 40
1.0
 40
1.0
 10
192.0017171223958
 20
26.017361111111107
 30
0.0
 10
192.10506998697915
 20
26.120713975694443
 30
0.0
 10
192.2273708767361
 20
26.172390407986107
 30
0.0
 10
192.36861979166665
 20
26.172390407986107
 30
0.0
  0
LINE
  5
40
100
AcDbEntity
  8
LAYER_1
 62
     5
100
AcDbLine
 10
192.36862
 20
26.17239
 30
0.0
 11
194.82325
 21
26.17239
 31
0.0
  0
SPLINE
  5
3F
100
AcDbEntity
  8
LAYER_1
 62
     5
100
AcDbSpline
210
0.0
220
0.0
230
1.0
 70
     8
 71
     3
 72
     8
 73
     4
 74
     0
 42
0.00000001
 43
0.00000001
 40
0.0
 40
0.0
 40
0.0
 40
0.0
 40
1.0
 40
1.0
 40
1.0
 40
1.0
 10
194.8232503255208
 20
26.172390407986107
 30
0.0
 10
195.42958713107637
 20
26.172390407986107
 30
0.0
 10
195.94635145399303
 20
25.957071940104164
 30
0.0
 10
196.3735432942708
 20
25.526435004340275
 30
0.0
  0
SPLINE
  5
3E
100
AcDbEntity
  8
LAYER_1
 62
     5
100
AcDbSpline
210
0.0
220
0.0
230
1.0
 70
     8
 71
     3
 72
     8
 73
     4
 74
     0
 42
0.00000001
 43
0.00000001
 40
0.0
 40
0.0
 40
0.0
 40
0.0
 40
1.0
 40
1.0
 40
1.0
 40
1.0
 10
196.3735432942708
 20
25.526435004340275
 30
0.0
 10
196.80418023003472
 20
25.099243164062496
 30
0.0
 10
197.01949869791665
 20
24.582478841145832
 30
0.0
 10
197.01949869791665
 20
23.976142035590275
 30
0.0
  0
SPLINE
  5
3D
100
AcDbEntity
  8
LAYER_1
 62
     5
100
AcDbSpline
210
0.0
220
0.0
230
1.0
 70
     8
 71
     3
 72
     8
 73
     4
 74
     0
 42
0.00000001
 43
0.00000001
 40
0.0
 40
0.0
 40
0.0
 40
0.0
 40
1.0
 40
1.0
 40
1.0
 40
1.0
 10
197.01949869791665
 20
23.976142035590275
 30
0.0
 10
197.01949869791665
 20
23.369805230034721
 30
0.0
 10
196.80590277777776
 20
22.853040907118054
 30
0.0
 10
196.37871093749999
 20
22.425849066840275
 30
0.0
  0
SPLINE
  5
3C
100
AcDbEntity
  8
LAYER_1
 62
     5
100
AcDbSpline
210
0.0
220
0.0
230
1.0
 70
     8
 71
     3
 72
     8
 73
     4
 74
     0
 42
0.00000001
 43
0.00000001
 40
0.0
 40
0.0
 40
0.0
 40
0.0
 40
1.0
 40
1.0
 40
1.0
 40
1.0
 10
196.37871093749999
 20
22.425849066840275
 30
0.0
 10
196.33392469618053
 20
22.381062825520832
 30
0.0
 10
196.28741590711803
 20
22.337999131944443
 30
0.0
 10
196.23918457031249
 20
22.296657986111111
 30
0.0
  0
SPLINE
  5
3B
100
AcDbEntity
  8
LAYER_1
 62
     5
100
AcDbSpline
210
0.0
220
0.0
230
1.0
 70
     8
 71
     3
 72
     8
 73
     4
 74
     0
 42
0.00000001
 43
0.00000001
 40
0.0
 40
0.0
 40
0.0
 40
0.0
 40
1.0
 40
1.0
 40
1.0
 40
1.0
 10
196.23918457031249
 20
22.296657986111111
 30
0.0
 10
196.28741590711803
 20
22.255316840277775
 30
0.0
 10
196.33392469618053
 20
22.213975694444443
 30
0.0
 10
196.37871093749999
 20
22.172634548611111
 30
0.0
  0
SPLINE
  5
3A
100
AcDbEntity
  8
LAYER_1
 62
     5
100
AcDbSpline
210
0.0
220
0.0
230
1.0
 70
     8
 71
     3
 72
     8
 73
     4
 74
     0
 42
0.00000001
 43
0.00000001
 40
0.0
 40
0.0
 40
0.0
 40
0.0
 40
1.0
 40
1.0
 40
1.0
 40
1.0
 10
196.37871093749999
 20
22.172634548611111
 30
0.0
 10
196.80590277777776
 20
21.741997612847221
 30
0.0
 10
197.01949869791665
 20
21.223510742187496
 30
0.0
 10
197.01949869791665
 20
20.617173936631943
 30
0.0
  0
SPLINE
  5
39
100
AcDbEntity
  8
LAYER_1
 62
     5
100
AcDbSpline
210
0.0
220
0.0
230
1.0
 70
     8
 71
     3
 72
     8
 73
     4
 74
     0
 42
0.00000001
 43
0.00000001
 40
0.0
 40
0.0
 40
0.0
 40
0.0
 40
1.0
 40
1.0
 40
1.0
 40
1.0
 10
197.01949869791665
 20
20.617173936631943
 30
0.0
 10
197.01949869791665
 20
20.010837131076386
 30
0.0
 10
196.80418023003472
 20
19.492350260416664
 30
0.0
 10
196.3735432942708
 20
19.061713324652775
 30
0.0
  0
SPLINE
  5
38
100
AcDbEntity
  8
LAYER_1
 62
     5
100
AcDbSpline
210
0.0
220
0.0
230
1.0
 70
     8
 71
     3
 72
     8
 73
     4
 74
     0
 42
0.00000001
 43
0.00000001
 40
0.0
 40
0.0
 40
0.0
 40
0.0
 40
1.0
 40
1.0
 40
1.0
 40
1.0
 10
196.3735432942708
 20
19.061713324652775
 30
0.0
 10
195.94635145399303
 20
18.634521484375
 30
0.0
 10
195.42958713107637
 20
18.420925564236111
 30
0.0
 10
194.8232503255208
 20
18.420925564236111
 30
0.0
  0
LINE
  5
37
100
AcDbEntity
  8
LAYER_1
 62
     5
100
AcDbLine
 10
194.82325
 20
25.138862
 30
0.0
 11
192.885384
 21
25.138862
 31
0.0
  0
LINE
  5
36
100
AcDbEntity
  8
LAYER_1
 62
     5
100
AcDbLine
 10
192.885384
 20
25.138862
 30
0.0
 11
192.885384
 21
22.813422
 31
0.0
  0
LINE
  5
35
100
AcDbEntity
  8
LAYER_1
 62
     5
100
AcDbLine
 10
192.885384
 20
22.813422
 30
0.0
 11
194.82325
 21
22.813422
 31
0.0
  0
SPLINE
  5
34
100
AcDbEntity
  8
LAYER_1
 62
     5
100
AcDbSpline
210
0.0
220
0.0
230
1.0
 70
     8
 71
     3
 72
     8
 73
     4
 74
     0
 42
0.00000001
 43
0.00000001
 40
0.0
 40
0.0
 40
0.0
 40
0.0
 40
1.0
 40
1.0
 40
1.0
 40
1.0
 10
194.8232503255208
 20
22.813422309027775
 30
0.0
 10
195.14364420572915
 20
22.813422309027775
 30
0.0
 10
195.41752929687499
 20
22.927110460069443
 30
0.0
 10
195.6449055989583
 20
23.154486762152775
 30
0.0
  0
SPLINE
  5
33
100
AcDbEntity
  8
LAYER_1
 62
     5
100
AcDbSpline
210
0.0
220
0.0
230
1.0
 70
     8
 71
     3
 72
     8
 73
     4
 74
     0
 42
0.00000001
 43
0.00000001
 40
0.0
 40
0.0
 40
0.0
 40
0.0
 40
1.0
 40
1.0
 40
1.0
 40
1.0
 10
195.6449055989583
 20
23.154486762152775
 30
0.0
 10
195.87228190104165
 20
23.381863064236111
 30
0.0
 10
195.9859700520833
 20
23.655748155381943
 30
0.0
 10
195.9859700520833
 20
23.976142035590275
 30
0.0
  0
SPLINE
  5
32
100
AcDbEntity
  8
LAYER_1
 62
     5
100
AcDbSpline
210
0.0
220
0.0
230
1.0
 70
     8
 71
     3
 72
     8
 73
     4
 74
     0
 42
0.00000001
 43
0.00000001
 40
0.0
 40
0.0
 40
0.0
 40
0.0
 40
1.0
 40
1.0
 40
1.0
 40
1.0
 10
195.9859700520833
 20
23.976142035590275
 30
0.0
 10
195.9859700520833
 20
24.296535915798607
 30
0.0
 10
195.87228190104165
 20
24.570421006944443
 30
0.0
 10
195.6449055989583
 20
24.797797309027775
 30
0.0
  0
SPLINE
  5
31
100
AcDbEntity
  8
LAYER_1
 62
     5
100
AcDbSpline
210
0.0
220
0.0
230
1.0
 70
     8
 71
     3
 72
     8
 73
     4
 74
     0
 42
0.00000001
 43
0.00000001
 40
0.0
 40
0.0
 40
0.0
 40
0.0
 40
1.0
 40
1.0
 40
1.0
 40
1.0
 10
195.6449055989583
 20
24.797797309027775
 30
0.0
 10
195.41752929687499
 20
25.025173611111107
 30
0.0
 10
195.14364420572915
 20
25.138861762152775
 30
0.0
 10
194.8232503255208
 20
25.138861762152775
 30
0.0
  0
LINE
  5
30
100
AcDbEntity
  8
LAYER_1
 62
     5
100
AcDbLine
 10
194.82325
 20
21.779894
 30
0.0
 11
192.885384
 21
21.779894
 31
0.0
  0
LINE
  5
2F
100
AcDbEntity
  8
LAYER_1
 62
     5
100
AcDbLine
 10
192.885384
 20
21.779894
 30
0.0
 11
192.885384
 21
19.454454
 31
0.0
  0
LINE
  5
2E
100
AcDbEntity
  8
LAYER_1
 62
     5
100
AcDbLine
 10
192.885384
 20
19.454454
 30
0.0
 11
194.82325
 21
19.454454
 31
0.0
  0
SPLINE
  5
2D
100
AcDbEntity
  8
LAYER_1
 62
     5
100
AcDbSpline
210
0.0
220
0.0
230
1.0
 70
     8
 71
     3
 72
     8
 73
     4
 74
     0
 42
0.00000001
 43
0.00000001
 40
0.0
 40
0.0
 40
0.0
 40
0.0
 40
1.0
 40
1.0
 40
1.0
 40
1.0
 10
194.8232503255208
 20
19.454454210069443
 30
0.0
 10
195.14364420572915
 20
19.454454210069443
 30
0.0
 10
195.41752929687499
 20
19.568142361111111
 30
0.0
 10
195.6449055989583
 20
19.795518663194443
 30
0.0
  0
SPLINE
  5
2C
100
AcDbEntity
  8
LAYER_1
 62
     5
100
AcDbSpline
210
0.0
220
0.0
230
1.0
 70
     8
 71
     3
 72
     8
 73
     4
 74
     0
 42
0.00000001
 43
0.00000001
 40
0.0
 40
0.0
 40
0.0
 40
0.0
 40
1.0
 40
1.0
 40
1.0
 40
1.0
 10
195.6449055989583
 20
19.795518663194443
 30
0.0
 10
195.87228190104165
 20
20.022894965277775
 30
0.0
 10
195.9859700520833
 20
20.296780056423611
 30
0.0
 10
195.9859700520833
 20
20.617173936631943
 30
0.0
  0
SPLINE
  5
2B
100
AcDbEntity
  8
LAYER_1
 62
     5
100
AcDbSpline
210
0.0
220
0.0
230
1.0
 70
     8
 71
     3
 72
     8
 73
     4
 74
     0
 42
0.00000001
 43
0.00000001
 40
0.0
 40
0.0
 40
0.0
 40
0.0
 40
1.0
 40
1.0
 40
1.0
 40
1.0
 10
195.9859700520833
 20
20.617173936631943
 30
0.0
 10
195.9859700520833
 20
20.937567816840275
 30
0.0
 10
195.87228190104165
 20
21.211452907986111
 30
0.0
 10
195.6449055989583
 20
21.438829210069443
 30
0.0
  0
SPLINE
  5
2A
100
AcDbEntity
  8
LAYER_1
 62
     5
100
AcDbSpline
210
0.0
220
0.0
230
1.0
 70
     8
 71
     3
 72
     8
 73
     4
 74
     0
 42
0.00000001
 43
0.00000001
 40
0.0
 40
0.0
 40
0.0
 40
0.0
 40
1.0
 40
1.0
 40
1.0
 40
1.0
 10
195.6449055989583
 20
21.438829210069443
 30
0.0
 10
195.41752929687499
 20
21.666205512152775
 30
0.0
 10
195.14364420572915
 20
21.779893663194443
 30
0.0
 10
194.8232503255208
 20
21.779893663194443
 30
0.0
  0
ENDSEC
  0
SECTION
  2
OBJECTS
  0
DICTIONARY
  5
19
100
AcDbDictionary
280
     0
281
     1
  3
ACAD_GROUP
350
1A
  3
ACAD_MLINESTYLE
350
1B
  3
ACAD_LAYOUT
350
1E
  3
ACAD_PLOTSETTINGS
350
22
  3
ACAD_PLOTSTYLENAME
350
1F
  3
ACAD_WIPEOUT_VARS
350
23
  0
DICTIONARY
  5
1A
102
{ACAD_REACTORS
330
19
102
}
100
AcDbDictionary
280
     0
281
     1
  0
DICTIONARY
  5
1B
102
{ACAD_REACTORS
330
19
102
}
100
AcDbDictionary
280
     0
281
     1
  3
Standard
350
1C
  0
MLINESTYLE
  5
1C
102
{ACAD_REACTORS
330
1B
102
}
100
AcDbMlineStyle
  2
Standard
 70
     0
  3

 62
     0
 51
90.0
 52
90.0
 71
     2
 49
0.5
 62
   256
  6
ByLayer
 49
-0.5
 62
   256
  6
ByLayer
  0
ACDBDICTIONARYWDFLT
  5
1F
102
{ACAD_REACTORS
330
19
102
}
100
AcDbDictionary
281
     1
  3
Normal
350
1D
100
AcDbDictionaryWithDefault
340
1D
  0
ACDBPLACEHOLDER
  5
1D
102
{ACAD_REACTORS
330
1F
102
}
  0
LAYOUT
  5
20
102
{ACAD_REACTORS
330
1E
102
}
100
AcDbPlotSettings
  1

  2

  4

  6

 40
0.0
 41
0.0
 42
0.0
 43
0.0
 44
0.0
 45
0.0
 46
0.0
 47
0.0
 48
0.0
 49
0.0
140
0.0
141
0.0
142
1.0
143
1.0
 70
  1024
 72
     0
 73
     0
 74
     0
  7

 75
     0
147
1.0
148
0.0
149
0.0
100
AcDbLayout
  1
Model
 70
     0
 71
     0
 10
0.0
 20
0.0
 11
0.0
 21
0.0
 12
0.0
 22
0.0
 32
0.0
 14
0.0
 24
0.0
 34
0.0
 15
0.0
 25
0.0
 35
0.0
146
0.0
 13
0.0
 23
0.0
 33
0.0
 16
0.0
 26
0.0
 36
0.0
 17
0.0
 27
0.0
 37
0.0
 76
     0
330
A
331
0
345
0
346
0
  0
LAYOUT
  5
21
102
{ACAD_REACTORS
330
1E
102
}
100
AcDbPlotSettings
  1

  2

  4

  6

 40
0.0
 41
0.0
 42
0.0
 43
0.0
 44
0.0
 45
0.0
 46
0.0
 47
0.0
 48
0.0
 49
0.0
140
0.0
141
0.0
142
1.0
143
1.0
 70
     0
 72
     0
 73
     0
 74
     0
  7

 75
     0
147
1.0
148
0.0
149
0.0
100
AcDbLayout
  1
Layout1
 70
     0
 71
     0
 10
0.0
 20
0.0
 11
0.0
 21
0.0
 12
0.0
 22
0.0
 32
0.0
 14
0.0
 24
0.0
 34
0.0
 15
0.0
 25
0.0
 35
0.0
146
0.0
 13
0.0
 23
0.0
 33
0.0
 16
0.0
 26
0.0
 36
0.0
 17
0.0
 27
0.0
 37
0.0
 76
     0
330
B
331
0
345
0
346
0
  0
DICTIONARY
  5
1E
102
{ACAD_REACTORS
330
19
102
}
100
AcDbDictionary
280
     0
281
     1
  3
Layout1
350
21
  3
Model
350
20
  0
DICTIONARY
  5
22
102
{ACAD_REACTORS
330
19
102
}
100
AcDbDictionary
280
     0
281
     1
  0
WIPEOUTVARIABLES
  5
23
100
AcDbWipeoutVariables
 70
     1
  0
ENDSEC
  0
EOF
