  0
SECTION
  2
HEADER
  9
$ACADVER
  1
AC1015
  9
$ACADMAINTVER
 70
     6
  9
$DWGCODEPAGE
  3
ANSI_932
  9
$INSBASE
 10
0.0
 20
0.0
 30
0.0
  9
$EXTMIN
 10
179.856722
 20
40.899829
 30
1.000000E+20
  9
$EXTMAX
 10
415.143308
 20
149.100115
 30
-1.000000E+20
  9
$LIMMIN
 10
179.856722
 20
40.899829
  9
$LIMMAX
 10
415.143308
 20
149.100115
  9
$ORTHOMODE
 70
     0
  9
$REGENMODE
 70
     1
  9
$FILLMODE
 70
     1
  9
$QTEXTMODE
 70
     0
  9
$MIRRTEXT
 70
     1
  9
$LTSCALE
 40
1.0
  9
$ATTMODE
 70
     1
  9
$TEXTSIZE
 40
0.2
  9
$TRACEWID
 40
0.05
  9
$TEXTSTYLE
  7
Standard
  9
$CLAYER
  8
0
  9
$CELTYPE
  6
Continuous
  9
$CECOLOR
 62
   256
  9
$CELTSCALE
 40
1.0
  9
$DISPSILH
 70
     0
  9
$DIMSCALE
 40
1.0
  9
$DIMASZ
 40
0.18
  9
$DIMEXO
 40
0.0625
  9
$DIMDLI
 40
0.38
  9
$DIMRND
 40
0.0
  9
$DIMDLE
 40
0.0
  9
$DIMEXE
 40
0.18
  9
$DIMTP
 40
0.0
  9
$DIMTM
 40
0.0
  9
$DIMTXT
 40
0.18
  9
$DIMCEN
 40
0.09
  9
$DIMTSZ
 40
0.0
  9
$DIMTOL
 70
     0
  9
$DIMLIM
 70
     0
  9
$DIMTIH
 70
     1
  9
$DIMTOH
 70
     1
  9
$DIMSE1
 70
     0
  9
$DIMSE2
 70
     0
  9
$DIMTAD
 70
     0
  9
$DIMZIN
 70
     0
  9
$DIMBLK
  1

  9
$DIMASO
 70
     1
  9
$DIMSHO
 70
     1
  9
$DIMPOST
  1

  9
$DIMAPOST
  1

  9
$DIMALT
 70
     0
  9
$DIMALTD
 70
     2
  9
$DIMALTF
 40
25.4
  9
$DIMLFAC
 40
1.0
  9
$DIMTOFL
 70
     0
  9
$DIMTVP
 40
0.0
  9
$DIMTIX
 70
     0
  9
$DIMSOXD
 70
     0
  9
$DIMSAH
 70
     0
  9
$DIMBLK1
  1

  9
$DIMBLK2
  1

  9
$DIMSTYLE
  2
Standard
  9
$DIMCLRD
 70
     0
  9
$DIMCLRE
 70
     0
  9
$DIMCLRT
 70
     0
  9
$DIMTFAC
 40
1.0
  9
$DIMGAP
 40
0.09
  9
$DIMJUST
 70
     0
  9
$DIMSD1
 70
     0
  9
$DIMSD2
 70
     0
  9
$DIMTOLJ
 70
     1
  9
$DIMTZIN
 70
     0
  9
$DIMALTZ
 70
     0
  9
$DIMALTTZ
 70
     0
  9
$DIMUPT
 70
     0
  9
$DIMDEC
 70
     4
  9
$DIMTDEC
 70
     4
  9
$DIMALTU
 70
     2
  9
$DIMALTTD
 70
     2
  9
$DIMTXSTY
  7
Standard
  9
$DIMAUNIT
 70
     0
  9
$DIMADEC
 70
     0
  9
$DIMALTRND
 40
0.0
  9
$DIMAZIN
 70
     0
  9
$DIMDSEP
 70
     0
  9
$DIMATFIT
 70
     3
  9
$DIMFRAC
 70
     0
  9
$DIMLDRBLK
  1

  9
$DIMLUNIT
 70
     2
  9
$DIMLWD
 70
     0
  9
$DIMLWE
 70
     0
  9
$DIMTMOVE
 70
     0
  9
$LUNITS
 70
     2
  9
$LUPREC
 70
     4
  9
$SKETCHINC
 40
0.1
  9
$FILLETRAD
 40
0.0
  9
$AUNITS
 70
     0
  9
$AUPREC
 70
     0
  9
$MENU
  1
acad
  9
$ELEVATION
 40
0.0
  9
$PELEVATION
 40
0.0
  9
$THICKNESS
 40
0.0
  9
$LIMCHECK
 70
     0
  9
$CHAMFERA
 40
0.0
  9
$CHAMFERB
 40
0.0
  9
$CHAMFERC
 40
0.0
  9
$CHAMFERD
 40
0.0
  9
$SKPOLY
 70
     0
  9
$TDCREATE
 40
0.000000000
  9
$TDUCREATE
 40
0.000000000
  9
$TDUPDATE
 40
0.000000000
  9
$TDUUPDATE
 40
0.000000000
  9
$TDINDWG
 40
0.0000000000
  9
$TDUSRTIMER
 40
0.0000000000
  9
$USRTIMER
 70
     1
  9
$ANGBASE
 50
0.0
  9
$ANGDIR
 70
     0
  9
$PDMODE
 70
     0
  9
$PDSIZE
 40
0.0
  9
$PLINEWID
 40
0.0
  9
$SPLFRAME
 70
     0
  9
$SPLINETYPE
 70
     6
  9
$SPLINESEGS
 70
     8
  9
$HANDSEED
  5
15D
  9
$SURFTAB1
 70
     6
  9
$SURFTAB2
 70
     6
  9
$SURFTYPE
 70
     6
  9
$SURFU
 70
     6
  9
$SURFV
 70
     6
  9
$UCSBASE
  2

  9
$UCSNAME
  2

  9
$UCSORG
 10
0.0
 20
0.0
 30
0.0
  9
$UCSXDIR
 10
1.0
 20
0.0
 30
0.0
  9
$UCSYDIR
 10
0.0
 20
1.0
 30
0.0
  9
$UCSORTHOREF
  2

  9
$UCSORTHOVIEW
 70
     0
  9
$UCSORGTOP
 10
0.0
 20
0.0
 30
0.0
  9
$UCSORGBOTTOM
 10
0.0
 20
0.0
 30
0.0
  9
$UCSORGLEFT
 10
0.0
 20
0.0
 30
0.0
  9
$UCSORGRIGHT
 10
0.0
 20
0.0
 30
0.0
  9
$UCSORGFRONT
 10
0.0
 20
0.0
 30
0.0
  9
$UCSORGBACK
 10
0.0
 20
0.0
 30
0.0
  9
$PUCSBASE
  2

  9
$PUCSNAME
  2

  9
$PUCSORG
 10
0.0
 20
0.0
 30
0.0
  9
$PUCSXDIR
 10
1.0
 20
0.0
 30
0.0
  9
$PUCSYDIR
 10
0.0
 20
1.0
 30
0.0
  9
$PUCSORTHOREF
  2

  9
$PUCSORTHOVIEW
 70
     0
  9
$PUCSORGTOP
 10
0.0
 20
0.0
 30
0.0
  9
$PUCSORGBOTTOM
 10
0.0
 20
0.0
 30
0.0
  9
$PUCSORGLEFT
 10
0.0
 20
0.0
 30
0.0
  9
$PUCSORGRIGHT
 10
0.0
 20
0.0
 30
0.0
  9
$PUCSORGFRONT
 10
0.0
 20
0.0
 30
0.0
  9
$PUCSORGBACK
 10
0.0
 20
0.0
 30
0.0
  9
$USERI1
 70
     0
  9
$USERI2
 70
     0
  9
$USERI3
 70
     0
  9
$USERI4
 70
     0
  9
$USERI5
 70
     0
  9
$USERR1
 40
0.0
  9
$USERR2
 40
0.0
  9
$USERR3
 40
0.0
  9
$USERR4
 40
0.0
  9
$USERR5
 40
0.0
  9
$WORLDVIEW
 70
     1
  9
$SHADEDGE
 70
     3
  9
$SHADEDIF
 70
    70
  9
$TILEMODE
 70
     1
  9
$MAXACTVP
 70
    16
  9
$PINSBASE
 10
0.0
 20
0.0
 30
0.0
  9
$PLIMCHECK
 70
     0
  9
$PEXTMIN
 10
1.000000E+20
 20
1.000000E+20
 30
1.000000E+20
  9
$PEXTMAX
 10
-1.000000E+20
 20
-1.000000E+20
 30
-1.000000E+20
  9
$PLIMMIN
 10
0.0
 20
0.0
  9
$PLIMMAX
 10
12.0
 20
9.0
  9
$UNITMODE
 70
     0
  9
$VISRETAIN
 70
     0
  9
$PLINEGEN
 70
     1
  9
$PSLTSCALE
 70
     0
  9
$TREEDEPTH
 70
  3020
  9
$CMLSTYLE
  2
Standard
  9
$CMLJUST
 70
     0
  9
$CMLSCALE
 40
1.0
  9
$PROXYGRAPHICS
 70
     0
  9
$MEASUREMENT
 70
     1
  9
$CELWEIGHT
370
     0
  9
$ENDCAPS
280
     0
  9
$JOINSTYLE
280
     0
  9
$LWDISPLAY
290
     0
  9
$INSUNITS
 70
     0
  9
$HYPERLINKBASE
  1

  9
$STYLESHEET
  1

  9
$XEDIT
290
     1
  9
$CEPSNTYPE
380
     0
  9
$PSTYLEMODE
290
     1
  9
$FINGERPRINTGUID
  2

  9
$VERSIONGUID
  2

  9
$EXTNAMES
290
     1
  9
$PSVPSCALE
 40
0.0
  0
ENDSEC
  0
SECTION
  2
CLASSES
  0
CLASS
  1
LWPOLYLINE
  2
AcDbPolyline
  3
AutoCAD 2000
 90
    32768
280
     0
281
     1
  0
CLASS
  1
IMAGE
  2
AcDbRasterImage
  3
ISM
 90
    32895
280
     0
281
     1
  0
CLASS
  1
OLE2FRAME
  2
AcDbOle2Frame
  3
AutoCAD 2000
 90
    32768
280
     0
281
     1
  0
CLASS
  1
HATCH
  2
AcDbHatch
  3
AutoCAD 2000
 90
    32768
280
     0
281
     1
  0
CLASS
  1
DICTIONARYVAR
  2
AcDbDictionaryVar
  3
AutoCAD 2000
 90
    32768
280
     0
281
     0
  0
CLASS
  1
RASTERVARIABLES
  2
AcDbRasterVariables
  3
ISM
 90
    32768
280
     0
281
     0
  0
CLASS
  1
IMAGEDEF
  2
AcDbRasterImageDef
  3
ISM
 90
    32768
280
     0
281
     0
  0
CLASS
  1
IMAGEDEF_REACTOR
  2
AcDbRasterImageDefReactor
  3
ISM
 90
    32769
280
     0
281
     0
  0
CLASS
  1
IDBUFFER
  2
AcDbIdBuffer
  3
AutoCAD 2000
 90
    32768
280
     0
281
     0
  0
CLASS
  1
SPATIAL_FILTER
  2
AcDbSpatialFilter
  3
AutoCAD 2000
 90
    32768
280
     0
281
     0
  0
CLASS
  1
XRECORD
  2
AcDbXrecord
  3
AutoCAD 2000
 90
    32768
280
     0
281
     0
  0
CLASS
  1
SORTENTSTABLE
  2
AcDbSortentsTable
  3
AutoCAD 2000
 90
    32768
280
     0
281
     0
  0
CLASS
  1
LAYER_INDEX
  2
AcDbLayerIndex
  3
AutoCAD 2000
 90
    32768
280
     0
281
     0
  0
CLASS
  1
SPATIAL_INDEX
  2
AcDbSpatialIndex
  3
AutoCAD 2000
 90
    32768
280
     0
281
     0
  0
CLASS
  1
OBJECT_PTR
  2
CAseDLPNTableRecord
  3
"ASE-LPNTableRecord"
 90
    32769
280
     0
281
     0
  0
CLASS
  1
LAYOUT
  2
AcDbLayout
  3
AutoCAD 2000
 90
        0
280
     0
281
     0
  0
CLASS
  1
PLOTSETTINGS
  2
AcDbPlotSettings
  3
AutoCAD 2000
 90
    32768
280
     0
281
     0
  0
CLASS
  1
ACDBDICTIONARYWDFLT
  2
AcDbDictionaryWithDefault
  3
AutoCAD 2000
 90
        0
280
     0
281
     0
  0
CLASS
  1
ACDBPLACEHOLDER
  2
AcDbPlaceHolder
  3
AutoCAD 2000
 90
        0
280
     0
281
     0
  0
CLASS
  1
VBA_PROJECT
  2
AcDbVbaProject
  3
acadvba
 90
    32768
280
     0
281
     0
  0
CLASS
  1
WIPEOUT
  2
AcDbWipeout
  3
WipeOut|AutoCAD Express Tool|expresstools@autodesk.com
 90
    32895
280
     0
281
     1
  0
CLASS
  1
WIPEOUTVARIABLES
  2
AcDbWipeoutVariables
  3
WipeOut|AutoCAD Express Tool|expresstools@autodesk.com
 90
        0
280
     0
281
     0
  0
CLASS
  1
RTEXT
  2
RText
  3
RText|AutoCAD Express Tool|expresstools@autodesk.com
 90
    32768
280
     0
281
     1
  0
CLASS
  1
ARCALIGNEDTEXT
  2
AcDbArcAlignedText
  3
ATEXT|AutoCAD Express Tool|expresstools@autodesk.com
 90
    32768
280
     0
281
     1
  0
ENDSEC
  0
SECTION
  2
TABLES
  0
TABLE
  2
VPORT
  5
7
100
AcDbSymbolTable
 70
     1
  0
VPORT
  5
15
100
AcDbSymbolTableRecord
100
AcDbViewportTableRecord
  2
*ACTIVE
 70
     0
 10
0.0
 20
0.0
 11
1.0
 21
1.0
 12
6.591288
 22
4.579184
 13
0.0
 23
0.0
 14
1.0
 24
1.0
 15
0.0
 25
0.0
 16
0.0
 26
0.0
 36
1.0
 17
0.0
 27
0.0
 37
0.0
 40
9.158369
 41
0.688564
 42
50.0
 43
0.0
 44
0.0
 50
0.0
 51
0.0
 71
     0
 72
   100
 73
     1
 74
     1
 75
     0
 76
     0
 77
     0
 78
     0
281
     0
 65
     0
110
0.0
120
0.0
130
0.0
111
1.0
121
0.0
131
0.0
112
0.0
122
1.0
132
0.0
345
0
346
0
 79
     0
146
0.0
  0
ENDTAB
  0
TABLE
  2
LTYPE
  5
4
100
AcDbSymbolTable
 70
     3
  0
LTYPE
  5
11
100
AcDbSymbolTableRecord
100
AcDbLinetypeTableRecord
  2
ByBlock
 70
    64
  3

 72
    65
 73
     0
 40
0.0
  0
LTYPE
  5
12
100
AcDbSymbolTableRecord
100
AcDbLinetypeTableRecord
  2
ByLayer
 70
    64
  3

 72
    65
 73
     0
 40
0.0
  0
LTYPE
  5
13
100
AcDbSymbolTableRecord
100
AcDbLinetypeTableRecord
  2
Continuous
 70
    64
  3
Solid line
 72
    65
 73
     0
 40
0.0
  0
ENDTAB
  0
TABLE
  2
LAYER
  5
2
100
AcDbSymbolTable
 70
     2
  0
LAYER
  5
14
100
AcDbSymbolTableRecord
100
AcDbLayerTableRecord
  2
0
 70
     0
 62
     7
  6
Continuous
290
     1
370
    -3
390
1D
  0
LAYER
  5
28
100
AcDbSymbolTableRecord
100
AcDbLayerTableRecord
  2
0
 70
     0
 62
   160
  6
Continuous
290
     1
370
    -3
390
1D
  0
ENDTAB
  0
TABLE
  2
STYLE
  5
3
100
AcDbSymbolTable
 70
     5
  0
STYLE
  5
17
100
AcDbSymbolTableRecord
100
AcDbTextStyleTableRecord
  2
Standard
 70
     0
 40
0.0
 41
1.0
 50
0.0
 71
     0
 42
0.0
  3
txt
  4

  0
STYLE
  5
24
100
AcDbSymbolTableRecord
100
AcDbTextStyleTableRecord
  2
STD
 70
     0
 40
0.0
 41
1.0
 50
0.0
 71
     0
 42
0.0
  3
txt
  4

  0
STYLE
  5
25
100
AcDbSymbolTableRecord
100
AcDbTextStyleTableRecord
  2
TATESTD
 70
     4
 40
0.0
 41
1.0
 50
0.0
 71
     0
 42
0.0
  3
txt
  4

  0
STYLE
  5
26
100
AcDbSymbolTableRecord
100
AcDbTextStyleTableRecord
  2
KANJISTD
 70
     0
 40
0.0
 41
1.0
 50
0.0
 71
     0
 42
0.0
  3
txt
  4
extfont
  0
STYLE
  5
27
100
AcDbSymbolTableRecord
100
AcDbTextStyleTableRecord
  2
KANJITATE
 70
     4
 40
0.0
 41
1.0
 50
0.0
 71
     0
 42
0.0
  3
txt
  4
extfont
  0
ENDTAB
  0
TABLE
  2
VIEW
  5
5
100
AcDbSymbolTable
 70
     0
  0
ENDTAB
  0
TABLE
  2
UCS
  5
6
100
AcDbSymbolTable
 70
     0
  0
ENDTAB
  0
TABLE
  2
APPID
  5
8
100
AcDbSymbolTable
 70
     1
  0
APPID
  5
16
100
AcDbSymbolTableRecord
100
AcDbRegAppTableRecord
  2
ACAD
 70
     0
  0
ENDTAB
  0
TABLE
  2
DIMSTYLE
  5
9
100
AcDbSymbolTable
 70
     1
100
AcDbDimStyleTable
 71
     0
  0
DIMSTYLE
105
18
100
AcDbSymbolTableRecord
100
AcDbDimStyleTableRecord
  2
Standard
 70
     0
  3

  4

 40
1.0
 41
0.18
 42
0.0625
 43
0.38
 44
0.18
 45
0.0
 46
0.0
 47
0.0
 48
0.0
 71
     0
 72
     0
 73
     1
 74
     1
 75
     0
 76
     0
 77
     0
 78
     0
 79
     0
140
0.18
141
0.09
142
0.0
143
25.4
144
1.0
145
0.0
146
1.0
147
0.09
148
0.0
170
     0
171
     2
172
     0
173
     0
174
     0
175
     0
176
     0
177
     0
178
     0
179
     0
271
     4
272
     4
273
     2
274
     2
275
     0
276
     0
277
     2
278
    46
279
     0
280
     0
281
     0
282
     0
283
     1
284
     0
285
     0
286
     0
288
     0
340
17
341
0
342
0
343
0
344
0
371
    -2
372
    -2
  0
ENDTAB
  0
TABLE
  2
BLOCK_RECORD
  5
1
100
AcDbSymbolTable
 70
     0
  0
BLOCK_RECORD
  5
A
100
AcDbSymbolTableRecord
100
AcDbBlockTableRecord
  2
*MODEL_SPACE
340
20
  0
BLOCK_RECORD
  5
B
100
AcDbSymbolTableRecord
100
AcDbBlockTableRecord
  2
*PAPER_SPACE
340
21
  0
ENDTAB
  0
ENDSEC
  0
SECTION
  2
BLOCKS
  0
BLOCK
  5
D
100
AcDbEntity
  8
0
100
AcDbBlockBegin
  2
*MODEL_SPACE
 70
     0
 10
0.0
 20
0.0
 30
0.0
  3
*MODEL_SPACE
  1

  0
ENDBLK
  5
E
100
AcDbEntity
  8
0
100
AcDbBlockEnd
  0
BLOCK
  5
F
100
AcDbEntity
 67
     1
  8
0
100
AcDbBlockBegin
  2
*PAPER_SPACE
 70
     0
 10
0.0
 20
0.0
 30
0.0
  3
*PAPER_SPACE
  1

  0
ENDBLK
  5
10
100
AcDbEntity
 67
     1
  8
0
100
AcDbBlockEnd
  0
ENDSEC
  0
SECTION
  2
ENTITIES
  0
LINE
  5
15C
100
AcDbEntity
  8
0
 62
     7
100
AcDbLine
 10
287.957273
 20
41.024886
 30
0.0
 11
294.942204
 21
41.024886
 31
0.0
  0
LINE
  5
15B
100
AcDbEntity
  8
0
 62
     7
100
AcDbLine
 10
294.942204
 20
41.024886
 30
0.0
 11
294.942204
 21
44.199886
 31
0.0
  0
LINE
  5
15A
100
AcDbEntity
  8
0
 62
     7
100
AcDbLine
 10
294.942204
 20
44.199886
 30
0.0
 11
301.927479
 21
44.199886
 31
0.0
  0
LINE
  5
159
100
AcDbEntity
  8
0
 62
     7
100
AcDbLine
 10
301.927479
 20
44.199886
 30
0.0
 11
301.927479
 21
41.024886
 31
0.0
  0
LINE
  5
158
100
AcDbEntity
  8
0
 62
     7
100
AcDbLine
 10
301.927479
 20
41.024886
 30
0.0
 11
308.91241
 21
41.024886
 31
0.0
  0
LINE
  5
157
100
AcDbEntity
  8
0
 62
     7
100
AcDbLine
 10
308.91241
 20
41.024886
 30
0.0
 11
308.91241
 21
44.199886
 31
0.0
  0
LINE
  5
156
100
AcDbEntity
  8
0
 62
     7
100
AcDbLine
 10
308.91241
 20
44.199886
 30
0.0
 11
315.897342
 21
44.199886
 31
0.0
  0
LINE
  5
155
100
AcDbEntity
  8
0
 62
     7
100
AcDbLine
 10
315.897342
 20
44.199886
 30
0.0
 11
315.897342
 21
41.024886
 31
0.0
  0
LINE
  5
154
100
AcDbEntity
  8
0
 62
     7
100
AcDbLine
 10
315.897342
 20
41.024886
 30
0.0
 11
319.704172
 21
41.024886
 31
0.0
  0
LINE
  5
153
100
AcDbEntity
  8
0
 62
     7
100
AcDbLine
 10
319.704172
 20
41.024886
 30
0.0
 11
319.704172
 21
148.975058
 31
0.0
  0
LINE
  5
152
100
AcDbEntity
  8
0
 62
     7
100
AcDbLine
 10
319.704172
 20
148.975058
 30
0.0
 11
315.897342
 21
148.975058
 31
0.0
  0
LINE
  5
151
100
AcDbEntity
  8
0
 62
     7
100
AcDbLine
 10
315.897342
 20
148.975058
 30
0.0
 11
315.897342
 21
145.800058
 31
0.0
  0
LINE
  5
150
100
AcDbEntity
  8
0
 62
     7
100
AcDbLine
 10
315.897342
 20
145.800058
 30
0.0
 11
308.91241
 21
145.800058
 31
0.0
  0
LINE
  5
14F
100
AcDbEntity
  8
0
 62
     7
100
AcDbLine
 10
308.91241
 20
145.800058
 30
0.0
 11
308.91241
 21
148.975058
 31
0.0
  0
LINE
  5
14E
100
AcDbEntity
  8
0
 62
     7
100
AcDbLine
 10
308.91241
 20
148.975058
 30
0.0
 11
301.927479
 21
148.975058
 31
0.0
  0
LINE
  5
14D
100
AcDbEntity
  8
0
 62
     7
100
AcDbLine
 10
301.927479
 20
148.975058
 30
0.0
 11
301.927479
 21
145.800058
 31
0.0
  0
LINE
  5
14C
100
AcDbEntity
  8
0
 62
     7
100
AcDbLine
 10
301.927479
 20
145.800058
 30
0.0
 11
294.942204
 21
145.800058
 31
0.0
  0
LINE
  5
14B
100
AcDbEntity
  8
0
 62
     7
100
AcDbLine
 10
294.942204
 20
145.800058
 30
0.0
 11
294.942204
 21
148.975058
 31
0.0
  0
LINE
  5
14A
100
AcDbEntity
  8
0
 62
     7
100
AcDbLine
 10
294.942204
 20
148.975058
 30
0.0
 11
287.957273
 21
148.975058
 31
0.0
  0
LINE
  5
149
100
AcDbEntity
  8
0
 62
     7
100
AcDbLine
 10
287.957273
 20
148.975058
 30
0.0
 11
287.957273
 21
139.450058
 31
0.0
  0
LINE
  5
148
100
AcDbEntity
  8
0
 62
     7
100
AcDbLine
 10
287.957273
 20
139.450058
 30
0.0
 11
291.132273
 21
139.450058
 31
0.0
  0
LINE
  5
147
100
AcDbEntity
  8
0
 62
     7
100
AcDbLine
 10
291.132273
 20
139.450058
 30
0.0
 11
291.132273
 21
129.925058
 31
0.0
  0
LINE
  5
146
100
AcDbEntity
  8
0
 62
     7
100
AcDbLine
 10
291.132273
 20
129.925058
 30
0.0
 11
287.957273
 21
129.925058
 31
0.0
  0
LINE
  5
145
100
AcDbEntity
  8
0
 62
     7
100
AcDbLine
 10
287.957273
 20
129.925058
 30
0.0
 11
287.957273
 21
123.575058
 31
0.0
  0
LINE
  5
144
100
AcDbEntity
  8
0
 62
     7
100
AcDbLine
 10
287.957273
 20
123.575058
 30
0.0
 11
291.132273
 21
123.575058
 31
0.0
  0
LINE
  5
143
100
AcDbEntity
  8
0
 62
     7
100
AcDbLine
 10
291.132273
 20
123.575058
 30
0.0
 11
291.132273
 21
117.225058
 31
0.0
  0
LINE
  5
142
100
AcDbEntity
  8
0
 62
     7
100
AcDbLine
 10
291.132273
 20
117.225058
 30
0.0
 11
287.957273
 21
117.225058
 31
0.0
  0
LINE
  5
141
100
AcDbEntity
  8
0
 62
     7
100
AcDbLine
 10
287.957273
 20
117.225058
 30
0.0
 11
287.957273
 21
110.875058
 31
0.0
  0
LINE
  5
140
100
AcDbEntity
  8
0
 62
     7
100
AcDbLine
 10
287.957273
 20
110.875058
 30
0.0
 11
291.132273
 21
110.875058
 31
0.0
  0
LINE
  5
13F
100
AcDbEntity
  8
0
 62
     7
100
AcDbLine
 10
291.132273
 20
110.875058
 30
0.0
 11
291.132273
 21
104.525058
 31
0.0
  0
LINE
  5
13E
100
AcDbEntity
  8
0
 62
     7
100
AcDbLine
 10
291.132273
 20
104.525058
 30
0.0
 11
287.957273
 21
104.525058
 31
0.0
  0
LINE
  5
13D
100
AcDbEntity
  8
0
 62
     7
100
AcDbLine
 10
287.957273
 20
104.525058
 30
0.0
 11
287.957273
 21
98.175058
 31
0.0
  0
LINE
  5
13C
100
AcDbEntity
  8
0
 62
     7
100
AcDbLine
 10
287.957273
 20
98.175058
 30
0.0
 11
291.132273
 21
98.175058
 31
0.0
  0
LINE
  5
13B
100
AcDbEntity
  8
0
 62
     7
100
AcDbLine
 10
291.132273
 20
98.175058
 30
0.0
 11
291.132273
 21
91.824886
 31
0.0
  0
LINE
  5
13A
100
AcDbEntity
  8
0
 62
     7
100
AcDbLine
 10
291.132273
 20
91.824886
 30
0.0
 11
287.957273
 21
91.824886
 31
0.0
  0
LINE
  5
139
100
AcDbEntity
  8
0
 62
     7
100
AcDbLine
 10
287.957273
 20
91.824886
 30
0.0
 11
287.957273
 21
85.474886
 31
0.0
  0
LINE
  5
138
100
AcDbEntity
  8
0
 62
     7
100
AcDbLine
 10
287.957273
 20
85.474886
 30
0.0
 11
291.132273
 21
85.474886
 31
0.0
  0
LINE
  5
137
100
AcDbEntity
  8
0
 62
     7
100
AcDbLine
 10
291.132273
 20
85.474886
 30
0.0
 11
291.132273
 21
79.124886
 31
0.0
  0
LINE
  5
136
100
AcDbEntity
  8
0
 62
     7
100
AcDbLine
 10
291.132273
 20
79.124886
 30
0.0
 11
287.957273
 21
79.124886
 31
0.0
  0
LINE
  5
135
100
AcDbEntity
  8
0
 62
     7
100
AcDbLine
 10
287.957273
 20
79.124886
 30
0.0
 11
287.957273
 21
72.774886
 31
0.0
  0
LINE
  5
134
100
AcDbEntity
  8
0
 62
     7
100
AcDbLine
 10
287.957273
 20
72.774886
 30
0.0
 11
291.132273
 21
72.774886
 31
0.0
  0
LINE
  5
133
100
AcDbEntity
  8
0
 62
     7
100
AcDbLine
 10
291.132273
 20
72.774886
 30
0.0
 11
291.132273
 21
66.424886
 31
0.0
  0
LINE
  5
132
100
AcDbEntity
  8
0
 62
     7
100
AcDbLine
 10
291.132273
 20
66.424886
 30
0.0
 11
287.957273
 21
66.424886
 31
0.0
  0
LINE
  5
131
100
AcDbEntity
  8
0
 62
     7
100
AcDbLine
 10
287.957273
 20
66.424886
 30
0.0
 11
287.957273
 21
60.074886
 31
0.0
  0
LINE
  5
130
100
AcDbEntity
  8
0
 62
     7
100
AcDbLine
 10
287.957273
 20
60.074886
 30
0.0
 11
291.132273
 21
60.074886
 31
0.0
  0
LINE
  5
12F
100
AcDbEntity
  8
0
 62
     7
100
AcDbLine
 10
291.132273
 20
60.074886
 30
0.0
 11
291.132273
 21
50.549886
 31
0.0
  0
LINE
  5
12E
100
AcDbEntity
  8
0
 62
     7
100
AcDbLine
 10
291.132273
 20
50.549886
 30
0.0
 11
287.957273
 21
50.549886
 31
0.0
  0
LINE
  5
12D
100
AcDbEntity
  8
0
 62
     7
100
AcDbLine
 10
287.957273
 20
50.549886
 30
0.0
 11
287.957273
 21
41.024886
 31
0.0
  0
LINE
  5
12C
100
AcDbEntity
  8
0
 62
     7
100
AcDbLine
 10
183.156779
 20
145.800058
 30
0.0
 11
189.506779
 21
145.800058
 31
0.0
  0
LINE
  5
12B
100
AcDbEntity
  8
0
 62
     7
100
AcDbLine
 10
189.506779
 20
145.800058
 30
0.0
 11
189.506779
 21
148.975058
 31
0.0
  0
LINE
  5
12A
100
AcDbEntity
  8
0
 62
     7
100
AcDbLine
 10
189.506779
 20
148.975058
 30
0.0
 11
199.031779
 21
148.975058
 31
0.0
  0
LINE
  5
129
100
AcDbEntity
  8
0
 62
     7
100
AcDbLine
 10
199.031779
 20
148.975058
 30
0.0
 11
199.031779
 21
145.800058
 31
0.0
  0
LINE
  5
128
100
AcDbEntity
  8
0
 62
     7
100
AcDbLine
 10
199.031779
 20
145.800058
 30
0.0
 11
205.381779
 21
145.800058
 31
0.0
  0
LINE
  5
127
100
AcDbEntity
  8
0
 62
     7
100
AcDbLine
 10
205.381779
 20
145.800058
 30
0.0
 11
205.381779
 21
148.975058
 31
0.0
  0
LINE
  5
126
100
AcDbEntity
  8
0
 62
     7
100
AcDbLine
 10
205.381779
 20
148.975058
 30
0.0
 11
211.731779
 21
148.975058
 31
0.0
  0
LINE
  5
125
100
AcDbEntity
  8
0
 62
     7
100
AcDbLine
 10
211.731779
 20
148.975058
 30
0.0
 11
211.731779
 21
145.800058
 31
0.0
  0
LINE
  5
124
100
AcDbEntity
  8
0
 62
     7
100
AcDbLine
 10
211.731779
 20
145.800058
 30
0.0
 11
218.081779
 21
145.800058
 31
0.0
  0
LINE
  5
123
100
AcDbEntity
  8
0
 62
     7
100
AcDbLine
 10
218.081779
 20
145.800058
 30
0.0
 11
218.081779
 21
148.975058
 31
0.0
  0
LINE
  5
122
100
AcDbEntity
  8
0
 62
     7
100
AcDbLine
 10
218.081779
 20
148.975058
 30
0.0
 11
224.431779
 21
148.975058
 31
0.0
  0
LINE
  5
121
100
AcDbEntity
  8
0
 62
     7
100
AcDbLine
 10
224.431779
 20
148.975058
 30
0.0
 11
224.431779
 21
145.800058
 31
0.0
  0
LINE
  5
120
100
AcDbEntity
  8
0
 62
     7
100
AcDbLine
 10
224.431779
 20
145.800058
 30
0.0
 11
230.781779
 21
145.800058
 31
0.0
  0
LINE
  5
11F
100
AcDbEntity
  8
0
 62
     7
100
AcDbLine
 10
230.781779
 20
145.800058
 30
0.0
 11
230.781779
 21
148.975058
 31
0.0
  0
LINE
  5
11E
100
AcDbEntity
  8
0
 62
     7
100
AcDbLine
 10
230.781779
 20
148.975058
 30
0.0
 11
237.131779
 21
148.975058
 31
0.0
  0
LINE
  5
11D
100
AcDbEntity
  8
0
 62
     7
100
AcDbLine
 10
237.131779
 20
148.975058
 30
0.0
 11
237.131779
 21
145.800058
 31
0.0
  0
LINE
  5
11C
100
AcDbEntity
  8
0
 62
     7
100
AcDbLine
 10
237.131779
 20
145.800058
 30
0.0
 11
243.481779
 21
145.800058
 31
0.0
  0
LINE
  5
11B
100
AcDbEntity
  8
0
 62
     7
100
AcDbLine
 10
243.481779
 20
145.800058
 30
0.0
 11
243.481779
 21
148.975058
 31
0.0
  0
LINE
  5
11A
100
AcDbEntity
  8
0
 62
     7
100
AcDbLine
 10
243.481779
 20
148.975058
 30
0.0
 11
249.831779
 21
148.975058
 31
0.0
  0
LINE
  5
119
100
AcDbEntity
  8
0
 62
     7
100
AcDbLine
 10
249.831779
 20
148.975058
 30
0.0
 11
249.831779
 21
145.800058
 31
0.0
  0
LINE
  5
118
100
AcDbEntity
  8
0
 62
     7
100
AcDbLine
 10
249.831779
 20
145.800058
 30
0.0
 11
256.181779
 21
145.800058
 31
0.0
  0
LINE
  5
117
100
AcDbEntity
  8
0
 62
     7
100
AcDbLine
 10
256.181779
 20
145.800058
 30
0.0
 11
256.181779
 21
148.975058
 31
0.0
  0
LINE
  5
116
100
AcDbEntity
  8
0
 62
     7
100
AcDbLine
 10
256.181779
 20
148.975058
 30
0.0
 11
262.531779
 21
148.975058
 31
0.0
  0
LINE
  5
115
100
AcDbEntity
  8
0
 62
     7
100
AcDbLine
 10
262.531779
 20
148.975058
 30
0.0
 11
262.531779
 21
145.800058
 31
0.0
  0
LINE
  5
114
100
AcDbEntity
  8
0
 62
     7
100
AcDbLine
 10
262.531779
 20
145.800058
 30
0.0
 11
268.881779
 21
145.800058
 31
0.0
  0
LINE
  5
113
100
AcDbEntity
  8
0
 62
     7
100
AcDbLine
 10
268.881779
 20
145.800058
 30
0.0
 11
268.881779
 21
148.975058
 31
0.0
  0
LINE
  5
112
100
AcDbEntity
  8
0
 62
     7
100
AcDbLine
 10
268.881779
 20
148.975058
 30
0.0
 11
278.406779
 21
148.975058
 31
0.0
  0
LINE
  5
111
100
AcDbEntity
  8
0
 62
     7
100
AcDbLine
 10
278.406779
 20
148.975058
 30
0.0
 11
278.406779
 21
145.800058
 31
0.0
  0
LINE
  5
110
100
AcDbEntity
  8
0
 62
     7
100
AcDbLine
 10
278.406779
 20
145.800058
 30
0.0
 11
284.756779
 21
145.800058
 31
0.0
  0
LINE
  5
10F
100
AcDbEntity
  8
0
 62
     7
100
AcDbLine
 10
284.756779
 20
145.800058
 30
0.0
 11
284.756779
 21
139.450058
 31
0.0
  0
LINE
  5
10E
100
AcDbEntity
  8
0
 62
     7
100
AcDbLine
 10
284.756779
 20
139.450058
 30
0.0
 11
287.931779
 21
139.450058
 31
0.0
  0
LINE
  5
10D
100
AcDbEntity
  8
0
 62
     7
100
AcDbLine
 10
287.931779
 20
139.450058
 30
0.0
 11
287.931779
 21
129.925058
 31
0.0
  0
LINE
  5
10C
100
AcDbEntity
  8
0
 62
     7
100
AcDbLine
 10
287.931779
 20
129.925058
 30
0.0
 11
284.756779
 21
129.925058
 31
0.0
  0
LINE
  5
10B
100
AcDbEntity
  8
0
 62
     7
100
AcDbLine
 10
284.756779
 20
129.925058
 30
0.0
 11
284.756779
 21
123.575058
 31
0.0
  0
LINE
  5
10A
100
AcDbEntity
  8
0
 62
     7
100
AcDbLine
 10
284.756779
 20
123.575058
 30
0.0
 11
287.931779
 21
123.575058
 31
0.0
  0
LINE
  5
109
100
AcDbEntity
  8
0
 62
     7
100
AcDbLine
 10
287.931779
 20
123.575058
 30
0.0
 11
287.931779
 21
117.225058
 31
0.0
  0
LINE
  5
108
100
AcDbEntity
  8
0
 62
     7
100
AcDbLine
 10
287.931779
 20
117.225058
 30
0.0
 11
284.756779
 21
117.225058
 31
0.0
  0
LINE
  5
107
100
AcDbEntity
  8
0
 62
     7
100
AcDbLine
 10
284.756779
 20
117.225058
 30
0.0
 11
284.756779
 21
110.875058
 31
0.0
  0
LINE
  5
106
100
AcDbEntity
  8
0
 62
     7
100
AcDbLine
 10
284.756779
 20
110.875058
 30
0.0
 11
287.931779
 21
110.875058
 31
0.0
  0
LINE
  5
105
100
AcDbEntity
  8
0
 62
     7
100
AcDbLine
 10
287.931779
 20
110.875058
 30
0.0
 11
287.931779
 21
104.525058
 31
0.0
  0
LINE
  5
104
100
AcDbEntity
  8
0
 62
     7
100
AcDbLine
 10
287.931779
 20
104.525058
 30
0.0
 11
284.756779
 21
104.525058
 31
0.0
  0
LINE
  5
103
100
AcDbEntity
  8
0
 62
     7
100
AcDbLine
 10
284.756779
 20
104.525058
 30
0.0
 11
284.756779
 21
98.175058
 31
0.0
  0
LINE
  5
102
100
AcDbEntity
  8
0
 62
     7
100
AcDbLine
 10
284.756779
 20
98.175058
 30
0.0
 11
287.931779
 21
98.175058
 31
0.0
  0
LINE
  5
101
100
AcDbEntity
  8
0
 62
     7
100
AcDbLine
 10
287.931779
 20
98.175058
 30
0.0
 11
287.931779
 21
91.824886
 31
0.0
  0
LINE
  5
100
100
AcDbEntity
  8
0
 62
     7
100
AcDbLine
 10
287.931779
 20
91.824886
 30
0.0
 11
284.756779
 21
91.824886
 31
0.0
  0
LINE
  5
FF
100
AcDbEntity
  8
0
 62
     7
100
AcDbLine
 10
284.756779
 20
91.824886
 30
0.0
 11
284.756779
 21
85.474886
 31
0.0
  0
LINE
  5
FE
100
AcDbEntity
  8
0
 62
     7
100
AcDbLine
 10
284.756779
 20
85.474886
 30
0.0
 11
287.931779
 21
85.474886
 31
0.0
  0
LINE
  5
FD
100
AcDbEntity
  8
0
 62
     7
100
AcDbLine
 10
287.931779
 20
85.474886
 30
0.0
 11
287.931779
 21
79.124886
 31
0.0
  0
LINE
  5
FC
100
AcDbEntity
  8
0
 62
     7
100
AcDbLine
 10
287.931779
 20
79.124886
 30
0.0
 11
284.756779
 21
79.124886
 31
0.0
  0
LINE
  5
FB
100
AcDbEntity
  8
0
 62
     7
100
AcDbLine
 10
284.756779
 20
79.124886
 30
0.0
 11
284.756779
 21
72.774886
 31
0.0
  0
LINE
  5
FA
100
AcDbEntity
  8
0
 62
     7
100
AcDbLine
 10
284.756779
 20
72.774886
 30
0.0
 11
287.931779
 21
72.774886
 31
0.0
  0
LINE
  5
F9
100
AcDbEntity
  8
0
 62
     7
100
AcDbLine
 10
287.931779
 20
72.774886
 30
0.0
 11
287.931779
 21
66.424886
 31
0.0
  0
LINE
  5
F8
100
AcDbEntity
  8
0
 62
     7
100
AcDbLine
 10
287.931779
 20
66.424886
 30
0.0
 11
284.756779
 21
66.424886
 31
0.0
  0
LINE
  5
F7
100
AcDbEntity
  8
0
 62
     7
100
AcDbLine
 10
284.756779
 20
66.424886
 30
0.0
 11
284.756779
 21
60.074886
 31
0.0
  0
LINE
  5
F6
100
AcDbEntity
  8
0
 62
     7
100
AcDbLine
 10
284.756779
 20
60.074886
 30
0.0
 11
287.931779
 21
60.074886
 31
0.0
  0
LINE
  5
F5
100
AcDbEntity
  8
0
 62
     7
100
AcDbLine
 10
287.931779
 20
60.074886
 30
0.0
 11
287.931779
 21
50.549886
 31
0.0
  0
LINE
  5
F4
100
AcDbEntity
  8
0
 62
     7
100
AcDbLine
 10
287.931779
 20
50.549886
 30
0.0
 11
284.756779
 21
50.549886
 31
0.0
  0
LINE
  5
F3
100
AcDbEntity
  8
0
 62
     7
100
AcDbLine
 10
284.756779
 20
50.549886
 30
0.0
 11
284.756779
 21
44.199886
 31
0.0
  0
LINE
  5
F2
100
AcDbEntity
  8
0
 62
     7
100
AcDbLine
 10
284.756779
 20
44.199886
 30
0.0
 11
278.406779
 21
44.199886
 31
0.0
  0
LINE
  5
F1
100
AcDbEntity
  8
0
 62
     7
100
AcDbLine
 10
278.406779
 20
44.199886
 30
0.0
 11
278.406779
 21
41.024886
 31
0.0
  0
LINE
  5
F0
100
AcDbEntity
  8
0
 62
     7
100
AcDbLine
 10
278.406779
 20
41.024886
 30
0.0
 11
268.881779
 21
41.024886
 31
0.0
  0
LINE
  5
EF
100
AcDbEntity
  8
0
 62
     7
100
AcDbLine
 10
268.881779
 20
41.024886
 30
0.0
 11
268.881779
 21
44.199886
 31
0.0
  0
LINE
  5
EE
100
AcDbEntity
  8
0
 62
     7
100
AcDbLine
 10
268.881779
 20
44.199886
 30
0.0
 11
262.531779
 21
44.199886
 31
0.0
  0
LINE
  5
ED
100
AcDbEntity
  8
0
 62
     7
100
AcDbLine
 10
262.531779
 20
44.199886
 30
0.0
 11
262.531779
 21
41.024886
 31
0.0
  0
LINE
  5
EC
100
AcDbEntity
  8
0
 62
     7
100
AcDbLine
 10
262.531779
 20
41.024886
 30
0.0
 11
256.181779
 21
41.024886
 31
0.0
  0
LINE
  5
EB
100
AcDbEntity
  8
0
 62
     7
100
AcDbLine
 10
256.181779
 20
41.024886
 30
0.0
 11
256.181779
 21
44.199886
 31
0.0
  0
LINE
  5
EA
100
AcDbEntity
  8
0
 62
     7
100
AcDbLine
 10
256.181779
 20
44.199886
 30
0.0
 11
249.831779
 21
44.199886
 31
0.0
  0
LINE
  5
E9
100
AcDbEntity
  8
0
 62
     7
100
AcDbLine
 10
249.831779
 20
44.199886
 30
0.0
 11
249.831779
 21
41.024886
 31
0.0
  0
LINE
  5
E8
100
AcDbEntity
  8
0
 62
     7
100
AcDbLine
 10
249.831779
 20
41.024886
 30
0.0
 11
243.481779
 21
41.024886
 31
0.0
  0
LINE
  5
E7
100
AcDbEntity
  8
0
 62
     7
100
AcDbLine
 10
243.481779
 20
41.024886
 30
0.0
 11
243.481779
 21
44.199886
 31
0.0
  0
LINE
  5
E6
100
AcDbEntity
  8
0
 62
     7
100
AcDbLine
 10
243.481779
 20
44.199886
 30
0.0
 11
237.131779
 21
44.199886
 31
0.0
  0
LINE
  5
E5
100
AcDbEntity
  8
0
 62
     7
100
AcDbLine
 10
237.131779
 20
44.199886
 30
0.0
 11
237.131779
 21
41.024886
 31
0.0
  0
LINE
  5
E4
100
AcDbEntity
  8
0
 62
     7
100
AcDbLine
 10
237.131779
 20
41.024886
 30
0.0
 11
230.781779
 21
41.024886
 31
0.0
  0
LINE
  5
E3
100
AcDbEntity
  8
0
 62
     7
100
AcDbLine
 10
230.781779
 20
41.024886
 30
0.0
 11
230.781779
 21
44.199886
 31
0.0
  0
LINE
  5
E2
100
AcDbEntity
  8
0
 62
     7
100
AcDbLine
 10
230.781779
 20
44.199886
 30
0.0
 11
224.431779
 21
44.199886
 31
0.0
  0
LINE
  5
E1
100
AcDbEntity
  8
0
 62
     7
100
AcDbLine
 10
224.431779
 20
44.199886
 30
0.0
 11
224.431779
 21
41.024886
 31
0.0
  0
LINE
  5
E0
100
AcDbEntity
  8
0
 62
     7
100
AcDbLine
 10
224.431779
 20
41.024886
 30
0.0
 11
218.081779
 21
41.024886
 31
0.0
  0
LINE
  5
DF
100
AcDbEntity
  8
0
 62
     7
100
AcDbLine
 10
218.081779
 20
41.024886
 30
0.0
 11
218.081779
 21
44.199886
 31
0.0
  0
LINE
  5
DE
100
AcDbEntity
  8
0
 62
     7
100
AcDbLine
 10
218.081779
 20
44.199886
 30
0.0
 11
211.731779
 21
44.199886
 31
0.0
  0
LINE
  5
DD
100
AcDbEntity
  8
0
 62
     7
100
AcDbLine
 10
211.731779
 20
44.199886
 30
0.0
 11
211.731779
 21
41.024886
 31
0.0
  0
LINE
  5
DC
100
AcDbEntity
  8
0
 62
     7
100
AcDbLine
 10
211.731779
 20
41.024886
 30
0.0
 11
205.381779
 21
41.024886
 31
0.0
  0
LINE
  5
DB
100
AcDbEntity
  8
0
 62
     7
100
AcDbLine
 10
205.381779
 20
41.024886
 30
0.0
 11
205.381779
 21
44.199886
 31
0.0
  0
LINE
  5
DA
100
AcDbEntity
  8
0
 62
     7
100
AcDbLine
 10
205.381779
 20
44.199886
 30
0.0
 11
199.031779
 21
44.199886
 31
0.0
  0
LINE
  5
D9
100
AcDbEntity
  8
0
 62
     7
100
AcDbLine
 10
199.031779
 20
44.199886
 30
0.0
 11
199.031779
 21
41.024886
 31
0.0
  0
LINE
  5
D8
100
AcDbEntity
  8
0
 62
     7
100
AcDbLine
 10
199.031779
 20
41.024886
 30
0.0
 11
189.506779
 21
41.024886
 31
0.0
  0
LINE
  5
D7
100
AcDbEntity
  8
0
 62
     7
100
AcDbLine
 10
189.506779
 20
41.024886
 30
0.0
 11
189.506779
 21
44.199886
 31
0.0
  0
LINE
  5
D6
100
AcDbEntity
  8
0
 62
     7
100
AcDbLine
 10
189.506779
 20
44.199886
 30
0.0
 11
183.156779
 21
44.199886
 31
0.0
  0
LINE
  5
D5
100
AcDbEntity
  8
0
 62
     7
100
AcDbLine
 10
183.156779
 20
44.199886
 30
0.0
 11
183.156779
 21
50.549886
 31
0.0
  0
LINE
  5
D4
100
AcDbEntity
  8
0
 62
     7
100
AcDbLine
 10
183.156779
 20
50.549886
 30
0.0
 11
179.981779
 21
50.549886
 31
0.0
  0
LINE
  5
D3
100
AcDbEntity
  8
0
 62
     7
100
AcDbLine
 10
179.981779
 20
50.549886
 30
0.0
 11
179.981779
 21
60.074886
 31
0.0
  0
LINE
  5
D2
100
AcDbEntity
  8
0
 62
     7
100
AcDbLine
 10
179.981779
 20
60.074886
 30
0.0
 11
183.156779
 21
60.074886
 31
0.0
  0
LINE
  5
D1
100
AcDbEntity
  8
0
 62
     7
100
AcDbLine
 10
183.156779
 20
60.074886
 30
0.0
 11
183.156779
 21
66.424886
 31
0.0
  0
LINE
  5
D0
100
AcDbEntity
  8
0
 62
     7
100
AcDbLine
 10
183.156779
 20
66.424886
 30
0.0
 11
179.981779
 21
66.424886
 31
0.0
  0
LINE
  5
CF
100
AcDbEntity
  8
0
 62
     7
100
AcDbLine
 10
179.981779
 20
66.424886
 30
0.0
 11
179.981779
 21
72.774886
 31
0.0
  0
LINE
  5
CE
100
AcDbEntity
  8
0
 62
     7
100
AcDbLine
 10
179.981779
 20
72.774886
 30
0.0
 11
183.156779
 21
72.774886
 31
0.0
  0
LINE
  5
CD
100
AcDbEntity
  8
0
 62
     7
100
AcDbLine
 10
183.156779
 20
72.774886
 30
0.0
 11
183.156779
 21
79.124886
 31
0.0
  0
LINE
  5
CC
100
AcDbEntity
  8
0
 62
     7
100
AcDbLine
 10
183.156779
 20
79.124886
 30
0.0
 11
179.981779
 21
79.124886
 31
0.0
  0
LINE
  5
CB
100
AcDbEntity
  8
0
 62
     7
100
AcDbLine
 10
179.981779
 20
79.124886
 30
0.0
 11
179.981779
 21
85.474886
 31
0.0
  0
LINE
  5
CA
100
AcDbEntity
  8
0
 62
     7
100
AcDbLine
 10
179.981779
 20
85.474886
 30
0.0
 11
183.156779
 21
85.474886
 31
0.0
  0
LINE
  5
C9
100
AcDbEntity
  8
0
 62
     7
100
AcDbLine
 10
183.156779
 20
85.474886
 30
0.0
 11
183.156779
 21
91.824886
 31
0.0
  0
LINE
  5
C8
100
AcDbEntity
  8
0
 62
     7
100
AcDbLine
 10
183.156779
 20
91.824886
 30
0.0
 11
179.981779
 21
91.824886
 31
0.0
  0
LINE
  5
C7
100
AcDbEntity
  8
0
 62
     7
100
AcDbLine
 10
179.981779
 20
91.824886
 30
0.0
 11
179.981779
 21
98.175058
 31
0.0
  0
LINE
  5
C6
100
AcDbEntity
  8
0
 62
     7
100
AcDbLine
 10
179.981779
 20
98.175058
 30
0.0
 11
183.156779
 21
98.175058
 31
0.0
  0
LINE
  5
C5
100
AcDbEntity
  8
0
 62
     7
100
AcDbLine
 10
183.156779
 20
98.175058
 30
0.0
 11
183.156779
 21
104.525058
 31
0.0
  0
LINE
  5
C4
100
AcDbEntity
  8
0
 62
     7
100
AcDbLine
 10
183.156779
 20
104.525058
 30
0.0
 11
179.981779
 21
104.525058
 31
0.0
  0
LINE
  5
C3
100
AcDbEntity
  8
0
 62
     7
100
AcDbLine
 10
179.981779
 20
104.525058
 30
0.0
 11
179.981779
 21
110.875058
 31
0.0
  0
LINE
  5
C2
100
AcDbEntity
  8
0
 62
     7
100
AcDbLine
 10
179.981779
 20
110.875058
 30
0.0
 11
183.156779
 21
110.875058
 31
0.0
  0
LINE
  5
C1
100
AcDbEntity
  8
0
 62
     7
100
AcDbLine
 10
183.156779
 20
110.875058
 30
0.0
 11
183.156779
 21
117.225058
 31
0.0
  0
LINE
  5
C0
100
AcDbEntity
  8
0
 62
     7
100
AcDbLine
 10
183.156779
 20
117.225058
 30
0.0
 11
179.981779
 21
117.225058
 31
0.0
  0
LINE
  5
BF
100
AcDbEntity
  8
0
 62
     7
100
AcDbLine
 10
179.981779
 20
117.225058
 30
0.0
 11
179.981779
 21
123.575058
 31
0.0
  0
LINE
  5
BE
100
AcDbEntity
  8
0
 62
     7
100
AcDbLine
 10
179.981779
 20
123.575058
 30
0.0
 11
183.156779
 21
123.575058
 31
0.0
  0
LINE
  5
BD
100
AcDbEntity
  8
0
 62
     7
100
AcDbLine
 10
183.156779
 20
123.575058
 30
0.0
 11
183.156779
 21
129.925058
 31
0.0
  0
LINE
  5
BC
100
AcDbEntity
  8
0
 62
     7
100
AcDbLine
 10
183.156779
 20
129.925058
 30
0.0
 11
179.981779
 21
129.925058
 31
0.0
  0
LINE
  5
BB
100
AcDbEntity
  8
0
 62
     7
100
AcDbLine
 10
179.981779
 20
129.925058
 30
0.0
 11
179.981779
 21
139.450058
 31
0.0
  0
LINE
  5
BA
100
AcDbEntity
  8
0
 62
     7
100
AcDbLine
 10
179.981779
 20
139.450058
 30
0.0
 11
183.156779
 21
139.450058
 31
0.0
  0
LINE
  5
B9
100
AcDbEntity
  8
0
 62
     7
100
AcDbLine
 10
183.156779
 20
139.450058
 30
0.0
 11
183.156779
 21
145.800058
 31
0.0
  0
LINE
  5
B8
100
AcDbEntity
  8
0
 62
     7
100
AcDbLine
 10
351.476221
 20
148.975058
 30
0.0
 11
344.490945
 21
148.975058
 31
0.0
  0
LINE
  5
B7
100
AcDbEntity
  8
0
 62
     7
100
AcDbLine
 10
344.490945
 20
148.975058
 30
0.0
 11
344.490945
 21
145.800058
 31
0.0
  0
LINE
  5
B6
100
AcDbEntity
  8
0
 62
     7
100
AcDbLine
 10
344.490945
 20
145.800058
 30
0.0
 11
337.506014
 21
145.800058
 31
0.0
  0
LINE
  5
B5
100
AcDbEntity
  8
0
 62
     7
100
AcDbLine
 10
337.506014
 20
145.800058
 30
0.0
 11
337.506014
 21
148.975058
 31
0.0
  0
LINE
  5
B4
100
AcDbEntity
  8
0
 62
     7
100
AcDbLine
 10
337.506014
 20
148.975058
 30
0.0
 11
330.521083
 21
148.975058
 31
0.0
  0
LINE
  5
B3
100
AcDbEntity
  8
0
 62
     7
100
AcDbLine
 10
330.521083
 20
148.975058
 30
0.0
 11
330.521083
 21
145.800058
 31
0.0
  0
LINE
  5
B2
100
AcDbEntity
  8
0
 62
     7
100
AcDbLine
 10
330.521083
 20
145.800058
 30
0.0
 11
323.536152
 21
145.800058
 31
0.0
  0
LINE
  5
B1
100
AcDbEntity
  8
0
 62
     7
100
AcDbLine
 10
323.536152
 20
145.800058
 30
0.0
 11
323.536152
 21
148.975058
 31
0.0
  0
LINE
  5
B0
100
AcDbEntity
  8
0
 62
     7
100
AcDbLine
 10
323.536152
 20
148.975058
 30
0.0
 11
319.729321
 21
148.975058
 31
0.0
  0
LINE
  5
AF
100
AcDbEntity
  8
0
 62
     7
100
AcDbLine
 10
319.729321
 20
148.975058
 30
0.0
 11
319.729321
 21
41.024886
 31
0.0
  0
LINE
  5
AE
100
AcDbEntity
  8
0
 62
     7
100
AcDbLine
 10
319.729321
 20
41.024886
 30
0.0
 11
323.536152
 21
41.024886
 31
0.0
  0
LINE
  5
AD
100
AcDbEntity
  8
0
 62
     7
100
AcDbLine
 10
323.536152
 20
41.024886
 30
0.0
 11
323.536152
 21
44.199886
 31
0.0
  0
LINE
  5
AC
100
AcDbEntity
  8
0
 62
     7
100
AcDbLine
 10
323.536152
 20
44.199886
 30
0.0
 11
330.521083
 21
44.199886
 31
0.0
  0
LINE
  5
AB
100
AcDbEntity
  8
0
 62
     7
100
AcDbLine
 10
330.521083
 20
44.199886
 30
0.0
 11
330.521083
 21
41.024886
 31
0.0
  0
LINE
  5
AA
100
AcDbEntity
  8
0
 62
     7
100
AcDbLine
 10
330.521083
 20
41.024886
 30
0.0
 11
337.506014
 21
41.024886
 31
0.0
  0
LINE
  5
A9
100
AcDbEntity
  8
0
 62
     7
100
AcDbLine
 10
337.506014
 20
41.024886
 30
0.0
 11
337.506014
 21
44.199886
 31
0.0
  0
LINE
  5
A8
100
AcDbEntity
  8
0
 62
     7
100
AcDbLine
 10
337.506014
 20
44.199886
 30
0.0
 11
344.490945
 21
44.199886
 31
0.0
  0
LINE
  5
A7
100
AcDbEntity
  8
0
 62
     7
100
AcDbLine
 10
344.490945
 20
44.199886
 30
0.0
 11
344.490945
 21
41.024886
 31
0.0
  0
LINE
  5
A6
100
AcDbEntity
  8
0
 62
     7
100
AcDbLine
 10
344.490945
 20
41.024886
 30
0.0
 11
351.476221
 21
41.024886
 31
0.0
  0
LINE
  5
A5
100
AcDbEntity
  8
0
 62
     7
100
AcDbLine
 10
351.476221
 20
41.024886
 30
0.0
 11
351.476221
 21
50.549886
 31
0.0
  0
LINE
  5
A4
100
AcDbEntity
  8
0
 62
     7
100
AcDbLine
 10
351.476221
 20
50.549886
 30
0.0
 11
348.301221
 21
50.549886
 31
0.0
  0
LINE
  5
A3
100
AcDbEntity
  8
0
 62
     7
100
AcDbLine
 10
348.301221
 20
50.549886
 30
0.0
 11
348.301221
 21
60.074886
 31
0.0
  0
LINE
  5
A2
100
AcDbEntity
  8
0
 62
     7
100
AcDbLine
 10
348.301221
 20
60.074886
 30
0.0
 11
351.476221
 21
60.074886
 31
0.0
  0
LINE
  5
A1
100
AcDbEntity
  8
0
 62
     7
100
AcDbLine
 10
351.476221
 20
60.074886
 30
0.0
 11
351.476221
 21
66.424886
 31
0.0
  0
LINE
  5
A0
100
AcDbEntity
  8
0
 62
     7
100
AcDbLine
 10
351.476221
 20
66.424886
 30
0.0
 11
348.301221
 21
66.424886
 31
0.0
  0
LINE
  5
9F
100
AcDbEntity
  8
0
 62
     7
100
AcDbLine
 10
348.301221
 20
66.424886
 30
0.0
 11
348.301221
 21
72.774886
 31
0.0
  0
LINE
  5
9E
100
AcDbEntity
  8
0
 62
     7
100
AcDbLine
 10
348.301221
 20
72.774886
 30
0.0
 11
351.476221
 21
72.774886
 31
0.0
  0
LINE
  5
9D
100
AcDbEntity
  8
0
 62
     7
100
AcDbLine
 10
351.476221
 20
72.774886
 30
0.0
 11
351.476221
 21
79.124886
 31
0.0
  0
LINE
  5
9C
100
AcDbEntity
  8
0
 62
     7
100
AcDbLine
 10
351.476221
 20
79.124886
 30
0.0
 11
348.301221
 21
79.124886
 31
0.0
  0
LINE
  5
9B
100
AcDbEntity
  8
0
 62
     7
100
AcDbLine
 10
348.301221
 20
79.124886
 30
0.0
 11
348.301221
 21
85.474886
 31
0.0
  0
LINE
  5
9A
100
AcDbEntity
  8
0
 62
     7
100
AcDbLine
 10
348.301221
 20
85.474886
 30
0.0
 11
351.476221
 21
85.474886
 31
0.0
  0
LINE
  5
99
100
AcDbEntity
  8
0
 62
     7
100
AcDbLine
 10
351.476221
 20
85.474886
 30
0.0
 11
351.476221
 21
91.824886
 31
0.0
  0
LINE
  5
98
100
AcDbEntity
  8
0
 62
     7
100
AcDbLine
 10
351.476221
 20
91.824886
 30
0.0
 11
348.301221
 21
91.824886
 31
0.0
  0
LINE
  5
97
100
AcDbEntity
  8
0
 62
     7
100
AcDbLine
 10
348.301221
 20
91.824886
 30
0.0
 11
348.301221
 21
98.175058
 31
0.0
  0
LINE
  5
96
100
AcDbEntity
  8
0
 62
     7
100
AcDbLine
 10
348.301221
 20
98.175058
 30
0.0
 11
351.476221
 21
98.175058
 31
0.0
  0
LINE
  5
95
100
AcDbEntity
  8
0
 62
     7
100
AcDbLine
 10
351.476221
 20
98.175058
 30
0.0
 11
351.476221
 21
104.525058
 31
0.0
  0
LINE
  5
94
100
AcDbEntity
  8
0
 62
     7
100
AcDbLine
 10
351.476221
 20
104.525058
 30
0.0
 11
348.301221
 21
104.525058
 31
0.0
  0
LINE
  5
93
100
AcDbEntity
  8
0
 62
     7
100
AcDbLine
 10
348.301221
 20
104.525058
 30
0.0
 11
348.301221
 21
110.875058
 31
0.0
  0
LINE
  5
92
100
AcDbEntity
  8
0
 62
     7
100
AcDbLine
 10
348.301221
 20
110.875058
 30
0.0
 11
351.476221
 21
110.875058
 31
0.0
  0
LINE
  5
91
100
AcDbEntity
  8
0
 62
     7
100
AcDbLine
 10
351.476221
 20
110.875058
 30
0.0
 11
351.476221
 21
117.225058
 31
0.0
  0
LINE
  5
90
100
AcDbEntity
  8
0
 62
     7
100
AcDbLine
 10
351.476221
 20
117.225058
 30
0.0
 11
348.301221
 21
117.225058
 31
0.0
  0
LINE
  5
8F
100
AcDbEntity
  8
0
 62
     7
100
AcDbLine
 10
348.301221
 20
117.225058
 30
0.0
 11
348.301221
 21
123.575058
 31
0.0
  0
LINE
  5
8E
100
AcDbEntity
  8
0
 62
     7
100
AcDbLine
 10
348.301221
 20
123.575058
 30
0.0
 11
351.476221
 21
123.575058
 31
0.0
  0
LINE
  5
8D
100
AcDbEntity
  8
0
 62
     7
100
AcDbLine
 10
351.476221
 20
123.575058
 30
0.0
 11
351.476221
 21
129.925058
 31
0.0
  0
LINE
  5
8C
100
AcDbEntity
  8
0
 62
     7
100
AcDbLine
 10
351.476221
 20
129.925058
 30
0.0
 11
348.301221
 21
129.925058
 31
0.0
  0
LINE
  5
8B
100
AcDbEntity
  8
0
 62
     7
100
AcDbLine
 10
348.301221
 20
129.925058
 30
0.0
 11
348.301221
 21
139.450058
 31
0.0
  0
LINE
  5
8A
100
AcDbEntity
  8
0
 62
     7
100
AcDbLine
 10
348.301221
 20
139.450058
 30
0.0
 11
351.476221
 21
139.450058
 31
0.0
  0
LINE
  5
89
100
AcDbEntity
  8
0
 62
     7
100
AcDbLine
 10
351.476221
 20
139.450058
 30
0.0
 11
351.476221
 21
148.975058
 31
0.0
  0
LINE
  5
88
100
AcDbEntity
  8
0
 62
     7
100
AcDbLine
 10
351.50137
 20
44.199886
 30
0.0
 11
358.486646
 21
44.199886
 31
0.0
  0
LINE
  5
87
100
AcDbEntity
  8
0
 62
     7
100
AcDbLine
 10
358.486646
 20
44.199886
 30
0.0
 11
358.486646
 21
41.024886
 31
0.0
  0
LINE
  5
86
100
AcDbEntity
  8
0
 62
     7
100
AcDbLine
 10
358.486646
 20
41.024886
 30
0.0
 11
365.471577
 21
41.024886
 31
0.0
  0
LINE
  5
85
100
AcDbEntity
  8
0
 62
     7
100
AcDbLine
 10
365.471577
 20
41.024886
 30
0.0
 11
365.471577
 21
44.199886
 31
0.0
  0
LINE
  5
84
100
AcDbEntity
  8
0
 62
     7
100
AcDbLine
 10
365.471577
 20
44.199886
 30
0.0
 11
372.456508
 21
44.199886
 31
0.0
  0
LINE
  5
83
100
AcDbEntity
  8
0
 62
     7
100
AcDbLine
 10
372.456508
 20
44.199886
 30
0.0
 11
372.456508
 21
41.024886
 31
0.0
  0
LINE
  5
82
100
AcDbEntity
  8
0
 62
     7
100
AcDbLine
 10
372.456508
 20
41.024886
 30
0.0
 11
379.441439
 21
41.024886
 31
0.0
  0
LINE
  5
81
100
AcDbEntity
  8
0
 62
     7
100
AcDbLine
 10
379.441439
 20
41.024886
 30
0.0
 11
379.441439
 21
44.199886
 31
0.0
  0
LINE
  5
80
100
AcDbEntity
  8
0
 62
     7
100
AcDbLine
 10
379.441439
 20
44.199886
 30
0.0
 11
383.247236
 21
44.199886
 31
0.0
  0
LINE
  5
7F
100
AcDbEntity
  8
0
 62
     7
100
AcDbLine
 10
383.247236
 20
44.199886
 30
0.0
 11
383.247236
 21
145.800058
 31
0.0
  0
LINE
  5
7E
100
AcDbEntity
  8
0
 62
     7
100
AcDbLine
 10
383.247236
 20
145.800058
 30
0.0
 11
379.441439
 21
145.800058
 31
0.0
  0
LINE
  5
7D
100
AcDbEntity
  8
0
 62
     7
100
AcDbLine
 10
379.441439
 20
145.800058
 30
0.0
 11
379.441439
 21
148.975058
 31
0.0
  0
LINE
  5
7C
100
AcDbEntity
  8
0
 62
     7
100
AcDbLine
 10
379.441439
 20
148.975058
 30
0.0
 11
372.456508
 21
148.975058
 31
0.0
  0
LINE
  5
7B
100
AcDbEntity
  8
0
 62
     7
100
AcDbLine
 10
372.456508
 20
148.975058
 30
0.0
 11
372.456508
 21
145.800058
 31
0.0
  0
LINE
  5
7A
100
AcDbEntity
  8
0
 62
     7
100
AcDbLine
 10
372.456508
 20
145.800058
 30
0.0
 11
365.471577
 21
145.800058
 31
0.0
  0
LINE
  5
79
100
AcDbEntity
  8
0
 62
     7
100
AcDbLine
 10
365.471577
 20
145.800058
 30
0.0
 11
365.471577
 21
148.975058
 31
0.0
  0
LINE
  5
78
100
AcDbEntity
  8
0
 62
     7
100
AcDbLine
 10
365.471577
 20
148.975058
 30
0.0
 11
358.486646
 21
148.975058
 31
0.0
  0
LINE
  5
77
100
AcDbEntity
  8
0
 62
     7
100
AcDbLine
 10
358.486646
 20
148.975058
 30
0.0
 11
358.486646
 21
145.800058
 31
0.0
  0
LINE
  5
76
100
AcDbEntity
  8
0
 62
     7
100
AcDbLine
 10
358.486646
 20
145.800058
 30
0.0
 11
351.50137
 21
145.800058
 31
0.0
  0
LINE
  5
75
100
AcDbEntity
  8
0
 62
     7
100
AcDbLine
 10
351.50137
 20
145.800058
 30
0.0
 11
351.50137
 21
139.450058
 31
0.0
  0
LINE
  5
74
100
AcDbEntity
  8
0
 62
     7
100
AcDbLine
 10
351.50137
 20
139.450058
 30
0.0
 11
354.67637
 21
139.450058
 31
0.0
  0
LINE
  5
73
100
AcDbEntity
  8
0
 62
     7
100
AcDbLine
 10
354.67637
 20
139.450058
 30
0.0
 11
354.67637
 21
129.925058
 31
0.0
  0
LINE
  5
72
100
AcDbEntity
  8
0
 62
     7
100
AcDbLine
 10
354.67637
 20
129.925058
 30
0.0
 11
351.50137
 21
129.925058
 31
0.0
  0
LINE
  5
71
100
AcDbEntity
  8
0
 62
     7
100
AcDbLine
 10
351.50137
 20
129.925058
 30
0.0
 11
351.50137
 21
123.575058
 31
0.0
  0
LINE
  5
70
100
AcDbEntity
  8
0
 62
     7
100
AcDbLine
 10
351.50137
 20
123.575058
 30
0.0
 11
354.67637
 21
123.575058
 31
0.0
  0
LINE
  5
6F
100
AcDbEntity
  8
0
 62
     7
100
AcDbLine
 10
354.67637
 20
123.575058
 30
0.0
 11
354.67637
 21
117.225058
 31
0.0
  0
LINE
  5
6E
100
AcDbEntity
  8
0
 62
     7
100
AcDbLine
 10
354.67637
 20
117.225058
 30
0.0
 11
351.50137
 21
117.225058
 31
0.0
  0
LINE
  5
6D
100
AcDbEntity
  8
0
 62
     7
100
AcDbLine
 10
351.50137
 20
117.225058
 30
0.0
 11
351.50137
 21
110.875058
 31
0.0
  0
LINE
  5
6C
100
AcDbEntity
  8
0
 62
     7
100
AcDbLine
 10
351.50137
 20
110.875058
 30
0.0
 11
354.67637
 21
110.875058
 31
0.0
  0
LINE
  5
6B
100
AcDbEntity
  8
0
 62
     7
100
AcDbLine
 10
354.67637
 20
110.875058
 30
0.0
 11
354.67637
 21
104.525058
 31
0.0
  0
LINE
  5
6A
100
AcDbEntity
  8
0
 62
     7
100
AcDbLine
 10
354.67637
 20
104.525058
 30
0.0
 11
351.50137
 21
104.525058
 31
0.0
  0
LINE
  5
69
100
AcDbEntity
  8
0
 62
     7
100
AcDbLine
 10
351.50137
 20
104.525058
 30
0.0
 11
351.50137
 21
98.175058
 31
0.0
  0
LINE
  5
68
100
AcDbEntity
  8
0
 62
     7
100
AcDbLine
 10
351.50137
 20
98.175058
 30
0.0
 11
354.67637
 21
98.175058
 31
0.0
  0
LINE
  5
67
100
AcDbEntity
  8
0
 62
     7
100
AcDbLine
 10
354.67637
 20
98.175058
 30
0.0
 11
354.67637
 21
91.824886
 31
0.0
  0
LINE
  5
66
100
AcDbEntity
  8
0
 62
     7
100
AcDbLine
 10
354.67637
 20
91.824886
 30
0.0
 11
351.50137
 21
91.824886
 31
0.0
  0
LINE
  5
65
100
AcDbEntity
  8
0
 62
     7
100
AcDbLine
 10
351.50137
 20
91.824886
 30
0.0
 11
351.50137
 21
85.474886
 31
0.0
  0
LINE
  5
64
100
AcDbEntity
  8
0
 62
     7
100
AcDbLine
 10
351.50137
 20
85.474886
 30
0.0
 11
354.67637
 21
85.474886
 31
0.0
  0
LINE
  5
63
100
AcDbEntity
  8
0
 62
     7
100
AcDbLine
 10
354.67637
 20
85.474886
 30
0.0
 11
354.67637
 21
79.124886
 31
0.0
  0
LINE
  5
62
100
AcDbEntity
  8
0
 62
     7
100
AcDbLine
 10
354.67637
 20
79.124886
 30
0.0
 11
351.50137
 21
79.124886
 31
0.0
  0
LINE
  5
61
100
AcDbEntity
  8
0
 62
     7
100
AcDbLine
 10
351.50137
 20
79.124886
 30
0.0
 11
351.50137
 21
72.774886
 31
0.0
  0
LINE
  5
60
100
AcDbEntity
  8
0
 62
     7
100
AcDbLine
 10
351.50137
 20
72.774886
 30
0.0
 11
354.67637
 21
72.774886
 31
0.0
  0
LINE
  5
5F
100
AcDbEntity
  8
0
 62
     7
100
AcDbLine
 10
354.67637
 20
72.774886
 30
0.0
 11
354.67637
 21
66.424886
 31
0.0
  0
LINE
  5
5E
100
AcDbEntity
  8
0
 62
     7
100
AcDbLine
 10
354.67637
 20
66.424886
 30
0.0
 11
351.50137
 21
66.424886
 31
0.0
  0
LINE
  5
5D
100
AcDbEntity
  8
0
 62
     7
100
AcDbLine
 10
351.50137
 20
66.424886
 30
0.0
 11
351.50137
 21
60.074886
 31
0.0
  0
LINE
  5
5C
100
AcDbEntity
  8
0
 62
     7
100
AcDbLine
 10
351.50137
 20
60.074886
 30
0.0
 11
354.67637
 21
60.074886
 31
0.0
  0
LINE
  5
5B
100
AcDbEntity
  8
0
 62
     7
100
AcDbLine
 10
354.67637
 20
60.074886
 30
0.0
 11
354.67637
 21
50.549886
 31
0.0
  0
LINE
  5
5A
100
AcDbEntity
  8
0
 62
     7
100
AcDbLine
 10
354.67637
 20
50.549886
 30
0.0
 11
351.50137
 21
50.549886
 31
0.0
  0
LINE
  5
59
100
AcDbEntity
  8
0
 62
     7
100
AcDbLine
 10
351.50137
 20
50.549886
 30
0.0
 11
351.50137
 21
44.199886
 31
0.0
  0
LINE
  5
58
100
AcDbEntity
  8
0
 62
     7
100
AcDbLine
 10
415.018251
 20
145.800058
 30
0.0
 11
408.032975
 21
145.800058
 31
0.0
  0
LINE
  5
57
100
AcDbEntity
  8
0
 62
     7
100
AcDbLine
 10
408.032975
 20
145.800058
 30
0.0
 11
408.032975
 21
148.975058
 31
0.0
  0
LINE
  5
56
100
AcDbEntity
  8
0
 62
     7
100
AcDbLine
 10
408.032975
 20
148.975058
 30
0.0
 11
401.048044
 21
148.975058
 31
0.0
  0
LINE
  5
55
100
AcDbEntity
  8
0
 62
     7
100
AcDbLine
 10
401.048044
 20
148.975058
 30
0.0
 11
401.048044
 21
145.800058
 31
0.0
  0
LINE
  5
54
100
AcDbEntity
  8
0
 62
     7
100
AcDbLine
 10
401.048044
 20
145.800058
 30
0.0
 11
394.063113
 21
145.800058
 31
0.0
  0
LINE
  5
53
100
AcDbEntity
  8
0
 62
     7
100
AcDbLine
 10
394.063113
 20
145.800058
 30
0.0
 11
394.063113
 21
148.975058
 31
0.0
  0
LINE
  5
52
100
AcDbEntity
  8
0
 62
     7
100
AcDbLine
 10
394.063113
 20
148.975058
 30
0.0
 11
387.078182
 21
148.975058
 31
0.0
  0
LINE
  5
51
100
AcDbEntity
  8
0
 62
     7
100
AcDbLine
 10
387.078182
 20
148.975058
 30
0.0
 11
387.078182
 21
145.800058
 31
0.0
  0
LINE
  5
50
100
AcDbEntity
  8
0
 62
     7
100
AcDbLine
 10
387.078182
 20
145.800058
 30
0.0
 11
383.272385
 21
145.800058
 31
0.0
  0
LINE
  5
4F
100
AcDbEntity
  8
0
 62
     7
100
AcDbLine
 10
383.272385
 20
145.800058
 30
0.0
 11
383.272385
 21
44.199886
 31
0.0
  0
LINE
  5
4E
100
AcDbEntity
  8
0
 62
     7
100
AcDbLine
 10
383.272385
 20
44.199886
 30
0.0
 11
387.078182
 21
44.199886
 31
0.0
  0
LINE
  5
4D
100
AcDbEntity
  8
0
 62
     7
100
AcDbLine
 10
387.078182
 20
44.199886
 30
0.0
 11
387.078182
 21
41.024886
 31
0.0
  0
LINE
  5
4C
100
AcDbEntity
  8
0
 62
     7
100
AcDbLine
 10
387.078182
 20
41.024886
 30
0.0
 11
394.063113
 21
41.024886
 31
0.0
  0
LINE
  5
4B
100
AcDbEntity
  8
0
 62
     7
100
AcDbLine
 10
394.063113
 20
41.024886
 30
0.0
 11
394.063113
 21
44.199886
 31
0.0
  0
LINE
  5
4A
100
AcDbEntity
  8
0
 62
     7
100
AcDbLine
 10
394.063113
 20
44.199886
 30
0.0
 11
401.048044
 21
44.199886
 31
0.0
  0
LINE
  5
49
100
AcDbEntity
  8
0
 62
     7
100
AcDbLine
 10
401.048044
 20
44.199886
 30
0.0
 11
401.048044
 21
41.024886
 31
0.0
  0
LINE
  5
48
100
AcDbEntity
  8
0
 62
     7
100
AcDbLine
 10
401.048044
 20
41.024886
 30
0.0
 11
408.032975
 21
41.024886
 31
0.0
  0
LINE
  5
47
100
AcDbEntity
  8
0
 62
     7
100
AcDbLine
 10
408.032975
 20
41.024886
 30
0.0
 11
408.032975
 21
44.199886
 31
0.0
  0
LINE
  5
46
100
AcDbEntity
  8
0
 62
     7
100
AcDbLine
 10
408.032975
 20
44.199886
 30
0.0
 11
415.018251
 21
44.199886
 31
0.0
  0
LINE
  5
45
100
AcDbEntity
  8
0
 62
     7
100
AcDbLine
 10
415.018251
 20
44.199886
 30
0.0
 11
415.018251
 21
50.549886
 31
0.0
  0
LINE
  5
44
100
AcDbEntity
  8
0
 62
     7
100
AcDbLine
 10
415.018251
 20
50.549886
 30
0.0
 11
411.843251
 21
50.549886
 31
0.0
  0
LINE
  5
43
100
AcDbEntity
  8
0
 62
     7
100
AcDbLine
 10
411.843251
 20
50.549886
 30
0.0
 11
411.843251
 21
60.074886
 31
0.0
  0
LINE
  5
42
100
AcDbEntity
  8
0
 62
     7
100
AcDbLine
 10
411.843251
 20
60.074886
 30
0.0
 11
415.018251
 21
60.074886
 31
0.0
  0
LINE
  5
41
100
AcDbEntity
  8
0
 62
     7
100
AcDbLine
 10
415.018251
 20
60.074886
 30
0.0
 11
415.018251
 21
66.424886
 31
0.0
  0
LINE
  5
40
100
AcDbEntity
  8
0
 62
     7
100
AcDbLine
 10
415.018251
 20
66.424886
 30
0.0
 11
411.843251
 21
66.424886
 31
0.0
  0
LINE
  5
3F
100
AcDbEntity
  8
0
 62
     7
100
AcDbLine
 10
411.843251
 20
66.424886
 30
0.0
 11
411.843251
 21
72.774886
 31
0.0
  0
LINE
  5
3E
100
AcDbEntity
  8
0
 62
     7
100
AcDbLine
 10
411.843251
 20
72.774886
 30
0.0
 11
415.018251
 21
72.774886
 31
0.0
  0
LINE
  5
3D
100
AcDbEntity
  8
0
 62
     7
100
AcDbLine
 10
415.018251
 20
72.774886
 30
0.0
 11
415.018251
 21
79.124886
 31
0.0
  0
LINE
  5
3C
100
AcDbEntity
  8
0
 62
     7
100
AcDbLine
 10
415.018251
 20
79.124886
 30
0.0
 11
411.843251
 21
79.124886
 31
0.0
  0
LINE
  5
3B
100
AcDbEntity
  8
0
 62
     7
100
AcDbLine
 10
411.843251
 20
79.124886
 30
0.0
 11
411.843251
 21
85.474886
 31
0.0
  0
LINE
  5
3A
100
AcDbEntity
  8
0
 62
     7
100
AcDbLine
 10
411.843251
 20
85.474886
 30
0.0
 11
415.018251
 21
85.474886
 31
0.0
  0
LINE
  5
39
100
AcDbEntity
  8
0
 62
     7
100
AcDbLine
 10
415.018251
 20
85.474886
 30
0.0
 11
415.018251
 21
91.824886
 31
0.0
  0
LINE
  5
38
100
AcDbEntity
  8
0
 62
     7
100
AcDbLine
 10
415.018251
 20
91.824886
 30
0.0
 11
411.843251
 21
91.824886
 31
0.0
  0
LINE
  5
37
100
AcDbEntity
  8
0
 62
     7
100
AcDbLine
 10
411.843251
 20
91.824886
 30
0.0
 11
411.843251
 21
98.175058
 31
0.0
  0
LINE
  5
36
100
AcDbEntity
  8
0
 62
     7
100
AcDbLine
 10
411.843251
 20
98.175058
 30
0.0
 11
415.018251
 21
98.175058
 31
0.0
  0
LINE
  5
35
100
AcDbEntity
  8
0
 62
     7
100
AcDbLine
 10
415.018251
 20
98.175058
 30
0.0
 11
415.018251
 21
104.525058
 31
0.0
  0
LINE
  5
34
100
AcDbEntity
  8
0
 62
     7
100
AcDbLine
 10
415.018251
 20
104.525058
 30
0.0
 11
411.843251
 21
104.525058
 31
0.0
  0
LINE
  5
33
100
AcDbEntity
  8
0
 62
     7
100
AcDbLine
 10
411.843251
 20
104.525058
 30
0.0
 11
411.843251
 21
110.875058
 31
0.0
  0
LINE
  5
32
100
AcDbEntity
  8
0
 62
     7
100
AcDbLine
 10
411.843251
 20
110.875058
 30
0.0
 11
415.018251
 21
110.875058
 31
0.0
  0
LINE
  5
31
100
AcDbEntity
  8
0
 62
     7
100
AcDbLine
 10
415.018251
 20
110.875058
 30
0.0
 11
415.018251
 21
117.225058
 31
0.0
  0
LINE
  5
30
100
AcDbEntity
  8
0
 62
     7
100
AcDbLine
 10
415.018251
 20
117.225058
 30
0.0
 11
411.843251
 21
117.225058
 31
0.0
  0
LINE
  5
2F
100
AcDbEntity
  8
0
 62
     7
100
AcDbLine
 10
411.843251
 20
117.225058
 30
0.0
 11
411.843251
 21
123.575058
 31
0.0
  0
LINE
  5
2E
100
AcDbEntity
  8
0
 62
     7
100
AcDbLine
 10
411.843251
 20
123.575058
 30
0.0
 11
415.018251
 21
123.575058
 31
0.0
  0
LINE
  5
2D
100
AcDbEntity
  8
0
 62
     7
100
AcDbLine
 10
415.018251
 20
123.575058
 30
0.0
 11
415.018251
 21
129.925058
 31
0.0
  0
LINE
  5
2C
100
AcDbEntity
  8
0
 62
     7
100
AcDbLine
 10
415.018251
 20
129.925058
 30
0.0
 11
411.843251
 21
129.925058
 31
0.0
  0
LINE
  5
2B
100
AcDbEntity
  8
0
 62
     7
100
AcDbLine
 10
411.843251
 20
129.925058
 30
0.0
 11
411.843251
 21
139.450058
 31
0.0
  0
LINE
  5
2A
100
AcDbEntity
  8
0
 62
     7
100
AcDbLine
 10
411.843251
 20
139.450058
 30
0.0
 11
415.018251
 21
139.450058
 31
0.0
  0
LINE
  5
29
100
AcDbEntity
  8
0
 62
     7
100
AcDbLine
 10
415.018251
 20
139.450058
 30
0.0
 11
415.018251
 21
145.800058
 31
0.0
  0
ENDSEC
  0
SECTION
  2
OBJECTS
  0
DICTIONARY
  5
19
100
AcDbDictionary
280
     0
281
     1
  3
ACAD_GROUP
350
1A
  3
ACAD_MLINESTYLE
350
1B
  3
ACAD_LAYOUT
350
1E
  3
ACAD_PLOTSETTINGS
350
22
  3
ACAD_PLOTSTYLENAME
350
1F
  3
ACAD_WIPEOUT_VARS
350
23
  0
DICTIONARY
  5
1A
102
{ACAD_REACTORS
330
19
102
}
100
AcDbDictionary
280
     0
281
     1
  0
DICTIONARY
  5
1B
102
{ACAD_REACTORS
330
19
102
}
100
AcDbDictionary
280
     0
281
     1
  3
Standard
350
1C
  0
MLINESTYLE
  5
1C
102
{ACAD_REACTORS
330
1B
102
}
100
AcDbMlineStyle
  2
Standard
 70
     0
  3

 62
     0
 51
90.0
 52
90.0
 71
     2
 49
0.5
 62
   256
  6
ByLayer
 49
-0.5
 62
   256
  6
ByLayer
  0
ACDBDICTIONARYWDFLT
  5
1F
102
{ACAD_REACTORS
330
19
102
}
100
AcDbDictionary
281
     1
  3
Normal
350
1D
100
AcDbDictionaryWithDefault
340
1D
  0
ACDBPLACEHOLDER
  5
1D
102
{ACAD_REACTORS
330
1F
102
}
  0
LAYOUT
  5
20
102
{ACAD_REACTORS
330
1E
102
}
100
AcDbPlotSettings
  1

  2

  4

  6

 40
0.0
 41
0.0
 42
0.0
 43
0.0
 44
0.0
 45
0.0
 46
0.0
 47
0.0
 48
0.0
 49
0.0
140
0.0
141
0.0
142
1.0
143
1.0
 70
  1024
 72
     0
 73
     0
 74
     0
  7

 75
     0
147
1.0
148
0.0
149
0.0
100
AcDbLayout
  1
Model
 70
     0
 71
     0
 10
0.0
 20
0.0
 11
0.0
 21
0.0
 12
0.0
 22
0.0
 32
0.0
 14
0.0
 24
0.0
 34
0.0
 15
0.0
 25
0.0
 35
0.0
146
0.0
 13
0.0
 23
0.0
 33
0.0
 16
0.0
 26
0.0
 36
0.0
 17
0.0
 27
0.0
 37
0.0
 76
     0
330
A
331
0
345
0
346
0
  0
LAYOUT
  5
21
102
{ACAD_REACTORS
330
1E
102
}
100
AcDbPlotSettings
  1

  2

  4

  6

 40
0.0
 41
0.0
 42
0.0
 43
0.0
 44
0.0
 45
0.0
 46
0.0
 47
0.0
 48
0.0
 49
0.0
140
0.0
141
0.0
142
1.0
143
1.0
 70
     0
 72
     0
 73
     0
 74
     0
  7

 75
     0
147
1.0
148
0.0
149
0.0
100
AcDbLayout
  1
Layout1
 70
     0
 71
     0
 10
0.0
 20
0.0
 11
0.0
 21
0.0
 12
0.0
 22
0.0
 32
0.0
 14
0.0
 24
0.0
 34
0.0
 15
0.0
 25
0.0
 35
0.0
146
0.0
 13
0.0
 23
0.0
 33
0.0
 16
0.0
 26
0.0
 36
0.0
 17
0.0
 27
0.0
 37
0.0
 76
     0
330
B
331
0
345
0
346
0
  0
DICTIONARY
  5
1E
102
{ACAD_REACTORS
330
19
102
}
100
AcDbDictionary
280
     0
281
     1
  3
Layout1
350
21
  3
Model
350
20
  0
DICTIONARY
  5
22
102
{ACAD_REACTORS
330
19
102
}
100
AcDbDictionary
280
     0
281
     1
  0
WIPEOUTVARIABLES
  5
23
100
AcDbWipeoutVariables
 70
     1
  0
ENDSEC
  0
EOF
