  0
SECTION
  2
HEADER
  9
$ACADVER
  1
AC1014
  9
$HANDSEED
  5
FFFF
  9
$MEASUREMENT
 70
     1
  0
ENDSEC
  0
SECTION
  2
TABLES
  0
TABLE
  2
VPORT
  5
8
330
0
100
AcDbSymbolTable
 70
     4
  0
VPORT
  5
2E
330
8
100
AcDbSymbolTableRecord
100
AcDbViewportTableRecord
  2
*ACTIVE
 70
     0
 10
0.0
 20
0.0
 11
1.0
 21
1.0
 12
210.0
 22
148.5
 13
0.0
 23
0.0
 14
10.0
 24
10.0
 15
10.0
 25
10.0
 16
0.0
 26
0.0
 36
1.0
 17
0.0
 27
0.0
 37
0.0
 40
341.0
 41
1.24
 42
50.0
 43
0.0
 44
0.0
 50
0.0
 51
0.0
 71
     0
 72
   100
 73
     1
 74
     3
 75
     0
 76
     0
 77
     0
 78
     0
  0
ENDTAB
  0
TABLE
  2
LTYPE
  5
5
330
0
100
AcDbSymbolTable
 70
     1
  0
LTYPE
  5
14
330
5
100
AcDbSymbolTableRecord
100
AcDbLinetypeTableRecord
  2
BYBLOCK
 70
     0
  3

 72
    65
 73
     0
 40
0.0
  0
LTYPE
  5
15
330
5
100
AcDbSymbolTableRecord
100
AcDbLinetypeTableRecord
  2
BYLAYER
 70
     0
  3

 72
    65
 73
     0
 40
0.0
  0
LTYPE
  5
16
330
5
100
AcDbSymbolTableRecord
100
AcDbLinetypeTableRecord
  2
CONTINUOUS
 70
     0
  3
Solid line
 72
    65
 73
     0
 40
0.0
  0
ENDTAB
  0
TABLE
  2
LAYER
  5
2
100
AcDbSymbolTable
 70
2
  0
LAYER
  5
50
100
AcDbSymbolTableRecord
100
AcDbLayerTableRecord
  2
0
 70
0
  6
CONTINUOUS
  0
LAYER
  5
51
100
AcDbSymbolTableRecord
100
AcDbLayerTableRecord
  2
Cut
 70
0
  6
CONTINUOUS
  0
ENDTAB
  0
TABLE
  2
STYLE
  5
3
330
0
100
AcDbSymbolTable
 70
     1
  0
STYLE
  5
11
330
3
100
AcDbSymbolTableRecord
100
AcDbTextStyleTableRecord
  2
STANDARD
 70
     0
 40
0.0
 41
1.0
 50
0.0
 71
     0
 42
2.5
  3
txt
  4

  0
ENDTAB
  0
TABLE
  2
VIEW
  5
6
330
0
100
AcDbSymbolTable
 70
     0
  0
ENDTAB
  0
TABLE
  2
UCS
  5
7
330
0
100
AcDbSymbolTable
 70
     0
  0
ENDTAB
  0
TABLE
  2
APPID
  5
9
330
0
100
AcDbSymbolTable
 70
     2
  0
APPID
  5
12
330
9
100
AcDbSymbolTableRecord
100
AcDbRegAppTableRecord
  2
ACAD
 70
     0
  0
ENDTAB
  0
TABLE
  2
DIMSTYLE
  5
A
330
0
100
AcDbSymbolTable
 70
     1
  0
DIMSTYLE
105
27
330
A
100
AcDbSymbolTableRecord
100
AcDbDimStyleTableRecord
  2
ISO-25
 70
     0
  3

  4

  5

  6

  7

 40
1.0
 41
2.5
 42
0.625
 43
3.75
 44
1.25
 45
0.0
 46
0.0
 47
0.0
 48
0.0
140
2.5
141
2.5
142
0.0
143
0.03937007874016
144
1.0
145
0.0
146
1.0
147
0.625
 71
     0
 72
     0
 73
     0
 74
     0
 75
     0
 76
     0
 77
     1
 78
     8
170
     0
171
     3
172
     1
173
     0
174
     0
175
     0
176
     0
177
     0
178
     0
270
     2
271
     2
272
     2
273
     2
274
     3
340
11
275
     0
280
     0
281
     0
282
     0
283
     0
284
     8
285
     0
286
     0
287
     3
288
     0
  0
ENDTAB
  0
TABLE
  2
BLOCK_RECORD
  5
1
330
0
100
AcDbSymbolTable
 70
     1
  0
BLOCK_RECORD
  5
1F
330
1
100
AcDbSymbolTableRecord
100
AcDbBlockTableRecord
  2
*MODEL_SPACE
  0
BLOCK_RECORD
  5
1B
330
1
100
AcDbSymbolTableRecord
100
AcDbBlockTableRecord
  2
*PAPER_SPACE
  0
ENDTAB
  0
ENDSEC
  0
SECTION
  2
BLOCKS
  0
BLOCK
  5
20
330
1F
100
AcDbEntity
  8
0
100
AcDbBlockBegin
  2
*MODEL_SPACE
 70
     0
 10
0.0
 20
0.0
 30
0.0
  3
*MODEL_SPACE
  1

  0
ENDBLK
  5
21
330
1F
100
AcDbEntity
  8
0
100
AcDbBlockEnd
  0
BLOCK
  5
1C
330
1B
100
AcDbEntity
 67
     1
  8
0
100
AcDbBlockBegin
  2
*PAPER_SPACE
  1

  0
ENDBLK
  5
1D
330
1B
100
AcDbEntity
 67
     1
  8
0
100
AcDbBlockEnd
  0
ENDSEC
  0
SECTION
  2
ENTITIES
  0
LINE
  5
100
100
AcDbEntity
  8
Cut
 62
7
100
AcDbLine
 10
106.863827
 20
13.135369
 30
0.0
 11
113.412265
 21
13.135369
 31
0.0
  0
LINE
  5
101
100
AcDbEntity
  8
Cut
 62
7
100
AcDbLine
 10
113.412265
 20
13.135369
 30
0.0
 11
113.412265
 21
16.111932
 31
0.0
  0
LINE
  5
102
100
AcDbEntity
  8
Cut
 62
7
100
AcDbLine
 10
113.412265
 20
16.111932
 30
0.0
 11
119.960702
 21
16.111932
 31
0.0
  0
LINE
  5
103
100
AcDbEntity
  8
Cut
 62
7
100
AcDbLine
 10
119.960702
 20
16.111932
 30
0.0
 11
119.960702
 21
13.135369
 31
0.0
  0
LINE
  5
104
100
AcDbEntity
  8
Cut
 62
7
100
AcDbLine
 10
119.960702
 20
13.135369
 30
0.0
 11
126.509140
 21
13.135369
 31
0.0
  0
LINE
  5
105
100
AcDbEntity
  8
Cut
 62
7
100
AcDbLine
 10
126.509140
 20
13.135369
 30
0.0
 11
126.509140
 21
16.111932
 31
0.0
  0
LINE
  5
106
100
AcDbEntity
  8
Cut
 62
7
100
AcDbLine
 10
126.509140
 20
16.111932
 30
0.0
 11
133.057577
 21
16.111932
 31
0.0
  0
LINE
  5
107
100
AcDbEntity
  8
Cut
 62
7
100
AcDbLine
 10
133.057577
 20
16.111932
 30
0.0
 11
133.057577
 21
13.135369
 31
0.0
  0
LINE
  5
108
100
AcDbEntity
  8
Cut
 62
7
100
AcDbLine
 10
133.057577
 20
13.135369
 30
0.0
 11
136.626351
 21
13.135369
 31
0.0
  0
LINE
  5
109
100
AcDbEntity
  8
Cut
 62
7
100
AcDbLine
 10
136.626351
 20
13.135369
 30
0.0
 11
136.626351
 21
114.338494
 31
0.0
  0
LINE
  5
10a
100
AcDbEntity
  8
Cut
 62
7
100
AcDbLine
 10
136.626351
 20
114.338494
 30
0.0
 11
133.057577
 21
114.338494
 31
0.0
  0
LINE
  5
10b
100
AcDbEntity
  8
Cut
 62
7
100
AcDbLine
 10
133.057577
 20
114.338494
 30
0.0
 11
133.057577
 21
111.361932
 31
0.0
  0
LINE
  5
10c
100
AcDbEntity
  8
Cut
 62
7
100
AcDbLine
 10
133.057577
 20
111.361932
 30
0.0
 11
126.509140
 21
111.361932
 31
0.0
  0
LINE
  5
10d
100
AcDbEntity
  8
Cut
 62
7
100
AcDbLine
 10
126.509140
 20
111.361932
 30
0.0
 11
126.509140
 21
114.338494
 31
0.0
  0
LINE
  5
10e
100
AcDbEntity
  8
Cut
 62
7
100
AcDbLine
 10
126.509140
 20
114.338494
 30
0.0
 11
119.960702
 21
114.338494
 31
0.0
  0
LINE
  5
10f
100
AcDbEntity
  8
Cut
 62
7
100
AcDbLine
 10
119.960702
 20
114.338494
 30
0.0
 11
119.960702
 21
111.361932
 31
0.0
  0
LINE
  5
110
100
AcDbEntity
  8
Cut
 62
7
100
AcDbLine
 10
119.960702
 20
111.361932
 30
0.0
 11
113.412265
 21
111.361932
 31
0.0
  0
LINE
  5
111
100
AcDbEntity
  8
Cut
 62
7
100
AcDbLine
 10
113.412265
 20
111.361932
 30
0.0
 11
113.412265
 21
114.338494
 31
0.0
  0
LINE
  5
112
100
AcDbEntity
  8
Cut
 62
7
100
AcDbLine
 10
113.412265
 20
114.338494
 30
0.0
 11
106.863827
 21
114.338494
 31
0.0
  0
LINE
  5
113
100
AcDbEntity
  8
Cut
 62
7
100
AcDbLine
 10
106.863827
 20
114.338494
 30
0.0
 11
106.863827
 21
105.408807
 31
0.0
  0
LINE
  5
114
100
AcDbEntity
  8
Cut
 62
7
100
AcDbLine
 10
106.863827
 20
105.408807
 30
0.0
 11
109.840390
 21
105.408807
 31
0.0
  0
LINE
  5
115
100
AcDbEntity
  8
Cut
 62
7
100
AcDbLine
 10
109.840390
 20
105.408807
 30
0.0
 11
109.840390
 21
96.479119
 31
0.0
  0
LINE
  5
116
100
AcDbEntity
  8
Cut
 62
7
100
AcDbLine
 10
109.840390
 20
96.479119
 30
0.0
 11
106.863827
 21
96.479119
 31
0.0
  0
LINE
  5
117
100
AcDbEntity
  8
Cut
 62
7
100
AcDbLine
 10
106.863827
 20
96.479119
 30
0.0
 11
106.863827
 21
90.525994
 31
0.0
  0
LINE
  5
118
100
AcDbEntity
  8
Cut
 62
7
100
AcDbLine
 10
106.863827
 20
90.525994
 30
0.0
 11
109.840390
 21
90.525994
 31
0.0
  0
LINE
  5
119
100
AcDbEntity
  8
Cut
 62
7
100
AcDbLine
 10
109.840390
 20
90.525994
 30
0.0
 11
109.840390
 21
84.572869
 31
0.0
  0
LINE
  5
11a
100
AcDbEntity
  8
Cut
 62
7
100
AcDbLine
 10
109.840390
 20
84.572869
 30
0.0
 11
106.863827
 21
84.572869
 31
0.0
  0
LINE
  5
11b
100
AcDbEntity
  8
Cut
 62
7
100
AcDbLine
 10
106.863827
 20
84.572869
 30
0.0
 11
106.863827
 21
78.619744
 31
0.0
  0
LINE
  5
11c
100
AcDbEntity
  8
Cut
 62
7
100
AcDbLine
 10
106.863827
 20
78.619744
 30
0.0
 11
109.840390
 21
78.619744
 31
0.0
  0
LINE
  5
11d
100
AcDbEntity
  8
Cut
 62
7
100
AcDbLine
 10
109.840390
 20
78.619744
 30
0.0
 11
109.840390
 21
72.666619
 31
0.0
  0
LINE
  5
11e
100
AcDbEntity
  8
Cut
 62
7
100
AcDbLine
 10
109.840390
 20
72.666619
 30
0.0
 11
106.863827
 21
72.666619
 31
0.0
  0
LINE
  5
11f
100
AcDbEntity
  8
Cut
 62
7
100
AcDbLine
 10
106.863827
 20
72.666619
 30
0.0
 11
106.863827
 21
66.713494
 31
0.0
  0
LINE
  5
120
100
AcDbEntity
  8
Cut
 62
7
100
AcDbLine
 10
106.863827
 20
66.713494
 30
0.0
 11
109.840390
 21
66.713494
 31
0.0
  0
LINE
  5
121
100
AcDbEntity
  8
Cut
 62
7
100
AcDbLine
 10
109.840390
 20
66.713494
 30
0.0
 11
109.840390
 21
60.760369
 31
0.0
  0
LINE
  5
122
100
AcDbEntity
  8
Cut
 62
7
100
AcDbLine
 10
109.840390
 20
60.760369
 30
0.0
 11
106.863827
 21
60.760369
 31
0.0
  0
LINE
  5
123
100
AcDbEntity
  8
Cut
 62
7
100
AcDbLine
 10
106.863827
 20
60.760369
 30
0.0
 11
106.863827
 21
54.807244
 31
0.0
  0
LINE
  5
124
100
AcDbEntity
  8
Cut
 62
7
100
AcDbLine
 10
106.863827
 20
54.807244
 30
0.0
 11
109.840390
 21
54.807244
 31
0.0
  0
LINE
  5
125
100
AcDbEntity
  8
Cut
 62
7
100
AcDbLine
 10
109.840390
 20
54.807244
 30
0.0
 11
109.840390
 21
48.854119
 31
0.0
  0
LINE
  5
126
100
AcDbEntity
  8
Cut
 62
7
100
AcDbLine
 10
109.840390
 20
48.854119
 30
0.0
 11
106.863827
 21
48.854119
 31
0.0
  0
LINE
  5
127
100
AcDbEntity
  8
Cut
 62
7
100
AcDbLine
 10
106.863827
 20
48.854119
 30
0.0
 11
106.863827
 21
42.900994
 31
0.0
  0
LINE
  5
128
100
AcDbEntity
  8
Cut
 62
7
100
AcDbLine
 10
106.863827
 20
42.900994
 30
0.0
 11
109.840390
 21
42.900994
 31
0.0
  0
LINE
  5
129
100
AcDbEntity
  8
Cut
 62
7
100
AcDbLine
 10
109.840390
 20
42.900994
 30
0.0
 11
109.840390
 21
36.947869
 31
0.0
  0
LINE
  5
12a
100
AcDbEntity
  8
Cut
 62
7
100
AcDbLine
 10
109.840390
 20
36.947869
 30
0.0
 11
106.863827
 21
36.947869
 31
0.0
  0
LINE
  5
12b
100
AcDbEntity
  8
Cut
 62
7
100
AcDbLine
 10
106.863827
 20
36.947869
 30
0.0
 11
106.863827
 21
30.994744
 31
0.0
  0
LINE
  5
12c
100
AcDbEntity
  8
Cut
 62
7
100
AcDbLine
 10
106.863827
 20
30.994744
 30
0.0
 11
109.840390
 21
30.994744
 31
0.0
  0
LINE
  5
12d
100
AcDbEntity
  8
Cut
 62
7
100
AcDbLine
 10
109.840390
 20
30.994744
 30
0.0
 11
109.840390
 21
22.065057
 31
0.0
  0
LINE
  5
12e
100
AcDbEntity
  8
Cut
 62
7
100
AcDbLine
 10
109.840390
 20
22.065057
 30
0.0
 11
106.863827
 21
22.065057
 31
0.0
  0
LINE
  5
12f
100
AcDbEntity
  8
Cut
 62
7
100
AcDbLine
 10
106.863827
 20
22.065057
 30
0.0
 11
106.863827
 21
13.135369
 31
0.0
  0
LINE
  5
130
100
AcDbEntity
  8
Cut
 62
7
100
AcDbLine
 10
8.613452
 20
111.361931
 30
0.0
 11
14.566577
 21
111.361931
 31
0.0
  0
LINE
  5
131
100
AcDbEntity
  8
Cut
 62
7
100
AcDbLine
 10
14.566577
 20
111.361931
 30
0.0
 11
14.566577
 21
114.338494
 31
0.0
  0
LINE
  5
132
100
AcDbEntity
  8
Cut
 62
7
100
AcDbLine
 10
14.566577
 20
114.338494
 30
0.0
 11
23.496265
 21
114.338494
 31
0.0
  0
LINE
  5
133
100
AcDbEntity
  8
Cut
 62
7
100
AcDbLine
 10
23.496265
 20
114.338494
 30
0.0
 11
23.496265
 21
111.361931
 31
0.0
  0
LINE
  5
134
100
AcDbEntity
  8
Cut
 62
7
100
AcDbLine
 10
23.496265
 20
111.361931
 30
0.0
 11
29.449390
 21
111.361931
 31
0.0
  0
LINE
  5
135
100
AcDbEntity
  8
Cut
 62
7
100
AcDbLine
 10
29.449390
 20
111.361931
 30
0.0
 11
29.449390
 21
114.338494
 31
0.0
  0
LINE
  5
136
100
AcDbEntity
  8
Cut
 62
7
100
AcDbLine
 10
29.449390
 20
114.338494
 30
0.0
 11
35.402515
 21
114.338494
 31
0.0
  0
LINE
  5
137
100
AcDbEntity
  8
Cut
 62
7
100
AcDbLine
 10
35.402515
 20
114.338494
 30
0.0
 11
35.402515
 21
111.361931
 31
0.0
  0
LINE
  5
138
100
AcDbEntity
  8
Cut
 62
7
100
AcDbLine
 10
35.402515
 20
111.361931
 30
0.0
 11
41.355640
 21
111.361931
 31
0.0
  0
LINE
  5
139
100
AcDbEntity
  8
Cut
 62
7
100
AcDbLine
 10
41.355640
 20
111.361931
 30
0.0
 11
41.355640
 21
114.338494
 31
0.0
  0
LINE
  5
13a
100
AcDbEntity
  8
Cut
 62
7
100
AcDbLine
 10
41.355640
 20
114.338494
 30
0.0
 11
47.308765
 21
114.338494
 31
0.0
  0
LINE
  5
13b
100
AcDbEntity
  8
Cut
 62
7
100
AcDbLine
 10
47.308765
 20
114.338494
 30
0.0
 11
47.308765
 21
111.361931
 31
0.0
  0
LINE
  5
13c
100
AcDbEntity
  8
Cut
 62
7
100
AcDbLine
 10
47.308765
 20
111.361931
 30
0.0
 11
53.261890
 21
111.361931
 31
0.0
  0
LINE
  5
13d
100
AcDbEntity
  8
Cut
 62
7
100
AcDbLine
 10
53.261890
 20
111.361931
 30
0.0
 11
53.261890
 21
114.338494
 31
0.0
  0
LINE
  5
13e
100
AcDbEntity
  8
Cut
 62
7
100
AcDbLine
 10
53.261890
 20
114.338494
 30
0.0
 11
59.215015
 21
114.338494
 31
0.0
  0
LINE
  5
13f
100
AcDbEntity
  8
Cut
 62
7
100
AcDbLine
 10
59.215015
 20
114.338494
 30
0.0
 11
59.215015
 21
111.361931
 31
0.0
  0
LINE
  5
140
100
AcDbEntity
  8
Cut
 62
7
100
AcDbLine
 10
59.215015
 20
111.361931
 30
0.0
 11
65.168140
 21
111.361931
 31
0.0
  0
LINE
  5
141
100
AcDbEntity
  8
Cut
 62
7
100
AcDbLine
 10
65.168140
 20
111.361931
 30
0.0
 11
65.168140
 21
114.338494
 31
0.0
  0
LINE
  5
142
100
AcDbEntity
  8
Cut
 62
7
100
AcDbLine
 10
65.168140
 20
114.338494
 30
0.0
 11
71.121265
 21
114.338494
 31
0.0
  0
LINE
  5
143
100
AcDbEntity
  8
Cut
 62
7
100
AcDbLine
 10
71.121265
 20
114.338494
 30
0.0
 11
71.121265
 21
111.361931
 31
0.0
  0
LINE
  5
144
100
AcDbEntity
  8
Cut
 62
7
100
AcDbLine
 10
71.121265
 20
111.361931
 30
0.0
 11
77.074390
 21
111.361931
 31
0.0
  0
LINE
  5
145
100
AcDbEntity
  8
Cut
 62
7
100
AcDbLine
 10
77.074390
 20
111.361931
 30
0.0
 11
77.074390
 21
114.338494
 31
0.0
  0
LINE
  5
146
100
AcDbEntity
  8
Cut
 62
7
100
AcDbLine
 10
77.074390
 20
114.338494
 30
0.0
 11
83.027515
 21
114.338494
 31
0.0
  0
LINE
  5
147
100
AcDbEntity
  8
Cut
 62
7
100
AcDbLine
 10
83.027515
 20
114.338494
 30
0.0
 11
83.027515
 21
111.361931
 31
0.0
  0
LINE
  5
148
100
AcDbEntity
  8
Cut
 62
7
100
AcDbLine
 10
83.027515
 20
111.361931
 30
0.0
 11
88.980640
 21
111.361931
 31
0.0
  0
LINE
  5
149
100
AcDbEntity
  8
Cut
 62
7
100
AcDbLine
 10
88.980640
 20
111.361931
 30
0.0
 11
88.980640
 21
114.338494
 31
0.0
  0
LINE
  5
14a
100
AcDbEntity
  8
Cut
 62
7
100
AcDbLine
 10
88.980640
 20
114.338494
 30
0.0
 11
97.910327
 21
114.338494
 31
0.0
  0
LINE
  5
14b
100
AcDbEntity
  8
Cut
 62
7
100
AcDbLine
 10
97.910327
 20
114.338494
 30
0.0
 11
97.910327
 21
111.361931
 31
0.0
  0
LINE
  5
14c
100
AcDbEntity
  8
Cut
 62
7
100
AcDbLine
 10
97.910327
 20
111.361931
 30
0.0
 11
103.863452
 21
111.361931
 31
0.0
  0
LINE
  5
14d
100
AcDbEntity
  8
Cut
 62
7
100
AcDbLine
 10
103.863452
 20
111.361931
 30
0.0
 11
103.863452
 21
105.408806
 31
0.0
  0
LINE
  5
14e
100
AcDbEntity
  8
Cut
 62
7
100
AcDbLine
 10
103.863452
 20
105.408806
 30
0.0
 11
106.840015
 21
105.408806
 31
0.0
  0
LINE
  5
14f
100
AcDbEntity
  8
Cut
 62
7
100
AcDbLine
 10
106.840015
 20
105.408806
 30
0.0
 11
106.840015
 21
96.479119
 31
0.0
  0
LINE
  5
150
100
AcDbEntity
  8
Cut
 62
7
100
AcDbLine
 10
106.840015
 20
96.479119
 30
0.0
 11
103.863452
 21
96.479119
 31
0.0
  0
LINE
  5
151
100
AcDbEntity
  8
Cut
 62
7
100
AcDbLine
 10
103.863452
 20
96.479119
 30
0.0
 11
103.863452
 21
90.525994
 31
0.0
  0
LINE
  5
152
100
AcDbEntity
  8
Cut
 62
7
100
AcDbLine
 10
103.863452
 20
90.525994
 30
0.0
 11
106.840015
 21
90.525994
 31
0.0
  0
LINE
  5
153
100
AcDbEntity
  8
Cut
 62
7
100
AcDbLine
 10
106.840015
 20
90.525994
 30
0.0
 11
106.840015
 21
84.572869
 31
0.0
  0
LINE
  5
154
100
AcDbEntity
  8
Cut
 62
7
100
AcDbLine
 10
106.840015
 20
84.572869
 30
0.0
 11
103.863452
 21
84.572869
 31
0.0
  0
LINE
  5
155
100
AcDbEntity
  8
Cut
 62
7
100
AcDbLine
 10
103.863452
 20
84.572869
 30
0.0
 11
103.863452
 21
78.619744
 31
0.0
  0
LINE
  5
156
100
AcDbEntity
  8
Cut
 62
7
100
AcDbLine
 10
103.863452
 20
78.619744
 30
0.0
 11
106.840015
 21
78.619744
 31
0.0
  0
LINE
  5
157
100
AcDbEntity
  8
Cut
 62
7
100
AcDbLine
 10
106.840015
 20
78.619744
 30
0.0
 11
106.840015
 21
72.666619
 31
0.0
  0
LINE
  5
158
100
AcDbEntity
  8
Cut
 62
7
100
AcDbLine
 10
106.840015
 20
72.666619
 30
0.0
 11
103.863452
 21
72.666619
 31
0.0
  0
LINE
  5
159
100
AcDbEntity
  8
Cut
 62
7
100
AcDbLine
 10
103.863452
 20
72.666619
 30
0.0
 11
103.863452
 21
66.713494
 31
0.0
  0
LINE
  5
15a
100
AcDbEntity
  8
Cut
 62
7
100
AcDbLine
 10
103.863452
 20
66.713494
 30
0.0
 11
106.840015
 21
66.713494
 31
0.0
  0
LINE
  5
15b
100
AcDbEntity
  8
Cut
 62
7
100
AcDbLine
 10
106.840015
 20
66.713494
 30
0.0
 11
106.840015
 21
60.760369
 31
0.0
  0
LINE
  5
15c
100
AcDbEntity
  8
Cut
 62
7
100
AcDbLine
 10
106.840015
 20
60.760369
 30
0.0
 11
103.863452
 21
60.760369
 31
0.0
  0
LINE
  5
15d
100
AcDbEntity
  8
Cut
 62
7
100
AcDbLine
 10
103.863452
 20
60.760369
 30
0.0
 11
103.863452
 21
54.807244
 31
0.0
  0
LINE
  5
15e
100
AcDbEntity
  8
Cut
 62
7
100
AcDbLine
 10
103.863452
 20
54.807244
 30
0.0
 11
106.840015
 21
54.807244
 31
0.0
  0
LINE
  5
15f
100
AcDbEntity
  8
Cut
 62
7
100
AcDbLine
 10
106.840015
 20
54.807244
 30
0.0
 11
106.840015
 21
48.854119
 31
0.0
  0
LINE
  5
160
100
AcDbEntity
  8
Cut
 62
7
100
AcDbLine
 10
106.840015
 20
48.854119
 30
0.0
 11
103.863452
 21
48.854119
 31
0.0
  0
LINE
  5
161
100
AcDbEntity
  8
Cut
 62
7
100
AcDbLine
 10
103.863452
 20
48.854119
 30
0.0
 11
103.863452
 21
42.900994
 31
0.0
  0
LINE
  5
162
100
AcDbEntity
  8
Cut
 62
7
100
AcDbLine
 10
103.863452
 20
42.900994
 30
0.0
 11
106.840015
 21
42.900994
 31
0.0
  0
LINE
  5
163
100
AcDbEntity
  8
Cut
 62
7
100
AcDbLine
 10
106.840015
 20
42.900994
 30
0.0
 11
106.840015
 21
36.947869
 31
0.0
  0
LINE
  5
164
100
AcDbEntity
  8
Cut
 62
7
100
AcDbLine
 10
106.840015
 20
36.947869
 30
0.0
 11
103.863452
 21
36.947869
 31
0.0
  0
LINE
  5
165
100
AcDbEntity
  8
Cut
 62
7
100
AcDbLine
 10
103.863452
 20
36.947869
 30
0.0
 11
103.863452
 21
30.994744
 31
0.0
  0
LINE
  5
166
100
AcDbEntity
  8
Cut
 62
7
100
AcDbLine
 10
103.863452
 20
30.994744
 30
0.0
 11
106.840015
 21
30.994744
 31
0.0
  0
LINE
  5
167
100
AcDbEntity
  8
Cut
 62
7
100
AcDbLine
 10
106.840015
 20
30.994744
 30
0.0
 11
106.840015
 21
22.065057
 31
0.0
  0
LINE
  5
168
100
AcDbEntity
  8
Cut
 62
7
100
AcDbLine
 10
106.840015
 20
22.065057
 30
0.0
 11
103.863452
 21
22.065057
 31
0.0
  0
LINE
  5
169
100
AcDbEntity
  8
Cut
 62
7
100
AcDbLine
 10
103.863452
 20
22.065057
 30
0.0
 11
103.863452
 21
16.111932
 31
0.0
  0
LINE
  5
16a
100
AcDbEntity
  8
Cut
 62
7
100
AcDbLine
 10
103.863452
 20
16.111932
 30
0.0
 11
97.910327
 21
16.111932
 31
0.0
  0
LINE
  5
16b
100
AcDbEntity
  8
Cut
 62
7
100
AcDbLine
 10
97.910327
 20
16.111932
 30
0.0
 11
97.910327
 21
13.135369
 31
0.0
  0
LINE
  5
16c
100
AcDbEntity
  8
Cut
 62
7
100
AcDbLine
 10
97.910327
 20
13.135369
 30
0.0
 11
88.980640
 21
13.135369
 31
0.0
  0
LINE
  5
16d
100
AcDbEntity
  8
Cut
 62
7
100
AcDbLine
 10
88.980640
 20
13.135369
 30
0.0
 11
88.980640
 21
16.111932
 31
0.0
  0
LINE
  5
16e
100
AcDbEntity
  8
Cut
 62
7
100
AcDbLine
 10
88.980640
 20
16.111932
 30
0.0
 11
83.027515
 21
16.111932
 31
0.0
  0
LINE
  5
16f
100
AcDbEntity
  8
Cut
 62
7
100
AcDbLine
 10
83.027515
 20
16.111932
 30
0.0
 11
83.027515
 21
13.135369
 31
0.0
  0
LINE
  5
170
100
AcDbEntity
  8
Cut
 62
7
100
AcDbLine
 10
83.027515
 20
13.135369
 30
0.0
 11
77.074390
 21
13.135369
 31
0.0
  0
LINE
  5
171
100
AcDbEntity
  8
Cut
 62
7
100
AcDbLine
 10
77.074390
 20
13.135369
 30
0.0
 11
77.074390
 21
16.111932
 31
0.0
  0
LINE
  5
172
100
AcDbEntity
  8
Cut
 62
7
100
AcDbLine
 10
77.074390
 20
16.111932
 30
0.0
 11
71.121265
 21
16.111932
 31
0.0
  0
LINE
  5
173
100
AcDbEntity
  8
Cut
 62
7
100
AcDbLine
 10
71.121265
 20
16.111932
 30
0.0
 11
71.121265
 21
13.135369
 31
0.0
  0
LINE
  5
174
100
AcDbEntity
  8
Cut
 62
7
100
AcDbLine
 10
71.121265
 20
13.135369
 30
0.0
 11
65.168140
 21
13.135369
 31
0.0
  0
LINE
  5
175
100
AcDbEntity
  8
Cut
 62
7
100
AcDbLine
 10
65.168140
 20
13.135369
 30
0.0
 11
65.168140
 21
16.111932
 31
0.0
  0
LINE
  5
176
100
AcDbEntity
  8
Cut
 62
7
100
AcDbLine
 10
65.168140
 20
16.111932
 30
0.0
 11
59.215015
 21
16.111932
 31
0.0
  0
LINE
  5
177
100
AcDbEntity
  8
Cut
 62
7
100
AcDbLine
 10
59.215015
 20
16.111932
 30
0.0
 11
59.215015
 21
13.135369
 31
0.0
  0
LINE
  5
178
100
AcDbEntity
  8
Cut
 62
7
100
AcDbLine
 10
59.215015
 20
13.135369
 30
0.0
 11
53.261890
 21
13.135369
 31
0.0
  0
LINE
  5
179
100
AcDbEntity
  8
Cut
 62
7
100
AcDbLine
 10
53.261890
 20
13.135369
 30
0.0
 11
53.261890
 21
16.111932
 31
0.0
  0
LINE
  5
17a
100
AcDbEntity
  8
Cut
 62
7
100
AcDbLine
 10
53.261890
 20
16.111932
 30
0.0
 11
47.308765
 21
16.111932
 31
0.0
  0
LINE
  5
17b
100
AcDbEntity
  8
Cut
 62
7
100
AcDbLine
 10
47.308765
 20
16.111932
 30
0.0
 11
47.308765
 21
13.135369
 31
0.0
  0
LINE
  5
17c
100
AcDbEntity
  8
Cut
 62
7
100
AcDbLine
 10
47.308765
 20
13.135369
 30
0.0
 11
41.355640
 21
13.135369
 31
0.0
  0
LINE
  5
17d
100
AcDbEntity
  8
Cut
 62
7
100
AcDbLine
 10
41.355640
 20
13.135369
 30
0.0
 11
41.355640
 21
16.111932
 31
0.0
  0
LINE
  5
17e
100
AcDbEntity
  8
Cut
 62
7
100
AcDbLine
 10
41.355640
 20
16.111932
 30
0.0
 11
35.402515
 21
16.111932
 31
0.0
  0
LINE
  5
17f
100
AcDbEntity
  8
Cut
 62
7
100
AcDbLine
 10
35.402515
 20
16.111932
 30
0.0
 11
35.402515
 21
13.135369
 31
0.0
  0
LINE
  5
180
100
AcDbEntity
  8
Cut
 62
7
100
AcDbLine
 10
35.402515
 20
13.135369
 30
0.0
 11
29.449390
 21
13.135369
 31
0.0
  0
LINE
  5
181
100
AcDbEntity
  8
Cut
 62
7
100
AcDbLine
 10
29.449390
 20
13.135369
 30
0.0
 11
29.449390
 21
16.111932
 31
0.0
  0
LINE
  5
182
100
AcDbEntity
  8
Cut
 62
7
100
AcDbLine
 10
29.449390
 20
16.111932
 30
0.0
 11
23.496265
 21
16.111932
 31
0.0
  0
LINE
  5
183
100
AcDbEntity
  8
Cut
 62
7
100
AcDbLine
 10
23.496265
 20
16.111932
 30
0.0
 11
23.496265
 21
13.135369
 31
0.0
  0
LINE
  5
184
100
AcDbEntity
  8
Cut
 62
7
100
AcDbLine
 10
23.496265
 20
13.135369
 30
0.0
 11
14.566577
 21
13.135369
 31
0.0
  0
LINE
  5
185
100
AcDbEntity
  8
Cut
 62
7
100
AcDbLine
 10
14.566577
 20
13.135369
 30
0.0
 11
14.566577
 21
16.111932
 31
0.0
  0
LINE
  5
186
100
AcDbEntity
  8
Cut
 62
7
100
AcDbLine
 10
14.566577
 20
16.111932
 30
0.0
 11
8.613452
 21
16.111932
 31
0.0
  0
LINE
  5
187
100
AcDbEntity
  8
Cut
 62
7
100
AcDbLine
 10
8.613452
 20
16.111932
 30
0.0
 11
8.613452
 21
22.065057
 31
0.0
  0
LINE
  5
188
100
AcDbEntity
  8
Cut
 62
7
100
AcDbLine
 10
8.613452
 20
22.065057
 30
0.0
 11
5.636890
 21
22.065057
 31
0.0
  0
LINE
  5
189
100
AcDbEntity
  8
Cut
 62
7
100
AcDbLine
 10
5.636890
 20
22.065057
 30
0.0
 11
5.636890
 21
30.994744
 31
0.0
  0
LINE
  5
18a
100
AcDbEntity
  8
Cut
 62
7
100
AcDbLine
 10
5.636890
 20
30.994744
 30
0.0
 11
8.613452
 21
30.994744
 31
0.0
  0
LINE
  5
18b
100
AcDbEntity
  8
Cut
 62
7
100
AcDbLine
 10
8.613452
 20
30.994744
 30
0.0
 11
8.613452
 21
36.947869
 31
0.0
  0
LINE
  5
18c
100
AcDbEntity
  8
Cut
 62
7
100
AcDbLine
 10
8.613452
 20
36.947869
 30
0.0
 11
5.636890
 21
36.947869
 31
0.0
  0
LINE
  5
18d
100
AcDbEntity
  8
Cut
 62
7
100
AcDbLine
 10
5.636890
 20
36.947869
 30
0.0
 11
5.636890
 21
42.900994
 31
0.0
  0
LINE
  5
18e
100
AcDbEntity
  8
Cut
 62
7
100
AcDbLine
 10
5.636890
 20
42.900994
 30
0.0
 11
8.613452
 21
42.900994
 31
0.0
  0
LINE
  5
18f
100
AcDbEntity
  8
Cut
 62
7
100
AcDbLine
 10
8.613452
 20
42.900994
 30
0.0
 11
8.613452
 21
48.854119
 31
0.0
  0
LINE
  5
190
100
AcDbEntity
  8
Cut
 62
7
100
AcDbLine
 10
8.613452
 20
48.854119
 30
0.0
 11
5.636890
 21
48.854119
 31
0.0
  0
LINE
  5
191
100
AcDbEntity
  8
Cut
 62
7
100
AcDbLine
 10
5.636890
 20
48.854119
 30
0.0
 11
5.636890
 21
54.807244
 31
0.0
  0
LINE
  5
192
100
AcDbEntity
  8
Cut
 62
7
100
AcDbLine
 10
5.636890
 20
54.807244
 30
0.0
 11
8.613452
 21
54.807244
 31
0.0
  0
LINE
  5
193
100
AcDbEntity
  8
Cut
 62
7
100
AcDbLine
 10
8.613452
 20
54.807244
 30
0.0
 11
8.613452
 21
60.760369
 31
0.0
  0
LINE
  5
194
100
AcDbEntity
  8
Cut
 62
7
100
AcDbLine
 10
8.613452
 20
60.760369
 30
0.0
 11
5.636890
 21
60.760369
 31
0.0
  0
LINE
  5
195
100
AcDbEntity
  8
Cut
 62
7
100
AcDbLine
 10
5.636890
 20
60.760369
 30
0.0
 11
5.636890
 21
66.713494
 31
0.0
  0
LINE
  5
196
100
AcDbEntity
  8
Cut
 62
7
100
AcDbLine
 10
5.636890
 20
66.713494
 30
0.0
 11
8.613452
 21
66.713494
 31
0.0
  0
LINE
  5
197
100
AcDbEntity
  8
Cut
 62
7
100
AcDbLine
 10
8.613452
 20
66.713494
 30
0.0
 11
8.613452
 21
72.666619
 31
0.0
  0
LINE
  5
198
100
AcDbEntity
  8
Cut
 62
7
100
AcDbLine
 10
8.613452
 20
72.666619
 30
0.0
 11
5.636890
 21
72.666619
 31
0.0
  0
LINE
  5
199
100
AcDbEntity
  8
Cut
 62
7
100
AcDbLine
 10
5.636890
 20
72.666619
 30
0.0
 11
5.636890
 21
78.619744
 31
0.0
  0
LINE
  5
19a
100
AcDbEntity
  8
Cut
 62
7
100
AcDbLine
 10
5.636890
 20
78.619744
 30
0.0
 11
8.613452
 21
78.619744
 31
0.0
  0
LINE
  5
19b
100
AcDbEntity
  8
Cut
 62
7
100
AcDbLine
 10
8.613452
 20
78.619744
 30
0.0
 11
8.613452
 21
84.572869
 31
0.0
  0
LINE
  5
19c
100
AcDbEntity
  8
Cut
 62
7
100
AcDbLine
 10
8.613452
 20
84.572869
 30
0.0
 11
5.636890
 21
84.572869
 31
0.0
  0
LINE
  5
19d
100
AcDbEntity
  8
Cut
 62
7
100
AcDbLine
 10
5.636890
 20
84.572869
 30
0.0
 11
5.636890
 21
90.525994
 31
0.0
  0
LINE
  5
19e
100
AcDbEntity
  8
Cut
 62
7
100
AcDbLine
 10
5.636890
 20
90.525994
 30
0.0
 11
8.613452
 21
90.525994
 31
0.0
  0
LINE
  5
19f
100
AcDbEntity
  8
Cut
 62
7
100
AcDbLine
 10
8.613452
 20
90.525994
 30
0.0
 11
8.613452
 21
96.479119
 31
0.0
  0
LINE
  5
1a0
100
AcDbEntity
  8
Cut
 62
7
100
AcDbLine
 10
8.613452
 20
96.479119
 30
0.0
 11
5.636890
 21
96.479119
 31
0.0
  0
LINE
  5
1a1
100
AcDbEntity
  8
Cut
 62
7
100
AcDbLine
 10
5.636890
 20
96.479119
 30
0.0
 11
5.636890
 21
105.408806
 31
0.0
  0
LINE
  5
1a2
100
AcDbEntity
  8
Cut
 62
7
100
AcDbLine
 10
5.636890
 20
105.408806
 30
0.0
 11
8.613452
 21
105.408806
 31
0.0
  0
LINE
  5
1a3
100
AcDbEntity
  8
Cut
 62
7
100
AcDbLine
 10
8.613452
 20
105.408806
 30
0.0
 11
8.613452
 21
111.361931
 31
0.0
  0
LINE
  5
1a4
100
AcDbEntity
  8
Cut
 62
7
100
AcDbLine
 10
136.650172
 20
13.135367
 30
0.0
 11
140.218946
 21
13.135367
 31
0.0
  0
LINE
  5
1a5
100
AcDbEntity
  8
Cut
 62
7
100
AcDbLine
 10
140.218946
 20
13.135367
 30
0.0
 11
140.218946
 21
16.111929
 31
0.0
  0
LINE
  5
1a6
100
AcDbEntity
  8
Cut
 62
7
100
AcDbLine
 10
140.218946
 20
16.111929
 30
0.0
 11
146.767383
 21
16.111929
 31
0.0
  0
LINE
  5
1a7
100
AcDbEntity
  8
Cut
 62
7
100
AcDbLine
 10
146.767383
 20
16.111929
 30
0.0
 11
146.767383
 21
13.135367
 31
0.0
  0
LINE
  5
1a8
100
AcDbEntity
  8
Cut
 62
7
100
AcDbLine
 10
146.767383
 20
13.135367
 30
0.0
 11
153.315821
 21
13.135367
 31
0.0
  0
LINE
  5
1a9
100
AcDbEntity
  8
Cut
 62
7
100
AcDbLine
 10
153.315821
 20
13.135367
 30
0.0
 11
153.315821
 21
16.111929
 31
0.0
  0
LINE
  5
1aa
100
AcDbEntity
  8
Cut
 62
7
100
AcDbLine
 10
153.315821
 20
16.111929
 30
0.0
 11
159.864258
 21
16.111929
 31
0.0
  0
LINE
  5
1ab
100
AcDbEntity
  8
Cut
 62
7
100
AcDbLine
 10
159.864258
 20
16.111929
 30
0.0
 11
159.864258
 21
13.135367
 31
0.0
  0
LINE
  5
1ac
100
AcDbEntity
  8
Cut
 62
7
100
AcDbLine
 10
159.864258
 20
13.135367
 30
0.0
 11
166.412696
 21
13.135367
 31
0.0
  0
LINE
  5
1ad
100
AcDbEntity
  8
Cut
 62
7
100
AcDbLine
 10
166.412696
 20
13.135367
 30
0.0
 11
166.412696
 21
22.065054
 31
0.0
  0
LINE
  5
1ae
100
AcDbEntity
  8
Cut
 62
7
100
AcDbLine
 10
166.412696
 20
22.065054
 30
0.0
 11
163.436133
 21
22.065054
 31
0.0
  0
LINE
  5
1af
100
AcDbEntity
  8
Cut
 62
7
100
AcDbLine
 10
163.436133
 20
22.065054
 30
0.0
 11
163.436133
 21
30.994742
 31
0.0
  0
LINE
  5
1b0
100
AcDbEntity
  8
Cut
 62
7
100
AcDbLine
 10
163.436133
 20
30.994742
 30
0.0
 11
166.412696
 21
30.994742
 31
0.0
  0
LINE
  5
1b1
100
AcDbEntity
  8
Cut
 62
7
100
AcDbLine
 10
166.412696
 20
30.994742
 30
0.0
 11
166.412696
 21
36.947867
 31
0.0
  0
LINE
  5
1b2
100
AcDbEntity
  8
Cut
 62
7
100
AcDbLine
 10
166.412696
 20
36.947867
 30
0.0
 11
163.436133
 21
36.947867
 31
0.0
  0
LINE
  5
1b3
100
AcDbEntity
  8
Cut
 62
7
100
AcDbLine
 10
163.436133
 20
36.947867
 30
0.0
 11
163.436133
 21
42.900992
 31
0.0
  0
LINE
  5
1b4
100
AcDbEntity
  8
Cut
 62
7
100
AcDbLine
 10
163.436133
 20
42.900992
 30
0.0
 11
166.412696
 21
42.900992
 31
0.0
  0
LINE
  5
1b5
100
AcDbEntity
  8
Cut
 62
7
100
AcDbLine
 10
166.412696
 20
42.900992
 30
0.0
 11
166.412696
 21
48.854117
 31
0.0
  0
LINE
  5
1b6
100
AcDbEntity
  8
Cut
 62
7
100
AcDbLine
 10
166.412696
 20
48.854117
 30
0.0
 11
163.436133
 21
48.854117
 31
0.0
  0
LINE
  5
1b7
100
AcDbEntity
  8
Cut
 62
7
100
AcDbLine
 10
163.436133
 20
48.854117
 30
0.0
 11
163.436133
 21
54.807242
 31
0.0
  0
LINE
  5
1b8
100
AcDbEntity
  8
Cut
 62
7
100
AcDbLine
 10
163.436133
 20
54.807242
 30
0.0
 11
166.412696
 21
54.807242
 31
0.0
  0
LINE
  5
1b9
100
AcDbEntity
  8
Cut
 62
7
100
AcDbLine
 10
166.412696
 20
54.807242
 30
0.0
 11
166.412696
 21
60.760367
 31
0.0
  0
LINE
  5
1ba
100
AcDbEntity
  8
Cut
 62
7
100
AcDbLine
 10
166.412696
 20
60.760367
 30
0.0
 11
163.436133
 21
60.760367
 31
0.0
  0
LINE
  5
1bb
100
AcDbEntity
  8
Cut
 62
7
100
AcDbLine
 10
163.436133
 20
60.760367
 30
0.0
 11
163.436133
 21
66.713492
 31
0.0
  0
LINE
  5
1bc
100
AcDbEntity
  8
Cut
 62
7
100
AcDbLine
 10
163.436133
 20
66.713492
 30
0.0
 11
166.412696
 21
66.713492
 31
0.0
  0
LINE
  5
1bd
100
AcDbEntity
  8
Cut
 62
7
100
AcDbLine
 10
166.412696
 20
66.713492
 30
0.0
 11
166.412696
 21
72.666617
 31
0.0
  0
LINE
  5
1be
100
AcDbEntity
  8
Cut
 62
7
100
AcDbLine
 10
166.412696
 20
72.666617
 30
0.0
 11
163.436133
 21
72.666617
 31
0.0
  0
LINE
  5
1bf
100
AcDbEntity
  8
Cut
 62
7
100
AcDbLine
 10
163.436133
 20
72.666617
 30
0.0
 11
163.436133
 21
78.619742
 31
0.0
  0
LINE
  5
1c0
100
AcDbEntity
  8
Cut
 62
7
100
AcDbLine
 10
163.436133
 20
78.619742
 30
0.0
 11
166.412696
 21
78.619742
 31
0.0
  0
LINE
  5
1c1
100
AcDbEntity
  8
Cut
 62
7
100
AcDbLine
 10
166.412696
 20
78.619742
 30
0.0
 11
166.412696
 21
84.572867
 31
0.0
  0
LINE
  5
1c2
100
AcDbEntity
  8
Cut
 62
7
100
AcDbLine
 10
166.412696
 20
84.572867
 30
0.0
 11
163.436133
 21
84.572867
 31
0.0
  0
LINE
  5
1c3
100
AcDbEntity
  8
Cut
 62
7
100
AcDbLine
 10
163.436133
 20
84.572867
 30
0.0
 11
163.436133
 21
90.525992
 31
0.0
  0
LINE
  5
1c4
100
AcDbEntity
  8
Cut
 62
7
100
AcDbLine
 10
163.436133
 20
90.525992
 30
0.0
 11
166.412696
 21
90.525992
 31
0.0
  0
LINE
  5
1c5
100
AcDbEntity
  8
Cut
 62
7
100
AcDbLine
 10
166.412696
 20
90.525992
 30
0.0
 11
166.412696
 21
96.479117
 31
0.0
  0
LINE
  5
1c6
100
AcDbEntity
  8
Cut
 62
7
100
AcDbLine
 10
166.412696
 20
96.479117
 30
0.0
 11
163.436133
 21
96.479117
 31
0.0
  0
LINE
  5
1c7
100
AcDbEntity
  8
Cut
 62
7
100
AcDbLine
 10
163.436133
 20
96.479117
 30
0.0
 11
163.436133
 21
105.408804
 31
0.0
  0
LINE
  5
1c8
100
AcDbEntity
  8
Cut
 62
7
100
AcDbLine
 10
163.436133
 20
105.408804
 30
0.0
 11
166.412696
 21
105.408804
 31
0.0
  0
LINE
  5
1c9
100
AcDbEntity
  8
Cut
 62
7
100
AcDbLine
 10
166.412696
 20
105.408804
 30
0.0
 11
166.412696
 21
114.338492
 31
0.0
  0
LINE
  5
1ca
100
AcDbEntity
  8
Cut
 62
7
100
AcDbLine
 10
166.412696
 20
114.338492
 30
0.0
 11
159.864258
 21
114.338492
 31
0.0
  0
LINE
  5
1cb
100
AcDbEntity
  8
Cut
 62
7
100
AcDbLine
 10
159.864258
 20
114.338492
 30
0.0
 11
159.864258
 21
111.361929
 31
0.0
  0
LINE
  5
1cc
100
AcDbEntity
  8
Cut
 62
7
100
AcDbLine
 10
159.864258
 20
111.361929
 30
0.0
 11
153.315821
 21
111.361929
 31
0.0
  0
LINE
  5
1cd
100
AcDbEntity
  8
Cut
 62
7
100
AcDbLine
 10
153.315821
 20
111.361929
 30
0.0
 11
153.315821
 21
114.338492
 31
0.0
  0
LINE
  5
1ce
100
AcDbEntity
  8
Cut
 62
7
100
AcDbLine
 10
153.315821
 20
114.338492
 30
0.0
 11
146.767383
 21
114.338492
 31
0.0
  0
LINE
  5
1cf
100
AcDbEntity
  8
Cut
 62
7
100
AcDbLine
 10
146.767383
 20
114.338492
 30
0.0
 11
146.767383
 21
111.361929
 31
0.0
  0
LINE
  5
1d0
100
AcDbEntity
  8
Cut
 62
7
100
AcDbLine
 10
146.767383
 20
111.361929
 30
0.0
 11
140.218946
 21
111.361929
 31
0.0
  0
LINE
  5
1d1
100
AcDbEntity
  8
Cut
 62
7
100
AcDbLine
 10
140.218946
 20
111.361929
 30
0.0
 11
140.218946
 21
114.338492
 31
0.0
  0
LINE
  5
1d2
100
AcDbEntity
  8
Cut
 62
7
100
AcDbLine
 10
140.218946
 20
114.338492
 30
0.0
 11
136.650172
 21
114.338492
 31
0.0
  0
LINE
  5
1d3
100
AcDbEntity
  8
Cut
 62
7
100
AcDbLine
 10
166.436500
 20
16.111932
 30
0.0
 11
172.984938
 21
16.111932
 31
0.0
  0
LINE
  5
1d4
100
AcDbEntity
  8
Cut
 62
7
100
AcDbLine
 10
172.984938
 20
16.111932
 30
0.0
 11
172.984938
 21
13.135369
 31
0.0
  0
LINE
  5
1d5
100
AcDbEntity
  8
Cut
 62
7
100
AcDbLine
 10
172.984938
 20
13.135369
 30
0.0
 11
179.533375
 21
13.135369
 31
0.0
  0
LINE
  5
1d6
100
AcDbEntity
  8
Cut
 62
7
100
AcDbLine
 10
179.533375
 20
13.135369
 30
0.0
 11
179.533375
 21
16.111932
 31
0.0
  0
LINE
  5
1d7
100
AcDbEntity
  8
Cut
 62
7
100
AcDbLine
 10
179.533375
 20
16.111932
 30
0.0
 11
186.081813
 21
16.111932
 31
0.0
  0
LINE
  5
1d8
100
AcDbEntity
  8
Cut
 62
7
100
AcDbLine
 10
186.081813
 20
16.111932
 30
0.0
 11
186.081813
 21
13.135369
 31
0.0
  0
LINE
  5
1d9
100
AcDbEntity
  8
Cut
 62
7
100
AcDbLine
 10
186.081813
 20
13.135369
 30
0.0
 11
192.630250
 21
13.135369
 31
0.0
  0
LINE
  5
1da
100
AcDbEntity
  8
Cut
 62
7
100
AcDbLine
 10
192.630250
 20
13.135369
 30
0.0
 11
192.630250
 21
16.111932
 31
0.0
  0
LINE
  5
1db
100
AcDbEntity
  8
Cut
 62
7
100
AcDbLine
 10
192.630250
 20
16.111932
 30
0.0
 11
196.197993
 21
16.111932
 31
0.0
  0
LINE
  5
1dc
100
AcDbEntity
  8
Cut
 62
7
100
AcDbLine
 10
196.197993
 20
16.111932
 30
0.0
 11
196.197993
 21
111.361932
 31
0.0
  0
LINE
  5
1dd
100
AcDbEntity
  8
Cut
 62
7
100
AcDbLine
 10
196.197993
 20
111.361932
 30
0.0
 11
192.630250
 21
111.361932
 31
0.0
  0
LINE
  5
1de
100
AcDbEntity
  8
Cut
 62
7
100
AcDbLine
 10
192.630250
 20
111.361932
 30
0.0
 11
192.630250
 21
114.338494
 31
0.0
  0
LINE
  5
1df
100
AcDbEntity
  8
Cut
 62
7
100
AcDbLine
 10
192.630250
 20
114.338494
 30
0.0
 11
186.081813
 21
114.338494
 31
0.0
  0
LINE
  5
1e0
100
AcDbEntity
  8
Cut
 62
7
100
AcDbLine
 10
186.081813
 20
114.338494
 30
0.0
 11
186.081813
 21
111.361932
 31
0.0
  0
LINE
  5
1e1
100
AcDbEntity
  8
Cut
 62
7
100
AcDbLine
 10
186.081813
 20
111.361932
 30
0.0
 11
179.533375
 21
111.361932
 31
0.0
  0
LINE
  5
1e2
100
AcDbEntity
  8
Cut
 62
7
100
AcDbLine
 10
179.533375
 20
111.361932
 30
0.0
 11
179.533375
 21
114.338494
 31
0.0
  0
LINE
  5
1e3
100
AcDbEntity
  8
Cut
 62
7
100
AcDbLine
 10
179.533375
 20
114.338494
 30
0.0
 11
172.984938
 21
114.338494
 31
0.0
  0
LINE
  5
1e4
100
AcDbEntity
  8
Cut
 62
7
100
AcDbLine
 10
172.984938
 20
114.338494
 30
0.0
 11
172.984938
 21
111.361932
 31
0.0
  0
LINE
  5
1e5
100
AcDbEntity
  8
Cut
 62
7
100
AcDbLine
 10
172.984938
 20
111.361932
 30
0.0
 11
166.436500
 21
111.361932
 31
0.0
  0
LINE
  5
1e6
100
AcDbEntity
  8
Cut
 62
7
100
AcDbLine
 10
166.436500
 20
111.361932
 30
0.0
 11
166.436500
 21
105.408807
 31
0.0
  0
LINE
  5
1e7
100
AcDbEntity
  8
Cut
 62
7
100
AcDbLine
 10
166.436500
 20
105.408807
 30
0.0
 11
169.413063
 21
105.408807
 31
0.0
  0
LINE
  5
1e8
100
AcDbEntity
  8
Cut
 62
7
100
AcDbLine
 10
169.413063
 20
105.408807
 30
0.0
 11
169.413063
 21
96.479119
 31
0.0
  0
LINE
  5
1e9
100
AcDbEntity
  8
Cut
 62
7
100
AcDbLine
 10
169.413063
 20
96.479119
 30
0.0
 11
166.436500
 21
96.479119
 31
0.0
  0
LINE
  5
1ea
100
AcDbEntity
  8
Cut
 62
7
100
AcDbLine
 10
166.436500
 20
96.479119
 30
0.0
 11
166.436500
 21
90.525994
 31
0.0
  0
LINE
  5
1eb
100
AcDbEntity
  8
Cut
 62
7
100
AcDbLine
 10
166.436500
 20
90.525994
 30
0.0
 11
169.413063
 21
90.525994
 31
0.0
  0
LINE
  5
1ec
100
AcDbEntity
  8
Cut
 62
7
100
AcDbLine
 10
169.413063
 20
90.525994
 30
0.0
 11
169.413063
 21
84.572869
 31
0.0
  0
LINE
  5
1ed
100
AcDbEntity
  8
Cut
 62
7
100
AcDbLine
 10
169.413063
 20
84.572869
 30
0.0
 11
166.436500
 21
84.572869
 31
0.0
  0
LINE
  5
1ee
100
AcDbEntity
  8
Cut
 62
7
100
AcDbLine
 10
166.436500
 20
84.572869
 30
0.0
 11
166.436500
 21
78.619744
 31
0.0
  0
LINE
  5
1ef
100
AcDbEntity
  8
Cut
 62
7
100
AcDbLine
 10
166.436500
 20
78.619744
 30
0.0
 11
169.413063
 21
78.619744
 31
0.0
  0
LINE
  5
1f0
100
AcDbEntity
  8
Cut
 62
7
100
AcDbLine
 10
169.413063
 20
78.619744
 30
0.0
 11
169.413063
 21
72.666619
 31
0.0
  0
LINE
  5
1f1
100
AcDbEntity
  8
Cut
 62
7
100
AcDbLine
 10
169.413063
 20
72.666619
 30
0.0
 11
166.436500
 21
72.666619
 31
0.0
  0
LINE
  5
1f2
100
AcDbEntity
  8
Cut
 62
7
100
AcDbLine
 10
166.436500
 20
72.666619
 30
0.0
 11
166.436500
 21
66.713494
 31
0.0
  0
LINE
  5
1f3
100
AcDbEntity
  8
Cut
 62
7
100
AcDbLine
 10
166.436500
 20
66.713494
 30
0.0
 11
169.413063
 21
66.713494
 31
0.0
  0
LINE
  5
1f4
100
AcDbEntity
  8
Cut
 62
7
100
AcDbLine
 10
169.413063
 20
66.713494
 30
0.0
 11
169.413063
 21
60.760369
 31
0.0
  0
LINE
  5
1f5
100
AcDbEntity
  8
Cut
 62
7
100
AcDbLine
 10
169.413063
 20
60.760369
 30
0.0
 11
166.436500
 21
60.760369
 31
0.0
  0
LINE
  5
1f6
100
AcDbEntity
  8
Cut
 62
7
100
AcDbLine
 10
166.436500
 20
60.760369
 30
0.0
 11
166.436500
 21
54.807244
 31
0.0
  0
LINE
  5
1f7
100
AcDbEntity
  8
Cut
 62
7
100
AcDbLine
 10
166.436500
 20
54.807244
 30
0.0
 11
169.413063
 21
54.807244
 31
0.0
  0
LINE
  5
1f8
100
AcDbEntity
  8
Cut
 62
7
100
AcDbLine
 10
169.413063
 20
54.807244
 30
0.0
 11
169.413063
 21
48.854119
 31
0.0
  0
LINE
  5
1f9
100
AcDbEntity
  8
Cut
 62
7
100
AcDbLine
 10
169.413063
 20
48.854119
 30
0.0
 11
166.436500
 21
48.854119
 31
0.0
  0
LINE
  5
1fa
100
AcDbEntity
  8
Cut
 62
7
100
AcDbLine
 10
166.436500
 20
48.854119
 30
0.0
 11
166.436500
 21
42.900994
 31
0.0
  0
LINE
  5
1fb
100
AcDbEntity
  8
Cut
 62
7
100
AcDbLine
 10
166.436500
 20
42.900994
 30
0.0
 11
169.413063
 21
42.900994
 31
0.0
  0
LINE
  5
1fc
100
AcDbEntity
  8
Cut
 62
7
100
AcDbLine
 10
169.413063
 20
42.900994
 30
0.0
 11
169.413063
 21
36.947869
 31
0.0
  0
LINE
  5
1fd
100
AcDbEntity
  8
Cut
 62
7
100
AcDbLine
 10
169.413063
 20
36.947869
 30
0.0
 11
166.436500
 21
36.947869
 31
0.0
  0
LINE
  5
1fe
100
AcDbEntity
  8
Cut
 62
7
100
AcDbLine
 10
166.436500
 20
36.947869
 30
0.0
 11
166.436500
 21
30.994744
 31
0.0
  0
LINE
  5
1ff
100
AcDbEntity
  8
Cut
 62
7
100
AcDbLine
 10
166.436500
 20
30.994744
 30
0.0
 11
169.413063
 21
30.994744
 31
0.0
  0
LINE
  5
200
100
AcDbEntity
  8
Cut
 62
7
100
AcDbLine
 10
169.413063
 20
30.994744
 30
0.0
 11
169.413063
 21
22.065057
 31
0.0
  0
LINE
  5
201
100
AcDbEntity
  8
Cut
 62
7
100
AcDbLine
 10
169.413063
 20
22.065057
 30
0.0
 11
166.436500
 21
22.065057
 31
0.0
  0
LINE
  5
202
100
AcDbEntity
  8
Cut
 62
7
100
AcDbLine
 10
166.436500
 20
22.065057
 30
0.0
 11
166.436500
 21
16.111932
 31
0.0
  0
LINE
  5
203
100
AcDbEntity
  8
Cut
 62
7
100
AcDbLine
 10
196.221816
 20
16.111932
 30
0.0
 11
199.789558
 21
16.111932
 31
0.0
  0
LINE
  5
204
100
AcDbEntity
  8
Cut
 62
7
100
AcDbLine
 10
199.789558
 20
16.111932
 30
0.0
 11
199.789558
 21
13.135369
 31
0.0
  0
LINE
  5
205
100
AcDbEntity
  8
Cut
 62
7
100
AcDbLine
 10
199.789558
 20
13.135369
 30
0.0
 11
206.337995
 21
13.135369
 31
0.0
  0
LINE
  5
206
100
AcDbEntity
  8
Cut
 62
7
100
AcDbLine
 10
206.337995
 20
13.135369
 30
0.0
 11
206.337995
 21
16.111932
 31
0.0
  0
LINE
  5
207
100
AcDbEntity
  8
Cut
 62
7
100
AcDbLine
 10
206.337995
 20
16.111932
 30
0.0
 11
212.886433
 21
16.111932
 31
0.0
  0
LINE
  5
208
100
AcDbEntity
  8
Cut
 62
7
100
AcDbLine
 10
212.886433
 20
16.111932
 30
0.0
 11
212.886433
 21
13.135369
 31
0.0
  0
LINE
  5
209
100
AcDbEntity
  8
Cut
 62
7
100
AcDbLine
 10
212.886433
 20
13.135369
 30
0.0
 11
219.434870
 21
13.135369
 31
0.0
  0
LINE
  5
20a
100
AcDbEntity
  8
Cut
 62
7
100
AcDbLine
 10
219.434870
 20
13.135369
 30
0.0
 11
219.434870
 21
16.111932
 31
0.0
  0
LINE
  5
20b
100
AcDbEntity
  8
Cut
 62
7
100
AcDbLine
 10
219.434870
 20
16.111932
 30
0.0
 11
225.983308
 21
16.111932
 31
0.0
  0
LINE
  5
20c
100
AcDbEntity
  8
Cut
 62
7
100
AcDbLine
 10
225.983308
 20
16.111932
 30
0.0
 11
225.983308
 21
22.065057
 31
0.0
  0
LINE
  5
20d
100
AcDbEntity
  8
Cut
 62
7
100
AcDbLine
 10
225.983308
 20
22.065057
 30
0.0
 11
223.006745
 21
22.065057
 31
0.0
  0
LINE
  5
20e
100
AcDbEntity
  8
Cut
 62
7
100
AcDbLine
 10
223.006745
 20
22.065057
 30
0.0
 11
223.006745
 21
30.994744
 31
0.0
  0
LINE
  5
20f
100
AcDbEntity
  8
Cut
 62
7
100
AcDbLine
 10
223.006745
 20
30.994744
 30
0.0
 11
225.983308
 21
30.994744
 31
0.0
  0
LINE
  5
210
100
AcDbEntity
  8
Cut
 62
7
100
AcDbLine
 10
225.983308
 20
30.994744
 30
0.0
 11
225.983308
 21
36.947869
 31
0.0
  0
LINE
  5
211
100
AcDbEntity
  8
Cut
 62
7
100
AcDbLine
 10
225.983308
 20
36.947869
 30
0.0
 11
223.006745
 21
36.947869
 31
0.0
  0
LINE
  5
212
100
AcDbEntity
  8
Cut
 62
7
100
AcDbLine
 10
223.006745
 20
36.947869
 30
0.0
 11
223.006745
 21
42.900994
 31
0.0
  0
LINE
  5
213
100
AcDbEntity
  8
Cut
 62
7
100
AcDbLine
 10
223.006745
 20
42.900994
 30
0.0
 11
225.983308
 21
42.900994
 31
0.0
  0
LINE
  5
214
100
AcDbEntity
  8
Cut
 62
7
100
AcDbLine
 10
225.983308
 20
42.900994
 30
0.0
 11
225.983308
 21
48.854119
 31
0.0
  0
LINE
  5
215
100
AcDbEntity
  8
Cut
 62
7
100
AcDbLine
 10
225.983308
 20
48.854119
 30
0.0
 11
223.006745
 21
48.854119
 31
0.0
  0
LINE
  5
216
100
AcDbEntity
  8
Cut
 62
7
100
AcDbLine
 10
223.006745
 20
48.854119
 30
0.0
 11
223.006745
 21
54.807244
 31
0.0
  0
LINE
  5
217
100
AcDbEntity
  8
Cut
 62
7
100
AcDbLine
 10
223.006745
 20
54.807244
 30
0.0
 11
225.983308
 21
54.807244
 31
0.0
  0
LINE
  5
218
100
AcDbEntity
  8
Cut
 62
7
100
AcDbLine
 10
225.983308
 20
54.807244
 30
0.0
 11
225.983308
 21
60.760369
 31
0.0
  0
LINE
  5
219
100
AcDbEntity
  8
Cut
 62
7
100
AcDbLine
 10
225.983308
 20
60.760369
 30
0.0
 11
223.006745
 21
60.760369
 31
0.0
  0
LINE
  5
21a
100
AcDbEntity
  8
Cut
 62
7
100
AcDbLine
 10
223.006745
 20
60.760369
 30
0.0
 11
223.006745
 21
66.713494
 31
0.0
  0
LINE
  5
21b
100
AcDbEntity
  8
Cut
 62
7
100
AcDbLine
 10
223.006745
 20
66.713494
 30
0.0
 11
225.983308
 21
66.713494
 31
0.0
  0
LINE
  5
21c
100
AcDbEntity
  8
Cut
 62
7
100
AcDbLine
 10
225.983308
 20
66.713494
 30
0.0
 11
225.983308
 21
72.666619
 31
0.0
  0
LINE
  5
21d
100
AcDbEntity
  8
Cut
 62
7
100
AcDbLine
 10
225.983308
 20
72.666619
 30
0.0
 11
223.006745
 21
72.666619
 31
0.0
  0
LINE
  5
21e
100
AcDbEntity
  8
Cut
 62
7
100
AcDbLine
 10
223.006745
 20
72.666619
 30
0.0
 11
223.006745
 21
78.619744
 31
0.0
  0
LINE
  5
21f
100
AcDbEntity
  8
Cut
 62
7
100
AcDbLine
 10
223.006745
 20
78.619744
 30
0.0
 11
225.983308
 21
78.619744
 31
0.0
  0
LINE
  5
220
100
AcDbEntity
  8
Cut
 62
7
100
AcDbLine
 10
225.983308
 20
78.619744
 30
0.0
 11
225.983308
 21
84.572869
 31
0.0
  0
LINE
  5
221
100
AcDbEntity
  8
Cut
 62
7
100
AcDbLine
 10
225.983308
 20
84.572869
 30
0.0
 11
223.006745
 21
84.572869
 31
0.0
  0
LINE
  5
222
100
AcDbEntity
  8
Cut
 62
7
100
AcDbLine
 10
223.006745
 20
84.572869
 30
0.0
 11
223.006745
 21
90.525994
 31
0.0
  0
LINE
  5
223
100
AcDbEntity
  8
Cut
 62
7
100
AcDbLine
 10
223.006745
 20
90.525994
 30
0.0
 11
225.983308
 21
90.525994
 31
0.0
  0
LINE
  5
224
100
AcDbEntity
  8
Cut
 62
7
100
AcDbLine
 10
225.983308
 20
90.525994
 30
0.0
 11
225.983308
 21
96.479119
 31
0.0
  0
LINE
  5
225
100
AcDbEntity
  8
Cut
 62
7
100
AcDbLine
 10
225.983308
 20
96.479119
 30
0.0
 11
223.006745
 21
96.479119
 31
0.0
  0
LINE
  5
226
100
AcDbEntity
  8
Cut
 62
7
100
AcDbLine
 10
223.006745
 20
96.479119
 30
0.0
 11
223.006745
 21
105.408807
 31
0.0
  0
LINE
  5
227
100
AcDbEntity
  8
Cut
 62
7
100
AcDbLine
 10
223.006745
 20
105.408807
 30
0.0
 11
225.983308
 21
105.408807
 31
0.0
  0
LINE
  5
228
100
AcDbEntity
  8
Cut
 62
7
100
AcDbLine
 10
225.983308
 20
105.408807
 30
0.0
 11
225.983308
 21
111.361932
 31
0.0
  0
LINE
  5
229
100
AcDbEntity
  8
Cut
 62
7
100
AcDbLine
 10
225.983308
 20
111.361932
 30
0.0
 11
219.434870
 21
111.361932
 31
0.0
  0
LINE
  5
22a
100
AcDbEntity
  8
Cut
 62
7
100
AcDbLine
 10
219.434870
 20
111.361932
 30
0.0
 11
219.434870
 21
114.338494
 31
0.0
  0
LINE
  5
22b
100
AcDbEntity
  8
Cut
 62
7
100
AcDbLine
 10
219.434870
 20
114.338494
 30
0.0
 11
212.886433
 21
114.338494
 31
0.0
  0
LINE
  5
22c
100
AcDbEntity
  8
Cut
 62
7
100
AcDbLine
 10
212.886433
 20
114.338494
 30
0.0
 11
212.886433
 21
111.361932
 31
0.0
  0
LINE
  5
22d
100
AcDbEntity
  8
Cut
 62
7
100
AcDbLine
 10
212.886433
 20
111.361932
 30
0.0
 11
206.337995
 21
111.361932
 31
0.0
  0
LINE
  5
22e
100
AcDbEntity
  8
Cut
 62
7
100
AcDbLine
 10
206.337995
 20
111.361932
 30
0.0
 11
206.337995
 21
114.338494
 31
0.0
  0
LINE
  5
22f
100
AcDbEntity
  8
Cut
 62
7
100
AcDbLine
 10
206.337995
 20
114.338494
 30
0.0
 11
199.789558
 21
114.338494
 31
0.0
  0
LINE
  5
230
100
AcDbEntity
  8
Cut
 62
7
100
AcDbLine
 10
199.789558
 20
114.338494
 30
0.0
 11
199.789558
 21
111.361932
 31
0.0
  0
LINE
  5
231
100
AcDbEntity
  8
Cut
 62
7
100
AcDbLine
 10
199.789558
 20
111.361932
 30
0.0
 11
196.221816
 21
111.361932
 31
0.0
  0
ENDSEC
  0
SECTION
  2
OBJECTS
  0
DICTIONARY
  5
C
330
0
100
AcDbDictionary
  3
ACAD_GROUP
350
D
  3
ACAD_MLINESTYLE
350
17
  0
DICTIONARY
  5
D
330
C
100
AcDbDictionary
  0
DICTIONARY
  5
1A
330
C
100
AcDbDictionary
  0
DICTIONARY
  5
17
330
C
100
AcDbDictionary
  3
STANDARD
350
18
  0
DICTIONARY
  5
19
330
C
100
AcDbDictionary
  0
ENDSEC
  0
EOF
