<?xml version="1.0" encoding="UTF-8" standalone="no"?>
<svg
   xmlns:dc="http://purl.org/dc/elements/1.1/"
   xmlns:cc="http://creativecommons.org/ns#"
   xmlns:rdf="http://www.w3.org/1999/02/22-rdf-syntax-ns#"
   xmlns:svg="http://www.w3.org/2000/svg"
   xmlns="http://www.w3.org/2000/svg"
   xmlns:sodipodi="http://sodipodi.sourceforge.net/DTD/sodipodi-0.dtd"
   xmlns:inkscape="http://www.inkscape.org/namespaces/inkscape"
   version="1.1"
   width="6.5255799in"
   height="6.0177202in"
   viewBox="0 0 587.30219 541.59482"
   id="svg2"
   inkscape:version="0.91 r13725"
   sodipodi:docname="rectangular_drawer.svg">
  <metadata
     id="metadata32">
    <rdf:RDF>
      <cc:Work
         rdf:about="">
        <dc:format>image/svg+xml</dc:format>
        <dc:type
           rdf:resource="http://purl.org/dc/dcmitype/StillImage" />
        <dc:title></dc:title>
      </cc:Work>
    </rdf:RDF>
  </metadata>
  <defs
     id="defs30" />
  <sodipodi:namedview
     pagecolor="#ffffff"
     bordercolor="#666666"
     borderopacity="1"
     objecttolerance="10"
     gridtolerance="10"
     guidetolerance="10"
     inkscape:pageopacity="0"
     inkscape:pageshadow="2"
     inkscape:window-width="1680"
     inkscape:window-height="997"
     id="namedview28"
     showgrid="false"
     inkscape:document-units="in"
     fit-margin-left="0.25"
     fit-margin-top="0.25"
     fit-margin-right="0.25"
     fit-margin-bottom="0.25"
     inkscape:zoom="0.95178817"
     inkscape:cx="47.32723"
     inkscape:cy="221.48094"
     inkscape:window-x="-8"
     inkscape:window-y="-8"
     inkscape:window-maximized="1"
     inkscape:current-layer="svg2" />
  <!-- Front-->
  <path
     transform="translate(22.545,22.545)"
     style="fill:none;stroke:#000000;stroke-width:0.09"
     d="m 241.875,0 28.8324,0 0,28.8324 -10.62,0 0,27.4176 10.62,0 0,23.2074 -10.62,0 0,27.4176 10.62,0 0,28.8324 -28.8324,0 0,-10.62 -27.4176,0 0,10.62 -23.2074,0 0,-10.62 -21.7926,0 0,10.62 -23.2074,0 0,-10.62 -21.7926,0 0,10.62 -23.2074,0 0,-10.62 -21.7926,0 0,10.62 -23.2074,0 0,-10.62 -27.4176,0 0,10.62 -28.8324,0 0,-28.8324 10.62,0 0,-27.4176 -10.62,0 0,-23.2074 10.62,0 0,-27.4176 -10.62,0 L 0,0 28.8324,0"
     id="polygon6"
     inkscape:connector-curvature="0"
     sodipodi:nodetypes="cccccccccccccccccccccccccccccccccccccccccc" />
  <!-- Back-->
  <path
     transform="translate(293.2524,22.545)"
     style="fill:none;stroke:#000000;stroke-width:0.09"
     d="m 241.875,0 28.8324,0 0,28.8324 -10.62,0 0,27.4176 10.62,0 0,23.2074 -10.62,0 0,27.4176 10.62,0 0,28.8324 -28.8324,0 0,-10.62 -27.4176,0 0,10.62 -23.2074,0 0,-10.62 -21.7926,0 0,10.62 -23.2074,0 0,-10.62 -21.7926,0 0,10.62 -23.2074,0 0,-10.62 -21.7926,0 0,10.62 -23.2074,0 0,-10.62 -27.4176,0 0,10.62 -28.8324,0 0,-28.8324 10.62,0 0,-27.4176 -10.62,0 0,-23.2074 10.62,0 0,-27.4176 -10.62,0 L 0,0 28.8324,0"
     id="polygon10"
     inkscape:connector-curvature="0"
     sodipodi:nodetypes="cccccccccccccccccccccccccccccccccccccccccc" />
  <!-- Left-->
  <!-- Right-->
  <g
     transform="matrix(0,-1,1,0,293.2524,519.0498)"
     id="g12">
    <path
       style="fill:none;stroke:#000000;stroke-width:0.09"
       d="m 28.8324,135.7074 -18.2124,0 0,-28.125 -10.62,0 0,-28.8324 10.62,0 0,-21.7926 -10.62,0 0,-28.8324 10.62,0 0,-28.125 18.2124,0 0,10.62 27.4176,0 0,-10.62 23.2074,0 0,10.62 21.7926,0 0,-10.62 23.2074,0 0,10.62 21.7926,0 0,-10.62 23.2074,0 0,10.62 21.7926,0 0,-10.62 23.2074,0 0,10.62 21.7926,0 0,-10.62 23.2074,0 0,10.62 21.7926,0 0,-10.62 23.2074,0 0,10.62 27.4176,0 0,-10.62 18.2124,0 0,28.125 10.62,0 0,28.8324 -10.62,0 0,21.7926 10.62,0 0,28.8324 -10.62,0 0,28.125 -18.2124,0"
       id="polygon14"
       inkscape:connector-curvature="0"
       sodipodi:nodetypes="cccccccccccccccccccccccccccccccccccccccccccccccccc" />
  </g>
  <g
     transform="matrix(0,-1,1,0,429.0498,519.0498)"
     id="g16">
    <path
       style="fill:none;stroke:#000000;stroke-width:0.09"
       d="m 331.875,0 18.2124,0 0,28.125 10.62,0 0,28.8324 -10.62,0 0,21.7926 10.62,0 0,28.8324 -10.62,0 0,28.125 -18.2124,0 0,-10.62 -27.4176,0 0,10.62 -23.2074,0 0,-10.62 -21.7926,0 0,10.62 -23.2074,0 0,-10.62 -21.7926,0 0,10.62 -23.2074,0 0,-10.62 -21.7926,0 0,10.62 -23.2074,0 0,-10.62 -21.7926,0 0,10.62 -23.2074,0 0,-10.62 -21.7926,0 0,10.62 -23.2074,0 0,-10.62 -27.4176,0 0,10.62 -18.2124,0 0,-28.125 -10.62,0 0,-28.8324 10.62,0 0,-21.7926 -10.62,0 0,-28.8324 10.62,0 0,-28.125 18.2124,0"
       id="polygon18"
       inkscape:connector-curvature="0"
       sodipodi:nodetypes="cccccccccccccccccccccccccccccccccccccccccccccccccc" />
  </g>
  <!-- Top-->
  <path
     transform="translate(22.545,158.2524)"
     style="fill:none;stroke:#000000;stroke-width:0.09"
     d="m 78.75,10.62 0,-10.62 23.2074,0 0,10.62 21.7926,0 0,-10.62 23.2074,0 0,10.62 21.7926,0 0,-10.62 23.2074,0 0,10.62 21.7926,0 0,-10.62 28.8324,0 0,10.62 17.505,0 0,17.505 10.62,0 0,28.8324 -10.62,0 0,21.7926 10.62,0 0,23.2074 -10.62,0 0,21.7926 10.62,0 0,23.2074 -10.62,0 0,21.7926 10.62,0 0,23.2074 -10.62,0 0,21.7926 10.62,0 0,23.2074 -10.62,0 0,21.7926 10.62,0 0,23.2074 -10.62,0 0,21.7926 10.62,0 0,28.8324 -10.62,0 0,17.505 -17.505,0 0,10.62 -28.8324,0 0,-10.62 -21.7926,0 0,10.62 -23.2074,0 0,-10.62 -21.7926,0 0,10.62 -23.2074,0 0,-10.62 -21.7926,0 0,10.62 -23.2074,0 0,-10.62 -21.7926,0 0,10.62 -28.8324,0 0,-10.62 -17.505,0 0,-17.505 -10.62,0 0,-28.8324 10.62,0 0,-21.7926 -10.62,0 0,-23.2074 10.62,0 0,-21.7926 -10.62,0 0,-23.2074 10.62,0 0,-21.7926 -10.62,0 0,-23.2074 10.62,0 0,-21.7926 -10.62,0 0,-23.2074 10.62,0 0,-21.7926 -10.62,0 0,-23.2074 10.62,0 0,-21.7926 -10.62,0 0,-28.8324 10.62,0 0,-17.505 17.505,0 0,-10.62 28.8324,0 0,10.62 z"
     id="polygon22" />
  <!-- Bottom-->
  <path
     style="fill:none;fill-rule:evenodd;stroke:#000000;stroke-width:0.09;stroke-linecap:butt;stroke-linejoin:miter;stroke-miterlimit:4;stroke-dasharray:none;stroke-opacity:1"
     d="M 22.612765,22.591433 563.18323,22.545"
     id="path4166"
     inkscape:connector-curvature="0" />
  <path
     style="fill:none;fill-rule:evenodd;stroke:#000000;stroke-width:0.09;stroke-linecap:butt;stroke-linejoin:miter;stroke-miterlimit:4;stroke-dasharray:none;stroke-opacity:1"
     d="m 429.0498,168.94103 0,339.29556"
     id="path4180"
     inkscape:connector-curvature="0" />
</svg>
