<?xml version="1.0" encoding="UTF-8" standalone="no"?>
<svg
   xmlns:dc="http://purl.org/dc/elements/1.1/"
   xmlns:cc="http://creativecommons.org/ns#"
   xmlns:rdf="http://www.w3.org/1999/02/22-rdf-syntax-ns#"
   xmlns:svg="http://www.w3.org/2000/svg"
   xmlns="http://www.w3.org/2000/svg"
   xmlns:sodipodi="http://sodipodi.sourceforge.net/DTD/sodipodi-0.dtd"
   xmlns:inkscape="http://www.inkscape.org/namespaces/inkscape"
   version="1.1"
   width="8.5167198in"
   height="6.0167198in"
   viewBox="0 0 766.50478 541.50478"
   id="svg2"
   inkscape:version="0.91 r13725"
   sodipodi:docname="square_drawer.svg">
  <metadata
     id="metadata32">
    <rdf:RDF>
      <cc:Work
         rdf:about="">
        <dc:format>image/svg+xml</dc:format>
        <dc:type
           rdf:resource="http://purl.org/dc/dcmitype/StillImage" />
        <dc:title></dc:title>
      </cc:Work>
    </rdf:RDF>
  </metadata>
  <defs
     id="defs30" />
  <sodipodi:namedview
     pagecolor="#ffffff"
     bordercolor="#666666"
     borderopacity="1"
     objecttolerance="10"
     gridtolerance="10"
     guidetolerance="10"
     inkscape:pageopacity="0"
     inkscape:pageshadow="2"
     inkscape:window-width="1680"
     inkscape:window-height="997"
     id="namedview28"
     showgrid="false"
     inkscape:document-units="in"
     fit-margin-left="0.25"
     fit-margin-top="0.25"
     fit-margin-bottom="0.25"
     fit-margin-right="0.25"
     inkscape:zoom="1.5990041"
     inkscape:cx="301.985"
     inkscape:cy="234.41419"
     inkscape:window-x="-8"
     inkscape:window-y="-8"
     inkscape:window-maximized="1"
     inkscape:current-layer="svg2" />
  <!-- Front-->
  <g
     transform="translate(22.545,22.545)"
     id="g4">
    <path
       style="fill:none;stroke:#000000;stroke-width:0.09"
       d="m 28.8324,135.7074 -28.8324,0 0,-28.8324 10.62,0 0,-27.4176 -10.62,0 0,-23.2074 10.62,0 0,-27.4176 -10.62,0 L 0,0 l 28.8324,0 0,10.62 27.4176,0 0,-10.62 23.2074,0 0,10.62 21.7926,0 0,-10.62 23.2074,0 0,10.62 21.7926,0 0,-10.62 23.2074,0 0,10.62 21.7926,0 0,-10.62 23.2074,0 0,10.62 21.7926,0 0,-10.62 23.2074,0 0,10.62 21.7926,0 0,-10.62 23.2074,0 0,10.62 27.4176,0 0,-10.62 28.8324,0 0,28.8324 -10.62,0 0,27.4176 10.62,0 0,23.2074 -10.62,0 0,27.4176 10.62,0 0,28.8324 -28.8324,0"
       id="polygon6"
       inkscape:connector-curvature="0"
       sodipodi:nodetypes="cccccccccccccccccccccccccccccccccccccccccccccccccc" />
    <path
       style="fill:none;fill-rule:evenodd;stroke:#000000;stroke-width:0.09;stroke-linecap:butt;stroke-linejoin:miter;stroke-miterlimit:4;stroke-dasharray:none;stroke-opacity:1"
       d="m 0.639402,135.69986 720.807758,0.001"
       id="path4161"
       inkscape:connector-curvature="0" />
  </g>
  <!-- Back-->
  <g
     transform="translate(383.2524,22.545)"
     id="g8">
    <path
       style="fill:none;stroke:#000000;stroke-width:0.09"
       d="m 28.8324,135.7074 -28.8324,0 0,-28.8324 10.62,0 0,-27.4176 -10.62,0 0,-23.2074 10.62,0 0,-27.4176 -10.62,0 L 0,0 l 28.8324,0 0,10.62 27.4176,0 0,-10.62 23.2074,0 0,10.62 21.7926,0 0,-10.62 23.2074,0 0,10.62 21.7926,0 0,-10.62 23.2074,0 0,10.62 21.7926,0 0,-10.62 23.2074,0 0,10.62 21.7926,0 0,-10.62 23.2074,0 0,10.62 21.7926,0 0,-10.62 23.2074,0 0,10.62 27.4176,0 0,-10.62 28.8324,0 0,28.8324 -10.62,0 0,27.4176 10.62,0 0,23.2074 -10.62,0 0,27.4176 10.62,0 0,28.8324 -28.8324,0"
       id="polygon10"
       inkscape:connector-curvature="0"
       sodipodi:nodetypes="cccccccccccccccccccccccccccccccccccccccccccccccccc" />
  </g>
  <!-- Left-->
  <g
     transform="translate(22.545,159.3987)"
     id="g12">
    <path
       transform="translate(0,-1.0563)"
       style="fill:none;stroke:#000000;stroke-width:0.09"
       d="m 331.875,0 18.2124,0 0,28.125 10.62,0 0,28.8324 -10.62,0 0,21.7926 10.62,0 0,28.8324 -10.62,0 0,28.125 -18.2124,0 0,-10.62 -27.4176,0 0,10.62 -23.2074,0 0,-10.62 -21.7926,0 0,10.62 -23.2074,0 0,-10.62 -21.7926,0 0,10.62 -23.2074,0 0,-10.62 -21.7926,0 0,10.62 -23.2074,0 0,-10.62 -21.7926,0 0,10.62 -23.2074,0 0,-10.62 -21.7926,0 0,10.62 -23.2074,0 0,-10.62 -27.4176,0 0,10.62 -18.2124,0 0,-28.125 -10.62,0 0,-28.8324 10.62,0 0,-21.7926 -10.62,0 0,-28.8324 10.62,0 0,-28.125 18.2124,0"
       id="polygon14"
       inkscape:connector-curvature="0"
       sodipodi:nodetypes="cccccccccccccccccccccccccccccccccccccccccccccccccc" />
  </g>
  <!-- Right-->
  <g
     transform="translate(22.545,294.06163)"
     id="g16">
    <path
       style="fill:none;stroke:#000000;stroke-width:0.09"
       d="m 28.8324,135.7074 -18.2124,0 0,-28.125 -10.62,0 0,-28.8324 10.62,0 0,-21.7926 -10.62,0 0,-28.8324 10.62,0 0,-28.125 18.2124,0 0,10.62 27.4176,0 0,-10.62 23.2074,0 0,10.62 21.7926,0 0,-10.62 23.2074,0 0,10.62 21.7926,0 0,-10.62 23.2074,0 0,10.62 21.7926,0 0,-10.62 23.2074,0 0,10.62 21.7926,0 0,-10.62 23.2074,0 0,10.62 21.7926,0 0,-10.62 23.2074,0 0,10.62 27.4176,0 0,-10.62 18.2124,0 0,28.125 10.62,0 0,28.8324 -10.62,0 0,21.7926 10.62,0 0,28.8324 -10.62,0 0,28.125 -18.2124,0"
       id="polygon18"
       inkscape:connector-curvature="0"
       sodipodi:nodetypes="cccccccccccccccccccccccccccccccccccccccccccccccccc" />
  </g>
  <!-- Top-->
  <!-- Bottom-->
  <g
     transform="translate(383.2524,158.2524)"
     id="g24">
    <path
       style="fill:none;stroke:#000000;stroke-width:0.09"
       d="m 56.9574,0 0,10.62 21.7926,0 0,-10.62 23.2074,0 0,10.62 21.7926,0 0,-10.62 23.2074,0 0,10.62 21.7926,0 0,-10.62 23.2074,0 0,10.62 21.7926,0 0,-10.62 23.2074,0 0,10.62 21.7926,0 0,-10.62 23.2074,0 0,10.62 21.7926,0 0,-10.62 28.8324,0 0,10.62 17.505,0 0,17.505 10.62,0 0,28.8324 -10.62,0 0,21.7926 10.62,0 0,23.2074 -10.62,0 0,21.7926 10.62,0 0,23.2074 -10.62,0 0,21.7926 10.62,0 0,23.2074 -10.62,0 0,21.7926 10.62,0 0,23.2074 -10.62,0 0,21.7926 10.62,0 0,23.2074 -10.62,0 0,21.7926 10.62,0 0,28.8324 -10.62,0 0,17.505 -17.505,0 0,10.62 -28.8324,0 0,-10.62 -21.7926,0 0,10.62 -23.2074,0 0,-10.62 -21.7926,0 0,10.62 -23.2074,0 0,-10.62 -21.7926,0 0,10.62 -23.2074,0 0,-10.62 -21.7926,0 0,10.62 -23.2074,0 0,-10.62 -21.7926,0 0,10.62 -23.2074,0 0,-10.62 -21.7926,0 0,10.62 -28.8324,0 0,-10.62 -17.505,0 0,-17.505 -10.62,0 0,-28.8324 10.62,0 0,-21.7926 -10.62,0 0,-23.2074 10.62,0 0,-21.7926 -10.62,0 0,-23.2074 10.62,0 0,-21.7926 -10.62,0 0,-23.2074 10.62,0 0,-21.7926 -10.62,0 0,-23.2074 10.62,0 0,-21.7926 -10.62,0 0,-23.2074 10.62,0 0,-21.7926 -10.62,0 0,-28.8324 10.62,0 0,-17.505 17.505,0 0,-10.62 z"
       id="polygon26" />
  </g>
  <path
     style="fill:none;fill-rule:evenodd;stroke:#000000;stroke-width:0.09;stroke-linecap:butt;stroke-linejoin:miter;stroke-miterlimit:4;stroke-dasharray:none;stroke-opacity:1"
     d="m 33.151544,429.85923 339.508196,0"
     id="path4164"
     inkscape:connector-curvature="0" />
  <path
     style="fill:none;fill-rule:evenodd;stroke:#000000;stroke-width:0.09;stroke-linecap:butt;stroke-linejoin:miter;stroke-miterlimit:4;stroke-dasharray:none;stroke-opacity:1"
     d="m 383.87765,158.24486 359.91152,0"
     id="path4167"
     inkscape:connector-curvature="0" />
</svg>
