<?xml version="1.0" encoding="UTF-8" standalone="no"?>
<svg
   xmlns:dc="http://purl.org/dc/elements/1.1/"
   xmlns:cc="http://creativecommons.org/ns#"
   xmlns:rdf="http://www.w3.org/1999/02/22-rdf-syntax-ns#"
   xmlns:svg="http://www.w3.org/2000/svg"
   xmlns="http://www.w3.org/2000/svg"
   xmlns:xlink="http://www.w3.org/1999/xlink"
   xmlns:sodipodi="http://sodipodi.sourceforge.net/DTD/sodipodi-0.dtd"
   xmlns:inkscape="http://www.inkscape.org/namespaces/inkscape"
   viewBox="0.0011 -3.49551 628.23662 314.99999"
   version="1.0"
   overflow="visible"
   id="svg2"
   inkscape:version="0.91 r13725"
   sodipodi:docname="4-spoke-3.5-inch.svg"
   width="6.9804072in"
   height="3.5in"
   style="overflow:visible">
  <metadata
     id="metadata22">
    <rdf:RDF>
      <cc:Work
         rdf:about="">
        <dc:format>image/svg+xml</dc:format>
        <dc:type
           rdf:resource="http://purl.org/dc/dcmitype/StillImage" />
        <dc:title></dc:title>
      </cc:Work>
    </rdf:RDF>
  </metadata>
  <sodipodi:namedview
     pagecolor="#ffffff"
     bordercolor="#666666"
     borderopacity="1"
     objecttolerance="10"
     gridtolerance="10"
     guidetolerance="10"
     inkscape:pageopacity="0"
     inkscape:pageshadow="2"
     inkscape:window-width="838"
     inkscape:window-height="988"
     id="namedview20"
     showgrid="false"
     inkscape:document-units="in"
     units="in"
     fit-margin-top="0"
     fit-margin-left="0"
     fit-margin-right="0"
     fit-margin-bottom="0"
     inkscape:zoom="0.74730845"
     inkscape:cx="273.49763"
     inkscape:cy="242.56765"
     inkscape:window-x="833"
     inkscape:window-y="0"
     inkscape:window-maximized="0"
     inkscape:current-layer="svg2" />
  <defs
     id="defs4" />
  <g
     id="draft"
     transform="matrix(89.270241,11.200221,11.200221,-89.270241,-18.858188,290.70155)"
     style="fill:none;stroke:#000000;stroke-width:0.00100254;stroke-miterlimit:4;stroke-dasharray:none;stroke-opacity:1">
    <g
       id="ID_0"
       style="color:#000000;fill:none;stroke:#000000;stroke-width:0.00100254;stroke-miterlimit:4;stroke-dasharray:none;stroke-opacity:1">
      <path
         style="fill:none;fill-opacity:1;stroke:#000000;stroke-width:0.10335966;stroke-miterlimit:4;stroke-dasharray:none;stroke-opacity:1"
         d="m 174.77539,-0.33789062 -0.92773,2.01171872 -0.86133,2.0136719 -0.79297,2.015625 -0.72266,2.0175781 -0.64453,2.015625 -0.5664,2.0156249 -0.48047,2.011719 -0.38477,2.007812 -0.15039,1.001954 -0.11914,1 -0.0449,0.5 -0.0352,0.496093 -0.0254,0.498047 -0.008,0.496094 -14.5625,1.710937 -0.12305,-0.480468 -0.13867,-0.478516 -0.15234,-0.478516 -0.15821,-0.472656 -0.34961,-0.947265 -0.37695,-0.9375 -0.83789,-1.865235 -0.93359,-1.847656 -1.01758,-1.828125 -1.09571,-1.8125 -1.16796,-1.794922 -1.23828,-1.7773438 -1.30665,-1.7597656 -1.36718,-1.7402344 -12.42383,3.0097657 -0.41992,2.1738281 -0.35547,2.162109 -0.28711,2.146485 -0.2168,2.130859 -0.14648,2.113281 -0.0664,2.091797 0.0156,2.06836 0.10742,2.041015 0.0937,1.009766 0.12305,0.998047 0.0742,0.496093 0.0859,0.492188 0.0957,0.488281 0.10938,0.484375 -13.73047,5.144532 -0.23437,-0.435547 -0.25,-0.431641 -0.25977,-0.427734 -0.26953,-0.421875 -0.5625,-0.835938 -0.5918,-0.820312 -1.25976,-1.609375 -1.34766,-1.570313 -1.42773,-1.533203 -1.4961,-1.496094 -1.56445,-1.46289 -1.62695,-1.429688 -1.68946,-1.396484 -1.74609,-1.363282 -11.341798,5.896485 0.113281,2.210937 0.173828,2.183594 0.234375,2.154297 0.296875,2.121094 0.365235,2.085937 0.435546,2.046875 0.509766,2.00586 0.59375,1.955078 0.332031,0.957031 0.359375,0.941406 0.191407,0.462891 0.199218,0.457031 L 95.591797,43 l 0.222656,0.443359 -12.101562,8.28125 -0.332032,-0.367187 -0.345703,-0.359375 -0.353515,-0.351563 -0.363282,-0.345703 -0.746093,-0.675781 -0.773438,-0.65625 -1.607422,-1.261719 -1.683594,-1.201172 -1.75,-1.146484 -1.814453,-1.095703 -1.86914,-1.044922 -1.921875,-1 -1.972656,-0.951172 -2.021485,-0.90625 -9.601562,8.439453 0.638671,2.121094 L 57.884766,53 l 0.74414,2.035156 0.798828,1.988282 0.851563,1.9375 0.912109,1.882812 0.976563,1.826172 1.042969,1.755859 0.552734,0.84961 0.574219,0.828125 0.294921,0.404296 0.304688,0.396485 0.310547,0.386719 0.322265,0.378906 -9.765624,10.935547 -0.410157,-0.277344 -0.421875,-0.265625 -0.427734,-0.257812 -0.435547,-0.25 -0.886719,-0.476563 -0.90625,-0.451172 -1.863281,-0.839844 -1.923828,-0.763671 -1.974609,-0.69336 -2.021485,-0.630859 -2.064453,-0.56836 -2.105469,-0.507812 -2.142578,-0.453125 -2.181641,-0.396484 -7.302734,10.492187 1.128906,1.904297 1.167969,1.855469 1.207031,1.796875 1.25,1.740234 1.292969,1.677734 1.335938,1.609375 1.384765,1.539063 1.433594,1.455078 0.738281,0.693359 0.75586,0.666016 0.384765,0.320313 0.388672,0.314453 0.396484,0.300781 0.404297,0.291016 -6.865234,12.955082 -0.466797,-0.17188 -0.472656,-0.1582 -0.476563,-0.14649 -0.482421,-0.13867 -0.97461,-0.25 -0.988281,-0.22265 -2.011719,-0.36915 -2.048828,-0.28125 -2.083984,-0.20117 -2.113282,-0.12695 -2.140625,-0.0586 -2.166015,0.01 -2.189453,0.0742 -2.210938,0.13672 -4.580078,11.93359 1.550781,1.58203 1.578125,1.51953 1.603516,1.45704 1.628906,1.38867 1.65625,1.32031 1.683594,1.24414 1.710937,1.16211 1.742188,1.07031 0.882812,0.4961 0.892578,0.46484 0.449219,0.2207 0.455078,0.21094 0.455079,0.19727 0.460937,0.18554 -3.564453,14.22266 -0.494141,-0.0547 -0.496093,-0.041 -0.5,-0.0293 -0.5,-0.0176 -1.00586,-0.01 -1.013672,0.0195 -2.039062,0.12304 -2.058594,0.2168 -2.070312,0.30469 -2.083985,0.38086 -2.0917968,0.45703 -2.1015624,0.52734 -2.1074219,0.59571 -2.1132813,0.66211 -1.59179685,12.68359 1.88476565,1.16406 1.8945312,1.09766 1.90625,1.03125 1.9140625,0.95898 1.9257809,0.88477 1.931641,0.80469 1.939453,0.71875 1.947266,0.62304 0.974609,0.27149 0.978516,0.23828 0.490234,0.10547 0.490235,0.0957 0.492187,0.084 0.490234,0.0684 -0.05859,14.66211 -0.492188,0.0645 -0.490234,0.0801 -0.492188,0.0918 -0.490234,0.10156 -0.980469,0.23243 -0.978515,0.26171 -1.951172,0.60743 -1.945313,0.70312 -1.9375,0.78906 -1.9316405,0.86914 -1.921875,0.94532 -1.9140625,1.01367 -1.9042969,1.08398 -1.89453122,1.14844 1.49023432,12.69531 2.1074219,0.67969 2.1054688,0.61328 2.0957031,0.54297 2.089844,0.47266 2.078125,0.40039 2.070312,0.31836 2.054688,0.23437 2.039062,0.13867 1.013672,0.0293 1.00586,-0.004 0.501953,-0.0137 0.498047,-0.0234 0.496093,-0.0371 0.494141,-0.0508 3.453125,14.25 -0.462891,0.18164 -0.458984,0.19336 -0.455078,0.20704 -0.451172,0.21679 -0.896484,0.45899 -0.886719,0.48828 -1.75,1.05859 -1.720703,1.14844 -1.69336,1.23047 -1.666015,1.30469 -1.640625,1.37695 -1.615235,1.44336 -1.589843,1.50781 -1.5644536,1.56836 4.4843746,11.9707 2.210938,0.1543 2.189453,0.0918 2.166016,0.0273 2.140625,-0.041 2.115234,-0.11133 2.083984,-0.1836 2.052735,-0.26562 2.013672,-0.35352 0.990234,-0.21484 0.974609,-0.24219 0.484375,-0.13476 0.478516,-0.14258 0.474609,-0.1543 0.466797,-0.16797 6.761719,13.00977 -0.40625,0.28711 -0.398437,0.29883 -0.390626,0.30859 -0.388671,0.31836 -0.759766,0.66015 -0.744141,0.6875 -1.445312,1.44532 -1.396484,1.52539 -1.34961,1.60156 -1.304687,1.66602 -1.263672,1.73046 -1.22461,1.78711 -1.18164,1.84375 -1.142578,1.89844 7.21875,10.54883 2.18164,-0.37891 2.148438,-0.43554 2.109375,-0.49219 2.068359,-0.55078 2.029297,-0.61524 1.978516,-0.67773 1.927734,-0.74805 1.871094,-0.82422 0.910156,-0.44531 0.890625,-0.4707 0.435547,-0.24414 0.43164,-0.25391 0.421876,-0.26367 L 55,280.58008 l 9.679688,11.01367 -0.324219,0.375 -0.316407,0.38672 -0.30664,0.39453 -0.300781,0.40039 -0.580079,0.82422 -0.55664,0.8457 -1.058594,1.74805 -0.990234,1.81641 -0.927735,1.87695 -0.867187,1.92969 -0.814453,1.98242 -0.757813,2.02929 -0.707031,2.07227 -0.65625,2.11523 9.533203,8.51563 2.029297,-0.89063 1.980469,-0.93554 1.929687,-0.98242 1.876953,-1.03125 1.822266,-1.08008 1.759766,-1.13281 1.693359,-1.1875 1.619141,-1.25 0.77539,-0.6504 0.753906,-0.66796 0.363282,-0.34375 0.359375,-0.34961 0.347656,-0.35547 0.335937,-0.36719 12.033204,8.37695 -0.226563,0.44336 -0.212891,0.44922 -0.205078,0.45703 -0.193359,0.46289 -0.367187,0.93555 -0.339844,0.95508 -0.609375,1.95117 -0.525391,2 -0.451172,2.04492 -0.380859,2.08203 -0.316406,2.11914 -0.251953,2.1504 -0.189454,2.18359 -0.130859,2.21094 11.294925,5.98632 1.75586,-1.34961 1.70117,-1.38281 1.63867,-1.41797 1.57617,-1.44922 1.50781,-1.48437 1.4375,-1.52148 1.36133,-1.5586 1.27344,-1.59961 0.59766,-0.81836 0.57031,-0.82812 0.27148,-0.42188 0.26563,-0.42382 0.25195,-0.42969 0.23828,-0.43555 13.6875,5.25391 -0.11328,0.48242 -0.0996,0.48828 -0.0879,0.49219 -0.0801,0.49609 -0.13086,0.99609 -0.10156,1.00977 -0.12305,2.03906 -0.0332,2.06836 0.0508,2.09375 0.12891,2.11328 0.20117,2.13282 0.26953,2.14843 0.33789,2.16407 0.40235,2.17968 12.39843,3.10743 1.38282,-1.73047 1.31836,-1.75 1.2539,-1.76758 1.18164,-1.78516 1.11133,-1.80273 1.0332,-1.82031 0.94727,-1.83985 0.85156,-1.85742 0.38672,-0.9375 0.35352,-0.94141 0.16601,-0.47265 0.15235,-0.47657 0.14257,-0.47656 0.12891,-0.48047 14.54688,1.82618 0.006,0.49609 0.0195,0.49805 0.0332,0.49804 0.041,0.5 0.11133,1 0.14258,1.00391 0.36719,2.00976 0.46289,2.01563 0.55078,2.01953 0.63086,2.02149 0.70508,2.02343 0.77734,2.02149 0.8457,2.02148 0.91211,2.01953 12.78321,0.0488 0.92773,-2.01172 0.86133,-2.01172 0.79297,-2.01757 0.7207,-2.01563 0.64844,-2.01758 0.5664,-2.01367 0.47852,-2.01367 0.38281,-2.00586 0.15235,-1.00391 0.11914,-0.99804 0.0449,-0.5 0.0371,-0.49805 0.0234,-0.49805 0.008,-0.49609 14.5625,-1.70899 0.125,0.48047 0.13867,0.47852 0.14844,0.47656 0.16211,0.47461 0.3457,0.94531 0.37891,0.93946 0.83984,1.86523 0.93164,1.8457 1.01758,1.83008 1.0957,1.81055 1.16992,1.79492 1.23829,1.77734 1.30468,1.75977 1.36914,1.74219 12.42188,-3.00977 0.41992,-2.17578 0.35547,-2.16211 0.28711,-2.14648 0.21875,-2.13086 0.14453,-2.11133 0.0684,-2.09375 -0.0156,-2.06836 -0.10937,-2.04102 -0.0918,-1.00781 -0.125,-1 -0.0742,-0.49414 -0.0859,-0.49414 -0.0957,-0.48828 -0.10937,-0.48438 13.73047,-5.14453 0.23437,0.4375 0.25,0.43164 0.25977,0.42579 0.26953,0.42382 0.5625,0.83399 0.59375,0.82226 1.25976,1.60938 1.34571,1.57031 1.42578,1.53125 1.49805,1.49805 1.5664,1.46289 1.62696,1.42773 1.6875,1.39649 1.74609,1.36523 11.3418,-5.89648 -0.11329,-2.21289 -0.17187,-2.1836 -0.23438,-2.15234 -0.29882,-2.12305 -0.36524,-2.08398 -0.43555,-2.04883 -0.50976,-2.00391 -0.59375,-1.95508 -0.33203,-0.95703 -0.35938,-0.9414 -0.1914,-0.46289 -0.19922,-0.45899 -0.20899,-0.45117 -0.22265,-0.44336 12.09961,-8.28125 0.33203,0.36719 0.3457,0.36133 0.35352,0.35156 0.36328,0.3457 0.74609,0.67578 0.77149,0.65625 1.60937,1.26172 1.68359,1.19922 1.75196,1.14649 1.81054,1.09765 1.86915,1.04492 1.92382,0.99805 1.97266,0.95117 2.02148,0.90625 9.60157,-8.4375 -0.63868,-2.12109 -0.6914,-2.07813 -0.74219,-2.03711 -0.79687,-1.98632 -0.85352,-1.93946 -0.91211,-1.88281 -0.97461,-1.82422 -1.04492,-1.75781 -0.55078,-0.84961 -0.57422,-0.82617 -0.29688,-0.4043 -0.30468,-0.39648 -0.31055,-0.38868 -0.32422,-0.37695 9.76758,-10.9375 0.41211,0.2793 0.41992,0.26562 0.42774,0.25586 0.43554,0.25 0.88672,0.47657 0.90625,0.45312 1.86524,0.83984 1.92187,0.76368 1.97461,0.69336 2.02148,0.6289 2.06446,0.56836 2.10547,0.50977 2.14453,0.45312 2.17969,0.39453 7.30273,-10.49023 -1.12891,-1.90625 -1.16601,-1.85352 -1.21094,-1.79882 -1.24805,-1.73829 -1.29297,-1.67773 -1.33593,-1.61133 -1.38477,-1.53711 -1.43359,-1.45703 -0.73828,-0.69141 -0.75586,-0.66601 -0.38477,-0.32227 -0.38867,-0.3125 -0.39648,-0.30273 -0.4043,-0.28906 6.86719,-12.95703 0.46484,0.17187 0.47266,0.1582 0.47851,0.14844 0.48047,0.13672 0.97656,0.25 0.98828,0.22461 2.00977,0.36914 2.04883,0.28125 2.08398,0.20117 2.11328,0.12695 2.14063,0.0566 2.16601,-0.008 2.18946,-0.0742 2.21093,-0.13867 4.58204,-11.93359 -1.55274,-1.58008 -1.57617,-1.51953 -1.60547,-1.45703 -1.62891,-1.39063 -1.65625,-1.31836 -1.68359,-1.24414 -1.71094,-1.16406 -1.74218,-1.07031 -0.88282,-0.49414 -0.89257,-0.4668 -0.44922,-0.21875 -0.45313,-0.21094 -0.45703,-0.19922 -0.46094,-0.18359 3.56446,-14.22266 0.49414,0.0547 0.49609,0.041 0.5,0.0273 0.5,0.0176 1.00781,0.0117 1.01172,-0.0215 2.04102,-0.12304 2.05664,-0.2168 2.07031,-0.30274 2.08398,-0.38085 2.0918,-0.45704 2.10156,-0.52929 2.10743,-0.59571 2.11523,-0.66015 1.58984,-12.6836 -1.88476,-1.16601 -1.89453,-1.09766 -1.90625,-1.02929 -1.91602,-0.95899 -1.92187,-0.88476 -1.9336,-0.80665 -1.93945,-0.71874 -1.94531,-0.62305 -0.97657,-0.26953 -0.97851,-0.23828 -0.49024,-0.10743 -0.49023,-0.0937 -0.49023,-0.084 -0.49219,-0.0684 0.0586,-14.66406 0.49219,-0.0645 0.49219,-0.0801 0.49023,-0.0898 0.49024,-0.10351 0.98046,-0.23047 0.97852,-0.26172 1.95117,-0.60742 1.94531,-0.70313 1.93946,-0.79101 1.92969,-0.86914 1.92187,-0.94336 1.91602,-1.01563 1.90429,-1.08203 1.89258,-1.14844 -1.49023,-12.69726 -2.10938,-0.67969 -2.10156,-0.61133 -2.09766,-0.54492 -2.08789,-0.47266 -2.08008,-0.39843 -2.06836,-0.32032 -2.05664,-0.23242 -2.03906,-0.13867 -1.01172,-0.0293 -1.00781,0.002 -0.5,0.0137 -0.5,0.0254 -0.49609,0.0352 -0.49414,0.0527 -3.45313,-14.25195 0.46289,-0.17969 0.45899,-0.19531 0.45507,-0.20704 0.45118,-0.21484 0.89648,-0.45898 0.88672,-0.49024 1.75,-1.05664 1.7207,-1.14844 1.69336,-1.23046 1.66602,-1.30664 1.64062,-1.37696 1.61719,-1.44336 1.58789,-1.50781 1.56445,-1.56836 -4.48633,-11.9707 -2.20898,-0.1543 -2.18945,-0.0898 -2.16602,-0.0274 -2.14062,0.041 -2.11328,0.10937 -2.08594,0.18555 -2.05078,0.26563 -2.01367,0.35156 -0.99024,0.21484 -0.97852,0.24414 -0.48242,0.13281 -0.47851,0.14454 -0.47266,0.15429 -0.46875,0.16602 -6.76172,-13.009767 0.40625,-0.285156 0.39649,-0.298828 0.39453,-0.310547 0.38672,-0.31836 0.75976,-0.660156 0.74414,-0.6875 1.44727,-1.443359 1.39453,-1.527344 1.34961,-1.599609 1.30664,-1.667969 1.26172,-1.728516 1.22266,-1.787109 1.18359,-1.845703 1.14258,-1.896485 -7.21875,-10.548828 -2.1836,0.376954 -2.14648,0.435546 -2.10938,0.492188 -2.07031,0.552734 -2.02539,0.613282 -1.98047,0.677734 -1.92969,0.748047 -1.86914,0.826172 -0.91015,0.445312 -0.89063,0.470703 -0.43554,0.244141 -0.43164,0.253906 -0.42188,0.263672 -0.41406,0.273437 -9.67969,-11.013671 0.32617,-0.375 0.31446,-0.384766 0.30664,-0.394531 0.29882,-0.402344 0.58204,-0.822266 0.55859,-0.845703 1.05664,-1.748047 0.99023,-1.816406 0.92774,-1.876953 0.86914,-1.931641 0.8125,-1.980468 0.75976,-2.029297 0.70704,-2.072266 0.65625,-2.117187 -9.53516,-8.513672 -2.0293,0.888672 -1.98047,0.935546 -1.92968,0.984376 -1.87696,1.03125 -1.82226,1.080078 -1.75977,1.132812 -1.69336,1.1875 -1.61719,1.25 -0.77929,0.648438 -0.75195,0.669922 -0.36524,0.341796 -0.35742,0.34961 -0.3457,0.357422 -0.33594,0.365234 -12.03516,-8.376953 0.22656,-0.441406 0.2129,-0.451172 0.20507,-0.455078 0.19336,-0.462891 0.36719,-0.9375 0.33984,-0.953125 0.60938,-1.953125 0.52734,-2 0.44922,-2.042969 0.38281,-2.083984 0.31446,-2.117188 0.25195,-2.152343 0.18945,-2.181641 0.13086,-2.210937 -11.29492,-5.986329 -1.75586,1.34961 -1.69922,1.382812 -1.63867,1.416016 -1.57617,1.451172 -1.50977,1.484375 -1.4375,1.521484 -1.35937,1.558594 -1.27344,1.599609 -0.59961,0.816407 -0.57031,0.830078 -0.27149,0.419922 -0.26367,0.425781 -0.25195,0.429687 -0.24024,0.435547 -13.6875,-5.255859 0.11329,-0.482422 0.0996,-0.488281 0.0879,-0.490235 0.0801,-0.496094 0.13086,-0.998046 0.10157,-1.007813 0.125,-2.041015 0.0312,-2.06836 -0.0508,-2.091797 L 231.73047,15.28125 231.5293,13.148438 231.25977,11 230.92188,8.8339844 230.51953,6.65625 218.12109,3.5488281 l -1.38281,1.7285157 -1.31836,1.75 -1.2539,1.7675781 -1.18164,1.7851561 -1.11133,1.802734 -1.03125,1.822266 -0.94727,1.837891 -0.85351,1.857422 -0.38672,0.9375 -0.35547,0.941406 -0.16211,0.474609 -0.1543,0.47461 -0.14258,0.478515 -0.12695,0.478516 -14.54883,-1.824219 -0.006,-0.496094 -0.0195,-0.498046 -0.0312,-0.5 -0.043,-0.498047 -0.11133,-1.001953 -0.14257,-1.001954 -0.36524,-2.011718 -0.46484,-2.015625 -0.55078,-2.0195316 -0.63086,-2.0214844 -0.70508,-2.0214844 -0.77734,-2.0234375 -0.84571,-2.0195312 -0.91211,-2.01953128 -12.7832,-0.0507812 z m 4.81055,38.25195262 5.45117,6.236329 -12.0957,96.410159 -7.29688,8.47265 -4.29883,2.44336 -3.90429,3.03516 -3.42969,3.5625 -10.01563,4.97656 -96.408199,-12.0957 -4.695313,-6.82227 2.646484,-8.91992 3.22461,-8.72851 3.787109,-8.49805 4.335938,-8.23242 4.865234,-7.92969 L 67.125,94.226562 72.984375,87 l 6.318359,-6.830078 6.751954,-6.400391 7.15625,-5.947265 7.529292,-5.464844 7.8711,-4.962891 8.17969,-4.435547 8.45117,-3.890625 8.6875,-3.330078 8.88672,-2.753906 9.04882,-2.167969 9.16993,-1.572265 9.2539,-0.96875 9.29688,-0.361329 z m 36.82226,4.621094 8.91992,2.646485 8.72852,3.222656 8.49805,3.789062 8.23242,4.335938 7.92969,4.865234 7.59765,5.373047 7.22657,5.859375 6.83007,6.318359 6.40039,6.751954 5.94727,7.15625 5.46484,7.529294 4.96289,7.8711 4.4336,8.17968 3.89258,8.45118 3.33007,8.6875 2.75391,8.88671 2.16797,9.04883 1.57227,9.16992 0.96874,9.25391 0.35938,9.29688 -6.23438,5.45117 -96.41015,-12.09571 -8.47266,-7.29687 -2.44336,-4.29883 -3.03515,-3.9043 -3.5625,-3.43164 -4.97657,-10.01367 12.09571,-96.408201 6.82226,-4.695313 z M 180.68945,170.42969 a 9.6653799,9.6653799 0 0 1 0.96289,0.0723 9.6653799,9.6653799 0 0 1 8.38672,10.79297 9.6653799,9.6653799 0 0 1 -10.79297,8.38672 9.6653799,9.6653799 0 0 1 -8.38671,-10.79297 9.6653799,9.6653799 0 0 1 9.83007,-8.45898 z m -136.181638,5.07422 96.410158,12.0957 8.47461,7.29492 2.4414,4.30078 3.03516,3.9043 3.5625,3.42969 4.97656,10.01367 -12.0957,96.41015 -6.82227,4.69532 -8.91992,-2.64649 -8.72656,-3.22461 -8.5,-3.78711 -8.23242,-4.33593 -7.92969,-4.86719 -7.595702,-5.37305 -7.228516,-5.85742 -6.830078,-6.31836 -6.400391,-6.75195 -5.947265,-7.15625 -5.464844,-7.5293 -4.960938,-7.87109 -4.4375,-8.17969 -3.890625,-8.45117 -3.330078,-8.6875 -2.755859,-8.88672 -2.166016,-9.04883 -1.572266,-9.17187 -0.966796,-9.25196 -0.361328,-9.29883 6.234374,-5.44921 z m 172.392578,21.6289 96.41016,12.09571 4.69531,6.82226 -2.64648,8.91992 -3.22461,8.72657 -3.78711,8.49804 -4.33594,8.23438 -4.86524,7.92969 -5.37304,7.5957 -5.85938,7.22851 -6.31836,6.83008 -6.75195,6.40039 -7.15625,5.94727 -7.5293,5.46484 -7.87109,4.96094 -8.17969,4.43555 -8.45117,3.89257 -8.6875,3.33008 -8.88672,2.75391 -9.04883,2.16797 -9.16992,1.57226 -9.2539,0.9668 -9.29883,0.36133 -5.44922,-6.23438 12.0957,-96.41015 7.29492,-8.47461 4.30078,-2.44141 3.9043,-3.03515 3.43164,-3.5625 10.01172,-4.97657 z"
         transform="matrix(0.00962411,0.00120748,0.00120748,-0.00962411,-0.20317479,3.2662787)"
         id="path8"
         inkscape:connector-curvature="0" />
    </g>
  </g>
  <circle
     style="fill:none;fill-opacity:1;stroke:#000000;stroke-width:0.81656951;stroke-linecap:round;stroke-linejoin:miter;stroke-miterlimit:4;stroke-dasharray:none;stroke-opacity:1"
     id="path4158"
     cx="-204.92911"
     cy="79.933571"
     r="150.61365"
     transform="matrix(-0.91962511,-0.39279722,-0.39279722,0.91962511,0,0)" />
  <text
     xml:space="preserve"
     style="font-style:normal;font-weight:normal;font-size:22.5px;line-height:125%;font-family:sans-serif;letter-spacing:23.13999939px;word-spacing:0px;fill:#000000;fill-opacity:1;stroke:none;stroke-width:1px;stroke-linecap:butt;stroke-linejoin:miter;stroke-opacity:1"
     id="text4160"
     sodipodi:linespacing="125%"
     x="0.0079130288"
     transform="matrix(-0.35674577,-0.93420152,0.93420152,-0.35674577,69.232247,355.723)"><textPath
       xlink:href="#path4158"
       id="textPath4164"
       style="font-style:normal;font-variant:normal;font-weight:normal;font-stretch:normal;font-size:22.5px;font-family:Instruction;-inkscape-font-specification:Instruction;letter-spacing:23.13999939px;fill:#000000;fill-opacity:1;stroke:none;stroke-opacity:1">UHMLONTGIAZ<tspan
   style="font-size:22.5px;letter-spacing:24.01000023px;stroke:none"
   id="tspan4143">W</tspan>KFXQ<tspan
   style="font-size:22.5px;letter-spacing:23.19000053px;stroke:none"
   id="tspan4331">R</tspan>YVJEP<tspan
   style="letter-spacing:23.89999962px"
   id="tspan4142">S</tspan>CBD</textPath></text>
  <g
     style="overflow:visible"
     id="g3353"
     transform="translate(314.11835,4.7627824e-6)">
    <g
       style="fill:none;stroke:#000000;stroke-width:0.00100254;stroke-miterlimit:4;stroke-dasharray:none;stroke-opacity:1"
       transform="matrix(89.270241,11.200221,11.200221,-89.270241,-18.858204,290.70155)"
       id="draft-2">
      <g
         style="color:#000000;fill:none;stroke:#000000;stroke-width:0.00100254;stroke-miterlimit:4;stroke-dasharray:none;stroke-opacity:1"
         id="ID_0-5">
        <path
           inkscape:connector-curvature="0"
           id="path8-8"
           transform="matrix(0.00962411,0.00120748,0.00120748,-0.00962411,-0.20317479,3.2662787)"
           d="m 174.77539,-0.33789062 -0.92773,2.01171872 -0.86133,2.0136719 -0.79297,2.015625 -0.72266,2.0175781 -0.64453,2.015625 -0.5664,2.0156249 -0.48047,2.011719 -0.38477,2.007812 -0.15039,1.001954 -0.11914,1 -0.0449,0.5 -0.0352,0.496093 -0.0254,0.498047 -0.008,0.496094 -14.5625,1.710937 -0.12305,-0.480468 -0.13867,-0.478516 -0.15234,-0.478516 -0.15821,-0.472656 -0.34961,-0.947265 -0.37695,-0.9375 -0.83789,-1.865235 -0.93359,-1.847656 -1.01758,-1.828125 -1.09571,-1.8125 -1.16796,-1.794922 -1.23828,-1.7773438 -1.30665,-1.7597656 -1.36718,-1.7402344 -12.42383,3.0097657 -0.41992,2.1738281 -0.35547,2.162109 -0.28711,2.146485 -0.2168,2.130859 -0.14648,2.113281 -0.0664,2.091797 0.0156,2.06836 0.10742,2.041015 0.0937,1.009766 0.12305,0.998047 0.0742,0.496093 0.0859,0.492188 0.0957,0.488281 0.10938,0.484375 -13.73047,5.144532 -0.23437,-0.435547 -0.25,-0.431641 -0.25977,-0.427734 -0.26953,-0.421875 -0.5625,-0.835938 -0.5918,-0.820312 -1.25976,-1.609375 -1.34766,-1.570313 -1.42773,-1.533203 -1.4961,-1.496094 -1.56445,-1.46289 -1.62695,-1.429688 -1.68946,-1.396484 -1.74609,-1.363282 -11.341798,5.896485 0.113281,2.210937 0.173828,2.183594 0.234375,2.154297 0.296875,2.121094 0.365235,2.085937 0.435546,2.046875 0.509766,2.00586 0.59375,1.955078 0.332031,0.957031 0.359375,0.941406 0.191407,0.462891 0.199218,0.457031 L 95.591797,43 l 0.222656,0.443359 -12.101562,8.28125 -0.332032,-0.367187 -0.345703,-0.359375 -0.353515,-0.351563 -0.363282,-0.345703 -0.746093,-0.675781 -0.773438,-0.65625 -1.607422,-1.261719 -1.683594,-1.201172 -1.75,-1.146484 -1.814453,-1.095703 -1.86914,-1.044922 -1.921875,-1 -1.972656,-0.951172 -2.021485,-0.90625 -9.601562,8.439453 0.638671,2.121094 L 57.884766,53 l 0.74414,2.035156 0.798828,1.988282 0.851563,1.9375 0.912109,1.882812 0.976563,1.826172 1.042969,1.755859 0.552734,0.84961 0.574219,0.828125 0.294921,0.404296 0.304688,0.396485 0.310547,0.386719 0.322265,0.378906 -9.765624,10.935547 -0.410157,-0.277344 -0.421875,-0.265625 -0.427734,-0.257812 -0.435547,-0.25 -0.886719,-0.476563 -0.90625,-0.451172 -1.863281,-0.839844 -1.923828,-0.763671 -1.974609,-0.69336 -2.021485,-0.630859 -2.064453,-0.56836 -2.105469,-0.507812 -2.142578,-0.453125 -2.181641,-0.396484 -7.302734,10.492187 1.128906,1.904297 1.167969,1.855469 1.207031,1.796875 1.25,1.740234 1.292969,1.677734 1.335938,1.609375 1.384765,1.539063 1.433594,1.455078 0.738281,0.693359 0.75586,0.666016 0.384765,0.320313 0.388672,0.314453 0.396484,0.300781 0.404297,0.291016 -6.865234,12.955082 -0.466797,-0.17188 -0.472656,-0.1582 -0.476563,-0.14649 -0.482421,-0.13867 -0.97461,-0.25 -0.988281,-0.22265 -2.011719,-0.36915 -2.048828,-0.28125 -2.083984,-0.20117 -2.113282,-0.12695 -2.140625,-0.0586 -2.166015,0.01 -2.189453,0.0742 -2.210938,0.13672 -4.580078,11.93359 1.550781,1.58203 1.578125,1.51953 1.603516,1.45704 1.628906,1.38867 1.65625,1.32031 1.683594,1.24414 1.710937,1.16211 1.742188,1.07031 0.882812,0.4961 0.892578,0.46484 0.449219,0.2207 0.455078,0.21094 0.455079,0.19727 0.460937,0.18554 -3.564453,14.22266 -0.494141,-0.0547 -0.496093,-0.041 -0.5,-0.0293 -0.5,-0.0176 -1.00586,-0.01 -1.013672,0.0195 -2.039062,0.12304 -2.058594,0.2168 -2.070312,0.30469 -2.083985,0.38086 -2.0917968,0.45703 -2.1015624,0.52734 -2.1074219,0.59571 -2.1132813,0.66211 -1.59179685,12.68359 1.88476565,1.16406 1.8945312,1.09766 1.90625,1.03125 1.9140625,0.95898 1.9257809,0.88477 1.931641,0.80469 1.939453,0.71875 1.947266,0.62304 0.974609,0.27149 0.978516,0.23828 0.490234,0.10547 0.490235,0.0957 0.492187,0.084 0.490234,0.0684 -0.05859,14.66211 -0.492188,0.0645 -0.490234,0.0801 -0.492188,0.0918 -0.490234,0.10156 -0.980469,0.23243 -0.978515,0.26171 -1.951172,0.60743 -1.945313,0.70312 -1.9375,0.78906 -1.9316405,0.86914 -1.921875,0.94532 -1.9140625,1.01367 -1.9042969,1.08398 -1.89453122,1.14844 1.49023432,12.69531 2.1074219,0.67969 2.1054688,0.61328 2.0957031,0.54297 2.089844,0.47266 2.078125,0.40039 2.070312,0.31836 2.054688,0.23437 2.039062,0.13867 1.013672,0.0293 1.00586,-0.004 0.501953,-0.0137 0.498047,-0.0234 0.496093,-0.0371 0.494141,-0.0508 3.453125,14.25 -0.462891,0.18164 -0.458984,0.19336 -0.455078,0.20704 -0.451172,0.21679 -0.896484,0.45899 -0.886719,0.48828 -1.75,1.05859 -1.720703,1.14844 -1.69336,1.23047 -1.666015,1.30469 -1.640625,1.37695 -1.615235,1.44336 -1.589843,1.50781 -1.5644536,1.56836 4.4843746,11.9707 2.210938,0.1543 2.189453,0.0918 2.166016,0.0273 2.140625,-0.041 2.115234,-0.11133 2.083984,-0.1836 2.052735,-0.26562 2.013672,-0.35352 0.990234,-0.21484 0.974609,-0.24219 0.484375,-0.13476 0.478516,-0.14258 0.474609,-0.1543 0.466797,-0.16797 6.761719,13.00977 -0.40625,0.28711 -0.398437,0.29883 -0.390626,0.30859 -0.388671,0.31836 -0.759766,0.66015 -0.744141,0.6875 -1.445312,1.44532 -1.396484,1.52539 -1.34961,1.60156 -1.304687,1.66602 -1.263672,1.73046 -1.22461,1.78711 -1.18164,1.84375 -1.142578,1.89844 7.21875,10.54883 2.18164,-0.37891 2.148438,-0.43554 2.109375,-0.49219 2.068359,-0.55078 2.029297,-0.61524 1.978516,-0.67773 1.927734,-0.74805 1.871094,-0.82422 0.910156,-0.44531 0.890625,-0.4707 0.435547,-0.24414 0.43164,-0.25391 0.421876,-0.26367 L 55,280.58008 l 9.679688,11.01367 -0.324219,0.375 -0.316407,0.38672 -0.30664,0.39453 -0.300781,0.40039 -0.580079,0.82422 -0.55664,0.8457 -1.058594,1.74805 -0.990234,1.81641 -0.927735,1.87695 -0.867187,1.92969 -0.814453,1.98242 -0.757813,2.02929 -0.707031,2.07227 -0.65625,2.11523 9.533203,8.51563 2.029297,-0.89063 1.980469,-0.93554 1.929687,-0.98242 1.876953,-1.03125 1.822266,-1.08008 1.759766,-1.13281 1.693359,-1.1875 1.619141,-1.25 0.77539,-0.6504 0.753906,-0.66796 0.363282,-0.34375 0.359375,-0.34961 0.347656,-0.35547 0.335937,-0.36719 12.033204,8.37695 -0.226563,0.44336 -0.212891,0.44922 -0.205078,0.45703 -0.193359,0.46289 -0.367187,0.93555 -0.339844,0.95508 -0.609375,1.95117 -0.525391,2 -0.451172,2.04492 -0.380859,2.08203 -0.316406,2.11914 -0.251953,2.1504 -0.189454,2.18359 -0.130859,2.21094 11.294925,5.98632 1.75586,-1.34961 1.70117,-1.38281 1.63867,-1.41797 1.57617,-1.44922 1.50781,-1.48437 1.4375,-1.52148 1.36133,-1.5586 1.27344,-1.59961 0.59766,-0.81836 0.57031,-0.82812 0.27148,-0.42188 0.26563,-0.42382 0.25195,-0.42969 0.23828,-0.43555 13.6875,5.25391 -0.11328,0.48242 -0.0996,0.48828 -0.0879,0.49219 -0.0801,0.49609 -0.13086,0.99609 -0.10156,1.00977 -0.12305,2.03906 -0.0332,2.06836 0.0508,2.09375 0.12891,2.11328 0.20117,2.13282 0.26953,2.14843 0.33789,2.16407 0.40235,2.17968 12.39843,3.10743 1.38282,-1.73047 1.31836,-1.75 1.2539,-1.76758 1.18164,-1.78516 1.11133,-1.80273 1.0332,-1.82031 0.94727,-1.83985 0.85156,-1.85742 0.38672,-0.9375 0.35352,-0.94141 0.16601,-0.47265 0.15235,-0.47657 0.14257,-0.47656 0.12891,-0.48047 14.54688,1.82618 0.006,0.49609 0.0195,0.49805 0.0332,0.49804 0.041,0.5 0.11133,1 0.14258,1.00391 0.36719,2.00976 0.46289,2.01563 0.55078,2.01953 0.63086,2.02149 0.70508,2.02343 0.77734,2.02149 0.8457,2.02148 0.91211,2.01953 12.78321,0.0488 0.92773,-2.01172 0.86133,-2.01172 0.79297,-2.01757 0.7207,-2.01563 0.64844,-2.01758 0.5664,-2.01367 0.47852,-2.01367 0.38281,-2.00586 0.15235,-1.00391 0.11914,-0.99804 0.0449,-0.5 0.0371,-0.49805 0.0234,-0.49805 0.008,-0.49609 14.5625,-1.70899 0.125,0.48047 0.13867,0.47852 0.14844,0.47656 0.16211,0.47461 0.3457,0.94531 0.37891,0.93946 0.83984,1.86523 0.93164,1.8457 1.01758,1.83008 1.0957,1.81055 1.16992,1.79492 1.23829,1.77734 1.30468,1.75977 1.36914,1.74219 12.42188,-3.00977 0.41992,-2.17578 0.35547,-2.16211 0.28711,-2.14648 0.21875,-2.13086 0.14453,-2.11133 0.0684,-2.09375 -0.0156,-2.06836 -0.10937,-2.04102 -0.0918,-1.00781 -0.125,-1 -0.0742,-0.49414 -0.0859,-0.49414 -0.0957,-0.48828 -0.10937,-0.48438 13.73047,-5.14453 0.23437,0.4375 0.25,0.43164 0.25977,0.42579 0.26953,0.42382 0.5625,0.83399 0.59375,0.82226 1.25976,1.60938 1.34571,1.57031 1.42578,1.53125 1.49805,1.49805 1.5664,1.46289 1.62696,1.42773 1.6875,1.39649 1.74609,1.36523 11.3418,-5.89648 -0.11329,-2.21289 -0.17187,-2.1836 -0.23438,-2.15234 -0.29882,-2.12305 -0.36524,-2.08398 -0.43555,-2.04883 -0.50976,-2.00391 -0.59375,-1.95508 -0.33203,-0.95703 -0.35938,-0.9414 -0.1914,-0.46289 -0.19922,-0.45899 -0.20899,-0.45117 -0.22265,-0.44336 12.09961,-8.28125 0.33203,0.36719 0.3457,0.36133 0.35352,0.35156 0.36328,0.3457 0.74609,0.67578 0.77149,0.65625 1.60937,1.26172 1.68359,1.19922 1.75196,1.14649 1.81054,1.09765 1.86915,1.04492 1.92382,0.99805 1.97266,0.95117 2.02148,0.90625 9.60157,-8.4375 -0.63868,-2.12109 -0.6914,-2.07813 -0.74219,-2.03711 -0.79687,-1.98632 -0.85352,-1.93946 -0.91211,-1.88281 -0.97461,-1.82422 -1.04492,-1.75781 -0.55078,-0.84961 -0.57422,-0.82617 -0.29688,-0.4043 -0.30468,-0.39648 -0.31055,-0.38868 -0.32422,-0.37695 9.76758,-10.9375 0.41211,0.2793 0.41992,0.26562 0.42774,0.25586 0.43554,0.25 0.88672,0.47657 0.90625,0.45312 1.86524,0.83984 1.92187,0.76368 1.97461,0.69336 2.02148,0.6289 2.06446,0.56836 2.10547,0.50977 2.14453,0.45312 2.17969,0.39453 7.30273,-10.49023 -1.12891,-1.90625 -1.16601,-1.85352 -1.21094,-1.79882 -1.24805,-1.73829 -1.29297,-1.67773 -1.33593,-1.61133 -1.38477,-1.53711 -1.43359,-1.45703 -0.73828,-0.69141 -0.75586,-0.66601 -0.38477,-0.32227 -0.38867,-0.3125 -0.39648,-0.30273 -0.4043,-0.28906 6.86719,-12.95703 0.46484,0.17187 0.47266,0.1582 0.47851,0.14844 0.48047,0.13672 0.97656,0.25 0.98828,0.22461 2.00977,0.36914 2.04883,0.28125 2.08398,0.20117 2.11328,0.12695 2.14063,0.0566 2.16601,-0.008 2.18946,-0.0742 2.21093,-0.13867 4.58204,-11.93359 -1.55274,-1.58008 -1.57617,-1.51953 -1.60547,-1.45703 -1.62891,-1.39063 -1.65625,-1.31836 -1.68359,-1.24414 -1.71094,-1.16406 -1.74218,-1.07031 -0.88282,-0.49414 -0.89257,-0.4668 -0.44922,-0.21875 -0.45313,-0.21094 -0.45703,-0.19922 -0.46094,-0.18359 3.56446,-14.22266 0.49414,0.0547 0.49609,0.041 0.5,0.0273 0.5,0.0176 1.00781,0.0117 1.01172,-0.0215 2.04102,-0.12304 2.05664,-0.2168 2.07031,-0.30274 2.08398,-0.38085 2.0918,-0.45704 2.10156,-0.52929 2.10743,-0.59571 2.11523,-0.66015 1.58984,-12.6836 -1.88476,-1.16601 -1.89453,-1.09766 -1.90625,-1.02929 -1.91602,-0.95899 -1.92187,-0.88476 -1.9336,-0.80665 -1.93945,-0.71874 -1.94531,-0.62305 -0.97657,-0.26953 -0.97851,-0.23828 -0.49024,-0.10743 -0.49023,-0.0937 -0.49023,-0.084 -0.49219,-0.0684 0.0586,-14.66406 0.49219,-0.0645 0.49219,-0.0801 0.49023,-0.0898 0.49024,-0.10351 0.98046,-0.23047 0.97852,-0.26172 1.95117,-0.60742 1.94531,-0.70313 1.93946,-0.79101 1.92969,-0.86914 1.92187,-0.94336 1.91602,-1.01563 1.90429,-1.08203 1.89258,-1.14844 -1.49023,-12.69726 -2.10938,-0.67969 -2.10156,-0.61133 -2.09766,-0.54492 -2.08789,-0.47266 -2.08008,-0.39843 -2.06836,-0.32032 -2.05664,-0.23242 -2.03906,-0.13867 -1.01172,-0.0293 -1.00781,0.002 -0.5,0.0137 -0.5,0.0254 -0.49609,0.0352 -0.49414,0.0527 -3.45313,-14.25195 0.46289,-0.17969 0.45899,-0.19531 0.45507,-0.20704 0.45118,-0.21484 0.89648,-0.45898 0.88672,-0.49024 1.75,-1.05664 1.7207,-1.14844 1.69336,-1.23046 1.66602,-1.30664 1.64062,-1.37696 1.61719,-1.44336 1.58789,-1.50781 1.56445,-1.56836 -4.48633,-11.9707 -2.20898,-0.1543 -2.18945,-0.0898 -2.16602,-0.0274 -2.14062,0.041 -2.11328,0.10937 -2.08594,0.18555 -2.05078,0.26563 -2.01367,0.35156 -0.99024,0.21484 -0.97852,0.24414 -0.48242,0.13281 -0.47851,0.14454 -0.47266,0.15429 -0.46875,0.16602 -6.76172,-13.009767 0.40625,-0.285156 0.39649,-0.298828 0.39453,-0.310547 0.38672,-0.31836 0.75976,-0.660156 0.74414,-0.6875 1.44727,-1.443359 1.39453,-1.527344 1.34961,-1.599609 1.30664,-1.667969 1.26172,-1.728516 1.22266,-1.787109 1.18359,-1.845703 1.14258,-1.896485 -7.21875,-10.548828 -2.1836,0.376954 -2.14648,0.435546 -2.10938,0.492188 -2.07031,0.552734 -2.02539,0.613282 -1.98047,0.677734 -1.92969,0.748047 -1.86914,0.826172 -0.91015,0.445312 -0.89063,0.470703 -0.43554,0.244141 -0.43164,0.253906 -0.42188,0.263672 -0.41406,0.273437 -9.67969,-11.013671 0.32617,-0.375 0.31446,-0.384766 0.30664,-0.394531 0.29882,-0.402344 0.58204,-0.822266 0.55859,-0.845703 1.05664,-1.748047 0.99023,-1.816406 0.92774,-1.876953 0.86914,-1.931641 0.8125,-1.980468 0.75976,-2.029297 0.70704,-2.072266 0.65625,-2.117187 -9.53516,-8.513672 -2.0293,0.888672 -1.98047,0.935546 -1.92968,0.984376 -1.87696,1.03125 -1.82226,1.080078 -1.75977,1.132812 -1.69336,1.1875 -1.61719,1.25 -0.77929,0.648438 -0.75195,0.669922 -0.36524,0.341796 -0.35742,0.34961 -0.3457,0.357422 -0.33594,0.365234 -12.03516,-8.376953 0.22656,-0.441406 0.2129,-0.451172 0.20507,-0.455078 0.19336,-0.462891 0.36719,-0.9375 0.33984,-0.953125 0.60938,-1.953125 0.52734,-2 0.44922,-2.042969 0.38281,-2.083984 0.31446,-2.117188 0.25195,-2.152343 0.18945,-2.181641 0.13086,-2.210937 -11.29492,-5.986329 -1.75586,1.34961 -1.69922,1.382812 -1.63867,1.416016 -1.57617,1.451172 -1.50977,1.484375 -1.4375,1.521484 -1.35937,1.558594 -1.27344,1.599609 -0.59961,0.816407 -0.57031,0.830078 -0.27149,0.419922 -0.26367,0.425781 -0.25195,0.429687 -0.24024,0.435547 -13.6875,-5.255859 0.11329,-0.482422 0.0996,-0.488281 0.0879,-0.490235 0.0801,-0.496094 0.13086,-0.998046 0.10157,-1.007813 0.125,-2.041015 0.0312,-2.06836 -0.0508,-2.091797 L 231.73047,15.28125 231.5293,13.148438 231.25977,11 230.92188,8.8339844 230.51953,6.65625 218.12109,3.5488281 l -1.38281,1.7285157 -1.31836,1.75 -1.2539,1.7675781 -1.18164,1.7851561 -1.11133,1.802734 -1.03125,1.822266 -0.94727,1.837891 -0.85351,1.857422 -0.38672,0.9375 -0.35547,0.941406 -0.16211,0.474609 -0.1543,0.47461 -0.14258,0.478515 -0.12695,0.478516 -14.54883,-1.824219 -0.006,-0.496094 -0.0195,-0.498046 -0.0312,-0.5 -0.043,-0.498047 -0.11133,-1.001953 -0.14257,-1.001954 -0.36524,-2.011718 -0.46484,-2.015625 -0.55078,-2.0195316 -0.63086,-2.0214844 -0.70508,-2.0214844 -0.77734,-2.0234375 -0.84571,-2.0195312 -0.91211,-2.01953128 -12.7832,-0.0507812 z m 4.81055,38.25195262 5.45117,6.236329 -12.0957,96.410159 -7.29688,8.47265 -4.29883,2.44336 -3.90429,3.03516 -3.42969,3.5625 -10.01563,4.97656 -96.408199,-12.0957 -4.695313,-6.82227 2.646484,-8.91992 3.22461,-8.72851 3.787109,-8.49805 4.335938,-8.23242 4.865234,-7.92969 L 67.125,94.226562 72.984375,87 l 6.318359,-6.830078 6.751954,-6.400391 7.15625,-5.947265 7.529292,-5.464844 7.8711,-4.962891 8.17969,-4.435547 8.45117,-3.890625 8.6875,-3.330078 8.88672,-2.753906 9.04882,-2.167969 9.16993,-1.572265 9.2539,-0.96875 9.29688,-0.361329 z m 36.82226,4.621094 8.91992,2.646485 8.72852,3.222656 8.49805,3.789062 8.23242,4.335938 7.92969,4.865234 7.59765,5.373047 7.22657,5.859375 6.83007,6.318359 6.40039,6.751954 5.94727,7.15625 5.46484,7.529294 4.96289,7.8711 4.4336,8.17968 3.89258,8.45118 3.33007,8.6875 2.75391,8.88671 2.16797,9.04883 1.57227,9.16992 0.96874,9.25391 0.35938,9.29688 -6.23438,5.45117 -96.41015,-12.09571 -8.47266,-7.29687 -2.44336,-4.29883 -3.03515,-3.9043 -3.5625,-3.43164 -4.97657,-10.01367 12.09571,-96.408201 6.82226,-4.695313 z M 180.68945,170.42969 a 9.6653799,9.6653799 0 0 1 0.96289,0.0723 9.6653799,9.6653799 0 0 1 8.38672,10.79297 9.6653799,9.6653799 0 0 1 -10.79297,8.38672 9.6653799,9.6653799 0 0 1 -8.38671,-10.79297 9.6653799,9.6653799 0 0 1 9.83007,-8.45898 z m -136.181638,5.07422 96.410158,12.0957 8.47461,7.29492 2.4414,4.30078 3.03516,3.9043 3.5625,3.42969 4.97656,10.01367 -12.0957,96.41015 -6.82227,4.69532 -8.91992,-2.64649 -8.72656,-3.22461 -8.5,-3.78711 -8.23242,-4.33593 -7.92969,-4.86719 -7.595702,-5.37305 -7.228516,-5.85742 -6.830078,-6.31836 -6.400391,-6.75195 -5.947265,-7.15625 -5.464844,-7.5293 -4.960938,-7.87109 -4.4375,-8.17969 -3.890625,-8.45117 -3.330078,-8.6875 -2.755859,-8.88672 -2.166016,-9.04883 -1.572266,-9.17187 -0.966796,-9.25196 -0.361328,-9.29883 6.234374,-5.44921 z m 172.392578,21.6289 96.41016,12.09571 4.69531,6.82226 -2.64648,8.91992 -3.22461,8.72657 -3.78711,8.49804 -4.33594,8.23438 -4.86524,7.92969 -5.37304,7.5957 -5.85938,7.22851 -6.31836,6.83008 -6.75195,6.40039 -7.15625,5.94727 -7.5293,5.46484 -7.87109,4.96094 -8.17969,4.43555 -8.45117,3.89257 -8.6875,3.33008 -8.88672,2.75391 -9.04883,2.16797 -9.16992,1.57226 -9.2539,0.9668 -9.29883,0.36133 -5.44922,-6.23438 12.0957,-96.41015 7.29492,-8.47461 4.30078,-2.44141 3.9043,-3.03515 3.43164,-3.5625 10.01172,-4.97657 z"
           style="fill:none;fill-opacity:1;stroke:#000000;stroke-width:0.10335966;stroke-miterlimit:4;stroke-dasharray:none;stroke-opacity:1" />
      </g>
    </g>
    <circle
       transform="matrix(-0.91962511,-0.39279722,-0.39279722,0.91962511,0,0)"
       r="150.61365"
       cy="79.933571"
       cx="-204.92909"
       id="path4158-8"
       style="fill:none;fill-opacity:1;stroke:#000000;stroke-width:0.81656951;stroke-linecap:round;stroke-linejoin:miter;stroke-miterlimit:4;stroke-dasharray:none;stroke-opacity:1" />
    <text
       transform="matrix(-0.34659836,-0.93801365,0.93801365,-0.34659836,67.03152,354.73075)"
       x="0.0079130288"
       sodipodi:linespacing="125%"
       id="text4160-6"
       style="font-style:normal;font-variant:normal;font-weight:normal;font-stretch:normal;font-size:16.25px;line-height:125%;font-family:Magzetician;-inkscape-font-specification:Magzetician;letter-spacing:21.15999985px;word-spacing:0px;fill:#000000;fill-opacity:1;stroke:none;stroke-width:1px;stroke-linecap:butt;stroke-linejoin:miter;stroke-opacity:1"
       xml:space="preserve"><textPath
         style="font-style:normal;font-variant:normal;font-weight:normal;font-stretch:normal;font-size:16.25px;font-family:Magzetician;-inkscape-font-specification:Magzetician;letter-spacing:21.15999985px;fill:#000000;fill-opacity:1;stroke:none;stroke-opacity:1"
         id="textPath4164-0"
         xlink:href="#path4158-8">UHMLONTGIAZ<tspan
   id="tspan4143-0"
   style="font-style:normal;font-variant:normal;font-weight:normal;font-stretch:normal;font-size:16.25px;font-family:Magzetician;-inkscape-font-specification:Magzetician;letter-spacing:21.15999985px;stroke:none">W</tspan>KFXQ<tspan
   id="tspan4331-9"
   style="font-style:normal;font-variant:normal;font-weight:normal;font-stretch:normal;font-size:16.25px;font-family:Magzetician;-inkscape-font-specification:Magzetician;letter-spacing:21.15999985px;stroke:none">R</tspan>YVJEPSCBD</textPath></text>
  </g>
</svg>
