  999
DXF file created by gear template generator.  2017-01-27T23:22:25
  0
SECTION
  2
ENTITIES
 0
LWPOLYLINE
 8
a
 90
780
 70
1
 10
3.30559
 20
1.86808
 10
3.31041
 20
1.86802
 10
3.31524
 20
1.8678
 10
3.32007
 20
1.86748
 10
3.32491
 20
1.86705
 10
3.33462
 20
1.86593
 10
3.34434
 20
1.86451
 10
3.36383
 20
1.86087
 10
3.38336
 20
1.85629
 10
3.40293
 20
1.85087
 10
3.42251
 20
1.84468
 10
3.4421
 20
1.83776
 10
3.46168
 20
1.83015
 10
3.48125
 20
1.82187
 10
3.5008
 20
1.81294
 10
3.5008
 20
1.68895
 10
3.48125
 20
1.68003
 10
3.46168
 20
1.67175
 10
3.4421
 20
1.66413
 10
3.42251
 20
1.65721
 10
3.40293
 20
1.65102
 10
3.38336
 20
1.6456
 10
3.36383
 20
1.64103
 10
3.34434
 20
1.63739
 10
3.33462
 20
1.63596
 10
3.32491
 20
1.63485
 10
3.32007
 20
1.63442
 10
3.31524
 20
1.63409
 10
3.31041
 20
1.63388
 10
3.30559
 20
1.63381
 10
3.28845
 20
1.49263
 10
3.29311
 20
1.49141
 10
3.29775
 20
1.49005
 10
3.30236
 20
1.48857
 10
3.30696
 20
1.487
 10
3.31611
 20
1.48359
 10
3.32521
 20
1.47989
 10
3.34327
 20
1.47169
 10
3.36114
 20
1.46257
 10
3.37884
 20
1.45263
 10
3.39637
 20
1.44193
 10
3.41373
 20
1.43052
 10
3.43093
 20
1.41844
 10
3.44795
 20
1.40572
 10
3.46479
 20
1.39237
 10
3.43511
 20
1.27199
 10
3.414
 20
1.268
 10
3.39302
 20
1.26464
 10
3.37218
 20
1.26194
 10
3.35151
 20
1.25991
 10
3.33101
 20
1.25858
 10
3.31072
 20
1.258
 10
3.29065
 20
1.25823
 10
3.27086
 20
1.25936
 10
3.26108
 20
1.26031
 10
3.25139
 20
1.26155
 10
3.24659
 20
1.26229
 10
3.24182
 20
1.26313
 10
3.23708
 20
1.26408
 10
3.23239
 20
1.26517
 10
3.18195
 20
1.13219
 10
3.18619
 20
1.12989
 10
3.19036
 20
1.12746
 10
3.19449
 20
1.12492
 10
3.19858
 20
1.12229
 10
3.20665
 20
1.11679
 10
3.2146
 20
1.11102
 10
3.23016
 20
1.09873
 10
3.24533
 20
1.0856
 10
3.26014
 20
1.07171
 10
3.2746
 20
1.05713
 10
3.28873
 20
1.0419
 10
3.30254
 20
1.02606
 10
3.31601
 20
1.00963
 10
3.32917
 20
0.99264
 10
3.27155
 20
0.88286
 10
3.2501
 20
0.88404
 10
3.22892
 20
0.8858
 10
3.20804
 20
0.88816
 10
3.18748
 20
0.89114
 10
3.16727
 20
0.89475
 10
3.14742
 20
0.89905
 10
3.128
 20
0.90408
 10
3.10905
 20
0.90991
 10
3.09978
 20
0.91317
 10
3.09067
 20
0.91669
 10
3.08618
 20
0.91856
 10
3.08175
 20
0.92052
 10
3.07738
 20
0.92257
 10
3.07308
 20
0.92475
 10
2.99229
 20
0.8077
 10
2.99585
 20
0.80446
 10
2.99932
 20
0.8011
 10
3.00273
 20
0.79765
 10
3.00607
 20
0.79412
 10
3.01259
 20
0.78685
 10
3.01892
 20
0.77934
 10
3.0311
 20
0.76369
 10
3.04268
 20
0.74731
 10
3.05374
 20
0.73028
 10
3.06429
 20
0.71266
 10
3.07436
 20
0.69449
 10
3.08397
 20
0.6758
 10
3.09313
 20
0.65663
 10
3.10184
 20
0.63699
 10
3.01962
 20
0.54418
 10
2.99907
 20
0.55046
 10
2.97893
 20
0.55724
 10
2.95922
 20
0.56452
 10
2.93997
 20
0.57233
 10
2.92121
 20
0.58069
 10
2.90297
 20
0.58961
 10
2.88531
 20
0.59913
 10
2.86831
 20
0.60933
 10
2.86009
 20
0.61471
 10
2.85209
 20
0.62031
 10
2.84818
 20
0.6232
 10
2.84434
 20
0.62616
 10
2.84059
 20
0.62921
 10
2.83694
 20
0.63235
 10
2.73049
 20
0.53804
 10
2.73317
 20
0.53404
 10
2.73574
 20
0.52995
 10
2.73821
 20
0.52578
 10
2.74061
 20
0.52155
 10
2.7452
 20
0.51293
 10
2.74956
 20
0.50412
 10
2.75763
 20
0.48602
 10
2.76496
 20
0.46734
 10
2.77162
 20
0.44816
 10
2.77765
 20
0.42853
 10
2.78308
 20
0.40847
 10
2.78794
 20
0.38803
 10
2.79224
 20
0.36722
 10
2.796
 20
0.34607
 10
2.69396
 20
0.27563
 10
2.67551
 20
0.28665
 10
2.65758
 20
0.29805
 10
2.64019
 20
0.30984
 10
2.62336
 20
0.32203
 10
2.60714
 20
0.33463
 10
2.59157
 20
0.34765
 10
2.57671
 20
0.36113
 10
2.56264
 20
0.3751
 10
2.55594
 20
0.3823
 10
2.54951
 20
0.38965
 10
2.54641
 20
0.39339
 10
2.54339
 20
0.39718
 10
2.54048
 20
0.40103
 10
2.53769
 20
0.40496
 10
2.41176
 20
0.33887
 10
2.4134
 20
0.33434
 10
2.41491
 20
0.32975
 10
2.41632
 20
0.32511
 10
2.41764
 20
0.32043
 10
2.42004
 20
0.31097
 10
2.42215
 20
0.30137
 10
2.42566
 20
0.28186
 10
2.42831
 20
0.26197
 10
2.43018
 20
0.24175
 10
2.43134
 20
0.22125
 10
2.43181
 20
0.20048
 10
2.43164
 20
0.17947
 10
2.43083
 20
0.15823
 10
2.42942
 20
0.13679
 10
2.31349
 20
0.09283
 10
2.29821
 20
0.10794
 10
2.28353
 20
0.1233
 10
2.26947
 20
0.13891
 10
2.25605
 20
0.15477
 10
2.24332
 20
0.17088
 10
2.23131
 20
0.18726
 10
2.22011
 20
0.2039
 10
2.20979
 20
0.22083
 10
2.20501
 20
0.22942
 10
2.20053
 20
0.23809
 10
2.19841
 20
0.24247
 10
2.19639
 20
0.24687
 10
2.19448
 20
0.25131
 10
2.19271
 20
0.25579
 10
2.05462
 20
0.22176
 10
2.05513
 20
0.21697
 10
2.05551
 20
0.21215
 10
2.05576
 20
0.20731
 10
2.05592
 20
0.20245
 10
2.05598
 20
0.19269
 10
2.05574
 20
0.18286
 10
2.05448
 20
0.16308
 10
2.05229
 20
0.14313
 10
2.04927
 20
0.12306
 10
2.04548
 20
0.10287
 10
2.04097
 20
0.08259
 10
2.03578
 20
0.06223
 10
2.02991
 20
0.04181
 10
2.02341
 20
0.02133
 10
1.90033
 20
0.00638
 10
1.88911
 20
0.02471
 10
1.87853
 20
0.04314
 10
1.86861
 20
0.06166
 10
1.85938
 20
0.08027
 10
1.85087
 20
0.09897
 10
1.84314
 20
0.11774
 10
1.83624
 20
0.13658
 10
1.83028
 20
0.15549
 10
1.82769
 20
0.16497
 10
1.82541
 20
0.17446
 10
1.82441
 20
0.17922
 10
1.8235
 20
0.18398
 10
1.82271
 20
0.18875
 10
1.82206
 20
0.19352
 10
1.67984
 20
0.19352
 10
1.67919
 20
0.18875
 10
1.6784
 20
0.18398
 10
1.67749
 20
0.17922
 10
1.67648
 20
0.17446
 10
1.6742
 20
0.16497
 10
1.67162
 20
0.15549
 10
1.66566
 20
0.13658
 10
1.65876
 20
0.11774
 10
1.65102
 20
0.09897
 10
1.64251
 20
0.08027
 10
1.63328
 20
0.06166
 10
1.62336
 20
0.04314
 10
1.61278
 20
0.02471
 10
1.60157
 20
0.00638
 10
1.47848
 20
0.02133
 10
1.47198
 20
0.04181
 10
1.46612
 20
0.06223
 10
1.46092
 20
0.08259
 10
1.45641
 20
0.10287
 10
1.45263
 20
0.12306
 10
1.44961
 20
0.14313
 10
1.44742
 20
0.16308
 10
1.44615
 20
0.18286
 10
1.44591
 20
0.19269
 10
1.44597
 20
0.20245
 10
1.44613
 20
0.20731
 10
1.44639
 20
0.21215
 10
1.44676
 20
0.21697
 10
1.44727
 20
0.22176
 10
1.30919
 20
0.25579
 10
1.30742
 20
0.25131
 10
1.30551
 20
0.24687
 10
1.30348
 20
0.24247
 10
1.30137
 20
0.23809
 10
1.29688
 20
0.22942
 10
1.29211
 20
0.22083
 10
1.28179
 20
0.2039
 10
1.27058
 20
0.18726
 10
1.25858
 20
0.17088
 10
1.24585
 20
0.15477
 10
1.23243
 20
0.13891
 10
1.21837
 20
0.1233
 10
1.20368
 20
0.10794
 10
1.18841
 20
0.09283
 10
1.07248
 20
0.13679
 10
1.07106
 20
0.15823
 10
1.07026
 20
0.17947
 10
1.07008
 20
0.20048
 10
1.07056
 20
0.22125
 10
1.07171
 20
0.24175
 10
1.07359
 20
0.26197
 10
1.07624
 20
0.28186
 10
1.07974
 20
0.30137
 10
1.08186
 20
0.31097
 10
1.08426
 20
0.32043
 10
1.08557
 20
0.32511
 10
1.08698
 20
0.32975
 10
1.08849
 20
0.33434
 10
1.09014
 20
0.33887
 10
0.96421
 20
0.40496
 10
0.96142
 20
0.40103
 10
0.9585
 20
0.39718
 10
0.95548
 20
0.39339
 10
0.95238
 20
0.38965
 10
0.94595
 20
0.3823
 10
0.93926
 20
0.3751
 10
0.92519
 20
0.36113
 10
0.91033
 20
0.34765
 10
0.89475
 20
0.33463
 10
0.87853
 20
0.32203
 10
0.86171
 20
0.30984
 10
0.84432
 20
0.29805
 10
0.82639
 20
0.28665
 10
0.80794
 20
0.27563
 10
0.7059
 20
0.34607
 10
0.70966
 20
0.36722
 10
0.71396
 20
0.38803
 10
0.71882
 20
0.40847
 10
0.72425
 20
0.42853
 10
0.73028
 20
0.44816
 10
0.73693
 20
0.46734
 10
0.74427
 20
0.48602
 10
0.75234
 20
0.50412
 10
0.75669
 20
0.51293
 10
0.76128
 20
0.52155
 10
0.76368
 20
0.52578
 10
0.76616
 20
0.52995
 10
0.76873
 20
0.53404
 10
0.77141
 20
0.53804
 10
0.66495
 20
0.63235
 10
0.6613
 20
0.62921
 10
0.65755
 20
0.62616
 10
0.65371
 20
0.6232
 10
0.64981
 20
0.62031
 10
0.6418
 20
0.61471
 10
0.63358
 20
0.60933
 10
0.61658
 20
0.59913
 10
0.59892
 20
0.58961
 10
0.58069
 20
0.58069
 10
0.56192
 20
0.57233
 10
0.54267
 20
0.56452
 10
0.52296
 20
0.55724
 10
0.50282
 20
0.55046
 10
0.48228
 20
0.54418
 10
0.40006
 20
0.63699
 10
0.40877
 20
0.65663
 10
0.41792
 20
0.6758
 10
0.42753
 20
0.69449
 10
0.43761
 20
0.71266
 10
0.44816
 20
0.73028
 10
0.45921
 20
0.74731
 10
0.4708
 20
0.76369
 10
0.48297
 20
0.77934
 10
0.48931
 20
0.78685
 10
0.49583
 20
0.79412
 10
0.49917
 20
0.79765
 10
0.50257
 20
0.8011
 10
0.50604
 20
0.80446
 10
0.5096
 20
0.8077
 10
0.42881
 20
0.92475
 10
0.42452
 20
0.92257
 10
0.42014
 20
0.92052
 10
0.41571
 20
0.91856
 10
0.41122
 20
0.91669
 10
0.40212
 20
0.91317
 10
0.39285
 20
0.90991
 10
0.3739
 20
0.90408
 10
0.35447
 20
0.89905
 10
0.33463
 20
0.89475
 10
0.31441
 20
0.89114
 10
0.29385
 20
0.88816
 10
0.27297
 20
0.8858
 10
0.2518
 20
0.88404
 10
0.23034
 20
0.88286
 10
0.17272
 20
0.99264
 10
0.18588
 20
1.00963
 10
0.19936
 20
1.02606
 10
0.21316
 20
1.0419
 10
0.22729
 20
1.05713
 10
0.24175
 20
1.07171
 10
0.25656
 20
1.0856
 10
0.27173
 20
1.09873
 10
0.2873
 20
1.11102
 10
0.29524
 20
1.11679
 10
0.30332
 20
1.12229
 10
0.3074
 20
1.12492
 10
0.31153
 20
1.12746
 10
0.31571
 20
1.12989
 10
0.31994
 20
1.13219
 10
0.26951
 20
1.26517
 10
0.26482
 20
1.26408
 10
0.26008
 20
1.26313
 10
0.25531
 20
1.26229
 10
0.2505
 20
1.26155
 10
0.24082
 20
1.26031
 10
0.23104
 20
1.25936
 10
0.21124
 20
1.25823
 10
0.19118
 20
1.258
 10
0.17088
 20
1.25858
 10
0.15039
 20
1.25991
 10
0.12971
 20
1.26194
 10
0.10888
 20
1.26464
 10
0.08789
 20
1.268
 10
0.06678
 20
1.27199
 10
0.03711
 20
1.39237
 10
0.05395
 20
1.40572
 10
0.07097
 20
1.41844
 10
0.08816
 20
1.43052
 10
0.10552
 20
1.44193
 10
0.12306
 20
1.45263
 10
0.14076
 20
1.46257
 10
0.15863
 20
1.47169
 10
0.17668
 20
1.47989
 10
0.18578
 20
1.48359
 10
0.19493
 20
1.487
 10
0.19953
 20
1.48857
 10
0.20415
 20
1.49005
 10
0.20878
 20
1.49141
 10
0.21344
 20
1.49263
 10
0.1963
 20
1.63381
 10
0.19149
 20
1.63388
 10
0.18666
 20
1.63409
 10
0.18182
 20
1.63442
 10
0.17698
 20
1.63485
 10
0.16728
 20
1.63596
 10
0.15756
 20
1.63739
 10
0.13807
 20
1.64103
 10
0.11853
 20
1.6456
 10
0.09897
 20
1.65102
 10
0.07938
 20
1.65721
 10
0.0598
 20
1.66413
 10
0.04021
 20
1.67175
 10
0.02064
 20
1.68003
 10
0.0011
 20
1.68895
 10
0.0011
 20
1.81294
 10
0.02064
 20
1.82187
 10
0.04021
 20
1.83015
 10
0.0598
 20
1.83776
 10
0.07938
 20
1.84468
 10
0.09897
 20
1.85087
 10
0.11853
 20
1.85629
 10
0.13807
 20
1.86087
 10
0.15756
 20
1.86451
 10
0.16728
 20
1.86593
 10
0.17698
 20
1.86705
 10
0.18182
 20
1.86748
 10
0.18666
 20
1.8678
 10
0.19149
 20
1.86802
 10
0.1963
 20
1.86808
 10
0.21344
 20
2.00927
 10
0.20878
 20
2.01049
 10
0.20415
 20
2.01185
 10
0.19953
 20
2.01332
 10
0.19493
 20
2.0149
 10
0.18578
 20
2.0183
 10
0.17668
 20
2.02201
 10
0.15863
 20
2.03021
 10
0.14076
 20
2.03933
 10
0.12306
 20
2.04927
 10
0.10552
 20
2.05997
 10
0.08816
 20
2.07138
 10
0.07097
 20
2.08346
 10
0.05395
 20
2.09618
 10
0.03711
 20
2.10952
 10
0.06678
 20
2.22991
 10
0.08789
 20
2.2339
 10
0.10888
 20
2.23725
 10
0.12971
 20
2.23996
 10
0.15039
 20
2.24199
 10
0.17088
 20
2.24332
 10
0.19118
 20
2.24389
 10
0.21124
 20
2.24366
 10
0.23104
 20
2.24253
 10
0.24082
 20
2.24159
 10
0.2505
 20
2.24035
 10
0.25531
 20
2.23961
 10
0.26008
 20
2.23877
 10
0.26482
 20
2.23782
 10
0.26951
 20
2.23673
 10
0.31994
 20
2.36971
 10
0.31571
 20
2.37201
 10
0.31153
 20
2.37444
 10
0.3074
 20
2.37698
 10
0.30332
 20
2.3796
 10
0.29524
 20
2.3851
 10
0.2873
 20
2.39088
 10
0.27173
 20
2.40316
 10
0.25656
 20
2.41629
 10
0.24175
 20
2.43018
 10
0.22729
 20
2.44476
 10
0.21316
 20
2.46
 10
0.19936
 20
2.47584
 10
0.18588
 20
2.49227
 10
0.17272
 20
2.50925
 10
0.23034
 20
2.61904
 10
0.2518
 20
2.61786
 10
0.27297
 20
2.61609
 10
0.29385
 20
2.61374
 10
0.31441
 20
2.61076
 10
0.33463
 20
2.60714
 10
0.35447
 20
2.60285
 10
0.3739
 20
2.59782
 10
0.39285
 20
2.59199
 10
0.40212
 20
2.58873
 10
0.41122
 20
2.58521
 10
0.41571
 20
2.58334
 10
0.42014
 20
2.58138
 10
0.42452
 20
2.57932
 10
0.42881
 20
2.57715
 10
0.5096
 20
2.69419
 10
0.50604
 20
2.69744
 10
0.50257
 20
2.70079
 10
0.49917
 20
2.70425
 10
0.49583
 20
2.70778
 10
0.48931
 20
2.71505
 10
0.48297
 20
2.72256
 10
0.4708
 20
2.73821
 10
0.45921
 20
2.75459
 10
0.44816
 20
2.77162
 10
0.43761
 20
2.78924
 10
0.42753
 20
2.80741
 10
0.41792
 20
2.82609
 10
0.40877
 20
2.84527
 10
0.40006
 20
2.86491
 10
0.48228
 20
2.95772
 10
0.50282
 20
2.95144
 10
0.52296
 20
2.94466
 10
0.54267
 20
2.93737
 10
0.56192
 20
2.92956
 10
0.58069
 20
2.92121
 10
0.59892
 20
2.91229
 10
0.61658
 20
2.90276
 10
0.63358
 20
2.89256
 10
0.6418
 20
2.88718
 10
0.64981
 20
2.88158
 10
0.65371
 20
2.87869
 10
0.65755
 20
2.87573
 10
0.6613
 20
2.87269
 10
0.66495
 20
2.86955
 10
0.77141
 20
2.96386
 10
0.76873
 20
2.96786
 10
0.76616
 20
2.97195
 10
0.76368
 20
2.97612
 10
0.76128
 20
2.98034
 10
0.75669
 20
2.98896
 10
0.75234
 20
2.99777
 10
0.74427
 20
3.01588
 10
0.73693
 20
3.03456
 10
0.73028
 20
3.05374
 10
0.72425
 20
3.07337
 10
0.71882
 20
3.09342
 10
0.71396
 20
3.11387
 10
0.70966
 20
3.13467
 10
0.7059
 20
3.15583
 10
0.80794
 20
3.22626
 10
0.82639
 20
3.21525
 10
0.84432
 20
3.20385
 10
0.86171
 20
3.19205
 10
0.87853
 20
3.17986
 10
0.89475
 20
3.16727
 10
0.91033
 20
3.15424
 10
0.92519
 20
3.14076
 10
0.93926
 20
3.12679
 10
0.94595
 20
3.1196
 10
0.95238
 20
3.11225
 10
0.95548
 20
3.10851
 10
0.9585
 20
3.10471
 10
0.96142
 20
3.10086
 10
0.96421
 20
3.09694
 10
1.09014
 20
3.16303
 10
1.08849
 20
3.16756
 10
1.08698
 20
3.17215
 10
1.08557
 20
3.17678
 10
1.08426
 20
3.18146
 10
1.08186
 20
3.19093
 10
1.07974
 20
3.20052
 10
1.07624
 20
3.22004
 10
1.07359
 20
3.23993
 10
1.07171
 20
3.26014
 10
1.07056
 20
3.28065
 10
1.07008
 20
3.30142
 10
1.07026
 20
3.32243
 10
1.07106
 20
3.34366
 10
1.07248
 20
3.3651
 10
1.18841
 20
3.40907
 10
1.20368
 20
3.39396
 10
1.21837
 20
3.3786
 10
1.23243
 20
3.36299
 10
1.24585
 20
3.34713
 10
1.25858
 20
3.33101
 10
1.27058
 20
3.31464
 10
1.28179
 20
3.29799
 10
1.29211
 20
3.28106
 10
1.29688
 20
3.27248
 10
1.30137
 20
3.2638
 10
1.30348
 20
3.25943
 10
1.30551
 20
3.25502
 10
1.30742
 20
3.25058
 10
1.30919
 20
3.2461
 10
1.44727
 20
3.28014
 10
1.44676
 20
3.28493
 10
1.44639
 20
3.28975
 10
1.44613
 20
3.29458
 10
1.44597
 20
3.29944
 10
1.44591
 20
3.30921
 10
1.44615
 20
3.31903
 10
1.44742
 20
3.33882
 10
1.44961
 20
3.35876
 10
1.45263
 20
3.37884
 10
1.45641
 20
3.39903
 10
1.46092
 20
3.41931
 10
1.46612
 20
3.43966
 10
1.47198
 20
3.46009
 10
1.47848
 20
3.48057
 10
1.60157
 20
3.49551
 10
1.61278
 20
3.47719
 10
1.62336
 20
3.45876
 10
1.63328
 20
3.44023
 10
1.64251
 20
3.42162
 10
1.65102
 20
3.40293
 10
1.65876
 20
3.38416
 10
1.66566
 20
3.36532
 10
1.67162
 20
3.34641
 10
1.6742
 20
3.33693
 10
1.67648
 20
3.32743
 10
1.67749
 20
3.32268
 10
1.6784
 20
3.31792
 10
1.67919
 20
3.31315
 10
1.67984
 20
3.30838
 10
1.82206
 20
3.30838
 10
1.82271
 20
3.31315
 10
1.8235
 20
3.31792
 10
1.82441
 20
3.32268
 10
1.82541
 20
3.32743
 10
1.82769
 20
3.33693
 10
1.83028
 20
3.34641
 10
1.83624
 20
3.36532
 10
1.84314
 20
3.38416
 10
1.85087
 20
3.40293
 10
1.85938
 20
3.42162
 10
1.86861
 20
3.44023
 10
1.87853
 20
3.45876
 10
1.88911
 20
3.47719
 10
1.90033
 20
3.49551
 10
2.02341
 20
3.48057
 10
2.02991
 20
3.46009
 10
2.03578
 20
3.43966
 10
2.04097
 20
3.41931
 10
2.04548
 20
3.39903
 10
2.04927
 20
3.37884
 10
2.05229
 20
3.35876
 10
2.05448
 20
3.33882
 10
2.05574
 20
3.31903
 10
2.05598
 20
3.30921
 10
2.05592
 20
3.29944
 10
2.05576
 20
3.29458
 10
2.05551
 20
3.28975
 10
2.05513
 20
3.28493
 10
2.05462
 20
3.28014
 10
2.19271
 20
3.2461
 10
2.19448
 20
3.25058
 10
2.19639
 20
3.25502
 10
2.19841
 20
3.25943
 10
2.20053
 20
3.2638
 10
2.20501
 20
3.27248
 10
2.20979
 20
3.28106
 10
2.22011
 20
3.29799
 10
2.23131
 20
3.31464
 10
2.24332
 20
3.33101
 10
2.25605
 20
3.34713
 10
2.26947
 20
3.36299
 10
2.28353
 20
3.3786
 10
2.29821
 20
3.39396
 10
2.31349
 20
3.40907
 10
2.42942
 20
3.3651
 10
2.43083
 20
3.34366
 10
2.43164
 20
3.32243
 10
2.43181
 20
3.30142
 10
2.43134
 20
3.28065
 10
2.43018
 20
3.26014
 10
2.42831
 20
3.23993
 10
2.42566
 20
3.22004
 10
2.42215
 20
3.20052
 10
2.42004
 20
3.19093
 10
2.41764
 20
3.18146
 10
2.41632
 20
3.17678
 10
2.41491
 20
3.17215
 10
2.4134
 20
3.16756
 10
2.41176
 20
3.16303
 10
2.53769
 20
3.09694
 10
2.54048
 20
3.10086
 10
2.54339
 20
3.10471
 10
2.54641
 20
3.10851
 10
2.54951
 20
3.11225
 10
2.55594
 20
3.1196
 10
2.56264
 20
3.12679
 10
2.57671
 20
3.14076
 10
2.59157
 20
3.15424
 10
2.60714
 20
3.16727
 10
2.62336
 20
3.17986
 10
2.64019
 20
3.19205
 10
2.65758
 20
3.20385
 10
2.67551
 20
3.21525
 10
2.69396
 20
3.22626
 10
2.796
 20
3.15583
 10
2.79224
 20
3.13467
 10
2.78794
 20
3.11387
 10
2.78308
 20
3.09342
 10
2.77765
 20
3.07337
 10
2.77162
 20
3.05374
 10
2.76496
 20
3.03456
 10
2.75763
 20
3.01588
 10
2.74956
 20
2.99777
 10
2.7452
 20
2.98896
 10
2.74061
 20
2.98034
 10
2.73821
 20
2.97612
 10
2.73574
 20
2.97195
 10
2.73317
 20
2.96786
 10
2.73049
 20
2.96386
 10
2.83694
 20
2.86955
 10
2.84059
 20
2.87269
 10
2.84434
 20
2.87573
 10
2.84818
 20
2.87869
 10
2.85209
 20
2.88158
 10
2.86009
 20
2.88718
 10
2.86831
 20
2.89256
 10
2.88531
 20
2.90276
 10
2.90297
 20
2.91229
 10
2.92121
 20
2.92121
 10
2.93997
 20
2.92956
 10
2.95922
 20
2.93737
 10
2.97893
 20
2.94466
 10
2.99907
 20
2.95144
 10
3.01962
 20
2.95772
 10
3.10184
 20
2.86491
 10
3.09313
 20
2.84527
 10
3.08397
 20
2.82609
 10
3.07436
 20
2.80741
 10
3.06429
 20
2.78924
 10
3.05374
 20
2.77162
 10
3.04268
 20
2.75459
 10
3.0311
 20
2.73821
 10
3.01892
 20
2.72256
 10
3.01259
 20
2.71505
 10
3.00607
 20
2.70778
 10
3.00273
 20
2.70425
 10
2.99932
 20
2.70079
 10
2.99585
 20
2.69744
 10
2.99229
 20
2.69419
 10
3.07308
 20
2.57715
 10
3.07738
 20
2.57932
 10
3.08175
 20
2.58138
 10
3.08618
 20
2.58334
 10
3.09067
 20
2.58521
 10
3.09978
 20
2.58873
 10
3.10905
 20
2.59199
 10
3.128
 20
2.59782
 10
3.14742
 20
2.60285
 10
3.16727
 20
2.60714
 10
3.18748
 20
2.61076
 10
3.20804
 20
2.61374
 10
3.22892
 20
2.61609
 10
3.2501
 20
2.61786
 10
3.27155
 20
2.61904
 10
3.32917
 20
2.50925
 10
3.31601
 20
2.49227
 10
3.30254
 20
2.47584
 10
3.28873
 20
2.46
 10
3.2746
 20
2.44476
 10
3.26014
 20
2.43018
 10
3.24533
 20
2.41629
 10
3.23016
 20
2.40316
 10
3.2146
 20
2.39088
 10
3.20665
 20
2.3851
 10
3.19858
 20
2.3796
 10
3.19449
 20
2.37698
 10
3.19036
 20
2.37444
 10
3.18619
 20
2.37201
 10
3.18195
 20
2.36971
 10
3.23239
 20
2.23673
 10
3.23708
 20
2.23782
 10
3.24182
 20
2.23877
 10
3.24659
 20
2.23961
 10
3.25139
 20
2.24035
 10
3.26108
 20
2.24159
 10
3.27086
 20
2.24253
 10
3.29065
 20
2.24366
 10
3.31072
 20
2.24389
 10
3.33101
 20
2.24332
 10
3.35151
 20
2.24199
 10
3.37218
 20
2.23996
 10
3.39302
 20
2.23725
 10
3.414
 20
2.2339
 10
3.43511
 20
2.22991
 10
3.46479
 20
2.10952
 10
3.44795
 20
2.09618
 10
3.43093
 20
2.08346
 10
3.41373
 20
2.07138
 10
3.39637
 20
2.05997
 10
3.37884
 20
2.04927
 10
3.36114
 20
2.03933
 10
3.34327
 20
2.03021
 10
3.32521
 20
2.02201
 10
3.31611
 20
2.0183
 10
3.30696
 20
2.0149
 10
3.30236
 20
2.01332
 10
3.29775
 20
2.01185
 10
3.29311
 20
2.01049
 10
3.28845
 20
2.00927
 0
LWPOLYLINE
 8
a
 90
21
 70
1
 10
2.12234
 20
1.87093
 10
3.0648
 20
1.87093
 10
3.11823
 20
1.93092
 10
3.10329
 20
2.02115
 10
3.08241
 20
2.11018
 10
3.05568
 20
2.19764
 10
3.0232
 20
2.28313
 10
2.98513
 20
2.36628
 10
2.94164
 20
2.44672
 10
2.89291
 20
2.52411
 10
2.83915
 20
2.59809
 10
2.78061
 20
2.66835
 10
2.71755
 20
2.73458
 10
2.65023
 20
2.79648
 10
2.57896
 20
2.85378
 10
2.50405
 20
2.90624
 10
2.42582
 20
2.95361
 10
2.34463
 20
2.99569
 10
2.27106
 20
2.96342
 10
1.97983
 20
2.06709
 10
2.00896
 20
1.96261
 0
LWPOLYLINE
 8
a
 90
21
 70
1
 10
1.7516
 20
2.14124
 10
2.04284
 20
3.03757
 10
2.00229
 20
3.10693
 10
1.91187
 20
3.1206
 10
1.82074
 20
3.12826
 10
1.7293
 20
3.12985
 10
1.63796
 20
3.12539
 10
1.54712
 20
3.11488
 10
1.45717
 20
3.09837
 10
1.36851
 20
3.07594
 10
1.28154
 20
3.04768
 10
1.19663
 20
3.01371
 10
1.11415
 20
2.9742
 10
1.03448
 20
2.9293
 10
0.95796
 20
2.87923
 10
0.88492
 20
2.82419
 10
0.8157
 20
2.76443
 10
0.75058
 20
2.70022
 10
0.75854
 20
2.62028
 10
1.52101
 20
2.06632
 10
1.62938
 20
2.06174
 0
LWPOLYLINE
 8
a
 90
21
 70
1
 10
1.37996
 20
1.87218
 10
0.61749
 20
2.42614
 10
0.53901
 20
2.40901
 10
0.49806
 20
2.32724
 10
0.46262
 20
2.24294
 10
0.43284
 20
2.15647
 10
0.40886
 20
2.06822
 10
0.39079
 20
1.97857
 10
0.37869
 20
1.88792
 10
0.37263
 20
1.79667
 10
0.37263
 20
1.70522
 10
0.37869
 20
1.61397
 10
0.39079
 20
1.52333
 10
0.40886
 20
1.43368
 10
0.43284
 20
1.34543
 10
0.46262
 20
1.25896
 10
0.49806
 20
1.17466
 10
0.53901
 20
1.09288
 10
0.61749
 20
1.07575
 10
1.37996
 20
1.62972
 10
1.4178
 20
1.73137
 0
LWPOLYLINE
 8
a
 90
21
 70
1
 10
1.52101
 20
1.43558
 10
0.75854
 20
0.88161
 10
0.75058
 20
0.80168
 10
0.8157
 20
0.73746
 10
0.88492
 20
0.67771
 10
0.95796
 20
0.62267
 10
1.03448
 20
0.57259
 10
1.11415
 20
0.5277
 10
1.19663
 20
0.48818
 10
1.28154
 20
0.45422
 10
1.36851
 20
0.42596
 10
1.45717
 20
0.40353
 10
1.54712
 20
0.38702
 10
1.63796
 20
0.37651
 10
1.7293
 20
0.37204
 10
1.82074
 20
0.37364
 10
1.91187
 20
0.38129
 10
2.00229
 20
0.39497
 10
2.04284
 20
0.46432
 10
1.7516
 20
1.36065
 10
1.66662
 20
1.42806
 0
LWPOLYLINE
 8
a
 90
21
 70
1
 10
1.97983
 20
1.43481
 10
2.27106
 20
0.53848
 10
2.34463
 20
0.5062
 10
2.42582
 20
0.54829
 10
2.50405
 20
0.59566
 10
2.57896
 20
0.64811
 10
2.65023
 20
0.70541
 10
2.71755
 20
0.76732
 10
2.78061
 20
0.83354
 10
2.83915
 20
0.9038
 10
2.89291
 20
0.97779
 10
2.94164
 20
1.05517
 10
2.98513
 20
1.13562
 10
3.0232
 20
1.21877
 10
3.05568
 20
1.30426
 10
3.08241
 20
1.39171
 10
3.10329
 20
1.48075
 10
3.11823
 20
1.57097
 10
3.0648
 20
1.63096
 10
2.12234
 20
1.63096
 10
2.03198
 20
1.57097
 0
CIRCLE
 8
a
 10
1.75095
 20
1.75095
 40
0.09375
  0
ENDSEC
  0
EOF
